<svg xmlns="http://www.w3.org/2000/svg" xmlns:xlink="http://www.w3.org/1999/xlink" width="600" zoomAndPan="magnify" viewBox="0 0 450 225" height="300" preserveAspectRatio="xMidYMid meet" version="1.0"><defs><g/><clipPath id="ce05f1aa69"><path d="M 126.753906 161 L 323.253906 161 L 323.253906 207 L 126.753906 207 Z M 126.753906 161 " clip-rule="nonzero"/></clipPath><clipPath id="de269ae945"><path d="M 195 18.003906 L 256 18.003906 L 256 101 L 195 101 Z M 195 18.003906 " clip-rule="nonzero"/></clipPath><clipPath id="fe325a9566"><path d="M 134.734375 157 L 315.484375 157 L 315.484375 199 L 134.734375 199 Z M 134.734375 157 " clip-rule="nonzero"/></clipPath><clipPath id="47b4238e10"><path d="M 197 25.679688 L 253 25.679688 L 253 102 L 197 102 Z M 197 25.679688 " clip-rule="nonzero"/></clipPath></defs><rect x="-45" width="540" fill="#ffffff" y="-22.5" height="270" fill-opacity="1"/><rect x="-45" width="540" fill="#0e1914" y="-22.5" height="270" fill-opacity="1"/><g clip-path="url(#ce05f1aa69)"><path fill="#274938" d="M 315.683594 161.242188 C 311.503906 161.242188 308.125 164.621094 308.125 168.800781 L 308.125 191.472656 L 141.867188 191.472656 L 141.867188 168.800781 C 141.867188 164.621094 138.480469 161.242188 134.308594 161.242188 C 130.136719 161.242188 126.753906 164.621094 126.753906 168.800781 L 126.753906 199.027344 C 126.753906 203.207031 130.136719 206.585938 134.308594 206.585938 L 315.683594 206.585938 C 319.863281 206.585938 323.242188 203.207031 323.242188 199.027344 L 323.242188 168.800781 C 323.242188 164.621094 319.863281 161.242188 315.683594 161.242188 Z M 315.683594 161.242188 " fill-opacity="1" fill-rule="nonzero"/></g><g clip-path="url(#de269ae945)"><path fill="#274938" d="M 222.691406 99.75 C 223.378906 100.292969 224.226562 100.574219 225.070312 100.574219 C 225.910156 100.574219 226.75 100.300781 227.453125 99.75 C 228.140625 99.210938 244.132812 84.460938 254.386719 69.285156 C 255.171875 68.113281 255.25 66.609375 254.582031 65.363281 C 253.910156 64.117188 252.609375 63.339844 251.199219 63.339844 L 237.769531 63.339844 C 237.769531 63.339844 235.394531 22.839844 234.421875 21.480469 C 233 19.46875 228.910156 18.101562 225.058594 18.101562 C 221.195312 18.101562 216.5625 19.46875 215.132812 21.480469 C 214.167969 22.847656 212.339844 63.339844 212.339844 63.339844 L 198.945312 63.339844 C 197.527344 63.339844 196.21875 64.117188 195.554688 65.363281 C 194.886719 66.601562 194.964844 68.113281 195.757812 69.292969 C 206.011719 84.460938 222.019531 99.210938 222.691406 99.75 Z M 222.691406 99.75 " fill-opacity="1" fill-rule="nonzero"/></g><path fill="#274938" d="M 169.769531 137.367188 L 157.8125 143.511719 C 156.558594 144.15625 155.75 145.449219 155.726562 146.859375 C 155.703125 148.273438 156.460938 149.582031 157.699219 150.261719 C 173.757812 159.066406 195.871094 165.898438 196.726562 166.0625 C 197.601562 166.230469 198.472656 166.09375 199.226562 165.707031 C 199.980469 165.324219 200.601562 164.6875 200.972656 163.878906 C 201.328125 163.09375 207.675781 141.632812 209.859375 123.457031 C 210.027344 122.050781 209.398438 120.675781 208.242188 119.875 C 207.085938 119.074219 205.566406 118.972656 204.304688 119.625 L 192.386719 125.746094 C 192.386719 125.746094 171.890625 85.421875 127.582031 108.183594 C 155.21875 99.734375 169.769531 137.367188 169.769531 137.367188 Z M 169.769531 137.367188 " fill-opacity="1" fill-rule="nonzero"/><path fill="#274938" d="M 241.75 119.875 C 240.59375 120.675781 239.96875 122.050781 240.132812 123.457031 C 242.316406 141.632812 248.664062 163.09375 249.019531 163.878906 C 249.390625 164.6875 250.011719 165.324219 250.765625 165.707031 C 251.523438 166.09375 252.390625 166.230469 253.269531 166.0625 C 254.121094 165.898438 276.234375 159.066406 292.285156 150.253906 C 293.527344 149.574219 294.28125 148.265625 294.257812 146.851562 C 294.234375 145.441406 293.425781 144.148438 292.171875 143.503906 L 280.226562 137.367188 C 280.226562 137.367188 294.773438 99.734375 322.410156 108.183594 C 278.101562 85.421875 257.605469 125.746094 257.605469 125.746094 L 245.6875 119.625 C 244.425781 118.972656 242.90625 119.074219 241.75 119.875 Z M 241.75 119.875 " fill-opacity="1" fill-rule="nonzero"/><g clip-path="url(#fe325a9566)"><path fill="#36644e" d="M 308.316406 157.28125 C 304.476562 157.28125 301.375 160.386719 301.375 164.226562 L 301.375 185.054688 L 148.621094 185.054688 L 148.621094 164.226562 C 148.621094 160.386719 145.507812 157.28125 141.675781 157.28125 C 137.84375 157.28125 134.734375 160.386719 134.734375 164.226562 L 134.734375 192 C 134.734375 195.839844 137.84375 198.941406 141.675781 198.941406 L 308.316406 198.941406 C 312.15625 198.941406 315.261719 195.839844 315.261719 192 L 315.261719 164.226562 C 315.261719 160.386719 312.15625 157.28125 308.316406 157.28125 Z M 308.316406 157.28125 " fill-opacity="1" fill-rule="nonzero"/></g><g clip-path="url(#47b4238e10)"><path fill="#36644e" d="M 222.878906 100.785156 C 223.511719 101.285156 224.289062 101.539062 225.066406 101.539062 C 225.835938 101.539062 226.605469 101.289062 227.253906 100.785156 C 227.882812 100.292969 242.578125 86.738281 252 72.796875 C 252.722656 71.71875 252.789062 70.335938 252.179688 69.191406 C 251.5625 68.046875 250.367188 67.332031 249.070312 67.332031 L 236.730469 67.332031 C 236.730469 67.332031 234.550781 30.121094 233.65625 28.871094 C 232.347656 27.023438 228.59375 25.769531 225.050781 25.769531 C 221.503906 25.769531 217.246094 27.023438 215.933594 28.871094 C 215.046875 30.128906 213.367188 67.332031 213.367188 67.332031 L 201.0625 67.332031 C 199.757812 67.332031 198.554688 68.046875 197.945312 69.191406 C 197.332031 70.332031 197.402344 71.71875 198.132812 72.800781 C 207.554688 86.738281 222.261719 100.292969 222.878906 100.785156 Z M 222.878906 100.785156 " fill-opacity="1" fill-rule="nonzero"/></g><path fill="#36644e" d="M 174.253906 135.347656 L 163.269531 140.992188 C 162.117188 141.582031 161.375 142.769531 161.351562 144.070312 C 161.332031 145.367188 162.027344 146.570312 163.164062 147.195312 C 177.921875 155.28125 198.238281 161.558594 199.019531 161.710938 C 199.828125 161.863281 200.625 161.738281 201.320312 161.386719 C 202.015625 161.03125 202.582031 160.449219 202.921875 159.707031 C 203.25 158.984375 209.082031 139.265625 211.089844 122.566406 C 211.242188 121.273438 210.664062 120.011719 209.601562 119.273438 C 208.539062 118.539062 207.144531 118.449219 205.984375 119.046875 L 195.035156 124.667969 C 195.035156 124.667969 176.207031 87.621094 135.496094 108.53125 C 160.886719 100.769531 174.253906 135.347656 174.253906 135.347656 Z M 174.253906 135.347656 " fill-opacity="1" fill-rule="nonzero"/><path fill="#36644e" d="M 240.390625 119.273438 C 239.328125 120.011719 238.75 121.273438 238.902344 122.566406 C 240.910156 139.265625 246.742188 158.984375 247.070312 159.707031 C 247.410156 160.449219 247.980469 161.03125 248.671875 161.386719 C 249.367188 161.738281 250.164062 161.863281 250.972656 161.710938 C 251.757812 161.558594 272.070312 155.28125 286.820312 147.1875 C 287.957031 146.5625 288.652344 145.359375 288.632812 144.0625 C 288.609375 142.761719 287.867188 141.578125 286.714844 140.984375 L 275.738281 135.347656 C 275.738281 135.347656 289.105469 100.769531 314.496094 108.53125 C 273.789062 87.621094 254.957031 124.667969 254.957031 124.667969 L 244.007812 119.046875 C 242.847656 118.449219 241.453125 118.539062 240.390625 119.273438 Z M 240.390625 119.273438 " fill-opacity="1" fill-rule="nonzero"/><g fill="#ffffff" fill-opacity="1"><g transform="translate(186.312137, 96.129908)"><g><path d="M 18.65625 0 L 9.265625 -12.328125 L 9.265625 0 L 2.46875 0 L 2.46875 -27.921875 L 9.265625 -27.921875 L 9.265625 -15.671875 L 18.578125 -27.921875 L 26.578125 -27.921875 L 15.75 -14.234375 L 26.96875 0 Z M 18.65625 0 "/></g></g></g><g fill="#ffffff" fill-opacity="1"><g transform="translate(214.0342, 96.129908)"><g><path d="M 23.390625 -11.453125 C 23.390625 -10.816406 23.347656 -10.15625 23.265625 -9.46875 L 7.875 -9.46875 C 7.976562 -8.09375 8.421875 -7.039062 9.203125 -6.3125 C 9.992188 -5.582031 10.957031 -5.21875 12.09375 -5.21875 C 13.789062 -5.21875 14.972656 -5.929688 15.640625 -7.359375 L 22.875 -7.359375 C 22.5 -5.898438 21.828125 -4.585938 20.859375 -3.421875 C 19.890625 -2.253906 18.675781 -1.335938 17.21875 -0.671875 C 15.757812 -0.015625 14.128906 0.3125 12.328125 0.3125 C 10.148438 0.3125 8.210938 -0.148438 6.515625 -1.078125 C 4.828125 -2.003906 3.503906 -3.328125 2.546875 -5.046875 C 1.585938 -6.773438 1.109375 -8.789062 1.109375 -11.09375 C 1.109375 -13.40625 1.578125 -15.421875 2.515625 -17.140625 C 3.460938 -18.867188 4.785156 -20.195312 6.484375 -21.125 C 8.179688 -22.050781 10.128906 -22.515625 12.328125 -22.515625 C 14.472656 -22.515625 16.378906 -22.0625 18.046875 -21.15625 C 19.722656 -20.257812 21.03125 -18.972656 21.96875 -17.296875 C 22.914062 -15.628906 23.390625 -13.679688 23.390625 -11.453125 Z M 16.4375 -13.25 C 16.4375 -14.414062 16.035156 -15.34375 15.234375 -16.03125 C 14.441406 -16.71875 13.445312 -17.0625 12.25 -17.0625 C 11.113281 -17.0625 10.148438 -16.726562 9.359375 -16.0625 C 8.578125 -15.40625 8.097656 -14.46875 7.921875 -13.25 Z M 16.4375 -13.25 "/></g></g></g><g fill="#ffffff" fill-opacity="1"><g transform="translate(238.534615, 96.129908)"><g><path d="M 25.140625 -22.203125 L 11.21875 10.546875 L 3.90625 10.546875 L 8.984375 -0.75 L -0.046875 -22.203125 L 7.5625 -22.203125 L 12.6875 -8.3125 L 17.78125 -22.203125 Z M 25.140625 -22.203125 "/></g></g></g><g fill="#ffffff" fill-opacity="1"><g transform="translate(109.277537, 149.920024)"><g><path d="M 42.0625 -44.078125 L 42.0625 0 L 31.328125 0 L 31.328125 -18.140625 L 14.625 -18.140625 L 14.625 0 L 3.890625 0 L 3.890625 -44.078125 L 14.625 -44.078125 L 14.625 -26.8125 L 31.328125 -26.8125 L 31.328125 -44.078125 Z M 42.0625 -44.078125 "/></g></g></g><g fill="#ffffff" fill-opacity="1"><g transform="translate(155.159233, 149.920024)"><g><path d="M 9.296875 -38.671875 C 7.410156 -38.671875 5.867188 -39.222656 4.671875 -40.328125 C 3.484375 -41.441406 2.890625 -42.816406 2.890625 -44.453125 C 2.890625 -46.117188 3.484375 -47.503906 4.671875 -48.609375 C 5.867188 -49.722656 7.410156 -50.28125 9.296875 -50.28125 C 11.128906 -50.28125 12.640625 -49.722656 13.828125 -48.609375 C 15.023438 -47.503906 15.625 -46.117188 15.625 -44.453125 C 15.625 -42.816406 15.023438 -41.441406 13.828125 -40.328125 C 12.640625 -39.222656 11.128906 -38.671875 9.296875 -38.671875 Z M 14.625 -35.03125 L 14.625 0 L 3.890625 0 L 3.890625 -35.03125 Z M 14.625 -35.03125 "/></g></g></g><g fill="#ffffff" fill-opacity="1"><g transform="translate(173.675098, 149.920024)"><g><path d="M 18.140625 0.5 C 15.085938 0.5 12.367188 -0.0195312 9.984375 -1.0625 C 7.597656 -2.113281 5.710938 -3.546875 4.328125 -5.359375 C 2.953125 -7.179688 2.179688 -9.222656 2.015625 -11.484375 L 12.625 -11.484375 C 12.75 -10.273438 13.3125 -9.289062 14.3125 -8.53125 C 15.320312 -7.78125 16.554688 -7.40625 18.015625 -7.40625 C 19.359375 -7.40625 20.394531 -7.664062 21.125 -8.1875 C 21.851562 -8.71875 22.21875 -9.398438 22.21875 -10.234375 C 22.21875 -11.234375 21.691406 -11.972656 20.640625 -12.453125 C 19.597656 -12.941406 17.90625 -13.476562 15.5625 -14.0625 C 13.050781 -14.644531 10.957031 -15.257812 9.28125 -15.90625 C 7.613281 -16.5625 6.171875 -17.585938 4.953125 -18.984375 C 3.742188 -20.390625 3.140625 -22.285156 3.140625 -24.671875 C 3.140625 -26.679688 3.691406 -28.507812 4.796875 -30.15625 C 5.910156 -31.8125 7.546875 -33.117188 9.703125 -34.078125 C 11.859375 -35.046875 14.421875 -35.53125 17.390625 -35.53125 C 21.785156 -35.53125 25.25 -34.441406 27.78125 -32.265625 C 30.3125 -30.085938 31.765625 -27.203125 32.140625 -23.609375 L 22.21875 -23.609375 C 22.050781 -24.816406 21.519531 -25.773438 20.625 -26.484375 C 19.726562 -27.203125 18.546875 -27.5625 17.078125 -27.5625 C 15.816406 -27.5625 14.851562 -27.316406 14.1875 -26.828125 C 13.519531 -26.347656 13.1875 -25.691406 13.1875 -24.859375 C 13.1875 -23.859375 13.71875 -23.101562 14.78125 -22.59375 C 15.851562 -22.09375 17.519531 -21.59375 19.78125 -21.09375 C 22.375 -20.425781 24.484375 -19.765625 26.109375 -19.109375 C 27.742188 -18.460938 29.175781 -17.414062 30.40625 -15.96875 C 31.644531 -14.53125 32.285156 -12.597656 32.328125 -10.171875 C 32.328125 -8.117188 31.75 -6.285156 30.59375 -4.671875 C 29.445312 -3.066406 27.796875 -1.800781 25.640625 -0.875 C 23.484375 0.0390625 20.984375 0.5 18.140625 0.5 Z M 18.140625 0.5 "/></g></g></g><g fill="#ffffff" fill-opacity="1"><g transform="translate(208.698331, 149.920024)"><g><path d="M 23.421875 -9.109375 L 23.421875 0 L 17.953125 0 C 14.054688 0 11.019531 -0.953125 8.84375 -2.859375 C 6.675781 -4.765625 5.59375 -7.867188 5.59375 -12.171875 L 5.59375 -26.109375 L 1.3125 -26.109375 L 1.3125 -35.03125 L 5.59375 -35.03125 L 5.59375 -43.5625 L 16.328125 -43.5625 L 16.328125 -35.03125 L 23.359375 -35.03125 L 23.359375 -26.109375 L 16.328125 -26.109375 L 16.328125 -12.046875 C 16.328125 -11.003906 16.578125 -10.253906 17.078125 -9.796875 C 17.578125 -9.335938 18.414062 -9.109375 19.59375 -9.109375 Z M 23.421875 -9.109375 "/></g></g></g><g fill="#ffffff" fill-opacity="1"><g transform="translate(234.181187, 149.920024)"><g><path d="M 19.84375 0.5 C 16.40625 0.5 13.316406 -0.226562 10.578125 -1.6875 C 7.835938 -3.15625 5.679688 -5.25 4.109375 -7.96875 C 2.546875 -10.6875 1.765625 -13.867188 1.765625 -17.515625 C 1.765625 -21.117188 2.554688 -24.289062 4.140625 -27.03125 C 5.734375 -29.769531 7.910156 -31.867188 10.671875 -33.328125 C 13.429688 -34.796875 16.53125 -35.53125 19.96875 -35.53125 C 23.394531 -35.53125 26.488281 -34.796875 29.25 -33.328125 C 32.019531 -31.867188 34.195312 -29.769531 35.78125 -27.03125 C 37.375 -24.289062 38.171875 -21.117188 38.171875 -17.515625 C 38.171875 -13.910156 37.363281 -10.738281 35.75 -8 C 34.144531 -5.257812 31.945312 -3.15625 29.15625 -1.6875 C 26.375 -0.226562 23.269531 0.5 19.84375 0.5 Z M 19.84375 -8.796875 C 21.894531 -8.796875 23.640625 -9.546875 25.078125 -11.046875 C 26.523438 -12.554688 27.25 -14.710938 27.25 -17.515625 C 27.25 -20.316406 26.546875 -22.472656 25.140625 -23.984375 C 23.742188 -25.492188 22.019531 -26.25 19.96875 -26.25 C 17.875 -26.25 16.132812 -25.503906 14.75 -24.015625 C 13.375 -22.523438 12.6875 -20.359375 12.6875 -17.515625 C 12.6875 -14.710938 13.363281 -12.554688 14.71875 -11.046875 C 16.082031 -9.546875 17.789062 -8.796875 19.84375 -8.796875 Z M 19.84375 -8.796875 "/></g></g></g><g fill="#ffffff" fill-opacity="1"><g transform="translate(274.162905, 149.920024)"><g><path d="M 14.625 -29.1875 C 15.882812 -31.113281 17.453125 -32.628906 19.328125 -33.734375 C 21.210938 -34.847656 23.304688 -35.40625 25.609375 -35.40625 L 25.609375 -24.046875 L 22.65625 -24.046875 C 19.976562 -24.046875 17.96875 -23.46875 16.625 -22.3125 C 15.289062 -21.164062 14.625 -19.148438 14.625 -16.265625 L 14.625 0 L 3.890625 0 L 3.890625 -35.03125 L 14.625 -35.03125 Z M 14.625 -29.1875 "/></g></g></g><g fill="#ffffff" fill-opacity="1"><g transform="translate(301.026605, 149.920024)"><g><path d="M 39.671875 -35.03125 L 17.703125 16.640625 L 6.15625 16.640625 L 14.1875 -1.1875 L -0.0625 -35.03125 L 11.921875 -35.03125 L 20.03125 -13.125 L 28.0625 -35.03125 Z M 39.671875 -35.03125 "/></g></g></g><g fill="#ffffff" fill-opacity="1"><g transform="translate(121.119137, 219.123517)"><g><path d="M 8.96875 0 L 6.5625 0 L 3.640625 -6.078125 L 2.546875 0 L 0.15625 0 L 1.890625 -9.84375 L 4.296875 -9.84375 L 7.21875 -3.75 L 8.3125 -9.84375 L 10.703125 -9.84375 Z M 8.96875 0 "/></g></g></g><g fill="#ffffff" fill-opacity="1"><g transform="translate(131.658882, 219.123517)"><g><path d="M 5.03125 -7.9375 C 6.039062 -7.9375 6.84375 -7.660156 7.4375 -7.109375 C 8.03125 -6.566406 8.328125 -5.828125 8.328125 -4.890625 C 8.328125 -4.578125 8.304688 -4.300781 8.265625 -4.0625 C 8.222656 -3.84375 8.164062 -3.613281 8.09375 -3.375 L 2.671875 -3.375 C 2.660156 -3.3125 2.65625 -3.21875 2.65625 -3.09375 C 2.65625 -2.6875 2.765625 -2.375 2.984375 -2.15625 C 3.210938 -1.945312 3.515625 -1.84375 3.890625 -1.84375 C 4.484375 -1.84375 4.941406 -2.09375 5.265625 -2.59375 L 7.8125 -2.59375 C 7.476562 -1.800781 6.929688 -1.148438 6.171875 -0.640625 C 5.410156 -0.140625 4.5625 0.109375 3.625 0.109375 C 2.613281 0.109375 1.804688 -0.171875 1.203125 -0.734375 C 0.597656 -1.296875 0.296875 -2.054688 0.296875 -3.015625 C 0.296875 -3.304688 0.320312 -3.609375 0.375 -3.921875 C 0.519531 -4.734375 0.8125 -5.441406 1.25 -6.046875 C 1.6875 -6.648438 2.234375 -7.113281 2.890625 -7.4375 C 3.546875 -7.769531 4.257812 -7.9375 5.03125 -7.9375 Z M 5.90625 -4.59375 C 5.925781 -4.71875 5.9375 -4.804688 5.9375 -4.859375 C 5.9375 -5.234375 5.816406 -5.519531 5.578125 -5.71875 C 5.347656 -5.914062 5.039062 -6.015625 4.65625 -6.015625 C 4.25 -6.015625 3.882812 -5.890625 3.5625 -5.640625 C 3.25 -5.398438 3.023438 -5.050781 2.890625 -4.59375 Z M 5.90625 -4.59375 "/></g></g></g><g fill="#ffffff" fill-opacity="1"><g transform="translate(140.292499, 219.123517)"><g><path d="M 4.0625 -2.25 L 6.765625 -7.828125 L 9.328125 -7.828125 L 5.15625 0 L 2.1875 0 L 0.796875 -7.828125 L 3.359375 -7.828125 Z M 4.0625 -2.25 "/></g></g></g><g fill="#ffffff" fill-opacity="1"><g transform="translate(149.066272, 219.123517)"><g><path d="M 5.03125 -7.9375 C 6.039062 -7.9375 6.84375 -7.660156 7.4375 -7.109375 C 8.03125 -6.566406 8.328125 -5.828125 8.328125 -4.890625 C 8.328125 -4.578125 8.304688 -4.300781 8.265625 -4.0625 C 8.222656 -3.84375 8.164062 -3.613281 8.09375 -3.375 L 2.671875 -3.375 C 2.660156 -3.3125 2.65625 -3.21875 2.65625 -3.09375 C 2.65625 -2.6875 2.765625 -2.375 2.984375 -2.15625 C 3.210938 -1.945312 3.515625 -1.84375 3.890625 -1.84375 C 4.484375 -1.84375 4.941406 -2.09375 5.265625 -2.59375 L 7.8125 -2.59375 C 7.476562 -1.800781 6.929688 -1.148438 6.171875 -0.640625 C 5.410156 -0.140625 4.5625 0.109375 3.625 0.109375 C 2.613281 0.109375 1.804688 -0.171875 1.203125 -0.734375 C 0.597656 -1.296875 0.296875 -2.054688 0.296875 -3.015625 C 0.296875 -3.304688 0.320312 -3.609375 0.375 -3.921875 C 0.519531 -4.734375 0.8125 -5.441406 1.25 -6.046875 C 1.6875 -6.648438 2.234375 -7.113281 2.890625 -7.4375 C 3.546875 -7.769531 4.257812 -7.9375 5.03125 -7.9375 Z M 5.90625 -4.59375 C 5.925781 -4.71875 5.9375 -4.804688 5.9375 -4.859375 C 5.9375 -5.234375 5.816406 -5.519531 5.578125 -5.71875 C 5.347656 -5.914062 5.039062 -6.015625 4.65625 -6.015625 C 4.25 -6.015625 3.882812 -5.890625 3.5625 -5.640625 C 3.25 -5.398438 3.023438 -5.050781 2.890625 -4.59375 Z M 5.90625 -4.59375 "/></g></g></g><g fill="#ffffff" fill-opacity="1"><g transform="translate(157.699889, 219.123517)"><g><path d="M 3.671875 -6.40625 C 4.035156 -6.875 4.453125 -7.238281 4.921875 -7.5 C 5.398438 -7.769531 5.894531 -7.90625 6.40625 -7.90625 L 5.96875 -5.375 L 5.296875 -5.375 C 4.703125 -5.375 4.234375 -5.242188 3.890625 -4.984375 C 3.546875 -4.734375 3.316406 -4.285156 3.203125 -3.640625 L 2.546875 0 L 0.15625 0 L 1.53125 -7.828125 L 3.921875 -7.828125 Z M 3.671875 -6.40625 "/></g></g></g><g fill="#ffffff" fill-opacity="1"><g transform="translate(163.698572, 219.123517)"><g/></g></g><g fill="#ffffff" fill-opacity="1"><g transform="translate(166.936174, 219.123517)"><g><path d="M 11.546875 -7.90625 C 12.390625 -7.90625 13.046875 -7.679688 13.515625 -7.234375 C 13.992188 -6.796875 14.234375 -6.179688 14.234375 -5.390625 C 14.234375 -5.140625 14.203125 -4.867188 14.140625 -4.578125 L 13.328125 0 L 10.9375 0 L 11.703125 -4.25 C 11.722656 -4.34375 11.734375 -4.46875 11.734375 -4.625 C 11.734375 -5.019531 11.625 -5.320312 11.40625 -5.53125 C 11.1875 -5.738281 10.878906 -5.84375 10.484375 -5.84375 C 10.015625 -5.84375 9.617188 -5.703125 9.296875 -5.421875 C 8.984375 -5.148438 8.785156 -4.757812 8.703125 -4.25 L 7.9375 0 L 5.5625 0 L 6.3125 -4.25 C 6.332031 -4.34375 6.34375 -4.46875 6.34375 -4.625 C 6.34375 -5.019531 6.234375 -5.320312 6.015625 -5.53125 C 5.796875 -5.738281 5.488281 -5.84375 5.09375 -5.84375 C 4.625 -5.84375 4.226562 -5.703125 3.90625 -5.421875 C 3.59375 -5.148438 3.394531 -4.757812 3.3125 -4.25 L 3.3125 -4.328125 L 2.546875 0 L 0.15625 0 L 1.53125 -7.828125 L 3.921875 -7.828125 L 3.765625 -6.828125 C 4.054688 -7.171875 4.414062 -7.4375 4.84375 -7.625 C 5.269531 -7.8125 5.734375 -7.90625 6.234375 -7.90625 C 6.828125 -7.90625 7.332031 -7.78125 7.75 -7.53125 C 8.164062 -7.28125 8.460938 -6.914062 8.640625 -6.4375 C 8.984375 -6.875 9.410156 -7.226562 9.921875 -7.5 C 10.441406 -7.769531 10.984375 -7.90625 11.546875 -7.90625 Z M 11.546875 -7.90625 "/></g></g></g><g fill="#ffffff" fill-opacity="1"><g transform="translate(181.778714, 219.123517)"><g><path d="M 2.890625 -8.640625 C 2.515625 -8.640625 2.21875 -8.738281 2 -8.9375 C 1.78125 -9.144531 1.671875 -9.398438 1.671875 -9.703125 C 1.671875 -10.128906 1.832031 -10.488281 2.15625 -10.78125 C 2.488281 -11.082031 2.890625 -11.234375 3.359375 -11.234375 C 3.734375 -11.234375 4.023438 -11.132812 4.234375 -10.9375 C 4.453125 -10.738281 4.5625 -10.476562 4.5625 -10.15625 C 4.5625 -9.75 4.394531 -9.394531 4.0625 -9.09375 C 3.738281 -8.789062 3.347656 -8.640625 2.890625 -8.640625 Z M 3.921875 -7.828125 L 2.546875 0 L 0.15625 0 L 1.53125 -7.828125 Z M 3.921875 -7.828125 "/></g></g></g><g fill="#ffffff" fill-opacity="1"><g transform="translate(185.913316, 219.123517)"><g><path d="M 3.40625 0.109375 C 2.789062 0.109375 2.238281 0.0078125 1.75 -0.1875 C 1.257812 -0.382812 0.875 -0.65625 0.59375 -1 C 0.3125 -1.351562 0.171875 -1.757812 0.171875 -2.21875 C 0.171875 -2.28125 0.179688 -2.394531 0.203125 -2.5625 L 2.515625 -2.5625 C 2.492188 -2.269531 2.578125 -2.035156 2.765625 -1.859375 C 2.960938 -1.691406 3.238281 -1.609375 3.59375 -1.609375 C 3.894531 -1.609375 4.140625 -1.664062 4.328125 -1.78125 C 4.523438 -1.894531 4.625 -2.054688 4.625 -2.265625 C 4.625 -2.453125 4.519531 -2.601562 4.3125 -2.71875 C 4.101562 -2.84375 3.753906 -2.988281 3.265625 -3.15625 C 2.765625 -3.320312 2.34375 -3.488281 2 -3.65625 C 1.65625 -3.820312 1.359375 -4.054688 1.109375 -4.359375 C 0.867188 -4.671875 0.75 -5.0625 0.75 -5.53125 C 0.75 -5.988281 0.882812 -6.398438 1.15625 -6.765625 C 1.4375 -7.140625 1.820312 -7.425781 2.3125 -7.625 C 2.800781 -7.832031 3.367188 -7.9375 4.015625 -7.9375 C 4.660156 -7.9375 5.21875 -7.832031 5.6875 -7.625 C 6.164062 -7.414062 6.535156 -7.125 6.796875 -6.75 C 7.066406 -6.375 7.203125 -5.953125 7.203125 -5.484375 L 7.1875 -5.28125 L 5.015625 -5.28125 C 5.023438 -5.5625 4.9375 -5.785156 4.75 -5.953125 C 4.5625 -6.117188 4.296875 -6.203125 3.953125 -6.203125 C 3.679688 -6.203125 3.457031 -6.144531 3.28125 -6.03125 C 3.113281 -5.914062 3.03125 -5.765625 3.03125 -5.578125 C 3.03125 -5.367188 3.144531 -5.195312 3.375 -5.0625 C 3.601562 -4.925781 3.960938 -4.773438 4.453125 -4.609375 C 4.953125 -4.429688 5.367188 -4.257812 5.703125 -4.09375 C 6.035156 -3.9375 6.320312 -3.707031 6.5625 -3.40625 C 6.800781 -3.113281 6.921875 -2.75 6.921875 -2.3125 C 6.921875 -1.8125 6.765625 -1.378906 6.453125 -1.015625 C 6.148438 -0.648438 5.734375 -0.367188 5.203125 -0.171875 C 4.679688 0.015625 4.082031 0.109375 3.40625 0.109375 Z M 3.40625 0.109375 "/></g></g></g><g fill="#ffffff" fill-opacity="1"><g transform="translate(193.734025, 219.123517)"><g><path d="M 3.40625 0.109375 C 2.789062 0.109375 2.238281 0.0078125 1.75 -0.1875 C 1.257812 -0.382812 0.875 -0.65625 0.59375 -1 C 0.3125 -1.351562 0.171875 -1.757812 0.171875 -2.21875 C 0.171875 -2.28125 0.179688 -2.394531 0.203125 -2.5625 L 2.515625 -2.5625 C 2.492188 -2.269531 2.578125 -2.035156 2.765625 -1.859375 C 2.960938 -1.691406 3.238281 -1.609375 3.59375 -1.609375 C 3.894531 -1.609375 4.140625 -1.664062 4.328125 -1.78125 C 4.523438 -1.894531 4.625 -2.054688 4.625 -2.265625 C 4.625 -2.453125 4.519531 -2.601562 4.3125 -2.71875 C 4.101562 -2.84375 3.753906 -2.988281 3.265625 -3.15625 C 2.765625 -3.320312 2.34375 -3.488281 2 -3.65625 C 1.65625 -3.820312 1.359375 -4.054688 1.109375 -4.359375 C 0.867188 -4.671875 0.75 -5.0625 0.75 -5.53125 C 0.75 -5.988281 0.882812 -6.398438 1.15625 -6.765625 C 1.4375 -7.140625 1.820312 -7.425781 2.3125 -7.625 C 2.800781 -7.832031 3.367188 -7.9375 4.015625 -7.9375 C 4.660156 -7.9375 5.21875 -7.832031 5.6875 -7.625 C 6.164062 -7.414062 6.535156 -7.125 6.796875 -6.75 C 7.066406 -6.375 7.203125 -5.953125 7.203125 -5.484375 L 7.1875 -5.28125 L 5.015625 -5.28125 C 5.023438 -5.5625 4.9375 -5.785156 4.75 -5.953125 C 4.5625 -6.117188 4.296875 -6.203125 3.953125 -6.203125 C 3.679688 -6.203125 3.457031 -6.144531 3.28125 -6.03125 C 3.113281 -5.914062 3.03125 -5.765625 3.03125 -5.578125 C 3.03125 -5.367188 3.144531 -5.195312 3.375 -5.0625 C 3.601562 -4.925781 3.960938 -4.773438 4.453125 -4.609375 C 4.953125 -4.429688 5.367188 -4.257812 5.703125 -4.09375 C 6.035156 -3.9375 6.320312 -3.707031 6.5625 -3.40625 C 6.800781 -3.113281 6.921875 -2.75 6.921875 -2.3125 C 6.921875 -1.8125 6.765625 -1.378906 6.453125 -1.015625 C 6.148438 -0.648438 5.734375 -0.367188 5.203125 -0.171875 C 4.679688 0.015625 4.082031 0.109375 3.40625 0.109375 Z M 3.40625 0.109375 "/></g></g></g><g fill="#ffffff" fill-opacity="1"><g transform="translate(201.554733, 219.123517)"><g/></g></g><g fill="#ffffff" fill-opacity="1"><g transform="translate(204.792336, 219.123517)"><g><path d="M 0.375 -3.921875 C 0.519531 -4.734375 0.796875 -5.441406 1.203125 -6.046875 C 1.617188 -6.648438 2.113281 -7.113281 2.6875 -7.4375 C 3.269531 -7.769531 3.882812 -7.9375 4.53125 -7.9375 C 5.082031 -7.9375 5.546875 -7.820312 5.921875 -7.59375 C 6.296875 -7.375 6.566406 -7.082031 6.734375 -6.71875 L 6.9375 -7.828125 L 9.328125 -7.828125 L 7.9375 0 L 5.546875 0 L 5.75 -1.109375 C 5.445312 -0.742188 5.066406 -0.445312 4.609375 -0.21875 C 4.148438 0 3.644531 0.109375 3.09375 0.109375 C 2.539062 0.109375 2.050781 -0.015625 1.625 -0.265625 C 1.207031 -0.515625 0.878906 -0.867188 0.640625 -1.328125 C 0.410156 -1.796875 0.296875 -2.34375 0.296875 -2.96875 C 0.296875 -3.269531 0.320312 -3.585938 0.375 -3.921875 Z M 6.25 -3.921875 C 6.269531 -4.085938 6.28125 -4.238281 6.28125 -4.375 C 6.28125 -4.832031 6.144531 -5.191406 5.875 -5.453125 C 5.613281 -5.710938 5.28125 -5.84375 4.875 -5.84375 C 4.394531 -5.84375 3.957031 -5.671875 3.5625 -5.328125 C 3.164062 -4.992188 2.914062 -4.523438 2.8125 -3.921875 C 2.789062 -3.753906 2.78125 -3.601562 2.78125 -3.46875 C 2.78125 -3.007812 2.910156 -2.644531 3.171875 -2.375 C 3.441406 -2.113281 3.78125 -1.984375 4.1875 -1.984375 C 4.65625 -1.984375 5.085938 -2.15625 5.484375 -2.5 C 5.878906 -2.84375 6.132812 -3.316406 6.25 -3.921875 Z M 6.25 -3.921875 "/></g></g></g><g fill="#ffffff" fill-opacity="1"><g transform="translate(214.308933, 219.123517)"><g/></g></g><g fill="#ffffff" fill-opacity="1"><g transform="translate(217.546535, 219.123517)"><g><path d="M 5.3125 -3.90625 L 7.90625 0 L 4.9375 0 L 3.125 -3.265625 L 2.546875 0 L 0.15625 0 L 2 -10.390625 L 4.390625 -10.390625 L 3.375 -4.65625 L 6.296875 -7.828125 L 9.265625 -7.828125 Z M 5.3125 -3.90625 "/></g></g></g><g fill="#ffffff" fill-opacity="1"><g transform="translate(226.20819, 219.123517)"><g><path d="M 5.03125 -7.9375 C 6.039062 -7.9375 6.84375 -7.660156 7.4375 -7.109375 C 8.03125 -6.566406 8.328125 -5.828125 8.328125 -4.890625 C 8.328125 -4.578125 8.304688 -4.300781 8.265625 -4.0625 C 8.222656 -3.84375 8.164062 -3.613281 8.09375 -3.375 L 2.671875 -3.375 C 2.660156 -3.3125 2.65625 -3.21875 2.65625 -3.09375 C 2.65625 -2.6875 2.765625 -2.375 2.984375 -2.15625 C 3.210938 -1.945312 3.515625 -1.84375 3.890625 -1.84375 C 4.484375 -1.84375 4.941406 -2.09375 5.265625 -2.59375 L 7.8125 -2.59375 C 7.476562 -1.800781 6.929688 -1.148438 6.171875 -0.640625 C 5.410156 -0.140625 4.5625 0.109375 3.625 0.109375 C 2.613281 0.109375 1.804688 -0.171875 1.203125 -0.734375 C 0.597656 -1.296875 0.296875 -2.054688 0.296875 -3.015625 C 0.296875 -3.304688 0.320312 -3.609375 0.375 -3.921875 C 0.519531 -4.734375 0.8125 -5.441406 1.25 -6.046875 C 1.6875 -6.648438 2.234375 -7.113281 2.890625 -7.4375 C 3.546875 -7.769531 4.257812 -7.9375 5.03125 -7.9375 Z M 5.90625 -4.59375 C 5.925781 -4.71875 5.9375 -4.804688 5.9375 -4.859375 C 5.9375 -5.234375 5.816406 -5.519531 5.578125 -5.71875 C 5.347656 -5.914062 5.039062 -6.015625 4.65625 -6.015625 C 4.25 -6.015625 3.882812 -5.890625 3.5625 -5.640625 C 3.25 -5.398438 3.023438 -5.050781 2.890625 -4.59375 Z M 5.90625 -4.59375 "/></g></g></g><g fill="#ffffff" fill-opacity="1"><g transform="translate(234.841807, 219.123517)"><g><path d="M 3.328125 -7.828125 L 4.28125 -2.9375 L 6.953125 -7.828125 L 9.546875 -7.828125 L 2.59375 3.71875 L 0.015625 3.71875 L 2.515625 -0.265625 L 0.65625 -7.828125 Z M 3.328125 -7.828125 "/></g></g></g><g fill="#ffffff" fill-opacity="1"><g transform="translate(243.699671, 219.123517)"><g><path d="M 3.734375 -6.71875 C 4.035156 -7.082031 4.410156 -7.375 4.859375 -7.59375 C 5.316406 -7.820312 5.820312 -7.9375 6.375 -7.9375 C 7.21875 -7.9375 7.894531 -7.660156 8.40625 -7.109375 C 8.925781 -6.554688 9.1875 -5.8125 9.1875 -4.875 C 9.1875 -4.582031 9.160156 -4.265625 9.109375 -3.921875 C 8.960938 -3.117188 8.679688 -2.410156 8.265625 -1.796875 C 7.859375 -1.191406 7.363281 -0.722656 6.78125 -0.390625 C 6.207031 -0.0546875 5.597656 0.109375 4.953125 0.109375 C 4.410156 0.109375 3.953125 0 3.578125 -0.21875 C 3.203125 -0.445312 2.925781 -0.738281 2.75 -1.09375 L 1.890625 3.734375 L -0.5 3.734375 L 1.53125 -7.828125 L 3.921875 -7.828125 Z M 6.671875 -3.921875 C 6.703125 -4.085938 6.71875 -4.234375 6.71875 -4.359375 C 6.71875 -4.828125 6.582031 -5.191406 6.3125 -5.453125 C 6.050781 -5.710938 5.710938 -5.84375 5.296875 -5.84375 C 4.828125 -5.84375 4.394531 -5.671875 4 -5.328125 C 3.601562 -4.984375 3.347656 -4.515625 3.234375 -3.921875 C 3.210938 -3.742188 3.203125 -3.585938 3.203125 -3.453125 C 3.203125 -2.992188 3.332031 -2.632812 3.59375 -2.375 C 3.851562 -2.113281 4.191406 -1.984375 4.609375 -1.984375 C 5.078125 -1.984375 5.507812 -2.15625 5.90625 -2.5 C 6.3125 -2.851562 6.566406 -3.328125 6.671875 -3.921875 Z M 6.671875 -3.921875 "/></g></g></g><g fill="#ffffff" fill-opacity="1"><g transform="translate(253.216268, 219.123517)"><g><path d="M 3.671875 -6.40625 C 4.035156 -6.875 4.453125 -7.238281 4.921875 -7.5 C 5.398438 -7.769531 5.894531 -7.90625 6.40625 -7.90625 L 5.96875 -5.375 L 5.296875 -5.375 C 4.703125 -5.375 4.234375 -5.242188 3.890625 -4.984375 C 3.546875 -4.734375 3.316406 -4.285156 3.203125 -3.640625 L 2.546875 0 L 0.15625 0 L 1.53125 -7.828125 L 3.921875 -7.828125 Z M 3.671875 -6.40625 "/></g></g></g><g fill="#ffffff" fill-opacity="1"><g transform="translate(259.214952, 219.123517)"><g><path d="M 5.03125 -7.9375 C 6.039062 -7.9375 6.84375 -7.660156 7.4375 -7.109375 C 8.03125 -6.566406 8.328125 -5.828125 8.328125 -4.890625 C 8.328125 -4.578125 8.304688 -4.300781 8.265625 -4.0625 C 8.222656 -3.84375 8.164062 -3.613281 8.09375 -3.375 L 2.671875 -3.375 C 2.660156 -3.3125 2.65625 -3.21875 2.65625 -3.09375 C 2.65625 -2.6875 2.765625 -2.375 2.984375 -2.15625 C 3.210938 -1.945312 3.515625 -1.84375 3.890625 -1.84375 C 4.484375 -1.84375 4.941406 -2.09375 5.265625 -2.59375 L 7.8125 -2.59375 C 7.476562 -1.800781 6.929688 -1.148438 6.171875 -0.640625 C 5.410156 -0.140625 4.5625 0.109375 3.625 0.109375 C 2.613281 0.109375 1.804688 -0.171875 1.203125 -0.734375 C 0.597656 -1.296875 0.296875 -2.054688 0.296875 -3.015625 C 0.296875 -3.304688 0.320312 -3.609375 0.375 -3.921875 C 0.519531 -4.734375 0.8125 -5.441406 1.25 -6.046875 C 1.6875 -6.648438 2.234375 -7.113281 2.890625 -7.4375 C 3.546875 -7.769531 4.257812 -7.9375 5.03125 -7.9375 Z M 5.90625 -4.59375 C 5.925781 -4.71875 5.9375 -4.804688 5.9375 -4.859375 C 5.9375 -5.234375 5.816406 -5.519531 5.578125 -5.71875 C 5.347656 -5.914062 5.039062 -6.015625 4.65625 -6.015625 C 4.25 -6.015625 3.882812 -5.890625 3.5625 -5.640625 C 3.25 -5.398438 3.023438 -5.050781 2.890625 -4.59375 Z M 5.90625 -4.59375 "/></g></g></g><g fill="#ffffff" fill-opacity="1"><g transform="translate(267.848569, 219.123517)"><g><path d="M 3.40625 0.109375 C 2.789062 0.109375 2.238281 0.0078125 1.75 -0.1875 C 1.257812 -0.382812 0.875 -0.65625 0.59375 -1 C 0.3125 -1.351562 0.171875 -1.757812 0.171875 -2.21875 C 0.171875 -2.28125 0.179688 -2.394531 0.203125 -2.5625 L 2.515625 -2.5625 C 2.492188 -2.269531 2.578125 -2.035156 2.765625 -1.859375 C 2.960938 -1.691406 3.238281 -1.609375 3.59375 -1.609375 C 3.894531 -1.609375 4.140625 -1.664062 4.328125 -1.78125 C 4.523438 -1.894531 4.625 -2.054688 4.625 -2.265625 C 4.625 -2.453125 4.519531 -2.601562 4.3125 -2.71875 C 4.101562 -2.84375 3.753906 -2.988281 3.265625 -3.15625 C 2.765625 -3.320312 2.34375 -3.488281 2 -3.65625 C 1.65625 -3.820312 1.359375 -4.054688 1.109375 -4.359375 C 0.867188 -4.671875 0.75 -5.0625 0.75 -5.53125 C 0.75 -5.988281 0.882812 -6.398438 1.15625 -6.765625 C 1.4375 -7.140625 1.820312 -7.425781 2.3125 -7.625 C 2.800781 -7.832031 3.367188 -7.9375 4.015625 -7.9375 C 4.660156 -7.9375 5.21875 -7.832031 5.6875 -7.625 C 6.164062 -7.414062 6.535156 -7.125 6.796875 -6.75 C 7.066406 -6.375 7.203125 -5.953125 7.203125 -5.484375 L 7.1875 -5.28125 L 5.015625 -5.28125 C 5.023438 -5.5625 4.9375 -5.785156 4.75 -5.953125 C 4.5625 -6.117188 4.296875 -6.203125 3.953125 -6.203125 C 3.679688 -6.203125 3.457031 -6.144531 3.28125 -6.03125 C 3.113281 -5.914062 3.03125 -5.765625 3.03125 -5.578125 C 3.03125 -5.367188 3.144531 -5.195312 3.375 -5.0625 C 3.601562 -4.925781 3.960938 -4.773438 4.453125 -4.609375 C 4.953125 -4.429688 5.367188 -4.257812 5.703125 -4.09375 C 6.035156 -3.9375 6.320312 -3.707031 6.5625 -3.40625 C 6.800781 -3.113281 6.921875 -2.75 6.921875 -2.3125 C 6.921875 -1.8125 6.765625 -1.378906 6.453125 -1.015625 C 6.148438 -0.648438 5.734375 -0.367188 5.203125 -0.171875 C 4.679688 0.015625 4.082031 0.109375 3.40625 0.109375 Z M 3.40625 0.109375 "/></g></g></g><g fill="#ffffff" fill-opacity="1"><g transform="translate(275.669278, 219.123517)"><g><path d="M 3.40625 0.109375 C 2.789062 0.109375 2.238281 0.0078125 1.75 -0.1875 C 1.257812 -0.382812 0.875 -0.65625 0.59375 -1 C 0.3125 -1.351562 0.171875 -1.757812 0.171875 -2.21875 C 0.171875 -2.28125 0.179688 -2.394531 0.203125 -2.5625 L 2.515625 -2.5625 C 2.492188 -2.269531 2.578125 -2.035156 2.765625 -1.859375 C 2.960938 -1.691406 3.238281 -1.609375 3.59375 -1.609375 C 3.894531 -1.609375 4.140625 -1.664062 4.328125 -1.78125 C 4.523438 -1.894531 4.625 -2.054688 4.625 -2.265625 C 4.625 -2.453125 4.519531 -2.601562 4.3125 -2.71875 C 4.101562 -2.84375 3.753906 -2.988281 3.265625 -3.15625 C 2.765625 -3.320312 2.34375 -3.488281 2 -3.65625 C 1.65625 -3.820312 1.359375 -4.054688 1.109375 -4.359375 C 0.867188 -4.671875 0.75 -5.0625 0.75 -5.53125 C 0.75 -5.988281 0.882812 -6.398438 1.15625 -6.765625 C 1.4375 -7.140625 1.820312 -7.425781 2.3125 -7.625 C 2.800781 -7.832031 3.367188 -7.9375 4.015625 -7.9375 C 4.660156 -7.9375 5.21875 -7.832031 5.6875 -7.625 C 6.164062 -7.414062 6.535156 -7.125 6.796875 -6.75 C 7.066406 -6.375 7.203125 -5.953125 7.203125 -5.484375 L 7.1875 -5.28125 L 5.015625 -5.28125 C 5.023438 -5.5625 4.9375 -5.785156 4.75 -5.953125 C 4.5625 -6.117188 4.296875 -6.203125 3.953125 -6.203125 C 3.679688 -6.203125 3.457031 -6.144531 3.28125 -6.03125 C 3.113281 -5.914062 3.03125 -5.765625 3.03125 -5.578125 C 3.03125 -5.367188 3.144531 -5.195312 3.375 -5.0625 C 3.601562 -4.925781 3.960938 -4.773438 4.453125 -4.609375 C 4.953125 -4.429688 5.367188 -4.257812 5.703125 -4.09375 C 6.035156 -3.9375 6.320312 -3.707031 6.5625 -3.40625 C 6.800781 -3.113281 6.921875 -2.75 6.921875 -2.3125 C 6.921875 -1.8125 6.765625 -1.378906 6.453125 -1.015625 C 6.148438 -0.648438 5.734375 -0.367188 5.203125 -0.171875 C 4.679688 0.015625 4.082031 0.109375 3.40625 0.109375 Z M 3.40625 0.109375 "/></g></g></g><g fill="#ffffff" fill-opacity="1"><g transform="translate(283.489987, 219.123517)"><g/></g></g><g fill="#ffffff" fill-opacity="1"><g transform="translate(286.727589, 219.123517)"><g><path d="M 0.375 -3.921875 C 0.519531 -4.734375 0.796875 -5.441406 1.203125 -6.046875 C 1.617188 -6.648438 2.113281 -7.113281 2.6875 -7.4375 C 3.269531 -7.769531 3.882812 -7.9375 4.53125 -7.9375 C 5.082031 -7.9375 5.546875 -7.820312 5.921875 -7.59375 C 6.296875 -7.375 6.566406 -7.082031 6.734375 -6.71875 L 6.9375 -7.828125 L 9.328125 -7.828125 L 7.9375 0 L 5.546875 0 L 5.75 -1.109375 C 5.445312 -0.742188 5.066406 -0.445312 4.609375 -0.21875 C 4.148438 0 3.644531 0.109375 3.09375 0.109375 C 2.539062 0.109375 2.050781 -0.015625 1.625 -0.265625 C 1.207031 -0.515625 0.878906 -0.867188 0.640625 -1.328125 C 0.410156 -1.796875 0.296875 -2.34375 0.296875 -2.96875 C 0.296875 -3.269531 0.320312 -3.585938 0.375 -3.921875 Z M 6.25 -3.921875 C 6.269531 -4.085938 6.28125 -4.238281 6.28125 -4.375 C 6.28125 -4.832031 6.144531 -5.191406 5.875 -5.453125 C 5.613281 -5.710938 5.28125 -5.84375 4.875 -5.84375 C 4.394531 -5.84375 3.957031 -5.671875 3.5625 -5.328125 C 3.164062 -4.992188 2.914062 -4.523438 2.8125 -3.921875 C 2.789062 -3.753906 2.78125 -3.601562 2.78125 -3.46875 C 2.78125 -3.007812 2.910156 -2.644531 3.171875 -2.375 C 3.441406 -2.113281 3.78125 -1.984375 4.1875 -1.984375 C 4.65625 -1.984375 5.085938 -2.15625 5.484375 -2.5 C 5.878906 -2.84375 6.132812 -3.316406 6.25 -3.921875 Z M 6.25 -3.921875 "/></g></g></g><g fill="#ffffff" fill-opacity="1"><g transform="translate(296.244186, 219.123517)"><g><path d="M 4.53125 -7.9375 C 5.082031 -7.9375 5.550781 -7.820312 5.9375 -7.59375 C 6.320312 -7.375 6.585938 -7.082031 6.734375 -6.71875 L 6.9375 -7.828125 L 9.328125 -7.828125 L 7.953125 -0.015625 C 7.828125 0.703125 7.566406 1.351562 7.171875 1.9375 C 6.785156 2.519531 6.265625 2.984375 5.609375 3.328125 C 4.960938 3.679688 4.210938 3.859375 3.359375 3.859375 C 2.191406 3.859375 1.296875 3.582031 0.671875 3.03125 C 0.046875 2.488281 -0.234375 1.75 -0.171875 0.8125 L 2.203125 0.8125 C 2.234375 1.113281 2.367188 1.347656 2.609375 1.515625 C 2.859375 1.691406 3.191406 1.78125 3.609375 1.78125 C 4.097656 1.78125 4.515625 1.632812 4.859375 1.34375 C 5.210938 1.0625 5.445312 0.609375 5.5625 -0.015625 L 5.75 -1.125 C 5.445312 -0.757812 5.066406 -0.460938 4.609375 -0.234375 C 4.160156 -0.00390625 3.660156 0.109375 3.109375 0.109375 C 2.554688 0.109375 2.066406 -0.015625 1.640625 -0.265625 C 1.222656 -0.515625 0.894531 -0.875 0.65625 -1.34375 C 0.414062 -1.8125 0.296875 -2.359375 0.296875 -2.984375 C 0.296875 -3.273438 0.320312 -3.585938 0.375 -3.921875 C 0.519531 -4.734375 0.796875 -5.441406 1.203125 -6.046875 C 1.617188 -6.648438 2.113281 -7.113281 2.6875 -7.4375 C 3.269531 -7.769531 3.882812 -7.9375 4.53125 -7.9375 Z M 6.25 -3.921875 C 6.269531 -4.085938 6.28125 -4.238281 6.28125 -4.375 C 6.28125 -4.832031 6.144531 -5.191406 5.875 -5.453125 C 5.613281 -5.710938 5.28125 -5.84375 4.875 -5.84375 C 4.394531 -5.84375 3.957031 -5.671875 3.5625 -5.328125 C 3.164062 -4.992188 2.914062 -4.523438 2.8125 -3.921875 C 2.789062 -3.753906 2.78125 -3.601562 2.78125 -3.46875 C 2.78125 -3.007812 2.910156 -2.644531 3.171875 -2.375 C 3.441406 -2.113281 3.78125 -1.984375 4.1875 -1.984375 C 4.65625 -1.984375 5.085938 -2.15625 5.484375 -2.5 C 5.878906 -2.84375 6.132812 -3.316406 6.25 -3.921875 Z M 6.25 -3.921875 "/></g></g></g><g fill="#ffffff" fill-opacity="1"><g transform="translate(305.760784, 219.123517)"><g><path d="M 0.375 -3.921875 C 0.519531 -4.734375 0.796875 -5.441406 1.203125 -6.046875 C 1.617188 -6.648438 2.113281 -7.113281 2.6875 -7.4375 C 3.269531 -7.769531 3.882812 -7.9375 4.53125 -7.9375 C 5.082031 -7.9375 5.546875 -7.820312 5.921875 -7.59375 C 6.296875 -7.375 6.566406 -7.082031 6.734375 -6.71875 L 6.9375 -7.828125 L 9.328125 -7.828125 L 7.9375 0 L 5.546875 0 L 5.75 -1.109375 C 5.445312 -0.742188 5.066406 -0.445312 4.609375 -0.21875 C 4.148438 0 3.644531 0.109375 3.09375 0.109375 C 2.539062 0.109375 2.050781 -0.015625 1.625 -0.265625 C 1.207031 -0.515625 0.878906 -0.867188 0.640625 -1.328125 C 0.410156 -1.796875 0.296875 -2.34375 0.296875 -2.96875 C 0.296875 -3.269531 0.320312 -3.585938 0.375 -3.921875 Z M 6.25 -3.921875 C 6.269531 -4.085938 6.28125 -4.238281 6.28125 -4.375 C 6.28125 -4.832031 6.144531 -5.191406 5.875 -5.453125 C 5.613281 -5.710938 5.28125 -5.84375 4.875 -5.84375 C 4.394531 -5.84375 3.957031 -5.671875 3.5625 -5.328125 C 3.164062 -4.992188 2.914062 -4.523438 2.8125 -3.921875 C 2.789062 -3.753906 2.78125 -3.601562 2.78125 -3.46875 C 2.78125 -3.007812 2.910156 -2.644531 3.171875 -2.375 C 3.441406 -2.113281 3.78125 -1.984375 4.1875 -1.984375 C 4.65625 -1.984375 5.085938 -2.15625 5.484375 -2.5 C 5.878906 -2.84375 6.132812 -3.316406 6.25 -3.921875 Z M 6.25 -3.921875 "/></g></g></g><g fill="#ffffff" fill-opacity="1"><g transform="translate(315.277393, 219.123517)"><g><path d="M 2.890625 -8.640625 C 2.515625 -8.640625 2.21875 -8.738281 2 -8.9375 C 1.78125 -9.144531 1.671875 -9.398438 1.671875 -9.703125 C 1.671875 -10.128906 1.832031 -10.488281 2.15625 -10.78125 C 2.488281 -11.082031 2.890625 -11.234375 3.359375 -11.234375 C 3.734375 -11.234375 4.023438 -11.132812 4.234375 -10.9375 C 4.453125 -10.738281 4.5625 -10.476562 4.5625 -10.15625 C 4.5625 -9.75 4.394531 -9.394531 4.0625 -9.09375 C 3.738281 -8.789062 3.347656 -8.640625 2.890625 -8.640625 Z M 3.921875 -7.828125 L 2.546875 0 L 0.15625 0 L 1.53125 -7.828125 Z M 3.921875 -7.828125 "/></g></g></g><g fill="#ffffff" fill-opacity="1"><g transform="translate(319.412006, 219.123517)"><g><path d="M 6.3125 -7.90625 C 7.101562 -7.90625 7.722656 -7.6875 8.171875 -7.25 C 8.617188 -6.8125 8.84375 -6.203125 8.84375 -5.421875 C 8.84375 -5.148438 8.8125 -4.867188 8.75 -4.578125 L 7.9375 0 L 5.5625 0 L 6.3125 -4.25 C 6.34375 -4.40625 6.359375 -4.546875 6.359375 -4.671875 C 6.359375 -5.066406 6.25 -5.367188 6.03125 -5.578125 C 5.8125 -5.796875 5.503906 -5.90625 5.109375 -5.90625 C 4.640625 -5.90625 4.242188 -5.757812 3.921875 -5.46875 C 3.609375 -5.175781 3.40625 -4.769531 3.3125 -4.25 L 3.3125 -4.328125 L 2.546875 0 L 0.15625 0 L 1.53125 -7.828125 L 3.921875 -7.828125 L 3.75 -6.78125 C 4.050781 -7.125 4.425781 -7.394531 4.875 -7.59375 C 5.320312 -7.800781 5.800781 -7.90625 6.3125 -7.90625 Z M 6.3125 -7.90625 "/></g></g></g></svg>