<svg width="900" height="600" xmlns="http://www.w3.org/2000/svg" version="1.1">
 <g>
  <title _mstHash="1">Layer 1</title>
  <rect x="0" y="0" width="900" height="600" fill="#001220" id="svg_1"/>
  <g id="svg_2">
   <path d="m900,486.7c-69.8,-3.2 -139.7,-6.4 -183.7,-43.2c-44,-36.9 -62.1,-107.4 -108.3,-151.5c-46.3,-44 -120.6,-61.5 -157.7,-105.7c-37.1,-44.3 -37.1,-115.3 -37,-186.3l486.7,0l0,486.7z" fill="#FBAE3C" id="svg_3"/>
  </g>
  <g id="svg_4">
   <path d="m0,113.3c52.8,36.7 105.6,73.5 161.9,95.9c56.2,22.4 115.9,30.4 167.6,61.3c51.7,30.8 95.3,84.5 120.2,143.2c24.9,58.8 31,122.5 37,186.3l-486.7,0l0,-486.7z" fill="#FBAE3C" id="svg_5"/>
  </g>
  <path fill="#071220" stroke="#9b9b2d" stroke-width="0" opacity="undefined" d="m161,226.00001c0,-54.3379 45.6621,-100 100,-100l389,0c54.3379,0 100,45.6621 100,100l0,180c0,54.3379 -45.6621,100 -100,100l-389,0c-54.3379,0 -100,-45.6621 -100,-100l0,-180z" id="svg_7"/>
  <path fill="#e5ad3d" stroke-width="0" d="m422.75761,423.87931c-33.8683,-12.15416 -58.14398,-50.77378 -52.62709,-83.7233c3.47878,-20.77718 76.87233,-146.90912 83.28191,-143.12587c2.092,1.2348 20.7082,30.64145 41.36934,65.34812c33.09696,55.59643 37.56568,65.96345 37.56568,87.14904c0,42.94231 -35.98525,78.11693 -79.19301,77.40907c-12.60863,-0.20659 -26.28721,-1.58226 -30.39682,-3.05705l0,-0.00001l-0.00001,0zm33.93221,-21.5984c1.12106,-5.5595 -1.49767,-8.27085 -7.98841,-8.27085c-14.79305,0 -35.31341,-17.8935 -39.89797,-34.7905c-4.89048,-18.02452 -17.85733,-20.16817 -19.7726,-3.26876c-3.69004,32.55913 61.44236,77.1591 67.65897,46.33011l0.00001,0z" id="svg_9" stroke="#000"/>
 </g>

</svg>