<svg xmlns="http://www.w3.org/2000/svg" xml:space="preserve" stroke-miterlimit="10" viewBox="0 0 600 300"><clipPath id="a"><path d="M0 0h600v300H0z"/></clipPath><g clip-path="url(#a)"><path fill="#161659" d="M0 300V0h600v300H0Z"/><g fill="none" stroke="#1d1d66" stroke-linecap="round" stroke-width="15"><path d="M62.583 39.324v54.64M62.583 93.964h50.238M113.036 93.964v114.477M113.036 93.964h123.251M237.01 93.964v152.3M113.036 159.882h60.872M237.01 220.813h-71.418M165.472 221.127v55.484M113.036 208.441h-68.6M44.435 208.441v37.797M237.01 121.805h57.554M294.564 121.805v38.077M173.693 20.093v38.462M173.693 58.556h-52.986M62.583 93.964v53.496M370.739 28.991v141.142M370.739 170.114H339.92M339.554 170.114v51.014M370.739 28.991h-65.503M305.236 28.991V59.8M519.781 28.991v18.672M519.781 47.663h-88.834M430.947 47.663v74.142M430.947 121.805h40.021M370.739 170.114h74.077M444.816 170.114v86.603M444.816 256.713h-30.495M414.321 256.713v19.88M339.554 220.813l.366 59.094M519.781 47.663V75.7M519.781 75.7h59.267M579.051 75.7v114.284M579.051 190.349h-29.636M549.415 190.349v66.748M470.96 121.805v31.771M470.968 153.576h55.285M492.543 153.576v115.536M174.661 39.324h96.218M237.01 246.264h53.77M484.483 52.984v38.66M62.583 147.46H20.638M20.638 147.46v38.638M44.355 246.238h43.347"/></g><g fill="none" stroke="#13134d" stroke-width="7.5"><path d="M77.248 246.23c0-5.523 4.477-10 10-10 5.522 0 10 4.477 10 10 0 5.522-4.478 10-10 10-5.523 0-10-4.478-10-10ZM10.634 185.808c0-5.523 4.477-10 10-10s10 4.477 10 10-4.477 10-10 10-10-4.477-10-10ZM52.527 39.763c0-5.522 4.477-10 10-10s10 4.478 10 10c0 5.523-4.477 10-10 10s-10-4.477-10-10ZM111.137 58.364c0-5.523 4.477-10 10-10s10 4.477 10 10-4.477 10-10 10-10-4.477-10-10ZM163.763 20.416c0-5.523 4.478-10 10-10 5.523 0 10 4.477 10 10s-4.477 10-10 10c-5.522 0-10-4.477-10-10ZM260.683 39.108c0-5.522 4.477-10 10-10s10 4.478 10 10c0 5.523-4.477 10-10 10s-10-4.477-10-10ZM155.602 276.376c0-5.523 4.477-10 10-10s10 4.477 10 10c0 5.522-4.477 10-10 10s-10-4.478-10-10ZM280.236 246.158c0-5.523 4.477-10 10-10s10 4.477 10 10-4.477 10-10 10-10-4.477-10-10ZM284.51 159.41c0-5.523 4.477-10 10-10s10 4.477 10 10-4.477 10-10 10-10-4.477-10-10ZM295.316 58.447c0-5.523 4.477-10 10-10 5.522 0 10 4.477 10 10s-4.478 10-10 10c-5.523 0-10-4.477-10-10ZM329.84 279.333c0-5.522 4.477-10 10-10s10 4.478 10 10c0 5.523-4.477 10-10 10s-10-4.477-10-10ZM404.263 276.429c0-5.523 4.477-10 10-10s10 4.477 10 10-4.477 10-10 10-10-4.477-10-10ZM482.556 269.07c0-5.523 4.478-10 10-10 5.523 0 10 4.477 10 10s-4.477 10-10 10c-5.522 0-10-4.477-10-10ZM515.469 153.296c0-5.523 4.477-10 10-10s10 4.477 10 10-4.477 10-10 10-10-4.477-10-10ZM539.537 256.884c0-5.523 4.477-10 10-10 5.522 0 10 4.477 10 10s-4.478 10-10 10c-5.523 0-10-4.477-10-10ZM474.515 91.695c0-5.523 4.477-10 10-10s10 4.477 10 10c0 5.522-4.477 10-10 10s-10-4.478-10-10ZM509.661 29.32c0-5.522 4.477-10 10-10s10 4.478 10 10c0 5.523-4.477 10-10 10s-10-4.477-10-10ZM163.326 159.851c0-5.523 4.477-10 10-10s10 4.477 10 10-4.477 10-10 10-10-4.477-10-10Z"/></g></g><path fill="#fff" fill-opacity=".15" d="M231.031 71.031c-15.081 0-27.25 12.138-27.25 27.219v103.5c0 15.055 12.205 27.219 27.25 27.219h137.938c15.054 0 27.25-12.174 27.25-27.219V115.5c0-15.055-12.205-27.25-27.25-27.25h-64.844l-14.313-14.313a9.957 9.957 0 0 0-7.062-2.906h-51.719Z"/><path fill="#f2bc18" stroke="#fff" stroke-width="7.5" d="M300 98.262h68.984c9.524 0 17.246 7.721 17.246 17.246v86.23c0 9.524-7.722 17.246-17.246 17.246H231.016c-9.525 0-17.246-7.722-17.246-17.246V98.262a17.187 17.187 0 0 1 17.246-17.246h51.738L300 98.262Z"/><g fill="#262626"><path d="M254.406 150.242c.042-1.188-.015-2.198-.172-3.032-.156-.833-.406-1.52-.75-2.062-.343-.542-.765-.938-1.265-1.188-.5-.25-1.073-.375-1.719-.375-1.125 0-2.286.464-3.484 1.391s-2.516 2.453-3.954 4.578v20.094h-7.812v-31.75h6.906l.282 4.625a12.54 12.54 0 0 1 1.765-2.188 11.105 11.105 0 0 1 2.188-1.672 10.349 10.349 0 0 1 2.671-1.078c.98-.25 2.053-.375 3.219-.375 1.604 0 3.026.276 4.266.828a8.079 8.079 0 0 1 3.125 2.454c.844 1.083 1.469 2.442 1.875 4.078.406 1.635.578 3.526.515 5.672h-7.656ZM289.594 169.648l-7.25-10.688-7.282 10.688h-9.218l11.906-16-11.281-15.75h9.281l7.125 10.437 7.031-10.437h8.563l-10.938 15.687 11.531 16.063h-9.468ZM313.562 135.304v11.313H329v6.312h-15.438v16.719h-7.812v-40.844h24.125v6.5h-16.313ZM367.062 157.304c0 2.229-.411 4.167-1.234 5.813a11.1 11.1 0 0 1-3.453 4.078c-1.479 1.073-3.24 1.87-5.281 2.39-2.042.521-4.271.782-6.688.782-2.146 0-4.218-.125-6.218-.375a36.733 36.733 0 0 1-5.938-1.25v-7.594a50.552 50.552 0 0 0 6.141 1.703c1.052.219 2.099.391 3.14.516 1.042.125 2.052.187 3.031.187 1.459 0 2.698-.125 3.719-.375s1.854-.594 2.5-1.031c.646-.438 1.115-.958 1.407-1.563.291-.604.437-1.27.437-2 0-1-.286-1.838-.859-2.515s-1.328-1.276-2.266-1.797a20.33 20.33 0 0 0-3.203-1.406 114.818 114.818 0 0 1-3.656-1.344 40.685 40.685 0 0 1-3.657-1.625 13.222 13.222 0 0 1-3.203-2.25 10.45 10.45 0 0 1-2.265-3.203c-.573-1.24-.86-2.735-.86-4.485 0-1.604.292-3.125.875-4.562.584-1.438 1.5-2.693 2.75-3.766s2.854-1.927 4.813-2.562c1.958-.636 4.323-.953 7.094-.953.812 0 1.661.036 2.546.109.886.073 1.761.167 2.625.281a42.283 42.283 0 0 1 4.703.891v7.031a22.493 22.493 0 0 0-2.187-.687 33.402 33.402 0 0 0-2.453-.547 29.948 29.948 0 0 0-2.547-.36 25.253 25.253 0 0 0-2.437-.125c-1.355 0-2.5.11-3.438.328-.938.219-1.708.521-2.312.907-.605.385-1.042.859-1.313 1.422a4.26 4.26 0 0 0-.406 1.875c0 .854.286 1.588.859 2.203.573.614 1.333 1.166 2.281 1.656.948.49 2.021.948 3.219 1.375 1.198.427 2.427.885 3.688 1.375 1.26.49 2.489 1.047 3.687 1.672a14.256 14.256 0 0 1 3.219 2.281 10.412 10.412 0 0 1 2.281 3.172c.573 1.219.859 2.661.859 4.328Z"/></g></svg>