<svg xmlns="http://www.w3.org/2000/svg" id="svg180" width="600" height="300" version="1.1"><defs id="defs13"><clipPath id="clip-path" transform="translate(36 36)"><path id="rect4" d="M0 0h600v300H0z" class="cls-1"/></clipPath><clipPath id="clip-path-2" transform="translate(36 36)"><path id="rect7" d="M201.14999 0H398.86v300H201.14999z" class="cls-1"/></clipPath><clipPath id="clip-path-3" transform="translate(36 36)"><path id="rect10" d="M398.85001 0H600v300H398.85001z" class="cls-1"/></clipPath><clipPath id="clipPath28479" clipPathUnits="userSpaceOnUse"><path id="rect28481" d="M399.99997.00000763h200v300h-200z" style="fill:#73a753;fill-opacity:1;stroke:none;stroke-width:1.98563;stroke-miterlimit:10;stroke-dasharray:none;stroke-opacity:1;paint-order:stroke fill markers"/></clipPath><clipPath id="clipPath28555" clipPathUnits="userSpaceOnUse"><path id="rect28557" d="M200 .00000763h400v300H200z" style="fill:#fbbb14;fill-opacity:1;stroke:none;stroke-width:2.8081;stroke-miterlimit:10;stroke-dasharray:none;stroke-opacity:1;paint-order:stroke fill markers"/></clipPath><clipPath id="clipPath47458" clipPathUnits="userSpaceOnUse"><path id="rect47460" d="M0 0h200v300H0z" style="fill:#f1b2d1;fill-opacity:1;stroke:none;stroke-width:1.98563;stroke-miterlimit:10;stroke-dasharray:none;stroke-opacity:1;paint-order:stroke fill markers"/></clipPath><clipPath id="clipPath54632" clipPathUnits="userSpaceOnUse"><path id="rect54634" d="M400-.00001526h200v300H400z" style="fill:#592c78;fill-opacity:1;stroke:none;stroke-width:2.18468;stroke-miterlimit:10;stroke-dasharray:none;stroke-opacity:1;paint-order:stroke fill markers" transform="rotate(24.219999)"/></clipPath><clipPath id="clipPath1916" clipPathUnits="userSpaceOnUse"><path id="rect1918" d="M200 0h200v300H200z" style="fill:#fbbb14;fill-opacity:1;stroke:none;stroke-width:2.18468;stroke-miterlimit:10;stroke-dasharray:none;stroke-opacity:1;paint-order:stroke fill markers"/></clipPath><clipPath id="clip-path-36" transform="translate(36 36)"><path id="rect899" d="M0 0h600v300H0z" class="cls-1"/></clipPath><clipPath id="clip-path-2-7" transform="translate(36 36)"><path id="rect902" d="M201.15 0h197.71v300H201.15z" class="cls-1"/></clipPath><clipPath id="clip-path-3-5" transform="translate(36 36)"><path id="rect905" d="M398.85 0H600v300H398.85z" class="cls-1"/></clipPath><filter id="filter2426" width="1.0868601" height="1.0735509" x="-.04557943" y="-.03592113" style="color-interpolation-filters:sRGB"><feGaussianBlur id="feGaussianBlur2424" result="blur" stdDeviation="3 3"/></filter><filter id="filter2430" width="1.1022079" height="1.1021863" x="-.05110394" y="-.05109314" style="color-interpolation-filters:sRGB"><feGaussianBlur id="feGaussianBlur2428" result="blur" stdDeviation="3 3"/></filter><style id="style2">.cls-1{fill:none}.cls-5{fill:#f4ca6e;stroke:#e99923;stroke-miterlimit:10;stroke-width:5px}.cls-10{fill:#231f20}.cls-11{fill:#3eb167}</style></defs><path id="rect48699" d="M0 0h600v300H0z" style="fill:#f1b2d1;fill-opacity:1;stroke:none;stroke-width:3.78398;stroke-miterlimit:10;stroke-dasharray:none;stroke-opacity:1;paint-order:stroke fill markers"/><path id="rect48699-0-3" d="M400 0h200v300H400z" style="fill:#592c78;fill-opacity:1;stroke:none;stroke-width:2.18468;stroke-miterlimit:10;stroke-dasharray:none;stroke-opacity:1;paint-order:stroke fill markers"/><path id="rect48699-0-36" d="M200.00006.00001526h200v300h-200z" style="fill:#fbbb14;fill-opacity:1;stroke:none;stroke-width:2.18468;stroke-miterlimit:10;stroke-dasharray:none;stroke-opacity:1;paint-order:stroke fill markers"/><g id="g1887" clip-path="url(#clipPath1916)"><path id="rect23-7" d="M199.53291 342.84549h64.827309v64.827309H199.53291z" class="cls-5" style="fill:#f4ca6e;stroke:#e99923;stroke-width:5.62737px;stroke-miterlimit:10" transform="rotate(-24.219999)"/><path id="rect25-3" d="M34.698536-271.2775h79.469727v79.469727H34.698536z" class="cls-5" style="fill:#f4ca6e;stroke:#e99923;stroke-width:5.62737px;stroke-miterlimit:10" transform="rotate(116.52)"/><path id="polygon27-6" d="m391.66 75.84 24.02-5.85 24.02-5.84-6.95 23.72-6.94 23.73-17.08-17.88z" class="cls-5" style="fill:#f4ca6e;stroke:#e99923;stroke-width:5px;stroke-miterlimit:10" transform="translate(-84.95598 -52.381302) scale(1.125474)"/><path id="polygon29-1" d="m371.02 192.46-17.85-3.37-17.85-3.37 11.84-13.78L359 158.17l6.01 17.14z" class="cls-5" style="fill:#f4ca6e;stroke:#e99923;stroke-width:5px;stroke-miterlimit:10" transform="translate(-84.95598 -52.381302) scale(1.125474)"/><circle id="circle31-2" cx="231.45981" cy="65.478355" r="36.746727" class="cls-5" style="fill:#f4ca6e;stroke:#e99923;stroke-width:5.62737px;stroke-miterlimit:10"/><path id="rect37-9" d="M382.88104 100.87447h64.827309v64.827309H382.88104z" class="cls-5" style="fill:#f4ca6e;stroke:#e99923;stroke-width:5.62737px;stroke-miterlimit:10"/><circle id="circle43-3" cx="252.28107" cy="259.65631" r="31.862171" class="cls-5" style="fill:#f4ca6e;stroke:#e99923;stroke-width:5.62737px;stroke-miterlimit:10"/></g><g id="g2002"><path id="rect23-7-6" d="M199.53291 342.84549h64.827309v64.827309H199.53291z" class="cls-5" clip-path="url(#clipPath54632)" style="fill:#8d5aa5;stroke:#b283ba;stroke-width:5.62737px;stroke-miterlimit:10;stroke-opacity:1;fill-opacity:1" transform="rotate(-24.219999)"/><g id="g22400" clip-path="url(#clipPath28479)" style="fill:#8d5aa5;fill-opacity:1;stroke:#b283ba;stroke-opacity:1" transform="translate(.00003052)"><circle id="circle21-5" cx="476.6218" cy="23.914572" r="22.59952" class="cls-5" style="fill:#8d5aa5;fill-opacity:1;stroke:#b283ba;stroke-width:5.62737px;stroke-miterlimit:10;stroke-opacity:1"/><path id="polygon27-9" d="m439.7 64.15-6.95 23.72-6.94 23.73-17.08-17.88-17.07-17.88 24.02-5.85z" class="cls-5" style="fill:#8d5aa5;fill-opacity:1;stroke:#b283ba;stroke-width:5px;stroke-miterlimit:10;stroke-opacity:1" transform="translate(-84.956014 -52.38131) scale(1.125474)"/><path id="rect37-2" d="M382.88101 100.87447h64.827309v64.827309H382.88101z" class="cls-5" style="fill:#8d5aa5;fill-opacity:1;stroke:#b283ba;stroke-width:5.62737px;stroke-miterlimit:10;stroke-opacity:1"/><circle id="circle39-2" cx="479.72812" cy="256.89896" r="42.441624" class="cls-5" style="fill:#8d5aa5;fill-opacity:1;stroke:#b283ba;stroke-width:5.62737px;stroke-miterlimit:10;stroke-opacity:1"/><path id="polygon41-8" d="m533.31 86.7 47.5 27.32 47.5 27.31-47.41 27.48-47.4 27.48-.09-54.79z" class="cls-5" style="fill:#8d5aa5;fill-opacity:1;stroke:#b283ba;stroke-width:5px;stroke-miterlimit:10;stroke-opacity:1" transform="translate(-84.956014 -52.38131) scale(1.125474)"/><path id="rect45-9" d="M589.37512-104.27837h64.827309v64.827309H589.37512z" class="cls-5" style="fill:#8d5aa5;fill-opacity:1;stroke:#b283ba;stroke-width:5px;stroke-miterlimit:10;stroke-opacity:1" transform="rotate(29.999999)"/></g></g><g id="g47456" clip-path="url(#clipPath47458)" style="filter:url(#filter2426)"><circle id="circle19-1" cx="91.315758" cy="113.99755" r="19.290625" class="cls-5" style="fill:#c04e98;fill-opacity:1;stroke:#a44280;stroke-width:5.62737px;stroke-miterlimit:10;stroke-opacity:1"/><path id="rect25-9" d="M34.698528-271.2775h79.469727v79.469727H34.698528z" class="cls-5" style="fill:#c04e98;fill-opacity:1;stroke:#a44280;stroke-width:5.62737px;stroke-miterlimit:10;stroke-opacity:1" transform="rotate(116.52)"/><circle id="circle31-4" cx="231.45981" cy="65.478355" r="36.746727" class="cls-5" style="fill:#c04e98;fill-opacity:1;stroke:#a44280;stroke-width:5.62737px;stroke-miterlimit:10;stroke-opacity:1"/><path id="polygon33-7" d="m146.51 296.12-35.78-3.63 21.02-29.17 21.03-29.17 14.75 32.79 14.75 32.8z" class="cls-5" style="fill:#c04e98;fill-opacity:1;stroke:#a44280;stroke-width:5px;stroke-miterlimit:10;stroke-opacity:1" transform="translate(-84.955989 -52.381305) scale(1.125474)"/><path id="rect35-8" d="M87.781761 6.1996088h64.827309v64.827309H87.781761z" class="cls-5" style="fill:#c04e98;fill-opacity:1;stroke:#a44280;stroke-width:5.62737px;stroke-miterlimit:10;stroke-opacity:1"/><circle id="circle47-4" cx="7.3103714" cy="194.54767" r="30.320272" class="cls-5" style="fill:#c04e98;fill-opacity:1;stroke:#a44280;stroke-width:5.62737px;stroke-miterlimit:10;stroke-opacity:1"/><path id="polygon49-5" d="m81.98 88.66 40.79-.64-19.83 35.65-19.85 35.65-20.95-35.01-20.95-35z" class="cls-5" style="fill:#c04e98;fill-opacity:1;stroke:#a44280;stroke-width:5px;stroke-miterlimit:10;stroke-opacity:1" transform="translate(-84.955989 -52.381305) scale(1.125474)"/></g><g id="g56709"><path id="path92" d="M365.29198 220.45947a5.1245385 5.1245385 0 0 1-3.66699-1.51539L232.14653 89.47719a5.1859138 5.1859138 0 0 1 7.33398-7.33399l129.44377 129.46689a5.1823775 5.1823775 0 0 1-3.667 8.84938z" class="cls-10" style="fill:#fff;fill-opacity:1;stroke-width:1.15678"/><path id="path94" d="M258.08155 133.70091a25.63426 25.63426 0 1 1 25.63426-25.63426 25.668964 25.668964 0 0 1-25.63426 25.63426z" class="cls-11" style="fill:#fceed5;fill-opacity:1;stroke-width:1.15678"/><path id="path96" d="M258.08155 85.32434a22.742309 22.742309 0 1 1-22.75388 22.74231 22.765444 22.765444 0 0 1 22.75388-22.74231m0-5.7839a28.526212 28.526212 0 1 0 28.52621 28.52621 28.53778 28.53778 0 0 0-28.52621-28.52621z" class="cls-10" style="fill:#fff;fill-opacity:1;stroke-width:1.15678"/><path id="path98" d="M289.23365 164.84145a25.645828 25.645828 0 1 1 24.92863-19.75782 25.553286 25.553286 0 0 1-24.92863 19.75782z" class="cls-11" style="fill:#fceed5;fill-opacity:1;stroke-width:1.15678"/><path id="path100" d="M289.18738 110.66941v5.7839a22.476249 22.476249 0 0 1 5.25179.62466 22.742309 22.742309 0 0 1-5.20552 44.8831 23.019936 23.019936 0 0 1-5.25178-.6131 22.753876 22.753876 0 0 1 5.20551-44.89466v-5.7839m0 0a28.572483 28.572483 0 1 0 6.58208.77504 28.53778 28.53778 0 0 0-6.58208-.77504z" class="cls-10" style="fill:#fff;fill-opacity:1;stroke-width:1.15678"/><path id="path102" d="M320.33949 195.95885a25.645828 25.645828 0 1 1 25.63426-25.64583 25.668964 25.668964 0 0 1-25.63426 25.64583z" class="cls-11" style="fill:#fceed5;fill-opacity:1;stroke-width:1.15678"/><path id="path104" d="M320.33949 147.57071a22.753876 22.753876 0 1 1-22.74231 22.74231 22.765444 22.765444 0 0 1 22.74231-22.74231m0-5.7839a28.53778 28.53778 0 1 0 28.52621 28.52621 28.526212 28.526212 0 0 0-28.52621-28.52621z" class="cls-10" style="fill:#fff;fill-opacity:1;stroke-width:1.15678"/><path id="path106" d="M365.29198 220.45947a5.1245385 5.1245385 0 0 1-3.66699-1.51539l-31.77677-31.77676a5.1859141 5.1859141 0 1 1 7.33399-7.33399l31.74207 31.77676a5.1823775 5.1823775 0 0 1-3.667 8.84938z" class="cls-10" style="fill:#fff;fill-opacity:1;stroke-width:1.15678"/></g><g id="g54576" style="filter:url(#filter2430)" transform="translate(-9.6506658)"><path id="path92-9" d="M174.94264 220.45947a5.1245385 5.1245385 0 0 1-3.66699-1.51539L41.79719 89.47719a5.1859138 5.1859138 0 0 1 7.33398-7.33399l129.44377 129.46689a5.1823775 5.1823775 0 0 1-3.667 8.84938z" class="cls-10" style="fill:#fff;fill-opacity:1;stroke-width:1.15678"/><path id="path94-1" d="M67.73221 133.70091a25.63426 25.63426 0 1 1 25.63426-25.63426 25.668964 25.668964 0 0 1-25.63426 25.63426Z" class="cls-11" style="fill:#73a753;fill-opacity:1;stroke-width:1.15678"/><path id="path96-2" d="M67.73221 85.32434a22.742309 22.742309 0 1 1-22.75388 22.74231 22.765444 22.765444 0 0 1 22.75388-22.74231m0-5.7839a28.526212 28.526212 0 1 0 28.52621 28.52621 28.53778 28.53778 0 0 0-28.52621-28.52621Z" class="cls-10" style="fill:#fff;fill-opacity:1;stroke-width:1.15678"/><path id="path98-7" d="M98.88431 164.84145a25.645828 25.645828 0 1 1 24.92863-19.75782 25.553286 25.553286 0 0 1-24.92863 19.75782z" class="cls-11" style="fill:#73a753;fill-opacity:1;stroke-width:1.15678"/><path id="path100-0" d="M98.83804 110.66941v5.7839a22.476249 22.476249 0 0 1 5.25179.62466 22.742309 22.742309 0 0 1-5.20552 44.8831 23.019936 23.019936 0 0 1-5.25178-.6131 22.753876 22.753876 0 0 1 5.20551-44.89466v-5.7839m0 0a28.572483 28.572483 0 1 0 6.58208.77504 28.53778 28.53778 0 0 0-6.58208-.77504z" class="cls-10" style="fill:#fff;fill-opacity:1;stroke-width:1.15678"/><path id="path102-9" d="M129.99015 195.95885a25.645828 25.645828 0 1 1 25.63426-25.64583 25.668964 25.668964 0 0 1-25.63426 25.64583z" class="cls-11" style="fill:#73a753;fill-opacity:1;stroke-width:1.15678"/><path id="path104-3" d="M129.99015 147.57071a22.753876 22.753876 0 1 1-22.74231 22.74231 22.765444 22.765444 0 0 1 22.74231-22.74231m0-5.7839a28.53778 28.53778 0 1 0 28.52621 28.52621 28.526212 28.526212 0 0 0-28.52621-28.52621z" class="cls-10" style="fill:#fff;fill-opacity:1;stroke-width:1.15678"/><path id="path106-6" d="M174.94264 220.45947a5.1245385 5.1245385 0 0 1-3.66699-1.51539l-31.77677-31.77676a5.1859141 5.1859141 0 1 1 7.33399-7.33399l31.74207 31.77676a5.1823775 5.1823775 0 0 1-3.667 8.84938z" class="cls-10" style="fill:#fff;fill-opacity:1;stroke-width:1.15678"/></g><g id="g3652" transform="translate(-223.95787 -374.92601)"><path id="path92-3" d="M789.24984 595.38548a5.1245385 5.1245385 0 0 1-3.66699-1.51539L656.10439 464.4032a5.1859138 5.1859138 0 0 1 7.33398-7.33399L792.88214 586.5361a5.1823775 5.1823775 0 0 1-3.667 8.84938z" class="cls-10" style="fill:#231f20;stroke-width:1.15678"/><path id="path94-6" d="M682.03941 508.62692a25.63426 25.63426 0 1 1 25.63426-25.63426 25.668964 25.668964 0 0 1-25.63426 25.63426z" class="cls-11" style="fill:#3eb167;stroke-width:1.15678"/><path id="path96-7" d="M682.03941 460.25035a22.742309 22.742309 0 1 1-22.75388 22.74231 22.765444 22.765444 0 0 1 22.75388-22.74231m0-5.7839a28.526212 28.526212 0 1 0 28.52621 28.52621 28.53778 28.53778 0 0 0-28.52621-28.52621z" class="cls-10" style="fill:#231f20;stroke-width:1.15678"/><path id="path98-5" d="M713.19151 539.76746a25.645828 25.645828 0 1 1 24.92863-19.75782 25.553286 25.553286 0 0 1-24.92863 19.75782z" class="cls-11" style="fill:#3eb167;stroke-width:1.15678"/><path id="path100-3" d="M713.14524 485.59542v5.7839a22.476249 22.476249 0 0 1 5.25179.62466 22.742309 22.742309 0 0 1-5.20552 44.8831 23.019936 23.019936 0 0 1-5.25178-.6131 22.753876 22.753876 0 0 1 5.20551-44.89466v-5.7839m0 0a28.572483 28.572483 0 1 0 6.58208.77504 28.53778 28.53778 0 0 0-6.58208-.77504z" class="cls-10" style="fill:#231f20;stroke-width:1.15678"/><path id="path102-5" d="M744.29735 570.88486a25.645828 25.645828 0 1 1 25.63426-25.64583 25.668964 25.668964 0 0 1-25.63426 25.64583z" class="cls-11" style="fill:#3eb167;stroke-width:1.15678"/><path id="path104-6" d="M744.29735 522.49672a22.753876 22.753876 0 1 1-22.74231 22.74231 22.765444 22.765444 0 0 1 22.74231-22.74231m0-5.7839a28.53778 28.53778 0 1 0 28.52621 28.52621 28.526212 28.526212 0 0 0-28.52621-28.52621z" class="cls-10" style="fill:#231f20;stroke-width:1.15678"/><path id="path106-2" d="M789.24984 595.38548a5.1245385 5.1245385 0 0 1-3.66699-1.51539l-31.77677-31.77676a5.1859141 5.1859141 0 1 1 7.33399-7.33399l31.74207 31.77676a5.1823775 5.1823775 0 0 1-3.667 8.84938z" class="cls-10" style="fill:#231f20;stroke-width:1.15678"/></g></svg>