<svg xmlns="http://www.w3.org/2000/svg" id="svg180" width="600" height="300" version="1.1"><defs id="defs13"><clipPath id="clip-path" transform="translate(36 36)"><path id="rect4" d="M0 0h600v300H0z" class="cls-1"/></clipPath><clipPath id="clip-path-2" transform="translate(36 36)"><path id="rect7" d="M201.14999 0H398.86v300H201.14999z" class="cls-1"/></clipPath><clipPath id="clip-path-3" transform="translate(36 36)"><path id="rect10" d="M398.85001 0H600v300H398.85001z" class="cls-1"/></clipPath><clipPath id="clipPath28479" clipPathUnits="userSpaceOnUse"><path id="rect28481" d="M399.99997.00000763h200v300h-200z" style="fill:#73a753;fill-opacity:1;stroke:none;stroke-width:1.98563;stroke-miterlimit:10;stroke-dasharray:none;stroke-opacity:1;paint-order:stroke fill markers"/></clipPath><clipPath id="clipPath28555" clipPathUnits="userSpaceOnUse"><path id="rect28557" d="M200 .00000763h400v300H200z" style="fill:#fbbb14;fill-opacity:1;stroke:none;stroke-width:2.8081;stroke-miterlimit:10;stroke-dasharray:none;stroke-opacity:1;paint-order:stroke fill markers"/></clipPath><clipPath id="clipPath47458" clipPathUnits="userSpaceOnUse"><path id="rect47460" d="M0 0h200v300H0z" style="fill:#f1b2d1;fill-opacity:1;stroke:none;stroke-width:1.98563;stroke-miterlimit:10;stroke-dasharray:none;stroke-opacity:1;paint-order:stroke fill markers"/></clipPath><clipPath id="clipPath54632" clipPathUnits="userSpaceOnUse"><path id="rect54634" d="M400-.00001526h200v300H400z" style="fill:#592c78;fill-opacity:1;stroke:none;stroke-width:2.18468;stroke-miterlimit:10;stroke-dasharray:none;stroke-opacity:1;paint-order:stroke fill markers" transform="rotate(24.219999)"/></clipPath><clipPath id="clipPath1916" clipPathUnits="userSpaceOnUse"><path id="rect1918" d="M200 0h200v300H200z" style="fill:#fbbb14;fill-opacity:1;stroke:none;stroke-width:2.18468;stroke-miterlimit:10;stroke-dasharray:none;stroke-opacity:1;paint-order:stroke fill markers"/></clipPath><clipPath id="clip-path-36" transform="translate(36 36)"><path id="rect899" d="M0 0h600v300H0z" class="cls-1"/></clipPath><clipPath id="clip-path-2-7" transform="translate(36 36)"><path id="rect902" d="M201.15 0h197.71v300H201.15z" class="cls-1"/></clipPath><clipPath id="clip-path-3-5" transform="translate(36 36)"><path id="rect905" d="M398.85 0H600v300H398.85z" class="cls-1"/></clipPath><filter id="filter2426" width="1.0868601" height="1.0735509" x="-.04557943" y="-.03592113" style="color-interpolation-filters:sRGB"><feGaussianBlur id="feGaussianBlur2424" result="blur" stdDeviation="3 3"/></filter><filter id="filter2430" width="1.1022079" height="1.1021863" x="-.05110394" y="-.05109314" style="color-interpolation-filters:sRGB"><feGaussianBlur id="feGaussianBlur2428" result="blur" stdDeviation="3 3"/></filter><style id="style2">.cls-1{fill:none}.cls-5{fill:#f4ca6e;stroke:#e99923;stroke-miterlimit:10;stroke-width:5px}.cls-10{fill:#231f20}.cls-11{fill:#3eb167}.cls-14{fill:#507737}.cls-15{fill:#72a553}</style></defs><path id="rect48699" d="M0 0h600v300H0z" style="fill:#f1b2d1;fill-opacity:1;stroke:none;stroke-width:3.78398;stroke-miterlimit:10;stroke-dasharray:none;stroke-opacity:1;paint-order:stroke fill markers"/><path id="rect48699-0-3" d="M400 0h200v300H400z" style="fill:#592c78;fill-opacity:1;stroke:none;stroke-width:2.18468;stroke-miterlimit:10;stroke-dasharray:none;stroke-opacity:1;paint-order:stroke fill markers"/><path id="rect48699-0-36" d="M200.00006.00001526h200v300h-200z" style="fill:#fbbb14;fill-opacity:1;stroke:none;stroke-width:2.18468;stroke-miterlimit:10;stroke-dasharray:none;stroke-opacity:1;paint-order:stroke fill markers"/><g id="g1887" clip-path="url(#clipPath1916)"><path id="rect23-7" d="M199.53291 342.84549h64.827309v64.827309H199.53291z" class="cls-5" style="fill:#f4ca6e;stroke:#e99923;stroke-width:5.62737px;stroke-miterlimit:10" transform="rotate(-24.219999)"/><path id="rect25-3" d="M34.698536-271.2775h79.469727v79.469727H34.698536z" class="cls-5" style="fill:#f4ca6e;stroke:#e99923;stroke-width:5.62737px;stroke-miterlimit:10" transform="rotate(116.52)"/><path id="polygon27-6" d="m391.66 75.84 24.02-5.85 24.02-5.84-6.95 23.72-6.94 23.73-17.08-17.88z" class="cls-5" style="fill:#f4ca6e;stroke:#e99923;stroke-width:5px;stroke-miterlimit:10" transform="translate(-84.95598 -52.381302) scale(1.125474)"/><path id="polygon29-1" d="m371.02 192.46-17.85-3.37-17.85-3.37 11.84-13.78L359 158.17l6.01 17.14z" class="cls-5" style="fill:#f4ca6e;stroke:#e99923;stroke-width:5px;stroke-miterlimit:10" transform="translate(-84.95598 -52.381302) scale(1.125474)"/><circle id="circle31-2" cx="231.45981" cy="65.478355" r="36.746727" class="cls-5" style="fill:#f4ca6e;stroke:#e99923;stroke-width:5.62737px;stroke-miterlimit:10"/><path id="rect37-9" d="M382.88104 100.87447h64.827309v64.827309H382.88104z" class="cls-5" style="fill:#f4ca6e;stroke:#e99923;stroke-width:5.62737px;stroke-miterlimit:10"/><circle id="circle43-3" cx="252.28107" cy="259.65631" r="31.862171" class="cls-5" style="fill:#f4ca6e;stroke:#e99923;stroke-width:5.62737px;stroke-miterlimit:10"/></g><g id="g2002"><path id="rect23-7-6" d="M199.53291 342.84549h64.827309v64.827309H199.53291z" class="cls-5" clip-path="url(#clipPath54632)" style="fill:#8d5aa5;stroke:#b283ba;stroke-width:5.62737px;stroke-miterlimit:10;stroke-opacity:1;fill-opacity:1" transform="rotate(-24.219999)"/><g id="g22400" clip-path="url(#clipPath28479)" style="fill:#8d5aa5;fill-opacity:1;stroke:#b283ba;stroke-opacity:1" transform="translate(.00003052)"><circle id="circle21-5" cx="476.6218" cy="23.914572" r="22.59952" class="cls-5" style="fill:#8d5aa5;fill-opacity:1;stroke:#b283ba;stroke-width:5.62737px;stroke-miterlimit:10;stroke-opacity:1"/><path id="polygon27-9" d="m439.7 64.15-6.95 23.72-6.94 23.73-17.08-17.88-17.07-17.88 24.02-5.85z" class="cls-5" style="fill:#8d5aa5;fill-opacity:1;stroke:#b283ba;stroke-width:5px;stroke-miterlimit:10;stroke-opacity:1" transform="translate(-84.956014 -52.38131) scale(1.125474)"/><path id="rect37-2" d="M382.88101 100.87447h64.827309v64.827309H382.88101z" class="cls-5" style="fill:#8d5aa5;fill-opacity:1;stroke:#b283ba;stroke-width:5.62737px;stroke-miterlimit:10;stroke-opacity:1"/><circle id="circle39-2" cx="479.72812" cy="256.89896" r="42.441624" class="cls-5" style="fill:#8d5aa5;fill-opacity:1;stroke:#b283ba;stroke-width:5.62737px;stroke-miterlimit:10;stroke-opacity:1"/><path id="polygon41-8" d="m533.31 86.7 47.5 27.32 47.5 27.31-47.41 27.48-47.4 27.48-.09-54.79z" class="cls-5" style="fill:#8d5aa5;fill-opacity:1;stroke:#b283ba;stroke-width:5px;stroke-miterlimit:10;stroke-opacity:1" transform="translate(-84.956014 -52.38131) scale(1.125474)"/><path id="rect45-9" d="M589.37512-104.27837h64.827309v64.827309H589.37512z" class="cls-5" style="fill:#8d5aa5;fill-opacity:1;stroke:#b283ba;stroke-width:5px;stroke-miterlimit:10;stroke-opacity:1" transform="rotate(29.999999)"/></g></g><g id="g47456" clip-path="url(#clipPath47458)" style="filter:url(#filter2426)"><circle id="circle19-1" cx="91.315758" cy="113.99755" r="19.290625" class="cls-5" style="fill:#c04e98;fill-opacity:1;stroke:#a44280;stroke-width:5.62737px;stroke-miterlimit:10;stroke-opacity:1"/><path id="rect25-9" d="M34.698528-271.2775h79.469727v79.469727H34.698528z" class="cls-5" style="fill:#c04e98;fill-opacity:1;stroke:#a44280;stroke-width:5.62737px;stroke-miterlimit:10;stroke-opacity:1" transform="rotate(116.52)"/><circle id="circle31-4" cx="231.45981" cy="65.478355" r="36.746727" class="cls-5" style="fill:#c04e98;fill-opacity:1;stroke:#a44280;stroke-width:5.62737px;stroke-miterlimit:10;stroke-opacity:1"/><path id="polygon33-7" d="m146.51 296.12-35.78-3.63 21.02-29.17 21.03-29.17 14.75 32.79 14.75 32.8z" class="cls-5" style="fill:#c04e98;fill-opacity:1;stroke:#a44280;stroke-width:5px;stroke-miterlimit:10;stroke-opacity:1" transform="translate(-84.955989 -52.381305) scale(1.125474)"/><path id="rect35-8" d="M87.781761 6.1996088h64.827309v64.827309H87.781761z" class="cls-5" style="fill:#c04e98;fill-opacity:1;stroke:#a44280;stroke-width:5.62737px;stroke-miterlimit:10;stroke-opacity:1"/><circle id="circle47-4" cx="7.3103714" cy="194.54767" r="30.320272" class="cls-5" style="fill:#c04e98;fill-opacity:1;stroke:#a44280;stroke-width:5.62737px;stroke-miterlimit:10;stroke-opacity:1"/><path id="polygon49-5" d="m81.98 88.66 40.79-.64-19.83 35.65-19.85 35.65-20.95-35.01-20.95-35z" class="cls-5" style="fill:#c04e98;fill-opacity:1;stroke:#a44280;stroke-width:5px;stroke-miterlimit:10;stroke-opacity:1" transform="translate(-84.955989 -52.381305) scale(1.125474)"/></g><g id="g56709" transform="translate(0 -16)"><path id="path92" d="M365.29198 220.45947a5.1245385 5.1245385 0 0 1-3.66699-1.51539L232.14653 89.47719a5.1859138 5.1859138 0 0 1 7.33398-7.33399l129.44377 129.46689a5.1823775 5.1823775 0 0 1-3.667 8.84938z" class="cls-10" style="fill:#fff;fill-opacity:1;stroke-width:1.15678"/><path id="path94" d="M258.08155 133.70091a25.63426 25.63426 0 1 1 25.63426-25.63426 25.668964 25.668964 0 0 1-25.63426 25.63426z" class="cls-11" style="fill:#fceed5;fill-opacity:1;stroke-width:1.15678"/><path id="path96" d="M258.08155 85.32434a22.742309 22.742309 0 1 1-22.75388 22.74231 22.765444 22.765444 0 0 1 22.75388-22.74231m0-5.7839a28.526212 28.526212 0 1 0 28.52621 28.52621 28.53778 28.53778 0 0 0-28.52621-28.52621z" class="cls-10" style="fill:#fff;fill-opacity:1;stroke-width:1.15678"/><path id="path98" d="M289.23365 164.84145a25.645828 25.645828 0 1 1 24.92863-19.75782 25.553286 25.553286 0 0 1-24.92863 19.75782z" class="cls-11" style="fill:#fceed5;fill-opacity:1;stroke-width:1.15678"/><path id="path100" d="M289.18738 110.66941v5.7839a22.476249 22.476249 0 0 1 5.25179.62466 22.742309 22.742309 0 0 1-5.20552 44.8831 23.019936 23.019936 0 0 1-5.25178-.6131 22.753876 22.753876 0 0 1 5.20551-44.89466v-5.7839m0 0a28.572483 28.572483 0 1 0 6.58208.77504 28.53778 28.53778 0 0 0-6.58208-.77504z" class="cls-10" style="fill:#fff;fill-opacity:1;stroke-width:1.15678"/><path id="path102" d="M320.33949 195.95885a25.645828 25.645828 0 1 1 25.63426-25.64583 25.668964 25.668964 0 0 1-25.63426 25.64583z" class="cls-11" style="fill:#fceed5;fill-opacity:1;stroke-width:1.15678"/><path id="path104" d="M320.33949 147.57071a22.753876 22.753876 0 1 1-22.74231 22.74231 22.765444 22.765444 0 0 1 22.74231-22.74231m0-5.7839a28.53778 28.53778 0 1 0 28.52621 28.52621 28.526212 28.526212 0 0 0-28.52621-28.52621z" class="cls-10" style="fill:#fff;fill-opacity:1;stroke-width:1.15678"/><path id="path106" d="M365.29198 220.45947a5.1245385 5.1245385 0 0 1-3.66699-1.51539l-31.77677-31.77676a5.1859141 5.1859141 0 1 1 7.33399-7.33399l31.74207 31.77676a5.1823775 5.1823775 0 0 1-3.667 8.84938z" class="cls-10" style="fill:#fff;fill-opacity:1;stroke-width:1.15678"/></g><g id="g54576" style="filter:url(#filter2430)" transform="translate(-9.6506658 -16)"><path id="path92-9" d="M174.94264 220.45947a5.1245385 5.1245385 0 0 1-3.66699-1.51539L41.79719 89.47719a5.1859138 5.1859138 0 0 1 7.33398-7.33399l129.44377 129.46689a5.1823775 5.1823775 0 0 1-3.667 8.84938z" class="cls-10" style="fill:#fff;fill-opacity:1;stroke-width:1.15678"/><path id="path94-1" d="M67.73221 133.70091a25.63426 25.63426 0 1 1 25.63426-25.63426 25.668964 25.668964 0 0 1-25.63426 25.63426Z" class="cls-11" style="fill:#73a753;fill-opacity:1;stroke-width:1.15678"/><path id="path96-2" d="M67.73221 85.32434a22.742309 22.742309 0 1 1-22.75388 22.74231 22.765444 22.765444 0 0 1 22.75388-22.74231m0-5.7839a28.526212 28.526212 0 1 0 28.52621 28.52621 28.53778 28.53778 0 0 0-28.52621-28.52621Z" class="cls-10" style="fill:#fff;fill-opacity:1;stroke-width:1.15678"/><path id="path98-7" d="M98.88431 164.84145a25.645828 25.645828 0 1 1 24.92863-19.75782 25.553286 25.553286 0 0 1-24.92863 19.75782z" class="cls-11" style="fill:#73a753;fill-opacity:1;stroke-width:1.15678"/><path id="path100-0" d="M98.83804 110.66941v5.7839a22.476249 22.476249 0 0 1 5.25179.62466 22.742309 22.742309 0 0 1-5.20552 44.8831 23.019936 23.019936 0 0 1-5.25178-.6131 22.753876 22.753876 0 0 1 5.20551-44.89466v-5.7839m0 0a28.572483 28.572483 0 1 0 6.58208.77504 28.53778 28.53778 0 0 0-6.58208-.77504z" class="cls-10" style="fill:#fff;fill-opacity:1;stroke-width:1.15678"/><path id="path102-9" d="M129.99015 195.95885a25.645828 25.645828 0 1 1 25.63426-25.64583 25.668964 25.668964 0 0 1-25.63426 25.64583z" class="cls-11" style="fill:#73a753;fill-opacity:1;stroke-width:1.15678"/><path id="path104-3" d="M129.99015 147.57071a22.753876 22.753876 0 1 1-22.74231 22.74231 22.765444 22.765444 0 0 1 22.74231-22.74231m0-5.7839a28.53778 28.53778 0 1 0 28.52621 28.52621 28.526212 28.526212 0 0 0-28.52621-28.52621z" class="cls-10" style="fill:#fff;fill-opacity:1;stroke-width:1.15678"/><path id="path106-6" d="M174.94264 220.45947a5.1245385 5.1245385 0 0 1-3.66699-1.51539l-31.77677-31.77676a5.1859141 5.1859141 0 1 1 7.33399-7.33399l31.74207 31.77676a5.1823775 5.1823775 0 0 1-3.667 8.84938z" class="cls-10" style="fill:#fff;fill-opacity:1;stroke-width:1.15678"/></g><g id="g3652" transform="translate(-223.95787 -390.92601)"><path id="path92-3" d="M789.24984 595.38548a5.1245385 5.1245385 0 0 1-3.66699-1.51539L656.10439 464.4032a5.1859138 5.1859138 0 0 1 7.33398-7.33399L792.88214 586.5361a5.1823775 5.1823775 0 0 1-3.667 8.84938z" class="cls-10" style="fill:#231f20;stroke-width:1.15678"/><path id="path94-6" d="M682.03941 508.62692a25.63426 25.63426 0 1 1 25.63426-25.63426 25.668964 25.668964 0 0 1-25.63426 25.63426z" class="cls-11" style="fill:#3eb167;stroke-width:1.15678"/><path id="path96-7" d="M682.03941 460.25035a22.742309 22.742309 0 1 1-22.75388 22.74231 22.765444 22.765444 0 0 1 22.75388-22.74231m0-5.7839a28.526212 28.526212 0 1 0 28.52621 28.52621 28.53778 28.53778 0 0 0-28.52621-28.52621z" class="cls-10" style="fill:#231f20;stroke-width:1.15678"/><path id="path98-5" d="M713.19151 539.76746a25.645828 25.645828 0 1 1 24.92863-19.75782 25.553286 25.553286 0 0 1-24.92863 19.75782z" class="cls-11" style="fill:#3eb167;stroke-width:1.15678"/><path id="path100-3" d="M713.14524 485.59542v5.7839a22.476249 22.476249 0 0 1 5.25179.62466 22.742309 22.742309 0 0 1-5.20552 44.8831 23.019936 23.019936 0 0 1-5.25178-.6131 22.753876 22.753876 0 0 1 5.20551-44.89466v-5.7839m0 0a28.572483 28.572483 0 1 0 6.58208.77504 28.53778 28.53778 0 0 0-6.58208-.77504z" class="cls-10" style="fill:#231f20;stroke-width:1.15678"/><path id="path102-5" d="M744.29735 570.88486a25.645828 25.645828 0 1 1 25.63426-25.64583 25.668964 25.668964 0 0 1-25.63426 25.64583z" class="cls-11" style="fill:#3eb167;stroke-width:1.15678"/><path id="path104-6" d="M744.29735 522.49672a22.753876 22.753876 0 1 1-22.74231 22.74231 22.765444 22.765444 0 0 1 22.74231-22.74231m0-5.7839a28.53778 28.53778 0 1 0 28.52621 28.52621 28.526212 28.526212 0 0 0-28.52621-28.52621z" class="cls-10" style="fill:#231f20;stroke-width:1.15678"/><path id="path106-2" d="M789.24984 595.38548a5.1245385 5.1245385 0 0 1-3.66699-1.51539l-31.77677-31.77676a5.1859141 5.1859141 0 1 1 7.33399-7.33399l31.74207 31.77676a5.1823775 5.1823775 0 0 1-3.667 8.84938z" class="cls-10" style="fill:#231f20;stroke-width:1.15678"/></g><g id="g1809"><path id="path1022" d="M62.361325 241.55747c-2.676859 0-5.187711-1.56669-7.750441-1.56669-7.262795 0-10.738561 7.09679-10.738561 12.243 0 8.39372 6.225253 12.76177 10.676309 12.76177 2.46935 0 6.111124-3.91153 8.528597-3.91153 3.320135 0 5.187711 4.62743 5.187711 7.35617 0 3.77665-6.443137 9.89815-16.984566 9.89815-16.860061 0-21.352618-12.30525-21.352618-24.41336 0-17.89761 10.08491-25.45091 22.452413-25.45091 8.300337 0 15.625385.64327 15.625385 6.04887-.05188 3.32013-1.867576 7.03453-5.644229 7.03453z" class="cls-14" style="stroke-width:1.03754"/><path id="path1024" d="M69.458113 268.95896a10.748937 10.748937 0 0 1 .97529-3.96341l13.14566-32.42319a6.1318744 6.1318744 0 0 1 6.225253-4.09829 36.448857 36.448857 0 0 1 8.455969.97528 7.0656624 7.0656624 0 0 1 5.343345 4.75195l11.91098 32.02893a10.375422 10.375422 0 0 1 .65365 3.51726c0 4.9387-3.45501 6.76478-8.07208 6.76478-7.49105 0-7.75044-7.03454-8.590845-11.13283l-12.896649-2.07508-1.888327 7.09679c-.840409 2.99849-3.320135 6.31863-6.702522 6.31863-3.745528-.0104-8.559724-3.26826-8.559724-7.76082zm19.267159-13.34279 8.653102.45652-4.482182-17.83535z" class="cls-14" style="stroke-width:1.03754"/><path id="path1026" d="m139.37808 236.46314 8.19659 29.22756-1.8157-29.80858c-.25939-4.23318 2.86361-7.03454 7.87494-7.03454 4.03604 0 5.66498 2.47973 5.78949 6.22525l1.11017 32.27794c.19713 7.03454-5.18771 9.70102-11.41297 9.70102-4.62743 0-7.26279-2.66648-8.66347-6.89965l-7.2628-23.42771.58102 14.7746c.13488 2.86362.33202 4.49256.33202 7.35618 0 6.82703-2.41748 8.59085-9.44164 8.59085-4.03604 0-5.72723-2.66649-5.60272-6.44314l.7159-33.52299c.0726-5.28109 2.54198-8.30034 8.00983-8.30034 5.72723.0208 9.89815 1.1828 11.58934 7.28355z" class="cls-14" style="stroke-width:1.03754"/><path id="path1028" d="M178.04728 273.38927c-4.49256-10.73856-9.17187-21.78839-13.66443-32.48545a10.250917 10.250917 0 0 1-.91304-3.97379c0-4.41993 5.18771-6.64027 8.98512-6.64027 3.7974 0 5.59235 2.67686 6.44313 5.997 2.80137 10.37542 5.66499 21.0206 8.45597 31.37527 2.47973-10.29241 5.01133-20.8961 7.49106-31.12626 1.11017-4.62744 3.8389-7.36655 8.72573-7.36655 3.38239 0 7.61556.91304 7.61556 5.08396a9.8359001 9.8359001 0 0 1-.78853 3.57952c-4.03604 11.19508-8.19659 22.72217-12.23263 33.9795-1.76382 4.68969-6.1215 6.1215-11.58934 6.1215-4.49256-.0519-7.35618-1.74307-8.5286-4.54443z" class="cls-14" style="stroke-width:1.03754"/><path id="path1030" d="M205.67703 268.95896a10.748937 10.748937 0 0 1 .97529-3.96341l13.15603-32.42319a6.1111236 6.1111236 0 0 1 6.22526-4.09829 36.604489 36.604489 0 0 1 8.46634.97528 7.0760378 7.0760378 0 0 1 5.33297 4.75195l11.91098 32.02893a10.375422 10.375422 0 0 1 .65365 3.51726c0 4.9387-3.45501 6.76478-8.07207 6.76478-7.49106 0-7.75044-7.03454-8.59085-11.13283l-12.88628-2.07508-1.88832 7.09679c-.85079 2.99849-3.32014 6.31863-6.7129 6.31863-3.7144-.0104-8.5701-3.26826-8.5701-7.76082zm19.26716-13.34279 8.66347.45652-4.49255-17.83535z" class="cls-14" style="stroke-width:1.03754"/><path id="path1032" d="M287.35235 241.65085c-3.96341 0-7.41843-2.66648-11.31958-2.66648-2.67686 0-4.6897 2.86361-4.6897 5.27071 0 8.59085 23.75972-3.8389 23.75972 19.7133 0 12.45051-13.99644 14.90949-23.50033 14.90949-4.88682 0-15.4905-2.60424-15.4905-8.78799 0-3.11262 1.36955-7.61556 5.18771-7.61556 4.67931 0 9.56614 5.59236 14.63972 5.59236 2.34484 0 4.75194-1.03755 4.75194-3.64178 0-12.82402-20.8961-1.50443-20.8961-21.09323a15.61501 15.61501 0 0 1 15.68764-15.68764c4.03604 0 17.31658.39427 17.31658 6.22525.0311 3.06075-1.79495 7.78157-5.4471 7.78157z" class="cls-14" style="stroke-width:1.03754"/><path id="path1034" d="M338.48243 277.36305c-6.04887.38389-12.17037.77816-18.22962.77816-6.38088 0-9.33788-3.32013-9.33788-9.56614 0-10.15754.32164-20.31508.65366-30.47261.18675-6.30826 3.2475-9.43126 9.62839-9.56614l17.45146-.25939c2.92587 0 5.07358.97529 5.07358 4.23317 0 3.77666-1.75345 6.83741-5.86211 6.83741-4.29543 0-8.59085-.39427-12.88628-.39427l.32164 9.44164a38.523942 38.523942 0 0 1 7.26279-.91304c3.38239 0 4.41993 2.66648 4.41993 5.66498 0 2.79099-1.95058 3.70402-4.41993 3.90116-2.46935.19713-4.62743.19713-6.97228.32164l.39427 10.37542c4.09829-.84041 8.13433-2.34485 12.30525-2.34485 4.17092 0 5.72723 3.57952 5.72723 7.16942 0 3.58989-2.4901 4.59631-5.5301 4.79344z" class="cls-14" style="stroke-width:1.03754"/><path id="path1036" d="M355.71601 277.62244c-4.35768 0-5.92437-2.54198-7.02416-6.57802-1.0998-4.03604-1.76383-9.63877-1.76383-17.63822 0-11.32996 2.14772-23.63521 10.47918-24.99439a49.221002 49.221002 0 0 1 8.30034-.5914 57.064821 57.064821 0 0 1 9.70102.77816c3.18525.5914 7.48068 1.17242 7.48068 4.62744 0 3.64177-1.6912 7.15904-5.78949 7.15904a9.0784943 9.0784943 0 0 1-1.95058-.19713c-3.06075-.58103-5.18771-1.75345-8.66348-1.75345-5.72723 0-6.30825 6.38088-6.30825 10.67631a32.620327 32.620327 0 0 0 .38389 4.61706l11.12245-1.43181a13.488049 13.488049 0 0 1 1.56669-.1245c3.97379 0 5.27071 2.79099 5.27071 6.37051 0 3.57952-1.81569 5.54047-5.46784 5.54047-3.96341 0-7.87495-.45652-11.77611-.7159.71591 2.98812 1.95058 6.22525 1.95058 9.2445.0415 4.41993-3.99454 5.01133-7.5118 5.01133z" class="cls-14" style="stroke-width:1.03754"/><path id="path1038" d="M393.6693 277.62244c-4.35768 0-5.92437-2.54198-7.02416-6.57802-1.0998-4.03604-1.76382-9.63877-1.76382-17.63822 0-11.32996 2.14771-23.63521 10.47917-24.99439a49.221002 49.221002 0 0 1 8.30034-.5914 57.064821 57.064821 0 0 1 9.70102.77816c3.18526.5914 7.49106 1.17242 7.49106 4.62744 0 3.64177-1.70157 7.15904-5.79987 7.15904a9.0784943 9.0784943 0 0 1-1.95057-.19713c-3.06075-.58103-5.18772-1.75345-8.66348-1.75345-5.72723 0-6.30826 6.38088-6.30826 10.67631a31.053638 31.053638 0 0 0 .39427 4.61706l11.19508-1.43181a13.104158 13.104158 0 0 1 1.55631-.1245c3.97379 0 5.27072 2.79099 5.27072 6.37051 0 3.57952-1.8157 5.54047-5.46785 5.54047-3.96341 0-7.87495-.45652-11.77611-.7159.71591 2.98812 1.95058 6.22525 1.95058 9.2445-.0311 4.41993-4.06716 5.01133-7.58443 5.01133z" class="cls-14" style="stroke-width:1.03754"/><path id="path1040" d="M450.8275 277.36305c-6.04887.38389-12.17037.77816-18.21924.77816-6.38089 0-9.33788-3.32013-9.33788-9.56614 0-10.15754.33201-20.31508.65365-30.47261.19713-6.30826 3.25788-9.43126 9.62839-9.56614l17.45146-.25939c2.92587 0 5.07358.97529 5.07358 4.23317 0 3.77666-1.75344 6.83741-5.85173 6.83741-4.29543 0-8.60123-.39427-12.89665-.39427l.33201 9.44164a38.306058 38.306058 0 0 1 7.26279-.91304c3.38239 0 4.43031 2.66648 4.43031 5.66498 0 2.79099-1.95058 3.70402-4.43031 3.90116-2.47972.19713-4.61706.19713-6.9619.32164l.38389 10.37542c4.15017-.84041 8.1447-2.34485 12.30525-2.34485 4.16054 0 5.72723 3.57952 5.72723 7.16942 0 3.58989-2.4901 4.59631-5.55085 4.79344z" class="cls-14" style="stroke-width:1.03754"/><path id="path1042" d="M492.10093 241.55747c-2.66648 0-5.13584-1.56669-7.74007-1.56669-7.26279 0-10.73856 7.09679-10.73856 12.243 0 8.39372 6.22526 12.76177 10.67631 12.76177 2.46935 0 6.11112-3.91153 8.5286-3.91153 3.32013 0 5.13583 4.62743 5.13583 7.35617 0 3.77665-6.44314 9.89815-16.98456 9.89815-16.86006 0-21.35262-12.30525-21.35262-24.41336 0-17.89761 10.08491-25.45091 22.45241-25.45091 8.30034 0 15.62539.64327 15.62539 6.04887 0 3.32013-1.82608 7.03453-5.60273 7.03453z" class="cls-14" style="stroke-width:1.03754"/><path id="path1044" d="M504.08454 237.9157c-3.24751-.26976-4.87645-1.96096-4.87645-5.28109 0-2.92587 1.43181-4.8142 4.49256-4.75194l26.22907 1.11017c2.66648.0623 4.62744 1.11017 4.62744 4.03604 0 3.51726-1.50444 6.57801-5.4056 6.57801-1.88833 0-3.7144-.25938-5.5301-.39426l1.03754 29.48695c.19714 5.34334-3.57952 8.72573-9.50388 8.72573-4.0983 0-5.72724-2.66649-5.66498-6.44314l.7159-32.68258z" class="cls-14" style="stroke-width:1.03754"/><path id="path1046" d="M564.76001 241.65085c-3.97379 0-7.41843-2.66648-11.32996-2.66648-2.66649 0-4.67932 2.86361-4.67932 5.27071 0 8.59085 23.75972-3.8389 23.75972 19.7133 0 12.45051-13.99645 14.90949-23.50033 14.90949-4.88683 0-15.49051-2.60424-15.49051-8.78799 0-3.11262 1.35918-7.61556 5.18771-7.61556 4.68969 0 9.57652 5.59236 14.6501 5.59236 2.34485 0 4.75194-1.03755 4.75194-3.64178 0-12.82402-20.8961-1.50443-20.8961-21.09323a15.563133 15.563133 0 0 1 15.68764-15.68764c4.03604 0 17.31658.39427 17.31658 6.22525.0104 3.06075-1.8157 7.78157-5.45747 7.78157z" class="cls-14" style="stroke-width:1.03754"/></g><g id="g1794"><path id="path1048" d="M59.923101 239.11925c-2.676859 0-5.187711-1.56669-7.750441-1.56669-7.262795 0-10.738561 7.09679-10.738561 12.243 0 8.39371 6.225253 12.76177 10.676309 12.76177 2.46935 0 6.111123-3.91154 8.528597-3.91154 3.320135 0 5.187711 4.62744 5.187711 7.35618 0 3.77665-6.443137 9.89815-16.984566 9.89815-16.860061 0-21.352619-12.30525-21.352619-24.41337 0-17.8976 10.084911-25.45091 22.452414-25.45091 8.300337 0 15.625385.65365 15.625385 6.04887-.05188 3.34089-1.867576 7.03454-5.644229 7.03454z" class="cls-15" style="stroke-width:1.03754"/><path id="path1050" d="M67.019889 266.55186a10.800814 10.800814 0 0 1 .97529-3.96341l13.176786-32.45432a6.1318744 6.1318744 0 0 1 6.225253-4.15017 36.448857 36.448857 0 0 1 8.455969.97529 7.0656624 7.0656624 0 0 1 5.343343 4.75195l11.91098 32.02892a10.375422 10.375422 0 0 1 .65366 3.51727c0 4.9387-3.45502 6.76478-8.07208 6.76478-7.491058 0-7.750443-7.02416-8.590852-11.13283l-12.89665-2.07508-1.888327 7.08641c-.840409 2.9985-3.320135 6.31863-6.702522 6.31863-3.776654.0519-8.59085-3.206-8.59085-7.66744zm19.267159-13.34279 8.653102.45652-4.430305-17.86648z" class="cls-15" style="stroke-width:1.03754"/><path id="path1052" d="m136.93986 233.97304 8.19658 29.22756-1.8157-29.85009c-.25938-4.23317 2.86362-7.03453 7.87495-7.03453 4.03604 0 5.66498 2.47972 5.78948 6.22525l1.11017 32.28831c.19714 7.02416-5.18771 9.69065-11.41296 9.69065-4.62744 0-7.2628-2.66649-8.66348-6.89966l-7.26279-23.4277.58102 14.7746c.13488 2.86362.33201 4.49256.33201 7.35617 0 6.83741-2.41747 8.59085-9.44163 8.59085-4.03604 0-5.72723-2.66648-5.60273-6.44313l.71591-33.52299c.0726-5.27072 2.54197-8.30034 8.00982-8.30034 5.72723.10376 9.89815 1.27618 11.58935 7.32505z" class="cls-15" style="stroke-width:1.03754"/><path id="path1054" d="M175.58831 270.95104c-4.49256-10.73856-9.17188-21.78838-13.66444-32.48544a10.250917 10.250917 0 0 1-.91303-3.96341c0-4.43031 5.13583-6.64027 8.98511-6.64027 3.84928 0 5.59236 2.66648 6.44314 5.98661 2.80136 10.37543 5.66498 21.02061 8.45597 31.37528 2.47972-10.28204 5.01133-20.8961 7.49105-31.17814 1.11017-4.62744 3.83891-7.35618 8.72573-7.35618 3.38239 0 7.61556.91304 7.61556 5.07358a9.8359001 9.8359001 0 0 1-.78853 3.57952c-4.03604 11.19508-8.19658 22.72218-12.23262 33.97951-1.76382 4.68969-6.1215 6.1215-11.58935 6.1215-4.4718 0-7.33542-1.69119-8.52859-4.49256z" class="cls-15" style="stroke-width:1.03754"/><path id="path1056" d="M203.28031 266.55186a10.800814 10.800814 0 0 1 .97529-3.96341l13.15603-32.42319a6.1111236 6.1111236 0 0 1 6.22525-4.15017 36.604489 36.604489 0 0 1 8.46635.97529 7.0760378 7.0760378 0 0 1 5.33297 4.75194l11.91098 32.02893a10.375422 10.375422 0 0 1 .65365 3.51727c0 4.9387-3.45501 6.76477-8.07208 6.76477-7.49105 0-7.75044-7.02416-8.59085-11.13282l-12.89665-2.07509-1.87795 7.08641c-.85078 2.9985-3.32013 6.31864-6.7129 6.31864-3.7559.0208-8.57009-3.23713-8.57009-7.69857zm19.26715-13.34279 8.66348.45652-4.49256-17.83535z" class="cls-15" style="stroke-width:1.03754"/><path id="path1058" d="M284.91413 239.1815c-3.96341 0-7.41843-2.66648-11.31959-2.66648-2.67686 0-4.68969 2.86361-4.68969 5.27071 0 8.60123 23.75972-3.8389 23.75972 19.7133 0 12.45051-13.99645 14.90948-23.50033 14.90948-4.88683 0-15.49051-2.60423-15.49051-8.78798 0-3.11262 1.36956-7.61556 5.18771-7.61556 4.67932 0 9.56614 5.59235 14.63972 5.59235 2.34485 0 4.75195-1.03754 4.75195-3.64177 0-12.82402-20.8961-1.49406-20.8961-21.09323a15.61501 15.61501 0 0 1 15.76026-15.73952c4.03604 0 17.31658.39427 17.31658 6.22526-.0519 3.15413-1.86757 7.83344-5.51972 7.83344z" class="cls-15" style="stroke-width:1.03754"/><path id="path1060" d="M336.02346 274.92483c-6.04888.38389-12.17037.77816-18.22962.77816-6.38089 0-9.33788-3.32014-9.33788-9.56614 0-10.15754.32164-20.31508.65365-30.47262.18676-6.30825 3.24751-9.43126 9.62839-9.56614l17.45146-.25938c2.92587 0 5.07358.97529 5.07358 4.23317 0 3.77665-1.75344 6.8374-5.86211 6.8374-4.29542 0-8.59085-.39426-12.88627-.39426l.32163 9.44163a38.523942 38.523942 0 0 1 7.2628-.91304c3.38239 0 4.41993 2.66649 4.41993 5.66498 0 2.80137-1.95058 3.70403-4.41993 3.90116-2.46935.19714-4.62744.19714-6.97228.33202l.39426 10.37542c4.15017-.85079 8.13433-2.34485 12.30525-2.34485 4.17092 0 5.72724 3.57952 5.72724 7.15904s-2.46936 4.59632-5.5301 4.79345z" class="cls-15" style="stroke-width:1.03754"/><path id="path1062" d="M353.27778 275.18421c-4.35768 0-5.92436-2.54197-7.02416-6.57801-1.09979-4.03604-1.76382-9.62839-1.76382-17.63822 0-11.32996 2.14771-23.63521 10.47918-24.99439a49.221002 49.221002 0 0 1 8.30033-.5914 56.027279 56.027279 0 0 1 9.70102.78853c3.18526.58103 7.48068 1.16205 7.48068 4.61706 0 3.64178-1.69119 7.15905-5.78948 7.15905a9.0784943 9.0784943 0 0 1-1.95058-.19714c-3.06075-.58102-5.18771-1.75344-8.66348-1.75344-5.72723 0-6.30826 6.38088-6.30826 10.67631a32.620327 32.620327 0 0 0 .38389 4.61706l11.20546-1.43181a13.104158 13.104158 0 0 1 1.55631-.12451c3.97379 0 5.27072 2.79099 5.27072 6.38089s-1.8157 5.5301-5.46785 5.5301c-3.96341 0-7.87495-.45652-11.7761-.7159.7159 2.98812 1.95058 6.22525 1.95058 9.2445-.0311 4.41993-4.06717 5.01132-7.58444 5.01132z" class="cls-15" style="stroke-width:1.03754"/><path id="path1064" d="M391.23108 275.18421c-4.35768 0-5.92437-2.54197-7.02416-6.57801-1.0998-4.03604-1.76383-9.62839-1.76383-17.63822 0-11.32996 2.14772-23.63521 10.47918-24.99439a49.221002 49.221002 0 0 1 8.30034-.5914 56.027279 56.027279 0 0 1 9.70102.78853c3.18525.58103 7.49105 1.16205 7.49105 4.61706 0 3.64178-1.70157 7.15905-5.79986 7.15905a9.0784943 9.0784943 0 0 1-1.95058-.19714c-3.11263-.58102-5.18771-1.75344-8.6531-1.75344-5.73761 0-6.31863 6.38088-6.31863 10.67631a31.053638 31.053638 0 0 0 .39426 4.61706l11.19508-1.43181a13.104158 13.104158 0 0 1 1.55632-.12451c3.97378 0 5.27071 2.79099 5.27071 6.38089s-1.8157 5.5301-5.46785 5.5301c-3.96341 0-7.87494-.45652-11.7761-.7159.7159 2.98812 1.95058 6.22525 1.95058 9.2445-.0311 4.41993-4.06717 5.01132-7.58443 5.01132z" class="cls-15" style="stroke-width:1.03754"/><path id="path1066" d="M448.38928 274.92483c-6.04888.38389-12.17037.77816-18.21925.77816-6.38088 0-9.33788-3.32014-9.33788-9.56614 0-10.15754.33202-20.31508.65366-30.47262.19713-6.30825 3.25788-9.43126 9.62839-9.56614l17.45146-.25938c2.92587 0 5.07358.97529 5.07358 4.23317 0 3.77665-1.75345 6.8374-5.85174 6.8374-4.29542 0-8.60122-.39426-12.89665-.39426l.33202 9.44163a38.306058 38.306058 0 0 1 7.26279-.91304c3.38239 0 4.43031 2.66649 4.43031 5.66498 0 2.80137-1.96096 3.70403-4.43031 3.90116-2.46935.19714-4.61706.19714-6.96191.33202l.38389 10.37542c4.15017-.85079 8.14471-2.34485 12.30525-2.34485 4.16055 0 5.72724 3.57952 5.72724 7.15904s-2.4901 4.59632-5.55085 4.79345z" class="cls-15" style="stroke-width:1.03754"/><path id="path1068" d="M489.67308 239.11925c-2.67686 0-5.18771-1.56669-7.75044-1.56669-7.2628 0-10.73856 7.09679-10.73856 12.243 0 8.39371 6.22525 12.76177 10.67631 12.76177 2.46935 0 6.11112-3.91154 8.52859-3.91154 3.32014 0 5.13584 4.62744 5.13584 7.35618 0 3.77665-6.44314 9.89815-16.98457 9.89815-16.86006 0-21.35262-12.30525-21.35262-24.41337 0-17.8976 10.08491-25.45091 22.45242-25.45091 8.30033 0 15.62538.65365 15.62538 6.04887 0 3.34089-1.8157 7.03454-5.59235 7.03454z" class="cls-15" style="stroke-width:1.03754"/><path id="path1070" d="M501.64632 235.47747c-3.24751-.25938-4.87645-1.95057-4.87645-5.27071 0-2.93624 1.43181-4.82457 4.49256-4.75194l26.22906 1.09979c2.66649.0623 4.62744 1.11017 4.62744 4.03604 0 3.51727-1.50444 6.57802-5.40559 6.57802-1.88833 0-3.7144-.25939-5.5301-.39427l1.03754 29.48695c.19713 5.34334-3.57952 8.72573-9.50389 8.72573-4.09829 0-5.72723-2.66648-5.66498-6.44314l.71591-32.68257z" class="cls-15" style="stroke-width:1.03754"/><path id="path1072" d="M562.32178 239.1815c-3.97378 0-7.41842-2.66648-11.31958-2.66648-2.67686 0-4.68969 2.86361-4.68969 5.27071 0 8.60123 23.75971-3.8389 23.75971 19.7133 0 12.45051-13.99644 14.90948-23.50033 14.90948-4.88682 0-15.4905-2.60423-15.4905-8.78798 0-3.11262 1.35918-7.61556 5.18771-7.61556 4.67932 0 9.56614 5.59235 14.63972 5.59235 2.34485 0 4.75194-1.03754 4.75194-3.64177 0-12.82402-20.8961-1.49406-20.8961-21.09323a15.61501 15.61501 0 0 1 15.68764-15.68764c4.03604 0 17.31658.39427 17.31658 6.22525.0104 3.10226-1.79495 7.78157-5.4471 7.78157z" class="cls-15" style="stroke-width:1.03754"/></g></svg>