<svg xmlns="http://www.w3.org/2000/svg" width="600" height="300" viewBox="0 0 599.99998 299.99999"><defs><linearGradient id="a" x1="214.99818" x2="432.4437" y1="43.25584" y2="43.25584" gradientTransform="translate(-.00002 -.00005)" gradientUnits="userSpaceOnUse"><stop offset="0" stop-color="#fff"/><stop offset="1" stop-color="#ff7db5"/></linearGradient><linearGradient id="b" x1="299.66644" x2="299.66644" y1="90.599747" y2="160.23402" gradientTransform="translate(-.00002 -.00005)" gradientUnits="userSpaceOnUse"><stop offset="0" stop-color="#828282" stop-opacity="0"/><stop offset="1" stop-color="#828282"/></linearGradient><linearGradient id="c" x1="278.9285" x2="380.11392" y1="186.34212" y2="186.34212" gradientTransform="translate(-.00002 -.00005)" gradientUnits="userSpaceOnUse"><stop offset="0" stop-color="#89ff27"/><stop offset="1" stop-color="#ff6b6b"/></linearGradient></defs><path fill="#ff7db5" d="M0 300V0h600v300z" style="mix-blend-mode:normal;stroke-linejoin:miter;stroke-miterlimit:10;stroke-dasharray:none;stroke-dashoffset:0"/><path fill="#fff" fill-opacity=".73333" d="M212.73131 308.1832c6.89801-22.60368 76.68476-34.96234 77.94759-54.67611 1.26417-19.71556-70.87682 24.00667-76.03705 12.42339-5.16023-11.58418 74.50416-70.09788 116.66627-87.20252 25.4061-10.30617 45.44841 4.25897 16.19669 26.80239-19.57048 15.08162-10.35974 28.04112 7.6475 19.17677 18.00724-8.86613 27.58803 13.99779 2.71046 33.53837-24.87713 19.53968-152.93519 75.51835-145.13146 49.93772zm189.33488-58.20167c19.31872-28.82319 56.25097-10.84229 32.84245 19.383-20.71323 26.7399-87.24314 54.45337-90.49418 39.57039-2.38728-10.92978 34.92306-25.04006 57.65173-58.95339zm158.87258 58.17351c-31.44883 30.50919-58.01419 60.2439-76.72092 59.32389-19.43701-.95616-2.07614-38.15445 30.92701-66.69016 23.38263-20.21774.54772-30.47705-21.87562-18.40541-27.09835 14.58747-48.22136 4.82678-13.24831-27.15906 34.97305-31.98762 88.07655-55.52559 117.04258-49.49044 28.96469 6.03515-40.68546 24.46779-43.44949 48.88425-2.71492 23.9915 39.5262-24.4419 61.55092-8.33002 21.37746 15.63692-25.01729 33.53256-54.2266 61.86651zm-352.45618-90.70706c3.55145 17.37203-39.79492 72.10617-92.95109 86.53651-53.43248 14.50444-103.66883 20.14498-105.82399 7.59973-2.13998-12.47204 31.7497-21.89348 73.84976-42.07819 20.35523-9.75801-1.18069-17.98179-14.43168-12.71041-43.82713 17.43274-40.40335-9.20717-3.39968-27.98934 28.91469-14.67764 53.37222-22.37647 67.86104-25.90828 21.01365-5.12273 25.39404 8.4501 13.39651 16.1092-23.41878 14.95083-12.15779 28.75132 8.80587 17.15017 13.27777-7.34797 46.94738-46.80632 52.69326-18.7094zm19.55755-14.92806c-12.42651 4.97409-15.65032-4.14247-15.65032-11.50829 0-7.36761 12.4283-10.12851 19.3339-5.98515 6.9056 4.14247 4.97052 14.03127-3.68358 17.49389zm349.70378-31.42116c-4.73973 10.96906-57.8718 12.72202-97.38103 48.15396-14.21474 12.74836-31.63899-2.8234-27.50322-14.77361 4.13399-11.94977 16.76851-15.09947 36.54389-22.78759 19.77359-7.68946-5.37092-17.93805-37.99777-2.54217-18.66298 8.80498-38.65976-6.03827-16.12527-21.32478 18.83573-12.77559 62.23523-16.43819 61.04962-27.39743-.65574-6.08648-32.16082 8.555-37.88573-4.56564-4.75937-10.90433 6.51858-23.4353 38.03303-25.9797 32.10636-2.59217 57.07634 4.01168 57.44996 19.78386.42317 17.85636-37.24516 22.69519-20.32041 28.21565 17.01938 5.54769 52.49016 3.87955 44.13693 23.21702zm-190.69551 38.21159c-6.34539-4.41253-6.54269-10.03924.20177-17.8452 8.74338-10.12271 23.33575-9.65222 27.62151-5.95033 4.28576 3.70233-5.40306 13.28893-9.10182 18.81252-3.69965 5.5218-10.55213 10.66284-18.72146 4.98301zm.38969-60.81216c-37.62013 8.99335-58.78823-6.0838-50.36223-16.38551 9.10182-11.12396 30.88772-11.09851 32.59962-32.87816 3.19925-40.75153 43.28522-47.96291 26.18102-19.51245-5.9914 9.96781 2.80643 16.28418 7.96354 3.53985 3.11399-7.69124 17.88225-18.24605 25.68643-22.14881 35.41944-17.7086 63.66009 8.02068 38.32676 15.17134-16.48461 4.65224-31.29394 15.84182-40.75376 41.46619-5.03971 13.65497-23.11703 26.79659-39.64137 30.74711zm112.09215-82.58155c-14.25982-18.23043 29.79363-19.24908 46.06264-24.72536 16.2699-5.47716-17.25731-8.25771-46.75141-7.95104-29.49723.30667-25.03381-22.34612 8.49161-33.44329 51.50811-17.04661 97.42389.65619 57.95482 11.96718-14.7196 4.22103-4.25674 16.39578 12.08235 14.6397 30.85424-3.31665 53.72263 11.91227 48.53026 23.80937-5.85972 13.42686-20.35969 4.38798-35.02305 3.3845-14.6638-1.00437-1.97124 13.36794 17.01626 23.26433 32.61435 16.9984 5.32986 45.91087-22.67555 19.77314-39.90116-37.2407-75.01081-17.06804-85.68749-30.71854ZM351.58879 21.71993c21.05517-42.99507 64.28414-38.77091 58.21507-24.09461-6.06773 14.67585 18.8951 2.71983 30.4583 5.39592 11.56141 2.67296 18.41791 22.77241-24.51511 26.64125-52.89548 4.76919-54.13197 56.94554-71.79638 46.05059-12.14618-7.48903-.16695-38.0558 7.63857-53.99359zM35.80729 216.29318c-35.26454 6.06104-43.07453-6.08202-28.39242-15.80075 9.1045-6.0289 44.55831-25.25432 18.66432-27.13763-25.89757-1.88375-6.59759-26.5051 23.81473-49.42616 30.41143-22.92151 96.85251-35.30427 93.94921-15.97395-2.90508 19.32988-81.14416 28.60535-67.05531 49.00566 6.11907 8.86077 36.04572-27.88934 49.33197-6.74401 13.28714 21.14534-68.20565 62.27942-90.31205 66.07683zm229.52307-36.22428c-11.25609 9.52902-34.27624-4.23175-13.57015-23.11569 4.79241-4.37146 17.11134-8.55723 9.75221-12.87156-22.23541-13.03226-90.00405 54.66585-101.21505 32.45499-5.39057-10.67935 21.6377-34.56327 51.13939-49.48375 21.77876-11.0137 13.83799-31.19216-18.48666-11.31099-32.32643 19.88206-38.02991-3.55324-20.12311-18.93394C190.7329 81.42905 305.13465 28.16262 312.92946 56.6287c6.06639 22.13944-57.85037 18.08402-49.89665 32.38803 5.83874 10.49634 50.29126-17.37337 66.02639.72582 15.22848 17.51309-41.77554 29.11691-38.12544 39.61771 2.88232 8.28583 30.15922-3.38941 30.6873 16.89529.40844 15.72174-29.04816 10.75703-56.29025 33.81334zM107.18541 38.54378c-6.84311 35.99751-70.24831 69.55597-94.57505 78.57967-38.27765 14.19197-78.2739 9.46072-55.69566-2.15114 22.57824-11.61453 81.92847-50.07119 51.38089-52.71067-15.0343-1.29899-32.02735-12.4524 0-38.90572C28.62627 6.56241 99.48345-16.64434 103.35318-1.80556c3.87017 14.83834-81.28165 40.64529-54.83324 43.22719 26.44841 2.58011 61.86294-19.7111 58.66547-2.87785zm93.36891 12.92111c-20.66011 10.32716-39.76591 22.83446-61.75982 27.55545-28.68391 6.15567-.39282-32.65408 27.14209-45.24486 12.33232-5.63876-2.43459-13.15368-14.30134-7.39216-32.24697 15.65389-46.27199 3.62778-12.97155-18.51924 8.27913-5.50663 33.85932-18.54379 64.9198-22.52646 31.35509-4.02239 30.54044 7.52117 20.83777 11.84844-13.9536 6.22174-23.51163 19.7111 13.89869 8.31797 66.87452-20.3655 106.48866-16.9743 91.26509 0-14.2192 15.85119-62.15622 12.53454-129.03074 45.96086z" data-paper-data="{&quot;index&quot;:null}" opacity=".1" style="mix-blend-mode:normal;fill-rule:evenodd;stroke:none;stroke-width:1;stroke-linecap:butt;stroke-linejoin:miter;stroke-miterlimit:10;stroke-dasharray:none;stroke-dashoffset:0"/><path fill="#fff" fill-opacity=".54118" d="M212.73131 308.1832c6.89801-22.60368 76.68476-34.96234 77.94759-54.67611 1.26417-19.71556-70.87682 24.00667-76.03705 12.42339-5.16023-11.58418 74.50416-70.09788 116.66627-87.20252 25.4061-10.30617 45.44841 4.25897 16.19669 26.80239-19.57048 15.08162-10.35974 28.04112 7.6475 19.17677 18.00724-8.86613 27.58803 13.99779 2.71046 33.53837-24.87713 19.53968-152.93519 75.51835-145.13146 49.93772zm189.33488-58.20167c19.31872-28.82319 56.25097-10.84229 32.84245 19.383-20.71323 26.7399-87.24314 54.45337-90.49418 39.57039-2.38728-10.92978 34.92306-25.04006 57.65173-58.95339zm158.87258 58.17351c-31.44883 30.50919-58.01419 60.2439-76.72092 59.32389-19.43701-.95616-2.07614-38.15445 30.92701-66.69016 23.38263-20.21774.54772-30.47705-21.87562-18.40541-27.09835 14.58747-48.22136 4.82678-13.24831-27.15906 34.97305-31.98762 88.07655-55.52559 117.04258-49.49044 28.96469 6.03515-40.68546 24.46779-43.44949 48.88425-2.71492 23.9915 39.5262-24.4419 61.55092-8.33002 21.37746 15.63692-25.01729 33.53256-54.2266 61.86651zm-352.45618-90.70706c3.55145 17.37203-39.79492 72.10617-92.95109 86.53651-53.43248 14.50444-103.66883 20.14498-105.82399 7.59973-2.13998-12.47204 31.7497-21.89348 73.84976-42.07819 20.35523-9.75801-1.18069-17.98179-14.43168-12.71041-43.82713 17.43274-40.40335-9.20717-3.39968-27.98934 28.91469-14.67764 53.37222-22.37647 67.86104-25.90828 21.01365-5.12273 25.39404 8.4501 13.39651 16.1092-23.41878 14.95083-12.15779 28.75132 8.80587 17.15017 13.27777-7.34797 46.94738-46.80632 52.69326-18.7094zm19.55755-14.92806c-12.42651 4.97409-15.65032-4.14247-15.65032-11.50829 0-7.36761 12.4283-10.12851 19.3339-5.98515 6.9056 4.14247 4.97052 14.03127-3.68358 17.49389zm349.70378-31.42116c-4.73973 10.96906-57.8718 12.72202-97.38103 48.15396-14.21474 12.74836-31.63899-2.8234-27.50322-14.77361 4.13399-11.94977 16.76851-15.09947 36.54389-22.78759 19.77359-7.68946-5.37092-17.93805-37.99777-2.54217-18.66298 8.80498-38.65976-6.03827-16.12527-21.32478 18.83573-12.77559 62.23523-16.43819 61.04962-27.39743-.65574-6.08648-32.16082 8.555-37.88573-4.56564-4.75937-10.90433 6.51858-23.4353 38.03303-25.9797 32.10636-2.59217 57.07634 4.01168 57.44996 19.78386.42317 17.85636-37.24516 22.69519-20.32041 28.21565 17.01938 5.54769 52.49016 3.87955 44.13693 23.21702zm-190.69551 38.21159c-6.34539-4.41253-6.54269-10.03924.20177-17.8452 8.74338-10.12271 23.33575-9.65222 27.62151-5.95033 4.28576 3.70233-5.40306 13.28893-9.10182 18.81252-3.69965 5.5218-10.55213 10.66284-18.72146 4.98301zm.38969-60.81216c-37.62013 8.99335-58.78823-6.0838-50.36223-16.38551 9.10182-11.12396 30.88772-11.09851 32.59962-32.87816 3.19925-40.75153 43.28522-47.96291 26.18102-19.51245-5.9914 9.96781 2.80643 16.28418 7.96354 3.53985 3.11399-7.69124 17.88225-18.24605 25.68643-22.14881 35.41944-17.7086 63.66009 8.02068 38.32676 15.17134-16.48461 4.65224-31.29394 15.84182-40.75376 41.46619-5.03971 13.65497-23.11703 26.79659-39.64137 30.74711zm112.09215-82.58155c-14.25982-18.23043 29.79363-19.24908 46.06264-24.72536 16.2699-5.47716-17.25731-8.25771-46.75141-7.95104-29.49723.30667-25.03381-22.34612 8.49161-33.44329 51.50811-17.04661 97.42389.65619 57.95482 11.96718-14.7196 4.22103-4.25674 16.39578 12.08235 14.6397 30.85424-3.31665 53.72263 11.91227 48.53026 23.80937-5.85972 13.42686-20.35969 4.38798-35.02305 3.3845-14.6638-1.00437-1.97124 13.36794 17.01626 23.26433 32.61435 16.9984 5.32986 45.91087-22.67555 19.77314-39.90116-37.2407-75.01081-17.06804-85.68749-30.71854ZM351.58879 21.71993c21.05517-42.99507 64.28414-38.77091 58.21507-24.09461-6.06773 14.67585 18.8951 2.71983 30.4583 5.39592 11.56141 2.67296 18.41791 22.77241-24.51511 26.64125-52.89548 4.76919-54.13197 56.94554-71.79638 46.05059-12.14618-7.48903-.16695-38.0558 7.63857-53.99359zM35.80729 216.29318c-35.26454 6.06104-43.07453-6.08202-28.39242-15.80075 9.1045-6.0289 44.55831-25.25432 18.66432-27.13763-25.89757-1.88375-6.59759-26.5051 23.81473-49.42616 30.41143-22.92151 96.85251-35.30427 93.94921-15.97395-2.90508 19.32988-81.14416 28.60535-67.05531 49.00566 6.11907 8.86077 36.04572-27.88934 49.33197-6.74401 13.28714 21.14534-68.20565 62.27942-90.31205 66.07683zm229.52307-36.22428c-11.25609 9.52902-34.27624-4.23175-13.57015-23.11569 4.79241-4.37146 17.11134-8.55723 9.75221-12.87156-22.23541-13.03226-90.00405 54.66585-101.21505 32.45499-5.39057-10.67935 21.6377-34.56327 51.13939-49.48375 21.77876-11.0137 13.83799-31.19216-18.48666-11.31099-32.32643 19.88206-38.02991-3.55324-20.12311-18.93394C190.7329 81.42905 305.13465 28.16262 312.92946 56.6287c6.06639 22.13944-57.85037 18.08402-49.89665 32.38803 5.83874 10.49634 50.29126-17.37337 66.02639.72582 15.22848 17.51309-41.77554 29.11691-38.12544 39.61771 2.88232 8.28583 30.15922-3.38941 30.6873 16.89529.40844 15.72174-29.04816 10.75703-56.29025 33.81334zM107.18541 38.54378c-6.84311 35.99751-70.24831 69.55597-94.57505 78.57967-38.27765 14.19197-78.2739 9.46072-55.69566-2.15114 22.57824-11.61453 81.92847-50.07119 51.38089-52.71067-15.0343-1.29899-32.02735-12.4524 0-38.90572C28.62627 6.56241 99.48345-16.64434 103.35318-1.80556c3.87017 14.83834-81.28165 40.64529-54.83324 43.22719 26.44841 2.58011 61.86294-19.7111 58.66547-2.87785zm93.36891 12.92111c-20.66011 10.32716-39.76591 22.83446-61.75982 27.55545-28.68391 6.15567-.39282-32.65408 27.14209-45.24486 12.33232-5.63876-2.43459-13.15368-14.30134-7.39216-32.24697 15.65389-46.27199 3.62778-12.97155-18.51924 8.27913-5.50663 33.85932-18.54379 64.9198-22.52646 31.35509-4.02239 30.54044 7.52117 20.83777 11.84844-13.9536 6.22174-23.51163 19.7111 13.89869 8.31797 66.87452-20.3655 106.48866-16.9743 91.26509 0-14.2192 15.85119-62.15622 12.53454-129.03074 45.96086z" data-paper-data="{&quot;index&quot;:null}" opacity=".1" style="mix-blend-mode:normal;fill-rule:evenodd;stroke:none;stroke-width:1;stroke-linecap:butt;stroke-linejoin:miter;stroke-miterlimit:10;stroke-dasharray:none;stroke-dashoffset:0"/><path fill="#fff" stroke="#000" stroke-opacity=".12941" stroke-width="12.5" d="M191.13809 259.68006V39.72181c0-3.75254 2.72479-6.58687 6.31298-6.58687h205.29266c3.75579 0 5.83985 2.49612 5.83985 5.86667v221.7611c0 4.06979-2.92936 6.32862-6.74205 6.32862H197.58314c-4.13632 0-6.44504-2.6616-6.44504-7.41126z" style="mix-blend-mode:normal;stroke-linejoin:miter;stroke-miterlimit:10;stroke-dasharray:none;stroke-dashoffset:0"/><path fill="#fff" stroke="#fff" stroke-width="2.5" d="M191.13809 259.68006V39.72181c0-3.75254 2.72479-6.58687 6.31298-6.58687h205.29266c3.75579 0 5.83985 2.49612 5.83985 5.86667v221.7611c0 4.06979-2.92936 6.32862-6.74205 6.32862H197.58314c-4.13632 0-6.44504-2.6616-6.44504-7.41126z" style="mix-blend-mode:normal;stroke-linejoin:miter;stroke-miterlimit:10;stroke-dasharray:none;stroke-dashoffset:0"/><path fill="url(#a)" d="M194.31772 152.82271V42.16679c0-3.75254 2.72479-6.58688 6.31298-6.58688h198.54459c3.75579 0 5.83985 2.49612 5.83985 5.86667v112.45877c0 4.06978-2.92936 6.32862-6.74205 6.32862H200.76277c-4.13632 0-6.44504-2.6616-6.44504-7.41126z" style="mix-blend-mode:normal;fill:url(#a);stroke-linejoin:miter;stroke-miterlimit:10;stroke-dasharray:none;stroke-dashoffset:0"/><path fill="url(#b)" d="M194.31772 156.09388V48.43096l210.69742-.40232v108.67003c0 2.27346-2.92936 3.5353-6.74205 3.5353H200.76277c-4.13632 0-6.44504-1.48683-6.44504-4.14008z" style="mix-blend-mode:normal;fill:url(#b);stroke-linejoin:miter;stroke-miterlimit:10;stroke-dasharray:none;stroke-dashoffset:0"/><path fill="#fbbbd6" d="M208.25506 185.89373c0-11.00208 8.91895-19.92103 19.92103-19.92103 11.00208 0 19.92103 8.91895 19.92103 19.92103 0 11.00208-8.91895 19.92103-19.92103 19.92103-11.00208 0-19.92103-8.91895-19.92103-19.92103z" style="mix-blend-mode:normal;stroke-linejoin:miter;stroke-miterlimit:10;stroke-dasharray:none;stroke-dashoffset:0"/><path fill="none" stroke="url(#c)" stroke-linecap="round" stroke-width="15" d="M278.92847 186.34206h101.18544" style="mix-blend-mode:normal;stroke:url(#c);stroke-linejoin:miter;stroke-miterlimit:10;stroke-dasharray:none;stroke-dashoffset:0"/><g fill="none" style="mix-blend-mode:normal;stroke-linejoin:miter;stroke-miterlimit:10;stroke-dasharray:none;stroke-dashoffset:0"><path stroke="#000" stroke-opacity=".12941" stroke-width="12.5" d="M350.2213 186.50872c0-5.37788 4.35963-9.73752 9.73751-9.73752s9.73751 4.35963 9.73751 9.73752c0 5.37788-4.35963 9.73751-9.73751 9.73751s-9.73751-4.35963-9.73751-9.73751z"/><path stroke="#fff" stroke-width="5" d="M350.05463 186.34206c0-5.37788 4.35963-9.73752 9.73751-9.73752s9.73751 4.35963 9.73751 9.73752c0 5.37788-4.35963 9.73751-9.73751 9.73751s-9.73751-4.35963-9.73751-9.73751z"/></g><g fill="none" style="mix-blend-mode:normal;stroke-linejoin:miter;stroke-miterlimit:10;stroke-dasharray:none;stroke-dashoffset:0"><path stroke="#000" stroke-opacity=".12941" stroke-width="10" d="M320.7552 98.9587c0-5.37788 4.35963-9.73752 9.73751-9.73752s9.73751 4.35963 9.73751 9.73752c0 5.37788-4.35963 9.73751-9.73751 9.73751s-9.73751-4.35963-9.73751-9.73751z"/><path stroke="#fff" stroke-width="5" d="M320.7552 98.9587c0-5.37788 4.35963-9.73752 9.73751-9.73752s9.73751 4.35963 9.73751 9.73752c0 5.37788-4.35963 9.73751-9.73751 9.73751s-9.73751-4.35963-9.73751-9.73751z"/></g><g fill="#fff" fill-rule="evenodd" style="mix-blend-mode:normal;stroke-linejoin:miter;stroke-miterlimit:10;stroke-dasharray:none;stroke-dashoffset:0"><path stroke="#000" stroke-opacity=".12941" stroke-width="10" d="M442.50443 193.54699c4.33135-1.16187 7.71406-4.54458 8.87594-8.87592l2.64735-9.84661c1.25748-4.65489 7.86112-4.65489 9.11124 0l2.65468 9.84661c1.16188 4.33135 4.54459 7.71406 8.86857 8.87592l9.84661 2.64734c4.65489 1.25748 4.65489 7.86111 0 9.1186l-9.84661 2.64734c-4.32398 1.16187-7.70667 4.54459-8.86857 8.86857l-2.65468 9.84661c-1.25012 4.65489-7.85377 4.65489-9.11124 0l-2.64735-9.84661c-1.16188-4.32399-4.54459-7.70667-8.87594-8.86857l-9.8466-2.64734c-4.65489-1.25748-4.65489-7.86111 0-9.1186z"/><path d="M442.50443 193.54699c4.33135-1.16187 7.71406-4.54458 8.87594-8.87592l2.64735-9.84661c1.25748-4.65489 7.86112-4.65489 9.11124 0l2.65468 9.84661c1.16188 4.33135 4.54459 7.71406 8.86857 8.87592l9.84661 2.64734c4.65489 1.25748 4.65489 7.86111 0 9.1186l-9.84661 2.64734c-4.32398 1.16187-7.70667 4.54459-8.86857 8.86857l-2.65468 9.84661c-1.25012 4.65489-7.85377 4.65489-9.11124 0l-2.64735-9.84661c-1.16188-4.32399-4.54459-7.70667-8.87594-8.86857l-9.8466-2.64734c-4.65489-1.25748-4.65489-7.86111 0-9.1186z"/></g><g fill="#fff" fill-rule="evenodd" style="mix-blend-mode:normal;stroke-linejoin:miter;stroke-miterlimit:10;stroke-dasharray:none;stroke-dashoffset:0"><path stroke="#000" stroke-opacity=".12941" stroke-width="10" d="M431.46354 82.40646c2.63291-.70627 4.68918-2.76254 5.39546-5.39546l1.60925-5.98551c.76439-2.82958 4.77857-2.82958 5.53849 0l1.61372 5.98551c.70628 2.63292 2.76254 4.68919 5.39098 5.39546l5.98551 1.60925c2.82959.76439 2.82959 4.77857 0 5.54296l-5.98551 1.60925c-2.62845.70627-4.68469 2.76254-5.39098 5.39097l-1.61372 5.98551c-.75992 2.82958-4.77411 2.82958-5.53849 0l-1.60925-5.98551c-.70628-2.62845-2.76254-4.68469-5.39545-5.39097l-5.98551-1.60925c-2.82959-.76439-2.82959-4.77857 0-5.54296z"/><path d="M431.46354 82.40646c2.63291-.70627 4.68918-2.76254 5.39546-5.39546l1.60925-5.98551c.76439-2.82958 4.77857-2.82958 5.53849 0l1.61372 5.98551c.70628 2.63292 2.76254 4.68919 5.39098 5.39546l5.98551 1.60925c2.82959.76439 2.82959 4.77857 0 5.54296l-5.98551 1.60925c-2.62845.70627-4.68469 2.76254-5.39098 5.39097l-1.61372 5.98551c-.75992 2.82958-4.77411 2.82958-5.53849 0l-1.60925-5.98551c-.70628-2.62845-2.76254-4.68469-5.39545-5.39097l-5.98551-1.60925c-2.82959-.76439-2.82959-4.77857 0-5.54296z"/></g><g fill="#fff" fill-rule="evenodd" style="mix-blend-mode:normal;stroke-linejoin:miter;stroke-miterlimit:10;stroke-dasharray:none;stroke-dashoffset:0"><path stroke="#000" stroke-opacity=".12941" stroke-width="10" d="M130.50443 141.04699c4.33135-1.16187 7.71406-4.54458 8.87594-8.87592l2.64735-9.84661c1.25748-4.65489 7.86112-4.65489 9.11124 0l2.65468 9.84661c1.16188 4.33135 4.54459 7.71406 8.86857 8.87592l9.84661 2.64734c4.65489 1.25748 4.65489 7.86111 0 9.1186l-9.84661 2.64734c-4.32398 1.16187-7.70667 4.54459-8.86857 8.86857l-2.65468 9.84661c-1.25012 4.65489-7.85377 4.65489-9.11124 0l-2.64735-9.84661c-1.16188-4.32399-4.54459-7.70667-8.87594-8.86857l-9.8466-2.64734c-4.65489-1.25748-4.65489-7.86111 0-9.1186z"/><path d="M130.50443 141.04699c4.33135-1.16187 7.71406-4.54458 8.87594-8.87592l2.64735-9.84661c1.25748-4.65489 7.86112-4.65489 9.11124 0l2.65468 9.84661c1.16188 4.33135 4.54459 7.71406 8.86857 8.87592l9.84661 2.64734c4.65489 1.25748 4.65489 7.86111 0 9.1186l-9.84661 2.64734c-4.32398 1.16187-7.70667 4.54459-8.86857 8.86857l-2.65468 9.84661c-1.25012 4.65489-7.85377 4.65489-9.11124 0l-2.64735-9.84661c-1.16188-4.32399-4.54459-7.70667-8.87594-8.86857l-9.8466-2.64734c-4.65489-1.25748-4.65489-7.86111 0-9.1186z"/></g></svg>