<svg xmlns="http://www.w3.org/2000/svg" width="600" height="300" viewBox="1125 70 600 300"><g stroke-miterlimit="10" data-paper-data="{&quot;isPaintingLayer&quot;:true}"><path fill="#2f3463" d="M1099.2033 382.99999v-318h325.84246v318z"/><path fill="#1a1e44" d="M1087.25079 271.49068v-40.30912h8.06183v32.24731h16.12365v8.06181zm40.30904 0v-40.30912h24.18548v8.06184h8.06181v24.18548h-8.06181v8.06181zm8.06184-8.06183h15.79614v-24.18548h-15.79614Zm40.30907-8.06184v-24.18548h8.06184v24.18548zm0 16.12367v-8.06181h8.06184v8.06181zm56.43273 0v-40.30912h8.06184v40.30912zm24.18548-24.18548v-16.12364h8.06182v16.12364zm24.18548 24.18548v-40.30912h8.06181v8.06184h8.06182v8.06181h8.06184v8.06182h-8.06184v-8.06182h-8.06182v24.18548zm32.24729 0V247.3052h-8.0618v-8.06181h8.0618v-8.06184h8.06184v40.30912zm56.43271 0v-40.30912h24.18548v8.06184h8.06181v24.18548h-8.06181v8.06181zm8.06181-24.18548h15.79614v-8.06181h-15.79614zm0 16.12365h15.79614v-8.06184h-15.79614zm40.30909 8.06183v-40.30912h24.18545v8.06184h-16.12365v8.06181h16.12365v8.06182h-16.12365v8.06184h16.12365v8.06182zm40.30909 0v-40.30912h8.06181v40.30912zm24.18545 0v-40.30912h8.06184v8.06184h8.0618v8.06181h8.06182v8.06182h8.06184v-24.18548h8.06182v40.30913h-8.06182v-8.06182h-8.06184v-8.06184h-8.06182v-8.06182h-8.0618v24.18548zm64.49464-32.24732v-8.06184h24.18548v8.06184zm-8.06184 24.18549v-24.18548h8.06184v24.18549zm24.18549 0v-8.06184h-8.06184v-8.06182h16.12365v16.12365zm-16.12365 8.06183v-8.06181h16.12365v8.06181zm96.74192-24.18548v-8.06181h-16.12365v-8.06184h16.12365v8.06184h8.06181v8.06181zm-16.12368 24.18548v-8.06181h-8.06183v-24.18548h8.06183v24.18548h16.12364v8.06181zm16.12368-8.06183v-8.06184h8.06181v8.06184zm32.24729 8.06183v-8.06181h-8.06182v-24.18548h8.06182v-8.06184h16.12365v8.06184h8.06187v24.18548h-8.06187v8.06181zm0-8.38934h16.12365v-23.53046h-16.12365zm40.30912 8.38934v-40.30912h8.06184v8.06184h8.06184v8.06181h8.06181v8.06182h-8.06181v-8.06182h-8.06184v24.18548zm32.24732 0V247.3052h-8.06182v-8.06181h8.06182v-8.06184zM1088.34574 203.32817v-40.30913h24.18548v8.06184h8.06182v8.06181h-8.06182v8.06181h-16.12364v16.12365zm8.06181-24.18548h15.79614v-8.06181h-15.79614zm40.30915 24.18548v-40.30913h24.18549v8.06184h8.06181v8.06181h-8.0618v16.12364h8.06181v8.06182h-8.0618v-8.06182h-8.06186v-8.06184h-8.06183v16.12365zm8.0618-24.18548h15.79616v-8.06181h-15.79616Zm40.30914 24.18548v-40.30913h24.18547v8.06184h-16.12363v8.06181h16.12363v8.06181h-16.12363v8.06184h16.12363v8.06182zm48.37096-32.2473v-8.06184h24.18547v8.06184zm16.12366 24.18547v-8.06184h-16.12366v-8.06181h-8.06183v-8.06181h8.06183v8.06181h16.12366v8.06181h8.06181v8.06184zm-24.18549 8.06183v-8.06181h24.1855v8.06181zm56.43278-32.2473v-8.06184h24.18545v8.06184zm16.12365 24.18547v-8.06184h-16.12361v-8.06181h-8.06184v-8.06181h8.06184v8.06181h16.12362v8.06181h8.06184v8.06184zm-24.18548 8.06183v-8.06181h24.18548v8.06181zm48.37096 0v-40.30913h24.18547v8.06184h-16.12365v8.06181h16.12365v8.06181h-16.12365v8.06184h16.12365v8.06182zm40.30913 0v-40.30913h24.18549v8.06184h8.06182v24.18549h-8.06182v8.06181zm8.06184-8.06183h15.79616v-24.18547h-15.79615zm40.30912-8.06182v-24.18548h8.06184v24.18549zm0 16.12365v-8.06181h8.06184v8.06181zm24.18549-16.12365v-24.18548h8.0618v24.18549zm0 16.12365v-8.06181h8.0618v8.06181zm24.18545-16.12365v-24.18548h8.06184v24.18549zm0 16.12365v-8.06181h8.06184v8.06181z"/><path fill="#2f3463" d="M1414.86395 383.47565v-318h325.84246v318z"/><path fill="#1a1e44" d="M1295.59363 332.00788v-46.62379h46.6238v46.62379zM1388.30531 332.00788v-46.62379h46.6238v46.62379zM1434.92911 378.09577v-46.62379h46.62379v46.62379z"/><path fill="#1a1e44" d="M1342.21742 378.09577v-46.62379h46.6238v46.62379zM1574.49562 332.00788v-46.62379h46.62379v46.62379zM1621.11941 378.09577v-46.62379h46.62379v46.62379zM1481.78393 332.00788v-46.62379h46.62379v46.62379z"/><path fill="#1a1e44" d="M1528.40773 378.09577v-46.62379h46.6238v46.62379zM1666.67139 332.00788v-46.62379h46.62379v46.62379zM1152.47649 104.78387V58.16008h46.6238v46.62379zM1199.10029 150.87176v-46.62379h46.6238v46.62379zM1059.76481 104.78387V58.16008h46.6238v46.62379z"/><path fill="#1a1e44" d="M1106.3886 150.87176v-46.62379h46.6238v46.62379zM1244.65226 104.78387V58.16008h46.6238v46.62379zM1337.36395 104.78387V58.16008h46.62379v46.62379zM1383.98774 150.87176v-46.62379h46.6238v46.62379z"/><path fill="#1a1e44" d="M1291.27606 150.87176v-46.62379h46.6238v46.62379zM1523.55426 104.78387V58.16008h46.6238v46.62379z"/><path fill="#1a1e44" d="M1570.17805 150.87176v-46.62379h46.62379v46.62379zM1430.84257 104.78387V58.16008h46.6238v46.62379zM1477.46637 150.87176v-46.62379h46.62379v46.62379zM1708.44172 104.78387V58.16008h46.62379v46.62379z"/><path fill="#1a1e44" d="M1755.06551 150.87176v-46.62379h46.62379v46.62379z"/><path fill="#2f3463" d="m1419.83711 154.52507-45.29717-99.82689 101.26948-1.15407-53.08714 100.69245z"/><path fill="#1a1e44" d="M1615.73003 104.78387V58.16008h46.62379v46.62379zM1662.35383 150.87176v-46.62379h46.62379v46.62379z"/><path fill="#fff" fill-rule="evenodd" stroke="#1a1e44" stroke-width="20" d="M1436.43522 220.64882c-.26869-3.60966-.07846-6.64483-.79964-9.44518-1.05275-4.08417-2.3312-8.2339-4.33943-11.9032-1.34616-2.4591-2.36291-4.60705-2.30971-7.46758.15638-8.39834-.03332-16.80313.10694-25.20147.04406-2.64289-.91303-3.44468-3.43768-3.38556-11.56572.27138-9.44518-1.6197-9.61876 9.48709-.10694 6.79369.10103 13.59383-.12091 20.38215-.04568 1.41495-1.22687 2.87827-2.11195 4.16424-2.77616 4.03365-5.71677 7.95392-8.47089 12.00208-.94473 1.38861-1.52618 3.0239-2.36344 4.7328-2.4634-5.9731-1.75512-13.63306 2.54078-18.07406 5.73772-5.93225 5.598-11.93868 2.38924-18.92637-1.76748-3.84879-2.92233-8.12588-3.5269-12.32828-.94151-6.54703 2.15386-11.10356 8.73582-11.85322 6.77327-.77115 13.80933-.96623 20.52671.00376 6.61259.95494 9.13565 5.94139 7.40256 12.41749-1.04147 3.89232-2.51177 7.73305-4.28677 11.35238-3.43554 7.00113-3.59407 13.09459 2.22909 19.26116 5.66893 6.00266 5.12402 18.07191-.24344 23.12661-.50945.47828-1.14087.82811-2.30164 1.65516z"/><path fill="#fff" fill-rule="evenodd" stroke="#1a1e44" stroke-width="20" d="M1416.02297 199.7094c0 2.68373.0618 5.36961-.02042 8.05119-.06126 2.00877.63735 2.9261 2.78745 2.83581 3.18995-.1322 6.39011-.03332 10.10563-.03332v-9.13349c.50784-.10801 1.01621-.21711 1.52404-.32512.97859 3.12063 2.60151 6.19558 2.82614 9.36994 1.04737 14.76857-.54976 29.24373-5.6023 43.27983-2.37258 6.58948-6.95921 9.96376-13.76042 10.43505-6.719.46377-12.07355-2.23662-15.74017-7.82279-3.05561-4.65595-1.70729-9.88584-.84854-14.78254 2.13774-12.18695 6.00266-23.85423 12.07947-34.68588 1.52995-2.72564 3.59783-5.15035 5.41904-7.7137.40949.17572.81952.34984 1.23008.52503zm-16.78917 45.26549c-.04998 8.30107 5.64744 14.54125 13.36491 14.63637 7.65298.09458 13.98721-6.45191 14.09791-14.57135.10856-7.95177-5.99245-14.55254-13.52989-14.63852-7.80667-.08813-13.88295 6.26813-13.93293 14.5735z"/><path fill="#fff" fill-rule="evenodd" stroke="#1a1e44" stroke-width="20" d="M1418.01186 208.74831v-43.40289h9.19959v43.40289h-9.19959zM1418.73948 356.32276h18.67379v8.94863h-7.48424c-.29127 2.70254-.53793 4.9843-.78406 7.26606h-18.64638c.19131-3.47746.35467-6.44009.5218-9.47259h7.71962c-.00054-2.0711-.00054-4.09707-.00054-6.7421zM1417.75928 319.14877h18.81512c.13435 2.86751.2687 5.76137.41379 8.87017-2.09582.19508-3.76174.35037-5.66034.52664-.16821 2.32798-.33318 4.60437-.4858 6.70879h-18.80599c.15584-3.3431.28482-6.11066.424-9.10232 1.83895-.09458 3.38825-.17412 5.29921-.27192v-6.73136zM1436.99355 337.81772v8.94056c-2.08669.09673-4.12393.19078-6.38527.29611-.16552 2.43599-.3192 4.71292-.46484 6.85926h-18.79309c.19615-3.35117.36542-6.22836.54652-9.31621h6.64699v-6.77918c6.26758-.00054 12.23047-.00054 18.44969-.00054zM1436.11708 300.6319v8.67617c-1.28866.21388-2.69555.44818-4.40821.73139-.1897 2.2334-.38154 4.49957-.57017 6.72061h-18.22291V307.726c1.35315-.13327 2.65041-.26225 4.37274-.4326v-6.6615h18.82855zM1435.6646 282.03603v8.71271c-1.20053.21926-2.27155.4154-3.65587.66959-.11769 2.09367-.24021 4.26957-.37832 6.71524h-18.53729V289.272c1.2849-.21818 2.45963-.41755 3.92241-.66529v-6.57067h18.64907zM1431.79055 272.96327v6.34067h-18.70065v-8.35804c.92915-.23323 2.05498-.51536 3.15341-.7905.539-3.35439 4.4727-6.52124 8.85405-6.90923 2.57142-.22893 5.17776-.09243 7.76798-.08598.71473.00215 1.42946.12575 2.40966.21818v8.50581c-.85714.26601-1.97008.60995-3.48444 1.07909zM1389.08949 99.277c-1.16667-2.95565-2.14849-5.44108-3.28507-8.31881 5.7705-2.41342 11.34915-4.7457 17.24111-7.20963 1.23654 3.12332 2.35055 5.93763 3.62631 9.15929-5.8898 2.13398-11.58184 4.19594-17.58234 6.36915zM1412.72823 111.10819c-6.21062 1.82337-11.9607 3.51185-17.97679 5.27825-.91195-2.90782-1.74544-5.56683-2.70415-8.62405 5.8237-1.96094 11.49102-3.87029 17.64898-5.94354 1.01191 3.1002 1.94482 5.95966 3.03196 9.28933zM1443.59971 76.19983c5.48407 3.47799 10.53984 6.68353 15.81218 10.02718-1.39829 2.48006-2.69824 4.78761-4.21422 7.47779-5.50826-2.86698-10.89076-5.6684-16.57957-8.62942 1.68149-2.99541 3.21467-5.72805 4.98161-8.87555zM1430.72706 103.31979c1.2849-3.23993 2.44459-6.16656 3.72089-9.38392 5.74847 2.56336 11.19923 4.9929 17.02239 7.58849-1.05383 2.73425-2.04155 5.30028-3.13729 8.14738-5.88927-2.12485-11.57916-4.17713-17.60599-6.35195zM1425.04576 121.92157c.95118-3.35439 1.775-6.25845 2.68158-9.45539 6.02092 1.86904 11.7033 3.63276 17.7613 5.51309-.79534 2.95565-1.53426 5.70226-2.33121 8.66059-6.10637-1.59067-11.86612-3.09107-18.11167-4.71829zM1441.13631 135.16986c-.51428 3.06582-.95709 5.70601-1.48212 8.83471-6.09831-1.00707-11.98059-1.97813-18.33846-3.02766.50891-3.21252.97859-6.17785 1.52888-9.64402 6.15205 1.29081 11.97091 2.51123 18.2917 3.83697zM1399.27949 133.82853c-.77922-3.08033-1.43375-5.67108-2.22479-8.79923 5.9473-1.55844 11.78551-3.08838 18.07567-4.7371.82221 3.26573 1.54822 6.14829 2.37312 9.42261-6.2246 1.40474-12.02573 2.71489-18.224 4.11372zM1449.22833 68.01914c2.23769-2.75681 4.15134-5.11381 6.30574-7.76852 4.78385 4.06644 9.33717 7.93565 14.1538 12.02895-1.76748 2.27746-3.46241 4.46142-5.39809 6.95599-4.95904-3.69187-9.81114-7.30636-15.06144-11.21642zM1382.23615 82.97579c-1.42677-2.86805-2.62139-5.26965-3.97186-7.98347 5.4341-2.95618 10.69945-5.82048 16.35978-8.90026 1.50416 2.9148 2.89063 5.60069 4.52591 8.77022-5.67645 2.72296-11.1385 5.34327-16.91383 8.11352zM1389.84023 57.5728c-5.45236 3.39899-10.5436 6.57283-15.88634 9.90357-1.65517-2.45265-3.20929-4.75537-4.92518-7.29884 4.96119-3.5355 9.8493-7.0194 15.19472-10.82842 1.82175 2.66599 3.57956 5.2401 5.6168 8.22369zM1469.69218 46.05007c4.23302 4.92626 8.08074 9.4038 12.18264 14.17744-2.04262 1.93945-3.97186 3.77087-6.01824 5.71354-4.19111-4.60812-8.30644-9.13134-12.60772-13.85984 1.47568-1.38163 3.78269-3.5414 6.44331-6.03113zM1402.91493 151.75212c-.57501-3.22434-1.08123-6.06123-1.63958-9.19314 6.20901-1.21773 12.04131-2.36183 18.217-3.57257.62015 3.1577 1.15431 5.87798 1.75995 8.96045-5.99352 1.24352-11.89138 2.46716-18.33738 3.80526zM1437.80449 374.97129v9.0287h-18.19605v-9.0287h18.19605zM1434.69139 253.53015c-1.05705.22786-2.11893.45678-3.36084.7244v6.5035c-1.48642.07953-2.78422.14993-4.29214.23108 1.28114-3.01315 2.54024-5.77265 3.63061-8.59717 1.02588-2.65525 1.8755-5.37928 2.80088-8.07322.40734.11231.81468.22463 1.22149.33587v8.87555zM1412.30584 233.68055c6.71524-.43367 10.02126 2.05176 11.34485 8.70412h-11.34485v-8.70412zM1412.85237 257.09358v-4.88273c1.04899-.14187 2.0969-.28213 3.45811-.46592v-6.84206h7.50842c.2386 6.95652-4.1234 11.88654-10.96653 12.19071z"/><path fill="#1a1e44" d="M1422.33091 223.24928c-6.89045 0-12.60806 2.27239-17.15283 6.81715-4.54477 4.54476-6.81715 10.26237-6.81715 17.15283 0 6.89046 2.27238 12.60807 6.81715 17.15283 4.54477 4.54476 10.26238 6.81715 17.15283 6.81715 6.89045 0 12.60806-2.27239 17.15283-6.81715 4.54477-4.54476 6.81715-10.26237 6.81715-17.15283 0-6.89046-2.27238-12.60807-6.81715-17.15283-4.54477-4.54476-10.26238-6.81715-17.15283-6.81715zm0-1.75926c7.47688 0 13.63431 2.41899 18.47228 7.25697 4.83797 4.83798 7.25696 10.9954 7.25696 18.47227 0 7.47688-2.41899 13.63431-7.25696 18.47228-4.83797 4.83798-10.99541 7.25696-18.47228 7.25696-7.47688 0-13.6343-2.41899-18.47227-7.25696-4.83798-4.83797-7.25697-10.99541-7.25697-18.47228 0-7.47688 2.41899-13.6343 7.25697-18.47227 4.83798-4.83797 10.9954-7.25697 18.47227-7.25697zm16.4931 21.11117v5.27779h-13.85421v20.45145h-5.7176v-20.45145h-13.85421v-5.27779zm0-10.11577v5.27779h-33.42602v-5.27779zm19.35191 1.97918c1.02624.14659 1.09954.58641.21991 1.31945.14661 4.54476-.21991 9.38273-1.09954 14.51394l-4.17826-1.31945c1.02624-4.98458 1.53936-9.82255 1.53936-14.51393zm9.45605 5.71761c-1.02624-2.4923-2.05247-4.69139-3.07871-6.59725v39.14363h-4.39816v-50.57885h4.17825c1.17284.14659 1.24615.58641.21991 1.31945v9.23614l2.85881-2.19908c1.61266 2.19908 2.78551 4.32485 3.51853 6.37734zm20.01163-18.03247c1.02624.29322.95294.65972-.2199 1.09954l-1.75927 3.51853h14.07412v20.89127h-28.36814v-20.89127h10.11577l1.53936-5.05788zm-11.87503 8.79633v4.17825h19.57182v-4.17825zm0 8.3565v4.17826h19.57182v-4.17826zm12.09494 27.92833h16.2732v4.17826h-36.72465v-4.17826h16.05329v-4.61807h-12.09494v-3.51853h12.09494v-3.95834h-14.73384v-4.17825h33.86584v4.17825h-14.73384v3.95834h12.09494v3.51853h-12.09494zM1538.68429 262.96468c-1.1875 1.37808-2.52161 2.48497-4.00232 3.32062-1.46606.83565-2.93944 1.25348-4.42015 1.25348-1.64198 0-3.23264-.47646-4.772-1.42939-1.53936-.95294-2.79282-2.41899-3.76042-4.39816-.95293-1.97917-1.42939-4.15626-1.42939-6.53126 0-2.90278.74768-5.8129 2.24306-8.73034 1.49538-2.93212 3.34994-5.1312 5.56368-6.59725 2.21375-1.46605 4.36885-2.19908 6.4653-2.19908 1.59801 0 3.11537.41784 4.55211 1.25349 1.45139.83565 2.69754 2.10379 3.73843 3.80442l.94561-4.26622h4.92595l-3.95835 18.4503c-.5571 2.56558-.83565 3.98767-.83565 4.26621 0 .4838.18326.90896.54978 1.27546.38117.35186.84298.52778 1.38542.52778.9676 0 2.23573-.55711 3.80442-1.6713 2.09645-1.46605 3.7531-3.43056 4.96992-5.89353 1.21682-2.46297 1.82524-5.00657 1.82524-7.63081 0-3.06406-.78433-5.92287-2.35301-8.57641-1.56867-2.65355-3.90703-4.77934-7.01506-6.37733-3.09338-1.59799-6.52394-2.39699-10.2917-2.39699-4.28088 0-8.19525 1.00424-11.74309 3.01275-3.54784 2.00851-6.29671 4.88929-8.24655 8.64239-1.94986 3.73844-2.92477 7.75542-2.92477 12.05096 0 4.48612.97493 8.3565 2.92479 11.61114 1.94986 3.23999 4.77201 5.62965 8.46647 7.169 3.69446 1.55401 7.78474 2.33103 12.27087 2.33103 4.80866 0 8.83297-.80632 12.07296-2.41899 3.23998-1.61267 5.66629-3.57716 7.27896-5.89353h4.96992c-.92361 1.93519-2.52161 3.89971-4.79399 5.89353-2.27238 1.99382-4.97726 3.56984-8.1146 4.72803-3.13736 1.17285-6.91245 1.75926-11.32526 1.75926-4.07563 0-7.82873-.52778-11.25929-1.58334-3.43057-1.04091-6.35534-2.60957-8.77433-4.70603-2.41899-2.09646-4.24421-4.50811-5.4757-7.23497-1.53936-3.47455-2.30903-7.21298-2.30903-11.21531 0-4.47147.91628-8.73769 2.74886-12.79865 2.22839-4.95527 5.4024-8.75234 9.52202-11.39124 4.1196-2.63889 9.11153-3.95835 14.97575-3.95835 4.54477 0 8.6204.93094 12.22689 2.79284 3.62116 1.84723 6.47996 4.61807 8.57641 8.31253 1.77393 3.16667 2.66089 6.6119 2.66089 10.33568 0 5.30713-1.86921 10.02048-5.60765 14.1401-3.32794 3.7091-6.97108 5.56368-10.92943 5.56368-1.27546 0-2.30171-.19058-3.07871-.57176-.777-.39584-1.34877-.94559-1.71528-1.6493-.23458-.46914-.4105-1.26082-.52778-2.37501zm-13.30443-7.45489c0 2.5216.59376 4.47879 1.78126 5.87155 1.20217 1.39276 2.57293 2.08913 4.11229 2.08913 1.02624 0 2.10379-.30787 3.23266-.92361 1.14352-.61575 2.2284-1.52471 3.25464-2.72686 1.04089-1.21684 1.89121-2.75619 2.55093-4.61807.65972-1.86188.9896-3.72378.9896-5.58567 0-2.4923-.62308-4.42749-1.86921-5.80557-1.23149-1.37808-2.73419-2.06714-4.50811-2.06714-1.17284 0-2.27971.30054-3.32061.90163-1.02624.58641-2.03049 1.53936-3.01273 2.85881-.9676 1.31945-1.7446 2.92478-2.33103 4.81599-.58643 1.89121-.87963 3.62115-.87963 5.18983zM1612.08408 241.28175l5.2778 1.53936-12.09494 9.23614 3.95834 14.73384-5.05788-.43982-9.89586-6.59724-11.43522 7.69679-6.15742-1.09954 4.17825-15.61347-12.09494-9.45604h15.61347l5.93752-15.61347 5.4977 1.53936 5.27779 14.07412zm-14.07411 8.79632 9.67595-7.25697h-12.53476l-4.83798-12.97458-4.61807 12.97458h-12.53476l9.67595 7.25697-3.29862 12.53476 10.7755-7.47687 10.99541 7.47687zM1625.4765 267.45081v-40.30914h5.32178v40.30916zM1667.96823 246.11972c2.19908 1.90586 4.17825 3.22531 5.93752 3.95835l4.17825-3.95835zm-13.85421 17.15283c1.46606 1.02623 2.78551 2.41899 3.95835 4.17826l-3.95835 2.19908c-1.31945-1.75926-2.7855-3.44521-4.39816-5.05788l3.07871-1.31945h-12.97458v-3.51853h30.56723v-3.73844h4.17825c1.31945.29322 1.39276.73304.21991 1.31945v2.41898h12.53476v3.51853h-12.53476v5.4977c0 2.34568-.95294 3.51853-2.8588 3.51853h-4.39816l-1.09954-4.17825h3.07871c.58641 0 .87964-.29322.87964-.87963v-3.95835zm27.0487-15.17365c.87963.87963.65972 1.24613-.65972 1.09954l-3.29862 2.41899c2.19908.73304 6.01083 1.46605 11.43522 2.19908l-1.31945 3.95834c-10.99541-1.61267-18.83879-5.4977-23.53017-11.65513h-4.39816v6.15742l8.3565-.43981v3.07871l-17.15283 1.31945c-.87963 1.31945-1.46606 1.17285-1.75927-.43982l-.65972-3.07871 7.47688-.21991v-6.37733h-7.91669c-.58642 5.27779-2.85881 8.94292-6.81715 10.99541l-1.97917-3.73844c3.51853-1.90586 5.27779-5.57102 5.27779-10.99541v-9.01623h9.23613v-3.73844h-13.19448v-3.51853h13.19448v-4.17825h4.17826c1.17284.14659 1.24615.58641.21991 1.31945v2.8588h11.87504v-4.17825h4.17825c1.17285.14659 1.24614.58641.21991 1.31945v2.8588h13.6343v3.51853h-13.6343v3.73844h10.77549v2.6389h-36.94456v7.47688h38.70382v2.63889h-7.69678zm-.43982-9.67596v2.6389h-29.9075v-2.6389zm-10.9954-5.05789v-3.73844h-11.87504v3.73844zm42.66216-7.91668v42.88207h-4.39816v-35.4052h-5.93752v-2.63889c4.39816 0 6.74384-1.61266 7.03706-4.83797zm-12.31485 47.50014c-4.25157-8.64972-6.37733-17.22614-6.37733-25.72924v-.2199c0-8.50311 2.12577-17.07952 6.37733-25.72925l1.97917 1.31945c-3.51853 8.06329-5.27779 16.19988-5.27779 24.4098v.2199c0 8.20991 1.75926 16.34651 5.27779 24.4098zm38.0441-1.09954c3.51853-8.06329 5.27779-16.19988 5.27779-24.4098v-.21991c0-8.20991-1.75926-16.34651-5.27779-24.4098l1.97917-1.31945c4.25157 8.64972 6.37734 17.22614 6.37734 25.72924v.21991c0 8.50311-2.12577 17.07952-6.37734 25.72925zm-6.81715-3.51853v-10.9954h-10.55559v-3.95835l9.89587-27.92832h5.05788v27.70842h4.39816v4.17826h-4.39816v10.9954zm0-15.17366v-18.03246l-6.37734 18.03246zM1685.01544 193.54896c-.1466 2.34568-.21991 4.54476-.21991 6.59725v7.25697c0 1.90586.1466 4.32485.43982 7.25697h-4.61807v-4.83797H1662.145v5.4977h-4.39816c.1466-2.63889.21991-5.05788.21991-7.25696v-8.35651c0-1.90586-.07331-3.95835-.21991-6.15743zm-15.83338-20.45145c0-2.93211-.07331-5.71761-.21991-8.3565h4.61807c-.1466 2.4923-.21991 5.27779-.21991 8.3565h7.25697c2.6389 0 5.79092-.07331 9.45605-.2199v3.95834c-3.66512-.1466-6.74384-.21991-9.23614-.21991h-7.47688v7.69679h5.27779c2.78549 0 5.71761-.07331 8.79633-.21991v3.95834c-3.37194-.1466-6.37733-.21991-9.01623-.21991h-13.85421c-2.93211 0-6.01083.07331-9.23614.21991v-3.95834c3.37194.1466 6.52394.21991 9.45605.21991h4.39816v-7.69679h-5.71761c-4.69138 0-8.06328.07331-10.11577.21991v-3.95834c2.34568.1466 5.57101.2199 9.67595.2199zm11.43522 33.20612v-9.23614H1662.145v9.23614zm-29.9075-9.01623c-.87963 1.46604-2.05248 4.0683-3.51853 7.80674-1.46605 3.73844-2.78549 7.07371-3.95835 10.00583-1.61267-1.17285-3.44521-2.12577-5.4977-2.85881 1.90586-2.19908 3.70179-5.1312 5.38775-8.79632 1.68595-3.66513 2.82216-6.67055 3.40858-9.01623 1.31945 1.17285 2.71221 2.12577 4.17825 2.85881zm-6.81715-31.66677c2.6389 1.90586 5.3511 4.32486 8.1366 7.25697-1.31945 1.02623-2.56558 2.19907-3.73843 3.51852-2.19908-2.78549-4.91129-5.27779-8.1366-7.47687 1.46605-.87963 2.7122-1.97917 3.73843-3.29863zm-3.07871 14.51394c2.93211 1.61267 5.93751 3.73844 9.01623 6.37734-1.31945 1.02623-2.41899 2.19907-3.29862 3.51852-2.6389-2.6389-5.4977-4.83797-8.57641-6.59724.87963-.87963 1.83257-1.97917 2.8588-3.29862zM1699.08956 210.26197v-35.18529h28.14819v35.18529zm.87963-.87964h26.38892v-33.42602h-26.38892zm74.7907-16.18522h-41.1228V159.0234h41.1228zM1438.41131 185.32027c-3.3426 1.01157-7.27162 2.00117-11.78707 2.96876-4.51545.95293-7.169 1.53202-7.96067 1.73727 0 7.24231.29321 11.38391.87963 12.42481 1.24615 1.92054 4.7207 2.44831 10.42365 1.58334 1.46605-.21991 2.57292-.50579 3.32061-.85764.76234-.35186 1.51737-.54977 2.26506-.59375.80633-.08796 1.72262.16859 2.74885.76968.79167.38118 1.26813.93095 1.4294 1.64932 0 .30787-.20524.62308-.61574.94561-.39583.32253-1.09221.65239-2.08913.98958-.98226.3372-2.30903.55711-3.98033.65973-1.6713.08796-3.77509.05132-6.31136-.10995-5.01391-.35186-8.18058-1.40741-9.50003-3.16668-.77701-1.48072-1.16551-5.4977-1.16551-12.05096-.04398-.76234-.06598-1.29012-.06598-1.58333-4.09029 1.01157-7.60148 2.25772-10.53359 3.73843-.6304.32253-1.15085.46914-1.56134.43981-1.7446-.4838-2.91744-.93094-3.51853-1.34144-.60109-.41049-.93095-.82832-.98959-1.25348 0-.30787.13194-.52044.39583-.63773.26389-.11728.66706-.20525 1.2095-.26389.5571-.05864 1.598-.23457 3.1227-.52778 1.53936-.30787 3.23264-.71836 5.07988-1.23148 1.8179-.49846 4.10495-1.05556 6.86113-1.67131.08796-1.84723.20524-3.37192.35185-4.57408-.04398-1.56868-.08063-4.28821-.10995-8.15859.01466-1.01157-.10262-2.12578-.35186-3.34261-.24923-1.23149-.71836-2.16243-1.40741-2.79283-.38117-.38117-.43982-.75502-.17593-1.12153.70371-1.1142 2.55094-.64507 5.54169 1.40741 1.0409.74769 1.26081 1.64198.65972 2.68288-.95294 1.72994-1.56868 6.82448-1.84723 15.28361 1.05556-.29322 3.05672-.75502 6.00349-1.38542 2.96143-.64507 5.3291-1.21683 7.10303-1.71528.64506-.17593 1.72261-.41783 3.23265-.7257 1.5247-.30787 2.75619-.60841 3.69446-.90163.93827-.29322 1.53202-.6304 1.78125-1.01157.43982-.61575 1.12153-.76234 2.04515-.43981 1.1142.42516 2.03781.82831 2.77084 1.20949.74768.38117 1.27547.7257 1.58334 1.03357.30787.30787.50579.56443.59375.76968.10262.19058.15393.40317.15393.63773-.07331.6304-.57176 1.31211-1.49537 2.04514-.17593.10262-.41049.22724-.70371.37385-.29321.13195-.51312.25656-.65972.37385-.14661.10262-.35186.30787-.61575.61574-.24923.29322-.50579.69638-.76968 1.2095-.64506.80633-1.2828 1.64198-1.9132 2.50695-.6304.86498-1.38542 1.77393-2.26506 2.72686-.87963.93827-1.70063 1.6493-2.46297 2.13311-.65972.29322-1.25347.14661-1.78125-.43981-.16127-.29322.05864-.79167.65972-1.49538.45448-.61575 1.23149-1.78859 2.33103-3.51853 1.09954-1.74461 1.64198-2.60225 1.62732-2.57292.4838-.73303.74769-1.24614.79167-1.53936.05864-.30787-.02933-.82832-.26389-1.56135-.08796-.16127-.27855-.27855-.57177-.35186-.27855-.08796-.67438-.08063-1.1875.02199zM1482.2225 200.14208c1.17284.1466 1.24614.58642.21991 1.31945v7.91669h11.87503v-6.81715h4.17825c1.17284.1466 1.24615.58641.21991 1.31945v11.87503h-4.39817v-2.19908h-28.14823v2.8588h-4.39816v-13.85421h4.17825c1.17284.1466 1.24614.58641.21991 1.31945v5.4977h11.87504v-9.23614zm-17.81255-6.59724c-.87963 2.6389-1.68596 4.91128-2.41899 6.81715l-4.61807-1.31945c.87963-1.75926 1.83257-3.81174 2.8588-6.15743zm2.8588-9.23614h37.16447v2.63889h-37.16447v2.41899h36.06492l-.65972 6.59724c-.29321 3.22531-1.75927 4.83798-4.39817 4.83798h-2.63889l-.65973-4.17826h1.97917c.87963 0 1.39275-.65972 1.53936-1.97917l.21991-2.6389h-35.84501v-22.21071h12.09494l1.31945-4.39816 4.17826.21991c1.61266.1466 1.68595.51312.2199 1.09954l-1.53936 3.07871h16.49311v12.31485h-28.36814zm23.96998-9.67596v-2.19908h-23.96998v2.19908zm-23.96998 4.83798h23.96998v-2.19908h-23.96998zm4.83798 13.6343c.58642 1.61266 1.02624 3.29862 1.31945 5.05788l-4.39816.87964c-.14661-1.90587-.43982-3.66513-.87964-5.27779zm17.59264 5.4977c-.29321-1.17284-1.09954-2.6389-2.41899-4.39816l3.95835-1.09954c1.17284 1.46605 2.05248 2.93212 2.63889 4.39817zm-8.3565-5.27779c.58642 1.31945 1.17285 2.85881 1.75927 4.61807l-3.95835.87963c-.58642-1.61266-1.17284-3.15202-1.75926-4.61807zm44.86126 23.31025v-4.17826h2.41899v6.59725h-16.93292v-6.59725h2.41899v4.17826zM1565.45772 176.1721c.29321.29322.43982.62307.43982.98958s-.14661.69638-.43982.98959c-.32253.29322-.74036.43981-1.25348.43981h-18.25237c-1.09954 0-1.64931-.47647-1.64931-1.42941-.04398-.92361.50579-1.38542 1.64931-1.38542h18.1864c.5571 0 .99692.13195 1.31945.39584zm-17.26278 3.62848c.29321-.29322.65972-.43982 1.09954-.43982.4105 0 .76235.10995 1.05556.32986.36651.29322.54977.67438.54977 1.14352.07331 2.7855.23456 6.03282.48379 9.74193.26389 4.47146.54244 7.91669.83565 10.33568.98226 0 2.02316-.03665 3.1227-.10995 1.02623-.07331 2.03782-.1686 3.03474-.28588.21991-3.10804.43981-6.49462.65972-10.15976.21991-4.10495.34452-7.27896.37384-9.52202 0-.51312.1686-.89429.50579-1.14352.29321-.26389.65972-.39584 1.09954-.39584s.80633.1466 1.09954.43982c.36651.29322.54977.69637.54977 1.20949-.04398 1.90587-.19058 4.96993-.43981 9.19216-.26389 3.98767-.50579 7.2643-.7257 9.82989.5571-.10262 1.38542-.30054 2.48496-.59376.65972-.19058 1.48071-.41049 2.46297-.65972.5571-.19058 1.05556-.17593 1.49538.04398.36651.19058.58642.4838.65972.87963.07331.41049 0 .799-.21991 1.16551-.26389.39584-.66706.66706-1.2095.81366-3.15202.87963-6.7072 1.52469-10.66554 1.93519-3.78242.32253-7.7994.41049-12.05096.26389-.54244 0-.96026-.18326-1.25348-.54977-.26389-.29322-.39583-.65972-.39583-1.09954 0-.43981.13194-.80633.39583-1.09954.29321-.32253.71104-.46915 1.25348-.43982.80633.07331 1.598.13195 2.37501.17593.83565.02933 1.58334.04398 2.24306.04398-.32253-2.44831-.61574-5.79824-.87963-10.0498-.24923-3.59184-.41049-6.7805-.4838-9.566v-.2199c0-.51312.16127-.91628.4838-1.2095zm30.41329 9.50003c.51312 0 .91628.14661 1.2095.43982.29321.26389.43981.61574.43981 1.05555 0 .36651-.13194.69637-.39583.98959-.24923.32253-.61574.4838-1.09954.4838h-5.32178v13.59032c0 .58642-.18326 1.0409-.54977 1.36343-.3372.3372-.7257.50579-1.16551.50579-.43982 0-.82099-.16859-1.14352-.50579-.3372-.36651-.50579-.84298-.50579-1.42941v-29.84153c0-.51312.16859-.91627.50579-1.20949.32253-.29322.70371-.43982 1.14352-.43982.43982 0 .82832.12462 1.16551.37385.36651.29322.54977.69637.54977 1.20949v13.41439zm1.20949-12.09494c2.12577 4.36884 3.20333 8.97225 3.23265 13.81023 0 4.9406-1.09955 9.55867-3.29863 13.85421-1.71528 3.29862-4.02432 6.36267-6.9271 9.19215-.65972.58642-.74768 1.1142-.26389 1.58334.46914.51312.98225.51312 1.53936 0 3.40124-3.44522 5.96684-6.83914 7.69678-10.18174 2.27238-4.35418 3.40858-9.11886 3.40858-14.29403 0-5.0139-1.08488-9.81524-3.25464-14.40398-1.83257-3.88504-4.22956-7.23497-7.19099-10.0498-.65972-.6304-1.23149-.66706-1.71529-.10995-.46914.51312-.32253 1.07755.43982 1.69329 2.56559 2.46297 4.67671 5.43173 6.33336 8.90628zm-38.65984 0c-2.12577 4.36884-3.18867 8.97225-3.18867 13.81023 0 4.9406 1.09954 9.55867 3.29862 13.85421 1.68596 3.29862 3.99499 6.36267 6.9271 9.19215.6304.58642.7037 1.1142.2199 1.58334-.46914.51312-.96026.51312-1.47338 0-3.44522-3.44522-6.03282-6.83914-7.76276-10.18174-2.22841-4.35418-3.3426-9.11886-3.3426-14.29403 0-5.0139 1.07755-9.81524 3.23265-14.40398 1.80325-3.88504 4.20758-7.23497 7.21299-10.0498.61575-.6304 1.16551-.66706 1.64931-.10995.46914.51312.3372 1.07755-.39583 1.69329-2.59492 2.46297-4.72069 5.43173-6.37734 8.90628zM1595.69508 211.35739V176.1721h28.14823v35.18529zm.87963-.87963h26.38897v-33.42603h-26.38897z"/><path d="m1437.35745 213.17307-.85937 1.64063c-1.38542-.57291-2.31771-1.22916-2.79687-1.96875-.45833-.69791-.6875-1.72916-.6875-3.09375v-2.48437h4.07813v3.42188h-1.875c0 .72916.18229 1.27084.54688 1.625.25.22916.78125.51563 1.59375.85938z"/><path fill="#fff" fill-rule="evenodd" d="M1436.43522 220.64882c-.26869-3.60966-.07846-6.64483-.79964-9.44518-1.05275-4.08417-2.3312-8.2339-4.33943-11.9032-1.34616-2.4591-2.36291-4.60705-2.30971-7.46758.15638-8.39834-.03332-16.80313.10694-25.20147.04406-2.64289-.91303-3.44468-3.43768-3.38556-11.56572.27138-9.44518-1.6197-9.61876 9.48709-.10694 6.79369.10103 13.59383-.12091 20.38215-.04568 1.41495-1.22687 2.87827-2.11195 4.16424-2.77616 4.03365-5.71677 7.95392-8.47089 12.00208-.94473 1.38861-1.52618 3.0239-2.36344 4.7328-2.4634-5.9731-1.75512-13.63306 2.54078-18.07406 5.73772-5.93225 5.598-11.93868 2.38924-18.92637-1.76748-3.84879-2.92233-8.12588-3.5269-12.32828-.94151-6.54703 2.15386-11.10356 8.73582-11.85322 6.77327-.77115 13.80933-.96623 20.52671.00376 6.61259.95494 9.13565 5.94139 7.40256 12.41749-1.04147 3.89232-2.51177 7.73305-4.28677 11.35238-3.43554 7.00113-3.59407 13.09459 2.22909 19.26116 5.66893 6.00266 5.12402 18.07191-.24344 23.12661-.50945.47828-1.14087.82811-2.30164 1.65516z"/><path fill="#fff" fill-rule="evenodd" d="M1416.02297 199.7094c0 2.68373.0618 5.36961-.02042 8.05119-.06126 2.00877.63735 2.9261 2.78745 2.83581 3.18995-.1322 6.39011-.03332 10.10563-.03332v-9.13349c.50784-.10801 1.01621-.21711 1.52404-.32512.97859 3.12063 2.60151 6.19558 2.82614 9.36994 1.04737 14.76857-.54976 29.24373-5.6023 43.27983-2.37258 6.58948-6.95921 9.96376-13.76042 10.43505-6.719.46377-12.07355-2.23662-15.74017-7.82279-3.05561-4.65595-1.70729-9.88584-.84854-14.78254 2.13774-12.18695 6.00266-23.85423 12.07947-34.68588 1.52995-2.72564 3.59783-5.15035 5.41904-7.7137.40949.17572.81952.34984 1.23008.52503zm-16.78917 45.26549c-.04998 8.30107 5.64744 14.54125 13.36491 14.63637 7.65298.09458 13.98721-6.45191 14.09791-14.57135.10856-7.95177-5.99245-14.55254-13.52989-14.63852-7.80667-.08813-13.88295 6.26813-13.93293 14.5735z"/><path fill="#fff" fill-rule="evenodd" d="M1418.01186 208.74831v-43.40289h9.19959v43.40289h-9.19959zM1418.73948 356.32276h18.67379v8.94863h-7.48424c-.29127 2.70254-.53793 4.9843-.78406 7.26606h-18.64638c.19131-3.47746.35467-6.44009.5218-9.47259h7.71962c-.00054-2.0711-.00054-4.09707-.00054-6.7421zM1417.75928 319.14877h18.81512c.13435 2.86751.2687 5.76137.41379 8.87017-2.09582.19508-3.76174.35037-5.66034.52664-.16821 2.32798-.33318 4.60437-.4858 6.70879h-18.80599c.15584-3.3431.28482-6.11066.424-9.10232 1.83895-.09458 3.38825-.17412 5.29921-.27192v-6.73136zM1436.99355 337.81772v8.94056c-2.08669.09673-4.12393.19078-6.38527.29611-.16552 2.43599-.3192 4.71292-.46484 6.85926h-18.79309c.19615-3.35117.36542-6.22836.54652-9.31621h6.64699v-6.77918c6.26758-.00054 12.23047-.00054 18.44969-.00054zM1436.11708 300.6319v8.67617c-1.28866.21388-2.69555.44818-4.40821.73139-.1897 2.2334-.38154 4.49957-.57017 6.72061h-18.22291V307.726c1.35315-.13327 2.65041-.26225 4.37274-.4326v-6.6615h18.82855zM1435.6646 282.03603v8.71271c-1.20053.21926-2.27155.4154-3.65587.66959-.11769 2.09367-.24021 4.26957-.37832 6.71524h-18.53729V289.272c1.2849-.21818 2.45963-.41755 3.92241-.66529v-6.57067h18.64907zM1431.79055 272.96327v6.34067h-18.70065v-8.35804c.92915-.23323 2.05498-.51536 3.15341-.7905.539-3.35439 4.4727-6.52124 8.85405-6.90923 2.57142-.22893 5.17776-.09243 7.76798-.08598.71473.00215 1.42946.12575 2.40966.21818v8.50581c-.85714.26601-1.97008.60995-3.48444 1.07909zM1319.74514 3.35062c3.19962 1.01513 6.1773 1.95987 9.71549 3.08301-2.16837 5.87261-4.25345 11.51897-6.45353 17.47702-2.80303-.8351-5.34112-1.59068-8.30161-2.47308 1.66215-5.96503 3.28507-11.79035 5.03965-18.08696zM1518.74412 35.83051c-2.93684-5.60928-5.67109-10.83218-8.64661-16.51455 2.77724-1.44128 5.43571-2.82131 8.57622-4.45121 2.77078 5.67484 5.4314 11.1256 8.20488 16.80421-2.72188 1.39238-5.21591 2.66868-8.13448 4.16156zM1389.08949 99.277c-1.16667-2.95565-2.14849-5.44108-3.28507-8.31881 5.7705-2.41342 11.34915-4.7457 17.24111-7.20963 1.23654 3.12332 2.35055 5.93763 3.62631 9.15929-5.8898 2.13398-11.58184 4.19594-17.58234 6.36915zM1560.46175 17.37706c-2.93254 1.17688-5.52491 2.21727-8.57299 3.44091-2.35646-5.69419-4.6667-11.2809-7.13386-17.24594 2.97661-1.19946 5.74954-2.31776 8.86264-3.57203 2.29036 5.81511 4.47538 11.36205 6.8442 17.37707zM1412.72823 111.10819c-6.21062 1.82337-11.9607 3.51185-17.97679 5.27825-.91195-2.90782-1.74544-5.56683-2.70415-8.62405 5.8237-1.96094 11.49102-3.87029 17.64898-5.94354 1.01191 3.1002 1.94482 5.95966 3.03196 9.28933zM1443.59971 76.19983c5.48407 3.47799 10.53984 6.68353 15.81218 10.02718-1.39829 2.48006-2.69824 4.78761-4.21422 7.47779-5.50826-2.86698-10.89076-5.6684-16.57957-8.62942 1.68149-2.99541 3.21467-5.72805 4.98161-8.87555zM1430.72706 103.31979c1.2849-3.23993 2.44459-6.16656 3.72089-9.38392 5.74847 2.56336 11.19923 4.9929 17.02239 7.58849-1.05383 2.73425-2.04155 5.30028-3.13729 8.14738-5.88927-2.12485-11.57916-4.17713-17.60599-6.35195zM1510.89607 40.02377c-2.6703 1.61217-5.05148 3.05023-7.7438 4.6753-3.27164-5.28953-6.42881-10.39367-9.78965-15.82884 2.70254-1.67773 5.2761-3.27432 8.29785-5.14928 3.11741 5.50288 6.11497 10.79403 9.23559 16.30282zM1536.06099 7.08441c2.48543 5.7447 4.8521 11.21535 7.37945 17.05893-2.75198 1.27738-5.36316 2.4892-8.35481 3.87781-2.58216-5.65066-5.09984-11.16215-7.78464-17.03851 2.99917-1.33434 5.73073-2.55046 8.76-3.89823zM1425.04576 121.92157c.95118-3.35439 1.775-6.25845 2.68158-9.45539 6.02092 1.86904 11.7033 3.63276 17.7613 5.51309-.79534 2.95565-1.53426 5.70226-2.33121 8.66059-6.10637-1.59067-11.86612-3.09107-18.11167-4.71829zM1338.17066 31.19122c-2.57733-1.40152-4.82039-2.62139-7.33162-3.9869 2.61333-5.65443 5.1267-11.09228 7.81204-16.90308 3.13406 1.64549 6.01663 3.15879 9.27321 4.8693-3.29797 5.41636-6.41967 10.54467-9.75364 16.02069zM1441.13631 135.16986c-.51428 3.06582-.95709 5.70601-1.48212 8.83471-6.09831-1.00707-11.98059-1.97813-18.33846-3.02766.50891-3.21252.97859-6.17785 1.52888-9.64402 6.15205 1.29081 11.97091 2.51123 18.2917 3.83697zM1399.27949 133.82853c-.77922-3.08033-1.43375-5.67108-2.22479-8.79923 5.9473-1.55844 11.78551-3.08838 18.07567-4.7371.82221 3.26573 1.54822 6.14829 2.37312 9.42261-6.2246 1.40474-12.02573 2.71489-18.224 4.11372zM1449.22833 68.01914c2.23769-2.75681 4.15134-5.11381 6.30574-7.76852 4.78385 4.06644 9.33717 7.93565 14.1538 12.02895-1.76748 2.27746-3.46241 4.46142-5.39809 6.95599-4.95904-3.69187-9.81114-7.30636-15.06144-11.21642zM1357.92137 46.83359c4.71238-4.40177 9.09963-8.49991 13.70615-12.80387 2.19416 2.46125 4.28999 4.8118 6.64269 7.45039-4.87091 3.99873-9.48871 7.79001-14.37198 11.79841-1.91741-2.06788-3.80258-4.10083-5.97686-6.44493zM1356.256 20.63203c2.76326 2.19094 5.15788 4.08954 7.91308 6.27403-4.03903 4.77579-7.90502 9.34683-12.02304 14.21613-2.32207-1.78413-4.51892-3.47208-6.90977-5.30888 3.63545-5.00848 7.17739-9.88852 11.01973-15.18128zM1382.23615 82.97579c-1.42677-2.86805-2.62139-5.26965-3.97186-7.98347 5.4341-2.95618 10.69945-5.82048 16.35978-8.90026 1.50416 2.9148 2.89063 5.60069 4.52591 8.77022-5.67645 2.72296-11.1385 5.34327-16.91383 8.11352zM1389.84023 57.5728c-5.45236 3.39899-10.5436 6.57283-15.88634 9.90357-1.65517-2.45265-3.20929-4.75537-4.92518-7.29884 4.96119-3.5355 9.8493-7.0194 15.19472-10.82842 1.82175 2.66599 3.57956 5.2401 5.6168 8.22369zM1469.69218 46.05007c4.23302 4.92626 8.08074 9.4038 12.18264 14.17744-2.04262 1.93945-3.97186 3.77087-6.01824 5.71354-4.19111-4.60812-8.30644-9.13134-12.60772-13.85984 1.47568-1.38163 3.78269-3.5414 6.44331-6.03113zM1495.73037 49.48615c-2.43491 1.81369-4.67906 3.48606-7.16127 5.33522-3.66715-4.87628-7.2623-9.65691-11.22233-14.9228 2.6144-1.94804 5.09984-3.80097 7.90555-5.89303 3.55215 5.24708 6.95975 10.2819 10.47805 15.48061zM1402.91493 151.75212c-.57501-3.22434-1.08123-6.06123-1.63958-9.19314 6.20901-1.21773 12.04131-2.36183 18.217-3.57257.62015 3.1577 1.15431 5.87798 1.75995 8.96045-5.99352 1.24352-11.89138 2.46716-18.33738 3.80526zM1437.80449 374.97129v9.0287h-18.19605v-9.0287h18.19605zM1434.69139 253.53015c-1.05705.22786-2.11893.45678-3.36084.7244v6.5035c-1.48642.07953-2.78422.14993-4.29214.23108 1.28114-3.01315 2.54024-5.77265 3.63061-8.59717 1.02588-2.65525 1.8755-5.37928 2.80088-8.07322.40734.11231.81468.22463 1.22149.33587v8.87555zM1412.30584 233.68055c6.71524-.43367 10.02126 2.05176 11.34485 8.70412h-11.34485v-8.70412z"/><path fill="#1a1e44" d="M1203.41785 332.00788v-46.62379h46.6238v46.62379z"/><path fill="#1a1e44" d="M1250.04165 378.09577v-46.62379h46.6238v46.62379z"/><g fill="#fff" stroke="#1a1e44" stroke-width="20"><path d="M1180.62393 326.99999V109.85714h55.72996V327z"/><path d="M1189.90965 326.99999v-49.28572h162.14286v49.28572zM1492.13187 154.20322v-49.28571h192.14286v49.28572zM1492.13187 325.63179v-49.28572h192.14286v49.28572z"/><path d="m1527.09072 310.99728-34.46292-34.46292 157.67994-157.67994 34.46292 34.46292z"/></g><path fill="#fff" fill-rule="evenodd" d="M1412.85237 257.09358v-4.88273c1.04899-.14187 2.0969-.28213 3.45811-.46592v-6.84206h7.50842c.2386 6.95652-4.1234 11.88654-10.96653 12.19071z"/><g fill="#fff" stroke-width="0"><path d="M1180.62393 326.99999V109.85714h55.72996V327z"/><path d="M1189.90965 326.99999v-49.28572h162.14286v49.28572zM1492.13187 154.20322v-49.28571h192.14286v49.28572zM1492.13187 325.63179v-49.28572h192.14286v49.28572z"/><path d="m1527.09072 310.99728-34.46292-34.46292 157.67994-157.67994 34.46292 34.46292z"/></g><path fill="#1a1e44" d="M1110.70617 332.00788v-46.62379h46.62379v46.62379zM1157.32996 378.09577v-46.62379h46.6238v46.62379zM1759.38308 332.00788v-46.62379h46.62379v46.62379z"/><path fill="#1a1e44" d="M1806.00687 378.09577v-46.62379h46.62379v46.62379zM1713.29519 378.09577v-46.62379h46.62379v46.62379z"/></g></svg>