<svg xmlns="http://www.w3.org/2000/svg" xmlns:xlink="http://www.w3.org/1999/xlink" version="1.1" width="600" height="300" viewBox="0,0,600,300"><defs><radialGradient cx="300" cy="150" r="300" gradientUnits="userSpaceOnUse" id="color-1"><stop offset="0" stop-color="#aee5ff"/><stop offset="1" stop-color="#9a9a9a"/></radialGradient></defs><g><g stroke-miterlimit="10"><path d="M0,450v-600h600v600z" fill="url(#color-1)" stroke="none" stroke-width="0" stroke-linecap="butt"/><path d="M369.13632,156.34147l-12.05251,-12.05249" fill="none" stroke="#000000" stroke-width="9" stroke-linecap="round"/><path d="M369.13632,156.34147l-12.0525,12.05249" fill="none" stroke="#000000" stroke-width="9" stroke-linecap="round"/><path d="M311.28433,156.34147h57.85199" fill="none" stroke="#000000" stroke-width="9" stroke-linecap="round"/><path d="M238.93233,155.32798c0,-28.1533 22.82275,-50.97604 50.97605,-50.97604c28.1533,0 50.97603,22.82274 50.97603,50.97604c0,28.1533 -22.82273,50.97605 -50.97603,50.97605c-28.1533,0 -50.97605,-22.82274 -50.97605,-50.97604z" fill="none" stroke="#000000" stroke-width="9" stroke-linecap="butt"/><path d="M189.77686,155.32797c0,-55.30112 44.83041,-100.13149 100.13153,-100.13149c55.30112,0 100.1315,44.83038 100.1315,100.1315c0,55.30112 -44.83037,100.13153 -100.1315,100.13153c-55.30112,0 -100.13153,-44.83041 -100.13153,-100.13153z" fill="none" stroke="#000000" stroke-width="9" stroke-linecap="butt"/><path d="M292.97802,170.26989c-6.68107,-12.10946 -2.21422,-17.55728 11.04444,-13.73699c33.27171,9.58676 110.52456,27.46026 118.67172,31.55616c8.76232,4.40516 8.84294,12.73936 0.50225,15.90554c-8.28139,3.14366 -32.99018,12.14329 -42.8529,17.28905c-3.74293,1.95283 -6.59544,6.31232 -7.25471,11.09197c-1.76702,12.81093 -5.20452,37.73273 -6.57286,47.65325c-1.09392,7.93096 -7.96992,9.08305 -12.9864,-0.00931c-9.55243,-17.3138 -42.92631,-77.80395 -60.55154,-109.74968z" fill="#a1a1a1" stroke="#000000" stroke-width="9" stroke-linecap="round"/><path d="M224.73438,168.35085l-12.05251,-12.0525" fill="none" stroke="#000000" stroke-width="9" stroke-linecap="round"/><path d="M212.68187,156.29835l12.05249,-12.05249" fill="none" stroke="#000000" stroke-width="9" stroke-linecap="round"/><path d="M213.62209,155.82825h57.85199" fill="none" stroke="#000000" stroke-width="9" stroke-linecap="round"/><path d="M290.24776,76.10004l-12.0525,12.0525" fill="none" stroke="#000000" stroke-width="9" stroke-linecap="round"/><path d="M302.30025,88.15253l-12.05249,-12.05249" fill="none" stroke="#000000" stroke-width="9" stroke-linecap="round"/><path d="M290.24776,133.95203v-57.85199" fill="none" stroke="#000000" stroke-width="9" stroke-linecap="round"/><path d="M289.30575,234.61126l12.0525,-12.0525" fill="none" stroke="#000000" stroke-width="9" stroke-linecap="round"/><path d="M289.30575,234.61124l-12.05249,-12.05249" fill="none" stroke="#000000" stroke-width="9" stroke-linecap="round"/><path d="M289.30575,176.75925v57.85199" fill="none" stroke="#000000" stroke-width="9" stroke-linecap="round"/><path d="M127.21532,279.26124l62.54697,-45.48871" fill="none" stroke="#000000" stroke-width="8" stroke-linecap="round"/><path d="M189.76229,53.57188l-62.54697,-45.48871" fill="none" stroke="#000000" stroke-width="8" stroke-linecap="round"/><path d="M59.07186,156.34147h82.35868" fill="none" stroke="#000000" stroke-width="8" stroke-linecap="round"/><path d="M465.11001,271.17807l-62.54697,-45.48871" fill="none" stroke="#000000" stroke-width="8" stroke-linecap="round"/><path d="M402.56303,45.48871l62.54697,-45.48871" fill="none" stroke="#000000" stroke-width="8" stroke-linecap="round"/><path d="M533.25347,148.25829h-82.35868" fill="none" stroke="#000000" stroke-width="8" stroke-linecap="round"/></g></g></svg>