<svg xmlns="http://www.w3.org/2000/svg" width="657.58777" height="328.79388" viewBox="0 0 657.58776 328.79388"><path d="M-.000001-4h657.8324v358.01385H-.000001z" style="fill:#fff17a;fill-opacity:1;stroke-width:1.48251;stroke-miterlimit:10;paint-order:stroke fill markers"/><path fill="#ffb50e" d="M657.83239 59.54063 442.57394 433.38941h-56.06526L545.01863-4h112.81375v63.54063M-.000001 228.86173 163.69448 433.4296l-49.59465-.04019L-.000011 352.32588V228.86174M217.87081 433.38941-.000001 55.36085V-4H115.30554l158.59033 437.38941H217.8708M416.16901-4l-71.8198 437.4296h-28.25368L244.23554-4H416.169m130.17591 437.38941-49.71522.0402 161.20269-201.5938v122.17805z" style="mix-blend-mode:normal;fill-rule:nonzero;stroke:none;stroke-width:1;stroke-linecap:butt;stroke-linejoin:miter;stroke-miterlimit:10;stroke-dasharray:none;stroke-dashoffset:0"/><g style="mix-blend-mode:normal;fill-rule:nonzero;stroke-miterlimit:10;stroke-dasharray:none;stroke-dashoffset:0"><path d="M890.573549 296.7228v76.92395h-604.45986v-1.24589h-410.54239V293.4674l9.00259-1.60761c.0268 2.92048.14736 7.56915.36171 13.94598 3.18842-.34831 4.94339-.4153 5.26491-.20095l-1.6478-8.27917c4.01902-.48228 6.84572-.93777 8.48012-1.36647l1.44685 8.11841 2.00951-13.82541 11.61495 1.68799-3.13483 21.50173 129.97495-.8038 1.04494-29.09767 11.73552.4019-1.00475 28.65558 5.38548-.0402v5.74719h11.414v-18.00519h-7.71651l-1.28608-12.01686 14.7096-1.60761 2.81331 25.64132v-21.34097h46.78134v27.00778h-46.17848 46.17848v-27.00778h-5.22472v-7.91746h22.10458l.24114 6.35004 5.22472 1.48704 3.17502-10.97191-.16076.68323 8.68107 2.69274v18.44729l5.98833-.28133-.68323-9.96716 8.72126-3.77787.60285.24114.96456 7.87727c1.76837-.21435 3.55013-.33492 5.34529-.36171v-2.00951l9.00259-1.60761c.0268 2.92048.14736 7.56915.36171 13.94598 3.18842-.34831 4.94339-.4153 5.26491-.20095l-1.6478-8.27917c4.01902-.48228 6.84572-.93777 8.48012-1.36647l3.21521 17.92481c.88418-.13397 1.78177-.26793 2.69274-.4019l80.94296-.48228v-18.28652l9.00259-1.60761c.0268 2.92048.14736 7.56915.36171 13.94598 3.18842-.34831 4.94339-.4153 5.26491-.20095l-1.6478-8.27917c4.01902-.48228 6.84572-.93777 8.48012-1.36647l1.44685 8.11841 2.00951-13.82541 11.61495 1.68799-2.81331 19.61279 99.99309-.60285v-29.13786h22.10458l.24114 6.35004 5.22472 1.48704 3.17502-10.97191-.16076.68323 8.68107 2.69274v1.76837l3.17502.12057-.60285 16.43777 3.41616-.16076-.68323-9.96716 8.72126-3.77787.60285.24114.12057 1.04494 9.92697-1.08513 2.81331 25.64132v-21.34097h41.55662v-7.91746h22.10458l.24114 6.35004 5.22472 1.48704 3.17502-10.97191-.16076.68323 8.68107 2.69274v18.44728l5.98833-.28133-.68323-9.96716 8.72126-3.77787.60285.24114.96456 7.87727c1.76837-.21435 3.55013-.33492 5.34529-.36171v-2.00951l9.00259-1.60761c.0268 2.92048.14736 7.56915.36171 13.94598 3.18842-.34831 4.94339-.4153 5.26491-.20095l-1.6478-8.27917c4.01902-.48228 6.84572-.93777 8.48012-1.36647l3.21521 17.92481c.88418-.13397 1.78177-.26793 2.69274-.4019l214.65559-1.28608v-29.13786h22.10458l.24114 6.35004 5.22472 1.48704 3.17502-10.97191-.16076.68323 8.68107 2.69274v18.44728l5.98833-.28133-.68323-9.96716 8.72126-3.77787.60285.24114.96456 7.87727c1.76837-.21435 3.55013-.33492 5.34529-.36171m-823.05401 21.58212h-11.414v-18.00519H67.519449z"/><path fill="none" d="M56.105449 312.55772v-12.258h3.71759m16.21673 12.01686v-21.34097h46.78134v27.00778h-46.15839m-82.4501-12.2178v-31.99136h-12.21781v24.27485h-2.57217v7.71651zm-14.78998-7.71651h-9.16335v-32.15212h11.73552v7.87727m-62.05359.48228h11.73552v28.29387h-11.73552Zm139.88182 26.04322h7.69641v18.00519h-11.414v-5.74719"/></g><g style="mix-blend-mode:normal;fill-rule:nonzero;stroke-miterlimit:10;stroke-dasharray:none;stroke-dashoffset:0"><path d="M435.876649 109.73008c.0536-.0536.12057-.0938.20095-.12057 3.45635-1.98272 7.3682-2.88029 11.73552-2.69274 6.00173.26793 11.07908 2.61236 15.23207 7.03328.0268 0 .0536.0134.0804.0402l.0804.0804c.83059.88418 1.58082 1.84875 2.25065 2.89369.0536.0268.10717.0938.16076.20095l.12057.12057h-.0402c2.41141 3.69749 3.56352 7.87727 3.45635 12.53933-.13397 4.26016-1.32627 8.06482-3.57692 11.414l-.0804.0804c-.93777 1.31288-2.0363 2.57217-3.29559 3.77787-2.33103 2.08989-4.83622 3.61711-7.51556 4.58168h-.12057l-25.52075 10.93172-.0402.0402c-.0268.0268-.0536.0402-.0804.0402-.16076.0268-.32152.0938-.48228.20095-.0268 0-.0402.0134-.0402.0402-1.84875.69663-3.81806 1.09853-5.90795 1.2057-.91097.0268-1.78177 0-2.61236-.0804-.0804 0-.13397-.0134-.16076-.0402-4.76923 2.51858-9.51167 5.06396-14.22731 7.63613-4.12619 2.19706-8.23898 4.39413-12.33838 6.59118-1.28608.64304-2.55877 1.29948-3.81806 1.96932l-.0402.0402c.42869.96456 1.11192 3.02766 2.0497 6.18928.75021 2.4382 1.32627 4.8898 1.72818 7.3548.18755 1.2057.33492 2.42481.44209 3.6573l6.71176.84399c.72342.0804 1.33967.4019 1.84875.96456h.0402l.0402.0402c.10717.13397.21435.26793.32152.4019.10717.16076.20095.33492.28133.52247.10717.26793.17416.56266.20095.88418v.12057l.36171 5.86776c4.60847.16076 8.92221.42869 12.94123.8038 7.50216.66983 13.8656 1.60761 19.09032 2.81331.0804 0 .16076.0134.24114.0402.0268 0 .0536.0134.0804.0402 3.21521.99135 6.21607 2.61236 9.00259 4.86301 1.01815.8038 1.99611 1.70139 2.93388 2.69274 1.84875 1.90234 3.57692 4.13959 5.18453 6.71176.34831.50907.68323 1.04494 1.00475 1.60761.45549.8038.91097 1.60761 1.36647 2.41141.42869.83059.84399 1.68799 1.24589 2.57217l.0402.0402c.24114.56266.48228 1.13872.72342 1.72818.26793.61625.53587 1.2325.8038 1.84875h.0402c.4019.85739.71002 1.75497.92437 2.69274v.0402c.0268.24114.0402.50907.0402.8038v.0402c-.10717.83059-.52247 1.51383-1.24589 2.0497v.0402l-8.19879 5.82757c.0536 1.55402.0938 3.10804.12057 4.66206.13397 8.06482-.54926 16.08946-2.0497 24.0739-.64304 3.45635-1.46024 6.85912-2.4516 10.2083-1.82196 6.00173-4.21997 11.78911-7.19404 17.36215-4.76923 9.00259-11.22645 16.55834-19.37165 22.66724-1.6612 1.25929-3.36257 2.35782-5.10415 3.29559-.21435.10717-.44209.16076-.68323.16076h-199.70489c-1.50043.0536-2.63915.0804-3.41616.0804H209.485509c-.13397-.0268-.24114-.0402-.32152-.0402h-.0804l-1.96932-.16076c-4.52809-.72342-8.43993-3.6707-11.73552-8.84183v-.0804c-3.53673-5.51945-5.3051-12.11063-5.3051-19.77355 0-7.71651 1.76837-14.21391 5.3051-19.49222.0268-.0536.0536-.0938.0804-.12057.77701-1.17891 1.56742-2.27744 2.37122-3.29559-.21435-4.98358.20095-9.55186 1.24589-13.70484 3.48314-3.91184 7.40839-8.02463 11.77571-12.33838 6.48401-6.48401 13.91919-13.42351 22.30553-20.8185.0268-2.70614.067-5.34529.12057-7.91746.10717-3.6439.24114-7.15385.4019-10.52982.18755-3.6439.42869-7.20744.72342-10.69058.37511-4.84961.87078-9.56526 1.48704-14.14693.0804-.83059.44209-1.48704 1.08513-1.96932 1.04494-.83059 2.08989-1.6612 3.13483-2.49179 1.44685-1.12532 2.89369-2.22386 4.34054-3.29559 3.13483-2.41141 6.26966-4.72904 9.4045-6.9529 1.31288-.93777 2.62576-1.84875 3.93863-2.73293 2.4382-1.71478 4.8898-3.36257 7.3548-4.94339v-.0402l.0402.0402c.0268-.0536.067-.0804.12057-.0804-1.36647-1.6612-2.29084-3.46975-2.77312-5.42567-.32152-1.25929-.46888-2.57217-.44209-3.93863.53587-3.21521.93777-5.89455 1.2057-8.03803.10717-.48228.22774-.95116.36171-1.40666.42869-1.39326.83059-2.78652 1.2057-4.17978l2.61236-6.67156.0804-.0402c.91097-.48228 1.87554-.87078 2.89369-1.16551 1.01815-.29473 2.0363-.57606 3.05445-.84399 1.44685-.4019 2.88029-.8038 4.30035-1.2057h.0804c-.29473-.45549-.44209-.95116-.44209-1.48704-.93777-.18755-1.72818-.64304-2.37122-1.36647l-.0402-.0402-.24114-.48228c-.13397-.72342-.21435-1.70139-.24114-2.93388-.0268-1.09853.067-2.62576.28133-4.58168v-.0402c.50907-.75021 1.2191-1.28608 2.13008-1.60761.0536-.0268.13397-.0536.24114-.0804-.0268-.0268-.0268-.0402 0-.0402.21435-2.465 1.31288-4.58168 3.29559-6.35004 2.25065-2.0631 4.98358-3.09464 8.19879-3.09464 3.2688 0 6.02852 1.03154 8.27917 3.09464 1.44685 1.31288 2.42481 2.69274 2.93388 4.13959.8038.34831 1.47364.71002 2.00951 1.08513-.0268 1.52723-.17416 3.02766-.44209 4.5013l.84399 1.2057c-.13397 1.79516-.36171 3.53673-.68323 5.22472-.13397.66983-.28133 1.32627-.44209 1.96932l-2.93388 1.12532-.64304 1.92913.12057.0804v-.0402c.13397.0268.26793.067.4019.12057.64304.24114 1.24589.54926 1.80856.92437.0268 0 .0536.0134.0804.0402 1.15211.66983 2.31763 1.36647 3.49654 2.08989.4019.24114.8038.49568 1.2057.76361l1.12532.76361c1.42005 2.41141 2.465 4.39413 3.13483 5.94814.72342 1.6612 1.36647 3.34918 1.92913 5.06396l.0402.0402c0 .0268.0134.0536.0402.0804l59.36085 8.84183c.42869.0536.84399.20095 1.24589.44209.85739.58945 1.75497 1.2325 2.69274 1.92913 0-.0268.0134-.0402.0402-.0402l30.38375-21.38116c0-.0779.0268-.14485.0804-.20095l-.0402.0402c.16076-.50907.36171-1.00475.60285-1.48704.4019-.93777.93777-1.84875 1.60761-2.73293.96456-1.31288 2.10329-2.47839 3.41616-3.49654.37511-.29473.72342-.56266 1.04494-.8038v-.0402c.0268-.0268.0804-.0536.16076-.0804 1.2325-1.04494 2.50519-2.0631 3.81806-3.05445l12.82066-10.32887c0-.0804.0536-.13397.16076-.16076 1.2057-.99135 2.41141-1.96932 3.61711-2.93388.0268-.0536.067-.0938.12057-.12057.13397-.10717.28133-.21435.44209-.32152h-.0402c1.04494-.91097 2.15687-1.68799 3.33578-2.33103m11.69538 1.60761c-3.96543-.18755-7.54235.72342-10.73077 2.73293l-3.89844 2.89369c-5.707 4.5013-11.15946 9.00259-16.35739 13.50389l-4.82282 4.0994c-.10717.0804-.20095.18755-.28133.32152-.88418.99135-1.59421 2.0363-2.13008 3.13483-.29473.64304-.53587 1.29948-.72342 1.96932v.0804h-.0402v.0402l-.0402.0402c-.18755.64304-.32152 1.32627-.4019 2.0497-.0804.77701-.0938 1.59421-.0402 2.4516v.0402c.0536.85739.17416 1.68799.36171 2.49179l19.41184-13.30294c-.18755-2.14348.33492-4.38073 1.56742-6.71176-.0268.26793-.0134.99135.0402 2.17027.0536 1.17891.21435 2.41141.48228 3.69749.42869 1.71478 1.13872 3.33578 2.13008 4.86301.58945.93777 1.28608 1.84875 2.08989 2.73293.75021.8038 1.55402 1.54063 2.41141 2.21046.10717.0536.22774.13397.36171.24114.18755.13397.3885.28133.60285.44209.0268 0 .067.0134.12057.0402 2.57217 1.71478 5.53284 2.65255 8.88202 2.81331 2.25065.10717 4.38073-.16076 6.39023-.8038 0-.0268.0134-.0402.0402-.0402.0268-.0268.0536-.0402.0804-.0402 2.22386-.77701 4.26016-2.00951 6.1089-3.69749 3.53673-3.2688 5.38548-7.30121 5.54624-12.09724.10717-3.72428-.8172-7.07347-2.77312-10.04754-.61625-.88418-1.29948-1.74158-2.0497-2.57217-3.34918-3.59032-7.46197-5.50605-12.33838-5.74719m-13.26274 101.88203c-8.19879-1.84875-19.29127-3.08124-33.27744-3.69749-.18755-.0268-.37511-.0402-.56266-.0402H399.785959c.13397.0536.28133.10717.44209.16076.21435.0804.42869.17416.64304.28133 3.83146 1.71478 7.01988 3.85825 9.56526 6.43042 3.69749 3.75108 5.97493 8.38634 6.83233 13.90579l36.09076 3.45635c-1.31288-2.8401-2.79991-5.57303-4.46111-8.19879-2.49179-3.91184-5.27831-6.9663-8.35955-9.16335-1.95592-1.39326-4.03241-2.4382-6.22947-3.13483m10.56999 37.01513c0-.29473-.0134-.56266-.0402-.8038-.0536-1.79516-.17416-3.55013-.36171-5.26491l-31.10718-2.8535c.16076 2.70614.20095 5.41227.12057 8.11841v.36171c-.29473 8.172-1.39326 16.25022-3.29559 24.23466-.16076.66983-.32152 1.33967-.48228 2.00951-1.6344 6.59118-3.91184 12.94123-6.83233 19.05013-.29473.61625-.57606 1.2191-.84399 1.80856-2.89369 5.92135-6.45721 11.38721-10.69058 16.39758l-4.70225 5.10415-4.66206 4.17978h30.34356c3.34918-2.17027 6.43042-4.59508 9.24373-7.27442l-10.2083-.16076c-.21435 0-.4019-.067-.56266-.20095-.16076-.16076-.24114-.34831-.24114-.56266-.0268-.21435.0402-.4019.20095-.56266.26793-.32152.54926-.64304.84399-.96456h.0402c0-.0536.0134-.0804.0402-.0804.66983-.83059 1.32627-1.6478 1.96932-2.4516.0804-.10717.17416-.17416.28133-.20095.10717-.0536.22774-.0804.36171-.0804l11.33362.16076c.16076 0 .32152.067.48228.20095 1.90234-2.33103 3.6573-4.80942 5.26491-7.43518.88418-1.44685 1.72818-2.90709 2.53198-4.38073l.56266-1.12532-11.0121-.52247c-.18755-.0268-.34831-.0938-.48228-.20095-.16076-.13397-.25454-.28133-.28133-.44209-.0268-.18755 0-.36171.0804-.52247.34831-.72342.69663-1.44685 1.04494-2.17027.0536-.10717.0938-.18755.12057-.24114l.0402-.0402c0-.10717.0402-.20095.12057-.28133v-.0402c.10717-.24114.21435-.46888.32152-.68323.0536-.16076.14736-.28133.28133-.36171.13397-.0804.29473-.10717.48228-.0804l11.45419.52247c.0804 0 .16076.0134.24114.0402 2.00951-4.58168 3.6439-9.31072 4.9032-14.18712l-11.05229-.64304c-.18755-.0268-.33492-.0804-.44209-.16076-.13397-.10717-.22774-.24114-.28133-.4019-.0536-.13397-.0536-.28133 0-.44209.21435-.91097.44209-1.80856.68323-2.69274 0-.0268.0134-.0402.0402-.0402.0536-.26793.10717-.53587.16076-.8038.0536-.18755.16076-.32152.32152-.4019.16076-.13397.33492-.18755.52247-.16076l11.13267.60285c.0268 0 .067.0134.12057.0402 1.01815-5.22472 1.6344-10.48963 1.84875-15.79473l-10.28868-.68323c-.24114 0-.42869-.0804-.56266-.24114-.16076-.18755-.22774-.3885-.20095-.60285.0804-1.09853.16076-2.17027.24114-3.21521v-.0402c0-.10717.0134-.21435.0402-.32152.0268-.21435.12057-.3885.28133-.52247.16076-.13397.34831-.18755.56266-.16076l10.00735.60285c0-.64304-.0134-1.28608-.0402-1.92913m-39.22555-107.74983-48.63008 33.71954c-.0268 0-.0536.0134-.0804.0402-.48228.29473-.92437.66983-1.32627 1.12532-.77701.88418-1.25929 1.88894-1.44685 3.01426l-.0804.48228c-.0268.37511-.0268.76361 0 1.16551.0536.69663.18755 1.35307.4019 1.96932.0536.13397.10717.25454.16076.36171l53.09119-32.31288v-.0402c-.69663-1.17891-1.2191-2.42481-1.56742-3.73768-.29473-1.09853-.48228-2.25065-.56266-3.45635-.0536-.8038-.0402-1.58082.0402-2.33103m-102.20356 4.42092h.0804l-.64304-3.13483c-.18755-2.17027-.24114-4.01902-.16076-5.54624-1.09853-.58945-2.25065-1.01815-3.45635-1.28608l-1.2057 2.37122c-1.58082 1.28608-3.40276 1.92913-5.46586 1.92913-1.98272.0268-3.89844-.32152-5.74719-1.04494-1.31288-.53587-2.53198-1.2191-3.6573-2.0497-.53587-.34831-1.03154-.73682-1.48704-1.16551-.58945-.50907-1.11192-1.05834-1.56742-1.6478-.16076-.18755-.30812-.37511-.44209-.56266l-4.54149.68323c.83059 2.38462 1.33967 4.30035 1.52723 5.74719.16076 1.44685.33492 2.82671.52247 4.13959.16076 1.31288.17416 3.38937.0402 6.22947l-3.6573-2.29084c1.82196 2.94728 3.17502 5.14434 4.05921 6.59118.99135-.56266 1.60761-.89758 1.84875-1.00475 1.50043-.75021 3.00086-1.50043 4.5013-2.25065 1.71478-.83059 3.42956-1.6612 5.14434-2.49179.91097-.45549 1.84875-.88418 2.81331-1.28608 3.69749-1.58082 7.52896-2.23725 11.49438-1.96932v.0402m54.2165 24.19446-27.40968-3.69749h-.0402c-.16076 0-.32152.0536-.48228.16076 2.38462 3.242 3.68409 6.44382 3.89844 9.60545.21435 3.83146-.48228 7.3682-2.08989 10.6102-.13397.24114-.28133.50907-.44209.8038l15.63397 1.80856c2.78652-9.29732 4.56828-14.44166 5.34529-15.43302l5.58643-3.85825m-33.63916-7.75671c.66983-.29473 1.40666-.46888 2.21046-.52247l36.13095 4.98358 8.07822-5.707c-.37511-.26793-.73682-.52247-1.08513-.76361l-65.7109-9.44469c-1.44685-.10717-2.30424.32152-2.57217 1.28608-.10717.26793-.14736.58945-.12057.96456 1.79516 4.36733 3.40276 9.33751 4.82282 14.91055.13397.50907.26793 1.03154.4019 1.56742.32152 1.44685.61625 2.90709.88418 4.38073.13397.85739.26793 1.71478.4019 2.57217.16076 1.07173.30812 2.17027.44209 3.29559 0 .16076.0134.32152.0402.48228.16076 1.42005.28133 2.88029.36171 4.38073h.20095l15.75454 2.00951h.0402v-.4019c.0268-2.14348 0-3.96543-.0804-5.46586-.0536-.85739-.12057-1.78177-.20095-2.77312-.13397-1.2325-.30812-2.58557-.52247-4.05921-.37511-2.59896-1.11192-5.78738-2.21046-9.56526.77701-.99135 1.68799-1.70139 2.73293-2.13008m.0402 32.19231c5.11755.8038 9.23034 1.87554 12.33838 3.21521.0536 0 .12057.0134.20095.0402 1.60761.77701 3.12143 1.6344 4.54149 2.57217.77701.50907 1.54063 1.05834 2.29084 1.6478.93777.72342 1.82196 1.50043 2.65255 2.33103.0268.0536.067.10717.12057.16076.10717.10717.21435.22774.32152.36171.0268 0 .0402.0134.0402.0402h.0402l39.86863 4.0994 2.93388-3.57692c.88418-1.2057 2.02291-1.78177 3.41616-1.72818l5.46586.16076-.16076-3.73768-91.11107-11.05229-.0804 3.89844c1.33967.0536 2.53198.12057 3.57692.20095 1.28608.0804 2.37122.16076 3.2554.24114h.16077c2.25065.16076 4.38073.37511 6.39023.64304h.0402c1.25929.13397 2.49179.29473 3.69749.48228m-23.91313 2.69274c-1.6344-.13397-3.28219-.25454-4.94339-.36171-1.84875.50907-3.71089 1.08513-5.58643 1.72818-3.6439 1.25929-7.3548 2.74633-11.13267 4.46111-9.24373 4.17978-18.86258 9.72602-28.85653 16.63872-1.84875 1.28608-3.71089 2.61236-5.58643 3.97882 2.49179-1.39326 4.92999-2.71953 7.31461-3.97882 14.65601-7.85048 26.47191-13.27615 35.44771-16.27701 2.14348-.72342 4.12619-1.29948 5.94814-1.72818 1.47364.56266 2.8535 1.32627 4.13959 2.29084 4.0994 3.08124 7.18064 8.11841 9.24373 15.1115l44.93259 3.93863c-.4019-1.36647-.76361-2.47839-1.08513-3.33578-.26793-.66983-.54926-1.33967-.84399-2.00951-.99135-2.14348-2.17027-4.19318-3.53673-6.14909v-.0402c-.58945-.83059-1.19231-1.62101-1.80856-2.37122-.77701-.93777-1.59421-1.80856-2.4516-2.61236-1.01815-.93777-2.08989-1.80856-3.21521-2.61236-.72342-.53587-1.48704-1.04494-2.29084-1.52723-.77701-.32152-1.59421-.62964-2.4516-.92437-2.70614-.93777-5.82757-1.68799-9.36431-2.25065-2.57217-.4019-5.37208-.71002-8.39974-.92437-.58945-.0536-1.16551-.0938-1.72818-.12057-.16076 0-.30812-.0134-.44209-.0402-2.59896-.16076-5.22472-.33492-7.87727-.52247-1.79516-.13397-3.60371-.25454-5.42567-.36171m63.2593-6.02854v.36171l11.49438 1.52723c0-.0536.0134-.0938.0402-.12057.0536-.18755.0938-.33492.12057-.44209l.0804-.28133c0-.0804.0268-.13397.0804-.16076.10717-.45549.20095-.77701.28133-.96456v.0402c.10717-.56266.21435-1.11192.32152-1.6478v-.0804c.13397-.96456.20095-1.91573.20095-2.8535 0-.8038-.0402-1.6344-.12057-2.49179l-12.29819 6.47061c-.0536.21435-.12057.42869-.20095.64304m-8.48011 28.49482c.45549 1.36647.84399 2.78652 1.16551 4.26016V225.51791l-.0402.16076c-.0536.26793-.18755.52247-.4019.76361l-7.39499 7.15385c.0268 1.15211.0536 2.31763.0804 3.49654l57.99439 5.3051c.69663-7.58254-.8038-13.70484-4.5013-18.3669v-.0402c-2.73293-3.242-6.25626-5.78738-10.57001-7.63613-1.60761-.66983-3.30899-1.25929-5.10415-1.76837l-35.84961-3.49654c1.68799 2.54538 3.06785 5.27831 4.13959 8.19879.16076.45549.32152.92437.48228 1.40666m25.35998-33.35782c.0268 1.09853-.0268 2.15687-.16076 3.17502 0 .0804-.0134.16076-.0402.24114-.0804.64304-.20095 1.28608-.36171 1.92913-.0804.32152-.16076.64304-.24114.96456l-.32152.96456 9.68583 1.2057c-.0536-.58945-.10717-1.13872-.16076-1.6478-.18755-1.58082-.34831-2.70614-.48228-3.37597v-.0402c-.0804-.45549-.16076-.88418-.24114-1.28608-.16076-.77701-.33492-1.52723-.52247-2.25065-.56266-2.22386-1.25929-4.34054-2.08989-6.35004-.0804-.21435-.16076-.42869-.24114-.64304l-5.22472 2.73293c.24114 1.50043.37511 2.96067.4019 4.38073m-95.65257-71.69923c-.0804.0268-.16076.067-.24114.12057-.13397.0536-.25454.13397-.36171.24114-.16076 1.2325-.20095 2.35782-.12057 3.37597.13397 1.58082.36171 2.4382.68323 2.57217 1.55402.4019 3.28219.53587 5.18453.4019.64304-.0268 1.15211-.17416 1.52723-.44209l.32152-.44209c.0268-.0268.067-.0536.12057-.0804l.60285-.8038c.29473-.48228.66983-.69663 1.12532-.64304.72342.0268 1.44685.0938 2.17027.20095.4019 0 .69663.22774.88418.68323l.24114.64304.0402.0804.4019 1.08513v.12057c.75021.13397 1.40666.16076 1.96932.0804.18755-.24114.32152-.48228.4019-.72342v-.0402c.53587-1.71478.71002-3.20181.52247-4.46111-.0536-.18755-.17416-.4153-.36171-.68323-4.68885-1.42005-9.65904-1.87554-14.91055-1.36647-.0804 0-.14736.0268-.20095.0804m2.97408 10.2485c-.0268.0268-.0268.0536 0 .0804v.0804c0 .0268.0134.0536.0402.0804-.0268.0804-.0134.16076.0402.24114.0536.24114.10717.48228.16076.72342.0536.16076.10717.33492.16076.52247.10717.42869.25454.83059.44209 1.2057.26793.34831.60285.62964 1.00475.84399.34831.18755.72342.3885 1.12532.60285l1.2057.32152c.10717 0 .24114.0134.4019.0402h1.08513c.13397-.0268.26793-.0402.4019-.0402.50907-.0804 1.00475-.20095 1.48704-.36171.45549-.18755.7904-.36171 1.00475-.52247.18755-.18755.30812-.33492.36171-.44209l.24114-.60285c.13397-.4019.28133-.8172.44209-1.24589.0268-.13397.067-.24114.12057-.32152.0804-.29473.13397-.52247.16076-.68323.0268-.21435.0938-.53587.20095-.96456 0-.16076-.067-.26793-.20095-.32152-.13397-.0804-.22774-.12057-.28133-.12057-.0536-.0536-.12057-.0938-.20095-.12057-.18755-.0536-.34831-.0938-.48228-.12057-.18755-.0804-.36171-.13397-.52247-.16076l-.0804-.0804c-.0268-.0804-.0536-.18755-.0804-.32152-.0804-.24114-.13397-.4019-.16076-.48228-.0536-.21435-.0938-.4019-.12057-.56266-.0804-.16076-.14736-.33492-.20095-.52247-.0268-.0804-.0402-.14736-.0402-.20095-.45549-.13397-.91097-.18755-1.36647-.16076h-.16076c-.0536.0268-.0804.067-.0804.12057-.0804.0804-.16076.18755-.24114.32152-.10717.16076-.21435.32152-.32152.48228-.10717.13397-.20095.28133-.28133.44209-.10717.10717-.18755.22774-.24114.36171-.0268 0-.0402.0134-.0402.0402-.45549.18755-.93777.32152-1.44685.4019-.50907.0804-.97796.14736-1.40666.20095-.34831.0536-.64304.0938-.88418.12057h-.20095c-.50907.0536-.7904.16076-.84399.32152-.0804.13397-.13397.29473-.16076.48228-.0536.10717-.067.21435-.0402.32152m5.90798 98.38549-4.70225 3.33578c.37511.53587.75021 1.11192 1.12532 1.72818 2.465 4.0994 3.89844 8.85523 4.30035 14.2675.0804 1.01815.12057 2.0631.12057 3.13483 0 .83059-.0268 1.68799-.0804 2.57217-.0268.0268-.0268.067 0 .12057-.45549 7.71651-2.61236 14.30769-6.47061 19.77355-1.6344 2.33103-3.37597 4.16638-5.22472 5.50605-.0268.0268-.0536.067-.0804.12057-.34831.21435-.68323.4153-1.00475.60285-.42869.29473-.87078.54926-1.32627.76361h-.0402c-4.9032 1.87554-9.20354 1.46024-12.90104-1.24589 2.41141 1.15211 5.61322 1.29948 9.60545.44209-.45549-.16076-.88418-.34831-1.28608-.56266-2.51858-1.33967-4.74244-3.61711-6.67156-6.83233-.66983-1.09853-1.24589-2.25065-1.72818-3.45635l-7.67632-.20095c-.34831-.93777-.64304-1.87554-.88418-2.81331l7.51556.24114c-.50907-1.6612-.89758-3.38937-1.16551-5.18453l-7.27442-.20095c-.10717-.85739-.17416-1.72818-.20095-2.61236-.0804-1.33967-.0804-2.71953 0-4.13959l-3.61711 2.53198c0 .64304.0134 1.28608.0402 1.92913.0268.93777.0804 1.84875.16076 2.73293.53587 6.35004 2.29084 11.96327 5.26491 16.83967.24114.37511.48228.76361.72342 1.16551.10717.13397.21435.28133.32152.44209 3.91184 5.62662 8.74805 8.43993 14.50864 8.43993h.12057c5.84097-.0536 11.05229-3.01426 15.63397-8.88202.29473-.4019.58945-.7904.88418-1.16551.24114-.37511.48228-.75021.72342-1.12532.42869-.61625.84399-1.24589 1.24589-1.88894 1.04494-1.82196 1.96932-3.73768 2.77312-5.74719 1.84875-4.66206 2.92048-9.8198 3.21521-15.47321.0268-.85739.0536-1.70139.0804-2.53198 0-1.12532-.0268-2.22386-.0804-3.29559-.37511-6.99309-2.17027-13.11539-5.38548-18.3669-.18755-.32152-.37511-.64304-.56266-.96456m-46.05793 32.39327-25.35998 17.84443c1.6344.93777 3.17502 2.33103 4.62187 4.17978.45549.58945.91097 1.2191 1.36647 1.88894 3.10804-2.11668 5.93474-4.03241 8.48012-5.74719 5.27831-3.59032 9.36431-6.33664 12.258-8.23898-.8038-2.22386-1.25929-5.53284-1.36647-9.92697m-1.04495 25.80206c-.42869-.32152-.8172-.65644-1.16551-1.00475l-.60285-.68323c-.34831-.45549-.65644-.95116-.92437-1.48704l-.0804.0804-.0804-.0804-6.18928 3.81806.56266 3.53673 8.48012-4.17978m-10.44945 13.58428c-1.55402.56266-2.98747 1.72818-4.30035 3.49654-1.36647 1.82196-2.33103 3.91184-2.89369 6.26966-.18755.69663-.32152 1.42005-.4019 2.17027-.0536.32152-.0938.64304-.12057.96456-.0536.61625-.0804 1.2325-.0804 1.84875 0 .34831.0134.69663.0402 1.04494.10717 2.465.71002 4.64866 1.80856 6.55099.0804.16076.17416.32152.28133.48228.0268.0536.067.10717.12057.16076 1.44685 2.17027 3.29559 3.2554 5.54624 3.2554h.0402c2.27744-.0268 4.34054-1.16551 6.18928-3.41616.10717-.16076.22774-.32152.36171-.48228.0804-.16076.17416-.30812.28133-.44209.18755-.24114.36171-.48228.52247-.72342.42869-.72342.8172-1.47364 1.16551-2.25065.75021-1.82196 1.2325-3.83146 1.44685-6.02852l.0804-.96456c.13397-3.2688-.48228-6.08211-1.84875-8.43993-.4019-.66983-.8172-1.24589-1.24589-1.72818l-.0804-.0804c-1.28608-1.39326-2.81331-2.08989-4.58168-2.08989-.24114 0-.46888.0134-.68323.0402-.61625.13397-1.16551.25454-1.6478.36171m27.57045-6.55098c-.72342.16076-1.39326.30812-2.00951.44209-1.90234.69663-3.68409 2.11668-5.34529 4.26016-1.74158 2.22386-2.98747 4.78263-3.73768 7.67632-.21435.85739-.3885 1.75497-.52247 2.69274-.0804.37511-.13397.77701-.16076 1.2057-.0804.75021-.13397 1.48704-.16076 2.21046-.0268.45549-.0268.89758 0 1.32627.0804 3.00086.77701 5.66681 2.08989 7.99784.0804.18755.18755.37511.32152.56266.0268.0804.067.14736.12057.20095 1.71478 2.67934 3.95203 4.03241 6.71176 4.05921h.0402c2.78652-.0536 5.34529-1.47364 7.67632-4.26016.16076-.18755.30812-.37511.44209-.56266.13397-.16076.26793-.33492.4019-.52247.21435-.29473.42869-.58945.64304-.88418.56266-.88418 1.05834-1.80856 1.48704-2.77312.99135-2.22386 1.6344-4.67546 1.92913-7.3548.0536-.42869.0938-.83059.12057-1.2057.24114-4.01902-.44209-7.47537-2.0497-10.36906-.45549-.8038-.93777-1.51383-1.44685-2.13008-.0536-.0268-.0938-.0536-.12057-.0804-1.55402-1.71478-3.41616-2.55877-5.58643-2.53198-.29473-.0268-.57606-.0134-.84399.0402m-67.88117 3.6573c-.34831 1.6612-.56266 3.40276-.64304 5.22472-.0536 1.01815-.067 2.02291-.0402 3.01426 0 .58945.0268 1.17891.0804 1.76837.34831 4.0726 1.48704 7.68972 3.41616 10.85134.21435.37511.42869.72342.64304 1.04494 2.54538 3.61711 5.68021 5.42567 9.4045 5.42567h.0804c4.01902-.0268 7.56915-2.18367 10.65039-6.47061l.48228-.72342c.26793-.4019.52247-.8038.76361-1.2057.69663-1.17891 1.29948-2.41141 1.80856-3.69749 1.17891-3.02766 1.87554-6.36344 2.08989-10.00735.32152-6.1089-.84399-11.32022-3.49654-15.63397-.66983-1.09853-1.37986-2.0497-2.13008-2.8535-.0536-.0536-.0938-.10717-.12057-.16076-.58945-.58945-1.17891-1.09853-1.76837-1.52723l-3.37597 2.37122c1.84875.8038 3.46975 2.35782 4.86301 4.66206 2.14348 3.56352 3.08124 7.89067 2.81331 12.98142-.26793 5.06396-1.6612 9.3911-4.17978 12.98142-1.07173 1.50043-2.21046 2.69274-3.41616 3.57692-.24114.16076-.48228.30812-.72342.44209-.29473.18755-.57606.36171-.84399.52247-3.21521 1.2057-6.02852.92437-8.43993-.84399 1.55402.77701 3.63051.88418 6.22947.32152-1.98272-.8038-3.69749-2.41141-5.14434-4.82282-.42869-.72342-.8038-1.47364-1.12532-2.25065l-4.98358-.16076c-.24114-.58945-.44209-1.19231-.60285-1.80856l4.9032.16076c-.34831-1.07173-.60285-2.19706-.76361-3.37597l-4.74244-.12057c-.0536-.56266-.0938-1.13872-.12057-1.72818-.0536-.93777-.0402-1.90234.0402-2.89369.10717-2.57217.52247-4.94339 1.24589-7.11366l-2.81331 1.96932c-.0268.0268-.0402.0536-.0402.0804m76.20052 29.41919h38.14045c2.65255-1.25929 5.18453-2.77312 7.59594-4.54149 1.68799-1.25929 3.29559-2.63915 4.82282-4.13959l-10.24849-.16076c-.24114 0-.44209-.0804-.60285-.24114-.16076-.16076-.25454-.36171-.28133-.60285 0-.21435.0804-.4153.24114-.60285l2.81331-3.49654c.0804-.10717.18755-.18755.32152-.24114.10717-.0804.22774-.10717.36171-.0804l11.37381.20095c.21435-.0268.4019.0268.56266.16076 1.71478-2.27744 3.28219-4.66206 4.70225-7.15385 1.28608-2.33103 2.49179-4.70225 3.61711-7.11366.0804-.21435.17416-.4153.28133-.60285l-10.77096-.52247c-.21435-.0268-.4019-.0938-.56266-.20095-.13397-.13397-.22774-.29473-.28133-.48228-.0536-.18755-.0402-.37511.0402-.56266l1.52723-3.45635c.0536-.18755.16076-.32152.32152-.4019.16076-.10717.33492-.16076.52247-.16076l11.09248.56266c.0804-.0268.16076-.0134.24114.0402 1.68799-4.39413 3.01426-8.89542 3.97882-13.50389.18755-.91097.3885-1.80856.60285-2.69274l-10.52982-.60285c-.18755-.0268-.34831-.0938-.48228-.20095-.16076-.10717-.26793-.24114-.32152-.4019-.0536-.16076-.067-.32152-.0402-.48228l.72342-3.53673c.0268-.21435.13397-.3885.32152-.52247.16076-.13397.36171-.18755.60285-.16076l10.57001.64304c.0268-.0268.067-.0268.12057 0 .88418-5.41227 1.44685-10.86474 1.68799-16.35739l-10.89153-.68323c-.24114-.0268-.44209-.13397-.60285-.32152-.13397-.16076-.20095-.33492-.20095-.52247-.0268-.0536-.0268-.0938 0-.12057l.24114-3.53673c0-.26793.0938-.46888.28133-.60285.16076-.18755.37511-.26793.64304-.24114l10.69058.72342V234.4402l-37.5376-2.41141c0 3.85825-.0938 7.71651-.28133 11.57476-.0804 1.6344-.17416 3.28219-.28133 4.94339-.0268.29473-.0402.58945-.0402.88418-.64304 8.65428-2.10329 17.121-4.38073 25.40018-.32152 1.09853-.65644 2.21046-1.00475 3.33578-2.97407 9.61885-7.31461 18.68842-13.02161 27.20873-4.68885 6.9395-10.24849 12.6733-16.67891 17.20138m-7.99783-28.73597c.32152.0268.62964.0804.92437.16076 1.44685.42869 2.65255 1.52723 3.61711 3.29559 1.12532 2.0631 1.60761 4.5013 1.44685 7.31461 0 .34831-.0134.71002-.0402 1.08513-.37511 3.242-1.44685 6.02852-3.21521 8.35955-.75021.96456-1.52723 1.74158-2.33103 2.33103-.0268 0-.0402.0134-.0402.0402-.13397.0804-.26793.16076-.4019.24114-.21435.10717-.4153.21435-.60285.32152-2.11668.77701-3.91184.60285-5.38548-.52247.88418.42869 2.0497.52247 3.49654.28133.16076-.0536.33492-.0938.52247-.12057-.18755-.0536-.34831-.12057-.48228-.20095-1.07173-.56266-1.96932-1.52723-2.69274-2.89369-.26793-.48228-.49568-.96456-.68323-1.44685l-3.21521-.0804c-.10717-.4019-.20095-.7904-.28133-1.16551l3.13483.0804c-.18755-.69663-.30812-1.42005-.36171-2.17027l-3.05445-.0804c-.0268-.37511-.0268-.73682 0-1.08513 0-.61625.0402-1.24589.12057-1.88894.0268-.37511.067-.73682.12057-1.08513.26793-1.74158.76361-3.33578 1.48704-4.78263.4019-.91097.91097-1.75497 1.52723-2.53198 1.76837-2.33103 3.72428-3.49654 5.86776-3.49654.16076 0 .33492.0134.52247.0402m-25.19924 5.54624c1.2057.34831 2.22386 1.24589 3.05445 2.69274.93777 1.6612 1.36647 3.6439 1.28608 5.94814 0 .26793-.0134.56266-.0402.88418-.24114 2.65255-1.05834 4.92999-2.4516 6.83233-.58945.8038-1.2057 1.43345-1.84875 1.88894l-.0402.0402c-.13397.0536-.25454.12057-.36171.20095-.16076.0804-.30812.16076-.44209.24114-1.71478.64304-3.18842.50907-4.42092-.4019.72342.34831 1.67459.42869 2.8535.24114.13397-.0536.28133-.0938.44209-.12057-.16076-.0536-.29473-.10717-.4019-.16076-.88418-.45549-1.6344-1.2325-2.25065-2.33103-.21435-.4019-.4019-.8038-.56266-1.2057l-2.65255-.0804c-.10717-.32152-.18755-.64304-.24114-.96456l2.57217.0804c-.16076-.56266-.26793-1.15211-.32152-1.76837l-2.53198-.0804c-.0268-.29473-.0268-.58945 0-.88418-.0268-.50907-.0134-1.01815.0402-1.52723.0268-.32152.0536-.61625.0804-.88418.18755-1.42005.56266-2.71953 1.12532-3.89844.32152-.75021.72342-1.43345 1.2057-2.0497 1.42005-1.90234 3.00086-2.8535 4.74244-2.8535.13397 0 .28133.0134.44209.0402.24114 0 .48228.0402.72342.12057m118.92268-64.9473c-.42869.42869-.95116.64304-1.56742.64304-.61625-.0268-1.12532-.25454-1.52723-.68323v.0402c-.45549-.42869-.68323-.95116-.68323-1.56742 0-.61625.22774-1.13872.68323-1.56742.4019-.45549.91097-.68323 1.52723-.68323.61625 0 1.13872.22774 1.56742.68323.42869.42869.65644.95116.68323 1.56742-.0268.58945-.25454 1.09853-.68323 1.52723v.0402m13.58427-2.25065c.61625 0 1.13872.22774 1.56742.68323.42869.42869.64304.93777.64304 1.52723 0 .61625-.21435 1.13872-.64304 1.56742v.0402c-.42869.42869-.95116.64304-1.56742.64304-.58945-.0268-1.09853-.25454-1.52723-.68323v.0402c-.45549-.45549-.68323-.99135-.68323-1.60761 0-.58945.22774-1.09853.68323-1.52723.42869-.45549.93777-.68323 1.52723-.68323m12.94123 3.73769c0-.61625.21435-1.13872.64304-1.56742.42869-.42869.95116-.64304 1.56742-.64304.61625 0 1.13872.21435 1.56742.64304.42869.42869.64304.95116.64304 1.56742 0 .61625-.21435 1.13872-.64304 1.56742-.42869.42869-.95116.64304-1.56742.64304-.61625 0-1.13872-.21435-1.56742-.64304-.42869-.42869-.64304-.95116-.64304-1.56742m18.08556 1.44684c0 .61625-.21435 1.13872-.64304 1.56742h-.0402c-.42869.42869-.93777.64304-1.52723.64304-.61625 0-1.13872-.21435-1.56742-.64304-.45549-.42869-.68323-.95116-.68323-1.56742 0-.61625.22774-1.13872.68323-1.56742.42869-.42869.95116-.64304 1.56742-.64304.61625 0 1.13872.21435 1.56742.64304h-.0402c.42869.42869.65644.95116.68323 1.56742m-86.52939-57.15039c.56266-.0268 1.04494.17416 1.44685.60285.37511.42869.57606.96456.60285 1.60761 0 .58945-.17416 1.09853-.52247 1.52723-.4019.42869-.87078.65644-1.40666.68323-.34831 0-.66983-.0804-.96456-.24114-.10717-.0536-.20095-.12057-.28133-.20095l-.16076-.16076c-.16076-.18755-.29473-.37511-.4019-.56266-.13397-.29473-.21435-.62964-.24114-1.00475-.0268-.61625.16076-1.13872.56266-1.56742.13397-.18755.29473-.32152.48228-.4019.26793-.18755.56266-.28133.88418-.28133m-.16076-11.93648c.4019.42869.61625.95116.64304 1.56742 0 .61625-.18755 1.13872-.56266 1.56742-.32152.34831-.68323.56266-1.08513.64304-.10717 0-.20095.0134-.28133.0402-.56266 0-1.04494-.20095-1.44685-.60285-.37511-.42869-.57606-.92437-.60285-1.48704v-.12057c-.0268-.58945.16076-1.09853.56266-1.52723.0536-.0804.10717-.14736.16076-.20095.34831-.32152.75021-.49568 1.2057-.52247.45549 0 .87078.16076 1.24589.48228v-.0402c.0536.0536.10717.12057.16076.20095m-2.61235-9.72602c-.0268.53587-.20095 1.00475-.52247 1.40666-.24114.26793-.50907.45549-.8038.56266-.18755.0536-.3885.0938-.60285.12057-.53587 0-1.00475-.20095-1.40666-.60285-.4019-.42869-.60285-.95116-.60285-1.56742-.0268-.61625.14736-1.13872.52247-1.56742.37511-.45549.84399-.68323 1.40666-.68323.53587-.0268 1.00475.17416 1.40666.60285.37511.42869.57606.95116.60285 1.56742v.16076m140.46456-41.637-15.99568 14.78998c.45549 1.58082 1.25929 3.01426 2.41141 4.30035l21.6223-12.49914c.75021.85739 1.13872 2.26405 1.16551 4.21997 0 .4019-.0134.53587-.0402.4019l-20.65774 9.76621c.8038.56266 1.67459 1.01815 2.61236 1.36647l16.7191-4.9032c-.29473 1.28608-1.36647 2.78652-3.21521 4.5013-2.8669 2.65255-6.28306 3.88505-10.24849 3.69749-2.25065-.10717-4.28695-.64304-6.1089-1.60761-1.2057-.64304-2.30424-1.46024-3.29559-2.4516h-.0402l-.56266-.56266v-.0402c-.58945-.64304-1.11192-1.31288-1.56742-2.00951l-.0804-.0804-.0402-.0402c-.8038-1.25929-1.39326-2.59896-1.76837-4.01902-.32152-1.28608-.45549-2.63915-.4019-4.05921.10717-3.93863 1.60761-7.23423 4.5013-9.88678 2.8669-2.65255 6.28306-3.88505 10.24849-3.69749 1.39326.0536 2.70614.28133 3.93863.68323.32152.10717.62964.22774.92437.36171 1.68799.77701 3.00086 1.71478 3.93863 2.81331-.18755-.10717-.36171-.18755-.52247-.24114-1.58082-.64304-2.75972-.91097-3.53673-.8038z"/><path fill="#fff" d="M288.539559 305.37573c5.707-8.52031 10.04754-17.58989 13.02161-27.20873.34831-1.12532.68323-2.23725 1.00475-3.33578 2.27744-8.27917 3.73768-16.74589 4.38073-25.40018 0-.29473.0134-.58945.0402-.88418.10717-1.6612.20095-3.30899.28133-4.94339.18755-3.85825.28133-7.71651.28133-11.57476l37.5376 2.41141v11.21305l-10.69058-.72342c-.26793-.0268-.48228.0536-.64304.24114-.18755.13397-.28133.33492-.28133.60285l-.24114 3.53673c-.0268.0268-.0268.067 0 .12057 0 .18755.067.36171.20095.52247.16076.18755.36171.29473.60285.32152l10.89153.68323c-.24114 5.49265-.8038 10.94512-1.68799 16.35739-.0536-.0268-.0938-.0268-.12057 0l-10.57001-.64304c-.24114-.0268-.44209.0268-.60285.16076-.18755.13397-.29473.30812-.32152.52247l-.72342 3.53673c-.0268.16076-.0134.32152.0402.48228.0536.16076.16076.29473.32152.4019.13397.10717.29473.17416.48228.20095l10.52982.60285c-.21435.88418-.4153 1.78177-.60285 2.69274-.96456 4.60847-2.29084 9.10976-3.97882 13.50389-.0804-.0536-.16076-.067-.24114-.0402l-11.09248-.56266c-.18755 0-.36171.0536-.52247.16076-.16076.0804-.26793.21435-.32152.4019l-1.52723 3.45635c-.0804.18755-.0938.37511-.0402.56266.0536.18755.14736.34831.28133.48228.16076.10717.34831.17416.56266.20095l10.77096.52247c-.10717.18755-.20095.3885-.28133.60285-1.12532 2.41141-2.33103 4.78263-3.61711 7.11366-1.42005 2.49179-2.98747 4.87641-4.70225 7.15385-.16076-.13397-.34831-.18755-.56266-.16076l-11.37381-.20095c-.13397-.0268-.25454 0-.36171.0804-.13397.0536-.24114.13397-.32152.24114l-2.81331 3.49654c-.16076.18755-.24114.3885-.24114.60285.0268.24114.12057.44209.28133.60285.16076.16076.36171.24114.60285.24114l10.24849.16076c-1.52723 1.50043-3.13483 2.88029-4.82282 4.13959-2.41141 1.76837-4.94339 3.28219-7.59594 4.54149h-38.14045c6.43042-4.52809 11.99006-10.26189 16.67891-17.20138m-92.83926-12.29817 2.81331-1.96932c-.72342 2.17027-1.13872 4.54149-1.24589 7.11366-.0804.99135-.0938 1.95592-.0402 2.89369.0268.58945.067 1.16551.12057 1.72818l4.74244.12057c.16076 1.17891.4153 2.30424.76361 3.37597l-4.9032-.16076c.16076.61625.36171 1.2191.60285 1.80856l4.98358.16076c.32152.77701.69663 1.52723 1.12532 2.25065 1.44685 2.41141 3.16162 4.01902 5.14434 4.82282-2.59896.56266-4.67546.45549-6.22947-.32152 2.41141 1.76837 5.22472 2.0497 8.43993.84399.26793-.16076.54926-.33492.84399-.52247.24114-.13397.48228-.28133.72342-.44209 1.2057-.88418 2.34443-2.07649 3.41616-3.57692 2.51858-3.59032 3.91184-7.91746 4.17978-12.98142.26793-5.09075-.66983-9.41789-2.81331-12.98142-1.39326-2.30424-3.01426-3.85825-4.86301-4.66206l3.37597-2.37122c.58945.42869 1.17891.93777 1.76837 1.52723.0268.0536.067.10717.12057.16076.75021.8038 1.46024 1.75497 2.13008 2.8535 2.65255 4.31375 3.81806 9.52507 3.49654 15.63397-.21435 3.6439-.91097 6.97969-2.08989 10.00735-.50907 1.28608-1.11192 2.51858-1.80856 3.69749-.24114.4019-.49568.8038-.76361 1.2057l-.48228.72342c-3.08124 4.28695-6.63137 6.44382-10.65039 6.47061h-.0804c-3.72428 0-6.85912-1.80856-9.4045-5.42567-.21435-.32152-.42869-.66983-.64304-1.04494-1.92913-3.16162-3.06785-6.77874-3.41616-10.85134-.0536-.58945-.0804-1.17891-.0804-1.76837-.0268-.99135-.0134-1.99611.0402-3.01426.0804-1.82196.29473-3.56352.64304-5.22472 0-.0268.0134-.0536.0402-.0804m68.68498-3.61711c2.17027-.0268 4.03241.8172 5.58643 2.53198.0268.0268.067.0536.12057.0804.50907.61625.99135 1.32627 1.44685 2.13008 1.60761 2.89369 2.29084 6.35004 2.0497 10.36906-.0268.37511-.067.77701-.12057 1.2057-.29473 2.67934-.93777 5.13094-1.92913 7.3548-.42869.96456-.92437 1.88894-1.48704 2.77312-.21435.29473-.42869.58945-.64304.88418-.13397.18755-.26793.36171-.4019.52247-.13397.18755-.28133.37511-.44209.56266-2.33103 2.78652-4.8898 4.20657-7.67632 4.26016h-.0402c-2.75972-.0268-4.99698-1.37986-6.71176-4.05921-.0536-.0536-.0938-.12057-.12057-.20095-.13397-.18755-.24114-.37511-.32152-.56266-1.31288-2.33103-2.00951-4.99698-2.08989-7.99784-.0268-.42869-.0268-.87078 0-1.32627.0268-.72342.0804-1.46024.16076-2.21046.0268-.42869.0804-.83059.16076-1.2057.13397-.93777.30812-1.83535.52247-2.69274.75021-2.89369 1.99611-5.45246 3.73768-7.67632 1.6612-2.14348 3.44295-3.56352 5.34529-4.26016.61625-.13397 1.28608-.28133 2.00951-.44209.26793-.0536.54926-.067.84399-.0402m-1.04494 4.34054c-2.14348 0-4.0994 1.16551-5.86776 3.49654-.61625.77701-1.12532 1.62101-1.52723 2.53198-.72342 1.44685-1.2191 3.04105-1.48704 4.78263-.0536.34831-.0938.71002-.12057 1.08513-.0804.64304-.12057 1.27269-.12057 1.88894-.0268.34831-.0268.71002 0 1.08513l3.05445.0804c.0536.75021.17416 1.47364.36171 2.17027l-3.13483-.0804c.0804.37511.17416.76361.28133 1.16551l3.21521.0804c.18755.48228.4153.96456.68323 1.44685.72342 1.36647 1.62101 2.33103 2.69274 2.89369.13397.0804.29473.14736.48228.20095-.18755.0268-.36171.067-.52247.12057-1.44685.24114-2.61236.14736-3.49654-.28133 1.47364 1.12532 3.2688 1.29948 5.38548.52247.18755-.10717.3885-.21435.60285-.32152.13397-.0804.26793-.16076.4019-.24114 0-.0268.0134-.0402.0402-.0402.8038-.58945 1.58082-1.36647 2.33103-2.33103 1.76837-2.33103 2.8401-5.11755 3.21521-8.35955.0268-.37511.0402-.73682.0402-1.08513.16076-2.81331-.32152-5.25151-1.44685-7.31461-.96456-1.76837-2.17027-2.8669-3.61711-3.29559-.29473-.0804-.60285-.13397-.92437-.16076-.18755-.0268-.36171-.0402-.52247-.0402m-25.72168 1.88893c.21435-.0268.44209-.0402.68323-.0402 1.76837 0 3.29559.69663 4.58168 2.08989l.0804.0804c.42869.48228.84399 1.05834 1.24589 1.72818 1.36647 2.35782 1.98272 5.17113 1.84875 8.43993l-.0804.96456c-.21435 2.19706-.69663 4.20657-1.44685 6.02852-.34831.77701-.73682 1.52723-1.16551 2.25065-.16076.24114-.33492.48228-.52247.72342-.10717.13397-.20095.28133-.28133.44209-.13397.16076-.25454.32152-.36171.48228-1.84875 2.25065-3.91184 3.38937-6.18928 3.41616h-.0402c-2.25065 0-4.0994-1.08513-5.54624-3.2554-.0536-.0536-.0938-.10717-.12057-.16076-.10717-.16076-.20095-.32152-.28133-.48228-1.09853-1.90234-1.70139-4.086-1.80856-6.55099-.0268-.34831-.0402-.69663-.0402-1.04494 0-.61625.0268-1.2325.0804-1.84875.0268-.32152.067-.64304.12057-.96456.0804-.75021.21435-1.47364.4019-2.17027.56266-2.35782 1.52723-4.44771 2.89369-6.26966 1.31288-1.76837 2.74633-2.93388 4.30035-3.49654.48228-.10717 1.03154-.22774 1.6478-.36171m.32151 3.57692c-.16076-.0268-.30812-.0402-.44209-.0402-1.74158 0-3.32238.95116-4.74244 2.8535-.48228.61625-.88418 1.29948-1.2057 2.0497-.56266 1.17891-.93777 2.47839-1.12532 3.89844-.0268.26793-.0536.56266-.0804.88418-.0536.50907-.067 1.01815-.0402 1.52723-.0268.29473-.0268.58945 0 .88418l2.53198.0804c.0536.61625.16076 1.2057.32152 1.76837l-2.57217-.0804c.0536.32152.13397.64304.24114.96456l2.65255.0804c.16076.4019.34831.8038.56266 1.2057.61625 1.09853 1.36647 1.87554 2.25065 2.33103.10717.0536.24114.10717.4019.16076-.16076.0268-.30812.067-.44209.12057-1.17891.18755-2.13008.10717-2.8535-.24114 1.2325.91097 2.70614 1.04494 4.42092.4019.13397-.0804.28133-.16076.44209-.24114.10717-.0804.22774-.14736.36171-.20095l.0402-.0402c.64304-.45549 1.25929-1.08513 1.84875-1.88894 1.39326-1.90234 2.21046-4.17978 2.4516-6.83233.0268-.32152.0402-.61625.0402-.88418.0804-2.30424-.34831-4.28695-1.28608-5.94814-.83059-1.44685-1.84875-2.34443-3.05445-2.69274-.24114-.0804-.48228-.12057-.72342-.12057m-.00002-12.6197-.56266-3.53673 6.18928-3.81806.0804.0804.0804-.0804c.26793.53587.57606 1.03154.92437 1.48704l.60285.68323c.34831.34831.73682.68323 1.16551 1.00475l-8.48012 4.17978m10.89154-20.0549c-2.89369 1.90234-6.97969 4.64866-12.258 8.23898-2.54538 1.71478-5.37208 3.63051-8.48012 5.74719-.45549-.66983-.91097-1.29948-1.36647-1.88894-1.44685-1.84875-2.98747-3.242-4.62187-4.17978l25.35998-17.84443c.10717 4.39413.56266 7.70311 1.36647 9.92697m45.25412-41.35565c3.21521 5.25151 5.01037 11.37381 5.38548 18.3669.0536 1.07173.0804 2.17027.0804 3.29559-.0268.83059-.0536 1.67459-.0804 2.53198-.29473 5.65341-1.36647 10.81115-3.21521 15.47321-.8038 2.00951-1.72818 3.92524-2.77312 5.74719-.4019.64304-.8172 1.27269-1.24589 1.88894-.24114.37511-.48228.75021-.72342 1.12532-.29473.37511-.58945.76361-.88418 1.16551-4.58168 5.86776-9.793 8.82843-15.63397 8.88202h-.12057c-5.76059 0-10.5968-2.81331-14.50864-8.43993-.10717-.16076-.21435-.30812-.32152-.44209-.24114-.4019-.48228-.7904-.72342-1.16551-2.97407-4.87641-4.72904-10.48963-5.26491-16.83967-.0804-.88418-.13397-1.79516-.16076-2.73293-.0268-.64304-.0402-1.28608-.0402-1.92913l3.61711-2.53198c-.0804 1.42005-.0804 2.79991 0 4.13959.0268.88418.0938 1.75497.20095 2.61236l7.27442.20095c.26793 1.79516.65644 3.52333 1.16551 5.18453l-7.51556-.24114c.24114.93777.53587 1.87554.88418 2.81331l7.67632.20095c.48228 1.2057 1.05834 2.35782 1.72818 3.45635 1.92913 3.21521 4.15298 5.49265 6.67156 6.83233.4019.21435.83059.4019 1.28608.56266-3.99222.85739-7.19404.71002-9.60545-.44209 3.69749 2.70614 7.99784 3.12143 12.90104 1.24589h.0402c.45549-.21435.89758-.46888 1.32627-.76361.32152-.18755.65644-.3885 1.00475-.60285.0268-.0536.0536-.0938.0804-.12057 1.84875-1.33967 3.59032-3.17502 5.22472-5.50605 3.85825-5.46586 6.01512-12.05705 6.47061-19.77355-.0268-.0536-.0268-.0938 0-.12057.0536-.88418.0804-1.74158.0804-2.57217 0-1.07173-.0402-2.11668-.12057-3.13483-.4019-5.41227-1.83535-10.16811-4.30035-14.2675-.37511-.61625-.75021-1.19231-1.12532-1.72818l4.70225-3.33578c.18755.32152.37511.64304.56266.96456m-6.43042-99.67158c.0268-.18755.0804-.34831.16076-.48228.0536-.16076.33492-.26793.84399-.32152h.20095c.24114-.0268.53587-.067.88418-.12057.42869-.0536.89758-.12057 1.40666-.20095.50907-.0804.99135-.21435 1.44685-.4019 0-.0268.0134-.0402.0402-.0402.0536-.13397.13397-.25454.24114-.36171.0804-.16076.17416-.30812.28133-.44209.10717-.16076.21435-.32152.32152-.48228.0804-.13397.16076-.24114.24114-.32152 0-.0536.0268-.0938.0804-.12057h.16076c.45549-.0268.91097.0268 1.36647.16076 0 .0536.0134.12057.0402.20095.0536.18755.12057.36171.20095.52247.0268.16076.067.34831.12057.56266.0268.0804.0804.24114.16076.48228.0268.13397.0536.24114.0804.32152l.0804.0804c.16076.0268.33492.0804.52247.16076.13397.0268.29473.067.48228.12057.0804.0268.14736.067.20095.12057.0536 0 .14736.0402.28133.12057.13397.0536.20095.16076.20095.32152-.10717.42869-.17416.75021-.20095.96456-.0268.16076-.0804.3885-.16076.68323-.0536.0804-.0938.18755-.12057.32152-.16076.42869-.30812.84399-.44209 1.24589l-.24114.60285c-.0536.10717-.17416.25454-.36171.44209-.21435.16076-.54926.33492-1.00475.52247-.48228.16076-.97796.28133-1.48704.36171-.13397 0-.26793.0134-.4019.0402h-1.08513c-.16076-.0268-.29473-.0402-.4019-.0402l-1.2057-.32152c-.4019-.21435-.77701-.4153-1.12532-.60285-.4019-.21435-.73682-.49568-1.00475-.84399-.18755-.37511-.33492-.77701-.44209-1.2057-.0536-.18755-.10717-.36171-.16076-.52247-.0536-.24114-.10717-.48228-.16076-.72342-.0536-.0804-.067-.16076-.0402-.24114-.0268-.0268-.0402-.0536-.0402-.0804v-.0804c-.0268-.0268-.0268-.0536 0-.0804-.0268-.10717-.0134-.21435.0402-.32152m-2.81333-10.00735c5.25151-.50907 10.2217-.0536 14.91055 1.36647.18755.26793.30812.49568.36171.68323.18755 1.25929.0134 2.74633-.52247 4.46111v.0402c-.0804.24114-.21435.48228-.4019.72342-.56266.0804-1.2191.0536-1.96932-.0804v-.12057l-.4019-1.08513-.0402-.0804-.24114-.64304c-.18755-.45549-.48228-.68323-.88418-.68323-.72342-.10717-1.44685-.17416-2.17027-.20095-.45549-.0536-.83059.16076-1.12532.64304l-.60285.8038c-.0536.0268-.0938.0536-.12057.0804l-.32152.44209c-.37511.26793-.88418.4153-1.52723.44209-1.90234.13397-3.63051 0-5.18453-.4019-.32152-.13397-.54926-.99135-.68323-2.57217-.0804-1.01815-.0402-2.14348.12057-3.37597.10717-.10717.22774-.18755.36171-.24114.0804-.0536.16076-.0938.24114-.12057.0536-.0536.12057-.0804.20095-.0804m95.0497 67.39887 5.22472-2.73293c.0804.21435.16076.42869.24114.64304.83059 2.00951 1.52723 4.12619 2.08989 6.35004.18755.72342.36171 1.47364.52247 2.25065.0804.4019.16076.83059.24114 1.28608v.0402c.13397.66983.29473 1.79516.48228 3.37597.0536.50907.10717 1.05834.16076 1.6478l-9.68583-1.2057.32152-.96456c.0804-.32152.16076-.64304.24114-.96456.16076-.64304.28133-1.28608.36171-1.92913.0268-.0804.0402-.16076.0402-.24114.13397-1.01815.18755-2.07649.16076-3.17502-.0268-1.42005-.16076-2.88029-.4019-4.38073m-25.44036 36.3319c-1.07173-2.92048-2.4516-5.65341-4.13959-8.19879l35.84961 3.49654c1.79516.50907 3.49654 1.09853 5.10415 1.76837 4.31375 1.84875 7.83708 4.39413 10.57001 7.63613v.0402c3.69749 4.66206 5.19793 10.78436 4.5013 18.3669l-57.99439-5.3051c-.0268-1.17891-.0536-2.34443-.0804-3.49654l7.39499-7.15385c.21435-.24114.34831-.49568.4019-.76361l.0402-.16076V224.9552c-.32152-1.47364-.71002-2.89369-1.16551-4.26016-.16076-.48228-.32152-.95116-.48228-1.40666m47.06267 16.51815h.0402c-.42869-.42869-.95116-.64304-1.56742-.64304-.61625 0-1.13872.21435-1.56742.64304-.45549.42869-.68323.95116-.68323 1.56742 0 .61625.22774 1.13872.68323 1.56742.42869.42869.95116.64304 1.56742.64304.58945 0 1.09853-.21435 1.52723-.64304h.0402c.42869-.42869.64304-.95116.64304-1.56742-.0268-.61625-.25454-1.13872-.68323-1.56742m-16.75929 1.68798c.42869.42869.95116.64304 1.56742.64304.61625 0 1.13872-.21435 1.56742-.64304.42869-.42869.64304-.95116.64304-1.56742 0-.61625-.21435-1.13872-.64304-1.56742-.42869-.42869-.95116-.64304-1.56742-.64304-.61625 0-1.13872.21435-1.56742.64304-.42869.42869-.64304.95116-.64304 1.56742 0 .61625.21435 1.13872.64304 1.56742m-15.1115-4.62186c-.45549.42869-.68323.93777-.68323 1.52723 0 .61625.22774 1.15211.68323 1.60761v-.0402c.42869.42869.93777.65644 1.52723.68323.61625 0 1.13872-.21435 1.56742-.64304v-.0402c.42869-.42869.64304-.95116.64304-1.56742 0-.58945-.21435-1.09853-.64304-1.52723-.42869-.45549-.95116-.68323-1.56742-.68323-.58945 0-1.09853.22774-1.52723.68323m-12.05704 1.52722c.42869-.42869.65644-.93777.68323-1.52723-.0268-.61625-.25454-1.13872-.68323-1.56742-.42869-.45549-.95116-.68323-1.56742-.68323-.61625 0-1.12532.22774-1.52723.68323-.45549.42869-.68323.95116-.68323 1.56742 0 .61625.22774 1.13872.68323 1.56742v-.0402c.4019.42869.91097.65644 1.52723.68323.61625 0 1.13872-.21435 1.56742-.64304v-.0402m6.02852-42.8427 12.29819-6.47061c.0804.85739.12057 1.68799.12057 2.49179 0 .93777-.067 1.88894-.20095 2.8535v.0804c-.10717.53587-.21435 1.08513-.32152 1.6478v-.0402c-.0804.18755-.17416.50907-.28133.96456-.0536.0268-.0804.0804-.0804.16076l-.0804.28133c-.0268.10717-.067.25454-.12057.44209-.0268.0268-.0402.067-.0402.12057l-11.49438-1.52723v-.36171c.0804-.21435.14736-.42869.20095-.64304m-58.03459 7.03328c2.65255.18755 5.27831.36171 7.87727.52247.13397.0268.28133.0402.44209.0402.56266.0268 1.13872.067 1.72818.12057 3.02766.21435 5.82757.52247 8.39974.92437 3.53673.56266 6.65817 1.31288 9.36431 2.25065.85739.29473 1.67459.60285 2.4516.92437.8038.48228 1.56742.99135 2.29084 1.52723 1.12532.8038 2.19706 1.67459 3.21521 2.61236.85739.8038 1.67459 1.67459 2.4516 2.61236.61625.75021 1.2191 1.54063 1.80856 2.37122v.0402c1.36647 1.95592 2.54538 4.00562 3.53673 6.14909.29473.66983.57606 1.33967.84399 2.00951.32152.85739.68323 1.96932 1.08513 3.33578l-44.93259-3.93863c-2.0631-6.99309-5.14434-12.03025-9.24373-15.1115-1.28608-.96456-2.66595-1.72818-4.13959-2.29084-1.82196.42869-3.80466 1.00475-5.94814 1.72818-8.9758 3.00086-20.79171 8.42653-35.44771 16.27701-2.38462 1.25929-4.82282 2.58557-7.31461 3.97882 1.87554-1.36647 3.73768-2.69274 5.58643-3.97882 9.99395-6.91271 19.61279-12.45895 28.85653-16.63872 3.77787-1.71478 7.48877-3.20181 11.13267-4.46111 1.87554-.64304 3.73768-1.2191 5.58643-1.72818 1.6612.10717 3.30899.22774 4.94339.36171 1.82196.10717 3.63051.22774 5.42567.36171m14.78998-3.53672h-.0402c-2.00951-.26793-4.13959-.48228-6.39023-.64304h-.16077c-.88418-.0804-1.96932-.16076-3.2554-.24114-1.04494-.0804-2.23725-.14736-3.57692-.20095l.0804-3.89844 91.11107 11.05229.16076 3.73768-5.46586-.16076c-1.39326-.0536-2.53198.52247-3.41616 1.72818l-2.93388 3.57692-39.86863-4.0994h-.0402c0-.0268-.0134-.0402-.0402-.0402-.10717-.13397-.21435-.25454-.32152-.36171-.0536-.0536-.0938-.10717-.12057-.16076-.83059-.83059-1.71478-1.60761-2.65255-2.33103-.75021-.58945-1.51383-1.13872-2.29084-1.6478-1.42005-.93777-2.93388-1.79516-4.54149-2.57217-.0804-.0268-.14736-.0402-.20095-.0402-3.10804-1.33967-7.22083-2.41141-12.33838-3.21521-1.2057-.18755-2.4382-.34831-3.69749-.48228m.92436-29.57996c1.09853 3.77787 1.83535 6.9663 2.21046 9.56526.21435 1.47364.3885 2.82671.52247 4.05921.0804.99135.14736 1.91573.20095 2.77312.0804 1.50043.10717 3.32238.0804 5.46586v.4019h-.0402l-15.75454-2.00951h-.20095c-.0804-1.50043-.20095-2.96067-.36171-4.38073-.0268-.16076-.0402-.32152-.0402-.48228-.13397-1.12532-.28133-2.22386-.44209-3.29559-.13397-.85739-.26793-1.71478-.4019-2.57217-.26793-1.47364-.56266-2.93388-.88418-4.38073-.13397-.53587-.26793-1.05834-.4019-1.56742-1.42005-5.57303-3.02766-10.54322-4.82282-14.91055-.0268-.37511.0134-.69663.12057-.96456.26793-.96456 1.12532-1.39326 2.57217-1.28608l65.7109 9.44469c.34831.24114.71002.49568 1.08513.76361l-8.07822 5.707-36.13095-4.98358c-.8038.0536-1.54063.22774-2.21046.52247-1.04494.42869-1.95592 1.13872-2.73293 2.13008m-8.39974-7.07346c-.0268-.61625-.22774-1.13872-.60285-1.56742-.4019-.42869-.87078-.62964-1.40666-.60285-.56266 0-1.03154.22774-1.40666.68323-.37511.42869-.54926.95116-.52247 1.56742 0 .61625.20095 1.13872.60285 1.56742.4019.4019.87078.60285 1.40666.60285.21435-.0268.4153-.067.60285-.12057.29473-.10717.56266-.29473.8038-.56266.32152-.4019.49568-.87078.52247-1.40666v-.16076m2.45161 9.68582v.0402c-.37511-.32152-.7904-.48228-1.24589-.48228-.45549.0268-.85739.20095-1.2057.52247-.0536.0536-.10717.12057-.16076.20095-.4019.42869-.58945.93777-.56266 1.52723v.12057c.0268.56266.22774 1.05834.60285 1.48704.4019.4019.88418.60285 1.44685.60285.0804-.0268.17416-.0402.28133-.0402.4019-.0804.76361-.29473 1.08513-.64304.37511-.42869.56266-.95116.56266-1.56742-.0268-.61625-.24114-1.13872-.64304-1.56742-.0536-.0804-.10717-.14736-.16076-.20095m-.56267 12.41876c-.18755.0804-.34831.21435-.48228.4019-.4019.42869-.58945.95116-.56266 1.56742.0268.37511.10717.71002.24114 1.00475.10717.18755.24114.37511.4019.56266l.16076.16076c.0804.0804.17416.14736.28133.20095.29473.16076.61625.24114.96456.24114.53587-.0268 1.00475-.25454 1.40666-.68323.34831-.42869.52247-.93777.52247-1.52723-.0268-.64304-.22774-1.17891-.60285-1.60761-.4019-.42869-.88418-.62964-1.44685-.60285-.32152 0-.61625.0938-.88418.28133m37.29646-5.54623c-.77701.99135-2.55877 6.13569-5.34529 15.43302l-15.63397-1.80856c.16076-.29473.30812-.56266.44209-.8038 1.60761-3.242 2.30424-6.77874 2.08989-10.6102-.21435-3.16162-1.51383-6.36344-3.89844-9.60545.16076-.10717.32152-.16076.48228-.16076h.0402l27.40968 3.69749-5.58643 3.85825m-48.63009-28.0929c-3.96543-.26793-7.79689.3885-11.49438 1.96932-.96456.4019-1.90234.83059-2.81331 1.28608-1.71478.83059-3.42956 1.6612-5.14434 2.49179-1.50043.75021-3.00086 1.50043-4.5013 2.25065-.24114.10717-.85739.44209-1.84875 1.00475-.88418-1.44685-2.23725-3.6439-4.05921-6.59118l3.6573 2.29084c.13397-2.8401.12057-4.9166-.0402-6.22947-.18755-1.31288-.36171-2.69274-.52247-4.13959-.18755-1.44685-.69663-3.36257-1.52723-5.74719l4.54149-.68323c.13397.18755.28133.37511.44209.56266.45549.58945.97796 1.13872 1.56742 1.6478.45549.42869.95116.8172 1.48704 1.16551 1.12532.83059 2.34443 1.51383 3.6573 2.0497 1.84875.72342 3.76447 1.07173 5.74719 1.04494 2.0631 0 3.88505-.64304 5.46586-1.92913l1.2057-2.37122c1.2057.26793 2.35782.69663 3.45635 1.28608-.0804 1.52723-.0268 3.37597.16076 5.54624l.64304 3.13483h-.0804v-.0402m102.16339-2.04969c.0804 1.2057.26793 2.35782.56266 3.45635.34831 1.31288.87078 2.55877 1.56742 3.73768v.0402l-53.09119 32.31288c-.0536-.10717-.10717-.22774-.16076-.36171-.21435-.61625-.34831-1.27269-.4019-1.96932-.0268-.4019-.0268-.7904 0-1.16551l.0804-.48228c.18755-1.12532.66983-2.13008 1.44685-3.01426.4019-.45549.84399-.83059 1.32627-1.12532.0268-.0268.0536-.0402.0804-.0402l48.63008-33.71954c-.0804.75021-.0938 1.52723-.0402 2.33103m39.30596 107.34789-10.00735-.60285c-.21435-.0268-.4019.0268-.56266.16076-.16076.13397-.25454.30812-.28133.52247-.0268.10717-.0402.21435-.0402.32152v.0402c-.0804 1.04494-.16076 2.11668-.24114 3.21521-.0268.21435.0402.4153.20095.60285.13397.16076.32152.24114.56266.24114l10.28868.68323c-.21435 5.3051-.83059 10.57001-1.84875 15.79473-.0536-.0268-.0938-.0402-.12057-.0402l-11.13267-.60285c-.18755-.0268-.36171.0268-.52247.16076-.16076.0804-.26793.21435-.32152.4019-.0536.26793-.10717.53587-.16076.8038-.0268 0-.0402.0134-.0402.0402-.24114.88418-.46888 1.78177-.68323 2.69274-.0536.16076-.0536.30812 0 .44209.0536.16076.14736.29473.28133.4019.10717.0804.25454.13397.44209.16076l11.05229.64304c-1.25929 4.87641-2.89369 9.60545-4.9032 14.18712-.0804-.0268-.16076-.0402-.24114-.0402l-11.45419-.52247c-.18755-.0268-.34831 0-.48228.0804-.13397.0804-.22774.20095-.28133.36171-.10717.21435-.21435.44209-.32152.68323v.0402c-.0804.0804-.12057.17416-.12057.28133l-.0402.0402c-.0268.0536-.067.13397-.12057.24114-.34831.72342-.69663 1.44685-1.04494 2.17027-.0804.16076-.10717.33492-.0804.52247.0268.16076.12057.30812.28133.44209.13397.10717.29473.17416.48228.20095l11.0121.52247-.56266 1.12532c-.8038 1.47364-1.6478 2.93388-2.53198 4.38073-1.60761 2.62576-3.36257 5.10415-5.26491 7.43518-.16076-.13397-.32152-.20095-.48228-.20095l-11.33362-.16076c-.13397 0-.25454.0268-.36171.0804-.10717.0268-.20095.0938-.28133.20095-.64304.8038-1.29948 1.62101-1.96932 2.4516-.0268 0-.0402.0268-.0402.0804h-.0402c-.29473.32152-.57606.64304-.84399.96456-.16076.16076-.22774.34831-.20095.56266 0 .21435.0804.4019.24114.56266.16076.13397.34831.20095.56266.20095l10.2083.16076c-2.81331 2.67934-5.89455 5.10415-9.24373 7.27442h-30.34356l4.66206-4.17978 4.70225-5.10415c4.23337-5.01037 7.79689-10.47623 10.69058-16.39758.26793-.58945.54926-1.19231.84399-1.80856 2.92048-6.1089 5.19793-12.45895 6.83233-19.05013.16076-.66983.32152-1.33967.48228-2.00951 1.90234-7.98444 3.00086-16.06266 3.29559-24.23466v-.36171c.0804-2.70614.0402-5.41227-.12057-8.11841l31.10718 2.8535c.18755 1.71478.30812 3.46975.36171 5.26491.0268.24114.0402.50907.0402.8038.0268.64304.0402 1.28608.0402 1.92913m-4.38075-35.80938c3.08124 2.19706 5.86776 5.25151 8.35955 9.16335 1.6612 2.62576 3.14823 5.35869 4.46111 8.19879l-36.09076-3.45635c-.85739-5.51945-3.13483-10.15471-6.83233-13.90579-2.54538-2.57217-5.73379-4.71565-9.56526-6.43042-.21435-.10717-.42869-.20095-.64304-.28133-.16076-.0536-.30812-.10717-.44209-.16076h.68325c.18755 0 .37511.0134.56266.0402 13.98617.61625 25.07865 1.84875 33.27744 3.69749 2.19706.69663 4.27356 1.74158 6.22947 3.13483m19.37167-99.26968c.75021.83059 1.43345 1.68799 2.0497 2.57217 1.95592 2.97407 2.88029 6.32325 2.77312 10.04754-.16076 4.79603-2.00951 8.82843-5.54624 12.09724-1.84875 1.68799-3.88505 2.92048-6.1089 3.69749-.0268 0-.0536.0134-.0804.0402-.0268 0-.0402.0134-.0402.0402-2.00951.64304-4.13959.91097-6.39023.8038-3.34918-.16076-6.30985-1.09853-8.88202-2.81331-.0536-.0268-.0938-.0402-.12057-.0402-.21435-.16076-.4153-.30812-.60285-.44209-.13397-.10717-.25454-.18755-.36171-.24114-.85739-.66983-1.6612-1.40666-2.41141-2.21046-.8038-.88418-1.50043-1.79516-2.08989-2.73293-.99135-1.52723-1.70139-3.14823-2.13008-4.86301-.26793-1.28608-.42869-2.51858-.48228-3.69749-.0536-1.17891-.067-1.90234-.0402-2.17027-1.2325 2.33103-1.75497 4.56828-1.56742 6.71176l-19.41184 13.30294c-.18755-.8038-.30812-1.6344-.36171-2.49179v-.0402c-.0536-.85739-.0402-1.67459.0402-2.4516.0804-.72342.21435-1.40666.4019-2.0497l.0402-.0402v-.0402h.0402v-.0804c.18755-.66983.42869-1.32627.72342-1.96932.53587-1.09853 1.24589-2.14348 2.13008-3.13483.0804-.13397.17416-.24114.28133-.32152l4.82282-4.0994c5.19793-4.5013 10.65039-9.00259 16.35739-13.50389l3.89844-2.89369c3.18842-2.00951 6.76534-2.92048 10.73077-2.73293 4.87641.24114 8.98919 2.15687 12.33838 5.74719m-6.43043-1.92912c-.29473-.13397-.60285-.25454-.92437-.36171-1.2325-.4019-2.54538-.62964-3.93863-.68323-3.96543-.18755-7.38159 1.04494-10.24849 3.69749-2.89369 2.65255-4.39413 5.94814-4.5013 9.88678-.0536 1.42005.0804 2.77312.4019 4.05921.37511 1.42005.96456 2.75972 1.76837 4.01902l.0402.0402.0804.0804c.45549.69663.97796 1.36647 1.56742 2.00951v.0402l.56266.56266h.0402c.99135.99135 2.08989 1.80856 3.29559 2.4516 1.82196.96456 3.85825 1.50043 6.1089 1.60761 3.96543.18755 7.38159-1.04494 10.24849-3.69749 1.84875-1.71478 2.92048-3.21521 3.21521-4.5013l-16.7191 4.9032c-.93777-.34831-1.80856-.8038-2.61236-1.36647l20.65774-9.76621c.0268.13397.0402 0 .0402-.4019-.0268-1.95592-.4153-3.36257-1.16551-4.21997l-21.6223 12.49914c-1.15211-1.28608-1.95592-2.71953-2.41141-4.30035l15.99568-14.78998c.77701-.10717 1.95592.16076 3.53673.8038.16076.0536.33492.13397.52247.24114-.93777-1.09853-2.25065-2.0363-3.93863-2.81331z"/></g><g style="mix-blend-mode:normal;fill-rule:nonzero;stroke-miterlimit:10;stroke-dasharray:none;stroke-dashoffset:0"><path d="M529.866179-51.34447V63.10294h-397.2833V-51.34447Z"/><path fill="none" stroke="#000" stroke-linecap="round" stroke-linejoin="round" stroke-width="9" d="M133.252939-51.07579h397.18753V63.36393h-397.18753Z"/><path fill="#fff" d="M461.021219 55.901c.66983-.34831 1.35307-.42869 2.0497-.24114.53587.13397.99135.42869 1.36647.88418.37511.45549.58945.96456.64304 1.52723.0536.53587-.0536 1.07173-.32152 1.60761-.29473.50907-.68323.89758-1.16551 1.16551-.50907.26793-1.04494.36171-1.60761.28133-.58945-.05359-1.09853-.26793-1.52723-.64304-.42869-.34831-.71002-.8172-.84399-1.40666-.16076-.56266-.14736-1.11192.0402-1.6478.24114-.66983.69663-1.17891 1.36647-1.52723m-23.63183-33.55877c1.6612-1.58082 3.6573-2.37122 5.98833-2.37122h12.41876c.50907 0 .76361.26793.76361.8038v5.3051c0 .53587-.25454.8038-.76361.8038h-12.41876c-.88418-.02679-1.32627.37511-1.32627 1.2057v7.99784c0 .77701.44209 1.16551 1.32627 1.16551h4.74244c2.35782 0 4.36733.8038 6.02852 2.41141 1.60761 1.58082 2.41141 3.50994 2.41141 5.78738v7.79689c0 2.25065-.83059 4.16638-2.49179 5.74719-1.6612 1.58082-3.6439 2.37122-5.94814 2.37122h-12.37857c-.58945 0-.88418-.26793-.88418-.8038v-5.26491c0-.53587.29473-.8038.88418-.8038h12.37857c.8038 0 1.2057-.4153 1.2057-1.24589v-7.79689c0-.83059-.4019-1.2325-1.2057-1.2057h-4.74244c-2.33103-.02679-4.32714-.84399-5.98833-2.4516-1.68799-1.58082-2.53198-3.48314-2.53198-5.707v-7.99784c0-2.25065.84399-4.16638 2.53198-5.74719m38.14045-1.32627v29.49957c0 .58945-.067 1.15211-.20095 1.68799v8.43993c0 .48228-.25454.72342-.76361.72342h-5.58643c-.56266 0-.83059-.24114-.8038-.72342V31.18406c0-.58945.067-1.15211.20095-1.68799v-8.48012c0-.48228.25454-.72342.76361-.72342h5.58643c.56266 0 .83059.24114.8038.72342m8.31936 1.32627c1.6612-1.58082 3.6573-2.37122 5.98833-2.37122h4.58168c2.33103 0 4.32714.7904 5.98833 2.37122 1.6612 1.58082 2.49179 3.49654 2.49179 5.74719v25.15903c0 2.25065-.83059 4.16638-2.49179 5.74719-1.6612 1.58082-3.6573 2.37122-5.98833 2.37122h-4.58168c-2.33103 0-4.32714-.7904-5.98833-2.37122-1.71478-1.58082-2.55877-3.49654-2.53198-5.74719V28.08941c-.0268-2.25065.8172-4.16638 2.53198-5.74719m4.62187 5.74719v25.15903c0 .83059.45549 1.24589 1.36647 1.24589h4.58168c.85739 0 1.28608-.4153 1.28608-1.24589V28.08941c0-.83059-.42869-1.2325-1.28608-1.2057h-4.58168c-.91097-.02679-1.36647.37511-1.36647 1.2057m-60.48618 0v25.15903c0 2.25065-.8172 4.16638-2.4516 5.74719-1.6612 1.58082-3.6573 2.37122-5.98833 2.37122h-12.29819c-.56266 0-.84399-.26793-.84399-.8038V20.7748c0-.53587.28133-.8038.84399-.8038h12.29819c2.33103 0 4.32714.7904 5.98833 2.37122 1.6344 1.58082 2.4516 3.49654 2.4516 5.74719m-14.38807-.36171v25.92265c0 .56266.26793.84399.8038.84399h5.14434c.85739 0 1.28608-.4153 1.28608-1.24589V28.12961c0-.85739-.42869-1.27269-1.28608-1.24589h-5.14434c-.53587 0-.8038.28133-.8038.84399m-14.10674.3617v32.47364c0 .53587-.25454.8038-.76361.8038h-5.54624c-.56266 0-.84399-.26793-.84399-.8038V28.1296c0-.85739-.42869-1.27269-1.28608-1.24589h-4.62187c-.91097-.02679-1.36647.3885-1.36647 1.24589v32.43345c0 .53587-.24114.8038-.72342.8038h-5.58643c-.56266 0-.84399-.26793-.84399-.8038V28.08941c0-2.30424.83059-4.21997 2.49179-5.74719 1.6612-1.58082 3.6707-2.37122 6.02852-2.37122h4.62187c2.35782 0 4.36733.7904 6.02852 2.37122 1.60761 1.52723 2.41141 3.44295 2.41141 5.74719m-42.8829-7.3146v32.47364c-.0268.83059.4019 1.24589 1.28608 1.24589h4.66206c.85739 0 1.28608-.4153 1.28608-1.24589V20.77481c-.0268-.53587.24114-.8038.8038-.8038h5.58643c.50907 0 .76361.26793.76361.8038v32.47364c0 2.25065-.83059 4.16638-2.49179 5.74719-1.6612 1.58082-3.6439 2.37122-5.94814 2.37122h-4.66206c-2.30424 0-4.28695-.7904-5.94814-2.37122-1.68799-1.58082-2.53198-3.49654-2.53198-5.74719V20.77481c0-.53587.28133-.8038.84399-.8038h5.54624c.50907 0 .77701.26793.8038.8038m-14.10673 7.3146v25.15903c0 2.25065-.83059 4.16638-2.49179 5.74719-1.6612 1.58082-3.6573 2.37122-5.98833 2.37122h-4.58168c-2.33103 0-4.32714-.7904-5.98833-2.37122-1.71478-1.58082-2.55877-3.49654-2.53198-5.74719V28.08941c-.0268-2.25065.8172-4.16638 2.53198-5.74719 1.6612-1.58082 3.6573-2.37122 5.98833-2.37122h4.58168c2.33103 0 4.32714.7904 5.98833 2.37122 1.6612 1.58082 2.49179 3.49654 2.49179 5.74719m-8.48012-1.2057h-4.58168c-.91097-.02679-1.36647.37511-1.36647 1.2057v25.15903c0 .83059.45549 1.24589 1.36647 1.24589h4.58168c.85739 0 1.28608-.4153 1.28608-1.24589V28.08941c0-.83059-.42869-1.2325-1.28608-1.2057m-40.793-6.91271h12.37857c2.30424 0 4.28695.7904 5.94814 2.37122 1.6612 1.58082 2.49179 3.49654 2.49179 5.74719v7.95765c0 1.71478-.50907 3.28219-1.52723 4.70225-1.09853 1.39326-2.465 2.35782-4.0994 2.89369-.24114.13397-.34831.30812-.32152.52247-.0536.21435.0134.37511.20095.48228l.88418.56266c3.242 2.30424 4.86301 5.3051 4.86301 9.00259v6.35004c0 .53587-.28133.8038-.84399.8038h-5.50605c-.56266 0-.84399-.26793-.84399-.8038V54.213c0-1.39326-.60285-2.51858-1.80856-3.37597l-4.46111-2.97407c-.21435-.13397-.44209-.14736-.68323-.04019-.18755.10717-.28133.28133-.28133.52247v12.13743c0 .56266-.26793.85739-.8038.88418h-5.58643c-.56266-.02679-.84399-.32152-.84399-.88418V20.7748c0-.53587.28133-.8038.84399-.8038m7.23423 6.83233c-.56266 0-.84399.29473-.84399.88418v8.76145c0 .50907.28133.76361.84399.76361h5.14434c.83059 0 1.24589-.3885 1.24589-1.16551v-7.95765c0-.85739-.4153-1.28608-1.24589-1.28608h-5.14434m-14.99093 1.28608v4.9032c0 .53587-.25454.8038-.76361.8038h-5.58643c-.56266 0-.83059-.26793-.8038-.8038V28.1296c0-.85739-.42869-1.27269-1.28608-1.24589h-4.62187c-.88418-.02679-1.32627.3885-1.32627 1.24589v25.11884c0 .83059.44209 1.24589 1.32627 1.24589h4.62187c.85739 0 1.28608-.4153 1.28608-1.24589v-4.82282c-.0268-.56266-.29473-.84399-.8038-.84399h-1.92913c-.56266 0-.83059-.25454-.8038-.76361v-5.26491c-.0268-.53587.24114-.8038.8038-.8038h9.12316c.50907 0 .76361.26793.76361.8038v11.69533c0 2.25065-.83059 4.16638-2.49179 5.74719-1.6612 1.58082-3.6439 2.37122-5.94814 2.37122h-4.62187c-2.33103 0-4.32714-.7904-5.98833-2.37122-1.68799-1.58082-2.53198-3.49654-2.53198-5.74719V28.08941c0-2.25065.84399-4.16638 2.53198-5.74719 1.6612-1.58082 3.6573-2.37122 5.98833-2.37122h4.62187c2.30424 0 4.28695.7904 5.94814 2.37122 1.6612 1.58082 2.49179 3.49654 2.49179 5.74719m-57.39153-7.3146v32.47364c0 .83059.4019 1.24589 1.2057 1.24589h4.70225c.85739 0 1.28608-.4019 1.28608-1.2057V20.77481c0-.56266.25454-.85739.76361-.88418h5.62662c.56266.02679.84399.32152.84399.88418v32.51383c-.0268.8038.37511 1.2057 1.2057 1.2057h4.70225c.85739 0 1.28608-.4153 1.28608-1.24589V20.77481c-.0268-.56266.24114-.85739.8038-.88418h5.58643c.56266.02679.84399.32152.84399.88418v32.47364c-.0268 2.25065-.88418 4.16638-2.57217 5.74719-1.6612 1.58082-3.6439 2.37122-5.94814 2.37122h-4.70225c-1.47364 0-2.8535-.37511-4.13959-1.12532-.48228-.24114-.96456-.24114-1.44685 0-1.31288.75021-2.69274 1.12532-4.13959 1.12532h-4.70225c-2.30424 0-4.28695-.7904-5.94814-2.37122-1.68799-1.58082-2.53198-3.49654-2.53198-5.74719V20.77481c0-.56266.28133-.85739.84399-.88418h5.54624c.58945.02679.88418.32152.88418.88418m-14.30765 5.22472c0 .53587-.25454.8038-.76361.8038h-12.33838c-.88418 0-1.32627.42869-1.32627 1.28608v8.35955c0 .50907.28133.76361.84399.76361h12.82066c.50907 0 .76361.25454.76361.76361v5.34529c0 .53587-.25454.8038-.76361.8038h-12.82066c-.56266 0-.84399.25454-.84399.76361v8.35955c0 .83059.44209 1.24589 1.32627 1.24589h12.33838c.50907 0 .76361.26793.76361.8038v5.26491c0 .53587-.25454.8038-.76361.8038h-12.33838c-2.35782 0-4.36733-.7904-6.02852-2.37122-1.6612-1.55402-2.49179-3.46975-2.49179-5.74719V28.08939c0-2.30424.83059-4.21997 2.49179-5.74719 1.6612-1.58082 3.6707-2.37122 6.02852-2.37122h12.33838c.50907 0 .76361.26793.76361.8038v5.22472m-41.5968-6.0285h4.62187c2.35782 0 4.36733.7904 6.02852 2.37122 1.6344 1.52723 2.4516 3.44295 2.4516 5.74719v32.47364c0 .53587-.25454.8038-.76361.8038h-5.58643c-.56266 0-.84399-.26793-.84399-.8038V28.1296c0-.85739-.42869-1.27269-1.28608-1.24589h-4.62187c-.88418-.02679-1.32627.3885-1.32627 1.24589v32.43345c0 .53587-.25454.8038-.76361.8038h-5.58643c-.56266 0-.83059-.26793-.8038-.8038V28.08941c0-2.30424.83059-4.21997 2.49179-5.74719 1.6344-1.58082 3.63051-2.37122 5.98833-2.37122z"/></g></svg>