<svg xmlns="http://www.w3.org/2000/svg" width="600" height="300"><defs><linearGradient id="a" x1="315" x2="315" y1="0" y2="360" gradientUnits="userSpaceOnUse"><stop offset="0" stop-color="#5fa2ff"/><stop offset="1" stop-color="#f1f3f9"/></linearGradient><linearGradient id="b" x1="675" x2="-45" y1="180" y2="180" gradientUnits="userSpaceOnUse"><stop offset="0" stop-color="#f2f4fa" stop-opacity="0"/><stop offset="1" stop-color="#f2f4fa" stop-opacity=".173"/></linearGradient><linearGradient id="c" x1="-45" x2="675" y1="180" y2="180" gradientUnits="userSpaceOnUse"><stop offset="0" stop-color="#f2f4fa" stop-opacity="0"/><stop offset="1" stop-color="#f2f4fa" stop-opacity=".173"/></linearGradient></defs><g stroke-width=".723" style="mix-blend-mode:normal;stroke-miterlimit:10"><path fill="url(#a)" d="M-45 360V0h720v360z" style="fill:url(#a)" transform="matrix(.95643 0 0 .95643 -1.276 -22.158)"/><path fill="url(#b)" d="M-45 360V0h720v360z" data-paper-data="{&quot;index&quot;:null}" style="fill:url(#b)" transform="matrix(.95643 0 0 .95643 -1.276 -22.158)"/><path fill="url(#c)" d="M-45 360V0h720v360z" style="fill:url(#c)" transform="matrix(.95643 0 0 .95643 -1.276 -22.158)"/></g><g fill="none" stroke="#77b1fc" stroke-linecap="round" stroke-width="10" style="mix-blend-mode:normal;stroke-miterlimit:10"><path stroke-width="9.5643" d="M44.493 351.468s106.73-7.177 134.635-97.89c24.976-81.19-29.745-244.553-11.462-281.52 19.254-38.931 94.894-61.505 94.894-61.505"/><path stroke-width="9.5643" d="M144.919 351.468s106.729-7.177 134.635-97.89c24.975-81.19-29.745-244.553-11.462-281.52 19.254-38.931 94.893-61.505 94.893-61.505M259.691 351.468s106.729-7.177 134.635-97.89c24.975-81.19-29.745-244.553-11.462-281.52 19.254-38.931 94.893-61.505 94.893-61.505"/><path stroke-width="9.5643" d="M360.116 351.468s106.73-7.177 134.635-97.89c24.976-81.19-29.745-244.553-11.462-281.52 19.254-38.931 94.894-61.505 94.894-61.505"/><path stroke-width="9.5643" d="M445.717 351.468s106.73-7.177 134.635-97.89c24.975-81.19-29.745-244.553-11.462-281.52 19.254-38.931 94.893-61.505 94.893-61.505M-63.584 351.468s106.73-7.177 134.635-97.89C96.027 172.387 41.306 9.024 59.59-27.943c19.254-38.931 94.894-61.505 94.894-61.505"/></g><g fill="none" stroke="#77b1fc" stroke-linecap="round" stroke-width="10" style="mix-blend-mode:normal;stroke-miterlimit:10"><path stroke-width="9.5643" d="M-9.988 13.846S.8 78.544 137.152 95.459c122.035 15.14 367.583-18.03 423.15-6.948 58.517 11.672 92.447 57.522 92.447 57.522"/><path stroke-width="9.5643" d="M-9.988 74.722S.8 139.42 137.152 156.335c122.035 15.14 367.583-18.032 423.15-6.948 58.517 11.672 92.447 57.522 92.447 57.522M-9.988 144.294S.8 208.991 137.152 225.907c122.035 15.14 367.583-18.03 423.15-6.948 58.517 11.672 92.447 57.523 92.447 57.523"/><path stroke-width="9.5643" d="M-9.988 205.17S.8 269.867 137.152 286.783c122.035 15.14 367.583-18.03 423.15-6.948 58.517 11.672 92.447 57.523 92.447 57.523"/><path stroke-width="9.5643" d="M-9.988 257.059S.8 321.757 137.152 338.673c122.035 15.14 367.583-18.031 423.15-6.948 58.517 11.671 92.447 57.522 92.447 57.522M-9.988-51.668S.8 13.029 137.152 29.944c122.035 15.14 367.583-18.03 423.15-6.947C618.82 34.669 652.75 80.52 652.75 80.52"/></g><g stroke="#575e75" stroke-linecap="round" stroke-width="10" style="mix-blend-mode:normal;stroke-miterlimit:10"><path fill="#fff" fill-rule="evenodd" stroke-linejoin="round" stroke-width="9.2406" d="m125.223 216.447-6.556 16.005-6.515-15.98c-4.443-10.91-6.678-22.112-6.657-33.362l.194-104.659c.01-4.481 5.946-8.122 13.27-8.136 7.313-.013 13.243 3.602 13.232 8.083l-.19 104.662c-.02 11.253-2.294 22.468-6.778 33.387"/><path fill="none" stroke-linejoin="round" stroke-width="9.2406" d="M90.532 138.724s12.837-1.05 7.442-15.65c-11.673-31.594 6.451-37.094 6.451-37.094"/><path fill="#4c97ff" fill-rule="evenodd" stroke-linejoin="round" stroke-width="9.2406" d="M130.24 74.579c1.23 1.229 1.946 2.689 1.944 4.236l-.093 49.466c-.022-1.518-.685-2.86-1.885-4.061-2.32-2.32-6.557-3.864-11.345-3.881-7.22.011-13.132 3.576-13.251 7.996l.09-49.47c.01-4.47 5.946-8.122 13.259-8.163 4.783.017 8.967 1.556 11.284 3.874m-2.54 134.995c-.72 2.323-1.559 4.584-2.48 6.886l-6.564 16.004-6.501-15.983a86.381 86.381 0 0 1-2.453-6.875c2.318-1.346 5.503-2.185 8.999-2.193 3.498-.005 6.673.823 8.996 2.163"/><path fill="#575e75" fill-rule="evenodd" stroke-linejoin="round" stroke-width="9.2406" d="M130.243 74.167c1.232 1.231 1.948 2.691 1.943 4.24l-.165 104.648c-.052 11.255-2.336 22.473-6.8 33.399l-6.567 16.001-3.563-8.732 2.966-7.256c4.459-10.926 6.742-22.139 6.795-33.394l.167-104.648c0-1.551-.716-3.011-1.945-4.24-1.715-1.714-4.434-3-7.704-3.562a19.793 19.793 0 0 1 3.586-.326c4.787.018 8.97 1.558 11.287 3.875" opacity=".15"/><path fill="#575e75" fill-rule="evenodd" stroke-linejoin="round" stroke-width="9.2406" d="M93.17 132.912a3.396 3.396 0 0 1-4.8 4.805 3.396 3.396 0 0 1 .009-4.803 3.39 3.39 0 0 1 4.8 0z"/><path fill="none" stroke-width="9.2406" d="M119.626 70.86s59.885-1.06 60.195 43.834c.286 41.399-47.933 29.434-47.933 29.434m89.008 80.807s-8.089-50.786-5.26-98.861c1.002-17.035-1.052-34.616 5.26-48.246 10.706-23.118 57.286 0 57.286 0"/><path fill="none" stroke-width="9.2406" d="M278.182 224.935s-49.173 9.693-57.286 0c-14.348-17.144 0-147.107 0-147.107" data-paper-data="{&quot;index&quot;:null}"/><path fill="none" stroke-width="9.2406" d="M219.824 151.38h55.38M400.77 76.06s-.107 121.08 0 143.683c.34 71.728-91.616-189.52-94.233-134.412-1.172 24.682 0 141.364 0 141.364m119.896-75.314h86.157m-43.078 43.079v-86.157"/></g></svg>