<svg xmlns="http://www.w3.org/2000/svg" width="630" height="360"><defs><linearGradient id="a" x1="315" x2="315" y1="0" y2="360" gradientUnits="userSpaceOnUse"><stop offset="0" stop-color="#5fa2ff"/><stop offset="1" stop-color="#f1f3f9"/></linearGradient><linearGradient id="b" x1="675" x2="-45" y1="180" y2="180" gradientUnits="userSpaceOnUse"><stop offset="0" stop-color="#f2f4fa" stop-opacity="0"/><stop offset="1" stop-color="#f2f4fa" stop-opacity=".173"/></linearGradient><linearGradient id="c" x1="-45" x2="675" y1="180" y2="180" gradientUnits="userSpaceOnUse"><stop offset="0" stop-color="#f2f4fa" stop-opacity="0"/><stop offset="1" stop-color="#f2f4fa" stop-opacity=".173"/></linearGradient></defs><g stroke-miterlimit="10" data-paper-data="{&quot;isPaintingLayer&quot;:true}" style="mix-blend-mode:normal"><g stroke-width=".723"><path fill="url(#a)" d="M-45 360V0h720v360z"/><path fill="url(#b)" d="M-45 360V0h720v360z" data-paper-data="{&quot;index&quot;:null}"/><path fill="url(#c)" d="M-45 360V0h720v360z"/></g><g fill="none" stroke="#77b1fc" stroke-linecap="round" stroke-width="10"><path d="M25.5 371s111.591-7.504 140.768-102.35c26.113-84.888-31.1-255.692-11.984-294.344C174.415-66.398 253.5-90 253.5-90"/><path d="M130.5 371s111.591-7.504 140.768-102.35c26.113-84.888-31.1-255.692-11.984-294.344C279.415-66.398 358.5-90 358.5-90M250.5 371s111.591-7.504 140.768-102.35c26.113-84.888-31.1-255.692-11.984-294.344C399.415-66.398 478.5-90 478.5-90"/><path d="M355.5 371s111.591-7.504 140.768-102.35c26.113-84.888-31.1-255.692-11.984-294.344C504.415-66.398 583.5-90 583.5-90"/><path d="M445 371s111.591-7.504 140.768-102.35c26.113-84.888-31.1-255.692-11.984-294.344C593.915-66.398 673-90 673-90M-87.5 371s111.591-7.504 140.768-102.35c26.113-84.888-31.1-255.692-11.984-294.344C61.415-66.398 140.5-90 140.5-90"/></g><g fill="none" stroke="#77b1fc" stroke-linecap="round" stroke-width="10"><path d="M-31.463 17.998s11.28 67.645 153.843 85.331c127.594 15.83 384.327-18.852 442.425-7.264 61.182 12.203 96.658 60.142 96.658 60.142"/><path d="M-31.463 81.647s11.28 67.645 153.843 85.331c127.594 15.83 384.327-18.853 442.425-7.264 61.182 12.203 96.658 60.142 96.658 60.142M-31.463 154.389s11.28 67.644 153.843 85.33c127.594 15.83 384.327-18.852 442.425-7.264 61.182 12.203 96.658 60.143 96.658 60.143"/><path d="M-31.463 218.038s11.28 67.644 153.843 85.33c127.594 15.83 384.327-18.852 442.425-7.264 61.182 12.203 96.658 60.143 96.658 60.143"/><path d="M-31.463 272.29s11.28 67.645 153.843 85.332c127.594 15.829 384.327-18.853 442.425-7.265 61.182 12.203 96.658 60.143 96.658 60.143M-31.463-50.5s11.28 67.644 153.843 85.33c127.594 15.83 384.327-18.852 442.425-7.264 61.182 12.204 96.658 60.143 96.658 60.143"/></g><g stroke="#575e75" stroke-linecap="round" stroke-width="10"><path fill="#fff" fill-rule="evenodd" stroke-linejoin="round" d="m125.875 251.9-7.095 17.321-7.05-17.293c-4.808-11.807-7.227-23.93-7.204-36.104l.21-113.26c.01-4.85 6.434-8.79 14.36-8.805 7.914-.014 14.332 3.898 14.32 8.747l-.207 113.264c-.02 12.177-2.482 24.314-7.334 36.13"/><path fill="none" stroke-linejoin="round" d="M88.333 167.79s13.892-1.137 8.054-16.937c-12.633-34.19 6.981-40.142 6.981-40.142"/><path fill="#4c97ff" fill-rule="evenodd" stroke-linejoin="round" d="M131.305 98.373c1.33 1.33 2.105 2.91 2.103 4.584l-.101 53.532c-.023-1.643-.741-3.096-2.04-4.395-2.51-2.51-7.095-4.182-12.277-4.2-7.814.012-14.211 3.87-14.34 8.653l.097-53.535c.011-4.838 6.435-8.79 14.349-8.834 5.176.018 9.704 1.684 12.212 4.192m-2.75 146.089c-.778 2.514-1.686 4.961-2.683 7.452l-7.104 17.319-7.035-17.296a93.48 93.48 0 0 1-2.654-7.44c2.508-1.457 5.955-2.365 9.738-2.373 3.786-.006 7.222.89 9.736 2.34"/><path fill="#575e75" fill-rule="evenodd" stroke-linejoin="round" d="M131.308 97.927c1.333 1.333 2.108 2.913 2.102 4.59l-.178 113.247c-.057 12.18-2.528 24.32-7.36 36.144l-7.106 17.316-3.856-9.45 3.21-7.852c4.825-11.824 7.296-23.958 7.353-36.138l.181-113.249c0-1.678-.775-3.258-2.105-4.588-1.856-1.855-4.798-3.246-8.337-3.855a21.42 21.42 0 0 1 3.881-.353c5.18.02 9.707 1.686 12.215 4.194" opacity=".15"/><path fill="#575e75" fill-rule="evenodd" stroke-linejoin="round" d="M91.188 161.5a3.675 3.675 0 0 1-5.194 5.2 3.675 3.675 0 0 1 .009-5.198 3.669 3.669 0 0 1 5.194 0z"/><path fill="none" d="M119.818 94.349s64.806-1.147 65.142 47.436c.31 44.801-51.872 31.853-51.872 31.853M229.411 261.086s-8.754-54.96-5.693-106.986c1.085-18.435-1.138-37.46 5.693-52.211 11.586-25.017 61.993 0 61.993 0"/><path fill="none" d="M291.404 261.086s-53.214 10.49-61.993 0c-15.527-18.553 0-159.197 0-159.197" data-paper-data="{&quot;index&quot;:null}"/><path fill="none" d="M228.251 181.487h59.93M424.068 99.977s-.116 131.03 0 155.49c.369 77.623-99.145-205.094-101.977-145.458-1.268 26.71 0 152.982 0 152.982M451.84 181.487h93.238M498.46 228.106v-93.237"/></g></g></svg>