<svg xmlns="http://www.w3.org/2000/svg" width="600" height="300" viewBox="0 0 599.99998 300"><path fill="#5cb1d6" d="M5e-7 300V5e-7H600V300Z" style="mix-blend-mode:normal;stroke-miterlimit:10;stroke-dasharray:none;stroke-dashoffset:0"/><g fill="none" stroke="#518da6" stroke-linecap="round" stroke-width="27" style="mix-blend-mode:normal;stroke-miterlimit:10;stroke-dasharray:none;stroke-dashoffset:0"><path stroke-width="26.33644557" d="M44.88307197 64.42470227s.42748929-15.04176826 17.76085996-22.45811133c15.76180668-6.7439346 28.6437523 3.7405556 28.6437523 3.7405556"/><path stroke-width="26.33644557" d="M138.35001507 27.56695399s-2.00237946 16.48816585-18.03223264 22.5675734c-17.62813402 6.68556524-28.37237961-3.85001768-28.37237961-3.85001768" data-paper-data="{&quot;index&quot;:null}"/></g><g fill="none" stroke="#518da6" stroke-linecap="round" stroke-width="27" style="mix-blend-mode:normal;stroke-miterlimit:10;stroke-dasharray:none;stroke-dashoffset:0"><path stroke-width="26.33644557" d="M408.30506873 45.9279435s6.99054128-13.3255294 25.81990009-12.37528118c17.12216213.86409878 24.09021988 15.94107984 24.09021988 15.94107984"/><path stroke-width="26.33644557" d="M508.46261025 53.86710404s-9.04066773 13.93324775-26.11177618 12.35442661c-18.77320365-1.73623505-23.79834378-15.92022528-23.79834378-15.92022528" data-paper-data="{&quot;index&quot;:null}"/></g><g fill="none" stroke="#518da6" stroke-linecap="round" stroke-width="27" style="mix-blend-mode:normal;stroke-miterlimit:10;stroke-dasharray:none;stroke-dashoffset:0"><path stroke-width="26.33644557" d="M41.53776789 258.57035588s6.99054127-13.3255294 25.81990008-12.37527142c17.12216213.86409878 24.09021988 15.94107008 24.09021988 15.94107008"/><path stroke-width="26.33644557" d="M141.6953094 266.50952617s-9.04067749 13.93324776-26.11177617 12.35442662c-18.77320366-1.7362448-23.79834379-15.92022528-23.79834379-15.92022528" data-paper-data="{&quot;index&quot;:null}"/></g><g fill="none" stroke="#518da6" stroke-linecap="round" stroke-width="27" style="mix-blend-mode:normal;stroke-miterlimit:10;stroke-dasharray:none;stroke-dashoffset:0"><path stroke-width="26.33644557" d="M411.65037282 276.0917005s.42748928-15.04176827 17.76085995-22.45811134c15.76180669-6.7439346 28.64376206 3.74055561 28.64376206 3.74055561"/><path stroke-width="26.33644557" d="M505.11731592 239.23394246s-2.00237946 16.48816585-18.03222288 22.5675734c-17.62813402 6.68556524-28.37238937-3.85001768-28.37238937-3.85001768" data-paper-data="{&quot;index&quot;:null}"/></g><g fill="none" stroke="#7cd8ff" stroke-linecap="round" stroke-width="27" style="mix-blend-mode:normal;stroke-miterlimit:10;stroke-dasharray:none;stroke-dashoffset:0"><path stroke-width="26.33644557" d="M45.02528878 57.87446735s.42748928-15.04176826 17.76085995-22.45811133c15.76180668-6.7439346 28.6437523 3.7405556 28.6437523 3.7405556"/><path stroke-width="26.33644557" d="M138.49223188 21.01671907s-2.00237947 16.48816585-18.03223264 22.5675734c-17.62813402 6.68556524-28.37237962-3.85001768-28.37237962-3.85001768" data-paper-data="{&quot;index&quot;:null}"/></g><g fill="none" stroke="#7cd8ff" stroke-linecap="round" stroke-width="27" style="mix-blend-mode:normal;stroke-miterlimit:10;stroke-dasharray:none;stroke-dashoffset:0"><path stroke-width="26.33644557" d="M408.44728554 39.37770858s6.99054127-13.3255294 25.81990008-12.37528118c17.12216213.86409878 24.09021989 15.94107984 24.09021989 15.94107984"/><path stroke-width="26.33644557" d="M508.60482706 47.31686912s-9.04066774 13.93324775-26.11177618 12.35442661c-18.77320366-1.73623505-23.79834379-15.92022528-23.79834379-15.92022528" data-paper-data="{&quot;index&quot;:null}"/></g><g fill="none" stroke="#7cd8ff" stroke-linecap="round" stroke-width="27" style="mix-blend-mode:normal;stroke-miterlimit:10;stroke-dasharray:none;stroke-dashoffset:0"><path stroke-width="26.33644557" d="M41.6799847 252.02012096s6.99054127-13.3255294 25.81990008-12.37527142c17.12216213.86409877 24.09021988 15.94107008 24.09021988 15.94107008"/><path stroke-width="26.33644557" d="M141.83752621 259.95929125s-9.0406775 13.93324776-26.11177618 12.35442662c-18.77320366-1.7362448-23.79834378-15.92022528-23.79834378-15.92022528" data-paper-data="{&quot;index&quot;:null}"/></g><path fill="#56a0bf" d="M143.70153 120.92339c0-12.0018 9.6882-21.690003 21.69-21.690003 12.0018 0 21.68999 9.688203 21.68999 21.690003 0 7.51921-3.8078 14.1226-9.63999 18.0268v-18.0268c0-6.65502-5.39497-12.05-12.05-12.05-6.65502 0-12.05 5.39498-12.05 12.05v18.0268c-5.83219-3.9042-9.64-10.50759-9.64-18.0268zm61.455 46.995c0 .28919-.0482.6266-.0964.964l-3.615 25.4014c-.5302 3.51859-3.32581 6.1696-6.94081 6.1696h-32.7278c-1.9762 0-3.80779-.81939-5.10919-2.12079l-23.8108-23.8108 3.80779-3.856c.964-.964 2.3136-1.5906 3.8078-1.5906.62659 0 .3374-.0482 17.6894 3.615v-51.7668c0-4.00059 3.22941-7.23 7.23-7.23 4.00059 0 7.23 3.2294 7.23 7.23v28.92h3.66319c.9158 0 1.78341.1928 2.6028.5302l21.88281 10.8932c2.55461 1.0604 4.3862 3.66319 4.3862 6.6516z" style="mix-blend-mode:normal;stroke-miterlimit:10;stroke-dasharray:none;stroke-dashoffset:0"/><g fill="none" stroke="#7cd8ff" stroke-linecap="round" stroke-width="27" style="mix-blend-mode:normal;stroke-miterlimit:10;stroke-dasharray:none;stroke-dashoffset:0"><path stroke-width="26.33644557" d="M411.79258963 269.54146557s.42748928-15.04176826 17.76085995-22.45811133c15.76180668-6.7439346 28.64376206 3.74055561 28.64376206 3.74055561"/><path stroke-width="26.33644557" d="M505.25953273 232.68370754s-2.00237947 16.48816585-18.03222289 22.5675734c-17.62813402 6.68556524-28.37238937-3.85001768-28.37238937-3.85001768" data-paper-data="{&quot;index&quot;:null}"/></g><path fill="#fff" d="M140.35531 117.57717c0-12.0018 9.6882-21.690004 21.69-21.690004 12.0018 0 21.69 9.688204 21.69 21.690004 0 7.5192-3.8078 14.1226-9.63999 18.0268v-18.0268c0-6.65502-5.39499-12.04999-12.05-12.04999-6.65503 0-12.05 5.39498-12.05 12.04999v18.0268c-5.83219-3.9042-9.64-10.5076-9.64-18.0268zm61.455 46.995c0 .2892-.0482.6266-.0964.964l-3.615 25.40141c-.5302 3.51859-3.3258 6.1696-6.94081 6.1696h-32.7278c-1.9762 0-3.8078-.8194-5.1092-2.1208l-23.8108-23.8108 3.8078-3.85599c.964-.964 2.3136-1.59061 3.8078-1.59061.6266 0 .3374-.0482 17.6894 3.615v-51.7668c0-4.0006 3.22941-7.23 7.23-7.23 4.0006 0 7.23 3.22941 7.23 7.23v28.92h3.6632c.9158 0 1.7834.19281 2.6028.53021l21.8828 10.8932c2.5546 1.0604 4.3862 3.6632 4.3862 6.6516z" style="mix-blend-mode:normal;stroke-miterlimit:10;stroke-dasharray:none;stroke-dashoffset:0"/><g aria-label="SENSING" style="font-size:51.2204px;font-family:&quot;Sans Serif&quot;;fill:#518da6;stroke-width:1.28051;stroke-miterlimit:10"><path d="M232.87251 160.56228v4.92696q-2.87614-1.37554-5.42716-2.05081-2.55102-.67527-4.92696-.67527-4.12665 0-6.37754 1.60064-2.22589 1.60063-2.22589 4.55181 0 2.47598 1.47559 3.75149 1.5006 1.2505 5.65225 2.02581l3.05122.62525q5.65225 1.07543 8.32831 3.80151 2.70108 2.70108 2.70108 7.25289 0 5.42716-3.65146 8.22828-3.62644 2.80112-10.65424 2.80112-2.65106 0-5.65225-.60024-2.97619-.60024-6.17746-1.77571v-5.20207q3.07622 1.72568 6.0274 2.60103 2.95117.87535 5.80231.87535 4.32672 0 6.67766-1.70068 2.35094-1.70067 2.35094-4.85193 0-2.75109-1.70068-4.30171-1.67567-1.55062-5.5272-2.32593l-3.07623-.60024q-5.65225-1.12545-8.17826-3.5264-2.526-2.40096-2.526-6.67766 0-4.95197 3.47638-7.80311 3.5014-2.85114 9.62884-2.85114 2.62604 0 5.35213.47519 2.72609.47519 5.57722 1.42557zM243.00155 159.33679h23.6094v4.2517h-18.55739v11.0544h17.78208v4.25169h-17.78208v13.53039h19.00757v4.2517h-24.05958zM275.36444 159.33679h6.8027l16.5566 31.23745v-31.23745h4.90195v37.33988h-6.80271l-16.55659-31.23745v31.23745h-4.90195zM336.06361 160.56228v4.92696q-2.87614-1.37554-5.42716-2.05081-2.55101-.67527-4.92696-.67527-4.12665 0-6.37754 1.60064-2.22589 1.60063-2.22589 4.55181 0 2.47598 1.47559 3.75149 1.5006 1.2505 5.65225 2.02581l3.05122.62525q5.65225 1.07543 8.32831 3.80151 2.70108 2.70108 2.70108 7.25289 0 5.42716-3.65146 8.22828-3.62644 2.80112-10.65424 2.80112-2.65105 0-5.65225-.60024-2.97619-.60024-6.17746-1.77571v-5.20207q3.07622 1.72568 6.0274 2.60103 2.95118.87535 5.80231.87535 4.32672 0 6.67766-1.70068 2.35094-1.70067 2.35094-4.85193 0-2.75109-1.70068-4.30171-1.67567-1.55062-5.5272-2.32593l-3.07623-.60024q-5.65225-1.12545-8.17825-3.5264-2.52601-2.40096-2.52601-6.67766 0-4.95197 3.47638-7.80311 3.5014-2.85114 9.62884-2.85114 2.62605 0 5.35213.47519 2.72609.47519 5.57722 1.42557zM346.19265 159.33679h5.05201v37.33988h-5.05201zM361.29867 159.33679h6.80271l16.55659 31.23745v-31.23745h4.90196v37.33988h-6.80271l-16.5566-31.23745v31.23745h-4.90195zM425.07407 191.34954v-10.02899h-8.25328v-4.15165h13.25528v16.03138q-2.92617 2.07583-6.45258 3.15126-3.5264 1.05042-7.52799 1.05042-8.75349 0-13.70546-5.10204-4.92697-5.12704-4.92697-14.25568 0-9.15364 4.92697-14.25567 4.95197-5.12705 13.70546-5.12705 3.65145 0 6.92776.90036 3.30131.90036 6.07742 2.65106v5.37714q-2.80112-2.37595-5.95237-3.57642-3.15126-1.20048-6.62764-1.20048-6.85273 0-10.30411 3.82652-3.42636 3.82653-3.42636 11.40454 0 7.55301 3.42636 11.37954 3.45138 3.82652 10.30411 3.82652 2.67606 0 4.7769-.45018 2.10084-.47519 3.7765-1.45058z" style="font-family:&quot;DejaVu Sans&quot;;-inkscape-font-specification:&quot;DejaVu Sans&quot;" transform="translate(-10.270587 -40.491913) scale(.97542391)"/></g><path fill="none" d="M166.58431 77.244386h115.68V192.92439h-115.68z" style="mix-blend-mode:normal;stroke-miterlimit:10;stroke-dasharray:none;stroke-dashoffset:0"/><g aria-label="SENSING" style="font-size:51.2204px;font-family:&quot;Sans Serif&quot;;fill:#fff;stroke-width:1.28051;stroke-miterlimit:10"><path d="M230.29951 157.98939v4.92696q-2.87614-1.37555-5.42716-2.05081-2.55101-.67527-4.92696-.67527-4.12664 0-6.37754 1.60063-2.22589 1.60064-2.22589 4.55182 0 2.47598 1.47559 3.75149 1.5006 1.2505 5.65225 2.02581l3.05122.62525q5.65225 1.07543 8.32831 3.80151 2.70108 2.70108 2.70108 7.25289 0 5.42716-3.65145 8.22828-3.62645 2.80111-10.65425 2.80111-2.65105 0-5.65225-.60024-2.97618-.60023-6.17746-1.7757v-5.20207q3.07623 1.72568 6.0274 2.60103 2.95118.87535 5.80231.87535 4.32673 0 6.67766-1.70068 2.35094-1.70067 2.35094-4.85193 0-2.7511-1.70068-4.30171-1.67567-1.55062-5.5272-2.32593l-3.07623-.60024q-5.65225-1.12545-8.17825-3.5264-2.52601-2.40096-2.52601-6.67766 0-4.95198 3.47639-7.80311 3.50139-2.85114 9.62883-2.85114 2.62605 0 5.35213.47519 2.72609.47519 5.57722 1.42557zM240.42855 156.7639h23.6094v4.2517h-18.55739V172.07h17.78208v4.25169h-17.78208v13.53039h19.00757v4.2517h-24.05958zM272.79144 156.7639h6.80271l16.55659 31.23744V156.7639h4.90195v37.33988h-6.80271l-16.55659-31.23745v31.23745h-4.90195zM333.49061 157.98939v4.92696q-2.87614-1.37555-5.42716-2.05081-2.55101-.67527-4.92696-.67527-4.12664 0-6.37754 1.60063-2.22589 1.60064-2.22589 4.55182 0 2.47598 1.47559 3.75149 1.5006 1.2505 5.65225 2.02581l3.05122.62525q5.65225 1.07543 8.32832 3.80151 2.70107 2.70108 2.70107 7.25289 0 5.42716-3.65145 8.22828-3.62645 2.80111-10.65425 2.80111-2.65105 0-5.65225-.60024-2.97618-.60023-6.17746-1.7757v-5.20207q3.07623 1.72568 6.0274 2.60103 2.95118.87535 5.80231.87535 4.32673 0 6.67766-1.70068 2.35094-1.70067 2.35094-4.85193 0-2.7511-1.70068-4.30171-1.67567-1.55062-5.5272-2.32593l-3.07622-.60024q-5.65226-1.12545-8.17826-3.5264-2.52601-2.40096-2.52601-6.67766 0-4.95198 3.47639-7.80311 3.50139-2.85114 9.62883-2.85114 2.62605 0 5.35213.47519 2.72609.47519 5.57722 1.42557zM343.61965 156.7639h5.05202v37.33988h-5.05202zM358.72567 156.7639h6.80271l16.5566 31.23744V156.7639h4.90195v37.33988h-6.80271l-16.5566-31.23745v31.23745h-4.90195zM422.50107 188.77665v-10.02899h-8.25328V174.596h13.25528v16.03139q-2.92617 2.07583-6.45257 3.15126-3.52641 1.05041-7.528 1.05041-8.75349 0-13.70546-5.10203-4.92696-5.12704-4.92696-14.25568 0-9.15364 4.92696-14.25567 4.95197-5.12705 13.70546-5.12705 3.65145 0 6.92776.90036 3.30131.90036 6.07742 2.65106v5.37714q-2.80112-2.37595-5.95237-3.57643-3.15126-1.20047-6.62764-1.20047-6.85273 0-10.30411 3.82652-3.42636 3.82653-3.42636 11.40454 0 7.55301 3.42636 11.37954 3.45138 3.82652 10.30411 3.82652 2.67606 0 4.7769-.45018 2.10084-.47519 3.7765-1.45058z" style="font-family:&quot;DejaVu Sans&quot;;-inkscape-font-specification:&quot;DejaVu Sans&quot;" transform="translate(-10.270587 -40.491913) scale(.97542391)"/></g><path d="M471.2315 161.19204v48.82235h48.82235v14.9009H471.2315v48.82235h-14.72559v-48.82235h-48.82236v-14.9009h48.82236v-48.82235z" aria-label="+" style="font-size:179.512px;font-family:&quot;Sans Serif&quot;;fill:#518da6;stroke-width:4.48781;stroke-miterlimit:10" transform="translate(-10.270587 -40.491913) scale(.97542391)"/><path d="M467.80096 158.61913v48.82235h48.82235v14.9009h-48.82235v48.82235h-14.7256v-48.82235h-48.82235v-14.9009h48.82235v-48.82235z" aria-label="+" style="font-size:179.512px;font-family:&quot;Sans Serif&quot;;fill:#fff;stroke-width:4.48781;stroke-miterlimit:10" transform="translate(-10.270587 -40.491913) scale(.97542391)"/><g fill="none" stroke="#518da6" stroke-linecap="round" stroke-width="27" style="mix-blend-mode:normal;stroke-miterlimit:10;stroke-dasharray:none;stroke-dashoffset:0"><path stroke-width="26.33644557" d="M232.34542334 56.43254695s3.85270985-14.54627242 22.4220304-17.80639274c16.88569987-2.9645376 27.03159117 10.18573738 27.03159117 10.18573738"/><path stroke-width="26.33644557" d="M331.7610867 41.90359806s-5.71640355 15.59460927-22.71123384 17.85095986c-18.68932696 2.48132236-26.74238774-10.2303045-26.74238774-10.2303045" data-paper-data="{&quot;index&quot;:null}"/></g><g fill="none" stroke="#7cd8ff" stroke-linecap="round" stroke-width="27" style="mix-blend-mode:normal;stroke-miterlimit:10;stroke-dasharray:none;stroke-dashoffset:0"><path stroke-width="26.33644557" d="M233.98038012 50.08804844s3.85270986-14.54627242 22.4220304-17.80639274c16.88569987-2.9645376 27.03159118 10.18573738 27.03159118 10.18573738"/><path stroke-width="26.33644557" d="M333.39604348 35.55909955s-5.71640354 15.59460927-22.71123384 17.85095986c-18.68932695 2.48132236-26.74238774-10.2303045-26.74238774-10.2303045" data-paper-data="{&quot;index&quot;:null}"/></g><g fill="none" stroke="#518da6" stroke-linecap="round" stroke-width="27" style="mix-blend-mode:normal;stroke-miterlimit:10;stroke-dasharray:none;stroke-dashoffset:0"><path stroke-width="26.33644557" d="M231.52794982 262.24700172s3.85270985-14.54628218 22.42202065-17.80639274c16.88569011-2.96453761 27.03159117 10.18573737 27.03159117 10.18573737"/><path stroke-width="26.33644557" d="M330.94360342 247.71803332s-5.71639379 15.59461902-22.71122408 17.8509696c-18.68932695 2.48132237-26.7423975-10.23030449-26.7423975-10.23030449" data-paper-data="{&quot;index&quot;:null}"/></g><g fill="none" stroke="#7cd8ff" stroke-linecap="round" stroke-width="27" style="mix-blend-mode:normal;stroke-miterlimit:10;stroke-dasharray:none;stroke-dashoffset:0"><path stroke-width="26.33644557" d="M233.1629066 255.9025032s3.85270986-14.54628217 22.42203041-17.80639273c16.88569011-2.96454737 27.03160093 10.18573737 27.03160093 10.18573737"/><path stroke-width="26.33644557" d="M332.57856021 241.37354456s-5.71639379 15.59460927-22.71122408 17.85095986c-18.68932696 2.48132236-26.74238774-10.2303045-26.74238774-10.2303045" data-paper-data="{&quot;index&quot;:null}"/></g><g fill-rule="evenodd" style="mix-blend-mode:normal;stroke-miterlimit:10;stroke-dasharray:none;stroke-dashoffset:0"><path fill="#3ba2ce" stroke="#1b556e" stroke-width="5.364831505" d="M66.80984064 95.3896806c.36349172-.3377015 1.06468495-.31190154 1.2885545.20943327l5.88666378 13.9623349s9.72796118 4.97579343 13.03513595 9.04025806c5.55724362 6.76675952 6.68345832 12.85741371 6.68345832 12.85741371s10.10660123 1.28997861 12.99112482 8.768583c2.88452358 7.47860438-.71538565 23.11736133-25.43842155 32.28091297-24.72302614 9.16355165-46.356836 5.5591457-58.51021799-8.36366502-12.153382-13.92281072.0672067-34.86158226-.57174472-33.6428291l-6.79208153-23.85263588c-.22386954-.52133482.38929169-1.03889474.97665295-.85525168l18.17493715 8.06809206s5.7385164-3.29960548 12.0788401-4.60567858c3.75942031-.88790888 7.0635225-1.14443561 10.27580802-1.10728172z"/><path fill="#a7e2fb" d="M93.38418235 132.06848737s9.76889972.92648689 12.6534233 8.40509127c2.8845236 7.47860438-1.3687831 22.52621543-25.8421495 31.50990866-31.77211236 12.11788632-50.56258102-4.91165931-43.79439738-20.78493744 6.74616832-16.00911566 24.37018605-6.17893005 35.64843722-8.84265668 9.67021609-2.26379308 9.37038053-10.9975827 21.3346766-10.28740581z"/><path fill="none" stroke="#1b556e" stroke-linecap="round" stroke-linejoin="round" stroke-width="5.364831505" d="M118.62027171 129.51314009c-5.54801611 6.19619505-15.3062642 7.91664775-15.3062642 7.91664775M119.31933852 145.01298692c-8.44768803 2.06571374-14.16348682.34314438-14.16348682.34314438"/><path fill="#1b556e" stroke="#1b556e" stroke-linecap="round" stroke-linejoin="round" stroke-width="5.364831505" d="M70.93393293 138.91216882c2.85257845-.46217536 5.88500557-.67469097 6.17490156.25415645.44395443 1.87971015-.977365 6.01327381-3.12874048 6.50123938-2.40104497.66782398-8.65640924-1.80374414-9.00854703-3.97713493-.39993355-1.60803508 3.24565479-2.33810086 5.96238595-2.77827066z"/><path fill="none" stroke="#1b556e" stroke-linecap="round" stroke-linejoin="round" stroke-width="5.364831505" d="M9.47719341 146.77840666s12.29821294 1.91070912 17.73476737 5.3513609M28.38976564 156.81803529c-5.46684134 3.25559435-15.76087028 3.39000776-15.76087028 3.39000776"/><path fill="#1b556e" d="M85.09883411 128.25298994c.24209046 1.49420311-.64653047 2.89280493-2.00489606 3.11288983-1.35836558.2200849-2.64314518-.82637914-2.88523564-2.32058225-.24209046-1.49420312.64653047-2.89280494 2.00489606-3.11288984 1.35836558-.2200849 2.64314518.82637914 2.88523564 2.32058226M51.77784613 137.69437157c.24209046 1.49420312-.64653048 2.89280494-2.00489606 3.11288984-1.35836558.2200849-2.64314519-.82637914-2.88523565-2.32058226-.24209046-1.49420311.64653048-2.89280493 2.00489606-3.11288983 1.3803809-.08427663 2.64314519.82637914 2.88523565 2.32058225"/></g><path fill="none" d="M5.9135894 194.20273V78.522728H121.59358V194.20273Z" style="mix-blend-mode:normal;stroke-miterlimit:10;stroke-dasharray:none;stroke-dashoffset:0"/><g fill-rule="evenodd" data-paper-data="{&quot;index&quot;:null}" style="mix-blend-mode:normal;stroke-miterlimit:10;stroke-dasharray:none;stroke-dashoffset:0"><path fill="#3ba2ce" stroke="#1b556e" stroke-width="5.364831505" d="M543.99265052 105.63904488c3.21228553-.03716365 6.51638771.21937284 10.27580802 1.10728172 6.34031394 1.3060731 12.07883035 4.60567858 12.07883035 4.60567858l18.17493715-8.06810182c.58737102-.18364306 1.20052249.33391687.97665295.85525168l-6.79208153 23.85263588c-.63896118-1.21875316 11.58163727 19.72001839-.57174472 33.6428291-12.153382 13.92281073-33.78719185 17.52721667-58.51022774 8.36366503-24.72302615-9.16355164-28.32294514-24.8023086-25.43842155-32.28091298 2.88452359-7.47860438 12.99112482-8.768583 12.99112482-8.768583s1.1262147-6.09065419 6.68346807-12.8574137c3.30717477-4.06446463 13.03513595-9.04024831 13.03513595-9.04024831l5.88666379-13.9623349c.22386954-.52133482.92506277-.54713478 1.28855449-.20943327z"/><path fill="#a7e2fb" d="M528.83168546 139.84557146c11.27825117 2.66372663 28.9022689-7.16646873 35.64843722 8.84264693 6.76818364 15.87327813-12.02227526 32.90283351-43.79439738 20.7849472-24.47336639-8.98370299-28.72666333-24.03130428-25.84213975-31.50990866 2.8845236-7.47860438 12.65342331-8.40508152 12.65342331-8.40508152 11.96430583-.71018664 11.66446052 8.02360298 21.3346766 10.28739605z"/><path fill="none" stroke="#1b556e" stroke-linecap="round" stroke-linejoin="round" stroke-width="5.364831505" d="M497.5671837 134.91946613s-9.75824809-1.72044294-15.3062642-7.91664775M495.7253395 142.84580959s-5.71580853 1.72256936-14.16348681-.34314438"/><path fill="#1b556e" stroke="#1b556e" stroke-linecap="round" stroke-linejoin="round" stroke-width="5.364831505" d="M535.90964422 139.18011776c-.35212803 2.17339079-6.6074923 4.6449589-9.00854702 3.97713493-2.15137547-.48797532-3.57269491-4.62152922-3.12874048-6.50123938.289896-.92885717 3.3223231-.7163318 6.17490156-.25415645 2.71674092.4401698 6.3623195 1.17023557 5.96238594 2.77827066z"/><path fill="none" stroke="#1b556e" stroke-linecap="round" stroke-linejoin="round" stroke-width="5.364831505" d="M573.66923043 149.61944585c5.43655443-3.44065178 17.73476737-5.3513609 17.73476737-5.3513609M588.25229585 157.69772134s-10.29401919-.13441342-15.76087028-3.39000777"/><path fill="#1b556e" d="M515.78234734 125.74266823c.24209046-1.49421287 1.52687007-2.54066715 2.88523565-2.32058226 1.35837534.2200849 2.24698652 1.61867696 2.00489606 3.11288984-.24209046 1.49421287-1.52687007 2.5406769-2.88523565 2.320592-1.35837534-.2200849-2.24698652-1.61868671-2.00489606-3.11288983M549.10333533 135.18404986c.24209046-1.49421287 1.5048645-2.40482962 2.88523564-2.32058225 1.35837534.2200849 2.24698652 1.61867696 2.00489606 3.11288983s-1.52687006 2.54066715-2.88523564 2.32058225c-1.35837534-.2200849-2.24698652-1.61867696-2.00489606-3.11288983"/></g></svg>