<svg xmlns="http://www.w3.org/2000/svg" width="600" height="300" viewBox="0 0 600.00001 299.99999"><path fill="#96f" d="M0 300V0h600v300z" style="mix-blend-mode:normal;fill-rule:nonzero;stroke:none;stroke-linecap:butt;stroke-linejoin:miter;stroke-miterlimit:10;stroke-dasharray:none;stroke-dashoffset:0"/><path fill="#aa80ff" d="M493.10149 97.8c-2.63541-8.53083-7.76695-13.71571-16.30148-16.29852 8.51008-2.59911 13.68978-7.7951 16.30148-16.30148 2.57985 8.44859 7.74176 13.59716 16.29852 16.30148-8.5538 2.58281-13.69348 7.7099-16.29852 16.29852z" style="mix-blend-mode:normal;fill-rule:nonzero;stroke:none;stroke-linecap:butt;stroke-linejoin:miter;stroke-miterlimit:10;stroke-dasharray:none;stroke-dashoffset:0"/><path fill="#8955f2" d="M562.10238 65.8c-4.25223-13.76447-12.53195-22.13026-26.30239-26.29761 13.73099-4.19366 22.08842-12.57737 26.30239-26.30239 4.16258 13.63177 12.49131 21.93898 26.29761 26.30239-13.80153 4.16736-22.09439 12.4399-26.29761 26.29761Z" style="mix-blend-mode:normal;fill-rule:nonzero;stroke:none;stroke-linecap:butt;stroke-linejoin:miter;stroke-miterlimit:10;stroke-dasharray:none;stroke-dashoffset:0"/><path fill="#aa80ff" d="M59.60333 319.80001c-5.94988-19.25979-17.5352-30.96553-36.80334-36.79666 19.21294-5.86793 30.90699-17.59875 36.80334-36.80334 5.82445 19.07412 17.47833 30.69789 36.79666 36.80334-19.31165 5.83113-30.91534 17.4064-36.79666 36.79666z" style="mix-blend-mode:normal;fill-rule:nonzero;stroke:none;stroke-linecap:butt;stroke-linejoin:miter;stroke-miterlimit:10;stroke-dasharray:none;stroke-dashoffset:0"/><path fill="#8955f2" d="M135.10284 268.8c-5.06063-16.38129-14.91445-26.33753-31.30285-31.29715 16.34145-4.99093 26.28774-14.96851 31.30285-31.30285 4.95394 16.22337 14.86608 26.10989 31.29715 31.30285-16.42539 4.95963-26.29484 14.8049-31.29715 31.29715z" style="mix-blend-mode:normal;fill-rule:nonzero;stroke:none;stroke-linecap:butt;stroke-linejoin:miter;stroke-miterlimit:10;stroke-dasharray:none;stroke-dashoffset:0"/><path fill="#aa80ff" d="M102.10221 182.8C98.17335 170.08226 90.52326 162.35266 77.8 158.50221c12.68681-3.87475 20.40869-11.62092 24.30221-24.30221 3.84603 12.59514 11.54139 20.27062 24.29779 24.30221-12.75198 3.85045-20.4142 11.4939-24.29779 24.29779z" style="mix-blend-mode:normal;fill-rule:nonzero;stroke:none;stroke-linecap:butt;stroke-linejoin:miter;stroke-miterlimit:10;stroke-dasharray:none;stroke-dashoffset:0"/><path fill="#8955f2" d="M22.10266 200.8C17.36539 185.46544 8.14121 176.14539-7.2 171.50266 8.09726 166.83064 17.40801 157.49061 22.10266 142.2c4.6374 15.18673 13.91616 24.44153 29.29734 29.30266-15.37585 4.64272-24.61465 13.8589-29.29734 29.29734Z" style="mix-blend-mode:normal;fill-rule:nonzero;stroke:none;stroke-linecap:butt;stroke-linejoin:miter;stroke-miterlimit:10;stroke-dasharray:none;stroke-dashoffset:0"/><path fill="#aa80ff" d="M56.12097 93.81502c-5.22231-16.90466-15.39095-27.17897-32.30294-32.29705 16.86354-5.15039 27.12761-15.44674 32.30294-32.30294C61.23318 45.95672 71.462 56.15911 88.41803 61.51798c-16.95016 5.11809-27.13491 15.2779-32.29705 32.29706ZM478.10304 292.8c-5.38399-17.42802-15.86745-28.02043-33.30303-33.29697 17.38563-5.30985 27.96747-15.92496 33.30303-33.30303 5.27049 17.26001 15.81598 27.77826 33.29697 33.30303-17.47494 5.27655-27.97501 15.7509-33.29697 33.29697z" style="mix-blend-mode:normal;fill-rule:nonzero;stroke:none;stroke-linecap:butt;stroke-linejoin:miter;stroke-miterlimit:10;stroke-dasharray:none;stroke-dashoffset:0"/><path fill="#8955f2" d="M538.60315 177.8c-5.62652-18.21306-16.5822-29.28262-34.80316-34.79684 18.16876-5.54902 29.22726-16.6423 34.80316-34.80316 5.5079 18.03748 16.52842 29.02953 34.79684 34.80316-18.2621 5.51422-29.23515 16.4604-34.79684 34.79684z" style="mix-blend-mode:normal;fill-rule:nonzero;stroke:none;stroke-linecap:butt;stroke-linejoin:miter;stroke-miterlimit:10;stroke-dasharray:none;stroke-dashoffset:0"/><path fill="#aa80ff" d="M257.10183 288.8c-3.28213-10.62429-9.67295-17.08153-20.30185-20.29815 10.59845-3.23693 17.04924-9.70801 20.30185-20.30185 3.21294 10.52187 9.64158 16.93389 20.29815 20.30185-10.65289 3.21663-17.05384 9.6019-20.29815 20.29815z" style="mix-blend-mode:normal;fill-rule:nonzero;stroke:none;stroke-linecap:butt;stroke-linejoin:miter;stroke-miterlimit:10;stroke-dasharray:none;stroke-dashoffset:0"/><path fill="#8955f2" d="M152.10139 46.8c-2.47373-8.00747-7.29045-12.87425-15.30139-15.29861 7.98799-2.43966 12.84992-7.31687 15.30139-15.30139 2.42158 7.93027 7.2668 12.76298 15.29861 15.30139-8.02903 2.42436-12.85339 7.2369-15.29861 15.29861z" style="mix-blend-mode:normal;fill-rule:nonzero;stroke:none;stroke-linecap:butt;stroke-linejoin:miter;stroke-miterlimit:10;stroke-dasharray:none;stroke-dashoffset:0"/><path fill="#aa80ff" d="M297.10138 63.8c-2.47373-8.00747-7.29045-12.87425-15.30139-15.29861 7.98799-2.43966 12.84991-7.31687 15.30139-15.30139 2.42157 7.93028 7.26681 12.76298 15.29861 15.30139-8.02902 2.42436-12.85339 7.2369-15.29861 15.29861zm293.04481 198.68169c-4.73799-15.33693-13.9636-24.65841-29.30717-29.30183 15.29962-4.67275 24.6118-14.01421 29.30717-29.30717 4.63811 15.18907 13.9183 24.44529 29.30183 29.30717-15.37821 4.64344-24.61843 13.86103-29.30183 29.30183z" style="mix-blend-mode:normal;fill-rule:nonzero;stroke:none;stroke-linecap:butt;stroke-linejoin:miter;stroke-miterlimit:10;stroke-dasharray:none;stroke-dashoffset:0"/><path fill="#8955f2" d="M219.0113 83.84806c-2.47373-8.00747-7.29045-12.87425-15.30139-15.29861 7.98799-2.43966 12.84991-7.31687 15.30139-15.30139 2.42157 7.93028 7.26681 12.76298 15.29861 15.30139-8.02902 2.42436-12.85339 7.2369-15.29861 15.29861zM375.35298 75.3c-5.26272-17.03549-15.51007-27.38935-32.55295-32.54704 16.99406-5.19024 27.33756-15.56629 32.55295-32.55296 5.15179 16.87128 15.45977 27.15262 32.54703 32.55297-17.08136 5.1577-27.34494 15.39615-32.54703 32.54704z" style="mix-blend-mode:normal;fill-rule:nonzero;stroke:none;stroke-linecap:butt;stroke-linejoin:miter;stroke-miterlimit:10;stroke-dasharray:none;stroke-dashoffset:0"/><path fill="#aa80ff" d="M338.79673 272.61203c-4.8181-15.59624-14.1997-25.07535-29.80271-29.79729 15.55831-4.75175 25.02794-14.25117 29.80271-29.80272 4.71654 15.4459 14.15364 24.85862 29.79729 29.80272-15.63824 4.72195-25.0347 14.0954-29.79729 29.79729z" style="mix-blend-mode:normal;fill-rule:nonzero;stroke:none;stroke-linecap:butt;stroke-linejoin:miter;stroke-miterlimit:10;stroke-dasharray:none;stroke-dashoffset:0"/><path fill="#fff" stroke="#96f" stroke-miterlimit="10" stroke-width="1.60982" d="M315.45879 153.41811c-.5232 2.11413-1.02226 3.7991-1.49317 5.06846-.47893 1.26035-1.16314 2.7601-2.02845 4.48121l4.76929 3.76294c.5876.42914 1.33215.93961 2.24979 1.54042l-6.83797 8.98952c-1.24767-.75892-2.54762-1.6353-3.88383-2.63814-1.34426-1.00286-2.55167-1.85664-3.60613-2.56584-2.20956 1.66237-4.41511 2.8685-6.62466 3.64098-3.05072 1.03897-6.52806 1.563-10.42394 1.563-6.10147 0-10.6373-1.45459-13.61154-4.37281-2.97425-2.90464-4.46742-6.43268-4.46742-10.58864 0-2.9905.87337-5.81382 2.6241-8.47454 1.75074-2.65168 4.60829-4.91037 8.5887-6.73989-1.6622-2.32191-2.8052-4.32308-3.42501-6.03517-.62787-1.69851-.93777-3.4422-.93777-5.20398 0-3.72681 1.23558-6.78957 3.71079-9.19731 2.48725-2.40774 6.24229-3.61387 11.28525-3.61387 5.13952 0 8.91873 1.14741 11.32951 3.43319 2.42288 2.29481 3.62626 5.03233 3.62626 8.2306 0 1.79339-.37429 3.50546-1.11081 5.1543-.74862 1.64881-1.63002 2.98143-2.67643 4.00688-1.04643 1.02542-2.91388 2.55229-5.61043 4.58059 2.22968 2.56584 4.55596 4.94649 6.97882 7.14643.63993-1.49524 1.19534-3.05824 1.65415-4.70706zm-20.73924-15.10146c.8935-1.21064 1.34426-2.3445 1.34426-3.41962 0-1.12481-.37429-2.07798-1.11887-2.85948-.74456-.76795-1.78294-1.16097-3.09498-1.16097-1.29193 0-2.33433.42915-3.1473 1.29648-.80898.85378-1.21547 1.87019-1.21547 3.04017 0 1.48621 1.139 3.63647 3.43306 6.45982 1.64209-1.039 2.90181-2.15026 3.79931-3.3564zm-11.81251 19.73178c-.57554 1.01188-.86533 2.07797-.86533 3.19827 0 1.74823.652 3.29766 1.96406 4.66643 1.31205 1.3552 3.01852 2.03733 5.11942 2.03733 2.27393 0 4.82159-1.01191 7.64692-3.05374-2.69252-2.37611-6.16182-5.86802-10.37567-10.46216-1.75879 1.4049-2.92193 2.61555-3.4894 3.61388z" style="mix-blend-mode:normal;fill-rule:nonzero;stroke-linecap:butt;stroke-linejoin:miter;stroke-dasharray:none;stroke-dashoffset:0"/><g stroke="#fff" stroke-miterlimit="10" style="mix-blend-mode:normal;fill-rule:nonzero;stroke-linecap:butt;stroke-linejoin:miter;stroke-dasharray:none;stroke-dashoffset:0"><path fill="#fff" stroke="none" d="M244.60239336 239.55715477c-1.6991251 0-3.39822582-.6493287-4.6968954-1.94258985L74.1022534 71.80589974c-2.59194292-2.5919551-2.59194292-6.80181133 0-9.39376643 2.59194291-2.5919551 6.80182351-2.5919551 9.39377861 0l165.80325675 165.80325674c2.59194291 2.59194292 2.59194291 6.80182352 0 9.3937908-1.29869395 1.29327333-2.99780686 1.94799828-4.69688322 1.94799828z"/><path fill="#aa80ff" stroke-width="9.135867" d="M147.34752006 99.12126503c0 20.17820673-16.35791603 36.53614713-36.53612276 36.53614713-20.17819454 0-36.53613494-16.35791604-36.53613494-36.53614713 0-20.17819454 16.35791603-36.53613494 36.53614712-36.53613494 20.17820673 0 36.53613495 16.35790385 36.53613495 36.53613494z"/><path fill="#8a5ce6" stroke-width="9.135867" d="M142.28303392 174.54883452c-19.63828917-4.63721992-31.79904173-24.31642559-27.16178527-43.9546904 4.63721991-19.63830134 24.3164134-31.79904172 43.95469039-27.16179745 19.63830135 4.63721992 31.7990661 24.31642559 27.16178527 43.95467821-4.63721992 19.63830135-24.31642559 31.79905392-43.9546782 27.16180964z"/><path fill="#7a45e6" stroke-width="9.135867" d="M227.0700677 178.83855042c0 20.17819454-16.36333664 36.54151901-36.541519 36.54151901-20.17820673 0-36.53614713-16.36333665-36.53614713-36.54151901 0-20.17819455 16.35791603-36.53613495 36.53614712-36.53613495 20.17820673 0 36.54151902 16.36332447 36.54151902 36.53613495z"/><path fill="#fff" stroke-width="1.8271734" d="M245.75619245 239.82694301c-1.47292102 0-2.94582986-.56289121-4.07160011-1.6839839l-35.27465443-35.27464225c-2.25158924-2.24688731-2.25158924-5.89630075 0-8.14317588 2.25158923-2.2468873 5.89159881-2.2468873 8.14320023 0l35.27465443 35.27464225c2.24688731 2.24688731 2.24688731 5.89630074 0 8.14318805-1.1258068 1.11642731-2.59871564 1.68398392-4.07160012 1.68398392z"/></g><g fill="#fff" stroke="#fff" stroke-miterlimit="10" stroke-width="1.5" style="mix-blend-mode:normal;fill-rule:nonzero;stroke-linecap:butt;stroke-linejoin:miter;stroke-dasharray:none;stroke-dashoffset:0"><path stroke-width="1.8271734" d="M187.00326124 185.72994197c5.7190162 0 10.35531035-4.63617233 10.35531035-10.35529816v-5.17764908c0-2.85950201 2.3181227-5.17764909 5.1776369-5.17764909 2.85951419 0 5.17764908 2.3181349 5.17764908 5.17764909v5.17764908c0 11.43816639-9.2724543 20.7106085-20.7106207 20.7106085h-5.17764907c-2.8595142 0-5.17764909-2.31803743-5.17764909-5.17764907 0-2.85950201 2.3181349-5.17764909 5.17764909-5.17764909zM114.25789704 92.424102c-5.7190162 0-10.35529817 4.63618452-10.35529817 10.35529817v5.17764908c0 2.85950201-2.3181349 5.17764908-5.17764908 5.17764908-2.8595142 0-5.1776369-2.31813489-5.1776369-5.17764908v-5.17764908c0-11.43816639 9.2724543-20.71060851 20.71062069-20.71060851h5.17764908c2.8595142 0 5.1776369 2.31803744 5.1776369 5.17764908 0 2.85950201-2.31813489 5.17766126-5.1776369 5.17766126z"/><path stroke-width="1.8271734" d="M119.43554612 185.72994197c2.859502 0 5.17764908 2.3181349 5.17764908 5.17764909 0 2.85962382-2.31812271 5.17766126-5.17764908 5.17766126h-5.17764908c-11.4381664 0-20.7106207-9.27244212-20.7106207-20.71060851v-5.17764908c0-2.85950201 2.31812271-5.1776369 5.1776369-5.1776369 2.8595142 0 5.17764909 2.3181227 5.17764909 5.1776369v5.17764908c0 5.71911365 4.63628196 10.35529816 10.35531034 10.35529816zM181.82568524 92.424102c-2.859502 0-5.17764908-2.31813489-5.17764908-5.17764908 0-2.85962382 2.31812271-5.17764908 5.17764908-5.17764908h5.1776369c11.4381664 0 20.7106207 9.27244212 20.7106207 20.71060851v5.17764908c0 2.85950201-2.3181349 5.17764909-5.17764908 5.17764909-2.8595142 0-5.17764909-2.3181349-5.17764909-5.17764909v-5.17764908c0-5.71911365-4.63628196-10.35529816-10.35529816-10.35529816z" data-paper-data="{&quot;index&quot;:null}"/><path stroke-width="1.8271734" d="M161.06891015 196.06253446h-20.7106085c-2.85911222 0-5.1776491-2.31856123-5.1776491-5.17764908 0-2.85910003 2.31856124-5.1776369 5.1776491-5.1776369h20.7106085c2.85950201 0 5.1776369 2.31854905 5.1776369 5.1776369 0 2.85910003-2.31813489 5.17764908-5.1776369 5.17764908zm46.74279865-67.15309293v20.7106085c0 2.85910004-2.31856124 5.17763691-5.17764909 5.17763691-2.85910003 0-5.17764908-2.31854905-5.17764908-5.1776369v-20.71060851c0-2.85950201 2.31856123-5.17764908 5.17764908-5.17764908 2.85910003 0 5.17764909 2.31813489 5.17764909 5.17764908zM104.000377 149.31930948c0 2.85910003-2.3181349 5.17764908-5.17764908 5.17764908-2.85950201 0-5.1776369-2.31856123-5.1776369-5.17764908v-20.71060851c0-2.85950201 2.3181227-5.17764908 5.1776369-5.17764908 2.859502 0 5.17764908 2.31813489 5.17764908 5.17764908zm36.387939-57.06809462c-2.85911221 0-5.1776369-2.3181349-5.1776369-5.17764908 0-2.8595142 2.31853687-5.17764909 5.1776369-5.17764909h20.71060851c2.85951419 0 5.17764908 2.3181349 5.17764908 5.17764909s-2.31814707 5.17764908-5.17764908 5.17764908z"/></g><g style="mix-blend-mode:normal;fill-rule:nonzero;stroke-linecap:butt;stroke-linejoin:miter;stroke-dasharray:none;stroke-dashoffset:0"><path stroke="#fff" stroke-width="9.135867" d="M498.54532781 120.30905815c-.01632274 2.49711261-.19422853 4.99054652-.53279158 7.46464894 18.18745258 10.24490034 29.44286509 29.49558513 29.45012506 50.36999364 0 15.33870654-6.09327004 30.04918213-16.93937134 40.89528343s-25.5565769 16.93937134-40.89528343 16.93937134c-10.16488233-.04507028-20.13832562-2.76852095-28.9154454-7.89580096-8.77822825 5.12791343-18.75304801 7.85133974-28.91920937 7.89580096-15.33870653 0-30.04916994-6.09328222-40.89528343-16.93938352-10.8461013-10.8461013-16.93937134-25.5565769-16.93937134-40.89528343.05907861-20.82758415 11.31235941-40.01475639 29.46140481-50.23256584-.34832015-2.51930669-.53007518-5.05884627-.5440957-7.60208893 0-31.94119582 25.89347113-57.83464258 57.83466696-57.83464258 31.94118364 0 57.83464258 25.89344676 57.83464258 57.83464258z"/><path fill="red" stroke="red" stroke-miterlimit="10" stroke-width="7" d="M284.4525 202.98326c0-26.22181 21.25698-47.47879 47.47879-47.47879 26.22181 0 47.47879 21.25698 47.47879 47.47879 0 26.22181-21.25698 47.47878-47.47879 47.47878-26.22181 0-47.47879-21.25697-47.47879-47.47878z" style="mix-blend-mode:screen" transform="translate(7.46268146 -69.11326518) scale(1.2181156)"/><path fill="#0f0" stroke="#0f0" stroke-miterlimit="10" stroke-width="7" d="M308.19191 155.50439c0-26.22181 21.25698-47.47879 47.47879-47.47879 26.22181 0 47.47879 21.25698 47.47879 47.47879 0 26.22181-21.25698 47.47879-47.47879 47.47879-26.22181 0-47.47879-21.25698-47.47879-47.47879z" style="mix-blend-mode:screen" transform="translate(7.46268146 -69.11326518) scale(1.2181156)"/><path fill="#00f" stroke="#00f" stroke-miterlimit="10" stroke-width="7" d="M331.93129 202.98326c0-26.22181 21.25698-47.47879 47.47879-47.47879 26.22181 0 47.47879 21.25698 47.47879 47.47879 0 26.22181-21.25698 47.47878-47.47879 47.47878-26.22181 0-47.47879-21.25697-47.47879-47.47878z" style="mix-blend-mode:screen" transform="translate(7.46268146 -69.11326518) scale(1.2181156)"/></g></svg>