<svg xmlns="http://www.w3.org/2000/svg" width="600" height="300"><g stroke-miterlimit="10" data-paper-data="{&quot;isPaintingLayer&quot;:true}" style="mix-blend-mode:normal"><path fill="#f2a116" d="M0 300V0h600v300z"/><path fill="#f2a716" d="M.79 150C.79-15.249 134.752-149.21 300-149.21c165.249 0 299.21 133.961 299.21 299.21 0 165.249-133.961 299.21-299.21 299.21C134.751 449.21.79 315.248.79 150z"/><path fill="#f2a116" d="M37.8 150C37.8 5.191 155.191-112.2 300-112.2c144.809 0 262.2 117.391 262.2 262.2 0 144.809-117.391 262.2-262.2 262.2-144.809 0-262.2-117.391-262.2-262.2z"/><path fill="#f2af16" d="M75.278 150C75.278 25.89 175.89-74.722 300-74.722 424.11-74.722 524.722 25.89 524.722 150c0 124.11-100.612 224.722-224.722 224.722C175.89 374.722 75.278 274.11 75.278 150Z"/><path fill="#f2a716" d="M113.225 150c0-103.153 83.622-186.775 186.775-186.775S486.775 46.847 486.775 150 403.153 336.775 300 336.775 113.225 253.153 113.225 150z"/><path fill="#f2a116" d="M150 150C150 67.157 217.157 0 300 0s150 67.157 150 150-67.157 150-150 150-150-67.157-150-150z"/><path fill="#f2af16" d="M188.18 150c0-61.756 50.064-111.82 111.82-111.82 61.756 0 111.82 50.064 111.82 111.82 0 61.756-50.064 111.82-111.82 111.82-61.756 0-111.82-50.064-111.82-111.82z"/><path fill="#f2a716" d="M224.956 150c0-41.446 33.598-75.044 75.044-75.044s75.044 33.598 75.044 75.044-33.598 75.044-75.044 75.044-75.044-33.598-75.044-75.044z"/><path fill="#f2a116" d="M262.59 150c0-20.661 16.749-37.41 37.41-37.41 20.66 0 37.41 16.749 37.41 37.41 0 20.66-16.75 37.41-37.41 37.41-20.661 0-37.41-16.75-37.41-37.41z"/><g fill="#fff"><g stroke="#000" stroke-opacity=".129" stroke-width="10"><path d="M175.447 25.226h56.194l-21.916 17.773 27.048 26.156-17.84 17.838-26.129-27.018-17.357 21.445zM424.774 25.446v56.196L407 59.726l-26.155 27.046-17.839-17.84 27.018-26.127-21.445-17.359ZM380.846 213.228l26.14 27.032 17.567-21.68v56.194h-56.195l21.68-17.566-27.032-26.142zM236.773 230.846l-27.033 26.14 21.68 17.567h-56.195v-56.195l17.567 21.68 26.141-27.031z"/></g><path d="M175.447 25.226h56.194l-21.916 17.773 27.048 26.156-17.84 17.838-26.129-27.018-17.357 21.445zM424.774 25.446v56.196L407 59.726l-26.155 27.046-17.839-17.84 27.018-26.127-21.445-17.359ZM380.846 213.228l26.14 27.032 17.567-21.68v56.194h-56.195l21.68-17.566-27.032-26.142ZM236.773 230.846l-27.033 26.14 21.68 17.567h-56.195v-56.195l17.567 21.68 26.141-27.031z"/></g><path fill="#fff" stroke="#000" stroke-opacity=".129" stroke-width="10" d="M234.47 191.116V110.16c0-5.319 7.985-12.413 14.83-12.413h101.194c7.63 0 15.18 6.729 15.18 13.46v75.721c0 7.223-5.79 15.325-14.83 15.325H248.6c-6.992 0-14.132-4.322-14.132-11.137z"/><path fill="#fff" d="M234.47 191.116V110.16c0-5.319 7.985-12.413 14.83-12.413h101.194c7.63 0 15.18 6.729 15.18 13.46v75.721c0 7.223-5.79 15.325-14.83 15.325H248.6c-6.992 0-14.132-4.322-14.132-11.137z"/><path fill="#f2c04b" d="M234.47 110.16c0-5.319 7.985-12.413 14.83-12.413h101.194c7.63 0 15.18 6.729 15.18 13.46l-.09 5.406-131.257-.402.142-6.051z"/><path fill="#fff" d="M241.935 108.249a3.429 3.429 0 1 1 6.858 0 3.429 3.429 0 0 1-6.858 0zM250.871 108.249a3.429 3.429 0 1 1 6.857 0 3.429 3.429 0 0 1-6.857 0zM259.807 108.249a3.429 3.429 0 1 1 6.857 0 3.429 3.429 0 0 1-6.857 0z"/></g></svg>