<svg version="1.1" xmlns="http://www.w3.org/2000/svg" xmlns:xlink="http://www.w3.org/1999/xlink" width="600" height="299.85711" viewBox="0,0,600,299.85711"><g transform="translate(60,-31.98666)"><g data-paper-data="{&quot;isPaintingLayer&quot;:true}" fill-rule="nonzero" stroke="none" stroke-linecap="butt" stroke-linejoin="miter" stroke-miterlimit="10" stroke-dasharray="" stroke-dashoffset="0" style="mix-blend-mode: normal"><path d="M-60,328.01334v-296.02667h600v296.02667z" fill="#ffd000" stroke-width="1"/><g><path d="M45.17602,38.62277c1.72653,0 3.71871,4.63441 4.64838,10.7719c0.79686,5.5112 0.66405,5.76171 -1.99216,5.01018c-2.39059,-0.75153 -3.18746,-0.12525 -4.914,3.75764c-2.65622,5.88697 -2.65621,6.01222 1.46093,8.14155c3.32027,1.62831 3.71871,1.50305 6.50773,-1.87882c3.45308,-4.00815 3.98433,-3.50713 6.64054,5.76171c0.92968,3.63238 2.12497,7.51527 2.65622,8.64257c0.66405,1.6283 -0.79687,2.50509 -7.03898,4.1334c-9.29676,2.37984 -12.3514,2.50509 -11.68735,0.37577c2.39059,-7.01426 2.12497,-8.14155 -1.99216,-9.76985c-3.85152,-1.3778 -4.38275,-1.3778 -6.64054,1.50305c-2.92183,3.50713 -3.05465,5.13544 -0.92968,7.13951c2.12497,2.00407 0.39844,3.38188 -6.90616,5.01018c-7.3046,1.75357 -8.4999,0.87678 -10.22643,-8.14156l-1.32811,-6.51323l3.5859,0.62627c2.78903,0.62627 3.98433,0.00001 5.71087,-2.37983c2.12497,-3.13136 2.12497,-3.38188 -1.32811,-5.88697c-3.05465,-2.25458 -3.7187,-2.37984 -5.71086,-0.62627c-1.1953,1.00204 -3.05465,1.87882 -4.11715,1.75357c-1.32811,0 -1.32811,-0.25051 -0.13281,-0.75153c0.79686,-0.25052 1.59374,-1.12729 1.59374,-1.75357c0,-0.75153 -0.53125,-1.00203 -1.1953,-0.62627c-1.06248,0.75153 -3.58589,-12.77596 -2.52341,-13.778c0.79686,-0.62627 19.65601,1.6283 20.58568,2.50509c0.53125,0.37576 -0.26562,1.87882 -1.46092,3.13136c-2.25779,2.37984 -2.25778,2.50509 0.39844,3.75764c2.39059,1.25255 3.05465,0.87678 5.44524,-3.75764c2.78903,-4.88493 2.78903,-5.13544 0.39843,-7.01425c-1.46092,-1.12729 -1.85934,-2.00408 -0.92967,-2.37984c0.79686,-0.37576 3.45308,-2.00407 5.84367,-3.63238c2.52341,-1.75357 4.91401,-3.13136 5.57806,-3.13136zM44.24635,41.12785c-2.78903,0 -3.85152,2.50509 -1.06249,2.63035c2.65622,0.12525 1.59374,0.50102 -3.85152,1.6283l-3.58589,0.75153l3.05464,2.88086c3.45308,3.25662 8.23428,3.75764 8.4999,0.87678c0,-1.00204 -0.26563,-3.38187 -0.66405,-5.38594c-0.26563,-1.87882 -1.46093,-3.38188 -2.3906,-3.38188zM40.52764,52.40079c-1.46092,-1.87882 -1.85935,-1.62831 -4.51557,3.25662c-1.72653,3.00611 -3.05465,6.26273 -3.05465,7.26477c0,2.37984 -6.64054,13.40224 -8.63271,14.02852c-0.79686,0.37577 -3.18746,-0.00001 -5.17963,-0.75153c-3.32027,-1.12729 -3.58589,-1.00204 -2.92183,1.25255c0.39843,1.3778 1.1953,3.63238 1.59373,5.01018c0.53125,2.00407 1.85935,2.50509 6.64054,2.50509c5.84368,0 7.03898,-0.87678 4.38276,-3.38187c-1.59374,-1.50306 3.18746,-11.64868 5.57805,-11.64868c0.66405,0 3.58589,1.12729 6.50773,2.50509c4.914,2.37984 5.17963,2.7556 3.85152,5.76171c-0.66405,1.87882 -0.92967,3.63238 -0.53125,4.00814c0.66405,0.75153 12.61704,-1.87882 13.67952,-2.88086c0.26562,-0.25051 0.13281,-1.12729 -0.39844,-1.87882c-0.66405,-1.00204 -1.32811,-0.87678 -2.3906,0.37577c-1.72653,2.12933 -8.89832,3.63238 -8.89832,2.00407c0,-0.62627 1.85935,-1.12729 3.98433,-1.12729c3.58589,0 4.64838,-1.12728 4.11713,-4.1334c-0.13281,-0.62627 0.53125,-0.62627 1.32811,-0.25051c1.06249,0.75153 1.06249,0.25051 0,-1.6283c-0.79686,-1.3778 -1.59374,-4.1334 -1.59374,-6.13748c-0.13281,-1.87882 -0.39844,-2.63034 -0.79686,-1.50305c-0.26562,1.12729 -1.99216,2.63035 -3.58589,3.38187c-2.65622,1.12729 -3.85151,0.87679 -7.03897,-1.3778c-3.85152,-2.63034 -3.98433,-2.88086 -2.25779,-7.64054c1.46092,-3.75764 1.46092,-5.26069 0.13281,-7.01425zM13.43422,51.64926c-2.65622,-0.75153 -2.78903,-0.50101 -1.72653,3.8829c1.46092,6.01221 3.05465,7.51527 5.31243,5.01018c0.92967,-1.00204 2.65622,-1.87882 3.85152,-1.87882c1.1953,0 3.18745,-1.50305 4.51557,-3.13136l2.39059,-3.13136h-5.71086c-3.18746,0 -7.03897,-0.37577 -8.63271,-0.75154zM24.1919,59.79081c0.39843,0.50102 -0.92968,0.75154 -2.92185,0.37577c-3.45308,-0.50102 -3.45308,-0.37576 1.46092,3.50713l4.914,4.00815l-2.65622,3.50712c-2.92183,3.88289 -3.32027,5.01018 -1.46092,5.01018c0.66405,0 2.78903,-2.63035 4.64838,-5.88697c2.78903,-4.50916 3.18746,-6.01222 1.85935,-6.889c-0.92967,-0.50102 -1.06248,-1.00204 -0.39843,-1.00204c0.79686,0 0.13281,-0.87678 -1.1953,-1.87882c-2.92183,-2.00407 -5.31243,-2.50509 -4.24994,-0.75154z" fill="#110e00" stroke-width="1"/><path d="M13.39539,51.61777c1.59374,0.37577 5.51107,0.74093 8.69853,0.74093l5.72874,0.02l-2.38611,3.14534c-1.32812,1.62831 -3.34181,3.18103 -4.53711,3.18103c-1.1953,0 -2.97532,0.87813 -3.90499,1.88017c-2.25778,2.50509 -3.87544,0.95284 -5.33636,-5.05938c-1.0625,-4.38391 -0.91892,-4.65963 1.73729,-3.9081z" data-paper-data="{&quot;noHover&quot;:false,&quot;origItem&quot;:[&quot;Path&quot;,{&quot;applyMatrix&quot;:true,&quot;segments&quot;:[[[26.86844,103.29849],[0,0],[-5.31244,-1.50306]],[[23.41538,111.06429],[-2.125,-8.76782],[2.92184,12.02442]],[[34.04024,121.08465],[-4.51556,5.01018],[1.85934,-2.00408]],[[41.74328,117.32701],[-2.3906,0],[2.3906,0]],[[50.77442,111.06429],[-2.65624,3.25662],[0,0]],[55.5556,104.80157],[[44.13388,104.80157],[0,0],[-6.37492,0]],[[26.86846,103.29849],[3.18748,0.75154],[0,0]]],&quot;closed&quot;:true,&quot;fillColor&quot;:[0,0,0,1]}]}" fill="#110e00" stroke-width="0.5"/><path d="M40.53857,52.352c1.32811,1.75356 1.33532,3.2588 -0.12561,7.01644c-1.72654,4.75968 -1.56278,5.04736 2.28874,7.6777c3.18746,2.25459 4.28366,2.51337 6.93988,1.38608c1.59373,-0.75152 3.32113,-2.2441 3.58675,-3.37139c0.39842,-1.12729 0.76296,-0.38972 0.89577,1.4891c0,2.00408 0.79567,4.77614 1.59253,6.15394c1.06249,1.87881 1.06138,2.3837 -0.00111,1.63217c-0.79686,-0.37576 -1.46151,-0.37408 -1.3287,0.25219c0.53125,3.00612 -0.53905,4.14722 -4.12494,4.14722c-2.12498,0 -4.05441,0.4306 -4.05441,1.05687c0,1.62831 7.1587,0.14093 8.88522,-1.9884c1.06249,-1.25255 1.8162,-1.33361 2.48025,-0.33157c0.53125,0.75153 0.66262,1.63123 0.397,1.88174c-1.06248,1.00204 -13.03666,3.65327 -13.70071,2.90174c-0.39842,-0.37576 -0.1863,-2.21331 0.47775,-4.09213c1.32811,-3.00611 1.12681,-3.30542 -3.78719,-5.68526c-2.92184,-1.3778 -5.91844,-2.51341 -6.5825,-2.51341c-2.39059,0 -7.10484,10.07429 -5.5111,11.57735c2.65622,2.50509 1.40511,3.46471 -4.43857,3.46471c-4.78119,0 -6.11948,-0.5112 -6.65073,-2.51527c-0.39843,-1.3778 -1.20086,-3.64185 -1.59929,-5.01964c-0.66406,-2.25459 -0.30724,-2.42086 3.01303,-1.29357c1.99217,0.75152 4.29614,1.17642 5.093,0.80065c1.99217,-0.62628 8.64318,-11.71677 8.64318,-14.09661c0,-1.00204 1.35478,-4.26895 3.08131,-7.27506c2.65622,-4.88493 3.06952,-5.13438 4.53045,-3.25556z" data-paper-data="{&quot;noHover&quot;:false,&quot;origItem&quot;:[&quot;Path&quot;,{&quot;applyMatrix&quot;:true,&quot;segments&quot;:[[[81.05528,104.80155],[0,0],[-2.92184,-3.75764]],[[72.02414,111.31479],[5.31244,-9.76986],[-3.45306,6.01222]],[[65.91484,125.84433],[0,-2.00408],[0,4.75968]],[[48.64942,153.90137],[3.98434,-1.25256],[-1.59372,0.75154]],[[38.29016,152.39831],[3.98434,1.50304],[-6.64054,-2.25458]],[[32.4465,154.90341],[-1.32812,-4.50918],[0.79686,2.7556]],[[35.63396,164.92377],[-0.79686,-2.7556],[1.0625,4.00814]],[[48.91504,169.93395],[-9.56238,0],[11.68736,0]],[[57.68056,163.17021],[5.31244,5.01018],[-3.18748,-3.00612]],[[68.83666,139.87285],[-4.78118,0],[1.3281,0]],[[81.85212,144.88303],[-5.84368,-2.7556],[9.828,4.75968]],[[89.55516,156.40645],[2.65622,-6.01222],[-1.3281,3.75764]],[[88.49266,164.42273],[-0.79684,-0.75152],[1.3281,1.50306]],[[115.8517,158.66101],[-2.12496,2.00408],[0.53124,-0.50102]],[[115.05482,154.90337],[1.0625,1.50306],[-1.3281,-2.00408]],[[110.27362,155.65491],[2.12498,-2.5051],[-3.45306,4.25866]],[[92.47698,159.66305],[0,3.25662],[0,-1.25254]],[[100.44564,157.40847],[-4.24996,0],[7.17178,0]],[[108.6799,149.14167],[1.0625,6.01224],[-0.26562,-1.25254]],[[111.33612,148.64065],[-1.59372,-0.75152],[2.12498,1.50306]],[[111.33612,145.38405],[2.12498,3.75762],[-1.59372,-2.7556]],[[108.14864,133.10909],[0,4.00816],[-0.26562,-3.75764]],[[106.55492,130.10299],[0.79684,-2.25458],[-0.53124,2.25458]],[[99.38314,136.86673],[3.18746,-1.50304],[-5.31244,2.25458]],[[85.3052,134.11113],[6.37492,4.50918],[-7.70304,-5.26068]],[[80.78962,118.83005],[-3.45308,9.51936],[2.92184,-7.51528]],[[81.05524,104.80155],[2.65622,3.50712],[0,0]]],&quot;closed&quot;:true,&quot;fillColor&quot;:[0,0,0,1]}]}" fill="#110e00" stroke-width="0.5"/><path d="M28.46593,60.49657c1.32811,1.00204 2.00443,1.8867 1.20757,1.8867c-0.66405,0 -0.52565,0.50656 0.40402,1.00758c1.32811,0.87678 0.92807,2.4463 -1.86096,6.95546c-1.85935,3.25662 -4.03204,5.90346 -4.6961,5.90346c-1.85935,0 -1.45607,-1.22895 1.46576,-5.11184l2.60477,-3.46033l-4.83516,-3.95851c-4.914,-3.88289 -4.96137,-4.10002 -1.50829,-3.599c1.99216,0.37576 3.33872,0.12078 2.94029,-0.38024c-1.06249,-1.75357 1.35625,-1.24736 4.27809,0.75671z" data-paper-data="{&quot;noHover&quot;:false,&quot;origItem&quot;:[&quot;Path&quot;,{&quot;applyMatrix&quot;:true,&quot;segments&quot;:[[[81.65869,114.48825],[-1.96115,-3.43202],[0.73543,0.98058]],[[76.26552,115.22369],[3.67716,0.73543],[-6.37374,-0.98058]],[[78.9621,122.08772],[-9.07033,-7.59946],[0,0]],[88.03243,129.93233],[[83.12955,136.79636],[0,0],[-5.39317,7.59946]],[[80.43297,146.60212],[-3.43202,0],[1.22572,0]],[[89.01301,135.08035],[-3.43202,6.37374],[5.14802,-8.82519]],[[92.44502,121.59743],[2.45144,1.71601],[-1.71601,-0.98058]],[[91.70959,119.63628],[-1.22572,0],[1.47086,0]],[[89.50329,115.95912],[2.45144,1.96115],[-5.39317,-3.9223]]],&quot;closed&quot;:true,&quot;fillColor&quot;:[0.9098,0.51765,0.07451]}]}" fill="#110e00" stroke-width="0.5"/><path d="M37.473,65.92829c0.79686,0.50102 3.71871,2.25459 6.50773,3.8829c2.65622,1.50306 4.91401,3.38187 4.91401,4.13339c0,0.62627 -2.3906,-0.62627 -5.31245,-2.7556c-2.92183,-2.25458 -6.24211,-3.75764 -7.3046,-3.38187c-1.1953,0.50102 -1.59374,0.12525 -1.06249,-1.00204c0.39843,-1.12729 1.32811,-1.50305 2.25779,-0.87678z" fill="#110e00" stroke-width="1"/><path d="M159.39338,63.17268c1.99216,1.00204 10.35924,2.88086 18.59352,4.38391c20.05445,3.38187 24.96845,4.63441 25.89813,6.889c0.92967,2.25458 -3.7187,7.13951 -10.62487,11.39817c-2.78903,1.6283 -5.31243,3.75764 -5.71087,4.75968c-0.53125,1.12729 2.12498,5.01018 6.37493,9.64461c3.98433,4.38391 9.16394,10.39612 11.68735,13.5275c2.3906,3.13136 5.04682,6.13748 5.84368,6.889c0.79686,0.62627 4.11713,4.63441 7.43741,8.76782c3.18746,4.1334 8.89833,10.64665 12.61704,14.40427c3.71871,3.75764 8.23427,8.76782 10.22643,11.14766l3.45308,4.25865l3.05465,-2.37984c1.72653,-1.25255 4.38275,-3.38187 5.84367,-4.50916c4.914,-3.88289 14.87482,-10.77189 17.92947,-12.27495c4.38275,-2.25459 24.57001,-17.15988 33.06991,-24.42465c4.11713,-3.50712 11.02331,-8.2668 15.40606,-10.52139c4.38275,-2.37984 8.10146,-4.38391 8.36709,-4.50916c0.53125,-0.37577 -7.3046,-14.02852 -10.35924,-18.16192l-2.78904,-3.63238l2.78904,-1.3778c6.50773,-3.25662 14.742,-5.26069 25.89812,-6.38798c6.64054,-0.62627 16.46855,-1.75357 21.9138,-2.50509c22.0466,-3.00611 25.49968,-3.13137 26.16374,-1.62831c0.66405,1.87882 -0.53125,73.27393 -1.32811,73.9002c-0.92967,0.87678 -12.61703,-5.76171 -13.28109,-7.51527c-0.39843,-0.87678 -3.45308,-3.75764 -6.64054,-6.26273l-6.10931,-4.63441l-20.32006,19.53971c-11.15612,10.77189 -22.97628,21.41854 -26.29656,23.54786c-3.32027,2.12932 -11.15612,8.14155 -17.39823,13.27698c-6.24211,5.26069 -16.60137,13.27698 -22.97628,17.91141l-11.68736,8.39205l16.33574,15.90734c9.03114,8.76782 17.92947,17.15988 19.78882,18.78818c3.32027,3.00611 6.10931,3.88289 6.90617,2.00407c0.26562,-0.50102 4.64838,-4.13339 9.6952,-8.14155c5.17963,-3.88289 10.75769,-8.5173 12.48422,-10.27087c1.72653,-1.75357 3.58589,-3.13136 4.11713,-3.13136c0.66405,0 1.46092,2.37984 1.99216,5.26069c0.39843,3.00611 1.59374,9.89511 2.65622,15.40632c2.25779,12.65071 4.64839,32.56619 5.04682,43.33809l0.26562,8.39206l7.30461,-3.75764c3.98433,-2.00407 9.69519,-5.01018 12.61703,-6.6385c9.82801,-5.76171 24.96845,-9.6446 36.65581,-9.6446c5.71087,0.12525 11.15612,0.50102 11.82017,0.87678c1.1953,0.75153 9.82801,2.37984 23.24191,4.38391c9.82801,1.50306 19.656,3.75764 21.91379,4.88493c1.1953,0.62627 4.11713,1.3778 6.64054,1.87882c2.52341,0.50102 7.3046,1.87882 10.62487,3.13136c3.32027,1.25255 9.96082,3.25662 15.00763,4.25866c4.91401,1.12729 12.0858,3.50713 16.07012,5.2607c3.85152,1.75357 7.83584,3.13136 8.89832,3.13136c1.06248,0 3.05464,0.75153 4.51556,1.75356c1.46092,0.87678 5.84368,2.63034 9.56239,3.75764c3.85152,1.25255 7.30461,2.7556 7.70303,3.38187c1.32811,1.87882 -0.39843,1.3778 -12.2186,-3.38187c-6.1093,-2.50509 -11.42174,-4.25866 -11.68736,-4.00814c-0.39843,0.25051 5.17963,2.88086 12.35142,5.76171c7.03897,2.88086 11.82017,5.2607 10.62487,5.2607c-2.92185,0 -20.85131,-7.26477 -23.90597,-9.76986c-1.1953,-0.87678 -5.84368,-2.37984 -10.35924,-3.25662c-7.43742,-1.50306 -8.36708,-1.37781 -11.28892,0.75153c-1.72653,1.25255 -4.51557,2.25459 -6.24212,2.25459c-2.25779,0 -2.52341,0.37576 -1.1953,1.12728c1.32811,0.87678 -0.13281,2.63034 -6.37493,7.13951c-4.51557,3.25662 -7.70303,6.38799 -7.17179,6.76375c0.66405,0.50102 5.84368,3.88289 11.68736,7.39002l10.62487,6.51324l-6.64054,-0.75153c-3.58589,-0.37576 -7.70303,-1.75356 -9.29676,-3.00611c-3.58589,-3.13136 -10.62487,-6.38798 -13.5467,-6.38798c-1.32811,0 -4.64838,-1.12729 -7.43741,-2.50509c-2.65622,-1.3778 -5.71087,-2.50509 -6.77335,-2.50509c-1.06248,0 -6.64054,-1.87882 -12.35142,-4.13339c-5.71087,-2.37984 -14.47639,-5.5112 -19.65601,-7.01426c-5.04682,-1.50306 -13.14828,-5.01018 -17.92947,-7.64053c-4.7812,-2.63034 -10.35925,-5.5112 -12.61703,-6.38798c-2.12497,-0.75153 -6.37492,-2.50509 -9.29676,-3.63238c-9.96082,-4.13339 -10.62487,-4.13339 -18.19508,0.12525c-9.56238,5.5112 -15.40606,11.14766 -15.9373,15.53157c-0.39843,3.63238 -0.66407,3.75764 -7.70303,3.88289c-6.24211,0.12525 -9.56238,1.25255 -22.17941,7.39002c-8.10147,4.13339 -14.6092,7.76579 -14.21077,8.26681c0.66405,1.00203 -12.35142,7.01425 -17.66385,8.14155c-2.12497,0.37576 0.79686,-1.75357 6.90616,-5.13545c17.92947,-10.02037 31.60899,-16.90937 33.73396,-17.03462c4.64838,-0.12525 -4.24994,-2.37984 -11.55455,-2.7556c-4.11713,-0.37576 -9.96082,-1.12729 -12.88265,-1.87882c-14.34358,-3.63238 -22.0466,-5.13544 -29.88245,-5.88696c-8.76553,-0.87678 -17.26541,-3.50713 -17.26541,-5.2607c0,-0.50102 3.58589,-4.1334 8.10146,-8.01629l8.10146,-7.01426l-6.77335,-6.76375c-3.85152,-3.75764 -8.4999,-9.01832 -10.35925,-11.77393c-1.99216,-2.7556 -6.1093,-7.89104 -9.03113,-11.27292c-7.83584,-9.01833 -11.28892,-13.90325 -11.28892,-16.03258c0,-1.00203 -0.79687,-2.5051 -1.85935,-3.25663c-1.59374,-1.25255 -2.25778,-1.00203 -3.45308,1.00204c-0.79686,1.50306 -4.51557,4.13339 -8.36709,5.88696c-3.85152,1.75357 -9.03114,5.2607 -11.55455,7.64054c-4.64838,4.38391 -21.64818,16.2831 -25.10126,17.6609c-1.06248,0.37577 -5.71086,3.38188 -10.22643,6.6385c-4.64838,3.25662 -9.42958,6.51323 -10.75769,7.13951c-2.25778,1.25255 -2.25778,1.3778 -0.13281,3.63238c2.65622,2.63034 6.90617,11.27291 7.03898,14.15377c0.13281,1.00203 0.92967,3.38188 1.99216,5.38595c0.92967,1.87882 1.46093,3.63238 1.1953,3.75764c-0.26563,0.25051 -7.03897,-0.25052 -15.14044,-1.12729c-7.96865,-0.87678 -17.1326,-1.25255 -20.05444,-0.87678l-5.44524,0.62627l-0.66405,13.65275c-0.79686,13.778 -1.99216,17.41039 -6.10931,17.41039c-1.72653,0 -1.59374,-0.37576 0.39844,-1.75356c1.99216,-1.3778 2.39059,-3.13136 2.25778,-8.39205c-0.13281,-3.75764 0.26563,-9.89511 0.92968,-13.65275c0.66405,-3.75764 1.06248,-7.13952 0.79686,-7.26477c-0.26563,-0.25051 -10.89049,-0.87678 -23.77315,-1.3778c-12.74984,-0.37576 -23.50752,-1.12729 -23.90596,-1.50306c-0.39844,-0.25051 0.79686,-4.38391 2.5234,-9.01832c1.85935,-4.63443 4.51557,-13.90326 5.84368,-20.54175c2.65622,-12.1497 6.64054,-24.67515 7.57023,-23.92362c0.26562,0.25052 -1.06249,5.5112 -2.92183,11.64868c-1.72653,6.26273 -3.05464,12.1497 -2.78903,13.15173c0.39844,2.12933 5.84367,-16.15784 6.50772,-21.91955l0.39844,-3.75764l-31.21056,0.37577c-70.92102,0.87678 -122.18601,-0.62626 -122.18601,-3.63238c0,-1.00203 8.89832,-1.87882 13.28109,-1.25255c7.57023,1.12729 66.80388,1.12729 72.11631,0l6.24212,-1.37781v-5.63646v-5.5112l-11.68735,0.62627c-20.18725,1.25255 -44.62445,1.12729 -48.47597,-0.37577c-4.64838,-1.75357 -23.37471,-1.75356 -28.02309,-0.12525c-4.24995,1.50306 -4.64839,0.37576 -0.39844,-1.25255l2.92185,-1.12729h-3.18746c-2.52341,-0.12525 -2.92183,-0.50102 -1.85935,-1.50305c1.1953,-1.12729 4.11713,-1.12729 11.28892,-0.25051c8.10146,1.12729 20.45288,1.12729 47.54629,0.37577c6.37492,-0.25052 39.17921,-0.37577 42.49949,-0.12525c1.85935,0 17.92948,0.12525 35.85895,0.12525c17.92947,0 35.99175,0.25051 40.37452,0.75153c7.03898,0.75153 7.96865,1.12729 9.16395,4.38391c0.79686,2.00407 1.85934,3.63238 2.39059,3.63238c0.53125,0 4.38276,-3.0061 8.76552,-6.63849c8.4999,-6.889 25.89813,-19.41447 39.31203,-28.18229c4.51557,-2.88085 10.22643,-7.13951 12.61703,-9.51934c4.38275,-4.00814 4.51557,-4.25866 2.52341,-7.89104c-1.1953,-2.00407 -3.05465,-4.38391 -4.11713,-5.26069c-1.1953,-1.00203 -2.12497,-2.25459 -2.12497,-3.00611c0,-0.62627 1.32811,-0.25051 3.05465,1.12729l2.92183,2.37984l-2.52341,-2.7556c-1.32811,-1.50306 -2.92183,-2.63034 -3.45308,-2.50509c-0.66405,0.12525 -4.914,-4.50917 -9.56238,-10.39613c-4.64838,-5.88697 -11.68736,-14.78003 -15.67169,-19.66497c-3.98433,-5.01018 -8.89832,-11.64868 -10.89049,-14.78004c-4.51557,-7.01426 -6.90617,-8.01629 -10.89049,-4.50916c-1.59374,1.3778 -3.45308,2.63034 -4.24994,2.63034c-0.66405,0 0.92967,-1.75356 3.45308,-3.88289c2.52341,-2.12933 3.45308,-3.25663 1.99216,-2.63035c-1.46092,0.75153 -4.11713,2.88086 -5.97649,4.75968c-1.85935,1.87882 -2.52341,3.00611 -1.59374,2.50509c0.79686,-0.50102 1.59374,-0.37577 1.59374,0.25051c0,0.75153 -1.72655,1.87883 -3.98434,2.63035c-3.5859,1.12729 -3.98433,1.00204 -3.98433,-1.3778c0,-3.13136 -3.58589,-22.42057 -5.97649,-32.94195c-1.32811,-5.63646 -1.46092,-9.89511 -0.66405,-16.90937c0.79686,-5.13544 1.19529,-10.77189 1.06248,-12.52546c0,-1.75357 0.00001,-3.75764 0.13282,-4.63441c0.39844,-3.13136 26.69498,0.75153 36.25737,5.38595zM134.55775,59.41504l-10.62488,-0.62627l7.96865,1.87882c7.83584,1.87882 24.83564,4.25866 25.6325,3.63238c0.26563,-0.25052 -2.3906,-1.25255 -5.97649,-2.25458c-3.45308,-1.12729 -11.1561,-2.25459 -16.99978,-2.63035zM127.7844,61.66963c-2.52341,-0.62627 -2.78903,-0.25052 -2.65622,4.00815c0.13281,4.63443 3.45308,7.89104 3.45308,3.38187c0.13281,-2.12933 0.13282,-2.12933 1.46093,0c0.79686,1.12729 1.99216,1.75357 2.78903,1.37781c0.79686,-0.50102 1.99216,-0.00001 2.65622,0.87678c0.79686,1.12729 1.46093,1.25255 1.85935,0.37577c0.26563,-0.75153 2.52341,-1.12729 4.914,-0.87678c3.85152,0.25051 3.98433,0.25051 0.92968,-0.75154c-5.44524,-1.75357 -0.79686,-1.50305 8.4999,0.50102c4.64838,1.00204 10.62487,1.87882 13.01547,1.75357c2.3906,-0.12525 7.03897,0.25051 10.35924,0.62627c17.53104,2.12933 19.65602,2.25458 20.45289,0.87678c0.66405,-0.87679 -0.13282,-1.3778 -1.99217,-1.3778c-1.59374,0 -5.04682,-0.50102 -7.70302,-1.25255c-4.24994,-1.00204 -12.08579,-2.25458 -47.28067,-7.51527c-4.38275,-0.75153 -9.16395,-1.62831 -10.75769,-2.00408zM390.88276,67.43134h-2.92183c-1.59374,0 -3.32027,0.62627 -3.85152,1.3778c-0.53125,0.87679 -1.72653,11.39817 -2.65622,23.54786c-0.92967,12.02444 -2.12498,24.04888 -2.52341,26.67923l-0.92967,4.75967l-4.51557,-3.75764c-5.44525,-4.38391 -5.31243,-4.38391 -7.03898,-1.3778c-1.1953,2.00407 -0.53125,2.88086 3.85152,5.5112c2.78903,1.87882 7.96866,5.88696 11.42174,9.01832c4.64838,4.25866 6.50773,5.38595 7.3046,4.1334c0.53125,-0.87678 1.1953,-17.03463 1.46092,-35.82281zM363.52371,70.06167c-0.26562,0 -3.85151,0.87678 -7.83583,1.75357c-3.98433,1.00204 -10.22644,1.75357 -13.94515,1.75357c-3.58589,0.12525 -10.35924,1.3778 -14.87481,2.88085l-8.23428,2.63034l2.65622,3.63238c2.65622,3.50712 2.65622,3.50712 7.57022,1.50305c2.65622,-1.12729 7.96865,-3.00611 11.55455,-4.25866c9.6952,-3.38187 21.78098,-8.2668 22.84348,-9.26884c0.39843,-0.37577 0.53123,-0.75153 0.26562,-0.62627zM146.24511,73.44355c-22.31223,-0.37577 -24.03878,0 -22.17942,4.63443c0.66405,1.3778 2.92183,1.87882 8.36709,1.87882c8.76552,0 42.6323,-3.25662 43.56197,-4.25865c0.39844,-0.25051 -1.32811,-0.87679 -3.71871,-1.25256c-2.52341,-0.37577 -14.21077,-0.87679 -26.03093,-1.00204zM200.56476,73.81932c-2.3906,-1.25255 -3.18746,-0.87678 -5.71087,2.37984c-1.72653,2.00407 -5.31243,5.13544 -8.10146,6.889c-2.92183,1.87882 -5.04682,3.8829 -4.7812,4.63443c0.92967,2.63034 3.05465,2.37984 4.38276,-0.50102c0.79686,-1.50306 2.65622,-2.75561 4.38275,-2.88086c1.72653,-0.12525 5.17963,-2.25459 7.83584,-4.63443c4.64838,-4.38391 4.64838,-4.50916 1.99216,-5.88697zM325.14136,88.09834c-0.79686,-0.50102 0.13281,2.00407 2.12497,5.5112c1.85935,3.63238 3.85152,6.26273 4.11713,5.88697c0.26562,-0.25051 -0.66405,-2.75561 -2.12498,-5.5112c-1.46092,-2.88085 -3.45308,-5.5112 -4.11713,-5.88696zM176.526,90.47818c-1.1953,1.25255 -0.92967,2.12933 0.66405,3.38187c4.38275,3.38187 24.03876,26.92973 30.41369,36.19857c3.45308,5.13544 9.82801,12.4002 14.07796,16.03259c4.24994,3.63238 9.56238,9.39409 11.95298,12.77596c3.71871,5.38594 4.51557,5.88697 6.64054,4.63443c3.71871,-2.12932 3.18746,-3.75764 -3.98433,-11.77393c-6.77335,-7.64054 -14.6092,-14.78003 -12.74984,-11.64867c1.06248,1.6283 0.92967,1.6283 -1.06249,0.12525c-2.52341,-1.87882 -3.05465,-4.50916 -0.66405,-3.13136c1.59374,1.00203 -1.19529,-3.00611 -7.83583,-10.89714c-14.6092,-17.66089 -23.37472,-27.43076 -23.90597,-26.92974c-0.92967,0.87679 2.12498,5.76172 3.5859,5.76172c0.79686,0 1.32811,0.50102 1.32811,1.12728c0,1.3778 2.65622,4.38391 14.34358,16.65886c4.51557,4.75968 8.89833,10.02038 9.6952,11.39817c0.92967,1.87882 0.26562,1.50305 -2.12498,-1.00204c-1.85935,-2.12933 -6.37492,-6.889 -9.828,-10.64664c-15.67169,-16.53361 -18.72634,-20.29124 -18.72634,-22.92158c0,-2.88085 -2.25779,-5.88697 -4.38276,-5.88697c-0.53125,0 -0.66405,0.62626 -0.13281,1.50305c0.66405,0.87679 0.39843,1.00204 -0.66405,0.50102c-0.92967,-0.62627 -1.32811,-1.75356 -0.92967,-2.63034c0.26563,-0.87679 -0.13282,-2.25459 -0.92968,-3.00611c-1.85935,-1.75357 -2.92183,-1.75357 -4.78119,0.37577zM324.47731,105.13297c-7.3046,4.00814 -21.91379,14.52953 -25.89812,18.66293c-1.85935,2.00407 -19.12477,14.02852 -27.62466,19.28921c-13.14828,8.14155 -28.81996,20.66701 -28.81996,23.04685c0,3.50713 3.05464,3.0061 8.23427,-1.37781c2.78903,-2.37984 11.28893,-8.14155 18.99196,-12.77596c14.87482,-9.14359 30.94494,-21.16802 31.60899,-23.92363c0.26562,-1.00204 4.51557,-4.25866 9.56238,-7.51527c5.04682,-3.13136 10.09362,-7.13951 11.28892,-8.76782c1.06248,-1.6283 2.78903,-3.00611 3.58589,-3.00611c2.3906,0 -5.44524,7.13951 -14.47639,13.40223c-8.36709,5.63646 -11.68736,8.89308 -4.64838,4.63443c15.00763,-9.26884 31.7418,-23.17209 30.28088,-25.30143c-1.32811,-2.12933 -1.72655,-2.00407 -12.08579,3.63238zM305.08693,166.38243c-1.59374,0.12525 -22.44504,16.65886 -21.78098,17.28513c0.39843,0.37577 1.46092,-0.12525 2.39059,-1.25255c0.79686,-1.00203 4.24994,-3.63238 7.57022,-5.76172c3.32027,-2.00407 7.43742,-5.26069 9.16395,-7.01425c1.85935,-1.75357 3.05465,-3.25663 2.65622,-3.25663zM221.68169,224.37533c-2.25778,-1.25255 -3.85152,-0.75153 -11.02331,3.75764c-11.82017,7.26476 -26.29655,18.53768 -25.49968,19.79023c0.26563,0.50102 -0.66405,1.6283 -2.3906,2.50509c-1.59374,0.87678 -8.4999,6.51323 -15.27326,12.52546c-6.77335,6.13748 -12.88265,11.14766 -13.5467,11.14766c-0.79686,0 -1.72653,-0.62627 -2.25778,-1.50306c-0.53125,-0.87678 -0.39844,-1.00204 0.53125,-0.50102c1.72653,1.00203 14.87481,-8.76782 14.87481,-10.89715c0,-0.75153 -1.59373,0 -3.58589,1.75357c-2.12497,1.75357 -6.37492,4.75968 -9.56239,6.6385c-5.31243,3.13136 -5.57806,3.63238 -3.71871,5.5112c1.99216,1.75357 2.78904,1.50305 9.82801,-3.38188c7.17179,-4.75968 15.40606,-10.27087 33.46833,-21.91955c3.85152,-2.50509 8.23428,-6.01222 9.6952,-7.64054c1.46092,-1.75357 5.57805,-4.63441 9.16395,-6.38798c6.50773,-3.00611 11.82017,-7.13951 11.82017,-9.01833c0,-0.50102 -1.1953,-1.62831 -2.52341,-2.37984zM334.57095,222.74702c-0.39843,0 -1.59374,1.12729 -2.52341,2.50509c-0.79686,1.3778 -6.24211,5.88696 -11.95298,10.14562c-13.4139,10.02037 -14.34358,11.64868 -4.11713,7.51527c3.18746,-1.25255 7.83584,-2.7556 10.22643,-3.25662c3.7187,-0.75153 4.24994,-0.50102 4.24994,1.75357c0,1.6283 -0.66405,2.37984 -1.85935,1.87882c-1.06248,-0.37577 -2.65622,0.37577 -3.58589,1.6283c-1.06248,1.25255 -3.5859,2.88085 -5.71087,3.50713c-2.12497,0.75153 -4.11713,1.87882 -4.38276,2.7556c-0.53125,1.25255 16.73418,15.90734 17.66385,15.03056c0.13281,-0.12525 -0.26563,-3.25663 -0.92968,-6.88901c-1.06248,-6.889 -0.66405,-21.16802 0.66405,-22.54582c0.39843,-0.37577 0.79686,3.88289 0.79686,9.39409c0,13.65275 1.99217,23.04685 5.44525,25.6772c1.59374,1.25255 2.25778,2.25459 1.59373,2.25459c-0.66405,0 -1.85934,-0.62627 -2.78903,-1.50306c-1.32811,-1.25255 -1.46093,-0.25051 -0.92967,4.00814c0.26562,3.13136 0.92968,9.14359 1.1953,13.40224l0.79686,7.76578l-4.38275,0.50102l-4.24994,0.50102l4.64838,0.12525c2.52341,0.12525 5.44524,-0.25051 6.50773,-0.87678c4.11713,-2.50509 3.05465,-19.53972 -3.98433,-65.63339c-0.79686,-5.26069 -1.85934,-9.64461 -2.3906,-9.64461zM-25.47937,224.12482c-2.65622,0 -2.92183,0.12526 -1.32811,1.12729c1.06249,0.62627 4.38276,1.12729 7.3046,1.12729c5.17963,-0.12525 5.17963,-0.25051 1.32811,-1.12729c-2.12497,-0.50102 -5.44524,-1.00204 -7.3046,-1.12729zM-8.21395,225.25211c-3.7187,0.75153 -2.78903,1.00204 4.914,1.12729c5.17963,0 9.96083,-0.50102 10.35925,-1.12729c0.92967,-1.3778 -8.10146,-1.3778 -15.27325,0zM34.94959,224.37533c-7.96865,0 -11.42173,0.25052 -7.57022,0.50102c4.11713,0.37577 6.90617,1.12728 6.90617,2.00407c0,0.87678 1.06249,2.63035 2.12497,4.00815c2.12497,2.37984 2.12497,2.37984 1.59373,-1.25255l-0.53125,-3.75764l18.06228,0.12525c17.26541,0.12525 17.39823,0.12525 5.97649,-0.75153c-6.50773,-0.50102 -18.46071,-1.00203 -26.56218,-0.87678zM102.01909,224.25008c-10.35924,0 -10.75768,0.12525 -5.31243,1.25255c3.32027,0.62627 7.96865,0.87678 10.22644,0.50102c2.39059,-0.37577 4.64838,0 5.04682,0.62627c0.53125,0.62627 -1.32811,1.12729 -3.98433,1.12729c-6.50773,0 -5.04682,1.75357 5.84368,6.76375l8.76552,4.00814l3.32027,-2.88086c2.65622,-2.37984 3.05465,-3.38188 1.85935,-6.26273c-1.06248,-3.00611 -2.12498,-3.63238 -7.83584,-4.38391c-3.71871,-0.37577 -11.68736,-0.75153 -17.92947,-0.75153zM76.12096,226.62991c-2.12497,0.62627 -11.28892,1.12729 -20.18725,1.12729h-16.33574l-0.26562,3.38187c-0.13281,2.00407 -0.26563,4.50916 -0.13281,5.63646c0,3.88289 -1.72653,2.50509 -3.05465,-2.50509l-1.32811,-4.63441l-0.13282,6.38798l-0.26562,6.26274l28.55434,-0.25052c15.53887,-0.25052 28.95278,-0.75153 29.74965,-1.12729c0.66405,-0.37577 1.32811,-1.6283 1.32811,-2.7556c0,-1.00203 0.92967,-3.75763 2.12497,-6.13747c1.1953,-2.37984 1.99216,-4.50917 1.72653,-4.75968c-1.46092,-1.12729 -18.3279,-1.6283 -21.78098,-0.62627zM98.43319,231.51484c-1.06249,0 -3.18746,6.889 -2.78904,9.26884c0.26562,1.6283 0.92968,0.25051 1.85935,-3.38188c0.79686,-3.25662 1.1953,-5.88697 0.92967,-5.88697zM30.1684,239.65639c-0.39843,0.25052 -3.98433,1.12729 -7.96865,1.75357l-7.17179,1.12729l8.4999,-0.12525c5.44525,-0.12525 8.76552,-0.75153 9.16394,-1.87882c0.53125,-1.50306 -1.32811,-2.12932 -2.52341,-0.87678zM-2.37027,241.03419c-2.12497,-0.25052 -5.57806,-0.12526 -7.83584,0.37576l-3.98433,0.87679l3.98433,0.87678c2.25778,0.37577 7.3046,0.37577 11.28892,-0.25051c3.98433,-0.62627 5.71087,-1.12729 3.85152,-1.25255c-1.99216,0 -5.17963,-0.37576 -7.3046,-0.62627zM322.48515,242.41199c-5.57806,1.87882 -10.62487,4.50917 -10.62487,5.5112c0,1.75357 3.58589,1.25255 5.84368,-0.75153c1.06248,-1.00203 2.52341,-1.87882 3.18746,-1.87882c0.66405,0 1.99216,-0.87679 2.92185,-1.87882c1.72653,-2.00407 1.72653,-2.00407 -1.32811,-1.00203zM397.65611,274.72766c-0.79686,-0.37576 -4.64838,0.50102 -8.4999,1.87882c-3.85152,1.25255 -8.10146,2.00407 -9.29676,1.75357c-1.99216,-0.62627 -1.99216,-0.50102 -0.26562,0.75153c1.59374,1.12729 1.32811,1.37781 -1.59374,0.75153c-1.99216,-0.37576 -3.98433,-0.25052 -4.38276,0.50101c-0.53125,0.75153 0.13281,0.87679 1.46092,0.37577c1.59374,-0.50102 1.99217,-0.37576 1.32812,0.62627c-0.53125,0.87678 0.79686,2.25459 3.7187,3.63238c2.52341,1.12729 4.24994,2.63035 3.85152,3.25663c-0.39843,0.75153 -0.13281,0.87678 0.66405,0.37576c0.79686,-0.50102 5.84368,1.3778 11.1561,4.13339c5.31243,2.88086 9.16395,5.13545 8.36709,5.13545c-1.72653,0 2.25779,2.50509 3.98433,2.50509c0.79686,0 0.39843,-0.62627 -0.66405,-1.37781c-1.59374,-1.12729 -1.59374,-1.25255 0.39843,-0.62627c1.32811,0.37576 2.78903,0.75153 3.05465,0.75153c0.39843,0 0.26563,0.62627 -0.26562,1.50305c-0.53125,0.87678 -0.39844,1.00204 0.53123,0.50102c0.79686,-0.50102 3.05465,-0.50102 4.91401,0c2.78903,0.62627 3.18746,1.12728 1.72653,2.00407c-1.32811,1.00203 -1.19529,1.1273 0.53125,0.62627c3.32027,-1.00203 11.95298,1.50306 10.8905,3.13136c-0.53125,0.87678 -0.26562,1.00204 0.66405,0.50102c1.99216,-1.12729 7.03897,0.37576 6.1093,1.87882c-0.39843,0.62627 0,0.75153 1.06249,0.50102c0.92967,-0.37576 3.5859,0.12525 5.71087,1.25255c2.12497,1.00203 4.7812,1.87882 5.84368,1.87882c1.72653,0 1.72653,0.25051 0,1.3778c-1.72653,1.12729 -1.72653,1.25256 0.26562,0.75153c3.18746,-1.00203 12.2186,1.75357 10.09362,3.13136c-1.32811,0.75153 -1.32811,1.00204 -0.13281,1.00204c0.92967,0 3.98433,-1.87882 6.64054,-4.1334c7.70302,-6.26273 15.14044,-11.27291 15.8045,-10.52139c0.39843,0.37576 -1.85934,2.37984 -5.04682,4.38391c-5.84368,3.88289 -10.22644,7.76578 -8.36709,7.76578c1.46092,0 15.27325,-11.39816 14.87482,-12.4002c-0.39843,-1.3778 8.36709,-10.52139 9.29676,-9.6446c0.53125,0.37576 -0.53125,2.25459 -2.3906,4.13339l-3.18746,3.38187l4.24994,-2.88086c5.04682,-3.25662 6.50773,-5.13544 4.11713,-5.26069c-0.92967,0 -5.04682,-0.25052 -9.16395,-0.50102c-4.11713,-0.12525 -9.29676,-1.25254 -11.55454,-2.37984c-2.25779,-1.12729 -5.17962,-2.00407 -6.37493,-2.00407c-1.32811,0 -4.11713,-0.50102 -6.37493,-1.12729c-2.25779,-0.75153 -9.42957,-2.50509 -16.07011,-4.00814c-6.50773,-1.50306 -12.48422,-3.13136 -13.28109,-3.63238c-1.32811,-0.87678 -12.88265,-2.7556 -26.42936,-4.38391c-3.58589,-0.50102 -7.17179,-1.00204 -7.96865,-1.25255zM157.1356,280.73989c-4.24994,-4.50917 -4.24994,-2.12933 0,2.7556c1.85935,2.00407 3.32027,3.13136 3.32027,2.25459c0,-0.87678 -1.46092,-3.13136 -3.32027,-5.01018zM436.83533,279.23684c-1.85935,0 1.59374,1.3778 7.83584,3.13136c12.48422,3.25662 15.14044,3.63237 13.94514,1.75356c-0.39843,-0.75153 -2.65622,-1.25255 -4.78119,-1.25255c-2.12497,0 -6.1093,-0.87679 -8.76552,-1.87882c-2.52341,-1.00203 -6.24212,-1.87881 -8.23428,-1.75356zM265.11085,284.12177l-3.45308,3.63238l7.17179,2.50509c3.85152,1.3778 8.76553,2.88085 10.75769,3.38187l3.71871,0.75153l-4.38276,-4.00814c-2.3906,-2.12933 -5.31243,-5.26069 -6.37493,-7.01425c-2.78903,-3.88289 -3.18746,-3.75765 -7.43741,0.75153zM377.60167,284.99852c-2.52341,-1.12729 -4.64838,-1.87882 -4.64838,-1.50306c0,0.87678 8.10146,4.63443 8.76552,4.1334c0.26562,-0.37576 -1.59374,-1.50306 -4.11713,-2.63035zM261.65777,289.88347c-3.7187,-1.75357 -4.11715,-1.75357 -6.24212,0.50101c-2.25778,2.25459 -2.12497,2.50509 0.79687,3.75764c1.72655,0.75153 8.63271,2.12933 15.14044,3.13136c6.64054,0.87678 15.8045,2.63034 20.58568,3.75764c14.07796,3.25662 49.14003,6.38798 49.14003,4.38391c0,-0.37576 0.39844,-1.75357 0.79686,-3.13136c0.66405,-2.37984 -0.13281,-2.50509 -18.1951,-2.88086c-10.35924,-0.12525 -19.78882,-0.87678 -21.11693,-1.50305c-1.1953,-0.62627 -7.17178,-1.50306 -13.4139,-1.87882c-6.1093,-0.37576 -13.94515,-1.50306 -17.26542,-2.37984c-3.45308,-1.00203 -7.96865,-2.63034 -10.22643,-3.75764zM503.24076,296.64722c-1.59374,-0.75153 -2.78903,-0.87678 -2.78903,-0.12525c0,1.25255 3.98433,3.00611 4.91401,2.12933c0.39843,-0.25051 -0.66405,-1.12729 -2.12498,-2.00407zM466.05372,316.68795c-1.59374,0 -3.32027,2.50509 -2.3906,3.38188c0.92967,0.87678 3.58589,-0.75153 3.58589,-2.25459c0,-0.62627 -0.53123,-1.12729 -1.19529,-1.12729zM467.24902,320.32034c0,0.62627 1.46093,1.50306 3.18746,1.87882c1.85935,0.37576 4.91401,2.12932 7.03897,3.75764c1.99216,1.6283 5.17963,3.38187 7.03898,3.88289c1.85935,0.50102 -0.79686,-1.75356 -5.84368,-4.88492c-9.16395,-5.76171 -11.42174,-6.63849 -11.42174,-4.63443z" fill="#110e00" stroke-width="1"/><path d="M7.11347,225.25181c-0.39844,0.62627 -5.27873,1.15613 -10.45835,1.15613c-7.70302,-0.12525 -8.64195,-0.4047 -4.92324,-1.15622c7.17179,-1.3778 16.31127,-1.37771 15.3816,0.00009z" data-paper-data="{&quot;noHover&quot;:false,&quot;origItem&quot;:[&quot;Path&quot;,{&quot;applyMatrix&quot;:true,&quot;segments&quot;:[[[21.84354,438.32352],[13.23778,-2.69658],[-6.86403,1.47086]],[[30.91387,440.52981],[-14.21835,-0.24514],[9.56062,0]],[[50.03511,438.32352],[-0.73543,1.22572],[1.71601,-2.69658]]],&quot;closed&quot;:true,&quot;fillColor&quot;:[0.9098,0.51765,0.07451]}]}" fill="#110e00" stroke-width="0.5"/><path d="M97.95472,227.24464c0.26562,0.25052 -0.53,2.38746 -1.7253,4.7673c-1.1953,2.37984 -2.12543,5.14697 -2.12543,6.14901c0,1.12729 -0.6653,2.38547 -1.32935,2.76123c-0.79686,0.37577 -14.28261,0.91118 -29.82147,1.1617l-28.58712,0.21618l0.26385,-6.27291l0.13334,-6.3989l1.43583,4.64204c1.32811,5.01018 2.94657,6.39329 2.94657,2.51041c-0.13281,-1.12729 0.00011,-3.64367 0.13293,-5.64774l0.26694,-3.38846l16.34311,-0.0156c8.89832,0 18.14955,-0.5048 20.27453,-1.13107c3.45308,-1.00203 20.33067,-0.48048 21.79159,0.64681z" data-paper-data="{&quot;noHover&quot;:false,&quot;origItem&quot;:[&quot;Path&quot;,{&quot;applyMatrix&quot;:true,&quot;segments&quot;:[[[177.51,441.0201],[6.37374,-1.96115],[-3.9223,1.22572]],[[140.24811,443.2264],[16.42465,0],[0,0]],[110.09539,443.2264],[[109.60511,449.84529],[0,0],[-0.24514,3.9223]],[[109.35996,460.87677],[-0.24514,-2.2063],[0,7.59946]],[[103.72165,455.97389],[2.45144,9.80576],[0,0]],[101.27021,446.90356],[101.02506,459.4059],[100.53478,471.66311],[[153.24074,471.17282],[0,0],[28.68185,-0.49029]],[[208.15301,468.96652],[-1.47086,0.73543],[1.22572,-0.73543]],[[210.60445,463.57335],[0,2.2063],[0,-1.96115]],[[214.52675,451.5613],[-2.2063,4.65774],[2.2063,-4.65774]],[[217.71362,442.24582],[0.49029,0.49029],[-2.69658,-2.2063]]],&quot;closed&quot;:true,&quot;fillColor&quot;:[0.9098,0.51765,0.07451]}]}" fill="#110e00" stroke-width="0.5"/><path d="M405.5817,275.94921c13.5467,1.6283 25.1362,3.4876 26.46431,4.36439c0.79686,0.50102 6.81467,2.13946 13.3224,3.64252c6.64054,1.50306 13.8302,3.27995 16.08799,4.03147c2.25779,0.62627 5.0483,1.13197 6.37642,1.13197c1.1953,0 4.11811,0.8813 6.37589,2.0086c2.25779,1.12729 7.43792,2.25883 11.55505,2.38408c4.11713,0.25051 8.23433,0.50201 9.16402,0.50201c2.3906,0.12525 0.92969,2.00897 -4.11711,5.26558l-4.35794,2.87312l3.18719,-3.37825c1.85935,-1.87882 3.03011,-3.75795 2.49887,-4.13372c-0.92967,-0.87678 -9.69585,8.27715 -9.29742,9.65495c0.39843,1.00203 -13.42157,12.41928 -14.88248,12.41928c-1.85935,0 2.42579,-3.92513 8.26947,-7.80802c3.18746,-2.00407 5.55042,-3.98446 5.152,-4.36022c-0.66405,-0.75153 -8.10889,4.27699 -15.81192,10.53972c-2.65622,2.25459 -5.71808,4.14205 -6.64776,4.14205c-1.1953,0 -1.27375,-0.32099 0.05436,-1.07252c2.12497,-1.3778 -6.83427,-4.05753 -10.02173,-3.0555c-1.99216,0.50102 -2.05702,0.2939 -0.33048,-0.83339c1.72653,-1.12729 1.79358,-1.29755 0.06705,-1.29755c-1.06248,0 -3.72733,-0.87132 -5.85231,-1.87336c-2.12497,-1.12729 -4.79762,-1.62293 -5.72729,-1.24716c-1.06248,0.25051 -1.46481,0.12575 -1.06638,-0.50052c0.92967,-1.50306 -4.14396,-3.01 -6.13613,-1.88271c-0.92967,0.50102 -1.19867,0.37427 -0.66742,-0.50252c1.06248,-1.6283 -7.59495,-4.15804 -10.91522,-3.156c-1.72653,0.50102 -1.8603,0.37362 -0.53219,-0.62841c1.46092,-0.87678 1.06026,-1.38445 -1.72877,-2.01073c-1.85935,-0.50102 -4.1177,-0.50343 -4.91456,-0.00241c-0.92967,0.50102 -1.06273,0.37448 -0.53148,-0.50231c0.53125,-0.87678 0.6636,-1.50629 0.26516,-1.50629c-0.26562,0 -1.72672,-0.37784 -3.05483,-0.75361c-1.99216,-0.62627 -1.88408,-0.5082 -0.29035,0.6191c1.06248,0.75153 1.35327,1.38904 0.55641,1.38904c-1.72653,0 -5.71135,-2.51039 -3.9848,-2.51039c0.79686,0 -3.05434,-2.26207 -8.36677,-5.14293c-5.31243,-2.75561 -10.35878,-4.63751 -11.15564,-4.13649c-0.79686,0.50102 -1.06244,0.37549 -0.66401,-0.37603c0.39843,-0.62627 -1.32758,-2.13175 -3.85099,-3.25904c-2.92185,-1.3778 -4.2493,-2.75799 -3.71806,-3.63477c0.66405,-1.00203 0.36982,-1.09926 -1.22391,-0.59824c-1.32811,0.50102 -2.0963,0.34752 -1.56506,-0.404c0.39843,-0.75153 2.39106,-0.87819 4.38322,-0.50243c2.92185,0.62627 3.18783,0.37474 1.59409,-0.75257c-1.72653,-1.25255 -1.72629,-1.37849 0.26588,-0.75222c1.1953,0.25051 5.44726,-0.5056 9.29878,-1.75814c3.85152,-1.3778 7.70627,-2.26014 8.50314,-1.88437c0.79686,0.25051 4.38543,0.74792 7.97133,1.24894z" data-paper-data="{&quot;noHover&quot;:false,&quot;origItem&quot;:[&quot;Path&quot;,{&quot;applyMatrix&quot;:true,&quot;segments&quot;:[[[771.0037,535.15541],[1.47086,0.49029],[-1.47086,-0.73543]],[[755.31448,538.83257],[7.10918,-2.69658],[-7.10918,2.45144]],[[738.1544,542.26459],[2.2063,0.49029],[-3.67716,-1.22572]],[[737.66411,543.73545],[-3.18687,-2.45144],[2.94173,2.2063]],[[734.72238,545.20632],[5.39317,1.22572],[-3.67716,-0.73543]],[[726.63263,546.18689],[0.73543,-1.47086],[-0.98058,1.47086]],[[729.32921,546.92232],[-2.45144,0.98058],[2.94173,-0.98058]],[[731.78066,548.14804],[1.22572,-1.96115],[-0.98058,1.71601]],[[738.64469,555.25722],[-5.39317,-2.69658],[4.65774,2.2063]],[[745.75386,561.63097],[0.73543,-1.22572],[-0.73543,1.47086]],[[746.97959,562.3664],[-1.47086,0.98058],[1.47086,-0.98058]],[[767.57168,570.45615],[-9.80576,-5.39317],[9.80576,5.63831]],[[783.01576,580.50706],[1.47086,0],[-3.18687,0]],[[790.37008,585.40994],[-3.18687,0],[1.47086,0]],[[789.14436,582.71335],[1.96115,1.47086],[-2.94173,-2.2063]],[[789.87979,581.48763],[-3.67716,-1.22572],[2.45144,0.73543]],[[795.5181,582.9585],[-0.49029,0],[0.73543,0]],[[795.02782,585.90022],[0.98058,-1.71601],[-0.98058,1.71601]],[[796.00839,586.8808],[-1.71601,0.98058],[1.47086,-0.98058]],[[805.07872,586.8808],[-3.43202,-0.98058],[5.14802,1.22572]],[[808.26559,590.8031],[2.69658,-1.71601],[-2.45144,1.96115]],[[809.24617,592.02883],[-3.18687,0.98058],[6.1286,-1.96115]],[[829.34798,598.15743],[1.96115,-3.18687],[-0.98058,1.71601]],[[830.5737,599.138],[-1.71601,0.98058],[3.67716,-2.2063]],[[841.85032,602.81516],[1.71601,-2.94173],[-0.73543,1.22572]],[[843.81148,603.79574],[-1.96115,0.49029],[1.71601,-0.73543]],[[854.35267,606.24718],[-3.9223,-2.2063],[3.9223,1.96115]],[[865.13901,609.92434],[-1.96115,0],[3.18687,0]],[[865.13901,612.62092],[3.18687,-2.2063],[-3.18687,2.2063]],[[865.6293,614.09179],[-3.67716,0.98058],[5.88346,-1.96115]],[[884.26024,620.22039],[3.9223,-2.69658],[-2.45144,1.47086]],[[884.0151,622.18154],[-2.2063,0],[1.71601,0]],[[896.2723,614.09179],[-4.90288,4.41259],[14.21835,-12.2572]],[[925.44444,593.49969],[-1.22572,-1.47086],[0.73543,0.73543]],[[916.12897,602.07973],[5.88346,-3.9223],[-10.78634,7.59946]],[[900.68489,617.27866],[-3.43202,0],[2.69658,0]],[[928.14102,593.0094],[0.73543,1.96115],[-0.73543,-2.69658]],[[945.30111,574.13331],[-1.71601,-1.71601],[0.98058,0.73543]],[[940.88851,582.22306],[3.43202,-3.67716],[0,0]],[935.00506,588.84195],[[942.84967,583.20364],[0,0],[9.31547,-6.37374]],[[950.44913,572.90759],[4.41259,0.24514],[-1.71601,0]],[[933.53419,571.92701],[7.59946,0.49029],[-7.59946,-0.24514]],[[912.20666,567.26928],[4.16745,2.2063],[-4.16745,-2.2063]],[[900.43975,563.34697],[2.2063,0],[-2.45144,0]],[[888.67283,561.14068],[4.16745,1.22572],[-4.16745,-1.47086]],[[859.01041,553.29607],[12.2572,2.94173],[-12.01206,-2.94173]],[[834.496,546.18689],[1.47086,0.98058],[-2.45144,-1.71601]],[[785.71234,537.60685],[25.00469,3.18687],[-6.61889,-0.98058]]],&quot;closed&quot;:true,&quot;fillColor&quot;:[0.9098,0.51765,0.07451]}]}" fill="#110e00" stroke-width="0.5"/><path d="M273.47794,216.48429c6.1093,5.5112 10.62488,10.02037 10.09362,10.02037c-1.1953,0 -18.46072,-14.78004 -20.5857,-17.6609c-3.05465,-4.13339 -0.92967,-2.63034 10.49206,7.64053z" fill="#110e00" stroke-width="1"/><path d="M239.21273,157.11362c0.53125,1.00203 0.53125,1.75356 0,1.6283c-1.32811,0 -15.00763,-15.40632 -15.00763,-16.90937c0,-1.00203 13.14828,12.40021 15.00763,15.28106z" fill="#110e00" stroke-width="1"/><path d="M284.63405,140.07898c1.72653,0 -10.09362,7.26476 -20.85131,12.90121c-4.91401,2.63034 -9.29676,5.26069 -9.6952,5.88697c-0.39844,0.75153 -1.72653,1.25255 -2.92183,1.25255c-2.65622,0 4.7812,-4.75968 16.60137,-10.77189c4.91401,-2.50509 10.35925,-5.63647 12.21861,-6.88901c1.85935,-1.25255 3.85152,-2.37983 4.64838,-2.37983z" fill="#110e00" stroke-width="1"/><path d="M216.9005,226.62991c0.79686,0 -0.13281,1.00204 -1.99216,2.37984c-1.85935,1.25255 -5.71087,4.1334 -8.63271,6.26273c-7.96865,5.76172 -19.39038,12.77596 -20.05444,12.14969c-0.66405,-0.62627 10.8905,-8.39205 12.61704,-8.39205c0.79686,0 2.78903,-1.25255 4.38275,-2.88085c1.59374,-1.50306 5.04682,-4.25866 7.70302,-6.13748c2.52341,-1.87882 5.31243,-3.38187 5.97649,-3.38187z" fill="#110e00" stroke-width="1"/><path d="M45.04321,237.02604c2.25779,0.37577 9.03114,0.75153 15.00762,0.87678c8.36709,0.12525 9.82801,0.37577 6.24212,1.12729c-5.71086,1.25255 -25.36687,0 -25.36687,-1.6283c0,-0.62627 1.72655,-0.87678 4.11713,-0.37577z" fill="#110e00" stroke-width="1"/><path d="M486.09036,82.76246c1.1953,-0.25051 3.7187,9.76986 4.64838,18.03667c0.53125,4.1334 1.72653,10.89714 2.65622,15.03055c1.06248,4.1334 1.99216,10.14563 2.25779,13.27699l0.39844,5.88697l3.58589,-1.75357c4.91401,-2.37984 5.17962,-2.25458 3.7187,1.50306c-0.79686,1.75357 -1.32811,4.25866 -1.32811,5.63646c0,3.25662 -6.90616,19.91548 -8.36709,19.91548c-3.7187,0 -28.81996,-16.40836 -28.81996,-18.91344c0,-1.3778 0.66405,-1.62831 11.02331,-3.63238c5.17963,-1.00203 7.57022,-2.00407 7.57022,-3.38187c0,-1.00203 -2.65622,-9.89511 -5.97649,-19.53971c-3.18746,-9.76985 -6.24211,-20.04073 -6.77335,-22.79634l-0.79686,-5.01018l7.83584,-2.00407c4.24994,-1.12729 7.96865,-2.12933 8.36709,-2.25459zM477.85608,86.77061c-3.98433,1.00204 -5.04682,1.87882 -5.04682,4.25866c0,3.13136 4.78119,20.29124 5.97649,21.41853c1.06248,1.00204 0.79686,-1.00204 -1.32811,-10.39612c-2.65622,-11.64868 -2.65622,-11.52343 2.3906,-13.90326l4.24994,-2.00407l-3.7187,3.00611l-3.71871,2.88085l1.85935,8.76783c1.06248,4.75968 2.39059,11.52342 2.92183,15.03055c0.39843,3.38187 1.72653,9.01833 2.78903,12.4002c2.12497,7.01425 2.3906,10.02037 0.79687,9.01832c-0.53125,-0.25052 -1.85935,-0.12525 -2.92185,0.62627c-1.59374,0.87678 -1.46092,1.12729 0.66405,1.12729c8.4999,0 10.22643,-2.88085 7.43742,-12.1497c-1.46092,-4.75968 -4.64839,-30.43686 -4.64839,-37.07536c0,-5.01018 -0.13281,-5.01018 -7.70302,-3.00611zM487.41846,90.15248c-0.92967,-1.25255 -1.06249,0.12525 -0.53125,4.38391c1.06248,7.76578 1.85935,8.76782 1.85935,2.37984c0,-2.63034 -0.66405,-5.76171 -1.32811,-6.76375zM491.40279,115.82967c-2.52341,-11.14766 -2.65622,-11.14766 -1.85934,-3.13136c0.39843,4.50916 1.59373,11.77393 2.52341,16.28309c1.46092,7.13952 1.72655,7.51527 1.85935,3.13136c0,-2.7556 -1.1953,-10.14562 -2.52341,-16.28309zM501.49641,133.99158c-3.58589,0 -11.28892,19.16395 -9.42957,23.54786c0.92967,2.25459 5.71087,-8.14155 8.23428,-18.28717c0.79686,-2.88085 1.1953,-5.26069 1.1953,-5.26069zM489.41063,139.37751c-2.12497,0.87678 -7.70303,1.6283 -12.21861,1.6283c-4.64838,-0.12525 -8.36709,0.25052 -8.36709,0.62627c0,1.50306 4.78119,4.75968 10.62487,7.39002c3.32027,1.3778 4.51557,2.25459 2.65622,2.00407l-3.32027,-0.62627l3.32027,2.37984c4.7812,3.50713 7.96865,4.00814 7.96865,1.3778c0,-1.25255 1.1953,-5.38595 2.52341,-9.26884c2.78903,-7.64054 2.78903,-7.89104 -3.18746,-5.5112z" fill="#110e00" stroke-width="1"/><path d="M489.44839,139.34088c5.97649,-2.37984 5.99185,-2.10261 3.20284,5.53793c-1.32811,3.88289 -2.53639,8.06049 -2.53639,9.31303c0,2.63034 -3.22333,2.14598 -8.00453,-1.36115l-3.35762,-2.39029l3.34721,0.53503c1.85935,0.25052 0.63227,-0.53899 -2.688,-1.91679c-5.84368,-2.63034 -10.63657,-5.94404 -10.63657,-7.4471c0,-0.37576 3.73714,-0.77275 8.38552,-0.6475c4.51557,0 10.16257,-0.74635 12.28754,-1.62313z" data-paper-data="{&quot;noHover&quot;:false,&quot;origItem&quot;:[&quot;Path&quot;,{&quot;applyMatrix&quot;:true,&quot;segments&quot;:[[[940.36531,270.2527],[0,0],[-3.9223,1.716]],[[917.81205,273.43956],[8.3349,0],[-8.58004,-0.24514]],[[902.36797,274.66528],[0,-0.73542],[0,2.94174]],[[921.97949,289.12878],[-10.78634,-5.14802],[6.1286,2.69658]],[[926.88237,293.05108],[3.43202,0.4903],[0,0]],[920.75377,291.82536],[[926.88237,296.4831],[0,0],[8.8252,6.86404]],[[941.59101,299.17968],[0,5.14802],[0,-2.45144]],[[946.24875,281.03902],[-2.45144,7.59946],[5.14802,-14.9538]],[[940.36529,270.25268],[11.03148,-4.65774],[0,0]]],&quot;closed&quot;:true,&quot;fillColor&quot;:[0,0,0,1]}]}" fill="#110e00" stroke-width="0.5"/><path d="M485.56684,89.72614c0,6.63849 3.20482,32.41154 4.66574,37.17121c2.78903,9.26884 1.03863,12.15548 -7.46127,12.15548c-2.12497,0 -2.25898,-0.35268 -0.66525,-1.22947c1.06248,-0.75153 2.38465,-0.87648 2.9159,-0.62597c1.59374,1.00203 1.34069,-1.90258 -0.78428,-8.91683c-1.06248,-3.38187 -2.40691,-9.01875 -2.80533,-12.40062c-0.53125,-3.50713 -1.86514,-10.37015 -2.92763,-15.12981l-1.85732,-8.76834l3.72823,-2.88231l3.7187,-2.90418l-4.24129,2.004c-5.04682,2.37984 -5.03016,2.25061 -2.37395,13.89928c2.12497,9.39409 2.31507,11.35429 1.25258,10.35225c-1.1953,-1.12729 -5.94313,-18.33742 -5.94313,-21.46878c0,-2.37984 1.07475,-3.25988 5.05907,-4.26191c7.57022,-2.00407 7.71921,-2.00417 7.71921,3.00601z" data-paper-data="{&quot;noHover&quot;:false,&quot;origItem&quot;:[&quot;Path&quot;,{&quot;applyMatrix&quot;:true,&quot;segments&quot;:[[[919.03782,167.2922],[13.97321,-3.9223],[-7.35432,1.96115]],[[909.72235,175.6271],[0,-4.65774],[0,6.1286]],[[920.75383,217.54673],[-2.2063,-2.2063],[1.96115,1.96115]],[[918.30239,197.19978],[3.9223,18.3858],[-4.90288,-22.79839]],[[922.71498,169.98879],[-9.31547,4.65774],[0,0]],[930.55959,166.06648],[923.69556,171.94994],[916.83152,177.58825],[[920.26354,194.74834],[0,0],[1.96115,9.31547]],[[925.65671,224.16562],[-0.98058,-6.86403],[0.73543,6.61889]],[[930.80473,248.43488],[-1.96115,-6.61889],[3.9223,13.72807]],[[932.2756,266.08525],[2.94173,1.96115],[-0.98058,-0.49029]],[[926.88243,267.31097],[1.96115,-1.47086],[-2.94173,1.71601]],[[928.10815,269.51726],[-3.9223,0],[15.68922,0]],[[941.83622,245.73829],[5.14802,18.14066],[-2.69658,-9.31547]],[[933.25617,173.17566],[0,12.99263],[0,-9.80576]]],&quot;closed&quot;:true,&quot;fillColor&quot;:[0.9098,0.51765,0.07451]}]}" fill="#110e00" stroke-width="0.5"/><path d="M-7.28427,107.51281c2.12497,0 7.96865,5.88697 13.94514,14.02852c4.78119,6.51324 6.37493,6.6385 13.4139,2.00407c2.12497,-1.3778 3.98433,-2.37984 4.24995,-2.00407c0.26563,0.25051 0.79686,7.64053 1.06249,16.5336l0.53125,16.15784l-8.36709,-0.75153c-8.4999,-0.75153 -20.85131,-3.75764 -24.4372,-5.88697c-1.59373,-1.00203 -1.19529,-1.87882 2.3906,-5.38595c2.25779,-2.25459 4.24994,-4.63443 4.24994,-5.38595c0,-0.75153 -4.78119,-6.01221 -10.62487,-11.77393c-5.84368,-5.76172 -10.62487,-10.64664 -10.62487,-10.89714c0,-0.25051 0.53125,-0.37577 1.32811,-0.37577c0.66405,0 3.45308,-1.3778 6.1093,-3.13136c2.65622,-1.75357 5.71087,-3.13136 6.77336,-3.13136zM-11.93265,111.52095c-2.25779,2.12933 -1.99216,4.00814 1.1953,6.76375c3.05465,2.63034 7.17179,9.26884 6.77335,10.89714c-0.13281,0.62627 0.13282,0.75153 0.79687,0.37577c0.66405,-0.37577 2.12497,1.12729 3.45308,3.13136c2.25779,3.63238 2.25778,3.75764 -1.06249,8.01629c-4.11713,5.01018 -4.11713,5.13544 -0.79686,6.889c2.25779,1.12729 2.52341,1.00203 1.72655,-0.87679c-0.66405,-1.87882 -0.53125,-2.00407 1.06249,-0.87678c1.06248,0.75153 4.24995,1.87882 7.17179,2.37984c4.38276,0.75153 4.914,1.12729 2.65622,2.00407c-1.59373,0.62627 -0.13281,0.75153 3.98433,0.37577c4.914,-0.50102 6.1093,-0.37576 4.64838,0.62627c-1.59374,1.12729 -1.46092,1.3778 0.92967,1.3778c3.05465,0 3.05464,-0.12525 2.39059,-13.40224c-0.39843,-7.39002 -0.92967,-13.52749 -1.06248,-13.778c-1.06249,-0.87679 -9.6952,6.38799 -11.55455,9.64461c-1.85935,3.38188 -9.82801,10.02037 -12.08579,10.02037c-0.66405,0 1.85935,-2.7556 5.44524,-6.26273c3.71871,-3.38188 6.64054,-6.889 6.64054,-7.76579c0,-2.12933 -3.32028,-6.51323 -10.62488,-14.52954c-5.97649,-6.63849 -8.76552,-7.76578 -11.68735,-5.01018zM-14.8545,118.40995c2.52341,3.13136 7.96865,7.39002 7.96865,6.38798c0,-0.25051 -1.99216,-2.63034 -4.51556,-5.13544c-5.17963,-5.38594 -7.70303,-6.26273 -3.45308,-1.25255z" fill="#110e00" stroke-width="1"/><path d="M-0.26234,116.48263c7.3046,8.01629 10.696,12.44569 10.696,14.57502c0,0.87679 -2.98424,4.43741 -6.70294,7.81928c-3.58589,3.50713 -6.0784,6.1658 -5.41434,6.1658c2.25779,0 10.16002,-6.62207 12.01938,-10.00395c1.85935,-3.25662 10.58669,-10.50913 11.64918,-9.63235c0.13281,0.25051 0.66246,6.42715 1.06089,13.81717c0.66405,13.27699 0.64575,13.42282 -2.4089,13.42282c-2.39059,0 -2.58532,-0.33437 -0.99158,-1.46166c1.46092,-1.00203 0.3206,-1.03957 -4.59341,-0.53855c-4.11713,0.37577 -5.61776,0.1558 -4.02404,-0.47048c2.25779,-0.87678 1.75246,-1.15347 -2.63029,-1.905c-2.92183,-0.50102 -6.13234,-1.62887 -7.19482,-2.38039c-1.59373,-1.12729 -1.69831,-1.10066 -1.03425,0.77816c0.79686,1.87882 0.49663,2.10083 -1.76116,0.97354c-3.32027,-1.75357 -3.3282,-1.88237 0.78893,-6.89257c3.32027,-4.25866 3.29557,-4.4134 1.03779,-8.04579c-1.32811,-2.00407 -2.78988,-3.53353 -3.45394,-3.15776c-0.66405,0.37577 -0.92938,0.2494 -0.79658,-0.37687c0.39844,-1.6283 -3.70687,-8.28782 -6.76152,-10.91816c-3.18746,-2.7556 -3.44639,-4.64043 -1.18861,-6.76976c2.92185,-2.7556 5.72774,-1.63697 11.70424,5.00152z" data-paper-data="{&quot;noHover&quot;:false,&quot;origItem&quot;:[&quot;Path&quot;,{&quot;applyMatrix&quot;:true,&quot;segments&quot;:[[[14.97951,215.73274],[5.39317,-5.39317],[-4.16745,4.16745]],[[17.18581,228.97052],[-5.88346,-5.39317],[5.63831,5.14802]],[[29.68815,250.29805],[0.73543,-3.18687],[-0.24514,1.22572]],[[31.15902,251.03348],[-1.22572,0.73543],[1.22572,-0.73543]],[[37.53276,257.16208],[-2.45144,-3.9223],[4.16745,7.10918]],[[35.57161,272.8513],[6.1286,-8.3349],[-7.59946,9.80576]],[[34.10074,286.33422],[-6.1286,-3.43202],[4.16745,2.2063]],[[37.28762,284.61821],[1.47086,3.67716],[-1.22572,-3.67716]],[[39.24877,282.9022],[-2.94173,-2.2063],[1.96115,1.47086]],[[52.48655,287.55994],[-5.39317,-0.98058],[8.08975,1.47086]],[[57.38943,291.48224],[4.16745,-1.71601],[-2.94173,1.22572]],[[64.74375,292.21768],[-7.59946,0.73543],[9.07033,-0.98058]],[[73.32379,293.4434],[2.69658,-1.96115],[-2.94173,2.2063]],[[75.0398,296.13998],[-4.41259,0],[5.63831,0]],[[79.45239,269.90957],[1.22572,25.98527],[-0.73543,-14.4635]],[[77.49124,242.94373],[0.24514,0.49029],[-1.96115,-1.71601]],[[56.16371,261.81982],[3.43202,-6.37374],[-3.43202,6.61889]],[[33.8556,281.43134],[4.16745,0],[-1.22572,0]],[[43.90651,269.17414],[-6.61889,6.86403],[6.86403,-6.61889]],[[56.16371,253.97521],[0,1.71601],[0,-4.16745]],[[36.55218,225.5385],[13.48292,15.68922],[-11.03148,-12.99263]]],&quot;closed&quot;:true,&quot;fillColor&quot;:[0.9098,0.51765,0.07451]}]}" fill="#110e00" stroke-width="0.5"/><path d="M74.26162,108.76535c0.39844,0 3.32026,2.88086 6.50772,6.38798c5.57806,6.26273 5.57806,6.38799 2.92185,8.14156c-1.59374,1.00204 -5.31243,3.75763 -8.4999,6.13747c-3.18746,2.37984 -7.96865,5.76171 -10.89049,7.64053l-5.04682,3.25662l5.71087,5.5112c3.05464,3.00611 5.44525,5.63646 5.04682,5.88697c-0.66405,0.75153 -18.1951,5.63646 -22.44504,6.38798c-11.82017,2.12932 -11.28892,2.25459 -11.15612,-2.7556c0.39843,-6.889 3.05465,-26.80448 3.71871,-27.556c0.39843,-0.25051 2.25779,0.62627 4.24995,2.12933l3.58589,2.63035l3.71871,-4.75968c1.99216,-2.63034 6.24211,-6.76375 9.42957,-9.26884c3.18746,-2.50509 7.17179,-5.63646 9.03114,-7.13951c1.85935,-1.3778 3.71871,-2.50509 4.11713,-2.63034zM76.78501,114.40181c-3.58589,-3.13136 -4.64838,-3.25662 -4.11713,-0.37577c0.13281,1.25255 -13.14828,12.27495 -14.87481,12.27495c-1.1953,0 5.44524,-6.01221 12.21861,-10.89714c1.1953,-0.87679 1.46092,-1.6283 0.79686,-1.6283c-2.12497,0 -15.40606,11.39816 -14.6092,12.52546c0.39844,0.62627 -0.79686,2.12933 -2.65622,3.25663c-3.45308,2.12933 -4.24995,4.75968 -1.99216,6.13748c0.79686,0.50102 2.39059,0.12525 3.58589,-0.75153c1.72653,-1.3778 2.25778,-1.25255 3.85152,0.62627c1.72653,2.25459 1.99216,2.25459 6.50773,-1.00203c2.52341,-1.87882 4.51557,-4.00815 4.24994,-4.75968c-0.13281,-0.87679 0.92967,-1.75357 2.39059,-2.00408c1.46092,-0.25051 3.45308,-1.6283 4.38276,-2.88085c0.92968,-1.3778 2.25779,-2.12933 2.92183,-1.75357c0.53125,0.37577 1.72653,-0.25051 2.65622,-1.25255c1.06249,-1.12729 1.06248,-1.87882 0.26562,-1.87882c-0.79686,0 -1.72653,0.75153 -2.12497,1.50305c-0.39844,0.87679 -0.53125,0.50102 -0.13281,-1.00204c0.53125,-1.75357 -0.53125,-3.63238 -3.32027,-6.13748zM40.39483,135.94559c-1.1953,9.14359 -1.1953,15.78207 -0.26563,18.03666c0.79686,1.75357 1.59373,1.87882 5.84368,0.37577c2.65622,-0.87678 7.17178,-1.62831 10.09362,-1.75357c3.85152,0 4.91401,-0.37576 4.38276,-1.87882c-0.53125,-1.00203 -0.26562,-2.12933 0.39844,-2.50509c0.79686,-0.50102 1.32811,0.50102 1.32811,1.87882c0,2.00407 0.53125,2.50509 2.12497,2.00407c1.1953,-0.37577 2.25779,-0.75153 2.3906,-0.75153c0.26562,0 -1.85935,-2.25459 -4.51557,-5.13544c-3.45308,-3.38188 -4.78119,-5.76171 -4.38276,-7.51527c0.79686,-2.63034 -0.92967,-3.13136 -3.18746,-1.00203c-1.1953,1.12729 -2.65622,0.62627 -5.97649,-2.00407l-4.38276,-3.50713l-0.92967,9.14359c-1.46092,13.02648 -2.65622,12.65071 -1.59373,-0.37577c0.92967,-11.52342 0,-15.03055 -1.32811,-5.01018zM54.20717,154.10751c-2.92183,0 -11.02331,2.25458 -10.35925,2.88085c0.26563,0.37577 3.18746,-0.12526 6.50773,-1.12729c3.18746,-1.00203 4.91401,-1.75356 3.85152,-1.75356z" fill="#110e00" stroke-width="1"/><path d="M80.15696,120.52392c-0.39844,1.50306 -0.37004,1.90584 0.0284,1.02906c0.39844,-0.75153 1.4327,-1.52957 2.22957,-1.52957c0.79686,0 0.79835,0.7573 -0.26414,1.88459c-0.92968,1.00204 -2.12446,1.63158 -2.65571,1.25582c-0.66405,-0.37577 -1.99185,0.38359 -2.92153,1.76138c-0.92968,1.25255 -2.92999,2.65535 -4.39091,2.90585c-1.46092,0.25051 -2.54278,1.14478 -2.40997,2.02157c0.26562,0.75153 -1.75878,2.88716 -4.28219,4.76598c-4.51557,3.25662 -4.80516,3.24861 -6.5317,0.99402c-1.59374,-1.87882 -2.13445,-2.01147 -3.86099,-0.63367c-1.1953,0.87678 -2.79258,1.24869 -3.58944,0.74767c-2.25779,-1.3778 -1.46849,-4.02047 1.98459,-6.14979c1.85935,-1.12729 3.0515,-2.64062 2.65306,-3.2669c-0.79686,-1.12729 12.55627,-12.58237 14.68124,-12.58237c0.66405,0 0.36178,0.84768 -0.83352,1.72447c-6.77336,4.88493 -13.44898,10.85945 -12.25368,10.85945c1.72653,0 15.0865,-11.07781 14.9537,-12.33036c-0.53125,-2.88085 0.54261,-2.74782 4.1285,0.38354c2.78903,2.50509 3.86596,4.40567 3.33472,6.15923z" data-paper-data="{&quot;noHover&quot;:false,&quot;origItem&quot;:[&quot;Path&quot;,{&quot;applyMatrix&quot;:true,&quot;segments&quot;:[[[178.73572,221.37105],[5.14802,4.90288],[-6.61889,-6.1286]],[[171.13626,220.63562],[-0.98058,-5.63831],[0.24514,2.45144]],[[143.68013,244.65973],[3.18687,0],[-2.2063,0]],[[166.23338,223.3322],[-12.50235,9.56062],[2.2063,-1.71601]],[[167.70424,220.14533],[1.22572,0],[-3.9223,0]],[[140.7384,244.65973],[-1.47086,-2.2063],[0.73543,1.22572]],[[135.83552,251.03348],[3.43202,-2.2063],[-6.37374,4.16745]],[[132.15836,263.04554],[-4.16745,-2.69658],[1.47086,0.98058]],[[138.77724,261.57467],[-2.2063,1.71601],[3.18687,-2.69658]],[[145.88642,262.80039],[-2.94173,-3.67716],[3.18687,4.41259]],[[157.89848,260.83924],[-8.3349,6.37374],[4.65774,-3.67716]],[[165.74309,251.52377],[0.49029,1.47086],[-0.24514,-1.71601]],[[170.15568,247.60146],[-2.69658,0.49029],[2.69658,-0.49029]],[[178.24543,241.96315],[-1.71601,2.45144],[1.71601,-2.69658]],[[183.6386,238.53113],[-1.22572,-0.73543],[0.98058,0.73543]],[[188.54148,236.07969],[-1.71601,1.96115],[1.96115,-2.2063]],[[189.03177,232.40253],[1.47086,0],[-1.47086,0]],[[185.10947,235.34426],[0.73543,-1.47086],[-0.73543,1.71601]],[[184.86432,233.38311],[-0.73543,2.94173],[0.98058,-3.43202]]],&quot;closed&quot;:true,&quot;fillColor&quot;:[0.9098,0.51765,0.07451]}]}" fill="#110e00" stroke-width="0.5"/><path d="M41.77639,140.9641c-1.06249,13.02648 0.0258,13.38623 1.48672,0.35975l0.94963,-9.17599l4.38857,3.50334c3.32027,2.63034 4.8238,3.12608 6.0191,1.99879c2.25779,-2.12932 4.00962,-1.61352 3.21275,1.01683c-0.39844,1.75357 0.93975,4.187 4.39283,7.56888c2.65622,2.88085 4.77598,5.14468 4.51035,5.14468c-0.13281,0 -1.19971,0.38115 -2.39501,0.75692c-1.59374,0.50102 -2.20659,-0.06721 -2.20659,-2.07128c0,-1.3778 -0.44683,-2.31586 -1.24369,-1.81484c-0.66405,0.37577 -0.93749,1.51097 -0.40625,2.51301c0.53125,1.50306 -0.55193,1.88938 -4.40345,1.88938c-2.92183,0.12525 -7.47932,0.87189 -10.13553,1.74868c-4.24995,1.50306 -5.05959,1.36815 -5.85646,-0.38541c-0.92967,-2.25459 -0.93695,-8.95287 0.25835,-18.09646c1.32811,-10.02037 2.35838,-6.4797 1.42869,5.04372z" data-paper-data="{&quot;noHover&quot;:false,&quot;origItem&quot;:[&quot;Path&quot;,{&quot;applyMatrix&quot;:true,&quot;segments&quot;:[[[111.56626,263.53582],[2.45144,-19.61152],[-2.2063,17.89551]],[[111.07597,298.83656],[-1.71601,-4.41259],[1.47086,3.43202]],[[121.86231,299.572],[-7.84461,2.94173],[4.90288,-1.71601]],[[140.49325,296.13998],[-5.39317,0.24514],[7.10918,0]],[[148.58301,292.46282],[0.98058,2.94173],[-0.98058,-1.96115]],[[149.31844,287.55994],[-1.22572,0.73543],[1.47086,-0.98058]],[[151.76988,291.2371],[0,-2.69658],[0,3.9223]],[[155.69218,295.1594],[-2.94173,0.98058],[2.2063,-0.73543]],[[160.10478,293.68854],[-0.24514,0],[0.49029,0]],[[151.76988,283.63763],[4.90288,5.63831],[-6.37374,-6.61889]],[[143.68013,268.92899],[-0.73543,3.43202],[1.47086,-5.14802]],[[137.79667,266.96784],[4.16745,-4.16745],[-2.2063,2.2063]],[[126.76519,263.04554],[6.1286,5.14802],[0,0]],[118.67543,256.1815],[[116.95943,274.07702],[0,0],[-2.69658,25.49498]],[[114.0177,273.34159],[-1.96115,25.49498],[1.71601,-22.55325]]],&quot;closed&quot;:true,&quot;fillColor&quot;:[0.9098,0.51765,0.07451]}]}" fill="#110e00" stroke-width="0.5"/><path d="M515.19375,135.06881c1.72653,0 3.85151,4.50916 3.85151,8.39205v3.50713l10.22643,-0.12525c8.36708,-0.12525 9.6952,0.12525 7.83584,1.3778c-1.1953,0.87678 -1.72653,1.87882 -1.19529,2.12933c0.53125,0.37577 0.13281,0.37577 -0.92968,0c-4.51557,-1.12729 -16.60136,-1.25256 -18.06228,-0.12526c-1.1953,1.00203 -1.46093,0.62627 -0.92968,-1.25255c1.06248,-3.88289 -0.79686,-12.27495 -2.25778,-10.02037c-0.66405,1.00203 -0.79686,1.87882 -0.13281,2.12932c1.06248,0.37577 -6.37493,13.15174 -9.16395,15.78207c-2.12497,2.00407 -1.59373,2.88085 2.52341,4.50916c2.12497,0.75153 4.24994,2.37984 4.78119,3.50713c0.66405,1.75357 0.53123,1.75357 -1.59374,0c-1.32811,-1.00203 -3.58589,-2.25459 -5.04682,-2.63035c-1.85935,-0.62627 -1.46092,0 1.32811,2.25458c2.25779,1.75357 4.51556,3.13136 5.04682,3.13136c0.66405,0 0.66405,0.50102 0.26562,1.25255c-0.79686,1.25255 -15.67168,-8.5173 -15.00762,-9.8951c0.26562,-0.50102 4.24994,-6.01222 8.89832,-12.4002c4.64838,-6.38798 8.89833,-11.52342 9.56239,-11.52342zM507.75633,146.59223c-2.12497,3.00611 -4.91401,7.01425 -6.37493,8.89307c-1.85935,2.7556 -2.12498,4.00814 -0.92967,5.01018c0.79686,0.87678 1.32811,0.87679 1.06248,0.25052c-0.13281,-0.75153 0.79686,-3.00611 2.12498,-5.01018c1.46092,-2.12932 3.98433,-5.88697 5.71087,-8.5173c4.51557,-6.76375 3.05465,-7.13952 -1.59374,-0.62627z" fill="#110e00" stroke-width="1"/><path d="M507.77431,146.54405c4.64839,-6.51324 6.12382,-6.13016 1.60825,0.63358c-1.72655,2.63033 -4.3071,6.47436 -5.76802,8.60368c-1.32812,2.00407 -2.21089,4.16658 -2.07808,4.9181c0.26563,0.62627 -0.31489,0.71714 -1.11175,-0.15964c-1.19531,-1.00204 -0.94251,-2.26425 0.91684,-5.01985c1.46092,-1.87882 4.30778,-5.96978 6.43274,-8.9759z" data-paper-data="{&quot;noHover&quot;:false,&quot;origItem&quot;:[&quot;Path&quot;,{&quot;applyMatrix&quot;:true,&quot;segments&quot;:[[[974.22805,284.37308],[0,0],[-3.9223,5.88346]],[[962.46113,301.7783],[2.69658,-3.67716],[-3.43202,5.39316]],[[960.74513,311.58406],[-2.20632,-1.96116],[1.47086,1.716]],[[962.70627,312.07436],[0.4903,1.22572],[-0.24514,-1.47086]],[[966.62859,302.2686],[-2.45146,3.9223],[2.69658,-4.16744]],[[977.16979,285.59882],[-3.18688,5.148],[8.3349,-13.23778]],[[974.22805,284.3731],[8.58006,-12.7475],[0,0]]],&quot;closed&quot;:true,&quot;fillColor&quot;:[0,0,0,1]}]}" fill="#110e00" stroke-width="0.5"/><path d="M455.29604,152.60445c3.98433,2.00407 9.56239,4.63443 12.35142,5.76172c2.65622,1.12729 4.91401,2.63034 4.91401,3.50713c0,1.3778 -21.51537,20.91752 -23.90596,21.7943c-0.66405,0.25052 -1.46092,-1.37781 -1.99216,-3.38188c-0.92967,-4.25866 -3.18746,-4.75967 -11.28893,-2.63034c-2.52341,0.62627 -13.5467,2.37984 -24.4372,3.75764c-15.9373,2.12932 -20.05444,2.37984 -20.85131,1.00204c-1.32811,-2.00407 -4.38275,-18.53768 -3.45308,-19.28921c1.32811,-1.25255 25.89813,-4.25866 35.59332,-4.25866c5.57806,0 12.08579,-0.37577 14.47639,-0.75153c4.11713,-0.87678 4.24994,-1.12728 3.58589,-5.63646c-0.39843,-2.63034 -0.39843,-5.01018 0,-5.38595c0.92967,-0.75153 6.64054,1.25255 15.00763,5.5112zM442.54619,148.8468c-0.26562,0 -0.53125,2.25459 -0.53125,5.01018c0,2.7556 0.39843,5.01018 1.06248,5.01018c0.53125,0 0.79686,-2.25458 0.53125,-5.01018c-0.26562,-2.7556 -0.79686,-5.01018 -1.06248,-5.01018zM454.10074,153.98225c-4.38275,-2.12932 -8.23427,-3.50713 -8.4999,-3.00611c-1.59374,2.50509 -0.79687,17.91141 0.92967,19.53972c1.06248,1.00203 2.12498,3.63238 2.3906,6.01221l0.39844,4.13339l10.8905,-9.51934c7.70302,-6.889 10.22643,-9.76986 8.76552,-10.27087c-2.92185,-1.12729 -3.05464,-1.00204 -2.25778,1.3778c0.53125,1.3778 0.26562,1.75356 -0.39844,1.00203c-0.53125,-0.75153 -5.04682,-3.13136 -9.96082,-5.38594c-4.91401,-2.25459 -9.29676,-4.75968 -9.69519,-5.38595c-0.53125,-0.62627 2.52341,0.62627 6.64054,2.7556c4.11713,2.12932 7.70302,3.63238 8.10146,3.25662c0.26562,-0.25052 -2.92183,-2.25459 -7.3046,-4.50916zM408.81223,161.37227c-2.25779,0.75153 -0.53125,1.00204 5.97649,1.00204c6.90616,0 8.23428,-0.25052 5.31243,-1.00204c-5.17963,-1.25255 -7.17179,-1.25255 -11.28892,0zM443.07743,160.62075l-6.1093,-0.12526c-3.45308,0 -7.96865,0.75154 -10.22643,1.62831c-2.3906,1.00203 -8.10146,1.6283 -14.34357,1.50305c-5.57806,0 -10.62487,0.25052 -11.15612,0.75153c-0.39843,0.37577 -2.3906,0.75153 -4.24994,0.75153c-5.71087,0 -6.77335,1.50306 -6.37492,8.89308l0.26562,6.76375h6.64054c12.21861,-0.12525 48.60879,-5.88697 47.01505,-7.39002c-0.26562,-0.37577 -4.38275,0.25052 -9.16395,1.25255c-4.7812,0.87678 -15.80448,2.00407 -24.57001,2.50509c-8.76553,0.37577 -16.73417,0.87678 -17.53104,1.12729c-0.92967,0.37577 -1.72655,0 -1.72655,-0.62627c0,-1.3778 -0.39844,-1.3778 17.92947,-1.87882c11.42174,-0.25052 18.06228,-1.00204 31.87461,-3.75765c2.25779,-0.50102 2.65622,-1.3778 2.25778,-6.01221z" fill="#110e00" stroke-width="1"/><path d="M454.08828,153.93252c4.38276,2.25458 7.55608,4.35288 7.29046,4.60339c-0.39844,0.37577 -3.94046,-1.12336 -8.0576,-3.25268c-4.11713,-2.12932 -7.2212,-3.47143 -6.68995,-2.84515c0.39843,0.62627 4.80885,3.12156 9.72286,5.37615c4.914,2.25458 9.48611,4.67119 10.01735,5.42272c0.66405,0.75153 0.82708,0.4083 0.29584,-0.96948c-0.79686,-2.37984 -0.56385,-2.5439 2.358,-1.41661c1.46092,0.50101 -1.08592,3.44697 -8.78894,10.33597l-10.94058,9.52053l-0.40605,-4.13768c-0.26562,-2.37983 -1.34554,-5.02973 -2.40802,-6.03176c-1.72655,-1.62831 -2.50648,-17.09795 -0.91275,-19.60304c0.26563,-0.50102 4.13663,0.86833 8.51938,2.99765z" data-paper-data="{&quot;noHover&quot;:false,&quot;origItem&quot;:[&quot;Path&quot;,{&quot;applyMatrix&quot;:true,&quot;segments&quot;:[[[875.18987,298.83656],[0,0],[-8.08974,-4.16744]],[[859.50065,292.9531],[0.4903,-0.98058],[-2.94174,4.90288]],[[861.21665,331.19558],[-3.18688,-3.18688],[1.96114,1.96114]],[[865.62925,342.96248],[-0.49028,-4.65772],[0,0]],[866.36469,351.05222],[[886.46651,332.42128],[0,0],[14.21834,-13.48292]],[[902.64601,312.31948],[2.69658,0.98056],[-5.39318,-2.2063]],[[898.47857,315.01606],[-1.47086,-4.65774],[0.98058,2.69658]],[[897.74313,316.9772],[1.22572,1.47086],[-0.98058,-1.47086]],[[879.35733,306.43602],[9.07032,4.41258],[-9.07034,-4.4126]],[[861.46183,295.89482],[0.73542,1.22572],[-0.98058,-1.22572]],[[873.71903,301.28798],[-7.59946,-4.16744],[7.59946,4.16744]],[[888.67281,307.66172],[-0.73544,0.73544],[0.49028,-0.4903]],[[875.18989,298.83654],[8.08976,4.41258],[0,0]]],&quot;closed&quot;:true,&quot;fillColor&quot;:[0,0,0,1]}]}" fill="#110e00" stroke-width="0.5"/><path d="M443.66191,165.99722c0.39843,4.63443 0.00085,5.52381 -2.25695,6.02482c-13.81233,2.7556 -20.55189,3.53253 -31.97363,3.78303c-18.3279,0.50102 -17.83244,0.45845 -17.83244,1.83625c0,0.62627 0.79617,0.99992 1.72585,0.62415c0.79686,-0.25052 8.75203,-0.77187 17.51755,-1.14764c8.76553,-0.50102 19.69822,-1.60366 24.47942,-2.48044c4.7812,-1.00203 9.00489,-1.61095 9.27051,-1.23518c1.59374,1.50306 -34.89805,7.28343 -47.11665,7.40868l-6.64306,-0.00506l-0.26907,-6.77611c-0.39843,-7.39002 0.66565,-8.91378 6.37652,-8.91378c1.85935,0 3.85345,-0.38105 4.25187,-0.75682c0.53125,-0.50102 5.59733,-0.77423 11.17539,-0.77423c6.24211,0.12525 12.0225,-0.4949 14.4131,-1.49694c2.25779,-0.87678 6.78213,-1.61725 10.23521,-1.61725l6.11193,0.13039z" data-paper-data="{&quot;noHover&quot;:false,&quot;origItem&quot;:[&quot;Path&quot;,{&quot;applyMatrix&quot;:true,&quot;segments&quot;:[[854.84296,311.8292],[[843.56633,311.58405],[0,0],[-6.37374,0]],[[824.69024,314.77093],[4.16745,-1.71601],[-4.41259,1.96115]],[[798.21469,317.71265],[11.52177,0.24514],[-10.29605,0]],[[777.62259,319.18352],[0.98058,-0.98058],[-0.73543,0.73543]],[[769.77798,320.65438],[3.43202,0],[-10.54119,0]],[[758.01107,338.05961],[-0.73543,-14.4635],[0,0]],[758.50135,351.29739],[[770.75856,351.29739],[0,0],[22.55325,-0.24514]],[[857.53954,336.83389],[2.94173,2.94173],[-0.49029,-0.73543]],[[840.6246,339.28533],[8.82519,-1.96115],[-8.82519,1.71601]],[[795.27296,344.18821],[16.17951,-0.98058],[-16.17951,0.73543]],[[762.91395,346.39451],[1.47086,-0.49029],[-1.71601,0.73543]],[[759.72707,345.16879],[0,1.22572],[0,-2.69658]],[[792.82152,341.49163],[-33.82988,0.98058],[21.08239,-0.49029]],[[851.65609,334.1373],[-25.49498,5.39317],[4.16745,-0.98058]],[[855.82353,322.37039],[0.73543,9.07033],[0,0]]],&quot;closed&quot;:true,&quot;fillColor&quot;:[0.9098,0.51765,0.07451]}]}" fill="#110e00" stroke-width="0.5"/><path d="M530.99825,151.3519c1.1953,0.62627 -0.92967,1.12729 -5.71087,1.12729c-4.11713,0 -7.57023,-0.50102 -7.57023,-1.00204c0,-1.3778 10.75769,-1.3778 13.2811,-0.12525z" fill="#110e00" stroke-width="1"/><path d="M538.30284,157.48938c-0.26562,0.50102 -5.17963,1.00203 -10.75769,1.12728c-15.40606,0.37577 -15.8045,2.75561 -0.39843,2.88086c13.94514,0.12525 11.82017,2.00407 -2.52341,2.25459c-8.10147,0.12525 -8.36709,0.25051 -9.03114,3.88289c-1.32811,5.76172 -3.05465,4.50917 -2.25779,-1.6283c0.92967,-8.14155 1.06249,-8.2668 8.63271,-8.76782c10.8905,-0.62627 16.9998,-0.50102 16.33574,0.25052z" fill="#110e00" stroke-width="1"/><path d="M-3.43275,163.00058c1.32811,0.37577 6.37493,1.12729 11.15612,1.62831c4.78119,0.50102 8.89833,1.00204 9.29676,1.12729c0.39843,0.12525 2.92183,0.62627 5.71087,1.12729c2.65622,0.62627 4.914,1.3778 4.914,1.87882c0,0.75153 -10.49206,13.15174 -17.53104,20.66701c-3.58589,3.88289 -3.71871,3.88289 -4.51557,1.00203c-0.39844,-1.50306 -1.32811,-2.7556 -1.85935,-2.7556c-1.32811,0 -9.29676,3.13136 -18.99196,7.51527c-4.38275,2.12932 -8.4999,3.75764 -9.03114,3.75764c-0.53125,0 -1.59373,-3.38187 -2.39059,-7.64053c-0.79686,-4.25866 -2.12498,-8.39206 -2.92183,-9.3941c-1.1953,-1.3778 -0.92967,-1.75356 1.1953,-1.75356c1.46092,0 5.84368,-1.3778 9.6952,-3.00611c3.98433,-1.6283 9.42958,-3.25662 12.21861,-3.75764c3.45308,-0.62627 4.64839,-1.37781 3.98434,-2.37984c-0.53125,-0.87678 -1.06249,-2.12932 -1.1953,-2.7556c-0.13281,-0.75153 -0.66405,-2.25459 -1.32811,-3.63238c-0.79686,-1.87882 -0.39844,-2.12933 1.59374,-1.62831zM-1.70622,165.12991c-1.32811,0 0.13281,4.88493 1.85935,5.88697c0.79686,0.37577 0.92968,0.12525 0.39844,-0.62627c-0.53125,-0.87678 -0.39844,-1.50306 0.39844,-1.50306c0.66405,0 1.72653,1.12729 2.12497,2.50509c0.39844,1.3778 1.46093,2.50509 2.12498,2.50509c0.66405,0 1.1953,2.12932 1.1953,4.63441c0,2.63034 0.39844,6.01222 0.79686,7.64053c0.66405,2.25459 1.19529,2.50509 2.78903,1.3778c1.1953,-1.00203 1.32812,-1.75356 0.39844,-2.37984c-0.79686,-0.50102 -0.26563,-1.75357 1.59373,-3.25663c2.92183,-2.37984 3.05465,-2.37983 1.06249,0.12526c-1.59373,2.12932 -1.59373,2.25458 0,0.87678c1.06248,-0.87678 1.99216,-2.5051 1.99216,-3.75765c0,-1.12729 0.66405,-2.00407 1.46092,-1.87882c1.85935,0.25052 9.29676,-6.76375 8.23427,-7.76579c-0.39843,-0.50102 -5.71086,-1.00203 -11.82017,-1.3778c-6.10931,-0.25052 -11.68735,-1.12729 -12.35142,-1.75357c-0.79686,-0.75153 -1.72653,-1.25255 -2.25778,-1.25255zM-5.55773,175.15028c-1.06248,0.62627 -3.18745,1.25255 -4.78119,1.25255c-1.46092,0 -3.85152,1.12729 -5.17963,2.50509c-1.32811,1.3778 -3.05465,2.50509 -3.7187,2.50509c-0.66405,0 -2.12497,1.00204 -3.05465,2.12933c-1.72653,2.12932 -1.85935,2.12932 -1.06249,0c0.39844,-1.12729 0.13281,-2.12933 -0.53125,-2.12933c-2.52341,0 -2.78903,1.87882 -0.92967,8.89307c1.06249,4.50917 1.85935,5.76171 1.99216,3.63238c0.26562,-2.25459 0.53125,-2.50509 0.92968,-1.00203c0.79686,3.13136 2.25778,2.88085 15.00762,-3.25663c10.49206,-4.88493 11.28893,-5.63646 11.68736,-9.51934c0.26563,-2.37984 -0.26563,-4.50916 -1.32811,-5.13544c-2.25779,-1.50306 -6.64054,-1.3778 -9.03114,0.12526z" fill="#110e00" stroke-width="1"/><path d="M0.51353,166.34608c0.66405,0.62627 6.28959,1.48912 12.3989,1.73964c6.1093,0.37577 11.45946,0.90196 11.8579,1.40298c1.06249,1.00203 -6.36833,8.04779 -8.22768,7.79727c-0.79686,-0.12525 -1.47048,0.77472 -1.47048,1.90202c0,1.25255 -0.96016,2.90073 -2.02264,3.77752c-1.59373,1.3778 -1.62322,1.15423 -0.02949,-0.97509c1.99216,-2.50509 1.88162,-2.40549 -1.04022,-0.02565c-1.85935,1.50306 -2.39156,2.65405 -1.5947,3.15506c0.92967,0.62627 0.78518,1.47939 -0.41012,2.48143c-1.59373,1.12729 -2.13926,0.87332 -2.80333,-1.38125c-0.39844,-1.6283 -0.82666,-5.03841 -0.82666,-7.66874c0,-2.50509 -0.52982,-4.67568 -1.19387,-4.67568c-0.66405,0 -1.72253,-1.13386 -2.12096,-2.51165c-0.39844,-1.3778 -1.37375,-2.44453 -2.0378,-2.44453c-0.79686,0 -0.92598,0.62133 -0.39473,1.49811c0.53125,0.75153 0.30465,0.95096 -0.49222,0.5752c-1.72653,-1.00203 -3.17921,-5.89778 -1.8511,-5.89778c0.53125,0 1.46236,0.49963 2.25922,1.25117z" data-paper-data="{&quot;noHover&quot;:false,&quot;origItem&quot;:[&quot;Path&quot;,{&quot;applyMatrix&quot;:true,&quot;segments&quot;:[[[33.8556,320.65438],[0.98058,0],[-2.45144,0]],[[37.28762,332.17615],[-3.18687,-1.96115],[1.47086,0.73543]],[[38.02305,330.95043],[0.98058,1.47086],[-0.98058,-1.71601]],[[38.75848,328.0087],[-1.47086,0],[1.22572,0]],[[42.68078,332.91158],[-0.73543,-2.69658],[0.73543,2.69658]],[[46.60309,337.81447],[-1.22572,0],[1.22572,0]],[[48.80939,346.88479],[0,-4.90288],[0,5.14802]],[[50.28025,361.83858],[-0.73543,-3.18687],[1.22572,4.41259]],[[55.42827,364.53516],[-2.94173,2.2063],[2.2063,-1.96115]],[[56.16371,359.87743],[1.71601,1.22572],[-1.47086,-0.98058]],[[59.10543,353.50368],[-3.43202,2.94173],[5.39317,-4.65774]],[[61.06659,353.74883],[3.67716,-4.90288],[-2.94173,4.16745]],[[61.06659,355.46484],[-2.94173,2.69658],[1.96115,-1.71601]],[[64.74375,348.11051],[0,2.45144],[0,-2.2063]],[[67.44033,344.43335],[-1.47086,-0.24514],[3.43202,0.49029]],[[82.63926,329.23442],[1.96115,1.96115],[-0.73543,-0.98058]],[[60.82144,326.53784],[11.27663,0.73543],[-11.27663,-0.49029]],[[38.02305,323.10582],[1.22572,1.22572],[-1.47086,-1.47086]]],&quot;closed&quot;:true,&quot;fillColor&quot;:[0.9098,0.51765,0.07451]}]}" fill="#110e00" stroke-width="0.5"/><path d="M3.51755,174.99541c1.06248,0.62627 1.60154,2.77072 1.33591,5.15056c-0.39844,3.88289 -1.21721,4.69145 -11.70927,9.57637c-12.74984,6.13748 -14.2832,6.37725 -15.08007,3.24589c-0.39844,-1.50306 -0.57978,-1.31677 -0.84539,0.93782c-0.13281,2.12932 -1.02121,0.92963 -2.0837,-3.57953c-1.85935,-7.01426 -1.59673,-8.92552 0.92669,-8.92552c0.66405,0 1.03636,1.01791 0.63792,2.1452c-0.79686,2.12932 -0.77207,2.12128 0.95447,-0.00804c0.92967,-1.12729 2.39382,-2.14296 3.05787,-2.14296c0.66405,0 2.40652,-1.14859 3.73463,-2.52638c1.32811,-1.3778 3.75507,-2.51705 5.21599,-2.51705c1.59374,0 3.74177,-0.62073 4.80426,-1.24701c2.39059,-1.50306 6.79293,-1.61239 9.05071,-0.10934z" data-paper-data="{&quot;noHover&quot;:false,&quot;origItem&quot;:[&quot;Path&quot;,{&quot;applyMatrix&quot;:true,&quot;segments&quot;:[[[26.74642,340.26591],[4.41259,-2.94173],[-1.96115,1.22572]],[[17.92124,342.71735],[2.94173,0],[-2.69658,0]],[[8.36062,347.62023],[2.45144,-2.69658],[-2.45144,2.69658]],[[1.49659,352.52311],[1.22572,0],[-1.22572,0]],[[-4.14172,356.69056],[1.71601,-2.2063],[-3.18687,4.16745]],[[-6.10288,356.69056],[-1.47086,4.16745],[0.73543,-2.2063]],[[-7.08345,352.52311],[1.22572,0],[-4.65774,0]],[[-8.79946,369.92833],[-3.43202,-13.72807],[1.96115,8.82519]],[[-5.1223,377.03751],[-0.24514,4.16745],[0.49029,-4.41259]],[[-3.40629,375.07636],[-0.73543,-2.94173],[1.47086,6.1286]],[[24.29498,368.70261],[-23.53383,12.01206],[19.36638,-9.56062]],[[45.86766,350.07167],[-0.73543,7.59946],[0.49029,-4.65774]],[[43.41622,340.02076],[1.96115,1.22572],[-4.16745,-2.94173]]],&quot;closed&quot;:true,&quot;fillColor&quot;:[0.9098,0.51765,0.07451]}]}" fill="#110e00" stroke-width="0.5"/><path d="M17.02011,169.01281c1.06249,-0.12525 2.92183,0.50102 3.98433,1.12729c1.72653,1.00203 1.59374,1.6283 -0.92967,4.00814c-1.72653,1.6283 -3.05464,2.12932 -3.05464,1.25255c0,-0.87678 0.92967,-1.87882 2.12497,-2.37984c1.85935,-0.62627 1.59374,-1.00204 -0.92967,-2.37984c-1.99216,-1.00203 -2.39059,-1.6283 -1.19529,-1.6283z" fill="#110e00" stroke-width="1"/><path d="M483.71757,164.0026c1.32811,-0.12525 20.7185,17.41039 20.7185,18.91345c0,0.50102 -0.79687,1.00204 -1.85935,1.00204c-1.06248,0 -2.25779,0.50102 -2.65622,1.00203c-0.39843,0.62627 0.79686,9.14359 2.65622,18.91345c1.85935,9.89511 3.18746,18.03666 2.92185,18.28717c-0.26562,0.12525 -3.7187,0.62627 -7.83583,1.00203l-7.57022,0.62627l-4.11713,-15.53157c-2.25779,-8.5173 -4.11713,-16.90937 -4.11713,-18.66293c0,-2.25459 -0.66405,-3.13136 -2.52341,-3.13136c-1.46092,0 -3.05465,-0.62627 -3.45308,-1.25255c-1.06248,-1.75357 -3.32027,-0.37577 -3.32027,2.00407c0,1.50306 0.92968,1.75357 4.38276,1.12729c3.18746,-0.62627 3.7187,-0.50102 2.25778,0.50102c-2.25779,1.50306 -9.29676,1.87882 -9.29676,0.37577c0,-0.50102 2.78904,-6.38798 6.24212,-13.02648c3.58589,-6.6385 6.90616,-12.1497 7.57022,-12.1497zM484.51443,166.5077c-1.59374,0.12525 -7.96865,14.78003 -7.17179,16.65886c0.92967,2.25459 2.65622,2.37984 10.49206,0.87678c5.17963,-1.12729 5.17962,-1.12729 -2.52341,-1.25255c-7.43742,-0.12525 -7.70302,-0.25052 -5.71087,-2.37984c1.1953,-1.25255 2.92183,-4.1334 3.7187,-6.26273c0.79686,-2.25459 1.99216,-4.00814 2.78903,-4.00814c2.12497,0 10.35925,8.39205 10.35925,10.52139c0,1.25255 1.1953,2.00408 2.92185,2.00408c2.52341,0 1.59374,-1.3778 -5.57806,-8.14155c-4.64838,-4.50917 -8.89833,-8.14155 -9.29676,-8.01629zM483.58476,176.27757l-2.65622,4.88493l7.17178,0.50102c7.57022,0.37577 8.49991,-0.50102 4.64839,-4.63443c-5.31243,-6.01221 -6.37493,-6.13748 -9.16395,-0.75153zM497.79552,185.17065h-5.17963c-2.92185,0 -5.57806,0.37577 -5.84368,0.87678c-0.66405,1.00203 1.99216,15.53157 3.45308,19.16394c0.39843,1.00203 1.46092,4.25866 2.25778,7.13952c1.1953,4.38391 1.99216,5.38595 4.51557,5.38595c2.3906,0 3.32027,-0.87679 3.98433,-3.8829c1.06248,-5.38595 1.06248,-6.38798 -0.53125,-5.5112c-0.79686,0.50102 -1.06248,-0.87678 -0.66405,-3.38187c0.53125,-3.38188 0.39843,-3.63238 -0.53125,-1.6283c-1.06248,1.87882 -1.19529,0.75153 -0.79686,-4.38391c0.39843,-5.63646 0.26562,-6.13748 -0.66405,-3.13136c-0.92967,3.00611 -1.06248,2.25459 -0.66405,-3.50713zM484.51443,187.67574c-2.25779,-3.38188 -1.59374,0.87678 2.92183,17.78615l4.24994,16.03259h5.71087c5.57806,0 5.71087,-0.12526 5.57806,-4.1334c0,-3.63238 -0.13281,-3.75764 -1.1953,-1.25255c-0.92967,2.12932 -2.3906,2.88086 -5.17963,2.88086c-3.45308,0 -4.11713,-0.62628 -5.31243,-4.75968c-4.11713,-14.65478 -5.44524,-19.79023 -5.44524,-22.17005c0,-1.3778 -0.66405,-3.38188 -1.32811,-4.38391z" fill="#110e00" stroke-width="1"/><path d="M484.49277,166.46266c0.39843,-0.12526 4.71846,3.53971 9.36684,8.04888c7.1718,6.76375 8.09476,8.18161 5.57135,8.18161c-1.72655,0 -3.00544,-0.80642 -3.00544,-2.05897c0,-2.12934 -8.16976,-10.4495 -10.29474,-10.4495c-0.79687,0 -1.96675,1.72278 -2.76361,3.97737c-0.79687,2.12933 -2.52665,4.97418 -3.72195,6.22673c-1.99215,2.12932 -1.74826,2.23244 5.68916,2.35769c7.70303,0.12526 7.67316,0.21914 2.49354,1.34643c-7.83584,1.50306 -9.5978,1.35511 -10.52747,-0.89948c-0.79686,-1.87883 5.59857,-16.60551 7.19232,-16.73076z" data-paper-data="{&quot;noHover&quot;:false,&quot;origItem&quot;:[&quot;Path&quot;,{&quot;applyMatrix&quot;:true,&quot;segments&quot;:[[[969.02886,333.01541],[0,0],[-3.18748,0.2505]],[[954.68528,366.33313],[-1.59372,-3.75766],[1.85934,4.50918]],[[975.6694,368.08669],[-15.67168,3.00612],[10.35926,-2.25458]],[[970.62258,365.58159],[15.40606,0.25052],[-14.87484,-0.2505]],[[959.20084,360.82191],[-3.9843,4.25864],[2.3906,-2.5051]],[[966.63824,348.29645],[-1.59374,4.25866],[1.59372,-4.50918]],[[972.2163,340.28017],[-1.59374,0],[4.24994,0]],[[992.9348,361.32295],[0,-4.25868],[0,2.5051]],[[998.7785,365.33111],[-3.4531,0],[5.04682,0]],[[987.62238,349.04801],[14.3436,13.5275],[-9.29676,-9.01834]],[[969.02886,333.01543],[0.79686,-0.25052],[0,0]]],&quot;closed&quot;:true,&quot;fillColor&quot;:[0,0,0,1]}]}" fill="#110e00" stroke-width="0.5"/><path d="M497.14715,192.26126c-0.39843,5.76172 -0.25336,6.51837 0.67631,3.51226c0.92967,-3.00611 1.08051,-2.48834 0.68208,3.14811c-0.39843,5.13544 -0.36201,6.27103 0.70047,4.39221c0.92967,-2.00408 1.15802,-1.70657 0.62677,1.67531c-0.39843,2.50509 -0.21316,3.81579 0.5837,3.31477c1.59373,-0.87678 1.65382,0.20946 0.59134,5.59541c-0.66405,3.00611 -1.60989,3.88793 -4.00049,3.88793c-2.52341,0 -3.33689,-1.00193 -4.53219,-5.38584c-0.79686,-2.88086 -1.88965,-6.15183 -2.28808,-7.15386c-1.46092,-3.63237 -4.1013,-18.24462 -3.43725,-19.24665c0.26562,-0.50101 2.93931,-0.88114 5.86116,-0.88114l5.19562,0.00086z" data-paper-data="{&quot;noHover&quot;:false,&quot;origItem&quot;:[&quot;Path&quot;,{&quot;applyMatrix&quot;:true,&quot;segments&quot;:[[477.92113,179.93872],[[473.14082,179.93872],[0,0],[-2.69659,0]],[[467.74765,180.79672],[0.24514,-0.49028],[-0.61286,0.98057]],[[470.93452,199.55023],[-1.34829,-3.55458],[0.36771,0.98057]],[[473.01824,206.53684],[-0.73543,-2.81916],[1.10315,4.29002]],[[477.18569,211.80744],[-2.32887,0],[2.2063,0]],[[480.86285,208.0077],[-0.61286,2.94173],[0.98057,-5.2706]],[[480.37256,202.61453],[1.47086,-0.858],[-0.73543,0.49029]],[[479.7597,199.30509],[-0.36771,2.45144],[0.49029,-3.30945]],[[479.26941,197.71166],[0.858,-1.96116],[-0.98057,1.83858]],[[478.53398,193.42164],[-0.36771,5.02545],[0.36771,-5.51574]],[[477.92112,190.35734],[0.858,-2.94173],[-0.858,2.94173]],[[477.30826,186.92532],[-0.36771,5.63832],[0,0]]],&quot;closed&quot;:true,&quot;fillColor&quot;:[0,0,0,1]}]}" fill="#110e00" stroke-width="0.5"/><path d="M492.80288,177.02878c3.85152,4.1334 2.86934,5.06158 -4.70088,4.68582l-7.21952,-0.52516l2.64903,-4.92137c2.78903,-5.38595 3.95892,-5.25149 9.27135,0.76072z" data-paper-data="{&quot;noHover&quot;:false,&quot;origItem&quot;:[&quot;Path&quot;,{&quot;applyMatrix&quot;:true,&quot;segments&quot;:[[[464.80593,171.2361],[2.57401,-5.2706],[0,0]],[462.35449,176.01641],[[468.97337,176.5067],[0,0],[6.9866,0.36772]],[[473.2634,171.97153],[3.55459,4.04488],[-4.90288,-5.88345]]],&quot;closed&quot;:true,&quot;fillColor&quot;:[0,0,0,1]}]}" fill="#110e00" stroke-width="0.5"/><path d="M485.86949,192.10398c0,2.37984 1.31027,7.42058 5.42741,22.07537c1.1953,4.13339 1.83866,4.76013 5.29174,4.76013c2.78903,0 4.23119,-0.74393 5.16086,-2.87326c1.06248,-2.50509 1.25665,-2.29561 1.25665,1.33677c0.13281,4.00814 -0.01881,4.14128 -5.59687,4.14128l-5.72727,0.00115l-4.29813,-16.07052c-4.51557,-16.90937 -5.15131,-21.2268 -2.89353,-17.84493c0.66405,1.00203 1.37913,3.09621 1.37913,4.47401z" data-paper-data="{&quot;noHover&quot;:false,&quot;origItem&quot;:[&quot;Path&quot;,{&quot;applyMatrix&quot;:true,&quot;segments&quot;:[[[931.3279,364.78031],[1.22572,1.96115],[-4.16745,-6.61889]],[[936.72106,399.59076],[-8.3349,-33.09444],[0,0]],[944.56567,430.9692],[[955.10687,430.9692],[0,0],[10.29605,0]],[[965.40292,422.87944],[0.24514,7.84461],[0,-7.10918]],[[963.19662,420.428],[1.96115,-4.90288],[-1.71601,4.16745]],[[953.636,426.06632],[5.14802,0],[-6.37374,0]],[[943.83024,416.75084],[2.2063,8.08975],[-7.59946,-28.68185]],[[933.77934,373.36035],[0,4.65774],[0,-2.69658]]],&quot;closed&quot;:true,&quot;fillColor&quot;:[0.9098,0.51765,0.07451]}]}" fill="#110e00" stroke-width="0.5"/><path d="M44.64479,165.75618c10.49206,0.50102 26.82779,3.38187 26.82779,4.63441c0,0.62627 -0.53125,0.75153 -1.32811,0.37577c-0.66405,-0.37577 -0.92968,0 -0.53125,1.12729c0.39844,1.12729 -0.66405,2.63035 -2.65622,3.88289c-4.38276,2.7556 -4.38276,3.38187 0.53125,8.64257c2.92183,3.13136 4.24995,6.01222 4.91401,10.64664c0.66405,5.76172 0.53125,6.38798 -1.85935,6.38798c-1.32811,0 -3.18746,0.62627 -3.85152,1.25255c-2.25779,2.12932 -9.56239,-1.12729 -12.35142,-5.5112c-1.46092,-2.12932 -4.11713,-5.26069 -5.84368,-6.76375l-3.32027,-2.88086l-5.71086,2.50509c-3.05465,1.50306 -6.10931,2.63034 -6.50773,2.63034c-1.06249,0 -0.39843,-21.04277 0.66405,-22.54582c0.39843,-0.62627 7.43741,-0.87679 15.67169,-0.62627c13.01547,0.50102 14.07796,0.37577 8.23428,-0.75153c-3.58589,-0.75153 -9.82801,-1.3778 -13.54672,-1.25255c-3.85152,0 -7.03898,-0.37576 -7.03898,-1.00203c0,-0.62627 3.45309,-1.00204 7.70303,-0.75153zM42.78543,171.5179c-2.25779,-0.62627 -4.64838,-0.75153 -5.44524,-0.25051c-1.46092,1.00203 -3.85152,12.4002 -3.32027,16.03259c0.39843,2.50509 0.79686,2.63034 3.98433,1.3778c1.99216,-0.87678 4.51557,-2.25459 5.71087,-3.13136c2.25779,-1.75357 2.52341,-1.50306 11.55454,9.39409c4.78119,5.63646 9.42957,6.889 13.94514,3.63238c1.99216,-1.3778 1.46092,-2.37984 -5.04682,-9.89511l-7.17179,-8.39206l4.78119,-3.38187c4.11713,-2.88085 4.38275,-3.50713 2.39059,-4.50916c-1.1953,-0.75153 -5.57806,-0.87679 -9.6952,-0.50102c-4.11713,0.50102 -9.42957,0.37577 -11.68736,-0.37577zM62.83987,180.91199c-0.79686,-1.25255 -1.72653,-1.75356 -2.25779,-1.3778c-0.53125,0.50102 1.1953,3.38187 3.85152,6.51323c2.65622,3.00611 5.04681,5.13544 5.44524,4.88492c0.26562,-0.37577 -0.79686,-2.25458 -2.5234,-4.25865c-1.72653,-2.00407 -3.85152,-4.63443 -4.51557,-5.76172z" fill="#110e00" stroke-width="1"/><path d="M54.48152,171.84324c4.11713,-0.37577 8.52648,-0.23884 9.72177,0.51269c1.99216,1.00203 1.6521,1.7024 -2.46504,4.58326l-4.70669,3.30783l7.18877,8.44388c6.50773,7.51527 7.02891,8.53612 5.03675,9.91391c-4.51557,3.25662 -9.18962,2.02078 -13.97081,-3.61568c-9.03114,-10.89715 -9.25922,-11.19562 -11.51701,-9.44205c-1.1953,0.87678 -3.72005,2.24256 -5.71222,3.11934c-3.18746,1.25255 -3.69265,1.14356 -4.09108,-1.36153c-0.53125,-3.63238 1.87561,-15.0722 3.33652,-16.07423c0.79686,-0.50102 3.19654,-0.38244 5.45433,0.24383c2.25779,0.75153 7.60754,0.86976 11.72468,0.36875z" data-paper-data="{&quot;noHover&quot;:false,&quot;origItem&quot;:[&quot;Path&quot;,{&quot;applyMatrix&quot;:true,&quot;segments&quot;:[[[115.97885,333.15673],[4.16745,1.47086],[-4.16745,-1.22572]],[[105.92794,332.66644],[1.47086,-0.98058],[-2.69658,1.96115]],[[99.79934,364.04488],[-0.98058,-7.10918],[0.73543,4.90288]],[[107.15366,366.74146],[-5.88346,2.45144],[3.67716,-1.71601]],[[117.69486,360.61286],[-2.2063,1.71601],[4.16745,-3.43202]],[[139.02239,378.99866],[-16.66979,-21.32753],[8.82519,11.03148]],[[164.76251,386.10784],[-8.3349,6.37374],[3.67716,-2.69658]],[[155.44704,366.74146],[12.01206,14.70864],[0,0]],[142.20926,350.31681],[[151.03445,343.69792],[0,0],[7.59946,-5.63831]],[[155.44704,334.87274],[3.67716,1.96115],[-2.2063,-1.47086]],[[137.55152,333.89216],[7.59946,-0.73543],[-7.59946,0.98058]]],&quot;closed&quot;:true,&quot;fillColor&quot;:[0.9098,0.51765,0.07451]}]}" fill="#110e00" stroke-width="0.5"/><path d="M67.3991,186.70395c1.72653,2.00407 2.77833,3.89319 2.51271,4.26895c-0.39844,0.25052 -2.85681,-1.8802 -5.51303,-4.88632c-2.65622,-3.13136 -4.38105,-6.09183 -3.84981,-6.59285c0.53125,-0.37577 1.46896,0.12042 2.26582,1.37296c0.66405,1.12729 2.85775,3.83318 4.5843,5.83726z" data-paper-data="{&quot;noHover&quot;:false,&quot;origItem&quot;:[&quot;Path&quot;,{&quot;applyMatrix&quot;:true,&quot;segments&quot;:[[[152.9956,351.54253],[1.22572,2.2063],[-1.47086,-2.45144]],[[148.82815,348.84595],[0.98058,-0.73543],[-0.98058,0.98058]],[[155.93733,361.59344],[-4.90288,-6.1286],[4.90288,5.88346]],[[165.98823,371.15405],[-0.73543,0.49029],[0.49029,-0.73543]],[[161.3305,362.81916],[3.18687,3.9223],[-3.18687,-3.9223]]],&quot;closed&quot;:true,&quot;fillColor&quot;:[0.9098,0.51765,0.07451]}]}" fill="#110e00" stroke-width="0.5"/><path d="M37.87143,173.1462c0.26563,0.25052 0.13281,3.13137 -0.26563,6.38799c-0.53125,3.13136 -1.1953,5.51119 -1.59373,5.13544c-0.26563,-0.25052 -0.13281,-3.13136 0.26563,-6.38798c0.53125,-3.13136 1.1953,-5.5112 1.59373,-5.13545z" fill="#110e00" stroke-width="1"/><path d="M57.92588,255.68897c2.39059,1.50306 2.12497,15.28105 -0.39844,17.53564c-1.06249,1.00203 -5.04682,2.25459 -8.89832,2.75561c-3.85152,0.37576 -8.63271,1.00204 -10.49206,1.3778l-3.45309,0.62627l0.53125,11.52343c0.26563,6.38798 1.06249,15.03055 1.59374,19.28921l1.06248,7.89103h-4.914c-3.98433,0 -9.29676,0.75153 -21.64818,2.88086c-0.66405,0.12525 -1.1953,-9.51934 -1.32811,-21.41853l-0.13281,-21.54378h-3.85152c-2.12497,0 -7.17179,0.87678 -11.15612,2.00407c-3.98433,1.12729 -7.43741,1.75357 -7.83584,1.50306c-0.26562,-0.37576 -0.92967,-4.75967 -1.32811,-9.89511l-0.92967,-9.26884l6.24211,-1.62831c3.32027,-0.75153 11.0233,-1.50305 17.1326,-1.50305c5.97649,-0.12525 14.742,-0.75153 19.5232,-1.62831c9.82801,-1.75357 27.75747,-2.00407 30.28088,-0.50102zM56.86338,256.56576l-10.8905,0.25051c-18.46071,0.62627 -23.10909,1.87882 -7.57022,2.12933c15.27325,0.12525 17.66384,1.12729 16.86699,6.6385c-0.39844,2.50509 -1.85935,3.25662 -11.28892,5.38595c-14.47639,3.25662 -14.87481,5.76171 -0.66405,3.63238c5.57805,-0.87678 11.0233,-1.62831 11.95298,-1.62831c1.06249,-0.12525 1.59374,-2.63034 1.59374,-8.2668zM33.8871,285.6248c-0.39843,-1.12729 -0.66405,-0.12525 -0.66405,2.25459c0,2.37984 0.26563,3.38188 0.66405,2.12933c0.26563,-1.12729 0.26563,-3.13136 0,-4.38391zM11.70769,314.93439c0,2.50509 0.53125,3.13136 2.12497,2.50509c1.1953,-0.37576 3.32027,-0.75153 4.91401,-0.87678h2.92183l-2.78904,-1.12729c-1.59374,-0.62627 -3.32026,-1.62831 -3.85151,-2.37984c-1.59373,-2.50509 -3.32027,-1.3778 -3.32027,1.87882z" fill="#110e00" stroke-width="1"/><path d="M-0.90935,264.20628c2.25779,-0.12525 2.25779,0.12525 0.66405,1.12729c-1.06248,0.62627 -3.45308,1.12729 -5.31243,1.12729c-3.05465,0 -3.05464,-0.12525 -0.66405,-1.12729c1.46092,-0.62627 3.85152,-1.12729 5.31243,-1.12729z" fill="#e88413" stroke-width="1"/><path d="M168.55734,295.26939c1.46092,1.6283 2.25778,3.25663 1.85934,3.63238c-0.79686,0.87678 -4.51556,-3.63238 -4.51556,-5.38595c0,-0.75153 1.1953,0.12525 2.65622,1.75357z" fill="#110e00" stroke-width="1"/><path d="M380.78914,300.40486c3.85152,0 14.21076,5.5112 18.99196,10.02037c3.18746,3.13136 9.96082,9.14359 15.00763,13.40224c5.04682,4.38391 8.4999,7.89103 7.43742,7.89103c-0.92967,0 -4.51558,-2.63034 -7.96866,-5.76171c-3.32027,-3.25662 -8.23427,-7.26477 -10.75768,-9.14359c-2.52341,-1.75357 -5.71087,-4.50916 -7.03898,-6.13748c-1.46092,-1.50306 -5.31243,-4.1334 -8.76552,-5.76171l-6.1093,-3.00611l-5.31243,4.25866c-2.92185,2.25459 -4.78119,4.25866 -4.11713,4.25866c0.53125,0 2.78903,-1.3778 5.04682,-3.13136c2.12497,-1.75357 4.38275,-3.13136 4.78119,-3.13136c2.3906,0 32.14024,24.67516 32.14024,26.67923c0,0.50102 -2.92185,-1.37781 -6.64054,-4.38392c-3.58589,-3.00611 -6.64054,-6.13748 -6.64054,-7.01425c0,-0.75153 -0.79686,-1.50306 -1.59374,-1.50306c-0.92967,0 -5.17963,-2.75561 -9.56238,-6.13748l-7.70303,-6.13747l-7.17178,5.13544c-3.98433,2.75561 -7.17179,5.76171 -7.17179,6.63849c0,2.12933 7.57023,12.65072 9.6952,13.40224c0.79686,0.37576 0.39844,0.75153 -1.19529,0.75153c-1.72653,0.12525 -6.37493,-3.0061 -11.68736,-7.51527l-8.76552,-7.64054l4.51556,-2.88085c2.52341,-1.6283 5.57806,-3.25663 6.90617,-3.63238c1.46092,-0.50102 4.78119,-2.7556 7.70303,-5.13544c2.78903,-2.37984 5.44524,-4.38391 5.97649,-4.38391zM370.82832,310.42521c-0.92967,0 -9.42957,4.38391 -10.89049,5.63646c-0.26562,0.25051 2.25778,3.13136 5.57805,6.51323c3.32027,3.25662 6.1093,5.38595 6.1093,4.63443c0,-0.87678 -0.92967,-2.12933 -2.12497,-3.00611c-4.64838,-3.75764 -4.91401,-6.26273 -1.06249,-10.14562c1.99216,-2.00407 3.18746,-3.63238 2.3906,-3.63238z" fill="#110e00" stroke-width="1"/><path d="M370.85396,310.3823c0.79686,0 -0.39993,1.62745 -2.39209,3.63152c-3.85152,3.88289 -3.5813,6.47269 1.06708,10.23033c1.1953,0.87678 2.12502,2.1293 2.12502,3.00608c0,0.75152 -2.82128,-1.36882 -6.14155,-4.62544c-3.32027,-3.38187 -5.88518,-6.33443 -5.61956,-6.58494c1.46092,-1.25255 10.03144,-5.65756 10.96111,-5.65756z" data-paper-data="{&quot;noHover&quot;:false,&quot;origItem&quot;:[&quot;Path&quot;,{&quot;applyMatrix&quot;:true,&quot;segments&quot;:[[[741.65664,620.85041],[0,0],[-1.85934,0]],[[719.87566,632.12333],[2.92184,-2.5051],[-0.53124,0.50102]],[[731.03176,645.14979],[-6.64054,-6.76374],[6.64054,6.51324]],[[743.25036,654.41865],[0,1.50304],[0,-1.75356]],[[739.00042,648.40643],[2.3906,1.75356],[-9.29676,-7.51528]],[[736.87544,628.11519],[-7.70304,7.76578],[3.98432,-4.00814]],[[741.65664,620.85043],[1.59372,0],[0,0]]],&quot;closed&quot;:true,&quot;fillColor&quot;:[0,0,0,1]}]}" fill="#110e00" stroke-width="0.5"/><path d="M499.92049,307.54438c1.06248,0.37576 1.85935,1.12728 1.85935,1.6283c0,0.50102 1.72655,2.7556 3.85152,4.88493c2.25779,2.25459 3.05465,3.88289 2.12497,3.88289c-1.06248,0 -3.58589,-2.50509 -5.84368,-5.5112c-2.12497,-3.13136 -3.05465,-5.26069 -1.99216,-4.88492z" fill="#ffd000" stroke-width="1"/><path d="M514.5297,320.19507c2.78903,1.3778 6.77335,5.2607 5.44524,5.2607c-0.39843,0 -2.52341,-1.50305 -4.51556,-3.25662c-2.65622,-2.37984 -2.92183,-3.00611 -0.92967,-2.00408z" fill="#ffd000" stroke-width="1"/></g></g></g></svg>
