<svg xmlns="http://www.w3.org/2000/svg" width="600" height="300"><g stroke-miterlimit="10" data-paper-data="{&quot;isPaintingLayer&quot;:true}" style="mix-blend-mode:normal"><path fill="#696969" d="M0 299.167V0h600v299.167z"/><g stroke="#000" stroke-width="5"><path fill="#2d4c00" d="M133.724 59.756c.215-.474.508-.923.902-1.34 1.834-1.936 6.002-.872 9.037-1.07 8.428-.551 17.23.014 25.685-.016 8.774-.032 18.314.637 27.026-.155s17.819-3.155 26.374-4.7c17.582-3.176 35.13-6.448 52.62-9.93.697-.139 17.978-3.589 18.355-3.626 14.775-1.488 31.028-.028 45.933-.028 15.002 0 30 .08 45.002.181.694.005 18.54.118 18.899.155.358.037 17.655 3.535 18.328 3.67 5.93 1.197 11.876 2.343 17.79 3.59 3.403.718 7.193.754 10.185 2.232 1.719.848 12.679 11.805 13.83 12.933.499 15.631 6.097 30.997 5.92 46.772-.083 7.315-2.24 14.671-2.746 21.977-.49 7.083-.137 14.292-.209 21.386-.1 9.826-1.08 19.591-1.891 29.394-.066.79-1.203 14.81-1.33 15.219-.127.41-7.311 13.24-7.715 13.964-6.352 11.308-17.199 26.185-31.711 32.059-2.918 1.18-6.392 1.158-9.502 1.972-5.235 1.37-9.93 3.893-15.2 5.179-1.131.276-16.768 2.516-18.278 2.81-8.922 1.736-17.584 4.917-26.602 6.3-20.479 3.139-42.322 2.05-63.048 2.05-21.7-.07-42.63-1.15-64.123-3.679-.736-.087-18.358-2.152-18.732-2.236-.4-.09-16.687-5.665-17.407-5.908-8.17-2.758-18.549-4.829-24.823-10.174-5.475-4.665-3.3-7.321-4.737-12.97-3.049-11.986-7.534-23.645-9.83-35.819-4.927-26.156-7.913-52.524-12.834-78.654-3.052-16.205-8.506-31.531-8.506-47.988 0 0 0-2.955 3.338-3.55z"/><path fill="#5a9700" d="M146.324 75.106a.855.855 0 0 1 .121-.227c.247-.327.809-.147 1.217-.18 1.135-.094 2.32.002 3.458-.004 1.182-.005 2.466.108 3.64-.026 1.172-.133 2.398-.533 3.55-.794 2.368-.537 4.73-1.09 7.085-1.679.094-.023 2.42-.607 2.471-.613 1.99-.252 4.178-.005 6.185-.005 2.02 0 4.04.014 6.059.03.093.002 2.496.02 2.544.027.049.006 2.378.598 2.468.62.799.203 1.6.397 2.395.608.459.12.969.127 1.372.377.231.143 1.707 1.996 1.862 2.186.067 2.643.82 5.24.797 7.907-.011 1.237-.302 2.48-.37 3.716-.066 1.197-.018 2.416-.028 3.615-.013 1.662-.145 3.313-.255 4.97-.008.133-.162 2.503-.179 2.573-.017.069-.984 2.238-1.038 2.36-.856 1.912-2.316 4.427-4.27 5.42-.393.2-.86.196-1.28.334-.704.231-1.336.658-2.046.875-.152.047-2.258.426-2.46.475-1.202.294-2.368.832-3.583 1.065-2.757.531-5.698.347-8.488.347-2.922-.012-5.74-.194-8.634-.622-.1-.015-2.472-.364-2.522-.378-.054-.015-2.247-.958-2.344-.999-1.1-.466-2.497-.816-3.342-1.72-.737-.788-.444-1.238-.638-2.192-.41-2.027-1.014-3.998-1.323-6.056-.664-4.422-1.066-8.88-1.728-13.297-.411-2.74-1.145-5.33-1.145-8.113 0 0 0-.5.449-.6zm53.54-1.362a.855.855 0 0 1 .122-.227c.247-.327.808-.147 1.217-.18 1.134-.094 2.32.002 3.458-.003 1.181-.006 2.466.107 3.639-.026 1.173-.134 2.399-.534 3.55-.795 2.368-.537 4.73-1.09 7.085-1.679.094-.023 2.421-.607 2.472-.613 1.99-.251 4.177-.005 6.184-.005 2.02 0 4.04.014 6.06.031.093 0 2.496.02 2.544.026.048.006 2.377.598 2.468.62.798.203 1.599.397 2.395.608.458.121.968.127 1.371.377.232.143 1.707 1.996 1.862 2.186.068 2.643.821 5.24.797 7.908-.01 1.236-.301 2.48-.37 3.715-.065 1.198-.018 2.416-.027 3.616-.014 1.66-.146 3.312-.255 4.969-.009.133-.162 2.504-.18 2.573-.016.069-.983 2.238-1.038 2.36-.855 1.912-2.316 4.427-4.27 5.42-.392.2-.86.196-1.279.334-.705.231-1.337.658-2.046.875-.153.047-2.258.426-2.461.475-1.202.294-2.368.832-3.582 1.065-2.757.531-5.698.347-8.489.347-2.921-.012-5.74-.194-8.633-.622-.1-.014-2.472-.364-2.523-.378-.053-.015-2.246-.958-2.343-.999-1.1-.466-2.498-.816-3.342-1.72-.738-.788-.445-1.237-.638-2.192-.41-2.027-1.015-3.998-1.324-6.056-.663-4.422-1.065-8.88-1.728-13.297-.41-2.74-1.145-5.33-1.145-8.113 0 0 0-.5.45-.6zm58.72-2.398a.855.855 0 0 1 .122-.227c.247-.327.808-.147 1.217-.18 1.134-.094 2.32.002 3.458-.003 1.181-.006 2.466.108 3.639-.026 1.173-.134 2.399-.534 3.55-.795 2.368-.537 4.73-1.09 7.086-1.679.093-.023 2.42-.606 2.47-.613 1.99-.251 4.178-.004 6.185-.004 2.02 0 4.04.013 6.06.03.093.001 2.496.02 2.544.026.048.007 2.377.598 2.468.62.798.203 1.599.397 2.395.608.458.121.968.127 1.371.377.232.143 1.707 1.996 1.862 2.186.068 2.643.821 5.24.797 7.908-.01 1.236-.301 2.48-.37 3.715-.065 1.198-.018 2.416-.027 3.616-.014 1.66-.146 3.312-.255 4.969-.009.134-.162 2.504-.18 2.573-.016.07-.983 2.238-1.038 2.36-.855 1.912-2.315 4.428-4.27 5.42-.392.2-.86.196-1.279.334-.705.232-1.337.658-2.046.875-.153.047-2.258.426-2.461.476-1.202.293-2.368.83-3.582 1.065-2.757.53-5.698.346-8.489.346-2.921-.012-5.74-.194-8.633-.622-.1-.014-2.472-.363-2.523-.378-.053-.015-2.246-.958-2.343-.999-1.1-.466-2.498-.816-3.342-1.72-.738-.788-.445-1.237-.638-2.192-.41-2.027-1.015-3.998-1.324-6.056-.663-4.422-1.065-8.88-1.728-13.297-.41-2.74-1.145-5.33-1.145-8.113 0 0 0-.5.45-.6zM160.5 124.503a.854.854 0 0 1 .122-.227c.247-.327.808-.147 1.217-.18 1.134-.094 2.32.002 3.458-.003 1.181-.006 2.466.107 3.639-.027 1.173-.133 2.399-.533 3.55-.794 2.368-.537 4.73-1.09 7.086-1.679.093-.023 2.42-.607 2.47-.613 1.99-.252 4.178-.005 6.185-.005 2.02 0 4.04.014 6.06.03.093.002 2.496.02 2.544.027.048.006 2.377.598 2.468.62.798.203 1.599.397 2.395.608.458.12.968.127 1.371.377.232.143 1.707 1.996 1.862 2.186.068 2.643.821 5.24.797 7.907-.01 1.237-.301 2.48-.37 3.716-.065 1.197-.018 2.416-.027 3.616-.014 1.66-.146 3.312-.255 4.969-.009.133-.162 2.503-.18 2.573-.016.069-.983 2.238-1.038 2.36-.855 1.912-2.315 4.427-4.27 5.42-.392.2-.86.196-1.279.334-.705.231-1.337.658-2.046.875-.153.047-2.258.426-2.461.475-1.202.294-2.368.832-3.582 1.065-2.757.531-5.698.347-8.489.347-2.921-.012-5.74-.194-8.633-.622-.1-.015-2.472-.364-2.523-.378-.053-.015-2.246-.958-2.343-.999-1.1-.466-2.498-.816-3.342-1.72-.738-.788-.445-1.238-.638-2.192-.41-2.027-1.015-3.998-1.324-6.056-.663-4.422-1.065-8.88-1.728-13.297-.41-2.74-1.145-5.33-1.145-8.113 0 0 0-.5.45-.6zm53.541-1.363a.855.855 0 0 1 .121-.226c.247-.327.809-.147 1.217-.18 1.135-.094 2.32.002 3.458-.003 1.182-.006 2.466.108 3.64-.026 1.172-.134 2.398-.534 3.55-.795 2.368-.537 4.73-1.09 7.085-1.679.094-.023 2.42-.606 2.471-.613 1.99-.251 4.178-.005 6.185-.005 2.02 0 4.04.014 6.059.031.093 0 2.496.02 2.544.026.049.006 2.378.598 2.468.62.799.203 1.6.397 2.395.608.459.121.969.127 1.372.377.231.143 1.707 1.996 1.862 2.186.067 2.643.82 5.24.797 7.908-.011 1.236-.302 2.48-.37 3.715-.066 1.198-.018 2.416-.028 3.616-.013 1.66-.145 3.312-.255 4.969-.008.133-.161 2.504-.179 2.573-.017.069-.984 2.238-1.038 2.36-.856 1.912-2.316 4.428-4.27 5.42-.393.2-.86.196-1.28.334-.704.232-1.336.658-2.046.875-.152.047-2.257.426-2.46.476-1.202.293-2.368.83-3.582 1.064-2.758.531-5.699.347-8.49.347-2.921-.012-5.74-.194-8.633-.622a298.41 298.41 0 0 1-2.522-.378c-.054-.015-2.247-.958-2.344-.999-1.1-.466-2.497-.816-3.342-1.72-.737-.788-.444-1.237-.638-2.192-.41-2.027-1.014-3.998-1.323-6.056-.664-4.422-1.066-8.88-1.728-13.297-.411-2.74-1.145-5.33-1.145-8.113 0 0 0-.5.449-.6zm58.72-2.397a.855.855 0 0 1 .122-.227c.246-.327.808-.147 1.216-.18 1.135-.094 2.32.002 3.458-.003 1.182-.006 2.466.108 3.64-.026 1.172-.134 2.398-.534 3.55-.795 2.368-.537 4.73-1.09 7.085-1.679.094-.023 2.42-.606 2.471-.613 1.99-.251 4.178-.004 6.185-.004 2.02 0 4.04.013 6.059.03.093.001 2.496.02 2.545.026.048.007 2.377.598 2.467.621.799.202 1.6.396 2.395.607.459.121.969.127 1.372.377.231.144 1.707 1.996 1.862 2.186.067 2.643.82 5.24.797 7.908-.011 1.236-.302 2.48-.37 3.715-.066 1.198-.018 2.416-.028 3.616-.013 1.66-.145 3.312-.255 4.97-.008.133-.161 2.503-.179 2.572-.017.07-.984 2.238-1.038 2.36-.856 1.913-2.316 4.428-4.27 5.42-.393.2-.86.196-1.28.334-.704.232-1.336.658-2.046.876-.152.046-2.257.425-2.46.475-1.202.293-2.368.831-3.582 1.065-2.758.53-5.699.346-8.49.346-2.92-.012-5.74-.194-8.633-.622-.099-.014-2.472-.363-2.522-.378-.054-.015-2.247-.957-2.344-.998-1.1-.467-2.497-.817-3.342-1.72-.737-.79-.444-1.238-.638-2.193-.41-2.027-1.014-3.998-1.323-6.056-.664-4.422-1.066-8.88-1.728-13.297-.411-2.74-1.145-5.33-1.145-8.113 0 0 0-.5.449-.6zm-98.084 58.337a.854.854 0 0 1 .122-.227c.246-.328.808-.148 1.216-.181 1.135-.093 2.32.002 3.458-.003 1.182-.005 2.466.108 3.64-.026 1.172-.134 2.398-.534 3.55-.795 2.368-.537 4.73-1.09 7.085-1.679.094-.023 2.42-.606 2.471-.613 1.99-.251 4.178-.004 6.185-.004 2.02 0 4.04.013 6.059.03.093.001 2.496.02 2.545.026.048.007 2.377.598 2.467.621.799.202 1.6.396 2.395.607.459.121.969.127 1.372.377.231.144 1.707 1.996 1.862 2.187.067 2.642.82 5.24.797 7.907-.011 1.237-.302 2.48-.37 3.715-.066 1.198-.018 2.417-.028 3.616-.013 1.661-.145 3.312-.254 4.97-.01.133-.162 2.503-.18 2.572-.017.07-.984 2.238-1.038 2.36-.856 1.913-2.316 4.428-4.27 5.42-.393.2-.86.197-1.28.334-.704.232-1.336.658-2.046.876-.152.046-2.257.425-2.46.475-1.202.293-2.368.831-3.582 1.065-2.758.53-5.699.346-8.49.346-2.92-.011-5.74-.194-8.633-.622-.099-.014-2.472-.363-2.522-.378-.054-.015-2.247-.957-2.344-.998-1.1-.467-2.497-.817-3.342-1.72-.737-.789-.444-1.238-.638-2.193-.41-2.026-1.014-3.998-1.323-6.056-.664-4.422-1.066-8.88-1.728-13.297-.411-2.74-1.145-5.33-1.145-8.113 0 0 0-.5.45-.6zm53.541-1.363a.855.855 0 0 1 .121-.226c.247-.328.808-.148 1.217-.181 1.134-.093 2.32.002 3.458-.003 1.181-.005 2.466.108 3.639-.026 1.173-.134 2.399-.533 3.55-.795 2.368-.536 4.73-1.09 7.086-1.678.093-.024 2.42-.607 2.471-.613 1.99-.252 4.178-.005 6.184-.005 2.02 0 4.04.013 6.06.03.093.001 2.496.02 2.544.027.048.006 2.377.597 2.468.62.798.203 1.599.396 2.395.607.458.121.968.127 1.371.377.232.144 1.707 1.996 1.862 2.187.068 2.642.821 5.24.797 7.907-.01 1.237-.301 2.48-.37 3.716-.065 1.197-.018 2.416-.027 3.615-.014 1.661-.146 3.312-.255 4.97-.009.133-.162 2.503-.179 2.572-.017.07-.984 2.239-1.039 2.361-.855 1.912-2.315 4.427-4.27 5.42-.392.2-.86.196-1.279.333-.705.232-1.337.658-2.046.876-.153.046-2.258.425-2.461.475-1.202.293-2.368.831-3.582 1.065-2.757.53-5.698.347-8.489.347-2.921-.012-5.74-.195-8.633-.622-.1-.015-2.472-.364-2.522-.378-.054-.016-2.247-.958-2.344-1-1.1-.465-2.498-.816-3.342-1.72-.737-.788-.445-1.237-.638-2.192-.41-2.026-1.015-3.997-1.324-6.055-.663-4.422-1.065-8.88-1.728-13.298-.41-2.74-1.145-5.33-1.145-8.112 0 0 0-.5.45-.6zm58.72-2.397a.855.855 0 0 1 .121-.227c.247-.327.808-.147 1.217-.181 1.134-.093 2.32.002 3.458-.003 1.181-.005 2.466.108 3.639-.026 1.173-.134 2.399-.533 3.55-.794 2.368-.537 4.73-1.09 7.086-1.68.093-.023 2.42-.606 2.471-.612 1.99-.252 4.178-.005 6.184-.005 2.02 0 4.04.013 6.06.03.093.001 2.496.02 2.544.027.048.006 2.377.597 2.468.62.798.203 1.599.396 2.395.607.458.122.969.128 1.371.377.232.144 1.707 1.996 1.862 2.187.068 2.643.821 5.24.797 7.907-.01 1.237-.301 2.48-.37 3.716-.065 1.197-.018 2.416-.027 3.615-.014 1.661-.146 3.312-.255 4.97-.009.133-.162 2.503-.179 2.572-.017.07-.984 2.239-1.039 2.361-.855 1.912-2.315 4.427-4.27 5.42-.392.2-.86.196-1.279.333-.705.232-1.337.659-2.046.876-.153.047-2.258.425-2.461.475-1.201.294-2.368.831-3.582 1.065-2.757.53-5.698.347-8.489.347-2.921-.012-5.74-.195-8.633-.622-.1-.015-2.472-.364-2.522-.378-.054-.015-2.247-.958-2.344-1-1.1-.465-2.498-.815-3.342-1.72-.737-.788-.445-1.237-.638-2.192-.41-2.026-1.015-3.997-1.324-6.055-.663-4.422-1.065-8.88-1.728-13.297-.41-2.74-1.145-5.331-1.145-8.113 0 0 0-.5.45-.6zm29.331-107.408a.855.855 0 0 1 .121-.226c.247-.328.808-.148 1.217-.181 1.135-.093 2.32.002 3.458-.003 1.181-.005 2.466.108 3.639-.026 1.173-.134 2.399-.533 3.55-.795a337.38 337.38 0 0 0 7.086-1.678c.094-.024 2.42-.607 2.471-.614 1.99-.251 4.178-.004 6.185-.004 2.02 0 4.039.013 6.059.03.093.001 2.496.02 2.544.027.048.006 2.377.597 2.468.62.798.202 1.599.396 2.395.607.458.121.969.127 1.372.377.23.144 1.707 1.996 1.861 2.187.068 2.642.821 5.24.798 7.907-.012 1.237-.302 2.48-.37 3.715-.066 1.198-.019 2.417-.028 3.616-.014 1.661-.146 3.312-.255 4.97-.009.133-.162 2.503-.179 2.572-.017.07-.984 2.239-1.039 2.36-.855 1.913-2.315 4.428-4.27 5.42-.392.2-.86.197-1.279.334-.704.232-1.337.658-2.046.876-.152.046-2.258.425-2.461.475-1.201.293-2.368.831-3.582 1.065-2.757.53-5.698.347-8.489.347-2.921-.012-5.74-.195-8.633-.622-.1-.015-2.472-.364-2.522-.378-.054-.016-2.247-.958-2.344-1-1.1-.465-2.497-.816-3.342-1.72-.737-.788-.445-1.237-.638-2.192-.41-2.026-1.014-3.997-1.324-6.055-.663-4.423-1.065-8.88-1.728-13.298-.41-2.74-1.145-5.33-1.145-8.113 0 0 0-.5.45-.6zm14.176 49.398a.855.855 0 0 1 .122-.227c.247-.328.808-.148 1.216-.181 1.135-.093 2.32.002 3.459-.003 1.18-.005 2.465.108 3.638-.026s2.4-.533 3.551-.795c2.368-.536 4.73-1.09 7.085-1.678.094-.024 2.42-.607 2.472-.613 1.989-.252 4.177-.005 6.184-.005 2.02 0 4.04.013 6.06.03.093.001 2.495.02 2.544.027.048.006 2.377.597 2.467.62.799.203 1.6.396 2.396.607.458.121.968.127 1.371.377.231.144 1.707 1.996 1.862 2.187.067 2.642.821 5.24.797 7.907-.011 1.237-.302 2.48-.37 3.716-.066 1.197-.018 2.416-.028 3.615-.013 1.661-.145 3.312-.254 4.97-.01.133-.162 2.503-.18 2.572-.016.07-.984 2.239-1.038 2.361-.855 1.912-2.316 4.427-4.27 5.42-.393.2-.86.196-1.279.333-.705.232-1.337.658-2.047.876-.152.046-2.257.425-2.46.475-1.202.293-2.368.831-3.582 1.065-2.758.53-5.699.347-8.49.347-2.92-.012-5.739-.195-8.633-.622-.099-.015-2.471-.364-2.522-.378-.054-.016-2.247-.958-2.343-1-1.1-.465-2.498-.816-3.343-1.72-.737-.788-.444-1.237-.638-2.192-.41-2.026-1.014-3.997-1.323-6.055-.663-4.422-1.065-8.88-1.728-13.298-.411-2.74-1.145-5.33-1.145-8.112 0 0 0-.5.45-.6zm14.177 54.576a.855.855 0 0 1 .121-.227c.247-.327.808-.147 1.217-.18 1.135-.094 2.32.002 3.458-.004 1.181-.005 2.466.108 3.639-.026 1.173-.133 2.4-.533 3.551-.794a331.16 331.16 0 0 0 7.085-1.679c.094-.023 2.42-.607 2.471-.613 1.99-.252 4.178-.005 6.185-.005 2.02 0 4.039.014 6.059.03.093.002 2.496.02 2.544.027.049.006 2.377.598 2.468.62.798.203 1.599.397 2.395.608.458.12.969.127 1.372.377.231.143 1.707 1.996 1.862 2.186.067 2.643.82 5.24.797 7.907-.011 1.237-.302 2.48-.37 3.716-.066 1.197-.018 2.416-.028 3.616-.013 1.66-.146 3.312-.255 4.969-.009.133-.162 2.503-.179 2.573-.017.069-.984 2.238-1.039 2.36-.855 1.912-2.315 4.427-4.27 5.42-.392.2-.86.196-1.278.334-.705.231-1.338.658-2.047.875-.152.047-2.258.426-2.461.475-1.201.294-2.367.832-3.582 1.065-2.757.531-5.698.347-8.489.347-2.921-.012-5.74-.194-8.633-.622-.1-.015-2.472-.364-2.522-.378-.054-.015-2.247-.958-2.344-.999-1.1-.466-2.497-.816-3.342-1.72-.737-.788-.445-1.238-.638-2.192-.41-2.027-1.014-3.998-1.324-6.056-.663-4.422-1.065-8.88-1.727-13.297-.411-2.74-1.146-5.33-1.146-8.113 0 0 0-.5.45-.6zm32.438-104.3a.855.855 0 0 1 .122-.226c.247-.328.808-.148 1.217-.181 1.134-.093 2.32.002 3.458-.003 1.181-.005 2.466.108 3.639-.026 1.173-.134 2.399-.533 3.55-.795 2.368-.536 4.73-1.09 7.086-1.678.093-.024 2.42-.607 2.47-.613 1.99-.252 4.178-.005 6.185-.005 2.02 0 4.04.013 6.06.03.093.001 2.496.02 2.544.027.048.006 2.377.597 2.468.62.798.203 1.599.396 2.395.607.458.122.968.127 1.371.377.232.144 1.707 1.996 1.862 2.187.068 2.642.821 5.24.797 7.907-.01 1.237-.301 2.48-.37 3.716-.065 1.197-.018 2.416-.027 3.615-.014 1.661-.146 3.312-.255 4.97-.009.133-.162 2.503-.18 2.572-.016.07-.983 2.239-1.038 2.361-.855 1.912-2.315 4.427-4.27 5.42-.392.2-.86.196-1.279.333-.705.232-1.337.658-2.046.876-.153.046-2.258.425-2.461.475-1.202.293-2.368.831-3.582 1.065-2.757.53-5.698.347-8.489.347-2.921-.012-5.74-.195-8.633-.622-.1-.015-2.472-.364-2.523-.378-.053-.016-2.246-.958-2.343-1-1.1-.465-2.498-.816-3.342-1.72-.738-.788-.445-1.237-.638-2.192-.41-2.026-1.015-3.997-1.324-6.055-.663-4.422-1.065-8.88-1.728-13.298-.41-2.74-1.145-5.33-1.145-8.112 0 0 0-.5.45-.6zm14.177 49.397a.855.855 0 0 1 .122-.226c.246-.328.808-.148 1.216-.181 1.135-.093 2.32.002 3.458-.003 1.182-.005 2.466.108 3.64-.026 1.172-.134 2.398-.533 3.55-.795 2.368-.536 4.73-1.09 7.085-1.678.094-.024 2.42-.607 2.471-.613 1.99-.252 4.178-.005 6.185-.005 2.02 0 4.04.013 6.059.03.093.001 2.496.02 2.545.027.048.006 2.377.597 2.467.62.799.203 1.6.396 2.395.607.459.122.969.127 1.372.377.231.144 1.707 1.996 1.862 2.187.067 2.642.82 5.24.797 7.907-.011 1.237-.302 2.48-.37 3.716-.066 1.197-.018 2.416-.028 3.615-.013 1.661-.145 3.312-.254 4.97-.01.133-.162 2.503-.18 2.572-.017.07-.984 2.239-1.038 2.361-.856 1.912-2.316 4.427-4.27 5.42-.393.2-.86.196-1.28.333-.704.232-1.336.658-2.046.876-.152.046-2.257.425-2.46.475-1.202.293-2.368.831-3.582 1.065-2.758.53-5.699.347-8.49.347-2.92-.012-5.74-.195-8.633-.622-.099-.015-2.472-.364-2.522-.378-.054-.016-2.247-.958-2.344-1-1.1-.465-2.497-.816-3.342-1.72-.737-.788-.444-1.237-.638-2.192-.41-2.026-1.014-3.997-1.323-6.055-.664-4.422-1.066-8.88-1.728-13.298-.411-2.74-1.145-5.33-1.145-8.112 0 0 0-.5.449-.6zm14.177 54.577a.855.855 0 0 1 .121-.227c.247-.327.808-.147 1.217-.18 1.134-.094 2.32.002 3.458-.003 1.181-.006 2.466.107 3.639-.026 1.173-.134 2.399-.534 3.55-.795 2.368-.537 4.73-1.09 7.086-1.679.093-.023 2.42-.607 2.471-.613 1.99-.252 4.178-.005 6.184-.005 2.02 0 4.04.014 6.06.031.093 0 2.496.02 2.544.026.048.006 2.377.598 2.468.62.798.203 1.599.397 2.395.608.458.121.969.127 1.371.377.232.143 1.708 1.996 1.862 2.186.068 2.643.821 5.24.798 7.908-.012 1.236-.302 2.48-.37 3.715-.066 1.198-.019 2.416-.028 3.616-.014 1.66-.146 3.312-.255 4.969-.009.133-.162 2.504-.179 2.573-.017.069-.984 2.238-1.039 2.36-.855 1.912-2.315 4.427-4.27 5.42-.392.2-.86.196-1.279.334-.705.231-1.337.658-2.046.875-.153.047-2.258.426-2.461.475-1.201.294-2.368.832-3.582 1.065-2.757.531-5.698.347-8.489.347-2.921-.012-5.74-.194-8.633-.622-.1-.015-2.472-.364-2.522-.378-.054-.015-2.247-.958-2.344-.999-1.1-.466-2.497-.816-3.342-1.72-.737-.788-.445-1.237-.638-2.192-.41-2.027-1.014-3.998-1.324-6.056-.663-4.422-1.065-8.88-1.728-13.297-.41-2.74-1.145-5.33-1.145-8.113 0 0 0-.5.45-.6zm-190.781 52.581c.118-.056.28-.109.497-.158 1.01-.23 3.305-.104 4.976-.127 4.64-.065 9.488.002 14.144-.002 4.83-.004 10.085.076 14.882-.018 4.797-.094 9.812-.374 14.523-.557a7369.64 7369.64 0 0 0 28.976-1.176c.384-.017 9.9-.425 10.108-.43 8.136-.176 17.086-.003 25.294-.003 8.26 0 16.52.01 24.78.021.383.001 10.21.014 10.407.019.198.004 9.723.419 10.093.435 3.266.141 6.54.277 9.796.425 1.875.085 3.961.089 5.61.264.945.1 6.98 1.398 7.614 1.532.275 1.852 3.358 3.672 3.26 5.54-.045.867-1.233 1.738-1.512 2.604-.27.839-.075 1.692-.115 2.533-.054 1.164-.595 2.32-1.041 3.481-.036.094-.662 1.755-.732 1.803-.07.049-4.026 1.569-4.249 1.654-3.498 1.34-9.47 3.102-17.462 3.798-1.607.14-3.52.137-5.232.233-2.883.163-5.469.461-8.37.614-.623.032-9.234.298-10.065.333-4.914.205-9.683.582-14.649.746-11.277.372-23.305.243-34.719.243a1420.305 1420.305 0 0 1-35.31-.436c-.405-.01-10.109-.255-10.315-.265-.22-.01-9.19-.671-9.585-.7-4.5-.326-10.215-.572-13.67-1.205-3.014-.552-1.817-.867-2.608-1.536-1.68-1.42-4.149-2.801-5.414-4.243-2.712-3.098-4.357-6.222-7.067-9.317-1.68-1.92-4.683-3.735-4.683-5.684 0 0 0-.35 1.838-.42z"/></g><g stroke="#000" stroke-width="2.5"><path fill="#2d4c00" d="M474.688 239.525a1.63 1.63 0 0 1-.168-.518c-.132-.89 1.018-1.776 1.597-2.623 1.609-2.352 3.591-4.572 5.343-6.823 1.818-2.336 3.982-4.73 5.586-7.208 1.603-2.478 2.872-5.388 4.242-7.982a1012.25 1012.25 0 0 0 8.318-16.038c.108-.214 2.79-5.521 2.859-5.63 2.68-4.232 6.452-8.243 9.555-12.201 3.123-3.983 6.266-7.95 9.417-11.911.145-.184 3.89-4.899 3.975-4.986.084-.088 4.614-3.952 4.79-4.103 1.553-1.325 3.095-2.665 4.657-3.976.9-.754 1.697-1.753 2.713-2.24.583-.28 5.774-.908 6.313-.98 4.254 3.122 9.5 4.835 13.651 8.166 1.926 1.545 3.43 3.65 5.264 5.304 1.78 1.605 3.767 3.012 5.635 4.508 2.589 2.072 4.977 4.366 7.411 6.622.196.181 3.682 3.402 3.764 3.52.083.12 1.994 4.699 2.102 4.956 1.68 4.041 3.372 10.019 1.91 15.095-.293 1.02-1.023 1.938-1.454 2.933-.726 1.675-1.034 3.448-1.79 5.114-.162.358-2.822 4.976-3.058 5.438-1.397 2.731-2.355 5.693-3.866 8.375-3.43 6.091-8.266 11.665-12.58 17.168-4.537 5.747-9.181 11.08-14.327 16.26-.176.177-4.393 4.426-4.493 4.508-.108.088-4.979 3.252-5.193 3.392-2.433 1.595-5.144 3.92-7.87 4.473-2.377.483-2.63-.648-4.429-1.442-3.817-1.686-7.847-2.922-11.557-4.847-7.971-4.137-15.594-8.834-23.556-12.967-4.939-2.563-10.143-4.306-14.513-7.732 0 0-.785-.615-.248-1.625z"/><path fill="#5a9700" d="M481.387 239.375a.288.288 0 0 1-.035-.08c-.035-.133.13-.245.205-.36.212-.32.484-.616.72-.919.244-.315.542-.632.75-.971.209-.34.358-.749.529-1.109.35-.74.695-1.483 1.029-2.23.013-.03.343-.77.351-.784.348-.58.869-1.11 1.287-1.643.42-.537.844-1.07 1.27-1.603.019-.024.524-.658.536-.67.012-.012.654-.507.678-.526.22-.17.438-.342.66-.51.128-.096.236-.23.386-.285.086-.032.885-.038.968-.04.716.533 1.562.874 2.266 1.435.326.26.595.597.91.872.303.267.637.508.953.76.439.35.85.728 1.267 1.102.033.03.63.564.646.583.014.02.389.728.41.767.33.626.694 1.537.55 2.262-.028.146-.127.27-.177.41-.086.235-.104.492-.194.725-.02.05-.357.688-.386.753-.172.38-.272.801-.463 1.172-.433.843-1.094 1.586-1.675 2.326a20.249 20.249 0 0 1-1.963 2.163c-.024.024-.61.581-.625.591-.015.011-.722.398-.753.415-.353.195-.737.493-1.153.53-.363.03-.42-.14-.715-.288-.623-.313-1.272-.563-1.883-.91-1.312-.744-2.58-1.565-3.89-2.309-.814-.461-1.654-.805-2.393-1.385 0 0-.133-.104-.066-.244zm10.785-14.5a.288.288 0 0 1-.035-.079c-.036-.134.129-.245.205-.36.212-.321.484-.616.72-.92.244-.314.541-.632.75-.971.209-.34.358-.748.528-1.108a118.596 118.596 0 0 0 1.381-3.015c.347-.58.869-1.11 1.286-1.643.42-.536.845-1.07 1.27-1.602.02-.025.525-.66.537-.67.011-.012.653-.507.678-.527.22-.17.438-.342.66-.51.128-.096.235-.23.386-.285.086-.032.885-.038.968-.04.715.533 1.562.874 2.265 1.435.326.26.596.597.91.872.304.267.637.508.954.76.438.35.85.728 1.266 1.102.034.03.631.565.646.583.015.02.39.728.41.768.33.625.694 1.536.551 2.262-.029.146-.127.27-.178.409-.085.235-.103.492-.193.726-.02.05-.357.688-.386.752-.173.38-.273.802-.463 1.173-.434.842-1.095 1.585-1.676 2.326a20.25 20.25 0 0 1-1.962 2.163c-.025.023-.611.58-.626.59-.015.012-.722.398-.753.415-.352.195-.736.493-1.152.53-.363.031-.421-.14-.715-.288-.624-.313-1.273-.563-1.884-.909-1.312-.744-2.58-1.566-3.89-2.31-.813-.46-1.654-.805-2.393-1.384 0 0-.132-.104-.065-.245zm11.588-16.09a.288.288 0 0 1-.035-.08c-.036-.133.129-.245.205-.36.211-.321.484-.616.72-.92.244-.314.541-.631.75-.97.208-.34.358-.749.528-1.11a118.507 118.507 0 0 0 1.38-3.014c.348-.58.87-1.11 1.287-1.643.42-.536.845-1.07 1.27-1.602.02-.025.525-.659.536-.67.012-.012.654-.507.679-.526.22-.17.438-.342.66-.51.127-.096.235-.23.385-.286.087-.031.886-.037.969-.039.715.533 1.562.873 2.265 1.435.326.26.596.596.91.871.304.267.637.508.954.76.438.35.849.729 1.266 1.103.034.03.631.564.646.583.015.019.39.727.41.767.33.625.694 1.537.55 2.262-.028.146-.126.27-.177.41-.085.235-.103.491-.193.725-.02.05-.357.688-.387.752-.172.38-.272.802-.463 1.173-.433.843-1.094 1.585-1.675 2.326a20.25 20.25 0 0 1-1.962 2.163c-.025.023-.611.58-.626.591-.015.011-.722.397-.753.414-.353.195-.736.494-1.152.53-.363.031-.421-.14-.715-.287-.624-.313-1.273-.563-1.884-.91-1.312-.744-2.58-1.565-3.89-2.309-.813-.461-1.654-.806-2.393-1.385 0 0-.132-.104-.065-.244zm-6.306 37.11a.288.288 0 0 1-.035-.08c-.035-.134.13-.245.206-.36.211-.321.483-.616.719-.92.244-.314.542-.632.75-.971.21-.34.358-.748.529-1.108.35-.74.695-1.483 1.029-2.231.013-.03.343-.769.352-.784.347-.58.868-1.11 1.286-1.643.42-.536.844-1.07 1.27-1.602.02-.025.524-.659.536-.67.012-.012.654-.507.679-.527.22-.17.438-.342.66-.51.127-.096.235-.23.385-.285.086-.031.885-.038.968-.039.716.532 1.563.873 2.266 1.435.326.26.596.596.91.871.304.267.637.508.954.76.438.35.849.728 1.266 1.102.034.03.631.565.646.584.015.019.39.727.41.767.33.625.694 1.536.55 2.262-.028.146-.126.27-.177.409-.085.235-.104.492-.194.726-.019.05-.357.688-.386.752-.172.38-.272.802-.463 1.173-.433.842-1.094 1.585-1.675 2.326a20.249 20.249 0 0 1-1.962 2.163c-.025.023-.612.58-.626.59-.015.012-.722.398-.753.415-.353.195-.737.493-1.152.53-.363.031-.422-.14-.715-.288-.624-.312-1.273-.562-1.884-.909-1.312-.744-2.58-1.566-3.89-2.31-.813-.46-1.654-.805-2.393-1.384 0 0-.133-.104-.066-.244zm10.785-14.5a.288.288 0 0 1-.035-.08c-.035-.133.13-.245.205-.36.212-.321.484-.616.72-.92.244-.314.542-.631.75-.97.209-.34.358-.749.528-1.109a115.192 115.192 0 0 0 1.381-3.014c.348-.581.869-1.11 1.287-1.644.42-.536.844-1.07 1.27-1.602.019-.025.524-.659.536-.67.012-.012.653-.507.678-.526.22-.17.438-.342.66-.51.128-.096.236-.23.386-.285.086-.032.885-.038.968-.04.716.533 1.562.873 2.265 1.435.327.26.596.596.91.871.304.267.638.508.954.76.438.35.85.729 1.267 1.103.033.03.63.564.646.583.014.019.389.727.41.767.33.625.693 1.537.55 2.262-.028.146-.127.27-.177.41-.086.235-.104.491-.194.725-.02.05-.357.688-.386.752-.172.38-.272.802-.463 1.173-.433.843-1.094 1.585-1.675 2.326a20.249 20.249 0 0 1-1.963 2.163c-.024.023-.611.58-.625.591-.016.011-.722.397-.753.414-.353.195-.737.494-1.153.53-.363.031-.421-.14-.715-.287-.623-.313-1.272-.563-1.883-.91-1.313-.744-2.58-1.565-3.89-2.309-.814-.461-1.655-.806-2.393-1.385 0 0-.133-.104-.066-.244zm11.588-16.091a.288.288 0 0 1-.035-.08c-.036-.133.13-.244.205-.36.212-.32.484-.615.72-.919.244-.314.541-.632.75-.971.209-.34.358-.748.528-1.109.35-.74.696-1.482 1.03-2.23.013-.03.342-.77.351-.784.348-.58.869-1.11 1.287-1.643.42-.537.844-1.07 1.27-1.603.019-.024.524-.658.536-.67.011-.011.653-.507.678-.526.22-.17.438-.342.66-.51.128-.096.235-.23.386-.285.086-.032.885-.038.968-.04.716.533 1.562.874 2.265 1.435.326.26.596.597.91.872.304.267.638.508.954.76.438.35.85.728 1.267 1.102.033.03.63.564.645.583.015.02.39.728.411.768.33.625.693 1.536.55 2.262-.029.145-.127.269-.178.409-.085.235-.103.492-.193.725-.02.05-.357.688-.386.753-.172.38-.272.801-.463 1.172-.433.843-1.094 1.586-1.675 2.327a20.25 20.25 0 0 1-1.963 2.162c-.024.024-.611.581-.625.591-.016.012-.722.398-.753.415-.353.195-.737.493-1.153.53-.363.03-.421-.14-.715-.288-.623-.313-1.273-.563-1.883-.91-1.313-.744-2.58-1.565-3.89-2.309-.814-.46-1.655-.805-2.393-1.385 0 0-.133-.104-.066-.244zm-4.93 38.188a.288.288 0 0 1-.035-.08c-.035-.133.13-.244.205-.36.212-.32.484-.615.72-.919.244-.314.541-.632.75-.971.209-.34.358-.748.528-1.109.35-.74.696-1.482 1.03-2.23.013-.03.342-.77.351-.784.348-.58.869-1.11 1.287-1.643a212.337 212.337 0 0 1 1.806-2.273c.011-.011.653-.507.678-.526.22-.17.438-.342.66-.51.128-.096.235-.23.386-.285.086-.032.885-.038.968-.04.716.533 1.562.874 2.265 1.435.326.26.596.597.91.872.304.267.638.508.954.76.438.35.85.728 1.267 1.102.033.03.63.564.645.583.015.02.39.728.411.768.33.625.693 1.536.55 2.262-.028.146-.127.269-.178.409-.085.235-.103.492-.193.725-.02.05-.357.688-.386.753-.172.38-.272.801-.463 1.172-.433.843-1.094 1.586-1.675 2.327a20.25 20.25 0 0 1-1.963 2.163c-.024.023-.611.58-.625.59-.016.012-.722.398-.753.415-.353.195-.737.493-1.153.53-.363.03-.421-.14-.715-.288-.623-.313-1.273-.563-1.883-.91-1.313-.744-2.58-1.565-3.89-2.309-.814-.46-1.655-.805-2.393-1.384 0 0-.133-.104-.066-.245zm10.785-14.499a.288.288 0 0 1-.035-.08c-.036-.134.129-.245.205-.36.211-.321.484-.616.72-.92.244-.314.541-.632.75-.971.208-.34.358-.748.528-1.108a121.51 121.51 0 0 0 1.38-3.015c.348-.58.87-1.11 1.287-1.643.42-.536.845-1.07 1.27-1.602.02-.025.525-.659.536-.67.012-.012.654-.507.679-.527.22-.17.438-.342.66-.51.127-.096.235-.23.385-.285.087-.031.886-.038.969-.039.715.532 1.562.873 2.265 1.435.326.26.596.596.91.871.304.267.637.508.954.76.438.35.849.729 1.266 1.103.034.03.631.564.646.583.015.019.39.727.41.767.33.625.694 1.536.55 2.262-.028.146-.126.27-.177.41-.085.234-.104.491-.193.725-.02.05-.358.688-.387.752-.172.38-.272.802-.463 1.173-.433.842-1.094 1.585-1.675 2.326a20.25 20.25 0 0 1-1.962 2.163c-.025.023-.611.58-.626.59-.015.012-.722.398-.753.415-.353.195-.736.493-1.152.53-.363.031-.421-.14-.715-.288-.624-.312-1.273-.562-1.884-.909-1.312-.744-2.58-1.566-3.89-2.31-.813-.46-1.654-.805-2.393-1.384 0 0-.132-.104-.065-.244zm11.588-16.091a.288.288 0 0 1-.035-.08c-.036-.133.129-.245.205-.36.211-.32.483-.616.719-.919.244-.315.542-.632.75-.972.21-.339.358-.748.529-1.108a121.51 121.51 0 0 0 1.38-3.014c.348-.581.87-1.11 1.287-1.643.42-.537.845-1.07 1.27-1.603.02-.025.525-.659.536-.67.012-.012.654-.507.679-.526.22-.17.438-.342.66-.51.127-.096.235-.23.385-.285.087-.032.886-.038.968-.04.716.533 1.563.873 2.266 1.435.326.26.596.596.91.872.304.266.637.507.954.76.438.35.849.728 1.266 1.102.034.03.631.564.646.583.015.019.39.727.41.767.33.625.694 1.537.55 2.262-.028.146-.126.27-.177.41-.085.235-.104.492-.194.725-.019.05-.357.688-.386.752-.172.38-.272.802-.463 1.173-.433.843-1.094 1.585-1.675 2.326a20.249 20.249 0 0 1-1.962 2.163c-.025.024-.612.58-.626.591-.015.011-.722.397-.753.415-.353.195-.737.493-1.152.529-.363.032-.422-.14-.715-.287-.624-.313-1.273-.563-1.884-.91-1.312-.744-2.58-1.565-3.89-2.309-.813-.461-1.654-.806-2.393-1.385 0 0-.132-.104-.066-.244zm-22.413-30.148a.288.288 0 0 1-.035-.08c-.036-.134.129-.245.205-.36.212-.321.484-.616.72-.92.244-.314.541-.632.75-.971.209-.34.358-.748.528-1.108a118.596 118.596 0 0 0 1.381-3.015c.347-.58.869-1.11 1.286-1.643.42-.536.845-1.07 1.27-1.602.02-.025.525-.659.537-.67.011-.012.653-.507.678-.527.22-.17.438-.342.66-.51.128-.096.235-.23.386-.285.086-.031.885-.038.968-.039.715.532 1.562.873 2.265 1.434.326.26.596.597.91.872.304.267.638.508.954.76.438.35.85.728 1.266 1.102.034.03.631.565.646.584.015.019.39.727.41.767.33.625.694 1.536.551 2.262-.029.146-.127.27-.178.409-.085.235-.103.492-.193.726-.02.05-.357.688-.386.752-.173.38-.273.802-.463 1.173-.433.842-1.095 1.585-1.676 2.326a20.249 20.249 0 0 1-1.962 2.163c-.025.023-.611.58-.626.59-.015.012-.722.398-.753.415-.352.195-.736.493-1.152.53-.363.031-.421-.14-.715-.288-.624-.313-1.273-.563-1.884-.909-1.312-.744-2.58-1.566-3.89-2.31-.813-.46-1.654-.805-2.392-1.384 0 0-.133-.104-.066-.244zm16.067 6.519a.288.288 0 0 1-.035-.08c-.035-.133.13-.245.205-.36.212-.32.484-.616.72-.919.244-.315.542-.632.75-.972.209-.339.358-.748.529-1.108.35-.74.695-1.483 1.029-2.23.013-.03.343-.77.351-.784.348-.58.869-1.11 1.287-1.643.42-.537.844-1.07 1.27-1.603.019-.025.524-.659.536-.67.012-.012.653-.507.678-.526.22-.17.438-.342.66-.51.128-.096.236-.23.386-.285.086-.032.885-.038.968-.04.716.533 1.562.873 2.266 1.435.326.26.595.596.91.872.303.266.637.508.953.76.439.35.85.728 1.267 1.102.033.03.63.564.646.583.014.019.389.727.41.767.33.625.694 1.537.55 2.262-.028.146-.127.27-.177.41-.086.235-.104.492-.194.725-.02.05-.357.688-.386.752-.172.38-.272.802-.463 1.173-.433.843-1.094 1.585-1.675 2.326a20.25 20.25 0 0 1-1.963 2.163c-.024.024-.61.58-.625.591-.015.011-.722.397-.753.415-.353.195-.737.493-1.153.529-.363.032-.421-.14-.715-.287-.623-.313-1.272-.563-1.883-.91-1.312-.744-2.58-1.565-3.89-2.309-.814-.461-1.654-.806-2.393-1.385 0 0-.133-.104-.066-.244zm17.443 7.597a.288.288 0 0 1-.035-.079c-.036-.133.129-.245.205-.36.211-.321.484-.616.72-.92.244-.314.541-.631.75-.97.208-.34.358-.749.528-1.11a118.507 118.507 0 0 0 1.381-3.014c.347-.58.868-1.11 1.286-1.643.42-.536.845-1.07 1.27-1.602.02-.025.525-.659.536-.67.012-.012.654-.507.679-.526.22-.17.438-.343.66-.51.127-.096.235-.23.385-.286.087-.031.886-.037.969-.039.715.532 1.562.873 2.265 1.435.326.26.596.596.91.871.304.267.637.508.954.76.438.35.849.729 1.266 1.103.034.03.631.564.646.583.015.019.39.727.41.767.33.625.694 1.537.551 2.262-.029.146-.127.27-.178.41-.085.235-.103.491-.193.725-.02.05-.357.688-.387.752-.172.38-.272.802-.462 1.173-.434.843-1.095 1.585-1.676 2.326a20.25 20.25 0 0 1-1.962 2.163c-.025.023-.611.58-.626.591-.015.011-.722.397-.753.414-.353.195-.736.494-1.152.53-.363.031-.421-.14-.715-.287-.624-.313-1.273-.563-1.884-.91-1.312-.744-2.58-1.565-3.89-2.31-.813-.46-1.654-.805-2.393-1.384 0 0-.132-.104-.065-.244zm-20.941-30.326a.288.288 0 0 1-.035-.08c-.035-.133.13-.245.205-.36.212-.32.484-.616.72-.919.244-.315.542-.632.75-.971.209-.34.358-.749.529-1.109.35-.74.695-1.483 1.029-2.23.013-.03.343-.77.351-.784.348-.58.869-1.11 1.287-1.643.42-.537.844-1.07 1.27-1.603.019-.024.524-.658.536-.67.012-.011.653-.507.678-.526.22-.17.438-.342.66-.51.128-.096.236-.23.386-.285.086-.032.885-.038.968-.04.716.533 1.562.874 2.266 1.435.326.26.595.597.91.872.303.267.637.508.953.76.439.35.85.728 1.267 1.102.033.03.63.564.646.583.014.02.389.728.41.767.33.626.694 1.537.55 2.263-.028.145-.127.269-.177.409-.086.235-.104.492-.194.725-.02.05-.357.688-.386.753-.172.38-.272.801-.463 1.172-.433.843-1.094 1.586-1.675 2.327a20.249 20.249 0 0 1-1.963 2.162c-.024.024-.61.581-.625.591-.015.012-.722.398-.753.415-.353.195-.737.493-1.153.53-.363.03-.421-.14-.715-.288-.623-.313-1.272-.563-1.883-.91-1.312-.744-2.58-1.565-3.89-2.309-.814-.46-1.654-.805-2.393-1.385 0 0-.133-.104-.066-.244zm16.067 6.52a.288.288 0 0 1-.035-.08c-.035-.134.13-.245.206-.36.211-.321.483-.616.719-.92.244-.314.542-.632.75-.971.21-.34.358-.748.529-1.108.35-.74.695-1.483 1.029-2.23.013-.03.343-.77.352-.785.347-.58.868-1.11 1.286-1.643.42-.536.844-1.07 1.27-1.602.02-.025.524-.659.536-.67.012-.012.654-.507.679-.526.22-.17.438-.343.66-.51.127-.097.235-.23.385-.286.086-.031.885-.038.968-.039.716.532 1.563.873 2.266 1.435.326.26.596.596.91.871.304.267.637.508.954.76.438.35.849.729 1.266 1.103.034.03.631.564.646.583.015.019.39.727.41.767.33.625.694 1.536.55 2.262-.028.146-.126.27-.177.41-.085.234-.104.491-.194.725-.019.05-.357.688-.386.752-.172.38-.272.802-.463 1.173-.433.842-1.094 1.585-1.675 2.326a20.249 20.249 0 0 1-1.962 2.163c-.025.023-.612.58-.626.59-.015.012-.722.398-.753.415-.353.195-.737.493-1.153.53-.362.031-.42-.14-.714-.288-.624-.312-1.273-.562-1.884-.909-1.312-.744-2.58-1.566-3.89-2.31-.813-.46-1.654-.805-2.393-1.384 0 0-.133-.104-.066-.244zm17.443 7.597a.288.288 0 0 1-.035-.08c-.035-.133.13-.244.205-.36.212-.32.484-.615.72-.919.244-.314.541-.632.75-.971.209-.34.358-.748.528-1.109.35-.74.696-1.482 1.03-2.23.013-.03.342-.77.351-.784.348-.58.869-1.11 1.287-1.643a212.337 212.337 0 0 1 1.806-2.273c.011-.011.653-.507.678-.526.22-.17.438-.342.66-.51.128-.096.235-.23.386-.285.086-.032.885-.038.968-.04.716.533 1.562.874 2.265 1.435.326.26.596.597.91.872.304.267.638.508.954.76.438.35.85.728 1.267 1.102.033.03.63.564.645.583.015.02.39.728.411.768.33.625.693 1.536.55 2.262-.028.146-.127.269-.178.409-.085.235-.103.492-.193.725-.02.05-.357.689-.386.753-.172.38-.272.801-.463 1.173-.433.842-1.094 1.585-1.675 2.326a20.25 20.25 0 0 1-1.963 2.163c-.024.023-.611.58-.625.59-.016.012-.722.398-.753.415-.353.195-.737.493-1.153.53-.363.03-.421-.14-.715-.288-.623-.313-1.273-.563-1.883-.91-1.313-.744-2.58-1.565-3.89-2.309-.814-.46-1.655-.805-2.393-1.384 0 0-.133-.104-.066-.245zm-25.756 61.603a.823.823 0 0 1 .061-.165c.15-.315.66-.899 1.003-1.347.948-1.246 1.975-2.52 2.944-3.756 1.004-1.284 2.12-2.662 3.093-3.956.974-1.293 1.944-2.683 2.876-3.972a2679.901 2679.901 0 0 0 7.71-10.711c1.647-2.197 3.556-4.538 5.265-6.717 1.72-2.194 3.441-4.385 5.164-6.576l2.172-2.759c.042-.052 2.135-2.494 2.216-2.59.718-.837 1.436-1.678 2.153-2.512.413-.48.848-1.033 1.238-1.434.223-.23 1.824-1.563 1.992-1.703.549.312 1.674-.127 2.15.288.22.192.204.689.376.943.167.246.434.372.649.558.297.257.492.641.707 1.001.018.03.328.541.326.57a96.944 96.944 0 0 1-.445 1.472c-.372 1.208-1.148 3.16-2.627 5.427-.297.456-.696.964-1.027 1.438-.557.8-1.016 1.548-1.58 2.35-.12.173-1.843 2.514-2.007 2.742-.968 1.348-1.86 2.693-2.851 4.045-2.25 3.072-4.787 6.239-7.164 9.27a479.182 479.182 0 0 1-7.466 9.284 1873.2 1873.2 0 0 1-2.218 2.684c-.049.056-2.091 2.3-2.181 2.4-1.024 1.126-2.279 2.592-3.166 3.378-.774.686-.609.302-.951.373-.727.15-1.607.518-2.254.554-1.387.075-2.559-.138-3.945-.063-.86.046-1.966.466-2.484.06 0 0-.093-.073.271-.576z"/></g><g stroke="#000" stroke-width="2.5"><path fill="#2d4c00" d="M126.52 40.397c.078.157.133.33.158.522.115.892-1.053 1.754-1.649 2.59-1.654 2.32-3.68 4.5-5.476 6.716-1.864 2.3-4.075 4.65-5.727 7.097-1.652 2.445-2.977 5.33-4.4 7.896a1012.361 1012.361 0 0 0-8.632 15.871c-.113.212-2.899 5.465-2.969 5.571-2.764 4.18-6.614 8.116-9.794 12.011a2308.965 2308.965 0 0 1-9.65 11.723c-.15.18-3.987 4.82-4.073 4.907-.087.086-4.692 3.86-4.871 4.007-1.578 1.294-3.146 2.604-4.734 3.883-.914.737-1.732 1.72-2.757 2.186-.588.268-5.79.795-6.33.855-4.193-3.205-9.404-5.02-13.488-8.433-1.895-1.583-3.357-3.717-5.159-5.408-1.746-1.64-3.706-3.085-5.545-4.618-2.546-2.122-4.89-4.463-7.278-6.766-.193-.186-3.614-3.475-3.694-3.595-.08-.12-1.9-4.736-2.003-4.996-1.6-4.074-3.174-10.083-1.613-15.13.314-1.014 1.062-1.917 1.512-2.903.76-1.661 1.102-3.427 1.89-5.078.17-.355 2.92-4.92 3.166-5.377 1.45-2.703 2.467-5.645 4.03-8.297 3.55-6.022 8.495-11.499 12.918-16.916C45 33.06 49.749 27.82 54.996 22.741c.18-.174 4.48-4.339 4.582-4.419.109-.085 5.041-3.152 5.258-3.288 2.464-1.547 5.22-3.818 7.956-4.317 2.388-.436 2.618.7 4.4 1.53 3.784 1.76 7.789 3.076 11.46 5.073 7.888 4.294 15.416 9.14 23.296 13.43 4.886 2.66 10.056 4.505 14.357 8.017 0 0 .772.63.215 1.63z"/><path fill="#5a9700" d="M119.82 40.415a.288.288 0 0 1 .033.08c.033.134-.134.242-.212.356-.218.317-.496.606-.737.905-.25.31-.555.621-.77.956-.215.335-.372.741-.55 1.098a111.86 111.86 0 0 0-1.073 2.21c-.014.03-.358.762-.367.777-.359.573-.89 1.092-1.319 1.617-.43.528-.865 1.053-1.3 1.577-.02.024-.538.648-.55.66l-.69.512c-.222.165-.444.333-.669.496-.13.094-.24.226-.391.278-.087.03-.886.02-.969.02-.705-.546-1.545-.903-2.237-1.478-.32-.267-.583-.609-.892-.89-.299-.273-.627-.52-.939-.779-.431-.358-.834-.745-1.244-1.127-.033-.03-.62-.576-.634-.596-.015-.019-.375-.734-.396-.775-.317-.631-.663-1.55-.505-2.272.031-.145.132-.267.186-.406.09-.233.113-.49.208-.721.02-.05.37-.681.4-.745.18-.377.288-.796.486-1.163.45-.834 1.126-1.564 1.721-2.293a20.25 20.25 0 0 1 2.005-2.124c.025-.022.623-.568.637-.578.016-.011.73-.383.761-.4.357-.188.746-.478 1.163-.506.363-.025.418.148.71.301.616.325 1.26.588 1.864.946 1.297.77 2.548 1.617 3.844 2.386.804.477 1.638.838 2.365 1.432 0 0 .13.107.061.246zm-11.069 14.283a.288.288 0 0 1 .033.08c.033.135-.133.243-.212.357-.218.317-.496.606-.737.905-.25.31-.554.621-.77.956-.215.335-.372.741-.55 1.098-.365.733-.724 1.469-1.073 2.21-.014.03-.358.762-.367.776-.359.574-.89 1.093-1.318 1.618-.431.528-.866 1.053-1.301 1.577-.02.024-.538.648-.55.66l-.689.512c-.223.165-.445.333-.67.496-.13.094-.24.226-.39.278-.088.03-.887.02-.97.02-.705-.546-1.545-.903-2.236-1.479-.321-.266-.584-.608-.893-.889-.298-.273-.627-.52-.939-.779-.43-.358-.834-.745-1.244-1.127-.033-.03-.62-.576-.634-.596-.015-.019-.375-.735-.396-.775-.317-.631-.662-1.55-.505-2.272.032-.146.132-.267.186-.406.09-.233.113-.49.208-.722.02-.05.37-.68.4-.744.18-.377.289-.796.487-1.163.45-.834 1.125-1.564 1.72-2.293a20.249 20.249 0 0 1 2.005-2.124c.025-.023.623-.568.637-.578.016-.011.73-.383.761-.4.357-.188.747-.478 1.163-.506.364-.025.418.148.71.301.617.325 1.26.588 1.864.946 1.298.77 2.549 1.617 3.844 2.386.804.477 1.638.838 2.365 1.432 0 0 .13.107.061.245zM96.848 70.557a.288.288 0 0 1 .033.08c.033.135-.134.243-.212.357-.218.316-.496.606-.737.904-.251.31-.555.622-.77.957-.215.335-.373.74-.55 1.097-.365.734-.725 1.47-1.073 2.21-.014.03-.358.763-.367.777-.36.574-.89 1.093-1.319 1.617-.43.528-.865 1.053-1.3 1.578-.02.024-.539.648-.55.659-.012.011-.664.494-.69.513-.223.165-.444.333-.669.496-.13.094-.24.226-.391.278-.087.03-.886.02-.969.02-.705-.546-1.545-.904-2.237-1.479-.32-.267-.584-.608-.892-.89-.299-.272-.627-.52-.939-.778-.431-.358-.834-.745-1.244-1.127-.033-.03-.62-.577-.635-.596-.014-.02-.375-.735-.395-.775-.317-.632-.663-1.55-.505-2.273.031-.145.132-.266.186-.405.09-.234.113-.49.207-.722.02-.05.37-.68.401-.744.18-.377.288-.797.486-1.164.45-.834 1.126-1.563 1.721-2.292a20.25 20.25 0 0 1 2.005-2.124c.025-.023.622-.568.637-.579.015-.01.73-.382.761-.399.357-.188.746-.479 1.163-.507.363-.024.418.148.709.302.617.325 1.261.588 1.865.946 1.297.77 2.548 1.616 3.844 2.386.804.477 1.638.838 2.365 1.432 0 0 .13.106.06.245zm7.037-36.978a.288.288 0 0 1 .033.08c.033.135-.134.243-.213.357-.217.316-.495.606-.737.904-.25.31-.554.622-.77.957-.215.335-.372.74-.55 1.097a111.86 111.86 0 0 0-1.072 2.21c-.014.03-.358.762-.368.777-.358.574-.89 1.093-1.318 1.617a241.79 241.79 0 0 1-1.301 1.578c-.02.024-.538.648-.55.659-.012.011-.663.494-.689.513-.223.165-.444.333-.67.496-.129.094-.24.226-.39.278-.087.03-.886.02-.97.02-.704-.546-1.544-.904-2.236-1.479-.32-.267-.584-.608-.892-.89-.3-.272-.628-.52-.94-.778-.43-.358-.834-.745-1.244-1.127-.033-.031-.62-.577-.634-.596-.014-.02-.375-.735-.395-.775-.317-.632-.663-1.55-.506-2.273.032-.145.133-.266.186-.405.09-.234.114-.49.208-.722.02-.05.37-.68.401-.744.18-.377.288-.797.486-1.164.45-.834 1.125-1.563 1.72-2.292a20.251 20.251 0 0 1 2.006-2.124c.025-.023.622-.569.637-.579.015-.01.73-.383.76-.4.357-.187.747-.478 1.163-.506.364-.024.419.148.71.302.617.325 1.26.587 1.865.946 1.297.77 2.548 1.616 3.844 2.386.804.477 1.637.838 2.365 1.432 0 0 .13.106.06.245zM92.816 47.863a.288.288 0 0 1 .033.08c.033.134-.134.243-.212.357-.218.316-.496.605-.738.904-.25.31-.554.622-.77.957-.215.335-.372.74-.55 1.097-.364.734-.724 1.47-1.072 2.21-.014.03-.358.762-.367.777-.36.574-.89 1.093-1.319 1.617a240.3 240.3 0 0 1-1.3 1.577c-.021.025-.539.649-.55.66-.013.011-.664.494-.69.512-.223.166-.444.334-.67.497-.129.094-.239.226-.39.278-.087.03-.886.02-.97.02-.704-.546-1.544-.904-2.236-1.479-.32-.267-.584-.608-.892-.89-.299-.272-.628-.52-.939-.778-.431-.358-.835-.745-1.244-1.127-.033-.031-.62-.577-.635-.596-.014-.02-.375-.735-.395-.775-.317-.632-.663-1.55-.505-2.273.031-.145.132-.266.185-.405.09-.234.114-.49.208-.722.02-.05.37-.68.401-.745.18-.376.288-.796.486-1.163.45-.834 1.125-1.563 1.721-2.293a20.25 20.25 0 0 1 2.005-2.123c.025-.023.622-.569.637-.579.015-.01.73-.383.76-.4.358-.187.747-.478 1.164-.506.363-.024.418.148.709.301.617.326 1.261.588 1.865.947 1.297.77 2.548 1.616 3.844 2.386.804.477 1.638.838 2.365 1.431 0 0 .13.107.06.246zM80.912 63.722a.288.288 0 0 1 .034.08c.033.134-.134.242-.213.356-.217.317-.495.606-.737.905-.25.31-.554.621-.77.956-.215.335-.372.741-.55 1.098a118.43 118.43 0 0 0-1.073 2.21c-.014.03-.358.762-.367.777-.359.573-.89 1.093-1.318 1.617-.431.528-.866 1.053-1.301 1.577-.02.024-.538.648-.55.66l-.689.512c-.223.166-.444.334-.67.497-.129.093-.24.226-.39.278-.088.03-.887.02-.97.02-.704-.547-1.544-.904-2.236-1.48-.321-.266-.584-.607-.892-.889-.3-.273-.628-.52-.94-.779-.43-.358-.834-.744-1.244-1.127-.033-.03-.62-.576-.634-.595-.014-.02-.375-.735-.395-.776-.317-.631-.663-1.55-.506-2.272.032-.145.133-.267.186-.406.09-.233.113-.49.208-.721.02-.05.37-.681.4-.745.18-.376.289-.796.487-1.163.45-.834 1.125-1.564 1.72-2.293a20.25 20.25 0 0 1 2.005-2.124c.025-.022.623-.568.637-.578.016-.01.73-.383.762-.4.356-.188.746-.478 1.162-.506.364-.024.419.148.71.301.617.325 1.26.588 1.865.946 1.297.77 2.548 1.617 3.844 2.386.803.477 1.637.838 2.364 1.432 0 0 .131.107.061.246zm5.683-38.084a.288.288 0 0 1 .034.08c.033.135-.134.243-.213.357-.217.317-.495.606-.737.905-.25.31-.554.621-.77.956-.215.335-.372.741-.55 1.098a111.86 111.86 0 0 0-1.073 2.21c-.014.03-.358.762-.367.776-.358.574-.89 1.093-1.318 1.618-.431.528-.866 1.053-1.301 1.577-.02.024-.538.648-.55.66l-.689.512c-.223.165-.444.333-.67.496-.129.094-.24.226-.39.278-.087.03-.887.02-.97.02-.704-.546-1.544-.903-2.236-1.479-.321-.266-.584-.608-.892-.89-.3-.272-.628-.52-.94-.778-.43-.358-.834-.745-1.244-1.127-.033-.03-.62-.576-.634-.596a60.17 60.17 0 0 1-.395-.775c-.317-.631-.663-1.55-.506-2.272.032-.146.133-.267.186-.406.09-.233.113-.49.208-.722.02-.05.37-.68.4-.744.18-.377.289-.796.487-1.163.45-.834 1.125-1.564 1.72-2.293a20.251 20.251 0 0 1 2.006-2.124 84.8 84.8 0 0 1 .637-.578c.015-.011.73-.383.76-.4.357-.188.747-.478 1.163-.506.364-.025.419.148.71.3.617.326 1.26.589 1.865.947 1.297.77 2.548 1.617 3.844 2.386.803.477 1.637.838 2.364 1.432 0 0 .131.106.061.245zM75.527 39.922a.288.288 0 0 1 .033.08c.033.135-.134.243-.212.357-.218.316-.496.606-.738.904-.25.31-.554.622-.77.957-.215.335-.372.74-.55 1.098a111.86 111.86 0 0 0-1.072 2.21c-.014.03-.358.762-.368.776-.358.574-.89 1.093-1.318 1.618-.431.528-.865 1.053-1.3 1.577l-.55.66-.69.512c-.223.165-.444.333-.67.496-.129.094-.24.226-.39.278-.087.03-.886.02-.97.02-.704-.546-1.544-.903-2.236-1.479-.32-.267-.584-.608-.892-.89-.299-.272-.628-.52-.94-.778-.43-.358-.834-.745-1.244-1.127-.033-.03-.62-.577-.634-.596a60.17 60.17 0 0 1-.395-.775c-.317-.631-.663-1.55-.506-2.272.032-.146.133-.267.186-.406.09-.234.114-.49.208-.722.02-.05.37-.68.401-.744.18-.377.288-.796.486-1.164.45-.833 1.125-1.563 1.72-2.292a20.251 20.251 0 0 1 2.006-2.124 84.8 84.8 0 0 1 .637-.578c.015-.011.73-.383.76-.4.357-.188.747-.478 1.164-.506.363-.025.418.148.709.3.617.326 1.261.589 1.865.947 1.297.77 2.548 1.616 3.844 2.386.804.477 1.637.838 2.365 1.432 0 0 .13.106.06.245zM63.623 55.781a.288.288 0 0 1 .034.08c.032.134-.134.243-.213.357-.218.316-.495.605-.737.904-.25.31-.554.622-.77.957-.215.335-.372.74-.55 1.097-.365.734-.724 1.47-1.073 2.21-.014.03-.358.762-.367.777-.359.574-.89 1.093-1.318 1.617a247.412 247.412 0 0 1-1.851 2.237c-.012.011-.664.494-.689.512-.223.166-.445.334-.67.497-.13.094-.24.226-.39.278-.088.03-.887.02-.97.02-.705-.546-1.544-.904-2.236-1.479-.321-.267-.584-.608-.892-.89-.3-.272-.628-.52-.94-.778-.43-.358-.834-.745-1.244-1.127-.033-.031-.62-.577-.634-.596-.015-.02-.375-.735-.395-.775-.318-.632-.663-1.55-.506-2.273.032-.145.133-.266.186-.405.09-.234.113-.49.208-.722.02-.05.37-.68.4-.745.18-.376.289-.796.487-1.163.45-.834 1.125-1.563 1.72-2.293a20.251 20.251 0 0 1 2.005-2.123c.025-.023.623-.569.637-.579.016-.01.73-.383.762-.4.356-.187.746-.478 1.162-.506.364-.024.419.148.71.301.617.326 1.26.588 1.865.947 1.297.77 2.548 1.616 3.844 2.386.803.477 1.637.838 2.364 1.431 0 0 .13.107.061.246zm21.813 30.585a.288.288 0 0 1 .034.08c.032.135-.134.243-.213.357-.218.316-.495.606-.737.904-.25.31-.554.622-.77.957-.215.335-.372.74-.55 1.097a111.86 111.86 0 0 0-1.073 2.21c-.014.03-.358.763-.367.777-.359.574-.89 1.093-1.318 1.617a240.3 240.3 0 0 1-1.301 1.578c-.02.024-.538.648-.55.659-.012.011-.663.494-.689.513-.223.165-.445.333-.67.496-.13.094-.24.226-.39.278-.088.03-.887.02-.97.02-.705-.546-1.544-.904-2.236-1.479-.321-.267-.584-.608-.892-.89-.3-.272-.628-.52-.94-.778-.43-.358-.834-.745-1.244-1.127-.033-.03-.62-.577-.634-.596-.015-.02-.375-.735-.395-.775-.318-.632-.663-1.55-.506-2.273.032-.145.133-.266.186-.405.09-.234.113-.49.208-.722.02-.05.37-.68.4-.744.18-.377.289-.797.487-1.164.45-.834 1.125-1.563 1.72-2.292a20.25 20.25 0 0 1 2.005-2.124c.025-.023.623-.569.637-.579.016-.01.73-.382.762-.399.356-.188.746-.479 1.162-.507.364-.024.419.148.71.302.617.325 1.26.588 1.865.946 1.297.77 2.548 1.616 3.844 2.386.803.477 1.637.838 2.364 1.432 0 0 .13.106.061.245zM69.5 79.53a.288.288 0 0 1 .034.08c.033.135-.134.243-.212.357-.218.317-.496.606-.737.905-.251.31-.555.621-.77.956-.215.335-.373.741-.55 1.098a107.09 107.09 0 0 0-1.073 2.21c-.014.03-.358.762-.367.777-.36.573-.89 1.092-1.319 1.617a240.3 240.3 0 0 1-1.3 1.577l-.55.66-.69.512c-.222.166-.444.334-.669.497-.13.093-.24.226-.391.278-.087.03-.886.02-.969.02-.705-.547-1.545-.904-2.237-1.48-.32-.266-.584-.607-.892-.889-.299-.273-.627-.52-.939-.779-.431-.358-.834-.744-1.244-1.127a58.95 58.95 0 0 1-.635-.595c-.014-.02-.374-.735-.395-.776-.317-.631-.663-1.55-.505-2.272.031-.145.132-.267.186-.406.09-.233.113-.49.207-.721.02-.05.37-.681.401-.745.18-.376.288-.796.486-1.163.45-.834 1.126-1.563 1.721-2.293a20.25 20.25 0 0 1 2.005-2.124c.025-.022.622-.568.637-.578.015-.01.73-.383.761-.4.357-.188.746-.478 1.163-.506.363-.024.418.148.709.301.617.325 1.261.588 1.865.946 1.297.77 2.548 1.617 3.844 2.386.804.477 1.638.838 2.365 1.432 0 0 .13.107.06.246zm-17.288-7.94a.288.288 0 0 1 .033.08c.033.134-.134.243-.212.357-.218.316-.496.605-.738.904-.25.31-.554.622-.77.957-.215.335-.372.74-.55 1.097-.364.734-.724 1.47-1.072 2.21-.014.03-.358.762-.367.777-.36.574-.89 1.093-1.319 1.617-.43.528-.865 1.053-1.3 1.577-.021.025-.539.649-.55.66-.013.011-.664.494-.69.512-.223.166-.444.334-.67.497-.129.094-.239.226-.39.278-.087.03-.886.02-.97.02-.704-.546-1.544-.904-2.236-1.479-.32-.267-.584-.608-.892-.89-.299-.272-.628-.52-.939-.778-.431-.358-.835-.745-1.244-1.127-.033-.031-.62-.577-.635-.596-.014-.02-.375-.735-.395-.775-.317-.632-.663-1.55-.505-2.273.031-.145.132-.266.185-.405.09-.234.114-.49.208-.722.02-.05.37-.68.401-.744.18-.377.288-.797.486-1.164.45-.834 1.125-1.563 1.721-2.292a20.25 20.25 0 0 1 2.005-2.124c.025-.023.622-.569.637-.579.015-.01.73-.383.76-.4.358-.187.747-.478 1.164-.506.363-.024.418.148.709.302.617.325 1.261.587 1.865.946 1.297.77 2.548 1.616 3.844 2.386.804.477 1.638.838 2.365 1.431 0 0 .13.107.06.246zm20.338 30.734a.288.288 0 0 1 .033.08c.033.135-.134.243-.213.357-.217.316-.495.606-.737.904-.25.31-.554.622-.77.957-.215.335-.372.74-.55 1.098-.364.733-.724 1.468-1.073 2.21-.014.029-.358.762-.367.776-.359.574-.89 1.093-1.318 1.618-.431.527-.866 1.052-1.301 1.577-.02.024-.538.648-.55.66l-.689.512c-.223.165-.444.333-.67.496-.129.094-.24.226-.39.278-.088.03-.887.02-.97.02-.704-.546-1.544-.904-2.236-1.479-.321-.267-.584-.608-.892-.89-.3-.272-.628-.52-.94-.778-.43-.358-.834-.745-1.244-1.127-.033-.03-.62-.577-.634-.596-.014-.02-.375-.735-.395-.775-.318-.632-.663-1.55-.506-2.273.032-.145.133-.266.186-.405.09-.234.113-.49.208-.722.02-.05.37-.68.4-.744.18-.377.289-.797.487-1.164.45-.834 1.125-1.563 1.72-2.292a20.25 20.25 0 0 1 2.005-2.124c.025-.023.623-.568.637-.579.016-.01.73-.382.762-.399.356-.188.746-.479 1.162-.506.364-.025.419.147.71.3.617.326 1.26.589 1.865.947 1.297.77 2.548 1.616 3.844 2.386.803.477 1.637.838 2.364 1.432 0 0 .131.106.061.245zm-15.936-6.835a.288.288 0 0 1 .033.08c.033.134-.134.242-.212.356-.218.317-.496.606-.737.905-.251.31-.555.621-.77.956-.215.336-.373.741-.55 1.098a111.72 111.72 0 0 0-1.073 2.21c-.014.03-.358.762-.367.777-.359.573-.89 1.093-1.319 1.617-.43.528-.865 1.053-1.3 1.577-.02.024-.538.648-.55.66l-.69.512c-.222.166-.444.334-.669.497-.13.094-.24.226-.391.278-.087.03-.886.02-.969.02-.705-.547-1.545-.904-2.237-1.48-.32-.266-.584-.607-.892-.889-.299-.273-.627-.52-.939-.779-.431-.358-.834-.744-1.244-1.127-.033-.03-.62-.576-.634-.595-.015-.02-.375-.735-.396-.776-.317-.631-.663-1.55-.505-2.272.031-.145.132-.267.186-.406.09-.233.113-.49.207-.721.02-.05.371-.681.401-.745.18-.376.288-.796.486-1.163.45-.834 1.126-1.563 1.721-2.293a20.25 20.25 0 0 1 2.005-2.124c.025-.022.623-.568.637-.578.015-.01.73-.383.761-.4.357-.187.746-.478 1.163-.506.363-.024.418.148.709.301.617.325 1.261.588 1.865.946 1.297.77 2.548 1.617 3.844 2.386.804.478 1.638.839 2.365 1.432 0 0 .13.107.06.246zm-17.289-7.941a.288.288 0 0 1 .033.08c.033.135-.134.243-.212.357-.218.316-.496.606-.737.904-.251.31-.555.622-.77.957-.215.335-.373.74-.55 1.097a111.86 111.86 0 0 0-1.073 2.21c-.014.03-.358.762-.367.777-.36.574-.89 1.093-1.319 1.617a217.467 217.467 0 0 1-1.85 2.237c-.012.011-.664.494-.69.512-.223.166-.444.334-.669.497-.13.094-.24.226-.391.278-.087.03-.886.02-.969.02-.705-.546-1.545-.904-2.237-1.479-.32-.267-.584-.608-.892-.89-.299-.272-.628-.52-.939-.778-.431-.358-.834-.745-1.244-1.127-.033-.031-.62-.577-.635-.596-.014-.02-.375-.735-.395-.775-.317-.632-.663-1.55-.505-2.273.031-.145.132-.266.185-.405.09-.234.114-.49.208-.722.02-.05.37-.68.401-.744.18-.377.288-.797.486-1.164.45-.834 1.126-1.563 1.721-2.292a20.249 20.249 0 0 1 2.005-2.124c.025-.023.622-.569.637-.579.015-.01.73-.383.761-.4.357-.187.746-.478 1.163-.506.363-.024.418.148.709.302.617.325 1.261.587 1.865.946 1.297.77 2.548 1.616 3.844 2.386.804.477 1.638.838 2.365 1.431 0 0 .13.107.06.246zm26.967-61.082a.823.823 0 0 1-.065.163c-.155.313-.678.886-1.028 1.328-.974 1.227-2.025 2.48-3.018 3.697-1.03 1.263-2.172 2.62-3.17 3.893-1 1.274-1.997 2.645-2.954 3.915-1.968 2.61-3.929 5.219-5.876 7.824a1831.3 1831.3 0 0 1-2.044 2.733c-1.69 2.165-3.645 4.467-5.397 6.612-1.763 2.16-3.528 4.316-5.293 6.472L35.22 65.82c-.043.05-2.184 2.452-2.267 2.545-.734.823-1.468 1.65-2.202 2.47-.422.471-.868 1.016-1.266 1.41-.228.225-1.855 1.526-2.025 1.663-.543-.323-1.676.094-2.144-.33-.216-.197-.19-.694-.357-.951-.162-.25-.427-.381-.638-.57-.292-.263-.48-.651-.688-1.016-.016-.03-.317-.547-.315-.576.003-.029.45-1.387.475-1.463.396-1.2 1.21-3.137 2.733-5.374.307-.45.716-.95 1.056-1.418.573-.788 1.046-1.528 1.626-2.318.124-.17 1.892-2.477 2.06-2.702.995-1.328 1.914-2.655 2.931-3.988 2.31-3.026 4.91-6.143 7.345-9.126a479.232 479.232 0 0 1 7.649-9.135c.089-.104 2.223-2.588 2.27-2.64.05-.055 2.136-2.258 2.228-2.356 1.046-1.106 2.33-2.547 3.232-3.315.788-.67.615-.29.958-.354.73-.136 1.618-.487 2.264-.51 1.389-.047 2.556.19 3.943.142.86-.03 1.976-.428 2.485-.012 0 0 .092.075-.282.57z"/></g><g stroke="#000" stroke-width="2.5"><path fill="#2d4c00" d="M59.776 159.344a1.63 1.63 0 0 1 .545 0c.888.147 1.377 1.514 2.005 2.325 1.745 2.253 3.248 4.822 4.853 7.18 1.665 2.448 3.278 5.243 5.144 7.53s4.246 4.388 6.292 6.489c4.207 4.318 8.434 8.608 12.71 12.842.17.169 4.396 4.35 4.478 4.45 3.205 3.85 5.864 8.672 8.677 12.84 2.831 4.196 5.64 8.406 8.443 12.62.13.195 3.466 5.208 3.524 5.315.057.107 2.343 5.605 2.432 5.82.785 1.883 1.587 3.762 2.354 5.652.442 1.087 1.147 2.154 1.299 3.27.087.64-.91 5.774-1.007 6.308-4.278 3.09-7.519 7.556-11.964 10.484-2.061 1.358-4.526 2.142-6.665 3.38-2.073 1.2-4.023 2.66-6.02 3.978-2.767 1.827-5.683 3.395-8.578 5.019-.233.13-4.369 2.459-4.507 2.5-.139.042-5.083.455-5.362.478-4.361.358-10.57.133-14.951-2.817-.881-.594-1.53-1.57-2.345-2.286-1.371-1.205-2.963-2.042-4.317-3.273-.291-.265-3.87-4.215-4.236-4.582-2.17-2.167-4.694-3.99-6.783-6.25-4.743-5.136-8.561-11.45-12.473-17.247-4.076-6.082-7.725-12.14-11.074-18.628-.115-.222-2.863-5.54-2.91-5.66-.05-.13-1.565-5.737-1.633-5.984-.771-2.805-2.15-6.1-1.84-8.863.271-2.411 1.425-2.305 2.733-3.773 2.777-3.115 5.191-6.57 8.162-9.51 6.386-6.314 13.197-12.126 19.576-18.434 3.956-3.912 7.213-8.33 11.816-11.436 0 0 .826-.558 1.622.263z"/><path fill="#5a9700" d="M57.862 165.765a.288.288 0 0 1 .086-.008c.138.007.194.198.28.306.24.3.437.649.654.966.224.33.435.71.694 1.013.259.303.602.57.892.843.597.561 1.198 1.117 1.807 1.665.024.022.626.562.638.575.446.51.79 1.168 1.168 1.729a209.252 209.252 0 0 1 1.608 2.417c.008.015.282.778.293.807.094.262.19.522.282.785.052.15.147.295.153.454.004.092-.236.855-.26.934-.726.517-1.31 1.219-2.06 1.715-.349.23-.751.384-1.11.598-.347.208-.679.451-1.016.675-.467.31-.954.584-1.438.866-.04.023-.73.428-.753.436-.023.008-.812.147-.857.155-.696.122-1.675.188-2.321-.171-.13-.072-.218-.204-.335-.295-.198-.153-.437-.25-.631-.407-.042-.034-.545-.551-.598-.599-.308-.28-.679-.505-.973-.8-.67-.671-1.173-1.529-1.7-2.31a20.25 20.25 0 0 1-1.455-2.531c-.015-.03-.365-.76-.37-.777-.006-.018-.157-.81-.164-.844-.077-.396-.243-.852-.15-1.26.082-.354.263-.357.494-.591.489-.498.926-1.039 1.443-1.514 1.112-1.02 2.283-1.974 3.393-2.993.689-.632 1.275-1.326 2.053-1.851 0 0 .14-.094.253.012zm10.486 14.717a.288.288 0 0 1 .086-.009c.138.008.194.199.28.307.24.3.438.649.654.966.224.33.435.71.694 1.013.259.303.602.57.892.843.597.56 1.198 1.117 1.807 1.665.024.022.627.562.638.575.446.51.79 1.168 1.169 1.729.38.565.758 1.132 1.135 1.7.017.027.465.702.473.717.007.015.281.778.292.807.094.262.19.522.282.785.053.15.147.295.154.454.003.092-.236.854-.26.934-.727.517-1.311 1.218-2.062 1.715-.348.23-.75.384-1.108.598-.348.208-.68.45-1.017.675-.467.31-.954.584-1.438.866-.039.023-.73.428-.753.436-.023.008-.812.147-.856.155-.697.122-1.676.188-2.322-.171-.13-.072-.217-.204-.335-.295-.198-.154-.436-.25-.631-.407-.042-.034-.545-.551-.597-.599-.31-.28-.68-.505-.974-.8-.67-.672-1.173-1.529-1.7-2.31a20.25 20.25 0 0 1-1.455-2.531c-.015-.03-.365-.76-.37-.777-.006-.018-.156-.81-.163-.844-.078-.396-.243-.853-.15-1.26.081-.354.262-.357.493-.592.49-.497.926-1.038 1.444-1.513 1.111-1.02 2.282-1.974 3.392-2.993.689-.632 1.275-1.326 2.053-1.851 0 0 .14-.094.253.012zm11.753 15.97a.288.288 0 0 1 .087-.009c.138.008.193.199.28.307.24.3.437.649.653.966.225.33.436.71.695 1.013.258.303.602.57.892.843.597.56 1.198 1.117 1.807 1.665.024.022.626.562.638.575.445.51.79 1.168 1.168 1.729a239.133 239.133 0 0 1 1.608 2.417c.008.015.282.778.292.807.095.262.191.522.283.785.052.15.147.294.153.454.004.092-.236.854-.26.934-.726.517-1.31 1.218-2.061 1.715-.348.23-.75.384-1.109.598-.347.208-.68.45-1.016.675-.467.31-.954.584-1.438.866-.04.023-.731.428-.754.436-.022.008-.811.147-.856.155-.696.122-1.675.188-2.322-.171-.13-.072-.217-.204-.334-.295-.198-.154-.437-.25-.631-.407-.042-.034-.546-.551-.598-.599-.309-.28-.68-.505-.974-.8-.668-.672-1.172-1.529-1.699-2.31a20.251 20.251 0 0 1-1.455-2.531c-.015-.03-.365-.76-.37-.777-.007-.018-.157-.81-.164-.844-.077-.396-.243-.853-.15-1.26.082-.354.263-.357.493-.592.49-.497.927-1.038 1.444-1.513 1.112-1.02 2.283-1.974 3.393-2.993.689-.632 1.275-1.326 2.053-1.851 0 0 .14-.095.252.012zm-33.379-17.399a.288.288 0 0 1 .086-.008c.139.007.194.198.28.306.24.3.438.65.654.966.225.33.435.71.694 1.013.26.303.602.57.893.843.597.561 1.197 1.117 1.806 1.665.025.022.627.562.638.575.446.51.79 1.168 1.169 1.73.381.564.759 1.131 1.135 1.7.017.026.466.701.473.716.007.015.281.778.292.807.094.262.191.522.282.785.053.15.148.295.154.455.003.091-.236.854-.26.933-.727.518-1.31 1.219-2.061 1.715-.348.23-.75.384-1.11.598-.347.208-.678.451-1.016.675-.467.31-.953.584-1.438.866-.039.023-.73.428-.753.436-.022.008-.812.147-.856.155-.696.122-1.675.188-2.322-.171-.13-.072-.217-.204-.335-.295-.197-.153-.436-.25-.63-.407-.042-.034-.546-.551-.598-.599-.309-.28-.68-.505-.974-.8-.669-.671-1.172-1.529-1.7-2.31a20.251 20.251 0 0 1-1.455-2.531c-.014-.03-.364-.76-.37-.777-.006-.018-.156-.809-.163-.844-.077-.395-.243-.852-.15-1.26.082-.354.263-.357.493-.591.49-.498.927-1.039 1.444-1.513 1.111-1.02 2.282-1.974 3.393-2.993.688-.632 1.274-1.327 2.052-1.852 0 0 .14-.094.253.012zm10.486 14.717a.288.288 0 0 1 .087-.008c.138.007.193.198.28.306.24.3.437.649.653.966.225.33.436.71.695 1.013.258.303.602.57.892.843.597.561 1.198 1.117 1.807 1.665.024.022.626.562.638.575.445.51.79 1.168 1.168 1.73a240 240 0 0 1 1.135 1.7c.018.026.466.701.473.716.008.015.282.778.292.807.095.262.191.522.283.785.052.15.147.295.153.454.004.092-.236.855-.26.934-.726.518-1.31 1.219-2.061 1.715-.348.23-.75.384-1.109.598-.347.208-.68.451-1.016.675-.467.31-.954.584-1.438.866-.04.023-.731.428-.754.436-.022.008-.811.147-.856.155-.696.122-1.675.188-2.322-.171-.13-.072-.217-.204-.334-.295-.198-.153-.437-.25-.631-.407-.042-.034-.546-.551-.598-.599-.309-.28-.68-.505-.974-.8-.669-.671-1.172-1.529-1.699-2.31a20.251 20.251 0 0 1-1.455-2.531c-.015-.03-.365-.76-.37-.777-.007-.018-.157-.809-.164-.844-.077-.395-.243-.852-.15-1.26.082-.354.263-.357.493-.591.49-.498.927-1.039 1.444-1.514 1.112-1.02 2.283-1.974 3.393-2.993.689-.632 1.275-1.326 2.053-1.851 0 0 .14-.094.252.012zm11.754 15.97a.288.288 0 0 1 .086-.008c.138.007.194.198.28.306.24.3.438.649.654.966.224.33.435.71.694 1.013.259.303.602.57.893.843.596.561 1.197 1.117 1.806 1.665.025.022.627.562.638.575.446.51.79 1.168 1.169 1.73a240 240 0 0 1 1.135 1.7c.017.026.465.701.473.716.007.015.281.778.292.807.094.262.191.522.282.785.053.15.147.295.154.454.003.092-.236.855-.26.934-.727.518-1.311 1.219-2.061 1.715-.348.23-.751.384-1.11.598-.347.208-.679.451-1.016.675-.467.31-.954.584-1.438.866-.039.023-.73.428-.753.436-.023.008-.812.147-.856.155-.696.122-1.676.188-2.322-.171-.13-.072-.217-.204-.335-.295-.198-.153-.436-.25-.63-.407-.043-.034-.546-.551-.598-.599-.31-.28-.68-.505-.974-.8-.669-.671-1.173-1.529-1.7-2.31a20.25 20.25 0 0 1-1.455-2.531c-.014-.03-.365-.76-.37-.777-.006-.018-.156-.809-.163-.844-.077-.395-.243-.852-.15-1.26.081-.354.262-.357.493-.591.49-.498.926-1.039 1.444-1.514 1.111-1.02 2.282-1.974 3.392-2.993.69-.632 1.275-1.326 2.053-1.851 0 0 .14-.094.253.012zm-34.828-16.42a.288.288 0 0 1 .086-.01c.139.008.194.199.28.307.24.3.438.649.654.966.225.33.435.71.694 1.013.26.303.602.57.893.843a118.617 118.617 0 0 0 2.444 2.24c.446.509.79 1.168 1.169 1.729.381.565.759 1.132 1.135 1.7.017.027.466.702.473.717.007.014.281.777.292.807.094.262.191.522.282.785.053.15.148.294.154.454.003.092-.236.854-.26.934-.727.517-1.31 1.218-2.061 1.715-.348.23-.75.384-1.11.598-.347.208-.678.45-1.016.675-.467.31-.953.584-1.437.866-.04.023-.731.427-.754.436-.022.008-.812.147-.856.155-.696.121-1.675.188-2.322-.171-.13-.073-.217-.204-.335-.295-.197-.154-.436-.25-.63-.407-.042-.034-.546-.551-.598-.599-.309-.28-.68-.505-.974-.8-.669-.672-1.172-1.529-1.7-2.31a20.251 20.251 0 0 1-1.455-2.531c-.014-.03-.364-.76-.37-.777-.006-.018-.156-.81-.163-.844-.077-.396-.243-.853-.15-1.26.082-.354.263-.357.493-.592.49-.497.927-1.038 1.444-1.513 1.111-1.02 2.282-1.974 3.393-2.993.688-.632 1.274-1.326 2.052-1.851 0 0 .14-.095.253.012zm10.486 14.716a.288.288 0 0 1 .087-.009c.138.008.193.198.28.306.24.3.437.65.653.967.225.33.436.71.695 1.013.258.303.602.57.892.843.597.56 1.198 1.117 1.807 1.665.024.021.626.562.638.575.445.509.79 1.168 1.168 1.729a239.133 239.133 0 0 1 1.608 2.417c.008.014.282.777.292.807.095.262.191.522.283.784.052.152.147.295.153.455.004.092-.236.854-.26.934-.726.517-1.31 1.218-2.061 1.715-.348.23-.75.384-1.109.598-.347.207-.68.45-1.016.674-.467.31-.954.585-1.438.867-.04.023-.731.427-.754.436-.022.008-.811.147-.856.155-.696.121-1.675.188-2.322-.171-.13-.073-.217-.204-.334-.295-.198-.154-.437-.25-.631-.407-.042-.034-.546-.551-.598-.599-.309-.28-.68-.505-.974-.8-.668-.672-1.172-1.529-1.699-2.31a20.252 20.252 0 0 1-1.455-2.531c-.015-.03-.365-.76-.37-.777-.007-.018-.157-.81-.164-.844-.077-.396-.243-.853-.15-1.26.082-.354.263-.357.493-.592.49-.497.927-1.038 1.444-1.513 1.112-1.02 2.283-1.974 3.393-2.993.689-.632 1.275-1.326 2.053-1.851 0 0 .14-.095.252.012zm11.754 15.97a.288.288 0 0 1 .086-.009c.138.008.194.198.28.306.24.3.438.65.654.967.224.33.435.71.694 1.013.259.303.602.57.893.843a118.617 118.617 0 0 0 2.444 2.24c.446.509.79 1.168 1.169 1.729.381.565.758 1.132 1.135 1.7.017.026.465.702.473.717.007.014.281.777.292.807.094.262.191.522.282.784.053.152.148.295.154.455.003.092-.236.854-.26.934-.727.517-1.311 1.218-2.061 1.715-.348.23-.751.384-1.11.598-.347.207-.679.45-1.016.674-.467.31-.954.585-1.438.867-.039.023-.73.427-.753.436-.023.008-.812.147-.856.155-.696.121-1.675.188-2.322-.171-.13-.073-.217-.204-.335-.295-.198-.154-.436-.25-.63-.407-.043-.034-.546-.552-.598-.599-.309-.28-.68-.505-.974-.8-.669-.672-1.173-1.529-1.7-2.31a20.251 20.251 0 0 1-1.455-2.531c-.014-.03-.365-.76-.37-.777-.006-.018-.156-.81-.163-.844-.077-.396-.243-.853-.15-1.26.082-.354.262-.357.493-.592.49-.497.927-1.038 1.444-1.513 1.111-1.02 2.282-1.974 3.393-2.993.688-.632 1.274-1.326 2.052-1.851 0 0 .14-.095.253.012zm35.576-12.069a.288.288 0 0 1 .086-.009c.138.007.193.198.28.306.24.3.437.65.653.967.225.33.435.71.694 1.013.26.302.602.57.893.843.597.56 1.197 1.117 1.806 1.664.025.022.627.563.638.576.446.509.79 1.167 1.169 1.729.381.565.759 1.132 1.135 1.7.017.026.466.702.473.717.007.014.281.777.292.807.094.261.191.522.283.784.052.151.147.295.153.455.003.092-.236.854-.26.934-.727.517-1.31 1.218-2.061 1.715-.348.23-.75.384-1.11.598-.347.207-.678.45-1.016.674-.467.31-.953.585-1.437.867-.04.023-.731.427-.754.436-.022.008-.812.147-.856.155-.696.121-1.675.188-2.322-.172-.13-.072-.217-.203-.334-.294-.198-.154-.437-.25-.632-.408-.041-.033-.545-.55-.597-.598-.309-.28-.68-.505-.974-.8-.669-.672-1.172-1.53-1.7-2.31a20.251 20.251 0 0 1-1.455-2.532c-.014-.03-.364-.76-.37-.776-.006-.018-.156-.81-.163-.844-.077-.396-.243-.853-.15-1.26.082-.355.263-.358.493-.592.49-.497.927-1.038 1.444-1.513 1.111-1.02 2.282-1.974 3.393-2.993.688-.632 1.274-1.326 2.053-1.851 0 0 .14-.095.252.012zm-11.14 13.288a.288.288 0 0 1 .086-.009c.138.008.194.198.28.306.24.3.437.65.654.967.224.33.435.71.694 1.013.259.303.602.57.892.843.597.56 1.198 1.117 1.807 1.665.024.021.627.562.638.575.446.509.79 1.168 1.169 1.729.38.565.758 1.132 1.135 1.7.017.027.465.702.473.717.007.014.281.777.292.807.094.262.19.522.282.785.053.15.147.294.153.454.004.092-.236.854-.26.934-.726.517-1.31 1.218-2.06 1.715-.349.23-.751.384-1.11.598-.347.208-.679.45-1.016.674-.467.31-.954.585-1.438.867-.039.023-.73.427-.753.436-.023.008-.812.147-.857.155-.696.121-1.675.188-2.321-.171-.13-.073-.217-.204-.335-.295-.198-.154-.436-.25-.631-.407-.042-.034-.545-.551-.597-.599-.31-.28-.68-.505-.974-.8-.67-.672-1.173-1.529-1.7-2.31a20.251 20.251 0 0 1-1.455-2.531c-.015-.03-.365-.76-.37-.777-.006-.018-.157-.81-.163-.844-.078-.396-.243-.853-.15-1.26.081-.354.262-.357.493-.592.489-.497.926-1.038 1.444-1.513 1.111-1.02 2.282-1.974 3.392-2.993.689-.632 1.275-1.326 2.053-1.851 0 0 .14-.095.253.012zM68.222 239.49a.288.288 0 0 1 .086-.008c.138.007.194.198.28.306.24.3.438.65.654.967.224.33.435.71.694 1.013.259.302.602.57.892.843.597.56 1.198 1.117 1.807 1.664.024.022.627.563.638.576.446.509.79 1.167 1.169 1.729.38.564.758 1.132 1.135 1.7.017.026.465.702.473.717.007.014.281.777.292.807.094.261.19.522.282.784.053.151.147.295.153.455.004.092-.236.854-.26.933-.726.518-1.31 1.22-2.06 1.716-.349.23-.751.384-1.11.598-.347.207-.679.45-1.016.674-.467.31-.954.585-1.438.867-.039.023-.73.427-.753.435-.023.009-.812.148-.857.156-.696.121-1.675.187-2.321-.172-.13-.072-.217-.203-.335-.294-.198-.154-.436-.25-.631-.408-.042-.033-.545-.55-.597-.598-.31-.28-.68-.505-.974-.8-.67-.672-1.173-1.53-1.7-2.31a20.25 20.25 0 0 1-1.455-2.532c-.015-.03-.365-.76-.37-.776-.006-.018-.157-.81-.163-.844-.078-.396-.243-.853-.15-1.26.081-.355.262-.358.493-.592.489-.497.926-1.038 1.444-1.513 1.111-1.02 2.282-1.974 3.392-2.993.689-.632 1.275-1.326 2.053-1.852 0 0 .14-.094.253.013zm35.292-10.613a.288.288 0 0 1 .087-.008c.138.007.193.198.28.306.24.3.437.65.653.966.225.33.436.71.694 1.013.26.303.602.57.893.843.597.561 1.198 1.117 1.807 1.665.024.022.626.562.638.575.445.51.79 1.168 1.168 1.73.381.564.759 1.131 1.135 1.7.018.026.466.701.473.716.008.015.282.778.292.807.094.262.191.522.283.785.052.15.147.295.153.455.004.091-.236.854-.26.933-.726.518-1.31 1.219-2.061 1.715-.348.23-.75.384-1.109.598-.347.208-.68.451-1.016.675-.468.31-.954.584-1.438.866-.04.023-.731.428-.754.436-.022.008-.811.147-.856.155-.696.122-1.675.188-2.322-.171-.13-.072-.217-.204-.334-.295-.198-.153-.437-.25-.631-.407-.042-.034-.546-.551-.598-.599-.309-.28-.68-.505-.974-.8-.669-.671-1.172-1.529-1.699-2.309a20.25 20.25 0 0 1-1.455-2.532c-.015-.03-.365-.76-.37-.777-.007-.018-.157-.809-.164-.844-.077-.395-.243-.852-.15-1.26.082-.354.263-.357.493-.591.49-.498.927-1.039 1.444-1.513 1.112-1.02 2.283-1.974 3.393-2.993.689-.632 1.275-1.327 2.053-1.852 0 0 .14-.094.252.012zm-11.139 13.289a.288.288 0 0 1 .086-.01c.138.008.194.199.28.307.24.3.438.65.654.967.224.329.435.71.694 1.012.259.303.602.57.893.844.596.56 1.197 1.117 1.806 1.664.024.022.627.563.638.576.446.508.79 1.167 1.169 1.728.38.565.758 1.133 1.135 1.7.017.027.465.703.473.717.007.015.281.778.292.808.094.261.191.522.282.784.053.151.147.295.154.455.003.092-.236.854-.26.933-.727.518-1.311 1.219-2.061 1.716-.348.23-.751.383-1.11.597-.347.208-.679.451-1.016.675-.467.31-.954.584-1.438.867-.039.022-.73.427-.753.435-.023.008-.812.147-.856.155-.697.122-1.676.188-2.322-.17-.13-.073-.217-.205-.335-.296-.198-.153-.436-.25-.63-.407-.043-.034-.546-.551-.598-.598-.31-.281-.68-.506-.974-.801-.669-.671-1.173-1.528-1.7-2.309a20.252 20.252 0 0 1-1.455-2.532c-.014-.03-.365-.76-.37-.777-.006-.018-.156-.809-.163-.844-.077-.395-.243-.852-.15-1.259.081-.355.262-.358.493-.592.49-.497.926-1.038 1.444-1.513 1.111-1.02 2.282-1.974 3.392-2.993.69-.632 1.275-1.327 2.053-1.852 0 0 .14-.094.253.013zm-12.588 14.265a.288.288 0 0 1 .086-.008c.138.007.194.198.28.306.24.3.438.649.654.966.224.33.435.71.694 1.013.259.303.602.57.893.843.596.561 1.197 1.117 1.806 1.665.025.022.627.562.638.575.446.51.79 1.168 1.169 1.73.381.564.758 1.131 1.135 1.7.017.026.465.701.473.716.007.015.281.778.292.807.094.262.191.522.282.785.053.15.147.295.154.454.003.092-.236.855-.26.934-.727.517-1.311 1.219-2.061 1.715-.348.23-.751.384-1.11.598-.347.208-.679.451-1.016.675-.467.31-.954.584-1.438.866-.039.023-.73.428-.753.436-.023.008-.812.147-.856.155-.696.122-1.676.188-2.322-.171-.13-.072-.217-.204-.335-.295-.198-.153-.436-.25-.63-.407-.043-.034-.546-.551-.598-.599-.31-.28-.68-.505-.974-.8-.669-.671-1.173-1.529-1.7-2.31a20.252 20.252 0 0 1-1.455-2.531c-.014-.03-.365-.76-.37-.777-.006-.018-.156-.809-.163-.844-.077-.396-.243-.852-.15-1.26.081-.354.262-.357.493-.591.49-.498.926-1.039 1.444-1.514 1.111-1.02 2.282-1.974 3.392-2.993.69-.632 1.275-1.326 2.053-1.851 0 0 .14-.094.253.012zm-50.714-43.432a.823.823 0 0 1 .138.109c.255.24.653.905.975 1.368.894 1.285 1.79 2.654 2.67 3.955.913 1.35 1.882 2.835 2.814 4.159.931 1.324 1.956 2.674 2.897 3.957 1.932 2.636 3.864 5.266 5.797 7.881a1892.9 1892.9 0 0 1 2.028 2.746c1.585 2.242 3.226 4.778 4.775 7.074 1.56 2.31 3.116 4.622 4.671 6.934.072.107 1.924 2.858 1.96 2.914.036.056 1.717 2.798 1.783 2.905.577.94 1.157 1.881 1.73 2.82.33.54.723 1.125.985 1.619.15.283.926 2.216 1.008 2.419-.465.426-.393 1.632-.934 1.957-.25.15-.719-.017-1.013.068-.286.083-.488.299-.73.446-.336.205-.762.272-1.17.366-.034.008-.616.146-.643.136-.027-.01-1.198-.83-1.264-.876-1.035-.726-2.655-2.064-4.358-4.167-.343-.423-.703-.959-1.053-1.42-.59-.775-1.161-1.442-1.752-2.225-.126-.168-1.826-2.526-1.992-2.752-.985-1.335-1.99-2.598-2.974-3.956-2.232-3.084-4.467-6.472-6.62-9.664a479.26 479.26 0 0 1-6.543-9.958c-.074-.115-1.837-2.875-1.873-2.934-.039-.064-1.547-2.697-1.614-2.813-.757-1.32-1.768-2.965-2.243-4.05-.414-.948-.1-.673-.062-1.02.08-.738 0-1.69.165-2.315.354-1.343.917-2.393 1.271-3.735.22-.832.161-2.015.706-2.383 0 0 .098-.066.465.435z"/></g><g stroke="#000" stroke-width="2.5"><path fill="#2d4c00" d="M554.18 118.761a1.63 1.63 0 0 1-.524.15c-.894.103-1.74-1.076-2.567-1.683-2.298-1.686-4.45-3.742-6.641-5.568-2.275-1.895-4.595-4.137-7.018-5.822-2.423-1.685-5.29-3.05-7.836-4.507a1012.278 1012.278 0 0 0-15.752-8.848c-.21-.115-5.425-2.973-5.53-3.044-4.142-2.821-8.025-6.724-11.877-9.957a2234.805 2234.805 0 0 1-11.59-9.81 978.66 978.66 0 0 1-4.851-4.139c-.085-.087-3.796-4.743-3.94-4.924-1.273-1.596-2.562-3.182-3.82-4.787-.723-.924-1.695-1.755-2.147-2.786-.26-.592-.716-5.801-.769-6.342 3.262-4.148 5.148-9.334 8.616-13.372 1.608-1.872 3.762-3.305 5.477-5.084 1.663-1.724 3.136-3.663 4.693-5.481 2.157-2.518 4.53-4.829 6.865-7.186.189-.19 3.524-3.566 3.645-3.645.122-.078 4.762-1.835 5.023-1.935 4.095-1.544 10.125-3.036 15.15-1.406 1.01.328 1.903 1.087 2.883 1.551 1.65.782 3.411 1.149 5.052 1.96.352.173 4.879 2.986 5.333 3.238 2.682 1.487 5.61 2.544 8.241 4.143 5.973 3.63 11.382 8.65 16.739 13.146 5.592 4.726 10.767 9.545 15.773 14.86.171.183 4.277 4.54 4.356 4.642.083.11 3.083 5.084 3.216 5.303 1.514 2.485 3.747 5.272 4.209 8.014.403 2.393-.736 2.608-1.59 4.38-1.812 3.758-3.182 7.744-5.23 11.389-4.4 7.828-9.348 15.29-13.744 23.11-2.727 4.85-4.642 9.994-8.212 14.247 0 0-.641.763-1.633.193z"/><path fill="#5a9700" d="M554.254 112.061a.289.289 0 0 1-.08.032c-.136.031-.242-.137-.355-.217-.313-.222-.599-.504-.894-.75-.306-.254-.614-.562-.946-.782-.332-.22-.736-.383-1.09-.565-.728-.375-1.459-.744-2.195-1.103-.03-.014-.757-.368-.772-.378-.568-.366-1.08-.905-1.599-1.34-.522-.438-1.04-.88-1.56-1.322-.023-.02-.64-.547-.651-.559-.011-.012-.485-.67-.503-.696-.163-.225-.328-.449-.488-.676-.092-.13-.222-.243-.272-.395-.029-.087-.008-.886-.007-.969.556-.698.925-1.532 1.51-2.216.27-.318.615-.576.9-.88.278-.296.53-.62.792-.929.364-.426.756-.824 1.144-1.229.031-.032.585-.612.604-.626.02-.014.74-.365.781-.385.636-.308 1.559-.641 2.28-.474.144.034.264.136.402.191.232.093.488.12.719.218.05.021.676.38.739.411.374.185.792.299 1.157.502.827.46 1.547 1.146 2.269 1.752a20.25 20.25 0 0 1 2.096 2.033c.022.026.56.63.57.645.01.016.372.735.389.767.183.359.468.752.49 1.169.02.364-.153.416-.31.705-.334.613-.606 1.253-.972 1.852-.788 1.287-1.651 2.526-2.438 3.811-.488.797-.86 1.626-1.464 2.345 0 0-.108.13-.246.058zm-14.132-11.262a.288.288 0 0 1-.08.032c-.136.031-.242-.137-.354-.217-.314-.222-.6-.504-.895-.75-.306-.255-.614-.562-.946-.782-.332-.22-.736-.383-1.09-.565-.728-.375-1.459-.745-2.195-1.103-.03-.015-.757-.369-.772-.378-.568-.366-1.08-.905-1.599-1.34-.522-.438-1.04-.88-1.56-1.323-.023-.02-.64-.546-.651-.558-.011-.012-.485-.67-.503-.696-.163-.225-.327-.45-.487-.676-.093-.131-.223-.243-.273-.395-.029-.088-.008-.886-.007-.97.556-.697.925-1.532 1.51-2.216.27-.317.615-.575.9-.88.278-.295.53-.62.792-.928.364-.426.756-.824 1.144-1.229.031-.033.585-.612.605-.626.019-.014.74-.365.78-.385.636-.308 1.559-.641 2.28-.474.144.033.264.136.402.191.233.093.488.12.719.218.05.02.676.38.739.41.374.186.792.3 1.157.503.827.46 1.547 1.146 2.269 1.751a20.251 20.251 0 0 1 2.096 2.034c.022.025.56.63.57.645.01.015.373.735.389.766.183.36.468.753.49 1.17.02.364-.153.416-.31.705-.334.613-.605 1.253-.972 1.852-.788 1.287-1.651 2.526-2.438 3.811-.488.797-.86 1.626-1.464 2.345 0 0-.108.13-.246.058zM524.427 88.68a.288.288 0 0 1-.081.033c-.135.03-.24-.137-.354-.217-.313-.222-.599-.504-.894-.75-.306-.255-.614-.563-.946-.782-.332-.22-.736-.383-1.09-.565-.728-.375-1.459-.745-2.195-1.103-.03-.015-.757-.369-.772-.378-.568-.367-1.08-.905-1.6-1.34a279.024 279.024 0 0 1-2.21-1.881c-.011-.012-.485-.67-.503-.696-.163-.225-.328-.45-.488-.676-.092-.131-.222-.243-.272-.395-.029-.088-.008-.886-.007-.97.556-.697.924-1.532 1.51-2.216.27-.317.615-.575.9-.88.277-.295.53-.62.792-.928.364-.426.756-.824 1.144-1.229.031-.033.585-.612.604-.626.02-.014.74-.365.78-.385.637-.308 1.56-.642 2.28-.474.145.033.265.136.403.191.232.093.488.12.719.218.05.02.675.38.739.41.374.185.792.3 1.156.502.828.461 1.548 1.147 2.27 1.752a20.251 20.251 0 0 1 2.096 2.034c.022.025.56.63.57.645.01.015.372.735.388.766.184.36.469.753.491 1.17.02.363-.154.416-.31.705-.334.612-.606 1.253-.972 1.852-.788 1.286-1.651 2.526-2.438 3.811-.488.797-.86 1.626-1.464 2.345 0 0-.108.13-.246.058zm36.878 7.54a.288.288 0 0 1-.08.032c-.135.031-.24-.137-.354-.217-.313-.222-.599-.504-.894-.75-.307-.254-.614-.562-.946-.782-.332-.22-.736-.383-1.09-.565-.728-.375-1.459-.744-2.195-1.103-.03-.014-.757-.368-.772-.378-.569-.366-1.08-.905-1.6-1.34a278.841 278.841 0 0 1-2.21-1.881c-.011-.012-.485-.67-.503-.696-.163-.225-.328-.449-.488-.676-.092-.13-.223-.243-.272-.395-.03-.087-.009-.886-.007-.969.556-.698.924-1.532 1.509-2.216.271-.318.616-.576.901-.88.277-.296.53-.62.792-.929.364-.426.756-.824 1.144-1.229.031-.032.585-.612.604-.626.02-.014.74-.365.78-.384.636-.309 1.56-.642 2.28-.475.145.034.265.136.403.191.232.093.488.12.719.218.05.021.675.38.739.411.374.185.792.299 1.156.502.828.46 1.548 1.146 2.27 1.752a20.251 20.251 0 0 1 2.096 2.033c.022.026.56.63.57.645.01.016.372.735.388.767.183.359.469.752.49 1.17.02.363-.153.415-.31.704-.333.613-.605 1.253-.971 1.852-.788 1.287-1.651 2.526-2.438 3.811-.488.798-.86 1.626-1.464 2.345 0 0-.109.13-.247.058zm-14.132-11.262a.288.288 0 0 1-.08.032c-.135.031-.24-.137-.354-.217-.313-.222-.599-.504-.894-.75-.307-.254-.614-.562-.946-.782-.332-.22-.736-.383-1.09-.565a111.76 111.76 0 0 0-2.195-1.103c-.03-.014-.757-.368-.772-.378-.569-.366-1.08-.905-1.6-1.34a239.72 239.72 0 0 1-1.558-1.322 77.91 77.91 0 0 1-.652-.56c-.011-.011-.485-.67-.503-.695-.163-.225-.328-.45-.488-.676-.092-.131-.222-.243-.272-.395-.029-.088-.009-.886-.007-.97.556-.697.924-1.532 1.509-2.216.271-.317.616-.575.902-.88.276-.295.528-.62.791-.928.364-.426.756-.824 1.144-1.229.031-.032.585-.612.604-.626.02-.014.74-.365.78-.385.637-.308 1.56-.641 2.28-.474.145.033.265.136.403.191.232.093.488.12.719.218.05.02.675.38.739.41.374.186.792.3 1.156.503.828.46 1.548 1.146 2.27 1.751a20.25 20.25 0 0 1 2.096 2.034c.022.025.56.63.57.645.01.015.372.735.388.766.184.36.469.753.491 1.17.02.364-.154.416-.31.705-.334.613-.606 1.253-.972 1.852-.788 1.287-1.651 2.526-2.438 3.811-.488.797-.86 1.626-1.464 2.345 0 0-.109.13-.247.058zM531.478 72.84a.288.288 0 0 1-.08.032c-.135.031-.241-.137-.354-.217-.313-.222-.599-.504-.894-.75-.307-.255-.614-.562-.946-.782-.332-.22-.736-.383-1.09-.565a112.48 112.48 0 0 0-2.195-1.103c-.03-.015-.758-.369-.772-.378-.569-.366-1.08-.905-1.6-1.34a272.916 272.916 0 0 1-2.21-1.881c-.012-.012-.485-.67-.504-.696-.162-.225-.327-.45-.487-.676-.092-.131-.223-.243-.273-.395-.028-.088-.008-.886-.006-.97.555-.697.924-1.532 1.509-2.216.271-.317.616-.575.901-.88.277-.295.53-.62.792-.928.364-.426.756-.824 1.144-1.229.03-.033.585-.612.604-.626.02-.014.74-.365.78-.385.636-.308 1.56-.641 2.28-.474.145.033.265.136.403.191.232.093.488.12.719.218.049.02.675.38.739.41.374.186.792.3 1.156.503.828.46 1.548 1.146 2.27 1.751a20.251 20.251 0 0 1 2.095 2.034c.023.025.56.63.57.645.01.015.373.735.39.766.182.36.468.753.49 1.17.02.364-.154.416-.31.705-.334.613-.606 1.253-.972 1.852-.788 1.287-1.651 2.526-2.438 3.811-.489.797-.86 1.626-1.464 2.345 0 0-.109.13-.247.058zm38.002 6.2a.288.288 0 0 1-.08.033c-.135.03-.24-.137-.354-.217-.313-.222-.599-.504-.894-.75-.306-.255-.614-.563-.946-.782-.332-.22-.736-.383-1.09-.565-.728-.375-1.459-.745-2.195-1.103-.03-.015-.757-.369-.772-.378-.568-.367-1.08-.905-1.599-1.34a279.43 279.43 0 0 1-1.56-1.323c-.023-.02-.64-.546-.651-.558-.011-.012-.485-.67-.503-.696-.163-.226-.328-.45-.488-.676-.092-.131-.222-.243-.272-.395-.029-.088-.008-.887-.007-.97.556-.697.925-1.532 1.51-2.216.27-.317.615-.575.9-.88.278-.295.53-.62.792-.928.364-.426.756-.824 1.144-1.229.031-.033.585-.612.604-.626.02-.014.74-.365.781-.385.636-.308 1.559-.642 2.28-.474.144.033.264.136.402.191.232.093.488.12.719.218.05.02.676.38.739.41.374.185.792.3 1.157.502.827.461 1.547 1.147 2.269 1.752a20.251 20.251 0 0 1 2.096 2.034c.022.025.56.63.57.645.01.015.372.735.389.766.183.36.468.753.49 1.17.02.363-.153.416-.31.705-.334.612-.606 1.253-.972 1.852-.788 1.286-1.651 2.526-2.438 3.811-.488.797-.86 1.626-1.464 2.345 0 0-.108.13-.246.058zm-14.131-11.262a.288.288 0 0 1-.08.033c-.136.03-.242-.138-.354-.218-.314-.222-.6-.503-.895-.749-.306-.255-.614-.563-.946-.783-.332-.22-.736-.382-1.09-.565a111.76 111.76 0 0 0-2.195-1.103c-.03-.014-.757-.368-.772-.377-.568-.367-1.08-.905-1.599-1.34-.522-.439-1.04-.88-1.56-1.323-.023-.02-.64-.547-.651-.559-.011-.012-.485-.67-.503-.695-.163-.226-.328-.45-.488-.677-.092-.13-.222-.243-.272-.395-.029-.087-.008-.886-.007-.969.556-.697.925-1.532 1.51-2.216.27-.317.615-.576.9-.88.278-.295.53-.62.792-.928.364-.427.756-.825 1.144-1.23.031-.032.585-.611.605-.625.019-.015.74-.365.78-.385.636-.309 1.559-.642 2.28-.475.144.034.264.136.402.192.233.093.488.12.719.217.05.021.676.38.739.411.374.185.792.3 1.157.502.827.461 1.547 1.147 2.269 1.752a20.251 20.251 0 0 1 2.096 2.034c.022.025.56.63.57.644.01.016.373.735.389.767.183.359.468.753.49 1.17.02.363-.153.416-.31.704-.334.613-.606 1.254-.972 1.853-.788 1.286-1.651 2.525-2.438 3.81-.488.798-.86 1.627-1.464 2.346 0 0-.108.129-.246.057zM539.654 55.66a.288.288 0 0 1-.081.032c-.135.032-.24-.137-.354-.217-.313-.222-.599-.504-.894-.75-.306-.254-.614-.562-.946-.782-.332-.22-.736-.382-1.09-.565a118.364 118.364 0 0 0-2.967-1.48c-.569-.367-1.08-.905-1.6-1.34a279.024 279.024 0 0 1-2.21-1.882c-.011-.012-.485-.67-.503-.695-.163-.226-.328-.45-.488-.677-.092-.13-.222-.243-.272-.395-.029-.087-.009-.886-.007-.969.556-.697.924-1.532 1.51-2.216.27-.317.615-.576.9-.88.277-.295.53-.62.792-.928.364-.427.756-.825 1.144-1.23.031-.032.585-.611.604-.625.02-.015.74-.365.78-.385.637-.309 1.56-.642 2.28-.475.145.034.265.136.403.192.232.093.488.12.719.217.05.021.675.38.739.411.374.185.792.3 1.156.502.828.461 1.548 1.147 2.27 1.752a20.25 20.25 0 0 1 2.096 2.034c.022.025.56.63.57.644.01.016.372.735.388.767.184.359.469.753.491 1.17.02.363-.154.416-.31.704-.334.613-.606 1.254-.972 1.852-.788 1.287-1.651 2.526-2.438 3.812-.488.797-.86 1.626-1.464 2.345 0 0-.109.129-.246.057zm-30.88 21.395a.288.288 0 0 1-.08.032c-.135.031-.241-.137-.354-.217-.313-.222-.599-.504-.894-.75-.307-.254-.614-.562-.946-.782-.332-.22-.736-.383-1.09-.565-.729-.375-1.46-.744-2.195-1.103-.03-.014-.757-.368-.772-.378-.569-.366-1.08-.905-1.6-1.34a278.841 278.841 0 0 1-2.21-1.881c-.012-.012-.485-.67-.504-.696-.162-.225-.327-.449-.487-.676-.092-.13-.223-.243-.272-.395-.03-.087-.009-.886-.007-.969.556-.698.924-1.532 1.509-2.216.271-.318.616-.576.901-.88.277-.296.53-.62.792-.929.364-.426.756-.824 1.144-1.229.031-.032.585-.612.604-.626.02-.014.74-.365.78-.385.636-.308 1.56-.641 2.28-.474.145.034.265.136.403.191.232.093.488.12.719.218.049.021.675.38.739.411.374.185.792.299 1.156.502.828.46 1.548 1.146 2.27 1.752a20.251 20.251 0 0 1 2.095 2.033c.023.026.56.63.57.645.01.016.373.735.39.767.182.359.468.752.49 1.169.02.364-.154.416-.31.705-.334.613-.606 1.253-.972 1.852-.788 1.287-1.651 2.526-2.438 3.811-.488.797-.86 1.626-1.464 2.345 0 0-.109.13-.247.058zm7.052-15.841a.288.288 0 0 1-.08.032c-.135.031-.241-.137-.354-.217-.314-.222-.6-.504-.894-.75-.307-.254-.614-.562-.946-.782-.333-.22-.736-.383-1.09-.565a115.43 115.43 0 0 0-2.196-1.103 81.595 81.595 0 0 1-.771-.378c-.569-.366-1.08-.905-1.6-1.34-.522-.438-1.04-.88-1.559-1.322-.024-.02-.64-.547-.652-.559-.01-.012-.484-.67-.503-.696-.162-.225-.327-.449-.487-.676-.092-.13-.223-.243-.273-.395-.028-.087-.008-.886-.007-.969.556-.698.925-1.532 1.51-2.216.27-.318.616-.576.901-.88.277-.296.53-.62.792-.929.364-.426.756-.824 1.143-1.229.032-.032.585-.611.605-.626.02-.014.74-.365.78-.384.636-.309 1.56-.642 2.28-.475.144.034.264.136.402.191.233.093.489.12.72.218.049.021.675.38.738.411.374.185.793.299 1.157.502.828.46 1.548 1.146 2.269 1.752a20.251 20.251 0 0 1 2.096 2.033c.023.026.56.63.57.645.01.016.373.735.389.767.183.359.468.752.49 1.17.02.363-.153.415-.31.704-.334.613-.605 1.253-.972 1.852-.788 1.287-1.65 2.526-2.438 3.811-.488.798-.86 1.626-1.464 2.345 0 0-.108.13-.246.058zm8.175-17.179a.288.288 0 0 1-.08.032c-.135.03-.241-.137-.354-.217-.313-.222-.599-.504-.894-.75-.307-.255-.614-.563-.946-.782-.332-.22-.736-.383-1.09-.565a112.48 112.48 0 0 0-2.195-1.103c-.03-.015-.758-.369-.772-.378-.569-.367-1.08-.905-1.6-1.34a320.819 320.819 0 0 1-2.21-1.881c-.012-.012-.485-.67-.504-.696-.162-.226-.327-.45-.487-.676-.092-.131-.223-.243-.272-.395-.03-.088-.009-.887-.007-.97.555-.697.924-1.532 1.509-2.216.271-.317.616-.575.901-.88.277-.295.53-.62.792-.928.364-.426.756-.824 1.144-1.23.031-.032.585-.611.604-.625.02-.014.74-.365.78-.385.636-.308 1.56-.642 2.28-.474.145.033.265.136.403.191.232.093.488.12.719.218.049.02.675.38.739.41.374.185.792.3 1.156.502.828.461 1.548 1.147 2.27 1.752a20.251 20.251 0 0 1 2.095 2.034c.023.025.56.63.57.645.01.015.373.735.39.766.182.36.468.753.49 1.17.02.363-.154.416-.31.705-.334.612-.606 1.253-.972 1.852-.788 1.286-1.651 2.526-2.438 3.811-.488.797-.86 1.626-1.464 2.345 0 0-.109.13-.247.058zm-31.008 19.917a.288.288 0 0 1-.08.032c-.135.031-.241-.137-.354-.217-.313-.222-.599-.504-.894-.75-.307-.254-.614-.562-.946-.782-.333-.22-.736-.383-1.09-.565a115.43 115.43 0 0 0-2.196-1.103 81.595 81.595 0 0 1-.771-.378c-.569-.366-1.08-.905-1.6-1.34a320.586 320.586 0 0 1-2.211-1.881c-.01-.012-.484-.67-.503-.696-.162-.225-.327-.449-.487-.676-.092-.13-.223-.243-.273-.395-.028-.087-.008-.886-.007-.969.556-.698.925-1.532 1.51-2.216.27-.318.616-.576.901-.88.277-.296.53-.62.792-.929.364-.426.756-.824 1.144-1.229.03-.032.585-.612.604-.626.02-.014.74-.365.78-.384.636-.309 1.56-.642 2.28-.475.144.034.264.136.403.191.232.093.488.12.718.218.05.021.676.38.74.411.374.185.792.299 1.156.502.828.46 1.548 1.146 2.269 1.752a20.25 20.25 0 0 1 2.096 2.033c.023.026.56.63.57.645.01.016.373.735.39.767.182.359.467.752.49 1.17.02.363-.154.415-.311.704-.334.613-.605 1.253-.972 1.852-.787 1.287-1.65 2.526-2.438 3.811-.488.798-.86 1.626-1.463 2.345 0 0-.109.13-.247.058zm7.052-15.841a.288.288 0 0 1-.08.032c-.135.031-.241-.137-.354-.217-.314-.222-.6-.504-.895-.75-.306-.254-.613-.562-.946-.782-.332-.22-.735-.382-1.09-.565-.728-.375-1.459-.744-2.195-1.103-.03-.014-.757-.368-.771-.378-.57-.366-1.081-.905-1.6-1.34a239.72 239.72 0 0 1-1.559-1.322c-.024-.02-.64-.547-.652-.559-.011-.012-.485-.67-.503-.696-.162-.225-.327-.449-.487-.676-.092-.13-.223-.243-.273-.395-.029-.087-.008-.886-.007-.969.556-.697.925-1.532 1.51-2.216.27-.317.615-.576.901-.88.277-.295.529-.62.792-.929.363-.426.756-.824 1.143-1.229.032-.032.585-.611.605-.626.02-.014.74-.365.78-.384.636-.309 1.559-.642 2.28-.475.144.034.264.136.402.191.233.094.489.12.72.218.049.021.675.38.738.411.374.185.792.299 1.157.502.827.461 1.548 1.146 2.269 1.752a20.251 20.251 0 0 1 2.096 2.033c.022.026.56.63.57.645.01.016.373.735.389.767.183.359.468.752.49 1.17.02.363-.153.415-.31.704-.334.613-.605 1.253-.972 1.852-.788 1.287-1.65 2.526-2.438 3.811-.488.798-.86 1.627-1.464 2.346 0 0-.108.129-.246.057zm8.175-17.179a.288.288 0 0 1-.08.032c-.135.03-.241-.137-.354-.217-.313-.222-.599-.504-.894-.75-.307-.255-.614-.563-.946-.782-.333-.22-.736-.383-1.09-.565-.729-.375-1.46-.745-2.196-1.103-.029-.015-.757-.369-.771-.378-.569-.367-1.08-.905-1.6-1.34a320.819 320.819 0 0 1-2.211-1.881c-.01-.012-.484-.67-.503-.696-.162-.226-.327-.45-.487-.676-.092-.131-.223-.243-.273-.395-.028-.088-.008-.887-.007-.97.556-.697.925-1.532 1.51-2.216.27-.317.616-.575.901-.88.277-.295.53-.62.792-.928.364-.426.756-.824 1.144-1.229.03-.033.585-.612.604-.626.02-.014.74-.365.78-.385.636-.308 1.56-.642 2.28-.474.144.033.264.136.402.191.233.093.489.12.72.218.049.02.675.38.738.41.375.185.793.3 1.157.502.828.461 1.548 1.147 2.269 1.752a20.251 20.251 0 0 1 2.096 2.034c.023.025.56.63.57.645.01.015.373.735.39.766.182.36.467.753.49 1.17.02.363-.154.416-.311.705-.334.612-.605 1.253-.972 1.852-.787 1.286-1.65 2.526-2.438 3.811-.488.797-.86 1.626-1.464 2.345 0 0-.108.13-.246.058zm60.71 27.796a.823.823 0 0 1-.163-.067c-.31-.16-.876-.69-1.313-1.047-1.214-.99-2.452-2.058-3.656-3.067-1.25-1.047-2.59-2.207-3.85-3.224-1.26-1.016-2.617-2.032-3.874-3.006a2464.55 2464.55 0 0 0-7.743-5.982c-.103-.079-2.651-2.038-2.706-2.082-2.14-1.719-4.416-3.705-6.537-5.486a5713.65 5713.65 0 0 1-6.4-5.38c-.098-.084-2.635-2.219-2.685-2.263-.05-.044-2.422-2.217-2.514-2.302-.813-.745-1.63-1.49-2.44-2.234-.465-.43-1.004-.883-1.392-1.285-.222-.232-1.5-1.876-1.635-2.048.33-.539-.072-1.678.359-2.14.2-.213.696-.18.955-.344.252-.158.387-.421.58-.63.266-.289.657-.47 1.024-.674.03-.016.552-.31.58-.307.029.003 1.381.468 1.457.494 1.195.413 3.12 1.253 5.337 2.807.445.312.94.728 1.402 1.075.78.583 1.514 1.067 2.297 1.657.168.127 2.45 1.926 2.673 2.097 1.314 1.013 2.629 1.95 3.948 2.985 2.995 2.35 6.075 4.993 9.025 7.468a479.193 479.193 0 0 1 9.03 7.773c.103.09 2.557 2.258 2.609 2.306.054.05 2.229 2.167 2.325 2.26 1.092 1.06 2.516 2.363 3.271 3.276.66.797.282.619.34.963.127.732.466 1.624.48 2.271.029 1.39-.224 2.553-.195 3.94.018.862.4 1.982-.023 2.486 0 0-.076.09-.566-.29z"/></g></g></svg>