<svg version="1.1" xmlns="http://www.w3.org/2000/svg" xmlns:xlink="http://www.w3.org/1999/xlink" width="110.5" height="110.5" viewBox="0,0,110.5,110.5"><g transform="translate(-264.75,-124.75)"><g data-paper-data="{&quot;isPaintingLayer&quot;:true}" fill-rule="nonzero" stroke-linecap="butt" stroke-linejoin="miter" stroke-miterlimit="10" stroke-dasharray="" stroke-dashoffset="0" style="mix-blend-mode: normal"><path d="M276.96642,156.23601c-1.6248,-3.5746 -0.9688,-10.1979 3.8995,-12.0235c5.1994,-1.9498 7.4741,-3.5746 17.8729,4.2244c8.319,6.2393 9.5322,10.6154 9.0989,12.0236l-5.8493,6.1742c-0.4333,-1.2998 -3.1196,-4.3544 -10.3988,-6.1742c-9.0989,-2.2747 -12.9984,-0.6499 -14.6232,-4.2245z" fill="#ffffff" stroke="none" stroke-width="1"/><path d="M367.95554,149.43693c-2.6,2.9245 -3.25,7.7991 -10.724,7.7991c-5.9791,0 -10.2902,2.8163 -12.6733,5.1993l-6.8241,-5.1993c0.8665,-2.383 4.4844,-8.1239 12.0235,-12.0235c9.4239,-4.8746 20.7979,1.2999 18.1979,4.2244z" fill="#ffffff" stroke="none" stroke-width="1"/><path d="M275.34164,189.05701c4.6795,-6.2392 18.1978,-8.8822 24.3721,-9.4238c0,-2.2748 1.0398,-8.254 5.1993,-13.9734c5.1994,-7.1491 9.0989,-12.9984 26.6468,-10.3987c17.5479,2.5997 17.2229,20.1476 19.1727,24.3721c1.9498,4.2244 0.9749,21.4474 -7.7991,28.5965c-8.7739,7.1492 -26.3218,8.4492 -38.0204,8.1242c-11.6986,-0.325 -21.1224,-5.1995 -26.9717,-8.1242c-5.8493,-2.9246 -8.449,-11.3736 -2.5997,-19.1727z" fill="#ffffff" stroke="none" stroke-width="1"/><path d="M307.8377,161.06166c0.4333,-1.4082 -0.7799,-5.7843 -9.0989,-12.0236c-10.3988,-7.799 -12.6735,-6.1742 -17.8729,-4.2244c-4.8683,1.8256 -5.5243,8.4489 -3.8995,12.0235c1.6248,3.5746 5.5243,1.9498 14.6232,4.2245c7.2792,1.8198 9.9655,4.8744 10.3988,6.1742zM344.55822,162.03641c2.3831,-2.383 6.6942,-5.1993 12.6733,-5.1993c7.474,0 8.124,-4.8746 10.724,-7.7991c2.6,-2.9245 -8.774,-9.099 -18.1979,-4.2244c-7.5391,3.8996 -11.157,9.6405 -12.0235,12.0235zM304.913,166.2608c5.1994,-7.1491 9.0989,-12.9984 26.6468,-10.3987c17.5479,2.5997 17.2229,20.1476 19.1727,24.3721c1.9498,4.2244 0.9749,21.4474 -7.7991,28.5965c-8.7739,7.1492 -26.3218,8.4492 -38.0204,8.1242c-11.6986,-0.325 -21.1224,-5.1995 -26.9717,-8.1242c-5.8493,-2.9246 -8.449,-11.3736 -2.5997,-19.1727c4.6795,-6.2392 18.1978,-8.8822 24.3721,-9.4238c0,-2.2748 1.0398,-8.254 5.1993,-13.9734z" fill="none" stroke="#000000" stroke-width="5"/><path d="M338.9031,195.71089c0,0 -7.95266,4.87874 -13.62046,6.71081c-6.32466,2.0444 -22.57344,4.98859 -22.57344,4.98859" fill="none" stroke="#000000" stroke-width="5"/><g><path d="M315.73738,185.44842c-2.50474,2.0068 -15.16804,-2.47367 -15.16804,-2.47367c0,0 -8.01701,7.96234 -11.63793,6.98404c-3.6233,-0.97768 -1.18292,-10.44545 -1.18292,-10.44545c0,0 -13.76306,-2.65571 -13.49515,-5.26807c0.26704,-2.6141 14.44062,-3.98205 14.44062,-3.98205c0,0 -0.49116,-9.60138 3.29441,-10.24011c3.79138,-0.63827 10.11228,7.9841 10.11228,7.9841c0,0 13.459,-3.2806 15.53024,-1.05965c2.07783,2.21763 -8.19117,8.91641 -8.19117,8.91641c0,0 8.80988,7.57597 6.29764,9.5845z" fill="#000000" stroke="none" stroke-width="0"/><path d="M288.23813,184.15762l-1.4348,-4.99275l11.12259,-17.41191l3.10407,2.66337c0,0 -12.76201,19.73512 -12.79185,19.74129z" fill="#ffffff" stroke="none" stroke-width="1"/><path d="M315.73738,185.44842c-2.50474,2.0068 -15.16804,-2.47367 -15.16804,-2.47367c0,0 -8.01701,7.96234 -11.63793,6.98404c-3.6233,-0.97768 -1.18292,-10.44545 -1.18292,-10.44545c0,0 -13.76306,-2.65571 -13.49515,-5.26807c0.26704,-2.6141 14.44062,-3.98205 14.44062,-3.98205c0,0 -0.49116,-9.60138 3.29441,-10.24011c3.79138,-0.63827 10.11228,7.9841 10.11228,7.9841c0,0 13.459,-3.2806 15.53024,-1.05965c2.07783,2.21763 -8.19117,8.91641 -8.19117,8.91641c0,0 8.80988,7.57597 6.29764,9.5845z" fill="none" stroke-opacity="0.62745" stroke="#ffdc00" stroke-width="2.5"/></g><g><path d="M354.61281,185.04058c-2.51885,1.86986 -15.0219,-2.42806 -15.0219,-2.42806c0,0 -8.08657,7.43192 -11.66648,6.48771c-3.58227,-0.94364 -1.00913,-9.82857 -1.00913,-9.82857c0,0 -13.62394,-2.58973 -13.31657,-5.044c0.30654,-2.45591 14.40185,-3.64639 14.40185,-3.64639c0,0 -0.33567,-9.03034 3.43333,-9.60531c3.77478,-0.57452 9.91456,7.57473 9.91456,7.57473c0,0 13.41603,-2.99352 15.43749,-0.89146c2.02805,2.09898 -8.27459,8.32774 -8.27459,8.32774c0,0 8.62779,7.18223 6.10146,9.05365z" fill="#000000" stroke="none" stroke-width="0"/><path d="M327.18004,184.15871l-1.34562,-4.70376l11.31987,-16.29524l3.04002,2.52501c0,0 -12.98451,18.4684 -13.01426,18.47401z" fill="#ffffff" stroke="none" stroke-width="1"/><path d="M354.61281,185.04058c-2.51885,1.86986 -15.0219,-2.42806 -15.0219,-2.42806c0,0 -8.08657,7.43192 -11.66648,6.48771c-3.58227,-0.94364 -1.00913,-9.82857 -1.00913,-9.82857c0,0 -13.62394,-2.58973 -13.31657,-5.044c0.30654,-2.45591 14.40185,-3.64639 14.40185,-3.64639c0,0 -0.33567,-9.03034 3.43333,-9.60531c3.77478,-0.57452 9.91456,7.57473 9.91456,7.57473c0,0 13.41603,-2.99352 15.43749,-0.89146c2.02805,2.09898 -8.27459,8.32774 -8.27459,8.32774c0,0 8.62779,7.18223 6.10146,9.05365z" fill="none" stroke-opacity="0.62745" stroke="#ffdc00" stroke-width="2.5"/></g><path d="M264.75,235.25v-110.5h110.5v110.5z" fill="none" stroke="none" stroke-width="0"/></g></g></svg>