<svg width="600" height="300" viewBox="0 0 600 300" fill="none" xmlns="http://www.w3.org/2000/svg">
<g clip-path="url(#clip0_190_140)">
<rect width="600" height="300" fill="#454545"/>
<path d="M473.135 126.34C472.535 127.3 471.895 128.02 471.215 128.5C470.575 128.98 469.735 129.22 468.695 129.22C467.775 129.22 466.775 128.94 465.695 128.38C464.655 127.78 463.455 127.12 462.095 126.4C460.775 125.68 459.255 125.04 457.535 124.48C455.815 123.88 453.855 123.58 451.655 123.58C447.855 123.58 445.015 124.4 443.135 126.04C441.295 127.64 440.375 129.82 440.375 132.58C440.375 134.34 440.935 135.8 442.055 136.96C443.175 138.12 444.635 139.12 446.435 139.96C448.275 140.8 450.355 141.58 452.675 142.3C455.035 142.98 457.435 143.76 459.875 144.64C462.315 145.48 464.695 146.48 467.015 147.64C469.375 148.8 471.455 150.28 473.255 152.08C475.095 153.88 476.575 156.08 477.695 158.68C478.815 161.24 479.375 164.34 479.375 167.98C479.375 172.02 478.675 175.8 477.275 179.32C475.875 182.84 473.835 185.92 471.155 188.56C468.515 191.16 465.235 193.22 461.315 194.74C457.435 196.22 453.015 196.96 448.055 196.96C445.335 196.96 442.555 196.68 439.715 196.12C436.915 195.56 434.195 194.78 431.555 193.78C428.915 192.74 426.435 191.52 424.115 190.12C421.795 188.72 419.775 187.16 418.055 185.44L424.055 175.96C424.535 175.28 425.155 174.72 425.915 174.28C426.715 173.8 427.575 173.56 428.495 173.56C429.695 173.56 430.895 173.94 432.095 174.7C433.335 175.46 434.715 176.3 436.235 177.22C437.795 178.14 439.575 178.98 441.575 179.74C443.575 180.5 445.935 180.88 448.655 180.88C452.335 180.88 455.195 180.08 457.235 178.48C459.275 176.84 460.295 174.26 460.295 170.74C460.295 168.7 459.735 167.04 458.615 165.76C457.495 164.48 456.015 163.42 454.175 162.58C452.375 161.74 450.315 161 447.995 160.36C445.675 159.72 443.295 159.02 440.855 158.26C438.415 157.46 436.035 156.5 433.715 155.38C431.395 154.22 429.315 152.72 427.475 150.88C425.675 149 424.215 146.68 423.095 143.92C421.975 141.12 421.415 137.68 421.415 133.6C421.415 130.32 422.075 127.12 423.395 124C424.715 120.88 426.655 118.1 429.215 115.66C431.775 113.22 434.915 111.28 438.635 109.84C442.355 108.36 446.615 107.62 451.415 107.62C454.095 107.62 456.695 107.84 459.215 108.28C461.775 108.68 464.195 109.3 466.475 110.14C468.755 110.94 470.875 111.92 472.835 113.08C474.835 114.2 476.615 115.48 478.175 116.92L473.135 126.34Z" fill="#E96151"/>
<path d="M408.75 164.32C408.75 169.2 408.13 173.64 406.89 177.64C405.69 181.64 403.85 185.08 401.37 187.96C398.93 190.8 395.85 193.02 392.13 194.62C388.41 196.18 384.03 196.96 378.99 196.96C376.71 196.96 374.45 196.84 372.21 196.6C370.01 196.36 367.71 195.96 365.31 195.4L366.39 183.58C366.51 182.54 366.93 181.7 367.65 181.06C368.37 180.42 369.39 180.1 370.71 180.1C371.39 180.1 372.23 180.22 373.23 180.46C374.23 180.66 375.43 180.76 376.83 180.76C378.79 180.76 380.49 180.5 381.93 179.98C383.41 179.42 384.63 178.52 385.59 177.28C386.55 176 387.27 174.34 387.75 172.3C388.23 170.26 388.47 167.74 388.47 164.74V108.58H408.75V164.32Z" fill="#E96151"/>
<path d="M297.767 149.68C300.527 149.68 302.867 149.34 304.787 148.66C306.747 147.94 308.347 146.96 309.587 145.72C310.827 144.48 311.727 143.04 312.287 141.4C312.847 139.72 313.127 137.92 313.127 136C313.127 132.16 311.867 129.16 309.347 127C306.867 124.84 303.007 123.76 297.767 123.76H289.607V149.68H297.767ZM340.847 196H322.487C319.087 196 316.647 194.72 315.167 192.16L300.647 166.78C299.967 165.7 299.207 164.92 298.367 164.44C297.527 163.92 296.327 163.66 294.767 163.66H289.607V196H269.327V108.58H297.767C304.087 108.58 309.467 109.24 313.907 110.56C318.387 111.84 322.027 113.64 324.827 115.96C327.667 118.28 329.727 121.02 331.007 124.18C332.287 127.34 332.927 130.78 332.927 134.5C332.927 137.34 332.547 140.02 331.787 142.54C331.027 145.06 329.907 147.4 328.427 149.56C326.947 151.68 325.107 153.58 322.907 155.26C320.747 156.94 318.247 158.32 315.407 159.4C316.727 160.08 317.967 160.94 319.127 161.98C320.287 162.98 321.327 164.18 322.247 165.58L340.847 196Z" fill="white"/>
<path d="M220.938 124.18V144.58H248.418V159.58H220.938V180.4H256.818V196H200.538V108.58H256.818V124.18H220.938Z" fill="white"/>
<path d="M152.149 124.18V144.58H179.629V159.58H152.149V180.4H188.029V196H131.749V108.58H188.029V124.18H152.149Z" fill="white"/>
<path d="M86.3 151.48C91.58 151.48 95.38 150.22 97.7 147.7C100.02 145.18 101.18 141.66 101.18 137.14C101.18 135.14 100.88 133.32 100.28 131.68C99.68 130.04 98.76 128.64 97.52 127.48C96.32 126.28 94.78 125.36 92.9 124.72C91.06 124.08 88.86 123.76 86.3 123.76H75.74V151.48H86.3ZM86.3 108.58C92.46 108.58 97.74 109.32 102.14 110.8C106.58 112.24 110.22 114.24 113.06 116.8C115.94 119.36 118.06 122.38 119.42 125.86C120.78 129.34 121.46 133.1 121.46 137.14C121.46 141.5 120.76 145.5 119.36 149.14C117.96 152.78 115.82 155.9 112.94 158.5C110.06 161.1 106.4 163.14 101.96 164.62C97.56 166.06 92.34 166.78 86.3 166.78H75.74V196H55.46V108.58H86.3Z" fill="white"/>
<path d="M537.589 170.364H526.954V206H537.589V170.364Z" fill="white" stroke="black" stroke-width="0.5"/>
<path d="M522.603 167.818L511 146.182V124.545H520.024L527.759 132.96H535.494L543.229 124.545H553.543V146.182L540.651 167.818H522.603Z" fill="white" stroke="black" stroke-width="0.5"/>
<path d="M513.659 94V120.727H525.624V110.545H522.965V101.636H516.318V94H513.659Z" fill="white" stroke="black" stroke-width="0.5"/>
<path d="M550.884 94V120.727H538.919V110.545H541.578V101.636H548.225V94H550.884Z" fill="white" stroke="black" stroke-width="0.5"/>
<path d="M528.283 128.364H536.26V108H538.919V101.636H525.624V108H528.283V128.364Z" fill="white" stroke="black" stroke-width="0.5"/>
<path d="M521.636 99.0909V94H524.295V99.0909H521.636Z" fill="white" stroke="black" stroke-width="0.5"/>
<path d="M526.954 99.0909V94H529.613V99.0909H526.954Z" fill="white" stroke="black" stroke-width="0.5"/>
<path d="M534.93 99.0909V94H537.589V99.0909H534.93Z" fill="white" stroke="black" stroke-width="0.5"/>
<path d="M540.248 99.0909V94H542.907V99.0909H540.248Z" fill="white" stroke="black" stroke-width="0.5"/>
</g>
<defs>
<clipPath id="clip0_190_140">
<rect width="600" height="300" fill="white"/>
</clipPath>
</defs>
</svg>
