<svg xmlns="http://www.w3.org/2000/svg" xmlns:xlink="http://www.w3.org/1999/xlink" width="600" height="300"><defs><pattern xlink:href="#a" id="b" patternTransform="scale(.3315)"/><pattern id="a" width="120" height="120" patternTransform="translate(-120 -120)" patternUnits="userSpaceOnUse"><path fill="none" d="M0 0h120v120H0z"/><rect width="60" height="60" stroke-linejoin="round" stroke-miterlimit="10" stroke-width="13.77" paint-order="stroke markers fill" rx="9.83" ry="9.83"/><rect width="60" height="60" x="60" y="60" stroke-linejoin="round" stroke-miterlimit="10" stroke-width="13.77" paint-order="stroke markers fill" rx="9.83" ry="9.83"/></pattern></defs><g transform="scale(3.77953 3.77929)"><rect width="158.75" height="79.38" fill="#d8d86c" paint-order="stroke markers fill" rx="0" ry="0"/><rect width="158.75" height="79.38" fill="url(#b)" opacity=".1" paint-order="stroke markers fill" rx="0" ry="0"/><g stroke-width="1.01" transform="matrix(.356 0 0 .345 123.85 85.93)"><path fill="none" stroke="#000" stroke-opacity=".13" stroke-width="24.91" d="M-154.93-208.75a23.95 23.95 0 0 0-23.98 24.02v6h-6a23.95 23.95 0 0 0-23.98 24.03v72.06c0 13.3 10.7 24.02 23.98 24.02H-65a23.95 23.95 0 0 0 23.98-24.02v-102.09c0-13.3-10.7-24.02-23.98-24.02z" paint-order="stroke markers fill" style="font-variation-settings:normal"/><rect width="137.89" height="120.1" x="-178.91" y="-208.75" fill="#d8d86c" stroke="#7d7d23" stroke-width="9.06" paint-order="stroke markers fill" rx="23.98" ry="24.02" style="font-variation-settings:normal"/><rect width="167.87" height="120.1" x="-208.89" y="-178.72" fill="#d8d86c" stroke="#7d7d23" stroke-width="9.06" paint-order="stroke markers fill" rx="23.98" ry="24.02" style="font-variation-settings:normal"/><path fill="#7d7d23" stroke="#7d7d23" stroke-width=".19" d="M-184.9-154.7v-24.02h23.98v24.02zm17.98 24.02v-24.02h23.98v24.02zm-17.99 24.02v-24.02h23.99v24.02zm18 24.02v-24.02h23.97v24.02zm-18 24.02v-24.02h23.99v24.02z" style="mix-blend-mode:normal"/><path fill="#7d7d23" stroke="#7d7d23" stroke-width=".23" d="M-157.98-180.65v-14.9h14.88v14.9zm7.44-14.9v-14.92h14.88v14.91z" style="mix-blend-mode:normal"/><path fill="#fff" stroke="#7d7d23" stroke-width="9.06" d="M-115.26-85.26v-10.59l34.04-51.12h-32.96v-12.7h50.72v11.4l-34.27 50.32H-63v12.7z" aria-label="Z" font-family="Consolas" font-size="116.58" font-weight="700" paint-order="stroke markers fill" style="-inkscape-font-specification:&quot;Consolas, Bold&quot;" transform="scale(1.0322 .9688)"/></g></g></svg>