<svg xmlns="http://www.w3.org/2000/svg" xmlns:xlink="http://www.w3.org/1999/xlink" width="600" zoomAndPan="magnify" viewBox="0 0 450 225" height="300" preserveAspectRatio="xMidYMid meet" version="1.0"><defs><filter x="0%" y="0%" width="100%" height="100%" id="d364cc3474"><feColorMatrix values="0 0 0 0 1 0 0 0 0 1 0 0 0 0 1 0 0 0 1 0" color-interpolation-filters="sRGB"/></filter><g/><mask id="82fc4e435d"><g filter="url(#d364cc3474)"><rect x="-45" width="540" fill="#000000" y="-22.5" height="270" fill-opacity="0.5"/></g></mask><clipPath id="a84e57312d"><path d="M 12.5 12.96875 L 141.582031 12.96875 L 141.582031 109.03125 L 12.5 109.03125 Z M 12.5 12.96875 " clip-rule="nonzero"/></clipPath><clipPath id="16c25a818e"><path d="M 35 12.96875 L 118.796875 12.96875 C 131.222656 12.96875 141.296875 23.042969 141.296875 35.46875 L 141.296875 86.53125 C 141.296875 98.957031 131.222656 109.03125 118.796875 109.03125 L 35 109.03125 C 22.574219 109.03125 12.5 98.957031 12.5 86.53125 L 12.5 35.46875 C 12.5 23.042969 22.574219 12.96875 35 12.96875 Z M 35 12.96875 " clip-rule="nonzero"/></clipPath><clipPath id="9a1fd3c0d2"><path d="M 0.5 0.96875 L 129.441406 0.96875 L 129.441406 97.03125 L 0.5 97.03125 Z M 0.5 0.96875 " clip-rule="nonzero"/></clipPath><clipPath id="59628e5f24"><path d="M 23 0.96875 L 106.796875 0.96875 C 119.222656 0.96875 129.296875 11.042969 129.296875 23.46875 L 129.296875 74.53125 C 129.296875 86.957031 119.222656 97.03125 106.796875 97.03125 L 23 97.03125 C 10.574219 97.03125 0.5 86.957031 0.5 74.53125 L 0.5 23.46875 C 0.5 11.042969 10.574219 0.96875 23 0.96875 Z M 23 0.96875 " clip-rule="nonzero"/></clipPath><clipPath id="e94d3e31e5"><rect x="0" width="130" y="0" height="98"/></clipPath><clipPath id="3e34480cf6"><path d="M 12.5 12.972656 L 141.5 12.972656 L 141.5 108.96875 L 12.5 108.96875 Z M 12.5 12.972656 " clip-rule="nonzero"/></clipPath><clipPath id="344bf5802c"><path d="M 35 12.972656 L 118.789062 12.972656 C 131.214844 12.972656 141.289062 23.046875 141.289062 35.472656 L 141.289062 86.527344 C 141.289062 98.953125 131.214844 109.027344 118.789062 109.027344 L 35 109.027344 C 22.574219 109.027344 12.5 98.953125 12.5 86.527344 L 12.5 35.472656 C 12.5 23.046875 22.574219 12.972656 35 12.972656 Z M 35 12.972656 " clip-rule="nonzero"/></clipPath><clipPath id="ad451285a6"><path d="M 288.703125 12.96875 L 417.785156 12.96875 L 417.785156 109.03125 L 288.703125 109.03125 Z M 288.703125 12.96875 " clip-rule="nonzero"/></clipPath><clipPath id="2489ce3459"><path d="M 311.203125 12.96875 L 395 12.96875 C 407.425781 12.96875 417.5 23.042969 417.5 35.46875 L 417.5 86.53125 C 417.5 98.957031 407.425781 109.03125 395 109.03125 L 311.203125 109.03125 C 298.777344 109.03125 288.703125 98.957031 288.703125 86.53125 L 288.703125 35.46875 C 288.703125 23.042969 298.777344 12.96875 311.203125 12.96875 Z M 311.203125 12.96875 " clip-rule="nonzero"/></clipPath><clipPath id="1a8aa5e670"><path d="M 0.703125 0.96875 L 129.679688 0.96875 L 129.679688 97.03125 L 0.703125 97.03125 Z M 0.703125 0.96875 " clip-rule="nonzero"/></clipPath><clipPath id="f6d95afe24"><path d="M 23.203125 0.96875 L 107 0.96875 C 119.425781 0.96875 129.5 11.042969 129.5 23.46875 L 129.5 74.53125 C 129.5 86.957031 119.425781 97.03125 107 97.03125 L 23.203125 97.03125 C 10.777344 97.03125 0.703125 86.957031 0.703125 74.53125 L 0.703125 23.46875 C 0.703125 11.042969 10.777344 0.96875 23.203125 0.96875 Z M 23.203125 0.96875 " clip-rule="nonzero"/></clipPath><clipPath id="7d63670288"><rect x="0" width="130" y="0" height="98"/></clipPath><clipPath id="f402ab60de"><path d="M 288.703125 12.972656 L 417.703125 12.972656 L 417.703125 108.96875 L 288.703125 108.96875 Z M 288.703125 12.972656 " clip-rule="nonzero"/></clipPath><clipPath id="26c49192d1"><path d="M 311.203125 12.972656 L 394.996094 12.972656 C 407.421875 12.972656 417.492188 23.046875 417.492188 35.472656 L 417.492188 86.527344 C 417.492188 98.953125 407.421875 109.027344 394.996094 109.027344 L 311.203125 109.027344 C 298.777344 109.027344 288.703125 98.953125 288.703125 86.527344 L 288.703125 35.472656 C 288.703125 23.046875 298.777344 12.972656 311.203125 12.972656 Z M 311.203125 12.972656 " clip-rule="nonzero"/></clipPath><clipPath id="1e3e4bf849"><rect x="0" width="104" y="0" height="24"/></clipPath><clipPath id="30ca2be830"><rect x="0" width="104" y="0" height="24"/></clipPath><clipPath id="ecb59a1b52"><rect x="0" width="430" y="0" height="122"/></clipPath><clipPath id="3a479eee80"><path d="M 22.5 64.46875 L 151.582031 64.46875 L 151.582031 160.53125 L 22.5 160.53125 Z M 22.5 64.46875 " clip-rule="nonzero"/></clipPath><clipPath id="0d9fdef8df"><path d="M 45 64.46875 L 128.796875 64.46875 C 141.222656 64.46875 151.296875 74.542969 151.296875 86.96875 L 151.296875 138.03125 C 151.296875 150.457031 141.222656 160.53125 128.796875 160.53125 L 45 160.53125 C 32.574219 160.53125 22.5 150.457031 22.5 138.03125 L 22.5 86.96875 C 22.5 74.542969 32.574219 64.46875 45 64.46875 Z M 45 64.46875 " clip-rule="nonzero"/></clipPath><clipPath id="bbe865da0e"><path d="M 0.5 0.46875 L 129.441406 0.46875 L 129.441406 96.53125 L 0.5 96.53125 Z M 0.5 0.46875 " clip-rule="nonzero"/></clipPath><clipPath id="5031e934a9"><path d="M 23 0.46875 L 106.796875 0.46875 C 119.222656 0.46875 129.296875 10.542969 129.296875 22.96875 L 129.296875 74.03125 C 129.296875 86.457031 119.222656 96.53125 106.796875 96.53125 L 23 96.53125 C 10.574219 96.53125 0.5 86.457031 0.5 74.03125 L 0.5 22.96875 C 0.5 10.542969 10.574219 0.46875 23 0.46875 Z M 23 0.46875 " clip-rule="nonzero"/></clipPath><clipPath id="44ae9adde1"><rect x="0" width="130" y="0" height="97"/></clipPath><clipPath id="9b8b1123cf"><path d="M 22.5 64.472656 L 151.5 64.472656 L 151.5 160.46875 L 22.5 160.46875 Z M 22.5 64.472656 " clip-rule="nonzero"/></clipPath><clipPath id="2d7da86c2f"><path d="M 45 64.472656 L 128.789062 64.472656 C 141.214844 64.472656 151.289062 74.546875 151.289062 86.972656 L 151.289062 138.027344 C 151.289062 150.453125 141.214844 160.527344 128.789062 160.527344 L 45 160.527344 C 32.574219 160.527344 22.5 150.453125 22.5 138.027344 L 22.5 86.972656 C 22.5 74.546875 32.574219 64.472656 45 64.472656 Z M 45 64.472656 " clip-rule="nonzero"/></clipPath><clipPath id="a42d8558e4"><path d="M 298.703125 64.46875 L 427.785156 64.46875 L 427.785156 160.53125 L 298.703125 160.53125 Z M 298.703125 64.46875 " clip-rule="nonzero"/></clipPath><clipPath id="6e7e41bc8b"><path d="M 321.203125 64.46875 L 405 64.46875 C 417.425781 64.46875 427.5 74.542969 427.5 86.96875 L 427.5 138.03125 C 427.5 150.457031 417.425781 160.53125 405 160.53125 L 321.203125 160.53125 C 308.777344 160.53125 298.703125 150.457031 298.703125 138.03125 L 298.703125 86.96875 C 298.703125 74.542969 308.777344 64.46875 321.203125 64.46875 Z M 321.203125 64.46875 " clip-rule="nonzero"/></clipPath><clipPath id="7325094955"><path d="M 0.703125 0.46875 L 129.679688 0.46875 L 129.679688 96.53125 L 0.703125 96.53125 Z M 0.703125 0.46875 " clip-rule="nonzero"/></clipPath><clipPath id="be4e4290f8"><path d="M 23.203125 0.46875 L 107 0.46875 C 119.425781 0.46875 129.5 10.542969 129.5 22.96875 L 129.5 74.03125 C 129.5 86.457031 119.425781 96.53125 107 96.53125 L 23.203125 96.53125 C 10.777344 96.53125 0.703125 86.457031 0.703125 74.03125 L 0.703125 22.96875 C 0.703125 10.542969 10.777344 0.46875 23.203125 0.46875 Z M 23.203125 0.46875 " clip-rule="nonzero"/></clipPath><clipPath id="e9da400d1a"><rect x="0" width="130" y="0" height="97"/></clipPath><clipPath id="d8f2f5fc0f"><path d="M 298.703125 64.472656 L 427.703125 64.472656 L 427.703125 160.46875 L 298.703125 160.46875 Z M 298.703125 64.472656 " clip-rule="nonzero"/></clipPath><clipPath id="51aebe3b3a"><path d="M 321.203125 64.472656 L 404.996094 64.472656 C 417.421875 64.472656 427.492188 74.546875 427.492188 86.972656 L 427.492188 138.027344 C 427.492188 150.453125 417.421875 160.527344 404.996094 160.527344 L 321.203125 160.527344 C 308.777344 160.527344 298.703125 150.453125 298.703125 138.027344 L 298.703125 86.972656 C 298.703125 74.546875 308.777344 64.472656 321.203125 64.472656 Z M 321.203125 64.472656 " clip-rule="nonzero"/></clipPath><clipPath id="e4f82e6591"><rect x="0" width="104" y="0" height="24"/></clipPath><clipPath id="0c40330eb2"><rect x="0" width="104" y="0" height="24"/></clipPath></defs><rect x="-45" width="540" fill="#ffffff" y="-22.5" height="270" fill-opacity="1"/><rect x="-45" width="540" fill="#0a353d" y="-22.5" height="270" fill-opacity="1"/><path fill="#5ad1ac" d="M 0 16.5 L 12.523438 15.375 C 24.976562 14.25 50.023438 12 75 11.25 C 99.976562 10.5 125.023438 11.25 150 12.75 C 174.976562 14.25 200.023438 16.5 225 18 C 249.976562 19.5 275.023438 20.25 300 19.5 C 324.976562 18.75 350.023438 16.5 375 15.75 C 399.976562 15 425.023438 15.75 437.476562 16.125 L 450 16.5 L 450 0 L 437.476562 0 C 425.023438 0 399.976562 0 375 0 C 350.023438 0 324.976562 0 300 0 C 275.023438 0 249.976562 0 225 0 C 200.023438 0 174.976562 0 150 0 C 125.023438 0 99.976562 0 75 0 C 50.023438 0 24.976562 0 12.523438 0 L 0 0 Z M 0 16.5 " fill-opacity="1" fill-rule="nonzero"/><path fill="#40c89e" d="M 0 34.5 L 12.523438 36.75 C 24.976562 39 50.023438 43.5 75 42.75 C 99.976562 42 125.023438 36 150 33.375 C 174.976562 30.75 200.023438 31.5 225 33 C 249.976562 34.5 275.023438 36.75 300 37.125 C 324.976562 37.5 350.023438 36 375 36 C 399.976562 36 425.023438 37.5 437.476562 38.25 L 450 39 L 450 15 L 437.476562 14.625 C 425.023438 14.25 399.976562 13.5 375 14.25 C 350.023438 15 324.976562 17.25 300 18 C 275.023438 18.75 249.976562 18 225 16.5 C 200.023438 15 174.976562 12.75 150 11.25 C 125.023438 9.75 99.976562 9 75 9.75 C 50.023438 10.5 24.976562 12.75 12.523438 13.875 L 0 15 Z M 0 34.5 " fill-opacity="1" fill-rule="nonzero"/><path fill="#1cbf8f" d="M 0 77.25 L 12.523438 79.875 C 24.976562 82.5 50.023438 87.75 75 90 C 99.976562 92.25 125.023438 91.5 150 90 C 174.976562 88.5 200.023438 86.25 225 88.5 C 249.976562 90.75 275.023438 97.5 300 100.125 C 324.976562 102.75 350.023438 101.25 375 95.25 C 399.976562 89.25 425.023438 78.75 437.476562 73.5 L 450 68.25 L 450 37.5 L 437.476562 36.75 C 425.023438 36 399.976562 34.5 375 34.5 C 350.023438 34.5 324.976562 36 300 35.625 C 275.023438 35.25 249.976562 33 225 31.5 C 200.023438 30 174.976562 29.25 150 31.875 C 125.023438 34.5 99.976562 40.5 75 41.25 C 50.023438 42 24.976562 37.5 12.523438 35.25 L 0 33 Z M 0 77.25 " fill-opacity="1" fill-rule="nonzero"/><path fill="#0baa7e" d="M 0 93 L 12.523438 95.25 C 24.976562 97.5 50.023438 102 75 103.875 C 99.976562 105.75 125.023438 105 150 103.5 C 174.976562 102 200.023438 99.75 225 100.875 C 249.976562 102 275.023438 106.5 300 108.75 C 324.976562 111 350.023438 111 375 106.125 C 399.976562 101.25 425.023438 91.5 437.476562 86.625 L 450 81.75 L 450 66.75 L 437.476562 72 C 425.023438 77.25 399.976562 87.75 375 93.75 C 350.023438 99.75 324.976562 101.25 300 98.625 C 275.023438 96 249.976562 89.25 225 87 C 200.023438 84.75 174.976562 87 150 88.5 C 125.023438 90 99.976562 90.75 75 88.5 C 50.023438 86.25 24.976562 81 12.523438 78.375 L 0 75.75 Z M 0 93 " fill-opacity="1" fill-rule="nonzero"/><path fill="#08936e" d="M 0 115.5 L 12.523438 117.375 C 24.976562 119.25 50.023438 123 75 123.375 C 99.976562 123.75 125.023438 120.75 150 119.25 C 174.976562 117.75 200.023438 117.75 225 119.625 C 249.976562 121.5 275.023438 125.25 300 126.375 C 324.976562 127.5 350.023438 126 375 120.75 C 399.976562 115.5 425.023438 106.5 437.476562 102 L 450 97.5 L 450 80.25 L 437.476562 85.125 C 425.023438 90 399.976562 99.75 375 104.625 C 350.023438 109.5 324.976562 109.5 300 107.25 C 275.023438 105 249.976562 100.5 225 99.375 C 200.023438 98.25 174.976562 100.5 150 102 C 125.023438 103.5 99.976562 104.25 75 102.375 C 50.023438 100.5 24.976562 96 12.523438 93.75 L 0 91.5 Z M 0 115.5 " fill-opacity="1" fill-rule="nonzero"/><path fill="#078a67" d="M 0 138 L 12.523438 138 C 24.976562 138 50.023438 138 75 136.875 C 99.976562 135.75 125.023438 133.5 150 133.875 C 174.976562 134.25 200.023438 137.25 225 139.5 C 249.976562 141.75 275.023438 143.25 300 142.125 C 324.976562 141 350.023438 137.25 375 130.875 C 399.976562 124.5 425.023438 115.5 437.476562 111 L 450 106.5 L 450 96 L 437.476562 100.5 C 425.023438 105 399.976562 114 375 119.25 C 350.023438 124.5 324.976562 126 300 124.875 C 275.023438 123.75 249.976562 120 225 118.125 C 200.023438 116.25 174.976562 116.25 150 117.75 C 125.023438 119.25 99.976562 122.25 75 121.875 C 50.023438 121.5 24.976562 117.75 12.523438 115.875 L 0 114 Z M 0 138 " fill-opacity="1" fill-rule="nonzero"/><path fill="#078a67" d="M 0 147 L 12.523438 147.375 C 24.976562 147.75 50.023438 148.5 75 147.75 C 99.976562 147 125.023438 144.75 150 144.75 C 174.976562 144.75 200.023438 147 225 149.25 C 249.976562 151.5 275.023438 153.75 300 153.375 C 324.976562 153 350.023438 150 375 142.875 C 399.976562 135.75 425.023438 124.5 437.476562 118.875 L 450 113.25 L 450 105 L 437.476562 109.5 C 425.023438 114 399.976562 123 375 129.375 C 350.023438 135.75 324.976562 139.5 300 140.625 C 275.023438 141.75 249.976562 140.25 225 138 C 200.023438 135.75 174.976562 132.75 150 132.375 C 125.023438 132 99.976562 134.25 75 135.375 C 50.023438 136.5 24.976562 136.5 12.523438 136.5 L 0 136.5 Z M 0 147 " fill-opacity="1" fill-rule="nonzero"/><path fill="#08936e" d="M 0 187.5 L 12.523438 187.5 C 24.976562 187.5 50.023438 187.5 75 187.125 C 99.976562 186.75 125.023438 186 150 186 C 174.976562 186 200.023438 186.75 225 187.875 C 249.976562 189 275.023438 190.5 300 189.75 C 324.976562 189 350.023438 186 375 184.875 C 399.976562 183.75 425.023438 184.5 437.476562 184.875 L 450 185.25 L 450 111.75 L 437.476562 117.375 C 425.023438 123 399.976562 134.25 375 141.375 C 350.023438 148.5 324.976562 151.5 300 151.875 C 275.023438 152.25 249.976562 150 225 147.75 C 200.023438 145.5 174.976562 143.25 150 143.25 C 125.023438 143.25 99.976562 145.5 75 146.25 C 50.023438 147 24.976562 146.25 12.523438 145.875 L 0 145.5 Z M 0 187.5 " fill-opacity="1" fill-rule="nonzero"/><path fill="#0baa7e" d="M 0 194.25 L 12.523438 194.25 C 24.976562 194.25 50.023438 194.25 75 193.875 C 99.976562 193.5 125.023438 192.75 150 192.75 C 174.976562 192.75 200.023438 193.5 225 194.25 C 249.976562 195 275.023438 195.75 300 195.75 C 324.976562 195.75 350.023438 195 375 194.25 C 399.976562 193.5 425.023438 192.75 437.476562 192.375 L 450 192 L 450 183.75 L 437.476562 183.375 C 425.023438 183 399.976562 182.25 375 183.375 C 350.023438 184.5 324.976562 187.5 300 188.25 C 275.023438 189 249.976562 187.5 225 186.375 C 200.023438 185.25 174.976562 184.5 150 184.5 C 125.023438 184.5 99.976562 185.25 75 185.625 C 50.023438 186 24.976562 186 12.523438 186 L 0 186 Z M 0 194.25 " fill-opacity="1" fill-rule="nonzero"/><path fill="#1cbf8f" d="M 0 207.75 L 12.523438 208.125 C 24.976562 208.5 50.023438 209.25 75 208.125 C 99.976562 207 125.023438 204 150 203.625 C 174.976562 203.25 200.023438 205.5 225 207.375 C 249.976562 209.25 275.023438 210.75 300 210 C 324.976562 209.25 350.023438 206.25 375 205.125 C 399.976562 204 425.023438 204.75 437.476562 205.125 L 450 205.5 L 450 190.5 L 437.476562 190.875 C 425.023438 191.25 399.976562 192 375 192.75 C 350.023438 193.5 324.976562 194.25 300 194.25 C 275.023438 194.25 249.976562 193.5 225 192.75 C 200.023438 192 174.976562 191.25 150 191.25 C 125.023438 191.25 99.976562 192 75 192.375 C 50.023438 192.75 24.976562 192.75 12.523438 192.75 L 0 192.75 Z M 0 207.75 " fill-opacity="1" fill-rule="nonzero"/><path fill="#40c89e" d="M 0 214.5 L 12.523438 214.875 C 24.976562 215.25 50.023438 216 75 216 C 99.976562 216 125.023438 215.25 150 216 C 174.976562 216.75 200.023438 219 225 219.75 C 249.976562 220.5 275.023438 219.75 300 218.625 C 324.976562 217.5 350.023438 216 375 216 C 399.976562 216 425.023438 217.5 437.476562 218.25 L 450 219 L 450 204 L 437.476562 203.625 C 425.023438 203.25 399.976562 202.5 375 203.625 C 350.023438 204.75 324.976562 207.75 300 208.5 C 275.023438 209.25 249.976562 207.75 225 205.875 C 200.023438 204 174.976562 201.75 150 202.125 C 125.023438 202.5 99.976562 205.5 75 206.625 C 50.023438 207.75 24.976562 207 12.523438 206.625 L 0 206.25 Z M 0 214.5 " fill-opacity="1" fill-rule="nonzero"/><path fill="#5ad1ac" d="M 0 225.75 L 12.523438 225.75 C 24.976562 225.75 50.023438 225.75 75 225.75 C 99.976562 225.75 125.023438 225.75 150 225.75 C 174.976562 225.75 200.023438 225.75 225 225.75 C 249.976562 225.75 275.023438 225.75 300 225.75 C 324.976562 225.75 350.023438 225.75 375 225.75 C 399.976562 225.75 425.023438 225.75 437.476562 225.75 L 450 225.75 L 450 217.5 L 437.476562 216.75 C 425.023438 216 399.976562 214.5 375 214.5 C 350.023438 214.5 324.976562 216 300 217.125 C 275.023438 218.25 249.976562 219 225 218.25 C 200.023438 217.5 174.976562 215.25 150 214.5 C 125.023438 213.75 99.976562 214.5 75 214.5 C 50.023438 214.5 24.976562 213.75 12.523438 213.375 L 0 213 Z M 0 225.75 " fill-opacity="1" fill-rule="nonzero"/><g mask="url(#82fc4e435d)"><g transform="matrix(1, 0, 0, 1, 10, 59)"><g clip-path="url(#ecb59a1b52)"><g clip-path="url(#a84e57312d)"><g clip-path="url(#16c25a818e)"><g transform="matrix(1, 0, 0, 1, 12, 12)"><g clip-path="url(#e94d3e31e5)"><g clip-path="url(#9a1fd3c0d2)"><g clip-path="url(#59628e5f24)"><path fill="#ffffff" d="M 0.5 0.96875 L 129.203125 0.96875 L 129.203125 97.03125 L 0.5 97.03125 Z M 0.5 0.96875 " fill-opacity="1" fill-rule="nonzero"/></g></g></g></g></g></g><g clip-path="url(#3e34480cf6)"><g clip-path="url(#344bf5802c)"><path stroke-linecap="butt" transform="matrix(0.75, 0, 0, 0.75, 12.499999, 12.972072)" fill="none" stroke-linejoin="miter" d="M 30.000003 0.000778412 L 141.718757 0.000778412 C 158.286466 0.000778412 171.718758 13.433071 171.718758 30.00078 L 171.718758 98.073699 C 171.718758 114.641408 158.286466 128.0737 141.718757 128.0737 L 30.000003 128.0737 C 13.432293 128.0737 0.00000125 114.641408 0.00000125 98.073699 L 0.00000125 30.00078 C 0.00000125 13.433071 13.432293 0.000778412 30.000003 0.000778412 Z M 30.000003 0.000778412 " stroke="#0fbd8c" stroke-width="8" stroke-opacity="1" stroke-miterlimit="4"/></g></g><path stroke-linecap="round" transform="matrix(0.75, -0.000000000000000279, 0.000000000000000279, 0.75, 152.890633, 69.839106)" fill="none" stroke-linejoin="miter" d="M 7.499989 5.000984 L 160.624996 5.000984 " stroke="#ffffff" stroke-width="10" stroke-opacity="1" stroke-miterlimit="4"/><path stroke-linecap="round" transform="matrix(0.75, -0.000000000000000279, 0.000000000000000279, 0.75, 152.890633, 69.839106)" fill="none" stroke-linejoin="round" d="M 24.99999 -9.999017 L 4.999989 5.000984 L 24.99999 20.000984 " stroke="#ffffff" stroke-width="10" stroke-opacity="1" stroke-miterlimit="4"/><path stroke-linecap="round" transform="matrix(0.75, -0.000000000000000093, 0.000000000000000093, 0.75, 152.890633, 44.660918)" fill="none" stroke-linejoin="miter" d="M 4.999989 4.998984 L 158.124996 4.998984 " stroke="#ffffff" stroke-width="10" stroke-opacity="1" stroke-miterlimit="4"/><path stroke-linecap="round" transform="matrix(0.75, -0.000000000000000093, 0.000000000000000093, 0.75, 152.890633, 44.660918)" fill="none" stroke-linejoin="round" d="M 140.624995 -10.001017 L 160.624996 4.998984 L 140.624995 19.998985 " stroke="#ffffff" stroke-width="10" stroke-opacity="1" stroke-miterlimit="4"/><g clip-path="url(#ad451285a6)"><g clip-path="url(#2489ce3459)"><g transform="matrix(1, 0, 0, 1, 288, 12)"><g clip-path="url(#7d63670288)"><g clip-path="url(#1a8aa5e670)"><g clip-path="url(#f6d95afe24)"><path fill="#ffffff" d="M 0.703125 0.96875 L 129.410156 0.96875 L 129.410156 97.03125 L 0.703125 97.03125 Z M 0.703125 0.96875 " fill-opacity="1" fill-rule="nonzero"/></g></g></g></g></g></g><g clip-path="url(#f402ab60de)"><g clip-path="url(#26c49192d1)"><path stroke-linecap="butt" transform="matrix(0.75, 0, 0, 0.75, 288.704244, 12.972072)" fill="none" stroke-linejoin="miter" d="M 29.998509 0.000778412 L 141.722472 0.000778412 C 158.290181 0.000778412 171.717265 13.433071 171.717265 30.00078 L 171.717265 98.073699 C 171.717265 114.641408 158.290181 128.0737 141.722472 128.0737 L 29.998509 128.0737 C 13.4308 128.0737 -0.00149247 114.641408 -0.00149247 98.073699 L -0.00149247 30.00078 C -0.00149247 13.433071 13.4308 0.000778412 29.998509 0.000778412 Z M 29.998509 0.000778412 " stroke="#0fbd8c" stroke-width="8" stroke-opacity="1" stroke-miterlimit="4"/></g></g><g transform="matrix(1, 0, 0, 1, 25, 49)"><g clip-path="url(#1e3e4bf849)"><g fill="#0fbd8c" fill-opacity="1"><g transform="translate(0.54805, 18.53751)"><g><path d="M 3.421875 -13.6875 L 3.421875 -7.90625 L 7.984375 -7.90625 L 7.984375 -13.6875 L 9.703125 -13.6875 L 9.703125 0 L 7.984375 0 L 7.984375 -6.34375 L 3.421875 -6.34375 L 3.421875 0 L 1.71875 0 L 1.71875 -13.6875 Z M 3.421875 -13.6875 "/></g></g></g><g fill="#0fbd8c" fill-opacity="1"><g transform="translate(11.959008, 18.53751)"><g><path d="M 5.703125 0.1875 C 4.398438 0.1875 3.375 -0.164062 2.625 -0.875 C 1.882812 -1.582031 1.515625 -2.554688 1.515625 -3.796875 L 1.515625 -6.65625 C 1.515625 -7.894531 1.882812 -8.867188 2.625 -9.578125 C 3.375 -10.296875 4.398438 -10.65625 5.703125 -10.65625 C 7.003906 -10.65625 8.023438 -10.296875 8.765625 -9.578125 C 9.515625 -8.867188 9.890625 -7.894531 9.890625 -6.65625 L 9.890625 -4.734375 L 3.234375 -4.734375 L 3.234375 -3.890625 C 3.234375 -3.097656 3.453125 -2.472656 3.890625 -2.015625 C 4.328125 -1.554688 4.929688 -1.328125 5.703125 -1.328125 C 6.273438 -1.328125 6.769531 -1.414062 7.1875 -1.59375 C 7.601562 -1.769531 7.914062 -2.03125 8.125 -2.375 L 9.828125 -2.375 C 9.609375 -1.570312 9.128906 -0.941406 8.390625 -0.484375 C 7.648438 -0.0351562 6.753906 0.1875 5.703125 0.1875 Z M 8.171875 -6.15625 L 8.171875 -6.65625 C 8.171875 -7.4375 7.957031 -8.039062 7.53125 -8.46875 C 7.101562 -8.90625 6.492188 -9.125 5.703125 -9.125 C 4.921875 -9.125 4.3125 -8.90625 3.875 -8.46875 C 3.445312 -8.039062 3.234375 -7.4375 3.234375 -6.65625 L 3.234375 -6.15625 Z M 8.171875 -6.15625 "/></g></g></g><g fill="#0fbd8c" fill-opacity="1"><g transform="translate(23.369965, 18.53751)"><g><path d="M 5.9375 -13.875 L 5.9375 -3.046875 C 5.9375 -2.578125 6.0625 -2.210938 6.3125 -1.953125 C 6.5625 -1.691406 6.910156 -1.5625 7.359375 -1.5625 L 10.453125 -1.5625 L 10.453125 0 L 7.359375 0 C 6.378906 0 5.609375 -0.265625 5.046875 -0.796875 C 4.492188 -1.335938 4.21875 -2.085938 4.21875 -3.046875 L 4.21875 -12.328125 L 0.765625 -12.328125 L 0.765625 -13.875 Z M 5.9375 -13.875 "/></g></g></g><g fill="#0fbd8c" fill-opacity="1"><g transform="translate(34.780922, 18.53751)"><g><path d="M 5.9375 -13.875 L 5.9375 -3.046875 C 5.9375 -2.578125 6.0625 -2.210938 6.3125 -1.953125 C 6.5625 -1.691406 6.910156 -1.5625 7.359375 -1.5625 L 10.453125 -1.5625 L 10.453125 0 L 7.359375 0 C 6.378906 0 5.609375 -0.265625 5.046875 -0.796875 C 4.492188 -1.335938 4.21875 -2.085938 4.21875 -3.046875 L 4.21875 -12.328125 L 0.765625 -12.328125 L 0.765625 -13.875 Z M 5.9375 -13.875 "/></g></g></g><g fill="#0fbd8c" fill-opacity="1"><g transform="translate(46.19188, 18.53751)"><g><path d="M 3.234375 -3.890625 C 3.234375 -3.097656 3.453125 -2.472656 3.890625 -2.015625 C 4.328125 -1.554688 4.929688 -1.328125 5.703125 -1.328125 C 6.460938 -1.328125 7.0625 -1.554688 7.5 -2.015625 C 7.945312 -2.472656 8.171875 -3.097656 8.171875 -3.890625 L 8.171875 -6.5625 C 8.171875 -7.363281 7.945312 -7.988281 7.5 -8.4375 C 7.0625 -8.894531 6.460938 -9.125 5.703125 -9.125 C 4.941406 -9.125 4.335938 -8.894531 3.890625 -8.4375 C 3.453125 -7.988281 3.234375 -7.363281 3.234375 -6.5625 Z M 1.515625 -6.5625 C 1.515625 -7.195312 1.613281 -7.765625 1.8125 -8.265625 C 2.007812 -8.765625 2.285156 -9.191406 2.640625 -9.546875 C 3.003906 -9.898438 3.441406 -10.171875 3.953125 -10.359375 C 4.472656 -10.554688 5.054688 -10.65625 5.703125 -10.65625 C 6.992188 -10.65625 8.015625 -10.289062 8.765625 -9.5625 C 9.515625 -8.84375 9.890625 -7.847656 9.890625 -6.578125 L 9.890625 -3.890625 C 9.890625 -3.265625 9.789062 -2.695312 9.59375 -2.1875 C 9.40625 -1.675781 9.128906 -1.242188 8.765625 -0.890625 C 8.410156 -0.546875 7.972656 -0.28125 7.453125 -0.09375 C 6.929688 0.09375 6.347656 0.1875 5.703125 0.1875 C 5.054688 0.1875 4.472656 0.09375 3.953125 -0.09375 C 3.441406 -0.28125 3.003906 -0.550781 2.640625 -0.90625 C 2.285156 -1.257812 2.007812 -1.691406 1.8125 -2.203125 C 1.613281 -2.710938 1.515625 -3.273438 1.515625 -3.890625 Z M 1.515625 -6.5625 "/></g></g></g><g fill="#0fbd8c" fill-opacity="1"><g transform="translate(57.602837, 18.53751)"><g><path d="M 7.125 -2.875 L 4.65625 3.046875 L 3.140625 3.046875 L 4.65625 -2.875 Z M 7.125 -2.875 "/></g></g></g><g fill="#0fbd8c" fill-opacity="1"><g transform="translate(69.013795, 18.53751)"><g><path d="M 4.0625 -1.5 C 4.0625 -2 4.210938 -2.394531 4.515625 -2.6875 C 4.816406 -2.988281 5.210938 -3.140625 5.703125 -3.140625 C 6.203125 -3.140625 6.597656 -2.988281 6.890625 -2.6875 C 7.191406 -2.394531 7.34375 -2 7.34375 -1.5 C 7.34375 -0.988281 7.191406 -0.578125 6.890625 -0.265625 C 6.597656 0.0351562 6.203125 0.1875 5.703125 0.1875 C 5.210938 0.1875 4.816406 0.0351562 4.515625 -0.265625 C 4.210938 -0.578125 4.0625 -0.988281 4.0625 -1.5 Z M 4.0625 -1.5 "/></g></g></g><g fill="#0fbd8c" fill-opacity="1"><g transform="translate(80.424752, 18.53751)"><g><path d="M 4.0625 -1.5 C 4.0625 -2 4.210938 -2.394531 4.515625 -2.6875 C 4.816406 -2.988281 5.210938 -3.140625 5.703125 -3.140625 C 6.203125 -3.140625 6.597656 -2.988281 6.890625 -2.6875 C 7.191406 -2.394531 7.34375 -2 7.34375 -1.5 C 7.34375 -0.988281 7.191406 -0.578125 6.890625 -0.265625 C 6.597656 0.0351562 6.203125 0.1875 5.703125 0.1875 C 5.210938 0.1875 4.816406 0.0351562 4.515625 -0.265625 C 4.210938 -0.578125 4.0625 -0.988281 4.0625 -1.5 Z M 4.0625 -1.5 "/></g></g></g><g fill="#0fbd8c" fill-opacity="1"><g transform="translate(91.83571, 18.53751)"><g><path d="M 4.0625 -1.5 C 4.0625 -2 4.210938 -2.394531 4.515625 -2.6875 C 4.816406 -2.988281 5.210938 -3.140625 5.703125 -3.140625 C 6.203125 -3.140625 6.597656 -2.988281 6.890625 -2.6875 C 7.191406 -2.394531 7.34375 -2 7.34375 -1.5 C 7.34375 -0.988281 7.191406 -0.578125 6.890625 -0.265625 C 6.597656 0.0351562 6.203125 0.1875 5.703125 0.1875 C 5.210938 0.1875 4.816406 0.0351562 4.515625 -0.265625 C 4.210938 -0.578125 4.0625 -0.988281 4.0625 -1.5 Z M 4.0625 -1.5 "/></g></g></g></g></g><g transform="matrix(1, 0, 0, 1, 301, 49)"><g clip-path="url(#30ca2be830)"><g fill="#0fbd8c" fill-opacity="1"><g transform="translate(0.752282, 18.53751)"><g><path d="M 4.0625 -1.5 C 4.0625 -2 4.210938 -2.394531 4.515625 -2.6875 C 4.816406 -2.988281 5.210938 -3.140625 5.703125 -3.140625 C 6.203125 -3.140625 6.597656 -2.988281 6.890625 -2.6875 C 7.191406 -2.394531 7.34375 -2 7.34375 -1.5 C 7.34375 -0.988281 7.191406 -0.578125 6.890625 -0.265625 C 6.597656 0.0351562 6.203125 0.1875 5.703125 0.1875 C 5.210938 0.1875 4.816406 0.0351562 4.515625 -0.265625 C 4.210938 -0.578125 4.0625 -0.988281 4.0625 -1.5 Z M 4.0625 -1.5 "/></g></g></g><g fill="#0fbd8c" fill-opacity="1"><g transform="translate(12.163239, 18.53751)"><g><path d="M 4.0625 -1.5 C 4.0625 -2 4.210938 -2.394531 4.515625 -2.6875 C 4.816406 -2.988281 5.210938 -3.140625 5.703125 -3.140625 C 6.203125 -3.140625 6.597656 -2.988281 6.890625 -2.6875 C 7.191406 -2.394531 7.34375 -2 7.34375 -1.5 C 7.34375 -0.988281 7.191406 -0.578125 6.890625 -0.265625 C 6.597656 0.0351562 6.203125 0.1875 5.703125 0.1875 C 5.210938 0.1875 4.816406 0.0351562 4.515625 -0.265625 C 4.210938 -0.578125 4.0625 -0.988281 4.0625 -1.5 Z M 4.0625 -1.5 "/></g></g></g><g fill="#0fbd8c" fill-opacity="1"><g transform="translate(23.574197, 18.53751)"><g><path d="M 4.0625 -1.5 C 4.0625 -2 4.210938 -2.394531 4.515625 -2.6875 C 4.816406 -2.988281 5.210938 -3.140625 5.703125 -3.140625 C 6.203125 -3.140625 6.597656 -2.988281 6.890625 -2.6875 C 7.191406 -2.394531 7.34375 -2 7.34375 -1.5 C 7.34375 -0.988281 7.191406 -0.578125 6.890625 -0.265625 C 6.597656 0.0351562 6.203125 0.1875 5.703125 0.1875 C 5.210938 0.1875 4.816406 0.0351562 4.515625 -0.265625 C 4.210938 -0.578125 4.0625 -0.988281 4.0625 -1.5 Z M 4.0625 -1.5 "/></g></g></g><g fill="#0fbd8c" fill-opacity="1"><g transform="translate(34.985154, 18.53751)"><g><path d="M 1.9375 -13.6875 L 2.8125 -3.6875 C 2.84375 -3.445312 2.863281 -3.175781 2.875 -2.875 C 2.882812 -2.570312 2.894531 -2.285156 2.90625 -2.015625 C 2.914062 -1.703125 2.929688 -1.378906 2.953125 -1.046875 L 3.15625 -1.046875 C 3.175781 -1.378906 3.207031 -1.703125 3.25 -2.015625 C 3.28125 -2.285156 3.3125 -2.570312 3.34375 -2.875 C 3.382812 -3.175781 3.414062 -3.445312 3.4375 -3.6875 L 4.765625 -13.6875 L 6.671875 -13.6875 L 7.921875 -3.6875 C 7.953125 -3.457031 7.984375 -3.191406 8.015625 -2.890625 C 8.054688 -2.585938 8.09375 -2.296875 8.125 -2.015625 C 8.15625 -1.703125 8.191406 -1.378906 8.234375 -1.046875 L 8.4375 -1.046875 C 8.457031 -1.378906 8.472656 -1.703125 8.484375 -2.015625 C 8.492188 -2.285156 8.503906 -2.570312 8.515625 -2.875 C 8.523438 -3.175781 8.546875 -3.445312 8.578125 -3.6875 L 9.46875 -13.6875 L 10.9375 -13.6875 L 9.5 0 L 7.1875 0 L 5.984375 -10.0625 C 5.953125 -10.425781 5.925781 -10.765625 5.90625 -11.078125 C 5.882812 -11.390625 5.867188 -11.648438 5.859375 -11.859375 C 5.859375 -12.128906 5.859375 -12.375 5.859375 -12.59375 L 5.609375 -12.59375 C 5.609375 -12.375 5.609375 -12.128906 5.609375 -11.859375 C 5.597656 -11.648438 5.582031 -11.390625 5.5625 -11.078125 C 5.539062 -10.765625 5.503906 -10.425781 5.453125 -10.0625 L 4.171875 0 L 1.84375 0 L 0.46875 -13.6875 Z M 1.9375 -13.6875 "/></g></g></g><g fill="#0fbd8c" fill-opacity="1"><g transform="translate(46.396112, 18.53751)"><g><path d="M 3.234375 -3.890625 C 3.234375 -3.097656 3.453125 -2.472656 3.890625 -2.015625 C 4.328125 -1.554688 4.929688 -1.328125 5.703125 -1.328125 C 6.460938 -1.328125 7.0625 -1.554688 7.5 -2.015625 C 7.945312 -2.472656 8.171875 -3.097656 8.171875 -3.890625 L 8.171875 -6.5625 C 8.171875 -7.363281 7.945312 -7.988281 7.5 -8.4375 C 7.0625 -8.894531 6.460938 -9.125 5.703125 -9.125 C 4.941406 -9.125 4.335938 -8.894531 3.890625 -8.4375 C 3.453125 -7.988281 3.234375 -7.363281 3.234375 -6.5625 Z M 1.515625 -6.5625 C 1.515625 -7.195312 1.613281 -7.765625 1.8125 -8.265625 C 2.007812 -8.765625 2.285156 -9.191406 2.640625 -9.546875 C 3.003906 -9.898438 3.441406 -10.171875 3.953125 -10.359375 C 4.472656 -10.554688 5.054688 -10.65625 5.703125 -10.65625 C 6.992188 -10.65625 8.015625 -10.289062 8.765625 -9.5625 C 9.515625 -8.84375 9.890625 -7.847656 9.890625 -6.578125 L 9.890625 -3.890625 C 9.890625 -3.265625 9.789062 -2.695312 9.59375 -2.1875 C 9.40625 -1.675781 9.128906 -1.242188 8.765625 -0.890625 C 8.410156 -0.546875 7.972656 -0.28125 7.453125 -0.09375 C 6.929688 0.09375 6.347656 0.1875 5.703125 0.1875 C 5.054688 0.1875 4.472656 0.09375 3.953125 -0.09375 C 3.441406 -0.28125 3.003906 -0.550781 2.640625 -0.90625 C 2.285156 -1.257812 2.007812 -1.691406 1.8125 -2.203125 C 1.613281 -2.710938 1.515625 -3.273438 1.515625 -3.890625 Z M 1.515625 -6.5625 "/></g></g></g><g fill="#0fbd8c" fill-opacity="1"><g transform="translate(57.807069, 18.53751)"><g><path d="M 2.125 -10.453125 L 3.75 -10.453125 L 3.75 -8.65625 L 3.890625 -8.65625 C 4.054688 -9.269531 4.398438 -9.753906 4.921875 -10.109375 C 5.441406 -10.472656 6.082031 -10.65625 6.84375 -10.65625 C 7.945312 -10.65625 8.8125 -10.304688 9.4375 -9.609375 C 10.0625 -8.921875 10.375 -7.972656 10.375 -6.765625 L 10.375 -6.1875 L 8.671875 -6.1875 L 8.671875 -6.5625 C 8.671875 -7.382812 8.460938 -8.019531 8.046875 -8.46875 C 7.640625 -8.914062 7.054688 -9.140625 6.296875 -9.140625 C 5.546875 -9.140625 4.945312 -8.910156 4.5 -8.453125 C 4.0625 -7.992188 3.84375 -7.363281 3.84375 -6.5625 L 3.84375 0 L 2.125 0 Z M 2.125 -10.453125 "/></g></g></g><g fill="#0fbd8c" fill-opacity="1"><g transform="translate(69.218026, 18.53751)"><g><path d="M 5.9375 -13.875 L 5.9375 -3.046875 C 5.9375 -2.578125 6.0625 -2.210938 6.3125 -1.953125 C 6.5625 -1.691406 6.910156 -1.5625 7.359375 -1.5625 L 10.453125 -1.5625 L 10.453125 0 L 7.359375 0 C 6.378906 0 5.609375 -0.265625 5.046875 -0.796875 C 4.492188 -1.335938 4.21875 -2.085938 4.21875 -3.046875 L 4.21875 -12.328125 L 0.765625 -12.328125 L 0.765625 -13.875 Z M 5.9375 -13.875 "/></g></g></g><g fill="#0fbd8c" fill-opacity="1"><g transform="translate(80.628984, 18.53751)"><g><path d="M 1.515625 -6.5625 C 1.515625 -7.195312 1.597656 -7.765625 1.765625 -8.265625 C 1.941406 -8.773438 2.179688 -9.203125 2.484375 -9.546875 C 2.796875 -9.898438 3.164062 -10.171875 3.59375 -10.359375 C 4.019531 -10.554688 4.503906 -10.65625 5.046875 -10.65625 C 5.816406 -10.65625 6.453125 -10.476562 6.953125 -10.125 C 7.460938 -9.78125 7.800781 -9.289062 7.96875 -8.65625 L 8.125 -8.65625 C 8.101562 -8.863281 8.085938 -9.078125 8.078125 -9.296875 C 8.054688 -9.484375 8.039062 -9.679688 8.03125 -9.890625 C 8.03125 -10.109375 8.03125 -10.296875 8.03125 -10.453125 L 8.03125 -13.875 L 9.734375 -13.875 L 9.734375 0 L 8.125 0 L 8.125 -1.8125 L 7.96875 -1.8125 C 7.800781 -1.175781 7.460938 -0.679688 6.953125 -0.328125 C 6.453125 0.015625 5.816406 0.1875 5.046875 0.1875 C 4.503906 0.1875 4.019531 0.09375 3.59375 -0.09375 C 3.164062 -0.28125 2.796875 -0.546875 2.484375 -0.890625 C 2.179688 -1.242188 1.941406 -1.675781 1.765625 -2.1875 C 1.597656 -2.695312 1.515625 -3.265625 1.515625 -3.890625 Z M 5.6875 -1.296875 C 6.394531 -1.296875 6.960938 -1.53125 7.390625 -2 C 7.816406 -2.46875 8.03125 -3.097656 8.03125 -3.890625 L 8.03125 -6.5625 C 8.03125 -7.363281 7.816406 -8 7.390625 -8.46875 C 6.960938 -8.9375 6.394531 -9.171875 5.6875 -9.171875 C 4.914062 -9.171875 4.3125 -8.941406 3.875 -8.484375 C 3.445312 -8.023438 3.234375 -7.382812 3.234375 -6.5625 L 3.234375 -3.890625 C 3.234375 -3.097656 3.453125 -2.46875 3.890625 -2 C 4.328125 -1.53125 4.925781 -1.296875 5.6875 -1.296875 Z M 5.6875 -1.296875 "/></g></g></g><g fill="#0fbd8c" fill-opacity="1"><g transform="translate(92.039941, 18.53751)"><g><path d="M 4.703125 -13.6875 L 6.71875 -13.6875 L 6.71875 -11.40625 L 6.3125 -4.09375 L 5.09375 -4.09375 L 4.703125 -11.40625 Z M 5.515625 -2.1875 L 5.890625 -2.1875 C 6.265625 -2.1875 6.5625 -2.078125 6.78125 -1.859375 C 7.007812 -1.648438 7.125 -1.375 7.125 -1.03125 C 7.125 -0.6875 7.007812 -0.410156 6.78125 -0.203125 C 6.5625 -0.00390625 6.265625 0.09375 5.890625 0.09375 L 5.515625 0.09375 C 5.148438 0.09375 4.851562 -0.00390625 4.625 -0.203125 C 4.394531 -0.398438 4.28125 -0.675781 4.28125 -1.03125 C 4.28125 -1.375 4.394531 -1.648438 4.625 -1.859375 C 4.851562 -2.078125 5.148438 -2.1875 5.515625 -2.1875 Z M 5.515625 -2.1875 "/></g></g></g></g></g></g></g></g><g clip-path="url(#3a479eee80)"><g clip-path="url(#0d9fdef8df)"><g transform="matrix(1, 0, 0, 1, 22, 64)"><g clip-path="url(#44ae9adde1)"><g clip-path="url(#bbe865da0e)"><g clip-path="url(#5031e934a9)"><path fill="#ffffff" d="M 0.5 0.46875 L 129.203125 0.46875 L 129.203125 96.53125 L 0.5 96.53125 Z M 0.5 0.46875 " fill-opacity="1" fill-rule="nonzero"/></g></g></g></g></g></g><g clip-path="url(#9b8b1123cf)"><g clip-path="url(#2d7da86c2f)"><path stroke-linecap="butt" transform="matrix(0.75, 0, 0, 0.75, 22.499999, 64.472074)" fill="none" stroke-linejoin="miter" d="M 30.000003 0.000776715 L 141.718757 0.000776715 C 158.286466 0.000776715 171.718758 13.433069 171.718758 30.000778 L 171.718758 98.073697 C 171.718758 114.641406 158.286466 128.073699 141.718757 128.073699 L 30.000003 128.073699 C 13.432293 128.073699 0.00000125 114.641406 0.00000125 98.073697 L 0.00000125 30.000778 C 0.00000125 13.433069 13.432293 0.000776715 30.000003 0.000776715 Z M 30.000003 0.000776715 " stroke="#0fbd8c" stroke-width="8" stroke-opacity="1" stroke-miterlimit="4"/></g></g><path stroke-linecap="round" transform="matrix(0.75, -0.000000000000000279, 0.000000000000000279, 0.75, 162.890633, 121.339099)" fill="none" stroke-linejoin="miter" d="M 7.499989 5.000993 L 160.624996 5.000993 " stroke="#ffffff" stroke-width="10" stroke-opacity="1" stroke-miterlimit="4"/><path stroke-linecap="round" transform="matrix(0.75, -0.000000000000000279, 0.000000000000000279, 0.75, 162.890633, 121.339099)" fill="none" stroke-linejoin="round" d="M 24.99999 -9.999008 L 4.999989 5.000993 L 24.99999 20.000993 " stroke="#ffffff" stroke-width="10" stroke-opacity="1" stroke-miterlimit="4"/><path stroke-linecap="round" transform="matrix(0.75, -0.000000000000000093, 0.000000000000000093, 0.75, 162.890633, 96.160912)" fill="none" stroke-linejoin="miter" d="M 4.999989 4.998993 L 158.124996 4.998993 " stroke="#ffffff" stroke-width="10" stroke-opacity="1" stroke-miterlimit="4"/><path stroke-linecap="round" transform="matrix(0.75, -0.000000000000000093, 0.000000000000000093, 0.75, 162.890633, 96.160912)" fill="none" stroke-linejoin="round" d="M 140.624995 -10.001008 L 160.624996 4.998993 L 140.624995 19.998994 " stroke="#ffffff" stroke-width="10" stroke-opacity="1" stroke-miterlimit="4"/><g clip-path="url(#a42d8558e4)"><g clip-path="url(#6e7e41bc8b)"><g transform="matrix(1, 0, 0, 1, 298, 64)"><g clip-path="url(#e9da400d1a)"><g clip-path="url(#7325094955)"><g clip-path="url(#be4e4290f8)"><path fill="#ffffff" d="M 0.703125 0.46875 L 129.410156 0.46875 L 129.410156 96.53125 L 0.703125 96.53125 Z M 0.703125 0.46875 " fill-opacity="1" fill-rule="nonzero"/></g></g></g></g></g></g><g clip-path="url(#d8f2f5fc0f)"><g clip-path="url(#51aebe3b3a)"><path stroke-linecap="butt" transform="matrix(0.75, 0, 0, 0.75, 298.704244, 64.472074)" fill="none" stroke-linejoin="miter" d="M 29.998509 0.000776715 L 141.722472 0.000776715 C 158.290181 0.000776715 171.717265 13.433069 171.717265 30.000778 L 171.717265 98.073697 C 171.717265 114.641406 158.290181 128.073699 141.722472 128.073699 L 29.998509 128.073699 C 13.4308 128.073699 -0.00149247 114.641406 -0.00149247 98.073697 L -0.00149247 30.000778 C -0.00149247 13.433069 13.4308 0.000776715 29.998509 0.000776715 Z M 29.998509 0.000776715 " stroke="#0fbd8c" stroke-width="8" stroke-opacity="1" stroke-miterlimit="4"/></g></g><g transform="matrix(1, 0, 0, 1, 35, 100)"><g clip-path="url(#e4f82e6591)"><g fill="#0fbd8c" fill-opacity="1"><g transform="translate(0.54805, 19.037511)"><g><path d="M 3.421875 -13.6875 L 3.421875 -7.90625 L 7.984375 -7.90625 L 7.984375 -13.6875 L 9.703125 -13.6875 L 9.703125 0 L 7.984375 0 L 7.984375 -6.34375 L 3.421875 -6.34375 L 3.421875 0 L 1.71875 0 L 1.71875 -13.6875 Z M 3.421875 -13.6875 "/></g></g></g><g fill="#0fbd8c" fill-opacity="1"><g transform="translate(11.959008, 19.037511)"><g><path d="M 5.703125 0.1875 C 4.398438 0.1875 3.375 -0.164062 2.625 -0.875 C 1.882812 -1.582031 1.515625 -2.554688 1.515625 -3.796875 L 1.515625 -6.65625 C 1.515625 -7.894531 1.882812 -8.867188 2.625 -9.578125 C 3.375 -10.296875 4.398438 -10.65625 5.703125 -10.65625 C 7.003906 -10.65625 8.023438 -10.296875 8.765625 -9.578125 C 9.515625 -8.867188 9.890625 -7.894531 9.890625 -6.65625 L 9.890625 -4.734375 L 3.234375 -4.734375 L 3.234375 -3.890625 C 3.234375 -3.097656 3.453125 -2.472656 3.890625 -2.015625 C 4.328125 -1.554688 4.929688 -1.328125 5.703125 -1.328125 C 6.273438 -1.328125 6.769531 -1.414062 7.1875 -1.59375 C 7.601562 -1.769531 7.914062 -2.03125 8.125 -2.375 L 9.828125 -2.375 C 9.609375 -1.570312 9.128906 -0.941406 8.390625 -0.484375 C 7.648438 -0.0351562 6.753906 0.1875 5.703125 0.1875 Z M 8.171875 -6.15625 L 8.171875 -6.65625 C 8.171875 -7.4375 7.957031 -8.039062 7.53125 -8.46875 C 7.101562 -8.90625 6.492188 -9.125 5.703125 -9.125 C 4.921875 -9.125 4.3125 -8.90625 3.875 -8.46875 C 3.445312 -8.039062 3.234375 -7.4375 3.234375 -6.65625 L 3.234375 -6.15625 Z M 8.171875 -6.15625 "/></g></g></g><g fill="#0fbd8c" fill-opacity="1"><g transform="translate(23.369965, 19.037511)"><g><path d="M 5.9375 -13.875 L 5.9375 -3.046875 C 5.9375 -2.578125 6.0625 -2.210938 6.3125 -1.953125 C 6.5625 -1.691406 6.910156 -1.5625 7.359375 -1.5625 L 10.453125 -1.5625 L 10.453125 0 L 7.359375 0 C 6.378906 0 5.609375 -0.265625 5.046875 -0.796875 C 4.492188 -1.335938 4.21875 -2.085938 4.21875 -3.046875 L 4.21875 -12.328125 L 0.765625 -12.328125 L 0.765625 -13.875 Z M 5.9375 -13.875 "/></g></g></g><g fill="#0fbd8c" fill-opacity="1"><g transform="translate(34.780922, 19.037511)"><g><path d="M 5.9375 -13.875 L 5.9375 -3.046875 C 5.9375 -2.578125 6.0625 -2.210938 6.3125 -1.953125 C 6.5625 -1.691406 6.910156 -1.5625 7.359375 -1.5625 L 10.453125 -1.5625 L 10.453125 0 L 7.359375 0 C 6.378906 0 5.609375 -0.265625 5.046875 -0.796875 C 4.492188 -1.335938 4.21875 -2.085938 4.21875 -3.046875 L 4.21875 -12.328125 L 0.765625 -12.328125 L 0.765625 -13.875 Z M 5.9375 -13.875 "/></g></g></g><g fill="#0fbd8c" fill-opacity="1"><g transform="translate(46.19188, 19.037511)"><g><path d="M 3.234375 -3.890625 C 3.234375 -3.097656 3.453125 -2.472656 3.890625 -2.015625 C 4.328125 -1.554688 4.929688 -1.328125 5.703125 -1.328125 C 6.460938 -1.328125 7.0625 -1.554688 7.5 -2.015625 C 7.945312 -2.472656 8.171875 -3.097656 8.171875 -3.890625 L 8.171875 -6.5625 C 8.171875 -7.363281 7.945312 -7.988281 7.5 -8.4375 C 7.0625 -8.894531 6.460938 -9.125 5.703125 -9.125 C 4.941406 -9.125 4.335938 -8.894531 3.890625 -8.4375 C 3.453125 -7.988281 3.234375 -7.363281 3.234375 -6.5625 Z M 1.515625 -6.5625 C 1.515625 -7.195312 1.613281 -7.765625 1.8125 -8.265625 C 2.007812 -8.765625 2.285156 -9.191406 2.640625 -9.546875 C 3.003906 -9.898438 3.441406 -10.171875 3.953125 -10.359375 C 4.472656 -10.554688 5.054688 -10.65625 5.703125 -10.65625 C 6.992188 -10.65625 8.015625 -10.289062 8.765625 -9.5625 C 9.515625 -8.84375 9.890625 -7.847656 9.890625 -6.578125 L 9.890625 -3.890625 C 9.890625 -3.265625 9.789062 -2.695312 9.59375 -2.1875 C 9.40625 -1.675781 9.128906 -1.242188 8.765625 -0.890625 C 8.410156 -0.546875 7.972656 -0.28125 7.453125 -0.09375 C 6.929688 0.09375 6.347656 0.1875 5.703125 0.1875 C 5.054688 0.1875 4.472656 0.09375 3.953125 -0.09375 C 3.441406 -0.28125 3.003906 -0.550781 2.640625 -0.90625 C 2.285156 -1.257812 2.007812 -1.691406 1.8125 -2.203125 C 1.613281 -2.710938 1.515625 -3.273438 1.515625 -3.890625 Z M 1.515625 -6.5625 "/></g></g></g><g fill="#0fbd8c" fill-opacity="1"><g transform="translate(57.602837, 19.037511)"><g><path d="M 7.125 -2.875 L 4.65625 3.046875 L 3.140625 3.046875 L 4.65625 -2.875 Z M 7.125 -2.875 "/></g></g></g><g fill="#0fbd8c" fill-opacity="1"><g transform="translate(69.013795, 19.037511)"><g><path d="M 4.0625 -1.5 C 4.0625 -2 4.210938 -2.394531 4.515625 -2.6875 C 4.816406 -2.988281 5.210938 -3.140625 5.703125 -3.140625 C 6.203125 -3.140625 6.597656 -2.988281 6.890625 -2.6875 C 7.191406 -2.394531 7.34375 -2 7.34375 -1.5 C 7.34375 -0.988281 7.191406 -0.578125 6.890625 -0.265625 C 6.597656 0.0351562 6.203125 0.1875 5.703125 0.1875 C 5.210938 0.1875 4.816406 0.0351562 4.515625 -0.265625 C 4.210938 -0.578125 4.0625 -0.988281 4.0625 -1.5 Z M 4.0625 -1.5 "/></g></g></g><g fill="#0fbd8c" fill-opacity="1"><g transform="translate(80.424752, 19.037511)"><g><path d="M 4.0625 -1.5 C 4.0625 -2 4.210938 -2.394531 4.515625 -2.6875 C 4.816406 -2.988281 5.210938 -3.140625 5.703125 -3.140625 C 6.203125 -3.140625 6.597656 -2.988281 6.890625 -2.6875 C 7.191406 -2.394531 7.34375 -2 7.34375 -1.5 C 7.34375 -0.988281 7.191406 -0.578125 6.890625 -0.265625 C 6.597656 0.0351562 6.203125 0.1875 5.703125 0.1875 C 5.210938 0.1875 4.816406 0.0351562 4.515625 -0.265625 C 4.210938 -0.578125 4.0625 -0.988281 4.0625 -1.5 Z M 4.0625 -1.5 "/></g></g></g><g fill="#0fbd8c" fill-opacity="1"><g transform="translate(91.83571, 19.037511)"><g><path d="M 4.0625 -1.5 C 4.0625 -2 4.210938 -2.394531 4.515625 -2.6875 C 4.816406 -2.988281 5.210938 -3.140625 5.703125 -3.140625 C 6.203125 -3.140625 6.597656 -2.988281 6.890625 -2.6875 C 7.191406 -2.394531 7.34375 -2 7.34375 -1.5 C 7.34375 -0.988281 7.191406 -0.578125 6.890625 -0.265625 C 6.597656 0.0351562 6.203125 0.1875 5.703125 0.1875 C 5.210938 0.1875 4.816406 0.0351562 4.515625 -0.265625 C 4.210938 -0.578125 4.0625 -0.988281 4.0625 -1.5 Z M 4.0625 -1.5 "/></g></g></g></g></g><g transform="matrix(1, 0, 0, 1, 311, 100)"><g clip-path="url(#0c40330eb2)"><g fill="#0fbd8c" fill-opacity="1"><g transform="translate(0.752282, 19.037511)"><g><path d="M 4.0625 -1.5 C 4.0625 -2 4.210938 -2.394531 4.515625 -2.6875 C 4.816406 -2.988281 5.210938 -3.140625 5.703125 -3.140625 C 6.203125 -3.140625 6.597656 -2.988281 6.890625 -2.6875 C 7.191406 -2.394531 7.34375 -2 7.34375 -1.5 C 7.34375 -0.988281 7.191406 -0.578125 6.890625 -0.265625 C 6.597656 0.0351562 6.203125 0.1875 5.703125 0.1875 C 5.210938 0.1875 4.816406 0.0351562 4.515625 -0.265625 C 4.210938 -0.578125 4.0625 -0.988281 4.0625 -1.5 Z M 4.0625 -1.5 "/></g></g></g><g fill="#0fbd8c" fill-opacity="1"><g transform="translate(12.163239, 19.037511)"><g><path d="M 4.0625 -1.5 C 4.0625 -2 4.210938 -2.394531 4.515625 -2.6875 C 4.816406 -2.988281 5.210938 -3.140625 5.703125 -3.140625 C 6.203125 -3.140625 6.597656 -2.988281 6.890625 -2.6875 C 7.191406 -2.394531 7.34375 -2 7.34375 -1.5 C 7.34375 -0.988281 7.191406 -0.578125 6.890625 -0.265625 C 6.597656 0.0351562 6.203125 0.1875 5.703125 0.1875 C 5.210938 0.1875 4.816406 0.0351562 4.515625 -0.265625 C 4.210938 -0.578125 4.0625 -0.988281 4.0625 -1.5 Z M 4.0625 -1.5 "/></g></g></g><g fill="#0fbd8c" fill-opacity="1"><g transform="translate(23.574197, 19.037511)"><g><path d="M 4.0625 -1.5 C 4.0625 -2 4.210938 -2.394531 4.515625 -2.6875 C 4.816406 -2.988281 5.210938 -3.140625 5.703125 -3.140625 C 6.203125 -3.140625 6.597656 -2.988281 6.890625 -2.6875 C 7.191406 -2.394531 7.34375 -2 7.34375 -1.5 C 7.34375 -0.988281 7.191406 -0.578125 6.890625 -0.265625 C 6.597656 0.0351562 6.203125 0.1875 5.703125 0.1875 C 5.210938 0.1875 4.816406 0.0351562 4.515625 -0.265625 C 4.210938 -0.578125 4.0625 -0.988281 4.0625 -1.5 Z M 4.0625 -1.5 "/></g></g></g><g fill="#0fbd8c" fill-opacity="1"><g transform="translate(34.985154, 19.037511)"><g><path d="M 1.9375 -13.6875 L 2.8125 -3.6875 C 2.84375 -3.445312 2.863281 -3.175781 2.875 -2.875 C 2.882812 -2.570312 2.894531 -2.285156 2.90625 -2.015625 C 2.914062 -1.703125 2.929688 -1.378906 2.953125 -1.046875 L 3.15625 -1.046875 C 3.175781 -1.378906 3.207031 -1.703125 3.25 -2.015625 C 3.28125 -2.285156 3.3125 -2.570312 3.34375 -2.875 C 3.382812 -3.175781 3.414062 -3.445312 3.4375 -3.6875 L 4.765625 -13.6875 L 6.671875 -13.6875 L 7.921875 -3.6875 C 7.953125 -3.457031 7.984375 -3.191406 8.015625 -2.890625 C 8.054688 -2.585938 8.09375 -2.296875 8.125 -2.015625 C 8.15625 -1.703125 8.191406 -1.378906 8.234375 -1.046875 L 8.4375 -1.046875 C 8.457031 -1.378906 8.472656 -1.703125 8.484375 -2.015625 C 8.492188 -2.285156 8.503906 -2.570312 8.515625 -2.875 C 8.523438 -3.175781 8.546875 -3.445312 8.578125 -3.6875 L 9.46875 -13.6875 L 10.9375 -13.6875 L 9.5 0 L 7.1875 0 L 5.984375 -10.0625 C 5.953125 -10.425781 5.925781 -10.765625 5.90625 -11.078125 C 5.882812 -11.390625 5.867188 -11.648438 5.859375 -11.859375 C 5.859375 -12.128906 5.859375 -12.375 5.859375 -12.59375 L 5.609375 -12.59375 C 5.609375 -12.375 5.609375 -12.128906 5.609375 -11.859375 C 5.597656 -11.648438 5.582031 -11.390625 5.5625 -11.078125 C 5.539062 -10.765625 5.503906 -10.425781 5.453125 -10.0625 L 4.171875 0 L 1.84375 0 L 0.46875 -13.6875 Z M 1.9375 -13.6875 "/></g></g></g><g fill="#0fbd8c" fill-opacity="1"><g transform="translate(46.396112, 19.037511)"><g><path d="M 3.234375 -3.890625 C 3.234375 -3.097656 3.453125 -2.472656 3.890625 -2.015625 C 4.328125 -1.554688 4.929688 -1.328125 5.703125 -1.328125 C 6.460938 -1.328125 7.0625 -1.554688 7.5 -2.015625 C 7.945312 -2.472656 8.171875 -3.097656 8.171875 -3.890625 L 8.171875 -6.5625 C 8.171875 -7.363281 7.945312 -7.988281 7.5 -8.4375 C 7.0625 -8.894531 6.460938 -9.125 5.703125 -9.125 C 4.941406 -9.125 4.335938 -8.894531 3.890625 -8.4375 C 3.453125 -7.988281 3.234375 -7.363281 3.234375 -6.5625 Z M 1.515625 -6.5625 C 1.515625 -7.195312 1.613281 -7.765625 1.8125 -8.265625 C 2.007812 -8.765625 2.285156 -9.191406 2.640625 -9.546875 C 3.003906 -9.898438 3.441406 -10.171875 3.953125 -10.359375 C 4.472656 -10.554688 5.054688 -10.65625 5.703125 -10.65625 C 6.992188 -10.65625 8.015625 -10.289062 8.765625 -9.5625 C 9.515625 -8.84375 9.890625 -7.847656 9.890625 -6.578125 L 9.890625 -3.890625 C 9.890625 -3.265625 9.789062 -2.695312 9.59375 -2.1875 C 9.40625 -1.675781 9.128906 -1.242188 8.765625 -0.890625 C 8.410156 -0.546875 7.972656 -0.28125 7.453125 -0.09375 C 6.929688 0.09375 6.347656 0.1875 5.703125 0.1875 C 5.054688 0.1875 4.472656 0.09375 3.953125 -0.09375 C 3.441406 -0.28125 3.003906 -0.550781 2.640625 -0.90625 C 2.285156 -1.257812 2.007812 -1.691406 1.8125 -2.203125 C 1.613281 -2.710938 1.515625 -3.273438 1.515625 -3.890625 Z M 1.515625 -6.5625 "/></g></g></g><g fill="#0fbd8c" fill-opacity="1"><g transform="translate(57.807069, 19.037511)"><g><path d="M 2.125 -10.453125 L 3.75 -10.453125 L 3.75 -8.65625 L 3.890625 -8.65625 C 4.054688 -9.269531 4.398438 -9.753906 4.921875 -10.109375 C 5.441406 -10.472656 6.082031 -10.65625 6.84375 -10.65625 C 7.945312 -10.65625 8.8125 -10.304688 9.4375 -9.609375 C 10.0625 -8.921875 10.375 -7.972656 10.375 -6.765625 L 10.375 -6.1875 L 8.671875 -6.1875 L 8.671875 -6.5625 C 8.671875 -7.382812 8.460938 -8.019531 8.046875 -8.46875 C 7.640625 -8.914062 7.054688 -9.140625 6.296875 -9.140625 C 5.546875 -9.140625 4.945312 -8.910156 4.5 -8.453125 C 4.0625 -7.992188 3.84375 -7.363281 3.84375 -6.5625 L 3.84375 0 L 2.125 0 Z M 2.125 -10.453125 "/></g></g></g><g fill="#0fbd8c" fill-opacity="1"><g transform="translate(69.218026, 19.037511)"><g><path d="M 5.9375 -13.875 L 5.9375 -3.046875 C 5.9375 -2.578125 6.0625 -2.210938 6.3125 -1.953125 C 6.5625 -1.691406 6.910156 -1.5625 7.359375 -1.5625 L 10.453125 -1.5625 L 10.453125 0 L 7.359375 0 C 6.378906 0 5.609375 -0.265625 5.046875 -0.796875 C 4.492188 -1.335938 4.21875 -2.085938 4.21875 -3.046875 L 4.21875 -12.328125 L 0.765625 -12.328125 L 0.765625 -13.875 Z M 5.9375 -13.875 "/></g></g></g><g fill="#0fbd8c" fill-opacity="1"><g transform="translate(80.628984, 19.037511)"><g><path d="M 1.515625 -6.5625 C 1.515625 -7.195312 1.597656 -7.765625 1.765625 -8.265625 C 1.941406 -8.773438 2.179688 -9.203125 2.484375 -9.546875 C 2.796875 -9.898438 3.164062 -10.171875 3.59375 -10.359375 C 4.019531 -10.554688 4.503906 -10.65625 5.046875 -10.65625 C 5.816406 -10.65625 6.453125 -10.476562 6.953125 -10.125 C 7.460938 -9.78125 7.800781 -9.289062 7.96875 -8.65625 L 8.125 -8.65625 C 8.101562 -8.863281 8.085938 -9.078125 8.078125 -9.296875 C 8.054688 -9.484375 8.039062 -9.679688 8.03125 -9.890625 C 8.03125 -10.109375 8.03125 -10.296875 8.03125 -10.453125 L 8.03125 -13.875 L 9.734375 -13.875 L 9.734375 0 L 8.125 0 L 8.125 -1.8125 L 7.96875 -1.8125 C 7.800781 -1.175781 7.460938 -0.679688 6.953125 -0.328125 C 6.453125 0.015625 5.816406 0.1875 5.046875 0.1875 C 4.503906 0.1875 4.019531 0.09375 3.59375 -0.09375 C 3.164062 -0.28125 2.796875 -0.546875 2.484375 -0.890625 C 2.179688 -1.242188 1.941406 -1.675781 1.765625 -2.1875 C 1.597656 -2.695312 1.515625 -3.265625 1.515625 -3.890625 Z M 5.6875 -1.296875 C 6.394531 -1.296875 6.960938 -1.53125 7.390625 -2 C 7.816406 -2.46875 8.03125 -3.097656 8.03125 -3.890625 L 8.03125 -6.5625 C 8.03125 -7.363281 7.816406 -8 7.390625 -8.46875 C 6.960938 -8.9375 6.394531 -9.171875 5.6875 -9.171875 C 4.914062 -9.171875 4.3125 -8.941406 3.875 -8.484375 C 3.445312 -8.023438 3.234375 -7.382812 3.234375 -6.5625 L 3.234375 -3.890625 C 3.234375 -3.097656 3.453125 -2.46875 3.890625 -2 C 4.328125 -1.53125 4.925781 -1.296875 5.6875 -1.296875 Z M 5.6875 -1.296875 "/></g></g></g><g fill="#0fbd8c" fill-opacity="1"><g transform="translate(92.039941, 19.037511)"><g><path d="M 4.703125 -13.6875 L 6.71875 -13.6875 L 6.71875 -11.40625 L 6.3125 -4.09375 L 5.09375 -4.09375 L 4.703125 -11.40625 Z M 5.515625 -2.1875 L 5.890625 -2.1875 C 6.265625 -2.1875 6.5625 -2.078125 6.78125 -1.859375 C 7.007812 -1.648438 7.125 -1.375 7.125 -1.03125 C 7.125 -0.6875 7.007812 -0.410156 6.78125 -0.203125 C 6.5625 -0.00390625 6.265625 0.09375 5.890625 0.09375 L 5.515625 0.09375 C 5.148438 0.09375 4.851562 -0.00390625 4.625 -0.203125 C 4.394531 -0.398438 4.28125 -0.675781 4.28125 -1.03125 C 4.28125 -1.375 4.394531 -1.648438 4.625 -1.859375 C 4.851562 -2.078125 5.148438 -2.1875 5.515625 -2.1875 Z M 5.515625 -2.1875 "/></g></g></g></g></g></svg>