<?xml version="1.0" encoding="UTF-8"?>
<svg version="1.1" xmlns="http://www.w3.org/2000/svg" width="1200" height="600">
<path d="M0 0 C396 0 792 0 1200 0 C1200 198 1200 396 1200 600 C804 600 408 600 0 600 C0 402 0 204 0 0 Z " fill="#000000" transform="translate(0,0)"/>
<path d="M0 0 C0.88703613 0.25620117 1.77407227 0.51240234 2.68798828 0.77636719 C50.67329747 14.9856525 97.04359814 45.50947881 127 86 C128.04994141 87.35931641 128.04994141 87.35931641 129.12109375 88.74609375 C170.8438896 143.19542698 191.07458125 209.57032705 183 278 C182.90203125 278.83644043 182.8040625 279.67288086 182.703125 280.53466797 C176.26724174 332.54041543 152.87947096 388.52572222 114.67578125 425.32421875 C112.8629262 427.1370738 111.21931185 429.04398962 109.5625 431 C106.02140253 435.08949752 102.14554017 438.53708737 98 442 C97.11441406 442.76183594 96.22882813 443.52367187 95.31640625 444.30859375 C42.82746654 488.99041361 -24.70855653 511.23607113 -93.55859375 506.50390625 C-152.47548398 501.51652298 -209.29438659 477.13160652 -252 436 C-252.65935547 435.36787598 -253.31871094 434.73575195 -253.99804688 434.08447266 C-263.48630305 424.94002521 -272.2262044 415.64265991 -280 405 C-280.85806152 403.84894983 -281.71613451 402.69790823 -282.57421875 401.546875 C-323.06621088 346.6265244 -340.11481996 277.38375215 -330 210.0078125 C-322.82273187 165.7694079 -305.8728337 124.19924338 -278 89 C-277.19820313 87.97261719 -276.39640625 86.94523437 -275.5703125 85.88671875 C-262.69429183 70.02823323 -247.60909998 54.9068882 -231 43 C-229.85444913 42.14980962 -228.70993929 41.29821499 -227.56640625 40.4453125 C-219.37498199 34.39536222 -210.87264697 28.99226139 -202 24 C-201.23864746 23.57074219 -200.47729492 23.14148438 -199.69287109 22.69921875 C-137.93088828 -11.7356606 -67.95348068 -19.64605087 0 0 Z " fill="#000000" transform="translate(674,52)"/>
<path d="M0 0 C0.88703613 0.25620117 1.77407227 0.51240234 2.68798828 0.77636719 C50.67329747 14.9856525 97.04359814 45.50947881 127 86 C128.04994141 87.35931641 128.04994141 87.35931641 129.12109375 88.74609375 C170.8438896 143.19542698 191.07458125 209.57032705 183 278 C182.90203125 278.83644043 182.8040625 279.67288086 182.703125 280.53466797 C176.26724174 332.54041543 152.87947096 388.52572222 114.67578125 425.32421875 C112.8629262 427.1370738 111.21931185 429.04398962 109.5625 431 C106.02140253 435.08949752 102.14554017 438.53708737 98 442 C97.11441406 442.76183594 96.22882813 443.52367187 95.31640625 444.30859375 C42.82746654 488.99041361 -24.70855653 511.23607113 -93.55859375 506.50390625 C-152.47548398 501.51652298 -209.29438659 477.13160652 -252 436 C-252.65935547 435.36787598 -253.31871094 434.73575195 -253.99804688 434.08447266 C-263.48630305 424.94002521 -272.2262044 415.64265991 -280 405 C-280.85806152 403.84894983 -281.71613451 402.69790823 -282.57421875 401.546875 C-323.06621088 346.6265244 -340.11481996 277.38375215 -330 210.0078125 C-322.82273187 165.7694079 -305.8728337 124.19924338 -278 89 C-277.19820313 87.97261719 -276.39640625 86.94523437 -275.5703125 85.88671875 C-262.69429183 70.02823323 -247.60909998 54.9068882 -231 43 C-229.85444913 42.14980962 -228.70993929 41.29821499 -227.56640625 40.4453125 C-219.37498199 34.39536222 -210.87264697 28.99226139 -202 24 C-201.23864746 23.57074219 -200.47729492 23.14148438 -199.69287109 22.69921875 C-137.93088828 -11.7356606 -67.95348068 -19.64605087 0 0 Z M-198 98 C-198.54930176 98.44778809 -199.09860352 98.89557617 -199.66455078 99.35693359 C-240.30258953 132.6567449 -263.73823253 177.67684031 -269.21386719 230.04541016 C-269.61727298 234.36014463 -269.84088697 238.67019705 -270 243 C-270.05285156 244.05445313 -270.10570312 245.10890625 -270.16015625 246.1953125 C-271.56802185 297.0008973 -248.58020631 347.80792772 -214.375 384.4375 C-211.94418509 386.98633652 -209.4844707 389.50349282 -207 392 C-206.51321777 392.49081055 -206.02643555 392.98162109 -205.52490234 393.48730469 C-194.09915284 404.84315935 -180.14374431 413.44792709 -166 421 C-165.38721191 421.3309668 -164.77442383 421.66193359 -164.14306641 422.00292969 C-119.09371251 446.1385743 -66.32206564 450.54413447 -17.48632812 435.84277344 C-8.30834216 432.92694623 0.38286266 429.28095574 9 425 C9.77682129 424.61972656 10.55364258 424.23945313 11.35400391 423.84765625 C31.41720913 413.95191727 48.62291083 401.222999 65 386 C65.99773437 385.08347656 65.99773437 385.08347656 67.015625 384.1484375 C73.40720026 378.04266438 78.69502988 371.04331009 84 364 C84.6290625 363.16597656 85.258125 362.33195312 85.90625 361.47265625 C114.95238342 321.39721273 127.6524927 269.95291178 120.41015625 220.96606445 C111.81625419 168.07424201 82.58431332 120.09763192 39.55859375 88.20703125 C32.07911876 82.83312954 24.12953289 78.30825384 16 74 C15.30471191 73.63036133 14.60942383 73.26072266 13.89306641 72.87988281 C-55.10308016 36.86313081 -138.69073267 49.15163804 -198 98 Z " fill="#9E9E9E" transform="translate(674,52)"/>
<path d="M0 0 C0.85860626 -0.00014603 1.71721252 -0.00029205 2.60183716 -0.0004425 C5.44796246 0.00025576 8.29402281 0.00804414 11.14013672 0.01586914 C13.11025965 0.01773363 15.08038304 0.01915739 17.05050659 0.02015686 C22.24222081 0.02397963 27.43390716 0.03380788 32.62561035 0.04486084 C37.92081322 0.05508011 43.21602058 0.05965559 48.51123047 0.06469727 C58.90577398 0.07543035 69.30029678 0.09250391 79.69482422 0.11352539 C83.59418528 8.34970126 87.43083623 16.57159151 90.76904297 25.05493164 C91.12727142 25.95401749 91.48549988 26.85310333 91.85458374 27.7794342 C93.03454643 30.74337279 94.20840263 33.70968956 95.38232422 36.67602539 C96.22811315 38.80365921 97.07440131 40.93109462 97.92114258 43.05834961 C99.30095967 46.52515363 100.68036639 49.99211667 102.05818176 53.4597168 C106.06394429 63.53968221 110.09152798 73.61083026 114.12451172 83.67993164 C114.76295285 85.27419203 115.40138567 86.86845574 116.03981018 88.46272278 C118.57367268 94.78999321 121.10778996 101.11716152 123.64242554 107.44412231 C125.14130542 111.18589113 126.63926884 114.92802573 128.13661575 118.67040825 C128.69111164 120.05583785 129.24591976 121.44114253 129.80106735 122.82631111 C131.03254089 125.89913244 132.25965871 128.97338511 133.4770813 132.05181885 C134.20606829 133.88467225 134.94754818 135.71274126 135.71408081 137.5302124 C137.65998982 142.27191717 137.69482422 144.59945371 137.69482422 150.11352539 C154.19482422 150.11352539 170.69482422 150.11352539 187.69482422 150.11352539 C187.69482422 160.34352539 187.69482422 170.57352539 187.69482422 181.11352539 C170.36982422 181.60852539 170.36982422 181.60852539 152.69482422 182.11352539 C154.17982422 188.05352539 154.17982422 188.05352539 155.69482422 194.11352539 C166.25482422 194.11352539 176.81482422 194.11352539 187.69482422 194.11352539 C187.69482422 204.34352539 187.69482422 214.57352539 187.69482422 225.11352539 C182.08482422 226.10352539 176.47482422 227.09352539 170.69482422 228.11352539 C171.54947266 230.2443457 172.40412109 232.37516602 173.28466797 234.57055664 C174.11226882 236.63565883 174.93957165 238.70088016 175.7668457 240.76611328 C176.34172925 242.20080856 176.9169223 243.63537986 177.49243164 245.06982422 C178.31982617 247.1322425 179.14610488 249.19510478 179.97216797 251.25805664 C180.22949203 251.89878616 180.4868161 252.53951569 180.75193787 253.19966125 C183.17529516 259.25767342 183.69482422 262.11438365 183.69482422 269.11352539 C158.94482422 269.11352539 134.19482422 269.11352539 108.69482422 269.11352539 C93.69482422 230.93170721 93.69482422 230.93170721 93.69482422 225.11352539 C55.41482422 225.11352539 17.13482422 225.11352539 -22.30517578 225.11352539 C-23.29517578 229.07352539 -24.28517578 233.03352539 -25.30517578 237.11352539 C-26.3592859 240.29627433 -27.43678355 243.41909381 -28.61767578 246.55102539 C-28.88773438 247.29416992 -29.15779297 248.03731445 -29.43603516 248.80297852 C-32.03495679 255.79461053 -35.15190423 262.28143704 -38.30517578 269.11352539 C-63.05517578 269.11352539 -87.80517578 269.11352539 -113.30517578 269.11352539 C-110.67785277 258.60423334 -108.03776705 249.04684897 -104.05517578 239.11352539 C-103.59626953 237.94563477 -103.13736328 236.77774414 -102.66455078 235.57446289 C-101.55350345 232.75055093 -100.43375713 229.93046444 -99.30517578 227.11352539 C-100.26939453 227.05293945 -101.23361328 226.99235352 -102.22705078 226.92993164 C-103.49033203 226.84614258 -104.75361328 226.76235352 -106.05517578 226.67602539 C-107.93462891 226.55420898 -107.93462891 226.55420898 -109.85205078 226.42993164 C-112.51064033 226.18632785 -114.75452523 225.80005106 -117.30517578 225.11352539 C-117.329832 220.85937916 -117.34801477 216.60527041 -117.36010742 212.35107422 C-117.36514679 210.90282467 -117.37197831 209.45458022 -117.38061523 208.00634766 C-117.39269825 205.92877951 -117.39840789 203.85127842 -117.40283203 201.77368164 C-117.40806885 200.52208252 -117.41330566 199.2704834 -117.41870117 197.98095703 C-117.30517578 195.11352539 -117.30517578 195.11352539 -116.30517578 194.11352539 C-113.92949059 194.02512869 -111.58308904 193.99822234 -109.20751953 194.01586914 C-108.1442318 194.01799156 -108.1442318 194.01799156 -107.0594635 194.02015686 C-104.78715866 194.02577096 -102.51495103 194.03832576 -100.24267578 194.05102539 C-98.70556783 194.05603858 -97.16845833 194.0606018 -95.63134766 194.06469727 C-91.85591936 194.07574497 -88.08056407 194.09301898 -84.30517578 194.11352539 C-84.17240234 193.42645508 -84.03962891 192.73938477 -83.90283203 192.03149414 C-83.72623047 191.13043945 -83.54962891 190.22938477 -83.36767578 189.30102539 C-83.19365234 188.40770508 -83.01962891 187.51438477 -82.84033203 186.59399414 C-82.30517578 184.11352539 -82.30517578 184.11352539 -81.30517578 181.11352539 C-93.18517578 181.11352539 -105.06517578 181.11352539 -117.30517578 181.11352539 C-117.32580078 176.18415039 -117.34642578 171.25477539 -117.36767578 166.17602539 C-117.37677979 164.61891846 -117.38588379 163.06181152 -117.39526367 161.45751953 C-117.39776123 160.24185303 -117.40025879 159.02618652 -117.40283203 157.77368164 C-117.40806885 156.52208252 -117.41330566 155.2704834 -117.41870117 153.98095703 C-117.30517578 151.11352539 -117.30517578 151.11352539 -116.30517578 150.11352539 C-114.7397053 150.02025823 -113.17004806 149.99606957 -111.60180664 150 C-110.60084457 150.00007553 -109.59988251 150.00015106 -108.56858826 150.00022888 C-107.48006058 150.00539017 -106.3915329 150.01055145 -105.27001953 150.01586914 C-103.60743858 150.01799156 -103.60743858 150.01799156 -101.91127014 150.02015686 C-98.35504509 150.02577506 -94.79888195 150.03833064 -91.24267578 150.05102539 C-88.83837981 150.05603805 -86.43408286 150.06060136 -84.02978516 150.06469727 C-78.12156074 150.0757504 -72.21337268 150.09250622 -66.30517578 150.11352539 C-66.25093445 149.52093933 -66.19669312 148.92835327 -66.14080811 148.31781006 C-65.71926177 144.08974874 -65.25943889 140.19410953 -63.75830078 136.19165039 C-63.41927734 135.27730225 -63.08025391 134.3629541 -62.73095703 133.42089844 C-62.34294922 132.41196533 -61.95494141 131.40303223 -61.55517578 130.36352539 C-61.13107422 129.23922119 -60.70697266 128.11491699 -60.27001953 126.95654297 C-54.10825928 110.70967656 -47.60912097 94.58846916 -41.18537903 78.44407654 C-37.14572486 68.29031991 -33.1254185 58.12966852 -29.15283203 47.94946289 C-28.7450351 46.9046022 -28.33723816 45.85974152 -27.91708374 44.78321838 C-25.99664911 39.85979171 -24.0797947 34.93499587 -22.16650391 30.00878906 C-19.15738288 22.27415511 -16.1343875 14.54556986 -12.92626953 6.89086914 C-12.46534912 5.78864014 -12.00442871 4.68641113 -11.52954102 3.55078125 C-9.12705591 -1.23167315 -4.74389174 -0.02090981 0 0 Z " fill="#9E9E9E" transform="translate(561.30517578125,131.886474609375)"/>
<path d="M0 0 C0.66 0 1.32 0 2 0 C4.56475284 7.23078076 7.12338171 14.46370929 9.67822266 21.69799805 C10.54375331 24.14671121 11.41056652 26.59497152 12.27880859 29.04272461 C16.88518174 42.03184286 21.41055441 55.03781321 25.625 68.16015625 C25.96797119 69.22535995 26.31094238 70.29056366 26.66430664 71.38804626 C27.12824829 72.84930687 27.12824829 72.84930687 27.6015625 74.34008789 C27.87307129 75.19518448 28.14458008 76.05028107 28.42431641 76.93128967 C29 79 29 79 29 81 C9.53 81 -9.94 81 -30 81 C-28.87483539 71.99868316 -28.87483539 71.99868316 -27.28515625 67.7434082 C-26.93388672 66.79073563 -26.58261719 65.83806305 -26.22070312 64.85652161 C-25.64739258 63.34393013 -25.64739258 63.34393013 -25.0625 61.80078125 C-24.66353516 60.72990768 -24.26457031 59.65903412 -23.85351562 58.55570984 C-23.00691674 56.28908493 -22.15607452 54.02404098 -21.30126953 51.76049805 C-20.02249718 48.3721112 -18.75816737 44.97862104 -17.49609375 41.58398438 C-3.12059186 3.12059186 -3.12059186 3.12059186 0 0 Z " fill="#000000" transform="translate(597,201)"/>
<path d="M0 0 C27.72 0 55.44 0 84 0 C84.99 4.29 85.98 8.58 87 13 C56.97 13 26.94 13 -4 13 C-2.68 8.71 -1.36 4.42 0 0 Z " fill="#000000" transform="translate(555,313)"/>
</svg>
