<?xml version="1.0" encoding="UTF-8"?>
<svg version="1.1" xmlns="http://www.w3.org/2000/svg" width="256" height="256">
<path d="M0 0 C22.03852652 18.81159856 36.46579334 41.06373377 44.3515625 68.91015625 C44.69316406 70.08835937 45.03476563 71.2665625 45.38671875 72.48046875 C51.59092755 98.74014322 48.11935597 128.40755389 37.3515625 152.91015625 C36.92665527 153.89145508 36.92665527 153.89145508 36.49316406 154.89257812 C26.55015943 177.41540631 9.36838282 197.08371443 -11.6484375 209.91015625 C-12.7209375 210.59335938 -13.7934375 211.2765625 -14.8984375 211.98046875 C-42.75922794 228.94201478 -78.25061189 233.92648545 -110.03027344 226.74707031 C-117.81941729 224.77736357 -125.2980262 222.14033195 -132.6484375 218.91015625 C-133.30263672 218.62688477 -133.95683594 218.34361328 -134.63085938 218.05175781 C-164.72593234 204.76588414 -188.43262339 179.18859339 -200.51953125 148.71386719 C-202.47890077 143.51521742 -204.1350825 138.25415274 -205.6484375 132.91015625 C-205.99003906 131.73195312 -206.33164063 130.55375 -206.68359375 129.33984375 C-214.21743998 97.45240157 -207.83557456 61.43465161 -191.0078125 33.60546875 C-172.71931393 4.51560818 -145.47270495 -14.79440926 -112.6484375 -24.08984375 C-111.47023438 -24.43144531 -110.29203125 -24.77304687 -109.078125 -25.125 C-71.91216204 -33.90596927 -29.43835184 -24.14652242 0 0 Z M-156.6484375 38.91015625 C-172.67694352 58.08877328 -180.39649038 84.58883523 -178.37109375 109.29296875 C-175.47176315 135.74590885 -162.95551413 159.58453308 -142.6484375 176.91015625 C-126.54316705 189.69963572 -106.32111062 198.09178881 -85.6484375 198.91015625 C-84.88917969 198.95011719 -84.12992187 198.99007812 -83.34765625 199.03125 C-56.58027709 199.77600523 -31.43614176 188.81627258 -12.05444336 170.765625 C5.27239012 154.01073452 16.39428313 130.09186565 17.3515625 105.91015625 C17.39152344 105.15089844 17.43148437 104.39164062 17.47265625 103.609375 C18.21741148 76.84199584 7.25767883 51.69786051 -10.79296875 32.31616211 C-27.54785923 14.98932863 -51.4667281 3.86743562 -75.6484375 2.91015625 C-76.78732422 2.85021484 -76.78732422 2.85021484 -77.94921875 2.7890625 C-108.85996006 1.92902551 -136.24997698 16.43324997 -156.6484375 38.91015625 Z " fill="#9E9E9E" transform="translate(208.6484375,27.08984375)"/>
<path d="M0 0 C0.77943466 0.00222061 1.55886932 0.00444122 2.36192322 0.00672913 C3.24276077 0.00680466 4.12359833 0.00688019 5.03112793 0.00695801 C5.98841293 0.01211929 6.94569794 0.01728058 7.93199158 0.02259827 C9.39480812 0.02472069 9.39480812 0.02472069 10.88717651 0.02688599 C14.01542675 0.03250319 17.14360656 0.04505859 20.27183533 0.05775452 C22.38706867 0.0627673 24.50230313 0.06733059 26.61753845 0.07142639 C31.81482829 0.0824782 37.01207678 0.09923305 42.20933533 0.12025452 C44.99114051 6.25135911 47.57911745 12.43507533 50.03746033 18.70228577 C50.39015991 19.5965477 50.7428595 20.49080963 51.10624695 21.41217041 C52.22577321 24.25164814 53.3426808 27.09214638 54.45933533 29.93275452 C55.55770215 32.7224312 56.65663952 35.51188174 57.75608826 38.3011322 C58.48324951 40.14660515 59.20957288 41.99240848 59.93504333 43.83854675 C61.77833964 48.52275324 63.64125977 53.19772765 65.53941345 57.86000061 C65.91177124 58.7778685 66.28412903 59.69573639 66.66777039 60.64141846 C67.37741176 62.38745737 68.09128321 64.13178483 68.8099823 65.87411499 C69.12578247 66.65232101 69.44158264 67.43052704 69.76695251 68.23231506 C70.04641724 68.91327744 70.32588196 69.59423981 70.61381531 70.2958374 C71.20933533 72.12025452 71.20933533 72.12025452 71.20933533 75.12025452 C79.45933533 75.12025452 87.70933533 75.12025452 96.20933533 75.12025452 C96.20933533 80.07025452 96.20933533 85.02025452 96.20933533 90.12025452 C90.26933533 90.12025452 84.32933533 90.12025452 78.20933533 90.12025452 C79.19933533 93.58525452 79.19933533 93.58525452 80.20933533 97.12025452 C85.48933533 97.12025452 90.76933533 97.12025452 96.20933533 97.12025452 C96.20933533 102.07025452 96.20933533 107.02025452 96.20933533 112.12025452 C91.75433533 112.61525452 91.75433533 112.61525452 87.20933533 113.12025452 C87.71464783 114.38482483 88.21996033 115.64939514 88.74058533 116.95228577 C89.39710252 118.61233637 90.05333789 120.27249845 90.70933533 121.93275452 C91.21013611 123.18282288 91.21013611 123.18282288 91.72105408 124.45814514 C92.19478455 125.66180725 92.19478455 125.66180725 92.67808533 126.88978577 C92.97134705 127.62817688 93.26460876 128.36656799 93.5667572 129.12733459 C94.20933533 131.12025452 94.20933533 131.12025452 94.20933533 134.12025452 C81.99933533 134.12025452 69.78933533 134.12025452 57.20933533 134.12025452 C52.20933533 122.12025452 52.20933533 122.12025452 49.20933533 112.12025452 C30.06933533 112.12025452 10.92933533 112.12025452 -8.79066467 112.12025452 C-9.78066467 115.42025452 -10.77066467 118.72025452 -11.79066467 122.12025452 C-13.44066467 126.08025452 -15.09066467 130.04025452 -16.79066467 134.12025452 C-29.00066467 134.12025452 -41.21066467 134.12025452 -53.79066467 134.12025452 C-53.12644169 130.7991396 -52.55358611 128.20194253 -51.38050842 125.13197327 C-50.97928772 124.07333069 -50.97928772 124.07333069 -50.56996155 122.99330139 C-50.29216858 122.27207092 -50.01437561 121.55084045 -49.72816467 120.80775452 C-49.30567444 119.69690491 -49.30567444 119.69690491 -48.87464905 118.56361389 C-48.18347892 116.74782796 -47.48754779 114.93385552 -46.79066467 113.12025452 C-49.76066467 112.79025452 -52.73066467 112.46025452 -55.79066467 112.12025452 C-55.79066467 107.17025452 -55.79066467 102.22025452 -55.79066467 97.12025452 C-50.51066467 97.12025452 -45.23066467 97.12025452 -39.79066467 97.12025452 C-39.13066467 94.81025452 -38.47066467 92.50025452 -37.79066467 90.12025452 C-43.73066467 90.12025452 -49.67066467 90.12025452 -55.79066467 90.12025452 C-55.79066467 85.17025452 -55.79066467 80.22025452 -55.79066467 75.12025452 C-47.54066467 75.12025452 -39.29066467 75.12025452 -30.79066467 75.12025452 C-30.46066467 73.47025452 -30.13066467 71.82025452 -29.79066467 70.12025452 C-29.35657583 68.81240456 -28.88723921 67.51570998 -28.38294983 66.23329163 C-27.95527061 65.13675514 -27.95527061 65.13675514 -27.51895142 64.01806641 C-27.20900742 63.23581192 -26.89906342 62.45355743 -26.57972717 61.64759827 C-26.09323952 60.40527184 -26.09323952 60.40527184 -25.59692383 59.1378479 C-24.54049397 56.44289749 -23.47821404 53.75029736 -22.41566467 51.05775452 C-21.68868055 49.20762776 -20.96203839 47.35736659 -20.23573303 45.50697327 C-18.77968367 41.7989731 -17.32138244 38.09187022 -15.86146545 34.38539124 C-14.00387255 29.66668315 -12.15847317 24.94332065 -10.31800842 20.21791077 C-9.80623132 18.90610245 -9.29435377 17.59433332 -8.78236389 16.28260803 C-7.84630499 13.88393711 -6.91168008 11.48470597 -5.97865295 9.08485413 C-5.56728088 8.03434875 -5.15590881 6.98384338 -4.73207092 5.90150452 C-4.37830383 4.99464905 -4.02453674 4.08779358 -3.66004944 3.15345764 C-2.37999398 0.15983173 -2.37999398 0.15983173 0 0 Z M20.20933533 34.12025452 C16.81155042 41.441672 13.97030993 48.92962212 11.20787048 56.50672913 C10.45138235 58.57954609 9.68806625 60.64976379 8.92417908 62.71986389 C8.44069992 64.03937657 7.95761227 65.35903278 7.47496033 66.67884827 C7.03957947 67.86792786 6.60419861 69.05700745 6.15562439 70.28211975 C5.10390159 72.9378518 5.10390159 72.9378518 5.20933533 75.12025452 C15.10933533 75.12025452 25.00933533 75.12025452 35.20933533 75.12025452 C33.41183797 69.12859667 31.62027392 63.23448378 29.51011658 57.36244202 C29.27020493 56.6885141 29.03029327 56.01458618 28.78311157 55.32023621 C28.03167856 53.21107057 27.2768325 51.10314658 26.52183533 48.99525452 C26.00533054 47.54741943 25.48905281 46.09950333 24.9730072 44.65150452 C23.72106347 41.14015088 22.46606019 37.62990025 21.20933533 34.12025452 C20.87933533 34.12025452 20.54933533 34.12025452 20.20933533 34.12025452 Z M-0.79066467 90.12025452 C-1.45066467 92.43025452 -2.11066467 94.74025452 -2.79066467 97.12025452 C12.38933533 97.12025452 27.56933533 97.12025452 43.20933533 97.12025452 C42.54933533 94.81025452 41.88933533 92.50025452 41.20933533 90.12025452 C27.34933533 90.12025452 13.48933533 90.12025452 -0.79066467 90.12025452 Z " fill="#9E9E9E" transform="translate(107.79066467285156,45.87974548339844)"/>
</svg>
