<svg xmlns="http://www.w3.org/2000/svg" width="600" height="300" viewBox="0 0 600 300"><path fill="#00a11b" d="M0 300V0h600v300z" style="stroke-miterlimit:10"/><path fill="#036e15" fill-rule="evenodd" stroke="#fff" stroke-width="4" d="M305.153 255.602a4.69 4.69 0 0 1-5.395.173 189.3 189.3 0 0 1-46.814-41.766 148.77 148.77 0 0 1-31.5-67.959c-3.742-23.176-.174-45.451 11.429-63.58a78.3 78.3 0 0 1 17.401-19.317 84.8 84.8 0 0 1 53.254-19.694 75.42 75.42 0 0 1 50.643 20.652 75.5 75.5 0 0 1 13.517 16.474c12.385 20.304 15.054 46.408 9.6 72.86a160.37 160.37 0 0 1-72.135 102.156Zm-5.134-170.927c21.978 0 39.794 17.817 39.794 39.795s-17.816 39.795-39.794 39.795-39.796-17.816-39.796-39.795c0-21.978 17.818-39.795 39.796-39.795z" style="stroke-miterlimit:10"/></svg>