<?xml version="1.0" encoding="UTF-8"?>
<svg xmlns="http://www.w3.org/2000/svg" xmlns:xlink="http://www.w3.org/1999/xlink" width="600px" height="300px" viewBox="0 0 600 300" version="1.1">
<g id="surface1">
<path style=" stroke:none;fill-rule:nonzero;fill:rgb(90.588235%,29.803922%,23.529412%);fill-opacity:1;" d="M 0.00390625 300.007812 L 0.00390625 0.0078125 L 600.003906 0.0078125 L 600.003906 300.007812 Z M 0.00390625 300.007812 "/>
<path style="fill:none;stroke-width:25;stroke-linecap:butt;stroke-linejoin:miter;stroke:rgb(100%,52.156863%,47.058824%);stroke-opacity:1;stroke-miterlimit:10;" d="M -60.00338 315.135121 L 118.785683 315.135121 " transform="matrix(1,0,0,1,60.00338,-29.99059)"/>
<path style="fill:none;stroke-width:25;stroke-linecap:round;stroke-linejoin:miter;stroke:rgb(100%,52.156863%,47.058824%);stroke-opacity:1;stroke-miterlimit:10;" d="M 111.24662 315.135121 L 129.102089 315.135121 " transform="matrix(1,0,0,1,60.00338,-29.99059)"/>
<path style="fill:none;stroke-width:25;stroke-linecap:butt;stroke-linejoin:miter;stroke:rgb(100%,52.156863%,47.058824%);stroke-opacity:1;stroke-miterlimit:10;" d="M 540.102089 315.135121 L 361.30912 315.135121 " transform="matrix(1,0,0,1,60.00338,-29.99059)"/>
<path style="fill:none;stroke-width:25;stroke-linecap:round;stroke-linejoin:miter;stroke:rgb(100%,52.156863%,47.058824%);stroke-opacity:1;stroke-miterlimit:10;" d="M 350.99662 315.135121 L 368.848183 315.135121 " transform="matrix(1,0,0,1,60.00338,-29.99059)"/>
<path style="fill:none;stroke-width:25;stroke-linecap:butt;stroke-linejoin:miter;stroke:rgb(100%,52.156863%,47.058824%);stroke-opacity:1;stroke-miterlimit:10;" d="M 118.785683 44.86559 L -60.00338 44.86559 " transform="matrix(1,0,0,1,60.00338,-29.99059)"/>
<path style="fill:none;stroke-width:25;stroke-linecap:round;stroke-linejoin:miter;stroke:rgb(100%,52.156863%,47.058824%);stroke-opacity:1;stroke-miterlimit:10;" d="M 129.102089 44.86559 L 111.24662 44.86559 " transform="matrix(1,0,0,1,60.00338,-29.99059)"/>
<path style="fill:none;stroke-width:25;stroke-linecap:butt;stroke-linejoin:miter;stroke:rgb(100%,52.156863%,47.058824%);stroke-opacity:1;stroke-miterlimit:10;" d="M 361.30912 44.86559 L 540.102089 44.86559 " transform="matrix(1,0,0,1,60.00338,-29.99059)"/>
<path style="fill:none;stroke-width:25;stroke-linecap:round;stroke-linejoin:miter;stroke:rgb(100%,52.156863%,47.058824%);stroke-opacity:1;stroke-miterlimit:10;" d="M 350.99662 44.86559 L 368.848183 44.86559 " transform="matrix(1,0,0,1,60.00338,-29.99059)"/>
<path style="fill:none;stroke-width:25;stroke-linecap:butt;stroke-linejoin:miter;stroke:rgb(100%,52.156863%,47.058824%);stroke-opacity:1;stroke-miterlimit:10;" d="M -60.00338 270.088246 L 83.047401 270.088246 " transform="matrix(1,0,0,1,60.00338,-29.99059)"/>
<path style="fill:none;stroke-width:25;stroke-linecap:round;stroke-linejoin:miter;stroke:rgb(100%,52.156863%,47.058824%);stroke-opacity:1;stroke-miterlimit:10;" d="M 75.504433 270.088246 L 93.359901 270.088246 " transform="matrix(1,0,0,1,60.00338,-29.99059)"/>
<path style="fill:none;stroke-width:25;stroke-linecap:butt;stroke-linejoin:miter;stroke:rgb(100%,52.156863%,47.058824%);stroke-opacity:1;stroke-miterlimit:10;" d="M 397.051308 270.088246 L 540.102089 270.088246 " transform="matrix(1,0,0,1,60.00338,-29.99059)"/>
<path style="fill:none;stroke-width:25;stroke-linecap:round;stroke-linejoin:miter;stroke:rgb(100%,52.156863%,47.058824%);stroke-opacity:1;stroke-miterlimit:10;" d="M 386.738808 270.088246 L 404.59037 270.088246 " transform="matrix(1,0,0,1,60.00338,-29.99059)"/>
<path style="fill:none;stroke-width:25;stroke-linecap:butt;stroke-linejoin:miter;stroke:rgb(100%,52.156863%,47.058824%);stroke-opacity:1;stroke-miterlimit:10;" d="M 83.047401 89.908559 L -60.00338 89.908559 " transform="matrix(1,0,0,1,60.00338,-29.99059)"/>
<path style="fill:none;stroke-width:25;stroke-linecap:round;stroke-linejoin:miter;stroke:rgb(100%,52.156863%,47.058824%);stroke-opacity:1;stroke-miterlimit:10;" d="M 93.359901 89.908559 L 75.504433 89.908559 " transform="matrix(1,0,0,1,60.00338,-29.99059)"/>
<path style="fill:none;stroke-width:25;stroke-linecap:butt;stroke-linejoin:miter;stroke:rgb(100%,52.156863%,47.058824%);stroke-opacity:1;stroke-miterlimit:10;" d="M 540.102089 89.908559 L 397.051308 89.908559 " transform="matrix(1,0,0,1,60.00338,-29.99059)"/>
<path style="fill:none;stroke-width:25;stroke-linecap:round;stroke-linejoin:miter;stroke:rgb(100%,52.156863%,47.058824%);stroke-opacity:1;stroke-miterlimit:10;" d="M 386.738808 89.908559 L 404.59037 89.908559 " transform="matrix(1,0,0,1,60.00338,-29.99059)"/>
<path style="fill:none;stroke-width:25;stroke-linecap:butt;stroke-linejoin:miter;stroke:rgb(100%,52.156863%,47.058824%);stroke-opacity:1;stroke-miterlimit:10;" d="M 47.305214 225.045277 L -60.00338 225.045277 " transform="matrix(1,0,0,1,60.00338,-29.99059)"/>
<path style="fill:none;stroke-width:25;stroke-linecap:round;stroke-linejoin:miter;stroke:rgb(100%,52.156863%,47.058824%);stroke-opacity:1;stroke-miterlimit:10;" d="M 57.617714 225.045277 L 39.766151 225.045277 " transform="matrix(1,0,0,1,60.00338,-29.99059)"/>
<path style="fill:none;stroke-width:25;stroke-linecap:butt;stroke-linejoin:miter;stroke:rgb(100%,52.156863%,47.058824%);stroke-opacity:1;stroke-miterlimit:10;" d="M 540.102089 225.045277 L 432.793495 225.045277 " transform="matrix(1,0,0,1,60.00338,-29.99059)"/>
<path style="fill:none;stroke-width:25;stroke-linecap:round;stroke-linejoin:miter;stroke:rgb(100%,52.156863%,47.058824%);stroke-opacity:1;stroke-miterlimit:10;" d="M 440.332558 225.045277 L 422.480995 225.045277 " transform="matrix(1,0,0,1,60.00338,-29.99059)"/>
<path style="fill:none;stroke-width:25;stroke-linecap:butt;stroke-linejoin:miter;stroke:rgb(100%,52.156863%,47.058824%);stroke-opacity:1;stroke-miterlimit:10;" d="M -60.00338 134.955434 L 47.305214 134.955434 " transform="matrix(1,0,0,1,60.00338,-29.99059)"/>
<path style="fill:none;stroke-width:25;stroke-linecap:round;stroke-linejoin:miter;stroke:rgb(100%,52.156863%,47.058824%);stroke-opacity:1;stroke-miterlimit:10;" d="M 39.766151 134.955434 L 57.617714 134.955434 " transform="matrix(1,0,0,1,60.00338,-29.99059)"/>
<path style="fill:none;stroke-width:25;stroke-linecap:butt;stroke-linejoin:miter;stroke:rgb(100%,52.156863%,47.058824%);stroke-opacity:1;stroke-miterlimit:10;" d="M 432.793495 134.955434 L 540.102089 134.955434 " transform="matrix(1,0,0,1,60.00338,-29.99059)"/>
<path style="fill:none;stroke-width:25;stroke-linecap:round;stroke-linejoin:miter;stroke:rgb(100%,52.156863%,47.058824%);stroke-opacity:1;stroke-miterlimit:10;" d="M 422.480995 134.955434 L 440.332558 134.955434 " transform="matrix(1,0,0,1,60.00338,-29.99059)"/>
<path style="fill:none;stroke-width:25;stroke-linecap:butt;stroke-linejoin:miter;stroke:rgb(100%,52.156863%,47.058824%);stroke-opacity:1;stroke-miterlimit:10;" d="M 11.563026 179.998402 L -60.00338 179.998402 " transform="matrix(1,0,0,1,60.00338,-29.99059)"/>
<path style="fill:none;stroke-width:25;stroke-linecap:round;stroke-linejoin:miter;stroke:rgb(100%,52.156863%,47.058824%);stroke-opacity:1;stroke-miterlimit:10;" d="M 21.875526 179.998402 L 4.023964 179.998402 " transform="matrix(1,0,0,1,60.00338,-29.99059)"/>
<path style="fill:none;stroke-width:25;stroke-linecap:butt;stroke-linejoin:miter;stroke:rgb(100%,52.156863%,47.058824%);stroke-opacity:1;stroke-miterlimit:10;" d="M 540.102089 179.998402 L 468.535683 179.998402 " transform="matrix(1,0,0,1,60.00338,-29.99059)"/>
<path style="fill:none;stroke-width:25;stroke-linecap:round;stroke-linejoin:miter;stroke:rgb(100%,52.156863%,47.058824%);stroke-opacity:1;stroke-miterlimit:10;" d="M 476.074745 179.998402 L 458.219276 179.998402 " transform="matrix(1,0,0,1,60.00338,-29.99059)"/>
<path style="fill-rule:nonzero;fill:rgb(100%,100%,100%);fill-opacity:1;stroke-width:12.5;stroke-linecap:butt;stroke-linejoin:miter;stroke:rgb(0%,0%,0%);stroke-opacity:0.14902;stroke-miterlimit:10;" d="M 88.555214 138.36559 C 88.555214 138.36559 87.602089 141.857777 88.492714 143.767934 C 89.383339 145.67809 92.77787 147.42809 92.77787 147.42809 C 92.77787 147.42809 95.004433 148.260121 105.234901 152.017934 C 107.824745 152.967152 109.15287 155.842152 108.203651 158.431996 C 107.250526 161.02184 104.379433 162.353871 101.785683 161.400746 C 93.492714 158.353871 77.980995 152.658559 77.980995 152.658559 C 75.387245 151.705434 74.05912 148.83434 75.012245 146.24059 C 75.012245 146.24059 79.926308 132.857777 83.68412 122.627309 C 84.637245 120.033559 87.508339 118.705434 90.098183 119.658559 C 92.691933 120.607777 94.020058 123.482777 93.066933 126.072621 C 90.023964 134.369496 88.555214 138.36559 88.555214 138.36559 Z M 88.555214 138.36559 " transform="matrix(1,0,0,1,60.00338,-29.99059)"/>
<path style=" stroke:none;fill-rule:nonzero;fill:rgb(100%,100%,100%);fill-opacity:1;" d="M 148.558594 108.375 C 148.558594 108.375 147.550781 111.753906 148.492188 113.773438 C 149.4375 115.796875 152.78125 117.4375 152.78125 117.4375 C 152.78125 117.4375 155.007812 118.269531 165.238281 122.027344 C 167.828125 122.976562 169.15625 125.851562 168.207031 128.441406 C 167.253906 131.03125 164.382812 132.363281 161.789062 131.410156 C 153.496094 128.363281 137.984375 122.667969 137.984375 122.667969 C 135.390625 121.714844 134.0625 118.84375 135.015625 116.25 C 135.015625 116.25 139.929688 102.867188 143.6875 92.636719 C 144.640625 90.042969 147.511719 88.714844 150.101562 89.667969 C 152.695312 90.617188 154.023438 93.492188 153.070312 96.082031 C 150.027344 104.378906 148.558594 108.375 148.558594 108.375 Z M 148.558594 108.375 "/>
<path style="fill-rule:nonzero;fill:rgb(100%,100%,100%);fill-opacity:1;stroke-width:12.5;stroke-linecap:butt;stroke-linejoin:miter;stroke:rgb(0%,0%,0%);stroke-opacity:0.14902;stroke-miterlimit:10;" d="M 135.773964 169.252309 C 136.668495 159.24059 145.516151 151.849965 155.531776 152.748402 C 160.387245 153.181996 164.629433 155.49059 167.605995 158.892934 C 168.125526 159.482777 135.828651 173.17809 135.770058 172.506215 C 135.676308 171.443715 135.672401 170.353871 135.773964 169.252309 Z M 135.773964 169.252309 " transform="matrix(1,0,0,1,60.00338,-29.99059)"/>
<path style="fill-rule:nonzero;fill:rgb(100%,100%,100%);fill-opacity:1;stroke-width:12.5;stroke-linecap:butt;stroke-linejoin:miter;stroke:rgb(0%,0%,0%);stroke-opacity:0.14902;stroke-miterlimit:10;" d="M 108.93412 184.310902 C 110.555214 182.099965 113.594276 178.162465 116.27787 175.806996 C 120.160683 172.400746 126.766151 169.27184 126.766151 169.27184 L 126.766151 174.27184 C 126.766151 174.27184 112.363808 183.11559 109.563026 184.83434 C 108.656776 185.392934 108.207558 185.299184 108.93412 184.310902 Z M 108.93412 184.310902 " transform="matrix(1,0,0,1,60.00338,-29.99059)"/>
<path style="fill-rule:nonzero;fill:rgb(100%,100%,100%);fill-opacity:1;stroke-width:12.5;stroke-linecap:butt;stroke-linejoin:miter;stroke:rgb(0%,0%,0%);stroke-opacity:0.14902;stroke-miterlimit:10;" d="M 117.801308 213.549184 C 107.793495 214.014027 102.000526 208.201527 99.605995 205.029652 C 98.723183 203.857777 98.723183 202.760121 99.531776 202.224965 C 104.457558 198.951527 123.645058 186.467152 147.27787 174.502309 C 171.332558 162.314809 199.96537 150.599965 221.555214 147.099965 C 223.398964 146.80309 233.773964 145.349965 232.793495 139.963246 C 231.730995 134.096059 223.043495 136.951527 221.734901 137.330434 C 207.750526 141.36559 174.270058 152.377309 174.270058 152.377309 L 167.676308 146.201527 C 167.676308 146.201527 212.336464 126.857777 252.293495 121.998402 C 285.137245 118.006215 314.164589 127.517934 321.852089 129.877309 C 338.254433 134.916371 356.453651 144.842152 369.801308 163.549184 C 383.148964 182.256215 382.895058 200.408559 380.289589 211.783559 C 377.332558 224.701527 359.801308 228.549184 359.801308 228.549184 C 359.801308 228.549184 334.609901 160.549184 292.301308 160.549184 C 286.258339 160.549184 277.762245 158.685902 256.391151 166.822621 C 198.238808 188.967152 142.71537 212.389027 117.801308 213.549184 Z M 117.801308 213.549184 " transform="matrix(1,0,0,1,60.00338,-29.99059)"/>
<path style="fill-rule:nonzero;fill:rgb(100%,100%,100%);fill-opacity:1;stroke-width:12.5;stroke-linecap:butt;stroke-linejoin:miter;stroke:rgb(0%,0%,0%);stroke-opacity:0.14902;stroke-miterlimit:10;" d="M 104.000526 221.408559 C 108.74662 223.482777 121.113808 225.357777 151.285683 215.502309 C 166.797401 210.435902 190.555214 203.068715 209.422401 195.349965 C 238.96537 183.264027 264.49662 171.049184 288.801308 171.049184 C 334.55912 171.049184 349.801308 232.549184 349.801308 232.549184 C 349.801308 232.549184 331.129433 237.517934 288.797401 237.264027 C 265.863808 237.123402 195.570839 240.142934 150.305214 238.451527 C 124.785683 237.498402 110.203651 227.611684 104.344276 222.529652 C 102.281776 220.74059 101.910683 220.498402 104.000526 221.408559 Z M 104.000526 221.408559 " transform="matrix(1,0,0,1,60.00338,-29.99059)"/>
<path style=" stroke:none;fill-rule:nonzero;fill:rgb(100%,100%,100%);fill-opacity:1;" d="M 195.777344 139.261719 C 196.671875 129.25 205.519531 121.859375 215.535156 122.757812 C 220.390625 123.191406 224.632812 125.5 227.609375 128.902344 C 228.128906 129.492188 195.832031 143.1875 195.773438 142.515625 C 195.679688 141.453125 195.675781 140.363281 195.777344 139.261719 Z M 195.777344 139.261719 "/>
<path style=" stroke:none;fill-rule:nonzero;fill:rgb(100%,100%,100%);fill-opacity:1;" d="M 167.769531 155.949219 C 167.769531 155.949219 172.398438 149.222656 176.28125 145.816406 C 180.164062 142.410156 186.769531 139.28125 186.769531 139.28125 L 186.769531 144.28125 Z M 167.769531 155.949219 "/>
<path style=" stroke:none;fill-rule:nonzero;fill:rgb(100%,100%,100%);fill-opacity:1;" d="M 177.804688 183.558594 C 164.097656 184.195312 158.304688 173.058594 158.304688 173.058594 C 158.304688 173.058594 179.78125 158.4375 207.28125 144.511719 C 231.335938 132.324219 259.96875 120.609375 281.558594 117.109375 C 283.402344 116.8125 293.777344 115.359375 292.796875 109.972656 C 291.734375 104.105469 283.046875 106.960938 281.738281 107.339844 C 267.753906 111.375 234.273438 122.386719 234.273438 122.386719 L 227.679688 116.210938 C 227.679688 116.210938 272.339844 96.867188 312.296875 92.007812 C 345.140625 88.015625 374.167969 97.527344 381.855469 99.886719 C 398.257812 104.925781 416.457031 114.851562 429.804688 133.558594 C 443.152344 152.265625 442.898438 170.417969 440.292969 181.792969 C 437.335938 194.710938 419.804688 198.558594 419.804688 198.558594 C 419.804688 198.558594 394.613281 130.558594 352.304688 130.558594 C 346.261719 130.558594 337.765625 128.695312 316.394531 136.832031 C 258.242188 158.976562 202.71875 182.398438 177.804688 183.558594 Z M 177.804688 183.558594 "/>
<path style=" stroke:none;fill-rule:nonzero;fill:rgb(100%,100%,100%);fill-opacity:1;" d="M 161.304688 189.558594 C 161.304688 189.558594 167.820312 199.710938 211.289062 185.511719 C 226.800781 180.445312 250.558594 173.078125 269.425781 165.359375 C 298.96875 153.273438 324.5 141.058594 348.804688 141.058594 C 394.5625 141.058594 409.804688 202.558594 409.804688 202.558594 C 409.804688 202.558594 391.132812 207.527344 348.800781 207.273438 C 325.867188 207.132812 255.574219 210.152344 210.308594 208.460938 C 175.8125 207.175781 161.304688 189.558594 161.304688 189.558594 Z M 161.304688 189.558594 "/>
<path style="fill-rule:nonzero;fill:rgb(100%,100%,100%);fill-opacity:1;stroke-width:12.5;stroke-linecap:butt;stroke-linejoin:miter;stroke:rgb(0%,0%,0%);stroke-opacity:0.14902;stroke-miterlimit:10;" d="M 201.160683 84.392934 C 201.160683 84.392934 197.164589 82.924184 188.867714 79.877309 C 186.273964 78.924184 184.945839 76.05309 185.898964 73.463246 C 186.848183 70.869496 189.719276 69.541371 192.313026 70.49059 C 202.543495 74.248402 215.930214 79.166371 215.930214 79.166371 C 218.520058 80.11559 219.852089 82.99059 218.898964 85.580434 C 218.898964 85.580434 213.203651 101.092152 210.156776 109.389027 C 209.203651 111.978871 206.332558 113.306996 203.742714 112.357777 C 201.148964 111.404652 199.820839 108.533559 200.773964 105.939809 C 204.52787 95.713246 205.336464 93.474965 205.336464 93.474965 C 205.336464 93.474965 206.199745 89.756215 205.316933 87.842152 C 204.438026 85.924184 201.160683 84.392934 201.160683 84.392934 Z M 201.160683 84.392934 " transform="matrix(1,0,0,1,60.00338,-29.99059)"/>
<path style=" stroke:none;fill-rule:nonzero;fill:rgb(100%,100%,100%);fill-opacity:1;" d="M 261.164062 54.402344 C 261.164062 54.402344 257.167969 52.933594 248.871094 49.886719 C 246.277344 48.933594 244.949219 46.0625 245.902344 43.472656 C 246.851562 40.878906 249.722656 39.550781 252.316406 40.5 C 262.546875 44.257812 275.933594 49.175781 275.933594 49.175781 C 278.523438 50.125 279.855469 53 278.902344 55.589844 C 278.902344 55.589844 273.207031 71.101562 270.160156 79.398438 C 269.207031 81.988281 266.335938 83.316406 263.746094 82.367188 C 261.152344 81.414062 259.824219 78.542969 260.777344 75.949219 C 264.53125 65.722656 265.339844 63.484375 265.339844 63.484375 C 265.339844 63.484375 266.253906 59.875 265.320312 57.847656 C 264.390625 55.820312 261.164062 54.402344 261.164062 54.402344 Z M 261.164062 54.402344 "/>
<path style="fill-rule:nonzero;fill:rgb(100%,100%,100%);fill-opacity:1;stroke-width:12.5;stroke-linecap:butt;stroke-linejoin:miter;stroke:rgb(0%,0%,0%);stroke-opacity:0.14902;stroke-miterlimit:10;" d="M 194.633339 36.346059 L 152.406776 135.545277 C 147.988808 145.904652 136.004433 150.717152 125.645058 146.299184 C 121.188026 144.39684 117.754433 141.092152 115.645058 137.119496 C 115.160683 136.205434 120.105995 138.924184 124.660683 134.900746 C 129.383339 130.732777 140.633339 99.846059 140.633339 99.846059 L 126.543495 93.853871 L 150.734901 36.322621 Z M 194.633339 36.346059 " transform="matrix(1,0,0,1,60.00338,-29.99059)"/>
<path style="fill-rule:nonzero;fill:rgb(100%,100%,100%);fill-opacity:1;stroke-width:12.5;stroke-linecap:butt;stroke-linejoin:miter;stroke:rgb(0%,0%,0%);stroke-opacity:0.14902;stroke-miterlimit:10;" d="M 114.285683 123.580434 C 115.293495 121.049184 120.262245 108.978871 121.992714 104.623402 C 122.410683 103.576527 122.43412 103.498402 122.953651 103.736684 C 123.754433 104.107777 126.598183 105.541371 126.598183 105.541371 L 119.262245 123.369496 C 119.262245 123.369496 118.344276 125.951527 116.87162 126.494496 C 116.160683 126.756215 115.355995 126.525746 114.71537 126.221059 C 114.031776 125.892934 113.898964 124.549184 114.285683 123.580434 Z M 114.285683 123.580434 " transform="matrix(1,0,0,1,60.00338,-29.99059)"/>
<path style=" stroke:none;fill-rule:nonzero;fill:rgb(100%,100%,100%);fill-opacity:1;" d="M 257.300781 0.0234375 L 212.410156 105.554688 C 207.992188 115.914062 196.007812 120.726562 185.648438 116.308594 C 181.191406 114.40625 177.757812 111.101562 175.648438 107.128906 C 175.164062 106.214844 180.109375 108.933594 184.664062 104.910156 C 189.386719 100.742188 200.636719 69.855469 200.636719 69.855469 L 186.546875 63.863281 L 213.40625 0 Z M 257.300781 0.0234375 "/>
<path style=" stroke:none;fill-rule:nonzero;fill:rgb(100%,100%,100%);fill-opacity:1;" d="M 173.535156 95.484375 L 182.265625 73.550781 L 186.601562 75.550781 L 179.265625 93.378906 C 179.265625 93.378906 178.347656 95.960938 176.875 96.503906 C 175.402344 97.042969 173.535156 95.484375 173.535156 95.484375 Z M 173.535156 95.484375 "/>
</g>
</svg>
