<svg
   width="600"
   height="300"
   viewBox="0 0 600 300"
   version="1.1"
   id="svg45"
   xmlns="http://www.w3.org/2000/svg"
   xmlns:svg="http://www.w3.org/2000/svg">
  <defs
     id="defs45" />
  <path
     style="fill:#e64a3a;fill-opacity:1;fill-rule:nonzero;stroke:none"
     d="M 0.00390625,300.00781 V 0.0078125 H 600.00391 V 300.00781 Z"
     id="path1" />
  <g
     id="g45">
    <path
       style="fill:none;stroke:#ff8578;stroke-width:25;stroke-linecap:round;stroke-linejoin:miter;stroke-miterlimit:10;stroke-opacity:1"
       d="M 0,285.14453 H 189.10547"
       id="path3" />
    <path
       style="fill:none;stroke:#ff8578;stroke-width:25;stroke-linecap:round;stroke-linejoin:miter;stroke-miterlimit:10;stroke-opacity:1"
       d="M 411,285.14453 H 600"
       id="path5" />
    <path
       style="fill:none;stroke:#ff8578;stroke-width:25;stroke-linecap:round;stroke-linejoin:miter;stroke-miterlimit:10;stroke-opacity:1"
       d="M 189.10547,14.875 H 0.00390625"
       id="path7" />
    <path
       style="fill:none;stroke:#ff8578;stroke-width:25;stroke-linecap:round;stroke-linejoin:miter;stroke-miterlimit:10;stroke-opacity:1"
       d="M 411,14.875 H 600.00391"
       id="path9" />
    <path
       style="fill:none;stroke:#ff8578;stroke-width:25;stroke-linecap:round;stroke-linejoin:miter;stroke-miterlimit:10;stroke-opacity:1"
       d="M 0,240.09766 H 153.36328"
       id="path11" />
    <path
       style="fill:none;stroke:#ff8578;stroke-width:25;stroke-linecap:round;stroke-linejoin:miter;stroke-miterlimit:10;stroke-opacity:1"
       d="M 446.74219,240.09766 H 600"
       id="path13" />
    <path
       style="fill:none;stroke:#ff8578;stroke-width:25;stroke-linecap:round;stroke-linejoin:miter;stroke-miterlimit:10;stroke-opacity:1"
       d="M 153.36328,59.917969 H 0.00390625"
       id="path15" />
    <path
       style="fill:none;stroke:#ff8578;stroke-width:25;stroke-linecap:round;stroke-linejoin:miter;stroke-miterlimit:10;stroke-opacity:1"
       d="M 446.74219,59.917969 H 600.00391"
       id="path17" />
    <path
       style="fill:none;stroke:#ff8578;stroke-width:25;stroke-linecap:round;stroke-linejoin:miter;stroke-miterlimit:10;stroke-opacity:1"
       d="M 117.62109,195.05469 H 0"
       id="path19" />
    <path
       style="fill:none;stroke:#ff8578;stroke-width:25;stroke-linecap:round;stroke-linejoin:miter;stroke-miterlimit:10;stroke-opacity:1"
       d="M 600,195.05469 H 482.48437"
       id="path21" />
    <path
       style="fill:none;stroke:#ff8578;stroke-width:25;stroke-linecap:round;stroke-linejoin:miter;stroke-miterlimit:10;stroke-opacity:1"
       d="M 0.00390625,104.96484 H 117.62109"
       id="path23" />
    <path
       style="fill:none;stroke:#ff8578;stroke-width:25;stroke-linecap:round;stroke-linejoin:miter;stroke-miterlimit:10;stroke-opacity:1"
       d="M 482.48437,104.96484 H 600.00391"
       id="path25" />
    <path
       style="fill:none;stroke:#ff8578;stroke-width:25;stroke-linecap:round;stroke-linejoin:miter;stroke-miterlimit:10;stroke-opacity:1"
       d="M 81.878906,150.00781 H 0.00390625"
       id="path27" />
    <path
       style="fill:none;stroke:#ff8578;stroke-width:25;stroke-linecap:round;stroke-linejoin:miter;stroke-miterlimit:10;stroke-opacity:1"
       d="M 600.00391,150.00781 H 518.22266"
       id="path29" />
  </g>
  <path
     d="m 330.25391,91.050781 c -5.77436,-0.0648 -11.79883,0.208496 -17.95704,0.957031 -39.95702,4.859381 -84.61718,24.203128 -84.61718,24.203128 l 6.59375,6.17578 c 0,0 33.48047,-11.01172 47.46484,-15.04688 1.30859,-0.3789 9.99609,-3.23437 11.05859,2.63282 0.98048,5.38671 -9.39453,6.83985 -11.23828,7.13672 -21.58984,3.49999 -50.22265,15.21484 -74.27734,27.40234 -23.63281,11.96484 -42.8203,24.44922 -47.74609,27.72265 -0.80861,0.53516 -0.8086,1.63282 0.0742,2.80469 2.39455,3.17188 8.1875,8.98438 18.19532,8.51953 24.91406,-1.16015 80.4375,-24.58203 138.58984,-46.72656 21.37109,-8.13672 29.86719,-6.27344 35.91016,-6.27344 42.30859,0 67.5,68 67.5,68 0,0 17.53125,-3.84765 20.48828,-16.76562 2.60547,-11.375 2.85937,-29.52735 -10.48828,-48.23438 -13.34766,-18.70703 -31.54688,-28.63281 -47.94922,-33.671871 -6.2461,-1.916997 -26.57937,-8.555154 -51.60156,-8.835938 z M 213.67187,122.68555 c -9.22793,0.10833 -17.0559,7.19018 -17.89453,16.57617 -0.1017,1.10156 -0.0976,2.1914 -0.004,3.2539 0.0586,0.67189 32.35547,-13.02343 31.83593,-13.61328 -2.97655,-3.40234 -7.21875,-5.71093 -12.07421,-6.14453 -0.61921,-0.0648 -1.24192,-0.0671 -1.86319,-0.0723 z m -26.90234,16.5957 c 0,0 -6.60547,3.12891 -10.48828,6.53516 -2.68359,2.35546 -5.72266,6.29296 -7.34375,8.5039 -0.72656,0.98828 -0.27734,1.08203 0.62891,0.52344 2.80078,-1.71875 17.20312,-10.5625 17.20312,-10.5625 z m 162.03516,1.77734 c -24.30469,0 -49.83594,12.21485 -79.37891,24.30078 -18.86719,7.71875 -42.625,15.08594 -58.13672,20.15235 -30.17187,9.85547 -42.53906,7.98047 -47.28515,5.90625 -2.08985,-0.91016 -1.71875,-0.66797 0.34375,1.12109 5.85937,5.08203 20.4414,14.96875 45.96093,15.92188 45.26563,1.6914 115.5586,-1.32813 138.49219,-1.1875 42.33203,0.2539 61.00391,-4.71485 61.00391,-4.71485 0,0 -15.24219,-61.5 -61,-61.5 z"
     style="fill:#ffffff;stroke:#000000;stroke-width:12.5;stroke-miterlimit:10;stroke-opacity:0.14902;paint-order:stroke fill markers"
     id="path61" />
  <path
     id="path62"
     style="fill:#ffffff;fill-opacity:1;stroke:#000000;stroke-width:12.5;stroke-dasharray:none;stroke-opacity:0.15;paint-order:stroke fill markers"
     d="m 343.91406,7.7714844 c 0,0 -7.97643,44.5887376 -2.76172,51.7382816 5.2147,7.149542 43.81446,2.814453 43.81446,2.814453 l 27.28711,0.515625 -29.89063,-54.4355471 z m 28.58399,12.5683596 25.93359,28.527344 -3.00586,2.638671 -22.22656,-25.308593 -18.08594,22.527343 -3.11719,-2.505859 z" />
  <path
     d="M 600,0 273.27344,0.0078125 c 0,0 -34.66109,31.5392015 -36.93164,33.9472655 -2.27055,2.408065 -19.67377,30.257136 -21.97266,33.53125 -2.29888,3.274115 -22.03637,49.970432 -20.27539,56.021482 1.16732,4.01109 4.22077,7.09466 8.92383,6.34766 2.7374,-0.43478 13.9902,-6.18229 16.12695,-9.06055 3.91758,-5.27708 14.06836,-32.636717 14.06836,-32.636717 0,0 10.80887,-11.776292 15.45508,-17.835937 4.64621,-6.059646 11.47265,-17.464844 11.47265,-17.464844 0,0 29.93075,-14.440531 43.87891,-22.728516 13.94816,-8.287985 39.89453,-22.3574216 39.89453,-22.3574216 0,0 16.66117,15.0226996 24.31446,14.2187496 7.65327,-0.803948 17.57812,-7.314453 17.57812,-7.314453 l 26.44727,48.164063 1.91211,6.771484 8.2539,-26.662109 3.82813,1.15625 -6.35547,21.017578 5.02929,-0.66211 0.51954,3.966797 -11.31641,1.31836 0.01,-0.0332 c -0.0972,0.02287 -2.29295,0.533393 -3.75196,-0.517579 -1.49147,-1.074338 -3.16406,-6.449218 -3.16406,-6.449218 L 384.9668,62.324219 c 0,0 -6.98947,23.08642 -5.98047,27.53125 1.009,4.444829 21.88557,19.508341 29.17383,21.292971 7.28827,1.78465 86.91288,-2.96074 95.59375,-6.52735 8.68087,-3.56662 96.25,-82.630856 96.25,-82.630856 z"
     style="fill:#ffffff;stroke:#000000;stroke-width:12.5;stroke-dasharray:none;stroke-opacity:0.15;paint-order:stroke fill markers"
     id="path71" />
  <path
     d="m 314.89221,51.351318 c -1.63508,-0.272963 -3.31163,0.114836 -4.66077,1.078063 -2.80971,2.006016 -3.46082,5.910158 -1.45416,8.719418 l 6.57983,9.213769 c -21.77145,-2.498265 -43.51183,1.07398 -64.133,9.697403 -3.18499,1.332038 -4.68675,4.99412 -3.354,8.178822 1.33217,3.183809 4.99281,4.685192 8.1769,3.353689 18.55942,-7.761238 37.70089,-10.94897 56.86436,-8.927537 l -8.76647,6.260382 c -2.80971,2.006018 -3.46082,5.910156 -1.45416,8.719418 2.00602,2.809715 5.91017,3.460825 8.71942,1.454165 L 332.7014,83.894202 c 2.80973,-2.006012 3.46083,-5.91016 1.45417,-8.719422 l -15.2047,-21.291237 c -0.96354,-1.348919 -2.42349,-2.259799 -4.05866,-2.532225 z"
     style="fill:#ffafa6;fill-opacity:1;stroke:#000000;stroke-width:12.5;stroke-linecap:round;stroke-dasharray:none;stroke-opacity:0.15;paint-order:stroke fill markers"
     id="path76" />
  <path
     d="m 106.70045,129.32255 c 1.05352,-1.27989 2.57233,-2.0888 4.2223,-2.24879 3.43622,-0.33319 6.49176,2.18276 6.82416,5.61905 l 1.09141,11.26927 c 14.77418,-16.1852 33.51262,-27.77294 54.7253,-34.81698 3.27644,-1.08787 6.81434,0.68678 7.90148,3.96346 1.087,3.27563 -0.68682,6.81231 -3.96221,7.89998 -19.09179,6.33976 -35.61812,16.51021 -48.73916,30.62272 l 10.72216,-1.03843 c 3.43623,-0.33319 6.49176,2.18275 6.82417,5.61905 0.33319,3.43623 -2.18276,6.49176 -5.61906,6.82415 l -26.0411,2.52204 c -3.43622,0.3332 -6.49175,-2.18275 -6.82416,-5.61905 l -2.52204,-26.0411 c -0.15961,-1.65001 0.34281,-3.29583 1.39675,-4.57537 z"
     style="fill:#ffafa6;fill-opacity:1;stroke:#000000;stroke-width:12.5;stroke-linecap:round;stroke-dasharray:none;stroke-opacity:0.15;paint-order:stroke fill markers"
     id="path77" />
</svg>
