<svg width="600" height="300" viewBox="0 0 600 300" fill="none" xmlns="http://www.w3.org/2000/svg">
<g clip-path="url(#clip0_56_22)">
<rect width="600" height="300" fill="#009DFF"/>
<circle cx="300" cy="150" r="40" stroke="white" stroke-opacity="0.1" stroke-width="40"/>
<circle cx="300" cy="150" r="120" stroke="white" stroke-opacity="0.1" stroke-width="40"/>
<circle cx="300" cy="150" r="200" stroke="white" stroke-opacity="0.1" stroke-width="40"/>
<circle cx="300" cy="150" r="279" stroke="white" stroke-opacity="0.1" stroke-width="40"/>
<circle cx="300" cy="150" r="359" stroke="white" stroke-opacity="0.1" stroke-width="40"/>
<g filter="url(#filter0_d_56_22)">
<rect x="190" y="75" width="220" height="150" rx="10" fill="white" shape-rendering="crispEdges"/>
<rect x="185" y="70" width="230" height="160" rx="15" stroke="black" stroke-opacity="0.15" stroke-width="10" shape-rendering="crispEdges"/>
</g>
<g filter="url(#filter1_d_56_22)">
<rect x="190" y="75" width="220" height="150" rx="10" fill="white" shape-rendering="crispEdges"/>
<rect x="185" y="70" width="230" height="160" rx="15" stroke="url(#paint0_linear_56_22)" stroke-width="10" shape-rendering="crispEdges"/>
</g>
<g filter="url(#filter2_f_56_22)">
<rect x="190" y="75" width="220" height="150" rx="10" fill="#0075BE"/>
</g>
<rect x="190" y="75" width="220" height="150" rx="10" fill="white"/>
<path d="M190 85C190 79.4772 194.477 75 200 75H400C405.523 75 410 79.4772 410 85V109H190V85Z" fill="white"/>
<g filter="url(#filter3_f_56_22)">
<rect x="139" y="-6" width="322" height="312" rx="156" fill="white" fill-opacity="0.3"/>
</g>
<mask id="path-14-inside-1_56_22" fill="white">
<rect x="194" y="109" width="212" height="112" rx="6"/>
</mask>
<rect x="194" y="109" width="212" height="112" rx="6" fill="#158ED9" fill-opacity="0.2" stroke="#158ED9" stroke-opacity="0.4" stroke-width="20" stroke-dasharray="20 10" mask="url(#path-14-inside-1_56_22)"/>
<g filter="url(#filter4_f_56_22)">
<rect x="219" y="72" width="162" height="156" rx="78" fill="white" fill-opacity="0.8"/>
</g>
<g filter="url(#filter5_d_56_22)">
<circle cx="207" cy="92" r="7" fill="#FF0066"/>
</g>
<g filter="url(#filter6_d_56_22)">
<circle cx="229" cy="92" r="7" fill="#FFA600"/>
</g>
<g filter="url(#filter7_d_56_22)">
<circle cx="251" cy="92" r="7" fill="#00C17E"/>
</g>
<g filter="url(#filter8_d_56_22)">
<path fill-rule="evenodd" clip-rule="evenodd" d="M465.272 59.7725L465.279 59.7707C466.983 59.3136 468.314 57.9826 468.771 56.2786L468.773 56.2724L471.923 44.5574L471.926 44.5469C476.074 29.1875 497.922 29.1132 502.075 44.5513C502.076 44.5523 502.076 44.5533 502.076 44.5543C502.077 44.5572 502.078 44.56 502.078 44.5629L505.233 56.2652L505.237 56.2781C505.694 57.9821 507.024 59.3136 508.727 59.7723C508.728 59.7724 508.728 59.7725 508.729 59.7726L520.443 62.9226L520.453 62.9255C535.845 67.0825 535.853 88.9261 520.451 93.0827L520.443 93.085L508.729 96.2352C507.025 96.6935 505.694 98.0243 505.236 99.728L505.235 99.7322L502.079 111.441C502.078 111.442 502.078 111.443 502.078 111.444C502.077 111.445 502.077 111.447 502.077 111.448C497.923 126.878 476.077 126.821 471.926 111.453L471.923 111.443L468.773 99.7297C468.773 99.7295 468.773 99.7294 468.773 99.7292C468.773 99.7291 468.773 99.729 468.773 99.729C468.314 98.0255 466.983 96.6951 465.279 96.238L465.273 96.2365L453.557 93.0862L453.546 93.0832C438.155 88.9258 438.147 67.0831 453.547 62.9262L453.556 62.9239L465.272 59.7725ZM492.421 108.846L495.579 97.1297C496.964 91.9828 500.985 87.9627 506.132 86.5784L517.846 83.4281C523.385 81.9332 523.385 74.0755 517.846 72.5796L506.131 69.4293C500.981 68.0438 496.959 64.0191 495.578 58.8682L492.42 47.1542C490.934 41.6153 483.076 41.6153 481.58 47.1542L478.43 58.8693C477.048 64.0222 473.023 68.0471 467.87 69.4293L456.153 72.5807C450.616 74.0755 450.616 81.9333 456.153 83.4292L467.87 86.5795C473.02 87.961 477.045 91.9823 478.43 97.1318L481.58 108.846C483.076 114.385 490.933 114.385 492.421 108.846Z" fill="black" fill-opacity="0.15"/>
<path fill-rule="evenodd" clip-rule="evenodd" d="M467.87 69.4293C473.023 68.0471 477.048 64.0222 478.43 58.8693L481.58 47.1542C483.076 41.6153 490.934 41.6153 492.42 47.1542L495.578 58.8682C496.959 64.0191 500.981 68.0438 506.131 69.4293L517.846 72.5796C523.385 74.0755 523.385 81.9332 517.846 83.4281L506.132 86.5784C500.985 87.9627 496.964 91.9828 495.579 97.1296L492.421 108.846C490.933 114.385 483.076 114.385 481.58 108.846L478.43 97.1318C477.045 91.9823 473.02 87.961 467.87 86.5795L456.153 83.4292C450.616 81.9333 450.616 74.0755 456.153 72.5807L467.87 69.4293Z" fill="white"/>
</g>
<g filter="url(#filter9_d_56_22)">
<path fill-rule="evenodd" clip-rule="evenodd" d="M454.354 148.354L447.895 150.092L447.886 150.094C434.701 153.653 434.709 172.353 447.884 175.912L447.895 175.915L454.356 177.652L456.091 184.105L456.094 184.115C459.647 197.27 478.356 197.325 481.91 184.104C481.91 184.104 481.91 184.103 481.91 184.103L483.649 177.65L490.104 175.914L490.113 175.912C503.299 172.353 503.291 153.652 490.115 150.094L490.104 150.091L483.65 148.355L481.91 141.901C481.91 141.9 481.91 141.898 481.909 141.897C478.356 128.667 459.644 128.739 456.094 141.885L456.091 141.896L454.354 148.354ZM472.252 144.493C471.36 141.169 466.646 141.169 465.748 144.493L465.242 146.373L465.24 146.383L464.251 150.058L463.858 151.522C463.847 151.563 463.835 151.605 463.823 151.646C462.975 154.639 460.634 156.978 457.641 157.825C457.601 157.836 457.562 157.847 457.522 157.858L456.049 158.254L452.388 159.239L452.379 159.241L450.492 159.749C447.169 160.645 447.169 165.36 450.492 166.258L452.379 166.765L452.387 166.767L456.051 167.752L457.522 168.148C457.562 168.159 457.602 168.17 457.642 168.181C460.633 169.028 462.973 171.365 463.824 174.355C463.835 174.397 463.847 174.438 463.858 174.479L464.252 175.944L465.24 179.617L465.241 179.624L465.748 181.508C466.646 184.831 471.36 184.831 472.253 181.508L472.761 179.622L472.763 179.613L473.75 175.953L474.147 174.478C474.158 174.438 474.169 174.398 474.181 174.358C475.03 171.368 477.368 169.03 480.358 168.181C480.398 168.169 480.438 168.158 480.479 168.147L481.95 167.752L485.612 166.767L485.62 166.764L487.507 166.257C490.831 165.36 490.831 160.645 487.507 159.748L485.62 159.24L485.613 159.239L481.949 158.253L480.478 157.858C480.438 157.847 480.398 157.836 480.358 157.824C477.366 156.975 475.028 154.635 474.18 151.643C474.169 151.603 474.158 151.562 474.147 151.521L473.749 150.047L472.763 146.387L472.76 146.378L472.252 144.493ZM462.597 147.096L462.593 147.084L462.593 147.084" fill="black" fill-opacity="0.15"/>
<path fill-rule="evenodd" clip-rule="evenodd" d="M457.522 157.858C460.614 157.028 463.029 154.613 463.858 151.522L465.748 144.493C466.646 141.169 471.36 141.169 472.252 144.493L474.147 151.521C474.975 154.612 477.388 157.026 480.478 157.858L487.507 159.748C490.831 160.645 490.831 165.36 487.507 166.257L480.479 168.147C477.391 168.978 474.978 171.39 474.147 174.478L472.253 181.508C471.36 184.831 466.646 184.831 465.748 181.508L463.858 174.479C463.027 171.39 460.612 168.977 457.522 168.148L450.492 166.258C447.169 165.36 447.169 160.645 450.492 159.749L457.522 157.858Z" fill="white"/>
</g>
<g filter="url(#filter10_d_56_22)">
<path fill-rule="evenodd" clip-rule="evenodd" d="M96.3543 143.354L89.8946 145.092L89.886 145.094C76.701 148.653 76.7089 167.353 89.8843 170.912L89.8954 170.915L96.3557 172.652L98.0911 179.105L98.0939 179.115C101.647 192.27 120.356 192.325 123.91 179.104C123.91 179.104 123.91 179.103 123.91 179.103L125.649 172.65L132.104 170.914L132.113 170.912C145.299 167.353 145.291 148.652 132.115 145.094L132.104 145.091L125.65 143.355L123.91 136.901C123.91 136.9 123.91 136.898 123.909 136.897C120.356 123.667 101.644 123.739 98.0939 136.885L98.0911 136.896L96.3543 143.354ZM114.252 139.493C113.36 136.169 108.646 136.169 107.748 139.493L107.242 141.373L107.24 141.383L106.251 145.058L105.858 146.522C105.847 146.563 105.835 146.605 105.823 146.646C104.975 149.639 102.634 151.978 99.6412 152.825C99.6015 152.836 99.5617 152.847 99.5218 152.858L98.0494 153.254L94.3881 154.239L94.3787 154.241L92.4921 154.749C89.1693 155.645 89.1693 160.36 92.4921 161.258L94.3794 161.765L94.3866 161.767L98.0508 162.752L99.5218 163.148C99.5618 163.159 99.6018 163.17 99.6416 163.181C102.633 164.028 104.973 166.365 105.824 169.355C105.835 169.397 105.847 169.438 105.858 169.479L106.252 170.944L107.24 174.617L107.241 174.624L107.748 176.508C108.646 179.831 113.36 179.831 114.253 176.508L114.761 174.622L114.763 174.613L115.75 170.953L116.147 169.478C116.158 169.438 116.169 169.398 116.181 169.358C117.03 166.368 119.368 164.03 122.358 163.181C122.398 163.169 122.438 163.158 122.479 163.147L123.95 162.752L127.612 161.767L127.62 161.764L129.507 161.257C132.831 160.36 132.831 155.645 129.507 154.748L127.62 154.24L127.613 154.239L123.949 153.253L122.478 152.858C122.438 152.847 122.398 152.836 122.358 152.824C119.366 151.975 117.028 149.635 116.18 146.643C116.169 146.603 116.158 146.562 116.147 146.521L115.749 145.047L114.763 141.387L114.76 141.378L114.252 139.493ZM104.597 142.096L104.593 142.084L104.593 142.084" fill="black" fill-opacity="0.15"/>
<path fill-rule="evenodd" clip-rule="evenodd" d="M99.5218 152.858C102.614 152.028 105.029 149.613 105.858 146.522L107.748 139.493C108.646 136.169 113.36 136.169 114.252 139.493L116.147 146.521C116.975 149.612 119.388 152.026 122.478 152.858L129.507 154.748C132.831 155.645 132.831 160.36 129.507 161.257L122.479 163.147C119.391 163.978 116.978 166.39 116.147 169.478L114.253 176.508C113.36 179.831 108.646 179.831 107.748 176.508L105.858 169.479C105.027 166.39 102.612 163.977 99.5218 163.148L92.4921 161.258C89.1693 160.36 89.1693 155.645 92.4921 154.749L99.5218 152.858Z" fill="white"/>
</g>
<circle cx="334" cy="82" r="13" fill="white" fill-opacity="0.3"/>
<circle cx="155" cy="166" r="13" fill="white" fill-opacity="0.3"/>
<circle cx="200" cy="30" r="13" fill="white" fill-opacity="0.3"/>
<circle cx="390" cy="116" r="26" fill="white" fill-opacity="0.3"/>
<g filter="url(#filter11_f_56_22)">
<circle cx="478" cy="165" r="57" fill="white" fill-opacity="0.3"/>
</g>
<g filter="url(#filter12_f_56_22)">
<circle cx="75" cy="220" r="57" fill="white" fill-opacity="0.3"/>
</g>
<g filter="url(#filter13_f_56_22)">
<circle cx="165" cy="-18" r="57" fill="white" fill-opacity="0.3"/>
</g>
<g filter="url(#filter14_f_56_22)">
<circle cx="600" cy="216" r="107" fill="white" fill-opacity="0.3"/>
</g>
</g>
<defs>
<filter id="filter0_d_56_22" x="80" y="-25" width="440" height="370" filterUnits="userSpaceOnUse" color-interpolation-filters="sRGB">
<feFlood flood-opacity="0" result="BackgroundImageFix"/>
<feColorMatrix in="SourceAlpha" type="matrix" values="0 0 0 0 0 0 0 0 0 0 0 0 0 0 0 0 0 0 127 0" result="hardAlpha"/>
<feOffset dy="10"/>
<feGaussianBlur stdDeviation="50"/>
<feComposite in2="hardAlpha" operator="out"/>
<feColorMatrix type="matrix" values="0 0 0 0 1 0 0 0 0 1 0 0 0 0 1 0 0 0 1 0"/>
<feBlend mode="normal" in2="BackgroundImageFix" result="effect1_dropShadow_56_22"/>
<feBlend mode="normal" in="SourceGraphic" in2="effect1_dropShadow_56_22" result="shape"/>
</filter>
<filter id="filter1_d_56_22" x="80" y="-25" width="440" height="370" filterUnits="userSpaceOnUse" color-interpolation-filters="sRGB">
<feFlood flood-opacity="0" result="BackgroundImageFix"/>
<feColorMatrix in="SourceAlpha" type="matrix" values="0 0 0 0 0 0 0 0 0 0 0 0 0 0 0 0 0 0 127 0" result="hardAlpha"/>
<feOffset dy="10"/>
<feGaussianBlur stdDeviation="50"/>
<feComposite in2="hardAlpha" operator="out"/>
<feColorMatrix type="matrix" values="0 0 0 0 1 0 0 0 0 1 0 0 0 0 1 0 0 0 1 0"/>
<feBlend mode="normal" in2="BackgroundImageFix" result="effect1_dropShadow_56_22"/>
<feBlend mode="normal" in="SourceGraphic" in2="effect1_dropShadow_56_22" result="shape"/>
</filter>
<filter id="filter2_f_56_22" x="180" y="65" width="240" height="170" filterUnits="userSpaceOnUse" color-interpolation-filters="sRGB">
<feFlood flood-opacity="0" result="BackgroundImageFix"/>
<feBlend mode="normal" in="SourceGraphic" in2="BackgroundImageFix" result="shape"/>
<feGaussianBlur stdDeviation="5" result="effect1_foregroundBlur_56_22"/>
</filter>
<filter id="filter3_f_56_22" x="89" y="-56" width="422" height="412" filterUnits="userSpaceOnUse" color-interpolation-filters="sRGB">
<feFlood flood-opacity="0" result="BackgroundImageFix"/>
<feBlend mode="normal" in="SourceGraphic" in2="BackgroundImageFix" result="shape"/>
<feGaussianBlur stdDeviation="25" result="effect1_foregroundBlur_56_22"/>
</filter>
<filter id="filter4_f_56_22" x="169" y="22" width="262" height="256" filterUnits="userSpaceOnUse" color-interpolation-filters="sRGB">
<feFlood flood-opacity="0" result="BackgroundImageFix"/>
<feBlend mode="normal" in="SourceGraphic" in2="BackgroundImageFix" result="shape"/>
<feGaussianBlur stdDeviation="25" result="effect1_foregroundBlur_56_22"/>
</filter>
<filter id="filter5_d_56_22" x="180" y="69" width="54" height="54" filterUnits="userSpaceOnUse" color-interpolation-filters="sRGB">
<feFlood flood-opacity="0" result="BackgroundImageFix"/>
<feColorMatrix in="SourceAlpha" type="matrix" values="0 0 0 0 0 0 0 0 0 0 0 0 0 0 0 0 0 0 127 0" result="hardAlpha"/>
<feOffset dy="4"/>
<feGaussianBlur stdDeviation="10"/>
<feComposite in2="hardAlpha" operator="out"/>
<feColorMatrix type="matrix" values="0 0 0 0 1 0 0 0 0 0 0 0 0 0 0.4 0 0 0 1 0"/>
<feBlend mode="normal" in2="BackgroundImageFix" result="effect1_dropShadow_56_22"/>
<feBlend mode="normal" in="SourceGraphic" in2="effect1_dropShadow_56_22" result="shape"/>
</filter>
<filter id="filter6_d_56_22" x="202" y="69" width="54" height="54" filterUnits="userSpaceOnUse" color-interpolation-filters="sRGB">
<feFlood flood-opacity="0" result="BackgroundImageFix"/>
<feColorMatrix in="SourceAlpha" type="matrix" values="0 0 0 0 0 0 0 0 0 0 0 0 0 0 0 0 0 0 127 0" result="hardAlpha"/>
<feOffset dy="4"/>
<feGaussianBlur stdDeviation="10"/>
<feComposite in2="hardAlpha" operator="out"/>
<feColorMatrix type="matrix" values="0 0 0 0 1 0 0 0 0 0.65098 0 0 0 0 0 0 0 0 1 0"/>
<feBlend mode="normal" in2="BackgroundImageFix" result="effect1_dropShadow_56_22"/>
<feBlend mode="normal" in="SourceGraphic" in2="effect1_dropShadow_56_22" result="shape"/>
</filter>
<filter id="filter7_d_56_22" x="224" y="69" width="54" height="54" filterUnits="userSpaceOnUse" color-interpolation-filters="sRGB">
<feFlood flood-opacity="0" result="BackgroundImageFix"/>
<feColorMatrix in="SourceAlpha" type="matrix" values="0 0 0 0 0 0 0 0 0 0 0 0 0 0 0 0 0 0 127 0" result="hardAlpha"/>
<feOffset dy="4"/>
<feGaussianBlur stdDeviation="10"/>
<feComposite in2="hardAlpha" operator="out"/>
<feColorMatrix type="matrix" values="0 0 0 0 0 0 0 0 0 0.756863 0 0 0 0 0.494118 0 0 0 1 0"/>
<feBlend mode="normal" in2="BackgroundImageFix" result="effect1_dropShadow_56_22"/>
<feBlend mode="normal" in="SourceGraphic" in2="effect1_dropShadow_56_22" result="shape"/>
</filter>
<filter id="filter8_d_56_22" x="392" y="-13" width="190" height="190" filterUnits="userSpaceOnUse" color-interpolation-filters="sRGB">
<feFlood flood-opacity="0" result="BackgroundImageFix"/>
<feColorMatrix in="SourceAlpha" type="matrix" values="0 0 0 0 0 0 0 0 0 0 0 0 0 0 0 0 0 0 127 0" result="hardAlpha"/>
<feOffset dy="4"/>
<feGaussianBlur stdDeviation="25"/>
<feComposite in2="hardAlpha" operator="out"/>
<feColorMatrix type="matrix" values="0 0 0 0 1 0 0 0 0 1 0 0 0 0 1 0 0 0 1 0"/>
<feBlend mode="normal" in2="BackgroundImageFix" result="effect1_dropShadow_56_22"/>
<feBlend mode="normal" in="SourceGraphic" in2="effect1_dropShadow_56_22" result="shape"/>
</filter>
<filter id="filter9_d_56_22" x="388" y="86" width="162" height="162" filterUnits="userSpaceOnUse" color-interpolation-filters="sRGB">
<feFlood flood-opacity="0" result="BackgroundImageFix"/>
<feColorMatrix in="SourceAlpha" type="matrix" values="0 0 0 0 0 0 0 0 0 0 0 0 0 0 0 0 0 0 127 0" result="hardAlpha"/>
<feOffset dy="4"/>
<feGaussianBlur stdDeviation="25"/>
<feComposite in2="hardAlpha" operator="out"/>
<feColorMatrix type="matrix" values="0 0 0 0 1 0 0 0 0 1 0 0 0 0 1 0 0 0 1 0"/>
<feBlend mode="normal" in2="BackgroundImageFix" result="effect1_dropShadow_56_22"/>
<feBlend mode="normal" in="SourceGraphic" in2="effect1_dropShadow_56_22" result="shape"/>
</filter>
<filter id="filter10_d_56_22" x="30" y="81" width="162" height="162" filterUnits="userSpaceOnUse" color-interpolation-filters="sRGB">
<feFlood flood-opacity="0" result="BackgroundImageFix"/>
<feColorMatrix in="SourceAlpha" type="matrix" values="0 0 0 0 0 0 0 0 0 0 0 0 0 0 0 0 0 0 127 0" result="hardAlpha"/>
<feOffset dy="4"/>
<feGaussianBlur stdDeviation="25"/>
<feComposite in2="hardAlpha" operator="out"/>
<feColorMatrix type="matrix" values="0 0 0 0 1 0 0 0 0 1 0 0 0 0 1 0 0 0 1 0"/>
<feBlend mode="normal" in2="BackgroundImageFix" result="effect1_dropShadow_56_22"/>
<feBlend mode="normal" in="SourceGraphic" in2="effect1_dropShadow_56_22" result="shape"/>
</filter>
<filter id="filter11_f_56_22" x="411" y="98" width="134" height="134" filterUnits="userSpaceOnUse" color-interpolation-filters="sRGB">
<feFlood flood-opacity="0" result="BackgroundImageFix"/>
<feBlend mode="normal" in="SourceGraphic" in2="BackgroundImageFix" result="shape"/>
<feGaussianBlur stdDeviation="5" result="effect1_foregroundBlur_56_22"/>
</filter>
<filter id="filter12_f_56_22" x="8" y="153" width="134" height="134" filterUnits="userSpaceOnUse" color-interpolation-filters="sRGB">
<feFlood flood-opacity="0" result="BackgroundImageFix"/>
<feBlend mode="normal" in="SourceGraphic" in2="BackgroundImageFix" result="shape"/>
<feGaussianBlur stdDeviation="5" result="effect1_foregroundBlur_56_22"/>
</filter>
<filter id="filter13_f_56_22" x="98" y="-85" width="134" height="134" filterUnits="userSpaceOnUse" color-interpolation-filters="sRGB">
<feFlood flood-opacity="0" result="BackgroundImageFix"/>
<feBlend mode="normal" in="SourceGraphic" in2="BackgroundImageFix" result="shape"/>
<feGaussianBlur stdDeviation="5" result="effect1_foregroundBlur_56_22"/>
</filter>
<filter id="filter14_f_56_22" x="483" y="99" width="234" height="234" filterUnits="userSpaceOnUse" color-interpolation-filters="sRGB">
<feFlood flood-opacity="0" result="BackgroundImageFix"/>
<feBlend mode="normal" in="SourceGraphic" in2="BackgroundImageFix" result="shape"/>
<feGaussianBlur stdDeviation="5" result="effect1_foregroundBlur_56_22"/>
</filter>
<linearGradient id="paint0_linear_56_22" x1="362.5" y1="63" x2="327" y2="235" gradientUnits="userSpaceOnUse">
<stop offset="0.0530927" stop-color="white" stop-opacity="0.8"/>
<stop offset="0.564417" stop-color="white" stop-opacity="0"/>
</linearGradient>
<clipPath id="clip0_56_22">
<rect width="600" height="300" fill="white"/>
</clipPath>
</defs>
</svg>
