<svg xmlns="http://www.w3.org/2000/svg" width="600" height="300"><path d="M0 0h600v300H0z" style="fill:#59c093;fill-opacity:1;stroke:none;stroke-width:3.9988;stroke-linejoin:round"/><g aria-label="02559754562837968177627 62674019621744599185516 43841062167335736355885 90303236903020142767698 03596638774444477679688 73934698514232926550243" style="font-size:40px;line-height:1.25;fill:#74caa4"><path d="M20.332 12.998q-3.047 0-4.59 3.008-1.523 2.988-1.523 9.004 0 5.996 1.523 9.004 1.543 2.988 4.59 2.988 3.066 0 4.59-2.988 1.543-3.008 1.543-9.004 0-6.016-1.543-9.004-1.524-3.008-4.59-3.008zm0-3.125q4.902 0 7.48 3.887 2.598 3.867 2.598 11.25 0 7.363-2.597 11.25-2.579 3.867-7.481 3.867-4.902 0-7.5-3.867-2.578-3.887-2.578-11.25 0-7.383 2.578-11.25 2.598-3.887 7.5-3.887zM40.742 36.24h13.77v3.32H35.996v-3.32q2.246-2.324 6.113-6.23 3.887-3.926 4.883-5.059 1.895-2.129 2.637-3.594.762-1.484.762-2.91 0-2.324-1.641-3.789-1.621-1.465-4.238-1.465-1.856 0-3.926.645-2.05.644-4.395 1.953v-3.984q2.383-.957 4.454-1.446 2.07-.488 3.789-.488 4.53 0 7.226 2.266 2.695 2.265 2.695 6.054 0 1.797-.683 3.418-.664 1.602-2.442 3.79-.488.566-3.105 3.28-2.617 2.696-7.383 7.56zM62.832 10.4H78.32v3.32H66.445v7.15q.86-.294 1.72-.43.858-.157 1.718-.157 4.883 0 7.734 2.676 2.852 2.676 2.852 7.246 0 4.707-2.93 7.324-2.93 2.598-8.262 2.598-1.836 0-3.75-.313-1.894-.312-3.925-.937v-3.965q1.757.957 3.632 1.426 1.875.469 3.965.469 3.38 0 5.352-1.778 1.972-1.777 1.972-4.824 0-3.047-1.972-4.824-1.973-1.777-5.352-1.777-1.582 0-3.164.351-1.562.352-3.203 1.094zM88.281 10.4h15.489v3.32H91.895v7.15q.859-.294 1.718-.43.86-.157 1.719-.157 4.883 0 7.734 2.676 2.852 2.676 2.852 7.246 0 4.707-2.93 7.324-2.93 2.598-8.261 2.598-1.836 0-3.75-.313-1.895-.312-3.926-.937v-3.965q1.758.957 3.633 1.426t3.964.469q3.38 0 5.352-1.778 1.973-1.777 1.973-4.824 0-3.047-1.973-4.824-1.973-1.777-5.352-1.777-1.582 0-3.164.351-1.562.352-3.203 1.094zM113.809 38.955v-3.594q1.484.703 3.007 1.075 1.524.37 2.989.37 3.906 0 5.957-2.617 2.07-2.636 2.363-7.988-1.133 1.68-2.871 2.578-1.738.899-3.848.899-4.375 0-6.933-2.637-2.54-2.656-2.54-7.246 0-4.492 2.657-7.207 2.656-2.715 7.07-2.715 5.059 0 7.715 3.887 2.676 3.867 2.676 11.25 0 6.894-3.281 11.015-3.262 4.102-8.79 4.102-1.484 0-3.007-.293-1.524-.293-3.164-.879zm7.851-12.363q2.656 0 4.2-1.817 1.562-1.816 1.562-4.98 0-3.145-1.563-4.961-1.543-1.836-4.199-1.836-2.656 0-4.219 1.836-1.543 1.816-1.543 4.96 0 3.165 1.543 4.981 1.563 1.817 4.22 1.817zM138.145 10.4h18.75v1.68l-10.586 27.48h-4.121l9.96-25.84h-14.003zM164.629 10.4h15.488v3.32h-11.875v7.15q.86-.294 1.719-.43.86-.157 1.719-.157 4.882 0 7.734 2.676 2.852 2.676 2.852 7.246 0 4.707-2.93 7.324-2.93 2.598-8.262 2.598-1.836 0-3.75-.313-1.894-.312-3.926-.937v-3.965q1.758.957 3.633 1.426t3.965.469q3.379 0 5.352-1.778 1.972-1.777 1.972-4.824 0-3.047-1.972-4.824-1.973-1.777-5.352-1.777-1.582 0-3.164.351-1.562.352-3.203 1.094zM200.879 13.838l-9.961 15.566h9.96zm-1.035-3.438h4.96v19.004h4.16v3.282h-4.16v6.875h-3.925v-6.875h-13.164v-3.809zM215.527 10.4h15.489v3.32H219.14v7.15q.859-.294 1.718-.43.86-.157 1.72-.157 4.882 0 7.734 2.676 2.851 2.676 2.851 7.246 0 4.707-2.93 7.324-2.93 2.598-8.261 2.598-1.836 0-3.75-.313-1.895-.312-3.926-.937v-3.965q1.758.957 3.633 1.426t3.965.469q3.378 0 5.351-1.778 1.973-1.777 1.973-4.824 0-3.047-1.973-4.824-1.973-1.777-5.351-1.777-1.582 0-3.165.351-1.562.352-3.203 1.094zM249.863 23.408q-2.656 0-4.218 1.817-1.543 1.816-1.543 4.98 0 3.145 1.543 4.98 1.562 1.817 4.218 1.817 2.657 0 4.2-1.816 1.562-1.836 1.562-4.98 0-3.165-1.563-4.981-1.542-1.817-4.199-1.817zm7.832-12.363v3.594q-1.484-.703-3.007-1.075-1.504-.37-2.989-.37-3.906 0-5.976 2.636-2.051 2.637-2.344 7.969 1.152-1.7 2.89-2.598 1.739-.918 3.829-.918 4.394 0 6.933 2.676 2.559 2.656 2.559 7.246 0 4.492-2.656 7.207-2.657 2.715-7.07 2.715-5.06 0-7.735-3.867-2.676-3.887-2.676-11.25 0-6.914 3.281-11.016 3.282-4.121 8.809-4.121 1.484 0 2.988.293 1.524.293 3.164.879zM269.785 36.24h13.77v3.32h-18.516v-3.32q2.246-2.324 6.113-6.23 3.887-3.926 4.883-5.059 1.895-2.129 2.637-3.594.762-1.484.762-2.91 0-2.324-1.641-3.789-1.621-1.465-4.238-1.465-1.856 0-3.926.645-2.05.644-4.395 1.953v-3.984q2.383-.957 4.454-1.446 2.07-.488 3.789-.488 4.53 0 7.226 2.266 2.695 2.265 2.695 6.054 0 1.797-.683 3.418-.664 1.602-2.442 3.79-.488.566-3.105 3.28-2.617 2.696-7.383 7.56zM300.273 25.713q-2.812 0-4.433 1.504-1.602 1.504-1.602 4.14 0 2.637 1.602 4.141 1.62 1.504 4.433 1.504 2.813 0 4.434-1.504 1.621-1.523 1.621-4.14 0-2.637-1.621-4.141-1.602-1.504-4.434-1.504zm-3.945-1.68q-2.539-.625-3.965-2.363-1.406-1.738-1.406-4.238 0-3.496 2.48-5.528 2.5-2.031 6.836-2.031 4.356 0 6.836 2.031 2.48 2.032 2.48 5.528 0 2.5-1.425 4.238-1.406 1.738-3.926 2.363 2.852.664 4.434 2.598 1.601 1.933 1.601 4.726 0 4.239-2.597 6.504-2.578 2.266-7.403 2.266-4.824 0-7.421-2.266-2.579-2.265-2.579-6.504 0-2.793 1.602-4.726 1.602-1.934 4.453-2.598zm-1.445-6.23q0 2.265 1.406 3.535 1.426 1.27 3.984 1.27 2.54 0 3.965-1.27 1.446-1.27 1.446-3.535 0-2.266-1.446-3.535-1.426-1.27-3.965-1.27-2.558 0-3.984 1.27-1.406 1.27-1.406 3.535zM329.238 23.838q2.832.605 4.414 2.52 1.602 1.913 1.602 4.726 0 4.316-2.969 6.68-2.969 2.363-8.437 2.363-1.836 0-3.79-.371-1.933-.352-4.003-1.074v-3.809q1.64.957 3.593 1.445 1.954.489 4.082.489 3.711 0 5.645-1.465 1.953-1.465 1.953-4.258 0-2.578-1.816-4.023-1.797-1.465-5.02-1.465h-3.398v-3.242h3.554q2.91 0 4.454-1.153 1.543-1.172 1.543-3.36 0-2.245-1.602-3.437-1.582-1.21-4.55-1.21-1.622 0-3.477.35-1.856.352-4.082 1.095v-3.516q2.246-.625 4.199-.937 1.972-.313 3.71-.313 4.493 0 7.11 2.05 2.617 2.032 2.617 5.509 0 2.422-1.386 4.101-1.387 1.66-3.946 2.305zM341.738 10.4h18.75v1.68l-10.586 27.48h-4.12l9.96-25.84h-14.004zM368.3 38.955v-3.594q1.485.703 3.009 1.075 1.523.37 2.988.37 3.906 0 5.957-2.617 2.07-2.636 2.363-7.988-1.133 1.68-2.87 2.578-1.74.899-3.849.899-4.375 0-6.933-2.637-2.54-2.656-2.54-7.246 0-4.492 2.657-7.207 2.656-2.715 7.07-2.715 5.059 0 7.715 3.887 2.676 3.867 2.676 11.25 0 6.894-3.281 11.015-3.262 4.102-8.79 4.102-1.484 0-3.007-.293-1.524-.293-3.164-.879zm7.852-12.363q2.657 0 4.2-1.817 1.562-1.816 1.562-4.98 0-3.145-1.562-4.961-1.543-1.836-4.2-1.836-2.656 0-4.218 1.836-1.543 1.816-1.543 4.96 0 3.165 1.543 4.981 1.562 1.817 4.218 1.817zM402.559 23.408q-2.657 0-4.22 1.817-1.542 1.816-1.542 4.98 0 3.145 1.543 4.98 1.562 1.817 4.219 1.817 2.656 0 4.199-1.816 1.562-1.836 1.562-4.98 0-3.165-1.562-4.981-1.543-1.817-4.2-1.817zm7.832-12.363v3.594q-1.485-.703-3.008-1.075-1.504-.37-2.988-.37-3.907 0-5.977 2.636-2.05 2.637-2.344 7.969 1.153-1.7 2.89-2.598 1.74-.918 3.829-.918 4.394 0 6.934 2.676 2.558 2.656 2.558 7.246 0 4.492-2.656 7.207t-7.07 2.715q-5.059 0-7.735-3.867-2.676-3.887-2.676-11.25 0-6.914 3.282-11.016 3.28-4.121 8.808-4.121 1.485 0 2.989.293 1.523.293 3.164.879zM427.52 25.713q-2.813 0-4.434 1.504-1.602 1.504-1.602 4.14 0 2.637 1.602 4.141 1.621 1.504 4.434 1.504 2.812 0 4.433-1.504 1.621-1.523 1.621-4.14 0-2.637-1.62-4.141-1.602-1.504-4.434-1.504zm-3.946-1.68q-2.539-.625-3.965-2.363-1.406-1.738-1.406-4.238 0-3.496 2.48-5.528 2.5-2.031 6.837-2.031 4.355 0 6.835 2.031 2.48 2.032 2.48 5.528 0 2.5-1.425 4.238-1.406 1.738-3.926 2.363 2.852.664 4.434 2.598 1.602 1.933 1.602 4.726 0 4.239-2.598 6.504-2.578 2.266-7.402 2.266-4.825 0-7.422-2.266-2.578-2.265-2.578-6.504 0-2.793 1.601-4.726 1.602-1.934 4.453-2.598zm-1.445-6.23q0 2.265 1.406 3.535 1.426 1.27 3.985 1.27 2.539 0 3.964-1.27 1.446-1.27 1.446-3.535 0-2.266-1.446-3.535-1.425-1.27-3.964-1.27-2.56 0-3.985 1.27-1.406 1.27-1.406 3.535zM445.215 36.24h6.445V13.994l-7.012 1.406v-3.593l6.973-1.407h3.945v25.84h6.446v3.32h-16.797zM468.984 10.4h18.75v1.68l-10.586 27.48h-4.12l9.96-25.84h-14.004zM494.434 10.4h18.75v1.68l-10.586 27.48h-4.121l9.96-25.84h-14.003zM529.805 23.408q-2.657 0-4.22 1.817-1.542 1.816-1.542 4.98 0 3.145 1.543 4.98 1.562 1.817 4.219 1.817 2.656 0 4.199-1.816 1.562-1.836 1.562-4.98 0-3.165-1.562-4.981-1.543-1.817-4.2-1.817zm7.832-12.363v3.594q-1.485-.703-3.008-1.075-1.504-.37-2.988-.37-3.907 0-5.977 2.636-2.05 2.637-2.344 7.969 1.153-1.7 2.89-2.598 1.74-.918 3.83-.918 4.394 0 6.933 2.676 2.558 2.656 2.558 7.246 0 4.492-2.656 7.207t-7.07 2.715q-5.059 0-7.735-3.867-2.675-3.887-2.675-11.25 0-6.914 3.28-11.016 3.282-4.121 8.81-4.121 1.484 0 2.988.293 1.523.293 3.164.879zM549.727 36.24h13.77v3.32H544.98v-3.32q2.247-2.324 6.114-6.23 3.886-3.926 4.883-5.059 1.894-2.129 2.636-3.594.762-1.484.762-2.91 0-2.324-1.64-3.789-1.622-1.465-4.239-1.465-1.855 0-3.926.645-2.05.644-4.394 1.953v-3.984q2.383-.957 4.453-1.446 2.07-.488 3.789-.488 4.531 0 7.227 2.266 2.695 2.265 2.695 6.054 0 1.797-.684 3.418-.664 1.602-2.441 3.79-.488.566-3.106 3.28-2.617 2.696-7.382 7.56zM570.781 10.4h18.75v1.68l-10.586 27.48h-4.12l9.96-25.84h-14.004zM20.82 73.408q-2.656 0-4.218 1.817-1.543 1.816-1.543 4.98 0 3.145 1.543 4.98 1.562 1.817 4.218 1.817 2.657 0 4.2-1.816 1.562-1.836 1.562-4.98 0-3.165-1.562-4.981-1.543-1.817-4.2-1.817zm7.832-12.363v3.594q-1.484-.703-3.007-1.075-1.504-.37-2.989-.37-3.906 0-5.976 2.636-2.051 2.637-2.344 7.969 1.152-1.7 2.89-2.598 1.739-.918 3.829-.918 4.394 0 6.933 2.676 2.559 2.656 2.559 7.246 0 4.492-2.656 7.207-2.657 2.715-7.07 2.715-5.06 0-7.735-3.867-2.676-3.887-2.676-11.25 0-6.914 3.281-11.016 3.282-4.121 8.809-4.121 1.484 0 2.988.293 1.524.293 3.164.879zM40.742 86.24h13.77v3.32H35.996v-3.32q2.246-2.324 6.113-6.23 3.887-3.926 4.883-5.059 1.895-2.129 2.637-3.594.762-1.484.762-2.91 0-2.324-1.641-3.789-1.621-1.465-4.238-1.465-1.856 0-3.926.645-2.05.644-4.395 1.953v-3.984q2.383-.957 4.454-1.446 2.07-.488 3.789-.488 4.53 0 7.226 2.266 2.695 2.265 2.695 6.054 0 1.797-.683 3.418-.664 1.602-2.442 3.79-.488.566-3.105 3.28-2.617 2.696-7.383 7.56zM71.719 73.408q-2.656 0-4.219 1.817-1.543 1.816-1.543 4.98 0 3.145 1.543 4.98 1.563 1.817 4.219 1.817 2.656 0 4.199-1.816 1.562-1.836 1.562-4.98 0-3.165-1.562-4.981-1.543-1.817-4.2-1.817Zm7.832-12.363v3.594q-1.485-.703-3.008-1.075-1.504-.37-2.988-.37-3.907 0-5.977 2.636-2.05 2.637-2.344 7.969 1.153-1.7 2.891-2.598 1.738-.918 3.828-.918 4.395 0 6.934 2.676 2.558 2.656 2.558 7.246 0 4.492-2.656 7.207t-7.07 2.715q-5.059 0-7.735-3.867-2.675-3.887-2.675-11.25 0-6.914 3.28-11.016 3.282-4.121 8.81-4.121 1.484 0 2.988.293 1.523.293 3.164.879zM87.246 60.4h18.75v1.68L95.41 89.56h-4.12l9.96-25.84H87.246ZM124.531 63.838l-9.96 15.566h9.96zm-1.035-3.438h4.961v19.004h4.16v3.282h-4.16v6.875h-3.926v-6.875h-13.164v-3.809zM147.578 62.998q-3.047 0-4.59 3.008-1.523 2.988-1.523 9.004 0 5.996 1.523 9.004 1.543 2.988 4.59 2.988 3.067 0 4.59-2.988 1.543-3.008 1.543-9.004 0-6.016-1.543-9.004-1.523-3.008-4.59-3.008zm0-3.125q4.902 0 7.48 3.887 2.598 3.867 2.598 11.25 0 7.363-2.597 11.25-2.579 3.867-7.48 3.867-4.903 0-7.5-3.867-2.579-3.887-2.579-11.25 0-7.383 2.578-11.25 2.598-3.887 7.5-3.887zM165.273 86.24h6.446V63.994l-7.012 1.406v-3.593l6.973-1.407h3.945v25.84h6.445v3.32h-16.797zM190.156 88.955v-3.594q1.485.703 3.008 1.075 1.524.37 2.988.37 3.907 0 5.957-2.617 2.07-2.636 2.364-7.988-1.133 1.68-2.871 2.578-1.739.899-3.848.899-4.375 0-6.934-2.637-2.539-2.656-2.539-7.246 0-4.492 2.656-7.207 2.657-2.715 7.07-2.715 5.06 0 7.716 3.887 2.675 3.867 2.675 11.25 0 6.894-3.28 11.015-3.263 4.102-8.79 4.102-1.484 0-3.008-.293-1.523-.293-3.164-.879zm7.852-12.363q2.656 0 4.199-1.817 1.563-1.816 1.563-4.98 0-3.145-1.563-4.961-1.543-1.836-4.2-1.836-2.655 0-4.218 1.836-1.543 1.816-1.543 4.96 0 3.165 1.543 4.981 1.563 1.817 4.219 1.817zM224.414 73.408q-2.656 0-4.219 1.817-1.543 1.816-1.543 4.98 0 3.145 1.543 4.98 1.563 1.817 4.22 1.817 2.655 0 4.198-1.816 1.563-1.836 1.563-4.98 0-3.165-1.563-4.981-1.543-1.817-4.199-1.817zm7.832-12.363v3.594q-1.484-.703-3.008-1.075-1.504-.37-2.988-.37-3.906 0-5.977 2.636-2.05 2.637-2.343 7.969 1.152-1.7 2.89-2.598 1.739-.918 3.828-.918 4.395 0 6.934 2.676 2.559 2.656 2.559 7.246 0 4.492-2.657 7.207-2.656 2.715-7.07 2.715-5.059 0-7.734-3.867-2.676-3.887-2.676-11.25 0-6.914 3.281-11.016 3.281-4.121 8.809-4.121 1.484 0 2.988.293 1.523.293 3.164.879zM244.336 86.24h13.77v3.32H239.59v-3.32q2.246-2.324 6.113-6.23 3.887-3.926 4.883-5.059 1.894-2.129 2.637-3.594.761-1.484.761-2.91 0-2.324-1.64-3.789-1.621-1.465-4.239-1.465-1.855 0-3.925.645-2.051.644-4.395 1.953v-3.984q2.383-.957 4.453-1.446 2.07-.488 3.79-.488 4.53 0 7.226 2.266 2.695 2.265 2.695 6.054 0 1.797-.683 3.418-.664 1.602-2.442 3.79-.488.566-3.105 3.28-2.617 2.696-7.383 7.56zM267.07 86.24h6.446V63.994l-7.012 1.406v-3.593l6.973-1.407h3.945v25.84h6.445v3.32H267.07zM290.84 60.4h18.75v1.68l-10.586 27.48h-4.121l9.96-25.84H290.84zM328.125 63.838l-9.96 15.566h9.96zM327.09 60.4h4.96v19.004h4.16v3.282h-4.16v6.875h-3.925v-6.875h-13.164v-3.809zM353.574 63.838l-9.96 15.566h9.96zM352.54 60.4h4.961v19.004h4.16v3.282h-4.16v6.875h-3.926v-6.875H340.41v-3.809zM368.223 60.4h15.488v3.32h-11.875v7.15q.86-.294 1.719-.43.86-.157 1.718-.157 4.883 0 7.735 2.676 2.851 2.676 2.851 7.246 0 4.707-2.93 7.324-2.929 2.598-8.261 2.598-1.836 0-3.75-.313-1.895-.312-3.926-.937v-3.965q1.758.957 3.633 1.426t3.965.469q3.379 0 5.351-1.778 1.973-1.777 1.973-4.824 0-3.047-1.973-4.824-1.972-1.777-5.351-1.777-1.582 0-3.164.351-1.563.352-3.203 1.094zM393.75 88.955v-3.594q1.484.703 3.008 1.075 1.523.37 2.988.37 3.906 0 5.957-2.617 2.07-2.636 2.363-7.988-1.132 1.68-2.87 2.578-1.739.899-3.848.899-4.375 0-6.934-2.637-2.539-2.656-2.539-7.246 0-4.492 2.656-7.207t7.07-2.715q5.06 0 7.715 3.887 2.676 3.867 2.676 11.25 0 6.894-3.281 11.015-3.262 4.102-8.79 4.102-1.484 0-3.007-.293-1.523-.293-3.164-.879zm7.852-12.363q2.656 0 4.199-1.817 1.562-1.816 1.562-4.98 0-3.145-1.562-4.961-1.543-1.836-4.2-1.836-2.656 0-4.218 1.836-1.543 1.816-1.543 4.96 0 3.165 1.543 4.981 1.562 1.817 4.219 1.817zM419.2 88.955v-3.594q1.484.703 3.007 1.075 1.523.37 2.988.37 3.907 0 5.957-2.617 2.07-2.636 2.364-7.988-1.133 1.68-2.871 2.578-1.739.899-3.848.899-4.375 0-6.934-2.637-2.539-2.656-2.539-7.246 0-4.492 2.656-7.207 2.657-2.715 7.07-2.715 5.06 0 7.716 3.887 2.675 3.867 2.675 11.25 0 6.894-3.28 11.015-3.263 4.102-8.79 4.102-1.484 0-3.008-.293-1.523-.293-3.164-.879zm7.85-12.363q2.657 0 4.2-1.817 1.563-1.816 1.563-4.98 0-3.145-1.563-4.961-1.543-1.836-4.2-1.836-2.655 0-4.218 1.836-1.543 1.816-1.543 4.96 0 3.165 1.543 4.981 1.563 1.817 4.219 1.817zM445.215 86.24h6.445V63.994l-7.012 1.406v-3.593l6.973-1.407h3.945v25.84h6.446v3.32h-16.797zM478.418 75.713q-2.813 0-4.434 1.504-1.601 1.504-1.601 4.14 0 2.637 1.601 4.141 1.621 1.504 4.434 1.504 2.812 0 4.434-1.504 1.62-1.523 1.62-4.14 0-2.637-1.62-4.141-1.602-1.504-4.434-1.504zm-3.945-1.68q-2.54-.625-3.965-2.363-1.406-1.738-1.406-4.238 0-3.496 2.48-5.528 2.5-2.031 6.836-2.031 4.355 0 6.836 2.031 2.48 2.032 2.48 5.528 0 2.5-1.425 4.238-1.407 1.738-3.926 2.363 2.851.664 4.433 2.598 1.602 1.933 1.602 4.726 0 4.239-2.598 6.504-2.578 2.266-7.402 2.266t-7.422-2.266q-2.578-2.265-2.578-6.504 0-2.793 1.602-4.726 1.601-1.934 4.453-2.598zm-1.446-6.23q0 2.265 1.407 3.535 1.425 1.27 3.984 1.27 2.539 0 3.965-1.27 1.445-1.27 1.445-3.535 0-2.266-1.445-3.535-1.426-1.27-3.965-1.27-2.559 0-3.984 1.27-1.407 1.27-1.407 3.535zM495.469 60.4h15.488v3.32h-11.875v7.15q.86-.294 1.719-.43.86-.157 1.719-.157 4.882 0 7.734 2.676 2.851 2.676 2.851 7.246 0 4.707-2.93 7.324-2.929 2.598-8.26 2.598-1.837 0-3.75-.313-1.895-.312-3.927-.937v-3.965q1.758.957 3.633 1.426t3.965.469q3.379 0 5.351-1.778 1.973-1.777 1.973-4.824 0-3.047-1.973-4.824-1.972-1.777-5.351-1.777-1.582 0-3.164.351-1.563.352-3.203 1.094zM520.918 60.4h15.488v3.32h-11.875v7.15q.86-.294 1.719-.43.86-.157 1.719-.157 4.883 0 7.734 2.676 2.852 2.676 2.852 7.246 0 4.707-2.93 7.324-2.93 2.598-8.262 2.598-1.836 0-3.75-.313-1.894-.312-3.926-.937v-3.965q1.758.957 3.633 1.426t3.965.469q3.38 0 5.352-1.778 1.972-1.777 1.972-4.824 0-3.047-1.972-4.824-1.973-1.777-5.352-1.777-1.582 0-3.164.351-1.562.352-3.203 1.094zM547.012 86.24h6.445V63.994l-7.012 1.406v-3.593l6.973-1.407h3.945v25.84h6.446v3.32h-16.797zM580.703 73.408q-2.656 0-4.219 1.817-1.543 1.816-1.543 4.98 0 3.145 1.543 4.98 1.563 1.817 4.22 1.817 2.655 0 4.198-1.816 1.563-1.836 1.563-4.98 0-3.165-1.563-4.981-1.543-1.817-4.199-1.817zm7.832-12.363v3.594q-1.484-.703-3.008-1.075-1.504-.37-2.988-.37-3.906 0-5.977 2.636-2.05 2.637-2.343 7.969 1.152-1.7 2.89-2.598 1.739-.918 3.828-.918 4.395 0 6.934 2.676 2.559 2.656 2.559 7.246 0 4.492-2.657 7.207-2.656 2.715-7.07 2.715-5.058 0-7.734-3.867-2.676-3.887-2.676-11.25 0-6.914 3.281-11.016 3.281-4.121 8.809-4.121 1.484 0 2.988.293 1.524.293 3.164.879zM22.734 113.838l-9.96 15.566h9.96zM21.7 110.4h4.961v19.004h4.16v3.282h-4.16v6.875h-3.926v-6.875H9.57v-3.81zM49.297 123.838q2.832.605 4.414 2.52 1.602 1.913 1.602 4.726 0 4.316-2.97 6.68-2.968 2.363-8.437 2.363-1.836 0-3.789-.371-1.933-.352-4.004-1.074v-3.809q1.64.957 3.594 1.445 1.953.489 4.082.489 3.711 0 5.645-1.465 1.953-1.465 1.953-4.258 0-2.578-1.817-4.023-1.797-1.465-5.02-1.465h-3.398v-3.242h3.555q2.91 0 4.453-1.153 1.543-1.172 1.543-3.36 0-2.245-1.601-3.437-1.582-1.21-4.551-1.21-1.621 0-3.477.35-1.855.352-4.082 1.095v-3.516q2.246-.625 4.2-.937 1.972-.313 3.71-.313 4.493 0 7.11 2.05 2.617 2.032 2.617 5.509 0 2.422-1.387 4.101-1.387 1.66-3.945 2.305zM71.23 125.713q-2.812 0-4.433 1.504-1.602 1.504-1.602 4.14 0 2.637 1.602 4.141 1.621 1.504 4.433 1.504 2.813 0 4.434-1.504 1.621-1.523 1.621-4.14 0-2.637-1.62-4.141-1.603-1.504-4.435-1.504zm-3.945-1.68q-2.539-.625-3.965-2.363-1.406-1.738-1.406-4.238 0-3.496 2.48-5.528 2.5-2.03 6.836-2.03 4.356 0 6.836 2.03 2.48 2.032 2.48 5.528 0 2.5-1.425 4.238-1.406 1.738-3.926 2.363 2.852.664 4.434 2.598 1.601 1.933 1.601 4.726 0 4.239-2.597 6.504-2.578 2.266-7.403 2.266-4.824 0-7.421-2.266-2.579-2.265-2.579-6.504 0-2.793 1.602-4.726 1.602-1.934 4.453-2.598zm-1.445-6.23q0 2.265 1.406 3.535 1.426 1.27 3.984 1.27 2.54 0 3.965-1.27 1.446-1.27 1.446-3.535 0-2.266-1.446-3.535-1.425-1.27-3.965-1.27-2.558 0-3.984 1.27-1.406 1.27-1.406 3.535zM99.082 113.838l-9.96 15.566h9.96zm-1.035-3.438h4.96v19.004h4.161v3.282h-4.16v6.875h-3.926v-6.875H85.918v-3.81zM114.375 136.24h6.445v-22.246l-7.011 1.406v-3.593l6.972-1.407h3.946v25.84h6.445v3.32h-16.797ZM147.578 112.998q-3.047 0-4.59 3.008-1.523 2.988-1.523 9.004 0 5.996 1.523 9.004 1.543 2.988 4.59 2.988 3.067 0 4.59-2.988 1.543-3.008 1.543-9.004 0-6.016-1.543-9.004-1.523-3.008-4.59-3.008zm0-3.125q4.902 0 7.48 3.887 2.598 3.867 2.598 11.25 0 7.363-2.597 11.25-2.579 3.867-7.48 3.867-4.903 0-7.5-3.867-2.579-3.887-2.579-11.25 0-7.383 2.578-11.25 2.598-3.887 7.5-3.887zM173.516 123.408q-2.657 0-4.22 1.817-1.542 1.816-1.542 4.98 0 3.145 1.543 4.98 1.562 1.817 4.219 1.817 2.656 0 4.199-1.816 1.562-1.836 1.562-4.98 0-3.165-1.562-4.981-1.543-1.817-4.2-1.817zm7.832-12.363v3.594q-1.485-.703-3.008-1.075-1.504-.37-2.988-.37-3.907 0-5.977 2.636-2.05 2.637-2.344 7.969 1.153-1.7 2.89-2.598 1.74-.918 3.829-.918 4.395 0 6.934 2.676 2.558 2.656 2.558 7.246 0 4.492-2.656 7.207t-7.07 2.715q-5.059 0-7.735-3.867-2.676-3.887-2.676-11.25 0-6.914 3.282-11.016 3.281-4.12 8.808-4.12 1.485 0 2.989.292 1.523.293 3.164.879zM193.438 136.24h13.769v3.32h-18.516v-3.32q2.247-2.324 6.114-6.23 3.886-3.926 4.883-5.059 1.894-2.129 2.636-3.594.762-1.484.762-2.91 0-2.324-1.64-3.789-1.622-1.465-4.239-1.465-1.855 0-3.926.645-2.05.644-4.394 1.953v-3.984q2.383-.957 4.453-1.446 2.07-.488 3.789-.488 4.531 0 7.226 2.266 2.696 2.265 2.696 6.054 0 1.797-.684 3.418-.664 1.602-2.441 3.79-.488.566-3.106 3.28-2.617 2.696-7.382 7.56zM216.172 136.24h6.445v-22.246l-7.012 1.406v-3.593l6.973-1.407h3.945v25.84h6.446v3.32h-16.797zM249.863 123.408q-2.656 0-4.218 1.817-1.543 1.816-1.543 4.98 0 3.145 1.543 4.98 1.562 1.817 4.218 1.817 2.657 0 4.2-1.816 1.562-1.836 1.562-4.98 0-3.165-1.563-4.981-1.542-1.817-4.199-1.817zm7.832-12.363v3.594q-1.484-.703-3.007-1.075-1.504-.37-2.989-.37-3.906 0-5.976 2.636-2.051 2.637-2.344 7.969 1.152-1.7 2.89-2.598 1.739-.918 3.829-.918 4.394 0 6.933 2.676 2.559 2.656 2.559 7.246 0 4.492-2.656 7.207-2.657 2.715-7.07 2.715-5.06 0-7.735-3.867-2.676-3.887-2.676-11.25 0-6.914 3.281-11.016 3.282-4.12 8.809-4.12 1.484 0 2.988.292 1.524.293 3.164.879zM265.39 110.4h18.75v1.68l-10.585 27.48h-4.121l9.96-25.84h-14.003zM303.79 123.838q2.831.605 4.413 2.52 1.602 1.913 1.602 4.726 0 4.316-2.97 6.68-2.968 2.363-8.437 2.363-1.836 0-3.789-.371-1.933-.352-4.004-1.074v-3.809q1.641.957 3.594 1.445 1.953.489 4.082.489 3.711 0 5.645-1.465 1.953-1.465 1.953-4.258 0-2.578-1.817-4.023-1.796-1.465-5.019-1.465h-3.398v-3.242h3.554q2.91 0 4.453-1.153 1.543-1.172 1.543-3.36 0-2.245-1.601-3.437-1.582-1.21-4.551-1.21-1.621 0-3.477.35-1.855.352-4.082 1.095v-3.516q2.246-.625 4.2-.937 1.972-.313 3.71-.313 4.493 0 7.11 2.05 2.617 2.032 2.617 5.509 0 2.422-1.387 4.101-1.386 1.66-3.945 2.305zM329.238 123.838q2.832.605 4.414 2.52 1.602 1.913 1.602 4.726 0 4.316-2.969 6.68-2.969 2.363-8.437 2.363-1.836 0-3.79-.371-1.933-.352-4.003-1.074v-3.809q1.64.957 3.593 1.445 1.954.489 4.082.489 3.711 0 5.645-1.465 1.953-1.465 1.953-4.258 0-2.578-1.816-4.023-1.797-1.465-5.02-1.465h-3.398v-3.242h3.554q2.91 0 4.454-1.153 1.543-1.172 1.543-3.36 0-2.245-1.602-3.437-1.582-1.21-4.55-1.21-1.622 0-3.477.35-1.856.352-4.082 1.095v-3.516q2.246-.625 4.199-.937 1.972-.313 3.71-.313 4.493 0 7.11 2.05 2.617 2.032 2.617 5.509 0 2.422-1.386 4.101-1.387 1.66-3.946 2.305zM342.773 110.4h15.489v3.32h-11.875v7.15q.86-.294 1.718-.43.86-.157 1.72-.157 4.882 0 7.734 2.676 2.851 2.676 2.851 7.246 0 4.707-2.93 7.324-2.93 2.598-8.261 2.598-1.836 0-3.75-.313-1.895-.312-3.926-.937v-3.965q1.758.957 3.633 1.426t3.965.469q3.379 0 5.351-1.778 1.973-1.777 1.973-4.824 0-3.047-1.973-4.824-1.972-1.777-5.351-1.777-1.582 0-3.164.351-1.563.352-3.204 1.094zM367.188 110.4h18.75v1.68l-10.586 27.48h-4.122l9.961-25.84h-14.003ZM405.586 123.838q2.832.605 4.414 2.52 1.602 1.913 1.602 4.726 0 4.316-2.97 6.68-2.968 2.363-8.437 2.363-1.836 0-3.789-.371-1.933-.352-4.004-1.074v-3.809q1.641.957 3.594 1.445 1.953.489 4.082.489 3.711 0 5.645-1.465 1.953-1.465 1.953-4.258 0-2.578-1.817-4.023-1.797-1.465-5.02-1.465h-3.398v-3.242h3.555q2.91 0 4.453-1.153 1.543-1.172 1.543-3.36 0-2.245-1.601-3.437-1.582-1.21-4.551-1.21-1.621 0-3.477.35-1.855.352-4.082 1.095v-3.516q2.246-.625 4.2-.937 1.972-.313 3.71-.313 4.493 0 7.11 2.05 2.617 2.032 2.617 5.509 0 2.422-1.387 4.101-1.386 1.66-3.945 2.305zM428.008 123.408q-2.656 0-4.219 1.817-1.543 1.816-1.543 4.98 0 3.145 1.543 4.98 1.563 1.817 4.219 1.817 2.656 0 4.199-1.816 1.563-1.836 1.563-4.98 0-3.165-1.563-4.981-1.543-1.817-4.2-1.817zm7.832-12.363v3.594q-1.485-.703-3.008-1.075-1.504-.37-2.988-.37-3.906 0-5.977 2.636-2.05 2.637-2.344 7.969 1.153-1.7 2.891-2.598 1.738-.918 3.828-.918 4.395 0 6.934 2.676 2.558 2.656 2.558 7.246 0 4.492-2.656 7.207t-7.07 2.715q-5.059 0-7.735-3.867-2.675-3.887-2.675-11.25 0-6.914 3.28-11.016 3.282-4.12 8.81-4.12 1.484 0 2.988.292 1.523.293 3.164.879zM456.484 123.838q2.832.605 4.414 2.52 1.602 1.913 1.602 4.726 0 4.316-2.969 6.68-2.969 2.363-8.437 2.363-1.836 0-3.79-.371-1.933-.352-4.003-1.074v-3.809q1.64.957 3.594 1.445 1.953.489 4.082.489 3.71 0 5.644-1.465 1.953-1.465 1.953-4.258 0-2.578-1.816-4.023-1.797-1.465-5.02-1.465h-3.398v-3.242h3.555q2.91 0 4.453-1.153 1.543-1.172 1.543-3.36 0-2.245-1.602-3.437-1.582-1.21-4.55-1.21-1.622 0-3.477.35-1.856.352-4.082 1.095v-3.516q2.246-.625 4.199-.937 1.973-.313 3.71-.313 4.493 0 7.11 2.05 2.617 2.032 2.617 5.509 0 2.422-1.386 4.101-1.387 1.66-3.946 2.305zM470.02 110.4h15.488v3.32h-11.875v7.15q.86-.294 1.719-.43.859-.157 1.718-.157 4.883 0 7.735 2.676 2.851 2.676 2.851 7.246 0 4.707-2.93 7.324-2.93 2.598-8.261 2.598-1.836 0-3.75-.313-1.895-.312-3.926-.937v-3.965q1.758.957 3.633 1.426t3.965.469q3.379 0 5.351-1.778 1.973-1.777 1.973-4.824 0-3.047-1.973-4.824-1.972-1.777-5.351-1.777-1.582 0-3.164.351-1.563.352-3.203 1.094zM495.469 110.4h15.488v3.32h-11.875v7.15q.86-.294 1.719-.43.86-.157 1.719-.157 4.882 0 7.734 2.676 2.851 2.676 2.851 7.246 0 4.707-2.93 7.324-2.929 2.598-8.26 2.598-1.837 0-3.75-.313-1.895-.312-3.927-.937v-3.965q1.758.957 3.633 1.426t3.965.469q3.379 0 5.351-1.778 1.973-1.777 1.973-4.824 0-3.047-1.973-4.824-1.972-1.777-5.351-1.777-1.582 0-3.164.351-1.563.352-3.203 1.094zM529.316 125.713q-2.812 0-4.433 1.504-1.602 1.504-1.602 4.14 0 2.637 1.602 4.141 1.62 1.504 4.433 1.504 2.813 0 4.434-1.504 1.621-1.523 1.621-4.14 0-2.637-1.621-4.141-1.602-1.504-4.434-1.504zm-3.945-1.68q-2.539-.625-3.965-2.363-1.406-1.738-1.406-4.238 0-3.496 2.48-5.528 2.5-2.03 6.836-2.03 4.356 0 6.836 2.03 2.48 2.032 2.48 5.528 0 2.5-1.425 4.238-1.406 1.738-3.926 2.363 2.852.664 4.434 2.598 1.601 1.933 1.601 4.726 0 4.239-2.597 6.504-2.578 2.266-7.403 2.266-4.824 0-7.421-2.266-2.579-2.265-2.579-6.504 0-2.793 1.602-4.726 1.602-1.934 4.453-2.598zm-1.445-6.23q0 2.265 1.406 3.535 1.426 1.27 3.984 1.27 2.54 0 3.965-1.27 1.446-1.27 1.446-3.535 0-2.266-1.446-3.535-1.426-1.27-3.965-1.27-2.558 0-3.984 1.27-1.406 1.27-1.406 3.535zM554.766 125.713q-2.813 0-4.434 1.504-1.602 1.504-1.602 4.14 0 2.637 1.602 4.141 1.621 1.504 4.434 1.504 2.812 0 4.433-1.504 1.621-1.523 1.621-4.14 0-2.637-1.62-4.141-1.602-1.504-4.434-1.504zm-3.946-1.68q-2.539-.625-3.965-2.363-1.406-1.738-1.406-4.238 0-3.496 2.48-5.528 2.5-2.03 6.837-2.03 4.355 0 6.836 2.03 2.48 2.032 2.48 5.528 0 2.5-1.426 4.238-1.406 1.738-3.926 2.363 2.852.664 4.434 2.598 1.602 1.933 1.602 4.726 0 4.239-2.598 6.504-2.578 2.266-7.402 2.266-4.825 0-7.422-2.266-2.578-2.265-2.578-6.504 0-2.793 1.601-4.726 1.602-1.934 4.453-2.598zm-1.445-6.23q0 2.265 1.406 3.535 1.426 1.27 3.985 1.27 2.539 0 3.964-1.27 1.446-1.27 1.446-3.535 0-2.266-1.446-3.535-1.425-1.27-3.964-1.27-2.559 0-3.985 1.27-1.406 1.27-1.406 3.535zM571.816 110.4h15.489v3.32H575.43v7.15q.86-.294 1.718-.43.86-.157 1.72-.157 4.882 0 7.734 2.676 2.851 2.676 2.851 7.246 0 4.707-2.93 7.324-2.93 2.598-8.261 2.598-1.836 0-3.75-.313-1.895-.312-3.926-.937v-3.965q1.758.957 3.633 1.426t3.965.469q3.379 0 5.351-1.778 1.973-1.777 1.973-4.824 0-3.047-1.973-4.824-1.972-1.777-5.351-1.777-1.582 0-3.164.351-1.563.352-3.204 1.094zM12.012 188.955v-3.594q1.484.703 3.008 1.075 1.523.37 2.988.37 3.906 0 5.957-2.617 2.07-2.636 2.363-7.988-1.133 1.68-2.871 2.578-1.738.899-3.848.899-4.375 0-6.933-2.637-2.54-2.656-2.54-7.246 0-4.492 2.657-7.207 2.656-2.715 7.07-2.715 5.059 0 7.715 3.887 2.676 3.867 2.676 11.25 0 6.894-3.281 11.015-3.262 4.102-8.79 4.102-1.484 0-3.007-.293-1.524-.293-3.164-.879zm7.851-12.363q2.657 0 4.2-1.817 1.562-1.816 1.562-4.98 0-3.145-1.563-4.961-1.542-1.836-4.199-1.836-2.656 0-4.218 1.836-1.543 1.816-1.543 4.96 0 3.165 1.543 4.981 1.562 1.817 4.218 1.817zM45.781 162.998q-3.047 0-4.59 3.008-1.523 2.988-1.523 9.004 0 5.996 1.523 9.004 1.543 2.988 4.59 2.988 3.067 0 4.59-2.988 1.543-3.008 1.543-9.004 0-6.016-1.543-9.004-1.523-3.008-4.59-3.008zm0-3.125q4.903 0 7.48 3.887 2.598 3.867 2.598 11.25 0 7.363-2.597 11.25-2.578 3.867-7.48 3.867-4.903 0-7.5-3.867-2.579-3.887-2.579-11.25 0-7.383 2.578-11.25 2.598-3.887 7.5-3.887zM74.746 173.838q2.832.605 4.414 2.52 1.602 1.913 1.602 4.726 0 4.316-2.969 6.68-2.969 2.363-8.438 2.363-1.835 0-3.789-.371-1.933-.352-4.004-1.074v-3.809q1.641.957 3.594 1.445 1.953.489 4.082.489 3.711 0 5.645-1.465 1.953-1.465 1.953-4.258 0-2.578-1.816-4.023-1.797-1.465-5.02-1.465h-3.398v-3.242h3.554q2.91 0 4.453-1.153 1.543-1.172 1.543-3.36 0-2.245-1.601-3.437-1.582-1.21-4.551-1.21-1.621 0-3.477.35-1.855.352-4.082 1.095v-3.516q2.246-.625 4.2-.937 1.972-.313 3.71-.313 4.493 0 7.11 2.05 2.617 2.032 2.617 5.509 0 2.422-1.387 4.101-1.386 1.66-3.945 2.305zM96.68 162.998q-3.047 0-4.59 3.008-1.524 2.988-1.524 9.004 0 5.996 1.524 9.004 1.543 2.988 4.59 2.988 3.066 0 4.59-2.988 1.543-3.008 1.543-9.004 0-6.016-1.543-9.004-1.524-3.008-4.59-3.008zm0-3.125q4.902 0 7.48 3.887 2.598 3.867 2.598 11.25 0 7.363-2.598 11.25-2.578 3.867-7.48 3.867-4.903 0-7.5-3.867-2.578-3.887-2.578-11.25 0-7.383 2.578-11.25 2.597-3.887 7.5-3.887zM125.645 173.838q2.832.605 4.414 2.52 1.601 1.913 1.601 4.726 0 4.316-2.969 6.68-2.968 2.363-8.437 2.363-1.836 0-3.79-.371-1.933-.352-4.003-1.074v-3.809q1.64.957 3.594 1.445 1.953.489 4.082.489 3.71 0 5.644-1.465 1.953-1.465 1.953-4.258 0-2.578-1.816-4.023-1.797-1.465-5.02-1.465H117.5v-3.242h3.555q2.91 0 4.453-1.153 1.543-1.172 1.543-3.36 0-2.245-1.602-3.437-1.582-1.21-4.55-1.21-1.622 0-3.477.35-1.856.352-4.082 1.095v-3.516q2.246-.625 4.2-.937 1.972-.313 3.71-.313 4.492 0 7.11 2.05 2.617 2.032 2.617 5.509 0 2.422-1.387 4.101-1.387 1.66-3.945 2.305zM142.54 186.24h13.769v3.32h-18.516v-3.32q2.246-2.324 6.113-6.23 3.887-3.926 4.883-5.059 1.895-2.129 2.637-3.594.762-1.484.762-2.91 0-2.324-1.641-3.789-1.621-1.465-4.238-1.465-1.856 0-3.926.645-2.051.644-4.395 1.953v-3.984q2.383-.957 4.453-1.446 2.07-.488 3.79-.488 4.53 0 7.226 2.266 2.695 2.265 2.695 6.054 0 1.797-.683 3.418-.664 1.602-2.442 3.79-.488.566-3.105 3.28-2.617 2.696-7.383 7.56zM176.543 173.838q2.832.605 4.414 2.52 1.602 1.913 1.602 4.726 0 4.316-2.97 6.68-2.968 2.363-8.437 2.363-1.836 0-3.789-.371-1.933-.352-4.004-1.074v-3.809q1.641.957 3.594 1.445 1.953.489 4.082.489 3.711 0 5.645-1.465 1.953-1.465 1.953-4.258 0-2.578-1.817-4.023-1.796-1.465-5.02-1.465h-3.398v-3.242h3.555q2.91 0 4.453-1.153 1.543-1.172 1.543-3.36 0-2.245-1.601-3.437-1.582-1.21-4.551-1.21-1.621 0-3.477.35-1.855.352-4.082 1.095v-3.516q2.246-.625 4.2-.937 1.972-.313 3.71-.313 4.493 0 7.11 2.05 2.617 2.032 2.617 5.509 0 2.422-1.387 4.101-1.386 1.66-3.945 2.305zM198.965 173.408q-2.656 0-4.219 1.817-1.543 1.816-1.543 4.98 0 3.145 1.543 4.98 1.563 1.817 4.219 1.817 2.656 0 4.2-1.816 1.562-1.836 1.562-4.98 0-3.165-1.563-4.981-1.543-1.817-4.2-1.817zm7.832-12.363v3.594q-1.484-.703-3.008-1.075-1.504-.37-2.988-.37-3.906 0-5.977 2.636-2.05 2.637-2.344 7.969 1.153-1.7 2.891-2.598 1.738-.918 3.828-.918 4.395 0 6.934 2.676 2.558 2.656 2.558 7.246 0 4.492-2.656 7.207t-7.07 2.715q-5.059 0-7.735-3.867-2.675-3.887-2.675-11.25 0-6.914 3.28-11.016 3.282-4.12 8.81-4.12 1.484 0 2.988.292 1.523.293 3.164.879zM215.605 188.955v-3.594q1.485.703 3.008 1.075 1.524.37 2.989.37 3.906 0 5.957-2.617 2.07-2.636 2.363-7.988-1.133 1.68-2.871 2.578-1.738.899-3.848.899-4.375 0-6.933-2.637-2.54-2.656-2.54-7.246 0-4.492 2.657-7.207 2.656-2.715 7.07-2.715 5.059 0 7.715 3.887 2.676 3.867 2.676 11.25 0 6.894-3.282 11.015-3.261 4.102-8.789 4.102-1.484 0-3.007-.293-1.524-.293-3.165-.879zm7.852-12.363q2.656 0 4.2-1.817 1.562-1.816 1.562-4.98 0-3.145-1.563-4.961-1.543-1.836-4.199-1.836-2.656 0-4.219 1.836-1.543 1.816-1.543 4.96 0 3.165 1.543 4.981 1.563 1.817 4.219 1.817zM249.375 162.998q-3.047 0-4.59 3.008-1.523 2.988-1.523 9.004 0 5.996 1.523 9.004 1.543 2.988 4.59 2.988 3.066 0 4.59-2.988 1.543-3.008 1.543-9.004 0-6.016-1.543-9.004-1.524-3.008-4.59-3.008zm0-3.125q4.902 0 7.48 3.887 2.598 3.867 2.598 11.25 0 7.363-2.598 11.25-2.578 3.867-7.48 3.867-4.902 0-7.5-3.867-2.578-3.887-2.578-11.25 0-7.383 2.578-11.25 2.598-3.887 7.5-3.887zM278.34 173.838q2.832.605 4.414 2.52 1.601 1.913 1.601 4.726 0 4.316-2.968 6.68-2.969 2.363-8.438 2.363-1.836 0-3.789-.371-1.933-.352-4.004-1.074v-3.809q1.64.957 3.594 1.445 1.953.489 4.082.489 3.711 0 5.645-1.465 1.953-1.465 1.953-4.258 0-2.578-1.817-4.023-1.797-1.465-5.02-1.465h-3.398v-3.242h3.555q2.91 0 4.453-1.153 1.543-1.172 1.543-3.36 0-2.245-1.601-3.437-1.582-1.21-4.551-1.21-1.621 0-3.477.35-1.855.352-4.082 1.095v-3.516q2.246-.625 4.2-.937 1.972-.313 3.71-.313 4.493 0 7.11 2.05 2.617 2.032 2.617 5.509 0 2.422-1.387 4.101-1.387 1.66-3.945 2.305zM300.273 162.998q-3.046 0-4.59 3.008-1.523 2.988-1.523 9.004 0 5.996 1.524 9.004 1.543 2.988 4.59 2.988 3.066 0 4.59-2.988 1.542-3.008 1.542-9.004 0-6.016-1.543-9.004-1.523-3.008-4.59-3.008zm0-3.125q4.903 0 7.48 3.887 2.599 3.867 2.599 11.25 0 7.363-2.598 11.25-2.578 3.867-7.48 3.867-4.903 0-7.5-3.867-2.579-3.887-2.579-11.25 0-7.383 2.578-11.25 2.598-3.887 7.5-3.887zM320.684 186.24h13.77v3.32h-18.517v-3.32q2.247-2.324 6.114-6.23 3.886-3.926 4.883-5.059 1.894-2.129 2.636-3.594.762-1.484.762-2.91 0-2.324-1.64-3.789-1.622-1.465-4.239-1.465-1.855 0-3.926.645-2.05.644-4.394 1.953v-3.984q2.383-.957 4.453-1.446 2.07-.488 3.789-.488 4.531 0 7.227 2.266 2.695 2.265 2.695 6.054 0 1.797-.684 3.418-.664 1.602-2.441 3.79-.488.566-3.106 3.28-2.617 2.696-7.382 7.56zM351.172 162.998q-3.047 0-4.59 3.008-1.523 2.988-1.523 9.004 0 5.996 1.523 9.004 1.543 2.988 4.59 2.988 3.066 0 4.59-2.988 1.543-3.008 1.543-9.004 0-6.016-1.543-9.004-1.524-3.008-4.59-3.008zm0-3.125q4.902 0 7.48 3.887 2.598 3.867 2.598 11.25 0 7.363-2.598 11.25-2.578 3.867-7.48 3.867-4.902 0-7.5-3.867-2.578-3.887-2.578-11.25 0-7.383 2.578-11.25 2.598-3.887 7.5-3.887zM368.867 186.24h6.445v-22.246l-7.011 1.406v-3.593l6.972-1.407h3.946v25.84h6.445v3.32h-16.797zM404.473 163.838l-9.961 15.566h9.96zm-1.035-3.438h4.96v19.004h4.16v3.282h-4.16v6.875h-3.925v-6.875h-13.164v-3.81zM422.48 186.24h13.77v3.32h-18.516v-3.32q2.246-2.324 6.114-6.23 3.886-3.926 4.882-5.059 1.895-2.129 2.637-3.594.762-1.484.762-2.91 0-2.324-1.64-3.789-1.622-1.465-4.239-1.465-1.855 0-3.926.645-2.05.644-4.394 1.953v-3.984q2.383-.957 4.453-1.446 2.07-.488 3.789-.488 4.531 0 7.226 2.266 2.696 2.265 2.696 6.054 0 1.797-.684 3.418-.664 1.602-2.441 3.79-.489.566-3.106 3.28-2.617 2.696-7.383 7.56zM443.535 160.4h18.75v1.68L451.7 189.56h-4.12l9.96-25.84h-14.004zM478.906 173.408q-2.656 0-4.219 1.817-1.542 1.816-1.542 4.98 0 3.145 1.542 4.98 1.563 1.817 4.22 1.817 2.656 0 4.198-1.816 1.563-1.836 1.563-4.98 0-3.165-1.563-4.981-1.542-1.817-4.199-1.817zm7.832-12.363v3.594q-1.484-.703-3.008-1.075-1.503-.37-2.988-.37-3.906 0-5.976 2.636-2.051 2.637-2.344 7.969 1.152-1.7 2.89-2.598 1.739-.918 3.829-.918 4.394 0 6.933 2.676 2.559 2.656 2.559 7.246 0 4.492-2.656 7.207-2.657 2.715-7.07 2.715-5.06 0-7.735-3.867-2.676-3.887-2.676-11.25 0-6.914 3.281-11.016 3.282-4.12 8.809-4.12 1.484 0 2.988.292 1.524.293 3.164.879zM494.434 160.4h18.75v1.68l-10.586 27.48h-4.121l9.96-25.84h-14.003zM529.805 173.408q-2.657 0-4.22 1.817-1.542 1.816-1.542 4.98 0 3.145 1.543 4.98 1.562 1.817 4.219 1.817 2.656 0 4.199-1.816 1.562-1.836 1.562-4.98 0-3.165-1.562-4.981-1.543-1.817-4.2-1.817zm7.832-12.363v3.594q-1.485-.703-3.008-1.075-1.504-.37-2.988-.37-3.907 0-5.977 2.636-2.05 2.637-2.344 7.969 1.153-1.7 2.89-2.598 1.74-.918 3.83-.918 4.394 0 6.933 2.676 2.558 2.656 2.558 7.246 0 4.492-2.656 7.207t-7.07 2.715q-5.059 0-7.735-3.867-2.675-3.887-2.675-11.25 0-6.914 3.28-11.016 3.282-4.12 8.81-4.12 1.484 0 2.988.292 1.523.293 3.164.879zM546.445 188.955v-3.594q1.485.703 3.008 1.075 1.524.37 2.988.37 3.907 0 5.957-2.617 2.07-2.636 2.364-7.988-1.133 1.68-2.871 2.578-1.739.899-3.848.899-4.375 0-6.934-2.637-2.539-2.656-2.539-7.246 0-4.492 2.657-7.207 2.656-2.715 7.07-2.715 5.058 0 7.715 3.887 2.676 3.867 2.676 11.25 0 6.894-3.282 11.015-3.261 4.102-8.789 4.102-1.484 0-3.008-.293-1.523-.293-3.164-.879zm7.852-12.363q2.656 0 4.2-1.817 1.562-1.816 1.562-4.98 0-3.145-1.563-4.961-1.543-1.836-4.2-1.836-2.655 0-4.218 1.836-1.543 1.816-1.543 4.96 0 3.165 1.543 4.981 1.563 1.817 4.219 1.817zM580.215 175.713q-2.813 0-4.434 1.504-1.601 1.504-1.601 4.14 0 2.637 1.601 4.141 1.621 1.504 4.434 1.504 2.812 0 4.433-1.504 1.622-1.523 1.622-4.14 0-2.637-1.622-4.141-1.601-1.504-4.433-1.504zm-3.945-1.68q-2.54-.625-3.965-2.363-1.407-1.738-1.407-4.238 0-3.496 2.48-5.528 2.5-2.031 6.837-2.031 4.355 0 6.836 2.031 2.48 2.032 2.48 5.528 0 2.5-1.426 4.238-1.406 1.738-3.925 2.363 2.851.664 4.433 2.598 1.602 1.933 1.602 4.726 0 4.239-2.598 6.504-2.578 2.266-7.402 2.266t-7.422-2.266q-2.578-2.265-2.578-6.504 0-2.793 1.601-4.726 1.602-1.934 4.454-2.598zm-1.446-6.23q0 2.265 1.406 3.535 1.426 1.27 3.985 1.27 2.539 0 3.965-1.27 1.445-1.27 1.445-3.535 0-2.266-1.445-3.535-1.426-1.27-3.965-1.27-2.559 0-3.985 1.27-1.406 1.27-1.406 3.535zM20.332 212.998q-3.047 0-4.59 3.008-1.523 2.988-1.523 9.004 0 5.996 1.523 9.004 1.543 2.988 4.59 2.988 3.066 0 4.59-2.988 1.543-3.008 1.543-9.004 0-6.016-1.543-9.004-1.524-3.008-4.59-3.008zm0-3.125q4.902 0 7.48 3.887 2.598 3.867 2.598 11.25 0 7.363-2.597 11.25-2.579 3.867-7.481 3.867-4.902 0-7.5-3.867-2.578-3.887-2.578-11.25 0-7.383 2.578-11.25 2.598-3.887 7.5-3.887zM49.297 223.838q2.832.605 4.414 2.52 1.602 1.913 1.602 4.726 0 4.316-2.97 6.68-2.968 2.363-8.437 2.363-1.836 0-3.789-.371-1.933-.352-4.004-1.074v-3.809q1.64.957 3.594 1.445 1.953.489 4.082.489 3.711 0 5.645-1.465 1.953-1.465 1.953-4.258 0-2.578-1.817-4.023-1.797-1.465-5.02-1.465h-3.398v-3.242h3.555q2.91 0 4.453-1.153 1.543-1.172 1.543-3.36 0-2.245-1.601-3.437-1.582-1.21-4.551-1.21-1.621 0-3.477.35-1.855.352-4.082 1.095v-3.516q2.246-.625 4.2-.937 1.972-.313 3.71-.313 4.493 0 7.11 2.05 2.617 2.032 2.617 5.509 0 2.422-1.387 4.101-1.387 1.66-3.945 2.305zM62.832 210.4H78.32v3.32H66.445v7.15q.86-.294 1.72-.43.858-.157 1.718-.157 4.883 0 7.734 2.676 2.852 2.676 2.852 7.246 0 4.707-2.93 7.324-2.93 2.598-8.262 2.598-1.836 0-3.75-.313-1.894-.312-3.925-.937v-3.965q1.757.957 3.632 1.426 1.875.469 3.965.469 3.38 0 5.352-1.778 1.972-1.777 1.972-4.824 0-3.047-1.972-4.824-1.973-1.777-5.352-1.777-1.582 0-3.164.351-1.562.352-3.203 1.094zM88.36 238.955v-3.594q1.484.703 3.007 1.075 1.524.37 2.988.37 3.907 0 5.957-2.617 2.07-2.636 2.364-7.988-1.133 1.68-2.871 2.578-1.739.899-3.848.899-4.375 0-6.934-2.637-2.539-2.656-2.539-7.246 0-4.492 2.657-7.207 2.656-2.715 7.07-2.715 5.059 0 7.715 3.887 2.676 3.867 2.676 11.25 0 6.894-3.282 11.015-3.261 4.102-8.789 4.102-1.484 0-3.008-.293-1.523-.293-3.164-.879Zm7.85-12.363q2.657 0 4.2-1.817 1.563-1.816 1.563-4.98 0-3.145-1.563-4.961-1.543-1.836-4.2-1.836-2.655 0-4.218 1.836-1.543 1.816-1.543 4.96 0 3.165 1.543 4.981 1.563 1.817 4.219 1.817zM122.617 223.408q-2.656 0-4.219 1.817-1.543 1.816-1.543 4.98 0 3.145 1.543 4.98 1.563 1.817 4.22 1.817 2.655 0 4.198-1.816 1.563-1.836 1.563-4.98 0-3.165-1.563-4.981-1.543-1.817-4.199-1.817zm7.832-12.363v3.594q-1.484-.703-3.008-1.075-1.504-.37-2.988-.37-3.906 0-5.976 2.636-2.051 2.637-2.344 7.969 1.152-1.7 2.89-2.598 1.739-.918 3.829-.918 4.394 0 6.933 2.676 2.559 2.656 2.559 7.246 0 4.492-2.656 7.207-2.657 2.715-7.07 2.715-5.06 0-7.735-3.867-2.676-3.887-2.676-11.25 0-6.914 3.281-11.016 3.282-4.12 8.809-4.12 1.484 0 2.988.292 1.524.293 3.164.879zM148.066 223.408q-2.656 0-4.218 1.817-1.543 1.816-1.543 4.98 0 3.145 1.543 4.98 1.562 1.817 4.218 1.817 2.657 0 4.2-1.816 1.562-1.836 1.562-4.98 0-3.165-1.562-4.981-1.543-1.817-4.2-1.817zm7.832-12.363v3.594q-1.484-.703-3.007-1.075-1.504-.37-2.989-.37-3.906 0-5.976 2.636-2.051 2.637-2.344 7.969 1.152-1.7 2.89-2.598 1.739-.918 3.829-.918 4.394 0 6.933 2.676 2.559 2.656 2.559 7.246 0 4.492-2.656 7.207-2.657 2.715-7.07 2.715-5.06 0-7.735-3.867-2.676-3.887-2.676-11.25 0-6.914 3.281-11.016 3.282-4.12 8.81-4.12 1.483 0 2.987.292 1.524.293 3.164.879zM176.543 223.838q2.832.605 4.414 2.52 1.602 1.913 1.602 4.726 0 4.316-2.97 6.68-2.968 2.363-8.437 2.363-1.836 0-3.789-.371-1.933-.352-4.004-1.074v-3.809q1.641.957 3.594 1.445 1.953.489 4.082.489 3.711 0 5.645-1.465 1.953-1.465 1.953-4.258 0-2.578-1.817-4.023-1.796-1.465-5.02-1.465h-3.398v-3.242h3.555q2.91 0 4.453-1.153 1.543-1.172 1.543-3.36 0-2.245-1.601-3.437-1.582-1.21-4.551-1.21-1.621 0-3.477.35-1.855.352-4.082 1.095v-3.516q2.246-.625 4.2-.937 1.972-.313 3.71-.313 4.493 0 7.11 2.05 2.617 2.032 2.617 5.509 0 2.422-1.387 4.101-1.386 1.66-3.945 2.305zM198.477 225.713q-2.813 0-4.434 1.504-1.602 1.504-1.602 4.14 0 2.637 1.602 4.141 1.621 1.504 4.434 1.504 2.812 0 4.433-1.504 1.621-1.523 1.621-4.14 0-2.637-1.62-4.141-1.602-1.504-4.434-1.504zm-3.946-1.68q-2.539-.625-3.965-2.363-1.406-1.738-1.406-4.238 0-3.496 2.48-5.528 2.5-2.031 6.837-2.031 4.355 0 6.835 2.031 2.481 2.032 2.481 5.528 0 2.5-1.426 4.238-1.406 1.738-3.926 2.363 2.852.664 4.434 2.598 1.602 1.933 1.602 4.726 0 4.239-2.598 6.504-2.578 2.266-7.402 2.266-4.825 0-7.422-2.266-2.578-2.265-2.578-6.504 0-2.793 1.601-4.726 1.602-1.934 4.453-2.598zm-1.445-6.23q0 2.265 1.406 3.535 1.426 1.27 3.985 1.27 2.539 0 3.964-1.27 1.446-1.27 1.446-3.535 0-2.266-1.446-3.535-1.425-1.27-3.964-1.27-2.559 0-3.985 1.27-1.406 1.27-1.406 3.535zM214.492 210.4h18.75v1.68l-10.586 27.48h-4.12l9.96-25.84h-14.004zM239.941 210.4h18.75v1.68l-10.586 27.48h-4.12l9.96-25.84h-14.004zM277.227 213.838l-9.961 15.566h9.96zm-1.036-3.438h4.961v19.004h4.16v3.282h-4.16v6.875h-3.925v-6.875h-13.164v-3.81zM302.676 213.838l-9.961 15.566h9.96zm-1.035-3.438h4.96v19.004h4.16v3.282h-4.16v6.875h-3.925v-6.875h-13.164v-3.81zM328.125 213.838l-9.96 15.566h9.96zm-1.035-3.438h4.96v19.004h4.16v3.282h-4.16v6.875h-3.925v-6.875h-13.164v-3.81zM353.574 213.838l-9.96 15.566h9.96zm-1.035-3.438h4.961v19.004h4.16v3.282h-4.16v6.875h-3.926v-6.875H340.41v-3.81zM379.023 213.838l-9.96 15.566h9.96zm-1.035-3.438h4.961v19.004h4.16v3.282h-4.16v6.875h-3.926v-6.875H365.86v-3.81zM392.637 210.4h18.75v1.68L400.8 239.56h-4.121l9.96-25.84h-14.003zM418.086 210.4h18.75v1.68l-10.586 27.48h-4.121l9.96-25.84h-14.003zM453.457 223.408q-2.656 0-4.219 1.817-1.543 1.816-1.543 4.98 0 3.145 1.543 4.98 1.563 1.817 4.219 1.817 2.656 0 4.2-1.816 1.562-1.836 1.562-4.98 0-3.165-1.563-4.981-1.543-1.817-4.199-1.817zm7.832-12.363v3.594q-1.484-.703-3.008-1.075-1.504-.37-2.988-.37-3.906 0-5.977 2.636-2.05 2.637-2.343 7.969 1.152-1.7 2.89-2.598 1.739-.918 3.828-.918 4.395 0 6.934 2.676 2.559 2.656 2.559 7.246 0 4.492-2.657 7.207-2.656 2.715-7.07 2.715-5.059 0-7.734-3.867-2.676-3.887-2.676-11.25 0-6.914 3.281-11.016 3.281-4.12 8.809-4.12 1.484 0 2.988.292 1.523.293 3.164.879zM468.984 210.4h18.75v1.68l-10.586 27.48h-4.12l9.96-25.84h-14.004zM495.547 238.955v-3.594q1.484.703 3.008 1.075 1.523.37 2.988.37 3.906 0 5.957-2.617 2.07-2.636 2.363-7.988-1.133 1.68-2.87 2.578-1.74.899-3.848.899-4.375 0-6.934-2.637-2.54-2.656-2.54-7.246 0-4.492 2.657-7.207 2.656-2.715 7.07-2.715 5.059 0 7.715 3.887 2.676 3.867 2.676 11.25 0 6.894-3.281 11.015-3.262 4.102-8.79 4.102-1.484 0-3.007-.293-1.524-.293-3.164-.879zm7.851-12.363q2.657 0 4.2-1.817 1.562-1.816 1.562-4.98 0-3.145-1.562-4.961-1.543-1.836-4.2-1.836-2.656 0-4.218 1.836-1.543 1.816-1.543 4.96 0 3.165 1.543 4.981 1.562 1.817 4.218 1.817zM529.805 223.408q-2.657 0-4.22 1.817-1.542 1.816-1.542 4.98 0 3.145 1.543 4.98 1.562 1.817 4.219 1.817 2.656 0 4.199-1.816 1.562-1.836 1.562-4.98 0-3.165-1.562-4.981-1.543-1.817-4.2-1.817zm7.832-12.363v3.594q-1.485-.703-3.008-1.075-1.504-.37-2.988-.37-3.907 0-5.977 2.636-2.05 2.637-2.344 7.969 1.153-1.7 2.89-2.598 1.74-.918 3.83-.918 4.394 0 6.933 2.676 2.558 2.656 2.558 7.246 0 4.492-2.656 7.207t-7.07 2.715q-5.059 0-7.735-3.867-2.675-3.887-2.675-11.25 0-6.914 3.28-11.016 3.282-4.12 8.81-4.12 1.484 0 2.988.292 1.523.293 3.164.879zM554.766 225.713q-2.813 0-4.434 1.504-1.602 1.504-1.602 4.14 0 2.637 1.602 4.141 1.621 1.504 4.434 1.504 2.812 0 4.433-1.504 1.621-1.523 1.621-4.14 0-2.637-1.62-4.141-1.602-1.504-4.434-1.504zm-3.946-1.68q-2.539-.625-3.965-2.363-1.406-1.738-1.406-4.238 0-3.496 2.48-5.528 2.5-2.031 6.837-2.031 4.355 0 6.836 2.031 2.48 2.032 2.48 5.528 0 2.5-1.426 4.238-1.406 1.738-3.926 2.363 2.852.664 4.434 2.598 1.602 1.933 1.602 4.726 0 4.239-2.598 6.504-2.578 2.266-7.402 2.266-4.825 0-7.422-2.266-2.578-2.265-2.578-6.504 0-2.793 1.601-4.726 1.602-1.934 4.453-2.598zm-1.445-6.23q0 2.265 1.406 3.535 1.426 1.27 3.985 1.27 2.539 0 3.964-1.27 1.446-1.27 1.446-3.535 0-2.266-1.446-3.535-1.425-1.27-3.964-1.27-2.559 0-3.985 1.27-1.406 1.27-1.406 3.535zM580.215 225.713q-2.813 0-4.434 1.504-1.601 1.504-1.601 4.14 0 2.637 1.601 4.141 1.621 1.504 4.434 1.504 2.812 0 4.433-1.504 1.622-1.523 1.622-4.14 0-2.637-1.622-4.141-1.601-1.504-4.433-1.504zm-3.945-1.68q-2.54-.625-3.965-2.363-1.407-1.738-1.407-4.238 0-3.496 2.48-5.528 2.5-2.031 6.837-2.031 4.355 0 6.836 2.031 2.48 2.032 2.48 5.528 0 2.5-1.426 4.238-1.406 1.738-3.925 2.363 2.851.664 4.433 2.598 1.602 1.933 1.602 4.726 0 4.239-2.598 6.504-2.578 2.266-7.402 2.266t-7.422-2.266q-2.578-2.265-2.578-6.504 0-2.793 1.601-4.726 1.602-1.934 4.454-2.598zm-1.446-6.23q0 2.265 1.406 3.535 1.426 1.27 3.985 1.27 2.539 0 3.965-1.27 1.445-1.27 1.445-3.535 0-2.266-1.445-3.535-1.426-1.27-3.965-1.27-2.559 0-3.985 1.27-1.406 1.27-1.406 3.535zM10.898 260.4h18.75v1.68l-10.585 27.48H14.94l9.961-25.84H10.898ZM49.297 273.838q2.832.605 4.414 2.52 1.602 1.913 1.602 4.726 0 4.316-2.97 6.68-2.968 2.363-8.437 2.363-1.836 0-3.789-.371-1.933-.352-4.004-1.074v-3.809q1.64.957 3.594 1.445 1.953.489 4.082.489 3.711 0 5.645-1.465 1.953-1.465 1.953-4.258 0-2.578-1.817-4.023-1.797-1.465-5.02-1.465h-3.398v-3.242h3.555q2.91 0 4.453-1.153 1.543-1.172 1.543-3.36 0-2.245-1.601-3.437-1.582-1.21-4.551-1.21-1.621 0-3.477.35-1.855.352-4.082 1.095v-3.516q2.246-.625 4.2-.937 1.972-.313 3.71-.313 4.493 0 7.11 2.05 2.617 2.032 2.617 5.509 0 2.422-1.387 4.101-1.387 1.66-3.945 2.305zM62.91 288.955v-3.594q1.485.703 3.008 1.075 1.523.37 2.988.37 3.906 0 5.957-2.617 2.07-2.636 2.364-7.988-1.133 1.68-2.872 2.578-1.738.899-3.847.899-4.375 0-6.934-2.637-2.539-2.656-2.539-7.246 0-4.492 2.656-7.207 2.657-2.715 7.07-2.715 5.06 0 7.716 3.887 2.675 3.867 2.675 11.25 0 6.894-3.28 11.015-3.263 4.102-8.79 4.102-1.484 0-3.008-.293-1.523-.293-3.164-.879zm7.852-12.363q2.656 0 4.199-1.817 1.562-1.816 1.562-4.98 0-3.145-1.562-4.961-1.543-1.836-4.2-1.836-2.656 0-4.218 1.836Q65 266.65 65 269.794q0 3.165 1.543 4.981 1.562 1.817 4.219 1.817zM100.195 273.838q2.832.605 4.414 2.52 1.602 1.913 1.602 4.726 0 4.316-2.969 6.68-2.969 2.363-8.437 2.363-1.836 0-3.79-.371-1.933-.352-4.003-1.074v-3.809q1.64.957 3.593 1.445 1.954.489 4.082.489 3.711 0 5.645-1.465 1.953-1.465 1.953-4.258 0-2.578-1.816-4.023-1.797-1.465-5.02-1.465h-3.398v-3.242h3.554q2.91 0 4.454-1.153 1.543-1.172 1.543-3.36 0-2.245-1.602-3.437-1.582-1.21-4.55-1.21-1.622 0-3.477.35-1.856.352-4.082 1.095v-3.516q2.246-.625 4.199-.937 1.972-.313 3.71-.313 4.493 0 7.11 2.05 2.617 2.032 2.617 5.509 0 2.422-1.386 4.101-1.387 1.66-3.946 2.305zM124.531 263.838l-9.96 15.566h9.96zm-1.035-3.438h4.961v19.004h4.16v3.282h-4.16v6.875h-3.926v-6.875h-13.164v-3.809zM148.066 273.408q-2.656 0-4.218 1.817-1.543 1.816-1.543 4.98 0 3.145 1.543 4.98 1.562 1.817 4.218 1.817 2.657 0 4.2-1.816 1.562-1.836 1.562-4.98 0-3.165-1.562-4.981-1.543-1.817-4.2-1.817zm7.832-12.363v3.594q-1.484-.703-3.007-1.075-1.504-.37-2.989-.37-3.906 0-5.976 2.636-2.051 2.637-2.344 7.969 1.152-1.7 2.89-2.598 1.739-.918 3.829-.918 4.394 0 6.933 2.676 2.559 2.656 2.559 7.246 0 4.492-2.656 7.207-2.657 2.715-7.07 2.715-5.06 0-7.735-3.867-2.676-3.887-2.676-11.25 0-6.914 3.281-11.016 3.282-4.121 8.81-4.121 1.483 0 2.987.293 1.524.293 3.164.879zM164.707 288.955v-3.594q1.484.703 3.008 1.075 1.523.37 2.988.37 3.906 0 5.957-2.617 2.07-2.636 2.363-7.988-1.132 1.68-2.87 2.578-1.739.899-3.848.899-4.375 0-6.934-2.637-2.539-2.656-2.539-7.246 0-4.492 2.656-7.207 2.657-2.715 7.07-2.715 5.06 0 7.715 3.887 2.676 3.867 2.676 11.25 0 6.894-3.281 11.015-3.262 4.102-8.79 4.102-1.483 0-3.007-.293-1.523-.293-3.164-.879zm7.852-12.363q2.656 0 4.199-1.817 1.562-1.816 1.562-4.98 0-3.145-1.562-4.961-1.543-1.836-4.2-1.836-2.656 0-4.218 1.836-1.543 1.816-1.543 4.96 0 3.165 1.543 4.981 1.562 1.817 4.219 1.817zM198.477 275.713q-2.813 0-4.434 1.504-1.602 1.504-1.602 4.14 0 2.637 1.602 4.141 1.621 1.504 4.434 1.504 2.812 0 4.433-1.504 1.621-1.523 1.621-4.14 0-2.637-1.62-4.141-1.602-1.504-4.434-1.504zm-3.946-1.68q-2.539-.625-3.965-2.363-1.406-1.738-1.406-4.238 0-3.496 2.48-5.528 2.5-2.03 6.837-2.03 4.355 0 6.835 2.03 2.481 2.032 2.481 5.528 0 2.5-1.426 4.238-1.406 1.738-3.926 2.363 2.852.664 4.434 2.598 1.602 1.933 1.602 4.726 0 4.239-2.598 6.504-2.578 2.266-7.402 2.266-4.825 0-7.422-2.266-2.578-2.265-2.578-6.504 0-2.793 1.601-4.726 1.602-1.934 4.453-2.598zm-1.445-6.23q0 2.265 1.406 3.535 1.426 1.27 3.985 1.27 2.539 0 3.964-1.27 1.446-1.27 1.446-3.535 0-2.266-1.446-3.535-1.425-1.27-3.964-1.27-2.559 0-3.985 1.27-1.406 1.27-1.406 3.535zM215.527 260.4h15.489v3.32H219.14v7.15q.859-.294 1.718-.43.86-.157 1.72-.157 4.882 0 7.734 2.676 2.851 2.676 2.851 7.246 0 4.707-2.93 7.324-2.93 2.598-8.261 2.598-1.836 0-3.75-.313-1.895-.312-3.926-.937v-3.965q1.758.957 3.633 1.426t3.965.469q3.378 0 5.351-1.778 1.973-1.777 1.973-4.824 0-3.047-1.973-4.824-1.973-1.777-5.351-1.777-1.582 0-3.165.351-1.562.352-3.203 1.094zM241.621 286.24h6.445v-22.246l-7.011 1.406v-3.593l6.972-1.407h3.946v25.84h6.445v3.32h-16.797zM277.227 263.838l-9.961 15.566h9.96zm-1.036-3.438h4.961v19.004h4.16v3.282h-4.16v6.875h-3.925v-6.875h-13.164v-3.809zM295.234 286.24h13.77v3.32h-18.516v-3.32q2.246-2.324 6.114-6.23 3.886-3.926 4.882-5.059 1.895-2.129 2.637-3.594.762-1.484.762-2.91 0-2.324-1.64-3.789-1.622-1.465-4.24-1.465-1.855 0-3.925.645-2.05.644-4.394 1.953v-3.984q2.382-.957 4.453-1.446 2.07-.488 3.789-.488 4.531 0 7.226 2.266 2.696 2.265 2.696 6.054 0 1.797-.684 3.418-.664 1.602-2.441 3.79-.489.566-3.106 3.28-2.617 2.696-7.383 7.56zM329.238 273.838q2.832.605 4.414 2.52 1.602 1.913 1.602 4.726 0 4.316-2.969 6.68-2.969 2.363-8.437 2.363-1.836 0-3.79-.371-1.933-.352-4.003-1.074v-3.809q1.64.957 3.593 1.445 1.954.489 4.082.489 3.711 0 5.645-1.465 1.953-1.465 1.953-4.258 0-2.578-1.816-4.023-1.797-1.465-5.02-1.465h-3.398v-3.242h3.554q2.91 0 4.454-1.153 1.543-1.172 1.543-3.36 0-2.245-1.602-3.437-1.582-1.21-4.55-1.21-1.622 0-3.477.35-1.856.352-4.082 1.095v-3.516q2.246-.625 4.199-.937 1.972-.313 3.71-.313 4.493 0 7.11 2.05 2.617 2.032 2.617 5.509 0 2.422-1.386 4.101-1.387 1.66-3.946 2.305zM346.133 286.24h13.77v3.32h-18.516v-3.32q2.246-2.324 6.113-6.23 3.887-3.926 4.883-5.059 1.894-2.129 2.637-3.594.761-1.484.761-2.91 0-2.324-1.64-3.789-1.621-1.465-4.239-1.465-1.855 0-3.925.645-2.051.644-4.395 1.953v-3.984q2.383-.957 4.453-1.446 2.07-.488 3.79-.488 4.53 0 7.226 2.266 2.695 2.265 2.695 6.054 0 1.797-.683 3.418-.665 1.602-2.442 3.79-.488.566-3.105 3.28-2.618 2.696-7.383 7.56zM368.3 288.955v-3.594q1.485.703 3.009 1.075 1.523.37 2.988.37 3.906 0 5.957-2.617 2.07-2.636 2.363-7.988-1.133 1.68-2.87 2.578-1.74.899-3.849.899-4.375 0-6.933-2.637-2.54-2.656-2.54-7.246 0-4.492 2.657-7.207 2.656-2.715 7.07-2.715 5.059 0 7.715 3.887 2.676 3.867 2.676 11.25 0 6.894-3.281 11.015-3.262 4.102-8.79 4.102-1.484 0-3.007-.293-1.524-.293-3.164-.879zm7.852-12.363q2.657 0 4.2-1.817 1.562-1.816 1.562-4.98 0-3.145-1.562-4.961-1.543-1.836-4.2-1.836-2.656 0-4.218 1.836-1.543 1.816-1.543 4.96 0 3.165 1.543 4.981 1.562 1.817 4.218 1.817zM397.031 286.24h13.77v3.32h-18.516v-3.32q2.246-2.324 6.113-6.23 3.887-3.926 4.883-5.059 1.895-2.129 2.637-3.594.762-1.484.762-2.91 0-2.324-1.64-3.789-1.622-1.465-4.24-1.465-1.855 0-3.925.645-2.05.644-4.395 1.953v-3.984q2.383-.957 4.454-1.446 2.07-.488 3.789-.488 4.53 0 7.226 2.266 2.696 2.265 2.696 6.054 0 1.797-.684 3.418-.664 1.602-2.441 3.79-.489.566-3.106 3.28-2.617 2.696-7.383 7.56zM428.008 273.408q-2.656 0-4.219 1.817-1.543 1.816-1.543 4.98 0 3.145 1.543 4.98 1.563 1.817 4.219 1.817 2.656 0 4.199-1.816 1.563-1.836 1.563-4.98 0-3.165-1.563-4.981-1.543-1.817-4.2-1.817zm7.832-12.363v3.594q-1.485-.703-3.008-1.075-1.504-.37-2.988-.37-3.906 0-5.977 2.636-2.05 2.637-2.344 7.969 1.153-1.7 2.891-2.598 1.738-.918 3.828-.918 4.395 0 6.934 2.676 2.558 2.656 2.558 7.246 0 4.492-2.656 7.207t-7.07 2.715q-5.059 0-7.735-3.867-2.675-3.887-2.675-11.25 0-6.914 3.28-11.016 3.282-4.121 8.81-4.121 1.484 0 2.988.293 1.523.293 3.164.879zM444.57 260.4h15.489v3.32h-11.875v7.15q.859-.294 1.718-.43.86-.157 1.72-.157 4.882 0 7.733 2.676 2.852 2.676 2.852 7.246 0 4.707-2.93 7.324-2.93 2.598-8.261 2.598-1.836 0-3.75-.313-1.895-.312-3.926-.937v-3.965q1.758.957 3.633 1.426t3.964.469q3.38 0 5.352-1.778 1.973-1.777 1.973-4.824 0-3.047-1.973-4.824-1.973-1.777-5.352-1.777-1.582 0-3.164.351-1.562.352-3.203 1.094zM470.02 260.4h15.488v3.32h-11.875v7.15q.86-.294 1.719-.43.859-.157 1.718-.157 4.883 0 7.735 2.676 2.851 2.676 2.851 7.246 0 4.707-2.93 7.324-2.93 2.598-8.261 2.598-1.836 0-3.75-.313-1.895-.312-3.926-.937v-3.965q1.758.957 3.633 1.426t3.965.469q3.379 0 5.351-1.778 1.973-1.777 1.973-4.824 0-3.047-1.973-4.824-1.972-1.777-5.351-1.777-1.582 0-3.164.351-1.563.352-3.203 1.094zM503.867 262.998q-3.047 0-4.59 3.008-1.523 2.988-1.523 9.004 0 5.996 1.523 9.004 1.543 2.988 4.59 2.988 3.067 0 4.59-2.988Q510 281.006 510 275.01q0-6.016-1.543-9.004-1.523-3.008-4.59-3.008zm0-3.125q4.903 0 7.48 3.887 2.598 3.867 2.598 11.25 0 7.363-2.597 11.25-2.578 3.867-7.48 3.867-4.903 0-7.5-3.867-2.579-3.887-2.579-11.25 0-7.383 2.578-11.25 2.598-3.887 7.5-3.887zM524.277 286.24h13.77v3.32H519.53v-3.32q2.246-2.324 6.114-6.23 3.886-3.926 4.882-5.059 1.895-2.129 2.637-3.594.762-1.484.762-2.91 0-2.324-1.64-3.789-1.622-1.465-4.24-1.465-1.855 0-3.925.645-2.05.644-4.394 1.953v-3.984q2.382-.957 4.453-1.446 2.07-.488 3.789-.488 4.531 0 7.226 2.266 2.696 2.265 2.696 6.054 0 1.797-.684 3.418-.664 1.602-2.441 3.79-.489.566-3.106 3.28-2.617 2.696-7.383 7.56zM557.168 263.838l-9.961 15.566h9.961zm-1.035-3.438h4.96v19.004h4.16v3.282h-4.16v6.875h-3.925v-6.875h-13.164v-3.809zM583.73 273.838q2.832.605 4.415 2.52 1.601 1.913 1.601 4.726 0 4.316-2.969 6.68-2.968 2.363-8.437 2.363-1.836 0-3.79-.371-1.933-.352-4.003-1.074v-3.809q1.64.957 3.594 1.445 1.953.489 4.082.489 3.71 0 5.644-1.465 1.953-1.465 1.953-4.258 0-2.578-1.816-4.023-1.797-1.465-5.02-1.465h-3.398v-3.242h3.555q2.91 0 4.453-1.153 1.543-1.172 1.543-3.36 0-2.245-1.602-3.437-1.582-1.21-4.55-1.21-1.622 0-3.477.35-1.856.352-4.082 1.095v-3.516q2.246-.625 4.199-.937 1.973-.313 3.71-.313 4.493 0 7.11 2.05 2.617 2.032 2.617 5.509 0 2.422-1.386 4.101-1.387 1.66-3.946 2.305z"/></g><g fill="none"><g stroke="#479a76" stroke-width="45" style="fill-rule:nonzero;stroke-linecap:butt;stroke-linejoin:miter;stroke-miterlimit:10;stroke-dasharray:none;stroke-dashoffset:0"><path d="M164.967 150c0-34.211 27.734-61.944 61.945-61.944 34.21 0 73.12 61.944 73.12 61.944s-38.91 61.944-73.12 61.944c-34.211 0-61.945-27.733-61.945-61.944z"/><path d="M373.088 211.944c-34.21 0-73.12-61.944-73.12-61.944s38.91-61.944 73.12-61.944c34.211 0 61.945 27.733 61.945 61.944s-27.734 61.944-61.945 61.944z" data-paper-data="{&quot;index&quot;:null}"/></g><g stroke="#fff" stroke-width="22.5" style="fill-rule:nonzero;stroke-linecap:butt;stroke-linejoin:miter;stroke-miterlimit:10;stroke-dasharray:none;stroke-dashoffset:0"><path d="M164.967 150c0-34.211 27.734-61.944 61.945-61.944 34.21 0 73.12 61.944 73.12 61.944s-38.91 61.944-73.12 61.944c-34.211 0-61.945-27.733-61.945-61.944z"/><path d="M373.088 211.944c-34.21 0-73.12-61.944-73.12-61.944s38.91-61.944 73.12-61.944c34.211 0 61.945 27.733 61.945 61.944s-27.734 61.944-61.945 61.944z" data-paper-data="{&quot;index&quot;:null}"/></g></g></svg>