<svg xmlns="http://www.w3.org/2000/svg" fill="none" stroke-linecap="square" stroke-miterlimit="10" viewBox="0 0 800 400"><defs><linearGradient id="a" x1="107.54330709" x2="107.5430965" y1="205.47819758" y2="263.65248462" gradientUnits="userSpaceOnUse"><stop offset="0%" stop-color="#fff" stop-opacity=".05"/><stop offset="100%" stop-color="#fff" stop-opacity="0"/></linearGradient></defs><path fill="#a4c2f4" fill-rule="evenodd" d="M0 0h800v400H0Z"/><path fill="#b4a7d6" fill-rule="evenodd" d="M372.005592 110.6618c0-10.709606 8.68185-19.39146 19.39145-19.39146h219.86276c5.14294 0 10.07519 2.043022 13.71179 5.679627 3.63666 3.636603 5.67963 8.568903 5.67963 13.711833v77.56352c0 10.70961-8.68183 19.39147-19.39142 19.39147h-219.86276c-10.7096 0-19.39145-8.68186-19.39145-19.39147z"/><path fill="#b6d7a8" fill-rule="evenodd" d="M158.386162 110.6618c0-10.709606 8.68185-19.39146 19.39146-19.39146h153.28006c5.14295 0 10.07523 2.043022 13.71183 5.679627 3.63662 3.636603 5.67965 8.568903 5.67965 13.711833v77.56352c0 10.70961-8.68185 19.39147-19.39148 19.39147h-153.28006c-10.70961 0-19.39146-8.68186-19.39146-19.39147z"/><path fill="#000" d="M98.364588 341.0126v-7.28125q4.312502-.0781 6.625002-.4375 2.32812-.35937 3.35937-1.59375 1.04688-1.25 1.25-3.89062.20313-2.64063.20313-7.28125v-34.5625h9.03125v31.92187q0 6.64063-.28125 10.96875-.28125 4.3125-1.28125 6.79688-1 2.48437-3.20313 3.60937-2.1875 1.10938-6 1.4375-3.79687.3125-9.703122.3125zm53.431852.64063q-2.95312 0-6.51562-.17188-3.5625-.15625-6.96875-.4375-3.39063-.26562-6.1875-.59375v-7.4375q2.875.23438 6.03125.48438 3.15625.23437 6.03125.35937 2.89062.10938 4.96875.10938 4.25 0 6.64062-.39063 2.40625-.40625 3.84375-1.28125.95313-.64062 1.39063-1.59375.45312-.96875.5625-2.28125.125-1.32812.125-2.92187 0-2.17188-.15625-3.60938t-.71875-2.23437q-.5625-.79688-1.76563-1.15625-1.20312-.35938-3.125-.60938l-13.10937-1.51562q-3.84375-.48438-6.28125-1.64063t-3.76563-3.07812q-1.3125-1.92188-1.79687-4.5625-.48438-2.64063-.48438-5.84375 0-5.35938 1.4375-8.46875 1.45313-3.125 4.125-4.76563 2.6875-1.64062 6.35938-2.15625 3.6875-.53125 8.15625-.53125 3.125 0 6.40625.20313 3.28125.20312 6.20312.48437 2.92188.28125 4.82813.76563v7.28125q-2-.32813-4.6875-.5625-2.67188-.25-5.54688-.35938-2.875-.125-5.35937-.125-4.15625 0-6.6875.35938-2.51563.35937-3.875 1.15625-1.59375.89062-1.92188 2.45312-.3125 1.54688-.3125 3.875 0 2.71875.35938 4.20313.35937 1.46875 1.67187 2.03125 1.32813.5625 4.04688.875l13.125 1.53125q2.46875.23437 4.46875.76562 2 .51563 3.5625 1.71875 1.5625 1.1875 2.4375 3.4375.5625 1.10938.84375 2.5625.28125 1.4375.48437 3.15625.20313 1.71875.20313 3.875 0 4.5625-.92188 7.60938-.92187 3.03125-2.5625 4.82812-1.64062 1.79688-4.04687 2.71875-2.39063.92188-5.28125 1.20313-2.875.28125-6.23438.28125zm52.24808 0q-6.5625 0-10.8125-.75-4.23438-.76563-6.71875-2.60938-2.46875-1.84375-3.59375-5.03125-1.125-3.20312-1.45313-8.04687-.3125-4.84375-.3125-11.71875 0-6.89063.3125-11.71875.32813-4.84375 1.45313-8.04688 1.125-3.20312 3.59375-5.03125 2.48437-1.84375 6.71875-2.60937 4.25-.76563 10.8125-.76563 6.54687 0 10.82812.76563 4.28125.76562 6.76563 2.60937 2.48437 1.82813 3.64062 5.03125 1.15625 3.20313 1.46875 8.04688.32813 4.82812.32813 11.71875 0 6.875-.32813 11.71875-.3125 4.84375-1.46875 8.04687-1.15625 3.1875-3.64062 5.03125-2.48438 1.84375-6.76563 2.60938-4.28125.75-10.82812.75zm0-7.6875q4 0 6.59375-.23438 2.59375-.23437 4.07812-1.1875 1.48438-.96875 2.20313-3.17187.71875-2.20313.92187-6 .20313-3.79688.20313-9.875 0-6.07813-.20313-9.875-.20312-3.8125-.92187-6-.71875-2.20313-2.20313-3.15625-1.48437-.96875-4.07812-1.20313-2.59375-.25-6.59375-.25-3.92188 0-6.48438.25-2.5625.23438-4.09375 1.20313-1.51562.95312-2.20312 3.15625-.67188 2.1875-.875 6-.1875 3.79687-.1875 9.875 0 6.07812.1875 9.875.20312 3.79687.875 6 .6875 2.20312 2.20312 3.17187 1.53125.95313 4.09375 1.1875 2.5625.23438 6.48438.23438zm35.91307 7.04687v-55.04687h9.35937l25.20313 38.09375h.3125v-38.09375h8.64062v55.04687h-8.64062l-25.92188-39.28125h-.3125v39.28125zm93.84805.64063q-5.20313 0-8.65625-.67188-3.4375-.6875-5.51563-2.25-2.07812-1.5625-3.125-4-1.03125-2.4375-1.35937-5.92187-.3125-3.48438-.3125-8.10938 0-5.53125.5625-9.53125t2.3125-6.59375q1.76562-2.60937 5.48437-3.79687 3.71875-1.20313 9.96875-1.20313 4.875 0 7.98438.76563 3.125.75 4.92187 2.35937 1.8125 1.59375 2.64063 4.10938.84375 2.51562 1.07812 6 .25 3.48437.25 7.89062v2.71875h-26.64062q0 3.59375.3125 5.79688.32812 2.20312 1.48437 3.35937t3.67188 1.59375q2.53125.4375 6.84375.4375 1.84375 0 4.04687-.0781 2.20313-.0781 4.51563-.3125 2.32812-.25 4.15625-.40625v6.64062q-1.75.32813-4.23438.59375-2.48437.28125-5.20312.4375-2.71875.17188-5.1875.17188zm8.07812-22.79688v-1.53125q0-3.59375-.45312-5.70312-.4375-2.125-1.4375-3.20313-1-1.09375-2.71875-1.45312-1.71875-.35938-4.28125-.35938-3.1875 0-5.07813.45313-1.875.4375-2.84375 1.64062-.95312 1.1875-1.3125 3.3125-.35937 2.125-.35937 5.5625h19.92187zm14.87433 22.15625 14.79688-20.71875-14.3125-20.07812h9.59375l9.84375 13.84375h.48437l9.90625-13.84375h9.125l-14.23437 20 14.875 20.79687h-9.59375l-10.48438-14.48437h-.48437l-10.39063 14.48437zm49.67996 0v-33.6875h-8.15625v-7.10937h8.15625v-11.84375h8.48438v11.84375h9.51562v7.10937h-9.51562v33.6875zm43.20749.64063q-5.20312 0-8.65625-.67188-3.4375-.6875-5.51562-2.25-2.07813-1.5625-3.125-4-1.03125-2.4375-1.35938-5.92187-.3125-3.48438-.3125-8.10938 0-5.53125.5625-9.53125t2.3125-6.59375q1.76563-2.60937 5.48438-3.79687 3.71875-1.20313 9.96875-1.20313 4.875 0 7.98437.76563 3.125.75 4.92188 2.35937 1.8125 1.59375 2.64062 4.10938.84375 2.51562 1.07813 6 .25 3.48437.25 7.89062v2.71875h-26.64063q0 3.59375.3125 5.79688.32813 2.20312 1.48438 3.35937t3.67187 1.59375q2.53125.4375 6.84375.4375 1.84375 0 4.04688-.0781 2.20312-.0781 4.51562-.3125 2.32813-.25 4.15625-.40625v6.64062q-1.75.32813-4.23437.59375-2.48438.28125-5.20313.4375-2.71875.17188-5.1875.17188zm8.07813-22.79688v-1.53125q0-3.59375-.45313-5.70312-.4375-2.125-1.4375-3.20313-1-1.09375-2.71875-1.45312-1.71875-.35938-4.28125-.35938-3.1875 0-5.07812.45313-1.875.4375-2.84375 1.64062-.95313 1.1875-1.3125 3.3125-.35938 2.125-.35938 5.5625h19.92188zm19.18683 22.15625v-40.79687h7.84375l.25 5.4375h.64062q.95313-2 2.54688-3.3125 1.60937-1.32813 4.15625-2.04688 2.5625-.71875 6.25-.71875 4.3125 0 6.95312 1 2.64063 1 4 3 1.35938 2 1.875 4.96875.53125 2.95313.53125 6.95313v25.51562h-8.5625v-22.15625q0-4-.28125-6.35937-.28125-2.35938-1.15625-3.51563-.875-1.17187-2.59375-1.48437-1.71875-.32813-4.60937-.32813-3.20313 0-5.07813.8125-1.875.79688-2.79687 2.39063-.92188 1.59375-1.20313 4t-.28125 5.59375v21.04687zm61.92993.64063q-2.40625 0-5.17188-.17188-2.75-.15625-5.39062-.39062-2.64063-.23438-4.71875-.5625v-6.71875q1.35937.0781 3.07812.25 1.71875.15625 3.64063.23437 1.92187.0781 3.75.15625 1.84375.0781 3.60937.0781 3.84375 0 5.5625-.46875 1.71875-.48438 2.23438-1.64063.53125-1.17187.53125-3 0-2.09375-.375-3.04687-.35938-.95313-1.3125-1.26563-.95313-.32812-2.95313-.57812l-9.92187-1.20313q-3.84375-.39062-5.8125-1.78125-1.95313-1.40625-2.64063-3.84375-.67187-2.45312-.67187-5.96875 0-4.07812 1.15625-6.51562t3.28125-3.64063q2.125-1.20312 5.15625-1.59375 3.04687-.40625 6.64062-.40625 2.25 0 4.6875.15625t4.71875.4375q2.28125.28125 3.95313.60938v6.71875q-1.90625-.25-4.15625-.40625-2.23438-.15625-4.4375-.26563-2.20313-.125-4.20313-.125-2.95312 0-4.875.28125-1.92187.26563-2.84375 1.26563-.92187 1-.92187 3.40625 0 1.84375.28125 2.76562.28125.90625 1.20312 1.28125.92188.35938 2.84375.59375l10.71875 1.28125q3.03125.3125 4.90625 1.23438 1.89063.92187 2.8125 3.28125.92188 2.35937.92188 7.15625 0 4-1 6.45312-1 2.4375-3 3.76563-2 1.3125-4.84375 1.75t-6.4375.4375zm25.43371-51.6875v-8.39063h8.89063v8.39063zm.15625 51.04687v-40.79687h8.48438v40.79687zm37.76062.64063q-5.10937 0-8.51562-.64063-3.39063-.64062-5.35938-2.03125-1.95312-1.40625-2.875-3.79687-.92187-2.40625-1.20312-6-.28125-3.60938-.28125-8.65625 0-4.95313.28125-8.54688.28125-3.60937 1.20312-6 .92188-2.40625 2.875-3.79687 1.96875-1.40625 5.35938-2 3.40625-.60938 8.51562-.60938 5.20313 0 8.59375.60938 3.40625.59375 5.35938 2 1.96875 1.39062 2.89062 3.79687.92188 2.39063 1.20313 6 .28125 3.59375.28125 8.54688 0 5.04687-.28125 8.65625-.28125 3.59375-1.20313 6-.92187 2.39062-2.89062 3.79687-1.95313 1.39063-5.35938 2.03125-3.39062.64063-8.59375.64063zm0-7.125q3.6875 0 5.6875-.46875 2-.48438 2.82813-1.92188.84375-1.4375 1.04687-4.23437.20313-2.8125.20313-7.375t-.20313-7.3125q-.20312-2.76563-1.04687-4.20313-.82813-1.4375-2.82813-1.875-2-.4375-5.6875-.4375-3.59375 0-5.59375.4375t-2.84375 1.875q-.82812 1.4375-1.03125 4.20313-.20312 2.75-.20312 7.3125t.20312 7.375q.20313 2.79687 1.03125 4.23437.84375 1.4375 2.84375 1.92188 2 .46875 5.59375.46875zm29.35932 6.48437v-40.79687h7.84375l.25 5.4375h.64062q.95313-2 2.54688-3.3125 1.60937-1.32813 4.15625-2.04688 2.5625-.71875 6.25-.71875 4.3125 0 6.95312 1 2.64063 1 4 3 1.35938 2 1.875 4.96875.53125 2.95313.53125 6.95313v25.51562h-8.5625v-22.15625q0-4-.28125-6.35937-.28125-2.35938-1.15625-3.51563-.875-1.17187-2.59375-1.48437-1.71875-.32813-4.60937-.32813-3.20313 0-5.07813.8125-1.875.79688-2.79687 2.39063-.92188 1.59375-1.20313 4t-.28125 5.59375v21.04687z"/><path d="M116.72211 85.13386h584.9133v116.34646h-584.9133z"/><path fill="#000" d="M153.80024 187.01198h-.48438q-.23437 0-.54687-.0781-6-1.20312-9.20313-3.35937-3.20312-2.15625-4.40625-5.20313-1.20312-3.03125-1.20312-6.875l.17187-7.6875q0-3.03125-.92187-5.1875-.92187-2.17187-2.64062-3.32812-1.71875-1.15625-4.20313-1.23438h-.40625q-1.28125 0-2.20312-.875-.90625-.89062-.90625-2.25 0-1.35937.90625-2.23437.92187-.89063 2.20312-.89063h.48438q2.48437-.15625 4.20312-1.26562 1.71875-1.125 2.59375-3.28125.89062-2.17188.89062-5.20313l-.17187-7.6875q0-3.125.79687-5.64062.8125-2.51563 2.53125-4.35938t4.54688-3.20312q2.84375-1.35938 6.9375-2.23438 2-.40625 2.90625.59375.92187 1 .92187 2.35938 0 .89062-.64062 1.65625-.64063.75-1.67188 1.07812-3.76562 1.26563-5.64062 2.67188-1.875 1.40625-2.51563 3.375-.64062 1.95312-.64062 4.82812l.15625 7.75q0 4.73438-2.20313 7.6875-2.20312 2.95313-6.125 4.15625v-.3125q3.92188 1.20313 6.125 4.15625 2.20313 2.95313 2.20313 7.6875l-.15625 7.75q0 2.79688.64062 4.75.64063 1.96875 2.51563 3.35938 1.875 1.40625 5.64062 2.76562 2.39063.89063 2.3125 2.96875 0 1.125-.84375 1.95313-.82812.84375-1.95312.84375zm10.15935-51.82813-1.89063-10.54687v-9.0625h7.75v9.0625l-1.70312 10.54687zm12.5 0-1.85938-10.54687v-9.0625h7.75v9.0625l-1.8125 10.54687zm19.74685 35.75q-1.67188 0-2.84375-1.15625-1.15625-1.15625-1.15625-2.92188v-51.04687q0-1.75 1.15625-2.90625 1.17187-1.17187 2.84375-1.17187 1.76562 0 2.875 1.17187 1.125 1.15625 1.125 2.90625v51.04687q0 1.76563-1.125 2.92188-1.10938 1.15625-2.875 1.15625zm26.07812-42.23438q1.53125 0 2.64063 1.28125 1.125 1.26563 1.125 2.54688 0 1.60937-1.51563 2.96875l-25.04687 22.39062-.3125-9.1875 20.15625-18.71875q1.28125-1.28125 2.95312-1.28125zm.96875 42.15625q-1.6875 0-2.875-1.35937l-16-16.875 6.07813-5.60938 15.59375 16.875q1.28125 1.35938 1.28125 3.04688 0 1.76562-1.40625 2.84375-1.39063 1.07812-2.67188 1.07812zm30.80184.875q-6.64063 0-11.53125-2.75-4.875-2.76562-7.5625-7.60937-2.67188-4.84375-2.67188-11.07813 0-7.04687 2.84375-12.04687t7.39063-7.67188q4.5625-2.68749 9.6875-2.68749 3.92187 0 7.4375 1.56249 3.51562 1.5625 6.28125 4.32813 2.76562 2.75 4.35937 6.48437 1.60938 3.71875 1.6875 8.10938-.0781 1.60937-1.28125 2.65625-1.20312 1.03125-2.79687 1.03125h-31.125l-1.92188-6.8125h30.07813l-1.51563 1.45312v-2q-.15625-2.8125-1.84375-4.92187-1.67187-2.125-4.15625-3.28125-2.48437-1.15625-5.20312-1.15625-2.40625 0-4.60938.76562-2.1875.75-3.90625 2.4375-1.71875 1.67188-2.71875 4.4375-1 2.75-1 6.82813 0 4.40625 1.82813 7.6875 1.84375 3.28125 4.96875 5.07812 3.125 1.79688 6.875 1.79688 2.96875 0 4.875-.59375 1.92187-.60938 3.20312-1.48438 1.28125-.875 2.25-1.67187 1.1875-.73438 2.39063-.73438 1.4375 0 2.39062 1 .96875 1 .96875 2.35938 0 1.76562-1.75 3.20312-2.17187 2.07813-5.96875 3.6875-3.79687 1.59375-7.95312 1.59375zM311.887 128.5276q1.76562 0 2.875 1.17187 1.125 1.15625 1.125 2.92188v34.39062q0 7.04688-2.6875 11.4375-2.67188 4.40625-7.1875 6.4375-4.51563 2.04688-10.20313 2.04688-2.875 0-5.76562-.53125-2.875-.51563-4.71875-1.46875-1.90625-.875-2.71875-2.15625-.79688-1.28125-.23438-2.79688.5625-1.92187 1.92188-2.60937 1.35937-.67188 2.79687-.125 1.35938.5625 3.59375 1.4375 2.25.89062 5.125.89062 3.92188 0 6.64063-1.28125t4.10937-4q1.40625-2.71875 1.40625-7.04687v-5.51563l1.28125 1.92188q-1.28125 2.64062-3.35937 4.40625-2.07813 1.75-4.92188 2.71875-2.82812.95312-6.26562.95312-4.40625 0-7.57813-1.95312-3.15625-1.96875-4.84375-5.4375-1.67187-3.48438-1.67187-7.96875v-23.75q0-1.76563 1.125-2.92188 1.125-1.17187 2.875-1.17187 1.6875 0 2.84375 1.17187 1.15625 1.15625 1.15625 2.92188v21.59375q0 5.28125 2.3125 7.71875 2.32812 2.4375 6.89062 2.4375 3.04688 0 5.28125-1.28125 2.23438-1.28125 3.51563-3.5625t1.28125-5.3125v-21.59375q0-1.76563 1.15625-2.92188 1.17187-1.17187 2.84375-1.17187zm15.04245 6.65625-1.89063-10.54687v-9.0625h7.75v9.0625l-1.70312 10.54687zm12.5 0-1.85938-10.54687v-9.0625h7.75v9.0625l-1.8125 10.54687zm18.87186 3.75q-2 0-3.07813-1.07813-1.07812-1.07812-1.07812-3.07812v-1.53125q0-2 1.07812-3.10938 1.07813-1.125 3.07813-1.125h.875q2 0 3.03125 1.125 1.04687 1.10938 1.04687 3.10938v1.53125q0 2-1.04687 3.07812-1.03125 1.07813-3.03125 1.07813zm0 32q-2 0-3.07813-1.10938-1.07812-1.125-1.07812-3.125v-1.45312q0-2.07813 1.07812-3.15625 1.07813-1.07813 3.07813-1.07813h.875q2 0 3.03125 1.07813 1.04687 1.07812 1.04687 3.15625v1.45312q0 2-1.04687 3.125-1.03125 1.10938-3.03125 1.10938zm15.5981-35.75-1.89063-10.54687v-9.0625h7.75v9.0625l-1.70312 10.54687zm12.5 0-1.85938-10.54687v-9.0625h7.75v9.0625l-1.8125 10.54687zm16.07496-6.73437q1.20313 0 2.28125.64062 1.07813.64063 1.5625 1.92188l12.54688 29.04687-1.51563.71875 12.71875-29.6875q1.125-2.64062 3.60938-2.5625 1.59375 0 2.67187 1 1.07813 1 1.07813 2.60938 0 .48437-.15625 1-.15625.51562-.40625 1l-15.1875 34.23437q-1.04688 2.40625-3.45313 2.5625-1.1875.15625-2.35937-.51562-1.15625-.6875-1.79688-2.04688l-15.10937-34.23437q-.17188-.32813-.32813-.84375-.15625-.51563-.15625-1.23438 0-1.20312 1.07813-2.40625 1.07812-1.20312 2.92187-1.20312zm77.43558-.23438q1.76563 0 2.875 1.15625 1.125 1.15625 1.125 2.92188v34.5625q0 1.76562-1.125 2.92187-1.10937 1.15625-2.875 1.15625-1.67187 0-2.84375-1.15625-1.15625-1.15625-1.15625-2.92187v-5.76563l1.6875.25q0 1.4375-1.17187 3.20313-1.15625 1.75-3.15625 3.39062-2 1.64063-4.71875 2.71875-2.71875 1.07813-5.84375 1.07813-5.51563 0-9.92188-2.82813-4.39062-2.84375-6.95312-7.79687-2.5625-4.96875-2.5625-11.29688 0-6.46875 2.5625-11.39062 2.5625-4.92188 6.92187-7.71875 4.35938-2.8125 9.71875-2.8125 3.4375 0 6.35938 1.125 2.92187 1.125 5.07812 2.89062 2.15625 1.75 3.3125 3.71875 1.17188 1.95313 1.17188 3.71875l-2.48438.23438v-7.28125q0-1.67188 1.15625-2.875 1.17188-1.20313 2.84375-1.20313zm-16.3125 36.15625q3.75 0 6.625-1.92187 2.89063-1.92188 4.48438-5.23438 1.60937-3.32812 1.60937-7.40625 0-4.15625-1.60937-7.4375-1.59375-3.28125-4.48438-5.20312-2.875-1.92188-6.625-1.92188-3.6875 0-6.53125 1.92188-2.82812 1.92187-4.46875 5.20312-1.64062 3.28125-1.64062 7.4375 0 4.07813 1.64062 7.40625 1.64063 3.3125 4.46875 5.23438 2.84375 1.92187 6.53125 1.92187zm40.14871 2.48438q0 1.76562-1.15625 2.92187-1.15625 1.15625-2.84375 1.15625-1.67187 0-2.84375-1.15625-1.15625-1.15625-1.15625-2.92187v-51.04688q0-1.75 1.20313-2.90625 1.20312-1.17187 2.875-1.17187 1.76562 0 2.84375 1.17187 1.07812 1.15625 1.07812 2.90625zm42.87876-38q1.6875 0 2.84375 1.15625t1.15625 2.92187v21.04688q0 8.3125-4.64063 13-4.625 4.67187-13.10937 4.67187-8.40625 0-13.01566-4.67187-4.59375-4.6875-4.59375-13v-21.04688q0-1.76562 1.125-2.92187 1.125-1.15625 2.875-1.15625 1.6875 0 2.84378 1.15625 1.15625 1.15625 1.15625 2.92187v21.04688q0 5.1875 2.4375 7.75 2.45313 2.5625 7.17188 2.5625 4.79687 0 7.26562-2.5625 2.48438-2.5625 2.48438-7.75v-21.04688q0-1.76562 1.125-2.92187 1.125-1.15625 2.875-1.15625zm34.72992 42.875q-6.64063 0-11.53125-2.75-4.875-2.76563-7.5625-7.60938-2.67188-4.84375-2.67188-11.07812 0-7.04688 2.84375-12.04688t7.39063-7.67187q4.5625-2.6875 9.6875-2.6875 3.92187 0 7.4375 1.5625 3.51562 1.5625 6.28125 4.32812 2.76562 2.75 4.35937 6.48438 1.60938 3.71875 1.6875 8.10937-.0781 1.60938-1.28125 2.65625-1.20312 1.03125-2.79687 1.03125h-31.125l-1.92188-6.8125h30.07813l-1.51563 1.45313v-2q-.15625-2.8125-1.84375-4.92188-1.67187-2.125-4.15625-3.28125-2.48437-1.15625-5.20312-1.15625-2.40625 0-4.60938.76563-2.1875.75-3.90625 2.4375-1.71875 1.67187-2.71875 4.4375-1 2.75-1 6.82812 0 4.40625 1.82813 7.6875 1.84375 3.28125 4.96875 5.07813 3.125 1.79687 6.875 1.79687 2.96875 0 4.875-.59375 1.92187-.60937 3.20312-1.48437 1.28125-.875 2.25-1.67188 1.1875-.73437 2.39063-.73437 1.4375 0 2.39062 1 .96875 1 .96875 2.35937 0 1.76563-1.75 3.20313-2.17187 2.07812-5.96875 3.6875-3.79687 1.59375-7.95312 1.59375zm26.79437-36.54688-1.89062-10.54687v-9.0625h7.75v9.0625l-1.70313 10.54687zm12.5 0-1.85937-10.54687v-9.0625h7.75v9.0625l-1.8125 10.54687zm14.15314 51.82813q-1.35937 0-2.04687-1.125-.67188-1.10938-.67188-2 0-.95313.64063-1.67188.64062-.71875 1.67187-1.04687 3.84375-1.28125 5.6875-2.6875 1.84375-1.39063 2.48438-3.39063.64062-2 .64062-4.79687l-.17187-7.76563q0-4.79687 2.23437-7.71875 2.25-2.92187 6.09375-4.10937v.23437q-3.84375-1.20312-6.09375-4.125-2.23437-2.92187-2.23437-7.71875l.17187-7.67187q0-2.96875-.64062-4.84375-.64063-1.875-2.53125-3.35938-1.875-1.48437-5.64063-2.6875-2.39062-.875-2.3125-3.03125.0781-1.125.875-1.95312.79688-.84375 1.92188-.84375.23437 0 .51562.0469.28125.0312.53125.0312 6 1.20313 9.1875 3.35938 3.20313 2.15625 4.40625 5.23437 1.20313 3.07813 1.20313 6.84375l-.15625 7.76563q0 3.03125.90625 5.20312.92187 2.15625 2.6875 3.3125 1.76562 1.15625 4.15625 1.15625h.40625q1.28125 0 2.20312.92188.92188.92187.92188 2.28125 0 1.35937-.92188 2.25-.92187.875-2.20312.875h-.48438q-2.48437.0781-4.20312 1.23437-1.71875 1.15625-2.59375 3.28125t-.875 5.23438l.15625 7.6875q0 2.79687-.6875 5.15625-.67188 2.35937-2.3125 4.20312-1.64063 1.84375-4.53125 3.35938-2.875 1.51562-7.26563 2.71875-.25.0781-.48437.10937-.23438.0469-.64063.0469z"/></svg>