<svg version="1.1" viewBox="0.0 0.0 600.0 300.0" fill="none" stroke="none" stroke-linecap="square" stroke-miterlimit="10" xmlns:xlink="http://www.w3.org/1999/xlink" xmlns="http://www.w3.org/2000/svg"><clipPath id="p.0"><path d="m0 0l600.0 0l0 300.0l-600.0 0l0 -300.0z" clip-rule="nonzero"/></clipPath><g clip-path="url(#p.0)"><path fill="#000000" fill-opacity="0.0" d="m0 0l600.0 0l0 300.0l-600.0 0z" fill-rule="evenodd"/><path fill="#3d85c6" d="m-4.5826774 -3.2755907l609.1654 0l0 306.5512l-609.1654 0z" fill-rule="evenodd"/><path fill="#6fa8dc" d="m-4.5839896 -3.2755907l613.09985 0l0 216.42043c-306.54993 0 -306.54993 82.460175 -613.09985 35.607803z" fill-rule="evenodd"/><path fill="#9fc5e8" d="m-4.5826774 -3.2755907l613.09985 0l0 184.377c-306.5499 0 -306.5499 70.25102 -613.09985 30.335678z" fill-rule="evenodd"/><path fill="#cfe2f3" d="m-4.5826774 -3.2755907l613.09985 0l0 152.33357c-306.5499 0 -306.5499 58.0419 -613.09985 25.063553z" fill-rule="evenodd"/><path fill="#000000" fill-opacity="0.0" d="m66.485565 77.74278l470.9606 0l0 67.87401l-470.9606 0z" fill-rule="evenodd"/><path fill="#434343" d="m133.83319 129.93979q-3.453125 0 -6.140625 -1.5q-2.6875 -1.515625 -4.203125 -4.203125q-1.5 -2.6875 -1.5 -6.140625q0 -1.140625 0.734375 -1.84375q0.75 -0.71875 1.828125 -0.71875q1.140625 0 1.84375 0.71875q0.71875 0.703125 0.71875 1.84375q0 2.125 0.859375 3.75q0.875 1.625 2.375 2.546875q1.5 0.90625 3.484375 0.90625q1.96875 0 3.5 -0.90625q1.53125 -0.921875 2.390625 -2.546875q0.859375 -1.625 0.859375 -3.75l0 -24.609375q0 -1.140625 0.71875 -1.859375q0.71875 -0.71875 1.796875 -0.71875q1.140625 0 1.875 0.71875q0.75 0.71875 0.75 1.859375l0 24.609375q0 3.453125 -1.53125 6.140625q-1.53125 2.6875 -4.203125 4.203125q-2.65625 1.5 -6.15625 1.5zm33.988754 0q-3.15625 0 -6.03125 -0.984375q-2.859375 -1.0 -4.984375 -2.765625q-2.109375 -1.78125 -3.09375 -4.09375q-0.5 -1.046875 0.015625 -1.921875q0.515625 -0.890625 1.75 -1.140625q0.890625 -0.203125 1.75 0.265625q0.875 0.46875 1.3125 1.40625q0.59375 1.234375 1.953125 2.28125q1.359375 1.03125 3.28125 1.671875q1.921875 0.640625 4.046875 0.640625q2.359375 0 4.359375 -0.734375q2.0 -0.75 3.234375 -2.15625q1.234375 -1.40625 1.234375 -3.46875q0 -2.625 -2.046875 -4.6875q-2.046875 -2.078125 -6.734375 -2.578125q-6.125 -0.578125 -9.625 -3.59375q-3.5 -3.015625 -3.5 -7.453125q0 -3.25 1.828125 -5.515625q1.828125 -2.265625 4.953125 -3.453125q3.140625 -1.1875 6.984375 -1.1875q3.0 0 5.25 0.84375q2.25 0.828125 3.921875 2.3125q1.671875 1.484375 2.90625 3.5q0.6875 1.09375 0.5625 2.0625q-0.109375 0.953125 -0.953125 1.484375q-0.9375 0.59375 -2.03125 0.25q-1.078125 -0.34375 -1.625 -1.28125q-0.78125 -1.421875 -1.921875 -2.40625q-1.125 -1.0 -2.65625 -1.5625q-1.53125 -0.5625 -3.609375 -0.5625q-3.640625 -0.046875 -6.109375 1.359375q-2.46875 1.40625 -2.46875 4.3125q0 1.46875 0.765625 2.828125q0.765625 1.359375 2.8125 2.34375q2.046875 0.984375 5.890625 1.390625q5.875 0.59375 9.15625 3.578125q3.28125 2.984375 3.28125 7.859375q0 2.8125 -1.171875 4.890625q-1.15625 2.0625 -3.109375 3.46875q-1.9375 1.40625 -4.4375 2.109375q-2.484375 0.6875 -5.140625 0.6875zm39.50023 0q-4.328125 0 -7.9375 -1.453125q-3.59375 -1.46875 -6.1875 -4.09375q-2.59375 -2.640625 -4.03125 -6.265625q-1.421875 -3.640625 -1.421875 -7.96875q0 -4.34375 1.421875 -7.9375q1.4375 -3.609375 4.03125 -6.25q2.59375 -2.640625 6.1875 -4.09375q3.609375 -1.453125 7.9375 -1.453125q4.34375 0 7.921875 1.453125q3.578125 1.453125 6.1875 4.09375q2.625 2.640625 4.046875 6.25q1.4375 3.59375 1.4375 7.9375q0 4.328125 -1.4375 7.96875q-1.421875 3.625 -4.046875 6.265625q-2.609375 2.625 -6.1875 4.09375q-3.578125 1.453125 -7.921875 1.453125zm0 -4.640625q3.21875 0 5.90625 -1.15625q2.6875 -1.171875 4.65625 -3.21875q1.96875 -2.046875 3.03125 -4.796875q1.0625 -2.765625 1.0625 -5.96875q0 -3.21875 -1.0625 -5.96875q-1.0625 -2.765625 -3.03125 -4.8125q-1.96875 -2.046875 -4.65625 -3.171875q-2.6875 -1.140625 -5.90625 -1.140625q-3.203125 0 -5.890625 1.140625q-2.6875 1.125 -4.640625 3.171875q-1.9375 2.046875 -3.03125 4.8125q-1.078125 2.75 -1.078125 5.96875q0 3.203125 1.078125 5.96875q1.09375 2.75 3.03125 4.796875q1.953125 2.046875 4.640625 3.21875q2.6875 1.15625 5.890625 1.15625zm30.149918 4.140625q-1.09375 0 -1.8125 -0.734375q-0.703125 -0.75 -0.703125 -1.828125l0 -33.390625q0 -1.140625 0.703125 -1.859375q0.71875 -0.71875 1.8125 -0.71875q1.171875 0 1.96875 0.9375l21.499985 28.609375l0 -26.96875q0 -1.140625 0.734375 -1.859375q0.75 -0.71875 1.84375 -0.71875q1.125 0 1.8125 0.71875q0.703125 0.71875 0.703125 1.859375l0 33.390625q0 1.078125 -0.703125 1.828125q-0.6875 0.734375 -1.8125 0.734375q-0.5 0 -1.078125 -0.21875q-0.5625 -0.21875 -0.90625 -0.671875l-21.499985 -28.609375l0 26.9375q0 1.078125 -0.71875 1.828125q-0.71875 0.734375 -1.84375 0.734375z" fill-rule="nonzero"/><path fill="#000000" d="m296.19687 129.64291q-3.234375 0 -5.734375 -1.421875q-2.5 -1.421875 -3.921875 -3.9375q-1.421875 -2.53125 -1.421875 -5.765625q0 -3.28125 1.34375 -5.78125q1.34375 -2.5 3.703125 -3.9375q2.359375 -1.4375 5.4375 -1.4375q3.03125 0 5.296875 1.390625q2.265625 1.375 3.5 3.8125q1.234375 2.4375 1.234375 5.5625q0 0.625 -0.40625 1.015625q-0.390625 0.375 -1.03125 0.375l-17.0 0l0 -2.5625l17.328125 0l-1.71875 1.25q0.03125 -2.328125 -0.84375 -4.15625q-0.875 -1.84375 -2.5 -2.875q-1.625 -1.046875 -3.859375 -1.046875q-2.28125 0 -4.0 1.078125q-1.71875 1.078125 -2.671875 2.984375q-0.9375 1.890625 -0.9375 4.328125q0 2.4375 1.0625 4.328125q1.0625 1.875 2.90625 2.953125q1.84375 1.078125 4.234375 1.078125q1.4375 0 2.890625 -0.5q1.46875 -0.5 2.359375 -1.25q0.4375 -0.375 0.984375 -0.390625q0.5625 -0.015625 0.96875 0.296875q0.515625 0.484375 0.53125 1.046875q0.03125 0.5625 -0.453125 0.953125q-1.3125 1.125 -3.359375 1.875q-2.03125 0.734375 -3.921875 0.734375zm29.919373 -0.203125q-0.46875 0 -0.78125 -0.15625q-0.296875 -0.15625 -0.609375 -0.5625l-6.921875 -8.796875l-1.203125 -1.046875l-6.953125 -8.84375q-0.453125 -0.515625 -0.4375 -1.078125q0.03125 -0.5625 0.390625 -0.96875q0.359375 -0.421875 1.046875 -0.421875q0.671875 0 1.15625 0.46875l6.71875 8.609375l1.078125 0.875l7.4375 9.515625q0.515625 0.640625 0.4375 1.203125q-0.078125 0.5625 -0.5 0.890625q-0.421875 0.3125 -0.859375 0.3125zm-15.828125 0q-0.640625 0 -1.03125 -0.390625q-0.375 -0.40625 -0.40625 -0.96875q-0.015625 -0.5625 0.4375 -1.078125l7.359375 -9.203125l1.71875 2.28125l-7.0 8.875q-0.359375 0.484375 -1.078125 0.484375zm9.359375 -10.40625l-1.96875 -2.0l6.921875 -8.75q0.28125 -0.40625 0.609375 -0.5625q0.34375 -0.15625 0.71875 -0.15625q0.671875 0 1.03125 0.421875q0.359375 0.40625 0.34375 1.0q-0.015625 0.578125 -0.421875 1.09375l-7.234375 8.953125zm21.669983 10.40625q-2.109375 0 -3.78125 -1.0q-1.65625 -1.0 -2.625 -2.734375q-0.953125 -1.75 -0.953125 -3.984375l0 -19.5625q0 -0.671875 0.421875 -1.109375q0.421875 -0.453125 1.09375 -0.453125q0.6875 0 1.125 0.453125q0.4375 0.4375 0.4375 1.109375l0 19.5625q0 2.03125 1.203125 3.34375q1.203125 1.296875 3.078125 1.296875l1.078125 0q0.640625 0 1.046875 0.4375q0.40625 0.4375 0.40625 1.125q0 0.671875 -0.484375 1.09375q-0.484375 0.421875 -1.203125 0.421875l-0.84375 0zm-9.953125 -18.40625q-0.609375 0 -1.015625 -0.375q-0.390625 -0.375 -0.390625 -0.9375q0 -0.59375 0.390625 -0.96875q0.40625 -0.390625 1.015625 -0.390625l10.203125 0q0.59375 0 0.984375 0.390625q0.40625 0.375 0.40625 0.96875q0 0.5625 -0.40625 0.9375q-0.390625 0.375 -0.984375 0.375l-10.203125 0zm27.392487 18.609375q-3.234375 0 -5.734375 -1.421875q-2.5 -1.421875 -3.921875 -3.9375q-1.421875 -2.53125 -1.421875 -5.765625q0 -3.28125 1.34375 -5.78125q1.34375 -2.5 3.703125 -3.9375q2.359375 -1.4375 5.4375 -1.4375q3.03125 0 5.296875 1.390625q2.265625 1.375 3.5 3.8125q1.234375 2.4375 1.234375 5.5625q0 0.625 -0.40625 1.015625q-0.390625 0.375 -1.03125 0.375l-17.0 0l0 -2.5625l17.328125 0l-1.71875 1.25q0.03125 -2.328125 -0.84375 -4.15625q-0.875 -1.84375 -2.5 -2.875q-1.625 -1.046875 -3.859375 -1.046875q-2.28125 0 -4.0 1.078125q-1.71875 1.078125 -2.671875 2.984375q-0.9375 1.890625 -0.9375 4.328125q0 2.4375 1.0625 4.328125q1.0625 1.875 2.90625 2.953125q1.84375 1.078125 4.234375 1.078125q1.4375 0 2.890625 -0.5q1.46875 -0.5 2.359375 -1.25q0.4375 -0.375 0.984375 -0.390625q0.5625 -0.015625 0.96875 0.296875q0.515625 0.484375 0.53125 1.046875q0.03125 0.5625 -0.453125 0.953125q-1.3125 1.125 -3.359375 1.875q-2.03125 0.734375 -3.921875 0.734375zm33.403717 -0.203125q-0.671875 0 -1.125 -0.4375q-0.4375 -0.4375 -0.4375 -1.078125l0 -10.40625q0 -2.484375 -0.9375 -4.078125q-0.9375 -1.59375 -2.5625 -2.390625q-1.609375 -0.8125 -3.65625 -0.8125q-1.953125 0 -3.546875 0.765625q-1.578125 0.75 -2.5 2.078125q-0.90625 1.3125 -0.90625 3.0l-2.203125 0q0.078125 -2.515625 1.359375 -4.5q1.28125 -1.984375 3.390625 -3.125q2.125 -1.140625 4.71875 -1.140625q2.84375 0 5.078125 1.1875q2.25 1.171875 3.546875 3.453125q1.296875 2.28125 1.296875 5.5625l0 10.40625q0 0.640625 -0.4375 1.078125q-0.4375 0.4375 -1.078125 0.4375zm-17.203125 0q-0.71875 0 -1.140625 -0.421875q-0.421875 -0.421875 -0.421875 -1.09375l0 -18.796875q0 -0.734375 0.421875 -1.140625q0.421875 -0.421875 1.140625 -0.421875q0.6875 0 1.109375 0.421875q0.421875 0.40625 0.421875 1.140625l0 18.796875q0 0.671875 -0.421875 1.09375q-0.421875 0.421875 -1.109375 0.421875zm33.15811 0.203125q-2.359375 0 -4.6875 -0.796875q-2.3125 -0.8125 -3.75 -2.40625q-0.4375 -0.484375 -0.359375 -1.078125q0.078125 -0.609375 0.609375 -1.046875q0.546875 -0.390625 1.140625 -0.3125q0.609375 0.078125 1.015625 0.515625q0.953125 1.125 2.53125 1.734375q1.578125 0.59375 3.5 0.59375q2.96875 0 4.28125 -1.015625q1.328125 -1.03125 1.359375 -2.46875q0 -1.4375 -1.359375 -2.375q-1.359375 -0.953125 -4.46875 -1.46875q-4.046875 -0.640625 -5.9375 -2.234375q-1.875 -1.609375 -1.875 -3.796875q0 -2.046875 1.078125 -3.40625q1.09375 -1.359375 2.890625 -2.03125q1.796875 -0.6875 3.953125 -0.6875q2.6875 0 4.625 0.921875q1.9375 0.921875 3.140625 2.46875q0.390625 0.53125 0.3125 1.09375q-0.078125 0.546875 -0.640625 0.90625q-0.46875 0.28125 -1.09375 0.1875q-0.625 -0.09375 -1.0625 -0.578125q-1.0 -1.15625 -2.328125 -1.6875q-1.3125 -0.546875 -3.03125 -0.546875q-2.203125 0 -3.53125 0.90625q-1.3125 0.890625 -1.3125 2.25q0 0.921875 0.5 1.609375q0.5 0.671875 1.71875 1.1875q1.234375 0.515625 3.421875 0.875q3.0 0.484375 4.734375 1.421875q1.75 0.9375 2.484375 2.203125q0.75 1.265625 0.75 2.734375q0 1.890625 -1.109375 3.3125q-1.09375 1.40625 -3.03125 2.21875q-1.9375 0.796875 -4.46875 0.796875zm16.122467 -0.203125q-0.71875 0 -1.140625 -0.421875q-0.421875 -0.421875 -0.421875 -1.140625l0 -18.75q0 -0.734375 0.421875 -1.140625q0.421875 -0.421875 1.140625 -0.421875q0.6875 0 1.09375 0.421875q0.421875 0.40625 0.421875 1.140625l0 18.75q0 0.71875 -0.421875 1.140625q-0.40625 0.421875 -1.09375 0.421875zm-0.03125 -26.046875q-0.875 0 -1.515625 -0.625q-0.640625 -0.640625 -0.640625 -1.5625q0 -1.0 0.65625 -1.578125q0.65625 -0.59375 1.53125 -0.59375q0.84375 0 1.5 0.59375q0.671875 0.578125 0.671875 1.578125q0 0.921875 -0.640625 1.5625q-0.640625 0.625 -1.5625 0.625zm19.356873 26.25q-3.203125 0 -5.734375 -1.4375q-2.515625 -1.453125 -3.953125 -3.96875q-1.4375 -2.515625 -1.4375 -5.71875q0 -3.234375 1.4375 -5.75q1.4375 -2.53125 3.953125 -3.96875q2.53125 -1.4375 5.734375 -1.4375q3.203125 0 5.703125 1.4375q2.5 1.4375 3.9375 3.96875q1.4375 2.515625 1.484375 5.75q0 3.203125 -1.46875 5.71875q-1.453125 2.515625 -3.953125 3.96875q-2.5 1.4375 -5.703125 1.4375zm0 -2.796875q2.3125 0 4.15625 -1.078125q1.84375 -1.09375 2.875 -2.96875q1.046875 -1.875 1.046875 -4.28125q0 -2.390625 -1.046875 -4.296875q-1.03125 -1.90625 -2.875 -2.984375q-1.84375 -1.078125 -4.15625 -1.078125q-2.328125 0 -4.171875 1.078125q-1.828125 1.078125 -2.890625 2.984375q-1.0625 1.90625 -1.0625 4.296875q0 2.40625 1.0625 4.28125q1.0625 1.875 2.890625 2.96875q1.84375 1.078125 4.171875 1.078125zm35.87683 2.59375q-0.671875 0 -1.125 -0.4375q-0.4375 -0.4375 -0.4375 -1.078125l0 -10.40625q0 -2.484375 -0.9375 -4.078125q-0.9375 -1.59375 -2.5625 -2.390625q-1.609375 -0.8125 -3.65625 -0.8125q-1.953125 0 -3.546875 0.765625q-1.578125 0.75 -2.5 2.078125q-0.90625 1.3125 -0.90625 3.0l-2.203125 0q0.078125 -2.515625 1.359375 -4.5q1.28125 -1.984375 3.390625 -3.125q2.125 -1.140625 4.71875 -1.140625q2.84375 0 5.078125 1.1875q2.25 1.171875 3.546875 3.453125q1.296875 2.28125 1.296875 5.5625l0 10.40625q0 0.640625 -0.4375 1.078125q-0.4375 0.4375 -1.078125 0.4375zm-17.203125 0q-0.71875 0 -1.140625 -0.421875q-0.421875 -0.421875 -0.421875 -1.09375l0 -18.796875q0 -0.734375 0.421875 -1.140625q0.421875 -0.421875 1.140625 -0.421875q0.6875 0 1.109375 0.421875q0.421875 0.40625 0.421875 1.140625l0 18.796875q0 0.671875 -0.421875 1.09375q-0.421875 0.421875 -1.109375 0.421875z" fill-rule="nonzero"/><path fill="#000000" fill-opacity="0.0" d="m177.1811 137.1811l245.6378 0l0 25.637787l-245.6378 0z" fill-rule="evenodd"/><path fill="#000000" d="m193.69598 156.14812q-1.140625 0 -1.6875 -0.34375q-0.53125 -0.328125 -0.53125 -1.25q0 -0.453125 0.015625 -0.8125q0.03125 -0.375 0.0625 -0.734375q0.03125 -0.375 0.03125 -0.78125q0 -0.234375 -0.140625 -0.4375q-0.140625 -0.21875 -0.53125 -0.359375q-0.375 -0.140625 -1.078125 -0.140625l0 -0.609375q0.703125 0 1.078125 -0.140625q0.390625 -0.140625 0.53125 -0.359375q0.140625 -0.21875 0.140625 -0.4375q0 -0.375 -0.03125 -0.75q-0.03125 -0.390625 -0.0625 -0.765625q-0.015625 -0.390625 -0.015625 -0.8125q0 -0.921875 0.53125 -1.25q0.546875 -0.34375 1.6875 -0.34375l0.734375 0l0 0.5625l-0.625 0q-0.625 0 -0.9375 0.125q-0.3125 0.109375 -0.4375 0.34375q-0.125 0.234375 -0.125 0.625q0 0.515625 0.03125 1.0625q0.046875 0.546875 0.046875 1.109375q0 0.578125 -0.234375 0.890625q-0.234375 0.3125 -0.859375 0.421875l0 0.046875q0.625 0.109375 0.859375 0.421875q0.234375 0.3125 0.234375 0.890625q0 0.59375 -0.046875 1.109375q-0.03125 0.5 -0.03125 1.0625q0 0.375 0.125 0.609375q0.125 0.25 0.4375 0.359375q0.3125 0.125 0.9375 0.125l0.625 0l0 0.5625l-0.734375 0zm3.793808 -6.046875l-0.296875 -2.703125l-0.03125 -1.328125l1.328125 0l-0.03125 1.328125l-0.296875 2.703125l-0.671875 0zm2.75 0l-0.296875 -2.703125l-0.03125 -1.328125l1.328125 0l-0.03125 1.328125l-0.296875 2.703125l-0.671875 0zm3.825058 4.21875l0 -8.546875l0.984375 0l0 5.78125l0.046875 0l3.15625 -3.0625l1.125 0l-4.328125 4.25l0 1.578125l-0.984375 0zm4.515625 0l-2.28125 -3.109375l0.609375 -0.640625l2.78125 3.75l-1.109375 0zm5.371933 0.140625q-0.875 0 -1.59375 -0.359375q-0.703125 -0.359375 -1.125 -1.046875q-0.421875 -0.6875 -0.421875 -1.65625q0 -0.953125 0.421875 -1.640625q0.421875 -0.6875 1.09375 -1.046875q0.6875 -0.359375 1.46875 -0.359375q0.828125 0 1.421875 0.34375q0.59375 0.328125 0.90625 0.953125q0.328125 0.609375 0.328125 1.4375q0 0.15625 -0.015625 0.3125q0 0.15625 -0.03125 0.28125l-4.9375 0l0 -0.765625l4.34375 0l-0.25 0.28125q0 -1.03125 -0.46875 -1.546875q-0.46875 -0.53125 -1.28125 -0.53125q-0.53125 0 -1.0 0.265625q-0.453125 0.265625 -0.734375 0.78125q-0.28125 0.5 -0.28125 1.234375q0 0.75 0.296875 1.265625q0.3125 0.5 0.828125 0.765625q0.515625 0.25 1.15625 0.25q0.53125 0 0.953125 -0.15625q0.421875 -0.15625 0.828125 -0.40625l0.359375 0.65625q-0.4375 0.28125 -1.0 0.484375q-0.546875 0.203125 -1.265625 0.203125zm4.825058 2.375q-0.203125 0 -0.421875 -0.046875q-0.203125 -0.03125 -0.359375 -0.078125l0.21875 -0.78125q0.109375 0.03125 0.25 0.046875q0.140625 0.03125 0.265625 0.03125q0.609375 0 1.0 -0.359375q0.390625 -0.34375 0.59375 -0.890625l0.1875 -0.421875l-2.71875 -5.84375l0.984375 0l1.4375 3.21875q0.171875 0.390625 0.34375 0.828125q0.1875 0.4375 0.375 0.875l0.046875 0q0.15625 -0.421875 0.3125 -0.859375q0.171875 -0.4375 0.3125 -0.84375l1.265625 -3.21875l0.9375 0l-2.5625 6.3125q-0.21875 0.578125 -0.546875 1.03125q-0.3125 0.46875 -0.796875 0.734375q-0.46875 0.265625 -1.125 0.265625zm7.512558 -6.734375l-0.296875 -2.703125l-0.03125 -1.328125l1.328125 0l-0.03125 1.328125l-0.296875 2.703125l-0.671875 0zm2.75 0l-0.296875 -2.703125l-0.03125 -1.328125l1.328125 0l-0.03125 1.328125l-0.296875 2.703125l-0.671875 0zm6.153183 0.0625q-0.390625 0 -0.6875 -0.28125q-0.28125 -0.28125 -0.28125 -0.71875q0 -0.453125 0.28125 -0.734375q0.296875 -0.296875 0.6875 -0.296875q0.421875 0 0.703125 0.296875q0.28125 0.28125 0.28125 0.734375q0 0.4375 -0.28125 0.71875q-0.28125 0.28125 -0.703125 0.28125zm0 4.296875q-0.390625 0 -0.6875 -0.28125q-0.28125 -0.28125 -0.28125 -0.71875q0 -0.453125 0.28125 -0.734375q0.296875 -0.296875 0.6875 -0.296875q0.421875 0 0.703125 0.296875q0.28125 0.28125 0.28125 0.734375q0 0.4375 -0.28125 0.71875q-0.28125 0.28125 -0.703125 0.28125zm5.496933 -4.359375l-0.296875 -2.703125l-0.03125 -1.328125l1.328125 0l-0.03125 1.328125l-0.296875 2.703125l-0.671875 0zm2.75 0l-0.296875 -2.703125l-0.03125 -1.328125l1.328125 0l-0.03125 1.328125l-0.296875 2.703125l-0.671875 0zm5.637558 4.21875l-2.46875 -5.828125l1.0 0l1.34375 3.3125q0.171875 0.421875 0.328125 0.859375q0.171875 0.4375 0.328125 0.859375l0.046875 0q0.15625 -0.421875 0.3125 -0.859375q0.15625 -0.4375 0.328125 -0.859375l1.34375 -3.3125l0.953125 0l-2.421875 5.828125l-1.09375 0zm7.0750427 0.140625q-0.54685974 0 -0.99998474 -0.1875q-0.453125 -0.203125 -0.71875 -0.578125q-0.265625 -0.375 -0.265625 -0.890625q0 -0.984375 0.984375 -1.484375q0.98435974 -0.515625 3.2499847 -0.703125q-0.015625 -0.390625 -0.171875 -0.71875q-0.140625 -0.34375 -0.484375 -0.53125q-0.328125 -0.203125 -0.90625 -0.203125q-0.359375 0 -0.734375 0.109375q-0.35935974 0.09375 -0.68748474 0.265625q-0.328125 0.15625 -0.609375 0.3125l-0.390625 -0.671875q0.296875 -0.1875 0.703125 -0.375q0.421875 -0.203125 0.89060974 -0.328125q0.484375 -0.125 1.0 -0.125q0.8125 0 1.328125 0.296875q0.515625 0.296875 0.78125 0.828125q0.265625 0.53125 0.265625 1.265625l0 3.578125l-0.8125 0l-0.078125 -0.796875l-0.046875 0q-0.46875 0.390625 -1.078125 0.671875q-0.59375 0.265625 -1.21875 0.265625zm0.265625 -0.78125q0.5 0 0.984375 -0.234375q0.5 -0.234375 1.0 -0.640625l0 -1.53125q-1.25 0.109375 -1.96875 0.296875q-0.71873474 0.1875 -1.0156097 0.484375q-0.28125 0.296875 -0.28125 0.6875q0 0.3125 0.171875 0.53125q0.1875 0.203125 0.46875 0.3125q0.29685974 0.09375 0.64060974 0.09375zm8.856323 0.78125q-0.921875 0 -1.421875 -0.53125q-0.484375 -0.53125 -0.484375 -1.5625l0 -5.78125l-2.0 0l0 -0.8125l2.984375 0l0 6.65625q0 0.640625 0.3125 0.9375q0.3125 0.28125 0.828125 0.28125q0.25 0 0.515625 -0.0625q0.265625 -0.0625 0.578125 -0.21875l0.25 0.75q-0.390625 0.140625 -0.734375 0.234375q-0.34375 0.109375 -0.828125 0.109375zm5.2781677 0q-1.046875 0 -1.546875 -0.59375q-0.484375 -0.609375 -0.484375 -1.75l0 -3.625l1.0 0l0 3.484375q0 0.828125 0.296875 1.234375q0.3125 0.40625 1.046875 0.40625q0.5 0 0.90625 -0.25q0.421875 -0.265625 0.90625 -0.828125l0 -4.046875l0.984375 0l0 5.828125l-0.8125 0l-0.078125 -1.015625l-0.046875 0q-0.4375 0.5 -0.96875 0.828125q-0.53125 0.328125 -1.203125 0.328125zm8.200073 0q-0.875 0 -1.59375 -0.359375q-0.703125 -0.359375 -1.125 -1.046875q-0.421875 -0.6875 -0.421875 -1.65625q0 -0.953125 0.421875 -1.640625q0.421875 -0.6875 1.09375 -1.046875q0.6875 -0.359375 1.46875 -0.359375q0.828125 0 1.421875 0.34375q0.59375 0.328125 0.90625 0.953125q0.328125 0.609375 0.328125 1.4375q0 0.15625 -0.015625 0.3125q0 0.15625 -0.03125 0.28125l-4.9375 0l0 -0.765625l4.34375 0l-0.25 0.28125q0 -1.03125 -0.46875 -1.546875q-0.46875 -0.53125 -1.28125 -0.53125q-0.53125 0 -1.0 0.265625q-0.453125 0.265625 -0.734375 0.78125q-0.28125 0.5 -0.28125 1.234375q0 0.75 0.296875 1.265625q0.3125 0.5 0.828125 0.765625q0.515625 0.25 1.15625 0.25q0.53125 0 0.953125 -0.15625q0.421875 -0.15625 0.828125 -0.40625l0.359375 0.65625q-0.4375 0.28125 -1.0 0.484375q-0.546875 0.203125 -1.265625 0.203125zm5.1375427 -4.359375l-0.296875 -2.703125l-0.03125 -1.328125l1.328125 0l-0.03125 1.328125l-0.296875 2.703125l-0.671875 0zm2.75 0l-0.296875 -2.703125l-0.03125 -1.328125l1.328125 0l-0.03125 1.328125l-0.296875 2.703125l-0.671875 0zm5.2000732 6.78125l-0.28125 -0.625q0.765625 -0.34375 1.140625 -0.859375q0.375 -0.5 0.375 -1.25l-0.234375 -1.09375l0.671875 0.9375q-0.140625 0.171875 -0.3125 0.234375q-0.171875 0.046875 -0.359375 0.046875q-0.25 0 -0.46875 -0.09375q-0.203125 -0.109375 -0.328125 -0.296875q-0.125 -0.203125 -0.125 -0.515625q0 -0.4375 0.28125 -0.671875q0.28125 -0.234375 0.671875 -0.234375q0.53125 0 0.796875 0.421875q0.28125 0.40625 0.28125 1.109375q0 1.0625 -0.5625 1.78125q-0.5625 0.734375 -1.546875 1.109375zm6.4500427 -6.78125l-0.296875 -2.703125l-0.03125 -1.328125l1.328125 0l-0.03125 1.328125l-0.296875 2.703125l-0.671875 0zm2.75 0l-0.296875 -2.703125l-0.03125 -1.328125l1.328125 0l-0.03125 1.328125l-0.296875 2.703125l-0.671875 0zm3.8250732 4.21875l0 -8.546875l0.984375 0l0 5.78125l0.046875 0l3.15625 -3.0625l1.125 0l-4.328125 4.25l0 1.578125l-0.984375 0zm4.515625 0l-2.28125 -3.109375l0.609375 -0.640625l2.78125 3.75l-1.109375 0zm5.3719177 0.140625q-0.875 0 -1.59375 -0.359375q-0.703125 -0.359375 -1.125 -1.046875q-0.421875 -0.6875 -0.421875 -1.65625q0 -0.953125 0.421875 -1.640625q0.421875 -0.6875 1.09375 -1.046875q0.6875 -0.359375 1.46875 -0.359375q0.828125 0 1.421875 0.34375q0.59375 0.328125 0.90625 0.953125q0.328125 0.609375 0.328125 1.4375q0 0.15625 -0.015625 0.3125q0 0.15625 -0.03125 0.28125l-4.9375 0l0 -0.765625l4.34375 0l-0.25 0.28125q0 -1.03125 -0.46875 -1.546875q-0.46875 -0.53125 -1.28125 -0.53125q-0.53125 0 -1.0 0.265625q-0.453125 0.265625 -0.734375 0.78125q-0.28125 0.5 -0.28125 1.234375q0 0.75 0.296875 1.265625q0.3125 0.5 0.828125 0.765625q0.515625 0.25 1.15625 0.25q0.53125 0 0.953125 -0.15625q0.421875 -0.15625 0.828125 -0.40625l0.359375 0.65625q-0.4375 0.28125 -1.0 0.484375q-0.546875 0.203125 -1.265625 0.203125zm4.8250732 2.375q-0.203125 0 -0.421875 -0.046875q-0.203125 -0.03125 -0.359375 -0.078125l0.21875 -0.78125q0.109375 0.03125 0.25 0.046875q0.140625 0.03125 0.265625 0.03125q0.609375 0 1.0 -0.359375q0.390625 -0.34375 0.59375 -0.890625l0.1875 -0.421875l-2.71875 -5.84375l0.984375 0l1.4375 3.21875q0.171875 0.390625 0.34375 0.828125q0.1875 0.4375 0.375 0.875l0.046875 0q0.15625 -0.421875 0.3125 -0.859375q0.171875 -0.4375 0.3125 -0.84375l1.265625 -3.21875l0.9375 0l-2.5625 6.3125q-0.21875 0.578125 -0.546875 1.03125q-0.3125 0.46875 -0.796875 0.734375q-0.46875 0.265625 -1.125 0.265625zm6.4969177 -2.515625l0 -0.59375q1.296875 -1.140625 2.1875 -2.0q0.890625 -0.875 1.359375 -1.5625q0.46875 -0.703125 0.46875 -1.34375q0 -0.65625 -0.40625 -1.078125q-0.40625 -0.421875 -1.25 -0.421875q-0.546875 0 -1.015625 0.265625q-0.453125 0.265625 -0.828125 0.65625l-0.5625 -0.5625q0.515625 -0.515625 1.109375 -0.828125q0.59375 -0.328125 1.40625 -0.328125q0.765625 0 1.328125 0.28125q0.5625 0.28125 0.859375 0.78125q0.3125 0.5 0.3125 1.1875q0 0.71875 -0.453125 1.453125q-0.4375 0.734375 -1.234375 1.546875q-0.796875 0.8125 -1.84375 1.765625q0.359375 -0.03125 0.71875 -0.046875q0.359375 -0.03125 0.71875 -0.03125l2.515625 0l0 0.859375l-5.390625 0zm8.215698 -4.21875l-0.296875 -2.703125l-0.03125 -1.328125l1.328125 0l-0.03125 1.328125l-0.296875 2.703125l-0.671875 0zm2.75 0l-0.296875 -2.703125l-0.03125 -1.328125l1.328125 0l-0.03125 1.328125l-0.296875 2.703125l-0.671875 0zm6.1531677 0.0625q-0.390625 0 -0.6875 -0.28125q-0.28125 -0.28125 -0.28125 -0.71875q0 -0.453125 0.28125 -0.734375q0.296875 -0.296875 0.6875 -0.296875q0.421875 0 0.703125 0.296875q0.28125 0.28125 0.28125 0.734375q0 0.4375 -0.28125 0.71875q-0.28125 0.28125 -0.703125 0.28125zm0 4.296875q-0.390625 0 -0.6875 -0.28125q-0.28125 -0.28125 -0.28125 -0.71875q0 -0.453125 0.28125 -0.734375q0.296875 -0.296875 0.6875 -0.296875q0.421875 0 0.703125 0.296875q0.28125 0.28125 0.28125 0.734375q0 0.4375 -0.28125 0.71875q-0.28125 0.28125 -0.703125 0.28125zm5.4969482 -4.359375l-0.296875 -2.703125l-0.03125 -1.328125l1.328125 0l-0.03125 1.328125l-0.296875 2.703125l-0.671875 0zm2.75 0l-0.296875 -2.703125l-0.03125 -1.328125l1.328125 0l-0.03125 1.328125l-0.296875 2.703125l-0.671875 0zm5.6375427 4.21875l-2.46875 -5.828125l1.0 0l1.34375 3.3125q0.171875 0.421875 0.328125 0.859375q0.171875 0.4375 0.328125 0.859375l0.046875 0q0.15625 -0.421875 0.3125 -0.859375q0.15625 -0.4375 0.328125 -0.859375l1.34375 -3.3125l0.953125 0l-2.421875 5.828125l-1.09375 0zm7.0750732 0.140625q-0.546875 0 -1.0 -0.1875q-0.453125 -0.203125 -0.71875 -0.578125q-0.265625 -0.375 -0.265625 -0.890625q0 -0.984375 0.984375 -1.484375q0.984375 -0.515625 3.25 -0.703125q-0.015625 -0.390625 -0.171875 -0.71875q-0.140625 -0.34375 -0.484375 -0.53125q-0.328125 -0.203125 -0.90625 -0.203125q-0.359375 0 -0.734375 0.109375q-0.359375 0.09375 -0.6875 0.265625q-0.328125 0.15625 -0.609375 0.3125l-0.390625 -0.671875q0.296875 -0.1875 0.703125 -0.375q0.421875 -0.203125 0.890625 -0.328125q0.484375 -0.125 1.0 -0.125q0.8125 0 1.328125 0.296875q0.515625 0.296875 0.78125 0.828125q0.265625 0.53125 0.265625 1.265625l0 3.578125l-0.8125 0l-0.078125 -0.796875l-0.046875 0q-0.46875 0.390625 -1.078125 0.671875q-0.59375 0.265625 -1.21875 0.265625zm0.265625 -0.78125q0.5 0 0.984375 -0.234375q0.5 -0.234375 1.0 -0.640625l0 -1.53125q-1.25 0.109375 -1.96875 0.296875q-0.71875 0.1875 -1.015625 0.484375q-0.28125 0.296875 -0.28125 0.6875q0 0.3125 0.171875 0.53125q0.1875 0.203125 0.46875 0.3125q0.296875 0.09375 0.640625 0.09375zm8.856293 0.78125q-0.921875 0 -1.421875 -0.53125q-0.484375 -0.53125 -0.484375 -1.5625l0 -5.78125l-2.0 0l0 -0.8125l2.984375 0l0 6.65625q0 0.640625 0.3125 0.9375q0.3125 0.28125 0.828125 0.28125q0.25 0 0.515625 -0.0625q0.265625 -0.0625 0.578125 -0.21875l0.25 0.75q-0.390625 0.140625 -0.734375 0.234375q-0.34375 0.109375 -0.828125 0.109375zm5.2781982 0q-1.046875 0 -1.546875 -0.59375q-0.484375 -0.609375 -0.484375 -1.75l0 -3.625l1.0 0l0 3.484375q0 0.828125 0.296875 1.234375q0.3125 0.40625 1.046875 0.40625q0.5 0 0.90625 -0.25q0.421875 -0.265625 0.90625 -0.828125l0 -4.046875l0.984375 0l0 5.828125l-0.8125 0l-0.078125 -1.015625l-0.046875 0q-0.4375 0.5 -0.96875 0.828125q-0.53125 0.328125 -1.203125 0.328125zm8.200043 0q-0.875 0 -1.59375 -0.359375q-0.703125 -0.359375 -1.125 -1.046875q-0.421875 -0.6875 -0.421875 -1.65625q0 -0.953125 0.421875 -1.640625q0.421875 -0.6875 1.09375 -1.046875q0.6875 -0.359375 1.46875 -0.359375q0.828125 0 1.421875 0.34375q0.59375 0.328125 0.90625 0.953125q0.328125 0.609375 0.328125 1.4375q0 0.15625 -0.015625 0.3125q0 0.15625 -0.03125 0.28125l-4.9375 0l0 -0.765625l4.34375 0l-0.25 0.28125q0 -1.03125 -0.46875 -1.546875q-0.46875 -0.53125 -1.28125 -0.53125q-0.53125 0 -1.0 0.265625q-0.453125 0.265625 -0.734375 0.78125q-0.28125 0.5 -0.28125 1.234375q0 0.75 0.296875 1.265625q0.3125 0.5 0.828125 0.765625q0.515625 0.25 1.15625 0.25q0.53125 0 0.953125 -0.15625q0.421875 -0.15625 0.828125 -0.40625l0.359375 0.65625q-0.4375 0.28125 -1.0 0.484375q-0.546875 0.203125 -1.265625 0.203125zm4.1219482 -0.140625l0 -0.59375q1.296875 -1.140625 2.1875 -2.0q0.890625 -0.875 1.359375 -1.5625q0.46875 -0.703125 0.46875 -1.34375q0 -0.65625 -0.40625 -1.078125q-0.40625 -0.421875 -1.25 -0.421875q-0.546875 0 -1.015625 0.265625q-0.453125 0.265625 -0.828125 0.65625l-0.5625 -0.5625q0.515625 -0.515625 1.109375 -0.828125q0.59375 -0.328125 1.40625 -0.328125q0.765625 0 1.328125 0.28125q0.5625 0.28125 0.859375 0.78125q0.3125 0.5 0.3125 1.1875q0 0.71875 -0.453125 1.453125q-0.4375 0.734375 -1.234375 1.546875q-0.796875 0.8125 -1.84375 1.765625q0.359375 -0.03125 0.71875 -0.046875q0.359375 -0.03125 0.71875 -0.03125l2.515625 0l0 0.859375l-5.390625 0zm8.215668 -4.21875l-0.296875 -2.703125l-0.03125 -1.328125l1.328125 0l-0.03125 1.328125l-0.296875 2.703125l-0.671875 0zm2.75 0l-0.296875 -2.703125l-0.03125 -1.328125l1.328125 0l-0.03125 1.328125l-0.296875 2.703125l-0.671875 0zm3.7469482 6.046875l0 -0.5625l0.609375 0q0.625 0 0.9375 -0.125q0.328125 -0.109375 0.4375 -0.359375q0.125 -0.234375 0.125 -0.609375q0 -0.5625 -0.03125 -1.0625q-0.03125 -0.515625 -0.03125 -1.109375q0 -0.578125 0.21875 -0.890625q0.234375 -0.3125 0.859375 -0.421875l0 -0.046875q-0.625 -0.109375 -0.859375 -0.421875q-0.21875 -0.3125 -0.21875 -0.890625q0 -0.5625 0.03125 -1.109375q0.03125 -0.546875 0.03125 -1.0625q0 -0.390625 -0.125 -0.625q-0.109375 -0.234375 -0.4375 -0.34375q-0.3125 -0.125 -0.9375 -0.125l-0.609375 0l0 -0.5625l0.734375 0q1.125 0 1.65625 0.34375q0.546875 0.328125 0.546875 1.25q0 0.421875 -0.03125 0.8125q-0.015625 0.375 -0.046875 0.765625q-0.03125 0.375 -0.03125 0.75q0 0.21875 0.140625 0.4375q0.140625 0.21875 0.515625 0.359375q0.375 0.140625 1.09375 0.140625l0 0.609375q-0.71875 0 -1.09375 0.140625q-0.375 0.140625 -0.515625 0.359375q-0.140625 0.203125 -0.140625 0.4375q0 0.40625 0.03125 0.78125q0.03125 0.359375 0.046875 0.734375q0.03125 0.359375 0.03125 0.8125q0 0.921875 -0.546875 1.25q-0.53125 0.34375 -1.65625 0.34375l-0.734375 0z" fill-rule="nonzero"/><path fill="#000000" fill-opacity="0.0" d="m205.35289 162.8189l193.22835 0l0 25.637802l-193.22835 0z" fill-rule="evenodd"/><path fill="#000000" d="m221.86952 181.78592l0 -10.328125l3.328125 0l0 0.5625l-2.546875 0l0 9.203125l2.546875 0l0 0.5625l-3.328125 0zm6.387558 -6.046875l-0.296875 -2.703125l-0.03125 -1.328125l1.328125 0l-0.03125 1.328125l-0.296875 2.703125l-0.671875 0zm2.75 0l-0.296875 -2.703125l-0.03125 -1.328125l1.328125 0l-0.03125 1.328125l-0.296875 2.703125l-0.671875 0zm6.215683 4.359375q-0.859375 0 -1.59375 -0.3125q-0.71875 -0.3125 -1.265625 -0.84375l0.609375 -0.703125q0.4375 0.453125 1.03125 0.71875q0.59375 0.265625 1.265625 0.265625q0.828125 0 1.265625 -0.34375q0.453125 -0.34375 0.453125 -0.90625q0 -0.421875 -0.1875 -0.671875q-0.1875 -0.25 -0.5 -0.40625q-0.3125 -0.171875 -0.71875 -0.34375l-1.140625 -0.5q-0.390625 -0.15625 -0.78125 -0.40625q-0.390625 -0.265625 -0.65625 -0.65625q-0.265625 -0.390625 -0.265625 -0.953125q0 -0.609375 0.328125 -1.078125q0.34375 -0.46875 0.921875 -0.734375q0.59375 -0.28125 1.328125 -0.28125q0.75 0 1.375 0.28125q0.625 0.265625 1.0625 0.6875l-0.53125 0.65625q-0.390625 -0.359375 -0.859375 -0.546875q-0.46875 -0.203125 -1.078125 -0.203125q-0.6875 0 -1.109375 0.3125q-0.40625 0.296875 -0.40625 0.84375q0 0.375 0.203125 0.609375q0.203125 0.234375 0.53125 0.390625q0.328125 0.15625 0.65625 0.296875l1.109375 0.484375q0.5 0.1875 0.890625 0.46875q0.390625 0.265625 0.609375 0.671875q0.234375 0.390625 0.234375 0.96875q0 0.625 -0.34375 1.140625q-0.328125 0.5 -0.953125 0.796875q-0.609375 0.296875 -1.484375 0.296875zm7.700058 0q-0.921875 0 -1.65625 -0.359375q-0.71875 -0.359375 -1.140625 -1.03125q-0.40625 -0.6875 -0.40625 -1.65625q0 -0.984375 0.4375 -1.65625q0.453125 -0.6875 1.1875 -1.046875q0.75 -0.359375 1.640625 -0.359375q0.71875 0 1.234375 0.25q0.515625 0.25 0.890625 0.59375l-0.5 0.640625q-0.359375 -0.3125 -0.75 -0.484375q-0.375 -0.1875 -0.84375 -0.1875q-0.671875 0 -1.1875 0.28125q-0.515625 0.28125 -0.796875 0.796875q-0.28125 0.5 -0.28125 1.171875q0 0.65625 0.265625 1.171875q0.28125 0.5 0.78125 0.78125q0.515625 0.28125 1.1875 0.28125q0.546875 0 0.984375 -0.21875q0.453125 -0.21875 0.828125 -0.515625l0.4375 0.640625q-0.484375 0.421875 -1.078125 0.671875q-0.59375 0.234375 -1.234375 0.234375zm4.793808 -0.140625l0 -5.828125l0.8125 0l0.09375 1.375l0.03125 0q0.453125 -0.703125 1.125 -1.109375q0.671875 -0.40625 1.484375 -0.40625q0.3125 0 0.59375 0.046875q0.296875 0.046875 0.546875 0.1875l-0.21875 0.84375q-0.296875 -0.09375 -0.515625 -0.140625q-0.21875 -0.0625 -0.5625 -0.0625q-0.671875 0 -1.28125 0.390625q-0.59375 0.375 -1.125 1.28125l0 3.421875l-0.984375 0zm8.403183 0.140625q-0.546875 0 -1.0 -0.1875q-0.453125 -0.203125 -0.71875 -0.578125q-0.265625 -0.375 -0.265625 -0.890625q0 -0.984375 0.984375 -1.484375q0.984375 -0.515625 3.25 -0.703125q-0.015625 -0.390625 -0.171875 -0.71875q-0.140625 -0.34375 -0.484375 -0.53125q-0.328125 -0.203125 -0.90625 -0.203125q-0.359375 0 -0.734375 0.109375q-0.359375 0.09375 -0.6875 0.265625q-0.328125 0.15625 -0.609375 0.3125l-0.390625 -0.671875q0.296875 -0.1875 0.703125 -0.375q0.421875 -0.203125 0.890625 -0.328125q0.484375 -0.125 1.0 -0.125q0.8125 0 1.328125 0.296875q0.515625 0.296875 0.78125 0.828125q0.265625 0.53125 0.265625 1.265625l0 3.578125l-0.8125 0l-0.078125 -0.796875l-0.046875 0q-0.46875 0.390625 -1.078125 0.671875q-0.59375 0.265625 -1.21875 0.265625zm0.265625 -0.78125q0.5 0 0.984375 -0.234375q0.5 -0.234375 1.0 -0.640625l0 -1.53125q-1.25 0.109375 -1.96875 0.296875q-0.71875 0.1875 -1.015625 0.484375q-0.28125 0.296875 -0.28125 0.6875q0 0.3125 0.171875 0.53125q0.1875 0.203125 0.46875 0.3125q0.296875 0.09375 0.640625 0.09375zm8.715698 0.78125q-0.859375 0 -1.359375 -0.296875q-0.484375 -0.3125 -0.703125 -0.84375q-0.203125 -0.546875 -0.203125 -1.265625l0 -2.765625l-1.640625 0l0 -0.734375l1.6875 -0.0625l0.125 -1.875l0.8125 0l0 1.875l2.875 0l0 0.796875l-2.875 0l0 2.78125q0 0.515625 0.125 0.875q0.140625 0.359375 0.46875 0.546875q0.328125 0.171875 0.890625 0.171875q0.421875 0 0.75 -0.0625q0.34375 -0.078125 0.65625 -0.203125l0.203125 0.71875q-0.390625 0.140625 -0.828125 0.234375q-0.4375 0.109375 -0.984375 0.109375zm6.6219177 0q-0.921875 0 -1.65625 -0.359375q-0.71875 -0.359375 -1.140625 -1.03125q-0.40625 -0.6875 -0.40625 -1.65625q0 -0.984375 0.4375 -1.65625q0.453125 -0.6875 1.1875 -1.046875q0.75 -0.359375 1.640625 -0.359375q0.71875 0 1.234375 0.25q0.515625 0.25 0.890625 0.59375l-0.5 0.640625q-0.359375 -0.3125 -0.75 -0.484375q-0.375 -0.1875 -0.84375 -0.1875q-0.671875 0 -1.1875 0.28125q-0.515625 0.28125 -0.796875 0.796875q-0.28125 0.5 -0.28125 1.171875q0 0.65625 0.265625 1.171875q0.28125 0.5 0.78125 0.78125q0.515625 0.28125 1.1875 0.28125q0.546875 0 0.984375 -0.21875q0.453125 -0.21875 0.828125 -0.515625l0.4375 0.640625q-0.484375 0.421875 -1.078125 0.671875q-0.59375 0.234375 -1.234375 0.234375zm4.1531982 -0.140625l0 -8.546875l0.984375 0l0 2.328125l-0.046875 1.375l0.03125 0q0.4375 -0.46875 0.96875 -0.796875q0.53125 -0.328125 1.21875 -0.328125q1.03125 0 1.515625 0.59375q0.5 0.59375 0.5 1.75l0 3.625l-0.984375 0l0 -3.484375q0 -0.828125 -0.3125 -1.234375q-0.3125 -0.40625 -1.03125 -0.40625q-0.515625 0 -0.9375 0.265625q-0.40625 0.265625 -0.921875 0.796875l0 4.0625l-0.984375 0zm7.9812927 -4.21875l-0.296875 -2.703125l-0.03125 -1.328125l1.328125 0l-0.03125 1.328125l-0.296875 2.703125l-0.671875 0zm2.75 0l-0.296875 -2.703125l-0.03125 -1.328125l1.328125 0l-0.03125 1.328125l-0.296875 2.703125l-0.671875 0zm5.2000732 6.78125l-0.28125 -0.625q0.765625 -0.34375 1.140625 -0.859375q0.375 -0.5 0.375 -1.25l-0.234375 -1.09375l0.671875 0.9375q-0.140625 0.171875 -0.3125 0.234375q-0.171875 0.046875 -0.359375 0.046875q-0.25 0 -0.46875 -0.09375q-0.203125 -0.109375 -0.328125 -0.296875q-0.125 -0.203125 -0.125 -0.515625q0 -0.4375 0.28125 -0.671875q0.28125 -0.234375 0.671875 -0.234375q0.53125 0 0.796875 0.421875q0.28125 0.40625 0.28125 1.109375q0 1.0625 -0.5625 1.78125q-0.5625 0.734375 -1.546875 1.109375zm6.4500427 -6.78125l-0.296875 -2.703125l-0.03125 -1.328125l1.328125 0l-0.03125 1.328125l-0.296875 2.703125l-0.671875 0zm2.75 0l-0.296875 -2.703125l-0.03125 -1.328125l1.328125 0l-0.03125 1.328125l-0.296875 2.703125l-0.671875 0zm5.6531982 4.21875l0 -7.03125l-2.59375 0l0 -0.84375l6.203125 0l0 0.84375l-2.59375 0l0 7.03125l-1.015625 0zm7.0594177 0.140625q-1.046875 0 -1.546875 -0.59375q-0.484375 -0.609375 -0.484375 -1.75l0 -3.625l1.0 0l0 3.484375q0 0.828125 0.296875 1.234375q0.3125 0.40625 1.046875 0.40625q0.5 0 0.90625 -0.25q0.421875 -0.265625 0.90625 -0.828125l0 -4.046875l0.984375 0l0 5.828125l-0.8125 0l-0.078125 -1.015625l-0.046875 0q-0.4375 0.5 -0.96875 0.828125q-0.53125 0.328125 -1.203125 0.328125zm5.9969482 -0.140625l0 -5.828125l0.8125 0l0.09375 1.375l0.03125 0q0.453125 -0.703125 1.125 -1.109375q0.671875 -0.40625 1.484375 -0.40625q0.3125 0 0.59375 0.046875q0.296875 0.046875 0.546875 0.1875l-0.21875 0.84375q-0.296875 -0.09375 -0.515625 -0.140625q-0.21875 -0.0625 -0.5625 -0.0625q-0.671875 0 -1.28125 0.390625q-0.59375 0.375 -1.125 1.28125l0 3.421875l-0.984375 0zm9.293793 0.140625q-0.4375 0 -0.921875 -0.203125q-0.484375 -0.21875 -0.890625 -0.578125l-0.046875 0l-0.078125 0.640625l-0.796875 0l0 -8.546875l0.984375 0l0 2.328125l-0.03125 1.125l0.03125 0q0.40625 -0.40625 0.921875 -0.640625q0.53125 -0.234375 1.046875 -0.234375q0.78125 0 1.3125 0.359375q0.546875 0.359375 0.828125 1.03125q0.28125 0.671875 0.28125 1.5625q0 1.0 -0.375 1.71875q-0.359375 0.703125 -0.96875 1.078125q-0.59375 0.359375 -1.296875 0.359375zm-0.15625 -0.828125q0.5 0 0.890625 -0.265625q0.40625 -0.28125 0.640625 -0.796875q0.234375 -0.53125 0.234375 -1.25q0 -0.640625 -0.171875 -1.125q-0.15625 -0.484375 -0.515625 -0.75q-0.359375 -0.265625 -0.953125 -0.265625q-0.390625 0 -0.828125 0.203125q-0.4375 0.203125 -0.890625 0.671875l0 2.890625q0.421875 0.375 0.84375 0.53125q0.4375 0.15625 0.75 0.15625zm7.1063232 0.828125q-0.765625 0 -1.421875 -0.359375q-0.640625 -0.359375 -1.046875 -1.03125q-0.40625 -0.6875 -0.40625 -1.65625q0 -0.984375 0.40625 -1.65625q0.40625 -0.6875 1.046875 -1.046875q0.65625 -0.359375 1.421875 -0.359375q0.78125 0 1.421875 0.359375q0.65625 0.359375 1.0625 1.046875q0.40625 0.671875 0.40625 1.65625q0 0.96875 -0.40625 1.65625q-0.40625 0.671875 -1.0625 1.03125q-0.640625 0.359375 -1.421875 0.359375zm0 -0.8125q0.5625 0 0.984375 -0.28125q0.421875 -0.28125 0.640625 -0.78125q0.234375 -0.515625 0.234375 -1.171875q0 -0.671875 -0.234375 -1.171875q-0.21875 -0.515625 -0.640625 -0.796875q-0.421875 -0.28125 -0.984375 -0.28125q-0.5625 0 -0.984375 0.28125q-0.40625 0.28125 -0.640625 0.796875q-0.234375 0.5 -0.234375 1.171875q0 0.65625 0.234375 1.171875q0.234375 0.5 0.640625 0.78125q0.421875 0.28125 0.984375 0.28125zm4.9187927 0.671875l-1.1875 -7.890625l1.125 0l0.578125 4.953125q0.03125 0.328125 0.0625 0.59375q0.03125 0.265625 0.046875 0.546875q0.03125 0.28125 0.046875 0.6875l0.03125 0q0.078125 -0.40625 0.125 -0.6875q0.0625 -0.28125 0.125 -0.546875q0.0625 -0.265625 0.140625 -0.578125l0.765625 -2.9375l0.953125 0l0.75 2.9375q0.078125 0.3125 0.140625 0.578125q0.0625 0.265625 0.109375 0.546875q0.0625 0.28125 0.125 0.6875l0.046875 0q0.03125 -0.40625 0.046875 -0.6875q0.015625 -0.28125 0.03125 -0.546875q0.03125 -0.265625 0.078125 -0.578125l0.546875 -4.96875l1.078125 0l-1.15625 7.890625l-1.234375 0l-0.78125 -3.171875q-0.078125 -0.359375 -0.15625 -0.703125q-0.0625 -0.34375 -0.125 -0.703125l-0.03125 0q-0.0625 0.359375 -0.125 0.703125q-0.0625 0.34375 -0.15625 0.703125l-0.765625 3.171875l-1.234375 0zm8.840698 0.140625q-0.546875 0 -1.0 -0.1875q-0.453125 -0.203125 -0.71875 -0.578125q-0.265625 -0.375 -0.265625 -0.890625q0 -0.984375 0.984375 -1.484375q0.984375 -0.515625 3.25 -0.703125q-0.015625 -0.390625 -0.171875 -0.71875q-0.140625 -0.34375 -0.484375 -0.53125q-0.328125 -0.203125 -0.90625 -0.203125q-0.359375 0 -0.734375 0.109375q-0.359375 0.09375 -0.6875 0.265625q-0.328125 0.15625 -0.609375 0.3125l-0.390625 -0.671875q0.296875 -0.1875 0.703125 -0.375q0.421875 -0.203125 0.890625 -0.328125q0.484375 -0.125 1.0 -0.125q0.8125 0 1.328125 0.296875q0.515625 0.296875 0.78125 0.828125q0.265625 0.53125 0.265625 1.265625l0 3.578125l-0.8125 0l-0.078125 -0.796875l-0.046875 0q-0.46875 0.390625 -1.078125 0.671875q-0.59375 0.265625 -1.21875 0.265625zm0.265625 -0.78125q0.5 0 0.984375 -0.234375q0.5 -0.234375 1.0 -0.640625l0 -1.53125q-1.25 0.109375 -1.96875 0.296875q-0.71875 0.1875 -1.015625 0.484375q-0.28125 0.296875 -0.28125 0.6875q0 0.3125 0.171875 0.53125q0.1875 0.203125 0.46875 0.3125q0.296875 0.09375 0.640625 0.09375zm5.7312927 0.640625l0 -5.828125l0.8125 0l0.09375 1.375l0.03125 0q0.453125 -0.703125 1.125 -1.109375q0.671875 -0.40625 1.484375 -0.40625q0.3125 0 0.59375 0.046875q0.296875 0.046875 0.546875 0.1875l-0.21875 0.84375q-0.296875 -0.09375 -0.515625 -0.140625q-0.21875 -0.0625 -0.5625 -0.0625q-0.671875 0 -1.28125 0.390625q-0.59375 0.375 -1.125 1.28125l0 3.421875l-0.984375 0zm6.5594482 2.453125l0 -8.28125l0.828125 0l0.078125 0.734375l0.03125 0q0.40625 -0.375 0.9375 -0.625q0.546875 -0.25 1.078125 -0.25q0.796875 0 1.328125 0.359375q0.53125 0.359375 0.8125 1.03125q0.28125 0.671875 0.28125 1.578125q0 0.984375 -0.375 1.703125q-0.375 0.703125 -0.984375 1.078125q-0.59375 0.359375 -1.296875 0.359375q-0.390625 0 -0.875 -0.1875q-0.46875 -0.203125 -0.859375 -0.5625l-0.046875 0l0.046875 1.09375l0 1.96875l-0.984375 0zm2.546875 -3.140625q0.515625 0 0.921875 -0.265625q0.40625 -0.28125 0.640625 -0.796875q0.234375 -0.53125 0.234375 -1.25q0 -0.640625 -0.171875 -1.125q-0.15625 -0.484375 -0.515625 -0.75q-0.359375 -0.265625 -0.953125 -0.265625q-0.390625 0 -0.828125 0.203125q-0.4375 0.203125 -0.890625 0.671875l0 2.890625q0.421875 0.375 0.84375 0.53125q0.4375 0.15625 0.71875 0.15625zm5.4344177 -3.53125l-0.296875 -2.703125l-0.03125 -1.328125l1.328125 0l-0.03125 1.328125l-0.296875 2.703125l-0.671875 0zm2.75 0l-0.296875 -2.703125l-0.03125 -1.328125l1.328125 0l-0.03125 1.328125l-0.296875 2.703125l-0.671875 0zm3.7313232 6.046875l0 -0.5625l2.53125 0l0 -9.203125l-2.53125 0l0 -0.5625l3.328125 0l0 10.328125l-3.328125 0z" fill-rule="nonzero"/></g></svg>