<svg xmlns="http://www.w3.org/2000/svg" width="600" height="300"><path fill="#3271d0" d="M0 300V0h600v300z" style="mix-blend-mode:normal;stroke-linejoin:miter;stroke-miterlimit:10;stroke-dasharray:none;stroke-dashoffset:0"/><path fill="#fff" fill-opacity=".733" fill-rule="evenodd" d="M380.769 300.183c7.803 25.58-120.255-30.398-145.132-49.938-24.877-19.54-15.297-42.404 2.71-33.538 18.008 8.864 27.219-4.095 7.648-19.177-29.252-22.543-9.21-37.108 16.197-26.802 42.162 17.105 121.826 75.618 116.666 87.202-5.16 11.584-77.301-32.138-76.037-12.423 1.263 19.714 71.05 32.073 77.948 54.676zm-131.683.752c-3.252 14.883-69.781-12.83-90.495-39.57-23.408-30.226 13.524-48.207 32.843-19.383 22.728 33.913 60.039 48.023 57.652 58.953zm-216.524-.78c-29.21-28.334-75.604-46.23-54.227-61.867 22.025-16.112 64.266 32.322 61.551 8.33-2.764-24.416-72.414-42.849-43.45-48.884 28.967-6.035 82.07 17.503 117.043 49.49 34.973 31.986 13.85 41.747-13.248 27.16-22.424-12.072-45.259-1.813-21.876 18.405 33.003 28.535 50.364 65.734 30.927 66.69-18.707.92-45.272-28.815-76.72-59.324zm352.455-90.707c5.746-28.097 39.416 11.361 52.694 18.71 20.963 11.6 32.224-2.2 8.806-17.15-11.998-7.66-7.618-21.233 13.396-16.11 14.489 3.532 38.946 11.23 67.861 25.908 37.004 18.782 40.428 45.422-3.4 27.99-13.25-5.272-34.787 2.952-14.431 12.71 42.1 20.185 75.99 29.606 73.85 42.078-2.156 12.545-52.392 6.905-105.825-7.6-53.156-14.43-96.502-69.164-92.95-86.536ZM365.46 194.52c-8.654-3.462-10.59-13.351-3.684-17.494 6.906-4.143 19.334-1.382 19.334 5.986 0 7.365-3.224 16.482-15.65 11.508zM15.756 163.098c-8.353-19.337 27.118-17.669 44.137-23.217 16.925-5.52-20.744-10.359-20.32-28.215.373-15.773 25.343-22.376 57.45-19.784 31.514 2.544 42.792 15.075 38.033 25.98-5.725 13.12-37.23-1.521-37.886 4.565-1.186 10.96 42.214 14.622 61.05 27.398 22.534 15.286 2.537 30.13-16.126 21.324-32.627-15.396-57.771-5.147-37.998 2.543 19.776 7.688 32.41 10.837 36.544 22.787 4.136 11.95-13.288 27.522-27.503 14.774-39.51-35.432-92.641-37.185-97.38-48.154zm171.974 33.23c-3.699-5.524-13.387-15.11-9.102-18.813 4.286-3.702 18.878-4.173 27.622 5.95 6.744 7.806 6.547 13.433.202 17.845-8.17 5.68-15.022.54-18.722-4.983zm18.332-55.83c-16.524-3.95-34.602-17.092-39.642-30.747-9.46-25.625-24.269-36.814-40.753-41.467-25.334-7.15 2.907-32.88 38.327-15.17 7.804 3.902 22.572 14.457 25.686 22.148 5.157 12.744 13.955 6.428 7.963-3.54-17.104-28.45 22.982-21.239 26.181 19.513 1.712 21.78 23.498 21.754 32.6 32.878 8.426 10.301-12.742 25.379-50.362 16.385zM93.969 57.917c-10.676 13.65-45.786-6.523-85.687 30.718-28.006 26.138-55.29-2.775-22.676-19.773 18.988-9.896 31.68-24.269 17.017-23.264-14.664 1.003-29.164 10.042-35.024-3.385-5.192-11.897 17.676-27.126 48.53-23.81C32.47 20.16 42.933 7.986 28.213 3.765-11.257-7.546 34.66-25.25 86.167-8.203c33.525 11.097 37.989 33.75 8.492 33.443-29.495-.306-63.022 2.474-46.752 7.951 16.27 5.477 60.323 6.495 46.063 24.726Zm147.942-44.198c7.805 15.938 19.784 46.505 7.638 53.994-17.664 10.895-18.9-41.281-71.796-46.05-42.933-3.87-36.077-23.969-24.515-26.642 11.563-2.676 36.526 9.28 30.458-5.396-6.069-14.676 37.16-18.9 58.215 24.095zm315.781 194.574c-22.106-3.797-103.599-44.931-90.312-66.077 13.286-21.145 43.213 15.605 49.332 6.744 14.089-20.4-64.15-29.675-67.055-49.005-2.903-19.33 63.538-6.948 93.95 15.974 30.411 22.92 49.711 47.542 23.814 49.426-25.894 1.883 9.56 21.109 18.664 27.137 14.682 9.72 6.872 21.862-28.392 15.801zM328.17 172.07c-27.242-23.056-56.699-18.092-56.29-33.813.528-20.285 27.805-8.61 30.687-16.896 3.65-10.5-53.354-22.104-38.125-39.617 11.236-12.925 37.116-2.409 53.122.84 6.409 1.3 11.235 1.435 12.904-1.566 7.954-14.304-55.963-10.249-49.896-32.388 7.794-28.466 122.196 24.8 140.102 40.179 17.907 15.38 12.203 38.816-20.123 18.934-32.325-19.881-40.266.297-18.487 11.31 29.502 14.921 56.53 38.805 51.14 49.485-11.211 22.21-78.98-45.488-101.215-32.455-7.36 4.314 4.96 8.5 9.752 12.871 20.706 18.884-2.314 32.645-13.57 23.116zM544.98 33.422c26.448-2.582-58.703-28.39-54.833-43.228 3.87-14.838 74.727 8.368 95.057 25.162 32.028 26.453 15.035 37.607 0 38.906-30.547 2.64 28.803 41.096 51.381 52.71 22.579 11.612-17.418 16.343-55.695 2.151-24.327-9.023-87.732-42.582-94.575-78.58-3.198-16.832 32.217 5.459 58.665 2.879zM392.946 43.465C326.07 10.039 278.134 13.355 263.915-2.496c-15.224-16.974 24.39-20.365 91.265 0 37.41 11.393 27.852-2.096 13.899-8.318-9.703-4.327-10.518-15.87 20.837-11.848 31.061 3.982 56.641 17.02 64.92 22.526 33.3 22.147 19.276 34.173-12.971 18.52-11.867-5.762-26.634 1.753-14.302 7.391 27.535 12.591 55.826 51.401 27.142 45.245-21.993-4.72-41.1-17.228-61.76-27.555Z" data-paper-data="{&quot;index&quot;:null}" opacity=".1" style="mix-blend-mode:normal;stroke-linejoin:miter;stroke-miterlimit:10;stroke-dasharray:none;stroke-dashoffset:0"/><path d="M33.966 146.943q1.956 0 3.342-.653 1.387-.733 2.283-1.793.979-1.142 1.386-2.528.49-1.467.49-2.935V124.36q0-3.343.733-5.952.734-2.61 2.528-4.321 1.793-1.794 4.729-2.69 3.016-.98 7.419-.98h.326v5.953q-4.647 0-6.686 1.712-1.956 1.63-1.956 6.36v12.555q0 5.38-1.468 8.316-1.386 2.935-3.995 4.566 2.61 1.63 3.995 4.565 1.468 2.936 1.468 8.317v12.555q0 4.729 1.956 6.36 2.039 1.712 6.686 1.712v5.952h-.326q-4.403 0-7.42-.897-2.935-.897-4.728-2.69-1.794-1.794-2.528-4.403-.733-2.61-.733-5.952V160.72q0-1.467-.49-2.853-.407-1.468-1.386-2.528-.896-1.141-2.283-1.793-1.386-.734-3.342-.734zm37.667-34.65v4.076q0 3.995-.49 8.397-.488 4.321-1.222 8.643h-4.484q-.734-4.322-1.223-8.643-.49-4.402-.49-8.479v-3.995zm14.43 0v4.076q0 3.995-.488 8.397-.49 4.321-1.223 8.643h-4.485q-.733-4.322-1.222-8.643-.49-4.402-.49-8.479v-3.995zm27.721 38.645q2.446 1.875 5.137 4.647 2.772 2.772 5.38 6.033 2.691 3.18 5.055 6.523 2.365 3.26 3.995 6.114h-8.886q-1.712-2.853-3.995-5.788-2.202-3.017-4.648-5.707-2.446-2.772-4.973-5.055-2.527-2.283-4.81-3.832v20.382h-7.583v-61.963l7.583-1.304v38.645l4.32-4.321q2.365-2.364 4.648-4.81 2.283-2.446 4.321-4.648 2.038-2.282 3.506-3.995h8.887q-1.875 2.039-4.077 4.485-2.201 2.446-4.565 4.973l-4.81 4.973q-2.365 2.446-4.485 4.648zm22.747 2.2q0-5.625 1.63-9.783 1.631-4.24 4.322-7.011 2.69-2.772 6.196-4.158 3.506-1.386 7.175-1.386 8.56 0 13.126 5.38 4.566 5.3 4.566 16.225v1.305q0 .733-.081 1.386H144.44q.489 6.604 3.832 10.028 3.342 3.424 10.436 3.424 3.995 0 6.685-.652 2.772-.734 4.158-1.386l1.06 6.36q-1.386.733-4.892 1.548-3.424.816-7.827.816-5.544 0-9.62-1.63-3.995-1.713-6.604-4.648-2.61-2.935-3.914-6.93-1.223-4.077-1.223-8.887zm29.107-4.157q.081-5.137-2.61-8.398-2.608-3.343-7.256-3.343-2.609 0-4.647 1.06-1.957.979-3.343 2.61-1.386 1.63-2.2 3.75-.735 2.12-.98 4.32zm13.86 33.183q.897.407 2.283.734 1.467.407 2.853.407 4.484 0 7.012-2.038 2.527-1.957 4.566-6.44-5.137-9.785-9.621-20.71-4.403-11.006-7.338-22.258h8.153q.897 3.67 2.12 7.909 1.305 4.24 2.854 8.724 1.549 4.484 3.342 8.968 1.794 4.484 3.75 8.642 3.099-8.56 5.382-16.958 2.283-8.398 4.321-17.285h7.827q-2.935 11.985-6.523 23.074-3.587 11.006-7.745 20.627-1.63 3.669-3.424 6.278-1.712 2.69-3.832 4.402-2.12 1.712-4.81 2.528-2.61.815-5.952.815-.897 0-1.875-.163-.979-.081-1.957-.326-.897-.163-1.712-.408-.734-.244-1.06-.407zm52.75-69.872v4.077q0 3.995-.49 8.397-.488 4.321-1.222 8.643h-4.484q-.734-4.322-1.223-8.643-.49-4.402-.49-8.479v-3.995zm14.431 0v4.077q0 3.995-.49 8.397-.488 4.321-1.222 8.643h-4.484q-.734-4.322-1.223-8.643-.49-4.402-.49-8.479v-3.995zm21.361 57.56q0 2.202-1.468 3.833-1.467 1.63-3.995 1.63-2.527 0-3.995-1.63-1.467-1.631-1.467-3.832 0-2.202 1.467-3.832 1.468-1.63 3.995-1.63 2.528 0 3.995 1.63 1.468 1.63 1.468 3.832zm0-32.53q0 2.201-1.468 3.832-1.467 1.63-3.995 1.63-2.527 0-3.995-1.63-1.467-1.63-1.467-3.832 0-2.201 1.467-3.832 1.468-1.63 3.995-1.63 2.528 0 3.995 1.63 1.468 1.63 1.468 3.832zm18.344-25.03v4.077q0 3.995-.489 8.397-.489 4.321-1.223 8.643h-4.484q-.734-4.322-1.223-8.643-.49-4.402-.49-8.479v-3.995zm14.431 0v4.077q0 3.995-.489 8.397-.49 4.321-1.223 8.643h-4.484q-.734-4.322-1.223-8.643-.49-4.402-.49-8.479v-3.995zm45.494 19.567q-3.18 11.904-7.5 22.829-4.24 10.925-8.235 19.567h-6.849q-3.995-8.642-8.316-19.567-4.24-10.925-7.42-22.829h8.154q.978 3.995 2.283 8.561 1.386 4.484 2.853 8.969 1.55 4.402 3.099 8.56 1.549 4.158 2.935 7.42 1.386-3.262 2.935-7.42 1.549-4.158 3.016-8.56 1.55-4.485 2.854-8.969 1.386-4.566 2.364-8.56zm22.177 36.934q2.69 0 4.728-.082 2.12-.163 3.506-.489v-12.637q-.815-.408-2.69-.652-1.794-.326-4.403-.326-1.712 0-3.669.244-1.875.245-3.506 1.06-1.549.734-2.609 2.12-1.06 1.304-1.06 3.506 0 4.076 2.61 5.707 2.609 1.549 7.093 1.549zm-.653-37.993q4.566 0 7.664 1.223 3.18 1.14 5.055 3.342 1.957 2.12 2.772 5.137.816 2.935.816 6.522v26.498q-.979.163-2.772.489-1.713.244-3.914.489t-4.81.408q-2.528.244-5.055.244-3.587 0-6.604-.734-3.017-.733-5.218-2.282-2.201-1.631-3.424-4.24-1.223-2.609-1.223-6.278 0-3.506 1.386-6.033 1.467-2.528 3.913-4.077 2.446-1.549 5.707-2.283 3.262-.733 6.849-.733 1.141 0 2.364.163 1.223.081 2.283.326 1.142.163 1.957.326.815.163 1.141.245v-2.12q0-1.875-.407-3.67-.408-1.874-1.468-3.26-1.06-1.468-2.935-2.283-1.794-.897-4.729-.897-3.75 0-6.604.57-2.772.49-4.158 1.06l-.897-6.277q1.468-.652 4.892-1.223 3.424-.652 7.42-.652zm41.581 44.27q-7.012-.162-9.947-3.016-2.935-2.854-2.935-8.887v-50.875l7.583-1.304v50.956q0 1.875.326 3.098.326 1.223 1.06 1.957.733.734 1.956 1.142 1.223.326 3.017.57zm43.293-2.038q-2.61.653-6.93 1.386-4.24.734-9.865.734-4.892 0-8.235-1.386-3.343-1.467-5.381-4.076-2.038-2.61-2.935-6.115-.897-3.587-.897-7.909V131.86h7.582v22.177q0 7.745 2.446 11.088 2.446 3.343 8.235 3.343 1.223 0 2.527-.082 1.305-.081 2.446-.163 1.142-.163 2.038-.244.979-.164 1.386-.327V131.86h7.583zm10.68-19.893q0-5.626 1.63-9.784 1.632-4.24 4.322-7.011 2.69-2.772 6.196-4.158 3.506-1.386 7.175-1.386 8.56 0 13.126 5.38 4.566 5.3 4.566 16.225v1.305q0 .733-.081 1.386h-29.025q.489 6.604 3.832 10.028 3.342 3.424 10.436 3.424 3.995 0 6.685-.652 2.772-.734 4.158-1.386l1.06 6.36q-1.386.733-4.892 1.548-3.424.816-7.827.816-5.544 0-9.62-1.63-3.995-1.713-6.604-4.648-2.61-2.935-3.914-6.93-1.223-4.077-1.223-8.887zm29.107-4.158q.081-5.137-2.61-8.398-2.608-3.343-7.256-3.343-2.608 0-4.647 1.06-1.956.979-3.342 2.61-1.387 1.63-2.202 3.75-.734 2.12-.978 4.32zm26.09-36.689v4.077q0 3.995-.49 8.397-.489 4.321-1.223 8.643h-4.484q-.734-4.322-1.223-8.643-.489-4.402-.489-8.479v-3.995zm14.43 0v4.077q0 3.995-.489 8.397-.489 4.321-1.223 8.643h-4.484q-.734-4.322-1.223-8.643-.489-4.402-.489-8.479v-3.995zm29.759 40.52q-1.957 0-3.343.735-1.386.652-2.364 1.793-.897 1.06-1.386 2.528-.408 1.386-.408 2.853v14.676q0 3.343-.734 5.952-.733 2.609-2.527 4.402-1.794 1.794-4.81 2.69-2.935.898-7.338.898h-.326v-5.952q4.647 0 6.604-1.712 2.038-1.631 2.038-6.36V162.76q0-5.381 1.386-8.317 1.468-2.935 4.077-4.565-2.61-1.63-4.077-4.566-1.386-2.935-1.386-8.316V124.44q0-4.729-2.038-6.36-1.957-1.711-6.604-1.711v-5.952h.326q4.403 0 7.338.978 3.016.897 4.81 2.69 1.794 1.713 2.527 4.322.734 2.609.734 5.952v14.675q0 1.468.408 2.935.489 1.386 1.386 2.528.978 1.06 2.364 1.793 1.386.653 3.343.653z" aria-label="{&quot;key&quot;:&quot;value&quot;}" style="font-size:81.5306px;font-family:Ubuntu;-inkscape-font-specification:Ubuntu;letter-spacing:0;fill:#fff;stroke:#000;stroke-width:10.5634;stroke-linecap:round;stroke-linejoin:round;stroke-opacity:.311589;paint-order:markers stroke fill"/></svg>