<svg xmlns="http://www.w3.org/2000/svg" width="600" height="300" viewBox="0 0 600 300"><g stroke-miterlimit="10"><path d="M0 300V0h600v300z" fill="#ffac24"/><g fill-opacity=".129"><path d="M393.663 300 600 93.663V300zM0 93.664 206.337 300H0z"/><path d="M30 300 330 0h261L291 300z"/><path d="M470 300 170 0h114l300 300z"/></g><path d="M313.767 242.515a6.52 6.52 0 0 0 4.61-4.61l1.375-5.115c.654-2.417 4.084-2.417 4.733 0l1.379 5.115a6.52 6.52 0 0 0 4.607 4.61l5.114 1.375c2.418.654 2.418 4.084 0 4.737l-5.114 1.375a6.53 6.53 0 0 0-4.607 4.607l-1.379 5.114c-.65 2.418-4.08 2.418-4.733 0l-1.375-5.114a6.52 6.52 0 0 0-4.61-4.607l-5.115-1.375c-2.417-.653-2.417-4.083 0-4.737z" fill="#fff" fill-rule="evenodd" stroke-opacity=".129" stroke="#000" stroke-width="10"/><path d="M313.767 242.515a6.52 6.52 0 0 0 4.61-4.61l1.375-5.115c.654-2.417 4.084-2.417 4.733 0l1.379 5.115a6.52 6.52 0 0 0 4.607 4.61l5.114 1.375c2.418.654 2.418 4.084 0 4.737l-5.114 1.375a6.53 6.53 0 0 0-4.607 4.607l-1.379 5.114c-.65 2.418-4.08 2.418-4.733 0l-1.375-5.114a6.52 6.52 0 0 0-4.61-4.607l-5.115-1.375c-2.417-.653-2.417-4.083 0-4.737z" fill="#fff" fill-rule="evenodd"/><path d="M310.173 50.962a7.38 7.38 0 0 0 5.214-5.214l1.555-5.785c.738-2.734 4.618-2.734 5.352 0l1.56 5.785a7.38 7.38 0 0 0 5.21 5.214l5.784 1.555c2.734.739 2.734 4.618 0 5.357l-5.785 1.555a7.38 7.38 0 0 0-5.21 5.21l-1.559 5.784c-.734 2.734-4.614 2.734-5.352 0l-1.555-5.785a7.38 7.38 0 0 0-5.214-5.21l-5.785-1.554c-2.734-.74-2.734-4.618 0-5.357z" fill="#fff" fill-rule="evenodd" stroke-opacity=".129" stroke="#000" stroke-width="10"/><path d="M310.173 50.962a7.38 7.38 0 0 0 5.214-5.214l1.555-5.785c.738-2.734 4.618-2.734 5.352 0l1.56 5.785a7.38 7.38 0 0 0 5.21 5.214l5.784 1.555c2.734.739 2.734 4.618 0 5.357l-5.785 1.555a7.38 7.38 0 0 0-5.21 5.21l-1.559 5.784c-.734 2.734-4.614 2.734-5.352 0l-1.555-5.785a7.38 7.38 0 0 0-5.214-5.21l-5.785-1.554c-2.734-.74-2.734-4.618 0-5.357z" fill="#fff" fill-rule="evenodd"/><path d="M243.923 150c0-30.97 25.107-56.077 56.077-56.077S356.077 119.03 356.077 150 330.97 206.077 300 206.077 243.923 180.97 243.923 150z" fill="#fff" stroke-opacity=".129" stroke="#000" stroke-width="15"/><path d="M243.923 150c0-30.97 25.107-56.077 56.077-56.077S356.077 119.03 356.077 150 330.97 206.077 300 206.077 243.923 180.97 243.923 150" fill="#fff"/><path d="M332.286 109.987c0-18.356 14.88-33.236 33.236-33.236s33.236 14.88 33.236 33.236-14.88 33.235-33.236 33.235-33.236-14.88-33.236-33.235z" fill="#fff" stroke-opacity=".129" stroke="#000" stroke-width="15"/><path d="M332.286 109.987c0-18.356 14.88-33.236 33.236-33.236s33.236 14.88 33.236 33.236-14.88 33.235-33.236 33.235-33.236-14.88-33.236-33.235" fill="#fff"/><path d="M232.517 77.01a6.52 6.52 0 0 0 4.61-4.61l1.376-5.114c.653-2.418 4.083-2.418 4.732 0l1.38 5.114a6.52 6.52 0 0 0 4.606 4.61l5.114 1.376c2.418.653 2.418 4.083 0 4.736l-5.114 1.375a6.53 6.53 0 0 0-4.607 4.607l-1.379 5.115c-.65 2.418-4.08 2.418-4.732 0l-1.376-5.115a6.52 6.52 0 0 0-4.61-4.607l-5.114-1.375c-2.418-.653-2.418-4.083 0-4.736z" fill="#fff" fill-rule="evenodd" stroke-opacity=".129" stroke="#000" stroke-width="10"/><path d="M232.517 77.01a6.52 6.52 0 0 0 4.61-4.61l1.376-5.114c.653-2.418 4.083-2.418 4.732 0l1.38 5.114a6.52 6.52 0 0 0 4.606 4.61l5.114 1.376c2.418.653 2.418 4.083 0 4.736l-5.114 1.375a6.53 6.53 0 0 0-4.607 4.607l-1.379 5.115c-.65 2.418-4.08 2.418-4.732 0l-1.376-5.115a6.52 6.52 0 0 0-4.61-4.607l-5.114-1.375c-2.418-.653-2.418-4.083 0-4.736z" fill="#fff" fill-rule="evenodd"/><path d="M332.49 150c0 12.56-10.183 22.743-22.743 22.743h-19.494c-12.56 0-22.743-10.183-22.743-22.743s10.183-22.743 22.743-22.743h19.494c12.56 0 22.743 10.183 22.743 22.743zm-6.495 0c0-8.973-7.272-16.247-16.245-16.248-8.973 0-16.247 7.272-16.248 16.245 0 8.972 7.272 16.247 16.245 16.248 8.973 0 16.247-7.272 16.248-16.245z" fill="#ed8114" stroke-opacity=".129" stroke="#000" stroke-width="6"/><path d="M332.49 150c0 12.56-10.183 22.743-22.743 22.743h-19.494c-12.56 0-22.743-10.183-22.743-22.743s10.183-22.743 22.743-22.743h19.494c12.56 0 22.743 10.183 22.743 22.743m-6.495 0c0-8.973-7.272-16.247-16.245-16.248-8.973 0-16.247 7.272-16.248 16.245 0 8.972 7.272 16.247 16.245 16.248 8.973 0 16.247-7.272 16.248-16.245" fill="#3c2105"/><path d="m379.357 104.203-1.941-1.946-6.841 5.183a1.78 1.78 0 0 1-2.51-.362c-.486-.647-.475-1.54 0-2.15l5.17-6.86-1.894-1.902c-.544-.545-.157-1.448.587-1.448l8.027-.011a.87.87 0 0 1 .847.849v8.058c0 .746-.913 1.123-1.445.589m-27.67 11.567 1.94 1.946 6.842-5.184c.78-.6 1.912-.439 2.51.362.485.648.474 1.54 0 2.151l-5.173 6.86 1.897 1.902c.543.545.157 1.448-.588 1.448l-8.026.011a.87.87 0 0 1-.847-.848v-8.06c0-.746.912-1.122 1.445-.588m0-11.567c-.533.534-1.445.157-1.445-.589v-8.058a.87.87 0 0 1 .847-.85l8.026.012c.745 0 1.131.903.588 1.448l-1.897 1.903 5.173 6.858c.474.611.485 1.504 0 2.151a1.78 1.78 0 0 1-2.51.362l-6.841-5.183-1.941 1.946m27.67 11.567c.532-.535 1.445-.158 1.445.589v8.059a.87.87 0 0 1-.847.848l-8.027-.01c-.744 0-1.13-.904-.587-1.45l1.893-1.901-5.17-6.86c-.474-.61-.485-1.503 0-2.15a1.78 1.78 0 0 1 2.51-.363l6.842 5.184 1.94-1.946" fill="#3c2105" fill-rule="evenodd" stroke-opacity=".129" stroke="#000" stroke-width="4.5"/><path d="m379.357 104.203-1.941-1.946-6.841 5.183a1.78 1.78 0 0 1-2.51-.362c-.486-.647-.475-1.54 0-2.15l5.17-6.86-1.894-1.902c-.544-.545-.157-1.448.587-1.448l8.027-.011a.87.87 0 0 1 .847.849v8.058c0 .746-.913 1.123-1.445.589m-27.67 11.567 1.94 1.946 6.842-5.184c.78-.6 1.912-.439 2.51.362.485.648.474 1.54 0 2.151l-5.173 6.86 1.897 1.902c.543.545.157 1.448-.588 1.448l-8.026.011a.87.87 0 0 1-.847-.848v-8.06c0-.746.912-1.122 1.445-.588m0-11.567c-.533.534-1.445.157-1.445-.589v-8.058a.87.87 0 0 1 .847-.85l8.026.012c.745 0 1.131.903.588 1.448l-1.897 1.903 5.173 6.858c.474.611.485 1.504 0 2.151a1.78 1.78 0 0 1-2.51.362l-6.841-5.183-1.941 1.946m27.67 11.567c.532-.535 1.445-.158 1.445.589v8.059a.87.87 0 0 1-.847.848l-8.027-.01c-.744 0-1.13-.904-.587-1.45l1.893-1.901-5.17-6.86c-.474-.61-.485-1.503 0-2.15a1.78 1.78 0 0 1 2.51-.363l6.842 5.184 1.94-1.946" fill="#3c2105" fill-rule="evenodd" stroke-opacity=".129" stroke="#000" stroke-width="4.5"/><path d="m379.357 104.203-1.941-1.946-6.841 5.183a1.78 1.78 0 0 1-2.51-.362c-.486-.647-.475-1.54 0-2.15l5.17-6.86-1.894-1.902c-.544-.545-.157-1.448.587-1.448l8.027-.011a.87.87 0 0 1 .847.849v8.058c0 .746-.913 1.123-1.445.589m-27.67 11.567 1.94 1.946 6.842-5.184c.78-.6 1.912-.439 2.51.362.485.648.474 1.54 0 2.151l-5.173 6.86 1.897 1.902c.543.545.157 1.448-.588 1.448l-8.026.011a.87.87 0 0 1-.847-.848v-8.06c0-.746.912-1.122 1.445-.588m0-11.567c-.533.534-1.445.157-1.445-.589v-8.058a.87.87 0 0 1 .847-.85l8.026.012c.745 0 1.131.903.588 1.448l-1.897 1.903 5.173 6.858c.474.611.485 1.504 0 2.151a1.78 1.78 0 0 1-2.51.362l-6.841-5.183zm27.67 11.567c.532-.535 1.445-.158 1.445.589v8.059a.87.87 0 0 1-.847.848l-8.027-.01c-.744 0-1.13-.904-.587-1.45l1.893-1.901-5.17-6.86c-.474-.61-.485-1.503 0-2.15a1.78 1.78 0 0 1 2.51-.363l6.842 5.184 1.94-1.946" fill="#3c2105" fill-rule="evenodd"/><path d="M202.12 129.992c0-12.56 10.183-22.743 22.744-22.743s22.742 10.182 22.742 22.743-10.182 22.742-22.742 22.742-22.743-10.182-22.743-22.742z" fill="#fff" stroke-opacity=".129" stroke="#000" stroke-width="15"/><path d="M202.12 129.992c0-12.56 10.183-22.743 22.744-22.743s22.742 10.182 22.742 22.743-10.182 22.742-22.742 22.742-22.743-10.182-22.743-22.742z" fill="#fff"/><path d="M230.14 216.747c0-15.317 12.418-27.734 27.735-27.734s27.733 12.417 27.733 27.734-12.416 27.734-27.733 27.734-27.734-12.417-27.734-27.734z" fill="#fff" stroke-opacity=".129" stroke="#000" stroke-width="15"/><path d="M230.14 216.747c0-15.317 12.418-27.734 27.735-27.734s27.733 12.417 27.733 27.734-12.416 27.734-27.733 27.734-27.734-12.417-27.734-27.734z" fill="#fff"/><path d="M330.285 192.739c0-15.317 12.417-27.734 27.734-27.734s27.734 12.417 27.734 27.734-12.417 27.734-27.734 27.734-27.734-12.417-27.734-27.734z" fill="#fff" stroke-opacity=".129" stroke="#000" stroke-width="15"/><path d="M330.285 192.739c0-15.317 12.417-27.734 27.734-27.734s27.734 12.417 27.734 27.734-12.417 27.734-27.734 27.734-27.734-12.417-27.734-27.734" fill="#fff"/><path d="M220.505 119.5h8.717l6.134 6.133v8.717l-6.134 6.134h-8.717l-6.134-6.134v-8.717z" fill="#fff" stroke-opacity=".129" stroke="#000" stroke-width="6" stroke-linecap="round" stroke-linejoin="round"/><path d="M220.505 119.5h8.717l6.134 6.133v8.717l-6.134 6.134h-8.717l-6.134-6.134v-8.717z" fill="#3c2105"/><path d="M271.504 204.89v15.402c0 .305-.122.611-.367.733-1.955 1.712-4.4 2.567-6.906 2.567s-4.95-.917-6.907-2.567c-1.589-1.344-3.544-2.139-5.622-2.139a8.34 8.34 0 0 0-5.257 1.834v10.207c0 .61-.489 1.1-1.1 1.1s-1.1-.49-1.1-1.1V204.89c0-.49.306-.795.611-.978 1.956-1.59 4.279-2.445 6.723-2.445 2.506 0 5.012.917 6.968 2.567 1.589 1.345 3.545 2.078 5.623 2.078s4.034-.733 5.623-2.078c.366-.244.794-.305 1.161-.122s.55.55.55.978z" fill="#3c2105" stroke-opacity=".129" stroke="#000" stroke-width="4.5"/><path d="M271.504 204.89v15.402c0 .305-.122.611-.367.733-1.955 1.712-4.4 2.567-6.906 2.567s-4.95-.917-6.907-2.567c-1.589-1.344-3.544-2.139-5.622-2.139a8.34 8.34 0 0 0-5.257 1.834v10.207c0 .61-.489 1.1-1.1 1.1s-1.1-.49-1.1-1.1V204.89c0-.49.306-.795.611-.978 1.956-1.59 4.279-2.445 6.723-2.445 2.506 0 5.012.917 6.968 2.567 1.589 1.345 3.545 2.078 5.623 2.078s4.034-.733 5.623-2.078c.366-.244.794-.305 1.161-.122s.55.55.55.978" fill="#3c2105"/><path d="M342.74 208.082v-30.687h7.97v30.686zm22.586 0v-30.687h7.973v30.686z" fill="#fff"/><path d="M342.74 208.082v-30.687h7.97v30.686zm22.586 0v-30.687h7.973v30.686z" fill="#fff"/><path d="M342.74 208.082v-30.687h7.97v30.686zm22.586 0v-30.687h7.973v30.686z" fill="#fff"/><path d="M342.74 208.082v-30.687h7.97v30.686zm22.586 0v-30.687h7.973v30.686z" fill="#fff"/><path d="M342.74 208.082v-30.687h7.97v30.686zm22.586 0v-30.687h7.973v30.686z" fill="#fff"/><path d="M342.74 208.082v-30.687h7.97v30.686zm22.586 0v-30.687h7.973v30.686z" fill="#fff"/><path d="M342.74 208.082v-30.687h7.97v30.686zm22.586 0v-30.687h7.973v30.686z" fill="#fff"/><path d="M342.74 208.082v-30.687h7.97v30.686zm22.586 0v-30.687h7.973v30.686z" fill="#fff"/><path d="M344.39 206.425v-27.372h7.11v27.37zm20.147 0v-27.372h7.112v27.37z" fill="#fff" stroke-opacity=".129" stroke="#000" stroke-width="5.5"/><path d="M344.39 206.425v-27.372h7.11v27.37zm20.147 0v-27.372h7.112v27.37z" fill="#3c2105"/></g></svg>
