<svg xmlns="http://www.w3.org/2000/svg" width="600" height="300" viewBox="45 173 600 300"><g stroke-miterlimit="10" data-paper-data="{&quot;isPaintingLayer&quot;:true}"><path fill="#ffab19" d="M37.96251 485.26734V170.02961h608.22131v315.23773z"/><path fill="#ec9c13" d="M263.63808 168.24141V.74934h166.10784v167.49207z"/><path fill="#b87d17" d="M421.80741 167.49207V0h142.78013v167.49207z"/><path fill="#ec9c13" stroke="#ec9c13" stroke-linecap="round" stroke-linejoin="round" stroke-width="12" d="M374.03229 340.27278h25.74542l18.11715 18.11715v25.74542l-18.11715 18.11715h-25.74542l-18.11715-18.11715v-25.74542z"/><path fill="#ec9c13" stroke="#ec9c13" stroke-width="5.5" d="M447.30086 322.24604v-62.23791h16.16649v62.23444zm45.80945 0v-62.23791h16.17027v62.23444z" data-paper-data="{&quot;isPaintingLayer&quot;:true}"/><g fill="#ec9c13" stroke="#ec9c13" stroke-linecap="round" stroke-linejoin="round" stroke-width="10"><path d="M357.116 265.0255c8.83986-6.57917 20.94914-6.57917 29.789 0h0c8.83986 6.57917 20.94914 6.57917 29.789 0v40.28681c-8.83986 6.57917-20.94914 6.57917-29.789 0h0c-8.83986-6.57917-20.94914-6.57917-29.789 0M357.116 322.16305v-61.97971"/></g><g fill="#ec9c13" fill-rule="evenodd" stroke="#ec9c13" stroke-width="4.5"><path d="m510.56917 360.21669-4.52864-4.54033-15.96089 12.09326c-1.82166 1.39965-4.46053 1.03269-5.85658-.84489-1.13215-1.51059-1.10663-3.593 0-5.01824l12.06217-16.00204-4.41797-4.43789c-1.26836-1.27164-.36602-3.37964 1.37051-3.37964l18.72744-.02559c1.0811.02559 1.9749.92172 1.9749 1.97999v18.80131c0 1.74102-2.12812 2.62007-3.37093 1.37405M446.01226 387.20295l4.52864 4.54069 15.96089-12.09429c1.82166-1.39975 4.46053-1.02421 5.85658.84499 1.13215 1.51072 1.10663 3.59328 0 5.01864l-12.07067 16.00334 4.42648 4.43827c1.26835 1.27174.36602 3.37989-1.37051 3.37989l-18.72744.02562c-1.0811-.02561-1.9749-.92179-1.9749-1.98014V388.5771c0-1.74117 2.12811-2.62028 3.37093-1.37416M446.01226 360.21669c-1.24282 1.24602-3.37093.36696-3.37093-1.37405v-18.80131c0-1.05827.8938-1.95441 1.9749-1.97999l18.72744.02559c1.73654 0 2.63887 2.108 1.37051 3.37964l-4.42648 4.43789 12.07067 16.00204c1.10663 1.42524 1.13215 3.50764 0 5.01824-1.39605 1.87758-4.03492 2.24454-5.85658.84489l-15.96089-12.09326-4.52864 4.54033M510.56917 387.20295c1.24281-1.24613 3.37093-.36701 3.37093 1.37416v18.80286c0 1.05836-.89381 1.95453-1.9749 1.98014l-18.72744-.02562c-1.73654 0-2.63887-2.10815-1.37051-3.37989l4.41797-4.43827-12.06217-16.00334c-1.10663-1.42536-1.13215-3.50792 0-5.01864 1.39606-1.8692 4.03493-2.24474 5.85658-.84499l15.96089 12.09429 4.52864-4.54069"/></g><path fill="#ec9c13" stroke="#ec9c13" d="M321.30469 334.68413c0 26.48731-21.47219 47.95951-47.95951 47.95951h-41.10815c-26.48732 0-47.95951-21.4722-47.95951-47.95951 0-26.48732 21.4722-47.95951 47.95951-47.95951h41.10815c26.48732 0 47.95951 21.47219 47.95951 47.95951zm-13.69587 0c.00189-18.9214-15.3354-34.26176-34.25679-34.26364-18.92139-.00189-34.26176 15.3354-34.26364 34.2568-.00188 18.92139 15.3354 34.26175 34.2568 34.26364 18.9214.00188 34.26175-15.3354 34.26364-34.25679z"/><path fill="#fff" stroke="#fff" stroke-linecap="round" stroke-linejoin="round" stroke-width="12" d="M359.961 326.20149h25.74542l18.11715 18.11715v25.74542l-18.11715 18.11715H359.961l-18.11715-18.11715v-25.74542z"/><path fill="#fff" stroke="#fff" stroke-width="5.5" d="M433.22957 308.17475v-62.23791h16.16649v62.23444zm45.80945 0v-62.23791h16.17027v62.23444z" data-paper-data="{&quot;isPaintingLayer&quot;:true}"/><g fill="#fff" stroke="#fff" stroke-linecap="round" stroke-linejoin="round" stroke-width="10"><path d="M343.04471 250.95421c8.83986-6.57917 20.94914-6.57917 29.789 0h0c8.83986 6.57917 20.94914 6.57917 29.789 0v40.28681c-8.83986 6.57917-20.94914 6.57917-29.789 0h0c-8.83986-6.57917-20.94914-6.57917-29.789 0M343.04471 308.09176v-61.97971"/></g><g fill="#fff" fill-rule="evenodd" stroke="#fff" stroke-width="4.5"><path d="m496.49788 346.1454-4.52864-4.54033-15.96089 12.09326c-1.82166 1.39965-4.46053 1.03269-5.85658-.84489-1.13215-1.51059-1.10663-3.593 0-5.01824l12.06217-16.00204-4.41797-4.43789c-1.26836-1.27164-.36602-3.37964 1.37051-3.37964l18.72744-.02559c1.0811.02559 1.9749.92172 1.9749 1.97999v18.80131c0 1.74102-2.12812 2.62007-3.37093 1.37405M431.94097 373.13166l4.52864 4.54069 15.96089-12.09429c1.82166-1.39975 4.46053-1.02421 5.85658.84499 1.13215 1.51072 1.10663 3.59328 0 5.01864l-12.07067 16.00334 4.42648 4.43827c1.26835 1.27174.36602 3.37989-1.37051 3.37989l-18.72744.02562c-1.0811-.02561-1.9749-.92179-1.9749-1.98014v-18.80286c0-1.74117 2.12811-2.62028 3.37093-1.37416M431.94097 346.1454c-1.24282 1.24602-3.37093.36696-3.37093-1.37405v-18.80131c0-1.05827.8938-1.95441 1.9749-1.97999l18.72744.02559c1.73654 0 2.63887 2.108 1.37051 3.37964l-4.42648 4.43789 12.07067 16.00204c1.10663 1.42524 1.13215 3.50764 0 5.01824-1.39605 1.87758-4.03492 2.24454-5.85658.84489l-15.96089-12.09326-4.52864 4.54033M496.49788 373.13166c1.24281-1.24613 3.37093-.36701 3.37093 1.37416v18.80286c0 1.05836-.89381 1.95453-1.9749 1.98014l-18.72744-.02562c-1.73654 0-2.63887-2.10815-1.37051-3.37989l4.41797-4.43827-12.06217-16.00334c-1.10663-1.42536-1.13215-3.50792 0-5.01864 1.39606-1.8692 4.03493-2.24474 5.85658-.84499l15.96089 12.09429 4.52864-4.54069"/></g><path fill="#fff" d="M307.23339 320.61283c0 26.48732-21.47219 47.95951-47.95951 47.95951h-41.10815c-26.48732 0-47.95951-21.47219-47.95951-47.95951s21.47219-47.95951 47.95951-47.95951h41.10815c26.48732 0 47.95951 21.47219 47.95951 47.95951zm-13.69586 0c.00188-18.9214-15.3354-34.26176-34.25679-34.26364-18.9214-.00188-34.26176 15.3354-34.26364 34.25679-.00188 18.9214 15.3354 34.26176 34.25679 34.26364 18.9214.00188 34.26176-15.3354 34.26364-34.25679z"/><path fill="none" d="M170.20623 252.09925h137.02716v137.02716H170.20623z"/><path fill="none" stroke="#b87d17" stroke-linecap="round" stroke-width="50" d="m25 336.17179 154.78424 154.78424M502.48593 154.18304l166.04128 166.04128"/></g></svg>