<svg xmlns="http://www.w3.org/2000/svg" id="svg14" width="600" height="300" version="1.1" viewBox="0 0 600 300.00001"><defs id="defs1"><clipPath id="clip-path" transform="translate(0 139.36)"><path id="rect1" d="M0 0h600v300H0z" style="fill:none"/></clipPath><style id="style1">.cls-13{stroke-miterlimit:10;fill:#fff7d4;stroke:#fec776;stroke-width:4.11px}</style></defs><g id="background" transform="translate(0 -139.36)"><path id="rect2" d="M0 139.36h600v300H0z" style="fill:#618fca"/></g><g id="circles" transform="translate(0 -139.36)"><g id="g8" clip-path="url(#clip-path)" style="clip-path:url(#clip-path)"><circle id="circle2" cx="299.07001" cy="289.35999" r="26.700001" style="fill:#7eaedd"/><circle id="circle3" cx="299.07001" cy="289.35999" r="38.599998" style="stroke-width:6.43px;stroke-miterlimit:10;stroke:#7eaedd;fill:none"/><circle id="circle4" cx="299.07001" cy="289.35999" r="58.68" style="stroke-width:9.78px;stroke-miterlimit:10;stroke:#7eaedd;fill:none"/><circle id="circle5" cx="299.07001" cy="289.35999" r="83.690002" style="stroke-width:13.95px;stroke-miterlimit:10;stroke:#7eaedd;fill:none"/><circle id="circle6" cx="299.07001" cy="289.35999" r="120.07" style="stroke-width:20.01px;stroke-miterlimit:10;stroke:#7eaedd;fill:none"/><circle id="circle7" cx="300" cy="289.35999" r="176.53999" style="stroke-width:29.42px;stroke-miterlimit:10;stroke:#7eaedd;fill:none"/><circle id="circle8" cx="300" cy="289.35999" r="267.10999" style="stroke-width:44.52px;stroke-miterlimit:10;stroke:#7eaedd;fill:none"/></g></g><path id="path4" d="m404.57175 45.363862-50.42397-6.344278 20.11961 20.119612-74.331 74.331004-74.38232-74.382343 20.21202-20.027202-50.42569 6.342573-6.3443 50.42741 20.11963-20.119625 74.32758 74.327577-74.38063 74.38063-20.02721-20.21202 6.34258 50.42567 50.4274 6.3443-20.11962-20.11961 74.28822-74.28822 1.58478 1.58479.0394-.0394 72.79756 72.79756-20.21032 20.0289 50.42396-6.34427 6.3443-50.42399-20.11963 20.11963-74.29162-74.29164 1.58649-1.5865-.0377-.0377 72.79756-72.797557 20.02892 20.210323z" style="fill:#5ec9e0;fill-opacity:1;stroke:#009bb5;stroke-width:6.17;stroke-dasharray:none;stroke-opacity:1"/><path id="path3" d="m299.95312 30.609375-32.39257 25.152344h22.96093v84.828121h-84.88671l.10546-22.96093-25.15429 32.39257 25.15429 32.39454v-22.96094h84.82422v84.88476l-22.96093-.10546 32.39257 25.15429 32.39453-25.15429h-22.96093v-84.7793h1.80859v-.04492h83.07813l-.10352 22.96093 25.15234-32.39257-25.15234-32.39258v22.96094h-84.7832v-1.81055h-.04297V55.658203l22.96094.103516-32.39454-25.152344z" style="fill:#009bb5;fill-opacity:1;stroke:#5ec9e0;stroke-width:4.979;stroke-dasharray:none;stroke-opacity:1"/><g id="dango" transform="translate(0 -139.36)"><path id="path9" d="M355.86 210.3a4.43 4.43 0 0 1-3.14-1.3L241.93 98.2a4.44 4.44 0 1 1 6.28-6.27L359 202.72a4.44 4.44 0 0 1-3.14 7.58z" class="cls-13" transform="translate(0 139.36)"/><path id="path10" d="M288.53 114.11a24.42 24.42 0 1 1-24.41-24.41 24.41 24.41 0 0 1 24.41 24.41Z" class="cls-13" transform="translate(0 139.36)"/><path id="path11" d="M285.15 164.52a24.41 24.41 0 1 1 29.37-18.15 24.41 24.41 0 0 1-29.37 18.15z" class="cls-13" transform="translate(0 139.36)"/><path id="path12" d="M341.8 167.38A24.42 24.42 0 1 1 317.38 143a24.42 24.42 0 0 1 24.42 24.38Z" class="cls-13" transform="translate(0 139.36)"/><path id="path13" d="M355.86 210.3a4.43 4.43 0 0 1-3.14-1.3l-27.19-27.19a4.4406306 4.4406306 0 1 1 6.28-6.28L359 202.72a4.44 4.44 0 0 1-3.14 7.58z" class="cls-13" transform="translate(0 139.36)"/></g><g id="plus" transform="translate(0 -139.36)"><path id="path14" d="M360.3 90.63a6.6 6.6 0 0 1-6.6 6.59h-11.31v11.32a6.59 6.59 0 0 1-13.18 0V97.22H317.9a6.59 6.59 0 0 1 0-13.18h11.31V72.73a6.59 6.59 0 1 1 13.18 0V84h11.31a6.61 6.61 0 0 1 6.6 6.63z" style="stroke-width:4px;fill:#fff7d4;stroke:#fec776;stroke-miterlimit:10" transform="translate(0 139.36)"/></g></svg>