<svg xmlns="http://www.w3.org/2000/svg" width="600" height="300" viewBox="80 20 600 300"><g stroke-miterlimit="10" data-paper-data="{&quot;isPaintingLayer&quot;:true}"><path fill="#4c97ff" d="M51.51893 338.2328V0H708.5716v338.2328z"/><g stroke="#4280d7"><path fill="none" stroke-linecap="round" stroke-width="25" d="M41.43912 119.0908s47.67502-24.63948 88.10479-24.63948c19.2117 0 58.45537 34.39817 96.42551 35.70824 33.11095 1.14241 77.91766-24.69143 117.86031-24.95481 43.8257-.28899 87.19175 19.92305 130.69258 21.26423 39.05608 1.20414 78.87781-32.68363 112.03287-33.64325 72.00866-2.08419 120.89642 26.26508 120.89642 26.26508"/><path fill="#4280d7" stroke="none" d="M42.93245 342.33938V127.24904s39.33892-34.53285 76.90503-34.53285c19.47943 0 60.48086 35.76848 100.846 37.77228 35.95048 1.78465 76.06325-24.93844 119.42277-24.62746 43.54721.31233 88.22003 27.59701 131.50414 29.83136 48.76278 2.51716 88.21675-37.83015 125.97383-39.78015 55.9672-2.89047 100.16095 31.33682 100.16095 31.33682v215.09034z"/></g><path fill="#3373cc" d="M0 326.65971V185.54272s23.72523 24.63948 48.84518 24.63948c24.88874 0 57.69226-21.24303 129.52847-23.90572 39.66706-1.4703 85.31999 48.40857 131.51445 47.91634 48.3963-.51569 89.39794-51.4213 136.23491-56.76898 41.2748-4.71261 80.40729 22.21537 115.35622 23.38876 70.52391 2.36779 121.55261-15.26988 121.55261-15.26988v141.11699z"/><path fill="#4280d7" d="M268.51726 169.11639c0-61.5952 49.93277-111.52797 111.52797-111.52797S491.5732 107.52119 491.5732 169.11639s-49.93277 111.52797-111.52797 111.52797-111.52797-49.93277-111.52797-111.52797z"/><path fill="#fff" d="m297.20627 131.69353 13.98817 13.98817c-2.45247 7.35741-3.81496 15.25981-3.81496 23.43471 0 40.05699 32.60876 72.66576 72.66576 72.66576 40.05699 0 72.66576-32.60876 72.66576-72.66575 0-40.05699-32.60876-72.66576-72.66576-72.66576-8.17489 0-16.0773 1.36247-23.43471 3.81494L342.7132 86.36827c11.44486-5.17743 24.07052-8.08407 37.33203-8.08407 50.13938 0 90.83219 40.69284 90.83219 90.8322 0 50.13938-40.69282 90.83219-90.83219 90.83219-50.13936 0-90.8322-40.69282-90.8322-90.83219 0-13.35234 2.90662-25.97802 7.99323-37.42287zm37.42286-21.61806c0 7.53907-6.08575 13.62484-13.62482 13.62484s-13.62482-6.08575-13.62482-13.62484c0-7.53907 6.08575-13.62482 13.62482-13.62482s13.62482 6.08575 13.62482 13.62482z"/><g fill="none" stroke="#fff" stroke-linecap="round" stroke-width="20"><path d="M423.83529 169.11639H336.2552M380.04525 125.32634v87.5801"/></g></g></svg>