<svg version="1.1" xmlns="http://www.w3.org/2000/svg" xmlns:xlink="http://www.w3.org/1999/xlink" width="600.00001" height="300" viewBox="0,0,600.00001,300"><defs><linearGradient x1="67.88451" y1="76.41834" x2="100.35324" y2="293.70676" gradientUnits="userSpaceOnUse" id="color-1"><stop offset="0" stop-color="#fabb62"/><stop offset="1" stop-color="#da892a"/></linearGradient></defs><g transform="translate(60,-30)"><g data-paper-data="{&quot;isPaintingLayer&quot;:true}" fill-rule="nonzero" stroke-linecap="butt" stroke-linejoin="miter" stroke-miterlimit="10" stroke-dasharray="" stroke-dashoffset="0" style="mix-blend-mode: normal"><path d="M-60,330v-300h600.00001v300z" fill="#f9feff" stroke="none" stroke-width="1"/><path d="M-41.5,52c-0.82843,0 -1.5,-0.67157 -1.5,-1.5c0,-0.82843 0.67157,-1.5 1.5,-1.5c0.82843,0 1.5,0.67157 1.5,1.5c0,0.82843 -0.67157,1.5 -1.5,1.5z" fill="#d4d7d8" stroke="#000000" stroke-width="0"/><path d="M-9.35714,52c-0.82842,0 -1.5,-0.67157 -1.5,-1.5c0,-0.82843 0.67158,-1.5 1.5,-1.5c0.82843,0 1.5,0.67157 1.5,1.5c0,0.82843 -0.67158,1.5 -1.5,1.5z" fill="#d4d7d8" stroke="#000000" stroke-width="0"/><path d="M22,52c-0.82842,0 -1.5,-0.67157 -1.5,-1.5c0,-0.82843 0.67158,-1.5 1.5,-1.5c0.82842,0 1.5,0.67157 1.5,1.5c0,0.82843 -0.67158,1.5 -1.5,1.5z" fill="#d4d7d8" stroke="#000000" stroke-width="0"/><path d="M54.14286,52c-0.82843,0 -1.5,-0.67157 -1.5,-1.5c0,-0.82843 0.67157,-1.5 1.5,-1.5c0.82843,0 1.5,0.67157 1.5,1.5c0,0.82843 -0.67157,1.5 -1.5,1.5z" fill="#d4d7d8" stroke="#000000" stroke-width="0"/><path d="M85.5,52c-0.82842,0 -1.5,-0.67157 -1.5,-1.5c0,-0.82843 0.67158,-1.5 1.5,-1.5c0.82842,0 1.5,0.67157 1.5,1.5c0,0.82843 -0.67158,1.5 -1.5,1.5z" fill="#d4d7d8" stroke="#000000" stroke-width="0"/><path d="M117.64285,52c-0.82842,0 -1.5,-0.67157 -1.5,-1.5c0,-0.82843 0.67158,-1.5 1.5,-1.5c0.82842,0 1.5,0.67157 1.5,1.5c0,0.82843 -0.67158,1.5 -1.5,1.5z" fill="#d4d7d8" stroke="#000000" stroke-width="0"/><path d="M149,52c-0.82842,0 -1.5,-0.67157 -1.5,-1.5c0,-0.82843 0.67158,-1.5 1.5,-1.5c0.82842,0 1.5,0.67157 1.5,1.5c0,0.82843 -0.67158,1.5 -1.5,1.5z" fill="#d4d7d8" stroke="#000000" stroke-width="0"/><path d="M181.14286,52c-0.82843,0 -1.5,-0.67157 -1.5,-1.5c0,-0.82843 0.67157,-1.5 1.5,-1.5c0.82843,0 1.5,0.67157 1.5,1.5c0,0.82843 -0.67157,1.5 -1.5,1.5z" fill="#d4d7d8" stroke="#000000" stroke-width="0"/><path d="M214,52c-0.82842,0 -1.5,-0.67157 -1.5,-1.5c0,-0.82843 0.67158,-1.5 1.5,-1.5c0.82842,0 1.5,0.67157 1.5,1.5c0,0.82843 -0.67158,1.5 -1.5,1.5z" fill="#d4d7d8" stroke="#000000" stroke-width="0"/><path d="M246.14286,52c-0.82842,0 -1.5,-0.67157 -1.5,-1.5c0,-0.82843 0.67158,-1.5 1.5,-1.5c0.82842,0 1.5,0.67157 1.5,1.5c0,0.82843 -0.67158,1.5 -1.5,1.5z" fill="#d4d7d8" stroke="#000000" stroke-width="0"/><path d="M277.5,52c-0.82842,0 -1.5,-0.67157 -1.5,-1.5c0,-0.82843 0.67158,-1.5 1.5,-1.5c0.82842,0 1.5,0.67157 1.5,1.5c0,0.82843 -0.67158,1.5 -1.5,1.5z" fill="#d4d7d8" stroke="#000000" stroke-width="0"/><path d="M309.64286,52c-0.82842,0 -1.5,-0.67157 -1.5,-1.5c0,-0.82843 0.67158,-1.5 1.5,-1.5c0.82842,0 1.5,0.67157 1.5,1.5c0,0.82843 -0.67158,1.5 -1.5,1.5z" fill="#d4d7d8" stroke="#000000" stroke-width="0"/><path d="M341,52c-0.82842,0 -1.5,-0.67157 -1.5,-1.5c0,-0.82843 0.67158,-1.5 1.5,-1.5c0.82842,0 1.5,0.67157 1.5,1.5c0,0.82843 -0.67158,1.5 -1.5,1.5z" fill="#d4d7d8" stroke="#000000" stroke-width="0"/><path d="M373.14286,52c-0.82842,0 -1.5,-0.67157 -1.5,-1.5c0,-0.82843 0.67158,-1.5 1.5,-1.5c0.82842,0 1.5,0.67157 1.5,1.5c0,0.82843 -0.67158,1.5 -1.5,1.5z" fill="#d4d7d8" stroke="#000000" stroke-width="0"/><path d="M404.5,52c-0.82843,0 -1.5,-0.67157 -1.5,-1.5c0,-0.82843 0.67157,-1.5 1.5,-1.5c0.82843,0 1.5,0.67157 1.5,1.5c0,0.82843 -0.67157,1.5 -1.5,1.5z" fill="#d4d7d8" stroke="#000000" stroke-width="0"/><path d="M436.64286,52c-0.82842,0 -1.5,-0.67157 -1.5,-1.5c0,-0.82843 0.67158,-1.5 1.5,-1.5c0.82842,0 1.5,0.67157 1.5,1.5c0,0.82843 -0.67158,1.5 -1.5,1.5z" fill="#d4d7d8" stroke="#000000" stroke-width="0"/><path d="M467.5,52c-0.82843,0 -1.5,-0.67157 -1.5,-1.5c0,-0.82843 0.67157,-1.5 1.5,-1.5c0.82843,0 1.5,0.67157 1.5,1.5c0,0.82843 -0.67157,1.5 -1.5,1.5z" fill="#d4d7d8" stroke="#000000" stroke-width="0"/><path d="M499.64286,52c-0.82842,0 -1.5,-0.67157 -1.5,-1.5c0,-0.82843 0.67158,-1.5 1.5,-1.5c0.82842,0 1.5,0.67157 1.5,1.5c0,0.82843 -0.67158,1.5 -1.5,1.5z" fill="#d4d7d8" stroke="#000000" stroke-width="0"/><path d="M531,52c-0.82842,0 -1.5,-0.67157 -1.5,-1.5c0,-0.82843 0.67158,-1.5 1.5,-1.5c0.82842,0 1.5,0.67157 1.5,1.5c0,0.82843 -0.67158,1.5 -1.5,1.5z" fill="#d4d7d8" stroke="#000000" stroke-width="0"/><path d="M-41.5,83c-0.82843,0 -1.5,-0.67157 -1.5,-1.5c0,-0.82843 0.67157,-1.5 1.5,-1.5c0.82843,0 1.5,0.67157 1.5,1.5c0,0.82843 -0.67157,1.5 -1.5,1.5z" fill="#d4d7d8" stroke="#000000" stroke-width="0"/><path d="M-9.35714,83c-0.82842,0 -1.5,-0.67157 -1.5,-1.5c0,-0.82843 0.67158,-1.5 1.5,-1.5c0.82842,0 1.5,0.67157 1.5,1.5c0,0.82843 -0.67158,1.5 -1.5,1.5z" fill="#d4d7d8" stroke="#000000" stroke-width="0"/><path d="M22,83c-0.82842,0 -1.5,-0.67157 -1.5,-1.5c0,-0.82843 0.67158,-1.5 1.5,-1.5c0.82842,0 1.5,0.67157 1.5,1.5c0,0.82843 -0.67158,1.5 -1.5,1.5z" fill="#d4d7d8" stroke="#000000" stroke-width="0"/><path d="M54.14286,83c-0.82843,0 -1.5,-0.67157 -1.5,-1.5c0,-0.82843 0.67157,-1.5 1.5,-1.5c0.82843,0 1.5,0.67157 1.5,1.5c0,0.82843 -0.67157,1.5 -1.5,1.5z" fill="#d4d7d8" stroke="#000000" stroke-width="0"/><path d="M85.5,83c-0.82842,0 -1.5,-0.67157 -1.5,-1.5c0,-0.82843 0.67158,-1.5 1.5,-1.5c0.82842,0 1.5,0.67157 1.5,1.5c0,0.82843 -0.67158,1.5 -1.5,1.5z" fill="#d4d7d8" stroke="#000000" stroke-width="0"/><path d="M117.64286,83c-0.82842,0 -1.5,-0.67157 -1.5,-1.5c0,-0.82843 0.67158,-1.5 1.5,-1.5c0.82842,0 1.5,0.67157 1.5,1.5c0,0.82843 -0.67158,1.5 -1.5,1.5z" fill="#d4d7d8" stroke="#000000" stroke-width="0"/><path d="M149,83c-0.82843,0 -1.5,-0.67157 -1.5,-1.5c0,-0.82843 0.67157,-1.5 1.5,-1.5c0.82843,0 1.5,0.67157 1.5,1.5c0,0.82843 -0.67157,1.5 -1.5,1.5z" fill="#d4d7d8" stroke="#000000" stroke-width="0"/><path d="M181.14286,83c-0.82843,0 -1.5,-0.67157 -1.5,-1.5c0,-0.82843 0.67157,-1.5 1.5,-1.5c0.82843,0 1.5,0.67157 1.5,1.5c0,0.82843 -0.67157,1.5 -1.5,1.5z" fill="#d4d7d8" stroke="#000000" stroke-width="0"/><path d="M214,83c-0.82843,0 -1.5,-0.67157 -1.5,-1.5c0,-0.82843 0.67157,-1.5 1.5,-1.5c0.82843,0 1.5,0.67157 1.5,1.5c0,0.82843 -0.67157,1.5 -1.5,1.5z" fill="#d4d7d8" stroke="#000000" stroke-width="0"/><path d="M246.14286,83c-0.82842,0 -1.5,-0.67157 -1.5,-1.5c0,-0.82843 0.67158,-1.5 1.5,-1.5c0.82842,0 1.5,0.67157 1.5,1.5c0,0.82843 -0.67158,1.5 -1.5,1.5z" fill="#d4d7d8" stroke="#000000" stroke-width="0"/><path d="M277.5,83c-0.82842,0 -1.5,-0.67157 -1.5,-1.5c0,-0.82843 0.67158,-1.5 1.5,-1.5c0.82842,0 1.5,0.67157 1.5,1.5c0,0.82843 -0.67158,1.5 -1.5,1.5z" fill="#d4d7d8" stroke="#000000" stroke-width="0"/><path d="M309.64286,83c-0.82842,0 -1.5,-0.67157 -1.5,-1.5c0,-0.82843 0.67158,-1.5 1.5,-1.5c0.82842,0 1.5,0.67157 1.5,1.5c0,0.82843 -0.67158,1.5 -1.5,1.5z" fill="#d4d7d8" stroke="#000000" stroke-width="0"/><path d="M341,83c-0.82842,0 -1.5,-0.67157 -1.5,-1.5c0,-0.82843 0.67158,-1.5 1.5,-1.5c0.82842,0 1.5,0.67157 1.5,1.5c0,0.82843 -0.67158,1.5 -1.5,1.5z" fill="#d4d7d8" stroke="#000000" stroke-width="0"/><path d="M373.14286,83c-0.82842,0 -1.5,-0.67157 -1.5,-1.5c0,-0.82843 0.67158,-1.5 1.5,-1.5c0.82842,0 1.5,0.67157 1.5,1.5c0,0.82843 -0.67158,1.5 -1.5,1.5z" fill="#d4d7d8" stroke="#000000" stroke-width="0"/><path d="M404.5,83c-0.82842,0 -1.5,-0.67157 -1.5,-1.5c0,-0.82843 0.67158,-1.5 1.5,-1.5c0.82842,0 1.5,0.67157 1.5,1.5c0,0.82843 -0.67158,1.5 -1.5,1.5z" fill="#d4d7d8" stroke="#000000" stroke-width="0"/><path d="M436.64286,83c-0.82842,0 -1.5,-0.67157 -1.5,-1.5c0,-0.82843 0.67158,-1.5 1.5,-1.5c0.82842,0 1.5,0.67157 1.5,1.5c0,0.82843 -0.67158,1.5 -1.5,1.5z" fill="#d4d7d8" stroke="#000000" stroke-width="0"/><path d="M467.5,83c-0.82842,0 -1.5,-0.67157 -1.5,-1.5c0,-0.82843 0.67158,-1.5 1.5,-1.5c0.82842,0 1.5,0.67157 1.5,1.5c0,0.82843 -0.67158,1.5 -1.5,1.5z" fill="#d4d7d8" stroke="#000000" stroke-width="0"/><path d="M499.64286,83c-0.82842,0 -1.5,-0.67157 -1.5,-1.5c0,-0.82843 0.67158,-1.5 1.5,-1.5c0.82842,0 1.5,0.67157 1.5,1.5c0,0.82843 -0.67158,1.5 -1.5,1.5z" fill="#d4d7d8" stroke="#000000" stroke-width="0"/><path d="M531,83c-0.82843,0 -1.5,-0.67157 -1.5,-1.5c0,-0.82843 0.67157,-1.5 1.5,-1.5c0.82843,0 1.5,0.67157 1.5,1.5c0,0.82843 -0.67157,1.5 -1.5,1.5z" fill="#d4d7d8" stroke="#000000" stroke-width="0"/><path d="M-41.5,117c-0.82843,0 -1.5,-0.67157 -1.5,-1.5c0,-0.82843 0.67157,-1.5 1.5,-1.5c0.82843,0 1.5,0.67157 1.5,1.5c0,0.82843 -0.67157,1.5 -1.5,1.5z" fill="#d4d7d8" stroke="#000000" stroke-width="0"/><path d="M-9.35714,117c-0.82842,0 -1.5,-0.67157 -1.5,-1.5c0,-0.82843 0.67158,-1.5 1.5,-1.5c0.82843,0 1.5,0.67157 1.5,1.5c0,0.82843 -0.67158,1.5 -1.5,1.5z" fill="#d4d7d8" stroke="#000000" stroke-width="0"/><path d="M22,117c-0.82842,0 -1.5,-0.67157 -1.5,-1.5c0,-0.82843 0.67158,-1.5 1.5,-1.5c0.82842,0 1.5,0.67157 1.5,1.5c0,0.82843 -0.67158,1.5 -1.5,1.5z" fill="#d4d7d8" stroke="#000000" stroke-width="0"/><path d="M54.14286,117c-0.82843,0 -1.5,-0.67157 -1.5,-1.5c0,-0.82843 0.67157,-1.5 1.5,-1.5c0.82843,0 1.5,0.67157 1.5,1.5c0,0.82843 -0.67157,1.5 -1.5,1.5z" fill="#d4d7d8" stroke="#000000" stroke-width="0"/><path d="M85.5,117c-0.82842,0 -1.5,-0.67157 -1.5,-1.5c0,-0.82843 0.67158,-1.5 1.5,-1.5c0.82842,0 1.5,0.67157 1.5,1.5c0,0.82843 -0.67158,1.5 -1.5,1.5z" fill="#d4d7d8" stroke="#000000" stroke-width="0"/><path d="M117.64286,117c-0.82842,0 -1.5,-0.67157 -1.5,-1.5c0,-0.82843 0.67158,-1.5 1.5,-1.5c0.82842,0 1.5,0.67157 1.5,1.5c0,0.82843 -0.67158,1.5 -1.5,1.5z" fill="#d4d7d8" stroke="#000000" stroke-width="0"/><path d="M149,117c-0.82843,0 -1.5,-0.67157 -1.5,-1.5c0,-0.82843 0.67157,-1.5 1.5,-1.5c0.82843,0 1.5,0.67157 1.5,1.5c0,0.82843 -0.67157,1.5 -1.5,1.5z" fill="#d4d7d8" stroke="#000000" stroke-width="0"/><path d="M181.14286,117c-0.82843,0 -1.5,-0.67157 -1.5,-1.5c0,-0.82843 0.67157,-1.5 1.5,-1.5c0.82843,0 1.5,0.67157 1.5,1.5c0,0.82843 -0.67157,1.5 -1.5,1.5z" fill="#d4d7d8" stroke="#000000" stroke-width="0"/><path d="M214,117c-0.82843,0 -1.5,-0.67157 -1.5,-1.5c0,-0.82843 0.67157,-1.5 1.5,-1.5c0.82843,0 1.5,0.67157 1.5,1.5c0,0.82843 -0.67157,1.5 -1.5,1.5z" fill="#d4d7d8" stroke="#000000" stroke-width="0"/><path d="M246.14286,117c-0.82843,0 -1.5,-0.67157 -1.5,-1.5c0,-0.82843 0.67157,-1.5 1.5,-1.5c0.82843,0 1.5,0.67157 1.5,1.5c0,0.82843 -0.67157,1.5 -1.5,1.5z" fill="#d4d7d8" stroke="#000000" stroke-width="0"/><path d="M277.5,117c-0.82842,0 -1.5,-0.67157 -1.5,-1.5c0,-0.82843 0.67158,-1.5 1.5,-1.5c0.82842,0 1.5,0.67157 1.5,1.5c0,0.82843 -0.67158,1.5 -1.5,1.5z" fill="#d4d7d8" stroke="#000000" stroke-width="0"/><path d="M309.64286,117c-0.82842,0 -1.5,-0.67157 -1.5,-1.5c0,-0.82843 0.67158,-1.5 1.5,-1.5c0.82842,0 1.5,0.67157 1.5,1.5c0,0.82843 -0.67158,1.5 -1.5,1.5z" fill="#d4d7d8" stroke="#000000" stroke-width="0"/><path d="M341,117c-0.82842,0 -1.5,-0.67157 -1.5,-1.5c0,-0.82843 0.67158,-1.5 1.5,-1.5c0.82842,0 1.5,0.67157 1.5,1.5c0,0.82843 -0.67158,1.5 -1.5,1.5z" fill="#d4d7d8" stroke="#000000" stroke-width="0"/><path d="M373.14286,117c-0.82842,0 -1.5,-0.67157 -1.5,-1.5c0,-0.82843 0.67158,-1.5 1.5,-1.5c0.82842,0 1.5,0.67157 1.5,1.5c0,0.82843 -0.67158,1.5 -1.5,1.5z" fill="#d4d7d8" stroke="#000000" stroke-width="0"/><path d="M404.5,117c-0.82842,0 -1.5,-0.67157 -1.5,-1.5c0,-0.82843 0.67158,-1.5 1.5,-1.5c0.82842,0 1.5,0.67157 1.5,1.5c0,0.82843 -0.67158,1.5 -1.5,1.5z" fill="#d4d7d8" stroke="#000000" stroke-width="0"/><path d="M436.64286,117c-0.82842,0 -1.5,-0.67157 -1.5,-1.5c0,-0.82843 0.67158,-1.5 1.5,-1.5c0.82842,0 1.5,0.67157 1.5,1.5c0,0.82843 -0.67158,1.5 -1.5,1.5z" fill="#d4d7d8" stroke="#000000" stroke-width="0"/><path d="M467.5,117c-0.82842,0 -1.5,-0.67157 -1.5,-1.5c0,-0.82843 0.67158,-1.5 1.5,-1.5c0.82842,0 1.5,0.67157 1.5,1.5c0,0.82843 -0.67158,1.5 -1.5,1.5z" fill="#d4d7d8" stroke="#000000" stroke-width="0"/><path d="M499.64286,117c-0.82842,0 -1.5,-0.67157 -1.5,-1.5c0,-0.82843 0.67158,-1.5 1.5,-1.5c0.82842,0 1.5,0.67157 1.5,1.5c0,0.82843 -0.67158,1.5 -1.5,1.5z" fill="#d4d7d8" stroke="#000000" stroke-width="0"/><path d="M531,117c-0.82843,0 -1.5,-0.67157 -1.5,-1.5c0,-0.82843 0.67157,-1.5 1.5,-1.5c0.82843,0 1.5,0.67157 1.5,1.5c0,0.82843 -0.67157,1.5 -1.5,1.5z" fill="#d4d7d8" stroke="#000000" stroke-width="0"/><path d="M-41.5,148c-0.82843,0 -1.5,-0.67158 -1.5,-1.5c0,-0.82842 0.67157,-1.5 1.5,-1.5c0.82843,0 1.5,0.67158 1.5,1.5c0,0.82842 -0.67157,1.5 -1.5,1.5z" fill="#d4d7d8" stroke="#000000" stroke-width="0"/><path d="M-9.35714,148c-0.82842,0 -1.5,-0.67158 -1.5,-1.5c0,-0.82842 0.67158,-1.5 1.5,-1.5c0.82843,0 1.5,0.67158 1.5,1.5c0,0.82842 -0.67158,1.5 -1.5,1.5z" fill="#d4d7d8" stroke="#000000" stroke-width="0"/><path d="M22,148c-0.82842,0 -1.5,-0.67158 -1.5,-1.5c0,-0.82842 0.67158,-1.5 1.5,-1.5c0.82842,0 1.5,0.67158 1.5,1.5c0,0.82842 -0.67158,1.5 -1.5,1.5z" fill="#d4d7d8" stroke="#000000" stroke-width="0"/><path d="M54.14286,148c-0.82843,0 -1.5,-0.67158 -1.5,-1.5c0,-0.82842 0.67157,-1.5 1.5,-1.5c0.82843,0 1.5,0.67158 1.5,1.5c0,0.82842 -0.67157,1.5 -1.5,1.5z" fill="#d4d7d8" stroke="#000000" stroke-width="0"/><path d="M85.5,148c-0.82842,0 -1.5,-0.67158 -1.5,-1.5c0,-0.82842 0.67158,-1.5 1.5,-1.5c0.82842,0 1.5,0.67158 1.5,1.5c0,0.82842 -0.67158,1.5 -1.5,1.5z" fill="#d4d7d8" stroke="#000000" stroke-width="0"/><path d="M117.64286,148c-0.82842,0 -1.5,-0.67158 -1.5,-1.5c0,-0.82842 0.67158,-1.5 1.5,-1.5c0.82842,0 1.5,0.67158 1.5,1.5c0,0.82842 -0.67158,1.5 -1.5,1.5z" fill="#d4d7d8" stroke="#000000" stroke-width="0"/><path d="M149,148c-0.82843,0 -1.5,-0.67158 -1.5,-1.5c0,-0.82842 0.67157,-1.5 1.5,-1.5c0.82843,0 1.5,0.67158 1.5,1.5c0,0.82842 -0.67157,1.5 -1.5,1.5z" fill="#d4d7d8" stroke="#000000" stroke-width="0"/><path d="M181.14286,148c-0.82843,0 -1.5,-0.67158 -1.5,-1.5c0,-0.82842 0.67157,-1.5 1.5,-1.5c0.82843,0 1.5,0.67158 1.5,1.5c0,0.82842 -0.67157,1.5 -1.5,1.5z" fill="#d4d7d8" stroke="#000000" stroke-width="0"/><path d="M214,148c-0.82843,0 -1.5,-0.67158 -1.5,-1.5c0,-0.82842 0.67157,-1.5 1.5,-1.5c0.82843,0 1.5,0.67158 1.5,1.5c0,0.82842 -0.67157,1.5 -1.5,1.5z" fill="#d4d7d8" stroke="#000000" stroke-width="0"/><path d="M246.14286,148c-0.82843,0 -1.5,-0.67158 -1.5,-1.5c0,-0.82842 0.67157,-1.5 1.5,-1.5c0.82843,0 1.5,0.67158 1.5,1.5c0,0.82842 -0.67157,1.5 -1.5,1.5z" fill="#d4d7d8" stroke="#000000" stroke-width="0"/><path d="M277.5,148c-0.82842,0 -1.5,-0.67158 -1.5,-1.5c0,-0.82842 0.67158,-1.5 1.5,-1.5c0.82842,0 1.5,0.67158 1.5,1.5c0,0.82842 -0.67158,1.5 -1.5,1.5z" fill="#d4d7d8" stroke="#000000" stroke-width="0"/><path d="M309.64286,148c-0.82842,0 -1.5,-0.67158 -1.5,-1.5c0,-0.82842 0.67158,-1.5 1.5,-1.5c0.82842,0 1.5,0.67158 1.5,1.5c0,0.82842 -0.67158,1.5 -1.5,1.5z" fill="#d4d7d8" stroke="#000000" stroke-width="0"/><path d="M341,148c-0.82842,0 -1.5,-0.67158 -1.5,-1.5c0,-0.82842 0.67158,-1.5 1.5,-1.5c0.82842,0 1.5,0.67158 1.5,1.5c0,0.82842 -0.67158,1.5 -1.5,1.5z" fill="#d4d7d8" stroke="#000000" stroke-width="0"/><path d="M373.14286,148c-0.82842,0 -1.5,-0.67158 -1.5,-1.5c0,-0.82842 0.67158,-1.5 1.5,-1.5c0.82842,0 1.5,0.67158 1.5,1.5c0,0.82842 -0.67158,1.5 -1.5,1.5z" fill="#d4d7d8" stroke="#000000" stroke-width="0"/><path d="M404.5,148c-0.82842,0 -1.5,-0.67158 -1.5,-1.5c0,-0.82842 0.67158,-1.5 1.5,-1.5c0.82842,0 1.5,0.67158 1.5,1.5c0,0.82842 -0.67158,1.5 -1.5,1.5z" fill="#d4d7d8" stroke="#000000" stroke-width="0"/><path d="M436.64286,148c-0.82842,0 -1.5,-0.67158 -1.5,-1.5c0,-0.82842 0.67158,-1.5 1.5,-1.5c0.82842,0 1.5,0.67158 1.5,1.5c0,0.82842 -0.67158,1.5 -1.5,1.5z" fill="#d4d7d8" stroke="#000000" stroke-width="0"/><path d="M467.5,148c-0.82842,0 -1.5,-0.67158 -1.5,-1.5c0,-0.82842 0.67158,-1.5 1.5,-1.5c0.82842,0 1.5,0.67158 1.5,1.5c0,0.82842 -0.67158,1.5 -1.5,1.5z" fill="#d4d7d8" stroke="#000000" stroke-width="0"/><path d="M499.64286,148c-0.82842,0 -1.5,-0.67158 -1.5,-1.5c0,-0.82842 0.67158,-1.5 1.5,-1.5c0.82842,0 1.5,0.67158 1.5,1.5c0,0.82842 -0.67158,1.5 -1.5,1.5z" fill="#d4d7d8" stroke="#000000" stroke-width="0"/><path d="M531,148c-0.82843,0 -1.5,-0.67158 -1.5,-1.5c0,-0.82842 0.67157,-1.5 1.5,-1.5c0.82843,0 1.5,0.67158 1.5,1.5c0,0.82842 -0.67157,1.5 -1.5,1.5z" fill="#d4d7d8" stroke="#000000" stroke-width="0"/><path d="M-41.5,180c-0.82843,0 -1.5,-0.67157 -1.5,-1.5c0,-0.82843 0.67157,-1.5 1.5,-1.5c0.82843,0 1.5,0.67157 1.5,1.5c0,0.82843 -0.67157,1.5 -1.5,1.5z" fill="#d4d7d8" stroke="#000000" stroke-width="0"/><path d="M-9.35714,180c-0.82842,0 -1.5,-0.67157 -1.5,-1.5c0,-0.82843 0.67158,-1.5 1.5,-1.5c0.82843,0 1.5,0.67157 1.5,1.5c0,0.82843 -0.67158,1.5 -1.5,1.5z" fill="#d4d7d8" stroke="#000000" stroke-width="0"/><path d="M22,180c-0.82842,0 -1.5,-0.67157 -1.5,-1.5c0,-0.82843 0.67158,-1.5 1.5,-1.5c0.82842,0 1.5,0.67157 1.5,1.5c0,0.82843 -0.67158,1.5 -1.5,1.5z" fill="#d4d7d8" stroke="#000000" stroke-width="0"/><path d="M54.14286,180c-0.82843,0 -1.5,-0.67157 -1.5,-1.5c0,-0.82843 0.67157,-1.5 1.5,-1.5c0.82843,0 1.5,0.67157 1.5,1.5c0,0.82843 -0.67157,1.5 -1.5,1.5z" fill="#d4d7d8" stroke="#000000" stroke-width="0"/><path d="M85.5,180c-0.82842,0 -1.5,-0.67157 -1.5,-1.5c0,-0.82843 0.67158,-1.5 1.5,-1.5c0.82842,0 1.5,0.67157 1.5,1.5c0,0.82843 -0.67158,1.5 -1.5,1.5z" fill="#d4d7d8" stroke="#000000" stroke-width="0"/><path d="M117.64286,180c-0.82842,0 -1.5,-0.67157 -1.5,-1.5c0,-0.82843 0.67158,-1.5 1.5,-1.5c0.82842,0 1.5,0.67157 1.5,1.5c0,0.82843 -0.67158,1.5 -1.5,1.5z" fill="#d4d7d8" stroke="#000000" stroke-width="0"/><path d="M149,180c-0.82843,0 -1.5,-0.67157 -1.5,-1.5c0,-0.82843 0.67157,-1.5 1.5,-1.5c0.82843,0 1.5,0.67157 1.5,1.5c0,0.82843 -0.67157,1.5 -1.5,1.5z" fill="#d4d7d8" stroke="#000000" stroke-width="0"/><path d="M181.14286,180c-0.82843,0 -1.5,-0.67157 -1.5,-1.5c0,-0.82843 0.67157,-1.5 1.5,-1.5c0.82843,0 1.5,0.67157 1.5,1.5c0,0.82843 -0.67157,1.5 -1.5,1.5z" fill="#d4d7d8" stroke="#000000" stroke-width="0"/><path d="M214,180c-0.82843,0 -1.5,-0.67157 -1.5,-1.5c0,-0.82843 0.67157,-1.5 1.5,-1.5c0.82843,0 1.5,0.67157 1.5,1.5c0,0.82843 -0.67157,1.5 -1.5,1.5z" fill="#d4d7d8" stroke="#000000" stroke-width="0"/><path d="M246.14286,180c-0.82842,0 -1.5,-0.67157 -1.5,-1.5c0,-0.82843 0.67158,-1.5 1.5,-1.5c0.82842,0 1.5,0.67157 1.5,1.5c0,0.82843 -0.67158,1.5 -1.5,1.5z" fill="#d4d7d8" stroke="#000000" stroke-width="0"/><path d="M277.5,180c-0.82842,0 -1.5,-0.67157 -1.5,-1.5c0,-0.82843 0.67158,-1.5 1.5,-1.5c0.82842,0 1.5,0.67157 1.5,1.5c0,0.82843 -0.67158,1.5 -1.5,1.5z" fill="#d4d7d8" stroke="#000000" stroke-width="0"/><path d="M309.64286,180c-0.82842,0 -1.5,-0.67157 -1.5,-1.5c0,-0.82843 0.67158,-1.5 1.5,-1.5c0.82842,0 1.5,0.67157 1.5,1.5c0,0.82843 -0.67158,1.5 -1.5,1.5z" fill="#d4d7d8" stroke="#000000" stroke-width="0"/><path d="M341,180c-0.82842,0 -1.5,-0.67157 -1.5,-1.5c0,-0.82843 0.67158,-1.5 1.5,-1.5c0.82842,0 1.5,0.67157 1.5,1.5c0,0.82843 -0.67158,1.5 -1.5,1.5z" fill="#d4d7d8" stroke="#000000" stroke-width="0"/><path d="M373.14286,180c-0.82842,0 -1.5,-0.67157 -1.5,-1.5c0,-0.82843 0.67158,-1.5 1.5,-1.5c0.82842,0 1.5,0.67157 1.5,1.5c0,0.82843 -0.67158,1.5 -1.5,1.5z" fill="#d4d7d8" stroke="#000000" stroke-width="0"/><path d="M404.5,180c-0.82842,0 -1.5,-0.67157 -1.5,-1.5c0,-0.82843 0.67158,-1.5 1.5,-1.5c0.82842,0 1.5,0.67157 1.5,1.5c0,0.82843 -0.67158,1.5 -1.5,1.5z" fill="#d4d7d8" stroke="#000000" stroke-width="0"/><path d="M436.64286,180c-0.82842,0 -1.5,-0.67157 -1.5,-1.5c0,-0.82843 0.67158,-1.5 1.5,-1.5c0.82842,0 1.5,0.67157 1.5,1.5c0,0.82843 -0.67158,1.5 -1.5,1.5z" fill="#d4d7d8" stroke="#000000" stroke-width="0"/><path d="M467.5,180c-0.82842,0 -1.5,-0.67157 -1.5,-1.5c0,-0.82843 0.67158,-1.5 1.5,-1.5c0.82842,0 1.5,0.67157 1.5,1.5c0,0.82843 -0.67158,1.5 -1.5,1.5z" fill="#d4d7d8" stroke="#000000" stroke-width="0"/><path d="M499.64286,180c-0.82842,0 -1.5,-0.67157 -1.5,-1.5c0,-0.82843 0.67158,-1.5 1.5,-1.5c0.82842,0 1.5,0.67157 1.5,1.5c0,0.82843 -0.67158,1.5 -1.5,1.5z" fill="#d4d7d8" stroke="#000000" stroke-width="0"/><path d="M531,180c-0.82843,0 -1.5,-0.67157 -1.5,-1.5c0,-0.82843 0.67157,-1.5 1.5,-1.5c0.82843,0 1.5,0.67157 1.5,1.5c0,0.82843 -0.67157,1.5 -1.5,1.5z" fill="#d4d7d8" stroke="#000000" stroke-width="0"/><path d="M-41.5,211c-0.82843,0 -1.5,-0.67158 -1.5,-1.5c0,-0.82842 0.67157,-1.5 1.5,-1.5c0.82843,0 1.5,0.67158 1.5,1.5c0,0.82842 -0.67157,1.5 -1.5,1.5z" fill="#d4d7d8" stroke="#000000" stroke-width="0"/><path d="M-9.35714,211c-0.82842,0 -1.5,-0.67158 -1.5,-1.5c0,-0.82842 0.67158,-1.5 1.5,-1.5c0.82843,0 1.5,0.67158 1.5,1.5c0,0.82842 -0.67158,1.5 -1.5,1.5z" fill="#d4d7d8" stroke="#000000" stroke-width="0"/><path d="M22,211c-0.82842,0 -1.5,-0.67158 -1.5,-1.5c0,-0.82842 0.67158,-1.5 1.5,-1.5c0.82842,0 1.5,0.67158 1.5,1.5c0,0.82842 -0.67158,1.5 -1.5,1.5z" fill="#d4d7d8" stroke="#000000" stroke-width="0"/><path d="M54.14286,211c-0.82843,0 -1.5,-0.67158 -1.5,-1.5c0,-0.82842 0.67157,-1.5 1.5,-1.5c0.82843,0 1.5,0.67158 1.5,1.5c0,0.82842 -0.67157,1.5 -1.5,1.5z" fill="#d4d7d8" stroke="#000000" stroke-width="0"/><path d="M85.5,211c-0.82842,0 -1.5,-0.67158 -1.5,-1.5c0,-0.82842 0.67158,-1.5 1.5,-1.5c0.82842,0 1.5,0.67158 1.5,1.5c0,0.82842 -0.67158,1.5 -1.5,1.5z" fill="#d4d7d8" stroke="#000000" stroke-width="0"/><path d="M117.64286,211c-0.82842,0 -1.5,-0.67158 -1.5,-1.5c0,-0.82842 0.67158,-1.5 1.5,-1.5c0.82842,0 1.5,0.67158 1.5,1.5c0,0.82842 -0.67158,1.5 -1.5,1.5z" fill="#d4d7d8" stroke="#000000" stroke-width="0"/><path d="M149,211c-0.82843,0 -1.5,-0.67158 -1.5,-1.5c0,-0.82842 0.67157,-1.5 1.5,-1.5c0.82843,0 1.5,0.67158 1.5,1.5c0,0.82842 -0.67157,1.5 -1.5,1.5z" fill="#d4d7d8" stroke="#000000" stroke-width="0"/><path d="M181.14286,211c-0.82843,0 -1.5,-0.67158 -1.5,-1.5c0,-0.82842 0.67157,-1.5 1.5,-1.5c0.82843,0 1.5,0.67158 1.5,1.5c0,0.82842 -0.67157,1.5 -1.5,1.5z" fill="#d4d7d8" stroke="#000000" stroke-width="0"/><path d="M214,211c-0.82843,0 -1.5,-0.67158 -1.5,-1.5c0,-0.82842 0.67157,-1.5 1.5,-1.5c0.82843,0 1.5,0.67158 1.5,1.5c0,0.82842 -0.67157,1.5 -1.5,1.5z" fill="#d4d7d8" stroke="#000000" stroke-width="0"/><path d="M246.14286,211c-0.82842,0 -1.5,-0.67158 -1.5,-1.5c0,-0.82842 0.67158,-1.5 1.5,-1.5c0.82842,0 1.5,0.67158 1.5,1.5c0,0.82842 -0.67158,1.5 -1.5,1.5z" fill="#d4d7d8" stroke="#000000" stroke-width="0"/><path d="M277.5,211c-0.82842,0 -1.5,-0.67158 -1.5,-1.5c0,-0.82842 0.67158,-1.5 1.5,-1.5c0.82842,0 1.5,0.67158 1.5,1.5c0,0.82842 -0.67158,1.5 -1.5,1.5z" fill="#d4d7d8" stroke="#000000" stroke-width="0"/><path d="M309.64286,211c-0.82842,0 -1.5,-0.67158 -1.5,-1.5c0,-0.82842 0.67158,-1.5 1.5,-1.5c0.82842,0 1.5,0.67158 1.5,1.5c0,0.82842 -0.67158,1.5 -1.5,1.5z" fill="#d4d7d8" stroke="#000000" stroke-width="0"/><path d="M341,211c-0.82842,0 -1.5,-0.67158 -1.5,-1.5c0,-0.82842 0.67158,-1.5 1.5,-1.5c0.82842,0 1.5,0.67158 1.5,1.5c0,0.82842 -0.67158,1.5 -1.5,1.5z" fill="#d4d7d8" stroke="#000000" stroke-width="0"/><path d="M373.14286,211c-0.82842,0 -1.5,-0.67158 -1.5,-1.5c0,-0.82842 0.67158,-1.5 1.5,-1.5c0.82842,0 1.5,0.67158 1.5,1.5c0,0.82842 -0.67158,1.5 -1.5,1.5z" fill="#d4d7d8" stroke="#000000" stroke-width="0"/><path d="M404.5,211c-0.82842,0 -1.5,-0.67158 -1.5,-1.5c0,-0.82842 0.67158,-1.5 1.5,-1.5c0.82842,0 1.5,0.67158 1.5,1.5c0,0.82842 -0.67158,1.5 -1.5,1.5z" fill="#d4d7d8" stroke="#000000" stroke-width="0"/><path d="M436.64286,211c-0.82842,0 -1.5,-0.67158 -1.5,-1.5c0,-0.82842 0.67158,-1.5 1.5,-1.5c0.82842,0 1.5,0.67158 1.5,1.5c0,0.82842 -0.67158,1.5 -1.5,1.5z" fill="#d4d7d8" stroke="#000000" stroke-width="0"/><path d="M467.5,211c-0.82842,0 -1.5,-0.67158 -1.5,-1.5c0,-0.82842 0.67158,-1.5 1.5,-1.5c0.82842,0 1.5,0.67158 1.5,1.5c0,0.82842 -0.67158,1.5 -1.5,1.5z" fill="#d4d7d8" stroke="#000000" stroke-width="0"/><path d="M499.64286,211c-0.82842,0 -1.5,-0.67158 -1.5,-1.5c0,-0.82842 0.67158,-1.5 1.5,-1.5c0.82842,0 1.5,0.67158 1.5,1.5c0,0.82842 -0.67158,1.5 -1.5,1.5z" fill="#d4d7d8" stroke="#000000" stroke-width="0"/><path d="M531,211c-0.82843,0 -1.5,-0.67158 -1.5,-1.5c0,-0.82842 0.67157,-1.5 1.5,-1.5c0.82843,0 1.5,0.67158 1.5,1.5c0,0.82842 -0.67157,1.5 -1.5,1.5z" fill="#d4d7d8" stroke="#000000" stroke-width="0"/><path d="M-41.5,245c-0.82843,0 -1.5,-0.67158 -1.5,-1.5c0,-0.82842 0.67157,-1.5 1.5,-1.5c0.82843,0 1.5,0.67158 1.5,1.5c0,0.82842 -0.67157,1.5 -1.5,1.5z" fill="#d4d7d8" stroke="#000000" stroke-width="0"/><path d="M-9.35714,245c-0.82842,0 -1.5,-0.67158 -1.5,-1.5c0,-0.82842 0.67158,-1.5 1.5,-1.5c0.82843,0 1.5,0.67158 1.5,1.5c0,0.82842 -0.67158,1.5 -1.5,1.5z" fill="#d4d7d8" stroke="#000000" stroke-width="0"/><path d="M22,245c-0.82842,0 -1.5,-0.67158 -1.5,-1.5c0,-0.82842 0.67158,-1.5 1.5,-1.5c0.82842,0 1.5,0.67158 1.5,1.5c0,0.82842 -0.67158,1.5 -1.5,1.5z" fill="#d4d7d8" stroke="#000000" stroke-width="0"/><path d="M54.14286,245c-0.82843,0 -1.5,-0.67158 -1.5,-1.5c0,-0.82842 0.67157,-1.5 1.5,-1.5c0.82843,0 1.5,0.67158 1.5,1.5c0,0.82842 -0.67157,1.5 -1.5,1.5z" fill="#d4d7d8" stroke="#000000" stroke-width="0"/><path d="M85.5,245c-0.82842,0 -1.5,-0.67158 -1.5,-1.5c0,-0.82842 0.67158,-1.5 1.5,-1.5c0.82842,0 1.5,0.67158 1.5,1.5c0,0.82842 -0.67158,1.5 -1.5,1.5z" fill="#d4d7d8" stroke="#000000" stroke-width="0"/><path d="M117.64286,245c-0.82842,0 -1.5,-0.67158 -1.5,-1.5c0,-0.82842 0.67158,-1.5 1.5,-1.5c0.82842,0 1.5,0.67158 1.5,1.5c0,0.82842 -0.67158,1.5 -1.5,1.5z" fill="#d4d7d8" stroke="#000000" stroke-width="0"/><path d="M149,245c-0.82843,0 -1.5,-0.67158 -1.5,-1.5c0,-0.82842 0.67157,-1.5 1.5,-1.5c0.82843,0 1.5,0.67158 1.5,1.5c0,0.82842 -0.67157,1.5 -1.5,1.5z" fill="#d4d7d8" stroke="#000000" stroke-width="0"/><path d="M181.14286,245c-0.82843,0 -1.5,-0.67158 -1.5,-1.5c0,-0.82842 0.67157,-1.5 1.5,-1.5c0.82843,0 1.5,0.67158 1.5,1.5c0,0.82842 -0.67157,1.5 -1.5,1.5z" fill="#d4d7d8" stroke="#000000" stroke-width="0"/><path d="M214,245c-0.82843,0 -1.5,-0.67158 -1.5,-1.5c0,-0.82842 0.67157,-1.5 1.5,-1.5c0.82843,0 1.5,0.67158 1.5,1.5c0,0.82842 -0.67157,1.5 -1.5,1.5z" fill="#d4d7d8" stroke="#000000" stroke-width="0"/><path d="M246.14286,245c-0.82842,0 -1.5,-0.67158 -1.5,-1.5c0,-0.82842 0.67158,-1.5 1.5,-1.5c0.82842,0 1.5,0.67158 1.5,1.5c0,0.82842 -0.67158,1.5 -1.5,1.5z" fill="#d4d7d8" stroke="#000000" stroke-width="0"/><path d="M277.5,245c-0.82842,0 -1.5,-0.67158 -1.5,-1.5c0,-0.82842 0.67158,-1.5 1.5,-1.5c0.82842,0 1.5,0.67158 1.5,1.5c0,0.82842 -0.67158,1.5 -1.5,1.5z" fill="#d4d7d8" stroke="#000000" stroke-width="0"/><path d="M309.64286,245c-0.82842,0 -1.5,-0.67158 -1.5,-1.5c0,-0.82842 0.67158,-1.5 1.5,-1.5c0.82842,0 1.5,0.67158 1.5,1.5c0,0.82842 -0.67158,1.5 -1.5,1.5z" fill="#d4d7d8" stroke="#000000" stroke-width="0"/><path d="M341,245c-0.82842,0 -1.5,-0.67158 -1.5,-1.5c0,-0.82842 0.67158,-1.5 1.5,-1.5c0.82842,0 1.5,0.67158 1.5,1.5c0,0.82842 -0.67158,1.5 -1.5,1.5z" fill="#d4d7d8" stroke="#000000" stroke-width="0"/><path d="M373.14286,245c-0.82842,0 -1.5,-0.67158 -1.5,-1.5c0,-0.82842 0.67158,-1.5 1.5,-1.5c0.82842,0 1.5,0.67158 1.5,1.5c0,0.82842 -0.67158,1.5 -1.5,1.5z" fill="#d4d7d8" stroke="#000000" stroke-width="0"/><path d="M404.5,245c-0.82842,0 -1.5,-0.67158 -1.5,-1.5c0,-0.82842 0.67158,-1.5 1.5,-1.5c0.82842,0 1.5,0.67158 1.5,1.5c0,0.82842 -0.67158,1.5 -1.5,1.5z" fill="#d4d7d8" stroke="#000000" stroke-width="0"/><path d="M436.64286,245c-0.82842,0 -1.5,-0.67158 -1.5,-1.5c0,-0.82842 0.67158,-1.5 1.5,-1.5c0.82842,0 1.5,0.67158 1.5,1.5c0,0.82842 -0.67158,1.5 -1.5,1.5z" fill="#d4d7d8" stroke="#000000" stroke-width="0"/><path d="M467.5,245c-0.82842,0 -1.5,-0.67158 -1.5,-1.5c0,-0.82842 0.67158,-1.5 1.5,-1.5c0.82842,0 1.5,0.67158 1.5,1.5c0,0.82842 -0.67158,1.5 -1.5,1.5z" fill="#d4d7d8" stroke="#000000" stroke-width="0"/><path d="M499.64286,245c-0.82842,0 -1.5,-0.67158 -1.5,-1.5c0,-0.82842 0.67158,-1.5 1.5,-1.5c0.82842,0 1.5,0.67158 1.5,1.5c0,0.82842 -0.67158,1.5 -1.5,1.5z" fill="#d4d7d8" stroke="#000000" stroke-width="0"/><path d="M531,245c-0.82843,0 -1.5,-0.67158 -1.5,-1.5c0,-0.82842 0.67157,-1.5 1.5,-1.5c0.82843,0 1.5,0.67158 1.5,1.5c0,0.82842 -0.67157,1.5 -1.5,1.5z" fill="#d4d7d8" stroke="#000000" stroke-width="0"/><path d="M-41.5,276c-0.82843,0 -1.5,-0.67157 -1.5,-1.5c0,-0.82843 0.67157,-1.5 1.5,-1.5c0.82843,0 1.5,0.67157 1.5,1.5c0,0.82843 -0.67157,1.5 -1.5,1.5z" fill="#d4d7d8" stroke="#000000" stroke-width="0"/><path d="M-9.35714,276c-0.82842,0 -1.5,-0.67157 -1.5,-1.5c0,-0.82843 0.67158,-1.5 1.5,-1.5c0.82843,0 1.5,0.67157 1.5,1.5c0,0.82843 -0.67158,1.5 -1.5,1.5z" fill="#d4d7d8" stroke="#000000" stroke-width="0"/><path d="M22,276c-0.82842,0 -1.5,-0.67157 -1.5,-1.5c0,-0.82843 0.67158,-1.5 1.5,-1.5c0.82842,0 1.5,0.67157 1.5,1.5c0,0.82843 -0.67158,1.5 -1.5,1.5z" fill="#d4d7d8" stroke="#000000" stroke-width="0"/><path d="M54.14286,276c-0.82843,0 -1.5,-0.67157 -1.5,-1.5c0,-0.82843 0.67157,-1.5 1.5,-1.5c0.82843,0 1.5,0.67157 1.5,1.5c0,0.82843 -0.67157,1.5 -1.5,1.5z" fill="#d4d7d8" stroke="#000000" stroke-width="0"/><path d="M85.5,276c-0.82842,0 -1.5,-0.67157 -1.5,-1.5c0,-0.82843 0.67158,-1.5 1.5,-1.5c0.82842,0 1.5,0.67157 1.5,1.5c0,0.82843 -0.67158,1.5 -1.5,1.5z" fill="#d4d7d8" stroke="#000000" stroke-width="0"/><path d="M117.64286,276c-0.82842,0 -1.5,-0.67157 -1.5,-1.5c0,-0.82843 0.67158,-1.5 1.5,-1.5c0.82842,0 1.5,0.67157 1.5,1.5c0,0.82843 -0.67158,1.5 -1.5,1.5z" fill="#d4d7d8" stroke="#000000" stroke-width="0"/><path d="M149,276c-0.82843,0 -1.5,-0.67157 -1.5,-1.5c0,-0.82843 0.67157,-1.5 1.5,-1.5c0.82843,0 1.5,0.67157 1.5,1.5c0,0.82843 -0.67157,1.5 -1.5,1.5z" fill="#d4d7d8" stroke="#000000" stroke-width="0"/><path d="M181.14286,276c-0.82843,0 -1.5,-0.67157 -1.5,-1.5c0,-0.82843 0.67157,-1.5 1.5,-1.5c0.82843,0 1.5,0.67157 1.5,1.5c0,0.82843 -0.67157,1.5 -1.5,1.5z" fill="#d4d7d8" stroke="#000000" stroke-width="0"/><path d="M214,276c-0.82843,0 -1.5,-0.67157 -1.5,-1.5c0,-0.82843 0.67157,-1.5 1.5,-1.5c0.82843,0 1.5,0.67157 1.5,1.5c0,0.82843 -0.67157,1.5 -1.5,1.5z" fill="#d4d7d8" stroke="#000000" stroke-width="0"/><path d="M246.14286,276c-0.82842,0 -1.5,-0.67157 -1.5,-1.5c0,-0.82843 0.67158,-1.5 1.5,-1.5c0.82842,0 1.5,0.67157 1.5,1.5c0,0.82843 -0.67158,1.5 -1.5,1.5z" fill="#d4d7d8" stroke="#000000" stroke-width="0"/><path d="M277.5,276c-0.82842,0 -1.5,-0.67157 -1.5,-1.5c0,-0.82843 0.67158,-1.5 1.5,-1.5c0.82842,0 1.5,0.67157 1.5,1.5c0,0.82843 -0.67158,1.5 -1.5,1.5z" fill="#d4d7d8" stroke="#000000" stroke-width="0"/><path d="M309.64286,276c-0.82842,0 -1.5,-0.67157 -1.5,-1.5c0,-0.82843 0.67158,-1.5 1.5,-1.5c0.82842,0 1.5,0.67157 1.5,1.5c0,0.82843 -0.67158,1.5 -1.5,1.5z" fill="#d4d7d8" stroke="#000000" stroke-width="0"/><path d="M341,276c-0.82842,0 -1.5,-0.67157 -1.5,-1.5c0,-0.82843 0.67158,-1.5 1.5,-1.5c0.82842,0 1.5,0.67157 1.5,1.5c0,0.82843 -0.67158,1.5 -1.5,1.5z" fill="#d4d7d8" stroke="#000000" stroke-width="0"/><path d="M373.14286,276c-0.82842,0 -1.5,-0.67157 -1.5,-1.5c0,-0.82843 0.67158,-1.5 1.5,-1.5c0.82842,0 1.5,0.67157 1.5,1.5c0,0.82843 -0.67158,1.5 -1.5,1.5z" fill="#d4d7d8" stroke="#000000" stroke-width="0"/><path d="M404.5,276c-0.82842,0 -1.5,-0.67157 -1.5,-1.5c0,-0.82843 0.67158,-1.5 1.5,-1.5c0.82842,0 1.5,0.67157 1.5,1.5c0,0.82843 -0.67158,1.5 -1.5,1.5z" fill="#d4d7d8" stroke="#000000" stroke-width="0"/><path d="M436.64286,276c-0.82842,0 -1.5,-0.67157 -1.5,-1.5c0,-0.82843 0.67158,-1.5 1.5,-1.5c0.82842,0 1.5,0.67157 1.5,1.5c0,0.82843 -0.67158,1.5 -1.5,1.5z" fill="#d4d7d8" stroke="#000000" stroke-width="0"/><path d="M467.5,276c-0.82842,0 -1.5,-0.67157 -1.5,-1.5c0,-0.82843 0.67158,-1.5 1.5,-1.5c0.82842,0 1.5,0.67157 1.5,1.5c0,0.82843 -0.67158,1.5 -1.5,1.5z" fill="#d4d7d8" stroke="#000000" stroke-width="0"/><path d="M499.64286,276c-0.82842,0 -1.5,-0.67157 -1.5,-1.5c0,-0.82843 0.67158,-1.5 1.5,-1.5c0.82842,0 1.5,0.67157 1.5,1.5c0,0.82843 -0.67158,1.5 -1.5,1.5z" fill="#d4d7d8" stroke="#000000" stroke-width="0"/><path d="M531,276c-0.82843,0 -1.5,-0.67157 -1.5,-1.5c0,-0.82843 0.67157,-1.5 1.5,-1.5c0.82843,0 1.5,0.67157 1.5,1.5c0,0.82843 -0.67157,1.5 -1.5,1.5z" fill="#d4d7d8" stroke="#000000" stroke-width="0"/><path d="M-41.5,310c-0.82843,0 -1.5,-0.67157 -1.5,-1.5c0,-0.82843 0.67157,-1.5 1.5,-1.5c0.82843,0 1.5,0.67157 1.5,1.5c0,0.82843 -0.67157,1.5 -1.5,1.5z" fill="#d4d7d8" stroke="#000000" stroke-width="0"/><path d="M-9.35714,310c-0.82842,0 -1.5,-0.67157 -1.5,-1.5c0,-0.82843 0.67158,-1.5 1.5,-1.5c0.82843,0 1.5,0.67157 1.5,1.5c0,0.82843 -0.67158,1.5 -1.5,1.5z" fill="#d4d7d8" stroke="#000000" stroke-width="0"/><path d="M22,310c-0.82842,0 -1.5,-0.67157 -1.5,-1.5c0,-0.82843 0.67158,-1.5 1.5,-1.5c0.82842,0 1.5,0.67157 1.5,1.5c0,0.82843 -0.67158,1.5 -1.5,1.5z" fill="#d4d7d8" stroke="#000000" stroke-width="0"/><path d="M54.14286,310c-0.82843,0 -1.5,-0.67157 -1.5,-1.5c0,-0.82843 0.67157,-1.5 1.5,-1.5c0.82843,0 1.5,0.67157 1.5,1.5c0,0.82843 -0.67157,1.5 -1.5,1.5z" fill="#d4d7d8" stroke="#000000" stroke-width="0"/><path d="M85.5,310c-0.82842,0 -1.5,-0.67157 -1.5,-1.5c0,-0.82843 0.67158,-1.5 1.5,-1.5c0.82842,0 1.5,0.67157 1.5,1.5c0,0.82843 -0.67158,1.5 -1.5,1.5z" fill="#d4d7d8" stroke="#000000" stroke-width="0"/><path d="M117.64286,310c-0.82842,0 -1.5,-0.67157 -1.5,-1.5c0,-0.82843 0.67158,-1.5 1.5,-1.5c0.82842,0 1.5,0.67157 1.5,1.5c0,0.82843 -0.67158,1.5 -1.5,1.5z" fill="#d4d7d8" stroke="#000000" stroke-width="0"/><path d="M149,310c-0.82843,0 -1.5,-0.67157 -1.5,-1.5c0,-0.82843 0.67157,-1.5 1.5,-1.5c0.82843,0 1.5,0.67157 1.5,1.5c0,0.82843 -0.67157,1.5 -1.5,1.5z" fill="#d4d7d8" stroke="#000000" stroke-width="0"/><path d="M181.14286,310c-0.82843,0 -1.5,-0.67157 -1.5,-1.5c0,-0.82843 0.67157,-1.5 1.5,-1.5c0.82843,0 1.5,0.67157 1.5,1.5c0,0.82843 -0.67157,1.5 -1.5,1.5z" fill="#d4d7d8" stroke="#000000" stroke-width="0"/><path d="M214,310c-0.82843,0 -1.5,-0.67157 -1.5,-1.5c0,-0.82843 0.67157,-1.5 1.5,-1.5c0.82843,0 1.5,0.67157 1.5,1.5c0,0.82843 -0.67157,1.5 -1.5,1.5z" fill="#d4d7d8" stroke="#000000" stroke-width="0"/><path d="M246.14286,310c-0.82843,0 -1.5,-0.67157 -1.5,-1.5c0,-0.82843 0.67157,-1.5 1.5,-1.5c0.82843,0 1.5,0.67157 1.5,1.5c0,0.82843 -0.67157,1.5 -1.5,1.5z" fill="#d4d7d8" stroke="#000000" stroke-width="0"/><path d="M277.5,310c-0.82842,0 -1.5,-0.67157 -1.5,-1.5c0,-0.82843 0.67158,-1.5 1.5,-1.5c0.82842,0 1.5,0.67157 1.5,1.5c0,0.82843 -0.67158,1.5 -1.5,1.5z" fill="#d4d7d8" stroke="#000000" stroke-width="0"/><path d="M309.64286,310c-0.82842,0 -1.5,-0.67157 -1.5,-1.5c0,-0.82843 0.67158,-1.5 1.5,-1.5c0.82842,0 1.5,0.67157 1.5,1.5c0,0.82843 -0.67158,1.5 -1.5,1.5z" fill="#d4d7d8" stroke="#000000" stroke-width="0"/><path d="M341,310c-0.82842,0 -1.5,-0.67157 -1.5,-1.5c0,-0.82843 0.67158,-1.5 1.5,-1.5c0.82842,0 1.5,0.67157 1.5,1.5c0,0.82843 -0.67158,1.5 -1.5,1.5z" fill="#d4d7d8" stroke="#000000" stroke-width="0"/><path d="M373.14286,310c-0.82842,0 -1.5,-0.67157 -1.5,-1.5c0,-0.82843 0.67158,-1.5 1.5,-1.5c0.82842,0 1.5,0.67157 1.5,1.5c0,0.82843 -0.67158,1.5 -1.5,1.5z" fill="#d4d7d8" stroke="#000000" stroke-width="0"/><path d="M404.5,310c-0.82842,0 -1.5,-0.67157 -1.5,-1.5c0,-0.82843 0.67158,-1.5 1.5,-1.5c0.82842,0 1.5,0.67157 1.5,1.5c0,0.82843 -0.67158,1.5 -1.5,1.5z" fill="#d4d7d8" stroke="#000000" stroke-width="0"/><path d="M436.64286,310c-0.82842,0 -1.5,-0.67157 -1.5,-1.5c0,-0.82843 0.67158,-1.5 1.5,-1.5c0.82842,0 1.5,0.67157 1.5,1.5c0,0.82843 -0.67158,1.5 -1.5,1.5z" fill="#d4d7d8" stroke="#000000" stroke-width="0"/><path d="M467.5,310c-0.82842,0 -1.5,-0.67157 -1.5,-1.5c0,-0.82843 0.67158,-1.5 1.5,-1.5c0.82842,0 1.5,0.67157 1.5,1.5c0,0.82843 -0.67158,1.5 -1.5,1.5z" fill="#d4d7d8" stroke="#000000" stroke-width="0"/><path d="M499.64286,310c-0.82842,0 -1.5,-0.67157 -1.5,-1.5c0,-0.82843 0.67158,-1.5 1.5,-1.5c0.82842,0 1.5,0.67157 1.5,1.5c0,0.82843 -0.67158,1.5 -1.5,1.5z" fill="#d4d7d8" stroke="#000000" stroke-width="0"/><path d="M531,310c-0.82843,0 -1.5,-0.67157 -1.5,-1.5c0,-0.82843 0.67157,-1.5 1.5,-1.5c0.82843,0 1.5,0.67157 1.5,1.5c0,0.82843 -0.67157,1.5 -1.5,1.5z" fill="#d4d7d8" stroke="#000000" stroke-width="0"/><path d="M161.36156,223.56722c-5.01875,25.01284 -26.1454,42.91724 -62.77647,53.21639c-1.66541,0.46573 -3.31618,0.84795 -4.97885,1.15061c-1.69893,3.507 -4.1242,6.68878 -7.14442,9.33594c-7.91464,6.90275 -15.70038,10.8584 -23.78816,12.06693c-16.62636,2.48442 -36.37993,-7.25106 -40.45328,-34.51086c-0.27737,-1.85621 -0.55839,-4.28117 -0.87203,-7.65009c-0.13442,-1.44382 -0.22129,-2.56944 -0.3176,-3.39544c-0.75986,-2.001 -1.31155,-4.0602 -1.62854,-6.18158l-1.9178,-12.83437c-0.31303,-2.09487 -0.41391,-4.22144 -0.30268,-6.37971c-0.23897,-1.78062 -0.4566,-3.7813 -0.64892,-5.97554c-0.98511,-2.23843 -1.86658,-4.87186 -2.31829,-7.89484c-0.20604,-1.3789 -0.30602,-2.77365 -0.32249,-4.15377c-0.05427,-7.25721 2.03541,-14.8619 6.51347,-21.35956c-2.59445,-4.84444 -4.35738,-10.11132 -5.18553,-15.65344l-2.02082,-13.52384c-0.82022,-5.48908 -0.7553,-12.493 2.03082,-30.31356c1.13384,-7.65162 1.50903,-10.03909 2.17318,-12.30709c3.47253,-12.50124 10.47249,-19.5384 15.76833,-23.28467c8.66323,-6.06577 18.35667,-9.95409 28.80449,-11.51527c4.82615,-0.72116 9.51545,-0.90678 14.05998,-0.60992c1.76416,-1.61908 3.6926,-3.04584 5.78138,-4.30678c2.65508,-1.64377 5.55126,-2.94404 8.81318,-3.97364c8.13898,-2.68009 17.23473,-2.22291 25.62214,1.29504c8.82478,3.72369 19.63534,12.57253 21.64123,33.79766c0.36911,3.74016 0.79187,8.74644 1.28139,15.28799c-0.00274,0.16306 0.02104,0.32217 0.01829,0.48524c0.27708,4.75696 0.71324,11.84867 1.27408,21.22604c0.74706,3.54814 1.26583,7.56414 1.65293,12.33178c0.13686,1.82299 0.11462,3.66975 -0.10119,5.49121c-0.04664,0.41361 -0.09723,0.80071 -0.15179,1.16127c4.26534,4.05257 7.39042,8.27553 9.65537,12.00349c2.03604,2.92178 3.90476,6.35653 5.73324,10.61058c0.70043,1.60324 1.24571,3.25676 1.63585,4.96057c3.41618,14.6979 4.11784,23.56626 2.46951,31.4032z" fill="#f9aa39" stroke="#ffffff" stroke-width="50"/><path d="M161.36156,223.56722c-5.01875,25.01284 -26.1454,42.91724 -62.77647,53.21639c-1.66541,0.46573 -3.31618,0.84795 -4.97885,1.15061c-1.69893,3.507 -4.1242,6.68878 -7.14442,9.33594c-7.91464,6.90275 -15.70038,10.8584 -23.78816,12.06693c-16.62636,2.48442 -36.37993,-7.25106 -40.45328,-34.51086c-0.27737,-1.85621 -0.55839,-4.28117 -0.87203,-7.65009c-0.13442,-1.44382 -0.22129,-2.56944 -0.3176,-3.39544c-0.75986,-2.001 -1.31155,-4.0602 -1.62854,-6.18158l-1.9178,-12.83437c-0.31303,-2.09487 -0.41391,-4.22144 -0.30268,-6.37971c-0.23897,-1.78062 -0.4566,-3.7813 -0.64892,-5.97554c-0.98511,-2.23843 -1.86658,-4.87186 -2.31829,-7.89484c-0.20604,-1.3789 -0.30602,-2.77365 -0.32249,-4.15377c-0.05427,-7.25721 2.03541,-14.8619 6.51347,-21.35956c-2.59445,-4.84444 -4.35738,-10.11132 -5.18553,-15.65344l-2.02082,-13.52384c-0.82022,-5.48908 -0.7553,-12.493 2.03082,-30.31356c1.13384,-7.65162 1.50903,-10.03909 2.17318,-12.30709c3.47253,-12.50124 10.47249,-19.5384 15.76833,-23.28467c8.66323,-6.06577 18.35667,-9.95409 28.80449,-11.51527c4.82615,-0.72116 9.51545,-0.90678 14.05998,-0.60992c1.76416,-1.61908 3.6926,-3.04584 5.78138,-4.30678c2.65508,-1.64377 5.55126,-2.94404 8.81318,-3.97364c8.13898,-2.68009 17.23473,-2.22291 25.62214,1.29504c8.82478,3.72369 19.63534,12.57253 21.64123,33.79766c0.36911,3.74016 0.79187,8.74644 1.28139,15.28799c-0.00274,0.16306 0.02104,0.32217 0.01829,0.48524c0.27708,4.75696 0.71324,11.84867 1.27408,21.22604c0.74706,3.54814 1.26583,7.56414 1.65293,12.33178c0.13686,1.82299 0.11462,3.66975 -0.10119,5.49121c-0.04664,0.41361 -0.09723,0.80071 -0.15179,1.16127c4.26534,4.05257 7.39042,8.27553 9.65537,12.00349c2.03604,2.92178 3.90476,6.35653 5.73324,10.61058c0.70043,1.60324 1.24571,3.25676 1.63585,4.96057c3.41618,14.6979 4.11784,23.56626 2.46951,31.4032z" fill="url(#color-1)" stroke="none" stroke-width="0"/><path d="M130.16875,198.85251c2.21808,9.52825 2.98776,15.76768 2.32163,18.72997c-2.60773,13.42658 -16.57408,23.69785 -41.89257,30.82099c-8.54808,2.39151 -17.86948,-0.42842 -27.97478,-8.45822c0.20921,1.40011 1.14672,5.55144 2.8186,12.4585c1.23343,5.06136 1.78112,9.27094 1.6484,12.62794c-3.51842,3.06861 -6.44002,4.77931 -8.77354,5.12801c-3.57984,0.53492 -5.88709,-2.69604 -6.93317,-9.69661c-0.18584,-1.24366 -0.40493,-3.236 -0.65501,-5.98005c-0.25234,-2.741 -0.45769,-4.65948 -0.62055,-5.74935c-0.39505,-2.64378 -0.90695,-4.47307 -1.53651,-5.4932l-1.91701,-12.82907c-0.04636,-0.31026 -0.02177,-0.67177 0.07644,-1.08496c0.09595,-0.41014 0.2001,-0.78354 0.30979,-1.11983c-0.48137,-2.15104 -0.90413,-5.50637 -1.26522,-10.06373c-0.10817,-2.84659 -0.37484,-4.63121 -0.80159,-5.36445c-1.0114,-1.43477 -1.53539,-2.31071 -1.58215,-2.62362c-0.03278,-4.44646 2.8346,-7.10061 8.5862,-7.96005c3.73098,-0.55751 6.18269,0.4289 7.35695,2.95353c0.37167,2.48733 1.22834,6.0977 2.57146,10.82278c1.77252,5.45793 5.56076,10.61737 11.37413,15.46878c6.39431,5.56433 12.04372,7.74014 16.95393,6.5293c5.50548,-1.45431 10.90555,-3.61399 16.20103,-6.47372c7.35644,-3.962 11.53308,-7.92327 12.53213,-11.88685c0.66612,-2.96229 0.77137,-5.99529 0.30619,-9.10843c-1.41695,-9.48259 -5.97214,-16.03743 -13.66705,-19.65614c-3.41507,-1.55544 -9.41076,-2.32945 -17.99502,-2.32087c-4.91316,0.10252 -7.91701,0.22876 -9.00157,0.39082c-7.44124,1.27186 -14.76221,-0.09843 -21.95762,-4.11168c-7.19766,-4.0102 -11.2824,-9.28529 -12.25834,-15.8165l-2.02122,-13.52648c-0.44102,-2.95138 0.23517,-10.12797 2.03198,-21.52487c0.78415,-5.36555 1.2345,-8.21156 1.34685,-8.54823c0.9097,-3.4731 2.37164,-5.91723 4.38586,-7.33241c4.89025,-3.43083 10.29032,-5.59051 16.20103,-6.47373c11.50586,-1.71928 20.67778,1.67872 27.51577,10.19404c0.53644,0.39697 1.41801,0.98092 2.64734,1.75147c-0.17111,-2.1974 -0.35787,-5.58799 -0.56517,-10.16832c-0.45838,-1.99725 -0.90528,-3.91758 -1.33804,-5.76142c-0.32492,-2.17442 0.53893,-3.8135 2.60216,-4.91882c0.57415,-0.40298 1.39578,-0.76431 2.46227,-1.08361c1.50756,-0.54245 3.23905,-0.40266 5.19103,0.41443c1.94747,0.8232 3.17547,3.97957 3.6779,9.46464c0.3547,3.44412 0.76481,8.31132 1.22729,14.59937c0.30042,5.20349 0.77627,13.15948 1.42042,23.87446c0.68193,2.44097 1.19347,5.86435 1.53345,10.2622c-0.33819,3.07053 -2.45101,4.89622 -6.3358,5.47671c-2.02328,0.30233 -4.04556,0.04878 -6.07484,-0.75949c-1.37442,-2.8119 -2.02511,-3.99152 -1.95538,-3.52482c-0.31965,-4.24365 -2.00997,-9.71387 -5.07627,-16.40985c-2.24714,-3.31856 -5.37592,-8.05604 -9.39733,-14.21351c-4.02102,-6.15482 -8.55411,-9.09656 -13.59849,-8.81992c-6.29069,0.46287 -10.01812,3.16692 -11.18795,8.11026c-0.31818,2.11599 -0.73554,5.20105 -1.2396,9.2479c-1.00698,6.0332 -1.34876,11.72846 -1.02576,17.0831c0.09952,1.73639 0.04768,2.45983 -0.15288,2.16991c0.93189,3.0434 1.93988,6.06999 3.02783,9.08735c1.35785,3.77133 3.70624,6.44311 7.03871,8.00819c3.33592,1.56998 9.31008,1.94599 17.9343,1.13442c21.17773,-1.88767 35.25265,3.48051 42.2278,16.10679c0.96054,1.13061 2.05092,3.11203 3.27154,5.94691z" fill="#ffffff" stroke="none" stroke-width="1"/><path d="M480.72483,163.64607c-0.37412,1.12589 -0.8663,2.19931 -1.46123,3.22491c-4.21841,7.24657 -11.04188,12.53291 -20.27672,15.7167c-0.07528,0.02745 -0.16591,0.05028 -0.24583,0.09306c-5.55665,1.81844 -10.33186,2.93562 -14.6021,3.43535c-3.13856,0.35652 -6.23714,0.69164 -9.2758,0.99466c-3.27661,0.31474 -7.73442,0.27214 -14.09338,-0.12796c-6.53697,-0.42047 -9.68404,-0.36791 -10.99518,-0.29575c-5.82502,0.38097 -9.17717,0.17055 -12.3219,-0.78085c-1.7181,-0.51979 -3.32055,-1.25575 -4.7767,-2.19862c-0.05671,-0.0339 -0.11344,-0.0678 -0.16552,-0.11705c-2.55199,-1.69299 -4.45608,-3.42441 -5.98336,-5.46042c-2.55879,-3.38622 -4.05537,-7.4055 -4.33105,-11.64146c-0.03093,-0.56192 -0.04188,-1.13452 -0.02215,-1.69787c0.26553,-7.90663 4.80349,-14.60444 11.87421,-17.94063c1.11514,-4.90356 2.48631,-10.98546 4.07495,-18.17368c0.31778,-1.32712 0.59379,-2.51617 0.83732,-3.59785c-0.01839,-2.65115 0.56186,-5.28861 1.72505,-7.74973c0.4026,-0.83262 0.85946,-1.89998 1.31852,-3.25133c-2.63436,-1.91885 -5.27,-4.60832 -7.51013,-8.38371c-2.23548,-3.79073 -2.9849,-8.28722 -2.08608,-12.58646c0.42066,-1.99925 1.27913,-6.10976 4.58673,-9.84769c2.90901,-3.30596 10.92867,-10.05553 25.16431,-5.74873c0.32214,0.09746 0.65963,0.19957 0.99247,0.317c0.09668,0.01251 0.20871,0.02965 0.32073,0.0468c0.85015,0.12324 1.44559,0.20292 1.81698,0.2483l2.06423,0.20589c0.87942,0.08186 1.75561,0.22975 2.62858,0.44361c10.75317,2.70067 17.73049,4.54366 21.30474,5.62499c1.45731,0.44089 2.48651,0.8025 3.39907,1.1623c8.55501,3.32494 11.71816,4.93493 13.50572,5.94458c0.05671,0.0339 0.0981,0.06316 0.15482,0.09707c8.91605,5.17557 14.66299,11.97097 17.10312,20.1771c0.04562,0.18125 0.09591,0.34716 0.14153,0.5284c1.09413,4.13193 1.44568,10.71831 -3.07966,18.59201c-0.1449,0.25755 -0.28515,0.49977 -0.44075,0.73735c-1.36969,2.14747 -2.99372,4.08406 -4.86744,5.7944c1.86424,3.0254 3.36276,6.20806 4.45883,9.50337c0.06561,0.17055 0.11589,0.33646 0.16616,0.50237c1.82798,6.07861 0.3823,11.85333 -1.10305,16.20953z" fill="#ffffff" stroke="#ffffff" stroke-width="40"/><path d="M407.60667,177.61597c-0.22334,0.14735 -0.44668,0.29467 -0.69853,0.43252c-4.253,2.49531 -8.83885,2.94719 -11.9753,3.04252c-5.98301,0.31895 -11.35768,1.33167 -15.95766,3.01438c-0.2376,0.09507 -0.47044,0.17587 -0.71756,0.25194c-4.38617,1.3738 -9.2572,1.25545 -14.90774,-0.42156c-0.19009,-0.0475 -0.37544,-0.10927 -0.56079,-0.17103c-4.33416,-1.44428 -7.98413,-4.3713 -10.55071,-8.45797c-1.25477,-1.98631 -2.12462,-4.12947 -2.60955,-6.33446c-2.58994,0.11904 -5.20845,-0.24664 -7.73196,-1.08754c-0.94097,-0.31356 -1.81541,-0.68415 -2.64709,-1.13553c-0.57029,-0.28508 -1.7679,-0.87425 -3.6166,-1.79125c-0.38495,-0.1758 -2.21937,-0.99301 -10.41252,-4.49939c-0.08553,-0.0285 -0.16634,-0.07127 -0.24713,-0.11403c-5.84547,-2.61318 -9.44788,-5.06499 -12.07614,-8.20596c-0.12833,-0.1378 -0.2519,-0.28986 -0.35645,-0.45143c-3.94957,-5.07025 -5.10972,-11.71374 -3.10008,-17.74449c3.24962,-9.75185 12.26406,-15.22248 22.4387,-13.62193c0.13306,0.0285 0.25187,0.05225 0.38968,0.0665c1.20708,0.228 2.44268,0.56054 3.68782,0.95961c0.09978,-0.20435 0.21381,-0.40395 0.3326,-0.61781c0.16155,-0.29465 0.33735,-0.58456 0.52742,-0.86971c2.95069,-4.62418 6.19122,-9.97547 9.71206,-16.02537c-4.87126,-2.54199 -7.37606,-6.67144 -8.28387,-8.1778c-1.56372,-2.58031 -2.39562,-5.55036 -2.40542,-8.56327c0.00408,-7.33267 4.10938,-13.94813 10.7289,-17.27054c4.08672,-2.04384 8.57749,-2.78084 12.95435,-2.13019c0.95045,0.14248 2.43316,0.35144 4.47189,0.60312l0.22811,0.02849c4.49565,0.62687 9.54736,1.67664 15.44975,3.21582c4.2581,1.10212 4.2581,1.10212 4.8854,1.31116c0.65583,0.21854 1.2974,0.47986 1.92472,0.78393c5.84548,2.80326 9.99941,8.02083 11.36388,14.33639c0.64182,2.92256 0.80371,6.2871 0.54273,10.63541c-0.14709,2.58047 -0.18024,3.72576 -0.18021,4.15346c0.06185,0.7651 0.16649,1.82959 0.29968,3.18872c0.05708,0.54175 0.08089,1.08825 0.07619,1.62525c0.00476,0.03327 0.01433,0.86015 0.28544,3.32653c0.01427,0.19484 0.0333,0.37542 0.04757,0.57025c0.39492,5.23216 1.00871,13.42016 1.84138,24.56404c0.00952,0.2091 0.0333,0.42295 0.04282,0.63204c0.04764,1.33061 0.10958,2.9036 0.19052,4.70468c5.24658,1.32063 9.68069,4.604 12.66552,9.33693c0.30419,0.46569 0.58461,0.95514 0.83177,1.44934c2.60469,5.20819 1.8163,10.33116 1.55509,12.01822c-0.09025,0.5085 -0.19475,1.01223 -0.31826,1.52549c-1.65792,6.54395 -5.3263,10.08946 -8.12043,11.91456zM337.55314,165.70863c-1.59685,-1.14989 -2.97987,-2.56116 -4.06829,-4.14356c1.08365,1.59664 2.44767,3.01743 4.06829,4.14356z" fill="#ffffff" stroke="#ffffff" stroke-width="40"/><g fill="#ffffff" stroke="#ffffff" stroke-width="40"><path d="M330.18724,163.61715c0.14916,1.31163 -0.69703,3.14417 -2.54388,5.49392c-1.8442,2.35159 -3.66489,3.9533 -5.46231,4.80654c-1.79742,0.85324 -4.44198,1.1968 -7.9304,1.02821c-2.80761,-0.15375 -5.20974,-1.75328 -7.20539,-4.79546c-1.99851,-3.04261 -2.92208,-6.2295 -2.77663,-9.5601c0.43164,-9.39009 0.23133,-16.20977 -0.60258,-20.45784c-0.02139,-1.03349 -0.26314,-2.5932 -0.72914,-4.68265c-0.46497,-2.08638 -1.94754,-3.95996 -4.44831,-5.61643c-1.90499,-1.05175 -3.84242,-2.15221 -5.81657,-3.30203c-0.32353,-0.13245 -0.7425,-0.19389 -1.25831,-0.18453c-1.22433,0.16343 -3.75928,0.47908 -7.5991,0.94781l-0.35157,2.39753l-1.44355,9.84408c-0.02483,0.1693 -0.07889,0.97773 -0.16219,2.4253c-0.08371,1.45043 -0.16872,2.46979 -0.25477,3.05661c-0.04212,1.45653 -0.38501,5.27408 -1.03422,11.45034c0.54958,0.34 1.1809,0.43258 1.89249,0.27751c2.40697,-0.59237 4.45643,-0.50582 6.15003,0.25844c1.20075,0.60699 1.68251,1.70943 1.44833,3.30635c-0.34569,2.35736 -1.79339,3.58433 -4.34311,3.6809c-2.55014,0.09944 -6.28448,0.21871 -11.20284,0.35634c-3.98194,0.18848 -6.89845,0.14772 -8.74789,-0.12348c-2.86097,-0.41953 -4.74086,-1.38259 -5.63538,-2.88853c0.15481,-2.81478 1.83023,-4.28537 5.03041,-4.41993c2.56226,0.11777 5.12918,0.19375 7.70099,0.22645c0.39718,-0.36972 0.63589,-0.80813 0.70994,-1.31316c0.19774,-1.94815 0.75365,-8.95739 1.66485,-21.02816c0.16681,-2.89656 0.40322,-5.09847 0.70984,-6.59975c-1.50293,-0.3054 -2.4945,-0.57978 -2.97329,-0.82294c-1.20097,-0.60554 -1.88439,-1.52211 -2.04595,-2.7491l0.05576,-0.38022c0.17864,-0.05881 0.36676,-0.46213 0.56372,-1.20564c1.44794,-1.67834 3.06786,-2.17068 4.85872,-1.48011c0.2405,-0.48064 0.39747,-1.83093 0.46436,-4.05622c0.41579,-8.10265 0.88867,-14.56567 1.42559,-19.38656c-0.28815,-0.38375 -0.99149,-0.57482 -2.10941,-0.56728c-1.73246,0.09037 -2.64089,0.12864 -2.72411,0.11644c-4.54397,-0.66633 -6.57191,-2.07907 -6.08154,-4.24373c0.4639,-1.99413 2.36715,-2.95936 5.71058,-2.90144c3.03024,-0.15509 9.35009,-0.17513 18.96035,-0.05563c-0.43424,0.0228 2.53469,0.58567 8.9047,1.69272c7.31559,1.67515 12.31183,3.65506 14.98624,5.93645c2.88806,2.57361 4.62615,5.66303 5.21344,9.27402c0.17377,1.14377 0.01938,2.79635 -0.46936,4.95978c-0.40551,2.17563 -0.97076,3.6815 -1.69329,4.52089c-2.45518,3.24984 -6.82908,5.83139 -13.12621,7.74545c-0.03704,0.25253 -0.02024,0.42793 0.0522,0.52356c1.88121,1.82358 3.11434,3.37918 3.69939,4.6668c1.66697,3.85432 2.38912,9.20428 2.15848,16.04431c-0.25178,9.33292 -0.21434,15.22441 0.11453,17.67923c0.01058,0.51746 0.48166,1.4029 1.41465,2.65654c0.93256,1.2565 1.73013,1.97437 2.39248,2.15503c2.58075,0.5514 4.35471,-0.39177 5.31471,-2.83052c0.04962,-0.93805 0.61334,-2.14369 1.69016,-3.61998c1.33828,-0.92057 2.84771,-1.2591 4.53215,-1.01208c1.68545,0.25009 2.66746,1.16942 2.95217,2.75595zM311.44233,115.61818c0.86701,-0.64526 1.41854,-1.76766 1.65314,-3.36745c0.62909,-4.29001 -0.43579,-7.58263 -3.19157,-9.87889c-2.75763,-2.29359 -9.19828,-4.09839 -19.31949,-5.4111c-0.75614,-0.11088 -1.94171,0.05822 -3.55552,0.50897c0.0688,1.29985 -0.08541,2.35156 -0.46266,3.1551c-0.26981,1.2502 -0.44254,2.42816 -0.51822,3.53388c-0.29145,2.27738 -0.61901,5.11079 -0.98613,8.49388c-0.30902,5.0258 -0.50544,7.83447 -0.59149,8.4213c1.44126,0.12634 3.60795,0.01317 6.49513,-0.33584c0.48061,-0.35895 1.13826,-0.73592 1.96989,-1.12987c0.61144,-0.08182 2.13899,0.05571 4.57957,0.4136c4.62842,0.68018 9.27114,-0.78616 13.92737,-4.40355z"/><path d="M311.22407,190.65776c-4.94858,-0.72566 -12.00407,-3.35491 -17.51689,-11.7568c-0.09094,-0.13939 -0.18046,-0.27856 -0.2712,-0.41938c-2.18297,0.85387 -4.57361,1.35484 -7.11165,1.45166c-2.54849,0.09822 -6.29188,0.21909 -11.21166,0.3565c-5.04688,0.23457 -8.75647,0.14494 -11.66048,-0.28091c-9.76803,-1.4324 -14.65637,-6.51684 -17.03868,-10.53028c-1.61498,-2.71962 -2.38408,-5.86041 -2.20975,-9.01823c0.49753,-9.01988 6.19953,-16.03076 14.49219,-18.51985c0.1284,-1.66519 0.27321,-3.55222 0.43514,-5.6859c-2.14703,-2.69944 -3.54387,-5.95721 -4.01582,-9.53516c-0.19311,-1.4617 -0.18248,-2.94338 0.03149,-4.40256l0.05576,-0.38022c0.26216,-1.78775 0.82053,-3.48662 1.6257,-5.03938c0.64806,-1.55088 1.53833,-2.99443 2.64355,-4.27456c0.57382,-0.6648 1.17496,-1.28602 1.80076,-1.86552c0.00703,-0.12794 0.01429,-0.25732 0.0242,-0.38485c-2.4189,-1.33522 -4.83236,-3.25737 -6.74751,-6.04885c-2.90363,-4.23646 -3.87191,-9.35722 -2.72314,-14.42257c2.62106,-11.26749 12.7437,-15.26165 20.90392,-15.32841c3.52264,-0.1547 9.92123,-0.17201 19.52124,-0.05254c1.50522,0.01994 2.96128,0.24518 4.33914,0.65389c0.88511,0.17083 2.84987,0.53515 7.09622,1.27216c0.27873,0.0482 0.55764,0.10522 0.83283,0.16756c10.08655,2.30866 17.00708,5.27866 21.77613,9.34751c0.08873,0.07457 0.17581,0.15037 0.26268,0.22759c5.59438,4.98718 9.17194,11.42419 10.34501,18.61663c0.00821,0.05396 0.01664,0.1065 0.02483,0.16047c0.47832,3.13479 0.28289,6.50642 -0.61533,10.59282c-0.8988,4.63007 -2.48028,8.30848 -4.82508,11.21542c-1.37178,1.76865 -2.94934,3.39137 -4.74108,4.87566c0.76533,3.93609 1.09933,8.32483 1.01531,13.23559c0.59478,0.04179 1.19216,0.10594 1.7919,0.19387c8.43655,1.23715 14.84931,7.40986 16.33671,15.7271c0.05824,0.33245 0.10788,0.66363 0.14519,0.99887c0.96957,8.48021 -4.16075,15.01065 -5.84585,17.15694c-3.41577,4.35331 -7.07081,7.41987 -11.16651,9.36363c-4.24547,2.01558 -9.32904,2.85009 -15.53778,2.55227c-0.82776,-0.04224 -1.55121,-0.11608 -2.26143,-0.22022z"/></g><path d="M256.02328,138.38449c-0.80641,1.43548 -1.97098,3.06012 -3.63393,4.63904c0.89355,2.15429 1.91845,4.62182 3.0849,7.38463c0.96719,1.31421 2.04638,2.87108 3.2685,4.78357c0.51201,0.81634 0.95729,1.66616 1.32554,2.56741c2.67428,6.49497 1.73897,13.78094 -2.52196,19.45712c-3.03601,4.05018 -7.24586,6.91865 -12.18935,8.27229c-3.77119,1.03264 -7.519,1.0416 -10.96854,0.08825c-3.75922,2.68434 -8.06241,4.71291 -12.87879,6.03174c-6.97739,1.91056 -14.27378,2.10168 -21.65543,0.53969c-6.68653,-1.29684 -12.79602,-4.75587 -18.17291,-10.25268c-6.37334,-6.52973 -11.07146,-15.20352 -13.96826,-25.7826c-0.84312,-3.07909 -1.41621,-5.83736 -1.72967,-8.42378c-0.224,-1.76066 -0.57461,-4.26099 -1.02361,-7.50875c-0.19792,-1.38822 -0.2045,-2.79847 -0.03637,-4.18063c-0.17625,-2.8062 -0.24406,-6.32534 -0.20998,-10.69228c0.00066,-0.60751 0.04757,-1.21251 0.1086,-1.82137c1.5831,-13.12672 6.15774,-23.53489 13.60991,-30.91998c5.68278,-5.64038 12.37043,-9.55173 19.87042,-11.60538c2.95197,-0.80831 5.90042,-1.29682 8.84921,-1.45139c2.37857,-2.62513 5.74013,-4.821 10.3164,-6.07409c2.57062,-0.70389 5.17134,-0.85425 7.75206,-0.46771c6.62448,0.90387 12.15152,5.00826 14.86648,11.09733c0.08239,0.19001 0.16478,0.38002 0.24719,0.57001c1.33142,3.30978 2.29395,7.60121 3.10046,13.81808c0.70154,2.78383 1.01165,5.85704 0.94073,9.36862c-0.01344,0.67175 -0.07313,1.34097 -0.17906,2.00767c1.08304,0.29559 2.13665,0.70552 3.16083,1.22978c5.25075,2.70727 8.98266,7.24247 10.49486,12.76506c1.35364,4.94349 0.70517,10.11637 -1.82824,14.56034z" fill="#ffffff" stroke="#ffffff" stroke-width="40"/><path d="M480.72483,163.64607c-0.37412,1.12589 -0.8663,2.19931 -1.46123,3.22491c-4.21841,7.24657 -11.04188,12.53291 -20.27672,15.7167c-0.07528,0.02745 -0.16591,0.05028 -0.24583,0.09306c-5.55665,1.81844 -10.33186,2.93562 -14.6021,3.43535c-3.13856,0.35652 -6.23714,0.69164 -9.2758,0.99466c-3.27661,0.31474 -7.73442,0.27214 -14.09338,-0.12796c-6.53697,-0.42047 -9.68404,-0.36791 -10.99518,-0.29575c-5.82502,0.38097 -9.17717,0.17055 -12.3219,-0.78085c-1.7181,-0.51979 -3.32055,-1.25575 -4.7767,-2.19862c-0.05671,-0.0339 -0.11344,-0.0678 -0.16552,-0.11705c-2.55199,-1.69299 -4.45608,-3.42441 -5.98336,-5.46042c-2.55879,-3.38622 -4.05537,-7.4055 -4.33105,-11.64146c-0.03093,-0.56192 -0.04188,-1.13452 -0.02215,-1.69787c0.26553,-7.90663 4.80349,-14.60444 11.87421,-17.94063c1.11514,-4.90356 2.48631,-10.98546 4.07495,-18.17368c0.31778,-1.32712 0.59379,-2.51617 0.83732,-3.59785c-0.01839,-2.65115 0.56186,-5.28861 1.72505,-7.74973c0.4026,-0.83262 0.85946,-1.89998 1.31852,-3.25133c-2.63436,-1.91885 -5.27,-4.60832 -7.51013,-8.38371c-2.23548,-3.79073 -2.9849,-8.28722 -2.08608,-12.58646c0.42066,-1.99925 1.27913,-6.10976 4.58673,-9.84769c2.90901,-3.30596 10.92867,-10.05553 25.16431,-5.74873c0.32214,0.09746 0.65963,0.19957 0.99247,0.317c0.09668,0.01251 0.20871,0.02965 0.32073,0.0468c0.85015,0.12324 1.44559,0.20292 1.81698,0.2483l2.06423,0.20589c0.87942,0.08186 1.75561,0.22975 2.62858,0.44361c10.75317,2.70067 17.73049,4.54366 21.30474,5.62499c1.45731,0.44089 2.48651,0.8025 3.39907,1.1623c8.55501,3.32494 11.71816,4.93493 13.50572,5.94458c0.05671,0.0339 0.0981,0.06316 0.15482,0.09707c8.91605,5.17557 14.66299,11.97097 17.10312,20.1771c0.04562,0.18125 0.09591,0.34716 0.14153,0.5284c1.09413,4.13193 1.44568,10.71831 -3.07966,18.59201c-0.1449,0.25755 -0.28515,0.49977 -0.44075,0.73735c-1.36969,2.14747 -2.99372,4.08406 -4.86744,5.7944c1.86424,3.0254 3.36276,6.20806 4.45883,9.50337c0.06561,0.17055 0.11589,0.33646 0.16616,0.50237c1.82798,6.07861 0.3823,11.85333 -1.10305,16.20953z" fill="#f7b75d" stroke="none" stroke-width="1"/><path d="M407.60667,177.61597c-0.22334,0.14735 -0.44668,0.29467 -0.69853,0.43252c-4.253,2.49531 -8.83885,2.94719 -11.9753,3.04252c-5.98301,0.31895 -11.35768,1.33167 -15.95766,3.01438c-0.2376,0.09507 -0.47044,0.17587 -0.71756,0.25194c-4.38617,1.3738 -9.2572,1.25545 -14.90774,-0.42156c-0.19009,-0.0475 -0.37544,-0.10927 -0.56079,-0.17103c-4.33416,-1.44428 -7.98413,-4.3713 -10.55071,-8.45797c-1.25477,-1.98631 -2.12462,-4.12947 -2.60955,-6.33446c-2.58994,0.11904 -5.20845,-0.24664 -7.73196,-1.08754c-0.94097,-0.31356 -1.81541,-0.68415 -2.64709,-1.13553c-0.57029,-0.28508 -1.7679,-0.87425 -3.6166,-1.79125c-0.38495,-0.1758 -2.21937,-0.99301 -10.41252,-4.49939c-0.08553,-0.0285 -0.16634,-0.07127 -0.24713,-0.11403c-5.84547,-2.61318 -9.44788,-5.06499 -12.07614,-8.20596c-0.12833,-0.1378 -0.2519,-0.28986 -0.35645,-0.45143c-3.94957,-5.07025 -5.10972,-11.71374 -3.10008,-17.74449c3.24962,-9.75185 12.26406,-15.22248 22.4387,-13.62193c0.13306,0.0285 0.25187,0.05225 0.38968,0.0665c1.20708,0.228 2.44268,0.56054 3.68782,0.95961c0.09978,-0.20435 0.21381,-0.40395 0.3326,-0.61781c0.16155,-0.29465 0.33735,-0.58456 0.52742,-0.86971c2.95069,-4.62418 6.19122,-9.97547 9.71206,-16.02537c-4.87126,-2.54199 -7.37606,-6.67144 -8.28387,-8.1778c-1.56372,-2.58031 -2.39562,-5.55036 -2.40542,-8.56327c0.00408,-7.33267 4.10938,-13.94813 10.7289,-17.27054c4.08672,-2.04384 8.57749,-2.78084 12.95435,-2.13019c0.95045,0.14248 2.43316,0.35144 4.47189,0.60312l0.22811,0.02849c4.49565,0.62687 9.54736,1.67664 15.44975,3.21582c4.2581,1.10212 4.2581,1.10212 4.8854,1.31116c0.65583,0.21854 1.2974,0.47986 1.92472,0.78393c5.84548,2.80326 9.99941,8.02083 11.36388,14.33639c0.64182,2.92256 0.80371,6.2871 0.54273,10.63541c-0.14709,2.58047 -0.18024,3.72576 -0.18021,4.15346c0.06185,0.7651 0.16649,1.82959 0.29968,3.18872c0.05708,0.54175 0.08089,1.08825 0.07619,1.62525c0.00476,0.03327 0.01433,0.86015 0.28544,3.32653c0.01427,0.19484 0.0333,0.37542 0.04757,0.57025c0.39492,5.23216 1.00871,13.42016 1.84138,24.56404c0.00952,0.2091 0.0333,0.42295 0.04282,0.63204c0.04764,1.33061 0.10958,2.9036 0.19052,4.70468c5.24658,1.32063 9.68069,4.604 12.66552,9.33693c0.30419,0.46569 0.58461,0.95514 0.83177,1.44934c2.60469,5.20819 1.8163,10.33116 1.55509,12.01822c-0.09025,0.5085 -0.19475,1.01223 -0.31826,1.52549c-1.65792,6.54395 -5.3263,10.08946 -8.12043,11.91456zM337.55314,165.70863c-1.59685,-1.14989 -2.97987,-2.56116 -4.06829,-4.14356c1.08365,1.59664 2.44767,3.01743 4.06829,4.14356z" fill="#f7b75d" stroke="none" stroke-width="1"/><path d="M398.57333,163.7774c-0.81068,0.47435 -2.24489,0.73776 -4.30543,0.79402c-7.75083,0.3904 -14.74216,1.72927 -20.98304,4.01519c-1.14383,0.36175 -2.90121,0.19273 -5.26882,-0.50278c-0.67009,-0.2233 -1.26226,-0.74693 -1.77653,-1.56616c-0.51664,-0.82162 -0.64835,-1.60999 -0.39798,-2.36133c0.33446,-1.00369 1.89501,-1.92198 4.68211,-2.761c1.92079,-0.4735 3.86061,-0.98977 5.81228,-1.54644c0.21999,-0.38923 0.48514,-5.7816 0.78785,-16.17804c-4.57464,-1.61629 -12.31369,-2.52561 -23.21578,-2.72277c-0.64346,-0.0275 -1.08967,0.19446 -1.33959,0.66877c-0.25135,0.47382 -0.65474,1.26606 -1.21159,2.38098c-0.24471,0.19724 -0.52936,0.51898 -0.85627,0.96762c-0.11165,0.33504 0.25005,0.85157 1.08697,1.54865c0.8336,0.69755 1.3236,1.25684 1.46242,1.67217c0.13928,0.41866 0.12601,0.87677 -0.0417,1.38005c-0.33398,1.00227 -1.08713,1.79834 -2.25804,2.38393c-1.16899,0.58463 -2.38175,0.66839 -3.63495,0.25078c0.08269,0.02755 -1.35349,-0.68229 -4.30665,-2.13049c-0.55841,-0.27795 -4.25056,-1.88053 -11.07882,-4.80536c-3.23354,-1.44818 -5.28186,-2.68832 -6.14353,-3.71994c-0.58554,-0.7527 -0.73912,-1.54678 -0.46071,-2.38224c0.66893,-2.0074 2.06267,-2.84345 4.17982,-2.50861c1.22467,0.22277 2.70266,0.80715 4.43018,1.75506c0.36167,0.30744 3.56527,1.69811 9.61507,4.17821c1.67199,-3.34429 4.13749,-7.9575 7.39697,-13.83629c6.01734,-9.42041 13.08229,-21.55679 21.19058,-36.41059c-0.78178,-0.44425 -1.63009,-0.82198 -2.54967,-1.12842c-1.58967,-0.52972 -4.10409,-0.85597 -7.54708,-0.98159c-3.44061,-0.12324 -5.91466,-0.43761 -7.4202,-0.93931c-0.58454,-0.19478 -1.26893,-0.93131 -2.04793,-2.21577c-0.00058,-1.11535 0.52779,-1.93563 1.58701,-2.46655c1.05874,-0.5295 2.09709,-0.7173 3.1155,-0.56484c1.0165,0.1534 2.63941,0.36948 4.87061,0.64727c3.81703,0.52904 8.33077,1.47716 13.54266,2.8401c2.47881,0.64227 3.76195,0.97481 3.84606,1.00284c1.28126,0.61387 2.06926,1.5956 2.36213,2.94616c0.29239,1.35197 0.35531,3.39258 0.18828,6.12322c-0.19596,3.37362 -0.25943,5.44178 -0.18714,6.20879c0.06898,0.76747 0.1879,2.01256 0.35628,3.74139c-0.0018,1.11298 0.12383,2.82756 0.37639,5.14043c0.39064,5.24023 1.00301,13.43252 1.8428,24.57877c0.16674,4.5146 0.5162,11.41382 1.04692,20.69248c1.47559,0.30639 3.55324,0.20829 6.22632,-0.29332c2.6764,-0.50208 4.5559,-0.57116 5.64515,-0.20819c1.00227,0.33399 1.83779,1.03059 2.50841,2.08885c0.1673,0.33453 0.16357,1.03026 -0.00076,2.08907c-0.27885,1.11727 -0.65516,1.82823 -1.12656,2.13527zM376.78996,136.32062c-0.50784,-3.23432 -0.9146,-8.01738 -1.2255,-14.34777c-0.19743,-2.20264 -0.78674,-7.9732 -1.77085,-17.31739l-16.73744,29.54987c7.98241,1.08229 14.22453,1.95374 18.73158,2.61769c0.61112,-0.16543 0.94614,-0.33417 1.0022,-0.50241z" fill="#ffffff" stroke="none" stroke-width="1"/><g stroke="none" stroke-width="1"><path d="M330.18724,163.61715c0.14916,1.31163 -0.69703,3.14417 -2.54388,5.49392c-1.8442,2.35159 -3.66489,3.9533 -5.46231,4.80654c-1.79742,0.85324 -4.44198,1.1968 -7.9304,1.02821c-2.80761,-0.15375 -5.20974,-1.75328 -7.20539,-4.79546c-1.99851,-3.04261 -2.92208,-6.2295 -2.77663,-9.5601c0.43164,-9.39009 0.23133,-16.20977 -0.60258,-20.45784c-0.02139,-1.03349 -0.26314,-2.5932 -0.72914,-4.68265c-0.46497,-2.08638 -1.94754,-3.95996 -4.44831,-5.61643c-1.90499,-1.05175 -3.84242,-2.15221 -5.81657,-3.30203c-0.32353,-0.13245 -0.7425,-0.19389 -1.25831,-0.18453c-1.22433,0.16343 -3.75928,0.47908 -7.5991,0.94781l-0.35157,2.39753l-1.44355,9.84408c-0.02483,0.1693 -0.07889,0.97773 -0.16219,2.4253c-0.08371,1.45043 -0.16872,2.46979 -0.25477,3.05661c-0.04212,1.45653 -0.38501,5.27408 -1.03422,11.45034c0.54958,0.34 1.1809,0.43258 1.89249,0.27751c2.40697,-0.59237 4.45643,-0.50582 6.15003,0.25844c1.20075,0.60699 1.68251,1.70943 1.44833,3.30635c-0.34569,2.35736 -1.79339,3.58433 -4.34311,3.6809c-2.55014,0.09944 -6.28448,0.21871 -11.20284,0.35634c-3.98194,0.18848 -6.89845,0.14772 -8.74789,-0.12348c-2.86097,-0.41953 -4.74086,-1.38259 -5.63538,-2.88853c0.15481,-2.81478 1.83023,-4.28537 5.03041,-4.41993c2.56226,0.11777 5.12918,0.19375 7.70099,0.22645c0.39718,-0.36972 0.63589,-0.80813 0.70994,-1.31316c0.19774,-1.94815 0.75365,-8.95739 1.66485,-21.02816c0.16681,-2.89656 0.40322,-5.09847 0.70984,-6.59975c-1.50293,-0.3054 -2.4945,-0.57978 -2.97329,-0.82294c-1.20097,-0.60554 -1.88439,-1.52211 -2.04595,-2.7491l0.05576,-0.38022c0.17864,-0.05881 0.36676,-0.46213 0.56372,-1.20564c1.44794,-1.67834 3.06786,-2.17068 4.85872,-1.48011c0.2405,-0.48064 0.39747,-1.83093 0.46436,-4.05622c0.41579,-8.10265 0.88867,-14.56567 1.42559,-19.38656c-0.28815,-0.38375 -0.99149,-0.57482 -2.10941,-0.56728c-1.73246,0.09037 -2.64089,0.12864 -2.72411,0.11644c-4.54397,-0.66633 -6.57191,-2.07907 -6.08154,-4.24373c0.4639,-1.99413 2.36715,-2.95936 5.71058,-2.90144c3.03024,-0.15509 9.35009,-0.17513 18.96035,-0.05563c-0.43424,0.0228 2.53469,0.58567 8.9047,1.69272c7.31559,1.67515 12.31183,3.65506 14.98624,5.93645c2.88806,2.57361 4.62615,5.66303 5.21344,9.27402c0.17377,1.14377 0.01938,2.79635 -0.46936,4.95978c-0.40551,2.17563 -0.97076,3.6815 -1.69329,4.52089c-2.45518,3.24984 -6.82908,5.83139 -13.12621,7.74545c-0.03704,0.25253 -0.02024,0.42793 0.0522,0.52356c1.88121,1.82358 3.11434,3.37918 3.69939,4.6668c1.66697,3.85432 2.38912,9.20428 2.15848,16.04431c-0.25178,9.33292 -0.21434,15.22441 0.11453,17.67923c0.01058,0.51746 0.48166,1.4029 1.41465,2.65654c0.93256,1.2565 1.73013,1.97437 2.39248,2.15503c2.58075,0.5514 4.35471,-0.39177 5.31471,-2.83052c0.04962,-0.93805 0.61334,-2.14369 1.69016,-3.61998c1.33828,-0.92057 2.84771,-1.2591 4.53215,-1.01208c1.68545,0.25009 2.66746,1.16942 2.95217,2.75595zM311.44233,115.61818c0.86701,-0.64526 1.41854,-1.76766 1.65314,-3.36745c0.62909,-4.29001 -0.43579,-7.58263 -3.19157,-9.87889c-2.75763,-2.29359 -9.19828,-4.09839 -19.31949,-5.4111c-0.75614,-0.11088 -1.94171,0.05822 -3.55552,0.50897c0.0688,1.29985 -0.08541,2.35156 -0.46266,3.1551c-0.26981,1.2502 -0.44254,2.42816 -0.51822,3.53388c-0.29145,2.27738 -0.61901,5.11079 -0.98613,8.49388c-0.30902,5.0258 -0.50544,7.83447 -0.59149,8.4213c1.44126,0.12634 3.60795,0.01317 6.49513,-0.33584c0.48061,-0.35895 1.13826,-0.73592 1.96989,-1.12987c0.61144,-0.08182 2.13899,0.05571 4.57957,0.4136c4.62842,0.68018 9.27114,-0.78616 13.92737,-4.40355z" fill="#faa83b"/><path d="M311.22407,190.65776c-4.94858,-0.72566 -12.00407,-3.35491 -17.51689,-11.7568c-0.09094,-0.13939 -0.18046,-0.27856 -0.2712,-0.41938c-2.18297,0.85387 -4.57361,1.35484 -7.11165,1.45166c-2.54849,0.09822 -6.29188,0.21909 -11.21166,0.3565c-5.04688,0.23457 -8.75647,0.14494 -11.66048,-0.28091c-9.76803,-1.4324 -14.65637,-6.51684 -17.03868,-10.53028c-1.61498,-2.71962 -2.38408,-5.86041 -2.20975,-9.01823c0.49753,-9.01988 6.19953,-16.03076 14.49219,-18.51985c0.1284,-1.66519 0.27321,-3.55222 0.43514,-5.6859c-2.14703,-2.69944 -3.54387,-5.95721 -4.01582,-9.53516c-0.19311,-1.4617 -0.18248,-2.94338 0.03149,-4.40256l0.05576,-0.38022c0.26216,-1.78775 0.82053,-3.48662 1.6257,-5.03938c0.64806,-1.55088 1.53833,-2.99443 2.64355,-4.27456c0.57382,-0.6648 1.17496,-1.28602 1.80076,-1.86552c0.00703,-0.12794 0.01429,-0.25732 0.0242,-0.38485c-2.4189,-1.33522 -4.83236,-3.25737 -6.74751,-6.04885c-2.90363,-4.23646 -3.87191,-9.35722 -2.72314,-14.42257c2.62106,-11.26749 12.7437,-15.26165 20.90392,-15.32841c3.52264,-0.1547 9.92123,-0.17201 19.52124,-0.05254c1.50522,0.01994 2.96128,0.24518 4.33914,0.65389c0.88511,0.17083 2.84987,0.53515 7.09622,1.27216c0.27873,0.0482 0.55764,0.10522 0.83283,0.16756c10.08655,2.30866 17.00708,5.27866 21.77613,9.34751c0.08873,0.07457 0.17581,0.15037 0.26268,0.22759c5.59438,4.98718 9.17194,11.42419 10.34501,18.61663c0.00821,0.05396 0.01664,0.1065 0.02483,0.16047c0.47832,3.13479 0.28289,6.50642 -0.61533,10.59282c-0.8988,4.63007 -2.48028,8.30848 -4.82508,11.21542c-1.37178,1.76865 -2.94934,3.39137 -4.74108,4.87566c0.76533,3.93609 1.09933,8.32483 1.01531,13.23559c0.59478,0.04179 1.19216,0.10594 1.7919,0.19387c8.43655,1.23715 14.84931,7.40986 16.33671,15.7271c0.05824,0.33245 0.10788,0.66363 0.14519,0.99887c0.96957,8.48021 -4.16075,15.01065 -5.84585,17.15694c-3.41577,4.35331 -7.07081,7.41987 -11.16651,9.36363c-4.24547,2.01558 -9.32904,2.85009 -15.53778,2.55227c-0.82776,-0.04224 -1.55121,-0.11608 -2.26143,-0.22022z" fill="#f7b75d"/></g><path d="M330.18724,163.61715c0.14916,1.31163 -0.69703,3.14417 -2.54388,5.49392c-1.8442,2.35159 -3.66489,3.9533 -5.46231,4.80654c-1.79742,0.85324 -4.44198,1.1968 -7.9304,1.02821c-2.80761,-0.15375 -5.20974,-1.75328 -7.20539,-4.79546c-1.99851,-3.04261 -2.92208,-6.2295 -2.77663,-9.5601c0.43164,-9.39009 0.23133,-16.20977 -0.60258,-20.45784c-0.02139,-1.03349 -0.26314,-2.5932 -0.72914,-4.68265c-0.46497,-2.08638 -1.94754,-3.95996 -4.44831,-5.61643c-1.90499,-1.05175 -3.84242,-2.15221 -5.81657,-3.30203c-0.32353,-0.13245 -0.7425,-0.19389 -1.25831,-0.18453c-1.22433,0.16343 -3.75928,0.47908 -7.5991,0.94781l-0.35157,2.39753l-1.44355,9.84408c-0.02483,0.1693 -0.07889,0.97773 -0.16219,2.4253c-0.08371,1.45043 -0.16872,2.46979 -0.25477,3.05661c-0.04212,1.45653 -0.38501,5.27408 -1.03422,11.45034c0.54958,0.34 1.1809,0.43258 1.89249,0.27751c2.40697,-0.59237 4.45643,-0.50582 6.15003,0.25844c1.20075,0.60699 1.68251,1.70943 1.44833,3.30635c-0.34569,2.35736 -1.79339,3.58433 -4.34311,3.6809c-2.55014,0.09944 -6.28448,0.21871 -11.20284,0.35634c-3.98194,0.18848 -6.89845,0.14772 -8.74789,-0.12348c-2.86097,-0.41953 -4.74086,-1.38259 -5.63538,-2.88853c0.15481,-2.81478 1.83023,-4.28537 5.03041,-4.41993c2.56226,0.11777 5.12918,0.19375 7.70099,0.22645c0.39718,-0.36972 0.63589,-0.80813 0.70994,-1.31316c0.19774,-1.94815 0.75365,-8.95739 1.66485,-21.02816c0.16681,-2.89656 0.40322,-5.09847 0.70984,-6.59975c-1.50293,-0.3054 -2.4945,-0.57978 -2.97329,-0.82294c-1.20097,-0.60554 -1.88439,-1.52211 -2.04595,-2.7491l0.05576,-0.38022c0.17864,-0.05881 0.36676,-0.46213 0.56372,-1.20564c1.44794,-1.67834 3.06786,-2.17068 4.85872,-1.48011c0.2405,-0.48064 0.39747,-1.83093 0.46436,-4.05622c0.41579,-8.10265 0.88867,-14.56567 1.42559,-19.38656c-0.28815,-0.38375 -0.99149,-0.57482 -2.10941,-0.56728c-1.73246,0.09037 -2.64089,0.12864 -2.72411,0.11644c-4.54397,-0.66633 -6.57191,-2.07907 -6.08154,-4.24373c0.4639,-1.99413 2.36715,-2.95936 5.71058,-2.90144c3.03024,-0.15509 9.35009,-0.17513 18.96035,-0.05563c-0.43424,0.0228 2.53469,0.58567 8.9047,1.69272c7.31559,1.67515 12.31183,3.65506 14.98624,5.93645c2.88806,2.57361 4.62615,5.66303 5.21344,9.27402c0.17377,1.14377 0.01938,2.79635 -0.46936,4.95978c-0.40551,2.17563 -0.97076,3.6815 -1.69329,4.52089c-2.45518,3.24984 -6.82908,5.83139 -13.12621,7.74545c-0.03704,0.25253 -0.02024,0.42793 0.0522,0.52356c1.88121,1.82358 3.11434,3.37918 3.69939,4.6668c1.66697,3.85432 2.38912,9.20428 2.15848,16.04431c-0.25178,9.33292 -0.21434,15.22441 0.11453,17.67923c0.01058,0.51746 0.48166,1.4029 1.41465,2.65654c0.93256,1.2565 1.73013,1.97437 2.39248,2.15503c2.58075,0.5514 4.35471,-0.39177 5.31471,-2.83052c0.04962,-0.93805 0.61334,-2.14369 1.69016,-3.61998c1.33828,-0.92057 2.84771,-1.2591 4.53215,-1.01208c1.68545,0.25009 2.66746,1.16942 2.95217,2.75595zM311.44233,115.61818c0.86701,-0.64526 1.41854,-1.76766 1.65314,-3.36745c0.62909,-4.29001 -0.43579,-7.58263 -3.19157,-9.87889c-2.75763,-2.29359 -9.19828,-4.09839 -19.31949,-5.4111c-0.75614,-0.11088 -1.94171,0.05822 -3.55552,0.50897c0.0688,1.29985 -0.08541,2.35156 -0.46266,3.1551c-0.26981,1.2502 -0.44254,2.42816 -0.51822,3.53388c-0.29145,2.27738 -0.61901,5.11079 -0.98613,8.49388c-0.30902,5.0258 -0.50544,7.83447 -0.59149,8.4213c1.44126,0.12634 3.60795,0.01317 6.49513,-0.33584c0.48061,-0.35895 1.13826,-0.73592 1.96989,-1.12987c0.61144,-0.08182 2.13899,0.05571 4.57957,0.4136c4.62842,0.68018 9.27114,-0.78616 13.92737,-4.40355z" fill="#ffffff" stroke="none" stroke-width="1"/><path d="M256.02328,138.38449c-0.80641,1.43548 -1.97098,3.06012 -3.63393,4.63904c0.89355,2.15429 1.91845,4.62182 3.0849,7.38463c0.96719,1.31421 2.04638,2.87108 3.2685,4.78357c0.51201,0.81634 0.95729,1.66616 1.32554,2.56741c2.67428,6.49497 1.73897,13.78094 -2.52196,19.45712c-3.03601,4.05018 -7.24586,6.91865 -12.18935,8.27229c-3.77119,1.03264 -7.519,1.0416 -10.96854,0.08825c-3.75922,2.68434 -8.06241,4.71291 -12.87879,6.03174c-6.97739,1.91056 -14.27378,2.10168 -21.65543,0.53969c-6.68653,-1.29684 -12.79602,-4.75587 -18.17291,-10.25268c-6.37334,-6.52973 -11.07146,-15.20352 -13.96826,-25.7826c-0.84312,-3.07909 -1.41621,-5.83736 -1.72967,-8.42378c-0.224,-1.76066 -0.57461,-4.26099 -1.02361,-7.50875c-0.19792,-1.38822 -0.2045,-2.79847 -0.03637,-4.18063c-0.17625,-2.8062 -0.24406,-6.32534 -0.20998,-10.69228c0.00066,-0.60751 0.04757,-1.21251 0.1086,-1.82137c1.5831,-13.12672 6.15774,-23.53489 13.60991,-30.91998c5.68278,-5.64038 12.37043,-9.55173 19.87042,-11.60538c2.95197,-0.80831 5.90042,-1.29682 8.84921,-1.45139c2.37857,-2.62513 5.74013,-4.821 10.3164,-6.07409c2.57062,-0.70389 5.17134,-0.85425 7.75206,-0.46771c6.62448,0.90387 12.15152,5.00826 14.86648,11.09733c0.08239,0.19001 0.16478,0.38002 0.24719,0.57001c1.33142,3.30978 2.29395,7.60121 3.10046,13.81808c0.70154,2.78383 1.01165,5.85704 0.94073,9.36862c-0.01344,0.67175 -0.07313,1.34097 -0.17906,2.00767c1.08304,0.29559 2.13665,0.70552 3.16083,1.22978c5.25075,2.70727 8.98266,7.24247 10.49486,12.76506c1.35364,4.94349 0.70517,10.11637 -1.82824,14.56034z" fill="#f7b75d" stroke="none" stroke-width="1"/><path d="M242.02439,130.42789c-0.60207,1.05613 -1.76002,1.86211 -3.4777,2.4205c1.13576,-0.39906 -0.29345,-0.09578 -4.29264,0.90819c0.38685,2.38869 0.70861,5.6819 0.97003,9.88593c1.38885,3.44741 3.46951,8.4454 6.23965,14.98547c0.91905,1.08295 2.15719,2.8377 3.71184,5.26039c0.52701,1.28141 0.35152,2.5092 -0.52785,3.68376c-0.8804,1.17637 -2.06636,1.96875 -3.55648,2.37678c-1.4096,0.38598 -2.55682,0.25525 -3.44627,-0.39246c-0.311,-0.80306 -0.91012,-2.0207 -1.80044,-3.64749c-1.46414,-2.09217 -2.23384,-3.43923 -2.30804,-4.04293c0.08193,-0.02244 -0.04487,-0.16384 -0.38614,-0.42871c-2.89144,7.65004 -8.1884,12.52582 -15.89037,14.63479c-4.55649,1.24767 -9.29358,1.34228 -14.2123,0.28562c-3.47338,-0.65227 -6.75551,-2.5579 -9.84536,-5.7187c-4.45594,-4.56773 -7.77295,-10.82597 -9.95038,-18.77793c-0.63467,-2.31779 -1.06613,-4.38148 -1.29403,-6.18966c-0.2279,-1.80818 -0.57731,-4.38173 -1.04656,-7.72566c0.11859,-0.21012 0.19257,-0.5887 0.2249,-1.13048c-0.24364,-2.51444 -0.35039,-6.31444 -0.31524,-11.39832c1.14319,-9.48222 4.12878,-16.62207 8.95896,-21.41711c3.70914,-3.68791 7.96523,-6.18793 12.7703,-7.50367c5.7966,-1.58724 11.53763,-1.10952 17.22016,1.42789c0.05949,-0.10435 0.03969,-0.49825 -0.05772,-1.18671c-0.46098,-1.02922 -0.89222,-2.60408 -1.29253,-4.72033c-0.03368,-1.41496 1.07126,-2.43115 3.30714,-3.04338c0.41385,-0.11332 0.80993,-0.13067 1.18709,-0.05631c1.18856,0.12093 2.01385,0.69512 2.47523,1.72575c0.83838,2.08589 1.57641,5.75706 2.21368,11.0121c0.49033,1.46909 0.71232,3.41098 0.66214,5.82824c-0.64015,1.24419 -1.53933,2.02486 -2.69751,2.34199c-1.82203,0.49891 -3.36371,0.07536 -4.62084,-1.27183c-0.15857,-0.57909 -0.48707,-1.29081 -0.98549,-2.13518c-1.95952,-1.95502 -3.99092,-3.35742 -6.09419,-4.20721c-2.71338,-1.12608 -6.05062,-1.28118 -10.01095,-0.46245c-6.86619,1.2576 -11.51788,5.24612 -13.95188,11.96618c-1.68203,4.91384 -2.32031,10.38456 -1.91471,16.41817c-0.04477,0.81241 -0.05839,2.06572 -0.04178,3.75108c0.471,5.30209 1.26387,9.98312 2.37463,14.03961c1.5652,5.71609 3.97296,10.93273 7.22507,15.65093c1.91552,2.77025 4.78971,4.6555 8.62564,5.65033c3.56286,0.98458 6.9592,1.0339 10.19084,0.14901c2.15254,-0.58941 4.18195,-1.63402 6.08606,-3.13625c1.33335,-0.9861 2.87302,-4.30163 4.62186,-9.94738c0.36811,-1.25624 0.5659,-2.64653 0.59518,-4.16984c-0.02417,-2.04009 -0.02421,-3.33218 0.00632,-3.875c0.23198,-1.75342 0.03332,-3.85961 -0.5934,-6.3147c-0.62915,-2.45291 -0.92357,-4.26565 -0.88637,-5.43282c-2.11587,0.40172 -4.887,1.33817 -8.31159,2.81035c-4.59985,2.05971 -6.94266,3.10205 -7.02316,3.12411c-2.73305,0.74837 -4.9737,0.20646 -6.72309,-1.62996c-0.53612,-0.65488 -0.83488,-1.41878 -0.89524,-2.29351c0.05721,-1.08305 0.52378,-2.1461 1.39724,-3.18695c1.31502,-1.69621 3.96488,-2.90919 7.95047,-3.64676c6.03889,-1.02955 10.83812,-2.03396 14.40026,-3.00934c0.49718,-0.13613 1.85216,-0.54968 4.06483,-1.24666c1.96626,-0.62647 3.45638,-1.0345 4.47315,-1.22485c1.22051,-0.42226 2.70227,-0.6944 4.45136,-0.81652c1.24278,0.64055 2.02307,1.5383 2.3402,2.6965c0.22317,0.83166 0.1252,1.61613 -0.2939,2.35341z" fill="#ffffff" stroke="none" stroke-width="1"/><path d="M465.25653,157.99496c-2.04353,3.50584 -5.64134,6.14966 -10.79402,7.92791c-4.36131,1.43161 -8.06741,2.3247 -11.11845,2.67422c-3.05244,0.35411 -6.04645,0.67566 -8.98052,0.9651c-2.22544,0.21081 -5.98905,0.15385 -11.28835,-0.17347c-5.77967,-0.3722 -10.16658,-0.47203 -13.16378,-0.30048c-3.70983,0.25234 -5.85406,0.19469 -6.42672,-0.17613c-0.81833,-0.54394 -1.36711,-1.00467 -1.64333,-1.38126c-0.49449,-0.64022 -0.76761,-1.35911 -0.81901,-2.16331c0.04791,-1.45899 0.92761,-2.41852 2.64047,-2.88321c0.7634,-0.25965 2.65382,-0.17666 5.67161,0.24238c0.02691,-0.08898 0.04063,-0.37785 0.04209,-0.86969c-0.00055,-0.49077 0.04056,-0.87014 0.1227,-1.14167c0.89712,-1.9857 1.37182,-3.06777 1.42659,-3.24878c1.29911,-5.5947 3.17853,-13.91557 5.63395,-24.95392c0.63579,-2.75463 1.16677,-4.99676 1.5942,-6.73611c-0.03667,-0.20533 -0.14747,-0.48667 -0.33624,-0.8368c2.66807,-5.5757 4.57468,-12.85189 5.72325,-21.83426l0.35167,-0.1883c-0.78304,-0.33401 -1.57907,-0.62507 -2.3875,-0.86965c-0.72252,-0.21859 -1.69378,-0.41196 -2.91654,-0.58765c-1.22521,-0.1731 -2.15105,-0.35608 -2.78001,-0.54636c-1.97734,-0.59822 -3.61756,-1.99528 -4.91666,-4.19333c0.21641,-1.0363 0.39693,-1.63302 0.54114,-1.78865c1.3621,-1.5855 4.16212,-1.59235 8.40021,-0.01547c0.26999,0.08168 1.03783,0.21687 2.30753,0.40342c1.26924,0.18809 2.13998,0.30418 2.61836,0.3501c0.47685,0.04546 1.19065,0.11575 2.14634,0.20562c13.32403,3.34616 20.81273,5.36396 22.46839,6.06243c5.71121,2.22013 9.48696,3.85304 11.32986,4.90118c4.92667,2.8652 7.94598,6.18479 9.06459,9.95911c0.36536,1.38811 -0.07614,3.16842 -1.32232,5.34488c-2.05235,3.20848 -5.85404,5.39712 -11.41071,6.56254c-2.21463,0.50711 -6.56156,0.91163 -13.03175,1.21128c11.89332,6.44803 19.28292,13.98486 22.17246,22.61496c0.29279,0.96932 -0.01371,2.79046 -0.91949,5.46339zM457.42525,112.32359c-2.96634,-1.87864 -6.71625,-3.60251 -11.24971,-5.17164l-7.28656,-2.20445c-2.07092,-0.62653 -4.39838,-1.03598 -6.98962,-1.23221c-0.80511,5.25689 -1.51735,9.06672 -2.13258,11.4324l-2.44949,8.09652c4.89333,0.6951 11.85591,0.88768 20.88711,0.5742c4.66307,-0.15986 7.76415,-0.84083 9.30725,-2.04505c2.0645,-1.63253 3.24665,-2.94428 3.546,-3.93371c0.54345,-1.79633 -0.66806,-3.63635 -3.6324,-5.51605zM456.38747,156.63789c1.15477,-1.22124 1.52188,-2.43465 1.10223,-3.64328c-4.05449,-9.96543 -12.37862,-16.85401 -24.97133,-20.66376c-2.07092,-0.62653 -4.34456,-1.21391 -6.82673,-1.77063c-2.38151,9.49346 -4.60636,19.2771 -6.67192,29.35339c-0.19027,0.62894 -0.2998,0.99098 -0.32626,1.07841c0.16515,0.73815 0.26043,1.55228 0.28276,2.44145c4.98323,0.91822 11.57812,0.92588 19.78973,0.02285c8.21008,-0.90349 14.08664,-3.17605 17.62151,-6.81842z" fill="#ffffff" stroke="none" stroke-width="1"/></g></g></svg>
