<svg xmlns="http://www.w3.org/2000/svg" width="600" height="300"><defs><linearGradient id="a" x1="240" x2="353.888" y1="150" y2="150" gradientUnits="userSpaceOnUse"><stop offset="0" stop-color="#f9a937"/><stop offset="1" stop-color="#ff4c4c"/></linearGradient></defs><path fill="#ff4c4c" d="M292.018 299.773V.104h307.506v299.669z" style="fill-rule:nonzero;stroke-linecap:butt;stroke-linejoin:miter;stroke-miterlimit:10;stroke-dasharray:none;stroke-dashoffset:0"/><path fill="#f9a937" d="M0 300V0h298.674v300z" style="fill-rule:nonzero;stroke-linecap:butt;stroke-linejoin:miter;stroke-miterlimit:10;stroke-dasharray:none;stroke-dashoffset:0"/><path fill="url(#a)" d="M240 299.834V.166h113.888v299.668z" style="fill:url(#a);fill-rule:nonzero;stroke-linecap:butt;stroke-linejoin:miter;stroke-miterlimit:10;stroke-dasharray:none;stroke-dashoffset:0"/><g style="fill-rule:nonzero;stroke-linecap:butt;stroke-linejoin:miter;stroke-miterlimit:10;stroke-dasharray:none;stroke-dashoffset:0"><path fill="#7c8d96" stroke="#7c8d96" stroke-width="15" d="M299.023 160.588v-21.842h36.053v21.842z"/><path fill="#7c8d96" stroke="#7c8d96" stroke-width="15" d="M332.433 177.058v-54.817l25.822 26.71z"/><g fill="#fff" stroke-width="0"><path d="M299.023 160.588v-21.842h36.053v21.842z"/><path d="M331.13 179.667v-58.948l27.125 28.232z"/></g></g><g fill="#ff3c3c" style="fill-rule:nonzero;stroke-linecap:butt;stroke-linejoin:miter;stroke-miterlimit:10;stroke-dasharray:none;stroke-dashoffset:0"><g stroke="#b32a2a" stroke-width="15"><path d="M137.611 178.819c-1.795-.044-5.232-4.065-6.737-5.837-2.56-3.015-9.5-11.43-14.492-17.492-3.154-3.832-4.317-7.028-4.317-7.028l51.971-.455s-1.407 3.66-4.689 7.512c-5.274 6.19-12.65 14.835-15.266 17.833-1.492 1.71-4.674 5.51-6.47 5.467z"/><path d="M107.663 138.68c0-9.665 7.835-17.5 17.5-17.5s15.326 7.835 15.326 17.5-5.66 17.5-15.326 17.5c-9.665 0-17.5-7.835-17.5-17.5z"/><path d="M135.074 138.68c0-9.665 5.88-17.5 15.544-17.5 9.665 0 17.5 7.835 17.5 17.5s-7.835 17.5-17.5 17.5-15.544-7.835-15.544-17.5z"/></g><g stroke-width="0"><path d="M137.611 178.819c-1.795-.044-5.232-4.065-6.737-5.837-4.18-4.92-20.02-24.217-20.02-24.217h54.243s-16.773 19.724-21.016 24.587c-1.492 1.71-4.674 5.51-6.47 5.467z"/><path d="M107.663 138.68c0-9.665 7.835-17.5 17.5-17.5s15.326 7.835 15.326 17.5-5.66 17.5-15.326 17.5c-9.665 0-17.5-7.835-17.5-17.5z"/><path d="M135.074 138.68c0-9.665 5.88-17.5 15.544-17.5 9.665 0 17.5 7.835 17.5 17.5s-7.835 17.5-17.5 17.5-15.544-7.835-15.544-17.5z"/></g></g><g style="fill-rule:nonzero;stroke-linecap:butt;stroke-linejoin:miter;stroke-miterlimit:10;stroke-dasharray:none;stroke-dashoffset:0"><path fill="#a86913" stroke="#a86913" stroke-width="15" d="m202.594 141.505 17.377-.015 5.978-19.256c1.013-3.264 3.928-2.943 4.928.139 1.62 4.995 6.372 18.91 6.372 18.91s13.547.13 18.542.173c2.863.024 5.193 2.514 2.67 4.14-3.96 2.554-15.35 9.755-15.35 9.755s5.634 16.298 7.752 21a2.665 2.665 0 0 1-3.84 3.396c-4.683-2.743-18.296-13.477-18.296-13.477s-13.868 10.175-18.931 13.17c-3.058 1.809-4.917-.6-3.293-3.895 2.427-4.927 7.848-19.684 7.848-19.684l-13.835-9.602c-2.677-1.858-1.385-4.75 2.078-4.754z"/><path fill="#ffd41c" d="m202.594 141.505 17.377-.015 5.978-19.256c1.013-3.264 3.928-2.943 4.928.139 1.62 4.995 6.372 18.91 6.372 18.91s13.547.13 18.542.173c2.863.024 5.193 2.514 2.67 4.14-3.96 2.554-15.35 9.755-15.35 9.755s5.634 16.298 7.752 21a2.665 2.665 0 0 1-3.84 3.396c-4.683-2.743-18.296-13.477-18.296-13.477s-13.868 10.175-18.931 13.17c-3.058 1.809-4.917-.6-3.293-3.895 2.427-4.927 7.848-19.684 7.848-19.684l-13.835-9.602c-2.677-1.858-1.385-4.75 2.078-4.754z"/></g><g fill="#1c52ff" style="fill-rule:nonzero;stroke-linecap:butt;stroke-linejoin:miter;stroke-miterlimit:10;stroke-dasharray:none;stroke-dashoffset:0"><g stroke="#263090" stroke-width="15"><path d="M40.51 181.793s-1.593-36.158 18.3-36.158c19.894 0 17.689 36.158 17.689 36.158z"/><path d="M43.475 133.232c0-8.298 6.726-15.025 15.024-15.025 8.297 0 15.024 6.727 15.024 15.025 0 8.297-6.727 15.024-15.024 15.024-8.298 0-15.024-6.727-15.024-15.024z"/></g><g stroke-width="0"><path d="M40.51 181.793s-1.593-36.158 18.3-36.158c19.894 0 17.689 36.158 17.689 36.158z"/><path d="M43.475 133.232c0-8.298 6.726-15.025 15.024-15.025 8.297 0 15.024 6.727 15.024 15.025 0 8.297-6.727 15.024-15.024 15.024-8.298 0-15.024-6.727-15.024-15.024z"/></g></g><path fill="#fff" d="M506.76 93.465c-.967 3.876-1.797 9.13-2.489 15.77-.28 3.32-.144 6.017.416 8.093.962 3.46.898 5.744-.208 6.847-1.524 1.383-3.597 2.074-6.225 2.074-3.046 0-5.055-.904-6.018-2.715-.144-5.572-.073-10.8.208-15.677.271-5.992.415-9.127.415-9.405-.144 0-.35-.14-.623-.42-12.868.56-24.971 1.39-36.313 2.498-.278 1.39-.278 3.604 0 6.652.55 4.298.83 6.794.83 7.482-.551 4.298-.83 10.672-.83 19.13.55 3.603.83 19.06.83 46.363v15.18c0 2.356.343 4.02 1.03 4.99h12.74c2.328-.277 4.21.277 5.651 1.66 1.437 1.384 2.157 3.042 2.157 4.977 0 3.04-1.451 5.187-4.357 6.435-1.8.69-4.98.83-9.545.415-2.212-.142-5.465-.142-9.754 0-3.873.481-10.096.965-18.673 1.45-7.47.277-12.035-.76-13.696-3.11-1.108-1.66-1.108-3.39 0-5.188 1.935-3.04 6.985-4.565 15.15-4.565 2.903 0 4.698-.24 5.392-.724.691-.483 1.038-1.417 1.038-2.8v-12.63c.415-7.036.415-17.53 0-31.474-.555-20.015-.279-37.613.83-52.8-.14-.136-.347-.344-.627-.622-5.008.278-13.076.14-24.203-.418-1.252 0-5.498.28-12.728.833 1.797 12.59 2.903 22.065 3.319 28.427 0 .83-.14 2.7-.416 5.602-.139 2.074-1.868 3.112-5.187 3.112-1.8 0-2.835-.618-3.111-1.852-.14-.27-.97-3.98-2.491-11.113-.83-4.663-2.008-11.25-3.527-19.756 0-.542-.486-2.257-1.45-5.142-.826-2.333-1.239-4.116-1.239-5.35 0-.958.653-2.163 1.972-3.6 1.314-1.439 3.286-2.368 5.914-2.78h25.729c11.204.417 21.164.417 29.877 0a405.53 405.53 0 0 0 36.934-3.32c.83-.415 2.073-.83 3.732-1.243 3.045-.276 5.534.415 7.473 2.076 1.934 1.656 2.625 3.87 2.073 6.638z" style="fill-rule:nonzero;stroke-linecap:butt;stroke-linejoin:miter;stroke-miterlimit:10;stroke-dasharray:none;stroke-dashoffset:0"/></svg>