<svg xmlns="http://www.w3.org/2000/svg" width="600" height="300"><path d="M0 299.152V0h600.309v299.152zm0 0" style="fill:#bd0000;fill-opacity:1;fill-rule:nonzero;stroke:none"/><path d="M149.011 58.504c0 30.398-24.469 55.039-54.652 55.039-30.18 0-54.649-24.64-54.649-55.04 0-30.398 24.47-55.038 54.649-55.038 30.183 0 54.652 24.64 54.652 55.039zm0 0" style="fill:#ff3030;fill-opacity:.509804;fill-rule:nonzero;stroke:none"/><path d="M75.623 144.508c0 19.976-16.079 36.172-35.91 36.172-19.837 0-35.915-16.196-35.915-36.172 0-19.973 16.078-36.168 35.914-36.168 19.832 0 35.91 16.195 35.91 36.168zm0 0" style="fill:red;fill-opacity:.509804;fill-rule:nonzero;stroke:none"/><path d="M579.492 215.207c0 36.8-29.617 66.629-66.152 66.629s-66.156-29.828-66.156-66.629c0-36.797 29.62-66.625 66.156-66.625 36.535 0 66.152 29.828 66.152 66.625zm0 0" style="fill:#ff2828;fill-opacity:.509804;fill-rule:nonzero;stroke:none"/><path d="M587.102 91.07c0 24.18-19.461 43.785-43.473 43.785-24.008 0-43.473-19.605-43.473-43.785 0-24.183 19.465-43.785 43.473-43.785 24.012 0 43.473 19.602 43.473 43.785zM422.719 247.457c0 22.918-18.446 41.496-41.203 41.496-22.754 0-41.2-18.578-41.2-41.496 0-22.918 18.446-41.496 41.2-41.496 22.757 0 41.203 18.578 41.203 41.496zM208.063 45.504c0 13.344-10.743 24.16-23.993 24.16-13.246 0-23.988-10.816-23.988-24.16s10.742-24.16 23.988-24.16c13.25 0 23.993 10.816 23.993 24.16zM105.154 258.957c0 18.129-14.593 32.828-32.593 32.828-18.004 0-32.598-14.699-32.598-32.828 0-18.133 14.594-32.832 32.598-32.832 18 0 32.593 14.7 32.593 32.832zm0 0" style="fill:red;fill-opacity:.509804;fill-rule:nonzero;stroke:none"/><path d="M223.54 209.266c0 31.218-25.126 56.523-56.122 56.523-30.992 0-56.117-25.305-56.117-56.523 0-31.215 25.125-56.52 56.117-56.52 30.996 0 56.121 25.305 56.121 56.52zm0 0" style="fill:#ff3d3d;fill-opacity:.509804;fill-rule:nonzero;stroke:none"/><path d="M293.895 36.293c0-18.13 14.594-32.828 32.598-32.828 18 0 32.593 14.699 32.593 32.828 0 18.133-14.593 32.828-32.593 32.828-18.004 0-32.598-14.695-32.598-32.828zm0 0" style="fill:red;fill-opacity:.509804;fill-rule:nonzero;stroke:none"/><path d="M376.406 57.505c0-22.094 17.785-40.008 39.726-40.008 21.938 0 39.723 17.914 39.723 40.008 0 22.097-17.785 40.011-39.723 40.011-21.941 0-39.726-17.914-39.726-40.011zm0 0" style="fill:#ff3a3a;fill-opacity:.509804;fill-rule:nonzero;stroke:none"/><path d="M24.137 146.785c-.711-3.41 1.488-6.746 4.906-7.457l12.387-2.566c3.097-.64 4.968.582 6.836 1.804l7.484 4.887c1.867 1.223 3.738 2.445 6.836 1.805l18.578-3.848c3.098-.644 4.324-2.508 5.55-4.37l4.907-7.458c1.227-1.863 2.453-3.727 5.55-4.367l103.411-21.426c3.422-.707 6.77 1.48 7.48 4.89l12.875 61.727c.711 3.41-1.484 6.746-4.906 7.457l-103.41 21.422c-3.098.645-4.324 2.508-5.55 4.371l-4.907 7.457c-1.227 1.864-2.453 3.727-5.55 4.367l-18.579 3.852c-3.098.64-4.969-.582-6.836-1.805l-7.484-4.89c-1.867-1.223-3.738-2.446-6.836-1.801l-12.387 2.566c-3.418.707-6.77-1.48-7.48-4.89zm0 0" style="fill:none;stroke:#000;stroke-width:15.0251;stroke-linecap:butt;stroke-linejoin:miter;stroke-miterlimit:10;stroke-opacity:.129412"/><path d="m266.566 219.813-14.898-13.04a2.614 2.614 0 0 1 1.785-4.578l53.137.973.426.043a2.615 2.615 0 0 1 2.105 3.043l-9.375 50.992a2.614 2.614 0 0 1-2.133 2.102 2.619 2.619 0 0 1-2.715-1.274l-8.39-14.597c-2.926 1.921-6.39 3.691-10.227 5.191-10.008 3.914-22.695 6.04-35.21 4.187-12.637-1.867-25.098-7.761-34.489-19.898-3.426-4.418-6.434-9.664-8.879-15.832a2.605 2.605 0 0 1 .813-3.242 2.627 2.627 0 0 1 3.347.199c14.219 13.309 27.164 17.094 38.43 16.152 10.066-.836 18.957-5.445 26.27-10.421zm0 0" style="fill:#fff;fill-opacity:1;fill-rule:nonzero;stroke:#000;stroke-width:15.0251;stroke-linecap:butt;stroke-linejoin:miter;stroke-miterlimit:10;stroke-opacity:.129412"/><path d="m267.078 219.383-14.894-13.04a2.615 2.615 0 0 1-.711-2.91 2.633 2.633 0 0 1 2.496-1.671l53.136.972.426.047a2.619 2.619 0 0 1 2.106 3.043l-9.375 50.989a2.618 2.618 0 0 1-2.137 2.105 2.615 2.615 0 0 1-2.71-1.277l-8.392-14.594c-2.925 1.922-6.39 3.691-10.226 5.187-10.008 3.918-22.695 6.043-35.207 4.192-12.64-1.867-25.102-7.766-34.496-19.903-3.422-4.418-6.43-9.664-8.875-15.828-.551-1.136-.211-2.5.808-3.246a2.633 2.633 0 0 1 3.352.203c14.223 13.309 27.164 17.094 38.43 16.153 10.066-.836 18.957-5.446 26.27-10.422zM24.137 146.785c-.711-3.41 1.488-6.746 4.906-7.457l12.387-2.566c3.097-.64 4.968.582 6.836 1.804l7.484 4.887c1.867 1.223 3.738 2.445 6.836 1.805l18.578-3.848c3.098-.644 4.324-2.508 5.55-4.37l4.907-7.458c1.227-1.863 2.453-3.727 5.55-4.367l103.411-21.426c3.422-.707 6.77 1.48 7.48 4.89l12.875 61.727c.711 3.41-1.484 6.746-4.906 7.457l-103.41 21.422c-3.098.645-4.324 2.508-5.55 4.371l-4.907 7.457c-1.227 1.864-2.453 3.727-5.55 4.367l-18.579 3.852c-3.098.64-4.969-.582-6.836-1.805l-7.484-4.89c-1.867-1.223-3.738-2.446-6.836-1.801l-12.387 2.566c-3.418.707-6.77-1.48-7.48-4.89zm0 0" style="fill:#fff;fill-opacity:1;fill-rule:nonzero;stroke:none"/><path d="M285.168 183.363c-5.129.239-9.496-4.035-9.754-9.547L270.06 60.691c-.258-5.511 3.683-10.175 8.812-10.418l223.375-10.496c5.129-.242 9.496 4.032 9.754 9.543l5.355 113.125c.258 5.512-3.683 10.176-8.812 10.418zm0 0" style="fill:#000;fill-opacity:.137255;fill-rule:nonzero;stroke:none"/><path d="M293.82 173.023c-4.707.22-8.703-3.402-8.922-8.093l-4.558-96.278c-.219-4.691 3.414-8.675 8.12-8.894l205.134-9.64c4.707-.223 8.703 3.402 8.922 8.093l4.558 96.273c.219 4.696-3.418 8.676-8.125 8.899zm0 0" style="fill:none;stroke:#fff;stroke-width:10.0167;stroke-linecap:butt;stroke-linejoin:miter;stroke-miterlimit:10;stroke-opacity:1"/><path d="M301.242 96.617c-3.57.168-6.601-2.582-6.77-6.14l-.57-12.032c-.168-3.558 2.59-6.578 6.16-6.746l12.07-.57c3.571-.164 6.606 2.582 6.774 6.14l.567 12.032c.168 3.558-2.59 6.582-6.16 6.75zM335.336 95.016c-3.57.168-6.602-2.582-6.77-6.141l-.57-12.031c-.168-3.559 2.59-6.582 6.16-6.746l12.07-.57c3.57-.169 6.602 2.581 6.774 6.14l.566 12.031c.168 3.559-2.59 6.578-6.16 6.746zM369.43 93.41c-3.57.168-6.602-2.578-6.77-6.14l-.57-12.028c-.168-3.558 2.59-6.582 6.16-6.75l12.07-.566c3.57-.168 6.602 2.582 6.774 6.14l.566 12.032c.168 3.558-2.59 6.578-6.16 6.746zM403.523 91.809c-3.57.168-6.601-2.582-6.77-6.141l-.57-12.027c-.167-3.559 2.59-6.582 6.16-6.75l12.071-.567c3.57-.168 6.602 2.582 6.77 6.14l.57 12.028c.168 3.563-2.59 6.582-6.16 6.75zM437.617 90.207c-3.57.168-6.601-2.582-6.77-6.14l-.57-12.032c-.168-3.558 2.59-6.578 6.16-6.746l12.07-.566c3.571-.168 6.602 2.582 6.77 6.14l.57 12.028c.169 3.558-2.59 6.582-6.16 6.75zM471.71 88.605c-3.57.168-6.6-2.582-6.769-6.14l-.57-12.031c-.168-3.559 2.59-6.579 6.16-6.746l12.07-.57c3.57-.165 6.602 2.581 6.77 6.14l.57 12.031c.168 3.559-2.59 6.582-6.16 6.75zM303.055 128.883c-3.57.168-6.602-2.582-6.77-6.14l-.57-12.028c-.168-3.559 2.59-6.582 6.16-6.75l12.07-.567c3.57-.168 6.602 2.582 6.77 6.141l.57 12.031c.168 3.559-2.59 6.578-6.16 6.746zM337.148 127.281c-3.57.168-6.601-2.582-6.77-6.14l-.57-12.028c-.167-3.562 2.59-6.582 6.16-6.75l12.071-.566c3.57-.168 6.602 2.582 6.77 6.14l.57 12.028c.168 3.558-2.59 6.582-6.16 6.75zM371.242 125.68c-3.57.168-6.601-2.582-6.773-6.14l-.567-12.032c-.168-3.559 2.59-6.578 6.16-6.746l12.07-.567c3.571-.168 6.602 2.578 6.77 6.14l.57 12.028c.169 3.559-2.59 6.582-6.16 6.75zM405.336 124.078c-3.57.168-6.606-2.582-6.774-6.14l-.566-12.032c-.168-3.558 2.59-6.578 6.16-6.746l12.07-.57c3.57-.168 6.602 2.582 6.77 6.14l.57 12.032c.168 3.558-2.59 6.582-6.16 6.75zM439.43 122.477c-3.575.164-6.606-2.582-6.774-6.141l-.566-12.031c-.172-3.559 2.59-6.582 6.16-6.75l12.07-.567c3.57-.168 6.602 2.582 6.77 6.14l.57 12.032c.168 3.559-2.59 6.578-6.16 6.746zM473.523 120.871c-3.574.168-6.605-2.582-6.773-6.14l-.566-12.028c-.172-3.558 2.59-6.582 6.16-6.75l12.07-.566c3.57-.168 6.602 2.582 6.77 6.14l.57 12.032c.168 3.558-2.59 6.578-6.164 6.746zM304.582 161.164c-3.57.168-6.602-2.582-6.77-6.14l-.57-12.028c-.168-3.559 2.59-6.582 6.16-6.75l12.07-.566c3.571-.168 6.602 2.582 6.77 6.14l.57 12.028c.168 3.562-2.59 6.582-6.16 6.75zM338.676 159.563c-3.57.167-6.602-2.583-6.77-6.141l-.57-12.031c-.168-3.559 2.59-6.578 6.16-6.746l110.371-5.188c3.574-.168 6.606 2.582 6.774 6.14l.57 12.028c.168 3.563-2.594 6.582-6.164 6.75zm0 0" style="fill:#fff;fill-opacity:1;fill-rule:nonzero;stroke:none"/><path d="M440.957 154.754c-3.574.168-6.605-2.578-6.773-6.14l-.567-12.028c-.172-3.559 2.59-6.582 6.16-6.75l12.07-.566c3.571-.168 6.602 2.582 6.77 6.14l.57 12.031c.168 3.559-2.59 6.579-6.16 6.746zM475.05 153.152c-3.573.168-6.605-2.582-6.773-6.14l-.566-12.028c-.172-3.558 2.59-6.582 6.16-6.75l12.07-.566c3.57-.168 6.602 2.582 6.77 6.14l.57 12.028c.168 3.562-2.59 6.582-6.164 6.75zm0 0" style="fill:#fff;fill-opacity:1;fill-rule:nonzero;stroke:none"/><path d="M546.738 147.496c-13.754-1.266-24.027-11.504-22.945-22.863l4.555-47.723c1.082-11.36 13.113-19.543 26.867-18.277 13.754 1.27 24.027 11.504 22.941 22.863l-4.55 47.723c-1.083 11.36-13.114 19.543-26.868 18.277zm0 0" style="fill:#000;fill-opacity:.137255;fill-rule:nonzero;stroke:none"/><path d="M535.96 79.82c.927-9.707 7.33-14.8 16.216-14.847l-2.13 22.304-14.667-1.351zm34.169 3.145-.582 6.105-14.672-1.351 2.129-22.301c8.723 1.664 14.05 7.84 13.125 17.547zm0 0" style="fill:#fff;fill-opacity:1;fill-rule:nonzero;stroke:none"/><path d="M535.96 79.82c.927-9.707 7.33-14.8 16.216-14.847l-2.13 22.304-14.667-1.351zm34.169 3.145-.582 6.105-14.672-1.351 2.129-22.301c8.723 1.664 14.05 7.84 13.125 17.547zM531.75 123.969l3.184-33.403 34.168 3.145-3.184 33.402c-1.012 10.567-8.598 15.09-18.586 14.172-9.992-.918-16.59-6.75-15.582-17.316zm0 0" style="fill:#fff;fill-opacity:1;fill-rule:nonzero;stroke:none"/></svg>