<?xml version="1.0" encoding="UTF-8" standalone="no"?>
<!-- Created with Inkscape (http://www.inkscape.org/) -->

<svg
   width="600"
   height="300"
   viewBox="0 0 158.75 79.374999"
   version="1.1"
   id="svg1"
   xml:space="preserve"
   inkscape:version="1.4 (86a8ad7, 2024-10-11)"
   sodipodi:docname="Webhooks.svg"
   xmlns:inkscape="http://www.inkscape.org/namespaces/inkscape"
   xmlns:sodipodi="http://sodipodi.sourceforge.net/DTD/sodipodi-0.dtd"
   xmlns="http://www.w3.org/2000/svg"
   xmlns:svg="http://www.w3.org/2000/svg"><sodipodi:namedview
     id="namedview1"
     pagecolor="#505050"
     bordercolor="#ffffff"
     borderopacity="1"
     inkscape:showpageshadow="0"
     inkscape:pageopacity="0"
     inkscape:pagecheckerboard="1"
     inkscape:deskcolor="#505050"
     inkscape:document-units="px"
     inkscape:zoom="1.357645"
     inkscape:cx="278.05501"
     inkscape:cy="146.94563"
     inkscape:window-width="1920"
     inkscape:window-height="1017"
     inkscape:window-x="-8"
     inkscape:window-y="-8"
     inkscape:window-maximized="1"
     inkscape:current-layer="layer1" /><defs
     id="defs1" /><g
     inkscape:label="Layer 1"
     inkscape:groupmode="layer"
     id="layer1"><g
       id="g4"
       transform="matrix(0.26458333,0,0,0.26458333,-3.4518613e-4,-2.140625e-4)"><path
         fill="#ed4576"
         d="M 0,0 H 600 V 300 H 0 Z"
         style="stroke-width:0.898027"
         id="path1" /><path
         fill="#ffd641"
         d="M -19.344061,186 C -19.344061,9.631143 123.63114,-133.34406 300,-133.34406 476.36885,-133.34406 619.34406,9.631143 619.34406,186 619.34406,362.36885 476.36885,505.34406 300,505.34406 123.63114,505.34406 -19.344061,362.36885 -19.344061,186 Z"
         style="fill:#c73a63;fill-opacity:1;fill-rule:nonzero;stroke-linecap:butt;stroke-linejoin:miter;stroke-miterlimit:10;stroke-dasharray:none;stroke-dashoffset:0"
         transform="matrix(0.93943,0,0,0.93943,18.172307,-24.73317)"
         id="path2" /><path
         fill="#ffc800"
         d="M 20.155927,186 C 20.155927,31.446397 145.44638,-93.844074 300,-93.844074 454.5536,-93.844074 579.84407,31.446386 579.84407,186 579.84407,340.5536 454.55361,465.84407 300,465.84407 145.44639,465.84407 20.155937,340.55361 20.155937,186 Z"
         style="fill:#ed4576;fill-opacity:1;fill-rule:nonzero;stroke-linecap:butt;stroke-linejoin:miter;stroke-miterlimit:10;stroke-dasharray:none;stroke-dashoffset:0"
         transform="matrix(0.93943,0,0,0.93943,18.172307,-24.73317)"
         id="path3" /><path
         fill="#ffd641"
         d="m 60.155932,186 c 0,-132.462224 107.381848,-239.844074 239.844078,-239.844074 132.46222,0 239.84406,107.38185 239.84406,239.844074 0,132.46222 -107.38185,239.84407 -239.84406,239.84407 C 167.53778,425.84407 60.155932,318.46222 60.155932,186 Z"
         style="fill:#c73a63;fill-opacity:1;fill-rule:nonzero;stroke-linecap:butt;stroke-linejoin:miter;stroke-miterlimit:10;stroke-dasharray:none;stroke-dashoffset:0"
         transform="matrix(0.93943,0,0,0.93943,18.172307,-24.73317)"
         id="path4" /><path
         fill="#ffc800"
         d="m 100.65593,185.99999 c 0,-110.094683 89.24937,-199.344064 199.34407,-199.344064 110.09469,0 199.34407,89.249381 199.34407,199.344074 0,110.09469 -89.24938,199.34407 -199.34406,199.34407 -110.09469,0 -199.34406,-89.24938 -199.34406,-199.34406 z"
         style="fill:#ed4576;fill-opacity:1;fill-rule:nonzero;stroke-linecap:butt;stroke-linejoin:miter;stroke-miterlimit:10;stroke-dasharray:none;stroke-dashoffset:0"
         transform="matrix(0.93943,0,0,0.93943,18.172307,-24.73317)"
         id="path5" /><path
         fill="#ffd641"
         d="m 139.90593,185.99999 c 0,-88.417506 71.67656,-160.094063 160.09407,-160.094063 88.41751,0 160.09407,71.676567 160.09407,160.094073 0,88.41751 -71.67656,160.09407 -160.09406,160.09407 -88.41752,0 -160.09407,-71.67656 -160.09407,-160.09406 z"
         style="fill:#c73a63;fill-opacity:1;fill-rule:nonzero;stroke-linecap:butt;stroke-linejoin:miter;stroke-miterlimit:10;stroke-dasharray:none;stroke-dashoffset:0"
         transform="matrix(0.93943,0,0,0.93943,18.172307,-24.73317)"
         id="path6" /><path
         fill="#ffc800"
         d="m 180.65593,185.99999 c 0,-65.9119 53.43216,-119.344064 119.34408,-119.344064 65.9119,0 119.34407,53.432164 119.34407,119.344074 0,65.9119 -53.43216,119.34407 -119.34406,119.34407 -65.9119,0 -119.34407,-53.43216 -119.34407,-119.34406 z"
         style="fill:#ed4576;fill-opacity:1;fill-rule:nonzero;stroke-linecap:butt;stroke-linejoin:miter;stroke-miterlimit:10;stroke-dasharray:none;stroke-dashoffset:0"
         transform="matrix(0.93943,0,0,0.93943,18.172307,-24.73317)"
         id="path7" /><path
         fill="#ffd641"
         d="m 219.90593,185.99999 c 0,-44.23473 35.85933,-80.09406 80.09407,-80.09406 44.23473,0 80.09407,35.85933 80.09407,80.09407 0,44.23473 -35.85933,80.09407 -80.09406,80.09407 -44.23473,0 -80.09406,-35.85933 -80.09406,-80.09406 z"
         style="fill:#c73a63;fill-opacity:1;fill-rule:nonzero;stroke-linecap:butt;stroke-linejoin:miter;stroke-miterlimit:10;stroke-dasharray:none;stroke-dashoffset:0"
         transform="matrix(0.93943,0,0,0.93943,18.172307,-24.73317)"
         id="path8" /><path
         fill="#ffc800"
         d="m 260.0726,186 c 0,-22.05129 17.87611,-39.9274 39.9274,-39.9274 22.05129,0 39.9274,17.87611 39.9274,39.9274 0,22.05129 -17.87611,39.9274 -39.9274,39.9274 -22.05129,0 -39.9274,-17.87611 -39.9274,-39.9274 z"
         style="fill:#ed4576;fill-opacity:1;fill-rule:nonzero;stroke-linecap:butt;stroke-linejoin:miter;stroke-miterlimit:10;stroke-dasharray:none;stroke-dashoffset:0"
         transform="matrix(0.93943,0,0,0.93943,18.172307,-24.73317)"
         id="path9" /></g><path
       fill="#000000"
       d="m 77.990215,8.1101544 h -0.07894 l -0.789434,0.1578863 q -2.60513,0.3157736 -5.091847,1.4604526 -2.486716,1.1446787 -4.381357,3.0393197 -3.236677,2.920905 -4.499772,7.183846 -0.71049,2.368301 -0.631546,4.973433 0.07894,2.60513 0.94732,4.973431 1.342037,3.552451 4.105055,6.157583 l 1.026263,0.94732 -6.552298,10.657356 q -2.052528,-0.07895 -3.552453,0.552601 -2.3683,1.026266 -3.552451,3.157736 -0.552604,1.184151 -0.71049,2.447242 -0.157887,1.263096 0.157886,2.526192 0.631548,2.368301 2.605132,3.789282 1.184151,0.789428 2.605132,1.144674 1.420979,0.355245 2.84196,0.157889 1.42098,-0.197359 2.723546,-0.986792 1.302567,-0.789432 2.170943,-1.973582 0.94732,-1.34204 1.144679,-3.078792 0.197358,-1.736756 -0.434188,-3.236677 -0.07894,-0.39472 -0.552604,-1.10521 L 67.25392,50.581685 76.569238,35.42456 q 0.473659,-0.71049 0.631547,-1.105209 l -0.789438,-0.23683 q -0.710491,-0.157887 -1.026264,-0.315772 -1.815698,-0.789435 -3.27615,-2.170941 -1.460452,-1.38151 -2.249885,-3.118265 -1.342037,-2.841961 -0.710491,-5.920753 0.315774,-1.815696 1.342038,-3.394564 1.026263,-1.578867 2.447244,-2.684075 2.920905,-2.13147 6.473356,-2.13147 2.131471,-0.07894 4.144528,0.749962 2.013056,0.828905 3.512978,2.407772 1.342039,1.263095 2.091999,3.03932 0.749962,1.776225 0.828906,3.591923 0,1.342037 -0.47366,3.315622 l 5.526034,1.499922 0.63155,0.07894 q 1.105206,-3.394566 0.552601,-6.78913 Q 95.91036,19.635887 94.686736,17.228113 93.463115,14.820341 91.568474,13.004644 88.252852,9.6890225 83.437308,8.5838143 82.963648,8.425928 82.016328,8.2680407 L 80.911122,8.1101544 Z m 1.420981,9.7889776 q -1.342037,0 -2.684074,0.552604 -1.342038,0.552603 -2.407773,1.618338 -1.065735,1.065736 -1.539396,2.486716 -0.631546,1.578868 -0.315773,3.473509 0.236829,1.420981 1.105206,2.684074 0.868378,1.263095 2.210415,1.973584 1.894641,1.184151 4.420831,1.026266 0.23683,0.315771 0.394715,0.631545 l 8.841655,15.078183 q 0.23683,0.473661 0.473661,0.710491 2.131471,-2.05253 4.618187,-2.80249 2.486715,-0.749962 5.131311,-0.276301 2.644609,0.47366 4.618199,2.052526 2.52618,1.973586 3.43403,4.855019 0.90785,2.881431 0.0394,5.802337 -0.63155,2.210413 -2.24989,3.947166 -1.61833,1.736751 -3.82875,2.605132 -2.447238,1.026261 -5.24973,0.671016 -2.802491,-0.355246 -5.012903,-1.934112 -0.315775,-0.23683 -1.026265,-0.789431 l -0.394714,-0.47366 q -0.315775,0.23683 -0.868375,0.78943 l -3.710302,3.631397 q 1.8157,1.815696 4.105057,3.039318 2.289357,1.223625 4.815544,1.697285 l 1.736754,0.315771 h 3.078791 l 2.210413,-0.394716 q 5.05238,-1.026264 8.68377,-4.736602 1.73675,-1.736756 2.88143,-3.986638 1.14468,-2.249885 1.5394,-4.69713 0.39472,-2.841962 -0.15789,-5.64445 -0.55261,-2.80249 -1.97358,-5.091847 -1.42098,-2.289361 -3.4735,-4.026112 -2.05253,-1.736756 -4.49978,-2.763018 -2.68408,-1.105209 -5.565509,-1.263094 -2.88143,-0.157886 -5.644451,0.552604 l -1.342032,0.394716 -6.394414,-10.815241 q 1.026265,-1.499924 1.263095,-2.920904 0.394716,-2.526188 -1.026265,-4.736603 -1.263092,-1.973584 -3.473508,-2.763018 -1.342035,-0.47366 -2.763016,-0.47366 z m -22.26203,20.84105 q -4.578715,1.026261 -7.894336,4.183997 -3.710339,3.473508 -4.815545,8.289055 l -0.315774,1.894638 v 2.920906 l 0.157886,0.868376 q 0.157888,1.026265 0.315774,1.57887 0.552604,2.447239 1.934112,4.657656 1.381509,2.210412 3.355094,3.868223 3.947168,3.236681 9.078487,3.868226 2.999848,0.315775 5.999696,-0.355244 2.999848,-0.67102 5.526036,-2.249887 4.183998,-2.684076 6.157582,-7.183845 0.552604,-1.342037 1.105207,-3.55245 0.473661,-0.07894 1.420981,0 l 9.867921,0.157886 q 1.105206,0 1.578866,0.07894 0.86838,1.578866 1.973587,2.447241 1.105206,0.868379 2.486716,1.263094 1.381506,0.394716 2.802484,0.315776 2.21041,-0.23683 3.94717,-1.57887 2.13147,-1.657809 2.52619,-4.262941 0.15789,-1.342036 -0.11841,-2.605132 -0.27631,-1.263091 -1.06575,-2.368297 -1.26308,-1.736756 -3.236669,-2.52619 -1.342038,-0.552602 -2.802492,-0.513131 -1.460448,0.03947 -2.802488,0.592074 -2.210412,0.947321 -3.394563,2.920907 l -0.23683,0.47366 q -1.105206,0 -3.315622,-0.07894 L 78.463875,51.76584 Q 77.279725,51.6869 75.069311,51.6869 l -3.947169,-0.07895 0.23683,1.342036 q 0.631547,3.394567 -1.026263,6.394413 -1.105208,2.131469 -3.157736,3.55245 -2.052527,1.420982 -4.499771,1.736752 -2.763018,0.47366 -5.526036,-0.592075 -2.763018,-1.065736 -4.499771,-3.35509 -2.210415,-2.763017 -2.131472,-6.236525 0.07894,-2.920905 1.815698,-5.447092 1.026264,-1.499926 2.526188,-2.526187 1.499924,-1.026266 3.236678,-1.499926 l 0.71049,-0.23683 z"
       id="path1-8"
       style="fill:#ffffff;fill-opacity:1;stroke-width:0.0789437" /></g></svg>
