<?xml version="1.0" encoding="UTF-8"?>
<svg version="1.1" xmlns="http://www.w3.org/2000/svg" width="2160" height="1620">
<path d="M0 0 C712.8 0 1425.6 0 2160 0 C2160 534.6 2160 1069.2 2160 1620 C1447.2 1620 734.4 1620 0 1620 C0 1085.4 0 550.8 0 0 Z " fill="#4E4E4E" transform="translate(0,0)"/>
<path d="M0 0 C5.58771128 0.00229302 11.17541964 -0.00124465 16.76313031 -0.00397992 C27.66930717 -0.00839549 38.5754771 -0.00748002 49.48165422 -0.00456728 C58.35656294 -0.00229644 67.23146974 -0.00200796 76.10637867 -0.0030911 C77.37600467 -0.00324433 78.64563067 -0.00339756 79.95373018 -0.00355544 C82.53404776 -0.00387521 85.11436533 -0.00419942 87.6946829 -0.00452803 C111.1293005 -0.0072897 134.56391348 -0.00443981 157.99853025 0.00081457 C179.31807078 0.0055584 200.63760533 0.00513479 221.95714581 0.00035357 C245.99762054 -0.00502003 270.03809119 -0.00709537 294.07856673 -0.00403416 C296.64898443 -0.00371566 299.21940213 -0.00340129 301.78981984 -0.0030911 C303.68618424 -0.00285968 303.68618424 -0.00285968 305.62085904 -0.0026236 C314.47023407 -0.00176522 323.31960697 -0.00320659 332.16898167 -0.00557065 C342.9747545 -0.00839427 353.78052007 -0.00757691 364.58629208 -0.00228991 C370.08476273 0.00031294 375.58322134 0.0014112 381.08169186 -0.00193906 C418.87426333 -0.0228887 418.87426333 -0.0228887 437.17786419 0.55287433 C438.34547628 0.58846796 439.51308836 0.62406159 440.71608263 0.66073382 C453.63704161 1.13924144 466.83231217 2.56477345 479.01500714 7.13072467 C479.99856183 7.49037311 480.98211651 7.85002154 481.99547589 8.22056842 C488.23333997 10.64597395 494.22292339 13.32454655 499.01500714 18.13072467 C499.01500714 18.79072467 499.01500714 19.45072467 499.01500714 20.13072467 C499.91219464 20.56384967 499.91219464 20.56384967 500.82750714 21.00572467 C507.33656742 24.35324139 508.89054295 29.59382688 511.36656964 36.10338092 C512.93733726 41.01439535 513.16164371 45.74174524 513.15544903 50.86438251 C513.15990572 52.02190293 513.15990572 52.02190293 513.16445243 53.20280761 C513.17311417 55.78499218 513.17464556 58.36713025 513.17613995 60.94932818 C513.18077002 62.80249386 513.18579494 64.65565858 513.19118512 66.5088222 C513.20429548 71.54222882 513.21075177 76.5756221 513.21519578 81.60904312 C513.21812954 84.75684053 513.22223499 87.90463433 513.22669995 91.05242991 C513.24037314 100.90996337 513.25003989 110.76748853 513.25390184 120.62503082 C513.25837812 131.98708496 513.27590682 143.34901853 513.30490243 154.71103603 C513.32655824 163.50361081 513.33660825 172.29615177 513.33794296 181.08875293 C513.33898847 186.33507078 513.34484172 191.58127528 513.36276257 196.82756495 C513.37931005 201.76797829 513.38136647 206.70819387 513.37262356 211.64862514 C513.37185667 213.45449615 513.37614959 215.26037809 513.38608181 217.06622195 C513.50890524 240.80413144 513.50890524 240.80413144 507.01500714 249.13072467 C506.68500714 250.12072467 506.35500714 251.11072467 506.01500714 252.13072467 C501.55786428 256.13072467 501.55786428 256.13072467 499.01500714 256.13072467 C498.68500714 257.12072467 498.35500714 258.11072467 498.01500714 259.13072467 C469.09826684 284.60499588 413.28981437 276.28301301 377.89928961 276.26144934 C372.31025169 276.25915483 366.72121669 276.26269468 361.13217938 276.26542926 C350.22580673 276.26984312 339.31944101 276.26893019 328.41306811 276.26601662 C319.53865145 276.26374533 310.66423671 276.26345749 301.78981984 276.26454043 C300.52004061 276.26469367 299.25026137 276.2648469 297.94200398 276.26500478 C295.36136221 276.26532455 292.78072044 276.26564876 290.20007867 276.26597737 C266.76724194 276.2687385 243.33440983 276.26588992 219.90157392 276.26063477 C198.58187973 276.25588984 177.26219151 276.25631559 155.94249737 276.26109576 C131.90056007 276.2664685 107.85862683 276.26854528 83.81668872 276.2654835 C81.24658537 276.265165 78.67648202 276.26485062 76.10637867 276.26454043 C74.21024568 276.26430902 74.21024568 276.26430902 72.27580697 276.26407293 C63.42544959 276.26321438 54.57509434 276.2646563 45.72473729 276.26701999 C34.92005804 276.26984258 24.11538605 276.2690283 13.31070762 276.26373924 C7.81235392 276.26113522 2.31401226 276.26004025 -3.18434131 276.2633884 C-41.00874233 276.2843785 -41.00874233 276.2843785 -58.64366901 275.69685626 C-59.76469015 275.65969158 -60.88571128 275.62252691 -62.04070276 275.58423603 C-80.01600522 274.87967282 -102.38508314 272.92295944 -116.98499286 261.13072467 C-116.98499286 260.47072467 -116.98499286 259.81072467 -116.98499286 259.13072467 C-118.30499286 258.80072467 -119.62499286 258.47072467 -120.98499286 258.13072467 C-120.98499286 257.47072467 -120.98499286 256.81072467 -120.98499286 256.13072467 C-121.88218036 255.97603717 -121.88218036 255.97603717 -122.79749286 255.81822467 C-126.45527788 254.66863509 -127.64291299 252.74361777 -129.48499286 249.44322467 C-133.16135114 241.32460013 -135.13630573 234.38673162 -135.12543476 225.39706683 C-135.12840588 224.62538655 -135.131377 223.85370627 -135.13443816 223.05864173 C-135.1430999 220.47645716 -135.14463128 217.89431909 -135.14612567 215.31212115 C-135.15075574 213.45895548 -135.15578066 211.60579075 -135.16117084 209.75262713 C-135.17428121 204.71922052 -135.18073749 199.68582724 -135.1851815 194.65240622 C-135.18811526 191.5046088 -135.19222071 188.35681501 -135.19668567 185.20901942 C-135.21035886 175.35148596 -135.22002561 165.49396081 -135.22388756 155.63641852 C-135.22836384 144.27436438 -135.24589254 132.9124308 -135.27488816 121.55041331 C-135.29654396 112.75783853 -135.30659397 103.96529757 -135.30792868 95.17269641 C-135.30897419 89.92637855 -135.31482744 84.68017406 -135.33274829 79.43388438 C-135.34929578 74.49347105 -135.3513522 69.55325547 -135.34260929 64.6128242 C-135.3418424 62.80695319 -135.34613532 61.00107125 -135.35606754 59.19522738 C-135.47889097 35.45731789 -135.47889097 35.45731789 -128.98499286 27.13072467 C-128.65499286 26.14072467 -128.32499286 25.15072467 -127.98499286 24.13072467 C-123.52785 20.13072467 -123.52785 20.13072467 -120.98499286 20.13072467 C-120.65499286 19.14072467 -120.32499286 18.15072467 -119.98499286 17.13072467 C-118.99499286 17.13072467 -118.00499286 17.13072467 -116.98499286 17.13072467 C-116.65499286 16.14072467 -116.32499286 15.15072467 -115.98499286 14.13072467 C-85.09688796 -7.14774759 -35.40900569 -0.0215618 0 0 Z " fill="#2B2B2B" transform="translate(1324.9849928617477,1005.8692753314972)"/>
<path d="M0 0 C5.58771128 0.00229302 11.17541964 -0.00124465 16.76313031 -0.00397992 C27.66930717 -0.00839549 38.5754771 -0.00748002 49.48165422 -0.00456728 C58.35656294 -0.00229644 67.23146974 -0.00200796 76.10637867 -0.0030911 C77.37600467 -0.00324433 78.64563067 -0.00339756 79.95373018 -0.00355544 C82.53404776 -0.00387521 85.11436533 -0.00419942 87.6946829 -0.00452803 C111.1293005 -0.0072897 134.56391348 -0.00443981 157.99853025 0.00081457 C179.31807078 0.0055584 200.63760533 0.00513479 221.95714581 0.00035357 C245.99762054 -0.00502003 270.03809119 -0.00709537 294.07856673 -0.00403416 C296.64898443 -0.00371566 299.21940213 -0.00340129 301.78981984 -0.0030911 C303.68618424 -0.00285968 303.68618424 -0.00285968 305.62085904 -0.0026236 C314.47023407 -0.00176522 323.31960697 -0.00320659 332.16898167 -0.00557065 C342.9747545 -0.00839427 353.78052007 -0.00757691 364.58629208 -0.00228991 C370.08476273 0.00031294 375.58322134 0.0014112 381.08169186 -0.00193906 C418.87426333 -0.0228887 418.87426333 -0.0228887 437.17786419 0.55287433 C438.34547628 0.58846796 439.51308836 0.62406159 440.71608263 0.66073382 C453.63704161 1.13924144 466.83231217 2.56477345 479.01500714 7.13072467 C479.99856183 7.49037311 480.98211651 7.85002154 481.99547589 8.22056842 C488.23333997 10.64597395 494.22292339 13.32454655 499.01500714 18.13072467 C499.01500714 18.79072467 499.01500714 19.45072467 499.01500714 20.13072467 C499.91219464 20.56384967 499.91219464 20.56384967 500.82750714 21.00572467 C507.33656742 24.35324139 508.89054295 29.59382688 511.36656964 36.10338092 C512.93733726 41.01439535 513.16164371 45.74174524 513.15544903 50.86438251 C513.15990572 52.02190293 513.15990572 52.02190293 513.16445243 53.20280761 C513.17311417 55.78499218 513.17464556 58.36713025 513.17613995 60.94932818 C513.18077002 62.80249386 513.18579494 64.65565858 513.19118512 66.5088222 C513.20429548 71.54222882 513.21075177 76.5756221 513.21519578 81.60904312 C513.21812954 84.75684053 513.22223499 87.90463433 513.22669995 91.05242991 C513.24037314 100.90996337 513.25003989 110.76748853 513.25390184 120.62503082 C513.25837812 131.98708496 513.27590682 143.34901853 513.30490243 154.71103603 C513.32655824 163.50361081 513.33660825 172.29615177 513.33794296 181.08875293 C513.33898847 186.33507078 513.34484172 191.58127528 513.36276257 196.82756495 C513.37931005 201.76797829 513.38136647 206.70819387 513.37262356 211.64862514 C513.37185667 213.45449615 513.37614959 215.26037809 513.38608181 217.06622195 C513.50890524 240.80413144 513.50890524 240.80413144 507.01500714 249.13072467 C506.68500714 250.12072467 506.35500714 251.11072467 506.01500714 252.13072467 C501.55786428 256.13072467 501.55786428 256.13072467 499.01500714 256.13072467 C498.68500714 257.12072467 498.35500714 258.11072467 498.01500714 259.13072467 C469.09826684 284.60499588 413.28981437 276.28301301 377.89928961 276.26144934 C372.31025169 276.25915483 366.72121669 276.26269468 361.13217938 276.26542926 C350.22580673 276.26984312 339.31944101 276.26893019 328.41306811 276.26601662 C319.53865145 276.26374533 310.66423671 276.26345749 301.78981984 276.26454043 C300.52004061 276.26469367 299.25026137 276.2648469 297.94200398 276.26500478 C295.36136221 276.26532455 292.78072044 276.26564876 290.20007867 276.26597737 C266.76724194 276.2687385 243.33440983 276.26588992 219.90157392 276.26063477 C198.58187973 276.25588984 177.26219151 276.25631559 155.94249737 276.26109576 C131.90056007 276.2664685 107.85862683 276.26854528 83.81668872 276.2654835 C81.24658537 276.265165 78.67648202 276.26485062 76.10637867 276.26454043 C74.21024568 276.26430902 74.21024568 276.26430902 72.27580697 276.26407293 C63.42544959 276.26321438 54.57509434 276.2646563 45.72473729 276.26701999 C34.92005804 276.26984258 24.11538605 276.2690283 13.31070762 276.26373924 C7.81235392 276.26113522 2.31401226 276.26004025 -3.18434131 276.2633884 C-41.00874233 276.2843785 -41.00874233 276.2843785 -58.64366901 275.69685626 C-59.76469015 275.65969158 -60.88571128 275.62252691 -62.04070276 275.58423603 C-80.01600522 274.87967282 -102.38508314 272.92295944 -116.98499286 261.13072467 C-116.98499286 260.47072467 -116.98499286 259.81072467 -116.98499286 259.13072467 C-118.30499286 258.80072467 -119.62499286 258.47072467 -120.98499286 258.13072467 C-120.98499286 257.47072467 -120.98499286 256.81072467 -120.98499286 256.13072467 C-121.88218036 255.97603717 -121.88218036 255.97603717 -122.79749286 255.81822467 C-126.45527788 254.66863509 -127.64291299 252.74361777 -129.48499286 249.44322467 C-133.16135114 241.32460013 -135.13630573 234.38673162 -135.12543476 225.39706683 C-135.12840588 224.62538655 -135.131377 223.85370627 -135.13443816 223.05864173 C-135.1430999 220.47645716 -135.14463128 217.89431909 -135.14612567 215.31212115 C-135.15075574 213.45895548 -135.15578066 211.60579075 -135.16117084 209.75262713 C-135.17428121 204.71922052 -135.18073749 199.68582724 -135.1851815 194.65240622 C-135.18811526 191.5046088 -135.19222071 188.35681501 -135.19668567 185.20901942 C-135.21035886 175.35148596 -135.22002561 165.49396081 -135.22388756 155.63641852 C-135.22836384 144.27436438 -135.24589254 132.9124308 -135.27488816 121.55041331 C-135.29654396 112.75783853 -135.30659397 103.96529757 -135.30792868 95.17269641 C-135.30897419 89.92637855 -135.31482744 84.68017406 -135.33274829 79.43388438 C-135.34929578 74.49347105 -135.3513522 69.55325547 -135.34260929 64.6128242 C-135.3418424 62.80695319 -135.34613532 61.00107125 -135.35606754 59.19522738 C-135.47889097 35.45731789 -135.47889097 35.45731789 -128.98499286 27.13072467 C-128.65499286 26.14072467 -128.32499286 25.15072467 -127.98499286 24.13072467 C-123.52785 20.13072467 -123.52785 20.13072467 -120.98499286 20.13072467 C-120.65499286 19.14072467 -120.32499286 18.15072467 -119.98499286 17.13072467 C-118.99499286 17.13072467 -118.00499286 17.13072467 -116.98499286 17.13072467 C-116.65499286 16.14072467 -116.32499286 15.15072467 -115.98499286 14.13072467 C-85.09688796 -7.14774759 -35.40900569 -0.0215618 0 0 Z " fill="#2B2B2B" transform="translate(1324.9849928617477,671.8692753314972)"/>
<path d="M0 0 C4.26377171 3.36975506 8.27465421 6.94420426 12.1796875 10.72265625 C13.23349609 11.73779297 13.23349609 11.73779297 14.30859375 12.7734375 C30.77921572 29.88870221 32.33673881 51.49313276 32.34765625 74.10546875 C32.35087896 75.68952462 32.35424375 77.27358021 32.35774231 78.8576355 C32.36370112 82.16746712 32.36558566 85.47727277 32.36499023 88.78710938 C32.36488901 92.98235043 32.37851482 97.17742075 32.39576244 101.37262154 C32.40700503 104.64332815 32.4089057 107.91399515 32.40838051 111.18471909 C32.40954328 112.72892721 32.41386643 114.27313696 32.42171288 115.81732559 C32.48555928 129.68354349 31.94266808 143.24761639 26.984375 156.3671875 C26.01804702 158.7809532 26.01804702 158.7809532 26.1796875 161.72265625 C28.03845592 163.38064117 29.85872545 164.82895725 31.8671875 166.28515625 C33.05229741 167.16898386 34.23718646 168.05310766 35.421875 168.9375 C36.03772461 169.39237793 36.65357422 169.84725586 37.28808594 170.31591797 C40.38660992 172.62021523 43.43719447 174.98614621 46.4921875 177.34765625 C47.59222195 178.1943041 48.69246143 179.04068565 49.79296875 179.88671875 C50.58058594 180.49257813 51.36820313 181.0984375 52.1796875 181.72265625 C50.59173872 185.48962364 48.20417238 188.06309442 45.4296875 191.03515625 C41.58386346 195.19310513 37.83352459 199.3957439 34.1796875 203.72265625 C30.62068294 202.4501738 27.99871486 201.00317048 25.11328125 198.5703125 C24.38044922 197.95865234 23.64761719 197.34699219 22.89257812 196.71679688 C22.14169922 196.07935547 21.39082031 195.44191406 20.6171875 194.78515625 C19.11645582 193.52536185 17.61517197 192.2662249 16.11328125 191.0078125 C15.1241272 190.17068726 15.1241272 190.17068726 14.11499023 189.31665039 C10.57157785 185.92982513 10.57157785 185.92982513 6.15625 184.86328125 C3.96113499 185.81767908 2.39983068 186.94943167 0.5546875 188.47265625 C-12.04596681 198.05464202 -29.97331472 203.24541337 -45.8203125 201.72265625 C-46.71492188 201.67753906 -47.60953125 201.63242187 -48.53125 201.5859375 C-55.24620729 201.16272591 -61.42615454 199.78558896 -67.8203125 197.72265625 C-68.63113281 197.46871094 -69.44195312 197.21476563 -70.27734375 196.953125 C-88.11875657 190.64089655 -102.85631182 176.14014294 -111.0703125 159.41015625 C-114.95556231 150.52070469 -116.86206468 141.85240203 -117.3828125 132.17578125 C-117.42380569 131.41685074 -117.46479889 130.65792023 -117.5070343 129.87599182 C-118.049069 118.48091098 -118.00631508 107.06912695 -118.00561523 95.66381836 C-118.00553372 92.99285143 -118.01253362 90.32205511 -118.02612305 87.65112305 C-118.28072886 33.67799778 -118.28072886 33.67799778 -98.8203125 11.72265625 C-98.30082031 11.1090625 -97.78132813 10.49546875 -97.24609375 9.86328125 C-73.6951458 -16.00123589 -28.23925415 -20.22261607 0 0 Z " fill="#FDFDFD" transform="translate(484.8203125,377.27734375)"/>
<path d="M0 0 C9.9 0 19.8 0 30 0 C35.64864959 10.85426784 40.62971991 21.90069717 45.45703125 33.1418457 C50.29261176 44.39878306 55.22639642 55.61036025 60.1875 66.8125 C61.80507002 70.46727872 63.42216477 74.12226756 65.0390625 77.77734375 C65.44402954 78.69273422 65.84899658 79.60812469 66.26623535 80.55125427 C70.47960508 90.07856215 74.67636986 99.61314694 78.86587524 109.15097046 C79.65785859 110.95386315 80.45015137 112.75661995 81.24276733 114.55923462 C82.34108848 117.05734302 83.43830083 119.55593526 84.53515625 122.0546875 C84.85821747 122.78913589 85.18127869 123.52358429 85.51412964 124.2802887 C87.07095892 127.83083584 88.5879882 131.38922753 90 135 C93.96713925 127.25743248 97.624002 119.4538635 101 111.4375 C102.04995712 108.9670933 103.10074654 106.49705176 104.15234375 104.02734375 C104.44278061 103.34429169 104.73321747 102.66123962 105.03245544 101.95748901 C109.50217551 91.45437812 114.03830298 80.97972229 118.5625 70.5 C119.50866518 68.3074712 120.45479134 66.11492557 121.40087891 63.92236328 C130.5963084 42.61306256 139.79741663 21.30621207 149 0 C159.23 0 169.46 0 180 0 C180 69.3 180 138.6 180 210 C169.44 210 158.88 210 148 210 C147.67 167.1 147.34 124.2 147 80 C141.39 92.87 135.78 105.74 130 119 C124.9375 130.6015625 124.9375 130.6015625 122.91601562 135.23388672 C122.60188721 135.95380798 122.28775879 136.67372925 121.96411133 137.41546631 C121.29344644 138.95248451 120.62270511 140.48946934 119.9519043 142.02642822 C115.3929405 152.47427008 110.85050823 162.92816503 106.421875 173.43212891 C104.10539655 178.89460345 104.10539655 178.89460345 103 180 C101.00035018 180.08758003 98.9976389 180.10696576 96.99609375 180.09765625 C95.78115234 180.09443359 94.56621094 180.09121094 93.31445312 180.08789062 C92.03505859 180.07951172 90.75566406 180.07113281 89.4375 180.0625 C88.15423828 180.05798828 86.87097656 180.05347656 85.54882812 180.04882812 C82.36583978 180.03699545 79.18294238 180.02051068 76 180 C75.63986816 179.15445557 75.27973633 178.30891113 74.90869141 177.43774414 C66.55875253 157.85112834 58.10300566 138.31404759 49.52001953 118.82836914 C43.97403422 106.23533932 38.48676813 93.6195667 33 81 C32.67 123.57 32.34 166.14 32 210 C21.44 210 10.88 210 0 210 C0 140.7 0 71.4 0 0 Z " fill="#FDFDFD" transform="translate(374,1053)"/>
<path d="M0 0 C109.24886134 0 109.24886134 0 130.4375 19.9375 C142.85242222 33.21312061 146.53392461 50.18656186 146.27734375 67.7734375 C145.63271127 85.41904906 137.34109074 100.76193054 125 113 C111.14176469 125.13403807 93.07907691 128.53018361 75.1640625 128.29296875 C74.05764404 128.28994751 72.95122559 128.28692627 71.8112793 128.28381348 C67.74908884 128.26833023 63.68703323 128.22644974 59.625 128.1875 C50.50875 128.125625 41.3925 128.06375 32 128 C32 155.06 32 182.12 32 210 C21.44 210 10.88 210 0 210 C0 140.7 0 71.4 0 0 Z " fill="#FDFDFD" transform="translate(374,710)"/>
<path d="M0 0 C10.36704411 6.70413387 18.35665787 17.99530206 21.109375 30.04174805 C23.44603835 43.26146043 22.87388554 57.20891128 22.87280273 70.58911133 C22.87500964 73.63832156 22.89330707 76.68718043 22.91210938 79.73632812 C22.94029145 89.42214315 22.94796842 98.83208927 20.6875 108.3125 C20.42710938 109.43785156 20.16671875 110.56320312 19.8984375 111.72265625 C16.22777881 123.36927892 8.86754371 133.82126078 -1.98046875 139.77734375 C-14.70539179 145.83265195 -29.04264256 147.62209676 -42.890625 144.5078125 C-50.56424148 141.53274729 -59.42950169 136.19549831 -65.3125 130.3125 C-65.6425 155.0625 -65.9725 179.8125 -66.3125 205.3125 C-76.2125 205.3125 -86.1125 205.3125 -96.3125 205.3125 C-98.10802722 203.51697278 -97.43509239 201.07758701 -97.44158131 198.68706459 C-97.43866847 197.87287829 -97.43575563 197.05869199 -97.43275452 196.21983337 C-97.43403615 194.93223274 -97.43403615 194.93223274 -97.43534368 193.61861998 C-97.43700112 190.7196029 -97.43147282 187.82064268 -97.42602539 184.92163086 C-97.42574355 182.85254416 -97.42590119 180.78345737 -97.4264679 178.71437073 C-97.42675599 173.07823737 -97.42085733 167.44212509 -97.41389394 161.80599666 C-97.40766239 155.92295738 -97.40705676 150.03991768 -97.40586853 144.15687561 C-97.40275462 133.00795772 -97.39454044 121.85904958 -97.38451904 110.710136 C-97.37335974 98.02111732 -97.36784792 85.33209818 -97.36282361 72.64307582 C-97.35235787 46.53287828 -97.33455696 20.4226901 -97.3125 -5.6875 C-87.0825 -5.6875 -76.8525 -5.6875 -66.3125 -5.6875 C-65.8175 1.2425 -65.8175 1.2425 -65.3125 8.3125 C-64.24 7.28125 -63.1675 6.25 -62.0625 5.1875 C-44.72358115 -9.99560301 -19.75326255 -10.72832262 0 0 Z " fill="#FBFBFB" transform="translate(1124.3125,775.6875)"/>
<path d="M0 0 C10.36704411 6.70413387 18.35665787 17.99530206 21.109375 30.04174805 C23.44603835 43.26146043 22.87388554 57.20891128 22.87280273 70.58911133 C22.87500964 73.63832156 22.89330707 76.68718043 22.91210938 79.73632812 C22.94029145 89.42214315 22.94796842 98.83208927 20.6875 108.3125 C20.42710937 109.43785156 20.16671875 110.56320312 19.8984375 111.72265625 C16.22777881 123.36927892 8.86754371 133.82126078 -1.98046875 139.77734375 C-14.70539179 145.83265195 -29.04264256 147.62209676 -42.890625 144.5078125 C-50.56424148 141.53274729 -59.42950169 136.19549831 -65.3125 130.3125 C-65.6425 155.0625 -65.9725 179.8125 -66.3125 205.3125 C-76.2125 205.3125 -86.1125 205.3125 -96.3125 205.3125 C-98.10802722 203.51697278 -97.43509239 201.07758701 -97.44158131 198.68706459 C-97.43866847 197.87287829 -97.43575563 197.05869199 -97.43275452 196.21983337 C-97.43403615 194.93223274 -97.43403615 194.93223274 -97.43534368 193.61861998 C-97.43700112 190.7196029 -97.43147282 187.82064268 -97.42602539 184.92163086 C-97.42574355 182.85254416 -97.42590119 180.78345737 -97.4264679 178.71437073 C-97.42675599 173.07823737 -97.42085733 167.44212509 -97.41389394 161.80599666 C-97.40766239 155.92295738 -97.40705676 150.03991768 -97.40586853 144.15687561 C-97.40275462 133.00795772 -97.39454044 121.85904958 -97.38451904 110.710136 C-97.37335974 98.02111732 -97.36784792 85.33209818 -97.36282361 72.64307582 C-97.35235787 46.53287828 -97.33455696 20.4226901 -97.3125 -5.6875 C-87.0825 -5.6875 -76.8525 -5.6875 -66.3125 -5.6875 C-65.8175 1.2425 -65.8175 1.2425 -65.3125 8.3125 C-64.24 7.28125 -63.1675 6.25 -62.0625 5.1875 C-44.72358115 -9.99560301 -19.75326255 -10.72832262 0 0 Z " fill="#FBFBFB" transform="translate(785.3125,775.6875)"/>
<path d="M0 0 C5.79493261 0.00228564 11.58986234 -0.0012411 17.38479435 -0.00397992 C28.70460352 -0.00840314 40.02440603 -0.00747654 51.34421545 -0.00456728 C60.55296897 -0.00229952 69.76172064 -0.00200665 78.97047436 -0.0030911 C80.28620299 -0.00324433 81.60193162 -0.00339756 82.95753082 -0.00355544 C84.96087792 -0.00379341 86.96422503 -0.00403462 88.96757213 -0.00428233 C113.93933817 -0.00733307 138.91110059 -0.0045811 163.88286607 0.00081457 C186.00730532 0.00555869 208.13173882 0.00513505 230.25617802 0.00035357 C255.18433643 -0.00501598 280.11249164 -0.00711605 305.04065055 -0.00403416 C307.70430072 -0.0037135 310.3679509 -0.00340128 313.03160107 -0.0030911 C314.34181257 -0.00293682 315.65202407 -0.00278255 317.00193895 -0.0026236 C326.18777494 -0.00176402 335.37360887 -0.00320922 344.55944455 -0.00557065 C355.77093227 -0.00838974 366.98241299 -0.00758621 378.19389992 -0.00228991 C383.90247473 0.00031889 389.61103793 0.00140064 395.31961262 -0.00193906 C434.67394434 -0.02283231 434.67394434 -0.02283231 450.27474797 0.53334308 C451.24476465 0.5663183 452.21478133 0.59929353 453.21419245 0.633268 C477.14698435 1.67855487 501.10677167 8.46528054 518.0679456 26.13072467 C525.75291633 35.53079616 529.21814953 45.97720003 529.21511662 58.00950885 C529.21879331 58.79681777 529.22247 59.5841267 529.2262581 60.39529347 C529.23726078 63.03041783 529.24113301 65.66550269 529.24494755 68.30064654 C529.25121491 70.19159833 529.25786195 72.08254889 529.26486027 73.97349811 C529.28587521 80.18214828 529.29626205 86.39079862 529.30622685 92.59947467 C529.31027573 94.74038971 529.31439269 96.88130463 529.31857693 99.02221942 C529.33762501 109.08425018 529.35185539 119.14627363 529.3601889 129.20831895 C529.36995237 140.804149 529.39625034 152.39978772 529.43668979 163.99555039 C529.46690749 172.9698794 529.48166324 181.94415374 529.48496991 190.91853261 C529.48731443 196.27279191 529.49619656 201.62684671 529.52143109 206.98105121 C529.54481506 212.02410381 529.54890369 217.06681878 529.53866971 222.10991168 C529.5381767 223.95245753 529.54442713 225.79502058 529.55822575 227.63751483 C529.67536759 244.21805789 527.14879904 258.75568786 515.3804456 271.31822467 C501.92086971 283.93975149 484.75623612 288.87663976 467.0679456 292.13072467 C465.84209154 292.37299887 465.84209154 292.37299887 464.59147274 292.62016749 C440.93032066 296.04865561 415.8339066 294.27539345 391.99050748 294.26144934 C386.19222235 294.2591623 380.3939401 294.26269108 374.59565556 294.26542926 C363.2719756 294.26985077 351.9483023 294.26892673 340.62462209 294.26601662 C331.41396836 294.26374851 322.20331648 294.26345614 312.99266255 294.26454043 C311.67649196 294.26469367 310.36032138 294.2648469 309.00426684 294.26500478 C307.00025124 294.26524275 304.99623565 294.26548396 302.99222006 294.26573167 C278.0174077 294.26878177 253.04259895 294.26603125 228.06778715 294.26063477 C205.93649037 294.25588905 183.80519936 294.25631576 161.67390263 294.26109576 C136.7380653 294.26646366 111.80223116 294.26856645 86.86639333 294.2654835 C84.20279459 294.26516284 81.53919586 294.26485061 78.87559712 294.26454043 C77.56539918 294.26438616 76.25520125 294.26423188 74.90530034 294.26407293 C65.71500653 294.26321298 56.52471477 294.26465935 47.33442128 294.26701999 C36.1214367 294.26983716 24.90845911 294.26903945 13.69547532 294.26373924 C7.9851161 294.26112815 2.27476849 294.26005276 -3.43559062 294.2633884 C-98.64443698 294.31405731 -98.64443698 294.31405731 -123.50627315 271.03575397 C-138.46188603 255.94261285 -138.08459468 235.29213937 -138.07731807 215.43272662 C-138.08031679 213.78368309 -138.08372094 212.13464026 -138.08749568 210.48559833 C-138.09626776 206.0390245 -138.09867092 201.59246997 -138.09931147 197.14588833 C-138.10002589 194.35832738 -138.10216758 191.57077122 -138.10480869 188.78321147 C-138.11403992 179.03128892 -138.1181464 169.27937996 -138.11735713 159.52745318 C-138.11675707 150.48095514 -138.12730063 141.43451686 -138.1431008 132.38803393 C-138.15623733 124.58461562 -138.16153847 116.7812167 -138.16090173 108.97778744 C-138.16064851 104.33338997 -138.16340088 99.68904569 -138.17407978 95.04465938 C-138.18386426 90.67049995 -138.18377019 86.29644344 -138.17656314 81.92228007 C-138.17553 80.33136474 -138.17780302 78.74044265 -138.1839236 77.14953876 C-138.21309821 69.03018125 -137.9654469 61.03086236 -137.05749691 52.95682025 C-136.98206037 52.26773399 -136.90662384 51.57864772 -136.82890135 50.86868006 C-135.14073034 37.34401904 -128.03471389 27.10392244 -117.9398669 18.36509967 C-106.93331808 10.18880626 -94.17196943 6.10216464 -80.9320544 3.13072467 C-79.37357784 2.77881061 -79.37357784 2.77881061 -77.7836169 2.41978717 C-52.67168234 -2.2255841 -25.43317429 -0.01487053 0 0 Z M-51.4461993 9.51381183 C-52.54784422 9.54416864 -53.64948913 9.57452546 -54.78451723 9.60580218 C-72.42999308 10.25762298 -95.48465876 12.99419053 -109.9320544 24.13072467 C-109.9320544 24.79072467 -109.9320544 25.45072467 -109.9320544 26.13072467 C-111.2520544 26.46072467 -112.5720544 26.79072467 -113.9320544 27.13072467 C-113.9320544 27.79072467 -113.9320544 28.45072467 -113.9320544 29.13072467 C-114.5301794 29.23384967 -115.1283044 29.33697467 -115.7445544 29.44322467 C-119.40233941 30.59281424 -120.58997453 32.51783157 -122.4320544 35.81822467 C-126.10841268 43.93684921 -128.08336727 50.87471772 -128.07249629 59.86438251 C-128.07546742 60.63606279 -128.07843854 61.40774307 -128.0814997 62.20280761 C-128.09016143 64.78499218 -128.09169282 67.36713025 -128.09318721 69.94932818 C-128.09781728 71.80249386 -128.1028422 73.65565858 -128.10823238 75.5088222 C-128.12134274 80.54222882 -128.12779903 85.5756221 -128.13224304 90.60904312 C-128.1351768 93.75684053 -128.13928225 96.90463433 -128.14374721 100.05242991 C-128.1574204 109.90996337 -128.16708715 119.76748853 -128.1709491 129.62503082 C-128.17542538 140.98708496 -128.19295408 152.34901853 -128.2219497 163.71103603 C-128.2436055 172.50361081 -128.25365551 181.29615177 -128.25499022 190.08875293 C-128.25603573 195.33507078 -128.26188898 200.58127528 -128.27980983 205.82756495 C-128.29635732 210.76797829 -128.29841374 215.70819387 -128.28967083 220.64862514 C-128.28890394 222.45449615 -128.29319685 224.26037809 -128.30312908 226.06622195 C-128.70583582 243.0578141 -128.70583582 243.0578141 -121.9320544 258.13072467 C-121.6020544 259.12072467 -121.2720544 260.11072467 -120.9320544 261.13072467 C-117.87697414 264.16349665 -117.87697414 264.16349665 -113.9320544 265.13072467 C-113.4370544 266.61572467 -113.4370544 266.61572467 -112.9320544 268.13072467 C-111.9420544 268.13072467 -110.9520544 268.13072467 -109.9320544 268.13072467 C-109.6020544 269.12072467 -109.2720544 270.11072467 -108.9320544 271.13072467 C-92.71798494 282.30041696 -70.59022224 284.07850192 -51.5790118 284.70076251 C-50.34076418 284.74176196 -49.10251656 284.78276141 -47.82674628 284.82500327 C-29.54011369 285.38207337 -11.24002858 285.27258857 7.05293846 285.26144934 C12.64064975 285.25915632 18.2283581 285.26269399 23.81606877 285.26542926 C34.72224563 285.26984482 45.62841556 285.26892936 56.53459268 285.26601662 C65.4095014 285.26374578 74.2844082 285.2634573 83.15931714 285.26454043 C85.06375613 285.26477028 85.06375613 285.26477028 87.00666865 285.26500478 C89.58698622 285.26532455 92.16730379 285.26564876 94.74762136 285.26597737 C118.18223896 285.26873903 141.61685194 285.26588914 165.05146871 285.26063477 C186.37100924 285.25589093 207.69054379 285.25631455 229.01008427 285.26109576 C253.050559 285.26646937 277.09102965 285.2685447 301.13150519 285.2654835 C303.70192289 285.265165 306.2723406 285.26485062 308.8427583 285.26454043 C310.10700123 285.26438616 311.37124417 285.26423188 312.6737975 285.26407293 C321.52317253 285.26321456 330.37254543 285.26465593 339.22192013 285.26701999 C350.02769296 285.2698436 360.83345853 285.26902625 371.63923054 285.26373924 C377.13770119 285.2611364 382.63615981 285.26003814 388.13463032 285.2633884 C416.18647298 285.28520524 416.18647298 285.28520524 444.23080266 284.70857501 C445.39841474 284.67298138 446.56602682 284.63738775 447.76902109 284.60071552 C460.68998007 284.1222079 473.88525063 282.69667589 486.0679456 278.13072467 C487.05150029 277.77107623 488.03505497 277.41142779 489.04841435 277.04088092 C495.28627843 274.61547538 501.27586185 271.93690278 506.0679456 267.13072467 C506.0679456 266.47072467 506.0679456 265.81072467 506.0679456 265.13072467 C506.6660706 264.84197467 507.2641956 264.55322467 507.8804456 264.25572467 C514.38950588 260.90820795 515.94348141 255.66762246 518.4195081 249.15806842 C519.99027572 244.24705398 520.21458217 239.51970409 520.20838749 234.39706683 C520.21135862 233.62538655 520.21432974 232.85370627 520.21739089 232.05864173 C520.22605263 229.47645716 520.22758402 226.89431909 520.22907841 224.31212115 C520.23370848 222.45895548 520.2387334 220.60579075 520.24412358 218.75262713 C520.25723394 213.71922052 520.26369023 208.68582724 520.26813424 203.65240622 C520.271068 200.5046088 520.27517345 197.35681501 520.27963841 194.20901942 C520.2933116 184.35148596 520.30297835 174.49396081 520.3068403 164.63641852 C520.31131658 153.27436438 520.32884528 141.9124308 520.3578409 130.55041331 C520.3794967 121.75783853 520.38954671 112.96529757 520.39088142 104.17269641 C520.39192693 98.92637855 520.39778018 93.68017406 520.41570103 88.43388438 C520.43224852 83.49347105 520.43430493 78.55325547 520.42556202 73.6128242 C520.42479513 71.80695319 520.42908805 70.00107125 520.43902028 68.19522738 C520.84172701 51.20363523 520.84172701 51.20363523 514.0679456 36.13072467 C513.7379456 35.14072467 513.4079456 34.15072467 513.0679456 33.13072467 C510.01286534 30.09795268 510.01286534 30.09795268 506.0679456 29.13072467 C505.7379456 28.14072467 505.4079456 27.15072467 505.0679456 26.13072467 C476.1512053 0.65645346 420.34275283 8.97843632 384.95222807 9 C379.36319015 9.00229451 373.77415515 8.99875466 368.18511784 8.99602008 C357.27874519 8.99160622 346.37237948 8.99251915 335.46600657 8.99543272 C326.59158991 8.99770401 317.71717517 8.99799185 308.8427583 8.9969089 C307.57297907 8.99675567 306.30319984 8.99660244 304.99494245 8.99644456 C302.41430067 8.99612479 299.8336589 8.99580058 297.25301713 8.99547197 C273.8201804 8.99271084 250.38734829 8.99555942 226.95451238 9.00081457 C205.63481819 9.00555949 184.31512998 9.00513375 162.99543583 9.00035357 C138.95349853 8.99498084 114.91156529 8.99290406 90.86962718 8.99596584 C88.29952383 8.99628434 85.72942048 8.99659871 83.15931714 8.9969089 C81.89522847 8.99706318 80.63113981 8.99721745 79.32874544 8.9973764 C70.47838805 8.99823496 61.6280328 8.99679304 52.77767575 8.99442935 C41.9729965 8.99160676 31.16832451 8.99242103 20.36364608 8.99771009 C14.86529239 9.00031411 9.36695072 9.00140908 3.86859715 8.99806094 C-23.79225102 8.96868226 -23.79225102 8.96868226 -51.4461993 9.51381183 Z " fill="#FEFEFE" transform="translate(1317.932054400444,996.8692753314972)"/>
<path d="M0 0 C5.79493261 0.00228564 11.58986234 -0.0012411 17.38479435 -0.00397992 C28.70460352 -0.00840314 40.02440603 -0.00747654 51.34421545 -0.00456728 C60.55296897 -0.00229952 69.76172064 -0.00200665 78.97047436 -0.0030911 C80.28620299 -0.00324433 81.60193162 -0.00339756 82.95753082 -0.00355544 C84.96087792 -0.00379341 86.96422503 -0.00403462 88.96757213 -0.00428233 C113.93933817 -0.00733307 138.91110059 -0.0045811 163.88286607 0.00081457 C186.00730532 0.00555869 208.13173882 0.00513505 230.25617802 0.00035357 C255.18433643 -0.00501598 280.11249164 -0.00711605 305.04065055 -0.00403416 C307.70430072 -0.0037135 310.3679509 -0.00340128 313.03160107 -0.0030911 C314.34181257 -0.00293682 315.65202407 -0.00278255 317.00193895 -0.0026236 C326.18777494 -0.00176402 335.37360887 -0.00320922 344.55944455 -0.00557065 C355.77093227 -0.00838974 366.98241299 -0.00758621 378.19389992 -0.00228991 C383.90247473 0.00031889 389.61103793 0.00140064 395.31961262 -0.00193906 C434.67394434 -0.02283231 434.67394434 -0.02283231 450.27474797 0.53334308 C451.24476465 0.5663183 452.21478133 0.59929353 453.21419245 0.633268 C477.14698435 1.67855487 501.10677167 8.46528054 518.0679456 26.13072467 C525.75291633 35.53079616 529.21814953 45.97720003 529.21511662 58.00950885 C529.21879331 58.79681777 529.22247 59.5841267 529.2262581 60.39529347 C529.23726078 63.03041783 529.24113301 65.66550269 529.24494755 68.30064654 C529.25121491 70.19159833 529.25786195 72.08254889 529.26486027 73.97349811 C529.28587521 80.18214828 529.29626205 86.39079862 529.30622685 92.59947467 C529.31027573 94.74038971 529.31439269 96.88130463 529.31857693 99.02221942 C529.33762501 109.08425018 529.35185539 119.14627363 529.3601889 129.20831895 C529.36995237 140.804149 529.39625034 152.39978772 529.43668979 163.99555039 C529.46690749 172.9698794 529.48166324 181.94415374 529.48496991 190.91853261 C529.48731443 196.27279191 529.49619656 201.62684671 529.52143109 206.98105121 C529.54481506 212.02410381 529.54890369 217.06681878 529.53866971 222.10991168 C529.5381767 223.95245753 529.54442713 225.79502058 529.55822575 227.63751483 C529.67536759 244.21805789 527.14879904 258.75568786 515.3804456 271.31822467 C501.92086971 283.93975149 484.75623612 288.87663976 467.0679456 292.13072467 C465.84209154 292.37299887 465.84209154 292.37299887 464.59147274 292.62016749 C440.93032066 296.04865561 415.8339066 294.27539345 391.99050748 294.26144934 C386.19222235 294.2591623 380.3939401 294.26269108 374.59565556 294.26542926 C363.2719756 294.26985077 351.9483023 294.26892673 340.62462209 294.26601662 C331.41396836 294.26374851 322.20331648 294.26345614 312.99266255 294.26454043 C311.67649196 294.26469367 310.36032138 294.2648469 309.00426684 294.26500478 C307.00025124 294.26524275 304.99623565 294.26548396 302.99222006 294.26573167 C278.0174077 294.26878177 253.04259895 294.26603125 228.06778715 294.26063477 C205.93649037 294.25588905 183.80519936 294.25631576 161.67390263 294.26109576 C136.7380653 294.26646366 111.80223116 294.26856645 86.86639333 294.2654835 C84.20279459 294.26516284 81.53919586 294.26485061 78.87559712 294.26454043 C77.56539918 294.26438616 76.25520125 294.26423188 74.90530034 294.26407293 C65.71500653 294.26321298 56.52471477 294.26465935 47.33442128 294.26701999 C36.1214367 294.26983716 24.90845911 294.26903945 13.69547532 294.26373924 C7.9851161 294.26112815 2.27476849 294.26005276 -3.43559062 294.2633884 C-98.64443698 294.31405731 -98.64443698 294.31405731 -123.50627315 271.03575397 C-138.46188603 255.94261285 -138.08459468 235.29213937 -138.07731807 215.43272662 C-138.08031679 213.78368309 -138.08372094 212.13464026 -138.08749568 210.48559833 C-138.09626776 206.0390245 -138.09867092 201.59246997 -138.09931147 197.14588833 C-138.10002589 194.35832738 -138.10216758 191.57077122 -138.10480869 188.78321147 C-138.11403992 179.03128892 -138.1181464 169.27937996 -138.11735713 159.52745318 C-138.11675707 150.48095514 -138.12730063 141.43451686 -138.1431008 132.38803393 C-138.15623733 124.58461562 -138.16153847 116.7812167 -138.16090173 108.97778744 C-138.16064851 104.33338997 -138.16340088 99.68904569 -138.17407978 95.04465938 C-138.18386426 90.67049995 -138.18377019 86.29644344 -138.17656314 81.92228007 C-138.17553 80.33136474 -138.17780302 78.74044265 -138.1839236 77.14953876 C-138.21309821 69.03018125 -137.9654469 61.03086236 -137.05749691 52.95682025 C-136.98206037 52.26773399 -136.90662384 51.57864772 -136.82890135 50.86868006 C-135.14073034 37.34401904 -128.03471389 27.10392244 -117.9398669 18.36509967 C-106.93331808 10.18880626 -94.17196943 6.10216464 -80.9320544 3.13072467 C-79.37357784 2.77881061 -79.37357784 2.77881061 -77.7836169 2.41978717 C-52.67168234 -2.2255841 -25.43317429 -0.01487053 0 0 Z M-51.4461993 9.51381183 C-52.54784422 9.54416864 -53.64948913 9.57452546 -54.78451723 9.60580218 C-72.42999308 10.25762298 -95.48465876 12.99419053 -109.9320544 24.13072467 C-109.9320544 24.79072467 -109.9320544 25.45072467 -109.9320544 26.13072467 C-111.2520544 26.46072467 -112.5720544 26.79072467 -113.9320544 27.13072467 C-113.9320544 27.79072467 -113.9320544 28.45072467 -113.9320544 29.13072467 C-114.5301794 29.23384967 -115.1283044 29.33697467 -115.7445544 29.44322467 C-119.40233941 30.59281424 -120.58997453 32.51783157 -122.4320544 35.81822467 C-126.10841268 43.93684921 -128.08336727 50.87471772 -128.07249629 59.86438251 C-128.07546742 60.63606279 -128.07843854 61.40774307 -128.0814997 62.20280761 C-128.09016143 64.78499218 -128.09169282 67.36713025 -128.09318721 69.94932818 C-128.09781728 71.80249386 -128.1028422 73.65565858 -128.10823238 75.5088222 C-128.12134274 80.54222882 -128.12779903 85.5756221 -128.13224304 90.60904312 C-128.1351768 93.75684053 -128.13928225 96.90463433 -128.14374721 100.05242991 C-128.1574204 109.90996337 -128.16708715 119.76748853 -128.1709491 129.62503082 C-128.17542538 140.98708496 -128.19295408 152.34901853 -128.2219497 163.71103603 C-128.2436055 172.50361081 -128.25365551 181.29615177 -128.25499022 190.08875293 C-128.25603573 195.33507078 -128.26188898 200.58127528 -128.27980983 205.82756495 C-128.29635732 210.76797829 -128.29841374 215.70819387 -128.28967083 220.64862514 C-128.28890394 222.45449615 -128.29319685 224.26037809 -128.30312908 226.06622195 C-128.70583582 243.0578141 -128.70583582 243.0578141 -121.9320544 258.13072467 C-121.6020544 259.12072467 -121.2720544 260.11072467 -120.9320544 261.13072467 C-117.87697414 264.16349665 -117.87697414 264.16349665 -113.9320544 265.13072467 C-113.4370544 266.61572467 -113.4370544 266.61572467 -112.9320544 268.13072467 C-111.9420544 268.13072467 -110.9520544 268.13072467 -109.9320544 268.13072467 C-109.6020544 269.12072467 -109.2720544 270.11072467 -108.9320544 271.13072467 C-92.71798494 282.30041696 -70.59022224 284.07850192 -51.5790118 284.70076251 C-50.34076418 284.74176196 -49.10251656 284.78276141 -47.82674628 284.82500327 C-29.54011369 285.38207337 -11.24002858 285.27258857 7.05293846 285.26144934 C12.64064975 285.25915632 18.2283581 285.26269399 23.81606877 285.26542926 C34.72224563 285.26984482 45.62841556 285.26892936 56.53459268 285.26601662 C65.4095014 285.26374578 74.2844082 285.2634573 83.15931714 285.26454043 C85.06375613 285.26477028 85.06375613 285.26477028 87.00666865 285.26500478 C89.58698622 285.26532455 92.16730379 285.26564876 94.74762136 285.26597737 C118.18223896 285.26873903 141.61685194 285.26588914 165.05146871 285.26063477 C186.37100924 285.25589093 207.69054379 285.25631455 229.01008427 285.26109576 C253.050559 285.26646937 277.09102965 285.2685447 301.13150519 285.2654835 C303.70192289 285.265165 306.2723406 285.26485062 308.8427583 285.26454043 C310.10700123 285.26438616 311.37124417 285.26423188 312.6737975 285.26407293 C321.52317253 285.26321456 330.37254543 285.26465593 339.22192013 285.26701999 C350.02769296 285.2698436 360.83345853 285.26902625 371.63923054 285.26373924 C377.13770119 285.2611364 382.63615981 285.26003814 388.13463032 285.2633884 C416.18647298 285.28520524 416.18647298 285.28520524 444.23080266 284.70857501 C445.39841474 284.67298138 446.56602682 284.63738775 447.76902109 284.60071552 C460.68998007 284.1222079 473.88525063 282.69667589 486.0679456 278.13072467 C487.05150029 277.77107623 488.03505497 277.41142779 489.04841435 277.04088092 C495.28627843 274.61547538 501.27586185 271.93690278 506.0679456 267.13072467 C506.0679456 266.47072467 506.0679456 265.81072467 506.0679456 265.13072467 C506.6660706 264.84197467 507.2641956 264.55322467 507.8804456 264.25572467 C514.38950588 260.90820795 515.94348141 255.66762246 518.4195081 249.15806842 C519.99027572 244.24705398 520.21458217 239.51970409 520.20838749 234.39706683 C520.21135862 233.62538655 520.21432974 232.85370627 520.21739089 232.05864173 C520.22605263 229.47645716 520.22758402 226.89431909 520.22907841 224.31212115 C520.23370848 222.45895548 520.2387334 220.60579075 520.24412358 218.75262713 C520.25723394 213.71922052 520.26369023 208.68582724 520.26813424 203.65240622 C520.271068 200.5046088 520.27517345 197.35681501 520.27963841 194.20901942 C520.2933116 184.35148596 520.30297835 174.49396081 520.3068403 164.63641852 C520.31131658 153.27436438 520.32884528 141.9124308 520.3578409 130.55041331 C520.3794967 121.75783853 520.38954671 112.96529757 520.39088142 104.17269641 C520.39192693 98.92637855 520.39778018 93.68017406 520.41570103 88.43388438 C520.43224852 83.49347105 520.43430493 78.55325547 520.42556202 73.6128242 C520.42479513 71.80695319 520.42908805 70.00107125 520.43902028 68.19522738 C520.84172701 51.20363523 520.84172701 51.20363523 514.0679456 36.13072467 C513.7379456 35.14072467 513.4079456 34.15072467 513.0679456 33.13072467 C510.01286534 30.09795268 510.01286534 30.09795268 506.0679456 29.13072467 C505.7379456 28.14072467 505.4079456 27.15072467 505.0679456 26.13072467 C476.1512053 0.65645346 420.34275283 8.97843632 384.95222807 9 C379.36319015 9.00229451 373.77415515 8.99875466 368.18511784 8.99602008 C357.27874519 8.99160622 346.37237948 8.99251915 335.46600657 8.99543272 C326.59158991 8.99770401 317.71717517 8.99799185 308.8427583 8.9969089 C307.57297907 8.99675567 306.30319984 8.99660244 304.99494245 8.99644456 C302.41430067 8.99612479 299.8336589 8.99580058 297.25301713 8.99547197 C273.8201804 8.99271084 250.38734829 8.99555942 226.95451238 9.00081457 C205.63481819 9.00555949 184.31512998 9.00513375 162.99543583 9.00035357 C138.95349853 8.99498084 114.91156529 8.99290406 90.86962718 8.99596584 C88.29952383 8.99628434 85.72942048 8.99659871 83.15931714 8.9969089 C81.89522847 8.99706318 80.63113981 8.99721745 79.32874544 8.9973764 C70.47838805 8.99823496 61.6280328 8.99679304 52.77767575 8.99442935 C41.9729965 8.99160676 31.16832451 8.99242103 20.36364608 8.99771009 C14.86529239 9.00031411 9.36695072 9.00140908 3.86859715 8.99806094 C-23.79225102 8.96868226 -23.79225102 8.96868226 -51.4461993 9.51381183 Z " fill="#FEFEFE" transform="translate(1317.932054400444,662.8692753314972)"/>
<path d="M0 0 C1.49176758 -0.01836914 1.49176758 -0.01836914 3.01367188 -0.03710938 C19.39707134 -0.06938134 32.9533598 5.57119718 44.8125 16.875 C57.92684332 30.51880438 61.8033484 45.85593521 61.890625 64.3203125 C61.89632507 65.27461151 61.90202515 66.22891052 61.90789795 67.21212769 C61.91729993 69.22408965 61.9238627 71.23606667 61.92773438 73.24804688 C61.93740546 76.28283461 61.96846115 79.31693419 62 82.3515625 C62.0757155 95.92448843 61.63880727 108.98293168 55.25 121.3125 C54.91145996 121.97427246 54.57291992 122.63604492 54.22412109 123.31787109 C46.8521416 136.85764219 34.63881378 145.34848598 20.328125 150.42578125 C4.77270668 154.91292115 -14.50832794 154.11277523 -28.66015625 146.3515625 C-42.50605885 138.36788349 -51.89432397 128.48587938 -57.3125 113.1875 C-58.53185045 108.55396828 -59.50005094 103.90848779 -60.3125 99.1875 C-60.498125 98.18460938 -60.68375 97.18171875 -60.875 96.1484375 C-63.37193678 73.54224204 -64.11716684 43.53236134 -50.0625 24.5 C-48.8382936 23.04047099 -47.58714033 21.6031971 -46.3125 20.1875 C-45.27416016 19.02734375 -45.27416016 19.02734375 -44.21484375 17.84375 C-31.86928111 4.77966255 -17.59064466 0.01126883 0 0 Z " fill="#FDFDFD" transform="translate(594.3125,768.8125)"/>
<path d="M0 0 C1.04768555 0.00829834 2.09537109 0.01659668 3.17480469 0.02514648 C19.58222391 0.38034562 33.04895891 5.22968734 45.0625 16.6875 C57.97188496 30.34094173 62.36817584 45.17903124 62.453125 63.69140625 C62.45882507 64.66931625 62.46452515 65.64722626 62.47039795 66.6547699 C62.479812 68.7197869 62.48636757 70.78481868 62.49023438 72.84985352 C62.49989439 75.96593384 62.53093385 79.08134099 62.5625 82.19726562 C62.63709413 95.9113306 62.26979109 109.1007668 55.8125 121.5625 C55.47395996 122.22427246 55.13541992 122.88604492 54.78662109 123.56787109 C47.4146416 137.10764219 35.20131378 145.59848598 20.890625 150.67578125 C6.1076584 154.94009854 -13.04707774 154.68021323 -26.75 147.4375 C-30.59234788 145.31110414 -34.19967129 143.02061029 -37.75 140.4375 C-38.40613281 139.96570313 -39.06226563 139.49390625 -39.73828125 139.0078125 C-53.17499298 128.46103655 -58.2077743 111.6594096 -60.3125 95.40625 C-62.90457502 70.55066425 -63.11734298 41.68380866 -46.75 21.4375 C-34.41271878 6.915262 -19.03620636 -0.19604267 0 0 Z " fill="#FDFDFD" transform="translate(1204.75,425.5625)"/>
<path d="M0 0 C10.56 0 21.12 0 32 0 C32.01458252 4.23875977 32.02916504 8.47751953 32.04418945 12.84472656 C32.0945911 26.87047626 32.16104758 40.89611624 32.23571491 54.92175674 C32.28058291 63.42308559 32.32001807 71.92437339 32.34643555 80.42578125 C32.36948876 87.8400186 32.40296783 95.25412505 32.44870156 102.66825843 C32.47253556 106.58999778 32.4913284 110.51160828 32.49761391 114.43341827 C32.50370962 118.1336637 32.52386871 121.83357989 32.55427551 125.53370285 C32.56710018 127.52091374 32.56549815 129.50820184 32.5632782 131.49545288 C32.71095922 145.76286333 35.78704624 158.55493365 46 169 C56.24816274 177.02543263 67.02030447 179.9761888 80 179 C91.66616639 177.30883583 101.00848948 173.35806238 108.53515625 164.078125 C117.14412446 151.86486876 117.13913445 138.62294167 117.20532227 124.19677734 C117.21492288 122.83571083 117.22493416 121.47464716 117.23532104 120.11358643 C117.26214004 116.44902458 117.28327273 112.78445016 117.30332303 109.11984587 C117.3253261 105.27881858 117.35264411 101.43782902 117.37937927 97.59683228 C117.42911393 90.33691274 117.47412334 83.07697205 117.51740164 75.81701148 C117.5669393 67.54605349 117.62179565 59.27513339 117.67708123 51.00421214 C117.79060578 34.00284189 117.89680614 17.00143657 118 0 C128.56 0 139.12 0 150 0 C150.09067753 18.42985953 150.16419981 36.85953538 150.20724869 55.28956223 C150.22777804 63.84904784 150.25571174 72.4083839 150.30175781 80.96777344 C150.34192336 88.43767829 150.36750254 95.9074747 150.37635398 103.37748456 C150.38151908 107.32418848 150.39345141 111.27058249 150.42292023 115.21718597 C150.61537489 142.04583308 149.97768569 166.47697664 132 188 C131.45730469 188.65742187 130.91460938 189.31484375 130.35546875 189.9921875 C120.03346755 201.33332299 103.19156398 209.55617367 88 211 C74.85704151 211.59691488 61.6585276 212.00016399 49 208 C48.12988281 207.73316406 47.25976562 207.46632813 46.36328125 207.19140625 C29.4058884 201.2017463 15.11550863 187.87890684 7 172 C1.22079043 158.90140031 -0.30542143 146.45102337 -0.22705078 132.25708008 C-0.22648537 130.80720019 -0.22680575 129.35731974 -0.22793579 127.90744019 C-0.22850526 124.00527216 -0.21681738 120.10322926 -0.20278788 116.2010901 C-0.19021219 112.11052235 -0.18910466 108.01995116 -0.18673706 103.92936707 C-0.18054226 96.19840033 -0.16415876 88.46749075 -0.14403808 80.73654908 C-0.12161652 71.92873081 -0.11066997 63.12090968 -0.10064721 54.31306994 C-0.07979057 36.2086744 -0.04313959 18.1043571 0 0 Z " fill="#FDFDFD" transform="translate(840,710)"/>
<path d="M0 0 C0.95753174 0.00757324 1.91506348 0.01514648 2.90161133 0.02294922 C20.58166035 0.42925077 34.97468739 6.74115267 47.3125 19.4375 C65.24197598 39.35913998 63.3125 61.93044274 63.3125 88.4375 C32.6225 88.4375 1.9325 88.4375 -29.6875 88.4375 C-27.50869756 104.33914834 -27.50869756 104.33914834 -18.6875 116.4375 C-8.30296086 124.19902925 2.75388647 124.68696043 15.3125 123.4375 C22.85970395 121.63325914 28.68555895 117.84847597 34.5703125 112.890625 C36.3125 111.4375 36.3125 111.4375 38.3125 110.4375 C45.51768139 116.23178085 52.49880455 122.18545407 59.3125 128.4375 C48.09330245 142.53341488 32.05480692 150.89513179 14.3125 153.4375 C-4.56468861 155.4521836 -22.38962488 150.48964946 -37.6328125 139.26953125 C-46.62312399 131.68814917 -51.17015592 122.09253984 -55.6875 111.4375 C-56.03039062 110.65503906 -56.37328125 109.87257813 -56.7265625 109.06640625 C-60.52019736 98.68788486 -60.97227179 87.55644018 -61 76.625 C-61.00531738 75.60051758 -61.01063477 74.57603516 -61.01611328 73.52050781 C-60.95027874 66.32952829 -60.05900726 59.48980657 -58.6875 52.4375 C-58.49631592 51.43468994 -58.30513184 50.43187988 -58.1081543 49.39868164 C-54.91401053 33.52800311 -46.08492748 19.07067194 -32.77734375 9.7421875 C-22.43371422 3.28466925 -12.22197056 -0.13684958 0 0 Z " fill="#FCFCFC" transform="translate(647.6875,1111.5625)"/>
<path d="M0 0 C13.70572612 10.69813674 22.46736222 23.87066972 25.125 41.1875 C26.3377613 53.40173883 26 65.72570083 26 78 C-4.69 78 -35.38 78 -67 78 C-64.82119756 93.90164834 -64.82119756 93.90164834 -56 106 C-45.87136267 113.57026517 -35.25996475 114.24617013 -23 113 C-15.08198788 111.18461135 -8.85652518 107.70130164 -2.70703125 102.453125 C-1 101 -1 101 1 100 C8.20518139 105.79428085 15.18630455 111.74795407 22 118 C10.78080245 132.09591488 -5.25769308 140.45763179 -23 143 C-41.87718861 145.0146836 -59.70212488 140.05214946 -74.9453125 128.83203125 C-83.93562399 121.25064917 -88.48265592 111.65503984 -93 101 C-93.51433594 99.80697266 -93.51433594 99.80697266 -94.0390625 98.58984375 C-102.39117204 76.07988998 -100.35464458 46.23031108 -90.66015625 24.4375 C-82.96202521 8.49784043 -71.81948726 -2.20431024 -55.125 -8.4375 C-36.99529924 -13.47110682 -15.53984339 -10.67622828 0 0 Z " fill="#FCFCFC" transform="translate(800,436)"/>
<path d="M0 0 C1.44693237 0.00966797 1.44693237 0.00966797 2.9230957 0.01953125 C17.11283258 0.38011639 28.04118277 5.69953574 38.37109375 15.44140625 C52.56464621 30.55067177 51.74006212 49.80854951 51.60546875 69.17578125 C51.59986447 71.55616487 51.59559831 73.93655197 51.59260559 76.31694031 C51.58122238 82.54265108 51.55181199 88.76814755 51.51849365 94.99377441 C51.48765134 101.36235659 51.47407014 107.73097383 51.45898438 114.09960938 C51.42693548 126.56651493 51.3742215 139.03320601 51.3125 151.5 C41.4125 151.5 31.5125 151.5 21.3125 151.5 C21.3031543 148.61918701 21.29380859 145.73837402 21.28417969 142.77026367 C21.25032305 133.22279559 21.1947258 123.67554168 21.12859726 114.12824535 C21.08918773 108.34305418 21.05696717 102.55801375 21.04150391 96.77270508 C21.02629449 91.18337158 20.99177262 85.59445267 20.94419098 80.00530434 C20.92942137 77.87925138 20.92146154 75.75313923 20.92061615 73.62703514 C21.189785 54.34325472 21.189785 54.34325472 12.0234375 37.93359375 C3.71879547 30.97513799 -6.31893235 30.59195843 -16.6875 31.5 C-23.97482169 33.5573705 -29.68024585 38.09051922 -33.6875 44.5 C-36.44221892 50.70017894 -37.1306605 55.75371069 -37.11987305 62.49609375 C-37.1300647 63.46286545 -37.14025635 64.42963715 -37.15075684 65.42570496 C-37.18076267 68.59636321 -37.19013388 71.76671872 -37.19921875 74.9375 C-37.21607461 77.14568069 -37.23422607 79.35385183 -37.25361633 81.56201172 C-37.3010237 87.355296 -37.33089308 93.14854158 -37.35705566 98.94195557 C-37.38690788 104.86112102 -37.43342222 110.78015326 -37.47851562 116.69921875 C-37.56444353 128.29942463 -37.63029454 139.89961688 -37.6875 151.5 C-47.9175 151.5 -58.1475 151.5 -68.6875 151.5 C-68.6875 102 -68.6875 52.5 -68.6875 1.5 C-58.4575 1.5 -48.2275 1.5 -37.6875 1.5 C-37.3575 6.45 -37.0275 11.4 -36.6875 16.5 C-35.73875 15.46875 -34.79 14.4375 -33.8125 13.375 C-24.34679643 3.94746459 -13.17641454 -0.09242553 0 0 Z " fill="#FCFCFC" transform="translate(810.6875,1111.5)"/>
<path d="M0 0 C11.62713515 9.13438664 17.28657066 19.74073241 20.0625 34.1875 C20.42169753 37.95702969 20.4452977 41.67954073 20.40307617 45.46386719 C20.40373329 47.0465741 20.40373329 47.0465741 20.40440369 48.66125488 C20.40233597 52.10249208 20.37910091 55.54322434 20.35546875 58.984375 C20.34986562 61.38860813 20.34559891 63.79284472 20.34260559 66.19708252 C20.33121337 72.49021042 20.30179495 78.78312686 20.26849365 85.07617188 C20.23767104 91.51168966 20.2240743 97.94724199 20.20898438 104.3828125 C20.17691952 116.98448231 20.1241979 129.5859404 20.0625 142.1875 C10.1625 142.1875 0.2625 142.1875 -9.9375 142.1875 C-9.9468457 139.30668701 -9.95619141 136.42587402 -9.96582031 133.45776367 C-9.99967695 123.91029559 -10.0552742 114.36304168 -10.12140274 104.81574535 C-10.16081227 99.03055418 -10.19303283 93.24551375 -10.20849609 87.46020508 C-10.22370551 81.87087158 -10.25822738 76.28195267 -10.30580902 70.69280434 C-10.32057863 68.56675138 -10.32853846 66.44063923 -10.32938385 64.31453514 C-10.060215 45.03075472 -10.060215 45.03075472 -19.2265625 28.62109375 C-27.53120453 21.66263799 -37.56893235 21.27945843 -47.9375 22.1875 C-55.22482169 24.2448705 -60.93024585 28.77801922 -64.9375 35.1875 C-67.69221892 41.38767894 -68.3806605 46.44121069 -68.36987305 53.18359375 C-68.3800647 54.15036545 -68.39025635 55.11713715 -68.40075684 56.11320496 C-68.43076267 59.28386321 -68.44013388 62.45421872 -68.44921875 65.625 C-68.46607461 67.83318069 -68.48422607 70.04135183 -68.50361633 72.24951172 C-68.5510237 78.042796 -68.58089308 83.83604158 -68.60705566 89.62945557 C-68.63690788 95.54862102 -68.68342222 101.46765326 -68.72851562 107.38671875 C-68.81444353 118.98692463 -68.88029454 130.58711688 -68.9375 142.1875 C-79.1675 142.1875 -89.3975 142.1875 -99.9375 142.1875 C-99.9375 92.6875 -99.9375 43.1875 -99.9375 -7.8125 C-89.7075 -7.8125 -79.4775 -7.8125 -68.9375 -7.8125 C-68.6075 -2.8625 -68.2775 2.0875 -67.9375 7.1875 C-66.98875 6.15625 -66.04 5.125 -65.0625 4.0625 C-47.66809434 -13.19219155 -19.64700848 -13.49733509 0 0 Z " fill="#FCFCFC" transform="translate(1398.9375,434.8125)"/>
<path d="M0 0 C10.23 0 20.46 0 31 0 C31.0093457 2.94663574 31.01869141 5.89327148 31.02832031 8.92919922 C31.06215723 18.68821546 31.11774365 28.44702173 31.18390274 38.20586967 C31.22333411 44.12000478 31.25554403 50.03399196 31.27099609 55.94824219 C31.28619102 61.66076054 31.32068753 67.37287208 31.36830902 73.08520889 C31.38309348 75.25953756 31.39103932 77.43392431 31.39188385 79.60830307 C31.39426405 82.66492329 31.4214291 85.7204288 31.45410156 88.77685547 C31.4490712 89.66662582 31.44404083 90.55639618 31.43885803 91.47312927 C31.573609 99.67421054 33.70449077 106.90852064 39.4375 112.9375 C47.05683504 119.8420147 54.14128429 120.48477887 64.19921875 120.26953125 C71.45466862 119.75501322 76.7737691 117.67863807 81.875 112.4375 C90.44731664 100.97562414 89.60393856 88.37935303 89.609375 74.70703125 C89.62437388 72.54797638 89.64110458 70.38893291 89.65948486 68.22990417 C89.70297865 62.57965537 89.72311758 56.9295613 89.73822021 51.2791748 C89.75785627 45.50047728 89.79981886 39.72194529 89.83984375 33.94335938 C89.91495129 22.6289295 89.96329402 11.31461968 90 0 C99.9 0 109.8 0 120 0 C120 49.5 120 99 120 150 C110.1 150 100.2 150 90 150 C89.505 142.575 89.505 142.575 89 135 C88.05125 136.03125 87.1025 137.0625 86.125 138.125 C76.52236747 147.68891223 64.33008639 151.99080703 50.9375 152.3125 C35.35234818 152.13519452 23.24317972 144.66249803 12.15625 134.2421875 C2.06869833 123.75259573 -0.16551301 109.60887193 -0.11352539 95.58837891 C-0.11367142 94.55362427 -0.11381744 93.51886963 -0.1139679 92.45275879 C-0.1132731 89.04400512 -0.10550097 85.63530659 -0.09765625 82.2265625 C-0.09579053 79.85859202 -0.09436735 77.49062115 -0.09336853 75.12265015 C-0.08955547 68.89856902 -0.07973551 62.67451134 -0.06866455 56.45043945 C-0.0584244 50.09586911 -0.05386533 43.74129497 -0.04882812 37.38671875 C-0.03811216 24.92446723 -0.02052515 12.46223923 0 0 Z " fill="#FCFCFC" transform="translate(900,1113)"/>
<path d="M0 0 C10.23 0 20.46 0 31 0 C31.0093457 2.94663574 31.01869141 5.89327148 31.02832031 8.92919922 C31.06215723 18.68821546 31.11774365 28.44702173 31.18390274 38.20586967 C31.22333411 44.12000478 31.25554403 50.03399196 31.27099609 55.94824219 C31.28619102 61.66076054 31.32068753 67.37287208 31.36830902 73.08520889 C31.38309348 75.25953756 31.39103932 77.43392431 31.39188385 79.60830307 C31.39426405 82.66492329 31.4214291 85.7204288 31.45410156 88.77685547 C31.4490712 89.66662582 31.44404083 90.55639618 31.43885803 91.47312927 C31.573609 99.67421054 33.70449077 106.90852064 39.4375 112.9375 C47.05683504 119.8420147 54.14128429 120.48477887 64.19921875 120.26953125 C71.45466862 119.75501322 76.7737691 117.67863807 81.875 112.4375 C90.44731664 100.97562414 89.60393856 88.37935303 89.609375 74.70703125 C89.62437388 72.54797638 89.64110458 70.38893291 89.65948486 68.22990417 C89.70297865 62.57965537 89.72311758 56.9295613 89.73822021 51.2791748 C89.75785627 45.50047728 89.79981886 39.72194529 89.83984375 33.94335938 C89.91495129 22.6289295 89.96329402 11.31461968 90 0 C99.9 0 109.8 0 120 0 C120 49.5 120 99 120 150 C110.1 150 100.2 150 90 150 C89.505 142.575 89.505 142.575 89 135 C88.05125 136.03125 87.1025 137.0625 86.125 138.125 C76.52236747 147.68891223 64.33008639 151.99080703 50.9375 152.3125 C35.35234818 152.13519452 23.24317972 144.66249803 12.15625 134.2421875 C2.06869833 123.75259573 -0.16551301 109.60887193 -0.11352539 95.58837891 C-0.11367142 94.55362427 -0.11381744 93.51886963 -0.1139679 92.45275879 C-0.1132731 89.04400512 -0.10550097 85.63530659 -0.09765625 82.2265625 C-0.09579053 79.85859202 -0.09436735 77.49062115 -0.09336853 75.12265015 C-0.08955547 68.89856902 -0.07973551 62.67451134 -0.06866455 56.45043945 C-0.0584244 50.09586911 -0.05386533 43.74129497 -0.04882812 37.38671875 C-0.03811216 24.92446723 -0.02052515 12.46223923 0 0 Z " fill="#FCFCFC" transform="translate(551,427)"/>
<path d="M0 0 C0.53625 0.4125 1.0725 0.825 1.625 1.25 C0.34520546 4.00236304 -1.03868208 6.23108378 -3.01953125 8.52734375 C-3.53193359 9.12353516 -4.04433594 9.71972656 -4.57226562 10.33398438 C-5.10529297 10.94564453 -5.63832031 11.55730469 -6.1875 12.1875 C-6.96963867 13.09918945 -6.96963867 13.09918945 -7.76757812 14.02929688 C-10.84014442 17.58518821 -14.00875109 20.97086289 -17.375 24.25 C-18.01824219 23.80269531 -18.66148437 23.35539062 -19.32421875 22.89453125 C-31.03166943 15.06172901 -42.19359341 11.08237767 -56.1875 11 C-57.05181641 10.979375 -57.91613281 10.95875 -58.80664062 10.9375 C-65.96392128 10.89428623 -71.62514355 11.91859996 -77.25 16.6875 C-80.92277521 21.11643481 -81.8530667 24.37851633 -81.67578125 30.0703125 C-81.19303219 33.56867581 -80.04882489 34.96746656 -77.375 37.25 C-71.28554313 40.64991876 -65.66350807 41.91537856 -58.765625 42.33984375 C-56.94009714 42.48624057 -55.11457653 42.6327278 -53.2890625 42.77929688 C-50.46163176 42.98639077 -47.63383903 43.18688537 -44.80566406 43.38354492 C-29.95304144 44.44759406 -15.29105106 45.82776109 -4.375 57.25 C4.9354923 70.07199263 5.97205277 83.82836005 4.625 99.25 C2.05592394 110.70279701 -5.07519811 118.38200891 -14.75 124.5625 C-28.25709056 132.3807584 -40.83867181 134.61071018 -56.375 134.5 C-57.46039062 134.50773438 -58.54578125 134.51546875 -59.6640625 134.5234375 C-82.87469688 134.46804219 -103.23919838 125.92595645 -120.375 110.25 C-121.035 109.26 -121.695 108.27 -122.375 107.25 C-118.16281944 102.91935186 -113.81798473 98.8382631 -109.2421875 94.89453125 C-106.83987962 92.77869105 -104.60291166 90.5475339 -102.375 88.25 C-99.55582597 89.56066863 -97.2792432 91.03864371 -94.875 93 C-83.48651117 101.6577917 -71.06356782 105.7950361 -56.875 105.625 C-55.42287109 105.64240234 -55.42287109 105.64240234 -53.94140625 105.66015625 C-44.98581389 105.62409346 -36.43770711 104.10687906 -29.375 98.25 C-25.29889622 92.66495395 -25.3559058 86.92121327 -26.375 80.25 C-30.52567588 74.67935605 -35.76862583 74.23878298 -42.375 73.25 C-48.52143963 72.62666591 -54.6817859 72.15610274 -60.84448242 71.72363281 C-76.79248486 70.58410095 -91.95432785 67.58704273 -103.3125 55.3125 C-112.0763958 44.47294466 -113.52232422 32.74793205 -112.375 19.25 C-110.37658607 7.76211156 -104.89432065 -0.97663723 -95.375 -7.75 C-65.07959659 -25.64979522 -27.72034259 -20.42551559 0 0 Z " fill="#FDFDFD" transform="translate(963.375,443.75)"/>
<path d="M0 0 C9.69319091 9.05407942 14.07771185 20.49381128 15.08984375 33.47265625 C15.24014005 37.98842539 15.25370886 42.50151486 15.2578125 47.01953125 C15.2628051 48.95182587 15.2628051 48.95182587 15.26789856 50.92315674 C15.27385223 53.63953489 15.2757424 56.35588142 15.27514648 59.07226562 C15.27504517 62.51565331 15.28868294 65.9588334 15.30591869 69.40217209 C15.31985843 72.73296062 15.31913121 76.06371406 15.3203125 79.39453125 C15.32749802 80.61162781 15.33468353 81.82872437 15.34208679 83.08270264 C15.29221507 102.06791362 15.29221507 102.06791362 12.08984375 108.47265625 C9.16258271 107.12403826 6.83456986 105.58066243 4.375 103.50390625 C3.68857422 102.93285156 3.00214844 102.36179687 2.29492188 101.7734375 C0.86882434 100.57483957 -0.55566263 99.37432272 -1.97851562 98.171875 C-5.47251794 95.27057598 -8.47609035 92.79159562 -12.91015625 91.47265625 C-23.59683664 101.18073633 -23.59683664 101.18073633 -29.91015625 112.47265625 C-27.84166428 114.23917859 -25.76392029 115.89605561 -23.59765625 117.53515625 C-22.31696647 118.52117259 -21.03702881 119.50816653 -19.7578125 120.49609375 C-19.11344238 120.99206055 -18.46907227 121.48802734 -17.80517578 121.99902344 C-13.43329729 125.39874755 -9.17863206 128.94463032 -4.91015625 132.47265625 C-9.97302645 138.02548163 -15.9463501 140.06369212 -23.35546875 140.828125 C-37.14115286 141.14625617 -47.76025388 137.58125934 -58.203125 128.47265625 C-73.60085428 112.7571502 -71.26048064 87.71030004 -71.22583008 67.41918945 C-71.22266573 63.54675229 -71.24621663 59.6750779 -71.27148438 55.80273438 C-71.37353444 16.66198234 -71.37353444 16.66198234 -58.78515625 2.72265625 C-42.10433273 -12.52523309 -17.82996564 -14.25668009 0 0 Z " fill="#434343" transform="translate(469.91015625,406.52734375)"/>
<path d="M0 0 C9.9 0 19.8 0 30 0 C30 15.18 30 30.36 30 46 C37.26 46 44.52 46 52 46 C52 53.26 52 60.52 52 68 C44.74 68 37.48 68 30 68 C30.08554028 79.50064744 30.17931078 91.00114721 30.28752708 102.50160408 C30.3374494 107.84186333 30.38377992 113.18210318 30.421875 118.52246094 C30.45877897 123.67725465 30.50515304 128.83188453 30.55806351 133.98653793 C30.57658025 135.95205686 30.59169823 137.91761088 30.60334396 139.88318253 C30.62025287 142.63860054 30.6492993 145.39364555 30.68115234 148.14892578 C30.68331253 148.95956985 30.68547272 149.77021393 30.68769836 150.60542297 C30.76719614 155.99696455 30.99302637 160.99302637 35 165 C40.53538823 166.38384706 46.31105877 166.56238914 52 167 C52 176.24 52 185.48 52 195 C22.73072941 195.81303529 22.73072941 195.81303529 10.5 185.75 C1.53318789 177.04184593 -0.03036675 165.97211799 -0.21081734 153.88593769 C-0.23978818 149.11769143 -0.22070912 144.3502503 -0.1953125 139.58203125 C-0.19157655 137.51267128 -0.18873233 135.44330952 -0.18673706 133.37394714 C-0.17914644 127.96038827 -0.15953778 122.54693885 -0.1373291 117.13342285 C-0.11677159 111.59612508 -0.10771427 106.05880941 -0.09765625 100.52148438 C-0.07628711 89.68094183 -0.04220711 78.84048006 0 68 C-4.95 68 -9.9 68 -15 68 C-15 60.41 -15 52.82 -15 45 C-10.05 45 -5.1 45 0 45 C0 30.15 0 15.3 0 0 Z " fill="#FDFDFD" transform="translate(1000,382)"/>
<path d="M0 0 C13.2103125 -0.1546875 13.2103125 -0.1546875 26.6875 -0.3125 C29.44053467 -0.35802002 32.19356934 -0.40354004 35.0300293 -0.45043945 C37.25308012 -0.46506531 39.47614452 -0.47780098 41.69921875 -0.48828125 C42.82026001 -0.51386108 43.94130127 -0.53944092 45.09631348 -0.5657959 C56.12832138 -0.57177401 66.61183241 2.66035336 75 10 C82.71769281 18.79361781 82.8588091 28.55886307 82.23828125 39.74609375 C81.19122786 49.6501889 74.52458629 56.91683677 67.4375 63.3125 C54.100067 69.85996711 38.55035616 68.34617985 24.125 68.1875 C12.183125 68.0946875 12.183125 68.0946875 0 68 C0 45.56 0 23.12 0 0 Z " fill="#454545" transform="translate(406,740)"/>
<path d="M0 0 C6.35093632 4.97490012 10.21412471 11.17277628 11.40136719 19.18505859 C11.89165392 23.36983099 12.05356144 27.51591382 12.09765625 31.7265625 C12.105728 32.48346878 12.11379974 33.24037506 12.12211609 34.0202179 C12.13585118 35.61265852 12.14661984 37.20512727 12.15454102 38.79760742 C12.16603346 40.40023649 12.18644197 42.00282811 12.21606445 43.60522461 C12.44156442 55.85151035 12.17541233 67.6117084 4.109375 77.58984375 C-2.48945584 84.31201723 -9.90140528 86.77076776 -19.203125 86.90234375 C-26.62899669 86.94857425 -31.93370862 85.85044893 -38.140625 81.52734375 C-39.23375 80.84671875 -40.326875 80.16609375 -41.453125 79.46484375 C-51.20187385 68.80923454 -51.48705297 53.26424513 -51.453125 39.65234375 C-51.47729492 37.72455078 -51.47729492 37.72455078 -51.50195312 35.7578125 C-51.50823132 23.38976314 -50.04682175 11.87814544 -41.3203125 2.58984375 C-29.84029668 -8.21487702 -12.8955453 -8.8715704 0 0 Z " fill="#464646" transform="translate(614.140625,804.47265625)"/>
<path d="M0 0 C6.35093632 4.97490012 10.21412471 11.17277628 11.40136719 19.18505859 C11.89165392 23.36983099 12.05356144 27.51591382 12.09765625 31.7265625 C12.105728 32.48346878 12.11379974 33.24037506 12.12211609 34.0202179 C12.13585118 35.61265852 12.14661984 37.20512727 12.15454102 38.79760742 C12.16603346 40.40023649 12.18644197 42.00282811 12.21606445 43.60522461 C12.44156442 55.85151035 12.17541233 67.6117084 4.109375 77.58984375 C-2.48945584 84.31201723 -9.90140528 86.77076776 -19.203125 86.90234375 C-26.62899669 86.94857425 -31.93370862 85.85044893 -38.140625 81.52734375 C-39.23375 80.84671875 -40.326875 80.16609375 -41.453125 79.46484375 C-51.20187385 68.80923454 -51.48705297 53.26424513 -51.453125 39.65234375 C-51.47729492 37.72455078 -51.47729492 37.72455078 -51.50195312 35.7578125 C-51.50823132 23.38976314 -50.04682175 11.87814544 -41.3203125 2.58984375 C-29.84029668 -8.21487702 -12.8955453 -8.8715704 0 0 Z " fill="#3F3F3F" transform="translate(1225.140625,461.47265625)"/>
<path d="M0 0 C6.97272477 4.31239946 11.20328604 11.13451875 13.1875 19 C14.0458665 24.11176466 14.34754239 29.10458665 14.35546875 34.27734375 C14.36046135 35.43261314 14.36046135 35.43261314 14.36555481 36.61122131 C14.3705886 38.23063566 14.37296424 39.85006026 14.37280273 41.46948242 C14.37499074 43.92709642 14.39318825 46.38426195 14.41210938 48.84179688 C14.41504388 50.42447765 14.41702829 52.00716053 14.41796875 53.58984375 C14.42515427 54.31405014 14.43233978 55.03825653 14.43974304 55.78440857 C14.39749779 65.36246512 11.33854598 74.54626657 6.5625 82.8125 C0.03526317 88.82442866 -6.24551996 90.45280937 -14.9375 90.5 C-16.06502686 90.50930542 -16.06502686 90.50930542 -17.21533203 90.51879883 C-23.98227061 90.36692425 -30.64809719 88.8883959 -35.5625 83.9375 C-44.91402468 73.8191077 -45.14597705 59.33416096 -45.07324219 46.34399414 C-45.06253933 44.07085391 -45.07317408 41.7985066 -45.0859375 39.52539062 C-45.09893765 27.17836716 -44.66269822 14.50193773 -35.8828125 4.88671875 C-26.59486788 -3.57757795 -11.59323086 -5.26481585 0 0 Z " fill="#464646" transform="translate(1102.8125,801)"/>
<path d="M0 0 C6.97272477 4.31239946 11.20328604 11.13451875 13.1875 19 C14.0458665 24.11176466 14.34754239 29.10458665 14.35546875 34.27734375 C14.36046135 35.43261314 14.36046135 35.43261314 14.36555481 36.61122131 C14.3705886 38.23063566 14.37296424 39.85006026 14.37280273 41.46948242 C14.37499074 43.92709642 14.39318825 46.38426195 14.41210938 48.84179688 C14.41504388 50.42447765 14.41702829 52.00716053 14.41796875 53.58984375 C14.42515427 54.31405014 14.43233978 55.03825653 14.43974304 55.78440857 C14.39749779 65.36246512 11.33854598 74.54626657 6.5625 82.8125 C0.03526317 88.82442866 -6.24551996 90.45280937 -14.9375 90.5 C-16.06502686 90.50930542 -16.06502686 90.50930542 -17.21533203 90.51879883 C-23.98227061 90.36692425 -30.64809719 88.8883959 -35.5625 83.9375 C-44.91402468 73.8191077 -45.14597705 59.33416096 -45.07324219 46.34399414 C-45.06253933 44.07085391 -45.07317408 41.7985066 -45.0859375 39.52539062 C-45.09893765 27.17836716 -44.66269822 14.50193773 -35.8828125 4.88671875 C-26.59486788 -3.57757795 -11.59323086 -5.26481585 0 0 Z " fill="#464646" transform="translate(763.8125,801)"/>
<path d="M0 0 C10.23 0 20.46 0 31 0 C31 49.5 31 99 31 150 C20.77 150 10.54 150 0 150 C0 100.5 0 51 0 0 Z " fill="#F9F9F9" transform="translate(1081,427)"/>
<path d="M0 0 C5.76349617 5.4376448 8.97606253 13.18744875 9.3706665 21.00500488 C9.41896958 23.86159717 9.39473597 26.70916897 9.3125 29.56494141 C9.24967299 31.76143272 9.23047678 33.95503819 9.21875 36.15234375 C9.1026341 46.69302918 8.80714329 55.96825354 0.88671875 63.85546875 C-6.6038725 70.69715756 -13.05971907 71.7119606 -22.99609375 71.4453125 C-30.20315765 70.93994396 -35.39549096 67.27609341 -40.1875 62.0625 C-44.5074509 55.64802745 -45.71172653 50.65487356 -45.68359375 43.06640625 C-45.6888356 42.22963852 -45.69407745 41.39287079 -45.69947815 40.53074646 C-45.70586967 38.77010197 -45.70459875 37.00941461 -45.69604492 35.2487793 C-45.68753427 32.5732733 -45.71633566 29.89990506 -45.74804688 27.22460938 C-45.7496593 25.50520897 -45.74908056 23.78580482 -45.74609375 22.06640625 C-45.75732773 21.27657852 -45.76856171 20.48675079 -45.78013611 19.67298889 C-45.69587616 12.86810518 -43.60065294 7.74390127 -39.171875 2.57421875 C-26.71938232 -8.24332435 -14.09462792 -8.67361718 0 0 Z " fill="#FAFAFA" transform="translate(1294.25,1038)"/>
<path d="M0 0 C-0.5647301 3.90829085 -2.42131971 5.89920223 -5.0625 8.75 C-6.16271484 9.94882812 -6.16271484 9.94882812 -7.28515625 11.171875 C-7.85105469 11.77515625 -8.41695312 12.3784375 -9 13 C-9.74765625 12.65066406 -10.4953125 12.30132813 -11.265625 11.94140625 C-12.25046875 11.48636719 -13.2353125 11.03132812 -14.25 10.5625 C-15.22453125 10.11003906 -16.1990625 9.65757812 -17.203125 9.19140625 C-22.039796 7.13109249 -26.15547455 6.76110769 -31.4375 6.625 C-32.73558594 6.57601562 -34.03367187 6.52703125 -35.37109375 6.4765625 C-39.86644055 7.12497635 -41.25335902 8.46046078 -44 12 C-44.9168463 15.04374733 -44.9168463 15.04374733 -44 18 C-38.10292745 23.35560512 -31.37807664 22.77113123 -23.76171875 23.04492188 C-15.50604479 23.51807315 -7.72480268 25.57545497 -2 31.9375 C2.53425383 38.88057618 2.7810815 45.92223312 2 54 C0.31836635 60.21298181 -3.63593028 64.58281381 -9 68 C-20.92975624 73.75348799 -33.68875522 75.03164024 -46.44140625 70.9765625 C-54.04971707 68.07262707 -60.04639688 64.56532466 -66 59 C-62.79239749 55.19364503 -59.59253891 51.45436433 -56 48 C-51.91752323 49.40335139 -48.6067665 51.47080582 -45.0625 53.87890625 C-40.39434252 56.41633276 -35.25985054 56.21139387 -30.0625 56.25 C-29.37220703 56.270625 -28.68191406 56.29125 -27.97070312 56.3125 C-23.22595277 56.34847915 -20.0148992 55.52540224 -16 53 C-14.89352192 50.78704384 -14.80411632 49.45327301 -14.75 47 C-14.71132812 45.948125 -14.71132812 45.948125 -14.671875 44.875 C-14.78015625 44.25625 -14.8884375 43.6375 -15 43 C-18.23349644 40.84433571 -19.62823591 40.65000215 -23.41015625 40.32421875 C-25.01987305 40.16469727 -25.01987305 40.16469727 -26.66210938 40.00195312 C-28.9008686 39.79492255 -31.14046947 39.59677037 -33.38085938 39.40820312 C-42.40966969 38.48865187 -50.18968749 36.34416316 -56.5 29.5 C-61.04676042 23.89585344 -61.50605567 18.31892749 -61.37109375 11.29296875 C-60.60831986 4.52435413 -57.49199726 -0.07801343 -52.3125 -4.375 C-35.90078067 -15.35681962 -15.31360349 -10.37038611 0 0 Z " fill="#FAFAFA" transform="translate(1380,790)"/>
<path d="M0 0 C3.63 0 7.26 0 11 0 C11.33 8.58 11.66 17.16 12 26 C14.64 24.35 17.28 22.7 20 21 C24.61976476 20.00537643 28.78849806 20.60393206 33.25 22.0625 C37.66854291 25.17556432 41.27390999 28.82172996 43 34 C43.27288797 38.19867502 43.3133306 42.39740083 43.35009766 46.60424805 C43.36659427 47.98430316 43.39380154 49.36427506 43.43212891 50.74389648 C43.84755458 65.80217419 43.84755458 65.80217419 38 72 C32.67877713 76.43435239 27.87648262 76.59508708 21.046875 76.40625 C16.96236846 75.86164913 15.00737255 74.74959776 12 72 C11.67 73.32 11.34 74.64 11 76 C7.37 76 3.74 76 0 76 C0 50.92 0 25.84 0 0 Z " fill="#FAFAFA" transform="translate(1393,1157)"/>
<path d="M0 0 C4.41854291 3.11306432 8.02390999 6.75922996 9.75 11.9375 C10.02288797 16.13617502 10.0633306 20.33490083 10.10009766 24.54174805 C10.11659427 25.92180316 10.14380154 27.30177506 10.18212891 28.68139648 C10.56287186 42.48250086 10.56287186 42.48250086 6.12963867 48.48168945 C1.7435212 53.10997091 -1.97875515 54.19503646 -8.1875 54.5 C-14.69836863 54.64897008 -15.87922048 52.9192372 -22.25 48.9375 C-22.25 57.8475 -22.25 66.7575 -22.25 75.9375 C-25.88 75.9375 -29.51 75.9375 -33.25 75.9375 C-33.25 50.8575 -33.25 25.7775 -33.25 -0.0625 C-29.62 -0.0625 -25.99 -0.0625 -22.25 -0.0625 C-21.92 1.2575 -21.59 2.5775 -21.25 3.9375 C-20.486875 3.298125 -19.72375 2.65875 -18.9375 2 C-13.41800525 -2.23589132 -6.44830805 -2.10810071 0 0 Z " fill="#FBFBFB" transform="translate(1707.25,1179.0625)"/>
<path d="M0 0 C5.75611821 3.38171945 9.44707047 8.18749541 11.625 14.4375 C12.05339698 18.20055348 11.99521168 21.9648308 12 25.75 C12.02449219 26.75740234 12.04898437 27.76480469 12.07421875 28.80273438 C12.10357964 36.31422913 10.8683713 41.75314401 5.84375 47.4609375 C5.2765625 47.90695312 4.709375 48.35296875 4.125 48.8125 C3.5578125 49.27398438 2.990625 49.73546875 2.40625 50.2109375 C-3.80394285 54.4872545 -10.00611706 54.09764629 -17.375 53.4375 C-23.34137751 51.80946521 -26.95237232 48.47077599 -30.375 43.4375 C-32.97801548 37.6611971 -32.77841237 31.78159856 -32.8125 25.5625 C-32.84537109 24.51191406 -32.87824219 23.46132812 -32.91210938 22.37890625 C-32.96601926 14.54727065 -31.38691963 9.55738445 -25.89624023 3.91894531 C-18.81178972 -2.39805149 -8.7442195 -3.92563226 0 0 Z " fill="#FAFAFA" transform="translate(1478.375,1179.5625)"/>
<path d="M0 0 C5.28 0 10.56 0 16 0 C16.11610149 12.34403684 16.20482091 24.68794273 16.25906086 37.03241539 C16.28509987 42.76513397 16.32039421 48.49747763 16.37719727 54.22998047 C16.43171959 59.76727585 16.46146334 65.30421171 16.47438622 70.84175491 C16.4835898 72.94919108 16.50156217 75.05660867 16.52865028 77.16389084 C16.79840769 99.02858876 16.79840769 99.02858876 11 106 C3.26232617 113.33972825 -3.58768866 114.25395881 -14 114 C-14 108.72 -14 103.44 -14 98 C-11.75390625 97.83723958 -9.5078125 97.67447917 -7.26171875 97.51171875 C-4.58013375 96.90500435 -3.6646627 96.15637846 -2 94 C-0.69961916 90.09885749 -0.82254692 86.37400479 -0.79467773 82.3059082 C-0.77982834 80.9738887 -0.77982834 80.9738887 -0.76467896 79.61495972 C-0.73306711 76.67692744 -0.70830771 73.73887899 -0.68359375 70.80078125 C-0.66302396 68.76482216 -0.64202748 66.72886733 -0.62062073 64.69291687 C-0.56540271 59.33193415 -0.5159922 53.97091291 -0.46777344 48.60986328 C-0.41755648 43.14026456 -0.36187142 37.67072185 -0.30664062 32.20117188 C-0.19906233 21.46749575 -0.09761659 10.73377102 0 0 Z " fill="#FBFBFB" transform="translate(1284,781)"/>
<path d="M0 0 C3.63 0 7.26 0 11 0 C11.9216807 2.99853456 12.83733036 5.998721 13.75 9 C14.00265625 9.81984375 14.2553125 10.6396875 14.515625 11.484375 C16.97856962 19.61209224 18.93082697 27.7233079 21 36 C24.96 24.12 28.92 12.24 33 0 C35.97 0 38.94 0 42 0 C43.57232761 4.6428523 45.13874495 9.28764033 46.69970703 13.93432617 C47.23161236 15.5149515 47.76513164 17.09503465 48.30029297 18.67456055 C49.06902737 20.94439505 49.83194572 23.21611294 50.59375 25.48828125 C50.83436157 26.19463211 51.07497314 26.90098297 51.32287598 27.6287384 C52.29588092 30.54675212 53 32.9013002 53 36 C53.66 36 54.32 36 55 36 C55.11601563 35.21109375 55.23203125 34.4221875 55.3515625 33.609375 C56.16161856 29.10038828 57.25335046 24.69019078 58.375 20.25 C58.59760498 19.36344727 58.82020996 18.47689453 59.04956055 17.56347656 C60.54582074 11.65658648 62.16005156 5.81036351 64 0 C67.96 0 71.92 0 76 0 C72.74733408 11.73858146 69.04181728 23.30074179 65.25 34.875 C64.64169269 36.73820474 64.03361818 38.6014855 63.42578125 40.46484375 C61.95319804 44.97744173 60.47748649 49.48900516 59 54 C55.7 54 52.4 54 49 54 C46.39174714 46.37271166 44.08593009 38.67045117 41.8125 30.9375 C41.44447266 29.69033203 41.07644531 28.44316406 40.69726562 27.15820312 C39.79677181 24.10587992 38.89771956 21.05314007 38 18 C35.47747854 24.47653516 33.38384074 31.03534305 31.375 37.6875 C31.06304688 38.70650391 30.75109375 39.72550781 30.4296875 40.77539062 C29.08922228 45.19257019 27.90737064 49.4631468 27 54 C23.37 54 19.74 54 16 54 C12.75995625 44.48028384 9.62078051 34.95263281 6.83642578 25.28881836 C5.17135026 19.52047277 3.38419313 13.7955626 1.52319336 8.08740234 C0.61900267 5.26066664 0 2.99031619 0 0 Z " fill="#F9F9F9" transform="translate(1496,1179)"/>
<path d="M0 0 C6.40717358 4.70787972 9.59173163 12.45488239 12.046875 19.8203125 C12.046875 23.1203125 12.046875 26.4203125 12.046875 29.8203125 C-8.743125 29.8203125 -29.533125 29.8203125 -50.953125 29.8203125 C-47.82555037 7.92729011 -47.82555037 7.92729011 -38.09765625 0.29296875 C-26.20930107 -7.87080157 -12.22276009 -7.38254709 0 0 Z " fill="#474747" transform="translate(667.953125,1145.1796875)"/>
<path d="M0 0 C6.40717358 4.70787972 9.59173163 12.45488239 12.046875 19.8203125 C12.046875 23.1203125 12.046875 26.4203125 12.046875 29.8203125 C-8.743125 29.8203125 -29.533125 29.8203125 -50.953125 29.8203125 C-47.82555037 7.92729011 -47.82555037 7.92729011 -38.09765625 0.29296875 C-26.20930107 -7.87080157 -12.22276009 -7.38254709 0 0 Z " fill="#454545" transform="translate(782.953125,459.1796875)"/>
<path d="M0 0 C4.85206513 2.47014225 8.34014603 4.62923487 10.4375 9.75 C10.67800903 11.90142822 10.67800903 11.90142822 10.66455078 14.24316406 C10.66439972 15.12377502 10.66424866 16.00438599 10.66409302 16.91168213 C10.65377045 17.85348328 10.64344788 18.79528442 10.6328125 19.765625 C10.6299826 20.73659119 10.62715271 21.70755737 10.62423706 22.70794678 C10.61305292 25.80542385 10.58795142 28.9026105 10.5625 32 C10.55246792 34.10155832 10.54334247 36.20312118 10.53515625 38.3046875 C10.51311934 43.45323669 10.47860145 48.60156913 10.4375 53.75 C7.1375 53.75 3.8375 53.75 0.4375 53.75 C-0.0575 51.77 -0.0575 51.77 -0.5625 49.75 C-0.995625 50.224375 -1.42875 50.69875 -1.875 51.1875 C-5.33912527 54.3950234 -9.38119715 53.97804673 -13.875 54.0625 C-15.17050781 54.09988281 -16.46601562 54.13726563 -17.80078125 54.17578125 C-23.2712458 53.55659056 -26.25212676 51.20203521 -29.875 47.1875 C-32.82417987 42.92757353 -33.08037585 38.79449435 -32.5625 33.75 C-30.70393173 28.48405656 -27.95935804 25.95604232 -23.5625 22.75 C-20.62118109 21.76956036 -18.73748335 21.63378798 -15.67578125 21.65234375 C-14.73798828 21.65556641 -13.80019531 21.65878906 -12.83398438 21.66210938 C-11.85751953 21.67048828 -10.88105469 21.67886719 -9.875 21.6875 C-8.88693359 21.69201172 -7.89886719 21.69652344 -6.88085938 21.70117188 C-4.44134526 21.71295697 -2.00195311 21.72940989 0.4375 21.75 C0.18195946 20.28890937 -0.09250372 18.83111904 -0.375 17.375 C-0.52582031 16.56289062 -0.67664062 15.75078125 -0.83203125 14.9140625 C-1.43794942 12.39179359 -1.43794942 12.39179359 -4.5625 10.75 C-7.85805649 10.43102827 -7.85805649 10.43102827 -11.5 10.5 C-12.72589844 10.49484375 -13.95179687 10.4896875 -15.21484375 10.484375 C-18.29991052 10.72916443 -19.98596294 11.12271344 -22.5625 12.75 C-24.8725 11.1 -27.1825 9.45 -29.5625 7.75 C-28.05614535 3.53220697 -25.32237578 1.9752326 -21.5625 -0.25 C-15.03520911 -2.42576363 -6.51104518 -2.29508106 0 0 Z " fill="#FAFAFA" transform="translate(1607.5625,1179.25)"/>
<path d="M0 0 C3.9323173 2.65202795 6.18648186 5.30944559 7.6875 9.8125 C7.96190237 14.29567896 8.00090089 18.78084522 8.03759766 23.27124023 C8.054101 24.74828917 8.08131704 26.22526009 8.11962891 27.7019043 C8.50058179 42.48453236 8.50058179 42.48453236 4.03662109 48.44067383 C0.5336722 52.00257571 -2.96657988 52.98168563 -7.8125 53.25 C-13.56499278 53.03730279 -16.73585323 50.47437092 -20.625 46.375 C-24.70835995 40.17434229 -23.53342172 32.01735308 -23.5625 24.875 C-23.583125 23.61236328 -23.60375 22.34972656 -23.625 21.04882812 C-23.63015625 19.82744141 -23.6353125 18.60605469 -23.640625 17.34765625 C-23.6499707 16.237854 -23.65931641 15.12805176 -23.66894531 13.98461914 C-22.97272842 7.78876565 -19.91339131 3.8382799 -15.3125 -0.1875 C-10.1060264 -1.9229912 -5.16315911 -1.85094383 0 0 Z " fill="#2D2D2D" transform="translate(1283.3125,1045.1875)"/>
<path d="M0 0 C4.42769195 2.47455838 7.46802749 5.81105499 9.75 10.375 C9.83918777 11.76409304 9.86759541 13.15736907 9.86352539 14.54931641 C9.86344986 15.41005768 9.86337433 16.27079895 9.86329651 17.15762329 C9.85813522 18.08787323 9.85297394 19.01812317 9.84765625 19.9765625 C9.8462413 20.92816254 9.84482635 21.87976257 9.84336853 22.86019897 C9.83776012 25.90683097 9.82520619 28.95339013 9.8125 32 C9.80748608 34.06249894 9.80292299 36.12499903 9.79882812 38.1875 C9.78778796 43.25002817 9.77051767 48.31250173 9.75 53.375 C6.45 53.375 3.15 53.375 -0.25 53.375 C-0.26458252 52.34616699 -0.27916504 51.31733398 -0.29418945 50.25732422 C-0.35238657 46.42153053 -0.42961703 42.58631078 -0.51245117 38.75097656 C-0.54560018 37.09449616 -0.57366309 35.43790554 -0.59643555 33.78125 C-0.63016732 31.39275366 -0.68248959 29.00525829 -0.73828125 26.6171875 C-0.74467117 25.88257294 -0.7510611 25.14795837 -0.75764465 24.39108276 C-0.89087344 19.67774576 -1.71998662 16.36347412 -4.25 12.375 C-7.93497796 9.91834803 -10.96971786 9.67413509 -15.25 10.375 C-18.0600346 12.16863911 -19.75940468 13.39380935 -21.25 16.375 C-21.40691907 19.14431368 -21.50843134 21.89234107 -21.56640625 24.6640625 C-21.58718735 25.48248627 -21.60796844 26.30091003 -21.62937927 27.14413452 C-21.69484812 29.76266966 -21.75374726 32.38130639 -21.8125 35 C-21.85568776 36.77344807 -21.89930214 38.54688581 -21.94335938 40.3203125 C-22.05052676 44.67177046 -22.15180169 49.02333077 -22.25 53.375 C-25.88 53.375 -29.51 53.375 -33.25 53.375 C-33.25 35.555 -33.25 17.735 -33.25 -0.625 C-29.62 -0.625 -25.99 -0.625 -22.25 -0.625 C-21.92 0.695 -21.59 2.015 -21.25 3.375 C-20.486875 2.735625 -19.72375 2.09625 -18.9375 1.4375 C-13.33963057 -2.85853933 -6.32511614 -2.89251042 0 0 Z " fill="#FDFDFD" transform="translate(1348.25,1055.625)"/>
<path d="M0 0 C3.63 0 7.26 0 11 0 C11.01458252 1.02883301 11.02916504 2.05766602 11.04418945 3.11767578 C11.10238657 6.95346947 11.17961703 10.78868922 11.26245117 14.62402344 C11.29560018 16.28050384 11.32366309 17.93709446 11.34643555 19.59375 C11.38016732 21.98224634 11.43248959 24.36974171 11.48828125 26.7578125 C11.49467117 27.49242706 11.5010611 28.22704163 11.50764465 28.98391724 C11.64066963 33.69004376 12.50012403 37.00249718 15 41 C17.47378124 42.23689062 19.17915317 42.13310087 21.9375 42.125 C22.81277344 42.12757812 23.68804688 42.13015625 24.58984375 42.1328125 C27.14459056 42.09822003 27.14459056 42.09822003 30 41 C31.73941181 35.66551131 32.31893316 30.6045861 32.4140625 25 C32.43342865 24.2788501 32.4527948 23.5577002 32.4727478 22.81469727 C32.53185263 20.54324647 32.57864775 18.27174305 32.625 16 C32.66324366 14.44659421 32.70229896 12.89320817 32.7421875 11.33984375 C32.83749566 7.56005901 32.92177632 3.78017532 33 0 C36.3 0 39.6 0 43 0 C43 17.82 43 35.64 43 54 C39.7 54 36.4 54 33 54 C32.67 52.35 32.34 50.7 32 49 C31.236875 49.639375 30.47375 50.27875 29.6875 50.9375 C24.390732 55.00246149 18.42593097 54.61280401 12 54 C6.28843314 51.24620884 2.49270069 46.80562425 0 41 C-0.24050903 38.96246338 -0.24050903 38.96246338 -0.22705078 36.78222656 C-0.22689972 35.96167786 -0.22674866 35.14112915 -0.22659302 34.29571533 C-0.21627045 33.41953552 -0.20594788 32.54335571 -0.1953125 31.640625 C-0.1924826 30.73624695 -0.18965271 29.8318689 -0.18673706 28.90008545 C-0.17555782 26.01658805 -0.15045733 23.13340325 -0.125 20.25 C-0.11496728 18.29297324 -0.10584194 16.33594161 -0.09765625 14.37890625 C-0.07562585 9.58581738 -0.04111144 4.79296166 0 0 Z " fill="#FCFCFC" transform="translate(1293,1179)"/>
<path d="M0 0 C17.49 0 34.98 0 53 0 C53 3.3 53 6.6 53 10 C46.4 10 39.8 10 33 10 C33 31.78 33 53.56 33 76 C29.04 76 25.08 76 21 76 C21 54.22 21 32.44 21 10 C14.07 10 7.14 10 0 10 C0 6.7 0 3.4 0 0 Z " fill="#FAFAFA" transform="translate(1243,1157)"/>
<path d="M0 0 C9.9 0 19.8 0 30 0 C30 9.9 30 19.8 30 30 C20.1 30 10.2 30 0 30 C0 20.1 0 10.2 0 0 Z " fill="#FCFCFC" transform="translate(1081,367)"/>
<path d="M0 0 C1.4540625 0.7425 1.4540625 0.7425 2.9375 1.5 C2.43227778 5.87859255 -0.24077222 8.31651224 -3.0625 11.5 C-3.743125 11.335 -4.42375 11.17 -5.125 11 C-10.06289802 10.15950672 -13.61382481 9.55521183 -17.9375 12.375 C-21.71726825 16.15476825 -21.27256216 19.70486038 -21.37890625 24.7890625 C-21.39968735 25.60748627 -21.42046844 26.42591003 -21.44187927 27.26913452 C-21.50734812 29.88766966 -21.56624726 32.50630639 -21.625 35.125 C-21.66818776 36.89844807 -21.71180214 38.67188581 -21.75585938 40.4453125 C-21.86302676 44.79677046 -21.96430169 49.14833077 -22.0625 53.5 C-25.6925 53.5 -29.3225 53.5 -33.0625 53.5 C-33.0625 35.68 -33.0625 17.86 -33.0625 -0.5 C-29.4325 -0.5 -25.8025 -0.5 -22.0625 -0.5 C-21.7325 0.82 -21.4025 2.14 -21.0625 3.5 C-20.299375 2.860625 -19.53625 2.22125 -18.75 1.5625 C-13.24907661 -2.65913888 -6.2729671 -2.70849088 0 0 Z " fill="#FCFCFC" transform="translate(1666.0625,1179.5)"/>
<path d="M0 0 C1.4540625 0.7425 1.4540625 0.7425 2.9375 1.5 C2.43227778 5.87859255 -0.24077222 8.31651224 -3.0625 11.5 C-3.743125 11.335 -4.42375 11.17 -5.125 11 C-10.06289802 10.15950672 -13.61382481 9.55521183 -17.9375 12.375 C-21.71726825 16.15476825 -21.27256216 19.70486038 -21.37890625 24.7890625 C-21.39968735 25.60748627 -21.42046844 26.42591003 -21.44187927 27.26913452 C-21.50734812 29.88766966 -21.56624726 32.50630639 -21.625 35.125 C-21.66818776 36.89844807 -21.71180214 38.67188581 -21.75585938 40.4453125 C-21.86302676 44.79677046 -21.96430169 49.14833077 -22.0625 53.5 C-25.6925 53.5 -29.3225 53.5 -33.0625 53.5 C-33.0625 35.68 -33.0625 17.86 -33.0625 -0.5 C-29.4325 -0.5 -25.8025 -0.5 -22.0625 -0.5 C-21.7325 0.82 -21.4025 2.14 -21.0625 3.5 C-20.299375 2.860625 -19.53625 2.22125 -18.75 1.5625 C-13.24907661 -2.65913888 -6.2729671 -2.70849088 0 0 Z " fill="#FCFCFC" transform="translate(1384.0625,1179.5)"/>
<path d="M0 0 C2.92928843 2.27833544 4.97413679 3.92335021 5.55322266 7.7578125 C5.69112949 10.2205084 5.70817827 12.65864599 5.6875 15.125 C5.7174707 16.38183594 5.7174707 16.38183594 5.74804688 17.6640625 C5.74373026 23.15480138 5.01525725 26.47520882 1.25 30.75 C-2.36426939 33.28142281 -5.40624879 32.94483802 -9.62890625 32.35546875 C-12.94158395 31.40986093 -14.08575493 29.67907132 -15.75 26.75 C-18.82227799 20.33731794 -19.13555583 12.13521277 -16.9921875 5.3515625 C-15.67171735 2.88737804 -14.12545792 1.04777697 -11.9375 -0.6875 C-7.62956193 -1.7952555 -4.07393996 -1.85179089 0 0 Z " fill="#303030" transform="translate(1473.75,1190.25)"/>
<path d="M0 0 C2.8100346 1.79363911 4.50940468 3.01880935 6 6 C6.26561432 9.2437143 6.23156725 12.49661931 6.25 15.75 C6.270625 16.64460938 6.29125 17.53921875 6.3125 18.4609375 C6.34354899 23.72374077 6.00797587 27.47343437 3 32 C0.56045342 33.21977329 -1.15305849 33.20153813 -3.875 33.25 C-4.73867187 33.27578125 -5.60234375 33.3015625 -6.4921875 33.328125 C-9.50748893 32.93359958 -10.80588743 32.07221743 -13 30 C-15.87980064 23.52044857 -15.74279525 15.95671679 -15 9 C-11.86301943 1.64282734 -8.34666565 -1.54015854 0 0 Z " fill="#2E2E2E" transform="translate(1700,1189)"/>
<path d="M0 0 C2.8100346 1.79363911 4.50940468 3.01880935 6 6 C6.26561432 9.2437143 6.23156725 12.49661931 6.25 15.75 C6.270625 16.64460938 6.29125 17.53921875 6.3125 18.4609375 C6.34354899 23.72374077 6.00797587 27.47343437 3 32 C0.56045342 33.21977329 -1.15305849 33.20153813 -3.875 33.25 C-4.73867187 33.27578125 -5.60234375 33.3015625 -6.4921875 33.328125 C-9.50748893 32.93359958 -10.80588743 32.07221743 -13 30 C-15.87980064 23.52044857 -15.74279525 15.95671679 -15 9 C-11.86301943 1.64282734 -8.34666565 -1.54015854 0 0 Z " fill="#2E2E2E" transform="translate(1419,1189)"/>
<path d="M0 0 C1.18239258 0.02707031 1.18239258 0.02707031 2.38867188 0.0546875 C4.32214261 0.10155952 6.25498285 0.1732959 8.1875 0.25 C8.29574843 1.8526782 8.37320645 3.45745748 8.4375 5.0625 C8.48390625 5.95582031 8.5303125 6.84914063 8.578125 7.76953125 C8.1875 10.25 8.1875 10.25 6.57421875 12.046875 C3.4973985 13.5978744 1.18819353 13.68352521 -2.25 13.6875 C-3.36246094 13.70683594 -4.47492188 13.72617188 -5.62109375 13.74609375 C-9.44610018 13.15150891 -11.09927414 11.96322586 -13.8125 9.25 C-14.4375 6.75 -14.4375 6.75 -13.8125 4.25 C-9.53305626 -0.35733825 -5.88388195 -0.25646426 0 0 Z " fill="#2E2E2E" transform="translate(1598.8125,1209.75)"/>
<path d="M0 0 C5.28 0 10.56 0 16 0 C16 5.28 16 10.56 16 16 C10.72 16 5.44 16 0 16 C0 10.72 0 5.44 0 0 Z " fill="#FFFFFF" transform="translate(1244,846)"/>
<path d="M0 0 C5.28 0 10.56 0 16 0 C16 5.28 16 10.56 16 16 C10.72 16 5.44 16 0 16 C0 10.72 0 5.44 0 0 Z " fill="#FBFBFB" transform="translate(1284,749)"/>
</svg>
