<svg width="1197" height="1360" viewBox="0 0 1197 1360" fill="none" xmlns="http://www.w3.org/2000/svg">
<g clip-path="url(#clip0_1_56)">
<path d="M107.796 1223.45L-1.32263 -1.32263H1198.32L1089.2 1222.79L597.507 1359.02" fill="#C6411F"/>
<path d="M598.5 1257.11V101.425H108.127L201.705 1146.34" fill="#FF3333"/>
<path d="M598.5 1254.87V99.1989H1088.87L995.295 1144.09" fill="#F16529"/>
<mask id="mask0_1_56" style="mask-type:alpha" maskUnits="userSpaceOnUse" x="91" y="136" width="1024" height="1085">
<path d="M627.353 1128.15C634.058 1128.19 637.991 1128.51 639.657 1128.71L640.428 1128.8L641.199 1128.88C660.703 1131 711.213 1136.4 760.651 1118.37L763.703 1117.26L766.711 1116.03C796.89 1103.72 831.004 1081.77 857.044 1044.74C883.394 1007.27 892.827 966.64 893.436 931.708C894.077 895.033 885.877 826.696 826.233 774.663C817.948 767.436 809.484 761.241 800.962 755.941C801 753.399 801.036 750.879 801.072 748.382C804.839 748.641 808.376 748.785 811.644 748.842C839.039 749.321 891.224 745.836 940.162 709.748C997.958 667.129 1017.34 605.189 1018.19 556.53C1018.49 539.542 1016.54 521.796 1015.02 509.85C1016.88 496.766 1019.11 485.312 1021.55 475.35C1028.53 447.564 1032.17 409.794 1020 368.328C1007.53 325.839 982.342 292.783 953.282 269.753C906.849 232.389 851.584 218.994 799.943 223.004L787.036 224.006L774.425 226.927C770.344 227.871 765.069 229.152 759 230.884C718.826 235.283 677.149 238.118 633.936 239.335L421.524 235.627C415.013 234.701 404.98 233.52 394.185 233.332L380.673 233.096L368.717 234.77C368.112 234.811 366.85 234.896 364.619 235.031C364.495 235.039 364.304 235.049 364.053 235.063C360.357 235.26 343.405 236.167 325.745 239.982C305.741 244.303 262.045 256.75 225.364 297.529C224.584 298.396 223.816 299.266 223.06 300.138L223.033 300.139L223.036 300.165C186.357 342.505 178.42 389.935 177.894 420.096C177.566 438.895 180.372 453.746 181.513 459.457C182.985 466.826 184.657 472.984 185.794 476.935C188.046 484.756 190.532 491.875 191.965 495.918C192.953 498.706 194.338 502.513 195.234 504.978C195.55 505.848 195.806 506.551 195.961 506.982C196.63 508.832 196.922 509.681 196.986 509.863L197.452 511.348C200.195 534.384 202.942 557.2 205.694 579.795L206.111 583.215L206.663 586.615C210.891 612.619 217.604 645.28 230.404 675.488C236.67 690.277 248.7 715.025 270.824 738.591C289.493 758.476 320.629 782.525 363.571 792.498C352.379 802.761 341.664 814.946 332.095 829.419L331.379 830.502L330.679 831.596C314.812 856.399 300.451 890.891 299.717 932.938C298.971 975.727 312.59 1012.4 330.417 1040.17C368.19 1099.04 425.032 1119.12 454.533 1126.36C486.512 1134.22 517.629 1134.87 541.691 1133.95L541.781 1133.95M627.353 1128.15C601.511 1130.87 572.82 1132.73 541.871 1133.94L541.781 1133.95M627.353 1128.15C627.353 1128.15 541.778 1133.94 541.781 1133.95M627.353 1128.15C627.353 1128.15 541.871 1133.94 541.781 1133.95M427.794 236.588C427.794 236.588 427.769 236.584 427.719 236.576M201.055 521.305C201.055 521.305 201.027 521.231 200.977 521.091C201.032 521.236 201.055 521.305 201.055 521.305Z" stroke="white" stroke-width="172.25"/>
</mask>
<g mask="url(#mask0_1_56)">
<path d="M599.289 419.448L401.591 415.997C399.773 415.965 396.749 415.609 392.517 414.929C388.286 414.249 385.261 413.893 383.443 413.861C360.351 417.095 342.716 412.228 342.381 431.408C342.286 436.863 349.989 455.105 353.434 466.076C357.496 476.453 359.491 483.762 359.417 488.004C362.587 514.732 365.763 541.156 368.944 567.278C376.061 611.048 385.376 633.034 396.89 633.235C411.434 633.489 419.089 629.076 419.854 619.996L422.1 595.485C421.322 570.617 417.198 529.021 409.73 470.696C444.314 468.875 462.819 467.986 465.243 468.028C516.722 470.745 551.865 471.662 570.673 470.778L573.352 473.552C567.915 541.957 565.657 619.207 566.579 705.303C567.36 764.724 566.556 810.78 564.167 843.473C563.36 854.976 562.824 868.303 562.56 883.454C563.081 888.312 563.294 893.469 563.199 898.923C563.019 909.225 553.536 914.212 534.75 913.884C498.996 913.26 476.76 919.54 468.043 932.724C463.057 940.518 462.925 948.093 467.646 955.45C474.728 966.485 494.647 971.379 527.403 970.132C554.905 969.056 578.867 967.475 599.289 965.389M599.289 419.448L627.027 419.932C682.822 418.481 736.841 414.574 789.085 408.212C792.753 406.457 798.239 404.734 805.542 403.043C818.29 402.053 829.145 405.274 838.108 412.705C847.082 419.529 849.943 429.278 846.691 441.952C841.472 463.077 837.434 486.042 834.577 510.846C833.854 517.502 834.312 525.997 835.95 536.33C837.557 548.482 838.318 556.982 838.233 561.83C837.958 577.587 827.518 585.285 806.914 584.925C793.582 584.693 784.864 580.6 780.759 572.648C780.386 559.305 781.006 541.13 782.62 518.123C784.308 490.874 785.231 472.704 785.39 463.614C784.784 463.603 783.886 462.982 782.695 461.748C726.294 463.189 673.204 465.899 623.427 469.88C622.077 477.737 621.908 487.433 622.919 498.968L625.984 531.756C623.232 550.5 621.534 578.355 620.888 615.322C622.431 631.11 622.161 698.696 620.077 818.079L618.919 884.437C618.739 894.74 620.127 902.038 623.083 906.333L679.442 907.317C702.523 904.689 713.868 914.586 713.477 937.008C713.244 950.34 706.717 959.622 693.895 964.854C685.964 967.747 672.016 968.11 652.049 965.943C639.95 964.519 625.714 963.967 609.341 964.288C606.092 964.669 602.741 965.036 599.289 965.389M599.289 419.448L599.289 965.389" stroke="white" stroke-width="344.499"/>
</g>
<mask id="mask1_1_56" style="mask-type:alpha" maskUnits="userSpaceOnUse" x="91" y="136" width="1024" height="1085">
<path d="M627.353 1128.15C634.058 1128.19 637.991 1128.51 639.657 1128.71L640.428 1128.8L641.199 1128.88C660.703 1131 711.213 1136.4 760.651 1118.37L763.703 1117.26L766.711 1116.03C796.89 1103.72 831.004 1081.77 857.044 1044.74C883.394 1007.27 892.827 966.64 893.436 931.708C894.077 895.033 885.877 826.696 826.233 774.663C817.948 767.436 809.484 761.241 800.962 755.941C801 753.399 801.036 750.879 801.072 748.382C804.839 748.641 808.376 748.785 811.644 748.842C839.039 749.321 891.224 745.836 940.162 709.748C997.958 667.129 1017.34 605.189 1018.19 556.53C1018.49 539.542 1016.54 521.796 1015.02 509.85C1016.88 496.766 1019.11 485.312 1021.55 475.35C1028.53 447.564 1032.17 409.794 1020 368.328C1007.53 325.839 982.342 292.783 953.282 269.753C906.849 232.389 851.584 218.994 799.943 223.004L787.036 224.006L774.425 226.927C770.344 227.871 765.069 229.152 759 230.884C718.826 235.283 677.149 238.118 633.936 239.335L421.524 235.627C415.013 234.701 404.98 233.52 394.185 233.332L380.673 233.096L368.717 234.77C368.112 234.811 366.85 234.896 364.619 235.031C364.495 235.039 364.304 235.049 364.053 235.063C360.357 235.26 343.405 236.167 325.745 239.982C305.741 244.303 262.045 256.75 225.364 297.529C224.584 298.396 223.816 299.266 223.06 300.138L223.033 300.139L223.036 300.165C186.357 342.505 178.42 389.935 177.894 420.096C177.566 438.895 180.372 453.746 181.513 459.457C182.985 466.826 184.657 472.984 185.794 476.935C188.046 484.756 190.532 491.875 191.965 495.918C192.953 498.706 194.338 502.513 195.234 504.978C195.55 505.848 195.806 506.551 195.961 506.982C196.63 508.832 196.922 509.681 196.986 509.863L197.452 511.348C200.195 534.384 202.942 557.2 205.694 579.795L206.111 583.215L206.663 586.615C210.891 612.619 217.604 645.28 230.404 675.488C236.67 690.277 248.7 715.025 270.824 738.591C289.493 758.476 320.629 782.525 363.571 792.498C352.379 802.761 341.664 814.946 332.095 829.419L331.379 830.502L330.679 831.596C314.812 856.399 300.451 890.891 299.717 932.938C298.971 975.727 312.59 1012.4 330.417 1040.17C368.19 1099.04 425.032 1119.12 454.533 1126.36C486.512 1134.22 517.629 1134.87 541.691 1133.95L541.781 1133.95M627.353 1128.15C601.511 1130.87 572.82 1132.73 541.871 1133.94L541.781 1133.95M627.353 1128.15C627.353 1128.15 541.778 1133.94 541.781 1133.95M627.353 1128.15C627.353 1128.15 541.871 1133.94 541.781 1133.95M427.794 236.588C427.794 236.588 427.769 236.584 427.719 236.576M201.055 521.305C201.055 521.305 201.027 521.231 200.977 521.091C201.032 521.236 201.055 521.305 201.055 521.305Z" stroke="white" stroke-width="172.25"/>
</mask>
<g mask="url(#mask1_1_56)">
<path d="M599.289 419.448L401.591 415.997C399.773 415.965 396.749 415.609 392.517 414.929C388.286 414.249 385.261 413.893 383.443 413.861C360.351 417.095 342.716 412.228 342.381 431.408C342.286 436.863 349.989 455.105 353.434 466.076C357.496 476.453 359.491 483.762 359.417 488.004C362.587 514.732 365.763 541.156 368.944 567.278C376.061 611.048 385.376 633.034 396.89 633.235C411.434 633.489 419.089 629.076 419.854 619.996L422.1 595.485C421.322 570.617 417.198 529.021 409.73 470.696C444.314 468.875 462.819 467.986 465.243 468.028C516.722 470.745 551.865 471.662 570.673 470.778L573.352 473.552C567.915 541.957 565.657 619.207 566.579 705.303C567.36 764.724 566.556 810.78 564.167 843.473C563.36 854.976 562.824 868.303 562.56 883.454C563.081 888.312 563.294 893.469 563.199 898.923C563.019 909.225 553.536 914.212 534.75 913.884C498.996 913.26 476.76 919.54 468.043 932.724C463.057 940.518 462.925 948.093 467.646 955.45C474.728 966.485 494.647 971.379 527.403 970.132C554.905 969.056 578.867 967.475 599.289 965.389M599.289 419.448L627.027 419.932C682.822 418.481 736.841 414.574 789.085 408.212C792.753 406.457 798.239 404.734 805.542 403.043C818.29 402.053 829.145 405.274 838.108 412.705C847.082 419.529 849.943 429.278 846.691 441.952C841.472 463.077 837.434 486.042 834.577 510.846C833.854 517.502 834.312 525.997 835.95 536.33C837.557 548.482 838.318 556.982 838.233 561.83C837.958 577.587 827.518 585.285 806.914 584.925C793.582 584.693 784.864 580.6 780.759 572.648C780.386 559.305 781.006 541.13 782.62 518.123C784.308 490.874 785.231 472.704 785.39 463.614C784.784 463.603 783.886 462.982 782.695 461.748C726.294 463.189 673.204 465.899 623.427 469.88C622.077 477.737 621.908 487.433 622.919 498.968L625.984 531.756C623.232 550.5 621.534 578.355 620.888 615.322C622.431 631.11 622.161 698.696 620.077 818.079L618.919 884.437C618.739 894.74 620.127 902.038 623.083 906.333L679.442 907.317C702.523 904.689 713.868 914.586 713.477 937.008C713.244 950.34 706.717 959.622 693.895 964.854C685.964 967.747 672.016 968.11 652.049 965.943C639.95 964.519 625.714 963.967 609.341 964.288C606.092 964.669 602.741 965.036 599.289 965.389M599.289 419.448L599.289 965.389" stroke="white" stroke-width="344.499"/>
</g>
<path d="M838.492 505.17C841.35 480.366 845.388 457.401 850.606 436.276C853.858 423.602 850.998 413.853 842.024 407.029C833.061 399.598 822.205 396.377 809.458 397.367C802.154 399.058 796.668 400.781 793.001 402.536C740.757 408.898 686.737 412.805 630.942 414.256L598.49 413.689L598.49 960.179C603.625 959.687 608.547 959.165 613.257 958.612C629.63 958.291 643.866 958.843 655.965 960.266C675.931 962.433 689.88 962.071 697.811 959.178C710.632 953.946 717.16 944.664 717.392 931.332C717.784 908.91 706.439 899.013 683.358 901.641L626.999 900.657C624.043 896.362 622.655 889.063 622.834 878.761L623.993 812.403C626.077 693.02 626.347 625.434 624.804 609.646C625.449 572.679 627.148 544.824 629.9 526.08L626.835 493.292C625.824 481.757 625.993 472.061 627.343 464.204C677.12 460.223 730.209 457.513 786.61 456.072C787.801 457.305 788.7 457.927 789.306 457.938C789.147 467.028 788.224 485.198 786.536 512.447C784.922 535.454 784.301 553.629 784.675 566.972C788.779 574.924 797.498 579.016 810.83 579.249C831.434 579.609 841.874 571.91 842.149 556.154C842.233 551.306 841.472 542.806 839.866 530.654C838.228 520.32 837.77 511.826 838.492 505.17Z" fill="white"/>
<path d="M471.562 949.773C478.644 960.808 498.563 965.703 531.319 964.456C552.4 963.631 581.568 961.593 598.49 960.174L598.49 413.683L500.044 411.971L405.507 410.321C403.689 410.289 400.664 409.933 396.433 409.253C392.201 408.573 389.177 408.217 387.359 408.185C364.267 411.419 352.589 420.611 352.324 435.762C352.229 441.216 353.904 449.429 357.35 460.4C361.412 470.776 363.406 478.086 363.332 482.328C366.503 509.055 369.679 535.48 372.86 561.602C379.976 605.372 389.292 627.358 400.806 627.559C415.35 627.813 423.005 623.4 423.769 614.32L426.016 589.809C425.237 564.941 421.114 523.345 413.645 465.02C448.23 463.199 466.734 462.31 469.158 462.352C520.637 465.069 555.781 465.985 574.588 465.101L577.268 467.876C571.83 536.281 569.572 613.531 570.494 699.627C571.276 759.047 570.472 805.104 568.083 837.797C567.276 849.3 566.74 862.627 566.475 877.778C566.997 882.636 567.21 887.793 567.115 893.247C566.935 903.549 557.452 908.536 538.666 908.208C502.911 907.584 480.675 913.864 471.959 927.048C466.973 934.841 466.841 942.417 471.562 949.773Z" fill="white"/>
</g>
<defs>
<clipPath id="clip0_1_56">
<rect width="1197" height="1359.03" fill="white"/>
</clipPath>
</defs>
</svg>
