<svg version="1.1" xmlns="http://www.w3.org/2000/svg" xmlns:xlink="http://www.w3.org/1999/xlink" width="299.86517" height="149.7547" viewBox="0,0,299.86517,149.7547"><g transform="translate(-90.04221,-105.62924)"><g data-paper-data="{&quot;isPaintingLayer&quot;:true}" fill-rule="nonzero" stroke-linejoin="miter" stroke-miterlimit="10" stroke-dasharray="" stroke-dashoffset="0" style="mix-blend-mode: normal"><path d="M90.398,105.62925h299.50939v149.7547l-299.81476,-0.22445z" fill="#7a7a7a" stroke="none" stroke-width="1" stroke-linecap="butt"/><path d="M389.68925,105.81606l-0.2,40.81784c0,0 -33.45051,-10.59168 -58.13916,-9.90937c-24.68864,0.68231 -53.03806,26.71775 -90.30742,27.27536c-37.26936,0.5576 -54.69252,-25.11504 -92.8455,-26.15164c-38.15298,-1.03659 -58.15496,8.78565 -58.15496,8.78565v-40.81783z" data-paper-data="{&quot;index&quot;:null}" fill="#939393" stroke="#a1bfff" stroke-width="0" stroke-linecap="butt"/><path d="M90.14222,255.09912v-59.66054c0,0 40.15549,-5.71046 65.80693,-4.26146c46.01783,2.59946 49.17968,15.83961 81.62261,16.15809c32.44293,0.31849 25.32144,-12.61061 93.87834,-14.43523c37.02029,-0.98528 58.36588,2.65196 58.36588,2.65196v59.77389z" fill="#555555" stroke="#a1bfff" stroke-width="0" stroke-linecap="butt"/><path d="M146.07858,239.52758l-1.52324,-5.95773h-7.33678l-1.33397,5.7234c-0.18628,0.95541 -1.66445,1.43311 -4.43451,1.43311c-1.47816,0 -2.57178,-0.08413 -3.28081,-0.25238c-0.70302,-0.16825 -1.05455,-0.30044 -1.05455,-0.39659l8.16599,-31.23986c0,-0.24636 2.10608,-0.36953 6.31828,-0.36953c4.2182,0 6.32729,0.12318 6.32729,0.36954l7.98573,31.28493c0,0.21633 -0.70905,0.38758 -2.12712,0.51376c-1.41207,0.12017 -2.53572,0.18027 -3.37095,0.18027c0,0 -4.11904,-0.42966 -4.33537,-1.28893zM138.37227,227.71124h4.84913l-2.08205,-9.55402h-0.2704zM165.0478,240.77139c-3.07652,-0.09013 -4.61478,-0.25837 -4.61478,-0.50474l-2.22136,-12.22604c-0.79918,0 -0.64486,-5.55706 -0.64486,-5.95364c0,-0.95541 0.18628,-1.9108 0.55883,-2.8662c0.55281,-1.35199 1.41209,-2.02797 2.57779,-2.02797c1.17172,0 2.21725,0.27641 3.13661,0.82922c0.92536,0.55281 1.54427,1.10563 1.85673,1.65843c1.93484,-1.65842 4.23923,-2.48766 6.91316,-2.48766c2.67994,0 4.61778,0.72407 5.81354,2.17219c1.20176,1.44212 1.80265,3.80959 1.80265,7.10243v13.84432c0,0.36654 -1.31592,0.54981 -3.94779,0.54981c-2.62585,0 -3.93878,-0.18328 -3.93878,-0.54981v-13.33958c0,-1.53826 -0.53779,-2.30739 -1.61337,-2.30739c-0.31245,0 -0.7451,0.13219 -1.29792,0.39658c-0.55281,0.25837 -0.90733,0.45065 -1.06356,0.57685v14.80873c0,0 -1.10563,0.32447 -3.31687,0.32447zM192.59331,240.44693c0,0.24636 -1.40907,0.36954 -4.2272,0.36954c-2.81214,0 -4.21819,-0.10815 -4.21819,-0.32448v-22.65925c0,-0.21031 1.40605,-0.31547 4.21819,-0.31547c2.81813,0 4.22721,0.09013 4.22721,0.2704zM192.59331,215.06568c0,0.21633 -1.40907,0.32448 -4.2272,0.32448c-2.81214,0 -4.21819,-0.09313 -4.21819,-0.2794v-6.64275c0,-0.30645 1.40605,-0.45967 4.21819,-0.45967c2.81813,0 4.22721,0.09314 4.22721,0.27941zM217.65693,240.49199c0,0.21633 -1.31593,0.32448 -3.9478,0.32448c-2.63187,0 -3.94779,-0.13819 -3.94779,-0.4146v-13.42971c0,-1.53826 -0.50776,-2.30739 -1.52325,-2.30739c-0.52276,0 -1.2138,0.33951 -2.07304,1.01851v14.76367c0,0.30645 -1.31592,0.45968 -3.94779,0.45968c-2.63187,0 -3.94779,-0.16825 -3.94779,-0.50474v-15.08814h-1.15369c-1.01549,0 -1.52324,-1.06055 -1.52324,-3.18167c0,-0.95541 0.18628,-1.92583 0.55883,-2.91127c0.49273,-1.35199 1.2919,-2.02797 2.39753,-2.02797c1.10563,0 2.17219,0.29142 3.19969,0.87429c1.03351,0.58286 1.65842,1.13566 1.87475,1.65842c1.9108,-1.68848 4.02591,-2.5327 6.34532,-2.5327c2.32541,0 4.19416,0.72106 5.60623,2.16317c1.66446,-1.44212 3.66538,-2.16317 6.0028,-2.16317c5.07746,0 7.61619,3.09154 7.61619,9.27462v14.02459c0,0.21633 -1.31593,0.32448 -3.9478,0.32448c-2.63187,0 -3.94779,-0.13819 -3.94779,-0.4146v-13.42972c0,-1.53826 -0.50774,-2.30738 -1.52325,-2.30738c-0.55281,0 -1.25885,0.33949 -2.1181,1.0185zM236.0219,223.97075c-0.85926,-1.53826 -1.28889,-2.79109 -1.28889,-3.75851c0,-0.96742 0.26139,-1.58933 0.78415,-1.86573c1.74857,-0.76914 4.15211,-1.15369 7.21059,-1.15369c3.0645,0 5.22767,0.71505 6.48953,2.14516c1.26185,1.4301 1.89278,3.5452 1.89278,6.34531c0,0 2.84054,2.99951 3.13496,3.61841c0.29444,0.61289 0.10079,6.05879 0.10079,7.13438c0,1.07557 -0.2704,2.13612 -0.81119,3.18166c-0.54079,1.04554 -1.27087,1.5683 -2.19022,1.5683c-1.66446,0 -3.0044,-0.44467 -4.0199,-1.33397c-0.45668,-0.37254 -0.80819,-0.8202 -1.05455,-1.34297c-1.41807,1.78462 -3.62032,2.67692 -6.6067,2.67692c-2.24128,0 -4.13106,-0.79917 -5.66931,-2.39753c-1.53826,-1.59833 -2.3074,-3.49112 -2.3074,-5.67834c0,-5.01136 2.99841,-7.51704 8.99522,-7.51704h2.54174v-0.46868c0,-0.79918 -0.1322,-1.31293 -0.39659,-1.54126c-0.25837,-0.22833 -0.86527,-0.34251 -1.82066,-0.34251c-1.17172,0 -2.83316,0.24336 -4.98432,0.73008zM240.26713,234.01149c0.36654,0.35452 0.83523,0.53179 1.40606,0.53179c0.57083,0 1.0876,-0.23135 1.55028,-0.69402v-3.55121h-1.29791c-1.47215,0 -2.20823,0.72406 -2.20823,2.17219c0,0 0.18326,1.18673 0.5498,1.54125zM267.58657,240.44693c0,0.37254 -1.2919,0.55883 -3.87568,0.55883c-3.07652,-0.12617 -4.61478,-0.32747 -4.61478,-0.60388v-16.33196h-2.35245c-0.61892,0 -0.92835,-1.06356 -0.92835,-3.19069c0,-0.55281 0.05408,-1.22881 0.16223,-2.02797c0.10816,-0.79918 0.3335,-1.19875 0.67601,-1.19875h2.44258v-4.06497c0,-0.61289 1.29792,-0.91935 3.89372,-0.91935c2.60182,0 3.90274,0.24636 3.90274,0.73909v2.95633l0.04507,1.28889h3.92978c0.52276,0 0.78415,1.0786 0.78415,3.23576c0,2.15115 -0.26138,3.22674 -0.78414,3.22674h-3.28082zM282.39673,240.44693c0,0.24636 -1.40907,0.36954 -4.2272,0.36954c-2.81213,0 -4.21819,-0.10815 -4.21819,-0.32448v-22.65925c0,-0.21031 1.40605,-0.31547 4.21819,-0.31547c2.81814,0 4.22721,0.09013 4.22721,0.2704zM282.39673,215.06568c0,0.21633 -1.40907,0.32448 -4.2272,0.32448c-2.81213,0 -4.21819,-0.09313 -4.21819,-0.2794v-6.64275c0,-0.30645 1.40605,-0.45967 4.21819,-0.45967c2.81814,0 4.22721,0.09314 4.22721,0.27941zM288.55962,238.00434c-1.92282,-2.1211 -2.88424,-5.05942 -2.88424,-8.81493c0,-3.75552 0.96143,-6.69383 2.88424,-8.81494c1.92282,-2.1211 4.51564,-3.18167 7.77843,-3.18167c3.26279,0 5.84659,1.06056 7.75137,3.18167c1.9048,2.12111 2.85719,5.05943 2.85719,8.81494c0,3.75552 -0.9524,6.69382 -2.85719,8.81493c-1.9048,2.12111 -4.48859,3.18168 -7.75137,3.18168c-3.26279,0 -5.8556,-1.06055 -7.77842,-3.18167zM296.35607,224.89911c-1.73656,0 -2.60482,1.41509 -2.60482,4.24524c0,2.83014 0.86828,4.24522 2.60482,4.24522c1.74255,0 2.61383,-1.41509 2.61383,-4.24522c0,-2.83014 -0.87128,-4.24522 -2.61383,-4.24522zM319.86761,240.44693c0,0.21633 -1.10563,0.32448 -3.31688,0.32448c-3.07652,-0.09013 -4.61478,-0.25837 -4.61478,-0.50475v-14.95293h-1.19876c-0.79918,0 -1.32194,-0.676 -1.56829,-2.02797c-0.0661,-0.40258 -0.09914,-0.80218 -0.09914,-1.19876c0,-0.95541 0.18628,-1.9108 0.55883,-2.8662c0.55281,-1.35199 1.41208,-2.02797 2.57779,-2.02797c1.17173,0 2.21725,0.27641 3.1366,0.82922c0.92536,0.55281 1.54427,1.10563 1.85673,1.65844c1.93484,-1.65842 4.23922,-2.48766 6.91315,-2.48766c2.67994,0 4.6178,0.72407 5.81355,2.17219c1.20177,1.44212 1.80265,3.80959 1.80265,7.10243v13.84432c0,0.36654 -1.31593,0.54981 -3.9478,0.54981c-2.62585,0 -3.93877,-0.18328 -3.93877,-0.54981v-13.33958c0,-1.53826 -0.5378,-2.30738 -1.61337,-2.30738c-0.31245,0 -0.74508,0.13219 -1.29789,0.39658c-0.55281,0.25837 -0.90734,0.45066 -1.06356,0.57685zM341.51845,231.91141c-3.84564,-1.5683 -5.76846,-4.13707 -5.76846,-7.70631c0,-2.27735 0.82922,-4.01388 2.48764,-5.20965c1.66445,-1.20176 3.65638,-1.80265 5.97579,-1.80265c2.3254,0 4.2933,0.24636 5.90366,0.73909c1.61638,0.49273 2.42457,1.13868 2.42457,1.93786c0,0.67299 -0.33049,1.5653 -0.99146,2.67692c-0.66096,1.10563 -1.11464,1.7035 -1.36099,1.79364c-1.32195,-0.73308 -2.75203,-1.09961 -4.29029,-1.09961c-0.82922,0 -1.24384,0.29142 -1.24384,0.87428c0,0.36654 0.15924,0.682 0.47771,0.94638c0.32448,0.25837 0.91635,0.57985 1.77561,0.96443c0.86527,0.38457 1.58031,0.73308 2.14515,1.04554c0.57083,0.30645 1.21078,0.73607 1.91982,1.28889c1.47816,1.1657 2.21725,2.68895 2.21725,4.5697c0,2.45762 -0.8172,4.44952 -2.4516,5.97576c-1.62839,1.52023 -4.089,2.28035 -7.38182,2.28035c-2.1812,0 -4.16412,-0.36953 -5.94873,-1.10863c-1.78461,-0.73909 -2.67692,-1.75457 -2.67692,-3.04645c0,-0.85926 0.20729,-1.76358 0.62191,-2.71299c0.41462,-0.95541 0.83824,-1.58933 1.27087,-1.90179c0,0 4.46152,2.26227 5.90363,2.26227c0,0 0.58884,-2.02794 -1.0095,-2.76703z" fill="none" stroke-opacity="0.50196" stroke="#000000" stroke-width="7.5" stroke-linecap="square"/><path d="M150.41395,240.81647c-2.67393,0 -4.11904,-0.42962 -4.33537,-1.28889l-1.52324,-5.95773h-7.33678l-1.33397,5.7234c-0.18628,0.95541 -1.66445,1.43311 -4.43451,1.43311c-1.47816,0 -2.57178,-0.08413 -3.28081,-0.25238c-0.70302,-0.16825 -1.05455,-0.30044 -1.05455,-0.39659l8.16599,-31.23986c0,-0.24636 2.10608,-0.36953 6.31828,-0.36953c4.2182,0 6.32729,0.12318 6.32729,0.36954l7.98573,31.28493c0,0.21633 -0.70905,0.38758 -2.12712,0.51376c-1.41207,0.12017 -2.53572,0.18027 -3.37095,0.18027zM138.37227,227.71124h4.84913l-2.08205,-9.55402h-0.2704zM168.36468,240.44693c0,0.21633 -1.10563,0.32448 -3.31687,0.32448c-3.07652,-0.09013 -4.61478,-0.25837 -4.61478,-0.50475v-14.95293h-1.19876c-0.79918,0 -1.32194,-0.676 -1.5683,-2.02797c-0.06609,-0.40258 -0.09914,-0.80218 -0.09914,-1.19876c0,-0.95541 0.18628,-1.9108 0.55883,-2.8662c0.55281,-1.35199 1.41208,-2.02797 2.57778,-2.02797c1.17172,0 2.21725,0.27641 3.13661,0.82922c0.92536,0.55281 1.54427,1.10563 1.85674,1.65844c1.93484,-1.65842 4.23923,-2.48766 6.91316,-2.48766c2.67994,0 4.61778,0.72407 5.81354,2.17219c1.20176,1.44212 1.80265,3.80959 1.80265,7.10243v13.84432c0,0.36654 -1.31592,0.54981 -3.94779,0.54981c-2.62585,0 -3.93878,-0.18328 -3.93878,-0.54981v-13.33958c0,-1.53826 -0.53779,-2.30738 -1.61337,-2.30738c-0.31245,0 -0.7451,0.13219 -1.29792,0.39658c-0.55281,0.25837 -0.90733,0.45066 -1.06356,0.57685v14.80873zM192.59331,240.44693c0,0.24636 -1.40907,0.36954 -4.2272,0.36954c-2.81214,0 -4.21819,-0.10815 -4.21819,-0.32448v-22.65925c0,-0.21031 1.40605,-0.31547 4.21819,-0.31547c2.81813,0 4.22721,0.09013 4.22721,0.2704zM192.59331,215.06568c0,0.21633 -1.40907,0.32448 -4.2272,0.32448c-2.81214,0 -4.21819,-0.09313 -4.21819,-0.2794v-6.64275c0,-0.30645 1.40605,-0.45967 4.21819,-0.45967c2.81813,0 4.22721,0.09314 4.22721,0.27941zM217.65693,240.49199c0,0.21633 -1.31593,0.32448 -3.9478,0.32448c-2.63187,0 -3.94779,-0.13819 -3.94779,-0.4146v-13.42971c0,-1.53826 -0.50776,-2.30739 -1.52325,-2.30739c-0.52276,0 -1.2138,0.33951 -2.07304,1.01851v14.76367c0,0.30645 -1.31592,0.45968 -3.94779,0.45968c-2.63187,0 -3.94779,-0.16825 -3.94779,-0.50474v-15.08814h-1.15369c-1.01549,0 -1.52324,-1.06055 -1.52324,-3.18167c0,-0.95541 0.18628,-1.92583 0.55883,-2.91127c0.49273,-1.35199 1.2919,-2.02797 2.39753,-2.02797c1.10563,0 2.17219,0.29142 3.19969,0.87429c1.03351,0.58286 1.65842,1.13566 1.87475,1.65842c1.9108,-1.68848 4.02591,-2.5327 6.34532,-2.5327c2.32541,0 4.19416,0.72106 5.60623,2.16317c1.66446,-1.44212 3.66538,-2.16317 6.0028,-2.16317c5.07746,0 7.61619,3.09154 7.61619,9.27462v14.02459c0,0.21633 -1.31593,0.32448 -3.9478,0.32448c-2.63187,0 -3.94779,-0.13819 -3.94779,-0.4146v-13.42972c0,-1.53826 -0.50774,-2.30738 -1.52325,-2.30738c-0.55281,0 -1.25885,0.33949 -2.1181,1.0185zM236.0219,223.97075c-0.85926,-1.53826 -1.28889,-2.79109 -1.28889,-3.75851c0,-0.96742 0.26139,-1.58933 0.78415,-1.86573c1.74857,-0.76914 4.15211,-1.15369 7.21059,-1.15369c3.0645,0 5.22767,0.71505 6.48953,2.14516c1.26185,1.4301 1.89278,3.5452 1.89278,6.34531v7.29171h1.5683c0.52276,0 0.93135,0.30945 1.22579,0.92837c0.29444,0.61289 0.44165,1.45714 0.44165,2.53273c0,1.07557 -0.2704,2.13612 -0.81119,3.18166c-0.54079,1.04554 -1.27087,1.5683 -2.19022,1.5683c-1.66446,0 -3.0044,-0.44467 -4.0199,-1.33397c-0.45668,-0.37254 -0.80819,-0.8202 -1.05455,-1.34297c-1.41807,1.78462 -3.62032,2.67693 -6.6067,2.67693c-2.24128,0 -4.13106,-0.79917 -5.66931,-2.39753c-1.53826,-1.59833 -2.3074,-3.49112 -2.3074,-5.67834c0,-5.01136 2.99841,-7.51704 8.99522,-7.51704h2.54174v-0.46867c0,-0.79918 -0.1322,-1.31293 -0.39659,-1.54126c-0.25837,-0.22833 -0.86527,-0.34251 -1.82066,-0.34251c-1.17172,0 -2.83316,0.24336 -4.98432,0.73007zM239.71732,232.47023c0,0.67299 0.18327,1.18674 0.54981,1.54127c0.36654,0.35452 0.83523,0.53179 1.40606,0.53179c0.57083,0 1.0876,-0.23135 1.55028,-0.69402v-3.55121h-1.29791c-1.47215,0 -2.20823,0.72406 -2.20823,2.17219zM267.58657,240.44693c0,0.37254 -1.2919,0.55883 -3.87568,0.55883c-3.07652,-0.12617 -4.61478,-0.32747 -4.61478,-0.60388v-16.33196h-2.35245c-0.61892,0 -0.92835,-1.06356 -0.92835,-3.19069c0,-0.55281 0.05408,-1.22881 0.16223,-2.02797c0.10816,-0.79918 0.3335,-1.19875 0.67601,-1.19875h2.44258v-4.06497c0,-0.61289 1.29792,-0.91935 3.89372,-0.91935c2.60182,0 3.90274,0.24636 3.90274,0.73909v2.95633l0.04507,1.28889h3.92978c0.52276,0 0.78415,1.0786 0.78415,3.23576c0,2.15115 -0.26138,3.22674 -0.78414,3.22674h-3.28082zM282.39673,240.44693c0,0.24636 -1.40907,0.36954 -4.2272,0.36954c-2.81213,0 -4.21819,-0.10815 -4.21819,-0.32448v-22.65925c0,-0.21031 1.40605,-0.31547 4.21819,-0.31547c2.81814,0 4.22721,0.09013 4.22721,0.2704zM282.39673,215.06568c0,0.21633 -1.40907,0.32448 -4.2272,0.32448c-2.81213,0 -4.21819,-0.09313 -4.21819,-0.2794v-6.64275c0,-0.30645 1.40605,-0.45967 4.21819,-0.45967c2.81814,0 4.22721,0.09314 4.22721,0.27941zM288.55962,238.00434c-1.92282,-2.1211 -2.88424,-5.05942 -2.88424,-8.81493c0,-3.75552 0.96143,-6.69383 2.88424,-8.81494c1.92282,-2.1211 4.51564,-3.18167 7.77843,-3.18167c3.26279,0 5.84659,1.06056 7.75137,3.18167c1.9048,2.12111 2.85719,5.05943 2.85719,8.81494c0,3.75552 -0.9524,6.69382 -2.85719,8.81493c-1.9048,2.12111 -4.48859,3.18168 -7.75137,3.18168c-3.26279,0 -5.8556,-1.06055 -7.77842,-3.18167zM296.35607,224.89911c-1.73656,0 -2.60482,1.41509 -2.60482,4.24524c0,2.83014 0.86828,4.24522 2.60482,4.24522c1.74255,0 2.61383,-1.41509 2.61383,-4.24522c0,-2.83014 -0.87128,-4.24522 -2.61383,-4.24522zM319.86761,240.44693c0,0.21633 -1.10563,0.32448 -3.31688,0.32448c-3.07652,-0.09013 -4.61478,-0.25837 -4.61478,-0.50475v-14.95293h-1.19876c-0.79918,0 -1.32194,-0.676 -1.56829,-2.02797c-0.0661,-0.40258 -0.09914,-0.80218 -0.09914,-1.19876c0,-0.95541 0.18628,-1.9108 0.55883,-2.8662c0.55281,-1.35199 1.41208,-2.02797 2.57779,-2.02797c1.17173,0 2.21725,0.27641 3.1366,0.82922c0.92536,0.55281 1.54427,1.10563 1.85673,1.65844c1.93484,-1.65842 4.23922,-2.48766 6.91315,-2.48766c2.67994,0 4.6178,0.72407 5.81355,2.17219c1.20177,1.44212 1.80265,3.80959 1.80265,7.10243v13.84432c0,0.36654 -1.31593,0.54981 -3.9478,0.54981c-2.62585,0 -3.93877,-0.18328 -3.93877,-0.54981v-13.33958c0,-1.53826 -0.5378,-2.30738 -1.61337,-2.30738c-0.31245,0 -0.74508,0.13219 -1.29789,0.39658c-0.55281,0.25837 -0.90734,0.45066 -1.06356,0.57685zM342.52793,234.67847c0.92536,0 1.38804,-0.32147 1.38804,-0.9644c0,-0.46267 -0.79918,-1.06356 -2.39753,-1.80265c-3.84564,-1.5683 -5.76846,-4.13707 -5.76846,-7.70631c0,-2.27735 0.82922,-4.01388 2.48764,-5.20965c1.66445,-1.20176 3.65638,-1.80265 5.97579,-1.80265c2.3254,0 4.2933,0.24636 5.90366,0.73909c1.61638,0.49273 2.42457,1.13868 2.42457,1.93786c0,0.67299 -0.33049,1.5653 -0.99146,2.67692c-0.66096,1.10563 -1.11464,1.7035 -1.36099,1.79364c-1.32195,-0.73308 -2.75203,-1.09961 -4.29029,-1.09961c-0.82922,0 -1.24384,0.29142 -1.24384,0.87428c0,0.36654 0.15924,0.682 0.47771,0.94638c0.32448,0.25837 0.91635,0.57985 1.77561,0.96443c0.86527,0.38457 1.58031,0.73308 2.14515,1.04554c0.57083,0.30645 1.21078,0.73607 1.91982,1.28889c1.47816,1.1657 2.21725,2.68895 2.21725,4.5697c0,2.45762 -0.8172,4.44952 -2.4516,5.97576c-1.62839,1.52023 -4.089,2.28035 -7.38182,2.28035c-2.1812,0 -4.16412,-0.36953 -5.94873,-1.10863c-1.78461,-0.73909 -2.67692,-1.75457 -2.67692,-3.04645c0,-0.85926 0.20729,-1.76358 0.62191,-2.71299c0.41462,-0.95541 0.83824,-1.58933 1.27087,-1.90179c0,0 4.46152,2.26227 5.90363,2.26227z" fill="#ffffff" stroke="none" stroke-width="1" stroke-linecap="square"/><path d="M198.81815,161.1617c0,-22.82844 18.5061,-41.33453 41.33453,-41.33453c22.82844,0 41.33453,18.5061 41.33453,41.33453c0,22.82844 -18.5061,41.33452 -41.33453,41.33452c-22.82844,0 -41.33453,-18.50609 -41.33453,-41.33452z" fill-opacity="0.50196" fill="#000000" stroke="none" stroke-width="0" stroke-linecap="butt"/><path d="M201.78039,161.1617c0,-21.19243 17.17986,-38.37229 38.37229,-38.37229c21.19243,0 38.37229,17.17986 38.37229,38.37229c0,21.19243 -17.17987,38.37229 -38.37229,38.37229c-21.19243,0 -38.37229,-17.17985 -38.37229,-38.37229z" fill="#ffffff" stroke="none" stroke-width="0" stroke-linecap="butt"/><path d="M204.74263,161.1617c0,-19.55642 15.85361,-35.41005 35.41004,-35.41005c19.55642,0 35.41005,15.85362 35.41005,35.41005c0,19.55642 -15.85362,35.41004 -35.41005,35.41004c-19.55642,0 -35.41004,-15.85361 -35.41004,-35.41004z" fill="#444444" stroke="none" stroke-width="0" stroke-linecap="butt"/><path d="M208.00535,161.1617c0,-17.75448 14.39285,-32.14733 32.14732,-32.14733c17.75448,0 32.14733,14.39285 32.14733,32.14733c0,17.75448 -14.39285,32.14733 -32.14733,32.14733c-17.75448,0 -32.14732,-14.39285 -32.14732,-32.14733z" fill="#7a7a7a" stroke="none" stroke-width="0" stroke-linecap="butt"/><path d="M217.90308,176.03253c-3.11739,-4.51258 -1.98638,-10.6979 2.5262,-13.8153c4.51258,-3.11739 10.6979,-1.98638 13.8153,2.5262c3.11739,4.51258 1.98638,10.6979 -2.5262,13.8153c-4.51258,3.11739 -10.6979,1.98638 -13.8153,-2.5262z" fill="#898989" stroke="#7a7a7a" stroke-width="1.75" stroke-linecap="butt"/><path d="M220.35515,170.37529c-3.5161,-5.08972 -2.24042,-12.06612 2.84929,-15.58221c5.08972,-3.5161 12.06611,-2.24042 15.5822,2.84929c3.5161,5.08972 2.24042,12.06611 -2.84929,15.5822c-5.08972,3.5161 -12.06611,2.24043 -15.58221,-2.84928z" fill="#9d9d9d" stroke="#7a7a7a" stroke-width="1.75" stroke-linecap="butt"/><path d="M224.81785,166.47837c-4.11898,-5.96241 -2.62457,-14.13498 3.33784,-18.25395c5.96241,-4.11898 14.13498,-2.62457 18.25396,3.33783c4.11898,5.96241 2.62457,14.13498 -3.33783,18.25396c-5.96241,4.11898 -14.13498,2.62457 -18.25396,-3.33783z" fill="#aeaeae" stroke="#7a7a7a" stroke-width="1.75" stroke-linecap="butt"/><path d="M231.01949,164.36968c-4.46222,-6.45927 -2.84329,-15.31289 3.61598,-19.77511c6.45927,-4.46222 15.31289,-2.84329 19.77512,3.61598c4.46222,6.45927 2.84329,15.31289 -3.61598,19.77512c-6.45927,4.46222 -15.31289,2.84329 -19.77511,-3.61598z" fill="#bababa" stroke="#7a7a7a" stroke-width="1.75" stroke-linecap="butt"/><path d="M235.68877,166.50456c-4.90355,-7.0981 -3.12449,-16.82736 3.9736,-21.7309c7.0981,-4.90355 16.82736,-3.12449 21.73089,3.9736c4.90355,7.0981 3.1245,16.82736 -3.9736,21.7309c-7.0981,4.90355 -16.82736,3.12449 -21.7309,-3.9736z" fill="#ffffff" stroke="none" stroke-width="0" stroke-linecap="butt"/><path d="M155.42173,168.06415l12.78725,-1.28037l7.20739,11.54556" fill="none" stroke="#444444" stroke-width="10" stroke-linecap="round"/><path d="M174.12749,157.96869l-10.63353,2.26069l-8.94079,-10.2313" fill="none" stroke="#444444" stroke-width="10" stroke-linecap="round"/><path d="M140.50979,170.39166c0,-6.20087 0,-20.04522 0,-23.17854c0,-1.22934 0.88917,-2.40192 1.74139,-2.40192c1.73202,0 8.10655,0 11.34908,0c1.16181,0 1.92155,1.75522 1.92155,3.42273c0,3.53686 0,16.94467 0,22.63812c0,1.59298 -1.17551,2.58206 -2.10168,2.58206c-1.73302,0 -7.61633,0 -10.80865,0c-1.26067,0 -2.10168,-1.22189 -2.10168,-3.06245z" fill-opacity="0.25098" fill="#000000" stroke="#a1bfff" stroke-width="0" stroke-linecap="butt"/><path d="M137.69542,135.14092c0,-6.0741 4.92404,-10.99814 10.99813,-10.99814c6.0741,0 10.99814,4.92405 10.99814,10.99814c0,6.0741 -4.92403,10.99814 -10.99814,10.99814c-6.0741,0 -10.99813,-4.92405 -10.99813,-10.99814z" fill-opacity="0.25098" fill="#000000" stroke="none" stroke-width="0" stroke-linecap="butt"/><path d="M130.05651,167.96779l1.64221,-10.74643l12.73038,-4.74915" fill="none" stroke="#444444" stroke-width="10" stroke-linecap="round"/><path d="M142.5596,171.10329l-7.86645,10.16227l-13.33796,-2.71024" fill="none" stroke="#444444" stroke-width="10" stroke-linecap="round"/><g><path d="M154.02946,170.42419l12.0471,4.47436l1.3947,13.53888" fill="none" stroke="#b1b1b1" stroke-width="7.5" stroke-linecap="round"/><path d="M169.56951,163.1263l-10.78254,-1.38538l-5.05148,-12.61347" fill="none" stroke="#b1b1b1" stroke-width="7.5" stroke-linecap="round"/><path d="M140.50347,170.52879c0,-6.20086 0,-20.04521 0,-23.17854c0,-1.22934 0.88916,-2.40192 1.74138,-2.40192c1.73201,0 8.10655,0 11.34909,0c1.16181,0 1.92154,1.75522 1.92154,3.42273c0,3.53686 0,16.94465 0,22.6381c0,1.59298 -1.1755,2.58207 -2.10168,2.58207c-1.73302,0 -7.61633,0 -10.80865,0c-1.26067,0 -2.10168,-1.2219 -2.10168,-3.06245z" fill="#ffffff" stroke="#a1bfff" stroke-width="0" stroke-linecap="butt"/><path d="M137.68908,135.27805c0,-6.0741 4.92404,-10.99813 10.99815,-10.99813c6.0741,0 10.99814,4.92405 10.99814,10.99814c0,6.0741 -4.92404,10.99814 -10.99814,10.99814c-6.0741,0 -10.99815,-4.92405 -10.99815,-10.99814z" fill="#ffffff" stroke="none" stroke-width="0" stroke-linecap="butt"/><path d="M127.03097,164.82451l1.38538,-10.78254l12.61347,-5.05147" fill="none" stroke="#ffffff" stroke-width="7.5" stroke-linecap="round"/><path d="M142.96002,173.01792l-4.47437,12.0471l-13.53888,1.3947" fill="none" stroke="#ffffff" stroke-width="7.5" stroke-linecap="round"/></g><path d="M339.06898,168.06415l12.78724,-1.28037l7.20739,11.54556" fill="none" stroke="#444444" stroke-width="10" stroke-linecap="round"/><path d="M357.77474,157.96869l-10.63353,2.26069l-8.94079,-10.2313" fill="none" stroke="#444444" stroke-width="10" stroke-linecap="round"/><path d="M324.15704,170.39166c0,-6.20087 0,-20.04522 0,-23.17854c0,-1.22934 0.88917,-2.40192 1.7414,-2.40192c1.73201,0 8.10654,0 11.34908,0c1.16181,0 1.92155,1.75522 1.92155,3.42273c0,3.53686 0,16.94467 0,22.63812c0,1.59298 -1.1755,2.58206 -2.10168,2.58206c-1.73302,0 -7.61633,0 -10.80865,0c-1.26067,0 -2.10168,-1.22189 -2.10168,-3.06245z" fill-opacity="0.25098" fill="#000000" stroke="#a1bfff" stroke-width="0" stroke-linecap="butt"/><path d="M321.34266,135.14092c0,-6.0741 4.92403,-10.99814 10.99814,-10.99814c6.07411,0 10.99815,4.92405 10.99815,10.99814c0,6.0741 -4.92404,10.99814 -10.99815,10.99814c-6.07411,0 -10.99814,-4.92405 -10.99814,-10.99814z" fill-opacity="0.25098" fill="#000000" stroke="none" stroke-width="0" stroke-linecap="butt"/><path d="M313.70376,167.96779l1.6422,-10.74643l12.73039,-4.74915" fill="none" stroke="#444444" stroke-width="10" stroke-linecap="round"/><path d="M326.20685,171.10329l-7.86645,10.16227l-13.33795,-2.71024" fill="none" stroke="#444444" stroke-width="10" stroke-linecap="round"/><g><path d="M337.67671,170.42419l12.04711,4.47436l1.3947,13.53888" fill="none" stroke="#b1b1b1" stroke-width="7.5" stroke-linecap="round"/><path d="M353.21675,163.1263l-10.78254,-1.38538l-5.05147,-12.61347" fill="none" stroke="#b1b1b1" stroke-width="7.5" stroke-linecap="round"/><path d="M324.15071,170.52879c0,-6.20086 0,-20.04521 0,-23.17854c0,-1.22934 0.88917,-2.40192 1.7414,-2.40192c1.73201,0 8.10654,0 11.34907,0c1.16181,0 1.92154,1.75522 1.92154,3.42273c0,3.53686 0,16.94465 0,22.6381c0,1.59298 -1.1755,2.58207 -2.10168,2.58207c-1.73302,0 -7.61632,0 -10.80864,0c-1.26067,0 -2.10168,-1.2219 -2.10168,-3.06245z" fill="#ffffff" stroke="#a1bfff" stroke-width="0" stroke-linecap="butt"/><path d="M321.33633,135.27805c0,-6.0741 4.92404,-10.99813 10.99815,-10.99813c6.0741,0 10.99814,4.92405 10.99814,10.99814c0,6.0741 -4.92404,10.99814 -10.99814,10.99814c-6.0741,0 -10.99815,-4.92405 -10.99815,-10.99814z" fill="#ffffff" stroke="none" stroke-width="0" stroke-linecap="butt"/><path d="M310.67822,164.82451l1.38538,-10.78254l12.61347,-5.05147" fill="none" stroke="#ffffff" stroke-width="7.5" stroke-linecap="round"/><path d="M326.60727,173.01792l-4.47437,12.0471l-13.53888,1.3947" fill="none" stroke="#ffffff" stroke-width="7.5" stroke-linecap="round"/></g></g></g></svg>
