<?xml version="1.0" encoding="UTF-8"?>
<svg xmlns="http://www.w3.org/2000/svg" xmlns:xlink="http://www.w3.org/1999/xlink" width="600px" height="300px" viewBox="0 0 600 300" version="1.1">
<g id="surface1">
<path style=" stroke:none;fill-rule:nonzero;fill:rgb(58.039216%,0%,100%);fill-opacity:1;" d="M 2 299.191406 L 2.097656 0 L 598.992188 0.195312 L 598.992188 299.191406 Z M 2 299.191406 "/>
<path style=" stroke:none;fill-rule:nonzero;fill:rgb(52.941176%,0%,90.588235%);fill-opacity:1;" d="M 598.992188 0.195312 L 598.992188 37 L 580.433594 18.375 L 543.203125 55.730469 L 487.121094 55.730469 L 542.46875 0.195312 Z M 598.992188 0.195312 "/>
<path style=" stroke:none;fill-rule:nonzero;fill:rgb(52.941176%,0%,90.588235%);fill-opacity:1;" d="M 58.523438 0.195312 L 113.871094 55.730469 L 57.789062 55.730469 L 20.5625 18.375 L 2 37 L 2.03125 0.0351562 Z M 58.523438 0.195312 "/>
<path style=" stroke:none;fill-rule:nonzero;fill:rgb(52.941176%,0%,90.588235%);fill-opacity:1;" d="M 244.695312 55.730469 L 207.46875 18.375 L 170.238281 55.730469 L 114.15625 55.730469 L 169.503906 0.195312 L 245.429688 0.195312 L 300.777344 55.730469 Z M 244.695312 55.730469 "/>
<path style=" stroke:none;fill-rule:nonzero;fill:rgb(52.941176%,0%,90.588235%);fill-opacity:1;" d="M 430.753906 55.730469 L 393.527344 18.375 L 356.296875 55.730469 L 300.214844 55.730469 L 355.5625 0.195312 L 431.488281 0.195312 L 486.835938 55.730469 Z M 430.753906 55.730469 "/>
<path style=" stroke:none;fill-rule:nonzero;fill:rgb(52.941176%,0%,90.588235%);fill-opacity:1;" d="M 487.121094 149.511719 L 580.433594 55.886719 L 598.992188 74.511719 L 598.992188 130.78125 L 580.433594 112.15625 L 543.203125 149.511719 Z M 487.121094 149.511719 "/>
<path style=" stroke:none;fill-rule:nonzero;fill:rgb(52.941176%,0%,90.588235%);fill-opacity:1;" d="M 57.789062 149.511719 L 20.5625 112.15625 L 2 130.78125 L 2 74.511719 L 20.5625 55.886719 L 113.871094 149.511719 Z M 57.789062 149.511719 "/>
<path style=" stroke:none;fill-rule:nonzero;fill:rgb(52.941176%,0%,90.588235%);fill-opacity:1;" d="M 244.695312 149.511719 L 207.46875 112.15625 L 170.238281 149.511719 L 114.15625 149.511719 L 207.46875 55.886719 L 300.777344 149.511719 Z M 244.695312 149.511719 "/>
<path style=" stroke:none;fill-rule:nonzero;fill:rgb(52.941176%,0%,90.588235%);fill-opacity:1;" d="M 430.753906 149.511719 L 393.527344 112.15625 L 356.296875 149.511719 L 300.214844 149.511719 L 393.527344 55.886719 L 486.835938 149.511719 Z M 430.753906 149.511719 "/>
<path style=" stroke:none;fill-rule:nonzero;fill:rgb(52.941176%,0%,90.588235%);fill-opacity:1;" d="M 487.121094 243.292969 L 580.433594 149.667969 L 598.992188 168.292969 L 598.992188 224.5625 L 580.433594 205.9375 L 543.203125 243.292969 Z M 487.121094 243.292969 "/>
<path style=" stroke:none;fill-rule:nonzero;fill:rgb(52.941176%,0%,90.588235%);fill-opacity:1;" d="M 57.789062 243.292969 L 20.5625 205.9375 L 2 224.5625 L 2 168.292969 L 20.5625 149.667969 L 113.871094 243.292969 Z M 57.789062 243.292969 "/>
<path style=" stroke:none;fill-rule:nonzero;fill:rgb(52.941176%,0%,90.588235%);fill-opacity:1;" d="M 244.695312 243.292969 L 207.46875 205.9375 L 170.238281 243.292969 L 114.15625 243.292969 L 207.46875 149.667969 L 300.777344 243.292969 Z M 244.695312 243.292969 "/>
<path style=" stroke:none;fill-rule:nonzero;fill:rgb(52.941176%,0%,90.588235%);fill-opacity:1;" d="M 430.753906 243.292969 L 393.527344 205.9375 L 356.296875 243.292969 L 300.214844 243.292969 L 393.527344 149.667969 L 486.835938 243.292969 Z M 430.753906 243.292969 "/>
<path style=" stroke:none;fill-rule:nonzero;fill:rgb(52.941176%,0%,90.588235%);fill-opacity:1;" d="M 524.875 299.191406 L 580.433594 243.449219 L 598.992188 262.074219 L 598.808594 299 Z M 524.875 299.191406 "/>
<path style=" stroke:none;fill-rule:nonzero;fill:rgb(52.941176%,0%,90.588235%);fill-opacity:1;" d="M 2 299.191406 L 2 262.074219 L 20.5625 243.449219 L 76.121094 299.191406 Z M 2 299.191406 "/>
<path style=" stroke:none;fill-rule:nonzero;fill:rgb(52.941176%,0%,90.588235%);fill-opacity:1;" d="M 207.46875 243.449219 L 263.027344 299.191406 L 151.910156 299.191406 Z M 207.46875 243.449219 "/>
<path style=" stroke:none;fill-rule:nonzero;fill:rgb(52.941176%,0%,90.588235%);fill-opacity:1;" d="M 393.527344 243.449219 L 449.085938 299.191406 L 337.96875 299.191406 Z M 393.527344 243.449219 "/>
<path style=" stroke:none;fill-rule:nonzero;fill:rgb(52.941176%,0%,90.588235%);fill-opacity:1;" d="M 58.300781 148.796875 L 169.691406 148.796875 L 113.996094 204.679688 Z M 58.300781 148.796875 "/>
<path style=" stroke:none;fill-rule:nonzero;fill:rgb(52.941176%,0%,90.588235%);fill-opacity:1;" d="M 244.613281 148.796875 L 356.003906 148.796875 L 300.308594 204.679688 Z M 244.613281 148.796875 "/>
<path style=" stroke:none;fill-rule:nonzero;fill:rgb(52.941176%,0%,90.588235%);fill-opacity:1;" d="M 430.550781 148.796875 L 542.9375 148.796875 L 486.246094 204.679688 Z M 430.550781 148.796875 "/>
<path style=" stroke:none;fill-rule:nonzero;fill:rgb(52.941176%,0%,90.588235%);fill-opacity:1;" d="M 243.617188 241.960938 L 357 241.960938 L 300.308594 297.84375 Z M 243.617188 241.960938 "/>
<path style=" stroke:none;fill-rule:nonzero;fill:rgb(52.941176%,0%,90.588235%);fill-opacity:1;" d="M 429.554688 242.089844 L 543.933594 242.089844 L 486.246094 297.96875 Z M 429.554688 242.089844 "/>
<path style=" stroke:none;fill-rule:nonzero;fill:rgb(52.941176%,0%,90.588235%);fill-opacity:1;" d="M 56.679688 241.960938 L 171.058594 241.960938 L 114.367188 297.84375 Z M 56.679688 241.960938 "/>
<path style=" stroke:none;fill-rule:nonzero;fill:rgb(52.941176%,0%,90.588235%);fill-opacity:1;" d="M 57.675781 54.675781 L 171.058594 54.675781 L 115.367188 110.554688 Z M 57.675781 54.675781 "/>
<path style=" stroke:none;fill-rule:nonzero;fill:rgb(52.941176%,0%,90.588235%);fill-opacity:1;" d="M 243.617188 54.675781 L 357 54.675781 L 300.308594 110.554688 Z M 243.617188 54.675781 "/>
<path style=" stroke:none;fill-rule:nonzero;fill:rgb(52.941176%,0%,90.588235%);fill-opacity:1;" d="M 429.554688 54.675781 L 543.933594 54.675781 L 486.246094 110.554688 Z M 429.554688 54.675781 "/>
<path style=" stroke:none;fill-rule:nonzero;fill:rgb(52.941176%,0%,90.588235%);fill-opacity:1;" d="M 113.996094 18.875 L 95.378906 0.195312 L 132.609375 0.195312 Z M 113.996094 18.875 "/>
<path style=" stroke:none;fill-rule:nonzero;fill:rgb(52.941176%,0%,90.588235%);fill-opacity:1;" d="M 300.929688 18.875 L 282.316406 0.195312 L 319.546875 0.195312 Z M 300.929688 18.875 "/>
<path style=" stroke:none;fill-rule:nonzero;fill:rgb(52.941176%,0%,90.588235%);fill-opacity:1;" d="M 487.867188 18.875 L 469.25 0.195312 L 506.480469 0.195312 Z M 487.867188 18.875 "/>
<path style="fill:none;stroke-width:10;stroke-linecap:square;stroke-linejoin:miter;stroke:rgb(36.078431%,0%,62.352941%);stroke-opacity:1;stroke-miterlimit:10;" d="M 131.18466 206.66824 C 131.18466 210.109646 129.695303 212.726834 126.72051 214.515897 C 128.343125 215.109647 129.701182 216.133085 130.794683 217.59207 C 131.884265 219.049101 132.431016 221.111601 132.431016 223.775664 C 132.431016 226.44168 131.445297 228.554962 129.4719 230.10965 C 127.504382 231.662384 124.682444 232.437775 121.010005 232.437775 L 109.287205 232.437775 C 108.728696 232.437775 108.266212 232.250275 107.899752 231.873322 C 107.533292 231.492463 107.351042 230.98465 107.351042 230.35379 L 107.351042 198.570582 C 107.351042 198.211207 107.409832 197.972926 107.525453 197.855738 C 107.643034 197.740504 107.884075 197.68191 108.248575 197.68191 L 119.571601 197.68191 C 127.312334 197.68191 131.18466 200.678004 131.18466 206.66824 Z M 116.884881 205.728786 L 116.884881 212.230741 L 117.13572 212.230741 C 120.31236 212.230741 121.89774 211.172147 121.89774 209.054959 C 121.89774 207.894802 121.59007 207.054958 120.976691 206.527615 C 120.367231 205.994411 119.352117 205.728786 117.933309 205.728786 Z M 116.884881 218.090117 L 116.884881 224.54129 L 117.784374 224.54129 C 119.20906 224.54129 120.24965 224.277618 120.910062 223.750274 C 121.568514 223.219024 121.89774 222.375274 121.89774 221.215117 C 121.89774 220.058867 121.59007 219.250273 120.976691 218.789335 C 120.367231 218.322538 119.352117 218.090117 117.933309 218.090117 Z M 146.779786 232.935822 C 143.503203 232.935822 140.738095 231.820588 138.482505 229.586212 C 136.232793 227.347931 135.107937 224.252227 135.107937 220.303008 C 135.107937 216.344023 136.19164 213.158475 138.357085 210.740506 C 140.530369 208.32449 143.270001 207.117458 146.579899 207.117458 C 149.887837 207.117458 152.443259 207.961209 154.244204 209.652615 C 156.051028 211.338162 156.95444 213.388944 156.95444 215.80496 C 156.95444 221.168242 153.875784 223.851836 147.718473 223.851836 L 144.292953 223.851836 C 144.292953 224.842071 144.565349 225.529571 145.10818 225.912384 C 145.65689 226.29129 146.464278 226.47879 147.528384 226.47879 C 149.844724 226.47879 152.043484 225.949493 154.128583 224.888946 C 154.161898 224.857696 154.310833 225.090118 154.57539 225.590118 C 155.36906 227.013946 155.764915 228.213165 155.764915 229.187775 C 155.764915 230.164337 155.451366 230.799103 154.826229 231.099884 C 154.826229 231.099884 150.05441 232.935822 146.779786 232.935822 Z M 148.616006 216.752226 C 148.616006 215.3616 147.937957 214.666288 146.579899 214.666288 C 145.952802 214.666288 145.41585 214.855741 144.967083 215.238554 C 144.518317 215.61746 144.292953 216.166288 144.292953 216.894804 L 144.292953 218.437773 L 146.977714 218.437773 C 148.071215 218.437773 148.616006 217.875273 148.616006 216.752226 Z M 171.608921 232.138947 C 171.608921 232.537385 170.217549 232.738557 167.434804 232.738557 C 164.126866 232.603791 162.472897 232.388947 162.472897 232.090119 L 162.472897 214.515897 L 159.937072 214.515897 C 159.272741 214.515897 158.939595 213.375272 158.939595 211.092069 C 158.939595 210.492459 158.998386 209.765896 159.114007 208.904568 C 159.229628 208.041287 159.472628 207.607693 159.837128 207.607693 L 162.472897 207.607693 L 162.472897 203.244411 C 162.472897 202.578395 163.868188 202.246364 166.662691 202.246364 C 169.461113 202.246364 170.860324 202.511989 170.860324 203.043239 L 170.860324 206.219021 L 170.909316 207.607693 L 175.134384 207.607693 C 175.692892 207.607693 175.973126 208.769803 175.973126 211.092069 C 175.973126 213.408475 175.692892 214.566678 175.134384 214.566678 L 171.608921 214.566678 Z M 189.880969 232.138947 C 189.880969 232.537385 188.489597 232.738557 185.706853 232.738557 C 182.398914 232.603791 180.744945 232.388947 180.744945 232.090119 L 180.744945 214.515897 L 178.20912 214.515897 C 177.544789 214.515897 177.211644 213.375272 177.211644 211.092069 C 177.211644 210.492459 177.270434 209.765896 177.386055 208.904568 C 177.503636 208.041287 177.744676 207.607693 178.109177 207.607693 L 180.744945 207.607693 L 180.744945 203.244411 C 180.744945 202.578395 182.140237 202.246364 184.934739 202.246364 C 187.733161 202.246364 189.132372 202.511989 189.132372 203.043239 L 189.132372 206.219021 L 189.183324 207.607693 L 193.406432 207.607693 C 193.964941 207.607693 194.245175 208.769803 194.245175 211.092069 C 194.245175 213.408475 193.964941 214.566678 193.406432 214.566678 L 189.880969 214.566678 Z M 215.501815 231.099884 C 213.412797 232.324494 210.729996 232.935822 207.455372 232.935822 C 204.178788 232.935822 201.413681 231.820588 199.15809 229.586212 C 196.908379 227.347931 195.783523 224.252227 195.783523 220.303008 C 195.783523 216.344023 196.867226 213.158475 199.034631 210.740506 C 201.205955 208.32449 203.945587 207.117458 207.255485 207.117458 C 210.563423 207.117458 213.118845 207.961209 214.91979 209.652615 C 216.726614 211.338162 217.630026 213.388944 217.630026 215.80496 C 217.630026 221.168242 214.55137 223.851836 208.394058 223.851836 L 204.968539 223.851836 C 204.968539 224.842071 205.240935 225.529571 205.783766 225.912384 C 206.332476 226.29129 207.137904 226.47879 208.203969 226.47879 C 210.52031 226.47879 212.71907 225.949493 214.802209 224.888946 C 214.835524 224.857696 214.986419 225.090118 215.252935 225.590118 C 216.044646 227.013946 216.440501 228.213165 216.440501 229.187775 C 216.440501 230.164337 216.126952 230.799103 215.501815 231.099884 Z M 209.291591 216.752226 C 209.291591 215.3616 208.613542 214.666288 207.255485 214.666288 C 206.628387 214.666288 206.091435 214.855741 205.642669 215.238554 C 205.193902 215.61746 204.968539 216.166288 204.968539 216.894804 L 204.968539 218.437773 L 207.655259 218.437773 C 208.746801 218.437773 209.291591 217.875273 209.291591 216.752226 Z M 231.735797 232.388947 C 231.735797 232.623322 230.228803 232.738557 227.214817 232.738557 C 224.20475 232.67215 222.699716 232.537385 222.699716 232.338166 L 222.699716 215.855741 L 221.361255 215.855741 C 220.828222 215.855741 220.404932 215.533476 220.089423 214.890897 C 219.773915 214.240507 219.615181 213.437772 219.615181 212.478788 C 219.615181 208.904568 220.677327 207.117458 222.79966 207.117458 C 224.290976 207.117458 225.531452 207.572537 226.52305 208.48074 C 227.514648 209.388943 228.012406 210.4241 228.012406 211.582303 C 228.704173 210.222928 229.63894 209.138943 230.812788 208.330349 C 231.988595 207.523709 233.187919 207.117458 234.412718 207.117458 C 236.335164 207.117458 237.495294 207.613552 237.897028 208.60574 C 237.989133 208.871365 238.036165 209.263943 238.036165 209.777615 C 238.036165 210.285428 237.879391 211.20535 237.561923 212.527616 C 237.252293 213.853788 236.930906 214.814725 236.597761 215.412382 C 236.266575 216.006132 236.066688 216.303007 236.000058 216.303007 C 235.939308 216.303007 235.633598 216.178007 235.086848 215.92996 C 234.536178 215.67996 234.050178 215.55496 233.622968 215.55496 C 232.364854 215.55496 231.735797 216.549101 231.735797 218.539335 Z M 253.384372 223.902618 L 253.384372 206.219021 L 249.858909 206.219021 C 249.294522 206.219021 248.894747 205.50613 248.663505 204.084255 C 248.567481 203.390895 248.522408 202.679958 248.522408 201.955348 C 248.522408 201.224879 248.567481 200.511989 248.663505 199.818629 C 248.894747 198.394801 249.294522 197.68191 249.858909 197.68191 L 266.543618 197.68191 C 267.102126 197.68191 267.482304 198.394801 267.682191 199.818629 C 267.815449 200.511989 267.882078 201.224879 267.882078 201.955348 C 267.882078 202.679958 267.815449 203.390895 267.682191 204.084255 C 267.482304 205.50613 267.102126 206.219021 266.543618 206.219021 L 263.218042 206.219021 L 263.218042 223.902618 L 266.692553 223.902618 C 267.253021 223.902618 267.648877 224.611602 267.882078 226.027618 C 268.015337 226.726837 268.081966 227.443634 268.081966 228.174103 C 268.081966 228.898712 268.015337 229.60965 267.882078 230.303009 C 267.648877 231.726838 267.253021 232.437775 266.692553 232.437775 L 249.958853 232.437775 C 249.394465 232.437775 249.012328 231.726838 248.812441 230.303009 C 248.679183 229.60965 248.612553 228.898712 248.612553 228.174103 C 248.612553 227.443634 248.679183 226.726837 248.812441 226.027618 C 249.012328 224.611602 249.394465 223.902618 249.958853 223.902618 Z M 281.535163 232.138947 C 281.535163 232.371369 280.343678 232.488556 277.960708 232.488556 C 274.65277 232.388947 272.998801 232.205353 272.998801 231.937775 L 272.998801 215.855741 L 271.701493 215.855741 C 270.841194 215.855741 270.280726 215.125272 270.014209 213.668241 C 269.94758 213.240506 269.914266 212.812772 269.914266 212.379178 C 269.914266 211.353787 270.114153 210.328397 270.511968 209.304959 C 271.11163 207.845974 272.038558 207.117458 273.296672 207.117458 C 274.554786 207.117458 275.679642 207.41824 276.673199 208.015896 C 277.664797 208.609646 278.325209 209.201443 278.658354 209.795193 C 280.743453 208.010037 283.222447 207.117458 286.099256 207.117458 C 288.981944 207.117458 291.067042 207.894802 292.358471 209.453396 C 293.6499 211.006131 294.296594 213.551053 294.296594 217.094023 L 294.296594 231.988556 C 294.296594 232.388947 292.879746 232.588166 290.048009 232.588166 C 287.220192 232.588166 285.809223 232.388947 285.809223 231.988556 L 285.809223 217.640898 C 285.809223 215.984647 285.229158 215.156522 284.070988 215.156522 C 283.737842 215.156522 283.271439 215.297147 282.673737 215.578397 C 282.081914 215.863554 281.701736 216.070585 281.535163 216.205351 Z M 309.194075 241.474886 C 309.194075 241.707308 307.777227 241.822542 304.94549 241.822542 C 302.117673 241.822542 300.706704 241.707308 300.706704 241.474886 L 300.706704 215.904569 L 299.017461 215.904569 C 298.219871 215.904569 297.671161 215.176054 297.37133 213.717069 C 297.271387 213.258085 297.222395 212.664334 297.222395 211.937772 C 297.222395 211.207303 297.455596 210.345975 297.922 209.353787 C 298.586331 207.894802 299.644558 207.16824 301.09668 207.16824 C 302.060842 207.16824 302.948577 207.390896 303.755965 207.840115 C 304.565312 208.283474 305.12774 208.697537 305.445208 209.078396 C 305.760717 209.45535 305.917491 209.676053 305.917491 209.742459 C 308.133888 208.027615 310.534495 207.16824 313.117352 207.16824 C 315.700209 207.16824 317.916606 208.16824 319.766544 210.16824 C 321.624319 212.170194 322.551248 215.263944 322.551248 219.453398 C 322.551248 223.642852 321.624319 226.888946 319.766544 229.187775 C 317.916606 231.488556 315.566951 232.638947 312.717578 232.638947 C 311.426149 232.638947 310.252301 232.570588 309.194075 232.437775 Z M 311.230181 215.855741 C 310.663834 215.855741 310.119043 216.037382 309.591889 216.402616 L 309.591889 225.189727 C 310.152358 225.256133 310.607003 225.289337 310.955826 225.289337 C 311.304649 225.289337 311.579004 225.289337 311.778891 225.289337 C 313.13107 225.156524 313.807159 223.420196 313.807159 220.076445 C 313.807159 217.261991 312.94686 215.855741 311.230181 215.855741 Z M 325.827831 207.906521 C 325.827831 207.547146 327.248599 207.365505 330.092093 207.365505 C 332.941466 207.365505 334.366153 207.547146 334.366153 207.906521 L 334.366153 222.40457 C 334.366153 224.062774 334.895267 224.888946 335.951534 224.888946 C 336.751083 224.888946 337.646656 224.545196 338.638254 223.851836 L 338.638254 207.906521 C 338.638254 207.580349 340.043344 207.41824 342.851564 207.41824 C 345.667623 207.41824 347.076632 207.580349 347.076632 207.906521 L 347.076632 224.19168 L 348.37198 224.19168 C 349.496836 224.19168 350.059264 225.269805 350.059264 227.426056 C 350.059264 228.517853 349.828022 229.625275 349.361618 230.750275 C 348.701206 232.20926 347.809552 232.935822 346.684696 232.935822 C 344.46242 232.935822 342.822169 232.027619 341.763942 230.201447 L 341.71299 230.252228 C 339.696481 232.043244 337.529075 232.935822 335.212735 232.935822 C 331.998861 232.935822 329.629609 232.135041 328.104978 230.527619 C 326.586227 228.920197 325.827831 226.261993 325.827831 222.554961 Z M 364.509938 232.138947 C 364.509938 232.537385 363.118566 232.738557 360.337781 232.738557 C 357.027883 232.603791 355.373914 232.388947 355.373914 232.090119 L 355.373914 214.515897 L 352.838089 214.515897 C 352.173758 214.515897 351.840612 213.375272 351.840612 211.092069 C 351.840612 210.492459 351.899403 209.765896 352.015024 208.904568 C 352.132604 208.041287 352.373645 207.607693 352.740105 207.607693 L 355.373914 207.607693 L 355.373914 203.244411 C 355.373914 202.578395 356.771165 202.246364 359.563708 202.246364 C 362.36213 202.246364 363.76134 202.511989 363.76134 203.043239 L 363.76134 206.219021 L 363.812292 207.607693 L 368.035401 207.607693 C 368.593909 207.607693 368.874143 208.769803 368.874143 211.092069 C 368.874143 213.408475 368.593909 214.566678 368.035401 214.566678 L 364.509938 214.566678 Z M 364.509938 232.138947 " transform="matrix(1.993311,0,0,2,-177.898075,-210.30516)"/>
<path style=" stroke:none;fill-rule:nonzero;fill:rgb(100%,100%,100%);fill-opacity:1;" d="M 83.695312 203.03125 C 83.695312 209.914062 80.726562 215.148438 74.796875 218.726562 C 78.03125 219.914062 80.742188 221.960938 82.914062 224.878906 C 85.09375 227.792969 86.179688 231.917969 86.179688 237.246094 C 86.179688 242.578125 84.214844 246.804688 80.28125 249.914062 C 76.359375 253.019531 70.738281 254.570312 63.414062 254.570312 L 40.050781 254.570312 C 38.933594 254.570312 38.011719 254.195312 37.28125 253.441406 C 36.550781 252.679688 36.1875 251.664062 36.1875 250.402344 L 36.1875 186.835938 C 36.1875 186.117188 36.304688 185.640625 36.535156 185.40625 C 36.769531 185.175781 37.25 185.058594 37.976562 185.058594 L 60.546875 185.058594 C 75.980469 185.058594 83.695312 191.050781 83.695312 203.03125 Z M 55.195312 201.152344 L 55.195312 214.15625 L 55.691406 214.15625 C 62.023438 214.15625 65.1875 212.039062 65.1875 207.804688 C 65.1875 205.484375 64.574219 203.804688 63.347656 202.75 C 62.132812 201.683594 60.109375 201.152344 57.28125 201.152344 Z M 55.195312 225.875 L 55.195312 238.777344 L 56.984375 238.777344 C 59.824219 238.777344 61.898438 238.25 63.214844 237.195312 C 64.527344 236.136719 65.1875 234.445312 65.1875 232.125 C 65.1875 229.8125 64.574219 228.195312 63.347656 227.273438 C 62.132812 226.339844 60.109375 225.875 57.28125 225.875 Z M 130.820312 251.894531 C 126.65625 254.34375 121.308594 255.566406 114.78125 255.566406 C 108.25 255.566406 102.738281 253.335938 98.242188 248.867188 C 93.757812 244.390625 91.515625 238.199219 91.515625 230.300781 C 91.515625 222.382812 93.675781 216.011719 97.996094 211.175781 C 102.324219 206.34375 107.789062 203.929688 114.382812 203.929688 C 120.976562 203.929688 126.070312 205.617188 129.660156 209 C 133.261719 212.371094 135.0625 216.472656 135.0625 221.304688 C 135.0625 232.03125 128.925781 237.398438 116.652344 237.398438 L 109.824219 237.398438 C 109.824219 239.378906 110.367188 240.753906 111.449219 241.519531 C 112.542969 242.277344 114.148438 242.652344 116.273438 242.652344 C 120.890625 242.652344 125.273438 241.59375 129.425781 239.472656 C 129.492188 239.410156 129.792969 239.875 130.324219 240.875 C 131.902344 243.722656 132.691406 246.121094 132.691406 248.070312 C 132.691406 250.023438 132.070312 251.292969 130.820312 251.894531 Z M 118.441406 223.199219 C 118.441406 220.417969 117.089844 219.027344 114.382812 219.027344 C 113.132812 219.027344 112.0625 219.40625 111.167969 220.171875 C 110.273438 220.929688 109.824219 222.027344 109.824219 223.484375 L 109.824219 226.570312 L 115.179688 226.570312 C 117.355469 226.570312 118.441406 225.445312 118.441406 223.199219 Z M 164.273438 253.972656 C 164.273438 254.769531 161.5 255.171875 155.957031 255.171875 C 149.359375 254.90625 146.0625 254.472656 146.0625 253.875 L 146.0625 218.726562 L 141.007812 218.726562 C 139.683594 218.726562 139.019531 216.445312 139.019531 211.878906 C 139.019531 210.679688 139.136719 209.226562 139.367188 207.503906 C 139.601562 205.777344 140.082031 204.910156 140.8125 204.910156 L 146.0625 204.910156 L 146.0625 196.179688 C 146.0625 194.851562 148.847656 194.1875 154.414062 194.1875 C 159.992188 194.1875 162.78125 194.71875 162.78125 195.78125 L 162.78125 202.132812 L 162.878906 204.910156 L 171.300781 204.910156 C 172.414062 204.910156 172.972656 207.234375 172.972656 211.878906 C 172.972656 216.511719 172.414062 218.828125 171.300781 218.828125 L 164.273438 218.828125 Z M 200.695312 253.972656 C 200.695312 254.769531 197.921875 255.171875 192.378906 255.171875 C 185.78125 254.90625 182.484375 254.472656 182.484375 253.875 L 182.484375 218.726562 L 177.429688 218.726562 C 176.105469 218.726562 175.441406 216.445312 175.441406 211.878906 C 175.441406 210.679688 175.558594 209.226562 175.789062 207.503906 C 176.023438 205.777344 176.503906 204.910156 177.234375 204.910156 L 182.484375 204.910156 L 182.484375 196.179688 C 182.484375 194.851562 185.269531 194.1875 190.835938 194.1875 C 196.414062 194.1875 199.203125 194.71875 199.203125 195.78125 L 199.203125 202.132812 L 199.304688 204.910156 L 207.722656 204.910156 C 208.835938 204.910156 209.394531 207.234375 209.394531 211.878906 C 209.394531 216.511719 208.835938 218.828125 207.722656 218.828125 L 200.695312 218.828125 Z M 251.765625 251.894531 C 247.601562 254.34375 242.253906 255.566406 235.726562 255.566406 C 229.195312 255.566406 223.683594 253.335938 219.1875 248.867188 C 214.703125 244.390625 212.460938 238.199219 212.460938 230.300781 C 212.460938 222.382812 214.621094 216.011719 218.941406 211.175781 C 223.269531 206.34375 228.734375 203.929688 235.328125 203.929688 C 241.925781 203.929688 247.015625 205.617188 250.605469 209 C 254.207031 212.371094 256.007812 216.472656 256.007812 221.304688 C 256.007812 232.03125 249.871094 237.398438 237.597656 237.398438 L 230.773438 237.398438 C 230.773438 239.378906 231.3125 240.753906 232.394531 241.519531 C 233.488281 242.277344 235.09375 242.652344 237.214844 242.652344 C 241.835938 242.652344 246.21875 241.59375 250.375 239.472656 C 250.441406 239.410156 250.738281 239.875 251.269531 240.875 C 252.847656 243.722656 253.640625 246.121094 253.640625 248.070312 C 253.640625 250.023438 253.015625 251.292969 251.765625 251.894531 Z M 239.386719 223.199219 C 239.386719 220.417969 238.035156 219.027344 235.328125 219.027344 C 234.078125 219.027344 233.007812 219.40625 232.113281 220.171875 C 231.21875 220.929688 230.773438 222.027344 230.773438 223.484375 L 230.773438 226.570312 L 236.125 226.570312 C 238.300781 226.570312 239.386719 225.445312 239.386719 223.199219 Z M 284.125 254.472656 C 284.125 254.941406 281.121094 255.171875 275.109375 255.171875 C 269.113281 255.039062 266.113281 254.769531 266.113281 254.371094 L 266.113281 221.40625 L 263.445312 221.40625 C 262.386719 221.40625 261.539062 220.761719 260.910156 219.476562 C 260.28125 218.175781 259.964844 216.570312 259.964844 214.652344 C 259.964844 207.503906 262.082031 203.929688 266.3125 203.929688 C 269.285156 203.929688 271.757812 204.839844 273.738281 206.65625 C 275.714844 208.472656 276.703125 210.542969 276.703125 212.859375 C 278.082031 210.140625 279.945312 207.972656 282.285156 206.355469 C 284.628906 204.742188 287.019531 203.929688 289.460938 203.929688 C 293.292969 203.929688 295.609375 204.921875 296.402344 206.90625 C 296.59375 207.4375 296.6875 208.222656 296.6875 209.25 C 296.6875 210.265625 296.371094 212.105469 295.742188 214.75 C 295.121094 217.40625 294.480469 219.324219 293.820312 220.519531 C 293.15625 221.707031 292.757812 222.300781 292.625 222.300781 C 292.503906 222.300781 291.894531 222.050781 290.804688 221.554688 C 289.710938 221.054688 288.738281 220.804688 287.886719 220.804688 C 285.378906 220.804688 284.125 222.792969 284.125 226.777344 Z M 327.277344 237.5 L 327.277344 202.132812 L 320.253906 202.132812 C 319.125 202.132812 318.332031 200.707031 317.867188 197.863281 C 317.679688 196.476562 317.585938 195.054688 317.585938 193.605469 C 317.585938 192.144531 317.679688 190.71875 317.867188 189.332031 C 318.332031 186.484375 319.125 185.058594 320.253906 185.058594 L 353.507812 185.058594 C 354.625 185.058594 355.382812 186.484375 355.777344 189.332031 C 356.042969 190.71875 356.175781 192.144531 356.175781 193.605469 C 356.175781 195.054688 356.042969 196.476562 355.777344 197.863281 C 355.382812 200.707031 354.625 202.132812 353.507812 202.132812 L 346.882812 202.132812 L 346.882812 237.5 L 353.804688 237.5 C 354.921875 237.5 355.710938 238.917969 356.175781 241.75 C 356.441406 243.148438 356.574219 244.582031 356.574219 246.042969 C 356.574219 247.492188 356.441406 248.910156 356.175781 250.300781 C 355.710938 253.148438 354.921875 254.570312 353.804688 254.570312 L 320.453125 254.570312 C 319.324219 254.570312 318.5625 253.148438 318.164062 250.300781 C 317.898438 248.910156 317.765625 247.492188 317.765625 246.042969 C 317.765625 244.582031 317.898438 243.148438 318.164062 241.75 C 318.5625 238.917969 319.324219 237.5 320.453125 237.5 Z M 383.390625 253.972656 C 383.390625 254.4375 381.015625 254.671875 376.265625 254.671875 C 369.671875 254.472656 366.375 254.105469 366.375 253.570312 L 366.375 221.40625 L 363.789062 221.40625 C 362.078125 221.40625 360.957031 219.945312 360.425781 217.03125 C 360.292969 216.175781 360.226562 215.320312 360.226562 214.453125 C 360.226562 212.402344 360.625 210.355469 361.421875 208.304688 C 362.613281 205.386719 364.460938 203.929688 366.972656 203.929688 C 369.476562 203.929688 371.722656 204.53125 373.699219 205.726562 C 375.675781 206.914062 376.996094 208.097656 377.65625 209.285156 C 381.8125 205.714844 386.753906 203.929688 392.488281 203.929688 C 398.234375 203.929688 402.394531 205.484375 404.964844 208.601562 C 407.539062 211.707031 408.828125 216.796875 408.828125 223.882812 L 408.828125 253.671875 C 408.828125 254.472656 406.003906 254.871094 400.359375 254.871094 C 394.726562 254.871094 391.910156 254.472656 391.910156 253.671875 L 391.910156 224.976562 C 391.910156 221.664062 390.753906 220.007812 388.445312 220.007812 C 387.78125 220.007812 386.855469 220.289062 385.660156 220.851562 C 384.480469 221.421875 383.722656 221.835938 383.390625 222.105469 Z M 438.523438 272.644531 C 438.523438 273.109375 435.699219 273.339844 430.054688 273.339844 C 424.421875 273.339844 421.605469 273.109375 421.605469 272.644531 L 421.605469 221.503906 L 418.242188 221.503906 C 416.648438 221.503906 415.554688 220.046875 414.960938 217.128906 C 414.761719 216.214844 414.660156 215.023438 414.660156 213.570312 C 414.660156 212.109375 415.125 210.386719 416.054688 208.402344 C 417.378906 205.484375 419.488281 204.03125 422.382812 204.03125 C 424.304688 204.03125 426.074219 204.476562 427.6875 205.375 C 429.300781 206.261719 430.417969 207.089844 431.050781 207.851562 C 431.679688 208.605469 431.996094 209.046875 431.996094 209.183594 C 436.414062 205.75 441.195312 204.03125 446.34375 204.03125 C 451.492188 204.03125 455.910156 206.03125 459.597656 210.03125 C 463.300781 214.035156 465.152344 220.222656 465.152344 228.601562 C 465.152344 236.980469 463.300781 243.472656 459.597656 248.070312 C 455.910156 252.671875 451.226562 254.972656 445.546875 254.972656 C 442.972656 254.972656 440.632812 254.835938 438.523438 254.570312 Z M 442.582031 221.40625 C 441.457031 221.40625 440.367188 221.769531 439.320312 222.5 L 439.320312 240.074219 C 440.433594 240.207031 441.339844 240.273438 442.035156 240.273438 C 442.730469 240.273438 443.28125 240.273438 443.675781 240.273438 C 446.371094 240.007812 447.71875 236.535156 447.71875 229.847656 C 447.71875 224.21875 446.007812 221.40625 442.582031 221.40625 Z M 471.679688 205.507812 C 471.679688 204.789062 474.511719 204.425781 480.179688 204.425781 C 485.859375 204.425781 488.695312 204.789062 488.695312 205.507812 L 488.695312 234.503906 C 488.695312 237.820312 489.753906 239.472656 491.863281 239.472656 C 493.453125 239.472656 495.238281 238.785156 497.214844 237.398438 L 497.214844 205.507812 C 497.214844 204.855469 500.015625 204.53125 505.613281 204.53125 C 511.226562 204.53125 514.035156 204.855469 514.035156 205.507812 L 514.035156 238.078125 L 516.617188 238.078125 C 518.859375 238.078125 519.980469 240.234375 519.980469 244.546875 C 519.980469 246.730469 519.515625 248.945312 518.589844 251.195312 C 517.277344 254.113281 515.496094 255.566406 513.253906 255.566406 C 508.824219 255.566406 505.554688 253.75 503.445312 250.097656 L 503.34375 250.203125 C 499.324219 253.78125 495.003906 255.566406 490.386719 255.566406 C 483.980469 255.566406 479.257812 253.964844 476.21875 250.75 C 473.195312 247.535156 471.679688 242.21875 471.679688 234.804688 Z M 548.785156 253.972656 C 548.785156 254.769531 546.011719 255.171875 540.46875 255.171875 C 533.871094 254.90625 530.574219 254.472656 530.574219 253.875 L 530.574219 218.726562 L 525.523438 218.726562 C 524.195312 218.726562 523.535156 216.445312 523.535156 211.878906 C 523.535156 210.679688 523.648438 209.226562 523.882812 207.503906 C 524.113281 205.777344 524.59375 204.910156 525.324219 204.910156 L 530.574219 204.910156 L 530.574219 196.179688 C 530.574219 194.851562 533.359375 194.1875 538.925781 194.1875 C 544.503906 194.1875 547.292969 194.71875 547.292969 195.78125 L 547.292969 202.132812 L 547.394531 204.910156 L 555.8125 204.910156 C 556.925781 204.910156 557.484375 207.234375 557.484375 211.878906 C 557.484375 216.511719 556.925781 218.828125 555.8125 218.828125 L 548.785156 218.828125 Z M 548.785156 253.972656 "/>
<path style="fill:none;stroke-width:10;stroke-linecap:butt;stroke-linejoin:miter;stroke:rgb(36.078431%,0%,62.352941%);stroke-opacity:1;stroke-miterlimit:10;" d="M 245.549575 121.515882 L 253.815502 121.547132 C 261.838428 121.607679 262.081428 121.636975 262.598784 122.004163 C 264.45264 123.429944 264.423245 125.771742 262.477283 127.076429 C 261.899178 127.472914 261.626783 127.504164 259.165426 127.504164 L 256.490464 127.504164 L 256.490464 174.943625 L 259.134071 174.943625 C 262.142178 174.943625 262.873139 175.189719 263.570784 176.43386 C 264.362495 177.832297 263.96664 179.443626 262.598784 180.445579 C 262.081428 180.84011 261.838428 180.84011 253.815502 180.900657 L 245.549575 180.961204 L 244.699074 180.537376 C 243.817219 180.051048 243.027468 178.896751 243.027468 177.953391 C 243.027468 177.285422 243.785864 175.918235 244.393364 175.461203 C 244.849969 175.095969 245.245825 175.064719 247.707182 175.004172 L 250.503644 174.943625 L 250.503644 127.533461 L 247.707182 127.472914 C 245.245825 127.412367 244.849969 127.38307 244.393364 127.015883 C 243.785864 126.592054 243.027468 125.222914 243.027468 124.525648 C 243.027468 123.582288 243.785864 122.396741 244.699074 121.943616 Z M 245.549575 121.515882 " transform="matrix(1.993311,0,0,2,-177.898075,-210.30516)"/>
<path style="fill:none;stroke-width:10;stroke-linecap:butt;stroke-linejoin:miter;stroke:rgb(36.078431%,0%,62.352941%);stroke-opacity:1;stroke-miterlimit:10;" d="M 226.46426 134.799087 L 247.858077 134.799087 L 247.858077 167.650655 L 226.15855 167.621358 C 204.643232 167.558858 204.459023 167.558858 203.790772 167.164327 C 203.426272 166.951436 202.940271 166.467061 202.726666 166.039327 L 202.301416 165.310811 L 202.301416 151.240496 C 202.301416 137.715103 202.332771 137.168228 202.665916 136.469009 C 203.122521 135.648697 203.396876 135.375259 204.308127 135.041275 C 204.886233 134.859634 209.019196 134.799087 226.46426 134.799087 Z M 218.803874 142.426041 C 218.317874 142.728776 217.802478 143.793229 214.974661 150.054949 C 211.449198 157.865497 211.266948 158.381122 212.058658 159.230732 C 212.938554 160.174091 214.30641 160.205341 215.096161 159.261982 C 215.339161 158.959247 215.705621 158.291278 215.887871 157.7737 L 216.221017 156.830341 L 223.514943 156.830341 L 223.940193 157.926044 C 224.488903 159.416279 225.065049 159.929951 226.15855 159.929951 C 226.858155 159.929951 227.07176 159.840107 227.526406 159.322529 C 227.922261 158.8987 228.075116 158.533466 228.075116 158.047138 C 228.075116 157.56081 227.19326 155.312762 225.186549 150.844012 C 221.388691 142.302995 221.570941 142.668229 220.96344 142.363541 C 220.263835 141.970963 219.503479 142.00026 218.803874 142.426041 Z M 218.803874 142.426041 " transform="matrix(1.993311,0,0,2,-177.898075,-210.30516)"/>
<path style="fill:none;stroke-width:10;stroke-linecap:butt;stroke-linejoin:miter;stroke:rgb(32.54902%,8.235294%,49.411765%);stroke-opacity:1;stroke-miterlimit:10;" d="M 219.92873 148.26198 C 220.05023 148.383074 221.904086 152.941668 221.904086 153.094012 C 221.904086 153.215106 220.992836 153.275653 219.838585 153.275653 C 218.257123 153.275653 217.802478 153.215106 217.863228 153.033465 C 217.923978 152.910418 218.378624 151.787371 218.925374 150.510027 C 219.474084 149.263933 219.92873 148.23073 219.92873 148.26198 Z M 219.92873 148.26198 " transform="matrix(1.993311,0,0,2,-177.898075,-210.30516)"/>
<path style="fill:none;stroke-width:10;stroke-linecap:butt;stroke-linejoin:miter;stroke:rgb(38.823529%,0%,66.666667%);stroke-opacity:1;stroke-miterlimit:10;" d="M 259.255571 151.240496 L 259.255571 134.767837 L 265.577496 134.828384 C 271.532961 134.888931 271.928816 134.920181 272.536316 135.283462 C 272.900817 135.496353 273.388777 135.982681 273.600422 136.408462 L 274.025673 137.138931 L 274.025673 165.310811 L 273.600422 166.039327 C 273.388777 166.467061 272.900817 166.951436 272.536316 167.164327 C 271.899421 167.558858 271.532961 167.558858 265.577496 167.621358 L 259.255571 167.681905 Z M 259.255571 151.240496 " transform="matrix(1.993311,0,0,2,-177.898075,-210.30516)"/>
<path style=" stroke:none;fill-rule:nonzero;fill:rgb(100%,100%,100%);fill-opacity:1;" d="M 311.558594 32.726562 L 328.035156 32.789062 C 344.027344 32.910156 344.511719 32.96875 345.542969 33.703125 C 349.238281 36.554688 349.179688 41.238281 345.300781 43.847656 C 344.148438 44.640625 343.605469 44.703125 338.699219 44.703125 L 333.367188 44.703125 L 333.367188 139.582031 L 338.636719 139.582031 C 344.632812 139.582031 346.089844 140.074219 347.480469 142.5625 C 349.058594 145.359375 348.269531 148.582031 345.542969 150.589844 C 344.511719 151.375 344.027344 151.375 328.035156 151.496094 L 311.558594 151.617188 L 309.863281 150.769531 C 308.105469 149.796875 306.53125 147.488281 306.53125 145.601562 C 306.53125 144.265625 308.042969 141.53125 309.253906 140.617188 C 310.164062 139.886719 310.953125 139.824219 315.859375 139.703125 L 321.433594 139.582031 L 321.433594 44.761719 L 315.859375 44.640625 C 310.953125 44.519531 310.164062 44.460938 309.253906 43.726562 C 308.042969 42.878906 306.53125 40.140625 306.53125 38.746094 C 306.53125 36.859375 308.042969 34.488281 309.863281 33.582031 Z M 311.558594 32.726562 "/>
<path style=" stroke:none;fill-rule:nonzero;fill:rgb(100%,100%,100%);fill-opacity:1;" d="M 314.132812 59.292969 L 314.132812 124.996094 C 314.132812 124.996094 229.652344 124.816406 228.320312 124.023438 C 227.59375 123.597656 226.625 122.628906 226.199219 121.773438 L 225.351562 120.316406 L 225.351562 92.175781 C 225.351562 65.125 225.414062 64.03125 226.078125 62.632812 C 226.988281 60.992188 227.535156 60.445312 229.351562 59.777344 C 230.503906 59.414062 314.132812 59.292969 314.132812 59.292969 Z M 258.246094 74.546875 C 257.277344 75.152344 256.25 77.28125 250.613281 89.804688 C 243.585938 105.425781 243.222656 106.457031 244.800781 108.15625 C 246.554688 110.042969 249.28125 110.105469 250.855469 108.21875 C 251.339844 107.613281 252.070312 106.277344 252.433594 105.242188 L 253.097656 103.355469 L 267.636719 103.355469 L 268.484375 105.546875 C 269.578125 108.527344 270.726562 109.554688 272.90625 109.554688 C 274.300781 109.554688 274.726562 109.375 275.632812 108.339844 C 276.421875 107.492188 276.726562 106.761719 276.726562 105.789062 C 276.726562 104.816406 274.96875 100.320312 270.96875 91.382812 C 263.398438 74.300781 263.761719 75.03125 262.550781 74.425781 C 261.15625 73.636719 259.640625 73.695312 258.246094 74.546875 Z M 258.246094 74.546875 "/>
<path style=" stroke:none;fill-rule:nonzero;fill:rgb(38.823529%,0%,66.666667%);fill-opacity:1;" d="M 258.234375 74.449219 C 259.628906 73.597656 261.167969 73.535156 262.5625 74.324219 C 263.773438 74.933594 263.496094 74.296875 271.070312 91.378906 C 275.066406 100.316406 276.800781 104.878906 276.800781 105.851562 C 276.800781 106.824219 276.488281 107.566406 275.703125 108.417969 C 274.792969 109.445312 274.359375 109.640625 272.964844 109.640625 C 270.785156 109.640625 269.527344 108.441406 268.433594 105.460938 L 267.691406 103.441406 L 260.367188 103.457031 L 253.046875 103.441406 L 252.484375 105.15625 C 252.121094 106.191406 251.292969 107.699219 250.808594 108.304688 C 249.230469 110.191406 246.488281 110.117188 244.730469 108.230469 C 243.15625 106.53125 243.488281 105.40625 250.515625 89.785156 C 256.152344 77.261719 257.265625 75.054688 258.234375 74.449219 Z M 258.234375 74.449219 "/>
<path style=" stroke:none;fill-rule:nonzero;fill:rgb(100%,100%,100%);fill-opacity:1;" d="M 260.488281 86.21875 C 260.730469 86.460938 264.425781 95.578125 264.425781 95.882812 C 264.425781 96.125 262.609375 96.246094 260.308594 96.246094 C 257.15625 96.246094 256.25 96.125 256.371094 95.761719 C 256.492188 95.519531 257.398438 93.269531 258.488281 90.714844 C 259.582031 88.222656 260.488281 86.15625 260.488281 86.21875 Z M 260.488281 86.21875 "/>
<path style=" stroke:none;fill-rule:nonzero;fill:rgb(100%,100%,100%);fill-opacity:1;" d="M 340.90625 59.230469 C 340.90625 59.230469 364.140625 59.535156 365.351562 60.261719 C 366.078125 60.6875 367.046875 61.660156 367.472656 62.511719 L 368.320312 63.972656 L 368.320312 120.316406 L 367.472656 121.773438 C 367.046875 122.628906 366.078125 123.597656 365.351562 124.023438 C 364.082031 124.816406 340.90625 125.058594 340.90625 125.058594 Z M 340.90625 59.230469 "/>
<path style="fill:none;stroke-width:7.5;stroke-linecap:butt;stroke-linejoin:miter;stroke:rgb(36.078431%,0%,62.352941%);stroke-opacity:1;stroke-miterlimit:10;" d="M 146.199721 167.301046 C 146.199721 167.301046 129.460142 169.304952 128.897714 169.156515 C 128.576327 169.080343 128.133439 168.865499 127.925713 168.654561 L 127.52006 168.302999 L 126.571575 160.640888 L 125.62113 152.963153 L 125.9288 152.519793 C 126.079695 152.265887 126.455954 151.951434 126.747946 151.797137 C 127.235906 151.535418 143.981364 149.377214 143.981364 149.377214 Z M 146.199721 167.301046 " transform="matrix(1.993311,0,0,2,-177.898075,-210.30516)"/>
<path style="fill:none;stroke-width:7.5;stroke-linecap:butt;stroke-linejoin:miter;stroke:rgb(36.078431%,0%,62.352941%);stroke-opacity:1;stroke-miterlimit:10;" d="M 141.633669 149.66823 C 141.633669 149.66823 159.368765 147.556902 159.905717 147.69362 C 160.227105 147.771745 160.668032 147.984636 160.875758 148.193621 L 161.283372 148.547136 L 162.233816 156.226825 L 163.182301 163.888936 L 162.872671 164.330342 C 162.723736 164.582295 162.347477 164.898701 162.053526 165.052998 C 161.544009 165.336201 143.852026 167.592061 143.852026 167.592061 Z M 141.633669 149.66823 " transform="matrix(1.993311,0,0,2,-177.898075,-210.30516)"/>
<path style=" stroke:none;fill-rule:nonzero;fill:rgb(100%,100%,100%);fill-opacity:1;" d="M 106.128906 88.820312 C 106.128906 88.820312 139.773438 84.808594 140.84375 85.082031 C 141.484375 85.238281 142.363281 85.664062 142.777344 86.082031 L 143.589844 86.789062 L 145.484375 102.144531 L 147.375 117.472656 L 146.757812 118.355469 C 146.460938 118.859375 145.710938 119.492188 145.125 119.800781 C 144.109375 120.367188 110.550781 124.664062 110.550781 124.664062 Z M 106.128906 88.820312 "/>
<path style=" stroke:none;fill-rule:nonzero;fill:rgb(100%,100%,100%);fill-opacity:1;" d="M 111.816406 124.507812 C 111.816406 124.507812 80.15625 128.304688 79.035156 128.007812 C 78.394531 127.855469 77.511719 127.425781 77.097656 127.003906 L 76.289062 126.300781 L 74.398438 110.976562 L 72.503906 95.621094 L 73.117188 94.734375 C 73.417969 94.226562 74.167969 93.597656 74.75 93.289062 C 75.722656 92.765625 107.394531 88.664062 107.394531 88.664062 Z M 111.816406 124.507812 "/>
<path style="fill:none;stroke-width:7.5;stroke-linecap:butt;stroke-linejoin:miter;stroke:rgb(36.078431%,0%,62.352941%);stroke-opacity:1;stroke-miterlimit:10;" d="M 114.595976 151.213152 L 113.71412 144.082292 L 120.843433 143.201432 Z M 114.595976 151.213152 " transform="matrix(1.993311,0,0,2,-177.898075,-210.30516)"/>
<path style="fill:none;stroke-width:7.5;stroke-linecap:butt;stroke-linejoin:miter;stroke:rgb(36.078431%,0%,62.352941%);stroke-opacity:1;stroke-miterlimit:10;" d="M 175.773239 165.234639 L 176.657055 172.361593 L 169.527742 173.244406 Z M 175.773239 165.234639 " transform="matrix(1.993311,0,0,2,-177.898075,-210.30516)"/>
<path style=" stroke:none;fill-rule:nonzero;fill:rgb(100%,100%,100%);fill-opacity:1;" d="M 50.527344 92.121094 L 48.769531 77.859375 L 62.980469 76.097656 Z M 50.527344 92.121094 "/>
<path style=" stroke:none;fill-rule:nonzero;fill:rgb(100%,100%,100%);fill-opacity:1;" d="M 172.472656 120.164062 L 174.234375 134.417969 L 160.023438 136.183594 Z M 172.472656 120.164062 "/>
<path style="fill:none;stroke-width:7.5;stroke-linecap:butt;stroke-linejoin:miter;stroke:rgb(36.078431%,0%,62.352941%);stroke-opacity:1;stroke-miterlimit:10;" d="M 125.240953 178.726829 L 118.11164 179.609641 L 117.227825 172.480734 Z M 125.240953 178.726829 " transform="matrix(1.993311,0,0,2,-177.898075,-210.30516)"/>
<path style="fill:none;stroke-width:7.5;stroke-linecap:butt;stroke-linejoin:miter;stroke:rgb(36.078431%,0%,62.352941%);stroke-opacity:1;stroke-miterlimit:10;" d="M 165.130222 137.720963 L 172.257575 136.836197 L 173.14139 143.965104 Z M 165.130222 137.720963 " transform="matrix(1.993311,0,0,2,-177.898075,-210.30516)"/>
<path style=" stroke:none;fill-rule:nonzero;fill:rgb(100%,100%,100%);fill-opacity:1;" d="M 71.746094 147.148438 L 57.535156 148.914062 L 55.773438 134.65625 Z M 71.746094 147.148438 "/>
<path style=" stroke:none;fill-rule:nonzero;fill:rgb(100%,100%,100%);fill-opacity:1;" d="M 151.257812 65.136719 L 165.464844 63.367188 L 167.226562 77.625 Z M 151.257812 65.136719 "/>
<path style=" stroke:none;fill-rule:nonzero;fill:rgb(36.078431%,0%,62.352941%);fill-opacity:1;" d="M 106.9375 94.617188 C 107.84375 93.894531 108.917969 93.71875 109.964844 94.152344 C 110.871094 94.476562 110.605469 94.039062 117.410156 105.386719 C 120.996094 111.320312 122.613281 114.367188 122.695312 115.046875 C 122.78125 115.734375 122.628906 116.277344 122.148438 116.945312 C 121.597656 117.75 121.3125 117.921875 120.332031 118.042969 C 118.796875 118.234375 117.832031 117.523438 116.804688 115.527344 L 116.085938 114.144531 L 110.949219 114.792969 L 105.808594 115.421875 L 105.546875 116.707031 C 105.382812 117.464844 104.945312 118.566406 104.65625 119.039062 C 103.710938 120.5 101.78125 120.6875 100.382812 119.515625 C 99.125 118.457031 99.269531 117.652344 102.855469 106.058594 C 105.730469 96.765625 106.308594 95.128906 106.9375 94.617188 Z M 106.9375 94.617188 "/>
<path style=" stroke:none;fill-rule:nonzero;fill:rgb(100%,100%,100%);fill-opacity:1;" d="M 109.539062 102.679688 C 109.730469 102.828125 113.121094 108.914062 113.148438 109.128906 C 113.167969 109.296875 111.902344 109.542969 110.28125 109.746094 C 108.066406 110.019531 107.417969 110.011719 107.472656 109.746094 C 107.535156 109.5625 107.980469 107.902344 108.523438 106.011719 C 109.074219 104.167969 109.535156 102.636719 109.539062 102.679688 Z M 109.539062 102.679688 "/>
<path style="fill:none;stroke-width:7.5;stroke-linecap:butt;stroke-linejoin:miter;stroke:rgb(36.078431%,0%,62.352941%);stroke-opacity:1;stroke-miterlimit:10;" d="M 320.899238 147.447527 C 321.688989 141.898698 326.829227 138.037369 332.379039 138.828385 C 337.92885 139.6194 341.787458 144.758073 340.997707 150.308855 C 340.207957 155.859637 335.067718 159.71706 329.517907 158.927997 C 323.968096 158.136982 320.109487 152.998309 320.899238 147.447527 Z M 320.899238 147.447527 " transform="matrix(1.993311,0,0,2,-177.898075,-210.30516)"/>
<path style="fill:none;stroke-width:7.5;stroke-linecap:butt;stroke-linejoin:miter;stroke:rgb(36.078431%,0%,62.352941%);stroke-opacity:1;stroke-miterlimit:10;" d="M 308.461155 163.476826 C 309.250905 157.924091 314.391144 154.064715 319.940955 154.855731 C 325.490766 155.646747 329.349375 160.785419 328.559624 166.336202 C 327.769873 171.886984 322.629635 175.744406 317.079823 174.955344 C 311.530012 174.166281 307.671404 169.025655 308.461155 163.476826 Z M 308.461155 163.476826 " transform="matrix(1.993311,0,0,2,-177.898075,-210.30516)"/>
<path style="fill:none;stroke-width:7.5;stroke-linecap:butt;stroke-linejoin:miter;stroke:rgb(36.078431%,0%,62.352941%);stroke-opacity:1;stroke-miterlimit:10;" d="M 328.371495 166.308858 C 329.161245 160.760029 334.299524 156.8987 339.851295 157.689716 C 345.401107 158.480732 349.259715 163.619404 348.469964 169.170187 C 347.680213 174.720969 342.539975 178.578391 336.990164 177.789329 C 331.440352 177.000266 327.579784 171.85964 328.371495 166.308858 Z M 328.371495 166.308858 " transform="matrix(1.993311,0,0,2,-177.898075,-210.30516)"/>
<path style=" stroke:none;fill-rule:nonzero;fill:rgb(0%,100%,0.392157%);fill-opacity:1;" d="M 461.753906 84.589844 C 463.328125 73.492188 473.574219 65.769531 484.636719 67.351562 C 495.699219 68.933594 503.390625 79.210938 501.816406 90.3125 C 500.242188 101.414062 489.996094 109.128906 478.933594 107.550781 C 467.871094 105.96875 460.179688 95.691406 461.753906 84.589844 Z M 461.753906 84.589844 "/>
<path style=" stroke:none;fill-rule:nonzero;fill:rgb(100%,0%,0%);fill-opacity:1;" d="M 436.960938 116.648438 C 438.535156 105.542969 448.78125 97.824219 459.84375 99.40625 C 470.90625 100.988281 478.597656 111.265625 477.023438 122.367188 C 475.449219 133.46875 465.203125 141.183594 454.140625 139.605469 C 443.078125 138.027344 435.386719 127.746094 436.960938 116.648438 Z M 436.960938 116.648438 "/>
<path style=" stroke:none;fill-rule:nonzero;fill:rgb(0%,44.313725%,100%);fill-opacity:1;" d="M 476.648438 122.3125 C 478.222656 111.214844 488.464844 103.492188 499.53125 105.074219 C 510.59375 106.65625 518.285156 116.933594 516.710938 128.035156 C 515.136719 139.136719 504.890625 146.851562 493.828125 145.273438 C 482.765625 143.695312 475.070312 133.414062 476.648438 122.3125 Z M 476.648438 122.3125 "/>
</g>
</svg>
