<?xml version="1.0" encoding="UTF-8"?>
<svg xmlns="http://www.w3.org/2000/svg" xmlns:xlink="http://www.w3.org/1999/xlink" width="600px" height="299px" viewBox="0 0 596 299" version="1.1">
<g id="surface1">
<path style=" stroke:none;fill-rule:nonzero;fill:rgb(58.039216%,0%,100%);fill-opacity:1;" d="M 0 298.195312 L 0.0976562 0 L 596.992188 0.195312 L 596.992188 298.195312 Z M 0 298.195312 "/>
<path style=" stroke:none;fill-rule:nonzero;fill:rgb(52.941176%,0%,90.588235%);fill-opacity:1;" d="M 596.992188 0.195312 L 596.992188 36.875 L 578.433594 18.3125 L 541.203125 55.542969 L 485.121094 55.542969 L 540.46875 0.195312 Z M 596.992188 0.195312 "/>
<path style=" stroke:none;fill-rule:nonzero;fill:rgb(52.941176%,0%,90.588235%);fill-opacity:1;" d="M 56.523438 0.195312 L 111.871094 55.542969 L 55.789062 55.542969 L 18.5625 18.3125 L 0 36.875 L 0.03125 0.0351562 Z M 56.523438 0.195312 "/>
<path style=" stroke:none;fill-rule:nonzero;fill:rgb(52.941176%,0%,90.588235%);fill-opacity:1;" d="M 242.695312 55.542969 L 205.46875 18.3125 L 168.238281 55.542969 L 112.15625 55.542969 L 167.503906 0.195312 L 243.429688 0.195312 L 298.777344 55.542969 Z M 242.695312 55.542969 "/>
<path style=" stroke:none;fill-rule:nonzero;fill:rgb(52.941176%,0%,90.588235%);fill-opacity:1;" d="M 428.753906 55.542969 L 391.527344 18.3125 L 354.296875 55.542969 L 298.214844 55.542969 L 353.5625 0.195312 L 429.488281 0.195312 L 484.835938 55.542969 Z M 428.753906 55.542969 "/>
<path style=" stroke:none;fill-rule:nonzero;fill:rgb(52.941176%,0%,90.588235%);fill-opacity:1;" d="M 485.121094 149.011719 L 578.433594 55.699219 L 596.992188 74.261719 L 596.992188 130.34375 L 578.433594 111.78125 L 541.203125 149.011719 Z M 485.121094 149.011719 "/>
<path style=" stroke:none;fill-rule:nonzero;fill:rgb(52.941176%,0%,90.588235%);fill-opacity:1;" d="M 55.789062 149.011719 L 18.5625 111.78125 L 0 130.34375 L 0 74.261719 L 18.5625 55.699219 L 111.871094 149.011719 Z M 55.789062 149.011719 "/>
<path style=" stroke:none;fill-rule:nonzero;fill:rgb(52.941176%,0%,90.588235%);fill-opacity:1;" d="M 242.695312 149.011719 L 205.46875 111.78125 L 168.238281 149.011719 L 112.15625 149.011719 L 205.46875 55.699219 L 298.777344 149.011719 Z M 242.695312 149.011719 "/>
<path style=" stroke:none;fill-rule:nonzero;fill:rgb(52.941176%,0%,90.588235%);fill-opacity:1;" d="M 428.753906 149.011719 L 391.527344 111.78125 L 354.296875 149.011719 L 298.214844 149.011719 L 391.527344 55.699219 L 484.835938 149.011719 Z M 428.753906 149.011719 "/>
<path style=" stroke:none;fill-rule:nonzero;fill:rgb(52.941176%,0%,90.588235%);fill-opacity:1;" d="M 485.121094 242.480469 L 578.433594 149.167969 L 596.992188 167.730469 L 596.992188 223.8125 L 578.433594 205.25 L 541.203125 242.480469 Z M 485.121094 242.480469 "/>
<path style=" stroke:none;fill-rule:nonzero;fill:rgb(52.941176%,0%,90.588235%);fill-opacity:1;" d="M 55.789062 242.480469 L 18.5625 205.25 L 0 223.8125 L 0 167.730469 L 18.5625 149.167969 L 111.871094 242.480469 Z M 55.789062 242.480469 "/>
<path style=" stroke:none;fill-rule:nonzero;fill:rgb(52.941176%,0%,90.588235%);fill-opacity:1;" d="M 242.695312 242.480469 L 205.46875 205.25 L 168.238281 242.480469 L 112.15625 242.480469 L 205.46875 149.167969 L 298.777344 242.480469 Z M 242.695312 242.480469 "/>
<path style=" stroke:none;fill-rule:nonzero;fill:rgb(52.941176%,0%,90.588235%);fill-opacity:1;" d="M 428.753906 242.480469 L 391.527344 205.25 L 354.296875 242.480469 L 298.214844 242.480469 L 391.527344 149.167969 L 484.835938 242.480469 Z M 428.753906 242.480469 "/>
<path style=" stroke:none;fill-rule:nonzero;fill:rgb(52.941176%,0%,90.588235%);fill-opacity:1;" d="M 522.875 298.195312 L 578.433594 242.636719 L 596.992188 261.199219 L 596.808594 298.003906 Z M 522.875 298.195312 "/>
<path style=" stroke:none;fill-rule:nonzero;fill:rgb(52.941176%,0%,90.588235%);fill-opacity:1;" d="M 0 298.195312 L 0 261.199219 L 18.5625 242.636719 L 74.121094 298.195312 Z M 0 298.195312 "/>
<path style=" stroke:none;fill-rule:nonzero;fill:rgb(52.941176%,0%,90.588235%);fill-opacity:1;" d="M 205.46875 242.636719 L 261.027344 298.195312 L 149.910156 298.195312 Z M 205.46875 242.636719 "/>
<path style=" stroke:none;fill-rule:nonzero;fill:rgb(52.941176%,0%,90.588235%);fill-opacity:1;" d="M 391.527344 242.636719 L 447.085938 298.195312 L 335.96875 298.195312 Z M 391.527344 242.636719 "/>
<path style=" stroke:none;fill-rule:nonzero;fill:rgb(52.941176%,0%,90.588235%);fill-opacity:1;" d="M 56.300781 148.300781 L 167.691406 148.300781 L 111.996094 203.996094 Z M 56.300781 148.300781 "/>
<path style=" stroke:none;fill-rule:nonzero;fill:rgb(52.941176%,0%,90.588235%);fill-opacity:1;" d="M 242.613281 148.300781 L 354.003906 148.300781 L 298.308594 203.996094 Z M 242.613281 148.300781 "/>
<path style=" stroke:none;fill-rule:nonzero;fill:rgb(52.941176%,0%,90.588235%);fill-opacity:1;" d="M 428.550781 148.300781 L 540.9375 148.300781 L 484.246094 203.996094 Z M 428.550781 148.300781 "/>
<path style=" stroke:none;fill-rule:nonzero;fill:rgb(52.941176%,0%,90.588235%);fill-opacity:1;" d="M 241.617188 241.15625 L 355 241.15625 L 298.308594 296.851562 Z M 241.617188 241.15625 "/>
<path style=" stroke:none;fill-rule:nonzero;fill:rgb(52.941176%,0%,90.588235%);fill-opacity:1;" d="M 427.554688 241.28125 L 541.933594 241.28125 L 484.246094 296.976562 Z M 427.554688 241.28125 "/>
<path style=" stroke:none;fill-rule:nonzero;fill:rgb(52.941176%,0%,90.588235%);fill-opacity:1;" d="M 54.679688 241.15625 L 169.058594 241.15625 L 112.367188 296.851562 Z M 54.679688 241.15625 "/>
<path style=" stroke:none;fill-rule:nonzero;fill:rgb(52.941176%,0%,90.588235%);fill-opacity:1;" d="M 55.675781 54.492188 L 169.058594 54.492188 L 113.367188 110.1875 Z M 55.675781 54.492188 "/>
<path style=" stroke:none;fill-rule:nonzero;fill:rgb(52.941176%,0%,90.588235%);fill-opacity:1;" d="M 241.617188 54.492188 L 355 54.492188 L 298.308594 110.1875 Z M 241.617188 54.492188 "/>
<path style=" stroke:none;fill-rule:nonzero;fill:rgb(52.941176%,0%,90.588235%);fill-opacity:1;" d="M 427.554688 54.492188 L 541.933594 54.492188 L 484.246094 110.1875 Z M 427.554688 54.492188 "/>
<path style=" stroke:none;fill-rule:nonzero;fill:rgb(52.941176%,0%,90.588235%);fill-opacity:1;" d="M 111.996094 18.8125 L 93.378906 0.195312 L 130.609375 0.195312 Z M 111.996094 18.8125 "/>
<path style=" stroke:none;fill-rule:nonzero;fill:rgb(52.941176%,0%,90.588235%);fill-opacity:1;" d="M 298.929688 18.8125 L 280.316406 0.195312 L 317.546875 0.195312 Z M 298.929688 18.8125 "/>
<path style=" stroke:none;fill-rule:nonzero;fill:rgb(52.941176%,0%,90.588235%);fill-opacity:1;" d="M 485.867188 18.8125 L 467.25 0.195312 L 504.480469 0.195312 Z M 485.867188 18.8125 "/>
<path style="fill:none;stroke-width:10;stroke-linecap:square;stroke-linejoin:miter;stroke:rgb(36.078431%,0%,62.352941%);stroke-opacity:1;stroke-miterlimit:10;" d="M 131.184657 206.668701 C 131.184657 210.109859 129.695301 212.726002 126.720508 214.515169 C 128.343123 215.108945 129.70118 216.133846 130.794681 217.591831 C 131.884263 219.049816 132.431013 221.111375 132.431013 223.776509 C 132.431013 226.441643 131.445295 228.554153 129.471898 230.110121 C 127.50438 231.662169 124.682442 232.438194 121.010003 232.438194 L 109.287203 232.438194 C 108.728694 232.438194 108.26621 232.250066 107.89975 231.873812 C 107.53329 231.491679 107.35104 230.984128 107.35104 230.353118 L 107.35104 198.571398 C 107.35104 198.210821 107.40983 197.973702 107.525451 197.856123 C 107.643032 197.740503 107.884073 197.681714 108.248573 197.681714 L 119.571599 197.681714 C 127.312331 197.681714 131.184657 200.678029 131.184657 206.668701 Z M 116.884879 205.728066 L 116.884879 212.230209 L 117.135718 212.230209 C 120.312358 212.230209 121.897738 211.171994 121.897738 209.055564 C 121.897738 207.895447 121.590068 207.054754 120.976689 206.527606 C 120.367229 205.994579 119.352115 205.728066 117.933307 205.728066 Z M 116.884879 218.089584 L 116.884879 224.540775 L 117.784372 224.540775 C 119.209058 224.540775 120.249648 224.278181 120.91006 223.751033 C 121.568512 223.219966 121.897738 222.375354 121.897738 221.215237 C 121.897738 220.059039 121.590068 219.249701 120.976689 218.789181 C 120.367229 218.322783 119.352115 218.089584 117.933307 218.089584 Z M 146.779784 232.935946 C 143.5032 232.935946 140.738093 231.820901 138.482502 229.586892 C 136.232791 227.347004 135.107935 224.252705 135.107935 220.302037 C 135.107935 216.343529 136.191637 213.159086 138.357083 210.740869 C 140.530367 208.324612 143.269998 207.117463 146.579896 207.117463 C 149.887835 207.117463 152.443256 207.962075 154.244201 209.653259 C 156.051026 211.338565 156.954438 213.388366 156.954438 215.804623 C 156.954438 221.168205 153.875782 223.850976 147.71847 223.850976 L 144.292951 223.850976 C 144.292951 224.842562 144.565346 225.530402 145.108177 225.912535 C 145.656887 226.290749 146.464275 226.478876 147.528381 226.478876 C 149.844722 226.478876 152.043482 225.949769 154.12858 224.889594 C 154.161895 224.858239 154.31083 225.089479 154.575387 225.589192 C 155.369057 227.013862 155.764912 228.213173 155.764912 229.187122 C 155.764912 230.164991 155.451364 230.79992 154.826226 231.099748 C 154.826226 231.099748 150.054407 232.935946 146.779784 232.935946 Z M 148.616003 216.753097 C 148.616003 215.361741 147.937954 214.666062 146.579896 214.666062 C 145.952799 214.666062 145.415847 214.856149 144.96708 215.238282 C 144.518314 215.616496 144.292951 216.16716 144.292951 216.894193 L 144.292951 218.438403 L 146.977711 218.438403 C 148.071212 218.438403 148.616003 217.875981 148.616003 216.753097 Z M 171.608918 232.138366 C 171.608918 232.538136 170.217546 232.738021 167.434801 232.738021 C 164.126863 232.604764 162.472894 232.389202 162.472894 232.089375 L 162.472894 214.515169 L 159.937069 214.515169 C 159.272738 214.515169 158.939593 213.374648 158.939593 211.091648 C 158.939593 210.491993 158.998383 209.76496 159.114004 208.90467 C 159.229625 208.040461 159.472625 207.607377 159.837126 207.607377 L 162.472894 207.607377 L 162.472894 203.24518 C 162.472894 202.578897 163.868185 202.245755 166.662688 202.245755 C 169.46111 202.245755 170.860321 202.512269 170.860321 203.043336 L 170.860321 206.21994 L 170.909313 207.607377 L 175.134381 207.607377 C 175.692889 207.607377 175.973123 208.769454 175.973123 211.091648 C 175.973123 213.407963 175.692889 214.56612 175.134381 214.56612 L 171.608918 214.56612 Z M 189.880966 232.138366 C 189.880966 232.538136 188.489594 232.738021 185.706849 232.738021 C 182.398911 232.604764 180.744942 232.389202 180.744942 232.089375 L 180.744942 214.515169 L 178.209117 214.515169 C 177.544786 214.515169 177.211641 213.374648 177.211641 211.091648 C 177.211641 210.491993 177.270431 209.76496 177.386052 208.90467 C 177.503633 208.040461 177.744673 207.607377 178.109174 207.607377 L 180.744942 207.607377 L 180.744942 203.24518 C 180.744942 202.578897 182.140234 202.245755 184.934736 202.245755 C 187.733158 202.245755 189.132369 202.512269 189.132369 203.043336 L 189.132369 206.21994 L 189.18332 207.607377 L 193.406429 207.607377 C 193.964937 207.607377 194.245171 208.769454 194.245171 211.091648 C 194.245171 213.407963 193.964937 214.56612 193.406429 214.56612 L 189.880966 214.56612 Z M 215.501811 231.099748 C 213.412793 232.324533 210.729992 232.935946 207.455368 232.935946 C 204.178785 232.935946 201.413678 231.820901 199.158087 229.586892 C 196.908375 227.347004 195.783519 224.252705 195.783519 220.302037 C 195.783519 216.343529 196.867222 213.159086 199.034627 210.740869 C 201.205952 208.324612 203.945583 207.117463 207.255481 207.117463 C 210.563419 207.117463 213.118841 207.962075 214.919786 209.653259 C 216.72661 211.338565 217.630022 213.388366 217.630022 215.804623 C 217.630022 221.168205 214.551366 223.850976 208.394055 223.850976 L 204.968535 223.850976 C 204.968535 224.842562 205.240931 225.530402 205.783762 225.912535 C 206.332472 226.290749 207.1379 226.478876 208.203966 226.478876 C 210.520306 226.478876 212.719066 225.949769 214.802205 224.889594 C 214.83552 224.858239 214.986415 225.089479 215.252931 225.589192 C 216.044642 227.013862 216.440497 228.213173 216.440497 229.187122 C 216.440497 230.164991 216.126948 230.79992 215.501811 231.099748 Z M 209.291588 216.753097 C 209.291588 215.361741 208.613539 214.666062 207.255481 214.666062 C 206.628384 214.666062 206.091432 214.856149 205.642665 215.238282 C 205.193899 215.616496 204.968535 216.16716 204.968535 216.894193 L 204.968535 218.438403 L 207.655256 218.438403 C 208.746797 218.438403 209.291588 217.875981 209.291588 216.753097 Z M 231.735792 232.389202 C 231.735792 232.622401 230.228799 232.738021 227.214813 232.738021 C 224.204746 232.671393 222.699712 232.538136 222.699712 232.338251 L 222.699712 215.855574 L 221.361251 215.855574 C 220.828219 215.855574 220.404928 215.534191 220.089419 214.891423 C 219.773911 214.240817 219.615177 213.437357 219.615177 212.479085 C 219.615177 208.90467 220.677323 207.117463 222.799656 207.117463 C 224.290971 207.117463 225.531448 207.572103 226.523046 208.481384 C 227.514644 209.388706 228.012402 210.423405 228.012402 211.581562 C 228.704169 210.22352 229.638936 209.139829 230.812784 208.330491 C 231.988591 207.523112 233.187915 207.117463 234.412714 207.117463 C 236.335159 207.117463 237.495289 207.613256 237.897024 208.604843 C 237.989128 208.871356 238.036161 209.263288 238.036161 209.776718 C 238.036161 210.286229 237.879386 211.205308 237.561918 212.528076 C 237.252289 213.854764 236.930902 214.814996 236.597756 215.412692 C 236.266571 216.006468 236.066683 216.302376 236.000054 216.302376 C 235.939304 216.302376 235.633594 216.178918 235.086844 215.930041 C 234.536174 215.679205 234.050173 215.555747 233.622963 215.555747 C 232.364849 215.555747 231.735792 216.549293 231.735792 218.540305 Z M 253.384368 223.901927 L 253.384368 206.21994 L 249.858905 206.21994 C 249.294517 206.21994 248.894743 205.506625 248.663501 204.083914 C 248.567476 203.390195 248.522404 202.680799 248.522404 201.955726 C 248.522404 201.224774 248.567476 200.511459 248.663501 199.81774 C 248.894743 198.395029 249.294517 197.681714 249.858905 197.681714 L 266.543613 197.681714 C 267.102121 197.681714 267.482299 198.395029 267.682186 199.81774 C 267.815445 200.511459 267.882074 201.224774 267.882074 201.955726 C 267.882074 202.680799 267.815445 203.390195 267.682186 204.083914 C 267.482299 205.506625 267.102121 206.21994 266.543613 206.21994 L 263.218037 206.21994 L 263.218037 223.901927 L 266.692548 223.901927 C 267.253017 223.901927 267.648872 224.611323 267.882074 226.028155 C 268.015332 226.727752 268.081961 227.443027 268.081961 228.173979 C 268.081961 228.899053 268.015332 229.610408 267.882074 230.302167 C 267.648872 231.726838 267.253017 232.438194 266.692548 232.438194 L 249.958848 232.438194 C 249.394461 232.438194 249.012323 231.726838 248.812436 230.302167 C 248.679178 229.610408 248.612549 228.899053 248.612549 228.173979 C 248.612549 227.443027 248.679178 226.727752 248.812436 226.028155 C 249.012323 224.611323 249.394461 223.901927 249.958848 223.901927 Z M 281.535158 232.138366 C 281.535158 232.371565 280.343673 232.489145 277.960703 232.489145 C 274.652765 232.389202 272.998796 232.204994 272.998796 231.938481 L 272.998796 215.855574 L 271.701488 215.855574 C 270.841189 215.855574 270.280721 215.124622 270.014205 213.668597 C 269.947575 213.241392 269.914261 212.812227 269.914261 212.379143 C 269.914261 211.354242 270.114148 210.329341 270.511963 209.30444 C 271.111625 207.846455 272.038553 207.117463 273.296667 207.117463 C 274.554781 207.117463 275.679637 207.41729 276.673194 208.014986 C 277.664792 208.608762 278.325204 209.200579 278.658349 209.794355 C 280.743448 208.009107 283.222442 207.117463 286.099251 207.117463 C 288.981939 207.117463 291.067037 207.895447 292.358466 209.453374 C 293.649894 211.005423 294.296588 213.551018 294.296588 217.094078 L 294.296588 231.989432 C 294.296588 232.389202 292.87974 232.589087 290.048004 232.589087 C 287.220187 232.589087 285.809218 232.389202 285.809218 231.989432 L 285.809218 217.640822 C 285.809218 215.984912 285.229153 215.155977 284.070983 215.155977 C 283.737837 215.155977 283.271434 215.297072 282.673732 215.579263 C 282.081908 215.863413 281.701731 216.071137 281.535158 216.204393 Z M 309.194069 241.474173 C 309.194069 241.707372 307.777221 241.822992 304.945485 241.822992 C 302.117668 241.822992 300.706699 241.707372 300.706699 241.474173 L 300.706699 215.904566 L 299.017455 215.904566 C 298.219866 215.904566 297.671156 215.175573 297.371325 213.717588 C 297.271381 213.259029 297.222389 212.665252 297.222389 211.93822 C 297.222389 211.207268 297.455591 210.345018 297.921995 209.353432 C 298.586326 207.895447 299.644553 207.168414 301.096675 207.168414 C 302.060837 207.168414 302.948572 207.391815 303.755959 207.840576 C 304.565307 208.283459 305.127735 208.696947 305.445203 209.07908 C 305.760711 209.455334 305.917485 209.676775 305.917485 209.743404 C 308.133883 208.026744 310.534489 207.168414 313.117347 207.168414 C 315.700204 207.168414 317.916601 208.167839 319.766538 210.168649 C 321.624314 212.169459 322.551242 215.263758 322.551242 219.453505 C 322.551242 223.643252 321.624314 226.888444 319.766538 229.187122 C 317.916601 231.48776 315.566945 232.638079 312.717572 232.638079 C 311.426143 232.638079 310.252296 232.57145 309.194069 232.438194 Z M 311.230176 215.855574 C 310.663828 215.855574 310.119038 216.037822 309.591884 216.402319 L 309.591884 225.189422 C 310.152352 225.25605 310.606998 225.289364 310.95582 225.289364 C 311.304643 225.289364 311.578998 225.289364 311.778886 225.289364 C 313.131064 225.156107 313.807154 223.419851 313.807154 220.076676 C 313.807154 217.262608 312.946854 215.855574 311.230176 215.855574 Z M 325.827825 207.907205 C 325.827825 207.546628 327.248593 207.366339 330.092087 207.366339 C 332.94146 207.366339 334.366147 207.546628 334.366147 207.907205 L 334.366147 222.404749 C 334.366147 224.062619 334.895261 224.889594 335.951528 224.889594 C 336.751077 224.889594 337.64665 224.544694 338.638248 223.850976 L 338.638248 207.907205 C 338.638248 207.579942 340.043338 207.41729 342.851558 207.41729 C 345.667617 207.41729 347.076626 207.579942 347.076626 207.907205 L 347.076626 224.191956 L 348.371974 224.191956 C 349.49683 224.191956 350.059257 225.269768 350.059257 227.42539 C 350.059257 228.516919 349.828015 229.626085 349.361612 230.750929 C 348.7012 232.208914 347.809546 232.935946 346.68469 232.935946 C 344.462414 232.935946 342.822163 232.026665 341.763936 230.202225 L 341.712984 230.253176 C 339.696474 232.042343 337.529069 232.935946 335.212729 232.935946 C 331.998855 232.935946 329.629603 232.134447 328.104972 230.527528 C 326.586221 228.920609 325.827825 226.261354 325.827825 222.555642 Z M 364.509931 232.138366 C 364.509931 232.538136 363.118559 232.738021 360.337774 232.738021 C 357.027876 232.604764 355.373907 232.389202 355.373907 232.089375 L 355.373907 214.515169 L 352.838082 214.515169 C 352.173751 214.515169 351.840606 213.374648 351.840606 211.091648 C 351.840606 210.491993 351.899396 209.76496 352.015017 208.90467 C 352.132598 208.040461 352.373638 207.607377 352.740098 207.607377 L 355.373907 207.607377 L 355.373907 203.24518 C 355.373907 202.578897 356.771158 202.245755 359.563701 202.245755 C 362.362123 202.245755 363.761334 202.512269 363.761334 203.043336 L 363.761334 206.21994 L 363.812285 207.607377 L 368.035394 207.607377 C 368.593902 207.607377 368.874137 208.769454 368.874137 211.091648 C 368.874137 213.407963 368.593902 214.56612 368.035394 214.56612 L 364.509931 214.56612 Z M 364.509931 232.138366 " transform="matrix(1.993311,0,0,1.993333,-179.898075,-209.604143)"/>
<path style=" stroke:none;fill-rule:nonzero;fill:rgb(100%,100%,100%);fill-opacity:1;" d="M 81.695312 202.355469 C 81.695312 209.214844 78.726562 214.429688 72.796875 217.996094 C 76.03125 219.179688 78.742188 221.222656 80.914062 224.128906 C 83.09375 227.035156 84.179688 231.144531 84.179688 236.457031 C 84.179688 241.769531 82.214844 245.980469 78.28125 249.082031 C 74.359375 252.175781 68.738281 253.722656 61.414062 253.722656 L 38.050781 253.722656 C 36.933594 253.722656 36.011719 253.347656 35.28125 252.597656 C 34.550781 251.835938 34.1875 250.824219 34.1875 249.566406 L 34.1875 186.214844 C 34.1875 185.496094 34.304688 185.023438 34.535156 184.789062 C 34.769531 184.558594 35.25 184.441406 35.976562 184.441406 L 58.546875 184.441406 C 73.980469 184.441406 81.695312 190.414062 81.695312 202.355469 Z M 53.195312 200.480469 L 53.195312 213.441406 L 53.691406 213.441406 C 60.023438 213.441406 63.1875 211.332031 63.1875 207.113281 C 63.1875 204.800781 62.574219 203.125 61.347656 202.074219 C 60.132812 201.011719 58.109375 200.480469 55.28125 200.480469 Z M 53.195312 225.121094 L 53.195312 237.980469 L 54.984375 237.980469 C 57.824219 237.980469 59.898438 237.457031 61.214844 236.40625 C 62.527344 235.347656 63.1875 233.664062 63.1875 231.351562 C 63.1875 229.046875 62.574219 227.433594 61.347656 226.515625 C 60.132812 225.585938 58.109375 225.121094 55.28125 225.121094 Z M 128.820312 251.054688 C 124.65625 253.496094 119.308594 254.714844 112.78125 254.714844 C 106.25 254.714844 100.738281 252.492188 96.242188 248.039062 C 91.757812 243.574219 89.515625 237.40625 89.515625 229.53125 C 89.515625 221.640625 91.675781 215.292969 95.996094 210.472656 C 100.324219 205.65625 105.789062 203.25 112.382812 203.25 C 118.976562 203.25 124.070312 204.933594 127.660156 208.304688 C 131.261719 211.664062 133.0625 215.75 133.0625 220.566406 C 133.0625 231.257812 126.925781 236.605469 114.652344 236.605469 L 107.824219 236.605469 C 107.824219 238.582031 108.367188 239.953125 109.449219 240.714844 C 110.542969 241.46875 112.148438 241.84375 114.273438 241.84375 C 118.890625 241.84375 123.273438 240.789062 127.425781 238.675781 C 127.492188 238.613281 127.792969 239.074219 128.324219 240.070312 C 129.902344 242.910156 130.691406 245.300781 130.691406 247.242188 C 130.691406 249.191406 130.070312 250.457031 128.820312 251.054688 Z M 116.441406 222.457031 C 116.441406 219.683594 115.089844 218.296875 112.382812 218.296875 C 111.132812 218.296875 110.0625 218.675781 109.167969 219.4375 C 108.273438 220.191406 107.824219 221.289062 107.824219 222.738281 L 107.824219 225.816406 L 113.179688 225.816406 C 115.355469 225.816406 116.441406 224.695312 116.441406 222.457031 Z M 162.273438 253.125 C 162.273438 253.921875 159.5 254.320312 153.957031 254.320312 C 147.359375 254.054688 144.0625 253.625 144.0625 253.027344 L 144.0625 217.996094 L 139.007812 217.996094 C 137.683594 217.996094 137.019531 215.722656 137.019531 211.171875 C 137.019531 209.976562 137.136719 208.527344 137.367188 206.8125 C 137.601562 205.089844 138.082031 204.226562 138.8125 204.226562 L 144.0625 204.226562 L 144.0625 195.527344 C 144.0625 194.203125 146.847656 193.539062 152.414062 193.539062 C 157.992188 193.539062 160.78125 194.070312 160.78125 195.128906 L 160.78125 201.460938 L 160.878906 204.226562 L 169.300781 204.226562 C 170.414062 204.226562 170.972656 206.542969 170.972656 211.171875 C 170.972656 215.789062 170.414062 218.097656 169.300781 218.097656 L 162.273438 218.097656 Z M 198.695312 253.125 C 198.695312 253.921875 195.921875 254.320312 190.378906 254.320312 C 183.78125 254.054688 180.484375 253.625 180.484375 253.027344 L 180.484375 217.996094 L 175.429688 217.996094 C 174.105469 217.996094 173.441406 215.722656 173.441406 211.171875 C 173.441406 209.976562 173.558594 208.527344 173.789062 206.8125 C 174.023438 205.089844 174.503906 204.226562 175.234375 204.226562 L 180.484375 204.226562 L 180.484375 195.527344 C 180.484375 194.203125 183.269531 193.539062 188.835938 193.539062 C 194.414062 193.539062 197.203125 194.070312 197.203125 195.128906 L 197.203125 201.460938 L 197.304688 204.226562 L 205.722656 204.226562 C 206.835938 204.226562 207.394531 206.542969 207.394531 211.171875 C 207.394531 215.789062 206.835938 218.097656 205.722656 218.097656 L 198.695312 218.097656 Z M 249.765625 251.054688 C 245.601562 253.496094 240.253906 254.714844 233.726562 254.714844 C 227.195312 254.714844 221.683594 252.492188 217.1875 248.039062 C 212.703125 243.574219 210.460938 237.40625 210.460938 229.53125 C 210.460938 221.640625 212.621094 215.292969 216.941406 210.472656 C 221.269531 205.65625 226.734375 203.25 233.328125 203.25 C 239.925781 203.25 245.015625 204.933594 248.605469 208.304688 C 252.207031 211.664062 254.007812 215.75 254.007812 220.566406 C 254.007812 231.257812 247.871094 236.605469 235.597656 236.605469 L 228.773438 236.605469 C 228.773438 238.582031 229.3125 239.953125 230.394531 240.714844 C 231.488281 241.46875 233.09375 241.84375 235.214844 241.84375 C 239.835938 241.84375 244.21875 240.789062 248.375 238.675781 C 248.441406 238.613281 248.738281 239.074219 249.269531 240.070312 C 250.847656 242.910156 251.640625 245.300781 251.640625 247.242188 C 251.640625 249.191406 251.015625 250.457031 249.765625 251.054688 Z M 237.386719 222.457031 C 237.386719 219.683594 236.035156 218.296875 233.328125 218.296875 C 232.078125 218.296875 231.007812 218.675781 230.113281 219.4375 C 229.21875 220.191406 228.773438 221.289062 228.773438 222.738281 L 228.773438 225.816406 L 234.125 225.816406 C 236.300781 225.816406 237.386719 224.695312 237.386719 222.457031 Z M 282.125 253.625 C 282.125 254.089844 279.121094 254.320312 273.109375 254.320312 C 267.113281 254.1875 264.113281 253.921875 264.113281 253.523438 L 264.113281 220.667969 L 261.445312 220.667969 C 260.386719 220.667969 259.539062 220.027344 258.910156 218.746094 C 258.28125 217.449219 257.964844 215.847656 257.964844 213.9375 C 257.964844 206.8125 260.082031 203.25 264.3125 203.25 C 267.285156 203.25 269.757812 204.15625 271.738281 205.96875 C 273.714844 207.777344 274.703125 209.839844 274.703125 212.148438 C 276.082031 209.441406 277.945312 207.28125 280.285156 205.667969 C 282.628906 204.058594 285.019531 203.25 287.460938 203.25 C 291.292969 203.25 293.609375 204.238281 294.402344 206.214844 C 294.59375 206.746094 294.6875 207.527344 294.6875 208.550781 C 294.6875 209.566406 294.371094 211.398438 293.742188 214.035156 C 293.121094 216.679688 292.480469 218.59375 291.820312 219.785156 C 291.15625 220.96875 290.757812 221.558594 290.625 221.558594 C 290.503906 221.558594 289.894531 221.3125 288.804688 220.816406 C 287.710938 220.316406 286.738281 220.070312 285.886719 220.070312 C 283.378906 220.070312 282.125 222.050781 282.125 226.019531 Z M 325.277344 236.707031 L 325.277344 201.460938 L 318.253906 201.460938 C 317.125 201.460938 316.332031 200.039062 315.867188 197.203125 C 315.679688 195.820312 315.585938 194.40625 315.585938 192.960938 C 315.585938 191.503906 315.679688 190.082031 315.867188 188.699219 C 316.332031 185.863281 317.125 184.441406 318.253906 184.441406 L 351.507812 184.441406 C 352.625 184.441406 353.382812 185.863281 353.777344 188.699219 C 354.042969 190.082031 354.175781 191.503906 354.175781 192.960938 C 354.175781 194.40625 354.042969 195.820312 353.777344 197.203125 C 353.382812 200.039062 352.625 201.460938 351.507812 201.460938 L 344.882812 201.460938 L 344.882812 236.707031 L 351.804688 236.707031 C 352.921875 236.707031 353.710938 238.121094 354.175781 240.945312 C 354.441406 242.339844 354.574219 243.765625 354.574219 245.222656 C 354.574219 246.667969 354.441406 248.082031 354.175781 249.464844 C 353.710938 252.304688 352.921875 253.722656 351.804688 253.722656 L 318.453125 253.722656 C 317.324219 253.722656 316.5625 252.304688 316.164062 249.464844 C 315.898438 248.082031 315.765625 246.667969 315.765625 245.222656 C 315.765625 243.765625 315.898438 242.339844 316.164062 240.945312 C 316.5625 238.121094 317.324219 236.707031 318.453125 236.707031 Z M 381.390625 253.125 C 381.390625 253.589844 379.015625 253.824219 374.265625 253.824219 C 367.671875 253.625 364.375 253.257812 364.375 252.726562 L 364.375 220.667969 L 361.789062 220.667969 C 360.078125 220.667969 358.957031 219.210938 358.425781 216.308594 C 358.292969 215.457031 358.226562 214.601562 358.226562 213.738281 C 358.226562 211.695312 358.625 209.652344 359.421875 207.609375 C 360.613281 204.703125 362.460938 203.25 364.972656 203.25 C 367.476562 203.25 369.722656 203.847656 371.699219 205.039062 C 373.675781 206.222656 374.996094 207.402344 375.65625 208.585938 C 379.8125 205.027344 384.753906 203.25 390.488281 203.25 C 396.234375 203.25 400.394531 204.800781 402.964844 207.90625 C 405.539062 211 406.828125 216.074219 406.828125 223.136719 L 406.828125 252.828125 C 406.828125 253.625 404.003906 254.023438 398.359375 254.023438 C 392.726562 254.023438 389.910156 253.625 389.910156 252.828125 L 389.910156 224.226562 C 389.910156 220.925781 388.753906 219.273438 386.445312 219.273438 C 385.78125 219.273438 384.855469 219.554688 383.660156 220.117188 C 382.480469 220.683594 381.722656 221.097656 381.390625 221.363281 Z M 436.523438 271.734375 C 436.523438 272.199219 433.699219 272.429688 428.054688 272.429688 C 422.421875 272.429688 419.605469 272.199219 419.605469 271.734375 L 419.605469 220.765625 L 416.242188 220.765625 C 414.648438 220.765625 413.554688 219.3125 412.960938 216.40625 C 412.761719 215.492188 412.660156 214.308594 412.660156 212.859375 C 412.660156 211.402344 413.125 209.683594 414.054688 207.707031 C 415.378906 204.800781 417.488281 203.351562 420.382812 203.351562 C 422.304688 203.351562 424.074219 203.796875 425.6875 204.691406 C 427.300781 205.574219 428.417969 206.398438 429.050781 207.160156 C 429.679688 207.910156 429.996094 208.351562 429.996094 208.484375 C 434.414062 205.0625 439.195312 203.351562 444.34375 203.351562 C 449.492188 203.351562 453.910156 205.34375 457.597656 209.332031 C 461.300781 213.320312 463.152344 219.488281 463.152344 227.839844 C 463.152344 236.191406 461.300781 242.660156 457.597656 247.242188 C 453.910156 251.828125 449.226562 254.121094 443.546875 254.121094 C 440.972656 254.121094 438.632812 253.988281 436.523438 253.722656 Z M 440.582031 220.667969 C 439.457031 220.667969 438.367188 221.03125 437.320312 221.757812 L 437.320312 239.273438 C 438.433594 239.40625 439.339844 239.472656 440.035156 239.472656 C 440.730469 239.472656 441.28125 239.472656 441.675781 239.472656 C 444.371094 239.207031 445.71875 235.746094 445.71875 229.082031 C 445.71875 223.472656 444.007812 220.667969 440.582031 220.667969 Z M 469.679688 204.824219 C 469.679688 204.105469 472.511719 203.746094 478.179688 203.746094 C 483.859375 203.746094 486.695312 204.105469 486.695312 204.824219 L 486.695312 233.722656 C 486.695312 237.027344 487.753906 238.675781 489.863281 238.675781 C 491.453125 238.675781 493.238281 237.988281 495.214844 236.605469 L 495.214844 204.824219 C 495.214844 204.171875 498.015625 203.847656 503.613281 203.847656 C 509.226562 203.847656 512.035156 204.171875 512.035156 204.824219 L 512.035156 237.285156 L 514.617188 237.285156 C 516.859375 237.285156 517.980469 239.433594 517.980469 243.730469 C 517.980469 245.90625 517.515625 248.117188 516.589844 250.359375 C 515.277344 253.265625 513.496094 254.714844 511.253906 254.714844 C 506.824219 254.714844 503.554688 252.902344 501.445312 249.265625 L 501.34375 249.367188 C 497.324219 252.933594 493.003906 254.714844 488.386719 254.714844 C 481.980469 254.714844 477.257812 253.117188 474.21875 249.914062 C 471.195312 246.710938 469.679688 241.410156 469.679688 234.023438 Z M 546.785156 253.125 C 546.785156 253.921875 544.011719 254.320312 538.46875 254.320312 C 531.871094 254.054688 528.574219 253.625 528.574219 253.027344 L 528.574219 217.996094 L 523.523438 217.996094 C 522.195312 217.996094 521.535156 215.722656 521.535156 211.171875 C 521.535156 209.976562 521.648438 208.527344 521.882812 206.8125 C 522.113281 205.089844 522.59375 204.226562 523.324219 204.226562 L 528.574219 204.226562 L 528.574219 195.527344 C 528.574219 194.203125 531.359375 193.539062 536.925781 193.539062 C 542.503906 193.539062 545.292969 194.070312 545.292969 195.128906 L 545.292969 201.460938 L 545.394531 204.226562 L 553.8125 204.226562 C 554.925781 204.226562 555.484375 206.542969 555.484375 211.171875 C 555.484375 215.789062 554.925781 218.097656 553.8125 218.097656 L 546.785156 218.097656 Z M 546.785156 253.125 "/>
<path style="fill:none;stroke-width:10;stroke-linecap:butt;stroke-linejoin:miter;stroke:rgb(36.078431%,0%,62.352941%);stroke-opacity:1;stroke-miterlimit:10;" d="M 245.54957 121.515718 L 253.815497 121.547072 C 261.838423 121.607821 262.081423 121.637216 262.598779 122.003672 C 264.452635 123.430303 264.42324 125.772093 262.477279 127.077225 C 261.899173 127.473075 261.626778 127.50443 259.165421 127.50443 L 256.490459 127.50443 L 256.490459 174.943811 L 259.134066 174.943811 C 262.142174 174.943811 262.873134 175.188768 263.57078 176.433151 C 264.36249 177.832346 263.966635 179.443184 262.598779 180.446529 C 262.081423 180.84042 261.838423 180.84042 253.815497 180.901169 L 245.54957 180.961918 L 244.69907 180.536673 C 243.817214 180.050678 243.027463 178.89644 243.027463 177.953845 C 243.027463 177.285602 243.785859 175.917761 244.39336 175.461161 C 244.849965 175.096664 245.24582 175.06531 247.707177 175.004561 L 250.503639 174.943811 L 250.503639 127.533825 L 247.707177 127.473075 C 245.24582 127.412326 244.849965 127.382931 244.39336 127.016475 C 243.785859 126.59123 243.027463 125.223389 243.027463 124.525751 C 243.027463 123.583156 243.785859 122.397563 244.69907 121.942923 Z M 245.54957 121.515718 " transform="matrix(1.993311,0,0,1.993333,-179.898075,-209.604143)"/>
<path style="fill:none;stroke-width:10;stroke-linecap:butt;stroke-linejoin:miter;stroke:rgb(36.078431%,0%,62.352941%);stroke-opacity:1;stroke-miterlimit:10;" d="M 226.464256 134.798274 L 247.858072 134.798274 L 247.858072 167.649967 L 226.158546 167.620572 C 204.643229 167.559823 204.459019 167.559823 203.790768 167.163972 C 203.426268 166.952329 202.940268 166.466334 202.726663 166.039129 L 202.301412 165.310136 L 202.301412 151.239798 C 202.301412 137.714244 202.332767 137.1675 202.665913 136.469862 C 203.122518 135.648765 203.396873 135.374413 204.308124 135.041271 C 204.886229 134.859023 209.019192 134.798274 226.464256 134.798274 Z M 218.80387 142.42526 C 218.31787 142.729007 217.802474 143.7931 214.974657 150.054205 C 211.449194 157.865399 211.266944 158.380789 212.058654 159.23128 C 212.93855 160.173875 214.306406 160.205229 215.096157 159.262634 C 215.339157 158.958887 215.705617 158.290644 215.887867 157.773295 L 216.221013 156.8307 L 223.514939 156.8307 L 223.940189 157.926148 C 224.488899 159.415488 225.065045 159.930877 226.158546 159.930877 C 226.858151 159.930877 227.071756 159.840733 227.526402 159.323384 C 227.922257 158.898138 228.075112 158.533642 228.075112 158.047647 C 228.075112 157.561652 227.193256 155.311965 225.186545 150.843947 C 221.388687 142.303761 221.570937 142.668257 220.963436 142.36451 C 220.263831 141.970619 219.503475 142.000014 218.80387 142.42526 Z M 218.80387 142.42526 " transform="matrix(1.993311,0,0,1.993333,-179.898075,-209.604143)"/>
<path style="fill:none;stroke-width:10;stroke-linecap:butt;stroke-linejoin:miter;stroke:rgb(32.54902%,8.235294%,49.411765%);stroke-opacity:1;stroke-miterlimit:10;" d="M 219.928726 148.261119 C 220.050226 148.382618 221.904082 152.94078 221.904082 153.093634 C 221.904082 153.215132 220.992832 153.275882 219.838581 153.275882 C 218.25712 153.275882 217.802474 153.215132 217.863224 153.032884 C 217.923974 152.911385 218.37862 151.786542 218.92537 150.510805 C 219.47408 149.264463 219.928726 148.229764 219.928726 148.261119 Z M 219.928726 148.261119 " transform="matrix(1.993311,0,0,1.993333,-179.898075,-209.604143)"/>
<path style="fill:none;stroke-width:10;stroke-linecap:butt;stroke-linejoin:miter;stroke:rgb(38.823529%,0%,66.666667%);stroke-opacity:1;stroke-miterlimit:10;" d="M 259.255566 151.239798 L 259.255566 134.766919 L 265.577491 134.827669 C 271.532956 134.888418 271.928811 134.919773 272.536312 135.284269 C 272.900812 135.495912 273.388772 135.981907 273.600417 136.409112 L 274.025668 137.138105 L 274.025668 165.310136 L 273.600417 166.039129 C 273.388772 166.466334 272.900812 166.952329 272.536312 167.163972 C 271.899416 167.559823 271.532956 167.559823 265.577491 167.620572 L 259.255566 167.681322 Z M 259.255566 151.239798 " transform="matrix(1.993311,0,0,1.993333,-179.898075,-209.604143)"/>
<path style=" stroke:none;fill-rule:nonzero;fill:rgb(100%,100%,100%);fill-opacity:1;" d="M 309.558594 32.617188 L 326.035156 32.679688 C 342.027344 32.800781 342.511719 32.859375 343.542969 33.589844 C 347.238281 36.433594 347.179688 41.101562 343.300781 43.703125 C 342.148438 44.492188 341.605469 44.554688 336.699219 44.554688 L 331.367188 44.554688 L 331.367188 139.117188 L 336.636719 139.117188 C 342.632812 139.117188 344.089844 139.605469 345.480469 142.085938 C 347.058594 144.875 346.269531 148.085938 343.542969 150.085938 C 342.511719 150.871094 342.027344 150.871094 326.035156 150.992188 L 309.558594 151.113281 L 307.863281 150.265625 C 306.105469 149.296875 304.53125 146.996094 304.53125 145.117188 C 304.53125 143.785156 306.042969 141.058594 307.253906 140.148438 C 308.164062 139.421875 308.953125 139.359375 313.859375 139.238281 L 319.433594 139.117188 L 319.433594 44.613281 L 313.859375 44.492188 C 308.953125 44.371094 308.164062 44.3125 307.253906 43.582031 C 306.042969 42.734375 304.53125 40.007812 304.53125 38.617188 C 304.53125 36.738281 306.042969 34.375 307.863281 33.46875 Z M 309.558594 32.617188 "/>
<path style=" stroke:none;fill-rule:nonzero;fill:rgb(100%,100%,100%);fill-opacity:1;" d="M 312.132812 59.09375 L 312.132812 124.578125 C 312.132812 124.578125 227.652344 124.398438 226.320312 123.609375 C 225.59375 123.1875 224.625 122.21875 224.199219 121.367188 L 223.351562 119.914062 L 223.351562 91.867188 C 223.351562 64.90625 223.414062 63.816406 224.078125 62.425781 C 224.988281 60.789062 225.535156 60.242188 227.351562 59.578125 C 228.503906 59.214844 312.132812 59.09375 312.132812 59.09375 Z M 256.246094 74.296875 C 255.277344 74.902344 254.25 77.023438 248.613281 89.503906 C 241.585938 105.074219 241.222656 106.101562 242.800781 107.796875 C 244.554688 109.675781 247.28125 109.738281 248.855469 107.859375 C 249.339844 107.253906 250.070312 105.921875 250.433594 104.890625 L 251.097656 103.011719 L 265.636719 103.011719 L 266.484375 105.195312 C 267.578125 108.164062 268.726562 109.191406 270.90625 109.191406 C 272.300781 109.191406 272.726562 109.011719 273.632812 107.980469 C 274.421875 107.132812 274.726562 106.40625 274.726562 105.4375 C 274.726562 104.46875 272.96875 99.984375 268.96875 91.078125 C 261.398438 74.054688 261.761719 74.78125 260.550781 74.175781 C 259.15625 73.390625 257.640625 73.449219 256.246094 74.296875 Z M 256.246094 74.296875 "/>
<path style=" stroke:none;fill-rule:nonzero;fill:rgb(38.823529%,0%,66.666667%);fill-opacity:1;" d="M 256.234375 74.199219 C 257.628906 73.351562 259.167969 73.289062 260.5625 74.078125 C 261.773438 74.683594 261.496094 74.050781 269.070312 91.074219 C 273.066406 99.980469 274.800781 104.53125 274.800781 105.5 C 274.800781 106.46875 274.488281 107.207031 273.703125 108.054688 C 272.792969 109.082031 272.359375 109.273438 270.964844 109.273438 C 268.785156 109.273438 267.527344 108.078125 266.433594 105.109375 L 265.691406 103.097656 L 258.367188 103.113281 L 251.046875 103.097656 L 250.484375 104.804688 C 250.121094 105.835938 249.292969 107.339844 248.808594 107.945312 C 247.230469 109.824219 244.488281 109.75 242.730469 107.871094 C 241.15625 106.175781 241.488281 105.054688 248.515625 89.484375 C 254.152344 77.003906 255.265625 74.804688 256.234375 74.199219 Z M 256.234375 74.199219 "/>
<path style=" stroke:none;fill-rule:nonzero;fill:rgb(100%,100%,100%);fill-opacity:1;" d="M 258.488281 85.929688 C 258.730469 86.171875 262.425781 95.257812 262.425781 95.5625 C 262.425781 95.804688 260.609375 95.925781 258.308594 95.925781 C 255.15625 95.925781 254.25 95.804688 254.371094 95.441406 C 254.492188 95.199219 255.398438 92.957031 256.488281 90.414062 C 257.582031 87.929688 258.488281 85.867188 258.488281 85.929688 Z M 258.488281 85.929688 "/>
<path style=" stroke:none;fill-rule:nonzero;fill:rgb(100%,100%,100%);fill-opacity:1;" d="M 338.90625 59.03125 C 338.90625 59.03125 362.140625 59.335938 363.351562 60.0625 C 364.078125 60.484375 365.046875 61.453125 365.472656 62.304688 L 366.320312 63.757812 L 366.320312 119.914062 L 365.472656 121.367188 C 365.046875 122.21875 364.078125 123.1875 363.351562 123.609375 C 362.082031 124.398438 338.90625 124.640625 338.90625 124.640625 Z M 338.90625 59.03125 "/>
<path style="fill:none;stroke-width:7.5;stroke-linecap:butt;stroke-linejoin:miter;stroke:rgb(36.078431%,0%,62.352941%);stroke-opacity:1;stroke-miterlimit:10;" d="M 146.199719 167.301148 C 146.199719 167.301148 129.46014 169.305877 128.897712 169.156944 C 128.576324 169.080517 128.133437 168.864955 127.925711 168.655271 L 127.520057 168.302533 L 126.571573 160.640273 L 125.621128 152.962336 L 125.928798 152.519454 C 126.079693 152.266658 126.455952 151.951153 126.747944 151.79634 C 127.235904 151.535706 143.981362 149.378123 143.981362 149.378123 Z M 146.199719 167.301148 " transform="matrix(1.993311,0,0,1.993333,-179.898075,-209.604143)"/>
<path style="fill:none;stroke-width:7.5;stroke-linecap:butt;stroke-linejoin:miter;stroke:rgb(36.078431%,0%,62.352941%);stroke-opacity:1;stroke-miterlimit:10;" d="M 141.633666 149.668153 C 141.633666 149.668153 159.368762 147.557602 159.905714 147.692818 C 160.227102 147.771205 160.668029 147.984807 160.875755 148.194491 L 161.283369 148.547229 L 162.233813 156.227125 L 163.182298 163.889385 L 162.872668 164.330308 C 162.723733 164.583104 162.347474 164.898608 162.053523 165.053421 C 161.544006 165.335612 143.852023 167.591177 143.852023 167.591177 Z M 141.633666 149.668153 " transform="matrix(1.993311,0,0,1.993333,-179.898075,-209.604143)"/>
<path style=" stroke:none;fill-rule:nonzero;fill:rgb(100%,100%,100%);fill-opacity:1;" d="M 104.128906 88.523438 C 104.128906 88.523438 137.773438 84.527344 138.84375 84.796875 C 139.484375 84.953125 140.363281 85.378906 140.777344 85.796875 L 141.589844 86.5 L 143.484375 101.804688 L 145.375 117.082031 L 144.757812 117.960938 C 144.460938 118.464844 143.710938 119.09375 143.125 119.402344 C 142.109375 119.964844 108.550781 124.25 108.550781 124.25 Z M 104.128906 88.523438 "/>
<path style=" stroke:none;fill-rule:nonzero;fill:rgb(100%,100%,100%);fill-opacity:1;" d="M 109.816406 124.09375 C 109.816406 124.09375 78.15625 127.878906 77.035156 127.582031 C 76.394531 127.429688 75.511719 127 75.097656 126.582031 L 74.289062 125.878906 L 72.398438 110.605469 L 70.503906 95.300781 L 71.117188 94.417969 C 71.417969 93.914062 72.167969 93.285156 72.75 92.976562 C 73.722656 92.457031 105.394531 88.367188 105.394531 88.367188 Z M 109.816406 124.09375 "/>
<path style="fill:none;stroke-width:7.5;stroke-linecap:butt;stroke-linejoin:miter;stroke:rgb(36.078431%,0%,62.352941%);stroke-opacity:1;stroke-miterlimit:10;" d="M 114.595974 151.212363 L 113.714118 144.08313 L 120.843431 143.201284 Z M 114.595974 151.212363 " transform="matrix(1.993311,0,0,1.993333,-179.898075,-209.604143)"/>
<path style="fill:none;stroke-width:7.5;stroke-linecap:butt;stroke-linejoin:miter;stroke:rgb(36.078431%,0%,62.352941%);stroke-opacity:1;stroke-miterlimit:10;" d="M 175.773236 165.23371 L 176.657051 172.360983 L 169.527739 173.244788 Z M 175.773236 165.23371 " transform="matrix(1.993311,0,0,1.993333,-179.898075,-209.604143)"/>
<path style=" stroke:none;fill-rule:nonzero;fill:rgb(100%,100%,100%);fill-opacity:1;" d="M 48.527344 91.8125 L 46.769531 77.601562 L 60.980469 75.84375 Z M 48.527344 91.8125 "/>
<path style=" stroke:none;fill-rule:nonzero;fill:rgb(100%,100%,100%);fill-opacity:1;" d="M 170.472656 119.761719 L 172.234375 133.96875 L 158.023438 135.730469 Z M 170.472656 119.761719 "/>
<path style="fill:none;stroke-width:7.5;stroke-linecap:butt;stroke-linejoin:miter;stroke:rgb(36.078431%,0%,62.352941%);stroke-opacity:1;stroke-miterlimit:10;" d="M 125.240951 178.72595 L 118.111638 179.609755 L 117.227823 172.480522 Z M 125.240951 178.72595 " transform="matrix(1.993311,0,0,1.993333,-179.898075,-209.604143)"/>
<path style="fill:none;stroke-width:7.5;stroke-linecap:butt;stroke-linejoin:miter;stroke:rgb(36.078431%,0%,62.352941%);stroke-opacity:1;stroke-miterlimit:10;" d="M 165.130219 137.720123 L 172.257572 136.836317 L 173.141387 143.96555 Z M 165.130219 137.720123 " transform="matrix(1.993311,0,0,1.993333,-179.898075,-209.604143)"/>
<path style=" stroke:none;fill-rule:nonzero;fill:rgb(100%,100%,100%);fill-opacity:1;" d="M 69.746094 146.65625 L 55.535156 148.417969 L 53.773438 134.207031 Z M 69.746094 146.65625 "/>
<path style=" stroke:none;fill-rule:nonzero;fill:rgb(100%,100%,100%);fill-opacity:1;" d="M 149.257812 64.917969 L 163.464844 63.15625 L 165.226562 77.367188 Z M 149.257812 64.917969 "/>
<path style=" stroke:none;fill-rule:nonzero;fill:rgb(36.078431%,0%,62.352941%);fill-opacity:1;" d="M 104.9375 94.300781 C 105.84375 93.582031 106.917969 93.40625 107.964844 93.839844 C 108.871094 94.160156 108.605469 93.726562 115.410156 105.035156 C 118.996094 110.949219 120.613281 113.984375 120.695312 114.664062 C 120.78125 115.347656 120.628906 115.890625 120.148438 116.554688 C 119.597656 117.359375 119.3125 117.527344 118.332031 117.648438 C 116.796875 117.839844 115.832031 117.132812 114.804688 115.140625 L 114.085938 113.765625 L 108.949219 114.410156 L 103.808594 115.039062 L 103.546875 116.316406 C 103.382812 117.074219 102.945312 118.171875 102.65625 118.640625 C 101.710938 120.097656 99.78125 120.285156 98.382812 119.117188 C 97.125 118.0625 97.269531 117.261719 100.855469 105.703125 C 103.730469 96.441406 104.308594 94.8125 104.9375 94.300781 Z M 104.9375 94.300781 "/>
<path style=" stroke:none;fill-rule:nonzero;fill:rgb(100%,100%,100%);fill-opacity:1;" d="M 107.539062 102.335938 C 107.730469 102.484375 111.121094 108.550781 111.148438 108.765625 C 111.167969 108.933594 109.902344 109.179688 108.28125 109.378906 C 106.066406 109.652344 105.417969 109.644531 105.472656 109.378906 C 105.535156 109.199219 105.980469 107.542969 106.523438 105.660156 C 107.074219 103.820312 107.535156 102.292969 107.539062 102.335938 Z M 107.539062 102.335938 "/>
<path style="fill:none;stroke-width:7.5;stroke-linecap:butt;stroke-linejoin:miter;stroke:rgb(36.078431%,0%,62.352941%);stroke-opacity:1;stroke-miterlimit:10;" d="M 320.899232 147.447861 C 321.688983 141.898112 326.829221 138.037587 332.379033 138.829289 C 337.928844 139.619031 341.787452 144.757252 340.997701 150.308961 C 340.207951 155.85871 335.067712 159.717275 329.517901 158.927533 C 323.96809 158.137791 320.109482 152.99761 320.899232 147.447861 Z M 320.899232 147.447861 " transform="matrix(1.993311,0,0,1.993333,-179.898075,-209.604143)"/>
<path style="fill:none;stroke-width:7.5;stroke-linecap:butt;stroke-linejoin:miter;stroke:rgb(36.078431%,0%,62.352941%);stroke-opacity:1;stroke-miterlimit:10;" d="M 308.461149 163.475897 C 309.2509 157.924188 314.391138 154.065623 319.940949 154.855365 C 325.49076 155.647067 329.349369 160.785288 328.559618 166.336997 C 327.769867 171.886746 322.629629 175.745311 317.079818 174.955569 C 311.530006 174.165827 307.671398 169.025646 308.461149 163.475897 Z M 308.461149 163.475897 " transform="matrix(1.993311,0,0,1.993333,-179.898075,-209.604143)"/>
<path style="fill:none;stroke-width:7.5;stroke-linecap:butt;stroke-linejoin:miter;stroke:rgb(36.078431%,0%,62.352941%);stroke-opacity:1;stroke-miterlimit:10;" d="M 328.371489 166.309562 C 329.161239 160.759812 334.299518 156.899288 339.851289 157.68903 C 345.4011 158.480731 349.259708 163.618952 348.469958 169.170661 C 347.680207 174.72041 342.539969 178.578975 336.990157 177.789233 C 331.440346 176.999492 327.579778 171.859311 328.371489 166.309562 Z M 328.371489 166.309562 " transform="matrix(1.993311,0,0,1.993333,-179.898075,-209.604143)"/>
<path style=" stroke:none;fill-rule:nonzero;fill:rgb(0%,100%,0.392157%);fill-opacity:1;" d="M 459.753906 84.308594 C 461.328125 73.246094 471.574219 65.550781 482.636719 67.128906 C 493.699219 68.703125 501.390625 78.945312 499.816406 90.011719 C 498.242188 101.074219 487.996094 108.765625 476.933594 107.191406 C 465.871094 105.617188 458.179688 95.371094 459.753906 84.308594 Z M 459.753906 84.308594 "/>
<path style=" stroke:none;fill-rule:nonzero;fill:rgb(100%,0%,0%);fill-opacity:1;" d="M 434.960938 116.257812 C 436.535156 105.191406 446.78125 97.5 457.84375 99.074219 C 468.90625 100.652344 476.597656 110.894531 475.023438 121.960938 C 473.449219 133.023438 463.203125 140.714844 452.140625 139.140625 C 441.078125 137.566406 433.386719 127.320312 434.960938 116.257812 Z M 434.960938 116.257812 "/>
<path style=" stroke:none;fill-rule:nonzero;fill:rgb(0%,44.313725%,100%);fill-opacity:1;" d="M 474.648438 121.90625 C 476.222656 110.84375 486.464844 103.148438 497.53125 104.722656 C 508.59375 106.300781 516.285156 116.542969 514.710938 127.609375 C 513.136719 138.671875 502.890625 146.363281 491.828125 144.789062 C 480.765625 143.214844 473.070312 132.96875 474.648438 121.90625 Z M 474.648438 121.90625 "/>
</g>
</svg>
