<?xml version="1.0" encoding="UTF-8"?>
<svg xmlns="http://www.w3.org/2000/svg" xmlns:xlink="http://www.w3.org/1999/xlink" width="600px" height="300px" viewBox="0 0 600 300" version="1.1">
<g id="surface1">
<rect x="0" y="0" width="600" height="300" style="fill:rgb(31.764707%,47.843137%,96.078432%);fill-opacity:1;stroke:none;"/>
<path style=" stroke:none;fill-rule:nonzero;fill:rgb(36.862746%,52.156866%,97.647059%);fill-opacity:1;" d="M 410.273438 32.652344 L 287.679688 19.414062 L 173.828125 57.132812 L 75.457031 46.910156 L 0 82.351562 L 0 0.867188 L 543.527344 0.867188 Z M 410.273438 32.652344 "/>
<path style=" stroke:none;fill-rule:nonzero;fill:rgb(24.313726%,40.784314%,90.980393%);fill-opacity:1;" d="M 0 298 L 0 136.394531 L 106.4375 88.621094 L 203.371094 127.617188 L 317.511719 66.21875 L 432.496094 86.453125 L 514.992188 33.734375 L 600 49.957031 L 600 298 Z M 0 298 "/>
<path style=" stroke:none;fill-rule:nonzero;fill:rgb(14.901961%,30.980393%,78.823531%);fill-opacity:1;" d="M 0 289 L 0 199.070312 L 63.4375 146.847656 L 188.371094 193.910156 L 326.511719 125.144531 L 410.496094 169.644531 L 505.992188 122.734375 L 600 134.519531 L 600 289 Z M 0 289 "/>
<path style=" stroke:none;fill-rule:nonzero;fill:rgb(10.980392%,26.274511%,71.372551%);fill-opacity:1;" d="M 0 300 L 0 260.070312 L 90.4375 205.847656 L 201.371094 253.910156 L 300.511719 202.144531 L 415.441406 234.511719 L 503.992188 185.734375 L 600 227.519531 L 600 300 Z M 0 300 "/>
<path style="fill:none;stroke-width:7.5;stroke-linecap:butt;stroke-linejoin:round;stroke:rgb(0%,0%,0%);stroke-opacity:0.2;stroke-miterlimit:10;" d="M 177.671875 153.626953 C 177.939453 153.982422 178.152344 154.296875 178.134766 154.199219 L 183.382812 181.236328 C 183.527344 181.978516 183.027344 182.667969 182.326172 182.802734 C 182.185547 182.818359 182.042969 182.794922 181.914062 182.736328 L 181.621094 182.587891 L 163.285156 175.923828 L 164.449219 181.916016 C 165.441406 187.027344 162.087891 192.179688 157.095703 193.150391 L 133.734375 197.685547 C 128.400391 198.482422 123.431641 195.128906 122.449219 190.070312 L 118.423828 169.333984 C 117.392578 164.021484 120.726562 159.082031 126.039062 158.048828 L 149.400391 153.513672 C 154.484375 152.527344 159.398438 155.904297 160.421875 161.179688 L 161.605469 167.269531 L 175.767578 153.625 C 176.392578 153.060547 177.167969 153.066406 177.673828 153.626953 Z M 177.671875 153.626953 " transform="matrix(2,0,0,2,-180,-210)"/>
<path style=" stroke:none;fill-rule:nonzero;fill:rgb(100%,100%,100%);fill-opacity:1;" d="M 175.34375 97.253906 C 175.878906 97.964844 176.304688 98.59375 176.269531 98.398438 L 186.765625 152.472656 C 187.054688 153.957031 186.054688 155.335938 184.652344 155.605469 C 184.371094 155.636719 184.085938 155.589844 183.828125 155.472656 L 183.242188 155.175781 L 146.570312 141.847656 L 148.898438 153.832031 C 150.882812 164.054688 144.175781 174.359375 134.191406 176.300781 L 87.46875 185.371094 C 76.800781 186.964844 66.863281 180.257812 64.898438 170.140625 L 56.847656 128.667969 C 54.785156 118.042969 61.453125 108.164062 72.078125 106.097656 L 118.800781 97.027344 C 128.96875 95.054688 138.796875 101.808594 140.84375 112.359375 L 143.210938 124.539062 L 171.535156 97.25 C 172.785156 96.121094 174.335938 96.132812 175.347656 97.253906 Z M 175.34375 97.253906 "/>
<path style="fill:none;stroke-width:7;stroke-linecap:butt;stroke-linejoin:miter;stroke:rgb(0%,0%,0%);stroke-opacity:0.2;stroke-miterlimit:10;" d="M 197.660156 206.228516 C 197.410156 205.976562 197.341797 205.595703 197.490234 205.271484 C 197.638672 204.949219 197.974609 204.751953 198.328125 204.78125 L 215.455078 206.146484 L 215.591797 206.169922 C 216.046875 206.283203 216.324219 206.742188 216.210938 207.197266 L 212.173828 223.519531 C 212.087891 223.865234 211.796875 224.121094 211.443359 224.160156 C 211.089844 224.197266 210.75 224.011719 210.591797 223.691406 L 208.173828 218.800781 C 207.193359 219.365234 206.039062 219.869141 204.771484 220.279297 C 201.464844 221.347656 197.328125 221.785156 193.326172 220.9375 C 189.285156 220.083984 185.382812 217.927734 182.591797 213.8125 C 181.574219 212.314453 180.708984 210.556641 180.042969 208.511719 C 179.886719 208.132812 180.023438 207.697266 180.367188 207.476562 C 180.712891 207.253906 181.166016 207.310547 181.445312 207.607422 C 185.769531 212.197266 189.871094 213.679688 193.523438 213.599609 C 196.791016 213.527344 199.75 212.210938 202.208984 210.744141 Z M 197.660156 206.228516 " transform="matrix(2,0,0,2,-180,-210)"/>
<path style=" stroke:none;fill-rule:nonzero;fill:rgb(100%,100%,100%);fill-opacity:1;" d="M 215.320312 202.457031 C 214.820312 201.953125 214.683594 201.191406 214.980469 200.542969 C 215.277344 199.898438 215.949219 199.503906 216.65625 199.5625 L 250.910156 202.292969 L 251.183594 202.339844 C 252.09375 202.566406 252.648438 203.484375 252.421875 204.394531 L 244.347656 237.039062 C 244.175781 237.730469 243.59375 238.242188 242.886719 238.320312 C 242.179688 238.394531 241.5 238.023438 241.183594 237.382812 L 236.347656 227.601562 C 234.386719 228.730469 232.078125 229.738281 229.542969 230.558594 C 222.929688 232.695312 214.65625 233.570312 206.652344 231.875 C 198.570312 230.167969 190.765625 225.855469 185.183594 217.625 C 183.148438 214.628906 181.417969 211.113281 180.085938 207.023438 C 179.773438 206.265625 180.046875 205.394531 180.734375 204.953125 C 181.425781 204.507812 182.332031 204.621094 182.890625 205.214844 C 191.539062 214.394531 199.742188 217.359375 207.046875 217.199219 C 213.582031 217.054688 219.5 214.421875 224.417969 211.488281 Z M 215.320312 202.457031 "/>
<path style="fill:none;stroke-width:7.5;stroke-linecap:butt;stroke-linejoin:miter;stroke:rgb(0%,0%,0%);stroke-opacity:0.2;stroke-miterlimit:10;" d="M 326.925781 136.796875 C 326.298828 135.767578 325.248047 135.035156 324.001953 134.898438 L 284.923828 130.642578 C 282.759766 130.408203 280.830078 132.060547 280.611328 134.335938 L 280.138672 139.255859 C 279.445312 139.046875 278.726562 138.947266 278.052734 139 L 278.644531 132.833984 C 278.908203 130.078125 281.25 128.074219 283.871094 128.359375 L 325.466797 132.888672 C 327.228516 133.080078 328.669922 134.257812 329.345703 135.84375 " transform="matrix(2,0,0,2,-180,-210)"/>
<path style="fill-rule:nonzero;fill:rgb(100%,100%,100%);fill-opacity:1;stroke-width:1;stroke-linecap:butt;stroke-linejoin:miter;stroke:rgb(100%,100%,100%);stroke-opacity:1;stroke-miterlimit:10;" d="M 278.644531 132.833984 C 278.908203 130.078125 281.25 128.074219 283.871094 128.359375 L 325.466797 132.888672 C 327.228516 133.080078 328.669922 134.257812 329.345703 135.84375 C 328.482422 136.039062 327.667969 136.365234 326.925781 136.796875 C 326.298828 135.767578 325.248047 135.035156 324.001953 134.898438 L 284.923828 130.642578 C 282.759766 130.408203 280.830078 132.060547 280.611328 134.335938 L 280.138672 139.255859 C 279.445312 139.046875 278.726562 138.947266 278.052734 139 Z M 278.644531 132.833984 " transform="matrix(2,0,0,2,-180,-210)"/>
<path style="fill:none;stroke-width:7.5;stroke-linecap:butt;stroke-linejoin:miter;stroke:rgb(0%,0%,0%);stroke-opacity:0.2;stroke-miterlimit:10;" d="M 269.507812 139.541016 L 331.882812 134.84375 C 335.814453 134.546875 339.244141 137.494141 339.539062 141.427734 L 342.822266 185.003906 C 343.117188 188.9375 340.169922 192.365234 336.236328 192.660156 L 327.783203 193.296875 C 327.976562 192.273438 327.914062 191.265625 327.59375 190.232422 L 334.119141 189.742188 C 337.363281 189.496094 339.796875 186.667969 339.550781 183.423828 L 336.542969 143.478516 C 336.298828 140.234375 333.470703 137.802734 330.226562 138.046875 L 271.625 142.460938 C 269.644531 142.609375 267.96875 143.720703 267.017578 145.300781 C 265.896484 144.810547 264.658203 144.539062 263.355469 144.539062 C 263.310547 144.539062 263.267578 144.539062 263.222656 144.541016 C 264.068359 141.826172 266.5 139.767578 269.507812 139.541016 Z M 269.507812 139.541016 " transform="matrix(2,0,0,2,-180,-210)"/>
<path style="fill-rule:nonzero;fill:rgb(100%,100%,100%);fill-opacity:1;stroke-width:1;stroke-linecap:butt;stroke-linejoin:miter;stroke:rgb(100%,100%,100%);stroke-opacity:1;stroke-miterlimit:10;" d="M 269.507812 139.541016 L 331.882812 134.84375 C 335.814453 134.546875 339.244141 137.494141 339.539062 141.427734 L 342.822266 185.003906 C 343.117188 188.9375 340.169922 192.365234 336.236328 192.660156 L 324.578125 193.296875 C 324.773438 192.273438 324.710938 191.265625 324.390625 190.232422 L 334.119141 189.742188 C 337.363281 189.496094 339.796875 186.667969 339.550781 183.423828 L 336.542969 143.478516 C 336.298828 140.234375 333.470703 137.802734 330.226562 138.046875 L 271.625 142.460938 C 269.644531 142.609375 267.96875 143.720703 267.017578 145.300781 C 265.896484 144.810547 264.658203 144.539062 263.355469 144.539062 C 263.310547 144.539062 263.267578 144.539062 263.222656 144.541016 C 264.068359 141.826172 266.5 139.767578 269.507812 139.541016 Z M 269.507812 139.541016 " transform="matrix(2,0,0,2,-180,-210)"/>
<path style="fill:none;stroke-width:7.5;stroke-linecap:butt;stroke-linejoin:miter;stroke:rgb(0%,0%,0%);stroke-opacity:0.2;stroke-miterlimit:10;" d="M 241.833984 209.28125 C 237.294922 208.699219 234.085938 204.548828 234.667969 200.007812 L 241.109375 149.703125 C 241.689453 145.164062 245.841797 141.955078 250.380859 142.535156 L 322.386719 151.755859 C 326.927734 152.337891 330.136719 156.488281 329.554688 161.029297 L 323.113281 211.333984 C 322.53125 215.875 318.380859 219.082031 313.839844 218.501953 Z M 312.115234 214.6875 C 315.859375 215.167969 319.285156 212.519531 319.763672 208.775391 L 325.669922 162.662109 C 326.148438 158.916016 323.501953 155.492188 319.755859 155.011719 L 252.107422 146.349609 C 248.361328 145.869141 244.9375 148.517578 244.457031 152.261719 L 238.552734 198.375 C 238.072266 202.121094 240.720703 205.544922 244.464844 206.025391 Z M 312.115234 214.6875 " transform="matrix(2,0,0,2,-180,-210)"/>
<path style="fill:none;stroke-width:6;stroke-linecap:butt;stroke-linejoin:miter;stroke:rgb(0%,0%,0%);stroke-opacity:0.2;stroke-miterlimit:10;" d="M 294.234375 198.376953 L 289.15625 191.806641 C 287.996094 192.404297 286.648438 192.667969 285.257812 192.490234 C 281.603516 192.023438 279.021484 188.681641 279.490234 185.027344 C 279.515625 184.816406 279.552734 184.607422 279.599609 184.404297 C 278.888672 184.380859 278.171875 184.244141 277.46875 183.980469 C 274.308594 182.792969 272.578125 179.462891 273.310547 176.259766 C 273.099609 176.253906 272.886719 176.236328 272.673828 176.208984 C 269.019531 175.742188 266.4375 172.400391 266.90625 168.748047 C 267.083984 167.355469 267.679688 166.119141 268.550781 165.148438 L 268.060547 164.515625 C 267.652344 163.986328 267.75 163.222656 268.279297 162.814453 C 268.808594 162.404297 269.570312 162.501953 269.978516 163.03125 L 270.46875 163.664062 C 271.628906 163.066406 272.974609 162.802734 274.367188 162.980469 C 278.019531 163.447266 280.601562 166.789062 280.134766 170.441406 C 280.107422 170.654297 280.070312 170.865234 280.023438 171.070312 C 280.734375 171.091797 281.455078 171.230469 282.158203 171.494141 C 285.316406 172.681641 287.046875 176.007812 286.318359 179.208984 C 286.527344 179.216797 286.738281 179.234375 286.951172 179.259766 C 290.603516 179.728516 293.1875 183.070312 292.71875 186.722656 C 292.541016 188.115234 291.945312 189.351562 291.074219 190.322266 L 296.152344 196.892578 C 296.5625 197.421875 296.464844 198.183594 295.935547 198.59375 C 295.669922 198.796875 295.347656 198.876953 295.039062 198.837891 C 294.732422 198.798828 294.439453 198.640625 294.234375 198.376953 Z M 294.234375 198.376953 " transform="matrix(2,0,0,2,-180,-210)"/>
<path style=" stroke:none;fill-rule:nonzero;fill:rgb(100%,100%,100%);fill-opacity:1;" d="M 408.46875 186.753906 L 398.3125 173.613281 C 395.992188 174.808594 393.296875 175.335938 390.515625 174.980469 C 383.207031 174.046875 378.042969 167.363281 378.980469 160.054688 C 379.03125 159.632812 379.105469 159.214844 379.199219 158.808594 C 377.777344 158.761719 376.34375 158.488281 374.9375 157.960938 C 368.617188 155.585938 365.15625 148.925781 366.621094 142.519531 C 366.199219 142.507812 365.773438 142.472656 365.347656 142.417969 C 358.039062 141.484375 352.875 134.800781 353.8125 127.496094 C 354.167969 124.710938 355.359375 122.238281 357.101562 120.296875 L 356.121094 119.03125 C 355.304688 117.972656 355.5 116.445312 356.558594 115.628906 C 357.617188 114.808594 359.140625 115.003906 359.957031 116.0625 L 360.9375 117.328125 C 363.257812 116.132812 365.949219 115.605469 368.734375 115.960938 C 376.039062 116.894531 381.203125 123.578125 380.269531 130.882812 C 380.214844 131.308594 380.140625 131.730469 380.046875 132.140625 C 381.46875 132.183594 382.910156 132.460938 384.316406 132.988281 C 390.632812 135.363281 394.09375 142.015625 392.636719 148.417969 C 393.054688 148.433594 393.476562 148.46875 393.902344 148.519531 C 401.207031 149.457031 406.375 156.140625 405.4375 163.445312 C 405.082031 166.230469 403.890625 168.703125 402.148438 170.644531 L 412.304688 183.785156 C 413.125 184.84375 412.929688 186.367188 411.871094 187.1875 C 411.339844 187.59375 410.695312 187.753906 410.078125 187.675781 C 409.464844 187.597656 408.878906 187.28125 408.46875 186.753906 Z M 408.46875 186.753906 "/>
<path style="fill-rule:nonzero;fill:rgb(100%,100%,100%);fill-opacity:1;stroke-width:1;stroke-linecap:butt;stroke-linejoin:miter;stroke:rgb(100%,100%,100%);stroke-opacity:1;stroke-miterlimit:10;" d="M 241.833984 209.28125 C 237.294922 208.699219 234.085938 204.548828 234.667969 200.007812 L 241.109375 149.703125 C 241.689453 145.164062 245.841797 141.955078 250.380859 142.535156 L 322.386719 151.755859 C 326.927734 152.337891 330.136719 156.488281 329.554688 161.029297 L 323.113281 211.333984 C 322.53125 215.875 318.380859 219.082031 313.839844 218.501953 Z M 312.115234 214.6875 C 315.859375 215.167969 319.285156 212.519531 319.763672 208.775391 L 325.669922 162.662109 C 326.148438 158.916016 323.501953 155.492188 319.755859 155.011719 L 252.107422 146.349609 C 248.361328 145.869141 244.9375 148.517578 244.457031 152.261719 L 238.552734 198.375 C 238.072266 202.121094 240.720703 205.544922 244.464844 206.025391 Z M 312.115234 214.6875 " transform="matrix(2,0,0,2,-180,-210)"/>
<path style="fill:none;stroke-width:6;stroke-linecap:butt;stroke-linejoin:miter;stroke:rgb(0%,0%,0%);stroke-opacity:0.2;stroke-miterlimit:10;" d="M 222.029297 124.398438 C 223.587891 124.71875 225.197266 124.183594 226.253906 122.996094 L 228.660156 120.292969 C 229.798828 119.017578 231.892578 120.066406 231.548828 121.742188 L 230.826172 125.285156 C 230.505859 126.84375 231.039062 128.453125 232.226562 129.509766 L 234.929688 131.914062 C 236.205078 133.052734 235.15625 135.146484 233.480469 134.806641 L 229.935547 134.082031 C 228.378906 133.763672 226.771484 134.298828 225.714844 135.484375 L 223.308594 138.183594 C 222.171875 139.460938 220.078125 138.412109 220.417969 136.736328 L 221.142578 133.193359 C 221.460938 131.634766 220.925781 130.025391 219.738281 128.96875 L 217.037109 126.564453 C 215.759766 125.425781 216.810547 123.332031 218.486328 123.673828 Z M 222.029297 124.398438 " transform="matrix(2,0,0,2,-180,-210)"/>
<path style=" stroke:none;fill-rule:nonzero;fill:rgb(100%,100%,100%);fill-opacity:1;" d="M 264.058594 38.796875 C 267.175781 39.4375 270.394531 38.367188 272.507812 35.992188 L 277.320312 30.585938 C 279.597656 28.035156 283.785156 30.132812 283.097656 33.484375 L 281.652344 40.570312 C 281.011719 43.6875 282.078125 46.90625 284.453125 49.019531 L 289.859375 53.828125 C 292.410156 56.105469 290.3125 60.292969 286.960938 59.613281 L 279.871094 58.164062 C 276.757812 57.527344 273.542969 58.597656 271.429688 60.96875 L 266.617188 66.367188 C 264.34375 68.921875 260.15625 66.824219 260.835938 63.472656 L 262.285156 56.386719 C 262.921875 53.269531 261.851562 50.050781 259.476562 47.9375 L 254.074219 43.128906 C 251.519531 40.851562 253.621094 36.664062 256.972656 37.347656 Z M 264.058594 38.796875 "/>
<path style="fill:none;stroke-width:5;stroke-linecap:butt;stroke-linejoin:miter;stroke:rgb(0%,0%,0%);stroke-opacity:0.2;stroke-miterlimit:10;" d="M 205.998047 150.994141 C 206.976562 150.412109 207.570312 149.353516 207.556641 148.216797 L 207.527344 145.628906 C 207.513672 144.404297 209.128906 143.951172 209.753906 145.001953 L 211.078125 147.224609 C 211.660156 148.203125 212.71875 148.796875 213.855469 148.785156 L 216.443359 148.755859 C 217.666016 148.742188 218.119141 150.355469 217.068359 150.982422 L 214.845703 152.306641 C 213.869141 152.888672 213.275391 153.945312 213.289062 155.082031 L 213.316406 157.669922 C 213.330078 158.892578 211.716797 159.347656 211.089844 158.296875 L 209.765625 156.072266 C 209.183594 155.095703 208.125 154.501953 206.988281 154.515625 L 204.400391 154.544922 C 203.177734 154.558594 202.724609 152.945312 203.775391 152.318359 Z M 205.998047 150.994141 " transform="matrix(2,0,0,2,-180,-210)"/>
<path style=" stroke:none;fill-rule:nonzero;fill:rgb(100%,100%,100%);fill-opacity:1;" d="M 231.996094 91.988281 C 233.953125 90.824219 235.140625 88.707031 235.113281 86.433594 L 235.054688 81.257812 C 235.027344 78.808594 238.257812 77.902344 239.507812 80.003906 L 242.15625 84.449219 C 243.320312 86.40625 245.4375 87.59375 247.710938 87.570312 L 252.886719 87.511719 C 255.332031 87.484375 256.238281 90.710938 254.136719 91.964844 L 249.691406 94.613281 C 247.738281 95.777344 246.550781 97.890625 246.578125 100.164062 L 246.632812 105.339844 C 246.660156 107.785156 243.433594 108.695312 242.179688 106.59375 L 239.53125 102.144531 C 238.367188 100.191406 236.25 99.003906 233.976562 99.03125 L 228.800781 99.089844 C 226.355469 99.117188 225.449219 95.890625 227.550781 94.636719 Z M 231.996094 91.988281 "/>
<path style="fill:none;stroke-width:6;stroke-linecap:butt;stroke-linejoin:miter;stroke:rgb(0%,0%,0%);stroke-opacity:0.2;stroke-miterlimit:10;" d="M 338.939453 231.988281 C 337.339844 232.181641 336.515625 230.134766 337.800781 229.164062 L 340.519531 227.113281 C 341.714844 226.212891 342.341797 224.742188 342.162109 223.255859 L 341.751953 219.873047 C 341.560547 218.275391 343.605469 217.449219 344.574219 218.734375 L 346.628906 221.453125 C 347.529297 222.648438 348.998047 223.273438 350.484375 223.09375 L 353.865234 222.683594 C 355.464844 222.492188 356.291016 224.537109 355.005859 225.507812 L 352.285156 227.558594 C 351.089844 228.460938 350.464844 229.931641 350.646484 231.417969 L 351.054688 234.800781 C 351.25 236.398438 349.203125 237.224609 348.232422 235.939453 L 346.181641 233.21875 C 345.279297 232.023438 343.808594 231.398438 342.322266 231.578125 Z M 338.939453 231.988281 " transform="matrix(2,0,0,2,-180,-210)"/>
<path style=" stroke:none;fill-rule:nonzero;fill:rgb(100%,100%,100%);fill-opacity:1;" d="M 497.878906 253.976562 C 494.679688 254.363281 493.03125 250.269531 495.601562 248.328125 L 501.039062 244.226562 C 503.429688 242.425781 504.683594 239.484375 504.324219 236.511719 L 503.503906 229.746094 C 503.121094 226.550781 507.210938 224.898438 509.148438 227.46875 L 513.257812 232.90625 C 515.058594 235.296875 517.996094 236.546875 520.96875 236.1875 L 527.730469 235.367188 C 530.929688 234.984375 532.582031 239.074219 530.011719 241.015625 L 524.570312 245.117188 C 522.179688 246.921875 520.929688 249.863281 521.292969 252.835938 L 522.109375 259.601562 C 522.5 262.796875 518.40625 264.449219 516.464844 261.878906 L 512.363281 256.4375 C 510.558594 254.046875 507.617188 252.796875 504.644531 253.15625 Z M 497.878906 253.976562 "/>
<path style="fill:none;stroke-width:5;stroke-linecap:butt;stroke-linejoin:miter;stroke:rgb(0%,0%,0%);stroke-opacity:0.2;stroke-miterlimit:10;" d="M 320.988281 232.365234 C 321.490234 231.542969 322.757812 231.914062 322.736328 232.876953 L 322.691406 234.914062 C 322.671875 235.810547 323.128906 236.648438 323.894531 237.115234 L 325.632812 238.175781 C 326.455078 238.677734 326.083984 239.945312 325.121094 239.923828 L 323.083984 239.878906 C 322.189453 239.859375 321.351562 240.318359 320.884766 241.082031 L 319.824219 242.820312 C 319.322266 243.642578 318.056641 243.271484 318.076172 242.308594 L 318.121094 240.271484 C 318.140625 239.376953 317.681641 238.539062 316.917969 238.072266 L 315.177734 237.009766 C 314.355469 236.509766 314.726562 235.242188 315.689453 235.263672 L 317.726562 235.308594 C 318.623047 235.328125 319.460938 234.871094 319.927734 234.105469 Z M 320.988281 232.365234 " transform="matrix(2,0,0,2,-180,-210)"/>
<path style=" stroke:none;fill-rule:nonzero;fill:rgb(100%,100%,100%);fill-opacity:1;" d="M 461.976562 254.730469 C 462.980469 253.085938 465.515625 253.828125 465.472656 255.753906 L 465.382812 259.828125 C 465.34375 261.621094 466.257812 263.296875 467.789062 264.230469 L 471.265625 266.351562 C 472.910156 267.355469 472.167969 269.890625 470.242188 269.847656 L 466.167969 269.757812 C 464.378906 269.71875 462.703125 270.636719 461.769531 272.164062 L 459.648438 275.640625 C 458.644531 277.285156 456.113281 276.542969 456.152344 274.617188 L 456.242188 270.542969 C 456.28125 268.753906 455.363281 267.078125 453.835938 266.144531 L 450.355469 264.019531 C 448.710938 263.019531 449.453125 260.484375 451.378906 260.527344 L 455.453125 260.617188 C 457.246094 260.65625 458.921875 259.742188 459.855469 258.210938 Z M 461.976562 254.730469 "/>
<path style="fill:none;stroke-width:5;stroke-linecap:butt;stroke-linejoin:miter;stroke:rgb(0%,0%,0%);stroke-opacity:0.2;stroke-miterlimit:10;" d="M 356.083984 200.169922 C 356.796875 200.712891 357.744141 200.835938 358.572266 200.492188 L 360.453125 199.710938 C 361.34375 199.341797 362.148438 200.386719 361.564453 201.152344 L 360.330078 202.773438 C 359.785156 203.484375 359.662109 204.433594 360.005859 205.259766 L 360.787109 207.140625 C 361.15625 208.03125 360.111328 208.835938 359.34375 208.253906 L 357.724609 207.017578 C 357.013672 206.474609 356.066406 206.353516 355.238281 206.695312 L 353.357422 207.476562 C 352.46875 207.845703 351.662109 206.800781 352.246094 206.035156 L 353.482422 204.414062 C 354.023438 203.701172 354.146484 202.753906 353.802734 201.927734 L 353.021484 200.046875 C 352.652344 199.15625 353.697266 198.351562 354.464844 198.933594 Z M 356.083984 200.169922 " transform="matrix(2,0,0,2,-180,-210)"/>
<path style=" stroke:none;fill-rule:nonzero;fill:rgb(100%,100%,100%);fill-opacity:1;" d="M 532.167969 190.339844 C 533.59375 191.425781 535.488281 191.671875 537.144531 190.984375 L 540.90625 189.421875 C 542.6875 188.683594 544.296875 190.773438 543.128906 192.304688 L 540.660156 195.546875 C 539.570312 196.96875 539.324219 198.867188 540.011719 200.519531 L 541.574219 204.28125 C 542.3125 206.0625 540.222656 207.671875 538.6875 206.507812 L 535.449219 204.035156 C 534.027344 202.949219 532.132812 202.707031 530.476562 203.390625 L 526.714844 204.953125 C 524.9375 205.691406 523.324219 203.601562 524.492188 202.070312 L 526.964844 198.828125 C 528.046875 197.402344 528.292969 195.507812 527.605469 193.855469 L 526.042969 190.09375 C 525.304688 188.3125 527.394531 186.703125 528.929688 187.867188 Z M 532.167969 190.339844 "/>
</g>
</svg>
