<?xml version="1.0" encoding="UTF-8"?>
<svg xmlns="http://www.w3.org/2000/svg" xmlns:xlink="http://www.w3.org/1999/xlink" width="600px" height="300px" viewBox="0 0 600 300" version="1.1">
<g id="surface1">
<rect x="0" y="0" width="600" height="300" style="fill:rgb(36.862745%,42.352941%,56.078431%);fill-opacity:1;stroke:none;"/>
<path style=" stroke:none;fill-rule:nonzero;fill:rgb(32.941176%,37.647059%,50.196078%);fill-opacity:1;" d="M 69.660156 102.808594 C 61.441406 102.808594 54.78125 96.078125 54.78125 87.777344 L 54.78125 76.253906 L 43.371094 76.253906 C 35.152344 76.253906 28.492188 69.523438 28.492188 61.222656 L 28.492188 59.21875 C 28.492188 50.917969 35.152344 44.1875 43.371094 44.1875 L 54.78125 44.1875 L 54.78125 32.664062 C 54.78125 24.363281 61.441406 17.636719 69.660156 17.636719 L 71.644531 17.636719 C 79.863281 17.636719 86.523438 24.363281 86.523438 32.664062 L 86.523438 44.1875 L 97.929688 44.1875 C 106.148438 44.1875 112.8125 50.917969 112.8125 59.21875 L 112.8125 61.222656 C 112.8125 69.523438 106.148438 76.253906 97.929688 76.253906 L 86.523438 76.253906 L 86.523438 87.777344 C 86.523438 96.078125 79.863281 102.808594 71.644531 102.808594 Z M 69.660156 102.808594 "/>
<path style=" stroke:none;fill-rule:nonzero;fill:rgb(29.803922%,33.72549%,45.098039%);fill-opacity:1;" d="M 131.402344 89.625 C 125.589844 83.757812 125.589844 74.238281 131.402344 68.371094 L 139.46875 60.222656 L 131.402344 52.074219 C 125.589844 46.203125 125.589844 36.6875 131.402344 30.816406 L 132.804688 29.398438 C 138.617188 23.53125 148.035156 23.53125 153.847656 29.398438 L 161.914062 37.546875 L 169.980469 29.398438 C 175.792969 23.53125 185.214844 23.53125 191.023438 29.398438 L 192.425781 30.816406 C 198.238281 36.6875 198.238281 46.203125 192.425781 52.074219 L 184.359375 60.222656 L 192.425781 68.371094 C 198.238281 74.238281 198.238281 83.757812 192.425781 89.625 L 191.023438 91.042969 C 185.214844 96.914062 175.792969 96.914062 169.980469 91.042969 L 161.914062 82.894531 L 153.847656 91.042969 C 148.035156 96.914062 138.617188 96.914062 132.804688 91.042969 Z M 131.402344 89.625 "/>
<path style=" stroke:none;fill-rule:nonzero;fill:rgb(32.941176%,37.647059%,50.196078%);fill-opacity:1;" d="M 160.578125 192.992188 C 152.359375 192.992188 145.699219 186.261719 145.699219 177.960938 L 145.699219 166.4375 L 134.289062 166.4375 C 126.070312 166.4375 119.410156 159.707031 119.410156 151.40625 L 119.410156 149.402344 C 119.410156 141.101562 126.070312 134.371094 134.289062 134.371094 L 145.699219 134.371094 L 145.699219 122.847656 C 145.699219 114.546875 152.359375 107.820312 160.578125 107.820312 L 162.5625 107.820312 C 170.78125 107.820312 177.441406 114.546875 177.441406 122.847656 L 177.441406 134.371094 L 188.847656 134.371094 C 197.066406 134.371094 203.730469 141.101562 203.730469 149.402344 L 203.730469 151.40625 C 203.730469 159.707031 197.066406 166.4375 188.847656 166.4375 L 177.441406 166.4375 L 177.441406 177.960938 C 177.441406 186.261719 170.78125 192.992188 162.5625 192.992188 Z M 160.578125 192.992188 "/>
<path style=" stroke:none;fill-rule:nonzero;fill:rgb(29.803922%,33.72549%,45.098039%);fill-opacity:1;" d="M 99.417969 181.226562 C 93.605469 187.097656 84.183594 187.097656 78.375 181.226562 L 70.308594 173.078125 L 62.242188 181.226562 C 56.429688 187.097656 47.007812 187.097656 41.195312 181.226562 L 39.792969 179.808594 C 33.984375 173.941406 33.984375 164.421875 39.792969 158.554688 L 47.859375 150.40625 L 39.792969 142.257812 C 33.984375 136.386719 33.984375 126.871094 39.792969 121 L 41.195312 119.582031 C 47.007812 113.714844 56.429688 113.714844 62.242188 119.582031 L 70.308594 127.730469 L 78.375 119.582031 C 84.183594 113.714844 93.605469 113.714844 99.417969 119.582031 L 100.820312 121 C 106.628906 126.871094 106.628906 136.386719 100.820312 142.257812 L 92.753906 150.40625 L 100.820312 158.554688 C 106.628906 164.421875 106.628906 173.941406 100.820312 179.808594 Z M 99.417969 181.226562 "/>
<path style=" stroke:none;fill-rule:nonzero;fill:rgb(32.941176%,37.647059%,50.196078%);fill-opacity:1;" d="M 69.660156 283.175781 C 61.441406 283.175781 54.78125 276.445312 54.78125 268.144531 L 54.78125 256.621094 L 43.371094 256.621094 C 35.152344 256.621094 28.492188 249.890625 28.492188 241.589844 L 28.492188 239.585938 C 28.492188 231.285156 35.152344 224.554688 43.371094 224.554688 L 54.78125 224.554688 L 54.78125 213.03125 C 54.78125 204.730469 61.441406 198.003906 69.660156 198.003906 L 71.644531 198.003906 C 79.863281 198.003906 86.523438 204.730469 86.523438 213.03125 L 86.523438 224.554688 L 97.929688 224.554688 C 106.148438 224.554688 112.8125 231.285156 112.8125 239.585938 L 112.8125 241.589844 C 112.8125 249.890625 106.148438 256.621094 97.929688 256.621094 L 86.523438 256.621094 L 86.523438 268.144531 C 86.523438 276.445312 79.863281 283.175781 71.644531 283.175781 Z M 69.660156 283.175781 "/>
<path style=" stroke:none;fill-rule:nonzero;fill:rgb(29.803922%,33.72549%,45.098039%);fill-opacity:1;" d="M 131.402344 269.992188 C 125.589844 264.125 125.589844 254.605469 131.402344 248.738281 L 139.46875 240.589844 L 131.402344 232.441406 C 125.589844 226.570312 125.589844 217.054688 131.402344 211.183594 L 132.804688 209.765625 C 138.617188 203.898438 148.035156 203.898438 153.847656 209.765625 L 161.914062 217.914062 L 169.980469 209.765625 C 175.792969 203.898438 185.214844 203.898438 191.023438 209.765625 L 192.425781 211.183594 C 198.238281 217.054688 198.238281 226.570312 192.425781 232.441406 L 184.359375 240.589844 L 192.425781 248.738281 C 198.238281 254.605469 198.238281 264.125 192.425781 269.992188 L 191.023438 271.410156 C 185.214844 277.28125 175.792969 277.28125 169.980469 271.410156 L 161.914062 263.261719 L 153.847656 271.410156 C 148.035156 277.28125 138.617188 277.28125 132.804688 271.410156 Z M 131.402344 269.992188 "/>
<path style=" stroke:none;fill-rule:nonzero;fill:rgb(32.941176%,37.647059%,50.196078%);fill-opacity:1;" d="M 250.261719 102.808594 C 242.042969 102.808594 235.382812 96.078125 235.382812 87.777344 L 235.382812 76.253906 L 223.972656 76.253906 C 215.757812 76.253906 209.09375 69.523438 209.09375 61.222656 L 209.09375 59.21875 C 209.09375 50.917969 215.757812 44.1875 223.972656 44.1875 L 235.382812 44.1875 L 235.382812 32.664062 C 235.382812 24.363281 242.042969 17.636719 250.261719 17.636719 L 252.246094 17.636719 C 260.464844 17.636719 267.125 24.363281 267.125 32.664062 L 267.125 44.1875 L 278.535156 44.1875 C 286.75 44.1875 293.414062 50.917969 293.414062 59.21875 L 293.414062 61.222656 C 293.414062 69.523438 286.75 76.253906 278.535156 76.253906 L 267.125 76.253906 L 267.125 87.777344 C 267.125 96.078125 260.464844 102.808594 252.246094 102.808594 Z M 250.261719 102.808594 "/>
<path style=" stroke:none;fill-rule:nonzero;fill:rgb(29.803922%,33.72549%,45.098039%);fill-opacity:1;" d="M 312.003906 89.625 C 306.191406 83.757812 306.191406 74.238281 312.003906 68.371094 L 320.070312 60.222656 L 312.003906 52.074219 C 306.191406 46.203125 306.191406 36.6875 312.003906 30.816406 L 313.40625 29.398438 C 319.21875 23.53125 328.640625 23.53125 334.449219 29.398438 L 342.515625 37.546875 L 350.582031 29.398438 C 356.394531 23.53125 365.816406 23.53125 371.625 29.398438 L 373.027344 30.816406 C 378.839844 36.6875 378.839844 46.203125 373.027344 52.074219 L 364.960938 60.222656 L 373.027344 68.371094 C 378.839844 74.238281 378.839844 83.757812 373.027344 89.625 L 371.625 91.042969 C 365.816406 96.914062 356.394531 96.914062 350.582031 91.042969 L 342.515625 82.894531 L 334.449219 91.042969 C 328.640625 96.914062 319.21875 96.914062 313.40625 91.042969 Z M 312.003906 89.625 "/>
<path style=" stroke:none;fill-rule:nonzero;fill:rgb(32.941176%,37.647059%,50.196078%);fill-opacity:1;" d="M 341.179688 192.992188 C 332.960938 192.992188 326.300781 186.261719 326.300781 177.960938 L 326.300781 166.4375 L 314.890625 166.4375 C 306.675781 166.4375 300.011719 159.707031 300.011719 151.40625 L 300.011719 149.402344 C 300.011719 141.101562 306.675781 134.371094 314.890625 134.371094 L 326.300781 134.371094 L 326.300781 122.847656 C 326.300781 114.546875 332.960938 107.820312 341.179688 107.820312 L 343.164062 107.820312 C 351.382812 107.820312 358.042969 114.546875 358.042969 122.847656 L 358.042969 134.371094 L 369.453125 134.371094 C 377.667969 134.371094 384.332031 141.101562 384.332031 149.402344 L 384.332031 151.40625 C 384.332031 159.707031 377.667969 166.4375 369.453125 166.4375 L 358.042969 166.4375 L 358.042969 177.960938 C 358.042969 186.261719 351.382812 192.992188 343.164062 192.992188 Z M 341.179688 192.992188 "/>
<path style=" stroke:none;fill-rule:nonzero;fill:rgb(29.803922%,33.72549%,45.098039%);fill-opacity:1;" d="M 280.019531 181.226562 C 274.207031 187.097656 264.785156 187.097656 258.976562 181.226562 L 250.910156 173.078125 L 242.84375 181.226562 C 237.03125 187.097656 227.609375 187.097656 221.800781 181.226562 L 220.394531 179.808594 C 214.585938 173.941406 214.585938 164.421875 220.394531 158.554688 L 228.464844 150.40625 L 220.394531 142.257812 C 214.585938 136.386719 214.585938 126.871094 220.394531 121 L 221.800781 119.582031 C 227.609375 113.714844 237.03125 113.714844 242.84375 119.582031 L 250.910156 127.730469 L 258.976562 119.582031 C 264.785156 113.714844 274.207031 113.714844 280.019531 119.582031 L 281.421875 121 C 287.234375 126.871094 287.234375 136.386719 281.421875 142.257812 L 273.355469 150.40625 L 281.421875 158.554688 C 287.234375 164.421875 287.234375 173.941406 281.421875 179.808594 Z M 280.019531 181.226562 "/>
<path style=" stroke:none;fill-rule:nonzero;fill:rgb(32.941176%,37.647059%,50.196078%);fill-opacity:1;" d="M 250.261719 283.175781 C 242.042969 283.175781 235.382812 276.445312 235.382812 268.144531 L 235.382812 256.621094 L 223.972656 256.621094 C 215.757812 256.621094 209.09375 249.890625 209.09375 241.589844 L 209.09375 239.585938 C 209.09375 231.285156 215.757812 224.554688 223.972656 224.554688 L 235.382812 224.554688 L 235.382812 213.03125 C 235.382812 204.730469 242.042969 198.003906 250.261719 198.003906 L 252.246094 198.003906 C 260.464844 198.003906 267.125 204.730469 267.125 213.03125 L 267.125 224.554688 L 278.535156 224.554688 C 286.75 224.554688 293.414062 231.285156 293.414062 239.585938 L 293.414062 241.589844 C 293.414062 249.890625 286.75 256.621094 278.535156 256.621094 L 267.125 256.621094 L 267.125 268.144531 C 267.125 276.445312 260.464844 283.175781 252.246094 283.175781 Z M 250.261719 283.175781 "/>
<path style=" stroke:none;fill-rule:nonzero;fill:rgb(29.803922%,33.72549%,45.098039%);fill-opacity:1;" d="M 312.003906 269.992188 C 306.191406 264.125 306.191406 254.605469 312.003906 248.738281 L 320.070312 240.589844 L 312.003906 232.441406 C 306.191406 226.570312 306.191406 217.054688 312.003906 211.183594 L 313.40625 209.765625 C 319.21875 203.898438 328.640625 203.898438 334.449219 209.765625 L 342.515625 217.914062 L 350.582031 209.765625 C 356.394531 203.898438 365.816406 203.898438 371.625 209.765625 L 373.027344 211.183594 C 378.839844 217.054688 378.839844 226.570312 373.027344 232.441406 L 364.960938 240.589844 L 373.027344 248.738281 C 378.839844 254.605469 378.839844 264.125 373.027344 269.992188 L 371.625 271.410156 C 365.816406 277.28125 356.394531 277.28125 350.582031 271.410156 L 342.515625 263.261719 L 334.449219 271.410156 C 328.640625 277.28125 319.21875 277.28125 313.40625 271.410156 Z M 312.003906 269.992188 "/>
<path style=" stroke:none;fill-rule:nonzero;fill:rgb(32.941176%,37.647059%,50.196078%);fill-opacity:1;" d="M 430.863281 102.808594 C 422.644531 102.808594 415.984375 96.078125 415.984375 87.777344 L 415.984375 76.253906 L 404.574219 76.253906 C 396.359375 76.253906 389.695312 69.523438 389.695312 61.222656 L 389.695312 59.21875 C 389.695312 50.917969 396.359375 44.1875 404.574219 44.1875 L 415.984375 44.1875 L 415.984375 32.664062 C 415.984375 24.363281 422.644531 17.636719 430.863281 17.636719 L 432.847656 17.636719 C 441.066406 17.636719 447.726562 24.363281 447.726562 32.664062 L 447.726562 44.1875 L 459.136719 44.1875 C 467.351562 44.1875 474.015625 50.917969 474.015625 59.21875 L 474.015625 61.222656 C 474.015625 69.523438 467.351562 76.253906 459.136719 76.253906 L 447.726562 76.253906 L 447.726562 87.777344 C 447.726562 96.078125 441.066406 102.808594 432.847656 102.808594 Z M 430.863281 102.808594 "/>
<path style=" stroke:none;fill-rule:nonzero;fill:rgb(29.803922%,33.72549%,45.098039%);fill-opacity:1;" d="M 492.605469 89.625 C 486.792969 83.757812 486.792969 74.238281 492.605469 68.371094 L 500.671875 60.222656 L 492.605469 52.074219 C 486.792969 46.203125 486.792969 36.6875 492.605469 30.816406 L 494.007812 29.398438 C 499.820312 23.53125 509.242188 23.53125 515.050781 29.398438 L 523.117188 37.546875 L 531.183594 29.398438 C 536.996094 23.53125 546.417969 23.53125 552.226562 29.398438 L 553.632812 30.816406 C 559.441406 36.6875 559.441406 46.203125 553.632812 52.074219 L 545.5625 60.222656 L 553.632812 68.371094 C 559.441406 74.238281 559.441406 83.757812 553.632812 89.625 L 552.226562 91.042969 C 546.417969 96.914062 536.996094 96.914062 531.183594 91.042969 L 523.117188 82.894531 L 515.050781 91.042969 C 509.242188 96.914062 499.820312 96.914062 494.007812 91.042969 Z M 492.605469 89.625 "/>
<path style=" stroke:none;fill-rule:nonzero;fill:rgb(32.941176%,37.647059%,50.196078%);fill-opacity:1;" d="M 521.78125 192.992188 C 513.5625 192.992188 506.902344 186.261719 506.902344 177.960938 L 506.902344 166.4375 L 495.492188 166.4375 C 487.277344 166.4375 480.613281 159.707031 480.613281 151.40625 L 480.613281 149.402344 C 480.613281 141.101562 487.277344 134.371094 495.492188 134.371094 L 506.902344 134.371094 L 506.902344 122.847656 C 506.902344 114.546875 513.5625 107.820312 521.78125 107.820312 L 523.765625 107.820312 C 531.984375 107.820312 538.644531 114.546875 538.644531 122.847656 L 538.644531 134.371094 L 550.054688 134.371094 C 558.269531 134.371094 564.933594 141.101562 564.933594 149.402344 L 564.933594 151.40625 C 564.933594 159.707031 558.269531 166.4375 550.054688 166.4375 L 538.644531 166.4375 L 538.644531 177.960938 C 538.644531 186.261719 531.984375 192.992188 523.765625 192.992188 Z M 521.78125 192.992188 "/>
<path style=" stroke:none;fill-rule:nonzero;fill:rgb(29.803922%,33.72549%,45.098039%);fill-opacity:1;" d="M 460.621094 181.226562 C 454.808594 187.097656 445.386719 187.097656 439.578125 181.226562 L 431.511719 173.078125 L 423.445312 181.226562 C 417.632812 187.097656 408.210938 187.097656 402.402344 181.226562 L 401 179.808594 C 395.1875 173.941406 395.1875 164.421875 401 158.554688 L 409.066406 150.40625 L 401 142.257812 C 395.1875 136.386719 395.1875 126.871094 401 121 L 402.402344 119.582031 C 408.210938 113.714844 417.632812 113.714844 423.445312 119.582031 L 431.511719 127.730469 L 439.578125 119.582031 C 445.386719 113.714844 454.808594 113.714844 460.621094 119.582031 L 462.023438 121 C 467.835938 126.871094 467.835938 136.386719 462.023438 142.257812 L 453.957031 150.40625 L 462.023438 158.554688 C 467.835938 164.421875 467.835938 173.941406 462.023438 179.808594 Z M 460.621094 181.226562 "/>
<path style=" stroke:none;fill-rule:nonzero;fill:rgb(32.941176%,37.647059%,50.196078%);fill-opacity:1;" d="M 430.863281 283.175781 C 422.644531 283.175781 415.984375 276.445312 415.984375 268.144531 L 415.984375 256.621094 L 404.574219 256.621094 C 396.359375 256.621094 389.695312 249.890625 389.695312 241.589844 L 389.695312 239.585938 C 389.695312 231.285156 396.359375 224.554688 404.574219 224.554688 L 415.984375 224.554688 L 415.984375 213.03125 C 415.984375 204.730469 422.644531 198.003906 430.863281 198.003906 L 432.847656 198.003906 C 441.066406 198.003906 447.726562 204.730469 447.726562 213.03125 L 447.726562 224.554688 L 459.136719 224.554688 C 467.351562 224.554688 474.015625 231.285156 474.015625 239.585938 L 474.015625 241.589844 C 474.015625 249.890625 467.351562 256.621094 459.136719 256.621094 L 447.726562 256.621094 L 447.726562 268.144531 C 447.726562 276.445312 441.066406 283.175781 432.847656 283.175781 Z M 430.863281 283.175781 "/>
<path style=" stroke:none;fill-rule:nonzero;fill:rgb(29.803922%,33.72549%,45.098039%);fill-opacity:1;" d="M 492.605469 269.992188 C 486.792969 264.125 486.792969 254.605469 492.605469 248.738281 L 500.671875 240.589844 L 492.605469 232.441406 C 486.792969 226.570312 486.792969 217.054688 492.605469 211.183594 L 494.007812 209.765625 C 499.820312 203.898438 509.242188 203.898438 515.050781 209.765625 L 523.117188 217.914062 L 531.183594 209.765625 C 536.996094 203.898438 546.417969 203.898438 552.226562 209.765625 L 553.632812 211.183594 C 559.441406 217.054688 559.441406 226.570312 553.632812 232.441406 L 545.5625 240.589844 L 553.632812 248.738281 C 559.441406 254.605469 559.441406 264.125 553.632812 269.992188 L 552.226562 271.410156 C 546.417969 277.28125 536.996094 277.28125 531.183594 271.410156 L 523.117188 263.261719 L 515.050781 271.410156 C 509.242188 277.28125 499.820312 277.28125 494.007812 271.410156 Z M 492.605469 269.992188 "/>
<path style="fill:none;stroke-width:8.5;stroke-linecap:square;stroke-linejoin:miter;stroke:rgb(0%,0%,0%);stroke-opacity:0.501961;stroke-miterlimit:10;" d="M 176.200946 204.65128 C 177.789384 205.237113 178.583603 206.032999 178.583603 207.035082 C 178.583603 208.035238 178.204013 209.274353 177.442886 210.752426 C 176.6876 212.230499 176.053004 212.968572 175.537151 212.968572 C 175.393101 212.968572 175.227639 212.889561 175.042711 212.733467 C 174.857782 212.571592 174.42758 212.398155 173.750159 212.213155 C 173.078577 212.028155 172.498485 211.935655 172.011832 211.935655 C 170.35137 211.935655 169.010152 212.523415 167.992073 213.698936 C 166.979833 214.874457 166.473713 216.672426 166.473713 219.09477 C 166.473713 221.513259 166.993459 223.309301 168.034898 224.484822 C 169.08023 225.658415 170.405875 226.246176 172.011832 226.246176 C 172.673681 226.246176 173.411448 226.153676 174.229026 225.970603 C 175.044657 225.779822 175.624748 225.513884 175.965406 225.17279 C 176.021858 225.111124 176.136708 225.08029 176.309957 225.08029 C 176.483205 225.08029 176.804397 225.40404 177.275478 226.053467 C 177.750452 226.697113 178.186493 227.543103 178.583603 228.587582 C 178.986552 229.633988 179.189 230.443363 179.189 231.01378 C 179.189 232.133415 178.330543 233.023728 176.611682 233.68279 C 174.894768 234.337999 172.860556 234.665603 170.510992 234.665603 C 166.726773 234.665603 163.619976 233.333988 161.184761 230.670759 C 158.751493 228.00753 157.532913 224.245863 157.532913 219.389613 C 157.532913 214.531436 158.786532 210.715811 161.293772 207.940811 C 163.801011 205.16003 166.929221 203.768676 170.678401 203.768676 C 170.678401 203.768676 174.612509 204.06352 176.200946 204.65128 Z M 183.790797 215.134613 C 183.790797 214.232738 184.034123 213.654613 184.520777 213.396384 C 186.150093 212.679509 188.3887 212.322999 191.236597 212.322999 C 194.090334 212.322999 196.10508 212.987842 197.278889 214.319457 C 198.454644 215.651072 199.042522 217.620551 199.042522 220.227895 L 199.042522 227.018936 L 200.502483 227.018936 C 200.989136 227.018936 201.370673 227.307999 201.643199 227.884197 C 201.917672 228.454613 202.055881 229.240863 202.055881 230.242947 C 202.055881 231.243103 201.802821 232.231697 201.300595 233.204874 C 200.796422 234.178051 200.117053 234.665603 199.260543 234.665603 C 197.711038 234.665603 196.463258 234.25128 195.517203 233.422634 C 195.090894 233.075759 194.763863 232.659509 194.534162 232.171957 C 193.214358 233.83503 191.162626 234.665603 188.38286 234.665603 C 186.29609 234.665603 184.534403 233.921749 183.103642 232.432113 C 181.670933 230.944405 180.954579 229.181124 180.954579 227.144197 C 180.954579 222.478728 183.746024 220.14503 189.330862 220.14503 L 191.697945 220.14503 L 191.697945 219.707582 C 191.697945 218.963728 191.575308 218.485811 191.328088 218.273832 C 191.088655 218.059926 190.52219 217.953936 189.632587 217.953936 C 188.542483 217.953936 186.994924 218.181332 184.991858 218.634197 C 184.991858 218.634197 183.790797 216.034561 183.790797 215.134613 Z M 188.433472 226.548728 C 188.433472 227.17503 188.602828 227.654874 188.945432 227.984405 C 189.28609 228.313936 189.722131 228.479665 190.253557 228.479665 C 190.784983 228.479665 191.267743 228.263832 191.697945 227.832165 L 191.697945 224.52529 L 190.489097 224.52529 C 189.118681 224.52529 188.433472 225.19977 188.433472 226.548728 Z M 213.739462 242.059822 C 213.739462 242.262165 212.513095 242.362374 210.062307 242.362374 C 207.617359 242.362374 206.394885 242.262165 206.394885 242.059822 L 206.394885 219.92727 L 204.934924 219.92727 C 204.245823 219.92727 203.772795 219.297113 203.515842 218.038728 C 203.426298 217.635967 203.381526 217.119509 203.381526 216.493207 C 203.381526 215.861124 203.583974 215.113415 203.986923 214.252009 C 204.557281 212.993624 205.474136 212.363467 206.739436 212.363467 C 207.566747 212.363467 208.331767 212.556176 209.030601 212.94352 C 209.735276 213.328936 210.221929 213.687374 210.490562 214.016905 C 210.765035 214.348363 210.903245 214.541072 210.903245 214.596957 C 212.82066 213.107322 214.897698 212.363467 217.130465 212.363467 C 219.369071 212.363467 221.288433 213.230655 222.888551 214.96503 C 224.494508 216.695551 225.296513 219.37227 225.296513 222.99904 C 225.296513 226.623884 224.494508 229.433572 222.888551 231.426176 C 221.288433 233.411072 219.256168 234.405447 216.7937 234.405447 C 215.674397 234.405447 214.656317 234.349561 213.739462 234.23779 Z M 214.084013 220.355082 L 214.084013 227.959353 C 214.570666 228.02102 214.963883 228.051853 215.267554 228.051853 C 215.56928 228.051853 215.80482 228.051853 215.972229 228.051853 C 217.146038 227.934301 222.820419 226.429249 222.820419 223.53477 C 222.820419 221.100863 216.990308 219.884874 215.501148 219.884874 C 215.501148 219.884874 214.541467 220.040967 214.084013 220.355082 Z M 238.23566 233.977634 C 238.23566 234.324509 237.032652 234.497947 234.626636 234.497947 C 231.763166 234.380395 230.330458 234.193467 230.330458 233.935238 L 230.330458 218.726697 L 228.13857 218.726697 C 227.562372 218.726697 227.274273 217.736176 227.274273 215.755134 C 227.274273 215.240603 227.324885 214.610447 227.426109 213.866592 C 227.525386 213.122738 227.735621 212.750811 228.054866 212.750811 L 230.330458 212.750811 L 230.330458 208.964092 C 230.330458 208.393676 231.539306 208.108467 233.955054 208.108467 C 236.37859 208.108467 237.589384 208.33779 237.589384 208.796436 L 237.589384 211.550238 L 237.632209 212.750811 L 241.291845 212.750811 C 241.778498 212.750811 242.021825 213.754822 242.021825 215.762842 C 242.021825 217.767009 241.778498 218.769092 241.291845 218.769092 L 238.23566 218.769092 Z M 254.394508 227.791697 C 255.770764 227.791697 256.919267 227.519978 257.836122 226.97654 C 258.262431 226.97654 258.610875 227.71654 258.885347 229.192686 C 259.15982 230.664978 259.296083 231.667061 259.296083 232.197009 C 259.296083 232.728884 259.224058 233.079613 259.078062 233.24727 C 257.561649 234.193467 255.486558 234.665603 252.850842 234.665603 C 250.215126 234.665603 247.970679 233.686645 246.119449 231.726801 C 244.272112 229.763103 243.349416 227.08253 243.349416 223.687009 C 243.349416 220.289561 244.258485 217.549249 246.076623 215.46029 C 247.896708 213.367478 250.31635 212.321072 253.337496 212.321072 C 256.364482 212.321072 258.466825 213.051436 259.640634 214.512165 C 259.897587 214.82628 260.02801 215.290707 260.02801 215.905447 C 260.02801 216.522113 259.91316 217.273676 259.683459 218.163988 C 259.167607 219.998572 257.382561 221.386072 257.16454 221.386072 C 256.952359 221.386072 256.685673 221.216488 256.368375 220.875395 C 255.254911 219.755759 254.359468 219.196905 253.682047 219.196905 C 253.010465 219.196905 252.430373 219.539926 251.94372 220.227895 C 251.457066 220.91779 251.213739 222.033572 251.213739 223.577165 C 251.213739 223.577165 252.274644 227.791697 254.394508 227.791697 Z M 269.560582 233.935238 C 269.560582 234.193467 268.363414 234.320655 265.969078 234.320655 C 263.578635 234.320655 262.38536 234.122165 262.38536 233.725186 L 262.38536 204.28128 C 262.38536 204.084717 262.829189 203.945967 263.718791 203.861176 C 264.608394 203.77253 265.353948 203.72628 265.951558 203.72628 C 268.357574 203.72628 269.560582 203.984509 269.560582 204.49904 L 269.560582 213.093832 C 271.166539 212.608207 272.387066 212.363467 273.220217 212.363467 C 275.396532 212.363467 277.115393 212.945447 278.374853 214.109405 C 279.632366 215.267582 280.263069 217.422061 280.263069 220.572842 L 280.263069 233.892842 C 280.263069 234.151072 279.145712 234.280186 276.912945 234.280186 C 274.390133 234.195395 273.128726 234.05279 273.128726 233.850447 L 273.128726 221.218415 C 273.128726 219.815499 272.671272 219.112113 271.760256 219.112113 C 271.127607 219.112113 270.395679 219.410811 269.560582 220.010134 Z M 285.425491 215.134613 C 285.425491 214.232738 285.668817 213.654613 286.155471 213.396384 C 287.784787 212.679509 290.023394 212.321072 292.871291 212.321072 C 295.725028 212.321072 297.739774 212.987842 298.913583 214.319457 C 300.089338 215.651072 300.677216 217.620551 300.677216 220.227895 L 300.677216 227.018936 L 302.137177 227.018936 C 302.62383 227.018936 303.00342 227.307999 303.277893 227.884197 C 303.552366 228.454613 303.690575 229.240863 303.690575 230.242947 C 303.690575 231.243103 303.437515 232.231697 302.935289 233.204874 C 302.431116 234.178051 301.751747 234.665603 300.895237 234.665603 C 299.345732 234.665603 298.096005 234.25128 297.151897 233.422634 C 296.725588 233.075759 296.398557 232.659509 296.168857 232.171957 C 294.849052 233.83503 292.79732 234.665603 290.017554 234.665603 C 287.928837 234.665603 286.169097 233.921749 284.736389 232.432113 C 283.305627 230.944405 282.589273 229.181124 282.589273 227.144197 C 282.589273 222.478728 285.380718 220.14503 290.965556 220.14503 L 293.332639 219.707582 C 293.332639 218.963728 293.210002 218.485811 292.962782 218.273832 C 292.721402 218.059926 292.156884 217.953936 291.267281 217.953936 C 290.177177 217.953936 288.629618 218.181332 286.626552 218.634197 C 286.626552 218.634197 285.425491 216.034561 285.425491 215.134613 Z M 290.068166 226.548728 C 290.068166 227.17503 290.237522 227.654874 290.580126 227.984405 C 290.920784 228.313936 291.356825 228.479665 291.888251 228.479665 C 292.419677 228.479665 292.900491 228.263832 293.332639 227.832165 L 293.332639 224.52529 L 292.123791 224.52529 C 290.753375 224.52529 290.068166 225.19977 290.068166 226.548728 Z M 312.535992 228.604926 C 313.398342 228.604926 313.828544 228.306228 313.828544 227.706905 C 313.828544 227.277165 313.084937 226.716384 311.595777 226.028415 C 308.015953 224.567686 306.225067 222.176176 306.225067 218.851957 C 306.225067 216.732165 306.997873 215.113415 308.541539 214.001488 C 310.091044 212.881853 311.946168 212.322999 314.10691 212.322999 C 316.271545 212.322999 318.105256 212.552322 319.604149 213.010967 C 321.108883 213.469613 321.862222 214.070863 321.862222 214.814717 C 321.862222 215.44102 321.554657 216.27352 320.939527 217.308363 C 320.32245 218.337426 319.900035 218.894353 319.670334 218.977217 C 318.440074 218.29503 317.10859 217.953936 315.675881 217.953936 C 314.903075 217.953936 314.517646 218.225655 314.517646 218.769092 C 314.517646 219.110186 314.665588 219.403103 314.96342 219.64977 C 315.265146 219.890655 315.816037 220.189353 316.616096 220.54779 C 317.421995 220.906228 318.087737 221.229978 318.613323 221.520967 C 319.144748 221.806176 319.740412 222.207009 320.402261 222.72154 C 321.778518 223.806488 322.465673 225.224822 322.465673 226.97654 C 322.465673 229.265915 321.704547 231.11977 320.182294 232.541957 C 318.665881 233.958363 316.374716 234.665603 313.308798 234.665603 C 311.278479 234.665603 309.431142 234.320655 307.768733 233.632686 C 306.108271 232.944717 305.277066 231.99852 305.277066 230.79602 C 305.277066 229.99628 305.469781 229.154145 305.855211 228.269613 C 306.242587 227.379301 306.635803 226.789613 307.038752 226.498624 C 307.038752 226.498624 311.194774 228.604926 312.535992 228.604926 Z M 312.535992 228.604926 " transform="matrix(2.006689,0,0,2.027027,-181.307057,-214.864926)"/>
<path style=" stroke:none;fill-rule:nonzero;fill:rgb(100%,100%,100%);fill-opacity:1;" d="M 161.191406 198.179688 C 165.390625 198.179688 169.085938 198.777344 172.273438 199.96875 C 175.460938 201.15625 177.054688 202.769531 177.054688 204.800781 C 177.054688 206.828125 176.292969 209.339844 174.765625 212.335938 C 173.25 215.332031 171.976562 216.828125 170.941406 216.828125 C 170.652344 216.828125 170.320312 216.667969 169.949219 216.351562 C 169.578125 216.023438 168.714844 215.671875 167.355469 215.296875 C 166.007812 214.921875 164.84375 214.734375 163.867188 214.734375 C 160.535156 214.734375 157.84375 215.925781 155.800781 218.308594 C 153.769531 220.691406 152.753906 224.335938 152.753906 229.246094 C 152.753906 234.148438 153.796875 237.789062 155.886719 240.171875 C 157.984375 242.550781 160.644531 243.742188 163.867188 243.742188 C 165.195312 243.742188 166.675781 243.554688 168.316406 243.183594 C 169.953125 242.796875 171.117188 242.257812 171.800781 241.566406 C 171.914062 241.441406 172.144531 241.378906 172.492188 241.378906 C 172.839844 241.378906 173.484375 242.035156 174.429688 243.351562 C 175.382812 244.65625 176.257812 246.371094 177.054688 248.488281 C 177.863281 250.609375 178.269531 252.25 178.269531 253.40625 C 178.269531 255.675781 176.546875 257.480469 173.097656 258.816406 C 169.652344 260.144531 165.570312 260.808594 160.855469 260.808594 C 153.261719 260.808594 147.027344 258.109375 142.140625 252.710938 C 137.257812 247.3125 134.8125 239.6875 134.8125 229.84375 C 134.8125 219.996094 137.328125 212.261719 142.359375 206.636719 C 147.390625 201 153.667969 198.179688 161.191406 198.179688 Z M 189.914062 228.3125 C 188.308594 225.40625 187.503906 223.042969 187.503906 221.21875 C 187.503906 219.390625 187.992188 218.21875 188.96875 217.695312 C 192.238281 216.242188 196.730469 215.515625 202.445312 215.515625 C 208.171875 215.515625 212.214844 216.867188 214.570312 219.566406 C 216.929688 222.265625 218.109375 226.257812 218.109375 231.542969 L 218.109375 245.308594 L 221.039062 245.308594 C 222.015625 245.308594 222.78125 245.894531 223.328125 247.0625 C 223.878906 248.21875 224.15625 249.8125 224.15625 251.84375 C 224.15625 253.871094 223.648438 255.875 222.640625 257.847656 C 221.628906 259.820312 220.265625 260.808594 218.546875 260.808594 C 215.4375 260.808594 212.933594 259.96875 211.035156 258.289062 C 210.179688 257.585938 209.523438 256.742188 209.0625 255.753906 C 206.414062 259.125 202.296875 260.808594 196.71875 260.808594 C 192.53125 260.808594 188.996094 259.300781 186.125 256.28125 C 183.25 253.265625 181.8125 249.691406 181.8125 245.5625 C 181.8125 236.105469 187.414062 231.375 198.621094 231.375 L 203.371094 231.375 L 203.371094 230.488281 C 203.371094 228.980469 203.125 228.011719 202.628906 227.582031 C 202.148438 227.148438 201.011719 226.933594 199.226562 226.933594 C 197.039062 226.933594 193.933594 227.394531 189.914062 228.3125 Z M 196.820312 244.355469 C 196.820312 245.625 197.160156 246.597656 197.847656 247.265625 C 198.53125 247.933594 199.40625 248.269531 200.472656 248.269531 C 201.539062 248.269531 202.507812 247.832031 203.371094 246.957031 L 203.371094 240.253906 L 200.945312 240.253906 C 198.195312 240.253906 196.820312 241.621094 196.820312 244.355469 Z M 247.601562 275.796875 C 247.601562 276.207031 245.140625 276.410156 240.222656 276.410156 C 235.316406 276.410156 232.863281 276.207031 232.863281 275.796875 L 232.863281 230.933594 L 229.933594 230.933594 C 228.550781 230.933594 227.601562 229.65625 227.085938 227.105469 C 226.90625 226.289062 226.816406 225.242188 226.816406 223.972656 C 226.816406 222.691406 227.222656 221.175781 228.03125 219.429688 C 229.175781 216.878906 231.015625 215.601562 233.554688 215.601562 C 235.214844 215.601562 236.75 215.992188 238.152344 216.777344 C 239.566406 217.558594 240.542969 218.285156 241.082031 218.953125 C 241.632812 219.625 241.90625 220.015625 241.90625 220.128906 C 245.757812 217.109375 249.925781 215.601562 254.40625 215.601562 C 258.898438 215.601562 262.75 217.359375 265.960938 220.875 C 269.183594 224.382812 270.792969 229.808594 270.792969 237.160156 C 270.792969 244.507812 269.183594 250.203125 265.960938 254.242188 C 262.75 258.265625 258.671875 260.28125 253.730469 260.28125 C 251.484375 260.28125 249.441406 260.167969 247.601562 259.941406 Z M 248.292969 231.800781 L 248.292969 247.214844 C 249.269531 247.339844 250.058594 247.402344 250.667969 247.402344 C 251.273438 247.402344 251.746094 247.402344 252.082031 247.402344 C 254.4375 247.164062 255.617188 244.113281 255.617188 238.246094 C 255.617188 233.3125 254.125 230.847656 251.136719 230.847656 C 251.136719 230.847656 249.210938 231.164062 248.292969 231.800781 Z M 296.757812 259.414062 C 296.757812 260.117188 294.34375 260.46875 289.515625 260.46875 C 283.769531 260.230469 280.894531 259.851562 280.894531 259.328125 L 280.894531 228.5 L 276.496094 228.5 C 275.339844 228.5 274.761719 226.492188 274.761719 222.476562 C 274.761719 221.433594 274.863281 220.15625 275.066406 218.648438 C 275.265625 217.140625 275.6875 216.386719 276.328125 216.386719 L 280.894531 216.386719 L 280.894531 208.710938 C 280.894531 207.554688 283.320312 206.976562 288.167969 206.976562 C 293.03125 206.976562 295.460938 207.441406 295.460938 208.371094 L 295.460938 213.953125 L 295.546875 216.386719 L 302.890625 216.386719 C 303.867188 216.386719 304.355469 218.421875 304.355469 222.492188 C 304.355469 226.554688 303.867188 228.585938 302.890625 228.585938 L 296.757812 228.585938 Z M 322.800781 238.332031 C 322.800781 244.027344 324.929688 246.875 329.183594 246.875 C 331.945312 246.875 334.25 246.324219 336.089844 245.222656 C 336.945312 245.222656 337.644531 246.722656 338.195312 249.714844 C 338.746094 252.699219 339.019531 254.730469 339.019531 255.804688 C 339.019531 256.882812 338.875 257.59375 338.582031 257.933594 C 335.539062 259.851562 331.375 260.808594 326.085938 260.808594 C 320.796875 260.808594 316.292969 258.824219 312.578125 254.851562 C 308.871094 250.871094 307.019531 245.4375 307.019531 238.554688 C 307.019531 231.667969 308.84375 226.113281 312.492188 221.878906 C 316.144531 217.636719 321 215.515625 327.0625 215.515625 C 333.136719 215.515625 337.355469 216.996094 339.710938 219.957031 C 340.226562 220.59375 340.488281 221.535156 340.488281 222.78125 C 340.488281 224.03125 340.257812 225.554688 339.796875 227.359375 C 338.761719 231.078125 337.410156 233.230469 335.738281 233.808594 C 335.511719 233.863281 335.179688 233.890625 334.742188 233.890625 C 334.316406 233.890625 333.78125 233.546875 333.144531 232.855469 C 330.910156 230.585938 329.113281 229.453125 327.753906 229.453125 C 326.40625 229.453125 325.242188 230.148438 324.265625 231.542969 C 323.289062 232.941406 322.800781 235.203125 322.800781 238.332031 Z M 359.617188 259.328125 C 359.617188 259.851562 357.214844 260.109375 352.410156 260.109375 C 347.613281 260.109375 345.21875 259.707031 345.21875 258.902344 L 345.21875 199.21875 C 345.21875 198.820312 346.109375 198.539062 347.894531 198.367188 C 349.679688 198.1875 351.175781 198.09375 352.375 198.09375 C 357.203125 198.09375 359.617188 198.617188 359.617188 199.660156 L 359.617188 217.082031 C 362.839844 216.097656 365.289062 215.601562 366.960938 215.601562 C 371.328125 215.601562 374.777344 216.78125 377.304688 219.140625 C 379.828125 221.488281 381.09375 225.855469 381.09375 232.242188 L 381.09375 259.242188 C 381.09375 259.765625 378.851562 260.027344 374.371094 260.027344 C 369.308594 259.855469 366.777344 259.566406 366.777344 259.15625 L 366.777344 233.550781 C 366.777344 230.707031 365.859375 229.28125 364.03125 229.28125 C 362.761719 229.28125 361.292969 229.886719 359.617188 231.101562 Z M 391.453125 221.21875 C 391.453125 219.390625 391.941406 218.21875 392.917969 217.695312 C 396.1875 216.242188 400.679688 215.519531 406.394531 215.519531 C 412.121094 215.519531 416.164062 216.867188 418.519531 219.566406 C 420.878906 222.265625 422.058594 226.257812 422.058594 231.542969 L 422.058594 245.308594 L 424.988281 245.308594 C 425.964844 245.308594 426.726562 245.894531 427.277344 247.0625 C 427.828125 248.21875 428.105469 249.8125 428.105469 251.84375 C 428.105469 253.871094 427.597656 255.875 426.589844 257.847656 C 425.578125 259.820312 424.214844 260.808594 422.496094 260.808594 C 419.386719 260.808594 416.878906 259.96875 414.984375 258.289062 C 414.128906 257.585938 413.472656 256.742188 413.011719 255.753906 C 410.363281 259.125 406.246094 260.808594 400.667969 260.808594 C 396.476562 260.808594 392.945312 259.300781 390.070312 256.28125 C 387.199219 253.265625 385.761719 249.691406 385.761719 245.5625 C 385.761719 236.105469 391.363281 231.375 402.570312 231.375 L 407.320312 231.375 L 407.320312 230.488281 C 407.320312 228.980469 407.074219 228.011719 406.578125 227.582031 C 406.09375 227.148438 404.960938 226.933594 403.175781 226.933594 C 400.988281 226.933594 397.882812 227.394531 393.863281 228.3125 C 393.863281 228.3125 391.453125 223.042969 391.453125 221.21875 Z M 400.769531 244.355469 C 400.769531 245.625 401.109375 246.597656 401.796875 247.265625 C 402.480469 247.933594 403.355469 248.269531 404.421875 248.269531 C 405.488281 248.269531 406.453125 247.832031 407.320312 246.957031 L 407.320312 240.253906 L 404.894531 240.253906 C 402.144531 240.253906 400.769531 241.621094 400.769531 244.355469 Z M 434.824219 244.253906 C 439.484375 247.101562 443.164062 248.523438 445.855469 248.523438 C 447.585938 248.523438 448.449219 247.917969 448.449219 246.703125 C 448.449219 245.832031 446.957031 244.695312 443.96875 243.300781 C 436.785156 240.339844 433.191406 235.492188 433.191406 228.753906 C 433.191406 224.457031 434.742188 221.175781 437.839844 218.921875 C 440.949219 216.652344 444.671875 215.519531 449.007812 215.519531 C 453.351562 215.519531 457.03125 215.984375 460.039062 216.914062 C 463.058594 217.84375 464.570312 219.0625 464.570312 220.570312 C 464.570312 221.839844 463.953125 223.523438 462.71875 225.625 C 461.480469 227.710938 460.632812 228.839844 460.171875 229.007812 C 457.703125 227.625 455.03125 226.933594 452.15625 226.933594 C 450.605469 226.933594 449.832031 227.484375 449.832031 228.585938 C 449.832031 229.277344 450.128906 229.871094 450.726562 230.371094 C 451.332031 230.859375 452.4375 231.464844 454.042969 232.191406 C 455.660156 232.917969 456.996094 233.574219 458.050781 234.164062 C 459.117188 234.742188 460.3125 235.554688 461.640625 236.597656 C 464.402344 238.796875 465.78125 241.671875 465.78125 245.222656 C 465.78125 249.863281 464.253906 253.621094 461.203125 256.503906 C 458.160156 259.375 453.558594 260.808594 447.40625 260.808594 C 443.332031 260.808594 439.625 260.109375 436.289062 258.714844 C 432.957031 257.320312 431.289062 255.402344 431.289062 252.964844 C 431.289062 251.34375 431.675781 249.636719 432.449219 247.84375 C 433.226562 246.039062 434.015625 244.84375 434.824219 244.253906 Z M 434.824219 244.253906 "/>
<path style="fill:none;stroke-width:12.5;stroke-linecap:butt;stroke-linejoin:miter;stroke:rgb(100%,100%,100%);stroke-opacity:1;stroke-miterlimit:10;" d="M 208.164358 158.478363 C 208.164358 140.955395 222.368804 126.75279 239.890282 126.75279 C 257.41176 126.75279 271.616207 140.955395 271.616207 158.478363 C 271.616207 175.999405 257.41176 190.203936 239.890282 190.203936 C 222.368804 190.203936 208.164358 175.999405 208.164358 158.478363 Z M 208.164358 158.478363 " transform="matrix(2.006689,0,0,2.027027,-181.307057,-214.864926)"/>
<path style="fill-rule:nonzero;fill:rgb(37.647059%,43.137255%,56.470588%);fill-opacity:1;stroke-width:5;stroke-linecap:butt;stroke-linejoin:miter;stroke:rgb(20%,22.745098%,30.196078%);stroke-opacity:1;stroke-miterlimit:10;" d="M 208.164358 158.478363 C 208.164358 140.955395 222.368804 126.75279 239.890282 126.75279 C 257.41176 126.75279 271.616207 140.955395 271.616207 158.478363 C 271.616207 175.999405 257.41176 190.203936 239.890282 190.203936 C 222.368804 190.203936 208.164358 175.999405 208.164358 158.478363 Z M 208.164358 158.478363 " transform="matrix(2.006689,0,0,2.027027,-181.307057,-214.864926)"/>
<path style=" stroke:none;fill-rule:nonzero;fill:rgb(10.980392%,22.745098%,66.27451%);fill-opacity:1;" d="M 341.992188 105.519531 C 335.617188 105.425781 320.117188 105.457031 306.394531 105.511719 L 317.226562 94.566406 C 313.914062 89.316406 308.289062 85.699219 301.800781 85.183594 C 301.441406 85.042969 300.953125 84.96875 300.320312 84.96875 C 295.085938 84.96875 291.296875 86.6875 288.625 88.796875 C 286.058594 90.613281 283.925781 93.019531 282.425781 95.820312 L 267.121094 80.199219 C 274.730469 70.082031 286.769531 63.546875 300.320312 63.546875 C 313.34375 63.546875 324.96875 69.582031 332.613281 79.03125 L 341.949219 69.597656 L 341.949219 103.714844 C 341.976562 104.316406 341.988281 104.917969 341.992188 105.519531 "/>
<path style=" stroke:none;fill-rule:nonzero;fill:rgb(25.882353%,52.156863%,95.686275%);fill-opacity:1;" d="M 300.074219 63.550781 C 299.984375 69.988281 300.015625 85.644531 300.070312 99.507812 L 289.234375 88.5625 C 284.039062 91.910156 280.457031 97.589844 279.945312 104.144531 C 279.804688 104.507812 279.730469 105 279.730469 105.640625 C 279.730469 110.929688 281.4375 114.753906 283.519531 117.453125 C 285.320312 120.050781 287.703125 122.203125 290.476562 123.71875 L 275.011719 139.175781 C 264.992188 131.488281 258.523438 119.328125 258.523438 105.640625 C 258.523438 92.484375 264.5 80.742188 273.855469 73.023438 L 264.515625 63.589844 L 298.292969 63.589844 C 298.882812 63.5625 299.480469 63.550781 300.078125 63.546875 "/>
<path style=" stroke:none;fill-rule:nonzero;fill:rgb(67.058824%,67.058824%,67.058824%);fill-opacity:1;" d="M 258.527344 105.640625 C 264.902344 105.734375 280.402344 105.703125 294.125 105.648438 L 283.292969 116.59375 C 286.605469 121.84375 292.226562 125.460938 298.71875 125.976562 C 299.074219 126.117188 299.5625 126.191406 300.195312 126.191406 C 305.433594 126.191406 309.21875 124.46875 311.890625 122.363281 C 314.460938 120.546875 316.59375 118.140625 318.09375 115.335938 L 333.398438 130.960938 C 325.789062 141.078125 313.75 147.613281 300.195312 147.613281 C 287.175781 147.613281 275.550781 141.578125 267.90625 132.128906 L 258.570312 141.5625 L 258.570312 107.445312 C 258.542969 106.84375 258.527344 106.242188 258.527344 105.640625 "/>
</g>
</svg>
