<?xml version="1.0" encoding="UTF-8"?>
<svg xmlns="http://www.w3.org/2000/svg" xmlns:xlink="http://www.w3.org/1999/xlink" width="600px" height="300px" viewBox="0 0 600 300" version="1.1">
<defs>
<linearGradient id="linear0" gradientUnits="userSpaceOnUse" x1="89.77369" y1="179.68351" x2="389.07269" y2="179.68351" gradientTransform="matrix(2.006689,0,0,2,-180.147873,-209.71902)">
<stop offset="0" style="stop-color:rgb(0%,100%,51.764706%);stop-opacity:1;"/>
<stop offset="1" style="stop-color:rgb(0%,78.823529%,100%);stop-opacity:1;"/>
</linearGradient>
<radialGradient id="radial0" gradientUnits="userSpaceOnUse" cx="360.38" cy="139.89738" fx="360.38" fy="139.89738" r="137.59621" gradientTransform="matrix(2.006689,0,0,2,-180.147873,-209.71902)">
<stop offset="0" style="stop-color:rgb(66.666667%,100%,90.588235%);stop-opacity:0.717647;"/>
<stop offset="1" style="stop-color:rgb(66.666667%,100%,90.588235%);stop-opacity:0;"/>
</radialGradient>
<radialGradient id="radial1" gradientUnits="userSpaceOnUse" cx="118.51546" cy="139.89738" fx="118.51546" fy="139.89738" r="137.59621" gradientTransform="matrix(2.006689,0,0,2,-180.147873,-209.71902)">
<stop offset="0" style="stop-color:rgb(50.980392%,100%,79.607843%);stop-opacity:0.917647;"/>
<stop offset="1" style="stop-color:rgb(50.980392%,100%,79.607843%);stop-opacity:0;"/>
</radialGradient>
<linearGradient id="linear1" gradientUnits="userSpaceOnUse" x1="176.6225" y1="126.7205" x2="181.3165" y2="158.2175" gradientTransform="matrix(2.006689,0,0,2,-180.147873,-209.71902)">
<stop offset="0" style="stop-color:rgb(25.490196%,63.921569%,38.431373%);stop-opacity:0.32549;"/>
<stop offset="1" style="stop-color:rgb(24.705882%,57.254902%,62.352941%);stop-opacity:0.588235;"/>
</linearGradient>
<linearGradient id="linear2" gradientUnits="userSpaceOnUse" x1="179.1995" y1="142.4825" x2="173.2525" y2="129.1935" gradientTransform="matrix(2.006689,0,0,2,-180.147873,-209.71902)">
<stop offset="0" style="stop-color:rgb(100%,100%,100%);stop-opacity:0;"/>
<stop offset="1" style="stop-color:rgb(100%,100%,100%);stop-opacity:0.305882;"/>
</linearGradient>
<linearGradient id="linear3" gradientUnits="userSpaceOnUse" x1="174.6365" y1="130.7175" x2="176.8145" y2="136.2885" gradientTransform="matrix(2.006689,0,0,2,-180.147873,-209.71902)">
<stop offset="0" style="stop-color:rgb(100%,100%,100%);stop-opacity:0.572549;"/>
<stop offset="1" style="stop-color:rgb(100%,100%,100%);stop-opacity:0;"/>
</linearGradient>
<linearGradient id="linear4" gradientUnits="userSpaceOnUse" x1="180.2825" y1="143.6965" x2="182.4475" y2="158.2185" gradientTransform="matrix(2.006689,0,0,2,-180.147873,-209.71902)">
<stop offset="0" style="stop-color:rgb(0%,0%,0%);stop-opacity:0;"/>
<stop offset="1" style="stop-color:rgb(0%,0%,0%);stop-opacity:0.207843;"/>
</linearGradient>
<linearGradient id="linear5" gradientUnits="userSpaceOnUse" x1="288.8005" y1="191.6125" x2="301.9515" y2="227.6445" gradientTransform="matrix(2.006689,0,0,2,-180.147873,-209.71902)">
<stop offset="0" style="stop-color:rgb(25.490196%,63.921569%,38.431373%);stop-opacity:0.32549;"/>
<stop offset="1" style="stop-color:rgb(24.705882%,57.254902%,62.352941%);stop-opacity:0.588235;"/>
</linearGradient>
<linearGradient id="linear6" gradientUnits="userSpaceOnUse" x1="295.6505" y1="209.5885" x2="285.4215" y2="195.3455" gradientTransform="matrix(2.006689,0,0,2,-180.147873,-209.71902)">
<stop offset="0" style="stop-color:rgb(100%,100%,100%);stop-opacity:0;"/>
<stop offset="1" style="stop-color:rgb(100%,100%,100%);stop-opacity:0.305882;"/>
</linearGradient>
<linearGradient id="linear7" gradientUnits="userSpaceOnUse" x1="287.4225" y1="196.8085" x2="291.3405" y2="202.8555" gradientTransform="matrix(2.006689,0,0,2,-180.147873,-209.71902)">
<stop offset="0" style="stop-color:rgb(100%,100%,100%);stop-opacity:0.572549;"/>
<stop offset="1" style="stop-color:rgb(100%,100%,100%);stop-opacity:0;"/>
</linearGradient>
<linearGradient id="linear8" gradientUnits="userSpaceOnUse" x1="297.2225" y1="210.7585" x2="303.2865" y2="227.3725" gradientTransform="matrix(2.006689,0,0,2,-180.147873,-209.71902)">
<stop offset="0" style="stop-color:rgb(0%,0%,0%);stop-opacity:0;"/>
<stop offset="1" style="stop-color:rgb(0%,0%,0%);stop-opacity:0.207843;"/>
</linearGradient>
<linearGradient id="linear9" gradientUnits="userSpaceOnUse" x1="277.2545" y1="113.5185" x2="285.2825" y2="171.4155" gradientTransform="matrix(2.006689,0,0,2,-180.147873,-209.71902)">
<stop offset="0" style="stop-color:rgb(25.490196%,63.921569%,38.431373%);stop-opacity:0.32549;"/>
<stop offset="1" style="stop-color:rgb(24.705882%,57.254902%,62.352941%);stop-opacity:0.588235;"/>
</linearGradient>
<linearGradient id="linear10" gradientUnits="userSpaceOnUse" x1="281.6905" y1="142.4965" x2="271.0235" y2="117.9955" gradientTransform="matrix(2.006689,0,0,2,-180.147873,-209.71902)">
<stop offset="0" style="stop-color:rgb(100%,100%,100%);stop-opacity:0;"/>
<stop offset="1" style="stop-color:rgb(100%,100%,100%);stop-opacity:0.305882;"/>
</linearGradient>
<linearGradient id="linear11" gradientUnits="userSpaceOnUse" x1="273.5345" y1="120.8165" x2="277.4295" y2="131.0835" gradientTransform="matrix(2.006689,0,0,2,-180.147873,-209.71902)">
<stop offset="0" style="stop-color:rgb(100%,100%,100%);stop-opacity:0.572549;"/>
<stop offset="1" style="stop-color:rgb(100%,100%,100%);stop-opacity:0;"/>
</linearGradient>
<linearGradient id="linear12" gradientUnits="userSpaceOnUse" x1="283.6565" y1="144.7445" x2="287.3575" y2="171.4385" gradientTransform="matrix(2.006689,0,0,2,-180.147873,-209.71902)">
<stop offset="0" style="stop-color:rgb(0%,0%,0%);stop-opacity:0;"/>
<stop offset="1" style="stop-color:rgb(0%,0%,0%);stop-opacity:0.207843;"/>
</linearGradient>
<linearGradient id="linear13" gradientUnits="userSpaceOnUse" x1="185.5055" y1="183.2995" x2="166.6775" y2="238.6345" gradientTransform="matrix(2.006689,0,0,2,-180.147873,-209.71902)">
<stop offset="0" style="stop-color:rgb(25.490196%,63.921569%,38.431373%);stop-opacity:0.32549;"/>
<stop offset="1" style="stop-color:rgb(24.705882%,57.254902%,62.352941%);stop-opacity:0.588235;"/>
</linearGradient>
<linearGradient id="linear14" gradientUnits="userSpaceOnUse" x1="176.4555" y1="211.1825" x2="177.9275" y2="184.5005" gradientTransform="matrix(2.006689,0,0,2,-180.147873,-209.71902)">
<stop offset="0" style="stop-color:rgb(100%,100%,100%);stop-opacity:0;"/>
<stop offset="1" style="stop-color:rgb(100%,100%,100%);stop-opacity:0.305882;"/>
</linearGradient>
<linearGradient id="linear15" gradientUnits="userSpaceOnUse" x1="178.9045" y1="188.1495" x2="177.7735" y2="199.0715" gradientTransform="matrix(2.006689,0,0,2,-180.147873,-209.71902)">
<stop offset="0" style="stop-color:rgb(100%,100%,100%);stop-opacity:0.572549;"/>
<stop offset="1" style="stop-color:rgb(100%,100%,100%);stop-opacity:0;"/>
</linearGradient>
<linearGradient id="linear16" gradientUnits="userSpaceOnUse" x1="177.2025" y1="214.0735" x2="168.5215" y2="239.5875" gradientTransform="matrix(2.006689,0,0,2,-180.147873,-209.71902)">
<stop offset="0" style="stop-color:rgb(0%,0%,0%);stop-opacity:0;"/>
<stop offset="1" style="stop-color:rgb(0%,0%,0%);stop-opacity:0.207843;"/>
</linearGradient>
<linearGradient id="linear17" gradientUnits="userSpaceOnUse" x1="213.5715" y1="136.9045" x2="266.4295" y2="189.7615" gradientTransform="matrix(2.006689,0,0,2,-180.147873,-209.71902)">
<stop offset="0" style="stop-color:rgb(0%,60%,30.980392%);stop-opacity:1;"/>
<stop offset="1" style="stop-color:rgb(0%,47.058824%,60%);stop-opacity:1;"/>
</linearGradient>
<linearGradient id="linear18" gradientUnits="userSpaceOnUse" x1="216.6605" y1="139.9925" x2="263.3405" y2="186.6725" gradientTransform="matrix(2.006689,0,0,2,-180.147873,-209.71902)">
<stop offset="0" style="stop-color:rgb(0%,100%,51.764706%);stop-opacity:1;"/>
<stop offset="1" style="stop-color:rgb(0%,78.823529%,100%);stop-opacity:1;"/>
</linearGradient>
<linearGradient id="linear19" gradientUnits="userSpaceOnUse" x1="129.0735" y1="115.4615" x2="135.4885" y2="143.6885" gradientTransform="matrix(2.006689,0,0,2,-180.147873,-209.71902)">
<stop offset="0" style="stop-color:rgb(25.490196%,63.921569%,38.431373%);stop-opacity:0.32549;"/>
<stop offset="1" style="stop-color:rgb(24.705882%,57.254902%,62.352941%);stop-opacity:0.588235;"/>
</linearGradient>
<linearGradient id="linear20" gradientUnits="userSpaceOnUse" x1="132.4905" y1="129.5705" x2="126.1885" y2="117.9345" gradientTransform="matrix(2.006689,0,0,2,-180.147873,-209.71902)">
<stop offset="0" style="stop-color:rgb(100%,100%,100%);stop-opacity:0;"/>
<stop offset="1" style="stop-color:rgb(100%,100%,100%);stop-opacity:0.305882;"/>
</linearGradient>
<linearGradient id="linear21" gradientUnits="userSpaceOnUse" x1="127.5475" y1="119.2195" x2="129.9045" y2="124.1205" gradientTransform="matrix(2.006689,0,0,2,-180.147873,-209.71902)">
<stop offset="0" style="stop-color:rgb(100%,100%,100%);stop-opacity:0.572549;"/>
<stop offset="1" style="stop-color:rgb(100%,100%,100%);stop-opacity:0;"/>
</linearGradient>
<linearGradient id="linear22" gradientUnits="userSpaceOnUse" x1="133.5555" y1="130.5965" x2="136.5135" y2="143.6115" gradientTransform="matrix(2.006689,0,0,2,-180.147873,-209.71902)">
<stop offset="0" style="stop-color:rgb(0%,0%,0%);stop-opacity:0;"/>
<stop offset="1" style="stop-color:rgb(0%,0%,0%);stop-opacity:0.207843;"/>
</linearGradient>
<linearGradient id="linear23" gradientUnits="userSpaceOnUse" x1="126.4035" y1="150.2475" x2="128.1745" y2="199.1615" gradientTransform="matrix(2.006689,0,0,2,-180.147873,-209.71902)">
<stop offset="0" style="stop-color:rgb(25.490196%,63.921569%,38.431373%);stop-opacity:0.32549;"/>
<stop offset="1" style="stop-color:rgb(24.705882%,57.254902%,62.352941%);stop-opacity:0.588235;"/>
</linearGradient>
<linearGradient id="linear24" gradientUnits="userSpaceOnUse" x1="127.6385" y1="174.7645" x2="120.8325" y2="153.4475" gradientTransform="matrix(2.006689,0,0,2,-180.147873,-209.71902)">
<stop offset="0" style="stop-color:rgb(100%,100%,100%);stop-opacity:0;"/>
<stop offset="1" style="stop-color:rgb(100%,100%,100%);stop-opacity:0.305882;"/>
</linearGradient>
<linearGradient id="linear25" gradientUnits="userSpaceOnUse" x1="122.6855" y1="156.0115" x2="125.0585" y2="164.8945" gradientTransform="matrix(2.006689,0,0,2,-180.147873,-209.71902)">
<stop offset="0" style="stop-color:rgb(100%,100%,100%);stop-opacity:0.572549;"/>
<stop offset="1" style="stop-color:rgb(100%,100%,100%);stop-opacity:0;"/>
</linearGradient>
<linearGradient id="linear26" gradientUnits="userSpaceOnUse" x1="129.0845" y1="176.8045" x2="129.9015" y2="199.3565" gradientTransform="matrix(2.006689,0,0,2,-180.147873,-209.71902)">
<stop offset="0" style="stop-color:rgb(0%,0%,0%);stop-opacity:0;"/>
<stop offset="1" style="stop-color:rgb(0%,0%,0%);stop-opacity:0.207843;"/>
</linearGradient>
<linearGradient id="linear27" gradientUnits="userSpaceOnUse" x1="312.5335" y1="132.3135" x2="308.8135" y2="173.0165" gradientTransform="matrix(2.006689,0,0,2,-180.147873,-209.71902)">
<stop offset="0" style="stop-color:rgb(25.490196%,63.921569%,38.431373%);stop-opacity:0.32549;"/>
<stop offset="1" style="stop-color:rgb(24.705882%,57.254902%,62.352941%);stop-opacity:0.588235;"/>
</linearGradient>
<linearGradient id="linear28" gradientUnits="userSpaceOnUse" x1="310.9565" y1="152.7515" x2="307.5795" y2="134.3735" gradientTransform="matrix(2.006689,0,0,2,-180.147873,-209.71902)">
<stop offset="0" style="stop-color:rgb(100%,100%,100%);stop-opacity:0;"/>
<stop offset="1" style="stop-color:rgb(100%,100%,100%);stop-opacity:0.305882;"/>
</linearGradient>
<linearGradient id="linear29" gradientUnits="userSpaceOnUse" x1="308.8415" y1="136.6935" x2="309.8655" y2="144.3035" gradientTransform="matrix(2.006689,0,0,2,-180.147873,-209.71902)">
<stop offset="0" style="stop-color:rgb(100%,100%,100%);stop-opacity:0.572549;"/>
<stop offset="1" style="stop-color:rgb(100%,100%,100%);stop-opacity:0;"/>
</linearGradient>
<linearGradient id="linear30" gradientUnits="userSpaceOnUse" x1="311.9375" y1="154.5945" x2="310.2225" y2="173.3615" gradientTransform="matrix(2.006689,0,0,2,-180.147873,-209.71902)">
<stop offset="0" style="stop-color:rgb(0%,0%,0%);stop-opacity:0;"/>
<stop offset="1" style="stop-color:rgb(0%,0%,0%);stop-opacity:0.207843;"/>
</linearGradient>
<linearGradient id="linear31" gradientUnits="userSpaceOnUse" x1="360.8715" y1="170.2075" x2="363.2315" y2="199.1255" gradientTransform="matrix(2.006689,0,0,2,-180.147873,-209.71902)">
<stop offset="0" style="stop-color:rgb(25.490196%,63.921569%,38.431373%);stop-opacity:0.32549;"/>
<stop offset="1" style="stop-color:rgb(24.705882%,57.254902%,62.352941%);stop-opacity:0.588235;"/>
</linearGradient>
<linearGradient id="linear32" gradientUnits="userSpaceOnUse" x1="362.2595" y1="184.6925" x2="357.6575" y2="172.2515" gradientTransform="matrix(2.006689,0,0,2,-180.147873,-209.71902)">
<stop offset="0" style="stop-color:rgb(100%,100%,100%);stop-opacity:0;"/>
<stop offset="1" style="stop-color:rgb(100%,100%,100%);stop-opacity:0.305882;"/>
</linearGradient>
<linearGradient id="linear33" gradientUnits="userSpaceOnUse" x1="358.8235" y1="173.7205" x2="360.4675" y2="178.9175" gradientTransform="matrix(2.006689,0,0,2,-180.147873,-209.71902)">
<stop offset="0" style="stop-color:rgb(100%,100%,100%);stop-opacity:0.572549;"/>
<stop offset="1" style="stop-color:rgb(100%,100%,100%);stop-opacity:0;"/>
</linearGradient>
<linearGradient id="linear34" gradientUnits="userSpaceOnUse" x1="363.1705" y1="185.8615" x2="364.2585" y2="199.1955" gradientTransform="matrix(2.006689,0,0,2,-180.147873,-209.71902)">
<stop offset="0" style="stop-color:rgb(0%,0%,0%);stop-opacity:0;"/>
<stop offset="1" style="stop-color:rgb(0%,0%,0%);stop-opacity:0.207843;"/>
</linearGradient>
<linearGradient id="linear35" gradientUnits="userSpaceOnUse" x1="165.1075" y1="150.1435" x2="171.3745" y2="166.3655" gradientTransform="matrix(2.006689,0,0,2,-180.147873,-209.71902)">
<stop offset="0" style="stop-color:rgb(25.490196%,63.921569%,38.431373%);stop-opacity:0.32549;"/>
<stop offset="1" style="stop-color:rgb(24.705882%,57.254902%,62.352941%);stop-opacity:0.588235;"/>
</linearGradient>
<linearGradient id="linear36" gradientUnits="userSpaceOnUse" x1="168.3655" y1="158.2345" x2="163.6075" y2="151.8645" gradientTransform="matrix(2.006689,0,0,2,-180.147873,-209.71902)">
<stop offset="0" style="stop-color:rgb(100%,100%,100%);stop-opacity:0;"/>
<stop offset="1" style="stop-color:rgb(100%,100%,100%);stop-opacity:0.305882;"/>
</linearGradient>
<linearGradient id="linear37" gradientUnits="userSpaceOnUse" x1="164.5265" y1="152.5105" x2="166.3535" y2="155.2185" gradientTransform="matrix(2.006689,0,0,2,-180.147873,-209.71902)">
<stop offset="0" style="stop-color:rgb(100%,100%,100%);stop-opacity:0.572549;"/>
<stop offset="1" style="stop-color:rgb(100%,100%,100%);stop-opacity:0;"/>
</linearGradient>
<linearGradient id="linear38" gradientUnits="userSpaceOnUse" x1="169.0875" y1="158.7515" x2="171.9775" y2="166.2305" gradientTransform="matrix(2.006689,0,0,2,-180.147873,-209.71902)">
<stop offset="0" style="stop-color:rgb(0%,0%,0%);stop-opacity:0;"/>
<stop offset="1" style="stop-color:rgb(0%,0%,0%);stop-opacity:0.207843;"/>
</linearGradient>
<linearGradient id="linear39" gradientUnits="userSpaceOnUse" x1="353.9595" y1="127.1545" x2="356.5235" y2="144.3545" gradientTransform="matrix(2.006689,0,0,2,-180.147873,-209.71902)">
<stop offset="0" style="stop-color:rgb(25.490196%,63.921569%,38.431373%);stop-opacity:0.32549;"/>
<stop offset="1" style="stop-color:rgb(24.705882%,57.254902%,62.352941%);stop-opacity:0.588235;"/>
</linearGradient>
<linearGradient id="linear40" gradientUnits="userSpaceOnUse" x1="355.3675" y1="135.7615" x2="352.1195" y2="128.5045" gradientTransform="matrix(2.006689,0,0,2,-180.147873,-209.71902)">
<stop offset="0" style="stop-color:rgb(100%,100%,100%);stop-opacity:0;"/>
<stop offset="1" style="stop-color:rgb(100%,100%,100%);stop-opacity:0.305882;"/>
</linearGradient>
<linearGradient id="linear41" gradientUnits="userSpaceOnUse" x1="352.8745" y1="129.3365" x2="354.0645" y2="132.3795" gradientTransform="matrix(2.006689,0,0,2,-180.147873,-209.71902)">
<stop offset="0" style="stop-color:rgb(100%,100%,100%);stop-opacity:0.572549;"/>
<stop offset="1" style="stop-color:rgb(100%,100%,100%);stop-opacity:0;"/>
</linearGradient>
<linearGradient id="linear42" gradientUnits="userSpaceOnUse" x1="355.9585" y1="136.4245" x2="357.1405" y2="144.3555" gradientTransform="matrix(2.006689,0,0,2,-180.147873,-209.71902)">
<stop offset="0" style="stop-color:rgb(0%,0%,0%);stop-opacity:0;"/>
<stop offset="1" style="stop-color:rgb(0%,0%,0%);stop-opacity:0.207843;"/>
</linearGradient>
</defs>
<g id="surface1">
<path style=" stroke:none;fill-rule:nonzero;fill:url(#linear0);" d="M 0 299.296875 L 0 0 L 600.601562 0 L 600.601562 299.296875 Z M 0 299.296875 "/>
<path style=" stroke:none;fill-rule:nonzero;fill:url(#radial0);" d="M 7.765625 293.167969 L 576.09375 5.113281 C 608.714844 -11.421875 600.835938 21.917969 595.878906 30.539062 C 559.910156 93.101562 465.605469 297.5625 465.605469 297.5625 Z M 7.765625 293.167969 "/>
<path style=" stroke:none;fill-rule:nonzero;fill:url(#radial1);" d="M 135.09375 297.5625 C 135.09375 297.5625 40.789062 93.101562 4.820312 30.539062 C -0.136719 21.914062 -8.019531 -11.421875 24.605469 5.113281 L 592.933594 293.167969 Z M 135.09375 297.5625 "/>
<path style=" stroke:none;fill-rule:nonzero;fill:url(#linear1);" d="M 147.386719 79.914062 C 144.785156 62.519531 156.824219 46.3125 174.277344 43.722656 C 191.730469 41.128906 207.988281 53.128906 210.589844 70.523438 C 213.191406 87.921875 201.152344 104.125 183.699219 106.714844 C 166.246094 109.308594 149.988281 97.308594 147.386719 79.914062 "/>
<path style=" stroke:none;fill-rule:nonzero;fill:url(#linear2);" d="M 150.355469 77.78125 C 148.75 62.105469 160.199219 48.105469 175.925781 46.503906 C 186.980469 45.378906 197.203125 50.683594 202.863281 59.375 C 205.25 63.050781 151.960938 93.453125 150.355469 77.78125 "/>
<path style=" stroke:none;fill-rule:nonzero;fill:url(#linear3);" d="M 155.121094 68.148438 C 158.039062 58.308594 166.828125 50.828125 177.699219 50.070312 C 182.925781 49.695312 188.140625 50.949219 192.621094 53.652344 C 196.125 55.769531 154.289062 70.96875 155.121094 68.148438 "/>
<path style=" stroke:none;fill-rule:nonzero;fill:url(#linear4);" d="M 211.136719 75.359375 C 210.449219 87.351562 204.742188 100.261719 187.605469 106.105469 C 173.808594 110.8125 157.527344 100.8125 154.894531 96.472656 C 152.929688 93.238281 144.976562 80.898438 150.796875 77.710938 C 159.144531 73.140625 184.148438 59.636719 197.945312 59.917969 C 209.453125 60.152344 210.703125 73.65625 211.136719 75.359375 "/>
<path style=" stroke:none;fill-rule:nonzero;fill:url(#linear5);" d="M 376.429688 222.691406 C 369.140625 202.789062 379.417969 180.769531 399.386719 173.507812 C 419.351562 166.242188 441.445312 176.484375 448.734375 196.386719 C 456.023438 216.285156 445.742188 238.304688 425.777344 245.570312 C 405.808594 252.832031 383.714844 242.589844 376.429688 222.691406 "/>
<path style=" stroke:none;fill-rule:nonzero;fill:url(#linear6);" d="M 379.417969 219.453125 C 373.722656 201.347656 383.832031 182.066406 402 176.390625 C 414.773438 172.402344 428.125 176.195312 436.910156 185.09375 C 440.621094 188.851562 385.109375 237.5625 379.417969 219.453125 "/>
<path style=" stroke:none;fill-rule:nonzero;fill:url(#linear7);" d="M 382.707031 206.945312 C 383.757812 194.632812 392.316406 183.6875 404.964844 180.171875 C 411.039062 178.46875 417.496094 178.691406 423.4375 180.804688 C 428.085938 182.460938 382.40625 210.472656 382.707031 206.945312 "/>
<path style=" stroke:none;fill-rule:nonzero;fill:url(#linear8);" d="M 450.550781 201.960938 C 452.648438 216.273438 449.046875 232.878906 430.238281 243.90625 C 415.097656 252.789062 393.460938 244.90625 389.304688 240.421875 C 386.199219 237.074219 373.820312 224.433594 379.917969 219.269531 C 388.660156 211.863281 414.886719 189.90625 431.238281 186.914062 C 444.875 184.421875 449.621094 200.058594 450.550781 201.960938 "/>
<path style=" stroke:none;fill-rule:nonzero;fill:url(#linear9);" d="M 326.179688 83.242188 C 321.730469 51.269531 344.132812 21.753906 376.214844 17.316406 C 408.296875 12.882812 437.914062 35.210938 442.363281 67.1875 C 446.8125 99.164062 424.410156 128.679688 392.324219 133.113281 C 360.242188 137.546875 330.628906 115.21875 326.179688 83.242188 "/>
<path style=" stroke:none;fill-rule:nonzero;fill:url(#linear10);" d="M 331.671875 79.378906 C 329.019531 50.585938 350.292969 25.097656 379.1875 22.453125 C 399.496094 20.59375 418.164062 30.519531 428.386719 46.582031 C 432.703125 53.371094 334.324219 108.179688 331.671875 79.382812 "/>
<path style=" stroke:none;fill-rule:nonzero;fill:url(#linear11);" d="M 340.601562 61.796875 C 346.136719 43.789062 362.410156 30.226562 382.378906 29.03125 C 392.363281 28.433594 401.796875 31.011719 409.695312 35.890625 C 416.089844 39.839844 339.015625 66.957031 340.601562 61.796875 "/>
<path style=" stroke:none;fill-rule:nonzero;fill:url(#linear12);" d="M 443.277344 76.070312 C 441.792969 98.066406 431.078125 121.65625 399.511719 132.066406 C 374.09375 140.449219 344.398438 121.785156 339.648438 113.777344 C 336.105469 107.800781 321.734375 85.007812 332.484375 79.265625 C 347.890625 71.027344 394.03125 46.710938 419.351562 47.484375 C 440.46875 48.128906 442.507812 72.945312 443.277344 76.070312 "/>
<path style="fill:none;stroke-width:6.5;stroke-linecap:butt;stroke-linejoin:round;stroke:rgb(0%,0%,0%);stroke-opacity:0.501961;stroke-miterlimit:10;" d="M 112.107199 215.050916 C 113.596359 215.050916 114.906431 215.259901 116.039361 215.677869 C 117.170344 216.097791 117.734862 216.662244 117.734862 217.375135 C 117.734862 218.088026 117.464282 218.970838 116.923124 220.021619 C 116.385858 221.074354 115.932297 221.599744 115.566333 221.599744 C 115.463163 221.599744 115.344419 221.545057 115.213996 221.431776 C 115.081626 221.316541 114.776008 221.193494 114.293247 221.062635 C 113.816327 220.929823 113.403644 220.865369 113.057147 220.865369 C 111.873605 220.865369 110.919764 221.283338 110.193677 222.119276 C 109.475376 222.957166 109.113306 224.238416 109.113306 225.961073 C 109.113306 227.683729 109.483163 228.961073 110.224823 229.79701 C 110.970376 230.634901 111.914484 231.052869 113.057147 231.052869 C 113.526281 231.052869 114.051867 230.986463 114.633905 230.855604 C 115.215943 230.718885 115.628625 230.529432 115.871952 230.287244 C 115.910884 230.244276 115.992642 230.222791 116.117225 230.222791 C 116.239862 230.222791 116.467616 230.45326 116.80438 230.916151 C 117.143091 231.375135 117.452603 231.974744 117.734862 232.718885 C 118.022961 233.464979 118.165064 234.039198 118.165064 234.447401 C 118.165064 235.242323 117.553827 235.877088 116.331353 236.345838 C 115.108879 236.812635 113.660598 237.045057 111.988456 237.045057 C 109.294341 237.045057 107.082987 236.097791 105.348553 234.201307 C 103.616066 232.304823 102.749823 229.629041 102.749823 226.17201 C 102.747876 222.714979 103.641372 219.998182 105.426418 218.021619 C 107.211463 216.041151 109.438391 215.050916 112.107199 215.050916 Z M 121.698169 234.935682 C 120.423137 233.531385 119.786594 231.582166 119.786594 229.091932 C 119.786594 226.601698 120.423137 224.654432 121.698169 223.250135 C 122.973202 221.841932 124.692062 221.138807 126.854751 221.138807 C 129.01744 221.138807 130.730461 221.841932 131.993814 223.250135 C 133.25522 224.656385 133.88787 226.603651 133.88787 229.091932 C 133.88787 231.582166 133.25522 233.531385 131.993814 234.935682 C 130.730461 236.341932 129.01744 237.045057 126.854751 237.045057 C 124.692062 237.045057 122.973202 236.341932 121.698169 234.935682 Z M 126.868378 226.248182 C 125.715982 226.248182 125.139784 227.185682 125.139784 229.062635 C 125.14173 230.937635 125.715982 231.877088 126.868378 231.877088 C 128.02272 231.877088 134.892323 230.127088 134.892323 228.252088 C 134.892323 226.375135 128.020773 226.248182 126.868378 226.248182 Z M 149.922134 236.586073 C 149.922134 236.728651 149.050051 236.800916 147.303937 236.800916 C 145.559771 236.800916 144.687687 236.709119 144.687687 236.525526 L 144.687687 227.623182 C 144.687687 226.601698 144.350923 226.091932 143.677394 226.091932 C 143.330897 226.091932 142.873443 226.318494 142.303085 226.767713 L 142.303085 236.554823 C 142.303085 236.757948 141.431001 236.861463 139.686835 236.861463 C 137.942668 236.861463 137.068638 236.748182 137.068638 236.525526 L 137.068638 226.523573 L 136.303618 226.523573 C 135.632036 226.523573 135.295272 225.820448 135.295272 224.414198 C 135.295272 223.779432 135.417909 223.136854 135.665129 222.482557 C 135.99216 221.588026 136.521639 221.14076 137.255513 221.14076 C 137.98744 221.14076 138.694061 221.334119 139.375376 221.720838 C 140.060585 222.105604 140.475213 222.472791 140.619263 222.820448 C 141.886509 221.699354 143.288072 221.138807 144.825897 221.138807 C 146.367616 221.138807 147.605663 221.617323 148.541984 222.574354 C 149.645715 221.619276 150.971359 221.14076 152.520864 221.14076 C 155.886561 221.14076 157.570383 223.189588 157.570383 227.289198 L 157.570383 236.586073 C 157.570383 236.728651 156.696353 236.800916 154.952186 236.800916 C 153.208019 236.800916 152.335936 236.709119 152.335936 236.525526 L 152.335936 227.623182 C 152.335936 226.601698 151.999172 226.091932 151.325643 226.091932 C 150.95968 226.091932 150.490545 226.318494 149.922134 226.767713 Z M 174.029009 236.586073 C 174.029009 236.728651 173.156926 236.800916 171.410812 236.800916 C 169.666646 236.800916 168.794562 236.709119 168.794562 236.525526 L 168.794562 227.623182 C 168.794562 226.601698 168.457798 226.091932 167.784269 226.091932 C 167.437772 226.091932 166.980318 226.318494 166.40996 226.767713 L 166.40996 236.554823 C 166.40996 236.757948 165.537876 236.861463 163.79371 236.861463 C 162.049543 236.861463 161.175513 236.748182 161.175513 236.525526 L 161.175513 226.523573 L 160.41244 226.523573 C 159.738911 226.523573 159.402147 225.820448 159.402147 224.414198 C 159.402147 223.779432 159.524784 223.136854 159.772004 222.482557 C 160.099035 221.588026 160.628514 221.14076 161.362388 221.14076 C 162.094315 221.14076 162.800936 221.334119 163.482251 221.720838 C 164.16746 222.105604 164.582088 222.472791 164.726138 222.820448 C 165.991437 221.699354 167.393 221.138807 168.930825 221.138807 C 170.472544 221.138807 171.712538 221.617323 172.646913 222.574354 C 173.750643 221.619276 175.078234 221.14076 176.627739 221.14076 C 179.993436 221.14076 181.677258 223.189588 181.677258 227.289198 L 181.677258 236.586073 C 181.677258 236.728651 180.803228 236.800916 179.059061 236.800916 C 177.314894 236.800916 176.442811 236.709119 176.442811 236.525526 L 176.442811 227.623182 C 176.442811 226.601698 176.106047 226.091932 175.432518 226.091932 C 175.066555 226.091932 174.59742 226.318494 174.029009 226.767713 Z M 184.124152 221.630994 C 184.124152 221.402479 185.000129 221.289198 186.752082 221.289198 C 188.505982 221.289198 189.381958 221.402479 189.381958 221.629041 L 189.381958 230.562635 C 189.381958 231.582166 189.708989 232.091932 190.361105 232.091932 C 190.851652 232.091932 191.402544 231.877088 192.015728 231.447401 L 192.015728 221.630994 C 192.015728 221.425916 192.881971 221.324354 194.616405 221.326307 C 196.348892 221.326307 197.215135 221.427869 197.215135 221.630994 L 197.215135 231.662244 L 198.009354 231.662244 C 198.702349 231.662244 199.048846 232.324354 199.048846 233.650526 C 199.048846 234.324354 198.90869 235.007948 198.624484 235.701307 C 198.213749 236.597791 197.662857 237.045057 196.969862 237.045057 C 195.603338 237.045057 194.593045 236.486463 193.938983 235.367323 L 193.909784 235.396619 C 192.667844 236.496229 191.330519 237.04701 189.899758 237.045057 C 187.925891 237.045057 186.467876 236.550916 185.527661 235.562635 C 184.59134 234.576307 184.124152 232.937635 184.124152 230.652479 Z M 207.308332 236.554823 C 207.308332 236.699354 206.574458 236.769666 205.108657 236.769666 C 203.068605 236.711073 202.048579 236.599744 202.048579 236.435682 L 202.048579 226.523573 L 201.256307 226.523573 C 200.724881 226.523573 200.378384 226.076307 200.214868 225.179823 C 200.172043 224.916151 200.15063 224.650526 200.148683 224.384901 C 200.148683 223.752088 200.273267 223.117323 200.51854 222.48451 C 200.88645 221.588026 201.456808 221.14076 202.229614 221.14076 C 203.006314 221.14076 203.699308 221.324354 204.308599 221.689588 C 204.921782 222.056776 205.332518 222.42201 205.538859 222.789198 C 206.821678 221.689588 208.349771 221.138807 210.12119 221.138807 C 211.898449 221.138807 213.183215 221.619276 213.975487 222.580213 C 214.771652 223.535291 215.170708 225.105604 215.170708 227.289198 L 215.170708 236.464979 C 215.170708 236.709119 214.298625 236.830213 212.554458 236.830213 C 210.814185 236.830213 209.944048 236.709119 209.944048 236.464979 L 209.944048 227.623182 C 209.944048 226.601698 209.585871 226.091932 208.87341 226.091932 C 208.667069 226.091932 208.380917 226.179823 208.013006 226.355604 C 207.647043 226.527479 207.411503 226.654432 207.308332 226.738416 Z M 223.369849 236.554823 C 223.369849 236.718885 222.435474 236.800916 220.566724 236.800916 C 218.701867 236.800916 217.771385 236.728651 217.771385 236.586073 L 217.771385 221.564588 C 217.771385 221.423963 218.701867 221.353651 220.566724 221.353651 C 222.435474 221.353651 223.369849 221.414198 223.369849 221.535291 Z M 223.369849 219.728651 C 223.369849 219.873182 222.435474 219.945448 220.566724 219.945448 C 218.701867 219.945448 217.771385 219.882948 217.771385 219.759901 L 217.771385 215.355604 C 217.771385 215.152479 218.701867 215.050916 220.566724 215.050916 C 222.435474 215.050916 223.369849 215.113416 223.369849 215.236463 Z M 233.16132 236.554823 C 233.16132 236.802869 232.30481 236.925916 230.591789 236.925916 C 228.551737 236.841932 227.531711 236.709119 227.531711 236.525526 L 227.531711 225.699354 L 225.972473 225.699354 C 225.561737 225.699354 225.357342 224.994276 225.357342 223.584119 C 225.357342 223.218885 225.392381 222.769666 225.464406 222.240369 C 225.536431 221.711073 225.68632 221.445448 225.914074 221.445448 L 227.531711 221.445448 L 227.531711 218.752088 C 227.531711 218.343885 228.392114 218.14076 230.112922 218.14076 C 231.837622 218.14076 232.699973 218.304823 232.699973 218.630994 L 232.699973 220.591932 L 232.731118 221.445448 L 235.335689 221.445448 C 235.682186 221.445448 235.855435 222.160291 235.855435 223.589979 C 235.855435 225.017713 235.682186 225.730604 235.335689 225.730604 C 235.335689 225.730604 234.377954 231.611463 234.377954 233.603651 C 234.377954 234.824354 233.16132 236.556776 233.16132 236.556776 Z M 236.310943 221.599744 C 236.310943 221.373182 237.243371 221.259901 239.106281 221.259901 C 240.975031 221.259901 241.940552 221.361463 242.00479 221.564588 L 244.204465 228.789198 L 246.312648 221.504041 C 246.396353 221.341932 247.029002 221.259901 248.212544 221.259901 C 250.926125 221.259901 252.220624 221.392713 252.09604 221.660291 L 244.909139 242.125135 C 244.887726 242.248182 244.332941 242.308729 243.240891 242.308729 C 242.150786 242.308729 241.134654 242.273573 240.194439 242.201307 C 239.258117 242.130994 238.810396 242.043104 238.849328 241.937635 L 241.514243 235.51576 Z M 260.509308 229.277479 C 260.894738 229.584119 261.562427 230.002088 262.510428 230.533338 C 263.462323 231.062635 264.371392 231.32826 265.235689 231.32826 C 266.103879 231.32826 266.537974 230.990369 266.537974 230.316541 C 266.537974 230.009901 266.413391 229.740369 266.168117 229.505994 C 265.92479 229.269666 265.477069 229.002088 264.823006 228.699354 C 264.328566 228.468885 263.838019 228.230604 263.353312 227.980604 C 263.026281 227.806776 262.592186 227.519666 262.051027 227.121229 C 261.511815 226.722791 261.101079 226.308729 260.81298 225.879041 C 260.001242 224.718885 259.5944 223.240369 259.5944 221.445448 C 259.5944 219.648573 260.262088 218.134901 261.597466 216.904432 C 262.930897 215.670057 264.678957 215.050916 266.841646 215.050916 C 268.313286 215.050916 269.66813 215.211073 270.912017 215.529432 C 272.153957 215.843885 272.79634 216.255994 272.835272 216.76576 L 272.835272 216.947401 C 272.835272 217.662244 272.611411 218.566541 272.159797 219.658338 C 271.714022 220.746229 271.39867 221.351698 271.215689 221.474744 C 269.90951 220.800916 268.739595 220.464979 267.707889 220.464979 C 266.682023 220.464979 266.168117 220.830213 266.168117 221.564588 C 266.168117 222.013807 266.54576 222.412244 267.302993 222.759901 C 267.464562 222.841932 267.698156 222.955213 268.001828 223.099744 C 268.309393 223.240369 268.66173 223.406385 269.05884 223.601698 C 269.457896 223.79701 269.886151 224.041151 270.343605 224.336073 C 270.80106 224.630994 271.297447 225.023573 271.830819 225.513807 C 272.91119 226.533338 273.452349 227.880994 273.452349 229.552869 C 273.452349 231.736463 272.848898 233.519666 271.645891 234.906385 C 270.442883 236.293104 268.587759 237.005994 266.076626 237.045057 C 264.854152 237.045057 263.746529 236.943494 262.755702 236.740369 C 261.766822 236.537244 260.904471 236.14076 260.168651 235.550916 C 259.434777 234.959119 259.068814 234.242323 259.068814 233.406385 C 259.07076 232.554823 259.226489 231.711073 259.528215 230.916151 C 259.83578 230.086073 260.160864 229.539198 260.509308 229.277479 Z M 282.38147 242.308729 C 282.38147 242.45326 281.509387 242.523573 279.76522 242.523573 C 278.024947 242.523573 277.15481 242.45326 277.15481 242.308729 L 277.15481 226.552869 L 276.115318 226.552869 C 275.624771 226.552869 275.288006 226.105604 275.105025 225.209119 C 275.033 224.847791 275.001854 224.478651 275.007694 224.10951 C 275.007694 223.660291 275.151743 223.127088 275.437896 222.513807 C 275.844738 221.619276 276.498801 221.170057 277.398137 221.170057 C 277.987961 221.170057 278.533013 221.306776 279.0294 221.582166 C 279.531626 221.857557 279.878124 222.111463 280.068892 222.347791 C 280.2655 222.582166 280.362831 222.718885 280.362831 222.759901 C 281.729354 221.699354 283.206835 221.170057 284.795272 221.170057 C 286.389549 221.170057 287.756073 221.787244 288.894842 223.021619 C 290.037505 224.254041 290.60981 226.158338 290.60981 228.740369 C 290.60981 231.320448 290.037505 233.320448 288.894842 234.740369 C 287.754126 236.152479 286.307792 236.85951 284.555838 236.85951 C 283.759673 236.85951 283.035532 236.820448 282.38147 236.740369 Z M 283.637036 226.523573 C 283.290539 226.523573 282.953775 226.634901 282.626743 226.857557 L 282.626743 232.271619 C 282.973241 232.314588 283.253553 232.338026 283.469628 232.338026 L 283.971854 232.338026 C 284.806952 232.254041 289.519706 230.478651 289.519706 228.420057 C 289.519706 226.687635 284.695995 226.523573 283.637036 226.523573 Z M 294.113716 234.935682 C 292.84063 233.531385 292.202141 231.582166 292.202141 229.091932 C 292.202141 226.601698 292.84063 224.654432 294.113716 223.250135 C 295.388749 221.841932 297.107609 221.138807 299.270298 221.138807 C 301.432987 221.138807 303.146008 221.841932 304.409361 223.250135 C 305.672713 224.656385 306.303417 226.603651 306.303417 229.091932 C 306.303417 231.582166 305.672713 233.531385 304.409361 234.935682 C 303.146008 236.341932 301.432987 237.045057 299.270298 237.045057 C 297.107609 237.045057 295.388749 236.341932 294.113716 234.935682 Z M 299.281978 226.248182 C 298.131529 226.248182 297.555331 227.185682 297.555331 229.062635 C 297.555331 230.937635 298.131529 231.877088 299.281978 231.877088 C 300.438267 231.877088 307.305923 230.736463 307.305923 228.85951 C 307.305923 226.982557 300.438267 226.250135 299.281978 226.250135 Z M 315.51285 236.554823 C 315.51285 236.802869 314.65634 236.925916 312.945266 236.925916 C 310.905213 236.841932 309.885187 236.709119 309.885187 236.525526 L 309.885187 225.699354 L 308.325949 225.699354 C 307.915213 225.699354 307.710819 224.994276 307.710819 223.584119 C 307.710819 223.218885 307.745858 222.769666 307.817883 222.240369 C 307.889907 221.711073 308.03785 221.445448 308.265604 221.445448 L 309.885187 221.445448 L 309.885187 218.752088 C 309.885187 218.343885 310.745591 218.14076 312.466398 218.14076 C 314.191099 218.14076 315.053449 218.304823 315.053449 218.630994 L 315.053449 220.591932 L 315.082648 221.445448 L 317.689165 221.445448 C 318.035663 221.445448 318.208911 222.160291 318.208911 223.589979 C 318.208911 225.017713 318.035663 225.730604 317.689165 225.730604 L 315.51285 225.730604 Z M 325.302375 236.496229 C 325.302375 236.677869 324.260936 236.769666 322.181952 236.769666 C 320.548742 236.750135 319.733111 236.668104 319.733111 236.525526 L 319.733111 215.689588 C 319.733111 215.386854 320.721991 215.236463 322.701698 215.236463 C 324.436131 215.29701 325.302375 215.398573 325.302375 215.541151 Z M 333.653351 236.554823 C 333.653351 236.718885 332.718976 236.800916 330.850226 236.800916 C 328.987316 236.800916 328.054888 236.728651 328.054888 236.586073 L 328.054888 221.564588 C 328.054888 221.423963 328.987316 221.353651 330.850226 221.353651 C 332.718976 221.353651 333.653351 221.414198 333.653351 221.535291 Z M 333.653351 219.728651 C 333.653351 219.873182 332.718976 219.945448 330.850226 219.945448 C 328.987316 219.945448 328.054888 219.882948 328.054888 219.759901 L 328.054888 215.355604 C 328.054888 215.152479 328.987316 215.050916 330.850226 215.050916 C 332.718976 215.050916 333.653351 215.113416 333.653351 215.236463 Z M 342.033527 236.740369 C 340.057713 236.740369 338.527674 236.103651 337.445357 234.82826 C 336.364986 233.554823 335.825773 231.668104 335.825773 229.170057 C 335.825773 226.673963 336.536288 224.714979 337.953423 223.29701 C 339.370558 221.879041 341.256828 221.170057 343.612232 221.170057 C 345.969582 221.170057 347.91425 221.689588 349.444289 222.728651 L 349.444289 237.964979 C 349.444289 239.474744 348.831105 240.632948 347.602792 241.437635 C 346.380318 242.242323 344.8094 242.642713 342.893931 242.642713 C 340.978462 242.642713 339.265441 242.398573 337.756815 241.910291 C 337.548527 241.418104 337.445357 240.980604 337.445357 240.593885 C 337.445357 239.289198 337.661431 238.330213 338.089686 237.720838 C 339.471782 238.314588 340.960943 238.615369 342.463729 238.603651 C 343.586926 238.603651 344.149497 238.209119 344.149497 237.416151 L 344.149497 236.496229 C 343.273521 236.658338 342.5669 236.740369 342.033527 236.740369 Z M 343.444823 226.154432 C 342.078299 226.154432 333.900572 227.183729 333.900572 229.248182 C 333.900572 230.531385 341.659777 231.365369 342.189256 231.752088 C 342.535754 232.017713 342.882251 232.150526 343.228749 232.150526 C 343.575246 232.150526 343.882811 232.121229 344.149497 232.060682 L 344.149497 226.248182 C 343.919797 226.187635 343.68231 226.154432 343.444823 226.154432 Z M 357.298879 236.525526 C 357.298879 236.709119 356.446262 236.800916 354.742974 236.800916 C 353.041633 236.800916 352.190962 236.658338 352.190962 236.377088 L 352.190962 215.416151 C 352.190962 215.275526 352.50826 215.175916 353.14091 215.117323 C 353.668443 215.058729 354.199868 215.027479 354.731294 215.021619 C 356.444315 215.021619 357.300825 215.205213 357.300825 215.572401 L 357.300825 221.689588 C 358.441542 221.341932 359.309732 221.170057 359.905396 221.170057 C 361.454901 221.170057 362.677375 221.584119 363.572818 222.412244 C 364.470207 223.236463 364.917928 224.771619 364.917928 227.013807 L 364.917928 236.496229 C 364.917928 236.677869 364.12371 236.769666 362.533325 236.769666 C 360.7366 236.711073 359.839211 236.60951 359.839211 236.464979 L 359.839211 227.472791 C 359.839211 226.472791 359.514126 225.972791 358.865904 225.972791 C 358.416236 225.972791 357.892596 226.187635 357.298879 226.613416 Z M 374.555617 236.554823 C 374.555617 236.802869 373.699107 236.925916 371.986086 236.925916 C 369.946034 236.841932 368.926008 236.709119 368.927954 236.525526 L 368.927954 225.699354 L 367.366769 225.699354 C 366.95798 225.699354 366.751639 224.994276 366.751639 223.584119 C 366.751639 223.218885 366.788625 222.769666 366.86065 222.240369 C 366.932674 221.711073 367.080617 221.445448 367.308371 221.445448 L 368.927954 221.445448 L 368.927954 218.752088 C 368.927954 218.343885 369.788358 218.14076 371.509165 218.14076 C 373.233866 218.14076 374.096216 218.304823 374.096216 218.630994 L 374.096216 220.591932 L 374.127362 221.445448 L 376.731932 221.445448 C 377.07843 221.445448 377.251678 222.160291 377.251678 223.589979 C 377.251678 225.017713 377.07843 225.730604 376.731932 225.730604 L 374.555617 225.730604 Z M 374.555617 236.554823 " transform="matrix(2.006689,0,0,2,-180.147873,-209.71902)"/>
<path style=" stroke:none;fill-rule:nonzero;fill:url(#linear13);" d="M 117.691406 193.386719 C 128.125 162.824219 161.441406 146.480469 192.105469 156.878906 C 222.765625 167.277344 239.167969 200.480469 228.734375 231.042969 C 218.300781 261.605469 184.984375 277.949219 154.320312 267.550781 C 123.660156 257.148438 107.257812 223.949219 117.691406 193.386719 "/>
<path style=" stroke:none;fill-rule:nonzero;fill:url(#linear14);" d="M 124.339844 192.394531 C 134.945312 165.476562 165.4375 152.226562 192.441406 162.796875 C 211.425781 170.226562 223.636719 187.453125 225.53125 206.375 C 226.332031 214.375 113.734375 219.3125 124.339844 192.394531 "/>
<path style=" stroke:none;fill-rule:nonzero;fill:url(#linear15);" d="M 140.242188 180.679688 C 153.296875 167.066406 173.953125 162.234375 192.335938 170.105469 C 201.179688 173.871094 208.628906 180.285156 213.648438 188.457031 C 217.582031 194.847656 136.5 184.582031 140.242188 180.679688 "/>
<path style=" stroke:none;fill-rule:nonzero;fill:url(#linear16);" d="M 225.546875 239.390625 C 214.308594 258.378906 194.105469 274.65625 161.214844 269.828125 C 134.726562 265.945312 116.601562 235.980469 115.96875 226.695312 C 115.496094 219.773438 112.925781 192.976562 125.117188 192.652344 C 142.59375 192.191406 194.777344 191.113281 217.054688 203.140625 C 235.632812 213.164062 226.269531 236.25 225.546875 239.390625 "/>
<path style=" stroke:none;fill-rule:nonzero;fill:rgb(100%,100%,100%);fill-opacity:1;" d="M 44.816406 220.382812 C 47.804688 220.382812 50.433594 220.800781 52.707031 221.636719 C 54.976562 222.476562 56.109375 223.605469 56.109375 225.03125 C 56.109375 226.457031 55.566406 228.222656 54.480469 230.324219 C 53.402344 232.429688 52.492188 233.480469 51.757812 233.480469 C 51.550781 233.480469 51.3125 233.371094 51.050781 233.144531 C 50.785156 232.914062 50.171875 232.667969 49.203125 232.40625 C 48.246094 232.140625 47.417969 232.011719 46.722656 232.011719 C 44.347656 232.011719 42.433594 232.847656 40.976562 234.519531 C 39.535156 236.195312 38.808594 238.757812 38.808594 242.203125 C 38.808594 245.648438 39.550781 248.203125 41.039062 249.875 C 42.535156 251.550781 44.429688 252.386719 46.722656 252.386719 C 47.664062 252.386719 48.71875 252.253906 49.886719 251.992188 C 51.054688 251.71875 51.882812 251.339844 52.371094 250.855469 C 52.449219 250.769531 52.613281 250.726562 52.863281 250.726562 C 53.109375 250.726562 53.566406 251.1875 54.242188 252.113281 C 54.921875 253.03125 55.542969 254.230469 56.109375 255.71875 C 56.6875 257.210938 56.972656 258.359375 56.972656 259.175781 C 56.972656 260.765625 55.746094 262.035156 53.292969 262.972656 C 50.839844 263.90625 47.933594 264.371094 44.578125 264.371094 C 39.171875 264.371094 34.734375 262.476562 31.253906 258.683594 C 27.777344 254.890625 26.039062 249.539062 26.039062 242.625 C 26.035156 235.710938 27.828125 230.277344 31.410156 226.324219 C 34.992188 222.363281 39.460938 220.382812 44.816406 220.382812 M 64.0625 260.152344 C 61.503906 257.34375 60.226562 253.445312 60.226562 248.464844 C 60.226562 243.484375 61.503906 239.589844 64.0625 236.78125 C 66.621094 233.964844 70.070312 232.558594 74.410156 232.558594 C 78.75 232.558594 82.1875 233.964844 84.722656 236.78125 C 87.253906 239.59375 88.523438 243.488281 88.523438 248.464844 C 88.523438 253.445312 87.253906 257.34375 84.722656 260.152344 C 82.1875 262.964844 78.75 264.371094 74.410156 264.371094 C 70.070312 264.371094 66.621094 262.964844 64.0625 260.152344 M 74.4375 242.777344 C 72.125 242.777344 70.96875 244.652344 70.96875 248.402344 C 70.972656 252.15625 72.125 254.03125 74.4375 254.035156 C 76.753906 254.035156 77.910156 252.15625 77.910156 248.402344 C 77.910156 244.652344 76.753906 242.773438 74.4375 242.777344 M 120.699219 263.449219 C 120.699219 263.738281 118.949219 263.878906 115.445312 263.878906 C 111.945312 263.878906 110.195312 263.695312 110.195312 263.328125 L 110.195312 245.523438 C 110.195312 243.484375 109.519531 242.464844 108.167969 242.464844 C 107.472656 242.464844 106.554688 242.914062 105.410156 243.816406 L 105.410156 263.390625 C 105.410156 263.796875 103.660156 264 100.160156 264 C 96.660156 264 94.90625 263.777344 94.90625 263.328125 L 94.90625 243.324219 L 93.371094 243.324219 C 92.023438 243.324219 91.347656 241.917969 91.347656 239.105469 C 91.347656 237.839844 91.59375 236.550781 92.089844 235.246094 C 92.746094 233.457031 93.808594 232.558594 95.28125 232.558594 C 96.75 232.558594 98.167969 232.945312 99.535156 233.71875 C 100.910156 234.492188 101.742188 235.226562 102.03125 235.917969 C 104.574219 233.679688 107.386719 232.558594 110.472656 232.558594 C 113.566406 232.558594 116.050781 233.515625 117.929688 235.429688 C 120.144531 233.515625 122.804688 232.558594 125.914062 232.558594 C 132.667969 232.558594 136.046875 236.660156 136.046875 244.855469 L 136.046875 263.449219 C 136.046875 263.738281 134.292969 263.878906 130.792969 263.878906 C 127.292969 263.878906 125.542969 263.695312 125.542969 263.328125 L 125.542969 245.523438 C 125.542969 243.484375 124.867188 242.464844 123.515625 242.464844 C 122.78125 242.464844 121.839844 242.914062 120.699219 243.816406 Z M 169.074219 263.449219 C 169.074219 263.738281 167.324219 263.878906 163.820312 263.878906 C 160.320312 263.878906 158.570312 263.695312 158.570312 263.328125 L 158.570312 245.523438 C 158.570312 243.484375 157.894531 242.464844 156.542969 242.464844 C 155.847656 242.464844 154.929688 242.914062 153.785156 243.816406 L 153.785156 263.390625 C 153.785156 263.796875 152.035156 264 148.535156 264 C 145.035156 264 143.28125 263.777344 143.28125 263.328125 L 143.28125 243.324219 L 141.75 243.324219 C 140.398438 243.324219 139.722656 241.917969 139.722656 239.105469 C 139.722656 237.839844 139.96875 236.550781 140.464844 235.246094 C 141.121094 233.457031 142.183594 232.558594 143.65625 232.558594 C 145.125 232.558594 146.542969 232.945312 147.910156 233.71875 C 149.285156 234.492188 150.117188 235.226562 150.40625 235.917969 C 152.945312 233.679688 155.757812 232.558594 158.84375 232.558594 C 161.9375 232.558594 164.425781 233.515625 166.300781 235.429688 C 168.515625 233.515625 171.179688 232.558594 174.289062 232.558594 C 181.042969 232.558594 184.421875 236.660156 184.421875 244.855469 L 184.421875 263.449219 C 184.421875 263.738281 182.667969 263.878906 179.167969 263.878906 C 175.667969 263.878906 173.917969 263.695312 173.917969 263.328125 L 173.917969 245.523438 C 173.917969 243.484375 173.242188 242.464844 171.890625 242.464844 C 171.15625 242.464844 170.214844 242.914062 169.074219 243.816406 Z M 189.332031 233.539062 C 189.332031 233.085938 191.089844 232.859375 194.605469 232.859375 C 198.125 232.859375 199.882812 233.085938 199.882812 233.539062 L 199.882812 251.402344 C 199.882812 253.445312 200.539062 254.464844 201.847656 254.464844 C 202.832031 254.464844 203.9375 254.035156 205.167969 253.171875 L 205.167969 233.539062 C 205.167969 233.132812 206.90625 232.929688 210.386719 232.929688 C 213.863281 232.929688 215.601562 233.132812 215.601562 233.539062 L 215.601562 253.601562 L 217.195312 253.601562 C 218.585938 253.601562 219.28125 254.929688 219.28125 257.582031 C 219.28125 258.929688 219 260.296875 218.429688 261.683594 C 217.605469 263.472656 216.5 264.371094 215.109375 264.371094 C 212.367188 264.371094 210.339844 263.25 209.027344 261.011719 L 208.96875 261.070312 C 206.476562 263.273438 203.792969 264.371094 200.921875 264.371094 C 196.960938 264.371094 194.035156 263.382812 192.148438 261.40625 C 190.269531 259.429688 189.332031 256.15625 189.332031 251.582031 Z M 235.855469 263.390625 C 235.855469 263.675781 234.382812 263.820312 231.441406 263.820312 C 227.347656 263.699219 225.300781 263.476562 225.300781 263.148438 L 225.300781 243.324219 L 223.710938 243.324219 C 222.644531 243.324219 221.949219 242.429688 221.621094 240.636719 C 221.535156 240.113281 221.492188 239.582031 221.488281 239.046875 C 221.488281 237.78125 221.738281 236.515625 222.230469 235.246094 C 222.96875 233.457031 224.113281 232.558594 225.664062 232.558594 C 227.222656 232.558594 228.613281 232.925781 229.835938 233.660156 C 231.066406 234.390625 231.890625 235.125 232.304688 235.859375 C 234.878906 233.65625 237.945312 232.558594 241.5 232.558594 C 245.066406 232.558594 247.644531 233.519531 249.234375 235.4375 C 250.832031 237.351562 251.632812 240.492188 251.632812 244.855469 L 251.632812 263.210938 C 251.632812 263.695312 249.882812 263.941406 246.382812 263.941406 C 242.890625 263.941406 241.144531 263.695312 241.144531 263.210938 L 241.144531 245.523438 C 241.144531 243.484375 240.425781 242.464844 238.996094 242.464844 C 238.582031 242.464844 238.007812 242.640625 237.269531 242.992188 C 236.535156 243.332031 236.0625 243.589844 235.855469 243.757812 Z M 268.085938 263.390625 C 268.085938 263.714844 266.210938 263.878906 262.460938 263.878906 C 258.71875 263.878906 256.851562 263.738281 256.851562 263.449219 L 256.851562 233.40625 C 256.851562 233.128906 258.71875 232.988281 262.460938 232.988281 C 266.210938 232.988281 268.085938 233.109375 268.085938 233.347656 Z M 268.085938 229.738281 C 268.085938 230.027344 266.210938 230.171875 262.460938 230.171875 C 258.71875 230.171875 256.851562 230.046875 256.851562 229.796875 L 256.851562 220.992188 C 256.851562 220.585938 258.71875 220.382812 262.460938 220.382812 C 266.210938 220.382812 268.085938 220.503906 268.085938 220.753906 Z M 287.734375 263.390625 C 287.734375 263.882812 286.015625 264.128906 282.578125 264.128906 C 278.484375 263.964844 276.4375 263.695312 276.4375 263.328125 L 276.4375 241.679688 L 273.308594 241.679688 C 272.484375 241.679688 272.074219 240.269531 272.074219 237.449219 C 272.074219 236.71875 272.144531 235.820312 272.289062 234.761719 C 272.433594 233.703125 272.734375 233.171875 273.191406 233.171875 L 276.4375 233.171875 L 276.4375 227.785156 C 276.4375 226.96875 278.164062 226.5625 281.617188 226.5625 C 285.078125 226.5625 286.808594 226.890625 286.808594 227.542969 L 286.808594 231.464844 L 286.871094 233.171875 L 292.097656 233.171875 C 292.792969 233.171875 293.140625 234.601562 293.140625 237.460938 C 293.140625 240.316406 292.792969 241.742188 292.097656 241.742188 L 287.734375 241.742188 Z M 294.054688 233.480469 C 294.054688 233.027344 295.925781 232.800781 299.664062 232.800781 C 303.414062 232.796875 305.351562 233 305.480469 233.40625 L 309.894531 247.855469 L 314.125 233.289062 C 314.292969 232.960938 315.5625 232.796875 317.9375 232.796875 C 323.382812 232.796875 325.980469 233.066406 325.730469 233.597656 L 311.308594 274.527344 C 311.265625 274.773438 310.152344 274.898438 307.960938 274.898438 C 305.773438 274.898438 303.734375 274.824219 301.847656 274.683594 C 299.96875 274.539062 299.070312 274.363281 299.148438 274.15625 L 304.496094 261.308594 Z M 342.613281 248.832031 C 343.386719 249.449219 344.726562 250.285156 346.628906 251.34375 C 348.539062 252.402344 350.363281 252.933594 352.097656 252.933594 C 353.839844 252.933594 354.710938 252.261719 354.710938 250.914062 C 354.710938 250.300781 354.460938 249.757812 353.96875 249.289062 C 353.480469 248.820312 352.582031 248.28125 351.269531 247.675781 C 350.277344 247.21875 349.292969 246.738281 348.320312 246.242188 C 347.664062 245.890625 346.792969 245.316406 345.707031 244.523438 C 344.625 243.726562 343.800781 242.894531 343.222656 242.035156 C 341.59375 239.714844 340.777344 236.761719 340.777344 233.167969 C 340.777344 229.574219 342.117188 226.550781 344.796875 224.089844 C 347.472656 221.617188 350.980469 220.382812 355.320312 220.382812 C 358.273438 220.382812 360.992188 220.699219 363.488281 221.339844 C 365.980469 221.96875 367.269531 222.792969 367.347656 223.8125 L 367.347656 224.171875 C 367.347656 225.605469 366.898438 227.410156 365.992188 229.597656 C 365.097656 231.769531 364.464844 232.980469 364.097656 233.226562 C 361.476562 231.882812 359.128906 231.207031 357.058594 231.207031 C 355 231.207031 353.96875 231.941406 353.96875 233.40625 C 353.96875 234.308594 354.726562 235.105469 356.246094 235.796875 C 356.570312 235.964844 357.039062 236.191406 357.648438 236.476562 C 358.265625 236.757812 358.972656 237.09375 359.769531 237.480469 C 360.570312 237.871094 361.429688 238.359375 362.347656 238.953125 C 363.265625 239.542969 364.261719 240.324219 365.332031 241.304688 C 367.5 243.347656 368.585938 246.039062 368.585938 249.386719 C 368.585938 253.75 367.375 257.320312 364.960938 260.09375 C 362.546875 262.867188 358.824219 264.292969 353.785156 264.371094 C 351.332031 264.371094 349.109375 264.167969 347.121094 263.761719 C 345.136719 263.351562 343.40625 262.5625 341.929688 261.382812 C 340.457031 260.195312 339.722656 258.765625 339.722656 257.09375 C 339.726562 255.390625 340.039062 253.703125 340.644531 252.109375 C 341.261719 250.453125 341.914062 249.359375 342.613281 248.832031 M 386.503906 274.898438 C 386.503906 275.183594 384.75 275.328125 381.25 275.328125 C 377.757812 275.328125 376.011719 275.183594 376.011719 274.898438 L 376.011719 243.386719 L 373.925781 243.386719 C 372.941406 243.386719 372.265625 242.488281 371.898438 240.699219 C 371.757812 239.972656 371.691406 239.234375 371.707031 238.496094 C 371.707031 237.597656 371.996094 236.535156 372.570312 235.308594 C 373.386719 233.515625 374.695312 232.621094 376.503906 232.617188 C 377.6875 232.617188 378.777344 232.894531 379.777344 233.445312 C 380.78125 233.992188 381.480469 234.503906 381.863281 234.972656 C 382.253906 235.441406 382.449219 235.71875 382.449219 235.796875 C 385.191406 233.679688 388.15625 232.617188 391.347656 232.617188 C 394.542969 232.617188 397.285156 233.851562 399.570312 236.324219 C 401.867188 238.785156 403.011719 242.597656 403.011719 247.761719 C 403.011719 252.921875 401.867188 256.917969 399.570312 259.757812 C 397.285156 262.585938 394.382812 263.996094 390.867188 263.996094 C 389.269531 263.996094 387.8125 263.917969 386.503906 263.761719 Z M 389.019531 243.324219 C 388.324219 243.324219 387.648438 243.550781 386.992188 243.996094 L 386.992188 254.820312 C 387.6875 254.910156 388.253906 254.953125 388.683594 254.953125 L 389.691406 254.953125 C 391.371094 254.789062 392.207031 252.644531 392.207031 248.523438 C 392.207031 245.058594 391.144531 243.324219 389.019531 243.324219 M 410.046875 260.152344 C 407.488281 257.339844 406.210938 253.445312 406.210938 248.464844 C 406.210938 243.484375 407.488281 239.589844 410.046875 236.777344 C 412.601562 233.964844 416.050781 232.558594 420.394531 232.558594 C 424.734375 232.558594 428.171875 233.964844 430.707031 236.777344 C 433.238281 239.589844 434.507812 243.488281 434.507812 248.464844 C 434.507812 253.445312 433.238281 257.339844 430.707031 260.152344 C 428.171875 262.964844 424.734375 264.371094 420.394531 264.371094 C 416.050781 264.371094 412.601562 262.964844 410.046875 260.148438 M 420.417969 242.773438 C 418.105469 242.773438 416.953125 244.648438 416.953125 248.402344 C 416.953125 252.152344 418.105469 254.03125 420.417969 254.03125 C 422.734375 254.03125 423.894531 252.15625 423.894531 248.402344 C 423.894531 244.648438 422.734375 242.773438 420.417969 242.773438 M 452.988281 263.386719 C 452.988281 263.882812 451.269531 264.128906 447.832031 264.128906 C 443.738281 263.960938 441.691406 263.695312 441.695312 263.328125 L 441.695312 241.679688 L 438.5625 241.679688 C 437.742188 241.679688 437.328125 240.269531 437.328125 237.449219 C 437.328125 236.71875 437.402344 235.820312 437.546875 234.761719 C 437.6875 233.703125 437.988281 233.171875 438.445312 233.171875 L 441.695312 233.171875 L 441.695312 227.785156 C 441.695312 226.96875 443.421875 226.5625 446.875 226.5625 C 450.335938 226.5625 452.066406 226.890625 452.066406 227.542969 L 452.066406 231.464844 L 452.125 233.171875 L 457.351562 233.171875 C 458.046875 233.171875 458.394531 234.601562 458.394531 237.460938 C 458.394531 240.316406 458.046875 241.742188 457.351562 241.742188 L 452.988281 241.742188 Z M 472.628906 263.269531 C 472.628906 263.632812 470.542969 263.816406 466.371094 263.816406 C 463.09375 263.777344 461.453125 263.613281 461.453125 263.328125 L 461.453125 221.65625 C 461.453125 221.050781 463.441406 220.75 467.414062 220.75 C 470.890625 220.871094 472.632812 221.074219 472.632812 221.359375 Z M 489.386719 263.386719 C 489.386719 263.714844 487.511719 263.878906 483.765625 263.878906 C 480.023438 263.878906 478.152344 263.734375 478.152344 263.449219 L 478.152344 233.40625 C 478.152344 233.125 480.023438 232.984375 483.765625 232.984375 C 487.511719 232.984375 489.386719 233.105469 489.386719 233.347656 Z M 489.386719 229.734375 C 489.386719 230.023438 487.511719 230.167969 483.765625 230.167969 C 480.023438 230.167969 478.152344 230.042969 478.152344 229.796875 L 478.152344 220.988281 C 478.152344 220.582031 480.023438 220.378906 483.765625 220.378906 C 487.511719 220.378906 489.386719 220.503906 489.386719 220.75 Z M 506.207031 263.757812 C 502.242188 263.757812 499.171875 262.484375 496.996094 259.933594 C 494.832031 257.386719 493.75 253.613281 493.75 248.617188 C 493.75 243.625 495.171875 239.707031 498.019531 236.871094 C 500.863281 234.035156 504.648438 232.617188 509.371094 232.617188 C 514.101562 232.617188 518.003906 233.65625 521.074219 235.734375 L 521.074219 266.207031 C 521.074219 269.226562 519.84375 271.542969 517.382812 273.152344 C 514.925781 274.761719 511.777344 275.5625 507.933594 275.5625 C 504.089844 275.5625 500.652344 275.074219 497.621094 274.097656 C 497.203125 273.113281 496.996094 272.238281 497 271.464844 C 497 268.855469 497.429688 266.9375 498.292969 265.71875 C 501.066406 266.90625 504.054688 267.507812 507.070312 267.484375 C 509.324219 267.484375 510.449219 266.691406 510.449219 265.109375 L 510.449219 263.269531 C 508.691406 263.59375 507.277344 263.757812 506.207031 263.757812 M 509.035156 242.582031 C 506.292969 242.582031 504.921875 244.648438 504.921875 248.773438 C 504.921875 251.339844 505.453125 253.007812 506.519531 253.78125 C 507.214844 254.3125 507.910156 254.578125 508.605469 254.578125 C 509.300781 254.578125 509.914062 254.519531 510.449219 254.398438 L 510.449219 242.773438 C 509.988281 242.652344 509.515625 242.585938 509.035156 242.582031 M 536.839844 263.328125 C 536.839844 263.695312 535.128906 263.878906 531.707031 263.878906 C 528.296875 263.878906 526.589844 263.59375 526.589844 263.03125 L 526.589844 221.109375 C 526.589844 220.828125 527.222656 220.628906 528.496094 220.511719 C 529.554688 220.394531 530.617188 220.332031 531.683594 220.320312 C 535.121094 220.320312 536.839844 220.6875 536.839844 221.421875 L 536.839844 233.65625 C 539.132812 232.960938 540.875 232.617188 542.066406 232.617188 C 545.175781 232.617188 547.632812 233.445312 549.429688 235.101562 C 551.226562 236.75 552.125 239.820312 552.125 244.304688 L 552.125 263.269531 C 552.125 263.632812 550.53125 263.816406 547.34375 263.816406 C 543.738281 263.699219 541.9375 263.496094 541.9375 263.207031 L 541.9375 245.222656 C 541.9375 243.222656 541.285156 242.222656 539.980469 242.222656 C 539.078125 242.222656 538.03125 242.652344 536.839844 243.503906 Z M 571.46875 263.386719 C 571.46875 263.882812 569.75 264.128906 566.3125 264.128906 C 562.21875 263.960938 560.171875 263.695312 560.171875 263.328125 L 560.171875 241.679688 L 557.042969 241.679688 C 556.21875 241.679688 555.808594 240.269531 555.808594 237.449219 C 555.808594 236.71875 555.878906 235.820312 556.023438 234.761719 C 556.167969 233.703125 556.46875 233.171875 556.925781 233.171875 L 560.175781 233.171875 L 560.175781 227.785156 C 560.175781 226.96875 561.902344 226.5625 565.351562 226.5625 C 568.8125 226.5625 570.546875 226.890625 570.546875 227.542969 L 570.546875 231.464844 L 570.605469 233.171875 L 575.832031 233.171875 C 576.527344 233.171875 576.875 234.601562 576.875 237.460938 C 576.875 240.316406 576.527344 241.742188 575.832031 241.742188 L 571.46875 241.742188 Z M 571.46875 263.386719 "/>
<path style=" stroke:none;fill-rule:nonzero;fill:rgb(0%,0%,0%);fill-opacity:0.501961;" d="M 242.898438 175.308594 C 210.558594 143.078125 210.558594 90.816406 242.898438 58.582031 C 275.242188 26.351562 327.675781 26.351562 360.019531 58.582031 C 392.359375 90.816406 392.359375 143.078125 360.019531 175.308594 C 327.675781 207.542969 275.242188 207.542969 242.898438 175.308594 "/>
<path style=" stroke:none;fill-rule:nonzero;fill:url(#linear17);" d="M 248.421875 169.804688 C 219.132812 140.613281 219.132812 93.28125 248.421875 64.089844 C 277.714844 34.898438 325.203125 34.898438 354.492188 64.089844 C 383.78125 93.28125 383.78125 140.613281 354.492188 169.804688 C 325.203125 198.996094 277.714844 198.996094 248.421875 169.804688 "/>
<path style=" stroke:none;fill-rule:nonzero;fill:url(#linear18);" d="M 254.621094 163.625 C 228.757812 137.847656 228.757812 96.046875 254.621094 70.265625 C 280.488281 44.484375 322.429688 44.484375 348.292969 70.265625 C 374.160156 96.046875 374.160156 137.847656 348.292969 163.625 C 322.429688 189.40625 280.488281 189.40625 254.621094 163.625 "/>
<path style=" stroke:none;fill-rule:nonzero;fill:rgb(100%,100%,100%);fill-opacity:1;" d="M 319.007812 114.472656 L 305.40625 103.445312 L 333.632812 78.726562 C 333.632812 78.726562 336.253906 75.96875 338.128906 76.769531 C 341.164062 78.0625 339.8125 81.203125 339.8125 81.203125 Z M 260.3125 142.871094 C 261.253906 141.925781 262.320312 141.117188 263.324219 140.234375 L 272.878906 131.882812 L 282.390625 123.566406 L 297.894531 148.1875 C 297.894531 148.1875 297.832031 148.363281 297.414062 149.03125 C 296.527344 150.457031 295.964844 151.941406 294.671875 153.105469 C 291.835938 155.652344 287.832031 156.804688 284.15625 157.421875 C 279.289062 158.242188 274.316406 158.195312 269.464844 157.277344 C 265.933594 156.59375 262.0625 155.390625 259.433594 152.808594 C 258.496094 151.886719 257.746094 150.746094 257.488281 149.449219 C 257.335938 148.652344 257.371094 147.832031 257.59375 147.054688 C 257.851562 146.160156 258.816406 144.363281 260.3125 142.871094 M 277.449219 142.597656 C 268.886719 142.597656 261.945312 145.246094 261.945312 148.519531 C 261.945312 151.785156 268.886719 154.433594 277.449219 154.433594 C 286.011719 154.433594 292.953125 151.785156 292.953125 148.515625 C 292.953125 145.246094 286.011719 142.597656 277.449219 142.597656 M 339.265625 139.949219 L 342.148438 142.46875 C 343.199219 143.386719 344.03125 144.503906 344.734375 145.703125 L 344.742188 145.722656 C 345.226562 146.554688 345.519531 147.492188 345.519531 148.457031 C 345.519531 154.796875 336.046875 157.175781 331.269531 157.621094 C 324.066406 158.292969 315.460938 158.132812 309.488281 154.066406 C 307.527344 152.730469 306.699219 150.945312 305.519531 149.050781 L 302.339844 143.957031 L 274.890625 100.023438 L 262.195312 79.699219 C 260.984375 77.769531 264.464844 74.550781 266.6875 76.492188 L 283.59375 91.277344 L 325.785156 128.160156 Z M 325.683594 142.597656 C 317.121094 142.597656 310.179688 145.246094 310.179688 148.519531 C 310.179688 151.785156 317.121094 154.433594 325.683594 154.433594 C 334.246094 154.433594 341.1875 151.785156 341.1875 148.515625 C 341.1875 145.246094 334.246094 142.597656 325.683594 142.597656 "/>
<path style=" stroke:none;fill-rule:nonzero;fill:url(#linear19);" d="M 56.976562 55.847656 C 53.421875 40.257812 63.21875 24.746094 78.863281 21.203125 C 94.503906 17.660156 110.066406 27.425781 113.617188 43.015625 C 117.175781 58.605469 107.378906 74.117188 91.734375 77.65625 C 76.09375 81.199219 60.53125 71.4375 56.976562 55.847656 "/>
<path style=" stroke:none;fill-rule:nonzero;fill:url(#linear20);" d="M 59.523438 53.707031 C 56.988281 39.613281 66.402344 26.136719 80.546875 23.613281 C 90.164062 21.890625 99.9375 25.6875 105.847656 33.4375 C 108.269531 36.605469 62.054688 67.804688 59.523438 53.707031 "/>
<path style=" stroke:none;fill-rule:nonzero;fill:url(#linear21);" d="M 63.183594 44.652344 C 65.148438 35.535156 72.601562 28.15625 82.402344 26.722656 C 87.113281 26.023438 91.925781 26.804688 96.171875 28.953125 C 99.496094 30.632812 62.621094 47.269531 63.183594 44.652344 "/>
<path style=" stroke:none;fill-rule:nonzero;fill:url(#linear22);" d="M 114.449219 47.359375 C 114.648438 58.277344 110.367188 70.367188 95.234375 76.835938 C 83.050781 82.046875 67.605469 74.09375 64.921875 70.34375 C 62.917969 67.542969 54.859375 56.902344 59.917969 53.617188 C 67.167969 48.902344 88.902344 34.953125 101.429688 34.265625 C 111.875 33.691406 113.933594 45.851562 114.449219 47.359375 "/>
<path style=" stroke:none;fill-rule:nonzero;fill:url(#linear23);" d="M 26.203125 141.460938 C 25.222656 114.445312 46.398438 91.753906 73.503906 90.777344 C 100.609375 89.796875 123.378906 110.902344 124.359375 137.921875 C 125.339844 164.9375 104.164062 187.625 77.058594 188.605469 C 49.953125 189.582031 27.1875 168.476562 26.203125 141.460938 "/>
<path style=" stroke:none;fill-rule:nonzero;fill:url(#linear24);" d="M 31.109375 138.707031 C 31.355469 114.492188 51.246094 95.0625 75.542969 95.304688 C 92.617188 95.476562 107.328125 105.324219 114.472656 119.570312 C 117.492188 125.589844 30.867188 162.921875 31.109375 138.710938 "/>
<path style=" stroke:none;fill-rule:nonzero;fill:url(#linear25);" d="M 40.046875 124.816406 C 46.191406 110.28125 60.90625 100.363281 77.640625 101.054688 C 85.6875 101.375 93.4375 104.179688 99.8125 109.078125 C 104.804688 112.910156 38.285156 128.980469 40.046875 124.816406 "/>
<path style=" stroke:none;fill-rule:nonzero;fill:url(#linear26);" d="M 124.363281 145.398438 C 121.253906 163.597656 110.316406 182.339844 83.132812 188.339844 C 61.242188 193.171875 38.097656 175.113281 34.820312 168.035156 C 32.382812 162.761719 22.351562 142.554688 31.792969 138.679688 C 45.332031 133.121094 85.839844 116.769531 106.871094 119.558594 C 124.410156 121.882812 123.992188 142.726562 124.363281 145.398438 "/>
<path style=" stroke:none;fill-rule:nonzero;fill:url(#linear27);" d="M 402.4375 91.890625 C 404.5 69.410156 424.453125 52.855469 447.007812 54.90625 C 469.566406 56.964844 486.175781 76.851562 484.113281 99.332031 C 482.054688 121.8125 462.101562 138.367188 439.542969 136.3125 C 416.988281 134.261719 400.375 114.371094 402.4375 91.890625 "/>
<path style=" stroke:none;fill-rule:nonzero;fill:url(#linear28);" d="M 406.792969 90.128906 C 409.574219 70.101562 428.117188 56.105469 448.214844 58.875 C 462.339844 60.820312 473.472656 70.535156 477.878906 83.089844 C 479.738281 88.394531 404.015625 110.160156 406.792969 90.128906 "/>
<path style=" stroke:none;fill-rule:nonzero;fill:url(#linear29);" d="M 415.671875 79.566406 C 422.308594 68.179688 435.550781 61.515625 449.339844 63.859375 C 455.972656 64.976562 462.089844 68.117188 466.851562 72.851562 C 470.578125 76.550781 413.773438 82.828125 415.671875 79.566406 "/>
<path style=" stroke:none;fill-rule:nonzero;fill:url(#linear30);" d="M 483.324219 105.527344 C 478.808594 120.273438 467.757812 134.640625 444.605469 136.734375 C 425.960938 138.425781 408.707031 121.023438 406.75 114.816406 C 405.285156 110.1875 399.128906 92.390625 407.363281 90.175781 C 419.167969 87.007812 454.460938 77.742188 471.582031 82.273438 C 485.859375 86.054688 483.296875 103.273438 483.324219 105.527344 "/>
<path style=" stroke:none;fill-rule:nonzero;fill:url(#linear31);" d="M 517.359375 161.972656 C 516.054688 146.003906 527.984375 131.996094 544.007812 130.695312 C 560.035156 129.394531 574.085938 141.285156 575.394531 157.253906 C 576.699219 173.226562 564.769531 187.230469 548.746094 188.535156 C 532.71875 189.835938 518.667969 177.945312 517.359375 161.972656 "/>
<path style=" stroke:none;fill-rule:nonzero;fill:url(#linear32);" d="M 520.191406 160.210938 C 519.6875 145.867188 530.945312 133.828125 545.335938 133.324219 C 555.121094 132.980469 564.277344 138.128906 569.042969 146.652344 C 570.992188 150.136719 520.699219 174.558594 520.191406 160.214844 "/>
<path style=" stroke:none;fill-rule:nonzero;fill:url(#linear33);" d="M 525.109375 151.746094 C 528.359375 142.976562 536.804688 136.707031 546.734375 136.671875 C 551.699219 136.652344 556.304688 138.195312 560.082031 140.832031 C 563.140625 142.96875 524.179688 154.261719 525.109375 151.746094 "/>
<path style=" stroke:none;fill-rule:nonzero;fill:url(#linear34);" d="M 575.597656 161.683594 C 574.242188 172.542969 568.273438 183.933594 552.335938 188.214844 C 539.503906 191.660156 525.308594 181.582031 523.175781 177.480469 C 521.59375 174.421875 515.109375 162.722656 520.597656 160.175781 C 528.464844 156.523438 552.011719 145.757812 564.542969 146.847656 C 574.988281 147.757812 575.300781 160.113281 575.597656 161.683594 "/>
<path style=" stroke:none;fill-rule:nonzero;fill:url(#linear35);" d="M 141.183594 113.058594 C 138.914062 107.257812 139.925781 100.6875 143.84375 95.835938 C 147.757812 90.984375 153.976562 88.589844 160.148438 89.554688 C 166.320312 90.523438 171.503906 94.707031 173.734375 100.523438 C 177.207031 109.480469 172.738281 119.550781 163.746094 123.011719 C 154.757812 126.472656 144.65625 122.015625 141.183594 113.058594 "/>
<path style=" stroke:none;fill-rule:nonzero;fill:url(#linear36);" d="M 142.507812 111.566406 C 140.21875 104.738281 142.921875 97.234375 149.046875 93.417969 C 155.171875 89.597656 163.125 90.460938 168.28125 95.503906 C 169.996094 97.175781 145.246094 119.726562 142.511719 111.566406 "/>
<path style=" stroke:none;fill-rule:nonzero;fill:url(#linear37);" d="M 143.894531 105.867188 C 144.179688 101.59375 146.4375 97.691406 150.007812 95.304688 C 153.578125 92.917969 158.058594 92.3125 162.136719 93.675781 C 164.257812 94.382812 143.789062 107.46875 143.894531 105.867188 "/>
<path style=" stroke:none;fill-rule:nonzero;fill:url(#linear38);" d="M 174.609375 103.035156 C 175.679688 109.507812 174.1875 117.0625 165.757812 122.222656 C 158.96875 126.375 149.09375 122.984375 147.171875 120.984375 C 145.734375 119.496094 140.015625 113.871094 142.734375 111.476562 C 146.636719 108.046875 158.339844 97.871094 165.726562 96.378906 C 171.886719 95.132812 174.171875 102.179688 174.609375 103.035156 "/>
<path style=" stroke:none;fill-rule:nonzero;fill:url(#linear39);" d="M 515.453125 64.355469 C 514.03125 54.855469 520.605469 46.003906 530.136719 44.589844 C 539.667969 43.171875 548.546875 49.726562 549.96875 59.226562 C 551.390625 68.726562 544.816406 77.574219 535.285156 78.988281 C 525.753906 80.40625 516.875 73.851562 515.453125 64.355469 "/>
<path style=" stroke:none;fill-rule:nonzero;fill:url(#linear40);" d="M 517.078125 63.1875 C 516.34375 56.027344 520.628906 49.300781 527.441406 46.910156 C 534.253906 44.523438 541.824219 47.097656 545.75 53.136719 C 547.054688 55.144531 517.953125 71.746094 517.074219 63.1875 "/>
<path style=" stroke:none;fill-rule:nonzero;fill:url(#linear41);" d="M 519.679688 57.929688 C 520.894531 53.820312 523.957031 50.507812 527.964844 48.957031 C 531.972656 47.40625 536.476562 47.796875 540.15625 50.015625 C 542.070312 51.171875 519.222656 59.46875 519.679688 57.929688 "/>
<path style=" stroke:none;fill-rule:nonzero;fill:url(#linear42);" d="M 550.269531 61.867188 C 549.894531 68.414062 546.777344 75.464844 537.417969 78.65625 C 529.882812 81.226562 520.992188 75.765625 519.554688 73.398438 C 518.480469 71.628906 514.136719 64.890625 517.316406 63.148438 C 521.875 60.652344 535.527344 53.28125 543.0625 53.433594 C 549.347656 53.5625 550.027344 60.9375 550.269531 61.867188 "/>
</g>
</svg>
