<?xml version="1.0" encoding="UTF-8"?>
<svg xmlns="http://www.w3.org/2000/svg" xmlns:xlink="http://www.w3.org/1999/xlink" width="600px" height="300px" viewBox="0 0 600 300" version="1.1">
<g id="surface1">
<path style=" stroke:none;fill-rule:nonzero;fill:rgb(14.117647%,41.568627%,36.862745%);fill-opacity:1;" d="M 0 299.5625 L 0 0 L 599.121094 0 L 599.121094 299.5625 Z M 0 299.5625 "/>
<path style=" stroke:none;fill-rule:nonzero;fill:rgb(20.392157%,60.392157%,52.941176%);fill-opacity:1;" d="M 0 299.5625 L 0 174.734375 L 67.0625 185.355469 L 83.386719 288.429688 L 61.539062 299.5625 Z M 0 299.5625 "/>
<path style=" stroke:none;fill-rule:nonzero;fill:rgb(24.705882%,72.156863%,63.529412%);fill-opacity:1;" d="M 37.183594 298.605469 L 93.929688 257.378906 L 150.675781 298.605469 L 150.367188 299.5625 L 37.496094 299.5625 Z M 37.183594 298.605469 "/>
<path style=" stroke:none;fill-rule:nonzero;fill:rgb(24.705882%,72.156863%,63.529412%);fill-opacity:1;" d="M 250.222656 6.742188 L 193.476562 47.972656 L 136.730469 6.742188 L 138.917969 0 L 248.03125 0 Z M 250.222656 6.742188 "/>
<path style=" stroke:none;fill-rule:nonzero;fill:rgb(24.705882%,72.156863%,63.529412%);fill-opacity:1;" d="M 462.636719 42.160156 L 393.359375 53.132812 L 366.285156 0 L 469.3125 0 Z M 462.636719 42.160156 "/>
<path style=" stroke:none;fill-rule:nonzero;fill:rgb(24.705882%,72.156863%,63.529412%);fill-opacity:1;" d="M 599.121094 299.5625 L 559.074219 299.5625 L 522.816406 273.21875 L 544.492188 206.507812 L 599.121094 206.507812 Z M 599.121094 299.5625 "/>
<path style=" stroke:none;fill-rule:nonzero;fill:rgb(20.392157%,60.392157%,52.941176%);fill-opacity:1;" d="M 363.988281 247.03125 L 467.0625 263.355469 L 472.796875 299.5625 L 337.222656 299.5625 Z M 363.988281 247.03125 "/>
<path style=" stroke:none;fill-rule:nonzero;fill:rgb(20.392157%,60.392157%,52.941176%);fill-opacity:1;" d="M 332.988281 156.804688 L 256.523438 117.847656 L 269.949219 33.085938 L 354.710938 19.660156 L 393.667969 96.125 Z M 332.988281 156.804688 "/>
<path style=" stroke:none;fill-rule:nonzero;fill:rgb(24.705882%,72.156863%,63.529412%);fill-opacity:1;" d="M 329.757812 170.074219 L 278.066406 206.59375 L 227.363281 168.714844 L 247.71875 108.785156 L 311.003906 109.628906 Z M 329.757812 170.074219 "/>
<path style=" stroke:none;fill-rule:nonzero;fill:rgb(20.392157%,60.392157%,52.941176%);fill-opacity:1;" d="M 260.335938 275.058594 L 240.539062 214.121094 L 292.375 176.460938 L 344.210938 214.121094 L 324.410156 275.058594 Z M 260.335938 275.058594 "/>
<path style=" stroke:none;fill-rule:nonzero;fill:rgb(20.392157%,60.392157%,52.941176%);fill-opacity:1;" d="M 47.917969 146.894531 L 21.402344 65.277344 L 90.828125 14.835938 L 160.253906 65.277344 L 133.734375 146.894531 Z M 47.917969 146.894531 "/>
<path style=" stroke:none;fill-rule:nonzero;fill:rgb(24.705882%,72.156863%,63.529412%);fill-opacity:1;" d="M 93.796875 151.714844 L 122.53125 95.324219 L 185.042969 105.222656 L 194.941406 167.734375 L 138.550781 196.46875 Z M 93.796875 151.714844 "/>
<path style=" stroke:none;fill-rule:nonzero;fill:rgb(20.392157%,60.392157%,52.941176%);fill-opacity:1;" d="M 508.515625 74.828125 L 558.027344 144.921875 L 506.667969 213.671875 L 425.410156 186.070312 L 426.550781 100.257812 Z M 508.515625 74.828125 "/>
<path style=" stroke:none;fill-rule:nonzero;fill:rgb(24.705882%,72.156863%,63.529412%);fill-opacity:1;" d="M 498.125 25.101562 L 560.5 35.832031 L 569.566406 98.46875 L 512.796875 126.449219 L 468.644531 81.105469 Z M 498.125 25.101562 "/>
<path style=" stroke:none;fill-rule:nonzero;fill:rgb(24.705882%,72.156863%,63.529412%);fill-opacity:1;" d="M 446.40625 135.109375 L 482.925781 186.800781 L 445.046875 237.503906 L 385.117188 217.148438 L 385.960938 153.863281 Z M 446.40625 135.109375 "/>
<path style=" stroke:none;fill-rule:nonzero;fill:rgb(20.392157%,60.392157%,52.941176%);fill-opacity:1;" d="M 97.46875 184.085938 L 157.914062 164.445312 L 195.273438 215.867188 L 157.914062 267.285156 L 97.46875 247.644531 Z M 97.46875 184.085938 "/>
<path style="fill:none;stroke-width:8.5;stroke-linecap:square;stroke-linejoin:miter;stroke:rgb(0%,0%,0%);stroke-opacity:0.505882;stroke-miterlimit:10;" d="M 135.278064 204.783538 C 135.739001 204.783538 135.967517 205.986663 135.967517 208.392913 C 135.967517 210.795257 135.739001 211.994476 135.278064 211.994476 L 127.81322 211.994476 L 127.81322 216.642913 L 132.787829 216.642913 C 133.252673 216.642913 133.485095 217.695648 133.485095 219.801116 C 133.485095 221.906585 133.266345 222.961273 132.828845 222.961273 L 127.81322 222.961273 L 127.81322 232.779632 C 127.81322 233.162444 127.305408 233.414398 126.285876 233.537444 C 125.270251 233.660491 124.422595 233.721038 123.740954 233.721038 L 121.822986 233.639007 C 120.494861 233.474944 119.830798 233.20346 119.830798 232.820648 L 119.830798 205.840179 C 119.830798 205.408538 119.916736 205.123382 120.090564 204.986663 C 120.266345 204.851898 120.533923 204.783538 120.887439 204.783538 Z M 139.408923 230.910491 C 137.711658 229.031585 136.864001 226.435882 136.864001 223.125335 C 136.864001 219.808929 137.711658 217.213226 139.408923 215.338226 C 141.110095 213.465179 143.401111 212.527679 146.280017 212.527679 C 149.158923 212.527679 151.440173 213.465179 153.123767 215.338226 C 154.811267 217.213226 155.655017 219.808929 155.655017 223.125335 C 155.655017 226.435882 154.811267 229.031585 153.123767 230.910491 C 151.440173 232.783538 149.158923 233.721038 146.280017 233.721038 C 143.401111 233.721038 141.110095 232.783538 139.408923 230.910491 Z M 146.299548 219.330413 C 144.766345 219.330413 144.00072 220.582366 144.00072 223.084319 C 144.00072 225.580413 144.766345 226.830413 146.299548 226.830413 C 147.838611 226.830413 152.807361 225.580413 152.807361 223.084319 C 152.807361 220.582366 147.838611 219.330413 146.299548 219.330413 Z M 167.065173 233.066741 C 167.065173 233.258148 166.086658 233.351898 164.131579 233.351898 C 161.414783 233.271819 160.057361 233.121429 160.057361 232.902679 L 160.057361 219.699554 L 158.992908 219.699554 C 158.287829 219.699554 157.826892 219.099944 157.608142 217.904632 C 157.553454 217.555023 157.526111 217.201507 157.526111 216.846038 C 157.526111 216.004241 157.690173 215.164398 158.016345 214.322601 C 158.508533 213.125335 159.270251 212.527679 160.303454 212.527679 C 161.336658 212.527679 162.258533 212.773773 163.072986 213.264007 C 163.887439 213.750335 164.432361 214.238616 164.703845 214.724944 C 166.414783 213.260101 168.449939 212.527679 170.811267 212.527679 C 173.176501 212.527679 174.889392 213.166351 175.949939 214.445648 C 177.008533 215.719085 177.539783 217.808929 177.539783 220.715179 L 177.539783 232.943694 C 177.539783 233.271819 176.377673 233.433929 174.053454 233.433929 C 171.733142 233.433929 170.572986 233.271819 170.572986 232.943694 L 170.572986 221.166351 C 170.572986 219.805023 170.096423 219.125335 169.147204 219.125335 C 168.873767 219.125335 168.490954 219.242523 168.00072 219.472991 C 167.512439 219.705413 167.201892 219.877288 167.065173 219.98471 Z M 190.381579 233.066741 C 190.381579 233.392913 189.240954 233.556976 186.955798 233.556976 C 184.240954 233.447601 182.883533 233.271819 182.883533 233.025726 L 182.883533 218.599944 L 180.801501 218.599944 C 180.256579 218.599944 179.983142 217.662444 179.983142 215.789398 C 179.983142 215.29721 180.030017 214.699554 180.12572 213.994476 C 180.221423 213.285491 180.420642 212.930023 180.71947 212.930023 L 182.883533 212.930023 L 182.883533 209.347991 C 182.883533 208.801116 184.030017 208.529632 186.322986 208.529632 C 188.619861 208.529632 189.768298 208.746429 189.768298 209.183929 L 189.768298 211.791351 L 189.809314 212.930023 L 193.276111 212.930023 C 193.735095 212.930023 193.963611 213.883148 193.963611 215.789398 C 193.963611 217.689788 193.735095 218.64096 193.276111 218.64096 L 190.381579 218.64096 Z M 232.401111 233.351898 C 229.981189 233.351898 228.770251 233.082366 228.770251 232.541351 C 228.770251 232.541351 228.285876 223.240569 228.129626 220.250335 C 228.039783 218.531585 227.039783 219.115569 226.442126 221.097991 C 225.524158 224.154632 222.944079 232.738616 222.944079 232.738616 C 222.834704 233.066741 221.910876 233.230804 220.172595 233.230804 C 218.436267 233.230804 217.539783 233.080413 217.485095 232.779632 C 217.485095 232.779632 215.192126 225.301116 214.256579 222.250335 C 213.535876 219.906585 212.225329 219.463226 212.149158 221.627288 C 212.043689 224.615569 211.774158 232.295257 211.774158 232.295257 C 211.746814 232.699554 211.229236 232.976898 210.225329 233.127288 C 209.21947 233.277679 208.385486 233.351898 207.721423 233.351898 C 207.057361 233.351898 206.410876 233.312835 205.78197 233.230804 C 204.481189 233.039398 203.84447 232.699554 203.871814 232.213226 L 204.807361 205.717132 C 204.807361 205.066741 206.465564 204.742523 209.78197 204.742523 C 210.758533 204.742523 211.953845 204.816741 213.364001 204.967132 C 214.778064 205.117523 215.567126 205.408538 215.731189 205.840179 C 215.731189 205.840179 217.658923 211.260101 218.479236 213.570648 C 219.147204 215.451507 221.170642 215.85971 221.713611 214.10971 C 222.444079 211.750335 224.287829 205.799163 224.287829 205.799163 C 224.533923 205.094085 226.408923 204.742523 229.910876 204.742523 C 230.916736 204.742523 232.119861 204.816741 233.520251 204.967132 C 234.920642 205.117523 235.621814 205.381194 235.621814 205.758148 L 236.801501 232.500335 C 236.801501 232.795257 236.272204 233.012054 235.211658 233.148773 C 234.153064 233.285491 233.215564 233.351898 232.401111 233.351898 Z M 243.199939 218.517913 C 242.440173 217.158538 242.059314 216.051116 242.059314 215.195648 C 242.059314 214.340179 242.289783 213.789398 242.748767 213.543304 C 244.299548 212.865569 246.426501 212.527679 249.129626 212.527679 C 251.830798 212.527679 253.739001 213.160491 254.854236 214.424163 C 255.96947 215.683929 256.526111 217.551116 256.526111 220.025726 L 256.526111 226.467132 L 257.910876 226.467132 C 258.37572 226.467132 258.735095 226.738616 258.989001 227.279632 C 259.248767 227.820648 259.377673 228.568694 259.377673 229.525726 C 259.377673 230.474944 259.139392 231.412444 258.660876 232.336273 C 258.18822 233.260101 257.545642 233.721038 256.731189 233.721038 C 255.266345 233.721038 254.082751 233.32846 253.182361 232.541351 C 252.778064 232.213226 252.465564 231.816741 252.246814 231.353851 C 250.996814 232.931976 249.053454 233.721038 246.420642 233.721038 C 244.436267 233.721038 242.764392 233.01596 241.405017 231.605804 C 240.049548 230.191741 239.371814 228.517913 239.371814 226.584319 C 239.371814 222.158538 242.018298 219.943694 247.315173 219.943694 L 249.559314 219.943694 L 249.559314 219.535491 C 249.559314 218.830413 249.444079 218.375335 249.211658 218.170257 C 248.979236 217.965179 248.442126 217.863616 247.600329 217.863616 C 246.569079 217.863616 245.100329 218.082366 243.199939 218.517913 Z M 246.461658 226.017913 C 246.461658 226.613616 246.621814 227.068694 246.946033 227.383148 C 247.274158 227.695648 247.68822 227.853851 248.18822 227.853851 C 248.692126 227.853851 249.149158 227.648773 249.559314 227.238616 L 249.559314 224.099944 L 248.418689 224.099944 C 247.114001 224.099944 246.461658 224.738616 246.461658 226.017913 Z M 270.221423 233.066741 C 270.221423 233.258148 269.242908 233.351898 267.287829 233.351898 C 264.571033 233.271819 263.213611 233.121429 263.213611 232.902679 L 263.213611 219.699554 L 262.149158 219.699554 C 261.444079 219.699554 260.981189 219.099944 260.764392 217.904632 C 260.709704 217.555023 260.682361 217.201507 260.682361 216.846038 C 260.682361 216.004241 260.846423 215.164398 261.172595 214.322601 C 261.664783 213.125335 262.426501 212.527679 263.459704 212.527679 C 264.490954 212.527679 265.414783 212.773773 266.229236 213.264007 C 267.043689 213.750335 267.586658 214.238616 267.860095 214.724944 C 269.571033 213.260101 271.606189 212.527679 273.967517 212.527679 C 276.332751 212.527679 278.045642 213.166351 279.106189 214.445648 C 280.164783 215.719085 280.696033 217.808929 280.696033 220.715179 L 280.696033 232.943694 C 280.696033 233.271819 279.53197 233.433929 277.207751 233.433929 C 274.887439 233.433929 273.729236 233.271819 273.729236 232.943694 L 273.729236 221.166351 C 273.729236 219.805023 273.252673 219.125335 272.301501 219.125335 C 272.030017 219.125335 271.647204 219.242523 271.155017 219.472991 C 270.668689 219.705413 270.358142 219.877288 270.221423 219.98471 Z M 286.727283 218.517913 C 285.967517 217.158538 285.588611 216.051116 285.588611 215.195648 C 285.588611 214.340179 285.819079 213.789398 286.278064 213.543304 C 287.828845 212.865569 289.955798 212.527679 292.65697 212.527679 C 295.360095 212.527679 297.268298 213.160491 298.383533 214.424163 C 299.496814 215.683929 300.053454 217.551116 300.053454 220.025726 L 300.053454 226.467132 L 301.440173 226.467132 C 301.903064 226.467132 302.262439 226.738616 302.518298 227.279632 C 302.776111 227.820648 302.90697 228.568694 302.90697 229.525726 C 302.90697 230.474944 302.668689 231.412444 302.190173 232.336273 C 301.717517 233.260101 301.072986 233.721038 300.258533 233.721038 C 298.793689 233.721038 297.612048 233.32846 296.711658 232.541351 C 296.305408 232.213226 295.994861 231.816741 295.776111 231.353851 C 294.524158 232.931976 292.582751 233.721038 289.947986 233.721038 C 287.965564 233.721038 286.293689 233.01596 284.934314 231.605804 C 283.576892 230.191741 282.899158 228.517913 282.899158 226.584319 C 282.899158 222.158538 285.547595 219.943694 290.842517 219.943694 L 293.086658 219.943694 L 293.086658 219.535491 C 293.086658 218.830413 292.971423 218.375335 292.739001 218.170257 C 292.508533 217.965179 291.971423 217.863616 291.129626 217.863616 C 290.096423 217.863616 288.629626 218.082366 286.727283 218.517913 Z M 289.989001 226.017913 C 289.989001 226.613616 290.151111 227.068694 290.473376 227.383148 C 290.801501 227.695648 291.215564 227.853851 291.715564 227.853851 C 292.221423 227.853851 292.678454 227.648773 293.086658 227.238616 L 293.086658 224.099944 L 291.947986 224.099944 C 290.643298 224.099944 289.989001 224.738616 289.989001 226.017913 Z M 312.733142 233.312835 C 310.09447 233.312835 308.053454 232.463226 306.612048 230.76596 C 305.174548 229.064788 304.455798 226.551116 304.455798 223.226898 C 304.455798 219.896819 305.399158 217.287444 307.287829 215.400726 C 309.180408 213.512054 311.694079 212.568694 314.826892 212.568694 C 317.965564 212.568694 320.555408 213.260101 322.592517 214.642913 L 322.592517 234.943694 C 322.592517 236.95346 321.778064 238.496429 320.149158 239.568694 C 318.522204 240.642913 316.428454 241.180023 313.871814 241.180023 C 311.321033 241.180023 309.039783 240.851898 307.028064 240.197601 C 306.754626 239.54721 306.617908 238.963226 306.617908 238.449554 C 306.617908 236.707366 306.903064 235.430023 307.471423 234.615569 C 309.291736 235.402679 311.233142 235.795257 313.299548 235.795257 C 314.795642 235.795257 315.543689 235.26596 315.543689 234.205413 L 315.543689 232.98471 C 314.37572 233.20346 313.43822 233.312835 312.733142 233.312835 Z M 314.610095 219.207366 C 312.785876 219.207366 311.873767 220.582366 311.873767 223.32846 C 311.873767 225.039398 312.227283 226.152679 312.93822 226.666351 C 313.397204 227.019866 313.856189 227.197601 314.315173 227.197601 C 314.780017 227.197601 315.190173 227.156585 315.543689 227.074554 L 315.543689 219.330413 C 315.215564 219.248382 314.905017 219.207366 314.610095 219.207366 Z M 341.672595 232.213226 C 339.957751 233.219085 337.754626 233.721038 335.067126 233.721038 C 332.377673 233.721038 330.108142 232.805023 328.256579 230.971038 C 326.408923 229.133148 325.487048 226.592132 325.487048 223.349944 C 325.487048 220.101898 326.37572 217.486663 328.155017 215.502288 C 329.93822 213.519866 332.186267 212.527679 334.903064 212.527679 C 337.617908 212.527679 339.715564 213.221038 341.194079 214.607757 C 342.676501 215.990569 343.418689 217.674163 343.418689 219.658538 C 343.418689 224.060882 340.891345 226.264007 335.838611 226.264007 L 333.026111 226.264007 C 333.026111 227.076507 333.248767 227.64096 333.696033 227.955413 C 334.145251 228.264007 334.807361 228.420257 335.680408 228.420257 C 337.582751 228.420257 339.387439 227.98471 341.098376 227.115569 C 341.12572 227.088226 342.442126 229.844085 342.442126 230.644866 C 342.442126 231.443694 342.186267 231.967132 341.672595 232.213226 Z M 336.574939 220.435882 C 336.574939 219.293304 336.018298 218.722991 334.903064 218.722991 C 334.389392 218.722991 333.947986 218.879241 333.578845 219.193694 C 333.209704 219.504241 333.026111 219.955413 333.026111 220.551116 L 333.026111 221.820648 L 335.231189 221.820648 C 336.12572 221.820648 336.574939 221.35971 336.574939 220.435882 Z M 354.996814 233.271819 C 354.996814 233.461273 353.760486 233.556976 351.285876 233.556976 C 348.815173 233.502288 347.580798 233.392913 347.580798 233.230804 L 347.580798 219.699554 L 346.481189 219.699554 C 346.045642 219.699554 345.696033 219.435882 345.43822 218.906585 C 345.178454 218.375335 345.049548 217.715179 345.049548 216.928069 C 345.049548 213.994476 345.920642 212.527679 347.662829 212.527679 C 348.885486 212.527679 349.905017 212.900726 350.71947 213.646819 C 351.533923 214.392913 351.940173 215.240569 351.940173 216.191741 C 352.508533 215.076507 353.276111 214.187835 354.239001 213.523773 C 355.203845 212.85971 356.18822 212.527679 357.194079 212.527679 C 358.772204 212.527679 359.725329 212.933929 360.053454 213.748382 C 360.131579 213.967132 360.168689 214.287444 360.168689 214.711273 C 360.168689 215.129241 360.039783 215.883148 359.780017 216.969085 C 359.526111 218.056976 359.262439 218.846038 358.989001 219.338226 C 358.715564 219.824554 358.551501 220.066741 358.496814 220.066741 C 358.447986 220.066741 358.197986 219.965179 357.746814 219.760101 C 357.297595 219.555023 356.897204 219.45346 356.545642 219.45346 C 355.514392 219.45346 354.996814 220.269866 354.996814 221.902679 Z M 354.996814 233.271819 " transform="matrix(2,0,0,2,-180.43894,-211.21942)"/>
<path style=" stroke:none;fill-rule:nonzero;fill:rgb(100%,100%,100%);fill-opacity:1;" d="M 90.117188 198.347656 C 91.039062 198.347656 91.496094 200.753906 91.496094 205.566406 C 91.496094 210.367188 91.039062 212.769531 90.117188 212.769531 L 75.1875 212.769531 L 75.1875 222.066406 L 85.136719 222.066406 C 86.066406 222.066406 86.53125 224.171875 86.53125 228.382812 C 86.53125 232.59375 86.09375 234.703125 85.21875 234.703125 L 75.1875 234.703125 L 75.1875 254.339844 C 75.1875 255.105469 74.171875 255.609375 72.132812 255.855469 C 70.101562 256.101562 68.40625 256.222656 67.042969 256.222656 L 63.207031 256.058594 C 60.550781 255.730469 59.222656 255.1875 59.222656 254.421875 L 59.222656 200.460938 C 59.222656 199.597656 59.394531 199.027344 59.742188 198.753906 C 60.09375 198.484375 60.628906 198.347656 61.335938 198.347656 Z M 98.378906 250.601562 C 94.984375 246.84375 93.289062 241.652344 93.289062 235.03125 C 93.289062 228.398438 94.984375 223.207031 98.378906 219.457031 C 101.78125 215.710938 106.363281 213.835938 112.121094 213.835938 C 117.878906 213.835938 122.441406 215.710938 125.808594 219.457031 C 129.183594 223.207031 130.871094 228.398438 130.871094 235.03125 C 130.871094 241.652344 129.183594 246.84375 125.808594 250.601562 C 122.441406 254.347656 117.878906 256.222656 112.121094 256.222656 C 106.363281 256.222656 101.78125 254.347656 98.378906 250.601562 Z M 112.160156 227.441406 C 109.09375 227.441406 107.5625 229.945312 107.5625 234.949219 C 107.5625 239.941406 109.09375 242.441406 112.160156 242.441406 C 115.238281 242.441406 116.773438 239.941406 116.773438 234.949219 C 116.773438 229.945312 115.238281 227.441406 112.160156 227.441406 Z M 153.691406 254.914062 C 153.691406 255.296875 151.734375 255.484375 147.824219 255.484375 C 142.390625 255.324219 139.675781 255.023438 139.675781 254.585938 L 139.675781 228.179688 L 137.546875 228.179688 C 136.136719 228.179688 135.214844 226.980469 134.777344 224.589844 C 134.667969 223.890625 134.613281 223.183594 134.613281 222.472656 C 134.613281 220.789062 134.941406 219.109375 135.59375 217.425781 C 136.578125 215.03125 138.101562 213.835938 140.167969 213.835938 C 142.234375 213.835938 144.078125 214.328125 145.707031 215.308594 C 147.335938 216.28125 148.425781 217.257812 148.96875 218.230469 C 152.390625 215.300781 156.460938 213.835938 161.183594 213.835938 C 165.914062 213.835938 169.339844 215.113281 171.460938 217.671875 C 173.578125 220.21875 174.640625 224.398438 174.640625 230.210938 L 174.640625 254.667969 C 174.640625 255.324219 172.316406 255.648438 167.667969 255.648438 C 163.027344 255.648438 160.707031 255.324219 160.707031 254.667969 L 160.707031 231.113281 C 160.707031 228.390625 159.753906 227.03125 157.855469 227.03125 C 157.308594 227.03125 156.542969 227.265625 155.5625 227.726562 C 154.585938 228.191406 153.964844 228.535156 153.691406 228.75 Z M 200.324219 254.914062 C 200.324219 255.566406 198.042969 255.894531 193.472656 255.894531 C 188.042969 255.675781 185.328125 255.324219 185.328125 254.832031 L 185.328125 225.980469 L 181.164062 225.980469 C 180.074219 225.980469 179.527344 224.105469 179.527344 220.359375 C 179.527344 219.375 179.621094 218.179688 179.8125 216.769531 C 180.003906 215.351562 180.402344 214.640625 181 214.640625 L 185.328125 214.640625 L 185.328125 207.476562 C 185.328125 206.382812 187.621094 205.839844 192.207031 205.839844 C 196.800781 205.839844 199.097656 206.273438 199.097656 207.148438 L 199.097656 212.363281 L 199.179688 214.640625 L 206.113281 214.640625 C 207.03125 214.640625 207.488281 216.546875 207.488281 220.359375 C 207.488281 224.160156 207.03125 226.0625 206.113281 226.0625 L 200.324219 226.0625 Z M 284.363281 255.484375 C 279.523438 255.484375 277.101562 254.945312 277.101562 253.863281 L 275.398438 221.164062 L 265.449219 254.257812 C 265.230469 254.914062 263.382812 255.242188 259.90625 255.242188 C 256.433594 255.242188 254.640625 254.941406 254.53125 254.339844 L 244.253906 220.835938 L 243.109375 253.371094 C 243.054688 254.179688 242.019531 254.734375 240.011719 255.035156 C 238 255.335938 236.332031 255.484375 235.003906 255.484375 C 233.675781 255.484375 232.382812 255.40625 231.125 255.242188 C 228.523438 254.859375 227.25 254.179688 227.304688 253.207031 L 229.175781 200.214844 C 229.175781 198.914062 232.492188 198.265625 239.125 198.265625 C 241.078125 198.265625 243.46875 198.414062 246.289062 198.714844 C 249.117188 199.015625 250.695312 199.597656 251.023438 200.460938 L 260.152344 226.144531 L 268.136719 200.378906 C 268.628906 198.96875 272.378906 198.265625 279.382812 198.265625 C 281.394531 198.265625 283.800781 198.414062 286.601562 198.714844 C 289.402344 199.015625 290.804688 199.542969 290.804688 200.296875 L 293.164062 253.78125 C 293.164062 254.371094 292.105469 254.804688 289.984375 255.078125 C 287.867188 255.351562 285.992188 255.484375 284.363281 255.484375 Z M 305.960938 225.816406 C 304.441406 223.097656 303.679688 220.882812 303.679688 219.171875 C 303.679688 217.460938 304.140625 216.359375 305.058594 215.867188 C 308.160156 214.511719 312.414062 213.835938 317.820312 213.835938 C 323.222656 213.835938 327.039062 215.101562 329.269531 217.628906 C 331.5 220.148438 332.613281 223.882812 332.613281 228.832031 L 332.613281 241.714844 L 335.382812 241.714844 C 336.3125 241.714844 337.03125 242.257812 337.539062 243.339844 C 338.058594 244.421875 338.316406 245.917969 338.316406 247.832031 C 338.316406 249.730469 337.839844 251.605469 336.882812 253.453125 C 335.9375 255.300781 334.652344 256.222656 333.023438 256.222656 C 330.09375 256.222656 327.726562 255.4375 325.925781 253.863281 C 325.117188 253.207031 324.492188 252.414062 324.054688 251.488281 C 321.554688 254.644531 317.667969 256.222656 312.402344 256.222656 C 308.433594 256.222656 305.089844 254.8125 302.371094 251.992188 C 299.660156 249.164062 298.304688 245.816406 298.304688 241.949219 C 298.304688 233.097656 303.597656 228.667969 314.191406 228.667969 L 318.679688 228.667969 L 318.679688 227.851562 C 318.679688 226.441406 318.449219 225.53125 317.984375 225.121094 C 317.519531 224.710938 316.445312 224.507812 314.761719 224.507812 C 312.699219 224.507812 309.761719 224.945312 305.960938 225.816406 Z M 312.484375 240.816406 C 312.484375 242.007812 312.804688 242.917969 313.453125 243.546875 C 314.109375 244.171875 314.9375 244.488281 315.9375 244.488281 C 316.945312 244.488281 317.859375 244.078125 318.679688 243.257812 L 318.679688 236.980469 L 316.398438 236.980469 C 313.789062 236.980469 312.484375 238.257812 312.484375 240.816406 Z M 360.003906 254.914062 C 360.003906 255.296875 358.046875 255.484375 354.136719 255.484375 C 348.703125 255.324219 345.988281 255.023438 345.988281 254.585938 L 345.988281 228.179688 L 343.859375 228.179688 C 342.449219 228.179688 341.523438 226.980469 341.089844 224.589844 C 340.980469 223.890625 340.925781 223.183594 340.925781 222.472656 C 340.925781 220.789062 341.253906 219.109375 341.90625 217.425781 C 342.890625 215.03125 344.414062 213.835938 346.480469 213.835938 C 348.542969 213.835938 350.390625 214.328125 352.019531 215.308594 C 353.648438 216.28125 354.734375 217.257812 355.28125 218.230469 C 358.703125 215.300781 362.773438 213.835938 367.496094 213.835938 C 372.226562 213.835938 375.652344 215.113281 377.773438 217.671875 C 379.890625 220.21875 380.953125 224.398438 380.953125 230.210938 L 380.953125 254.667969 C 380.953125 255.324219 378.625 255.648438 373.976562 255.648438 C 369.335938 255.648438 367.019531 255.324219 367.019531 254.667969 L 367.019531 231.113281 C 367.019531 228.390625 366.066406 227.03125 364.164062 227.03125 C 363.621094 227.03125 362.855469 227.265625 361.871094 227.726562 C 360.898438 228.191406 360.277344 228.535156 360.003906 228.75 Z M 393.015625 225.816406 C 391.496094 223.097656 390.738281 220.882812 390.738281 219.171875 C 390.738281 217.460938 391.199219 216.359375 392.117188 215.867188 C 395.21875 214.511719 399.472656 213.835938 404.875 213.835938 C 410.28125 213.835938 414.097656 215.101562 416.328125 217.628906 C 418.554688 220.148438 419.667969 223.882812 419.667969 228.832031 L 419.667969 241.714844 L 422.441406 241.714844 C 423.367188 241.714844 424.085938 242.257812 424.597656 243.339844 C 425.113281 244.421875 425.375 245.917969 425.375 247.832031 C 425.375 249.730469 424.898438 251.605469 423.941406 253.453125 C 422.996094 255.300781 421.707031 256.222656 420.078125 256.222656 C 417.148438 256.222656 414.785156 255.4375 412.984375 253.863281 C 412.171875 253.207031 411.550781 252.414062 411.113281 251.488281 C 408.609375 254.644531 404.726562 256.222656 399.457031 256.222656 C 395.492188 256.222656 392.148438 254.8125 389.429688 251.992188 C 386.714844 249.164062 385.359375 245.816406 385.359375 241.949219 C 385.359375 233.097656 390.65625 228.667969 401.246094 228.667969 L 405.734375 228.667969 L 405.734375 227.851562 C 405.734375 226.441406 405.503906 225.53125 405.039062 225.121094 C 404.574219 224.710938 403.503906 224.507812 401.820312 224.507812 C 399.753906 224.507812 396.820312 224.945312 393.015625 225.816406 Z M 399.539062 240.816406 C 399.539062 242.007812 399.863281 242.917969 400.507812 243.546875 C 401.164062 244.171875 401.992188 244.488281 402.992188 244.488281 C 404.003906 244.488281 404.917969 244.078125 405.734375 243.257812 L 405.734375 236.980469 L 403.457031 236.980469 C 400.847656 236.980469 399.539062 238.257812 399.539062 240.816406 Z M 445.027344 255.40625 C 439.75 255.40625 435.667969 253.707031 432.785156 250.3125 C 429.910156 246.910156 428.472656 241.882812 428.472656 235.234375 C 428.472656 228.574219 430.359375 223.355469 434.136719 219.582031 C 437.921875 215.804688 442.949219 213.917969 449.214844 213.917969 C 455.492188 213.917969 460.671875 215.300781 464.746094 218.066406 L 464.746094 258.667969 C 464.746094 262.6875 463.117188 265.773438 459.859375 267.917969 C 456.605469 270.066406 452.417969 271.140625 447.304688 271.140625 C 442.203125 271.140625 437.640625 270.484375 433.617188 269.175781 C 433.070312 267.875 432.796875 266.707031 432.796875 265.679688 C 432.796875 262.195312 433.367188 259.640625 434.503906 258.011719 C 438.144531 259.585938 442.027344 260.371094 446.160156 260.371094 C 449.152344 260.371094 450.648438 259.3125 450.648438 257.191406 L 450.648438 254.75 C 448.3125 255.1875 446.4375 255.40625 445.027344 255.40625 Z M 448.78125 227.195312 C 445.132812 227.195312 443.308594 229.945312 443.308594 235.4375 C 443.308594 238.859375 444.015625 241.085938 445.4375 242.113281 C 446.355469 242.820312 447.273438 243.175781 448.191406 243.175781 C 449.121094 243.175781 449.941406 243.09375 450.648438 242.929688 L 450.648438 227.441406 C 449.992188 227.277344 449.371094 227.195312 448.78125 227.195312 Z M 502.90625 253.207031 C 499.476562 255.21875 495.070312 256.222656 489.695312 256.222656 C 484.316406 256.222656 479.777344 254.390625 476.074219 250.722656 C 472.378906 247.046875 470.535156 241.964844 470.535156 235.480469 C 470.535156 228.984375 472.3125 223.753906 475.871094 219.785156 C 479.4375 215.820312 483.933594 213.835938 489.367188 213.835938 C 494.796875 213.835938 498.992188 215.222656 501.949219 217.996094 C 504.914062 220.761719 506.398438 224.128906 506.398438 228.097656 C 506.398438 236.902344 501.34375 241.308594 491.238281 241.308594 L 485.613281 241.308594 C 485.613281 242.933594 486.058594 244.0625 486.953125 244.691406 C 487.851562 245.308594 489.175781 245.621094 490.921875 245.621094 C 494.726562 245.621094 498.335938 244.75 501.757812 243.011719 C 501.8125 242.957031 502.058594 243.339844 502.496094 244.160156 C 503.796875 246.496094 504.445312 248.46875 504.445312 250.070312 C 504.445312 251.667969 503.933594 252.714844 502.90625 253.207031 Z M 492.710938 229.652344 C 492.710938 227.367188 491.597656 226.226562 489.367188 226.226562 C 488.339844 226.226562 487.457031 226.539062 486.71875 227.167969 C 485.980469 227.789062 485.613281 228.691406 485.613281 229.882812 L 485.613281 232.421875 L 490.023438 232.421875 C 491.8125 232.421875 492.710938 231.5 492.710938 229.652344 Z M 529.554688 255.324219 C 529.554688 255.703125 527.082031 255.894531 522.132812 255.894531 C 517.191406 255.785156 514.722656 255.566406 514.722656 255.242188 L 514.722656 228.179688 L 512.523438 228.179688 C 511.652344 228.179688 510.953125 227.652344 510.4375 226.59375 C 509.917969 225.53125 509.660156 224.210938 509.660156 222.636719 C 509.660156 216.769531 511.402344 213.835938 514.886719 213.835938 C 517.332031 213.835938 519.371094 214.582031 521 216.074219 C 522.628906 217.566406 523.441406 219.261719 523.441406 221.164062 C 524.578125 218.933594 526.113281 217.15625 528.039062 215.828125 C 529.96875 214.5 531.9375 213.835938 533.949219 213.835938 C 537.105469 213.835938 539.011719 214.648438 539.667969 216.277344 C 539.824219 216.714844 539.898438 217.355469 539.898438 218.203125 C 539.898438 219.039062 539.640625 220.546875 539.121094 222.71875 C 538.613281 224.894531 538.085938 226.472656 537.539062 227.457031 C 536.992188 228.429688 536.664062 228.914062 536.554688 228.914062 C 536.457031 228.914062 535.957031 228.710938 535.054688 228.300781 C 534.15625 227.890625 533.355469 227.6875 532.652344 227.6875 C 530.589844 227.6875 529.554688 229.320312 529.554688 232.585938 Z M 529.554688 255.324219 "/>
<path style="fill:none;stroke-width:9.5;stroke-linecap:butt;stroke-linejoin:miter;stroke:rgb(0%,0%,0%);stroke-opacity:0.505882;stroke-miterlimit:10;" d="M 268.373767 140.959319 C 268.373767 147.707366 268.373767 180.197601 268.373767 180.197601 C 268.373767 182.549163 266.467517 184.45346 264.117908 184.45346 L 215.883533 184.45346 C 213.53197 184.45346 211.627673 182.549163 211.627673 180.197601 C 211.627673 180.197601 211.627673 139.23471 211.627673 133.209319 C 211.627673 131.775726 212.994861 130.545257 214.201892 130.545257 C 216.350329 130.545257 223.424548 130.545257 226.811267 130.545257 C 227.934314 130.545257 229.162829 131.056976 229.852283 131.746429 C 230.953845 132.849944 232.510486 134.404632 233.135486 135.029632 C 233.658923 135.553069 234.996814 136.221038 236.137439 136.221038 C 241.627673 136.221038 257.985095 136.221038 262.803454 136.221038 C 265.377673 136.221038 268.373767 138.615569 268.373767 140.959319 Z M 244.006579 173.349944 C 241.934314 168.726898 234.348376 151.810882 232.453845 147.586273 C 231.62572 145.740569 229.926501 145.611663 229.143298 147.365569 C 227.352283 151.383148 220.149158 167.517913 217.78197 172.824554 C 217.303454 173.894866 217.567126 174.523773 218.246814 174.523773 C 219.104236 174.523773 220.182361 174.523773 220.651111 174.523773 C 221.100329 174.523773 221.903064 174.033538 222.117908 173.549163 C 222.746814 172.142913 225.799548 165.303069 225.799548 165.303069 L 235.735095 165.303069 C 235.735095 165.303069 238.877673 172.312835 239.483142 173.664398 C 239.678454 174.097991 240.369861 174.523773 241.004626 174.523773 C 241.811267 174.523773 242.836658 174.523773 243.317126 174.523773 C 243.824939 174.523773 244.342517 174.097991 244.006579 173.349944 Z M 260.801501 156.080413 C 260.328845 156.080413 259.315173 156.080413 258.580798 156.080413 C 258.09447 156.080413 257.733142 156.654632 257.733142 156.912444 C 257.733142 157.135101 257.733142 157.539398 257.733142 157.539398 C 256.299548 156.617523 254.59447 156.080413 252.768298 156.080413 C 247.682361 156.080413 243.547595 160.217132 243.547595 165.303069 C 243.547595 170.387054 247.682361 174.523773 252.768298 174.523773 C 254.59447 174.523773 256.299548 173.986663 257.733142 173.066741 C 257.733142 173.066741 257.733142 173.441741 257.733142 173.656585 C 257.733142 173.918304 258.09447 174.523773 258.580798 174.523773 C 259.34447 174.523773 260.416736 174.523773 260.893298 174.523773 C 261.354236 174.523773 261.989001 173.793304 261.989001 172.639007 C 261.989001 168.887054 261.989001 160.650726 261.989001 158.392913 C 261.989001 157.275726 261.289783 156.080413 260.801501 156.080413 Z M 260.801501 156.080413 " transform="matrix(2,0,0,2,-180.43894,-211.21942)"/>
<path style="fill:none;stroke-width:9.5;stroke-linecap:butt;stroke-linejoin:miter;stroke:rgb(0%,0%,0%);stroke-opacity:0.505882;stroke-miterlimit:10;" d="M 236.21947 133.355804 C 236.21947 133.355804 237.586658 130.691741 238.793689 130.691741 C 240.942126 130.691741 248.016345 130.691741 251.405017 130.691741 C 252.526111 130.691741 253.754626 131.20346 254.444079 131.892913 C 255.547595 132.996429 256.477283 133.392913 255.272204 133.39096 C 251.918689 133.385101 236.21947 133.355804 236.21947 133.355804 Z M 236.21947 133.355804 " transform="matrix(2,0,0,2,-180.43894,-211.21942)"/>
<path style=" stroke:none;fill-rule:nonzero;fill:rgb(100%,100%,100%);fill-opacity:1;" d="M 335.027344 119.386719 C 335.027344 124.863281 330.574219 129.316406 325.097656 129.316406 C 319.621094 129.316406 315.167969 124.863281 315.167969 119.386719 C 315.167969 113.910156 319.621094 109.457031 325.097656 109.457031 C 330.574219 109.457031 335.027344 113.910156 335.027344 119.386719 Z M 335.027344 119.386719 "/>
<path style=" stroke:none;fill-rule:nonzero;fill:rgb(100%,100%,100%);fill-opacity:1;" d="M 356.308594 70.699219 C 356.308594 84.195312 356.308594 149.175781 356.308594 149.175781 C 356.308594 153.878906 352.496094 157.6875 347.796875 157.6875 L 251.328125 157.6875 C 246.625 157.6875 242.816406 153.878906 242.816406 149.175781 C 242.816406 149.175781 242.816406 67.25 242.816406 55.199219 C 242.816406 52.332031 245.550781 49.871094 247.964844 49.871094 C 252.261719 49.871094 266.410156 49.871094 273.183594 49.871094 C 275.429688 49.871094 277.886719 50.894531 279.265625 52.273438 C 281.46875 54.480469 284.582031 57.589844 285.832031 58.839844 C 286.878906 59.886719 289.554688 61.222656 291.835938 61.222656 C 302.816406 61.222656 335.53125 61.222656 345.167969 61.222656 C 350.316406 61.222656 356.308594 66.011719 356.308594 70.699219 Z M 307.574219 135.480469 C 303.429688 126.234375 288.257812 92.402344 284.46875 83.953125 C 282.8125 80.261719 279.414062 80.003906 277.847656 83.511719 C 274.265625 91.546875 259.859375 123.816406 255.125 134.429688 C 254.167969 136.570312 254.695312 137.828125 256.054688 137.828125 C 257.769531 137.828125 259.925781 137.828125 260.863281 137.828125 C 261.761719 137.828125 263.367188 136.84375 263.796875 135.878906 C 265.054688 133.066406 271.160156 119.386719 271.160156 119.386719 L 291.03125 119.386719 C 291.03125 119.386719 297.316406 133.40625 298.527344 136.109375 C 298.917969 136.976562 300.300781 137.828125 301.570312 137.828125 C 303.183594 137.828125 305.234375 137.828125 306.195312 137.828125 C 307.210938 137.828125 308.246094 136.976562 307.574219 135.480469 Z M 341.164062 100.941406 C 340.21875 100.941406 338.191406 100.941406 336.722656 100.941406 C 335.75 100.941406 335.027344 102.089844 335.027344 102.605469 C 335.027344 103.050781 335.027344 103.859375 335.027344 103.859375 C 332.160156 102.015625 328.75 100.941406 325.097656 100.941406 C 314.925781 100.941406 306.65625 109.214844 306.65625 119.386719 C 306.65625 129.554688 314.925781 137.828125 325.097656 137.828125 C 328.75 137.828125 332.160156 136.753906 335.027344 134.914062 C 335.027344 134.914062 335.027344 135.664062 335.027344 136.09375 C 335.027344 136.617188 335.75 137.828125 336.722656 137.828125 C 338.25 137.828125 340.394531 137.828125 341.347656 137.828125 C 342.269531 137.828125 343.539062 136.367188 343.539062 134.058594 C 343.539062 126.554688 343.539062 110.082031 343.539062 105.566406 C 343.539062 103.332031 342.140625 100.941406 341.164062 100.941406 Z M 341.164062 100.941406 "/>
<path style=" stroke:none;fill-rule:nonzero;fill:rgb(100%,100%,100%);fill-opacity:1;" d="M 285.269531 110.875 C 283.828125 110.875 279.425781 110.875 276.863281 110.875 C 275.730469 110.875 275.421875 109.832031 276.070312 108.382812 C 277.21875 105.804688 278.949219 101.9375 279.65625 100.34375 C 280.265625 98.980469 281.972656 99.191406 282.628906 100.65625 C 283.375 102.3125 285.132812 106.238281 286.242188 108.710938 C 286.8125 109.984375 286.171875 110.875 285.269531 110.875 Z M 285.269531 110.875 "/>
<path style=" stroke:none;fill-rule:nonzero;fill:rgb(100%,100%,100%);fill-opacity:1;" d="M 292 55.492188 C 292 55.492188 294.734375 50.164062 297.148438 50.164062 C 301.445312 50.164062 315.59375 50.164062 322.371094 50.164062 C 324.613281 50.164062 327.070312 51.1875 328.449219 52.566406 C 330.65625 54.773438 332.515625 55.566406 330.105469 55.5625 C 323.398438 55.550781 292 55.492188 292 55.492188 Z M 292 55.492188 "/>
<path style=" stroke:none;fill-rule:nonzero;fill:rgb(20.392157%,60.392157%,52.941176%);fill-opacity:1;" d="M 111.832031 12.746094 L 86.816406 0 L 124.578125 0 Z M 111.832031 12.746094 "/>
<path style=" stroke:none;fill-rule:nonzero;fill:rgb(24.705882%,72.156863%,63.529412%);fill-opacity:1;" d="M 0 0 L 67.445312 0 L 67.445312 13.074219 L 0.734375 34.75 L 0 33.738281 Z M 0 0 "/>
</g>
</svg>
