<?xml version="1.0" encoding="UTF-8"?>
<svg xmlns="http://www.w3.org/2000/svg" xmlns:xlink="http://www.w3.org/1999/xlink" width="600px" height="300px" viewBox="0 0 600 300" version="1.1">
<g id="surface1">
<rect x="0" y="0" width="600" height="300" style="fill:rgb(20.392157%,65.882353%,32.54902%);fill-opacity:1;stroke:none;"/>
<path style="fill-rule:nonzero;fill:rgb(10.588235%,55.294118%,23.921569%);fill-opacity:1;stroke-width:1.5;stroke-linecap:butt;stroke-linejoin:miter;stroke:rgb(10.588235%,55.294118%,23.921569%);stroke-opacity:1;stroke-miterlimit:10;" d="M 383.412109 118.816536 L 383.412109 241.18763 C 383.412109 243.755989 381.658203 245.904427 379.289062 246.552864 L 379.289062 246.636849 L 379.013672 246.636849 C 378.630859 246.722786 378.236328 246.771614 377.828125 246.771614 L 101.173828 246.771614 C 100.763672 246.771614 100.369141 246.720833 99.984375 246.636849 L 97.980469 246.636849 L 97.980469 245.757943 C 96.537109 244.744271 95.587891 243.078255 95.587891 241.185677 L 95.587891 118.814583 C 95.587891 115.736458 98.091797 113.228646 101.173828 113.228646 L 377.824219 113.228646 C 380.90625 113.228646 383.412109 115.736458 383.412109 118.816536 Z M 377.824219 118.015755 L 319.798828 118.015755 L 319.798828 134.910286 L 378.625 134.910286 L 378.625 118.816536 C 378.625 118.37513 378.267578 118.017708 377.824219 118.015755 Z M 378.623047 241.185677 L 378.623047 226.68763 L 319.798828 226.68763 L 319.798828 241.849739 L 378.240234 241.849739 C 378.464844 241.711068 378.625 241.470833 378.623047 241.185677 Z M 100.757812 241.849739 L 172.886719 241.849739 L 172.886719 226.68763 L 100.375 226.68763 L 100.375 241.185677 C 100.375 241.470833 100.533203 241.711068 100.757812 241.849739 Z M 177.673828 184.789193 L 177.673828 201.388802 L 245.355469 201.388802 L 245.355469 184.789193 Z M 245.355469 180.00013 L 245.355469 162.043099 L 177.673828 162.043099 L 177.673828 180.00013 Z M 177.673828 206.177864 L 177.673828 221.898568 L 245.355469 221.898568 L 245.355469 206.177864 Z M 177.673828 226.68763 L 177.673828 241.849739 L 245.355469 241.849739 L 245.355469 226.68763 Z M 250.144531 241.849739 L 315.011719 241.849739 L 315.011719 226.68763 L 250.144531 226.68763 Z M 315.011719 221.898568 L 315.011719 206.175911 L 250.144531 206.175911 L 250.144531 221.898568 Z M 315.011719 201.388802 L 315.011719 184.789193 L 250.144531 184.789193 L 250.144531 201.388802 Z M 315.011719 180.00013 L 315.011719 162.043099 L 250.144531 162.043099 L 250.144531 180.00013 Z M 315.011719 157.255989 L 315.011719 139.697396 L 250.144531 139.697396 L 250.144531 157.255989 Z M 315.011719 134.910286 L 315.011719 118.015755 L 250.144531 118.015755 L 250.144531 134.910286 Z M 245.355469 134.910286 L 245.355469 118.015755 L 177.673828 118.015755 L 177.673828 134.910286 Z M 177.673828 139.697396 L 177.673828 157.255989 L 245.355469 157.255989 L 245.355469 139.697396 Z M 172.886719 139.697396 L 100.375 139.697396 L 100.375 157.255989 L 172.886719 157.255989 Z M 100.375 162.043099 L 100.375 180.00013 L 172.886719 180.00013 L 172.886719 162.043099 Z M 100.375 184.789193 L 100.375 201.388802 L 172.886719 201.388802 L 172.886719 184.789193 Z M 100.375 206.177864 L 100.375 221.898568 L 172.886719 221.898568 L 172.886719 206.177864 Z M 378.623047 221.898568 L 378.623047 206.175911 L 319.798828 206.175911 L 319.798828 221.898568 Z M 378.623047 201.388802 L 378.623047 184.789193 L 319.798828 184.789193 L 319.798828 201.388802 Z M 378.623047 180.00013 L 378.623047 162.043099 L 319.798828 162.043099 L 319.798828 180.00013 Z M 378.623047 157.255989 L 378.623047 139.697396 L 319.798828 139.697396 L 319.798828 157.255989 Z M 378.623047 157.255989 " transform="matrix(2,0,0,2,-180,-210.00026)"/>
<path style=" stroke:none;fill-rule:nonzero;fill:rgb(25.098039%,80.784314%,40%);fill-opacity:1;" d="M 310.808594 59.84375 L 175.25 59.84375 L 175.25 26.003906 L 310.808594 26.003906 Z M 310.808594 59.84375 "/>
<path style=" stroke:none;fill-rule:nonzero;fill:rgb(25.098039%,80.784314%,40%);fill-opacity:1;" d="M 320.191406 243.351562 L 450.121094 243.351562 L 450.121094 273.722656 L 320.191406 273.722656 Z M 320.191406 243.351562 "/>
<path style=" stroke:none;fill-rule:nonzero;fill:rgb(25.098039%,80.784314%,40%);fill-opacity:1;" d="M 459.503906 150.03125 L 459.503906 114.058594 L 577.34375 114.058594 L 577.34375 150.03125 Z M 459.503906 150.03125 "/>
<path style=" stroke:none;fill-rule:nonzero;fill:rgb(25.098039%,80.784314%,40%);fill-opacity:1;" d="M 320.191406 104.539062 L 320.191406 69.371094 L 450.117188 69.371094 L 450.117188 104.539062 Z M 320.191406 104.539062 "/>
<path style=" stroke:none;fill-rule:nonzero;fill:rgb(25.098039%,80.784314%,40%);fill-opacity:1;" d="M 577.34375 27.605469 L 577.34375 59.847656 L 459.503906 59.847656 L 459.503906 26.003906 L 575.742188 26.003906 C 576.628906 26.003906 577.34375 26.726562 577.34375 27.605469 Z M 577.34375 27.605469 "/>
<path style=" stroke:none;fill-rule:nonzero;fill:rgb(25.098039%,80.784314%,40%);fill-opacity:1;" d="M 310.808594 243.351562 L 310.808594 273.71875 L 175.25 273.71875 L 175.25 243.351562 Z M 310.808594 243.351562 "/>
<path style=" stroke:none;fill-rule:nonzero;fill:rgb(25.098039%,80.784314%,40%);fill-opacity:1;" d="M 310.808594 202.332031 L 310.808594 233.820312 L 175.25 233.820312 L 175.25 202.332031 Z M 310.808594 202.332031 "/>
<path style=" stroke:none;fill-rule:nonzero;fill:rgb(25.098039%,80.784314%,40%);fill-opacity:1;" d="M 20.648438 272.390625 L 20.652344 243.355469 L 165.871094 243.355469 L 165.871094 273.71875 L 21.417969 273.71875 C 20.96875 273.441406 20.648438 272.957031 20.648438 272.390625 Z M 20.648438 272.390625 "/>
<path style=" stroke:none;fill-rule:nonzero;fill:rgb(25.098039%,80.784314%,40%);fill-opacity:1;" d="M 165.871094 202.332031 L 165.871094 233.820312 L 20.652344 233.820312 L 20.652344 202.332031 Z M 165.871094 202.332031 "/>
<path style=" stroke:none;fill-rule:nonzero;fill:rgb(25.098039%,80.784314%,40%);fill-opacity:1;" d="M 165.871094 159.554688 L 165.871094 192.800781 L 20.652344 192.800781 L 20.652344 159.554688 Z M 165.871094 159.554688 "/>
<path style="fill:none;stroke-width:8.5;stroke-linecap:butt;stroke-linejoin:miter;stroke:rgb(0%,0%,0%);stroke-opacity:0.505882;stroke-miterlimit:10;" d="M 211.925781 182.002083 C 213.345703 167.929818 217.238281 129.386849 217.869141 123.148567 C 218.148438 120.371224 221.855469 118.123177 224.664062 118.40638 C 230.464844 118.992317 251.337891 121.099739 251.337891 121.099739 L 267.097656 140.289193 C 267.097656 140.289193 263.232422 178.576302 262.423828 186.570443 C 262.142578 189.367318 259.283203 191.972786 255.363281 191.578255 C 244.578125 190.488411 223.566406 188.367318 217.660156 187.769661 C 214.630859 187.464974 211.601562 185.203255 211.925781 182.002083 Z M 211.925781 182.002083 " transform="matrix(2,0,0,2,-180,-210.00026)"/>
<path style=" stroke:none;fill-rule:nonzero;fill:rgb(20.392157%,65.882353%,32.54902%);fill-opacity:1;" d="M 243.851562 154.003906 C 246.691406 125.859375 254.476562 48.773438 255.738281 36.296875 C 256.296875 30.742188 263.710938 26.246094 269.328125 26.8125 C 280.929688 27.984375 322.675781 32.199219 322.675781 32.199219 L 354.195312 70.578125 C 354.195312 70.578125 346.464844 147.152344 344.847656 163.140625 C 344.285156 168.734375 338.566406 173.945312 330.726562 173.15625 C 309.15625 170.976562 267.132812 166.734375 255.320312 165.539062 C 249.261719 164.929688 243.203125 160.40625 243.851562 154.003906 Z M 243.851562 154.003906 "/>
<path style=" stroke:none;fill-rule:nonzero;fill:rgb(9.411765%,50.196078%,21.960784%);fill-opacity:1;" d="M 319.371094 66.808594 L 322.875 32.132812 L 354.046875 70.308594 Z M 319.371094 66.808594 "/>
<path style=" stroke:none;fill-rule:nonzero;fill:rgb(100%,100%,100%);fill-opacity:1;" d="M 265.449219 128.050781 L 270.171875 81.28125 L 333.230469 87.652344 L 328.507812 134.417969 Z M 265.449219 128.050781 "/>
<path style=" stroke:none;fill-rule:nonzero;fill:rgb(20.392157%,65.882353%,32.54902%);fill-opacity:1;" d="M 274.855469 100.867188 L 276.128906 88.253906 L 297.675781 90.429688 L 296.402344 103.042969 Z M 274.855469 100.867188 "/>
<path style=" stroke:none;fill-rule:nonzero;fill:rgb(20.392157%,65.882353%,32.54902%);fill-opacity:1;" d="M 303.234375 103.730469 L 304.507812 91.121094 L 326.050781 93.296875 L 324.777344 105.90625 Z M 303.234375 103.730469 "/>
<path style=" stroke:none;fill-rule:nonzero;fill:rgb(20.392157%,65.882353%,32.54902%);fill-opacity:1;" d="M 272.917969 120.046875 L 274.191406 107.433594 L 295.738281 109.609375 L 294.464844 122.222656 Z M 272.917969 120.046875 "/>
<path style=" stroke:none;fill-rule:nonzero;fill:rgb(20.392157%,65.882353%,32.54902%);fill-opacity:1;" d="M 301.296875 122.910156 L 302.570312 110.300781 L 324.113281 112.476562 L 322.839844 125.085938 Z M 301.296875 122.910156 "/>
<path style="fill:none;stroke-width:8.5;stroke-linecap:square;stroke-linejoin:miter;stroke:rgb(0%,0%,0%);stroke-opacity:0.501961;stroke-miterlimit:10;" d="M 128.246094 228.162239 L 128.339844 222.226693 C 128.339844 221.816536 128.759766 221.547005 129.601562 221.416146 C 130.449219 221.285286 131.148438 221.220833 131.699219 221.220833 L 133.40625 221.347786 C 134.507812 221.523568 135.060547 221.832161 135.060547 222.269661 L 134.888672 235.929818 C 134.302734 236.339974 133.128906 236.740364 131.367188 237.132943 C 129.611328 237.525521 127.595703 237.720833 125.320312 237.720833 C 121.103516 237.720833 117.697266 236.353646 115.105469 233.619271 C 112.517578 230.884896 111.224609 226.869271 111.224609 221.570443 C 111.224609 217.056771 112.490234 213.388802 115.019531 210.568489 C 117.548828 207.744271 121.056641 206.332161 125.542969 206.332161 C 127.578125 206.332161 129.417969 206.527474 131.060547 206.920052 C 132.708984 207.31263 133.837891 207.84388 134.445312 208.513802 C 134.480469 208.748177 134.496094 209.185677 134.496094 209.828255 C 134.496094 210.464974 134.277344 211.373177 133.839844 212.556771 C 133.402344 213.732552 132.904297 214.613411 132.347656 215.199349 C 131.796875 215.779427 131.396484 216.070443 131.146484 216.070443 C 130.900391 216.070443 130.638672 215.961068 130.361328 215.746224 C 130.087891 215.523568 129.542969 215.291146 128.724609 215.047005 C 127.910156 214.797005 127.126953 214.672005 126.371094 214.672005 C 124.568359 214.672005 123.107422 215.254036 121.986328 216.420052 C 120.867188 217.578255 120.306641 219.384896 120.306641 221.834114 C 120.306641 224.279427 120.880859 226.134896 122.029297 227.402474 C 123.177734 228.664193 124.5 229.295052 125.994141 229.295052 C 127.496094 229.295052 128.246094 228.918099 128.246094 228.162239 Z M 140.888672 234.711068 C 139.068359 232.703255 138.160156 229.923958 138.160156 226.371224 C 138.160156 222.818489 139.068359 220.037239 140.888672 218.03138 C 142.707031 216.023568 145.160156 215.021614 148.248047 215.021614 C 151.333984 215.021614 153.779297 216.023568 155.582031 218.03138 C 157.382812 220.037239 158.285156 222.818489 158.285156 226.371224 C 158.285156 229.923958 157.382812 232.703255 155.582031 234.711068 C 153.779297 236.716927 151.333984 237.720833 148.248047 237.720833 C 145.160156 237.720833 142.707031 236.716927 140.888672 234.711068 Z M 148.265625 221.31263 C 146.621094 221.31263 145.800781 223.650521 145.800781 226.328255 C 145.800781 229.005989 146.621094 230.34388 148.265625 230.34388 C 149.914062 230.34388 150.738281 229.005989 150.738281 226.328255 C 150.738281 223.650521 149.914062 221.31263 148.265625 221.31263 Z M 163.287109 234.711068 C 161.466797 232.703255 160.558594 229.923958 160.558594 226.371224 C 160.558594 222.818489 161.466797 220.037239 163.287109 218.03138 C 165.105469 216.023568 167.558594 215.021614 170.646484 215.021614 C 173.732422 215.021614 176.177734 216.023568 177.980469 218.03138 C 179.78125 220.037239 180.683594 222.818489 180.683594 226.371224 C 180.683594 229.923958 179.78125 232.703255 177.980469 234.711068 C 176.177734 236.716927 173.732422 237.720833 170.646484 237.720833 C 167.558594 237.720833 165.105469 236.716927 163.287109 234.711068 Z M 170.662109 220.711068 C 169.019531 220.711068 168.199219 223.650521 168.199219 226.328255 C 168.199219 229.005989 169.019531 230.34388 170.662109 230.34388 C 172.3125 230.34388 173.136719 229.005989 173.136719 226.328255 C 173.136719 223.650521 172.3125 220.711068 170.662109 220.711068 Z M 191.816406 237.287239 C 188.996094 237.287239 186.8125 236.377083 185.267578 234.556771 C 183.726562 232.738411 182.955078 230.047005 182.955078 226.482552 C 182.955078 222.918099 183.96875 220.123177 185.992188 218.099739 C 188.015625 216.076302 190.707031 215.06263 194.068359 215.06263 C 197.433594 215.06263 200.207031 215.804818 202.390625 217.289193 L 202.390625 239.035286 C 202.390625 241.189583 201.515625 242.839974 199.763672 243.988411 C 198.019531 245.136849 195.779297 245.711068 193.044922 245.711068 C 190.310547 245.711068 187.865234 245.361458 185.710938 244.662239 C 185.414062 243.963021 185.267578 243.338021 185.267578 242.787239 C 185.267578 240.922005 185.574219 239.554818 186.1875 238.685677 C 188.138672 239.525521 190.21875 239.947396 192.429688 239.947396 C 194.033203 239.947396 194.833984 239.380989 194.833984 238.25013 L 194.833984 236.93763 C 193.583984 237.170052 192.578125 237.287239 191.816406 237.287239 Z M 193.828125 222.175911 C 191.878906 222.175911 190.904297 223.648568 190.904297 226.591927 C 190.904297 228.423958 191.28125 229.613411 192.037109 230.166146 C 192.533203 230.547005 193.027344 230.736458 193.521484 230.736458 C 194.015625 230.736458 194.453125 230.695443 194.833984 230.609505 L 194.833984 222.31263 C 194.482422 222.220833 194.146484 222.175911 193.828125 222.175911 Z M 214.259766 236.93763 C 214.259766 237.197396 212.775391 237.328255 209.808594 237.328255 C 207.478516 237.300911 206.3125 237.183724 206.3125 236.978646 L 206.3125 207.244271 C 206.3125 206.810677 207.724609 206.595833 210.550781 206.595833 C 213.023438 206.681771 214.259766 206.826302 214.259766 207.03138 Z M 234.697266 236.109505 C 232.861328 237.183724 230.501953 237.720833 227.619141 237.720833 C 224.738281 237.720833 222.306641 236.740364 220.328125 234.779427 C 218.349609 232.81263 217.361328 230.089974 217.361328 226.609505 C 217.361328 223.130989 218.3125 220.330208 220.21875 218.211068 C 222.128906 216.084114 224.539062 215.021614 227.449219 215.021614 C 230.359375 215.021614 232.607422 215.761849 234.195312 217.246224 C 235.78125 218.730599 236.574219 220.535286 236.574219 222.662239 C 236.574219 227.37513 233.867188 229.730599 228.455078 229.730599 L 225.4375 229.730599 C 225.4375 230.605599 225.675781 231.211068 226.152344 231.547005 C 226.636719 231.882943 227.34375 232.050911 228.275391 232.050911 C 230.316406 232.050911 232.253906 231.584114 234.083984 230.652474 C 234.111328 230.623177 234.242188 230.824349 234.476562 231.257943 C 235.175781 232.513802 235.525391 233.570443 235.525391 234.429818 C 235.525391 235.287239 235.25 235.847786 234.697266 236.109505 Z M 229.240234 223.488411 C 229.240234 222.265755 228.642578 221.654427 227.449219 221.654427 C 226.898438 221.654427 226.423828 221.822396 226.025391 222.158333 C 225.632812 222.494271 225.4375 222.980599 225.4375 223.617318 L 225.4375 224.972786 L 227.798828 224.972786 C 228.759766 224.972786 229.240234 224.478646 229.240234 223.488411 Z M 248.972656 226.634896 C 249.523438 227.072396 250.474609 227.670052 251.828125 228.425911 C 253.1875 229.181771 254.484375 229.560677 255.716797 229.560677 C 256.957031 229.560677 257.576172 229.080208 257.576172 228.119271 C 257.576172 227.681771 257.400391 227.295052 257.046875 226.959114 C 256.701172 226.623177 256.060547 226.240364 255.128906 225.808724 C 254.197266 225.371224 253.496094 225.029427 253.03125 224.785286 C 252.564453 224.535286 251.945312 224.12513 251.171875 223.556771 C 250.404297 222.988411 249.816406 222.396614 249.40625 221.783333 C 248.246094 220.129036 247.667969 218.019661 247.667969 215.455208 C 247.667969 212.890755 248.619141 210.730599 250.523438 208.974739 C 252.427734 207.213021 254.923828 206.330208 258.011719 206.330208 C 260.109375 206.330208 262.044922 206.558724 263.818359 207.013802 C 265.591797 207.463021 266.507812 208.050911 266.564453 208.779427 C 266.564453 208.863411 266.564453 208.949349 266.564453 209.035286 C 266.564453 210.056771 266.242188 211.347786 265.599609 212.90638 C 264.962891 214.457161 264.515625 215.322396 264.253906 215.498177 C 262.388672 214.537239 260.720703 214.056771 259.248047 214.056771 C 257.78125 214.056771 257.046875 214.580208 257.046875 215.627083 C 257.046875 216.267708 257.587891 216.838021 258.667969 217.332161 C 258.900391 217.451302 259.232422 217.613411 259.666016 217.818489 C 260.103516 218.017708 260.605469 218.255989 261.173828 218.533333 C 261.744141 218.81263 262.353516 219.162239 263.007812 219.582161 C 263.662109 220.004036 264.369141 220.564583 265.130859 221.263802 C 266.671875 222.71888 267.443359 224.640755 267.443359 227.027474 C 267.443359 230.142708 266.583984 232.689583 264.867188 234.668099 C 263.150391 236.646614 260.501953 237.664193 256.919922 237.720833 C 255.173828 237.720833 253.59375 237.576302 252.177734 237.287239 C 250.767578 236.996224 249.537109 236.429818 248.486328 235.589974 C 247.439453 234.742318 246.916016 233.720833 246.916016 232.527474 C 246.916016 231.334114 247.134766 230.148568 247.572266 228.972786 C 248.011719 227.789193 248.476562 227.009896 248.972656 226.634896 Z M 278.091797 236.978646 C 278.091797 237.240364 276.875 237.371224 274.441406 237.371224 C 272.013672 237.371224 270.800781 237.170052 270.800781 236.765755 L 270.800781 206.851693 C 270.800781 206.652474 271.251953 206.509896 272.15625 206.425911 C 273.060547 206.334114 273.816406 206.289193 274.423828 206.289193 C 276.869141 206.289193 278.091797 206.550911 278.091797 207.072396 L 278.091797 215.804818 C 279.722656 215.310677 280.962891 215.06263 281.808594 215.06263 C 284.021484 215.06263 285.765625 215.654427 287.044922 216.838021 C 288.324219 218.013802 288.962891 220.203255 288.962891 223.402474 L 288.962891 236.93763 C 288.962891 237.197396 287.830078 237.328255 285.560547 237.328255 C 282.998047 237.244271 281.714844 237.097786 281.714844 236.894661 L 281.714844 224.060677 C 281.714844 222.632943 281.251953 221.920052 280.326172 221.920052 C 279.683594 221.920052 278.9375 222.224739 278.091797 222.832161 Z M 309.183594 236.109505 C 307.347656 237.183724 304.988281 237.720833 302.105469 237.720833 C 299.222656 237.720833 296.792969 236.740364 294.814453 234.779427 C 292.835938 232.81263 291.847656 230.089974 291.847656 226.609505 C 291.847656 223.130989 292.798828 220.330208 294.703125 218.211068 C 296.613281 216.084114 299.025391 215.021614 301.935547 215.021614 C 304.845703 215.021614 307.09375 215.761849 308.679688 217.246224 C 310.267578 218.730599 311.060547 220.535286 311.060547 222.662239 C 311.060547 227.37513 308.353516 229.730599 302.941406 229.730599 L 299.921875 229.730599 C 299.921875 230.605599 300.162109 231.211068 300.638672 231.547005 C 301.123047 231.882943 301.830078 232.050911 302.761719 232.050911 C 304.802734 232.050911 306.738281 231.584114 308.570312 230.652474 C 308.597656 230.623177 308.728516 230.824349 308.960938 231.257943 C 309.662109 232.513802 310.011719 233.570443 310.011719 234.429818 C 310.011719 235.287239 309.734375 235.847786 309.183594 236.109505 Z M 303.726562 223.488411 C 303.726562 222.265755 303.128906 221.654427 301.935547 221.654427 C 301.382812 221.654427 300.908203 221.822396 300.511719 222.158333 C 300.119141 222.494271 299.921875 222.980599 299.921875 223.617318 L 299.921875 224.972786 L 302.285156 224.972786 C 303.246094 224.972786 303.726562 224.478646 303.726562 223.488411 Z M 330.402344 236.109505 C 328.566406 237.183724 326.207031 237.720833 323.324219 237.720833 C 320.443359 237.720833 318.011719 236.740364 316.033203 234.779427 C 314.054688 232.81263 313.066406 230.089974 313.066406 226.609505 C 313.066406 223.130989 314.019531 220.330208 315.923828 218.211068 C 317.833984 216.084114 320.244141 215.021614 323.154297 215.021614 C 326.064453 215.021614 328.314453 215.761849 329.900391 217.246224 C 331.486328 218.730599 332.279297 220.535286 332.279297 222.662239 C 332.279297 227.37513 329.572266 229.730599 324.160156 229.730599 L 321.142578 229.730599 C 321.142578 230.605599 321.380859 231.211068 321.857422 231.547005 C 322.341797 231.882943 323.048828 232.050911 323.982422 232.050911 C 326.023438 232.050911 327.958984 231.584114 329.789062 230.652474 C 329.818359 230.623177 329.947266 230.824349 330.181641 231.257943 C 330.880859 232.513802 331.230469 233.570443 331.230469 234.429818 C 331.230469 235.287239 330.955078 235.847786 330.402344 236.109505 Z M 324.945312 223.488411 C 324.945312 222.265755 324.347656 221.654427 323.154297 221.654427 C 322.603516 221.654427 322.128906 221.822396 321.730469 222.158333 C 321.337891 222.494271 321.142578 222.980599 321.142578 223.617318 L 321.142578 224.972786 L 323.503906 224.972786 C 324.464844 224.972786 324.945312 224.478646 324.945312 223.488411 Z M 345.158203 237.021614 C 345.158203 237.37513 343.935547 237.550911 341.492188 237.550911 C 338.580078 237.431771 337.125 237.240364 337.125 236.978646 L 337.125 221.527474 L 334.900391 221.527474 C 334.314453 221.527474 334.021484 220.521614 334.021484 218.507943 C 334.021484 217.986458 334.072266 217.345833 334.175781 216.589974 C 334.277344 215.834114 334.490234 215.455208 334.814453 215.455208 L 337.125 215.455208 L 337.125 211.609505 C 337.125 211.029427 338.353516 210.740364 340.808594 210.740364 C 343.271484 210.740364 344.501953 210.972786 344.501953 211.439583 L 344.501953 214.236458 L 344.544922 215.455208 L 348.261719 215.455208 C 348.757812 215.455208 349.003906 216.476693 349.003906 218.517708 C 349.003906 220.552864 348.757812 221.570443 348.261719 221.570443 L 345.158203 221.570443 Z M 352.101562 229.423958 C 354.460938 230.851693 356.322266 231.564583 357.6875 231.564583 C 358.5625 231.564583 359 231.259896 359 230.652474 C 359 230.214974 358.244141 229.644661 356.732422 228.945443 C 353.09375 227.463021 351.273438 225.03138 351.273438 221.654427 C 351.273438 219.50013 352.058594 217.857552 353.626953 216.726693 C 355.203125 215.589974 357.087891 215.021614 359.28125 215.021614 C 361.482422 215.021614 363.34375 215.254036 364.867188 215.720833 C 366.396484 216.185677 367.160156 216.797005 367.160156 217.552864 C 367.160156 218.189583 366.847656 219.035286 366.222656 220.086068 C 365.597656 221.132943 365.167969 221.697396 364.935547 221.783333 C 363.683594 221.089974 362.332031 220.742318 360.876953 220.742318 C 360.091797 220.742318 359.699219 221.017708 359.699219 221.570443 C 359.699219 221.916146 359.849609 222.214974 360.150391 222.464974 C 360.458984 222.709114 361.017578 223.013802 361.832031 223.377083 C 362.650391 223.742318 363.326172 224.070443 363.861328 224.367318 C 364.400391 224.65638 365.005859 225.06263 365.677734 225.586068 C 367.076172 226.689583 367.775391 228.130989 367.775391 229.910286 C 367.775391 232.234505 367.001953 234.119271 365.455078 235.564583 C 363.914062 237.002083 361.585938 237.720833 358.470703 237.720833 C 356.408203 237.720833 354.53125 237.371224 352.84375 236.672005 C 351.154297 235.972786 350.310547 235.011849 350.310547 233.789193 C 350.310547 232.976693 350.505859 232.121224 350.898438 231.222786 C 351.291016 230.318489 351.691406 229.71888 352.101562 229.423958 Z M 352.101562 229.423958 " transform="matrix(2,0,0,2,-180,-210.00026)"/>
<path style=" stroke:none;fill-rule:nonzero;fill:rgb(100%,100%,100%);fill-opacity:1;" d="M 76.492188 246.324219 L 76.679688 234.453125 C 76.679688 233.632812 77.519531 233.09375 79.203125 232.832031 C 80.898438 232.570312 82.296875 232.441406 83.398438 232.441406 L 86.8125 232.695312 C 89.015625 233.046875 90.121094 233.664062 90.121094 234.539062 L 89.777344 261.859375 C 88.605469 262.679688 86.257812 263.480469 82.734375 264.265625 C 79.222656 265.050781 75.191406 265.441406 70.640625 265.441406 C 62.207031 265.441406 55.394531 262.707031 50.210938 257.238281 C 45.035156 251.769531 42.449219 243.738281 42.449219 233.140625 C 42.449219 224.113281 44.980469 216.777344 50.039062 211.136719 C 55.097656 205.488281 62.113281 202.660156 71.085938 202.660156 C 75.15625 202.660156 78.835938 203.054688 82.121094 203.839844 C 85.417969 204.625 87.675781 205.6875 88.890625 207.027344 C 88.960938 207.496094 88.992188 208.371094 88.992188 209.65625 C 88.992188 210.929688 88.554688 212.746094 87.679688 215.113281 C 86.804688 217.464844 85.808594 219.226562 84.695312 220.398438 C 83.59375 221.558594 82.792969 222.140625 82.292969 222.140625 C 81.800781 222.140625 81.277344 221.921875 80.722656 221.492188 C 80.175781 221.046875 79.085938 220.582031 77.449219 220.09375 C 75.820312 219.59375 74.253906 219.34375 72.742188 219.34375 C 69.136719 219.34375 66.214844 220.507812 63.972656 222.839844 C 61.734375 225.15625 60.613281 228.769531 60.613281 233.667969 C 60.613281 238.558594 61.761719 242.269531 64.058594 244.804688 C 66.355469 247.328125 69 248.589844 71.988281 248.589844 C 74.992188 248.589844 76.492188 247.835938 76.492188 246.324219 Z M 101.777344 259.421875 C 98.136719 255.40625 96.320312 249.847656 96.320312 242.742188 C 96.320312 235.636719 98.136719 230.074219 101.777344 226.0625 C 105.414062 222.046875 110.320312 220.042969 116.496094 220.042969 C 122.667969 220.042969 127.558594 222.046875 131.164062 226.0625 C 134.765625 230.074219 136.570312 235.636719 136.570312 242.742188 C 136.570312 249.847656 134.765625 255.40625 131.164062 259.421875 C 127.558594 263.433594 122.667969 265.441406 116.496094 265.441406 C 110.320312 265.441406 105.414062 263.433594 101.777344 259.421875 Z M 116.53125 234.625 C 113.242188 234.625 111.601562 237.300781 111.601562 242.65625 C 111.601562 248.011719 113.242188 250.6875 116.53125 250.6875 C 119.828125 250.6875 121.476562 248.011719 121.476562 242.65625 C 121.476562 237.300781 119.828125 234.625 116.53125 234.625 Z M 146.574219 259.421875 C 142.933594 255.40625 141.117188 249.847656 141.117188 242.742188 C 141.117188 235.636719 142.933594 230.074219 146.574219 226.0625 C 150.210938 222.046875 155.117188 220.042969 161.292969 220.042969 C 167.464844 220.042969 172.355469 222.046875 175.960938 226.0625 C 179.5625 230.074219 181.367188 235.636719 181.367188 242.742188 C 181.367188 249.847656 179.5625 255.40625 175.960938 259.421875 C 172.355469 263.433594 167.464844 265.441406 161.292969 265.441406 C 155.117188 265.441406 150.210938 263.433594 146.574219 259.421875 Z M 161.324219 234.625 C 158.039062 234.625 156.398438 237.300781 156.398438 242.65625 C 156.398438 248.011719 158.039062 250.6875 161.324219 250.6875 C 164.625 250.6875 166.273438 248.011719 166.273438 242.65625 C 166.273438 237.300781 164.625 234.625 161.324219 234.625 Z M 203.632812 264.574219 C 197.992188 264.574219 193.625 262.753906 190.535156 259.113281 C 187.453125 255.476562 185.910156 250.09375 185.910156 242.964844 C 185.910156 235.835938 187.9375 230.246094 191.984375 226.199219 C 196.03125 222.152344 201.414062 220.125 208.136719 220.125 C 214.867188 220.125 220.414062 221.609375 224.78125 224.578125 L 224.78125 268.070312 C 224.78125 272.378906 223.03125 275.679688 219.527344 277.976562 C 216.039062 280.273438 211.558594 281.421875 206.089844 281.421875 C 200.621094 281.421875 195.730469 280.722656 191.421875 279.324219 C 190.828125 277.925781 190.535156 276.675781 190.535156 275.574219 C 190.535156 271.84375 191.148438 269.109375 192.375 267.371094 C 196.277344 269.050781 200.4375 269.894531 204.859375 269.894531 C 208.066406 269.894531 209.667969 268.761719 209.667969 266.5 L 209.667969 263.875 C 207.167969 264.339844 205.15625 264.574219 203.632812 264.574219 Z M 207.65625 234.351562 C 203.757812 234.351562 201.808594 237.296875 201.808594 243.183594 C 201.808594 246.847656 202.5625 249.226562 204.074219 250.332031 C 205.066406 251.09375 206.054688 251.472656 207.042969 251.472656 C 208.03125 251.472656 208.90625 251.390625 209.667969 251.21875 L 209.667969 234.625 C 208.964844 234.441406 208.292969 234.351562 207.65625 234.351562 Z M 248.519531 263.875 C 248.519531 264.394531 245.550781 264.65625 239.617188 264.65625 C 234.957031 264.601562 232.625 264.367188 232.625 263.957031 L 232.625 204.488281 C 232.625 203.621094 235.449219 203.191406 241.101562 203.191406 C 246.046875 203.363281 248.519531 203.652344 248.519531 204.0625 Z M 289.394531 262.21875 C 285.722656 264.367188 281.003906 265.441406 275.238281 265.441406 C 269.476562 265.441406 264.613281 263.480469 260.65625 259.558594 C 256.699219 255.625 254.722656 250.179688 254.722656 243.21875 C 254.722656 236.261719 256.625 230.660156 260.4375 226.417969 C 264.257812 222.167969 269.078125 220.042969 274.898438 220.042969 C 280.71875 220.042969 285.214844 221.523438 288.390625 224.492188 C 291.5625 227.460938 293.148438 231.070312 293.148438 235.324219 C 293.148438 244.75 287.734375 249.460938 276.910156 249.460938 L 270.875 249.460938 C 270.875 251.210938 271.351562 252.421875 272.304688 253.09375 C 273.273438 253.765625 274.6875 254.101562 276.554688 254.101562 C 280.632812 254.101562 284.507812 253.167969 288.167969 251.304688 C 288.222656 251.246094 288.484375 251.648438 288.953125 252.515625 C 290.351562 255.027344 291.050781 257.140625 291.050781 258.859375 C 291.050781 260.574219 290.5 261.695312 289.394531 262.21875 Z M 278.480469 236.976562 C 278.480469 234.53125 277.285156 233.308594 274.898438 233.308594 C 273.796875 233.308594 272.847656 233.644531 272.050781 234.316406 C 271.265625 234.988281 270.875 235.960938 270.875 237.234375 L 270.875 239.945312 L 275.597656 239.945312 C 277.519531 239.945312 278.480469 238.957031 278.480469 236.976562 Z M 317.945312 243.269531 C 319.046875 244.144531 320.949219 245.339844 323.65625 246.851562 C 326.375 248.363281 328.96875 249.121094 331.433594 249.121094 C 333.914062 249.121094 335.152344 248.160156 335.152344 246.238281 C 335.152344 245.363281 334.800781 244.589844 334.09375 243.917969 C 333.402344 243.246094 332.121094 242.480469 330.257812 241.617188 C 328.394531 240.742188 326.992188 240.058594 326.0625 239.570312 C 325.128906 239.070312 323.890625 238.25 322.34375 237.113281 C 320.808594 235.976562 319.632812 234.792969 318.8125 233.566406 C 316.492188 230.257812 315.335938 226.039062 315.335938 220.910156 C 315.335938 215.785156 317.238281 211.460938 321.046875 207.949219 C 324.855469 204.425781 329.847656 202.664062 336.023438 202.664062 C 340.21875 202.664062 344.089844 203.117188 347.636719 204.027344 C 351.183594 204.925781 353.015625 206.101562 353.128906 207.558594 C 353.128906 207.726562 353.128906 207.898438 353.128906 208.070312 C 353.128906 210.117188 352.484375 212.695312 351.199219 215.8125 C 349.925781 218.914062 349.03125 220.644531 348.507812 220.996094 C 344.777344 219.074219 341.441406 218.113281 338.496094 218.113281 C 335.5625 218.113281 334.09375 219.160156 334.09375 221.253906 C 334.09375 222.535156 335.175781 223.675781 337.335938 224.664062 C 337.800781 224.902344 338.464844 225.226562 339.332031 225.636719 C 340.207031 226.035156 341.210938 226.511719 342.347656 227.066406 C 343.488281 227.625 344.707031 228.324219 346.015625 229.164062 C 347.324219 230.007812 348.738281 231.128906 350.261719 232.527344 C 353.34375 235.4375 354.886719 239.28125 354.886719 244.054688 C 354.886719 250.285156 353.167969 255.378906 349.734375 259.335938 C 346.300781 263.292969 341.003906 265.328125 333.839844 265.441406 C 330.347656 265.441406 327.1875 265.152344 324.355469 264.574219 C 321.535156 263.992188 319.074219 262.859375 316.972656 261.179688 C 314.878906 259.484375 313.832031 257.445312 313.832031 255.054688 C 313.832031 252.667969 314.269531 250.296875 315.144531 247.945312 C 316.023438 245.578125 316.953125 244.019531 317.945312 243.269531 Z M 376.183594 263.957031 C 376.183594 264.480469 373.75 264.742188 368.882812 264.742188 C 364.027344 264.742188 361.601562 264.339844 361.601562 263.53125 L 361.601562 203.703125 C 361.601562 203.304688 362.503906 203.019531 364.3125 202.851562 C 366.121094 202.667969 367.632812 202.578125 368.847656 202.578125 C 373.738281 202.578125 376.183594 203.101562 376.183594 204.144531 L 376.183594 221.609375 C 379.445312 220.621094 381.925781 220.125 383.617188 220.125 C 388.042969 220.125 391.53125 221.308594 394.089844 223.675781 C 396.648438 226.027344 397.925781 230.40625 397.925781 236.804688 L 397.925781 263.875 C 397.925781 264.394531 395.660156 264.65625 391.121094 264.65625 C 385.996094 264.488281 383.429688 264.195312 383.429688 263.789062 L 383.429688 238.121094 C 383.429688 235.265625 382.503906 233.839844 380.652344 233.839844 C 379.367188 233.839844 377.875 234.449219 376.183594 235.664062 Z M 438.367188 262.21875 C 434.695312 264.367188 429.976562 265.441406 424.210938 265.441406 C 418.445312 265.441406 413.585938 263.480469 409.628906 259.558594 C 405.671875 255.625 403.695312 250.179688 403.695312 243.21875 C 403.695312 236.261719 405.597656 230.660156 409.40625 226.417969 C 413.226562 222.167969 418.050781 220.042969 423.871094 220.042969 C 429.691406 220.042969 434.1875 221.523438 437.359375 224.492188 C 440.535156 227.460938 442.121094 231.070312 442.121094 235.324219 C 442.121094 244.75 436.707031 249.460938 425.882812 249.460938 L 419.84375 249.460938 C 419.84375 251.210938 420.324219 252.421875 421.277344 253.09375 C 422.246094 253.765625 423.660156 254.101562 425.523438 254.101562 C 429.605469 254.101562 433.476562 253.167969 437.140625 251.304688 C 437.195312 251.246094 437.457031 251.648438 437.921875 252.515625 C 439.324219 255.027344 440.023438 257.140625 440.023438 258.859375 C 440.023438 260.574219 439.46875 261.695312 438.367188 262.21875 Z M 427.453125 236.976562 C 427.453125 234.53125 426.257812 233.308594 423.871094 233.308594 C 422.765625 233.308594 421.816406 233.644531 421.023438 234.316406 C 420.238281 234.988281 419.84375 235.960938 419.84375 237.234375 L 419.84375 239.945312 L 424.570312 239.945312 C 426.492188 239.945312 427.453125 238.957031 427.453125 236.976562 Z M 480.804688 262.21875 C 477.132812 264.367188 472.414062 265.441406 466.648438 265.441406 C 460.886719 265.441406 456.023438 263.480469 452.066406 259.558594 C 448.109375 255.625 446.132812 250.179688 446.132812 243.21875 C 446.132812 236.261719 448.039062 230.660156 451.847656 226.417969 C 455.667969 222.167969 460.488281 220.042969 466.308594 220.042969 C 472.128906 220.042969 476.628906 221.523438 479.800781 224.492188 C 482.972656 227.460938 484.558594 231.070312 484.558594 235.324219 C 484.558594 244.75 479.144531 249.460938 468.320312 249.460938 L 462.285156 249.460938 C 462.285156 251.210938 462.761719 252.421875 463.714844 253.09375 C 464.683594 253.765625 466.097656 254.101562 467.964844 254.101562 C 472.046875 254.101562 475.917969 253.167969 479.578125 251.304688 C 479.636719 251.246094 479.894531 251.648438 480.363281 252.515625 C 481.761719 255.027344 482.460938 257.140625 482.460938 258.859375 C 482.460938 260.574219 481.910156 261.695312 480.804688 262.21875 Z M 469.890625 236.976562 C 469.890625 234.53125 468.695312 233.308594 466.308594 233.308594 C 465.207031 233.308594 464.257812 233.644531 463.460938 234.316406 C 462.675781 234.988281 462.285156 235.960938 462.285156 237.234375 L 462.285156 239.945312 L 467.007812 239.945312 C 468.929688 239.945312 469.890625 238.957031 469.890625 236.976562 Z M 510.316406 264.042969 C 510.316406 264.75 507.871094 265.101562 502.984375 265.101562 C 497.160156 264.863281 494.25 264.480469 494.25 263.957031 L 494.25 233.054688 L 489.800781 233.054688 C 488.628906 233.054688 488.042969 231.042969 488.042969 227.015625 C 488.042969 225.972656 488.144531 224.691406 488.351562 223.179688 C 488.554688 221.667969 488.980469 220.910156 489.628906 220.910156 L 494.25 220.910156 L 494.25 213.21875 C 494.25 212.058594 496.707031 211.480469 501.617188 211.480469 C 506.542969 211.480469 509.003906 211.945312 509.003906 212.878906 L 509.003906 218.472656 L 509.089844 220.910156 L 516.523438 220.910156 C 517.515625 220.910156 518.007812 222.953125 518.007812 227.035156 C 518.007812 231.105469 517.515625 233.140625 516.523438 233.140625 L 510.316406 233.140625 Z M 524.203125 248.847656 C 528.921875 251.703125 532.644531 253.128906 535.375 253.128906 C 537.125 253.128906 538 252.519531 538 251.304688 C 538 250.429688 536.488281 249.289062 533.464844 247.890625 C 526.1875 244.925781 522.546875 240.0625 522.546875 233.308594 C 522.546875 229 524.117188 225.714844 527.253906 223.453125 C 530.40625 221.179688 534.175781 220.042969 538.5625 220.042969 C 542.964844 220.042969 546.6875 220.507812 549.734375 221.441406 C 552.792969 222.371094 554.320312 223.59375 554.320312 225.105469 C 554.320312 226.378906 553.695312 228.070312 552.445312 230.171875 C 551.195312 232.265625 550.335938 233.394531 549.871094 233.566406 C 547.367188 232.179688 544.664062 231.484375 541.753906 231.484375 C 540.183594 231.484375 539.398438 232.035156 539.398438 233.140625 C 539.398438 233.832031 539.699219 234.429688 540.300781 234.929688 C 540.917969 235.417969 542.035156 236.027344 543.664062 236.753906 C 545.300781 237.484375 546.652344 238.140625 547.722656 238.734375 C 548.800781 239.3125 550.011719 240.125 551.355469 241.171875 C 554.152344 243.378906 555.550781 246.261719 555.550781 249.820312 C 555.550781 254.46875 554.003906 258.238281 550.910156 261.128906 C 547.828125 264.003906 543.171875 265.441406 536.941406 265.441406 C 532.816406 265.441406 529.0625 264.742188 525.6875 263.34375 C 522.308594 261.945312 520.621094 260.023438 520.621094 257.578125 C 520.621094 255.953125 521.011719 254.242188 521.796875 252.445312 C 522.582031 250.636719 523.382812 249.4375 524.203125 248.847656 Z M 524.203125 248.847656 "/>
</g>
</svg>
