<?xml version="1.0" encoding="UTF-8"?>
<svg xmlns="http://www.w3.org/2000/svg" xmlns:xlink="http://www.w3.org/1999/xlink" width="600px" height="300px" viewBox="0 0 600 300" version="1.1">
<g id="surface1">
<path style=" stroke:none;fill-rule:nonzero;fill:rgb(20.392157%,65.882353%,32.54902%);fill-opacity:1;" d="M 0 300 L 0 0 L 598.007812 0 L 598.007812 300 Z M 0 300 "/>
<path style="fill-rule:nonzero;fill:rgb(10.588235%,55.294118%,23.921569%);fill-opacity:1;stroke-width:1.5;stroke-linecap:butt;stroke-linejoin:miter;stroke:rgb(10.588235%,55.294118%,23.921569%);stroke-opacity:1;stroke-miterlimit:10;" d="M 383.412292 118.816496 L 383.412292 241.18759 C 383.412292 243.755949 381.658418 245.904387 379.289219 246.552824 L 379.289219 246.636809 L 379.01291 246.636809 C 378.630781 246.722746 378.234935 246.771574 377.827331 246.771574 L 101.173841 246.771574 C 100.764277 246.771574 100.368431 246.720793 99.984342 246.636809 L 97.981595 246.636809 L 97.981595 245.757903 C 96.537344 244.744231 95.58888 243.078215 95.58888 241.185637 L 95.58888 118.814543 C 95.58888 115.736418 98.091335 113.228606 101.173841 113.228606 L 377.823411 113.228606 C 380.905918 113.228606 383.412292 115.736418 383.412292 118.816496 Z M 377.823411 118.015715 L 319.798607 118.015715 L 319.798607 134.910246 L 378.624902 134.910246 L 378.624902 118.816496 C 378.624902 118.37509 378.266289 118.017668 377.823411 118.015715 Z M 378.622943 241.185637 L 378.622943 226.68759 L 319.798607 226.68759 L 319.798607 241.849699 L 378.238854 241.849699 C 378.464212 241.711028 378.624902 241.470793 378.622943 241.185637 Z M 100.758398 241.849699 L 172.886699 241.849699 L 172.886699 226.68759 L 100.37431 226.68759 L 100.37431 241.185637 C 100.37431 241.470793 100.53304 241.711028 100.758398 241.849699 Z M 177.674089 184.789153 L 177.674089 201.388762 L 245.355977 201.388762 L 245.355977 184.789153 Z M 245.355977 180.00009 L 245.355977 162.043059 L 177.674089 162.043059 L 177.674089 180.00009 Z M 177.674089 206.177824 L 177.674089 221.898528 L 245.355977 221.898528 L 245.355977 206.177824 Z M 177.674089 226.68759 L 177.674089 241.849699 L 245.355977 241.849699 L 245.355977 226.68759 Z M 250.145326 241.849699 L 315.011217 241.849699 L 315.011217 226.68759 L 250.145326 226.68759 Z M 315.011217 221.898528 L 315.011217 206.175871 L 250.145326 206.175871 L 250.145326 221.898528 Z M 315.011217 201.388762 L 315.011217 184.789153 L 250.145326 184.789153 L 250.145326 201.388762 Z M 315.011217 180.00009 L 315.011217 162.043059 L 250.145326 162.043059 L 250.145326 180.00009 Z M 315.011217 157.255949 L 315.011217 139.697356 L 250.145326 139.697356 L 250.145326 157.255949 Z M 315.011217 134.910246 L 315.011217 118.015715 L 250.145326 118.015715 L 250.145326 134.910246 Z M 245.355977 134.910246 L 245.355977 118.015715 L 177.674089 118.015715 L 177.674089 134.910246 Z M 177.674089 139.697356 L 177.674089 157.255949 L 245.355977 157.255949 L 245.355977 139.697356 Z M 172.886699 139.697356 L 100.37431 139.697356 L 100.37431 157.255949 L 172.886699 157.255949 Z M 100.37431 162.043059 L 100.37431 180.00009 L 172.886699 180.00009 L 172.886699 162.043059 Z M 100.37431 184.789153 L 100.37431 201.388762 L 172.886699 201.388762 L 172.886699 184.789153 Z M 100.37431 206.177824 L 100.37431 221.898528 L 172.886699 221.898528 L 172.886699 206.177824 Z M 378.622943 221.898528 L 378.622943 206.175871 L 319.798607 206.175871 L 319.798607 221.898528 Z M 378.622943 201.388762 L 378.622943 184.789153 L 319.798607 184.789153 L 319.798607 201.388762 Z M 378.622943 180.00009 L 378.622943 162.043059 L 319.798607 162.043059 L 319.798607 180.00009 Z M 378.622943 157.255949 L 378.622943 139.697356 L 319.798607 139.697356 L 319.798607 157.255949 Z M 378.622943 157.255949 " transform="matrix(1.993355,0,0,2,-179.401993,-210.00018)"/>
<path style=" stroke:none;fill-rule:nonzero;fill:rgb(25.098039%,80.784314%,40%);fill-opacity:1;" d="M 309.777344 59.84375 L 174.667969 59.84375 L 174.667969 26.003906 L 309.777344 26.003906 Z M 309.777344 59.84375 "/>
<path style=" stroke:none;fill-rule:nonzero;fill:rgb(25.098039%,80.784314%,40%);fill-opacity:1;" d="M 319.128906 243.351562 L 448.625 243.351562 L 448.625 273.722656 L 319.128906 273.722656 Z M 319.128906 243.351562 "/>
<path style=" stroke:none;fill-rule:nonzero;fill:rgb(25.098039%,80.784314%,40%);fill-opacity:1;" d="M 457.976562 150.03125 L 457.976562 114.058594 L 575.425781 114.058594 L 575.425781 150.03125 Z M 457.976562 150.03125 "/>
<path style=" stroke:none;fill-rule:nonzero;fill:rgb(25.098039%,80.784314%,40%);fill-opacity:1;" d="M 319.128906 104.539062 L 319.128906 69.371094 L 448.625 69.371094 L 448.625 104.539062 Z M 319.128906 104.539062 "/>
<path style=" stroke:none;fill-rule:nonzero;fill:rgb(25.098039%,80.784314%,40%);fill-opacity:1;" d="M 575.425781 27.605469 L 575.425781 59.847656 L 457.976562 59.847656 L 457.976562 26.003906 L 573.832031 26.003906 C 574.714844 26.003906 575.425781 26.726562 575.425781 27.605469 Z M 575.425781 27.605469 "/>
<path style=" stroke:none;fill-rule:nonzero;fill:rgb(25.098039%,80.784314%,40%);fill-opacity:1;" d="M 309.777344 243.351562 L 309.777344 273.71875 L 174.667969 273.71875 L 174.667969 243.351562 Z M 309.777344 243.351562 "/>
<path style=" stroke:none;fill-rule:nonzero;fill:rgb(25.098039%,80.784314%,40%);fill-opacity:1;" d="M 309.777344 202.332031 L 309.777344 233.820312 L 174.667969 233.820312 L 174.667969 202.332031 Z M 309.777344 202.332031 "/>
<path style=" stroke:none;fill-rule:nonzero;fill:rgb(25.098039%,80.784314%,40%);fill-opacity:1;" d="M 20.582031 272.390625 L 20.582031 243.355469 L 165.320312 243.355469 L 165.320312 273.71875 L 21.347656 273.71875 C 20.898438 273.441406 20.582031 272.957031 20.582031 272.390625 Z M 20.582031 272.390625 "/>
<path style=" stroke:none;fill-rule:nonzero;fill:rgb(25.098039%,80.784314%,40%);fill-opacity:1;" d="M 165.320312 202.332031 L 165.320312 233.820312 L 20.582031 233.820312 L 20.582031 202.332031 Z M 165.320312 202.332031 "/>
<path style=" stroke:none;fill-rule:nonzero;fill:rgb(25.098039%,80.784314%,40%);fill-opacity:1;" d="M 165.320312 159.554688 L 165.320312 192.800781 L 20.582031 192.800781 L 20.582031 159.554688 Z M 165.320312 159.554688 "/>
<path style="fill:none;stroke-width:7.5;stroke-linecap:square;stroke-linejoin:miter;stroke:rgb(0%,0%,0%);stroke-opacity:0.505882;stroke-miterlimit:10;" d="M 119.02416 143.527434 L 118.602839 138.877043 C 118.567565 138.556731 118.875228 138.310637 119.521908 138.136809 C 120.172507 137.964934 120.715326 137.853606 121.146445 137.808684 L 122.490755 137.765715 C 123.368672 137.810637 123.825267 138.005949 123.8625 138.347746 L 124.869753 149.048918 C 124.446471 149.418059 123.562676 149.830168 122.216406 150.283293 C 120.874056 150.738371 119.314186 151.058684 117.534837 151.25009 C 114.236771 151.601653 111.458008 150.816496 109.200508 148.894621 C 106.948887 146.970793 105.602617 143.93759 105.15974 139.793059 C 104.78153 136.261809 105.465443 133.287199 107.207559 130.871184 C 108.951634 128.449309 111.577546 127.050871 115.085293 126.675871 C 116.678477 126.505949 118.132526 126.505949 119.451361 126.673918 C 120.774115 126.84384 121.701022 127.166106 122.232083 127.638762 C 122.279115 127.818449 122.328105 128.160246 122.382975 128.662199 C 122.435885 129.160246 122.339863 129.890715 122.096868 130.851653 C 121.851914 131.808684 121.536413 132.539153 121.150365 133.045012 C 120.766276 133.545012 120.47821 133.804778 120.282246 133.826262 C 120.090202 133.845793 119.876602 133.783293 119.641445 133.636809 C 119.410208 133.486418 118.963411 133.349699 118.303014 133.226653 C 117.644577 133.099699 117.021413 133.066496 116.429603 133.130949 C 115.020625 133.28134 113.925189 133.859465 113.147214 134.865324 C 112.367279 135.865324 112.081172 137.324309 112.284974 139.240324 C 112.490736 141.152434 113.094303 142.556731 114.097637 143.453215 C 115.10293 144.34384 116.188568 144.726653 117.35847 144.601653 C 118.532292 144.476653 119.088828 144.119231 119.02416 143.527434 Z M 129.461178 147.59384 C 127.869954 146.175871 126.92737 144.076262 126.629505 141.296965 C 126.3336 138.517668 126.811751 136.267668 128.067878 134.545012 C 129.322044 132.824309 131.158223 131.834074 133.572493 131.576262 C 135.988724 131.318449 137.983633 131.898528 139.561139 133.316496 C 141.138646 134.736418 142.075352 136.836028 142.373216 139.615324 C 142.669121 142.394621 142.196849 144.644621 140.9564 146.365324 C 139.713991 148.086028 137.885651 149.074309 135.469421 149.334074 C 133.05515 149.591887 131.052402 149.011809 129.461178 147.59384 Z M 132.604434 140.62509 C 132.827832 142.720793 133.582292 143.699309 134.867813 143.560637 C 136.157253 143.423918 136.690273 142.306731 136.464915 140.212981 C 136.241517 138.119231 134.98735 131.789153 133.480391 131.949309 C 131.973431 132.111418 132.379076 138.53134 132.604434 140.62509 Z M 144.150605 139.425871 C 143.854701 136.646574 144.332852 134.394621 145.588978 132.673918 C 146.845104 130.951262 148.679323 129.961028 151.093594 129.703215 C 153.509824 129.445403 155.504733 130.025481 157.08224 131.445403 C 158.659746 132.865324 159.596452 134.964934 159.894316 137.744231 C 160.192181 140.523528 159.717949 142.773528 158.4775 144.494231 C 157.235091 146.214934 155.406751 147.203215 152.990521 147.461028 C 150.57625 147.71884 148.573503 147.138762 146.982279 145.720793 C 146.982279 145.720793 144.44847 142.205168 144.150605 139.425871 Z M 150.125534 138.753996 C 150.348932 140.847746 151.103392 141.826262 152.388913 141.689543 C 153.678353 141.550871 154.211374 140.435637 153.987975 138.339934 C 153.762617 136.246184 154.07028 131.502043 150.89763 131.841887 C 147.72498 132.181731 149.900176 136.658293 150.125534 138.753996 Z M 169.516126 145.351653 C 167.309577 145.587981 165.526309 145.058684 164.164362 143.763762 C 162.806335 142.470793 161.979368 140.427824 161.681504 137.640715 C 161.383639 134.851653 161.942135 132.582121 163.355033 130.828215 C 164.769889 129.076262 166.790273 128.060637 169.420104 127.779387 C 172.051895 127.498137 174.283919 127.845793 176.116178 128.824309 L 177.93276 145.836028 C 178.113047 147.521574 177.566309 148.886809 176.292546 149.929778 C 175.024661 150.974699 173.319779 151.611418 171.179857 151.839934 C 169.906094 151.976653 167.386003 152.015715 165.978984 151.535246 C 165.026602 151.209074 164.87179 150.37509 164.852194 150.201262 C 164.695423 148.742278 164.822799 147.648528 165.230404 146.916106 C 166.825547 147.412199 168.489277 147.566496 170.217676 147.380949 C 171.471842 147.248137 172.051895 146.738371 171.957832 145.853606 L 171.848092 144.826262 C 170.889831 145.113371 170.111855 145.287199 169.516126 145.351653 Z M 169.827708 133.363371 C 168.301152 133.525481 162.72207 134.994231 162.967025 137.298918 C 163.119876 138.730559 168.455964 139.394621 169.094805 139.763762 C 169.512207 140.019621 169.915892 140.127043 170.30194 140.086028 C 170.689948 140.045012 171.028965 139.974699 171.318991 139.877043 L 170.62528 133.384856 C 170.343092 133.34384 170.076582 133.336028 169.827708 133.363371 Z M 187.043105 143.201262 C 187.064661 143.40634 185.916315 143.632903 183.594147 143.880949 C 181.767767 144.052824 180.846738 144.060637 180.829102 143.900481 L 178.344284 120.638762 C 178.30901 120.300871 179.394648 120.013762 181.605117 119.777434 C 183.547116 119.636809 184.526934 119.648528 184.54457 119.808684 Z M 197.560469 142.699309 C 195.304928 142.939543 193.321777 142.377043 191.611016 141.007903 C 189.898294 139.634856 188.896921 137.586028 188.606895 134.865324 C 188.314909 132.142668 188.826374 129.873137 190.139329 128.054778 C 191.456204 126.232512 193.25123 125.199309 195.528327 124.955168 C 197.805423 124.712981 199.625924 125.105559 200.99179 126.132903 C 202.355697 127.162199 203.127793 128.507903 203.30612 130.170012 C 203.700007 133.857512 201.779564 135.925871 197.544792 136.378996 L 195.183431 136.630949 C 195.257897 137.316496 195.495013 137.769621 195.896738 137.992278 C 196.302383 138.214934 196.870677 138.287199 197.599661 138.209074 C 199.196764 138.037199 200.67041 137.511809 202.024518 136.628996 C 202.046074 136.603606 202.163652 136.752043 202.383132 137.070403 C 203.03569 137.994231 203.396263 138.793059 203.46877 139.462981 C 203.539316 140.134856 203.370788 140.595793 202.961224 140.847746 C 202.961224 140.847746 199.814049 142.459074 197.560469 142.699309 Z M 196.082904 130.146574 C 195.651784 130.191496 194.619056 131.349699 194.673926 131.847746 L 196.633561 132.711028 C 197.386061 132.630949 197.721159 132.205168 197.636895 131.429778 C 197.636895 131.429778 197.01765 130.046965 196.082904 130.146574 Z M 196.082904 130.146574 " transform="matrix(1.993355,0,0,2,-179.401993,-210.00018)"/>
<path style=" stroke:none;fill-rule:nonzero;fill:rgb(100%,100%,100%);fill-opacity:1;" d="M 57.855469 77.054688 L 57.015625 67.753906 C 56.945312 67.113281 57.558594 66.621094 58.847656 66.273438 C 60.144531 65.929688 61.226562 65.707031 62.085938 65.617188 L 64.765625 65.53125 C 66.515625 65.621094 67.425781 66.011719 67.5 66.695312 L 69.507812 88.097656 C 68.664062 88.835938 66.902344 89.660156 64.21875 90.566406 C 61.542969 91.476562 58.433594 92.117188 54.886719 92.5 C 48.3125 93.203125 42.773438 91.632812 38.273438 87.789062 C 33.785156 83.941406 31.101562 77.875 30.21875 69.585938 C 29.464844 62.523438 30.828125 56.574219 34.300781 51.742188 C 37.777344 46.898438 43.011719 44.101562 50.003906 43.351562 C 53.179688 43.011719 56.078125 43.011719 58.707031 43.347656 C 61.34375 43.6875 63.191406 44.332031 64.25 45.277344 C 64.34375 45.636719 64.441406 46.320312 64.550781 47.324219 C 64.65625 48.320312 64.464844 49.78125 63.980469 51.703125 C 63.492188 53.617188 62.863281 55.078125 62.09375 56.089844 C 61.328125 57.089844 60.753906 57.609375 60.363281 57.652344 C 59.980469 57.691406 59.554688 57.566406 59.085938 57.273438 C 58.625 56.972656 57.734375 56.699219 56.417969 56.453125 C 55.105469 56.199219 53.863281 56.132812 52.683594 56.261719 C 49.875 56.5625 47.691406 57.71875 46.140625 59.730469 C 44.585938 61.730469 44.015625 64.648438 44.421875 68.480469 C 44.832031 72.304688 46.035156 75.113281 48.035156 76.90625 C 50.039062 78.6875 52.203125 79.453125 54.535156 79.203125 C 56.875 78.953125 57.984375 78.238281 57.855469 77.054688 Z M 78.660156 85.1875 C 75.488281 82.351562 73.609375 78.152344 73.015625 72.59375 C 72.425781 67.035156 73.378906 62.535156 75.882812 59.089844 C 78.382812 55.648438 82.042969 53.667969 86.855469 53.152344 C 91.667969 52.636719 95.648438 53.796875 98.792969 56.632812 C 101.9375 59.472656 103.804688 63.671875 104.398438 69.230469 C 104.988281 74.789062 104.046875 79.289062 101.574219 82.730469 C 99.097656 86.171875 95.453125 88.148438 90.636719 88.667969 C 85.824219 89.183594 81.832031 88.023438 78.660156 85.1875 Z M 88.097656 64.554688 C 85.535156 64.828125 84.476562 67.0625 84.925781 71.25 C 85.371094 75.441406 86.875 77.398438 89.4375 77.121094 C 92.007812 76.847656 93.070312 74.613281 92.621094 70.425781 C 92.175781 66.238281 90.667969 64.28125 88.097656 64.554688 Z M 113.585938 81.441406 C 110.417969 78.605469 108.535156 74.410156 107.941406 68.851562 C 107.351562 63.292969 108.304688 58.789062 110.808594 55.347656 C 113.3125 51.902344 116.96875 49.921875 121.78125 49.40625 C 126.597656 48.890625 130.574219 50.050781 133.71875 52.890625 C 136.863281 55.730469 138.730469 59.929688 139.324219 65.488281 C 139.917969 71.046875 138.972656 75.546875 136.5 78.988281 C 134.023438 82.429688 130.378906 84.40625 125.5625 84.921875 C 120.75 85.4375 116.757812 84.277344 113.585938 81.441406 Z M 123.023438 60.8125 C 120.460938 61.085938 119.402344 63.316406 119.851562 67.507812 C 120.296875 71.695312 121.800781 73.652344 124.363281 73.378906 C 126.933594 73.101562 127.996094 70.871094 127.550781 66.679688 C 127.101562 62.492188 125.59375 60.535156 123.023438 60.8125 Z M 158.503906 80.703125 C 154.105469 81.175781 150.550781 80.117188 147.835938 77.527344 C 145.128906 74.941406 143.480469 70.855469 142.886719 65.28125 C 142.292969 59.703125 143.40625 55.164062 146.222656 51.65625 C 149.042969 48.152344 153.070312 46.121094 158.3125 45.558594 C 163.558594 44.996094 168.007812 45.691406 171.660156 47.648438 L 175.28125 81.671875 C 175.640625 85.042969 174.550781 87.773438 172.011719 89.859375 C 169.484375 91.949219 166.085938 93.222656 161.820312 93.679688 C 157.558594 94.136719 153.6875 93.996094 150.210938 93.265625 C 149.632812 92.21875 149.300781 91.265625 149.207031 90.402344 C 148.894531 87.484375 149.148438 85.296875 149.960938 83.832031 C 153.140625 84.824219 156.457031 85.132812 159.902344 84.761719 C 162.402344 84.496094 163.558594 83.476562 163.371094 81.707031 L 163.152344 79.652344 C 161.242188 80.226562 159.691406 80.574219 158.503906 80.703125 Z M 159.125 56.726562 C 156.082031 57.050781 154.808594 59.519531 155.296875 64.125 C 155.605469 66.988281 156.390625 68.789062 157.664062 69.527344 C 158.496094 70.039062 159.300781 70.253906 160.070312 70.171875 C 160.84375 70.089844 161.519531 69.949219 162.097656 69.753906 L 160.714844 56.769531 C 160.152344 56.6875 159.621094 56.671875 159.125 56.726562 Z M 193.441406 76.40625 C 193.484375 76.8125 191.195312 77.265625 186.566406 77.761719 C 182.925781 78.105469 181.089844 78.121094 181.054688 77.800781 L 176.101562 31.277344 C 176.03125 30.601562 178.195312 30.027344 182.601562 29.554688 C 186.472656 29.273438 188.425781 29.296875 188.460938 29.617188 Z M 225.171875 71.695312 C 222.488281 73.683594 218.898438 74.917969 214.40625 75.398438 C 209.910156 75.878906 205.957031 74.753906 202.546875 72.015625 C 199.132812 69.269531 197.136719 65.171875 196.558594 59.730469 C 195.976562 54.285156 196.996094 49.746094 199.613281 46.109375 C 202.238281 42.464844 205.816406 40.398438 210.355469 39.910156 C 214.894531 39.425781 218.523438 40.210938 221.246094 42.265625 C 223.964844 44.324219 225.503906 47.015625 225.859375 50.339844 C 226.644531 57.714844 222.816406 61.851562 214.375 62.757812 L 209.667969 63.261719 C 209.816406 64.632812 210.289062 65.539062 211.089844 65.984375 C 211.898438 66.429688 213.03125 66.574219 214.484375 66.417969 C 217.667969 66.074219 220.605469 65.023438 223.304688 63.257812 C 223.347656 63.207031 223.582031 63.503906 224.019531 64.140625 C 225.320312 65.988281 226.039062 67.585938 226.183594 68.925781 C 226.324219 70.269531 225.988281 71.191406 225.171875 71.695312 Z M 214.558594 52.859375 C 214.355469 50.949219 213.324219 50.09375 211.460938 50.292969 C 210.601562 50.382812 209.890625 50.726562 209.324219 51.316406 C 208.769531 51.90625 208.542969 52.699219 208.652344 53.695312 L 208.875 55.816406 L 212.558594 55.421875 C 214.058594 55.261719 214.726562 54.410156 214.558594 52.859375 Z M 214.558594 52.859375 "/>
<path style="fill:none;stroke-width:7.5;stroke-linecap:square;stroke-linejoin:miter;stroke:rgb(0%,0%,0%);stroke-opacity:0.505882;stroke-miterlimit:10;" d="M 171.820658 230.181731 C 173.025833 230.734465 174.154583 230.96884 175.202988 230.886809 C 176.257272 230.804778 176.75306 230.355559 176.688392 229.537199 C 176.658997 229.166106 176.48263 228.847746 176.16125 228.586028 C 175.843789 228.324309 175.273535 228.041106 174.452448 227.734465 C 173.631361 227.425871 173.012116 227.181731 172.600592 227.003996 C 172.187109 226.822356 171.632533 226.515715 170.936862 226.084074 C 170.24707 225.650481 169.706211 225.18759 169.318203 224.693449 C 168.220807 223.363371 167.585885 221.607512 167.415397 219.425871 C 167.244909 217.246184 167.911185 215.34384 169.414225 213.722746 C 170.917266 212.097746 172.980762 211.181731 175.606673 210.976653 C 177.391901 210.836028 179.051712 210.900481 180.591986 211.170012 C 182.130299 211.433684 182.947467 211.873137 183.045449 212.488371 C 183.051328 212.560637 183.057207 212.632903 183.061126 212.705168 C 183.129714 213.576262 182.943548 214.695403 182.500671 216.06259 C 182.061712 217.425871 181.738372 218.189543 181.526732 218.357512 C 179.876719 217.664153 178.424629 217.367278 177.172422 217.464934 C 175.926094 217.56259 175.336243 218.056731 175.40679 218.947356 C 175.449902 219.492278 175.94569 219.941496 176.898073 220.289153 C 177.103835 220.37509 177.39778 220.490324 177.779909 220.636809 C 178.163997 220.775481 178.608835 220.945403 179.110501 221.144621 C 179.612168 221.34384 180.156947 221.601653 180.740918 221.914153 C 181.324889 222.228606 181.96373 222.658293 182.657441 223.203215 C 184.066419 224.337981 184.848314 225.920012 185.009004 227.951262 C 185.214766 230.601653 184.65431 232.826262 183.325677 234.623137 C 181.997044 236.420012 179.812051 237.462981 176.768737 237.748137 C 175.285293 237.865324 173.931185 237.847746 172.708372 237.695403 C 171.489479 237.543059 170.403841 237.142668 169.453418 236.498137 C 168.506914 235.847746 167.995449 235.013762 167.915104 233.998137 C 167.834759 232.982512 167.942539 231.959074 168.236484 230.929778 C 168.53043 229.894621 170.619401 229.628996 171.820658 230.181731 Z M 197.062721 242.589934 C 197.076439 242.763762 196.024115 242.933684 193.905749 243.099699 C 191.793262 243.263762 190.72918 243.259856 190.715462 243.086028 L 189.218301 223.959074 L 187.956296 224.056731 C 187.360566 224.103606 186.90985 223.591887 186.602188 222.521574 C 186.498327 222.179778 186.423861 221.736418 186.380749 221.195403 C 186.339596 220.648528 186.463053 219.990324 186.753079 219.21884 C 187.160684 218.091887 187.911224 217.484465 189.002741 217.400481 C 189.719967 217.34384 190.392122 217.459074 191.023125 217.744231 C 191.658047 218.03134 192.102884 218.306731 192.357637 218.574309 C 192.616309 218.841887 192.749564 218.998137 192.751523 219.046965 C 194.309434 217.630949 196.053509 216.847746 197.98375 216.695403 C 199.91791 216.545012 201.634551 217.164153 203.135632 218.554778 C 204.640632 219.941496 205.514629 222.199309 205.761543 225.334074 C 206.006497 228.466887 205.502871 230.949309 204.250664 232.779387 C 203.000417 234.603606 201.313171 235.599699 199.185007 235.767668 C 198.218906 235.841887 197.335111 235.863371 196.53362 235.828215 Z M 197.076439 223.179778 C 196.655117 223.212981 196.257311 223.380949 195.881061 223.681731 L 196.396445 230.253996 C 196.821686 230.273528 197.164622 230.273528 197.425254 230.253996 C 197.685885 230.232512 197.889688 230.216887 198.034701 230.205168 C 199.041953 230.025481 203.84502 228.339934 203.649056 225.839934 C 203.484447 223.736418 198.36196 223.080168 197.076439 223.179778 Z M 217.293997 234.166106 C 217.307715 234.339934 216.188763 234.515715 213.935182 234.691496 C 211.677682 234.814543 210.543053 234.804778 210.531296 234.658293 L 209.565195 222.328215 L 208.565781 222.40634 C 208.167975 222.43759 207.832878 222.220793 207.558529 221.755949 C 207.28222 221.291106 207.117611 220.699309 207.060781 219.984465 C 206.8511 217.310637 207.540892 215.912199 209.126237 215.787199 C 210.23931 215.699309 211.193652 215.96884 211.991224 216.591887 C 212.788796 217.211028 214.364342 216.904387 215.197188 216.230559 C 216.030033 215.552824 216.90207 215.177824 217.81526 215.105559 C 219.251673 214.994231 220.149186 215.295012 220.507799 216.011809 C 220.595983 216.205168 220.654772 216.494231 220.684167 216.880949 C 220.715521 217.263762 220.650853 217.959074 220.490163 218.96884 C 220.335352 219.978606 220.151146 220.714934 219.933626 221.179778 C 219.721986 221.644621 219.59265 221.878996 219.543659 221.882903 C 219.494668 221.886809 219.259512 221.81259 218.832311 221.660246 C 218.412949 221.503996 218.040618 221.43759 217.715319 221.462981 C 216.776654 221.537199 216.36709 222.316496 216.482708 223.800871 Z M 231.916797 233.429778 C 229.465293 233.621184 227.33321 232.949309 225.520547 231.412199 C 223.705924 229.871184 222.682995 227.621184 222.451758 224.662199 C 222.218561 221.701262 222.841725 219.255949 224.32125 217.326262 C 225.804694 215.390715 227.783926 214.326262 230.258945 214.130949 C 232.735924 213.93759 234.69752 214.418059 236.14569 215.576262 C 237.593861 216.732512 238.389473 218.214934 238.530566 220.023528 C 238.844108 224.03134 236.700267 226.216887 232.095124 226.576262 L 229.528001 226.777434 C 229.58679 227.523528 229.829785 228.021574 230.258945 228.275481 C 230.692025 228.529387 231.305391 228.623137 232.099043 228.56259 C 233.83332 228.425871 235.45002 227.900481 236.945221 226.984465 C 236.966777 226.959074 237.092194 227.123137 237.319512 227.474699 C 237.997546 228.496184 238.365957 229.373137 238.422786 230.103606 C 238.479616 230.832121 238.281693 231.328215 237.830977 231.586028 C 237.830977 231.586028 234.368301 233.236418 231.916797 233.429778 Z M 232.347917 221.214934 C 232.265612 220.175871 231.716914 219.695403 230.701823 219.775481 C 230.23347 219.81259 229.839583 219.986418 229.524082 220.296965 C 229.2125 220.609465 229.079245 221.035246 229.120397 221.578215 L 229.21054 222.730559 L 231.221126 222.572356 C 232.038294 222.509856 232.412585 222.056731 232.347917 221.214934 Z M 243.202337 218.605559 C 242.412604 217.421965 241.989323 216.441496 241.928574 215.662199 C 241.865866 214.884856 242.038314 214.367278 242.441999 214.111418 C 243.800026 213.382903 245.710671 212.921965 248.171973 212.728606 C 250.637194 212.535246 252.424382 212.974699 253.529616 214.045012 C 254.63485 215.117278 255.275651 216.779387 255.452018 219.033293 L 255.912533 224.900481 L 257.174538 224.802824 C 257.5939 224.769621 257.942715 224.992278 258.219023 225.472746 C 258.495332 225.947356 258.66582 226.617278 258.734408 227.482512 C 258.802995 228.347746 258.652103 229.21884 258.281732 230.09384 C 257.91332 230.96884 257.358743 231.435637 256.618001 231.494231 C 255.27957 231.599699 254.172376 231.326262 253.298379 230.673918 C 252.908411 230.402434 252.596829 230.064543 252.365592 229.660246 C 251.336784 231.185637 249.620143 232.043059 247.21763 232.230559 C 245.414766 232.371184 243.843138 231.847746 242.504707 230.658293 C 241.164316 229.46884 240.427493 227.994231 240.288359 226.234465 C 239.972858 222.201262 242.228398 219.996184 247.05498 219.617278 L 249.09888 219.457121 L 249.069486 219.080168 C 249.020495 218.43759 248.881361 218.03134 248.654043 217.865324 C 248.430645 217.697356 247.936816 217.644621 247.16668 217.705168 C 246.224095 217.777434 244.903301 218.078215 243.202337 218.605559 Z M 246.712044 225.212981 C 246.753197 225.753996 246.933483 226.15634 247.250944 226.418059 C 247.568405 226.681731 247.956413 226.795012 248.416927 226.757903 C 248.875482 226.722746 249.277207 226.503996 249.620143 226.101653 L 249.396745 223.244231 L 248.352259 223.326262 C 247.16668 223.418059 246.619941 224.046965 246.712044 225.212981 Z M 268.497311 204.261809 C 268.467917 203.888762 269.430098 203.627043 271.383854 203.472746 C 272.05209 203.421965 272.828105 203.404387 273.71582 203.421965 C 274.603535 203.439543 275.052292 203.521574 275.064049 203.666106 L 276.596484 223.244231 L 277.895723 223.142668 C 278.514967 223.09384 278.965684 223.619231 279.25179 224.714934 C 279.326257 225.035246 279.383086 225.472746 279.428158 226.029387 C 279.47127 226.586028 279.351732 227.273528 279.071504 228.09384 C 278.658021 229.220793 277.90748 229.826262 276.819883 229.912199 C 276.002715 229.976653 275.263932 229.873137 274.605495 229.603606 C 273.952936 229.328215 273.50026 229.025481 273.251387 228.695403 L 272.879056 228.242278 C 271.61901 229.660246 269.961159 230.449309 267.905501 230.609465 C 265.849844 230.771574 264.025423 230.054778 262.43028 228.462981 C 260.837096 226.871184 259.919987 224.545012 259.680911 221.490324 C 259.441836 218.427824 260.021888 216.003996 261.424987 214.214934 C 262.832005 212.421965 264.68582 211.435637 266.986432 211.253996 C 267.654668 211.203215 268.3425 211.224699 269.049928 211.318449 Z M 266.484766 221.045012 C 266.582747 222.306731 266.853177 223.203215 267.294095 223.732512 C 267.733053 224.257903 268.195527 224.50009 268.679557 224.462981 C 269.161628 224.425871 269.610384 224.177824 270.021908 223.722746 L 269.528079 217.404387 C 269.087161 217.191496 265.963503 214.65634 264.719134 216.144621 C 263.474766 217.634856 266.288802 218.545012 266.484766 221.045012 Z M 282.357813 222.377043 C 284.460501 223.433684 286.090918 223.916106 287.252982 223.826262 C 287.997643 223.767668 288.348418 223.478606 288.309225 222.961028 C 288.279831 222.589934 287.597878 222.15634 286.265326 221.662199 C 283.07112 220.642668 281.362318 218.697356 281.13696 215.824309 C 280.993906 213.992278 281.552402 212.541106 282.810488 211.474699 C 284.074453 210.402434 285.640202 209.793059 287.505775 209.646574 C 289.377227 209.50009 290.976289 209.574309 292.304922 209.869231 C 293.635514 210.164153 294.327266 210.632903 294.378216 211.277434 C 294.419368 211.818449 294.209688 212.556731 293.749173 213.494231 C 293.286699 214.425871 292.95944 214.935637 292.765436 215.023528 C 291.656283 214.515715 290.482461 214.310637 289.243971 214.408293 C 288.575736 214.461028 288.262194 214.720793 288.297467 215.189543 C 288.320983 215.484465 288.469915 215.728606 288.742305 215.921965 C 289.020573 216.109465 289.516361 216.330168 290.231628 216.586028 C 290.952773 216.841887 291.550462 217.076262 292.024694 217.293059 C 292.502845 217.502043 293.045664 217.808684 293.651191 218.209074 C 294.913197 219.052824 295.604948 220.232512 295.722526 221.746184 C 295.877337 223.724699 295.346276 225.378996 294.127383 226.709074 C 292.912409 228.035246 290.980208 228.802824 288.328822 229.009856 C 286.574948 229.148528 284.956289 228.974699 283.472845 228.492278 C 281.989401 228.011809 281.207507 227.25009 281.127161 226.211028 C 281.072292 225.519621 281.182031 224.777434 281.45638 223.988371 C 281.72877 223.193449 282.030553 222.65634 282.357813 222.377043 Z M 304.993561 227.070403 C 305.009238 227.293059 303.984349 227.484465 301.914974 227.646574 C 299.849518 227.808684 298.803073 227.71884 298.775638 227.37509 L 296.782689 201.929778 C 296.770931 201.759856 297.145221 201.609465 297.90752 201.476653 C 298.671777 201.337981 299.310618 201.25009 299.827962 201.209074 C 301.907135 201.046965 302.965339 201.18759 303.000612 201.630949 L 303.582624 209.058684 C 304.936732 208.529387 305.975339 208.236418 306.694525 208.181731 C 308.575775 208.033293 310.100371 208.420012 311.266354 209.339934 C 312.432337 210.255949 313.124089 212.076262 313.335729 214.798918 L 314.237161 226.308684 C 314.254798 226.53134 313.300456 226.71884 311.370215 226.869231 C 309.183262 226.96884 308.083906 226.929778 308.070189 226.755949 L 307.213828 215.839934 C 307.119766 214.62509 306.678848 214.048918 305.889115 214.111418 C 305.342376 214.154387 304.73097 214.462981 304.050977 215.037199 Z M 325.469792 226.101653 C 323.016328 226.293059 320.884245 225.621184 319.071582 224.084074 C 317.25696 222.543059 316.23403 220.293059 316.002793 217.334074 C 315.771556 214.373137 316.39472 211.927824 317.872285 209.998137 C 319.355729 208.06259 321.334961 206.998137 323.81194 206.802824 C 326.28696 206.609465 328.248555 207.089934 329.696725 208.248137 C 331.144896 209.404387 331.940508 210.886809 332.081602 212.695403 C 332.395143 216.703215 330.251302 218.888762 325.648118 219.248137 L 323.079036 219.449309 C 323.137826 220.195403 323.38082 220.693449 323.80998 220.947356 C 324.24306 221.201262 324.856426 221.295012 325.650078 221.234465 C 327.386315 221.097746 329.001055 220.572356 330.496257 219.65634 C 330.517812 219.630949 330.643229 219.795012 330.870547 220.146574 C 331.548581 221.168059 331.916992 222.045012 331.973822 222.775481 C 332.030651 223.503996 331.834688 224.00009 331.382012 224.257903 C 331.382012 224.257903 327.921296 225.908293 325.469792 226.101653 Z M 325.898952 213.886809 C 325.816647 212.847746 325.269909 212.367278 324.252858 212.447356 C 323.784505 212.484465 323.392578 212.658293 323.075117 212.96884 C 322.763535 213.28134 322.63028 213.707121 322.671432 214.25009 L 322.763535 215.402434 L 324.772161 215.244231 C 325.589329 215.181731 325.965579 214.728606 325.898952 213.886809 Z M 337.119824 222.670012 C 335.307161 221.128996 334.284232 218.878996 334.051035 215.920012 C 333.819798 212.959074 334.442962 210.515715 335.922487 208.584074 C 337.405931 206.648528 339.385163 205.584074 341.860182 205.388762 C 344.337161 205.195403 346.298757 205.677824 347.746927 206.834074 C 349.195098 207.990324 349.98875 209.472746 350.131803 211.28134 C 350.445345 215.289153 348.299544 217.474699 343.696361 217.836028 L 341.129238 218.035246 C 341.188027 218.78134 341.431022 219.279387 341.860182 219.533293 C 342.293262 219.787199 342.906628 219.882903 343.69832 219.820403 C 345.434557 219.683684 348.691471 218.380949 348.918789 218.732512 C 349.598783 219.753996 349.965234 220.630949 350.022064 221.361418 C 350.080853 222.091887 349.88293 222.586028 349.432214 222.845793 C 349.432214 222.845793 345.934264 224.720793 343.518034 224.68759 C 341.101803 224.652434 338.934447 224.207121 337.119824 222.670012 Z M 343.947194 212.472746 C 343.866849 211.433684 343.318151 210.953215 342.30306 211.033293 C 341.832747 211.070403 341.44082 211.244231 341.125319 211.556731 C 340.813737 211.867278 340.678522 212.293059 340.721634 212.836028 L 340.811777 213.988371 L 342.820404 213.832121 C 343.637572 213.767668 344.013822 213.314543 343.947194 212.472746 Z M 362.042467 222.638762 C 362.065983 222.93759 361.039134 223.168059 358.959961 223.332121 C 356.475143 223.423918 355.224896 223.359465 355.207259 223.136809 L 354.178451 209.994231 L 352.285443 210.140715 C 351.785736 210.179778 351.470234 209.34384 351.336979 207.632903 C 351.301706 207.18759 351.301706 206.640715 351.338939 205.990324 C 351.376172 205.339934 351.530983 205.003996 351.807292 204.982512 L 353.772806 204.828215 L 353.516094 201.556731 C 353.478861 201.064543 354.50375 200.736418 356.592721 200.572356 C 358.685612 200.408293 359.749694 200.523528 359.779089 200.920012 L 359.967214 203.300871 L 360.084792 204.334074 L 363.245684 204.086028 C 363.667005 204.052824 363.945273 204.904387 364.082448 206.640715 C 364.217663 208.373137 364.074609 209.253996 363.653288 209.287199 L 361.013659 209.494231 Z M 372.336432 217.160246 C 373.081094 217.101653 373.433828 216.814543 373.392676 216.296965 C 373.363281 215.923918 372.681328 215.492278 371.348776 214.998137 C 368.15653 213.978606 366.445768 212.03134 366.22041 209.160246 C 366.077357 207.326262 366.635853 205.877043 367.893939 204.810637 C 369.157904 203.738371 370.723652 203.128996 372.591185 202.982512 C 374.462637 202.836028 376.061699 202.910246 377.388372 203.205168 C 378.718965 203.50009 379.410716 203.96884 379.461667 204.611418 C 379.504779 205.154387 379.293138 205.892668 378.832624 206.828215 C 378.37015 207.759856 378.042891 208.269621 377.850846 208.357512 C 376.739733 207.851653 375.565911 207.646574 374.327422 207.744231 C 373.661146 207.795012 373.345645 208.056731 373.382878 208.525481 C 373.404434 208.820403 373.553366 209.064543 373.825755 209.257903 C 374.104023 209.445403 374.599811 209.666106 375.315078 209.921965 C 376.036224 210.175871 376.633913 210.412199 377.108145 210.627043 C 377.586296 210.837981 378.129115 211.142668 378.734642 211.543059 C 379.996647 212.388762 380.688398 213.568449 380.805977 215.082121 C 380.962747 217.058684 380.429727 218.712981 379.210833 220.045012 C 377.995859 221.371184 376.063659 222.138762 373.414232 222.345793 C 371.658398 222.482512 370.03974 222.310637 368.556296 221.828215 C 367.072852 221.345793 366.290957 220.586028 366.210612 219.545012 C 366.155742 218.853606 366.265482 218.113371 366.539831 217.322356 C 366.81222 216.527434 367.114004 215.990324 367.443223 215.712981 C 367.443223 215.712981 371.176328 217.252043 372.336432 217.160246 Z M 372.336432 217.160246 " transform="matrix(1.993355,0,0,2,-179.401993,-210.00018)"/>
<path style=" stroke:none;fill-rule:nonzero;fill:rgb(100%,100%,100%);fill-opacity:1;" d="M 158.015625 247.699219 C 159.007812 248.367188 160.703125 249.257812 163.097656 250.363281 C 165.5 251.46875 167.75 251.9375 169.839844 251.773438 C 171.941406 251.609375 172.929688 250.710938 172.800781 249.074219 C 172.742188 248.332031 172.390625 247.695312 171.75 247.171875 C 171.117188 246.648438 169.980469 246.082031 168.34375 245.46875 C 166.707031 244.851562 165.472656 244.363281 164.652344 244.007812 C 163.828125 243.644531 162.722656 243.03125 161.335938 242.167969 C 159.960938 241.300781 158.882812 240.375 158.109375 239.386719 C 155.921875 236.726562 154.65625 233.214844 154.316406 228.851562 C 153.976562 224.492188 155.304688 220.6875 158.300781 217.445312 C 161.296875 214.195312 165.410156 212.363281 170.644531 211.953125 C 174.203125 211.671875 177.511719 211.800781 180.582031 212.339844 C 183.648438 212.867188 185.277344 213.746094 185.472656 214.976562 C 185.484375 215.121094 185.496094 215.265625 185.503906 215.410156 C 185.640625 217.152344 185.269531 219.390625 184.386719 222.125 C 183.511719 224.851562 182.867188 226.378906 182.445312 226.714844 C 179.15625 225.328125 176.261719 224.734375 173.765625 224.929688 C 171.28125 225.125 170.105469 226.113281 170.246094 227.894531 C 170.332031 228.984375 171.320312 229.882812 173.21875 230.578125 C 173.628906 230.75 174.214844 230.980469 174.976562 231.273438 C 175.742188 231.550781 176.628906 231.890625 177.628906 232.289062 C 178.628906 232.6875 179.714844 233.203125 180.878906 233.828125 C 182.042969 234.457031 183.316406 235.316406 184.699219 236.40625 C 187.507812 238.675781 189.066406 241.84375 189.386719 245.902344 C 189.796875 251.203125 188.679688 255.652344 186.03125 259.246094 C 183.382812 262.839844 179.027344 264.925781 172.960938 265.5 C 170.003906 265.730469 167.304688 265.695312 164.867188 265.390625 C 162.4375 265.085938 160.273438 264.285156 158.378906 262.996094 C 156.492188 261.695312 155.472656 260.027344 155.3125 257.996094 C 155.152344 255.964844 155.367188 253.917969 155.953125 251.859375 C 156.539062 249.789062 157.226562 248.402344 158.015625 247.699219 Z M 213.414062 275.179688 C 213.441406 275.527344 211.34375 275.867188 207.121094 276.199219 C 202.910156 276.527344 200.789062 276.519531 200.761719 276.171875 L 197.777344 237.917969 L 195.261719 238.113281 C 194.074219 238.207031 193.175781 237.183594 192.5625 235.042969 C 192.355469 234.359375 192.207031 233.472656 192.121094 232.390625 C 192.039062 231.296875 192.285156 229.980469 192.863281 228.4375 C 193.675781 226.183594 195.171875 224.96875 197.347656 224.800781 C 198.777344 224.6875 200.117188 224.917969 201.375 225.488281 C 202.640625 226.0625 203.527344 226.613281 204.035156 227.148438 C 204.550781 227.683594 204.8125 227.996094 204.820312 228.09375 C 207.925781 225.261719 211.402344 223.695312 215.25 223.390625 C 219.105469 223.089844 222.527344 224.328125 225.519531 227.109375 C 228.519531 229.882812 230.261719 234.398438 230.753906 240.667969 C 231.242188 246.933594 230.238281 251.898438 227.742188 255.558594 C 225.25 259.207031 221.886719 261.199219 217.644531 261.535156 C 215.71875 261.683594 213.957031 261.726562 212.359375 261.65625 Z M 213.460938 236.613281 C 212.621094 236.675781 211.828125 237.011719 211.078125 237.617188 L 212.105469 250.757812 C 212.953125 250.800781 213.636719 250.800781 214.15625 250.757812 C 214.675781 250.71875 215.082031 250.6875 215.371094 250.664062 C 217.378906 250.300781 218.1875 247.621094 217.796875 242.621094 C 217.46875 238.414062 216.023438 236.410156 213.460938 236.613281 Z M 253.742188 258.332031 C 253.769531 258.679688 251.539062 259.03125 247.046875 259.382812 C 242.546875 259.628906 240.285156 259.609375 240.261719 259.320312 L 238.335938 234.65625 L 236.34375 234.8125 C 235.550781 234.875 234.882812 234.441406 234.335938 233.511719 C 233.785156 232.582031 233.457031 231.398438 233.34375 229.96875 C 232.925781 224.621094 234.300781 221.824219 237.460938 221.574219 C 239.679688 221.398438 241.582031 221.9375 243.171875 223.183594 C 244.761719 224.421875 245.625 225.910156 245.761719 227.648438 C 246.636719 225.539062 247.902344 223.808594 249.5625 222.460938 C 251.222656 221.105469 252.960938 220.355469 254.78125 220.210938 C 257.644531 219.988281 259.433594 220.589844 260.148438 222.023438 C 260.324219 222.410156 260.441406 222.988281 260.5 223.761719 C 260.5625 224.527344 260.433594 225.917969 260.113281 227.9375 C 259.804688 229.957031 259.4375 231.429688 259.003906 232.359375 C 258.582031 233.289062 258.324219 233.757812 258.226562 233.765625 C 258.128906 233.773438 257.660156 233.625 256.808594 233.320312 C 255.972656 233.007812 255.230469 232.875 254.582031 232.925781 C 252.710938 233.074219 251.894531 234.632812 252.125 237.601562 Z M 294.679688 253.171875 C 291.707031 255.246094 287.777344 256.472656 282.890625 256.859375 C 278.003906 257.242188 273.753906 255.898438 270.140625 252.824219 C 266.523438 249.742188 264.484375 245.242188 264.023438 239.324219 C 263.558594 233.402344 264.800781 228.511719 267.75 224.652344 C 270.707031 220.78125 274.652344 218.652344 279.585938 218.261719 C 284.523438 217.875 288.433594 218.835938 291.320312 221.152344 C 294.207031 223.464844 295.792969 226.429688 296.074219 230.046875 C 296.699219 238.0625 292.425781 242.433594 283.246094 243.152344 L 278.128906 243.554688 C 278.246094 245.046875 278.730469 246.042969 279.585938 246.550781 C 280.449219 247.058594 281.671875 247.246094 283.253906 247.125 C 286.710938 246.851562 289.933594 245.800781 292.914062 243.96875 C 292.957031 243.917969 293.207031 244.246094 293.660156 244.949219 C 295.011719 246.992188 295.746094 248.746094 295.859375 250.207031 C 295.972656 251.664062 295.578125 252.65625 294.679688 253.171875 Z M 283.75 232.429688 C 283.585938 230.351562 282.492188 229.390625 280.46875 229.550781 C 279.535156 229.625 278.75 229.972656 278.121094 230.59375 C 277.5 231.21875 277.234375 232.070312 277.316406 233.15625 L 277.496094 235.460938 L 281.503906 235.144531 C 283.132812 235.019531 283.878906 234.113281 283.75 232.429688 Z M 305.386719 227.210938 C 303.8125 224.84375 302.96875 222.882812 302.847656 221.324219 C 302.722656 219.769531 303.066406 218.734375 303.871094 218.222656 C 306.578125 216.765625 310.386719 215.84375 315.292969 215.457031 C 320.207031 215.070312 323.769531 215.949219 325.972656 218.089844 C 328.175781 220.234375 329.453125 223.558594 329.804688 228.066406 L 330.722656 239.800781 L 333.238281 239.605469 C 334.074219 239.539062 334.769531 239.984375 335.320312 240.945312 C 335.871094 241.894531 336.210938 243.234375 336.347656 244.964844 C 336.484375 246.695312 336.183594 248.4375 335.445312 250.1875 C 334.710938 251.9375 333.605469 252.871094 332.128906 252.988281 C 329.460938 253.199219 327.253906 252.652344 325.511719 251.347656 C 324.734375 250.804688 324.113281 250.128906 323.652344 249.320312 C 321.601562 252.371094 318.179688 254.085938 313.390625 254.460938 C 309.796875 254.742188 306.664062 253.695312 303.996094 251.316406 C 301.324219 248.9375 299.855469 245.988281 299.578125 242.46875 C 298.949219 234.402344 303.445312 229.992188 313.066406 229.234375 L 317.140625 228.914062 L 317.082031 228.160156 C 316.984375 226.875 316.707031 226.0625 316.253906 225.730469 C 315.808594 225.394531 314.824219 225.289062 313.289062 225.410156 C 311.410156 225.554688 308.777344 226.15625 305.386719 227.210938 Z M 312.382812 240.425781 C 312.464844 241.507812 312.824219 242.3125 313.457031 242.835938 C 314.089844 243.363281 314.863281 243.589844 315.78125 243.515625 C 316.695312 243.445312 317.496094 243.007812 318.179688 242.203125 L 317.734375 236.488281 L 315.652344 236.652344 C 313.289062 236.835938 312.199219 238.09375 312.382812 240.425781 Z M 355.808594 198.523438 C 355.75 197.777344 357.667969 197.253906 361.5625 196.945312 C 362.894531 196.84375 364.441406 196.808594 366.210938 196.84375 C 367.980469 196.878906 368.875 197.042969 368.898438 197.332031 L 371.953125 236.488281 L 374.542969 236.285156 C 375.777344 236.1875 376.675781 237.238281 377.246094 239.429688 C 377.394531 240.070312 377.511719 240.945312 377.597656 242.058594 C 377.683594 243.171875 377.445312 244.546875 376.886719 246.1875 C 376.0625 248.441406 374.566406 249.652344 372.398438 249.824219 C 370.769531 249.953125 369.296875 249.746094 367.984375 249.207031 C 366.683594 248.65625 365.78125 248.050781 365.285156 247.390625 L 364.542969 246.484375 C 362.03125 249.320312 358.726562 250.898438 354.628906 251.21875 C 350.53125 251.542969 346.894531 250.109375 343.714844 246.925781 C 340.539062 243.742188 338.710938 239.089844 338.234375 232.980469 C 337.757812 226.855469 338.914062 222.007812 341.710938 218.429688 C 344.515625 214.84375 348.210938 212.871094 352.796875 212.507812 C 354.128906 212.40625 355.5 212.449219 356.910156 212.636719 Z M 355.359375 224.261719 C 352.59375 224.480469 351.40625 227.089844 351.796875 232.089844 C 351.992188 234.613281 352.53125 236.40625 353.410156 237.464844 C 354.285156 238.515625 355.207031 239 356.171875 238.925781 C 357.132812 238.851562 358.027344 238.355469 358.847656 237.445312 L 357.863281 224.808594 C 356.984375 224.382812 356.152344 224.199219 355.359375 224.261719 Z M 383.4375 234.753906 C 387.628906 236.867188 390.878906 237.832031 393.195312 237.652344 C 394.679688 237.535156 395.378906 236.957031 395.300781 235.921875 C 395.242188 235.179688 393.882812 234.3125 391.226562 233.324219 C 384.859375 231.285156 381.453125 227.394531 381.003906 221.648438 C 380.71875 217.984375 381.832031 215.082031 384.339844 212.949219 C 386.859375 210.804688 389.980469 209.585938 393.699219 209.292969 C 397.429688 209 400.617188 209.148438 403.265625 209.738281 C 405.917969 210.328125 407.296875 211.265625 407.398438 212.554688 C 407.480469 213.636719 407.0625 215.113281 406.144531 216.988281 C 405.222656 218.851562 404.570312 219.871094 404.183594 220.046875 C 401.972656 219.03125 399.632812 218.621094 397.164062 218.816406 C 395.832031 218.921875 395.207031 219.441406 395.277344 220.378906 C 395.324219 220.96875 395.621094 221.457031 396.164062 221.84375 C 396.71875 222.21875 397.707031 222.660156 399.132812 223.171875 C 400.570312 223.683594 401.761719 224.152344 402.707031 224.585938 C 403.660156 225.003906 404.742188 225.617188 405.949219 226.417969 C 408.464844 228.105469 409.84375 230.464844 410.078125 233.492188 C 410.386719 237.449219 409.328125 240.757812 406.898438 243.417969 C 404.476562 246.070312 400.625 247.605469 395.339844 248.019531 C 391.84375 248.296875 388.617188 247.949219 385.660156 246.984375 C 382.703125 246.023438 381.144531 244.5 380.980469 242.421875 C 380.875 241.039062 381.09375 239.554688 381.640625 237.976562 C 382.183594 236.386719 382.785156 235.3125 383.4375 234.753906 Z M 428.558594 244.140625 C 428.589844 244.585938 426.546875 244.96875 422.421875 245.292969 C 418.304688 245.617188 416.21875 245.4375 416.164062 244.75 L 412.191406 193.859375 C 412.167969 193.519531 412.914062 193.21875 414.433594 192.953125 C 415.957031 192.675781 417.230469 192.5 418.261719 192.417969 C 422.40625 192.09375 424.515625 192.375 424.585938 193.261719 L 425.746094 208.117188 C 428.445312 207.058594 430.515625 206.472656 431.949219 206.363281 C 435.699219 206.066406 438.738281 206.839844 441.0625 208.679688 C 443.386719 210.511719 444.765625 214.152344 445.1875 219.597656 L 446.984375 242.617188 C 447.019531 243.0625 445.117188 243.4375 441.269531 243.738281 C 436.910156 243.9375 434.71875 243.859375 434.691406 243.511719 L 432.984375 221.679688 C 432.796875 219.25 431.917969 218.097656 430.34375 218.222656 C 429.253906 218.308594 428.035156 218.925781 426.675781 220.074219 Z M 481.160156 238.515625 C 478.191406 240.589844 474.261719 241.816406 469.375 242.203125 C 464.484375 242.585938 460.234375 241.242188 456.621094 238.167969 C 453.003906 235.085938 450.964844 230.585938 450.503906 224.667969 C 450.042969 218.746094 451.285156 213.859375 454.230469 209.996094 C 457.1875 206.125 461.132812 203.996094 466.070312 203.605469 C 471.003906 203.21875 474.914062 204.179688 477.800781 206.496094 C 480.6875 208.808594 482.273438 211.773438 482.554688 215.390625 C 483.179688 223.40625 478.90625 227.777344 469.730469 228.496094 L 464.609375 228.898438 C 464.726562 230.390625 465.210938 231.386719 466.066406 231.894531 C 466.929688 232.402344 468.152344 232.589844 469.734375 232.46875 C 473.195312 232.195312 476.414062 231.144531 479.394531 229.316406 C 479.4375 229.261719 479.6875 229.589844 480.140625 230.292969 C 481.492188 232.335938 482.226562 234.089844 482.339844 235.550781 C 482.453125 237.007812 482.0625 238 481.160156 238.515625 Z M 470.230469 217.773438 C 470.066406 215.695312 468.976562 214.734375 466.949219 214.894531 C 466.015625 214.96875 465.234375 215.316406 464.601562 215.9375 C 463.980469 216.5625 463.714844 217.414062 463.796875 218.5 L 463.980469 220.804688 L 467.984375 220.488281 C 469.613281 220.363281 470.363281 219.457031 470.230469 217.773438 Z M 517.140625 235.691406 C 514.167969 237.761719 510.238281 238.992188 505.351562 239.375 C 500.464844 239.757812 496.214844 238.414062 492.597656 235.339844 C 488.984375 232.257812 486.945312 227.757812 486.480469 221.839844 C 486.019531 215.917969 487.261719 211.03125 490.210938 207.167969 C 493.167969 203.296875 497.113281 201.167969 502.046875 200.777344 C 506.984375 200.390625 510.894531 201.355469 513.78125 203.667969 C 516.667969 205.980469 518.25 208.945312 518.535156 212.5625 C 519.160156 220.578125 514.882812 224.949219 505.707031 225.671875 L 500.589844 226.074219 C 500.707031 227.5625 501.191406 228.558594 502.046875 229.066406 C 502.910156 229.574219 504.132812 229.765625 505.710938 229.640625 C 509.171875 229.367188 512.394531 228.316406 515.371094 226.488281 C 515.417969 226.433594 515.664062 226.761719 516.117188 227.464844 C 517.472656 229.507812 518.203125 231.261719 518.316406 232.722656 C 518.433594 234.183594 518.039062 235.171875 517.140625 235.691406 Z M 506.207031 214.945312 C 506.046875 212.867188 504.953125 211.90625 502.929688 212.066406 C 501.992188 212.140625 501.210938 212.488281 500.582031 213.113281 C 499.960938 213.734375 499.691406 214.585938 499.777344 215.671875 L 499.957031 217.976562 L 503.960938 217.664062 C 505.589844 217.535156 506.339844 216.628906 506.207031 214.945312 Z M 542.277344 235.277344 C 542.324219 235.875 540.277344 236.335938 536.132812 236.664062 C 531.179688 236.847656 528.6875 236.71875 528.652344 236.273438 L 526.601562 209.988281 L 522.828125 210.28125 C 521.832031 210.359375 521.203125 208.6875 520.9375 205.265625 C 520.867188 204.375 520.867188 203.28125 520.941406 201.980469 C 521.015625 200.679688 521.324219 200.007812 521.875 199.964844 L 525.792969 199.65625 L 525.28125 193.113281 C 525.207031 192.128906 527.25 191.472656 531.414062 191.144531 C 535.585938 190.816406 537.707031 191.046875 537.765625 191.839844 L 538.140625 196.601562 L 538.375 198.667969 L 544.675781 198.171875 C 545.515625 198.105469 546.070312 199.808594 546.34375 203.28125 C 546.613281 206.746094 546.328125 208.507812 545.488281 208.574219 L 540.226562 208.988281 Z M 553.042969 221.425781 C 557.230469 223.539062 560.484375 224.503906 562.796875 224.320312 C 564.28125 224.203125 564.984375 223.628906 564.902344 222.59375 C 564.84375 221.847656 563.484375 220.984375 560.828125 219.996094 C 554.464844 217.957031 551.054688 214.0625 550.605469 208.320312 C 550.320312 204.652344 551.433594 201.753906 553.941406 199.621094 C 556.460938 197.476562 559.582031 196.257812 563.304688 195.964844 C 567.035156 195.671875 570.222656 195.820312 572.867188 196.410156 C 575.519531 197 576.898438 197.9375 577 199.222656 C 577.082031 200.308594 576.664062 201.785156 575.746094 203.65625 C 574.824219 205.519531 574.171875 206.539062 573.789062 206.714844 C 571.574219 205.703125 569.234375 205.292969 566.765625 205.488281 C 565.4375 205.589844 564.808594 206.113281 564.882812 207.050781 C 564.925781 207.640625 565.222656 208.128906 565.765625 208.515625 C 566.320312 208.890625 567.308594 209.332031 568.734375 209.84375 C 570.171875 210.351562 571.363281 210.824219 572.308594 211.253906 C 573.261719 211.675781 574.34375 212.285156 575.550781 213.085938 C 578.066406 214.777344 579.445312 217.136719 579.679688 220.164062 C 579.992188 224.117188 578.929688 227.425781 576.5 230.089844 C 574.078125 232.742188 570.226562 234.277344 564.945312 234.691406 C 561.445312 234.964844 558.21875 234.621094 555.261719 233.65625 C 552.304688 232.691406 550.746094 231.171875 550.585938 229.089844 C 550.476562 227.707031 550.695312 226.226562 551.242188 224.644531 C 551.785156 223.054688 552.386719 221.980469 553.042969 221.425781 Z M 553.042969 221.425781 "/>
<path style="fill:none;stroke-width:8.5;stroke-linecap:butt;stroke-linejoin:miter;stroke:rgb(0%,0%,0%);stroke-opacity:0.505882;stroke-miterlimit:10;" d="M 220.82722 181.546965 C 222.247956 167.474699 226.141751 128.931731 226.770794 122.693449 C 227.051022 119.916106 230.758652 117.668059 233.56681 117.951262 C 239.367331 118.537199 260.239408 120.644621 260.239408 120.644621 L 276.000755 139.834074 C 276.000755 139.834074 272.134395 178.121184 271.327025 186.117278 C 271.044837 188.912199 268.185729 191.519621 264.266458 191.123137 C 253.480625 190.033293 232.467454 187.912199 226.563073 187.316496 C 223.533477 187.009856 220.50388 184.748137 220.82722 181.546965 Z M 220.82722 181.546965 " transform="matrix(1.993355,0,0,2,-179.401993,-210.00018)"/>
<path style=" stroke:none;fill-rule:nonzero;fill:rgb(20.392157%,65.882353%,32.54902%);fill-opacity:1;" d="M 260.785156 153.09375 C 263.617188 124.949219 271.378906 47.863281 272.632812 35.386719 C 273.191406 29.832031 280.582031 25.335938 286.179688 25.902344 C 297.742188 27.074219 339.347656 31.289062 339.347656 31.289062 L 370.765625 69.667969 C 370.765625 69.667969 363.058594 146.242188 361.449219 162.234375 C 360.886719 167.824219 355.1875 173.039062 347.375 172.246094 C 325.875 170.066406 283.988281 165.824219 272.21875 164.632812 C 266.179688 164.019531 260.140625 159.496094 260.785156 153.09375 Z M 260.785156 153.09375 "/>
<path style=" stroke:none;fill-rule:nonzero;fill:rgb(9.411765%,50.196078%,21.960784%);fill-opacity:1;" d="M 336.058594 65.898438 L 339.546875 31.226562 L 370.617188 69.402344 Z M 336.058594 65.898438 "/>
<path style=" stroke:none;fill-rule:nonzero;fill:rgb(100%,100%,100%);fill-opacity:1;" d="M 282.3125 127.140625 L 287.019531 80.375 L 349.867188 86.742188 L 345.160156 133.507812 Z M 282.3125 127.140625 "/>
<path style=" stroke:none;fill-rule:nonzero;fill:rgb(20.392157%,65.882353%,32.54902%);fill-opacity:1;" d="M 291.6875 99.957031 L 292.957031 87.34375 L 314.429688 89.519531 L 313.164062 102.132812 Z M 291.6875 99.957031 "/>
<path style=" stroke:none;fill-rule:nonzero;fill:rgb(20.392157%,65.882353%,32.54902%);fill-opacity:1;" d="M 319.972656 102.824219 L 321.238281 90.210938 L 342.714844 92.386719 L 341.445312 105 Z M 319.972656 102.824219 "/>
<path style=" stroke:none;fill-rule:nonzero;fill:rgb(20.392157%,65.882353%,32.54902%);fill-opacity:1;" d="M 289.757812 119.136719 L 291.027344 106.527344 L 312.5 108.699219 L 311.230469 121.3125 Z M 289.757812 119.136719 "/>
<path style=" stroke:none;fill-rule:nonzero;fill:rgb(20.392157%,65.882353%,32.54902%);fill-opacity:1;" d="M 318.039062 122.003906 L 319.308594 109.390625 L 340.78125 111.566406 L 339.511719 124.179688 Z M 318.039062 122.003906 "/>
</g>
</svg>
