<svg xmlns="http://www.w3.org/2000/svg" xmlns:xlink="http://www.w3.org/1999/xlink" width="600px" height="300px" viewBox="0 0 600 300" version="1.1">
<g id="surface1">
<path style=" stroke:none;fill-rule:nonzero;fill:rgb(18.039216%,55.686277%,72.156864%);fill-opacity:1;" d="M 0 300.238281 L 0 0.238281 L 599 0.238281 L 599 300.238281 Z M 0 300.238281 "/>
<path style=" stroke:none;fill-rule:nonzero;fill:rgb(9.803922%,43.921569%,58.823532%);fill-opacity:1;" d="M 14.398438 95.800781 C 14.398438 62.4375 20.183594 30.09375 30.808594 0.378906 C 39.222656 0.449219 560.152344 -0.34375 562.113281 0.179688 C 573.996094 29.050781 579.214844 63.109375 579.214844 95.800781 C 579.214844 149.566406 564.191406 199.820312 538.113281 242.597656 C 525.550781 263.203125 508.425781 283.574219 491.179688 300.261719 C 489.738281 300.582031 117.339844 298.519531 98.601562 299.96875 C 46.625 248.75 14.398438 174.539062 14.398438 95.800781 Z M 14.398438 95.800781 "/>
<path style=" stroke:none;fill-rule:nonzero;fill:rgb(18.039216%,55.686277%,72.156864%);fill-opacity:1;" d="M 62.03125 95.800781 C 62.03125 62.105469 69.128906 29.402344 81.910156 0.433594 C 117.945312 0.433594 508.425781 0.179688 511.894531 0.199219 C 524.558594 29.050781 531.585938 62.273438 531.585938 95.800781 C 531.585938 185.59375 482.179688 261.109375 408.121094 300.601562 C 377.082031 300.601562 195.5 299.601562 182.996094 299.601562 C 108.9375 260.109375 62.03125 185.59375 62.03125 95.800781 Z M 62.03125 95.800781 "/>
<path style=" stroke:none;fill-rule:nonzero;fill:rgb(9.803922%,43.921569%,58.823532%);fill-opacity:1;" d="M 110.0625 95.800781 C 110.0625 61.238281 119.453125 28.199219 135.820312 0.433594 C 153.882812 0.433594 429.582031 0.101562 455.371094 0.101562 C 473.234375 28.738281 483.554688 59.5625 483.554688 95.800781 C 483.554688 198.9375 399.945312 282.546875 296.808594 282.546875 C 193.671875 282.546875 110.0625 198.9375 110.0625 95.800781 Z M 110.0625 95.800781 "/>
<path style=" stroke:none;fill-rule:nonzero;fill:rgb(18.039216%,55.686277%,72.156864%);fill-opacity:1;" d="M 148.683594 95.800781 C 148.683594 59.789062 160.535156 26.441406 181.902344 0.769531 C 184.273438 0.769531 397.511719 0.101562 407.261719 0.101562 C 430.6875 26.300781 444.933594 57.886719 444.933594 95.800781 C 444.933594 177.609375 378.617188 243.925781 296.808594 243.925781 C 215 243.925781 148.683594 177.609375 148.683594 95.800781 Z M 148.683594 95.800781 "/>
<path style=" stroke:none;fill-rule:nonzero;fill:rgb(9.803922%,43.921569%,58.823532%);fill-opacity:1;" d="M 178.988281 95.800781 C 178.988281 57.066406 198.179688 21.945312 227.035156 0.472656 C 260.597656 0.644531 350.378906 0.117188 361.824219 0.207031 C 394.207031 21.203125 414.628906 54.332031 414.628906 95.800781 C 414.628906 160.871094 361.878906 213.621094 296.808594 213.621094 C 231.738281 213.621094 178.988281 160.871094 178.988281 95.800781 Z M 178.988281 95.800781 "/>
<path style=" stroke:none;fill-rule:nonzero;fill:rgb(0%,0%,0%);fill-opacity:0.501961;" d="M 210.839844 95.800781 C 210.839844 48.320312 249.328125 9.832031 296.808594 9.832031 C 344.285156 9.832031 382.777344 48.320312 382.777344 95.800781 C 382.777344 143.28125 344.285156 181.769531 296.808594 181.769531 C 249.328125 181.769531 210.839844 143.28125 210.839844 95.800781 Z M 210.839844 95.800781 "/>
<path style=" stroke:none;fill-rule:nonzero;fill:rgb(100%,100%,100%);fill-opacity:1;" d="M 220.839844 95.800781 C 220.839844 53.84375 254.851562 19.832031 296.808594 19.832031 C 338.765625 19.832031 372.777344 53.84375 372.777344 95.800781 C 372.777344 137.757812 338.765625 171.769531 296.808594 171.769531 C 254.851562 171.769531 220.839844 137.757812 220.839844 95.800781 Z M 220.839844 95.800781 "/>
<path style=" stroke:none;fill-rule:nonzero;fill:rgb(36.078432%,69.411767%,83.92157%);fill-opacity:1;" d="M 230.039062 95.800781 C 230.039062 58.925781 259.933594 29.03125 296.808594 29.03125 C 333.683594 29.03125 363.578125 58.925781 363.578125 95.800781 C 363.578125 132.675781 333.683594 162.570312 296.808594 162.570312 C 259.933594 162.570312 230.039062 132.675781 230.039062 95.800781 Z M 230.039062 95.800781 "/>
<path style=" stroke:none;fill-rule:nonzero;fill:rgb(100%,100%,100%);fill-opacity:1;" d="M 329.242188 130.8125 C 328.582031 130.8125 327.921875 130.558594 327.417969 130.058594 L 263.089844 65.730469 C 262.085938 64.722656 262.085938 63.089844 263.089844 62.085938 C 264.097656 61.078125 265.730469 61.078125 266.734375 62.085938 L 331.0625 126.410156 C 332.070312 127.417969 332.070312 129.050781 331.0625 130.054688 C 330.558594 130.558594 329.898438 130.8125 329.242188 130.8125 Z M 329.242188 130.8125 "/>
<path style=" stroke:none;fill-rule:nonzero;fill:rgb(100%,100%,100%);fill-opacity:1;" d="M 290.148438 74.964844 C 290.148438 82.792969 283.800781 89.140625 275.972656 89.140625 C 268.144531 89.140625 261.796875 82.792969 261.796875 74.964844 C 261.796875 67.136719 268.144531 60.792969 275.972656 60.792969 C 283.800781 60.792969 290.148438 67.136719 290.148438 74.964844 Z M 290.148438 74.964844 "/>
<path style=" stroke:none;fill-rule:nonzero;fill:rgb(100%,100%,100%);fill-opacity:1;" d="M 288.183594 104.230469 C 280.5625 102.429688 275.847656 94.796875 277.644531 87.175781 C 279.445312 79.558594 287.078125 74.839844 294.699219 76.640625 C 302.316406 78.4375 307.035156 86.074219 305.238281 93.691406 C 303.4375 101.3125 295.800781 106.027344 288.183594 104.230469 Z M 288.183594 104.230469 "/>
<path style=" stroke:none;fill-rule:nonzero;fill:rgb(100%,100%,100%);fill-opacity:1;" d="M 321.078125 105.894531 C 321.078125 113.722656 314.730469 120.070312 306.902344 120.070312 C 299.074219 120.070312 292.726562 113.722656 292.726562 105.894531 C 292.726562 98.066406 299.074219 91.71875 306.902344 91.71875 C 314.730469 91.71875 321.078125 98.066406 321.078125 105.894531 Z M 321.078125 105.894531 "/>
<path style=" stroke:none;fill-rule:nonzero;fill:rgb(100%,100%,100%);fill-opacity:1;" d="M 329.242188 130.8125 C 328.582031 130.8125 327.921875 130.558594 327.417969 130.058594 L 311.632812 114.269531 C 310.625 113.265625 310.625 111.632812 311.632812 110.625 C 312.640625 109.621094 314.269531 109.621094 315.277344 110.625 L 331.0625 126.414062 C 332.070312 127.417969 332.070312 129.054688 331.0625 130.058594 C 330.558594 130.558594 329.898438 130.8125 329.242188 130.8125 Z M 329.242188 130.8125 "/>
<path style="fill-rule:nonzero;fill:rgb(100%,100%,100%);fill-opacity:1;stroke-width:1.5;stroke-linecap:butt;stroke-linejoin:miter;stroke:rgb(100%,100%,100%);stroke-opacity:1;stroke-miterlimit:10;" d="M 210.957031 152.780869 L 217.144531 146.593369 L 217.144531 158.968369 Z M 210.957031 152.780869 " transform="matrix(2,0,0,2,-180.5,-209.760956)"/>
<path style="fill-rule:nonzero;fill:rgb(100%,100%,100%);fill-opacity:1;stroke-width:1.5;stroke-linecap:butt;stroke-linejoin:miter;stroke:rgb(100%,100%,100%);stroke-opacity:1;stroke-miterlimit:10;" d="M 244.841797 131.271103 L 232.466797 131.271103 L 238.654297 125.083603 Z M 244.841797 131.271103 " transform="matrix(2,0,0,2,-180.5,-209.760956)"/>
<path style="fill-rule:nonzero;fill:rgb(100%,100%,100%);fill-opacity:1;stroke-width:1.5;stroke-linecap:butt;stroke-linejoin:miter;stroke:rgb(100%,100%,100%);stroke-opacity:1;stroke-miterlimit:10;" d="M 266.349609 152.780869 L 260.164062 158.968369 L 260.164062 146.593369 Z M 266.349609 152.780869 " transform="matrix(2,0,0,2,-180.5,-209.760956)"/>
<path style="fill-rule:nonzero;fill:rgb(100%,100%,100%);fill-opacity:1;stroke-width:1.5;stroke-linecap:butt;stroke-linejoin:miter;stroke:rgb(100%,100%,100%);stroke-opacity:1;stroke-miterlimit:10;" d="M 232.466797 174.290634 L 244.841797 174.290634 L 238.654297 180.478134 Z M 232.466797 174.290634 " transform="matrix(2,0,0,2,-180.5,-209.760956)"/>
<path style="fill:none;stroke-width:7.5;stroke-linecap:square;stroke-linejoin:miter;stroke:rgb(0%,0%,0%);stroke-opacity:0.505882;stroke-miterlimit:10;" d="M 145.636719 231.064072 C 145.636719 231.573837 144.126953 231.829697 141.105469 231.829697 C 138.089844 231.829697 136.582031 231.573837 136.582031 231.064072 L 136.582031 220.765244 L 130.3125 220.765244 L 130.3125 231.064072 C 130.3125 231.573837 128.804688 231.829697 125.789062 231.829697 C 122.773438 231.829697 121.265625 231.573837 121.265625 231.064072 L 121.265625 201.358994 C 121.265625 200.733994 122.773438 200.421494 125.789062 200.421494 C 128.804688 200.421494 130.3125 200.733994 130.3125 201.358994 L 130.3125 211.890244 L 136.582031 211.890244 L 136.582031 201.448837 C 136.582031 201.032822 137.330078 200.735947 138.826172 200.556259 C 139.601562 200.495712 140.363281 200.466415 141.113281 200.466415 L 143.394531 200.556259 C 144.888672 200.735947 145.636719 201.032822 145.636719 201.448837 Z M 148.328125 209.648056 C 148.328125 209.321884 149.693359 209.159775 152.423828 209.159775 C 155.158203 209.159775 156.572266 209.306259 156.662109 209.603134 L 159.886719 220.179306 L 162.978516 209.511337 C 163.097656 209.276962 164.023438 209.159775 165.753906 209.159775 C 169.728516 209.159775 171.626953 209.353134 171.447266 209.7379 L 160.914062 239.712509 C 160.884766 239.892197 160.070312 239.983994 158.46875 239.983994 C 156.873047 239.983994 155.388672 239.931259 154.013672 239.82579 C 152.642578 239.720322 151.986328 239.593369 152.041016 239.442978 L 155.941406 230.036728 Z M 183.587891 239.983994 C 183.587891 240.192978 182.310547 240.298447 179.753906 240.298447 C 177.205078 240.298447 175.929688 240.192978 175.929688 239.983994 L 175.929688 216.907822 L 174.40625 216.907822 C 173.685547 216.907822 173.191406 216.251572 172.919922 214.935165 C 172.830078 214.521103 172.785156 213.985947 172.785156 213.329697 C 172.785156 212.66954 172.996094 211.892197 173.416016 210.997665 C 174.015625 209.683212 174.970703 209.025009 176.28125 209.025009 C 177.152344 209.025009 177.951172 209.228134 178.681641 209.632431 C 179.412109 210.032822 179.919922 210.405869 180.205078 210.749619 C 180.490234 211.089462 180.632812 211.290634 180.632812 211.349228 C 182.632812 209.8004 184.798828 209.025009 187.128906 209.025009 C 189.458984 209.025009 191.458984 209.927353 193.128906 211.73204 C 194.804688 213.538681 195.642578 216.33165 195.642578 220.110947 C 195.642578 223.892197 194.804688 226.819931 193.128906 228.896103 C 191.458984 230.972275 189.339844 232.009384 186.767578 232.009384 C 185.603516 232.009384 184.542969 231.948837 183.587891 231.829697 Z M 185.425781 216.8629 C 184.916016 216.8629 184.423828 217.028915 183.947266 217.358994 L 183.947266 225.288681 C 184.453125 225.347275 184.863281 225.378525 185.177734 225.378525 C 185.494141 225.378525 185.740234 225.378525 185.919922 225.378525 C 187.140625 225.257431 190.251953 223.689072 190.251953 220.673447 C 190.251953 218.134384 186.976562 216.8629 185.425781 216.8629 Z M 201.013672 229.255478 C 198.982422 227.235947 197.96875 224.442978 197.96875 220.876572 C 197.96875 217.306259 198.945312 214.431259 200.900391 212.249619 C 202.861328 210.069931 205.333984 208.980087 208.320312 208.980087 C 211.306641 208.980087 213.611328 209.741806 215.236328 211.267197 C 216.867188 212.788681 217.681641 214.63829 217.681641 216.817978 C 217.681641 221.659775 214.904297 224.079697 209.347656 224.079697 L 206.257812 224.079697 C 206.257812 224.976181 206.501953 225.595322 206.992188 225.941025 C 207.488281 226.280869 208.214844 226.45079 209.175781 226.45079 C 211.265625 226.45079 213.251953 225.972275 215.130859 225.017197 C 215.162109 224.9879 215.296875 225.196884 215.537109 225.648056 C 216.251953 226.933212 216.609375 228.015244 216.609375 228.896103 C 216.609375 229.776962 216.326172 230.351181 215.761719 230.620712 C 215.761719 230.620712 211.455078 232.278915 208.5 232.278915 C 208.5 232.278915 203.048828 231.271103 201.013672 229.255478 Z M 210.158203 217.673447 C 210.158203 216.41954 209.544922 215.790634 208.320312 215.790634 C 207.755859 215.790634 207.269531 215.962509 206.865234 216.308212 C 206.458984 216.648056 206.257812 217.146103 206.257812 217.8004 L 206.257812 219.196884 L 208.679688 219.196884 C 209.666016 219.196884 210.158203 218.689072 210.158203 217.673447 Z M 230.410156 231.784775 C 230.410156 231.993759 229.050781 232.099228 226.330078 232.099228 C 223.615234 232.038681 222.257812 231.91954 222.257812 231.739853 L 222.257812 216.8629 L 221.048828 216.8629 C 220.568359 216.8629 220.185547 216.573837 219.902344 215.993759 C 219.617188 215.407822 219.474609 214.683212 219.474609 213.817978 C 219.474609 210.593369 220.431641 208.980087 222.347656 208.980087 C 223.691406 208.980087 224.8125 209.390244 225.707031 210.210556 C 226.603516 211.030869 227.050781 211.962509 227.050781 213.007431 C 227.675781 211.782822 228.517578 210.804306 229.578125 210.07579 C 230.638672 209.345322 231.720703 208.980087 232.826172 208.980087 C 234.5625 208.980087 235.609375 209.427353 235.96875 210.321884 C 236.054688 210.562119 236.097656 210.915634 236.097656 211.380478 C 236.097656 211.839462 235.955078 212.667587 235.669922 213.8629 C 235.388672 215.058212 235.099609 215.9254 234.798828 216.466415 C 234.5 217.001572 234.318359 217.26915 234.259766 217.26915 C 234.205078 217.26915 233.929688 217.155869 233.433594 216.931259 C 232.939453 216.70665 232.498047 216.593369 232.113281 216.593369 C 230.978516 216.593369 230.410156 217.491806 230.410156 219.286728 Z M 248.154297 220.900009 C 248.71875 221.345322 249.697266 221.95665 251.085938 222.7379 C 252.476562 223.51329 253.806641 223.900009 255.078125 223.900009 C 256.347656 223.900009 256.982422 223.407822 256.982422 222.421494 C 256.982422 221.972275 256.802734 221.577744 256.443359 221.2379 C 256.082031 220.892197 255.425781 220.497665 254.470703 220.052353 C 253.513672 219.601181 252.796875 219.249619 252.316406 218.993759 C 251.841797 218.739853 251.207031 218.321884 250.412109 217.741806 C 249.621094 217.155869 249.019531 216.5504 248.603516 215.9254 C 247.408203 214.220322 246.810547 212.054306 246.810547 209.429306 C 246.810547 206.798447 247.789062 204.58165 249.744141 202.775009 C 251.699219 200.966415 254.259766 200.060165 257.425781 200.060165 C 259.576172 200.060165 261.560547 200.292587 263.380859 200.757431 C 265.207031 201.218369 266.150391 201.823837 266.208984 202.573837 C 266.208984 202.663681 266.208984 202.751572 266.208984 202.835556 C 266.208984 203.886337 265.878906 205.210556 265.21875 206.812119 C 264.564453 208.407822 264.103516 209.292587 263.839844 209.466415 C 261.923828 208.48204 260.210938 207.989853 258.701172 207.989853 C 257.195312 207.989853 256.443359 208.526962 256.443359 209.603134 C 256.443359 210.26329 256.996094 210.845322 258.099609 211.349228 C 258.339844 211.470322 258.683594 211.634384 259.128906 211.845322 C 259.578125 212.054306 260.09375 212.302353 260.673828 212.587509 C 261.257812 212.868759 261.886719 213.226181 262.556641 213.659775 C 263.230469 214.095322 263.957031 214.671494 264.732422 215.386337 C 266.316406 216.880478 267.109375 218.851181 267.109375 221.296494 C 267.109375 224.491806 266.226562 227.108994 264.460938 229.14415 C 262.701172 231.173447 259.982422 232.218369 256.308594 232.278915 C 254.517578 232.278915 252.896484 232.128525 251.447266 231.829697 C 249.996094 231.528915 248.734375 230.946884 247.658203 230.08165 C 246.583984 229.216415 246.044922 228.171494 246.044922 226.944931 C 246.044922 225.720322 246.267578 224.503525 246.712891 223.292587 C 247.164062 222.08165 247.642578 221.284775 248.154297 220.900009 Z M 280.234375 232.278915 C 277.279297 232.278915 274.783203 231.271103 272.748047 229.255478 C 270.71875 227.235947 269.703125 224.442978 269.703125 220.876572 C 269.703125 217.306259 270.679688 214.431259 272.634766 212.249619 C 274.595703 210.069931 277.068359 208.980087 280.054688 208.980087 C 283.041016 208.980087 285.345703 209.741806 286.970703 211.267197 C 288.601562 212.788681 289.416016 214.63829 289.416016 216.817978 C 289.416016 221.659775 286.638672 224.079697 281.082031 224.079697 L 277.992188 224.079697 C 277.992188 224.976181 278.236328 225.595322 278.726562 225.941025 C 279.222656 226.280869 279.949219 226.45079 280.910156 226.45079 C 283 226.45079 284.986328 225.972275 286.865234 225.017197 C 286.896484 224.9879 287.03125 225.196884 287.271484 225.648056 C 287.986328 226.933212 288.34375 228.015244 288.34375 228.896103 C 288.34375 229.776962 288.060547 230.351181 287.496094 230.620712 C 287.496094 230.620712 283.189453 232.278915 280.234375 232.278915 Z M 281.892578 217.673447 C 281.892578 216.41954 281.279297 215.790634 280.054688 215.790634 C 279.490234 215.790634 279.003906 215.962509 278.599609 216.308212 C 278.193359 216.648056 277.992188 217.146103 277.992188 217.8004 L 277.992188 219.196884 L 280.414062 219.196884 C 281.400391 219.196884 281.892578 218.689072 281.892578 217.673447 Z M 301.695312 231.558212 C 301.695312 231.76915 300.621094 231.874619 298.470703 231.874619 C 295.484375 231.784775 293.992188 231.618759 293.992188 231.378525 L 293.992188 216.8629 L 292.820312 216.8629 C 292.046875 216.8629 291.539062 216.20665 291.298828 214.890244 C 291.238281 214.505478 291.208984 214.118759 291.208984 213.728134 C 291.208984 212.802353 291.388672 211.878525 291.748047 210.952744 C 292.289062 209.636337 293.126953 208.980087 294.261719 208.980087 C 295.396484 208.980087 296.412109 209.249619 297.306641 209.790634 C 298.203125 210.32579 298.800781 210.860947 299.099609 211.39415 C 300.980469 209.784775 303.21875 208.980087 305.814453 208.980087 C 308.414062 208.980087 310.296875 209.683212 311.462891 211.087509 C 312.626953 212.4879 313.210938 214.786728 313.210938 217.98204 L 313.210938 231.423447 C 313.210938 231.784775 311.931641 231.964462 309.376953 231.964462 C 306.826172 231.964462 305.550781 231.784775 305.550781 231.423447 L 305.550781 218.476181 C 305.550781 216.98204 305.029297 216.233994 303.982422 216.233994 C 303.683594 216.233994 303.263672 216.360947 302.722656 216.616806 C 302.1875 216.870712 301.845703 217.058212 301.695312 217.179306 Z M 317.958984 223.765244 C 320.378906 225.230087 322.292969 225.962509 323.697266 225.962509 C 324.59375 225.962509 325.041016 225.648056 325.041016 225.017197 C 325.041016 224.571884 324.263672 223.989853 322.707031 223.26915 C 318.976562 221.749619 317.111328 219.257431 317.111328 215.790634 C 317.111328 213.579697 317.916016 211.892197 319.527344 210.728134 C 321.142578 209.562119 323.078125 208.980087 325.333984 208.980087 C 327.587891 208.980087 329.5 209.220322 331.064453 209.698837 C 332.634766 210.1754 333.419922 210.8004 333.419922 211.57579 C 333.419922 212.235947 333.097656 213.103134 332.453125 214.177353 C 331.8125 215.253525 331.371094 215.835556 331.132812 215.9254 C 329.845703 215.20665 328.458984 214.845322 326.96875 214.845322 C 326.164062 214.845322 325.761719 215.130478 325.761719 215.70079 C 325.761719 216.056259 325.916016 216.360947 326.226562 216.616806 C 326.541016 216.870712 327.115234 217.187119 327.951172 217.562119 C 328.787109 217.931259 329.478516 218.267197 330.029297 218.566025 C 330.583984 218.866806 331.207031 219.284775 331.896484 219.819931 C 333.332031 220.954697 334.050781 222.435165 334.050781 224.259384 C 334.050781 226.646103 333.257812 228.577744 331.671875 230.058212 C 330.085938 231.538681 327.695312 232.278915 324.5 232.278915 C 322.380859 232.278915 320.453125 231.921494 318.716797 231.20665 C 316.986328 230.485947 316.121094 229.497665 316.121094 228.243759 C 316.121094 227.407822 316.324219 226.528915 316.728516 225.603134 C 317.134766 224.677353 317.544922 224.064072 317.958984 223.765244 Z M 346.861328 232.278915 C 343.90625 232.278915 341.410156 231.271103 339.375 229.255478 C 337.34375 227.235947 336.330078 224.442978 336.330078 220.876572 C 336.330078 217.306259 337.306641 214.431259 339.261719 212.249619 C 341.222656 210.069931 343.695312 208.980087 346.681641 208.980087 C 349.666016 208.980087 351.972656 209.741806 353.597656 211.267197 C 355.228516 212.788681 356.042969 214.63829 356.042969 216.817978 C 356.042969 221.659775 353.265625 224.079697 347.708984 224.079697 L 344.619141 224.079697 C 344.619141 224.976181 344.863281 225.595322 345.353516 225.941025 C 345.847656 226.280869 346.576172 226.45079 347.537109 226.45079 C 349.626953 226.45079 351.611328 225.972275 353.492188 225.017197 C 353.523438 224.9879 353.658203 225.196884 353.898438 225.648056 C 354.613281 226.933212 354.970703 228.015244 354.970703 228.896103 C 354.970703 229.776962 354.6875 230.351181 354.123047 230.620712 C 354.123047 230.620712 349.816406 232.278915 346.861328 232.278915 Z M 348.519531 217.673447 C 348.519531 216.41954 347.90625 215.790634 346.681641 215.790634 C 346.115234 215.790634 345.630859 215.962509 345.226562 216.308212 C 344.820312 216.648056 344.619141 217.146103 344.619141 217.8004 L 344.619141 219.196884 L 347.041016 219.196884 C 348.027344 219.196884 348.519531 218.689072 348.519531 217.673447 Z M 348.519531 217.673447 " transform="matrix(2,0,0,2,-180.5,-209.760956)"/>
<path style=" stroke:none;fill-rule:nonzero;fill:rgb(100%,100%,100%);fill-opacity:1;" d="M 110.773438 252.367188 C 110.773438 253.386719 107.753906 253.898438 101.710938 253.898438 C 95.679688 253.898438 92.664062 253.386719 92.664062 252.367188 L 92.664062 231.769531 L 80.125 231.769531 L 80.125 252.367188 C 80.125 253.386719 77.109375 253.898438 71.078125 253.898438 C 65.046875 253.898438 62.03125 253.386719 62.03125 252.367188 L 62.03125 192.957031 C 62.03125 191.707031 65.046875 191.082031 71.078125 191.082031 C 77.109375 191.082031 80.125 191.707031 80.125 192.957031 L 80.125 214.019531 L 92.664062 214.019531 L 92.664062 193.136719 C 92.664062 192.304688 94.160156 191.710938 97.152344 191.351562 C 98.703125 191.230469 100.226562 191.171875 101.726562 191.171875 L 106.289062 191.351562 C 109.277344 191.710938 110.773438 192.304688 110.773438 193.136719 Z M 116.15625 209.535156 C 116.15625 208.882812 118.886719 208.558594 124.347656 208.558594 C 129.816406 208.558594 132.644531 208.851562 132.824219 209.445312 L 139.273438 230.597656 L 145.457031 209.261719 C 145.695312 208.792969 147.546875 208.558594 151.007812 208.558594 C 158.957031 208.558594 162.753906 208.945312 162.394531 209.714844 L 141.328125 269.664062 C 141.269531 270.023438 139.640625 270.207031 136.4375 270.207031 C 133.246094 270.207031 130.277344 270.101562 127.527344 269.890625 C 124.785156 269.679688 123.472656 269.425781 123.582031 269.125 L 131.382812 250.3125 Z M 186.675781 270.207031 C 186.675781 270.625 184.121094 270.835938 179.007812 270.835938 C 173.910156 270.835938 171.359375 270.625 171.359375 270.207031 L 171.359375 224.054688 L 168.3125 224.054688 C 166.871094 224.054688 165.882812 222.742188 165.339844 220.109375 C 165.160156 219.28125 165.070312 218.210938 165.070312 216.898438 C 165.070312 215.578125 165.492188 214.023438 166.332031 212.234375 C 167.53125 209.605469 169.441406 208.289062 172.0625 208.289062 C 173.804688 208.289062 175.402344 208.695312 176.863281 209.503906 C 178.324219 210.304688 179.339844 211.050781 179.910156 211.738281 C 180.480469 212.417969 180.765625 212.820312 180.765625 212.9375 C 184.765625 209.839844 189.097656 208.289062 193.757812 208.289062 C 198.417969 208.289062 202.417969 210.09375 205.757812 213.703125 C 209.109375 217.316406 210.785156 222.902344 210.785156 230.460938 C 210.785156 238.023438 209.109375 243.878906 205.757812 248.03125 C 202.417969 252.183594 198.179688 254.257812 193.035156 254.257812 C 190.707031 254.257812 188.585938 254.136719 186.675781 253.898438 Z M 190.351562 223.964844 C 189.332031 223.964844 188.347656 224.296875 187.394531 224.957031 L 187.394531 240.816406 C 188.40625 240.933594 189.226562 240.996094 189.855469 240.996094 C 190.488281 240.996094 190.980469 240.996094 191.339844 240.996094 C 193.78125 240.753906 195.003906 237.617188 195.003906 231.585938 C 195.003906 226.507812 193.453125 223.964844 190.351562 223.964844 Z M 251.023438 251.480469 C 247.253906 253.691406 242.410156 254.796875 236.5 254.796875 C 230.589844 254.796875 225.597656 252.78125 221.527344 248.75 C 217.464844 244.710938 215.4375 239.125 215.4375 231.992188 C 215.4375 224.851562 217.390625 219.101562 221.300781 214.738281 C 225.222656 210.378906 230.167969 208.199219 236.140625 208.199219 C 242.113281 208.199219 246.722656 209.722656 249.972656 212.773438 C 253.234375 215.816406 254.863281 219.515625 254.863281 223.875 C 254.863281 233.558594 249.308594 238.398438 238.195312 238.398438 L 232.015625 238.398438 C 232.015625 240.191406 232.503906 241.429688 233.484375 242.121094 C 234.476562 242.800781 235.929688 243.140625 237.851562 243.140625 C 242.03125 243.140625 246.003906 242.183594 249.761719 240.273438 C 249.824219 240.214844 250.09375 240.632812 250.574219 241.535156 C 252.003906 244.105469 252.71875 246.269531 252.71875 248.03125 C 252.71875 249.792969 252.152344 250.941406 251.023438 251.480469 Z M 239.816406 225.585938 C 239.816406 223.078125 238.589844 221.820312 236.140625 221.820312 C 235.011719 221.820312 234.039062 222.164062 233.230469 222.855469 C 232.417969 223.535156 232.015625 224.53125 232.015625 225.839844 L 232.015625 228.632812 L 236.859375 228.632812 C 238.832031 228.632812 239.816406 227.617188 239.816406 225.585938 Z M 280.320312 253.808594 C 280.320312 254.226562 277.601562 254.4375 272.160156 254.4375 C 266.730469 254.316406 264.015625 254.078125 264.015625 253.71875 L 264.015625 223.964844 L 261.597656 223.964844 C 260.636719 223.964844 259.871094 223.386719 259.304688 222.226562 C 258.734375 221.054688 258.449219 219.605469 258.449219 217.875 C 258.449219 211.425781 260.363281 208.199219 264.195312 208.199219 C 266.882812 208.199219 269.125 209.019531 270.914062 210.660156 C 272.707031 212.300781 273.601562 214.164062 273.601562 216.253906 C 274.851562 213.804688 276.535156 211.847656 278.65625 210.390625 C 280.777344 208.929688 282.941406 208.199219 285.152344 208.199219 C 288.625 208.199219 290.71875 209.09375 291.4375 210.882812 C 291.609375 211.363281 291.695312 212.070312 291.695312 213 C 291.695312 213.917969 291.410156 215.574219 290.839844 217.964844 C 290.277344 220.355469 289.699219 222.089844 289.097656 223.171875 C 288.5 224.242188 288.136719 224.777344 288.019531 224.777344 C 287.910156 224.777344 287.359375 224.550781 286.367188 224.101562 C 285.378906 223.652344 284.496094 223.425781 283.726562 223.425781 C 281.457031 223.425781 280.320312 225.222656 280.320312 228.8125 Z M 315.808594 232.039062 C 316.9375 232.929688 318.894531 234.152344 321.671875 235.714844 C 324.453125 237.265625 327.113281 238.039062 329.65625 238.039062 C 332.195312 238.039062 333.464844 237.054688 333.464844 235.082031 C 333.464844 234.183594 333.105469 233.394531 332.386719 232.714844 C 331.664062 232.023438 330.351562 231.234375 328.441406 230.34375 C 326.527344 229.441406 325.09375 228.738281 324.132812 228.226562 C 323.183594 227.71875 321.914062 226.882812 320.324219 225.722656 C 318.742188 224.550781 317.539062 223.339844 316.707031 222.089844 C 314.316406 218.679688 313.121094 214.347656 313.121094 209.097656 C 313.121094 203.835938 315.078125 199.402344 318.988281 195.789062 C 322.898438 192.171875 328.019531 190.359375 334.351562 190.359375 C 338.652344 190.359375 342.621094 190.824219 346.261719 191.753906 C 349.914062 192.675781 351.800781 193.886719 351.917969 195.386719 C 351.917969 195.566406 351.917969 195.742188 351.917969 195.910156 C 351.917969 198.011719 351.257812 200.660156 349.9375 203.863281 C 348.628906 207.054688 347.707031 208.824219 347.179688 209.171875 C 343.347656 207.203125 339.921875 206.21875 336.902344 206.21875 C 333.890625 206.21875 332.386719 207.292969 332.386719 209.445312 C 332.386719 210.765625 333.492188 211.929688 335.699219 212.9375 C 336.179688 213.179688 336.867188 213.507812 337.757812 213.929688 C 338.65625 214.347656 339.6875 214.84375 340.847656 215.414062 C 342.015625 215.976562 343.273438 216.691406 344.613281 217.558594 C 345.960938 218.429688 347.414062 219.582031 348.964844 221.011719 C 352.132812 224 353.71875 227.941406 353.71875 232.832031 C 353.71875 239.222656 351.953125 244.457031 348.421875 248.527344 C 344.902344 252.585938 339.464844 254.675781 332.117188 254.796875 C 328.535156 254.796875 325.292969 254.496094 322.394531 253.898438 C 319.492188 253.296875 316.96875 252.132812 314.816406 250.402344 C 312.667969 248.671875 311.589844 246.582031 311.589844 244.128906 C 311.589844 241.679688 312.035156 239.246094 312.925781 236.824219 C 313.828125 234.402344 314.785156 232.808594 315.808594 232.039062 Z M 394.492188 251.480469 C 390.722656 253.691406 385.878906 254.796875 379.96875 254.796875 C 374.058594 254.796875 369.066406 252.78125 364.996094 248.75 C 360.9375 244.710938 358.90625 239.125 358.90625 231.992188 C 358.90625 224.851562 360.859375 219.101562 364.769531 214.738281 C 368.691406 210.378906 373.636719 208.199219 379.609375 208.199219 C 385.582031 208.199219 390.191406 209.722656 393.441406 212.773438 C 396.703125 215.816406 398.332031 219.515625 398.332031 223.875 C 398.332031 233.558594 392.777344 238.398438 381.664062 238.398438 L 375.484375 238.398438 C 375.484375 240.191406 375.972656 241.429688 376.953125 242.121094 C 377.945312 242.800781 379.398438 243.140625 381.320312 243.140625 C 385.5 243.140625 389.472656 242.183594 393.230469 240.273438 C 393.292969 240.214844 393.5625 240.632812 394.042969 241.535156 C 395.472656 244.105469 396.1875 246.269531 396.1875 248.03125 C 396.1875 249.792969 395.621094 250.941406 394.492188 251.480469 Z M 383.285156 225.585938 C 383.285156 223.078125 382.058594 221.820312 379.609375 221.820312 C 378.480469 221.820312 377.507812 222.164062 376.699219 222.855469 C 375.886719 223.535156 375.484375 224.53125 375.484375 225.839844 L 375.484375 228.632812 L 380.328125 228.632812 C 382.300781 228.632812 383.285156 227.617188 383.285156 225.585938 Z M 422.890625 253.355469 C 422.890625 253.777344 420.742188 253.988281 416.441406 253.988281 C 410.46875 253.808594 407.484375 253.476562 407.484375 252.996094 L 407.484375 223.964844 L 405.140625 223.964844 C 403.59375 223.964844 402.578125 222.652344 402.097656 220.019531 C 401.976562 219.25 401.917969 218.476562 401.917969 217.695312 C 401.917969 215.84375 402.277344 213.996094 402.996094 212.144531 C 404.078125 209.511719 405.753906 208.199219 408.023438 208.199219 C 410.292969 208.199219 412.324219 208.738281 414.113281 209.820312 C 415.90625 210.890625 417.101562 211.960938 417.699219 213.027344 C 421.460938 209.808594 425.9375 208.199219 431.128906 208.199219 C 436.328125 208.199219 440.09375 209.605469 442.425781 212.414062 C 444.753906 215.214844 445.921875 219.8125 445.921875 226.203125 L 445.921875 253.085938 C 445.921875 253.808594 443.363281 254.167969 438.253906 254.167969 C 433.152344 254.167969 430.601562 253.808594 430.601562 253.085938 L 430.601562 227.191406 C 430.601562 224.203125 429.558594 222.707031 427.464844 222.707031 C 426.867188 222.707031 426.027344 222.960938 424.945312 223.472656 C 423.875 223.980469 423.191406 224.355469 422.890625 224.597656 Z M 455.417969 237.769531 C 460.257812 240.699219 464.085938 242.164062 466.894531 242.164062 C 468.6875 242.164062 469.582031 241.535156 469.582031 240.273438 C 469.582031 239.382812 468.027344 238.21875 464.914062 236.777344 C 457.453125 233.738281 453.722656 228.753906 453.722656 221.820312 C 453.722656 217.398438 455.332031 214.023438 458.554688 211.695312 C 461.785156 209.363281 465.65625 208.199219 470.167969 208.199219 C 474.675781 208.199219 478.5 208.679688 481.628906 209.636719 C 484.769531 210.589844 486.339844 211.839844 486.339844 213.390625 C 486.339844 214.710938 485.695312 216.445312 484.40625 218.59375 C 483.125 220.746094 482.242188 221.910156 481.765625 222.089844 C 479.191406 220.652344 476.417969 219.929688 473.4375 219.929688 C 471.828125 219.929688 471.023438 220.5 471.023438 221.640625 C 471.023438 222.351562 471.332031 222.960938 471.953125 223.472656 C 472.582031 223.980469 473.730469 224.613281 475.402344 225.363281 C 477.074219 226.101562 478.457031 226.773438 479.558594 227.371094 C 480.667969 227.972656 481.914062 228.808594 483.292969 229.878906 C 486.164062 232.148438 487.601562 235.109375 487.601562 238.757812 C 487.601562 243.53125 486.015625 247.394531 482.84375 250.355469 C 479.671875 253.316406 474.890625 254.796875 468.5 254.796875 C 464.261719 254.796875 460.40625 254.082031 456.933594 252.652344 C 453.472656 251.210938 451.742188 249.234375 451.742188 246.726562 C 451.742188 245.054688 452.148438 243.296875 452.957031 241.445312 C 453.769531 239.59375 454.589844 238.367188 455.417969 237.769531 Z M 527.746094 251.480469 C 523.972656 253.691406 519.132812 254.796875 513.222656 254.796875 C 507.3125 254.796875 502.320312 252.78125 498.25 248.75 C 494.1875 244.710938 492.160156 239.125 492.160156 231.992188 C 492.160156 224.851562 494.113281 219.101562 498.023438 214.738281 C 501.945312 210.378906 506.890625 208.199219 512.863281 208.199219 C 518.832031 208.199219 523.445312 209.722656 526.695312 212.773438 C 529.957031 215.816406 531.585938 219.515625 531.585938 223.875 C 531.585938 233.558594 526.03125 238.398438 514.917969 238.398438 L 508.738281 238.398438 C 508.738281 240.191406 509.226562 241.429688 510.207031 242.121094 C 511.195312 242.800781 512.652344 243.140625 514.574219 243.140625 C 518.753906 243.140625 522.722656 242.183594 526.484375 240.273438 C 526.546875 240.214844 526.816406 240.632812 527.296875 241.535156 C 528.726562 244.105469 529.441406 246.269531 529.441406 248.03125 C 529.441406 249.792969 528.875 250.941406 527.746094 251.480469 Z M 516.539062 225.585938 C 516.539062 223.078125 515.3125 221.820312 512.863281 221.820312 C 511.730469 221.820312 510.761719 222.164062 509.953125 222.855469 C 509.140625 223.535156 508.738281 224.53125 508.738281 225.839844 L 508.738281 228.632812 L 513.582031 228.632812 C 515.554688 228.632812 516.539062 227.617188 516.539062 225.585938 Z M 516.539062 225.585938 "/>
</g>
</svg>
