<?xml version="1.0" encoding="UTF-8"?>
<svg xmlns="http://www.w3.org/2000/svg" xmlns:xlink="http://www.w3.org/1999/xlink" width="600px" height="300px" viewBox="0 0 600 300" version="1.1">
<g id="surface1">
<path style=" stroke:none;fill-rule:nonzero;fill:rgb(73.333333%,44.313725%,90.196078%);fill-opacity:1;" d="M 0 298.964844 L 0 0 L 598.988281 0 L 598.988281 298.964844 Z M 0 298.964844 "/>
<path style=" stroke:none;fill-rule:nonzero;fill:rgb(81.176471%,49.019608%,100%);fill-opacity:1;" d="M 497.777344 55.761719 C 498.164062 56.140625 396.65625 83.632812 395 83.578125 C 394.78125 83.578125 432.183594 9.980469 432.292969 9.980469 C 432.347656 10.035156 497.503906 55.546875 497.777344 55.761719 Z M 497.777344 55.761719 "/>
<path style=" stroke:none;fill-rule:nonzero;fill:rgb(65.490196%,39.215686%,80.392157%);fill-opacity:1;" d="M 583.011719 101.921875 C 582.738281 102.136719 517.636719 65.664062 517.636719 65.230469 C 517.636719 65.070312 564.421875 19.019531 564.421875 19.019531 C 564.421875 19.019531 583.121094 101.757812 583.011719 101.921875 Z M 583.011719 101.921875 "/>
<path style=" stroke:none;fill-rule:nonzero;fill:rgb(81.176471%,49.019608%,100%);fill-opacity:1;" d="M 375.855469 19.9375 C 375.855469 21.183594 357.375 101.976562 357.101562 101.921875 C 356.933594 101.921875 300.882812 37.6875 300.882812 37.6875 C 300.882812 37.6875 375.855469 19.628906 375.855469 19.9375 Z M 375.855469 19.9375 "/>
<path style=" stroke:none;fill-rule:nonzero;fill:rgb(65.490196%,39.215686%,80.392157%);fill-opacity:1;" d="M 441.949219 176.273438 C 441.949219 176.273438 385.675781 120.863281 385.789062 120.753906 C 386.117188 120.535156 488.289062 84.117188 488.675781 84.117188 C 488.839844 84.117188 441.949219 176.273438 441.949219 176.273438 Z M 441.949219 176.273438 "/>
<path style=" stroke:none;fill-rule:nonzero;fill:rgb(81.176471%,49.019608%,100%);fill-opacity:1;" d="M 573.359375 166.640625 C 573.359375 166.804688 480.125 166.75 480.125 166.589844 C 480.125 166.210938 516.480469 103.597656 517.085938 102.894531 C 517.308594 102.625 573.359375 166.480469 573.359375 166.640625 Z M 573.359375 166.640625 "/>
<path style=" stroke:none;fill-rule:nonzero;fill:rgb(64.705882%,38.823529%,79.607843%);fill-opacity:1;" d="M 403.992188 176.113281 C 403.992188 176.546875 329.460938 203.820312 329.128906 203.546875 C 328.855469 203.222656 300.882812 102.839844 301.050781 102.679688 C 301.105469 102.625 403.992188 175.949219 403.992188 176.113281 Z M 403.992188 176.113281 "/>
<path style=" stroke:none;fill-rule:nonzero;fill:rgb(65.490196%,39.215686%,80.392157%);fill-opacity:1;" d="M 535.625 186.230469 C 534.464844 189.207031 498.660156 249.707031 498.273438 249.328125 C 497.558594 248.625 461.367188 186.339844 461.367188 185.800781 C 461.367188 185.527344 535.953125 185.367188 535.625 186.230469 Z M 535.625 186.230469 "/>
<path style=" stroke:none;fill-rule:nonzero;fill:rgb(65.490196%,39.215686%,80.392157%);fill-opacity:1;" d="M 565.027344 215.398438 C 567.34375 224.113281 583.179688 286.777344 583.066406 286.886719 C 582.957031 286.992188 508.203125 286.777344 508.203125 286.777344 C 508.203125 286.777344 564.089844 213.722656 564.199219 213.558594 C 564.367188 213.453125 564.695312 214.261719 565.027344 215.398438 Z M 565.027344 215.398438 "/>
<path style=" stroke:none;fill-rule:nonzero;fill:rgb(81.176471%,49.019608%,100%);fill-opacity:1;" d="M 460.59375 214.371094 C 460.429688 214.914062 442.886719 283.855469 442.609375 284.882812 L 442.058594 286.832031 L 385.789062 231.578125 C 385.789062 231.578125 459.765625 213.453125 460.152344 213.453125 C 460.59375 213.453125 460.761719 213.832031 460.59375 214.371094 Z M 460.59375 214.371094 "/>
<path style=" stroke:none;fill-rule:nonzero;fill:rgb(81.176471%,49.019608%,100%);fill-opacity:1;" d="M 319.363281 286.074219 C 319.199219 285.585938 301.214844 223.679688 301.105469 223.300781 C 300.9375 222.8125 375.96875 222.652344 375.96875 222.652344 C 375.96875 222.652344 319.585938 286.777344 319.363281 286.074219 Z M 319.363281 286.074219 "/>
<path style=" stroke:none;fill-rule:nonzero;fill:rgb(65.490196%,39.215686%,80.392157%);fill-opacity:1;" d="M 212.816406 55.761719 C 213.203125 56.140625 111.691406 83.632812 110.039062 83.578125 C 109.816406 83.578125 147.222656 9.980469 147.332031 9.980469 C 147.386719 10.035156 212.539062 55.546875 212.816406 55.761719 Z M 212.816406 55.761719 "/>
<path style=" stroke:none;fill-rule:nonzero;fill:rgb(64.705882%,38.823529%,79.607843%);fill-opacity:1;" d="M 298.050781 101.921875 C 297.773438 102.136719 232.675781 65.664062 232.675781 65.230469 C 232.675781 65.070312 279.457031 19.019531 279.457031 19.019531 C 279.457031 19.019531 298.160156 101.757812 298.050781 101.921875 Z M 298.050781 101.921875 "/>
<path style=" stroke:none;fill-rule:nonzero;fill:rgb(81.176471%,49.019608%,100%);fill-opacity:1;" d="M 90.894531 19.9375 C 90.894531 21.183594 72.414062 101.976562 72.136719 101.921875 C 71.972656 101.921875 15.921875 37.6875 15.921875 37.6875 C 15.921875 37.6875 90.894531 19.628906 90.894531 19.9375 Z M 90.894531 19.9375 "/>
<path style=" stroke:none;fill-rule:nonzero;fill:rgb(81.176471%,49.019608%,100%);fill-opacity:1;" d="M 156.984375 176.273438 C 156.984375 176.273438 100.714844 120.863281 100.824219 120.753906 C 101.15625 120.535156 203.328125 84.117188 203.714844 84.117188 C 203.878906 84.117188 156.984375 176.273438 156.984375 176.273438 Z M 156.984375 176.273438 "/>
<path style=" stroke:none;fill-rule:nonzero;fill:rgb(65.490196%,39.215686%,80.392157%);fill-opacity:1;" d="M 288.394531 166.640625 C 288.394531 166.804688 195.164062 166.75 195.164062 166.589844 C 195.164062 166.210938 231.519531 103.597656 232.125 102.894531 C 232.34375 102.625 288.394531 166.480469 288.394531 166.640625 Z M 288.394531 166.640625 "/>
<path style=" stroke:none;fill-rule:nonzero;fill:rgb(65.490196%,39.215686%,80.392157%);fill-opacity:1;" d="M 119.03125 176.113281 C 119.03125 176.546875 44.5 203.820312 44.167969 203.546875 C 43.890625 203.222656 15.921875 102.839844 16.085938 102.679688 C 16.140625 102.625 119.03125 175.949219 119.03125 176.113281 Z M 119.03125 176.113281 "/>
<path style=" stroke:none;fill-rule:nonzero;fill:rgb(81.176471%,49.019608%,100%);fill-opacity:1;" d="M 250.660156 186.230469 C 249.503906 189.207031 213.699219 249.707031 213.3125 249.328125 C 212.59375 248.625 176.40625 186.339844 176.40625 185.800781 C 176.40625 185.527344 250.992188 185.367188 250.660156 186.230469 Z M 250.660156 186.230469 "/>
<path style=" stroke:none;fill-rule:nonzero;fill:rgb(65.490196%,39.215686%,80.392157%);fill-opacity:1;" d="M 280.066406 215.398438 C 282.382812 224.113281 298.214844 286.777344 298.105469 286.886719 C 297.996094 286.992188 223.242188 286.777344 223.242188 286.777344 C 223.242188 286.777344 279.128906 213.722656 279.238281 213.558594 C 279.402344 213.453125 279.734375 214.261719 280.066406 215.398438 Z M 280.066406 215.398438 "/>
<path style=" stroke:none;fill-rule:nonzero;fill:rgb(64.705882%,38.823529%,79.607843%);fill-opacity:1;" d="M 175.632812 214.371094 C 175.46875 214.914062 157.921875 283.855469 157.648438 284.882812 L 157.097656 286.832031 L 100.824219 231.578125 C 100.824219 231.578125 174.804688 213.453125 175.191406 213.453125 C 175.632812 213.453125 175.796875 213.832031 175.632812 214.371094 Z M 175.632812 214.371094 "/>
<path style=" stroke:none;fill-rule:nonzero;fill:rgb(81.176471%,49.019608%,100%);fill-opacity:1;" d="M 34.402344 286.074219 C 34.238281 285.585938 16.253906 223.679688 16.140625 223.300781 C 15.976562 222.8125 91.003906 222.652344 91.003906 222.652344 C 91.003906 222.652344 34.625 286.777344 34.402344 286.074219 Z M 34.402344 286.074219 "/>
<path style="fill:none;stroke-width:8;stroke-linecap:square;stroke-linejoin:miter;stroke:rgb(0%,0%,0%);stroke-opacity:0.505882;stroke-miterlimit:10;" d="M 111.010527 232.251818 L 111.010527 203.837104 C 111.010527 203.200841 112.553535 202.883654 115.641484 202.883654 C 118.733301 202.883654 120.280176 203.200841 120.280176 203.837104 L 120.280176 226.221479 L 127.318457 226.221479 C 127.865664 226.221479 128.246582 226.937039 128.461211 228.370047 C 128.550156 229.066727 128.594629 229.780399 128.594629 230.511063 C 128.594629 231.243615 128.550156 231.989383 128.461211 232.752143 C 128.215645 234.213471 127.821191 234.946024 127.273984 234.946024 L 113.205156 234.946024 C 112.532266 234.946024 111.998594 234.672261 111.59834 234.124734 C 111.20582 233.577208 111.010527 232.954162 111.010527 232.251818 Z M 134.234922 212.793875 C 135.965488 212.033003 138.343809 211.651622 141.371816 211.651622 C 144.405625 211.651622 146.546113 212.35963 147.795215 213.775646 C 149.044316 215.191662 149.668867 217.285477 149.668867 220.057091 L 149.668867 227.273107 C 149.668867 227.273107 154.121934 225.385086 154.121934 226.44993 C 154.121934 227.514774 152.604062 232.814448 152.068457 233.849083 C 151.532852 234.883719 150.809687 235.401037 149.900898 235.401037 C 148.253477 235.401037 146.927031 234.961128 145.921562 234.08131 C 145.469102 233.711258 145.121055 233.269461 144.877422 232.750255 C 143.473633 234.517443 141.294473 235.401037 138.338008 235.401037 C 136.120176 235.401037 134.250391 234.609956 132.726719 233.027794 C 131.20498 231.445633 130.443145 229.572716 130.443145 227.407156 C 130.443145 222.447326 133.411211 219.966466 139.347344 219.966466 L 141.862949 219.966466 L 141.862949 219.503901 C 141.862949 218.71282 141.731465 218.203055 141.47043 217.97838 C 141.215195 217.751818 140.613848 217.638537 139.66832 217.638537 C 138.508164 217.638537 136.864609 217.880203 134.733789 218.361649 C 134.733789 218.361649 133.459551 215.597586 133.459551 214.640359 C 133.459551 214.640359 133.716719 213.067638 134.234922 212.793875 Z M 137.864277 226.774669 C 137.864277 227.439253 138.046035 227.949018 138.409551 228.30019 C 138.771133 228.649474 139.235195 228.82506 139.799805 228.82506 C 140.364414 228.82506 143.765605 227.152274 144.223867 226.695372 L 140.049238 224.624214 C 138.593242 224.624214 137.864277 225.339774 137.864277 226.774669 Z M 153.120332 212.338862 C 153.120332 212.000906 154.51252 211.830984 157.296895 211.830984 C 160.085137 211.830984 161.527598 211.982026 161.622344 212.285997 L 164.905586 223.072261 L 168.05541 212.197261 C 168.17916 211.951818 169.126621 211.830984 170.891992 211.830984 C 174.942871 211.830984 176.874531 212.029227 176.69084 212.429487 L 165.959395 242.983328 C 165.928457 243.168354 165.098945 243.260867 163.468926 243.260867 C 161.84084 243.260867 160.322969 243.206115 158.91918 243.100386 C 157.521191 242.992768 156.852168 242.862495 156.912109 242.707677 L 160.891445 233.116531 Z M 196.51791 233.715034 C 194.595918 234.838406 192.128652 235.401037 189.11418 235.401037 C 186.097773 235.401037 183.555098 234.373953 181.486152 232.323563 C 179.415273 230.26562 178.380801 227.416596 178.380801 223.776492 C 178.380801 220.136388 179.376602 217.208068 181.370137 214.989643 C 183.367539 212.763667 185.888945 211.651622 188.934355 211.651622 C 191.979766 211.651622 194.332949 212.427599 195.991973 213.98144 C 197.650996 215.533393 198.480508 217.421414 198.480508 219.645503 C 198.480508 224.577013 195.649727 227.04088 189.988164 227.04088 L 186.828672 227.04088 C 186.828672 227.95657 187.080039 228.590945 187.578906 228.942117 C 188.083574 229.293289 188.824141 229.468875 189.800605 229.468875 C 191.935293 229.468875 193.959766 228.979878 195.875957 228.005659 C 195.904961 227.975451 196.042246 228.186909 196.285879 228.638146 C 197.016777 229.952208 197.38416 231.058589 197.38416 231.957287 C 197.38416 232.855984 197.094121 233.441271 196.51791 233.715034 Z M 190.808008 220.512104 C 190.808008 219.232026 190.183457 218.593875 188.934355 218.593875 C 188.358145 218.593875 187.861211 218.769461 187.445488 219.118745 C 187.035566 219.469917 186.828672 219.979682 186.828672 220.644266 L 186.828672 222.064057 L 189.299805 222.064057 C 190.305273 222.064057 190.808008 221.54674 190.808008 220.512104 Z M 211.454922 234.900711 C 211.454922 235.115945 210.068535 235.221675 207.297695 235.221675 C 204.526855 235.157482 203.140469 235.034761 203.140469 234.857287 L 203.140469 219.690815 L 201.90877 219.690815 C 201.421504 219.690815 201.032852 219.392508 200.740879 218.797781 C 200.448906 218.203055 200.303887 217.466727 200.303887 216.585021 C 200.303887 213.296089 201.278418 211.651622 203.229414 211.651622 C 204.598398 211.651622 205.739219 212.070763 206.655742 212.910932 C 207.570332 213.74355 208.028594 214.695112 208.028594 215.76562 C 208.664746 214.51575 209.525195 213.520763 210.608008 212.776883 C 211.69082 212.027339 212.792969 211.651622 213.916387 211.651622 C 215.683691 211.651622 216.751035 212.106636 217.120352 213.016662 C 217.209297 213.262104 217.25377 213.620828 217.25377 214.096609 C 217.25377 214.566727 217.10875 215.410672 216.816777 216.630333 C 216.530605 217.849995 216.234766 218.733589 215.925391 219.279227 C 215.621816 219.826753 215.440059 220.100516 215.380117 220.100516 C 215.320176 220.100516 215.037871 219.987234 214.533203 219.76256 C 214.032402 219.530333 213.583809 219.413276 213.185488 219.413276 C 212.031133 219.413276 211.454922 220.327078 211.454922 222.152794 Z M 241.414023 202.560802 C 243.637656 202.560802 245.594453 202.874214 247.284414 203.499149 C 248.972441 204.122195 249.817422 204.968029 249.817422 206.032872 C 249.817422 207.095828 249.413301 208.413667 248.603125 209.9845 C 247.800684 211.553445 247.125859 212.338862 246.578652 212.338862 C 246.423965 212.338862 246.248008 212.255789 246.052715 212.089643 C 245.855488 211.917833 245.397227 211.732807 244.67793 211.536453 C 243.964434 211.340099 243.349551 211.241922 242.831348 211.241922 C 241.065977 211.241922 239.640918 211.866857 238.558105 213.114839 C 237.481094 214.364708 236.943555 216.277274 236.943555 218.852534 C 236.943555 221.420242 237.496563 223.330919 238.602578 224.578901 C 239.714395 225.828771 241.123984 226.451818 242.831348 226.451818 C 243.533242 226.451818 244.318281 226.355529 245.186465 226.159175 C 246.054648 225.955268 246.671465 225.673953 247.033047 225.311453 C 247.092988 225.245372 247.214805 225.213276 247.40043 225.213276 C 247.584121 225.213276 247.926367 225.556896 248.425234 226.247912 C 248.931836 226.931375 249.393965 227.830073 249.817422 228.942117 C 250.244746 230.054162 250.459375 230.913211 250.459375 231.519266 C 250.459375 232.708719 249.546719 233.654617 247.721406 234.356961 C 245.89416 235.053641 243.732402 235.401037 241.234199 235.401037 C 237.214258 235.401037 233.909746 233.985021 231.322598 231.154878 C 228.735449 228.322846 227.441875 224.325906 227.441875 219.164057 C 227.441875 214.002208 228.774121 209.944852 231.438613 206.995763 C 234.103105 204.039122 237.428887 202.560802 241.414023 202.560802 Z M 255.734219 232.251818 C 253.831562 230.152339 252.880234 227.242899 252.880234 223.527274 C 252.880234 219.809761 253.831562 216.90032 255.734219 214.800841 C 257.638809 212.701362 260.204687 211.651622 263.433789 211.651622 C 266.662891 211.651622 269.221035 212.701362 271.106289 214.800841 C 272.991543 216.90032 273.935137 219.809761 273.935137 223.527274 C 273.935137 227.242899 272.991543 230.152339 271.106289 232.251818 C 269.221035 234.351297 266.662891 235.401037 263.433789 235.401037 C 260.204687 235.401037 257.638809 234.351297 255.734219 232.251818 Z M 263.451191 219.279227 C 261.732227 219.279227 260.873711 220.680138 260.873711 223.481961 C 260.873711 226.283784 261.732227 227.684695 263.451191 227.684695 C 265.175957 227.684695 266.03834 226.283784 266.03834 223.481961 C 266.03834 220.680138 265.175957 219.279227 263.451191 219.279227 Z M 286.723926 234.668484 C 286.723926 234.883719 285.629512 234.991336 283.440684 234.991336 C 280.395273 234.900711 278.873535 234.734565 278.873535 234.491011 L 278.873535 219.690815 L 277.686309 219.690815 C 276.895469 219.690815 276.377266 219.020568 276.133633 217.683849 C 276.067891 217.285477 276.03502 216.888992 276.03502 216.496284 C 276.03502 215.550386 276.220645 214.604487 276.588027 213.660477 C 277.135234 212.32187 277.986016 211.651622 279.140371 211.651622 C 280.300527 211.651622 281.335 211.925386 282.245723 212.472912 C 283.160313 213.020438 283.773262 213.567964 284.082637 214.11549 C 285.996895 212.472912 288.278535 211.651622 290.925625 211.651622 C 293.578516 211.651622 295.496641 212.36907 296.68 213.802078 C 297.86916 215.229422 298.464707 217.572456 298.464707 220.833068 L 298.464707 234.536323 C 298.464707 234.898823 297.161465 235.080073 294.556914 235.080073 C 291.95623 235.080073 290.656855 234.898823 290.656855 234.536323 L 290.656855 221.331505 C 290.656855 219.809761 290.125117 219.048888 289.061641 219.048888 C 288.752266 219.048888 288.323008 219.179162 287.775801 219.439708 C 287.228594 219.696479 286.878613 219.887169 286.723926 220.011779 Z M 312.854512 234.668484 C 312.854512 235.038537 311.576406 235.221675 309.018262 235.221675 C 305.972852 235.097065 304.451113 234.898823 304.451113 234.62506 L 304.451113 218.459826 L 302.123066 218.459826 C 301.510117 218.459826 301.202676 217.40631 301.202676 215.301167 C 301.202676 214.753641 301.256816 214.085281 301.365098 213.294201 C 301.471445 212.50312 301.693809 212.106636 302.034121 212.106636 L 304.451113 212.106636 L 304.451113 208.083263 C 304.451113 207.477208 305.73502 207.173237 308.304766 207.173237 C 310.880313 207.173237 312.168086 207.41868 312.168086 207.905789 L 312.168086 210.832221 L 312.212559 212.106636 L 316.102949 212.106636 C 316.619219 212.106636 316.87832 213.175255 316.87832 215.310607 C 316.87832 217.438406 316.619219 218.50325 316.102949 218.50325 L 312.854512 218.50325 Z M 329.164375 234.900711 C 329.164375 235.115945 327.777988 235.221675 325.007148 235.221675 C 322.236309 235.157482 320.849922 235.034761 320.849922 234.857287 L 320.849922 219.690815 L 319.618223 219.690815 C 319.130957 219.690815 318.740371 219.392508 318.450332 218.797781 C 318.158359 218.203055 318.01334 217.466727 318.01334 216.585021 C 318.01334 213.296089 318.987871 211.651622 320.938867 211.651622 C 322.305918 211.651622 323.448672 212.070763 324.365195 212.910932 C 325.279785 213.74355 325.738047 214.695112 325.738047 215.76562 C 326.374199 214.51575 327.234648 213.520763 328.317461 212.776883 C 329.39834 212.027339 330.502422 211.651622 331.62584 211.651622 C 333.393145 211.651622 334.460488 212.106636 334.829805 213.016662 C 334.91875 213.262104 334.963223 213.620828 334.963223 214.096609 C 334.963223 214.566727 334.818203 215.410672 334.52623 216.630333 C 334.240059 217.849995 333.942285 218.733589 333.63291 219.279227 C 333.33127 219.826753 333.149512 220.100516 333.08957 220.100516 C 333.029629 220.100516 332.747324 219.987234 332.242656 219.76256 C 331.741855 219.530333 331.293262 219.413276 330.894941 219.413276 C 329.740586 219.413276 329.164375 220.327078 329.164375 222.152794 Z M 339.232598 232.251818 C 337.328008 230.152339 336.37668 227.242899 336.37668 223.527274 C 336.37668 219.809761 337.328008 216.90032 339.232598 214.800841 C 341.135254 212.701362 343.701133 211.651622 346.930234 211.651622 C 350.16127 211.651622 352.71748 212.701362 354.602734 214.800841 C 356.487988 216.90032 357.431582 219.809761 357.431582 223.527274 C 357.431582 227.242899 356.487988 230.152339 354.602734 232.251818 C 352.71748 234.351297 350.16127 235.401037 346.930234 235.401037 C 343.701133 235.401037 341.135254 234.351297 339.232598 232.251818 Z M 346.94957 219.279227 C 345.230605 219.279227 344.370156 220.680138 344.370156 223.481961 C 344.370156 226.283784 345.230605 227.684695 346.94957 227.684695 C 348.674336 227.684695 349.536719 226.283784 349.536719 223.481961 C 349.536719 220.680138 348.674336 219.279227 346.94957 219.279227 Z M 368.988672 234.579747 C 368.988672 234.853511 367.43793 234.991336 364.332578 234.991336 C 361.894316 234.961128 360.674219 234.838406 360.674219 234.62506 L 360.674219 203.516141 C 360.674219 203.064904 362.153418 202.838341 365.107949 202.838341 C 367.695098 202.927078 368.988672 203.07812 368.988672 203.293354 Z M 368.988672 234.579747 " transform="matrix(2.020202,0,0,2.068966,-185.353535,-222.931159)"/>
<path style=" stroke:none;fill-rule:nonzero;fill:rgb(100%,100%,100%);fill-opacity:1;" d="M 38.910156 257.820312 L 38.910156 199.03125 C 38.910156 197.714844 42.027344 197.054688 48.265625 197.054688 C 54.511719 197.054688 57.636719 197.714844 57.636719 199.03125 L 57.636719 245.34375 L 71.855469 245.34375 C 72.960938 245.34375 73.730469 246.824219 74.164062 249.789062 C 74.34375 251.230469 74.433594 252.707031 74.433594 254.21875 C 74.433594 255.734375 74.34375 257.277344 74.164062 258.851562 C 73.667969 261.878906 72.871094 263.394531 71.765625 263.394531 L 43.34375 263.394531 C 41.984375 263.394531 40.90625 262.828125 40.097656 261.695312 C 39.304688 260.5625 38.910156 259.269531 38.910156 257.820312 Z M 87.679688 229.082031 C 85.960938 225.929688 85.101562 223.363281 85.101562 221.382812 C 85.101562 219.402344 85.625 218.128906 86.667969 217.5625 C 90.167969 215.988281 94.972656 215.199219 101.089844 215.199219 C 107.214844 215.199219 111.542969 216.664062 114.0625 219.59375 C 116.585938 222.523438 117.847656 226.851562 117.847656 232.585938 L 117.847656 247.519531 L 120.984375 247.519531 C 122.03125 247.519531 122.847656 248.152344 123.4375 249.421875 C 124.023438 250.675781 124.320312 252.40625 124.320312 254.609375 C 124.320312 256.808594 123.777344 258.980469 122.699219 261.125 C 121.617188 263.265625 120.15625 264.335938 118.316406 264.335938 C 114.988281 264.335938 112.308594 263.425781 110.28125 261.601562 C 109.367188 260.839844 108.664062 259.921875 108.171875 258.851562 C 105.335938 262.507812 100.933594 264.335938 94.960938 264.335938 C 90.480469 264.335938 86.699219 262.699219 83.625 259.425781 C 80.546875 256.152344 79.011719 252.277344 79.011719 247.796875 C 79.011719 237.535156 85.003906 232.402344 96.996094 232.402344 L 102.078125 232.402344 L 102.078125 231.441406 C 102.078125 229.804688 101.816406 228.753906 101.285156 228.285156 C 100.769531 227.820312 99.554688 227.585938 97.644531 227.585938 C 95.300781 227.585938 91.980469 228.082031 87.679688 229.082031 Z M 93.722656 246.484375 C 93.722656 247.863281 94.089844 248.917969 94.820312 249.640625 C 95.554688 250.367188 96.492188 250.730469 97.632812 250.730469 C 98.773438 250.730469 99.808594 250.257812 100.734375 249.308594 L 100.734375 242.039062 L 98.136719 242.039062 C 95.195312 242.039062 93.722656 243.519531 93.722656 246.484375 Z M 123.980469 216.621094 C 123.980469 215.921875 126.792969 215.570312 132.417969 215.570312 C 138.050781 215.570312 140.964844 215.882812 141.15625 216.511719 L 147.789062 238.828125 L 154.152344 216.324219 C 154.402344 215.820312 156.316406 215.570312 159.882812 215.570312 C 168.066406 215.570312 171.96875 215.980469 171.597656 216.804688 L 149.917969 280.023438 C 149.855469 280.40625 148.179688 280.597656 144.886719 280.597656 C 141.597656 280.597656 138.53125 280.484375 135.695312 280.265625 C 132.871094 280.042969 131.519531 279.773438 131.640625 279.453125 L 139.679688 259.609375 Z M 211.652344 260.847656 C 207.769531 263.171875 202.785156 264.335938 196.695312 264.335938 C 190.601562 264.335938 185.464844 262.210938 181.285156 257.96875 C 177.101562 253.710938 175.011719 247.816406 175.011719 240.285156 C 175.011719 232.753906 177.023438 226.691406 181.050781 222.101562 C 185.085938 217.5 190.179688 215.199219 196.332031 215.199219 C 202.484375 215.199219 207.238281 216.804688 210.589844 220.019531 C 213.941406 223.230469 215.617188 227.136719 215.617188 231.738281 C 215.617188 241.9375 209.898438 247.039062 198.460938 247.039062 L 192.078125 247.039062 C 192.078125 248.933594 192.585938 250.246094 193.59375 250.972656 C 194.613281 251.699219 196.109375 252.058594 198.082031 252.058594 C 202.394531 252.058594 206.484375 251.050781 210.355469 249.035156 C 210.414062 248.972656 210.691406 249.410156 211.183594 250.34375 C 212.660156 253.0625 213.402344 255.351562 213.402344 257.210938 C 213.402344 259.066406 212.816406 260.28125 211.652344 260.847656 Z M 200.117188 233.527344 C 200.117188 230.882812 198.855469 229.558594 196.332031 229.558594 C 195.167969 229.558594 194.164062 229.921875 193.324219 230.648438 C 192.496094 231.375 192.078125 232.425781 192.078125 233.804688 L 192.078125 236.742188 L 197.070312 236.742188 C 199.101562 236.742188 200.117188 235.667969 200.117188 233.527344 Z M 241.828125 263.300781 C 241.828125 263.746094 239.027344 263.964844 233.429688 263.964844 C 227.832031 263.832031 225.03125 263.578125 225.03125 263.207031 L 225.03125 231.832031 L 222.542969 231.832031 C 221.558594 231.832031 220.773438 231.214844 220.183594 229.984375 C 219.59375 228.753906 219.300781 227.230469 219.300781 225.40625 C 219.300781 218.601562 221.269531 215.199219 225.210938 215.199219 C 227.976562 215.199219 230.28125 216.066406 232.132812 217.804688 C 233.980469 219.527344 234.90625 221.496094 234.90625 223.710938 C 236.191406 221.125 237.929688 219.0625 240.117188 217.527344 C 242.304688 215.976562 244.53125 215.199219 246.800781 215.199219 C 250.371094 215.199219 252.527344 216.140625 253.273438 218.023438 C 253.453125 218.527344 253.542969 219.273438 253.542969 220.257812 C 253.542969 221.230469 253.25 222.976562 252.660156 225.5 C 252.082031 228.023438 251.484375 229.847656 250.859375 230.980469 C 250.246094 232.113281 249.878906 232.679688 249.757812 232.679688 C 249.636719 232.679688 249.066406 232.445312 248.046875 231.976562 C 247.035156 231.5 246.128906 231.257812 245.324219 231.257812 C 242.992188 231.257812 241.828125 233.148438 241.828125 236.925781 Z M 302.351562 196.390625 C 306.84375 196.390625 310.796875 197.039062 314.210938 198.328125 C 317.621094 199.621094 319.328125 201.371094 319.328125 203.570312 C 319.328125 205.773438 318.511719 208.5 316.875 211.75 C 315.253906 214.996094 313.890625 216.621094 312.785156 216.621094 C 312.472656 216.621094 312.117188 216.449219 311.722656 216.105469 C 311.324219 215.746094 310.398438 215.367188 308.945312 214.960938 C 307.503906 214.554688 306.261719 214.351562 305.214844 214.351562 C 301.648438 214.351562 298.769531 215.644531 296.582031 218.226562 C 294.40625 220.8125 293.320312 224.765625 293.320312 230.09375 C 293.320312 235.410156 294.4375 239.363281 296.671875 241.945312 C 298.917969 244.53125 301.765625 245.820312 305.214844 245.820312 C 306.632812 245.820312 308.21875 245.617188 309.972656 245.210938 C 311.726562 244.792969 312.972656 244.210938 313.703125 243.460938 C 313.824219 243.324219 314.070312 243.257812 314.445312 243.257812 C 314.816406 243.257812 315.507812 243.96875 316.515625 245.398438 C 317.539062 246.8125 318.472656 248.671875 319.328125 250.972656 C 320.191406 253.273438 320.625 255.050781 320.625 256.304688 C 320.625 258.765625 318.78125 260.722656 315.09375 262.175781 C 311.402344 263.613281 307.035156 264.335938 301.988281 264.335938 C 293.867188 264.335938 287.191406 261.40625 281.964844 255.550781 C 276.738281 249.691406 274.125 241.421875 274.125 230.742188 C 274.125 220.0625 276.816406 211.667969 282.199219 205.566406 C 287.582031 199.449219 294.300781 196.390625 302.351562 196.390625 Z M 331.28125 257.820312 C 327.4375 253.476562 325.515625 247.457031 325.515625 239.765625 C 325.515625 232.078125 327.4375 226.058594 331.28125 221.714844 C 335.128906 217.371094 340.3125 215.199219 346.835938 215.199219 C 353.359375 215.199219 358.527344 217.371094 362.335938 221.714844 C 366.144531 226.058594 368.050781 232.078125 368.050781 239.765625 C 368.050781 247.457031 366.144531 253.476562 362.335938 257.820312 C 358.527344 262.164062 353.359375 264.335938 346.835938 264.335938 C 340.3125 264.335938 335.128906 262.164062 331.28125 257.820312 Z M 346.871094 230.980469 C 343.398438 230.980469 341.664062 233.878906 341.664062 239.675781 C 341.664062 245.472656 343.398438 248.367188 346.871094 248.367188 C 350.355469 248.367188 352.097656 245.472656 352.097656 239.675781 C 352.097656 233.878906 350.355469 230.980469 346.871094 230.980469 Z M 393.886719 262.820312 C 393.886719 263.265625 391.675781 263.484375 387.253906 263.484375 C 381.101562 263.300781 378.027344 262.957031 378.027344 262.453125 L 378.027344 231.832031 L 375.628906 231.832031 C 374.03125 231.832031 372.984375 230.445312 372.492188 227.675781 C 372.359375 226.851562 372.292969 226.035156 372.292969 225.222656 C 372.292969 223.265625 372.667969 221.308594 373.410156 219.351562 C 374.515625 216.585938 376.234375 215.199219 378.566406 215.199219 C 380.910156 215.199219 383 215.765625 384.839844 216.898438 C 386.6875 218.03125 387.925781 219.164062 388.550781 220.292969 C 392.417969 216.898438 397.027344 215.199219 402.375 215.199219 C 407.734375 215.199219 411.609375 216.683594 414 219.648438 C 416.402344 222.601562 417.605469 227.449219 417.605469 234.191406 L 417.605469 262.542969 C 417.605469 263.296875 414.972656 263.671875 409.710938 263.671875 C 404.457031 263.671875 401.832031 263.296875 401.832031 262.542969 L 401.832031 235.226562 C 401.832031 232.078125 400.757812 230.5 398.609375 230.5 C 397.984375 230.5 397.117188 230.773438 396.011719 231.3125 C 394.90625 231.84375 394.199219 232.238281 393.886719 232.496094 Z M 446.675781 262.820312 C 446.675781 263.585938 444.09375 263.964844 438.925781 263.964844 C 432.773438 263.707031 429.699219 263.296875 429.699219 262.730469 L 429.699219 229.285156 L 424.996094 229.285156 C 423.757812 229.285156 423.136719 227.105469 423.136719 222.75 C 423.136719 221.617188 423.246094 220.234375 423.464844 218.597656 C 423.679688 216.960938 424.128906 216.140625 424.816406 216.140625 L 429.699219 216.140625 L 429.699219 207.816406 C 429.699219 206.5625 432.292969 205.933594 437.484375 205.933594 C 442.6875 205.933594 445.289062 206.4375 445.289062 207.449219 L 445.289062 213.503906 L 445.378906 216.140625 L 453.238281 216.140625 C 454.28125 216.140625 454.804688 218.351562 454.804688 222.769531 C 454.804688 227.171875 454.28125 229.375 453.238281 229.375 L 446.675781 229.375 Z M 479.625 263.300781 C 479.625 263.746094 476.824219 263.964844 471.226562 263.964844 C 465.628906 263.832031 462.828125 263.578125 462.828125 263.207031 L 462.828125 231.832031 L 460.339844 231.832031 C 459.355469 231.832031 458.566406 231.214844 457.980469 229.984375 C 457.390625 228.753906 457.097656 227.230469 457.097656 225.40625 C 457.097656 218.601562 459.066406 215.199219 463.007812 215.199219 C 465.769531 215.199219 468.078125 216.066406 469.929688 217.804688 C 471.777344 219.527344 472.703125 221.496094 472.703125 223.710938 C 473.988281 221.125 475.726562 219.0625 477.914062 217.527344 C 480.097656 215.976562 482.328125 215.199219 484.597656 215.199219 C 488.167969 215.199219 490.324219 216.140625 491.070312 218.023438 C 491.25 218.527344 491.339844 219.273438 491.339844 220.257812 C 491.339844 221.230469 491.046875 222.976562 490.457031 225.5 C 489.878906 228.023438 489.277344 229.847656 488.65625 230.980469 C 488.042969 232.113281 487.675781 232.679688 487.554688 232.679688 C 487.433594 232.679688 486.863281 232.445312 485.84375 231.976562 C 484.832031 231.5 483.925781 231.257812 483.121094 231.257812 C 480.789062 231.257812 479.625 233.148438 479.625 236.925781 Z M 499.964844 257.820312 C 496.117188 253.476562 494.195312 247.457031 494.195312 239.765625 C 494.195312 232.078125 496.117188 226.058594 499.964844 221.714844 C 503.808594 217.371094 508.992188 215.199219 515.519531 215.199219 C 522.042969 215.199219 527.207031 217.371094 531.015625 221.714844 C 534.824219 226.058594 536.730469 232.078125 536.730469 239.765625 C 536.730469 247.457031 534.824219 253.476562 531.015625 257.820312 C 527.207031 262.164062 522.042969 264.335938 515.519531 264.335938 C 508.992188 264.335938 503.808594 262.164062 499.964844 257.820312 Z M 515.554688 230.980469 C 512.082031 230.980469 510.34375 233.878906 510.34375 239.675781 C 510.34375 245.472656 512.082031 248.367188 515.554688 248.367188 C 519.039062 248.367188 520.78125 245.472656 520.78125 239.675781 C 520.78125 233.878906 519.039062 230.980469 515.554688 230.980469 Z M 560.078125 262.636719 C 560.078125 263.203125 556.945312 263.484375 550.671875 263.484375 C 545.746094 263.425781 543.28125 263.171875 543.28125 262.730469 L 543.28125 198.367188 C 543.28125 197.429688 546.269531 196.964844 552.238281 196.964844 C 557.464844 197.148438 560.078125 197.460938 560.078125 197.90625 Z M 560.078125 262.636719 "/>
<path style="fill:none;stroke-width:15;stroke-linecap:butt;stroke-linejoin:miter;stroke:rgb(0%,0%,0%);stroke-opacity:0.505882;stroke-miterlimit:10;" d="M 215.633418 160.629747 C 212.152949 160.629747 209.33377 157.809044 209.33377 154.329422 L 209.33377 131.633524 C 209.33377 128.153901 212.152949 125.333198 215.633418 125.333198 L 238.329941 125.333198 C 241.808477 125.333198 244.62959 128.153901 244.62959 131.633524 L 244.62959 138.35299 L 251.348828 138.35299 C 254.827363 138.35299 257.648477 141.171805 257.648477 144.651427 L 257.648477 151.370893 L 264.367715 151.370893 C 267.84625 151.370893 270.667363 154.191596 270.667363 157.671219 L 270.667363 180.367117 C 270.667363 183.84674 267.84625 186.667443 264.367715 186.667443 L 241.671191 186.667443 C 238.190723 186.667443 235.371543 183.84674 235.371543 180.367117 L 235.371543 173.647651 L 228.652305 173.647651 C 225.171836 173.647651 222.352656 170.826948 222.352656 167.349214 L 222.352656 160.629747 Z M 215.633418 160.629747 " transform="matrix(2.020202,0,0,2.068966,-185.353535,-222.931159)"/>
<path style="fill:none;stroke-width:7.5;stroke-linecap:butt;stroke-linejoin:miter;stroke:rgb(73.333333%,44.313725%,90.196078%);stroke-opacity:1;stroke-miterlimit:10;" d="M 215.633418 160.629747 C 212.152949 160.629747 209.33377 157.809044 209.33377 154.329422 L 209.33377 131.633524 C 209.33377 128.153901 212.152949 125.333198 215.633418 125.333198 L 238.329941 125.333198 C 241.808477 125.333198 244.62959 128.153901 244.62959 131.633524 L 244.62959 154.329422 C 244.62959 157.809044 241.808477 160.629747 238.329941 160.629747 Z M 215.633418 160.629747 " transform="matrix(2.020202,0,0,2.068966,-185.353535,-222.931159)"/>
<path style=" stroke:none;fill-rule:nonzero;fill:rgb(100%,100%,100%);fill-opacity:1;" d="M 250.269531 109.40625 C 243.238281 109.40625 237.542969 103.570312 237.542969 96.371094 L 237.542969 49.414062 C 237.542969 42.214844 243.238281 36.378906 250.269531 36.378906 L 296.121094 36.378906 C 303.148438 36.378906 308.847656 42.214844 308.847656 49.414062 L 308.847656 96.371094 C 308.847656 103.570312 303.148438 109.40625 296.121094 109.40625 Z M 250.269531 109.40625 "/>
<path style="fill:none;stroke-width:7.5;stroke-linecap:butt;stroke-linejoin:miter;stroke:rgb(73.333333%,44.313725%,90.196078%);stroke-opacity:1;stroke-miterlimit:10;" d="M 228.652305 173.647651 C 225.171836 173.647651 222.352656 170.826948 222.352656 167.349214 L 222.352656 144.651427 C 222.352656 141.171805 225.171836 138.35299 228.652305 138.35299 L 251.348828 138.35299 C 254.827363 138.35299 257.648477 141.171805 257.648477 144.651427 L 257.648477 167.349214 C 257.648477 170.826948 254.827363 173.647651 251.348828 173.647651 Z M 228.652305 173.647651 " transform="matrix(2.020202,0,0,2.068966,-185.353535,-222.931159)"/>
<path style=" stroke:none;fill-rule:nonzero;fill:rgb(100%,100%,100%);fill-opacity:1;" d="M 276.570312 136.339844 C 269.539062 136.339844 263.84375 130.503906 263.84375 123.308594 L 263.84375 76.347656 C 263.84375 69.148438 269.539062 63.316406 276.570312 63.316406 L 322.421875 63.316406 C 329.449219 63.316406 335.148438 69.148438 335.148438 76.347656 L 335.148438 123.308594 C 335.148438 130.503906 329.449219 136.339844 322.421875 136.339844 Z M 276.570312 136.339844 "/>
<path style="fill:none;stroke-width:7.5;stroke-linecap:butt;stroke-linejoin:miter;stroke:rgb(73.333333%,44.313725%,90.196078%);stroke-opacity:1;stroke-miterlimit:10;" d="M 241.671191 186.667443 C 238.190723 186.667443 235.371543 183.84674 235.371543 180.367117 L 235.371543 157.671219 C 235.371543 154.191596 238.190723 151.370893 241.671191 151.370893 L 264.367715 151.370893 C 267.84625 151.370893 270.667363 154.191596 270.667363 157.671219 L 270.667363 180.367117 C 270.667363 183.84674 267.84625 186.667443 264.367715 186.667443 Z M 241.671191 186.667443 " transform="matrix(2.020202,0,0,2.068966,-185.353535,-222.931159)"/>
<path style=" stroke:none;fill-rule:nonzero;fill:rgb(100%,100%,100%);fill-opacity:1;" d="M 302.871094 163.277344 C 295.839844 163.277344 290.144531 157.441406 290.144531 150.242188 L 290.144531 103.285156 C 290.144531 96.085938 295.839844 90.25 302.871094 90.25 L 348.722656 90.25 C 355.75 90.25 361.449219 96.085938 361.449219 103.285156 L 361.449219 150.242188 C 361.449219 157.441406 355.75 163.277344 348.722656 163.277344 Z M 302.871094 163.277344 "/>
<path style="fill:none;stroke-width:7;stroke-linecap:round;stroke-linejoin:round;stroke:rgb(0%,0%,0%);stroke-opacity:0.490196;stroke-miterlimit:10;" d="M 128.954277 155.501883 L 123.984941 155.490555 L 127.533086 152.026037 C 129.953945 149.662234 132.691914 147.853511 135.688984 146.641401 L 163.557871 135.354813 C 164.752832 134.873367 166.363516 136.057156 167.160156 138.005594 C 167.956797 139.948367 167.637754 141.919461 166.442793 142.400906 L 138.573906 153.687495 C 135.576836 154.901492 132.345801 155.511323 128.954277 155.501883 " transform="matrix(2.020202,0,0,2.068966,-185.353535,-222.931159)"/>
<path style="fill:none;stroke-width:7;stroke-linecap:round;stroke-linejoin:round;stroke:rgb(0%,0%,0%);stroke-opacity:0.490196;stroke-miterlimit:10;" d="M 161.485059 136.957742 C 161.485059 136.957742 158.952051 132.141401 150.670469 137.148432 C 148.508711 138.453055 146.515176 138.033914 145.741738 136.253511 C 145.424629 135.524734 147.300215 134.809175 147.300215 134.809175 " transform="matrix(2.020202,0,0,2.068966,-185.353535,-222.931159)"/>
<path style="fill-rule:evenodd;fill:rgb(100%,100%,100%);fill-opacity:1;stroke-width:1;stroke-linecap:round;stroke-linejoin:round;stroke:rgb(100%,100%,100%);stroke-opacity:1;stroke-miterlimit:10;" d="M 128.954277 155.501883 L 123.984941 155.490555 L 127.533086 152.026037 C 129.953945 149.662234 132.691914 147.853511 135.688984 146.641401 L 163.557871 135.354813 C 164.752832 134.873367 166.363516 136.057156 167.160156 138.005594 C 167.956797 139.948367 167.637754 141.919461 166.442793 142.400906 L 138.573906 153.687495 C 135.576836 154.901492 132.345801 155.511323 128.954277 155.501883 " transform="matrix(2.020202,0,0,2.068966,-185.353535,-222.931159)"/>
<path style="fill:none;stroke-width:2;stroke-linecap:round;stroke-linejoin:round;stroke:rgb(100%,100%,100%);stroke-opacity:1;stroke-miterlimit:10;" d="M 145.851953 135.896675 C 145.851953 135.896675 146.843887 139.461258 150.670469 137.148432 C 158.952051 132.141401 161.485059 136.957742 161.485059 136.957742 " transform="matrix(2.020202,0,0,2.068966,-185.353535,-222.931159)"/>
<path style="fill-rule:evenodd;fill:rgb(100%,100%,100%);fill-opacity:1;stroke-width:2;stroke-linecap:round;stroke-linejoin:round;stroke:rgb(100%,100%,100%);stroke-opacity:1;stroke-miterlimit:10;" d="M 147.634727 136.325255 C 147.331152 136.770828 146.725937 136.887886 146.279277 136.585802 C 145.832617 136.283719 145.716602 135.677664 146.018242 135.232091 C 146.321816 134.78463 146.928965 134.671349 147.373691 134.973432 C 147.820352 135.275516 147.936367 135.88157 147.634727 136.327143 Z M 147.634727 136.325255 " transform="matrix(2.020202,0,0,2.068966,-185.353535,-222.931159)"/>
<path style="fill-rule:nonzero;fill:rgb(100%,100%,100%);fill-opacity:1;stroke-width:6;stroke-linecap:butt;stroke-linejoin:miter;stroke:rgb(0%,0%,0%);stroke-opacity:0.505882;stroke-miterlimit:10;" d="M 166.290039 165.344136 C 167.767305 167.407742 169.704766 169.52799 172.33252 170.745763 C 175.271582 172.108914 179.129102 172.360021 184.270527 170.166141 C 184.605039 170.022651 184.991758 170.139708 185.192852 170.439904 C 185.393945 170.741987 185.351406 171.146024 185.090371 171.39713 C 183.823867 172.822586 182.495488 173.942182 181.138105 174.799344 C 177.410137 177.151818 173.47334 177.516206 169.886523 176.77799 C 166.336445 176.045438 163.130547 174.221609 160.82377 172.178771 C 159.940117 171.39713 159.182148 170.577729 158.584668 169.771544 L 154.88377 172.886779 C 154.644004 173.088797 154.301758 173.120893 154.027187 172.964188 C 153.754551 172.807482 153.607598 172.495958 153.661738 172.186323 L 156.17541 157.491857 C 156.24502 157.082156 156.633672 156.808393 157.04166 156.87825 L 157.161543 156.90657 L 171.559082 161.875841 C 171.856855 161.979682 172.059883 162.257221 172.065684 162.572521 C 172.071484 162.88782 171.881992 163.1748 171.588086 163.289969 Z M 166.290039 165.344136 " transform="matrix(2.020202,0,0,2.068966,-185.353535,-222.931159)"/>
<path style=" stroke:none;fill-rule:nonzero;fill:rgb(100%,100%,100%);fill-opacity:1;" d="M 150.585938 119.160156 C 153.570312 123.429688 157.484375 127.816406 162.792969 130.335938 C 168.730469 133.15625 176.523438 133.675781 186.910156 129.136719 C 187.585938 128.839844 188.367188 129.082031 188.773438 129.703125 C 189.179688 130.328125 189.09375 131.164062 188.566406 131.683594 C 186.007812 134.632812 183.324219 136.949219 180.582031 138.722656 C 173.050781 143.589844 165.097656 144.34375 157.851562 142.816406 C 150.679688 141.300781 144.203125 137.527344 139.542969 133.300781 C 137.757812 131.683594 136.226562 129.988281 135.019531 128.320312 L 127.542969 134.765625 C 127.058594 135.183594 126.367188 135.25 125.8125 134.925781 C 125.261719 134.601562 124.964844 133.957031 125.074219 133.316406 L 130.152344 102.914062 C 130.292969 102.066406 131.078125 101.5 131.902344 101.644531 L 132.144531 101.703125 L 161.230469 111.984375 C 161.832031 112.199219 162.242188 112.773438 162.253906 113.425781 C 162.265625 114.078125 161.882812 114.671875 161.289062 114.910156 Z M 150.585938 119.160156 "/>
<path style="fill:none;stroke-width:6;stroke-linecap:butt;stroke-linejoin:miter;stroke:rgb(0%,0%,0%);stroke-opacity:0.505882;stroke-miterlimit:10;" d="M 345.973105 152.875646 C 346.593789 154.844852 351.193809 169.350516 351.193809 169.350516 C 351.340762 169.818745 351.068125 170.30019 350.625332 170.439904 C 350.546055 170.464448 350.399102 170.449344 350.354629 170.426688 L 350.155469 170.353055 L 337.826875 167.392638 L 339.017969 171.176232 C 340.031172 174.402859 338.244531 177.976883 335.092773 178.968094 L 320.339453 183.608849 C 316.95373 184.515099 313.500332 182.713927 312.494863 179.519396 L 308.376309 166.424083 C 307.320566 163.06907 309.111074 159.634761 312.465859 158.579357 L 327.21918 153.938602 C 330.430879 152.928511 333.849473 154.750451 334.89748 158.080919 L 336.10791 161.926818 L 344.252207 152.078901 C 344.615723 151.669201 345.83582 152.439513 345.973105 152.875646 Z M 345.973105 152.875646 " transform="matrix(2.020202,0,0,2.068966,-185.353535,-222.931159)"/>
<path style=" stroke:none;fill-rule:nonzero;fill:rgb(100%,100%,100%);fill-opacity:1;" d="M 512.59375 91.429688 C 512.992188 91.863281 513.316406 92.25 513.277344 92.125 L 524.128906 127.449219 C 524.425781 128.417969 523.875 129.414062 522.980469 129.703125 C 522.820312 129.753906 522.523438 129.722656 522.433594 129.675781 L 522.03125 129.523438 L 497.125 123.398438 L 499.53125 131.226562 C 501.578125 137.902344 497.96875 145.296875 491.601562 147.347656 L 461.796875 156.949219 C 454.957031 158.824219 447.980469 155.097656 445.949219 148.488281 L 437.628906 121.394531 C 435.496094 114.453125 439.113281 107.347656 445.890625 105.164062 L 475.695312 95.5625 C 482.183594 93.472656 489.089844 97.242188 491.207031 104.132812 L 493.652344 112.089844 L 510.105469 91.714844 C 510.839844 90.867188 511.851562 90.757812 512.59375 91.429688 Z M 512.59375 91.429688 "/>
<path style="fill-rule:nonzero;fill:rgb(100%,100%,100%);fill-opacity:1;stroke-width:6;stroke-linecap:butt;stroke-linejoin:miter;stroke:rgb(0%,0%,0%);stroke-opacity:0.505882;stroke-miterlimit:10;" d="M 306.701816 140.114513 C 305.470117 138.20006 303.83043 136.213862 301.529453 135.005529 C 298.957773 133.653706 295.514043 133.255333 290.809609 134.990425 C 290.504102 135.103706 290.161855 134.982872 289.995566 134.701557 C 289.829277 134.42213 289.885352 134.063406 290.130918 133.85006 C 291.329746 132.630399 292.56918 131.686388 293.824082 130.980268 C 297.267812 129.039383 300.810156 128.888341 303.990918 129.711518 C 307.138809 130.525255 309.928984 132.301883 311.903184 134.235216 C 312.661152 134.977208 313.303105 135.743745 313.801973 136.493289 L 317.257305 133.86894 C 317.481602 133.69713 317.789043 133.683914 318.026875 133.836844 C 318.264707 133.989774 318.382656 134.274865 318.320781 134.550516 L 315.410723 147.602404 C 315.329512 147.964904 314.969863 148.193354 314.606348 148.112169 L 314.501934 148.080073 L 301.825293 142.984305 C 301.562324 142.878576 301.394102 142.619917 301.40377 142.338602 C 301.411504 142.055399 301.595195 141.808068 301.863965 141.717443 Z M 306.701816 140.114513 " transform="matrix(2.020202,0,0,2.068966,-185.353535,-222.931159)"/>
<path style=" stroke:none;fill-rule:nonzero;fill:rgb(100%,100%,100%);fill-opacity:1;" d="M 434.246094 66.960938 C 431.757812 63 428.445312 58.890625 423.796875 56.390625 C 418.601562 53.59375 411.644531 52.769531 402.140625 56.359375 C 401.523438 56.59375 400.832031 56.34375 400.496094 55.761719 C 400.160156 55.183594 400.273438 54.441406 400.769531 54 C 403.191406 51.476562 405.695312 49.523438 408.230469 48.0625 C 415.1875 44.046875 422.34375 43.734375 428.769531 45.4375 C 435.128906 47.121094 440.765625 50.796875 444.753906 54.796875 C 446.285156 56.332031 447.582031 57.917969 448.589844 59.46875 L 455.570312 54.039062 C 456.023438 53.683594 456.644531 53.65625 457.125 53.972656 C 457.605469 54.289062 457.84375 54.878906 457.71875 55.449219 L 451.839844 82.453125 C 451.675781 83.203125 450.949219 83.675781 450.214844 83.507812 L 450.003906 83.441406 L 424.394531 72.898438 C 423.863281 72.679688 423.523438 72.144531 423.542969 71.5625 C 423.558594 70.976562 423.929688 70.464844 424.472656 70.277344 Z M 434.246094 66.960938 "/>
</g>
</svg>
