<svg xmlns="http://www.w3.org/2000/svg" xmlns:xlink="http://www.w3.org/1999/xlink" width="600px" height="300px" viewBox="0 0 600 300" version="1.1">
<g id="surface1">
<path style=" stroke:none;fill-rule:nonzero;fill:rgb(60.000002%,40.000001%,100%);fill-opacity:1;" d="M 0 300.5 L 0 0.277344 L 599.972656 0.277344 L 599.972656 300.5 Z M 0 300.5 "/>
<path style=" stroke:none;fill-rule:nonzero;fill:rgb(0%,0%,0%);fill-opacity:0.101961;" d="M 0.691406 209.628906 C 25.652344 200.433594 32.210938 199.320312 57.378906 179.394531 C 101.027344 144.375 68.714844 156.210938 134.242188 112.378906 C 157.589844 96.691406 160.277344 91.171875 166.261719 85.210938 C 173.722656 77.578125 198.152344 60.539062 206.273438 52.425781 C 217.792969 40.667969 227.636719 33.695312 268.027344 17.710938 C 274.382812 15.113281 271.871094 10.246094 260.089844 13.308594 C 247.042969 16.960938 237.433594 17.40625 228.84375 19.820312 C 223.3125 21.253906 220.570312 22.957031 209.464844 26.175781 C 159.226562 40.527344 166.945312 36.773438 139.210938 56.15625 C 122.402344 68.320312 118.964844 67.609375 111.730469 71.960938 C 79.574219 90.484375 49.550781 143.574219 27.523438 167.566406 C 20.777344 174.929688 10.757812 181.195312 1.046875 184.648438 C 0.691406 182.582031 0.824219 164.558594 0.828125 164.261719 C 0.472656 160.796875 24.121094 150.027344 32.195312 144.859375 C 42.125 138.25 51.023438 126.199219 55.28125 118.859375 C 65.054688 102.453125 60.027344 95.796875 80.488281 72.734375 C 102.414062 48.316406 129.546875 39.78125 130.023438 39.578125 C 122.074219 40.042969 114.707031 39.8125 109.613281 44.074219 C 107.8125 45.511719 106.472656 48.5 100.621094 50.132812 C 85.636719 54.160156 64.890625 62.566406 53.785156 74.179688 C 40.347656 88.335938 41.460938 116.648438 22.574219 119.691406 C 16.226562 120.664062 14.363281 122.878906 1.070312 132.40625 C 0.679688 130.402344 0.574219 96.484375 1.25 93.742188 C 5.167969 78.972656 23.125 64.589844 36.78125 56.585938 C 61.195312 42.515625 71.804688 43.367188 86.785156 31.59375 C 109.90625 13.039062 92.988281 26.140625 113.925781 11.476562 C 124.371094 4.125 146.761719 12.160156 133.28125 17.578125 C 131.785156 18.085938 128.789062 28.648438 128.789062 28.648438 C 128.789062 28.648438 135.710938 20.257812 137.058594 19.910156 C 144.894531 17.542969 178.101562 5.320312 196.738281 0.914062 C 204.480469 1.65625 339.398438 -4.316406 316.644531 7.070312 C 256.6875 33.269531 256.273438 42.960938 229.355469 63.625 C 221.539062 69.644531 221.726562 72.519531 205.289062 85.394531 C 199.796875 89.742188 169.234375 111.183594 168.925781 111.378906 C 160.160156 117.109375 156.402344 117.328125 145.855469 118.824219 C 135.140625 120.425781 131.84375 124.71875 127.550781 127.429688 C 91.25 151.292969 95.386719 180.417969 45.351562 206.328125 C 25.898438 216.441406 4.0625 219.90625 1.019531 220.058594 "/>
<path style=" stroke:none;fill-rule:nonzero;fill:rgb(0%,0%,0%);fill-opacity:0.101961;" d="M 268.082031 293.132812 C 257.273438 304.613281 206.851562 301.625 210.53125 291.410156 C 213.070312 284.359375 214.984375 278.335938 216.550781 276.246094 C 225.371094 265.015625 232.640625 261.492188 240.839844 253.582031 C 255.105469 239.601562 252.851562 234.722656 281.699219 208.542969 C 262.226562 214.707031 264.558594 213.433594 246.609375 223.511719 C 231.238281 232.347656 228.691406 231.96875 204.671875 250.183594 C 162.578125 281.773438 179.300781 272.953125 141.597656 286.3125 C 117.058594 302.195312 61.4375 301 63.714844 298.105469 C 69.847656 288.710938 72.28125 274.160156 78.066406 268.726562 C 88.582031 259.382812 102.039062 246.023438 115.820312 241.621094 C 116.714844 241.339844 117.621094 241.105469 118.472656 240.746094 C 107.546875 239.765625 89.519531 251.121094 80.800781 257.316406 C 67.472656 266.679688 59.332031 272.722656 40.144531 275.839844 C 22.246094 278.777344 8.503906 276.15625 0.804688 275.796875 C 0.804688 274.542969 0.808594 268.335938 0.804688 266.484375 C 3.378906 265.734375 7.773438 265.660156 10.386719 265.050781 C 16.667969 263.617188 31.703125 259.207031 57.449219 255.90625 C 69.394531 254.289062 84.542969 254.210938 93.792969 245.054688 C 99.792969 239.082031 103.957031 229.175781 111.632812 222.101562 C 119.734375 214.382812 127.976562 210.492188 141.058594 203.328125 C 148.253906 199.484375 150.386719 194.277344 153.058594 188.636719 C 165.785156 162.554688 184.589844 159.941406 190.167969 145.191406 C 192.019531 140.136719 195.148438 129.167969 201.042969 113.902344 C 198.621094 115.949219 163.738281 152.378906 157.835938 157.132812 C 151.140625 162.613281 131.121094 172.363281 115.734375 183.746094 C 94.210938 200.15625 95.613281 219.6875 52.175781 238.800781 C 45.929688 241.554688 28.257812 248.527344 21.765625 246.433594 C 29.25 238.84375 41.433594 234.585938 47.824219 232.070312 C 60.359375 226.894531 70.554688 218.382812 85.191406 201.824219 C 116.976562 165.886719 109.582031 177.011719 121.800781 164.664062 C 137.539062 148.980469 150.917969 127.984375 171.359375 116.601562 C 181.089844 111.128906 189.304688 110.617188 199.011719 101.75 C 204.441406 97.054688 211.234375 89.96875 225.085938 85.675781 C 240.179688 80.902344 257.996094 79.980469 280.328125 63.734375 C 295.089844 53.234375 311.796875 33.105469 333.710938 22.269531 C 340.054688 19.085938 347.351562 17.3125 365.03125 8.847656 C 384.371094 -0.226562 584.3125 0.40625 585.800781 0.5 C 577.191406 10.050781 550.914062 36.851562 543.414062 47.195312 C 539.34375 52.84375 536.296875 59.121094 534.300781 65.6875 C 557.4375 28.082031 574.675781 28.398438 599.453125 30.3125 C 599.773438 32.527344 599.851562 42.898438 596.839844 44.917969 C 568.121094 62.417969 529.789062 83.800781 534.476562 118.910156 C 534.664062 120.28125 534.84375 121.675781 535.292969 123.003906 C 536.132812 113.59375 539.1875 105.144531 547.753906 96.019531 C 568.863281 73.289062 591.378906 78.921875 598.910156 67.269531 C 599.210938 72.785156 598.929688 94.804688 599.050781 106.335938 C 598.960938 106.9375 597.023438 107.941406 596.121094 108.039062 C 585.355469 110.152344 575.714844 115.367188 566.113281 120.195312 C 554.824219 126.015625 549.34375 127.386719 532.757812 135.953125 C 508.914062 147.683594 499.222656 146 485.414062 148.289062 C 470.578125 150.761719 450.746094 156.75 439.734375 166.472656 C 423.4375 181.445312 423.773438 173.21875 387.5 179.492188 C 372.722656 182.367188 361.929688 182.53125 352.75 184.730469 C 315.75 194.054688 293.015625 212.683594 290.65625 217.015625 C 305.226562 208.472656 311.738281 207.496094 323.539062 203.480469 C 338.125 198.832031 340.953125 196.992188 362.582031 192.886719 C 371.46875 191.082031 390.546875 186.832031 400.511719 191.628906 C 397.191406 196.59375 388.929688 194.847656 381.523438 196.492188 C 370.910156 198.757812 357.730469 204.402344 345.921875 209.125 C 332.058594 214.761719 321.226562 222.125 312.238281 227.359375 C 258.953125 258.964844 249.542969 255.835938 238.746094 273.792969 C 248.808594 267.753906 290.488281 251.800781 299.414062 249.828125 C 314.292969 245.496094 311.035156 244.492188 315.488281 239.449219 C 323.320312 230.238281 335.453125 227.261719 343.113281 225.070312 C 378.933594 215.273438 397.9375 217.550781 418.160156 217.527344 C 454.597656 218.261719 462.582031 225.386719 494 211.03125 C 511.09375 203.890625 523.328125 215.253906 543.148438 192.9375 C 550.570312 184.53125 556.761719 171.789062 566.8125 163.183594 C 580.285156 152.105469 588.578125 154.203125 598.925781 153.898438 C 599.078125 156.75 599.089844 181.90625 598.898438 183.167969 C 596.445312 183.320312 591.742188 183.078125 589.320312 183.589844 C 573.128906 186.925781 543.175781 197.0625 536.109375 211.269531 C 546.265625 204.460938 543.71875 204.84375 565.789062 199.164062 C 576.6875 196.460938 579.382812 198.886719 591.222656 199.042969 C 593.097656 199.105469 597.167969 198.769531 599.042969 198.804688 C 599.019531 204.816406 599.292969 205.804688 598.347656 205.945312 C 585.429688 208.859375 572.941406 218.636719 562.085938 224.832031 C 507.828125 255.355469 498.796875 264.035156 499.199219 270.738281 C 505.160156 262.386719 524 258.703125 542.464844 247.234375 C 554.28125 240.160156 598.554688 222.804688 598.867188 222.691406 C 598.9375 228.144531 598.898438 233.597656 598.886719 239.050781 C 578.394531 236.902344 571.230469 263.011719 557.714844 281.882812 C 557.078125 282.777344 563.738281 283.75 566.660156 284.652344 C 570.105469 285.71875 570.109375 286.59375 572.269531 285.695312 C 573.277344 285.226562 574.46875 285.128906 575.394531 284.503906 C 576.542969 283.40625 577.183594 273.867188 585.773438 267.726562 C 588.894531 265.539062 595.734375 265.542969 599.449219 265.445312 C 599.792969 270.226562 599.765625 300.207031 599.765625 300.207031 C 599.765625 300.207031 404.878906 300.492188 407.054688 299.460938 C 428.71875 289.183594 468.0625 273.210938 486.941406 259.921875 C 506.070312 246.582031 508.582031 249.121094 525.070312 228.496094 C 526.085938 227.1875 527.105469 225.847656 527.699219 224.320312 C 525.636719 223.964844 442.179688 233.777344 441.871094 233.8125 C 424.542969 235.976562 418.824219 239.746094 409.453125 240.664062 C 383.527344 243.433594 353.367188 245.019531 325.085938 254.078125 C 297.335938 262.953125 282.097656 278.257812 268.085938 293.128906 M 539.542969 11.117188 C 527.441406 10.765625 515.074219 18.976562 505.992188 25.910156 C 490.691406 37.609375 486.867188 43.710938 462.945312 55.558594 C 425.082031 74.464844 382.425781 75.757812 371.644531 73.753906 C 376.183594 61.074219 391.617188 57.21875 402.996094 52.527344 C 411.675781 48.785156 421.191406 50.183594 427.765625 49.242188 C 429.304688 49.054688 448.785156 45.519531 456.234375 42.214844 C 466.691406 37.554688 484.859375 16.4375 488.214844 0.277344 C 485.320312 2.5 487.261719 3.027344 471.976562 12.011719 C 445.847656 26.871094 436.199219 26.273438 420.796875 30.632812 C 372.078125 43.878906 369.65625 48.929688 351.558594 67.832031 C 335.070312 84.460938 329.808594 91.15625 323.605469 97.035156 C 314.730469 105.3125 309.113281 108.839844 295.660156 120.398438 C 270.753906 141.105469 270.800781 142.761719 264.703125 150.578125 C 265.585938 150.34375 266.25 149.726562 266.984375 149.25 C 291.730469 132.707031 331.464844 119.207031 350.25 108.375 C 381.660156 90.617188 423.089844 98.945312 451.03125 86.5 C 481.503906 73.214844 511.566406 32.179688 524.652344 20.695312 C 528.726562 16.765625 534.105469 14.457031 539.007812 11.628906 Z M 487.46875 80.621094 C 485.144531 82.777344 482.789062 84.957031 479.941406 86.5 C 426.238281 115.929688 426.507812 94.210938 401.6875 108.820312 C 397.460938 111.226562 390.636719 116.527344 378.804688 118.160156 C 368.367188 119.371094 344.980469 124.738281 329.617188 134.003906 C 320.261719 139.773438 312.90625 145.265625 301.757812 148.28125 C 311.496094 149.117188 323.03125 141.179688 337.878906 137.449219 C 361.179688 131.667969 376.054688 133.820312 380.648438 133.414062 C 398.8125 132.640625 406.160156 116.3125 430.238281 117.425781 C 440.945312 117.726562 450.339844 120.636719 463.46875 113.097656 C 470.324219 109.1875 478.667969 101.957031 481.769531 95.519531 C 484.085938 90.765625 485.386719 85.640625 487.707031 80.886719 C 488.074219 80.554688 488.089844 80.0625 488.171875 79.628906 C 487.921875 79.933594 487.820312 80.375 487.398438 80.53125 Z M 343.496094 174.953125 C 352.503906 173.171875 364.1875 154.59375 393.476562 152.582031 C 399.199219 152.070312 431.675781 151.613281 431.777344 151.601562 C 450.605469 149.808594 456.179688 129.507812 498.195312 124.078125 C 505.058594 123.421875 514.746094 125.945312 519.246094 122.945312 C 519.691406 122.8125 519.335938 122.382812 519.191406 122.179688 C 513.957031 115.136719 514.972656 100.191406 513.925781 87.90625 C 513.96875 76.492188 520.976562 64.355469 526.488281 54.28125 C 532.503906 42.972656 541.4375 35.796875 548.121094 29.6875 C 569.433594 10.546875 566.136719 6.113281 577.316406 2.539062 C 554.648438 2.050781 541.109375 19.390625 528.910156 33.21875 C 525.046875 37.574219 521.707031 42.320312 518.621094 47.1875 C 514.9375 52.824219 509.867188 57.433594 505.277344 62.378906 C 486.25 81.984375 504.800781 108.582031 460.949219 123.84375 C 429.625 134.75 377.371094 131.359375 350.371094 161.121094 C 346.898438 165.058594 343.992188 169.761719 343.492188 174.953125 M 341.273438 146.664062 C 343.457031 145.746094 345.4375 144.476562 347.410156 143.21875 C 344.910156 143.332031 342.925781 145.050781 341.273438 146.664062 M 287.136719 189.042969 C 295.003906 184.367188 312.636719 170.5 323.558594 163.09375 C 333.328125 156.21875 327.058594 161.855469 339.679688 147.832031 C 312.753906 160.246094 303.203125 151.238281 288.554688 159.925781 C 275.023438 167.679688 278.804688 176.476562 233 188.648438 C 210.675781 194.4375 209.214844 196.828125 203.582031 199.496094 C 204.503906 197.679688 205.875 196.105469 206.929688 194.359375 C 214.652344 182.71875 213.046875 181.777344 228.800781 162.214844 C 234.875 154.628906 264.375 120.300781 272.382812 113.347656 C 292.738281 95.292969 304.117188 101.59375 318.953125 72.183594 C 321.605469 67.304688 323.839844 60.988281 332.386719 52.9375 C 383.523438 7.8125 429.71875 14.886719 444.320312 5.90625 C 440.179688 5.351562 412.335938 4.117188 386.761719 11.761719 C 353.585938 21.441406 325.347656 47.960938 299.589844 65.28125 C 283.195312 76.652344 277.792969 88.046875 259.722656 96.667969 C 251.914062 100.671875 237.273438 104.503906 227.878906 114.0625 C 215.304688 126.160156 208.933594 159.492188 198.839844 170.070312 C 196.347656 172.894531 191.703125 175.261719 186.414062 182.550781 C 174.183594 200.46875 154.441406 200.328125 139.679688 220.5 C 131.371094 231.582031 128.761719 245.914062 115.066406 266.222656 C 111.003906 272.183594 103.652344 281.730469 97.511719 285.769531 C 97.816406 285.6875 98.105469 285.5625 98.375 285.40625 C 119.335938 273.363281 127.382812 267.4375 146.613281 258.285156 C 192.410156 237.066406 229.539062 201.203125 258.402344 196.597656 C 263.730469 195.597656 273.984375 196.785156 287.136719 189.042969 M 547.21875 259.910156 C 524.558594 272.722656 473.066406 282.714844 435.238281 298.601562 C 426.078125 302.449219 558.636719 300.199219 558.636719 300.199219 C 558.636719 300.199219 550.140625 278.367188 555.082031 271.777344 C 559.5625 265.839844 561.316406 258.480469 566.03125 252.679688 C 559.265625 253.722656 553.132812 256.78125 547.21875 259.90625 M 1.09375 62.046875 C 0.652344 59.964844 0.824219 42.824219 0.871094 40.796875 C 12.746094 28.660156 15.71875 27.039062 19.304688 24.71875 C 29.394531 17.671875 41.734375 14.605469 52.664062 9.011719 C 88.808594 -9.832031 85.140625 10.003906 77.046875 13.613281 C 59.453125 21.460938 45.789062 21.527344 26.242188 37.078125 C 11.425781 48.925781 10.046875 51.75 2.757812 62.046875 "/>
<path style=" stroke:none;fill-rule:nonzero;fill:rgb(0%,0%,0%);fill-opacity:0.101961;" d="M 599.480469 125.558594 C 599.488281 125.855469 599.628906 137.332031 599.449219 138.328125 C 589.863281 138.382812 573.757812 145.960938 565.949219 151.222656 C 548.980469 162.574219 546.246094 169.226562 539.113281 170.753906 C 534.910156 171.835938 529.171875 168.894531 514.453125 177.855469 C 502.5 185.097656 494.289062 193.78125 477.378906 195.554688 C 460.660156 197.234375 457.546875 195.863281 450.808594 196.019531 C 450.851562 196.074219 450.933594 196.183594 450.972656 196.238281 C 450.40625 195.96875 449.765625 196.117188 449.15625 196.144531 C 440.933594 196.941406 440.117188 194.71875 434.367188 192.816406 C 465.820312 190.941406 486.949219 167.871094 506.722656 157.957031 C 517.992188 152.4375 528.253906 152.078125 537.105469 148.851562 C 544.089844 146.40625 552.609375 140.503906 557.378906 138.113281 C 568.707031 132.257812 572.988281 132.425781 590.917969 127.335938 C 592.867188 126.796875 594.742188 126.03125 596.707031 125.554688 M 470.199219 247.691406 C 470.109375 248.359375 470.308594 247.714844 460.320312 254.632812 C 450.03125 261.757812 448.164062 260.121094 400.945312 272.316406 C 389.164062 275.382812 387.589844 277.5625 376.941406 282.550781 C 370.664062 285.324219 365.058594 287.453125 360.148438 290.953125 C 356.816406 293.328125 310.246094 302.941406 316.480469 292.53125 C 322.636719 282.265625 331.449219 271.261719 362.375 262.644531 C 384.117188 256.609375 418.796875 253.898438 425.953125 253.824219 L 426.113281 253.695312 C 444.082031 253.234375 468.746094 248.273438 472.390625 246.726562 C 474.789062 245.328125 477.40625 244.183594 480.171875 243.613281 C 477.835938 245.101562 472.316406 247.027344 470.636719 247.535156 L 470.730469 247.890625 Z M 470.199219 247.691406 "/>
<path style="fill:none;stroke-width:6;stroke-linecap:butt;stroke-linejoin:round;stroke:rgb(0%,0%,0%);stroke-opacity:0.501961;stroke-miterlimit:10;" d="M 263.743073 192.804474 L 254.252838 185.055294 C 253.008698 186.030412 251.371979 186.599748 249.483307 186.599748 C 244.526276 186.593537 239.702057 182.653732 238.705963 177.798849 C 238.649323 177.521427 238.606354 177.241935 238.575104 176.962443 C 237.584869 177.049396 236.586823 176.983146 235.618073 176.761623 C 230.987213 175.736818 227.274323 171.668654 226.819244 167.358263 C 226.536041 167.383107 226.252838 167.397599 225.969635 167.397599 C 221.012604 167.393459 216.186432 163.453654 215.192291 158.598771 C 214.811432 156.747912 215.043854 155.031623 215.748932 153.617599 L 214.834869 152.870216 C 214.071198 152.244982 213.864166 151.232599 214.371979 150.609435 C 214.881744 149.986271 215.914948 149.988341 216.678619 150.611505 L 217.592682 151.356818 C 218.838776 150.381701 220.473541 149.814435 222.362213 149.814435 C 227.319244 149.818576 232.143463 153.75838 233.139557 158.615334 C 233.198151 158.898966 233.241119 159.178459 233.272369 159.45381 C 234.262604 159.364787 235.262604 159.433107 236.233307 159.65463 C 240.864166 160.681505 244.575104 164.745529 245.032135 169.053849 C 245.307526 169.026935 245.588776 169.014513 245.877838 169.014513 C 250.834869 169.018654 255.661041 172.960529 256.655182 177.815412 C 257.036041 179.664201 256.803619 181.38049 256.098541 182.796584 L 265.586823 190.543693 C 266.352448 191.168927 266.559479 192.18131 266.051666 192.804474 C 265.795807 193.117091 264.125885 193.115021 263.743073 192.804474 Z M 263.743073 192.804474 " transform="matrix(2,0,0,1.886792,-180.357239,-188.727339)"/>
<path style=" stroke:none;fill-rule:nonzero;fill:rgb(100%,100%,100%);fill-opacity:1;" d="M 347.128906 175.054688 L 328.148438 160.433594 C 325.660156 162.273438 322.386719 163.347656 318.609375 163.347656 C 308.695312 163.335938 299.046875 155.902344 297.054688 146.742188 C 296.941406 146.21875 296.855469 145.691406 296.792969 145.164062 C 294.8125 145.328125 292.816406 145.203125 290.878906 144.785156 C 281.617188 142.851562 274.191406 135.175781 273.28125 127.042969 C 272.714844 127.089844 272.148438 127.117188 271.582031 127.117188 C 261.667969 127.109375 252.015625 119.675781 250.027344 110.515625 C 249.265625 107.023438 249.730469 103.785156 251.140625 101.117188 L 249.3125 99.707031 C 247.785156 98.527344 247.371094 96.617188 248.386719 95.441406 C 249.40625 94.265625 251.472656 94.269531 253 95.445312 L 254.828125 96.851562 C 257.320312 95.011719 260.589844 93.941406 264.367188 93.941406 C 274.28125 93.949219 283.929688 101.382812 285.921875 110.546875 C 286.039062 111.082031 286.125 111.609375 286.1875 112.128906 C 288.167969 111.960938 290.167969 112.089844 292.109375 112.507812 C 301.371094 114.445312 308.792969 122.113281 309.707031 130.242188 C 310.257812 130.191406 310.820312 130.167969 311.398438 130.167969 C 321.3125 130.175781 330.964844 137.613281 332.953125 146.773438 C 333.714844 150.261719 333.25 153.5 331.839844 156.171875 L 350.816406 170.789062 C 352.347656 171.96875 352.761719 173.878906 351.746094 175.054688 C 351.234375 175.644531 350.464844 175.9375 349.628906 175.9375 C 348.792969 175.9375 347.894531 175.640625 347.128906 175.054688 "/>
<path style="fill:none;stroke-width:6.5;stroke-linecap:butt;stroke-linejoin:miter;stroke:rgb(0%,0%,0%);stroke-opacity:0.501961;stroke-miterlimit:10;" d="M 207.086823 201.305177 L 194.64151 140.624318 C 193.887604 136.949513 195.416901 133.322326 197.981354 133.324396 L 263.776276 133.386505 C 268.29776 133.390646 271.946198 137.516779 272.776276 141.56424 L 285.463776 203.427248 C 286.268463 207.35256 282.811432 209.756193 278.871979 209.752052 L 216.948151 209.694084 C 211.959869 209.687873 208.137604 206.42713 207.086823 201.305177 Z M 282.082916 205.936466 L 267.98526 137.208302 L 197.825104 137.142052 L 211.920807 205.872287 Z M 282.082916 205.936466 " transform="matrix(2,0,0,1.886792,-180.357239,-188.727339)"/>
<path style="fill:none;stroke-width:9;stroke-linecap:butt;stroke-linejoin:miter;stroke:rgb(0%,0%,0%);stroke-opacity:0.501961;stroke-miterlimit:10;" d="M 190.776276 135.86674 C 190.746979 133.889591 191.786041 132.049084 193.493073 131.051193 C 195.202057 130.055373 197.315338 130.055373 199.024323 131.051193 C 200.731354 132.049084 201.770416 133.889591 201.741119 135.86674 C 201.698151 138.864552 199.256744 141.272326 196.258698 141.272326 C 193.260651 141.272326 190.819244 138.864552 190.776276 135.86674 Z M 264.102448 135.585177 C 264.073151 133.605959 265.112213 131.765451 266.821198 130.76963 C 268.528229 129.77174 270.64151 129.77174 272.350494 130.76963 C 274.059479 131.765451 275.096588 133.605959 275.069244 135.585177 C 275.024323 138.580919 272.582916 140.988693 269.584869 140.988693 C 266.586823 140.988693 264.145416 138.580919 264.102448 135.585177 Z M 205.498932 207.497482 C 205.498932 204.468615 207.952057 202.013224 210.981354 202.013224 C 214.008698 202.013224 216.463776 204.468615 216.463776 207.497482 C 216.463776 210.524279 214.008698 212.979669 210.981354 212.979669 C 207.952057 212.979669 205.498932 210.524279 205.498932 207.497482 Z M 278.258698 207.497482 C 278.229401 205.518263 279.268463 203.677755 280.975494 202.681935 C 282.684479 201.684044 284.79776 201.684044 286.506744 202.681935 C 288.213776 203.677755 289.252838 205.518263 289.225494 207.497482 C 289.180573 210.493224 286.739166 212.900998 283.741119 212.900998 C 280.743073 212.900998 278.301666 210.493224 278.258698 207.497482 Z M 278.258698 207.497482 " transform="matrix(2,0,0,1.886792,-180.357239,-188.727339)"/>
<path style=" stroke:none;fill-rule:nonzero;fill:rgb(100%,100%,100%);fill-opacity:1;" d="M 237.257812 206.90625 L 205.929688 62.820312 L 361.84375 62.957031 L 393.167969 207.042969 Z M 383.804688 199.832031 L 355.613281 70.15625 L 215.292969 70.03125 L 243.484375 199.710938 Z M 383.804688 199.832031 "/>
<path style="fill-rule:nonzero;fill:rgb(100%,100%,100%);fill-opacity:1;stroke-width:2.5;stroke-linecap:butt;stroke-linejoin:miter;stroke:rgb(100%,100%,100%);stroke-opacity:1;stroke-miterlimit:10;" d="M 190.776276 135.86674 C 190.746979 133.889591 191.786041 132.049084 193.493073 131.051193 C 195.202057 130.055373 197.315338 130.055373 199.024323 131.051193 C 200.731354 132.049084 201.770416 133.889591 201.741119 135.86674 C 201.698151 138.864552 199.256744 141.272326 196.258698 141.272326 C 193.260651 141.272326 190.819244 138.864552 190.776276 135.86674 Z M 264.102448 135.585177 C 264.073151 133.605959 265.112213 131.765451 266.821198 130.76963 C 268.528229 129.77174 270.64151 129.77174 272.350494 130.76963 C 274.059479 131.765451 275.096588 133.605959 275.069244 135.585177 C 275.024323 138.580919 272.582916 140.988693 269.584869 140.988693 C 266.586823 140.988693 264.145416 138.580919 264.102448 135.585177 Z M 205.498932 207.497482 C 205.498932 204.468615 207.952057 202.013224 210.981354 202.013224 C 214.008698 202.013224 216.463776 204.468615 216.463776 207.497482 C 216.463776 210.524279 214.008698 212.979669 210.981354 212.979669 C 207.952057 212.979669 205.498932 210.524279 205.498932 207.497482 Z M 278.258698 207.497482 C 278.229401 205.518263 279.268463 203.677755 280.975494 202.681935 C 282.684479 201.684044 284.79776 201.684044 286.506744 202.681935 C 288.213776 203.677755 289.252838 205.518263 289.225494 207.497482 C 289.180573 210.493224 286.739166 212.900998 283.741119 212.900998 C 280.743073 212.900998 278.301666 210.493224 278.258698 207.497482 Z M 278.258698 207.497482 " transform="matrix(2,0,0,1.886792,-180.357239,-188.727339)"/>
<path style="fill:none;stroke-width:7;stroke-linecap:butt;stroke-linejoin:miter;stroke:rgb(0%,0%,0%);stroke-opacity:0.501961;stroke-miterlimit:10;" d="M 154.14151 184.03256 L 148.116119 179.457169 L 137.200104 193.742326 C 136.875885 194.230919 136.662994 194.705021 136.612213 195.156349 C 136.383698 197.969904 134.643463 200.321779 132.498932 201.338302 C 131.764557 201.661271 131.094635 202.474904 130.864166 203.230568 L 128.965729 209.331779 C 128.854401 209.73756 128.885651 209.954943 128.89151 210.010841 L 129.877838 210.710607 C 129.987213 210.696115 130.198151 210.611232 130.457916 210.46424 L 135.778229 207.013029 C 136.491119 206.526505 137.098541 205.665255 137.219635 204.924084 C 137.571198 202.594982 139.426666 200.282443 141.602448 199.485373 C 142.446198 199.147912 142.901276 198.80838 143.223541 198.319787 Z M 159.864166 177.40963 L 160.362213 177.788498 L 162.473541 179.390919 C 163.717682 180.347404 163.959869 182.125802 163.018463 183.380412 L 161.168854 185.746779 C 160.325104 186.918576 158.700104 187.251896 157.479401 186.471388 L 146.51651 200.820724 C 145.721588 201.930412 144.662994 202.741974 143.551666 203.170529 C 142.276276 203.623927 141.418854 204.685998 141.319244 205.590724 C 141.018463 207.466427 139.717682 209.371115 138.034088 210.489084 L 132.659088 213.948576 C 131.938385 214.381271 131.147369 214.710451 130.436432 214.807755 C 129.342682 214.956818 128.307526 214.70838 127.498932 214.095568 L 126.258698 213.151505 C 124.883698 212.05838 124.397369 210.120568 125.012604 208.089591 L 126.914948 202.044279 C 127.489166 200.12924 129.030182 198.361193 130.760651 197.568263 C 131.598541 197.176974 132.401276 196.121115 132.45401 195.278498 C 132.612213 193.587052 133.112213 192.351076 133.909088 191.241388 L 144.871979 176.894123 C 143.793854 175.927287 143.631744 174.335216 144.522369 173.09924 L 146.371979 170.734943 C 147.327057 169.490685 149.108307 169.248459 150.362213 170.190451 L 152.350494 171.699709 L 152.971588 172.17174 L 157.07901 166.770294 C 157.768463 165.849005 158.799713 165.242404 159.940338 165.08713 C 161.080963 164.931857 162.237213 165.240334 163.147369 165.94424 C 164.055573 166.631584 164.655182 167.650177 164.815338 168.778498 C 164.965729 169.92338 164.664948 171.082755 163.973541 172.010255 Z M 159.864166 177.40963 " transform="matrix(2,0,0,1.886792,-180.357239,-188.727339)"/>
<path style=" stroke:none;fill-rule:evenodd;fill:rgb(100%,100%,100%);fill-opacity:1;" d="M 127.925781 158.503906 L 115.875 149.871094 L 94.042969 176.824219 C 93.394531 177.746094 92.96875 178.640625 92.867188 179.492188 C 92.410156 184.800781 88.929688 189.238281 84.640625 191.15625 C 83.171875 191.765625 81.832031 193.300781 81.371094 194.726562 L 77.574219 206.238281 C 77.351562 207.003906 77.414062 207.414062 77.425781 207.519531 L 79.398438 208.839844 C 79.617188 208.8125 80.039062 208.652344 80.558594 208.375 L 91.199219 201.863281 C 92.625 200.945312 93.839844 199.320312 94.082031 197.921875 C 94.785156 193.527344 98.496094 189.164062 102.847656 187.660156 C 104.535156 187.023438 105.445312 186.382812 106.089844 185.460938 Z M 139.371094 146.007812 L 140.367188 146.722656 L 144.589844 149.746094 C 147.078125 151.550781 147.5625 154.90625 145.679688 157.273438 L 141.980469 161.738281 C 140.292969 163.949219 137.042969 164.578125 134.601562 163.105469 L 112.675781 190.179688 C 111.085938 192.273438 108.96875 193.804688 106.746094 194.613281 C 104.195312 195.46875 102.480469 197.472656 102.28125 199.179688 C 101.679688 202.71875 99.078125 206.3125 95.710938 208.421875 L 84.960938 214.949219 C 83.519531 215.765625 81.9375 216.386719 80.515625 216.570312 C 78.328125 216.851562 76.257812 216.382812 74.640625 215.226562 L 72.160156 213.445312 C 69.410156 211.382812 68.4375 207.726562 69.667969 203.894531 L 73.472656 192.488281 C 74.621094 188.875 77.703125 185.539062 81.164062 184.042969 C 82.839844 183.304688 84.445312 181.3125 84.550781 179.722656 C 84.867188 176.53125 85.867188 174.199219 87.460938 172.105469 L 109.386719 145.035156 C 107.230469 143.210938 106.90625 140.207031 108.6875 137.875 L 112.386719 133.414062 C 114.296875 131.066406 117.859375 130.609375 120.367188 132.386719 L 124.34375 135.234375 L 125.585938 136.125 L 133.800781 125.933594 C 135.179688 124.195312 137.242188 123.050781 139.523438 122.757812 C 141.804688 122.464844 144.117188 123.046875 145.9375 124.375 C 147.753906 125.671875 148.953125 127.59375 149.273438 129.722656 C 149.574219 131.882812 148.972656 134.070312 147.589844 135.820312 Z M 139.371094 146.007812 "/>
<path style="fill-rule:nonzero;fill:rgb(100%,100%,100%);fill-opacity:1;stroke-width:6;stroke-linecap:butt;stroke-linejoin:miter;stroke:rgb(0%,0%,0%);stroke-opacity:0.501961;stroke-miterlimit:10;" d="M 167.129791 205.899201 L 162.996979 205.62799 C 162.768463 205.611427 162.573151 205.454084 162.508698 205.23463 C 162.444244 205.013107 162.524323 204.777091 162.707916 204.63838 L 171.633698 198.038224 L 171.709869 197.992677 C 171.979401 197.853966 172.309479 197.959552 172.448151 198.228693 L 177.407135 207.894982 C 177.510651 208.099943 177.477448 208.34838 177.321198 208.518146 C 177.166901 208.685841 176.920807 208.739669 176.709869 208.650646 L 173.455963 207.292521 C 173.188385 208.048185 172.842682 208.772794 172.424713 209.455998 C 171.26651 211.381388 169.436432 213.348185 167.127838 214.633849 C 164.795807 215.934005 161.979401 216.538537 158.873932 215.716623 C 157.741119 215.418498 156.573151 214.929904 155.381744 214.217716 C 155.149323 214.097638 155.032135 213.828498 155.106354 213.575919 C 155.180573 213.323341 155.420807 213.157716 155.682526 213.18256 C 159.737213 213.584201 162.364166 212.563537 164.11026 210.975607 C 165.670807 209.553302 166.553619 207.656896 167.129791 205.899201 Z M 167.129791 205.899201 " transform="matrix(2,0,0,1.886792,-180.357239,-188.727339)"/>
<path style=" stroke:none;fill-rule:nonzero;fill:rgb(100%,100%,100%);fill-opacity:1;" d="M 153.902344 199.761719 L 145.636719 199.25 C 145.179688 199.21875 144.789062 198.921875 144.660156 198.507812 C 144.53125 198.089844 144.691406 197.644531 145.058594 197.382812 L 162.910156 184.929688 L 163.0625 184.84375 C 163.601562 184.582031 164.261719 184.78125 164.539062 185.289062 L 174.457031 203.527344 C 174.664062 203.914062 174.597656 204.382812 174.285156 204.699219 C 173.972656 205.015625 173.484375 205.117188 173.0625 204.953125 L 166.554688 202.390625 C 166.019531 203.816406 165.328125 205.183594 164.492188 206.472656 C 162.175781 210.105469 158.515625 213.816406 153.898438 216.242188 C 149.234375 218.695312 143.601562 219.835938 137.390625 218.289062 C 135.128906 217.722656 132.789062 216.800781 130.40625 215.457031 C 129.941406 215.230469 129.707031 214.722656 129.855469 214.246094 C 130.003906 213.769531 130.484375 213.457031 131.007812 213.503906 C 139.117188 214.261719 144.371094 212.335938 147.863281 209.339844 C 150.984375 206.65625 152.75 203.078125 153.902344 199.761719 "/>
<path style="fill-rule:nonzero;fill:rgb(100%,100%,100%);fill-opacity:1;stroke-width:6;stroke-linecap:butt;stroke-linejoin:miter;stroke:rgb(0%,0%,0%);stroke-opacity:0.501961;stroke-miterlimit:10;" d="M 118.825104 177.991388 L 122.957916 178.262599 C 123.186432 178.277091 123.381744 178.434435 123.446198 178.655959 C 123.510651 178.875412 123.430573 179.113498 123.246979 179.250138 L 114.321198 185.850294 L 114.245026 185.897912 C 113.977448 186.036623 113.647369 185.928966 113.508698 185.661896 L 108.549713 175.993537 C 108.444244 175.788576 108.479401 175.542209 108.633698 175.372443 C 108.789948 175.202677 109.034088 175.150919 109.246979 175.237873 L 112.498932 176.595998 C 112.739166 175.904513 113.086823 175.171623 113.530182 174.432521 C 114.688385 172.509201 116.520416 170.540334 118.827057 169.254669 C 121.159088 167.956584 123.975494 167.352052 127.080963 168.173966 C 128.213776 168.470021 129.381744 168.960685 130.573151 169.672873 C 130.807526 169.792951 130.92276 170.062091 130.848541 170.314669 C 130.776276 170.565177 130.534088 170.730802 130.272369 170.708029 C 126.217682 170.306388 123.590729 171.324982 121.846588 172.914982 C 120.286041 174.335216 119.401276 176.233693 118.825104 177.991388 Z M 118.825104 177.991388 " transform="matrix(2,0,0,1.886792,-180.357239,-188.727339)"/>
<path style=" stroke:none;fill-rule:nonzero;fill:rgb(100%,100%,100%);fill-opacity:1;" d="M 57.292969 147.105469 L 65.558594 147.617188 C 66.015625 147.644531 66.40625 147.941406 66.535156 148.359375 C 66.664062 148.773438 66.503906 149.222656 66.136719 149.480469 L 48.285156 161.933594 L 48.132812 162.023438 C 47.597656 162.285156 46.9375 162.082031 46.660156 161.578125 L 36.742188 143.335938 C 36.535156 142.949219 36.601562 142.484375 36.914062 142.167969 C 37.226562 141.847656 37.714844 141.746094 38.136719 141.914062 L 44.640625 144.472656 C 45.121094 143.167969 45.816406 141.785156 46.703125 140.390625 C 49.019531 136.761719 52.683594 133.046875 57.296875 130.621094 C 61.960938 128.171875 67.59375 127.03125 73.804688 128.582031 C 76.070312 129.140625 78.40625 130.066406 80.789062 131.410156 C 81.257812 131.636719 81.488281 132.144531 81.339844 132.621094 C 81.195312 133.09375 80.710938 133.40625 80.1875 133.363281 C 72.078125 132.605469 66.824219 134.527344 63.335938 137.527344 C 60.214844 140.207031 58.445312 143.789062 57.292969 147.105469 "/>
<path style="fill:none;stroke-width:6.5;stroke-linecap:butt;stroke-linejoin:round;stroke:rgb(0%,0%,0%);stroke-opacity:0.501961;stroke-miterlimit:10;" d="M 344.758698 190.25799 C 345.127838 190.396701 345.487213 190.485724 345.799713 190.583029 C 345.791901 190.535412 345.737213 190.496076 345.729401 190.448459 C 344.776276 189.121388 342.786041 186.875099 339.592682 184.22924 C 339.405182 184.138146 339.237213 184.013927 339.090729 183.866935 C 338.313385 183.254123 337.526276 182.655802 336.725494 182.074044 C 335.459869 181.150685 334.151276 180.291505 332.799713 179.496505 L 331.403229 181.933263 C 332.383698 182.811076 333.567291 183.707521 334.852448 184.637091 C 339.102448 187.705294 342.553619 189.473341 344.702057 190.216584 L 344.756744 190.25799 M 333.409088 193.334474 C 334.647369 192.400763 335.918854 191.361466 337.446198 190.676193 C 335.813385 189.725919 334.227448 188.694904 332.696198 187.589357 C 331.969635 187.063498 330.907135 186.295412 329.709869 185.303732 C 329.202057 186.326466 328.741119 187.367834 328.323151 188.427834 C 328.067291 189.011662 322.102448 191.85213 321.473541 191.951505 C 321.184479 191.999123 329.366119 190.79213 329.045807 190.647209 C 328.092682 190.253849 324.580963 187.93924 324.934479 187.044865 C 325.262604 186.303693 325.952057 184.717834 326.836823 182.804865 C 325.504791 181.587521 324.205963 180.266662 323.252838 178.941662 L 314.948151 194.044591 C 316.098541 195.044552 318.729401 196.646974 323.73526 196.986505 C 328.243073 197.305334 330.762604 195.379943 333.409088 193.334474 M 329.592682 177.689123 C 327.926666 176.869279 326.653229 176.333068 325.780182 176.128107 C 326.301666 176.931388 327.225494 178.063849 328.627838 179.417834 C 328.938385 178.875412 329.289948 178.279162 329.592682 177.689123 M 339.98526 171.71006 C 338.440338 171.954357 336.653229 173.813498 334.789948 176.424162 C 336.493073 177.482091 337.987213 178.477912 338.883698 179.121779 L 339.721588 179.72838 C 341.125885 176.403459 341.995026 172.819748 341.246979 171.852912 C 341.112213 171.629318 340.518463 171.625177 339.98526 171.71006 M 354.473541 197.187326 C 355.536041 198.891193 356.225494 200.750334 356.813385 202.578419 C 357.493073 204.685998 356.315338 206.940568 354.194244 207.621701 C 352.121979 208.294552 349.858307 207.126896 349.176666 205.019318 C 349.069244 204.661154 349.010651 204.288498 349.000885 203.913771 L 348.995026 203.866154 C 348.981354 202.539084 348.866119 201.178888 348.514557 199.903576 C 348.260651 198.613771 347.684479 197.475099 346.92276 196.415099 C 346.858307 196.326076 346.787994 196.189435 346.674713 196.108693 C 346.592682 196.22049 346.561432 196.324005 346.471588 196.386115 L 330.229401 213.586271 C 329.813385 214.095568 329.313385 214.370919 328.637604 214.478576 C 325.448151 214.983732 319.588776 211.135021 316.903229 209.197209 C 313.877838 206.967482 307.370026 201.843459 308.379791 198.530959 L 308.371979 198.485412 C 308.403229 198.294943 308.477448 198.116896 308.584869 197.957482 L 308.707916 197.791857 L 311.086823 193.425568 C 311.127838 193.369669 311.127838 193.369669 311.176666 193.361388 L 321.834869 174.043302 L 321.866119 173.939787 C 321.889557 173.861115 321.928619 173.788654 321.981354 173.724474 C 322.014557 173.620959 322.104401 173.558849 322.143463 173.502951 C 322.258698 173.287638 322.48526 173.150998 322.662994 173.026779 C 324.510651 171.550646 328.17276 172.792834 331.621979 174.56088 C 333.918854 171.242169 336.612213 168.550763 339.366119 168.113927 L 339.414948 168.107716 C 342.120026 167.679162 343.526276 168.735021 344.217682 169.660451 C 346.489166 172.747287 344.159088 178.976857 342.731354 182.156857 C 344.496979 183.599865 346.018463 185.084279 347.17276 186.427912 C 348.620026 188.067599 350.377838 190.400841 349.836823 192.307599 C 350.053619 192.421466 350.268463 192.535334 350.444244 192.703029 C 352.026276 193.930724 353.450104 195.42963 354.473541 197.187326 " transform="matrix(2,0,0,1.886792,-180.357239,-188.727339)"/>
<path style=" stroke:none;fill-rule:evenodd;fill:rgb(100%,100%,100%);fill-opacity:1;" d="M 509.160156 170.25 C 509.898438 170.511719 510.617188 170.679688 511.242188 170.863281 C 511.226562 170.773438 511.117188 170.699219 511.101562 170.609375 C 509.195312 168.105469 505.214844 163.867188 498.828125 158.875 C 498.453125 158.703125 498.117188 158.46875 497.824219 158.191406 C 496.269531 157.035156 494.695312 155.90625 493.09375 154.808594 C 490.5625 153.066406 487.945312 151.445312 485.242188 149.945312 L 482.449219 154.542969 C 484.410156 156.199219 486.777344 157.890625 489.347656 159.644531 C 497.847656 165.433594 504.75 168.769531 509.046875 170.171875 Z M 486.464844 176.054688 C 488.9375 174.292969 491.484375 172.332031 494.535156 171.039062 C 491.269531 169.246094 488.101562 167.300781 485.039062 165.210938 C 483.582031 164.222656 481.457031 162.773438 479.0625 160.902344 C 478.050781 162.832031 477.125 164.796875 476.289062 166.796875 C 475.789062 167.902344 474.730469 168.691406 473.472656 168.890625 C 472.816406 168.976562 472.148438 168.886719 471.546875 168.625 C 469.695312 167.917969 468.789062 165.941406 469.511719 164.1875 C 470.167969 162.789062 471.546875 159.796875 473.316406 156.1875 C 470.65625 153.890625 468.058594 151.398438 466.152344 148.894531 L 449.542969 177.394531 C 451.839844 179.28125 457.105469 182.304688 467.117188 182.945312 C 476.132812 183.546875 481.167969 179.914062 486.464844 176.054688 M 478.828125 146.535156 C 475.5 144.988281 472.953125 143.976562 471.203125 143.585938 C 472.25 145.105469 474.09375 147.242188 476.902344 149.796875 C 477.523438 148.773438 478.226562 147.648438 478.832031 146.535156 M 499.617188 135.253906 C 496.523438 135.714844 492.953125 139.222656 489.226562 144.148438 C 492.632812 146.144531 495.621094 148.023438 497.410156 149.238281 L 499.085938 150.382812 C 501.898438 144.109375 503.632812 137.347656 502.140625 135.523438 C 501.871094 135.101562 500.679688 135.09375 499.617188 135.253906 M 528.589844 183.324219 C 530.714844 186.539062 532.097656 190.046875 533.273438 193.496094 C 534.632812 197.472656 532.277344 201.726562 528.035156 203.011719 C 523.890625 204.28125 519.359375 202.078125 517.996094 198.101562 C 517.785156 197.425781 517.667969 196.722656 517.648438 196.015625 L 517.632812 195.925781 C 517.609375 193.421875 517.375 190.855469 516.675781 188.449219 C 516.167969 186.015625 515.011719 183.867188 513.488281 181.863281 C 513.363281 181.695312 513.21875 181.441406 512.996094 181.289062 C 512.832031 181.5 512.765625 181.695312 512.585938 181.8125 L 480.101562 214.265625 C 479.273438 215.226562 478.273438 215.746094 476.917969 215.949219 C 470.539062 216.902344 458.824219 209.640625 453.453125 205.984375 C 447.398438 201.777344 434.382812 192.109375 436.40625 185.859375 L 436.390625 185.773438 C 436.453125 185.414062 436.597656 185.074219 436.816406 184.777344 L 437.0625 184.464844 L 441.816406 176.226562 C 441.898438 176.121094 441.898438 176.121094 441.996094 176.105469 L 463.3125 139.65625 L 463.378906 139.460938 C 463.445312 139.265625 463.527344 139.160156 463.605469 139.054688 C 463.675781 138.859375 463.851562 138.742188 463.933594 138.636719 C 464.160156 138.230469 464.613281 137.972656 464.972656 137.738281 C 468.664062 134.953125 475.988281 137.296875 482.890625 140.632812 C 487.484375 134.371094 492.871094 129.292969 498.378906 128.46875 L 498.476562 128.453125 C 503.886719 127.644531 506.695312 129.640625 508.078125 131.386719 C 512.625 137.210938 507.960938 148.964844 505.109375 154.964844 C 508.636719 157.6875 511.683594 160.488281 513.992188 163.023438 C 516.886719 166.117188 520.398438 170.519531 519.320312 174.117188 C 519.75 174.332031 520.183594 174.546875 520.535156 174.863281 C 523.695312 177.179688 526.546875 180.007812 528.589844 183.324219 "/>
<path style="fill:none;stroke-width:5;stroke-linecap:butt;stroke-linejoin:miter;stroke:rgb(0%,0%,0%);stroke-opacity:0.501961;stroke-miterlimit:10;" d="M 361.412994 179.088654 C 362.381744 178.987209 363.221588 178.378537 363.618073 177.488302 L 364.522369 175.467677 C 364.950104 174.513263 366.366119 174.738927 366.475494 175.780294 L 366.707916 177.981037 C 366.809479 178.949943 367.418854 179.79049 368.307526 180.185919 L 370.327057 181.090646 C 371.284088 181.519201 371.057526 182.935294 370.01651 183.045021 L 367.815338 183.276896 C 366.848541 183.378341 366.006744 183.989084 365.61026 184.877248 L 364.705963 186.895802 C 364.278229 187.852287 362.862213 187.626623 362.752838 186.585255 L 362.520416 184.384513 C 362.418854 183.415607 361.809479 182.57506 360.920807 182.17963 L 358.899323 181.276974 C 357.944244 180.846349 358.168854 179.430255 359.209869 179.320529 Z M 361.412994 179.088654 " transform="matrix(2,0,0,1.886792,-180.357239,-188.727339)"/>
<path style=" stroke:none;fill-rule:nonzero;fill:rgb(100%,100%,100%);fill-opacity:1;" d="M 542.46875 149.175781 C 544.40625 148.984375 546.085938 147.835938 546.878906 146.15625 L 548.6875 142.34375 C 549.542969 140.542969 552.375 140.96875 552.59375 142.933594 L 553.058594 147.085938 C 553.261719 148.914062 554.480469 150.5 556.257812 151.246094 L 560.296875 152.953125 C 562.210938 153.761719 561.757812 156.433594 559.675781 156.640625 L 555.273438 157.078125 C 553.339844 157.269531 551.65625 158.421875 550.863281 160.097656 L 549.054688 163.90625 C 548.199219 165.710938 545.367188 165.285156 545.148438 163.320312 L 544.683594 159.167969 C 544.480469 157.339844 543.261719 155.753906 541.484375 155.007812 L 537.441406 153.304688 C 535.53125 152.492188 535.980469 149.820312 538.0625 149.613281 Z M 542.46875 149.175781 "/>
<path style="fill:none;stroke-width:4.5;stroke-linecap:butt;stroke-linejoin:miter;stroke:rgb(0%,0%,0%);stroke-opacity:0.501961;stroke-miterlimit:10;" d="M 351.916901 159.284044 C 352.584869 158.901037 352.998932 158.188849 353.002838 157.416623 L 353.010651 155.660998 C 353.01651 154.830802 354.114166 154.540959 354.528229 155.261427 L 355.403229 156.783107 C 355.786041 157.451818 356.498932 157.867951 357.270416 157.870021 L 359.024323 157.878302 C 359.854401 157.882443 360.145416 158.981779 359.426666 159.395841 L 357.903229 160.269513 C 357.23526 160.654591 356.821198 161.364709 356.817291 162.136935 L 356.807526 163.89049 C 356.803619 164.720685 355.705963 165.012599 355.291901 164.29213 L 354.418854 162.770451 C 354.034088 162.099669 353.321198 161.685607 352.549713 161.683537 L 350.793854 161.675255 C 349.963776 161.671115 349.674713 160.571779 350.393463 160.157716 Z M 351.916901 159.284044 " transform="matrix(2,0,0,1.886792,-180.357239,-188.727339)"/>
<path style=" stroke:none;fill-rule:nonzero;fill:rgb(100%,100%,100%);fill-opacity:1;" d="M 523.476562 111.808594 C 524.8125 111.085938 525.640625 109.742188 525.648438 108.285156 L 525.664062 104.972656 C 525.675781 103.40625 527.871094 102.859375 528.699219 104.21875 L 530.449219 107.089844 C 531.214844 108.351562 532.640625 109.136719 534.183594 109.140625 L 537.691406 109.15625 C 539.351562 109.164062 539.933594 111.238281 538.496094 112.019531 L 535.449219 113.667969 C 534.113281 114.394531 533.285156 115.734375 533.277344 117.191406 L 533.257812 120.5 C 533.25 122.066406 531.054688 122.617188 530.226562 121.257812 L 528.480469 118.386719 C 527.710938 117.121094 526.285156 116.339844 524.742188 116.335938 L 521.230469 116.320312 C 519.570312 116.3125 518.992188 114.238281 520.429688 113.457031 Z M 523.476562 111.808594 "/>
</g>
</svg>
