<svg xmlns="http://www.w3.org/2000/svg" width="600" height="300" viewBox="0 0 600 300"><defs><linearGradient x1="-18.855" y1="180" x2="498.855" y2="180" gradientUnits="userSpaceOnUse" id="a"><stop offset=".215" stop-color="#ffbf00"/><stop offset=".515" stop-color="#ffde85"/><stop offset=".79" stop-color="#ffbf00"/></linearGradient></defs><g stroke-miterlimit="10"><path d="M0 300V0h600v300zm0 0" fill="#ffbf00"/><path d="m300.469 160.316 51.527-29.949 51.527 29.95v59.902l-51.527 29.949-51.527-29.95zm153 89.598 51.527-29.95 51.527 29.95v50.84H453.47zm0-179.191 51.527-29.953 51.527 29.953v59.898l-51.527 29.95-51.527-29.95zm-152-70.02L404.523.25v42.031l-51.527 29.95-51.527-29.95zm-154 70.02 51.527-29.953 51.527 29.953v59.898l-51.527 29.95-51.527-29.95zm0 179.191 51.527-29.95 51.527 29.95v50.84H147.47zM.316 156.918l45.68-26.55 51.527 29.948v59.903l-51.527 29.949-45.89-26.672zM.133.25l96.39-.2v41.981l-51.527 29.95-44.8-25.637zm0 0" fill="#fc3"/><path d="m197.469 160.316 51.527-29.949 51.527 29.95v59.902l-51.527 29.949-51.527-29.95zm0 0" fill="#e6ac00"/><path d="m248.469 249.914 51.527-29.95 51.527 29.95v50.84H248.47zm0 0" fill="#ffbf00"/><path d="m350.469 249.914 51.527-29.95 51.527 29.95v50.84H350.47zm0-179.191 51.527-29.953 51.527 29.953v59.898l-51.527 29.95-51.527-29.95zM198.469.14l103.054.313v41.578l-51.527 29.95-51.527-29.95zm0 0" fill="#e6ac00"/><path d="M248.973 116.525 300.5 86.576l51.527 29.95v59.898L300.5 206.377l-51.527-29.953zm0 0" fill="#ffbf00"/><path d="M44.469 70.723 95.996 40.77l51.527 29.953v59.898l-51.527 29.95-51.527-29.95zm0 179.191 51.527-29.95 51.527 29.95v50.84H44.47zm459-89.598 51.527-29.949 43.828 25.477-.246 68.992-43.582 25.332-51.527-29.95zm1-160.176h94.613l-.203 47.32-42.883 24.52-51.527-29.949zm0 0" fill="#e6ac00"/><path d="M320.787 129.8s-63.737-40.628-98.043-21.69c-49.033 27.065-22.195 82.785-30.93 96.455l3.358 28.944a4.5 4.5 0 0 1-3.95 4.988L100.51 249.02c-2.234.26-3.222 1.507-4.21 2.754l-3.95 4.987c-.988 1.247-1.976 2.494-4.21 2.754l-13.41 1.555c-2.234.26-3.481-.728-4.728-1.716l-4.988-3.951c-1.247-.988-2.494-1.975-4.729-1.716l-8.938 1.037a4.5 4.5 0 0 1-4.988-3.951l-5.185-44.693a4.5 4.5 0 0 1 3.95-4.988l8.94-1.037c2.234-.26 3.481.728 4.728 1.716l4.988 3.95c1.247.988 2.494 1.976 4.729 1.717l13.408-1.556c2.234-.259 3.222-1.506 4.21-2.753l3.95-4.988c.988-1.246 1.976-2.493 4.21-2.753l72.784-8.443c10.242-13.084 8.571-71.161 51.258-90.955 42.97-19.925 99.222 8.483 104.936 6.527 5.02-2.885 31.76-2.774 55.618-12.083 14.857-5.797 28.648-14.996 37.268-21.397l-.82-9.753c30.54-30.726 77.847-21.121 92.428-7.555l44.188-3.612q2.241-.394 3.667 2.221l3.24 39.645q-.072 2.737-2.27 3.684l-92.868 7.591c-3.192 2.239-5.022 6.912-8.54 8.485l-13.15 1.075c-3.883-.943-6.137-5.233-9.954-6.714l-9.834.804q-2.689-1.287-3.326-3.028l-.776-9.233c-8.175 3.446-24.63 10.941-41.97 15.765-19.516 5.43-40.876 6.03-45.537 8.214 9.414 3.588 32.059 31.27 51.74 50.346 13.38 12.968 25.686 20.18 29.88 23.06l.655-7.913c35.208-25.24 80.27-7.929 92.401 7.866l44.176 3.76q2.276-.016 3.248 2.799l-3.374 39.634q-.525 2.687-2.849 3.256l-92.843-7.904c-3.518 1.68-6.098 5.984-9.827 6.953l-13.146-1.12c-3.674-1.573-5.186-6.177-8.705-8.27l-9.831-.837q-2.438-1.715-2.778-3.537l.705-8.505c-5.11-3.331-24.16-16.242-42.151-34.774-21.433-22.076-41.48-51.826-47.144-51.64z" fill="none" stroke-opacity=".149" stroke="#000" stroke-width="10"/><path d="M260.787 159.8s-63.737-40.628-98.043-21.69c-49.033 27.065-22.195 82.785-30.93 96.455l3.358 28.944a4.5 4.5 0 0 1-3.95 4.988L40.51 279.02c-2.234.26-3.222 1.507-4.21 2.754l-3.95 4.987c-.988 1.247-1.976 2.494-4.21 2.754l-13.41 1.555c-2.234.26-3.481-.728-4.728-1.716l-4.988-3.951c-1.247-.988-2.494-1.975-4.729-1.716l-8.938 1.037a4.5 4.5 0 0 1-4.988-3.951l-5.185-44.693a4.5 4.5 0 0 1 3.95-4.988l8.94-1.037c2.234-.26 3.481.728 4.728 1.716l4.988 3.95c1.247.988 2.494 1.976 4.729 1.717l13.408-1.556c2.234-.259 3.222-1.506 4.21-2.753l3.95-4.988c.988-1.246 1.976-2.493 4.21-2.753l72.784-8.443c10.242-13.084 8.571-71.161 51.258-90.955 42.97-19.925 99.222 8.483 104.936 6.527 5.02-2.885 31.76-2.774 55.618-12.083 14.857-5.797 28.648-14.996 37.268-21.397l-.82-9.753c30.54-30.726 77.847-21.121 92.428-7.555l44.188-3.612q2.241-.394 3.667 2.221l3.24 39.645q-.072 2.737-2.27 3.684l-92.868 7.591c-3.192 2.239-5.022 6.912-8.54 8.485l-13.15 1.075c-3.883-.943-6.137-5.233-9.954-6.714l-9.834.804q-2.689-1.287-3.326-3.028l-.776-9.233c-8.175 3.446-24.63 10.941-41.97 15.765-19.516 5.43-40.876 6.03-45.537 8.214 9.414 3.588 32.059 31.27 51.74 50.346 13.38 12.968 25.686 20.18 29.88 23.06l.655-7.913c35.208-25.24 80.27-7.929 92.401 7.866l44.176 3.76q2.276-.016 3.248 2.799l-3.374 39.634q-.525 2.687-2.849 3.256l-92.843-7.904c-3.518 1.68-6.098 5.984-9.827 6.953l-13.146-1.12c-3.674-1.573-5.186-6.177-8.705-8.27l-9.831-.837q-2.438-1.715-2.778-3.537l.705-8.505c-5.11-3.331-24.16-16.242-42.151-34.774-21.433-22.076-41.48-51.826-47.144-51.64" fill="url(#a)" transform="translate(60 -30)"/><path d="M211.3 149.998c0-49.314 39.712-89.292 88.7-89.292s88.7 39.978 88.7 89.292c0 49.318-39.712 89.296-88.7 89.296s-88.7-39.978-88.7-89.296m0 0" fill-opacity=".2"/><path d="M221.029 149.998c0-43.905 35.355-79.5 78.971-79.5s78.971 35.595 78.971 79.5c0 43.909-35.355 79.504-78.971 79.504s-78.971-35.595-78.971-79.504m0 0" fill="#ffbf00"/><path d="M244.35 144.336c-.488-24.21 13.321-31.964 23.721-31.964 12.66 0 40.682-.737 62.25 0 10.538.36 25.84 8.398 25.333 31.964-.48 22.3-17.573 29.092-25.51 29.092h-32.998c-3.622 0-13.77 19.247-30.322 18.674-11.74-.408 6.672-18.674 1.962-18.674-13.973 0-24.098-12.242-24.436-29.092m0 0" fill="#fff"/><path d="M317.622 186.927v-8.464h-8.403c-4.053 0-7.333-3.023-7.333-6.752s3.28-6.747 7.333-6.747h8.403V156.5c0-4.075 3.005-7.382 6.707-7.382s6.707 3.307 6.707 7.382v8.465h8.403c4.052 0 7.333 3.018 7.333 6.747s-3.28 6.752-7.333 6.752h-8.403v8.464c0 4.075-3.005 7.382-6.707 7.382s-6.707-3.307-6.707-7.382zm0 0" fill="none" stroke="#ffbf00" stroke-width="10"/><path d="M317.622 186.927v-8.464h-8.403c-4.053 0-7.333-3.023-7.333-6.752s3.28-6.747 7.333-6.747h8.403v-8.465c0-4.075 3.005-7.382 6.707-7.382s6.707 3.307 6.707 7.382v8.465h8.403c4.052 0 7.333 3.018 7.333 6.747s-3.28 6.752-7.333 6.752h-8.403v8.464c0 4.075-3.005 7.382-6.707 7.382s-6.707-3.307-6.707-7.382m0 0" fill="#fff"/><path d="M481.358 227.037c-10.17-.986-17.696-9.192-16.81-18.33s9.848-15.745 20.017-14.76l39.36 3.816c10.169.986 17.695 9.192 16.81 18.33-.887 9.137-9.849 15.745-20.018 14.76z" fill="#c90" stroke="#e6ac00" stroke-width="4"/><path d="M479.083 91.571a2.5 2.5 0 0 1-2.72-2.258L474.24 66.41a2.5 2.5 0 0 1 2.258-2.72l69.701-6.462a2.5 2.5 0 0 1 2.72 2.258l2.124 22.902a2.5 2.5 0 0 1-2.259 2.72z" fill="#ffbf00" stroke="#e6ac00" stroke-width="4"/><path d="m534.742 75.514-4.9-3.505c-1.141-.816-1.425-2.22.558-2.432l9.891-1.05c1.394-.148 1.673 1.237.737 2.265l-3.842 4.223c-.721.792-1.729 1.01-2.444.5z" fill="#fff" stroke-opacity=".2" stroke="#000" stroke-width="4"/><path d="m534.742 75.514-4.9-3.505c-1.141-.816-1.425-2.22.558-2.432l9.891-1.05c1.394-.148 1.673 1.237.737 2.265l-3.842 4.223c-.721.792-1.729 1.01-2.444.5z" fill="#fff"/><path d="m521.836 218.015-3.843-4.223c-.936-1.028-.656-2.413.738-2.265l9.89 1.05c1.984.211 1.7 1.616.56 2.432l-4.902 3.505c-.715.512-1.722.293-2.443-.5z" fill="#fff" stroke-opacity=".2" stroke="#000" stroke-width="4"/><path d="m521.836 218.015-3.843-4.223c-.936-1.028-.656-2.413.738-2.265l9.89 1.05c1.984.211 1.7 1.616.56 2.432l-4.902 3.505c-.715.512-1.722.293-2.443-.5z" fill="#fff"/><path d="M126.013 236.28c-10.143 1.23-19.261-5.162-20.366-14.276-1.104-9.113 6.223-17.498 16.366-18.727l39.256-4.757c10.143-1.23 19.261 5.162 20.366 14.276 1.104 9.113-6.223 17.498-16.366 18.727z" fill="#c90" stroke="#e6ac00" stroke-width="4"/><path d="m163.595 218.746-4.662-3.295c-1.136-.803-1.162-2.215.231-2.371l9.885-1.106c1.982-.222 2.008 1.211 1.07 2.254l-4.03 4.479c-.588.653-1.62.656-2.494.039z" fill="#fff" stroke-opacity=".2" stroke="#000" stroke-width="4"/><path d="m163.595 218.746-4.662-3.295c-1.136-.803-1.162-2.215.231-2.371l9.885-1.106c1.982-.222 2.008 1.211 1.07 2.254l-4.03 4.479c-.588.653-1.62.656-2.494.039" fill="#fff"/></g></svg>
