<?xml version="1.0" encoding="UTF-8"?>
<svg xmlns="http://www.w3.org/2000/svg" xmlns:xlink="http://www.w3.org/1999/xlink" width="600px" height="300px" viewBox="0 0 600 300" version="1.1">
<g id="surface1">
<path style=" stroke:none;fill-rule:nonzero;fill:rgb(100%,74.901961%,0%);fill-opacity:1;" d="M 0 301.003906 L 0 0 L 598.996094 0 L 598.996094 301.003906 Z M 0 301.003906 "/>
<path style=" stroke:none;fill-rule:nonzero;fill:rgb(100%,80%,20%);fill-opacity:1;" d="M 300.46875 160.316406 L 351.996094 130.367188 L 403.523438 160.316406 L 403.523438 220.21875 L 351.996094 250.167969 L 300.46875 220.21875 Z M 300.46875 160.316406 "/>
<path style=" stroke:none;fill-rule:nonzero;fill:rgb(100%,80%,20%);fill-opacity:1;" d="M 453.46875 249.914062 L 504.996094 219.964844 L 556.523438 249.914062 L 556.523438 300.753906 L 453.46875 300.753906 Z M 453.46875 249.914062 "/>
<path style=" stroke:none;fill-rule:nonzero;fill:rgb(100%,80%,20%);fill-opacity:1;" d="M 453.46875 70.722656 L 504.996094 40.769531 L 556.523438 70.722656 L 556.523438 130.621094 L 504.996094 160.570312 L 453.46875 130.621094 Z M 453.46875 70.722656 "/>
<path style=" stroke:none;fill-rule:nonzero;fill:rgb(100%,80%,20%);fill-opacity:1;" d="M 301.46875 0.703125 L 404.523438 0.25 L 404.523438 42.28125 L 352.996094 72.230469 L 301.46875 42.28125 Z M 301.46875 0.703125 "/>
<path style=" stroke:none;fill-rule:nonzero;fill:rgb(100%,80%,20%);fill-opacity:1;" d="M 147.46875 70.722656 L 198.996094 40.769531 L 250.523438 70.722656 L 250.523438 130.621094 L 198.996094 160.570312 L 147.46875 130.621094 Z M 147.46875 70.722656 "/>
<path style=" stroke:none;fill-rule:nonzero;fill:rgb(100%,80%,20%);fill-opacity:1;" d="M 147.46875 249.914062 L 198.996094 219.964844 L 250.523438 249.914062 L 250.523438 300.753906 L 147.46875 300.753906 Z M 147.46875 249.914062 "/>
<path style=" stroke:none;fill-rule:nonzero;fill:rgb(100%,80%,20%);fill-opacity:1;" d="M 0.316406 156.917969 L 45.996094 130.367188 L 97.523438 160.316406 L 97.523438 220.21875 L 45.996094 250.167969 L 0.105469 223.496094 Z M 0.316406 156.917969 "/>
<path style=" stroke:none;fill-rule:nonzero;fill:rgb(100%,80%,20%);fill-opacity:1;" d="M 0.132812 0.25 L 96.523438 0.0507812 L 96.523438 42.03125 L 44.996094 71.980469 L 0.195312 46.34375 Z M 0.132812 0.25 "/>
<path style=" stroke:none;fill-rule:nonzero;fill:rgb(90.196078%,67.45098%,0%);fill-opacity:1;" d="M 197.46875 160.316406 L 248.996094 130.367188 L 300.523438 160.316406 L 300.523438 220.21875 L 248.996094 250.167969 L 197.46875 220.21875 Z M 197.46875 160.316406 "/>
<path style=" stroke:none;fill-rule:nonzero;fill:rgb(100%,74.901961%,0%);fill-opacity:1;" d="M 248.46875 249.914062 L 299.996094 219.964844 L 351.523438 249.914062 L 351.523438 300.753906 L 248.46875 300.753906 Z M 248.46875 249.914062 "/>
<path style=" stroke:none;fill-rule:nonzero;fill:rgb(90.196078%,67.45098%,0%);fill-opacity:1;" d="M 350.46875 249.914062 L 401.996094 219.964844 L 453.523438 249.914062 L 453.523438 300.753906 L 350.46875 300.753906 Z M 350.46875 249.914062 "/>
<path style=" stroke:none;fill-rule:nonzero;fill:rgb(90.196078%,67.45098%,0%);fill-opacity:1;" d="M 350.46875 70.722656 L 401.996094 40.769531 L 453.523438 70.722656 L 453.523438 130.621094 L 401.996094 160.570312 L 350.46875 130.621094 Z M 350.46875 70.722656 "/>
<path style=" stroke:none;fill-rule:nonzero;fill:rgb(90.196078%,67.45098%,0%);fill-opacity:1;" d="M 198.46875 0.140625 L 301.523438 0.453125 L 301.523438 42.03125 L 249.996094 71.980469 L 198.46875 42.03125 Z M 198.46875 0.140625 "/>
<path style=" stroke:none;fill-rule:nonzero;fill:rgb(100%,74.901961%,0%);fill-opacity:1;" d="M 249.46875 71.726562 L 300.996094 41.777344 L 352.523438 71.726562 L 352.523438 131.625 L 300.996094 161.578125 L 249.46875 131.625 Z M 249.46875 71.726562 "/>
<path style=" stroke:none;fill-rule:nonzero;fill:rgb(90.196078%,67.45098%,0%);fill-opacity:1;" d="M 44.46875 70.722656 L 95.996094 40.769531 L 147.523438 70.722656 L 147.523438 130.621094 L 95.996094 160.570312 L 44.46875 130.621094 Z M 44.46875 70.722656 "/>
<path style=" stroke:none;fill-rule:nonzero;fill:rgb(90.196078%,67.45098%,0%);fill-opacity:1;" d="M 44.46875 249.914062 L 95.996094 219.964844 L 147.523438 249.914062 L 147.523438 300.753906 L 44.46875 300.753906 Z M 44.46875 249.914062 "/>
<path style=" stroke:none;fill-rule:nonzero;fill:rgb(90.196078%,67.45098%,0%);fill-opacity:1;" d="M 503.46875 160.316406 L 554.996094 130.367188 L 598.824219 155.84375 L 598.578125 224.835938 L 554.996094 250.167969 L 503.46875 220.21875 Z M 503.46875 160.316406 "/>
<path style=" stroke:none;fill-rule:nonzero;fill:rgb(90.196078%,67.45098%,0%);fill-opacity:1;" d="M 504.46875 0.140625 L 599.082031 0.140625 L 598.878906 47.460938 L 555.996094 71.980469 L 504.46875 42.03125 Z M 504.46875 0.140625 "/>
<path style="fill:none;stroke-width:8;stroke-linecap:square;stroke-linejoin:miter;stroke:rgb(0%,0%,0%);stroke-opacity:0.501961;stroke-miterlimit:10;" d="M 155.050578 231.824776 C 152.296672 231.824776 150.919719 231.516299 150.919719 230.901286 C 150.919719 230.901286 150.366984 220.286976 150.18925 216.887914 C 150.087688 214.94393 149.210734 214.76738 148.648234 216.63376 C 147.622844 220.048344 144.288859 231.128279 144.288859 231.128279 C 144.169719 231.502719 143.118938 231.688969 141.138469 231.688969 C 139.156047 231.688969 138.136516 231.516299 138.075969 231.172901 C 138.075969 231.172901 134.370891 219.086052 133.341594 215.729672 C 132.843547 214.105805 132.161906 214.181469 132.103313 215.832497 C 131.986125 219.124854 131.581828 230.619971 131.581828 230.619971 C 131.550578 231.085596 130.962688 231.401833 129.816203 231.570622 C 128.673625 231.741351 127.722453 231.824776 126.962688 231.824776 C 126.206828 231.824776 125.476359 231.780154 124.769328 231.688969 C 123.284953 231.471677 122.556438 231.085596 122.587688 230.530726 L 123.656047 200.385388 C 123.656047 199.642328 125.540813 199.271768 129.308391 199.271768 C 130.425578 199.271768 131.786906 199.355193 133.392375 199.525922 C 134.999797 199.694711 135.896281 200.026469 136.083781 200.521195 L 141.273234 215.13212 L 145.820109 200.476573 C 146.097453 199.67337 148.232219 199.271768 152.224406 199.271768 C 153.365031 199.271768 154.730266 199.355193 156.318156 199.525922 C 157.911906 199.694711 158.708781 199.995427 158.708781 200.43001 L 160.058391 230.856664 C 160.058391 231.194242 159.454875 231.440635 158.247844 231.597784 C 157.046672 231.749112 155.980266 231.824776 155.050578 231.824776 Z M 174.431438 232.241898 C 171.370891 232.241898 168.788859 231.200062 166.687297 229.116391 C 164.585734 227.026898 163.534953 224.134203 163.534953 220.440245 C 163.534953 216.744346 164.546672 213.770167 166.570109 211.517706 C 168.599406 209.259424 171.159953 208.130284 174.25175 208.130284 C 177.343547 208.130284 179.730266 208.917966 181.415813 210.493331 C 183.101359 212.070635 183.943156 213.987458 183.943156 216.245739 C 183.943156 221.251208 181.068156 223.753943 175.320109 223.753943 L 172.113078 223.753943 C 172.113078 224.685193 172.366984 225.327367 172.874797 225.684346 C 173.388469 226.039385 174.140422 226.217875 175.130656 226.217875 C 177.296672 226.217875 181.466594 224.916065 181.714641 225.37587 C 182.456828 226.710661 182.829875 227.833982 182.829875 228.745831 C 182.829875 229.65768 182.536906 230.251351 181.950969 230.530726 C 181.950969 230.530726 177.493938 232.241898 174.431438 232.241898 Z M 176.154094 217.124607 C 176.154094 215.826677 175.519328 215.176742 174.25175 215.176742 C 173.665813 215.176742 173.161906 215.355232 172.738078 215.712211 C 172.322063 216.06725 172.113078 216.583318 172.113078 217.260414 L 172.113078 218.699971 L 174.622844 218.699971 C 175.642375 218.699971 176.154094 218.174203 176.154094 217.124607 Z M 193.865031 225.701807 C 194.794719 225.701807 195.259563 225.37975 195.259563 224.733695 C 195.259563 224.26807 194.456828 223.664698 192.849406 222.921638 C 188.984172 221.344333 187.052531 218.763995 187.052531 215.176742 C 187.052531 212.887419 187.886516 211.143266 189.552531 209.942341 C 191.224406 208.733656 193.226359 208.130284 195.558391 208.130284 C 197.894328 208.130284 199.872844 208.376677 201.490031 208.873344 C 203.115031 209.36807 203.927531 210.016065 203.927531 210.819268 C 203.927531 211.496364 203.5955 212.392693 202.931438 213.510193 C 202.267375 214.621872 201.810344 215.221364 201.562297 215.312549 C 200.234172 214.57531 198.796672 214.20863 197.25175 214.20863 C 196.417766 214.20863 196.00175 214.499646 196.00175 215.085557 C 196.00175 215.454177 196.161906 215.772354 196.482219 216.038148 C 196.808391 216.296182 197.402141 216.62018 198.265422 217.00626 C 199.136516 217.392341 199.855266 217.7435 200.421672 218.057797 C 200.995891 218.364333 201.638469 218.796976 202.351359 219.351846 C 203.835734 220.523669 204.579875 222.054411 204.579875 223.944073 C 204.579875 226.413825 203.757609 228.416013 202.115031 229.950635 C 200.480266 231.477497 198.005656 232.241898 194.697063 232.241898 C 192.505656 232.241898 190.513469 231.869398 188.718547 231.128279 C 186.925578 230.385219 186.029094 229.364724 186.029094 228.066794 C 186.029094 227.203448 186.238078 226.293539 186.654094 225.339008 C 187.070109 224.378656 187.495891 223.742302 187.931438 223.428005 C 187.931438 223.428005 192.415813 225.701807 193.865031 225.701807 Z M 214.732219 225.701807 C 215.663859 225.701807 216.128703 225.37975 216.128703 224.733695 C 216.128703 224.26807 215.324016 223.664698 213.718547 222.921638 C 209.853313 221.344333 207.921672 218.763995 207.921672 215.176742 C 207.921672 212.887419 208.755656 211.143266 210.421672 209.942341 C 212.093547 208.733656 214.0955 208.130284 216.427531 208.130284 C 218.763469 208.130284 220.741984 208.376677 222.359172 208.873344 C 223.984172 209.36807 224.796672 210.016065 224.796672 210.819268 C 224.796672 211.496364 224.464641 212.392693 223.800578 213.510193 C 223.136516 214.621872 222.679484 215.221364 222.431438 215.312549 C 221.103313 214.57531 219.665813 214.20863 218.120891 214.20863 C 217.286906 214.20863 216.870891 214.499646 216.870891 215.085557 C 216.870891 215.454177 217.031047 215.772354 217.351359 216.038148 C 217.677531 216.296182 218.271281 216.62018 219.134563 217.00626 C 220.005656 217.392341 220.722453 217.7435 221.290813 218.057797 C 221.865031 218.364333 222.507609 218.796976 223.2205 219.351846 C 224.704875 220.523669 225.449016 222.054411 225.449016 223.944073 C 225.449016 226.413825 224.62675 228.416013 222.984172 229.950635 C 221.347453 231.477497 218.874797 232.241898 215.566203 232.241898 C 213.374797 232.241898 211.382609 231.869398 209.587688 231.128279 C 207.794719 230.385219 206.898234 229.364724 206.898234 228.066794 C 206.898234 227.203448 207.107219 226.293539 207.523234 225.339008 C 207.93925 224.378656 208.365031 223.742302 208.800578 223.428005 C 208.800578 223.428005 213.283 225.701807 214.732219 225.701807 Z M 231.616984 214.941989 C 230.753703 213.395726 230.322063 212.136599 230.322063 211.164607 C 230.322063 210.192614 230.583781 209.567901 231.109172 209.288526 C 232.866984 208.516364 235.283 208.130284 238.355266 208.130284 C 241.435344 208.130284 243.609172 208.848122 244.87675 210.285739 C 246.146281 211.723357 246.779094 213.847771 246.779094 216.662862 L 246.779094 223.990635 L 248.355266 223.990635 C 248.880656 223.990635 249.290813 224.301052 249.587688 224.923825 C 249.882609 225.538838 250.031047 226.386664 250.031047 227.467302 C 250.031047 228.54988 249.759563 229.614997 249.216594 230.666534 C 248.671672 231.71613 247.93925 232.241898 247.015422 232.241898 C 245.341594 232.241898 243.995891 231.795674 242.974406 230.901286 C 242.515422 230.526846 242.163859 230.076742 241.915813 229.550974 C 240.490031 231.34557 238.277141 232.241898 235.275188 232.241898 C 233.023234 232.241898 231.124797 231.438695 229.577922 229.832289 C 228.033 228.225883 227.259563 226.324581 227.259563 224.126443 C 227.259563 219.089932 230.273234 216.571677 236.298625 216.571677 L 238.853313 216.571677 L 238.853313 216.100232 C 238.853313 215.297029 238.7205 214.780961 238.454875 214.552029 C 238.195109 214.323096 237.585734 214.20863 236.624797 214.20863 C 235.449016 214.20863 233.779094 214.453083 231.616984 214.941989 Z M 235.329875 223.482328 C 235.329875 224.159424 235.515422 224.675492 235.882609 225.032471 C 236.25175 225.38751 236.722453 225.566 237.296672 225.566 C 237.868938 225.566 238.388469 225.333187 238.853313 224.869502 L 238.853313 221.299711 L 237.548625 221.299711 C 236.070109 221.299711 235.329875 222.02725 235.329875 223.482328 Z M 261.199016 231.780154 C 258.204875 231.780154 255.886516 230.813982 254.243938 228.881638 C 252.607219 226.949294 251.788859 224.089581 251.788859 220.304437 C 251.788859 216.517354 252.863078 213.548995 255.013469 211.399359 C 257.163859 209.249724 260.021281 208.174906 263.591594 208.174906 C 267.165813 208.174906 270.113078 208.962588 272.431438 210.539893 L 272.431438 233.636833 C 272.431438 235.924216 271.50175 237.68001 269.642375 238.898396 C 267.786906 240.118721 265.408 240.727914 262.503703 240.727914 C 259.599406 240.727914 257.003703 240.357354 254.714641 239.614294 C 254.400188 238.871234 254.243938 238.207719 254.243938 237.621807 C 254.243938 235.640961 254.570109 234.189763 255.222453 233.264333 C 257.292766 234.158721 259.503703 234.604945 261.851359 234.604945 C 263.554484 234.604945 264.406047 234.005453 264.406047 232.802588 L 264.406047 231.407654 C 263.077922 231.655987 262.009563 231.780154 261.199016 231.780154 Z M 263.337688 215.729672 C 261.265422 215.729672 260.230266 217.293396 260.230266 220.420844 C 260.230266 222.364828 260.632609 223.631716 261.435344 224.215687 C 261.960734 224.621169 262.486125 224.82294 263.011516 224.82294 C 263.536906 224.82294 264.00175 224.778318 264.406047 224.687133 L 264.406047 215.87518 C 264.031047 215.778174 263.675578 215.729672 263.337688 215.729672 Z M 286.615031 232.241898 C 283.552531 232.241898 280.972453 231.200062 278.870891 229.116391 C 276.769328 227.026898 275.718547 224.134203 275.718547 220.440245 C 275.718547 216.744346 276.730266 213.770167 278.753703 211.517706 C 280.781047 209.259424 283.341594 208.130284 286.433391 208.130284 C 289.525188 208.130284 291.913859 208.917966 293.599406 210.493331 C 295.283 212.070635 296.124797 213.987458 296.124797 216.245739 C 296.124797 221.251208 293.25175 223.753943 287.50175 223.753943 L 284.296672 223.753943 C 284.296672 224.685193 284.550578 225.327367 285.056438 225.684346 C 285.570109 226.039385 286.322063 226.217875 287.312297 226.217875 C 289.480266 226.217875 293.650188 224.916065 293.898234 225.37587 C 294.640422 226.710661 295.011516 227.833982 295.011516 228.745831 C 295.011516 229.65768 294.718547 230.251351 294.132609 230.530726 C 294.132609 230.530726 289.158 232.241898 286.615031 232.241898 Z M 288.335734 217.124607 C 288.335734 215.826677 287.700969 215.176742 286.433391 215.176742 C 285.847453 215.176742 285.343547 215.355232 284.921672 215.712211 C 284.503703 216.06725 284.296672 216.583318 284.296672 217.260414 L 284.296672 218.699971 L 286.804484 218.699971 C 287.825969 218.699971 288.335734 218.174203 288.335734 217.124607 Z M 306.046672 225.701807 C 306.976359 225.701807 307.441203 225.37975 307.441203 224.733695 C 307.441203 224.26807 306.638469 223.664698 305.033 222.921638 C 301.167766 221.344333 299.236125 218.763995 299.236125 215.176742 C 299.236125 212.887419 300.068156 211.143266 301.736125 209.942341 C 303.408 208.733656 305.409953 208.130284 307.740031 208.130284 C 310.077922 208.130284 312.054484 208.376677 313.673625 208.873344 C 315.298625 209.36807 316.109172 210.016065 316.109172 210.819268 C 316.109172 211.496364 315.777141 212.392693 315.113078 213.510193 C 314.449016 214.621872 313.993938 215.221364 313.745891 215.312549 C 312.417766 214.57531 310.980266 214.20863 309.433391 214.20863 C 308.601359 214.20863 308.183391 214.499646 308.183391 215.085557 C 308.183391 215.454177 308.343547 215.772354 308.663859 216.038148 C 308.990031 216.296182 309.585734 216.62018 310.449016 217.00626 C 311.318156 217.392341 312.036906 217.7435 312.605266 218.057797 C 313.177531 218.364333 313.822063 218.796976 314.533 219.351846 C 316.019328 220.523669 316.761516 222.054411 316.761516 223.944073 C 316.761516 226.413825 315.941203 228.416013 314.298625 229.950635 C 312.661906 231.477497 310.18925 232.241898 306.880656 232.241898 C 304.687297 232.241898 302.695109 231.869398 300.902141 231.128279 C 299.109172 230.385219 298.212688 229.364724 298.212688 228.066794 C 298.212688 227.203448 298.419719 226.293539 298.837688 225.339008 C 299.253703 224.378656 299.679484 223.742302 300.113078 223.428005 C 300.113078 223.428005 304.597453 225.701807 306.046672 225.701807 Z M 306.046672 225.701807 " transform="matrix(2,0,0,2.013423,-179.5035,-211.913638)"/>
<path style="fill:none;stroke-width:8;stroke-linecap:square;stroke-linejoin:miter;stroke:rgb(0%,0%,0%);stroke-opacity:0.501961;stroke-miterlimit:10;" d="M 346.015422 202.168344 L 346.015422 210.601976 L 354.517375 210.601976 C 355.806438 210.601976 356.683391 211.451742 357.144328 213.153213 C 357.324016 213.824489 357.413859 214.480245 357.413859 215.120479 C 357.413859 215.754893 357.324016 216.406768 357.144328 217.078044 C 356.683391 218.771755 355.806438 219.617641 354.517375 219.617641 L 346.015422 219.617641 L 346.015422 228.229763 C 346.015422 229.519932 345.173625 230.396859 343.488078 230.858604 C 342.8455 231.039034 342.159953 231.128279 341.429484 231.128279 L 339.616984 230.881885 C 337.872844 230.40462 336.999797 229.519932 336.999797 228.229763 L 336.999797 219.617641 L 328.454875 219.617641 C 327.163859 219.617641 326.288859 218.775635 325.825969 217.089685 C 325.640422 216.410648 325.546672 215.754893 325.546672 215.120479 C 325.546672 214.480245 325.640422 213.820609 325.825969 213.141573 C 326.288859 211.447862 327.163859 210.601976 328.454875 210.601976 L 336.999797 210.601976 L 336.999797 202.168344 C 336.999797 200.878174 337.847453 200.003187 339.538859 199.539502 C 340.181438 199.361013 340.863078 199.271768 341.585734 199.271768 L 343.409953 199.518161 C 345.146281 199.995427 346.015422 200.878174 346.015422 202.168344 Z M 346.015422 202.168344 " transform="matrix(2,0,0,2.013423,-179.5035,-211.913638)"/>
<path style=" stroke:none;fill-rule:nonzero;fill:rgb(100%,100%,100%);fill-opacity:1;" d="M 130.597656 254.847656 C 125.089844 254.847656 122.335938 254.226562 122.335938 252.988281 L 120.398438 215.546875 L 109.074219 253.445312 C 108.835938 254.199219 106.734375 254.574219 102.773438 254.574219 C 98.808594 254.574219 96.769531 254.226562 96.648438 253.535156 L 84.964844 215.164062 L 83.660156 252.421875 C 83.597656 253.359375 82.421875 253.996094 80.128906 254.335938 C 77.84375 254.679688 75.941406 254.847656 74.421875 254.847656 C 72.910156 254.847656 71.449219 254.757812 70.035156 254.574219 C 67.066406 254.136719 65.609375 253.359375 65.671875 252.242188 L 67.808594 191.546875 C 67.808594 190.050781 71.578125 189.304688 79.113281 189.304688 C 81.347656 189.304688 84.070312 189.472656 87.28125 189.816406 C 90.496094 190.15625 92.289062 190.824219 92.664062 191.820312 L 103.042969 221.238281 L 112.136719 191.730469 C 112.691406 190.113281 116.960938 189.304688 124.945312 189.304688 C 127.226562 189.304688 129.957031 189.472656 133.132812 189.816406 C 136.320312 190.15625 137.914062 190.761719 137.914062 191.636719 L 140.613281 252.898438 C 140.613281 253.578125 139.40625 254.074219 136.992188 254.390625 C 134.589844 254.695312 132.457031 254.847656 130.597656 254.847656 Z M 184.398438 252.242188 C 180.496094 254.539062 175.484375 255.6875 169.359375 255.6875 C 163.238281 255.6875 158.074219 253.589844 153.871094 249.394531 C 149.667969 245.1875 147.566406 239.363281 147.566406 231.925781 C 147.566406 224.484375 149.589844 218.496094 153.636719 213.960938 C 157.695312 209.414062 162.816406 207.140625 169 207.140625 C 175.183594 207.140625 179.957031 208.726562 183.328125 211.898438 C 186.699219 215.074219 188.382812 218.933594 188.382812 223.480469 C 188.382812 233.558594 182.632812 238.597656 171.136719 238.597656 L 164.722656 238.597656 C 164.722656 240.472656 165.230469 241.765625 166.246094 242.484375 C 167.273438 243.199219 168.777344 243.558594 170.757812 243.558594 C 175.09375 243.558594 179.203125 242.5625 183.09375 240.570312 C 183.152344 240.507812 183.429688 240.9375 183.925781 241.863281 C 185.410156 244.550781 186.15625 246.8125 186.15625 248.648438 C 186.15625 250.484375 185.570312 251.679688 184.398438 252.242188 Z M 172.804688 225.25 C 172.804688 222.636719 171.535156 221.328125 169 221.328125 C 167.828125 221.328125 166.820312 221.6875 165.972656 222.40625 C 165.140625 223.121094 164.722656 224.160156 164.722656 225.523438 L 164.722656 228.421875 L 169.742188 228.421875 C 171.78125 228.421875 172.804688 227.363281 172.804688 225.25 Z M 196.359375 237.941406 C 201.371094 240.992188 205.328125 242.519531 208.226562 242.519531 C 210.085938 242.519531 211.015625 241.871094 211.015625 240.570312 C 211.015625 239.632812 209.410156 238.417969 206.195312 236.921875 C 198.464844 233.746094 194.601562 228.550781 194.601562 221.328125 C 194.601562 216.71875 196.269531 213.207031 199.601562 210.789062 C 202.945312 208.355469 206.949219 207.140625 211.613281 207.140625 C 216.285156 207.140625 220.242188 207.636719 223.476562 208.636719 C 226.726562 209.632812 228.351562 210.9375 228.351562 212.554688 C 228.351562 213.917969 227.6875 215.722656 226.359375 217.972656 C 225.03125 220.210938 224.117188 221.417969 223.621094 221.601562 C 220.964844 220.117188 218.089844 219.378906 215 219.378906 C 213.332031 219.378906 212.5 219.964844 212.5 221.144531 C 212.5 221.886719 212.820312 222.527344 213.460938 223.0625 C 214.113281 223.582031 215.300781 224.234375 217.027344 225.011719 C 218.769531 225.789062 220.207031 226.496094 221.339844 227.128906 C 222.488281 227.746094 223.773438 228.617188 225.199219 229.734375 C 228.167969 232.09375 229.65625 235.175781 229.65625 238.980469 C 229.65625 243.953125 228.011719 247.984375 224.726562 251.074219 C 221.453125 254.148438 216.507812 255.6875 209.890625 255.6875 C 205.507812 255.6875 201.523438 254.9375 197.933594 253.445312 C 194.347656 251.949219 192.554688 249.894531 192.554688 247.28125 C 192.554688 245.542969 192.972656 243.710938 193.804688 241.789062 C 194.636719 239.855469 195.488281 238.574219 196.359375 237.941406 Z M 238.097656 237.941406 C 243.109375 240.992188 247.0625 242.519531 249.960938 242.519531 C 251.824219 242.519531 252.753906 241.871094 252.753906 240.570312 C 252.753906 239.632812 251.144531 238.417969 247.933594 236.921875 C 240.203125 233.746094 236.339844 228.550781 236.339844 221.328125 C 236.339844 216.71875 238.007812 213.207031 241.339844 210.789062 C 244.683594 208.355469 248.6875 207.140625 253.351562 207.140625 C 258.023438 207.140625 261.980469 207.636719 265.214844 208.636719 C 268.464844 209.632812 270.089844 210.9375 270.089844 212.554688 C 270.089844 213.917969 269.425781 215.722656 268.097656 217.972656 C 266.769531 220.210938 265.855469 221.417969 265.359375 221.601562 C 262.703125 220.117188 259.828125 219.378906 256.738281 219.378906 C 255.070312 219.378906 254.238281 219.964844 254.238281 221.144531 C 254.238281 221.886719 254.558594 222.527344 255.199219 223.0625 C 255.851562 223.582031 257.039062 224.234375 258.765625 225.011719 C 260.507812 225.789062 261.941406 226.496094 263.078125 227.128906 C 264.226562 227.746094 265.511719 228.617188 266.9375 229.734375 C 269.90625 232.09375 271.394531 235.175781 271.394531 238.980469 C 271.394531 243.953125 269.75 247.984375 266.464844 251.074219 C 263.191406 254.148438 258.246094 255.6875 251.628906 255.6875 C 247.246094 255.6875 243.261719 254.9375 239.671875 253.445312 C 236.085938 251.949219 234.292969 249.894531 234.292969 247.28125 C 234.292969 245.542969 234.710938 243.710938 235.542969 241.789062 C 236.375 239.855469 237.226562 238.574219 238.097656 237.941406 Z M 283.730469 220.855469 C 282.003906 217.742188 281.140625 215.207031 281.140625 213.25 C 281.140625 211.292969 281.664062 210.035156 282.714844 209.472656 C 286.230469 207.917969 291.0625 207.140625 297.207031 207.140625 C 303.367188 207.140625 307.714844 208.585938 310.25 211.480469 C 312.789062 214.375 314.054688 218.652344 314.054688 224.320312 L 314.054688 239.074219 L 317.207031 239.074219 C 318.257812 239.074219 319.078125 239.699219 319.671875 240.953125 C 320.261719 242.191406 320.558594 243.898438 320.558594 246.074219 C 320.558594 248.253906 320.015625 250.398438 318.929688 252.515625 C 317.839844 254.628906 316.375 255.6875 314.527344 255.6875 C 311.179688 255.6875 308.488281 254.789062 306.445312 252.988281 C 305.527344 252.234375 304.824219 251.328125 304.328125 250.269531 C 301.476562 253.882812 297.050781 255.6875 291.046875 255.6875 C 286.542969 255.6875 282.746094 254.070312 279.652344 250.835938 C 276.5625 247.601562 275.015625 243.773438 275.015625 239.347656 C 275.015625 229.207031 281.042969 224.136719 293.09375 224.136719 L 298.203125 224.136719 L 298.203125 223.1875 C 298.203125 221.570312 297.9375 220.53125 297.40625 220.070312 C 296.886719 219.609375 295.667969 219.378906 293.746094 219.378906 C 291.394531 219.378906 288.054688 219.871094 283.730469 220.855469 Z M 291.15625 238.050781 C 291.15625 239.414062 291.527344 240.453125 292.261719 241.171875 C 293 241.886719 293.941406 242.246094 295.089844 242.246094 C 296.234375 242.246094 297.273438 241.777344 298.203125 240.84375 L 298.203125 233.65625 L 295.59375 233.65625 C 292.636719 233.65625 291.15625 235.121094 291.15625 238.050781 Z M 342.894531 254.757812 C 336.90625 254.757812 332.269531 252.8125 328.984375 248.921875 C 325.710938 245.03125 324.074219 239.273438 324.074219 231.652344 C 324.074219 224.027344 326.222656 218.050781 330.523438 213.722656 C 334.824219 209.394531 340.539062 207.230469 347.679688 207.230469 C 354.828125 207.230469 360.722656 208.816406 365.359375 211.992188 L 365.359375 258.496094 C 365.359375 263.101562 363.5 266.636719 359.78125 269.089844 C 356.070312 271.546875 351.3125 272.773438 345.503906 272.773438 C 339.695312 272.773438 334.503906 272.027344 329.925781 270.53125 C 329.296875 269.035156 328.984375 267.699219 328.984375 266.519531 C 328.984375 262.53125 329.636719 259.609375 330.941406 257.746094 C 335.082031 259.546875 339.503906 260.445312 344.199219 260.445312 C 347.605469 260.445312 349.308594 259.238281 349.308594 256.816406 L 349.308594 254.007812 C 346.652344 254.507812 344.515625 254.757812 342.894531 254.757812 Z M 347.171875 222.441406 C 343.027344 222.441406 340.957031 225.589844 340.957031 231.886719 C 340.957031 235.800781 341.761719 238.351562 343.367188 239.527344 C 344.417969 240.34375 345.46875 240.75 346.519531 240.75 C 347.570312 240.75 348.5 240.660156 349.308594 240.476562 L 349.308594 222.734375 C 348.558594 222.539062 347.847656 222.441406 347.171875 222.441406 Z M 408.761719 252.242188 C 404.863281 254.539062 399.847656 255.6875 393.726562 255.6875 C 387.601562 255.6875 382.441406 253.589844 378.238281 249.394531 C 374.035156 245.1875 371.933594 239.363281 371.933594 231.925781 C 371.933594 224.484375 373.957031 218.496094 378.003906 213.960938 C 382.058594 209.414062 387.179688 207.140625 393.363281 207.140625 C 399.546875 207.140625 404.324219 208.726562 407.695312 211.898438 C 411.0625 215.074219 412.746094 218.933594 412.746094 223.480469 C 412.746094 233.558594 407 238.597656 395.5 238.597656 L 389.089844 238.597656 C 389.089844 240.472656 389.597656 241.765625 390.609375 242.484375 C 391.636719 243.199219 393.140625 243.558594 395.121094 243.558594 C 399.457031 243.558594 403.570312 242.5625 407.457031 240.570312 C 407.519531 240.507812 407.796875 240.9375 408.292969 241.863281 C 409.777344 244.550781 410.519531 246.8125 410.519531 248.648438 C 410.519531 250.484375 409.933594 251.679688 408.761719 252.242188 Z M 397.167969 225.25 C 397.167969 222.636719 395.898438 221.328125 393.363281 221.328125 C 392.191406 221.328125 391.183594 221.6875 390.339844 222.40625 C 389.503906 223.121094 389.089844 224.160156 389.089844 225.523438 L 389.089844 228.421875 L 394.105469 228.421875 C 396.148438 228.421875 397.167969 227.363281 397.167969 225.25 Z M 420.722656 237.941406 C 425.734375 240.992188 429.691406 242.519531 432.589844 242.519531 C 434.449219 242.519531 435.378906 241.871094 435.378906 240.570312 C 435.378906 239.632812 433.773438 238.417969 430.5625 236.921875 C 422.832031 233.746094 418.96875 228.550781 418.96875 221.328125 C 418.96875 216.71875 420.632812 213.207031 423.96875 210.789062 C 427.3125 208.355469 431.316406 207.140625 435.976562 207.140625 C 440.652344 207.140625 444.605469 207.636719 447.84375 208.636719 C 451.09375 209.632812 452.714844 210.9375 452.714844 212.554688 C 452.714844 213.917969 452.050781 215.722656 450.722656 217.972656 C 449.394531 220.210938 448.484375 221.417969 447.988281 221.601562 C 445.332031 220.117188 442.457031 219.378906 439.363281 219.378906 C 437.699219 219.378906 436.863281 219.964844 436.863281 221.144531 C 436.863281 221.886719 437.183594 222.527344 437.824219 223.0625 C 438.476562 223.582031 439.667969 224.234375 441.394531 225.011719 C 443.132812 225.789062 444.570312 226.496094 445.707031 227.128906 C 446.851562 227.746094 448.140625 228.617188 449.5625 229.734375 C 452.535156 232.09375 454.019531 235.175781 454.019531 238.980469 C 454.019531 243.953125 452.378906 247.984375 449.09375 251.074219 C 445.820312 254.148438 440.875 255.6875 434.257812 255.6875 C 429.871094 255.6875 425.886719 254.9375 422.300781 253.445312 C 418.714844 251.949219 416.921875 249.894531 416.921875 247.28125 C 416.921875 245.542969 417.335938 243.710938 418.167969 241.789062 C 419.003906 239.855469 419.855469 238.574219 420.722656 237.941406 Z M 420.722656 237.941406 "/>
<path style=" stroke:none;fill-rule:nonzero;fill:rgb(100%,100%,100%);fill-opacity:1;" d="M 512.527344 195.136719 L 512.527344 212.117188 L 529.53125 212.117188 C 532.109375 212.117188 533.863281 213.828125 534.785156 217.253906 C 535.144531 218.605469 535.324219 219.925781 535.324219 221.214844 C 535.324219 222.492188 535.144531 223.804688 534.785156 225.15625 C 533.863281 228.566406 532.109375 230.269531 529.53125 230.269531 L 512.527344 230.269531 L 512.527344 247.609375 C 512.527344 250.207031 510.84375 251.972656 507.472656 252.902344 C 506.1875 253.265625 504.816406 253.445312 503.355469 253.445312 L 499.730469 252.949219 C 496.242188 251.988281 494.496094 250.207031 494.496094 247.609375 L 494.496094 230.269531 L 477.40625 230.269531 C 474.824219 230.269531 473.074219 228.574219 472.148438 225.179688 C 471.777344 223.8125 471.589844 222.492188 471.589844 221.214844 C 471.589844 219.925781 471.777344 218.597656 472.148438 217.230469 C 473.074219 213.820312 474.824219 212.117188 477.40625 212.117188 L 494.496094 212.117188 L 494.496094 195.136719 C 494.496094 192.539062 496.191406 190.777344 499.574219 189.84375 C 500.859375 189.484375 502.222656 189.304688 503.667969 189.304688 L 507.316406 189.800781 C 510.789062 190.761719 512.527344 192.539062 512.527344 195.136719 Z M 512.527344 195.136719 "/>
<path style=" stroke:none;fill-rule:nonzero;fill:rgb(0%,0%,0%);fill-opacity:0.501961;" d="M 219.816406 105.199219 C 219.816406 60.34375 255.9375 23.980469 300.496094 23.980469 C 345.054688 23.980469 381.175781 60.34375 381.175781 105.199219 C 381.175781 150.058594 345.054688 186.421875 300.496094 186.421875 C 255.9375 186.421875 219.816406 150.058594 219.816406 105.199219 Z M 219.816406 105.199219 "/>
<path style="fill-rule:nonzero;fill:rgb(100%,74.901961%,0%);fill-opacity:1;stroke-width:4;stroke-linecap:butt;stroke-linejoin:miter;stroke:rgb(80%,60%,0%);stroke-opacity:1;stroke-miterlimit:10;" d="M 205.25175 157.499385 C 205.25175 138.309815 220.808391 122.75212 239.999797 122.75212 C 259.191203 122.75212 274.747844 138.309815 274.747844 157.499385 C 274.747844 176.690896 259.191203 192.248591 239.999797 192.248591 C 220.808391 192.248591 205.25175 176.690896 205.25175 157.499385 Z M 205.25175 157.499385 " transform="matrix(2,0,0,2.013423,-179.5035,-211.913638)"/>
<path style=" stroke:none;fill-rule:nonzero;fill:rgb(100%,100%,100%);fill-opacity:1;" d="M 251.523438 101.976562 C 251.09375 80.671875 263.246094 73.847656 272.398438 73.847656 C 283.539062 73.847656 308.199219 73.199219 327.179688 73.847656 C 336.453125 74.164062 349.917969 81.238281 349.472656 101.976562 C 349.050781 121.601562 334.007812 127.578125 327.023438 127.578125 C 320.667969 127.578125 310.042969 127.578125 297.984375 127.578125 C 294.796875 127.578125 285.867188 144.515625 271.300781 144.011719 C 260.96875 143.652344 277.171875 127.578125 273.027344 127.578125 C 260.730469 127.578125 251.820312 116.804688 251.523438 101.976562 Z M 251.523438 101.976562 "/>
<path style="fill:none;stroke-width:6;stroke-linecap:butt;stroke-linejoin:miter;stroke:rgb(100%,74.901961%,0%);stroke-opacity:1;stroke-miterlimit:10;" d="M 247.900188 172.620557 L 247.900188 168.920779 L 244.202922 168.920779 C 242.419719 168.920779 240.976359 167.599568 240.976359 165.96988 C 240.976359 164.340193 242.419719 163.020922 244.202922 163.020922 L 247.900188 163.020922 L 247.900188 159.321143 C 247.900188 157.540127 249.222453 156.09475 250.851359 156.09475 C 252.480266 156.09475 253.802531 157.540127 253.802531 159.321143 L 253.802531 163.020922 L 257.499797 163.020922 C 259.283 163.020922 260.726359 164.340193 260.726359 165.96988 C 260.726359 167.599568 259.283 168.920779 257.499797 168.920779 L 253.802531 168.920779 L 253.802531 172.620557 C 253.802531 174.401573 252.480266 175.84695 250.851359 175.84695 C 249.222453 175.84695 247.900188 174.401573 247.900188 172.620557 Z M 247.900188 172.620557 " transform="matrix(2,0,0,2.013423,-179.5035,-211.913638)"/>
<path style=" stroke:none;fill-rule:nonzero;fill:rgb(100%,100%,100%);fill-opacity:1;" d="M 316.296875 135.644531 L 316.296875 128.195312 L 308.902344 128.195312 C 305.335938 128.195312 302.449219 125.535156 302.449219 122.253906 C 302.449219 118.972656 305.335938 116.316406 308.902344 116.316406 L 316.296875 116.316406 L 316.296875 108.867188 C 316.296875 105.28125 318.941406 102.371094 322.199219 102.371094 C 325.457031 102.371094 328.101562 105.28125 328.101562 108.867188 L 328.101562 116.316406 L 335.496094 116.316406 C 339.0625 116.316406 341.949219 118.972656 341.949219 122.253906 C 341.949219 125.535156 339.0625 128.195312 335.496094 128.195312 L 328.101562 128.195312 L 328.101562 135.644531 C 328.101562 139.230469 325.457031 142.140625 322.199219 142.140625 C 318.941406 142.140625 316.296875 139.230469 316.296875 135.644531 Z M 316.296875 135.644531 "/>
</g>
</svg>
