<?xml version="1.0" encoding="utf-8"?>
<svg viewBox="0 0 299.98659 149.9933" xmlns="http://www.w3.org/2000/svg">
  <defs>
    <linearGradient x1="240" y1="105.00515" x2="240" y2="254.99512" gradientUnits="userSpaceOnUse" id="color-1">
      <stop offset="0" stop-color="#000000" stop-opacity="0"/>
      <stop offset="1" stop-color="#000000" stop-opacity="0"/>
    </linearGradient>
  </defs>
  <g transform="matrix(1, 0, 0, 1, -90.00670623779297, -105.00334930419922)">
    <g data-paper-data="{&quot;isPaintingLayer&quot;:true}" stroke-linejoin="miter" stroke-miterlimit="10" stroke-dasharray="" stroke-dashoffset="0" style="mix-blend-mode: normal">
      <path d="M90.00671,254.99512v-149.98997h299.98659v149.98997z" fill="#ff8c1a" fill-rule="nonzero" stroke="url(#color-1)" stroke-width="0" stroke-linecap="butt"/>
      <g fill="#db7816" fill-rule="nonzero" stroke="#ffffff" stroke-width="0" stroke-linecap="butt">
        <path d="M314.99664,254.99664l74.99665,-74.99664v74.99665z" data-paper-data="{&quot;index&quot;:null}"/>
        <path d="M314.99664,179.99999l74.99665,-74.99664v74.99665z" data-paper-data="{&quot;index&quot;:null}"/>
        <path d="M277.49831,254.99664l37.49833,-37.49833v37.49833z" data-paper-data="{&quot;index&quot;:null}"/>
        <path d="M277.49831,217.49831l37.49833,-37.49833v37.49833z" data-paper-data="{&quot;index&quot;:null}"/>
        <path d="M165.00336,179.99999l74.99665,-74.99664v74.99665z" data-paper-data="{&quot;index&quot;:null}"/>
        <path d="M90.00671,254.99664l74.99665,-74.99664v74.99665z" data-paper-data="{&quot;index&quot;:null}"/>
        <path d="M239.91074,254.99664l37.49833,-37.49833v37.49833z" data-paper-data="{&quot;index&quot;:null}"/>
        <path d="M239.91074,217.49831l37.49833,-37.49833v37.49833z" data-paper-data="{&quot;index&quot;:null}"/>
        <path d="M277.49831,180.00619l37.49833,-37.49831v37.49831z" data-paper-data="{&quot;index&quot;:null}"/>
        <path d="M277.49831,142.50786l37.49833,-37.49833v37.49833z" data-paper-data="{&quot;index&quot;:null}"/>
        <path d="M239.91074,180.00619l37.49833,-37.49831v37.49831z" data-paper-data="{&quot;index&quot;:null}"/>
        <path d="M239.91074,142.50786l37.49833,-37.49833v37.49833z" data-paper-data="{&quot;index&quot;:null}"/>
        <path d="M202.61341,254.99664l37.49833,-37.49833v37.49833z" data-paper-data="{&quot;index&quot;:null}"/>
        <path d="M202.61341,217.49831l37.49833,-37.49833v37.49833z" data-paper-data="{&quot;index&quot;:null}"/>
        <path d="M165.02583,254.99664l37.49833,-37.49833v37.49833z" data-paper-data="{&quot;index&quot;:null}"/>
        <path d="M165.02583,217.49831l37.49833,-37.49833v37.49833z" data-paper-data="{&quot;index&quot;:null}"/>
        <path d="M127.65594,180.00619l37.49833,-37.49831v37.49831z" data-paper-data="{&quot;index&quot;:null}"/>
        <path d="M127.65594,142.50786l37.49833,-37.49833v37.49833z" data-paper-data="{&quot;index&quot;:null}"/>
        <path d="M90.06836,180.00619l37.49833,-37.49831v37.49831z" data-paper-data="{&quot;index&quot;:null}"/>
        <path d="M90.06836,142.50786l37.49833,-37.49833v37.49833z" data-paper-data="{&quot;index&quot;:null}"/>
      </g>
      <g>
        <path d="M265.92581,176.32027v0c0.05205,-1.83363 1.58069,-3.27789 3.41432,-3.22584l105.022,2.98111c0.88054,0.02499 1.71509,0.39875 2.32006,1.03906c0.60496,0.64031 0.93077,1.49471 0.90578,2.37526l-1.02729,36.19018c-0.05205,1.83363 -1.5807,3.2779 -3.41432,3.22585l-105.02201,-2.98111c-1.83363,-0.05205 -3.27789,-1.58069 -3.22584,-3.41433z" fill-opacity="0.12941" fill="#000000" fill-rule="evenodd" stroke-opacity="0.12941" stroke="#000000" stroke-width="7.5" stroke-linecap="square"/>
        <path d="M265.9398,176.32067v0c0.05205,-1.83363 1.58069,-3.27789 3.41433,-3.22584l104.99404,2.98032c0.88054,0.02499 1.71508,0.39875 2.32004,1.03907c0.60496,0.64031 0.93079,1.49471 0.9058,2.37526l-1.02729,36.19018c-0.05205,1.83363 -1.58071,3.27789 -3.41433,3.22584l-104.99403,-2.98032c-1.83363,-0.05205 -3.2779,-1.58068 -3.22585,-3.41432z" fill="#e6f0ff" fill-rule="evenodd" stroke="#cad1dd" stroke-width="2.5" stroke-linecap="square"/>
        <path d="M313.1545,192.7054c0.43761,0.01242 0.79676,0.10864 1.07744,0.28862c0.28071,0.17872 0.48514,0.42999 0.61328,0.75379c0.23159,-0.31359 0.50187,-0.55138 0.81081,-0.71337c0.30897,-0.16324 0.64333,-0.23977 1.00307,-0.22956c0.71206,0.02021 1.2427,0.21985 1.59195,0.59891c0.34927,0.37905 0.51466,0.89413 0.49618,1.54524l-0.11506,4.05347l-1.61879,-0.04595l0.09807,-3.45506c0.01549,-0.54573 -0.05318,-0.91557 -0.20604,-1.1095c-0.15159,-0.19514 -0.39983,-0.29762 -0.74473,-0.30741c-0.36343,-0.01031 -0.63891,0.10617 -0.82646,0.34944c-0.18631,0.24331 -0.28623,0.60396 -0.2998,1.08195l-0.09599,3.38166l-1.61879,-0.04595l0.10449,-3.68089c0.01121,-0.39518 -0.05466,-0.6896 -0.19762,-0.88325c-0.14293,-0.1949 -0.39054,-0.29736 -0.74285,-0.30736c-0.30782,-0.00874 -0.57085,0.10433 -0.78906,0.3392c-0.21823,0.23487 -0.33315,0.55745 -0.3448,0.96768l-0.09951,3.50587l-1.61879,-0.04595l0.16971,-5.9786l1.52423,0.04326l-0.02308,0.81297l0.02225,0.00063c0.23923,-0.32091 0.51193,-0.55676 0.81808,-0.70754c0.30743,-0.15199 0.6447,-0.22277 1.01185,-0.21234z" fill="#575e75" fill-rule="evenodd" stroke="none" stroke-width="1" stroke-linecap="square"/>
        <path d="M321.12157,193.08975l1.2189,4.1309l0.02227,0.00063l1.40121,-4.05653l1.67441,0.04753l-2.6975,6.77132c-0.15967,0.39474 -0.39646,0.695 -0.71035,0.9008c-0.3139,0.20578 -0.71562,0.30173 -1.20515,0.28784c-0.23363,-0.00663 -0.43126,-0.01789 -0.59288,-0.03377c-0.16039,-0.01585 -0.32562,-0.03561 -0.49567,-0.05927l0.0383,-1.34928c0.19591,0.02816 0.35681,0.0478 0.48269,0.0589c0.12588,0.0111 0.24629,0.01829 0.36125,0.02156c0.22994,0.00653 0.40996,-0.05992 0.54011,-0.19937c0.13016,-0.13944 0.19828,-0.31643 0.20437,-0.53096c0.0016,-0.05645 -0.00054,-0.11175 -0.00642,-0.1659c-0.00585,-0.05541 -0.0243,-0.12499 -0.05533,-0.20874l-1.91582,-5.6649z" fill="#575e75" fill-rule="evenodd" stroke="none" stroke-width="1" stroke-linecap="square"/>
        <path d="M330.28915,193.34998l1.1302,4.11708l0.02226,0.00063l1.35638,-4.04649l1.60766,0.04563l-2.16676,5.92191l-1.7968,-0.051l-1.84961,-6.03592z" fill="#575e75" fill-rule="evenodd" stroke="none" stroke-width="1" stroke-linecap="square"/>
        <path d="M338.65798,196.64423c-0.09866,0.0763 -0.22769,0.13228 -0.38706,0.16793c-0.1581,0.03444 -0.44383,0.07591 -0.85719,0.12445c-0.36854,0.03851 -0.6414,0.12806 -0.8186,0.26868c-0.17593,0.13941 -0.26758,0.33895 -0.27495,0.59864c-0.00673,0.23712 0.06772,0.42568 0.22333,0.5657c0.15563,0.14001 0.40589,0.21492 0.75079,0.22472c0.4302,0.01221 0.75857,-0.09336 0.98514,-0.3167c0.22779,-0.22331 0.34793,-0.55513 0.36043,-0.99549l0.0181,-0.63795zM337.78679,193.40461c0.87152,0.02474 1.51516,0.18803 1.93095,0.48987c0.41702,0.30187 0.61805,0.71626 0.6031,1.24318l-0.09103,3.20666c-0.00684,0.24087 0.00177,0.48219 0.02584,0.72394c0.0253,0.24178 0.07328,0.42585 0.14393,0.55215l-1.64103,-0.04658c-0.02711,-0.09115 -0.04982,-0.18473 -0.06812,-0.28068c-0.01704,-0.09715 -0.02788,-0.19477 -0.03252,-0.29284c-0.23295,0.23068 -0.51935,0.40462 -0.85919,0.52178c-0.33857,0.11594 -0.71925,0.16792 -1.14202,0.15592c-0.6082,-0.01727 -1.08962,-0.186 -1.44427,-0.50619c-0.35461,-0.32144 -0.52374,-0.7701 -0.5074,-1.34594c0.01581,-0.55702 0.19851,-0.97811 0.54807,-1.26324c0.34958,-0.28639 0.97642,-0.4676 1.88049,-0.54364c0.62845,-0.04244 1.04416,-0.10847 1.24713,-0.19813c0.203,-0.0909 0.30788,-0.25493 0.31461,-0.49204c0.00759,-0.26722 -0.06399,-0.46952 -0.21474,-0.60689c-0.14948,-0.13859 -0.41706,-0.21336 -0.80275,-0.22431c-0.33377,-0.00948 -0.59172,0.05602 -0.77387,0.1965c-0.18212,0.13923 -0.29242,0.3646 -0.33096,0.67614l-1.61879,-0.04595c0.06309,-0.65363 0.34298,-1.14288 0.83965,-1.46779c0.49792,-0.32486 1.16224,-0.47552 1.99296,-0.45193z" fill="#575e75" fill-rule="evenodd" stroke="none" stroke-width="1" stroke-linecap="square"/>
        <path d="M338.65798,196.64423c-0.09866,0.0763 -0.22769,0.13228 -0.38706,0.16793c-0.1581,0.03444 -0.44383,0.07591 -0.85719,0.12445c-0.36854,0.03851 -0.6414,0.12806 -0.8186,0.26868c-0.17593,0.13941 -0.26758,0.33895 -0.27495,0.59864c-0.00673,0.23712 0.06772,0.42568 0.22333,0.5657c0.15563,0.14001 0.40589,0.21492 0.75079,0.22472c0.4302,0.01221 0.75857,-0.09336 0.98514,-0.3167c0.22779,-0.22331 0.34793,-0.55513 0.36043,-0.99549l0.0181,-0.63795zM337.78679,193.40461c0.87152,0.02474 1.51516,0.18803 1.93095,0.48987c0.41702,0.30187 0.61805,0.71626 0.6031,1.24318l-0.09103,3.20666c-0.00684,0.24087 0.00177,0.48219 0.02584,0.72394c0.0253,0.24178 0.07328,0.42585 0.14393,0.55215l-1.64103,-0.04658c-0.02711,-0.09115 -0.04982,-0.18473 -0.06812,-0.28068c-0.01704,-0.09715 -0.02788,-0.19477 -0.03252,-0.29284c-0.23295,0.23068 -0.51935,0.40462 -0.85919,0.52178c-0.33857,0.11594 -0.71925,0.16792 -1.14202,0.15592c-0.6082,-0.01727 -1.08962,-0.186 -1.44427,-0.50619c-0.35461,-0.32144 -0.52374,-0.7701 -0.5074,-1.34594c0.01581,-0.55702 0.19851,-0.97811 0.54807,-1.26324c0.34958,-0.28639 0.97642,-0.4676 1.88049,-0.54364c0.62845,-0.04244 1.04416,-0.10847 1.24713,-0.19813c0.203,-0.0909 0.30788,-0.25493 0.31461,-0.49204c0.00759,-0.26722 -0.06399,-0.46952 -0.21474,-0.60689c-0.14948,-0.13859 -0.41706,-0.21336 -0.80275,-0.22431c-0.33377,-0.00948 -0.59172,0.05602 -0.77387,0.1965c-0.18212,0.13923 -0.29242,0.3646 -0.33096,0.67614l-1.61879,-0.04595c0.06309,-0.65363 0.34298,-1.14288 0.83965,-1.46779c0.49792,-0.32486 1.16224,-0.47552 1.99296,-0.45193z" fill="#575e75" fill-rule="evenodd" stroke="none" stroke-width="1" stroke-linecap="square"/>
        <path d="M345.05743,193.61099c0.07046,0.002 0.13522,0.00887 0.19428,0.02058c0.05908,0.01046 0.11432,0.02584 0.16571,0.04614l-0.04327,1.5243c-0.09219,-0.02144 -0.18203,-0.03781 -0.26954,-0.0491c-0.08625,-0.01249 -0.18872,-0.02041 -0.30739,-0.02378c-0.54516,-0.01548 -0.95358,0.14243 -1.22528,0.47373c-0.27045,0.33132 -0.41375,0.78114 -0.42987,1.34946l-0.07788,2.74373l-1.61323,-0.04579l0.16971,-5.9786l1.53535,0.04358l-0.03157,1.11217l0.02225,0.00063c0.1817,-0.38658 0.44513,-0.68859 0.7903,-0.90606c0.34643,-0.21868 0.7199,-0.32235 1.12043,-0.31098z" fill="#575e75" fill-rule="evenodd" stroke="none" stroke-width="1" stroke-linecap="square"/>
        <path d="M347.78213,191.56955l-0.0383,1.34928l-1.61879,-0.04595l0.0383,-1.34928zM347.71755,193.84469l-0.16971,5.9786l-1.61879,-0.04595l0.16971,-5.9786z" fill="#575e75" fill-rule="evenodd" stroke="none" stroke-width="1" stroke-linecap="square"/>
        <path d="M347.78213,191.56955l-0.0383,1.34928l-1.61879,-0.04595l0.0383,-1.34928zM347.71755,193.84469l-0.16971,5.9786l-1.61879,-0.04595l0.16971,-5.9786z" fill="#575e75" fill-rule="evenodd" stroke="none" stroke-width="1" stroke-linecap="square"/>
        <path d="M352.57065,197.03915c-0.09866,0.0763 -0.22769,0.13227 -0.38707,0.16792c-0.1581,0.03444 -0.44382,0.07592 -0.85719,0.12446c-0.36853,0.03851 -0.64141,0.12806 -0.8186,0.26868c-0.17593,0.13941 -0.26758,0.33895 -0.27495,0.59864c-0.00673,0.23712 0.06771,0.42568 0.22333,0.5657c0.15563,0.14001 0.40588,0.21492 0.75077,0.22472c0.4302,0.01221 0.75857,-0.09335 0.98513,-0.31669c0.22779,-0.22331 0.34795,-0.55513 0.36045,-0.99549l0.01811,-0.63795zM351.69946,193.79953c0.87151,0.02474 1.51515,0.18802 1.93095,0.48986c0.41702,0.30187 0.61805,0.71627 0.6031,1.24319l-0.09103,3.20666c-0.00684,0.24087 0.00177,0.48219 0.02584,0.72394c0.0253,0.24178 0.07328,0.42584 0.14392,0.55214l-1.64105,-0.04658c-0.02711,-0.09115 -0.04981,-0.18473 -0.06812,-0.28068c-0.01704,-0.09715 -0.02787,-0.19477 -0.03251,-0.29284c-0.23295,0.23068 -0.51935,0.40462 -0.85919,0.52178c-0.33857,0.11594 -0.71925,0.16792 -1.14202,0.15592c-0.6082,-0.01727 -1.08963,-0.18599 -1.44428,-0.50618c-0.3546,-0.32144 -0.52372,-0.7701 -0.50738,-1.34594c0.01581,-0.55702 0.19849,-0.97811 0.54804,-1.26323c0.34958,-0.28639 0.97643,-0.4676 1.88049,-0.54364c0.62845,-0.04244 1.04417,-0.10847 1.24715,-0.19813c0.203,-0.0909 0.30786,-0.25493 0.31459,-0.49204c0.00759,-0.26722 -0.06399,-0.46951 -0.21475,-0.60689c-0.14948,-0.13859 -0.41706,-0.21336 -0.80276,-0.22431c-0.33377,-0.00948 -0.59172,0.05603 -0.77387,0.19651c-0.1821,0.13923 -0.29243,0.3646 -0.33097,0.67614l-1.61879,-0.04595c0.06309,-0.65363 0.34297,-1.14288 0.83964,-1.46779c0.49791,-0.32486 1.16223,-0.47551 1.99296,-0.45193z" fill="#575e75" fill-rule="evenodd" stroke="none" stroke-width="1" stroke-linecap="square"/>
        <path d="M352.57065,197.03915c-0.09866,0.0763 -0.22769,0.13227 -0.38707,0.16792c-0.1581,0.03444 -0.44382,0.07592 -0.85719,0.12446c-0.36853,0.03851 -0.64141,0.12806 -0.8186,0.26868c-0.17593,0.13941 -0.26758,0.33895 -0.27495,0.59864c-0.00673,0.23712 0.06771,0.42568 0.22333,0.5657c0.15563,0.14001 0.40588,0.21492 0.75077,0.22472c0.4302,0.01221 0.75857,-0.09335 0.98513,-0.31669c0.22779,-0.22331 0.34795,-0.55513 0.36045,-0.99549l0.01811,-0.63795zM351.69946,193.79953c0.87151,0.02474 1.51515,0.18802 1.93095,0.48986c0.41702,0.30187 0.61805,0.71627 0.6031,1.24319l-0.09103,3.20666c-0.00684,0.24087 0.00177,0.48219 0.02584,0.72394c0.0253,0.24178 0.07328,0.42584 0.14392,0.55214l-1.64105,-0.04658c-0.02711,-0.09115 -0.04981,-0.18473 -0.06812,-0.28068c-0.01704,-0.09715 -0.02787,-0.19477 -0.03251,-0.29284c-0.23295,0.23068 -0.51935,0.40462 -0.85919,0.52178c-0.33857,0.11594 -0.71925,0.16792 -1.14202,0.15592c-0.6082,-0.01727 -1.08963,-0.18599 -1.44428,-0.50618c-0.3546,-0.32144 -0.52372,-0.7701 -0.50738,-1.34594c0.01581,-0.55702 0.19849,-0.97811 0.54804,-1.26323c0.34958,-0.28639 0.97643,-0.4676 1.88049,-0.54364c0.62845,-0.04244 1.04417,-0.10847 1.24715,-0.19813c0.203,-0.0909 0.30786,-0.25493 0.31459,-0.49204c0.00759,-0.26722 -0.06399,-0.46951 -0.21475,-0.60689c-0.14948,-0.13859 -0.41706,-0.21336 -0.80276,-0.22431c-0.33377,-0.00948 -0.59172,0.05603 -0.77387,0.19651c-0.1821,0.13923 -0.29243,0.3646 -0.33097,0.67614l-1.61879,-0.04595c0.06309,-0.65363 0.34297,-1.14288 0.83964,-1.46779c0.49791,-0.32486 1.16223,-0.47551 1.99296,-0.45193z" fill="#575e75" fill-rule="evenodd" stroke="none" stroke-width="1" stroke-linecap="square"/>
        <path d="M358.4288,195.22791c-0.41165,-0.01168 -0.74786,0.15142 -1.00859,0.4893c-0.25948,0.33667 -0.39759,0.80044 -0.41437,1.39133c-0.01624,0.57209 0.09492,1.03666 0.33345,1.39374c0.23854,0.35707 0.5692,0.54161 0.99197,0.55361c0.42277,0.012 0.76336,-0.15348 1.02177,-0.49645c0.25842,-0.34296 0.39575,-0.8005 0.41199,-1.37259c0.01635,-0.57584 -0.09228,-1.04285 -0.32583,-1.40104c-0.23228,-0.35942 -0.56908,-0.54538 -1.0104,-0.55791zM357.21116,191.8372l-0.08526,3.00342l0.02781,0.00079c0.182,-0.26603 0.43843,-0.47409 0.7693,-0.62416c0.3309,-0.15132 0.70034,-0.22119 1.10828,-0.20961c0.68979,0.01958 1.26088,0.31956 1.7133,0.89991c0.45369,0.57914 0.66687,1.35046 0.63952,2.31395c-0.02713,0.95598 -0.28374,1.71459 -0.7698,2.27585c-0.48478,0.56004 -1.07394,0.83021 -1.76744,0.81052c-0.4747,-0.01347 -0.87295,-0.10451 -1.19479,-0.2731c-0.32179,-0.16985 -0.55822,-0.40571 -0.70923,-0.70756l-0.02225,-0.00063l-0.02164,0.76215l-1.53535,-0.04358l0.23429,-8.25376z" fill="#575e75" fill-rule="evenodd" stroke="none" stroke-width="1" stroke-linecap="square"/>
        <path d="M358.4288,195.22791c-0.41165,-0.01168 -0.74786,0.15142 -1.00859,0.4893c-0.25948,0.33667 -0.39759,0.80044 -0.41437,1.39133c-0.01624,0.57209 0.09492,1.03666 0.33345,1.39374c0.23854,0.35707 0.5692,0.54161 0.99197,0.55361c0.42277,0.012 0.76336,-0.15348 1.02177,-0.49645c0.25842,-0.34296 0.39575,-0.8005 0.41199,-1.37259c0.01635,-0.57584 -0.09228,-1.04285 -0.32583,-1.40104c-0.23228,-0.35942 -0.56908,-0.54538 -1.0104,-0.55791zM357.21116,191.8372l-0.08526,3.00342l0.02781,0.00079c0.182,-0.26603 0.43843,-0.47409 0.7693,-0.62416c0.3309,-0.15132 0.70034,-0.22119 1.10828,-0.20961c0.68979,0.01958 1.26088,0.31956 1.7133,0.89991c0.45369,0.57914 0.66687,1.35046 0.63952,2.31395c-0.02713,0.95598 -0.28374,1.71459 -0.7698,2.27585c-0.48478,0.56004 -1.07394,0.83021 -1.76744,0.81052c-0.4747,-0.01347 -0.87295,-0.10451 -1.19479,-0.2731c-0.32179,-0.16985 -0.55822,-0.40571 -0.70923,-0.70756l-0.02225,-0.00063l-0.02164,0.76215l-1.53535,-0.04358l0.23429,-8.25376z" fill="#575e75" fill-rule="evenodd" stroke="none" stroke-width="1" stroke-linecap="square"/>
        <path d="M364.22034,192.03616l-0.23429,8.25376l-1.61879,-0.04595l0.23428,-8.25376z" fill="#575e75" fill-rule="evenodd" stroke="none" stroke-width="1" stroke-linecap="square"/>
        <path d="M368.06366,195.5014c-0.39311,-0.01116 -0.70785,0.0929 -0.94419,0.31219c-0.23634,0.21929 -0.37865,0.52602 -0.42696,0.92015l2.63123,0.07469c-0.06538,-0.44257 -0.19655,-0.76834 -0.39351,-0.97734c-0.19573,-0.20897 -0.48459,-0.31887 -0.86657,-0.32971zM368.15438,194.26661c0.87151,0.02474 1.55886,0.34873 2.06201,0.97195c0.50444,0.62202 0.74324,1.40537 0.71643,2.35006l-0.01977,0.30454l-4.25002,-0.12064c0.00761,0.51626 0.12904,0.90203 0.36428,1.15731c0.23648,0.25531 0.58094,0.38939 1.03339,0.40224c0.29297,0.00832 0.56586,-0.0599 0.81864,-0.20464c0.25281,-0.14601 0.41565,-0.32532 0.48849,-0.53796l1.4241,0.04042c-0.23804,0.67124 -0.58987,1.16726 -1.0555,1.48802c-0.46558,0.31951 -1.05255,0.46921 -1.76089,0.44911c-0.90861,-0.02579 -1.62905,-0.33817 -2.16136,-0.93712c-0.53231,-0.59895 -0.78527,-1.36325 -0.75888,-2.29288c0.02532,-0.89199 0.32719,-1.63299 0.90562,-2.22302c0.57966,-0.58999 1.31081,-0.87246 2.19346,-0.8474z" fill="#575e75" fill-rule="evenodd" stroke="none" stroke-width="1" stroke-linecap="square"/>
        <path d="M368.06366,195.5014c-0.39311,-0.01116 -0.70785,0.0929 -0.94419,0.31219c-0.23634,0.21929 -0.37865,0.52602 -0.42696,0.92015l2.63123,0.07469c-0.06538,-0.44257 -0.19655,-0.76834 -0.39351,-0.97734c-0.19573,-0.20897 -0.48459,-0.31887 -0.86657,-0.32971zM368.15438,194.26661c0.87151,0.02474 1.55886,0.34873 2.06201,0.97195c0.50444,0.62202 0.74324,1.40537 0.71643,2.35006l-0.01977,0.30454l-4.25002,-0.12064c0.00761,0.51626 0.12904,0.90203 0.36428,1.15731c0.23648,0.25531 0.58094,0.38939 1.03339,0.40224c0.29297,0.00832 0.56586,-0.0599 0.81864,-0.20464c0.25281,-0.14601 0.41565,-0.32532 0.48849,-0.53796l1.4241,0.04042c-0.23804,0.67124 -0.58987,1.16726 -1.0555,1.48802c-0.46558,0.31951 -1.05255,0.46921 -1.76089,0.44911c-0.90861,-0.02579 -1.62905,-0.33817 -2.16136,-0.93712c-0.53231,-0.59895 -0.78527,-1.36325 -0.75888,-2.29288c0.02532,-0.89199 0.32719,-1.63299 0.90562,-2.22302c0.57966,-0.58999 1.31081,-0.87246 2.19346,-0.8474z" fill="#575e75" fill-rule="evenodd" stroke="none" stroke-width="1" stroke-linecap="square"/>
        <path d="M276.18192,209.62985c-1.95625,-0.05553 -3.4971,-1.68641 -3.44157,-3.64266l0.63679,-22.43337c0.05553,-1.95625 1.6864,-3.4971 3.64265,-3.44157l22.43338,0.63679c1.95625,0.05553 3.4971,1.6864 3.44157,3.64265l-0.63679,22.43337c-0.05553,1.95625 -1.68641,3.4971 -3.64266,3.44157z" fill="#0066ff" fill-rule="nonzero" stroke="#cad1dd" stroke-width="2.5" stroke-linecap="butt"/>
        <path d="M284.93258,202.37941l-2.70282,-2.86074l12.08378,-11.4167l2.70282,2.86074z" fill="#ffffff" fill-rule="nonzero" stroke="none" stroke-width="0" stroke-linecap="butt"/>
        <path d="M278.72136,195.80126l3.13538,-2.96229l5.03263,5.32669l-3.13538,2.96229z" fill="#ffffff" fill-rule="nonzero" stroke="none" stroke-width="0" stroke-linecap="butt"/>
      </g>
      <g fill-rule="evenodd" stroke-linecap="square">
        <path d="M103.72623,186.28353v0c-0.20412,-1.82298 1.10823,-3.46626 2.93121,-3.67038l69.62919,-7.7963c0.87543,-0.09802 1.75393,0.15574 2.44226,0.70544c0.68833,0.54971 1.13009,1.35034 1.2281,2.22577l3.80342,33.96847c0.20412,1.82298 -1.10824,3.46626 -2.93121,3.67038l-69.62919,7.79631c-1.82298,0.20412 -3.46627,-1.10823 -3.67038,-2.93121z" fill-opacity="0.12941" fill="#000000" stroke-opacity="0.12941" stroke="#000000" stroke-width="7.5"/>
        <path d="M103.74013,186.28197v0c-0.20412,-1.82298 1.10823,-3.46626 2.93121,-3.67038l69.60139,-7.79319c0.87543,-0.09802 1.75392,0.15574 2.44225,0.70544c0.68833,0.54971 1.13011,1.35035 1.22813,2.22576l3.80341,33.96847c0.20412,1.82298 -1.10823,3.46626 -2.9312,3.67038l-69.60138,7.79319c-1.82298,0.20412 -3.46628,-1.10823 -3.67039,-2.93121z" fill="#e6f0ff" stroke="#cad1dd" stroke-width="2.5"/>
        <path d="M116.05043,188.43805c0.43506,-0.04871 0.80412,-0.00352 1.10715,0.13557c0.30289,0.13784 0.54036,0.35814 0.71239,0.66092c0.1856,-0.34282 0.42009,-0.61597 0.70343,-0.81945c0.28321,-0.20472 0.60361,-0.32713 0.96126,-0.36718c0.7079,-0.07926 1.26121,0.04444 1.65991,0.37109c0.39871,0.32665 0.6343,0.81364 0.70678,1.46097l0.45122,4.02993l-1.60938,0.1802l-0.38461,-3.43498c-0.06075,-0.54256 -0.18033,-0.89921 -0.35873,-1.06994c-0.17731,-0.1721 -0.43742,-0.23898 -0.7803,-0.20058c-0.36133,0.04046 -0.61788,0.19421 -0.76966,0.46126c-0.15057,0.26691 -0.19923,0.63798 -0.14602,1.11318l0.37644,3.36202l-1.60938,0.1802l-0.40975,-3.6595c-0.04399,-0.3929 -0.15027,-0.67525 -0.31884,-0.84708c-0.16871,-0.17306 -0.4282,-0.23999 -0.77846,-0.20077c-0.30602,0.03427 -0.55071,0.18291 -0.73406,0.44591c-0.18336,0.263 -0.25217,0.59844 -0.20651,1.00629l0.39027,3.4855l-1.60939,0.1802l-0.66553,-5.94386l1.51536,-0.16968l0.0905,0.80824l0.02214,-0.00248c0.19215,-0.35113 0.42928,-0.6227 0.71142,-0.81468c0.28323,-0.19336 0.60734,-0.31048 0.97236,-0.35135z" fill="#575e75" stroke="none" stroke-width="1"/>
        <path d="M123.99326,187.70782l1.78295,3.9206l0.02213,-0.00248l0.82193,-4.21227l1.66468,-0.18639l-1.72706,7.08128c-0.10307,0.41314 -0.29569,0.74349 -0.57782,0.99104c-0.28213,0.24754 -0.66655,0.39857 -1.15324,0.45306c-0.23228,0.02601 -0.42955,0.04241 -0.5918,0.04921c-0.16103,0.00667 -0.32739,0.01015 -0.49909,0.01042l-0.15019,-1.34143c0.19792,0.00057 0.35998,-0.00241 0.48618,-0.00898c0.1262,-0.00655 0.24644,-0.01622 0.36073,-0.02902c0.2286,-0.0256 0.39762,-0.1165 0.50704,-0.27272c0.10944,-0.15622 0.15222,-0.34099 0.12834,-0.55428c-0.00629,-0.05613 -0.0161,-0.11059 -0.02948,-0.1634c-0.01352,-0.05405 -0.04148,-0.12037 -0.08389,-0.19898l-2.68693,-5.34246z" fill="#575e75" stroke="none" stroke-width="1"/>
        <path d="M133.10758,186.6873l1.6932,3.91928l0.02213,-0.00248l0.77894,-4.19608l1.59832,-0.17897l-1.31993,6.16618l-1.78636,0.20002l-2.67311,-5.71908z" fill="#575e75" stroke="none" stroke-width="1"/>
        <path d="M141.85396,188.78254c-0.08706,0.08931 -0.20701,0.16273 -0.35986,0.22025c-0.15176,0.05614 -0.42891,0.13706 -0.83147,0.24276c-0.35957,0.08952 -0.61728,0.21623 -0.77314,0.38019c-0.15477,0.16257 -0.2177,0.37295 -0.18879,0.63112c0.0264,0.23575 0.12641,0.41208 0.30002,0.52903c0.17363,0.11694 0.43187,0.15623 0.77478,0.11783c0.42769,-0.04789 0.73815,-0.19821 0.93135,-0.45095c0.19443,-0.25288 0.26714,-0.59822 0.21812,-1.036l-0.07101,-0.63424zM140.5396,185.69602c0.86646,-0.09701 1.52658,-0.02506 1.98039,0.21586c0.45504,0.24078 0.71189,0.62311 0.77054,1.14696l0.35696,3.18802c0.02681,0.23947 0.06899,0.47724 0.12653,0.71328c0.05876,0.23589 0.13193,0.41146 0.21951,0.52668l-1.6315,0.18268c-0.03955,-0.0865 -0.07509,-0.17598 -0.10659,-0.26844c-0.03042,-0.09383 -0.05476,-0.18898 -0.07303,-0.28544c-0.19851,0.26092 -0.45786,0.47307 -0.77805,0.63648c-0.3191,0.16201 -0.68881,0.26656 -1.10913,0.31363c-0.60467,0.0677 -1.10491,-0.03225 -1.50074,-0.29987c-0.39596,-0.26887 -0.626,-0.68956 -0.6901,-1.26205c-0.062,-0.55378 0.06019,-0.99623 0.36658,-1.32732c0.30625,-0.33233 0.90168,-0.59916 1.78632,-0.80052c0.6164,-0.12964 1.01884,-0.25301 1.20732,-0.3701c0.18834,-0.11832 0.26933,-0.29536 0.24293,-0.5311c-0.02974,-0.26567 -0.12883,-0.45601 -0.29728,-0.57102c-0.16734,-0.11639 -0.44272,-0.15312 -0.82618,-0.11019c-0.33183,0.03716 -0.57812,0.13798 -0.73891,0.30248c-0.16092,0.16326 -0.23873,0.40181 -0.23345,0.7157l-1.60938,0.1802c-0.02865,-0.65604 0.18027,-1.17953 0.6268,-1.57052c0.44776,-0.39112 1.08458,-0.63291 1.91047,-0.72539z" fill="#575e75" stroke="none" stroke-width="1"/>
        <path d="M141.85396,188.78254c-0.08706,0.08931 -0.20701,0.16273 -0.35986,0.22025c-0.15176,0.05614 -0.42891,0.13706 -0.83147,0.24276c-0.35957,0.08952 -0.61728,0.21623 -0.77314,0.38019c-0.15477,0.16257 -0.2177,0.37295 -0.18879,0.63112c0.0264,0.23575 0.12641,0.41208 0.30002,0.52903c0.17363,0.11694 0.43187,0.15623 0.77478,0.11783c0.42769,-0.04789 0.73815,-0.19821 0.93135,-0.45095c0.19443,-0.25288 0.26714,-0.59822 0.21812,-1.036l-0.07101,-0.63424zM140.5396,185.69602c0.86646,-0.09701 1.52658,-0.02506 1.98039,0.21586c0.45504,0.24078 0.71189,0.62311 0.77054,1.14696l0.35696,3.18802c0.02681,0.23947 0.06899,0.47724 0.12653,0.71328c0.05876,0.23589 0.13193,0.41146 0.21951,0.52668l-1.6315,0.18268c-0.03955,-0.0865 -0.07509,-0.17598 -0.10659,-0.26844c-0.03042,-0.09383 -0.05476,-0.18898 -0.07303,-0.28544c-0.19851,0.26092 -0.45786,0.47307 -0.77805,0.63648c-0.3191,0.16201 -0.68881,0.26656 -1.10913,0.31363c-0.60467,0.0677 -1.10491,-0.03225 -1.50074,-0.29987c-0.39596,-0.26887 -0.626,-0.68956 -0.6901,-1.26205c-0.062,-0.55378 0.06019,-0.99623 0.36658,-1.32732c0.30625,-0.33233 0.90168,-0.59916 1.78632,-0.80052c0.6164,-0.12964 1.01884,-0.25301 1.20732,-0.3701c0.18834,-0.11832 0.26933,-0.29536 0.24293,-0.5311c-0.02974,-0.26567 -0.12883,-0.45601 -0.29728,-0.57102c-0.16734,-0.11639 -0.44272,-0.15312 -0.82618,-0.11019c-0.33183,0.03716 -0.57812,0.13798 -0.73891,0.30248c-0.16092,0.16326 -0.23873,0.40181 -0.23345,0.7157l-1.60938,0.1802c-0.02865,-0.65604 0.18027,-1.17953 0.6268,-1.57052c0.44776,-0.39112 1.08458,-0.63291 1.91047,-0.72539z" fill="#575e75" stroke="none" stroke-width="1"/>
        <path d="M147.768,184.88667c0.07005,-0.00785 0.13515,-0.01008 0.19525,-0.00671c0.05997,0.00213 0.1168,0.00965 0.17052,0.02259l0.16968,1.51544c-0.09428,-0.00839 -0.18552,-0.01206 -0.27376,-0.01102c-0.08715,-0.00036 -0.18972,0.00609 -0.3077,0.0193c-0.54199,0.06069 -0.9244,0.274 -1.14726,0.63993c-0.22162,0.36579 -0.30079,0.8312 -0.23753,1.39621l0.30543,2.72778l-1.60385,0.17959l-0.66553,-5.94387l1.52643,-0.17091l0.12381,1.10571l0.02212,-0.00248c0.12604,-0.40815 0.34478,-0.74394 0.65625,-1.00741c0.31255,-0.26485 0.66793,-0.41957 1.06613,-0.46415z" fill="#575e75" stroke="none" stroke-width="1"/>
        <path d="M150.18146,182.48527l0.15019,1.34144l-1.60938,0.1802l-0.1502,-1.34144zM150.43472,184.74719l0.66553,5.94387l-1.60938,0.1802l-0.66553,-5.94386z" fill="#575e75" stroke="none" stroke-width="1"/>
        <path d="M150.18146,182.48527l0.15019,1.34144l-1.60938,0.1802l-0.1502,-1.34144zM150.43472,184.74719l0.66553,5.94387l-1.60938,0.1802l-0.66553,-5.94386z" fill="#575e75" stroke="none" stroke-width="1"/>
        <path d="M155.68581,187.2338c-0.08706,0.08931 -0.20702,0.16273 -0.35987,0.22025c-0.15176,0.05614 -0.42891,0.13706 -0.83147,0.24276c-0.35956,0.08952 -0.61729,0.21623 -0.77314,0.38019c-0.15477,0.16257 -0.2177,0.37295 -0.18879,0.63112c0.0264,0.23575 0.1264,0.41209 0.30002,0.52903c0.17363,0.11694 0.43188,0.15624 0.77478,0.11784c0.42768,-0.04789 0.73814,-0.19821 0.93134,-0.45095c0.19443,-0.25288 0.26715,-0.59822 0.21813,-1.036l-0.07102,-0.63424zM154.37144,184.14729c0.86644,-0.09701 1.52658,-0.02506 1.98038,0.21586c0.45504,0.24078 0.71189,0.6231 0.77055,1.14696l0.35696,3.18802c0.02681,0.23947 0.06898,0.47724 0.12652,0.71328c0.05876,0.23589 0.13193,0.41145 0.2195,0.52667l-1.63152,0.18268c-0.03955,-0.0865 -0.07508,-0.17597 -0.10659,-0.26843c-0.03042,-0.09383 -0.05476,-0.18899 -0.07303,-0.28545c-0.19851,0.26092 -0.45786,0.47307 -0.77805,0.63648c-0.3191,0.16201 -0.68881,0.26657 -1.10912,0.31363c-0.60467,0.0677 -1.10492,-0.03225 -1.50074,-0.29987c-0.39595,-0.26887 -0.62599,-0.68956 -0.69009,-1.26205c-0.062,-0.55378 0.06018,-0.99623 0.36656,-1.32732c0.30625,-0.33233 0.90169,-0.59916 1.78633,-0.80052c0.6164,-0.12964 1.01884,-0.25301 1.20734,-0.37009c0.18834,-0.11832 0.26932,-0.29537 0.24292,-0.5311c-0.02974,-0.26567 -0.12883,-0.456 -0.29726,-0.57101c-0.16734,-0.11639 -0.44273,-0.15312 -0.82619,-0.11019c-0.33183,0.03716 -0.57812,0.13798 -0.73891,0.30248c-0.16091,0.16326 -0.23873,0.40181 -0.23346,0.7157l-1.60938,0.1802c-0.02865,-0.65604 0.18027,-1.17953 0.6268,-1.57052c0.44775,-0.39111 1.08458,-0.63291 1.91047,-0.72539z" fill="#575e75" stroke="none" stroke-width="1"/>
        <path d="M155.68581,187.2338c-0.08706,0.08931 -0.20702,0.16273 -0.35987,0.22025c-0.15176,0.05614 -0.42891,0.13706 -0.83147,0.24276c-0.35956,0.08952 -0.61729,0.21623 -0.77314,0.38019c-0.15477,0.16257 -0.2177,0.37295 -0.18879,0.63112c0.0264,0.23575 0.1264,0.41209 0.30002,0.52903c0.17363,0.11694 0.43188,0.15624 0.77478,0.11784c0.42768,-0.04789 0.73814,-0.19821 0.93134,-0.45095c0.19443,-0.25288 0.26715,-0.59822 0.21813,-1.036l-0.07102,-0.63424zM154.37144,184.14729c0.86644,-0.09701 1.52658,-0.02506 1.98038,0.21586c0.45504,0.24078 0.71189,0.6231 0.77055,1.14696l0.35696,3.18802c0.02681,0.23947 0.06898,0.47724 0.12652,0.71328c0.05876,0.23589 0.13193,0.41145 0.2195,0.52667l-1.63152,0.18268c-0.03955,-0.0865 -0.07508,-0.17597 -0.10659,-0.26843c-0.03042,-0.09383 -0.05476,-0.18899 -0.07303,-0.28545c-0.19851,0.26092 -0.45786,0.47307 -0.77805,0.63648c-0.3191,0.16201 -0.68881,0.26657 -1.10912,0.31363c-0.60467,0.0677 -1.10492,-0.03225 -1.50074,-0.29987c-0.39595,-0.26887 -0.62599,-0.68956 -0.69009,-1.26205c-0.062,-0.55378 0.06018,-0.99623 0.36656,-1.32732c0.30625,-0.33233 0.90169,-0.59916 1.78633,-0.80052c0.6164,-0.12964 1.01884,-0.25301 1.20734,-0.37009c0.18834,-0.11832 0.26932,-0.29537 0.24292,-0.5311c-0.02974,-0.26567 -0.12883,-0.456 -0.29726,-0.57101c-0.16734,-0.11639 -0.44273,-0.15312 -0.82619,-0.11019c-0.33183,0.03716 -0.57812,0.13798 -0.73891,0.30248c-0.16091,0.16326 -0.23873,0.40181 -0.23346,0.7157l-1.60938,0.1802c-0.02865,-0.65604 0.18027,-1.17953 0.6268,-1.57052c0.44775,-0.39111 1.08458,-0.63291 1.91047,-0.72539z" fill="#575e75" stroke="none" stroke-width="1"/>
        <path d="M161.2342,184.62347c-0.40926,0.04583 -0.71944,0.25421 -0.93051,0.62514c-0.21,0.36955 -0.28211,0.84806 -0.21633,1.43552c0.06368,0.56877 0.23853,1.0133 0.52452,1.33363c0.28599,0.32032 0.63916,0.45695 1.05947,0.40989c0.42031,-0.04706 0.7345,-0.25841 0.94258,-0.63406c0.20807,-0.37564 0.28027,-0.84786 0.21659,-1.41661c-0.0641,-0.57249 -0.23678,-1.01981 -0.51798,-1.34194c-0.28013,-0.32352 -0.63957,-0.4607 -1.07833,-0.41158zM159.55569,181.43565l0.33434,2.98597l0.02766,-0.0031c0.14313,-0.28881 0.36805,-0.53057 0.67477,-0.72531c0.30658,-0.19598 0.66266,-0.31668 1.06823,-0.36209c0.68579,-0.07679 1.29312,0.14064 1.82204,0.65223c0.53,0.51022 0.84864,1.24428 0.95589,2.20219c0.10642,0.95043 -0.0419,1.73741 -0.44496,2.36095c-0.40196,0.62216 -0.9477,0.97184 -1.63717,1.04904c-0.47194,0.05284 -0.879,0.01822 -1.2212,-0.10385c-0.34233,-0.12332 -0.60932,-0.32391 -0.80096,-0.60176l-0.02212,0.00248l0.08484,0.75771l-1.52643,0.17092l-0.91879,-8.2058z" fill="#575e75" stroke="none" stroke-width="1"/>
        <path d="M161.2342,184.62347c-0.40926,0.04583 -0.71944,0.25421 -0.93051,0.62514c-0.21,0.36955 -0.28211,0.84806 -0.21633,1.43552c0.06368,0.56877 0.23853,1.0133 0.52452,1.33363c0.28599,0.32032 0.63916,0.45695 1.05947,0.40989c0.42031,-0.04706 0.7345,-0.25841 0.94258,-0.63406c0.20807,-0.37564 0.28027,-0.84786 0.21659,-1.41661c-0.0641,-0.57249 -0.23678,-1.01981 -0.51798,-1.34194c-0.28013,-0.32352 -0.63957,-0.4607 -1.07833,-0.41158zM159.55569,181.43565l0.33434,2.98597l0.02766,-0.0031c0.14313,-0.28881 0.36805,-0.53057 0.67477,-0.72531c0.30658,-0.19598 0.66266,-0.31668 1.06823,-0.36209c0.68579,-0.07679 1.29312,0.14064 1.82204,0.65223c0.53,0.51022 0.84864,1.24428 0.95589,2.20219c0.10642,0.95043 -0.0419,1.73741 -0.44496,2.36095c-0.40196,0.62216 -0.9477,0.97184 -1.63717,1.04904c-0.47194,0.05284 -0.879,0.01822 -1.2212,-0.10385c-0.34233,-0.12332 -0.60932,-0.32391 -0.80096,-0.60176l-0.02212,0.00248l0.08484,0.75771l-1.52643,0.17092l-0.91879,-8.2058z" fill="#575e75" stroke="none" stroke-width="1"/>
        <path d="M166.52417,180.65539l0.91879,8.2058l-1.60938,0.1802l-0.9188,-8.2058z" fill="#575e75" stroke="none" stroke-width="1"/>
        <path d="M170.81309,183.55093c-0.39083,0.04376 -0.68798,0.19069 -0.89144,0.44079c-0.20346,0.2501 -0.30161,0.57366 -0.2945,0.97069l2.61593,-0.2929c-0.12644,-0.42912 -0.30175,-0.73343 -0.52593,-0.91291c-0.22296,-0.17963 -0.52432,-0.24819 -0.90407,-0.20567zM170.73075,182.31555c0.86644,-0.09701 1.59226,0.12798 2.17739,0.67497c0.58624,0.54559 0.93193,1.28802 1.03709,2.22721l0.02289,0.30433l-4.22532,0.47311c0.07952,0.51015 0.25354,0.87522 0.52208,1.09521c0.26977,0.21984 0.62956,0.30459 1.07938,0.25422c0.29127,-0.03261 0.55199,-0.13821 0.78212,-0.31679c0.22999,-0.17983 0.36623,-0.38009 0.40871,-0.60081l1.41583,-0.15853c-0.14212,0.69788 -0.42136,1.2381 -0.83772,1.62066c-0.41649,0.3813 -0.97684,0.61138 -1.68107,0.69023c-0.90332,0.10115 -1.66029,-0.10772 -2.27091,-0.62661c-0.61062,-0.51889 -0.96766,-1.24044 -1.07115,-2.16467c-0.0993,-0.88681 0.09632,-1.66268 0.58683,-2.32758c0.49175,-0.66504 1.17637,-1.04669 2.05388,-1.14495z" fill="#575e75" stroke="none" stroke-width="1"/>
        <path d="M170.81309,183.55093c-0.39083,0.04376 -0.68798,0.19069 -0.89144,0.44079c-0.20346,0.2501 -0.30161,0.57366 -0.2945,0.97069l2.61593,-0.2929c-0.12644,-0.42912 -0.30175,-0.73343 -0.52593,-0.91291c-0.22296,-0.17963 -0.52432,-0.24819 -0.90407,-0.20567zM170.73075,182.31555c0.86644,-0.09701 1.59226,0.12798 2.17739,0.67497c0.58624,0.54559 0.93193,1.28802 1.03709,2.22721l0.02289,0.30433l-4.22532,0.47311c0.07952,0.51015 0.25354,0.87522 0.52208,1.09521c0.26977,0.21984 0.62956,0.30459 1.07938,0.25422c0.29127,-0.03261 0.55199,-0.13821 0.78212,-0.31679c0.22999,-0.17983 0.36623,-0.38009 0.40871,-0.60081l1.41583,-0.15853c-0.14212,0.69788 -0.42136,1.2381 -0.83772,1.62066c-0.41649,0.3813 -0.97684,0.61138 -1.68107,0.69023c-0.90332,0.10115 -1.66029,-0.10772 -2.27091,-0.62661c-0.61062,-0.51889 -0.96766,-1.24044 -1.07115,-2.16467c-0.0993,-0.88681 0.09632,-1.66268 0.58683,-2.32758c0.49175,-0.66504 1.17637,-1.04669 2.05388,-1.14495z" fill="#575e75" stroke="none" stroke-width="1"/>
        <path d="M110.75668,204.91678v0c-0.3319,-2.96417 1.80198,-5.63613 4.76613,-5.96802l55.73081,-6.24012c1.42344,-0.15938 2.85189,0.25323 3.97111,1.14705c1.11922,0.89382 1.83752,2.19565 1.9969,3.61909l0.89704,8.01152c0.3319,2.96416 -1.80196,5.63613 -4.76612,5.96803l-55.73082,6.24012c-2.96416,0.3319 -5.63613,-1.80197 -5.96803,-4.76613z" fill="#ff5800" stroke="none" stroke-width="1"/>
      </g>
      <path d="M 160.7 238.077 C 160.7 238.077 156.642 237.775 156.642 237.17 C 156.642 237.17 156.044 225.701 155.875 222.466 C 155.792 220.872 155.089 220.894 154.604 222.506 C 153.619 225.78 150.127 237.392 150.127 237.392 C 150.008 237.76 148.976 237.944 147.03 237.944 C 145.083 237.944 144.081 237.775 144.021 237.437 C 144.021 237.437 140.394 225.604 139.381 222.3 C 138.888 220.691 138.217 220.529 138.164 222.033 C 138.052 225.214 137.64 236.894 137.64 236.894 C 137.61 237.351 137.032 237.662 135.904 237.828 C 134.783 237.994 133.848 238.077 133.101 238.077 C 132.359 238.077 131.641 238.033 130.947 237.944 C 129.487 237.73 128.772 237.351 128.802 236.805 L 129.852 207.185 C 129.852 206.455 131.704 206.09 135.406 206.09 C 136.504 206.09 137.842 206.174 139.42 206.34 C 140.998 206.506 141.879 206.832 142.063 207.319 C 142.063 207.319 145.025 215.656 145.953 218.269 C 146.471 219.727 147.851 219.457 148.343 217.871 C 149.164 215.225 151.631 207.274 151.631 207.274 C 151.904 206.485 154.001 206.09 157.923 206.09 C 159.045 206.09 160.386 206.174 161.946 206.34 C 163.513 206.506 164.296 206.802 164.296 207.23 L 165.622 237.125 C 165.622 237.457 165.029 237.701 163.842 237.855 C 162.661 238.003 161.614 238.077 160.7 238.077 Z M 171.886 235.345 C 169.987 233.251 169.038 230.349 169.038 226.641 C 169.038 222.932 169.987 220.031 171.886 217.936 C 173.785 215.842 176.345 214.795 179.567 214.795 C 182.789 214.795 185.34 215.842 187.221 217.937 C 189.102 220.031 190.042 222.932 190.042 226.641 C 190.042 230.349 189.102 233.251 187.221 235.345 C 185.34 237.44 182.789 238.487 179.567 238.487 C 176.345 238.487 173.785 237.44 171.886 235.345 L 171.886 235.345 Z M 179.585 222.404 C 177.87 222.404 177.013 223.802 177.013 226.596 C 177.013 229.391 177.87 230.788 179.585 230.788 C 181.305 230.788 182.166 229.391 182.166 226.596 C 182.166 223.802 181.305 222.404 179.585 222.404 L 179.585 222.404 Z M 202.801 237.757 C 202.801 237.971 201.709 238.077 199.526 238.077 C 196.488 237.988 194.969 237.822 194.969 237.579 L 194.969 222.814 L 193.785 222.814 C 192.996 222.814 192.48 222.146 192.237 220.811 C 192.171 220.414 192.139 220.019 192.139 219.628 C 192.139 218.684 192.323 217.741 192.691 216.797 C 193.237 215.462 194.085 214.795 195.236 214.795 C 196.393 214.795 197.425 215.068 198.333 215.614 C 199.247 216.159 199.858 216.705 200.167 217.251 C 202.077 215.614 204.353 214.795 206.993 214.795 C 209.639 214.795 211.553 215.51 212.734 216.94 C 213.92 218.364 214.514 220.701 214.514 223.953 L 214.514 237.624 C 214.514 237.986 213.214 238.166 210.615 238.166 C 208.023 238.166 206.726 237.986 206.726 237.624 L 206.726 224.451 C 206.726 222.932 206.195 222.173 205.133 222.173 C 204.824 222.173 204.397 222.304 203.851 222.565 C 203.306 222.82 202.955 223.01 202.801 223.134 L 202.801 237.757 Z M 226.726 237.757 C 226.726 238 225.334 238.122 222.552 238.122 C 219.775 238.122 218.386 238.015 218.386 237.802 L 218.386 215.427 C 218.386 215.219 219.775 215.115 222.552 215.115 C 225.334 215.115 226.726 215.204 226.726 215.382 L 226.726 237.757 Z M 226.726 212.694 C 226.726 212.908 225.334 213.015 222.552 213.015 C 219.775 213.015 218.386 212.923 218.386 212.739 L 218.386 206.179 C 218.386 205.877 219.775 205.726 222.552 205.726 C 225.334 205.726 226.726 205.818 226.726 206.001 L 226.726 212.694 Z M 241.311 237.757 C 241.311 238.125 240.035 238.309 237.484 238.309 C 234.446 238.184 232.927 237.985 232.927 237.713 L 232.927 221.586 L 230.604 221.586 C 229.993 221.586 229.687 220.535 229.687 218.435 C 229.687 217.889 229.741 217.222 229.847 216.432 C 229.954 215.643 230.177 215.249 230.515 215.249 L 232.927 215.249 L 232.927 211.235 C 232.927 210.63 234.209 210.327 236.772 210.327 C 239.341 210.327 240.626 210.57 240.626 211.057 L 240.626 213.976 L 240.67 215.249 L 244.55 215.249 C 245.067 215.249 245.325 216.314 245.325 218.444 C 245.325 220.568 245.067 221.63 244.551 221.63 L 241.311 221.63 L 241.311 237.757 Z M 249.58 235.345 C 247.682 233.251 246.732 230.349 246.732 226.641 C 246.732 222.932 247.682 220.031 249.58 217.936 C 251.479 215.842 254.039 214.795 257.261 214.795 C 260.483 214.795 263.034 215.842 264.915 217.937 C 266.796 220.031 267.737 222.932 267.737 226.641 C 267.737 230.349 266.796 233.251 264.915 235.345 C 263.034 237.44 260.483 238.487 257.261 238.487 C 254.039 238.487 251.479 237.44 249.58 235.345 L 249.58 235.345 Z M 257.279 222.404 C 255.564 222.404 254.707 223.802 254.707 226.596 C 254.707 229.391 255.564 230.788 257.279 230.788 C 259 230.788 259.86 229.391 259.86 226.596 C 259.86 223.802 259 222.404 257.279 222.404 L 257.279 222.404 Z M 280.958 237.988 C 280.958 238.202 279.576 238.309 276.811 238.309 C 274.046 238.244 272.663 238.122 272.663 237.944 L 272.663 222.814 L 271.435 222.814 C 270.949 222.814 270.56 222.517 270.269 221.924 C 269.979 221.33 269.833 220.595 269.833 219.717 C 269.833 216.435 270.806 214.795 272.752 214.795 C 274.117 214.795 275.256 215.213 276.17 216.05 C 277.084 216.88 277.541 217.83 277.541 218.898 C 278.176 217.652 279.033 216.658 280.113 215.916 C 281.193 215.169 282.293 214.795 283.415 214.795 C 285.177 214.795 286.242 215.249 286.61 216.156 C 286.699 216.4 286.743 216.759 286.743 217.233 C 286.743 217.702 286.598 218.545 286.307 219.761 C 286.023 220.977 285.726 221.858 285.417 222.404 C 285.115 222.95 284.934 223.223 284.874 223.223 C 284.815 223.223 284.533 223.11 284.029 222.885 C 283.531 222.654 283.083 222.538 282.685 222.538 C 281.534 222.538 280.958 223.449 280.958 225.27 L 280.958 237.988 Z M 295.808 232.061 C 296.722 232.061 297.179 231.744 297.179 231.109 C 297.179 230.652 296.39 230.058 294.812 229.329 C 291.014 227.78 289.115 225.243 289.115 221.719 C 289.115 219.47 289.934 217.756 291.572 216.575 C 293.215 215.388 295.182 214.795 297.473 214.795 C 299.769 214.795 301.712 215.038 303.302 215.525 C 304.898 216.011 305.696 216.649 305.696 217.438 C 305.696 218.103 305.37 218.984 304.717 220.081 C 304.065 221.173 303.617 221.764 303.373 221.853 C 302.068 221.129 300.656 220.767 299.137 220.767 C 298.318 220.767 297.909 221.055 297.909 221.63 C 297.909 221.992 298.066 222.303 298.38 222.565 C 298.701 222.82 299.285 223.137 300.134 223.517 C 300.988 223.897 301.694 224.241 302.252 224.549 C 302.816 224.852 303.448 225.276 304.148 225.822 C 305.607 226.973 306.337 228.477 306.337 230.334 C 306.337 232.761 305.53 234.728 303.916 236.235 C 302.308 237.736 299.879 238.487 296.627 238.487 C 294.473 238.487 292.515 238.122 290.753 237.392 C 288.991 236.662 288.11 235.66 288.11 234.384 C 288.11 233.535 288.314 232.642 288.724 231.705 C 289.133 230.762 289.552 230.136 289.979 229.827 C 289.979 229.827 294.384 232.061 295.808 232.061 L 295.808 232.061 Z" fill="none" fill-rule="nonzero" stroke-opacity="0.50196" stroke="#000000" stroke-width="8" stroke-linecap="square"/>
      <path d="M339.48921,217.16965h8.72645c1.33055,0 2.23292,0.87053 2.70711,2.61157c0.18401,0.69359 0.27602,1.36948 0.27602,2.02768c0,0.6582 -0.09201,1.33409 -0.27602,2.02769c-0.47419,1.74104 -1.37656,2.61157 -2.70711,2.61157h-8.72646v8.84324c0,1.33056 -0.86698,2.23292 -2.60094,2.70711c-0.6582,0.18402 -1.36595,0.27602 -2.12323,0.27602l-1.86843,-0.25479c-1.79059,-0.48834 -2.68588,-1.39779 -2.68588,-2.72834v-8.84323h-8.77953c-1.32348,0 -2.22939,-0.87052 -2.71773,-2.61157c-0.18401,-0.69359 -0.27602,-1.36948 -0.27602,-2.02768c0,-0.6582 0.09201,-1.33409 0.27602,-2.02767c0.48834,-1.74104 1.39425,-2.61157 2.71773,-2.61157h8.77954v-8.66276c0,-1.32347 0.86699,-2.22939 2.60096,-2.71773c0.6582,-0.18402 1.36595,-0.27602 2.12323,-0.27602l1.86843,0.25479c1.79059,0.5025 2.68589,1.41549 2.68589,2.73897z" fill="none" fill-rule="nonzero" stroke-opacity="0.50196" stroke="#000000" stroke-width="8" stroke-linecap="square"/>
      <path d="M160.70009,238.07746c-2.70563,0 -4.05845,-0.3026 -4.05845,-0.90781l-0.95231,-18.27194l-5.56257,18.49444c-0.11867,0.36787 -1.15109,0.55181 -3.09725,0.55181c-1.94616,0 -2.94891,-0.1691 -3.00824,-0.5073l-5.74057,-18.72585l-0.64081,18.18294c-0.02967,0.45688 -0.60817,0.76838 -1.73552,0.93451c-1.12141,0.16613 -2.05593,0.24921 -2.80354,0.24921c-0.74167,0 -1.45962,-0.0445 -2.15383,-0.1335c-1.45962,-0.2136 -2.17459,-0.59333 -2.14493,-1.13921l1.05022,-29.61959c0,-0.72981 1.85122,-1.09471 5.55367,-1.09471c1.09768,0 2.43566,0.08307 4.01396,0.2492c1.57829,0.16613 2.4594,0.49248 2.64333,0.97902l5.09977,14.35589l4.46786,-14.40039c0.27293,-0.78914 2.37039,-1.18371 6.29238,-1.18371c1.12141,0 2.46236,0.08307 4.02285,0.2492c1.56642,0.16613 2.34963,0.4628 2.34963,0.89001l1.32612,29.8955c0,0.33228 -0.59334,0.57553 -1.78003,0.72981c-1.18074,0.14833 -2.228,0.2225 -3.14173,0.2225zM171.88608,235.34512c-1.8987,-2.0945 -2.84804,-4.99594 -2.84804,-8.70431c0,-3.70838 0.94934,-6.60982 2.84804,-8.70432c1.89869,-2.0945 4.45895,-3.14173 7.6808,-3.14173c3.22185,0 5.77321,1.04724 7.6541,3.14174c1.88089,2.0945 2.82134,4.99594 2.82134,8.70431c0,3.70838 -0.94044,6.60982 -2.82133,8.70432c-1.88089,2.0945 -4.43226,3.14174 -7.6541,3.14174c-3.22185,0 -5.7821,-1.04724 -7.6808,-3.14173zM179.58468,222.40434c-1.71475,0 -2.57213,1.39732 -2.57213,4.19196c0,2.79464 0.85738,4.19196 2.57214,4.19196c1.7207,0 2.58103,-1.39731 2.58103,-4.19195c0,-2.79464 -0.86034,-4.19195 -2.58103,-4.19195zM202.80115,237.75705c0,0.2136 -1.09174,0.32041 -3.27524,0.32041c-3.03791,-0.089 -4.55686,-0.25514 -4.55686,-0.49841v-14.76529h-1.18371c-0.78914,0 -1.30535,-0.6675 -1.54862,-2.00252c-0.06527,-0.39753 -0.0979,-0.79211 -0.0979,-1.18371c0,-0.94341 0.18394,-1.88682 0.55181,-2.83023c0.54588,-1.33502 1.39435,-2.00253 2.54543,-2.00253c1.15702,0 2.18943,0.27293 3.09724,0.81881c0.91374,0.54588 1.52489,1.09174 1.83343,1.63762c1.91055,-1.63762 4.18602,-2.45643 6.82639,-2.45643c2.6463,0 4.55983,0.71498 5.74058,2.14493c1.18669,1.42402 1.78003,3.76178 1.78003,7.01329v13.67058c0,0.36194 -1.29942,0.54291 -3.89825,0.54291c-2.5929,0 -3.88935,-0.18097 -3.88935,-0.5429v-13.17217c0,-1.51895 -0.53104,-2.27843 -1.59312,-2.27843c-0.30854,0 -0.73574,0.13053 -1.28162,0.39161c-0.54588,0.25514 -0.89594,0.44501 -1.05022,0.56961zM226.72571,237.75705c0,0.24327 -1.39138,0.36491 -4.17415,0.36491c-2.77684,0 -4.16525,-0.1068 -4.16525,-0.3204v-22.3749c0,-0.20768 1.38841,-0.3115 4.16525,-0.3115c2.78277,0 4.17416,0.089 4.17416,0.26701zM226.72571,212.69433c0,0.2136 -1.39138,0.32041 -4.17415,0.32041c-2.77684,0 -4.16525,-0.09197 -4.16525,-0.2759v-6.55938c0,-0.3026 1.38841,-0.45391 4.16525,-0.45391c2.78277,0 4.17416,0.09197 4.17416,0.2759zM241.31085,237.75705c0,0.36787 -1.27568,0.55181 -3.82705,0.55181c-3.03791,-0.1246 -4.55686,-0.32337 -4.55686,-0.5963v-16.12701h-2.32293c-0.61114,0 -0.91671,-1.05022 -0.91671,-3.15064c0,-0.54588 0.0534,-1.21338 0.1602,-2.00252c0.1068,-0.78914 0.32931,-1.18371 0.66752,-1.18371h2.41193v-4.01395c0,-0.60521 1.28162,-0.90781 3.84485,-0.90781c2.56916,0 3.85375,0.24327 3.85375,0.72981v2.91924l0.0445,1.27272h3.88045c0.51621,0 0.77432,1.06504 0.77432,3.19514c0,2.12416 -0.25811,3.18624 -0.77431,3.18624h-3.23964zM249.58046,235.34512c-1.89869,-2.0945 -2.84804,-4.99594 -2.84804,-8.70431c0,-3.70838 0.94935,-6.60982 2.84804,-8.70432c1.89869,-2.0945 4.45896,-3.14173 7.68081,-3.14173c3.22185,0 5.7732,1.04724 7.6541,3.14174c1.88089,2.0945 2.82134,4.99594 2.82134,8.70431c0,3.70838 -0.94044,6.60982 -2.82133,8.70432c-1.88089,2.0945 -4.43225,3.14174 -7.6541,3.14174c-3.22185,0 -5.78211,-1.04724 -7.6808,-3.14173zM257.27907,222.40434c-1.71476,0 -2.57213,1.39732 -2.57213,4.19196c0,2.79464 0.85737,4.19196 2.57213,4.19196c1.72069,0 2.58103,-1.39731 2.58103,-4.19195c0,-2.79464 -0.86034,-4.19195 -2.58103,-4.19195zM280.95833,237.98846c0,0.2136 -1.38248,0.3204 -4.14745,0.3204c-2.76497,-0.06527 -4.14745,-0.1869 -4.14745,-0.3649v-15.1302h-1.22822c-0.48654,0 -0.87518,-0.29667 -1.16591,-0.89001c-0.29074,-0.59334 -0.4361,-1.32908 -0.4361,-2.20723c0,-3.28118 0.97307,-4.92177 2.91924,-4.92177c1.36468,0 2.5039,0.41831 3.41765,1.25492c0.91375,0.83068 1.37062,1.78003 1.37062,2.84804c0.63487,-1.24601 1.49225,-2.23987 2.57213,-2.98154c1.07988,-0.74761 2.18054,-1.12141 3.30195,-1.12141c1.76222,0 2.82727,0.45391 3.19514,1.36172c0.089,0.24327 0.13351,0.60225 0.13351,1.07692c0,0.46873 -0.14537,1.31129 -0.4361,2.52763c-0.2848,1.21635 -0.58148,2.09745 -0.89001,2.64333c-0.3026,0.54588 -0.48357,0.81881 -0.5429,0.81881c-0.05934,0 -0.34117,-0.11273 -0.84551,-0.3382c-0.49841,-0.2314 -0.94638,-0.3471 -1.34392,-0.3471c-1.15108,0 -1.72662,0.91078 -1.72662,2.73234zM289.97878,229.82705c2.46237,1.48929 4.40557,2.23394 5.82958,2.23394c0.91375,0 1.37062,-0.31744 1.37062,-0.95231c0,-0.45688 -0.78915,-1.05022 -2.36743,-1.78003c-3.79739,-1.54862 -5.69608,-4.08515 -5.69608,-7.6096c0,-2.24876 0.81881,-3.96353 2.45643,-5.14427c1.64356,-1.18669 3.61048,-1.78003 5.90078,-1.78003c2.29623,0 4.23942,0.24327 5.82958,0.72981c1.59609,0.48654 2.39413,1.12439 2.39413,1.91353c0,0.66454 -0.32633,1.54566 -0.97901,2.64334c-0.65268,1.09175 -1.10065,1.68212 -1.34392,1.77113c-1.30535,-0.72388 -2.7175,-1.08582 -4.23645,-1.08582c-0.81881,0 -1.22822,0.28777 -1.22822,0.86332c0,0.36194 0.15723,0.67344 0.47171,0.93451c0.32041,0.25514 0.90484,0.57258 1.75332,0.95232c0.85441,0.37974 1.56049,0.72387 2.11823,1.03241c0.56367,0.3026 1.19559,0.72684 1.89573,1.27272c1.45962,1.15108 2.18943,2.6552 2.18943,4.51236c0,2.42676 -0.80695,4.39369 -2.42084,5.90078c-1.60796,1.50115 -4.03768,2.25174 -7.28919,2.25174c-2.15383,0 -4.11186,-0.36491 -5.87408,-1.09472c-1.76222,-0.72981 -2.64333,-1.73255 -2.64333,-3.00824c0,-0.84848 0.20471,-1.74146 0.61411,-2.67894c0.4094,-0.94341 0.82771,-1.56939 1.25491,-1.87792z" fill="#ffffff" fill-rule="nonzero" stroke="none" stroke-width="1" stroke-linecap="square"/>
      <path d="M339.4892,208.5069v8.66276h8.72646c1.33055,0 2.23292,0.87052 2.70711,2.61157c0.18401,0.69359 0.27602,1.36948 0.27602,2.02768c0,0.6582 -0.09201,1.33409 -0.27602,2.02769c-0.47419,1.74104 -1.37656,2.61157 -2.70711,2.61157h-8.72646v8.84324c0,1.33056 -0.86698,2.23292 -2.60094,2.70711c-0.6582,0.18402 -1.36595,0.27602 -2.12323,0.27602l-1.86843,-0.25479c-1.79059,-0.48834 -2.68588,-1.39779 -2.68588,-2.72834v-8.84323h-8.77953c-1.32348,0 -2.22939,-0.87052 -2.71773,-2.61157c-0.18401,-0.69359 -0.27602,-1.36948 -0.27602,-2.02768c0,-0.6582 0.09201,-1.33409 0.27602,-2.02767c0.48834,-1.74104 1.39425,-2.61157 2.71773,-2.61157h8.77954v-8.66276c0,-1.32347 0.86699,-2.22939 2.60096,-2.71773c0.6582,-0.18402 1.36595,-0.27602 2.12323,-0.27602l1.86843,0.25479c1.79059,0.5025 2.68589,1.41549 2.68589,2.73896z" fill="#ffffff" fill-rule="nonzero" stroke="none" stroke-width="1" stroke-linecap="square"/>
      <g fill-rule="evenodd">
        <path d="M247.09803,140.30262v0c-0.15734,-1.82761 1.19667,-3.43673 3.02428,-3.59408l118.14078,-10.17126c0.87765,-0.07556 1.74937,0.20061 2.42339,0.76778c0.67402,0.56717 1.09512,1.37885 1.17068,2.2565l1.04483,12.13584c0.15735,1.82761 -1.19668,3.43674 -3.02428,3.59409l-118.14078,10.17126c-1.82761,0.15734 -3.43673,-1.19667 -3.59408,-3.02428z" fill-opacity="0.12941" fill="#000000" stroke-opacity="0.12941" stroke="#000000" stroke-width="7.5" stroke-linecap="square"/>
        <path d="M247.11198,140.30143v0c-0.15734,-1.82761 1.19666,-3.43673 3.02427,-3.59408l118.1129,-10.16886c0.87765,-0.07556 1.74936,0.20061 2.42338,0.76778c0.67402,0.56717 1.09514,1.37885 1.1707,2.2565l1.04483,12.13584c0.15735,1.82761 -1.19667,3.43673 -3.02427,3.59408l-118.11291,10.16886c-1.82761,0.15734 -3.43674,-1.19666 -3.59409,-3.02428z" fill="#e6f0ff" stroke="#cad1dd" stroke-width="2.5" stroke-linecap="square"/>
        <path d="M259.363,142.77217c0.43617,-0.03755 0.80394,0.01708 1.10332,0.16389c0.29926,0.14556 0.53101,0.37188 0.69522,0.67896c0.19433,-0.33795 0.43573,-0.60501 0.72418,-0.80116c0.28836,-0.19741 0.6118,-0.31155 0.97035,-0.34242c0.70971,-0.0611 1.25966,0.07673 1.64986,0.41349c0.3902,0.33676 0.61324,0.82962 0.66912,1.4786l0.34783,4.04017l-1.61347,0.13891l-0.29648,-3.44371c-0.04683,-0.54394 -0.15723,-0.90353 -0.3312,-1.07877c-0.17284,-0.17659 -0.43115,-0.25009 -0.77492,-0.2205c-0.36224,0.03118 -0.62266,0.17832 -0.78123,0.44139c-0.15735,0.26297 -0.21551,0.63266 -0.17449,1.10908l0.29019,3.37056l-1.61347,0.13891l-0.31586,-3.6688c-0.03391,-0.39389 -0.13293,-0.67888 -0.29703,-0.85496c-0.16422,-0.17733 -0.4219,-0.25089 -0.77306,-0.22065c-0.3068,0.02641 -0.55523,0.16874 -0.74525,0.42695c-0.19002,0.25822 -0.26743,0.59179 -0.23223,1.00068l0.30085,3.49435l-1.61347,0.13891l-0.51304,-5.95897l1.51921,-0.1308l0.06976,0.81029l0.02218,-0.00191c0.20108,-0.3461 0.44511,-0.61149 0.73207,-0.79619c0.28809,-0.18605 0.6151,-0.29482 0.98104,-0.32632z" fill="#575e75" stroke="none" stroke-width="1" stroke-linecap="square"/>
        <path d="M267.32193,142.24566l1.68192,3.96499l0.02219,-0.00191l0.92957,-4.18982l1.66891,-0.14369l-1.9079,7.03472c-0.11362,0.41037 -0.31463,0.73566 -0.60301,0.9759c-0.28839,0.24024 -0.67655,0.38136 -1.16447,0.42337c-0.23287,0.02005 -0.4305,0.0314 -0.59287,0.03404c-0.16114,0.00254 -0.32755,0.00175 -0.4992,-0.00237l-0.11578,-1.34484c0.19785,0.00564 0.35993,0.0068 0.48625,0.00348c0.12633,-0.00332 0.24677,-0.0099 0.36136,-0.01976c0.22917,-0.01973 0.40046,-0.10628 0.51387,-0.25965c0.11341,-0.15337 0.16091,-0.33697 0.1425,-0.5508c-0.00484,-0.05626 -0.01327,-0.11097 -0.02529,-0.1641c-0.01213,-0.05438 -0.03839,-0.1214 -0.07876,-0.20106l-2.54919,-5.40954z" fill="#575e75" stroke="none" stroke-width="1" stroke-linecap="square"/>
        <path d="M276.4594,141.45898l1.59224,3.96138l0.02218,-0.00191l0.88618,-4.17475l1.60238,-0.13796l-1.47746,6.13034l-1.7909,0.15418l-2.52571,-5.78569z" fill="#575e75" stroke="none" stroke-width="1" stroke-linecap="square"/>
        <path d="M285.14924,143.77761c-0.08932,0.08705 -0.21112,0.15737 -0.36539,0.21096c-0.15314,0.05224 -0.43228,0.12602 -0.83741,0.22137c-0.36174,0.08027 -0.62262,0.20035 -0.78263,0.36026c-0.15888,0.15856 -0.22719,0.36725 -0.2049,0.62608c0.02035,0.23634 0.1158,0.41518 0.28637,0.53654c0.17057,0.12136 0.42774,0.16725 0.77151,0.13765c0.42879,-0.03691 0.74298,-0.17923 0.94259,-0.42694c0.20085,-0.24782 0.28237,-0.59118 0.24458,-1.03008l-0.05474,-0.63585zM283.91438,140.65844c0.86865,-0.07478 1.52672,0.01405 1.97422,0.26651c0.44872,0.25236 0.69568,0.64114 0.7409,1.16632l0.27517,3.19612c0.02067,0.24008 0.05674,0.47885 0.10821,0.71628c0.05271,0.23732 0.12136,0.41471 0.20595,0.53213l-1.63565,0.14082c-0.03732,-0.08748 -0.07055,-0.17785 -0.09968,-0.27108c-0.028,-0.09457 -0.04991,-0.19032 -0.06569,-0.28723c-0.20513,0.25574 -0.46983,0.4612 -0.7941,0.61634c-0.32313,0.15378 -0.69541,0.24882 -1.1168,0.2851c-0.6062,0.05219 -1.10372,-0.06055 -1.49256,-0.33822c-0.38894,-0.27892 -0.60813,-0.70537 -0.65754,-1.27931c-0.0478,-0.55519 0.08569,-0.99437 0.40046,-1.31749c0.31466,-0.32438 0.91674,-0.57587 1.80624,-0.75449c0.61952,-0.11381 1.02499,-0.22681 1.21641,-0.33903c0.19131,-0.11346 0.27681,-0.28836 0.25646,-0.5247c-0.02293,-0.26635 -0.11711,-0.45916 -0.28254,-0.57845c-0.16431,-0.12064 -0.43867,-0.16441 -0.82309,-0.13132c-0.33267,0.02864 -0.58147,0.12312 -0.74641,0.28345c-0.16505,0.15909 -0.24895,0.39556 -0.25172,0.70947l-1.61347,0.13891c-0.01184,-0.65655 0.21044,-1.17453 0.66683,-1.55394c0.45763,-0.37952 1.10044,-0.60493 1.92843,-0.67621z" fill="#575e75" stroke="none" stroke-width="1" stroke-linecap="square"/>
        <path d="M285.14924,143.77761c-0.08932,0.08705 -0.21112,0.15737 -0.36539,0.21096c-0.15314,0.05224 -0.43228,0.12602 -0.83741,0.22137c-0.36174,0.08027 -0.62262,0.20035 -0.78263,0.36026c-0.15888,0.15856 -0.22719,0.36725 -0.2049,0.62608c0.02035,0.23634 0.1158,0.41518 0.28637,0.53654c0.17057,0.12136 0.42774,0.16725 0.77151,0.13765c0.42879,-0.03691 0.74298,-0.17923 0.94259,-0.42694c0.20085,-0.24782 0.28237,-0.59118 0.24458,-1.03008l-0.05474,-0.63585zM283.91438,140.65844c0.86865,-0.07478 1.52672,0.01405 1.97422,0.26651c0.44872,0.25236 0.69568,0.64114 0.7409,1.16632l0.27517,3.19612c0.02067,0.24008 0.05674,0.47885 0.10821,0.71628c0.05271,0.23732 0.12136,0.41471 0.20595,0.53213l-1.63565,0.14082c-0.03732,-0.08748 -0.07055,-0.17785 -0.09968,-0.27108c-0.028,-0.09457 -0.04991,-0.19032 -0.06569,-0.28723c-0.20513,0.25574 -0.46983,0.4612 -0.7941,0.61634c-0.32313,0.15378 -0.69541,0.24882 -1.1168,0.2851c-0.6062,0.05219 -1.10372,-0.06055 -1.49256,-0.33822c-0.38894,-0.27892 -0.60813,-0.70537 -0.65754,-1.27931c-0.0478,-0.55519 0.08569,-0.99437 0.40046,-1.31749c0.31466,-0.32438 0.91674,-0.57587 1.80624,-0.75449c0.61952,-0.11381 1.02499,-0.22681 1.21641,-0.33903c0.19131,-0.11346 0.27681,-0.28836 0.25646,-0.5247c-0.02293,-0.26635 -0.11711,-0.45916 -0.28254,-0.57845c-0.16431,-0.12064 -0.43867,-0.16441 -0.82309,-0.13132c-0.33267,0.02864 -0.58147,0.12312 -0.74641,0.28345c-0.16505,0.15909 -0.24895,0.39556 -0.25172,0.70947l-1.61347,0.13891c-0.01184,-0.65655 0.21044,-1.17453 0.66683,-1.55394c0.45763,-0.37952 1.10044,-0.60493 1.92843,-0.67621z" fill="#575e75" stroke="none" stroke-width="1" stroke-linecap="square"/>
        <path d="M291.16114,140.03452c0.07023,-0.00605 0.13536,-0.00661 0.19536,-0.00171c0.05989,0.00366 0.11652,0.01264 0.16989,0.02695l0.13081,1.51929c-0.09403,-0.0108 -0.18515,-0.01682 -0.27339,-0.01805c-0.08711,-0.00258 -0.18982,0.00123 -0.3081,0.01141c-0.54336,0.04678 -0.93112,0.25023 -1.16327,0.61033c-0.23091,0.36 -0.32198,0.82322 -0.27321,1.38967l0.23544,2.73472l-1.60792,0.13843l-0.51304,-5.95897l1.53031,-0.13175l0.09544,1.10852l0.02218,-0.00191c0.13644,-0.40478 0.36372,-0.73486 0.68184,-0.99026c0.31924,-0.25675 0.67846,-0.40231 1.07767,-0.43668z" fill="#575e75" stroke="none" stroke-width="1" stroke-linecap="square"/>
        <path d="M293.63533,137.69574l0.11578,1.34484l-1.61347,0.13891l-0.11578,-1.34484zM293.83056,139.96343l0.51303,5.95897l-1.61347,0.13891l-0.51304,-5.95897z" fill="#575e75" stroke="none" stroke-width="1" stroke-linecap="square"/>
        <path d="M293.63533,137.69574l0.11578,1.34484l-1.61347,0.13891l-0.11578,-1.34484zM293.83056,139.96343l0.51303,5.95897l-1.61347,0.13891l-0.51304,-5.95897z" fill="#575e75" stroke="none" stroke-width="1" stroke-linecap="square"/>
        <path d="M299.01622,142.58373c-0.08932,0.08705 -0.21112,0.15737 -0.36539,0.21096c-0.15314,0.05224 -0.43228,0.12602 -0.83741,0.22137c-0.36174,0.08027 -0.62262,0.20035 -0.78263,0.36026c-0.15888,0.15856 -0.22719,0.36725 -0.2049,0.62608c0.02035,0.23634 0.1158,0.41518 0.28637,0.53654c0.17057,0.12136 0.42774,0.16725 0.7715,0.13765c0.42878,-0.03691 0.74297,-0.17923 0.94259,-0.42694c0.20085,-0.24782 0.28238,-0.59118 0.2446,-1.03008l-0.05474,-0.63585zM297.78136,139.46454c0.86865,-0.07478 1.52671,0.01406 1.9742,0.26652c0.44873,0.25236 0.6957,0.64114 0.74091,1.16632l0.27517,3.19612c0.02067,0.24008 0.05674,0.47885 0.10821,0.71628c0.05271,0.23732 0.12134,0.4147 0.20593,0.53213l-1.63565,0.14082c-0.03732,-0.08748 -0.07054,-0.17785 -0.09967,-0.27108c-0.028,-0.09457 -0.04991,-0.19032 -0.06569,-0.28723c-0.20513,0.25574 -0.46983,0.4612 -0.7941,0.61634c-0.32314,0.15378 -0.69541,0.24883 -1.11679,0.28511c-0.6062,0.05219 -1.10373,-0.06055 -1.49257,-0.33822c-0.38894,-0.27892 -0.60811,-0.70537 -0.65753,-1.27931c-0.0478,-0.55519 0.08568,-0.99436 0.40045,-1.31749c0.31466,-0.32438 0.91674,-0.57587 1.80625,-0.7545c0.61952,-0.11381 1.02499,-0.22681 1.21642,-0.33903c0.19131,-0.11346 0.27679,-0.28836 0.25644,-0.5247c-0.02293,-0.26635 -0.11711,-0.45916 -0.28254,-0.57845c-0.1643,-0.12064 -0.43866,-0.16441 -0.82309,-0.13132c-0.33267,0.02864 -0.58148,0.12312 -0.74642,0.28345c-0.16505,0.15909 -0.24895,0.39556 -0.25172,0.70947l-1.61347,0.13891c-0.01184,-0.65655 0.21044,-1.17453 0.66683,-1.55394c0.45763,-0.37951 1.10044,-0.60492 1.92843,-0.67621z" fill="#575e75" stroke="none" stroke-width="1" stroke-linecap="square"/>
        <path d="M299.01622,142.58373c-0.08932,0.08705 -0.21112,0.15737 -0.36539,0.21096c-0.15314,0.05224 -0.43228,0.12602 -0.83741,0.22137c-0.36174,0.08027 -0.62262,0.20035 -0.78263,0.36026c-0.15888,0.15856 -0.22719,0.36725 -0.2049,0.62608c0.02035,0.23634 0.1158,0.41518 0.28637,0.53654c0.17057,0.12136 0.42774,0.16725 0.7715,0.13765c0.42878,-0.03691 0.74297,-0.17923 0.94259,-0.42694c0.20085,-0.24782 0.28238,-0.59118 0.2446,-1.03008l-0.05474,-0.63585zM297.78136,139.46454c0.86865,-0.07478 1.52671,0.01406 1.9742,0.26652c0.44873,0.25236 0.6957,0.64114 0.74091,1.16632l0.27517,3.19612c0.02067,0.24008 0.05674,0.47885 0.10821,0.71628c0.05271,0.23732 0.12134,0.4147 0.20593,0.53213l-1.63565,0.14082c-0.03732,-0.08748 -0.07054,-0.17785 -0.09967,-0.27108c-0.028,-0.09457 -0.04991,-0.19032 -0.06569,-0.28723c-0.20513,0.25574 -0.46983,0.4612 -0.7941,0.61634c-0.32314,0.15378 -0.69541,0.24883 -1.11679,0.28511c-0.6062,0.05219 -1.10373,-0.06055 -1.49257,-0.33822c-0.38894,-0.27892 -0.60811,-0.70537 -0.65753,-1.27931c-0.0478,-0.55519 0.08568,-0.99436 0.40045,-1.31749c0.31466,-0.32438 0.91674,-0.57587 1.80625,-0.7545c0.61952,-0.11381 1.02499,-0.22681 1.21642,-0.33903c0.19131,-0.11346 0.27679,-0.28836 0.25644,-0.5247c-0.02293,-0.26635 -0.11711,-0.45916 -0.28254,-0.57845c-0.1643,-0.12064 -0.43866,-0.16441 -0.82309,-0.13132c-0.33267,0.02864 -0.58148,0.12312 -0.74642,0.28345c-0.16505,0.15909 -0.24895,0.39556 -0.25172,0.70947l-1.61347,0.13891c-0.01184,-0.65655 0.21044,-1.17453 0.66683,-1.55394c0.45763,-0.37951 1.10044,-0.60492 1.92843,-0.67621z" fill="#575e75" stroke="none" stroke-width="1" stroke-linecap="square"/>
        <path d="M304.62967,140.1164c-0.4103,0.03533 -0.72572,0.2357 -0.94623,0.6011c-0.2194,0.36405 -0.30374,0.84055 -0.25303,1.4295c0.04909,0.5702 0.21249,1.01908 0.49018,1.34663c0.27769,0.32754 0.62723,0.47319 1.04862,0.4369c0.42138,-0.03628 0.74089,-0.23951 0.95852,-0.6097c0.21762,-0.37019 0.30189,-0.8404 0.2528,-1.4106c-0.04942,-0.57395 -0.21057,-1.02554 -0.48343,-1.35477c-0.27175,-0.33059 -0.62756,-0.47694 -1.06743,-0.43907zM303.03338,136.88664l0.25772,2.99355l0.02772,-0.00239c0.15049,-0.28505 0.38151,-0.52097 0.69312,-0.70779c0.3115,-0.18806 0.67055,-0.2996 1.07716,-0.33461c0.68752,-0.05919 1.28909,0.17371 1.80474,0.6987c0.51676,0.52364 0.81649,1.26563 0.89917,2.22596c0.08204,0.95284 -0.08641,1.73576 -0.50531,2.34877c-0.41778,0.61166 -0.97227,0.94725 -1.6635,1.00675c-0.47314,0.04074 -0.87918,-0.00429 -1.21814,-0.1351c-0.33906,-0.13206 -0.60082,-0.33942 -0.78528,-0.62208l-0.02218,0.00191l0.0654,0.75964l-1.53031,0.13175l-0.70827,-8.22665z" fill="#575e75" stroke="none" stroke-width="1" stroke-linecap="square"/>
        <path d="M304.62967,140.1164c-0.4103,0.03533 -0.72572,0.2357 -0.94623,0.6011c-0.2194,0.36405 -0.30374,0.84055 -0.25303,1.4295c0.04909,0.5702 0.21249,1.01908 0.49018,1.34663c0.27769,0.32754 0.62723,0.47319 1.04862,0.4369c0.42138,-0.03628 0.74089,-0.23951 0.95852,-0.6097c0.21762,-0.37019 0.30189,-0.8404 0.2528,-1.4106c-0.04942,-0.57395 -0.21057,-1.02554 -0.48343,-1.35477c-0.27175,-0.33059 -0.62756,-0.47694 -1.06743,-0.43907zM303.03338,136.88664l0.25772,2.99355l0.02772,-0.00239c0.15049,-0.28505 0.38151,-0.52097 0.69312,-0.70779c0.3115,-0.18806 0.67055,-0.2996 1.07716,-0.33461c0.68752,-0.05919 1.28909,0.17371 1.80474,0.6987c0.51676,0.52364 0.81649,1.26563 0.89917,2.22596c0.08204,0.95284 -0.08641,1.73576 -0.50531,2.34877c-0.41778,0.61166 -0.97227,0.94725 -1.6635,1.00675c-0.47314,0.04074 -0.87918,-0.00429 -1.21814,-0.1351c-0.33906,-0.13206 -0.60082,-0.33942 -0.78528,-0.62208l-0.02218,0.00191l0.0654,0.75964l-1.53031,0.13175l-0.70827,-8.22665z" fill="#575e75" stroke="none" stroke-width="1" stroke-linecap="square"/>
        <path d="M310.01955,136.28517l0.70827,8.22665l-1.61347,0.13891l-0.70827,-8.22664z" fill="#575e75" stroke="none" stroke-width="1" stroke-linecap="square"/>
        <path d="M314.23289,139.28963c-0.39182,0.03374 -0.69264,0.173 -0.90244,0.41781c-0.2098,0.24481 -0.31621,0.56575 -0.31927,0.96282l2.62258,-0.22579c-0.11541,-0.43222 -0.28287,-0.74092 -0.50237,-0.9261c-0.21828,-0.18528 -0.51779,-0.26154 -0.89851,-0.22876zM314.18223,138.05255c0.86865,-0.07478 1.58845,0.16872 2.15938,0.73053c0.57207,0.56044 0.89862,1.31147 0.97969,2.25305l0.01508,0.30481l-4.23606,0.3647c0.06642,0.51202 0.23104,0.88143 0.49385,1.10823c0.26405,0.22669 0.62155,0.32062 1.07251,0.28179c0.29201,-0.02514 0.55534,-0.12402 0.78997,-0.29665c0.23452,-0.17388 0.37586,-0.37059 0.42397,-0.59014l1.41942,-0.12221c-0.15996,0.69401 -0.45294,1.22689 -0.87896,1.59866c-0.42613,0.37051 -0.99219,0.58616 -1.69821,0.64694c-0.90562,0.07797 -1.65698,-0.15023 -2.2541,-0.68458c-0.59713,-0.53436 -0.93558,-1.26483 -1.01535,-2.19141c-0.07655,-0.88906 0.13888,-1.65966 0.64627,-2.31178c0.50862,-0.65222 1.2028,-1.01621 2.08254,-1.09195z" fill="#575e75" stroke="none" stroke-width="1" stroke-linecap="square"/>
        <path d="M314.23289,139.28963c-0.39182,0.03374 -0.69264,0.173 -0.90244,0.41781c-0.2098,0.24481 -0.31621,0.56575 -0.31927,0.96282l2.62258,-0.22579c-0.11541,-0.43222 -0.28287,-0.74092 -0.50237,-0.9261c-0.21828,-0.18528 -0.51779,-0.26154 -0.89851,-0.22876zM314.18223,138.05255c0.86865,-0.07478 1.58845,0.16872 2.15938,0.73053c0.57207,0.56044 0.89862,1.31147 0.97969,2.25305l0.01508,0.30481l-4.23606,0.3647c0.06642,0.51202 0.23104,0.88143 0.49385,1.10823c0.26405,0.22669 0.62155,0.32062 1.07251,0.28179c0.29201,-0.02514 0.55534,-0.12402 0.78997,-0.29665c0.23452,-0.17388 0.37586,-0.37059 0.42397,-0.59014l1.41942,-0.12221c-0.15996,0.69401 -0.45294,1.22689 -0.87896,1.59866c-0.42613,0.37051 -0.99219,0.58616 -1.69821,0.64694c-0.90562,0.07797 -1.65698,-0.15023 -2.2541,-0.68458c-0.59713,-0.53436 -0.93558,-1.26483 -1.01535,-2.19141c-0.07655,-0.88906 0.13888,-1.65966 0.64627,-2.31178c0.50862,-0.65222 1.2028,-1.01621 2.08254,-1.09195z" fill="#575e75" stroke="none" stroke-width="1" stroke-linecap="square"/>
        <path d="M326.93221,136.56219v0c-0.16784,-1.94953 1.27649,-3.66599 3.22602,-3.83383l30.33583,-2.61175c0.93619,-0.0806 1.86607,0.214 2.58505,0.819c0.71898,0.60499 1.16818,1.47083 1.24878,2.40702l0.45364,5.26917c0.16784,1.94952 -1.27649,3.66598 -3.22601,3.83383l-30.33584,2.61174c-1.94953,0.16784 -3.66599,-1.27649 -3.83384,-3.22601z" fill="#ff9400" stroke="none" stroke-width="1" stroke-linecap="square"/>
        <path d="M341.95199,133.74885c0.3134,0.1067 0.48126,0.447 0.37518,0.76061c-0.36973,1.09606 -0.50839,2.25683 -0.40722,3.40914c0.10262,1.19198 0.44889,2.30273 0.98451,3.28932c0.14599,0.28964 0.03551,0.64286 -0.24951,0.79768c-0.28501,0.15482 -0.64148,0.05524 -0.80498,-0.22489c-0.6309,-1.16185 -1.01435,-2.44178 -1.12619,-3.75913c-0.11709,-1.36004 0.05547,-2.67994 0.4671,-3.8963c0.05099,-0.15087 0.15983,-0.27528 0.30258,-0.34588c0.14274,-0.0706 0.30768,-0.08159 0.45853,-0.03054zM347.12427,135.66298c-0.54494,0.04704 -1.03896,0.33919 -1.34273,0.79404l-0.17505,0.26209l-0.08076,-0.16115c-0.22069,-0.43825 -0.68587,-0.6981 -1.17476,-0.65622l-0.19318,0.01663c-0.33031,0.02844 -0.57502,0.31927 -0.54658,0.64958c0.02844,0.33032 0.31926,0.57502 0.64957,0.54658l0.19318,-0.01663l0.38666,0.76806l-0.55234,0.8278c-0.10134,0.1516 -0.2661,0.24892 -0.44779,0.2645l-0.02332,0.00201c-0.33031,0.02844 -0.57503,0.31926 -0.54659,0.64957c0.02844,0.33032 0.31927,0.57503 0.64958,0.54659l0.02331,-0.00201c0.54494,-0.04704 1.03897,-0.33918 1.34274,-0.79403l0.17505,-0.2621l0.08076,0.16115c0.22079,0.43845 0.68626,0.69831 1.17536,0.65617l0.19318,-0.01663c0.33031,-0.02844 0.57502,-0.31925 0.54658,-0.64957c-0.02844,-0.33032 -0.31925,-0.57503 -0.64956,-0.54659l-0.19318,0.01663l-0.38666,-0.76806l0.55233,-0.8278c0.10134,-0.1516 0.26609,-0.24892 0.44778,-0.2645l0.02333,-0.00201c0.33031,-0.02844 0.57503,-0.31925 0.54659,-0.64957c-0.02844,-0.33032 -0.31926,-0.57503 -0.64957,-0.54659l-0.02333,0.00201zM348.1112,134.01146c-0.15607,-0.2911 -0.04765,-0.65359 0.24262,-0.81119c0.29028,-0.1576 0.65333,-0.0511 0.81246,0.23835c0.6311,1.16179 1.01476,2.4417 1.12678,3.75908c0.11709,1.36004 -0.05546,2.67994 -0.46709,3.8963c-0.06365,0.2094 -0.23624,0.36757 -0.45038,0.41277c-0.21414,0.0452 -0.43592,-0.02974 -0.57876,-0.19556c-0.14285,-0.16583 -0.18413,-0.39623 -0.10773,-0.60133c0.36996,-1.09602 0.50882,-2.25683 0.40781,-3.4092c-0.10262,-1.19198 -0.4489,-2.30273 -0.98512,-3.28927z" fill="#ffffff" stroke="#ffffff" stroke-width="0.5" stroke-linecap="butt"/>
      </g>
      <g>
        <path d="M114.67751,122.68272v0c0.11062,-1.83103 1.68465,-3.2257 3.51569,-3.11507l114.85488,6.93905c0.8793,0.05312 1.70147,0.45337 2.28566,1.11268c0.58419,0.65932 0.88253,1.52369 0.82941,2.40299l-2.0613,34.11853c-0.11062,1.83103 -1.68466,3.22571 -3.51568,3.11508l-114.85487,-6.93905c-1.83103,-0.11062 -3.2257,-1.68465 -3.11507,-3.51569z" fill-opacity="0.12941" fill="#000000" fill-rule="evenodd" stroke-opacity="0.12941" stroke="#000000" stroke-width="7.5" stroke-linecap="square"/>
        <path d="M114.69148,122.68356v0c0.11062,-1.83103 1.68465,-3.2257 3.51568,-3.11507l114.82696,6.93737c0.8793,0.05312 1.70146,0.45336 2.28565,1.11268c0.58419,0.65932 0.88255,1.5237 0.82943,2.40299l-2.0613,34.11853c-0.11062,1.83103 -1.68465,3.2257 -3.51567,3.11507l-114.82695,-6.93736c-1.83103,-0.11062 -3.22571,-1.68464 -3.11509,-3.51568z" fill="#e6f0ff" fill-rule="evenodd" stroke="#cad1dd" stroke-width="2.5" stroke-linecap="square"/>
        <path d="M126.45177,126.91297c0.43699,0.0264 0.79288,0.13404 1.06766,0.32291c0.27486,0.18761 0.47116,0.44527 0.58888,0.77301c0.24149,-0.30603 0.51923,-0.53506 0.83318,-0.68709c0.31404,-0.15328 0.65067,-0.21909 1.00989,-0.19739c0.71104,0.04296 1.23504,0.25945 1.572,0.64947c0.33697,0.39002 0.48581,0.91013 0.44653,1.56031l-0.24454,4.04774l-1.61649,-0.09766l0.20844,-3.45016c0.03293,-0.54495 -0.02389,-0.9168 -0.17047,-1.11552c-0.14527,-0.19988 -0.39012,-0.31025 -0.73453,-0.33106c-0.36293,-0.02193 -0.64199,0.08569 -0.8372,0.32285c-0.19399,0.23723 -0.30539,0.5945 -0.33423,1.07181l-0.20402,3.37688l-1.61649,-0.09766l0.22207,-3.67567c0.02384,-0.39462 -0.03258,-0.69099 -0.16929,-0.88912c-0.13662,-0.19936 -0.38084,-0.30969 -0.73265,-0.33094c-0.30737,-0.01857 -0.57388,0.08604 -0.7995,0.31382c-0.22562,0.22778 -0.35081,0.5465 -0.37556,0.95616l-0.21151,3.5009l-1.61649,-0.09766l0.36069,-5.97014l1.52205,0.09195l-0.04904,0.81181l0.02223,0.00135c0.24936,-0.3131 0.52944,-0.54011 0.84026,-0.68103c0.31212,-0.14208 0.6515,-0.20205 1.01812,-0.1799z" fill="#575e75" fill-rule="evenodd" stroke="none" stroke-width="1" stroke-linecap="square"/>
        <path d="M134.40248,127.55174l1.08625,4.16774l0.02223,0.00134l1.53013,-4.00967l1.67203,0.10102l-2.91253,6.68165c-0.1722,0.38942 -0.41847,0.68196 -0.73878,0.87762c-0.32031,0.19566 -0.72489,0.27872 -1.21373,0.24918c-0.23331,-0.01409 -0.43047,-0.03167 -0.59149,-0.05271c-0.1598,-0.02096 -0.32431,-0.04599 -0.49352,-0.07507l0.0814,-1.34736c0.19491,0.0344 0.3551,0.05918 0.48056,0.07429c0.12546,0.01512 0.24558,0.02616 0.36038,0.0331c0.22961,0.01387 0.41168,-0.0468 0.54621,-0.18201c0.13455,-0.13521 0.20828,-0.30992 0.22123,-0.52415c0.0034,-0.05638 0.00303,-0.11172 -0.00112,-0.16603c-0.00408,-0.05557 -0.02029,-0.1257 -0.04862,-0.21039l-1.73379,-5.72324z" fill="#575e75" fill-rule="evenodd" stroke="none" stroke-width="1" stroke-linecap="square"/>
        <path d="M143.55706,128.10481l0.99806,4.15109l0.02223,0.00135l1.485,-4.00108l1.60539,0.09699l-2.35492,5.84964l-1.79426,-0.1084l-1.65576,-6.09195z" fill="#575e75" fill-rule="evenodd" stroke="none" stroke-width="1" stroke-linecap="square"/>
        <path d="M151.81633,131.66485c-0.10106,0.07311 -0.2318,0.12493 -0.39223,0.15547c-0.15912,0.02937 -0.44603,0.0617 -0.86073,0.097c-0.36959,0.02671 -0.64517,0.1075 -0.82677,0.24238c-0.18029,0.13371 -0.27828,0.33024 -0.29394,0.58955c-0.01431,0.23678 0.05408,0.42761 0.20514,0.57254c0.15107,0.14493 0.3988,0.22779 0.74322,0.2486c0.42959,0.02596 0.76116,-0.06907 0.99474,-0.28505c0.23481,-0.21591 0.3655,-0.54373 0.39207,-0.98346l0.03849,-0.63703zM151.04912,128.39904c0.87028,0.05258 1.50838,0.23635 1.91431,0.55132c0.40716,0.31505 0.59484,0.73565 0.56305,1.26182l-0.19346,3.2021c-0.01453,0.24053 -0.01363,0.48201 0.00269,0.72441c0.01756,0.24247 0.05963,0.42797 0.12621,0.55647l-1.63871,-0.09901c-0.02418,-0.09197 -0.04389,-0.18622 -0.05912,-0.28271c-0.01393,-0.09765 -0.02164,-0.19556 -0.02314,-0.29373c-0.24021,0.22312 -0.53202,0.38781 -0.87543,0.49406c-0.3421,0.10506 -0.72424,0.14485 -1.14642,0.11935c-0.60735,-0.0367 -1.08312,-0.22073 -1.42736,-0.55209c-0.34416,-0.33261 -0.49886,-0.78645 -0.46412,-1.36147c0.0336,-0.55623 0.22966,-0.97127 0.58816,-1.24508c0.35857,-0.27507 0.99086,-0.43616 1.8969,-0.48326c0.62949,-0.02233 1.0471,-0.07504 1.25283,-0.15817c0.2058,-0.08437 0.31587,-0.24496 0.33017,-0.48174c0.01612,-0.26684 -0.04895,-0.47132 -0.19525,-0.61344c-0.14497,-0.14329 -0.41003,-0.22658 -0.79517,-0.24985c-0.33329,-0.02014 -0.59321,0.03709 -0.77976,0.17167c-0.18647,0.13333 -0.30392,0.35507 -0.3524,0.66522l-1.61649,-0.09767c0.08395,-0.65127 0.37932,-1.13133 0.88612,-1.4402c0.50805,-0.30879 1.17684,-0.43812 2.00637,-0.38801z" fill="#575e75" fill-rule="evenodd" stroke="none" stroke-width="1" stroke-linecap="square"/>
        <path d="M151.81633,131.66485c-0.10106,0.07311 -0.2318,0.12493 -0.39223,0.15547c-0.15912,0.02937 -0.44603,0.0617 -0.86073,0.097c-0.36959,0.02671 -0.64517,0.1075 -0.82677,0.24238c-0.18029,0.13371 -0.27828,0.33024 -0.29394,0.58955c-0.01431,0.23678 0.05408,0.42761 0.20514,0.57254c0.15107,0.14493 0.3988,0.22779 0.74322,0.2486c0.42959,0.02596 0.76116,-0.06907 0.99474,-0.28505c0.23481,-0.21591 0.3655,-0.54373 0.39207,-0.98346l0.03849,-0.63703zM151.04912,128.39904c0.87028,0.05258 1.50838,0.23635 1.91431,0.55132c0.40716,0.31505 0.59484,0.73565 0.56305,1.26182l-0.19346,3.2021c-0.01453,0.24053 -0.01363,0.48201 0.00269,0.72441c0.01756,0.24247 0.05963,0.42797 0.12621,0.55647l-1.63871,-0.09901c-0.02418,-0.09197 -0.04389,-0.18622 -0.05912,-0.28271c-0.01393,-0.09765 -0.02164,-0.19556 -0.02314,-0.29373c-0.24021,0.22312 -0.53202,0.38781 -0.87543,0.49406c-0.3421,0.10506 -0.72424,0.14485 -1.14642,0.11935c-0.60735,-0.0367 -1.08312,-0.22073 -1.42736,-0.55209c-0.34416,-0.33261 -0.49886,-0.78645 -0.46412,-1.36147c0.0336,-0.55623 0.22966,-0.97127 0.58816,-1.24508c0.35857,-0.27507 0.99086,-0.43616 1.8969,-0.48326c0.62949,-0.02233 1.0471,-0.07504 1.25283,-0.15817c0.2058,-0.08437 0.31587,-0.24496 0.33017,-0.48174c0.01612,-0.26684 -0.04895,-0.47132 -0.19525,-0.61344c-0.14497,-0.14329 -0.41003,-0.22658 -0.79517,-0.24985c-0.33329,-0.02014 -0.59321,0.03709 -0.77976,0.17167c-0.18647,0.13333 -0.30392,0.35507 -0.3524,0.66522l-1.61649,-0.09767c0.08395,-0.65127 0.37932,-1.13133 0.88612,-1.4402c0.50805,-0.30879 1.17684,-0.43812 2.00637,-0.38801z" fill="#575e75" fill-rule="evenodd" stroke="none" stroke-width="1" stroke-linecap="square"/>
        <path d="M158.30946,128.83767c0.07036,0.00425 0.13487,0.01318 0.19351,0.02677c0.05872,0.01235 0.11343,0.02948 0.16415,0.05142l-0.09196,1.52213c-0.09145,-0.02438 -0.18072,-0.04361 -0.26784,-0.05769c-0.0858,-0.01524 -0.18796,-0.02643 -0.30647,-0.03359c-0.54439,-0.03289 -0.95764,0.11189 -1.23979,0.43433c-0.2809,0.32251 -0.43849,0.76752 -0.47278,1.33504l-0.16553,2.73983l-1.61095,-0.09732l0.36069,-5.97012l1.53318,0.09263l-0.06709,1.11059l0.02222,0.00134c0.19397,-0.38057 0.46692,-0.67402 0.81885,-0.88034c0.35324,-0.20749 0.72984,-0.29917 1.1298,-0.275z" fill="#575e75" fill-rule="evenodd" stroke="none" stroke-width="1" stroke-linecap="square"/>
        <path d="M161.098,126.88436l-0.0814,1.34736l-1.6165,-0.09766l0.0814,-1.34736zM160.96074,129.15625l-0.36069,5.97013l-1.61649,-0.09766l0.36069,-5.97013z" fill="#575e75" fill-rule="evenodd" stroke="none" stroke-width="1" stroke-linecap="square"/>
        <path d="M161.098,126.88436l-0.0814,1.34736l-1.6165,-0.09766l0.0814,-1.34736zM160.96074,129.15625l-0.36069,5.97013l-1.61649,-0.09766l0.36069,-5.97013z" fill="#575e75" fill-rule="evenodd" stroke="none" stroke-width="1" stroke-linecap="square"/>
        <path d="M165.70928,132.50421c-0.10106,0.07311 -0.23179,0.12493 -0.39223,0.15547c-0.15912,0.02937 -0.44603,0.06169 -0.86074,0.097c-0.36957,0.02671 -0.64518,0.1075 -0.82677,0.24238c-0.18029,0.13371 -0.27827,0.33023 -0.29394,0.58955c-0.01431,0.23678 0.05407,0.42762 0.20514,0.57254c0.15107,0.14493 0.39881,0.22778 0.74322,0.24859c0.42957,0.02596 0.76116,-0.06907 0.99474,-0.28505c0.23481,-0.21591 0.3655,-0.54372 0.39207,-0.98345l0.03849,-0.63703zM164.94206,129.23838c0.87027,0.05258 1.50837,0.23636 1.9143,0.55133c0.40716,0.31505 0.59486,0.73565 0.56307,1.26182l-0.19346,3.2021c-0.01453,0.24053 -0.01365,0.48201 0.00268,0.72441c0.01756,0.24247 0.05963,0.42797 0.1262,0.55647l-1.63872,-0.09901c-0.02418,-0.09197 -0.04388,-0.18623 -0.05911,-0.28271c-0.01393,-0.09765 -0.02164,-0.19556 -0.02314,-0.29373c-0.24021,0.22312 -0.53201,0.38781 -0.87542,0.49405c-0.3421,0.10506 -0.72424,0.14485 -1.14642,0.11934c-0.60735,-0.0367 -1.08313,-0.22072 -1.42737,-0.55208c-0.34415,-0.33261 -0.49886,-0.78645 -0.46412,-1.36147c0.0336,-0.55623 0.22965,-0.97127 0.58813,-1.24508c0.35857,-0.27507 0.99087,-0.43616 1.89691,-0.48326c0.62949,-0.02233 1.0471,-0.07504 1.25284,-0.15817c0.2058,-0.08437 0.31585,-0.24496 0.33016,-0.48174c0.01612,-0.26684 -0.04896,-0.47132 -0.19524,-0.61344c-0.14497,-0.14329 -0.41002,-0.22657 -0.79517,-0.24984c-0.33329,-0.02014 -0.59322,0.03708 -0.77976,0.17166c-0.18646,0.13334 -0.30393,0.35507 -0.35241,0.66522l-1.61649,-0.09766c0.08395,-0.65127 0.37931,-1.13133 0.88611,-1.4402c0.50804,-0.30879 1.17684,-0.43813 2.00638,-0.38801z" fill="#575e75" fill-rule="evenodd" stroke="none" stroke-width="1" stroke-linecap="square"/>
        <path d="M165.70928,132.50421c-0.10106,0.07311 -0.23179,0.12493 -0.39223,0.15547c-0.15912,0.02937 -0.44603,0.06169 -0.86074,0.097c-0.36957,0.02671 -0.64518,0.1075 -0.82677,0.24238c-0.18029,0.13371 -0.27827,0.33023 -0.29394,0.58955c-0.01431,0.23678 0.05407,0.42762 0.20514,0.57254c0.15107,0.14493 0.39881,0.22778 0.74322,0.24859c0.42957,0.02596 0.76116,-0.06907 0.99474,-0.28505c0.23481,-0.21591 0.3655,-0.54372 0.39207,-0.98345l0.03849,-0.63703zM164.94206,129.23838c0.87027,0.05258 1.50837,0.23636 1.9143,0.55133c0.40716,0.31505 0.59486,0.73565 0.56307,1.26182l-0.19346,3.2021c-0.01453,0.24053 -0.01365,0.48201 0.00268,0.72441c0.01756,0.24247 0.05963,0.42797 0.1262,0.55647l-1.63872,-0.09901c-0.02418,-0.09197 -0.04388,-0.18623 -0.05911,-0.28271c-0.01393,-0.09765 -0.02164,-0.19556 -0.02314,-0.29373c-0.24021,0.22312 -0.53201,0.38781 -0.87542,0.49405c-0.3421,0.10506 -0.72424,0.14485 -1.14642,0.11934c-0.60735,-0.0367 -1.08313,-0.22072 -1.42737,-0.55208c-0.34415,-0.33261 -0.49886,-0.78645 -0.46412,-1.36147c0.0336,-0.55623 0.22965,-0.97127 0.58813,-1.24508c0.35857,-0.27507 0.99087,-0.43616 1.89691,-0.48326c0.62949,-0.02233 1.0471,-0.07504 1.25284,-0.15817c0.2058,-0.08437 0.31585,-0.24496 0.33016,-0.48174c0.01612,-0.26684 -0.04896,-0.47132 -0.19524,-0.61344c-0.14497,-0.14329 -0.41002,-0.22657 -0.79517,-0.24984c-0.33329,-0.02014 -0.59322,0.03708 -0.77976,0.17166c-0.18646,0.13334 -0.30393,0.35507 -0.35241,0.66522l-1.61649,-0.09766c0.08395,-0.65127 0.37931,-1.13133 0.88611,-1.4402c0.50804,-0.30879 1.17684,-0.43813 2.00638,-0.38801z" fill="#575e75" fill-rule="evenodd" stroke="none" stroke-width="1" stroke-linecap="square"/>
        <path d="M171.62231,130.8811c-0.41106,-0.02483 -0.75232,0.12744 -1.02372,0.45682c-0.27011,0.3282 -0.42297,0.78732 -0.45862,1.37738c-0.03451,0.57128 0.06174,1.03916 0.28874,1.40368c0.227,0.36452 0.5516,0.55952 0.97377,0.58503c0.42217,0.02551 0.76788,-0.12901 1.03712,-0.46354c0.26924,-0.33453 0.42112,-0.78744 0.45563,-1.35871c0.03474,-0.57502 -0.05889,-1.04528 -0.28088,-1.41074c-0.22068,-0.36666 -0.55137,-0.56329 -0.99206,-0.58991zM170.51365,127.45322l-0.1812,2.99916l0.02778,0.00168c0.19041,-0.26008 0.45336,-0.45983 0.78886,-0.59925c0.33558,-0.14067 0.70705,-0.19869 1.11442,-0.17408c0.68882,0.04162 1.25003,0.35969 1.68368,0.9542c0.43495,0.59334 0.62337,1.37109 0.56524,2.33321c-0.05767,0.95463 -0.33839,1.70464 -0.84214,2.25008c-0.50243,0.54426 -1.09993,0.79547 -1.79244,0.75362c-0.47403,-0.02864 -0.86917,-0.13235 -1.18545,-0.31114c-0.3162,-0.18005 -0.54496,-0.42334 -0.68626,-0.72987l-0.02223,-0.00134l-0.04598,0.76106l-1.53317,-0.09263l0.49795,-8.24205z" fill="#575e75" fill-rule="evenodd" stroke="none" stroke-width="1" stroke-linecap="square"/>
        <path d="M171.62231,130.8811c-0.41106,-0.02483 -0.75232,0.12744 -1.02372,0.45682c-0.27011,0.3282 -0.42297,0.78732 -0.45862,1.37738c-0.03451,0.57128 0.06174,1.03916 0.28874,1.40368c0.227,0.36452 0.5516,0.55952 0.97377,0.58503c0.42217,0.02551 0.76788,-0.12901 1.03712,-0.46354c0.26924,-0.33453 0.42112,-0.78744 0.45563,-1.35871c0.03474,-0.57502 -0.05889,-1.04528 -0.28088,-1.41074c-0.22068,-0.36666 -0.55137,-0.56329 -0.99206,-0.58991zM170.51365,127.45322l-0.1812,2.99916l0.02778,0.00168c0.19041,-0.26008 0.45336,-0.45983 0.78886,-0.59925c0.33558,-0.14067 0.70705,-0.19869 1.11442,-0.17408c0.68882,0.04162 1.25003,0.35969 1.68368,0.9542c0.43495,0.59334 0.62337,1.37109 0.56524,2.33321c-0.05767,0.95463 -0.33839,1.70464 -0.84214,2.25008c-0.50243,0.54426 -1.09993,0.79547 -1.79244,0.75362c-0.47403,-0.02864 -0.86917,-0.13235 -1.18545,-0.31114c-0.3162,-0.18005 -0.54496,-0.42334 -0.68626,-0.72987l-0.02223,-0.00134l-0.04598,0.76106l-1.53317,-0.09263l0.49795,-8.24205z" fill="#575e75" fill-rule="evenodd" stroke="none" stroke-width="1" stroke-linecap="square"/>
        <path d="M177.5129,127.87608l-0.49795,8.24205l-1.61649,-0.09766l0.49796,-8.24206z" fill="#575e75" fill-rule="evenodd" stroke="none" stroke-width="1" stroke-linecap="square"/>
        <path d="M181.24352,131.46238c-0.39255,-0.02372 -0.71046,0.07023 -0.95368,0.28186c-0.24323,0.21162 -0.39526,0.51364 -0.45615,0.90603l2.62749,0.15874c-0.0512,-0.44442 -0.17189,-0.77423 -0.36207,-0.98942c-0.18895,-0.21511 -0.47415,-0.33419 -0.85558,-0.35724zM181.37365,130.23111c0.87027,0.05258 1.54691,0.39837 2.02989,1.03736c0.48431,0.63781 0.69795,1.4284 0.64096,2.37175l-0.02949,0.30375l-4.244,-0.2564c-0.00889,0.51623 0.10014,0.9057 0.32711,1.16836c0.2282,0.26274 0.5682,0.40776 1.02,0.43505c0.29255,0.01767 0.56749,-0.04178 0.82476,-0.17837c0.25735,-0.13785 0.42585,-0.31187 0.50544,-0.52207l1.42208,0.08591c-0.25938,0.6633 -0.62687,1.14781 -1.10251,1.45353c-0.47556,0.30446 -1.06701,0.43534 -1.77435,0.39261c-0.90732,-0.05481 -1.61742,-0.39006 -2.13031,-1.00571c-0.51289,-0.61566 -0.74129,-1.38766 -0.68521,-2.31596c0.05381,-0.89073 0.37921,-1.6217 0.9762,-2.19294c0.59823,-0.57117 1.33804,-0.83012 2.21942,-0.77687z" fill="#575e75" fill-rule="evenodd" stroke="none" stroke-width="1" stroke-linecap="square"/>
        <path d="M181.24352,131.46238c-0.39255,-0.02372 -0.71046,0.07023 -0.95368,0.28186c-0.24323,0.21162 -0.39526,0.51364 -0.45615,0.90603l2.62749,0.15874c-0.0512,-0.44442 -0.17189,-0.77423 -0.36207,-0.98942c-0.18895,-0.21511 -0.47415,-0.33419 -0.85558,-0.35724zM181.37365,130.23111c0.87027,0.05258 1.54691,0.39837 2.02989,1.03736c0.48431,0.63781 0.69795,1.4284 0.64096,2.37175l-0.02949,0.30375l-4.244,-0.2564c-0.00889,0.51623 0.10014,0.9057 0.32711,1.16836c0.2282,0.26274 0.5682,0.40776 1.02,0.43505c0.29255,0.01767 0.56749,-0.04178 0.82476,-0.17837c0.25735,-0.13785 0.42585,-0.31187 0.50544,-0.52207l1.42208,0.08591c-0.25938,0.6633 -0.62687,1.14781 -1.10251,1.45353c-0.47556,0.30446 -1.06701,0.43534 -1.77435,0.39261c-0.90732,-0.05481 -1.61742,-0.39006 -2.13031,-1.00571c-0.51289,-0.61566 -0.74129,-1.38766 -0.68521,-2.31596c0.05381,-0.89073 0.37921,-1.6217 0.9762,-2.19294c0.59823,-0.57117 1.33804,-0.83012 2.21942,-0.77687z" fill="#575e75" fill-rule="evenodd" stroke="none" stroke-width="1" stroke-linecap="square"/>
        <path d="M118.41809,142.24374v0c0.17987,-2.97726 2.73923,-5.24498 5.71648,-5.0651l100.39601,6.06551c1.42973,0.08638 2.7666,0.73717 3.71649,1.80922c0.94989,1.07205 1.43499,2.47753 1.34861,3.90726l-0.48616,8.04692c-0.17988,2.97725 -2.73921,5.24497 -5.71646,5.06509l-100.39603,-6.06551c-2.97726,-0.17988 -5.24497,-2.73922 -5.0651,-5.71647z" fill="#ffffff" fill-rule="evenodd" stroke="none" stroke-width="1" stroke-linecap="square"/>
        <path d="M 10.313 -3.145 L 10.82 -0.039 Q 9.336 0.273 8.164 0.273 Q 6.25 0.273 5.195 -0.332 Q 4.141 -0.937 3.711 -1.924 Q 3.281 -2.91 3.281 -6.074 L 3.281 -18.008 L 0.703 -18.008 L 0.703 -20.742 L 3.281 -20.742 L 3.281 -25.879 L 6.777 -27.988 L 6.777 -20.742 L 10.313 -20.742 L 10.313 -18.008 L 6.777 -18.008 L 6.777 -5.879 Q 6.777 -4.375 6.963 -3.945 Q 7.148 -3.516 7.568 -3.262 Q 7.988 -3.008 8.77 -3.008 Q 9.355 -3.008 10.313 -3.145 Z M 27.943 -6.68 L 31.576 -6.23 Q 30.716 -3.047 28.392 -1.289 Q 26.068 0.469 22.455 0.469 Q 17.904 0.469 15.238 -2.334 Q 12.572 -5.137 12.572 -10.195 Q 12.572 -15.43 15.267 -18.32 Q 17.962 -21.211 22.259 -21.211 Q 26.419 -21.211 29.056 -18.379 Q 31.693 -15.547 31.693 -10.41 Q 31.693 -10.098 31.673 -9.473 L 16.205 -9.473 Q 16.4 -6.055 18.138 -4.238 Q 19.877 -2.422 22.474 -2.422 Q 24.408 -2.422 25.775 -3.437 Q 27.142 -4.453 27.943 -6.68 Z M 16.4 -12.363 L 27.982 -12.363 Q 27.748 -14.98 26.654 -16.289 Q 24.974 -18.32 22.298 -18.32 Q 19.877 -18.32 18.226 -16.699 Q 16.576 -15.078 16.4 -12.363 Z M 33.648 0 L 41.226 -10.781 L 34.215 -20.742 L 38.609 -20.742 L 41.793 -15.879 Q 42.691 -14.492 43.238 -13.555 Q 44.097 -14.844 44.82 -15.84 L 48.316 -20.742 L 52.515 -20.742 L 45.347 -10.977 L 53.062 0 L 48.746 0 L 44.488 -6.445 L 43.355 -8.184 L 37.906 0 Z M 63.664 -3.145 L 64.172 -0.039 Q 62.688 0.273 61.516 0.273 Q 59.602 0.273 58.547 -0.332 Q 57.492 -0.937 57.063 -1.924 Q 56.633 -2.91 56.633 -6.074 L 56.633 -18.008 L 54.055 -18.008 L 54.055 -20.742 L 56.633 -20.742 L 56.633 -25.879 L 60.129 -27.988 L 60.129 -20.742 L 63.664 -20.742 L 63.664 -18.008 L 60.129 -18.008 L 60.129 -5.879 Q 60.129 -4.375 60.315 -3.945 Q 60.5 -3.516 60.92 -3.262 Q 61.34 -3.008 62.121 -3.008 Q 62.707 -3.008 63.664 -3.145 Z M 78.236 -24.59 L 78.236 -28.633 L 81.751 -28.633 L 81.751 -24.59 Z M 78.236 0 L 78.236 -20.742 L 81.751 -20.742 L 81.751 0 Z M 87.099 0 L 87.099 -20.742 L 90.263 -20.742 L 90.263 -17.793 Q 92.548 -21.211 96.865 -21.211 Q 98.74 -21.211 100.312 -20.537 Q 101.884 -19.863 102.666 -18.77 Q 103.447 -17.676 103.759 -16.172 Q 103.955 -15.195 103.955 -12.754 L 103.955 0 L 100.439 0 L 100.439 -12.617 Q 100.439 -14.766 100.029 -15.83 Q 99.619 -16.895 98.574 -17.529 Q 97.529 -18.164 96.123 -18.164 Q 93.876 -18.164 92.246 -16.738 Q 90.615 -15.312 90.615 -11.328 L 90.615 0 Z M 109.34 7.949 L 109.34 -20.742 L 112.544 -20.742 L 112.544 -18.047 Q 113.676 -19.629 115.102 -20.42 Q 116.528 -21.211 118.559 -21.211 Q 121.215 -21.211 123.247 -19.844 Q 125.278 -18.477 126.313 -15.986 Q 127.348 -13.496 127.348 -10.527 Q 127.348 -7.344 126.206 -4.795 Q 125.063 -2.246 122.885 -0.889 Q 120.708 0.469 118.305 0.469 Q 116.547 0.469 115.151 -0.273 Q 113.755 -1.016 112.856 -2.148 L 112.856 7.949 Z M 112.524 -10.254 Q 112.524 -6.25 114.145 -4.336 Q 115.766 -2.422 118.071 -2.422 Q 120.415 -2.422 122.085 -4.404 Q 123.755 -6.387 123.755 -10.547 Q 123.755 -14.512 122.124 -16.484 Q 120.493 -18.457 118.227 -18.457 Q 115.981 -18.457 114.253 -16.357 Q 112.524 -14.258 112.524 -10.254 Z M 145.182 0 L 145.182 -3.047 Q 142.761 0.469 138.6 0.469 Q 136.764 0.469 135.173 -0.234 Q 133.581 -0.937 132.809 -2.002 Q 132.038 -3.066 131.725 -4.609 Q 131.511 -5.645 131.511 -7.891 L 131.511 -20.742 L 135.026 -20.742 L 135.026 -9.238 Q 135.026 -6.484 135.241 -5.527 Q 135.573 -4.141 136.647 -3.35 Q 137.721 -2.559 139.303 -2.559 Q 140.886 -2.559 142.272 -3.369 Q 143.659 -4.18 144.235 -5.576 Q 144.811 -6.973 144.811 -9.629 L 144.811 -20.742 L 148.327 -20.742 L 148.327 0 Z M 161.506 -3.145 L 162.014 -0.039 Q 160.529 0.273 159.357 0.273 Q 157.443 0.273 156.389 -0.332 Q 155.334 -0.937 154.904 -1.924 Q 154.475 -2.91 154.475 -6.074 L 154.475 -18.008 L 151.896 -18.008 L 151.896 -20.742 L 154.475 -20.742 L 154.475 -25.879 L 157.971 -27.988 L 157.971 -20.742 L 161.506 -20.742 L 161.506 -18.008 L 157.971 -18.008 L 157.971 -5.879 Q 157.971 -4.375 158.156 -3.945 Q 158.342 -3.516 158.762 -3.262 Q 159.182 -3.008 159.963 -3.008 Q 160.549 -3.008 161.506 -3.145 Z M 165.94 0 L 165.94 -4.004 L 169.944 -4.004 L 169.944 0 Z M 177.054 0 L 177.054 -4.004 L 181.058 -4.004 L 181.058 0 Z M 188.168 0 L 188.168 -4.004 L 192.171 -4.004 L 192.171 0 Z" transform="matrix(0.270936, 0.01637, -0.01662, 0.275118, 122.056831, 150.522263)" style="fill: rgb(87, 94, 117); stroke: rgb(87, 94, 117);"/>
      </g>
    </g>
  </g>
</svg>
