<svg xmlns="http://www.w3.org/2000/svg" xmlns:xlink="http://www.w3.org/1999/xlink" width="600px" height="300px" viewBox="0 0 600 300" version="1.1">
<g id="surface1">
<rect x="0" y="0" width="600" height="300" style="fill:rgb(0%,37.254903%,100%);fill-opacity:1;stroke:none;"/>
<path style=" stroke:none;fill-rule:nonzero;fill:rgb(0%,41.960785%,100%);fill-opacity:1;" d="M 598.484375 0 C 599.566406 0 599.988281 207.722656 599.988281 207.722656 C 599.988281 207.722656 499.417969 222.804688 455.753906 218.671875 C 412.085938 214.539062 388.089844 179.027344 350.402344 184.101562 C 312.714844 189.171875 309.382812 233.761719 274.476562 243.074219 C 239.570312 252.382812 221.976562 223.554688 183.777344 228.546875 C 145.582031 233.542969 134.59375 264.578125 93.984375 266.667969 C 53.378906 268.761719 0.0117188 266.820312 0.0117188 238.007812 C 0.0117188 154.3125 0.0117188 0 0.0117188 0 C 0.0117188 0 474.054688 0 598.484375 0 Z M 598.484375 0 "/>
<path style=" stroke:none;fill-rule:nonzero;fill:rgb(0%,46.666667%,100%);fill-opacity:1;" d="M 588.550781 0 C 597.488281 0 609.652344 149.242188 534.164062 168.707031 C 500.167969 177.472656 478.628906 139.671875 450.816406 135.691406 C 423.007812 131.710938 413.285156 138.125 379.742188 146.601562 C 346.199219 155.078125 331.359375 123.453125 293.570312 136.570312 C 255.785156 149.6875 242.503906 193.792969 216.660156 203.214844 C 190.8125 212.632812 175.496094 184.507812 148.371094 189.5 C 121.25 194.488281 132.863281 226.226562 92.484375 226.058594 C 52.105469 225.890625 0 211.746094 0 188.882812 C 0 122.460938 0 0 0 0 C 0 0 477.589844 0 588.550781 0 Z M 588.550781 0 "/>
<path style=" stroke:none;fill-rule:nonzero;fill:rgb(0%,51.764709%,100%);fill-opacity:1;" d="M 564.949219 0 C 579.105469 0 559.765625 60.632812 488.464844 92.179688 C 473.039062 99.003906 403.804688 87.214844 370.699219 88.65625 C 310.1875 91.289062 276.273438 104.457031 246.730469 118.203125 C 194.828125 142.355469 193.058594 152.507812 145.636719 165.210938 C 108.441406 175.171875 64.613281 148.714844 36.476562 144.054688 C 11.515625 139.917969 0 158.621094 0 150.082031 C 0 97.304688 0 0 0 0 C 0 0 461.277344 0 564.949219 0 Z M 564.949219 0 "/>
<path style=" stroke:none;fill-rule:nonzero;fill:rgb(0%,56.470591%,100%);fill-opacity:1;" d="M 496.90625 0 C 511.066406 0 474.199219 29.476562 402.898438 48.324219 C 359.273438 59.859375 292.433594 57.917969 246.730469 70.625 C 194.828125 85.054688 185.84375 102.171875 138.421875 109.761719 C 68.234375 120.996094 0 100.527344 0 89.675781 C 0 58.140625 0 0 0 0 C 0 0 393.238281 0 496.90625 0 Z M 496.90625 0 "/>
<path style=" stroke:none;fill-rule:nonzero;fill:rgb(60.000002%,87.450981%,100%);fill-opacity:1;" d="M 593.617188 109.539062 L 567.019531 110.511719 L 579.472656 87.070312 Z M 593.617188 109.539062 "/>
<path style=" stroke:none;fill-rule:nonzero;fill:rgb(40.000001%,81.176472%,100%);fill-opacity:1;" d="M 564.171875 123.789062 L 538.40625 117.136719 L 557.070312 98.222656 Z M 564.171875 123.789062 "/>
<path style=" stroke:none;fill-rule:nonzero;fill:rgb(20%,74.509805%,100%);fill-opacity:1;" d="M 532.652344 129.089844 L 510.070312 115.054688 L 533.558594 102.578125 Z M 532.652344 129.089844 "/>
<path style=" stroke:none;fill-rule:nonzero;fill:rgb(20%,74.509805%,100%);fill-opacity:1;" d="M 510.34375 126.730469 L 483.804688 124.722656 L 498.816406 102.820312 Z M 510.34375 126.730469 "/>
<path style=" stroke:none;fill-rule:nonzero;fill:rgb(20%,74.509805%,100%);fill-opacity:1;" d="M 489.171875 137.433594 L 463.398438 144.050781 L 470.53125 118.5 Z M 489.171875 137.433594 "/>
<path style=" stroke:none;fill-rule:nonzero;fill:rgb(20%,74.509805%,100%);fill-opacity:1;" d="M 472.296875 154.273438 L 450.628906 169.679688 L 448.074219 143.277344 Z M 472.296875 154.273438 "/>
<path style=" stroke:none;fill-rule:nonzero;fill:rgb(40.000001%,81.176472%,100%);fill-opacity:1;" d="M 457.488281 185.457031 L 431.796875 192.390625 L 438.617188 166.753906 Z M 457.488281 185.457031 "/>
<path style=" stroke:none;fill-rule:nonzero;fill:rgb(20%,74.509805%,100%);fill-opacity:1;" d="M 435.003906 208.710938 L 408.40625 209.683594 L 420.859375 186.238281 Z M 435.003906 208.710938 "/>
<path style=" stroke:none;fill-rule:nonzero;fill:rgb(40.000001%,81.176472%,100%);fill-opacity:1;" d="M 405.558594 222.960938 L 379.792969 216.308594 L 398.457031 197.394531 Z M 405.558594 222.960938 "/>
<path style=" stroke:none;fill-rule:nonzero;fill:rgb(60.000002%,87.450981%,100%);fill-opacity:1;" d="M 374.039062 228.261719 L 351.453125 214.226562 L 374.941406 201.75 Z M 374.039062 228.261719 "/>
<path style=" stroke:none;fill-rule:nonzero;fill:rgb(20%,74.509805%,100%);fill-opacity:1;" d="M 351.730469 225.902344 L 325.191406 223.894531 L 340.203125 201.992188 Z M 351.730469 225.902344 "/>
<path style=" stroke:none;fill-rule:nonzero;fill:rgb(40.000001%,81.176472%,100%);fill-opacity:1;" d="M 330.554688 236.605469 L 304.78125 243.222656 L 311.917969 217.671875 Z M 330.554688 236.605469 "/>
<path style=" stroke:none;fill-rule:nonzero;fill:rgb(20%,74.509805%,100%);fill-opacity:1;" d="M 313.679688 253.445312 L 292.015625 268.851562 L 289.460938 242.449219 Z M 313.679688 253.445312 "/>
<path style=" stroke:none;fill-rule:nonzero;fill:rgb(20%,74.509805%,100%);fill-opacity:1;" d="M 558.394531 139.628906 L 584.992188 138.65625 L 572.539062 162.097656 Z M 558.394531 139.628906 "/>
<path style=" stroke:none;fill-rule:nonzero;fill:rgb(20%,74.509805%,100%);fill-opacity:1;" d="M 578.222656 124.378906 L 599.847656 117.015625 L 599.929688 132.566406 L 598.226562 141.875 Z M 578.222656 124.378906 "/>
<path style=" stroke:none;fill-rule:nonzero;fill:rgb(20%,74.509805%,100%);fill-opacity:1;" d="M 301.589844 292.902344 L 323.082031 277.253906 L 325.554688 299.984375 L 317.765625 300.027344 Z M 301.589844 292.902344 "/>
<path style=" stroke:none;fill-rule:nonzero;fill:rgb(20%,74.509805%,100%);fill-opacity:1;" d="M 316.921875 261.832031 L 343.242188 257.894531 L 333.507812 282.578125 Z M 316.921875 261.832031 "/>
<path style=" stroke:none;fill-rule:nonzero;fill:rgb(20%,74.509805%,100%);fill-opacity:1;" d="M 343.394531 243.273438 L 369.585938 247.992188 L 352.394531 268.238281 Z M 343.394531 243.273438 "/>
<path style=" stroke:none;fill-rule:nonzero;fill:rgb(40.000001%,81.176472%,100%);fill-opacity:1;" d="M 375.554688 233.90625 L 398.292969 247.6875 L 374.949219 260.425781 Z M 375.554688 233.90625 "/>
<path style=" stroke:none;fill-rule:nonzero;fill:rgb(20%,74.509805%,100%);fill-opacity:1;" d="M 400.878906 235.632812 L 427.007812 240.671875 L 409.566406 260.707031 Z M 400.878906 235.632812 "/>
<path style=" stroke:none;fill-rule:nonzero;fill:rgb(40.000001%,81.176472%,100%);fill-opacity:1;" d="M 426.210938 228.179688 L 452.808594 227.207031 L 440.355469 250.648438 Z M 426.210938 228.179688 "/>
<path style=" stroke:none;fill-rule:nonzero;fill:rgb(20%,74.509805%,100%);fill-opacity:1;" d="M 446.039062 212.933594 L 471.246094 204.414062 L 466.042969 230.425781 Z M 446.039062 212.933594 "/>
<path style=" stroke:none;fill-rule:nonzero;fill:rgb(20%,74.509805%,100%);fill-opacity:1;" d="M 460.203125 193.730469 L 481.695312 178.082031 L 484.546875 204.453125 Z M 460.203125 193.730469 "/>
<path style=" stroke:none;fill-rule:nonzero;fill:rgb(60.000002%,87.450981%,100%);fill-opacity:1;" d="M 475.539062 162.660156 L 501.859375 158.722656 L 492.121094 183.40625 Z M 475.539062 162.660156 "/>
<path style=" stroke:none;fill-rule:nonzero;fill:rgb(40.000001%,81.176472%,100%);fill-opacity:1;" d="M 502.007812 144.105469 L 528.199219 148.820312 L 511.007812 169.066406 Z M 502.007812 144.105469 "/>
<path style=" stroke:none;fill-rule:nonzero;fill:rgb(60.000002%,87.450981%,100%);fill-opacity:1;" d="M 534.167969 134.734375 L 556.910156 148.515625 L 533.5625 161.253906 Z M 534.167969 134.734375 "/>
<path style=" stroke:none;fill-rule:nonzero;fill:rgb(60.000002%,87.450981%,100%);fill-opacity:1;" d="M 8.605469 146.714844 L 31.917969 147.804688 L 19.316406 167.382812 Z M 8.605469 146.714844 "/>
<path style=" stroke:none;fill-rule:nonzero;fill:rgb(20%,74.509805%,100%);fill-opacity:1;" d="M 35.382812 136.40625 L 57.414062 144.101562 L 39.714844 159.265625 Z M 35.382812 136.40625 "/>
<path style=" stroke:none;fill-rule:nonzero;fill:rgb(40.000001%,81.176472%,100%);fill-opacity:1;" d="M 63.316406 134.074219 L 82.023438 147.984375 L 60.582031 157.175781 Z M 63.316406 134.074219 "/>
<path style=" stroke:none;fill-rule:nonzero;fill:rgb(20%,74.509805%,100%);fill-opacity:1;" d="M 82.640625 137.761719 L 105.6875 141.449219 L 90.960938 159.496094 Z M 82.640625 137.761719 "/>
<path style=" stroke:none;fill-rule:nonzero;fill:rgb(20%,74.509805%,100%);fill-opacity:1;" d="M 101.929688 129.949219 L 124.941406 126.046875 L 116.828125 147.855469 Z M 101.929688 129.949219 "/>
<path style=" stroke:none;fill-rule:nonzero;fill:rgb(20%,74.509805%,100%);fill-opacity:1;" d="M 117.914062 116.464844 L 137.976562 104.582031 L 138.273438 127.839844 Z M 117.914062 116.464844 "/>
<path style=" stroke:none;fill-rule:nonzero;fill:rgb(20%,74.509805%,100%);fill-opacity:1;" d="M 133.144531 90.292969 L 156.101562 86.105469 L 148.261719 108.015625 Z M 133.144531 90.292969 "/>
<path style=" stroke:none;fill-rule:nonzero;fill:rgb(60.000002%,87.450981%,100%);fill-opacity:1;" d="M 154.496094 71.609375 L 177.8125 72.699219 L 165.210938 92.277344 Z M 154.496094 71.609375 "/>
<path style=" stroke:none;fill-rule:nonzero;fill:rgb(40.000001%,81.176472%,100%);fill-opacity:1;" d="M 181.277344 61.304688 L 203.304688 68.996094 L 185.609375 84.160156 Z M 181.277344 61.304688 "/>
<path style=" stroke:none;fill-rule:nonzero;fill:rgb(20%,74.509805%,100%);fill-opacity:1;" d="M 209.210938 58.96875 L 227.917969 72.878906 L 206.476562 82.070312 Z M 209.210938 58.96875 "/>
<path style=" stroke:none;fill-rule:nonzero;fill:rgb(20%,74.509805%,100%);fill-opacity:1;" d="M 228.535156 62.65625 L 251.578125 66.34375 L 236.851562 84.390625 Z M 228.535156 62.65625 "/>
<path style=" stroke:none;fill-rule:nonzero;fill:rgb(20%,74.509805%,100%);fill-opacity:1;" d="M 247.824219 54.847656 L 270.832031 50.941406 L 262.722656 72.753906 Z M 247.824219 54.847656 "/>
<path style=" stroke:none;fill-rule:nonzero;fill:rgb(40.000001%,81.176472%,100%);fill-opacity:1;" d="M 263.804688 41.359375 L 283.871094 29.476562 L 284.167969 52.734375 Z M 263.804688 41.359375 "/>
<path style=" stroke:none;fill-rule:nonzero;fill:rgb(40.000001%,81.176472%,100%);fill-opacity:1;" d="M 41.597656 122.984375 L 18.28125 121.898438 L 30.882812 102.320312 Z M 41.597656 122.984375 "/>
<path style=" stroke:none;fill-rule:nonzero;fill:rgb(20%,74.509805%,100%);fill-opacity:1;" d="M 23.148438 134.867188 L 0.496094 140.472656 L 6.949219 118.117188 Z M 23.148438 134.867188 "/>
<path style=" stroke:none;fill-rule:nonzero;fill:rgb(20%,74.509805%,100%);fill-opacity:1;" d="M 277.269531 7.761719 L 257.339844 19.867188 L 256.882812 0.0625 L 263.191406 0.101562 Z M 277.269531 7.761719 "/>
<path style=" stroke:none;fill-rule:nonzero;fill:rgb(20%,74.509805%,100%);fill-opacity:1;" d="M 261.589844 33.792969 L 238.296875 35.316406 L 248.617188 14.453125 Z M 261.589844 33.792969 "/>
<path style=" stroke:none;fill-rule:nonzero;fill:rgb(40.000001%,81.176472%,100%);fill-opacity:1;" d="M 237.09375 48.082031 L 214.550781 42.050781 L 231.0625 25.609375 Z M 237.09375 48.082031 "/>
<path style=" stroke:none;fill-rule:nonzero;fill:rgb(60.000002%,87.450981%,100%);fill-opacity:1;" d="M 208.300781 53.925781 L 189.441406 40.222656 L 210.777344 30.792969 Z M 208.300781 53.925781 "/>
<path style=" stroke:none;fill-rule:nonzero;fill:rgb(20%,74.509805%,100%);fill-opacity:1;" d="M 186.296875 50.570312 L 163.832031 44.261719 L 180.542969 28.023438 Z M 186.296875 50.570312 "/>
<path style=" stroke:none;fill-rule:nonzero;fill:rgb(20%,74.509805%,100%);fill-opacity:1;" d="M 163.613281 55.234375 L 140.296875 54.148438 L 152.898438 34.570312 Z M 163.613281 55.234375 "/>
<path style=" stroke:none;fill-rule:nonzero;fill:rgb(40.000001%,81.176472%,100%);fill-opacity:1;" d="M 145.164062 67.117188 L 122.511719 72.722656 L 128.964844 50.367188 Z M 145.164062 67.117188 "/>
<path style=" stroke:none;fill-rule:nonzero;fill:rgb(20%,74.509805%,100%);fill-opacity:1;" d="M 131.375 82.867188 L 111.445312 94.972656 L 110.890625 71.71875 Z M 131.375 82.867188 "/>
<path style=" stroke:none;fill-rule:nonzero;fill:rgb(40.000001%,81.176472%,100%);fill-opacity:1;" d="M 115.695312 108.898438 L 92.40625 110.421875 L 102.726562 89.558594 Z M 115.695312 108.898438 "/>
<path style=" stroke:none;fill-rule:nonzero;fill:rgb(60.000002%,87.450981%,100%);fill-opacity:1;" d="M 91.199219 123.183594 L 68.65625 117.152344 L 85.167969 100.714844 Z M 91.199219 123.183594 "/>
<path style=" stroke:none;fill-rule:nonzero;fill:rgb(20%,74.509805%,100%);fill-opacity:1;" d="M 62.410156 129.027344 L 43.546875 115.328125 L 64.882812 105.898438 Z M 62.410156 129.027344 "/>
<path style="fill:none;stroke-width:6;stroke-linecap:butt;stroke-linejoin:miter;stroke:rgb(0%,0%,0%);stroke-opacity:0.501961;stroke-miterlimit:10;" d="M 285.626019 193.938415 C 287.094281 195.056227 286.891566 197.789925 285.173226 200.042659 C 283.638656 202.053961 281.414476 203.002581 279.912113 202.382842 C 279.756761 202.320107 214.387855 152.524222 214.376488 152.516618 C 212.910121 151.398805 213.112835 148.665107 214.829281 146.412373 C 216.547621 144.159639 219.127972 143.241435 220.596234 144.359248 C 220.670121 144.416279 285.552132 193.881383 285.626019 193.938415 Z M 285.626019 193.938415 " transform="matrix(2.061856,0,0,2.054795,-194.845408,-219.862967)"/>
<path style=" stroke:none;fill-rule:nonzero;fill:rgb(0%,0%,0%);fill-opacity:1;" d="M 262.261719 104.992188 L 275.082031 88.230469 L 377.808594 166.28125 L 364.988281 183.042969 Z M 262.261719 104.992188 "/>
<path style=" stroke:none;fill-rule:nonzero;fill:rgb(100%,100%,100%);fill-opacity:1;" d="M 248.101562 80.984375 C 251.644531 76.355469 256.964844 74.46875 259.992188 76.765625 C 263.015625 79.066406 262.601562 84.679688 259.058594 89.308594 C 255.519531 93.9375 250.195312 95.828125 247.167969 93.527344 C 244.144531 91.230469 244.5625 85.613281 248.101562 80.984375 Z M 248.101562 80.984375 "/>
<path style=" stroke:none;fill-rule:nonzero;fill:rgb(100%,100%,100%);fill-opacity:1;" d="M 247.625 93.875 L 260.445312 77.113281 L 282.492188 93.863281 C 282.492188 93.863281 282.394531 98.644531 278.691406 103.996094 C 275.3125 108.882812 269.671875 110.621094 269.671875 110.621094 Z M 247.625 93.875 "/>
<path style="fill:none;stroke-width:0.75;stroke-linecap:round;stroke-linejoin:miter;stroke:rgb(60.000002%,60.000002%,60.000002%);stroke-opacity:1;stroke-miterlimit:10;" d="M 220.374574 144.368753 C 220.374574 144.368753 223.280785 146.290706 220.259007 150.311409 C 217.235335 154.335915 214.367015 152.170628 214.367015 152.170628 " transform="matrix(2.061856,0,0,2.054795,-194.845408,-219.862967)"/>
<path style=" stroke:none;fill-rule:nonzero;fill:rgb(100%,100%,100%);fill-opacity:1;" d="M 381.253906 195.398438 C 378.226562 193.101562 378.644531 187.484375 382.183594 182.859375 C 385.726562 178.230469 391.046875 176.339844 394.074219 178.640625 C 397.101562 180.9375 396.683594 186.554688 393.140625 191.183594 C 389.601562 195.808594 384.277344 197.699219 381.253906 195.398438 Z M 381.253906 195.398438 "/>
<path style=" stroke:none;fill-rule:nonzero;fill:rgb(100%,100%,100%);fill-opacity:1;" d="M 358.75 178.304688 C 358.75 178.304688 364.394531 176.566406 368.230469 172.023438 C 372.429688 167.046875 371.574219 161.542969 371.574219 161.542969 L 393.621094 178.292969 L 380.796875 195.054688 Z M 358.75 178.304688 "/>
<path style="fill:none;stroke-width:7.5;stroke-linecap:round;stroke-linejoin:miter;stroke:rgb(0%,0%,0%);stroke-opacity:0.501961;stroke-miterlimit:10;" d="M 115.85139 234.500941 L 115.85139 208.850185 C 115.85139 207.952894 116.258714 207.504248 117.073363 207.504248 L 124.039554 207.504248 C 127.946078 207.504248 130.761351 208.312191 132.489164 209.924274 C 134.220765 211.532555 135.086566 213.867034 135.086566 216.929613 C 135.086566 219.459899 134.266234 221.781071 132.627464 223.895029 C 131.812816 224.946305 130.613578 225.788467 129.02596 226.423415 C 127.442132 227.056461 125.598753 227.373935 123.49014 227.373935 L 123.49014 234.46292 C 123.49014 234.776592 122.995667 234.99331 122.004828 235.111175 C 121.015882 235.230941 120.163343 235.289873 119.44721 235.289873 C 119.44721 235.289873 115.85139 235.027529 115.85139 234.500941 Z M 123.49014 214.393623 L 123.49014 220.64805 L 123.999769 220.64805 C 124.922406 220.64805 125.701058 220.359092 126.335726 219.781175 C 126.968499 219.199456 127.284886 218.380107 127.284886 217.323128 C 127.284886 216.266149 127.067015 215.513336 126.629378 215.066592 C 126.195531 214.617946 125.424456 214.393623 124.31805 214.393623 Z M 139.874046 220.840055 C 139.137074 219.520732 138.769535 218.446644 138.769535 217.61779 C 138.769535 216.787034 138.993089 216.252842 139.442093 216.017113 C 140.942562 215.357451 143.003812 215.02667 145.625843 215.02667 C 148.255453 215.02667 150.110199 215.640706 151.191976 216.866878 C 152.275648 218.09305 152.815589 219.908545 152.815589 222.30956 L 152.815589 228.563988 L 154.160706 228.563988 C 154.60971 228.563988 154.960199 228.830133 155.212171 229.360524 C 155.466039 229.885211 155.591078 230.609508 155.591078 231.533415 C 155.591078 232.45542 155.359945 233.364118 154.895785 234.261409 C 154.431624 235.158701 153.806429 235.607347 153.018304 235.607347 C 151.589828 235.607347 150.439847 235.225238 149.570257 234.46292 C 149.178089 234.143545 148.876859 233.759534 148.664671 233.310889 C 147.448382 234.841227 145.559535 235.607347 142.998128 235.607347 C 141.075179 235.607347 139.455355 234.921071 138.134867 233.55042 C 136.816273 232.179769 136.156976 230.556279 136.156976 228.679951 C 136.156976 224.381696 138.727855 222.231618 143.871507 222.231618 L 146.052113 222.231618 L 146.052113 221.830498 C 146.052113 221.144222 145.938441 220.70318 145.711097 220.507373 C 145.489437 220.311566 144.970335 220.214613 144.150003 220.214613 C 143.145902 220.214613 141.71932 220.423727 139.874046 220.840055 Z M 143.043597 228.13055 C 143.043597 228.708467 143.200843 229.149508 143.515335 229.453675 C 143.829828 229.757842 144.233363 229.909925 144.722152 229.909925 C 145.210941 229.909925 145.654261 229.710316 146.052113 229.312998 L 146.052113 226.267529 L 144.938128 226.267529 C 143.676371 226.267529 143.043597 226.88917 143.043597 228.13055 Z M 166.514945 235.173909 C 166.514945 235.360211 165.315706 235.451461 162.913441 235.451461 C 160.511175 235.396331 159.310042 235.289873 159.310042 235.135889 L 159.310042 221.992086 L 158.243421 221.992086 C 157.820941 221.992086 157.483714 221.735446 157.231742 221.220264 C 156.977874 220.705081 156.852835 220.06443 156.852835 219.302113 C 156.852835 216.452451 157.697796 215.02667 159.387718 215.02667 C 160.573695 215.02667 161.56264 215.389769 162.356449 216.117868 C 163.150257 216.838363 163.546214 217.663415 163.546214 218.591123 C 164.099417 217.50943 164.843968 216.646357 165.781761 216.001904 C 166.719554 215.351748 167.676292 215.02667 168.650081 215.02667 C 170.180863 215.02667 171.105394 215.422086 171.42557 216.209118 C 171.501351 216.422034 171.541136 216.733805 171.541136 217.14443 C 171.541136 217.553154 171.414203 218.285055 171.16223 219.340133 C 170.914046 220.397113 170.65639 221.163232 170.389261 221.636592 C 170.125921 222.111852 169.968675 222.347581 169.917523 222.347581 C 169.866371 222.347581 169.621976 222.250628 169.182445 222.054821 C 168.750492 221.85331 168.360218 221.752555 168.015414 221.752555 C 167.015101 221.752555 166.514945 222.543389 166.514945 224.126956 Z M 182.624144 234.972399 C 182.624144 235.291774 181.515843 235.451461 179.299242 235.451461 C 176.66016 235.343102 175.341566 235.172008 175.341566 234.934378 L 175.341566 220.925602 L 173.32389 220.925602 C 172.791527 220.925602 172.526292 220.013102 172.526292 218.190003 C 172.526292 217.714743 172.573656 217.134925 172.666488 216.45055 C 172.75932 215.764274 172.952562 215.422086 173.246214 215.422086 L 175.341566 215.422086 L 175.341566 211.935576 C 175.341566 211.408988 176.453656 211.146644 178.67973 211.146644 C 180.911488 211.146644 182.027367 211.357659 182.027367 211.779691 L 182.027367 214.31568 L 182.067152 215.422086 L 185.437523 215.422086 C 185.886527 215.422086 186.110081 216.345993 186.110081 218.197607 C 186.110081 220.041618 185.886527 220.963623 185.437523 220.963623 L 182.624144 220.963623 Z M 195.326976 234.972399 C 195.326976 235.183415 194.118265 235.289873 191.700843 235.289873 C 189.289105 235.289873 188.082289 235.196722 188.082289 235.012321 L 188.082289 215.576071 C 188.082289 215.395472 189.289105 215.306123 191.700843 215.306123 C 194.118265 215.306123 195.326976 215.382165 195.326976 215.53805 Z M 195.326976 213.20167 C 195.326976 213.387972 194.118265 213.481123 191.700843 213.481123 C 189.289105 213.481123 188.082289 213.401279 188.082289 213.241592 L 188.082289 207.54417 C 188.082289 207.279925 189.289105 207.148753 191.700843 207.148753 C 194.118265 207.148753 195.326976 207.228597 195.326976 207.388284 Z M 205.383148 225.394951 C 205.383148 227.982269 206.358831 229.274977 208.312093 229.274977 C 209.579535 229.274977 210.636683 229.025941 211.481644 228.525967 C 211.873812 228.525967 212.195882 229.20654 212.447855 230.565784 C 212.701722 231.921227 212.826761 232.845133 212.826761 233.333701 C 212.826761 233.82417 212.760453 234.145446 212.625941 234.29943 C 211.229671 235.172008 209.318089 235.607347 206.8893 235.607347 C 204.462406 235.607347 202.395472 234.704352 200.690394 232.900264 C 198.989105 231.092373 198.13846 228.62292 198.13846 225.495706 C 198.13846 222.366592 198.975843 219.840107 200.650609 217.918154 C 202.325374 215.990498 204.555238 215.02667 207.338304 215.02667 C 210.127054 215.02667 212.061371 215.699639 213.145042 217.045576 C 213.381859 217.332633 213.49932 217.760368 213.49932 218.328779 C 213.49932 218.89529 213.395121 219.58917 213.182933 220.408519 C 212.7093 222.098545 212.087894 223.07568 211.320609 223.338024 C 211.21641 223.362738 211.064847 223.376045 210.864027 223.376045 C 210.666996 223.376045 210.422601 223.220159 210.128949 222.904586 C 209.104007 221.874222 208.279886 221.35904 207.654691 221.35904 C 207.037074 221.35904 206.502816 221.676514 206.055706 222.30956 C 205.606703 222.942607 205.383148 223.971071 205.383148 225.394951 Z M 222.877249 234.896357 C 222.877249 235.132086 221.532132 235.251852 218.841898 235.251852 C 216.727601 235.225238 215.672347 235.12068 215.672347 234.934378 L 215.672347 207.975706 C 215.672347 207.584092 216.95305 207.388284 219.514456 207.388284 C 221.755687 207.466227 222.877249 207.597399 222.877249 207.783701 Z M 234.988988 235.607347 C 232.374535 235.607347 230.171195 234.717659 228.378968 232.940185 C 226.584847 231.157008 225.688734 228.687555 225.688734 225.533727 C 225.688734 222.379899 226.550746 219.840107 228.278558 217.918154 C 230.01016 215.990498 232.194554 215.02667 234.833636 215.02667 C 237.472718 215.02667 239.511234 215.699639 240.949183 217.045576 C 242.387132 218.389613 243.10516 220.026409 243.10516 221.954066 C 243.10516 226.225706 240.651742 228.362477 235.7468 228.362477 L 233.009203 228.362477 C 233.009203 229.157113 233.225179 229.704613 233.659027 230.008779 C 234.096664 230.312946 234.73891 230.465029 235.583871 230.465029 C 237.432933 230.465029 239.189164 230.042998 240.848773 229.197034 C 240.873402 229.172321 240.992757 229.354821 241.20305 229.746435 C 241.837718 230.885159 242.154105 231.845185 242.154105 232.622711 C 242.154105 233.400238 241.904027 233.907816 241.405765 234.145446 C 241.405765 234.145446 237.601546 235.607347 234.988988 235.607347 Z M 236.457249 222.703076 C 236.457249 221.59667 235.915414 221.041566 234.833636 221.041566 C 234.33348 221.041566 233.903421 221.193649 233.54346 221.497816 C 233.187289 221.801982 233.009203 222.243024 233.009203 222.81904 L 233.009203 224.049014 L 235.150023 224.049014 C 236.021507 224.049014 236.457249 223.600368 236.457249 222.703076 Z M 266.182445 218.505576 C 266.680706 218.505576 266.930785 219.431383 266.930785 221.281097 C 266.930785 221.832399 267.705648 222.484456 267.586292 223.237269 C 267.468831 223.990081 266.419261 224.366488 266.104769 224.366488 L 261.078578 224.366488 L 261.078578 228.324456 L 268.361156 228.324456 C 268.81016 228.324456 269.11139 228.904274 269.266742 230.063909 C 269.348206 230.569586 269.389886 231.10568 269.389886 231.672191 C 269.389886 232.238701 269.310316 232.970602 269.149281 233.867894 C 268.99014 234.763284 268.7268 235.21193 268.361156 235.21193 L 254.82473 235.21193 C 253.820628 235.21193 253.316683 234.803206 253.316683 233.983857 L 253.316683 208.532711 C 253.316683 207.848336 253.621703 207.504248 254.229847 207.504248 L 268.400941 207.504248 C 268.952249 207.504248 269.226956 208.671488 269.226956 211.007868 C 269.226956 213.342347 268.952249 214.509586 268.400941 214.509586 L 261.078578 214.509586 L 261.078578 218.505576 Z M 280.902953 234.972399 C 280.902953 235.158701 279.953792 235.251852 278.057367 235.251852 C 275.418285 235.173909 274.099691 235.02943 274.099691 234.818415 L 274.099691 221.992086 L 273.07096 221.992086 C 272.38514 221.992086 271.938031 221.412269 271.725843 220.252633 C 271.669007 219.908545 271.640589 219.564456 271.640589 219.22417 C 271.640589 218.404821 271.79973 217.585472 272.119906 216.766123 C 272.593539 215.606488 273.330511 215.02667 274.330824 215.02667 C 275.33682 215.02667 276.232933 215.2643 277.021058 215.737659 C 277.814867 216.21292 278.345335 216.686279 278.614359 217.16154 C 280.273968 215.737659 282.249964 215.02667 284.544242 215.02667 C 286.842308 215.02667 288.503812 215.64831 289.530648 216.889691 C 290.561273 218.127269 291.076585 220.157581 291.076585 222.982529 L 291.076585 234.856435 C 291.076585 235.172008 289.947445 235.327894 287.691058 235.327894 C 285.43846 235.327894 284.311214 235.172008 284.311214 234.856435 L 284.311214 223.415967 C 284.311214 222.096644 283.850843 221.436982 282.928206 221.436982 C 282.659183 221.436982 282.289749 221.549144 281.814222 221.775368 C 281.340589 221.99779 281.03557 222.16318 280.902953 222.27154 Z M 301.721956 235.21193 C 299.166234 235.21193 297.186449 234.388779 295.784496 232.738675 C 294.388226 231.088571 293.691039 228.649534 293.691039 225.417764 C 293.691039 222.185993 294.607992 219.651904 296.441898 217.817399 C 298.277699 215.982894 300.717855 215.066592 303.764261 215.066592 C 306.814456 215.066592 309.330394 215.737659 311.308285 217.083597 L 311.308285 236.797399 C 311.308285 238.75167 310.514476 240.24779 308.928753 241.28956 C 307.344925 242.32943 305.313988 242.850316 302.835941 242.850316 C 300.355999 242.850316 298.141292 242.532842 296.188031 241.899795 C 295.919007 241.266748 295.784496 240.698336 295.784496 240.198363 C 295.784496 238.508336 296.062992 237.268857 296.619984 236.479925 C 298.387581 237.244144 300.274535 237.624352 302.278949 237.624352 C 303.732054 237.624352 304.459554 237.111071 304.459554 236.086409 L 304.459554 234.896357 C 303.32473 235.107373 302.41346 235.21193 301.721956 235.21193 Z M 303.54639 221.513024 C 301.778792 221.513024 300.895941 222.847555 300.895941 225.518519 C 300.895941 227.178128 301.238851 228.25792 301.922777 228.757894 C 302.371781 229.101982 302.820785 229.274977 303.267894 229.274977 C 303.716898 229.274977 304.114749 229.236956 304.459554 229.159014 L 304.459554 221.636592 C 304.139378 221.554847 303.836253 221.513024 303.54639 221.513024 Z M 322.109007 234.972399 C 322.109007 235.183415 320.900296 235.289873 318.482874 235.289873 C 316.071136 235.289873 314.86432 235.196722 314.86432 235.012321 L 314.86432 215.576071 C 314.86432 215.395472 316.071136 215.306123 318.482874 215.306123 C 320.900296 215.306123 322.109007 215.382165 322.109007 215.53805 Z M 322.109007 213.20167 C 322.109007 213.387972 320.900296 213.481123 318.482874 213.481123 C 316.071136 213.481123 314.86432 213.401279 314.86432 213.241592 L 314.86432 207.54417 C 314.86432 207.279925 316.071136 207.148753 318.482874 207.148753 C 320.900296 207.148753 322.109007 207.228597 322.109007 207.388284 Z M 333.942249 234.972399 C 333.942249 235.158701 332.994984 235.251852 331.098558 235.251852 C 328.459476 235.173909 327.138988 235.02943 327.138988 234.818415 L 327.138988 221.992086 L 326.112152 221.992086 C 325.426331 221.992086 324.977328 221.412269 324.76514 220.252633 C 324.710199 219.908545 324.681781 219.564456 324.681781 219.22417 C 324.681781 218.404821 324.840921 217.585472 325.161097 216.766123 C 325.63473 215.606488 326.371703 215.02667 327.372015 215.02667 C 328.376117 215.02667 329.27223 215.2643 330.062249 215.737659 C 330.856058 216.21292 331.386527 216.686279 331.653656 217.16154 C 333.313265 215.737659 335.291156 215.02667 337.583539 215.02667 C 339.883499 215.02667 341.545003 215.64831 342.569945 216.889691 C 343.60057 218.127269 344.115882 220.157581 344.115882 222.982529 L 344.115882 234.856435 C 344.115882 235.172008 342.988636 235.327894 340.730355 235.327894 C 338.477757 235.327894 337.352406 235.172008 337.352406 234.856435 L 337.352406 223.415967 C 337.352406 222.096644 336.89014 221.436982 335.967503 221.436982 C 335.700374 221.436982 335.329046 221.549144 334.855414 221.775368 C 334.379886 221.99779 334.076761 222.16318 333.942249 222.27154 Z M 356.030589 235.607347 C 353.418031 235.607347 351.214691 234.717659 349.42057 232.940185 C 347.626449 231.157008 346.730335 228.687555 346.730335 225.533727 C 346.730335 222.379899 347.594242 219.840107 349.32016 217.918154 C 351.051761 215.990498 353.23805 215.02667 355.875238 215.02667 C 358.51432 215.02667 360.552835 215.699639 361.990785 217.045576 C 363.428734 218.389613 364.148656 220.026409 364.148656 221.954066 C 364.148656 226.225706 361.695238 228.362477 356.788402 228.362477 L 354.050804 228.362477 C 354.050804 229.157113 354.268675 229.704613 354.700628 230.008779 C 355.138265 230.312946 355.780511 230.465029 356.625472 230.465029 C 358.476429 230.465029 360.230765 230.042998 361.890374 229.197034 C 361.916898 229.172321 362.034359 229.354821 362.246546 229.746435 C 362.881214 230.885159 363.197601 231.845185 363.197601 232.622711 C 363.197601 233.400238 362.947523 233.907816 362.447367 234.145446 C 362.447367 234.145446 358.643148 235.607347 356.030589 235.607347 Z M 357.498851 222.703076 C 357.498851 221.59667 356.95891 221.041566 355.875238 221.041566 C 355.376976 221.041566 354.945023 221.193649 354.585062 221.497816 C 354.22889 221.801982 354.050804 222.243024 354.050804 222.81904 L 354.050804 224.049014 L 356.193519 224.049014 C 357.065003 224.049014 357.498851 223.600368 357.498851 222.703076 Z M 357.498851 222.703076 " transform="matrix(2.061856,0,0,2.054795,-194.845408,-219.862967)"/>
<path style=" stroke:none;fill-rule:nonzero;fill:rgb(100%,100%,100%);fill-opacity:1;" d="M 51.4375 263.609375 C 46.496094 263.609375 44.023438 263.070312 44.023438 261.988281 L 44.023438 209.28125 C 44.023438 207.4375 44.863281 206.515625 46.542969 206.515625 L 60.90625 206.515625 C 68.960938 206.515625 74.765625 208.175781 78.328125 211.488281 C 81.898438 214.792969 83.683594 219.589844 83.683594 225.882812 C 83.683594 231.082031 81.992188 235.851562 78.613281 240.195312 C 76.933594 242.355469 74.460938 244.085938 71.1875 245.390625 C 67.921875 246.691406 64.121094 247.34375 59.773438 247.34375 L 59.773438 261.910156 C 59.773438 262.554688 58.753906 263 56.710938 263.242188 C 54.671875 263.488281 52.914062 263.609375 51.4375 263.609375 Z M 59.773438 220.671875 L 59.773438 233.523438 L 60.824219 233.523438 C 62.726562 233.523438 64.332031 232.929688 65.640625 231.742188 C 66.945312 230.546875 67.597656 228.863281 67.597656 226.691406 C 67.597656 224.519531 67.148438 222.972656 66.246094 222.054688 C 65.351562 221.132812 63.761719 220.671875 61.480469 220.671875 Z M 93.554688 233.917969 C 92.035156 231.207031 91.277344 229 91.277344 227.296875 C 91.277344 225.589844 91.738281 224.492188 92.664062 224.007812 C 95.757812 222.652344 100.007812 221.972656 105.414062 221.972656 C 110.835938 221.972656 114.660156 223.234375 116.890625 225.753906 C 119.125 228.273438 120.238281 232.003906 120.238281 236.9375 L 120.238281 249.789062 L 123.011719 249.789062 C 123.9375 249.789062 124.660156 250.335938 125.179688 251.425781 C 125.703125 252.503906 125.960938 253.992188 125.960938 255.890625 C 125.960938 257.785156 125.484375 259.652344 124.527344 261.496094 C 123.570312 263.339844 122.28125 264.261719 120.65625 264.261719 C 117.710938 264.261719 115.339844 263.476562 113.546875 261.910156 C 112.738281 261.253906 112.117188 260.464844 111.679688 259.542969 C 109.171875 262.6875 105.277344 264.261719 99.996094 264.261719 C 96.03125 264.261719 92.691406 262.851562 89.96875 260.035156 C 87.25 257.21875 85.890625 253.882812 85.890625 250.027344 C 85.890625 241.195312 91.191406 236.777344 101.796875 236.777344 L 106.292969 236.777344 L 106.292969 235.953125 C 106.292969 234.542969 106.058594 233.636719 105.589844 233.234375 C 105.132812 232.832031 104.0625 232.632812 102.371094 232.632812 C 100.300781 232.632812 97.359375 233.0625 93.554688 233.917969 Z M 100.089844 248.898438 C 100.089844 250.085938 100.414062 250.992188 101.0625 251.617188 C 101.710938 252.242188 102.542969 252.554688 103.550781 252.554688 C 104.558594 252.554688 105.472656 252.144531 106.292969 251.328125 L 106.292969 245.070312 L 103.996094 245.070312 C 101.394531 245.070312 100.089844 246.347656 100.089844 248.898438 Z M 148.484375 263.371094 C 148.484375 263.753906 146.011719 263.941406 141.058594 263.941406 C 136.105469 263.828125 133.628906 263.609375 133.628906 263.292969 L 133.628906 236.285156 L 131.429688 236.285156 C 130.558594 236.285156 129.863281 235.757812 129.34375 234.699219 C 128.820312 233.640625 128.5625 232.324219 128.5625 230.757812 C 128.5625 224.902344 130.304688 221.972656 133.789062 221.972656 C 136.234375 221.972656 138.273438 222.71875 139.910156 224.214844 C 141.546875 225.695312 142.363281 227.390625 142.363281 229.296875 C 143.503906 227.074219 145.039062 225.300781 146.972656 223.976562 C 148.90625 222.640625 150.878906 221.972656 152.886719 221.972656 C 156.042969 221.972656 157.949219 222.785156 158.609375 224.402344 C 158.765625 224.839844 158.847656 225.480469 158.847656 226.328125 C 158.847656 227.164062 158.585938 228.667969 158.066406 230.835938 C 157.554688 233.007812 157.023438 234.582031 156.472656 235.554688 C 155.929688 236.53125 155.605469 237.015625 155.5 237.015625 C 155.394531 237.015625 154.890625 236.816406 153.984375 236.414062 C 153.09375 236 152.289062 235.792969 151.578125 235.792969 C 149.515625 235.792969 148.484375 237.417969 148.484375 240.671875 Z M 181.699219 262.957031 C 181.699219 263.613281 179.414062 263.941406 174.84375 263.941406 C 169.402344 263.71875 166.683594 263.367188 166.683594 262.878906 L 166.683594 234.09375 L 162.523438 234.09375 C 161.425781 234.09375 160.878906 232.21875 160.878906 228.472656 C 160.878906 227.496094 160.976562 226.304688 161.167969 224.898438 C 161.359375 223.488281 161.757812 222.785156 162.363281 222.785156 L 166.683594 222.785156 L 166.683594 215.621094 C 166.683594 214.539062 168.976562 214 173.566406 214 C 178.167969 214 180.46875 214.433594 180.46875 215.300781 L 180.46875 220.511719 L 180.550781 222.785156 L 187.5 222.785156 C 188.425781 222.785156 188.886719 224.683594 188.886719 228.488281 C 188.886719 232.277344 188.425781 234.171875 187.5 234.171875 L 181.699219 234.171875 Z M 207.890625 262.957031 C 207.890625 263.390625 205.398438 263.609375 200.414062 263.609375 C 195.441406 263.609375 192.953125 263.417969 192.953125 263.039062 L 192.953125 223.101562 C 192.953125 222.730469 195.441406 222.546875 200.414062 222.546875 C 205.398438 222.546875 207.890625 222.703125 207.890625 223.023438 Z M 207.890625 218.222656 C 207.890625 218.605469 205.398438 218.796875 200.414062 218.796875 C 195.441406 218.796875 192.953125 218.632812 192.953125 218.304688 L 192.953125 206.597656 C 192.953125 206.054688 195.441406 205.785156 200.414062 205.785156 C 205.398438 205.785156 207.890625 205.949219 207.890625 206.277344 Z M 228.625 243.277344 C 228.625 248.59375 230.636719 251.25 234.664062 251.25 C 237.277344 251.25 239.457031 250.738281 241.199219 249.710938 C 242.007812 249.710938 242.671875 251.109375 243.191406 253.902344 C 243.714844 256.6875 243.972656 258.585938 243.972656 259.589844 C 243.972656 260.597656 243.835938 261.257812 243.558594 261.574219 C 240.679688 263.367188 236.738281 264.261719 231.730469 264.261719 C 226.726562 264.261719 222.464844 262.40625 218.949219 258.699219 C 215.441406 254.984375 213.6875 249.910156 213.6875 243.484375 C 213.6875 237.054688 215.414062 231.863281 218.867188 227.914062 C 222.320312 223.953125 226.917969 221.972656 232.65625 221.972656 C 238.40625 221.972656 242.394531 223.355469 244.628906 226.121094 C 245.117188 226.710938 245.359375 227.589844 245.359375 228.757812 C 245.359375 229.921875 245.144531 231.347656 244.707031 233.03125 C 243.730469 236.503906 242.449219 238.511719 240.867188 239.050781 C 240.652344 239.101562 240.339844 239.128906 239.925781 239.128906 C 239.519531 239.128906 239.015625 238.808594 238.410156 238.160156 C 236.296875 236.042969 234.597656 234.984375 233.308594 234.984375 C 232.035156 234.984375 230.933594 235.636719 230.011719 236.9375 C 229.085938 238.242188 228.625 240.351562 228.625 243.277344 Z M 264.695312 262.800781 C 264.695312 263.285156 261.921875 263.53125 256.375 263.53125 C 252.015625 263.476562 249.839844 263.261719 249.839844 262.878906 L 249.839844 207.484375 C 249.839844 206.679688 252.480469 206.277344 257.761719 206.277344 C 262.382812 206.4375 264.695312 206.707031 264.695312 207.089844 Z M 302.898438 261.257812 C 299.464844 263.261719 295.054688 264.261719 289.667969 264.261719 C 284.277344 264.261719 279.734375 262.433594 276.039062 258.78125 C 272.339844 255.117188 270.492188 250.042969 270.492188 243.5625 C 270.492188 237.082031 272.269531 231.863281 275.832031 227.914062 C 279.402344 223.953125 283.90625 221.972656 289.347656 221.972656 C 294.789062 221.972656 298.992188 223.355469 301.957031 226.121094 C 304.921875 228.882812 306.402344 232.246094 306.402344 236.207031 C 306.402344 244.984375 301.34375 249.375 291.230469 249.375 L 285.585938 249.375 C 285.585938 251.007812 286.03125 252.132812 286.925781 252.757812 C 287.828125 253.382812 289.152344 253.695312 290.894531 253.695312 C 294.707031 253.695312 298.328125 252.828125 301.75 251.089844 C 301.800781 251.039062 302.046875 251.414062 302.480469 252.21875 C 303.789062 254.558594 304.441406 256.53125 304.441406 258.128906 C 304.441406 259.726562 303.925781 260.769531 302.898438 261.257812 Z M 292.695312 237.746094 C 292.695312 235.472656 291.578125 234.332031 289.347656 234.332031 C 288.316406 234.332031 287.429688 234.644531 286.6875 235.269531 C 285.953125 235.894531 285.585938 236.800781 285.585938 237.984375 L 285.585938 240.511719 L 290 240.511719 C 291.796875 240.511719 292.695312 239.589844 292.695312 237.746094 Z M 353.984375 229.121094 C 355.011719 229.121094 355.527344 231.023438 355.527344 234.824219 C 355.527344 235.957031 355.40625 237.296875 355.160156 238.84375 C 354.917969 240.390625 354.472656 241.164062 353.824219 241.164062 L 343.460938 241.164062 L 343.460938 249.296875 L 358.476562 249.296875 C 359.402344 249.296875 360.023438 250.488281 360.34375 252.871094 C 360.511719 253.910156 360.597656 255.011719 360.597656 256.175781 C 360.597656 257.339844 360.433594 258.84375 360.101562 260.6875 C 359.773438 262.527344 359.230469 263.449219 358.476562 263.449219 L 330.566406 263.449219 C 328.496094 263.449219 327.457031 262.609375 327.457031 260.925781 L 327.457031 208.628906 C 327.457031 207.222656 328.085938 206.515625 329.339844 206.515625 L 358.558594 206.515625 C 359.695312 206.515625 360.261719 208.914062 360.261719 213.714844 C 360.261719 218.511719 359.695312 220.910156 358.558594 220.910156 L 343.460938 220.910156 L 343.460938 229.121094 Z M 384.335938 262.957031 C 384.335938 263.339844 382.378906 263.53125 378.46875 263.53125 C 373.027344 263.371094 370.308594 263.074219 370.308594 262.640625 L 370.308594 236.285156 L 368.1875 236.285156 C 366.773438 236.285156 365.851562 235.09375 365.414062 232.710938 C 365.296875 232.003906 365.238281 231.296875 365.238281 230.597656 C 365.238281 228.914062 365.566406 227.230469 366.226562 225.546875 C 367.203125 223.164062 368.722656 221.972656 370.785156 221.972656 C 372.859375 221.972656 374.707031 222.460938 376.332031 223.433594 C 377.96875 224.410156 379.0625 225.382812 379.617188 226.359375 C 383.039062 223.433594 387.113281 221.972656 391.84375 221.972656 C 396.582031 221.972656 400.007812 223.25 402.125 225.800781 C 404.25 228.34375 405.3125 232.515625 405.3125 238.320312 L 405.3125 262.71875 C 405.3125 263.367188 402.984375 263.6875 398.332031 263.6875 C 393.6875 263.6875 391.363281 263.367188 391.363281 262.71875 L 391.363281 239.210938 C 391.363281 236.5 390.414062 235.144531 388.511719 235.144531 C 387.957031 235.144531 387.195312 235.375 386.214844 235.839844 C 385.238281 236.296875 384.609375 236.636719 384.335938 236.859375 Z M 427.261719 263.449219 C 421.992188 263.449219 417.910156 261.757812 415.019531 258.367188 C 412.140625 254.976562 410.703125 249.964844 410.703125 243.324219 C 410.703125 236.683594 412.59375 231.476562 416.375 227.707031 C 420.160156 223.9375 425.191406 222.054688 431.472656 222.054688 C 437.761719 222.054688 442.949219 223.433594 447.027344 226.199219 L 447.027344 266.707031 C 447.027344 270.722656 445.390625 273.796875 442.121094 275.9375 C 438.855469 278.074219 434.667969 279.144531 429.558594 279.144531 C 424.445312 279.144531 419.878906 278.492188 415.851562 277.191406 C 415.296875 275.890625 415.019531 274.722656 415.019531 273.695312 C 415.019531 270.222656 415.59375 267.675781 416.742188 266.054688 C 420.386719 267.625 424.277344 268.40625 428.410156 268.40625 C 431.40625 268.40625 432.90625 267.351562 432.90625 265.246094 L 432.90625 262.800781 C 430.566406 263.234375 428.6875 263.449219 427.261719 263.449219 Z M 431.023438 235.300781 C 427.378906 235.300781 425.558594 238.042969 425.558594 243.53125 C 425.558594 246.941406 426.265625 249.160156 427.675781 250.1875 C 428.601562 250.894531 429.527344 251.25 430.449219 251.25 C 431.375 251.25 432.195312 251.171875 432.90625 251.011719 L 432.90625 235.554688 C 432.246094 235.386719 431.621094 235.300781 431.023438 235.300781 Z M 469.296875 262.957031 C 469.296875 263.390625 466.804688 263.609375 461.820312 263.609375 C 456.847656 263.609375 454.359375 263.417969 454.359375 263.039062 L 454.359375 223.101562 C 454.359375 222.730469 456.847656 222.546875 461.820312 222.546875 C 466.804688 222.546875 469.296875 222.703125 469.296875 223.023438 Z M 469.296875 218.222656 C 469.296875 218.605469 466.804688 218.796875 461.820312 218.796875 C 456.847656 218.796875 454.359375 218.632812 454.359375 218.304688 L 454.359375 206.597656 C 454.359375 206.054688 456.847656 205.785156 461.820312 205.785156 C 466.804688 205.785156 469.296875 205.949219 469.296875 206.277344 Z M 493.695312 262.957031 C 493.695312 263.339844 491.742188 263.53125 487.832031 263.53125 C 482.390625 263.371094 479.667969 263.074219 479.667969 262.640625 L 479.667969 236.285156 L 477.550781 236.285156 C 476.136719 236.285156 475.210938 235.09375 474.773438 232.710938 C 474.660156 232.003906 474.601562 231.296875 474.601562 230.597656 C 474.601562 228.914062 474.929688 227.230469 475.589844 225.546875 C 476.566406 223.164062 478.085938 221.972656 480.148438 221.972656 C 482.21875 221.972656 484.066406 222.460938 485.695312 223.433594 C 487.332031 224.410156 488.425781 225.382812 488.976562 226.359375 C 492.398438 223.433594 496.476562 221.972656 501.203125 221.972656 C 505.945312 221.972656 509.371094 223.25 511.484375 225.800781 C 513.609375 228.34375 514.671875 232.515625 514.671875 238.320312 L 514.671875 262.71875 C 514.671875 263.367188 512.347656 263.6875 507.691406 263.6875 C 503.046875 263.6875 500.726562 263.367188 500.726562 262.71875 L 500.726562 239.210938 C 500.726562 236.5 499.773438 235.144531 497.871094 235.144531 C 497.320312 235.144531 496.554688 235.375 495.578125 235.839844 C 494.597656 236.296875 493.972656 236.636719 493.695312 236.859375 Z M 552.46875 261.257812 C 549.035156 263.261719 544.625 264.261719 539.238281 264.261719 C 533.851562 264.261719 529.308594 262.433594 525.609375 258.78125 C 521.910156 255.117188 520.0625 250.042969 520.0625 243.5625 C 520.0625 237.082031 521.84375 231.863281 525.402344 227.914062 C 528.972656 223.953125 533.480469 221.972656 538.917969 221.972656 C 544.359375 221.972656 548.5625 223.355469 551.527344 226.121094 C 554.492188 228.882812 555.976562 232.246094 555.976562 236.207031 C 555.976562 244.984375 550.917969 249.375 540.800781 249.375 L 535.15625 249.375 C 535.15625 251.007812 535.605469 252.132812 536.496094 252.757812 C 537.398438 253.382812 538.722656 253.695312 540.464844 253.695312 C 544.28125 253.695312 547.898438 252.828125 551.320312 251.089844 C 551.375 251.039062 551.617188 251.414062 552.054688 252.21875 C 553.363281 254.558594 554.015625 256.53125 554.015625 258.128906 C 554.015625 259.726562 553.5 260.769531 552.46875 261.257812 Z M 542.265625 237.746094 C 542.265625 235.472656 541.152344 234.332031 538.921875 234.332031 C 537.890625 234.332031 537 234.644531 536.257812 235.269531 C 535.523438 235.894531 535.15625 236.800781 535.15625 237.984375 L 535.15625 240.511719 L 539.574219 240.511719 C 541.371094 240.511719 542.265625 239.589844 542.265625 237.746094 Z M 542.265625 237.746094 "/>
<path style="fill:none;stroke-width:5.5;stroke-linecap:butt;stroke-linejoin:miter;stroke:rgb(0%,0%,0%);stroke-opacity:0.501961;stroke-miterlimit:10;" d="M 197.967953 126.474248 C 199.572621 126.413415 201.021937 125.500915 201.772171 124.080836 L 203.479144 120.854769 C 204.288109 119.328232 206.593753 119.854821 206.660062 121.579066 L 206.804046 125.227165 C 206.866566 126.831644 207.777835 128.280238 209.196839 129.031149 L 212.423226 130.738284 C 213.948324 131.546227 213.423539 133.852191 211.697621 133.922529 L 208.048753 134.063206 C 206.44598 134.125941 204.998558 135.03654 204.248324 136.454717 L 202.539456 139.680784 C 201.732386 141.207321 199.426742 140.682633 199.358539 138.956488 L 199.216449 135.308389 C 199.153929 133.70581 198.240765 132.255316 196.821761 131.506305 L 193.595374 129.79917 C 192.068382 128.991227 192.595062 126.685264 194.319085 126.616826 Z M 197.967953 126.474248 " transform="matrix(2.061856,0,0,2.054795,-194.845408,-219.862967)"/>
<path style=" stroke:none;fill-rule:nonzero;fill:rgb(100%,100%,100%);fill-opacity:1;" d="M 213.335938 40.015625 C 216.644531 39.890625 219.632812 38.015625 221.179688 35.097656 L 224.699219 28.46875 C 226.367188 25.332031 231.121094 26.414062 231.257812 29.957031 L 231.554688 37.453125 C 231.683594 40.75 233.5625 43.726562 236.488281 45.269531 L 243.140625 48.777344 C 246.285156 50.4375 245.203125 55.175781 241.644531 55.320312 L 234.121094 55.609375 C 230.816406 55.738281 227.832031 57.609375 226.285156 60.523438 L 222.761719 67.152344 C 221.097656 70.289062 216.34375 69.210938 216.203125 65.664062 L 215.910156 58.167969 C 215.78125 54.875 213.898438 51.894531 210.972656 50.355469 L 204.320312 46.847656 C 201.171875 45.1875 202.257812 40.449219 205.8125 40.308594 Z M 213.335938 40.015625 "/>
<path style="fill:none;stroke-width:4;stroke-linecap:butt;stroke-linejoin:miter;stroke:rgb(0%,0%,0%);stroke-opacity:0.501961;stroke-miterlimit:10;" d="M 197.172249 170.922503 C 197.742503 170.181097 197.875121 169.192555 197.517054 168.327581 L 196.708089 166.360003 C 196.325394 165.428493 197.420433 164.592034 198.218031 165.20417 L 199.906058 166.498779 C 200.64682 167.069092 201.635765 167.202165 202.501566 166.844769 L 204.468089 166.034925 C 205.398304 165.652816 206.235687 166.747816 205.625648 167.546253 L 204.329789 169.234378 C 203.759535 169.975784 203.628812 170.964326 203.984984 171.827399 L 204.792054 173.794977 C 205.174749 174.726488 204.081605 175.562946 203.284007 174.95081 L 201.59598 173.656201 C 200.853324 173.085889 199.864378 172.954717 199.000472 173.312113 L 197.033949 174.121956 C 196.101839 174.504066 195.266351 173.409066 195.87639 172.610628 Z M 197.172249 170.922503 " transform="matrix(2.061856,0,0,2.054795,-194.845408,-219.862967)"/>
<path style=" stroke:none;fill-rule:nonzero;fill:rgb(100%,100%,100%);fill-opacity:1;" d="M 211.695312 131.347656 C 212.871094 129.824219 213.144531 127.792969 212.40625 126.015625 L 210.738281 121.972656 C 209.949219 120.058594 212.207031 118.339844 213.851562 119.597656 L 217.332031 122.257812 C 218.859375 123.429688 220.898438 123.703125 222.683594 122.96875 L 226.738281 121.304688 C 228.65625 120.519531 230.382812 122.769531 229.125 124.410156 L 226.453125 127.878906 C 225.277344 129.402344 225.007812 131.433594 225.742188 133.207031 L 227.40625 137.25 C 228.195312 139.164062 225.941406 140.882812 224.296875 139.625 L 220.816406 136.964844 C 219.285156 135.792969 217.246094 135.523438 215.464844 136.257812 L 211.410156 137.921875 C 209.488281 138.707031 207.765625 136.457031 209.023438 134.816406 Z M 211.695312 131.347656 "/>
<path style="fill:none;stroke-width:4.5;stroke-linecap:butt;stroke-linejoin:miter;stroke:rgb(0%,0%,0%);stroke-opacity:0.501961;stroke-miterlimit:10;" d="M 237.800472 131.924534 C 238.734476 131.871305 239.569964 131.323805 239.99055 130.489248 L 240.951078 128.590107 C 241.405765 127.692816 242.754671 127.97417 242.811507 128.97792 L 242.934652 131.101383 C 242.987699 132.034795 243.535218 132.869352 244.368812 133.291383 L 246.267132 134.251409 C 247.16514 134.705758 246.884749 136.055498 245.880648 136.11443 L 243.756878 136.236097 C 242.822874 136.289326 241.989281 136.836826 241.568695 137.671383 L 240.606273 139.568623 C 240.15348 140.465915 238.804574 140.186461 238.745843 139.18081 L 238.622699 137.057347 C 238.569652 136.123935 238.022132 135.289378 237.186644 134.869248 L 235.288324 133.909222 C 234.39221 133.454873 234.672601 132.105133 235.676703 132.046201 Z M 237.800472 131.924534 " transform="matrix(2.061856,0,0,2.054795,-194.845408,-219.862967)"/>
<path style=" stroke:none;fill-rule:nonzero;fill:rgb(100%,100%,100%);fill-opacity:1;" d="M 295.464844 51.214844 C 297.390625 51.105469 299.113281 49.980469 299.980469 48.265625 L 301.960938 44.363281 C 302.898438 42.519531 305.679688 43.097656 305.796875 45.160156 L 306.050781 49.523438 C 306.160156 51.441406 307.289062 53.15625 309.007812 54.023438 L 312.921875 55.996094 C 314.773438 56.929688 314.195312 59.703125 312.125 59.824219 L 307.746094 60.074219 C 305.820312 60.183594 304.101562 61.308594 303.234375 63.023438 L 301.25 66.921875 C 300.316406 68.765625 297.535156 68.191406 297.414062 66.125 L 297.160156 61.761719 C 297.050781 59.84375 295.921875 58.128906 294.199219 57.265625 L 290.285156 55.292969 C 288.4375 54.359375 289.015625 51.585938 291.085938 51.464844 Z M 295.464844 51.214844 "/>
</g>
</svg>
