<svg xmlns="http://www.w3.org/2000/svg" width="600" height="300" viewBox="0 0 600 300"><path style="fill:#005fff;stroke:none" d="M0 0h600v300H0z"/><path style="stroke:none;fill-rule:nonzero;fill:#006bff" d="M598.484 0c1.082 0 1.504 207.723 1.504 207.723s-100.57 15.082-144.234 10.949c-43.668-4.133-67.664-39.645-105.352-34.57-37.687 5.07-41.02 49.66-75.925 58.972-34.907 9.309-52.5-19.52-90.7-14.527-38.195 4.996-49.183 36.031-89.793 38.121-40.605 2.094-93.972.152-93.972-28.66V0zm0 0"/><path style="stroke:none;fill-rule:nonzero;fill:#07f" d="M588.55 0c8.938 0 21.102 149.242-54.386 168.707-33.996 8.766-55.535-29.035-83.348-33.016-27.808-3.98-37.53 2.434-71.074 10.91-33.543 8.477-48.383-23.148-86.172-10.03-37.785 13.117-51.066 57.222-76.91 66.644-25.847 9.418-41.164-18.707-68.289-13.715-27.121 4.988-15.508 36.727-55.887 36.559S0 211.746 0 188.883V0zm0 0"/><path style="stroke:none;fill-rule:nonzero;fill:#0084ff" d="M564.95 0c14.155 0-5.184 60.633-76.485 92.18-15.426 6.824-84.66-4.965-117.766-3.524-60.512 2.633-94.426 15.801-123.969 29.547-51.902 24.152-53.671 34.305-101.093 47.008-37.196 9.96-81.024-16.496-109.16-21.156C11.516 139.918 0 158.62 0 150.082V0zm0 0"/><path style="stroke:none;fill-rule:nonzero;fill:#0090ff" d="M496.906 0c14.16 0-22.707 29.477-94.008 48.324-43.625 11.535-110.464 9.594-156.168 22.301-51.902 14.43-60.886 31.547-108.308 39.137C68.234 120.996 0 100.527 0 89.676V0zm0 0"/><path style="stroke:none;fill-rule:nonzero;fill:#99dfff" d="m593.617 109.54-26.597.972 12.453-23.442Zm0 0"/><path style="stroke:none;fill-rule:nonzero;fill:#66cfff" d="m564.172 123.79-25.766-6.653 18.664-18.914Zm0 0"/><path style="stroke:none;fill-rule:nonzero;fill:#33beff" d="m532.652 129.09-22.582-14.035 23.489-12.477Zm-22.308-2.36-26.54-2.007 15.012-21.903Zm-21.172 10.704-25.774 6.617 7.133-25.551Zm-16.875 16.839-21.668 15.407-2.555-26.403Zm0 0"/><path style="stroke:none;fill-rule:nonzero;fill:#66cfff" d="m457.488 185.457-25.691 6.934 6.82-25.637Zm0 0"/><path style="stroke:none;fill-rule:nonzero;fill:#33beff" d="m435.004 208.71-26.598.974 12.453-23.446Zm0 0"/><path style="stroke:none;fill-rule:nonzero;fill:#66cfff" d="m405.559 222.96-25.766-6.651 18.664-18.914Zm0 0"/><path style="stroke:none;fill-rule:nonzero;fill:#99dfff" d="m374.04 228.262-22.587-14.035 23.488-12.477Zm0 0"/><path style="stroke:none;fill-rule:nonzero;fill:#33beff" d="m351.73 225.902-26.539-2.007 15.012-21.903Zm0 0"/><path style="stroke:none;fill-rule:nonzero;fill:#66cfff" d="m330.555 236.605-25.774 6.618 7.137-25.551Zm0 0"/><path style="stroke:none;fill-rule:nonzero;fill:#33beff" d="m313.68 253.445-21.664 15.407-2.555-26.403Zm244.715-113.816 26.597-.973-12.453 23.442Zm19.828-15.25 21.625-7.363.082 15.55-1.703 9.309ZM301.59 292.902l21.492-15.648 2.473 22.73-7.79.043Zm15.332-31.07 26.32-3.937-9.734 24.683Zm26.473-18.559 26.19 4.72-17.19 20.245Zm0 0"/><path style="stroke:none;fill-rule:nonzero;fill:#66cfff" d="m375.555 233.906 22.738 13.781-23.344 12.739Zm0 0"/><path style="stroke:none;fill-rule:nonzero;fill:#33beff" d="m400.879 235.633 26.129 5.039-17.442 20.035Zm0 0"/><path style="stroke:none;fill-rule:nonzero;fill:#66cfff" d="m426.21 228.18 26.599-.973-12.454 23.441Zm0 0"/><path style="stroke:none;fill-rule:nonzero;fill:#33beff" d="m446.04 212.934 25.206-8.52-5.203 26.012Zm14.163-19.204 21.492-15.648 2.852 26.371Zm0 0"/><path style="stroke:none;fill-rule:nonzero;fill:#99dfff" d="m475.54 162.66 26.32-3.937-9.739 24.683Zm0 0"/><path style="stroke:none;fill-rule:nonzero;fill:#66cfff" d="m502.008 144.105 26.191 4.715-17.191 20.246Zm0 0"/><path style="stroke:none;fill-rule:nonzero;fill:#99dfff" d="m534.168 134.734 22.742 13.782-23.347 12.738ZM8.605 146.715l23.313 1.09-12.602 19.578Zm0 0"/><path style="stroke:none;fill-rule:nonzero;fill:#33beff" d="m35.383 136.406 22.031 7.696-17.7 15.164Zm0 0"/><path style="stroke:none;fill-rule:nonzero;fill:#66cfff" d="m63.316 134.074 18.707 13.91-21.441 9.192Zm0 0"/><path style="stroke:none;fill-rule:nonzero;fill:#33beff" d="m82.64 137.762 23.048 3.687-14.727 18.047Zm19.29-7.812 23.011-3.903-8.113 21.808Zm15.984-13.485 20.063-11.883.296 23.258Zm15.231-26.172 22.957-4.188-7.84 21.91Zm0 0"/><path style="stroke:none;fill-rule:nonzero;fill:#99dfff" d="m154.496 71.61 23.316 1.09-12.601 19.577Zm0 0"/><path style="stroke:none;fill-rule:nonzero;fill:#66cfff" d="m181.277 61.305 22.028 7.691-17.696 15.164Zm0 0"/><path style="stroke:none;fill-rule:nonzero;fill:#33beff" d="m209.21 58.969 18.708 13.91-21.441 9.191Zm19.325 3.687 23.043 3.688-14.726 18.047Zm19.289-7.808 23.008-3.907-8.11 21.813Zm0 0"/><path style="stroke:none;fill-rule:nonzero;fill:#66cfff" d="m263.805 41.36 20.066-11.883.297 23.257ZM41.598 122.984l-23.317-1.086 12.602-19.578Zm0 0"/><path style="stroke:none;fill-rule:nonzero;fill:#33beff" d="M23.148 134.867.496 140.473l6.453-22.356ZM277.27 7.762l-19.93 12.105-.457-19.804 6.308.039Zm-15.68 26.031-23.293 1.523 10.32-20.863Zm0 0"/><path style="stroke:none;fill-rule:nonzero;fill:#66cfff" d="m237.094 48.082-22.543-6.031 16.512-16.442Zm0 0"/><path style="stroke:none;fill-rule:nonzero;fill:#99dfff" d="m208.3 53.926-18.859-13.703 21.336-9.43Zm0 0"/><path style="stroke:none;fill-rule:nonzero;fill:#33beff" d="m186.297 50.57-22.465-6.308 16.711-16.239Zm-22.684 4.664-23.316-1.086 12.601-19.578Zm0 0"/><path style="stroke:none;fill-rule:nonzero;fill:#66cfff" d="m145.164 67.117-22.652 5.606 6.453-22.356Zm0 0"/><path style="stroke:none;fill-rule:nonzero;fill:#33beff" d="m131.375 82.867-19.93 12.106-.554-23.254Zm0 0"/><path style="stroke:none;fill-rule:nonzero;fill:#66cfff" d="m115.695 108.898-23.289 1.524 10.32-20.863Zm0 0"/><path style="stroke:none;fill-rule:nonzero;fill:#99dfff" d="m91.2 123.184-22.544-6.032 16.512-16.437Zm0 0"/><path style="stroke:none;fill-rule:nonzero;fill:#33beff" d="m62.41 129.027-18.863-13.699 21.336-9.43Zm0 0"/><g transform="translate(-60, 15) scale(1.2)"><path style="fill:none;stroke-width:6;stroke-linecap:butt;stroke-linejoin:miter;stroke:#000;stroke-opacity:.501961;stroke-miterlimit:10" d="M285.626 193.938c1.468 1.118 1.266 3.852-.453 6.105-1.534 2.011-3.759 2.96-5.26 2.34-.156-.063-65.525-49.859-65.537-49.866-1.466-1.118-1.263-3.852.453-6.105 1.719-2.252 4.299-3.17 5.767-2.053.074.057 64.956 49.522 65.03 49.58Zm0 0" transform="matrix(2.06186 0 0 2.0548 -194.845 -219.863)"/><path style="stroke:none;fill-rule:nonzero;fill:#000" d="m262.262 104.992 12.82-16.762 102.727 78.051-12.82 16.762Zm0 0"/><path style="stroke:none;fill-rule:nonzero;fill:#fff" d="M248.102 80.984c3.543-4.629 8.863-6.515 11.89-4.218 3.024 2.3 2.61 7.914-.933 12.543-3.54 4.629-8.864 6.52-11.891 4.218-3.023-2.297-2.606-7.914.934-12.543m0 0"/><path style="stroke:none;fill-rule:nonzero;fill:#fff" d="m247.625 93.875 12.82-16.762 22.047 16.75s-.097 4.782-3.8 10.133c-3.38 4.887-9.02 6.625-9.02 6.625Zm0 0"/><path style="fill:none;stroke-width:.75;stroke-linecap:round;stroke-linejoin:miter;stroke:#999;stroke-opacity:1;stroke-miterlimit:10" d="M220.375 144.369s2.906 1.922-.116 5.942c-3.024 4.025-5.892 1.86-5.892 1.86" transform="matrix(2.06186 0 0 2.0548 -194.845 -219.863)"/><path style="stroke:none;fill-rule:nonzero;fill:#fff" d="M381.254 195.398c-3.027-2.296-2.61-7.914.93-12.539 3.543-4.629 8.863-6.52 11.89-4.218 3.028 2.297 2.61 7.914-.933 12.543-3.54 4.625-8.864 6.515-11.887 4.214m0 0"/><path style="stroke:none;fill-rule:nonzero;fill:#fff" d="M358.75 178.305s5.645-1.739 9.48-6.282c4.2-4.976 3.344-10.48 3.344-10.48l22.047 16.75-12.824 16.762Zm0 0"/><path style="fill:none;stroke-width:5.5;stroke-linecap:butt;stroke-linejoin:miter;stroke:#000;stroke-opacity:.501961;stroke-miterlimit:10" d="M197.968 126.474a4.5 4.5 0 0 0 3.804-2.393l1.707-3.226c.81-1.527 3.115-1 3.181.724l.144 3.648a4.5 4.5 0 0 0 2.393 3.804l3.226 1.707c1.525.808 1 3.114-.725 3.185l-3.65.14a4.5 4.5 0 0 0-3.8 2.392l-1.709 3.226c-.807 1.526-3.112 1.002-3.18-.725l-.143-3.648a4.5 4.5 0 0 0-2.394-3.802l-3.227-1.707c-1.527-.808-1-3.114.724-3.182Zm0 0" transform="matrix(2.06186 0 0 2.0548 -194.845 -219.863)"/><path style="stroke:none;fill-rule:nonzero;fill:#fff" d="M213.336 40.016a9.27 9.27 0 0 0 7.844-4.918l3.52-6.63c1.667-3.136 6.421-2.054 6.558 1.489l.297 7.496a9.25 9.25 0 0 0 4.933 7.817l6.653 3.507c3.144 1.66 2.062 6.399-1.496 6.543l-7.524.29a9.28 9.28 0 0 0-7.836 4.913l-3.523 6.63c-1.664 3.136-6.418 2.058-6.559-1.489l-.293-7.496a9.24 9.24 0 0 0-4.937-7.813l-6.653-3.507c-3.148-1.66-2.062-6.399 1.493-6.54Zm0 0"/><path style="fill:none;stroke-width:4;stroke-linecap:butt;stroke-linejoin:miter;stroke:#000;stroke-opacity:.501961;stroke-miterlimit:10" d="M197.172 170.923c.57-.742.703-1.73.345-2.595l-.809-1.968c-.383-.932.712-1.768 1.51-1.156l1.688 1.295c.74.57 1.73.703 2.596.346l1.966-.81c.93-.382 1.768.713 1.158 1.511l-1.296 1.688a2.62 2.62 0 0 0-.345 2.593l.807 1.968c.383.931-.71 1.768-1.508 1.156l-1.688-1.295a2.62 2.62 0 0 0-2.596-.344l-1.966.81c-.932.382-1.768-.713-1.158-1.511Zm0 0" transform="matrix(2.06186 0 0 2.0548 -194.845 -219.863)"/><path style="stroke:none;fill-rule:nonzero;fill:#fff" d="M211.695 131.348a5.36 5.36 0 0 0 .711-5.332l-1.668-4.043c-.789-1.914 1.469-3.633 3.114-2.375l3.48 2.66a5.41 5.41 0 0 0 5.352.71l4.054-1.663c1.918-.785 3.645 1.465 2.387 3.105l-2.672 3.469a5.36 5.36 0 0 0-.71 5.328l1.663 4.043c.79 1.914-1.465 3.633-3.11 2.375l-3.48-2.66a5.41 5.41 0 0 0-5.351-.707l-4.055 1.664c-1.922.785-3.644-1.465-2.387-3.106Zm0 0"/><path style="fill:none;stroke-width:4.5;stroke-linecap:butt;stroke-linejoin:miter;stroke:#000;stroke-opacity:.501961;stroke-miterlimit:10" d="M237.8 131.925a2.62 2.62 0 0 0 2.19-1.436l.961-1.899c.455-.897 1.804-.616 1.86.388l.124 2.123c.053.934.6 1.768 1.434 2.19l1.898.96c.898.455.618 1.804-.386 1.863l-2.124.122c-.934.053-1.768.6-2.188 1.435l-.963 1.898c-.453.897-1.801.617-1.86-.388l-.123-2.124a2.62 2.62 0 0 0-1.436-2.188l-1.899-.96c-.896-.454-.615-1.804.389-1.863Zm0 0" transform="matrix(2.06186 0 0 2.0548 -194.845 -219.863)"/><path style="stroke:none;fill-rule:nonzero;fill:#fff" d="M295.465 51.215a5.4 5.4 0 0 0 4.515-2.95l1.98-3.902c.938-1.843 3.72-1.265 3.837.797l.254 4.363a5.39 5.39 0 0 0 2.957 4.5l3.914 1.973c1.851.934 1.273 3.707-.797 3.828l-4.379.25a5.4 5.4 0 0 0-4.512 2.95l-1.984 3.898c-.934 1.844-3.715 1.27-3.836-.797l-.254-4.363a5.37 5.37 0 0 0-2.96-4.496l-3.915-1.973c-1.848-.934-1.27-3.707.8-3.828Zm0 0"/></g></svg>
