<?xml version="1.0" encoding="UTF-8"?>
<svg xmlns="http://www.w3.org/2000/svg" xmlns:xlink="http://www.w3.org/1999/xlink" width="600px" height="300px" viewBox="0 0 600 300" version="1.1">
<g id="surface1">
<path style=" stroke:none;fill-rule:nonzero;fill:rgb(67.058824%,47.45098%,8.627451%);fill-opacity:1;" d="M 0 299.519531 L 0 0 L 599.121094 0 L 599.121094 299.519531 Z M 0 299.519531 "/>
<path style=" stroke:none;fill-rule:nonzero;fill:rgb(80.784314%,58.431373%,9.803922%);fill-opacity:1;" d="M 425.363281 217.96875 C 431.917969 182.125 426.472656 146.773438 409.4375 115.082031 C 404.347656 105.570312 393.355469 91.066406 385.386719 83.339844 C 369.078125 67.492188 350.167969 56.324219 329.253906 50.0625 C 322.765625 48.125 307.71875 45.476562 300.644531 45.035156 C 256.558594 42.199219 215.898438 60.265625 191.789062 93.359375 C 170.265625 122.925781 164.972656 161.679688 177.761719 195.832031 C 180.917969 204.195312 182.734375 207.589844 188.820312 216.355469 C 194.957031 225.191406 197.605469 228.222656 204.363281 233.976562 C 224.386719 251.195312 251.175781 258.355469 276.859375 253.398438 C 307.859375 247.453125 331.003906 223.800781 333.875 195.28125 C 335.992188 174.324219 328.421875 155.871094 313.398438 145.304688 C 304.785156 139.214844 293.257812 136.882812 282.855469 139.128906 C 278.199219 140.144531 273.359375 142.371094 270.492188 144.792969 C 269.316406 145.824219 268.445312 146.753906 268.558594 146.839844 C 268.636719 146.949219 270.519531 146.777344 272.695312 146.402344 C 278.054688 145.546875 283.648438 146.589844 288.585938 149.332031 C 293.609375 152.121094 295.894531 154.160156 299.90625 159.546875 C 303.207031 163.914062 303.488281 164.476562 304.980469 168.800781 C 310.855469 185.992188 302.070312 204.4375 283.535156 213.683594 C 273.152344 218.839844 263.929688 220.210938 253.566406 218.152344 C 239.601562 215.347656 228.820312 208.164062 220.441406 196.175781 C 215.089844 188.472656 211.796875 180.148438 210.101562 170.226562 C 206.191406 146.90625 213.976562 123.746094 231.578125 106.539062 C 235.261719 102.953125 236.644531 101.828125 243.015625 97.671875 C 248.15625 94.320312 251.4375 92.417969 254.300781 91.242188 C 271.648438 83.796875 288.988281 81.875 307.761719 85.289062 C 332.675781 89.746094 354.554688 103.945312 369.417969 125.339844 C 379.332031 139.621094 385.132812 154.59375 387.640625 172.390625 C 392.53125 206.941406 381.441406 242.414062 357.664062 268.1875 C 350.242188 276.207031 347.707031 278.402344 336.726562 285.976562 C 325.808594 293.558594 322.648438 295.320312 312.847656 299.367188 C 312.734375 299.414062 312.621094 299.460938 312.503906 299.507812 C 277.222656 299.503906 241.867188 299.496094 208.515625 299.496094 C 201.855469 296.847656 195.386719 293.675781 189.191406 289.988281 C 144.242188 263.230469 117.160156 214.8125 116.378906 159.757812 C 115.902344 124.308594 126.824219 89.925781 147.796875 61.121094 C 159.105469 45.527344 171.300781 33.703125 187.777344 22.199219 C 202.0625 12.28125 215.761719 5.246094 231.265625 0.0234375 L 351.617188 0.0234375 C 356.164062 1.539062 360.675781 3.234375 365.148438 5.101562 C 372.71875 8.285156 387.984375 16.46875 394.792969 21.050781 C 411.296875 32.105469 424.886719 44.425781 437.5625 59.710938 C 443.382812 66.765625 455.078125 84.464844 459.074219 92.242188 C 468.476562 110.613281 475.113281 129.441406 478.703125 148.167969 C 485.648438 184.429688 483.308594 220.808594 471.890625 255.808594 C 466.855469 271.1875 460.003906 285.851562 451.582031 299.539062 C 429.765625 299.535156 406.519531 299.527344 382.550781 299.523438 C 405.519531 275.992188 419.675781 249.039062 425.363281 217.96875 Z M 425.363281 217.96875 "/>
<path style=" stroke:none;fill-rule:nonzero;fill:rgb(80.784314%,58.431373%,9.803922%);fill-opacity:1;" d="M 139.425781 10.101562 C 97.992188 49.972656 75.503906 104.570312 76.871094 162.027344 C 77.128906 172.839844 77.738281 179.722656 79.375 189.792969 C 82.792969 211.234375 89.058594 230.542969 98.679688 249.460938 C 107.089844 265.972656 119.746094 285.960938 132.890625 299.117188 C 130.238281 299.046875 75.359375 299.507812 65.027344 299.511719 C 59.265625 290.988281 54 282.039062 49.261719 272.691406 C 31.34375 237.390625 21.753906 195.601562 22.207031 154.796875 C 22.835938 98.222656 41.398438 44.589844 74.828125 0.746094 C 96.335938 0.746094 146.703125 1.3125 150.644531 1.050781 C 146.644531 4.324219 142.863281 6.777344 139.425781 10.101562 Z M 139.425781 10.101562 "/>
<path style=" stroke:none;fill-rule:nonzero;fill:rgb(80.784314%,58.431373%,9.803922%);fill-opacity:1;" d="M 515.660156 247.4375 C 529.019531 191.386719 522.105469 129.445312 496.785156 78.5 C 490.140625 65.035156 478.34375 46.488281 469.714844 35.863281 C 461.125 25.269531 446.511719 9.394531 436.589844 0.671875 C 460.9375 0.671875 485.628906 0.671875 509.984375 0.671875 C 512.21875 3.6875 520.835938 13.289062 523.78125 17.527344 C 535.039062 33.738281 541.941406 45.78125 549.511719 62.445312 C 583.003906 136.125 582.957031 224.3125 555.769531 299.070312 C 546.515625 299.207031 500.464844 298.789062 500.464844 298.789062 C 506.875 284.519531 511.828125 263.53125 515.660156 247.4375 Z M 515.660156 247.4375 "/>
<path style="fill:none;stroke-width:12.5;stroke-linecap:butt;stroke-linejoin:miter;stroke:rgb(0%,0%,0%);stroke-opacity:0.501961;stroke-miterlimit:10;" d="M 212.838441 189.174213 L 213.451722 131.338276 L 228.475159 131.498432 L 227.861878 189.330463 Z M 251.449769 189.625385 L 252.061097 131.789447 L 267.088441 131.947651 L 266.475159 189.781635 Z M 251.449769 189.625385 " transform="matrix(2,0,0,2,-180.4386,-210.21952)"/>
<path style="fill-rule:nonzero;fill:rgb(100%,68.235294%,0%);fill-opacity:1;stroke-width:5;stroke-linecap:butt;stroke-linejoin:miter;stroke:rgb(84.705882%,58.039216%,0%);stroke-opacity:1;stroke-miterlimit:10;" d="M 212.838441 189.174213 L 213.451722 131.338276 L 228.475159 131.498432 L 227.861878 189.330463 Z M 251.449769 189.625385 L 252.061097 131.789447 L 267.088441 131.947651 L 266.475159 189.781635 Z M 251.449769 189.625385 " transform="matrix(2,0,0,2,-180.4386,-210.21952)"/>
<path style="fill:none;stroke-width:7.5;stroke-linecap:square;stroke-linejoin:miter;stroke:rgb(0%,0%,0%);stroke-opacity:0.517647;stroke-miterlimit:10;" d="M 111.178284 237.689838 C 108.520081 237.689838 107.191956 237.396869 107.191956 236.814838 L 107.191956 208.361713 C 107.191956 207.367572 107.643128 206.869526 108.545472 206.869526 L 116.272034 206.869526 C 120.606019 206.869526 123.729066 207.764057 125.645081 209.553119 C 127.565003 211.338276 128.525941 213.928119 128.525941 217.322651 C 128.525941 220.129291 127.617738 222.705463 125.799378 225.049213 C 124.895081 226.215229 123.56305 227.150776 121.803284 227.853901 C 120.047425 228.557026 118.00055 228.908588 115.662659 228.908588 L 115.662659 236.771869 C 115.662659 237.119526 115.113831 237.35976 114.016175 237.492572 C 112.918519 237.623432 111.973206 237.689838 111.178284 237.689838 Z M 115.662659 214.510151 L 115.662659 221.447651 L 116.229066 221.447651 C 117.252503 221.447651 118.115784 221.127338 118.818909 220.486713 C 119.522034 219.842182 119.873597 218.932026 119.873597 217.760151 C 119.873597 216.588276 119.631409 215.754291 119.145081 215.256244 C 118.664613 214.758197 117.809144 214.510151 116.580628 214.510151 Z M 133.836488 221.662494 C 133.020081 220.199604 132.611878 219.006244 132.611878 218.086322 C 132.611878 217.166401 132.859925 216.574604 133.357972 216.310932 C 135.020081 215.580463 137.307191 215.213276 140.217347 215.213276 C 143.133363 215.213276 145.190003 215.894916 146.391175 217.254291 C 147.592347 218.615619 148.191956 220.627338 148.191956 223.291401 L 148.191956 230.228901 L 149.684144 230.228901 C 150.182191 230.228901 150.570863 230.523822 150.850159 231.111713 C 151.131409 231.695697 151.270081 232.498432 151.270081 233.521869 C 151.270081 234.545307 151.014222 235.553119 150.498597 236.549213 C 149.984925 237.543354 149.289613 238.041401 148.414613 238.041401 C 146.830628 238.041401 145.557191 237.617572 144.590394 236.771869 C 144.1568 236.416401 143.820863 235.990619 143.586488 235.494526 C 142.238831 237.191791 140.143128 238.041401 137.301331 238.041401 C 135.168519 238.041401 133.371644 237.279682 131.908753 235.760151 C 130.443909 234.238666 129.713441 232.437885 129.713441 230.357807 C 129.713441 225.590229 132.565003 223.205463 138.270081 223.205463 L 140.68805 223.205463 L 140.68805 222.760151 C 140.68805 221.998432 140.56305 221.510151 140.311097 221.293354 C 140.065003 221.076557 139.488831 220.967182 138.578675 220.967182 C 137.465394 220.967182 135.883363 221.199604 133.836488 221.662494 Z M 137.354066 229.748432 C 137.354066 230.389057 137.527894 230.877338 137.87555 231.215229 C 138.225159 231.551166 138.670472 231.721088 139.213441 231.721088 C 139.756409 231.721088 140.248597 231.500385 140.68805 231.060932 L 140.68805 227.682026 L 139.453675 227.682026 C 138.053284 227.682026 137.354066 228.371479 137.354066 229.748432 Z M 153.551331 215.916401 C 153.551331 215.590229 154.809144 215.428119 157.324769 215.428119 C 159.840394 215.428119 161.098206 215.590229 161.098206 215.916401 L 161.098206 228.736713 C 161.098206 230.199604 161.566956 230.932026 162.504456 230.932026 C 163.207581 230.932026 163.998597 230.623432 164.879456 230.006244 L 164.879456 215.916401 C 164.879456 215.625385 166.123597 215.478901 168.609925 215.478901 C 171.096253 215.478901 172.340394 215.625385 172.340394 215.916401 L 172.340394 230.314838 L 173.481019 230.314838 C 174.475159 230.314838 174.973206 231.26601 174.973206 233.170307 C 174.973206 234.135151 174.770081 235.115619 174.363831 236.111713 C 173.773988 237.396869 172.982972 238.041401 171.988831 238.041401 C 170.027894 238.041401 168.578675 237.236713 167.641175 235.631244 L 167.598206 235.674213 C 165.815003 237.252338 163.897034 238.041401 161.8443 238.041401 C 159.008363 238.041401 156.916566 237.332416 155.566956 235.914447 C 154.223206 234.496479 153.551331 232.146869 153.551331 228.865619 Z M 178.576722 229.697651 C 180.947816 231.131244 182.820863 231.849994 184.193909 231.849994 C 185.072816 231.849994 185.514222 231.543354 185.514222 230.932026 C 185.514222 230.490619 184.752503 229.920307 183.232972 229.217182 C 179.574769 227.724994 177.744691 225.281635 177.744691 221.885151 C 177.744691 219.719135 178.533753 218.066791 180.111878 216.928119 C 181.693909 215.785541 183.590394 215.213276 185.797425 215.213276 C 188.008363 215.213276 189.881409 215.447651 191.412659 215.916401 C 192.951722 216.385151 193.7193 217.000385 193.7193 217.760151 C 193.7193 218.400776 193.404847 219.250385 192.775941 220.307026 C 192.147034 221.35976 191.715394 221.928119 191.481019 222.014057 C 190.223206 221.316791 188.863831 220.967182 187.400941 220.967182 C 186.611878 220.967182 186.217347 221.244526 186.217347 221.799213 C 186.217347 222.148822 186.367738 222.447651 186.670472 222.699604 C 186.979066 222.945697 187.543519 223.250385 188.359925 223.617572 C 189.184144 223.982807 189.863831 224.314838 190.400941 224.611713 C 190.943909 224.902729 191.553284 225.312885 192.227113 225.838276 C 193.633363 226.947651 194.336488 228.396869 194.336488 230.185932 C 194.336488 232.523822 193.559144 234.418354 192.004456 235.871479 C 190.455628 237.316791 188.113831 238.041401 184.981019 238.041401 C 182.9068 238.041401 181.020081 237.689838 179.322816 236.986713 C 177.623597 236.283588 176.775941 235.316791 176.775941 234.088276 C 176.775941 233.269916 176.973206 232.408588 177.367738 231.506244 C 177.762269 230.598041 178.164613 229.994526 178.576722 229.697651 Z M 214.008363 236.420307 C 212.162659 237.500385 209.789613 238.041401 206.891175 238.041401 C 203.992738 238.041401 201.549378 237.055072 199.559144 235.082416 C 197.570863 233.103901 196.574769 230.365619 196.574769 226.867572 C 196.574769 223.367572 197.533753 220.553119 199.447816 218.420307 C 201.369691 216.283588 203.793519 215.213276 206.7193 215.213276 C 209.647034 215.213276 211.9068 215.959369 213.502503 217.451557 C 215.098206 218.943744 215.895081 220.758197 215.895081 222.896869 C 215.895081 227.635151 213.174378 230.006244 207.731019 230.006244 L 204.695863 230.006244 C 204.695863 230.885151 204.936097 231.494526 205.416566 231.832416 C 205.902894 232.170307 206.613831 232.338276 207.551331 232.338276 C 209.604066 232.338276 211.551331 231.869526 213.391175 230.932026 C 213.420472 230.902729 213.551331 231.105854 213.785706 231.541401 C 214.488831 232.803119 214.840394 233.867572 214.840394 234.730854 C 214.840394 235.594135 214.56305 236.156635 214.008363 236.420307 Z M 208.520081 223.728901 C 208.520081 222.500385 207.920472 221.885151 206.7193 221.885151 C 206.164613 221.885151 205.68805 222.053119 205.287659 222.39101 C 204.893128 222.728901 204.695863 223.217182 204.695863 223.857807 L 204.695863 225.221088 L 207.070863 225.221088 C 208.037659 225.221088 208.520081 224.723041 208.520081 223.728901 Z M 241.576722 207.744526 C 241.576722 207.162494 243.162659 206.869526 246.336488 206.869526 C 249.514222 206.869526 251.104066 207.162494 251.104066 207.744526 L 251.104066 227.896869 C 251.104066 230.885151 250.033753 233.324604 247.897034 235.211322 C 245.764222 237.098041 242.816956 238.041401 239.055238 238.041401 C 235.293519 238.041401 232.234925 237.068744 229.879456 235.125385 C 227.523988 233.176166 226.346253 230.549213 226.346253 227.244526 L 226.346253 207.795307 C 226.346253 207.207416 227.934144 206.912494 231.106019 206.912494 C 234.285706 206.912494 235.873597 207.207416 235.873597 207.795307 L 235.873597 227.596088 C 235.873597 228.180072 236.180238 228.644916 236.791566 228.994526 C 237.43805 229.348041 238.111878 229.525776 238.815003 229.525776 C 239.518128 229.525776 240.152894 229.365619 240.7193 229.045307 C 241.291566 228.719135 241.576722 228.236713 241.576722 227.596088 Z M 264.672425 237.338276 C 264.672425 237.691791 263.443909 237.869526 260.984925 237.869526 C 258.057191 237.748432 256.5943 237.557026 256.5943 237.295307 L 256.5943 221.756244 L 254.356019 221.756244 C 253.768128 221.756244 253.473206 220.744526 253.473206 218.721088 C 253.473206 218.195697 253.523988 217.551166 253.627503 216.791401 C 253.731019 216.031635 253.943909 215.650776 254.270081 215.650776 L 256.5943 215.650776 L 256.5943 211.783588 C 256.5943 211.199604 257.828675 210.908588 260.299378 210.908588 C 262.773987 210.908588 264.012269 211.142963 264.012269 211.611713 L 264.012269 214.424213 L 264.055237 215.650776 L 267.793519 215.650776 C 268.291566 215.650776 268.539612 216.676166 268.539612 218.728901 C 268.539612 220.775776 268.291566 221.799213 267.793519 221.799213 L 264.672425 221.799213 Z M 278.762269 237.338276 C 278.762269 237.572651 277.422425 237.689838 274.740784 237.689838 C 272.065003 237.689838 270.727112 237.586322 270.727112 237.379291 L 270.727112 215.822651 C 270.727112 215.621479 272.065003 215.521869 274.740784 215.521869 C 277.422425 215.521869 278.762269 215.607807 278.762269 215.779682 Z M 278.762269 213.189838 C 278.762269 213.394916 277.422425 213.498432 274.740784 213.498432 C 272.065003 213.498432 270.727112 213.410541 270.727112 213.232807 L 270.727112 206.912494 C 270.727112 206.621479 272.065003 206.474994 274.740784 206.474994 C 277.422425 206.474994 278.762269 206.564838 278.762269 206.740619 Z M 290.705628 237.252338 C 290.705628 237.514057 289.213441 237.646869 286.229066 237.646869 C 283.885316 237.617572 282.713441 237.500385 282.713441 237.295307 L 282.713441 207.392963 C 282.713441 206.959369 284.133362 206.740619 286.975159 206.740619 C 289.461487 206.826557 290.705628 206.973041 290.705628 207.178119 Z M 302.690003 237.338276 C 302.690003 237.572651 301.350159 237.689838 298.668519 237.689838 C 295.992737 237.689838 294.654847 237.586322 294.654847 237.379291 L 294.654847 215.822651 C 294.654847 215.621479 295.992737 215.521869 298.668519 215.521869 C 301.350159 215.521869 302.690003 215.607807 302.690003 215.779682 Z M 302.690003 213.189838 C 302.690003 213.394916 301.350159 213.498432 298.668519 213.498432 C 295.992737 213.498432 294.654847 213.410541 294.654847 213.232807 L 294.654847 206.912494 C 294.654847 206.621479 295.992737 206.474994 298.668519 206.474994 C 301.350159 206.474994 302.690003 206.564838 302.690003 206.740619 Z M 316.742737 237.338276 C 316.742737 237.691791 315.514222 237.869526 313.055237 237.869526 C 310.129456 237.748432 308.664612 237.557026 308.664612 237.295307 L 308.664612 221.756244 L 306.426331 221.756244 C 305.838441 221.756244 305.543519 220.744526 305.543519 218.721088 C 305.543519 218.195697 305.5943 217.551166 305.697816 216.791401 C 305.801331 216.031635 306.016175 215.650776 306.340394 215.650776 L 308.664612 215.650776 L 308.664612 211.783588 C 308.664612 211.199604 309.898987 210.908588 312.369691 210.908588 C 314.8443 210.908588 316.082581 211.142963 316.082581 211.611713 L 316.082581 214.424213 L 316.12555 215.650776 L 319.863831 215.650776 C 320.361878 215.650776 320.609925 216.676166 320.609925 218.728901 C 320.609925 220.775776 320.361878 221.799213 319.863831 221.799213 L 316.742737 221.799213 Z M 330.832581 237.338276 C 330.832581 237.572651 329.492737 237.689838 326.811097 237.689838 C 324.135316 237.689838 322.797425 237.586322 322.797425 237.379291 L 322.797425 215.822651 C 322.797425 215.621479 324.135316 215.521869 326.811097 215.521869 C 329.492737 215.521869 330.832581 215.607807 330.832581 215.779682 Z M 330.832581 213.189838 C 330.832581 213.394916 329.492737 213.498432 326.811097 213.498432 C 324.135316 213.498432 322.797425 213.410541 322.797425 213.232807 L 322.797425 206.912494 C 322.797425 206.621479 324.135316 206.474994 326.811097 206.474994 C 329.492737 206.474994 330.832581 206.564838 330.832581 206.740619 Z M 351.385316 236.420307 C 349.539612 237.500385 347.166566 238.041401 344.268128 238.041401 C 341.369691 238.041401 338.926331 237.055072 336.936097 235.082416 C 334.947816 233.103901 333.951722 230.365619 333.951722 226.867572 C 333.951722 223.367572 334.910706 220.553119 336.824769 218.420307 C 338.746644 216.283588 341.170472 215.213276 344.096253 215.213276 C 347.023987 215.213276 349.283753 215.959369 350.879456 217.451557 C 352.475159 218.943744 353.272034 220.758197 353.272034 222.896869 C 353.272034 227.635151 350.551331 230.006244 345.107972 230.006244 L 342.072816 230.006244 C 342.072816 230.885151 342.31305 231.494526 342.793519 231.832416 C 343.279847 232.170307 343.990784 232.338276 344.928284 232.338276 C 346.981019 232.338276 350.928284 231.105854 351.162659 231.541401 C 351.865784 232.803119 352.217347 233.867572 352.217347 234.730854 C 352.217347 235.594135 351.940003 236.156635 351.385316 236.420307 Z M 345.897034 223.728901 C 345.897034 222.500385 345.297425 221.885151 344.096253 221.885151 C 343.541566 221.885151 343.065003 222.053119 342.664612 222.39101 C 342.270081 222.728901 342.072816 223.217182 342.072816 223.857807 L 342.072816 225.221088 L 344.447816 225.221088 C 345.414612 225.221088 345.897034 224.723041 345.897034 223.728901 Z M 357.047425 229.697651 C 359.420472 231.131244 361.291566 231.849994 362.664612 231.849994 C 363.545472 231.849994 363.984925 231.543354 363.984925 230.932026 C 363.984925 230.490619 363.225159 229.920307 361.703675 229.217182 C 358.045472 227.724994 356.215394 225.281635 356.215394 221.885151 C 356.215394 219.719135 357.004456 218.066791 358.582581 216.928119 C 360.166566 215.785541 362.061097 215.213276 364.268128 215.213276 C 366.481019 215.213276 368.352112 215.447651 369.885316 215.916401 C 371.422425 216.385151 372.191956 217.000385 372.191956 217.760151 C 372.191956 218.400776 371.877503 219.250385 371.248597 220.307026 C 370.619691 221.35976 370.18805 221.928119 369.953675 222.014057 C 368.695862 221.316791 367.334534 220.967182 365.871644 220.967182 C 365.082581 220.967182 364.68805 221.244526 364.68805 221.799213 C 364.68805 222.148822 364.840394 222.447651 365.143128 222.699604 C 365.451722 222.945697 366.014222 223.250385 366.832581 223.617572 C 367.654847 223.982807 368.334534 224.314838 368.873597 224.611713 C 369.416566 224.902729 370.023987 225.312885 370.699769 225.838276 C 372.106019 226.947651 372.809144 228.396869 372.809144 230.185932 C 372.809144 232.523822 372.0318 234.418354 370.477112 235.871479 C 368.926331 237.316791 366.586487 238.041401 363.453675 238.041401 C 361.377503 238.041401 359.490784 237.689838 357.793519 236.986713 C 356.096253 236.283588 355.246644 235.316791 355.246644 234.088276 C 355.246644 233.269916 355.443909 232.408588 355.838441 231.506244 C 356.232972 230.598041 356.635316 229.994526 357.047425 229.697651 Z M 357.047425 229.697651 " transform="matrix(2,0,0,2,-180.4386,-210.21952)"/>
<path style=" stroke:none;fill-rule:nonzero;fill:rgb(100%,100%,100%);fill-opacity:1;" d="M 41.917969 265.160156 C 36.601562 265.160156 33.945312 264.574219 33.945312 263.410156 L 33.945312 206.503906 C 33.945312 204.515625 34.847656 203.519531 36.652344 203.519531 L 52.105469 203.519531 C 60.773438 203.519531 67.019531 205.308594 70.851562 208.886719 C 74.691406 212.457031 76.613281 217.636719 76.613281 224.425781 C 76.613281 230.039062 74.796875 235.191406 71.160156 239.878906 C 69.351562 242.210938 66.6875 244.082031 63.167969 245.488281 C 59.65625 246.894531 55.5625 247.597656 50.886719 247.597656 L 50.886719 263.324219 C 50.886719 264.019531 49.789062 264.5 47.59375 264.765625 C 45.398438 265.027344 43.507812 265.160156 41.917969 265.160156 Z M 50.886719 218.800781 L 50.886719 232.675781 L 52.019531 232.675781 C 54.066406 232.675781 55.792969 232.035156 57.199219 230.753906 C 58.605469 229.464844 59.308594 227.644531 59.308594 225.300781 C 59.308594 222.957031 58.824219 221.289062 57.851562 220.292969 C 56.890625 219.296875 55.179688 218.800781 52.722656 218.800781 Z M 87.234375 233.105469 C 85.601562 230.179688 84.785156 227.792969 84.785156 225.953125 C 84.785156 224.113281 85.28125 222.929688 86.277344 222.402344 C 89.601562 220.941406 94.175781 220.207031 99.996094 220.207031 C 105.828125 220.207031 109.941406 221.570312 112.34375 224.289062 C 114.746094 227.011719 115.945312 231.035156 115.945312 236.363281 L 115.945312 250.238281 L 118.929688 250.238281 C 119.925781 250.238281 120.703125 250.828125 121.261719 252.003906 C 121.824219 253.171875 122.101562 254.777344 122.101562 256.824219 C 122.101562 258.871094 121.589844 260.886719 120.558594 262.878906 C 119.53125 264.867188 118.140625 265.863281 116.390625 265.863281 C 113.222656 265.863281 110.675781 265.015625 108.742188 263.324219 C 107.875 262.613281 107.203125 261.761719 106.734375 260.769531 C 104.039062 264.164062 99.847656 265.863281 94.164062 265.863281 C 89.898438 265.863281 86.304688 264.339844 83.378906 261.300781 C 80.449219 258.257812 78.988281 254.65625 78.988281 250.496094 C 78.988281 240.960938 84.691406 236.191406 96.101562 236.191406 L 100.9375 236.191406 L 100.9375 235.300781 C 100.9375 233.777344 100.6875 232.800781 100.183594 232.367188 C 99.691406 231.933594 98.539062 231.714844 96.71875 231.714844 C 94.492188 231.714844 91.328125 232.179688 87.234375 233.105469 Z M 94.269531 249.277344 C 94.269531 250.558594 94.617188 251.535156 95.3125 252.210938 C 96.011719 252.882812 96.902344 253.222656 97.988281 253.222656 C 99.074219 253.222656 100.058594 252.78125 100.9375 251.902344 L 100.9375 245.144531 L 98.46875 245.144531 C 95.667969 245.144531 94.269531 246.523438 94.269531 249.277344 Z M 126.664062 221.613281 C 126.664062 220.960938 129.179688 220.636719 134.210938 220.636719 C 139.242188 220.636719 141.757812 220.960938 141.757812 221.613281 L 141.757812 247.253906 C 141.757812 250.179688 142.695312 251.644531 144.570312 251.644531 C 145.976562 251.644531 147.558594 251.027344 149.320312 249.792969 L 149.320312 221.613281 C 149.320312 221.03125 151.808594 220.738281 156.78125 220.738281 C 161.753906 220.738281 164.242188 221.03125 164.242188 221.613281 L 164.242188 250.410156 L 166.523438 250.410156 C 168.511719 250.410156 169.507812 252.3125 169.507812 256.121094 C 169.507812 258.050781 169.101562 260.011719 168.289062 262.003906 C 167.109375 264.574219 165.527344 265.863281 163.539062 265.863281 C 159.617188 265.863281 156.71875 264.253906 154.84375 261.042969 L 154.757812 261.128906 C 151.191406 264.285156 147.355469 265.863281 143.25 265.863281 C 137.578125 265.863281 133.394531 264.445312 130.695312 261.609375 C 128.007812 258.773438 126.664062 254.074219 126.664062 247.511719 Z M 176.714844 249.175781 C 181.457031 252.042969 185.203125 253.480469 187.949219 253.480469 C 189.707031 253.480469 190.589844 252.867188 190.589844 251.644531 C 190.589844 250.761719 189.066406 249.621094 186.027344 248.214844 C 178.710938 245.230469 175.050781 240.34375 175.050781 233.550781 C 175.050781 229.21875 176.628906 225.914062 179.785156 223.636719 C 182.949219 221.351562 186.742188 220.207031 191.15625 220.207031 C 195.578125 220.207031 199.324219 220.675781 202.386719 221.613281 C 205.464844 222.550781 207 223.78125 207 225.300781 C 207 226.582031 206.371094 228.28125 205.113281 230.394531 C 203.855469 232.5 202.992188 233.636719 202.523438 233.808594 C 200.007812 232.414062 197.289062 231.714844 194.363281 231.714844 C 192.785156 231.714844 191.996094 232.269531 191.996094 233.378906 C 191.996094 234.078125 192.296875 234.675781 192.902344 235.179688 C 193.519531 235.671875 194.648438 236.28125 196.28125 237.015625 C 197.929688 237.746094 199.289062 238.410156 200.363281 239.003906 C 201.449219 239.585938 202.667969 240.40625 204.015625 241.457031 C 206.828125 243.675781 208.234375 246.574219 208.234375 250.152344 C 208.234375 254.828125 206.679688 258.617188 203.570312 261.523438 C 200.472656 264.414062 195.789062 265.863281 189.523438 265.863281 C 185.375 265.863281 181.601562 265.160156 178.207031 263.753906 C 174.808594 262.347656 173.113281 260.414062 173.113281 257.957031 C 173.113281 256.320312 173.507812 254.597656 174.296875 252.792969 C 175.085938 250.976562 175.890625 249.769531 176.714844 249.175781 Z M 247.578125 262.621094 C 243.886719 264.78125 239.140625 265.863281 233.34375 265.863281 C 227.546875 265.863281 222.660156 263.890625 218.679688 259.945312 C 214.703125 255.988281 212.710938 250.511719 212.710938 243.515625 C 212.710938 236.515625 214.628906 230.886719 218.457031 226.621094 C 222.300781 222.347656 227.148438 220.207031 233 220.207031 C 238.855469 220.207031 243.375 221.699219 246.566406 224.683594 C 249.757812 227.667969 251.351562 231.296875 251.351562 235.574219 C 251.351562 245.050781 245.910156 249.792969 235.023438 249.792969 L 228.953125 249.792969 C 228.953125 251.550781 229.433594 252.769531 230.394531 253.445312 C 231.367188 254.121094 232.789062 254.457031 234.664062 254.457031 C 238.769531 254.457031 242.664062 253.519531 246.34375 251.644531 C 246.402344 251.585938 246.664062 251.992188 247.132812 252.863281 C 248.539062 255.386719 249.242188 257.515625 249.242188 259.242188 C 249.242188 260.96875 248.6875 262.09375 247.578125 262.621094 Z M 236.601562 237.238281 C 236.601562 234.78125 235.402344 233.550781 233 233.550781 C 231.890625 233.550781 230.9375 233.886719 230.136719 234.5625 C 229.347656 235.238281 228.953125 236.214844 228.953125 237.496094 L 228.953125 240.222656 L 233.703125 240.222656 C 235.636719 240.222656 236.601562 239.226562 236.601562 237.238281 Z M 302.714844 205.269531 C 302.714844 204.105469 305.886719 203.519531 312.234375 203.519531 C 318.589844 203.519531 321.769531 204.105469 321.769531 205.269531 L 321.769531 245.574219 C 321.769531 251.550781 319.628906 256.429688 315.355469 260.203125 C 311.089844 263.976562 305.195312 265.863281 297.671875 265.863281 C 290.148438 265.863281 284.03125 263.917969 279.320312 260.03125 C 274.609375 256.132812 272.253906 250.878906 272.253906 244.269531 L 272.253906 205.371094 C 272.253906 204.195312 275.429688 203.605469 281.773438 203.605469 C 288.132812 203.605469 291.308594 204.195312 291.308594 205.371094 L 291.308594 244.972656 C 291.308594 246.140625 291.921875 247.070312 293.144531 247.769531 C 294.4375 248.476562 295.785156 248.832031 297.191406 248.832031 C 298.597656 248.832031 299.867188 248.511719 301 247.871094 C 302.144531 247.21875 302.714844 246.253906 302.714844 244.972656 Z M 348.90625 264.457031 C 348.90625 265.164062 346.449219 265.519531 341.53125 265.519531 C 335.675781 265.277344 332.75 264.894531 332.75 264.371094 L 332.75 233.292969 L 328.273438 233.292969 C 327.097656 233.292969 326.507812 231.269531 326.507812 227.222656 C 326.507812 226.171875 326.609375 224.882812 326.816406 223.363281 C 327.023438 221.84375 327.449219 221.082031 328.101562 221.082031 L 332.75 221.082031 L 332.75 213.347656 C 332.75 212.179688 335.21875 211.597656 340.160156 211.597656 C 345.109375 211.597656 347.585938 212.066406 347.585938 213.003906 L 347.585938 218.628906 L 347.671875 221.082031 L 355.148438 221.082031 C 356.144531 221.082031 356.640625 223.132812 356.640625 227.238281 C 356.640625 231.332031 356.144531 233.378906 355.148438 233.378906 L 348.90625 233.378906 Z M 377.085938 264.457031 C 377.085938 264.925781 374.40625 265.160156 369.042969 265.160156 C 363.691406 265.160156 361.015625 264.953125 361.015625 264.539062 L 361.015625 221.425781 C 361.015625 221.023438 363.691406 220.824219 369.042969 220.824219 C 374.40625 220.824219 377.085938 220.996094 377.085938 221.339844 Z M 377.085938 216.160156 C 377.085938 216.570312 374.40625 216.777344 369.042969 216.777344 C 363.691406 216.777344 361.015625 216.601562 361.015625 216.246094 L 361.015625 203.605469 C 361.015625 203.023438 363.691406 202.730469 369.042969 202.730469 C 374.40625 202.730469 377.085938 202.910156 377.085938 203.261719 Z M 400.972656 264.285156 C 400.972656 264.808594 397.988281 265.074219 392.019531 265.074219 C 387.332031 265.015625 384.988281 264.78125 384.988281 264.371094 L 384.988281 204.566406 C 384.988281 203.699219 387.828125 203.261719 393.511719 203.261719 C 398.484375 203.433594 400.972656 203.726562 400.972656 204.136719 Z M 424.941406 264.457031 C 424.941406 264.925781 422.261719 265.160156 416.898438 265.160156 C 411.546875 265.160156 408.871094 264.953125 408.871094 264.539062 L 408.871094 221.425781 C 408.871094 221.023438 411.546875 220.824219 416.898438 220.824219 C 422.261719 220.824219 424.941406 220.996094 424.941406 221.339844 Z M 424.941406 216.160156 C 424.941406 216.570312 422.261719 216.777344 416.898438 216.777344 C 411.546875 216.777344 408.871094 216.601562 408.871094 216.246094 L 408.871094 203.605469 C 408.871094 203.023438 411.546875 202.730469 416.898438 202.730469 C 422.261719 202.730469 424.941406 202.910156 424.941406 203.261719 Z M 453.046875 264.457031 C 453.046875 265.164062 450.589844 265.519531 445.671875 265.519531 C 439.820312 265.277344 436.890625 264.894531 436.890625 264.371094 L 436.890625 233.292969 L 432.414062 233.292969 C 431.238281 233.292969 430.648438 231.269531 430.648438 227.222656 C 430.648438 226.171875 430.75 224.882812 430.957031 223.363281 C 431.164062 221.84375 431.59375 221.082031 432.242188 221.082031 L 436.890625 221.082031 L 436.890625 213.347656 C 436.890625 212.179688 439.359375 211.597656 444.300781 211.597656 C 449.25 211.597656 451.726562 212.066406 451.726562 213.003906 L 451.726562 218.628906 L 451.8125 221.082031 L 459.289062 221.082031 C 460.285156 221.082031 460.78125 223.132812 460.78125 227.238281 C 460.78125 231.332031 460.285156 233.378906 459.289062 233.378906 L 453.046875 233.378906 Z M 481.226562 264.457031 C 481.226562 264.925781 478.546875 265.160156 473.183594 265.160156 C 467.832031 265.160156 465.15625 264.953125 465.15625 264.539062 L 465.15625 221.425781 C 465.15625 221.023438 467.832031 220.824219 473.183594 220.824219 C 478.546875 220.824219 481.226562 220.996094 481.226562 221.339844 Z M 481.226562 216.160156 C 481.226562 216.570312 478.546875 216.777344 473.183594 216.777344 C 467.832031 216.777344 465.15625 216.601562 465.15625 216.246094 L 465.15625 203.605469 C 465.15625 203.023438 467.832031 202.730469 473.183594 202.730469 C 478.546875 202.730469 481.226562 202.910156 481.226562 203.261719 Z M 522.332031 262.621094 C 518.640625 264.78125 513.894531 265.863281 508.097656 265.863281 C 502.300781 265.863281 497.414062 263.890625 493.433594 259.945312 C 489.457031 255.988281 487.464844 250.511719 487.464844 243.515625 C 487.464844 236.515625 489.382812 230.886719 493.210938 226.621094 C 497.054688 222.347656 501.902344 220.207031 507.753906 220.207031 C 513.609375 220.207031 518.128906 221.699219 521.320312 224.683594 C 524.511719 227.667969 526.105469 231.296875 526.105469 235.574219 C 526.105469 245.050781 520.664062 249.792969 509.777344 249.792969 L 503.707031 249.792969 C 503.707031 251.550781 504.1875 252.769531 505.148438 253.445312 C 506.121094 254.121094 507.542969 254.457031 509.417969 254.457031 C 513.523438 254.457031 517.417969 253.519531 521.097656 251.644531 C 521.15625 251.585938 521.417969 251.992188 521.886719 252.863281 C 523.292969 255.386719 523.996094 257.515625 523.996094 259.242188 C 523.996094 260.96875 523.441406 262.09375 522.332031 262.621094 Z M 511.355469 237.238281 C 511.355469 234.78125 510.15625 233.550781 507.753906 233.550781 C 506.644531 233.550781 505.691406 233.886719 504.890625 234.5625 C 504.101562 235.238281 503.707031 236.214844 503.707031 237.496094 L 503.707031 240.222656 L 508.457031 240.222656 C 510.390625 240.222656 511.355469 239.226562 511.355469 237.238281 Z M 533.65625 249.175781 C 538.402344 252.042969 542.144531 253.480469 544.890625 253.480469 C 546.652344 253.480469 547.53125 252.867188 547.53125 251.644531 C 547.53125 250.761719 546.011719 249.621094 542.96875 248.214844 C 535.652344 245.230469 531.992188 240.34375 531.992188 233.550781 C 531.992188 229.21875 533.570312 225.914062 536.726562 223.636719 C 539.894531 221.351562 543.683594 220.207031 548.097656 220.207031 C 552.523438 220.207031 556.265625 220.675781 559.332031 221.613281 C 562.40625 222.550781 563.945312 223.78125 563.945312 225.300781 C 563.945312 226.582031 563.316406 228.28125 562.058594 230.394531 C 560.800781 232.5 559.9375 233.636719 559.46875 233.808594 C 556.953125 232.414062 554.230469 231.714844 551.304688 231.714844 C 549.726562 231.714844 548.9375 232.269531 548.9375 233.378906 C 548.9375 234.078125 549.242188 234.675781 549.847656 235.179688 C 550.464844 235.671875 551.589844 236.28125 553.226562 237.015625 C 554.871094 237.746094 556.230469 238.410156 557.308594 239.003906 C 558.394531 239.585938 559.609375 240.40625 560.960938 241.457031 C 563.773438 243.675781 565.179688 246.574219 565.179688 250.152344 C 565.179688 254.828125 563.625 258.617188 560.515625 261.523438 C 557.414062 264.414062 552.734375 265.863281 546.46875 265.863281 C 542.316406 265.863281 538.542969 265.160156 535.148438 263.753906 C 531.753906 262.347656 530.054688 260.414062 530.054688 257.957031 C 530.054688 256.320312 530.449219 254.597656 531.238281 252.792969 C 532.027344 250.976562 532.832031 249.769531 533.65625 249.175781 Z M 533.65625 249.175781 "/>
</g>
</svg>
