<?xml version="1.0" encoding="UTF-8"?>
<svg xmlns="http://www.w3.org/2000/svg" xmlns:xlink="http://www.w3.org/1999/xlink" width="600px" height="300px" viewBox="0 0 600 300" version="1.1">
<g id="surface1">
<path style=" stroke:none;fill-rule:nonzero;fill:rgb(71.372549%,45.098039%,45.098039%);fill-opacity:1;" d="M 0 299.535156 L 0 0 L 600 0 L 600 299.535156 Z M 0 299.535156 "/>
<path style=" stroke:none;fill-rule:nonzero;fill:rgb(60.392157%,38.039216%,38.039216%);fill-opacity:1;" d="M 0 299.535156 L 0 133.164062 L 49.601562 51.164062 L 124.625 172 L 182.40625 94.808594 L 261.832031 160.625 L 346.519531 69.152344 L 400.683594 127.839844 L 484.519531 38.199219 L 539.433594 155.9375 L 600 88.164062 L 600 299.535156 Z M 0 299.535156 "/>
<path style=" stroke:none;fill-rule:nonzero;fill:rgb(54.117647%,34.117647%,34.117647%);fill-opacity:1;" d="M 0 299.535156 L 0 204.730469 L 43.566406 162.128906 L 103.480469 227.320312 L 160.316406 171.527344 L 195.601562 205.484375 L 255.480469 141.203125 L 307.167969 218.230469 L 388.59375 139.710938 L 454.375 207.332031 L 516.398438 152.136719 L 600 224.914062 L 600 299.535156 Z M 0 299.535156 "/>
<path style="fill-rule:nonzero;fill:rgb(100%,100%,100%);fill-opacity:1;stroke-width:7.5;stroke-linecap:butt;stroke-linejoin:miter;stroke:rgb(0%,0%,0%);stroke-opacity:0.513725;stroke-miterlimit:10;" d="M 196.849609 178.847039 L 215.890625 151.946648 C 218.382812 148.423211 222.427734 148.423211 224.921875 151.946648 L 228.380859 156.833367 L 244.681641 133.802117 C 247.611328 129.661492 252.363281 129.661492 255.294922 133.802117 C 255.294922 133.802117 278.332031 169.251336 282.724609 176.011101 C 284.115234 178.14782 283.396484 180.942742 280.207031 181.944695 C 274.123047 183.854851 263.966797 186.815789 256.330078 187.878289 C 244.685547 189.501336 228.183594 189.755242 223.402344 188.550164 C 223.34375 188.534539 223.285156 188.520867 223.228516 188.505242 C 222.542969 188.55407 221.873047 188.581414 221.224609 188.581414 C 211.193359 188.581414 194.355469 182.370476 196.849609 178.847039 Z M 196.849609 178.847039 " transform="matrix(2,0,0,2,-180,-210.23314)"/>
<path style=" stroke:none;fill-rule:nonzero;fill:rgb(100%,100%,100%);fill-opacity:1;" d="M 213.699219 147.460938 L 251.78125 93.660156 C 256.765625 86.613281 264.855469 86.613281 269.84375 93.660156 L 276.761719 103.433594 L 309.363281 57.371094 C 315.222656 49.089844 324.726562 49.089844 330.589844 57.371094 C 330.589844 57.371094 376.664062 128.269531 385.449219 141.789062 C 388.230469 146.0625 386.792969 151.652344 380.414062 153.65625 C 368.246094 157.476562 347.933594 163.398438 332.660156 165.523438 C 309.371094 168.769531 276.367188 169.277344 266.804688 166.867188 C 266.6875 166.835938 266.570312 166.808594 266.457031 166.777344 C 265.085938 166.875 263.746094 166.929688 262.449219 166.929688 C 242.386719 166.929688 208.710938 154.507812 213.699219 147.460938 Z M 213.699219 147.460938 "/>
<path style=" stroke:none;fill-rule:nonzero;fill:rgb(35.294118%,22.352941%,22.352941%);fill-opacity:1;" d="M 267.367188 90.792969 L 273.789062 86.371094 C 273.789062 86.371094 281.628906 95.742188 286.914062 103.996094 C 293.117188 113.695312 298.84375 133.164062 298.84375 133.164062 C 298.84375 133.164062 281.992188 110.289062 276.226562 102.527344 C 271.960938 96.785156 267.367188 90.792969 267.367188 90.792969 Z M 267.367188 90.792969 "/>
<path style="fill:none;stroke-width:8;stroke-linecap:square;stroke-linejoin:miter;stroke:rgb(0%,0%,0%);stroke-opacity:0.509804;stroke-miterlimit:10;" d="M 130.320312 241.934929 C 127.576172 241.934929 126.203125 241.634148 126.203125 241.030632 L 126.203125 211.649773 C 126.203125 210.622429 126.669922 210.108757 127.601562 210.108757 L 135.580078 210.108757 C 140.054688 210.108757 143.28125 211.032586 145.259766 212.880242 C 147.242188 214.723992 148.234375 217.39782 148.234375 220.903679 C 148.234375 223.802117 147.296875 226.462273 145.417969 228.882195 C 144.486328 230.087273 143.111328 231.052117 141.292969 231.778679 C 139.480469 232.503289 137.367188 232.86657 134.951172 232.86657 L 134.951172 240.987664 C 134.951172 241.347039 134.384766 241.595086 133.251953 241.731804 C 132.119141 241.86657 131.140625 241.934929 130.320312 241.934929 Z M 134.951172 217.999382 L 134.951172 225.163445 L 135.537109 225.163445 C 136.59375 225.163445 137.484375 224.833367 138.210938 224.171257 C 138.9375 223.505242 139.300781 222.565789 139.300781 221.354851 C 139.300781 220.145867 139.048828 219.282586 138.546875 218.768914 C 138.050781 218.255242 137.167969 217.999382 135.900391 217.999382 Z M 160.878906 242.298211 C 157.886719 242.298211 155.363281 241.278679 153.308594 239.243523 C 151.253906 237.200554 150.226562 234.372429 150.226562 230.759148 C 150.226562 227.145867 151.216797 224.239617 153.193359 222.036492 C 155.177734 219.829461 157.679688 218.725945 160.703125 218.725945 C 163.724609 218.725945 166.060547 219.495476 167.707031 221.036492 C 169.353516 222.577507 170.177734 224.452507 170.177734 226.659539 C 170.177734 231.55407 167.367188 234.001336 161.748047 234.001336 L 158.613281 234.001336 C 158.613281 234.909539 158.861328 235.538445 159.357422 235.886101 C 159.859375 236.235711 160.59375 236.409539 161.5625 236.409539 C 163.681641 236.409539 165.691406 235.925164 167.591797 234.956414 C 167.621094 234.927117 167.757812 235.136101 168 235.58532 C 168.724609 236.890007 169.087891 237.987664 169.087891 238.880242 C 169.087891 239.770867 168.802734 240.352898 168.230469 240.624382 C 168.230469 240.624382 163.873047 242.298211 160.878906 242.298211 Z M 162.5625 227.518914 C 162.5625 226.249382 161.943359 225.614617 160.703125 225.614617 C 160.130859 225.614617 159.636719 225.788445 159.224609 226.138054 C 158.816406 226.485711 158.613281 226.989617 158.613281 227.651726 L 158.613281 229.059929 L 161.066406 229.059929 C 162.0625 229.059929 162.5625 228.546257 162.5625 227.518914 Z M 183.056641 241.802117 C 183.056641 242.015007 181.679688 242.120476 178.929688 242.120476 C 176.177734 242.056023 174.802734 241.934929 174.802734 241.757195 L 174.802734 226.704461 L 173.580078 226.704461 C 173.097656 226.704461 172.710938 226.409539 172.419922 225.817742 C 172.130859 225.227898 171.986328 224.495476 171.986328 223.622429 C 171.986328 220.358757 172.955078 218.725945 174.890625 218.725945 C 176.25 218.725945 177.382812 219.141961 178.291016 219.973992 C 179.201172 220.800164 179.65625 221.745476 179.65625 222.807976 C 180.287109 221.567742 181.140625 220.579461 182.214844 219.841179 C 183.289062 219.097039 184.384766 218.725945 185.5 218.725945 C 187.253906 218.725945 188.3125 219.177117 188.679688 220.079461 C 188.767578 220.321648 188.8125 220.67907 188.8125 221.151726 C 188.8125 221.618523 188.666016 222.456414 188.376953 223.667351 C 188.09375 224.876336 187.798828 225.753289 187.492188 226.296257 C 187.191406 226.839226 187.011719 227.110711 186.951172 227.110711 C 186.892578 227.110711 186.613281 226.999382 186.111328 226.774773 C 185.615234 226.544304 185.169922 226.42907 184.773438 226.42907 C 183.628906 226.42907 183.056641 227.33532 183.056641 229.14782 Z M 199.328125 241.483757 C 199.328125 241.755242 197.787109 241.890007 194.705078 241.890007 C 192.285156 241.860711 191.074219 241.739617 191.074219 241.526726 L 191.074219 210.649773 C 191.074219 210.200554 192.541016 209.975945 195.474609 209.975945 C 198.042969 210.065789 199.328125 210.216179 199.328125 210.42907 Z M 211.703125 241.571648 C 211.703125 241.813836 210.318359 241.934929 207.550781 241.934929 C 204.787109 241.934929 203.40625 241.827507 203.40625 241.61657 L 203.40625 219.354851 C 203.40625 219.14782 204.787109 219.044304 207.550781 219.044304 C 210.318359 219.044304 211.703125 219.132195 211.703125 219.309929 Z M 211.703125 216.636101 C 211.703125 216.848992 210.318359 216.954461 207.550781 216.954461 C 204.787109 216.954461 203.40625 216.862664 203.40625 216.67907 L 203.40625 210.153679 C 203.40625 209.852898 204.787109 209.702507 207.550781 209.702507 C 210.318359 209.702507 211.703125 209.794304 211.703125 209.975945 Z M 225.257812 241.571648 C 225.257812 241.784539 224.171875 241.890007 222 241.890007 C 218.976562 241.802117 217.466797 241.636101 217.466797 241.393914 L 217.466797 226.704461 L 216.289062 226.704461 C 215.503906 226.704461 214.990234 226.040398 214.748047 224.712273 C 214.681641 224.315789 214.650391 223.923211 214.650391 223.534539 C 214.650391 222.595086 214.832031 221.655632 215.199219 220.718132 C 215.742188 219.390007 216.585938 218.725945 217.732422 218.725945 C 218.882812 218.725945 219.910156 218.997429 220.8125 219.540398 C 221.722656 220.083367 222.330078 220.626336 222.636719 221.169304 C 224.539062 219.540398 226.802734 218.725945 229.429688 218.725945 C 232.0625 218.725945 233.966797 219.436882 235.140625 220.858757 C 236.322266 222.276726 236.912109 224.602898 236.912109 227.837273 L 236.912109 241.438836 C 236.912109 241.798211 235.619141 241.979851 233.033203 241.979851 C 230.453125 241.979851 229.164062 241.798211 229.164062 241.438836 L 229.164062 228.333367 C 229.164062 226.821648 228.634766 226.065789 227.578125 226.065789 C 227.271484 226.065789 226.845703 226.196648 226.302734 226.456414 C 225.759766 226.71032 225.412109 226.899773 225.257812 227.02282 Z M 274.365234 240.845086 C 274.365234 241.483757 272.943359 241.802117 270.097656 241.802117 C 267.257812 241.802117 265.716797 241.575554 265.474609 241.120476 L 257.904297 226.977898 L 257.904297 241.075554 C 257.904297 241.618523 256.505859 241.890007 253.707031 241.890007 C 250.914062 241.890007 249.517578 241.618523 249.517578 241.075554 L 249.517578 210.747429 C 249.517578 210.292351 250.710938 210.065789 253.095703 210.065789 C 254.035156 210.065789 255.128906 210.14782 256.380859 210.313836 C 257.638672 210.477898 258.402344 210.788445 258.673828 211.243523 L 265.927734 225.208367 L 265.927734 210.968132 C 265.927734 210.395867 267.332031 210.108757 270.142578 210.108757 C 272.957031 210.108757 274.365234 210.395867 274.365234 210.968132 Z M 280.642578 239.171257 C 278.751953 237.087273 277.808594 234.200554 277.808594 230.511101 C 277.808594 226.821648 278.751953 223.934929 280.642578 221.850945 C 282.53125 219.766961 285.078125 218.725945 288.283203 218.725945 C 291.490234 218.725945 294.027344 219.766961 295.898438 221.850945 C 297.771484 223.934929 298.707031 226.821648 298.707031 230.511101 C 298.707031 234.200554 297.771484 237.087273 295.898438 239.171257 C 294.027344 241.255242 291.490234 242.298211 288.283203 242.298211 C 285.078125 242.298211 282.53125 241.255242 280.642578 239.171257 Z M 285.742188 230.468132 C 285.742188 233.247429 286.595703 234.638054 288.300781 234.638054 C 290.013672 234.638054 290.869141 233.247429 290.869141 230.468132 C 290.869141 227.686882 290.013672 226.296257 288.300781 226.296257 C 288.300781 226.296257 285.742188 227.686882 285.742188 230.468132 Z M 310.222656 241.571648 C 310.222656 241.813836 308.837891 241.934929 306.070312 241.934929 C 303.306641 241.934929 301.925781 241.827507 301.925781 241.61657 L 301.925781 219.354851 C 301.925781 219.14782 303.306641 219.044304 306.070312 219.044304 C 308.837891 219.044304 310.222656 219.132195 310.222656 219.309929 Z M 310.222656 216.636101 C 310.222656 216.848992 308.837891 216.954461 306.070312 216.954461 C 303.306641 216.954461 301.925781 216.862664 301.925781 216.67907 L 301.925781 210.153679 C 301.925781 209.852898 303.306641 209.702507 306.070312 209.702507 C 308.837891 209.702507 310.222656 209.794304 310.222656 209.975945 Z M 321.058594 235.903679 C 321.96875 235.903679 322.423828 235.589226 322.423828 234.956414 C 322.423828 234.503289 321.638672 233.911492 320.068359 233.186882 C 316.289062 231.645867 314.400391 229.120476 314.400391 225.614617 C 314.400391 223.378289 315.214844 221.671257 316.84375 220.497429 C 318.480469 219.315789 320.4375 218.725945 322.714844 218.725945 C 325 218.725945 326.933594 218.968132 328.515625 219.452507 C 330.103516 219.934929 330.896484 220.569695 330.896484 221.354851 C 330.896484 222.016961 330.572266 222.893914 329.923828 223.985711 C 329.273438 225.071648 328.828125 225.659539 328.585938 225.747429 C 327.287109 225.026726 325.882812 224.667351 324.371094 224.667351 C 323.556641 224.667351 323.148438 224.954461 323.148438 225.526726 C 323.148438 225.886101 323.306641 226.196648 323.619141 226.456414 C 323.9375 226.71032 324.519531 227.024773 325.363281 227.403679 C 326.212891 227.780632 326.916016 228.124382 327.470703 228.431023 C 328.03125 228.731804 328.660156 229.153679 329.357422 229.696648 C 330.808594 230.843132 331.535156 232.339226 331.535156 234.186882 C 331.535156 236.600945 330.732422 238.557976 329.126953 240.057976 C 327.527344 241.550164 325.109375 242.298211 321.875 242.298211 C 319.730469 242.298211 317.783203 241.934929 316.029297 241.208367 C 314.277344 240.481804 313.400391 239.485711 313.400391 238.216179 C 313.400391 237.372429 313.603516 236.483757 314.011719 235.550164 C 314.417969 234.610711 314.833984 233.989617 315.259766 233.681023 C 315.259766 233.681023 319.642578 235.903679 321.058594 235.903679 Z M 344.498047 242.298211 C 341.505859 242.298211 338.982422 241.278679 336.927734 239.243523 C 334.873047 237.200554 333.845703 234.372429 333.845703 230.759148 C 333.845703 227.145867 334.835938 224.239617 336.8125 222.036492 C 338.796875 219.829461 341.298828 218.725945 344.322266 218.725945 C 347.34375 218.725945 349.679688 219.495476 351.326172 221.036492 C 352.972656 222.577507 353.796875 224.452507 353.796875 226.659539 C 353.796875 231.55407 350.986328 234.001336 345.367188 234.001336 L 342.232422 234.001336 C 342.232422 234.909539 342.480469 235.538445 342.976562 235.886101 C 343.478516 236.235711 344.212891 236.409539 345.181641 236.409539 C 347.300781 236.409539 349.310547 235.925164 351.210938 234.956414 C 351.240234 234.927117 351.376953 235.136101 351.619141 235.58532 C 352.34375 236.890007 352.707031 237.987664 352.707031 238.880242 C 352.707031 239.770867 352.421875 240.352898 351.847656 240.624382 C 351.847656 240.624382 347.492188 242.298211 344.498047 242.298211 Z M 346.181641 227.518914 C 346.181641 226.249382 345.560547 225.614617 344.322266 225.614617 C 343.75 225.614617 343.255859 225.788445 342.84375 226.138054 C 342.435547 226.485711 342.232422 226.989617 342.232422 227.651726 L 342.232422 229.059929 L 344.685547 229.059929 C 345.681641 229.059929 346.181641 228.546257 346.181641 227.518914 Z M 346.181641 227.518914 " transform="matrix(2,0,0,2,-180,-210.23314)"/>
<path style=" stroke:none;fill-rule:nonzero;fill:rgb(100%,100%,100%);fill-opacity:1;" d="M 80.640625 273.636719 C 75.152344 273.636719 72.40625 273.035156 72.40625 271.828125 L 72.40625 213.066406 C 72.40625 211.011719 73.339844 209.984375 75.203125 209.984375 L 91.160156 209.984375 C 100.109375 209.984375 106.5625 211.832031 110.519531 215.527344 C 114.484375 219.214844 116.46875 224.5625 116.46875 231.574219 C 116.46875 237.371094 114.59375 242.691406 110.835938 247.53125 C 108.972656 249.941406 106.222656 251.871094 102.585938 253.324219 C 98.960938 254.773438 94.734375 255.5 89.902344 255.5 L 89.902344 271.742188 C 89.902344 272.460938 88.769531 272.957031 86.503906 273.230469 C 84.238281 273.5 82.28125 273.636719 80.640625 273.636719 Z M 89.902344 225.765625 L 89.902344 240.09375 L 91.074219 240.09375 C 93.1875 240.09375 94.96875 239.433594 96.421875 238.109375 C 97.875 236.777344 98.601562 234.898438 98.601562 232.476562 C 98.601562 230.058594 98.097656 228.332031 97.09375 227.304688 C 96.101562 226.277344 94.335938 225.765625 91.800781 225.765625 Z M 156.460938 271.015625 C 152.644531 273.246094 147.746094 274.363281 141.757812 274.363281 C 135.773438 274.363281 130.726562 272.324219 126.617188 268.253906 C 122.507812 264.167969 120.453125 258.511719 120.453125 251.285156 C 120.453125 244.058594 122.433594 238.246094 126.386719 233.839844 C 130.355469 229.425781 135.359375 227.21875 141.40625 227.21875 C 147.449219 227.21875 152.121094 228.757812 155.414062 231.839844 C 158.707031 234.921875 160.355469 238.671875 160.355469 243.085938 C 160.355469 252.875 154.734375 257.769531 143.496094 257.769531 L 137.226562 257.769531 C 137.226562 259.585938 137.722656 260.84375 138.714844 261.539062 C 139.71875 262.238281 141.1875 262.585938 143.125 262.585938 C 147.363281 262.585938 151.382812 261.617188 155.183594 259.679688 C 155.242188 259.621094 155.515625 260.039062 156 260.9375 C 157.449219 263.546875 158.175781 265.742188 158.175781 267.527344 C 158.175781 269.308594 157.605469 270.472656 156.460938 271.015625 Z M 145.125 244.804688 C 145.125 242.265625 143.886719 240.996094 141.40625 240.996094 C 140.261719 240.996094 139.273438 241.34375 138.449219 242.042969 C 137.632812 242.738281 137.226562 243.746094 137.226562 245.070312 L 137.226562 247.886719 L 142.132812 247.886719 C 144.125 247.886719 145.125 246.859375 145.125 244.804688 Z M 186.113281 273.371094 C 186.113281 273.796875 183.359375 274.007812 177.859375 274.007812 C 172.355469 273.878906 169.605469 273.636719 169.605469 273.28125 L 169.605469 243.175781 L 167.160156 243.175781 C 166.195312 243.175781 165.421875 242.585938 164.839844 241.402344 C 164.261719 240.222656 163.972656 238.757812 163.972656 237.011719 C 163.972656 230.484375 165.910156 227.21875 169.78125 227.21875 C 172.5 227.21875 174.765625 228.050781 176.582031 229.714844 C 178.402344 231.367188 179.3125 233.257812 179.3125 235.382812 C 180.574219 232.902344 182.28125 230.925781 184.429688 229.449219 C 186.578125 227.960938 188.769531 227.21875 191 227.21875 C 194.507812 227.21875 196.625 228.121094 197.359375 229.925781 C 197.535156 230.410156 197.625 231.125 197.625 232.070312 C 197.625 233.003906 197.332031 234.679688 196.753906 237.101562 C 196.1875 239.519531 195.597656 241.273438 194.984375 242.359375 C 194.382812 243.445312 194.023438 243.988281 193.902344 243.988281 C 193.785156 243.988281 193.226562 243.765625 192.222656 243.316406 C 191.230469 242.855469 190.339844 242.625 189.546875 242.625 C 187.257812 242.625 186.113281 244.4375 186.113281 248.0625 Z M 218.65625 272.734375 C 218.65625 273.277344 215.574219 273.546875 209.410156 273.546875 C 204.570312 273.488281 202.148438 273.246094 202.148438 272.820312 L 202.148438 211.066406 C 202.148438 210.167969 205.082031 209.71875 210.949219 209.71875 C 216.085938 209.898438 218.65625 210.199219 218.65625 210.625 Z M 243.40625 272.910156 C 243.40625 273.394531 240.636719 273.636719 235.101562 273.636719 C 229.574219 273.636719 226.8125 273.421875 226.8125 273 L 226.8125 228.476562 C 226.8125 228.0625 229.574219 227.855469 235.101562 227.855469 C 240.636719 227.855469 243.40625 228.03125 243.40625 228.386719 Z M 243.40625 223.039062 C 243.40625 223.464844 240.636719 223.675781 235.101562 223.675781 C 229.574219 223.675781 226.8125 223.492188 226.8125 223.125 L 226.8125 210.074219 C 226.8125 209.472656 229.574219 209.171875 235.101562 209.171875 C 240.636719 209.171875 243.40625 209.355469 243.40625 209.71875 Z M 270.515625 272.910156 C 270.515625 273.335938 268.34375 273.546875 264 273.546875 C 257.953125 273.371094 254.933594 273.039062 254.933594 272.554688 L 254.933594 243.175781 L 252.578125 243.175781 C 251.007812 243.175781 249.980469 241.847656 249.496094 239.191406 C 249.363281 238.398438 249.300781 237.613281 249.300781 236.835938 C 249.300781 234.957031 249.664062 233.078125 250.398438 231.203125 C 251.484375 228.546875 253.171875 227.21875 255.464844 227.21875 C 257.765625 227.21875 259.820312 227.761719 261.625 228.847656 C 263.445312 229.933594 264.660156 231.019531 265.273438 232.105469 C 269.078125 228.847656 273.605469 227.21875 278.859375 227.21875 C 284.125 227.21875 287.933594 228.640625 290.28125 231.484375 C 292.644531 234.320312 293.824219 238.972656 293.824219 245.441406 L 293.824219 272.644531 C 293.824219 273.363281 291.238281 273.726562 286.066406 273.726562 C 280.90625 273.726562 278.328125 273.363281 278.328125 272.644531 L 278.328125 246.433594 C 278.328125 243.410156 277.269531 241.898438 275.15625 241.898438 C 274.542969 241.898438 273.691406 242.160156 272.605469 242.679688 C 271.519531 243.1875 270.824219 243.566406 270.515625 243.8125 Z M 368.730469 271.457031 C 368.730469 272.734375 365.886719 273.371094 360.195312 273.371094 C 354.515625 273.371094 351.433594 272.917969 350.949219 272.007812 L 335.808594 243.722656 L 335.808594 271.917969 C 335.808594 273.003906 333.011719 273.546875 327.414062 273.546875 C 321.828125 273.546875 319.035156 273.003906 319.035156 271.917969 L 319.035156 211.261719 C 319.035156 210.351562 321.421875 209.898438 326.191406 209.898438 C 328.070312 209.898438 330.257812 210.0625 332.761719 210.394531 C 335.277344 210.722656 336.804688 211.34375 337.347656 212.253906 L 351.855469 240.183594 L 351.855469 211.703125 C 351.855469 210.558594 354.664062 209.984375 360.285156 209.984375 C 365.914062 209.984375 368.730469 210.558594 368.730469 211.703125 Z M 381.285156 268.109375 C 377.503906 263.941406 375.617188 258.167969 375.617188 250.789062 C 375.617188 243.410156 377.503906 237.636719 381.285156 233.46875 C 385.0625 229.300781 390.15625 227.21875 396.566406 227.21875 C 402.980469 227.21875 408.054688 229.300781 411.796875 233.46875 C 415.542969 237.636719 417.414062 243.410156 417.414062 250.789062 C 417.414062 258.167969 415.542969 263.941406 411.796875 268.109375 C 408.054688 272.277344 402.980469 274.363281 396.566406 274.363281 C 390.15625 274.363281 385.0625 272.277344 381.285156 268.109375 Z M 396.601562 242.359375 C 393.191406 242.359375 391.484375 245.140625 391.484375 250.703125 C 391.484375 256.261719 393.191406 259.042969 396.601562 259.042969 C 400.027344 259.042969 401.738281 256.261719 401.738281 250.703125 C 401.738281 245.140625 400.027344 242.359375 396.601562 242.359375 Z M 440.445312 272.910156 C 440.445312 273.394531 437.675781 273.636719 432.140625 273.636719 C 426.613281 273.636719 423.851562 273.421875 423.851562 273 L 423.851562 228.476562 C 423.851562 228.0625 426.613281 227.855469 432.140625 227.855469 C 437.675781 227.855469 440.445312 228.03125 440.445312 228.386719 Z M 440.445312 223.039062 C 440.445312 223.464844 437.675781 223.675781 432.140625 223.675781 C 426.613281 223.675781 423.851562 223.492188 423.851562 223.125 L 423.851562 210.074219 C 423.851562 209.472656 426.613281 209.171875 432.140625 209.171875 C 437.675781 209.171875 440.445312 209.355469 440.445312 209.71875 Z M 462.117188 261.574219 C 463.9375 261.574219 464.847656 260.945312 464.847656 259.679688 C 464.847656 258.773438 463.277344 257.589844 460.136719 256.140625 C 452.578125 253.058594 448.800781 248.007812 448.800781 240.996094 C 448.800781 236.523438 450.429688 233.109375 453.6875 230.761719 C 456.960938 228.398438 460.875 227.21875 465.429688 227.21875 C 470 227.21875 473.867188 227.703125 477.03125 228.671875 C 480.207031 229.636719 481.792969 230.90625 481.792969 232.476562 C 481.792969 233.800781 481.144531 235.554688 479.847656 237.738281 C 478.546875 239.910156 477.65625 241.085938 477.171875 241.261719 C 474.574219 239.820312 471.765625 239.101562 468.742188 239.101562 C 467.113281 239.101562 466.296875 239.675781 466.296875 240.820312 C 466.296875 241.539062 466.613281 242.160156 467.238281 242.679688 C 467.875 243.1875 469.039062 243.816406 470.726562 244.574219 C 472.425781 245.328125 473.832031 246.015625 474.941406 246.628906 C 476.0625 247.230469 477.320312 248.074219 478.714844 249.160156 C 481.617188 251.453125 483.070312 254.445312 483.070312 258.140625 C 483.070312 262.96875 481.464844 266.882812 478.253906 269.882812 C 475.054688 272.867188 470.21875 274.363281 463.75 274.363281 C 459.460938 274.363281 455.566406 273.636719 452.058594 272.183594 C 448.554688 270.730469 446.800781 268.738281 446.800781 266.199219 C 446.800781 264.511719 447.207031 262.734375 448.023438 260.867188 C 448.835938 258.988281 449.667969 257.746094 450.519531 257.128906 C 450.519531 257.128906 459.285156 261.574219 462.117188 261.574219 Z M 523.695312 271.015625 C 519.882812 273.246094 514.984375 274.363281 508.996094 274.363281 C 503.011719 274.363281 497.964844 272.324219 493.855469 268.253906 C 489.746094 264.167969 487.691406 258.511719 487.691406 251.285156 C 487.691406 244.058594 489.671875 238.246094 493.625 233.839844 C 497.59375 229.425781 502.597656 227.21875 508.644531 227.21875 C 514.6875 227.21875 519.359375 228.757812 522.652344 231.839844 C 525.945312 234.921875 527.59375 238.671875 527.59375 243.085938 C 527.59375 252.875 521.972656 257.769531 510.734375 257.769531 L 504.464844 257.769531 C 504.464844 259.585938 504.960938 260.84375 505.953125 261.539062 C 506.957031 262.238281 508.425781 262.585938 510.363281 262.585938 C 514.601562 262.585938 518.621094 261.617188 522.421875 259.679688 C 522.480469 259.621094 522.753906 260.039062 523.238281 260.9375 C 524.6875 263.546875 525.414062 265.742188 525.414062 267.527344 C 525.414062 269.308594 524.84375 270.472656 523.695312 271.015625 Z M 512.363281 244.804688 C 512.363281 242.265625 511.121094 240.996094 508.644531 240.996094 C 507.5 240.996094 506.511719 241.34375 505.6875 242.042969 C 504.871094 242.738281 504.464844 243.746094 504.464844 245.070312 L 504.464844 247.886719 L 509.371094 247.886719 C 511.363281 247.886719 512.363281 246.859375 512.363281 244.804688 Z M 512.363281 244.804688 "/>
</g>
</svg>
