<svg xmlns="http://www.w3.org/2000/svg" xmlns:xlink="http://www.w3.org/1999/xlink" width="600px" height="300px" viewBox="0 0 600 300" version="1.1">
<g id="surface1">
<path style=" stroke:none;fill-rule:nonzero;fill:rgb(52.549022%,5.490196%,80.000001%);fill-opacity:1;" d="M 0 299.273438 L 0 0.273438 L 601 0.273438 L 601 299.273438 Z M 0 299.273438 "/>
<path style=" stroke:none;fill-rule:nonzero;fill:rgb(78.039217%,40.000001%,100%);fill-opacity:1;" d="M 225.46875 230.3125 L 286.5 184.148438 L 286.5 214.585938 L 225.421875 257.542969 L 167.828125 210.660156 L 167.828125 183.164062 Z M 225.46875 230.3125 "/>
<path style=" stroke:none;fill-rule:nonzero;fill:rgb(78.039217%,40.000001%,100%);fill-opacity:1;" d="M 521.957031 230.3125 L 582.988281 184.148438 L 582.988281 214.585938 L 521.914062 257.542969 L 464.320312 210.660156 L 464.320312 183.164062 Z M 521.957031 230.3125 "/>
<path style=" stroke:none;fill-rule:nonzero;fill:rgb(78.039217%,40.000001%,100%);fill-opacity:1;" d="M 313.996094 111.378906 L 313.996094 83.886719 L 371.589844 37 L 432.667969 79.957031 L 432.667969 110.398438 L 371.636719 64.230469 Z M 313.996094 111.378906 "/>
<path style=" stroke:none;fill-rule:nonzero;fill:rgb(78.039217%,40.000001%,100%);fill-opacity:1;" d="M 18.011719 111.378906 L 18.011719 83.886719 L 75.605469 37 L 136.679688 79.957031 L 136.679688 110.398438 L 75.648438 64.230469 Z M 18.011719 111.378906 "/>
<path style=" stroke:none;fill-rule:nonzero;fill:rgb(65.882355%,7.058824%,100%);fill-opacity:1;" d="M 18.011719 298.878906 L 18.011719 245.710938 L 76.261719 197.210938 L 136.679688 244.378906 L 136.679688 298.878906 Z M 18.011719 298.878906 "/>
<path style=" stroke:none;fill-rule:nonzero;fill:rgb(70.588237%,20%,100%);fill-opacity:1;" d="M 18.011719 216.378906 L 18.011719 188.886719 L 75.605469 142 L 136.679688 184.957031 L 136.679688 215.398438 L 75.648438 169.230469 Z M 18.011719 216.378906 "/>
<path style=" stroke:none;fill-rule:nonzero;fill:rgb(74.509805%,30.19608%,100%);fill-opacity:1;" d="M 18.011719 164.378906 L 18.011719 136.886719 L 75.605469 90 L 136.679688 132.957031 L 136.679688 163.398438 L 75.648438 117.230469 Z M 18.011719 164.378906 "/>
<path style=" stroke:none;fill-rule:nonzero;fill:rgb(65.882355%,7.058824%,100%);fill-opacity:1;" d="M 286.5 0 L 286.5 47.164062 L 226.078125 94.332031 L 167.828125 45.832031 L 167.828125 0 Z M 286.5 0 "/>
<path style=" stroke:none;fill-rule:nonzero;fill:rgb(70.588237%,20%,100%);fill-opacity:1;" d="M 225.46875 122.3125 L 286.5 76.148438 L 286.5 106.585938 L 225.421875 149.542969 L 167.828125 102.660156 L 167.828125 75.164062 Z M 225.46875 122.3125 "/>
<path style=" stroke:none;fill-rule:nonzero;fill:rgb(74.509805%,30.19608%,100%);fill-opacity:1;" d="M 225.46875 174.3125 L 286.5 128.148438 L 286.5 158.585938 L 225.421875 201.542969 L 167.828125 154.660156 L 167.828125 127.164062 Z M 225.46875 174.3125 "/>
<path style=" stroke:none;fill-rule:nonzero;fill:rgb(65.882355%,7.058824%,100%);fill-opacity:1;" d="M 314.5 298.878906 L 314.5 245.710938 L 372.75 197.210938 L 433.171875 244.378906 L 433.171875 298.878906 Z M 314.5 298.878906 "/>
<path style=" stroke:none;fill-rule:nonzero;fill:rgb(70.588237%,20%,100%);fill-opacity:1;" d="M 314.5 216.378906 L 314.5 188.886719 L 372.09375 142 L 433.171875 184.957031 L 433.171875 215.398438 L 372.140625 169.230469 Z M 314.5 216.378906 "/>
<path style=" stroke:none;fill-rule:nonzero;fill:rgb(74.509805%,30.19608%,100%);fill-opacity:1;" d="M 314.5 164.378906 L 314.5 136.886719 L 372.09375 90 L 433.171875 132.957031 L 433.171875 163.398438 L 372.140625 117.230469 Z M 314.5 164.378906 "/>
<path style=" stroke:none;fill-rule:nonzero;fill:rgb(65.882355%,7.058824%,100%);fill-opacity:1;" d="M 582.988281 0 L 582.988281 47.164062 L 522.570312 94.332031 L 464.320312 45.832031 L 464.320312 0 Z M 582.988281 0 "/>
<path style=" stroke:none;fill-rule:nonzero;fill:rgb(70.588237%,20%,100%);fill-opacity:1;" d="M 521.957031 122.3125 L 582.988281 76.148438 L 582.988281 106.585938 L 521.914062 149.542969 L 464.320312 102.660156 L 464.320312 75.164062 Z M 521.957031 122.3125 "/>
<path style=" stroke:none;fill-rule:nonzero;fill:rgb(74.509805%,30.19608%,100%);fill-opacity:1;" d="M 521.957031 174.3125 L 582.988281 128.148438 L 582.988281 158.585938 L 521.914062 201.542969 L 464.320312 154.660156 L 464.320312 127.164062 Z M 521.957031 174.3125 "/>
<path style="fill-rule:evenodd;fill:rgb(100%,100%,100%);fill-opacity:1;stroke-width:5;stroke-linecap:butt;stroke-linejoin:miter;stroke:rgb(0%,0%,0%);stroke-opacity:0.501961;stroke-miterlimit:10;" d="M 155.351562 132.811043 C 157.015918 131.393074 157.79651 129.195808 157.403294 127.045418 L 156.507851 122.154793 C 156.087383 119.84034 158.995625 118.45948 160.519824 120.248543 L 163.749258 124.02784 C 165.166393 125.691902 167.364121 126.475105 169.513183 126.080574 L 174.403079 125.187996 C 176.717604 124.766121 178.0997 127.674324 176.312708 129.203621 L 172.530436 132.42823 C 170.868027 133.846199 170.087435 136.041512 170.480651 138.189949 L 171.3722 143.082527 C 171.794616 145.395027 168.886373 146.77784 167.358281 144.99073 L 164.132741 141.207527 C 162.713659 139.545418 160.517877 138.764168 158.366868 139.158699 L 153.476972 140.05323 C 151.164394 140.475105 149.782298 137.564949 151.56929 136.037605 Z M 155.351562 132.811043 " transform="matrix(2.006689,0,0,2,-181.105547,-210.227554)"/>
<path style=" stroke:none;fill-rule:evenodd;fill:rgb(100%,100%,100%);fill-opacity:1;" d="M 130.636719 55.394531 C 133.976562 52.558594 135.542969 48.164062 134.753906 43.863281 L 132.957031 34.082031 C 132.113281 29.453125 137.949219 26.691406 141.007812 30.269531 L 147.488281 37.828125 C 150.332031 41.15625 154.742188 42.722656 159.054688 41.933594 L 168.867188 40.148438 C 173.511719 39.304688 176.285156 45.121094 172.699219 48.179688 L 165.109375 54.628906 C 161.773438 57.464844 160.207031 61.855469 160.996094 66.152344 L 162.785156 75.9375 C 163.632812 80.5625 157.796875 83.328125 154.730469 79.753906 L 148.257812 72.1875 C 145.410156 68.863281 141.003906 67.300781 136.6875 68.089844 L 126.875 69.878906 C 122.234375 70.722656 119.460938 64.902344 123.046875 61.847656 Z M 130.636719 55.394531 "/>
<path style="fill-rule:evenodd;fill:rgb(100%,100%,100%);fill-opacity:1;stroke-width:4;stroke-linecap:butt;stroke-linejoin:miter;stroke:rgb(0%,0%,0%);stroke-opacity:0.501961;stroke-miterlimit:10;" d="M 133.467721 163.24659 C 134.999707 163.852058 136.738034 163.594246 138.030586 162.570808 L 140.968027 160.24659 C 142.35791 159.14698 144.306471 160.594246 143.656302 162.24073 L 142.281992 165.727058 C 141.676595 167.258308 141.933548 168.99659 142.955521 170.289558 L 145.281725 173.227058 C 146.379616 174.617683 144.933281 176.566902 143.284498 175.916512 L 139.798112 174.541512 C 138.268073 173.937996 136.529746 174.193855 135.23914 175.21534 L 132.299752 177.539558 C 130.911816 178.639168 128.963255 177.193855 129.611478 175.545418 L 130.985788 172.05909 C 131.591185 170.52784 131.334232 168.789558 130.310312 167.498543 L 127.984108 164.561043 C 126.886217 163.170418 128.332552 161.221199 129.981334 161.87159 Z M 133.467721 163.24659 " transform="matrix(2.006689,0,0,2,-181.105547,-210.227554)"/>
<path style=" stroke:none;fill-rule:evenodd;fill:rgb(100%,100%,100%);fill-opacity:1;" d="M 86.722656 116.265625 C 89.796875 117.476562 93.285156 116.960938 95.878906 114.914062 L 101.773438 110.265625 C 104.5625 108.066406 108.472656 110.960938 107.167969 114.253906 L 104.410156 121.226562 C 103.195312 124.289062 103.710938 127.765625 105.761719 130.351562 L 110.429688 136.226562 C 112.632812 139.007812 109.730469 142.90625 106.421875 141.605469 L 99.425781 138.855469 C 96.355469 137.648438 92.867188 138.160156 90.277344 140.203125 L 84.378906 144.851562 C 81.59375 147.050781 77.683594 144.160156 78.984375 140.863281 L 81.742188 133.890625 C 82.957031 130.828125 82.441406 127.351562 80.386719 124.769531 L 75.71875 118.894531 C 73.515625 116.113281 76.417969 112.214844 79.726562 113.515625 Z M 86.722656 116.265625 "/>
<path style="fill-rule:evenodd;fill:rgb(100%,100%,100%);fill-opacity:1;stroke-width:5;stroke-linecap:butt;stroke-linejoin:miter;stroke:rgb(0%,0%,0%);stroke-opacity:0.501961;stroke-miterlimit:10;" d="M 335.985716 211.832527 C 334.519915 213.457527 334.033262 215.738777 334.70679 217.818855 L 336.234883 222.549324 C 336.95513 224.787605 334.251282 226.539558 332.507116 224.96534 L 328.810495 221.641121 C 327.187018 220.176277 324.905586 219.689949 322.826601 220.359871 L 318.096328 221.887215 C 315.857721 222.607918 314.105768 219.906746 315.678633 218.156746 L 319.00345 214.463387 C 320.465358 212.84034 320.952012 210.561043 320.280429 208.482918 L 318.75623 203.748543 C 318.034036 201.512215 320.735937 199.762215 322.483997 201.332527 L 326.178672 204.658699 C 327.802148 206.12159 330.083581 206.607918 332.162565 205.93409 L 336.892838 204.406746 C 339.131445 203.686043 340.883398 206.389168 339.31248 208.137215 Z M 335.985716 211.832527 " transform="matrix(2.006689,0,0,2,-181.105547,-210.227554)"/>
<path style=" stroke:none;fill-rule:evenodd;fill:rgb(100%,100%,100%);fill-opacity:1;" d="M 493.113281 213.4375 C 490.171875 216.6875 489.195312 221.25 490.546875 225.410156 L 493.613281 234.871094 C 495.058594 239.347656 489.632812 242.851562 486.132812 239.703125 L 478.714844 233.054688 C 475.457031 230.125 470.878906 229.152344 466.707031 230.492188 L 457.214844 233.546875 C 452.722656 234.988281 449.207031 229.585938 452.363281 226.085938 L 459.035156 218.699219 C 461.96875 215.453125 462.945312 210.894531 461.597656 206.738281 L 458.539062 197.269531 C 457.089844 192.796875 462.511719 189.296875 466.019531 192.4375 L 473.433594 199.089844 C 476.691406 202.015625 481.269531 202.988281 485.441406 201.640625 L 494.933594 198.585938 C 499.425781 197.144531 502.941406 202.550781 499.789062 206.046875 Z M 493.113281 213.4375 "/>
<path style="fill-rule:evenodd;fill:rgb(100%,100%,100%);fill-opacity:1;stroke-width:4;stroke-linecap:butt;stroke-linejoin:miter;stroke:rgb(0%,0%,0%);stroke-opacity:0.501961;stroke-miterlimit:10;" d="M 345.648711 182.270027 C 344.862278 180.822762 343.361439 179.904793 341.714603 179.861824 L 337.969316 179.764168 C 336.197897 179.71534 335.629485 177.355965 337.184831 176.510262 L 340.474609 174.713387 C 341.920944 173.926277 342.837799 172.42823 342.882571 170.781746 L 342.979902 167.035652 C 343.028568 165.264168 345.387864 164.695808 346.238535 166.252449 L 348.031367 169.541512 C 348.819746 170.986824 350.316693 171.90284 351.961582 171.945808 L 355.708815 172.047371 C 357.480234 172.094246 358.048646 174.451668 356.493301 175.301277 L 353.203522 177.096199 C 351.757187 177.883308 350.840332 179.383308 350.799453 181.029793 L 350.700176 184.775887 C 350.65151 186.545418 348.292213 187.113777 347.443489 185.55909 Z M 345.648711 182.270027 " transform="matrix(2.006689,0,0,2,-181.105547,-210.227554)"/>
<path style=" stroke:none;fill-rule:evenodd;fill:rgb(100%,100%,100%);fill-opacity:1;" d="M 512.503906 154.3125 C 510.925781 151.417969 507.914062 149.582031 504.609375 149.496094 L 497.09375 149.300781 C 493.539062 149.203125 492.398438 144.484375 495.519531 142.792969 L 502.121094 139.199219 C 505.023438 137.625 506.863281 134.628906 506.953125 131.335938 L 507.148438 123.84375 C 507.246094 120.300781 511.980469 119.164062 513.6875 122.277344 L 517.285156 128.855469 C 518.867188 131.746094 521.871094 133.578125 525.171875 133.664062 L 532.691406 133.867188 C 536.246094 133.960938 537.386719 138.675781 534.265625 140.375 L 527.664062 143.964844 C 524.761719 145.539062 522.921875 148.539062 522.839844 151.832031 L 522.640625 159.324219 C 522.542969 162.863281 517.808594 164 516.105469 160.890625 Z M 512.503906 154.3125 "/>
<path style="fill:none;stroke-width:5;stroke-linecap:butt;stroke-linejoin:miter;stroke:rgb(0%,0%,0%);stroke-opacity:0.501961;stroke-miterlimit:10;" d="M 285.833138 176.025887 C 285.833138 171.299324 289.666022 167.46534 294.394349 167.46534 C 299.120729 167.46534 302.953613 171.299324 302.953613 176.025887 C 302.953613 180.754402 299.120729 184.588387 294.394349 184.588387 C 289.666022 184.588387 285.833138 180.754402 285.833138 176.025887 Z M 285.833138 176.025887 " transform="matrix(2.006689,0,0,2,-181.105547,-210.227554)"/>
<path style=" stroke:none;fill-rule:nonzero;fill:rgb(72.549021%,25.098041%,100%);fill-opacity:1;" d="M 392.472656 141.824219 C 392.472656 132.371094 400.164062 124.703125 409.652344 124.703125 C 419.136719 124.703125 426.828125 132.371094 426.828125 141.824219 C 426.828125 151.28125 419.136719 158.949219 409.652344 158.949219 C 400.164062 158.949219 392.472656 151.28125 392.472656 141.824219 Z M 392.472656 141.824219 "/>
<path style=" stroke:none;fill-rule:nonzero;fill:rgb(0%,0%,0%);fill-opacity:0.501961;" d="M 228.578125 221.570312 C 216.183594 221.570312 206.132812 211.554688 206.132812 199.199219 L 206.132812 79.917969 C 206.132812 67.5625 216.183594 57.546875 228.578125 57.546875 L 384.339844 57.546875 C 396.734375 57.546875 406.785156 67.5625 406.785156 79.917969 L 406.785156 199.199219 C 406.785156 211.554688 396.734375 221.570312 384.339844 221.570312 Z M 379.105469 211.910156 C 388.503906 211.910156 396.121094 204.316406 396.121094 194.953125 L 396.121094 84.167969 C 396.121094 74.800781 388.503906 67.210938 379.105469 67.210938 L 233.8125 67.210938 C 224.414062 67.210938 216.796875 74.800781 216.796875 84.167969 L 216.796875 194.953125 C 216.796875 204.316406 224.414062 211.910156 233.8125 211.910156 Z M 379.105469 211.910156 "/>
<path style=" stroke:none;fill-rule:nonzero;fill:rgb(100%,100%,100%);fill-opacity:1;" d="M 230.238281 214.8125 C 220.472656 214.8125 212.546875 206.90625 212.546875 197.171875 L 212.546875 81.945312 C 212.546875 72.214844 220.472656 64.304688 230.238281 64.304688 L 382.679688 64.304688 C 392.445312 64.304688 400.371094 72.214844 400.371094 81.945312 L 400.371094 197.171875 C 400.371094 206.90625 392.445312 214.8125 382.679688 214.8125 Z M 230.238281 214.8125 "/>
<path style=" stroke:none;fill-rule:nonzero;fill:rgb(65.882355%,7.058824%,100%);fill-opacity:1;" d="M 300.375 159.035156 L 293.421875 160.128906 L 293.09375 168.894531 L 287.386719 172.179688 L 284.78125 161 L 277.304688 156.402344 L 280.742188 150.398438 L 288.828125 154.015625 L 296.910156 151.421875 L 290.796875 143.273438 L 285.941406 146.875 L 277.042969 145.300781 L 281.492188 138.839844 L 266.207031 142.964844 L 261.589844 135.683594 L 276.148438 132.394531 L 257.964844 131.019531 L 254.628906 121.210938 L 273.214844 123.417969 L 254.503906 116.253906 L 256.257812 104.054688 L 273.382812 114.734375 L 258.800781 97.195312 L 264.753906 87.554688 L 287.195312 114.207031 L 286.519531 127.851562 L 296.160156 129.6875 L 305.851562 109.53125 L 320.304688 112.382812 L 319.78125 120.296875 L 314.542969 118.433594 L 314.125 125.113281 L 317.4375 129.6875 L 326.027344 127.710938 L 325.734375 115.660156 L 338.417969 101.859375 L 347.988281 88.523438 L 353.894531 95.605469 L 339.789062 115.851562 L 356.359375 103.144531 L 356.699219 116.523438 L 339.71875 124.175781 L 358.414062 121.417969 L 355.484375 132.273438 L 337.183594 132.542969 L 353.644531 135.351562 L 346.589844 143.898438 L 330.515625 138.648438 L 334.757812 144.746094 L 326.261719 147.480469 L 322.144531 143.480469 L 315.5 152.394531 L 322.992188 153.660156 L 332.214844 149.519531 L 335.039062 156.433594 L 327.234375 160.03125 L 325.480469 171.800781 L 319 169.761719 L 319.070312 160.644531 L 311.960938 159.503906 L 312.738281 164.371094 L 320.503906 176.121094 L 315.386719 182.132812 L 310.019531 176.691406 L 311.371094 186.355469 L 305.597656 191.566406 L 300.289062 186.238281 L 301.238281 176.703125 L 296.21875 182.382812 L 291.589844 175.832031 L 299.476562 164.015625 Z M 300.375 159.035156 "/>
<path style="fill:none;stroke-width:5;stroke-linecap:butt;stroke-linejoin:miter;stroke:rgb(0%,0%,0%);stroke-opacity:0.501961;stroke-miterlimit:10;" d="M 274.118411 144.77784 C 274.118411 136.705574 280.660983 130.162605 288.733594 130.162605 C 296.804258 130.162605 303.348776 136.705574 303.348776 144.77784 C 303.348776 152.850105 296.804258 159.393074 288.733594 159.393074 C 280.660983 159.393074 274.118411 152.850105 274.118411 144.77784 Z M 274.118411 144.77784 " transform="matrix(2.006689,0,0,2,-181.105547,-210.227554)"/>
<path style=" stroke:none;fill-rule:nonzero;fill:rgb(69.01961%,14.901961%,100%);fill-opacity:1;" d="M 368.964844 79.328125 C 368.964844 63.183594 382.09375 50.097656 398.292969 50.097656 C 414.488281 50.097656 427.621094 63.183594 427.621094 79.328125 C 427.621094 95.472656 414.488281 108.558594 398.292969 108.558594 C 382.09375 108.558594 368.964844 95.472656 368.964844 79.328125 Z M 368.964844 79.328125 "/>
<path style="fill:none;stroke-width:5;stroke-linecap:butt;stroke-linejoin:miter;stroke:rgb(0%,0%,0%);stroke-opacity:0.501961;stroke-miterlimit:10;" d="M 184.023248 225.861824 C 179.645312 225.861824 176.094687 222.312996 176.094687 217.936043 L 176.094687 204.55909 C 176.094687 200.180183 179.645312 196.631355 184.023248 196.631355 L 220.533952 196.631355 C 224.911888 196.631355 228.460566 200.180183 228.460566 204.55909 L 228.460566 217.936043 C 228.460566 222.312996 224.911888 225.861824 220.533952 225.861824 Z M 184.023248 225.861824 " transform="matrix(2.006689,0,0,2,-181.105547,-210.227554)"/>
<path style=" stroke:none;fill-rule:nonzero;fill:rgb(72.549021%,25.098041%,100%);fill-opacity:1;" d="M 188.171875 241.496094 C 179.386719 241.496094 172.261719 234.398438 172.261719 225.644531 L 172.261719 198.890625 C 172.261719 190.132812 179.386719 183.035156 188.171875 183.035156 L 261.4375 183.035156 C 270.222656 183.035156 277.34375 190.132812 277.34375 198.890625 L 277.34375 225.644531 C 277.34375 234.398438 270.222656 241.496094 261.4375 241.496094 Z M 188.171875 241.496094 "/>
<path style=" stroke:none;fill-rule:nonzero;fill:rgb(100%,100%,100%);fill-opacity:1;" d="M 384.507812 91.65625 C 382.855469 90.011719 382.855469 87.34375 384.507812 85.699219 L 391.230469 79 L 384.507812 72.300781 C 382.855469 70.65625 382.855469 67.988281 384.507812 66.34375 L 385.628906 65.226562 C 387.277344 63.582031 389.953125 63.582031 391.601562 65.226562 L 398.324219 71.925781 L 405.046875 65.226562 C 406.699219 63.582031 409.375 63.582031 411.023438 65.226562 L 412.144531 66.34375 C 413.792969 67.988281 413.792969 70.65625 412.144531 72.300781 L 405.421875 79 L 412.144531 85.699219 C 413.792969 87.34375 413.792969 90.011719 412.144531 91.65625 L 411.023438 92.773438 C 409.375 94.417969 406.699219 94.417969 405.046875 92.773438 L 398.324219 86.074219 L 391.601562 92.773438 C 389.953125 94.417969 387.277344 94.417969 385.628906 92.773438 Z M 384.507812 91.65625 "/>
<path style=" stroke:none;fill-rule:nonzero;fill:rgb(100%,100%,100%);fill-opacity:1;" d="M 189.179688 198.03125 C 187.761719 198.03125 186.613281 196.648438 186.613281 194.941406 C 186.613281 193.238281 187.761719 191.855469 189.179688 191.855469 L 206.957031 191.855469 C 208.371094 191.855469 209.519531 193.238281 209.519531 194.941406 C 209.519531 196.648438 208.371094 198.03125 206.957031 198.03125 L 201.84375 198.03125 L 201.84375 226.59375 L 206.957031 226.59375 C 208.371094 226.59375 209.519531 227.976562 209.519531 229.683594 C 209.519531 231.386719 208.371094 232.769531 206.957031 232.769531 L 189.179688 232.769531 C 187.761719 232.769531 186.613281 231.386719 186.613281 229.683594 C 186.613281 227.976562 187.761719 226.59375 189.179688 226.59375 L 194.289062 226.59375 L 194.289062 198.03125 Z M 189.179688 198.03125 "/>
<path style=" stroke:none;fill-rule:nonzero;fill:rgb(100%,100%,100%);fill-opacity:1;" d="M 220.089844 232.769531 C 218.429688 232.769531 217.082031 231.363281 217.082031 229.628906 C 217.082031 227.894531 218.429688 226.488281 220.089844 226.488281 L 237.015625 226.488281 C 238.679688 226.488281 240.027344 227.894531 240.027344 229.628906 C 240.027344 231.363281 238.679688 232.769531 237.015625 232.769531 Z M 220.089844 232.769531 "/>
</g>
</svg>
