<svg version="1.1" xmlns="http://www.w3.org/2000/svg" xmlns:xlink="http://www.w3.org/1999/xlink" width="599.32032" height="299.37891" viewBox="0,0,599.32032,299.37891"><g transform="translate(60,-29.99999)"><g stroke-miterlimit="10"><path d="M-60,329.29688v-299.29687h599.29297v299.29688zM-60,329.29688" fill="#7b9149" fill-rule="nonzero" stroke="none" stroke-width="1"/><path d="M112.01563,329.35547l35.78906,-61.82031l35.79297,61.82031zM112.01563,329.35547" fill="#9bb65b" fill-rule="nonzero" stroke="none" stroke-width="1"/><path d="M203.85547,329.35547l35.79297,-61.82031l35.78906,61.82031zM203.85547,329.35547" fill="#63743a" fill-rule="nonzero" stroke="none" stroke-width="1"/><path d="M137.67578,262.43359l-35.78906,61.99219l-35.79297,-61.99219zM137.67578,262.43359" fill="#9bb65b" fill-rule="nonzero" stroke="none" stroke-width="1"/><path d="M229.51953,262.43359l-35.79297,61.99219l-35.79297,-61.99219zM229.51953,262.43359" fill="#63743a" fill-rule="nonzero" stroke="none" stroke-width="1"/><path d="M183.59766,184.87891l-35.79297,61.99219l-35.78906,-61.99219zM183.59766,184.87891" fill="#9bb65b" fill-rule="nonzero" stroke="none" stroke-width="1"/><path d="M91.75781,184.87891l-35.79297,61.99219l-35.78906,-61.99219zM91.75781,184.87891" fill="#63743a" fill-rule="nonzero" stroke="none" stroke-width="1"/><path d="M66.09375,251.97266l35.79297,-61.99219l35.78906,61.99219zM66.09375,251.97266" fill="#63743a" fill-rule="nonzero" stroke="none" stroke-width="1"/><path d="M157.93359,251.97266l35.79297,-61.99219l35.79297,61.99219zM157.93359,251.97266" fill="#9bb65b" fill-rule="nonzero" stroke="none" stroke-width="1"/><path d="M-59.91797,309.07031l24.04297,-41.53516l35.79297,61.84375l-59.90234,-0.08594zM-59.91797,309.07031" fill="#63743a" fill-rule="nonzero" stroke="none" stroke-width="1"/><path d="M20.17578,329.35547l35.78906,-61.82031l35.79297,61.82031zM20.17578,329.35547" fill="#9bb65b" fill-rule="nonzero" stroke="none" stroke-width="1"/><path d="M45.83594,262.43359l-35.78906,61.99219l-35.79297,-61.99219zM45.83594,262.43359" fill="#63743a" fill-rule="nonzero" stroke="none" stroke-width="1"/><path d="M-25.74609,251.97266l35.79297,-61.99219l35.78906,61.99219zM-25.74609,251.97266" fill="#63743a" fill-rule="nonzero" stroke="none" stroke-width="1"/><path d="M479.37891,329.23438l35.78906,-61.69922l24.08984,41.71875l-0.10156,19.87109zM479.37891,329.23438" fill="#9bb65b" fill-rule="nonzero" stroke="none" stroke-width="1"/><path d="M505.03906,262.43359l-35.78906,61.99219l-35.79297,-61.99219zM505.03906,262.43359" fill="#9bb65b" fill-rule="nonzero" stroke="none" stroke-width="1"/><path d="M539.32031,286.97656l-14.02344,-24.54297h13.92578zM539.32031,286.97656" fill="#9bb65b" fill-rule="nonzero" stroke="none" stroke-width="1"/><path d="M539.19141,204.94141l-24.02344,41.92969l-35.78906,-61.99219h59.82813zM539.19141,204.94141" fill="#9bb65b" fill-rule="nonzero" stroke="none" stroke-width="1"/><path d="M459.12109,184.87891l-35.79297,61.99219l-35.79297,-61.99219zM459.12109,184.87891" fill="#63743a" fill-rule="nonzero" stroke="none" stroke-width="1"/><path d="M433.45703,251.97266l35.79297,-61.99219l35.78906,61.99219zM433.45703,251.97266" fill="#63743a" fill-rule="nonzero" stroke="none" stroke-width="1"/><path d="M525.29688,251.97266l14.00391,-24.25l-0.07812,24.25zM525.29688,251.97266" fill="#9bb65b" fill-rule="nonzero" stroke="none" stroke-width="1"/><path d="M295.69531,329.35547l35.79297,-61.82031l35.78906,61.82031zM295.69531,329.35547" fill="#9bb65b" fill-rule="nonzero" stroke="none" stroke-width="1"/><path d="M387.53516,329.35547l35.79297,-61.82031l35.79297,61.82031zM387.53516,329.35547" fill="#9bb65b" fill-rule="nonzero" stroke="none" stroke-width="1"/><path d="M321.35938,262.43359l-35.79297,61.99219l-35.78906,-61.99219zM321.35938,262.43359" fill="#9bb65b" fill-rule="nonzero" stroke="none" stroke-width="1"/><path d="M413.19922,262.43359l-35.79297,61.99219l-35.78906,-61.99219zM413.19922,262.43359" fill="#63743a" fill-rule="nonzero" stroke="none" stroke-width="1"/><path d="M367.27734,184.87891l-35.78906,61.99219l-35.79297,-61.99219zM367.27734,184.87891" fill="#9bb65b" fill-rule="nonzero" stroke="none" stroke-width="1"/><path d="M275.4375,184.87891l-35.78906,61.99219l-35.79297,-61.99219zM275.4375,184.87891" fill="#9bb65b" fill-rule="nonzero" stroke="none" stroke-width="1"/><path d="M249.77734,251.97266l35.78906,-61.99219l35.79297,61.99219zM249.77734,251.97266" fill="#9bb65b" fill-rule="nonzero" stroke="none" stroke-width="1"/><path d="M341.61719,251.97266l35.78906,-61.99219l35.79297,61.99219zM341.61719,251.97266" fill="#63743a" fill-rule="nonzero" stroke="none" stroke-width="1"/><path d="M112.01563,174.41797l35.78906,-61.99219l35.79297,61.99219zM112.01563,174.41797" fill="#9bb65b" fill-rule="nonzero" stroke="none" stroke-width="1"/><path d="M137.67578,107.32422l-35.78906,61.99219l-35.79297,-61.99219zM137.67578,107.32422" fill="#63743a" fill-rule="nonzero" stroke="none" stroke-width="1"/><path d="M229.51953,107.32422l-35.79297,61.99219l-35.79297,-61.99219zM229.51953,107.32422" fill="#63743a" fill-rule="nonzero" stroke="none" stroke-width="1"/><path d="M183.59766,30.20703l-35.79297,61.55469l-35.78906,-61.55469zM183.59766,30.20703" fill="#63743a" fill-rule="nonzero" stroke="none" stroke-width="1"/><path d="M91.75781,30.20703l-35.79297,61.55469l-35.78906,-61.55469zM91.75781,30.20703" fill="#63743a" fill-rule="nonzero" stroke="none" stroke-width="1"/><path d="M66.09375,96.86328l35.79297,-61.99219l35.78906,61.99219zM66.09375,96.86328" fill="#9bb65b" fill-rule="nonzero" stroke="none" stroke-width="1"/><path d="M157.93359,96.86328l35.79297,-61.99219l35.79297,61.99219zM157.93359,96.86328" fill="#63743a" fill-rule="nonzero" stroke="none" stroke-width="1"/><path d="M20.17578,174.41797l35.78906,-61.99219l35.79297,61.99219zM20.17578,174.41797" fill="#9bb65b" fill-rule="nonzero" stroke="none" stroke-width="1"/><path d="M45.83594,107.32422l-35.78906,61.99219l-35.79297,-61.99219zM45.83594,107.32422" fill="#9bb65b" fill-rule="nonzero" stroke="none" stroke-width="1"/><path d="M-25.74609,96.86328l35.79297,-61.99219l35.78906,61.99219zM-25.74609,96.86328" fill="#63743a" fill-rule="nonzero" stroke="none" stroke-width="1"/><path d="M479.37891,174.41797l35.78906,-61.99219l24.09375,41.73047l-0.05469,20.26172zM479.37891,174.41797" fill="#9bb65b" fill-rule="nonzero" stroke="none" stroke-width="1"/><path d="M505.03906,107.32422l-35.78906,61.99219l-35.79297,-61.99219zM505.03906,107.32422" fill="#63743a" fill-rule="nonzero" stroke="none" stroke-width="1"/><path d="M459.12109,30.20703l-35.79297,61.55469l-35.79297,-61.55469zM459.12109,30.20703" fill="#9bb65b" fill-rule="nonzero" stroke="none" stroke-width="1"/><path d="M433.45703,96.86328l35.79297,-61.99219l35.78906,61.99219zM433.45703,96.86328" fill="#9bb65b" fill-rule="nonzero" stroke="none" stroke-width="1"/><path d="M295.69531,174.41797l35.79297,-61.99219l35.78906,61.99219zM295.69531,174.41797" fill="#9bb65b" fill-rule="nonzero" stroke="none" stroke-width="1"/><path d="M387.53516,174.41797l35.79297,-61.99219l35.79297,61.99219zM387.53516,174.41797" fill="#63743a" fill-rule="nonzero" stroke="none" stroke-width="1"/><path d="M321.35938,107.32422l-35.79297,61.99219l-35.78906,-61.99219zM321.35938,107.32422" fill="#63743a" fill-rule="nonzero" stroke="none" stroke-width="1"/><path d="M413.19922,107.32422l-35.79297,61.99219l-35.78906,-61.99219zM413.19922,107.32422" fill="#9bb65b" fill-rule="nonzero" stroke="none" stroke-width="1"/><path d="M367.27734,30.20703l-35.78906,61.55469l-35.79297,-61.55469zM367.27734,30.20703" fill="#9bb65b" fill-rule="nonzero" stroke="none" stroke-width="1"/><path d="M275.4375,30.20703l-35.78906,61.55469l-35.79297,-61.55469zM275.4375,30.20703" fill="#9bb65b" fill-rule="nonzero" stroke="none" stroke-width="1"/><path d="M249.77734,96.86328l35.78906,-61.99219l35.79297,61.99219zM249.77734,96.86328" fill="#63743a" fill-rule="nonzero" stroke="none" stroke-width="1"/><path d="M341.61719,96.86328l35.78906,-61.99219l35.79297,61.99219zM341.61719,96.86328" fill="#9bb65b" fill-rule="nonzero" stroke="none" stroke-width="1"/><path d="M211.49242,175.53403l28.1556,-48.76453l28.15253,48.76453zM211.49242,175.53403" fill="#63743a" fill-rule="nonzero" stroke="none" stroke-width="1"/><path d="M293.56555,183.56537c0,28.08444 -24.13976,50.85073 -53.91675,50.85073c-29.78162,0 -53.92138,-22.76629 -53.92138,-50.85073c0,-2.42323 4.50424,-2.4371 8.1807,-2.4371c1.39659,0 6.30316,2.4371 6.30316,2.4371c0,20.54192 17.65624,37.19465 39.43752,37.19465c21.77665,0 39.4329,-16.65273 39.4329,-37.19465c0,-1.41046 4.3655,-2.77006 7.60264,-2.77006c3.23251,0 6.88122,-0.45782 6.88122,2.77006zM293.56555,183.56537" fill="none" fill-rule="nonzero" stroke-opacity="0.49804" stroke="#000000" stroke-width="20"/><path d="M234.16417,258.07029c-5.31815,0 -9.63278,-3.25101 -9.63278,-7.26505v-18.99272c0,-4.01405 30.23019,-4.01405 30.23019,0v18.99272c0,4.01405 -4.31463,7.26505 -9.63278,7.26505zM234.16417,258.07029" fill="#ffffff" fill-rule="nonzero" stroke-opacity="0.50588" stroke="#000000" stroke-width="20"/><path d="M293.56555,183.56537c0,28.08444 -24.13976,50.85073 -53.91675,50.85073c-29.78162,0 -53.92138,-22.76629 -53.92138,-50.85073c0,-2.42323 4.50424,-2.4371 8.1807,-2.4371c1.39659,0 6.30316,2.4371 6.30316,2.4371c0,20.54192 17.65624,37.19465 39.43752,37.19465c21.77665,0 39.4329,-16.65273 39.4329,-37.19465c0,-1.41046 4.3655,-2.77006 7.60264,-2.77006c3.23251,0 6.88122,-0.45782 6.88122,2.77006zM293.56555,183.56537" fill="#ffffff" fill-rule="nonzero" stroke="#ffffff" stroke-width="1.5"/><path d="M234.16417,258.07029c-5.31815,0 -9.63278,-3.25101 -9.63278,-7.26505v-18.99272c0,-4.01405 4.31464,-7.26505 9.63278,-7.26505h10.96463c5.31815,0 9.63278,3.25101 9.63278,7.26505v18.99272c0,4.01405 -4.31463,7.26505 -9.63278,7.26505zM234.16417,258.07029" fill="#ffffff" fill-rule="nonzero" stroke="#ffffff" stroke-width="1"/><path d="M239.83045,200.7575c-11.73229,0 -17.49569,-8.54899 -17.96276,-9.37214c-1.25323,-2.19662 -2.03551,-7.37992 -1.68405,-11.34772c0.35146,-3.92155 -1.16797,-9.30815 -1.16797,-9.30815l-6.2397,-3.19865v-37.06368c0,-16.14867 12.03289,-29.24055 26.87283,-29.24055c14.83994,0 26.8682,13.09189 26.8682,29.24055v37.77104c0,0 -3.25865,2.71646 -4.07121,4.04383c-0.81256,1.32737 -3.19791,10.31425 -3.19791,10.31425c0,0 0.40214,5.86475 -3.34831,10.59558c-6.74248,8.49979 -15.02492,7.56564 -16.06912,7.56564zM238.66378,202.2575" fill="#ffffff" fill-rule="nonzero" stroke-opacity="0.50588" stroke="#000000" stroke-width="20"/><path d="M239.6488,204.38938c-14.83994,0 -26.87282,-13.09189 -26.87282,-29.24056v-44.68168c0,-16.14867 12.03288,-29.24056 26.87282,-29.24056c14.83994,0 26.8682,13.09189 26.8682,29.24056v44.68168c0,16.14867 -12.02826,29.24056 -26.8682,29.24056zM239.6488,204.38938" fill="#ffffff" fill-rule="nonzero" stroke="none" stroke-width="1"/><path d="M539.21094,50.30859l-24.04297,41.53906l-35.78906,-61.84766l59.90234,0.08984zM539.21094,50.30859" fill="#63743a" fill-rule="nonzero" stroke="none" stroke-width="1"/><path d="M-0.08203,30.14453l-35.79297,61.70313l-24.08594,-41.72266l0.09766,-19.87109zM-0.08203,30.14453" fill="#9bb65b" fill-rule="nonzero" stroke="none" stroke-width="1"/><path d="M539.22266,96.86328h-13.92578l14.02344,-24.54297zM539.22266,96.86328" fill="#9bb65b" fill-rule="nonzero" stroke="none" stroke-width="1"/><path d="M539.22266,107.32422l0.07813,24.25l-14.00391,-24.25zM539.22266,107.32422" fill="#9bb65b" fill-rule="nonzero" stroke="none" stroke-width="1"/><path d="M-60,72.32031l14.02344,24.54297h-13.92578zM-60,72.32031" fill="#9bb65b" fill-rule="nonzero" stroke="none" stroke-width="1"/><path d="M-45.97656,107.32422l-14,24.25l0.07422,-24.25zM-45.97656,107.32422" fill="#9bb65b" fill-rule="nonzero" stroke="none" stroke-width="1"/><path d="M-59.90234,262.43359h13.92578l-14.02344,24.54297zM-59.90234,262.43359" fill="#9bb65b" fill-rule="nonzero" stroke="none" stroke-width="1"/><path d="M-59.90234,251.97266l-0.07422,-24.25l14,24.25zM-59.90234,251.97266" fill="#9bb65b" fill-rule="nonzero" stroke="none" stroke-width="1"/><path d="M-59.91406,184.87891h59.83203l-35.79297,61.99219l-24.02344,-41.92969zM-59.91406,184.87891" fill="#9bb65b" fill-rule="nonzero" stroke="none" stroke-width="1"/><path d="M-59.91406,174.41797l-0.05469,-20.26172l24.09375,-41.73047l35.79297,61.99219zM-59.91406,174.41797" fill="#9bb65b" fill-rule="nonzero" stroke="none" stroke-width="1"/><g fill-rule="evenodd"><path d="M144.06277,76.64673c1.80495,-1.28016 2.7902,-3.4253 2.58524,-5.62863l-0.46317,-5.00994c-0.2162,-2.36941 2.83934,-3.50156 4.21582,-1.56203l2.91646,4.10096c1.28016,1.80495 3.42529,2.7902 5.62522,2.5865l5.00996,-0.46316c2.36942,-0.2162 3.50156,2.83934 1.5633,4.21923l-4.10222,2.91306c-1.80154,1.27891 -2.7868,3.42404 -2.5831,5.62396l0.45977,5.01121c0.21959,2.36817 -2.83594,3.5003 -4.21582,1.56203l-2.91306,-4.10222c-1.27891,-1.80154 -3.42404,-2.7868 -5.62736,-2.58185l-5.00994,0.46317c-2.36942,0.2162 -3.50156,-2.83934 -1.5633,-4.21923z" fill="none" stroke-opacity="0.4902" stroke="#000000" stroke-width="10"/><path d="M144.06277,76.64673c1.80495,-1.28016 2.7902,-3.4253 2.58524,-5.62863l-0.46317,-5.00994c-0.2162,-2.36941 2.83934,-3.50156 4.21582,-1.56203l2.91646,4.10096c1.28016,1.80495 3.42529,2.7902 5.62522,2.5865l5.00996,-0.46316c2.36942,-0.2162 3.50156,2.83934 1.5633,4.21923l-4.10222,2.91306c-1.80154,1.27891 -2.7868,3.42404 -2.5831,5.62396l0.45977,5.01121c0.21959,2.36817 -2.83594,3.5003 -4.21582,1.56203l-2.91306,-4.10222c-1.27891,-1.80154 -3.42404,-2.7868 -5.62736,-2.58185l-5.00994,0.46317c-2.36942,0.2162 -3.50156,-2.83934 -1.5633,-4.21923z" fill="#ffffff" stroke="none" stroke-width="1"/></g><g fill-rule="evenodd"><path d="M98.41645,132.54823c1.55834,-2.8518 1.47782,-6.31763 -0.21121,-9.09401l-3.83673,-6.31483c-1.81078,-2.98838 1.49359,-6.44991 4.55916,-4.77595l6.48982,3.53558c2.8518,1.55834 6.31761,1.47782 9.09033,-0.20735l6.31485,-3.83673c2.9884,-1.81079 6.44992,1.49359 4.77982,4.56284l-3.53944,6.48615c-1.55464,2.84795 -1.47415,6.31377 0.21102,9.08649l3.83306,6.31869c1.81447,2.98456 -1.48992,6.44608 -4.55916,4.77596l-6.48615,-3.53944c-2.84795,-1.55464 -6.31378,-1.47415 -9.09017,0.21486l-6.31483,3.83673c-2.9884,1.81079 -6.44992,-1.49359 -4.77982,-4.56284z" fill="none" stroke-opacity="0.4902" stroke="#000000" stroke-width="11.5"/><path d="M98.41645,132.54823c1.55834,-2.8518 1.47782,-6.31763 -0.21121,-9.09401l-3.83673,-6.31483c-1.81078,-2.98838 1.49359,-6.44991 4.55916,-4.77595l6.48982,3.53558c2.8518,1.55834 6.31761,1.47782 9.09033,-0.20735l6.31485,-3.83673c2.9884,-1.81079 6.44992,1.49359 4.77982,4.56284l-3.53944,6.48615c-1.55464,2.84795 -1.47415,6.31377 0.21102,9.08649l3.83306,6.31869c1.81447,2.98456 -1.48992,6.44608 -4.55916,4.77596l-6.48615,-3.53944c-2.84795,-1.55464 -6.31378,-1.47415 -9.09017,0.21486l-6.31483,3.83673c-2.9884,1.81079 -6.44992,-1.49359 -4.77982,-4.56284z" fill="#ffffff" stroke="none" stroke-width="1"/></g><g fill-rule="evenodd"><path d="M347.88347,272.23076c-1.60702,1.82214 -2.12044,4.36254 -1.3472,6.66575l1.75512,5.2378c0.82702,2.47789 -2.15377,4.45639 -4.1127,2.72977l-4.1484,-3.64927c-1.82214,-1.60702 -4.36252,-2.12044 -6.66242,-1.34941l-5.23781,1.75511c-2.4779,0.82702 -4.45639,-2.15377 -2.73198,-4.11602l3.65148,-4.14509c1.60369,-1.81994 2.11713,-4.36033 1.3461,-6.66023l-1.75181,-5.24001c-0.83034,-2.47571 2.15046,-4.4542 4.1127,-2.72977l4.14509,3.65148c1.81994,1.60369 4.36033,2.11713 6.66355,1.3439l5.2378,-1.75511c2.4779,-0.82702 4.45639,2.15377 2.73198,4.11602z" fill="none" stroke-opacity="0.4902" stroke="#000000" stroke-width="10"/><path d="M347.88347,272.23076c-1.60702,1.82214 -2.12044,4.36254 -1.3472,6.66575l1.75512,5.2378c0.82702,2.47789 -2.15377,4.45639 -4.1127,2.72977l-4.1484,-3.64927c-1.82214,-1.60702 -4.36252,-2.12044 -6.66242,-1.34941l-5.23781,1.75511c-2.4779,0.82702 -4.45639,-2.15377 -2.73198,-4.11602l3.65148,-4.14509c1.60369,-1.81994 2.11713,-4.36033 1.3461,-6.66023l-1.75181,-5.24001c-0.83034,-2.47571 2.15046,-4.4542 4.1127,-2.72977l4.14509,3.65148c1.81994,1.60369 4.36033,2.11713 6.66355,1.3439l5.2378,-1.75511c2.4779,-0.82702 4.45639,2.15377 2.73198,4.11602z" fill="#ffffff" stroke="none" stroke-width="1"/></g><g fill-rule="evenodd"><path d="M399.41511,216.40059c-0.9038,3.27886 0.00918,6.79033 2.39552,9.21378l5.42264,5.51328c2.5612,2.61023 0.02483,6.92887 -3.49952,5.95853l-7.4591,-2.04585c-3.27886,-0.9038 -6.79032,0.00917 -9.21096,2.3907l-5.5133,5.42265c-2.61025,2.56121 -6.92888,0.02483 -5.96336,-3.50235l2.05067,-7.45629c0.90096,-3.27406 -0.01199,-6.78552 -2.39352,-9.20616l-5.41984,-5.51809c-2.56403,-2.60545 -0.02765,-6.92409 3.49952,-5.95854l7.45629,2.05067c3.27406,0.90096 6.78552,-0.01199 9.20899,-2.39832l5.51328,-5.42264c2.61025,-2.56121 6.92888,-0.02483 5.96336,3.50235z" fill="none" stroke-opacity="0.4902" stroke="#000000" stroke-width="11.5"/><path d="M399.41511,216.40059c-0.9038,3.27886 0.00918,6.79033 2.39552,9.21378l5.42264,5.51328c2.5612,2.61023 0.02483,6.92887 -3.49952,5.95853l-7.4591,-2.04585c-3.27886,-0.9038 -6.79032,0.00917 -9.21096,2.3907l-5.5133,5.42265c-2.61025,2.56121 -6.92888,0.02483 -5.96336,-3.50235l2.05067,-7.45629c0.90096,-3.27406 -0.01199,-6.78552 -2.39352,-9.20616l-5.41984,-5.51809c-2.56403,-2.60545 -0.02765,-6.92409 3.49952,-5.95854l7.45629,2.05067c3.27406,0.90096 6.78552,-0.01199 9.20899,-2.39832l5.51328,-5.42264c2.61025,-2.56121 6.92888,-0.02483 5.96336,3.50235z" fill="#ffffff" stroke="none" stroke-width="1"/></g></g></g></svg>
