<svg xmlns="http://www.w3.org/2000/svg" width="600" height="300" viewBox="0 0 600 300"><g stroke-miterlimit="10"><path d="M0 299.918V0h600.536v299.918zm0 0" fill="#7b9149"/><path d="m172.373 299.976 35.863-61.948 35.867 61.948zm0 0" fill="#9bb65b"/><path d="m264.402 299.976 35.867-61.948 35.864 61.948zm0 0" fill="#63743a"/><path d="m198.086 232.916-35.864 62.121-35.866-62.121zm0 0" fill="#9bb65b"/><path d="m290.12 232.916-35.867 62.121-35.867-62.121zm0 0" fill="#63743a"/><path d="m244.103 155.2-35.867 62.121-35.864-62.121zm0 0" fill="#9bb65b"/><path d="m152.073 155.2-35.867 62.12-35.864-62.121zm-25.717 67.233 35.867-62.122 35.863 62.122zm0 0" fill="#63743a"/><path d="m218.386 222.433 35.867-62.122 35.867 62.122zm0 0" fill="#9bb65b"/><path d="m.082 279.649 24.093-41.621 35.867 61.973-60.026-.086zm0 0" fill="#63743a"/><path d="m80.342 299.976 35.863-61.948 35.867 61.948zm0 0" fill="#9bb65b"/><path d="m106.056 232.916-35.864 62.121-35.866-62.121zm-71.73-10.483 35.867-62.122 35.863 62.122zm0 0" fill="#63743a"/><path d="m540.498 299.855 35.863-61.827 24.14 41.806-.102 19.912zm25.714-66.939-35.864 62.121-35.867-62.121zm34.351 24.594-14.052-24.594h13.955zm-.129-82.206-24.073 42.017-35.864-62.121h59.953zm0 0" fill="#9bb65b"/><path d="m520.198 155.2-35.867 62.121-35.867-62.121zm-25.717 67.233 35.867-62.122 35.864 62.122zm0 0" fill="#63743a"/><path d="m586.511 222.433 14.033-24.3-.078 24.3zm-230.078 77.542 35.867-61.948 35.864 61.948zm92.03 0 35.867-61.948 35.867 61.948zm-66.312-67.06-35.868 62.121-35.863-62.121zm0 0" fill="#9bb65b"/><path d="m474.181 232.916-35.868 62.121-35.863-62.121zm0 0" fill="#63743a"/><path d="M428.163 155.2 392.3 217.321 356.433 155.2zm-92.029 0-35.864 62.121-35.867-62.121zm-25.714 67.233 35.864-62.122 35.866 62.122zm0 0" fill="#9bb65b"/><path d="m402.45 222.433 35.864-62.122 35.866 62.122zm0 0" fill="#63743a"/><path d="m172.373 144.718 35.863-62.121 35.867 62.121zm0 0" fill="#9bb65b"/><path d="m198.086 77.484-35.864 62.121-35.866-62.121zm92.034 0-35.867 62.121-35.867-62.121zM244.103.207 208.236 61.89 172.372.207zm-92.03 0L116.206 61.89 80.341.207zm0 0" fill="#63743a"/><path d="m126.356 67.002 35.867-62.121 35.863 62.121zm0 0" fill="#9bb65b"/><path d="m218.386 67.002 35.867-62.121 35.867 62.121zm0 0" fill="#63743a"/><path d="m80.342 144.718 35.863-62.121 35.867 62.121zm25.713-67.233-35.864 62.121-35.866-62.121zm0 0" fill="#9bb65b"/><path d="M34.325 67.002 70.192 4.881l35.863 62.121zm0 0" fill="#63743a"/><path d="m540.498 144.718 35.863-62.121 24.144 41.817-.055 20.304zm0 0" fill="#9bb65b"/><path d="m566.212 77.484-35.864 62.121-35.867-62.121zm0 0" fill="#63743a"/><path d="M520.198.207 484.331 61.89 448.463.207zm-25.717 66.794 35.867-62.12 35.864 62.121zm-138.048 77.716L392.3 82.596l35.864 62.121zm0 0" fill="#9bb65b"/><path d="m448.463 144.718 35.867-62.121 35.867 62.121zm-66.312-67.234-35.868 62.121-35.863-62.121zm0 0" fill="#63743a"/><path d="m474.181 77.484-35.868 62.121-35.863-62.121zM428.163.207 392.3 61.89 356.433.207zm-92.029 0L300.27 61.89 264.402.207zm0 0" fill="#9bb65b"/><path d="m310.419 67.002 35.864-62.121 35.866 62.121zm0 0" fill="#63743a"/><path d="m402.45 67.002 35.864-62.121 35.866 62.121zm0 0" fill="#9bb65b"/><path d="m272.055 145.836 28.214-48.865 28.211 48.865zm0 0" fill="#63743a"/><path d="M354.299 153.883c0 28.143-24.19 50.956-54.029 50.956-29.844 0-54.034-22.813-54.034-50.955 0-2.429 4.514-2.443 8.198-2.443 1.4 0 6.316 2.442 6.316 2.442 0 20.585 17.694 37.272 39.52 37.272 21.821 0 39.515-16.688 39.515-37.272 0-1.413 4.374-2.776 7.618-2.776 3.24 0 6.896-.459 6.896 2.776zm0 0" fill="none" stroke-opacity=".498" stroke="#000" stroke-width="20.041"/><path d="M294.774 228.543c-5.329 0-9.653-3.257-9.653-7.28v-19.031c0-4.023 30.293-4.023 30.293 0v19.031c0 4.022-4.323 7.28-9.652 7.28zm0 0" fill="#fff" stroke-opacity=".506" stroke="#000" stroke-width="20.041"/><path d="M354.299 153.883c0 28.143-24.19 50.956-54.029 50.956-29.844 0-54.034-22.813-54.034-50.955 0-2.429 4.514-2.443 8.198-2.443 1.4 0 6.316 2.442 6.316 2.442 0 20.585 17.694 37.272 39.52 37.272 21.821 0 39.515-16.688 39.515-37.272 0-1.413 4.374-2.776 7.618-2.776 3.24 0 6.896-.459 6.896 2.776zm0 0" fill="#fff" stroke="#fff" stroke-width="1.503"/><path d="M294.774 228.543c-5.329 0-9.653-3.257-9.653-7.28v-19.031c0-4.023 4.324-7.281 9.653-7.281h10.988c5.329 0 9.653 3.258 9.653 7.281v19.031c0 4.022-4.324 7.28-9.653 7.28zm0 0" fill="#fff" stroke="#fff" stroke-width="1.002"/><path d="M300.452 171.112c-11.756 0-17.531-8.568-17.999-9.392-1.257-2.201-2.04-7.395-1.687-11.371.352-3.93-1.17-9.328-1.17-9.328l-6.253-3.205v-37.141c0-16.182 12.058-29.301 26.929-29.301s26.924 13.118 26.924 29.301v37.849s-3.266 2.723-4.079 4.052c-.815 1.33-3.205 10.335-3.205 10.335s.403 5.877-3.355 10.618c-6.757 8.518-15.056 7.581-16.103 7.581zm-1.168 1.503" fill="#fff" stroke-opacity=".506" stroke="#000" stroke-width="20.041"/><path d="M300.27 174.752c-14.871 0-26.929-13.12-26.929-29.302v-44.775c0-16.182 12.058-29.301 26.929-29.301s26.924 13.118 26.924 29.301v44.775c0 16.181-12.053 29.301-26.924 29.301m0 0" fill="#fff"/><path d="m600.453 20.351-24.092 41.625L540.497 0l60.027.09zm0 0" fill="#63743a"/><path d="M60.042.145 24.175 61.976.039 20.167.137.255zm540.424 66.856h-13.955l14.052-24.593zm0 10.483.078 24.3-14.033-24.3zM0 42.408l14.052 24.594H.098zm14.052 35.077-14.029 24.3.075-24.3zM.098 232.916h13.954L0 257.51zm0-10.483-.075-24.3 14.029 24.3zM.086 155.2h59.956l-35.867 62.121L.102 175.304zm0-10.483-.055-20.304 24.144-41.817 35.867 62.121zm0 0" fill="#9bb65b"/><g fill-rule="evenodd"><path d="M204.486 46.744a6.21 6.21 0 0 0 2.59-5.641l-.464-5.02c-.216-2.375 2.846-3.508 4.225-1.565l2.922 4.11a6.21 6.21 0 0 0 5.637 2.592l5.02-.465c2.375-.216 3.509 2.846 1.567 4.229l-4.112 2.919a6.21 6.21 0 0 0-2.588 5.636l.461 5.02c.22 2.375-2.842 3.508-4.225 1.566l-2.919-4.111a6.21 6.21 0 0 0-5.639-2.587l-5.02.464c-2.375.216-3.509-2.846-1.566-4.229z" fill="none" stroke-opacity=".49" stroke="#000" stroke-width="10.021"/><path d="M204.486 46.744a6.21 6.21 0 0 0 2.59-5.641l-.464-5.02c-.216-2.375 2.846-3.508 4.225-1.565l2.922 4.11a6.21 6.21 0 0 0 5.637 2.592l5.02-.465c2.375-.216 3.509 2.846 1.567 4.229l-4.112 2.919a6.21 6.21 0 0 0-2.588 5.636l.461 5.02c.22 2.375-2.842 3.508-4.225 1.566l-2.919-4.111a6.21 6.21 0 0 0-5.639-2.587l-5.02.464c-2.375.216-3.509-2.846-1.566-4.229z" fill="#fff"/></g><g fill-rule="evenodd"><path d="M158.745 102.761a9.12 9.12 0 0 0-.21-9.113l-3.845-6.328c-1.815-2.994 1.496-6.463 4.568-4.786l6.503 3.543a9.12 9.12 0 0 0 9.109-.207l6.328-3.845c2.994-1.814 6.463 1.497 4.79 4.572l-3.547 6.499a9.12 9.12 0 0 0 .211 9.105l3.841 6.333c1.819 2.99-1.493 6.458-4.568 4.785l-6.499-3.547a9.12 9.12 0 0 0-9.109.215l-6.328 3.845c-2.995 1.815-6.463-1.496-4.79-4.572z" fill="none" stroke-opacity=".49" stroke="#000" stroke-width="11.524"/><path d="M158.745 102.761a9.12 9.12 0 0 0-.21-9.113l-3.845-6.328c-1.815-2.994 1.496-6.463 4.568-4.786l6.503 3.543a9.12 9.12 0 0 0 9.109-.207l6.328-3.845c2.994-1.814 6.463 1.497 4.79 4.572l-3.547 6.499a9.12 9.12 0 0 0 .211 9.105l3.841 6.333c1.819 2.99-1.493 6.458-4.568 4.785l-6.499-3.547a9.12 9.12 0 0 0-9.109.215l-6.328 3.845c-2.995 1.815-6.463-1.496-4.79-4.572z" fill="#fff"/></g><g fill-rule="evenodd"><path d="M408.729 242.732a6.81 6.81 0 0 0-1.35 6.681l1.759 5.248c.829 2.483-2.157 4.466-4.121 2.736l-4.158-3.658a6.81 6.81 0 0 0-6.676-1.352l-5.249 1.76c-2.483.829-4.465-2.158-2.738-4.126l3.66-4.154a6.82 6.82 0 0 0 1.349-6.674l-1.756-5.251c-.832-2.481 2.154-4.463 4.122-2.736l4.154 3.66a6.81 6.81 0 0 0 6.677 1.347l5.249-1.759c2.483-.829 4.465 2.157 2.738 4.125z" fill="none" stroke-opacity=".49" stroke="#000" stroke-width="10.021"/><path d="M408.729 242.732a6.81 6.81 0 0 0-1.35 6.681l1.759 5.248c.829 2.483-2.157 4.466-4.121 2.736l-4.158-3.658a6.81 6.81 0 0 0-6.676-1.352l-5.249 1.76c-2.483.829-4.465-2.158-2.738-4.126l3.66-4.154a6.82 6.82 0 0 0 1.349-6.674l-1.756-5.251c-.832-2.481 2.154-4.463 4.122-2.736l4.154 3.66a6.81 6.81 0 0 0 6.677 1.347l5.249-1.759c2.483-.829 4.465 2.157 2.738 4.125z" fill="#fff"/></g><g fill-rule="evenodd"><path d="M460.368 186.787a9.54 9.54 0 0 0 2.401 9.233l5.433 5.525c2.566 2.615.025 6.943-3.507 5.97l-7.473-2.05a9.55 9.55 0 0 0-9.23 2.396l-5.525 5.434c-2.615 2.565-6.942.025-5.975-3.51l2.054-7.471a9.55 9.55 0 0 0-2.398-9.225l-5.431-5.529c-2.569-2.611-.027-6.938 3.507-5.971l7.471 2.054a9.55 9.55 0 0 0 9.229-2.402l5.523-5.434c2.615-2.566 6.944-.025 5.976 3.509z" fill="none" stroke-opacity=".49" stroke="#000" stroke-width="11.524"/><path d="M460.368 186.787a9.54 9.54 0 0 0 2.401 9.233l5.433 5.525c2.566 2.615.025 6.943-3.507 5.97l-7.473-2.05a9.55 9.55 0 0 0-9.23 2.396l-5.525 5.434c-2.615 2.565-6.942.025-5.975-3.51l2.054-7.471a9.55 9.55 0 0 0-2.398-9.225l-5.431-5.529c-2.569-2.611-.027-6.938 3.507-5.971l7.471 2.054a9.55 9.55 0 0 0 9.229-2.402l5.523-5.434c2.615-2.566 6.944-.025 5.976 3.509z" fill="#fff"/></g></g></svg>
