<?xml version="1.0" encoding="UTF-8"?>
<svg xmlns="http://www.w3.org/2000/svg" xmlns:xlink="http://www.w3.org/1999/xlink" width="600px" height="300px" viewBox="0 0 600 300" version="1.1">
<g id="surface1">
<path style=" stroke:none;fill-rule:nonzero;fill:rgb(48.235294%,56.862745%,28.627451%);fill-opacity:1;" d="M 0 299.296875 L 0 0 L 599.292969 0 L 599.292969 299.296875 Z M 0 299.296875 "/>
<path style=" stroke:none;fill-rule:nonzero;fill:rgb(60.784314%,71.372549%,35.686275%);fill-opacity:1;" d="M 172.015625 299.355469 L 207.804688 237.535156 L 243.597656 299.355469 Z M 172.015625 299.355469 "/>
<path style=" stroke:none;fill-rule:nonzero;fill:rgb(38.823529%,45.490196%,22.745098%);fill-opacity:1;" d="M 263.855469 299.355469 L 299.648438 237.535156 L 335.4375 299.355469 Z M 263.855469 299.355469 "/>
<path style=" stroke:none;fill-rule:nonzero;fill:rgb(60.784314%,71.372549%,35.686275%);fill-opacity:1;" d="M 197.675781 232.433594 L 161.886719 294.425781 L 126.09375 232.433594 Z M 197.675781 232.433594 "/>
<path style=" stroke:none;fill-rule:nonzero;fill:rgb(38.823529%,45.490196%,22.745098%);fill-opacity:1;" d="M 289.519531 232.433594 L 253.726562 294.425781 L 217.933594 232.433594 Z M 289.519531 232.433594 "/>
<path style=" stroke:none;fill-rule:nonzero;fill:rgb(60.784314%,71.372549%,35.686275%);fill-opacity:1;" d="M 243.597656 154.878906 L 207.804688 216.871094 L 172.015625 154.878906 Z M 243.597656 154.878906 "/>
<path style=" stroke:none;fill-rule:nonzero;fill:rgb(38.823529%,45.490196%,22.745098%);fill-opacity:1;" d="M 151.757812 154.878906 L 115.964844 216.871094 L 80.175781 154.878906 Z M 151.757812 154.878906 "/>
<path style=" stroke:none;fill-rule:nonzero;fill:rgb(38.823529%,45.490196%,22.745098%);fill-opacity:1;" d="M 126.09375 221.972656 L 161.886719 159.980469 L 197.675781 221.972656 Z M 126.09375 221.972656 "/>
<path style=" stroke:none;fill-rule:nonzero;fill:rgb(60.784314%,71.372549%,35.686275%);fill-opacity:1;" d="M 217.933594 221.972656 L 253.726562 159.980469 L 289.519531 221.972656 Z M 217.933594 221.972656 "/>
<path style=" stroke:none;fill-rule:nonzero;fill:rgb(38.823529%,45.490196%,22.745098%);fill-opacity:1;" d="M 0.0820312 279.070312 L 24.125 237.535156 L 59.917969 299.378906 L 0.015625 299.292969 Z M 0.0820312 279.070312 "/>
<path style=" stroke:none;fill-rule:nonzero;fill:rgb(60.784314%,71.372549%,35.686275%);fill-opacity:1;" d="M 80.175781 299.355469 L 115.964844 237.535156 L 151.757812 299.355469 Z M 80.175781 299.355469 "/>
<path style=" stroke:none;fill-rule:nonzero;fill:rgb(38.823529%,45.490196%,22.745098%);fill-opacity:1;" d="M 105.835938 232.433594 L 70.046875 294.425781 L 34.253906 232.433594 Z M 105.835938 232.433594 "/>
<path style=" stroke:none;fill-rule:nonzero;fill:rgb(38.823529%,45.490196%,22.745098%);fill-opacity:1;" d="M 34.253906 221.972656 L 70.046875 159.980469 L 105.835938 221.972656 Z M 34.253906 221.972656 "/>
<path style=" stroke:none;fill-rule:nonzero;fill:rgb(60.784314%,71.372549%,35.686275%);fill-opacity:1;" d="M 539.378906 299.234375 L 575.167969 237.535156 L 599.257812 279.253906 L 599.15625 299.125 Z M 539.378906 299.234375 "/>
<path style=" stroke:none;fill-rule:nonzero;fill:rgb(60.784314%,71.372549%,35.686275%);fill-opacity:1;" d="M 565.039062 232.433594 L 529.25 294.425781 L 493.457031 232.433594 Z M 565.039062 232.433594 "/>
<path style=" stroke:none;fill-rule:nonzero;fill:rgb(60.784314%,71.372549%,35.686275%);fill-opacity:1;" d="M 599.320312 256.976562 C 599.320312 256.976562 585.296875 232.433594 585.296875 232.433594 L 599.222656 232.433594 Z M 599.320312 256.976562 "/>
<path style=" stroke:none;fill-rule:nonzero;fill:rgb(60.784314%,71.372549%,35.686275%);fill-opacity:1;" d="M 599.191406 174.941406 L 575.167969 216.871094 L 539.378906 154.878906 L 599.207031 154.878906 Z M 599.191406 174.941406 "/>
<path style=" stroke:none;fill-rule:nonzero;fill:rgb(38.823529%,45.490196%,22.745098%);fill-opacity:1;" d="M 519.121094 154.878906 L 483.328125 216.871094 L 447.535156 154.878906 Z M 519.121094 154.878906 "/>
<path style=" stroke:none;fill-rule:nonzero;fill:rgb(38.823529%,45.490196%,22.745098%);fill-opacity:1;" d="M 493.457031 221.972656 L 529.25 159.980469 L 565.039062 221.972656 Z M 493.457031 221.972656 "/>
<path style=" stroke:none;fill-rule:nonzero;fill:rgb(60.784314%,71.372549%,35.686275%);fill-opacity:1;" d="M 585.296875 221.972656 C 585.296875 221.972656 599.300781 197.722656 599.300781 197.722656 L 599.222656 221.972656 Z M 585.296875 221.972656 "/>
<path style=" stroke:none;fill-rule:nonzero;fill:rgb(60.784314%,71.372549%,35.686275%);fill-opacity:1;" d="M 355.695312 299.355469 L 391.488281 237.535156 L 427.277344 299.355469 Z M 355.695312 299.355469 "/>
<path style=" stroke:none;fill-rule:nonzero;fill:rgb(60.784314%,71.372549%,35.686275%);fill-opacity:1;" d="M 447.535156 299.355469 L 483.328125 237.535156 L 519.121094 299.355469 Z M 447.535156 299.355469 "/>
<path style=" stroke:none;fill-rule:nonzero;fill:rgb(60.784314%,71.372549%,35.686275%);fill-opacity:1;" d="M 381.359375 232.433594 L 345.566406 294.425781 L 309.777344 232.433594 Z M 381.359375 232.433594 "/>
<path style=" stroke:none;fill-rule:nonzero;fill:rgb(38.823529%,45.490196%,22.745098%);fill-opacity:1;" d="M 473.199219 232.433594 L 437.40625 294.425781 L 401.617188 232.433594 Z M 473.199219 232.433594 "/>
<path style=" stroke:none;fill-rule:nonzero;fill:rgb(60.784314%,71.372549%,35.686275%);fill-opacity:1;" d="M 427.277344 154.878906 L 391.488281 216.871094 L 355.695312 154.878906 Z M 427.277344 154.878906 "/>
<path style=" stroke:none;fill-rule:nonzero;fill:rgb(60.784314%,71.372549%,35.686275%);fill-opacity:1;" d="M 335.4375 154.878906 L 299.648438 216.871094 L 263.855469 154.878906 Z M 335.4375 154.878906 "/>
<path style=" stroke:none;fill-rule:nonzero;fill:rgb(60.784314%,71.372549%,35.686275%);fill-opacity:1;" d="M 309.777344 221.972656 L 345.566406 159.980469 L 381.359375 221.972656 Z M 309.777344 221.972656 "/>
<path style=" stroke:none;fill-rule:nonzero;fill:rgb(38.823529%,45.490196%,22.745098%);fill-opacity:1;" d="M 401.617188 221.972656 L 437.40625 159.980469 L 473.199219 221.972656 Z M 401.617188 221.972656 "/>
<path style=" stroke:none;fill-rule:nonzero;fill:rgb(60.784314%,71.372549%,35.686275%);fill-opacity:1;" d="M 172.015625 144.417969 L 207.804688 82.425781 L 243.597656 144.417969 Z M 172.015625 144.417969 "/>
<path style=" stroke:none;fill-rule:nonzero;fill:rgb(38.823529%,45.490196%,22.745098%);fill-opacity:1;" d="M 263.855469 144.417969 L 299.648438 82.425781 L 335.4375 144.417969 Z M 263.855469 144.417969 "/>
<path style=" stroke:none;fill-rule:nonzero;fill:rgb(38.823529%,45.490196%,22.745098%);fill-opacity:1;" d="M 197.675781 77.324219 L 161.886719 139.316406 L 126.09375 77.324219 Z M 197.675781 77.324219 "/>
<path style=" stroke:none;fill-rule:nonzero;fill:rgb(38.823529%,45.490196%,22.745098%);fill-opacity:1;" d="M 289.519531 77.324219 L 253.726562 139.316406 L 217.933594 77.324219 Z M 289.519531 77.324219 "/>
<path style=" stroke:none;fill-rule:nonzero;fill:rgb(38.823529%,45.490196%,22.745098%);fill-opacity:1;" d="M 243.597656 0.207031 L 207.804688 61.761719 L 172.015625 0.207031 Z M 243.597656 0.207031 "/>
<path style=" stroke:none;fill-rule:nonzero;fill:rgb(38.823529%,45.490196%,22.745098%);fill-opacity:1;" d="M 151.757812 0.207031 L 115.964844 61.761719 L 80.175781 0.207031 Z M 151.757812 0.207031 "/>
<path style=" stroke:none;fill-rule:nonzero;fill:rgb(60.784314%,71.372549%,35.686275%);fill-opacity:1;" d="M 126.09375 66.863281 L 161.886719 4.871094 L 197.675781 66.863281 Z M 126.09375 66.863281 "/>
<path style=" stroke:none;fill-rule:nonzero;fill:rgb(38.823529%,45.490196%,22.745098%);fill-opacity:1;" d="M 217.933594 66.863281 L 253.726562 4.871094 L 289.519531 66.863281 Z M 217.933594 66.863281 "/>
<path style=" stroke:none;fill-rule:nonzero;fill:rgb(60.784314%,71.372549%,35.686275%);fill-opacity:1;" d="M 80.175781 144.417969 L 115.964844 82.425781 L 151.757812 144.417969 Z M 80.175781 144.417969 "/>
<path style=" stroke:none;fill-rule:nonzero;fill:rgb(60.784314%,71.372549%,35.686275%);fill-opacity:1;" d="M 105.835938 77.324219 L 70.046875 139.316406 L 34.253906 77.324219 Z M 105.835938 77.324219 "/>
<path style=" stroke:none;fill-rule:nonzero;fill:rgb(38.823529%,45.490196%,22.745098%);fill-opacity:1;" d="M 34.253906 66.863281 L 70.046875 4.871094 L 105.835938 66.863281 Z M 34.253906 66.863281 "/>
<path style=" stroke:none;fill-rule:nonzero;fill:rgb(60.784314%,71.372549%,35.686275%);fill-opacity:1;" d="M 539.378906 144.417969 L 575.167969 82.425781 L 599.261719 124.15625 L 599.207031 144.417969 Z M 539.378906 144.417969 "/>
<path style=" stroke:none;fill-rule:nonzero;fill:rgb(38.823529%,45.490196%,22.745098%);fill-opacity:1;" d="M 565.039062 77.324219 L 529.25 139.316406 L 493.457031 77.324219 Z M 565.039062 77.324219 "/>
<path style=" stroke:none;fill-rule:nonzero;fill:rgb(60.784314%,71.372549%,35.686275%);fill-opacity:1;" d="M 519.121094 0.207031 L 483.328125 61.761719 L 447.535156 0.207031 Z M 519.121094 0.207031 "/>
<path style=" stroke:none;fill-rule:nonzero;fill:rgb(60.784314%,71.372549%,35.686275%);fill-opacity:1;" d="M 493.457031 66.863281 L 529.25 4.871094 L 565.039062 66.863281 Z M 493.457031 66.863281 "/>
<path style=" stroke:none;fill-rule:nonzero;fill:rgb(60.784314%,71.372549%,35.686275%);fill-opacity:1;" d="M 355.695312 144.417969 L 391.488281 82.425781 L 427.277344 144.417969 Z M 355.695312 144.417969 "/>
<path style=" stroke:none;fill-rule:nonzero;fill:rgb(38.823529%,45.490196%,22.745098%);fill-opacity:1;" d="M 447.535156 144.417969 L 483.328125 82.425781 L 519.121094 144.417969 Z M 447.535156 144.417969 "/>
<path style=" stroke:none;fill-rule:nonzero;fill:rgb(38.823529%,45.490196%,22.745098%);fill-opacity:1;" d="M 381.359375 77.324219 L 345.566406 139.316406 L 309.777344 77.324219 Z M 381.359375 77.324219 "/>
<path style=" stroke:none;fill-rule:nonzero;fill:rgb(60.784314%,71.372549%,35.686275%);fill-opacity:1;" d="M 473.199219 77.324219 L 437.40625 139.316406 L 401.617188 77.324219 Z M 473.199219 77.324219 "/>
<path style=" stroke:none;fill-rule:nonzero;fill:rgb(60.784314%,71.372549%,35.686275%);fill-opacity:1;" d="M 427.277344 0.207031 L 391.488281 61.761719 L 355.695312 0.207031 Z M 427.277344 0.207031 "/>
<path style=" stroke:none;fill-rule:nonzero;fill:rgb(60.784314%,71.372549%,35.686275%);fill-opacity:1;" d="M 335.4375 0.207031 L 299.648438 61.761719 L 263.855469 0.207031 Z M 335.4375 0.207031 "/>
<path style=" stroke:none;fill-rule:nonzero;fill:rgb(38.823529%,45.490196%,22.745098%);fill-opacity:1;" d="M 309.777344 66.863281 L 345.566406 4.871094 L 381.359375 66.863281 Z M 309.777344 66.863281 "/>
<path style=" stroke:none;fill-rule:nonzero;fill:rgb(60.784314%,71.372549%,35.686275%);fill-opacity:1;" d="M 401.617188 66.863281 L 437.40625 4.871094 L 473.199219 66.863281 Z M 401.617188 66.863281 "/>
<path style="fill:none;stroke-width:7.5;stroke-linecap:square;stroke-linejoin:miter;stroke:rgb(0%,0%,0%);stroke-opacity:0.505882;stroke-miterlimit:10;" d="M 151.51319 234.262252 C 151.51319 234.756393 150.052253 235.004439 147.134284 235.004439 C 144.185065 235.004439 142.710456 234.772018 142.710456 234.309127 L 142.710456 204.242721 C 142.710456 203.168502 143.278815 202.629439 144.417487 202.629439 L 153.218268 202.629439 C 161.304206 202.629439 165.349128 205.77983 165.349128 212.080611 C 165.349128 213.990768 164.979987 215.721236 164.243659 217.275924 C 163.507331 218.826705 162.462409 220.06108 161.108893 220.982955 L 166.915534 230.664596 C 166.673346 231.406783 165.876471 232.252486 164.522956 233.205611 C 162.679206 234.527877 161.157721 235.189986 159.958503 235.189986 C 158.759284 235.189986 157.866706 234.760299 157.280768 233.898971 L 152.948737 223.801314 L 151.51319 223.801314 Z M 151.51319 210.791549 L 151.51319 217.709518 L 151.743659 217.709518 C 154.667487 217.709518 156.128424 216.494674 156.128424 214.064986 C 156.128424 212.957564 155.843268 212.137252 155.272956 211.602096 C 154.706549 211.06108 153.776862 210.791549 152.485846 210.791549 Z M 187.122565 233.668502 C 185.181159 234.805221 182.690924 235.37358 179.647956 235.37358 C 176.60694 235.37358 174.036628 234.336471 171.942878 232.262252 C 169.853034 230.184127 168.808112 227.309127 168.808112 223.639205 C 168.808112 219.963424 169.813971 217.004439 171.827643 214.760299 C 173.845221 212.516158 176.390143 211.393111 179.462409 211.393111 C 182.536628 211.393111 184.909674 212.178268 186.581549 213.74858 C 188.259284 215.313033 189.099128 217.21733 189.099128 219.461471 C 189.099128 224.443893 186.239753 226.93608 180.521003 226.93608 L 177.339362 226.93608 C 177.339362 227.856002 177.591315 228.494674 178.097174 228.850143 C 178.604987 229.199752 179.354987 229.375533 180.343268 229.375533 C 182.495612 229.375533 184.538581 228.883346 186.474128 227.900924 C 186.505378 227.869674 186.644049 228.086471 186.890143 228.549361 C 187.626471 229.871627 187.993659 230.986861 187.993659 231.893111 C 187.993659 232.797408 187.704596 233.391158 187.122565 233.668502 Z M 181.354987 220.34233 C 181.354987 219.049361 180.724128 218.402877 179.462409 218.402877 C 178.880378 218.402877 178.382331 218.580611 177.964362 218.93608 C 177.548346 219.285689 177.339362 219.799361 177.339362 220.473189 L 177.339362 221.908736 L 179.833503 221.908736 C 180.847174 221.908736 181.354987 221.387252 181.354987 220.34233 Z M 199.659674 223.477096 C 199.659674 226.486861 200.798346 227.992721 203.071784 227.992721 C 204.550299 227.992721 205.780768 227.701705 206.76319 227.121627 C 207.226081 227.121627 207.603034 227.912643 207.890143 229.49858 C 208.183112 231.078658 208.331549 232.15483 208.331549 232.727096 C 208.331549 233.291549 208.253424 233.668502 208.099128 233.854049 C 206.472174 234.867721 204.243659 235.37358 201.413581 235.37358 C 198.587409 235.37358 196.181159 234.322799 194.192878 232.21733 C 192.212409 230.106002 191.220221 227.231002 191.220221 223.59233 C 191.220221 219.947799 192.196784 217.004439 194.147956 214.760299 C 196.103034 212.516158 198.702643 211.393111 201.944831 211.393111 C 205.188971 211.393111 207.440924 212.176314 208.70069 213.740768 C 208.979987 214.080611 209.118659 214.582564 209.118659 215.246627 C 209.118659 215.90483 208.995612 216.709518 208.747565 217.662643 C 208.196784 219.629439 207.474128 220.766158 206.577643 221.074752 C 206.454596 221.106002 206.276862 221.121627 206.04444 221.121627 C 205.819831 221.121627 205.536628 220.93608 205.196784 220.564986 C 203.997565 219.365768 203.034674 218.766158 202.308112 218.766158 C 201.587409 218.766158 200.964362 219.137252 200.438971 219.877486 C 199.91944 220.613814 199.659674 221.813033 199.659674 223.477096 Z M 213.653815 232.193893 C 211.733893 230.066939 210.774909 227.131393 210.774909 223.383346 C 210.774909 219.631393 211.733893 216.693893 213.655768 214.574752 C 215.579596 212.453658 218.171393 211.393111 221.429206 211.393111 C 224.688971 211.393111 227.269049 212.453658 229.173346 214.574752 C 231.083503 216.693893 232.038581 219.631393 232.038581 223.383346 C 232.038581 227.131393 231.083503 230.066939 229.173346 232.193893 C 227.269049 234.314986 224.688971 235.37358 221.429206 235.37358 C 218.171393 235.37358 215.579596 234.314986 213.655768 232.193893 Z M 221.452643 219.090377 C 219.718268 219.090377 218.851081 220.506393 218.851081 223.338424 C 218.851081 226.162643 219.718268 227.576705 221.452643 227.576705 C 223.192878 227.576705 224.062018 226.162643 224.062018 223.338424 C 224.062018 220.506393 223.192878 219.090377 221.452643 219.090377 Z M 245.411628 234.865768 C 245.411628 235.080611 244.01319 235.189986 241.212409 235.189986 C 238.417487 235.127486 237.019049 235.004439 237.019049 234.818893 L 237.019049 219.508346 L 235.776862 219.508346 C 235.282721 219.508346 234.88819 219.209518 234.595221 218.611861 C 234.302253 218.010299 234.155768 217.264205 234.155768 216.37358 C 234.155768 213.053268 235.140143 211.393111 237.112799 211.393111 C 238.497565 211.393111 239.649909 211.814986 240.571784 212.658736 C 241.493659 213.504439 241.952643 214.463424 241.952643 215.539596 C 242.597174 214.277877 243.464362 213.272018 244.556159 212.520064 C 245.646003 211.768111 246.761237 211.393111 247.897956 211.393111 C 249.685065 211.393111 250.76319 211.854049 251.134284 212.775924 C 251.222174 213.022018 251.265143 213.385299 251.265143 213.863814 C 251.265143 214.336471 251.118659 215.189986 250.82569 216.420455 C 250.536628 217.648971 250.237799 218.543502 249.929206 219.098189 C 249.620612 219.648971 249.435065 219.924361 249.372565 219.924361 C 249.315924 219.924361 249.032721 219.809127 248.524909 219.576705 C 248.015143 219.346236 247.562018 219.229049 247.165534 219.229049 C 245.997565 219.229049 245.411628 220.15483 245.411628 222.002486 Z M 265.241706 202.906783 C 265.241706 202.443893 266.456549 202.213424 268.886237 202.213424 C 269.716315 202.213424 270.675299 202.266158 271.767096 202.375533 C 272.85694 202.482955 273.403815 202.629439 273.403815 202.814986 L 273.403815 227.121627 L 275.017096 227.121627 C 275.788581 227.121627 276.296393 227.81108 276.538581 229.189986 C 276.599128 229.59233 276.630378 230.139205 276.630378 230.834518 C 276.630378 231.523971 276.417487 232.359908 275.989753 233.344283 C 275.372565 234.697799 274.386237 235.375533 273.032721 235.375533 C 272.019049 235.375533 271.120612 235.174361 270.337409 234.772018 C 269.556159 234.371627 269.024909 233.955611 268.747565 233.52983 L 268.331549 232.926314 C 266.642096 234.559127 264.521003 235.375533 261.968268 235.375533 C 259.415534 235.375533 257.229987 234.314986 255.413581 232.193893 C 253.601081 230.066939 252.694831 227.107955 252.694831 223.314986 C 252.694831 219.516158 253.647956 216.578658 255.552253 214.504439 C 257.462409 212.430221 259.845221 211.393111 262.702643 211.393111 C 263.536628 211.393111 264.382331 211.484908 265.241706 211.670455 Z M 263.722174 218.766158 C 261.997565 218.766158 261.134284 220.320846 261.134284 223.430221 C 261.134284 224.994674 261.378424 226.125533 261.868659 226.818893 C 262.362799 227.510299 262.907721 227.854049 263.505378 227.854049 C 264.10694 227.854049 264.687018 227.594283 265.241706 227.074752 L 265.241706 219.229049 C 264.718268 218.920455 264.210456 218.766158 263.722174 218.766158 Z M 288.071784 234.633346 C 288.071784 234.879439 286.663581 235.004439 283.847174 235.004439 C 281.038581 235.004439 279.632331 234.895064 279.632331 234.680221 L 279.632331 212.033736 C 279.632331 211.822799 281.038581 211.71733 283.847174 211.71733 C 286.663581 211.71733 288.071784 211.807174 288.071784 211.986861 Z M 288.071784 209.270064 C 288.071784 209.486861 286.663581 209.594283 283.847174 209.594283 C 281.038581 209.594283 279.632331 209.500533 279.632331 209.316939 L 279.632331 202.676314 C 279.632331 202.367721 281.038581 202.213424 283.847174 202.213424 C 286.663581 202.213424 288.071784 202.305221 288.071784 202.490768 Z M 301.858893 234.633346 C 301.858893 234.850143 300.751471 234.957564 298.538581 234.957564 C 295.464362 234.865768 293.929206 234.695846 293.929206 234.447799 L 293.929206 219.508346 L 292.724128 219.508346 C 291.927253 219.508346 291.403815 218.830611 291.157721 217.477096 C 291.095221 217.080611 291.063971 216.682174 291.063971 216.27983 C 291.063971 215.328658 291.249518 214.375533 291.620612 213.424361 C 292.175299 212.070846 293.038581 211.393111 294.206549 211.393111 C 295.374518 211.393111 296.41944 211.670455 297.341315 212.227096 C 298.26319 212.777877 298.878424 213.328658 299.187018 213.879439 C 301.122565 212.221236 303.425299 211.393111 306.097174 211.393111 C 308.772956 211.393111 310.712409 212.115768 311.911628 213.563033 C 313.110846 215.004439 313.710456 217.369674 313.710456 220.658736 L 313.710456 234.494674 C 313.710456 234.865768 312.394049 235.049361 309.765143 235.049361 C 307.140143 235.049361 305.827643 234.865768 305.827643 234.494674 L 305.827643 221.168502 C 305.827643 219.629439 305.288581 218.859908 304.212409 218.859908 C 303.903815 218.859908 303.472174 218.990768 302.915534 219.252486 C 302.364753 219.516158 302.01319 219.709518 301.858893 219.832564 Z M 326.118659 234.910689 C 323.132331 234.910689 320.823737 233.951705 319.192878 232.031783 C 317.565924 230.106002 316.753424 227.262252 316.753424 223.500533 C 316.753424 219.731002 317.821784 216.77983 319.956549 214.643111 C 322.099128 212.508346 324.942878 211.439986 328.489753 211.439986 C 332.040534 211.439986 334.970221 212.221236 337.274909 213.785689 L 337.274909 236.756393 C 337.274909 239.031783 336.354987 240.775924 334.511237 241.990768 C 332.66944 243.205611 330.300299 243.813033 327.407721 243.813033 C 324.521003 243.813033 321.938971 243.443893 319.663581 242.701705 C 319.354987 241.965377 319.20069 241.307174 319.20069 240.725143 C 319.20069 238.754439 319.522956 237.307174 320.165534 236.385299 C 322.224128 237.275924 324.423346 237.721236 326.759284 237.721236 C 328.452643 237.721236 329.300299 237.121627 329.300299 235.922408 L 329.300299 234.541549 C 327.976081 234.787643 326.917487 234.910689 326.118659 234.910689 Z M 328.241706 218.951705 C 326.177253 218.951705 325.146003 220.506393 325.146003 223.615768 C 325.146003 225.551314 325.546393 226.809127 326.351081 227.391158 C 326.870612 227.791549 327.390143 227.992721 327.909674 227.992721 C 328.435065 227.992721 328.897956 227.947799 329.300299 227.854049 L 329.300299 219.090377 C 328.929206 218.99858 328.57569 218.951705 328.241706 218.951705 Z M 328.241706 218.951705 " transform="matrix(2,0,0,2,-180.33888,-210.30966)"/>
<path style=" stroke:none;fill-rule:nonzero;fill:rgb(100%,100%,100%);fill-opacity:1;" d="M 122.683594 258.214844 C 122.683594 259.203125 119.765625 259.699219 113.929688 259.699219 C 108.03125 259.699219 105.082031 259.234375 105.082031 258.308594 L 105.082031 198.175781 C 105.082031 196.027344 106.21875 194.949219 108.496094 194.949219 L 126.097656 194.949219 C 142.269531 194.949219 150.359375 201.25 150.359375 213.851562 C 150.359375 217.671875 149.621094 221.132812 148.148438 224.242188 C 146.675781 227.34375 144.585938 229.8125 141.878906 231.65625 L 153.492188 251.019531 C 153.007812 252.503906 151.414062 254.195312 148.707031 256.101562 C 145.019531 258.746094 141.976562 260.070312 139.578125 260.070312 C 137.179688 260.070312 135.394531 259.210938 134.222656 257.488281 L 125.558594 237.292969 L 122.6875 237.292969 Z M 122.683594 211.273438 L 122.683594 225.109375 L 123.148438 225.109375 C 128.996094 225.109375 131.917969 222.679688 131.917969 217.820312 C 131.917969 215.605469 131.347656 213.964844 130.207031 212.894531 C 129.074219 211.8125 127.214844 211.273438 124.632812 211.273438 Z M 193.90625 257.027344 C 190.023438 259.300781 185.042969 260.4375 178.957031 260.4375 C 172.875 260.4375 167.734375 258.363281 163.546875 254.214844 C 159.367188 250.058594 157.277344 244.308594 157.277344 236.96875 C 157.277344 229.617188 159.289062 223.699219 163.316406 219.210938 C 167.351562 214.722656 172.441406 212.476562 178.585938 212.476562 C 184.734375 212.476562 189.480469 214.046875 192.824219 217.1875 C 196.179688 220.316406 197.859375 224.125 197.859375 228.613281 C 197.859375 238.578125 192.140625 243.5625 180.703125 243.5625 L 174.339844 243.5625 C 174.339844 245.402344 174.84375 246.679688 175.855469 247.390625 C 176.871094 248.089844 178.371094 248.441406 180.347656 248.441406 C 184.648438 248.441406 188.738281 247.457031 192.609375 245.492188 C 192.667969 245.429688 192.949219 245.863281 193.441406 246.789062 C 194.914062 249.433594 195.648438 251.664062 195.648438 253.476562 C 195.648438 255.285156 195.070312 256.472656 193.90625 257.027344 Z M 182.371094 230.375 C 182.371094 227.789062 181.109375 226.496094 178.585938 226.496094 C 177.421875 226.496094 176.425781 226.851562 175.589844 227.5625 C 174.757812 228.261719 174.339844 229.289062 174.339844 230.636719 L 174.339844 233.507812 L 179.328125 233.507812 C 181.355469 233.507812 182.371094 232.464844 182.371094 230.375 Z M 218.980469 236.644531 C 218.980469 242.664062 221.257812 245.675781 225.804688 245.675781 C 228.761719 245.675781 231.222656 245.09375 233.1875 243.933594 C 234.113281 243.933594 234.867188 245.515625 235.441406 248.6875 C 236.027344 251.847656 236.324219 254 236.324219 255.144531 C 236.324219 256.273438 236.167969 257.027344 235.859375 257.398438 C 232.605469 259.425781 228.148438 260.4375 222.488281 260.4375 C 216.835938 260.4375 212.023438 258.335938 208.046875 254.125 C 204.085938 249.902344 202.101562 244.152344 202.101562 236.875 C 202.101562 229.585938 204.054688 223.699219 207.957031 219.210938 C 211.867188 214.722656 217.066406 212.476562 223.550781 212.476562 C 230.039062 212.476562 234.542969 214.042969 237.0625 217.171875 C 237.621094 217.851562 237.898438 218.855469 237.898438 220.183594 C 237.898438 221.5 237.652344 223.109375 237.15625 225.015625 C 236.054688 228.949219 234.609375 231.222656 232.816406 231.839844 C 232.570312 231.902344 232.214844 231.933594 231.75 231.933594 C 231.300781 231.933594 230.734375 231.5625 230.054688 230.820312 C 227.65625 228.421875 225.730469 227.222656 224.277344 227.222656 C 222.835938 227.222656 221.589844 227.964844 220.539062 229.449219 C 219.5 230.917969 218.980469 233.316406 218.980469 236.644531 Z M 246.96875 254.078125 C 243.128906 249.824219 241.210938 243.953125 241.210938 236.457031 C 241.210938 228.953125 243.128906 223.078125 246.96875 218.839844 C 250.820312 214.597656 256.003906 212.476562 262.519531 212.476562 C 269.039062 212.476562 274.199219 214.597656 278.007812 218.839844 C 281.828125 223.078125 283.738281 228.953125 283.738281 236.457031 C 283.738281 243.953125 281.828125 249.824219 278.007812 254.078125 C 274.199219 258.320312 269.039062 260.4375 262.519531 260.4375 C 256.003906 260.4375 250.820312 258.320312 246.972656 254.078125 Z M 262.566406 227.871094 C 259.097656 227.871094 257.363281 230.703125 257.363281 236.367188 C 257.363281 242.015625 259.097656 244.84375 262.566406 244.84375 C 266.046875 244.84375 267.785156 242.015625 267.785156 236.367188 C 267.785156 230.703125 266.046875 227.871094 262.566406 227.871094 Z M 310.484375 259.421875 C 310.484375 259.851562 307.6875 260.070312 302.085938 260.070312 C 296.496094 259.945312 293.699219 259.699219 293.699219 259.328125 L 293.699219 228.707031 L 291.214844 228.707031 C 290.226562 228.707031 289.4375 228.109375 288.851562 226.914062 C 288.265625 225.710938 287.972656 224.21875 287.972656 222.4375 C 287.972656 215.796875 289.941406 212.476562 293.886719 212.476562 C 296.65625 212.476562 298.960938 213.320312 300.804688 215.007812 C 302.648438 216.699219 303.566406 218.617188 303.566406 220.769531 C 304.855469 218.246094 306.589844 216.234375 308.773438 214.730469 C 310.953125 213.226562 313.183594 212.476562 315.457031 212.476562 C 319.03125 212.476562 321.1875 213.398438 321.929688 215.242188 C 322.105469 215.734375 322.191406 216.460938 322.191406 217.417969 C 322.191406 218.363281 321.898438 220.070312 321.3125 222.53125 C 320.734375 224.988281 320.136719 226.777344 319.519531 227.886719 C 318.902344 228.988281 318.53125 229.539062 318.40625 229.539062 C 318.292969 229.539062 317.726562 229.308594 316.710938 228.84375 C 315.691406 228.382812 314.785156 228.148438 313.992188 228.148438 C 311.65625 228.148438 310.484375 230 310.484375 233.695312 Z M 350.144531 195.503906 C 350.144531 194.578125 352.574219 194.117188 357.433594 194.117188 C 359.09375 194.117188 361.011719 194.222656 363.195312 194.441406 C 365.375 194.65625 366.46875 194.949219 366.46875 195.320312 L 366.46875 243.933594 L 369.695312 243.933594 C 371.238281 243.933594 372.253906 245.3125 372.738281 248.070312 C 372.859375 248.875 372.921875 249.96875 372.921875 251.359375 C 372.921875 252.738281 372.496094 254.410156 371.640625 256.378906 C 370.40625 259.085938 368.433594 260.441406 365.726562 260.441406 C 363.699219 260.441406 361.902344 260.039062 360.335938 259.234375 C 358.773438 258.433594 357.710938 257.601562 357.15625 256.75 L 356.324219 255.542969 C 352.945312 258.808594 348.703125 260.441406 343.597656 260.441406 C 338.492188 260.441406 334.121094 258.320312 330.488281 254.078125 C 326.863281 249.824219 325.050781 243.90625 325.050781 236.320312 C 325.050781 228.722656 326.957031 222.847656 330.765625 218.699219 C 334.585938 214.550781 339.351562 212.476562 345.066406 212.476562 C 346.734375 212.476562 348.425781 212.660156 350.144531 213.03125 Z M 347.105469 227.222656 C 343.65625 227.222656 341.929688 230.332031 341.929688 236.550781 C 341.929688 239.679688 342.417969 241.941406 343.398438 243.328125 C 344.386719 244.710938 345.476562 245.398438 346.671875 245.398438 C 347.875 245.398438 349.035156 244.878906 350.144531 243.839844 L 350.144531 228.148438 C 349.097656 227.53125 348.082031 227.222656 347.105469 227.222656 Z M 395.804688 258.957031 C 395.804688 259.449219 392.988281 259.699219 387.355469 259.699219 C 381.738281 259.699219 378.925781 259.480469 378.925781 259.050781 L 378.925781 213.757812 C 378.925781 213.335938 381.738281 213.125 387.355469 213.125 C 392.988281 213.125 395.804688 213.304688 395.804688 213.664062 Z M 395.804688 208.230469 C 395.804688 208.664062 392.988281 208.878906 387.355469 208.878906 C 381.738281 208.878906 378.925781 208.691406 378.925781 208.324219 L 378.925781 195.042969 C 378.925781 194.425781 381.738281 194.117188 387.355469 194.117188 C 392.988281 194.117188 395.804688 194.300781 395.804688 194.671875 Z M 423.378906 258.957031 C 423.378906 259.390625 421.164062 259.605469 416.738281 259.605469 C 410.59375 259.421875 407.519531 259.082031 407.519531 258.585938 L 407.519531 228.707031 L 405.109375 228.707031 C 403.515625 228.707031 402.46875 227.351562 401.976562 224.644531 C 401.851562 223.851562 401.789062 223.054688 401.789062 222.25 C 401.789062 220.347656 402.160156 218.441406 402.902344 216.539062 C 404.011719 213.832031 405.738281 212.476562 408.074219 212.476562 C 410.410156 212.476562 412.5 213.03125 414.34375 214.144531 C 416.1875 215.246094 417.417969 216.347656 418.035156 217.449219 C 421.90625 214.132812 426.511719 212.476562 431.855469 212.476562 C 437.207031 212.476562 441.085938 213.921875 443.484375 216.816406 C 445.882812 219.699219 447.082031 224.429688 447.082031 231.007812 L 447.082031 258.679688 C 447.082031 259.421875 444.449219 259.789062 439.191406 259.789062 C 433.941406 259.789062 431.316406 259.421875 431.316406 258.679688 L 431.316406 232.027344 C 431.316406 228.949219 430.238281 227.410156 428.085938 227.410156 C 427.46875 227.410156 426.605469 227.671875 425.492188 228.195312 C 424.390625 228.722656 423.6875 229.109375 423.378906 229.355469 Z M 471.898438 259.511719 C 465.925781 259.511719 461.308594 257.59375 458.046875 253.753906 C 454.792969 249.902344 453.167969 244.214844 453.167969 236.691406 C 453.167969 229.152344 455.304688 223.25 459.574219 218.976562 C 463.859375 214.707031 469.546875 212.570312 476.640625 212.570312 C 483.742188 212.570312 489.601562 214.132812 494.210938 217.261719 L 494.210938 263.203125 C 494.210938 267.753906 492.371094 271.242188 488.683594 273.671875 C 485 276.101562 480.261719 277.316406 474.476562 277.316406 C 468.703125 277.316406 463.539062 276.578125 458.988281 275.09375 C 458.371094 273.621094 458.0625 272.304688 458.0625 271.140625 C 458.0625 267.199219 458.707031 264.304688 459.992188 262.460938 C 464.109375 264.242188 468.507812 265.132812 473.179688 265.132812 C 476.566406 265.132812 478.261719 263.933594 478.261719 261.535156 L 478.261719 258.773438 C 475.613281 259.265625 473.496094 259.511719 471.898438 259.511719 Z M 476.144531 227.59375 C 472.015625 227.59375 469.953125 230.703125 469.953125 236.921875 C 469.953125 240.792969 470.753906 243.308594 472.363281 244.472656 C 473.402344 245.273438 474.441406 245.675781 475.480469 245.675781 C 476.53125 245.675781 477.457031 245.585938 478.261719 245.398438 L 478.261719 227.871094 C 477.519531 227.6875 476.8125 227.59375 476.144531 227.59375 Z M 476.144531 227.59375 "/>
<path style="fill:none;stroke-width:10;stroke-linecap:butt;stroke-linejoin:miter;stroke:rgb(0%,0%,0%);stroke-opacity:0.498039;stroke-miterlimit:10;" d="M 262.765143 161.633346 C 262.765143 173.494674 252.569831 183.109908 239.993659 183.109908 C 227.415534 183.109908 217.220221 173.494674 217.220221 161.633346 C 217.220221 160.609908 219.122565 160.604049 220.675299 160.604049 C 221.265143 160.604049 223.337409 161.633346 223.337409 161.633346 C 223.337409 170.309127 230.79444 177.34233 239.993659 177.34233 C 249.190924 177.34233 256.647956 170.309127 256.647956 161.633346 C 256.647956 161.037643 258.491706 160.463424 259.858893 160.463424 C 261.224128 160.463424 262.765143 160.270064 262.765143 161.633346 Z M 262.765143 161.633346 " transform="matrix(2,0,0,2,-180.33888,-210.30966)"/>
<path style="fill-rule:nonzero;fill:rgb(100%,100%,100%);fill-opacity:1;stroke-width:8.5;stroke-linecap:butt;stroke-linejoin:miter;stroke:rgb(0%,0%,0%);stroke-opacity:0.505882;stroke-miterlimit:10;" d="M 237.677253 193.100143 C 235.431159 193.100143 233.608893 191.727096 233.608893 190.031783 L 233.608893 182.010299 C 233.608893 180.314986 246.376471 180.314986 246.376471 182.010299 L 246.376471 190.031783 C 246.376471 191.727096 244.554206 193.100143 242.308112 193.100143 Z M 237.677253 193.100143 " transform="matrix(2,0,0,2,-180.33888,-210.30966)"/>
<path style="fill-rule:nonzero;fill:rgb(100%,100%,100%);fill-opacity:1;stroke-width:1.5;stroke-linecap:butt;stroke-linejoin:miter;stroke:rgb(100%,100%,100%);stroke-opacity:1;stroke-miterlimit:10;" d="M 262.765143 161.633346 C 262.765143 173.494674 252.569831 183.109908 239.993659 183.109908 C 227.415534 183.109908 217.220221 173.494674 217.220221 161.633346 C 217.220221 160.609908 219.122565 160.604049 220.675299 160.604049 C 221.265143 160.604049 223.337409 161.633346 223.337409 161.633346 C 223.337409 170.309127 230.79444 177.34233 239.993659 177.34233 C 249.190924 177.34233 256.647956 170.309127 256.647956 161.633346 C 256.647956 161.037643 258.491706 160.463424 259.858893 160.463424 C 261.224128 160.463424 262.765143 160.270064 262.765143 161.633346 Z M 262.765143 161.633346 " transform="matrix(2,0,0,2,-180.33888,-210.30966)"/>
<path style="fill-rule:nonzero;fill:rgb(100%,100%,100%);fill-opacity:1;stroke-width:1;stroke-linecap:butt;stroke-linejoin:miter;stroke:rgb(100%,100%,100%);stroke-opacity:1;stroke-miterlimit:10;" d="M 237.677253 193.100143 C 235.431159 193.100143 233.608893 191.727096 233.608893 190.031783 L 233.608893 182.010299 C 233.608893 180.314986 235.431159 178.941939 237.677253 178.941939 L 242.308112 178.941939 C 244.554206 178.941939 246.376471 180.314986 246.376471 182.010299 L 246.376471 190.031783 C 246.376471 191.727096 244.554206 193.100143 242.308112 193.100143 Z M 237.677253 193.100143 " transform="matrix(2,0,0,2,-180.33888,-210.30966)"/>
<path style="fill-rule:nonzero;fill:rgb(100%,100%,100%);fill-opacity:1;stroke-width:8;stroke-linecap:butt;stroke-linejoin:miter;stroke:rgb(0%,0%,0%);stroke-opacity:0.505882;stroke-miterlimit:10;" d="M 239.577643 169.527877 C 234.622565 169.527877 232.681159 165.283736 232.483893 164.93608 C 231.954596 164.008346 231.905768 161.537643 232.054206 159.861861 C 232.202643 158.205611 232.546393 157.338424 232.546393 157.338424 L 228.644049 155.424361 L 228.644049 139.207564 C 228.644049 132.387252 233.726081 126.857955 239.993659 126.857955 C 246.261237 126.857955 251.341315 132.387252 251.341315 139.207564 L 251.341315 155.793502 L 250.255378 156.727096 L 248.060065 160.449752 C 248.060065 160.449752 248.300299 164.334518 246.716315 166.332564 C 243.868659 169.922408 240.370612 169.527877 239.577643 169.527877 Z M 239.577643 169.527877 " transform="matrix(2,0,0,2,-180.33888,-210.30966)"/>
<path style=" stroke:none;fill-rule:nonzero;fill:rgb(100%,100%,100%);fill-opacity:1;" d="M 299.648438 130.546875 C 287.113281 130.546875 276.949219 119.488281 276.949219 105.847656 L 276.949219 68.105469 C 276.949219 54.464844 287.113281 43.40625 299.648438 43.40625 C 312.183594 43.40625 322.34375 54.464844 322.34375 68.105469 L 322.34375 105.847656 C 322.34375 119.488281 312.183594 130.546875 299.648438 130.546875 Z M 299.648438 130.546875 "/>
<path style=" stroke:none;fill-rule:nonzero;fill:rgb(38.823529%,45.490196%,22.745098%);fill-opacity:1;" d="M 599.210938 20.308594 L 575.167969 61.847656 L 539.378906 0 L 599.28125 0.0898438 Z M 599.210938 20.308594 "/>
<path style=" stroke:none;fill-rule:nonzero;fill:rgb(60.784314%,71.372549%,35.686275%);fill-opacity:1;" d="M 59.917969 0.144531 L 24.125 61.847656 L 0.0390625 20.125 L 0.136719 0.253906 Z M 59.917969 0.144531 "/>
<path style=" stroke:none;fill-rule:nonzero;fill:rgb(60.784314%,71.372549%,35.686275%);fill-opacity:1;" d="M 599.222656 66.863281 L 585.296875 66.863281 L 599.320312 42.320312 Z M 599.222656 66.863281 "/>
<path style=" stroke:none;fill-rule:nonzero;fill:rgb(60.784314%,71.372549%,35.686275%);fill-opacity:1;" d="M 599.222656 77.324219 L 599.300781 101.574219 L 585.296875 77.324219 Z M 599.222656 77.324219 "/>
<path style=" stroke:none;fill-rule:nonzero;fill:rgb(60.784314%,71.372549%,35.686275%);fill-opacity:1;" d="M 0 42.320312 L 14.023438 66.863281 L 0.0976562 66.863281 Z M 0 42.320312 "/>
<path style=" stroke:none;fill-rule:nonzero;fill:rgb(60.784314%,71.372549%,35.686275%);fill-opacity:1;" d="M 14.023438 77.324219 L 0.0234375 101.574219 L 0.0976562 77.324219 Z M 14.023438 77.324219 "/>
<path style=" stroke:none;fill-rule:nonzero;fill:rgb(60.784314%,71.372549%,35.686275%);fill-opacity:1;" d="M 0.0976562 232.433594 L 14.023438 232.433594 L 0 256.976562 Z M 0.0976562 232.433594 "/>
<path style=" stroke:none;fill-rule:nonzero;fill:rgb(60.784314%,71.372549%,35.686275%);fill-opacity:1;" d="M 0.0976562 221.972656 L 0.0234375 197.722656 L 14.023438 221.972656 Z M 0.0976562 221.972656 "/>
<path style=" stroke:none;fill-rule:nonzero;fill:rgb(60.784314%,71.372549%,35.686275%);fill-opacity:1;" d="M 0.0859375 154.878906 L 59.917969 154.878906 L 24.125 216.871094 L 0.101562 174.941406 Z M 0.0859375 154.878906 "/>
<path style=" stroke:none;fill-rule:nonzero;fill:rgb(60.784314%,71.372549%,35.686275%);fill-opacity:1;" d="M 0.0859375 144.417969 L 0.03125 124.15625 L 24.125 82.425781 L 59.917969 144.417969 Z M 0.0859375 144.417969 "/>
</g>
</svg>
