<?xml version="1.0" encoding="UTF-8"?>
<svg xmlns="http://www.w3.org/2000/svg" xmlns:xlink="http://www.w3.org/1999/xlink" width="600px" height="300px" viewBox="0 0 600 300" version="1.1">
<g id="surface1">
<rect x="0" y="0" width="600" height="300" style="fill:rgb(32.54902%,52.54902%,70.980392%);fill-opacity:1;stroke:none;"/>
<path style=" stroke:none;fill-rule:nonzero;fill:rgb(25.490196%,40.784314%,55.294118%);fill-opacity:1;" d="M 23.585938 208.246094 C 18.316406 208.246094 14.042969 203.972656 14.042969 198.703125 L 14.042969 167.21875 C 14.042969 161.949219 18.316406 157.675781 23.585938 157.675781 L 55.070312 157.675781 C 60.339844 157.675781 64.613281 161.949219 64.613281 167.21875 L 64.613281 198.703125 C 64.613281 203.972656 60.339844 208.246094 55.070312 208.246094 Z M 23.585938 208.246094 "/>
<path style=" stroke:none;fill-rule:nonzero;fill:rgb(23.529412%,37.254902%,51.372549%);fill-opacity:1;" d="M 10.753906 261.640625 C 7.082031 257.972656 7.082031 252.019531 10.753906 248.351562 L 32.683594 226.421875 C 36.351562 222.75 42.304688 222.75 45.972656 226.421875 L 67.902344 248.351562 C 71.574219 252.019531 71.574219 257.972656 67.902344 261.640625 L 45.972656 283.570312 C 42.304688 287.242188 36.351562 287.242188 32.683594 283.570312 Z M 10.753906 261.640625 "/>
<path style=" stroke:none;fill-rule:nonzero;fill:rgb(25.490196%,40.784314%,55.294118%);fill-opacity:1;" d="M 128.695312 235.753906 C 133.964844 235.753906 138.238281 240.027344 138.238281 245.296875 L 138.238281 276.78125 C 138.238281 282.050781 133.964844 286.324219 128.695312 286.324219 L 97.210938 286.324219 C 91.941406 286.324219 87.667969 282.050781 87.667969 276.78125 L 87.667969 245.296875 C 87.667969 240.027344 91.941406 235.753906 97.210938 235.753906 Z M 128.695312 235.753906 "/>
<path style=" stroke:none;fill-rule:nonzero;fill:rgb(28.235294%,45.490196%,61.568627%);fill-opacity:1;" d="M 106.308594 160.429688 C 109.976562 156.757812 115.929688 156.757812 119.597656 160.429688 L 141.527344 182.359375 C 145.199219 186.027344 145.199219 191.980469 141.527344 195.648438 L 119.597656 217.578125 C 115.929688 221.25 109.976562 221.25 106.308594 217.578125 L 84.378906 195.648438 C 80.707031 191.980469 80.707031 186.027344 84.378906 182.359375 Z M 106.308594 160.429688 "/>
<path style=" stroke:none;fill-rule:nonzero;fill:rgb(23.529412%,37.254902%,51.372549%);fill-opacity:1;" d="M 172.824219 208.246094 C 167.554688 208.246094 163.285156 203.972656 163.285156 198.703125 L 163.285156 167.21875 C 163.285156 161.949219 167.554688 157.675781 172.824219 157.675781 L 204.3125 157.675781 C 209.578125 157.675781 213.851562 161.949219 213.851562 167.21875 L 213.851562 198.703125 C 213.851562 203.972656 209.578125 208.246094 204.3125 208.246094 Z M 172.824219 208.246094 "/>
<path style=" stroke:none;fill-rule:nonzero;fill:rgb(25.490196%,40.784314%,55.294118%);fill-opacity:1;" d="M 159.992188 261.640625 C 156.320312 257.972656 156.320312 252.019531 159.992188 248.351562 L 181.921875 226.421875 C 185.59375 222.75 191.542969 222.75 195.214844 226.421875 L 217.144531 248.351562 C 220.8125 252.019531 220.8125 257.972656 217.144531 261.640625 L 195.214844 283.570312 C 191.542969 287.242188 185.59375 287.242188 181.921875 283.570312 Z M 159.992188 261.640625 "/>
<path style=" stroke:none;fill-rule:nonzero;fill:rgb(25.490196%,40.784314%,55.294118%);fill-opacity:1;" d="M 277.933594 235.753906 C 283.203125 235.753906 287.476562 240.027344 287.476562 245.296875 L 287.476562 276.78125 C 287.476562 282.050781 283.203125 286.324219 277.933594 286.324219 L 246.449219 286.324219 C 241.179688 286.324219 236.910156 282.050781 236.910156 276.78125 L 236.910156 245.296875 C 236.910156 240.027344 241.179688 235.753906 246.449219 235.753906 Z M 277.933594 235.753906 "/>
<path style=" stroke:none;fill-rule:nonzero;fill:rgb(25.490196%,40.784314%,55.294118%);fill-opacity:1;" d="M 255.546875 160.429688 C 259.21875 156.757812 265.167969 156.757812 268.839844 160.429688 L 290.769531 182.359375 C 294.4375 186.027344 294.4375 191.980469 290.769531 195.648438 L 268.839844 217.578125 C 265.167969 221.25 259.21875 221.25 255.546875 217.578125 L 233.617188 195.648438 C 229.945312 191.980469 229.945312 186.027344 233.617188 182.359375 Z M 255.546875 160.429688 "/>
<path style=" stroke:none;fill-rule:nonzero;fill:rgb(25.490196%,40.784314%,55.294118%);fill-opacity:1;" d="M 322.066406 208.246094 C 316.796875 208.246094 312.523438 203.972656 312.523438 198.703125 L 312.523438 167.21875 C 312.523438 161.949219 316.796875 157.675781 322.066406 157.675781 L 353.550781 157.675781 C 358.820312 157.675781 363.089844 161.949219 363.089844 167.21875 L 363.089844 198.703125 C 363.089844 203.972656 358.820312 208.246094 353.550781 208.246094 Z M 322.066406 208.246094 "/>
<path style=" stroke:none;fill-rule:nonzero;fill:rgb(25.490196%,40.784314%,55.294118%);fill-opacity:1;" d="M 309.230469 261.640625 C 305.5625 257.972656 305.5625 252.019531 309.230469 248.351562 L 331.160156 226.421875 C 334.832031 222.75 340.78125 222.75 344.453125 226.421875 L 366.382812 248.351562 C 370.054688 252.019531 370.054688 257.972656 366.382812 261.640625 L 344.453125 283.570312 C 340.78125 287.242188 334.832031 287.242188 331.160156 283.570312 Z M 309.230469 261.640625 "/>
<path style=" stroke:none;fill-rule:nonzero;fill:rgb(25.490196%,40.784314%,55.294118%);fill-opacity:1;" d="M 427.175781 235.753906 C 432.445312 235.753906 436.714844 240.027344 436.714844 245.296875 L 436.714844 276.78125 C 436.714844 282.050781 432.445312 286.324219 427.175781 286.324219 L 395.6875 286.324219 C 390.421875 286.324219 386.148438 282.050781 386.148438 276.78125 L 386.148438 245.296875 C 386.148438 240.027344 390.421875 235.753906 395.6875 235.753906 Z M 427.175781 235.753906 "/>
<path style=" stroke:none;fill-rule:nonzero;fill:rgb(28.235294%,45.490196%,61.568627%);fill-opacity:1;" d="M 404.785156 160.429688 C 408.457031 156.757812 414.40625 156.757812 418.078125 160.429688 L 440.007812 182.359375 C 443.679688 186.027344 443.679688 191.980469 440.007812 195.648438 L 418.078125 217.578125 C 414.40625 221.25 408.457031 221.25 404.785156 217.578125 L 382.855469 195.648438 C 379.1875 191.980469 379.1875 186.027344 382.855469 182.359375 Z M 404.785156 160.429688 "/>
<path style=" stroke:none;fill-rule:nonzero;fill:rgb(28.235294%,45.490196%,61.568627%);fill-opacity:1;" d="M 471.304688 208.246094 C 466.035156 208.246094 461.761719 203.972656 461.761719 198.703125 L 461.761719 167.21875 C 461.761719 161.949219 466.035156 157.675781 471.304688 157.675781 L 502.789062 157.675781 C 508.058594 157.675781 512.332031 161.949219 512.332031 167.21875 L 512.332031 198.703125 C 512.332031 203.972656 508.058594 208.246094 502.789062 208.246094 Z M 471.304688 208.246094 "/>
<path style=" stroke:none;fill-rule:nonzero;fill:rgb(21.176471%,33.72549%,45.882353%);fill-opacity:1;" d="M 458.472656 261.640625 C 454.800781 257.972656 454.800781 252.019531 458.472656 248.351562 L 480.402344 226.421875 C 484.070312 222.75 490.023438 222.75 493.691406 226.421875 L 515.621094 248.351562 C 519.292969 252.019531 519.292969 257.972656 515.621094 261.640625 L 493.691406 283.570312 C 490.023438 287.242188 484.070312 287.242188 480.402344 283.570312 Z M 458.472656 261.640625 "/>
<path style=" stroke:none;fill-rule:nonzero;fill:rgb(21.176471%,33.72549%,45.882353%);fill-opacity:1;" d="M 576.414062 235.753906 C 581.683594 235.753906 585.957031 240.027344 585.957031 245.296875 L 585.957031 276.78125 C 585.957031 282.050781 581.683594 286.324219 576.414062 286.324219 L 544.929688 286.324219 C 539.660156 286.324219 535.386719 282.050781 535.386719 276.78125 L 535.386719 245.296875 C 535.386719 240.027344 539.660156 235.753906 544.929688 235.753906 Z M 576.414062 235.753906 "/>
<path style=" stroke:none;fill-rule:nonzero;fill:rgb(23.529412%,37.254902%,51.372549%);fill-opacity:1;" d="M 554.027344 160.429688 C 557.695312 156.757812 563.648438 156.757812 567.316406 160.429688 L 589.246094 182.359375 C 592.917969 186.027344 592.917969 191.980469 589.246094 195.648438 L 567.316406 217.578125 C 563.648438 221.25 557.695312 221.25 554.027344 217.578125 L 532.097656 195.648438 C 528.425781 191.980469 528.425781 186.027344 532.097656 182.359375 Z M 554.027344 160.429688 "/>
<path style=" stroke:none;fill-rule:nonzero;fill:rgb(23.529412%,37.254902%,51.372549%);fill-opacity:1;" d="M 23.585938 66.246094 C 18.316406 66.246094 14.042969 61.972656 14.042969 56.703125 L 14.042969 25.21875 C 14.042969 19.949219 18.316406 15.675781 23.585938 15.675781 L 55.070312 15.675781 C 60.339844 15.675781 64.613281 19.949219 64.613281 25.21875 L 64.613281 56.703125 C 64.613281 61.972656 60.339844 66.246094 55.070312 66.246094 Z M 23.585938 66.246094 "/>
<path style=" stroke:none;fill-rule:nonzero;fill:rgb(28.235294%,45.490196%,61.568627%);fill-opacity:1;" d="M 10.753906 119.640625 C 7.082031 115.972656 7.082031 110.019531 10.753906 106.351562 L 32.683594 84.421875 C 36.351562 80.75 42.304688 80.75 45.972656 84.421875 L 67.902344 106.351562 C 71.574219 110.019531 71.574219 115.972656 67.902344 119.640625 L 45.972656 141.570312 C 42.304688 145.242188 36.351562 145.242188 32.683594 141.570312 Z M 10.753906 119.640625 "/>
<path style=" stroke:none;fill-rule:nonzero;fill:rgb(28.235294%,45.490196%,61.568627%);fill-opacity:1;" d="M 128.695312 93.753906 C 133.964844 93.753906 138.238281 98.027344 138.238281 103.296875 L 138.238281 134.78125 C 138.238281 140.050781 133.964844 144.324219 128.695312 144.324219 L 97.210938 144.324219 C 91.941406 144.324219 87.667969 140.050781 87.667969 134.78125 L 87.667969 103.296875 C 87.667969 98.027344 91.941406 93.753906 97.210938 93.753906 Z M 128.695312 93.753906 "/>
<path style=" stroke:none;fill-rule:nonzero;fill:rgb(28.235294%,45.490196%,61.568627%);fill-opacity:1;" d="M 106.308594 18.429688 C 109.976562 14.757812 115.929688 14.757812 119.597656 18.429688 L 141.527344 40.359375 C 145.199219 44.027344 145.199219 49.980469 141.527344 53.648438 L 119.597656 75.578125 C 115.929688 79.25 109.976562 79.25 106.308594 75.578125 L 84.378906 53.648438 C 80.707031 49.980469 80.707031 44.027344 84.378906 40.359375 Z M 106.308594 18.429688 "/>
<path style=" stroke:none;fill-rule:nonzero;fill:rgb(25.490196%,40.784314%,55.294118%);fill-opacity:1;" d="M 172.824219 66.246094 C 167.554688 66.246094 163.285156 61.972656 163.285156 56.703125 L 163.285156 25.21875 C 163.285156 19.949219 167.554688 15.675781 172.824219 15.675781 L 204.3125 15.675781 C 209.578125 15.675781 213.851562 19.949219 213.851562 25.21875 L 213.851562 56.703125 C 213.851562 61.972656 209.578125 66.246094 204.3125 66.246094 Z M 172.824219 66.246094 "/>
<path style=" stroke:none;fill-rule:nonzero;fill:rgb(25.490196%,40.784314%,55.294118%);fill-opacity:1;" d="M 159.992188 119.640625 C 156.320312 115.972656 156.320312 110.019531 159.992188 106.351562 L 181.921875 84.421875 C 185.59375 80.75 191.542969 80.75 195.214844 84.421875 L 217.144531 106.351562 C 220.8125 110.019531 220.8125 115.972656 217.144531 119.640625 L 195.214844 141.570312 C 191.542969 145.242188 185.59375 145.242188 181.921875 141.570312 Z M 159.992188 119.640625 "/>
<path style=" stroke:none;fill-rule:nonzero;fill:rgb(28.235294%,45.490196%,61.568627%);fill-opacity:1;" d="M 277.933594 93.753906 C 283.203125 93.753906 287.476562 98.027344 287.476562 103.296875 L 287.476562 134.78125 C 287.476562 140.050781 283.203125 144.324219 277.933594 144.324219 L 246.449219 144.324219 C 241.179688 144.324219 236.910156 140.050781 236.910156 134.78125 L 236.910156 103.296875 C 236.910156 98.027344 241.179688 93.753906 246.449219 93.753906 Z M 277.933594 93.753906 "/>
<path style=" stroke:none;fill-rule:nonzero;fill:rgb(25.490196%,40.784314%,55.294118%);fill-opacity:1;" d="M 255.546875 18.429688 C 259.21875 14.757812 265.167969 14.757812 268.839844 18.429688 L 290.769531 40.359375 C 294.4375 44.027344 294.4375 49.980469 290.769531 53.648438 L 268.839844 75.578125 C 265.167969 79.25 259.21875 79.25 255.546875 75.578125 L 233.617188 53.648438 C 229.945312 49.980469 229.945312 44.027344 233.617188 40.359375 Z M 255.546875 18.429688 "/>
<path style=" stroke:none;fill-rule:nonzero;fill:rgb(23.529412%,37.254902%,51.372549%);fill-opacity:1;" d="M 322.066406 66.246094 C 316.796875 66.246094 312.523438 61.972656 312.523438 56.703125 L 312.523438 25.21875 C 312.523438 19.949219 316.796875 15.675781 322.066406 15.675781 L 353.550781 15.675781 C 358.820312 15.675781 363.089844 19.949219 363.089844 25.21875 L 363.089844 56.703125 C 363.089844 61.972656 358.820312 66.246094 353.550781 66.246094 Z M 322.066406 66.246094 "/>
<path style=" stroke:none;fill-rule:nonzero;fill:rgb(28.235294%,45.490196%,61.568627%);fill-opacity:1;" d="M 309.230469 119.640625 C 305.5625 115.972656 305.5625 110.019531 309.230469 106.351562 L 331.160156 84.421875 C 334.832031 80.75 340.78125 80.75 344.453125 84.421875 L 366.382812 106.351562 C 370.054688 110.019531 370.054688 115.972656 366.382812 119.640625 L 344.453125 141.570312 C 340.78125 145.242188 334.832031 145.242188 331.160156 141.570312 Z M 309.230469 119.640625 "/>
<path style=" stroke:none;fill-rule:nonzero;fill:rgb(25.490196%,40.784314%,55.294118%);fill-opacity:1;" d="M 427.175781 93.753906 C 432.445312 93.753906 436.714844 98.027344 436.714844 103.296875 L 436.714844 134.78125 C 436.714844 140.050781 432.445312 144.324219 427.175781 144.324219 L 395.6875 144.324219 C 390.421875 144.324219 386.148438 140.050781 386.148438 134.78125 L 386.148438 103.296875 C 386.148438 98.027344 390.421875 93.753906 395.6875 93.753906 Z M 427.175781 93.753906 "/>
<path style=" stroke:none;fill-rule:nonzero;fill:rgb(25.490196%,40.784314%,55.294118%);fill-opacity:1;" d="M 404.785156 18.429688 C 408.457031 14.757812 414.40625 14.757812 418.078125 18.429688 L 440.007812 40.359375 C 443.679688 44.027344 443.679688 49.980469 440.007812 53.648438 L 418.078125 75.578125 C 414.40625 79.25 408.457031 79.25 404.785156 75.578125 L 382.855469 53.648438 C 379.1875 49.980469 379.1875 44.027344 382.855469 40.359375 Z M 404.785156 18.429688 "/>
<path style=" stroke:none;fill-rule:nonzero;fill:rgb(23.529412%,37.254902%,51.372549%);fill-opacity:1;" d="M 471.304688 66.246094 C 466.035156 66.246094 461.761719 61.972656 461.761719 56.703125 L 461.761719 25.21875 C 461.761719 19.949219 466.035156 15.675781 471.304688 15.675781 L 502.789062 15.675781 C 508.058594 15.675781 512.332031 19.949219 512.332031 25.21875 L 512.332031 56.703125 C 512.332031 61.972656 508.058594 66.246094 502.789062 66.246094 Z M 471.304688 66.246094 "/>
<path style=" stroke:none;fill-rule:nonzero;fill:rgb(25.490196%,40.784314%,55.294118%);fill-opacity:1;" d="M 458.472656 119.640625 C 454.800781 115.972656 454.800781 110.019531 458.472656 106.351562 L 480.402344 84.421875 C 484.070312 80.75 490.023438 80.75 493.691406 84.421875 L 515.621094 106.351562 C 519.292969 110.019531 519.292969 115.972656 515.621094 119.640625 L 493.691406 141.570312 C 490.023438 145.242188 484.070312 145.242188 480.402344 141.570312 Z M 458.472656 119.640625 "/>
<path style=" stroke:none;fill-rule:nonzero;fill:rgb(28.235294%,45.490196%,61.568627%);fill-opacity:1;" d="M 576.414062 93.753906 C 581.683594 93.753906 585.957031 98.027344 585.957031 103.296875 L 585.957031 134.78125 C 585.957031 140.050781 581.683594 144.324219 576.414062 144.324219 L 544.929688 144.324219 C 539.660156 144.324219 535.386719 140.050781 535.386719 134.78125 L 535.386719 103.296875 C 535.386719 98.027344 539.660156 93.753906 544.929688 93.753906 Z M 576.414062 93.753906 "/>
<path style=" stroke:none;fill-rule:nonzero;fill:rgb(28.235294%,45.490196%,61.568627%);fill-opacity:1;" d="M 554.027344 18.429688 C 557.695312 14.757812 563.648438 14.757812 567.316406 18.429688 L 589.246094 40.359375 C 592.917969 44.027344 592.917969 49.980469 589.246094 53.648438 L 567.316406 75.578125 C 563.648438 79.25 557.695312 79.25 554.027344 75.578125 L 532.097656 53.648438 C 528.425781 49.980469 528.425781 44.027344 532.097656 40.359375 Z M 554.027344 18.429688 "/>
<path style="fill:none;stroke-width:9;stroke-linecap:round;stroke-linejoin:round;stroke:rgb(0%,0%,0%);stroke-opacity:0.513725;stroke-miterlimit:10;" d="M 239.878906 194.472656 L 234.033203 196.921875 L 236.486328 191.09375 C 238.162109 187.115234 240.484375 183.632812 243.40625 180.724609 L 270.574219 153.654297 C 271.738281 152.496094 274.220703 153.091797 276.121094 154.984375 C 278.019531 156.876953 278.619141 159.349609 277.455078 160.507812 L 250.287109 187.578125 C 247.365234 190.490234 243.871094 192.806641 239.878906 194.472656 " transform="matrix(2,0,0,2,-180,-210)"/>
<path style="fill:none;stroke-width:9;stroke-linecap:round;stroke-linejoin:round;stroke:rgb(0%,0%,0%);stroke-opacity:0.513725;stroke-miterlimit:10;" d="M 251.029297 165.345703 C 251.029297 165.345703 254.628906 168.398438 257.013672 163.21875 C 262.175781 152.007812 268.296875 155.279297 268.296875 155.279297 " transform="matrix(2,0,0,2,-180,-210)"/>
<path style="fill:none;stroke-width:9;stroke-linecap:round;stroke-linejoin:round;stroke:rgb(0%,0%,0%);stroke-opacity:0.513725;stroke-miterlimit:10;" d="M 253.21875 164.523438 C 253.21875 165.210938 252.664062 165.767578 251.976562 165.767578 C 251.287109 165.767578 250.730469 165.210938 250.730469 164.523438 C 250.730469 163.835938 251.291016 163.28125 251.976562 163.28125 C 252.666016 163.28125 253.220703 163.837891 253.220703 164.525391 Z M 253.21875 164.523438 " transform="matrix(2,0,0,2,-180,-210)"/>
<path style="fill:none;stroke-width:7.5;stroke-linecap:butt;stroke-linejoin:miter;stroke:rgb(0%,0%,0%);stroke-opacity:0.513725;stroke-miterlimit:10;" d="M 256.703125 144.220703 C 253.339844 144.220703 250.613281 141.494141 250.613281 138.128906 L 250.613281 131.386719 C 250.613281 128.023438 253.339844 125.294922 256.703125 125.294922 L 263.447266 125.294922 C 266.810547 125.294922 269.537109 128.023438 269.537109 131.386719 L 269.537109 138.128906 C 269.537109 141.494141 266.810547 144.220703 263.447266 144.220703 Z M 256.703125 144.220703 " transform="matrix(2,0,0,2,-180,-210)"/>
<path style="fill:none;stroke-width:7.5;stroke-linecap:butt;stroke-linejoin:miter;stroke:rgb(0%,0%,0%);stroke-opacity:0.513725;stroke-miterlimit:10;" d="M 232.373047 144.220703 C 229.007812 144.220703 226.28125 141.494141 226.28125 138.128906 L 226.28125 131.386719 C 226.28125 128.023438 229.007812 125.294922 232.373047 125.294922 L 239.115234 125.294922 C 242.480469 125.294922 245.207031 128.023438 245.207031 131.386719 L 245.207031 138.128906 C 245.207031 141.494141 242.480469 144.220703 239.115234 144.220703 Z M 232.373047 144.220703 " transform="matrix(2,0,0,2,-180,-210)"/>
<path style="fill:none;stroke-width:7.5;stroke-linecap:butt;stroke-linejoin:miter;stroke:rgb(0%,0%,0%);stroke-opacity:0.513725;stroke-miterlimit:10;" d="M 208.041016 144.220703 C 204.677734 144.220703 201.951172 141.494141 201.951172 138.128906 L 201.951172 131.386719 C 201.951172 128.023438 204.677734 125.294922 208.041016 125.294922 L 214.785156 125.294922 C 218.148438 125.294922 220.875 128.023438 220.875 131.386719 L 220.875 138.128906 C 220.875 141.494141 218.148438 144.220703 214.785156 144.220703 Z M 208.041016 144.220703 " transform="matrix(2,0,0,2,-180,-210)"/>
<path style="fill:none;stroke-width:7.5;stroke-linecap:butt;stroke-linejoin:miter;stroke:rgb(0%,0%,0%);stroke-opacity:0.513725;stroke-miterlimit:10;" d="M 208.041016 168.552734 C 204.677734 168.552734 201.951172 165.824219 201.951172 162.460938 L 201.951172 155.71875 C 201.951172 152.353516 204.677734 149.626953 208.041016 149.626953 L 214.785156 149.626953 C 218.148438 149.626953 220.875 152.353516 220.875 155.71875 L 220.875 162.460938 C 220.875 165.824219 218.148438 168.552734 214.785156 168.552734 Z M 208.041016 168.552734 " transform="matrix(2,0,0,2,-180,-210)"/>
<path style="fill:none;stroke-width:7.5;stroke-linecap:butt;stroke-linejoin:miter;stroke:rgb(0%,0%,0%);stroke-opacity:0.513725;stroke-miterlimit:10;" d="M 208.041016 192.882812 C 204.677734 192.882812 201.951172 190.15625 201.951172 186.792969 L 201.951172 180.048828 C 201.951172 176.685547 204.677734 173.958984 208.041016 173.958984 L 214.785156 173.958984 C 218.148438 173.958984 220.875 176.685547 220.875 180.048828 L 220.875 186.792969 C 220.875 190.15625 218.148438 192.882812 214.785156 192.882812 Z M 208.041016 192.882812 " transform="matrix(2,0,0,2,-180,-210)"/>
<path style="fill:none;stroke-width:7.5;stroke-linecap:butt;stroke-linejoin:miter;stroke:rgb(0%,0%,0%);stroke-opacity:0.513725;stroke-miterlimit:10;" d="M 232.373047 168.552734 C 229.007812 168.552734 226.28125 165.824219 226.28125 162.460938 L 226.28125 155.71875 C 226.28125 152.353516 229.007812 149.626953 232.373047 149.626953 L 239.115234 149.626953 C 242.480469 149.626953 245.207031 152.353516 245.207031 155.71875 L 245.207031 162.460938 C 245.207031 165.824219 242.480469 168.552734 239.115234 168.552734 Z M 232.373047 168.552734 " transform="matrix(2,0,0,2,-180,-210)"/>
<path style="fill:none;stroke-width:7.5;stroke-linecap:square;stroke-linejoin:miter;stroke:rgb(0%,0%,0%);stroke-opacity:0.52549;stroke-miterlimit:10;" d="M 110.324219 237.716797 C 110.324219 238.123047 109.125 238.324219 106.724609 238.324219 C 104.296875 238.324219 103.082031 238.134766 103.082031 237.753906 L 103.082031 213.037109 C 103.082031 212.154297 103.548828 211.712891 104.482422 211.712891 L 111.722656 211.712891 C 118.373047 211.712891 121.697266 214.304688 121.697266 219.486328 C 121.697266 221.052734 121.394531 222.474609 120.787109 223.751953 C 120.179688 225.025391 119.320312 226.042969 118.208984 226.802734 L 122.986328 234.763672 C 122.783203 235.371094 122.126953 236.066406 121.015625 236.851562 C 119.5 237.9375 118.25 238.480469 117.261719 238.480469 C 116.275391 238.480469 115.541016 238.125 115.0625 237.414062 L 111.501953 229.113281 L 110.324219 229.113281 Z M 110.324219 218.421875 L 110.324219 224.107422 L 110.515625 224.107422 C 112.916016 224.107422 114.115234 223.111328 114.115234 221.117188 C 114.115234 220.203125 113.880859 219.527344 113.412109 219.087891 C 112.943359 218.642578 112.177734 218.421875 111.117188 218.421875 Z M 133.447266 238.628906 C 130.945312 238.628906 128.833984 237.777344 127.115234 236.074219 C 125.398438 234.365234 124.539062 232.001953 124.539062 228.980469 C 124.539062 225.958984 125.367188 223.527344 127.019531 221.685547 C 128.677734 219.839844 130.771484 218.917969 133.298828 218.917969 C 135.826172 218.917969 137.779297 219.560547 139.15625 220.849609 C 140.533203 222.138672 141.222656 223.705078 141.222656 225.550781 C 141.222656 229.644531 138.873047 231.689453 134.171875 231.689453 L 131.550781 231.689453 C 131.550781 232.451172 131.759766 232.976562 132.173828 233.267578 C 132.59375 233.558594 133.207031 233.705078 134.017578 233.705078 C 135.789062 233.705078 139.197266 232.640625 139.400391 233.015625 C 140.007812 234.107422 140.310547 235.025391 140.310547 235.769531 C 140.310547 236.515625 140.072266 237.001953 139.59375 237.228516 C 139.59375 237.228516 135.949219 238.628906 133.447266 238.628906 Z M 134.853516 226.269531 C 134.853516 225.208984 134.335938 224.677734 133.298828 224.677734 C 132.820312 224.677734 132.408203 224.824219 132.0625 225.115234 C 131.722656 225.40625 131.550781 225.828125 131.550781 226.380859 L 131.550781 227.558594 L 133.603516 227.558594 C 134.4375 227.558594 134.853516 227.128906 134.853516 226.269531 Z M 151.605469 238.021484 C 151.605469 238.199219 150.697266 238.287109 148.880859 238.287109 C 146.353516 238.212891 145.089844 238.076172 145.089844 237.873047 L 145.089844 225.587891 L 144.105469 225.587891 C 143.449219 225.587891 143.019531 225.033203 142.816406 223.921875 C 142.761719 223.591797 142.734375 223.263672 142.734375 222.9375 C 142.734375 222.152344 142.888672 221.367188 143.193359 220.583984 C 143.648438 219.472656 144.353516 218.917969 145.3125 218.917969 C 146.275391 218.917969 147.132812 219.144531 147.888672 219.597656 C 148.648438 220.052734 149.158203 220.505859 149.414062 220.960938 C 151.003906 219.597656 152.896484 218.917969 155.09375 218.917969 C 157.294922 218.917969 158.886719 219.511719 159.869141 220.701172 C 160.857422 221.886719 161.349609 223.832031 161.349609 226.537109 L 161.349609 237.910156 C 161.349609 238.210938 160.269531 238.361328 158.107422 238.361328 C 155.949219 238.361328 154.871094 238.210938 154.871094 237.910156 L 154.871094 226.951172 C 154.871094 225.6875 154.429688 225.054688 153.544922 225.054688 C 153.289062 225.054688 152.933594 225.164062 152.480469 225.380859 C 152.025391 225.59375 151.734375 225.751953 151.605469 225.855469 Z M 174.167969 211.941406 C 174.167969 211.5625 175.166016 211.371094 177.160156 211.371094 C 177.841797 211.371094 178.630859 211.416016 179.529297 211.505859 C 180.427734 211.59375 180.876953 211.712891 180.876953 211.861328 L 180.876953 231.845703 L 182.203125 231.845703 C 182.833984 231.845703 183.251953 232.414062 183.455078 233.548828 C 183.503906 233.878906 183.527344 234.328125 183.527344 234.896484 C 183.527344 235.464844 183.353516 236.152344 183.001953 236.962891 C 182.494141 238.072266 181.683594 238.628906 180.574219 238.628906 C 179.740234 238.628906 179 238.464844 178.351562 238.138672 C 177.710938 237.808594 177.275391 237.464844 177.048828 237.109375 L 176.708984 236.621094 C 175.316406 237.958984 173.572266 238.628906 171.472656 238.628906 C 169.375 238.628906 167.580078 237.757812 166.089844 236.013672 C 164.599609 234.271484 163.853516 231.839844 163.853516 228.720703 C 163.853516 225.595703 164.636719 223.181641 166.201172 221.478516 C 167.771484 219.771484 169.730469 218.917969 172.080078 218.917969 C 172.761719 218.917969 173.457031 218.994141 174.167969 219.146484 Z M 172.917969 224.982422 C 171.5 224.982422 170.792969 226.257812 170.792969 228.810547 C 170.792969 230.097656 170.994141 231.029297 171.398438 231.601562 C 171.804688 232.169922 172.253906 232.453125 172.746094 232.453125 C 173.240234 232.453125 173.714844 232.238281 174.167969 231.808594 L 174.167969 225.359375 C 173.738281 225.107422 173.322266 224.982422 172.917969 224.982422 Z M 194.181641 238.628906 C 191.679688 238.628906 189.568359 237.777344 187.851562 236.074219 C 186.132812 234.365234 185.273438 232.001953 185.273438 228.980469 C 185.273438 225.958984 186.101562 223.527344 187.753906 221.685547 C 189.414062 219.839844 191.505859 218.917969 194.033203 218.917969 C 196.560547 218.917969 198.513672 219.560547 199.890625 220.849609 C 201.267578 222.138672 201.957031 223.705078 201.957031 225.550781 C 201.957031 229.644531 199.607422 231.689453 194.908203 231.689453 L 192.287109 231.689453 C 192.287109 232.451172 192.494141 232.976562 192.908203 233.267578 C 193.328125 233.558594 193.943359 233.705078 194.751953 233.705078 C 196.523438 233.705078 199.933594 232.640625 200.134766 233.015625 C 200.742188 234.107422 201.046875 235.025391 201.046875 235.769531 C 201.046875 236.515625 200.806641 237.001953 200.328125 237.228516 C 200.328125 237.228516 196.685547 238.628906 194.181641 238.628906 Z M 195.589844 226.269531 C 195.589844 225.208984 195.070312 224.677734 194.033203 224.677734 C 193.554688 224.677734 193.142578 224.824219 192.796875 225.115234 C 192.457031 225.40625 192.287109 225.828125 192.287109 226.380859 L 192.287109 227.558594 L 194.337891 227.558594 C 195.171875 227.558594 195.589844 227.128906 195.589844 226.269531 Z M 212.726562 238.212891 C 212.726562 238.390625 211.576172 238.480469 209.275391 238.480469 C 206.974609 238.425781 205.824219 238.324219 205.824219 238.175781 L 205.824219 225.587891 L 204.802734 225.587891 C 204.398438 225.587891 204.074219 225.341797 203.832031 224.847656 C 203.589844 224.355469 203.470703 223.742188 203.470703 223.011719 C 203.470703 220.28125 204.279297 218.917969 205.898438 218.917969 C 207.033203 218.917969 207.982422 219.265625 208.742188 219.960938 C 209.501953 220.652344 209.882812 221.441406 209.882812 222.330078 C 210.410156 221.294922 211.123047 220.466797 212.021484 219.849609 C 212.919922 219.228516 213.835938 218.917969 214.769531 218.917969 C 216.236328 218.917969 217.121094 219.294922 217.427734 220.050781 C 217.501953 220.251953 217.539062 220.550781 217.539062 220.945312 C 217.539062 221.335938 217.417969 222.037109 217.175781 223.048828 C 216.939453 224.060547 216.691406 224.792969 216.435547 225.248047 C 216.183594 225.703125 216.033203 225.929688 215.984375 225.929688 C 215.933594 225.929688 215.699219 225.835938 215.28125 225.648438 C 214.865234 225.455078 214.492188 225.359375 214.162109 225.359375 C 213.205078 225.359375 212.726562 226.117188 212.726562 227.632812 Z M 227.621094 238.628906 C 225.117188 238.628906 223.007812 237.777344 221.289062 236.074219 C 219.572266 234.365234 218.712891 232.001953 218.712891 228.980469 C 218.712891 225.958984 219.539062 223.527344 221.193359 221.685547 C 222.851562 219.839844 224.945312 218.917969 227.472656 218.917969 C 230 218.917969 231.951172 219.560547 233.330078 220.849609 C 234.707031 222.138672 235.394531 223.705078 235.394531 225.550781 C 235.394531 229.644531 233.044922 231.689453 228.345703 231.689453 L 225.724609 231.689453 C 225.724609 232.451172 225.931641 232.976562 226.347656 233.267578 C 226.765625 233.558594 227.380859 233.705078 228.191406 233.705078 C 229.962891 233.705078 233.371094 232.640625 233.574219 233.015625 C 234.181641 234.107422 234.484375 235.025391 234.484375 235.769531 C 234.484375 236.515625 234.244141 237.001953 233.765625 237.228516 C 233.765625 237.228516 230.123047 238.628906 227.621094 238.628906 Z M 229.027344 226.269531 C 229.027344 225.208984 228.509766 224.677734 227.472656 224.677734 C 226.994141 224.677734 226.582031 224.824219 226.236328 225.115234 C 225.894531 225.40625 225.724609 225.828125 225.724609 226.380859 L 225.724609 227.558594 L 227.775391 227.558594 C 228.609375 227.558594 229.027344 227.128906 229.027344 226.269531 Z M 246.164062 238.212891 C 246.164062 238.390625 245.013672 238.480469 242.712891 238.480469 C 240.412109 238.425781 239.263672 238.324219 239.263672 238.175781 L 239.263672 225.587891 L 238.240234 225.587891 C 237.835938 225.587891 237.513672 225.341797 237.271484 224.847656 C 237.029297 224.355469 236.908203 223.742188 236.908203 223.011719 C 236.908203 220.28125 237.716797 218.917969 239.335938 218.917969 C 240.472656 218.917969 241.419922 219.265625 242.179688 219.960938 C 242.941406 220.652344 243.320312 221.441406 243.320312 222.330078 C 243.849609 221.294922 244.5625 220.466797 245.460938 219.849609 C 246.359375 219.228516 247.275391 218.917969 248.207031 218.917969 C 249.673828 218.917969 250.560547 219.294922 250.865234 220.050781 C 250.939453 220.251953 250.976562 220.550781 250.976562 220.945312 C 250.976562 221.335938 250.855469 222.037109 250.613281 223.048828 C 250.376953 224.060547 250.130859 224.792969 249.873047 225.248047 C 249.621094 225.703125 249.470703 225.929688 249.421875 225.929688 C 249.373047 225.929688 249.138672 225.835938 248.71875 225.648438 C 248.304688 225.455078 247.931641 225.359375 247.599609 225.359375 C 246.642578 225.359375 246.164062 226.117188 246.164062 227.632812 Z M 275.902344 212.148438 C 277.302734 212.667969 278.003906 213.369141 278.003906 214.251953 C 278.003906 215.134766 277.667969 216.228516 276.998047 217.533203 C 276.332031 218.835938 275.771484 219.486328 275.316406 219.486328 C 275.1875 219.486328 275.042969 219.417969 274.878906 219.279297 C 274.716797 219.136719 274.335938 218.984375 273.740234 218.820312 C 273.146484 218.658203 272.636719 218.576172 272.207031 218.576172 C 270.740234 218.576172 269.558594 219.095703 268.660156 220.130859 C 267.765625 221.167969 267.320312 222.755859 267.320312 224.892578 C 267.320312 227.025391 267.779297 228.609375 268.697266 229.646484 C 269.619141 230.683594 270.789062 231.201172 272.207031 231.201172 C 272.789062 231.201172 273.441406 231.119141 274.162109 230.957031 C 274.882812 230.789062 275.392578 230.554688 275.695312 230.253906 C 275.744141 230.199219 275.845703 230.171875 275.998047 230.171875 C 276.150391 230.171875 276.435547 230.458984 276.849609 231.03125 C 277.269531 231.599609 277.654297 232.34375 278.003906 233.267578 C 278.359375 234.189453 278.537109 234.904297 278.537109 235.408203 C 278.537109 236.394531 277.779297 237.179688 276.263672 237.761719 C 274.748047 238.339844 272.955078 238.628906 270.880859 238.628906 C 267.544922 238.628906 264.802734 237.453125 262.654297 235.103516 C 260.507812 232.753906 259.433594 229.4375 259.433594 225.152344 C 259.433594 220.867188 260.539062 217.5 262.75 215.052734 C 264.962891 212.597656 267.722656 211.371094 271.029297 211.371094 C 271.029297 211.371094 274.5 211.630859 275.902344 212.148438 Z M 282.916016 236.013672 C 281.335938 234.271484 280.546875 231.857422 280.546875 228.773438 C 280.546875 225.6875 281.335938 223.273438 282.916016 221.53125 C 284.496094 219.789062 286.625 218.917969 289.306641 218.917969 C 291.986328 218.917969 294.109375 219.789062 295.673828 221.53125 C 297.240234 223.273438 298.021484 225.6875 298.021484 228.773438 C 298.021484 231.857422 297.240234 234.271484 295.673828 236.013672 C 294.109375 237.757812 291.986328 238.628906 289.306641 238.628906 C 286.625 238.628906 284.496094 237.757812 282.916016 236.013672 Z M 289.320312 225.248047 C 287.894531 225.248047 282.681641 225.660156 282.681641 227.986328 C 282.681641 230.310547 287.894531 232.222656 289.320312 232.222656 C 290.751953 232.222656 291.46875 231.060547 291.46875 228.736328 C 291.46875 226.410156 290.751953 225.248047 289.320312 225.248047 Z M 308.636719 238.021484 C 308.636719 238.199219 307.728516 238.287109 305.912109 238.287109 C 303.384766 238.212891 302.121094 238.076172 302.121094 237.873047 L 302.121094 225.587891 L 301.136719 225.587891 C 300.478516 225.587891 300.050781 225.033203 299.847656 223.921875 C 299.792969 223.591797 299.765625 223.263672 299.765625 222.9375 C 299.765625 222.152344 299.919922 221.367188 300.224609 220.583984 C 300.679688 219.472656 301.384766 218.917969 302.34375 218.917969 C 303.304688 218.917969 304.164062 219.144531 304.919922 219.597656 C 305.679688 220.052734 306.1875 220.505859 306.445312 220.960938 C 308.035156 219.597656 309.927734 218.917969 312.125 218.917969 C 314.326172 218.917969 315.917969 219.511719 316.900391 220.701172 C 317.886719 221.886719 318.380859 223.832031 318.380859 226.537109 L 318.380859 237.910156 C 318.380859 238.210938 317.300781 238.361328 315.138672 238.361328 C 312.980469 238.361328 311.902344 238.210938 311.902344 237.910156 L 311.902344 226.951172 C 311.902344 225.6875 311.460938 225.054688 310.576172 225.054688 C 310.320312 225.054688 309.964844 225.164062 309.509766 225.380859 C 309.056641 225.59375 308.765625 225.751953 308.636719 225.855469 Z M 330.326172 238.021484 C 330.326172 238.328125 329.263672 238.480469 327.142578 238.480469 C 324.615234 238.376953 323.351562 238.210938 323.351562 237.984375 L 323.351562 224.566406 L 321.417969 224.566406 C 320.910156 224.566406 320.65625 223.693359 320.65625 221.945312 C 320.65625 221.492188 320.699219 220.935547 320.789062 220.279297 C 320.876953 219.623047 321.0625 219.294922 321.34375 219.294922 L 323.351562 219.294922 L 323.351562 215.955078 C 323.351562 215.451172 324.417969 215.199219 326.548828 215.199219 C 328.6875 215.199219 329.755859 215.402344 329.755859 215.806641 L 329.755859 218.236328 L 329.792969 219.294922 L 333.021484 219.294922 C 333.451172 219.294922 333.666016 220.181641 333.666016 221.953125 C 333.666016 223.720703 333.451172 224.603516 333.021484 224.603516 L 330.326172 224.603516 Z M 343.863281 238.212891 C 343.863281 238.390625 342.712891 238.480469 340.412109 238.480469 C 338.111328 238.425781 336.960938 238.324219 336.960938 238.175781 L 336.960938 225.587891 L 335.939453 225.587891 C 335.535156 225.587891 335.210938 225.341797 334.970703 224.847656 C 334.728516 224.355469 334.607422 223.742188 334.607422 223.011719 C 334.607422 220.28125 335.416016 218.917969 337.035156 218.917969 C 338.171875 218.917969 339.119141 219.265625 339.878906 219.960938 C 340.638672 220.652344 341.019531 221.441406 341.019531 222.330078 C 341.546875 221.294922 342.261719 220.466797 343.160156 219.849609 C 344.058594 219.228516 344.972656 218.917969 345.90625 218.917969 C 347.373047 218.917969 348.257812 219.294922 348.564453 220.050781 C 348.638672 220.251953 348.675781 220.550781 348.675781 220.945312 C 348.675781 221.335938 348.554688 222.037109 348.3125 223.048828 C 348.076172 224.060547 347.830078 224.792969 347.572266 225.248047 C 347.320312 225.703125 347.169922 225.929688 347.121094 225.929688 C 347.072266 225.929688 346.837891 225.835938 346.417969 225.648438 C 346.001953 225.455078 345.630859 225.359375 345.298828 225.359375 C 344.341797 225.359375 343.863281 226.117188 343.863281 227.632812 Z M 352.21875 236.013672 C 350.638672 234.271484 349.849609 231.857422 349.849609 228.773438 C 349.849609 225.6875 350.638672 223.273438 352.21875 221.53125 C 353.798828 219.789062 355.929688 218.917969 358.609375 218.917969 C 361.289062 218.917969 363.412109 219.789062 364.976562 221.53125 C 366.542969 223.273438 367.324219 225.6875 367.324219 228.773438 C 367.324219 231.857422 366.542969 234.271484 364.976562 236.013672 C 363.412109 237.757812 361.289062 238.628906 358.609375 238.628906 C 355.929688 238.628906 353.798828 237.757812 352.21875 236.013672 Z M 358.625 225.248047 C 357.197266 225.248047 352.484375 225.410156 352.484375 227.736328 C 352.484375 230.060547 357.197266 232.222656 358.625 232.222656 C 360.056641 232.222656 360.771484 231.060547 360.771484 228.736328 C 360.771484 226.410156 360.056641 225.248047 358.625 225.248047 Z M 376.917969 237.947266 C 376.917969 238.173828 375.628906 238.287109 373.052734 238.287109 C 371.029297 238.263672 370.017578 238.162109 370.017578 237.984375 L 370.017578 212.164062 C 370.017578 211.789062 371.244141 211.601562 373.697266 211.601562 C 375.84375 211.675781 376.917969 211.800781 376.917969 211.978516 Z M 376.917969 237.947266 " transform="matrix(2,0,0,2,-180,-210)"/>
<path style=" stroke:none;fill-rule:nonzero;fill:rgb(100%,100%,100%);fill-opacity:1;" d="M 40.648438 265.433594 C 40.648438 266.246094 38.25 266.648438 33.449219 266.648438 C 28.59375 266.648438 26.164062 266.269531 26.164062 265.507812 L 26.164062 216.074219 C 26.164062 214.308594 27.097656 213.425781 28.964844 213.425781 L 43.445312 213.425781 C 56.746094 213.425781 63.394531 218.609375 63.394531 228.972656 C 63.394531 232.105469 62.789062 234.949219 61.574219 237.503906 C 60.359375 240.050781 58.640625 242.085938 56.417969 243.605469 L 65.972656 259.527344 C 65.566406 260.742188 64.253906 262.132812 62.03125 263.703125 C 59 265.875 56.5 266.960938 54.523438 266.960938 C 52.550781 266.960938 51.082031 266.25 50.125 264.828125 L 43.003906 248.226562 L 40.648438 248.226562 Z M 40.648438 226.84375 L 40.648438 238.214844 L 41.03125 238.214844 C 45.832031 238.214844 48.230469 236.222656 48.230469 232.234375 C 48.230469 230.40625 47.761719 229.054688 46.824219 228.175781 C 45.886719 227.285156 44.355469 226.84375 42.234375 226.84375 Z M 99.1875 264.457031 C 95.996094 266.324219 91.898438 267.257812 86.894531 267.257812 C 81.890625 267.257812 77.667969 265.554688 74.230469 262.148438 C 70.796875 258.730469 69.078125 254.003906 69.078125 247.960938 C 69.078125 241.917969 70.734375 237.054688 74.039062 233.371094 C 77.355469 229.679688 81.542969 227.835938 86.597656 227.835938 C 91.652344 227.835938 95.558594 229.121094 98.3125 231.699219 C 101.066406 234.277344 102.445312 237.410156 102.445312 241.101562 C 102.445312 249.289062 97.746094 253.378906 88.34375 253.378906 L 83.101562 253.378906 C 83.101562 254.902344 83.519531 255.953125 84.347656 256.535156 C 85.1875 257.117188 86.414062 257.410156 88.035156 257.410156 C 91.578125 257.410156 94.941406 256.597656 98.121094 254.980469 C 98.167969 254.929688 98.394531 255.28125 98.800781 256.03125 C 100.015625 258.214844 100.621094 260.050781 100.621094 261.539062 C 100.621094 263.03125 100.144531 264.003906 99.1875 264.457031 Z M 89.707031 242.539062 C 89.707031 240.417969 88.671875 239.355469 86.597656 239.355469 C 85.640625 239.355469 84.816406 239.648438 84.125 240.230469 C 83.445312 240.8125 83.101562 241.65625 83.101562 242.761719 L 83.101562 245.117188 L 87.207031 245.117188 C 88.875 245.117188 89.707031 244.257812 89.707031 242.539062 Z M 123.210938 266.042969 C 123.210938 266.398438 121.394531 266.574219 117.761719 266.574219 C 112.707031 266.425781 110.179688 266.152344 110.179688 265.746094 L 110.179688 241.175781 L 108.210938 241.175781 C 106.898438 241.175781 106.039062 240.066406 105.632812 237.84375 C 105.523438 237.183594 105.46875 236.527344 105.46875 235.875 C 105.46875 234.304688 105.777344 232.734375 106.386719 231.167969 C 107.296875 228.945312 108.707031 227.835938 110.625 227.835938 C 112.550781 227.835938 114.265625 228.289062 115.777344 229.195312 C 117.296875 230.105469 118.316406 231.011719 118.828125 231.921875 C 122.007812 229.195312 125.792969 227.835938 130.1875 227.835938 C 134.589844 227.835938 137.773438 229.023438 139.738281 231.402344 C 141.714844 233.773438 142.699219 237.664062 142.699219 243.074219 L 142.699219 265.820312 C 142.699219 266.421875 140.539062 266.722656 136.214844 266.722656 C 131.898438 266.722656 129.742188 266.421875 129.742188 265.820312 L 129.742188 243.902344 C 129.742188 241.375 128.859375 240.109375 127.089844 240.109375 C 126.578125 240.109375 125.867188 240.328125 124.960938 240.761719 C 124.050781 241.1875 123.46875 241.503906 123.210938 241.710938 Z M 168.335938 213.882812 C 168.335938 213.125 170.332031 212.742188 174.320312 212.742188 C 175.683594 212.742188 177.261719 212.832031 179.058594 213.011719 C 180.855469 213.1875 181.753906 213.425781 181.753906 213.722656 L 181.753906 253.691406 L 184.40625 253.691406 C 185.667969 253.691406 186.503906 254.828125 186.910156 257.097656 C 187.007812 257.757812 187.054688 258.65625 187.054688 259.792969 C 187.054688 260.929688 186.707031 262.304688 186.003906 263.925781 C 184.988281 266.144531 183.367188 267.257812 181.148438 267.257812 C 179.480469 267.257812 178 266.929688 176.703125 266.277344 C 175.421875 265.617188 174.550781 264.929688 174.097656 264.21875 L 173.417969 263.242188 C 170.632812 265.917969 167.144531 267.257812 162.945312 267.257812 C 158.75 267.257812 155.160156 265.515625 152.179688 262.027344 C 149.199219 258.542969 147.707031 253.679688 147.707031 247.441406 C 147.707031 241.191406 149.273438 236.363281 152.402344 232.957031 C 155.542969 229.542969 159.460938 227.835938 164.160156 227.835938 C 165.523438 227.835938 166.914062 227.988281 168.335938 228.292969 Z M 165.835938 239.964844 C 163 239.964844 161.585938 242.515625 161.585938 247.621094 C 161.585938 250.195312 161.988281 252.058594 162.796875 253.203125 C 163.609375 254.339844 164.507812 254.90625 165.492188 254.90625 C 166.480469 254.90625 167.429688 254.476562 168.335938 253.617188 L 168.335938 240.71875 C 167.476562 240.214844 166.644531 239.964844 165.835938 239.964844 Z M 220.65625 264.457031 C 217.46875 266.324219 213.371094 267.257812 208.363281 267.257812 C 203.359375 267.257812 199.136719 265.554688 195.703125 262.148438 C 192.265625 258.730469 190.546875 254.003906 190.546875 247.960938 C 190.546875 241.917969 192.203125 237.054688 195.507812 233.371094 C 198.828125 229.679688 203.011719 227.835938 208.066406 227.835938 C 213.121094 227.835938 217.027344 229.121094 219.78125 231.699219 C 222.535156 234.277344 223.914062 237.410156 223.914062 241.101562 C 223.914062 249.289062 219.214844 253.378906 209.816406 253.378906 L 204.574219 253.378906 C 204.574219 254.902344 204.988281 255.953125 205.816406 256.535156 C 206.65625 257.117188 207.886719 257.410156 209.503906 257.410156 C 213.046875 257.410156 216.410156 256.597656 219.589844 254.980469 C 219.640625 254.929688 219.867188 255.28125 220.269531 256.03125 C 221.484375 258.214844 222.09375 260.050781 222.09375 261.539062 C 222.09375 263.03125 221.613281 264.003906 220.65625 264.457031 Z M 211.179688 242.539062 C 211.179688 240.417969 210.140625 239.355469 208.066406 239.355469 C 207.109375 239.355469 206.285156 239.648438 205.59375 240.230469 C 204.914062 240.8125 204.574219 241.65625 204.574219 242.761719 L 204.574219 245.117188 L 208.675781 245.117188 C 210.34375 245.117188 211.179688 244.257812 211.179688 242.539062 Z M 245.453125 266.425781 C 245.453125 266.78125 243.152344 266.960938 238.550781 266.960938 C 233.949219 266.851562 231.648438 266.648438 231.648438 266.351562 L 231.648438 241.175781 L 229.605469 241.175781 C 228.796875 241.175781 228.148438 240.683594 227.664062 239.695312 C 227.179688 238.710938 226.941406 237.484375 226.941406 236.023438 C 226.941406 230.5625 228.558594 227.835938 231.796875 227.835938 C 234.066406 227.835938 235.964844 228.53125 237.484375 229.921875 C 239.003906 231.304688 239.765625 232.882812 239.765625 234.660156 C 240.820312 232.589844 242.246094 230.933594 244.042969 229.699219 C 245.839844 228.457031 247.671875 227.835938 249.539062 227.835938 C 252.472656 227.835938 254.242188 228.589844 254.855469 230.101562 C 255.003906 230.503906 255.078125 231.101562 255.078125 231.890625 C 255.078125 232.671875 254.835938 234.074219 254.351562 236.097656 C 253.878906 238.121094 253.382812 239.585938 252.871094 240.496094 C 252.367188 241.40625 252.066406 241.859375 251.96875 241.859375 C 251.867188 241.859375 251.398438 241.671875 250.5625 241.296875 C 249.730469 240.910156 248.984375 240.71875 248.324219 240.71875 C 246.410156 240.71875 245.453125 242.234375 245.453125 245.265625 Z M 287.53125 264.457031 C 284.34375 266.324219 280.246094 267.257812 275.242188 267.257812 C 270.234375 267.257812 266.015625 265.554688 262.578125 262.148438 C 259.144531 258.730469 257.425781 254.003906 257.425781 247.960938 C 257.425781 241.917969 259.078125 237.054688 262.386719 233.371094 C 265.703125 229.679688 269.890625 227.835938 274.945312 227.835938 C 280 227.835938 283.902344 229.121094 286.660156 231.699219 C 289.414062 234.277344 290.789062 237.410156 290.789062 241.101562 C 290.789062 249.289062 286.089844 253.378906 276.691406 253.378906 L 271.449219 253.378906 C 271.449219 254.902344 271.863281 255.953125 272.695312 256.535156 C 273.53125 257.117188 274.761719 257.410156 276.382812 257.410156 C 279.925781 257.410156 283.285156 256.597656 286.464844 254.980469 C 286.515625 254.929688 286.742188 255.28125 287.148438 256.03125 C 288.363281 258.214844 288.96875 260.050781 288.96875 261.539062 C 288.96875 263.03125 288.488281 264.003906 287.53125 264.457031 Z M 278.054688 242.539062 C 278.054688 240.417969 277.019531 239.355469 274.945312 239.355469 C 273.988281 239.355469 273.164062 239.648438 272.472656 240.230469 C 271.789062 240.8125 271.449219 241.65625 271.449219 242.761719 L 271.449219 245.117188 L 275.550781 245.117188 C 277.21875 245.117188 278.054688 244.257812 278.054688 242.539062 Z M 312.328125 266.425781 C 312.328125 266.78125 310.027344 266.960938 305.425781 266.960938 C 300.824219 266.851562 298.527344 266.648438 298.527344 266.351562 L 298.527344 241.175781 L 296.480469 241.175781 C 295.671875 241.175781 295.027344 240.683594 294.542969 239.695312 C 294.058594 238.710938 293.816406 237.484375 293.816406 236.023438 C 293.816406 230.5625 295.433594 227.835938 298.671875 227.835938 C 300.945312 227.835938 302.839844 228.53125 304.359375 229.921875 C 305.882812 231.304688 306.640625 232.882812 306.640625 234.660156 C 307.699219 232.589844 309.125 230.933594 310.921875 229.699219 C 312.71875 228.457031 314.550781 227.835938 316.414062 227.835938 C 319.347656 227.835938 321.121094 228.589844 321.730469 230.101562 C 321.878906 230.503906 321.953125 231.101562 321.953125 231.890625 C 321.953125 232.671875 321.710938 234.074219 321.226562 236.097656 C 320.753906 238.121094 320.261719 239.585938 319.746094 240.496094 C 319.242188 241.40625 318.941406 241.859375 318.84375 241.859375 C 318.746094 241.859375 318.277344 241.671875 317.4375 241.296875 C 316.609375 240.910156 315.863281 240.71875 315.199219 240.71875 C 313.285156 240.71875 312.328125 242.234375 312.328125 245.265625 Z M 362.058594 212.742188 C 365.75 212.742188 369 213.261719 371.804688 214.296875 C 374.605469 215.335938 376.007812 216.738281 376.007812 218.503906 C 376.007812 220.269531 375.335938 222.457031 373.996094 225.066406 C 372.664062 227.671875 371.542969 228.972656 370.632812 228.972656 C 370.375 228.972656 370.085938 228.835938 369.757812 228.558594 C 369.433594 228.273438 368.671875 227.96875 367.480469 227.640625 C 366.292969 227.316406 365.273438 227.152344 364.414062 227.152344 C 361.480469 227.152344 359.117188 228.191406 357.320312 230.261719 C 355.53125 232.335938 354.640625 235.511719 354.640625 239.785156 C 354.640625 244.050781 355.558594 247.21875 357.394531 249.292969 C 359.238281 251.367188 361.578125 252.402344 364.414062 252.402344 C 365.578125 252.402344 366.882812 252.238281 368.324219 251.914062 C 369.765625 251.578125 370.785156 251.109375 371.390625 250.507812 C 371.488281 250.398438 371.691406 250.34375 371.996094 250.34375 C 372.300781 250.34375 372.871094 250.917969 373.699219 252.0625 C 374.539062 253.199219 375.308594 254.6875 376.007812 256.535156 C 376.71875 258.378906 377.074219 259.808594 377.074219 260.816406 C 377.074219 262.789062 375.558594 264.359375 372.527344 265.523438 C 369.496094 266.679688 365.910156 267.257812 361.761719 267.257812 C 355.089844 267.257812 349.605469 264.90625 345.308594 260.207031 C 341.015625 255.507812 338.867188 248.875 338.867188 240.304688 C 338.867188 231.734375 341.078125 225 345.5 220.105469 C 349.925781 215.195312 355.445312 212.742188 362.058594 212.742188 Z M 385.832031 262.027344 C 382.671875 258.542969 381.09375 253.714844 381.09375 247.546875 C 381.09375 241.375 382.671875 236.546875 385.832031 233.0625 C 388.992188 229.578125 393.25 227.835938 398.613281 227.835938 C 403.972656 227.835938 408.21875 229.578125 411.347656 233.0625 C 414.480469 236.546875 416.042969 241.375 416.042969 247.546875 C 416.042969 253.714844 414.480469 258.542969 411.347656 262.027344 C 408.21875 265.515625 403.972656 267.257812 398.613281 267.257812 C 393.25 267.257812 388.992188 265.515625 385.832031 262.027344 Z M 398.640625 240.496094 C 395.789062 240.496094 394.363281 242.820312 394.363281 247.472656 C 394.363281 252.121094 395.789062 254.445312 398.640625 254.445312 C 401.503906 254.445312 402.9375 252.121094 402.9375 247.472656 C 402.9375 242.820312 401.503906 240.496094 398.640625 240.496094 Z M 437.273438 266.042969 C 437.273438 266.398438 435.457031 266.574219 431.824219 266.574219 C 426.769531 266.425781 424.242188 266.152344 424.242188 265.746094 L 424.242188 241.175781 L 422.273438 241.175781 C 420.957031 241.175781 420.101562 240.066406 419.695312 237.84375 C 419.585938 237.183594 419.53125 236.527344 419.53125 235.875 C 419.53125 234.304688 419.839844 232.734375 420.449219 231.167969 C 421.359375 228.945312 422.769531 227.835938 424.6875 227.835938 C 426.609375 227.835938 428.328125 228.289062 429.839844 229.195312 C 431.359375 230.105469 432.375 231.011719 432.890625 231.921875 C 436.070312 229.195312 439.855469 227.835938 444.25 227.835938 C 448.652344 227.835938 451.835938 229.023438 453.800781 231.402344 C 455.773438 233.773438 456.761719 237.664062 456.761719 243.074219 L 456.761719 265.820312 C 456.761719 266.421875 454.601562 266.722656 450.277344 266.722656 C 445.960938 266.722656 443.804688 266.421875 443.804688 265.820312 L 443.804688 243.902344 C 443.804688 241.375 442.921875 240.109375 441.152344 240.109375 C 440.640625 240.109375 439.929688 240.328125 439.019531 240.761719 C 438.113281 241.1875 437.53125 241.503906 437.273438 241.710938 Z M 480.652344 266.042969 C 480.652344 266.65625 478.527344 266.960938 474.285156 266.960938 C 469.230469 266.753906 466.703125 266.421875 466.703125 265.96875 L 466.703125 239.132812 L 462.835938 239.132812 C 461.820312 239.132812 461.3125 237.386719 461.3125 233.890625 C 461.3125 232.984375 461.398438 231.871094 461.578125 230.558594 C 461.753906 229.246094 462.125 228.589844 462.6875 228.589844 L 466.703125 228.589844 L 466.703125 221.910156 C 466.703125 220.902344 468.835938 220.398438 473.097656 220.398438 C 477.375 220.398438 479.511719 220.804688 479.511719 221.613281 L 479.511719 226.472656 L 479.585938 228.589844 L 486.042969 228.589844 C 486.902344 228.589844 487.332031 230.363281 487.332031 233.90625 C 487.332031 237.441406 486.902344 239.207031 486.042969 239.207031 L 480.652344 239.207031 Z M 507.726562 266.425781 C 507.726562 266.78125 505.425781 266.960938 500.824219 266.960938 C 496.222656 266.851562 493.921875 266.648438 493.921875 266.351562 L 493.921875 241.175781 L 491.878906 241.175781 C 491.070312 241.175781 490.421875 240.683594 489.941406 239.695312 C 489.457031 238.710938 489.214844 237.484375 489.214844 236.023438 C 489.214844 230.5625 490.832031 227.835938 494.070312 227.835938 C 496.34375 227.835938 498.238281 228.53125 499.757812 229.921875 C 501.277344 231.304688 502.039062 232.882812 502.039062 234.660156 C 503.09375 232.589844 504.523438 230.933594 506.320312 229.699219 C 508.117188 228.457031 509.945312 227.835938 511.8125 227.835938 C 514.746094 227.835938 516.515625 228.589844 517.128906 230.101562 C 517.277344 230.503906 517.351562 231.101562 517.351562 231.890625 C 517.351562 232.671875 517.109375 234.074219 516.625 236.097656 C 516.152344 238.121094 515.660156 239.585938 515.144531 240.496094 C 514.640625 241.40625 514.339844 241.859375 514.242188 241.859375 C 514.144531 241.859375 513.675781 241.671875 512.835938 241.296875 C 512.003906 240.910156 511.261719 240.71875 510.597656 240.71875 C 508.683594 240.71875 507.726562 242.234375 507.726562 245.265625 Z M 524.4375 262.027344 C 521.277344 258.542969 519.699219 253.714844 519.699219 247.546875 C 519.699219 241.375 521.277344 236.546875 524.4375 233.0625 C 527.597656 229.578125 531.859375 227.835938 537.21875 227.835938 C 542.578125 227.835938 546.824219 229.578125 549.953125 233.0625 C 553.085938 236.546875 554.648438 241.375 554.648438 247.546875 C 554.648438 253.714844 553.085938 258.542969 549.953125 262.027344 C 546.824219 265.515625 542.578125 267.257812 537.21875 267.257812 C 531.859375 267.257812 527.597656 265.515625 524.4375 262.027344 Z M 537.25 240.496094 C 534.394531 240.496094 532.96875 242.820312 532.96875 247.472656 C 532.96875 252.121094 534.394531 254.445312 537.25 254.445312 C 540.113281 254.445312 541.542969 252.121094 541.542969 247.472656 C 541.542969 242.820312 540.113281 240.496094 537.25 240.496094 Z M 573.835938 265.894531 C 573.835938 266.347656 571.257812 266.574219 566.105469 266.574219 C 562.058594 266.527344 560.035156 266.324219 560.035156 265.96875 L 560.035156 214.328125 C 560.035156 213.578125 562.488281 213.203125 567.394531 213.203125 C 571.6875 213.351562 573.835938 213.601562 573.835938 213.957031 Z M 573.835938 265.894531 "/>
<path style="fill-rule:evenodd;fill:rgb(100%,100%,100%);fill-opacity:1;stroke-width:2;stroke-linecap:round;stroke-linejoin:round;stroke:rgb(100%,100%,100%);stroke-opacity:1;stroke-miterlimit:10;" d="M 239.878906 194.472656 L 234.033203 196.921875 L 236.486328 191.09375 C 238.162109 187.115234 240.484375 183.632812 243.40625 180.724609 L 270.574219 153.654297 C 271.738281 152.496094 274.220703 153.091797 276.121094 154.984375 C 278.019531 156.876953 278.619141 159.349609 277.455078 160.507812 L 250.287109 187.578125 C 247.365234 190.490234 243.871094 192.806641 239.878906 194.472656 " transform="matrix(2,0,0,2,-180,-210)"/>
<path style="fill:none;stroke-width:2;stroke-linecap:round;stroke-linejoin:round;stroke:rgb(100%,100%,100%);stroke-opacity:1;stroke-miterlimit:10;" d="M 251.029297 165.345703 C 251.029297 165.345703 254.628906 168.398438 257.013672 163.21875 C 262.175781 152.007812 268.296875 155.279297 268.296875 155.279297 " transform="matrix(2,0,0,2,-180,-210)"/>
<path style="fill-rule:evenodd;fill:rgb(100%,100%,100%);fill-opacity:1;stroke-width:2;stroke-linecap:round;stroke-linejoin:round;stroke:rgb(100%,100%,100%);stroke-opacity:1;stroke-miterlimit:10;" d="M 253.21875 164.523438 C 253.21875 165.210938 252.664062 165.767578 251.976562 165.767578 C 251.287109 165.767578 250.730469 165.210938 250.730469 164.523438 C 250.730469 163.835938 251.291016 163.28125 251.976562 163.28125 C 252.666016 163.28125 253.220703 163.837891 253.220703 164.525391 Z M 253.21875 164.523438 " transform="matrix(2,0,0,2,-180,-210)"/>
<path style=" stroke:none;fill-rule:nonzero;fill:rgb(100%,100%,100%);fill-opacity:1;" d="M 333.40625 78.441406 C 326.679688 78.441406 321.226562 72.988281 321.226562 66.257812 L 321.226562 52.773438 C 321.226562 46.046875 326.679688 40.589844 333.40625 40.589844 L 346.894531 40.589844 C 353.621094 40.589844 359.074219 46.046875 359.074219 52.773438 L 359.074219 66.257812 C 359.074219 72.988281 353.621094 78.441406 346.894531 78.441406 Z M 333.40625 78.441406 "/>
<path style=" stroke:none;fill-rule:nonzero;fill:rgb(100%,100%,100%);fill-opacity:1;" d="M 284.746094 78.441406 C 278.015625 78.441406 272.5625 72.988281 272.5625 66.257812 L 272.5625 52.773438 C 272.5625 46.046875 278.015625 40.589844 284.746094 40.589844 L 298.230469 40.589844 C 304.960938 40.589844 310.414062 46.046875 310.414062 52.773438 L 310.414062 66.257812 C 310.414062 72.988281 304.960938 78.441406 298.230469 78.441406 Z M 284.746094 78.441406 "/>
<path style=" stroke:none;fill-rule:nonzero;fill:rgb(100%,100%,100%);fill-opacity:1;" d="M 236.082031 78.441406 C 229.355469 78.441406 223.902344 72.988281 223.902344 66.257812 L 223.902344 52.773438 C 223.902344 46.046875 229.355469 40.589844 236.082031 40.589844 L 249.570312 40.589844 C 256.296875 40.589844 261.75 46.046875 261.75 52.773438 L 261.75 66.257812 C 261.75 72.988281 256.296875 78.441406 249.570312 78.441406 Z M 236.082031 78.441406 "/>
<path style=" stroke:none;fill-rule:nonzero;fill:rgb(100%,100%,100%);fill-opacity:1;" d="M 236.082031 127.105469 C 229.355469 127.105469 223.902344 121.648438 223.902344 114.921875 L 223.902344 101.4375 C 223.902344 94.707031 229.355469 89.253906 236.082031 89.253906 L 249.570312 89.253906 C 256.296875 89.253906 261.75 94.707031 261.75 101.4375 L 261.75 114.921875 C 261.75 121.648438 256.296875 127.105469 249.570312 127.105469 Z M 236.082031 127.105469 "/>
<path style=" stroke:none;fill-rule:nonzero;fill:rgb(100%,100%,100%);fill-opacity:1;" d="M 236.082031 175.765625 C 229.355469 175.765625 223.902344 170.3125 223.902344 163.585938 L 223.902344 150.097656 C 223.902344 143.371094 229.355469 137.917969 236.082031 137.917969 L 249.570312 137.917969 C 256.296875 137.917969 261.75 143.371094 261.75 150.097656 L 261.75 163.585938 C 261.75 170.3125 256.296875 175.765625 249.570312 175.765625 Z M 236.082031 175.765625 "/>
<path style=" stroke:none;fill-rule:nonzero;fill:rgb(100%,100%,100%);fill-opacity:1;" d="M 284.746094 127.105469 C 278.015625 127.105469 272.5625 121.648438 272.5625 114.921875 L 272.5625 101.4375 C 272.5625 94.707031 278.015625 89.253906 284.746094 89.253906 L 298.230469 89.253906 C 304.960938 89.253906 310.414062 94.707031 310.414062 101.4375 L 310.414062 114.921875 C 310.414062 121.648438 304.960938 127.105469 298.230469 127.105469 Z M 284.746094 127.105469 "/>
</g>
</svg>
