<?xml version="1.0" encoding="UTF-8"?>
<svg xmlns="http://www.w3.org/2000/svg" xmlns:xlink="http://www.w3.org/1999/xlink" width="600px" height="300px" viewBox="0 0 600 300" version="1.1">
<defs>
<linearGradient id="linear0" gradientUnits="userSpaceOnUse" x1="239.99998" y1="104.75" x2="239.99998" y2="255.25" gradientTransform="matrix(2,0,0,1.986755,-180.10176,-208.112583)">
<stop offset="0" style="stop-color:rgb(0%,36.078431%,38.823529%);stop-opacity:1;"/>
<stop offset="1" style="stop-color:rgb(0%,50.196078%,41.176471%);stop-opacity:1;"/>
</linearGradient>
<linearGradient id="linear1" gradientUnits="userSpaceOnUse" x1="233.11502" y1="114.90385" x2="233.11502" y2="191.46013" gradientTransform="matrix(2,0,0,1.986755,-180.10176,-208.112583)">
<stop offset="0" style="stop-color:rgb(6.666667%,29.019608%,24.705882%);stop-opacity:0.678431;"/>
<stop offset="1" style="stop-color:rgb(9.019608%,28.235294%,29.019608%);stop-opacity:0.647059;"/>
</linearGradient>
<linearGradient id="linear2" gradientUnits="userSpaceOnUse" x1="168.39782" y1="105.24998" x2="168.39782" y2="159.97883" gradientTransform="matrix(2,0,0,1.986755,-180.10176,-208.112583)">
<stop offset="0" style="stop-color:rgb(6.666667%,29.019608%,24.705882%);stop-opacity:0.678431;"/>
<stop offset="1" style="stop-color:rgb(9.019608%,28.235294%,29.019608%);stop-opacity:0.647059;"/>
</linearGradient>
<linearGradient id="linear3" gradientUnits="userSpaceOnUse" x1="120.7195" y1="166.82756" x2="120.7195" y2="243.3734" gradientTransform="matrix(2,0,0,1.986755,-180.10176,-208.112583)">
<stop offset="0" style="stop-color:rgb(6.666667%,29.019608%,24.705882%);stop-opacity:0.678431;"/>
<stop offset="1" style="stop-color:rgb(9.019608%,28.235294%,29.019608%);stop-opacity:0.647059;"/>
</linearGradient>
<linearGradient id="linear4" gradientUnits="userSpaceOnUse" x1="175.39881" y1="159.93834" x2="175.39881" y2="213.28686" gradientTransform="matrix(2,0,0,1.986755,-180.10176,-208.112583)">
<stop offset="0" style="stop-color:rgb(6.666667%,29.019608%,24.705882%);stop-opacity:0.678431;"/>
<stop offset="1" style="stop-color:rgb(9.019608%,28.235294%,29.019608%);stop-opacity:0.647059;"/>
</linearGradient>
<linearGradient id="linear5" gradientUnits="userSpaceOnUse" x1="304.11577" y1="131.82756" x2="304.11577" y2="208.3734" gradientTransform="matrix(2,0,0,1.986755,-180.10176,-208.112583)">
<stop offset="0" style="stop-color:rgb(6.666667%,29.019608%,24.705882%);stop-opacity:0.678431;"/>
<stop offset="1" style="stop-color:rgb(9.019608%,28.235294%,29.019608%);stop-opacity:0.647059;"/>
</linearGradient>
<linearGradient id="linear6" gradientUnits="userSpaceOnUse" x1="361.19611" y1="164.91978" x2="361.19611" y2="255.24997" gradientTransform="matrix(2,0,0,1.986755,-180.10176,-208.112583)">
<stop offset="0" style="stop-color:rgb(6.666667%,29.019608%,24.705882%);stop-opacity:0.678431;"/>
<stop offset="1" style="stop-color:rgb(9.019608%,28.235294%,29.019608%);stop-opacity:0.647059;"/>
</linearGradient>
<linearGradient id="linear7" gradientUnits="userSpaceOnUse" x1="300.36201" y1="209.50801" x2="300.36201" y2="255.24997" gradientTransform="matrix(2,0,0,1.986755,-180.10176,-208.112583)">
<stop offset="0" style="stop-color:rgb(6.666667%,29.019608%,24.705882%);stop-opacity:0.678431;"/>
<stop offset="1" style="stop-color:rgb(9.019608%,28.235294%,29.019608%);stop-opacity:0.647059;"/>
</linearGradient>
<linearGradient id="linear8" gradientUnits="userSpaceOnUse" x1="231.65675" y1="191.47471" x2="231.65675" y2="255.25" gradientTransform="matrix(2,0,0,1.986755,-180.10176,-208.112583)">
<stop offset="0" style="stop-color:rgb(6.666667%,29.019608%,24.705882%);stop-opacity:0.678431;"/>
<stop offset="1" style="stop-color:rgb(9.019608%,28.235294%,29.019608%);stop-opacity:0.647059;"/>
</linearGradient>
<linearGradient id="linear9" gradientUnits="userSpaceOnUse" x1="114.05776" y1="112.85261" x2="114.05776" y2="164.27969" gradientTransform="matrix(2,0,0,1.986755,-180.10176,-208.112583)">
<stop offset="0" style="stop-color:rgb(6.666667%,29.019608%,24.705882%);stop-opacity:0.678431;"/>
<stop offset="1" style="stop-color:rgb(9.019608%,28.235294%,29.019608%);stop-opacity:0.647059;"/>
</linearGradient>
<linearGradient id="linear10" gradientUnits="userSpaceOnUse" x1="344.61582" y1="105.25" x2="344.61582" y2="144.58903" gradientTransform="matrix(2,0,0,1.986755,-180.10176,-208.112583)">
<stop offset="0" style="stop-color:rgb(6.666667%,29.019608%,24.705882%);stop-opacity:0.678431;"/>
<stop offset="1" style="stop-color:rgb(9.019608%,28.235294%,29.019608%);stop-opacity:0.647059;"/>
</linearGradient>
</defs>
<g id="surface1">
<path style=" stroke:none;fill-rule:nonzero;fill:url(#linear0);" d="M 0 299.007812 L 0 0 L 599.796875 0 L 599.796875 299.007812 Z M 0 299.007812 "/>
<path style=" stroke:none;fill-rule:nonzero;fill:url(#linear1);" d="M 209.570312 103.007812 L 209.570312 89.359375 C 209.570312 84.78125 213.359375 81.183594 217.964844 81.183594 L 226.085938 81.183594 C 227.59375 75.347656 229.949219 69.839844 233.011719 64.832031 L 227.183594 58.976562 C 225.613281 57.40625 224.738281 55.324219 224.738281 53.109375 C 224.746094 50.894531 225.609375 48.808594 227.183594 47.246094 L 236.910156 37.597656 C 238.484375 36.035156 240.585938 35.171875 242.816406 35.171875 C 245.050781 35.171875 247.152344 36.03125 248.730469 37.601562 L 254.78125 43.597656 C 259.769531 40.710938 265.113281 38.484375 270.996094 37.054688 L 270.996094 28.4375 C 270.996094 23.863281 274.679688 20.171875 279.285156 20.171875 L 293.03125 20.171875 C 297.640625 20.171875 301.261719 23.863281 301.261719 28.4375 L 301.261719 37.054688 C 307.144531 38.484375 312.519531 40.710938 317.507812 43.597656 L 323.613281 37.589844 C 325.191406 36.027344 327.289062 35.164062 329.519531 35.164062 C 331.746094 35.164062 333.84375 36.023438 335.421875 37.589844 L 345.144531 47.246094 C 346.722656 48.8125 347.589844 50.90625 347.589844 53.121094 C 347.589844 55.339844 346.722656 57.433594 345.144531 59 L 339.3125 64.832031 C 342.375 69.835938 344.730469 75.34375 346.234375 81.183594 L 354.355469 81.183594 C 358.964844 81.183594 362.683594 84.78125 362.683594 89.359375 L 362.683594 103.007812 C 362.683594 107.574219 358.964844 111.253906 354.355469 111.253906 L 346.234375 111.253906 C 344.730469 117.097656 342.371094 122.566406 339.304688 127.574219 L 345.140625 133.398438 C 346.71875 134.960938 347.582031 137.046875 347.582031 139.257812 C 347.582031 141.441406 346.691406 143.582031 345.132812 145.125 L 335.414062 154.777344 C 332.253906 157.90625 326.738281 157.910156 323.585938 154.773438 L 317.507812 148.769531 C 312.519531 151.65625 307.144531 153.882812 301.261719 155.308594 L 301.261719 163.933594 C 301.261719 168.511719 297.640625 172.273438 293.03125 172.273438 L 279.285156 172.273438 C 274.679688 172.273438 270.996094 168.511719 270.996094 163.933594 L 270.996094 155.304688 C 265.113281 153.875 259.769531 151.652344 254.789062 148.769531 L 248.707031 154.773438 C 245.566406 157.902344 240.054688 157.90625 236.898438 154.769531 L 227.175781 145.117188 C 225.605469 143.558594 224.734375 141.464844 224.734375 139.253906 C 224.734375 137.035156 225.597656 134.949219 227.175781 133.382812 L 233.007812 127.574219 C 229.9375 122.566406 227.582031 117.097656 226.074219 111.253906 L 217.957031 111.253906 C 213.351562 111.253906 209.570312 107.574219 209.570312 103.007812 Z M 259.746094 96.183594 C 259.746094 110.535156 271.578125 122.15625 286.160156 122.15625 C 300.742188 122.15625 312.566406 110.535156 312.566406 96.183594 C 312.566406 81.839844 300.742188 70.203125 286.160156 70.203125 C 271.578125 70.203125 259.75 81.835938 259.746094 96.183594 Z M 259.746094 96.183594 "/>
<path style=" stroke:none;fill-rule:nonzero;fill:url(#linear2);" d="M 183.730469 5.421875 C 187.738281 7.972656 191.386719 11.03125 194.652344 14.78125 L 201.015625 11.546875 C 204.394531 9.828125 208.503906 11.125 210.230469 14.480469 L 215.394531 24.5 C 217.125 27.855469 215.761719 31.882812 212.382812 33.601562 L 206.019531 36.835938 C 207.171875 41.660156 207.546875 46.414062 207.289062 51.136719 L 214.019531 53.328125 C 215.765625 53.890625 217.191406 55.097656 218.027344 56.71875 C 218.863281 58.34375 219.015625 60.195312 218.453125 61.933594 L 214.972656 72.648438 C 214.410156 74.382812 213.1875 75.804688 211.550781 76.636719 C 209.914062 77.46875 208.042969 77.625 206.292969 77.0625 L 199.796875 75 C 197.25 79.113281 194.066406 82.894531 190.316406 86.1875 L 193.367188 92.105469 C 195.097656 95.464844 193.839844 99.527344 190.457031 101.246094 L 180.378906 106.371094 C 177.007812 108.085938 172.894531 106.757812 171.160156 103.398438 L 168.113281 97.480469 C 163.230469 98.578125 158.304688 98.914062 153.457031 98.558594 L 151.347656 104.996094 C 150.785156 106.734375 149.566406 108.148438 147.933594 108.976562 C 146.320312 109.796875 144.410156 109.953125 142.683594 109.398438 L 131.90625 105.9375 C 128.40625 104.8125 126.332031 100.792969 127.464844 97.320312 L 129.617188 90.632812 C 125.609375 88.082031 121.945312 85 118.683594 81.25 L 112.316406 84.488281 C 108.9375 86.207031 104.796875 84.980469 103.066406 81.625 L 97.902344 71.605469 C 96.171875 68.246094 97.570312 64.152344 100.949219 62.433594 L 107.320312 59.191406 C 106.167969 54.367188 105.800781 49.640625 106.0625 44.925781 L 99.34375 42.746094 C 95.851562 41.632812 93.777344 37.617188 94.910156 34.140625 L 98.386719 23.429688 C 98.949219 21.699219 100.167969 20.277344 101.800781 19.445312 C 103.4375 18.613281 105.304688 18.460938 107.050781 19.023438 L 113.535156 21.09375 C 116.078125 16.972656 119.234375 13.203125 122.984375 9.910156 L 119.933594 3.992188 C 119.441406 3.03125 119.191406 2.007812 119.171875 0.992188 L 185.164062 0.992188 Z M 146.757812 28.789062 C 136.160156 34.179688 132.023438 47.164062 137.5 57.792969 C 142.976562 68.421875 155.996094 72.671875 166.597656 67.28125 C 177.1875 61.894531 181.34375 48.910156 175.867188 38.28125 C 170.386719 27.652344 157.355469 23.402344 146.757812 28.789062 Z M 146.757812 28.789062 "/>
<path style=" stroke:none;fill-rule:nonzero;fill:url(#linear3);" d="M 95.492188 140.800781 L 105.195312 150.460938 C 108.453125 153.703125 108.328125 158.90625 105.070312 162.136719 L 99.320312 167.835938 C 102.402344 173.023438 104.652344 178.574219 106.046875 184.269531 L 114.335938 184.328125 C 116.5625 184.335938 118.660156 185.195312 120.234375 186.765625 C 121.804688 188.335938 122.679688 190.417969 122.675781 192.628906 L 122.652344 206.285156 C 122.648438 208.496094 121.773438 210.582031 120.195312 212.148438 C 118.613281 213.714844 116.515625 214.578125 114.28125 214.574219 L 105.734375 214.578125 C 104.253906 220.121094 102.054688 225.445312 98.90625 230.585938 L 105.035156 236.6875 C 108.285156 239.925781 108.304688 245.117188 105.042969 248.351562 L 95.3125 257.996094 C 92.050781 261.230469 86.863281 261.160156 83.609375 257.921875 L 77.484375 251.824219 C 72.300781 254.9375 66.914062 257.132812 61.328125 258.589844 L 61.28125 267.125 C 61.273438 269.339844 60.402344 271.421875 58.824219 272.988281 C 57.246094 274.550781 55.152344 275.410156 52.921875 275.410156 L 39.171875 275.398438 C 36.945312 275.394531 34.839844 274.523438 33.261719 272.953125 C 31.6875 271.386719 30.8125 269.292969 30.816406 267.078125 L 30.796875 258.855469 C 25.070312 257.460938 19.488281 255.21875 14.269531 252.136719 L 8.519531 257.835938 C 6.195312 260.140625 2.886719 260.835938 0 259.871094 L 0 138.75 C 2.9375 137.742188 6.34375 138.433594 8.691406 140.769531 L 14.824219 146.878906 C 20.007812 143.761719 25.371094 141.585938 30.949219 140.132812 L 30.984375 131.613281 C 30.980469 127.195312 34.882812 123.324219 39.34375 123.332031 L 53.089844 123.339844 C 55.3125 123.34375 57.414062 124.214844 58.988281 125.78125 C 60.566406 127.347656 61.4375 129.433594 61.433594 131.648438 L 61.433594 139.855469 C 67.167969 141.242188 72.726562 143.464844 77.949219 146.542969 L 83.695312 140.847656 C 86.953125 137.617188 92.25 137.566406 95.492188 140.800781 Z M 64.828125 180.835938 C 54.625 170.675781 37.988281 170.753906 27.664062 180.984375 C 17.339844 191.214844 17.234375 207.738281 27.4375 217.898438 C 37.636719 228.050781 54.28125 227.992188 64.601562 217.761719 C 74.925781 207.527344 75.027344 190.992188 64.828125 180.835938 Z M 64.828125 180.835938 "/>
<path style=" stroke:none;fill-rule:nonzero;fill:url(#linear4);" d="M 214.375 193.101562 L 208.222656 200.339844 C 206.15625 202.765625 202.527344 202.988281 200.085938 200.9375 L 195.78125 197.324219 C 192.347656 199.746094 188.617188 201.621094 184.734375 202.910156 L 185.183594 208.609375 C 185.308594 210.140625 184.832031 211.632812 183.835938 212.808594 C 182.832031 213.976562 181.433594 214.699219 179.894531 214.828125 L 170.386719 215.617188 C 168.847656 215.742188 167.34375 215.265625 166.160156 214.273438 C 164.976562 213.277344 164.253906 211.886719 164.125 210.351562 L 163.621094 204.480469 C 159.671875 203.792969 155.835938 202.59375 152.074219 200.734375 L 148.1875 205.304688 C 146.125 207.726562 142.507812 208.046875 140.066406 205.996094 L 132.777344 199.878906 C 130.335938 197.828125 130.078125 194.261719 132.140625 191.835938 L 136.027344 187.269531 C 133.554688 183.890625 131.707031 180.320312 130.367188 176.570312 L 124.417969 177.039062 C 122.878906 177.164062 121.375 176.6875 120.195312 175.695312 C 119.015625 174.707031 118.292969 173.316406 118.160156 171.785156 L 117.359375 162.339844 C 117.230469 160.808594 117.714844 159.308594 118.714844 158.136719 C 119.710938 156.960938 121.117188 156.234375 122.660156 156.109375 L 128.382812 155.613281 C 129.015625 151.59375 130.25 147.628906 132.085938 143.863281 L 127.78125 140.25 C 125.335938 138.199219 124.988281 134.636719 127.050781 132.207031 L 133.207031 124.972656 C 135.265625 122.550781 138.894531 122.257812 141.339844 124.308594 L 145.644531 127.921875 C 149.078125 125.496094 152.792969 123.640625 156.675781 122.355469 L 156.210938 116.671875 C 156.078125 115.136719 156.5625 113.648438 157.558594 112.476562 C 158.542969 111.320312 159.980469 110.582031 161.503906 110.457031 L 171.007812 109.664062 C 174.09375 109.410156 177.019531 111.863281 177.273438 114.929688 L 177.789062 120.816406 C 181.734375 121.503906 185.589844 122.714844 189.351562 124.578125 L 193.242188 120.003906 C 195.304688 117.578125 198.921875 117.199219 201.363281 119.246094 L 208.652344 125.363281 C 211.09375 127.414062 211.347656 131.046875 209.285156 133.472656 L 205.394531 138.046875 C 207.871094 141.421875 209.699219 144.976562 211.039062 148.726562 L 216.972656 148.246094 C 220.046875 147.984375 222.972656 150.4375 223.230469 153.503906 L 224.03125 162.945312 C 224.160156 164.472656 223.679688 165.96875 222.683594 167.140625 C 221.683594 168.316406 220.28125 169.039062 218.742188 169.167969 L 213.027344 169.652344 C 212.398438 173.671875 211.179688 177.621094 209.34375 181.390625 L 213.648438 185 C 216.089844 187.050781 216.4375 190.683594 214.375 193.101562 Z M 184.699219 174.394531 C 191.171875 166.785156 190.136719 155.363281 182.40625 148.875 C 174.675781 142.386719 163.167969 143.285156 156.699219 150.890625 C 150.230469 158.496094 151.25 169.925781 158.980469 176.414062 C 166.710938 182.902344 178.226562 182 184.699219 174.394531 Z M 184.699219 174.394531 "/>
<path style=" stroke:none;fill-rule:nonzero;fill:url(#linear5);" d="M 477.492188 71.261719 L 487.195312 80.925781 C 490.453125 84.164062 490.328125 89.367188 487.070312 92.601562 L 481.320312 98.296875 C 484.402344 103.488281 486.652344 109.039062 488.046875 114.734375 L 496.335938 114.789062 C 498.5625 114.796875 500.660156 115.660156 502.238281 117.226562 C 503.804688 118.800781 504.679688 120.882812 504.675781 123.09375 L 504.652344 136.75 C 504.648438 138.960938 503.773438 141.046875 502.195312 142.609375 C 500.613281 144.179688 498.515625 145.042969 496.28125 145.039062 L 487.734375 145.039062 C 486.253906 150.585938 484.054688 155.90625 480.90625 161.046875 L 487.035156 167.148438 C 490.285156 170.386719 490.304688 175.582031 487.042969 178.8125 L 477.3125 188.460938 C 474.050781 191.691406 468.863281 191.625 465.609375 188.386719 L 459.484375 182.285156 C 454.300781 185.398438 448.914062 187.597656 443.328125 189.054688 L 443.28125 197.589844 C 443.273438 199.804688 442.402344 201.886719 440.824219 203.449219 C 439.246094 205.011719 437.152344 205.875 434.921875 205.875 L 421.171875 205.863281 C 418.945312 205.859375 416.839844 204.988281 415.261719 203.417969 C 413.6875 201.847656 412.8125 199.757812 412.816406 197.542969 L 412.796875 189.320312 C 407.070312 187.925781 401.488281 185.679688 396.269531 182.601562 L 390.519531 188.296875 C 387.257812 191.53125 382.066406 191.597656 378.8125 188.355469 L 369.109375 178.695312 C 365.859375 175.464844 365.878906 170.25 369.140625 167.015625 L 374.890625 161.316406 C 371.800781 156.125 369.578125 150.597656 368.191406 144.902344 L 359.921875 144.871094 C 357.691406 144.871094 355.597656 144.003906 354.023438 142.4375 C 352.46875 140.890625 351.582031 138.753906 351.585938 136.566406 L 351.601562 122.914062 C 351.613281 118.480469 355.515625 114.609375 359.976562 114.617188 L 368.550781 114.605469 C 370.027344 109.058594 372.25 103.710938 375.398438 98.574219 L 369.265625 92.46875 C 366.011719 89.230469 365.902344 84.023438 369.164062 80.792969 L 378.894531 71.148438 C 382.15625 67.914062 387.4375 67.996094 390.691406 71.234375 L 396.824219 77.34375 C 402.007812 74.226562 407.371094 72.050781 412.949219 70.597656 L 412.984375 62.078125 C 412.980469 57.660156 416.882812 53.789062 421.34375 53.796875 L 435.089844 53.804688 C 437.3125 53.808594 439.414062 54.675781 440.988281 56.242188 C 442.566406 57.8125 443.4375 59.898438 443.433594 62.113281 L 443.433594 70.320312 C 449.167969 71.707031 454.726562 73.929688 459.949219 77.007812 L 465.695312 71.3125 C 468.953125 68.078125 474.25 68.027344 477.492188 71.261719 Z M 446.828125 111.300781 C 436.625 101.140625 419.988281 101.214844 409.664062 111.449219 C 399.339844 121.679688 399.234375 138.203125 409.4375 148.359375 C 419.636719 158.515625 436.28125 158.453125 446.601562 148.222656 C 456.925781 137.992188 457.027344 121.457031 446.828125 111.300781 Z M 446.828125 111.300781 "/>
<path style=" stroke:none;fill-rule:nonzero;fill:url(#linear6);" d="M 587.296875 299.007812 C 582.09375 299.007812 570.421875 299.007812 570.421875 299.007812 C 563.945312 297.796875 557.847656 295.832031 552.039062 293.21875 L 547.25 299.007812 L 523.863281 299.007812 L 515.351562 292.125 C 513.078125 290.285156 511.65625 287.660156 511.355469 284.757812 C 511.054688 281.855469 511.90625 278.996094 513.761719 276.734375 L 520.617188 268.316406 C 515.925781 262.171875 512.097656 255.273438 509.335938 247.824219 L 498.703125 248.90625 C 492.664062 249.523438 487.308594 245.308594 486.6875 239.3125 L 484.84375 221.4375 C 484.226562 215.457031 488.601562 210.144531 494.636719 209.527344 L 505.269531 208.445312 C 506.453125 200.59375 508.800781 193.109375 512.140625 186.144531 L 503.710938 179.296875 C 501.433594 177.460938 500.019531 174.84375 499.722656 171.945312 C 499.425781 169.085938 500.300781 166.167969 502.136719 163.9375 L 513.558594 150 C 517.273438 145.480469 524.496094 144.742188 529.046875 148.425781 L 537.820312 155.480469 C 543.964844 151.03125 550.703125 147.398438 558.210938 144.746094 L 557.046875 133.449219 C 556.425781 127.457031 560.664062 122.046875 566.695312 121.433594 L 584.703125 119.597656 C 590.734375 118.984375 596.0625 123.421875 596.683594 129.414062 L 597.847656 140.714844 C 598.503906 140.804688 599.152344 140.902344 599.796875 141.003906 L 599.796875 188.75 C 594.519531 186.507812 588.601562 185.527344 582.472656 186.152344 C 563.375 188.097656 549.460938 204.894531 551.402344 223.691406 C 553.34375 242.472656 570.398438 256.136719 589.496094 254.1875 C 593.144531 253.816406 596.601562 252.902344 599.796875 251.539062 C 599.796875 251.539062 599.796875 280.125 599.796875 288.675781 C 599.796875 293.183594 591.777344 299.007812 587.296875 299.007812 Z M 587.296875 299.007812 "/>
<path style=" stroke:none;fill-rule:nonzero;fill:url(#linear7);" d="M 477.667969 293.214844 L 474.511719 299.007812 L 381.351562 299.007812 C 380.136719 297.460938 379.023438 295.859375 378.003906 294.195312 L 371.34375 296.132812 C 369.617188 296.636719 367.792969 296.449219 366.210938 295.597656 C 364.628906 294.75 363.472656 293.335938 362.957031 291.621094 L 359.785156 281.050781 C 359.273438 279.335938 359.464844 277.515625 360.324219 275.941406 C 361.179688 274.367188 362.605469 273.210938 364.332031 272.703125 L 370.734375 270.785156 C 370.496094 266.0625 370.953125 261.25 372.148438 256.527344 L 366.378906 253.425781 C 363.105469 251.664062 361.855469 247.6875 363.625 244.4375 L 368.90625 234.742188 C 370.675781 231.5 374.742188 230.308594 378.015625 232.066406 L 383.78125 235.167969 C 387.113281 231.59375 390.90625 228.605469 395.023438 226.222656 L 393.128906 219.855469 C 392.613281 218.144531 392.808594 216.332031 393.664062 214.761719 C 394.511719 213.210938 395.96875 212.03125 397.675781 211.527344 L 408.3125 208.386719 C 411.769531 207.367188 415.6875 209.472656 416.710938 212.902344 L 418.707031 219.492188 C 423.367188 219.34375 428.046875 219.816406 432.777344 221.046875 L 436.113281 214.921875 C 437.886719 211.671875 441.914062 210.382812 445.1875 212.144531 L 454.953125 217.394531 C 458.226562 219.152344 459.382812 223.230469 457.613281 226.480469 L 454.273438 232.609375 C 457.902344 235.871094 460.835938 239.492188 463.257812 243.441406 L 469.902344 241.5 C 473.34375 240.476562 477.261719 242.578125 478.285156 246.011719 L 481.460938 256.582031 C 481.96875 258.289062 481.78125 260.109375 480.925781 261.679688 C 480.066406 263.253906 478.644531 264.40625 476.917969 264.917969 L 470.523438 266.816406 C 470.769531 271.542969 470.324219 276.328125 469.132812 281.054688 L 474.898438 284.15625 C 478.171875 285.914062 479.4375 289.972656 477.667969 293.214844 Z M 439.382812 278.902344 C 444.9375 268.707031 441.03125 255.9375 430.671875 250.367188 C 420.316406 244.796875 407.421875 248.535156 401.867188 258.730469 C 396.316406 268.917969 400.210938 281.699219 410.566406 287.265625 C 420.929688 292.835938 433.832031 289.089844 439.382812 278.902344 Z M 439.382812 278.902344 "/>
<path style=" stroke:none;fill-rule:nonzero;fill:url(#linear8);" d="M 247.128906 296.050781 C 242.457031 292.652344 238.257812 288.664062 234.582031 283.859375 L 226.601562 287.3125 C 222.367188 289.144531 217.480469 287.257812 215.636719 283.050781 L 210.128906 270.496094 C 208.285156 266.289062 210.25 261.5 214.484375 259.667969 L 222.457031 256.21875 C 221.429688 250.273438 221.335938 244.472656 222.011719 238.761719 L 214.003906 235.589844 C 211.925781 234.773438 210.289062 233.203125 209.394531 231.167969 C 208.503906 229.132812 208.460938 226.875 209.277344 224.804688 L 214.320312 212.054688 C 215.136719 209.992188 216.730469 208.359375 218.78125 207.472656 C 220.832031 206.582031 223.117188 206.535156 225.199219 207.351562 L 232.933594 210.34375 C 236.339844 205.542969 240.492188 201.1875 245.296875 197.472656 L 242.046875 190.054688 C 240.199219 185.84375 242.039062 181.007812 246.277344 179.175781 L 258.910156 173.710938 C 263.136719 171.878906 268.03125 173.804688 269.875 178.015625 L 273.128906 185.433594 C 279.136719 184.46875 285.148438 184.429688 291.007812 185.226562 L 294.0625 177.566406 C 294.878906 175.496094 296.460938 173.875 298.511719 172.988281 C 300.53125 172.113281 302.867188 172.070312 304.917969 172.875 L 317.742188 177.886719 C 321.90625 179.519531 324.117188 184.558594 322.476562 188.691406 L 319.351562 196.648438 C 324.023438 200.046875 328.238281 204.066406 331.914062 208.867188 L 339.894531 205.414062 C 344.128906 203.582031 349.0625 205.382812 350.90625 209.589844 L 356.414062 222.148438 C 358.257812 226.355469 356.25 231.222656 352.015625 233.054688 L 344.027344 236.511719 C 345.0625 242.457031 345.144531 248.226562 344.46875 253.933594 L 352.460938 257.082031 C 356.617188 258.699219 358.824219 263.730469 357.1875 267.867188 L 352.148438 280.617188 C 351.332031 282.671875 349.746094 284.308594 347.695312 285.195312 C 345.644531 286.082031 343.363281 286.125 341.285156 285.316406 L 333.570312 282.3125 C 330.167969 287.121094 326.046875 291.460938 321.242188 295.179688 L 322.921875 299.007812 L 245.964844 299.007812 Z M 293.8125 270.460938 C 307.09375 264.714844 313.113281 249.253906 307.273438 235.933594 C 301.433594 222.617188 285.945312 216.46875 272.660156 222.21875 C 259.386719 227.960938 253.351562 243.417969 259.1875 256.738281 C 265.027344 270.058594 280.53125 276.203125 293.8125 270.460938 Z M 293.8125 270.460938 "/>
<path style=" stroke:none;fill-rule:nonzero;fill:url(#linear9);" d="M 69.675781 113.996094 L 60.890625 117.675781 C 57.941406 118.910156 54.605469 117.472656 53.363281 114.546875 L 51.171875 109.390625 C 47.007812 110.003906 42.828125 109.996094 38.777344 109.398438 L 36.578125 114.683594 C 35.992188 116.105469 34.890625 117.21875 33.460938 117.816406 C 32.035156 118.410156 30.460938 118.425781 29.027344 117.84375 L 20.195312 114.269531 C 18.761719 113.691406 17.640625 112.589844 17.039062 111.171875 C 16.4375 109.75 16.425781 108.1875 17.011719 106.757812 L 19.238281 101.296875 C 16.03125 98.90625 13.160156 96.113281 10.652344 92.761719 L 5.105469 95.085938 C 3.375 95.808594 1.503906 95.644531 0 94.796875 L 0 74.578125 L 2.488281 73.535156 C 1.824219 69.414062 1.804688 65.398438 2.320312 61.449219 L 0 60.5 L 0 39.925781 C 0.109375 39.871094 0.222656 39.820312 0.339844 39.773438 C 1.765625 39.175781 3.347656 39.160156 4.78125 39.738281 L 10.109375 41.875 C 12.503906 38.578125 15.414062 35.597656 18.769531 33.066406 L 16.578125 27.90625 C 15.335938 24.976562 16.648438 21.644531 19.597656 20.410156 L 28.382812 16.730469 C 31.320312 15.496094 34.691406 16.867188 35.9375 19.796875 L 38.125 24.957031 C 42.292969 24.335938 46.453125 24.359375 50.5 24.957031 L 52.675781 19.679688 C 53.257812 18.253906 54.367188 17.144531 55.792969 16.546875 C 57.199219 15.957031 58.8125 15.945312 60.230469 16.519531 L 69.0625 20.089844 C 71.929688 21.253906 73.417969 24.757812 72.25 27.605469 L 70.023438 33.085938 C 73.226562 35.476562 76.113281 38.289062 78.617188 41.644531 L 84.167969 39.316406 C 87.113281 38.082031 90.511719 39.371094 91.753906 42.296875 L 95.464844 51.03125 C 96.707031 53.957031 95.277344 57.308594 92.332031 58.542969 L 86.777344 60.871094 C 87.441406 64.992188 87.453125 68.988281 86.9375 72.929688 L 92.445312 75.171875 C 95.308594 76.324219 96.796875 79.824219 95.628906 82.675781 L 92.039062 91.457031 C 91.457031 92.875 90.34375 93.992188 88.917969 94.589844 C 87.492188 95.1875 85.914062 95.199219 84.484375 94.621094 L 79.167969 92.480469 C 76.773438 95.78125 73.886719 98.753906 70.53125 101.289062 L 72.722656 106.445312 C 73.964844 109.371094 72.617188 112.765625 69.675781 113.996094 Z M 51.75 83.960938 C 60.988281 80.089844 65.277344 69.441406 61.34375 60.175781 C 57.414062 50.914062 46.742188 46.539062 37.503906 50.40625 C 28.273438 54.277344 23.96875 64.925781 27.902344 74.1875 C 31.835938 83.453125 42.515625 87.828125 51.75 83.960938 Z M 51.75 83.960938 "/>
<path style=" stroke:none;fill-rule:nonzero;fill:url(#linear10);" d="M 590.761719 12.597656 L 599.183594 19.488281 C 599.394531 19.660156 599.601562 19.839844 599.796875 20.023438 L 599.796875 36.039062 L 589.339844 48.785156 C 587.488281 51.042969 584.851562 52.453125 581.929688 52.75 C 579.003906 53.050781 576.136719 52.203125 573.859375 50.355469 L 565.121094 43.3125 C 558.976562 47.761719 552.28125 51.382812 544.769531 54.042969 L 545.933594 65.328125 C 546.550781 71.320312 542.230469 76.644531 536.199219 77.257812 L 518.191406 79.09375 C 512.160156 79.707031 506.917969 75.359375 506.296875 69.367188 L 505.132812 58.082031 C 497.234375 56.992188 489.894531 54.796875 482.96875 51.679688 L 475.789062 60.363281 C 473.929688 62.621094 471.300781 64.03125 468.382812 64.328125 C 465.464844 64.625 462.605469 63.777344 460.324219 61.9375 L 446.28125 50.589844 C 444.007812 48.75 442.585938 46.121094 442.285156 43.21875 C 441.988281 40.316406 442.835938 37.457031 444.695312 35.199219 L 451.546875 26.78125 C 446.855469 20.632812 443.027344 13.738281 440.265625 6.285156 L 429.632812 7.371094 C 424.75 7.867188 420.308594 5.203125 418.464844 0.992188 L 490.570312 0.992188 C 497.730469 9.152344 508.691406 13.847656 520.425781 12.652344 C 529.597656 11.71875 537.574219 7.355469 543.175781 0.992188 C 543.175781 0.992188 572.777344 0.992188 582.296875 0.992188 C 587.769531 0.992188 592.539062 8.878906 590.761719 12.597656 Z M 590.761719 12.597656 "/>
<path style="fill:none;stroke-width:9.5;stroke-linecap:round;stroke-linejoin:miter;stroke:rgb(0%,0%,0%);stroke-opacity:0.513725;stroke-miterlimit:10;" d="M 324.30088 135.449401 C 324.30088 135.449401 310.55088 129.212786 300.154396 146.642669 C 289.757911 164.072552 314.824318 184.852747 290.30088 191.449167 C 273.597755 195.943776 234.000099 164.249505 234.000099 164.249505 L 222.232521 163.643932 C 222.232521 163.643932 209.658302 199.219375 190.587989 191.618255 C 171.517677 184.019102 182.470802 150.077526 176.423927 141.121732 C 170.377052 132.167904 150.30088 133.449831 150.30088 133.449831 " transform="matrix(2,0,0,1.986755,-180.10176,-208.112583)"/>
<path style="fill:none;stroke-width:3.5;stroke-linecap:round;stroke-linejoin:miter;stroke:rgb(100%,100%,100%);stroke-opacity:1;stroke-miterlimit:10;" d="M 324.30088 135.449401 C 324.30088 135.449401 310.55088 129.212786 300.154396 146.642669 C 289.757911 164.072552 315.002052 185.556628 290.30088 191.449167 C 273.763771 195.395221 235.267677 166.133073 235.267677 166.133073 L 220.30088 166.449622 C 220.30088 166.449622 209.685646 199.146628 190.587989 191.618255 C 171.48838 184.089883 182.470802 150.077526 176.423927 141.121732 C 170.377052 132.167904 150.30088 133.449831 150.30088 133.449831 " transform="matrix(2,0,0,1.986755,-180.10176,-208.112583)"/>
<path style="fill:none;stroke-width:7.5;stroke-linecap:square;stroke-linejoin:miter;stroke:rgb(0%,0%,0%);stroke-opacity:0.505882;stroke-miterlimit:10;" d="M 120.558693 224.415534 C 121.084083 224.834323 121.992286 225.402539 123.281349 226.122148 C 124.576271 226.843724 125.810646 227.203529 126.986427 227.203529 C 128.168068 227.203529 128.759864 226.745417 128.759864 225.831159 C 128.759864 225.41237 128.591896 225.044701 128.255958 224.726185 C 127.923927 224.405703 127.314552 224.04 126.42588 223.629076 C 125.537208 223.210286 124.871193 222.885872 124.427833 222.651901 C 123.982521 222.413997 123.392677 222.024701 122.656349 221.482044 C 121.923927 220.941354 121.36338 220.37707 120.972755 219.791159 C 119.867286 218.216276 119.314552 216.204909 119.314552 213.76099 C 119.314552 211.319036 120.222755 209.258516 122.037208 207.585326 C 123.853614 205.906237 126.230568 205.066693 129.173927 205.066693 C 131.171974 205.066693 133.017677 205.282969 134.70713 205.715521 C 136.398536 206.144141 137.271583 206.704492 137.324318 207.398542 C 137.324318 207.479154 137.324318 207.561732 137.324318 207.642344 C 137.324318 208.617552 137.01963 209.846393 136.406349 211.332799 C 135.798927 212.811341 135.371193 213.635156 135.123146 213.802279 C 133.345802 212.886055 131.755958 212.429909 130.351661 212.429909 C 128.953224 212.429909 128.255958 212.927344 128.255958 213.92418 C 128.255958 214.535651 128.76963 215.078307 129.798927 215.550182 C 130.021583 215.664219 130.337989 215.817578 130.750099 216.012227 C 131.168068 216.202943 131.646583 216.431016 132.187599 216.696445 C 132.730568 216.961875 133.312599 217.294154 133.935646 217.695247 C 134.558693 218.096341 135.234474 218.629167 135.959083 219.29569 C 137.427833 220.683789 138.162208 222.514271 138.162208 224.791068 C 138.162208 227.759948 137.343849 230.186172 135.70713 232.071706 C 134.070411 233.95724 131.546974 234.926549 128.132911 234.981602 C 126.468849 234.981602 124.962989 234.843971 123.615333 234.566745 C 122.271583 234.291484 121.097755 233.750794 120.095802 232.950573 C 119.097755 232.142487 118.599708 231.169245 118.599708 230.032812 C 118.599708 228.894414 118.808693 227.76388 119.226661 226.643177 C 119.642677 225.516576 120.087989 224.773372 120.558693 224.415534 Z M 148.187599 224.246445 C 148.187599 226.965625 149.214943 228.326198 151.267677 228.326198 C 152.601661 228.326198 153.712989 228.062734 154.601661 227.537773 C 155.011818 227.537773 155.351661 228.251484 155.617286 229.682839 C 155.882911 231.108294 156.015724 232.077604 156.015724 232.592734 C 156.015724 233.107865 155.943458 233.446042 155.802833 233.607266 C 154.336036 234.52349 152.324318 234.981602 149.773536 234.981602 C 147.220802 234.981602 145.048927 234.033919 143.255958 232.136589 C 141.466896 230.235326 140.574318 227.640013 140.574318 224.350651 C 140.574318 221.063255 141.453224 218.406992 143.214943 216.38776 C 144.974708 214.360664 147.318458 213.348099 150.244239 213.348099 C 153.17588 213.348099 155.211036 214.053945 156.347755 215.467604 C 156.597755 215.772357 156.722755 216.220638 156.722755 216.818346 C 156.722755 217.414089 156.611427 218.141562 156.388771 219.004701 C 155.890724 220.78013 155.236427 221.808424 154.429786 222.083685 C 154.322364 222.111211 154.162208 222.124974 153.951271 222.124974 C 153.744239 222.124974 153.486427 221.959818 153.177833 221.629505 C 152.099708 220.546159 151.232521 220.003503 150.578224 220.003503 C 149.927833 220.003503 149.367286 220.335781 148.89463 221.002305 C 148.423927 221.668828 148.187599 222.750208 148.187599 224.246445 Z M 168.123146 234.527422 C 168.123146 234.72207 166.861427 234.818411 164.336036 234.818411 C 161.810646 234.759427 160.548927 234.649323 160.548927 234.486133 L 160.548927 220.670026 L 159.427833 220.670026 C 158.982521 220.670026 158.629005 220.398698 158.36338 219.858008 C 158.097755 219.315352 157.964943 218.64293 157.964943 217.840742 C 157.964943 214.846302 158.853614 213.348099 160.630958 213.348099 C 161.877052 213.348099 162.916114 213.729531 163.750099 214.492396 C 164.586036 215.251328 165.002052 216.118398 165.002052 217.093607 C 165.58213 215.955208 166.365333 215.048815 167.351661 214.370495 C 168.337989 213.688242 169.341896 213.348099 170.365333 213.348099 C 171.974708 213.348099 172.947364 213.76099 173.283302 214.590703 C 173.365333 214.812878 173.406349 215.141224 173.406349 215.573776 C 173.406349 216.002396 173.273536 216.771159 173.007911 217.882031 C 172.748146 218.992904 172.476661 219.797057 172.195411 220.296458 C 171.918068 220.793893 171.754005 221.043594 171.699318 221.043594 C 171.64463 221.043594 171.386818 220.941354 170.927833 220.734909 C 170.472755 220.524531 170.062599 220.418359 169.699318 220.418359 C 168.648536 220.418359 168.123146 221.250039 168.123146 222.913398 Z M 183.097755 234.315078 C 183.097755 234.537253 181.826271 234.649323 179.285255 234.649323 C 176.750099 234.649323 175.482521 234.551016 175.482521 234.356367 L 175.482521 213.92418 C 175.482521 213.73543 176.750099 213.639089 179.285255 213.639089 C 181.826271 213.639089 183.097755 213.721667 183.097755 213.882891 Z M 183.097755 211.429141 C 183.097755 211.623789 181.826271 211.722096 179.285255 211.722096 C 176.750099 211.722096 175.482521 211.637552 175.482521 211.47043 L 175.482521 205.479583 C 175.482521 205.204323 176.750099 205.066693 179.285255 205.066693 C 181.826271 205.066693 183.097755 205.149271 183.097755 205.318359 Z M 195.789161 242.142305 C 195.789161 242.336953 194.603614 242.433294 192.230568 242.433294 C 189.86338 242.433294 188.679786 242.336953 188.679786 242.142305 L 188.679786 220.711315 L 187.263771 220.711315 C 186.597755 220.711315 186.140724 220.10181 185.890724 218.882799 C 185.804786 218.491536 185.761818 217.994102 185.761818 217.386562 C 185.761818 216.775091 185.95713 216.051549 186.345802 215.215937 C 186.898536 213.996927 187.787208 213.387422 189.011818 213.387422 C 189.814552 213.387422 190.552833 213.574206 191.230568 213.947773 C 191.914161 214.323307 192.384864 214.669349 192.64463 214.989831 C 192.910255 215.308346 193.043068 215.49513 193.043068 215.550182 C 194.902443 214.108997 196.912208 213.387422 199.074318 213.387422 C 201.240333 213.387422 203.099708 214.226966 204.648536 215.908021 C 206.203224 217.581211 206.980568 220.174557 206.980568 223.684128 C 206.980568 227.195664 206.203224 229.914844 204.648536 231.843633 C 203.099708 233.76849 201.132911 234.729935 198.748146 234.729935 C 197.664161 234.729935 196.677833 234.674883 195.789161 234.566745 Z M 197.496193 220.670026 C 197.025489 220.670026 196.568458 220.821419 196.123146 221.124206 L 196.123146 228.487422 C 196.593849 228.548372 196.976661 228.577865 197.26963 228.577865 C 197.562599 228.577865 197.789161 228.577865 197.951271 228.577865 C 199.089943 228.463828 199.658302 227.006914 199.658302 224.205156 C 199.658302 221.847747 198.937599 220.670026 197.496193 220.670026 Z M 219.509864 234.315078 C 219.509864 234.651289 218.345802 234.818411 216.015724 234.818411 C 213.240333 234.704375 211.853614 234.52349 211.853614 234.273789 L 211.853614 219.547357 L 209.732521 219.547357 C 209.173927 219.547357 208.896583 218.589844 208.896583 216.670885 C 208.896583 216.173451 208.945411 215.563945 209.041114 214.84237 C 209.138771 214.12276 209.341896 213.76099 209.652443 213.76099 L 211.853614 213.76099 L 211.853614 210.096094 C 211.853614 209.543607 213.023536 209.268346 215.365333 209.268346 C 217.711036 209.268346 218.884864 209.490521 218.884864 209.93487 L 218.884864 212.598997 L 218.923927 213.76099 L 222.468849 213.76099 C 222.939552 213.76099 223.17588 214.734232 223.17588 216.67875 C 223.17588 218.619336 222.939552 219.588646 222.468849 219.588646 L 219.509864 219.588646 Z M 245.181739 205.066693 C 247.20713 205.066693 248.990333 205.349818 250.529396 205.92 C 252.066505 206.488216 252.836036 207.256979 252.836036 208.226289 C 252.836036 209.197565 252.468849 210.396914 251.730568 211.828268 C 251.000099 213.257656 250.384864 213.973333 249.886818 213.973333 C 249.746193 213.973333 249.586036 213.896654 249.406349 213.74526 C 249.228614 213.587969 248.810646 213.420846 248.154396 213.241927 C 247.505958 213.063008 246.945411 212.972565 246.472755 212.972565 C 244.86338 212.972565 243.566505 213.542747 242.580177 214.67918 C 241.599708 215.817578 241.109474 217.559583 241.109474 219.905195 C 241.109474 222.246875 241.61338 223.984948 242.621193 225.123346 C 243.634864 226.261745 244.918068 226.829961 246.472755 226.829961 C 247.111427 226.829961 247.828224 226.741484 248.619239 226.562565 C 249.410255 226.377747 249.970802 226.120182 250.30088 225.78987 C 250.355568 225.730885 250.466896 225.701393 250.634864 225.701393 C 250.802833 225.701393 251.11338 226.01401 251.568458 226.643177 C 252.029396 227.266445 252.451271 228.084362 252.836036 229.096927 C 253.226661 230.111458 253.421974 230.893984 253.421974 231.446471 C 253.421974 232.529818 252.589943 233.39099 250.92588 234.029987 C 249.263771 234.665052 247.293068 234.981602 245.017677 234.981602 C 241.355568 234.981602 238.345802 233.69181 235.98838 231.112227 C 233.632911 228.534609 232.453224 224.893307 232.453224 220.190286 C 232.453224 215.487266 233.668068 211.792878 236.093849 209.105156 C 238.521583 206.411536 241.55088 205.066693 245.181739 205.066693 Z M 258.226661 232.112995 C 256.494239 230.199935 255.627052 227.551536 255.627052 224.163867 C 255.627052 220.778164 256.494239 218.127799 258.226661 216.216706 C 259.961036 214.303646 262.298927 213.348099 265.240333 213.348099 C 268.183693 213.348099 270.511818 214.303646 272.230568 216.216706 C 273.947364 218.127799 274.806739 220.778164 274.806739 224.163867 C 274.806739 227.551536 273.947364 230.199935 272.230568 232.112995 C 270.511818 234.026055 268.183693 234.981602 265.240333 234.981602 C 262.298927 234.981602 259.961036 234.026055 258.226661 232.112995 Z M 265.257911 220.296458 C 263.691505 220.296458 262.908302 221.572487 262.908302 224.124544 C 262.908302 226.676602 263.691505 227.95263 265.257911 227.95263 C 266.828224 227.95263 267.61338 226.676602 267.61338 224.124544 C 267.61338 221.572487 266.828224 220.296458 265.257911 220.296458 Z M 286.45713 234.315078 C 286.45713 234.509727 285.461036 234.608034 283.466896 234.608034 C 280.691505 234.527422 279.304786 234.374062 279.304786 234.151888 L 279.304786 220.670026 L 278.224708 220.670026 C 277.504005 220.670026 277.033302 220.060521 276.810646 218.84151 C 276.750099 218.477773 276.720802 218.117969 276.720802 217.76013 C 276.720802 216.898958 276.888771 216.037786 277.224708 215.176615 C 277.722755 213.957604 278.498146 213.348099 279.548927 213.348099 C 280.605568 213.348099 281.548927 213.595833 282.377052 214.095234 C 283.211036 214.592669 283.76963 215.09207 284.05088 215.589505 C 285.796974 214.095234 287.873146 213.348099 290.285255 213.348099 C 292.701271 213.348099 294.449318 214.000859 295.527443 215.30638 C 296.611427 216.606003 297.152443 218.741237 297.152443 221.710117 L 297.152443 234.193177 C 297.152443 234.52349 295.966896 234.688646 293.591896 234.688646 C 291.224708 234.688646 290.041114 234.52349 290.041114 234.193177 L 290.041114 222.164297 C 290.041114 220.778164 289.556739 220.084115 288.586036 220.084115 C 288.304786 220.084115 287.914161 220.204049 287.416114 220.441953 C 286.918068 220.675924 286.597755 220.848945 286.45713 220.962982 Z M 310.261818 234.315078 C 310.261818 234.651289 309.097755 234.818411 306.767677 234.818411 C 303.994239 234.704375 302.607521 234.52349 302.607521 234.273789 L 302.607521 219.547357 L 300.486427 219.547357 C 299.927833 219.547357 299.648536 218.589844 299.648536 216.670885 C 299.648536 216.173451 299.697364 215.563945 299.795021 214.84237 C 299.892677 214.12276 300.095802 213.76099 300.404396 213.76099 L 302.607521 213.76099 L 302.607521 210.096094 C 302.607521 209.543607 303.777443 209.268346 306.117286 209.268346 C 308.462989 209.268346 309.636818 209.490521 309.636818 209.93487 L 309.636818 212.598997 L 309.677833 213.76099 L 313.220802 213.76099 C 313.691505 213.76099 313.927833 214.734232 313.927833 216.67875 C 313.927833 218.619336 313.691505 219.588646 313.220802 219.588646 L 310.261818 219.588646 Z M 325.119239 234.527422 C 325.119239 234.72207 323.857521 234.818411 321.33213 234.818411 C 318.808693 234.759427 317.545021 234.649323 317.545021 234.486133 L 317.545021 220.670026 L 316.423927 220.670026 C 315.980568 220.670026 315.625099 220.398698 315.359474 219.858008 C 315.093849 219.315352 314.961036 218.64293 314.961036 217.840742 C 314.961036 214.846302 315.849708 213.348099 317.627052 213.348099 C 318.873146 213.348099 319.914161 213.729531 320.748146 214.492396 C 321.58213 215.251328 322.000099 216.118398 322.000099 217.093607 C 322.578224 215.955208 323.361427 215.048815 324.347755 214.370495 C 325.334083 213.688242 326.339943 213.348099 327.36338 213.348099 C 328.972755 213.348099 329.945411 213.76099 330.281349 214.590703 C 330.361427 214.812878 330.402443 215.141224 330.402443 215.573776 C 330.402443 216.002396 330.26963 216.771159 330.004005 217.882031 C 329.744239 218.992904 329.472755 219.797057 329.191505 220.296458 C 328.916114 220.793893 328.750099 221.043594 328.695411 221.043594 C 328.642677 221.043594 328.384864 220.941354 327.923927 220.734909 C 327.468849 220.524531 327.060646 220.418359 326.697364 220.418359 C 325.64463 220.418359 325.119239 221.250039 325.119239 222.913398 Z M 334.291114 232.112995 C 332.558693 230.199935 331.691505 227.551536 331.691505 224.163867 C 331.691505 220.778164 332.558693 218.127799 334.291114 216.216706 C 336.025489 214.303646 338.36338 213.348099 341.304786 213.348099 C 344.248146 213.348099 346.576271 214.303646 348.295021 216.216706 C 350.011818 218.127799 350.871193 220.778164 350.871193 224.163867 C 350.871193 227.551536 350.011818 230.199935 348.295021 232.112995 C 346.576271 234.026055 344.248146 234.981602 341.304786 234.981602 C 338.36338 234.981602 336.025489 234.026055 334.291114 232.112995 Z M 341.322364 220.296458 C 339.755958 220.296458 338.972755 221.572487 338.972755 224.124544 C 338.972755 226.676602 339.755958 227.95263 341.322364 227.95263 C 342.892677 227.95263 343.677833 226.676602 343.677833 224.124544 C 343.677833 221.572487 342.892677 220.296458 341.322364 220.296458 Z M 361.400489 234.234466 C 361.400489 234.482201 359.986427 234.608034 357.158302 234.608034 C 354.935646 234.580508 353.826271 234.470404 353.826271 234.273789 L 353.826271 205.935729 C 353.826271 205.522839 355.171974 205.318359 357.865333 205.318359 C 360.220802 205.398971 361.400489 205.536602 361.400489 205.733216 Z M 361.400489 234.234466 " transform="matrix(2,0,0,1.986755,-180.10176,-208.112583)"/>
<path style=" stroke:none;fill-rule:nonzero;fill:rgb(100%,100%,100%);fill-opacity:1;" d="M 61.015625 237.746094 C 62.066406 238.578125 63.882812 239.707031 66.460938 241.136719 C 69.050781 242.570312 71.519531 243.285156 73.871094 243.285156 C 76.234375 243.285156 77.417969 242.375 77.417969 240.558594 C 77.417969 239.726562 77.082031 238.996094 76.410156 238.363281 C 75.746094 237.726562 74.527344 237 72.75 236.179688 C 70.972656 235.351562 69.640625 234.707031 68.753906 234.242188 C 67.863281 233.769531 66.683594 232.996094 65.210938 231.917969 C 63.746094 230.84375 62.625 229.722656 61.84375 228.558594 C 59.632812 225.429688 58.527344 221.433594 58.527344 216.578125 C 58.527344 211.726562 60.34375 207.632812 63.972656 204.308594 C 67.605469 200.972656 72.359375 199.304688 78.246094 199.304688 C 82.242188 199.304688 85.933594 199.734375 89.3125 200.59375 C 92.695312 201.445312 94.441406 202.558594 94.546875 203.9375 C 94.546875 204.097656 94.546875 204.261719 94.546875 204.421875 C 94.546875 206.359375 93.9375 208.800781 92.710938 211.753906 C 91.496094 214.691406 90.640625 216.328125 90.144531 216.660156 C 86.589844 214.839844 83.410156 213.933594 80.601562 213.933594 C 77.804688 213.933594 76.410156 214.921875 76.410156 216.902344 C 76.410156 218.117188 77.4375 219.195312 79.496094 220.132812 C 79.941406 220.359375 80.574219 220.664062 81.398438 221.050781 C 82.234375 221.429688 83.191406 221.882812 84.273438 222.410156 C 85.359375 222.9375 86.523438 223.597656 87.769531 224.394531 C 89.015625 225.191406 90.367188 226.25 91.816406 227.574219 C 94.753906 230.332031 96.222656 233.96875 96.222656 238.492188 C 96.222656 244.390625 94.585938 249.210938 91.3125 252.957031 C 88.039062 256.703125 82.992188 258.628906 76.164062 258.738281 C 72.835938 258.738281 69.824219 258.464844 67.128906 257.914062 C 64.441406 257.367188 62.09375 256.292969 60.089844 254.703125 C 58.09375 253.097656 57.097656 251.164062 57.097656 248.90625 C 57.097656 246.644531 57.515625 244.398438 58.351562 242.171875 C 59.183594 239.933594 60.074219 238.457031 61.015625 237.746094 Z M 116.273438 237.410156 C 116.273438 242.8125 118.328125 245.515625 122.433594 245.515625 C 125.101562 245.515625 127.324219 244.992188 129.101562 243.949219 C 129.921875 243.949219 130.601562 245.367188 131.132812 248.210938 C 131.664062 251.042969 131.929688 252.96875 131.929688 253.992188 C 131.929688 255.015625 131.785156 255.6875 131.503906 256.007812 C 128.570312 257.828125 124.546875 258.738281 119.445312 258.738281 C 114.339844 258.738281 109.996094 256.855469 106.410156 253.085938 C 102.832031 249.308594 101.046875 244.152344 101.046875 237.617188 C 101.046875 231.085938 102.804688 225.808594 106.328125 221.796875 C 109.847656 217.769531 114.535156 215.757812 120.386719 215.757812 C 126.25 215.757812 130.320312 217.160156 132.59375 219.96875 C 133.09375 220.574219 133.34375 221.464844 133.34375 222.652344 C 133.34375 223.835938 133.121094 225.28125 132.675781 226.996094 C 131.679688 230.523438 130.371094 232.566406 128.757812 233.113281 C 128.542969 233.167969 128.222656 233.195312 127.800781 233.195312 C 127.386719 233.195312 126.871094 232.867188 126.253906 232.210938 C 124.097656 230.058594 122.363281 228.980469 121.054688 228.980469 C 119.753906 228.980469 118.632812 229.640625 117.6875 230.964844 C 116.746094 232.289062 116.273438 234.4375 116.273438 237.410156 Z M 156.144531 257.835938 C 156.144531 258.222656 153.621094 258.414062 148.570312 258.414062 C 143.519531 258.296875 140.996094 258.078125 140.996094 257.753906 L 140.996094 230.304688 L 138.753906 230.304688 C 137.863281 230.304688 137.15625 229.765625 136.625 228.691406 C 136.09375 227.613281 135.828125 226.277344 135.828125 224.683594 C 135.828125 218.734375 137.605469 215.757812 141.160156 215.757812 C 143.652344 215.757812 145.730469 216.515625 147.398438 218.03125 C 149.070312 219.539062 149.902344 221.261719 149.902344 223.199219 C 151.0625 220.9375 152.628906 219.136719 154.601562 217.789062 C 156.574219 216.433594 158.582031 215.757812 160.628906 215.757812 C 163.847656 215.757812 165.792969 216.578125 166.464844 218.226562 C 166.628906 218.667969 166.710938 219.320312 166.710938 220.179688 C 166.710938 221.03125 166.445312 222.558594 165.914062 224.765625 C 165.394531 226.972656 164.851562 228.570312 164.289062 229.5625 C 163.734375 230.550781 163.40625 231.046875 163.296875 231.046875 C 163.1875 231.046875 162.671875 230.84375 161.753906 230.433594 C 160.84375 230.011719 160.023438 229.804688 159.296875 229.804688 C 157.195312 229.804688 156.144531 231.457031 156.144531 234.761719 Z M 186.09375 257.414062 C 186.09375 257.855469 183.550781 258.078125 178.46875 258.078125 C 173.398438 258.078125 170.863281 257.882812 170.863281 257.496094 L 170.863281 216.902344 C 170.863281 216.527344 173.398438 216.335938 178.46875 216.335938 C 183.550781 216.335938 186.09375 216.5 186.09375 216.820312 Z M 186.09375 211.945312 C 186.09375 212.332031 183.550781 212.527344 178.46875 212.527344 C 173.398438 212.527344 170.863281 212.359375 170.863281 212.027344 L 170.863281 200.125 C 170.863281 199.578125 173.398438 199.304688 178.46875 199.304688 C 183.550781 199.304688 186.09375 199.46875 186.09375 199.804688 Z M 211.476562 272.964844 C 211.476562 273.351562 209.105469 273.542969 204.359375 273.542969 C 199.625 273.542969 197.257812 273.351562 197.257812 272.964844 L 197.257812 230.386719 L 194.425781 230.386719 C 193.09375 230.386719 192.179688 229.175781 191.679688 226.753906 C 191.507812 225.976562 191.421875 224.988281 191.421875 223.78125 C 191.421875 222.566406 191.8125 221.128906 192.589844 219.46875 C 193.695312 217.046875 195.472656 215.835938 197.921875 215.835938 C 199.527344 215.835938 201.003906 216.207031 202.359375 216.949219 C 203.726562 217.695312 204.667969 218.382812 205.1875 219.019531 C 205.71875 219.652344 205.984375 220.023438 205.984375 220.132812 C 209.703125 217.269531 213.722656 215.835938 218.046875 215.835938 C 222.378906 215.835938 226.097656 217.503906 229.195312 220.84375 C 232.304688 224.167969 233.859375 229.320312 233.859375 236.292969 C 233.859375 243.269531 232.304688 248.671875 229.195312 252.503906 C 226.097656 256.328125 222.164062 258.238281 217.394531 258.238281 C 215.226562 258.238281 213.253906 258.128906 211.476562 257.914062 Z M 214.890625 230.304688 C 213.949219 230.304688 213.035156 230.605469 212.144531 231.207031 L 212.144531 245.835938 C 213.085938 245.957031 213.851562 246.015625 214.4375 246.015625 C 215.023438 246.015625 215.476562 246.015625 215.800781 246.015625 C 218.078125 245.789062 219.214844 242.894531 219.214844 237.328125 C 219.214844 232.644531 217.773438 230.304688 214.890625 230.304688 Z M 258.917969 257.414062 C 258.917969 258.082031 256.585938 258.414062 251.929688 258.414062 C 246.378906 258.1875 243.605469 257.828125 243.605469 257.332031 L 243.605469 228.074219 L 239.363281 228.074219 C 238.246094 228.074219 237.691406 226.171875 237.691406 222.359375 C 237.691406 221.371094 237.789062 220.160156 237.980469 218.726562 C 238.175781 217.296875 238.582031 216.578125 239.203125 216.578125 L 243.605469 216.578125 L 243.605469 209.296875 C 243.605469 208.199219 245.945312 207.652344 250.628906 207.652344 C 255.320312 207.652344 257.667969 208.09375 257.667969 208.976562 L 257.667969 214.269531 L 257.746094 216.578125 L 264.835938 216.578125 C 265.777344 216.578125 266.25 218.511719 266.25 222.375 C 266.25 226.230469 265.777344 228.15625 264.835938 228.15625 L 258.917969 228.15625 Z M 310.261719 199.304688 C 314.3125 199.304688 317.878906 199.867188 320.957031 201 C 324.03125 202.128906 325.570312 203.65625 325.570312 205.582031 C 325.570312 207.511719 324.835938 209.894531 323.359375 212.738281 C 321.898438 215.578125 320.667969 217 319.671875 217 C 319.390625 217 319.070312 216.847656 318.710938 216.546875 C 318.355469 216.234375 317.519531 215.902344 316.207031 215.546875 C 314.910156 215.191406 313.785156 215.011719 312.84375 215.011719 C 309.625 215.011719 307.03125 216.144531 305.058594 218.40625 C 303.097656 220.664062 302.117188 224.125 302.117188 228.785156 C 302.117188 233.4375 303.125 236.890625 305.140625 239.152344 C 307.167969 241.414062 309.734375 242.542969 312.84375 242.542969 C 314.121094 242.542969 315.554688 242.367188 317.136719 242.011719 C 318.71875 241.644531 319.839844 241.132812 320.5 240.476562 C 320.609375 240.359375 320.832031 240.300781 321.167969 240.300781 C 321.503906 240.300781 322.125 240.921875 323.035156 242.171875 C 323.957031 243.410156 324.800781 245.035156 325.570312 247.046875 C 326.351562 249.0625 326.742188 250.617188 326.742188 251.714844 C 326.742188 253.867188 325.078125 255.578125 321.75 256.847656 C 318.425781 258.109375 314.484375 258.738281 309.933594 258.738281 C 302.609375 258.738281 296.589844 256.175781 291.875 251.050781 C 287.164062 245.929688 284.804688 238.695312 284.804688 229.351562 C 284.804688 220.007812 287.234375 212.667969 292.085938 207.328125 C 296.941406 201.976562 303 199.304688 310.261719 199.304688 Z M 336.351562 253.039062 C 332.886719 249.238281 331.152344 243.976562 331.152344 237.246094 C 331.152344 230.519531 332.886719 225.253906 336.351562 221.457031 C 339.820312 217.65625 344.496094 215.757812 350.378906 215.757812 C 356.265625 215.757812 360.921875 217.65625 364.359375 221.457031 C 367.792969 225.253906 369.511719 230.519531 369.511719 237.246094 C 369.511719 243.976562 367.792969 249.238281 364.359375 253.039062 C 360.921875 256.839844 356.265625 258.738281 350.378906 258.738281 C 344.496094 258.738281 339.820312 256.839844 336.351562 253.039062 Z M 350.414062 229.5625 C 347.28125 229.5625 345.714844 232.097656 345.714844 237.167969 C 345.714844 242.238281 347.28125 244.773438 350.414062 244.773438 C 353.554688 244.773438 355.125 242.238281 355.125 237.167969 C 355.125 232.097656 353.554688 229.5625 350.414062 229.5625 Z M 392.8125 257.414062 C 392.8125 257.800781 390.820312 257.996094 386.832031 257.996094 C 381.28125 257.835938 378.507812 257.53125 378.507812 257.089844 L 378.507812 230.304688 L 376.347656 230.304688 C 374.90625 230.304688 373.964844 229.09375 373.519531 226.671875 C 373.398438 225.949219 373.339844 225.234375 373.339844 224.523438 C 373.339844 222.8125 373.675781 221.101562 374.347656 219.390625 C 375.34375 216.96875 376.894531 215.757812 378.996094 215.757812 C 381.109375 215.757812 382.996094 216.25 384.652344 217.242188 C 386.320312 218.230469 387.4375 219.222656 388 220.210938 C 391.492188 217.242188 395.644531 215.757812 400.46875 215.757812 C 405.300781 215.757812 408.796875 217.054688 410.953125 219.648438 C 413.121094 222.230469 414.203125 226.472656 414.203125 232.371094 L 414.203125 257.171875 C 414.203125 257.828125 411.832031 258.15625 407.082031 258.15625 C 402.347656 258.15625 399.980469 257.828125 399.980469 257.171875 L 399.980469 233.273438 C 399.980469 230.519531 399.011719 229.140625 397.070312 229.140625 C 396.507812 229.140625 395.726562 229.378906 394.730469 229.851562 C 393.734375 230.316406 393.09375 230.660156 392.8125 230.886719 Z M 440.421875 257.414062 C 440.421875 258.082031 438.09375 258.414062 433.433594 258.414062 C 427.886719 258.1875 425.113281 257.828125 425.113281 257.332031 L 425.113281 228.074219 L 420.871094 228.074219 C 419.753906 228.074219 419.195312 226.171875 419.195312 222.359375 C 419.195312 221.371094 419.292969 220.160156 419.488281 218.726562 C 419.683594 217.296875 420.089844 216.578125 420.707031 216.578125 L 425.113281 216.578125 L 425.113281 209.296875 C 425.113281 208.199219 427.453125 207.652344 432.132812 207.652344 C 436.824219 207.652344 439.171875 208.09375 439.171875 208.976562 L 439.171875 214.269531 L 439.253906 216.578125 L 446.339844 216.578125 C 447.28125 216.578125 447.753906 218.511719 447.753906 222.375 C 447.753906 226.230469 447.28125 228.15625 446.339844 228.15625 L 440.421875 228.15625 Z M 470.136719 257.835938 C 470.136719 258.222656 467.613281 258.414062 462.5625 258.414062 C 457.515625 258.296875 454.988281 258.078125 454.988281 257.753906 L 454.988281 230.304688 L 452.746094 230.304688 C 451.859375 230.304688 451.148438 229.765625 450.617188 228.691406 C 450.085938 227.613281 449.820312 226.277344 449.820312 224.683594 C 449.820312 218.734375 451.597656 215.757812 455.152344 215.757812 C 457.644531 215.757812 459.726562 216.515625 461.394531 218.03125 C 463.0625 219.539062 463.898438 221.261719 463.898438 223.199219 C 465.054688 220.9375 466.621094 219.136719 468.59375 217.789062 C 470.566406 216.433594 472.578125 215.757812 474.625 215.757812 C 477.84375 215.757812 479.789062 216.578125 480.460938 218.226562 C 480.621094 218.667969 480.703125 219.320312 480.703125 220.179688 C 480.703125 221.03125 480.4375 222.558594 479.90625 224.765625 C 479.386719 226.972656 478.84375 228.570312 478.28125 229.5625 C 477.730469 230.550781 477.398438 231.046875 477.289062 231.046875 C 477.183594 231.046875 476.667969 230.84375 475.746094 230.433594 C 474.835938 230.011719 474.015625 229.804688 473.292969 229.804688 C 471.1875 229.804688 470.136719 231.457031 470.136719 234.761719 Z M 488.480469 253.039062 C 485.015625 249.238281 483.28125 243.976562 483.28125 237.246094 C 483.28125 230.519531 485.015625 225.253906 488.480469 221.457031 C 491.949219 217.65625 496.625 215.757812 502.507812 215.757812 C 508.394531 215.757812 513.050781 217.65625 516.488281 221.457031 C 519.921875 225.253906 521.640625 230.519531 521.640625 237.246094 C 521.640625 243.976562 519.921875 249.238281 516.488281 253.039062 C 513.050781 256.839844 508.394531 258.738281 502.507812 258.738281 C 496.625 258.738281 491.949219 256.839844 488.480469 253.039062 Z M 502.542969 229.5625 C 499.410156 229.5625 497.84375 232.097656 497.84375 237.167969 C 497.84375 242.238281 499.410156 244.773438 502.542969 244.773438 C 505.683594 244.773438 507.253906 242.238281 507.253906 237.167969 C 507.253906 232.097656 505.683594 229.5625 502.542969 229.5625 Z M 542.699219 257.253906 C 542.699219 257.746094 539.871094 257.996094 534.214844 257.996094 C 529.769531 257.941406 527.550781 257.722656 527.550781 257.332031 L 527.550781 201.03125 C 527.550781 200.210938 530.242188 199.804688 535.628906 199.804688 C 540.339844 199.964844 542.699219 200.238281 542.699219 200.628906 Z M 542.699219 257.253906 "/>
<path style="fill:none;stroke-width:8;stroke-linecap:butt;stroke-linejoin:miter;stroke:rgb(0%,0%,0%);stroke-opacity:0.505882;stroke-miterlimit:10;" d="M 281.902443 160.818581 C 282.11338 162.892865 280.89463 164.719414 279.181739 164.894401 L 246.26963 168.264375 C 245.443458 168.348919 244.693458 168.820794 244.189552 169.585625 L 240.390724 175.277617 C 239.884864 176.036549 239.136818 176.514323 238.310646 176.598867 L 222.250099 178.244531 C 221.423927 178.329076 220.593849 178.01056 219.937599 177.371562 L 215.072364 172.566302 C 214.416114 171.91944 213.587989 171.608789 212.767677 171.693333 L 204.673927 172.521081 C 202.961036 172.696068 201.396583 171.154609 201.183693 169.080326 L 198.097755 138.929479 C 197.886818 136.855195 199.105568 135.028646 200.818458 134.851693 L 208.849708 134.029844 C 209.67588 133.945299 210.505958 134.263815 211.154396 134.904779 L 216.089943 139.776888 C 216.746193 140.417852 217.576271 140.734401 218.402443 140.649857 L 234.462989 139.006159 C 235.289161 138.921615 236.037208 138.441875 236.543068 137.684909 L 240.388771 131.912305 C 240.902443 131.153372 241.650489 130.673633 242.476661 130.589089 L 275.324318 127.226979 C 277.039161 127.051992 278.603614 128.593451 278.814552 130.667734 Z M 260.14463 133.778177 L 248.089943 135.012917 C 240.322364 135.80724 234.670021 142.747734 235.464943 150.515977 C 236.261818 158.282253 243.201271 163.934922 250.968849 163.140599 L 263.388771 160.448945 C 267.533302 160.024258 262.470802 156.730964 263.687599 154.098294 C 264.244239 152.895013 268.232521 157.580339 270.293068 156.422279 C 272.177833 155.364492 272.183693 148.496745 272.007911 146.766536 C 271.212989 138.998294 267.912208 132.983854 260.14463 133.778177 Z M 259.837989 148.020937 C 260.406349 153.569401 256.369239 158.526055 250.820411 159.094271 C 247.230568 159.46194 243.716896 157.887057 241.605568 154.961432 C 239.492286 152.035807 239.099708 148.205755 240.578224 144.914427 C 242.054786 141.621133 245.17588 139.36793 248.765724 139.00026 C 252.068458 138.664049 260.804786 138.137122 262.886818 140.409987 C 263.767677 141.371432 267.927833 148.129076 266.734474 149.924167 C 266.390724 150.443229 261.521583 144.202682 259.951271 143.526328 C 258.218849 142.779193 259.793068 147.574622 259.837989 148.020937 Z M 259.837989 148.020937 " transform="matrix(2,0,0,1.986755,-180.10176,-208.112583)"/>
<path style=" stroke:none;fill-rule:evenodd;fill:rgb(100%,100%,100%);fill-opacity:1;" d="M 383.703125 111.394531 C 384.125 115.515625 381.6875 119.144531 378.261719 119.492188 L 312.4375 126.1875 C 310.785156 126.355469 309.285156 127.292969 308.277344 128.8125 L 300.679688 140.121094 C 299.667969 141.628906 298.171875 142.578125 296.519531 142.746094 L 264.398438 146.015625 C 262.746094 146.183594 261.085938 145.550781 259.773438 144.28125 L 250.042969 134.734375 C 248.730469 133.449219 247.074219 132.832031 245.433594 133 L 229.246094 134.644531 C 225.820312 134.992188 222.691406 131.929688 222.265625 127.808594 L 216.09375 67.90625 C 215.671875 63.785156 218.109375 60.15625 221.535156 59.804688 L 237.597656 58.171875 C 239.25 58.003906 240.910156 58.636719 242.207031 59.910156 L 252.078125 69.589844 C 253.390625 70.863281 255.050781 71.492188 256.703125 71.324219 L 288.824219 68.058594 C 290.476562 67.890625 291.972656 66.9375 292.984375 65.433594 L 300.675781 53.964844 C 301.703125 52.457031 303.199219 51.503906 304.851562 51.335938 L 370.546875 44.65625 C 373.976562 44.308594 377.105469 47.371094 377.527344 51.492188 Z M 340.1875 57.671875 L 316.078125 60.125 C 300.542969 61.703125 289.238281 75.492188 290.828125 90.925781 C 292.421875 106.355469 306.300781 117.585938 321.835938 116.007812 L 345.945312 113.554688 C 361.480469 111.976562 372.785156 98.183594 371.195312 82.753906 C 369.605469 67.320312 355.722656 56.09375 340.1875 57.671875 Z M 339.574219 85.96875 C 340.710938 96.992188 332.636719 106.839844 321.539062 107.96875 C 314.359375 108.699219 307.332031 105.570312 303.109375 99.757812 C 298.882812 93.945312 298.097656 86.335938 301.054688 79.796875 C 304.007812 73.253906 310.25 68.777344 317.429688 68.046875 C 328.527344 66.921875 338.441406 74.945312 339.574219 85.96875 Z M 339.574219 85.96875 "/>
<path style="fill:none;stroke-width:6.5;stroke-linecap:butt;stroke-linejoin:miter;stroke:rgb(0%,0%,0%);stroke-opacity:0.505882;stroke-miterlimit:10;" d="M 320.554786 130.309896 C 324.611427 123.90026 334.666114 120.953008 341.541114 124.161758 L 358.373146 119.228698 C 358.855568 119.087135 359.36338 119.364362 359.504005 119.848034 L 362.066505 128.591484 C 362.20713 129.075156 361.931739 129.580456 361.447364 129.722018 L 334.123146 137.728164 C 333.685646 137.85793 333.531349 138.139089 333.377052 138.422214 L 332.757911 139.552747 C 332.603614 139.835872 332.449318 140.118997 332.011818 140.246797 L 329.388771 141.01556 C 328.951271 141.143359 328.668068 140.988034 328.386818 140.834674 L 327.255958 140.215339 C 326.972755 140.061979 326.689552 139.906654 326.252052 140.034453 L 324.504005 140.547617 C 324.021583 140.68918 323.515724 140.411953 323.373146 139.928281 Z M 320.554786 130.309896 " transform="matrix(2,0,0,1.986755,-180.10176,-208.112583)"/>
<path style="fill:none;stroke-width:6.5;stroke-linecap:butt;stroke-linejoin:miter;stroke:rgb(0%,0%,0%);stroke-opacity:0.505882;stroke-miterlimit:10;" d="M 328.533302 159.019557 C 328.392677 158.535885 328.670021 158.030586 329.152443 157.889023 L 330.900489 157.375859 C 331.337989 157.24806 331.621193 157.401419 331.904396 157.556745 L 333.033302 158.174115 C 333.316505 158.32944 333.599708 158.484766 334.037208 158.356966 L 336.660255 157.588203 C 337.097755 157.458437 337.252052 157.177279 337.406349 156.894154 L 338.023536 155.76362 C 338.179786 155.480495 338.334083 155.19737 338.771583 155.06957 L 368.500099 146.359544 C 368.984474 146.217982 369.490333 146.493242 369.630958 146.976914 L 372.193458 155.720365 C 372.336036 156.204036 372.058693 156.711302 371.576271 156.850898 L 341.845802 165.562891 C 341.408302 165.69069 341.254005 165.973815 341.099708 166.25694 L 340.480568 167.387474 C 340.326271 167.670599 340.171974 167.951758 339.734474 168.079557 L 337.111427 168.84832 C 336.673927 168.978086 336.390724 168.82276 336.109474 168.667435 L 334.978614 168.050065 C 334.695411 167.89474 334.412208 167.74138 333.974708 167.86918 L 332.226661 168.380378 C 331.744239 168.52194 331.23838 168.24668 331.095802 167.763008 Z M 328.533302 159.019557 " transform="matrix(2,0,0,1.986755,-180.10176,-208.112583)"/>
<path style="fill:none;stroke-width:6.5;stroke-linecap:butt;stroke-linejoin:miter;stroke:rgb(0%,0%,0%);stroke-opacity:0.505882;stroke-miterlimit:10;" d="M 332.384864 172.479792 C 332.244239 171.99612 332.51963 171.49082 333.004005 171.349258 L 334.752052 170.836094 C 335.189552 170.708294 335.472755 170.86362 335.754005 171.016979 L 336.884864 171.636315 C 337.168068 171.789674 337.451271 171.945 337.886818 171.817201 L 340.511818 171.048437 C 340.947364 170.920638 341.103614 170.637513 341.257911 170.354388 L 341.875099 169.223854 C 342.029396 168.940729 342.183693 168.657604 342.621193 168.529805 L 357.267677 164.239674 C 357.752052 164.098112 358.257911 164.373372 358.398536 164.857044 L 360.961036 173.600495 C 361.101661 174.084167 360.826271 174.589466 360.341896 174.731029 L 345.695411 179.023125 C 345.259864 179.150924 345.103614 179.434049 344.949318 179.717174 L 344.33213 180.847708 C 344.177833 181.130833 344.023536 181.411992 343.586036 181.541758 L 340.962989 182.308555 C 340.525489 182.43832 340.242286 182.282995 339.959083 182.127669 L 338.828224 181.510299 C 338.546974 181.354974 338.263771 181.201615 337.826271 181.329414 L 336.078224 181.842578 C 335.593849 181.984141 335.087989 181.706914 334.947364 181.223242 Z M 332.384864 172.479792 " transform="matrix(2,0,0,1.986755,-180.10176,-208.112583)"/>
<path style="fill:none;stroke-width:6.5;stroke-linecap:butt;stroke-linejoin:miter;stroke:rgb(0%,0%,0%);stroke-opacity:0.505882;stroke-miterlimit:10;" d="M 324.687599 145.130703 C 324.545021 144.647031 324.822364 144.141732 325.304786 144.000169 L 327.054786 143.487005 C 327.492286 143.359206 327.773536 143.514531 328.056739 143.667891 L 329.187599 144.287227 C 329.470802 144.440586 329.752052 144.595911 330.189552 144.468112 L 332.812599 143.699349 C 333.250099 143.571549 333.404396 143.288424 333.558693 143.005299 L 334.177833 141.874766 C 334.33213 141.593607 334.486427 141.310482 334.923927 141.182682 L 348.259864 137.273984 C 348.742286 137.132422 349.248146 137.409648 349.388771 137.89332 L 351.951271 146.636771 C 352.093849 147.120443 351.816505 147.625742 351.334083 147.767305 L 337.998146 151.674036 C 337.560646 151.803802 337.406349 152.084961 337.252052 152.368086 L 336.634864 153.49862 C 336.478614 153.781745 336.324318 154.06487 335.886818 154.192669 L 333.263771 154.961432 C 332.828224 155.089232 332.545021 154.933906 332.261818 154.780547 L 331.130958 154.161211 C 330.847755 154.007852 330.566505 153.852526 330.129005 153.980326 L 328.380958 154.49349 C 327.896583 154.635052 327.390724 154.357826 327.250099 153.874154 Z M 324.687599 145.130703 " transform="matrix(2,0,0,1.986755,-180.10176,-208.112583)"/>
<path style=" stroke:none;fill-rule:nonzero;fill:rgb(100%,100%,100%);fill-opacity:1;" d="M 461.007812 50.78125 C 469.121094 38.046875 489.230469 32.191406 502.980469 38.566406 L 536.644531 28.765625 C 537.609375 28.484375 538.625 29.035156 538.90625 29.996094 L 544.03125 47.367188 C 544.3125 48.328125 543.761719 49.332031 542.792969 49.613281 L 488.144531 65.519531 C 487.269531 65.777344 486.960938 66.335938 486.652344 66.898438 L 485.414062 69.144531 C 485.105469 69.707031 484.796875 70.269531 483.921875 70.523438 L 478.675781 72.050781 C 477.800781 72.304688 477.234375 71.996094 476.671875 71.691406 L 474.410156 70.460938 C 473.84375 70.15625 473.277344 69.847656 472.402344 70.101562 L 468.90625 71.121094 C 467.941406 71.402344 466.929688 70.851562 466.644531 69.890625 Z M 461.007812 50.78125 "/>
<path style=" stroke:none;fill-rule:nonzero;fill:rgb(100%,100%,100%);fill-opacity:1;" d="M 476.964844 107.820312 C 476.683594 106.859375 477.238281 105.855469 478.203125 105.574219 L 481.699219 104.554688 C 482.574219 104.300781 483.140625 104.605469 483.707031 104.914062 L 485.964844 106.140625 C 486.53125 106.449219 487.097656 106.757812 487.972656 106.503906 L 493.21875 104.976562 C 494.09375 104.71875 494.402344 104.160156 494.710938 103.597656 L 495.945312 101.351562 C 496.257812 100.789062 496.566406 100.226562 497.441406 99.972656 L 556.898438 82.667969 C 557.867188 82.386719 558.878906 82.933594 559.160156 83.894531 L 564.285156 101.265625 C 564.570312 102.226562 564.015625 103.234375 563.050781 103.511719 L 503.589844 120.820312 C 502.714844 121.074219 502.40625 121.636719 502.097656 122.199219 L 500.859375 124.445312 C 500.550781 125.007812 500.242188 125.566406 499.367188 125.820312 L 494.121094 127.347656 C 493.246094 127.605469 492.679688 127.296875 492.117188 126.988281 L 489.855469 125.761719 C 489.289062 125.453125 488.722656 125.148438 487.847656 125.402344 L 484.351562 126.417969 C 483.386719 126.699219 482.375 126.152344 482.089844 125.191406 Z M 476.964844 107.820312 "/>
<path style=" stroke:none;fill-rule:nonzero;fill:rgb(100%,100%,100%);fill-opacity:1;" d="M 484.667969 134.5625 C 484.386719 133.601562 484.9375 132.597656 485.90625 132.316406 L 489.402344 131.296875 C 490.277344 131.042969 490.84375 131.351562 491.40625 131.65625 L 493.667969 132.886719 C 494.234375 133.191406 494.800781 133.5 495.671875 133.246094 L 500.921875 131.71875 C 501.792969 131.464844 502.105469 130.902344 502.414062 130.339844 L 503.648438 128.09375 C 503.957031 127.53125 504.265625 126.96875 505.140625 126.714844 L 534.433594 118.191406 C 535.402344 117.910156 536.414062 118.457031 536.695312 119.417969 L 541.820312 136.789062 C 542.101562 137.75 541.550781 138.753906 540.582031 139.035156 L 511.289062 147.5625 C 510.417969 147.816406 510.105469 148.378906 509.796875 148.941406 L 508.5625 151.1875 C 508.253906 151.75 507.945312 152.308594 507.070312 152.566406 L 501.824219 154.089844 C 500.949219 154.347656 500.382812 154.039062 499.816406 153.730469 L 497.554688 152.503906 C 496.992188 152.195312 496.425781 151.890625 495.550781 152.144531 L 492.054688 153.164062 C 491.085938 153.445312 490.074219 152.894531 489.792969 151.933594 Z M 484.667969 134.5625 "/>
<path style=" stroke:none;fill-rule:nonzero;fill:rgb(100%,100%,100%);fill-opacity:1;" d="M 469.273438 80.226562 C 468.988281 79.265625 469.542969 78.261719 470.507812 77.980469 L 474.007812 76.960938 C 474.882812 76.707031 475.445312 77.015625 476.011719 77.320312 L 478.273438 78.550781 C 478.839844 78.855469 479.402344 79.164062 480.277344 78.910156 L 485.523438 77.382812 C 486.398438 77.128906 486.707031 76.566406 487.015625 76.003906 L 488.253906 73.757812 C 488.5625 73.199219 488.871094 72.636719 489.746094 72.382812 L 516.417969 64.617188 C 517.382812 64.335938 518.394531 64.886719 518.675781 65.847656 L 523.800781 83.21875 C 524.085938 84.179688 523.53125 85.183594 522.566406 85.464844 L 495.894531 93.226562 C 495.019531 93.484375 494.710938 94.042969 494.402344 94.605469 L 493.167969 96.851562 C 492.855469 97.414062 492.546875 97.976562 491.671875 98.230469 L 486.425781 99.757812 C 485.554688 100.011719 484.988281 99.703125 484.421875 99.398438 L 482.160156 98.167969 C 481.59375 97.863281 481.03125 97.554688 480.15625 97.808594 L 476.660156 98.828125 C 475.691406 99.109375 474.679688 98.558594 474.398438 97.597656 Z M 469.273438 80.226562 "/>
<path style="fill:none;stroke-width:7;stroke-linecap:butt;stroke-linejoin:miter;stroke:rgb(0%,0%,0%);stroke-opacity:0.505882;stroke-miterlimit:10;" d="M 116.836036 123.094141 C 122.853614 118.973099 132.853614 120.186211 137.70713 125.630469 L 154.447364 127.663464 C 154.927833 127.722448 155.26963 128.158932 155.211036 128.638672 L 154.154396 137.334935 C 154.095802 137.814674 153.660255 138.156784 153.179786 138.097799 L 126.004005 134.798607 C 125.570411 134.745521 125.326271 134.936237 125.08213 135.126953 L 124.107521 135.891784 C 123.86338 136.0825 123.619239 136.273216 123.183693 136.22013 L 120.576271 135.903581 C 120.140724 135.850495 119.949318 135.606693 119.757911 135.362891 L 118.994239 134.387682 C 118.802833 134.14388 118.61338 133.900078 118.177833 133.846992 L 116.439552 133.636615 C 115.959083 133.57763 115.617286 133.141146 115.673927 132.661406 Z M 116.836036 123.094141 " transform="matrix(2,0,0,1.986755,-180.10176,-208.112583)"/>
<path style="fill:none;stroke-width:7;stroke-linecap:butt;stroke-linejoin:miter;stroke:rgb(0%,0%,0%);stroke-opacity:0.505882;stroke-miterlimit:10;" d="M 115.052833 137.338867 C 115.111427 136.859128 115.546974 136.517018 116.027443 136.574036 L 117.767677 136.78638 C 118.201271 136.839466 118.392677 137.083268 118.584083 137.32707 L 119.347755 138.302279 C 119.539161 138.546081 119.728614 138.789883 120.164161 138.842969 L 122.773536 139.159518 C 123.20713 139.212604 123.451271 139.021888 123.695411 138.829206 L 124.670021 138.066341 C 124.914161 137.875625 125.158302 137.684909 125.593849 137.736029 L 149.072364 140.588906 C 149.552833 140.647891 149.89463 141.084375 149.836036 141.564115 L 148.779396 150.260378 C 148.722755 150.740117 148.285255 151.082227 147.804786 151.025208 L 129.107521 148.752344 C 128.673927 148.701224 128.429786 148.89194 128.185646 149.082656 L 127.211036 149.845521 C 126.966896 150.038203 126.722755 150.228919 126.289161 150.175833 L 123.679786 149.859284 C 123.244239 149.806198 123.052833 149.562396 122.86338 149.318594 L 122.099708 148.343385 C 121.908302 148.099583 121.716896 147.855781 121.281349 147.802695 L 118.23838 147.43306 C 117.757911 147.374076 117.322364 147.716185 117.263771 148.195924 L 114.252052 172.981159 C 114.193458 173.460898 114.535255 173.897383 115.015724 173.956367 L 118.060646 174.326003 C 118.494239 174.379089 118.685646 174.622891 118.877052 174.866693 L 119.640724 175.841901 C 119.83213 176.085703 120.023536 176.329505 120.45713 176.382591 L 123.066505 176.699141 C 123.502052 176.752227 123.744239 176.559544 123.98838 176.368828 L 124.964943 175.605964 C 125.20713 175.415247 125.451271 175.222565 125.886818 175.275651 L 144.584083 177.546549 C 145.062599 177.605534 145.406349 178.042018 145.347755 178.521758 L 144.712989 183.739909 C 144.654396 184.219648 144.218849 184.561758 143.73838 184.50474 L 120.257911 181.651862 C 119.824318 181.598776 119.580177 181.789492 119.336036 181.982174 L 118.361427 182.745039 C 118.117286 182.935755 117.873146 183.126471 117.439552 183.075352 L 114.830177 182.756836 C 114.39463 182.70375 114.203224 182.459948 114.013771 182.216146 L 113.248146 181.240937 C 113.058693 180.997135 112.867286 180.753333 112.431739 180.702214 L 110.693458 180.48987 C 110.212989 180.430885 109.871193 179.994401 109.929786 179.514661 Z M 115.052833 137.338867 " transform="matrix(2,0,0,1.986755,-180.10176,-208.112583)"/>
<path style="fill:none;stroke-width:7;stroke-linecap:butt;stroke-linejoin:miter;stroke:rgb(0%,0%,0%);stroke-opacity:0.505882;stroke-miterlimit:10;" d="M 118.355568 150.095221 C 118.414161 149.613516 118.851661 149.271406 119.33213 149.330391 L 121.070411 149.540768 C 121.505958 149.593854 121.697364 149.837656 121.886818 150.081458 L 122.650489 151.056667 C 122.841896 151.300469 123.033302 151.544271 123.468849 151.597357 L 126.076271 151.913906 C 126.511818 151.966992 126.755958 151.776276 127.000099 151.58556 L 127.974708 150.820729 C 128.218849 150.630013 128.462989 150.439297 128.896583 150.492383 L 158.462989 154.084531 C 158.943458 154.141549 159.285255 154.578034 159.228614 155.05974 L 158.171974 163.756003 C 158.11338 164.235742 157.67588 164.577852 157.195411 164.518867 L 127.629005 160.926719 C 127.195411 160.875599 126.951271 161.066315 126.70713 161.257031 L 125.732521 162.019896 C 125.48838 162.212578 125.244239 162.403294 124.808693 162.350208 L 122.201271 162.033659 C 121.765724 161.980573 121.574318 161.736771 121.382911 161.492969 L 120.619239 160.51776 C 120.429786 160.273958 120.23838 160.030156 119.802833 159.97707 L 118.064552 159.766693 C 117.584083 159.707708 117.242286 159.271224 117.298927 158.789518 Z M 118.355568 150.095221 " transform="matrix(2,0,0,1.986755,-180.10176,-208.112583)"/>
<path style="fill:none;stroke-width:7;stroke-linecap:butt;stroke-linejoin:miter;stroke:rgb(0%,0%,0%);stroke-opacity:0.505882;stroke-miterlimit:10;" d="M 116.851661 162.485872 C 116.910255 162.006133 117.345802 161.664023 117.826271 161.723008 L 119.564552 161.933385 C 120.000099 161.986471 120.191505 162.230273 120.382911 162.474076 L 121.146583 163.449284 C 121.337989 163.693086 121.527443 163.936888 121.962989 163.989974 L 124.572364 164.306523 C 125.005958 164.359609 125.250099 164.168893 125.494239 163.978177 L 126.468849 163.213346 C 126.712989 163.02263 126.95713 162.831914 127.392677 162.885 L 141.95713 164.654531 C 142.437599 164.711549 142.779396 165.148034 142.720802 165.62974 L 141.666114 174.324036 C 141.607521 174.805742 141.170021 175.147852 140.689552 175.088867 L 126.125099 173.319336 C 125.689552 173.26625 125.445411 173.456966 125.201271 173.649648 L 124.226661 174.412513 C 123.982521 174.603229 123.73838 174.793945 123.304786 174.742826 L 120.695411 174.42431 C 120.259864 174.371224 120.070411 174.127422 119.879005 173.88362 L 119.115333 172.908411 C 118.923927 172.664609 118.732521 172.420807 118.296974 172.369687 L 116.558693 172.157344 C 116.078224 172.098359 115.736427 171.661875 115.795021 171.182135 Z M 116.851661 162.485872 " transform="matrix(2,0,0,1.986755,-180.10176,-208.112583)"/>
<path style="fill:none;stroke-width:7;stroke-linecap:butt;stroke-linejoin:miter;stroke:rgb(0%,0%,0%);stroke-opacity:0.505882;stroke-miterlimit:10;" d="M 109.279396 184.209818 C 109.337989 183.730078 109.775489 183.387969 110.255958 183.446953 L 111.994239 183.657331 C 112.429786 183.710417 112.621193 183.954219 112.810646 184.198021 L 113.574318 185.173229 C 113.765724 185.417031 113.95713 185.660833 114.392677 185.713919 L 117.000099 186.030469 C 117.435646 186.083555 117.679786 185.892839 117.923927 185.702122 L 118.898536 184.937292 C 119.142677 184.746576 119.386818 184.555859 119.820411 184.608945 L 133.08213 186.219219 C 133.562599 186.278203 133.904396 186.714687 133.845802 187.194427 L 132.791114 195.89069 C 132.732521 196.37043 132.295021 196.712539 131.814552 196.655521 L 118.552833 195.043281 C 118.119239 194.992161 117.875099 195.182878 117.630958 195.373594 L 116.656349 196.136458 C 116.412208 196.329141 116.168068 196.519857 115.732521 196.466771 L 113.125099 196.150221 C 112.689552 196.097135 112.498146 195.853333 112.306739 195.609531 L 111.543068 194.634323 C 111.353614 194.390521 111.162208 194.146719 110.726661 194.093633 L 108.98838 193.881289 C 108.507911 193.824271 108.166114 193.387786 108.224708 192.906081 Z M 109.279396 184.209818 " transform="matrix(2,0,0,1.986755,-180.10176,-208.112583)"/>
<path style=" stroke:none;fill-rule:nonzero;fill:rgb(100%,100%,100%);fill-opacity:1;" d="M 53.570312 36.445312 C 65.605469 28.257812 85.605469 30.667969 95.3125 41.484375 L 128.792969 45.523438 C 129.753906 45.640625 130.4375 46.507812 130.320312 47.460938 L 128.207031 64.738281 C 128.089844 65.691406 127.21875 66.371094 126.257812 66.253906 L 71.90625 59.699219 C 71.039062 59.59375 70.550781 59.972656 70.0625 60.351562 L 68.113281 61.871094 C 67.625 62.25 67.136719 62.628906 66.265625 62.523438 L 61.050781 61.894531 C 60.179688 61.789062 59.796875 61.304688 59.414062 60.820312 L 57.886719 58.882812 C 57.503906 58.398438 57.125 57.914062 56.253906 57.808594 L 52.777344 57.390625 C 51.816406 57.273438 51.132812 56.40625 51.246094 55.453125 Z M 53.570312 36.445312 "/>
<path style=" stroke:none;fill-rule:nonzero;fill:rgb(100%,100%,100%);fill-opacity:1;" d="M 50.003906 64.746094 C 50.121094 63.792969 50.992188 63.113281 51.953125 63.226562 L 55.433594 63.648438 C 56.300781 63.753906 56.683594 64.238281 57.066406 64.722656 L 58.59375 66.660156 C 58.976562 67.144531 59.355469 67.628906 60.226562 67.734375 L 65.445312 68.363281 C 66.3125 68.46875 66.800781 68.089844 67.289062 67.707031 L 69.238281 66.191406 C 69.726562 65.8125 70.214844 65.433594 71.085938 65.535156 L 118.042969 71.203125 C 119.003906 71.320312 119.6875 72.1875 119.570312 73.140625 L 117.457031 90.417969 C 117.34375 91.371094 116.46875 92.050781 115.507812 91.9375 L 78.113281 87.421875 C 77.246094 87.320312 76.757812 87.699219 76.269531 88.078125 L 74.320312 89.59375 C 73.832031 89.976562 73.34375 90.355469 72.476562 90.25 L 67.257812 89.621094 C 66.386719 89.515625 66.003906 89.03125 65.625 88.546875 L 64.097656 86.609375 C 63.714844 86.125 63.332031 85.640625 62.460938 85.535156 L 56.375 84.800781 C 55.414062 84.683594 54.542969 85.363281 54.425781 86.316406 L 48.402344 135.558594 C 48.285156 136.511719 48.96875 137.378906 49.929688 137.496094 L 56.019531 138.230469 C 56.886719 138.335938 57.269531 138.820312 57.652344 139.304688 L 59.179688 141.242188 C 59.5625 141.726562 59.945312 142.210938 60.8125 142.316406 L 66.03125 142.945312 C 66.902344 143.050781 67.386719 142.667969 67.875 142.289062 L 69.828125 140.773438 C 70.3125 140.394531 70.800781 140.011719 71.671875 140.117188 L 109.066406 144.628906 C 110.023438 144.746094 110.710938 145.613281 110.59375 146.566406 L 109.324219 156.933594 C 109.207031 157.886719 108.335938 158.566406 107.375 158.453125 L 60.414062 152.785156 C 59.546875 152.679688 59.058594 153.058594 58.570312 153.441406 L 56.621094 154.957031 C 56.132812 155.335938 55.644531 155.714844 54.777344 155.613281 L 49.558594 154.980469 C 48.6875 154.875 48.304688 154.390625 47.925781 153.90625 L 46.394531 151.96875 C 46.015625 151.484375 45.632812 151 44.761719 150.898438 L 41.285156 150.476562 C 40.324219 150.359375 39.640625 149.492188 39.757812 148.539062 Z M 50.003906 64.746094 "/>
<path style=" stroke:none;fill-rule:nonzero;fill:rgb(100%,100%,100%);fill-opacity:1;" d="M 56.609375 90.089844 C 56.726562 89.132812 57.601562 88.453125 58.5625 88.570312 L 62.039062 88.988281 C 62.910156 89.09375 63.292969 89.578125 63.671875 90.0625 L 65.199219 92 C 65.582031 92.484375 65.964844 92.96875 66.835938 93.074219 L 72.050781 93.703125 C 72.921875 93.808594 73.410156 93.429688 73.898438 93.050781 L 75.847656 91.53125 C 76.335938 91.152344 76.824219 90.773438 77.691406 90.878906 L 136.824219 98.015625 C 137.785156 98.128906 138.46875 98.996094 138.355469 99.953125 L 136.242188 117.230469 C 136.125 118.183594 135.25 118.863281 134.289062 118.746094 L 75.15625 111.609375 C 74.289062 111.507812 73.800781 111.886719 73.3125 112.265625 L 71.363281 113.78125 C 70.875 114.164062 70.386719 114.542969 69.515625 114.4375 L 64.300781 113.808594 C 63.429688 113.703125 63.046875 113.21875 62.664062 112.734375 L 61.136719 110.796875 C 60.757812 110.3125 60.375 109.828125 59.503906 109.722656 L 56.027344 109.304688 C 55.066406 109.1875 54.382812 108.320312 54.496094 107.363281 Z M 56.609375 90.089844 "/>
<path style=" stroke:none;fill-rule:nonzero;fill:rgb(100%,100%,100%);fill-opacity:1;" d="M 53.601562 114.707031 C 53.71875 113.753906 54.589844 113.074219 55.550781 113.191406 L 59.027344 113.609375 C 59.898438 113.714844 60.28125 114.199219 60.664062 114.683594 L 62.191406 116.621094 C 62.574219 117.105469 62.953125 117.589844 63.824219 117.695312 L 69.042969 118.324219 C 69.910156 118.429688 70.398438 118.050781 70.886719 117.671875 L 72.835938 116.152344 C 73.324219 115.773438 73.8125 115.394531 74.683594 115.5 L 103.8125 119.015625 C 104.773438 119.128906 105.457031 119.996094 105.339844 120.953125 L 103.230469 138.226562 C 103.113281 139.183594 102.238281 139.863281 101.277344 139.746094 L 72.148438 136.230469 C 71.277344 136.125 70.789062 136.503906 70.300781 136.886719 L 68.351562 138.402344 C 67.863281 138.78125 67.375 139.160156 66.507812 139.058594 L 61.289062 138.425781 C 60.417969 138.320312 60.039062 137.835938 59.65625 137.351562 L 58.128906 135.414062 C 57.746094 134.929688 57.363281 134.445312 56.492188 134.34375 L 53.015625 133.921875 C 52.054688 133.804688 51.371094 132.9375 51.488281 131.984375 Z M 53.601562 114.707031 "/>
<path style=" stroke:none;fill-rule:nonzero;fill:rgb(100%,100%,100%);fill-opacity:1;" d="M 38.457031 157.867188 C 38.574219 156.914062 39.449219 156.234375 40.410156 156.351562 L 43.886719 156.769531 C 44.757812 156.875 45.140625 157.359375 45.519531 157.84375 L 47.046875 159.78125 C 47.429688 160.265625 47.8125 160.75 48.683594 160.855469 L 53.898438 161.484375 C 54.769531 161.589844 55.257812 161.210938 55.746094 160.832031 L 57.695312 159.3125 C 58.183594 158.933594 58.671875 158.554688 59.539062 158.660156 L 86.0625 161.859375 C 87.023438 161.976562 87.707031 162.84375 87.589844 163.796875 L 85.480469 181.074219 C 85.363281 182.027344 84.488281 182.707031 83.527344 182.59375 L 57.003906 179.390625 C 56.136719 179.289062 55.648438 179.667969 55.160156 180.046875 L 53.210938 181.5625 C 52.722656 181.945312 52.234375 182.324219 51.363281 182.21875 L 46.148438 181.589844 C 45.277344 181.484375 44.894531 181 44.511719 180.515625 L 42.984375 178.578125 C 42.605469 178.09375 42.222656 177.609375 41.351562 177.503906 L 37.875 177.082031 C 36.914062 176.96875 36.230469 176.101562 36.347656 175.144531 Z M 38.457031 157.867188 "/>
</g>
</svg>
