<?xml version="1.0" encoding="UTF-8"?>
<svg xmlns="http://www.w3.org/2000/svg" xmlns:xlink="http://www.w3.org/1999/xlink" width="600px" height="300px" viewBox="0 0 600 300" version="1.1">
<defs>
<linearGradient id="linear0" gradientUnits="userSpaceOnUse" x1="240.00005" y1="105.24165" x2="240.00005" y2="254.75846" gradientTransform="matrix(2.006689,0,0,2,-181.524823,-210.4833)">
<stop offset="0" style="stop-color:rgb(100%,46.27451%,0%);stop-opacity:1;"/>
<stop offset="1" style="stop-color:rgb(100%,13.333333%,0%);stop-opacity:1;"/>
</linearGradient>
</defs>
<g id="surface1">
<path style=" stroke:none;fill-rule:nonzero;fill:url(#linear0);" d="M 0 299.035156 L 0 0 L 600.160156 0 L 600.160156 299.035156 Z M 0 299.035156 "/>
<path style=" stroke:none;fill-rule:nonzero;fill:rgb(100%,100%,100%);fill-opacity:0.25098;" d="M 582.808594 175.867188 C 588.140625 178.71875 597.363281 188.269531 592.855469 192.300781 C 588.226562 191.761719 392.609375 192.066406 390.222656 192.066406 C 388.34375 192.066406 391.113281 174.871094 399.707031 173.382812 C 406.394531 172.222656 414.308594 178.0625 414.589844 177.648438 C 415.171875 176.800781 422.472656 155.84375 436.886719 152.191406 C 452.230469 148.417969 462.5 152.328125 477.003906 162.492188 C 488.6875 153.378906 497.996094 136.933594 522.332031 136.46875 C 546.589844 136.089844 565.390625 169.433594 566.640625 172.511719 C 569.71875 172.742188 576.894531 172.714844 582.808594 175.867188 Z M 582.808594 175.867188 "/>
<path style=" stroke:none;fill-rule:nonzero;fill:rgb(100%,100%,100%);fill-opacity:0.34902;" d="M 426.296875 272.453125 C 430.292969 270.320312 435.144531 270.339844 437.222656 270.183594 C 438.070312 268.101562 450.777344 245.566406 467.171875 245.824219 C 483.621094 246.136719 489.910156 257.253906 497.808594 263.410156 C 507.609375 256.542969 514.550781 253.898438 524.921875 256.449219 C 534.664062 258.917969 539.597656 273.082031 539.992188 273.65625 C 540.179688 273.933594 545.53125 269.988281 550.050781 270.773438 C 555.859375 271.777344 557.730469 283.398438 556.460938 283.398438 C 554.847656 283.398438 422.632812 283.195312 419.507812 283.558594 C 416.460938 280.835938 422.691406 274.375 426.296875 272.453125 Z M 426.296875 272.453125 "/>
<path style=" stroke:none;fill-rule:nonzero;fill:rgb(100%,100%,100%);fill-opacity:0.34902;" d="M 184.550781 285.558594 C 180.925781 285.136719 27.6875 285.371094 25.820312 285.371094 C 24.347656 285.371094 26.519531 271.90625 33.25 270.738281 C 38.488281 269.832031 44.6875 274.402344 44.910156 274.078125 C 45.363281 273.417969 51.085938 257 62.375 254.136719 C 74.390625 251.183594 82.4375 254.246094 93.800781 262.207031 C 102.953125 255.070312 110.242188 242.183594 129.304688 241.824219 C 148.308594 241.527344 163.035156 267.644531 164.015625 270.058594 C 166.425781 270.238281 172.046875 270.214844 176.679688 272.6875 C 180.855469 274.917969 188.078125 282.402344 184.550781 285.558594 Z M 184.550781 285.558594 "/>
<path style=" stroke:none;fill-rule:nonzero;fill:rgb(100%,100%,100%);fill-opacity:0.34902;" d="M 101.15625 71.339844 C 104.113281 69.761719 107.699219 69.777344 109.238281 69.664062 C 109.863281 68.125 119.257812 51.460938 131.378906 51.652344 C 143.542969 51.882812 148.191406 60.101562 154.03125 64.65625 C 161.28125 59.578125 166.414062 57.621094 174.078125 59.507812 C 181.28125 61.332031 184.933594 71.804688 185.222656 72.230469 C 185.363281 72.4375 189.316406 69.519531 192.660156 70.097656 C 196.953125 70.839844 198.339844 79.433594 197.398438 79.433594 C 196.207031 79.433594 98.449219 79.28125 96.136719 79.550781 C 93.886719 77.539062 98.492188 72.761719 101.15625 71.339844 Z M 101.15625 71.339844 "/>
<path style=" stroke:none;fill-rule:nonzero;fill:rgb(100%,100%,100%);fill-opacity:0.25098;" d="M 25.058594 50.109375 C 30.257812 47.332031 36.566406 47.359375 39.269531 47.15625 C 40.371094 44.449219 56.902344 15.136719 78.226562 15.46875 C 99.625 15.875 107.804688 30.335938 118.078125 38.347656 C 130.832031 29.414062 139.859375 25.976562 153.347656 29.292969 C 166.019531 32.5 172.441406 50.929688 172.949219 51.671875 C 173.199219 52.035156 180.15625 46.902344 186.035156 47.921875 C 193.589844 49.230469 196.027344 64.347656 194.375 64.347656 C 192.277344 64.347656 20.292969 64.082031 16.226562 64.554688 C 12.261719 61.011719 20.371094 52.613281 25.058594 50.109375 Z M 25.058594 50.109375 "/>
<path style=" stroke:none;fill-rule:nonzero;fill:rgb(100%,100%,100%);fill-opacity:0.25098;" d="M 26.960938 237.046875 C 32.648438 233.296875 39.554688 233.332031 42.515625 233.058594 C 43.71875 229.402344 61.808594 189.792969 85.144531 190.242188 C 108.5625 190.789062 117.515625 210.328125 128.757812 221.152344 C 142.714844 209.082031 152.59375 204.4375 167.355469 208.917969 C 181.222656 213.257812 188.25 238.152344 188.808594 239.160156 C 189.078125 239.652344 196.695312 232.714844 203.128906 234.09375 C 211.394531 235.859375 214.0625 256.285156 212.253906 256.285156 C 209.957031 256.285156 21.746094 255.925781 17.292969 256.566406 C 12.957031 251.777344 21.828125 240.429688 26.960938 237.046875 Z M 26.960938 237.046875 "/>
<path style=" stroke:none;fill-rule:nonzero;fill:rgb(100%,100%,100%);fill-opacity:0.25098;" d="M 515.714844 275.832031 C 510.664062 275.320312 297.160156 275.605469 294.554688 275.605469 C 292.503906 275.605469 295.527344 259.199219 304.90625 257.78125 C 312.203125 256.675781 320.84375 262.246094 321.152344 261.851562 C 321.785156 261.042969 329.757812 241.042969 345.488281 237.558594 C 362.230469 233.957031 373.4375 237.6875 389.273438 247.386719 C 402.023438 238.691406 412.179688 222.996094 438.742188 222.554688 C 465.21875 222.191406 485.738281 254.011719 487.105469 256.949219 C 490.460938 257.167969 498.292969 257.140625 504.75 260.152344 C 510.570312 262.871094 520.632812 271.988281 515.714844 275.832031 Z M 515.714844 275.832031 "/>
<path style=" stroke:none;fill-rule:nonzero;fill:rgb(100%,100%,100%);fill-opacity:0.34902;" d="M 302.078125 226.558594 C 298.039062 226.089844 127.285156 226.351562 125.203125 226.351562 C 123.5625 226.351562 125.980469 211.34375 133.480469 210.042969 C 139.316406 209.03125 146.226562 214.128906 146.472656 213.769531 C 146.980469 213.027344 153.355469 194.734375 165.933594 191.546875 C 179.324219 188.253906 188.289062 191.667969 200.953125 200.535156 C 211.152344 192.585938 219.273438 178.226562 240.519531 177.824219 C 261.691406 177.492188 278.105469 206.597656 279.195312 209.285156 C 281.878906 209.488281 288.144531 209.460938 293.304688 212.214844 C 297.960938 214.699219 306.011719 223.039062 302.078125 226.558594 Z M 302.078125 226.558594 "/>
<path style=" stroke:none;fill-rule:nonzero;fill:rgb(100%,100%,100%);fill-opacity:0.25098;" d="M 584.722656 65.289062 C 580.382812 64.835938 397.03125 65.089844 394.792969 65.089844 C 393.035156 65.089844 395.632812 50.640625 403.683594 49.390625 C 409.953125 48.417969 417.371094 53.324219 417.632812 52.976562 C 418.179688 52.261719 425.023438 34.652344 438.535156 31.582031 C 452.914062 28.414062 462.539062 31.699219 476.136719 40.238281 C 487.085938 32.582031 495.808594 18.761719 518.621094 18.375 C 541.355469 18.054688 558.980469 46.070312 560.152344 48.660156 C 563.035156 48.851562 569.761719 48.828125 575.304688 51.480469 C 580.300781 53.871094 588.945312 61.902344 584.722656 65.289062 Z M 584.722656 65.289062 "/>
<path style=" stroke:none;fill-rule:nonzero;fill:rgb(100%,100%,100%);fill-opacity:0.34902;" d="M 428.378906 69.046875 C 432.027344 67.101562 436.460938 67.117188 438.359375 66.976562 C 439.128906 65.074219 450.738281 44.488281 465.714844 44.722656 C 480.742188 45.007812 486.488281 55.164062 493.703125 60.789062 C 502.660156 54.515625 509 52.101562 518.472656 54.429688 C 527.371094 56.683594 531.882812 69.625 532.238281 70.148438 C 532.414062 70.402344 537.300781 66.796875 541.429688 67.511719 C 546.734375 68.433594 548.445312 79.046875 547.285156 79.046875 C 545.8125 79.046875 425.03125 78.863281 422.171875 79.195312 C 419.390625 76.707031 425.085938 70.808594 428.378906 69.046875 Z M 428.378906 69.046875 "/>
<path style=" stroke:none;fill-rule:nonzero;fill:rgb(100%,100%,100%);fill-opacity:0.45098;" d="M 150.25 154.351562 C 147.316406 154.007812 23.265625 154.199219 21.75 154.199219 C 20.5625 154.199219 22.316406 143.296875 27.765625 142.355469 C 32.007812 141.617188 37.027344 145.320312 37.203125 145.058594 C 37.574219 144.523438 42.203125 131.230469 51.34375 128.914062 C 61.074219 126.523438 67.585938 129.003906 76.785156 135.445312 C 84.195312 129.667969 90.09375 119.238281 105.527344 118.945312 C 120.910156 118.707031 132.835938 139.847656 133.628906 141.800781 C 135.578125 141.949219 140.128906 141.929688 143.878906 143.929688 C 147.261719 145.738281 153.109375 151.796875 150.25 154.351562 Z M 150.25 154.351562 "/>
<path style=" stroke:none;fill-rule:nonzero;fill:rgb(100%,100%,100%);fill-opacity:0.34902;" d="M 495.195312 204.152344 C 491.4375 203.832031 332.609375 204.011719 330.671875 204.011719 C 329.148438 204.011719 331.394531 193.808594 338.375 192.925781 C 343.800781 192.238281 350.230469 195.703125 350.457031 195.457031 C 350.929688 194.953125 356.859375 182.519531 368.5625 180.351562 C 381.015625 178.113281 389.355469 180.433594 401.132812 186.464844 C 410.621094 181.058594 418.175781 171.300781 437.9375 171.023438 C 457.632812 170.800781 472.898438 190.582031 473.914062 192.410156 C 476.410156 192.546875 482.238281 192.527344 487.039062 194.402344 C 491.367188 196.089844 498.855469 201.757812 495.195312 204.152344 Z M 495.195312 204.152344 "/>
<path style="fill:none;stroke-width:7.5;stroke-linecap:square;stroke-linejoin:miter;stroke:rgb(0%,0%,0%);stroke-opacity:0.505882;stroke-miterlimit:10;" d="M 111.249714 230.108837 C 112.441042 230.770947 113.575918 231.102978 114.658236 231.102978 C 115.744447 231.102978 116.287552 230.681103 116.287552 229.839306 C 116.287552 229.456494 116.131823 229.11665 115.824258 228.823681 C 115.51864 228.528759 114.959961 228.192822 114.142383 227.813916 C 113.324805 227.431103 112.711621 227.132275 112.302832 226.917431 C 111.89599 226.698681 111.352884 226.339306 110.675462 225.841259 C 110.001934 225.343212 109.486081 224.825634 109.127904 224.286572 C 108.111771 222.837353 107.603705 220.989697 107.603705 218.74165 C 107.603705 216.495556 108.436856 214.602978 110.107051 213.061962 C 111.7753 211.518994 113.963294 210.745556 116.667142 210.745556 C 118.506693 210.745556 120.202194 210.944775 121.757539 211.343212 C 123.310938 211.737744 124.112943 212.253369 124.163555 212.890087 C 124.163555 212.966259 124.163555 213.040478 124.163555 213.114697 C 124.163555 214.011181 123.881296 215.142041 123.318724 216.507275 C 122.760046 217.868603 122.36683 218.624462 122.139076 218.778759 C 120.503919 217.936962 119.042012 217.517041 117.751406 217.517041 C 116.466641 217.517041 115.824258 217.974072 115.824258 218.892041 C 115.824258 219.454541 116.297285 219.952587 117.24334 220.386181 C 117.447735 220.49165 117.739727 220.632275 118.11737 220.811962 C 118.500853 220.985791 118.942735 221.196728 119.441068 221.438916 C 119.939401 221.683056 120.47472 221.989697 121.047025 222.358837 C 121.61933 222.727978 122.2403 223.218212 122.907988 223.831494 C 124.256992 225.106884 124.932468 226.790478 124.932468 228.882275 C 124.932468 231.612744 124.181074 233.845166 122.676341 235.579541 C 121.171608 237.311962 118.849297 238.204541 115.711354 238.253369 C 114.181315 238.253369 112.797272 238.126416 111.557279 237.872509 C 110.321179 237.618603 109.242754 237.122509 108.320059 236.386181 C 107.403203 235.643994 106.945749 234.749462 106.945749 233.702587 C 106.945749 232.657666 107.136517 231.618603 107.521947 230.587353 C 107.90543 229.550244 108.312272 228.868603 108.746367 228.538525 C 108.746367 228.538525 110.064225 229.446728 111.249714 230.108837 Z M 129.542051 235.61665 C 127.947774 233.856884 127.149662 231.421337 127.149662 228.308056 C 127.149662 225.192822 127.947774 222.757275 129.542051 220.999462 C 131.136328 219.239697 133.285391 218.360791 135.991185 218.360791 C 138.696979 218.360791 140.838255 219.239697 142.41696 220.999462 C 143.997611 222.757275 144.78599 225.192822 144.78599 228.308056 C 144.78599 231.421337 143.997611 233.856884 142.41696 235.61665 C 140.838255 237.374462 138.696979 238.253369 135.991185 238.253369 C 133.285391 238.253369 131.136328 237.374462 129.542051 235.61665 Z M 129.70362 227.270947 C 129.70362 229.61665 134.566263 231.790478 136.006758 231.790478 C 137.451146 231.790478 138.17334 230.61665 138.17334 228.270947 C 138.17334 225.923291 137.451146 224.749462 136.006758 224.749462 C 136.006758 224.749462 129.70362 224.923291 129.70362 227.270947 Z M 147.316589 218.974072 C 147.316589 218.688916 148.412533 218.548291 150.604421 218.548291 C 152.796309 218.548291 153.892253 218.688916 153.892253 218.974072 L 153.892253 230.145947 C 153.892253 231.421337 154.301042 232.058056 155.11862 232.058056 C 155.731804 232.058056 156.420905 231.790478 157.187871 231.251416 L 157.187871 218.974072 C 157.187871 218.720166 158.272136 218.593212 160.438718 218.593212 C 162.6053 218.593212 163.689564 218.720166 163.689564 218.974072 L 163.689564 231.520947 L 164.684284 231.520947 C 165.550528 231.520947 165.984623 232.351025 165.984623 234.009228 C 165.984623 234.851025 165.807481 235.706494 165.453197 236.571728 C 164.939291 237.692822 164.250189 238.253369 163.383946 238.253369 C 161.674818 238.253369 160.411465 237.55415 159.593887 236.153759 L 159.556901 236.190869 C 158.003503 237.565869 156.331361 238.253369 154.542422 238.253369 C 152.072168 238.253369 150.24819 237.636181 149.072435 236.399853 C 147.90252 235.165478 147.316589 233.11665 147.316589 230.257275 Z M 176.31336 237.642041 C 176.31336 237.819775 175.396504 237.909619 173.562793 237.909619 C 171.012728 237.8354 169.737696 237.696728 169.737696 237.49165 L 169.737696 225.093212 L 168.742975 225.093212 C 168.081127 225.093212 167.647031 224.534619 167.442637 223.413525 C 167.388132 223.079541 167.360879 222.747509 167.360879 222.419384 C 167.360879 221.626416 167.514662 220.8354 167.824173 220.042431 C 168.283574 218.921337 168.996035 218.360791 169.961556 218.360791 C 170.932917 218.360791 171.79916 218.589306 172.562233 219.048291 C 173.329199 219.507275 173.843106 219.964306 174.102005 220.423291 C 175.706016 219.048291 177.615645 218.360791 179.832839 218.360791 C 182.055873 218.360791 183.66183 218.9604 184.652656 220.161572 C 185.649323 221.356884 186.147656 223.319775 186.147656 226.050244 L 186.147656 237.528759 C 186.147656 237.833447 185.057552 237.985791 182.875397 237.985791 C 180.697136 237.985791 179.608978 237.833447 179.608978 237.528759 L 179.608978 226.468212 C 179.608978 225.192822 179.163203 224.556103 178.271654 224.556103 C 178.012754 224.556103 177.654577 224.665478 177.195176 224.884228 C 176.737722 225.099072 176.443783 225.259228 176.31336 225.362744 Z M 199.084857 211.321728 C 199.084857 210.936962 200.091257 210.745556 202.104056 210.745556 C 202.791211 210.745556 203.587377 210.790478 204.494499 210.880322 C 205.401621 210.970166 205.855183 211.089306 205.855183 211.239697 L 205.855183 231.409619 L 207.192507 231.409619 C 207.830996 231.409619 208.251465 231.981884 208.45586 233.128369 C 208.506472 233.4604 208.529831 233.915478 208.529831 234.487744 C 208.529831 235.060009 208.352689 235.755322 208.000352 236.571728 C 207.486446 237.692822 206.668867 238.253369 205.549564 238.253369 C 204.70668 238.253369 203.95918 238.089306 203.307064 237.761181 C 202.658841 237.427197 202.220853 237.081494 201.991153 236.722119 L 201.648548 236.227978 C 200.243093 237.579541 198.481406 238.253369 196.36349 238.253369 C 194.24752 238.253369 192.435222 237.374462 190.932435 235.61665 C 189.427702 233.856884 188.674362 231.403759 188.674362 228.255322 C 188.674362 225.101025 189.464688 222.665478 191.043392 220.946728 C 192.627936 219.222119 194.605697 218.360791 196.976673 218.360791 C 197.663828 218.360791 198.366556 218.438916 199.084857 218.593212 Z M 197.821504 224.481884 C 196.392689 224.481884 195.676335 225.768994 195.676335 228.345166 C 195.676335 229.645947 195.880729 230.583447 196.289518 231.161572 C 196.698307 231.735791 197.151869 232.020947 197.650202 232.020947 C 198.148535 232.020947 198.625456 231.80415 199.084857 231.370556 L 199.084857 224.862744 C 198.650762 224.608837 198.230293 224.481884 197.821504 224.481884 Z M 227.069388 211.530712 C 228.484577 212.05415 229.191198 212.761181 229.191198 213.653759 C 229.191198 214.544384 228.852487 215.6479 228.175065 216.964306 C 227.503483 218.278759 226.937018 218.936962 226.479564 218.936962 C 226.349141 218.936962 226.203145 218.86665 226.037682 218.727978 C 225.874167 218.583447 225.490684 218.42915 224.887233 218.263134 C 224.289623 218.099072 223.77377 218.017041 223.339675 218.017041 C 221.860248 218.017041 220.666973 218.540478 219.75985 219.587353 C 218.858568 220.632275 218.4089 222.233837 218.4089 224.392041 C 218.4089 226.544384 218.872194 228.143994 219.798783 229.188916 C 220.729265 230.235791 221.91086 230.759228 223.339675 230.759228 C 223.927552 230.759228 224.585508 230.677197 225.313542 230.511181 C 226.039629 230.343212 226.555482 230.106884 226.859154 229.802197 C 226.909766 229.747509 227.606654 230.009228 228.025176 230.587353 C 228.449538 231.159619 228.836914 231.911572 229.191198 232.843212 C 229.549375 233.774853 229.73041 234.495556 229.73041 235.003369 C 229.73041 235.999462 228.965391 236.792431 227.435352 237.380322 C 225.905313 237.962353 224.094961 238.253369 222.00235 238.253369 C 218.634707 238.253369 215.866621 237.067822 213.700039 234.696728 C 211.533457 232.325634 210.449193 228.977978 210.449193 224.653759 C 210.449193 220.329541 211.564603 216.931103 213.79737 214.4604 C 216.030137 211.983837 218.813796 210.745556 222.15224 210.745556 C 222.15224 210.745556 225.654199 211.007275 227.069388 211.530712 Z M 239.445964 237.565869 C 239.445964 237.796337 238.145625 237.909619 235.546895 237.909619 C 233.502949 237.886181 232.482923 237.782666 232.482923 237.602978 L 232.482923 211.546337 C 232.482923 211.167431 233.72097 210.977978 236.197064 210.977978 C 238.363646 211.052197 239.445964 211.17915 239.445964 211.358837 Z M 244.555827 235.61665 C 242.96155 233.856884 242.163438 231.421337 242.163438 228.308056 C 242.163438 225.192822 242.96155 222.757275 244.555827 220.999462 C 246.150104 219.239697 248.299167 218.360791 251.004961 218.360791 C 253.710755 218.360791 255.852031 219.239697 257.430736 220.999462 C 259.011387 222.757275 259.799766 225.192822 259.799766 228.308056 C 259.799766 231.421337 259.011387 233.856884 257.430736 235.61665 C 255.852031 237.374462 253.710755 238.253369 251.004961 238.253369 C 248.299167 238.253369 246.150104 237.374462 244.555827 235.61665 Z M 244.575293 228.126416 C 244.575293 230.474072 249.580039 231.790478 251.020534 231.790478 C 252.464922 231.790478 253.187116 230.61665 253.187116 228.270947 C 253.187116 225.923291 252.464922 224.749462 251.020534 224.749462 C 251.020534 224.749462 244.575293 225.780712 244.575293 228.126416 Z M 262.330365 218.974072 C 262.330365 218.688916 263.426309 218.548291 265.618197 218.548291 C 267.810085 218.548291 268.906029 218.688916 268.906029 218.974072 L 268.906029 230.145947 C 268.906029 231.421337 269.314818 232.058056 270.132396 232.058056 C 270.74558 232.058056 271.434681 231.790478 272.201647 231.251416 L 272.201647 218.974072 C 272.201647 218.720166 273.285912 218.593212 275.452494 218.593212 C 277.621022 218.593212 278.70334 218.720166 278.70334 218.974072 L 278.70334 231.520947 L 279.69806 231.520947 C 280.564304 231.520947 280.998399 232.351025 280.998399 234.009228 C 280.998399 234.851025 280.821257 235.706494 280.466973 236.571728 C 279.955013 237.692822 279.263965 238.253369 278.397722 238.253369 C 276.688594 238.253369 275.425241 237.55415 274.607663 236.153759 L 274.570677 236.190869 C 273.017279 237.565869 271.345137 238.253369 269.556198 238.253369 C 267.085944 238.253369 265.261966 237.636181 264.086211 236.399853 C 262.916296 235.165478 262.330365 233.11665 262.330365 230.257275 Z M 293.016797 211.321728 C 293.016797 210.936962 294.023197 210.745556 296.035996 210.745556 C 296.723151 210.745556 297.519317 210.790478 298.426439 210.880322 C 299.333561 210.970166 299.787123 211.089306 299.787123 211.239697 L 299.787123 231.409619 L 301.124447 231.409619 C 301.762936 231.409619 302.183405 231.981884 302.3878 233.128369 C 302.436465 233.4604 302.461771 233.915478 302.461771 234.487744 C 302.461771 235.060009 302.284629 235.755322 301.932292 236.571728 C 301.418386 237.692822 300.600807 238.253369 299.481504 238.253369 C 298.63862 238.253369 297.89112 238.089306 297.239004 237.761181 C 296.590781 237.427197 296.152793 237.081494 295.923093 236.722119 L 295.580488 236.227978 C 294.175033 237.579541 292.413347 238.253369 290.29543 238.253369 C 288.17946 238.253369 286.367162 237.374462 284.864375 235.61665 C 283.359642 233.856884 282.606302 231.403759 282.606302 228.255322 C 282.606302 225.101025 283.396628 222.665478 284.975332 220.946728 C 286.559877 219.222119 288.537637 218.360791 290.908613 218.360791 C 291.595768 218.360791 292.298496 218.438916 293.016797 218.593212 Z M 291.753444 224.481884 C 290.324629 224.481884 289.608275 225.768994 289.608275 228.345166 C 289.608275 229.645947 289.812669 230.583447 290.221459 231.161572 C 290.630248 231.735791 291.083809 232.020947 291.582142 232.020947 C 292.080475 232.020947 292.557396 231.80415 293.016797 231.370556 L 293.016797 224.862744 C 292.582702 224.608837 292.162233 224.481884 291.753444 224.481884 Z M 330.315879 237.946728 C 328.100632 237.946728 326.901517 237.591259 326.722429 236.878369 L 325.459076 231.938916 L 319.375905 231.938916 L 318.270228 236.685009 C 318.116446 237.476025 316.890078 237.872509 314.593073 237.872509 C 313.368653 237.872509 312.46153 237.802197 311.873653 237.663525 C 311.289668 237.524853 310.999623 237.415478 310.999623 237.3354 L 317.769948 211.433056 C 317.769948 211.229931 319.516061 211.126416 323.008288 211.126416 C 326.506354 211.126416 328.254414 211.229931 328.254414 211.433056 L 334.87485 237.372509 C 334.87485 237.552197 334.286973 237.692822 333.111218 237.798291 C 331.941302 237.8979 331.008874 237.946728 330.315879 237.946728 Z M 320.33364 227.081494 L 324.353399 227.081494 L 322.626752 219.161572 L 322.402891 219.161572 Z M 340.724427 237.946728 C 338.406009 237.946728 337.247774 237.692822 337.247774 237.185009 L 337.247774 212.390087 C 337.247774 211.5229 337.642936 211.089306 338.429369 211.089306 L 345.162709 211.089306 C 348.939141 211.089306 351.660508 211.868603 353.330703 213.42915 C 355.004792 214.983837 355.841836 217.239697 355.841836 220.198681 C 355.841836 222.645947 355.049564 224.890087 353.46502 226.933056 C 352.678587 227.948681 351.516459 228.763134 349.982526 229.376416 C 348.452487 229.989697 346.669388 230.294384 344.631283 230.294384 L 344.631283 237.1479 C 344.631283 237.452587 344.154362 237.661572 343.196628 237.774853 C 342.24084 237.890087 341.415475 237.946728 340.724427 237.946728 Z M 344.631283 217.747509 L 344.631283 223.794384 L 345.125723 223.794384 C 346.017272 223.794384 346.768666 223.515087 347.381849 222.956494 C 347.995033 222.393994 348.300651 221.601025 348.300651 220.579541 C 348.300651 219.560009 348.08847 218.831494 347.666055 218.3979 C 347.247533 217.964306 346.501979 217.747509 345.431341 217.747509 Z M 361.732292 217.673291 L 359.012871 217.673291 C 358.578776 217.673291 358.275104 217.122509 358.101856 216.0229 C 358.022044 215.489697 357.981166 214.942822 357.981166 214.386181 C 357.981166 213.821728 358.022044 213.2729 358.101856 212.733837 C 358.275104 211.638134 358.578776 211.089306 359.012871 211.089306 L 371.874154 211.089306 C 372.306302 211.089306 372.598294 211.638134 372.748184 212.733837 C 372.853301 213.2729 372.90586 213.821728 372.90586 214.386181 C 372.90586 214.942822 372.853301 215.489697 372.748184 216.0229 C 372.598294 217.122509 372.306302 217.673291 371.874154 217.673291 L 369.310462 217.673291 L 369.310462 231.288525 L 371.985111 231.288525 C 372.419206 231.288525 372.724824 231.839306 372.90586 232.940869 C 373.005137 233.474072 373.053802 234.020947 373.053802 234.5854 C 373.053802 235.142041 373.005137 235.690869 372.90586 236.227978 C 372.724824 237.325634 372.419206 237.872509 371.985111 237.872509 L 359.094629 237.872509 C 358.662481 237.872509 358.368542 237.325634 358.212813 236.227978 C 358.107696 235.690869 358.057084 235.142041 358.057084 234.5854 C 358.057084 234.020947 358.107696 233.474072 358.212813 232.940869 C 358.368542 231.839306 359.947246 228.575634 360.381341 228.575634 Z M 361.732292 217.673291 " transform="matrix(2.006689,0,0,2,-181.524823,-210.4833)"/>
<path style=" stroke:none;fill-rule:nonzero;fill:rgb(100%,100%,100%);fill-opacity:1;" d="M 36.695312 246.59375 C 37.664062 247.363281 39.339844 248.410156 41.71875 249.734375 C 44.109375 251.058594 46.386719 251.722656 48.558594 251.722656 C 50.738281 251.722656 51.828125 250.878906 51.828125 249.195312 C 51.828125 248.429688 51.515625 247.75 50.898438 247.164062 C 50.285156 246.574219 49.164062 245.902344 47.523438 245.144531 C 45.882812 244.378906 44.652344 243.78125 43.832031 243.351562 C 43.015625 242.914062 41.925781 242.195312 40.566406 241.199219 C 39.214844 240.203125 38.179688 239.167969 37.460938 238.089844 C 35.421875 235.191406 34.402344 231.496094 34.402344 227 C 34.402344 222.507812 36.074219 218.722656 39.425781 215.640625 C 42.773438 212.554688 47.164062 211.007812 52.589844 211.007812 C 56.28125 211.007812 59.683594 211.40625 62.804688 212.203125 C 65.921875 212.992188 67.53125 214.023438 67.632812 215.296875 C 67.632812 215.449219 67.632812 215.597656 67.632812 215.746094 C 67.632812 217.539062 67.066406 219.800781 65.9375 222.53125 C 64.816406 225.253906 64.027344 226.765625 63.570312 227.074219 C 60.289062 225.390625 57.355469 224.550781 54.765625 224.550781 C 52.1875 224.550781 50.898438 225.464844 50.898438 227.300781 C 50.898438 228.425781 51.847656 229.421875 53.746094 230.289062 C 54.15625 230.5 54.742188 230.78125 55.5 231.140625 C 56.269531 231.488281 57.15625 231.910156 58.15625 232.398438 C 59.15625 232.882812 60.230469 233.496094 61.378906 234.234375 C 62.527344 234.972656 63.773438 235.953125 65.113281 237.179688 C 67.820312 239.730469 69.175781 243.097656 69.175781 247.28125 C 69.175781 252.742188 67.667969 257.207031 64.648438 260.675781 C 61.628906 264.140625 56.96875 265.925781 50.671875 266.023438 C 47.601562 266.023438 44.824219 265.769531 42.335938 265.261719 C 39.855469 264.753906 37.691406 263.761719 35.839844 262.289062 C 34 260.804688 33.082031 259.015625 33.082031 256.921875 C 33.082031 254.832031 33.464844 252.753906 34.238281 250.691406 C 35.007812 248.617188 35.824219 247.253906 36.695312 246.59375 Z M 78.425781 260.75 C 75.226562 257.230469 73.625 252.359375 73.625 246.132812 C 73.625 239.902344 75.226562 235.03125 78.425781 231.515625 C 81.625 227.996094 85.9375 226.238281 91.367188 226.238281 C 96.796875 226.238281 101.09375 227.996094 104.261719 231.515625 C 107.433594 235.03125 109.015625 239.902344 109.015625 246.132812 C 109.015625 252.359375 107.433594 257.230469 104.261719 260.75 C 101.09375 264.265625 96.796875 266.023438 91.367188 266.023438 C 85.9375 266.023438 81.625 264.265625 78.425781 260.75 Z M 91.398438 239.015625 C 88.507812 239.015625 87.0625 241.363281 87.0625 246.058594 C 87.0625 250.75 88.507812 253.097656 91.398438 253.097656 C 94.296875 253.097656 95.746094 250.75 95.746094 246.058594 C 95.746094 241.363281 94.296875 239.015625 91.398438 239.015625 Z M 114.09375 227.464844 C 114.09375 226.894531 116.292969 226.613281 120.691406 226.613281 C 125.089844 226.613281 127.289062 226.894531 127.289062 227.464844 L 127.289062 249.808594 C 127.289062 252.359375 128.109375 253.632812 129.75 253.632812 C 130.980469 253.632812 132.363281 253.097656 133.902344 252.019531 L 133.902344 227.464844 C 133.902344 226.957031 136.078125 226.703125 140.425781 226.703125 C 144.773438 226.703125 146.949219 226.957031 146.949219 227.464844 L 146.949219 252.558594 L 148.945312 252.558594 C 150.683594 252.558594 151.554688 254.21875 151.554688 257.535156 C 151.554688 259.21875 151.199219 260.929688 150.488281 262.660156 C 149.457031 264.902344 148.074219 266.023438 146.335938 266.023438 C 142.90625 266.023438 140.371094 264.625 138.730469 261.824219 L 138.65625 261.898438 C 135.539062 264.648438 132.183594 266.023438 128.59375 266.023438 C 123.636719 266.023438 119.976562 264.789062 117.617188 262.316406 C 115.269531 259.847656 114.09375 255.75 114.09375 250.03125 Z M 172.28125 264.800781 C 172.28125 265.15625 170.441406 265.335938 166.761719 265.335938 C 161.644531 265.1875 159.085938 264.910156 159.085938 264.5 L 159.085938 239.703125 L 157.089844 239.703125 C 155.761719 239.703125 154.890625 238.585938 154.480469 236.34375 C 154.371094 235.675781 154.316406 235.011719 154.316406 234.355469 C 154.316406 232.769531 154.625 231.1875 155.246094 229.601562 C 156.167969 227.359375 157.597656 226.238281 159.535156 226.238281 C 161.484375 226.238281 163.222656 226.695312 164.753906 227.613281 C 166.292969 228.53125 167.324219 229.445312 167.84375 230.363281 C 171.0625 227.613281 174.894531 226.238281 179.34375 226.238281 C 183.804688 226.238281 187.027344 227.4375 189.015625 229.839844 C 191.015625 232.230469 192.015625 236.15625 192.015625 241.617188 L 192.015625 264.574219 C 192.015625 265.183594 189.828125 265.488281 185.449219 265.488281 C 181.078125 265.488281 178.894531 265.183594 178.894531 264.574219 L 178.894531 242.453125 C 178.894531 239.902344 178 238.628906 176.210938 238.628906 C 175.691406 238.628906 174.972656 238.847656 174.050781 239.285156 C 173.132812 239.714844 172.542969 240.035156 172.28125 240.242188 Z M 217.976562 212.160156 C 217.976562 211.390625 219.996094 211.007812 224.035156 211.007812 C 225.414062 211.007812 227.011719 211.097656 228.832031 211.277344 C 230.652344 211.457031 231.5625 211.695312 231.5625 211.996094 L 231.5625 252.335938 L 234.246094 252.335938 C 235.527344 252.335938 236.371094 253.480469 236.78125 255.773438 C 236.882812 256.4375 236.929688 257.347656 236.929688 258.492188 C 236.929688 259.636719 236.574219 261.027344 235.867188 262.660156 C 234.835938 264.902344 233.195312 266.023438 230.949219 266.023438 C 229.257812 266.023438 227.757812 265.695312 226.449219 265.039062 C 225.148438 264.371094 224.269531 263.679688 223.808594 262.960938 L 223.121094 261.972656 C 220.300781 264.675781 216.765625 266.023438 212.515625 266.023438 C 208.269531 266.023438 204.632812 264.265625 201.617188 260.75 C 198.597656 257.230469 197.085938 252.324219 197.085938 246.027344 C 197.085938 239.71875 198.671875 234.847656 201.839844 231.410156 C 205.019531 227.960938 208.988281 226.238281 213.746094 226.238281 C 215.125 226.238281 216.535156 226.394531 217.976562 226.703125 Z M 215.441406 238.480469 C 212.574219 238.480469 211.136719 241.054688 211.136719 246.207031 C 211.136719 248.808594 211.546875 250.683594 212.367188 251.839844 C 213.1875 252.988281 214.097656 253.558594 215.097656 253.558594 C 216.097656 253.558594 217.054688 253.125 217.976562 252.257812 L 217.976562 239.242188 C 217.105469 238.734375 216.261719 238.480469 215.441406 238.480469 Z M 264.265625 211.007812 C 268.003906 211.007812 271.292969 211.53125 274.132812 212.578125 C 276.972656 213.625 278.390625 215.039062 278.390625 216.824219 C 278.390625 218.605469 277.710938 220.8125 276.351562 223.445312 C 275.003906 226.074219 273.867188 227.390625 272.949219 227.390625 C 272.6875 227.390625 272.394531 227.25 272.0625 226.972656 C 271.734375 226.683594 270.964844 226.375 269.753906 226.042969 C 268.554688 225.714844 267.519531 225.550781 266.648438 225.550781 C 263.679688 225.550781 261.285156 226.597656 259.464844 228.691406 C 257.65625 230.78125 256.753906 233.984375 256.753906 238.300781 C 256.753906 242.605469 257.683594 245.804688 259.542969 247.894531 C 261.410156 249.988281 263.78125 251.035156 266.648438 251.035156 C 267.828125 251.035156 269.148438 250.871094 270.609375 250.539062 C 272.066406 250.203125 273.101562 249.730469 273.710938 249.121094 C 273.8125 249.011719 274.019531 248.957031 274.328125 248.957031 C 274.636719 248.957031 275.210938 249.535156 276.050781 250.691406 C 276.902344 251.835938 277.683594 253.339844 278.390625 255.203125 C 279.109375 257.066406 279.472656 258.507812 279.472656 259.523438 C 279.472656 261.515625 277.9375 263.101562 274.867188 264.277344 C 271.796875 265.441406 268.164062 266.023438 263.964844 266.023438 C 257.207031 266.023438 251.652344 263.652344 247.304688 258.910156 C 242.957031 254.167969 240.78125 247.472656 240.78125 238.824219 C 240.78125 230.175781 243.019531 223.378906 247.5 218.4375 C 251.980469 213.484375 257.566406 211.007812 264.265625 211.007812 Z M 298.96875 264.648438 C 298.96875 265.109375 296.359375 265.335938 291.144531 265.335938 C 287.042969 265.289062 284.996094 265.082031 284.996094 264.722656 L 284.996094 212.609375 C 284.996094 211.851562 287.480469 211.472656 292.449219 211.472656 C 296.796875 211.621094 298.96875 211.875 298.96875 212.234375 Z M 309.222656 260.75 C 306.023438 257.230469 304.421875 252.359375 304.421875 246.132812 C 304.421875 239.902344 306.023438 235.03125 309.222656 231.515625 C 312.421875 227.996094 316.734375 226.238281 322.164062 226.238281 C 327.59375 226.238281 331.890625 227.996094 335.058594 231.515625 C 338.230469 235.03125 339.8125 239.902344 339.8125 246.132812 C 339.8125 252.359375 338.230469 257.230469 335.058594 260.75 C 331.890625 264.265625 327.59375 266.023438 322.164062 266.023438 C 316.734375 266.023438 312.421875 264.265625 309.222656 260.75 Z M 322.195312 239.015625 C 319.304688 239.015625 317.859375 241.363281 317.859375 246.058594 C 317.859375 250.75 319.304688 253.097656 322.195312 253.097656 C 325.09375 253.097656 326.542969 250.75 326.542969 246.058594 C 326.542969 241.363281 325.09375 239.015625 322.195312 239.015625 Z M 344.890625 227.464844 C 344.890625 226.894531 347.089844 226.613281 351.488281 226.613281 C 355.886719 226.613281 358.085938 226.894531 358.085938 227.464844 L 358.085938 249.808594 C 358.085938 252.359375 358.90625 253.632812 360.546875 253.632812 C 361.777344 253.632812 363.160156 253.097656 364.699219 252.019531 L 364.699219 227.464844 C 364.699219 226.957031 366.875 226.703125 371.222656 226.703125 C 375.574219 226.703125 377.746094 226.957031 377.746094 227.464844 L 377.746094 252.558594 L 379.742188 252.558594 C 381.480469 252.558594 382.351562 254.21875 382.351562 257.535156 C 382.351562 259.21875 381.996094 260.929688 381.285156 262.660156 C 380.257812 264.902344 378.871094 266.023438 377.132812 266.023438 C 373.703125 266.023438 371.167969 264.625 369.527344 261.824219 L 369.453125 261.898438 C 366.335938 264.648438 362.980469 266.023438 359.390625 266.023438 C 354.433594 266.023438 350.773438 264.789062 348.414062 262.316406 C 346.066406 259.847656 344.890625 255.75 344.890625 250.03125 Z M 406.46875 212.160156 C 406.46875 211.390625 408.488281 211.007812 412.527344 211.007812 C 413.90625 211.007812 415.503906 211.097656 417.324219 211.277344 C 419.144531 211.457031 420.054688 211.695312 420.054688 211.996094 L 420.054688 252.335938 L 422.738281 252.335938 C 424.019531 252.335938 424.863281 253.480469 425.273438 255.773438 C 425.371094 256.4375 425.421875 257.347656 425.421875 258.492188 C 425.421875 259.636719 425.066406 261.027344 424.359375 262.660156 C 423.328125 264.902344 421.6875 266.023438 419.441406 266.023438 C 417.75 266.023438 416.25 265.695312 414.941406 265.039062 C 413.640625 264.371094 412.761719 263.679688 412.300781 262.960938 L 411.613281 261.972656 C 408.792969 264.675781 405.257812 266.023438 401.007812 266.023438 C 396.761719 266.023438 393.125 264.265625 390.109375 260.75 C 387.089844 257.230469 385.578125 252.324219 385.578125 246.027344 C 385.578125 239.71875 387.164062 234.847656 390.332031 231.410156 C 393.511719 227.960938 397.480469 226.238281 402.238281 226.238281 C 403.617188 226.238281 405.027344 226.394531 406.46875 226.703125 Z M 403.933594 238.480469 C 401.066406 238.480469 399.628906 241.054688 399.628906 246.207031 C 399.628906 248.808594 400.039062 250.683594 400.859375 251.839844 C 401.679688 252.988281 402.589844 253.558594 403.589844 253.558594 C 404.589844 253.558594 405.546875 253.125 406.46875 252.257812 L 406.46875 239.242188 C 405.597656 238.734375 404.753906 238.480469 403.933594 238.480469 Z M 481.316406 265.410156 C 476.871094 265.410156 474.464844 264.699219 474.105469 263.273438 L 471.570312 253.394531 L 459.363281 253.394531 L 457.144531 262.886719 C 456.835938 264.46875 454.375 265.261719 449.765625 265.261719 C 447.308594 265.261719 445.488281 265.121094 444.308594 264.84375 C 443.136719 264.566406 442.554688 264.347656 442.554688 264.1875 L 456.140625 212.382812 C 456.140625 211.976562 459.644531 211.769531 466.652344 211.769531 C 473.671875 211.769531 477.179688 211.976562 477.179688 212.382812 L 490.464844 264.261719 C 490.464844 264.621094 489.285156 264.902344 486.925781 265.113281 C 484.578125 265.3125 482.707031 265.410156 481.316406 265.410156 Z M 461.285156 243.679688 L 469.351562 243.679688 L 465.886719 227.839844 L 465.4375 227.839844 Z M 502.203125 265.410156 C 497.550781 265.410156 495.226562 264.902344 495.226562 263.886719 L 495.226562 214.296875 C 495.226562 212.5625 496.019531 211.695312 497.597656 211.695312 L 511.109375 211.695312 C 518.6875 211.695312 524.148438 213.253906 527.5 216.375 C 530.859375 219.484375 532.539062 223.996094 532.539062 229.914062 C 532.539062 234.808594 530.949219 239.296875 527.769531 243.382812 C 526.191406 245.414062 523.859375 247.042969 520.78125 248.269531 C 517.710938 249.496094 514.132812 250.105469 510.042969 250.105469 L 510.042969 263.8125 C 510.042969 264.421875 509.085938 264.839844 507.164062 265.066406 C 505.246094 265.296875 503.589844 265.410156 502.203125 265.410156 Z M 510.042969 225.011719 L 510.042969 237.105469 L 511.035156 237.105469 C 512.824219 237.105469 514.332031 236.546875 515.5625 235.429688 C 516.792969 234.304688 517.40625 232.71875 517.40625 230.675781 C 517.40625 228.636719 516.980469 227.179688 516.132812 226.3125 C 515.292969 225.445312 513.796875 225.011719 511.648438 225.011719 Z M 544.359375 252.09375 L 544.359375 224.863281 L 538.902344 224.863281 C 538.03125 224.863281 537.421875 223.761719 537.074219 221.5625 C 536.914062 220.496094 536.832031 219.402344 536.832031 218.289062 C 536.832031 217.160156 536.914062 216.058594 537.074219 214.984375 C 537.421875 212.792969 538.03125 211.695312 538.902344 211.695312 L 564.710938 211.695312 C 565.578125 211.695312 566.164062 212.792969 566.464844 214.984375 C 566.675781 216.058594 566.78125 217.160156 566.78125 218.289062 C 566.78125 219.402344 566.675781 220.496094 566.464844 221.5625 C 566.164062 223.761719 565.578125 224.863281 564.710938 224.863281 L 559.566406 224.863281 L 559.566406 252.09375 L 564.933594 252.09375 C 565.804688 252.09375 566.417969 253.195312 566.78125 255.398438 C 566.980469 256.464844 567.078125 257.558594 567.078125 258.6875 C 567.078125 259.800781 566.980469 260.898438 566.78125 261.972656 C 566.417969 264.167969 565.804688 265.261719 564.933594 265.261719 L 539.066406 265.261719 C 538.199219 265.261719 537.609375 264.167969 537.296875 261.972656 C 537.085938 260.898438 536.984375 259.800781 536.984375 258.6875 C 536.984375 257.558594 537.085938 256.464844 537.296875 255.398438 C 537.609375 253.195312 538.199219 252.09375 539.066406 252.09375 Z M 544.359375 252.09375 "/>
<path style=" stroke:none;fill-rule:nonzero;fill:rgb(0%,0%,0%);fill-opacity:0.501961;" d="M 277.503906 66.816406 C 277.503906 66.816406 278.695312 65.3125 279.316406 64.578125 C 283.09375 52.773438 309.628906 40.046875 329.269531 40.550781 C 364.578125 41.457031 388.59375 62.792969 391.242188 88.261719 C 391.292969 89.027344 402.582031 84.394531 419.21875 94.414062 C 436.859375 105.039062 438.296875 115.226562 437.65625 132.253906 C 436.730469 156.78125 413.382812 166.375 407.261719 167.65625 C 400.191406 169.132812 206.957031 167.210938 206.957031 167.210938 C 206.957031 167.210938 173.054688 164.804688 167.601562 153.417969 C 162.148438 142.027344 161.082031 128.492188 167.082031 114.207031 C 178.605469 86.789062 211.898438 93.761719 211.898438 93.761719 C 211.898438 93.761719 219.480469 69.644531 250.699219 63.753906 C 270.789062 59.964844 277.503906 66.816406 277.503906 66.816406 Z M 277.503906 66.816406 "/>
<path style=" stroke:none;fill-rule:nonzero;fill:rgb(100%,100%,100%);fill-opacity:1;" d="M 183.648438 106.605469 C 184.203125 106.605469 184.640625 107.042969 184.726562 107.652344 L 187.609375 130.722656 L 184.726562 153.296875 C 184.640625 153.90625 184.203125 154.34375 183.648438 154.34375 C 183.097656 154.34375 182.660156 153.90625 182.570312 153.296875 L 180.039062 130.722656 L 182.570312 107.652344 C 182.660156 107.042969 183.097656 106.605469 183.648438 106.605469 "/>
<path style=" stroke:none;fill-rule:nonzero;fill:rgb(100%,100%,100%);fill-opacity:1;" d="M 174.128906 115.457031 C 174.652344 115.457031 175.089844 115.863281 175.148438 116.445312 L 177.390625 130.722656 L 175.148438 144.765625 C 175.089844 145.347656 174.652344 145.753906 174.128906 145.753906 C 173.574219 145.753906 173.167969 145.347656 173.082031 144.765625 L 171.1875 130.75 L 173.082031 116.472656 C 173.167969 115.863281 173.605469 115.457031 174.128906 115.457031 "/>
<path style=" stroke:none;fill-rule:nonzero;fill:rgb(100%,100%,100%);fill-opacity:1;" d="M 193.808594 102.082031 C 194.480469 102.082031 195.003906 102.601562 195.089844 103.386719 L 197.828125 130.75 L 195.089844 157.128906 C 195.03125 157.855469 194.480469 158.375 193.808594 158.375 C 193.140625 158.375 192.585938 157.824219 192.527344 157.097656 L 190.113281 130.722656 L 192.527344 103.355469 C 192.585938 102.601562 193.140625 102.082031 193.808594 102.082031 "/>
<path style=" stroke:none;fill-rule:nonzero;fill:rgb(100%,100%,100%);fill-opacity:1;" d="M 204 101.121094 C 204.785156 101.121094 205.425781 101.761719 205.515625 102.574219 L 208.105469 130.722656 L 205.515625 157.941406 C 205.425781 158.78125 204.785156 159.421875 204 159.421875 C 203.214844 159.421875 202.542969 158.78125 202.488281 157.941406 L 200.214844 130.722656 L 202.488281 102.601562 C 202.542969 101.761719 203.214844 101.121094 204 101.121094 "/>
<path style=" stroke:none;fill-rule:nonzero;fill:rgb(100%,100%,100%);fill-opacity:1;" d="M 218.472656 130.75 L 216.023438 158.171875 C 215.96875 159.160156 215.238281 159.886719 214.308594 159.886719 C 213.375 159.886719 212.617188 159.128906 212.558594 158.171875 L 210.40625 130.75 L 212.558594 104.664062 C 212.617188 103.675781 213.375 102.949219 214.308594 102.949219 C 215.210938 102.949219 215.96875 103.675781 216.023438 104.632812 Z M 218.472656 130.75 "/>
<path style=" stroke:none;fill-rule:nonzero;fill:rgb(100%,100%,100%);fill-opacity:1;" d="M 224.671875 86.351562 C 225.691406 86.351562 226.566406 87.195312 226.625 88.269531 L 228.894531 130.722656 L 226.625 158.144531 C 226.566406 159.21875 225.691406 160.058594 224.671875 160.058594 C 223.625 160.058594 222.78125 159.21875 222.722656 158.144531 L 220.710938 130.722656 L 222.722656 88.269531 C 222.78125 87.195312 223.625 86.351562 224.671875 86.351562 "/>
<path style=" stroke:none;fill-rule:nonzero;fill:rgb(100%,100%,100%);fill-opacity:1;" d="M 234.980469 76.574219 C 236.113281 76.574219 237.074219 77.53125 237.164062 78.691406 L 239.289062 130.867188 L 237.164062 158.144531 C 237.105469 159.363281 236.144531 160.292969 234.980469 160.292969 C 233.785156 160.292969 232.855469 159.332031 232.796875 158.144531 L 230.902344 130.894531 L 232.796875 78.722656 C 232.855469 77.503906 233.816406 76.574219 234.980469 76.574219 "/>
<path style=" stroke:none;fill-rule:nonzero;fill:rgb(100%,100%,100%);fill-opacity:1;" d="M 245.664062 71.871094 C 246.945312 71.871094 247.992188 72.917969 248.050781 74.28125 L 250.03125 130.808594 L 248.050781 157.796875 L 248.050781 157.765625 C 247.992188 159.074219 246.945312 160.117188 245.664062 160.117188 C 244.355469 160.117188 243.304688 159.074219 243.277344 157.765625 L 241.53125 130.78125 L 243.277344 74.253906 C 243.304688 72.917969 244.355469 71.871094 245.664062 71.871094 "/>
<path style=" stroke:none;fill-rule:nonzero;fill:rgb(100%,100%,100%);fill-opacity:1;" d="M 260.746094 130.75 L 258.910156 157.5625 C 258.855469 159.015625 257.71875 160.144531 256.292969 160.144531 C 254.863281 160.144531 253.730469 158.984375 253.671875 157.5625 L 252.039062 130.75 L 253.671875 72.335938 C 253.730469 70.886719 254.863281 69.753906 256.292969 69.753906 C 257.71875 69.753906 258.855469 70.886719 258.910156 72.335938 Z M 260.746094 130.75 "/>
<path style=" stroke:none;fill-rule:nonzero;fill:rgb(100%,100%,100%);fill-opacity:1;" d="M 267.007812 71.03125 C 268.550781 71.03125 269.773438 72.25 269.832031 73.816406 L 271.519531 130.75 L 269.832031 157.332031 L 269.832031 157.300781 C 269.800781 158.871094 268.550781 160.117188 267.007812 160.117188 C 265.464844 160.117188 264.210938 158.898438 264.183594 157.332031 L 262.695312 130.78125 L 264.183594 73.847656 C 264.210938 72.25 265.464844 71.03125 267.007812 71.03125 "/>
<path style=" stroke:none;fill-rule:nonzero;fill:rgb(100%,100%,100%);fill-opacity:1;" d="M 277.808594 72.886719 C 279.46875 72.886719 280.808594 74.222656 280.863281 75.90625 L 282.40625 130.75 L 280.863281 157.15625 L 280.863281 157.128906 C 280.835938 158.8125 279.46875 160.144531 277.808594 160.144531 C 276.121094 160.144531 274.78125 158.8125 274.75 157.128906 L 273.382812 130.75 L 274.75 75.90625 C 274.78125 74.222656 276.121094 72.886719 277.808594 72.886719 "/>
<path style=" stroke:none;fill-rule:nonzero;fill:rgb(100%,100%,100%);fill-opacity:1;" d="M 290.472656 62.789062 C 291.347656 63.398438 291.929688 64.386719 291.988281 65.488281 L 293.355469 130.75 L 292.105469 154.371094 L 291.957031 156.953125 C 291.929688 157.855469 291.550781 158.667969 290.96875 159.246094 C 290.355469 159.828125 289.570312 160.203125 288.667969 160.203125 C 287.648438 160.203125 286.777344 159.738281 286.164062 159.015625 C 285.726562 158.492188 285.4375 157.796875 285.40625 157.070312 L 285.40625 156.953125 L 284.183594 130.722656 L 285.40625 66.097656 L 285.40625 65.488281 C 285.4375 64.355469 286.019531 63.339844 286.921875 62.761719 C 287.414062 62.441406 288.027344 62.238281 288.667969 62.238281 C 289.335938 62.238281 289.949219 62.441406 290.472656 62.789062 "/>
<path style=" stroke:none;fill-rule:nonzero;fill:rgb(100%,100%,100%);fill-opacity:1;" d="M 301.304688 56.609375 C 302.292969 57.21875 302.992188 58.320312 303.023438 59.539062 L 304.566406 130.75 L 303.023438 156.578125 L 303.023438 156.546875 C 302.992188 158.464844 301.421875 160.03125 299.527344 160.03125 C 297.636719 160.03125 296.0625 158.464844 296.035156 156.578125 L 295.335938 143.835938 L 294.609375 130.75 L 296.035156 59.917969 L 296.035156 59.570312 C 296.035156 58.496094 296.558594 57.539062 297.316406 56.898438 C 297.925781 56.40625 298.683594 56.117188 299.527344 56.117188 C 300.167969 56.117188 300.78125 56.289062 301.304688 56.609375 "/>
<path style=" stroke:none;fill-rule:nonzero;fill:rgb(100%,100%,100%);fill-opacity:1;" d="M 397.296875 97.089844 C 414.824219 97.089844 429.03125 111.222656 429.03125 128.660156 C 429.03125 146.128906 414.824219 160.117188 397.328125 160.117188 L 309.425781 160.117188 C 307.535156 159.941406 306.019531 158.433594 305.992188 156.488281 L 305.992188 56.203125 C 306.019531 54.375 306.660156 53.417969 309.046875 52.488281 C 315.222656 50.109375 322.179688 48.714844 329.34375 48.714844 C 358.542969 48.714844 382.507812 71.058594 385.039062 99.527344 C 388.796875 97.960938 392.957031 97.089844 397.296875 97.089844 "/>
</g>
</svg>
