<?xml version="1.0" encoding="UTF-8"?>
<svg xmlns="http://www.w3.org/2000/svg" xmlns:xlink="http://www.w3.org/1999/xlink" width="600px" height="300px" viewBox="0 0 600 300" version="1.1">
<g id="surface1">
<rect x="0" y="0" width="600" height="300" style="fill:rgb(5.882353%,41.568627%,18.431373%);fill-opacity:1;stroke:none;"/>
<path style=" stroke:none;fill-rule:nonzero;fill:rgb(7.45098%,52.54902%,23.137255%);fill-opacity:1;" d="M 40.765625 103.621094 C 40.765625 66.796875 48.378906 31.757812 62.109375 0 L 538.894531 0 C 552.625 31.757812 560.234375 66.796875 560.234375 103.621094 C 560.234375 182.234375 525.542969 252.71875 470.679688 300.5 L 130.320312 300.5 C 75.457031 252.71875 40.765625 182.234375 40.765625 103.621094 Z M 40.765625 103.621094 "/>
<path style=" stroke:none;fill-rule:nonzero;fill:rgb(8.627451%,60.392157%,26.666667%);fill-opacity:1;" d="M 110.992188 103.621094 C 110.992188 65.398438 122.234375 29.808594 141.578125 0 L 459.421875 0 C 478.769531 29.808594 490.007812 65.398438 490.007812 103.621094 C 490.007812 208.632812 405.164062 293.765625 300.5 293.765625 C 195.839844 293.765625 110.992188 208.632812 110.992188 103.621094 Z M 110.992188 103.621094 "/>
<path style=" stroke:none;fill-rule:nonzero;fill:rgb(9.803922%,70.588235%,31.372549%);fill-opacity:1;" d="M 163.445312 103.621094 C 163.445312 62.285156 181.621094 25.207031 210.390625 0 L 390.609375 0 C 419.382812 25.207031 437.558594 62.285156 437.558594 103.621094 C 437.558594 179.570312 376.195312 241.136719 300.5 241.136719 C 224.804688 241.136719 163.445312 179.570312 163.445312 103.621094 Z M 163.445312 103.621094 "/>
<path style="fill:none;stroke-width:7.5;stroke-linecap:butt;stroke-linejoin:miter;stroke:rgb(0%,0%,0%);stroke-opacity:0.505882;stroke-miterlimit:10;" d="M 276.290382 156.840973 C 276.290382 176.874489 260.032257 193.130622 239.999647 193.130622 C 219.967036 193.130622 203.708911 176.874489 203.708911 156.840973 C 203.708911 136.807458 219.967036 120.551325 239.999647 120.551325 C 260.032257 120.551325 276.290382 136.807458 276.290382 156.840973 Z M 276.290382 156.840973 " transform="matrix(2.006689,0,0,2.013423,-181.104642,-212.166101)"/>
<path style=" stroke:none;fill-rule:nonzero;fill:rgb(11.764706%,84.313725%,37.647059%);fill-opacity:1;" d="M 373.324219 103.621094 C 373.324219 143.957031 340.699219 176.6875 300.5 176.6875 C 260.300781 176.6875 227.675781 143.957031 227.675781 103.621094 C 227.675781 63.285156 260.300781 30.554688 300.5 30.554688 C 340.699219 30.554688 373.324219 63.285156 373.324219 103.621094 Z M 373.324219 103.621094 "/>
<path style=" stroke:none;fill-rule:nonzero;fill:rgb(0%,0%,0%);fill-opacity:1;" d="M 347.074219 96.285156 C 345.546875 96.285156 344.605469 95.902344 343.285156 95.136719 C 322.378906 82.613281 284.996094 79.609375 260.800781 86.386719 C 259.742188 86.679688 258.421875 87.152344 257.011719 87.152344 C 253.136719 87.152344 250.171875 84.117188 250.171875 80.199219 C 250.171875 76.191406 252.636719 73.921875 255.28125 73.15625 C 265.617188 70.121094 277.183594 68.679688 289.78125 68.679688 C 311.21875 68.679688 333.683594 73.15625 350.097656 82.761719 C 352.386719 84.085938 353.886719 85.914062 353.886719 89.417969 C 353.886719 93.425781 350.65625 96.285156 347.074219 96.285156 Z M 337.96875 118.734375 C 336.441406 118.734375 335.414062 118.058594 334.359375 117.496094 C 316.003906 106.597656 288.636719 102.207031 264.292969 108.835938 C 262.886719 109.21875 262.121094 109.601562 260.800781 109.601562 C 257.660156 109.601562 255.105469 107.039062 255.105469 103.886719 C 255.105469 100.734375 256.628906 98.640625 259.65625 97.785156 C 267.820312 95.488281 276.15625 93.78125 288.375 93.78125 C 307.429688 93.78125 325.84375 98.523438 340.347656 107.1875 C 342.726562 108.601562 343.667969 110.425781 343.667969 112.988281 C 343.636719 116.171875 341.171875 118.734375 337.96875 118.734375 Z M 330.070312 138.0625 C 328.835938 138.0625 328.074219 137.679688 326.929688 137.003906 C 308.605469 125.925781 287.285156 125.453125 266.234375 129.785156 C 265.085938 130.078125 263.589844 130.550781 262.738281 130.550781 C 259.890625 130.550781 258.097656 128.28125 258.097656 125.894531 C 258.097656 122.859375 259.890625 121.417969 262.09375 120.945312 C 286.140625 115.613281 310.71875 116.082031 331.683594 128.664062 C 333.476562 129.8125 334.535156 130.84375 334.535156 133.523438 C 334.535156 136.207031 332.449219 138.0625 330.070312 138.0625 Z M 330.070312 138.0625 "/>
<path style="fill-rule:nonzero;fill:rgb(100%,100%,100%);fill-opacity:1;stroke-width:7.5;stroke-linecap:square;stroke-linejoin:miter;stroke:rgb(0%,0%,0%);stroke-opacity:0.505882;stroke-miterlimit:10;" d="M 167.897042 223.336103 C 168.500493 223.809489 169.541932 224.463304 171.025252 225.295609 C 172.506626 226.122093 173.925708 226.535335 175.280552 226.535335 C 176.635395 226.535335 177.312817 226.009567 177.312817 224.959971 C 177.312817 224.478825 177.120102 224.057822 176.736619 223.695023 C 176.35119 223.328343 175.650408 222.90734 174.632329 222.432015 C 173.61425 221.952809 172.84923 221.576429 172.33727 221.304814 C 171.829204 221.03126 171.153729 220.586976 170.305005 219.968083 C 169.462121 219.343369 168.819738 218.699254 168.377856 218.031859 C 167.102824 216.213981 166.466281 213.905257 166.466281 211.105687 C 166.466281 208.300296 167.50772 205.935309 169.592544 204.010726 C 171.677368 202.080322 174.408468 201.11415 177.783898 201.11415 C 180.07701 201.11415 182.194927 201.362484 184.135701 201.85915 C 186.082316 202.348057 187.086769 202.994111 187.151007 203.793434 C 187.151007 203.890439 187.151007 203.983564 187.151007 204.074749 C 187.151007 205.194189 186.79867 206.606585 186.093996 208.313877 C 185.397108 210.015348 184.906561 210.958239 184.622355 211.144489 C 182.580356 210.094892 180.754432 209.569124 179.144582 209.569124 C 177.538625 209.569124 176.736619 210.143395 176.736619 211.289997 C 176.736619 211.992314 177.324497 212.615088 178.504145 213.152497 C 178.759152 213.280544 179.125115 213.457093 179.600089 213.680205 C 180.078957 213.905257 180.629848 214.169111 181.246925 214.473708 C 181.871789 214.770544 182.541424 215.152744 183.255832 215.616429 C 183.976079 216.080114 184.748885 216.693187 185.57425 217.455648 C 187.265858 219.050413 188.110688 221.151546 188.110688 223.759046 C 188.110688 227.167809 187.168527 229.955739 185.286151 232.126715 C 183.409614 234.291872 180.511105 235.405491 176.59257 235.469515 C 174.682941 235.469515 172.954347 235.310426 171.408735 234.990309 C 169.863123 234.670192 168.516066 234.049359 167.36951 233.125869 C 166.222954 232.20432 165.648703 231.08876 165.648703 229.78307 C 165.648703 228.475439 165.88619 227.17751 166.361164 225.88734 C 166.841977 224.597171 167.353937 223.745465 167.897042 223.336103 Z M 202.058182 243.685856 C 202.058182 243.908968 200.695552 244.021494 197.970291 244.021494 C 195.250871 244.021494 193.892134 243.908968 193.892134 243.685856 L 193.892134 219.079515 L 192.26671 219.079515 C 191.499744 219.079515 190.972212 218.379137 190.684113 216.976442 C 190.586782 216.534098 190.540063 215.963708 190.540063 215.26527 C 190.540063 214.561012 190.763924 213.730648 191.211645 212.776116 C 191.852082 211.375361 192.870161 210.673044 194.26783 210.673044 C 195.194419 210.673044 196.048983 210.888395 196.827628 211.321038 C 197.606274 211.747861 198.147433 212.145583 198.451105 212.512262 C 198.754777 212.875062 198.906613 213.088473 198.906613 213.152497 C 201.040102 211.499528 203.348787 210.673044 205.834614 210.673044 C 208.318494 210.673044 210.451984 211.635335 212.233136 213.561859 C 214.020128 215.486442 214.911678 218.464502 214.911678 222.496038 C 214.911678 226.527575 214.020128 229.649202 212.233136 231.862861 C 210.451984 234.07652 208.190018 235.182379 205.449184 235.182379 C 204.207244 235.182379 203.076261 235.118356 202.058182 234.990309 Z M 204.018423 219.032952 C 203.473371 219.032952 202.949731 219.207562 202.441665 219.560661 L 202.441665 228.015635 C 202.980877 228.079658 203.418865 228.1107 203.753683 228.1107 C 204.090447 228.1107 204.35324 228.1107 204.545955 228.1107 C 205.846294 227.982653 206.49841 226.312223 206.49841 223.095531 C 206.49841 220.387145 205.671098 219.032952 204.018423 219.032952 Z M 220.375825 232.175218 C 218.386385 229.97126 217.391665 226.929176 217.391665 223.047028 C 217.391665 219.160999 218.386385 216.116976 220.375825 213.920778 C 222.371105 211.72458 225.055487 210.624541 228.430916 210.624541 C 231.806346 210.624541 234.480994 211.72458 236.454862 213.920778 C 238.432622 216.116976 239.421502 219.160999 239.421502 223.047028 C 239.421502 226.929176 238.432622 229.97126 236.454862 232.175218 C 234.480994 234.371416 231.806346 235.469515 228.430916 235.469515 C 225.055487 235.469515 222.371105 234.371416 220.375825 232.175218 Z M 228.454276 218.600309 C 226.65755 218.600309 225.760161 220.067028 225.760161 223.000465 C 225.760161 225.928083 226.65755 227.390921 228.454276 227.390921 C 230.256841 227.390921 231.158123 225.928083 231.158123 223.000465 C 231.158123 220.067028 230.256841 218.600309 228.454276 218.600309 Z M 253.805037 234.703174 C 253.805037 235.085374 252.465766 235.277445 249.789171 235.277445 C 246.606457 235.149398 245.014126 234.941807 245.014126 234.654671 L 245.014126 217.744723 L 242.575018 217.744723 C 241.934582 217.744723 241.615337 216.646624 241.615337 214.448486 C 241.615337 213.872275 241.669842 213.171898 241.782746 212.345413 C 241.893703 211.513109 242.127296 211.097926 242.477687 211.097926 L 245.014126 211.097926 L 245.014126 206.897601 C 245.014126 206.257366 246.35729 205.937249 249.045565 205.937249 C 251.737733 205.937249 253.08479 206.193343 253.08479 206.705531 L 253.08479 209.761195 L 253.133455 211.097926 L 257.19604 211.097926 C 257.735252 211.097926 258.003885 212.213486 258.003885 214.448486 C 258.003885 216.677666 257.735252 217.793226 257.19604 217.793226 L 253.805037 217.793226 Z M 269.140467 234.703174 C 269.140467 234.957327 267.680506 235.085374 264.764477 235.085374 C 261.852342 235.085374 260.396274 234.974788 260.396274 234.749736 L 260.396274 211.289997 C 260.396274 211.070765 261.852342 210.962119 264.764477 210.962119 C 267.680506 210.962119 269.140467 211.055244 269.140467 211.241494 Z M 269.140467 208.426403 C 269.140467 208.649515 267.680506 208.762041 264.764477 208.762041 C 261.852342 208.762041 260.396274 208.665036 260.396274 208.472965 L 260.396274 201.595296 C 260.396274 201.275179 261.852342 201.11415 264.764477 201.11415 C 267.680506 201.11415 269.140467 201.211156 269.140467 201.403226 Z M 275.303449 217.455648 L 272.959725 217.455648 C 272.480858 217.455648 272.239477 216.398291 272.239477 214.281637 C 272.239477 212.159163 272.480858 211.097926 272.959725 211.097926 L 275.303449 211.097926 L 275.303449 210.05027 C 275.303449 206.674489 276.01007 204.340544 277.423312 203.050374 C 278.842394 201.760205 280.825994 201.11415 283.374113 201.11415 C 285.924178 201.11415 288.168625 201.575895 290.109399 202.497445 C 290.366352 202.59445 290.494829 202.937848 290.494829 203.52958 C 290.494829 204.117432 290.222303 205.064202 289.677251 206.369892 C 289.139985 207.675583 288.678638 208.426403 288.295154 208.618473 C 287.21089 207.945257 286.097427 207.609619 284.950871 207.609619 C 283.708931 207.609619 283.086014 208.438044 283.086014 210.096833 L 283.086014 211.097926 L 287.055161 211.097926 C 287.629412 211.097926 287.917511 212.118421 287.917511 214.161351 C 287.917511 216.390531 287.549601 217.50415 286.813781 217.50415 L 283.759543 217.50415 L 283.759543 234.414098 C 283.759543 234.798239 282.348247 234.990309 279.527602 234.990309 C 276.710851 234.990309 275.303449 234.798239 275.303449 234.414098 Z M 289.685037 211.336559 C 289.685037 210.991221 291.141105 210.816611 294.05324 210.816611 C 296.969269 210.816611 298.475949 210.97376 298.571333 211.289997 L 302.011001 222.567822 L 305.306619 211.192991 C 305.435096 210.942718 306.422029 210.816611 308.26742 210.816611 C 312.507147 210.816611 314.529679 211.022262 314.338911 211.433564 L 303.106945 243.396781 C 303.075799 243.588851 302.205662 243.685856 300.500428 243.685856 C 298.799087 243.685856 297.214542 243.629593 295.748742 243.517067 C 294.286834 243.404541 293.586053 243.268734 293.644451 243.109645 L 297.804367 233.079307 Z M 289.685037 211.336559 " transform="matrix(2.006689,0,0,2.013423,-181.104642,-212.166101)"/>
<path style=" stroke:none;fill-rule:nonzero;fill:rgb(100%,100%,100%);fill-opacity:1;" d="M 155.8125 237.503906 C 157.023438 238.457031 159.113281 239.773438 162.089844 241.449219 C 165.0625 243.113281 167.910156 243.945312 170.628906 243.945312 C 173.347656 243.945312 174.707031 242.886719 174.707031 240.773438 C 174.707031 239.804688 174.320312 238.957031 173.550781 238.226562 C 172.777344 237.488281 171.371094 236.640625 169.328125 235.683594 C 167.285156 234.71875 165.75 233.960938 164.722656 233.414062 C 163.703125 232.863281 162.347656 231.96875 160.644531 230.722656 C 158.953125 229.464844 157.664062 228.167969 156.777344 226.824219 C 154.21875 223.164062 152.941406 218.515625 152.941406 212.878906 C 152.941406 207.230469 155.03125 202.46875 159.214844 198.59375 C 163.398438 194.707031 168.878906 192.761719 175.652344 192.761719 C 180.253906 192.761719 184.503906 193.261719 188.398438 194.261719 C 192.304688 195.246094 194.320312 196.546875 194.449219 198.15625 C 194.449219 198.351562 194.449219 198.539062 194.449219 198.722656 C 194.449219 200.976562 193.742188 203.820312 192.328125 207.257812 C 190.929688 210.683594 189.945312 212.582031 189.375 212.957031 C 185.277344 210.84375 181.613281 209.785156 178.382812 209.785156 C 175.160156 209.785156 173.550781 210.941406 173.550781 213.25 C 173.550781 214.664062 174.730469 215.917969 177.097656 217 C 177.609375 217.257812 178.34375 217.613281 179.296875 218.0625 C 180.257812 218.515625 181.363281 219.046875 182.601562 219.660156 C 183.855469 220.257812 185.199219 221.027344 186.632812 221.960938 C 188.078125 222.894531 189.628906 224.128906 191.285156 225.664062 C 194.679688 228.875 196.375 233.105469 196.375 238.355469 C 196.375 245.21875 194.484375 250.832031 190.707031 255.203125 C 186.941406 259.5625 181.125 261.804688 173.261719 261.933594 C 169.429688 261.933594 165.960938 261.613281 162.859375 260.96875 C 159.757812 260.324219 157.054688 259.074219 154.753906 257.214844 C 152.453125 255.359375 151.300781 253.113281 151.300781 250.484375 C 151.300781 247.851562 151.777344 245.238281 152.730469 242.640625 C 153.695312 240.042969 154.722656 238.328125 155.8125 237.503906 Z M 224.363281 278.476562 C 224.363281 278.925781 221.628906 279.152344 216.160156 279.152344 C 210.703125 279.152344 207.976562 278.925781 207.976562 278.476562 L 207.976562 228.933594 L 204.714844 228.933594 C 203.175781 228.933594 202.117188 227.523438 201.539062 224.699219 C 201.34375 223.808594 201.25 222.660156 201.25 221.253906 C 201.25 219.835938 201.699219 218.164062 202.597656 216.242188 C 203.882812 213.421875 205.925781 212.007812 208.730469 212.007812 C 210.589844 212.007812 212.304688 212.441406 213.867188 213.3125 C 215.429688 214.171875 216.515625 214.972656 217.125 215.710938 C 217.734375 216.441406 218.039062 216.871094 218.039062 217 C 222.320312 213.671875 226.953125 212.007812 231.941406 212.007812 C 236.925781 212.007812 241.207031 213.945312 244.78125 217.824219 C 248.367188 221.699219 250.15625 227.695312 250.15625 235.8125 C 250.15625 243.929688 248.367188 250.214844 244.78125 254.671875 C 241.207031 259.128906 236.667969 261.355469 231.167969 261.355469 C 228.675781 261.355469 226.40625 261.226562 224.363281 260.96875 Z M 228.296875 228.839844 C 227.203125 228.839844 226.152344 229.191406 225.132812 229.902344 L 225.132812 246.925781 C 226.214844 247.054688 227.09375 247.117188 227.765625 247.117188 C 228.441406 247.117188 228.96875 247.117188 229.355469 247.117188 C 231.964844 246.859375 233.273438 243.496094 233.273438 237.019531 C 233.273438 231.566406 231.613281 228.839844 228.296875 228.839844 Z M 261.121094 255.300781 C 257.128906 250.863281 255.132812 244.738281 255.132812 236.921875 C 255.132812 229.097656 257.128906 222.96875 261.121094 218.546875 C 265.125 214.125 270.511719 211.910156 277.285156 211.910156 C 284.058594 211.910156 289.425781 214.125 293.386719 218.546875 C 297.355469 222.96875 299.339844 229.097656 299.339844 236.921875 C 299.339844 244.738281 297.355469 250.863281 293.386719 255.300781 C 289.425781 259.722656 284.058594 261.933594 277.285156 261.933594 C 270.511719 261.933594 265.125 259.722656 261.121094 255.300781 Z M 277.332031 227.96875 C 273.726562 227.96875 271.925781 230.921875 271.925781 236.828125 C 271.925781 242.722656 273.726562 245.667969 277.332031 245.667969 C 280.949219 245.667969 282.757812 242.722656 282.757812 236.828125 C 282.757812 230.921875 280.949219 227.96875 277.332031 227.96875 Z M 328.203125 260.390625 C 328.203125 261.160156 325.515625 261.546875 320.144531 261.546875 C 313.757812 261.289062 310.5625 260.871094 310.5625 260.292969 L 310.5625 226.246094 L 305.667969 226.246094 C 304.382812 226.246094 303.742188 224.035156 303.742188 219.609375 C 303.742188 218.449219 303.851562 217.039062 304.078125 215.375 C 304.300781 213.699219 304.769531 212.863281 305.472656 212.863281 L 310.5625 212.863281 L 310.5625 204.40625 C 310.5625 203.117188 313.257812 202.472656 318.652344 202.472656 C 324.054688 202.472656 326.757812 202.988281 326.757812 204.019531 L 326.757812 210.171875 L 326.855469 212.863281 L 335.007812 212.863281 C 336.089844 212.863281 336.628906 215.109375 336.628906 219.609375 C 336.628906 224.097656 336.089844 226.34375 335.007812 226.34375 L 328.203125 226.34375 Z M 358.976562 260.390625 C 358.976562 260.902344 356.046875 261.160156 350.195312 261.160156 C 344.351562 261.160156 341.429688 260.9375 341.429688 260.484375 L 341.429688 213.25 C 341.429688 212.808594 344.351562 212.589844 350.195312 212.589844 C 356.046875 212.589844 358.976562 212.777344 358.976562 213.152344 Z M 358.976562 207.484375 C 358.976562 207.933594 356.046875 208.160156 350.195312 208.160156 C 344.351562 208.160156 341.429688 207.964844 341.429688 207.578125 L 341.429688 193.730469 C 341.429688 193.085938 344.351562 192.761719 350.195312 192.761719 C 356.046875 192.761719 358.976562 192.957031 358.976562 193.34375 Z M 371.34375 225.664062 L 366.640625 225.664062 C 365.679688 225.664062 365.195312 223.535156 365.195312 219.273438 C 365.195312 215 365.679688 212.863281 366.640625 212.863281 L 371.34375 212.863281 L 371.34375 210.753906 C 371.34375 203.957031 372.761719 199.257812 375.597656 196.660156 C 378.445312 194.0625 382.425781 192.761719 387.539062 192.761719 C 392.65625 192.761719 397.160156 193.691406 401.054688 195.546875 C 401.570312 195.742188 401.828125 196.433594 401.828125 197.625 C 401.828125 198.808594 401.28125 200.714844 400.1875 203.34375 C 399.109375 205.972656 398.183594 207.484375 397.414062 207.871094 C 395.238281 206.515625 393.003906 205.839844 390.703125 205.839844 C 388.210938 205.839844 386.960938 207.507812 386.960938 210.847656 L 386.960938 212.863281 L 394.925781 212.863281 C 396.078125 212.863281 396.65625 214.917969 396.65625 219.03125 C 396.65625 223.519531 395.917969 225.761719 394.441406 225.761719 L 388.3125 225.761719 L 388.3125 259.808594 C 388.3125 260.582031 385.480469 260.96875 379.820312 260.96875 C 374.167969 260.96875 371.34375 260.582031 371.34375 259.808594 Z M 400.203125 213.34375 C 400.203125 212.648438 403.125 212.296875 408.96875 212.296875 C 414.820312 212.296875 417.84375 212.613281 418.035156 213.25 L 424.9375 235.957031 L 431.550781 213.054688 C 431.808594 212.550781 433.789062 212.296875 437.492188 212.296875 C 446 212.296875 450.058594 212.710938 449.675781 213.539062 L 427.136719 277.894531 C 427.074219 278.28125 425.328125 278.476562 421.90625 278.476562 C 418.492188 278.476562 415.3125 278.363281 412.371094 278.136719 C 409.4375 277.910156 408.03125 277.636719 408.148438 277.316406 L 416.496094 257.121094 Z M 400.203125 213.34375 "/>
<path style="fill:none;stroke-width:7.5;stroke-linecap:butt;stroke-linejoin:miter;stroke:rgb(0%,0%,0%);stroke-opacity:0.505882;stroke-miterlimit:10;" d="M 313.708208 176.824046 C 313.507707 176.352601 312.402029 173.814945 312.053585 173.003981 C 311.189289 170.994033 310.365871 169.009307 309.462641 166.760726 C 307.716528 162.405192 307.342778 160.439866 308.345285 159.694866 C 308.829992 159.334007 309.460695 159.365049 310.39507 159.650244 C 310.891457 159.799632 317.017453 161.677653 318.533865 161.101442 C 320.11257 160.49807 321.200727 160.463148 321.753566 161.105322 C 322.271365 161.706754 322.092277 162.616663 321.471307 163.606116 C 320.237153 165.565622 317.784419 167.20307 315.668449 167.096364 C 314.739914 167.047861 314.239634 166.881012 312.832231 166.28152 L 312.715434 166.233017 C 312.902309 166.857731 313.394803 168.035374 314.348644 170.142327 C 314.969614 171.506221 318.666235 179.51109 319.830311 182.044866 L 319.836151 182.058447 C 320.990493 184.764892 318.895936 187.554762 315.308325 188.317223 C 311.786899 189.064163 308.043559 187.630426 306.91647 185.019046 C 305.760181 182.308721 307.858631 179.524671 311.452082 178.76027 C 312.421496 178.554619 313.418162 178.509997 314.389523 178.624463 C 314.389523 178.624463 314.101424 177.747536 313.708208 176.824046 Z M 313.708208 176.824046 " transform="matrix(2.006689,0,0,2.013423,-181.104642,-212.166101)"/>
<path style=" stroke:none;fill-rule:evenodd;fill:rgb(100%,100%,100%);fill-opacity:1;" d="M 449.773438 147.480469 C 449.609375 146.796875 449.199219 145.714844 448.410156 143.855469 C 448.007812 142.90625 445.789062 137.796875 445.089844 136.164062 C 443.355469 132.117188 441.703125 128.121094 439.890625 123.59375 C 436.386719 114.824219 435.636719 110.867188 437.648438 109.367188 C 438.621094 108.640625 439.886719 108.703125 441.761719 109.277344 C 442.757812 109.578125 447.074219 111.21875 446.800781 111.121094 C 451.652344 112.886719 455.050781 113.359375 458.09375 112.199219 C 461.261719 110.984375 463.445312 110.914062 464.554688 112.207031 C 465.59375 113.417969 465.234375 115.25 463.988281 117.242188 C 461.511719 121.1875 456.589844 124.484375 452.34375 124.269531 C 450.480469 124.171875 449.476562 123.835938 446.652344 122.628906 L 446.417969 122.53125 C 446.792969 123.789062 447.78125 126.160156 449.695312 130.402344 C 450.941406 133.148438 458.359375 149.265625 460.695312 154.367188 L 460.707031 154.394531 C 463.023438 159.84375 458.820312 165.460938 451.621094 166.996094 C 444.554688 168.5 437.042969 165.613281 434.78125 160.355469 C 432.460938 154.898438 436.671875 149.292969 443.882812 147.753906 C 445.828125 147.339844 447.828125 147.25 449.777344 147.480469 Z M 449.773438 147.480469 "/>
<path style="fill:none;stroke-width:7.5;stroke-linecap:butt;stroke-linejoin:miter;stroke:rgb(0%,0%,0%);stroke-opacity:0.505882;stroke-miterlimit:10;" d="M 344.743084 151.3854 C 344.246697 150.82083 341.544796 147.794267 340.688286 146.828096 C 338.562583 144.424307 336.505011 142.039919 334.215793 139.325713 C 329.789191 134.06221 328.368162 131.497392 329.419334 130.001572 C 329.929347 129.275973 330.822843 129.03152 332.253605 128.998538 C 333.010838 128.979137 342.401307 128.783187 344.248644 127.287366 C 346.168006 125.721702 347.668846 125.174593 348.731697 125.814827 C 349.726418 126.41432 349.895773 127.764632 349.483091 129.425361 C 348.665513 132.719658 346.000597 136.122601 343.008651 136.945205 C 341.694686 137.304124 340.919933 137.300244 338.687166 137.110114 L 338.504184 137.096533 C 339.04729 137.882275 340.275604 139.296611 342.570662 141.787705 C 344.057876 143.403812 352.87604 152.848239 355.657752 155.84376 L 355.673325 155.859281 C 358.521222 159.097314 356.886066 163.939814 352.241444 166.6482 C 347.684419 169.304202 341.813429 169.024827 339.049237 165.90514 C 336.1955 162.667106 337.838442 157.826546 342.490851 155.114281 C 343.746418 154.382861 345.110994 153.864853 346.51645 153.577718 C 346.51645 153.577718 345.714445 152.48932 344.743084 151.3854 Z M 344.743084 151.3854 " transform="matrix(2.006689,0,0,2.013423,-181.104642,-212.166101)"/>
<path style=" stroke:none;fill-rule:evenodd;fill:rgb(100%,100%,100%);fill-opacity:1;" d="M 514.242188 97.050781 C 513.699219 96.179688 512.636719 94.859375 510.6875 92.636719 C 509.691406 91.5 504.269531 85.40625 502.550781 83.460938 C 498.285156 78.621094 494.15625 73.820312 489.5625 68.355469 C 480.679688 57.757812 477.828125 52.59375 479.9375 49.582031 C 480.960938 48.121094 482.753906 47.628906 485.625 47.5625 C 487.144531 47.523438 493.90625 47.820312 493.480469 47.8125 C 501.039062 48.035156 505.988281 47.128906 509.695312 44.117188 C 513.546875 40.964844 516.558594 39.863281 518.691406 41.152344 C 520.6875 42.359375 521.027344 45.078125 520.199219 48.421875 C 518.558594 55.054688 513.210938 61.90625 507.207031 63.5625 C 504.570312 64.285156 503.015625 64.277344 498.535156 63.894531 L 498.167969 63.867188 C 499.257812 65.449219 501.722656 68.296875 506.328125 73.3125 C 509.3125 76.566406 527.007812 95.582031 532.589844 101.613281 L 532.621094 101.644531 C 538.335938 108.164062 535.054688 117.914062 525.734375 123.367188 C 516.589844 128.714844 504.808594 128.152344 499.261719 121.871094 C 493.535156 115.351562 496.832031 105.605469 506.167969 100.144531 C 508.6875 98.671875 511.425781 97.628906 514.246094 97.050781 Z M 514.242188 97.050781 "/>
<path style="fill:none;stroke-width:7.5;stroke-linecap:butt;stroke-linejoin:miter;stroke:rgb(0%,0%,0%);stroke-opacity:0.505882;stroke-miterlimit:10;" d="M 166.291085 176.824046 C 165.897869 177.747536 165.60977 178.624463 165.60977 178.624463 C 166.583078 178.509997 167.577798 178.554619 168.547212 178.76027 C 172.142609 179.524671 174.241059 182.308721 173.082824 185.019046 C 171.957681 187.630426 168.212394 189.064163 164.692915 188.317223 C 161.105304 187.554762 159.010747 184.764892 160.163143 182.058447 L 160.170929 182.044866 C 161.333058 179.51109 165.031626 171.506221 165.650649 170.142327 C 166.60449 168.035374 167.098931 166.857731 167.283859 166.233017 L 167.167062 166.28152 C 165.761606 166.881012 165.25938 167.047861 164.332791 167.096364 C 162.216821 167.20307 159.76214 165.565622 158.529933 163.606116 C 157.907016 162.616663 157.727928 161.706754 158.245727 161.105322 C 158.798566 160.463148 159.886723 160.49807 161.465428 161.103382 C 162.981841 161.677653 169.109783 159.799632 169.604223 159.650244 C 170.538598 159.365049 171.169302 159.334007 171.655955 159.694866 C 172.656515 160.439866 172.282765 162.405192 170.538598 166.760726 C 169.635369 169.009307 168.810005 170.994033 167.945708 173.003981 C 167.597264 173.814945 166.493533 176.352601 166.291085 176.824046 Z M 166.291085 176.824046 " transform="matrix(2.006689,0,0,2.013423,-181.104642,-212.166101)"/>
<path style=" stroke:none;fill-rule:evenodd;fill:rgb(100%,100%,100%);fill-opacity:1;" d="M 151.222656 147.480469 C 153.175781 147.25 155.171875 147.339844 157.117188 147.753906 C 164.332031 149.292969 168.542969 154.898438 166.21875 160.355469 C 163.960938 165.613281 156.445312 168.5 149.382812 166.996094 C 142.183594 165.460938 137.980469 159.84375 140.292969 154.394531 L 140.308594 154.367188 C 142.640625 149.265625 150.0625 133.148438 151.304688 130.402344 C 153.21875 126.160156 154.210938 123.789062 154.582031 122.53125 L 154.347656 122.628906 C 151.527344 123.835938 150.519531 124.171875 148.660156 124.269531 C 144.414062 124.484375 139.488281 121.1875 137.015625 117.242188 C 135.765625 115.25 135.40625 113.417969 136.445312 112.207031 C 137.554688 110.914062 139.738281 110.984375 142.90625 112.203125 C 145.949219 113.359375 149.351562 112.886719 154.199219 111.121094 C 153.925781 111.21875 158.246094 109.578125 159.238281 109.277344 C 161.113281 108.703125 162.378906 108.640625 163.355469 109.367188 C 165.363281 110.867188 164.613281 114.824219 161.113281 123.59375 C 159.300781 128.121094 157.644531 132.117188 155.910156 136.164062 C 155.210938 137.796875 152.996094 142.90625 152.589844 143.855469 C 151.800781 145.714844 151.394531 146.800781 151.226562 147.480469 Z M 151.222656 147.480469 "/>
<path style="fill:none;stroke-width:7.5;stroke-linecap:butt;stroke-linejoin:miter;stroke:rgb(0%,0%,0%);stroke-opacity:0.505882;stroke-miterlimit:10;" d="M 135.256209 151.3854 C 134.286795 152.48932 133.482843 153.577718 133.482843 153.577718 C 134.888299 153.864853 136.254822 154.382861 137.508442 155.114281 C 142.160851 157.826546 143.80574 162.667106 140.950057 165.90514 C 138.185864 169.024827 132.314875 169.304202 127.75785 166.6482 C 123.115174 163.939814 121.478071 159.097314 124.325968 155.859281 L 124.341541 155.84376 C 127.123253 152.848239 135.941418 143.403812 137.430578 141.787705 C 139.72369 139.296611 140.952003 137.882275 141.497056 137.096533 L 141.312127 137.110114 C 139.07936 137.300244 138.306554 137.304124 136.990643 136.945205 C 133.998696 136.122601 131.333781 132.719658 130.516203 129.425361 C 130.10352 127.764632 130.272876 126.41432 131.267596 125.814827 C 132.332394 125.174593 133.831287 125.721702 135.750649 127.287366 C 137.597987 128.783187 146.988455 128.979137 147.747635 128.998538 C 149.178397 129.03152 150.069946 129.275973 150.579959 130.001572 C 151.633078 131.497392 150.212049 134.06221 145.783501 139.325713 C 143.496229 142.039919 141.43671 144.426247 139.312954 146.828096 C 138.454497 147.794267 135.752596 150.82083 135.256209 151.3854 Z M 135.256209 151.3854 " transform="matrix(2.006689,0,0,2.013423,-181.104642,-212.166101)"/>
<path style=" stroke:none;fill-rule:evenodd;fill:rgb(100%,100%,100%);fill-opacity:1;" d="M 86.753906 97.050781 C 89.574219 97.628906 92.316406 98.671875 94.832031 100.144531 C 104.167969 105.605469 107.46875 115.351562 101.738281 121.871094 C 96.191406 128.152344 84.410156 128.714844 75.265625 123.367188 C 65.949219 117.914062 62.664062 108.164062 68.378906 101.644531 L 68.410156 101.613281 C 73.992188 95.582031 91.6875 76.566406 94.675781 73.3125 C 99.277344 68.296875 101.742188 65.449219 102.835938 63.867188 L 102.464844 63.894531 C 97.984375 64.277344 96.433594 64.285156 93.792969 63.5625 C 87.789062 61.90625 82.441406 55.054688 80.800781 48.421875 C 79.972656 45.078125 80.3125 42.359375 82.308594 41.152344 C 84.445312 39.863281 87.453125 40.964844 91.304688 44.117188 C 95.011719 47.128906 99.960938 48.035156 107.519531 47.8125 C 107.097656 47.820312 113.855469 47.523438 115.378906 47.5625 C 118.25 47.628906 120.039062 48.121094 121.0625 49.582031 C 123.175781 52.59375 120.324219 57.757812 111.4375 68.355469 C 106.847656 73.820312 102.714844 78.621094 98.453125 83.460938 C 96.730469 85.40625 91.308594 91.5 90.3125 92.636719 C 88.367188 94.859375 87.300781 96.179688 86.757812 97.050781 Z M 86.753906 97.050781 "/>
</g>
</svg>
