<svg xmlns="http://www.w3.org/2000/svg" xmlns:xlink="http://www.w3.org/1999/xlink" width="600px" height="300px" viewBox="0 0 600 300" version="1.1">
<defs>
<linearGradient id="linear0" gradientUnits="userSpaceOnUse" x1="310.49334" y1="211.29407" x2="310.49334" y2="227.48221" gradientTransform="matrix(2.033898,0,0,2.040816,-188.153919,-217.022531)">
<stop offset="0" style="stop-color:rgb(0%,30.196078%,11.764706%);stop-opacity:1;"/>
<stop offset="1" style="stop-color:rgb(0%,30.196078%,11.764706%);stop-opacity:0;"/>
</linearGradient>
<linearGradient id="linear1" gradientUnits="userSpaceOnUse" x1="310.49334" y1="211.49406" x2="310.49334" y2="195.30592" gradientTransform="matrix(2.033898,0,0,2.040816,-188.153919,-217.022531)">
<stop offset="0" style="stop-color:rgb(0%,30.196078%,11.764706%);stop-opacity:1;"/>
<stop offset="1" style="stop-color:rgb(0%,30.196078%,11.764706%);stop-opacity:0;"/>
</linearGradient>
<linearGradient id="linear2" gradientUnits="userSpaceOnUse" x1="310.49334" y1="200.12128" x2="310.49334" y2="222.44675" >
<stop offset="0" style="stop-color:rgb(0%,100%,45.098039%);stop-opacity:1;"/>
<stop offset="1" style="stop-color:rgb(0%,100%,99.607843%);stop-opacity:1;"/>
</linearGradient>
<linearGradient id="linear3" gradientUnits="userSpaceOnUse" x1="216.03322" y1="221.44043" x2="206.65932" y2="221.44043" gradientTransform="matrix(2.033898,0,0,2.040816,-188.153919,-217.022531)">
<stop offset="0" style="stop-color:rgb(34.901961%,34.901961%,34.901961%);stop-opacity:0;"/>
<stop offset="1" style="stop-color:rgb(34.901961%,34.901961%,34.901961%);stop-opacity:1;"/>
</linearGradient>
<linearGradient id="linear4" gradientUnits="userSpaceOnUse" x1="197.31543" y1="221.44043" x2="206.68934" y2="221.44043" gradientTransform="matrix(2.033898,0,0,2.040816,-188.153919,-217.022531)">
<stop offset="0" style="stop-color:rgb(34.901961%,34.901961%,34.901961%);stop-opacity:0;"/>
<stop offset="1" style="stop-color:rgb(34.901961%,34.901961%,34.901961%);stop-opacity:1;"/>
</linearGradient>
<linearGradient id="linear5" gradientUnits="userSpaceOnUse" x1="316.1957" y1="126.25898" x2="338.18826" y2="178.81658" >
<stop offset="0" style="stop-color:rgb(80.784314%,100%,99.607843%);stop-opacity:1;"/>
<stop offset="1" style="stop-color:rgb(95.686275%,77.647059%,100%);stop-opacity:1;"/>
</linearGradient>
<linearGradient id="linear6" gradientUnits="userSpaceOnUse" x1="141.58792" y1="196.1071" x2="150.96182" y2="196.1071" gradientTransform="matrix(2.033898,0,0,2.040816,-188.153919,-217.022531)">
<stop offset="0" style="stop-color:rgb(34.901961%,34.901961%,34.901961%);stop-opacity:0;"/>
<stop offset="1" style="stop-color:rgb(34.901961%,34.901961%,34.901961%);stop-opacity:1;"/>
</linearGradient>
<linearGradient id="linear7" gradientUnits="userSpaceOnUse" x1="160.30569" y1="196.1071" x2="150.93181" y2="196.1071" gradientTransform="matrix(2.033898,0,0,2.040816,-188.153919,-217.022531)">
<stop offset="0" style="stop-color:rgb(34.901961%,34.901961%,34.901961%);stop-opacity:0;"/>
<stop offset="1" style="stop-color:rgb(34.901961%,34.901961%,34.901961%);stop-opacity:1;"/>
</linearGradient>
<radialGradient id="radial0" gradientUnits="userSpaceOnUse" cx="282.34297" cy="163.61793" fx="282.34297" fy="163.61793" r="8.09408" >
<stop offset="0" style="stop-color:rgb(69.019608%,81.568627%,100%);stop-opacity:1;"/>
<stop offset="1" style="stop-color:rgb(0%,40%,100%);stop-opacity:1;"/>
</radialGradient>
<radialGradient id="radial1" gradientUnits="userSpaceOnUse" cx="282.34297" cy="140.21785" fx="282.34297" fy="140.21785" r="8.09407" >
<stop offset="0" style="stop-color:rgb(69.019608%,100%,100%);stop-opacity:1;"/>
<stop offset="1" style="stop-color:rgb(0%,100%,100%);stop-opacity:1;"/>
</radialGradient>
<radialGradient id="radial2" gradientUnits="userSpaceOnUse" cx="258.97323" cy="163.61793" fx="258.97323" fy="163.61793" r="8.09408" >
<stop offset="0" style="stop-color:rgb(93.72549%,69.019608%,100%);stop-opacity:1;"/>
<stop offset="1" style="stop-color:rgb(80%,0%,100%);stop-opacity:1;"/>
</radialGradient>
<radialGradient id="radial3" gradientUnits="userSpaceOnUse" cx="258.97323" cy="140.21785" fx="258.97323" fy="140.21785" r="8.09407" >
<stop offset="0" style="stop-color:rgb(69.019608%,100%,85.490196%);stop-opacity:1;"/>
<stop offset="1" style="stop-color:rgb(0%,100%,58.431373%);stop-opacity:1;"/>
</radialGradient>
</defs>
<g id="surface1">
<path style=" stroke:none;fill-rule:nonzero;fill:rgb(40%,40%,40%);fill-opacity:1;" d="M 0 300.648438 L 0 0 L 599.964844 0 L 599.964844 300.648438 Z M 0 300.648438 "/>
<path style="stroke:none;fill-rule:nonzero;fill:rgb(30.196078%,30.196078%,30.196078%);fill-opacity:1;" d="M 324.046875 273.011719 C 321.550781 276.453125 315.523438 278.226562 311.640625 278.757812 C 305.417969 279.605469 296.859375 271.457031 293.511719 271.738281 C 287.511719 272.242188 282.433594 274.386719 276.359375 274.058594 C 270.550781 273.746094 266.8125 272.015625 262.027344 269.140625 C 258.273438 266.878906 253.21875 269.003906 248.929688 268.109375 C 246.5 267.605469 243.59375 267.382812 241.949219 265.519531 C 239.921875 263.210938 238.96875 258.363281 235.90625 258.5625 C 227.210938 259.132812 224.070312 261.5625 215.011719 259.503906 C 195.152344 254.988281 203.582031 243.707031 204.054688 232.667969 C 204.191406 229.457031 201.039062 230.769531 199.925781 228.199219 C 198.9375 225.917969 199.019531 223.289062 198.921875 220.800781 C 198.511719 210.226562 203.867188 192.929688 214.171875 188.347656 C 216.109375 183.738281 219.871094 182.804688 227.191406 183.324219 C 228.65625 183.429688 229.246094 185.78125 230.699219 186.003906 C 231.816406 186.171875 232.523438 184.472656 233.640625 184.3125 C 234.957031 184.121094 236.316406 184.550781 237.578125 184.976562 C 239.261719 185.550781 241.019531 188.066406 242.910156 188.457031 C 243.46875 188.574219 252.921875 186.675781 253.492188 186.738281 C 258.621094 187.304688 265.75 200.574219 268.164062 205.652344 C 268.773438 206.929688 269.121094 208.230469 269.84375 209.621094 C 270.117188 210.136719 270.816406 211.542969 270.960938 210.972656 C 271.785156 207.691406 274.707031 206.578125 277.335938 205.519531 C 287.808594 201.300781 290.5625 210.339844 297.074219 217.59375 C 298.875 219.601562 300.816406 221.507812 302.964844 223.136719 C 303.207031 223.320312 303.089844 222.535156 303.238281 222.269531 C 304.140625 220.679688 305.058594 219.09375 306.105469 217.597656 C 306.671875 216.792969 316.46875 214.960938 317.28125 215.507812 C 325.917969 221.285156 333.648438 234.835938 339.671875 242.539062 C 340.820312 244.007812 342.585938 249.664062 344.5625 250.4375 C 345.316406 250.730469 347.28125 247.613281 347.742188 247.105469 C 349.726562 244.925781 356.847656 236.65625 360.152344 237.964844 L 369.949219 241.847656 C 370.433594 244.914062 372.335938 248.140625 371.960938 251.109375 C 371.90625 251.5625 371.792969 252.007812 371.617188 252.449219 C 371.339844 253.144531 370.949219 253.808594 370.480469 254.445312 C 369.984375 255.1875 369.390625 255.875 368.695312 256.488281 C 366.945312 258.238281 364.878906 259.828125 363.429688 261.457031 C 356.527344 269.230469 349.640625 276.191406 339 275.277344 C 335.140625 274.945312 329.816406 264.195312 328.226562 264.261719 C 328.074219 264.269531 327.933594 264.292969 327.792969 264.332031 C 326.949219 267.730469 325.644531 270.8125 324.046875 273.011719 Z M 324.046875 273.011719 "/>
<path style="fill-rule:nonzero;fill:rgb(0%,0%,0%);fill-opacity:1;stroke-width:5;stroke-linecap:butt;stroke-linejoin:miter;stroke:rgb(15.294118%,15.294118%,15.294118%);stroke-opacity:1;stroke-miterlimit:10;" d="M 260.493841 232.895024 C 258.283261 232.895024 256.493287 231.103462 256.493287 228.894634 L 256.493287 193.894087 C 256.493287 191.685259 258.283261 189.893696 260.493841 189.893696 L 360.494231 189.893696 C 362.70289 189.893696 364.492864 191.685259 364.492864 193.894087 L 364.492864 228.894634 C 364.492864 231.103462 362.70289 232.895024 360.494231 232.895024 Z M 260.493841 232.895024 " transform="matrix(2.033898,0,0,2.040816,-188.153919,-217.022531)"/>
<path style=" stroke:none;fill-rule:nonzero;fill:rgb(30.196078%,30.196078%,30.196078%);fill-opacity:1;" d="M 43.8125 37.339844 C 45.457031 36.410156 46.988281 35.945312 48.496094 35.710938 C 49.445312 35.523438 50.433594 35.425781 51.4375 35.425781 C 51.933594 35.425781 52.421875 35.449219 52.902344 35.496094 C 54.1875 35.507812 55.511719 35.527344 56.929688 35.425781 C 59.636719 35.234375 60.769531 31.554688 62.921875 29.898438 C 71.800781 23.070312 84.472656 30.214844 87.351562 38.664062 C 88.480469 41.988281 94.398438 38.351562 97.851562 38.945312 C 108.621094 40.792969 122.988281 48.089844 123.644531 59.917969 C 123.929688 65.089844 118.757812 66.738281 117.597656 70.53125 C 116.867188 72.914062 120.5 75.019531 122.847656 75.828125 C 126.792969 77.183594 129.464844 78.125 133.261719 80.414062 C 138.625 83.640625 145.589844 95.09375 145.09375 101.589844 C 145.007812 102.722656 142.859375 107.382812 143.28125 108.386719 C 145.355469 113.316406 152.558594 115.847656 150.179688 123.015625 C 148.558594 127.894531 145.738281 132.75 141.652344 135.851562 C 139.574219 137.429688 136.453125 135.558594 133.851562 135.417969 C 127.628906 135.078125 115.460938 134.542969 111.046875 129.894531 C 101.808594 120.164062 103.898438 117.035156 91.464844 108.71875 C 90.101562 107.808594 91.210938 112.1875 90.210938 113.488281 C 89.039062 115.011719 87.054688 115.675781 85.390625 116.628906 C 82.601562 118.226562 80.070312 120.960938 76.863281 121.140625 C 76.648438 121.152344 63.703125 113.746094 63.515625 113.488281 C 61.972656 111.363281 62.171875 108.402344 61.609375 105.835938 C 60.136719 99.125 65.871094 92.695312 66.480469 86.589844 C 66.503906 86.347656 61.976562 87.589844 61.445312 87.5625 C 58.507812 87.421875 54.199219 86.722656 51.734375 84.832031 C 48.914062 82.660156 44.050781 78.027344 43.484375 74.167969 C 42.695312 68.820312 45.292969 66.722656 43.695312 63.921875 C 39.203125 61.261719 36.183594 56.351562 36.183594 50.734375 C 36.183594 45.75 38.554688 41.328125 42.226562 38.53125 C 42.699219 38.074219 43.222656 37.671875 43.8125 37.339844 Z M 43.8125 37.339844 "/>
<path style=" stroke:none;fill-rule:nonzero;fill:url(#linear0);" d="M 338.511719 247.226562 L 338.511719 214.191406 L 548.203125 214.191406 L 548.203125 247.226562 Z M 338.511719 247.226562 "/>
<path style=" stroke:none;fill-rule:nonzero;fill:url(#linear1);" d="M 338.511719 214.597656 L 338.511719 181.5625 L 548.203125 181.5625 L 548.203125 214.597656 Z M 338.511719 214.597656 "/>
<path style=" stroke:none;fill-rule:nonzero;fill:rgb(30.196078%,30.196078%,30.196078%);fill-opacity:1;" d="M 469.914062 47.542969 C 476.753906 43.683594 487.566406 45.179688 494.929688 43.023438 C 516.984375 36.558594 546.722656 34.652344 548.726562 62.191406 C 548.824219 63.523438 551.105469 63.398438 552.246094 64.085938 C 556.421875 66.601562 561.644531 74.199219 562.785156 79.339844 C 564.117188 85.355469 559.054688 89.234375 558.472656 94.511719 C 558.375 95.402344 559.914062 95.585938 560.5 96.257812 C 562.136719 98.117188 562.691406 102.320312 563.386719 105.113281 C 565.8125 114.851562 569.203125 121.199219 563.183594 130.546875 C 562.296875 131.929688 564.535156 136.980469 563.800781 138.453125 C 561.511719 143.050781 558.414062 148.320312 553.550781 149.945312 C 551.117188 150.761719 532.527344 146.734375 529.136719 141.628906 C 525.832031 136.65625 524.910156 129.894531 526.949219 124.5 C 527.945312 121.859375 529.210938 120.683594 531.113281 118.773438 C 532.0625 117.820312 535.382812 116.730469 534.175781 116.140625 C 525.238281 111.78125 515.007812 112.980469 506.761719 105.917969 C 503.75 103.332031 506.910156 95.007812 502.964844 94.609375 C 499.070312 94.21875 494.355469 94.910156 490.289062 94.402344 C 479.851562 93.101562 456.214844 82.925781 459.140625 68.246094 C 459.628906 65.792969 461.855469 64.722656 462.34375 62.273438 C 462.304688 61.832031 462.285156 61.386719 462.285156 60.9375 C 462.285156 55.957031 464.65625 51.53125 468.328125 48.734375 C 468.800781 48.277344 469.324219 47.878906 469.914062 47.542969 Z M 469.914062 47.542969 "/>
<path style=" stroke:none;fill-rule:nonzero;fill:rgb(30.196078%,30.196078%,30.196078%);fill-opacity:1;" d="M 108.316406 264.746094 C 104.523438 263.042969 100.941406 260.746094 96.9375 259.636719 C 96.335938 259.46875 96.601562 260.851562 96.347656 261.421875 C 95.570312 263.152344 93.707031 267.171875 92.125 268.078125 C 88.960938 269.890625 85.449219 271.171875 81.875 271.886719 C 78.371094 272.589844 70.785156 266.769531 68.527344 264.234375 C 67.378906 262.945312 68.542969 259.433594 66.820312 259.335938 C 64.582031 259.210938 62.757812 261.558594 60.519531 261.683594 C 56.722656 261.894531 49.246094 257.152344 47.171875 254.03125 C 43.953125 249.1875 44.890625 243.171875 41.675781 237.953125 C 38.648438 233.035156 32.960938 229.066406 30.4375 224.320312 C 23.496094 211.257812 18.9375 196.398438 25.378906 182.003906 C 28.570312 174.871094 29.113281 173.421875 37.339844 171.039062 C 38.761719 170.625 39.71875 168.910156 41.195312 168.828125 C 44.992188 168.613281 52.46875 173.359375 54.542969 176.480469 C 57.996094 181.671875 55.316406 182.386719 56.449219 186.640625 C 57.84375 191.863281 61.328125 197.566406 62.679688 201.988281 C 63.425781 204.429688 63.375 219.382812 66.21875 219.507812 C 68.460938 219.605469 70.265625 218.46875 72.6875 219.007812 C 73.132812 219.105469 73.503906 220.207031 73.773438 219.835938 C 79.160156 212.484375 78.003906 209.132812 90.011719 209.132812 C 91.40625 209.132812 92.707031 207.65625 94.054688 208.027344 C 102.488281 210.335938 103.765625 216.808594 108.019531 222.6875 C 112.996094 229.5625 123.265625 234.660156 123.265625 244.144531 C 123.265625 247.425781 124.890625 255.242188 121.460938 257.207031 Z M 108.316406 264.746094 "/>
<path style=" stroke:none;fill-rule:nonzero;fill:rgb(30.196078%,30.196078%,30.196078%);fill-opacity:1;" d="M 382.847656 17.84375 C 383.375 17.921875 383.992188 18.09375 384.679688 18.34375 C 386.382812 18.804688 388.023438 19.570312 389.511719 20.636719 C 398.496094 25.59375 411.765625 35.667969 415.910156 39.609375 C 425.160156 48.402344 428.128906 50.144531 425.078125 61.195312 C 424.378906 63.726562 425.226562 67.484375 422.949219 68.78125 C 408.457031 77.058594 393.890625 75.378906 377.574219 75.839844 C 375.5 75.898438 377.320312 80.25 376.042969 81.894531 C 374.984375 83.261719 372.847656 83.339844 371.542969 84.476562 C 370.238281 85.613281 369.859375 87.722656 368.359375 88.582031 C 361.886719 92.292969 349.609375 87.117188 342.289062 87.488281 C 337.058594 87.753906 331.921875 92.589844 326.953125 90.925781 C 320.128906 88.644531 313.246094 74.359375 316.226562 67.296875 C 320.535156 57.082031 327.355469 54.269531 337.320312 55.390625 C 339.042969 55.585938 343.835938 57.835938 345.097656 56.875 C 346.210938 56.027344 344.949219 53.964844 345.527344 52.6875 C 347.457031 48.4375 352.191406 44.320312 357.152344 43.125 C 359.5625 42.546875 362.371094 42.316406 364.992188 42.519531 C 365.21875 42.539062 369.882812 43.984375 369.859375 43.90625 C 369.0625 43.105469 368.375 42.238281 367.792969 41.320312 C 364.039062 35.402344 364.738281 27.457031 369.886719 22.289062 C 372.90625 19.261719 376.878906 17.765625 380.835938 17.808594 C 381.5 17.738281 382.167969 17.742188 382.847656 17.84375 Z M 382.847656 17.84375 "/>
<path style="fill:none;stroke-width:3;stroke-linecap:round;stroke-linejoin:miter;stroke:url(#linear2);stroke-miterlimit:10;" d="M 257.031048 212.056626 L 265.673626 212.391587 L 269.793255 202.440376 L 277.825091 222.446157 L 285.685996 205.906743 L 290.785117 215.78522 L 296.975123 208.513696 L 300.309238 211.451782 L 306.983229 211.478579 L 312.68733 218.118462 L 321.719785 200.120532 L 328.795175 213.210806 L 334.691334 204.174517 L 343.297421 219.058267 L 351.346543 206.999673 L 354.375286 212.04897 L 363.955104 212.056626 " transform="matrix(2.033898,0,0,2.040816,-188.153919,-217.022531)"/>
<path style="fill-rule:nonzero;fill:rgb(0%,0%,0%);fill-opacity:1;stroke-width:5;stroke-linecap:butt;stroke-linejoin:miter;stroke:rgb(15.294118%,15.294118%,15.294118%);stroke-opacity:1;stroke-miterlimit:10;" d="M 118.477076 225.701977 C 116.268418 225.701977 114.476523 224.228149 114.476523 221.43936 C 114.476523 218.652485 116.268418 217.178657 118.477076 217.178657 L 239.144752 217.178657 C 241.353411 217.178657 243.143385 218.652485 243.143385 221.43936 C 243.143385 224.228149 241.353411 225.701977 239.144752 225.701977 Z M 118.477076 225.701977 " transform="matrix(2.033898,0,0,2.040816,-188.153919,-217.022531)"/>
<path style="fill-rule:nonzero;fill:rgb(25.490196%,25.490196%,25.490196%);fill-opacity:1;stroke-width:5;stroke-linecap:butt;stroke-linejoin:miter;stroke:rgb(15.294118%,15.294118%,15.294118%);stroke-opacity:1;stroke-miterlimit:10;" d="M 193.809628 229.107095 C 191.60097 229.107095 189.810996 227.315532 189.810996 225.106704 L 189.810996 217.773931 C 189.810996 215.565103 191.60097 213.77354 193.809628 213.77354 L 219.810345 213.77354 C 222.019003 213.77354 223.810898 215.565103 223.810898 217.773931 L 223.810898 225.106704 C 223.810898 227.315532 222.019003 229.107095 219.810345 229.107095 Z M 193.809628 229.107095 " transform="matrix(2.033898,0,0,2.040816,-188.153919,-217.022531)"/>
<path style=" stroke:none;fill-rule:nonzero;fill:url(#linear3);" d="M 232.171875 245.304688 L 232.171875 224.488281 L 251.234375 224.488281 L 251.234375 245.304688 Z M 232.171875 245.304688 "/>
<path style=" stroke:none;fill-rule:nonzero;fill:url(#linear4);" d="M 213.164062 245.304688 L 213.164062 224.488281 L 232.230469 224.488281 L 232.230469 245.304688 Z M 213.164062 245.304688 "/>
<path style="fill-rule:nonzero;fill:rgb(18.823529%,18.823529%,18.823529%);fill-opacity:1;stroke-width:2;stroke-linecap:butt;stroke-linejoin:miter;stroke:rgb(12.941176%,12.941176%,12.941176%);stroke-opacity:1;stroke-miterlimit:10;" d="M 101.293711 120.97022 C 101.293711 118.217798 103.525416 115.986001 106.277597 115.986001 C 109.031699 115.986001 111.263405 118.217798 111.263405 120.97022 C 111.263405 123.722642 109.031699 125.954438 106.277597 125.954438 C 103.525416 125.954438 101.293711 123.722642 101.293711 120.97022 Z M 101.293711 120.97022 " transform="matrix(2.033898,0,0,2.040816,-188.153919,-217.022531)"/>
<path style="fill:none;stroke-width:2;stroke-linecap:round;stroke-linejoin:miter;stroke:rgb(12.941176%,12.941176%,12.941176%);stroke-opacity:1;stroke-miterlimit:10;" d="M 107.69498 119.553813 L 104.862135 122.386626 " transform="matrix(2.033898,0,0,2.040816,-188.153919,-217.022531)"/>
<path style="fill:none;stroke-width:2;stroke-linecap:round;stroke-linejoin:miter;stroke:rgb(12.941176%,12.941176%,12.941176%);stroke-opacity:1;stroke-miterlimit:10;" d="M 104.862135 119.553813 L 107.69498 122.386626 " transform="matrix(2.033898,0,0,2.040816,-188.153919,-217.022531)"/>
<path style="fill-rule:nonzero;fill:rgb(18.823529%,18.823529%,18.823529%);fill-opacity:1;stroke-width:2;stroke-linecap:butt;stroke-linejoin:miter;stroke:rgb(12.941176%,12.941176%,12.941176%);stroke-opacity:1;stroke-miterlimit:10;" d="M 373.721217 125.954438 C 370.969036 125.954438 368.73733 123.722642 368.73733 120.97022 C 368.73733 118.217798 370.969036 115.986001 373.721217 115.986001 C 376.475319 115.986001 378.707024 118.217798 378.707024 120.97022 C 378.707024 123.722642 376.475319 125.954438 373.721217 125.954438 Z M 373.721217 125.954438 " transform="matrix(2.033898,0,0,2.040816,-188.153919,-217.022531)"/>
<path style="fill:none;stroke-width:2;stroke-linecap:round;stroke-linejoin:miter;stroke:rgb(12.941176%,12.941176%,12.941176%);stroke-opacity:1;stroke-miterlimit:10;" d="M 375.1386 122.386626 L 372.305755 119.553813 " transform="matrix(2.033898,0,0,2.040816,-188.153919,-217.022531)"/>
<path style="fill:none;stroke-width:2;stroke-linecap:round;stroke-linejoin:miter;stroke:rgb(12.941176%,12.941176%,12.941176%);stroke-opacity:1;stroke-miterlimit:10;" d="M 375.1386 119.553813 L 372.305755 122.386626 " transform="matrix(2.033898,0,0,2.040816,-188.153919,-217.022531)"/>
<path style="fill-rule:nonzero;fill:rgb(18.823529%,18.823529%,18.823529%);fill-opacity:1;stroke-width:2;stroke-linecap:butt;stroke-linejoin:miter;stroke:rgb(12.941176%,12.941176%,12.941176%);stroke-opacity:1;stroke-miterlimit:10;" d="M 106.277597 234.045376 C 109.031699 234.045376 111.263405 236.277173 111.263405 239.029595 C 111.263405 241.783931 109.031699 244.015728 106.277597 244.015728 C 103.525416 244.015728 101.293711 241.783931 101.293711 239.029595 C 101.293711 236.277173 103.525416 234.045376 106.277597 234.045376 Z M 106.277597 234.045376 " transform="matrix(2.033898,0,0,2.040816,-188.153919,-217.022531)"/>
<path style="fill:none;stroke-width:2;stroke-linecap:round;stroke-linejoin:miter;stroke:rgb(12.941176%,12.941176%,12.941176%);stroke-opacity:1;stroke-miterlimit:10;" d="M 107.69498 240.447915 L 104.862135 237.613188 " transform="matrix(2.033898,0,0,2.040816,-188.153919,-217.022531)"/>
<path style="fill:none;stroke-width:5;stroke-linecap:butt;stroke-linejoin:miter;stroke:rgb(15.294118%,15.294118%,15.294118%);stroke-opacity:1;stroke-miterlimit:10;" d="M 260.493841 232.895024 C 258.283261 232.895024 256.493287 231.103462 256.493287 228.894634 L 256.493287 193.894087 C 256.493287 191.685259 258.283261 189.893696 260.493841 189.893696 L 360.494231 189.893696 C 362.70289 189.893696 364.492864 191.685259 364.492864 193.894087 L 364.492864 228.894634 C 364.492864 231.103462 362.70289 232.895024 360.494231 232.895024 Z M 260.493841 232.895024 " transform="matrix(2.033898,0,0,2.040816,-188.153919,-217.022531)"/>
<path style="fill:none;stroke-width:2;stroke-linecap:round;stroke-linejoin:miter;stroke:rgb(12.941176%,12.941176%,12.941176%);stroke-opacity:1;stroke-miterlimit:10;" d="M 104.862135 240.447915 L 107.69498 237.613188 " transform="matrix(2.033898,0,0,2.040816,-188.153919,-217.022531)"/>
<path style="fill-rule:nonzero;fill:rgb(18.823529%,18.823529%,18.823529%);fill-opacity:1;stroke-width:2;stroke-linecap:butt;stroke-linejoin:miter;stroke:rgb(12.941176%,12.941176%,12.941176%);stroke-opacity:1;stroke-miterlimit:10;" d="M 373.721217 244.015728 C 370.969036 244.015728 368.73733 241.783931 368.73733 239.029595 C 368.73733 236.277173 370.969036 234.045376 373.721217 234.045376 C 376.475319 234.045376 378.707024 236.156587 378.707024 239.029595 C 378.707024 241.904517 376.475319 244.015728 373.721217 244.015728 Z M 373.721217 244.015728 " transform="matrix(2.033898,0,0,2.040816,-188.153919,-217.022531)"/>
<path style="fill:none;stroke-width:2;stroke-linecap:round;stroke-linejoin:miter;stroke:rgb(12.941176%,12.941176%,12.941176%);stroke-opacity:1;stroke-miterlimit:10;" d="M 375.1386 237.613188 L 372.305755 240.447915 " transform="matrix(2.033898,0,0,2.040816,-188.153919,-217.022531)"/>
<path style="fill:none;stroke-width:2;stroke-linecap:round;stroke-linejoin:miter;stroke:rgb(12.941176%,12.941176%,12.941176%);stroke-opacity:1;stroke-miterlimit:10;" d="M 372.305755 237.613188 L 375.1386 240.447915 " transform="matrix(2.033898,0,0,2.040816,-188.153919,-217.022531)"/>
<path style="fill-rule:nonzero;fill:rgb(25.490196%,25.490196%,25.490196%);fill-opacity:1;stroke-width:5;stroke-linecap:butt;stroke-linejoin:miter;stroke:rgb(15.294118%,15.294118%,15.294118%);stroke-opacity:1;stroke-miterlimit:10;" d="M 121.916823 147.30772 C 115.5386 146.264556 111.21539 140.246743 112.258261 133.869087 C 113.303053 127.489517 119.320208 123.165649 125.698431 124.208813 C 132.076653 125.253892 136.401783 131.271704 135.356992 137.64936 C 134.3122 144.027017 128.295045 148.352798 121.916823 147.30772 Z M 121.916823 147.30772 " transform="matrix(2.033898,0,0,2.040816,-188.153919,-217.022531)"/>
<path style="fill-rule:nonzero;fill:rgb(25.490196%,25.490196%,25.490196%);fill-opacity:1;stroke-width:5;stroke-linecap:butt;stroke-linejoin:miter;stroke:rgb(15.294118%,15.294118%,15.294118%);stroke-opacity:1;stroke-miterlimit:10;" d="M 118.340716 157.743188 C 124.056341 154.724712 131.135573 156.910571 134.154713 162.624048 C 137.173854 168.339438 134.990162 175.419556 129.274537 178.439946 C 123.558912 181.458423 116.479681 179.272563 113.46054 173.557173 C 110.441399 167.843696 112.627011 160.763579 118.340716 157.743188 Z M 118.340716 157.743188 " transform="matrix(2.033898,0,0,2.040816,-188.153919,-217.022531)"/>
<path style="fill:none;stroke-width:5;stroke-linecap:round;stroke-linejoin:miter;stroke:rgb(15.294118%,15.294118%,15.294118%);stroke-opacity:1;stroke-miterlimit:10;" d="M 121.803509 135.430962 L 113.965651 134.14854 " transform="matrix(2.033898,0,0,2.040816,-188.153919,-217.022531)"/>
<path style="fill:none;stroke-width:5;stroke-linecap:round;stroke-linejoin:miter;stroke:rgb(15.294118%,15.294118%,15.294118%);stroke-opacity:1;stroke-miterlimit:10;" d="M 132.625937 163.433696 L 125.604322 167.143149 " transform="matrix(2.033898,0,0,2.040816,-188.153919,-217.022531)"/>
<path style="fill-rule:nonzero;fill:rgb(0%,0%,0%);fill-opacity:1;stroke-width:5;stroke-linecap:butt;stroke-linejoin:miter;stroke:rgb(15.294118%,15.294118%,15.294118%);stroke-opacity:1;stroke-miterlimit:10;" d="M 148.937363 128.674321 C 148.937363 126.30854 151.434108 124.053774 154.472454 124.053774 C 166.679615 124.053774 213.516627 124.053774 235.829843 124.053774 C 239.463567 124.053774 241.553151 125.770688 241.553151 128.582446 C 241.553151 139.892642 241.553151 168.915571 241.553151 175.057798 C 241.553151 177.291509 239.503899 179.383579 235.933554 179.383579 C 213.797031 179.383579 166.890878 179.383579 154.578086 179.383579 C 151.485963 179.383579 148.937363 177.710688 148.937363 174.965923 C 148.937363 163.814595 148.937363 134.963931 148.937363 128.674321 Z M 148.937363 128.674321 " transform="matrix(2.033898,0,0,2.040816,-188.153919,-217.022531)"/>
<path style="fill-rule:nonzero;fill:rgb(9.411765%,100%,0%);fill-opacity:1;stroke-width:2;stroke-linecap:butt;stroke-linejoin:miter;stroke:rgb(5.098039%,74.117647%,0%);stroke-opacity:1;stroke-miterlimit:10;" d="M 157.249602 165.288423 C 158.814869 165.288423 169.134108 165.288423 171.995761 165.288423 C 172.46054 165.288423 172.72942 165.476001 172.72942 165.786079 C 172.72942 167.032134 172.72942 170.230532 172.72942 170.906196 C 172.72942 171.15311 172.466302 171.382798 172.009205 171.382798 C 169.170599 171.382798 158.841757 171.382798 157.263046 171.382798 C 156.867408 171.382798 156.540911 171.199048 156.540911 170.896626 C 156.540911 169.667798 156.540911 166.490454 156.540911 165.797563 C 156.540911 165.535337 156.859726 165.288423 157.249602 165.288423 Z M 157.249602 165.288423 " transform="matrix(2.033898,0,0,2.040816,-188.153919,-217.022531)"/>
<path style="fill-rule:nonzero;fill:rgb(9.411765%,100%,0%);fill-opacity:1;stroke-width:2;stroke-linecap:butt;stroke-linejoin:miter;stroke:rgb(5.098039%,74.117647%,0%);stroke-opacity:1;stroke-miterlimit:10;" d="M 192.47483 171.583774 C 190.896119 171.583774 180.567278 171.583774 177.730592 171.583774 C 177.273496 171.583774 177.010377 171.352173 177.010377 171.107173 C 177.010377 170.429595 177.010377 167.23311 177.010377 165.987056 C 177.010377 165.676978 177.277337 165.487485 177.744036 165.487485 C 180.603769 165.487485 190.923007 165.487485 192.488274 165.487485 C 192.878151 165.487485 193.196966 165.736313 193.196966 165.996626 C 193.196966 166.689517 193.196966 169.868774 193.196966 171.095688 C 193.196966 171.095688 192.870468 171.583774 192.47483 171.583774 Z M 192.47483 171.583774 " transform="matrix(2.033898,0,0,2.040816,-188.153919,-217.022531)"/>
<path style="fill-rule:nonzero;fill:rgb(9.411765%,100%,0%);fill-opacity:1;stroke-width:2;stroke-linecap:butt;stroke-linejoin:miter;stroke:rgb(5.098039%,74.117647%,0%);stroke-opacity:1;stroke-miterlimit:10;" d="M 213.666432 170.896626 C 213.666432 171.199048 213.339934 171.382798 212.944296 171.382798 C 211.365586 171.382798 201.036744 171.382798 198.200058 171.382798 C 197.741041 171.382798 197.477923 171.15311 197.477923 170.906196 C 197.477923 170.230532 197.477923 167.032134 197.477923 165.786079 C 197.477923 165.476001 197.746803 165.288423 198.213502 165.288423 C 201.073235 165.288423 211.392474 165.288423 212.95774 165.288423 C 213.347617 165.288423 213.666432 165.797563 213.666432 165.797563 C 213.666432 165.797563 213.666432 169.667798 213.666432 170.896626 Z M 213.666432 170.896626 " transform="matrix(2.033898,0,0,2.040816,-188.153919,-217.022531)"/>
<path style="fill-rule:nonzero;fill:rgb(9.411765%,100%,0%);fill-opacity:1;stroke-width:2;stroke-linecap:butt;stroke-linejoin:miter;stroke:rgb(5.098039%,74.117647%,0%);stroke-opacity:1;stroke-miterlimit:10;" d="M 217.947389 165.797563 C 217.947389 165.535337 218.268125 165.288423 218.658001 165.288423 C 220.221347 165.288423 230.542506 165.288423 233.402239 165.288423 C 233.867018 165.288423 234.135898 165.476001 234.135898 165.786079 C 234.135898 167.032134 234.135898 170.230532 234.135898 170.906196 C 234.135898 171.15311 233.87278 171.382798 233.415683 171.382798 C 230.577076 171.382798 220.250156 171.382798 218.671445 171.382798 C 218.273886 171.382798 217.947389 171.199048 217.947389 170.896626 C 217.947389 169.667798 217.947389 165.797563 217.947389 165.797563 Z M 217.947389 165.797563 " transform="matrix(2.033898,0,0,2.040816,-188.153919,-217.022531)"/>
<path style="fill-rule:nonzero;fill:rgb(78.039216%,100%,0%);fill-opacity:1;stroke-width:2;stroke-linecap:butt;stroke-linejoin:miter;stroke:rgb(65.490196%,83.137255%,0%);stroke-opacity:1;stroke-miterlimit:10;" d="M 157.249602 154.037563 C 158.814869 154.037563 169.134108 154.037563 171.995761 154.037563 C 172.46054 154.037563 172.72942 154.227056 172.72942 154.537134 C 172.72942 155.783188 172.72942 158.979673 172.72942 159.657251 C 172.72942 159.902251 172.466302 160.133852 172.009205 160.133852 C 169.170599 160.133852 158.841757 160.133852 157.263046 160.133852 C 156.867408 160.133852 156.540911 159.948188 156.540911 159.645767 C 156.540911 158.416938 156.540911 155.239595 156.540911 154.546704 C 156.540911 154.286392 156.859726 154.037563 157.249602 154.037563 Z M 157.249602 154.037563 " transform="matrix(2.033898,0,0,2.040816,-188.153919,-217.022531)"/>
<path style="fill-rule:nonzero;fill:rgb(78.039216%,100%,0%);fill-opacity:1;stroke-width:2;stroke-linecap:butt;stroke-linejoin:miter;stroke:rgb(65.490196%,83.137255%,0%);stroke-opacity:1;stroke-miterlimit:10;" d="M 213.666432 159.645767 C 213.666432 159.948188 213.339934 160.133852 212.944296 160.133852 C 211.365586 160.133852 201.036744 160.133852 198.200058 160.133852 C 197.741041 160.133852 197.477923 159.902251 197.477923 159.657251 C 197.477923 158.979673 197.477923 155.783188 197.477923 154.537134 C 197.477923 154.227056 197.746803 154.037563 198.213502 154.037563 C 201.073235 154.037563 211.392474 154.037563 212.95774 154.037563 C 213.347617 154.037563 213.666432 154.546704 213.666432 154.546704 C 213.666432 154.546704 213.666432 158.416938 213.666432 159.645767 Z M 213.666432 159.645767 " transform="matrix(2.033898,0,0,2.040816,-188.153919,-217.022531)"/>
<path style="fill-rule:nonzero;fill:rgb(78.039216%,100%,0%);fill-opacity:1;stroke-width:2;stroke-linecap:butt;stroke-linejoin:miter;stroke:rgb(65.490196%,83.137255%,0%);stroke-opacity:1;stroke-miterlimit:10;" d="M 217.947389 154.546704 C 217.947389 154.286392 218.268125 154.037563 218.658001 154.037563 C 220.221347 154.037563 230.542506 154.037563 233.402239 154.037563 C 233.867018 154.037563 234.135898 154.227056 234.135898 154.537134 C 234.135898 155.783188 234.135898 158.979673 234.135898 159.657251 C 234.135898 159.902251 233.87278 160.133852 233.415683 160.133852 C 230.577076 160.133852 220.250156 160.133852 218.671445 160.133852 C 218.273886 160.133852 217.947389 159.948188 217.947389 159.645767 C 217.947389 158.416938 217.947389 154.546704 217.947389 154.546704 Z M 217.947389 154.546704 " transform="matrix(2.033898,0,0,2.040816,-188.153919,-217.022531)"/>
<path style="fill-rule:nonzero;fill:rgb(100%,88.235294%,0%);fill-opacity:1;stroke-width:2;stroke-linecap:butt;stroke-linejoin:miter;stroke:rgb(100%,76.862745%,0%);stroke-opacity:1;stroke-miterlimit:10;" d="M 157.249602 142.788618 C 158.814869 142.788618 169.134108 142.788618 171.995761 142.788618 C 172.46054 142.788618 172.72942 142.976196 172.72942 143.286274 C 172.72942 144.532329 172.72942 147.730728 172.72942 148.406392 C 172.72942 148.653306 172.466302 148.882993 172.009205 148.882993 C 169.170599 148.882993 158.841757 148.882993 157.263046 148.882993 C 156.867408 148.882993 156.540911 148.699243 156.540911 148.396821 C 156.540911 147.167993 156.540911 143.988735 156.540911 143.295845 C 156.540911 143.035532 156.859726 142.788618 157.249602 142.788618 Z M 157.249602 142.788618 " transform="matrix(2.033898,0,0,2.040816,-188.153919,-217.022531)"/>
<path style="fill-rule:nonzero;fill:rgb(100%,88.235294%,0%);fill-opacity:1;stroke-width:2;stroke-linecap:butt;stroke-linejoin:miter;stroke:rgb(100%,76.862745%,0%);stroke-opacity:1;stroke-miterlimit:10;" d="M 213.666432 148.396821 C 213.666432 148.699243 213.339934 148.882993 212.944296 148.882993 C 211.365586 148.882993 201.036744 148.882993 198.200058 148.882993 C 197.741041 148.882993 197.477923 148.653306 197.477923 148.406392 C 197.477923 147.730728 197.477923 144.532329 197.477923 143.286274 C 197.477923 142.976196 197.746803 142.788618 198.213502 142.788618 C 201.073235 142.788618 211.392474 142.788618 212.95774 142.788618 C 213.347617 142.788618 213.666432 143.295845 213.666432 143.295845 C 213.666432 143.295845 213.666432 147.167993 213.666432 148.396821 Z M 213.666432 148.396821 " transform="matrix(2.033898,0,0,2.040816,-188.153919,-217.022531)"/>
<path style="fill-rule:nonzero;fill:rgb(100%,0%,0%);fill-opacity:1;stroke-width:2;stroke-linecap:butt;stroke-linejoin:miter;stroke:rgb(72.54902%,0%,0%);stroke-opacity:1;stroke-miterlimit:10;" d="M 213.666432 137.145962 C 213.666432 137.448384 213.339934 137.632134 212.944296 137.632134 C 211.365586 137.632134 201.036744 137.632134 198.200058 137.632134 C 197.741041 137.632134 197.477923 137.402446 197.477923 137.155532 C 197.477923 136.479868 197.477923 133.283384 197.477923 132.037329 C 197.477923 131.727251 197.746803 131.537759 198.213502 131.537759 C 201.073235 131.537759 211.392474 131.537759 212.95774 131.537759 C 213.347617 131.537759 213.666432 132.046899 213.666432 132.046899 C 213.666432 132.046899 213.666432 135.917134 213.666432 137.145962 Z M 213.666432 137.145962 " transform="matrix(2.033898,0,0,2.040816,-188.153919,-217.022531)"/>
<path style="fill-rule:nonzero;fill:url(#linear5);stroke-width:5;stroke-linecap:butt;stroke-linejoin:miter;stroke:rgb(12.941176%,12.941176%,12.941176%);stroke-opacity:1;stroke-miterlimit:10;" d="M 314.544524 127.012915 C 328.64153 120.028501 345.730787 125.793657 352.715911 139.890727 C 359.701035 153.987798 353.935475 171.076548 339.83847 178.062876 C 325.741464 185.04729 308.652207 179.282134 301.667083 165.185063 C 294.68388 151.087993 300.447519 133.997329 314.544524 127.012915 Z M 314.544524 127.012915 " transform="matrix(2.033898,0,0,2.040816,-188.153919,-217.022531)"/>
<path style="fill-rule:nonzero;fill:rgb(25.490196%,25.490196%,25.490196%);fill-opacity:1;stroke-width:4;stroke-linecap:butt;stroke-linejoin:miter;stroke:rgb(15.294118%,15.294118%,15.294118%);stroke-opacity:1;stroke-miterlimit:10;" d="M 318.306927 152.536938 C 318.306927 147.629282 322.284433 143.65186 327.191497 143.65186 C 332.100481 143.65186 336.077988 147.629282 336.077988 152.536938 C 336.077988 157.444595 332.100481 161.423931 327.191497 161.423931 C 322.284433 161.423931 318.306927 157.444595 318.306927 152.536938 Z M 318.306927 152.536938 " transform="matrix(2.033898,0,0,2.040816,-188.153919,-217.022531)"/>
<path style="fill:none;stroke-width:1;stroke-linecap:butt;stroke-linejoin:miter;stroke:rgb(30.196078%,30.196078%,30.196078%);stroke-opacity:1;stroke-miterlimit:10;" d="M 349.424049 149.520376 C 349.49511 150.044829 349.546966 150.57311 349.581536 151.109048 C 350.053997 158.527954 346.865846 165.336274 341.566985 169.763501 " transform="matrix(2.033898,0,0,2.040816,-188.153919,-217.022531)"/>
<path style="fill:none;stroke-width:1;stroke-linecap:butt;stroke-linejoin:miter;stroke:rgb(30.196078%,30.196078%,30.196078%);stroke-opacity:1;stroke-miterlimit:10;" d="M 328.099928 174.954438 C 319.935573 175.287485 312.570175 171.197134 308.383326 164.77354 " transform="matrix(2.033898,0,0,2.040816,-188.153919,-217.022531)"/>
<path style="fill:none;stroke-width:1;stroke-linecap:butt;stroke-linejoin:miter;stroke:rgb(30.196078%,30.196078%,30.196078%);stroke-opacity:1;stroke-miterlimit:10;" d="M 308.851946 139.613188 C 312.631634 134.257642 318.712168 130.597954 325.762591 130.148149 C 326.369492 130.109868 326.972552 130.094556 327.56985 130.104126 " transform="matrix(2.033898,0,0,2.040816,-188.153919,-217.022531)"/>
<path style="fill:none;stroke-width:1;stroke-linecap:butt;stroke-linejoin:miter;stroke:rgb(30.196078%,30.196078%,30.196078%);stroke-opacity:1;stroke-miterlimit:10;" d="M 343.431862 151.756001 C 343.664251 156.558384 341.782089 160.987524 338.593938 164.126587 " transform="matrix(2.033898,0,0,2.040816,-188.153919,-217.022531)"/>
<path style="fill:none;stroke-width:1;stroke-linecap:butt;stroke-linejoin:miter;stroke:rgb(30.196078%,30.196078%,30.196078%);stroke-opacity:1;stroke-miterlimit:10;" d="M 326.517376 168.783501 C 320.674993 168.548071 315.547063 165.194634 312.881308 160.260181 " transform="matrix(2.033898,0,0,2.040816,-188.153919,-217.022531)"/>
<path style="fill:none;stroke-width:1;stroke-linecap:butt;stroke-linejoin:miter;stroke:rgb(30.196078%,30.196078%,30.196078%);stroke-opacity:1;stroke-miterlimit:10;" d="M 313.180918 144.289243 C 315.810182 139.833306 320.513665 136.707642 326.056438 136.319087 " transform="matrix(2.033898,0,0,2.040816,-188.153919,-217.022531)"/>
<path style="fill-rule:nonzero;fill:rgb(25.490196%,25.490196%,25.490196%);fill-opacity:1;stroke-width:2.5;stroke-linecap:butt;stroke-linejoin:miter;stroke:rgb(15.294118%,15.294118%,15.294118%);stroke-opacity:1;stroke-miterlimit:10;" d="M 342.089381 155.51522 L 351.730657 132.873774 L 355.145436 134.307407 L 347.023333 153.658579 Z M 342.089381 155.51522 " transform="matrix(2.033898,0,0,2.040816,-188.153919,-217.022531)"/>
<path style="fill-rule:nonzero;fill:rgb(25.490196%,25.490196%,25.490196%);fill-opacity:1;stroke-width:4;stroke-linecap:butt;stroke-linejoin:miter;stroke:rgb(15.294118%,15.294118%,15.294118%);stroke-opacity:1;stroke-miterlimit:10;" d="M 351.446412 138.472407 C 350.142343 138.472407 349.084108 137.415845 349.084108 136.110454 L 349.084108 126.467407 C 349.084108 125.162017 350.142343 124.105454 351.446412 124.105454 L 358.137688 124.105454 C 359.443678 124.105454 360.499993 125.162017 360.499993 126.467407 L 360.499993 133.551353 C 360.499993 134.856743 359.443678 135.913306 358.137688 135.913306 Z M 351.446412 138.472407 " transform="matrix(2.033898,0,0,2.040816,-188.153919,-217.022531)"/>
<path style="fill-rule:nonzero;fill:rgb(0%,0%,0%);fill-opacity:1;stroke-width:5;stroke-linecap:butt;stroke-linejoin:miter;stroke:rgb(15.294118%,15.294118%,15.294118%);stroke-opacity:1;stroke-miterlimit:10;" d="M 118.477076 200.367446 C 116.268418 200.367446 114.476523 198.893618 114.476523 196.106743 C 114.476523 193.319868 116.268418 191.84604 118.477076 191.84604 L 239.144752 191.84604 C 241.353411 191.84604 243.143385 193.319868 243.143385 196.106743 C 243.143385 198.893618 241.353411 200.367446 239.144752 200.367446 Z M 118.477076 200.367446 " transform="matrix(2.033898,0,0,2.040816,-188.153919,-217.022531)"/>
<path style="fill-rule:nonzero;fill:rgb(25.490196%,25.490196%,25.490196%);fill-opacity:1;stroke-width:5;stroke-linecap:butt;stroke-linejoin:miter;stroke:rgb(15.294118%,15.294118%,15.294118%);stroke-opacity:1;stroke-miterlimit:10;" d="M 137.811484 203.772563 C 135.600905 203.772563 133.810931 201.982915 133.810931 199.774087 L 133.810931 192.439399 C 133.810931 190.230571 135.600905 188.440923 137.811484 188.440923 L 163.81028 188.440923 C 166.018938 188.440923 167.810833 190.230571 167.810833 192.439399 L 167.810833 199.774087 C 167.810833 201.982915 166.018938 203.772563 163.81028 203.772563 Z M 137.811484 203.772563 " transform="matrix(2.033898,0,0,2.040816,-188.153919,-217.022531)"/>
<path style=" stroke:none;fill-rule:nonzero;fill:url(#linear6);" d="M 99.820312 193.605469 L 99.820312 172.789062 L 118.886719 172.789062 L 118.886719 193.605469 Z M 99.820312 193.605469 "/>
<path style=" stroke:none;fill-rule:nonzero;fill:url(#linear7);" d="M 118.824219 193.605469 L 118.824219 172.789062 L 137.890625 172.789062 L 137.890625 193.605469 Z M 118.824219 193.605469 "/>
<path style="fill-rule:nonzero;fill:url(#radial0);stroke-width:4;stroke-linecap:butt;stroke-linejoin:miter;stroke:rgb(15.294118%,15.294118%,15.294118%);stroke-opacity:1;stroke-miterlimit:10;" d="M 277.928802 171.712017 C 275.896836 171.712017 274.248984 170.064009 274.248984 168.033188 L 274.248984 159.203618 C 274.248984 157.170884 275.896836 155.52479 277.928802 155.52479 L 286.757675 155.52479 C 288.789642 155.52479 290.437493 157.170884 290.437493 159.203618 L 290.437493 168.033188 C 290.437493 170.064009 288.789642 171.712017 286.757675 171.712017 Z M 277.928802 171.712017 " transform="matrix(2.033898,0,0,2.040816,-188.153919,-217.022531)"/>
<path style="fill-rule:nonzero;fill:url(#radial1);stroke-width:4;stroke-linecap:butt;stroke-linejoin:miter;stroke:rgb(15.294118%,15.294118%,15.294118%);stroke-opacity:1;stroke-miterlimit:10;" d="M 277.928802 148.312602 C 275.896836 148.312602 274.248984 146.664595 274.248984 144.63186 L 274.248984 135.80229 C 274.248984 133.77147 275.896836 132.123462 277.928802 132.123462 L 286.757675 132.123462 C 288.789642 132.123462 290.437493 133.77147 290.437493 135.80229 L 290.437493 144.63186 C 290.437493 146.664595 288.789642 148.312602 286.757675 148.312602 Z M 277.928802 148.312602 " transform="matrix(2.033898,0,0,2.040816,-188.153919,-217.022531)"/>
<path style="fill-rule:nonzero;fill:url(#radial2);stroke-width:4;stroke-linecap:butt;stroke-linejoin:miter;stroke:rgb(15.294118%,15.294118%,15.294118%);stroke-opacity:1;stroke-miterlimit:10;" d="M 254.55735 171.712017 C 252.527304 171.712017 250.879453 170.064009 250.879453 168.033188 L 250.879453 159.203618 C 250.879453 157.170884 252.527304 155.52479 254.55735 155.52479 L 263.388144 155.52479 C 265.42011 155.52479 267.067962 157.170884 267.067962 159.203618 L 267.067962 168.033188 C 267.067962 170.064009 265.42011 171.712017 263.388144 171.712017 Z M 254.55735 171.712017 " transform="matrix(2.033898,0,0,2.040816,-188.153919,-217.022531)"/>
<path style="fill-rule:nonzero;fill:url(#radial3);stroke-width:4;stroke-linecap:butt;stroke-linejoin:miter;stroke:rgb(15.294118%,15.294118%,15.294118%);stroke-opacity:1;stroke-miterlimit:10;" d="M 254.55735 148.312602 C 252.527304 148.312602 250.879453 146.664595 250.879453 144.63186 L 250.879453 135.80229 C 250.879453 133.77147 252.527304 132.123462 254.55735 132.123462 L 263.388144 132.123462 C 265.42011 132.123462 267.067962 133.77147 267.067962 135.80229 L 267.067962 144.63186 C 267.067962 146.664595 265.42011 148.312602 263.388144 148.312602 Z M 254.55735 148.312602 " transform="matrix(2.033898,0,0,2.040816,-188.153919,-217.022531)"/>
</g>
</svg>
