<?xml version="1.0" encoding="UTF-8"?>
<svg xmlns="http://www.w3.org/2000/svg" xmlns:xlink="http://www.w3.org/1999/xlink" width="600px" height="300px" viewBox="0 0 600 300" version="1.1">
<defs>
<linearGradient id="linear0" gradientUnits="userSpaceOnUse" x1="310.49334" y1="211.29407" x2="310.49334" y2="227.48221" gradientTransform="matrix(2.033898,0,0,2.040816,-188.153919,-217.022531)">
<stop offset="0" style="stop-color:rgb(0%,30.196078%,11.764706%);stop-opacity:1;"/>
<stop offset="1" style="stop-color:rgb(0%,30.196078%,11.764706%);stop-opacity:0;"/>
</linearGradient>
<linearGradient id="linear1" gradientUnits="userSpaceOnUse" x1="310.49334" y1="211.49406" x2="310.49334" y2="195.30592" gradientTransform="matrix(2.033898,0,0,2.040816,-188.153919,-217.022531)">
<stop offset="0" style="stop-color:rgb(0%,30.196078%,11.764706%);stop-opacity:1;"/>
<stop offset="1" style="stop-color:rgb(0%,30.196078%,11.764706%);stop-opacity:0;"/>
</linearGradient>
<linearGradient id="linear2" gradientUnits="userSpaceOnUse" x1="310.49334" y1="200.12128" x2="310.49334" y2="222.44675" >
<stop offset="0" style="stop-color:rgb(0%,100%,45.098039%);stop-opacity:1;"/>
<stop offset="1" style="stop-color:rgb(0%,100%,99.607843%);stop-opacity:1;"/>
</linearGradient>
<linearGradient id="linear3" gradientUnits="userSpaceOnUse" x1="216.03322" y1="221.44043" x2="206.65932" y2="221.44043" gradientTransform="matrix(2.033898,0,0,2.040816,-188.153919,-217.022531)">
<stop offset="0" style="stop-color:rgb(34.901961%,34.901961%,34.901961%);stop-opacity:0;"/>
<stop offset="1" style="stop-color:rgb(34.901961%,34.901961%,34.901961%);stop-opacity:1;"/>
</linearGradient>
<linearGradient id="linear4" gradientUnits="userSpaceOnUse" x1="197.31543" y1="221.44043" x2="206.68934" y2="221.44043" gradientTransform="matrix(2.033898,0,0,2.040816,-188.153919,-217.022531)">
<stop offset="0" style="stop-color:rgb(34.901961%,34.901961%,34.901961%);stop-opacity:0;"/>
<stop offset="1" style="stop-color:rgb(34.901961%,34.901961%,34.901961%);stop-opacity:1;"/>
</linearGradient>
<linearGradient id="linear5" gradientUnits="userSpaceOnUse" x1="316.1957" y1="126.25898" x2="338.18826" y2="178.81658" >
<stop offset="0" style="stop-color:rgb(80.784314%,100%,99.607843%);stop-opacity:1;"/>
<stop offset="1" style="stop-color:rgb(95.686275%,77.647059%,100%);stop-opacity:1;"/>
</linearGradient>
<linearGradient id="linear6" gradientUnits="userSpaceOnUse" x1="141.58792" y1="196.1071" x2="150.96182" y2="196.1071" gradientTransform="matrix(2.033898,0,0,2.040816,-188.153919,-217.022531)">
<stop offset="0" style="stop-color:rgb(34.901961%,34.901961%,34.901961%);stop-opacity:0;"/>
<stop offset="1" style="stop-color:rgb(34.901961%,34.901961%,34.901961%);stop-opacity:1;"/>
</linearGradient>
<linearGradient id="linear7" gradientUnits="userSpaceOnUse" x1="160.30569" y1="196.1071" x2="150.93181" y2="196.1071" gradientTransform="matrix(2.033898,0,0,2.040816,-188.153919,-217.022531)">
<stop offset="0" style="stop-color:rgb(34.901961%,34.901961%,34.901961%);stop-opacity:0;"/>
<stop offset="1" style="stop-color:rgb(34.901961%,34.901961%,34.901961%);stop-opacity:1;"/>
</linearGradient>
<radialGradient id="radial0" gradientUnits="userSpaceOnUse" cx="282.34297" cy="163.61793" fx="282.34297" fy="163.61793" r="8.09408" >
<stop offset="0" style="stop-color:rgb(69.019608%,81.568627%,100%);stop-opacity:1;"/>
<stop offset="1" style="stop-color:rgb(0%,40%,100%);stop-opacity:1;"/>
</radialGradient>
<radialGradient id="radial1" gradientUnits="userSpaceOnUse" cx="282.34297" cy="140.21785" fx="282.34297" fy="140.21785" r="8.09407" >
<stop offset="0" style="stop-color:rgb(69.019608%,100%,100%);stop-opacity:1;"/>
<stop offset="1" style="stop-color:rgb(0%,100%,100%);stop-opacity:1;"/>
</radialGradient>
<radialGradient id="radial2" gradientUnits="userSpaceOnUse" cx="258.97323" cy="163.61793" fx="258.97323" fy="163.61793" r="8.09408" >
<stop offset="0" style="stop-color:rgb(93.72549%,69.019608%,100%);stop-opacity:1;"/>
<stop offset="1" style="stop-color:rgb(80%,0%,100%);stop-opacity:1;"/>
</radialGradient>
<radialGradient id="radial3" gradientUnits="userSpaceOnUse" cx="258.97323" cy="140.21785" fx="258.97323" fy="140.21785" r="8.09407" >
<stop offset="0" style="stop-color:rgb(69.019608%,100%,85.490196%);stop-opacity:1;"/>
<stop offset="1" style="stop-color:rgb(0%,100%,58.431373%);stop-opacity:1;"/>
</radialGradient>
</defs>
<g id="surface1">
<path style=" stroke:none;fill-rule:nonzero;fill:rgb(40%,40%,40%);fill-opacity:1;" d="M 0 300.648438 L 0 0 L 599.964844 0 L 599.964844 300.648438 Z M 0 300.648438 "/>
<path style="fill-rule:nonzero;fill:rgb(0%,0%,0%);fill-opacity:1;stroke-width:5;stroke-linecap:butt;stroke-linejoin:miter;stroke:rgb(15.294118%,15.294118%,15.294118%);stroke-opacity:1;stroke-miterlimit:10;" d="M 260.493841 232.895024 C 258.283261 232.895024 256.493287 231.103462 256.493287 228.894634 L 256.493287 193.894087 C 256.493287 191.685259 258.283261 189.893696 260.493841 189.893696 L 360.494231 189.893696 C 362.70289 189.893696 364.492864 191.685259 364.492864 193.894087 L 364.492864 228.894634 C 364.492864 231.103462 362.70289 232.895024 360.494231 232.895024 Z M 260.493841 232.895024 " transform="matrix(2.033898,0,0,2.040816,-188.153919,-217.022531)"/>
<path style=" stroke:none;fill-rule:nonzero;fill:rgb(30.196078%,30.196078%,30.196078%);fill-opacity:1;" d="M 43.8125 37.339844 C 45.457031 36.410156 46.988281 35.945312 48.496094 35.710938 C 49.445312 35.523438 50.433594 35.425781 51.4375 35.425781 C 51.933594 35.425781 52.421875 35.449219 52.902344 35.496094 C 54.1875 35.507812 55.511719 35.527344 56.929688 35.425781 C 59.636719 35.234375 60.769531 31.554688 62.921875 29.898438 C 71.800781 23.070312 84.472656 30.214844 87.351562 38.664062 C 88.480469 41.988281 94.398438 38.351562 97.851562 38.945312 C 108.621094 40.792969 122.988281 48.089844 123.644531 59.917969 C 123.929688 65.089844 118.757812 66.738281 117.597656 70.53125 C 116.867188 72.914062 120.5 75.019531 122.847656 75.828125 C 126.792969 77.183594 129.464844 78.125 133.261719 80.414062 C 138.625 83.640625 145.589844 95.09375 145.09375 101.589844 C 145.007812 102.722656 142.859375 107.382812 143.28125 108.386719 C 145.355469 113.316406 152.558594 115.847656 150.179688 123.015625 C 148.558594 127.894531 145.738281 132.75 141.652344 135.851562 C 139.574219 137.429688 136.453125 135.558594 133.851562 135.417969 C 127.628906 135.078125 115.460938 134.542969 111.046875 129.894531 C 101.808594 120.164062 103.898438 117.035156 91.464844 108.71875 C 90.101562 107.808594 91.210938 112.1875 90.210938 113.488281 C 89.039062 115.011719 87.054688 115.675781 85.390625 116.628906 C 82.601562 118.226562 80.070312 120.960938 76.863281 121.140625 C 76.648438 121.152344 63.703125 113.746094 63.515625 113.488281 C 61.972656 111.363281 62.171875 108.402344 61.609375 105.835938 C 60.136719 99.125 65.871094 92.695312 66.480469 86.589844 C 66.503906 86.347656 61.976562 87.589844 61.445312 87.5625 C 58.507812 87.421875 54.199219 86.722656 51.734375 84.832031 C 48.914062 82.660156 44.050781 78.027344 43.484375 74.167969 C 42.695312 68.820312 45.292969 66.722656 43.695312 63.921875 C 39.203125 61.261719 36.183594 56.351562 36.183594 50.734375 C 36.183594 45.75 38.554688 41.328125 42.226562 38.53125 C 42.699219 38.074219 43.222656 37.671875 43.8125 37.339844 Z M 43.8125 37.339844 "/>
<path style=" stroke:none;fill-rule:nonzero;fill:url(#linear0);" d="M 338.511719 247.226562 L 338.511719 214.191406 L 548.203125 214.191406 L 548.203125 247.226562 Z M 338.511719 247.226562 "/>
<path style=" stroke:none;fill-rule:nonzero;fill:url(#linear1);" d="M 338.511719 214.597656 L 338.511719 181.5625 L 548.203125 181.5625 L 548.203125 214.597656 Z M 338.511719 214.597656 "/>
<path style=" stroke:none;fill-rule:nonzero;fill:rgb(30.196078%,30.196078%,30.196078%);fill-opacity:1;" d="M 324.046875 273.011719 C 321.550781 276.453125 315.523438 278.226562 311.640625 278.757812 C 305.417969 279.605469 296.859375 271.457031 293.511719 271.738281 C 287.511719 272.242188 282.433594 274.386719 276.359375 274.058594 C 270.550781 273.746094 266.8125 272.015625 262.027344 269.140625 C 258.273438 266.878906 253.21875 269.003906 248.929688 268.109375 C 246.5 267.605469 243.59375 267.382812 241.949219 265.519531 C 239.921875 263.210938 238.96875 258.363281 235.90625 258.5625 C 227.210938 259.132812 224.070312 261.5625 215.011719 259.503906 C 195.152344 254.988281 203.582031 243.707031 204.054688 232.667969 C 204.191406 229.457031 201.039062 230.769531 199.925781 228.199219 C 198.9375 225.917969 199.019531 223.289062 198.921875 220.800781 C 198.511719 210.226562 203.867188 192.929688 214.171875 188.347656 C 216.109375 183.738281 219.871094 182.804688 227.191406 183.324219 C 228.65625 183.429688 229.246094 185.78125 230.699219 186.003906 C 231.816406 186.171875 232.523438 184.472656 233.640625 184.3125 C 234.957031 184.121094 236.316406 184.550781 237.578125 184.976562 C 239.261719 185.550781 241.019531 188.066406 242.910156 188.457031 C 243.46875 188.574219 252.921875 186.675781 253.492188 186.738281 C 258.621094 187.304688 265.75 200.574219 268.164062 205.652344 C 268.773438 206.929688 269.121094 208.230469 269.84375 209.621094 C 270.117188 210.136719 270.816406 211.542969 270.960938 210.972656 C 271.785156 207.691406 274.707031 206.578125 277.335938 205.519531 C 287.808594 201.300781 290.5625 210.339844 297.074219 217.59375 C 298.875 219.601562 300.816406 221.507812 302.964844 223.136719 C 303.207031 223.320312 303.089844 222.535156 303.238281 222.269531 C 304.140625 220.679688 305.058594 219.09375 306.105469 217.597656 C 306.671875 216.792969 316.46875 214.960938 317.28125 215.507812 C 325.917969 221.285156 333.648438 234.835938 339.671875 242.539062 C 340.820312 244.007812 342.585938 249.664062 344.5625 250.4375 C 345.316406 250.730469 347.28125 247.613281 347.742188 247.105469 C 349.726562 244.925781 356.847656 236.65625 360.152344 237.964844 L 369.949219 241.847656 C 370.433594 244.914062 372.335938 248.140625 371.960938 251.109375 C 371.90625 251.5625 371.792969 252.007812 371.617188 252.449219 C 371.339844 253.144531 370.949219 253.808594 370.480469 254.445312 C 369.984375 255.1875 369.390625 255.875 368.695312 256.488281 C 366.945312 258.238281 364.878906 259.828125 363.429688 261.457031 C 356.527344 269.230469 349.640625 276.191406 339 275.277344 C 335.140625 274.945312 329.816406 264.195312 328.226562 264.261719 C 328.074219 264.269531 327.933594 264.292969 327.792969 264.332031 C 326.949219 267.730469 325.644531 270.8125 324.046875 273.011719 Z M 324.046875 273.011719 "/>
<path style=" stroke:none;fill-rule:nonzero;fill:rgb(30.196078%,30.196078%,30.196078%);fill-opacity:1;" d="M 469.914062 47.542969 C 476.753906 43.683594 487.566406 45.179688 494.929688 43.023438 C 516.984375 36.558594 546.722656 34.652344 548.726562 62.191406 C 548.824219 63.523438 551.105469 63.398438 552.246094 64.085938 C 556.421875 66.601562 561.644531 74.199219 562.785156 79.339844 C 564.117188 85.355469 559.054688 89.234375 558.472656 94.511719 C 558.375 95.402344 559.914062 95.585938 560.5 96.257812 C 562.136719 98.117188 562.691406 102.320312 563.386719 105.113281 C 565.8125 114.851562 569.203125 121.199219 563.183594 130.546875 C 562.296875 131.929688 564.535156 136.980469 563.800781 138.453125 C 561.511719 143.050781 558.414062 148.320312 553.550781 149.945312 C 551.117188 150.761719 532.527344 146.734375 529.136719 141.628906 C 525.832031 136.65625 524.910156 129.894531 526.949219 124.5 C 527.945312 121.859375 529.210938 120.683594 531.113281 118.773438 C 532.0625 117.820312 535.382812 116.730469 534.175781 116.140625 C 525.238281 111.78125 515.007812 112.980469 506.761719 105.917969 C 503.75 103.332031 506.910156 95.007812 502.964844 94.609375 C 499.070312 94.21875 494.355469 94.910156 490.289062 94.402344 C 479.851562 93.101562 456.214844 82.925781 459.140625 68.246094 C 459.628906 65.792969 461.855469 64.722656 462.34375 62.273438 C 462.304688 61.832031 462.285156 61.386719 462.285156 60.9375 C 462.285156 55.957031 464.65625 51.53125 468.328125 48.734375 C 468.800781 48.277344 469.324219 47.878906 469.914062 47.542969 Z M 469.914062 47.542969 "/>
<path style=" stroke:none;fill-rule:nonzero;fill:rgb(30.196078%,30.196078%,30.196078%);fill-opacity:1;" d="M 108.316406 264.746094 C 104.523438 263.042969 100.941406 260.746094 96.9375 259.636719 C 96.335938 259.46875 96.601562 260.851562 96.347656 261.421875 C 95.570312 263.152344 93.707031 267.171875 92.125 268.078125 C 88.960938 269.890625 85.449219 271.171875 81.875 271.886719 C 78.371094 272.589844 70.785156 266.769531 68.527344 264.234375 C 67.378906 262.945312 68.542969 259.433594 66.820312 259.335938 C 64.582031 259.210938 62.757812 261.558594 60.519531 261.683594 C 56.722656 261.894531 49.246094 257.152344 47.171875 254.03125 C 43.953125 249.1875 44.890625 243.171875 41.675781 237.953125 C 38.648438 233.035156 32.960938 229.066406 30.4375 224.320312 C 23.496094 211.257812 18.9375 196.398438 25.378906 182.003906 C 28.570312 174.871094 29.113281 173.421875 37.339844 171.039062 C 38.761719 170.625 39.71875 168.910156 41.195312 168.828125 C 44.992188 168.613281 52.46875 173.359375 54.542969 176.480469 C 57.996094 181.671875 55.316406 182.386719 56.449219 186.640625 C 57.84375 191.863281 61.328125 197.566406 62.679688 201.988281 C 63.425781 204.429688 63.375 219.382812 66.21875 219.507812 C 68.460938 219.605469 70.265625 218.46875 72.6875 219.007812 C 73.132812 219.105469 73.503906 220.207031 73.773438 219.835938 C 79.160156 212.484375 78.003906 209.132812 90.011719 209.132812 C 91.40625 209.132812 92.707031 207.65625 94.054688 208.027344 C 102.488281 210.335938 103.765625 216.808594 108.019531 222.6875 C 112.996094 229.5625 123.265625 234.660156 123.265625 244.144531 C 123.265625 247.425781 124.890625 255.242188 121.460938 257.207031 Z M 108.316406 264.746094 "/>
<path style=" stroke:none;fill-rule:nonzero;fill:rgb(30.196078%,30.196078%,30.196078%);fill-opacity:1;" d="M 382.847656 17.84375 C 383.375 17.921875 383.992188 18.09375 384.679688 18.34375 C 386.382812 18.804688 388.023438 19.570312 389.511719 20.636719 C 398.496094 25.59375 411.765625 35.667969 415.910156 39.609375 C 425.160156 48.402344 428.128906 50.144531 425.078125 61.195312 C 424.378906 63.726562 425.226562 67.484375 422.949219 68.78125 C 408.457031 77.058594 393.890625 75.378906 377.574219 75.839844 C 375.5 75.898438 377.320312 80.25 376.042969 81.894531 C 374.984375 83.261719 372.847656 83.339844 371.542969 84.476562 C 370.238281 85.613281 369.859375 87.722656 368.359375 88.582031 C 361.886719 92.292969 349.609375 87.117188 342.289062 87.488281 C 337.058594 87.753906 331.921875 92.589844 326.953125 90.925781 C 320.128906 88.644531 313.246094 74.359375 316.226562 67.296875 C 320.535156 57.082031 327.355469 54.269531 337.320312 55.390625 C 339.042969 55.585938 343.835938 57.835938 345.097656 56.875 C 346.210938 56.027344 344.949219 53.964844 345.527344 52.6875 C 347.457031 48.4375 352.191406 44.320312 357.152344 43.125 C 359.5625 42.546875 362.371094 42.316406 364.992188 42.519531 C 365.21875 42.539062 369.882812 43.984375 369.859375 43.90625 C 369.0625 43.105469 368.375 42.238281 367.792969 41.320312 C 364.039062 35.402344 364.738281 27.457031 369.886719 22.289062 C 372.90625 19.261719 376.878906 17.765625 380.835938 17.808594 C 381.5 17.738281 382.167969 17.742188 382.847656 17.84375 Z M 382.847656 17.84375 "/>
<path style="fill:none;stroke-width:3;stroke-linecap:round;stroke-linejoin:miter;stroke:url(#linear2);stroke-miterlimit:10;" d="M 257.031048 212.056626 L 265.673626 212.391587 L 269.793255 202.440376 L 277.825091 222.446157 L 285.685996 205.906743 L 290.785117 215.78522 L 296.975123 208.513696 L 300.309238 211.451782 L 306.983229 211.478579 L 312.68733 218.118462 L 321.719785 200.120532 L 328.795175 213.210806 L 334.691334 204.174517 L 343.297421 219.058267 L 351.346543 206.999673 L 354.375286 212.04897 L 363.955104 212.056626 " transform="matrix(2.033898,0,0,2.040816,-188.153919,-217.022531)"/>
<path style="fill-rule:nonzero;fill:rgb(0%,0%,0%);fill-opacity:1;stroke-width:5;stroke-linecap:butt;stroke-linejoin:miter;stroke:rgb(15.294118%,15.294118%,15.294118%);stroke-opacity:1;stroke-miterlimit:10;" d="M 118.477076 225.701977 C 116.268418 225.701977 114.476523 224.228149 114.476523 221.43936 C 114.476523 218.652485 116.268418 217.178657 118.477076 217.178657 L 239.144752 217.178657 C 241.353411 217.178657 243.143385 218.652485 243.143385 221.43936 C 243.143385 224.228149 241.353411 225.701977 239.144752 225.701977 Z M 118.477076 225.701977 " transform="matrix(2.033898,0,0,2.040816,-188.153919,-217.022531)"/>
<path style="fill-rule:nonzero;fill:rgb(25.490196%,25.490196%,25.490196%);fill-opacity:1;stroke-width:5;stroke-linecap:butt;stroke-linejoin:miter;stroke:rgb(15.294118%,15.294118%,15.294118%);stroke-opacity:1;stroke-miterlimit:10;" d="M 193.809628 229.107095 C 191.60097 229.107095 189.810996 227.315532 189.810996 225.106704 L 189.810996 217.773931 C 189.810996 215.565103 191.60097 213.77354 193.809628 213.77354 L 219.810345 213.77354 C 222.019003 213.77354 223.810898 215.565103 223.810898 217.773931 L 223.810898 225.106704 C 223.810898 227.315532 222.019003 229.107095 219.810345 229.107095 Z M 193.809628 229.107095 " transform="matrix(2.033898,0,0,2.040816,-188.153919,-217.022531)"/>
<path style=" stroke:none;fill-rule:nonzero;fill:url(#linear3);" d="M 232.171875 245.304688 L 232.171875 224.488281 L 251.234375 224.488281 L 251.234375 245.304688 Z M 232.171875 245.304688 "/>
<path style=" stroke:none;fill-rule:nonzero;fill:url(#linear4);" d="M 213.164062 245.304688 L 213.164062 224.488281 L 232.230469 224.488281 L 232.230469 245.304688 Z M 213.164062 245.304688 "/>
<path style="fill-rule:nonzero;fill:rgb(18.823529%,18.823529%,18.823529%);fill-opacity:1;stroke-width:2;stroke-linecap:butt;stroke-linejoin:miter;stroke:rgb(12.941176%,12.941176%,12.941176%);stroke-opacity:1;stroke-miterlimit:10;" d="M 101.293711 120.97022 C 101.293711 118.217798 103.525416 115.986001 106.277597 115.986001 C 109.031699 115.986001 111.263405 118.217798 111.263405 120.97022 C 111.263405 123.722642 109.031699 125.954438 106.277597 125.954438 C 103.525416 125.954438 101.293711 123.722642 101.293711 120.97022 Z M 101.293711 120.97022 " transform="matrix(2.033898,0,0,2.040816,-188.153919,-217.022531)"/>
<path style="fill:none;stroke-width:2;stroke-linecap:round;stroke-linejoin:miter;stroke:rgb(12.941176%,12.941176%,12.941176%);stroke-opacity:1;stroke-miterlimit:10;" d="M 107.69498 119.553813 L 104.862135 122.386626 " transform="matrix(2.033898,0,0,2.040816,-188.153919,-217.022531)"/>
<path style="fill:none;stroke-width:2;stroke-linecap:round;stroke-linejoin:miter;stroke:rgb(12.941176%,12.941176%,12.941176%);stroke-opacity:1;stroke-miterlimit:10;" d="M 104.862135 119.553813 L 107.69498 122.386626 " transform="matrix(2.033898,0,0,2.040816,-188.153919,-217.022531)"/>
<path style="fill-rule:nonzero;fill:rgb(18.823529%,18.823529%,18.823529%);fill-opacity:1;stroke-width:2;stroke-linecap:butt;stroke-linejoin:miter;stroke:rgb(12.941176%,12.941176%,12.941176%);stroke-opacity:1;stroke-miterlimit:10;" d="M 373.721217 125.954438 C 370.969036 125.954438 368.73733 123.722642 368.73733 120.97022 C 368.73733 118.217798 370.969036 115.986001 373.721217 115.986001 C 376.475319 115.986001 378.707024 118.217798 378.707024 120.97022 C 378.707024 123.722642 376.475319 125.954438 373.721217 125.954438 Z M 373.721217 125.954438 " transform="matrix(2.033898,0,0,2.040816,-188.153919,-217.022531)"/>
<path style="fill:none;stroke-width:2;stroke-linecap:round;stroke-linejoin:miter;stroke:rgb(12.941176%,12.941176%,12.941176%);stroke-opacity:1;stroke-miterlimit:10;" d="M 375.1386 122.386626 L 372.305755 119.553813 " transform="matrix(2.033898,0,0,2.040816,-188.153919,-217.022531)"/>
<path style="fill:none;stroke-width:2;stroke-linecap:round;stroke-linejoin:miter;stroke:rgb(12.941176%,12.941176%,12.941176%);stroke-opacity:1;stroke-miterlimit:10;" d="M 375.1386 119.553813 L 372.305755 122.386626 " transform="matrix(2.033898,0,0,2.040816,-188.153919,-217.022531)"/>
<path style="fill-rule:nonzero;fill:rgb(18.823529%,18.823529%,18.823529%);fill-opacity:1;stroke-width:2;stroke-linecap:butt;stroke-linejoin:miter;stroke:rgb(12.941176%,12.941176%,12.941176%);stroke-opacity:1;stroke-miterlimit:10;" d="M 106.277597 234.045376 C 109.031699 234.045376 111.263405 236.277173 111.263405 239.029595 C 111.263405 241.783931 109.031699 244.015728 106.277597 244.015728 C 103.525416 244.015728 101.293711 241.783931 101.293711 239.029595 C 101.293711 236.277173 103.525416 234.045376 106.277597 234.045376 Z M 106.277597 234.045376 " transform="matrix(2.033898,0,0,2.040816,-188.153919,-217.022531)"/>
<path style="fill:none;stroke-width:2;stroke-linecap:round;stroke-linejoin:miter;stroke:rgb(12.941176%,12.941176%,12.941176%);stroke-opacity:1;stroke-miterlimit:10;" d="M 107.69498 240.447915 L 104.862135 237.613188 " transform="matrix(2.033898,0,0,2.040816,-188.153919,-217.022531)"/>
<path style="fill:none;stroke-width:5;stroke-linecap:butt;stroke-linejoin:miter;stroke:rgb(15.294118%,15.294118%,15.294118%);stroke-opacity:1;stroke-miterlimit:10;" d="M 260.493841 232.895024 C 258.283261 232.895024 256.493287 231.103462 256.493287 228.894634 L 256.493287 193.894087 C 256.493287 191.685259 258.283261 189.893696 260.493841 189.893696 L 360.494231 189.893696 C 362.70289 189.893696 364.492864 191.685259 364.492864 193.894087 L 364.492864 228.894634 C 364.492864 231.103462 362.70289 232.895024 360.494231 232.895024 Z M 260.493841 232.895024 " transform="matrix(2.033898,0,0,2.040816,-188.153919,-217.022531)"/>
<path style="fill:none;stroke-width:2;stroke-linecap:round;stroke-linejoin:miter;stroke:rgb(12.941176%,12.941176%,12.941176%);stroke-opacity:1;stroke-miterlimit:10;" d="M 104.862135 240.447915 L 107.69498 237.613188 " transform="matrix(2.033898,0,0,2.040816,-188.153919,-217.022531)"/>
<path style="fill-rule:nonzero;fill:rgb(18.823529%,18.823529%,18.823529%);fill-opacity:1;stroke-width:2;stroke-linecap:butt;stroke-linejoin:miter;stroke:rgb(12.941176%,12.941176%,12.941176%);stroke-opacity:1;stroke-miterlimit:10;" d="M 373.721217 244.015728 C 370.969036 244.015728 368.73733 241.783931 368.73733 239.029595 C 368.73733 236.277173 370.969036 234.045376 373.721217 234.045376 C 376.475319 234.045376 378.707024 236.156587 378.707024 239.029595 C 378.707024 241.904517 376.475319 244.015728 373.721217 244.015728 Z M 373.721217 244.015728 " transform="matrix(2.033898,0,0,2.040816,-188.153919,-217.022531)"/>
<path style="fill:none;stroke-width:2;stroke-linecap:round;stroke-linejoin:miter;stroke:rgb(12.941176%,12.941176%,12.941176%);stroke-opacity:1;stroke-miterlimit:10;" d="M 375.1386 237.613188 L 372.305755 240.447915 " transform="matrix(2.033898,0,0,2.040816,-188.153919,-217.022531)"/>
<path style="fill:none;stroke-width:2;stroke-linecap:round;stroke-linejoin:miter;stroke:rgb(12.941176%,12.941176%,12.941176%);stroke-opacity:1;stroke-miterlimit:10;" d="M 372.305755 237.613188 L 375.1386 240.447915 " transform="matrix(2.033898,0,0,2.040816,-188.153919,-217.022531)"/>
<path style="fill-rule:nonzero;fill:rgb(25.490196%,25.490196%,25.490196%);fill-opacity:1;stroke-width:5;stroke-linecap:butt;stroke-linejoin:miter;stroke:rgb(15.294118%,15.294118%,15.294118%);stroke-opacity:1;stroke-miterlimit:10;" d="M 121.916823 147.30772 C 115.5386 146.264556 111.21539 140.246743 112.258261 133.869087 C 113.303053 127.489517 119.320208 123.165649 125.698431 124.208813 C 132.076653 125.253892 136.401783 131.271704 135.356992 137.64936 C 134.3122 144.027017 128.295045 148.352798 121.916823 147.30772 Z M 121.916823 147.30772 " transform="matrix(2.033898,0,0,2.040816,-188.153919,-217.022531)"/>
<path style="fill-rule:nonzero;fill:rgb(25.490196%,25.490196%,25.490196%);fill-opacity:1;stroke-width:5;stroke-linecap:butt;stroke-linejoin:miter;stroke:rgb(15.294118%,15.294118%,15.294118%);stroke-opacity:1;stroke-miterlimit:10;" d="M 118.340716 157.743188 C 124.056341 154.724712 131.135573 156.910571 134.154713 162.624048 C 137.173854 168.339438 134.990162 175.419556 129.274537 178.439946 C 123.558912 181.458423 116.479681 179.272563 113.46054 173.557173 C 110.441399 167.843696 112.627011 160.763579 118.340716 157.743188 Z M 118.340716 157.743188 " transform="matrix(2.033898,0,0,2.040816,-188.153919,-217.022531)"/>
<path style="fill:none;stroke-width:5;stroke-linecap:round;stroke-linejoin:miter;stroke:rgb(15.294118%,15.294118%,15.294118%);stroke-opacity:1;stroke-miterlimit:10;" d="M 121.803509 135.430962 L 113.965651 134.14854 " transform="matrix(2.033898,0,0,2.040816,-188.153919,-217.022531)"/>
<path style="fill:none;stroke-width:5;stroke-linecap:round;stroke-linejoin:miter;stroke:rgb(15.294118%,15.294118%,15.294118%);stroke-opacity:1;stroke-miterlimit:10;" d="M 132.625937 163.433696 L 125.604322 167.143149 " transform="matrix(2.033898,0,0,2.040816,-188.153919,-217.022531)"/>
<path style="fill-rule:nonzero;fill:rgb(0%,0%,0%);fill-opacity:1;stroke-width:5;stroke-linecap:butt;stroke-linejoin:miter;stroke:rgb(15.294118%,15.294118%,15.294118%);stroke-opacity:1;stroke-miterlimit:10;" d="M 148.937363 128.674321 C 148.937363 126.30854 151.434108 124.053774 154.472454 124.053774 C 166.679615 124.053774 213.516627 124.053774 235.829843 124.053774 C 239.463567 124.053774 241.553151 125.770688 241.553151 128.582446 C 241.553151 139.892642 241.553151 168.915571 241.553151 175.057798 C 241.553151 177.291509 239.503899 179.383579 235.933554 179.383579 C 213.797031 179.383579 166.890878 179.383579 154.578086 179.383579 C 151.485963 179.383579 148.937363 177.710688 148.937363 174.965923 C 148.937363 163.814595 148.937363 134.963931 148.937363 128.674321 Z M 148.937363 128.674321 " transform="matrix(2.033898,0,0,2.040816,-188.153919,-217.022531)"/>
<path style="fill-rule:nonzero;fill:rgb(9.411765%,100%,0%);fill-opacity:1;stroke-width:2;stroke-linecap:butt;stroke-linejoin:miter;stroke:rgb(5.098039%,74.117647%,0%);stroke-opacity:1;stroke-miterlimit:10;" d="M 157.249602 165.288423 C 158.814869 165.288423 169.134108 165.288423 171.995761 165.288423 C 172.46054 165.288423 172.72942 165.476001 172.72942 165.786079 C 172.72942 167.032134 172.72942 170.230532 172.72942 170.906196 C 172.72942 171.15311 172.466302 171.382798 172.009205 171.382798 C 169.170599 171.382798 158.841757 171.382798 157.263046 171.382798 C 156.867408 171.382798 156.540911 171.199048 156.540911 170.896626 C 156.540911 169.667798 156.540911 166.490454 156.540911 165.797563 C 156.540911 165.535337 156.859726 165.288423 157.249602 165.288423 Z M 157.249602 165.288423 " transform="matrix(2.033898,0,0,2.040816,-188.153919,-217.022531)"/>
<path style="fill-rule:nonzero;fill:rgb(9.411765%,100%,0%);fill-opacity:1;stroke-width:2;stroke-linecap:butt;stroke-linejoin:miter;stroke:rgb(5.098039%,74.117647%,0%);stroke-opacity:1;stroke-miterlimit:10;" d="M 192.47483 171.583774 C 190.896119 171.583774 180.567278 171.583774 177.730592 171.583774 C 177.273496 171.583774 177.010377 171.352173 177.010377 171.107173 C 177.010377 170.429595 177.010377 167.23311 177.010377 165.987056 C 177.010377 165.676978 177.277337 165.487485 177.744036 165.487485 C 180.603769 165.487485 190.923007 165.487485 192.488274 165.487485 C 192.878151 165.487485 193.196966 165.736313 193.196966 165.996626 C 193.196966 166.689517 193.196966 169.868774 193.196966 171.095688 C 193.196966 171.095688 192.870468 171.583774 192.47483 171.583774 Z M 192.47483 171.583774 " transform="matrix(2.033898,0,0,2.040816,-188.153919,-217.022531)"/>
<path style="fill-rule:nonzero;fill:rgb(9.411765%,100%,0%);fill-opacity:1;stroke-width:2;stroke-linecap:butt;stroke-linejoin:miter;stroke:rgb(5.098039%,74.117647%,0%);stroke-opacity:1;stroke-miterlimit:10;" d="M 213.666432 170.896626 C 213.666432 171.199048 213.339934 171.382798 212.944296 171.382798 C 211.365586 171.382798 201.036744 171.382798 198.200058 171.382798 C 197.741041 171.382798 197.477923 171.15311 197.477923 170.906196 C 197.477923 170.230532 197.477923 167.032134 197.477923 165.786079 C 197.477923 165.476001 197.746803 165.288423 198.213502 165.288423 C 201.073235 165.288423 211.392474 165.288423 212.95774 165.288423 C 213.347617 165.288423 213.666432 165.797563 213.666432 165.797563 C 213.666432 165.797563 213.666432 169.667798 213.666432 170.896626 Z M 213.666432 170.896626 " transform="matrix(2.033898,0,0,2.040816,-188.153919,-217.022531)"/>
<path style="fill-rule:nonzero;fill:rgb(9.411765%,100%,0%);fill-opacity:1;stroke-width:2;stroke-linecap:butt;stroke-linejoin:miter;stroke:rgb(5.098039%,74.117647%,0%);stroke-opacity:1;stroke-miterlimit:10;" d="M 217.947389 165.797563 C 217.947389 165.535337 218.268125 165.288423 218.658001 165.288423 C 220.221347 165.288423 230.542506 165.288423 233.402239 165.288423 C 233.867018 165.288423 234.135898 165.476001 234.135898 165.786079 C 234.135898 167.032134 234.135898 170.230532 234.135898 170.906196 C 234.135898 171.15311 233.87278 171.382798 233.415683 171.382798 C 230.577076 171.382798 220.250156 171.382798 218.671445 171.382798 C 218.273886 171.382798 217.947389 171.199048 217.947389 170.896626 C 217.947389 169.667798 217.947389 165.797563 217.947389 165.797563 Z M 217.947389 165.797563 " transform="matrix(2.033898,0,0,2.040816,-188.153919,-217.022531)"/>
<path style="fill-rule:nonzero;fill:rgb(78.039216%,100%,0%);fill-opacity:1;stroke-width:2;stroke-linecap:butt;stroke-linejoin:miter;stroke:rgb(65.490196%,83.137255%,0%);stroke-opacity:1;stroke-miterlimit:10;" d="M 157.249602 154.037563 C 158.814869 154.037563 169.134108 154.037563 171.995761 154.037563 C 172.46054 154.037563 172.72942 154.227056 172.72942 154.537134 C 172.72942 155.783188 172.72942 158.979673 172.72942 159.657251 C 172.72942 159.902251 172.466302 160.133852 172.009205 160.133852 C 169.170599 160.133852 158.841757 160.133852 157.263046 160.133852 C 156.867408 160.133852 156.540911 159.948188 156.540911 159.645767 C 156.540911 158.416938 156.540911 155.239595 156.540911 154.546704 C 156.540911 154.286392 156.859726 154.037563 157.249602 154.037563 Z M 157.249602 154.037563 " transform="matrix(2.033898,0,0,2.040816,-188.153919,-217.022531)"/>
<path style="fill-rule:nonzero;fill:rgb(78.039216%,100%,0%);fill-opacity:1;stroke-width:2;stroke-linecap:butt;stroke-linejoin:miter;stroke:rgb(65.490196%,83.137255%,0%);stroke-opacity:1;stroke-miterlimit:10;" d="M 213.666432 159.645767 C 213.666432 159.948188 213.339934 160.133852 212.944296 160.133852 C 211.365586 160.133852 201.036744 160.133852 198.200058 160.133852 C 197.741041 160.133852 197.477923 159.902251 197.477923 159.657251 C 197.477923 158.979673 197.477923 155.783188 197.477923 154.537134 C 197.477923 154.227056 197.746803 154.037563 198.213502 154.037563 C 201.073235 154.037563 211.392474 154.037563 212.95774 154.037563 C 213.347617 154.037563 213.666432 154.546704 213.666432 154.546704 C 213.666432 154.546704 213.666432 158.416938 213.666432 159.645767 Z M 213.666432 159.645767 " transform="matrix(2.033898,0,0,2.040816,-188.153919,-217.022531)"/>
<path style="fill-rule:nonzero;fill:rgb(78.039216%,100%,0%);fill-opacity:1;stroke-width:2;stroke-linecap:butt;stroke-linejoin:miter;stroke:rgb(65.490196%,83.137255%,0%);stroke-opacity:1;stroke-miterlimit:10;" d="M 217.947389 154.546704 C 217.947389 154.286392 218.268125 154.037563 218.658001 154.037563 C 220.221347 154.037563 230.542506 154.037563 233.402239 154.037563 C 233.867018 154.037563 234.135898 154.227056 234.135898 154.537134 C 234.135898 155.783188 234.135898 158.979673 234.135898 159.657251 C 234.135898 159.902251 233.87278 160.133852 233.415683 160.133852 C 230.577076 160.133852 220.250156 160.133852 218.671445 160.133852 C 218.273886 160.133852 217.947389 159.948188 217.947389 159.645767 C 217.947389 158.416938 217.947389 154.546704 217.947389 154.546704 Z M 217.947389 154.546704 " transform="matrix(2.033898,0,0,2.040816,-188.153919,-217.022531)"/>
<path style="fill-rule:nonzero;fill:rgb(100%,88.235294%,0%);fill-opacity:1;stroke-width:2;stroke-linecap:butt;stroke-linejoin:miter;stroke:rgb(100%,76.862745%,0%);stroke-opacity:1;stroke-miterlimit:10;" d="M 157.249602 142.788618 C 158.814869 142.788618 169.134108 142.788618 171.995761 142.788618 C 172.46054 142.788618 172.72942 142.976196 172.72942 143.286274 C 172.72942 144.532329 172.72942 147.730728 172.72942 148.406392 C 172.72942 148.653306 172.466302 148.882993 172.009205 148.882993 C 169.170599 148.882993 158.841757 148.882993 157.263046 148.882993 C 156.867408 148.882993 156.540911 148.699243 156.540911 148.396821 C 156.540911 147.167993 156.540911 143.988735 156.540911 143.295845 C 156.540911 143.035532 156.859726 142.788618 157.249602 142.788618 Z M 157.249602 142.788618 " transform="matrix(2.033898,0,0,2.040816,-188.153919,-217.022531)"/>
<path style="fill-rule:nonzero;fill:rgb(100%,88.235294%,0%);fill-opacity:1;stroke-width:2;stroke-linecap:butt;stroke-linejoin:miter;stroke:rgb(100%,76.862745%,0%);stroke-opacity:1;stroke-miterlimit:10;" d="M 213.666432 148.396821 C 213.666432 148.699243 213.339934 148.882993 212.944296 148.882993 C 211.365586 148.882993 201.036744 148.882993 198.200058 148.882993 C 197.741041 148.882993 197.477923 148.653306 197.477923 148.406392 C 197.477923 147.730728 197.477923 144.532329 197.477923 143.286274 C 197.477923 142.976196 197.746803 142.788618 198.213502 142.788618 C 201.073235 142.788618 211.392474 142.788618 212.95774 142.788618 C 213.347617 142.788618 213.666432 143.295845 213.666432 143.295845 C 213.666432 143.295845 213.666432 147.167993 213.666432 148.396821 Z M 213.666432 148.396821 " transform="matrix(2.033898,0,0,2.040816,-188.153919,-217.022531)"/>
<path style="fill-rule:nonzero;fill:rgb(100%,0%,0%);fill-opacity:1;stroke-width:2;stroke-linecap:butt;stroke-linejoin:miter;stroke:rgb(72.54902%,0%,0%);stroke-opacity:1;stroke-miterlimit:10;" d="M 213.666432 137.145962 C 213.666432 137.448384 213.339934 137.632134 212.944296 137.632134 C 211.365586 137.632134 201.036744 137.632134 198.200058 137.632134 C 197.741041 137.632134 197.477923 137.402446 197.477923 137.155532 C 197.477923 136.479868 197.477923 133.283384 197.477923 132.037329 C 197.477923 131.727251 197.746803 131.537759 198.213502 131.537759 C 201.073235 131.537759 211.392474 131.537759 212.95774 131.537759 C 213.347617 131.537759 213.666432 132.046899 213.666432 132.046899 C 213.666432 132.046899 213.666432 135.917134 213.666432 137.145962 Z M 213.666432 137.145962 " transform="matrix(2.033898,0,0,2.040816,-188.153919,-217.022531)"/>
<path style="fill:none;stroke-width:8;stroke-linecap:square;stroke-linejoin:round;stroke:rgb(0%,0%,0%);stroke-opacity:0.501961;stroke-miterlimit:10;" d="M 138.800579 238.63147 C 138.800579 239.132954 137.552207 239.38561 135.055462 239.38561 C 132.560638 239.38561 131.312265 239.132954 131.312265 238.63147 L 131.312265 219.65354 L 126.777793 219.65354 C 126.349505 219.65354 126.046054 219.071665 125.869362 217.909829 C 125.79638 217.358579 125.757968 216.792017 125.757968 216.212056 C 125.757968 215.630181 125.79638 215.065532 125.869362 214.514282 C 126.046054 213.352446 126.349505 212.770571 126.777793 212.770571 L 143.223658 212.770571 C 143.651946 212.770571 143.955397 213.352446 144.132089 214.514282 C 144.205071 215.065532 144.241562 215.630181 144.241562 216.212056 C 144.241562 216.792017 144.205071 217.358579 144.132089 217.909829 C 143.955397 219.071665 143.651946 219.65354 143.223658 219.65354 L 138.800579 219.65354 Z M 144.700579 220.560806 C 144.700579 220.281353 145.783782 220.139712 147.950188 220.139712 C 150.116595 220.139712 151.199798 220.281353 151.199798 220.560806 L 151.199798 231.601118 C 151.199798 232.862485 151.603118 233.492212 152.409759 233.492212 C 153.01666 233.492212 153.698463 233.226157 154.455169 232.694048 L 154.455169 220.560806 C 154.455169 220.310063 155.526849 220.185649 157.668287 220.185649 C 159.809726 220.185649 160.879485 220.310063 160.879485 220.560806 L 160.879485 232.960103 L 161.862819 232.960103 C 162.719394 232.960103 163.147682 233.779321 163.147682 235.419673 C 163.147682 236.250376 162.97291 237.096392 162.623365 237.951977 C 162.116334 239.06022 161.434531 239.613384 160.577955 239.613384 C 158.889772 239.613384 157.641399 238.922407 156.832838 237.53854 L 156.796347 237.574907 C 155.259889 238.933892 153.608196 239.613384 151.841269 239.613384 C 149.400221 239.613384 147.598724 239.002798 146.436777 237.781626 C 145.278671 236.562368 144.700579 234.53729 144.700579 231.712134 Z M 173.355527 239.00854 C 173.355527 239.184634 172.449017 239.274595 170.637916 239.274595 C 168.116204 239.199946 166.856308 239.062134 166.856308 238.861157 L 166.856308 226.609243 L 165.874895 226.609243 C 165.21998 226.609243 164.791692 226.056079 164.590032 224.947837 C 164.536256 224.618618 164.507448 224.291313 164.507448 223.965923 C 164.507448 223.183071 164.661093 222.40022 164.966464 221.617368 C 165.41972 220.509126 166.122649 219.955962 167.077174 219.955962 C 168.037461 219.955962 168.894036 220.181821 169.648821 220.635454 C 170.405527 221.089087 170.912558 221.540806 171.169915 221.994438 C 172.754388 220.635454 174.642311 219.955962 176.833684 219.955962 C 179.028899 219.955962 180.617213 220.549321 181.596705 221.73604 C 182.580039 222.917017 183.073626 224.855962 183.073626 227.55479 L 183.073626 238.897524 C 183.073626 239.198032 181.994264 239.347329 179.839381 239.347329 C 177.686419 239.347329 176.610898 239.198032 176.610898 238.897524 L 176.610898 227.968228 C 176.610898 226.708774 176.171087 226.077134 175.289544 226.077134 C 175.034108 226.077134 174.678802 226.186235 174.225546 226.402524 C 173.774212 226.614985 173.482285 226.771938 173.355527 226.875298 Z M 194.45302 239.613384 C 191.958196 239.613384 189.853248 238.765454 188.140097 237.065767 C 186.426946 235.362251 185.570371 233.004126 185.570371 229.991392 C 185.570371 226.978657 186.394296 224.55354 188.044069 222.717954 C 189.697682 220.876626 191.785345 219.955962 194.305136 219.955962 C 196.826849 219.955962 198.774309 220.599087 200.147519 221.883423 C 201.520729 223.167759 202.208294 224.731548 202.208294 226.572876 C 202.208294 230.653657 199.863274 232.694048 195.177076 232.694048 L 192.563177 232.694048 C 192.563177 233.452017 192.770599 233.97647 193.183522 234.267407 C 193.602207 234.558345 194.214869 234.703813 195.02151 234.703813 C 196.790358 234.703813 198.465097 234.299946 200.05149 233.492212 C 200.076458 233.467329 200.189772 233.641509 200.391432 234.016665 C 200.996412 235.103853 201.299863 236.020688 201.299863 236.763345 C 201.299863 237.506001 201.059791 237.992173 200.583489 238.218032 C 200.583489 238.218032 196.949765 239.613384 194.45302 239.613384 Z M 195.856959 227.288735 C 195.856959 226.230259 195.340325 225.701977 194.305136 225.701977 C 193.828834 225.701977 193.417832 225.845532 193.072128 226.13647 C 192.732187 226.427407 192.563177 226.848501 192.563177 227.399751 L 192.563177 228.573071 L 194.608587 228.573071 C 195.440195 228.573071 195.856959 228.146235 195.856959 227.288735 Z M 212.944296 230.01436 C 213.420599 230.393345 214.246445 230.910142 215.417994 231.564751 C 216.595306 232.21936 217.71692 232.546665 218.784759 232.546665 C 219.858359 232.546665 220.394199 232.131313 220.394199 231.298696 C 220.394199 230.919712 220.242474 230.584751 219.937102 230.293813 C 219.637493 230.00479 219.082448 229.671743 218.275807 229.296587 C 217.469166 228.917602 216.862265 228.622837 216.458945 228.410376 C 216.055625 228.194087 215.517864 227.839985 214.849505 227.348071 C 214.184987 226.856157 213.674114 226.343188 213.320729 225.811079 C 212.316269 224.37936 211.815 222.553345 211.815 220.333032 C 211.815 218.11272 212.638925 216.240767 214.288698 214.721001 C 215.936549 213.193579 218.099114 212.431782 220.772552 212.431782 C 222.587493 212.431782 224.264153 212.627017 225.800612 213.021313 C 227.33707 213.409868 228.128346 213.920923 228.178281 214.550649 C 228.178281 214.623384 228.178281 214.698032 228.178281 214.772681 C 228.178281 215.658892 227.899798 216.77479 227.344752 218.124204 C 226.791627 219.467876 226.403671 220.216274 226.177044 220.369399 C 224.561842 219.536782 223.117571 219.121431 221.842311 219.121431 C 220.572812 219.121431 219.937102 219.575063 219.937102 220.480415 C 219.937102 221.037407 220.405722 221.529321 221.341041 221.956157 C 221.542701 222.061431 221.830787 222.201157 222.203378 222.377251 C 222.583652 222.549517 223.019622 222.756235 223.511289 222.997407 C 224.002955 223.240493 224.533033 223.542915 225.099602 223.906587 C 225.664251 224.270259 226.278834 224.756431 226.937591 225.361274 C 228.272389 226.622642 228.938828 228.285962 228.938828 230.353149 C 228.938828 233.051978 228.195566 235.256978 226.709043 236.970063 C 225.222519 238.683149 222.927434 239.563618 219.825709 239.613384 C 218.314218 239.613384 216.94677 239.48897 215.721445 239.236313 C 214.499961 238.985571 213.434043 238.495571 212.523691 237.768228 C 211.617181 237.033228 211.163925 236.150845 211.163925 235.117251 C 211.163925 234.081743 211.354062 233.055806 211.732415 232.037524 C 212.112688 231.013501 212.516009 230.337837 212.944296 230.01436 Z M 238.159498 238.972173 C 238.159498 239.198032 237.107024 239.310962 235.000156 239.310962 C 232.897128 239.310962 231.846575 239.136782 231.846575 238.786509 L 231.846575 212.881587 C 231.846575 212.709321 232.238372 212.586821 233.020045 212.512173 C 233.803639 212.433696 234.458554 212.393501 234.984791 212.393501 C 237.101263 212.393501 238.159498 212.621274 238.159498 213.072993 L 238.159498 220.635454 C 239.57304 220.206704 240.64664 219.992329 241.380299 219.992329 C 243.29511 219.992329 244.806601 220.505298 245.914772 221.529321 C 247.021022 222.547603 247.576067 224.442524 247.576067 227.214087 L 247.576067 238.933892 C 247.576067 239.161665 246.592734 239.274595 244.629908 239.274595 C 242.409726 239.199946 241.299635 239.075532 241.299635 238.897524 L 241.299635 227.784478 C 241.299635 226.547993 240.898235 225.929751 240.095436 225.929751 C 239.53847 225.929751 238.893157 226.193892 238.159498 226.720259 Z M 253.174537 225.508657 C 252.469687 224.249204 252.118222 223.223267 252.118222 222.428931 C 252.118222 221.636509 252.331406 221.127368 252.759694 220.901509 C 254.192441 220.271782 256.162949 219.955962 258.667376 219.955962 C 261.179485 219.955962 262.952174 220.541665 263.985442 221.713071 C 265.018711 222.884478 265.535345 224.618618 265.535345 226.911665 L 265.535345 232.885454 L 266.820208 232.885454 C 267.248496 232.885454 267.584596 233.140024 267.824668 233.647251 C 268.06666 234.148735 268.187656 234.841626 268.187656 235.722095 C 268.187656 236.602563 267.964869 237.471548 267.523138 238.329048 C 267.079485 239.184634 266.480267 239.613384 265.727402 239.613384 C 264.363795 239.613384 263.267148 239.249712 262.433619 238.520454 C 262.061028 238.216118 261.772942 237.848618 261.571282 237.419868 C 260.409336 238.882212 258.603997 239.613384 256.157187 239.613384 C 254.321119 239.613384 252.773138 238.958774 251.513242 237.649556 C 250.251425 236.340337 249.621477 234.789946 249.621477 232.99647 C 249.621477 228.890806 252.07789 226.838931 256.992636 226.838931 L 259.074537 226.838931 L 259.074537 226.454204 C 259.074537 225.799595 258.966985 225.378501 258.749961 225.190923 C 258.538698 225.005259 258.041269 224.91147 257.257675 224.91147 C 256.297389 224.91147 254.935703 225.110532 253.174537 225.508657 Z M 256.20136 232.472017 C 256.20136 233.023267 256.351165 233.44436 256.652695 233.735298 C 256.952304 234.026235 257.336419 234.171704 257.805039 234.171704 C 258.271738 234.171704 258.696184 233.982212 259.074537 233.603228 L 259.074537 230.693852 L 258.01054 230.693852 C 256.80442 230.693852 256.20136 231.287212 256.20136 232.472017 Z M 278.622128 239.199946 C 278.622128 239.377954 277.475546 239.466001 275.180462 239.466001 C 272.887298 239.412407 271.738795 239.310962 271.738795 239.163579 L 271.738795 226.609243 L 270.720892 226.609243 C 270.315651 226.609243 269.994915 226.364243 269.752923 225.870415 C 269.510931 225.378501 269.391855 224.767915 269.391855 224.038657 C 269.391855 221.31686 270.198496 219.955962 271.813697 219.955962 C 272.944915 219.955962 273.889837 220.302407 274.648463 220.997212 C 275.407089 221.686274 275.785442 222.474868 275.785442 223.361079 C 276.3136 222.325571 277.024212 221.502524 277.921119 220.886196 C 278.816106 220.26604 279.730299 219.955962 280.659856 219.955962 C 282.121412 219.955962 283.006796 220.333032 283.310247 221.085259 C 283.385149 221.288149 283.42164 221.584829 283.42164 221.979126 C 283.42164 222.367681 283.300644 223.068228 283.060573 224.076938 C 282.824342 225.085649 282.578509 225.816821 282.321152 226.270454 C 282.069557 226.722173 281.919752 226.949946 281.871738 226.949946 C 281.821803 226.949946 281.587493 226.856157 281.168808 226.668579 C 280.755885 226.477173 280.385214 226.38147 280.054876 226.38147 C 279.100351 226.38147 278.622128 227.13561 278.622128 228.64772 Z M 285.309563 213.072993 C 285.309563 212.669126 286.456145 212.468149 288.749309 212.468149 C 290.89651 212.540884 291.97011 212.707407 291.97011 212.961977 L 291.97011 227.480142 L 295.705625 220.560806 C 295.884238 220.181821 296.953997 219.992329 298.918743 219.992329 C 300.88733 219.992329 302.151067 220.118657 302.706113 220.369399 L 297.789446 228.389321 L 303.460898 239.00854 C 303.508912 239.111899 303.036451 239.19229 302.041595 239.251626 C 301.048658 239.316704 300.222812 239.347329 299.567897 239.347329 C 297.146054 239.347329 295.845826 239.234399 295.669134 239.00854 L 291.925937 230.619204 L 291.925937 238.972173 C 291.925937 239.301392 290.823528 239.466001 288.61679 239.466001 C 286.411972 239.466001 285.309563 239.312876 285.309563 239.00854 Z M 311.208489 213.266313 C 311.208489 213.138071 311.757773 213.017485 312.856341 212.902642 C 313.952988 212.789712 314.853737 212.734204 315.558587 212.734204 C 318.354941 212.734204 319.816497 213.097876 319.945175 213.827134 L 323.194785 230.464165 L 326.258099 213.827134 C 326.411744 213.097876 327.975091 212.734204 330.948138 212.734204 C 331.676035 212.734204 332.594069 212.785884 333.702239 212.889243 C 334.814251 212.98686 335.371217 213.097876 335.371217 213.220376 L 328.679941 238.254399 C 328.578151 238.658267 327.832968 238.922407 326.450156 239.044907 C 324.304876 239.270767 322.353574 239.316704 320.602011 239.178892 C 318.85429 239.041079 317.928574 238.794165 317.824863 238.440063 Z M 336.540846 236.876274 C 336.540846 236.171899 336.717539 235.371821 337.072845 234.47604 C 337.42623 233.580259 337.766171 232.860571 338.090748 232.320806 C 338.421087 231.779126 338.611224 231.507329 338.659238 231.507329 C 340.122714 232.389712 341.661093 232.829946 343.274375 232.829946 C 344.284596 232.829946 345.096998 232.627056 345.711582 232.223188 C 346.328086 231.819321 346.635377 231.262329 346.635377 230.548384 C 346.635377 229.828696 346.351132 229.369321 345.786484 229.166431 C 345.219915 228.965454 344.319166 228.823813 343.082317 228.745337 L 341.724472 228.745337 C 341.419101 228.745337 341.132936 228.374009 340.867897 227.631352 C 340.606699 226.886782 335.74957 229.945454 335.74957 229.241079 C 335.74957 228.05436 340.827565 223.667329 341.532415 223.642446 L 342.632903 223.606079 C 343.312786 223.606079 344.023398 223.410845 344.76666 223.02229 C 345.509921 222.627993 345.882513 222.128423 345.882513 221.523579 C 345.882513 220.465103 344.93567 219.936821 343.045826 219.936821 C 341.632285 219.936821 340.272519 220.21436 338.962688 220.769438 C 337.82955 218.727134 337.262981 217.13272 337.262981 215.984282 C 337.262981 214.837759 338.06386 213.976431 339.663698 213.400298 C 341.263535 212.820337 343.272454 212.529399 345.690455 212.529399 C 348.112298 212.529399 350.002142 213.032798 351.361907 214.043423 C 352.725514 215.046392 353.407317 216.420688 353.407317 218.164399 C 353.407317 221.211587 352.095566 223.554399 349.470143 225.192837 C 352.650612 226.479087 354.240846 228.659204 354.240846 231.737017 C 354.240846 234.129595 353.393873 236.064712 351.699928 237.540454 C 350.011744 239.012368 347.591823 239.749282 344.442083 239.749282 C 342.452369 239.749282 340.639349 239.466001 338.999179 238.899438 C 337.35901 238.332876 336.540846 237.659126 336.540846 236.876274 Z M 336.540846 236.876274 " transform="matrix(2.033898,0,0,2.040816,-188.153919,-217.022531)"/>
<path style=" stroke:none;fill-rule:nonzero;fill:rgb(100%,100%,100%);fill-opacity:1;" d="M 94.152344 269.980469 C 94.152344 271.003906 91.613281 271.519531 86.535156 271.519531 C 81.460938 271.519531 78.921875 271.003906 78.921875 269.980469 L 78.921875 231.25 L 69.699219 231.25 C 68.828125 231.25 68.210938 230.0625 67.851562 227.691406 C 67.703125 226.566406 67.625 225.410156 67.625 224.226562 C 67.625 223.039062 67.703125 221.886719 67.851562 220.761719 C 68.210938 218.390625 68.828125 217.203125 69.699219 217.203125 L 103.148438 217.203125 C 104.019531 217.203125 104.636719 218.390625 104.996094 220.761719 C 105.144531 221.886719 105.222656 223.039062 105.222656 224.226562 C 105.222656 225.410156 105.144531 226.566406 104.996094 227.691406 C 104.636719 230.0625 104.019531 231.25 103.148438 231.25 L 94.152344 231.25 Z M 106.152344 233.101562 C 106.152344 232.53125 108.355469 232.242188 112.761719 232.242188 C 117.167969 232.242188 119.371094 232.53125 119.371094 233.101562 L 119.371094 255.632812 C 119.371094 258.207031 120.191406 259.492188 121.832031 259.492188 C 123.066406 259.492188 124.453125 258.949219 125.992188 257.863281 L 125.992188 233.101562 C 125.992188 232.589844 128.171875 232.335938 132.527344 232.335938 C 136.882812 232.335938 139.058594 232.589844 139.058594 233.101562 L 139.058594 258.40625 L 141.058594 258.40625 C 142.800781 258.40625 143.671875 260.078125 143.671875 263.425781 C 143.671875 265.121094 143.316406 266.847656 142.605469 268.59375 C 141.574219 270.855469 140.1875 271.984375 138.445312 271.984375 C 135.011719 271.984375 132.472656 270.574219 130.828125 267.75 L 130.753906 267.824219 C 127.628906 270.597656 124.269531 271.984375 120.675781 271.984375 C 115.710938 271.984375 112.046875 270.738281 109.683594 268.246094 C 107.328125 265.757812 106.152344 261.625 106.152344 255.859375 Z M 164.433594 270.75 C 164.433594 271.109375 162.589844 271.292969 158.90625 271.292969 C 153.777344 271.140625 151.214844 270.859375 151.214844 270.449219 L 151.214844 245.445312 L 149.21875 245.445312 C 147.886719 245.445312 147.015625 244.316406 146.605469 242.054688 C 146.496094 241.382812 146.4375 240.714844 146.4375 240.050781 C 146.4375 238.453125 146.75 236.855469 147.371094 235.257812 C 148.292969 232.996094 149.722656 231.867188 151.664062 231.867188 C 153.617188 231.867188 155.359375 232.328125 156.894531 233.253906 C 158.433594 234.179688 159.464844 235.101562 159.988281 236.027344 C 163.210938 233.253906 167.050781 231.867188 171.507812 231.867188 C 175.972656 231.867188 179.203125 233.078125 181.195312 235.5 C 183.195312 237.910156 184.199219 241.867188 184.199219 247.375 L 184.199219 270.523438 C 184.199219 271.136719 182.003906 271.441406 177.621094 271.441406 C 173.242188 271.441406 171.054688 271.136719 171.054688 270.523438 L 171.054688 248.21875 C 171.054688 245.648438 170.160156 244.359375 168.367188 244.359375 C 167.847656 244.359375 167.125 244.582031 166.203125 245.023438 C 165.285156 245.457031 164.691406 245.777344 164.433594 245.988281 Z M 219.8125 269.136719 C 216.578125 271.035156 212.421875 271.984375 207.34375 271.984375 C 202.269531 271.984375 197.988281 270.253906 194.503906 266.785156 C 191.019531 263.308594 189.277344 258.496094 189.277344 252.347656 C 189.277344 246.199219 190.953125 241.25 194.308594 237.503906 C 197.671875 233.746094 201.917969 231.867188 207.042969 231.867188 C 212.171875 231.867188 216.132812 233.179688 218.925781 235.800781 C 221.71875 238.421875 223.117188 241.613281 223.117188 245.371094 C 223.117188 253.699219 218.347656 257.863281 208.816406 257.863281 L 203.5 257.863281 C 203.5 259.410156 203.921875 260.480469 204.761719 261.074219 C 205.613281 261.667969 206.859375 261.964844 208.5 261.964844 C 212.097656 261.964844 215.507812 261.140625 218.730469 259.492188 C 218.78125 259.441406 219.011719 259.796875 219.421875 260.5625 C 220.652344 262.78125 221.269531 264.652344 221.269531 266.167969 C 221.269531 267.683594 220.78125 268.675781 219.8125 269.136719 Z M 210.199219 246.832031 C 210.199219 244.671875 209.148438 243.59375 207.042969 243.59375 C 206.074219 243.59375 205.238281 243.886719 204.535156 244.480469 C 203.84375 245.074219 203.5 245.933594 203.5 247.058594 L 203.5 249.453125 L 207.660156 249.453125 C 209.351562 249.453125 210.199219 248.582031 210.199219 246.832031 Z M 244.953125 252.394531 C 245.921875 253.167969 247.601562 254.222656 249.984375 255.558594 C 252.378906 256.894531 254.660156 257.5625 256.832031 257.5625 C 259.015625 257.5625 260.105469 256.714844 260.105469 255.015625 C 260.105469 254.242188 259.796875 253.558594 259.175781 252.964844 C 258.566406 252.375 257.4375 251.695312 255.796875 250.929688 C 254.15625 250.15625 252.921875 249.554688 252.101562 249.121094 C 251.28125 248.679688 250.1875 247.957031 248.828125 246.953125 C 247.476562 245.949219 246.4375 244.902344 245.71875 243.816406 C 243.675781 240.894531 242.65625 237.167969 242.65625 232.636719 C 242.65625 228.105469 244.332031 224.285156 247.6875 221.183594 C 251.039062 218.066406 255.4375 216.511719 260.875 216.511719 C 264.566406 216.511719 267.976562 216.910156 271.101562 217.714844 C 274.226562 218.507812 275.835938 219.550781 275.9375 220.835938 C 275.9375 220.984375 275.9375 221.136719 275.9375 221.289062 C 275.9375 223.097656 275.371094 225.375 274.242188 228.128906 C 273.121094 230.871094 272.328125 232.398438 271.867188 232.710938 C 268.582031 231.011719 265.644531 230.164062 263.050781 230.164062 C 260.46875 230.164062 259.175781 231.089844 259.175781 232.9375 C 259.175781 234.074219 260.128906 235.078125 262.03125 235.953125 C 262.441406 236.164062 263.027344 236.449219 263.785156 236.808594 C 264.558594 237.160156 265.445312 237.582031 266.445312 238.074219 C 267.445312 238.570312 268.523438 239.1875 269.675781 239.929688 C 270.828125 240.671875 272.074219 241.664062 273.414062 242.898438 C 276.128906 245.472656 277.484375 248.867188 277.484375 253.085938 C 277.484375 258.59375 275.972656 263.09375 272.949219 266.589844 C 269.925781 270.085938 265.257812 271.882812 258.949219 271.984375 C 255.875 271.984375 253.09375 271.730469 250.601562 271.214844 C 248.117188 270.703125 245.949219 269.703125 244.097656 268.21875 C 242.253906 266.71875 241.332031 264.917969 241.332031 262.808594 C 241.332031 260.699219 241.71875 258.601562 242.488281 256.523438 C 243.261719 254.433594 244.082031 253.054688 244.953125 252.394531 Z M 296.238281 270.675781 C 296.238281 271.136719 294.097656 271.367188 289.8125 271.367188 C 285.535156 271.367188 283.398438 271.011719 283.398438 270.296875 L 283.398438 217.429688 C 283.398438 217.078125 284.195312 216.828125 285.785156 216.675781 C 287.378906 216.515625 288.710938 216.433594 289.78125 216.433594 C 294.085938 216.433594 296.238281 216.898438 296.238281 217.820312 L 296.238281 233.253906 C 299.113281 232.378906 301.296875 231.941406 302.789062 231.941406 C 306.683594 231.941406 309.757812 232.988281 312.011719 235.078125 C 314.261719 237.15625 315.390625 241.023438 315.390625 246.679688 L 315.390625 270.597656 C 315.390625 271.0625 313.390625 271.292969 309.398438 271.292969 C 304.882812 271.140625 302.625 270.886719 302.625 270.523438 L 302.625 247.84375 C 302.625 245.320312 301.808594 244.058594 300.175781 244.058594 C 299.042969 244.058594 297.730469 244.597656 296.238281 245.671875 Z M 326.777344 243.199219 C 325.34375 240.628906 324.628906 238.535156 324.628906 236.914062 C 324.628906 235.296875 325.0625 234.257812 325.933594 233.796875 C 328.847656 232.511719 332.855469 231.867188 337.949219 231.867188 C 343.058594 231.867188 346.664062 233.0625 348.765625 235.453125 C 350.867188 237.84375 351.917969 241.382812 351.917969 246.0625 L 351.917969 258.253906 L 354.53125 258.253906 C 355.402344 258.253906 356.085938 258.773438 356.574219 259.808594 C 357.066406 260.832031 357.3125 262.246094 357.3125 264.042969 C 357.3125 265.839844 356.859375 267.613281 355.960938 269.363281 C 355.058594 271.109375 353.84375 271.984375 352.308594 271.984375 C 349.535156 271.984375 347.304688 271.242188 345.609375 269.753906 C 344.851562 269.132812 344.265625 268.382812 343.855469 267.507812 C 341.492188 270.492188 337.820312 271.984375 332.84375 271.984375 C 329.109375 271.984375 325.960938 270.648438 323.398438 267.976562 C 320.832031 265.304688 319.550781 262.140625 319.550781 258.480469 C 319.550781 250.101562 324.546875 245.914062 334.542969 245.914062 L 338.777344 245.914062 L 338.777344 245.128906 C 338.777344 243.792969 338.558594 242.933594 338.117188 242.550781 C 337.6875 242.171875 336.675781 241.980469 335.082031 241.980469 C 333.128906 241.980469 330.359375 242.386719 326.777344 243.199219 Z M 332.933594 257.410156 C 332.933594 258.539062 333.238281 259.394531 333.851562 259.988281 C 334.460938 260.582031 335.242188 260.878906 336.195312 260.878906 C 337.144531 260.878906 338.007812 260.492188 338.777344 259.71875 L 338.777344 253.78125 L 336.613281 253.78125 C 334.160156 253.78125 332.933594 254.992188 332.933594 257.410156 Z M 378.535156 271.140625 C 378.535156 271.503906 376.203125 271.683594 371.535156 271.683594 C 366.871094 271.574219 364.535156 271.367188 364.535156 271.066406 L 364.535156 245.445312 L 362.464844 245.445312 C 361.640625 245.445312 360.988281 244.945312 360.496094 243.9375 C 360.003906 242.933594 359.761719 241.6875 359.761719 240.203125 C 359.761719 234.644531 361.402344 231.867188 364.6875 231.867188 C 366.988281 231.867188 368.910156 232.574219 370.453125 233.992188 C 371.996094 235.398438 372.765625 237.007812 372.765625 238.816406 C 373.839844 236.703125 375.285156 235.023438 377.109375 233.765625 C 378.929688 232.5 380.789062 231.867188 382.679688 231.867188 C 385.652344 231.867188 387.453125 232.636719 388.070312 234.171875 C 388.222656 234.585938 388.296875 235.191406 388.296875 235.996094 C 388.296875 236.789062 388.050781 238.21875 387.5625 240.277344 C 387.082031 242.335938 386.582031 243.828125 386.058594 244.753906 C 385.546875 245.675781 385.242188 246.140625 385.144531 246.140625 C 385.042969 246.140625 384.566406 245.949219 383.714844 245.566406 C 382.875 245.175781 382.121094 244.980469 381.449219 244.980469 C 379.507812 244.980469 378.535156 246.519531 378.535156 249.605469 Z M 392.136719 217.820312 C 392.136719 216.996094 394.46875 216.585938 399.132812 216.585938 C 403.5 216.734375 405.683594 217.074219 405.683594 217.59375 L 405.683594 247.222656 L 413.28125 233.101562 C 413.644531 232.328125 415.820312 231.941406 419.816406 231.941406 C 423.820312 231.941406 426.390625 232.199219 427.519531 232.710938 L 417.519531 249.078125 L 429.054688 270.75 C 429.152344 270.960938 428.191406 271.125 426.167969 271.246094 C 424.148438 271.378906 422.46875 271.441406 421.136719 271.441406 C 416.210938 271.441406 413.566406 271.210938 413.207031 270.75 L 405.59375 253.628906 L 405.59375 270.675781 C 405.59375 271.347656 403.351562 271.683594 398.863281 271.683594 C 394.378906 271.683594 392.136719 271.371094 392.136719 270.75 Z M 444.8125 218.214844 C 444.8125 217.953125 445.929688 217.707031 448.164062 217.476562 C 450.394531 217.242188 452.226562 217.128906 453.660156 217.128906 C 459.347656 217.128906 462.320312 217.871094 462.582031 219.359375 L 469.191406 253.3125 L 475.421875 219.359375 C 475.734375 217.871094 478.914062 217.128906 484.960938 217.128906 C 486.441406 217.128906 488.308594 217.234375 490.5625 217.445312 C 492.824219 217.644531 493.957031 217.871094 493.957031 218.121094 L 480.347656 269.210938 C 480.140625 270.035156 478.625 270.574219 475.8125 270.824219 C 471.449219 271.285156 467.480469 271.378906 463.917969 271.097656 C 460.363281 270.816406 458.480469 270.3125 458.269531 269.589844 Z M 496.335938 266.121094 C 496.335938 264.6875 496.695312 263.054688 497.417969 261.226562 C 498.136719 259.394531 498.828125 257.929688 499.488281 256.824219 C 500.160156 255.71875 500.546875 255.167969 500.644531 255.167969 C 503.621094 256.964844 506.75 257.863281 510.03125 257.863281 C 512.085938 257.863281 513.738281 257.453125 514.988281 256.628906 C 516.242188 255.804688 516.867188 254.664062 516.867188 253.207031 C 516.867188 251.742188 516.289062 250.800781 515.140625 250.390625 C 513.988281 249.976562 512.15625 249.691406 509.640625 249.53125 L 506.878906 249.53125 C 506.257812 249.53125 505.675781 248.769531 505.136719 247.253906 C 504.605469 245.738281 504.339844 244.261719 504.339844 242.824219 C 504.339844 240.402344 505.054688 239.167969 506.488281 239.117188 L 508.726562 239.039062 C 510.109375 239.039062 511.554688 238.644531 513.066406 237.851562 C 514.578125 237.046875 515.335938 236.027344 515.335938 234.789062 C 515.335938 232.628906 513.410156 231.550781 509.566406 231.550781 C 506.691406 231.550781 503.925781 232.117188 501.261719 233.253906 C 498.957031 229.085938 497.808594 225.828125 497.808594 223.488281 C 497.808594 221.148438 499.433594 219.390625 502.6875 218.214844 C 505.941406 217.027344 510.027344 216.433594 514.945312 216.433594 C 519.871094 216.433594 523.714844 217.464844 526.480469 219.523438 C 529.253906 221.574219 530.640625 224.378906 530.640625 227.933594 C 530.640625 234.152344 527.972656 238.933594 522.632812 242.28125 C 529.101562 244.902344 532.335938 249.355469 532.335938 255.632812 C 532.335938 260.515625 530.613281 264.464844 527.171875 267.480469 C 523.734375 270.484375 518.8125 271.984375 512.40625 271.984375 C 508.359375 271.984375 504.671875 271.40625 501.335938 270.253906 C 498 269.097656 496.335938 267.71875 496.335938 266.121094 Z M 496.335938 266.121094 "/>
<path style="fill-rule:nonzero;fill:url(#linear5);stroke-width:5;stroke-linecap:butt;stroke-linejoin:miter;stroke:rgb(12.941176%,12.941176%,12.941176%);stroke-opacity:1;stroke-miterlimit:10;" d="M 314.544524 127.012915 C 328.64153 120.028501 345.730787 125.793657 352.715911 139.890727 C 359.701035 153.987798 353.935475 171.076548 339.83847 178.062876 C 325.741464 185.04729 308.652207 179.282134 301.667083 165.185063 C 294.68388 151.087993 300.447519 133.997329 314.544524 127.012915 Z M 314.544524 127.012915 " transform="matrix(2.033898,0,0,2.040816,-188.153919,-217.022531)"/>
<path style="fill-rule:nonzero;fill:rgb(25.490196%,25.490196%,25.490196%);fill-opacity:1;stroke-width:4;stroke-linecap:butt;stroke-linejoin:miter;stroke:rgb(15.294118%,15.294118%,15.294118%);stroke-opacity:1;stroke-miterlimit:10;" d="M 318.306927 152.536938 C 318.306927 147.629282 322.284433 143.65186 327.191497 143.65186 C 332.100481 143.65186 336.077988 147.629282 336.077988 152.536938 C 336.077988 157.444595 332.100481 161.423931 327.191497 161.423931 C 322.284433 161.423931 318.306927 157.444595 318.306927 152.536938 Z M 318.306927 152.536938 " transform="matrix(2.033898,0,0,2.040816,-188.153919,-217.022531)"/>
<path style="fill:none;stroke-width:1;stroke-linecap:butt;stroke-linejoin:miter;stroke:rgb(30.196078%,30.196078%,30.196078%);stroke-opacity:1;stroke-miterlimit:10;" d="M 349.424049 149.520376 C 349.49511 150.044829 349.546966 150.57311 349.581536 151.109048 C 350.053997 158.527954 346.865846 165.336274 341.566985 169.763501 " transform="matrix(2.033898,0,0,2.040816,-188.153919,-217.022531)"/>
<path style="fill:none;stroke-width:1;stroke-linecap:butt;stroke-linejoin:miter;stroke:rgb(30.196078%,30.196078%,30.196078%);stroke-opacity:1;stroke-miterlimit:10;" d="M 328.099928 174.954438 C 319.935573 175.287485 312.570175 171.197134 308.383326 164.77354 " transform="matrix(2.033898,0,0,2.040816,-188.153919,-217.022531)"/>
<path style="fill:none;stroke-width:1;stroke-linecap:butt;stroke-linejoin:miter;stroke:rgb(30.196078%,30.196078%,30.196078%);stroke-opacity:1;stroke-miterlimit:10;" d="M 308.851946 139.613188 C 312.631634 134.257642 318.712168 130.597954 325.762591 130.148149 C 326.369492 130.109868 326.972552 130.094556 327.56985 130.104126 " transform="matrix(2.033898,0,0,2.040816,-188.153919,-217.022531)"/>
<path style="fill:none;stroke-width:1;stroke-linecap:butt;stroke-linejoin:miter;stroke:rgb(30.196078%,30.196078%,30.196078%);stroke-opacity:1;stroke-miterlimit:10;" d="M 343.431862 151.756001 C 343.664251 156.558384 341.782089 160.987524 338.593938 164.126587 " transform="matrix(2.033898,0,0,2.040816,-188.153919,-217.022531)"/>
<path style="fill:none;stroke-width:1;stroke-linecap:butt;stroke-linejoin:miter;stroke:rgb(30.196078%,30.196078%,30.196078%);stroke-opacity:1;stroke-miterlimit:10;" d="M 326.517376 168.783501 C 320.674993 168.548071 315.547063 165.194634 312.881308 160.260181 " transform="matrix(2.033898,0,0,2.040816,-188.153919,-217.022531)"/>
<path style="fill:none;stroke-width:1;stroke-linecap:butt;stroke-linejoin:miter;stroke:rgb(30.196078%,30.196078%,30.196078%);stroke-opacity:1;stroke-miterlimit:10;" d="M 313.180918 144.289243 C 315.810182 139.833306 320.513665 136.707642 326.056438 136.319087 " transform="matrix(2.033898,0,0,2.040816,-188.153919,-217.022531)"/>
<path style="fill-rule:nonzero;fill:rgb(25.490196%,25.490196%,25.490196%);fill-opacity:1;stroke-width:2.5;stroke-linecap:butt;stroke-linejoin:miter;stroke:rgb(15.294118%,15.294118%,15.294118%);stroke-opacity:1;stroke-miterlimit:10;" d="M 342.089381 155.51522 L 351.730657 132.873774 L 355.145436 134.307407 L 347.023333 153.658579 Z M 342.089381 155.51522 " transform="matrix(2.033898,0,0,2.040816,-188.153919,-217.022531)"/>
<path style="fill-rule:nonzero;fill:rgb(25.490196%,25.490196%,25.490196%);fill-opacity:1;stroke-width:4;stroke-linecap:butt;stroke-linejoin:miter;stroke:rgb(15.294118%,15.294118%,15.294118%);stroke-opacity:1;stroke-miterlimit:10;" d="M 351.446412 138.472407 C 350.142343 138.472407 349.084108 137.415845 349.084108 136.110454 L 349.084108 126.467407 C 349.084108 125.162017 350.142343 124.105454 351.446412 124.105454 L 358.137688 124.105454 C 359.443678 124.105454 360.499993 125.162017 360.499993 126.467407 L 360.499993 133.551353 C 360.499993 134.856743 359.443678 135.913306 358.137688 135.913306 Z M 351.446412 138.472407 " transform="matrix(2.033898,0,0,2.040816,-188.153919,-217.022531)"/>
<path style="fill-rule:nonzero;fill:rgb(0%,0%,0%);fill-opacity:1;stroke-width:5;stroke-linecap:butt;stroke-linejoin:miter;stroke:rgb(15.294118%,15.294118%,15.294118%);stroke-opacity:1;stroke-miterlimit:10;" d="M 118.477076 200.367446 C 116.268418 200.367446 114.476523 198.893618 114.476523 196.106743 C 114.476523 193.319868 116.268418 191.84604 118.477076 191.84604 L 239.144752 191.84604 C 241.353411 191.84604 243.143385 193.319868 243.143385 196.106743 C 243.143385 198.893618 241.353411 200.367446 239.144752 200.367446 Z M 118.477076 200.367446 " transform="matrix(2.033898,0,0,2.040816,-188.153919,-217.022531)"/>
<path style="fill-rule:nonzero;fill:rgb(25.490196%,25.490196%,25.490196%);fill-opacity:1;stroke-width:5;stroke-linecap:butt;stroke-linejoin:miter;stroke:rgb(15.294118%,15.294118%,15.294118%);stroke-opacity:1;stroke-miterlimit:10;" d="M 137.811484 203.772563 C 135.600905 203.772563 133.810931 201.982915 133.810931 199.774087 L 133.810931 192.439399 C 133.810931 190.230571 135.600905 188.440923 137.811484 188.440923 L 163.81028 188.440923 C 166.018938 188.440923 167.810833 190.230571 167.810833 192.439399 L 167.810833 199.774087 C 167.810833 201.982915 166.018938 203.772563 163.81028 203.772563 Z M 137.811484 203.772563 " transform="matrix(2.033898,0,0,2.040816,-188.153919,-217.022531)"/>
<path style=" stroke:none;fill-rule:nonzero;fill:url(#linear6);" d="M 99.820312 193.605469 L 99.820312 172.789062 L 118.886719 172.789062 L 118.886719 193.605469 Z M 99.820312 193.605469 "/>
<path style=" stroke:none;fill-rule:nonzero;fill:url(#linear7);" d="M 118.824219 193.605469 L 118.824219 172.789062 L 137.890625 172.789062 L 137.890625 193.605469 Z M 118.824219 193.605469 "/>
<path style="fill-rule:nonzero;fill:url(#radial0);stroke-width:4;stroke-linecap:butt;stroke-linejoin:miter;stroke:rgb(15.294118%,15.294118%,15.294118%);stroke-opacity:1;stroke-miterlimit:10;" d="M 277.928802 171.712017 C 275.896836 171.712017 274.248984 170.064009 274.248984 168.033188 L 274.248984 159.203618 C 274.248984 157.170884 275.896836 155.52479 277.928802 155.52479 L 286.757675 155.52479 C 288.789642 155.52479 290.437493 157.170884 290.437493 159.203618 L 290.437493 168.033188 C 290.437493 170.064009 288.789642 171.712017 286.757675 171.712017 Z M 277.928802 171.712017 " transform="matrix(2.033898,0,0,2.040816,-188.153919,-217.022531)"/>
<path style="fill-rule:nonzero;fill:url(#radial1);stroke-width:4;stroke-linecap:butt;stroke-linejoin:miter;stroke:rgb(15.294118%,15.294118%,15.294118%);stroke-opacity:1;stroke-miterlimit:10;" d="M 277.928802 148.312602 C 275.896836 148.312602 274.248984 146.664595 274.248984 144.63186 L 274.248984 135.80229 C 274.248984 133.77147 275.896836 132.123462 277.928802 132.123462 L 286.757675 132.123462 C 288.789642 132.123462 290.437493 133.77147 290.437493 135.80229 L 290.437493 144.63186 C 290.437493 146.664595 288.789642 148.312602 286.757675 148.312602 Z M 277.928802 148.312602 " transform="matrix(2.033898,0,0,2.040816,-188.153919,-217.022531)"/>
<path style="fill-rule:nonzero;fill:url(#radial2);stroke-width:4;stroke-linecap:butt;stroke-linejoin:miter;stroke:rgb(15.294118%,15.294118%,15.294118%);stroke-opacity:1;stroke-miterlimit:10;" d="M 254.55735 171.712017 C 252.527304 171.712017 250.879453 170.064009 250.879453 168.033188 L 250.879453 159.203618 C 250.879453 157.170884 252.527304 155.52479 254.55735 155.52479 L 263.388144 155.52479 C 265.42011 155.52479 267.067962 157.170884 267.067962 159.203618 L 267.067962 168.033188 C 267.067962 170.064009 265.42011 171.712017 263.388144 171.712017 Z M 254.55735 171.712017 " transform="matrix(2.033898,0,0,2.040816,-188.153919,-217.022531)"/>
<path style="fill-rule:nonzero;fill:url(#radial3);stroke-width:4;stroke-linecap:butt;stroke-linejoin:miter;stroke:rgb(15.294118%,15.294118%,15.294118%);stroke-opacity:1;stroke-miterlimit:10;" d="M 254.55735 148.312602 C 252.527304 148.312602 250.879453 146.664595 250.879453 144.63186 L 250.879453 135.80229 C 250.879453 133.77147 252.527304 132.123462 254.55735 132.123462 L 263.388144 132.123462 C 265.42011 132.123462 267.067962 133.77147 267.067962 135.80229 L 267.067962 144.63186 C 267.067962 146.664595 265.42011 148.312602 263.388144 148.312602 Z M 254.55735 148.312602 " transform="matrix(2.033898,0,0,2.040816,-188.153919,-217.022531)"/>
</g>
</svg>
