<?xml version="1.0" encoding="UTF-8"?>
<svg xmlns="http://www.w3.org/2000/svg" xmlns:xlink="http://www.w3.org/1999/xlink" width="600px" height="300px" viewBox="0 0 600 300" version="1.1">
<g id="surface1">
<path style=" stroke:none;fill-rule:nonzero;fill:rgb(0%,56.078431%,51.372549%);fill-opacity:1;" d="M 0.378906 299.894531 L 0.378906 0 L 600.09375 0 L 600.09375 299.894531 Z M 0.378906 299.894531 "/>
<path style=" stroke:none;fill-rule:nonzero;fill:rgb(0%,69.803922%,64.313725%);fill-opacity:1;" d="M 41.726562 116.730469 L 41.726562 183.164062 C 41.726562 183.164062 13.410156 198.78125 0 206.175781 L 0 93.320312 C 11.328125 99.675781 41.726562 116.730469 41.726562 116.730469 Z M 41.726562 116.730469 "/>
<path style=" stroke:none;fill-rule:nonzero;fill:rgb(0%,69.803922%,64.313725%);fill-opacity:1;" d="M 0.757812 0 L 119.183594 0 L 119.183594 66.433594 L 59.972656 99.652344 L 0.757812 66.433594 Z M 0.757812 0 "/>
<path style=" stroke:none;fill-rule:nonzero;fill:rgb(0%,69.803922%,64.313725%);fill-opacity:1;" d="M 160.9375 0 L 279.359375 0 L 279.359375 66.433594 L 220.148438 99.652344 L 160.9375 66.433594 Z M 160.9375 0 "/>
<path style=" stroke:none;fill-rule:nonzero;fill:rgb(0%,69.803922%,64.313725%);fill-opacity:1;" d="M 80.847656 116.730469 L 140.058594 83.511719 L 199.273438 116.730469 L 199.273438 183.164062 L 140.058594 216.382812 L 80.847656 183.164062 Z M 80.847656 116.730469 "/>
<path style=" stroke:none;fill-rule:nonzero;fill:rgb(0%,69.803922%,64.313725%);fill-opacity:1;" d="M 0.757812 233.460938 L 59.972656 200.242188 L 119.183594 233.460938 L 119.183594 299.894531 L 0.757812 299.894531 Z M 0.757812 233.460938 "/>
<path style=" stroke:none;fill-rule:nonzero;fill:rgb(0%,69.803922%,64.313725%);fill-opacity:1;" d="M 160.9375 233.460938 L 220.148438 200.242188 L 279.359375 233.460938 L 279.359375 299.894531 L 160.9375 299.894531 Z M 160.9375 233.460938 "/>
<path style=" stroke:none;fill-rule:nonzero;fill:rgb(0%,69.803922%,64.313725%);fill-opacity:1;" d="M 561.378906 116.730469 C 561.378906 116.730469 586.617188 102.570312 599.714844 95.222656 L 599.714844 204.671875 C 586.222656 197.101562 561.378906 183.164062 561.378906 183.164062 Z M 561.378906 116.730469 "/>
<path style=" stroke:none;fill-rule:nonzero;fill:rgb(0%,69.803922%,64.313725%);fill-opacity:1;" d="M 321.113281 0 L 439.539062 0 L 439.539062 66.433594 L 380.324219 99.652344 L 321.113281 66.433594 Z M 321.113281 0 "/>
<path style=" stroke:none;fill-rule:nonzero;fill:rgb(0%,69.803922%,64.313725%);fill-opacity:1;" d="M 481.289062 0 L 599.714844 0 L 599.714844 66.433594 L 540.503906 99.652344 L 481.292969 66.433594 Z M 481.289062 0 "/>
<path style=" stroke:none;fill-rule:nonzero;fill:rgb(0%,69.803922%,64.313725%);fill-opacity:1;" d="M 401.203125 116.730469 L 460.414062 83.511719 L 519.625 116.730469 L 519.625 183.164062 L 460.414062 216.382812 L 401.203125 183.164062 Z M 401.203125 116.730469 "/>
<path style=" stroke:none;fill-rule:nonzero;fill:rgb(0%,69.803922%,64.313725%);fill-opacity:1;" d="M 321.113281 233.460938 L 380.324219 200.242188 L 439.539062 233.460938 L 439.539062 299.894531 L 321.113281 299.894531 Z M 321.113281 233.460938 "/>
<path style=" stroke:none;fill-rule:nonzero;fill:rgb(0%,69.803922%,64.313725%);fill-opacity:1;" d="M 481.289062 233.460938 L 540.503906 200.242188 L 599.714844 233.460938 L 599.714844 299.894531 L 481.289062 299.894531 Z M 481.289062 233.460938 "/>
<path style=" stroke:none;fill-rule:nonzero;fill:rgb(0%,69.803922%,64.313725%);fill-opacity:1;" d="M 241.023438 116.730469 L 300.238281 83.511719 L 359.449219 116.730469 L 359.449219 183.164062 L 300.238281 216.382812 L 241.023438 183.164062 Z M 241.023438 116.730469 "/>
<path style="fill-rule:evenodd;fill:rgb(100%,100%,100%);fill-opacity:1;stroke-width:12.5;stroke-linecap:butt;stroke-linejoin:miter;stroke:rgb(0%,0%,0%);stroke-opacity:0.509804;stroke-miterlimit:10;" d="M 159.275549 179.877912 C 166.503329 179.877912 172.31008 174.018537 172.31008 166.842756 C 172.31008 159.614241 166.503329 153.8076 159.275549 153.8076 C 152.100328 153.8076 146.241018 159.614241 146.241018 166.842756 C 146.241018 174.018537 152.100328 179.877912 159.275549 179.877912 M 185.344612 144.032209 C 188.928329 144.032209 191.861877 146.96385 191.861877 150.549787 L 191.861877 183.135725 C 191.861877 186.727522 188.928329 189.653303 185.344612 189.653303 L 133.206487 189.653303 C 129.620823 189.653303 126.689221 186.727522 126.689221 183.135725 L 126.689221 150.549787 C 126.689221 146.96385 129.620823 144.032209 133.206487 144.032209 L 137.83359 144.032209 C 139.007398 144.032209 140.048837 143.379866 140.636715 142.336897 L 145.06137 134.393537 C 146.241018 132.301741 148.392027 130.997053 150.801936 130.997053 L 167.813401 130.997053 C 170.225256 130.997053 172.374319 132.301741 173.542287 134.393537 L 177.908544 142.336897 C 178.502261 143.379866 179.53786 144.032209 180.781747 144.032209 L 185.344612 144.032209 " transform="matrix(2.006689,0,0,2,-181.557893,-210.0527)"/>
<path style="fill-rule:nonzero;fill:rgb(100%,100%,100%);fill-opacity:1;stroke-width:12.5;stroke-linecap:butt;stroke-linejoin:miter;stroke:rgb(0%,0%,0%);stroke-opacity:0.509804;stroke-miterlimit:10;" d="M 353.061031 179.942366 C 353.061031 181.040022 352.155855 181.883772 351.11831 181.883772 C 350.931435 181.883772 350.627763 181.754866 350.549898 181.676741 L 350.176148 181.383772 L 325.870718 166.799787 L 325.870718 175.668928 C 325.870718 183.229475 319.661018 189.653303 312.273616 189.653303 L 277.701741 189.653303 C 269.872457 189.311506 263.719208 183.155256 263.719208 175.668928 L 263.719208 144.981428 C 263.719208 137.1201 269.841311 130.997053 277.701741 130.997053 L 312.273616 130.997053 C 319.799228 130.997053 325.870718 137.172834 325.870718 144.981428 L 325.870718 153.993147 L 349.845224 138.454084 C 350.892502 137.827131 352.745679 138.047834 353.310198 138.989241 Z M 353.061031 179.942366 " transform="matrix(2.006689,0,0,2,-181.557893,-210.0527)"/>
<path style=" stroke:none;fill-rule:evenodd;fill:rgb(100%,100%,100%);fill-opacity:1;" d="M 138.058594 149.703125 C 152.5625 149.703125 164.214844 137.984375 164.214844 123.632812 C 164.214844 109.175781 152.5625 97.5625 138.058594 97.5625 C 123.660156 97.5625 111.902344 109.175781 111.902344 123.632812 C 111.902344 137.984375 123.660156 149.703125 138.058594 149.703125 M 190.371094 78.011719 C 197.5625 78.011719 203.449219 83.875 203.449219 91.046875 L 203.449219 156.21875 C 203.449219 163.402344 197.5625 169.253906 190.371094 169.253906 L 85.746094 169.253906 C 78.550781 169.253906 72.667969 163.402344 72.667969 156.21875 L 72.667969 91.046875 C 72.667969 83.875 78.550781 78.011719 85.746094 78.011719 L 95.03125 78.011719 C 97.386719 78.011719 99.476562 76.707031 100.65625 74.621094 L 109.535156 58.734375 C 111.902344 54.550781 116.21875 51.941406 121.054688 51.941406 L 155.191406 51.941406 C 160.03125 51.941406 164.34375 54.550781 166.6875 58.734375 L 175.449219 74.621094 C 176.640625 76.707031 178.71875 78.011719 181.214844 78.011719 L 190.371094 78.011719 "/>
<path style=" stroke:none;fill-rule:nonzero;fill:rgb(100%,100%,100%);fill-opacity:1;" d="M 525.921875 67.925781 C 526.488281 69.078125 526.925781 70.097656 526.925781 69.8125 L 526.925781 149.832031 C 526.925781 152.027344 525.109375 153.714844 523.027344 153.714844 C 522.652344 153.714844 522.042969 153.457031 521.886719 153.300781 L 521.136719 152.714844 L 472.363281 123.546875 L 472.363281 141.285156 C 472.363281 156.40625 459.902344 169.253906 445.078125 169.253906 L 375.703125 169.253906 C 359.992188 168.570312 347.640625 156.257812 347.640625 141.285156 L 347.640625 79.910156 C 347.640625 64.1875 359.929688 51.941406 375.703125 51.941406 L 445.078125 51.941406 C 460.179688 51.941406 472.363281 64.292969 472.363281 79.910156 L 472.363281 97.933594 L 520.472656 66.855469 C 522.574219 65.601562 524.789062 66.042969 525.921875 67.925781 Z M 525.921875 67.925781 "/>
<path style="fill-rule:nonzero;fill:rgb(100%,100%,100%);fill-opacity:1;stroke-width:12.5;stroke-linecap:square;stroke-linejoin:miter;stroke:rgb(0%,0%,0%);stroke-opacity:0.501961;stroke-miterlimit:10;" d="M 232.631773 154.950178 L 232.631773 163.356428 L 241.10344 163.356428 C 242.390152 163.356428 243.262235 164.202131 243.723583 165.897444 C 243.902672 166.565412 243.990269 167.219709 243.990269 167.860334 C 243.990269 168.491194 243.902672 169.141584 243.723583 169.809553 C 243.262235 171.497053 242.390152 172.340803 241.10344 172.340803 L 232.631773 172.340803 L 232.631773 180.924787 C 232.631773 182.211897 231.790836 183.084944 230.110907 183.545881 C 229.472418 183.723616 228.789156 183.813459 228.061122 183.813459 L 226.254664 183.567366 C 224.51439 183.090803 223.6462 182.211897 223.6462 180.924787 L 223.6462 172.340803 L 215.127815 172.340803 C 213.843049 172.340803 212.969019 171.500959 212.509618 169.821272 C 212.322743 169.145491 212.229306 168.491194 212.229306 167.860334 C 212.229306 167.219709 212.322743 166.563459 212.509618 165.885725 C 212.969019 164.198225 213.843049 163.356428 215.127815 163.356428 L 223.6462 163.356428 L 223.6462 154.950178 C 223.6462 153.665022 224.489084 152.790022 226.176799 152.331037 C 226.815289 152.15135 227.494657 152.063459 228.216851 152.063459 L 230.033043 152.3076 C 231.76553 152.784162 232.631773 153.665022 232.631773 154.950178 Z M 232.631773 154.950178 " transform="matrix(2.006689,0,0,2,-181.557893,-210.0527)"/>
<path style=" stroke:none;fill-rule:nonzero;fill:rgb(100%,100%,100%);fill-opacity:1;" d="M 285.261719 99.847656 L 285.261719 116.660156 L 302.261719 116.660156 C 304.84375 116.660156 306.59375 118.351562 307.519531 121.742188 C 307.878906 123.078125 308.054688 124.386719 308.054688 125.667969 C 308.054688 126.929688 307.878906 128.230469 307.519531 129.566406 C 306.59375 132.941406 304.84375 134.628906 302.261719 134.628906 L 285.261719 134.628906 L 285.261719 151.796875 C 285.261719 154.371094 283.574219 156.117188 280.203125 157.039062 C 278.921875 157.394531 277.550781 157.574219 276.089844 157.574219 L 272.464844 157.082031 C 268.972656 156.128906 267.230469 154.371094 267.230469 151.796875 L 267.230469 134.628906 L 250.136719 134.628906 C 247.558594 134.628906 245.804688 132.949219 244.882812 129.589844 C 244.507812 128.238281 244.320312 126.929688 244.320312 125.667969 C 244.320312 124.386719 244.507812 123.074219 244.882812 121.71875 C 245.804688 118.34375 247.558594 116.660156 250.136719 116.660156 L 267.230469 116.660156 L 267.230469 99.847656 C 267.230469 97.277344 268.921875 95.527344 272.308594 94.609375 C 273.589844 94.25 274.953125 94.074219 276.402344 94.074219 L 280.046875 94.5625 C 283.523438 95.515625 285.261719 97.277344 285.261719 99.847656 Z M 285.261719 99.847656 "/>
<path style="fill:none;stroke-width:9;stroke-linecap:butt;stroke-linejoin:miter;stroke:rgb(0%,0%,0%);stroke-opacity:0.501961;stroke-miterlimit:10;" d="M 356.623336 238.58885 C 354.988179 238.58885 353.662535 237.262678 353.662535 235.625959 L 353.662535 229.979475 L 348.015406 229.979475 C 346.38025 229.979475 345.052659 228.653303 345.052659 227.018537 L 345.052659 224.981428 C 345.052659 223.346662 346.38025 222.020491 348.015406 222.020491 L 353.662535 222.020491 L 353.662535 216.374006 C 353.662535 214.737287 354.988179 213.411116 356.623336 213.411116 L 358.659495 213.411116 C 360.296597 213.411116 361.622242 214.737287 361.622242 216.374006 L 361.622242 222.020491 L 367.269371 222.020491 C 368.904527 222.020491 370.230172 223.346662 370.230172 224.981428 L 370.230172 227.018537 C 370.230172 228.653303 368.904527 229.979475 367.269371 229.979475 L 361.622242 229.979475 L 361.622242 235.625959 C 361.622242 237.262678 360.296597 238.58885 358.659495 238.58885 Z M 109.769247 209.415022 C 109.769247 209.284162 110.329872 209.161116 111.453069 209.045881 C 112.576265 208.930647 113.497014 208.872053 114.217261 208.872053 C 117.076838 208.872053 118.571838 209.2451 118.704208 209.989241 C 118.704208 209.989241 120.792926 220.692366 121.380803 223.700178 C 121.668902 225.178694 122.408616 224.928694 122.704501 223.317366 C 123.269019 220.254866 125.161129 209.989241 125.161129 209.989241 C 125.316858 209.2451 126.915028 208.872053 129.95564 208.872053 C 130.701194 208.872053 131.639462 208.924787 132.772392 209.030256 C 133.911161 209.131819 134.479573 209.2451 134.479573 209.3701 L 127.637222 234.971662 C 127.532105 235.383772 126.770979 235.653303 125.357737 235.780256 C 123.161955 236.010725 121.168622 236.0576 119.37579 235.915022 C 117.588798 235.774397 116.642743 235.522444 116.535679 235.161116 Z M 143.718205 235.741194 C 143.718205 235.948225 142.53661 236.051741 140.175367 236.051741 C 137.819963 236.051741 136.642261 235.961897 136.642261 235.780256 L 136.642261 216.793928 C 136.642261 216.618147 137.819963 216.530256 140.175367 216.530256 C 142.53661 216.530256 143.718205 216.604475 143.718205 216.756819 Z M 143.718205 214.475569 C 143.718205 214.657209 142.53661 214.747053 140.175367 214.747053 C 137.819963 214.747053 136.642261 214.668928 136.642261 214.512678 L 136.642261 208.948225 C 136.642261 208.690412 137.819963 208.561506 140.175367 208.561506 C 142.53661 208.561506 143.718205 208.639631 143.718205 208.795881 Z M 156.984384 209.143537 C 156.984384 208.756819 158.002463 208.561506 160.036676 208.561506 C 160.731617 208.561506 161.535569 208.608381 162.452424 208.698225 C 163.36928 208.788069 163.826734 208.909162 163.826734 209.061506 L 163.826734 229.444319 L 165.179631 229.444319 C 165.823961 229.444319 166.248323 230.022444 166.454664 231.180647 C 166.505276 231.518537 166.530582 231.975569 166.530582 232.555647 C 166.530582 233.133772 166.351493 233.836897 165.995263 234.663069 C 165.475517 235.795881 164.650152 236.362287 163.517222 236.362287 C 162.666552 236.362287 161.911265 236.194319 161.251363 235.862287 C 160.597301 235.52635 160.153472 235.174787 159.921825 234.813459 L 159.575328 234.315412 C 158.156246 235.678694 156.375093 236.362287 154.235764 236.362287 C 152.096435 236.362287 150.266617 235.473616 148.746311 233.696272 C 147.226005 231.918928 146.464879 229.438459 146.464879 226.256819 C 146.464879 223.069319 147.262991 220.608381 148.859215 218.8701 C 150.459332 217.129866 152.458505 216.258772 154.854787 216.258772 C 155.549729 216.258772 156.260243 216.336897 156.984384 216.491194 Z M 155.709351 222.442366 C 154.263017 222.442366 146.472665 223.563459 146.472665 226.166975 C 146.472665 227.479475 153.747164 228.610334 154.159846 229.194319 C 154.572528 229.774397 155.031929 230.063459 155.534156 230.063459 C 156.038329 230.063459 156.52109 229.844709 156.984384 229.405256 L 156.984384 222.829084 C 156.546396 222.571272 156.122034 222.442366 155.709351 222.442366 Z M 177.396584 236.360334 C 174.844573 236.360334 172.691617 235.493147 170.939664 233.756819 C 169.187711 232.014631 168.311734 229.602522 168.311734 226.520491 C 168.311734 223.440412 169.154618 220.959944 170.842333 219.082991 C 172.533941 217.200178 174.667431 216.258772 177.244748 216.258772 C 179.824013 216.258772 181.813453 216.915022 183.218909 218.229475 C 184.624364 219.543928 185.325146 221.141584 185.325146 223.024397 C 185.325146 227.198225 182.928863 229.284162 178.136298 229.284162 L 175.463596 229.284162 C 175.463596 230.059553 175.67383 230.596662 176.098192 230.893537 C 176.526448 231.190412 177.153258 231.33885 177.978622 231.33885 C 179.78508 231.33885 181.500048 230.926741 183.121578 230.100569 C 183.146884 230.075178 183.261734 230.254866 183.468075 230.637678 C 184.087099 231.749006 184.39661 232.686506 184.39661 233.446272 C 184.39661 234.206037 184.153284 234.702131 183.664683 234.934553 C 183.664683 234.934553 179.948596 236.362287 177.396584 236.362287 Z M 178.831239 223.756819 C 178.831239 222.674787 178.30176 222.133772 177.244748 222.133772 C 176.756148 222.133772 176.337626 222.282209 175.983342 222.579084 C 175.636845 222.875959 175.463596 223.305647 175.463596 223.8701 L 175.463596 225.071272 L 177.55426 225.071272 C 178.406877 225.071272 178.831239 224.633772 178.831239 223.756819 Z M 189.5201 233.514631 C 189.5201 233.514631 187.102405 229.274397 187.102405 226.127912 C 187.102405 222.981428 187.908303 220.520491 189.5201 218.743147 C 191.12995 216.965803 193.304319 216.077131 196.037366 216.077131 C 198.770413 216.077131 200.935048 216.965803 202.531272 218.743147 C 204.127496 220.520491 204.925608 222.981428 204.925608 226.127912 C 204.925608 229.274397 204.127496 231.737287 202.531272 233.514631 C 200.935048 235.291975 198.770413 236.180647 196.037366 236.180647 C 193.304319 236.180647 191.131897 235.291975 189.5201 233.514631 Z M 193.868837 226.272444 C 193.868837 228.643537 194.596871 229.829084 196.052939 229.829084 C 197.512899 229.829084 198.24288 228.643537 198.24288 226.272444 C 198.24288 223.90135 196.967847 216.553694 195.507886 216.553694 C 195.507886 216.553694 193.868837 223.90135 193.868837 226.272444 Z M 218.670653 228.129866 C 219.875608 228.799787 221.022164 229.133772 222.114215 229.133772 C 223.212105 229.133772 223.761051 228.707991 223.761051 227.858381 C 223.761051 227.469709 223.605321 227.127912 223.293863 226.831037 C 222.986298 226.534162 222.419833 226.194319 221.594468 225.811506 C 220.769104 225.422834 220.148134 225.122053 219.735452 224.905256 C 219.322769 224.6826 218.773824 224.321272 218.090562 223.817366 C 217.409247 223.313459 216.889501 222.790022 216.527431 222.247053 C 215.499618 220.782209 214.985712 218.913069 214.985712 216.643537 C 214.985712 214.372053 215.828596 212.459944 217.516311 210.903303 C 219.202079 209.342756 221.413433 208.561506 224.14648 208.561506 C 226.003551 208.561506 227.718518 208.764631 229.289436 209.166975 C 230.860354 209.563459 231.670146 210.084944 231.720758 210.729475 C 231.720758 210.805647 231.720758 210.881819 231.720758 210.956037 C 231.720758 211.862287 231.436552 213.004866 230.86814 214.385725 C 230.303622 215.758772 229.906513 216.524397 229.674866 216.680647 C 228.024136 215.829084 226.544709 215.405256 225.242424 215.405256 C 223.942086 215.405256 223.293863 215.868147 223.293863 216.793928 C 223.293863 217.362287 223.770784 217.866194 224.728518 218.303694 C 224.934859 218.411116 225.228798 218.553694 225.612281 218.735334 C 225.999657 218.911116 226.445432 219.122053 226.947659 219.3701 C 227.451832 219.616194 227.992991 219.924787 228.571135 220.297834 C 229.151226 220.670881 229.778036 221.166975 230.451565 221.786116 C 231.816142 223.075178 232.499403 224.77635 232.499403 226.891584 C 232.499403 229.649397 231.738277 231.905256 230.217971 233.657209 C 228.697665 235.409162 226.351995 236.311506 223.179013 236.362287 C 221.633401 236.362287 220.233785 236.233381 218.980165 235.975569 C 217.732385 235.719709 216.642281 235.217756 215.711799 234.473616 C 214.785211 233.723616 214.321916 232.819319 214.321916 231.762678 C 214.321916 230.704084 214.514631 229.655256 214.902008 228.612287 C 215.29133 227.565412 215.704013 226.875959 216.142001 226.543928 C 216.142001 226.543928 217.473485 227.459944 218.670653 228.129866 Z M 243.824807 236.360334 C 241.272795 236.360334 239.11984 235.493147 237.367886 233.756819 C 235.615933 232.014631 234.739957 229.602522 234.739957 226.520491 C 234.739957 223.440412 235.582841 220.959944 237.270556 219.082991 C 238.962164 217.200178 241.095653 216.258772 243.672971 216.258772 C 246.252235 216.258772 248.243622 216.915022 249.647131 218.229475 C 251.052587 219.543928 251.755315 221.141584 251.755315 223.024397 C 251.755315 227.198225 249.357086 229.284162 244.564521 229.284162 L 241.891819 229.284162 C 241.891819 230.059553 242.104 230.596662 242.526415 230.893537 C 242.95467 231.190412 243.58148 231.33885 244.406845 231.33885 C 246.213303 231.33885 247.928271 230.926741 249.549801 230.100569 C 249.575107 230.075178 249.689957 230.254866 249.896298 230.637678 C 250.515321 231.749006 250.824833 232.686506 250.824833 233.446272 C 250.824833 234.206037 250.581506 234.702131 250.092906 234.934553 C 250.092906 234.934553 246.376819 236.362287 243.824807 236.362287 Z M 245.259462 223.756819 C 245.259462 222.674787 244.731929 222.133772 243.672971 222.133772 C 243.186317 222.133772 242.765849 222.282209 242.413511 222.579084 C 242.065067 222.875959 241.891819 223.305647 241.891819 223.8701 L 241.891819 225.071272 L 243.984429 225.071272 C 244.8351 225.071272 245.259462 224.633772 245.259462 223.756819 Z M 262.344898 235.741194 C 262.344898 235.922834 261.41831 236.014631 259.565133 236.014631 C 256.987815 235.938459 255.699156 235.797834 255.699156 235.590803 L 255.699156 223.061506 L 254.694703 223.061506 C 254.025067 223.061506 253.587079 222.4951 253.380738 221.362287 C 253.324286 221.02635 253.297034 220.690412 253.297034 220.358381 C 253.297034 219.5576 253.452763 218.756819 253.766168 217.957991 C 254.229462 216.825178 254.949709 216.258772 255.924963 216.258772 C 256.908004 216.258772 257.78398 216.489241 258.552893 216.952131 C 259.329592 217.415022 259.847392 217.879866 260.110185 218.342756 C 261.729768 216.952131 263.66081 216.258772 265.901363 216.258772 C 268.147756 216.258772 269.771233 216.864241 270.771793 218.077131 C 271.780139 219.286116 272.282366 221.270491 272.282366 224.028303 L 272.282366 235.627912 C 272.282366 235.936506 271.180582 236.08885 268.975067 236.08885 C 266.775393 236.08885 265.675556 235.936506 265.675556 235.627912 L 265.675556 224.452131 C 265.675556 223.163069 265.223941 222.518537 264.322659 222.518537 C 264.061812 222.518537 263.699742 222.629866 263.236448 222.850569 C 262.773153 223.067366 262.475321 223.227522 262.344898 223.334944 Z M 281.332177 230.909162 C 282.106929 230.909162 282.494306 230.639631 282.494306 230.100569 C 282.494306 229.71385 281.82467 229.209944 280.485399 228.590803 C 277.263752 227.27635 275.651955 225.124006 275.651955 222.133772 C 275.651955 220.225569 276.346897 218.770491 277.73678 217.768537 C 279.130556 216.760725 280.800751 216.258772 282.743472 216.258772 C 284.692034 216.258772 286.340816 216.46385 287.68982 216.877912 C 289.044664 217.290022 289.722086 217.831037 289.722086 218.500959 C 289.722086 219.065412 289.44372 219.811506 288.890881 220.743147 C 288.336096 221.670881 287.956506 222.170881 287.750165 222.247053 C 286.642541 221.631819 285.445373 221.325178 284.154768 221.325178 C 283.461773 221.325178 283.113329 221.569319 283.113329 222.0576 C 283.113329 222.364241 283.247646 222.629866 283.514332 222.850569 C 283.784911 223.067366 284.281298 223.336897 285.001545 223.659162 C 285.725686 223.981428 286.325243 224.272444 286.798271 224.534162 C 287.277138 224.791975 287.812457 225.15135 288.408121 225.614241 C 289.646168 226.590803 290.265191 227.868147 290.265191 229.444319 C 290.265191 231.502912 289.579983 233.172834 288.211513 234.450178 C 286.846936 235.723616 284.785471 236.362287 282.025172 236.362287 C 280.199247 236.362287 278.536838 236.051741 277.041838 235.4326 C 275.546838 234.813459 274.799338 233.961897 274.799338 232.879866 C 274.799338 232.159162 274.972587 231.40135 275.319084 230.606428 C 275.667528 229.805647 276.021812 229.274397 276.383883 229.012678 C 276.383883 229.012678 280.123329 230.909162 281.332177 230.909162 Z M 296.504091 236.051741 C 294.146741 236.051741 292.969039 235.961897 292.969039 235.780256 L 292.969039 216.793928 C 292.969039 216.618147 294.146741 216.530256 296.504091 216.530256 C 298.865334 216.530256 300.044983 216.604475 300.044983 216.756819 L 300.044983 235.741194 C 300.044983 235.948225 298.865334 236.051741 296.504091 236.051741 Z M 300.044983 214.475569 C 300.044983 214.657209 298.865334 214.747053 296.504091 214.747053 C 294.146741 214.747053 292.969039 214.668928 292.969039 214.512678 L 292.969039 208.948225 C 292.969039 208.690412 294.146741 208.561506 296.504091 208.561506 C 298.865334 208.561506 300.044983 208.639631 300.044983 208.795881 Z M 311.605927 235.741194 C 311.605927 235.922834 310.679338 236.014631 308.826161 236.014631 C 306.248843 235.938459 304.960185 235.797834 304.960185 235.590803 L 304.960185 223.061506 L 303.955732 223.061506 C 303.286096 223.061506 302.848108 222.4951 302.641767 221.362287 C 302.585315 221.02635 302.558062 220.690412 302.558062 220.358381 C 302.558062 219.5576 302.713791 218.756819 303.027196 217.957991 C 303.488544 216.825178 304.208791 216.258772 305.185992 216.258772 C 306.167086 216.258772 307.043062 216.489241 307.813922 216.952131 C 308.588674 217.415022 309.10842 217.879866 309.369267 218.342756 C 310.990797 216.952131 312.921838 216.258772 315.162392 216.258772 C 317.406838 216.258772 319.032261 216.864241 320.032821 218.077131 C 321.041168 219.286116 321.543394 221.270491 321.543394 224.028303 L 321.543394 235.627912 C 321.543394 235.936506 320.44161 236.08885 318.236096 236.08885 C 316.036422 236.08885 314.936584 235.936506 314.936584 235.627912 L 314.936584 224.452131 C 314.936584 223.163069 314.48497 222.518537 313.583687 222.518537 C 313.322841 222.518537 312.958824 222.629866 312.49553 222.850569 C 312.034182 223.067366 311.73635 223.227522 311.605927 223.334944 Z M 331.944156 235.975569 C 329.446649 235.975569 327.513661 235.170881 326.143245 233.559553 C 324.778668 231.948225 324.097353 229.565412 324.097353 226.407209 C 324.097353 223.250959 324.992795 220.77635 326.785627 218.983381 C 328.578459 217.192366 330.961116 216.295881 333.937489 216.295881 C 336.917756 216.295881 339.374384 216.952131 341.307372 218.266584 L 341.307372 237.524397 C 341.307372 239.4326 340.53262 240.895491 338.983114 241.911116 C 337.435556 242.928694 335.451955 243.438459 333.030367 243.438459 C 330.608778 243.438459 328.444143 243.127912 326.536461 242.508772 C 326.275614 241.889631 326.143245 241.334944 326.143245 240.846662 C 326.143245 239.196272 326.415771 237.985334 326.958876 237.21385 C 328.685523 237.959944 330.528967 238.332991 332.487261 238.332991 C 333.906343 238.332991 334.616858 237.831037 334.616858 236.829084 L 334.616858 235.666975 C 333.509234 235.872053 332.617685 235.975569 331.944156 235.975569 Z M 333.725308 222.594709 C 331.998661 222.594709 324.973329 223.897444 324.973329 226.506819 C 324.973329 228.127912 331.471129 229.1826 332.140764 229.670881 C 332.578752 230.006819 333.016741 230.176741 333.454729 230.176741 C 333.892717 230.176741 334.280093 230.137678 334.616858 230.063459 L 334.616858 222.715803 C 334.305399 222.633772 334.007567 222.594709 333.725308 222.594709 Z M 333.725308 222.594709 " transform="matrix(2.006689,0,0,2,-181.557893,-210.0527)"/>
<path style=" stroke:none;fill-rule:nonzero;fill:rgb(100%,100%,100%);fill-opacity:1;" d="M 534.074219 267.125 C 530.792969 267.125 528.132812 264.472656 528.132812 261.199219 L 528.132812 249.90625 L 516.800781 249.90625 C 513.519531 249.90625 510.855469 247.253906 510.855469 243.984375 L 510.855469 239.910156 C 510.855469 236.640625 513.519531 233.988281 516.800781 233.988281 L 528.132812 233.988281 L 528.132812 222.695312 C 528.132812 219.421875 530.792969 216.769531 534.074219 216.769531 L 538.160156 216.769531 C 541.445312 216.769531 544.105469 219.421875 544.105469 222.695312 L 544.105469 233.988281 L 555.4375 233.988281 C 558.71875 233.988281 561.378906 236.640625 561.378906 239.910156 L 561.378906 243.984375 C 561.378906 247.253906 558.71875 249.90625 555.4375 249.90625 L 544.105469 249.90625 L 544.105469 261.199219 C 544.105469 264.472656 541.445312 267.125 538.160156 267.125 Z M 38.714844 208.777344 C 38.714844 208.515625 39.839844 208.269531 42.09375 208.039062 C 44.347656 207.808594 46.195312 207.691406 47.640625 207.691406 C 53.378906 207.691406 56.378906 208.4375 56.644531 209.925781 L 63.3125 243.957031 L 69.601562 209.925781 C 69.914062 208.4375 73.121094 207.691406 79.222656 207.691406 C 80.71875 207.691406 82.601562 207.796875 84.875 208.007812 C 87.160156 208.210938 88.300781 208.4375 88.300781 208.6875 L 74.570312 259.890625 C 74.359375 260.714844 72.832031 261.253906 69.996094 261.507812 C 65.589844 261.96875 61.589844 262.0625 57.992188 261.777344 C 54.40625 261.496094 52.507812 260.992188 52.292969 260.269531 Z M 106.839844 261.429688 C 106.839844 261.84375 104.46875 262.050781 99.730469 262.050781 C 95.003906 262.050781 92.640625 261.871094 92.640625 261.507812 L 92.640625 223.535156 C 92.640625 223.183594 95.003906 223.007812 99.730469 223.007812 C 104.46875 223.007812 106.839844 223.15625 106.839844 223.460938 Z M 106.839844 218.898438 C 106.839844 219.261719 104.46875 219.441406 99.730469 219.441406 C 95.003906 219.441406 92.640625 219.285156 92.640625 218.972656 L 92.640625 207.84375 C 92.640625 207.328125 95.003906 207.070312 99.730469 207.070312 C 104.46875 207.070312 106.839844 207.226562 106.839844 207.539062 Z M 133.460938 208.234375 C 133.460938 207.460938 135.503906 207.070312 139.585938 207.070312 C 140.980469 207.070312 142.59375 207.164062 144.433594 207.34375 C 146.273438 207.523438 147.191406 207.765625 147.191406 208.070312 L 147.191406 248.835938 L 149.90625 248.835938 C 151.199219 248.835938 152.050781 249.992188 152.464844 252.308594 C 152.566406 252.984375 152.617188 253.898438 152.617188 255.058594 C 152.617188 256.214844 152.257812 257.621094 151.542969 259.273438 C 150.5 261.539062 148.84375 262.671875 146.570312 262.671875 C 144.863281 262.671875 143.347656 262.335938 142.023438 261.671875 C 140.710938 261 139.820312 260.296875 139.355469 259.574219 L 138.660156 258.578125 C 135.8125 261.304688 132.238281 262.671875 127.945312 262.671875 C 123.652344 262.671875 119.980469 260.894531 116.929688 257.339844 C 113.878906 253.785156 112.351562 248.824219 112.351562 242.460938 C 112.351562 236.085938 113.953125 231.164062 117.15625 227.6875 C 120.367188 224.207031 124.378906 222.464844 129.1875 222.464844 C 130.582031 222.464844 132.007812 222.621094 133.460938 222.929688 Z M 130.902344 234.832031 C 128 234.832031 126.550781 237.4375 126.550781 242.640625 C 126.550781 245.269531 126.964844 247.167969 127.792969 248.335938 C 128.621094 249.496094 129.542969 250.074219 130.550781 250.074219 C 131.5625 250.074219 132.53125 249.636719 133.460938 248.757812 L 133.460938 235.605469 C 132.582031 235.089844 131.730469 234.832031 130.902344 234.832031 Z M 187 259.816406 C 183.738281 261.71875 179.542969 262.667969 174.421875 262.667969 C 169.300781 262.667969 164.980469 260.933594 161.464844 257.460938 C 157.949219 253.976562 156.191406 249.152344 156.191406 242.988281 C 156.191406 236.828125 157.882812 231.867188 161.269531 228.113281 C 164.664062 224.347656 168.945312 222.464844 174.117188 222.464844 C 179.292969 222.464844 183.285156 223.777344 186.105469 226.40625 C 188.925781 229.035156 190.332031 232.230469 190.332031 235.996094 C 190.332031 244.34375 185.523438 248.515625 175.90625 248.515625 L 170.542969 248.515625 C 170.542969 250.066406 170.964844 251.140625 171.816406 251.734375 C 172.675781 252.328125 173.933594 252.625 175.589844 252.625 C 179.214844 252.625 182.65625 251.800781 185.910156 250.148438 C 185.960938 250.097656 186.191406 250.457031 186.605469 251.222656 C 187.847656 253.445312 188.46875 255.320312 188.46875 256.839844 C 188.46875 258.359375 187.980469 259.351562 187 259.816406 Z M 177.300781 237.460938 C 177.300781 235.296875 176.238281 234.214844 174.117188 234.214844 C 173.136719 234.214844 172.296875 234.511719 171.585938 235.105469 C 170.890625 235.699219 170.542969 236.558594 170.542969 237.6875 L 170.542969 240.089844 L 174.738281 240.089844 C 176.449219 240.089844 177.300781 239.214844 177.300781 237.460938 Z M 198.75 257.339844 C 195.515625 253.785156 193.898438 248.859375 193.898438 242.566406 C 193.898438 236.273438 195.515625 231.347656 198.75 227.792969 C 201.980469 224.242188 206.34375 222.464844 211.828125 222.464844 C 217.3125 222.464844 221.65625 224.242188 224.859375 227.792969 C 228.0625 231.347656 229.664062 236.273438 229.664062 242.566406 C 229.664062 248.859375 228.0625 253.785156 224.859375 257.339844 C 221.65625 260.894531 217.3125 262.671875 211.828125 262.671875 C 206.34375 262.671875 201.984375 260.894531 198.75 257.339844 Z M 211.859375 235.378906 C 208.9375 235.378906 207.476562 237.75 207.476562 242.492188 C 207.476562 247.234375 208.9375 249.605469 211.859375 249.605469 C 214.789062 249.605469 216.253906 247.234375 216.253906 242.492188 C 216.253906 237.75 214.789062 235.378906 211.859375 235.378906 Z M 252.171875 243.035156 C 253.152344 243.808594 254.84375 244.867188 257.246094 246.207031 C 259.664062 247.546875 261.964844 248.214844 264.15625 248.214844 C 266.359375 248.214844 267.460938 247.363281 267.460938 245.664062 C 267.460938 244.886719 267.148438 244.203125 266.523438 243.609375 C 265.90625 243.015625 264.769531 242.335938 263.113281 241.570312 C 261.457031 240.792969 260.210938 240.191406 259.382812 239.757812 C 258.554688 239.3125 257.453125 238.589844 256.082031 237.582031 C 254.714844 236.574219 253.671875 235.527344 252.945312 234.441406 C 250.882812 231.511719 249.851562 227.773438 249.851562 223.234375 C 249.851562 218.691406 251.542969 214.867188 254.929688 211.753906 C 258.3125 208.632812 262.75 207.070312 268.234375 207.070312 C 271.960938 207.070312 275.402344 207.476562 278.554688 208.28125 C 281.707031 209.074219 283.332031 210.117188 283.433594 211.40625 C 283.433594 211.558594 283.433594 211.710938 283.433594 211.859375 C 283.433594 213.671875 282.863281 215.957031 281.722656 218.71875 C 280.589844 221.464844 279.792969 222.996094 279.328125 223.308594 C 276.015625 221.605469 273.046875 220.757812 270.433594 220.757812 C 267.824219 220.757812 266.523438 221.683594 266.523438 223.535156 C 266.523438 224.671875 267.480469 225.679688 269.402344 226.554688 C 269.816406 226.769531 270.40625 227.054688 271.175781 227.417969 C 271.953125 227.769531 272.847656 228.191406 273.855469 228.6875 C 274.867188 229.179688 275.953125 229.796875 277.113281 230.542969 C 278.277344 231.289062 279.535156 232.28125 280.886719 233.519531 C 283.625 236.097656 284.996094 239.5 284.996094 243.730469 C 284.996094 249.246094 283.46875 253.757812 280.417969 257.261719 C 277.367188 260.765625 272.660156 262.570312 266.292969 262.671875 C 263.191406 262.671875 260.382812 262.414062 257.867188 261.898438 C 255.363281 261.386719 253.175781 260.382812 251.308594 258.894531 C 249.449219 257.394531 248.519531 255.585938 248.519531 253.472656 C 248.519531 251.355469 248.90625 249.257812 249.683594 247.171875 C 250.464844 245.078125 251.292969 243.699219 252.171875 243.035156 Z M 320.300781 259.816406 C 317.039062 261.71875 312.84375 262.667969 307.722656 262.667969 C 302.601562 262.667969 298.28125 260.933594 294.765625 257.460938 C 291.25 253.976562 289.492188 249.152344 289.492188 242.988281 C 289.492188 236.828125 291.183594 231.867188 294.570312 228.113281 C 297.964844 224.347656 302.246094 222.464844 307.417969 222.464844 C 312.59375 222.464844 316.589844 223.777344 319.40625 226.40625 C 322.226562 229.035156 323.636719 232.230469 323.636719 235.996094 C 323.636719 244.34375 318.824219 248.515625 309.207031 248.515625 L 303.84375 248.515625 C 303.84375 250.066406 304.269531 251.140625 305.117188 251.734375 C 305.976562 252.328125 307.234375 252.625 308.890625 252.625 C 312.515625 252.625 315.957031 251.800781 319.210938 250.148438 C 319.261719 250.097656 319.492188 250.457031 319.90625 251.222656 C 321.148438 253.445312 321.769531 255.320312 321.769531 256.839844 C 321.769531 258.359375 321.28125 259.351562 320.300781 259.816406 Z M 310.601562 237.460938 C 310.601562 235.296875 309.542969 234.214844 307.417969 234.214844 C 306.441406 234.214844 305.597656 234.511719 304.890625 235.105469 C 304.191406 235.699219 303.84375 236.558594 303.84375 237.6875 L 303.84375 240.089844 L 308.042969 240.089844 C 309.75 240.089844 310.601562 239.214844 310.601562 237.460938 Z M 344.886719 261.429688 C 344.886719 261.792969 343.027344 261.976562 339.308594 261.976562 C 334.136719 261.824219 331.550781 261.542969 331.550781 261.128906 L 331.550781 236.070312 L 329.535156 236.070312 C 328.191406 236.070312 327.3125 234.9375 326.898438 232.671875 C 326.785156 232 326.730469 231.328125 326.730469 230.664062 C 326.730469 229.0625 327.042969 227.460938 327.671875 225.863281 C 328.601562 223.597656 330.046875 222.464844 332.003906 222.464844 C 333.976562 222.464844 335.734375 222.925781 337.277344 223.851562 C 338.835938 224.777344 339.875 225.707031 340.402344 226.632812 C 343.652344 223.851562 347.527344 222.464844 352.023438 222.464844 C 356.53125 222.464844 359.789062 223.675781 361.796875 226.101562 C 363.820312 228.519531 364.828125 232.488281 364.828125 238.003906 L 364.828125 261.203125 C 364.828125 261.820312 362.617188 262.125 358.191406 262.125 C 353.777344 262.125 351.570312 261.820312 351.570312 261.203125 L 351.570312 238.851562 C 351.570312 236.273438 350.664062 234.984375 348.855469 234.984375 C 348.332031 234.984375 347.605469 235.207031 346.675781 235.648438 C 345.746094 236.082031 345.148438 236.402344 344.886719 236.617188 Z M 373.058594 247.972656 C 377.253906 250.5 380.5625 251.765625 382.988281 251.765625 C 384.542969 251.765625 385.320312 251.226562 385.320312 250.148438 C 385.320312 249.375 383.976562 248.367188 381.289062 247.128906 C 374.824219 244.5 371.589844 240.195312 371.589844 234.214844 C 371.589844 230.398438 372.984375 227.488281 375.773438 225.484375 C 378.570312 223.46875 381.921875 222.464844 385.820312 222.464844 C 389.730469 222.464844 393.039062 222.875 395.746094 223.703125 C 398.464844 224.527344 399.824219 225.609375 399.824219 226.949219 C 399.824219 228.078125 399.265625 229.570312 398.15625 231.433594 C 397.042969 233.289062 396.28125 234.289062 395.867188 234.441406 C 393.644531 233.210938 391.242188 232.597656 388.652344 232.597656 C 387.261719 232.597656 386.5625 233.085938 386.5625 234.0625 C 386.5625 234.675781 386.832031 235.207031 387.367188 235.648438 C 387.910156 236.082031 388.90625 236.621094 390.351562 237.265625 C 391.804688 237.910156 393.007812 238.492188 393.957031 239.015625 C 394.917969 239.53125 395.992188 240.25 397.1875 241.175781 C 399.671875 243.128906 400.914062 245.683594 400.914062 248.835938 C 400.914062 252.953125 399.539062 256.292969 396.792969 258.847656 C 394.054688 261.394531 389.917969 262.671875 384.378906 262.671875 C 380.714844 262.671875 377.378906 262.050781 374.378906 260.8125 C 371.378906 259.574219 369.878906 257.871094 369.878906 255.707031 C 369.878906 254.265625 370.226562 252.75 370.921875 251.160156 C 371.621094 249.558594 372.332031 248.496094 373.058594 247.972656 Z M 413.433594 262.050781 C 408.703125 262.050781 406.339844 261.871094 406.339844 261.507812 L 406.339844 223.535156 C 406.339844 223.183594 408.703125 223.007812 413.433594 223.007812 C 418.171875 223.007812 420.539062 223.15625 420.539062 223.460938 L 420.539062 261.429688 C 420.539062 261.84375 418.171875 262.050781 413.433594 262.050781 Z M 420.539062 218.898438 C 420.539062 219.261719 418.171875 219.441406 413.433594 219.441406 C 408.703125 219.441406 406.339844 219.285156 406.339844 218.972656 L 406.339844 207.84375 C 406.339844 207.328125 408.703125 207.070312 413.433594 207.070312 C 418.171875 207.070312 420.539062 207.226562 420.539062 207.539062 Z M 443.738281 261.429688 C 443.738281 261.792969 441.878906 261.976562 438.160156 261.976562 C 432.988281 261.824219 430.402344 261.542969 430.402344 261.128906 L 430.402344 236.070312 L 428.386719 236.070312 C 427.042969 236.070312 426.164062 234.9375 425.75 232.671875 C 425.636719 232 425.582031 231.328125 425.582031 230.664062 C 425.582031 229.0625 425.894531 227.460938 426.523438 225.863281 C 427.449219 223.597656 428.894531 222.464844 430.855469 222.464844 C 432.824219 222.464844 434.582031 222.925781 436.128906 223.851562 C 437.683594 224.777344 438.726562 225.707031 439.25 226.632812 C 442.503906 223.851562 446.378906 222.464844 450.875 222.464844 C 455.378906 222.464844 458.640625 223.675781 460.648438 226.101562 C 462.671875 228.519531 463.679688 232.488281 463.679688 238.003906 L 463.679688 261.203125 C 463.679688 261.820312 461.46875 262.125 457.042969 262.125 C 452.628906 262.125 450.421875 261.820312 450.421875 261.203125 L 450.421875 238.851562 C 450.421875 236.273438 449.515625 234.984375 447.707031 234.984375 C 447.183594 234.984375 446.453125 235.207031 445.523438 235.648438 C 444.597656 236.082031 444 236.402344 443.738281 236.617188 Z M 484.550781 261.898438 C 479.539062 261.898438 475.660156 260.289062 472.910156 257.066406 C 470.171875 253.84375 468.804688 249.078125 468.804688 242.761719 C 468.804688 236.449219 470.601562 231.5 474.199219 227.914062 C 477.796875 224.332031 482.578125 222.539062 488.550781 222.539062 C 494.53125 222.539062 499.460938 223.851562 503.339844 226.480469 L 503.339844 264.996094 C 503.339844 268.8125 501.785156 271.738281 498.675781 273.769531 C 495.574219 275.804688 491.589844 276.824219 486.730469 276.824219 C 481.871094 276.824219 477.527344 276.203125 473.699219 274.964844 C 473.175781 273.726562 472.910156 272.617188 472.910156 271.640625 C 472.910156 268.339844 473.457031 265.917969 474.546875 264.375 C 478.011719 265.867188 481.710938 266.613281 485.640625 266.613281 C 488.488281 266.613281 489.914062 265.609375 489.914062 263.605469 L 489.914062 261.28125 C 487.691406 261.691406 485.902344 261.898438 484.550781 261.898438 Z M 488.125 235.136719 C 484.660156 235.136719 482.929688 237.742188 482.929688 242.960938 C 482.929688 246.203125 483.601562 248.3125 484.945312 249.289062 C 485.824219 249.960938 486.703125 250.300781 487.582031 250.300781 C 488.460938 250.300781 489.238281 250.222656 489.914062 250.074219 L 489.914062 235.378906 C 489.289062 235.214844 488.691406 235.136719 488.125 235.136719 Z M 488.125 235.136719 "/>
</g>
</svg>
