<?xml version="1.0" encoding="UTF-8" standalone="no"?>
<!DOCTYPE svg PUBLIC "-//W3C//DTD SVG 1.1//EN" "http://www.w3.org/Graphics/SVG/1.1/DTD/svg11.dtd">
<!-- Created with Vectornator (http://vectornator.io/) -->
<svg height="100%" stroke-miterlimit="10" style="" version="1.1" viewBox="0 0 600 300" width="100%" xml:space="preserve" xmlns="http://www.w3.org/2000/svg" xmlns:xlink="http://www.w3.org/1999/xlink">
<defs/>
<clipPath id="ArtboardFrame">
<rect height="300" width="600" x="0" y="0"/>
</clipPath>
<g clip-path="url(#ArtboardFrame)" id="Background">
<path d="M0 0L600 0L600 300L0 300L0 0Z" fill="#333333" fill-rule="nonzero" opacity="1" stroke="none"/>
<g opacity="1">
<g opacity="1">
<path d="M151.844-59.8438C145.134-59.1918 138.555-56.5885 132.969-51.9688C118.073-39.6495 115.993-17.5832 128.312-2.6875C146.419 13.83 164.486 30.3977 182.938 46.5312C188.361 51.2737 193.84 55.9186 199.375 60.5312C202.147 62.8411 204.903 65.1688 207.656 67.5C208.573 68.2764 209.524 69.0281 210.406 69.8438C211.712 71.0506 212.843 72.4372 214 73.7812C214.772 74.6779 215.549 75.5653 216.312 76.4688C219.365 80.0799 222.227 83.8739 225.062 87.6562C229.695 93.8359 234.12 100.182 238.188 106.75C244.49 116.928 250.1 127.481 256.562 137.562C263.269 148.025 270.922 157.93 278.875 167.469C286.839 177.021 295.203 186.305 304.375 194.719C315.403 204.834 327.257 214.033 337.938 224.531C343.429 229.929 348.604 235.667 353.625 241.5C356.324 244.635 359.059 247.749 361.656 250.969C362.775 252.356 363.765 253.819 364.781 255.281C365.797 256.742 366.846 258.205 367.781 259.719C369.354 262.264 370.791 264.905 372.281 267.5C375.868 273.748 379.434 280.021 383 286.281C394.589 306.627 406.161 326.967 417.75 347.312C430.069 362.208 452.136 364.288 467.031 351.969C481.927 339.649 484.007 317.583 471.688 302.688C453.878 287.486 436.09 272.295 418.281 257.094C412.346 252.027 406.366 246.986 400.469 241.875C398.659 240.307 396.796 238.775 395.031 237.156C393.284 235.553 391.689 233.788 390.031 232.094C389.203 231.247 388.36 230.404 387.594 229.5C384.919 226.345 382.385 223.083 379.812 219.844C375.026 213.818 370.334 207.656 366.062 201.25C357.755 188.79 350.991 175.417 343.125 162.688C336.582 152.099 329.013 142.146 321.125 132.531C313.248 122.93 304.956 113.551 295.938 105C287.248 96.7605 277.908 89.2569 269.094 81.1562C263.406 75.9286 258.013 70.3971 252.812 64.6875C249.629 61.1929 246.474 57.6758 243.5 54C242.384 52.6208 241.291 51.2017 240.188 49.8125C239.451 48.885 238.689 47.9741 238.062 46.9688C237.113 45.4456 236.288 43.8132 235.406 42.25C233.633 39.1072 231.908 35.9675 230.156 32.8125C226.951 27.0397 223.649 21.2918 220.312 15.5938C207.928-5.55786 195.076-26.4276 182.25-47.3125C174.55-56.6223 163.027-60.9303 151.844-59.8438Z" fill="#404040" stroke="none"/>
</g>
<g opacity="1">
<path d="M270.281-59.8438C263.572-59.1918 256.961-56.5885 251.375-51.9688C236.479-39.6495 234.399-17.5832 246.719-2.6875C264.826 13.83 282.892 30.3977 301.344 46.5312C306.768 51.2737 312.278 55.9186 317.812 60.5312C320.584 62.8411 323.34 65.1688 326.094 67.5C327.011 68.2764 327.961 69.0281 328.844 69.8438C330.149 71.0506 331.249 72.4372 332.406 73.7812C333.178 74.6779 333.955 75.5653 334.719 76.4688C337.771 80.0799 340.665 83.8739 343.5 87.6562C348.132 93.8359 352.526 100.182 356.594 106.75C362.896 116.928 368.538 127.481 375 137.562C381.707 148.025 389.36 157.93 397.312 167.469C405.277 177.021 413.64 186.305 422.812 194.719C433.84 204.834 445.695 214.033 456.375 224.531C461.866 229.929 467.01 235.667 472.031 241.5C474.73 244.635 477.465 247.749 480.062 250.969C481.181 252.356 482.171 253.819 483.188 255.281C484.203 256.742 485.283 258.205 486.219 259.719C487.792 262.264 489.229 264.905 490.719 267.5C494.305 273.748 497.84 280.021 501.406 286.281C512.996 306.627 524.598 326.967 536.188 347.312C548.507 362.208 570.573 364.288 585.469 351.969C600.364 339.649 602.444 317.583 590.125 302.688C572.316 287.486 554.497 272.295 536.688 257.094C530.752 252.027 524.804 246.986 518.906 241.875C517.097 240.307 515.233 238.775 513.469 237.156C511.721 235.553 510.095 233.788 508.438 232.094C507.609 231.247 506.797 230.404 506.031 229.5C503.356 226.345 500.792 223.083 498.219 219.844C493.432 213.818 488.771 207.656 484.5 201.25C476.193 188.79 469.397 175.417 461.531 162.688C454.989 152.099 447.419 142.146 439.531 132.531C431.654 122.93 423.393 113.551 414.375 105C405.685 96.7605 396.345 89.2569 387.531 81.1562C381.843 75.9286 376.451 70.3971 371.25 64.6875C368.067 61.1929 364.88 57.6758 361.906 54C360.79 52.6208 359.697 51.2017 358.594 49.8125C357.857 48.885 357.127 47.9741 356.5 46.9688C355.551 45.4456 354.726 43.8132 353.844 42.25C352.07 39.1072 350.314 35.9675 348.562 32.8125C345.357 27.0397 342.086 21.2918 338.75 15.5938C326.366-5.55786 313.482-26.4276 300.656-47.3125C292.957-56.6223 281.464-60.9303 270.281-59.8438Z" fill="#404040" stroke="none"/>
</g>
<g opacity="1">
<path d="M-85-59.8438C-91.7098-59.1918-98.2891-56.5885-103.875-51.9688C-118.771-39.6495-120.882-17.5832-108.562-2.6875C-90.4555 13.83-72.3581 30.3977-53.9062 46.5312C-48.4823 51.2737-43.0034 55.9186-37.4688 60.5312C-34.6972 62.8411-31.9411 65.1688-29.1875 67.5C-28.2704 68.2764-27.3199 69.0281-26.4375 69.8438C-25.1318 71.0506-24.0319 72.4372-22.875 73.7812C-22.1032 74.6779-21.2949 75.5653-20.5312 76.4688C-17.4789 80.0799-14.6165 83.8739-11.7812 87.6562C-7.14901 93.8359-2.7549 100.182 1.3125 106.75C7.61522 116.928 13.2563 127.481 19.7188 137.562C26.4257 148.025 34.0784 157.93 42.0312 167.469C49.9953 177.021 58.3589 186.305 67.5312 194.719C78.5589 204.834 90.4136 214.033 101.094 224.531C106.585 229.929 111.76 235.667 116.781 241.5C119.48 244.635 122.215 247.749 124.812 250.969C125.931 252.356 126.921 253.819 127.938 255.281C128.953 256.742 130.002 258.205 130.938 259.719C132.511 262.264 133.948 264.905 135.438 267.5C139.024 273.748 142.59 280.021 146.156 286.281C157.746 306.627 169.317 326.967 180.906 347.312C193.226 362.208 215.292 364.288 230.188 351.969C245.083 339.649 247.163 317.583 234.844 302.688C217.035 287.486 199.247 272.295 181.438 257.094C175.502 252.027 169.522 246.986 163.625 241.875C161.815 240.307 159.952 238.775 158.188 237.156C156.44 235.553 154.845 233.788 153.188 232.094C152.359 231.247 151.516 230.404 150.75 229.5C148.075 226.345 145.542 223.083 142.969 219.844C138.182 213.818 133.49 207.656 129.219 201.25C120.911 188.79 114.147 175.417 106.281 162.688C99.7385 152.099 92.1694 142.146 84.2812 132.531C76.4041 122.93 68.112 113.551 59.0938 105C50.4042 96.7605 41.064 89.2569 32.25 81.1562C26.562 75.9286 21.1693 70.3971 15.9688 64.6875C12.7857 61.1929 9.63045 57.6758 6.65625 54C5.54025 52.6208 4.44734 51.2017 3.34375 49.8125C2.60693 48.885 1.84526 47.9741 1.21875 46.9688C0.269561 45.4456-0.555468 43.8132-1.4375 42.25C-3.21087 39.1072-4.93588 35.9675-6.6875 32.8125C-9.89253 27.0397-13.1951 21.2918-16.5312 15.5938C-28.9156-5.55786-41.7676-26.4276-54.5938-47.3125C-62.2933-56.6223-73.8171-60.9303-85-59.8438Z" fill="#404040" stroke="none"/>
</g>
<g opacity="1">
<path d="M-203.406-59.8438C-210.116-59.1918-216.727-56.5885-222.312-51.9688C-237.208-39.6495-239.288-17.5832-226.969-2.6875C-208.862 13.83-190.796 30.3977-172.344 46.5312C-166.92 51.2737-161.441 55.9186-155.906 60.5312C-153.135 62.8411-150.347 65.1688-147.594 67.5C-146.677 68.2764-145.726 69.0281-144.844 69.8438C-143.538 71.0506-142.438 72.4372-141.281 73.7812C-140.509 74.6779-139.732 75.5653-138.969 76.4688C-135.916 80.0799-133.054 83.8739-130.219 87.6562C-125.587 93.8359-121.161 100.182-117.094 106.75C-110.791 116.928-105.15 127.481-98.6875 137.562C-91.9806 148.025-84.3279 157.93-76.375 167.469C-68.4109 177.021-60.0786 186.305-50.9062 194.719C-39.8786 204.834-27.9926 214.033-17.3125 224.531C-11.8214 229.929-6.67709 235.667-1.65625 241.5C1.04227 244.635 3.77766 247.749 6.375 250.969C7.49384 252.356 8.48397 253.819 9.5 255.281C10.5153 256.742 11.5643 258.205 12.5 259.719C14.0732 262.264 15.5414 264.905 17.0312 267.5C20.6179 273.748 24.1528 280.021 27.7188 286.281C39.3082 306.627 50.9106 326.967 62.5 347.312C74.8193 362.208 96.8855 364.288 111.781 351.969C126.677 339.649 128.757 317.583 116.438 302.688C98.6284 287.486 80.8091 272.295 63 257.094C57.0645 252.027 51.1161 246.986 45.2188 241.875C43.4091 240.307 41.5457 238.775 39.7812 237.156C38.034 235.553 36.4078 233.788 34.75 232.094C33.9213 231.247 33.1099 230.404 32.3438 229.5C29.6686 226.345 27.104 223.083 24.5312 219.844C19.7443 213.818 15.0837 207.656 10.8125 201.25C2.5052 188.79-4.29011 175.417-12.1562 162.688C-18.699 152.099-26.2681 142.146-34.1562 132.531C-42.0334 122.93-50.2942 113.551-59.3125 105C-68.0021 96.7605-77.3423 89.2569-86.1562 81.1562C-91.8443 75.9286-97.2369 70.3971-102.438 64.6875C-105.621 61.1929-108.807 57.6758-111.781 54C-112.897 52.6208-113.99 51.2017-115.094 49.8125C-115.831 48.885-116.561 47.9741-117.188 46.9688C-118.137 45.4456-118.962 43.8132-119.844 42.25C-121.617 39.1072-123.373 35.9675-125.125 32.8125C-128.33 27.0397-131.601 21.2918-134.938 15.5938C-147.322-5.55786-160.205-26.4276-173.031-47.3125C-180.731-56.6223-192.223-60.9303-203.406-59.8438Z" fill="#404040" stroke="none"/>
</g>
<g opacity="1">
<path d="M33.4375-59.8438C26.7278-59.1918 20.1171-56.5885 14.5312-51.9688C-0.364476-39.6495-2.4443-17.5832 9.875-2.6875C27.982 13.83 46.0482 30.3977 64.5 46.5312C69.9239 51.2737 75.4029 55.9186 80.9375 60.5312C83.709 62.8411 86.4964 65.1688 89.25 67.5C90.1671 68.2764 91.1176 69.0281 92 69.8438C93.3057 71.0506 94.4056 72.4372 95.5625 73.7812C96.3343 74.6779 97.1113 75.5653 97.875 76.4688C100.927 80.0799 103.79 83.8739 106.625 87.6562C111.257 93.8359 115.683 100.182 119.75 106.75C126.053 116.928 131.694 127.481 138.156 137.562C144.863 148.025 152.516 157.93 160.469 167.469C168.433 177.021 176.796 186.305 185.969 194.719C196.996 204.834 208.851 214.033 219.531 224.531C225.022 229.929 230.167 235.667 235.188 241.5C237.886 244.635 240.621 247.749 243.219 250.969C244.338 252.356 245.328 253.819 246.344 255.281C247.359 256.742 248.408 258.205 249.344 259.719C250.917 262.264 252.385 264.905 253.875 267.5C257.462 273.748 260.997 280.021 264.562 286.281C276.152 306.627 287.754 326.967 299.344 347.312C311.663 362.208 333.729 364.288 348.625 351.969C363.521 339.649 365.601 317.583 353.281 302.688C335.472 287.486 317.653 272.295 299.844 257.094C293.908 252.027 287.96 246.986 282.062 241.875C280.253 240.307 278.389 238.775 276.625 237.156C274.878 235.553 273.252 233.788 271.594 232.094C270.765 231.247 269.954 230.404 269.188 229.5C266.512 226.345 263.948 223.083 261.375 219.844C256.588 213.818 251.927 207.656 247.656 201.25C239.349 188.79 232.554 175.417 224.688 162.688C218.145 152.099 210.576 142.146 202.688 132.531C194.81 122.93 186.55 113.551 177.531 105C168.842 96.7605 159.501 89.2569 150.688 81.1562C144.999 75.9286 139.607 70.3971 134.406 64.6875C131.223 61.1929 128.037 57.6758 125.062 54C123.947 52.6208 122.854 51.2017 121.75 49.8125C121.013 48.885 120.283 47.9741 119.656 46.9688C118.707 45.4456 117.882 43.8132 117 42.25C115.227 39.1072 113.47 35.9675 111.719 32.8125C108.514 27.0397 105.242 21.2918 101.906 15.5938C89.5219-5.55786 76.6386-26.4276 63.8125-47.3125C56.1129-56.6223 44.6204-60.9303 33.4375-59.8438Z" fill="#404040" stroke="none"/>
</g>
<g opacity="1">
<path d="M388.688-59.8438C381.978-59.1918 375.398-56.5885 369.812-51.9688C354.917-39.6495 352.837-17.5832 365.156-2.6875C383.263 13.83 401.329 30.3977 419.781 46.5312C425.205 51.2737 430.684 55.9186 436.219 60.5312C438.99 62.8411 441.746 65.1688 444.5 67.5C445.417 68.2764 446.368 69.0281 447.25 69.8438C448.556 71.0506 449.687 72.4372 450.844 73.7812C451.616 74.6779 452.392 75.5653 453.156 76.4688C456.209 80.0799 459.071 83.8739 461.906 87.6562C466.538 93.8359 470.964 100.182 475.031 106.75C481.334 116.928 486.944 127.481 493.406 137.562C500.113 148.025 507.766 157.93 515.719 167.469C523.683 177.021 532.046 186.305 541.219 194.719C552.246 204.834 564.101 214.033 574.781 224.531C580.272 229.929 585.448 235.667 590.469 241.5C593.167 244.635 595.903 247.749 598.5 250.969C599.619 252.356 600.609 253.819 601.625 255.281C602.64 256.742 603.689 258.205 604.625 259.719C606.198 262.264 607.635 264.905 609.125 267.5C612.712 273.748 616.278 280.021 619.844 286.281C631.433 306.627 643.004 326.967 654.594 347.312C666.913 362.208 688.979 364.288 703.875 351.969C718.771 339.649 720.882 317.583 708.562 302.688C690.753 287.486 672.934 272.295 655.125 257.094C649.19 252.027 643.21 246.986 637.312 241.875C635.503 240.307 633.639 238.775 631.875 237.156C630.128 235.553 628.533 233.788 626.875 232.094C626.046 231.247 625.204 230.404 624.438 229.5C621.762 226.345 619.229 223.083 616.656 219.844C611.869 213.818 607.177 207.656 602.906 201.25C594.599 188.79 587.835 175.417 579.969 162.688C573.426 152.099 565.857 142.146 557.969 132.531C550.092 122.93 541.799 113.551 532.781 105C524.092 96.7605 514.783 89.2569 505.969 81.1562C500.281 75.9286 494.857 70.3971 489.656 64.6875C486.473 61.1929 483.318 57.6758 480.344 54C479.228 52.6208 478.135 51.2017 477.031 49.8125C476.294 48.885 475.533 47.9741 474.906 46.9688C473.957 45.4456 473.132 43.8132 472.25 42.25C470.477 39.1072 468.752 35.9675 467 32.8125C463.795 27.0397 460.524 21.2918 457.188 15.5938C444.803-5.55786 431.92-26.4276 419.094-47.3125C411.394-56.6223 399.87-60.9303 388.688-59.8438Z" fill="#404040" stroke="none"/>
</g>
<g opacity="1">
<path d="M507.125-59.8438C500.415-59.1918 493.805-56.5885 488.219-51.9688C473.323-39.6495 471.243-17.5832 483.562-2.6875C501.669 13.83 519.736 30.3977 538.188 46.5312C543.611 51.2737 549.122 55.9186 554.656 60.5312C557.428 62.8411 560.184 65.1688 562.938 67.5C563.855 68.2764 564.805 69.0281 565.688 69.8438C566.993 71.0506 568.093 72.4372 569.25 73.7812C570.022 74.6779 570.799 75.5653 571.562 76.4688C574.615 80.0799 577.509 83.8739 580.344 87.6562C584.976 93.8359 589.37 100.182 593.438 106.75C599.74 116.928 605.381 127.481 611.844 137.562C618.551 148.025 626.203 157.93 634.156 167.469C642.12 177.021 650.484 186.305 659.656 194.719C670.684 204.834 682.539 214.033 693.219 224.531C698.71 229.929 703.854 235.667 708.875 241.5C711.574 244.635 714.309 247.749 716.906 250.969C718.025 252.356 719.015 253.819 720.031 255.281C721.047 256.742 722.127 258.205 723.062 259.719C724.636 262.264 726.072 264.905 727.562 267.5C731.149 273.748 734.684 280.021 738.25 286.281C749.839 306.627 761.442 326.967 773.031 347.312C785.351 362.208 807.417 364.288 822.312 351.969C837.208 339.649 839.288 317.583 826.969 302.688C809.16 287.486 791.34 272.295 773.531 257.094C767.596 252.027 761.647 246.986 755.75 241.875C753.94 240.307 752.077 238.775 750.312 237.156C748.565 235.553 746.939 233.788 745.281 232.094C744.453 231.247 743.641 230.404 742.875 229.5C740.2 226.345 737.635 223.083 735.062 219.844C730.276 213.818 725.615 207.656 721.344 201.25C713.036 188.79 706.241 175.417 698.375 162.688C691.832 152.099 684.263 142.146 676.375 132.531C668.498 122.93 660.237 113.551 651.219 105C642.529 96.7605 633.189 89.2569 624.375 81.1562C618.687 75.9286 613.294 70.3971 608.094 64.6875C604.911 61.1929 601.724 57.6758 598.75 54C597.634 52.6208 596.541 51.2017 595.438 49.8125C594.701 48.885 593.97 47.9741 593.344 46.9688C592.395 45.4456 591.57 43.8132 590.688 42.25C588.914 39.1072 587.158 35.9675 585.406 32.8125C582.201 27.0397 578.93 21.2918 575.594 15.5938C563.209-5.55786 550.326-26.4276 537.5-47.3125C529.8-56.6223 518.308-60.9303 507.125-59.8438Z" fill="#404040" stroke="none"/>
</g>
</g>
</g>
<g id="Main">
<path d="M287.5 68.0264C287.5 61.1229 293.096 55.5264 300 55.5264C306.904 55.5264 312.5 61.1229 312.5 68.0264C312.5 74.93 306.904 80.5264 300 80.5264C293.096 80.5264 287.5 74.93 287.5 68.0264Z" fill="#ffcc33" fill-rule="nonzero" opacity="1" stroke="#ffffff" stroke-linecap="butt" stroke-linejoin="miter" stroke-width="7.5"/>
<path d="M276.313 220.787C276.313 207.705 286.918 197.1 300 197.1C313.082 197.1 323.687 207.705 323.687 220.787C323.687 233.869 313.082 244.474 300 244.474C286.918 244.474 276.313 233.869 276.313 220.787Z" fill="#cca329" fill-rule="nonzero" opacity="1" stroke="#ffffff" stroke-linecap="butt" stroke-linejoin="miter" stroke-width="7.5"/>
<path d="M300 68.0264C311.14 68.0264 351.222 67.8812 366.607 132.184L372.342 196.341L227.658 196.341L233.393 132.184C242.907 67.8812 288.722 68.0264 300 68.0264Z" fill="#ffcc33" fill-rule="nonzero" opacity="1" stroke="#ffffff" stroke-linecap="butt" stroke-linejoin="miter" stroke-width="7.5"/>
<path d="M212.5 208.564C212.5 201.814 217.972 196.341 224.723 196.341L375.277 196.341C382.028 196.341 387.5 201.814 387.5 208.564L387.5 208.564C387.5 215.314 382.028 220.787 375.277 220.787L224.723 220.787C217.972 220.787 212.5 215.314 212.5 208.564L212.5 208.564Z" fill="#ffcc33" fill-rule="nonzero" opacity="1" stroke="#ffffff" stroke-linecap="butt" stroke-linejoin="miter" stroke-width="7.5"/>
<path d="M300 45.5312C290.282 45.5312 282.087 51.7229 278.938 60.3438C269.9 62.5106 259.426 66.7761 249.812 75.4062C237.462 86.4929 227.435 104.125 223.5 130.719C223.472 130.908 223.455 131.09 223.438 131.281C222.181 145.297 219.939 170.238 218.406 187.344C209.228 190.077 202.5 198.5 202.5 208.562C202.5 220.841 212.448 230.781 224.719 230.781C235.539 230.781 254.255 230.781 268 230.781C272.28 244.472 284.903 254.469 300 254.469C315.105 254.469 327.722 244.469 332 230.781C345.745 230.781 364.461 230.781 375.281 230.781C387.56 230.781 397.5 220.833 397.5 208.562C397.5 198.493 390.769 190.075 381.594 187.344C380.061 170.238 377.819 145.297 376.562 131.281C376.519 130.798 376.425 130.347 376.312 129.875C370.133 104.048 359.917 86.9508 348.219 76C339.173 67.5322 329.57 63.0896 321.156 60.7188C318.106 51.9062 309.846 45.5312 300 45.5312Z" fill="#000000" fill-opacity="0.15" fill-rule="nonzero" opacity="1" stroke="none"/>
<g opacity="1">
<path d="M175.145 190C175.145 190 164.874 170 164.855 150C164.836 130 175.067 110 175.067 110" fill="none" opacity="1" stroke="#000000" stroke-linecap="round" stroke-linejoin="miter" stroke-opacity="0.15" stroke-width="20"/>
<path d="M152.145 200C152.145 200 139.874 175 139.855 150C139.836 125 152.067 100 152.067 100" fill="none" opacity="1" stroke="#000000" stroke-linecap="round" stroke-linejoin="miter" stroke-opacity="0.15" stroke-width="20"/>
<path d="M424.855 190C424.855 190 435.126 170 435.145 150C435.164 130 424.933 110 424.933 110" fill="none" opacity="1" stroke="#000000" stroke-linecap="round" stroke-linejoin="miter" stroke-opacity="0.15" stroke-width="20"/>
<path d="M447.855 200C447.855 200 460.126 175 460.145 150C460.164 125 447.933 100 447.933 100" fill="none" opacity="1" stroke="#000000" stroke-linecap="round" stroke-linejoin="miter" stroke-opacity="0.15" stroke-width="20"/>
</g>
<g opacity="1">
<path d="M175.145 190C175.145 190 164.874 170 164.855 150C164.836 130 175.067 110 175.067 110" fill="none" opacity="1" stroke="#ffffff" stroke-linecap="round" stroke-linejoin="miter" stroke-width="10"/>
<path d="M152.145 200C152.145 200 139.874 175 139.855 150C139.836 125 152.067 100 152.067 100" fill="none" opacity="1" stroke="#ffffff" stroke-linecap="round" stroke-linejoin="miter" stroke-width="10"/>
<path d="M424.855 190C424.855 190 435.126 170 435.145 150C435.164 130 424.933 110 424.933 110" fill="none" opacity="1" stroke="#ffffff" stroke-linecap="round" stroke-linejoin="miter" stroke-width="10"/>
<path d="M447.855 200C447.855 200 460.126 175 460.145 150C460.164 125 447.933 100 447.933 100" fill="none" opacity="1" stroke="#ffffff" stroke-linecap="round" stroke-linejoin="miter" stroke-width="10"/>
</g>
</g>
</svg>