<svg width="600" height="300" viewBox="0 0 600 300" fill="none" xmlns="http://www.w3.org/2000/svg">
<rect width="600" height="300" fill="#002B36"/>
<path d="M82.532 169.762V158.492L98.297 151.196L82.532 143.379V131.131L110.935 146.245V155.496L82.532 169.762Z" fill="#859900"/>
<path d="M143.69 171.521C135.417 171.521 130.726 167.091 130.726 159.535V147.874H126.166V139.079H130.726V129.894H141.801V139.079H149.162V147.874H141.801V159.209C141.801 161.554 143.43 162.987 146.166 162.987C147.012 162.987 147.924 162.857 148.771 162.531L150.921 170.479C148.38 171.195 145.905 171.521 143.69 171.521ZM164.033 171.391C157.584 171.391 153.154 166.57 153.154 158.883V139.079H164.424V156.342V156.408C164.424 157.776 164.424 161.619 168.463 161.619C170.026 161.619 171.394 161.033 172.567 159.991V139.079H183.837V171H175.694L173.935 166.831C171.394 169.762 167.942 171.391 164.033 171.391ZM189.96 171V139.079H198.754L199.731 144.03C202.076 140.708 205.659 138.819 209.438 138.819C211.392 138.819 213.346 139.209 214.649 139.861L212.109 150.154C210.806 149.698 208.982 149.372 207.549 149.372C205.138 149.372 202.923 150.414 201.23 152.238V171H189.96ZM234.61 171.651C230.571 171.651 227.509 170.218 225.425 167.482L223.666 171H216.76V122.858H227.574V141.424C229.724 139.47 232.525 138.428 235.783 138.428C243.861 138.428 249.398 144.942 249.398 154.779C249.398 164.876 243.47 171.651 234.61 171.651ZM227.574 149.437V159.991C228.747 161.489 230.506 162.271 232.46 162.271C235.978 162.271 237.932 159.73 237.932 155.17C237.932 150.414 235.718 147.809 231.744 147.809C230.18 147.809 228.617 148.199 227.574 149.437ZM268.466 171.651C258.238 171.651 251.724 165.332 251.724 155.691C251.724 145.333 258.89 138.428 269.639 138.428C279.801 138.428 286.316 144.747 286.316 154.453C286.316 164.746 279.15 171.651 268.466 171.651ZM269.183 162.271C272.765 162.271 274.85 159.73 274.85 155.365C274.85 150.61 272.635 147.809 268.857 147.809C265.274 147.809 263.189 150.479 263.189 154.974C263.189 159.535 265.404 162.271 269.183 162.271ZM297.304 171L286.23 139.079H298.412L303.363 159.535L309.226 139.209H319.974L325.837 158.623L331.049 139.079H341.993L331.244 171H320.04L313.655 151.522L307.923 171H297.304ZM364.12 171L362.948 167.612C360.537 170.283 357.28 171.651 353.176 171.651C346.271 171.651 341.906 167.808 341.906 162.01C341.906 155.235 347.964 152.043 361.254 151.717C361.123 148.916 358.518 147.418 354.088 147.418C351.287 147.418 348.225 148.004 344.902 149.177L342.297 141.555C346.336 139.6 351.547 138.428 356.498 138.428C366.921 138.428 372.263 143.639 372.263 153.281V171H364.12ZM361.254 161.749V157.32C355.456 157.515 353.241 158.362 353.241 160.381C353.241 162.075 354.804 163.248 357.085 163.248C358.648 163.248 360.081 162.727 361.254 161.749ZM377.657 171V139.079H386.452L387.429 144.03C389.774 140.708 393.357 138.819 397.136 138.819C399.09 138.819 401.044 139.209 402.347 139.861L399.807 150.154C398.504 149.698 396.68 149.372 395.247 149.372C392.836 149.372 390.621 150.414 388.927 152.238V171H377.657ZM422.308 171.651C419.572 171.651 417.162 170.87 415.207 169.371V185.136H404.458V139.079H411.95L413.513 142.792C415.794 139.991 418.986 138.428 422.894 138.428C431.103 138.428 437.031 145.203 437.031 154.649C437.031 164.42 430.712 171.651 422.308 171.651ZM415.207 160.251C416.38 161.554 418.074 162.271 419.898 162.271C423.481 162.271 425.565 159.665 425.565 155.235C425.565 150.545 423.285 147.809 419.637 147.809C417.878 147.809 416.315 148.46 415.207 149.633V160.251ZM446.524 171.651C442.355 171.651 439.619 168.655 439.619 164.746C439.619 160.577 442.355 157.58 446.524 157.58C450.693 157.58 453.429 160.577 453.429 164.746C453.429 168.655 450.693 171.651 446.524 171.651ZM469.138 171.651C464.513 171.651 459.627 170.739 455.979 169.241L458.389 161.228C461.711 162.401 465.75 163.183 468.552 163.183C471.353 163.183 473.112 162.336 473.112 161.098C473.112 159.665 470.962 159.339 468.161 158.883C463.275 158.101 456.435 157.059 456.435 149.177C456.435 142.206 461.776 138.428 471.678 138.428C475.522 138.428 479.756 139.014 482.883 139.991L480.734 148.134C477.541 147.353 474.415 146.896 471.874 146.896C468.747 146.896 467.183 147.548 467.183 148.655C467.183 149.958 469.333 150.284 472.069 150.805C477.151 151.652 484.251 152.89 484.251 160.772C484.251 167.678 478.779 171.651 469.138 171.651ZM508.235 171V153.737C508.235 150.154 506.867 148.46 503.61 148.46C501.916 148.46 500.483 148.981 499.18 150.349V171H488.106V122.858H499.18V142.011C501.525 139.731 504.522 138.688 507.844 138.688C515.141 138.688 519.505 143.574 519.505 151.847V171H508.235Z" fill="#268BD2"/>
</svg>
