<svg xmlns="http://www.w3.org/2000/svg" width="600.00001" height="300"><g stroke-miterlimit="10" data-paper-data="{&quot;isPaintingLayer&quot;:true}" style="mix-blend-mode:normal"><path fill="#27c495" d="M.00001 300V0h600v300z"/><path fill="#25b78a" d="M.00001 41c17.5 21.2 50 70.9 90 77.5 40 6.6 53.35436-39.98202 102-41.5 48.64564-1.51798 47.4336 32.18416 93.5 25.5 46.0664-6.68416 44.5968-46.55587 112.5-56 67.9032-9.44413 81.38399 37.91463 123.5 37 42.11601-.91463 62-40.2 78.5-60.5v277h-600z"/><path fill="#22ab82" d="M.00001 156.33333c15.31524 11.59634 33.63482 26.71207 62.30244 29.78504 28.66762 3.07297 45.73846-31.22479 93.69756-21.11837 47.9591 10.10642 71.01476 68.07046 128.51347 49.49653 57.49871-18.57393 51.89229-54.94395 105.78309-67.08173C444.18737 135.27702 440.25778 167.16925 493.5 167c53.24222-.16925 81-30.6 106.5-51v184H0z"/><g stroke="#098764" stroke-width="13.5"><path fill="#fefefe" d="M434.34001 77.65004c-34.15 6.9-64 22.65-91.51 43.61-15.78 12-30.14 25.63-44.34 39.46-24.1 23.47-50.56 43.77-81.28 58-15.5 7.19-31.56 12.67-48.55 15.08-14.45444 2.04356-17.41614-8.82177-3-11.12 21.1-3.28 40.71-10.78 59.37-20.87 19.27427-10.5689 37.26916-23.31933 53.63-38 8.55-7.55 16.77-15.42 24.92-23.37 24.1-23.5 50.41-44 81-58.52 15.35071-7.37214 31.62326-12.64609 48.38-15.68 16.75674-3.03391 35.53 4.51 1.38 11.41z"/><path fill="#fff" d="M434.05509 70.34984c0-14.38271 11.65949-26.04221 26.04221-26.04221s26.04221 11.6595 26.04221 26.04221c0 14.38272-11.65949 26.04222-26.04221 26.04222s-26.04221-11.6595-26.04221-26.04221z"/><path fill="#fff" d="M165.94494 229.65027c0 14.38271-11.6595 26.04221-26.04221 26.04221-14.38272 0-26.04221-11.65949-26.04221-26.04221 0-14.38271 11.65949-26.04221 26.04221-26.04221 14.38271 0 26.04221 11.6595 26.04221 26.04222z" data-paper-data="{&quot;index&quot;:null}"/></g><path fill="#fefefe" d="M434.34001 77.65004c-34.15 6.9-64 22.65-91.51 43.61-15.78 12-30.14 25.63-44.34 39.46-24.1 23.47-50.56 43.77-81.28 58-15.5 7.19-31.56 12.67-48.55 15.08-14.45444 2.04356-17.41614-8.82177-3-11.12 21.1-3.28 40.71-10.78 59.37-20.87 19.27427-10.5689 37.26916-23.31933 53.63-38 8.55-7.55 16.77-15.42 24.92-23.37 24.1-23.5 50.41-44 81-58.52 15.35071-7.37214 31.62326-12.64609 48.38-15.68 16.75674-3.03391 35.53 4.51 1.38 11.41z"/><path fill="#fff" d="M434.05509 70.34984c0-14.38271 11.65949-26.04221 26.04221-26.04221s26.04221 11.6595 26.04221 26.04221c0 14.38272-11.65949 26.04222-26.04221 26.04222s-26.04221-11.6595-26.04221-26.04221z"/><path fill="#fff" d="M165.94494 229.65027c0 14.38271-11.6595 26.04221-26.04221 26.04221-14.38272 0-26.04221-11.65949-26.04221-26.04221 0-14.38271 11.65949-26.04221 26.04221-26.04221 14.38271 0 26.04221 11.6595 26.04221 26.04222z" data-paper-data="{&quot;index&quot;:null}"/><path fill="#2ad19f" d="M119.15188 56.01678c6.65805 8.81582 2.83377 21.61439-8.54176 28.58641-11.37553 6.97202-25.99463 5.47733-32.65267-3.33849-6.65805-8.81582-2.83377-21.61439 8.54176-28.58641 11.37553-6.97202 25.99463-5.47732 32.65268 3.33849zM298.85123 38.4034c9.61827 5.4826 11.16106 18.77964 3.4459 29.69978-7.71516 10.92014-21.76668 15.32812-31.38496 9.84552-9.61828-5.4826-11.16106-18.77964-3.4459-29.69978 7.71516-10.92014 21.76669-15.32812 31.38496-9.84553zM550.65794 23.74101c8.26774 7.36305 7.01138 20.69021-2.80617 29.76704-9.81755 9.07683-24.47858 10.4661-32.74632 3.10304-8.26774-7.36306-7.01137-20.69021 2.80618-29.76703 9.81755-9.07682 24.47857-10.4661 32.74631-3.10305z"/><path fill="#209e78" d="M420.39413 176.31737c6.76112 8.76683 3.05838 21.63078-8.27033 28.73244-11.32871 7.10165-25.99341 5.75177-32.75453-3.01506-6.76112-8.76683-3.05838-21.63078 8.27033-28.73244 11.32871-7.10165 25.99341-5.75177 32.75453 3.01506zM541.95156 224.26142c7.63301 8.01918 5.28292 21.19753-5.24906 29.43465-10.53199 8.23713-25.25764 8.41379-32.89065.39461-7.63301-8.01918-5.28292-21.19752 5.24907-29.43464s25.25763-8.4138 32.89065-.39462zM338.31771 245.19625c6.81287 8.72668 3.18628 21.61231-8.10021 28.78086s-25.95893 5.90542-32.7718-2.82125c-6.81287-8.72668-3.18628-21.61231 8.10021-28.78085 11.28649-7.16855 25.95893-5.90543 32.7718 2.82125zM73.28702 239.70059c7.44798 8.19132 4.7977 21.31259-5.91955 29.30717-10.71727 7.99458-25.4431 7.83509-32.89108-.35623-7.44798-8.19132-4.79771-21.31258 5.91956-29.30716 10.71727-7.99458 25.4431-7.83509 32.89108.35623z"/></g></svg>