<svg xmlns="http://www.w3.org/2000/svg" width="600" height="300" viewBox="32.261 35.041 600 300"><path fill="#c1c427" d="M32.26 335.041v-300h600v300z" style="mix-blend-mode:normal;fill-rule:nonzero;stroke-linecap:butt;stroke-linejoin:miter;stroke-miterlimit:10;stroke-dasharray:none;stroke-dashoffset:0;fill:#27c495;fill-opacity:1"/><path fill="#b5b825" d="M32.26 76.041c17.5 21.2 50 70.9 90 77.5 40 6.6 53.355-39.982 102-41.5 48.647-1.518 47.434 32.184 93.5 25.5 46.067-6.684 44.598-46.556 112.5-56 67.904-9.444 81.385 37.915 123.5 37 42.117-.914 62-40.2 78.5-60.5v277h-600z" style="mix-blend-mode:normal;fill-rule:nonzero;stroke-linecap:butt;stroke-linejoin:miter;stroke-miterlimit:10;stroke-dasharray:none;stroke-dashoffset:0;fill:#25b78a;fill-opacity:1"/><path fill="#a8ab22" d="M32.26 191.375c15.316 11.596 33.636 26.712 62.303 29.785 28.668 3.073 45.739-31.225 93.698-21.119 47.959 10.107 71.015 68.07 128.513 49.497 57.5-18.574 51.893-54.944 105.783-67.082 53.891-12.138 49.962 19.754 103.204 19.585 53.242-.169 81-30.6 106.5-51v184h-600z" style="mix-blend-mode:normal;fill-rule:nonzero;stroke-linecap:butt;stroke-linejoin:miter;stroke-miterlimit:10;stroke-dasharray:none;stroke-dashoffset:0;fill:#22ab82;fill-opacity:1"/><path fill="#9c9e20" d="M451.898 217.73c7.244 8.373 4.272 21.425-6.638 29.154-10.911 7.728-25.628 7.207-32.873-1.165-7.244-8.372-4.272-21.424 6.639-29.153 10.91-7.729 25.628-7.207 32.872 1.165zM570.858 252.799c9.078 6.337 9.401 19.72.722 29.89-8.68 10.17-23.075 13.278-32.153 6.941-9.078-6.337-9.4-19.72-.722-29.89 8.68-10.171 23.075-13.279 32.153-6.941zM369.077 277.234c6.813 8.727 3.186 21.613-8.1 28.781-11.287 7.169-25.959 5.906-32.772-2.82-6.813-8.728-3.186-21.613 8.1-28.782 11.287-7.168 25.96-5.905 32.772 2.821z" style="mix-blend-mode:normal;fill-rule:nonzero;stroke-linecap:butt;stroke-linejoin:miter;stroke-miterlimit:10;stroke-dasharray:none;stroke-dashoffset:0;fill:#209e78;fill-opacity:1"/><path fill="#ced12a" d="M151.413 91.058c6.658 8.816 2.834 21.614-8.542 28.586-11.376 6.972-25.995 5.478-32.653-3.338-6.658-8.816-2.833-21.614 8.542-28.586 11.376-6.973 25.995-5.478 32.653 3.338zM331.112 68.94c9.618 5.483 11.161 18.78 3.446 29.7-7.715 10.92-21.767 15.328-31.385 9.845-9.618-5.482-11.161-18.78-3.446-29.7 7.715-10.92 21.767-15.327 31.385-9.845zM576.913 58.782c8.268 7.363 7.011 20.69-2.806 29.767-9.818 9.077-24.479 10.466-32.747 3.103-8.267-7.363-7.011-20.69 2.807-29.767 9.817-9.077 24.478-10.466 32.746-3.103z" style="mix-blend-mode:normal;fill-rule:nonzero;stroke-linecap:butt;stroke-linejoin:miter;stroke-miterlimit:10;stroke-dasharray:none;stroke-dashoffset:0;fill:#2ad19f;fill-opacity:1"/><path fill="#9c9e20" d="M40.194 240.562c8.551 7.031 7.822 20.398-1.63 29.855s-24.047 11.423-32.599 4.392c-8.551-7.03-7.822-20.397 1.63-29.854s24.047-11.424 32.599-4.393zM482.83 318.726c7.048 8.538 3.774 21.517-7.314 28.99-11.087 7.473-25.789 6.61-32.836-1.929-7.048-8.538-3.773-21.518 7.314-28.99 11.088-7.473 25.789-6.61 32.837 1.929zM167.876 329.787c6.813 8.727 3.186 21.612-8.1 28.78-11.287 7.17-25.96 5.906-32.772-2.82-6.813-8.727-3.186-21.613 8.1-28.781 11.287-7.169 25.959-5.906 32.772 2.821zM654.104 283.327c7.633 8.019 5.283 21.197-5.25 29.434-10.531 8.237-25.257 8.414-32.89.395-7.633-8.02-5.283-21.198 5.249-29.435 10.532-8.237 25.258-8.414 32.89-.394zM236.287 262.184c6.401 9.033 2.182 21.736-9.425 28.374-11.607 6.638-26.205 4.696-32.606-4.337-6.401-9.033-2.181-21.737 9.426-28.375 11.606-6.637 26.204-4.695 32.605 4.338z" style="mix-blend-mode:normal;fill-rule:nonzero;stroke-linecap:butt;stroke-linejoin:miter;stroke-miterlimit:10;stroke-dasharray:none;stroke-dashoffset:0;fill:#209e78;fill-opacity:1"/><path fill="#ced12a" d="M104.99 15.188c8.26 7.337 7.022 20.638-2.764 29.707-9.785 9.07-24.413 10.474-32.672 3.137-8.26-7.338-7.022-20.638 2.764-29.707 9.785-9.07 24.413-10.474 32.672-3.137zM246.131 19.693c8.26 7.337 7.022 20.637-2.763 29.707-9.786 9.07-24.414 10.473-32.673 3.136-8.26-7.337-7.022-20.637 2.764-29.707 9.785-9.07 24.413-10.474 32.672-3.136zM427.813 12.185c8.26 7.337 7.022 20.638-2.764 29.707-9.785 9.07-24.413 10.474-32.672 3.137-8.26-7.338-7.022-20.638 2.763-29.707 9.786-9.07 24.414-10.474 32.673-3.137zM632.468 4.728c8.268 7.363 7.012 20.69-2.806 29.767-9.817 9.077-24.478 10.466-32.746 3.103-8.268-7.363-7.011-20.69 2.806-29.767 9.818-9.077 24.479-10.466 32.746-3.103zM523.91 6.18c8.258 7.336 7.02 20.637-2.765 29.706-9.785 9.07-24.413 10.474-32.672 3.137-8.26-7.338-7.022-20.638 2.763-29.707 9.786-9.07 24.414-10.474 32.673-3.137z" style="mix-blend-mode:normal;fill-rule:nonzero;stroke-linecap:butt;stroke-linejoin:miter;stroke-miterlimit:10;stroke-dasharray:none;stroke-dashoffset:0;fill:#2ad19f;fill-opacity:1"/><path fill="#9c9e20" d="M105.548 274.742c7.448 8.191 4.798 21.312-5.92 29.307-10.717 7.995-25.443 7.835-32.89-.356-7.449-8.192-4.798-21.313 5.919-29.307 10.717-7.995 25.443-7.836 32.89.356zM662.235 199.243c7.633 8.019 5.282 21.197-5.25 29.434-10.532 8.237-25.257 8.414-32.89.395-7.633-8.02-5.283-21.198 5.249-29.435 10.532-8.237 25.257-8.414 32.89-.394z" style="mix-blend-mode:normal;fill-rule:nonzero;stroke-linecap:butt;stroke-linejoin:miter;stroke-miterlimit:10;stroke-dasharray:none;stroke-dashoffset:0;fill:#209e78;fill-opacity:1"/><g style="mix-blend-mode:normal;fill-rule:nonzero;stroke-linecap:butt;stroke-linejoin:miter;stroke-miterlimit:10;stroke-dasharray:none;stroke-dashoffset:0"><path fill="#fefefe" stroke="#000" stroke-opacity=".149" stroke-width="13.5" d="M471.206 110.211c-35.321 7.137-66.194 23.427-94.647 45.105-16.32 12.411-31.173 26.509-45.86 40.813-24.926 24.274-52.293 45.27-84.066 59.988-16.031 7.436-32.642 13.104-50.214 15.597-14.95 2.113-18.013-9.125-3.103-11.502 21.823-3.392 42.106-11.15 61.405-21.585a296.537 296.537 0 0 0 55.468-39.302c8.843-7.81 17.345-15.949 25.775-24.171 24.926-24.306 52.137-45.509 83.776-60.526a196.419 196.419 0 0 1 50.038-16.218c17.331-3.138 36.748 4.665 1.428 11.801z"/><path fill="#fff" stroke="#000" stroke-opacity=".149" stroke-width="13.5" d="M470.91 102.66c0-14.875 12.06-26.934 26.936-26.934 14.875 0 26.935 12.06 26.935 26.935 0 14.876-12.06 26.935-26.935 26.935-14.876 0-26.935-12.06-26.935-26.935z"/><path fill="#fff" stroke="#000" stroke-opacity=".149" stroke-width="13.5" d="M193.61 267.422c0 14.875-12.058 26.934-26.934 26.934-14.876 0-26.935-12.059-26.935-26.934 0-14.876 12.06-26.935 26.935-26.935 14.876 0 26.935 12.059 26.935 26.935z" data-paper-data="{&quot;index&quot;:null}"/><path fill="#fefefe" d="M471.206 110.211c-35.321 7.137-66.194 23.427-94.647 45.105-16.32 12.411-31.173 26.509-45.86 40.813-24.926 24.274-52.293 45.27-84.066 59.988-16.031 7.436-32.642 13.104-50.214 15.597-14.95 2.113-18.013-9.125-3.103-11.502 21.823-3.392 42.106-11.15 61.405-21.585a296.537 296.537 0 0 0 55.468-39.302c8.843-7.81 17.345-15.949 25.775-24.171 24.926-24.306 52.137-45.509 83.776-60.526a196.419 196.419 0 0 1 50.038-16.218c17.331-3.138 36.748 4.665 1.428 11.801z"/><path fill="#fff" d="M470.91 102.66c0-14.875 12.06-26.934 26.936-26.934 14.875 0 26.935 12.06 26.935 26.935 0 14.876-12.06 26.935-26.935 26.935-14.876 0-26.935-12.06-26.935-26.935z"/><path fill="#fff" d="M193.61 267.422c0 14.875-12.058 26.934-26.934 26.934-14.876 0-26.935-12.059-26.935-26.934 0-14.876 12.06-26.935 26.935-26.935 14.876 0 26.935 12.059 26.935 26.935z" data-paper-data="{&quot;index&quot;:null}"/></g></svg>