<?xml version="1.0" encoding="utf-8"?>
<svg viewBox="0 55.597 600 300" style="shape-rendering: crispedges;" xmlns="http://www.w3.org/2000/svg" xmlns:bx="https://boxy-svg.com">
  <path d="M -0.391 301.29 L -0.391 1.29 L 599.609 1.29 L 599.609 301.29 L -0.391 301.29 Z" style="mix-blend-mode: normal; fill-rule: nonzero; stroke-linejoin: miter; stroke-miterlimit: 10; stroke-dasharray: none; stroke-dashoffset: 0; fill: rgb(115, 162, 255);"/>
  <path d="M 357.401 211.226 L 539.401 219.226 L 466.401 41.226 L 357.401 211.226 Z" style="fill: rgb(70,103,248);"/>
  <path d="M 231.401 327.226 L 354.401 324.226 L 357.401 211.226 L 231.401 327.226 Z" style="fill: rgb(75,121,248);"/>
  <path d="M 357.401 211.226 L 354.401 324.226 L 539.401 219.226 L 357.401 211.226 Z" style="fill: rgb(78,144,246);"/>
  <path d="M 231.401 327.226 L 357.401 211.226 L 316.401 135.226 L 231.401 327.226 Z" style="fill: rgb(66,88,251);"/>
  <path d="M 555.401 333.226 L 631.401 217.226 L 539.401 219.226 L 555.401 333.226 Z" style="fill: rgb(71,164,243);"/>
  <path d="M 354.401 324.226 L 555.401 333.226 L 539.401 219.226 L 354.401 324.226 Z" style="fill: rgb(71,169,242);"/>
  <path d="M 87.401 213.226 L 231.401 327.226 L 316.401 135.226 L 87.401 213.226 Z" style="fill: rgb(63,87,248);"/>
  <path d="M 354.401 324.226 L 367.438 373.226 L 486.601 373.226 L 555.401 333.226 L 354.401 324.226 Z" style="fill: rgb(63,112,246);"/>
  <path d="M 334.801 373.226 L 367.438 373.226 L 354.401 324.226 L 334.801 373.226 Z" style="fill: rgb(46,79,249);"/>
  <path d="M 555.401 333.226 L 681.401 286.226 L 631.401 217.226 L 555.401 333.226 Z" style="fill: rgb(68,163,242);"/>
  <path d="M 600.172 373.226 L 679.171 373.226 L 681.401 286.226 L 555.401 333.226 L 600.172 373.226 Z" style="fill: rgb(58,116,245);"/>
  <path d="M 486.601 373.226 L 547.566 373.226 L 555.401 333.226 L 486.601 373.226 Z" style="fill: rgb(64,125,245);"/>
  <path d="M 165.687 373.226 L 253.898 373.226 L 231.401 327.226 L 165.687 373.226 Z" style="fill: rgb(26,62,247);"/>
  <path d="M 231.401 327.226 L 253.898 373.226 L 334.801 373.226 L 354.401 324.226 L 231.401 327.226 Z" style="fill: rgb(31,62,250);"/>
  <path d="M 87.401 213.226 L 103.401 325.226 L 231.401 327.226 L 87.401 213.226 Z" style="fill: rgb(69,127,239);"/>
  <path d="M 16.401 344.226 L 51.507 373.226 L 68.875 373.226 L 103.401 325.226 L 16.401 344.226 Z" style="fill: rgb(52,104,235);"/>
  <path d="M 547.566 373.226 L 600.172 373.226 L 555.401 333.226 L 547.566 373.226 Z" style="fill: rgb(58,116,245);"/>
  <path d="M 103.401 325.226 L 114.338 373.226 L 165.687 373.226 L 231.401 327.226 L 103.401 325.226 Z" style="fill: rgb(49,88,242);"/>
  <path d="M 68.875 373.226 L 114.338 373.226 L 103.401 325.226 L 68.875 373.226 Z" style="fill: rgb(42,86,238);"/>
  <path d="M 16.401 344.226 L 103.401 325.226 L 87.401 213.226 L 16.401 344.226 Z" style="fill: rgb(64,135,234);"/>
  <path d="M -28.599 185.226 L 16.401 344.226 L 87.401 213.226 L -28.599 185.226 Z" style="fill: rgb(65,135,232);"/>
  <path d="M -28.599 185.226 L -73.599 339.226 L 16.401 344.226 L -28.599 185.226 Z" style="fill: rgb(64,138,233);"/>
  <path d="M -14.792 373.226 L 51.507 373.226 L 16.401 344.226 L -14.792 373.226 Z" style="fill: rgb(42,93,234);"/>
  <path d="M -73.599 339.226 L -84.018 373.226 L -14.792 373.226 L 16.401 344.226 L -73.599 339.226 Z" style="fill: rgb(40,85,238);"/>
  <rect x="131.631" y="-19.26" width="58.621" height="380.285" style="stroke: rgb(0, 0, 0); fill-rule: nonzero; stroke-opacity: 0; fill: rgb(0, 157, 255);" transform="matrix(1, 0, -0.6655, 1, -90.338676, 3.544922)"/>
  <rect x="131.631" y="-19.26" width="58.621" height="380.285" style="stroke: rgb(0, 0, 0); fill-rule: nonzero; stroke-opacity: 0; fill: rgb(0, 157, 255);" transform="matrix(1, 0, -0.6655, 1, 43.437813, 3.047672)"/>
  <rect x="131.631" y="-19.26" width="58.621" height="380.285" style="stroke: rgb(0, 0, 0); fill-rule: nonzero; stroke-opacity: 0; fill: rgb(0, 157, 255);" transform="matrix(1, 0, -0.6655, 1, 176.965622, 4.047493)"/>
  <rect x="131.631" y="-19.26" width="58.621" height="380.285" style="stroke: rgb(0, 0, 0); fill-rule: nonzero; stroke-opacity: 0; fill: rgb(0, 157, 255);" transform="matrix(1, 0, -0.6655, 1, 310.890656, 3.796215)"/>
  <rect x="131.631" y="-19.26" width="58.621" height="380.285" style="stroke: rgb(0, 0, 0); fill-rule: nonzero; stroke-opacity: 0; fill: rgb(0, 157, 255);" transform="matrix(1, 0, -0.6655, 1, 444.418488, 4.796036)"/>
  <rect x="131.631" y="-19.26" width="58.621" height="380.285" style="stroke: rgb(0, 0, 0); fill-rule: nonzero; stroke-opacity: 0; fill: rgb(0, 157, 255);" transform="matrix(1, 0, -0.6655, 1, 579.473938, 3.925037)"/>
  <text style="white-space: pre; fill: rgb(51, 51, 51); font-family: Arial, sans-serif; font-size: 17.4px;" x="92.643" y="106.269"> </text>
  <path style="vector-effect: non-scaling-stroke; stroke-width: 16px; fill: rgb(255, 255, 255); stroke-linecap: round; stroke: rgb(34, 0, 255);" d="M 117.065 298.447 L 338.273 157.671" transform="matrix(0.988657, -0.150193, 0.150193, 0.988657, -31.670336, 36.781219)"/>
  <path style="fill: rgb(187, 187, 187); stroke-width: 7px; stroke: rgb(55, 0, 255);" d="M 133.438 229.487 L 409.043 175.904" transform="matrix(0.988657, -0.150193, 0.150193, 0.988657, -27.366674, 43.037651)"/>
  <path style="fill: rgb(255, 255, 255); stroke-linecap: round; stroke: rgb(255, 0, 0); stroke-width: 7px;" d="M 398.397 174.719 L 131.327 134.36" transform="matrix(0.988657, -0.150193, 0.150193, 0.988657, -20.206333, 41.533398)"/>
  <path style="fill: rgb(216, 216, 216); stroke-dashoffset: -17px; stroke: rgb(136, 0, 255); stroke-width: 6px;" d="M 137.151 250.334 L 268.49 204.852"/>
  <path style="fill: rgb(216, 216, 216); fill-opacity: 0; stroke-linejoin: round; vector-effect: non-scaling-stroke; stroke: rgb(0, 0, 0);" d="M 230.702 22.736 L 279.128 324.11"/>
  <path style="fill: rgb(216, 216, 216); fill-opacity: 0; stroke-linejoin: round; stroke: rgb(255, 0, 234); stroke-width: 7px;" d="M 244.448 97.781 L 265.09 209.25"/>
  <path style="fill: rgb(0, 179, 255); stroke: rgb(255, 255, 255); stroke-width: 7px;" d="M 128.393 240.427 L 255.311 104.914" transform="matrix(0.988657, -0.150193, 0.150193, 0.988657, -23.757656, 30.773476)"/>
  <text style="fill: rgb(255, 255, 255); font-family: Arial, sans-serif; font-size: 30.3px; white-space: pre;" x="153.007" y="147.228">A</text>
  <text style="fill: rgb(255, 255, 255); font-family: Arial, sans-serif; font-size: 24.8px; white-space: pre;" x="415.01" y="216.241" bx:origin="6.993 1.143">B</text>
  <text style="fill: rgb(255, 255, 255); font-family: Arial, sans-serif; font-size: 25.2px; white-space: pre;" x="208.284" y="257.922" bx:origin="6.993 1.143">A₁</text>
  <text style="fill: rgb(255, 255, 255); font-family: Arial, sans-serif; font-size: 25.2px; white-space: pre;" x="266.609" y="145.132" bx:origin="6.993 1.143">A₂</text>
  <path style="fill: rgb(216, 216, 216); fill-opacity: 0; stroke: rgb(0, 0, 0); stroke-width: 2px;" d="M 138.529 248.823 L 137.095 234.994 C 137.095 234.994 261.543 195.38 261.751 195.581 C 261.959 195.782 265.113 206.482 264.337 206.482"/>
  <text style="fill: rgb(255, 255, 255); font-family: Arial, sans-serif; font-size: 25.2px; white-space: pre;" transform="matrix(0.658162, 0, 0, 0.615144, 89.330116, 75.644615)" x="163.591" y="209.282" bx:origin="6.993 1.143">A·B</text>
  <path style="fill: rgb(216, 216, 216); stroke: rgb(0, 0, 0); fill-opacity: 0;" d="M 160.029 204.864 C 165.499 202.185 175.519 213.524 178.243 218.138 C 183.224 226.572 183.13 236.833 182.835 236.833"/>
  <text style="fill: rgb(255, 255, 255); font-family: Arial, sans-serif; font-size: 25.2px; white-space: pre;" x="163.591" y="209.282" transform="matrix(0.632471, 0, 0, 0.576115, 70.040352, 83.136383)" bx:origin="6.993 1.143">θ</text>
  <path style="fill: rgb(255, 255, 255); stroke-linecap: round; stroke: rgb(0, 255, 34); stroke-width: 7px;" d="M 111.669 311.786 L 145.809 88.931" transform="matrix(0.988657, -0.150193, 0.150193, 0.988657, -28.632109, 21.608418)"/>
  <path style="fill: rgb(255, 255, 255); stroke-linecap: round; stroke: rgb(255, 0, 0); stroke-width: 7px;" d="M 330.607 329.734 L 130.014 299.474" transform="matrix(0.988657, -0.150193, 0.150193, 0.988657, -44.638824, 38.15966)"/>
  <text style="fill: rgb(255, 255, 255); font-family: Arial, sans-serif; font-size: 24.8px; white-space: pre;" x="329.322" y="282.054" bx:origin="6.993 1.143">X</text>
  <text style="fill: rgb(255, 255, 255); font-family: Arial, sans-serif; font-size: 24.8px; white-space: pre;" x="121.345" y="76.037" bx:origin="6.993 1.143">Y</text>
  <text style="fill: rgb(255, 255, 255); font-family: Arial, sans-serif; font-size: 24.8px; white-space: pre;" x="326.837" y="132.064" bx:origin="6.993 1.143">Z</text>
  <path style="fill: rgb(255, 255, 255); stroke-linecap: round; stroke: rgb(0, 255, 34); stroke-width: 7px;" d="M 392.276 255.019 L 407.516 156.575" transform="matrix(0.988657, -0.150193, 0.150193, 0.988657, -26.373117, 62.395973)"/>
  <path style="fill: rgb(255, 255, 255); stroke-linecap: round; stroke: rgb(34, 0, 255); stroke-width: 7px;" d="M 328.963 309.23 L 404.14 259.996" transform="matrix(0.988657, -0.150193, 0.150193, 0.988657, -38.588963, 58.281906)"/>
  <text style="fill: rgb(255, 255, 255); font-family: Arial, sans-serif; font-size: 38.3px; white-space: pre;" x="518.373" y="46.507" transform="matrix(0.531205, 0, 0, 0.583073, 269.864838, 57.336403)" bx:origin="6.993 1.143">V<tspan x="518.3729858398438" dy="1em">​</tspan>E<tspan x="518.3729858398438" dy="1em">​</tspan>C<tspan x="518.3729858398438" dy="1em">​</tspan>T<tspan x="518.3729858398438" dy="1em">​</tspan>O<tspan x="518.3729858398438" dy="1em">​</tspan>R<tspan x="518.3729858398438" dy="1em">​</tspan><tspan x="518.3729858398438" dy="1em">​</tspan>U<tspan x="518.3729858398438" dy="1em">​</tspan>T<tspan x="518.3729858398438" dy="1em">​</tspan>I<tspan x="518.3729858398438" dy="1em">​</tspan>L<tspan x="518.3729858398438" dy="1em">​</tspan>S</text>
  <text style="fill: rgb(255, 255, 255); font-family: Arial, sans-serif; font-size: 27.7px; white-space: pre;" x="381.109" y="93.106" bx:origin="6.993 1.143">Includes 3D</text>
</svg>