<?xml version="1.0" encoding="utf-8"?>
<svg viewBox="0 21.777 600 300" style="shape-rendering: crispedges;" xmlns="http://www.w3.org/2000/svg" xmlns:bx="https://boxy-svg.com">
  <path d="M -0.026 298.531 L -0.026 -1.469 L 599.974 -1.469 L 599.974 298.531 L -0.026 298.531 Z" style="mix-blend-mode: normal; fill-rule: nonzero; stroke-linejoin: miter; stroke-miterlimit: 10; stroke-dasharray: none; stroke-dashoffset: 0; fill: rgb(115, 162, 255);"/>
  <path d="M 357.766 208.467 L 539.766 216.467 L 466.766 38.467 L 357.766 208.467 Z" style="fill: rgb(70,103,248);"/>
  <path d="M 231.766 324.467 L 354.766 321.467 L 357.766 208.467 L 231.766 324.467 Z" style="fill: rgb(75,121,248);"/>
  <path d="M 357.766 208.467 L 354.766 321.467 L 539.766 216.467 L 357.766 208.467 Z" style="fill: rgb(78,144,246);"/>
  <path d="M 231.766 324.467 L 357.766 208.467 L 316.766 132.467 L 231.766 324.467 Z" style="fill: rgb(66,88,251);"/>
  <path d="M 555.766 330.467 L 631.766 214.467 L 539.766 216.467 L 555.766 330.467 Z" style="fill: rgb(71,164,243);"/>
  <path d="M 354.766 321.467 L 555.766 330.467 L 539.766 216.467 L 354.766 321.467 Z" style="fill: rgb(71,169,242);"/>
  <path d="M 87.766 210.467 L 231.766 324.467 L 316.766 132.467 L 87.766 210.467 Z" style="fill: rgb(63,87,248);"/>
  <path d="M 354.766 321.467 L 367.803 370.467 L 486.966 370.467 L 555.766 330.467 L 354.766 321.467 Z" style="fill: rgb(63,112,246);"/>
  <path d="M 335.166 370.467 L 367.803 370.467 L 354.766 321.467 L 335.166 370.467 Z" style="fill: rgb(46,79,249);"/>
  <path d="M 555.766 330.467 L 681.766 283.467 L 631.766 214.467 L 555.766 330.467 Z" style="fill: rgb(68,163,242);"/>
  <path d="M 600.537 370.467 L 679.536 370.467 L 681.766 283.467 L 555.766 330.467 L 600.537 370.467 Z" style="fill: rgb(58,116,245);"/>
  <path d="M 231.766 324.467 L 254.263 370.467 L 335.166 370.467 L 354.766 321.467 L 231.766 324.467 Z" style="fill: rgb(31,62,250);"/>
  <path d="M 87.766 210.467 L 103.766 322.467 L 231.766 324.467 L 87.766 210.467 Z" style="fill: rgb(69,127,239);"/>
  <path d="M 16.766 341.467 L 103.766 322.467 L 87.766 210.467 L 16.766 341.467 Z" style="fill: rgb(64,135,234);"/>
  <path d="M -28.234 182.467 L 16.766 341.467 L 87.766 210.467 L -28.234 182.467 Z" style="fill: rgb(65,135,232);"/>
  <path d="M -28.234 182.467 L -73.234 336.467 L 16.766 341.467 L -28.234 182.467 Z" style="fill: rgb(64,138,233);"/>
  <rect x="131.631" y="-19.26" width="58.621" height="380.285" style="stroke: rgb(0, 0, 0); fill-rule: nonzero; stroke-opacity: 0; fill: rgb(0, 119, 255);" transform="matrix(1, 0, -0.6655, 1, -89.97345, 0.786396)"/>
  <rect x="131.631" y="-19.26" width="58.621" height="380.285" style="stroke: rgb(0, 0, 0); fill-rule: nonzero; stroke-opacity: 0; fill: rgb(0, 119, 255);" transform="matrix(1, 0, -0.6655, 1, 43.80304, 0.289145)"/>
  <rect x="131.631" y="-19.26" width="58.621" height="380.285" style="stroke: rgb(0, 0, 0); fill-rule: nonzero; stroke-opacity: 0; fill: rgb(0, 119, 255);" transform="matrix(1, 0, -0.6655, 1, 177.330856, 1.288967)"/>
  <rect x="131.631" y="-19.26" width="58.621" height="380.285" style="stroke: rgb(0, 0, 0); fill-rule: nonzero; stroke-opacity: 0; fill: rgb(0, 119, 255);" transform="matrix(1, 0, -0.6655, 1, 311.255859, 1.037689)"/>
  <rect x="131.631" y="-19.26" width="58.621" height="380.285" style="stroke: rgb(0, 0, 0); fill-rule: nonzero; stroke-opacity: 0; fill: rgb(0, 119, 255);" transform="matrix(1, 0, -0.6655, 1, 444.783691, 2.03751)"/>
  <rect x="131.631" y="-19.26" width="58.621" height="380.285" style="stroke: rgb(0, 0, 0); fill-rule: nonzero; stroke-opacity: 0; fill: rgb(0, 119, 255);" transform="matrix(1, 0, -0.6655, 1, 579.839172, 1.16651)"/>
  <text style="white-space: pre; fill: rgb(51, 51, 51); font-family: Arial, sans-serif; font-size: 17.4px;" x="93.008" y="103.51"> </text>
  <path style="fill: rgb(255, 255, 255); stroke-linecap: round; stroke: rgb(34, 0, 255); stroke-width: 8px;" d="M 178.051 278.09 L 399.259 137.314" transform="matrix(0.988657, -0.150193, 0.150193, 0.988657, -27.921076, 45.709972)"/>
  <path style="fill: rgb(255, 255, 255); stroke-linecap: round; stroke: rgb(0, 255, 34); stroke-width: 7px;" d="M 172.655 291.429 L 206.795 68.573" transform="matrix(0.988657, -0.150193, 0.150193, 0.988657, -24.882772, 30.537163)"/>
  <path style="fill: rgb(255, 255, 255); stroke-linecap: round; stroke: rgb(255, 0, 0); stroke-width: 7px;" d="M 391.593 309.377 L 191 279.117" transform="matrix(0.988657, -0.150193, 0.150193, 0.988657, -40.889565, 47.088409)"/>
  <text style="fill: rgb(255, 255, 255); font-family: Arial, sans-serif; font-size: 24.8px; white-space: pre;" x="390.308" y="261.695" bx:origin="6.993 1.143">X</text>
  <text style="fill: rgb(255, 255, 255); font-family: Arial, sans-serif; font-size: 24.8px; white-space: pre;" x="182.331" y="55.678" bx:origin="6.993 1.143">Y</text>
  <text style="fill: rgb(255, 255, 255); font-family: Arial, sans-serif; font-size: 24.8px; white-space: pre;" x="387.823" y="111.705" bx:origin="6.993 1.143">Z</text>
</svg>