<svg xmlns="http://www.w3.org/2000/svg" xmlns:xlink="http://www.w3.org/1999/xlink" width="600" zoomAndPan="magnify" viewBox="0 0 450 225" height="300" preserveAspectRatio="xMidYMid meet" version="1.0"><rect x="-45" width="540" fill="#ffffff" y="-22.5" height="270" fill-opacity="1"/><rect x="-45" width="540" fill="#ffffff" y="-22.5" height="270" fill-opacity="1"/><path stroke-linecap="butt" transform="matrix(0.815929, 0, 0, 0.816667, 28.968148, -34.422454)" fill-opacity="1" fill="#4b9de2" fill-rule="nonzero" stroke-linejoin="miter" d="M 548.503246 180.000737 C 548.503246 348.334627 410.379427 484.798296 240.002302 484.798296 C 69.620389 484.798296 -68.503429 348.334627 -68.503429 180.000737 C -68.503429 11.662063 69.620389 -124.801605 240.002302 -124.801605 C 410.379427 -124.801605 548.503246 11.662063 548.503246 180.000737 Z M 548.503246 180.000737 " stroke="#2d7cc5" stroke-width="20" stroke-opacity="1" stroke-miterlimit="10"/><path stroke-linecap="butt" transform="matrix(0.815929, 0, 0, 0.816667, 28.968148, -34.422454)" fill-opacity="1" fill="#4b9de2" fill-rule="nonzero" stroke-linejoin="miter" d="M 507.503198 180.000737 C 507.503198 325.963769 387.739396 444.28968 240.002302 444.28968 C 92.26042 444.28968 -27.503382 325.963769 -27.503382 180.000737 C -27.503382 34.037704 92.26042 -84.29299 240.002302 -84.29299 C 387.739396 -84.29299 507.503198 34.037704 507.503198 180.000737 Z M 507.503198 180.000737 " stroke="#2d7cc5" stroke-width="20" stroke-opacity="1" stroke-miterlimit="10"/><path stroke-linecap="butt" transform="matrix(0.815929, 0, 0, 0.816667, 28.968148, -34.422454)" fill-opacity="1" fill="#4b9de2" fill-rule="nonzero" stroke-linejoin="miter" d="M 456.004189 180.000737 C 456.004189 297.862681 359.29693 393.411165 240.002302 393.411165 C 120.707674 393.411165 23.995628 297.862681 23.995628 180.000737 C 23.995628 62.138793 120.707674 -33.409691 240.002302 -33.409691 C 359.29693 -33.409691 456.004189 62.138793 456.004189 180.000737 Z M 456.004189 180.000737 " stroke="#2d7cc5" stroke-width="20" stroke-opacity="1" stroke-miterlimit="10"/><path stroke-linecap="butt" transform="matrix(0.815929, 0, 0, 0.816667, 28.968148, -34.422454)" fill-opacity="1" fill="#4b9de2" fill-rule="nonzero" stroke-linejoin="miter" d="M 401.982173 180.000737 C 401.982173 268.388824 329.461304 340.040621 240.002302 340.040621 C 150.538512 340.040621 78.017643 268.388824 78.017643 180.000737 C 78.017643 91.612649 150.538512 19.960853 240.002302 19.960853 C 329.461304 19.960853 401.982173 91.612649 401.982173 180.000737 Z M 401.982173 180.000737 " stroke="#2d7cc5" stroke-width="20" stroke-opacity="1" stroke-miterlimit="10"/><path stroke-linecap="butt" transform="matrix(0.815929, 0, 0, 0.816667, 28.968148, -34.422454)" fill-opacity="1" fill="#4b9de2" fill-rule="nonzero" stroke-linejoin="miter" d="M 344.292942 180.000737 C 344.292942 236.906039 297.600571 283.039656 240.002302 283.039656 C 182.399245 283.039656 135.706874 236.906039 135.706874 180.000737 C 135.706874 123.090652 182.399245 76.961818 240.002302 76.961818 C 297.600571 76.961818 344.292942 123.090652 344.292942 180.000737 Z M 344.292942 180.000737 " stroke="#2d7cc5" stroke-width="20" stroke-opacity="1" stroke-miterlimit="10"/><path stroke-linecap="butt" transform="matrix(0.815929, 0, 0, 0.816667, 28.968148, -34.422454)" fill-opacity="1" fill="#0da57a" fill-rule="nonzero" stroke-linejoin="miter" d="M 280.528388 180.000737 C 280.528388 202.113304 262.383809 220.040603 240.002302 220.040603 C 217.616008 220.040603 199.471428 202.113304 199.471428 180.000737 C 199.471428 157.88817 217.616008 139.960871 240.002302 139.960871 C 262.383809 139.960871 280.528388 157.88817 280.528388 180.000737 Z M 280.528388 180.000737 " stroke="#0fbd8c" stroke-width="20" stroke-opacity="1" stroke-miterlimit="10"/><path stroke-linecap="butt" transform="matrix(0.815929, 0, 0, 0.816667, 28.968148, -34.422454)" fill-opacity="1" fill="#3288d9" fill-rule="nonzero" stroke-linejoin="miter" d="M 359.387892 126.864568 L 359.387892 233.136906 C 359.387892 241.253935 352.785946 247.859485 344.661579 247.859485 L 135.33345 247.859485 C 127.218658 247.859485 120.611924 241.253935 120.611924 233.136906 L 120.611924 126.864568 C 120.611924 118.742756 127.218658 112.141989 135.33345 112.141989 L 344.661579 112.141989 C 352.785946 112.141989 359.387892 118.747539 359.387892 126.864568 Z M 359.387892 126.864568 " stroke="#ffffff" stroke-width="11.5" stroke-opacity="1" stroke-miterlimit="10"/><path stroke-linecap="round" transform="matrix(0.815929, 0, 0, 0.816667, 28.968148, -34.422454)" fill="none" stroke-linejoin="miter" d="M 277.665471 264.667523 L 202.334346 264.332701 " stroke="#ffffff" stroke-width="11.5" stroke-opacity="1" stroke-miterlimit="10"/><path stroke-linecap="butt" transform="matrix(0.815929, 0, 0, 0.816667, 28.968148, -34.422454)" fill-opacity="1" fill="#3288d9" fill-rule="nonzero" stroke-linejoin="miter" d="M 259.214492 132.953536 L 259.214492 179.441107 C 259.214492 182.994998 256.327636 185.884029 252.770533 185.884029 L 161.200248 185.884029 C 157.65272 185.884029 154.761077 182.994998 154.761077 179.441107 L 154.761077 132.953536 C 154.761077 129.399645 157.65272 126.510614 161.200248 126.510614 L 252.770533 126.510614 C 256.327636 126.510614 259.214492 129.404428 259.214492 132.953536 Z M 259.214492 132.953536 " stroke="#ffffff" stroke-width="8" stroke-opacity="1" stroke-miterlimit="10"/><path fill="#ffffff" d="M 290.332031 90.363281 C 291.5625 89.878906 291.480469 90.863281 297.054688 105.34375 C 300.222656 113.820312 302.730469 120.761719 301.808594 121.050781 C 300.460938 121.574219 298.257812 114.546875 295.089844 106.074219 C 290.234375 92.222656 288.871094 90.894531 290.332031 90.363281 Z M 290.332031 90.363281 " fill-opacity="1" fill-rule="nonzero"/><path fill="#ffffff" d="M 295.851562 109.675781 C 293.226562 109.675781 291.097656 107.589844 291.097656 105.019531 C 291.097656 104.792969 289.285156 102.355469 289.421875 101.308594 C 289.539062 100.511719 292.167969 101.222656 292.734375 101.148438 C 294.128906 100.863281 294.300781 100.363281 295.851562 100.363281 C 296.304688 100.363281 296.867188 98.34375 297.597656 98.785156 C 298.945312 99.609375 300.609375 103.351562 300.609375 105.019531 C 300.609375 107.589844 298.480469 109.675781 295.851562 109.675781 Z M 295.851562 109.675781 " fill-opacity="1" fill-rule="nonzero"/><path fill="#ffffff" d="M 302.414062 115.121094 C 301.277344 115.910156 300.074219 116.367188 298.804688 116.488281 C 297.5 116.613281 296.375 116.707031 295.289062 115.800781 C 293.148438 114.019531 292.890625 110.277344 294.660156 108.742188 C 295.074219 108.382812 295.597656 108.039062 295.960938 107.859375 C 296.46875 107.609375 296.511719 107.570312 297.601562 107.296875 C 299.339844 107.027344 300.453125 107.035156 301.78125 108.144531 C 303.925781 109.925781 304.207031 113.003906 302.414062 115.121094 Z M 302.414062 115.121094 " fill-opacity="1" fill-rule="nonzero"/><path fill="#ffffff" d="M 296.042969 122.414062 C 295.308594 120.777344 295.558594 120.070312 295.796875 118.769531 C 296.183594 116.96875 296.917969 116.265625 298.625 115.648438 C 299.261719 115.414062 300.847656 114.960938 301.742188 114.859375 C 302.78125 114.757812 303.691406 115.027344 304.441406 115.566406 C 305.117188 116.050781 305.316406 116.195312 306.261719 117.554688 C 307.015625 118.839844 307.550781 120.839844 306.476562 122.414062 C 305.441406 123.929688 303.308594 124.125 301.136719 124.125 C 298.742188 124.125 296.816406 123.945312 296.042969 122.414062 Z M 296.042969 122.414062 " fill-opacity="1" fill-rule="nonzero"/><path stroke-linecap="butt" transform="matrix(0.815929, 0, 0, 0.816667, 28.968148, -34.422454)" fill-opacity="1" fill="#ffffff" fill-rule="nonzero" stroke-linejoin="miter" d="M 327.168097 170.166552 C 326.670198 170.166552 326.268049 169.764766 326.268049 169.267317 C 326.268049 168.769868 326.670198 168.368082 327.168097 168.368082 C 327.661208 168.368082 328.063357 168.769868 328.063357 169.267317 C 328.063357 169.764766 327.661208 170.166552 327.168097 170.166552 Z M 327.168097 170.166552 " stroke="#ffffff" stroke-width="1.5" stroke-opacity="1" stroke-miterlimit="10"/><path stroke-linecap="butt" transform="matrix(0.815929, 0, 0, 0.816667, 28.968148, -34.422454)" fill-opacity="1" fill="#ffffff" fill-rule="nonzero" stroke-linejoin="miter" d="M 332.00346 168.119358 C 332.00346 168.602457 331.92686 168.731603 331.443324 168.731603 C 331.20395 168.731603 331.112987 168.60724 330.955 168.449396 C 330.797013 168.291551 330.672538 168.100225 330.672538 167.856284 C 330.672538 167.373184 330.648601 167.244039 331.132137 167.244039 C 331.610886 167.244039 332.00346 167.636258 332.00346 168.119358 Z M 332.00346 168.119358 " stroke="#ffffff" stroke-width="1.5" stroke-opacity="1" stroke-miterlimit="10"/><path fill="#ffffff" d="M 231.085938 105.542969 L 231.085938 110.777344 C 231.085938 111.175781 230.761719 111.503906 230.359375 111.503906 L 220.0625 111.503906 C 219.664062 111.503906 219.339844 111.175781 219.339844 110.777344 L 219.339844 105.542969 C 219.339844 105.144531 219.664062 104.820312 220.0625 104.820312 L 230.359375 104.820312 C 230.761719 104.820312 231.085938 105.144531 231.085938 105.542969 Z M 231.085938 105.542969 " fill-opacity="1" fill-rule="nonzero"/><path fill="#ffffff" d="M 213.542969 105.542969 L 213.542969 110.777344 C 213.542969 111.175781 213.21875 111.503906 212.820312 111.503906 L 202.519531 111.503906 C 202.121094 111.503906 201.796875 111.175781 201.796875 110.777344 L 201.796875 105.542969 C 201.796875 105.144531 202.121094 104.820312 202.519531 104.820312 L 212.820312 104.820312 C 213.21875 104.820312 213.542969 105.144531 213.542969 105.542969 Z M 213.542969 105.542969 " fill-opacity="1" fill-rule="nonzero"/><path fill="#ffffff" d="M 214.371094 83.816406 L 214.371094 94.324219 C 214.371094 95.128906 213.71875 95.78125 212.917969 95.78125 L 166.328125 95.78125 C 165.527344 95.78125 164.875 95.128906 164.875 94.324219 L 164.875 83.816406 C 164.875 83.015625 165.527344 82.359375 166.328125 82.359375 L 212.917969 82.359375 C 213.71875 82.359375 214.371094 83.015625 214.371094 83.816406 Z M 214.371094 83.816406 " fill-opacity="1" fill-rule="nonzero"/><path stroke-linecap="round" transform="matrix(0.815929, 0, 0, 0.816667, 28.968148, -34.422454)" fill="none" stroke-linejoin="miter" d="M 303.331194 109.946517 L 303.331194 245.946219 " stroke="#ffffff" stroke-width="6.5" stroke-opacity="1" stroke-miterlimit="10"/></svg>