<svg xmlns="http://www.w3.org/2000/svg" width="600" height="300"><g stroke-miterlimit="10" data-paper-data="{&quot;isPaintingLayer&quot;:true}"><path fill="#ff0a45" d="M0 300V0h600v300z"/><g fill="#fff" fill-opacity=".188" stroke-width="0"><path d="M-12.806 15.524 33.718-31l46.524 46.524-46.524 46.524ZM80.242 15.524 126.765-31l46.524 46.524-46.524 46.524ZM173.29 15.524 219.812-31l46.524 46.524-46.524 46.524ZM266.337 15.524 312.86-31l46.523 46.524-46.523 46.524Z"/><path d="m-12.806 108.571 46.524-46.523 46.524 46.523-46.524 46.524zM80.242 108.571l46.523-46.523 46.524 46.523-46.524 46.524zM173.29 108.571l46.523-46.523 46.524 46.523-46.524 46.524zM266.337 108.571l46.524-46.523 46.523 46.523-46.523 46.524zM359.384 15.524 405.908-31l46.524 46.524-46.524 46.524ZM452.432 15.524 498.956-31l46.523 46.524-46.523 46.524Z"/><path d="m359.384 108.571 46.524-46.523 46.524 46.523-46.524 46.524zM452.432 108.571l46.524-46.523 46.523 46.523-46.523 46.524zM545.48 15.524 592.002-31l46.524 46.524-46.524 46.524ZM545.48 108.571l46.523-46.523 46.524 46.523-46.524 46.524ZM-12.806 201.619l46.524-46.524 46.524 46.524-46.524 46.524zM80.242 201.619l46.523-46.524 46.524 46.524-46.524 46.524zM173.29 201.619l46.523-46.524 46.524 46.524-46.524 46.524zM266.337 201.619l46.524-46.524 46.523 46.524-46.523 46.524zM-12.806 294.666l46.524-46.523 46.524 46.523-46.524 46.524zM80.242 294.666l46.523-46.523 46.524 46.523-46.524 46.524zM173.29 294.666l46.523-46.523 46.524 46.523-46.524 46.524zM266.337 294.666l46.524-46.523 46.523 46.523-46.523 46.524zM359.384 201.619l46.524-46.524 46.524 46.524-46.524 46.524zM452.432 201.619l46.524-46.524 46.523 46.524-46.523 46.524zM359.384 294.666l46.524-46.523 46.524 46.523-46.524 46.524zM452.432 294.666l46.524-46.523 46.523 46.523-46.523 46.524zM545.48 201.619l46.523-46.524 46.524 46.524-46.524 46.524zM545.48 294.666l46.523-46.523 46.524 46.523-46.524 46.524z"/></g><path fill="none" stroke="#000" stroke-opacity=".129" stroke-width="10" d="M195.052 107.8c1.446-20.952 5.69-58.844 6.863-70.585 1.379-13.788 6.959-16.68 18.665-15.957 13.697.848 70.254 3.924 94.329 5.414 15.372.95 16.235 6.53 15.485 17.196-.768 10.935-5.878 93.47-5.878 93.47l6.151 30.723-39.077-32.3s-68.974-6.838-81.71-7.626c-12.52-.775-16.114-1.713-14.828-20.336zM345.155 166.718l-3.205-38.462 21.795 10.898zM361.822 165.436l7.05-17.308 8.975 12.82zM529.166 218.845v-5.111l-5.305.028c-.108 0-.842-.849-.848-1.696-.006-.84.714-1.68.845-1.682l5.308-.095v-5.444c0-.686 1.12-1.583 1.695-1.583.592 0 1.805.897 1.805 1.583v5.444l5.308.085c.72.011 1.704 1.05 1.71 1.582.006.56-.716 1.709-1.713 1.699-2.084-.02-5.305-.018-5.305.19v5c0 1.1-1.213 1.917-1.805 1.917-.574 0-1.695-1.125-1.695-1.917zM138.49 207.667a9 9 0 1 1 18 0 9 9 0 0 1-18 0zM107.49 207.667a9 9 0 1 1 18 0 9 9 0 0 1-18 0zM76.49 207.667a9 9 0 1 1 18 0 9 9 0 0 1-18 0z"/><path fill="none" stroke="#000" stroke-opacity=".129" stroke-width="10" d="M164.726 238.1s10-.55 10-11.233V196.75c0-4.498 4.33-11.25 11.806-11.25h316c6.696 0 10.444 5.592 10.444 10.75v30.883c0 10.58 10.533 10.967 10.533 10.967h83.824l2.067 65.402-615.4-.669 1.333-64.733z"/><path fill="#fff" d="M164.726 238.1s10-.55 10-11.233V196.75c0-4.498 4.33-11.25 11.806-11.25h316c6.696 0 10.444 5.592 10.444 10.75v30.883c0 10.58 10.533 10.967 10.533 10.967h101.824l2.067 65.402-632.4-.669 1.333-64.733z"/><path fill="none" stroke="#de315b" stroke-linecap="round" stroke-width="3.5" d="M484.51 217.167 494.675 207M494.676 217.167 484.51 207" data-paper-data="{&quot;index&quot;:null}"/><path fill="#fff" d="M138.49 207.667a9 9 0 1 1 18 0 9 9 0 0 1-18 0zM107.49 207.667a9 9 0 1 1 18 0 9 9 0 0 1-18 0zM76.49 207.667a9 9 0 1 1 18 0 9 9 0 0 1-18 0z"/><path fill="none" stroke="#fff" stroke-linecap="round" stroke-width="3.5" d="M530.926 204.894v14.378M538.115 212.083h-14.378" data-paper-data="{&quot;index&quot;:null}"/><path fill="#fff" d="M195.052 107.8c1.446-20.952 5.69-58.844 6.863-70.585 1.379-13.788 6.959-16.68 18.665-15.957 13.697.848 70.254 3.924 94.329 5.414 15.372.95 16.235 6.53 15.485 17.196-.768 10.935-5.878 93.47-5.878 93.47l6.151 30.723-39.077-32.3s-68.974-6.838-81.71-7.626c-12.52-.775-16.114-1.713-14.828-20.336z"/><path fill="#ff0a45" d="m251.964 101.737-15.68-55.27 24.008-8.878 2.657 61.092zM274.151 95.342l-3.988-48.912 20.308 7.183-4.979 40.552z"/><path fill="none" stroke="#fff" stroke-width="8" d="M252.23 109.595a7.081 7.081 0 1 1 14.163 0 7.081 7.081 0 0 1-14.163 0zM273.474 103.445a6.522 6.522 0 1 1 13.044 0 6.522 6.522 0 0 1-13.044 0z"/><path fill="#ff0a45" d="M252.23 109.595a7.081 7.081 0 1 1 14.163 0 7.081 7.081 0 0 1-14.163 0z"/><path fill="#ff3868" d="M273.474 103.445a6.522 6.522 0 1 1 13.044 0 6.522 6.522 0 0 1-13.044 0z"/><path fill="#fff" d="m345.155 166.718-3.205-38.462 21.795 10.898zM361.822 165.436l7.05-17.308 8.975 12.82z"/><path fill="#ff3868" d="m251.964 101.737-5.5-19.387 16.485 16.33zM252.23 109.595a7.081 7.081 0 0 1 11.69-5.376c.196.168-10.141 9.803-10.296 9.595a7.05 7.05 0 0 1-1.394-4.22zM274.151 95.342l-.18-1.548 13.12-13.317-1.599 13.688z"/></g></svg>