<svg xmlns="http://www.w3.org/2000/svg" width="600" height="300"><g stroke-miterlimit="10" data-paper-data="{&quot;isPaintingLayer&quot;:true}" style="mix-blend-mode:normal"><path fill="#ff9494" d="M0 300V0h600v300z"/><path fill="#fff" fill-opacity=".733" fill-rule="evenodd" d="M198.231-8.183c-7.803-25.58 120.255 30.398 145.132 49.937 24.877 19.541 15.297 42.405-2.71 33.539-18.008-8.865-27.219 4.095-7.648 19.177 29.252 22.543 9.21 37.108-16.197 26.802-42.162-17.105-121.826-75.618-116.666-87.203 5.16-11.583 77.301 32.14 76.037 12.424-1.263-19.714-71.05-32.073-77.948-54.676zm131.683-.752c3.252-14.883 69.781 12.83 90.495 39.57 23.408 30.226-13.524 48.207-32.843 19.383-22.728-33.913-60.039-48.023-57.652-58.953Zm216.524.78c29.21 28.334 75.604 46.23 54.227 61.867-22.025 16.112-64.266-32.322-61.551-8.33 2.764 24.416 72.414 42.849 43.45 48.884-28.967 6.035-82.07-17.503-117.043-49.49-34.973-31.986-13.85-41.747 13.248-27.16 22.424 12.072 45.258 1.813 21.876-18.405-33.003-28.536-50.364-65.734-30.927-66.69 18.707-.92 45.272 28.815 76.72 59.324zM193.983 82.552c-5.746 28.097-39.416-11.361-52.694-18.71-20.963-11.6-32.224 2.2-8.806 17.15 11.998 7.66 7.618 21.233-13.396 16.11-14.489-3.532-38.946-11.23-67.861-25.908-37.004-18.782-40.428-45.422 3.4-27.99 13.25 5.272 34.786-2.952 14.431-12.71C26.957 10.309-6.933.888-4.793-11.584c2.156-12.546 52.392-6.905 105.825 7.6 53.156 14.43 96.502 69.164 92.95 86.536ZM213.54 97.48c8.654 3.462 10.59 13.351 3.684 17.493-6.906 4.144-19.334 1.383-19.334-5.985 0-7.365 3.224-16.482 15.65-11.508zm349.704 31.422c8.353 19.337-27.118 17.669-44.137 23.217-16.925 5.52 20.744 10.359 20.32 28.215-.373 15.772-25.343 22.376-57.45 19.784-31.514-2.544-42.792-15.075-38.033-25.98 5.725-13.12 37.23 1.521 37.886-4.565 1.186-10.96-42.214-14.622-61.05-27.398-22.534-15.286-2.537-30.13 16.126-21.324 32.627 15.395 57.771 5.147 37.998-2.543-19.776-7.688-32.41-10.837-36.544-22.787-4.136-11.95 13.288-27.522 27.503-14.774 39.51 35.432 92.641 37.185 97.38 48.154zM391.27 95.672c3.699 5.524 13.387 15.11 9.102 18.813-4.286 3.702-18.878 4.173-27.622-5.95-6.744-7.806-6.547-13.433-.202-17.845 8.17-5.68 15.022-.54 18.722 4.983zm-18.332 55.83c16.524 3.95 34.602 17.092 39.641 30.747 9.46 25.625 24.27 36.814 40.754 41.467 25.334 7.15-2.907 32.88-38.327 15.17-7.804-3.902-22.572-14.457-25.686-22.148-5.157-12.744-13.955-6.428-7.963 3.54 17.104 28.45-22.982 21.239-26.182-19.513-1.711-21.78-23.497-21.754-32.6-32.878-8.425-10.301 12.743-25.379 50.363-16.385zm112.093 82.581c10.676-13.65 45.786 6.522 85.687-30.718 28.006-26.138 55.29 2.775 22.676 19.773-18.988 9.896-31.68 24.269-17.017 23.264 14.664-1.003 29.164-10.042 35.024 3.385 5.192 11.897-17.676 27.126-48.53 23.81-16.34-1.757-26.803 10.418-12.083 14.639 39.469 11.31-6.447 29.014-57.955 11.967-33.525-11.097-37.989-33.75-8.492-33.443 29.495.306 63.022-2.474 46.752-7.951-16.27-5.477-60.323-6.495-46.063-24.726zM337.089 278.28c-7.805-15.937-19.785-46.504-7.638-53.993 17.664-10.895 18.9 41.281 71.796 46.05 42.933 3.87 36.077 23.969 24.515 26.642-11.563 2.676-36.526-9.28-30.458 5.396 6.069 14.676-37.16 18.9-58.215-24.095zM21.308 83.707c22.106 3.797 103.599 44.931 90.312 66.077-13.286 21.145-43.213-15.605-49.332-6.744-14.089 20.4 64.15 29.675 67.055 49.005 2.903 19.33-63.538 6.948-93.95-15.974-30.411-22.92-49.711-47.542-23.814-49.426 25.894-1.883-9.56-21.109-18.664-27.137-14.682-9.72-6.872-21.862 28.392-15.801zM250.83 119.93c27.242 23.056 56.698 18.092 56.29 33.813-.528 20.285-27.805 8.61-30.687 16.896-3.65 10.5 53.354 22.104 38.125 39.617-11.236 12.925-37.116 2.409-53.122-.84-6.409-1.3-11.235-1.435-12.904 1.566-7.954 14.304 55.963 10.249 49.896 32.388-7.794 28.466-122.196-24.8-140.102-40.179-17.907-15.38-12.203-38.816 20.123-18.934 32.325 19.881 40.266-.297 18.487-11.31-29.502-14.921-56.53-38.805-51.14-49.485 11.211-22.21 78.98 45.488 101.215 32.455 7.36-4.314-4.96-8.5-9.752-12.871-20.706-18.884 2.314-32.645 13.57-23.116zM34.02 258.578c-26.448 2.582 58.703 28.39 54.833 43.228-3.87 14.838-74.727-8.368-95.057-25.162-32.028-26.453-15.035-37.607 0-38.906 30.547-2.64-28.803-41.096-51.381-52.71-22.579-11.612 17.418-16.343 55.695-2.152 24.327 9.024 87.732 42.583 94.575 78.58 3.198 16.833-32.217-5.458-58.665-2.878zm152.034-10.043c66.875 33.426 114.812 30.11 129.031 45.96 15.224 16.975-24.39 20.366-91.265 0-37.41-11.392-27.852 2.097-13.899 8.319 9.703 4.327 10.518 15.87-20.837 11.848-31.061-3.982-56.641-17.02-64.92-22.526-33.3-22.147-19.276-34.173 12.971-18.52 11.867 5.762 26.634-1.753 14.302-7.392-27.535-12.59-55.826-51.4-27.142-45.244 21.993 4.72 41.1 17.228 61.76 27.555z" data-paper-data="{&quot;index&quot;:null}" opacity=".1"/><g fill="#fff" stroke="#000" stroke-opacity=".129" stroke-width="10"><path d="M-9.5 258V42h39.593v216zM48.44 258V147h39.594v111zM106.381 258V81h39.593v177zM164.322 258V119h39.593v139zM222.263 258V55h39.593v203zM280.204 258v-77h39.592v77zM338.144 258V87h39.593v171zM396.085 258V60h39.593v198zM454.026 258V98h39.593v160zM511.966 258V66h39.593v192zM569.907 258V79H609.5v179z"/></g><g fill="#fff" stroke-width="0"><path d="M-9.5 258V42h39.593v216zM48.44 258V147h39.594v111zM106.381 258V81h39.593v177zM164.322 258V119h39.593v139zM222.263 258V55h39.593v203zM280.204 258v-77h39.592v77zM338.144 258V87h39.593v171zM396.085 258V60h39.593v198zM454.026 258V98h39.593v160zM511.966 258V66h39.593v192zM569.907 258V79H609.5v179z"/></g><path fill="#322a2a" fill-opacity=".227" d="M306.07 200.556c-13.87-13.87-13.87-36.36 0-50.23 13.871-13.871 36.36-13.871 50.23 0 13.872 13.87 13.872 36.36 0 50.23-13.87 13.87-36.359 13.87-50.23 0z"/><path fill="#ffc3c3" stroke="#000" stroke-opacity=".129" stroke-width="10" d="M299.316 207.704c-17.673-17.674-17.673-46.328 0-64.002 17.674-17.673 46.328-17.673 64.001 0 14.107 14.107 16.954 35.21 8.54 52.14-.3.485 37.474 40.766 37.474 40.766l-16.898 17.309s-40.71-37.968-40.454-37.937c-17.017 8.735-38.41 5.976-52.663-8.276zm55.283-8.916c13.124-13.124 13.124-34.402 0-47.526a33.466 33.466 0 0 0-20.296-9.664c-9.716-1.002-19.785 2.22-27.23 9.664-13.123 13.124-13.123 34.402 0 47.526 13.124 13.124 34.402 13.124 47.526 0z"/><path fill="#747474" d="M299.316 207.704c-17.673-17.674-17.673-46.328 0-64.002 17.674-17.673 46.328-17.673 64.001 0 14.107 14.107 16.954 35.21 8.54 52.14-.3.485 37.474 40.766 37.474 40.766l-16.898 17.309s-40.71-37.968-40.454-37.937c-17.017 8.735-38.41 5.976-52.663-8.276zm55.283-8.916c13.124-13.124 13.124-34.402 0-47.526a33.466 33.466 0 0 0-20.296-9.664c-9.716-1.002-19.785 2.22-27.23 9.664-13.123 13.124-13.123 34.402 0 47.526 13.124 13.124 34.402 13.124 47.526 0z"/></g></svg>