<svg xmlns="http://www.w3.org/2000/svg" width="600" height="300"><path fill="#ff9494" d="M0 300V0h600v300z" style="fill-rule:nonzero;stroke-linejoin:miter;stroke-miterlimit:10;stroke-dasharray:none;stroke-dashoffset:0"/><path d="M89.62 229.784v-90.36M129.692 104.82v124.964M149.728 70.216v159.568M109.656 82.288v147.496M169.765 122.525v107.259M189.8 134.596v95.188M209.837 169.2v60.584M229.873 104.82v124.964M249.91 134.596v95.188M269.946 70.216v159.568M289.982 122.525v107.259M310.018 139.425v90.359M350.09 104.82v124.964M370.127 70.216v159.568M330.054 82.288v147.496M390.163 122.525v107.259M410.2 134.596v95.188M430.235 169.2v60.584M450.272 104.82v124.964M470.308 134.596v95.188M490.344 70.216v159.568M510.38 122.525v107.259" style="fill:none;fill-rule:nonzero;stroke:#fff;stroke-width:13.3135;stroke-linecap:round;stroke-linejoin:miter;stroke-miterlimit:10;stroke-dasharray:none;stroke-dashoffset:0" transform="matrix(1.28437 0 0 1.28437 -85.31 -42.655)"/><g style="fill-rule:nonzero;stroke-linejoin:miter;stroke-miterlimit:10;stroke-dasharray:none;stroke-dashoffset:0"><path fill="#595959" fill-opacity=".5" stroke="#4e4e4e" stroke-width="4" d="M332.651 179.307c-12.171-21.307-4.766-48.448 16.541-60.62 21.308-12.171 48.448-4.766 60.62 16.542 12.172 21.307 4.766 48.447-16.541 60.619-21.308 12.172-48.448 4.766-60.62-16.541z"/><path fill="#fff" fill-opacity=".705" d="M362.998 129.726c2.995-3.411 10.2-3.855 16.84-2.906 6.653.951 13.756 8.37 11.937 12.54-1.323 3.031-5.745-3.956-13.12-6.012-6.468-1.802-18.198-.728-15.657-3.622zM365.846 139.028c1.839-2.094 6.261-2.366 10.336-1.783 4.084.583 8.444 5.137 7.327 7.696-.811 1.86-3.526-2.428-8.053-3.69-3.97-1.106-11.17-.447-9.61-2.223z"/><path fill="gray" stroke="#4e4e4e" stroke-width="4" d="m456.976 231.206-55.458-39.331 11.126-15.689 55.458 39.331z"/><path fill="#fff" d="m410.624 195.53-5.906-4.188 8.45-11.915 5.906 4.189z"/></g></svg>