<svg xmlns="http://www.w3.org/2000/svg" width="600" height="300"><g stroke-miterlimit="10" data-paper-data="{&quot;isPaintingLayer&quot;:true}"><path fill="#0fbd8c" d="M0 300V0h600v300z"/><g fill="#fff" fill-opacity=".2" stroke-width="0"><path d="M-41.48 13.308C-39.84-7.062-22-22.246-1.63-20.608 18.739-18.97 33.923-1.13 32.284 19.24 30.646 39.61 12.805 54.794-7.564 53.156c-20.37-1.638-35.554-19.48-33.915-39.848z"/><path d="M-35.547-60.456c1.639-20.37 19.48-35.554 39.849-33.916 20.369 1.638 35.553 19.479 33.915 39.848C36.58-34.154 18.738-18.97-1.63-20.608c-20.37-1.638-35.554-19.48-33.916-39.848z"/><path d="M38.217-54.524c1.638-20.369 19.48-35.554 39.849-33.915 20.369 1.638 35.553 19.479 33.915 39.848-1.638 20.37-19.479 35.554-39.848 33.916-20.37-1.639-35.554-19.48-33.916-39.849z"/><path d="M111.981-48.59c1.638-20.37 19.48-35.555 39.848-33.916 20.37 1.638 35.554 19.479 33.916 39.848-1.638 20.37-19.479 35.554-39.848 33.915-20.37-1.638-35.554-19.479-33.916-39.848zM29.318 56.122c3.277-40.738 38.958-71.108 79.697-67.83 40.738 3.276 71.107 38.957 67.83 79.696-3.276 40.738-38.957 71.108-79.696 67.83-40.738-3.276-71.108-38.957-67.831-79.696zM-47.412 87.071c1.638-20.369 19.479-35.553 39.848-33.915 20.37 1.638 35.554 19.479 33.916 39.848-1.639 20.37-19.48 35.554-39.849 33.916-20.369-1.639-35.554-19.48-33.915-39.849zM-85.777 102.546c.819-10.185 9.74-17.777 19.924-16.958 10.184.82 17.777 9.74 16.958 19.924-.82 10.185-9.74 17.777-19.925 16.958-10.184-.819-17.777-9.74-16.957-19.924z"/><path d="M-82.811 65.664c.82-10.185 9.74-17.777 19.924-16.958 10.185.82 17.777 9.74 16.958 19.924-.82 10.185-9.74 17.777-19.924 16.958-10.185-.819-17.777-9.74-16.958-19.924z"/><path d="M-79.845 28.782c.82-10.185 9.74-17.777 19.925-16.958 10.184.82 17.776 9.74 16.957 19.924-.819 10.185-9.74 17.777-19.924 16.958-10.185-.819-17.777-9.74-16.958-19.924z"/><path d="M-76.878-8.1c.819-10.185 9.74-17.777 19.924-16.958 10.185.82 17.777 9.74 16.958 19.925-.82 10.184-9.74 17.776-19.924 16.957-10.185-.819-17.777-9.74-16.958-19.924z"/><path d="M-73.912-44.982c.82-10.184 9.74-17.777 19.924-16.958 10.185.82 17.777 9.74 16.958 19.925-.819 10.184-9.74 17.776-19.924 16.957-10.185-.819-17.777-9.74-16.958-19.924z"/><path d="M-70.945-81.864c.819-10.184 9.739-17.777 19.924-16.958 10.184.82 17.777 9.74 16.957 19.925-.819 10.184-9.739 17.777-19.924 16.957-10.184-.819-17.777-9.74-16.957-19.924z"/><path d="M-67.98-118.746c.82-10.184 9.74-17.777 19.925-16.958 10.185.82 17.777 9.74 16.958 19.925-.82 10.184-9.74 17.777-19.924 16.957-10.185-.819-17.777-9.74-16.958-19.924z"/><path d="M-31.097-115.78c.819-10.184 9.74-17.776 19.924-16.957 10.185.819 17.777 9.74 16.958 19.924-.82 10.185-9.74 17.777-19.924 16.958-10.185-.82-17.777-9.74-16.958-19.924z"/><path d="M5.785-112.813c.819-10.185 9.74-17.777 19.924-16.958 10.185.82 17.777 9.74 16.958 19.924-.82 10.185-9.74 17.777-19.924 16.958-10.185-.819-17.777-9.74-16.958-19.924zM42.667-109.847c.819-10.184 9.74-17.777 19.924-16.957 10.185.819 17.777 9.74 16.958 19.924-.82 10.184-9.74 17.777-19.924 16.958-10.185-.82-17.777-9.74-16.958-19.925z"/><path d="M79.549-106.88c.819-10.185 9.74-17.777 19.924-16.958 10.185.82 17.777 9.74 16.958 19.924-.82 10.185-9.74 17.777-19.924 16.958-10.185-.82-17.777-9.74-16.958-19.924z"/><path d="M116.43-103.914c.82-10.185 9.74-17.777 19.925-16.958 10.185.82 17.777 9.74 16.958 19.925-.82 10.184-9.74 17.776-19.924 16.957-10.185-.819-17.777-9.74-16.958-19.924z"/><path d="M153.313-100.947c.819-10.185 9.74-17.777 19.924-16.958 10.184.819 17.777 9.74 16.958 19.924-.82 10.185-9.74 17.777-19.925 16.958-10.184-.82-17.776-9.74-16.957-19.924z"/></g><g fill="#fff" fill-opacity=".2" stroke-width="0"><path d="M-62.244 271.481c1.638-20.37 19.479-35.554 39.848-33.915 20.37 1.638 35.554 19.479 33.916 39.848-1.639 20.37-19.48 35.554-39.849 33.916-20.369-1.639-35.553-19.48-33.915-39.849z"/><path d="M-56.311 197.717c1.638-20.369 19.479-35.554 39.848-33.915 20.37 1.638 35.554 19.479 33.916 39.848-1.639 20.37-19.48 35.554-39.849 33.916-20.37-1.639-35.554-19.48-33.915-39.849z"/><path d="M17.453 203.65c1.638-20.37 19.479-35.554 39.848-33.916 20.37 1.639 35.554 19.48 33.915 39.849-1.638 20.37-19.479 35.554-39.848 33.915-20.37-1.638-35.554-19.479-33.915-39.848z"/><path d="M91.216 209.583c1.639-20.37 19.48-35.554 39.849-33.916 20.37 1.639 35.554 19.48 33.915 39.849-1.638 20.369-19.479 35.553-39.848 33.915-20.37-1.638-35.554-19.479-33.916-39.848zM8.553 314.296c3.277-40.739 38.958-71.108 79.697-67.831 40.739 3.276 71.108 38.958 67.831 79.696-3.276 40.74-38.958 71.108-79.696 67.832-40.74-3.277-71.108-38.958-67.832-79.697zM-68.177 345.245c1.638-20.37 19.48-35.554 39.848-33.915 20.37 1.638 35.554 19.479 33.916 39.848-1.638 20.37-19.479 35.554-39.848 33.915-20.37-1.638-35.554-19.479-33.916-39.848zM-106.542 360.72c.82-10.185 9.74-17.777 19.924-16.958 10.185.82 17.777 9.74 16.958 19.924-.82 10.185-9.74 17.777-19.924 16.958-10.185-.82-17.777-9.74-16.958-19.924zM-103.576 323.838c.82-10.185 9.74-17.777 19.924-16.958 10.185.82 17.777 9.74 16.958 19.924-.819 10.185-9.74 17.777-19.924 16.958-10.185-.82-17.777-9.74-16.958-19.924z"/><path d="M-100.61 286.956c.82-10.185 9.74-17.777 19.925-16.958 10.185.82 17.777 9.74 16.958 19.924-.82 10.185-9.74 17.777-19.925 16.958-10.184-.82-17.776-9.74-16.957-19.924zM-97.643 250.074c.82-10.185 9.74-17.777 19.924-16.958 10.185.82 17.777 9.74 16.958 19.924-.82 10.185-9.74 17.777-19.924 16.958-10.185-.82-17.777-9.74-16.958-19.924z"/><path d="M-94.677 213.192c.82-10.185 9.74-17.777 19.925-16.958 10.184.82 17.777 9.74 16.957 19.924-.819 10.185-9.74 17.777-19.924 16.958-10.184-.82-17.777-9.74-16.958-19.924z"/><path d="M-91.71 176.31c.819-10.185 9.74-17.777 19.924-16.958 10.185.82 17.777 9.74 16.958 19.924-.82 10.185-9.74 17.777-19.924 16.958-10.185-.819-17.777-9.74-16.958-19.924z"/><path d="M-88.744 139.428c.82-10.185 9.74-17.777 19.924-16.958 10.185.82 17.777 9.74 16.958 19.924-.819 10.185-9.74 17.777-19.924 16.958-10.185-.819-17.777-9.74-16.958-19.924z"/><path d="M-51.862 142.394c.82-10.184 9.74-17.777 19.924-16.957 10.185.819 17.777 9.74 16.958 19.924-.819 10.184-9.74 17.777-19.924 16.958-10.185-.82-17.777-9.74-16.958-19.925z"/><path d="M-14.98 145.36c.82-10.184 9.74-17.776 19.924-16.957 10.185.82 17.777 9.74 16.958 19.924-.819 10.185-9.74 17.777-19.924 16.958-10.185-.82-17.777-9.74-16.958-19.924z"/><path d="M21.902 148.327c.82-10.185 9.74-17.777 19.924-16.958 10.185.82 17.777 9.74 16.958 19.925-.82 10.184-9.74 17.776-19.924 16.957-10.185-.819-17.777-9.74-16.958-19.924z"/><path d="M58.784 151.294c.82-10.185 9.74-17.777 19.924-16.958 10.185.819 17.777 9.74 16.958 19.924-.82 10.185-9.74 17.777-19.924 16.958-10.185-.82-17.777-9.74-16.958-19.924z"/><path d="M95.666 154.26c.82-10.185 9.74-17.777 19.924-16.958 10.185.82 17.777 9.74 16.958 19.924-.82 10.185-9.74 17.777-19.924 16.958-10.185-.82-17.777-9.74-16.958-19.924zM132.548 157.226c.82-10.184 9.74-17.777 19.924-16.958 10.185.82 17.777 9.74 16.958 19.925-.82 10.184-9.74 17.777-19.924 16.957-10.185-.819-17.777-9.739-16.958-19.924z"/></g><g fill="#fff" fill-opacity=".2" stroke-width="0"><path d="M216.694 34.072c1.639-20.37 19.48-35.554 39.849-33.915 20.369 1.638 35.553 19.479 33.915 39.848-1.638 20.37-19.479 35.554-39.848 33.916-20.37-1.639-35.554-19.48-33.916-39.849z"/><path d="M222.627-39.692c1.638-20.37 19.479-35.554 39.848-33.915 20.37 1.638 35.554 19.479 33.916 39.848-1.638 20.37-19.48 35.554-39.848 33.916-20.37-1.639-35.554-19.48-33.916-39.849z"/><path d="M296.39-33.759c1.64-20.37 19.48-35.554 39.85-33.916 20.369 1.639 35.553 19.48 33.915 39.849-1.638 20.37-19.48 35.554-39.848 33.915-20.37-1.638-35.554-19.479-33.916-39.848z"/><path d="M370.155-27.826c1.638-20.37 19.479-35.554 39.848-33.916 20.37 1.638 35.554 19.48 33.916 39.849-1.639 20.369-19.48 35.553-39.849 33.915-20.369-1.638-35.553-19.479-33.915-39.848zM287.492 76.887c3.276-40.739 38.958-71.108 79.696-67.831 40.74 3.276 71.108 38.958 67.832 79.696-3.277 40.74-38.958 71.108-79.697 67.832-40.739-3.277-71.108-38.958-67.831-79.697zM210.761 107.836c1.639-20.37 19.48-35.554 39.849-33.915 20.37 1.638 35.554 19.479 33.915 39.848-1.638 20.37-19.479 35.554-39.848 33.915-20.37-1.638-35.554-19.479-33.916-39.848zM172.396 123.31c.82-10.184 9.74-17.776 19.925-16.957 10.184.82 17.776 9.74 16.957 19.924-.819 10.185-9.74 17.777-19.924 16.958-10.185-.82-17.777-9.74-16.958-19.924zM175.363 86.429c.819-10.185 9.74-17.777 19.924-16.958 10.185.82 17.777 9.74 16.958 19.924-.82 10.185-9.74 17.777-19.924 16.958-10.185-.82-17.777-9.74-16.958-19.924zM178.33 49.547c.818-10.185 9.739-17.777 19.923-16.958 10.185.82 17.777 9.74 16.958 19.924-.82 10.185-9.74 17.777-19.924 16.958-10.185-.82-17.777-9.74-16.958-19.924z"/><path d="M181.295 12.665c.82-10.185 9.74-17.777 19.925-16.958 10.184.82 17.777 9.74 16.957 19.924-.819 10.185-9.739 17.777-19.924 16.958-10.184-.82-17.777-9.74-16.958-19.924zM184.262-24.217c.819-10.185 9.74-17.777 19.924-16.958 10.185.82 17.777 9.74 16.958 19.924-.82 10.185-9.74 17.777-19.924 16.958-10.185-.82-17.777-9.74-16.958-19.924zM187.228-61.1c.82-10.184 9.74-17.776 19.924-16.957 10.185.82 17.777 9.74 16.958 19.924-.819 10.185-9.74 17.777-19.924 16.958-10.185-.82-17.777-9.74-16.958-19.924z"/><path d="M190.195-97.981c.819-10.185 9.74-17.777 19.924-16.958 10.184.82 17.777 9.74 16.958 19.924-.82 10.185-9.74 17.777-19.925 16.958-10.184-.819-17.777-9.74-16.957-19.924z"/><path d="M227.077-95.015c.819-10.184 9.74-17.777 19.924-16.957 10.184.819 17.777 9.739 16.958 19.924-.82 10.184-9.74 17.777-19.925 16.957-10.184-.819-17.777-9.739-16.957-19.924z"/><path d="M263.959-92.048c.819-10.185 9.739-17.777 19.924-16.958 10.184.819 17.777 9.74 16.958 19.924-.82 10.185-9.74 17.777-19.925 16.958-10.184-.82-17.777-9.74-16.957-19.924z"/><path d="M300.84-89.082c.82-10.185 9.74-17.777 19.925-16.958 10.184.82 17.777 9.74 16.957 19.924-.819 10.185-9.739 17.777-19.924 16.958-10.184-.819-17.777-9.74-16.957-19.924z"/><path d="M337.722-86.116c.82-10.184 9.74-17.776 19.925-16.957 10.184.819 17.777 9.74 16.957 19.924-.819 10.185-9.74 17.777-19.924 16.958-10.184-.82-17.777-9.74-16.958-19.925z"/><path d="M374.604-83.15c.82-10.184 9.74-17.776 19.925-16.957 10.184.82 17.777 9.74 16.957 19.924-.819 10.185-9.74 17.777-19.924 16.958-10.184-.82-17.777-9.74-16.958-19.924z"/><path d="M411.486-80.183c.82-10.184 9.74-17.777 19.925-16.958 10.184.82 17.776 9.74 16.957 19.925-.819 10.184-9.74 17.777-19.924 16.957-10.185-.819-17.777-9.74-16.958-19.924z"/></g><g fill="#fff" fill-opacity=".2" stroke-width="0"><path d="M195.93 292.246c1.638-20.37 19.479-35.554 39.848-33.916 20.37 1.639 35.554 19.48 33.915 39.849-1.638 20.369-19.479 35.554-39.848 33.915-20.37-1.638-35.554-19.479-33.915-39.848z"/><path d="M201.862 218.482c1.639-20.37 19.48-35.554 39.849-33.916 20.369 1.639 35.554 19.48 33.915 39.849-1.638 20.37-19.479 35.554-39.848 33.915-20.37-1.638-35.554-19.479-33.916-39.848z"/><path d="M275.626 224.415c1.639-20.37 19.48-35.554 39.849-33.916 20.369 1.638 35.553 19.48 33.915 39.849-1.638 20.369-19.479 35.553-39.848 33.915-20.37-1.638-35.554-19.479-33.916-39.848z"/><path d="M349.39 230.348c1.638-20.37 19.48-35.554 39.849-33.916 20.369 1.638 35.553 19.479 33.915 39.848-1.638 20.37-19.479 35.554-39.848 33.916-20.37-1.638-35.554-19.48-33.916-39.848zM266.727 335.06c3.277-40.738 38.958-71.107 79.697-67.83 40.738 3.276 71.108 38.957 67.831 79.696-3.277 40.739-38.958 71.108-79.697 67.831-40.738-3.276-71.107-38.958-67.83-79.696zM189.997 366.01c1.638-20.37 19.479-35.554 39.848-33.916 20.37 1.639 35.554 19.48 33.916 39.849-1.639 20.369-19.48 35.553-39.849 33.915-20.369-1.638-35.553-19.479-33.915-39.848zM151.632 381.484c.819-10.184 9.74-17.776 19.924-16.957 10.184.819 17.777 9.74 16.958 19.924-.82 10.184-9.74 17.777-19.925 16.958-10.184-.82-17.777-9.74-16.957-19.925zM154.598 344.602c.82-10.184 9.74-17.776 19.924-16.957 10.185.819 17.777 9.74 16.958 19.924-.82 10.185-9.74 17.777-19.924 16.958-10.185-.82-17.777-9.74-16.958-19.925z"/><path d="M157.564 307.72c.82-10.184 9.74-17.776 19.925-16.957 10.184.819 17.777 9.74 16.957 19.924-.819 10.185-9.74 17.777-19.924 16.958-10.184-.82-17.777-9.74-16.958-19.925z"/><path d="M160.53 270.839c.82-10.185 9.74-17.777 19.925-16.958 10.185.819 17.777 9.74 16.958 19.924-.82 10.185-9.74 17.777-19.924 16.958-10.185-.82-17.777-9.74-16.958-19.924z"/><path d="M163.497 233.957c.82-10.185 9.74-17.777 19.924-16.958 10.185.819 17.777 9.74 16.958 19.924-.819 10.185-9.74 17.777-19.924 16.958-10.185-.82-17.777-9.74-16.958-19.924z"/><path d="M166.464 197.075c.819-10.185 9.74-17.777 19.924-16.958 10.184.819 17.777 9.74 16.958 19.924-.82 10.185-9.74 17.777-19.925 16.958-10.184-.82-17.777-9.74-16.957-19.924z"/><path d="M169.43 160.193c.82-10.185 9.74-17.777 19.924-16.958 10.185.819 17.777 9.74 16.958 19.924-.82 10.185-9.74 17.777-19.924 16.958-10.185-.82-17.777-9.74-16.958-19.924z"/><path d="M206.312 163.16c.819-10.186 9.74-17.778 19.924-16.959 10.185.82 17.777 9.74 16.958 19.924-.82 10.185-9.74 17.777-19.924 16.958-10.185-.819-17.777-9.74-16.958-19.924z"/><path d="M243.194 166.125c.819-10.184 9.74-17.777 19.924-16.957 10.185.819 17.777 9.74 16.958 19.924-.82 10.184-9.74 17.777-19.924 16.958-10.185-.82-17.777-9.74-16.958-19.925z"/><path d="M280.076 169.092c.819-10.185 9.74-17.777 19.924-16.958 10.185.82 17.777 9.74 16.958 19.924-.82 10.185-9.74 17.777-19.924 16.958-10.185-.82-17.777-9.74-16.958-19.924zM316.958 172.058c.819-10.184 9.74-17.777 19.924-16.958 10.185.82 17.777 9.74 16.958 19.925-.82 10.184-9.74 17.777-19.924 16.957-10.185-.819-17.777-9.74-16.958-19.924z"/><path d="M353.84 175.025c.819-10.185 9.74-17.777 19.924-16.958 10.185.819 17.777 9.74 16.958 19.924-.82 10.185-9.74 17.777-19.924 16.958-10.185-.82-17.777-9.74-16.958-19.924z"/><path d="M390.722 177.991c.819-10.185 9.74-17.777 19.924-16.958 10.185.82 17.777 9.74 16.958 19.924-.82 10.185-9.74 17.777-19.924 16.958-10.185-.819-17.777-9.74-16.958-19.924z"/></g><g fill="#fff" fill-opacity=".2" stroke-width="0"><path d="M474.868 54.837c1.638-20.37 19.479-35.554 39.848-33.916 20.37 1.639 35.554 19.48 33.916 39.849-1.638 20.369-19.48 35.553-39.848 33.915-20.37-1.638-35.554-19.479-33.916-39.848z"/><path d="M480.8-18.927c1.639-20.37 19.48-35.554 39.85-33.916 20.368 1.639 35.553 19.48 33.915 39.849-1.639 20.369-19.48 35.554-39.849 33.915-20.369-1.638-35.554-19.479-33.915-39.848z"/><path d="M554.565-12.994c1.638-20.37 19.479-35.554 39.848-33.916 20.37 1.638 35.554 19.48 33.916 39.848-1.639 20.37-19.48 35.554-39.849 33.916-20.37-1.638-35.554-19.479-33.915-39.848z"/><path d="M628.329-7.062c1.638-20.369 19.479-35.553 39.848-33.915 20.37 1.638 35.554 19.479 33.915 39.848-1.638 20.37-19.479 35.554-39.848 33.916-20.37-1.638-35.554-19.48-33.915-39.849zM545.666 97.652c3.276-40.74 38.957-71.108 79.696-67.832 40.739 3.277 71.108 38.958 67.831 79.697-3.276 40.739-38.958 71.108-79.696 67.831-40.739-3.276-71.108-38.958-67.831-79.696zM468.935 128.6c1.638-20.369 19.48-35.553 39.849-33.915 20.369 1.638 35.553 19.48 33.915 39.849-1.638 20.369-19.479 35.553-39.848 33.915-20.37-1.638-35.554-19.479-33.916-39.848zM430.57 144.075c.82-10.184 9.74-17.777 19.924-16.957 10.185.819 17.777 9.74 16.958 19.924-.82 10.184-9.74 17.777-19.924 16.958-10.185-.82-17.777-9.74-16.958-19.925z"/><path d="M433.536 107.193c.82-10.184 9.74-17.777 19.925-16.957 10.184.819 17.777 9.74 16.957 19.924-.819 10.184-9.74 17.777-19.924 16.958-10.184-.82-17.777-9.74-16.958-19.925z"/><path d="M436.503 70.311c.819-10.184 9.74-17.776 19.924-16.957 10.185.819 17.777 9.74 16.958 19.924-.82 10.185-9.74 17.777-19.924 16.958-10.185-.82-17.777-9.74-16.958-19.925z"/><path d="M439.47 33.43c.818-10.185 9.739-17.777 19.923-16.958 10.185.819 17.777 9.74 16.958 19.924-.819 10.185-9.74 17.777-19.924 16.958-10.185-.82-17.777-9.74-16.958-19.925z"/><path d="M442.436-3.452c.819-10.185 9.74-17.777 19.924-16.958 10.184.819 17.777 9.74 16.958 19.924-.82 10.185-9.74 17.777-19.925 16.958-10.184-.82-17.777-9.74-16.957-19.924zM445.402-40.334c.82-10.185 9.74-17.777 19.924-16.958 10.185.819 17.777 9.74 16.958 19.924-.82 10.185-9.74 17.777-19.924 16.958-10.185-.82-17.777-9.74-16.958-19.924z"/><path d="M448.368-77.216c.82-10.185 9.74-17.777 19.925-16.958 10.184.819 17.776 9.74 16.957 19.924-.819 10.185-9.74 17.777-19.924 16.958-10.185-.82-17.777-9.74-16.958-19.924z"/><path d="M485.25-74.25c.82-10.185 9.74-17.777 19.924-16.958 10.185.82 17.777 9.74 16.958 19.924-.819 10.185-9.74 17.777-19.924 16.958-10.185-.819-17.777-9.74-16.958-19.924z"/><path d="M522.132-71.284c.82-10.184 9.74-17.777 19.924-16.957 10.185.819 17.777 9.74 16.958 19.924-.819 10.184-9.74 17.777-19.924 16.958-10.185-.82-17.777-9.74-16.958-19.925zM559.014-68.317c.82-10.185 9.74-17.777 19.924-16.958 10.185.82 17.777 9.74 16.958 19.924-.819 10.185-9.74 17.777-19.924 16.958-10.185-.82-17.777-9.74-16.958-19.924z"/><path d="M595.896-65.35c.82-10.186 9.74-17.778 19.924-16.959 10.185.82 17.777 9.74 16.958 19.925-.819 10.184-9.74 17.776-19.924 16.957-10.185-.819-17.777-9.74-16.958-19.924zM632.778-62.384c.82-10.185 9.74-17.777 19.924-16.958 10.185.819 17.777 9.74 16.958 19.924-.819 10.185-9.74 17.777-19.924 16.958-10.185-.82-17.777-9.74-16.958-19.924z"/><path d="M669.66-59.418c.82-10.185 9.74-17.777 19.924-16.958 10.185.82 17.777 9.74 16.958 19.924-.82 10.185-9.74 17.777-19.924 16.958-10.185-.82-17.777-9.74-16.958-19.924z"/></g><g fill="#fff" fill-opacity=".2" stroke-width="0"><path d="M454.103 313.01c1.639-20.369 19.48-35.553 39.849-33.915 20.369 1.638 35.553 19.479 33.915 39.848-1.638 20.37-19.479 35.554-39.848 33.916-20.37-1.638-35.554-19.48-33.916-39.848z"/><path d="M460.036 239.247c1.638-20.37 19.48-35.554 39.848-33.916 20.37 1.638 35.554 19.48 33.916 39.848-1.638 20.37-19.479 35.554-39.848 33.916-20.37-1.638-35.554-19.479-33.916-39.848z"/><path d="M533.8 245.18c1.638-20.37 19.479-35.554 39.848-33.916 20.37 1.638 35.554 19.479 33.916 39.848-1.638 20.37-19.48 35.554-39.848 33.916-20.37-1.639-35.554-19.48-33.916-39.849z"/><path d="M607.564 251.112c1.638-20.37 19.479-35.554 39.848-33.915 20.37 1.638 35.554 19.479 33.916 39.848-1.638 20.37-19.48 35.554-39.849 33.916-20.369-1.639-35.553-19.48-33.915-39.849zM524.9 355.825c3.277-40.738 38.959-71.107 79.698-67.83 40.738 3.276 71.107 38.957 67.83 79.696-3.276 40.739-38.957 71.108-79.696 67.831-40.739-3.277-71.108-38.958-67.831-79.697zM448.17 386.775c1.639-20.37 19.48-35.554 39.849-33.916 20.37 1.638 35.554 19.479 33.915 39.848-1.638 20.37-19.479 35.554-39.848 33.916-20.37-1.638-35.554-19.48-33.915-39.848zM409.805 402.25c.82-10.186 9.74-17.778 19.925-16.959 10.184.82 17.776 9.74 16.957 19.924-.819 10.185-9.74 17.777-19.924 16.958-10.185-.819-17.777-9.74-16.958-19.924z"/><path d="M412.772 365.367c.819-10.185 9.74-17.777 19.924-16.958 10.185.82 17.777 9.74 16.958 19.925-.82 10.184-9.74 17.776-19.924 16.957-10.185-.819-17.777-9.74-16.958-19.924z"/><path d="M415.738 328.485c.82-10.185 9.74-17.777 19.924-16.958 10.185.82 17.777 9.74 16.958 19.925-.819 10.184-9.74 17.776-19.924 16.957-10.185-.819-17.777-9.74-16.958-19.924z"/><path d="M418.705 291.603c.819-10.184 9.739-17.777 19.924-16.958 10.184.82 17.777 9.74 16.957 19.925-.819 10.184-9.739 17.777-19.924 16.957-10.184-.819-17.777-9.74-16.957-19.924z"/><path d="M421.67 254.721c.82-10.184 9.74-17.777 19.925-16.958 10.185.82 17.777 9.74 16.958 19.925-.82 10.184-9.74 17.777-19.924 16.957-10.185-.819-17.777-9.74-16.958-19.924z"/><path d="M424.637 217.84c.82-10.185 9.74-17.778 19.924-16.958 10.185.819 17.777 9.739 16.958 19.924-.819 10.184-9.74 17.777-19.924 16.957-10.185-.819-17.777-9.739-16.958-19.924zM427.604 180.957c.819-10.184 9.74-17.777 19.924-16.957 10.185.819 17.777 9.739 16.958 19.924-.82 10.184-9.74 17.777-19.925 16.957-10.184-.819-17.776-9.739-16.957-19.924z"/><path d="M464.486 183.924c.819-10.185 9.74-17.777 19.924-16.958 10.184.82 17.777 9.74 16.958 19.924-.82 10.185-9.74 17.777-19.925 16.958-10.184-.82-17.777-9.74-16.957-19.924z"/><path d="M501.368 186.89c.819-10.185 9.74-17.777 19.924-16.958 10.184.82 17.777 9.74 16.958 19.924-.82 10.185-9.74 17.777-19.925 16.958-10.184-.819-17.777-9.74-16.957-19.924z"/><path d="M538.25 189.856c.819-10.184 9.739-17.776 19.924-16.957 10.184.819 17.777 9.74 16.958 19.924-.82 10.185-9.74 17.777-19.925 16.958-10.184-.82-17.777-9.74-16.957-19.924z"/><path d="M575.132 192.823c.819-10.185 9.739-17.777 19.924-16.958 10.184.82 17.777 9.74 16.957 19.924-.819 10.185-9.739 17.777-19.924 16.958-10.184-.82-17.777-9.74-16.957-19.924z"/><path d="M612.013 195.79c.82-10.185 9.74-17.778 19.925-16.959 10.184.82 17.777 9.74 16.957 19.925-.819 10.184-9.739 17.777-19.924 16.957-10.184-.819-17.777-9.74-16.958-19.924z"/><path d="M648.895 198.756c.82-10.185 9.74-17.777 19.925-16.958 10.184.819 17.777 9.74 16.957 19.924-.819 10.185-9.74 17.777-19.924 16.958-10.184-.82-17.777-9.74-16.958-19.924z"/></g><path fill="none" stroke="#000" stroke-opacity=".15" stroke-width="25" d="M41.45 150c0-47.49 38.498-85.99 85.989-85.99 47.49 0 85.99 38.5 85.99 85.99 0 47.49-38.5 85.99-85.99 85.99-47.491 0-85.99-38.5-85.99-85.99zM378.775 150c0-47.49 38.498-85.99 85.99-85.99 47.49 0 85.989 38.5 85.989 85.99 0 47.49-38.5 85.99-85.99 85.99-47.49 0-85.99-38.5-85.99-85.99z"/><path fill="none" stroke="#000" stroke-linecap="round" stroke-opacity=".15" stroke-width="35" d="M345.274 202.154s-76.137-56.278-81.66-62.113c-1.467-1.55-7.126-7.687-7.018-20.59.137-16.476 12.934-24.67 27.25-24.325 15.573.375 27.44 10.96 27.08 24.698-.54 20.529-12.299 31.84-30.2 30.801-15.807-.917-26.825 17.678-25.951 29.139 1.243 16.302 12.335 25.184 22.583 25.12 43.082-.27 59.221-51.17 59.221-51.17"/><path fill="#ff8c19" stroke="#db6e00" stroke-width="10" d="M41.45 150c0-47.49 38.498-85.99 85.989-85.99 47.49 0 85.99 38.5 85.99 85.99 0 47.49-38.5 85.99-85.99 85.99-47.491 0-85.99-38.5-85.99-85.99z"/><path fill="#ff661a" stroke="#e64d00" stroke-width="10" d="M378.775 150c0-47.49 38.498-85.99 85.99-85.99 47.49 0 85.989 38.5 85.989 85.99 0 47.49-38.5 85.99-85.99 85.99-47.49 0-85.99-38.5-85.99-85.99z"/><path fill="none" stroke="#fff" stroke-linecap="round" stroke-width="20" d="M456.254 149.696h52.882M456.254 113.226h52.882M422.824 113.834h-2.432M420.392 150.304h2.432M509.136 186.166h-52.882M420.392 186.774h2.432M87.302 197.59s-18.419-16.176-16.752-49.592c1.39-27.859 19.592-46.93 19.592-46.93"/><path fill="none" stroke="#fff" stroke-linecap="round" stroke-width="20" d="M166.91 102.41s17.051 19.99 16.801 47.879c-.3 33.452-19.641 48.643-19.641 48.643" data-paper-data="{&quot;index&quot;:null}"/><g fill="none" stroke="#fff" stroke-linecap="round" stroke-width="20"><path d="m138.975 172.07-24.553-41.6"/><path d="m148.331 130.47-42.546 39.44" data-paper-data="{&quot;index&quot;:null}"/></g><path fill="none" stroke="#fff" stroke-linecap="round" stroke-width="20" d="M345.274 202.154s-76.137-56.278-81.66-62.113c-1.467-1.55-7.126-7.687-7.018-20.59.137-16.476 12.934-24.67 27.25-24.325 15.573.375 27.44 10.96 27.08 24.698-.54 20.529-12.299 31.84-30.2 30.801-15.807-.917-26.825 17.678-25.951 29.139 1.243 16.302 12.335 25.184 22.583 25.12 43.082-.27 59.221-51.17 59.221-51.17"/><g fill="none" stroke-linecap="round"><path stroke="#000" stroke-opacity=".15" stroke-width="45" d="M170.07 214.31h43.358M191.75 192.632v43.357"/><path stroke="#fff" stroke-width="25" d="M170.07 214.31h43.358M191.75 192.632v43.357"/></g><g fill="none" stroke-linecap="round"><path stroke="#000" stroke-opacity=".15" stroke-width="45" d="M507.396 214.31h43.358M529.075 192.632v43.357"/><path stroke="#fff" stroke-width="25" d="M507.396 214.31h43.358M529.075 192.632v43.357"/></g></g></svg>