<?xml version="1.0" encoding="UTF-8" standalone="no"?>
<!-- Created with Inkscape (http://www.inkscape.org/) -->

<svg
   width="1680"
   height="840"
   viewBox="0 0 444.5 222.25"
   version="1.1"
   id="svg5"
   xml:space="preserve"
   inkscape:version="1.2.2 (732a01da63, 2022-12-09)"
   sodipodi:docname="prettyblocks.svg"
   xmlns:inkscape="http://www.inkscape.org/namespaces/inkscape"
   xmlns:sodipodi="http://sodipodi.sourceforge.net/DTD/sodipodi-0.dtd"
   xmlns="http://www.w3.org/2000/svg"
   xmlns:svg="http://www.w3.org/2000/svg"><sodipodi:namedview
     id="namedview7"
     pagecolor="#ffffff"
     bordercolor="#000000"
     borderopacity="0.25"
     inkscape:showpageshadow="2"
     inkscape:pageopacity="0.0"
     inkscape:pagecheckerboard="0"
     inkscape:deskcolor="#d1d1d1"
     inkscape:document-units="px"
     showgrid="false"
     inkscape:zoom="0.2302855"
     inkscape:cx="534.11962"
     inkscape:cy="395.16167"
     inkscape:window-width="1366"
     inkscape:window-height="697"
     inkscape:window-x="-8"
     inkscape:window-y="-8"
     inkscape:window-maximized="1"
     inkscape:current-layer="layer1" /><defs
     id="defs2" /><g
     inkscape:label="Layer 1"
     inkscape:groupmode="layer"
     id="layer1"><rect
       style="fill:#0071b0;stroke-width:0.211402;stroke-linecap:round;stroke-linejoin:round;fill-opacity:1"
       id="rect286"
       width="475.08514"
       height="254.48935"
       x="-14.936171"
       y="-13.787233" /><circle
       style="fill:none;fill-opacity:1;stroke:#002d46;stroke-width:7.10859;stroke-linecap:round;stroke-linejoin:round;stroke-dasharray:none;stroke-opacity:1"
       id="path1778-5-8"
       cx="225.76595"
       cy="108.57446"
       r="46.279297" /><g
       id="g855"
       inkscape:label="circles"
       style="stroke:#006095;stroke-opacity:1"><circle
         style="fill:none;fill-opacity:1;stroke:#006095;stroke-width:15.7948;stroke-linecap:round;stroke-linejoin:round;stroke-dasharray:none;stroke-opacity:1"
         id="path1778"
         cx="227.84251"
         cy="109.91476"
         r="102.82979" /><circle
         style="fill:none;fill-opacity:1;stroke:#006095;stroke-width:11.7795;stroke-linecap:round;stroke-linejoin:round;stroke-dasharray:none;stroke-opacity:1"
         id="path1778-5"
         cx="228.06383"
         cy="110.87235"
         r="76.688522" /><circle
         style="fill:none;fill-opacity:1;stroke:#006095;stroke-width:23.2117;stroke-linecap:round;stroke-linejoin:round;stroke-dasharray:none;stroke-opacity:1"
         id="path1778-8"
         cx="232.35228"
         cy="108.86436"
         r="151.11627" /><circle
         style="fill:none;fill-opacity:1;stroke:#006095;stroke-width:30.6865;stroke-linecap:round;stroke-linejoin:round;stroke-dasharray:none;stroke-opacity:1"
         id="path1778-8-9"
         cx="231.13364"
         cy="108.45815"
         r="199.77998" /><circle
         style="fill:none;fill-opacity:1;stroke:#006095;stroke-width:37.3241;stroke-linecap:round;stroke-linejoin:round;stroke-dasharray:none;stroke-opacity:1"
         id="path1778-8-9-2"
         cx="230.36172"
         cy="108.57449"
         r="242.9931" /></g><g
       id="g859"
       style="stroke:#005585;stroke-opacity:0.46478873;stroke-width:8.6995;stroke-dasharray:none;stroke-linecap:round;stroke-linejoin:round;stroke-dashoffset:0"><path
         class="blocklyPath blocklyBlockBackground"
         stroke="#774dcb"
         fill="#9966ff"
         fill-opacity="1"
         d="m 109.16765,67.57497 a 8.5566536,8.5566536 0 0 1 8.55665,-8.556653 h 17.11331 c 4.27832,0 6.41749,2.139163 8.55665,4.278326 l 8.55665,8.556654 c 2.13917,2.139163 4.27833,4.278327 8.55666,4.278327 h 25.66996 c 4.27833,0 6.41749,-2.139164 8.55665,-4.278327 l 8.55666,-8.556654 c 2.13916,-2.139163 4.27832,-4.278326 8.55665,-4.278326 h 126.55725 a 8.5566536,8.5566536 0 0 1 8.55665,8.556653 v 85.56654 a 8.5566536,8.5566536 0 0 1 -8.55665,8.55665 H 211.84749 c -4.27833,0 -6.41749,2.13916 -8.55665,4.27833 l -8.55666,8.55665 c -2.13916,2.13916 -4.27832,4.27833 -8.55665,4.27833 h -25.66996 c -4.27833,0 -6.41749,-2.13917 -8.55666,-4.27833 l -8.55665,-8.55665 c -2.13916,-2.13917 -4.27833,-4.27833 -8.55665,-4.27833 H 117.7243 a 8.5566536,8.5566536 0 0 1 -8.55665,-8.55665 z"
         id="path6109"
         style="fill:#ffffff;fill-opacity:1;stroke:#005585;stroke-width:8.6995;stroke-dasharray:none;stroke-opacity:0.46478873;stroke-linecap:round;stroke-linejoin:round;stroke-dashoffset:0" /><path
         id="path8371"
         style="fill:#ffffff;stroke:#005585;stroke-width:8.6995;stroke-linecap:round;stroke-linejoin:round;stroke-opacity:0.46478873;stroke-dasharray:none;stroke-dashoffset:0"
         d="m 367.87697,43.182775 c -4.23106,-1.620673 -10.17794,-1.845454 -14.28123,-2.360638 -5.63548,-0.707561 -11.11915,-0.442448 -15.80645,1.146244 a 20.106382,20.106382 0 0 0 -9.73804,-7.751518 20.106382,20.106382 0 0 0 -13.78273,-0.09195 c -2.50462,-3.73361 -6.12524,-7.071521 -10.34955,-9.900796 -5.23585,-3.506769 -13.2626,-10.330409 -18.48062,-7.705448 -4.72034,2.374589 -7.48791,15.117725 -9.48287,20.457917 -1.65488,4.429828 -5.85262,15.338854 -4.69851,19.578024 1.77517,6.520355 10.18408,8.086402 17.45145,8.385654 5.62475,0.231613 10.81593,-0.01847 15.23934,-1.277566 a 20.106382,20.106382 0 0 0 10.03081,8.224428 20.106382,20.106382 0 0 0 14.51649,-0.178418 c 2.4824,3.428419 5.92321,6.661584 9.89014,9.829573 5.68354,4.538891 13.05913,8.869544 18.67455,5.110134 3.65084,-2.444162 7.63358,-13.432956 9.28846,-17.862784 1.99496,-5.340191 8.26047,-16.777136 6.25321,-21.664987 -0.76275,-1.857356 -2.50818,-3.088951 -4.72445,-3.937873 z" /></g></g></svg>
