<?xml version="1.0" encoding="UTF-8" standalone="no"?>
<!-- Created with Inkscape (http://www.inkscape.org/) -->

<svg
   width="600mm"
   height="300mm"
   viewBox="0 0 600 300"
   version="1.1"
   id="svg1"
   sodipodi:docname="gpusb3.svg"
   inkscape:version="1.3.2 (091e20e, 2023-11-25, custom)"
   xmlns:inkscape="http://www.inkscape.org/namespaces/inkscape"
   xmlns:sodipodi="http://sodipodi.sourceforge.net/DTD/sodipodi-0.dtd"
   xmlns:xlink="http://www.w3.org/1999/xlink"
   xmlns="http://www.w3.org/2000/svg"
   xmlns:svg="http://www.w3.org/2000/svg">
  <sodipodi:namedview
     id="namedview1"
     pagecolor="#ffffff"
     bordercolor="#999999"
     borderopacity="1"
     inkscape:showpageshadow="2"
     inkscape:pageopacity="0"
     inkscape:pagecheckerboard="0"
     inkscape:deskcolor="#d1d1d1"
     inkscape:document-units="px"
     inkscape:zoom="0.25858552"
     inkscape:cx="1819.5141"
     inkscape:cy="-9.6679814"
     inkscape:window-width="1920"
     inkscape:window-height="1017"
     inkscape:window-x="3832"
     inkscape:window-y="-8"
     inkscape:window-maximized="1"
     inkscape:current-layer="layer1" />
  <defs
     id="defs1">
    <linearGradient
       id="linearGradient36"
       inkscape:collect="always">
      <stop
         style="stop-color:#3fef15;stop-opacity:1;"
         offset="0"
         id="stop36" />
      <stop
         style="stop-color:#303030;stop-opacity:1;"
         offset="1"
         id="stop37" />
    </linearGradient>
    <rect
       x="545.27416"
       y="931.99342"
       width="630.35239"
       height="212.69559"
       id="rect35" />
    <rect
       x="355.78172"
       y="916.52465"
       width="591.68047"
       height="266.83629"
       id="rect34" />
    <linearGradient
       id="linearGradient33"
       inkscape:collect="always">
      <stop
         style="stop-color:#222222;stop-opacity:1;"
         offset="0"
         id="stop33" />
      <stop
         style="stop-color:#303030;stop-opacity:1;"
         offset="1"
         id="stop34" />
    </linearGradient>
    <linearGradient
       id="linearGradient26"
       inkscape:collect="always">
      <stop
         style="stop-color:#3fef15;stop-opacity:1;"
         offset="0"
         id="stop26" />
      <stop
         style="stop-color:#303030;stop-opacity:1;"
         offset="1"
         id="stop27" />
    </linearGradient>
    <linearGradient
       inkscape:collect="always"
       xlink:href="#linearGradient26"
       id="linearGradient27"
       x1="57.699757"
       y1="152.66016"
       x2="103.86416"
       y2="161.44823"
       gradientUnits="userSpaceOnUse"
       gradientTransform="translate(82.367173,-16.371115)" />
    <linearGradient
       inkscape:collect="always"
       xlink:href="#linearGradient33"
       id="linearGradient34"
       x1="146.31685"
       y1="146.82845"
       x2="135.3175"
       y2="126.81219"
       gradientUnits="userSpaceOnUse"
       gradientTransform="translate(82.367173,-16.371115)" />
    <linearGradient
       inkscape:collect="always"
       xlink:href="#linearGradient36"
       id="linearGradient37"
       x1="191.86658"
       y1="1.9958873"
       x2="195.52802"
       y2="117.93179"
       gradientUnits="userSpaceOnUse"
       gradientTransform="translate(82.367173,-16.371115)" />
  </defs>
  <g
     inkscape:label="Layer 1"
     inkscape:groupmode="layer"
     id="layer1">
    <rect
       style="fill:#1c7507;fill-opacity:1;stroke:#000000;stroke-width:0;stroke-dasharray:none;stroke-opacity:1"
       id="rect37"
       width="635.23993"
       height="371.15955"
       x="-18.811207"
       y="-24.59927" />
    <rect
       style="fill:#111111;fill-opacity:1;stroke:#000000;stroke-width:0;stroke-dasharray:none;stroke-opacity:1"
       id="rect24"
       width="29.482946"
       height="24.237514"
       x="192.88301"
       y="117.1161" />
    <path
       style="fill:#1d1d1d;fill-opacity:1;stroke:#000000;stroke-width:0;stroke-dasharray:none;stroke-opacity:1"
       d="m 148.56815,110.17509 c 0,0 -2.73066,-21.999215 3.61754,-23.786215 9.36514,-2.63627 45.21924,3.74586 45.21924,3.74586 l -9.40561,29.217705 z"
       id="path23"
       sodipodi:nodetypes="csccc" />
    <path
       style="fill:#191919;fill-opacity:1;stroke:#a0a42b;stroke-width:0"
       d="m 131.93976,172.08884 c 0,0 13.00023,3.62397 14.53485,1.85231 1.57876,-1.82263 1.15881,-34.79056 1.15881,-34.79056 l -12.70352,-2.1474 c -2.65175,-4.92789 -7.21531,34.36794 -2.99014,35.08565 z"
       id="path9"
       sodipodi:nodetypes="csccc" />
    <path
       style="fill:#191919;fill-opacity:1;stroke:#000000;stroke-width:0;stroke-dasharray:none;stroke-opacity:1"
       d="m 429.27015,213.55988 c 16.06301,-11.39525 13.50225,-37.80329 13.50225,-37.80329 l -40.97238,1.08526 c 0,0 -8.84629,35.63277 1.16398,37.07979 z"
       id="path24"
       sodipodi:nodetypes="cccc" />
    <ellipse
       style="fill:#272727;fill-opacity:1;stroke:#a0a42b;stroke-width:0"
       id="path10"
       cx="148.01555"
       cy="134.23933"
       rx="4.951519"
       ry="20.939829"
       transform="matrix(0.99308392,0.11740671,-0.09691655,0.99529251,0,0)" />
    <ellipse
       style="fill:#279e0b;fill-opacity:1;stroke:#a0a42b;stroke-width:0"
       id="path10-6"
       cx="148.44907"
       cy="135.78017"
       rx="3.7617588"
       ry="15.908368"
       transform="matrix(0.99308392,0.11740671,-0.09691655,0.99529251,0,0)" />
    <ellipse
       style="fill:#1a8002;fill-opacity:1;stroke:#a0a42b;stroke-width:0"
       id="path10-6-9"
       cx="148.5518"
       cy="135.644"
       rx="3.2328956"
       ry="13.671821"
       transform="matrix(0.99308392,0.11740671,-0.09691655,0.99529251,0,0)" />
    <ellipse
       style="fill:#1c7507;fill-opacity:1;stroke:#a0a42b;stroke-width:0"
       id="path10-6-9-8"
       cx="149.2011"
       cy="147.89336"
       rx="2.1486337"
       ry="6.381526"
       transform="matrix(0.99936441,0.03564802,-0.09232062,0.99572933,0,0)" />
    <path
       d="m 216.85405,101.90951 c -10.96469,2.04882 -17.26885,4.7761 -16.55506,8.33335 0.84089,4.19068 1.75494,8.44043 2.70061,12.67364 11.66832,-12.66303 19.72799,-20.99407 19.72799,-20.99407 0,0 -3.60081,-0.011 -5.87354,-0.0129 z"
       style="fill:#ff0000;stroke:#a0a42b;stroke-width:0"
       id="path5"
       sodipodi:nodetypes="ssccss" />
    <path
       d="m 135.27876,130.93967 c 12.24907,18.03031 7.50126,42.24818 7.50126,42.24818 l 40.87848,13.74701 c 3.60302,-22.36591 13.11648,-63.79689 18.63468,-63.24373 0.22374,-0.24312 0.48525,-0.5346 0.70642,-0.77463 -0.94567,-4.23321 -1.85972,-8.48296 -2.70061,-12.67364 -0.71379,-3.55725 5.59037,-6.28453 16.55506,-8.33335 -13.80715,-0.0115 -55.98063,10.10435 -68.30043,7.56248 -10.6424,-2.19578 -16.28671,17.03432 -13.27486,21.46768 z"
       style="fill:#303030;stroke:#a0a42b;stroke-width:0;fill-opacity:1"
       id="path4"
       sodipodi:nodetypes="sccccscss" />
    <path
       d="m 151.88024,109.56538 c -1.26261,-0.0566 -2.39518,-0.16923 -3.33571,-0.36329 -10.64239,-2.19578 -16.28701,17.03407 -13.27516,21.46743 12.24907,18.03029 7.50135,42.24858 7.50135,42.24858 l 33.11862,10.46332 32.18746,-78.20322 z"
       style="fill:url(#linearGradient27);fill-opacity:1;stroke:#000000;stroke-width:0"
       id="path26"
       sodipodi:nodetypes="ccscccc" />
    <path
       style="fill:#191919;fill-opacity:1;stroke:#a0a42b;stroke-width:0"
       d="m 188.92698,199.16508 32.78329,6.67117 c 12.89841,-7.44138 21.34348,-48.11328 17.72594,-60.41292 -3.61753,-12.29963 -30.02558,-18.0877 -30.02558,-18.0877 z"
       id="path8"
       sodipodi:nodetypes="ccscc" />
    <ellipse
       style="fill:#272727;fill-opacity:1;stroke:#a0a42b;stroke-width:0"
       id="path7"
       cx="234.92416"
       cy="105.56489"
       rx="23.152252"
       ry="37.441532"
       transform="rotate(15.134765)" />
    <ellipse
       style="fill:#279e0b;fill-opacity:1;stroke:#a0a42b;stroke-width:0"
       id="path7-9"
       cx="233.61426"
       cy="106.12632"
       rx="14.344298"
       ry="23.19742"
       transform="rotate(15.134765)" />
    <ellipse
       style="fill:#1a8002;fill-opacity:1;stroke:#a0a42b;stroke-width:0"
       id="path7-9-8"
       cx="233.23341"
       cy="106.16369"
       rx="12.462745"
       ry="20.154594"
       transform="rotate(15.134765)" />
    <ellipse
       style="fill:#1c7507;fill-opacity:1;stroke:#a0a42b;stroke-width:0"
       id="path7-9-8-2"
       cx="233.06229"
       cy="106.55772"
       rx="4.7544432"
       ry="7.6888261"
       transform="rotate(15.134765)" />
    <path
       d="m 216.85405,101.90951 c 2.27273,0.002 5.87354,0.0129 5.87354,0.0129 -20.05751,1.06973 -35.44202,6.27245 -20.69201,21.77196 1.61271,-0.0336 4.34916,0.19357 5.89085,0.52022 6.96386,1.00479 16.5227,41.27296 10.64845,58.70753 0.10586,0.35806 0.53536,1.84175 0.53536,1.84175 0.72351,28.94028 45.58068,26.76994 45.58068,26.76994 h 160.61883 c 0,0 12.30003,-5.06462 23.87612,-47.02804 0,0 -10.12935,-43.41021 -28.94053,-54.26282 -15.72728,-9.07344 -147.47366,-18.781965 -203.39129,-8.33346 z"
       style="fill:url(#linearGradient34);fill-opacity:1;stroke:#a0a42b;stroke-width:0"
       id="path6"
       sodipodi:nodetypes="sccccccccsss" />
    <path
       style="fill:#e0e0e0;fill-opacity:1;stroke:#a0a42b;stroke-width:0"
       d="m 293.14528,160.64156 c 0,0 4.60437,12.78994 39.90459,14.83632 35.30021,2.0464 79.29759,-16.37111 61.90327,-14.32472 -17.39429,2.04639 -101.80786,-0.5116 -101.80786,-0.5116 z"
       id="path11" />
    <path
       style="fill:#a0a0a0;fill-opacity:1;stroke:#a0a42b;stroke-width:0"
       d="m 308.42925,171.28119 66.06001,-0.40768 4.60438,-1.1511 -74.21359,0.17586 z"
       id="path12"
       sodipodi:nodetypes="ccccc" />
    <path
       style="fill:url(#linearGradient37);fill-opacity:1;stroke:#a0a42b;stroke-width:0"
       d="m 173.91222,108.32804 c 0,0 21.33283,-45.847442 24.46227,-46.464994 10.29239,-2.031059 129.27251,-4.454533 170.87422,2.057039 10.41998,1.630954 23.50336,40.896365 23.50336,40.896365"
       id="path13"
       sodipodi:nodetypes="cssc" />
    <path
       style="fill:none;fill-opacity:1;stroke:#000000;stroke-width:1.36824;stroke-dasharray:none;stroke-opacity:1"
       d="m 212.46882,101.66507 c 0,0 3.29282,-35.075026 14.2689,-34.163985 10.97606,0.911039 145.98172,-1.36656 149.27454,3.644159 3.29279,5.010719 15.36651,33.708456 15.36651,33.708456"
       id="path14" />
    <path
       style="fill:#efefef;fill-opacity:1;stroke:none;stroke-width:0.518416;stroke-dasharray:none;stroke-opacity:1"
       d="m 384.69384,88.537535 c 0,0 -10.50011,-3.61754 -31.11142,-4.7028 -20.61132,-1.085267 -35.77814,6.14981 -43.556,7.59683 -7.77785,1.44701 -71.55628,-5.78807 -83.61195,-7.59683 -12.05568,-1.808775 -11.18068,1.76354 -11.18068,1.76354 l -2.77086,16.098055 c 0,0 31.06283,-2.667935 105.34135,2.03486 74.27854,4.7028 73.50075,2.89403 73.50075,2.89403 z"
       id="path15"
       sodipodi:nodetypes="csssccscc" />
    <path
       style="fill:none;fill-opacity:1;stroke:#000000;stroke-width:0.51862;stroke-dasharray:none;stroke-opacity:1"
       d="m 214.94185,85.736915 c 0,0 -0.58487,-3.610932 11.50233,-1.80546 12.08719,1.80546 76.03235,9.02734 83.83055,7.58297 7.79819,-1.44438 23.00466,-8.666252 43.66986,-7.58297 20.6652,1.08328 31.19276,4.69422 31.19276,4.69422"
       id="path15-2"
       sodipodi:nodetypes="csssc" />
    <path
       d="m 279.01751,89.754335 a 10.57727,7.4307746 5.4979642 0 0 -4.13353,5.01662 10.57727,7.4307746 5.4979642 0 0 4.58834,6.892315 c 3.7914,0.13602 7.84885,0.30513 12.06725,0.49544 a 10.57727,7.4307746 5.4979642 0 0 4.37953,-5.152325 10.57727,7.4307746 5.4979642 0 0 -2.94174,-5.91821 c -4.45222,-0.39381 -9.11876,-0.83633 -13.95985,-1.33384 z"
       style="fill:#5783ad;fill-opacity:1;stroke:#000000;stroke-width:0.0977256;stroke-dasharray:none;stroke-opacity:1"
       id="path17" />
    <path
       d="m 350.41523,105.38003 a 12.259054,9.811845 0 0 0 4.71605,-7.668035 12.259054,9.811845 0 0 0 -12.25948,-9.81181 12.259054,9.811845 0 0 0 -12.25894,9.81181 12.259054,9.811845 0 0 0 3.57882,6.758175 c 5.88339,0.34143 11.46896,0.65967 16.22355,0.90986 z"
       style="fill:#5783ad;fill-opacity:1;stroke:#000000;stroke-width:0.0971678"
       id="path19" />
    <ellipse
       style="fill:#00162b;fill-opacity:1;stroke:#000000;stroke-width:0;stroke-dasharray:none;stroke-opacity:1"
       id="path20"
       cx="342.92047"
       cy="96.948326"
       rx="5.154994"
       ry="4.4314861" />
    <ellipse
       style="fill:#e2e6ea;fill-opacity:1;stroke:#000000;stroke-width:0;stroke-dasharray:none;stroke-opacity:1"
       id="path21"
       cx="344.5928"
       cy="92.359306"
       rx="0.83134568"
       ry="0.62350929" />
    <ellipse
       style="fill:#00162b;fill-opacity:1;stroke:#000000;stroke-width:0;stroke-dasharray:none;stroke-opacity:1"
       id="path20-4"
       cx="285.8602"
       cy="95.766747"
       rx="5.154994"
       ry="4.4314861" />
    <ellipse
       style="fill:#e2e6ea;fill-opacity:1;stroke:#000000;stroke-width:0;stroke-dasharray:none;stroke-opacity:1"
       id="path21-2"
       cx="287.53253"
       cy="91.177727"
       rx="0.83134568"
       ry="0.62350929" />
    <path
       style="fill:#bcdeff;fill-opacity:1;stroke:#000000;stroke-width:0;stroke-dasharray:none;stroke-opacity:1"
       d="m 199.18422,103.11363 c 0,0 6.86562,-33.545109 1.54389,-38.506396 -3.01316,-2.80908 -3.24671,2.021003 -5.57616,6.226945 -1.7395,3.140768 -14.20683,36.333671 -14.20683,36.333671 z"
       id="path22"
       sodipodi:nodetypes="csscc" />
    <path
       style="fill:#eaeaea;fill-opacity:1;stroke:#000000;stroke-width:0;stroke-dasharray:none;stroke-opacity:1"
       d="m 241.80511,122.05232 c -3.92258,6.65131 -2.5582,11.42663 0.17054,11.59718 2.72874,0.17054 32.23333,6.82186 33.76826,5.62804 1.53493,-1.19382 1.49354,-6.42728 -2.82363,-8.61513 -2.61729,-1.32637 -31.11517,-8.61009 -31.11517,-8.61009 z"
       id="path27"
       sodipodi:nodetypes="csssc" />
    <path
       d="m 251.40199,124.47249 c -6.32466,-1.71458 -9.63864,-2.38438 -9.63864,-2.38438 -3.92256,6.65132 -2.51555,11.38398 0.2132,11.55452 0.78574,0.0491 3.892,0.65666 7.81102,1.43845 0.97099,-3.48439 1.49503,-7.18931 1.61442,-10.60859 z"
       style="fill:#34d10e;fill-opacity:1;stroke:#000000;stroke-width:0"
       id="path29"
       sodipodi:nodetypes="ccscc" />
    <path
       style="fill:#e3e3e3;fill-opacity:1;stroke:#000000;stroke-width:0;stroke-dasharray:none;stroke-opacity:1"
       d="m 404.56891,145.69465 c 0,0 22.66095,-0.47168 24.92702,-2.12255 2.2661,-1.65087 -1.14187,-10.77102 -3.45362,-10.90917 -4.83621,-0.28901 -25.78059,3.28613 -26.31387,5.68556 -0.41741,1.87809 4.84047,7.34616 4.84047,7.34616 z"
       id="path30"
       sodipodi:nodetypes="csssc" />
    <path
       d="m 423.08824,144.75086 c 3.19299,-0.30223 5.72775,-0.68982 6.40826,-1.18559 2.2661,-1.65086 -1.14224,-10.7713 -3.45399,-10.90945 -0.95164,-0.0568 -2.53914,0.04 -4.45993,0.244 z"
       style="fill:#34d10e;fill-opacity:1;stroke:#000000;stroke-width:0"
       id="path31" />
    <path
       style="font-family:Arial;-inkscape-font-specification:Arial;white-space:pre;stroke:#ffa205;stroke-width:0"
       d="m 546.07031,935.56515 v -1.21289 h 1.05469 v 1.21289 z m 0,7.37695 v -6.22265 h 1.05469 v 6.22265 z m 10.05469,-0.76757 q -0.58594,0.49804 -1.13086,0.70312 -0.53906,0.20508 -1.16016,0.20508 -1.02539,0 -1.57617,-0.49805 -0.55078,-0.5039 -0.55078,-1.2832 0,-0.45703 0.20508,-0.83203 0.21094,-0.38086 0.54492,-0.60938 0.33984,-0.22851 0.76172,-0.3457 0.31055,-0.082 0.9375,-0.1582 1.27734,-0.15235 1.88086,-0.36328 0.006,-0.2168 0.006,-0.27539 0,-0.64454 -0.29883,-0.90821 -0.4043,-0.35742 -1.20117,-0.35742 -0.74414,0 -1.10156,0.26367 -0.35157,0.25781 -0.52149,0.91992 l -1.03125,-0.14062 q 0.14063,-0.66211 0.46289,-1.06641 0.32227,-0.41015 0.93164,-0.62695 0.60938,-0.22266 1.41211,-0.22266 0.79688,0 1.29492,0.1875 0.49805,0.1875 0.73243,0.47461 0.23437,0.28125 0.32812,0.71485 0.0527,0.26953 0.0527,0.97265 v 1.40625 q 0,1.47071 0.0644,1.86328 0.0703,0.38672 0.26953,0.74414 h -1.10156 q -0.16407,-0.32812 -0.21094,-0.76757 z m -0.0879,-2.35547 q -0.57422,0.23437 -1.72266,0.39844 -0.65039,0.0937 -0.91992,0.21093 -0.26953,0.11719 -0.41601,0.34571 -0.14649,0.22265 -0.14649,0.49804 0,0.42188 0.31641,0.70313 0.32226,0.28125 0.9375,0.28125 0.60937,0 1.08398,-0.26367 0.47461,-0.26954 0.69727,-0.73243 0.16992,-0.35742 0.16992,-1.05468 z m 2.70117,3.12304 v -6.22265 h 0.94336 v 0.87305 q 0.29297,-0.45704 0.7793,-0.73243 0.48633,-0.28125 1.10742,-0.28125 0.69141,0 1.13086,0.28711 0.44531,0.28711 0.62695,0.80274 0.73828,-1.08985 1.92188,-1.08985 0.92578,0 1.42382,0.51563 0.49805,0.50976 0.49805,1.57617 v 4.27148 h -1.04883 v -3.91992 q 0,-0.63281 -0.10547,-0.9082 -0.0996,-0.28125 -0.36914,-0.45117 -0.26953,-0.16992 -0.63281,-0.16992 -0.65625,0 -1.08984,0.43945 -0.4336,0.43359 -0.4336,1.39453 v 3.61523 h -1.05468 v -4.04296 q 0,-0.70313 -0.25782,-1.05469 -0.25781,-0.35156 -0.84375,-0.35156 -0.44531,0 -0.82617,0.23437 -0.375,0.23438 -0.54492,0.68555 -0.16992,0.45117 -0.16992,1.30078 v 3.22851 z m 12.9082,-1.85742 1.04297,-0.16406 q 0.0879,0.62695 0.48633,0.96094 0.4043,0.33398 1.125,0.33398 0.72656,0 1.07813,-0.29297 0.35156,-0.29882 0.35156,-0.69726 0,-0.35742 -0.31055,-0.5625 -0.2168,-0.14063 -1.07812,-0.35742 -1.16016,-0.29297 -1.61133,-0.50391 -0.44531,-0.2168 -0.67969,-0.5918 -0.22851,-0.38086 -0.22851,-0.83789 0,-0.41601 0.1875,-0.76758 0.19335,-0.35742 0.52148,-0.59179 0.24609,-0.18164 0.66797,-0.30469 0.42773,-0.12891 0.91406,-0.12891 0.73242,0 1.2832,0.21094 0.55664,0.21094 0.82032,0.57422 0.26367,0.35742 0.36328,0.96094 l -1.03125,0.14062 q -0.0703,-0.48047 -0.41016,-0.75 -0.33398,-0.26953 -0.94922,-0.26953 -0.72656,0 -1.03711,0.24024 -0.31054,0.24023 -0.31054,0.5625 0,0.20507 0.1289,0.36914 0.12891,0.16992 0.4043,0.28125 0.1582,0.0586 0.93164,0.26953 1.11914,0.29883 1.55859,0.49218 0.44532,0.1875 0.69727,0.55079 0.25195,0.36328 0.25195,0.90234 0,0.52734 -0.31054,0.99609 -0.30469,0.46289 -0.88477,0.72071 -0.58008,0.25195 -1.3125,0.25195 -1.21289,0 -1.85156,-0.50391 -0.63281,-0.5039 -0.8086,-1.49414 z m 6.42188,4.24219 v -8.60742 h 0.96094 v 0.80859 q 0.33984,-0.47461 0.76757,-0.70898 0.42774,-0.24024 1.03711,-0.24024 0.79688,0 1.40625,0.41016 0.60938,0.41016 0.91993,1.16016 0.31054,0.74414 0.31054,1.63476 0,0.95508 -0.3457,1.72266 -0.33984,0.76172 -0.99609,1.17187 -0.65039,0.4043 -1.3711,0.4043 -0.52734,0 -0.94922,-0.22266 -0.41601,-0.22265 -0.68554,-0.5625 v 3.0293 z m 0.95508,-5.46094 q 0,1.20117 0.48633,1.77539 0.48632,0.57422 1.17773,0.57422 0.70312,0 1.20117,-0.59179 0.50391,-0.59766 0.50391,-1.84571 0,-1.18945 -0.49219,-1.78125 -0.48633,-0.59179 -1.16602,-0.59179 -0.67382,0 -1.19531,0.63281 -0.51562,0.62695 -0.51562,1.82812 z m 9.97851,1.07227 1.08985,0.13476 q -0.25782,0.95508 -0.95508,1.48243 -0.69727,0.52734 -1.78125,0.52734 -1.36524,0 -2.16797,-0.83789 -0.79688,-0.84375 -0.79688,-2.36133 0,-1.57031 0.8086,-2.4375 0.80859,-0.86719 2.09765,-0.86719 1.24805,0 2.03907,0.84961 0.79101,0.84961 0.79101,2.39063 0,0.0937 -0.006,0.28125 h -4.64062 q 0.0586,1.02539 0.58008,1.57031 0.52148,0.54492 1.30078,0.54492 0.58008,0 0.99023,-0.30469 0.41016,-0.30468 0.65039,-0.97265 z m -3.46289,-1.70508 h 3.47461 q -0.0703,-0.78516 -0.39844,-1.17773 -0.5039,-0.60938 -1.30664,-0.60938 -0.72656,0 -1.22461,0.48633 -0.49218,0.48633 -0.54492,1.30078 z m 10.13672,1.70508 1.08984,0.13476 q -0.25781,0.95508 -0.95507,1.48243 -0.69727,0.52734 -1.78125,0.52734 -1.36524,0 -2.16797,-0.83789 -0.79688,-0.84375 -0.79688,-2.36133 0,-1.57031 0.8086,-2.4375 0.80859,-0.86719 2.09765,-0.86719 1.24805,0 2.03907,0.84961 0.79101,0.84961 0.79101,2.39063 0,0.0937 -0.006,0.28125 h -4.64062 q 0.0586,1.02539 0.58007,1.57031 0.52149,0.54492 1.30079,0.54492 0.58007,0 0.99023,-0.30469 0.41016,-0.30468 0.65039,-0.97265 z m -3.46289,-1.70508 h 3.47461 q -0.0703,-0.78516 -0.39844,-1.17773 -0.5039,-0.60938 -1.30664,-0.60938 -0.72656,0 -1.22461,0.48633 -0.49219,0.48633 -0.54492,1.30078 z m 9.91406,3.70898 v -0.78515 q -0.59179,0.92578 -1.74023,0.92578 -0.74414,0 -1.3711,-0.41016 -0.62109,-0.41015 -0.96679,-1.14257 -0.33985,-0.73829 -0.33985,-1.69336 0,-0.93164 0.31055,-1.6875 0.31055,-0.76172 0.93164,-1.16602 0.6211,-0.4043 1.38867,-0.4043 0.5625,0 1.00196,0.24024 0.43945,0.23437 0.71484,0.61523 v -3.08203 h 1.04883 v 8.58984 z m -3.33398,-3.10546 q 0,1.19531 0.5039,1.78711 0.50391,0.59179 1.18946,0.59179 0.6914,0 1.17187,-0.5625 0.48633,-0.56836 0.48633,-1.72851 0,-1.27735 -0.49219,-1.875 -0.49218,-0.59766 -1.21289,-0.59766 -0.70312,0 -1.17773,0.57422 -0.46875,0.57422 -0.46875,1.81055 z"
       id="text35"
       transform="matrix(2.1534476,0,0,4.3035928,-927.67803,-3786.2036)"
       aria-label="i am speed" />
    <path
       style="fill:#1ce60f;fill-opacity:1;stroke:#000000;stroke-width:0;stroke-dasharray:none;stroke-opacity:1"
       d="m 49.233951,291.2102 h -38.34019 l 9.43291,-31.19155 h 37.59772 z"
       id="path35-5" />
    <path
       style="fill:#3b3b3b;fill-opacity:1;stroke:#000000;stroke-width:0;stroke-dasharray:none;stroke-opacity:1"
       d="m 86.747131,290.98641 h -38.34018 l 9.43291,-31.19155 h 37.59772 z"
       id="path35-5-5" />
    <path
       d="m 31.696598,271.94284 h -1.235999 l -2.395049,-2.84713 h -1.341805 v 2.84713 h -0.952248 v -7.1611 h 2.005493 q 0.64926,0 1.0821,0.0866 0.43284,0.0818 0.779113,0.29818 0.389556,0.24527 0.605976,0.6204 0.221229,0.37032 0.221229,0.94263 0,0.7743 -0.389556,1.29852 -0.389556,0.51941 -1.072482,0.78392 z m -2.226722,-5.14599 q 0,-0.3078 -0.110615,-0.54345 -0.105805,-0.24047 -0.355891,-0.40399 -0.206801,-0.13947 -0.490552,-0.19237 -0.283751,-0.0577 -0.668498,-0.0577 h -1.120575 v 2.70284 h 0.961867 q 0.452078,0 0.788731,-0.077 0.336654,-0.0817 0.572311,-0.29817 0.21642,-0.202 0.317416,-0.4617 0.105806,-0.26451 0.105806,-0.6685 z m 7.969069,-1.16867 h -2.558566 v 6.31466 H 33.92813 v -6.31466 h -2.558566 v -0.84644 h 6.069381 z m 6.425273,-0.84644 -2.471998,3.53967 2.467189,3.62143 h -1.101338 l -1.95259,-2.94812 -2.000684,2.94812 h -1.038816 l 2.496045,-3.57815 -2.438333,-3.58295 h 1.096528 l 1.928544,2.90965 1.971828,-2.90965 z"
       id="text36"
       style="font-size:9.84952px;font-family:ISOCPEUR;-inkscape-font-specification:ISOCPEUR;fill:#ffffff;stroke:#000000;stroke-width:0"
       aria-label="RTX" />
    <path
       d="m 31.291744,276.22395 q 0.43765,0.48093 0.668498,1.17829 0.235657,0.69735 0.235657,1.58227 0,0.88491 -0.240467,1.58708 -0.235657,0.69735 -0.663688,1.16386 -0.442459,0.48574 -1.048435,0.73102 -0.601167,0.24527 -1.37547,0.24527 -0.755066,0 -1.37547,-0.25008 -0.615595,-0.25009 -1.048435,-0.72621 -0.432841,-0.47613 -0.668498,-1.16867 -0.230848,-0.69255 -0.230848,-1.58227 0,-0.8753 0.230848,-1.56785 0.230848,-0.69735 0.673307,-1.19271 0.423222,-0.47132 1.048435,-0.7214 0.630023,-0.25009 1.370661,-0.25009 0.769494,0 1.380279,0.2549 0.615595,0.25008 1.043626,0.71659 z m -0.08657,2.76056 q 0,-1.39471 -0.625214,-2.14978 -0.625213,-0.75987 -1.707314,-0.75987 -1.091719,0 -1.716933,0.75987 -0.620404,0.75507 -0.620404,2.14978 0,1.40913 0.634832,2.15939 0.634833,0.74545 1.702505,0.74545 1.067673,0 1.697696,-0.74545 0.634832,-0.75026 0.634832,-2.15939 z m 7.96426,3.57814 h -1.178287 l -3.395391,-6.40603 v 6.40603 h -0.889727 v -7.1611 h 1.476466 l 3.097212,5.84815 v -5.84815 h 0.889727 z"
       id="text36-0"
       style="font-size:9.84952px;font-family:BolsterBold;-inkscape-font-specification:BolsterBold;fill:#ffffff;stroke:#000000;stroke-width:0"
       aria-label="ON" />
    <g
       id="g39"
       transform="matrix(0.51384964,-1.321538,1.1207792,0.43026586,-82.116322,289.51806)">
      <circle
         style="fill:#1c1c1c;fill-opacity:1;stroke:#000000;stroke-width:0;stroke-dasharray:none;stroke-opacity:1"
         id="path39"
         cx="155.62247"
         cy="148.11653"
         r="11.127242" />
      <path
         style="fill:#282828;fill-opacity:1;stroke:#000000;stroke-width:0;stroke-dasharray:none;stroke-opacity:1"
         d="m 155.6107,150.79348 c 0,0 -3.76453,4.05693 -5.01977,4.00387 -1.72702,-0.073 -3.38941,-0.87907 -1.55374,-2.45013 5.11224,-4.37533 6.57351,-1.55374 6.57351,-1.55374 z"
         id="path38"
         sodipodi:nodetypes="cssc" />
      <path
         style="fill:#282828;fill-opacity:1;stroke:#000000;stroke-width:0;stroke-dasharray:none;stroke-opacity:1"
         d="m 154.14366,149.18279 c 0,0 -5.07324,2.21193 -6.20241,1.66109 -1.55356,-0.75788 -2.7546,-2.16171 -0.44369,-2.86712 6.43577,-1.96452 6.6461,1.20603 6.6461,1.20603 z"
         id="path38-0"
         sodipodi:nodetypes="cssc" />
      <path
         style="fill:#282828;fill-opacity:1;stroke:#000000;stroke-width:0;stroke-dasharray:none;stroke-opacity:1"
         d="m 154.59495,147.11929 c 0,0 -5.24455,-1.76783 -5.71134,-2.93425 -0.64223,-1.60483 -0.58946,-3.45158 1.59659,-2.42244 6.088,2.86612 4.11475,5.35669 4.11475,5.35669 z"
         id="path38-0-1"
         sodipodi:nodetypes="cssc" />
      <path
         style="fill:#282828;fill-opacity:1;stroke:#000000;stroke-width:0;stroke-dasharray:none;stroke-opacity:1"
         d="m 155.74703,146.51536 c 0,0 -1.50849,-5.32494 -0.81059,-6.36963 0.9602,-1.43733 2.51301,-2.43836 2.90076,-0.0535 1.07982,6.64171 -2.09017,6.42312 -2.09017,6.42312 z"
         id="path38-0-1-8"
         sodipodi:nodetypes="cssc" />
      <path
         style="fill:#282828;fill-opacity:1;stroke:#000000;stroke-width:0;stroke-dasharray:none;stroke-opacity:1"
         d="m 157.08783,147.56784 c 0,0 1.83177,-5.22256 3.00382,-5.67506 1.61254,-0.62258 3.45851,-0.54725 2.40276,1.62603 -2.94028,6.05253 -5.40656,4.049 -5.40656,4.049 z"
         id="path38-0-1-8-0"
         sodipodi:nodetypes="cssc" />
      <path
         style="fill:#282828;fill-opacity:1;stroke:#000000;stroke-width:0;stroke-dasharray:none;stroke-opacity:1"
         d="m 157.1691,148.43181 c 0,0 5.52317,-0.35376 6.39754,0.54842 1.203,1.24125 1.85472,2.96998 -0.55831,2.84703 -6.72019,-0.3425 -5.83919,-3.39545 -5.83919,-3.39545 z"
         id="path38-0-1-8-0-7"
         sodipodi:nodetypes="cssc" />
      <path
         style="fill:#282828;fill-opacity:1;stroke:#000000;stroke-width:0;stroke-dasharray:none;stroke-opacity:1"
         d="m 156.4505,149.6034 c 0,0 4.22125,3.57932 4.22438,4.83569 0.005,1.72855 -0.72658,3.42532 -2.37817,1.66179 -4.59959,-4.91142 -1.84619,-6.49745 -1.84619,-6.49745 z"
         id="path38-0-1-8-0-7-2"
         sodipodi:nodetypes="cssc" />
      <circle
         style="fill:#303030;fill-opacity:1;stroke:#000000;stroke-width:0;stroke-dasharray:none;stroke-opacity:1"
         id="path37"
         cx="155.57628"
         cy="148.19849"
         r="2.6198823" />
    </g>
  </g>
</svg>
