<svg xmlns="http://www.w3.org/2000/svg" id="svg365" width="600" height="300" version="1.1"><defs id="defs16"><clipPath id="clip-path"><path id="rect4" d="M0 0h600v300H0z" class="cls-1"/></clipPath><clipPath id="clip-path-2"><path id="polygon7" d="M472.94 249.09h17.87v61.39h-17.87v-61.39z" class="cls-1"/></clipPath><clipPath id="clip-path-3"><path id="polygon10" d="M109.19 249.41h17.87v61.21h-17.87v-61.21z" class="cls-1"/></clipPath><clipPath id="clip-path-4"><path id="polygon13" d="M490.81 249.41h-17.87v61.21h17.87v-61.21z" class="cls-1"/></clipPath><style id="style2">.cls-1{fill:none}.cls-5{fill:#433915}.cls-6{fill:#2b2612}.cls-11{fill:#ddd}.cls-17{fill:#2f5226}.cls-18{fill:#528e40}.cls-19{fill:#305327}.cls-20{fill:#91c847}.cls-21{fill:#517737}.cls-22{fill:#a9d274}</style></defs><g id="background"><path id="rect18" d="M0 0h600v300H0z" style="fill:#231f20"/></g><g id="desk"><g id="g50" clip-path="url(#clip-path)" style="clip-path:url(#clip-path)"><g id="_Mirror_Repeat_" data-name="&lt;Mirror Repeat&gt;"><g id="g23" clip-path="url(#clip-path-2)" style="clip-path:url(#clip-path-2)"><path id="rect21" d="M472.94 249.09h17.870001v61.389999H472.94z" class="cls-5"/></g></g><path id="rect26" d="M450.70999 257.01001h15.64v53.610001h-15.64z" class="cls-6"/><rect id="rect28" width="81.589996" height="18.1" x="259.20001" y="206.78" rx="2.27" style="fill:#999"/><path id="rect30" d="M133.52 257.06h15.59v53.560001h-15.59z" class="cls-6"/><g id="_Mirror_Repeat_2" data-name="&lt;Mirror Repeat&gt;"><g id="g34" clip-path="url(#clip-path-3)" style="clip-path:url(#clip-path-3)"><path id="rect32" d="M109.19 249.41h17.870001v61.209999H109.19z" class="cls-5"/></g></g><g id="_Mirror_Repeat_3" data-name="&lt;Mirror Repeat&gt;"><g id="g39" clip-path="url(#clip-path-4)" style="clip-path:url(#clip-path-4)"><path id="rect37" d="M472.94 249.41h17.870001v61.209999H472.94z" class="cls-5" transform="rotate(180 481.875 280.015)"/></g></g><rect id="rect42" width="436.19" height="24.76" x="81.910004" y="232.17999" rx=".91000003" style="fill:#4b3f17"/><rect id="rect44" width="202.17999" height="10.22" x="198.91" y="221.96001" class="cls-11" rx=".38999999"/><path id="rect46" d="M174.24001 24.52h251.52v183.69h-251.52z" class="cls-11"/><path id="rect48" d="M196.09 49.73H403.9v133.25999H196.09z" style="fill:#132414"/></g></g><g id="buttons"><path id="path53" d="M198.94 190.67v8.15a.44.44 0 0 1-.2.39 5.53 5.53 0 0 1-3.65 1.36 5.72 5.72 0 0 1-3.66-1.36 4.59 4.59 0 0 0-3-1.13 4.4 4.4 0 0 0-2.78 1v5.4a.59.59 0 0 1-1.17 0v-13.81a.61.61 0 0 1 .33-.52 5.58 5.58 0 0 1 3.55-1.29 5.72 5.72 0 0 1 3.69 1.36 4.57 4.57 0 0 0 5.95 0 .63.63 0 0 1 .62-.07.56.56 0 0 1 .32.52z" style="fill:#447839"/><path id="path55" d="M198.18 189.91v8.15a.41.41 0 0 1-.19.39 5.51 5.51 0 0 1-3.66 1.36 5.69 5.69 0 0 1-3.65-1.36 4.62 4.62 0 0 0-3-1.13 4.4 4.4 0 0 0-2.78 1v5.4a.58.58 0 0 1-1.16 0v-13.81a.59.59 0 0 1 .32-.51 5.64 5.64 0 0 1 3.56-1.3 5.82 5.82 0 0 1 3.69 1.36 4.56 4.56 0 0 0 3 1.1 4.61 4.61 0 0 0 3-1.1.59.59 0 0 1 .61-.06.54.54 0 0 1 .26.51z" style="fill:#549b43"/><path id="path57" d="m214.22 204.49-4.63-4.63v-6.59l4.63-4.63h6.56l4.67 4.63v6.56l-4.63 4.66z" style="fill:#b23f32"/><path id="path59" d="m213.46 203.74-4.63-4.63v-6.6l4.63-4.63H220l4.66 4.63v6.57l-4.63 4.66z" style="fill:#ec523c"/></g><g id="logo_thing" data-name="logo thing"><path id="path62" d="M341.82 162.15a3.35 3.35 0 0 1-2.35-1l-83-83a3.3234019 3.3234019 0 0 1 4.7-4.7l82.95 83a3.33 3.33 0 0 1-2.35 5.68z" class="cls-17"/><circle id="circle64" cx="273.13" cy="90.129997" r="15.78" class="cls-18"/><path id="path66" d="M273.13 76.85a13.28 13.28 0 1 1-13.28 13.28 13.3 13.3 0 0 1 13.28-13.28m0-5a18.28 18.28 0 1 0 18.28 18.28 18.29 18.29 0 0 0-18.28-18.28z" class="cls-19"/><path id="path68" d="M293.1 125.86a16.1 16.1 0 0 1-3.65-.42 15.79 15.79 0 0 1 3.61-31.15 16.11 16.11 0 0 1 3.65.43 15.78 15.78 0 0 1-3.61 31.14z" class="cls-18"/><path id="path70" d="M293.06 91.79v5a13.84 13.84 0 0 1 3.07.36 13.26 13.26 0 1 1-3.07-.36v-5m0 0a18.32 18.32 0 1 0 4.22.5 18 18 0 0 0-4.22-.5z" class="cls-19"/><path id="path72" d="M313 145.8a15.78 15.78 0 1 1 15.8-15.8 15.8 15.8 0 0 1-15.8 15.8Z" class="cls-18"/><path id="path74" d="M313 116.74A13.28 13.28 0 1 1 299.74 130 13.29 13.29 0 0 1 313 116.74m0-5A18.28 18.28 0 1 0 331.3 130a18.27 18.27 0 0 0-18.3-18.26Z" class="cls-19"/><path id="path76" d="M341.82 162.15a3.35 3.35 0 0 1-2.35-1l-20.35-20.36a3.3234019 3.3234019 0 0 1 4.7-4.7l20.35 20.36a3.32 3.32 0 0 1-2.35 5.67z" class="cls-17"/></g><g id="text_in_monitor" data-name="text in monitor"><path id="path79" d="M208 62h-1.21v1.21h-6V62h-1.22v-6h1.22v-1.2h6V56H208Zm-2.42 0v-6H202v6z" class="cls-20"/><path id="path81" d="M217.55 62h-1.21v1.21h-6V62h-1.21v-6h1.21v-1.2h6V56h1.21zm-2.43 0v-6h-3.58v6z" class="cls-20"/><path id="path83" d="M227.14 62h-1.22v1.21h-6V62h-1.22v-6h1.21v-1.2h6V56h1.22zm-2.43 0v-6h-3.59v6z" class="cls-20"/><path id="path85" d="M236.72 62h-1.21v1.21h-6V62h-1.21v-6h1.21v-1.2h6V56h1.21zm-2.42 0v-6h-3.59v6z" class="cls-20"/><path id="path87" d="M246.31 57.16h-1.21v1.22h-1.22v1.21h-1.22v1.23h-1.21V62h-1.22v1.21h-2.35v-2.35h1.21v-1.2h1.22v-1.22h1.21v-1.22a1.74 1.74 0 0 0 1.2-.21v-1a32.47 32.47 0 0 0-4.84 0V54.8h8.43z" class="cls-20"/><path id="path89" d="M255.9 62h-1.21v1.21h-6V62h-1.22v-2.35a1.82 1.82 0 0 0 1.2-.21v-1.07h-1.2V56h1.22v-1.2h6V56h1.21v2.35a1.75 1.75 0 0 0-1.2.2v1.08h1.2zm-2.44-3.66V56h-3.57v2.35zm0 3.66v-2.35h-3.57V62Z" class="cls-20"/><path id="path91" d="M265.49 62h-1.21v1.21h-6V62h-1.21v-6h1.21v-1.2h6V56h1.21zm-2.43 0v-6h-3.58v6z" class="cls-20"/><path id="path93" d="M275.08 62h-1.22v1.21h-6V62h-1.21v-6h1.21v-1.2h6V56h1.22zm-2.43 0v-6h-3.59v6z" class="cls-20"/><path id="path95" d="M284.66 62h-1.21v1.21h-6V62h-1.21v-6h1.21v-1.2h6V56h1.21zm-2.42 0v-6h-3.59v6z" class="cls-20"/><path id="path97" d="M293 63.24h-6v-1.16h1.22v-4.92H287V56h1.22v-1.2h3.58v7.28h1.2z" class="cls-20"/><path id="path99" d="M302.63 63.24h-6v-1.16h1.22v-4.92h-1.22V56h1.22v-1.2h3.58v7.28h1.21z" class="cls-20"/><path id="path101" d="M313.43 57.16h-1.21v1.22H311v1.21h-1.21v1.23h-1.21V62h-1.23v1.21H305v-2.35h1.21v-1.2h1.23v-1.22h1.21v-1.22a1.76 1.76 0 0 0 1.2-.21v-1a32.6 32.6 0 0 0-4.85 0V54.8h8.44z" class="cls-20"/><path id="path103" d="M323 62h-1.2v1.21h-6V62h-1.21v-6h1.21v-1.2h6V56h1.2zm-2.43 0v-6H317v6z" class="cls-20"/><path id="path105" d="M332.6 62h-1.21v1.21h-6V62h-1.21v-6h1.21v-1.2h6V56h1.21zm-2.42 0v-6h-3.59v6z" class="cls-20"/><path id="path107" d="M342.19 62H341v1.21h-6V62h-1.21v-6H335v-1.2h6V56h1.21zm-2.42 0v-6h-3.59v6z" class="cls-20"/><path id="path109" d="M350.57 63.24h-6v-1.16h1.22v-4.92h-1.22V56h1.22v-1.2h3.58v7.28h1.21z" class="cls-20"/><path id="path111" d="M361.37 62h-1.21v1.21h-6V62h-1.21v-6h1.21v-1.2h6V56h1.21zm-2.43 0v-6h-3.58v6z" class="cls-20"/><path id="path113" d="M371 62h-1.22v1.21h-7V62h5.83v-1.14h-4.86v-1.27h-1.22V56h1.22v-1.2h6V56H371Zm-2.44-2.44V56h-3.58v3.57z" class="cls-20"/><path id="path115" d="M380.54 62h-1.21v1.21h-6V62h-1.21v-6h1.21v-1.2h6V56h1.21zm-2.42 0v-6h-3.59v6z" class="cls-20"/><path id="path117" d="M390.13 62h-1.21v1.21h-6V62h-1.22v-6h1.21v-1.2h6V56h1.21zm-2.42 0v-6h-3.59v6z" class="cls-20"/><path id="path119" d="M399.72 62h-1.21v1.21h-6V62h-1.22v-6h1.22v-1.2h6V56h1.21zm-2.42 0v-6h-3.59v6z" class="cls-20"/><path id="path121" d="M206.75 77.64h-6v-1.16H202v-4.92h-1.22v-1.14H202V69.2h3.58v7.28h1.21z" class="cls-20"/><path id="path123" d="M217.55 76.43h-1.21v1.21h-6v-1.21h-1.21v-6h1.21V69.2h6v1.22h1.21zm-2.43 0v-6h-3.58v6z" class="cls-20"/><path id="path125" d="M225.92 77.64h-6v-1.16h1.23v-4.92h-1.23v-1.14h1.23V69.2h3.57v7.28h1.21z" class="cls-20"/><path id="path127" d="M236.72 76.43h-1.21v1.21h-6v-1.21h-1.21v-6h1.21V69.2h6v1.22h1.21zm-2.42 0v-6h-3.59v6z" class="cls-20"/><path id="path129" d="M246.31 76.43h-1.21v1.21h-6v-1.21h-1.21v-6h1.21V69.2h6v1.22h1.21zm-2.42 0v-6h-3.59v6z" class="cls-20"/><path id="path131" d="M255.9 76.43h-1.21v1.21h-6v-1.21h-1.22v-6h1.22V69.2h6v1.22h1.21zm-2.42 0v-6h-3.59v6z" class="cls-20"/><path id="path133" d="M264.28 77.64h-6v-1.16h1.23v-4.92h-1.23v-1.14h1.23V69.2h3.57v7.28h1.22z" class="cls-20"/><path id="path135" d="M273.86 77.64h-6v-1.16h1.23v-4.92h-1.23v-1.14h1.23V69.2h3.57v7.28h1.21z" class="cls-20"/><path id="path137" d="M284.66 75.2h-1.21v2.44h-2.36V75.2h-4.86v-2.36h1.21v-1.21h1.21v-1.21h1.23V69.2h3.57V74h1.21zM281 74v-2.37h-1.14v1.21h-1.23V74Z" class="cls-20"/><path id="path139" d="M294.25 76.43H293v1.21h-6v-1.21h-1.21v-6H287V69.2h6v1.22h1.21zm-2.42 0v-6h-3.59v6z" class="cls-20"/><path id="path141" d="M303.84 76.43h-1.21v1.21h-6v-1.21h-1.23v-6h1.22V69.2h6v1.22h1.21zm-2.42 0v-6h-3.59v6z" class="cls-20"/><path id="path143" d="M313.43 76.43h-1.21v1.21h-6v-1.21H305v-6h1.21V69.2h6v1.22h1.21zm-2.43 0v-6h-3.58v6z" class="cls-20"/><path id="path145" d="M321.8 77.64h-6v-1.16h1.2v-4.92h-1.23v-1.14H317V69.2h3.57v7.28h1.21z" class="cls-20"/><path id="path147" d="M332.6 76.43h-1.21v1.21h-6v-1.21h-1.21v-6h1.21V69.2h6v1.22h1.21zm-2.42 0v-6h-3.59v6z" class="cls-20"/><path id="path149" d="M342.19 76.42H341v1.22h-6v-1.22h-1.21v-1.14h2.36v1.22h3.71v-3.72h-6.07V69.2H342v1.28h-5.83v1.09H341v1.27h1.21z" class="cls-20"/><path id="path151" d="M351.78 76.43h-1.21v1.21h-6v-1.21h-1.22v-6h1.22V69.2h6v1.22h1.21zm-2.42 0v-6h-3.59v6z" class="cls-20"/><path id="path153" d="M361.37 76.43h-1.21v1.21h-6v-1.21h-1.21v-6h1.21V69.2h6v1.22h1.21zm-2.43 0v-6h-3.58v6z" class="cls-20"/><path id="path155" d="M371 76.43h-1.22v1.21h-6v-1.21h-1.21v-6h1.21V69.2h6v1.22H371Zm-2.43 0v-6h-3.59v6z" class="cls-20"/><path id="path157" d="M380.54 76.43h-1.21v1.21h-6v-1.21h-1.21v-6h1.21V69.2h6v1.22h1.21zm-2.42 0v-6h-3.59v6z" class="cls-20"/><path id="path159" d="M390.13 76.43h-1.21v1.21h-7v-1.26h5.83v-1.12h-4.86V74h-1.23v-3.58h1.23V69.2h6v1.22h1.21zM387.7 74v-3.58h-3.58V74Z" class="cls-20"/><path id="path161" d="M399.72 76.43h-1.21v1.21h-7v-1.26h5.84v-1.12h-4.85V74h-1.23v-3.58h1.23V69.2h6v1.22h1.21zM397.28 74v-3.58h-3.57V74Z" class="cls-20"/><path id="path163" d="M208 90.83h-1.21V92h-6v-1.17h-1.22v-6h1.22V83.6h6v1.22H208Zm-2.42 0v-6H202v6z" class="cls-20"/><path id="path165" d="M217.55 90.83h-1.21V92h-6v-1.17h-1.21v-6h1.21V83.6h6v1.22h1.21zm-2.43 0v-6h-3.58v6z" class="cls-20"/><path id="path167" d="M227.14 90.83h-1.22V92h-6v-1.17h-1.22v-6h1.21V83.6h6v1.22h1.22zm-2.43 0v-6h-3.59v6z" class="cls-20"/><path id="path169" d="M236.72 90.83h-1.21V92h-6v-1.17h-1.21v-6h1.21V83.6h6v1.22h1.21zm-2.42 0v-6h-3.59v6z" class="cls-20"/><path id="path171" d="M246.31 90.83h-1.21V92h-7v-1.22h5.9v-1.12h-4.86v-1.27h-1.23v-3.57h1.23V83.6h6v1.22h1.21zm-2.43-2.44v-3.57h-3.58v3.57z" class="cls-20"/><path id="path173" d="M255.9 86h-1.21v1.22h-1.23v1.21h-1.21v1.23H251v1.21h-1.22V92h-2.36v-2.34h1.22v-1.2h1.22v-1.22h1.21V86a1.76 1.76 0 0 0 1.2-.21v-1a32.6 32.6 0 0 0-4.85 0V83.6h8.44z" class="cls-20"/><path id="path175" d="M265.49 90.83h-1.21V92h-6v-1.17h-1.21v-6h1.21V83.6h6v1.22h1.21zm-2.43 0v-6h-3.58v6z" class="cls-20"/><path id="path177" d="M275.08 90.83h-1.22V92h-6v-1.17h-1.21v-6h1.21V83.6h6v1.22h1.22zm-2.43 0v-6h-3.59v6z" class="cls-20"/><path id="path179" d="M284.66 90.83h-1.21V92h-6v-1.17h-1.21v-6h1.21V83.6h6v1.22h1.21zm-2.42 0v-6h-3.59v6z" class="cls-20"/><path id="path181" d="M293 92h-6v-1.12h1.22V86H287v-1.18h1.22V83.6h3.58v7.28h1.2z" class="cls-20"/><path id="path183" d="M303.84 90.83h-1.21V92h-6v-1.17h-1.23v-6h1.22V83.6h6v1.22h1.21zm-2.42 0v-6h-3.59v6z" class="cls-20"/><path id="path185" d="M313.43 90.83h-1.21V92h-6v-1.17H305v-2.38a1.82 1.82 0 0 0 1.2-.21v-1.07H305v-2.35h1.21V83.6h6v1.22h1.21v2.35a1.75 1.75 0 0 0-1.2.2v1.08h1.2zM311 87.17v-2.35h-3.57v2.35zm0 3.66v-2.38h-3.57v2.38z" class="cls-20"/><path id="path187" d="M323 90.83h-1.2V92h-6v-1.17h-1.21v-6h1.21V83.6h6v1.22h1.2zm-2.43 0v-6H317v6z" class="cls-20"/><path id="path189" d="M332.6 90.83h-1.21V92h-6v-1.17h-1.21v-6h1.21V83.6h6v1.22h1.21zm-2.42 0v-6h-3.59v6z" class="cls-20"/><path id="path191" d="M342.19 90.83H341V92h-6v-1.17h-1.21v-6H335V83.6h6v1.22h1.21zm-2.42 0v-6h-3.59v6z" class="cls-20"/><path id="path193" d="M351.78 90.83h-1.21V92h-6v-1.17h-1.22v-6h1.22V83.6h6v1.22h1.21zm-2.42 0v-6h-3.59v6z" class="cls-20"/><path id="path195" d="M361.37 90.82h-1.21V92h-6v-1.18h-1.21v-1.14h2.37v1.22H359v-2.5h-3.63v-1.16H359v-2.5h-3.7V86h-2.37v-1.18h1.21V83.6h6v1.22h1.21v2.42h-1.21v1.2h1.21z" class="cls-20"/><path id="path197" d="M371 87.19h-1.23v1.21h-2.42v1.24h-2.44v1.13H371V92h-8.45v-2.34h1.21v-1.18h2.44v-1.24h2.43v-2.5h-3.72V86h-2.36v-1.18h1.21V83.6h6v1.22H371Z" class="cls-20"/><path id="path199" d="M380.54 90.83h-1.21V92h-6v-1.17h-1.21v-6h1.21V83.6h6v1.22h1.21zm-2.42 0v-6h-3.59v6z" class="cls-20"/><path id="path201" d="M390.13 90.83h-1.21V92h-6v-1.17h-1.22v-6h1.21V83.6h6v1.22h1.21zm-2.42 0v-6h-3.59v6z" class="cls-20"/><path id="path203" d="M399.72 90.83h-1.21V92h-6v-1.17h-1.22v-6h1.22V83.6h6v1.22h1.21zm-2.42 0v-6h-3.59v6z" class="cls-20"/><path id="path205" d="M208 105.23h-1.21v1.21h-6v-1.21h-1.22v-6h1.22V98h6v1.22H208Zm-2.42 0v-6H202v6z" class="cls-20"/><path id="path207" d="M217.55 105.23h-1.21v1.21h-6v-1.21h-1.21v-6h1.21V98h7v1.28h-5.83v1.09h4.86v1.28h1.21zm-2.43 0v-3.58h-3.58v3.58z" class="cls-20"/><path id="path209" d="M227.14 105.23h-1.22v1.21h-7v-1.26h5.83v-1.12h-4.86v-1.27h-1.22v-3.57h1.22V98h6v1.22h1.22zm-2.44-2.44v-3.57h-3.58v3.57z" class="cls-20"/><path id="path211" d="M236.72 105.23h-1.21v1.21h-6v-1.21h-1.21v-6h1.21V98h6v1.22h1.21zm-2.42 0v-6h-3.59v6z" class="cls-20"/><path id="path213" d="M246.31 105.23h-1.21v1.21h-6v-1.21h-1.21v-6h1.21V98h6v1.22h1.21zm-2.42 0v-6h-3.59v6z" class="cls-20"/><path id="path215" d="M255.9 105.23h-1.21v1.21h-6v-1.21h-1.22v-6h1.22V98h6v1.22h1.21zm-2.42 0v-6h-3.59v6z" class="cls-20"/><path id="path217" d="M264.28 106.44h-6v-1.16h1.23v-4.92h-1.23v-1.14h1.23V98h3.57v7.28h1.22z" class="cls-20"/><path id="path219" d="M273.86 106.44h-6v-1.16h1.23v-4.92h-1.23v-1.14h1.23V98h3.57v7.28h1.21z" class="cls-20"/><path id="path221" d="M284.66 105.23h-1.21v1.21h-6v-1.21h-1.21v-6h1.21V98h6v1.22h1.21zm-2.42 0v-6h-3.59v6z" class="cls-20"/><path id="path223" d="M294.25 105.23H293v1.21h-6v-1.21h-1.21v-6H287V98h6v1.22h1.21zm-2.42 0v-6h-3.59v6z" class="cls-20"/><path id="path225" d="M303.84 105.23h-1.21v1.21h-6v-1.21h-1.23v-6h1.22V98h6v1.22h1.21zm-2.42 0v-6h-3.59v6z" class="cls-20"/><path id="path227" d="M313.43 105.23h-1.21v1.21h-6v-1.21H305v-6h1.21V98h6v1.22h1.21zm-2.43 0v-6h-3.58v6z" class="cls-20"/><path id="path229" d="M323 105.23h-1.2v1.21h-6v-1.21h-1.21v-6h1.21V98h6v1.22h1.2zm-2.43 0v-6H317v6z" class="cls-20"/><path id="path231" d="M332.6 105.23h-1.21v1.21h-7v-1.26h5.83v-1.12h-4.86v-1.27h-1.22v-3.57h1.22V98h6v1.22h1.21zm-2.43-2.44v-3.57h-3.58v3.57z" class="cls-20"/><path id="path233" d="M342.19 105.23H341v1.21h-7v-1.26h5.83v-1.12H335v-1.27h-1.23v-3.57H335V98h6v1.22h1.21zm-2.43-2.44v-3.57h-3.58v3.57z" class="cls-20"/><path id="path235" d="M351.78 105.23h-1.21v1.21h-6v-1.21h-1.22v-6h1.22V98h6v1.22h1.21zm-2.42 0v-6h-3.59v6z" class="cls-20"/><path id="path237" d="M361.37 105.23h-1.21v1.21h-6v-1.21h-1.21v-6h1.21V98h6v1.22h1.21zm-2.43 0v-6h-3.58v6z" class="cls-20"/><path id="path239" d="M371 105.23h-1.22v1.21h-6v-1.21h-1.21v-6h1.21V98h6v1.22H371Zm-2.43 0v-6h-3.59v6z" class="cls-20"/><path id="path241" d="M379.33 106.44h-6v-1.16h1.22v-4.92h-1.22v-1.14h1.22V98h3.58v7.28h1.21z" class="cls-20"/><path id="path243" d="M388.92 106.44h-6v-1.16h1.22v-4.92h-1.22v-1.14h1.22V98h3.58v7.28h1.21z" class="cls-20"/><path id="path245" d="M398.51 106.44h-6v-1.16h1.22v-4.92h-1.23v-1.14h1.22V98h3.58v7.28h1.21z" class="cls-20"/><path id="path247" d="M208 119.63h-1.21v1.21h-6v-1.21h-1.22v-6h1.22v-1.23h6v1.22H208Zm-2.42 0v-6H202v6z" class="cls-20"/><path id="path249" d="M217.55 119.63h-1.21v1.21h-6v-1.21h-1.21v-6h1.21v-1.23h6v1.22h1.21zm-2.43 0v-6h-3.58v6z" class="cls-20"/><path id="path251" d="M227.14 119.63h-1.22v1.21h-6v-1.21h-1.22v-6h1.21v-1.23h6v1.22h1.22zm-2.43 0v-6h-3.59v6z" class="cls-20"/><path id="path253" d="M235.51 120.84h-6v-1.16h1.22v-4.92h-1.23v-1.14h1.22v-1.22h3.58v7.28h1.21z" class="cls-20"/><path id="path255" d="M246.31 119.63h-1.21v1.21h-6v-1.21h-1.21v-6h1.21v-1.23h6v1.22h1.21zm-2.42 0v-6h-3.59v6z" class="cls-20"/><path id="path257" d="M255.9 119.63h-1.21v1.21h-6v-1.21h-1.22v-6h1.22v-1.23h6v1.22h1.21zm-2.42 0v-6h-3.59v6z" class="cls-20"/><path id="path259" d="M265.49 119.63h-1.21v1.21h-6v-1.21h-1.21v-6h1.21v-1.23h6v1.22h1.21zm-2.43 0v-6h-3.58v6z" class="cls-20"/><path id="path261" d="M275.08 119.63h-1.22v1.21h-6v-1.21h-1.21v-6h1.21v-1.23h6v1.22h1.22zm-2.43 0v-6h-3.59v6z" class="cls-20"/><path id="path263" d="M284.66 119.63h-1.21v1.21h-6v-1.21h-1.21v-6h1.21v-1.23h6v1.22h1.21zm-2.42 0v-6h-3.59v6z" class="cls-20"/><path id="path265" d="M293 120.84h-6v-1.16h1.22v-4.92H287v-1.14h1.22v-1.22h3.58v7.28h1.2z" class="cls-20"/><path id="path267" d="M303.84 119.63h-1.21v1.21h-6v-1.21h-1.23v-6h1.22v-1.23h6v1.22h1.21zm-2.42 0v-6h-3.59v6z" class="cls-20"/><path id="path269" d="M313.43 119.62h-1.21v1.22h-6v-1.22H305v-1.14h2.37v1.22h3.7V116H305v-3.6h8.2v1.28h-5.83v1.09h4.86V116h1.21z" class="cls-20"/><path id="path271" d="M323 119.63h-1.2v1.21h-6v-1.21h-1.21v-6h1.21v-1.23h6v1.22h1.2zm-2.43 0v-6H317v6z" class="cls-20"/><path id="path273" d="M332.6 119.63h-1.21v1.21h-6v-1.21h-1.21v-6h1.21v-1.23h6v1.22h1.21zm-2.42 0v-6h-3.59v6z" class="cls-20"/><path id="path275" d="M342.19 119.63H341v1.21h-6v-1.21h-1.21v-6H335v-1.23h6v1.22h1.21zm-2.42 0v-6h-3.59v6z" class="cls-20"/><path id="path277" d="M350.57 120.84h-6v-1.16h1.22v-4.92h-1.22v-1.14h1.22v-1.22h3.58v7.28h1.21z" class="cls-20"/><path id="path279" d="M360.16 120.84h-6v-1.16h1.23v-4.92h-1.23v-1.14h1.23v-1.22h3.57v7.28h1.22z" class="cls-20"/><path id="path281" d="M371 119.63h-1.22v1.21h-6v-1.21h-1.21v-6h1.21v-1.23h6v1.22H371Zm-2.43 0v-6h-3.59v6z" class="cls-20"/><path id="path283" d="M380.54 119.63h-1.21v1.21h-6v-1.21h-1.21v-6h1.21v-1.23h6v1.22h1.21zm-2.42 0v-6h-3.59v6z" class="cls-20"/><path id="path285" d="M390.13 119.63h-1.21v1.21h-6v-1.21h-1.22v-6h1.21v-1.23h6v1.22h1.21zm-2.42 0v-6h-3.59v6z" class="cls-20"/><path id="path287" d="M399.72 119.63h-1.21v1.21h-6v-1.21h-1.22v-6h1.22v-1.23h6v1.22h1.21zm-2.42 0v-6h-3.59v6z" class="cls-20"/><path id="path289" d="M206.75 135.24h-6v-1.16H202v-4.92h-1.22V128H202v-1.2h3.58v7.28h1.21z" class="cls-20"/><path id="path291" d="M217.55 134h-1.21v1.21h-6V134h-1.21v-6h1.21v-1.2h6v1.2h1.21zm-2.43 0v-6h-3.58v6z" class="cls-20"/><path id="path293" d="M227.14 134h-1.22v1.22h-6V134h-1.22v-1.14h2.36v1.22h3.71v-2.5h-3.63v-1.16h3.63v-2.5h-3.71v1.22h-2.36V128h1.21v-1.2h6v1.2h1.22v2.42h-1.22v1.2h1.22z" class="cls-20"/></g><g id="text"><path id="path296" d="M72.88 270.06v-7.46h-4.55v-7.47h-4.51v-7.46H60v22.39h-5.16v-38.33H60v7.46h4.5v7.41H69v7.46h3.91v-22.33H78v38.33z" class="cls-21"/><path id="path298" d="M100.57 262.6v7.46H86.4v-7.46h-4.51v-30.87H87v29.86h12.93v-29.86H105v30.87z" class="cls-21"/><path id="path300" d="M127 270.06v-22.39h-3.9v7.46h-5.15v-7.46h-3.87v22.39h-5.11v-38.33h5.11v7.46h4.51v7.41h3.87v-7.41H127v-7.46h5.12v38.33z" class="cls-21"/><path id="path302" d="M136 270.06v-38.33h23.15v8.47h-18v6.4h13.57v8.53H141.1v6.46h18v8.47z" class="cls-21"/><path id="path304" d="M181.07 270.06v-14.93h-12.92v14.93H163v-38.33h18.68v7.46h4.47v8.48h-4.47v6.39h4.47v16zm0-29.86h-12.92v6.4h12.92z" class="cls-21"/><path id="path306" d="M190.09 270.06v-8.47h9V240.2h-9v-8.47h23.15v8.47h-9v21.39h9v8.47z" class="cls-21"/><path id="path308" d="M235.82 262.6v7.46h-14.17v-7.46h-4.51v-23.41h4.51v-7.46h14.17v7.46h4.47v8.48h-5.12v-7.47h-12.92v21.39h12.92v-7.53h5.12v8.54z" class="cls-21"/><path id="path310" d="M262.22 270.06v-14.93H249.3v14.93h-5.11v-30.87h4.51v-7.46h14.17v7.46h4.47v30.87zm0-29.86H249.3v6.4h12.92z" class="cls-21"/><path id="path312" d="M271.24 270.06v-38.33h5.11v29.86h18v8.47z" class="cls-21"/><path id="path314" d="M329.62 270.06v-38.33h23.14v8.47h-18v6.4h13.56v8.53h-13.59v6.46h18v8.47z" class="cls-21"/><path id="path316" d="M374.7 270.06v-7.46h-4.55v-7.47h-4.51v-7.46h-3.86v22.39h-5.11v-38.33h5.11v7.46h4.51v7.41h4.51v7.46h3.9v-22.33h5.11v38.33z" class="cls-21"/><path id="path318" d="M402.39 262.6v7.46h-14.17v-7.46h-4.51v-23.41h4.51v-7.46h14.17v7.46h4.47v8.48h-5.11v-7.47h-12.92v21.39h12.92v-7.53h5.11v8.54z" class="cls-21"/><path id="path320" d="M429.44 262.6v7.46h-14.17v-7.46h-4.51v-23.41h4.51v-7.46h14.17v7.46h4.47v23.41zm-.64-22.4h-12.92v21.39h12.92z" class="cls-21"/><path id="path322" d="M456.49 262.6v7.46h-18.68v-38.33h18.68v7.46H461v23.41zm-.64-22.4h-12.92v21.39h12.92z" class="cls-21"/><path id="path324" d="M464.86 270.06v-8.47h9V240.2h-9v-8.47H488v8.47h-9v21.39h9v8.47z" class="cls-21"/><path id="path326" d="M510 270.06v-7.46h-4.6v-7.47h-4.51v-7.46H497v22.39h-5.12v-38.33H497v7.46h4.51v7.41H506v7.46h4v-22.33h5.11v38.33z" class="cls-21"/><path id="path328" d="M537.64 262.6v7.46h-14.17v-7.46H519v-23.41h4.51v-7.46h14.17v8.47h-13.6v21.39H537v-6.46h-9.06v-8.53h14.17v16z" class="cls-21"/><path id="path330" d="M76 270.06v-7.46h-4.58v-7.47h-4.51v-7.46H63v22.39h-5.07v-38.33H63v7.46h4.51v7.41h4.51v7.46H76v-22.33h5.12v38.33z" class="cls-22"/><path id="path332" d="M103.66 262.6v7.46H89.49v-7.46H85v-30.87h5.11v29.86H103v-29.86h5.12v30.87z" class="cls-22"/><path id="path334" d="M130.06 270.06v-22.39h-3.9v7.46H121v-7.46h-3.87v22.39H112v-38.33h5.11v7.46h4.51v7.41h3.87v-7.41h4.54v-7.46h5.12v38.33z" class="cls-22"/><path id="path336" d="M139.08 270.06v-38.33h23.15v8.47h-18v6.4h13.57v8.53h-13.61v6.46h18v8.47z" class="cls-22"/><path id="path338" d="M184.16 270.06v-14.93h-12.92v14.93h-5.11v-38.33h18.68v7.46h4.47v8.48h-4.47v6.39h4.47v16zm0-29.86h-12.92v6.4h12.92z" class="cls-22"/><path id="path340" d="M193.18 270.06v-8.47h9V240.2h-9v-8.47h23.15v8.47h-9v21.39h9v8.47z" class="cls-22"/><path id="path342" d="M238.9 262.6v7.46h-14.17v-7.46h-4.5v-23.41h4.5v-7.46h14.17v7.46h4.48v8.48h-5.12v-7.47h-12.92v21.39h12.92v-7.53h5.12v8.54z" class="cls-22"/><path id="path344" d="M265.31 270.06v-14.93h-12.92v14.93h-5.11v-30.87h4.5v-7.46H266v7.46h4.47v30.87zm0-29.86h-12.92v6.4h12.92z" class="cls-22"/><path id="path346" d="M274.32 270.06v-38.33h5.12v29.86h18v8.47z" class="cls-22"/><path id="path348" d="M332.7 270.06v-38.33h23.15v8.47h-18v6.4h13.56v8.53h-13.59v6.46h18v8.47z" class="cls-22"/><path id="path350" d="M377.79 270.06v-7.46h-4.55v-7.47h-4.51v-7.46h-3.86v22.39h-5.12v-38.33h5.12v7.46h4.51v7.41h4.51v7.46h3.9v-22.33h5.11v38.33z" class="cls-22"/><path id="path352" d="M405.48 262.6v7.46h-14.17v-7.46h-4.51v-23.41h4.51v-7.46h14.17v7.46H410v8.48h-5.11v-7.47h-12.97v21.39h12.92v-7.53H410v8.54z" class="cls-22"/><path id="path354" d="M432.53 262.6v7.46h-14.17v-7.46h-4.51v-23.41h4.51v-7.46h14.17v7.46H437v23.41zm-.64-22.4H419v21.39h12.92z" class="cls-22"/><path id="path356" d="M459.58 262.6v7.46H440.9v-38.33h18.68v7.46h4.47v23.41zm-.64-22.4H446v21.39h12.92z" class="cls-22"/><path id="path358" d="M468 270.06v-8.47h9V240.2h-9v-8.47h23.1v8.47h-9v21.39h9v8.47z" class="cls-22"/><path id="path360" d="M513 270.06v-7.46h-4.55v-7.47H504v-7.46h-3.86v22.39H495v-38.33h5.12v7.46h4.5v7.41h4.51v7.46H513v-22.33h5.11v38.33z" class="cls-22"/><path id="path362" d="M540.73 262.6v7.46h-14.17v-7.46h-4.51v-23.41h4.51v-7.46h14.17v8.47h-13.56v21.39h12.91v-6.46H531v-8.53h14.2v16z" class="cls-22"/></g></svg>