<?xml version="1.0" standalone="no"?>
<!DOCTYPE svg PUBLIC "-//W3C//DTD SVG 20010904//EN"
 "http://www.w3.org/TR/2001/REC-SVG-20010904/DTD/svg10.dtd">
<svg version="1.0" xmlns="http://www.w3.org/2000/svg"
 width="873.000000pt" height="1280.000000pt" viewBox="0 0 873.000000 1280.000000"
 preserveAspectRatio="xMidYMid meet">
<metadata>
Created by potrace 1.15, written by Peter Selinger 2001-2017
</metadata>
<g transform="translate(0.000000,1280.000000) scale(0.100000,-0.100000)"
fill="#000000" stroke="none">
<path d="M7200 12789 c-321 -37 -590 -160 -734 -335 -56 -68 -108 -172 -131
-259 -16 -64 -38 -282 -29 -297 3 -4 23 -8 45 -8 36 0 40 -2 37 -22 l-3 -23
296 -3 296 -2 6 82 c15 208 86 307 263 368 161 56 417 26 497 -58 61 -64 89
-189 67 -297 -43 -209 -203 -309 -515 -324 l-130 -6 -3 -177 -2 -178 22 0 c45
0 70 -12 65 -30 -4 -15 10 -18 137 -23 292 -14 445 -82 511 -229 38 -84 40
-203 6 -291 -28 -72 -114 -163 -190 -201 -216 -110 -569 -75 -672 67 -28 39
-69 150 -69 188 0 12 -7 19 -19 19 -21 0 -31 19 -31 56 l0 24 -330 0 c-279 0
-330 -2 -330 -14 0 -92 42 -260 87 -350 58 -117 199 -274 318 -356 118 -81
295 -148 481 -181 143 -25 436 -31 579 -10 492 70 808 301 901 656 22 86 25
275 5 355 -23 96 -75 190 -150 271 -85 92 -149 143 -265 207 l-89 50 34 17
c68 35 178 118 231 173 104 110 142 206 142 367 0 181 -48 301 -174 438 -155
166 -322 257 -567 308 -179 37 -413 48 -593 28z"/>
<path d="M4050 12754 c-14 -2 -59 -9 -100 -15 -507 -73 -810 -391 -814 -854
l-1 -120 37 -3 c28 -2 38 -8 40 -23 2 -11 6 -20 11 -19 4 0 142 0 307 0 l300
0 0 88 c0 95 17 178 51 244 31 61 114 144 173 173 147 72 367 72 519 0 66 -32
99 -67 136 -145 24 -51 26 -65 26 -195 0 -137 -1 -141 -32 -208 -76 -161 -244
-288 -793 -601 -124 -71 -264 -155 -311 -188 -311 -212 -448 -419 -498 -755
-6 -39 -11 -86 -11 -102 0 -30 2 -31 44 -31 41 0 43 -1 38 -25 l-4 -25 1141 0
1141 0 0 225 c0 218 -1 225 -20 225 -15 0 -21 9 -26 40 l-7 40 -680 0 -681 0
54 55 c81 82 176 147 526 356 395 237 491 304 624 438 149 150 204 261 218
441 15 181 -21 357 -99 485 -41 68 -168 207 -240 262 -122 94 -294 168 -489
210 -98 21 -147 25 -335 28 -121 2 -231 2 -245 -1z"/>
<path d="M1238 12661 c-115 -240 -407 -374 -868 -399 l-135 -7 0 -175 0 -175
43 -3 c36 -3 43 -6 40 -23 -3 -19 4 -20 365 -19 l367 0 0 -910 0 -910 40 0
c36 0 40 -2 40 -25 l0 -25 320 0 320 0 0 1335 c0 1308 0 1335 -19 1335 -15 0
-21 10 -26 40 l-7 40 -221 -1 -222 0 -37 -78z"/>
<path d="M7306 9370 c-425 -53 -736 -270 -906 -633 -105 -223 -143 -444 -144
-827 -1 -461 59 -721 220 -946 54 -76 210 -226 287 -278 355 -235 934 -266
1332 -72 131 64 218 129 307 226 183 201 272 512 224 785 -30 171 -85 287
-194 411 -133 153 -273 249 -441 303 -143 47 -211 56 -401 55 -145 0 -190 -4
-262 -22 -101 -25 -194 -65 -286 -123 l-65 -41 7 101 c14 202 69 346 170 446
98 97 223 145 382 145 171 0 275 -40 337 -130 21 -30 47 -58 57 -62 10 -4 24
-16 30 -27 10 -20 18 -21 315 -21 168 0 305 3 305 8 -1 28 -43 168 -65 215
-36 74 -159 215 -244 278 -123 91 -286 159 -471 195 -98 19 -388 27 -494 14z
m402 -1405 c210 -50 312 -187 312 -419 0 -156 -49 -276 -150 -369 -107 -99
-239 -143 -400 -134 -203 12 -338 94 -399 243 -36 86 -42 256 -12 352 49 163
181 286 349 326 76 19 222 19 300 1z"/>
<path d="M1231 9305 c-10 -11 -291 -383 -625 -827 l-606 -807 0 -226 0 -225
40 0 c36 0 40 -2 40 -25 l0 -25 640 0 640 0 0 -275 0 -275 46 0 c41 0 45 -2
42 -22 l-3 -23 320 0 320 0 2 295 2 295 176 3 175 2 0 205 0 205 -23 0 c-20 0
-24 5 -25 36 -1 20 -3 38 -4 40 -2 1 -70 4 -151 6 l-147 3 -3 790 -2 790 -22
-3 c-19 -3 -22 2 -25 38 l-3 41 -393 2 c-382 2 -394 1 -411 -18z m129 -1125
l0 -521 -396 1 c-241 1 -394 5 -392 11 3 9 781 1027 786 1028 1 1 2 -233 2
-519z"/>
<path d="M3445 9278 c-7 -21 -295 -1472 -295 -1485 0 -9 16 -13 46 -13 41 0
45 -2 42 -22 l-3 -23 280 -3 281 -2 31 44 c39 55 116 107 203 137 53 18 88 23
190 23 240 2 377 -62 452 -208 94 -185 70 -442 -55 -599 -99 -122 -298 -186
-522 -165 -182 16 -289 79 -316 187 -10 38 -19 55 -35 61 -14 6 -24 21 -28 44
l-7 36 -329 0 -330 0 0 -29 c0 -68 32 -181 77 -271 41 -81 62 -110 148 -195
144 -145 223 -195 418 -264 167 -59 286 -76 532 -75 201 0 231 2 349 27 394
84 682 296 806 593 117 282 83 633 -85 869 -63 89 -200 223 -284 279 -198 132
-446 194 -726 183 -153 -6 -241 -24 -372 -77 -43 -18 -84 -35 -92 -38 -8 -3
-12 -1 -8 5 3 5 24 104 47 219 23 115 43 217 46 226 5 17 50 18 707 20 l702 3
0 220 0 220 -22 3 c-19 3 -23 10 -23 43 l0 39 -910 0 c-720 0 -912 -3 -915
-12z"/>
<path d="M7255 5975 c-302 -38 -523 -139 -700 -320 -166 -170 -245 -369 -245
-617 0 -138 12 -217 49 -325 56 -162 151 -294 308 -428 168 -143 384 -221 644
-232 273 -12 478 48 620 181 l42 40 -6 -85 c-14 -184 -84 -362 -177 -455 -98
-98 -207 -138 -375 -137 -177 0 -300 48 -343 133 -12 25 -28 45 -35 45 -6 0
-19 19 -27 43 l-14 42 -321 -2 -320 -3 4 -45 c5 -73 40 -170 86 -246 47 -74
195 -226 278 -283 119 -82 310 -149 501 -177 148 -22 420 -14 551 15 460 103
718 365 845 857 141 545 82 1175 -139 1494 -62 90 -241 266 -329 324 -239 158
-564 223 -897 181z m389 -491 c170 -41 260 -134 302 -311 19 -82 14 -231 -10
-309 -24 -78 -91 -170 -158 -220 -105 -77 -227 -110 -373 -101 -195 13 -314
84 -369 223 -71 176 -53 396 43 541 112 168 326 235 565 177z"/>
<path d="M4049 5935 c-368 -58 -654 -226 -768 -454 -87 -172 -88 -384 -3 -531
49 -85 195 -220 295 -273 53 -28 54 -26 -33 -68 -184 -89 -334 -232 -392 -374
-39 -94 -43 -121 -43 -265 1 -130 3 -153 28 -225 14 -44 43 -109 64 -145 45
-76 191 -232 283 -301 230 -173 612 -263 1009 -237 363 23 649 135 847 332 79
79 129 152 168 244 86 203 69 476 -39 637 -75 113 -216 236 -364 318 l-64 35
73 36 c172 85 267 194 315 361 39 132 10 330 -63 445 -42 66 -176 205 -248
256 -142 101 -359 181 -569 209 -135 18 -380 18 -496 0z m493 -484 c191 -49
271 -132 271 -281 1 -87 -29 -154 -97 -219 -101 -95 -222 -135 -406 -135 -130
0 -208 17 -307 65 -78 38 -117 84 -139 166 -15 54 -16 74 -6 126 19 103 100
197 209 244 127 54 336 69 475 34z m28 -1081 c97 -33 133 -54 178 -106 64 -72
86 -139 86 -264 1 -140 -22 -200 -108 -286 -105 -104 -226 -148 -416 -148
-138 -1 -217 15 -313 63 -87 44 -128 94 -158 193 -46 150 -8 315 97 428 55 59
157 113 254 135 95 22 294 14 380 -15z"/>
<path d="M100 5690 l0 -240 41 0 c36 0 41 -2 36 -20 -5 -20 1 -20 775 -22
l781 -3 -108 -115 c-117 -124 -304 -346 -401 -475 -261 -346 -436 -717 -539
-1140 -32 -133 -85 -400 -85 -431 0 -8 10 -14 23 -14 45 0 69 -12 64 -31 -5
-18 8 -19 314 -19 175 0 319 1 319 3 0 1 7 61 15 132 87 742 383 1303 1054
1997 l151 156 0 191 c0 184 -1 191 -20 191 -15 0 -21 9 -26 40 l-7 40 -1193 0
-1194 0 0 -240z"/>
<path d="M4065 2954 c-446 -69 -766 -330 -915 -747 -59 -166 -85 -301 -100
-524 -23 -360 33 -713 155 -968 76 -159 233 -356 360 -453 76 -58 212 -127
315 -161 279 -90 671 -88 946 4 274 92 491 280 623 540 107 212 158 441 168
761 17 546 -128 973 -428 1260 -170 162 -386 258 -662 294 -107 14 -353 11
-462 -6z m424 -543 c82 -25 159 -85 194 -149 68 -126 107 -389 107 -732 0
-673 -121 -933 -445 -957 -167 -13 -315 66 -379 200 -28 60 -59 198 -77 342
-17 131 -17 599 0 730 43 346 133 506 318 565 79 26 203 26 282 1z"/>
</g>
</svg>
