<svg version="1.1" xmlns="http://www.w3.org/2000/svg" xmlns:xlink="http://www.w3.org/1999/xlink" width="600" height="299.54167" viewBox="0,0,600,299.54167"><g transform="translate(64.5,-32.5)"><g data-paper-data="{&quot;isPaintingLayer&quot;:true}" fill-rule="nonzero" stroke-linejoin="miter" stroke-miterlimit="10" stroke-dasharray="" stroke-dashoffset="0" style="mix-blend-mode: normal"><path d="M-64.5,332v-299.5h600v299.5z" fill="#ff8800" stroke="none" stroke-width="1" stroke-linecap="butt"/><path d="M65.56522,277.85366v-195.70732h348.86957v195.70732z" fill="none" stroke="#ffffff" stroke-width="20" stroke-linecap="butt"/><path d="M187.5,82.25c0,0 -1.57872,-25.44825 0,-27c2.43624,-2.3946 101.95941,-2.87511 105,0c2.3966,2.26617 0,27 0,27" fill="none" stroke="#ffffff" stroke-width="15" stroke-linecap="round"/><path d="M138.25,327v-54h203.5v54z" fill="#ffffff" stroke="none" stroke-width="0" stroke-linecap="butt"/><path d="M81.5,331.85v-21.1h317v21.1z" fill="#ffffff" stroke="none" stroke-width="0" stroke-linecap="butt"/><path d="M80.6,111.3l13,-17.4l13.2,17.4z" fill="#ffffff" stroke="#ffffff" stroke-width="0" stroke-linecap="butt"/><path d="M373.5,251.6l-279,1l-0.5,-135.3" fill="none" stroke="#ffffff" stroke-width="5" stroke-linecap="round"/><path d="M382.5,237.5l17.4,13l-17.4,13.2z" fill="#ffffff" stroke="#ffffff" stroke-width="0" stroke-linecap="butt"/><g fill="none" stroke-opacity="0.25098" stroke="#ffffff" stroke-width="2.5" stroke-linecap="round"><g><path d="M84.75,90.25v179.5"/><path d="M94.25,90.25v179.5"/><path d="M104.25,90.25v179.5"/><path d="M113.75,90.25v179.5"/><path d="M123.75,90.25v179.5"/><path d="M133.25,90.25v179.5"/><path d="M143.25,90.25v179.5"/><path d="M152.75,90.25v179.5"/><path d="M161.25,90.25v179.5"/><path d="M170.75,90.25v179.5"/><path d="M180.75,90.25v179.5"/><path d="M190.25,90.25v179.5"/><path d="M200.25,90.25v179.5"/><path d="M209.75,90.25v179.5"/><path d="M219.75,90.25v179.5"/><path d="M229.25,90.25v179.5"/><path d="M238.25,90.25v179.5"/><path d="M247.75,90.25v179.5"/><path d="M257.75,90.25v179.5"/><path d="M267.25,90.25v179.5"/><path d="M277.25,90.25v179.5"/><path d="M286.75,90.25v179.5"/><path d="M296.75,90.25v179.5"/><path d="M306.25,90.25v179.5"/><path d="M314.75,90.25v179.5"/><path d="M324.25,90.25v179.5"/><path d="M334.25,90.25v179.5"/><path d="M343.75,90.25v179.5"/><path d="M353.75,90.25v179.5"/><path d="M363.25,90.25v179.5"/><path d="M373.25,90.25v179.5"/><path d="M382.75,90.25v179.5"/><path d="M392.75,90.25v179.5"/><path d="M402.25,90.25v179.5"/></g><path d="M72.75,97.75h334.5"/><path d="M72.75,107.25h334.5"/><path d="M72.75,117.25h334.5"/><path d="M72.75,126.75h334.5"/><path d="M72.75,136.75h334.5"/><path d="M72.75,146.25h334.5"/><path d="M72.75,155.25h334.5"/><path d="M72.75,164.75h334.5"/><path d="M72.75,174.75h334.5"/><path d="M72.75,184.25h334.5"/><path d="M72.75,194.25h334.5"/><path d="M72.75,203.75h334.5"/><path d="M72.75,213.75h334.5"/><path d="M72.75,223.25h334.5"/><path d="M72.75,231.75h334.5"/><path d="M72.75,241.25h334.5"/><path d="M72.75,251.25h334.5"/><path d="M72.75,260.75h334.5"/></g><path d="M-51,133.375v-44h44v44z" fill-opacity="0.50196" fill="#ffffff" stroke-opacity="0.50196" stroke="#ffffff" stroke-width="0" stroke-linecap="butt"/><path d="M2,80.375v-44h44v44z" fill-opacity="0.50196" fill="#ffffff" stroke-opacity="0.50196" stroke="#ffffff" stroke-width="0" stroke-linecap="butt"/><path d="M2,133.375v-44h44v44z" fill-opacity="0.50196" fill="#ffffff" stroke-opacity="0.50196" stroke="#ffffff" stroke-width="0" stroke-linecap="butt"/><path d="M-51,185.70834v-44h44v44z" fill-opacity="0.50196" fill="#ffffff" stroke-opacity="0.50196" stroke="#ffffff" stroke-width="0" stroke-linecap="butt"/><path d="M-51,238.70834v-44h44v44z" fill-opacity="0.50196" fill="#ffffff" stroke-opacity="0.50196" stroke="#ffffff" stroke-width="0" stroke-linecap="butt"/><path d="M2,185.70834v-44h44v44z" fill-opacity="0.50196" fill="#ffffff" stroke-opacity="0.50196" stroke="#ffffff" stroke-width="0" stroke-linecap="butt"/><path d="M2,238.70834v-44h44v44z" fill-opacity="0.50196" fill="#ffffff" stroke-opacity="0.50196" stroke="#ffffff" stroke-width="0" stroke-linecap="butt"/><path d="M-51,291.04167v-44h44v44z" fill-opacity="0.50196" fill="#ffffff" stroke-opacity="0.50196" stroke="#ffffff" stroke-width="0" stroke-linecap="butt"/><path d="M-51,332.04167v-32h44v32z" fill-opacity="0.50196" fill="#ffffff" stroke-opacity="0.50196" stroke="#ffffff" stroke-width="0" stroke-linecap="butt"/><path d="M2,291.04167v-44h44v44z" fill-opacity="0.50196" fill="#ffffff" stroke-opacity="0.50196" stroke="#ffffff" stroke-width="0" stroke-linecap="butt"/><path d="M2,332.04167v-32h44v32z" fill-opacity="0.50196" fill="#ffffff" stroke-opacity="0.50196" stroke="#ffffff" stroke-width="0" stroke-linecap="butt"/><path d="M56,291.04167v-20.33334h44v20.33334z" fill-opacity="0.50196" fill="#ffffff" stroke-opacity="0.50196" stroke="#ffffff" stroke-width="0" stroke-linecap="butt"/><path d="M55.66667,332.04167v-32h44v32z" fill-opacity="0.50196" fill="#ffffff" stroke-opacity="0.50196" stroke="#ffffff" stroke-width="0" stroke-linecap="butt"/><path d="M56,80.375v-44h44v44z" fill-opacity="0.50196" fill="#ffffff" stroke-opacity="0.50196" stroke="#ffffff" stroke-width="0" stroke-linecap="butt"/><path d="M109,80.375v-44h44v44z" fill-opacity="0.50196" fill="#ffffff" stroke-opacity="0.50196" stroke="#ffffff" stroke-width="0" stroke-linecap="butt"/><path d="M162,80.375v-44h44v44z" fill-opacity="0.50196" fill="#ffffff" stroke-opacity="0.50196" stroke="#ffffff" stroke-width="0" stroke-linecap="butt"/><path d="M216,80.375v-44h44v44z" fill-opacity="0.50196" fill="#ffffff" stroke-opacity="0.50196" stroke="#ffffff" stroke-width="0" stroke-linecap="butt"/><path d="M269,80.375v-44h44v44z" fill-opacity="0.50196" fill="#ffffff" stroke-opacity="0.50196" stroke="#ffffff" stroke-width="0" stroke-linecap="butt"/><path d="M321.5,80.375v-44h44v44z" fill-opacity="0.50196" fill="#ffffff" stroke-opacity="0.50196" stroke="#ffffff" stroke-width="0" stroke-linecap="butt"/><path d="M374.5,80.375v-44h44v44z" fill-opacity="0.50196" fill="#ffffff" stroke-opacity="0.50196" stroke="#ffffff" stroke-width="0" stroke-linecap="butt"/><path d="M427.5,80.375v-44h44v44z" fill-opacity="0.50196" fill="#ffffff" stroke-opacity="0.50196" stroke="#ffffff" stroke-width="0" stroke-linecap="butt"/><path d="M481.5,80.375v-44h44v44z" fill-opacity="0.50196" fill="#ffffff" stroke-opacity="0.50196" stroke="#ffffff" stroke-width="0" stroke-linecap="butt"/><path d="M481.66667,133.375v-44h44v44z" data-paper-data="{&quot;index&quot;:null}" fill-opacity="0.50196" fill="#ffffff" stroke-opacity="0.50196" stroke="#ffffff" stroke-width="0" stroke-linecap="butt"/><path d="M428.66667,133.375v-44h44v44z" data-paper-data="{&quot;index&quot;:null}" fill-opacity="0.50196" fill="#ffffff" stroke-opacity="0.50196" stroke="#ffffff" stroke-width="0" stroke-linecap="butt"/><path d="M481.66667,185.70834v-44h44v44z" data-paper-data="{&quot;index&quot;:null}" fill-opacity="0.50196" fill="#ffffff" stroke-opacity="0.50196" stroke="#ffffff" stroke-width="0" stroke-linecap="butt"/><path d="M481.66667,238.70834v-44h44v44z" data-paper-data="{&quot;index&quot;:null}" fill-opacity="0.50196" fill="#ffffff" stroke-opacity="0.50196" stroke="#ffffff" stroke-width="0" stroke-linecap="butt"/><path d="M428.66667,185.70834v-44h44v44z" data-paper-data="{&quot;index&quot;:null}" fill-opacity="0.50196" fill="#ffffff" stroke-opacity="0.50196" stroke="#ffffff" stroke-width="0" stroke-linecap="butt"/><path d="M428.66667,238.70834v-44h44v44z" data-paper-data="{&quot;index&quot;:null}" fill-opacity="0.50196" fill="#ffffff" stroke-opacity="0.50196" stroke="#ffffff" stroke-width="0" stroke-linecap="butt"/><path d="M481.66667,291.04167v-44h44v44z" data-paper-data="{&quot;index&quot;:null}" fill-opacity="0.50196" fill="#ffffff" stroke-opacity="0.50196" stroke="#ffffff" stroke-width="0" stroke-linecap="butt"/><path d="M481.66667,332.04167v-32h44v32z" data-paper-data="{&quot;index&quot;:null}" fill-opacity="0.50196" fill="#ffffff" stroke-opacity="0.50196" stroke="#ffffff" stroke-width="0" stroke-linecap="butt"/><path d="M428.66667,291.04167v-44h44v44z" data-paper-data="{&quot;index&quot;:null}" fill-opacity="0.50196" fill="#ffffff" stroke-opacity="0.50196" stroke="#ffffff" stroke-width="0" stroke-linecap="butt"/><path d="M428.66667,332.04167v-32h44v32z" data-paper-data="{&quot;index&quot;:null}" fill-opacity="0.50196" fill="#ffffff" stroke-opacity="0.50196" stroke="#ffffff" stroke-width="0" stroke-linecap="butt"/><path d="M375,291.04167v-20.33334l44,-0.33333v20.66667z" data-paper-data="{&quot;index&quot;:null}" fill-opacity="0.50196" fill="#ffffff" stroke-opacity="0.50196" stroke="#ffffff" stroke-width="0" stroke-linecap="butt"/><path d="M375,332.04167v-32h44v32z" data-paper-data="{&quot;index&quot;:null}" fill-opacity="0.50196" fill="#ffffff" stroke-opacity="0.50196" stroke="#ffffff" stroke-width="0" stroke-linecap="butt"/><path d="M108.33333,331.84167v-31.8h44v31.8z" fill-opacity="0.50196" fill="#ffffff" stroke-opacity="0.50196" stroke="#ffffff" stroke-width="0" stroke-linecap="butt"/><path d="M108.33334,291.04167v-20.33334h44v20.33334z" fill-opacity="0.50196" fill="#ffffff" stroke-opacity="0.50196" stroke="#ffffff" stroke-width="0" stroke-linecap="butt"/><path d="M323.00001,331.84167v-31.8h44v31.8z" data-paper-data="{&quot;index&quot;:null}" fill-opacity="0.50196" fill="#ffffff" stroke-opacity="0.50196" stroke="#ffffff" stroke-width="0" stroke-linecap="butt"/><path d="M323,291.04167v-20.33334h44v20.33334z" data-paper-data="{&quot;index&quot;:null}" fill-opacity="0.50196" fill="#ffffff" stroke-opacity="0.50196" stroke="#ffffff" stroke-width="0" stroke-linecap="butt"/><path d="M-13.27294,42.61461c8.63059,8.63059 6.4,37.65412 6.4,37.65412c0,0 -29.02353,2.23059 -37.65412,-6.4c-8.63059,-8.63059 -6.3,-37.55412 -6.3,-37.55412c0,0 28.92353,-2.33059 37.55412,6.3zM-21.85454,67.07803l7.99462,0.27811l0.12273,-4.46798l-4.25371,-0.1283l-12.13637,-19.68182l-12.17522,-0.25632l0.05739,4.15297l8.21982,0.16278c0,0 3.25982,6.2417 4.05819,7.83458c0.03454,0.06892 -8.04067,8.28585 -8.04067,8.28585l0.09483,3.91372l3.80122,0.14563l8.00106,-8.45508z" fill-opacity="0.50196" fill="#ffffff" stroke="#ffffff" stroke-width="0" stroke-linecap="butt"/></g></g></svg>
