<svg xmlns="http://www.w3.org/2000/svg" width="600" height="300"><path fill="#ffab19" d="M0 300V0h600v300z" style="fill-rule:nonzero;stroke-linecap:butt;stroke-linejoin:miter;stroke-miterlimit:10;stroke-dasharray:none;stroke-dashoffset:0"/><path d="M56.614 321.468 71.8-41.214l21.98.92-15.186 362.682zM131.548 324.606l15.186-362.683 21.98.92-15.185 362.683zM206.482 327.743l15.186-362.682 21.981.92-15.186 362.683zM281.417 330.88 296.603-31.8l21.98.92-15.186 362.682zM356.35 334.019l15.187-362.683 21.98.92-15.185 362.683zM431.285 337.156l15.186-362.682 21.981.92-15.186 362.683zM506.22 340.294l15.186-362.682 21.98.92L528.2 341.214zM581.154 343.431 596.34-19.25l21.98.92-15.185 362.683zM-18.32 318.33-3.136-44.352l21.981.92L3.66 319.252z" style="fill:#ffb533;fill-rule:nonzero;stroke:none;stroke-width:0;stroke-linecap:butt;stroke-linejoin:miter;stroke-miterlimit:10;stroke-dasharray:none;stroke-dashoffset:0"/><path d="m688.699 177.285-778.318-32.59.92-21.98 778.318 32.59zM691.836 102.35-86.482 69.762l.92-21.98 778.319 32.59zM694.974 27.417-83.344-5.173l.92-21.98L695.894 5.435zM685.561 252.22l-778.318-32.59.92-21.98 778.319 32.589zM682.424 327.154l-778.318-32.59.92-21.98 778.318 32.59z" style="fill:#ffb533;fill-rule:nonzero;stroke:none;stroke-width:0;stroke-linecap:butt;stroke-linejoin:miter;stroke-miterlimit:10;stroke-dasharray:none;stroke-dashoffset:0"/><path fill="#fff" stroke="#000" stroke-opacity=".129" stroke-width="12.282" d="M217.247 173.765V47.65l78.203-19.827L418.813 47.65v126.116l-59.356 23.43-.006 7.843 48.165 11.32-.201 5.74-38.567 19.636-152.318-33.4.075-7.05 44.83-16.561 16.088 2.955.235-3.107zM177.687 251.6v-6.549l45.145-17.332 112.716 24.906v4.707l-38.988 19.312z" style="fill-rule:nonzero;stroke-linecap:butt;stroke-linejoin:miter;stroke-miterlimit:10;stroke-dasharray:none;stroke-dashoffset:0"/><path fill="#fff" d="M217.247 173.765V47.65l78.203-19.827L418.813 47.65v126.116l-59.356 23.43-.006 7.843 48.165 11.32-.201 5.74-38.567 19.636-152.318-33.4.075-7.05 44.83-16.561 16.088 2.955.235-3.107zM177.687 251.6v-6.549l45.145-17.332 112.716 24.906v4.707l-38.988 19.312z" style="fill-rule:nonzero;stroke-linecap:butt;stroke-linejoin:miter;stroke-miterlimit:10;stroke-dasharray:none;stroke-dashoffset:0"/><path fill="#ffab19" d="M224.095 166.697V56.564l127.737 22.109v110.132Z" style="fill-rule:nonzero;stroke-linecap:butt;stroke-linejoin:miter;stroke-miterlimit:10;stroke-dasharray:none;stroke-dashoffset:0"/><path fill="#fff" d="M230.392 160.802V66.87l4.504 1.2v93.932z" style="fill-rule:nonzero;stroke-linecap:butt;stroke-linejoin:miter;stroke-miterlimit:10;stroke-dasharray:none;stroke-dashoffset:0"/><path fill="#fff" d="m225.937 72.756 7.112-11.054 6.045 12.59zM234.896 157.34l103.889 18.991-.256 3.838-103.633-18.167z" style="fill-rule:nonzero;stroke-linecap:butt;stroke-linejoin:miter;stroke-miterlimit:10;stroke-dasharray:none;stroke-dashoffset:0"/><path fill="#fff" d="m336.527 171.266 11.695 9.725-12.235 2.313z" style="fill-rule:nonzero;stroke-linecap:butt;stroke-linejoin:miter;stroke-miterlimit:10;stroke-dasharray:none;stroke-dashoffset:0"/></svg>