<svg xmlns="http://www.w3.org/2000/svg" width="600" height="299.54167"><path fill="#f80" d="M0 299.5V0h600v299.5z" style="mix-blend-mode:normal;fill-rule:nonzero;stroke-linejoin:miter;stroke-miterlimit:10;stroke-dasharray:none;stroke-dashoffset:0"/><path fill="none" stroke="#fff" stroke-width="20" d="M130.06522 245.35366V49.64634h348.86957v195.70732z" style="mix-blend-mode:normal;fill-rule:nonzero;stroke-linejoin:miter;stroke-miterlimit:10;stroke-dasharray:none;stroke-dashoffset:0"/><path fill="none" stroke="#fff" stroke-linecap="round" stroke-width="15" d="M252 49.75s-1.57872-25.44825 0-27c2.43624-2.3946 101.95941-2.87511 105 0 2.3966 2.26617 0 27 0 27" style="mix-blend-mode:normal;fill-rule:nonzero;stroke-linejoin:miter;stroke-miterlimit:10;stroke-dasharray:none;stroke-dashoffset:0"/><path fill="#fff" d="M202.75 294.5v-54h203.5v54z" style="mix-blend-mode:normal;fill-rule:nonzero;stroke-linejoin:miter;stroke-miterlimit:10;stroke-dasharray:none;stroke-dashoffset:0"/><path fill="#fff" d="M146 299.35v-21.1h317v21.1zM145.1 78.8l13-17.4 13.2 17.4z" style="mix-blend-mode:normal;fill-rule:nonzero;stroke-linejoin:miter;stroke-miterlimit:10;stroke-dasharray:none;stroke-dashoffset:0"/><path fill="none" stroke="#fff" stroke-linecap="round" stroke-width="5" d="m438 219.1-279 1-.5-135.3" style="mix-blend-mode:normal;fill-rule:nonzero;stroke-linejoin:miter;stroke-miterlimit:10;stroke-dasharray:none;stroke-dashoffset:0"/><path fill="#fff" d="m447 205 17.4 13-17.4 13.2z" style="mix-blend-mode:normal;fill-rule:nonzero;stroke-linejoin:miter;stroke-miterlimit:10;stroke-dasharray:none;stroke-dashoffset:0"/><g fill="none" stroke="#fff" stroke-linecap="round" stroke-opacity=".25098" stroke-width="2.5" style="mix-blend-mode:normal;fill-rule:nonzero;stroke-linejoin:miter;stroke-miterlimit:10;stroke-dasharray:none;stroke-dashoffset:0"><path d="M149.25 57.75v179.5M158.75 57.75v179.5M168.75 57.75v179.5M178.25 57.75v179.5M188.25 57.75v179.5M197.75 57.75v179.5M207.75 57.75v179.5M217.25 57.75v179.5M225.75 57.75v179.5M235.25 57.75v179.5M245.25 57.75v179.5M254.75 57.75v179.5M264.75 57.75v179.5M274.25 57.75v179.5M284.25 57.75v179.5M293.75 57.75v179.5M302.75 57.75v179.5M312.25 57.75v179.5M322.25 57.75v179.5M331.75 57.75v179.5M341.75 57.75v179.5M351.25 57.75v179.5M361.25 57.75v179.5M370.75 57.75v179.5M379.25 57.75v179.5M388.75 57.75v179.5M398.75 57.75v179.5M408.25 57.75v179.5M418.25 57.75v179.5M427.75 57.75v179.5M437.75 57.75v179.5M447.25 57.75v179.5M457.25 57.75v179.5M466.75 57.75v179.5M137.25 65.25h334.5M137.25 74.75h334.5M137.25 84.75h334.5M137.25 94.25h334.5M137.25 104.25h334.5M137.25 113.75h334.5M137.25 122.75h334.5M137.25 132.25h334.5M137.25 142.25h334.5M137.25 151.75h334.5M137.25 161.75h334.5M137.25 171.25h334.5M137.25 181.25h334.5M137.25 190.75h334.5M137.25 199.25h334.5M137.25 208.75h334.5M137.25 218.75h334.5M137.25 228.25h334.5"/></g><path fill="#fff" fill-opacity=".50196" d="M13.5 100.875v-44h44v44zM66.5 47.875v-44h44v44zM13.5 47.875V3.8750003h44V47.875ZM66.5 100.875v-44h44v44zM13.5 153.20834v-44h44v44zM13.5 206.20834v-44h44v44zM66.5 153.20834v-44h44v44zM66.5 206.20834v-44h44v44zM13.5 258.54167v-44h44v44zM13.5 299.54167v-32h44v32zM66.5 258.54167v-44h44v44zM66.5 299.54167v-32h44v32zM120.5 258.54167v-20.33334h44v20.33334zM120.16667 299.54167v-32h44v32zM120.5 47.875v-44h44v44zM173.5 47.875v-44h44v44zM226.5 47.875v-44h44v44zM280.5 47.875v-44h44v44zM333.5 47.875v-44h44v44zM386 47.875v-44h44v44zM439 47.875v-44h44v44zM492 47.875v-44h44v44zM546 47.875v-44h44v44z" style="mix-blend-mode:normal;fill-rule:nonzero;stroke-linejoin:miter;stroke-miterlimit:10;stroke-dasharray:none;stroke-dashoffset:0"/><path fill="#fff" fill-opacity=".50196" d="M546.16667 100.875v-44h44v44zM493.16667 100.875v-44h44v44zM546.16667 153.20834v-44h44v44zM546.16667 206.20834v-44h44v44zM493.16667 153.20834v-44h44v44zM493.16667 206.20834v-44h44v44zM546.16667 258.54167v-44h44v44zM546.16667 299.54167v-32h44v32zM493.16667 258.54167v-44h44v44zM493.16667 299.54167v-32h44v32zM439.5 258.54167v-20.33334l44-.33333v20.66667zM439.5 299.54167v-32h44v32z" data-paper-data="{&quot;index&quot;:null}" style="mix-blend-mode:normal;fill-rule:nonzero;stroke-linejoin:miter;stroke-miterlimit:10;stroke-dasharray:none;stroke-dashoffset:0"/><path fill="#fff" fill-opacity=".50196" d="M172.83333 299.34167v-31.8h44v31.8zM172.83334 258.54167v-20.33334h44v20.33334z" style="mix-blend-mode:normal;fill-rule:nonzero;stroke-linejoin:miter;stroke-miterlimit:10;stroke-dasharray:none;stroke-dashoffset:0"/><path fill="#fff" fill-opacity=".50196" d="M387.50001 299.34167v-31.8h44v31.8zM387.5 258.54167v-20.33334h44v20.33334z" data-paper-data="{&quot;index&quot;:null}" style="mix-blend-mode:normal;fill-rule:nonzero;stroke-linejoin:miter;stroke-miterlimit:10;stroke-dasharray:none;stroke-dashoffset:0"/></svg>