<svg xmlns="http://www.w3.org/2000/svg" xmlns:xlink="http://www.w3.org/1999/xlink" xml:space="preserve" width="600" height="300" viewBox="0 0 158.75 79.375"><defs><linearGradient id="a"><stop offset="0" style="stop-color:#45a14c;stop-opacity:1"/><stop offset="1" style="stop-color:#41b6ae;stop-opacity:1"/></linearGradient><linearGradient xlink:href="#a" id="b" x1="0" x2="158.75" y1="39.688" y2="39.688" gradientUnits="userSpaceOnUse"/></defs><rect width="158.75" height="79.375" ry="0" style="fill:url(#b);fill-opacity:1;stroke:none;stroke-width:1.06458;stroke-linecap:round;stroke-linejoin:round;stroke-dasharray:none;stroke-opacity:1"/><path d="M66.611 6.546c-4.26 0-7.69 3.43-7.69 7.689v50.904c0 4.26 3.43 7.69 7.69 7.69h25.527c4.26 0 7.69-3.43 7.69-7.69V14.235c0-4.26-3.43-7.69-7.69-7.69zm12.764 54.402a2.317 2.317 0 0 1 2.317 2.318 2.317 2.317 0 0 1-2.317 2.317 2.317 2.317 0 0 1-2.318-2.317 2.317 2.317 0 0 1 2.318-2.318z" style="fill:#fff;fill-opacity:1;stroke:gray;stroke-width:.99;stroke-dasharray:none;stroke-opacity:1"/><path d="M47.62 19.115a2.242 2.242 0 0 0-1.682.332 2.242 2.242 0 0 0-.624 3.11c.259.388.249.336.464.614a1607.295 1607.295 0 0 0 3.303 4.223l2.378 3.026-5.892 7.089a2.242 2.242 0 0 0-.047 2.806l6.185 7.966-6.162 7.653a2.242 2.242 0 0 0 .342 3.153 2.242 2.242 0 0 0 3.153-.34l7.27-9.034a2.242 2.242 0 0 0 .024-2.782l-6.166-7.943 5.901-7.098a2.242 2.242 0 0 0 .036-2.82s-1.735-2.203-3.497-4.446a1614.132 1614.132 0 0 1-3.281-4.195c-.207-.267-.484-.666-.28-.36a2.242 2.242 0 0 0-1.425-.954zM111.13 19.115a2.242 2.242 0 0 1 1.682.332 2.242 2.242 0 0 1 .624 3.11c-.259.388-.249.336-.464.614a1604.14 1604.14 0 0 1-3.303 4.223 3175.4 3175.4 0 0 1-2.378 3.026l5.892 7.089a2.242 2.242 0 0 1 .047 2.806l-6.185 7.966 6.162 7.653a2.242 2.242 0 0 1-.342 3.153 2.242 2.242 0 0 1-3.153-.34l-7.27-9.034a2.242 2.242 0 0 1-.024-2.782l6.166-7.943-5.901-7.098a2.242 2.242 0 0 1-.036-2.82s1.735-2.203 3.497-4.446a1609.094 1609.094 0 0 0 3.281-4.195c.207-.267.484-.666.28-.36a2.242 2.242 0 0 1 1.425-.954z" style="color:#000;fill:#fff;fill-opacity:1;stroke:gray;stroke-width:.99;stroke-linecap:round;stroke-linejoin:round;stroke-dasharray:none;stroke-opacity:1"/></svg>