<svg xmlns="http://www.w3.org/2000/svg" viewBox="0 0 600 300"><path d="M0 0h600v300H0z" style="fill:#3eba9f"/><path fill="none" stroke="#2da98e" stroke-width="20" d="M80.208 157.841c7.8 23.2 1.4 51.7-16.3 64.6-17.7 12.8-46.7 9.9-66.2-4.6s-29.4-40.7-22.7-62.4c6.7-21.6 30.1-38.9 52.8-38.7 22.7.3 44.6 18 52.4 41.1ZM459.617-6.185c6.8 20.9 0 46.3-16.5 58.3s-42.7 10.5-60.5-2.4c-17.8-13-27.3-37.4-21-57.6 6.3-20.2 28.3-36.2 49.5-36 21.3.3 41.7 16.8 48.5 37.7ZM580.8 183.501c8 25.1 0 54.8-20.1 70-20.1 15.1-52.4 15.6-73.3.4s-30.4-46.1-22.2-71.4c8.1-25.3 34-45 58.8-44.7 24.9.3 48.8 20.7 56.8 45.7Zm-252.474-17.534c5.5 19-1.8 40.2-17.6 52.4-15.9 12.2-40.3 15.3-54.3 4.9s-17.7-34.3-11-54.8c6.7-20.5 23.6-37.7 41.3-38 17.7-.2 36.1 16.5 41.6 35.5Z"/><path fill="#18987d" d="m0 195.5 86-21 85-1 86 38 86 9 86-33 85-8 86 41v80H0v-105Z"/><path fill="#23a085" d="m0 203.5 86-8 85 19 86 12 86 8 86-9 85 8 86-4v71H0v-97Z"/><path d="M186.54 131.518c15.684-14.167 31.283-28.283 46.913-42.365 5.587-5.033 13.246-4.62 17.635.861 3.996 4.99 3.328 12.064-1.427 16.334-8.991 8.075-17.925 16.212-26.888 24.316-6.639 6.002-13.292 11.989-19.926 17.996-1.522 1.377-1.51 1.414-.013 2.767 14.869 13.432 29.747 26.855 44.604 40.3 1.443 1.307 3.035 2.487 4.145 4.125 2.607 3.847 3.051 7.934.974 12.116-2.048 4.123-5.477 6.311-10.097 6.542-3.359.169-6.197-1.043-8.673-3.279-19.154-17.301-38.273-34.639-57.51-51.847-5.645-5.049-5.998-13.572-.048-18.599 3.504-2.959 6.832-6.127 10.311-9.267Z" style="stroke-opacity:.13;stroke:rgba(0,0,0,.694);fill:transparent;stroke-width:15px"/><path d="M186.54 131.518c15.684-14.167 31.283-28.283 46.913-42.365 5.587-5.033 13.246-4.62 17.635.861 3.996 4.99 3.328 12.064-1.427 16.334-8.991 8.075-17.925 16.212-26.888 24.316-6.639 6.002-13.292 11.989-19.926 17.996-1.522 1.377-1.51 1.414-.013 2.767 14.869 13.432 29.747 26.855 44.604 40.3 1.443 1.307 3.035 2.487 4.145 4.125 2.607 3.847 3.051 7.934.974 12.116-2.048 4.123-5.477 6.311-10.097 6.542-3.359.169-6.197-1.043-8.673-3.279-19.154-17.301-38.273-34.639-57.51-51.847-5.645-5.049-5.998-13.572-.048-18.599 3.504-2.959 6.832-6.127 10.311-9.267Z" style="fill:#fff"/><path d="M356.434 188.227c13.632-12.305 27.193-24.545 40.749-36.791 1.494-1.349 1.495-1.385-.019-2.754-14.936-13.499-29.88-26.989-44.815-40.489-1.748-1.581-3.581-3.078-4.696-5.249-2.602-5.068-1.37-11.266 2.966-14.652 4.698-3.67 10.886-3.571 15.27.342 6.104 5.445 12.158 10.946 18.231 16.427 13.225 11.935 26.444 23.877 39.676 35.806 2.385 2.15 3.932 4.691 4.237 7.966.368 3.945-.867 7.265-3.742 9.927-4.1 3.797-8.268 7.521-12.415 11.268-6.27 5.666-12.546 11.326-18.82 16.987l-20.949 18.903c-2.125 1.917-4.229 3.86-6.387 5.74a11.774 11.774 0 0 1-16.363-.835c-4.323-4.624-4.258-11.934.247-16.388 2.163-2.138 4.499-4.101 6.83-6.208Z" style="stroke-opacity:.13;stroke:rgba(0,0,0,.694);fill:transparent;stroke-width:15px"/><path d="M356.434 188.227c13.632-12.305 27.193-24.545 40.749-36.791 1.494-1.349 1.495-1.385-.019-2.754-14.936-13.499-29.88-26.989-44.815-40.489-1.748-1.581-3.581-3.078-4.696-5.249-2.602-5.068-1.37-11.266 2.966-14.652 4.698-3.67 10.886-3.571 15.27.342 6.104 5.445 12.158 10.946 18.231 16.427 13.225 11.935 26.444 23.877 39.676 35.806 2.385 2.15 3.932 4.691 4.237 7.966.368 3.945-.867 7.265-3.742 9.927-4.1 3.797-8.268 7.521-12.415 11.268-6.27 5.666-12.546 11.326-18.82 16.987l-20.949 18.903c-2.125 1.917-4.229 3.86-6.387 5.74a11.774 11.774 0 0 1-16.363-.835c-4.323-4.624-4.258-11.934.247-16.388 2.163-2.138 4.499-4.101 6.83-6.208Z" style="fill:#fff"/><path fill="#2da98e" d="m0 247.5 86-8 85 3 86 5 86-18h86l85-11 86 32v50H0v-53Z"/><path fill="#36b196" d="m0 266.5 86-13 85 12 86-10 86 11 86-18h85l86-9v61H0v-34Z"/><path d="M307.466 80.937c1.516-5.297 2.939-10.507 4.498-15.676 1.485-4.92 4.888-7.885 9.953-8.485 4.87-.576 8.814 1.336 11.459 5.565 1.752 2.801 2.193 5.902 1.314 9.043-3.349 11.976-6.799 23.924-10.21 35.883-6.708 23.523-13.411 47.049-20.125 70.571-5.346 18.723-10.72 37.436-16.051 56.164-1.53 5.376-4.938 8.647-10.518 9.253-6.984.758-12.512-4.9-12.814-10.93-.18-3.566 1.201-6.768 2.134-10.064 5.299-18.728 10.663-37.437 16.014-56.151 4.638-16.228 9.292-32.452 13.932-48.68 3.467-12.127 6.92-24.258 10.414-36.493Z" style="stroke-opacity:.12941;stroke:rgba(0,0,0,.694);fill:transparent;stroke-width:15px"/><path d="M307.466 80.937c1.516-5.297 2.939-10.507 4.498-15.676 1.485-4.92 4.888-7.885 9.953-8.485 4.87-.576 8.814 1.336 11.459 5.565 1.752 2.801 2.193 5.902 1.314 9.043-3.349 11.976-6.799 23.924-10.21 35.883-6.708 23.523-13.411 47.049-20.125 70.571-5.346 18.723-10.72 37.436-16.051 56.164-1.53 5.376-4.938 8.647-10.518 9.253-6.984.758-12.512-4.9-12.814-10.93-.18-3.566 1.201-6.768 2.134-10.064 5.299-18.728 10.663-37.437 16.014-56.151 4.638-16.228 9.292-32.452 13.932-48.68 3.467-12.127 6.92-24.258 10.414-36.493Z" style="fill:#fff"/><path fill="#3eba9f" d="m0 264.5 86 19 85-7 86-1 86-7 86-3 85 17 86-5v23H0v-36Z"/></svg>