<svg xmlns="http://www.w3.org/2000/svg" width="600" height="300"><path fill="#ffab19" d="M0 300V0h599.99999v300z" style="fill-rule:nonzero;stroke-linejoin:miter;stroke-miterlimit:10;stroke-dasharray:none;stroke-dashoffset:0"/><g fill="none" stroke="#ec9c13" stroke-linecap="round" stroke-width="37" style="fill-rule:nonzero;stroke-linejoin:miter;stroke-miterlimit:10;stroke-dasharray:none;stroke-dashoffset:0"><path d="M53.79655 83.1245s50.87244-12.75255 97.55207-10.71612c42.47369 1.85295 101.39672 20.26225 101.39672 20.26225"/><path d="M414.49357 141.17256s-60.2431 14.73823-102.7246 12.918c-46.68821-2.00048-96.33243-20.49924-96.33243-20.49924M142.8913 131.4409s-63.7819 17.39232-106.26339 15.57209c-6.07321-.26023-12.13656-.84452-18.08985-1.66417M59.72965 205.55877s43.45133-13.19057 98.98652-16.07575c70.79184-2.70493 115.99507 13.8027 115.99507 13.8027M30.20396 284.34077c20.18457-7.18386 48.95481-16.54287 74.79039-21.70084 41.69758-8.32477 94.64273-6.555 94.64273-6.555M453.42027 257.95266s-59.3584 7.66065-101.8399 5.84042c-46.68821-2.00049-97.21713-7.22876-97.21713-7.22876M536.02053 156.04486s-27.29901 21.11125-58.30088 34.97984c-22.65643 10.13528-47.29046 13.10482-64.69228 17.52185-45.29471 11.49697-69.85027-2.57596-69.85027-2.57596M511.3739 27.51527s-50.56418 35.91253-90.72365 49.88425c-44.13623 15.35526-97.98811 19.11874-97.98811 19.11874M586.29224 35.09709c-12.0615 11.96176-25.29156 24.39303-37.18594 34.03442-36.30264 29.42634-77.78558 51.10468-77.78558 51.10468M582.92831 189.46287c-35.5109 28.00815-75.33496 47.55344-75.33496 47.55344M475.25959 313.29788c17.16212-9.38405 37.92273-19.53867 56.37853-25.24291 17.04014-5.26669 35.29316-8.41444 51.35106-10.29351M410.72143 18.5s-58.52206 20.53324-100.97898 22.85749c-46.6612 2.55439-97.87053-11.02332-97.87053-11.02332" data-paper-data="{&quot;index&quot;:null}"/><path d="M53.79656 83.1245s51.75714-5.67498 98.43677-3.63855c42.47369 1.85295 100.51202 13.18467 100.51202 13.18467"/><path d="M414.49358 141.17256s-60.2431 14.73823-102.7246 12.918c-46.68821-2.00048-96.33243-20.49924-96.33243-20.49924M142.8913 131.4409s-59.3584 5.89126-101.8399 4.07101c-7.48048-.32053-15.05955-.83746-22.5136-1.47964M60.61437 205.55877s50.52891-6.99769 97.21713-8.99817c42.4815-1.82024 124.84205 6.72512 124.84205 6.72512M28.69405 278.36488c16.60662-9.49639 39.82502-20.64723 63.91449-25.4566 41.69758-8.32477 107.02851 3.17668 107.02851 3.17668M453.42027 257.95266s-61.1278 20.93113-103.6093 19.11089c-46.68821-2.00049-95.44773-20.49924-95.44773-20.49924M536.02053 156.04486s-49.93048 25.23137-91.14403 35.69244c-45.29471 11.49697-101.6994 14.23331-101.6994 14.23331M511.37394 27.51527s-50.56418 41.22071-90.72365 55.19243c-44.13623 15.35526-97.98811 13.81055-97.98811 13.81055M584.21681 56.94976c-7.79432 9.67101-16.13412 18.67572-24.49413 25.45221-36.30264 29.42634-88.40195 37.83423-88.40195 37.83423M582.92831 208.08588c-34.52287 20.81617-75.33495 28.93043-75.33495 28.93043M475.2596 313.29788c17.16212-9.38405 37.92273-19.53867 56.37853-25.24291 17.04014-5.26669 35.29316-8.41444 51.35105-10.29351M411.60615 19.38473S351.31468 48.76496 308.85778 51.0892c-46.6612 2.55439-96.10114-19.8703-96.10114-19.8703M18.5 33.51463c8.27746-3.57284 16.99989-6.65081 25.89375-8.78155 41.35037-9.90647 107.52378 1.01762 107.52378 1.01762" data-paper-data="{&quot;index&quot;:null}"/></g><g stroke="#fff" style="fill-rule:nonzero;stroke-linejoin:miter;stroke-miterlimit:10;stroke-dasharray:none;stroke-dashoffset:0"><path fill="#fff" stroke-width="1.8196228" d="M346.6285916 257.15654508c-1.8760311.00909811-3.75535573-.69979054-5.19576914-2.1211707L157.52829528 72.79800382c-2.87493123-2.84876506-2.89616623-7.4969915-.04731019-10.37192274 2.84876506-2.87493124 7.4969915-2.89616624 10.37192275-.0473102l183.9043998 182.23129304c2.87493124 2.84876506 2.89616624 7.4969915.0473102 10.37192274-1.42738491 1.43448144-3.3001225 2.1659698-5.17613541 2.17454023z"/><path fill="#cf8b17" stroke-width="13.647171" d="M238.53826626 102.58803127c.10171692 22.27931599-17.8768842 40.42308426-40.15621838 40.52489216-22.279316.10189888-40.42308427-17.8768842-40.52489217-40.15621839-.10171691-22.279316 17.8768842-40.42308427 40.1562184-40.52489216 22.27931598-.10171692 40.42308426 17.8768842 40.52489215 40.15621839z"/><path fill="#cf8b17" stroke-width="13.647171" d="M233.32704853 185.89520325c-21.70658972-5.02097618-35.23290137-26.6879891-30.21187061-48.39454242 5.02097617-21.70658972 26.6879891-35.23290137 48.39454242-30.21187061 21.70658972 5.02097617 35.23290137 26.6879891 30.2118706 48.39454242-5.02097617 21.70658972-26.68798909 35.23290137-48.39454241 30.2118706z"/><path fill="#cf8b17" stroke-width="13.647171" d="M326.96432832 190.2037789c.10171692 22.279316-17.88285256 40.42907083-40.16215036 40.53089692-22.27931599.10171691-40.42312066-17.88287076-40.52492855-40.16216856-.10171692-22.279316 17.8768842-40.42308427 40.15621838-40.52489216 22.279316-.10171692 40.42907083 17.88283436 40.53086053 40.156182z"/><path fill="#fff" stroke-width="1.8196228" d="M346.92786497 257.45296163c-1.87603111.00909811-3.75535573-.69979054-5.19576914-2.12117069l-45.13434245-44.72372636c-2.8809178-2.84874687-2.9021528-7.49697331-.0473102-10.37192275 2.85476983-2.87496763 7.49100496-2.89614804 10.37192275-.04749215l45.13434245 44.72372636c2.87493124 2.84876506 2.89616624 7.4969915.0473102 10.37192275-1.42742131 1.42851307-3.3001407 2.16000144-5.17615361 2.16857186z"/></g><g stroke="#ffab19" style="fill-rule:nonzero;stroke-linejoin:miter;stroke-miterlimit:10;stroke-dasharray:none;stroke-dashoffset:0"><path fill="#fff" stroke-width="31.843399" d="M429.72403228 256.77688078c-1.87603111.00909811-3.75535574-.69979054-5.19576914-2.1211707L240.62373596 72.41833952c-2.87493124-2.84876506-2.89616624-7.4969915-.0473102-10.37192274 2.84876507-2.87493124 7.4969915-2.89616624 10.37192275-.0473102L434.8528393 244.2304906c2.87493124 2.84876507 2.89616623 7.4969915.04731019 10.37192275-1.42738491 1.43448144-3.3001225 2.1659698-5.17613541 2.17454022z"/><path fill="#ffab19" stroke-width="40.941513" d="M321.63352497 102.20834877c.10171692 22.279316-17.8768842 40.42310247-40.15621838 40.52491036-22.279316.10171692-40.42310247-17.8768842-40.52491036-40.15621839-.10171692-22.27931599 17.8768842-40.42310246 40.15621838-40.52491036 22.279316-.10189887 40.42310247 17.8768842 40.52491036 40.1562184z"/><path fill="#ffab19" stroke-width="40.941513" d="M316.42230724 185.51546617c-21.70658972-5.02097618-35.23290137-26.6879891-30.21187061-48.39454242 5.02097617-21.70658972 26.6879891-35.23288318 48.39454242-30.21185242 21.70658971 5.02097618 35.23290137 26.6879891 30.2118706 48.39454242-5.02097617 21.70658972-26.68798909 35.23288318-48.39454241 30.21185242z"/><path fill="#ffab19" stroke-width="40.941513" d="M410.0597326 189.82402362c.10171692 22.279316-17.88285256 40.42907083-40.16215036 40.53087872-22.279316.10171692-40.42312066-17.88287076-40.52492855-40.16216855-.10171692-22.279316 17.8768842-40.42308427 40.15621838-40.52489217 22.279316-.10171691 40.42908903 17.88285257 40.53086053 40.1562002z"/><path fill="#fff" stroke-width="31.843399" d="M430.02317826 257.07327914c-1.8760311.00909811-3.75535573-.69980874-5.19576914-2.12118889l-45.13434244-44.72372636c-2.8809178-2.84874687-2.9021528-7.49697331-.0473102-10.37192275 2.85476983-2.87496763 7.49100495-2.89614804 10.37192275-.04731019l45.13434245 44.72372636c2.87493124 2.84876507 2.89616623 7.4969915.04731019 10.37192275-1.4274213 1.42851307-3.3001407 2.16000144-5.1761536 2.16857186z"/></g><g stroke="#fff" style="fill-rule:nonzero;stroke-linejoin:miter;stroke-miterlimit:10;stroke-dasharray:none;stroke-dashoffset:0"><path fill="#fff" stroke-width="1.8196228" d="M429.72403228 256.77688078c-1.87603111.00909811-3.75535574-.69979054-5.19576914-2.1211707L240.62373596 72.41833952c-2.87493124-2.84876506-2.89616624-7.4969915-.0473102-10.37192274 2.84876507-2.87493124 7.4969915-2.89616624 10.37192275-.0473102L434.8528393 244.2304906c2.87493124 2.84876507 2.89616623 7.4969915.04731019 10.37192275-1.42738491 1.43448144-3.3001225 2.1659698-5.17613541 2.17454022z"/><path fill="#cf8b17" stroke-width="13.647171" d="M321.63352497 102.20834877c.10171692 22.279316-17.8768842 40.42310247-40.15621838 40.52491036-22.279316.10171692-40.42310247-17.8768842-40.52491036-40.15621839-.10171692-22.27931599 17.8768842-40.42310246 40.15621838-40.52491036 22.279316-.10189887 40.42310247 17.8768842 40.52491036 40.1562184z"/><path fill="#cf8b17" stroke-width="13.647171" d="M316.42230724 185.51546617c-21.70658972-5.02097618-35.23290137-26.6879891-30.21187061-48.39454242 5.02097617-21.70658972 26.6879891-35.23288318 48.39454242-30.21185242 21.70658971 5.02097618 35.23290137 26.6879891 30.2118706 48.39454242-5.02097617 21.70658972-26.68798909 35.23288318-48.39454241 30.21185242z"/><path fill="#cf8b17" stroke-width="13.647171" d="M410.0597326 189.82402362c.10171692 22.279316-17.88285256 40.42907083-40.16215036 40.53087872-22.279316.10171692-40.42312066-17.88287076-40.52492855-40.16216855-.10171692-22.279316 17.8768842-40.42308427 40.15621838-40.52489217 22.279316-.10171691 40.42908903 17.88285257 40.53086053 40.1562002z"/><path fill="#fff" stroke-width="1.8196228" d="M430.02317826 257.07327914c-1.8760311.00909811-3.75535573-.69980874-5.19576914-2.12118889l-45.13434244-44.72372636c-2.8809178-2.84874687-2.9021528-7.49697331-.0473102-10.37192275 2.85476983-2.87496763 7.49100495-2.89614804 10.37192275-.04731019l45.13434245 44.72372636c2.87493124 2.84876507 2.89616623 7.4969915.04731019 10.37192275-1.4274213 1.42851307-3.3001407 2.16000144-5.1761536 2.16857186z"/></g><path fill="none" stroke="#ffab19" stroke-linecap="round" stroke-width="40.9415" d="M408.44114 126.21539V66.774378" style="fill-rule:nonzero;stroke-linejoin:miter;stroke-miterlimit:10;stroke-dasharray:none;stroke-dashoffset:0"/><path fill="none" stroke="#ffab19" stroke-linecap="round" stroke-width="3.63925" d="M378.7206 96.494877h59.44102" style="fill-rule:nonzero;stroke-linejoin:miter;stroke-miterlimit:10;stroke-dasharray:none;stroke-dashoffset:0"/><path fill="none" stroke="#ffab19" stroke-linecap="round" stroke-width="40.9415" d="M378.7206 96.494932h59.44102" style="fill-rule:nonzero;stroke-linejoin:miter;stroke-miterlimit:10;stroke-dasharray:none;stroke-dashoffset:0"/><path fill="none" stroke="#fff" stroke-linecap="round" stroke-width="13.6472" d="M408.44114 126.21545V66.774432M378.7206 96.494877h59.44102" style="fill-rule:nonzero;stroke-linejoin:miter;stroke-miterlimit:10;stroke-dasharray:none;stroke-dashoffset:0"/></svg>