<svg xmlns="http://www.w3.org/2000/svg" width="600" height="300"><path fill="#cec67d" fill-rule="evenodd" d="M0 0h600v300H0Z" style="mix-blend-mode:normal;stroke-linejoin:miter;stroke-miterlimit:10;stroke-dasharray:none;stroke-dashoffset:0"/><g fill="#bab372" fill-opacity=".55686" stroke-width="0" style="mix-blend-mode:normal;stroke-linejoin:miter;stroke-miterlimit:10;stroke-dasharray:none;stroke-dashoffset:0"><path d="M548.07186 26.60721c0-12.68577 10.28385-22.96962 22.96962-22.96962s22.96961 10.28385 22.96961 22.96962-10.28384 22.96961-22.96961 22.96961-22.96962-10.28384-22.96962-22.96961zM548.07186 149.62227c0-12.68576 10.28385-22.96962 22.96962-22.96962s22.96961 10.28386 22.96961 22.96962c0 12.68576-10.28384 22.96961-22.96961 22.96961s-22.96962-10.28385-22.96962-22.96961zM548.07186 87.85952c0-12.68577 10.28385-22.96962 22.96962-22.96962s22.96961 10.28385 22.96961 22.96962-10.28384 22.96962-22.96961 22.96962-22.96962-10.28384-22.96962-22.96962zM548.07186 210.36414c0-12.68576 10.28385-22.96962 22.96962-22.96962s22.96961 10.28386 22.96961 22.96962c0 12.68576-10.28384 22.96962-22.96961 22.96962s-22.96962-10.28386-22.96962-22.96962zM487.84042 26.86242c0-12.68577 10.28385-22.96961 22.96962-22.96961s22.96961 10.28385 22.96961 22.96962-10.28384 22.96962-22.96961 22.96962-22.96962-10.28385-22.96962-22.96962zM487.84042 149.87748c0-12.68576 10.28385-22.96962 22.96962-22.96962s22.96961 10.28386 22.96961 22.96962c0 12.68576-10.28384 22.96962-22.96961 22.96962s-22.96962-10.28386-22.96962-22.96962zM487.84042 88.11473c0-12.68577 10.28385-22.96961 22.96962-22.96961s22.96961 10.28384 22.96961 22.96961-10.28384 22.96962-22.96961 22.96962-22.96962-10.28385-22.96962-22.96962zM487.84042 210.61936c0-12.68576 10.28385-22.96962 22.96962-22.96962s22.96961 10.28386 22.96961 22.96962c0 12.68576-10.28384 22.96961-22.96961 22.96961s-22.96962-10.28385-22.96962-22.96961zM427.60898 26.73481c0-12.68577 10.28385-22.96961 22.96962-22.96961s22.96961 10.28385 22.96961 22.96962-10.28384 22.96962-22.96961 22.96962-22.96962-10.28385-22.96962-22.96962zM427.60898 149.74987c0-12.68576 10.28385-22.96962 22.96962-22.96962s22.96961 10.28386 22.96961 22.96962c0 12.68576-10.28384 22.96962-22.96961 22.96962s-22.96962-10.28386-22.96962-22.96962zM427.60898 87.98712c0-12.68577 10.28385-22.96961 22.96962-22.96961s22.96961 10.28384 22.96961 22.96961-10.28384 22.96962-22.96961 22.96962-22.96962-10.28385-22.96962-22.96962zM427.60898 210.49175c0-12.68576 10.28385-22.96962 22.96962-22.96962s22.96961 10.28386 22.96961 22.96962c0 12.68576-10.28384 22.96962-22.96961 22.96962s-22.96962-10.28386-22.96962-22.96962zM367.37754 26.99003c0-12.68577 10.28386-22.96961 22.96962-22.96961 12.68577 0 22.96962 10.28385 22.96962 22.96962s-10.28385 22.96962-22.96962 22.96962c-12.68576 0-22.96962-10.28384-22.96962-22.96961zM367.37754 150.00509c0-12.68576 10.28386-22.96961 22.96962-22.96961 12.68577 0 22.96962 10.28385 22.96962 22.96961s-10.28385 22.96962-22.96962 22.96962c-12.68576 0-22.96962-10.28386-22.96962-22.96962zM367.37754 88.24235c0-12.68577 10.28386-22.96962 22.96962-22.96962 12.68577 0 22.96962 10.28385 22.96962 22.96962s-10.28385 22.96961-22.96962 22.96961c-12.68576 0-22.96962-10.28384-22.96962-22.96961zM367.37754 210.74697c0-12.68576 10.28386-22.96962 22.96962-22.96962 12.68577 0 22.96962 10.28386 22.96962 22.96962 0 12.68576-10.28385 22.96962-22.96962 22.96962-12.68576 0-22.96962-10.28386-22.96962-22.96962zM307.1461 27.05384c0-12.68577 10.28385-22.96962 22.96962-22.96962s22.96962 10.28385 22.96962 22.96962-10.28385 22.96962-22.96962 22.96962-22.96962-10.28385-22.96962-22.96962zM307.1461 150.0689c0-12.68576 10.28385-22.96962 22.96962-22.96962s22.96962 10.28386 22.96962 22.96962c0 12.68576-10.28385 22.96961-22.96962 22.96961s-22.96962-10.28385-22.96962-22.96961zM307.1461 88.30615c0-12.68577 10.28385-22.96962 22.96962-22.96962s22.96962 10.28385 22.96962 22.96962-10.28385 22.96962-22.96962 22.96962-22.96962-10.28385-22.96962-22.96962zM246.91466 27.30905c0-12.68577 10.28386-22.96961 22.96962-22.96961 12.68577 0 22.96962 10.28384 22.96962 22.96961s-10.28385 22.96962-22.96962 22.96962c-12.68576 0-22.96962-10.28385-22.96962-22.96962zM246.91466 150.32411c0-12.68576 10.28386-22.96962 22.96962-22.96962 12.68577 0 22.96962 10.28386 22.96962 22.96962 0 12.68576-10.28385 22.96962-22.96962 22.96962-12.68576 0-22.96962-10.28386-22.96962-22.96962zM246.91466 88.56136c0-12.68577 10.28386-22.96961 22.96962-22.96961 12.68577 0 22.96962 10.28384 22.96962 22.96961s-10.28385 22.96962-22.96962 22.96962c-12.68576 0-22.96962-10.28385-22.96962-22.96962zM185.66235 27.18145c0-12.68577 10.28386-22.96962 22.96962-22.96962 12.68576 0 22.96962 10.28385 22.96962 22.96962s-10.28386 22.96962-22.96962 22.96962c-12.68576 0-22.96962-10.28384-22.96962-22.96961zM185.66235 88.43376c0-12.68577 10.28386-22.96962 22.96962-22.96962 12.68576 0 22.96962 10.28385 22.96962 22.96962s-10.28386 22.96961-22.96962 22.96961c-12.68576 0-22.96962-10.28384-22.96962-22.96961zM125.43091 27.43666c0-12.68577 10.28386-22.96961 22.96962-22.96961 12.68576 0 22.96962 10.28385 22.96962 22.96962s-10.28386 22.96962-22.96962 22.96962c-12.68576 0-22.96962-10.28385-22.96962-22.96962zM125.43091 88.68898c0-12.68577 10.28386-22.96962 22.96962-22.96962 12.68576 0 22.96962 10.28385 22.96962 22.96962s-10.28386 22.96962-22.96962 22.96962c-12.68576 0-22.96962-10.28384-22.96962-22.96962zM66.22035 27.56428c0-12.68577 10.28385-22.96962 22.96961-22.96962s22.96962 10.28385 22.96962 22.96962-10.28386 22.96961-22.96962 22.96961c-12.68576 0-22.96961-10.28384-22.96961-22.96961zM66.22035 88.81659c0-12.68577 10.28385-22.96962 22.96961-22.96962s22.96962 10.28385 22.96962 22.96962-10.28386 22.96961-22.96962 22.96961c-12.68576 0-22.96961-10.28384-22.96961-22.96961zM5.98891 27.81949c0-12.68577 10.28385-22.96962 22.96961-22.96962s22.96962 10.28385 22.96962 22.96962-10.28386 22.96962-22.96962 22.96962c-12.68576 0-22.96961-10.28385-22.96961-22.96962z"/></g><path fill="#b9b271" d="M460.5 241c0-15.46398 12.53602-28 28-28s28 12.53602 28 28-12.53602 28-28 28-28-12.53602-28-28z" style="mix-blend-mode:normal;stroke-linejoin:miter;stroke-miterlimit:10;stroke-dasharray:none;stroke-dashoffset:0"/><path fill="#b9b271" fill-rule="evenodd" d="M600 300H0V58s223.20675 26.20824 312.14867 87.92188C395.7073 203.90025 600 227 600 227Z" data-paper-data="{&quot;index&quot;:null}" style="mix-blend-mode:normal;stroke-linejoin:miter;stroke-miterlimit:10;stroke-dasharray:none;stroke-dashoffset:0"/><path fill="#fff" stroke="#b9b271" stroke-width="32.5" d="M115.5 91.3248c0-5.4009 4.3783-9.7792 9.7792-9.7792h19.5584c4.8896 0 7.3344 2.4448 9.7792 4.8896l9.7792 9.7792c2.4448 2.4448 4.8896 4.8896 9.7792 4.8896h29.3376c4.8896 0 7.3344-2.4448 9.7792-4.8896l9.7792-9.7792c2.4448-2.4448 4.8896-4.8896 9.7792-4.8896h241.8704c5.40091 0 9.7792 4.3783 9.7792 9.7792v97.792c0 5.4009-4.37829 9.7792-9.7792 9.7792H232.8504c-4.8896 0-7.3344 2.4448-9.7792 4.8896l-9.7792 9.7792c-2.4448 2.4448-4.8896 4.8896-9.7792 4.8896h-29.3376c-4.8896 0-7.3344-2.4448-9.7792-4.8896l-9.7792-9.7792c-2.4448-2.4448-4.8896-4.8896-9.7792-4.8896h-19.5584c-5.4009 0-9.7792-4.37829-9.7792-9.7792z" style="mix-blend-mode:normal;stroke-linejoin:miter;stroke-miterlimit:10;stroke-dasharray:none;stroke-dashoffset:0"/><path fill="#fff" stroke="#fff" stroke-width="8" d="M115.5 91.3248c0-5.4009 4.3783-9.7792 9.7792-9.7792h19.5584c4.8896 0 7.3344 2.4448 9.7792 4.8896l9.7792 9.7792c2.4448 2.4448 4.8896 4.8896 9.7792 4.8896h29.3376c4.8896 0 7.3344-2.4448 9.7792-4.8896l9.7792-9.7792c2.4448-2.4448 4.8896-4.8896 9.7792-4.8896h241.8704c5.40091 0 9.7792 4.3783 9.7792 9.7792v97.792c0 5.4009-4.37829 9.7792-9.7792 9.7792H232.8504c-4.8896 0-7.3344 2.4448-9.7792 4.8896l-9.7792 9.7792c-2.4448 2.4448-4.8896 4.8896-9.7792 4.8896h-29.3376c-4.8896 0-7.3344-2.4448-9.7792-4.8896l-9.7792-9.7792c-2.4448-2.4448-4.8896-4.8896-9.7792-4.8896h-19.5584c-5.4009 0-9.7792-4.37829-9.7792-9.7792z" style="mix-blend-mode:normal;stroke-linejoin:miter;stroke-miterlimit:10;stroke-dasharray:none;stroke-dashoffset:0"/><path fill="#b9b271" stroke="#fff" stroke-width="8" d="M270.37111 104.16884h158.04978c20.46323 0 37.05196 16.58872 37.05196 37.05196 0 20.46323-16.58873 37.05196-37.05196 37.05196H270.37111c-20.46323 0-37.05196-16.58873-37.05196-37.05196s16.58872-37.05196 37.05196-37.05196z" style="mix-blend-mode:normal;stroke-linejoin:miter;stroke-miterlimit:10;stroke-dasharray:none;stroke-dashoffset:0"/><g aria-label="//" style="font-size:65.5728px;font-family:&quot;Sans Serif&quot;;fill:#b9b271;stroke:#b9b271;stroke-width:4.91796;stroke-miterlimit:10"><path d="M170.14934 121.11087h5.44306l-16.64935 53.88624H153.5ZM192.24174 121.11087h5.44306l-16.64935 53.88624h-5.44305z"/></g></svg>