<svg xmlns="http://www.w3.org/2000/svg" width="600" height="300"><g style="mix-blend-mode:normal;fill-rule:nonzero;stroke-linecap:butt;stroke-linejoin:miter;stroke-miterlimit:10;stroke-dasharray:none;stroke-dashoffset:0"><path fill="#cec67d" d="M0 300V0h600v300z"/><path fill="#e8df8e" d="M589.22 275c0 7.853-6.367 14.22-14.22 14.22-7.853 0-14.22-6.367-14.22-14.22 0-7.853 6.367-14.22 14.22-14.22 7.853 0 14.22 6.367 14.22 14.22z" data-paper-data="{&quot;index&quot;:null}"/><path fill="#b5ae6e" stroke="#b5ae6e" stroke-width="5" d="M589.22 225c0 7.853-6.367 14.22-14.22 14.22-7.853 0-14.22-6.367-14.22-14.22 0-7.853 6.367-14.22 14.22-14.22 7.853 0 14.22 6.367 14.22 14.22z" data-paper-data="{&quot;index&quot;:null}"/><path fill="#e8df8e" d="M539.22 225c0 7.853-6.367 14.22-14.22 14.22-7.853 0-14.22-6.367-14.22-14.22 0-7.853 6.367-14.22 14.22-14.22 7.853 0 14.22 6.367 14.22 14.22z" data-paper-data="{&quot;index&quot;:null}"/><path fill="#b5ae6e" d="M539.22 175c0 7.853-6.367 14.22-14.22 14.22-7.853 0-14.22-6.367-14.22-14.22 0-7.853 6.367-14.22 14.22-14.22 7.853 0 14.22 6.367 14.22 14.22z" data-paper-data="{&quot;index&quot;:null}"/><path fill="#b5ae6e" stroke="#b5ae6e" stroke-width="5" d="M489.22 175c0 7.853-6.367 14.22-14.22 14.22-7.853 0-14.22-6.367-14.22-14.22 0-7.853 6.367-14.22 14.22-14.22 7.853 0 14.22 6.367 14.22 14.22z" data-paper-data="{&quot;index&quot;:null}"/><path fill="#b5ae6e" d="M489.22 125c0 7.853-6.367 14.22-14.22 14.22-7.853 0-14.22-6.367-14.22-14.22 0-7.853 6.367-14.22 14.22-14.22 7.853 0 14.22 6.367 14.22 14.22z" data-paper-data="{&quot;index&quot;:null}"/><path fill="#e8df8e" stroke="#e8df8e" stroke-width="5" d="M439.22 225c0 7.853-6.367 14.22-14.22 14.22-7.853 0-14.22-6.367-14.22-14.22 0-7.853 6.367-14.22 14.22-14.22 7.853 0 14.22 6.367 14.22 14.22z" data-paper-data="{&quot;index&quot;:null}"/><path fill="#e8df8e" d="M489.22 275c0 7.853-6.367 14.22-14.22 14.22-7.853 0-14.22-6.367-14.22-14.22 0-7.853 6.367-14.22 14.22-14.22 7.853 0 14.22 6.367 14.22 14.22z" data-paper-data="{&quot;index&quot;:null}"/><path fill="#b5ae6e" d="M589.22 125c0 7.853-6.367 14.22-14.22 14.22-7.853 0-14.22-6.367-14.22-14.22 0-7.853 6.367-14.22 14.22-14.22 7.853 0 14.22 6.367 14.22 14.22zM589.22 75c0 7.853-6.367 14.22-14.22 14.22-7.853 0-14.22-6.367-14.22-14.22 0-7.853 6.367-14.22 14.22-14.22 7.853 0 14.22 6.367 14.22 14.22zM539.22 75c0 7.853-6.367 14.22-14.22 14.22-7.853 0-14.22-6.367-14.22-14.22 0-7.853 6.367-14.22 14.22-14.22 7.853 0 14.22 6.367 14.22 14.22zM589.22 25c0 7.853-6.367 14.22-14.22 14.22-7.853 0-14.22-6.367-14.22-14.22 0-7.853 6.367-14.22 14.22-14.22 7.853 0 14.22 6.367 14.22 14.22zM489.22 25c0 7.853-6.367 14.22-14.22 14.22-7.853 0-14.22-6.367-14.22-14.22 0-7.853 6.367-14.22 14.22-14.22 7.853 0 14.22 6.367 14.22 14.22z" data-paper-data="{&quot;index&quot;:null}"/><path fill="#b5ae6e" stroke="#b5ae6e" stroke-width="5" d="M439.22 75c0 7.853-6.367 14.22-14.22 14.22-7.853 0-14.22-6.367-14.22-14.22 0-7.853 6.367-14.22 14.22-14.22 7.853 0 14.22 6.367 14.22 14.22z" data-paper-data="{&quot;index&quot;:null}"/><path fill="#b5ae6e" d="M389.22 75c0 7.853-6.367 14.22-14.22 14.22-7.853 0-14.22-6.367-14.22-14.22 0-7.853 6.367-14.22 14.22-14.22 7.853 0 14.22 6.367 14.22 14.22zM389.22 25c0 7.853-6.367 14.22-14.22 14.22-7.853 0-14.22-6.367-14.22-14.22 0-7.853 6.367-14.22 14.22-14.22 7.853 0 14.22 6.367 14.22 14.22zM339.22 25c0 7.853-6.367 14.22-14.22 14.22-7.853 0-14.22-6.367-14.22-14.22 0-7.853 6.367-14.22 14.22-14.22 7.853 0 14.22 6.367 14.22 14.22z" data-paper-data="{&quot;index&quot;:null}"/><path fill="#b5ae6e" stroke="#b5ae6e" stroke-width="5" d="M339.22 75c0 7.853-6.367 14.22-14.22 14.22-7.853 0-14.22-6.367-14.22-14.22 0-7.853 6.367-14.22 14.22-14.22 7.853 0 14.22 6.367 14.22 14.22zM339.22 125c0 7.853-6.367 14.22-14.22 14.22-7.853 0-14.22-6.367-14.22-14.22 0-7.853 6.367-14.22 14.22-14.22 7.853 0 14.22 6.367 14.22 14.22z" data-paper-data="{&quot;index&quot;:null}"/><path fill="#b5ae6e" d="M289.22 125c0 7.853-6.367 14.22-14.22 14.22-7.853 0-14.22-6.367-14.22-14.22 0-7.853 6.367-14.22 14.22-14.22 7.853 0 14.22 6.367 14.22 14.22z" data-paper-data="{&quot;index&quot;:null}"/><path fill="#e8df8e" d="M389.22 175c0 7.853-6.367 14.22-14.22 14.22-7.853 0-14.22-6.367-14.22-14.22 0-7.853 6.367-14.22 14.22-14.22 7.853 0 14.22 6.367 14.22 14.22zM339.22 225c0 7.853-6.367 14.22-14.22 14.22-7.853 0-14.22-6.367-14.22-14.22 0-7.853 6.367-14.22 14.22-14.22 7.853 0 14.22 6.367 14.22 14.22zM339.22 275c0 7.853-6.367 14.22-14.22 14.22-7.853 0-14.22-6.367-14.22-14.22 0-7.853 6.367-14.22 14.22-14.22 7.853 0 14.22 6.367 14.22 14.22zM389.22 275c0 7.853-6.367 14.22-14.22 14.22-7.853 0-14.22-6.367-14.22-14.22 0-7.853 6.367-14.22 14.22-14.22 7.853 0 14.22 6.367 14.22 14.22z" data-paper-data="{&quot;index&quot;:null}"/><path fill="#e8df8e" stroke="#e8df8e" stroke-width="5" d="M289.22 225c0 7.853-6.367 14.22-14.22 14.22-7.853 0-14.22-6.367-14.22-14.22 0-7.853 6.367-14.22 14.22-14.22 7.853 0 14.22 6.367 14.22 14.22z" data-paper-data="{&quot;index&quot;:null}"/><path fill="#e8df8e" d="M239.22 275c0 7.853-6.367 14.22-14.22 14.22-7.853 0-14.22-6.367-14.22-14.22 0-7.853 6.367-14.22 14.22-14.22 7.853 0 14.22 6.367 14.22 14.22z" data-paper-data="{&quot;index&quot;:null}"/><path fill="#e8df8e" stroke="#e8df8e" stroke-width="5" d="M189.22 225c0 7.853-6.367 14.22-14.22 14.22-7.853 0-14.22-6.367-14.22-14.22 0-7.853 6.367-14.22 14.22-14.22 7.853 0 14.22 6.367 14.22 14.22z" data-paper-data="{&quot;index&quot;:null}"/><path fill="#e8df8e" d="M189.22 175c0 7.853-6.367 14.22-14.22 14.22-7.853 0-14.22-6.367-14.22-14.22 0-7.853 6.367-14.22 14.22-14.22 7.853 0 14.22 6.367 14.22 14.22zM239.22 175c0 7.853-6.367 14.22-14.22 14.22-7.853 0-14.22-6.367-14.22-14.22 0-7.853 6.367-14.22 14.22-14.22 7.853 0 14.22 6.367 14.22 14.22zM189.22 125c0 7.853-6.367 14.22-14.22 14.22-7.853 0-14.22-6.367-14.22-14.22 0-7.853 6.367-14.22 14.22-14.22 7.853 0 14.22 6.367 14.22 14.22z" data-paper-data="{&quot;index&quot;:null}"/><path fill="#e8df8e" stroke="#e8df8e" stroke-width="5" d="M139.22 125c0 7.853-6.367 14.22-14.22 14.22-7.853 0-14.22-6.367-14.22-14.22 0-7.853 6.367-14.22 14.22-14.22 7.853 0 14.22 6.367 14.22 14.22z" data-paper-data="{&quot;index&quot;:null}"/><path fill="#e8df8e" d="M189.22 75c0 7.853-6.367 14.22-14.22 14.22-7.853 0-14.22-6.367-14.22-14.22 0-7.853 6.367-14.22 14.22-14.22 7.853 0 14.22 6.367 14.22 14.22z" data-paper-data="{&quot;index&quot;:null}"/><path fill="#b5ae6e" stroke="#b5ae6e" stroke-width="5" d="M239.22 75c0 7.853-6.367 14.22-14.22 14.22-7.853 0-14.22-6.367-14.22-14.22 0-7.853 6.367-14.22 14.22-14.22 7.853 0 14.22 6.367 14.22 14.22z" data-paper-data="{&quot;index&quot;:null}"/><path fill="#b5ae6e" d="M239.22 25c0 7.853-6.367 14.22-14.22 14.22-7.853 0-14.22-6.367-14.22-14.22 0-7.853 6.367-14.22 14.22-14.22 7.853 0 14.22 6.367 14.22 14.22zM139.22 25c0 7.853-6.367 14.22-14.22 14.22-7.853 0-14.22-6.367-14.22-14.22 0-7.853 6.367-14.22 14.22-14.22 7.853 0 14.22 6.367 14.22 14.22zM89.22 25c0 7.853-6.367 14.22-14.22 14.22-7.853 0-14.22-6.367-14.22-14.22 0-7.853 6.367-14.22 14.22-14.22 7.853 0 14.22 6.367 14.22 14.22zM39.22 25c0 7.853-6.367 14.22-14.22 14.22-7.853 0-14.22-6.367-14.22-14.22 0-7.853 6.367-14.22 14.22-14.22 7.853 0 14.22 6.367 14.22 14.22z" data-paper-data="{&quot;index&quot;:null}"/><path fill="#e8df8e" d="M39.22 75c0 7.853-6.367 14.22-14.22 14.22-7.853 0-14.22-6.367-14.22-14.22 0-7.853 6.367-14.22 14.22-14.22 7.853 0 14.22 6.367 14.22 14.22z" data-paper-data="{&quot;index&quot;:null}"/><path fill="#b5ae6e" d="M89.22 75c0 7.853-6.367 14.22-14.22 14.22-7.853 0-14.22-6.367-14.22-14.22 0-7.853 6.367-14.22 14.22-14.22 7.853 0 14.22 6.367 14.22 14.22z" data-paper-data="{&quot;index&quot;:null}"/><path fill="#e8df8e" d="M39.22 125c0 7.853-6.367 14.22-14.22 14.22-7.853 0-14.22-6.367-14.22-14.22 0-7.853 6.367-14.22 14.22-14.22 7.853 0 14.22 6.367 14.22 14.22zM89.22 175c0 7.853-6.367 14.22-14.22 14.22-7.853 0-14.22-6.367-14.22-14.22 0-7.853 6.367-14.22 14.22-14.22 7.853 0 14.22 6.367 14.22 14.22zM139.22 225c0 7.853-6.367 14.22-14.22 14.22-7.853 0-14.22-6.367-14.22-14.22 0-7.853 6.367-14.22 14.22-14.22 7.853 0 14.22 6.367 14.22 14.22zM139.22 275c0 7.853-6.367 14.22-14.22 14.22-7.853 0-14.22-6.367-14.22-14.22 0-7.853 6.367-14.22 14.22-14.22 7.853 0 14.22 6.367 14.22 14.22zM89.22 275c0 7.853-6.367 14.22-14.22 14.22-7.853 0-14.22-6.367-14.22-14.22 0-7.853 6.367-14.22 14.22-14.22 7.853 0 14.22 6.367 14.22 14.22zM39.22 275c0 7.853-6.367 14.22-14.22 14.22-7.853 0-14.22-6.367-14.22-14.22 0-7.853 6.367-14.22 14.22-14.22 7.853 0 14.22 6.367 14.22 14.22zM39.22 225c0 7.853-6.367 14.22-14.22 14.22-7.853 0-14.22-6.367-14.22-14.22 0-7.853 6.367-14.22 14.22-14.22 7.853 0 14.22 6.367 14.22 14.22z" data-paper-data="{&quot;index&quot;:null}"/></g><path fill="none" stroke="#000" stroke-opacity=".149" stroke-width="18" d="M105.833 88.25c0-5.683 4.608-10.291 10.292-10.291h20.583c5.146 0 7.719 2.573 10.292 5.146l10.291 10.291c2.573 2.573 5.146 5.146 10.292 5.146h30.874c5.146 0 7.72-2.573 10.292-5.146l10.292-10.291c2.573-2.573 5.145-5.146 10.291-5.146h254.543c5.684 0 10.292 4.608 10.292 10.292v102.915c0 5.684-4.608 10.292-10.292 10.292H229.332c-5.146 0-7.718 2.573-10.291 5.146l-10.292 10.291c-2.573 2.573-5.146 5.146-10.292 5.146h-30.874c-5.146 0-7.719-2.573-10.292-5.146L147 206.604c-2.573-2.573-5.146-5.146-10.292-5.146h-20.583c-5.684 0-10.292-4.608-10.292-10.292z" style="mix-blend-mode:normal;fill-rule:nonzero;stroke-linecap:butt;stroke-linejoin:miter;stroke-miterlimit:10;stroke-dasharray:none;stroke-dashoffset:0"/><path fill="#fff" stroke="#fff" stroke-width="8" d="M105.833 88.25c0-5.683 4.608-10.291 10.292-10.291h20.583c5.146 0 7.719 2.573 10.292 5.146l10.291 10.291c2.573 2.573 5.146 5.146 10.292 5.146h30.874c5.146 0 7.72-2.573 10.292-5.146l10.292-10.291c2.573-2.573 5.145-5.146 10.291-5.146h254.543c5.684 0 10.292 4.608 10.292 10.292v102.915c0 5.684-4.608 10.292-10.292 10.292H229.332c-5.146 0-7.718 2.573-10.291 5.146l-10.292 10.291c-2.573 2.573-5.146 5.146-10.292 5.146h-30.874c-5.146 0-7.719-2.573-10.292-5.146L147 206.604c-2.573-2.573-5.146-5.146-10.292-5.146h-20.583c-5.684 0-10.292-4.608-10.292-10.292z" style="mix-blend-mode:normal;fill-rule:nonzero;stroke-linecap:butt;stroke-linejoin:miter;stroke-miterlimit:10;stroke-dasharray:none;stroke-dashoffset:0"/><path fill="#b9b271" stroke="#fff" stroke-width="8" d="M268.819 101.768h166.33c21.536 0 38.994 17.457 38.994 38.993 0 21.535-17.458 38.993-38.994 38.993H268.82c-21.536 0-38.994-17.458-38.994-38.993 0-21.536 17.458-38.993 38.994-38.993z" style="mix-blend-mode:normal;fill-rule:nonzero;stroke-linecap:butt;stroke-linejoin:miter;stroke-miterlimit:10;stroke-dasharray:none;stroke-dashoffset:0"/><g aria-label="//" style="font-size:69.0084px;font-family:&quot;Sans Serif&quot;;fill:#b9b271;stroke:#b9b271;stroke-width:5.17563;stroke-miterlimit:10"><path d="M163.346 119.597h5.728l-17.521 56.71h-5.729zM186.596 119.597h5.728l-17.522 56.71h-5.728z"/></g></svg>