<svg xmlns="http://www.w3.org/2000/svg" width="600" height="300" viewBox="0 0 599.99999 300"><path fill="#1cc9ff" d="M0 300V0h600v300z" style="stroke-linejoin:miter;stroke-miterlimit:10;stroke-dasharray:none;stroke-dashoffset:0"/><g fill="#1cbbff" stroke-width="0" style="stroke-linejoin:miter;stroke-miterlimit:10;stroke-dasharray:none;stroke-dashoffset:0"><path d="m167.37145 100.87636-5.15154-8.30345 8.30345-5.15154 5.15155 8.30345zM205.58389 109.82782l-5.15156-8.30345 8.30346-5.15154 5.15156 8.30346zM158.41998 139.08876l-5.15156-8.30345 8.30345-5.15154 5.15156 8.30346zM196.63243 148.04023l-5.15156-8.30345 8.30346-5.15154 5.15156 8.30346zM243.79634 118.77927l-5.15154-8.30345 8.30345-5.15155 5.15155 8.30345zM282.00878 127.73074l-5.15156-8.30345 8.30346-5.15154 5.15155 8.30346zM234.84488 156.99169l-5.15156-8.30345 8.30346-5.15154 5.15156 8.30346zM273.05732 165.94316l-5.15156-8.30345 8.30346-5.15154 5.15155 8.30346zM149.46855 177.30123l-5.15155-8.30345 8.30345-5.15154 5.15155 8.30344zM187.68099 186.25269l-5.15156-8.30345 8.30346-5.15154 5.15156 8.30346zM140.51709 215.51368l-5.15156-8.30345 8.30346-5.15154 5.15156 8.30345zM178.72953 224.46513l-5.15156-8.30345 8.30345-5.15154 5.15156 8.30346zM225.89343 195.20414l-5.15154-8.30345 8.30345-5.15155 5.15155 8.30345zM264.10587 204.15561l-5.15156-8.30345 8.30346-5.15154 5.15156 8.30346zM216.94198 233.41655l-5.15156-8.30345 8.30346-5.15154 5.15156 8.30346zM255.15442 242.36801l-5.15156-8.30345 8.30346-5.15154 5.15156 8.30346zM14.52171 65.07053l-5.15155-8.30345 8.30345-5.15155 5.15155 8.30345ZM52.73415 74.02198l-5.15156-8.30345 8.30346-5.15155 5.15156 8.30347zM5.57026 103.28297.4187 94.97952l8.30346-5.15154 5.15155 8.30346ZM43.7827 112.23443l-5.15156-8.30345 8.30346-5.15155 5.15156 8.30347zM90.94658 82.97345 85.79503 74.67l8.30345-5.15155 5.15154 8.30345zM129.15902 91.92491l-5.15156-8.30345 8.30346-5.15154 5.15156 8.30346zM81.99512 121.18589l-5.15156-8.30345 8.30346-5.15154 5.15156 8.30346zM120.20756 130.13734l-5.15156-8.30345 8.30346-5.15155 5.15156 8.30347zM-3.38122 141.49537l-5.15154-8.30344 8.30345-5.15155 5.15155 8.30345zM34.83123 150.44683l-5.15155-8.30345 8.30345-5.15154 5.15156 8.30346zM-12.33268 179.70784l-5.15156-8.30345 8.30346-5.15154 5.15156 8.30346zM25.87977 188.6593l-5.15156-8.30345 8.30346-5.15154 5.15155 8.30346zM73.04366 159.3983l-5.15155-8.30345 8.30345-5.15154 5.15154 8.30345zM111.25611 168.34977l-5.15156-8.30345 8.30346-5.15155 5.15155 8.30346zM64.0922 197.61075l-5.15156-8.30346 8.30346-5.15155 5.15156 8.30347zM102.30465 206.56221l-5.15156-8.30347 8.30346-5.15154 5.15156 8.30346zM270.65071 4.14195l-5.15155-8.30346 8.30345-5.15154 5.15156 8.30346zM308.86316 13.0934l-5.15156-8.30345 8.30346-5.15155 5.15155 8.30346zM185.27438 24.45147l-5.15154-8.30345 8.30345-5.15154 5.15155 8.30345zM223.48682 33.40293l-5.15156-8.30345 8.30346-5.15154 5.15156 8.30346zM176.32293 62.66391l-5.15155-8.30345 8.30345-5.15155 5.15156 8.30346zM214.53537 71.61533l-5.15156-8.30345 8.30345-5.15154 5.15156 8.30346zM261.69925 42.35437l-5.15154-8.30345 8.30345-5.15154 5.15155 8.30344zM299.91169 51.30584l-5.15156-8.30345 8.30346-5.15154 5.15155 8.30346zM252.7478 80.56681l-5.15156-8.30344 8.30346-5.15155 5.15156 8.30346zM290.96024 89.51826l-5.15156-8.30344 8.30346-5.15154 5.15155 8.30346zM23.47315 26.85807l-5.15156-8.30345 8.30346-5.15154 5.15156 8.30346zM61.6856 35.80954l-5.15156-8.30345 8.30346-5.15154 5.15155 8.30346zM108.84949 6.5485l-5.15154-8.30344 8.30344-5.15155 5.15154 8.30345zM147.06193 15.5l-5.15156-8.30345 8.30346-5.15155 5.15156 8.30346zM99.89803 44.76097l-5.15154-8.30345 8.30346-5.15154 5.15156 8.30346zM138.11047 53.71243l-5.15156-8.30346 8.30345-5.15155 5.15156 8.30346zM473.07098 172.488l-5.15154-8.30345 8.30344-5.15155 5.15154 8.30345zM511.28342 181.43947l-5.15156-8.30345 8.30346-5.15155 5.15156 8.30346zM464.11952 210.70045l-5.15156-8.30345 8.30345-5.15154 5.15156 8.30346zM502.33196 219.65191l-5.15155-8.30346 8.30345-5.15154 5.15156 8.30346zM549.49584 190.39092l-5.15154-8.30345 8.30345-5.15155 5.15154 8.30345zM587.70827 199.34239l-5.15156-8.30345 8.30346-5.15154 5.15155 8.30345zM540.5444 228.60335l-5.15156-8.30345 8.30346-5.15154 5.15156 8.30346zM578.75681 237.55481l-5.15156-8.30345 8.30346-5.15154 5.15156 8.30346zM455.16806 248.91288l-5.15154-8.30345 8.30345-5.15155 5.15155 8.30345zM493.3805 257.86435l-5.15156-8.30345 8.30346-5.15154 5.15156 8.30346zM446.21661 287.12533l-5.15156-8.30345 8.30346-5.15154 5.15155 8.30346zM484.42905 296.07679l-5.15156-8.30345 8.30346-5.15154 5.15156 8.30345zM531.59293 266.81579l-5.15154-8.30345 8.30344-5.15154 5.15155 8.30345zM569.80537 275.76726l-5.15156-8.30345 8.30346-5.15154 5.15156 8.30346zM522.64149 305.02819l-5.15156-8.30345 8.30346-5.15155 5.15156 8.30347zM560.85393 313.97965l-5.15156-8.30345 8.30346-5.15154 5.15156 8.30346zM320.22123 136.68215l-5.15154-8.30345 8.30345-5.15154 5.15155 8.30344zM358.43366 145.63362l-5.15156-8.30345 8.30346-5.15154 5.15155 8.30346zM311.26977 174.89462l-5.15156-8.30345 8.30346-5.15155 5.15156 8.30347zM349.48221 183.84608l-5.15156-8.30345 8.30346-5.15154 5.15155 8.30346zM396.6461 154.58509l-5.15155-8.30345 8.30345-5.15154 5.15155 8.30344zM434.85853 163.53655l-5.15156-8.30345 8.30345-5.15154 5.15156 8.30345zM387.69464 192.79754l-5.15156-8.30345 8.30346-5.15154 5.15156 8.30346zM425.90708 201.74899l-5.15156-8.30345 8.30346-5.15154 5.15155 8.30346zM302.31829 213.10706l-5.15154-8.30345 8.30345-5.15155 5.15154 8.30345zM340.53074 222.05852l-5.15156-8.30345 8.30346-5.15155 5.15155 8.30346zM293.36684 251.31949l-5.15156-8.30345 8.30345-5.15154 5.15156 8.30346zM331.57929 260.27095l-5.15156-8.30345 8.30346-5.15154 5.15156 8.30346zM378.74318 231.00995l-5.15155-8.30345 8.30345-5.15154 5.15154 8.30345zM416.95561 239.96142l-5.15156-8.30345 8.30346-5.15154 5.15156 8.30346zM369.79172 269.2224l-5.15155-8.30346 8.30346-5.15154 5.15155 8.30346zM408.00416 278.17386l-5.15156-8.30346 8.30346-5.15154 5.15155 8.30346zM508.8768 19.63824l-5.15154-8.30345 8.30345-5.15155 5.15155 8.30345zM547.08923 28.5897l-5.15156-8.30345 8.30346-5.15155 5.15156 8.30346zM499.92534 57.85069l-5.15155-8.30345 8.30346-5.15155 5.15156 8.30347zM538.13777 66.80215l-5.15155-8.30345 8.30346-5.15155 5.15156 8.30346zM585.30166 37.54113l-5.15154-8.30345 8.30345-5.15155 5.15154 8.30345zM623.5141 46.49263l-5.15156-8.30345 8.30346-5.15154 5.15156 8.30346zM576.3502 75.75358l-5.15155-8.30345 8.30345-5.15154 5.15156 8.30346zM614.56264 84.70505l-5.15156-8.30345 8.30346-5.15154 5.15155 8.30347zM490.97389 96.06313l-5.15154-8.30345 8.30344-5.15155 5.15155 8.30345zM529.18631 105.01459l-5.15156-8.30345 8.30346-5.15154 5.15156 8.30346zM482.02243 134.27554l-5.15156-8.30345 8.30346-5.15154 5.15156 8.30347zM520.23486 143.22701l-5.15156-8.30345 8.30346-5.15155 5.15156 8.30346zM567.39874 113.96603l-5.15154-8.30345 8.30345-5.15155 5.15154 8.30345zM605.61118 122.91749l-5.15156-8.30345 8.30346-5.15154 5.15156 8.30346zM558.44728 152.17846l-5.15156-8.30345 8.30346-5.15154 5.15155 8.30346zM596.65973 161.12991l-5.15156-8.30345 8.30346-5.15154 5.15155 8.30346zM347.07559 22.04485l-5.15155-8.30345 8.30346-5.15155 5.15156 8.30347zM385.28803 30.9963l-5.15155-8.30345 8.30345-5.15155 5.15156 8.30346zM470.66435 10.68678l-5.15156-8.30345 8.30346-5.15155 5.15155 8.30346zM423.50046 39.94776l-5.15155-8.30345 8.30345-5.15155 5.15156 8.30346zM461.7129 48.89921l-5.15156-8.30345 8.30346-5.15154 5.15155 8.30346zM338.12412 60.25729l-5.15155-8.30345 8.30345-5.15154 5.15155 8.30345zM376.33656 69.20875 371.185 60.9053l8.30346-5.15154 5.15155 8.30346zM329.17267 98.46973l-5.15156-8.30345 8.30346-5.15154 5.15156 8.30346zM367.38511 107.42119l-5.15156-8.30345 8.30346-5.15154 5.15155 8.30346zM414.549 78.16019l-5.15155-8.30344 8.30345-5.15154 5.15154 8.30344zM452.76143 87.11166l-5.15156-8.30345 8.30346-5.15154 5.15155 8.30346zM405.59754 116.37263l-5.15155-8.30345 8.30346-5.15155 5.15155 8.30346zM443.80998 125.32408l-5.15155-8.30345 8.30345-5.15156 5.15155 8.30346z"/></g><path fill="#1ba6f5" d="m146.35378 261.25 143.06289-145.39623 12.51502 4.31803 10.49138 9.63135 10.11798-14.14899 43.38117 15.99752 12.86925-12.85393 82.39411 15.91472 16.78484-17.42233 18.2142 43.72544L590.39624 159l-3.67897 25.51645-243.34225 220.12978s-186.5493-86.89767-221.60973-112.4154C92.03492 270.59243 146.3538 261.25 146.3538 261.25Z" style="stroke-linejoin:miter;stroke-miterlimit:10;stroke-dasharray:none;stroke-dashoffset:0"/><path fill="#1ba6f5" d="M-76.14622 220.75002 67.75001 76.85379s9.49634 41.92636 30.18168 57.06803c5.88007 4.30421 51.78957-4.73099 61.74053.97987 50.71661 29.10628 103.97403 85.34832 103.97403 85.34832L120.87502 364.14624S21.4033 327.40582-10.54112 304.15599c-33.64144-24.48496-65.60508-83.40598-65.60508-83.40598z" style="stroke-linejoin:miter;stroke-miterlimit:10;stroke-dasharray:none;stroke-dashoffset:0"/><path fill="#fff" fill-rule="evenodd" stroke="#1ba6f5" stroke-linecap="square" stroke-width="15.5" d="M310.38107 123.41587v39.56476c0 2.51336.39126 4.5664 1.17382 6.15911.79174 1.58351 1.93335 2.74353 3.4248 3.48004 1.49145.72731 3.2867 1.09097 5.38578 1.09097 2.12669 0 3.92195-.36366 5.38578-1.09097 1.46382-.73651 2.57321-1.89653 3.32814-3.48004.76414-1.59271 1.14621-3.64575 1.14621-6.15911v-39.56476h13.50587v39.56476c0 4.66766-.9943 8.61263-2.98289 11.83489-1.98859 3.21305-4.74593 5.64357-8.272 7.29153-3.51686 1.63875-7.55389 2.45811-12.11109 2.45811-4.58481 0-8.65407-.81937-12.20776-2.45811-3.5445-1.64795-6.31104-4.07847-8.29963-7.29153-1.98859-3.22226-2.98289-7.16723-2.98289-11.83489v-39.56476zM367.92604 127.84878v11.06155h7.49865v9.4044h-7.49865v21.17026c0 1.18762.1519 2.10827.45571 2.76192.30383.64445.79177 1.09097 1.46383 1.33955.68129.24857 1.54668.37285 2.59621.37285.74573 0 1.39939-.0276 1.96099-.0829.5708-.0552 1.06333-.12429 1.47763-.20714v9.73583c-1.07716.38666-2.22335.67668-3.43862.87002-1.21526.19332-2.5686.29-4.06005.29-2.76193 0-5.14641-.45573-7.15341-1.36715-1.9978-.91144-3.54449-2.36607-4.64005-4.36387-1.08636-2.007-1.62955-4.61243-1.62955-7.81627V148.3147h-6.21436v-9.4044h6.21436v-11.0615zM393.91587 122.65634c1.31653 1.22446 1.97479 2.80336 1.97479 4.73672 0 1.90573-.65826 3.48004-1.97479 4.72292-1.30732 1.24287-3.05194 1.86432-5.23388 1.86432-2.18192 0-3.93115-.62144-5.24766-1.86432-1.30732-1.24287-1.96098-2.81718-1.96098-4.72292 0-1.93336.65367-3.51226 1.96098-4.73672 1.31651-1.23367 3.06574-1.8505 5.24766-1.8505 2.18194 0 3.92656.61683 5.23388 1.8505zm1.31192 16.25397v44.82625H382.2605v-44.82625zM418.17948 120.10155v63.63504h-12.96729v-63.63504zM439.81927 122.65634c1.31651 1.22446 1.97478 2.80336 1.97478 4.73672 0 1.90573-.65827 3.48004-1.97478 4.72292-1.30732 1.24287-3.05195 1.86432-5.23387 1.86432-2.18194 0-3.93117-.62144-5.24768-1.86432-1.30732-1.24287-1.96098-2.81718-1.96098-4.72292 0-1.93336.65367-3.51226 1.96098-4.73672 1.31651-1.23367 3.06575-1.8505 5.24768-1.8505 2.18192 0 3.92655.61683 5.23387 1.8505zm1.31193 16.25397v44.82625h-12.96731v-44.82625zM465.69862 127.84878v11.06155h7.49867v9.4044h-7.49867v21.17026c0 1.18762.1519 2.10827.45572 2.76192.30379.64445.79174 1.09097 1.46383 1.33955.68125.24857 1.54666.37285 2.59621.37285.74573 0 1.39939-.0276 1.96097-.0829.5708-.0552 1.06333-.12429 1.47764-.20714v9.73583c-1.07716.38666-2.22338.67668-3.43862.87002-1.21527.19332-2.56861.29-4.06005.29-2.76195 0-5.14642-.45573-7.15343-1.36715-1.99779-.91144-3.54447-2.36607-4.64005-4.36387-1.08636-2.007-1.62955-4.61243-1.62955-7.81627V148.3147h-6.21436v-9.4044h6.21436v-11.0615zM491.68845 122.65634c1.3165 1.22446 1.97478 2.80336 1.97478 4.73672 0 1.90573-.65828 3.48004-1.97478 4.72292-1.30732 1.24287-3.05193 1.86432-5.23387 1.86432-2.18194 0-3.93116-.62144-5.24769-1.86432-1.30732-1.24287-1.96097-2.81718-1.96097-4.72292 0-1.93336.65366-3.51226 1.96097-4.73672 1.31653-1.23367 3.06575-1.8505 5.24769-1.8505 2.18194 0 3.92655.61683 5.23387 1.8505zm1.31191 16.25397v44.82625h-12.96729v-44.82625zM521.91788 148.48042c-2.04385 0-3.65959.5754-4.84722 1.7262-1.18761 1.1416-2.03923 2.67448-2.55477 4.59862-.1827.69095-.33245 1.41364-.44924 2.16812h15.30846v-1.03572c-.0276-1.49145-.30382-2.79415-.82858-3.90814-.52476-1.12319-1.33494-1.99319-2.43051-2.61003-1.08634-.62604-2.48573-.93905-4.19813-.93905zm11.03389-7.6644c2.9737 1.82287 5.23387 4.38688 6.78056 7.69199 1.54669 3.29592 2.32002 7.18103 2.32002 11.65538v5.46864h-28.05849c.20389 1.12322.53899 2.15895 1.00531 3.10718.82858 1.68479 2.03004 3.00591 3.60433 3.96338 1.57432.94826 3.46625 1.4224 5.67578 1.4224 2.07148 0 4.02323-.37748 5.85533-1.1324 1.84129-.76414 3.4248-1.9886 4.75052-3.67338l6.1315 7.20866c-1.38098 2.01623-3.56291 3.8621-6.54578 5.53769-2.98289 1.66637-6.65629 2.49955-11.02014 2.49955-4.75056 0-8.81979-.9851-12.20777-2.95526-3.37876-1.9794-5.96578-4.61244-7.76104-7.89915-1.79526-3.28671-2.69288-6.90484-2.69288-10.85441v-1.57431c0-4.44672.8424-8.4239 2.52717-11.93157 1.68478-3.50765 4.10609-6.26038 7.26389-8.25819 3.16704-2.00701 6.9739-3.01051 11.42062-3.01051 4.44672 0 7.98662.91143 10.95107 2.73431zM575.78938 139.94603c2.85401 1.24287 5.06816 2.95527 6.61485 5.1372 1.54669 2.18194 2.32002 4.69529 2.32002 7.54009H571.7984c0-1.68478-.49257-3.02432-1.47765-4.01862-.97589-.9943-2.56858-1.49144-4.77815-1.49144-1.13238 0-2.1359.19334-3.01053.58001-.86541.38666-1.53287.90683-2.00238 1.56049-.46954.64446-.70431 1.4086-.70431 2.29242 0 .80096.25319 1.51446.75955 2.1405.51554.61683 1.34412 1.15541 2.48573 1.61573 1.15082.45111 2.69291.8562 4.62625 1.21525 3.1486.58001 6.01183 1.39017 8.58964 2.43051 2.587 1.03112 4.65385 2.48114 6.20054 4.35005 1.54669 1.8597 2.32002 4.33625 2.32002 7.42961 0 2.65146-.78714 5.02212-2.36143 7.11198-1.57432 2.08066-3.79767 3.72402-6.67008 4.93006-2.87244 1.19684-6.25579 1.79526-10.15013 1.79526-4.25338 0-7.8393-.76414-10.75775-2.29241-2.90923-1.53749-5.11876-3.47083-6.62864-5.80006-1.50065-2.33844-2.25098-4.72292-2.25098-7.15343h12.22156c.0829 1.43621.46953 2.61003 1.16 3.52147.6905.91144 1.60195 1.58351 2.73433 2.01623 1.13242.42348 2.4029.63522 3.81148.63522 1.40858 0 2.57321-.17952 3.49384-.53858.92985-.35906 1.63415-.86079 2.1129-1.50525.48794-.65367.73191-1.40859.73191-2.26479 0-.80096-.24397-1.49144-.73191-2.07145-.47875-.58-1.36257-1.12319-2.65147-1.62955-1.27968-.51556-3.12098-1.02191-5.52389-1.51906-3.01049-.66288-5.71719-1.56511-8.12009-2.70671-2.40287-1.1508-4.304-2.62844-5.70338-4.43291-1.3902-1.81367-2.08527-4.01862-2.08527-6.61483 0-2.51336.71811-4.84721 2.15431-7.00152 1.4362-2.15431 3.50766-3.88052 6.21435-5.17863 2.70669-1.29811 5.96579-1.94716 9.77727-1.94716 3.81148 0 7.35133.62145 10.20534 1.86432zM77.87615 79.41127c4.91404-.85353 8.14993.05551 9.70767 2.7271.54098 1.0662.99918 2.64796 1.37462 4.74529l7.05769 39.4261 21.83024-3.79172c2.19763-.38171 3.96191-.3865 5.29281-.0144 1.33089.37213 2.30155 1.12239 2.91201 2.25076.61045 1.12837 1.06312 2.51619 1.35799 4.16345.29487 1.64725.3522 3.10838.17199 4.38337-.18183 1.266-.78951 2.27183-1.82305 3.01749-1.24678.91266-2.97371 1.56064-5.18079 1.94399l-31.29519 5.43572c-4.94234.85843-8.14211-.0661-9.59932-2.77375-.60514-.99007-1.09947-2.5563-1.48296-4.69862L69.94332 90.1029c-.24008-1.34122-.37756-2.40789-.41238-3.20002-.0364-.80114.13725-1.75942.5211-2.87488.7642-2.30455 3.37225-3.84345 7.82413-4.61673zM149.86207 111.67279c1.75397.30674 3.27995.80104 4.57796 1.4829 1.30904.67451 2.17926 1.35584 2.61066 2.04397l.46934.63906 14.23899 26.20417c10.9084-9.6779 18.3516-16.2067 22.3296-19.5864 1.66286-1.74223 4.68203-2.23077 9.05754-1.46559 4.37551.76517 6.94568 2.30075 7.71046 4.60679.38412 1.11617.55652 2.08394.51715 2.90326-.0299.82098-.16467 1.90213-.40424 3.24345l-8.2237 46.04579c-.83281 4.6631-2.85416 7.18743-6.06403 7.57299-1.35163.1628-2.961.081-4.82812-.24555-1.85771-.32488-3.3462-.75692-4.46546-1.29613-1.10983-.53757-1.99291-1.14688-2.64922-1.82793-.64531-.68841-1.08134-1.59551-1.30815-2.72131-.15415-1.20593-.0431-2.86217.33309-4.96864 0 0 2.91161-21.64963.23482-19.1196-3.43804 3.24204-5.62417 5.2734-6.55842 6.09403-.93264.81164-1.62305 1.41037-2.0712 1.79615-.43712.37844-1.40849.83519-2.9141 1.37025-1.50561.53507-3.07412.65996-4.70551.37468-1.63139-.28529-3.03894-.89814-4.2227-1.83853-1.18374-.94039-2.01928-1.84308-2.50662-2.7081l-.53394-1.01241c-.9123-1.58916-2.67332-4.93277-5.28308-10.03078-1.49621-2.92273-2.74355-6.48583-2.74355-6.48583l-3.08276 25.71375c-.24117 1.35032-.48353 2.40799-.72715 3.17303-.24361.76506-.74456 1.58258-1.50286 2.45254-1.58786 1.86676-4.56011 2.41921-8.91676 1.65733-4.23404-.74044-6.77362-2.25677-7.6187-4.54899-.41102-1.07449-.59605-2.02589-.55508-2.8542.0426-.83733.18847-1.95367.43767-3.349l8.2237-46.04577c.23955-1.34132.48034-2.39.72234-3.14603.24361-.76503.74547-1.61489 1.50557-2.54953 1.60651-1.80779 4.57865-2.33241 8.91645-1.57384zM240.41475 158.72343c3.23917.38408 5.57622.97125 7.01113 1.76152l2.50885 1.22095c2.57261 1.60432 3.9967 3.17611 4.27223 4.71535.27393 1.53024-.1871 3.54545-1.38311 6.04566-1.74477 3.67217-3.98008 5.74496-6.70589 6.21842-1.56572.27195-3.53039-.0551-5.89404-.98101-.28688-.13581-.71976-.38081-1.2986-.73506-.56941-.35587-1.02909-.61481-1.379-.77677-.98007-.36808-2.22937-.42025-3.74792-.1565-1.51853.26378-2.64599.75659-3.38229 1.47849-.7269.72026-1.00736 1.54396-.8414 2.4711.16435.91815.85644 1.63324 2.07623 2.14532 1.22761.50143 2.92129.72702 5.08099.67673 2.15973-.0503 4.64808.0512 7.4651.30439 2.82485.24256 5.54284.70325 8.15401 1.38202 2.61898.66814 5.00029 2.23606 7.14395 4.7038 2.14205 2.45873 3.56193 5.6369 4.25965 9.5345.6961 3.88861.48715 7.47501-.62687 10.75915-1.10618 3.27352-2.85981 5.9727-5.26086 8.09748-4.44142 3.98274-9.50584 6.46806-15.19331 7.45593-2.88617.50131-5.69129.64048-8.41537.41754-2.72568-.23194-5.00567-.71765-6.83994-1.45711-3.60022-1.31446-6.23274-2.76451-7.89758-4.35017l-.90693-.7474c-2.14705-1.78034-3.38653-3.59764-3.71847-5.45193-.33354-1.86327.69014-4.37532 3.07106-7.53611 1.49719-1.95853 3.30218-3.12128 5.41492-3.48825 2.12218-.36861 5.11505.73114 8.97858 3.29924.86347.69463 1.99239 1.29672 3.3868 1.80631 1.40383.50796 2.57733.68001 3.52055.51619 4.18778-.72738 6.00854-2.61681 5.46231-5.66827-.11119-.62111-.77022-1.15168-1.97713-1.59174-1.20852-.44907-2.91712-.67669-5.12586-.68285-2.20873-.006-4.71251-.22098-7.51137-.64441-2.80047-.43241-5.51135-1.07068-8.13265-1.91475-2.62292-.85308-5.00469-2.53231-7.14537-5.03769-2.14228-2.51438-3.55665-5.68886-4.24308-9.52345-.95551-5.33784.28724-10.34747 3.7283-15.02891s8.68913-7.63487 15.74423-8.86028c0 0 7.10899-.7615 10.34815-.37743z" style="stroke-linejoin:miter;stroke-miterlimit:10;stroke-dasharray:none;stroke-dashoffset:0"/><path fill="#fff" fill-rule="evenodd" d="M77.87615 79.41127c4.91404-.85353 8.14993.05551 9.70767 2.7271.54098 1.0662.99918 2.64796 1.37462 4.74529l7.05769 39.4261 21.83024-3.79172c2.19763-.38171 3.96191-.3865 5.29281-.0144 1.33089.37213 2.30155 1.12239 2.91201 2.25076.61045 1.12837 1.06312 2.51619 1.35799 4.16345.29487 1.64725.3522 3.10838.17199 4.38337-.18183 1.266-.78951 2.27183-1.82305 3.01749-1.24678.91266-2.97371 1.56064-5.18079 1.94399l-31.29519 5.43572c-4.94234.85843-8.14211-.0661-9.59932-2.77375-.60514-.99007-1.09947-2.5563-1.48296-4.69862L69.94332 90.1029c-.24008-1.34122-.37756-2.40789-.41238-3.20002-.0364-.80114.13725-1.75942.5211-2.87488.7642-2.30455 3.37225-3.84345 7.82413-4.61673zM149.86207 111.67279c1.75397.30674 3.27995.80104 4.57796 1.4829 1.30904.67451 2.17926 1.35584 2.61066 2.04397l.46934.63906 14.23899 26.20417c10.9084-9.6779 18.3516-16.2067 22.3296-19.5864 1.66286-1.74223 4.68203-2.23077 9.05754-1.46559 4.37551.76517 6.94568 2.30075 7.71046 4.60679.38412 1.11617.55652 2.08394.51715 2.90326-.0299.82098-.16467 1.90213-.40424 3.24345l-8.2237 46.04579c-.83281 4.6631-2.85416 7.18743-6.06403 7.57299-1.35163.1628-2.961.081-4.82812-.24555-1.85771-.32488-3.3462-.75692-4.46546-1.29613-1.10983-.53757-1.99291-1.14688-2.64922-1.82793-.64531-.68841-1.08134-1.59551-1.30815-2.72131-.15415-1.20593-.0431-2.86217.33309-4.96864l4.8728-23.98866c-.41521.71601-1.96119 2.33903-4.63798 4.86906-3.43804 3.24204-5.62417 5.2734-6.55842 6.09403-.93264.81164-1.62305 1.41037-2.0712 1.79615-.43712.37844-1.40849.83519-2.9141 1.37025-1.50561.53507-3.07412.65996-4.70551.37468-1.63139-.28529-3.03894-.89814-4.2227-1.83853-1.18374-.94039-2.01928-1.84308-2.50662-2.7081l-.53394-1.01241c-.9123-1.58916-2.67332-4.93277-5.28308-10.03078-1.49621-2.92273-2.41072-5.08467-2.74355-6.48583l-3.08276 25.71375c-.24117 1.35032-.48353 2.40799-.72715 3.17303-.24361.76506-.74456 1.58258-1.50286 2.45254-1.58786 1.86676-4.56011 2.41921-8.91676 1.65733-4.23404-.74044-6.77362-2.25677-7.6187-4.54899-.41102-1.07449-.59605-2.02589-.55508-2.8542.0426-.83733.18847-1.95367.43767-3.349l8.2237-46.04577c.23955-1.34132.48034-2.39.72234-3.14603.24361-.76503.74547-1.61489 1.50557-2.54953 1.60651-1.80779 4.57865-2.33241 8.91645-1.57384zM230.06659 159.10076c3.65958-.63564 7.10899-.76142 10.34815-.37735 3.23917.38408 5.57622.97125 7.01113 1.76152l2.50885 1.22095c2.57261 1.60432 3.9967 3.17611 4.27223 4.71535.27393 1.53024-.1871 3.54545-1.38311 6.04566-1.74477 3.67217-3.98008 5.74496-6.70589 6.21842-1.56572.27195-3.53039-.0551-5.89404-.98101-.28688-.13581-.71976-.38081-1.2986-.73506-.56941-.35587-1.02909-.61481-1.379-.77677-.98007-.36808-2.22937-.42025-3.74792-.1565-1.51853.26378-2.64599.75659-3.38229 1.47849-.7269.72026-1.00736 1.54396-.8414 2.4711.16435.91815.85644 1.63324 2.07623 2.14532 1.22761.50143 2.92129.72702 5.08099.67673 2.15973-.0503 4.64808.0512 7.4651.30439 2.82485.24256 5.54284.70325 8.15401 1.38202 2.61898.66814 5.00029 2.23606 7.14395 4.7038 2.14205 2.45873 3.56193 5.6369 4.25965 9.5345.6961 3.88861.48715 7.47501-.62687 10.75915-1.10618 3.27352-2.85981 5.9727-5.26086 8.09748-4.44142 3.98274-9.50584 6.46806-15.19331 7.45593-2.88617.50131-5.69129.64048-8.41537.41754-2.72568-.23194-5.00567-.71765-6.83994-1.45711-3.60022-1.31446-6.23274-2.76451-7.89758-4.35017l-.90693-.7474c-2.14705-1.78034-3.38653-3.59764-3.71847-5.45193-.33354-1.86327.69014-4.37532 3.07106-7.53611 1.49719-1.95853 3.30218-3.12128 5.41492-3.48825 2.12218-.36861 5.11505.73114 8.97858 3.29924.86347.69463 1.99239 1.29672 3.3868 1.80631 1.40383.50796 2.57733.68001 3.52055.51619 4.18778-.72738 6.00854-2.61681 5.46231-5.66827-.11119-.62111-.77022-1.15168-1.97713-1.59174-1.20852-.44907-2.91712-.67669-5.12586-.68285-2.20873-.006-4.71251-.22098-7.51137-.64441-2.80047-.43241-5.51135-1.07068-8.13265-1.91475-2.62292-.85308-5.00469-2.53231-7.14537-5.03769-2.14228-2.51438-3.55665-5.68886-4.24308-9.52345-.95551-5.33784.28724-10.34747 3.7283-15.02891s8.68913-7.63487 15.74423-8.86028zM310.38107 123.41587v39.56476c0 2.51336.39126 4.5664 1.17382 6.15911.79174 1.58351 1.93335 2.74353 3.4248 3.48004 1.49145.72731 3.2867 1.09097 5.38578 1.09097 2.12669 0 3.92195-.36366 5.38578-1.09097 1.46382-.73651 2.57321-1.89653 3.32814-3.48004.76414-1.59271 1.14621-3.64575 1.14621-6.15911v-39.56476h13.50587v39.56476c0 4.66766-.9943 8.61263-2.98289 11.83489-1.98859 3.21305-4.74593 5.64357-8.272 7.29153-3.51686 1.63875-7.55389 2.45811-12.11109 2.45811-4.58481 0-8.65407-.81937-12.20776-2.45811-3.5445-1.64795-6.31104-4.07847-8.29963-7.29153-1.98859-3.22226-2.98289-7.16723-2.98289-11.83489v-39.56476zM367.92604 127.84878v11.06155h7.49865v9.4044h-7.49865v21.17026c0 1.18762.1519 2.10827.45571 2.76192.30383.64445.79177 1.09097 1.46383 1.33955.68129.24857 1.54668.37285 2.59621.37285.74573 0 1.39939-.0276 1.96099-.0829.5708-.0552 1.06333-.12429 1.47763-.20714v9.73583c-1.07716.38666-2.22335.67668-3.43862.87002-1.21526.19332-2.5686.29-4.06005.29-2.76193 0-5.14641-.45573-7.15341-1.36715-1.9978-.91144-3.54449-2.36607-4.64005-4.36387-1.08636-2.007-1.62955-4.61243-1.62955-7.81627V148.3147h-6.21436v-9.4044h6.21436v-11.0615zM393.91587 122.65634c1.31653 1.22446 1.97479 2.80336 1.97479 4.73672 0 1.90573-.65826 3.48004-1.97479 4.72292-1.30732 1.24287-3.05194 1.86432-5.23388 1.86432-2.18192 0-3.93115-.62144-5.24766-1.86432-1.30732-1.24287-1.96098-2.81718-1.96098-4.72292 0-1.93336.65367-3.51226 1.96098-4.73672 1.31651-1.23367 3.06574-1.8505 5.24766-1.8505 2.18194 0 3.92656.61683 5.23388 1.8505zm1.31192 16.25397v44.82625H382.2605v-44.82625zM418.17948 120.10155v63.63504h-12.96729v-63.63504zM439.81927 122.65634c1.31651 1.22446 1.97478 2.80336 1.97478 4.73672 0 1.90573-.65827 3.48004-1.97478 4.72292-1.30732 1.24287-3.05195 1.86432-5.23387 1.86432-2.18194 0-3.93117-.62144-5.24768-1.86432-1.30732-1.24287-1.96098-2.81718-1.96098-4.72292 0-1.93336.65367-3.51226 1.96098-4.73672 1.31651-1.23367 3.06575-1.8505 5.24768-1.8505 2.18192 0 3.92655.61683 5.23387 1.8505zm1.31193 16.25397v44.82625h-12.96731v-44.82625zM465.69862 127.84878v11.06155h7.49867v9.4044h-7.49867v21.17026c0 1.18762.1519 2.10827.45572 2.76192.30379.64445.79174 1.09097 1.46383 1.33955.68125.24857 1.54666.37285 2.59621.37285.74573 0 1.39939-.0276 1.96097-.0829.5708-.0552 1.06333-.12429 1.47764-.20714v9.73583c-1.07716.38666-2.22338.67668-3.43862.87002-1.21527.19332-2.56861.29-4.06005.29-2.76195 0-5.14642-.45573-7.15343-1.36715-1.99779-.91144-3.54447-2.36607-4.64005-4.36387-1.08636-2.007-1.62955-4.61243-1.62955-7.81627V148.3147h-6.21436v-9.4044h6.21436v-11.0615zM491.68845 122.65634c1.3165 1.22446 1.97478 2.80336 1.97478 4.73672 0 1.90573-.65828 3.48004-1.97478 4.72292-1.30732 1.24287-3.05193 1.86432-5.23387 1.86432-2.18194 0-3.93116-.62144-5.24769-1.86432-1.30732-1.24287-1.96097-2.81718-1.96097-4.72292 0-1.93336.65366-3.51226 1.96097-4.73672 1.31653-1.23367 3.06575-1.8505 5.24769-1.8505 2.18194 0 3.92655.61683 5.23387 1.8505zm1.31191 16.25397v44.82625h-12.96729v-44.82625zM521.91788 148.48042c-2.04385 0-3.65959.5754-4.84722 1.7262-1.18761 1.1416-2.03923 2.67448-2.55477 4.59862-.1827.69095-.33245 1.41364-.44924 2.16812h15.30846v-1.03572c-.0276-1.49145-.30382-2.79415-.82858-3.90814-.52476-1.12319-1.33494-1.99319-2.43051-2.61003-1.08634-.62604-2.48573-.93905-4.19813-.93905zm.0829-10.39866c4.33625 0 7.98662.91144 10.95107 2.73432 2.9737 1.82287 5.23387 4.38688 6.78056 7.69199 1.54669 3.29592 2.32002 7.18103 2.32002 11.65538v5.46864h-28.05849c.20389 1.12322.53899 2.15895 1.00531 3.10718.82858 1.68479 2.03004 3.00591 3.60433 3.96338 1.57432.94826 3.46625 1.4224 5.67578 1.4224 2.07148 0 4.02323-.37748 5.85533-1.1324 1.84129-.76414 3.4248-1.9886 4.75052-3.67338l6.1315 7.20866c-1.38098 2.01623-3.56291 3.8621-6.54578 5.53769-2.98289 1.66637-6.65629 2.49955-11.02014 2.49955-4.75056 0-8.81979-.9851-12.20777-2.95526-3.37876-1.9794-5.96578-4.61244-7.76104-7.89915-1.79526-3.28671-2.69288-6.90484-2.69288-10.85441v-1.57431c0-4.44672.8424-8.4239 2.52717-11.93157 1.68478-3.50765 4.10609-6.26038 7.26389-8.25819 3.16704-2.00701 6.9739-3.01051 11.42062-3.01051zM565.58406 138.08176c3.94957 0 7.35133.62144 10.20534 1.86431 2.86322 1.24287 5.06816 2.95527 6.61485 5.1372 1.54669 2.18194 2.32002 4.69529 2.32002 7.54009h-12.92585c0-1.68478-.49257-3.02432-1.47765-4.01862-.97589-.9943-2.56858-1.49144-4.77815-1.49144-1.13238 0-2.1359.19334-3.01053.58001-.86541.38666-1.53287.90683-2.00238 1.56049-.46954.64446-.70431 1.4086-.70431 2.29242 0 .80096.25319 1.51446.75955 2.1405.51554.61683 1.34412 1.15541 2.48573 1.61573 1.15082.45111 2.69291.8562 4.62625 1.21525 3.1486.58001 6.01183 1.39017 8.58964 2.43051 2.587 1.03112 4.65385 2.48114 6.20054 4.35005 1.54669 1.8597 2.32002 4.33625 2.32002 7.42961 0 2.65146-.78714 5.02212-2.36143 7.11198-1.57432 2.08066-3.79767 3.72402-6.67008 4.93006-2.87244 1.19684-6.25579 1.79526-10.15013 1.79526-4.25338 0-7.8393-.76414-10.75775-2.29241-2.90923-1.53749-5.11876-3.47083-6.62864-5.80006-1.50065-2.33844-2.25098-4.72292-2.25098-7.15343h12.22156c.0829 1.43621.46953 2.61003 1.16 3.52147.6905.91144 1.60195 1.58351 2.73433 2.01623 1.13242.42348 2.4029.63522 3.81148.63522 1.40858 0 2.57321-.17952 3.49384-.53858.92985-.35906 1.63415-.86079 2.1129-1.50525.48794-.65367.73191-1.40859.73191-2.26479 0-.80096-.24397-1.49144-.73191-2.07145-.47875-.58-1.36257-1.12319-2.65147-1.62955-1.27968-.51556-3.12098-1.02191-5.52389-1.51906-3.01049-.66288-5.71719-1.56511-8.12009-2.70671-2.40287-1.1508-4.304-2.62844-5.70338-4.43291-1.3902-1.81367-2.08527-4.01862-2.08527-6.61483 0-2.51336.71811-4.84721 2.15431-7.00152 1.4362-2.15431 3.50766-3.88052 6.21435-5.17863 2.70669-1.29811 5.96579-1.94716 9.77727-1.94716z" style="stroke-linejoin:miter;stroke-miterlimit:10;stroke-dasharray:none;stroke-dashoffset:0"/></svg>