<?xml version="1.0" encoding="UTF-8" standalone="no"?>
<!-- Created with Inkscape (http://www.inkscape.org/) -->

<svg
   width="600"
   height="300"
   viewBox="0 0 158.75 79.375"
   version="1.1"
   id="svg1"
   sodipodi:docname="face-sensing.svg"
   inkscape:version="1.4.2 (ebf0e940d0, 2025-05-08)"
   xmlns:inkscape="http://www.inkscape.org/namespaces/inkscape"
   xmlns:sodipodi="http://sodipodi.sourceforge.net/DTD/sodipodi-0.dtd"
   xmlns="http://www.w3.org/2000/svg"
   xmlns:svg="http://www.w3.org/2000/svg">
  <sodipodi:namedview
     id="namedview1"
     pagecolor="#ffffff"
     bordercolor="#000000"
     borderopacity="0.25"
     inkscape:showpageshadow="2"
     inkscape:pageopacity="0.0"
     inkscape:pagecheckerboard="0"
     inkscape:deskcolor="#d1d1d1"
     inkscape:document-units="mm"
     inkscape:zoom="1.4235831"
     inkscape:cx="289.05936"
     inkscape:cy="208.27728"
     inkscape:window-width="1920"
     inkscape:window-height="1008"
     inkscape:window-x="0"
     inkscape:window-y="0"
     inkscape:window-maximized="1"
     inkscape:current-layer="layer1" />
  <defs
     id="defs1"><path
   d="M221.222 274.708C215.033 274.708 209.734 272.266 205.326 267.381C200.919 262.497 198.715 256.625 198.715 249.766L198.715 75.1752C198.715 68.3163 200.919 62.4446 205.326 57.5602C209.734 52.6758 215.033 50.2336 221.222 50.2336L268.208 50.2336C270.271 42.959 274.304 36.9834 280.306 32.3069C286.308 27.6303 292.873 25.2921 300 25.2921C307.503 25.2921 314.208 27.6303 320.116 32.3069C326.025 36.9834 330.01 42.959 332.074 50.2336L378.778 50.2336C384.967 50.2336 390.266 52.6758 394.674 57.5602C399.081 62.4446 401.285 68.3163 401.285 75.1752L401.285 249.766C401.285 256.625 399.081 262.497 394.674 267.381C390.266 272.266 384.967 274.708 378.778 274.708L221.222 274.708ZM231.233 249.766L368.767 249.766C374.296 249.766 378.778 244.8 378.778 238.673L378.778 86.2684C378.778 80.1418 374.296 75.1752 368.767 75.1752L366.28 75.1752C360.752 75.1752 356.27 80.1418 356.27 86.2684L356.27 101.494C356.27 107.621 351.788 112.588 346.259 112.588L253.741 112.588C248.212 112.588 243.73 107.621 243.73 101.494L243.73 86.2684C243.73 80.1418 239.248 75.1752 233.72 75.1752L231.233 75.1752C225.704 75.1752 221.222 80.1418 221.222 86.2684L221.222 238.673C221.222 244.8 225.704 249.766 231.233 249.766ZM300 75.1752C303.189 75.1752 305.861 73.9801 308.018 71.5899C310.175 69.1996 311.254 66.2378 311.254 62.7044C311.254 59.1711 310.175 56.2092 308.018 53.819C305.861 51.4288 303.189 50.2336 300 50.2336C296.811 50.2336 294.139 51.4288 291.982 53.819C289.825 56.2092 288.746 59.1711 288.746 62.7044C288.746 66.2378 289.825 69.1996 291.982 71.5899C294.139 73.9801 296.811 75.1752 300 75.1752Z"
   id="Fill" />
<path
   d="M259.123 177.264C262.882 177.264 266.06 175.965 268.658 173.367C271.256 170.769 272.555 167.59 272.555 163.831C272.555 160.073 271.256 156.894 268.658 154.296C266.06 151.698 262.882 150.399 259.123 150.399C255.364 150.399 252.185 151.698 249.587 154.296C246.989 156.894 245.69 160.073 245.69 163.831C245.69 167.59 246.989 170.769 249.587 173.367C252.185 175.965 255.364 177.264 259.123 177.264Z"
   id="Fill_2" />
<path
   d="M300 177.264C303.759 177.264 306.937 175.965 309.535 173.367C312.133 170.769 313.432 167.59 313.432 163.831C313.432 160.073 312.133 156.894 309.535 154.296C306.937 151.698 303.759 150.399 300 150.399C296.241 150.399 293.063 151.698 290.465 154.296C287.867 156.894 286.568 160.073 286.568 163.831C286.568 167.59 287.867 170.769 290.465 173.367C293.063 175.965 296.241 177.264 300 177.264Z"
   id="Fill_3" />
<path
   d="M340.877 177.264C344.636 177.264 347.815 175.965 350.413 173.367C353.011 170.769 354.31 167.59 354.31 163.831C354.31 160.073 353.011 156.894 350.413 154.296C347.815 151.698 344.636 150.399 340.877 150.399C337.118 150.399 333.94 151.698 331.342 154.296C328.744 156.894 327.445 160.073 327.445 163.831C327.445 167.59 328.744 170.769 331.342 173.367C333.94 175.965 337.118 177.264 340.877 177.264Z"
   id="Fill_4" />






<clipPath
   clipPathUnits="userSpaceOnUse"
   id="clipPath44">
  <rect
     height="300"
     width="600"
     x="0"
     y="0"
     id="rect44"
     style="stroke-width:0.999999" />
</clipPath>



<clipPath
   clipPathUnits="userSpaceOnUse"
   id="clipPath45">
  <rect
     height="79.375"
     width="158.75"
     x="0"
     y="0"
     id="rect45"
     style="stroke-width:0.264583" />
</clipPath>
<clipPath
   clipPathUnits="userSpaceOnUse"
   id="clipPath46">
  <rect
     height="79.375"
     width="158.75"
     x="0"
     y="0"
     id="rect46"
     style="stroke-width:0.264583" />
</clipPath>
</defs>
  <g
     inkscape:label="Layer 1"
     inkscape:groupmode="layer"
     id="layer1"><path
   d="M 0,79.374999 V 0 h 158.75 v 79.374999 z"
   fill="#0fbd93"
   fill-rule="nonzero"
   opacity="1"
   stroke="none"
   id="path1-6"
   style="stroke-width:0.264583" />
<path
   d="m 56.285076,81.540084 c 1.825096,-5.980377 20.289573,-9.250362 20.623742,-14.466358 0.334433,-5.21626 -18.752873,6.351852 -20.118123,3.286919 -1.36525,-3.064933 19.712517,-18.546498 30.867879,-23.072196 6.722004,-2.726795 12.025048,1.126861 4.285456,7.091363 -5.177896,3.990446 -2.741083,7.419181 2.023269,5.073914 4.764616,-2.345795 7.299321,3.703638 0.717021,8.873596 C 88.102545,73.49728 54.220533,88.308391 56.285341,81.540084 Z M 106.37996,66.14107 c 5.11149,-7.62635 14.88308,-2.868877 8.68971,5.128419 -5.48058,7.074958 -23.083042,14.407356 -23.943467,10.469562 -0.63156,-2.891896 9.240307,-6.625167 15.253757,-15.597981 z m 42.03515,15.391606 c -8.32115,8.072437 -15.34954,15.939558 -20.2991,15.696142 -5.14271,-0.252942 -0.54927,-10.095177 8.18277,-17.645063 6.18649,-5.349346 0.14499,-8.063706 -5.78803,-4.869921 -7.16967,3.859742 -12.75847,1.277144 -3.5052,-7.185818 9.25328,-8.463227 23.30345,-14.69099 30.96763,-13.094229 7.66339,1.59676 -10.76484,6.473825 -11.49614,12.933891 -0.71835,6.347884 10.45792,-6.466945 16.2851,-2.203979 5.65626,4.13729 -6.61882,8.872273 -14.3473,16.368977 z M 55.161126,57.533116 C 56.100662,62.129458 44.632033,76.611162 30.567577,80.429099 16.430625,84.267145 3.138752,85.759395 2.568575,82.439932 2.0023666,79.140049 10.969096,76.647409 22.108054,71.306795 27.493383,68.724991 21.795581,66.549057 18.289587,67.943941 6.6934291,72.556157 7.5993624,65.507658 17.390004,60.538253 c 7.650427,-3.883289 14.121341,-5.920316 17.954625,-6.854825 5.560218,-1.35546 6.719093,2.23573 3.544623,4.262438 -6.196013,3.955521 -3.21654,7.606771 2.32992,4.537604 3.513138,-1.944423 12.421659,-12.384352 13.941954,-4.950354 z m 5.174457,-3.9497 c -3.287713,1.316037 -4.14073,-1.096169 -4.14073,-3.044825 0,-1.94945 3.288242,-2.679965 5.115455,-1.583796 1.826947,1.096169 1.314979,3.712634 -0.974725,4.628621 z m 92.525847,-8.313473 c -1.25412,2.902215 -15.31197,3.366029 -25.76539,12.740746 -3.76105,3.372908 -8.37141,-0.747183 -7.27683,-3.908954 1.09378,-3.161771 4.43653,-3.995209 9.66893,-6.029061 5.23161,-2.034645 -1.42108,-4.74636 -10.05364,-0.672835 -4.93792,2.329656 -10.22879,-1.597554 -4.2664,-5.641975 4.98342,-3.380317 16.46634,-4.349485 16.15281,-7.249054 -0.17383,-1.610254 -8.50953,2.26351 -10.02427,-1.208088 -1.25915,-2.885016 1.72482,-6.20051 10.0629,-6.873874 8.49497,-0.685536 15.10162,1.061508 15.20031,5.234781 0.11218,4.7244 -9.85441,6.004718 -5.37633,7.465218 4.50321,1.467909 13.88798,1.026584 11.67791,6.142832 z m -50.45498,10.109994 c -1.67878,-1.167342 -1.73091,-2.656152 0.0534,-4.72149 2.31352,-2.678377 6.17432,-2.553758 7.30833,-1.574271 1.13373,0.979488 -1.42955,3.516048 -2.40824,4.977342 -0.97896,1.461029 -2.79189,2.821252 -4.95353,1.318419 z m 0.10319,-16.089842 c -9.953629,2.379663 -15.554329,-1.609725 -13.324949,-4.335198 2.408237,-2.943224 8.172449,-2.93661 8.625416,-8.69897 0.846402,-10.7823 11.452493,-12.690211 6.926793,-5.162815 -1.58486,2.637367 0.74268,4.308475 2.10714,0.936625 0.82391,-2.03491 4.73128,-4.827587 6.79609,-5.860256 9.37154,-4.685506 16.84337,2.121958 10.14068,4.013994 -4.36139,1.231106 -8.27987,4.191529 -10.78283,10.971477 -1.3335,3.612885 -6.11637,7.089775 -10.48808,8.135143 z m 29.65767,-21.849556 c -3.77296,-4.823354 7.883,-5.093229 12.1875,-6.542087 4.30477,-1.449123 -4.56591,-2.1846646 -12.3698,-2.1034375 -7.80441,0.080963 -6.62331,-5.9126437 2.24684,-8.84872492 13.62816,-4.51035198 25.77677,0.17356667 15.33393,3.16626872 -3.89467,1.1168062 -1.12633,4.3381083 3.1967,3.8734999 8.16372,-0.8776229 14.21421,3.1517168 12.84023,6.2997288 -1.55046,3.552296 -5.38692,1.160727 -9.26651,0.89535 -3.87958,-0.265906 -0.52122,3.53695 4.50242,6.155267 8.62912,4.497387 1.41023,12.147021 -5.99969,5.231606 -10.55714,-9.853083 -19.8464,-4.515908 -22.67135,-8.127471 z M 93.024853,5.7467499 c 5.570802,-11.3757602 17.008477,-10.2581603 15.402717,-6.37513531 -1.60549,3.88302491 4.9993,0.71966666 8.05868,1.42769165 3.05911,0.70723126 4.8731,6.02535616 -6.48626,7.04876446 C 96.004855,9.1101332 95.677565,22.915033 91.003966,20.032398 87.790072,18.050933 90.95978,9.9634145 93.024853,5.7464853 Z M 9.4739353,57.227522 C 0.14366875,58.831162 -1.9227271,55.618326 1.9618854,53.047106 4.370652,51.451668 13.751189,46.365054 6.9000687,45.866843 0.04815417,45.368368 5.1546124,38.854062 13.201121,32.789548 c 8.046243,-6.06478 25.625424,-9.341115 24.857604,-4.226455 -0.76888,5.114396 -21.469615,7.568407 -17.7419,12.965906 1.618985,2.344473 9.53717,-7.378964 13.052425,-1.78435 3.515518,5.59488 -18.046171,16.47825 -23.8950501,17.482873 z M 70.201895,47.64352 c -2.97815,2.521215 -9.068858,-1.119716 -3.590396,-6.116108 1.268148,-1.156494 4.52755,-2.26404 2.580217,-3.405452 -5.883011,-3.448315 -23.813558,14.463448 -26.779802,8.587052 -1.426104,-2.82575 5.725054,-9.145058 13.530792,-13.092642 5.76236,-2.91412 3.661304,-8.252883 -4.891352,-2.992702 -8.552921,5.260446 -10.062105,-0.940064 -5.324211,-5.00962 4.737629,-4.069027 35.006491,-18.1623231 37.068654,-10.630959 1.605227,5.857875 -15.306146,4.78499 -13.20165,8.56959 1.544902,2.777067 13.30616,-4.596871 17.469379,0.192087 4.02934,4.633648 -11.052969,7.703609 -10.087239,10.481998 0.762529,2.192338 7.979568,-0.896937 8.119268,4.4704 0.108215,4.159515 -7.685616,2.846123 -14.893395,8.946356 z M 28.359364,10.1981 C 26.54882,19.722306 9.7729145,28.601458 3.3363958,30.989058 -6.7910603,34.74376 -17.3736,33.492016 -11.399573,30.419675 -5.4258103,27.346804 10.27721,17.171987 2.1947187,16.473487 c -3.9777458,-0.343958 -8.4738103,-3.294856 0,-10.2938787 C 7.5739624,1.7361958 26.321543,-4.4037249 27.345481,-0.47783749 28.369418,3.4483145 5.8398833,10.276417 12.837583,10.959571 19.835283,11.642196 29.205502,5.7443687 28.359364,10.1981 Z m 24.704146,3.418416 c -5.466292,2.732617 -10.521686,6.041761 -16.340667,7.290859 -7.589308,1.628775 -0.103981,-8.639704 7.181321,-11.971073 3.262842,-1.4917208 -0.64426,-3.4800646 -3.784071,-1.9558 -8.532018,4.141787 -12.2428,0.9599083 -3.43191,-4.8998187 2.190485,-1.45706039 8.958527,-4.9064333 17.17675,-5.9600041 8.29601,-1.0644187 8.080375,1.9896667 5.513123,3.13478331 -3.691732,1.64623748 -6.220619,5.21520199 3.677443,2.20080409 17.693746,-5.3882395 28.175214,-4.4910374 24.147198,0 C 83.440322,5.650177 70.757255,4.7728187 53.06351,13.616516 Z"
   fill="#ffffff"
   fill-opacity="0.733"
   fill-rule="evenodd"
   opacity="0.1"
   stroke="none"
   id="path2-1"
   style="stroke-width:0.264583"
   clip-path="url(#clipPath46)" />
<path
   d="m 56.285076,81.540084 c 1.825096,-5.980377 20.289573,-9.250362 20.623742,-14.466358 0.334433,-5.21626 -18.752873,6.351852 -20.118123,3.286919 -1.36525,-3.064933 19.712517,-18.546498 30.867879,-23.072196 6.722004,-2.726795 12.025048,1.126861 4.285456,7.091363 -5.177896,3.990446 -2.741083,7.419181 2.023269,5.073914 4.764616,-2.345795 7.299321,3.703638 0.717021,8.873596 C 88.102545,73.49728 54.220533,88.308391 56.285341,81.540084 Z M 106.37996,66.14107 c 5.11149,-7.62635 14.88308,-2.868877 8.68971,5.128419 -5.48058,7.074958 -23.083042,14.407356 -23.943467,10.469562 -0.63156,-2.891896 9.240307,-6.625167 15.253757,-15.597981 z m 42.03515,15.391606 c -8.32115,8.072437 -15.34954,15.939558 -20.2991,15.696142 -5.14271,-0.252942 -0.54927,-10.095177 8.18277,-17.645063 6.18649,-5.349346 0.14499,-8.063706 -5.78803,-4.869921 -7.16967,3.859742 -12.75847,1.277144 -3.5052,-7.185818 9.25328,-8.463227 23.30345,-14.69099 30.96763,-13.094229 7.66339,1.59676 -10.76484,6.473825 -11.49614,12.933891 -0.71835,6.347884 10.45792,-6.466945 16.2851,-2.203979 5.65626,4.13729 -6.61882,8.872273 -14.3473,16.368977 z M 55.161126,57.533116 C 56.100662,62.129458 44.632033,76.611162 30.567577,80.429099 16.430625,84.267145 3.138752,85.759395 2.568575,82.439932 2.0023666,79.140049 10.969096,76.647409 22.108054,71.306795 27.493383,68.724991 21.795581,66.549057 18.289587,67.943941 6.6934291,72.556157 7.5993624,65.507658 17.390004,60.538253 c 7.650427,-3.883289 14.121341,-5.920316 17.954625,-6.854825 5.560218,-1.35546 6.719093,2.23573 3.544623,4.262438 -6.196013,3.955521 -3.21654,7.606771 2.32992,4.537604 3.513138,-1.944423 12.421659,-12.384352 13.941954,-4.950354 z m 5.174457,-3.9497 c -3.287713,1.316037 -4.14073,-1.096169 -4.14073,-3.044825 0,-1.94945 3.288242,-2.679965 5.115455,-1.583796 1.826947,1.096169 1.314979,3.712634 -0.974725,4.628621 z m 92.525847,-8.313473 c -1.25412,2.902215 -15.31197,3.366029 -25.76539,12.740746 -3.76105,3.372908 -8.37141,-0.747183 -7.27683,-3.908954 1.09378,-3.161771 4.43653,-3.995209 9.66893,-6.029061 5.23161,-2.034645 -1.42108,-4.74636 -10.05364,-0.672835 -4.93792,2.329656 -10.22879,-1.597554 -4.2664,-5.641975 4.98342,-3.380317 16.46634,-4.349485 16.15281,-7.249054 -0.17383,-1.610254 -8.50953,2.26351 -10.02427,-1.208088 -1.25915,-2.885016 1.72482,-6.20051 10.0629,-6.873874 8.49497,-0.685536 15.10162,1.061508 15.20031,5.234781 0.11218,4.7244 -9.85441,6.004718 -5.37633,7.465218 4.50321,1.467909 13.88798,1.026584 11.67791,6.142832 z m -50.45498,10.109994 c -1.67878,-1.167342 -1.73091,-2.656152 0.0534,-4.72149 2.31352,-2.678377 6.17432,-2.553758 7.30833,-1.574271 1.13373,0.979488 -1.42955,3.516048 -2.40824,4.977342 -0.97896,1.461029 -2.79189,2.821252 -4.95353,1.318419 z m 0.10319,-16.089842 c -9.953629,2.379663 -15.554329,-1.609725 -13.324949,-4.335198 2.408237,-2.943224 8.172449,-2.93661 8.625416,-8.69897 0.846402,-10.7823 11.452493,-12.690211 6.926793,-5.162815 -1.58486,2.637367 0.74268,4.308475 2.10714,0.936625 0.82391,-2.03491 4.73128,-4.827587 6.79609,-5.860256 9.37154,-4.685506 16.84337,2.121958 10.14068,4.013994 -4.36139,1.231106 -8.27987,4.191529 -10.78283,10.971477 -1.3335,3.612885 -6.11637,7.089775 -10.48808,8.135143 z m 29.65767,-21.849556 c -3.77296,-4.823354 7.883,-5.093229 12.1875,-6.542087 4.30477,-1.449123 -4.56591,-2.1846646 -12.3698,-2.1034375 -7.80441,0.080963 -6.62331,-5.9126437 2.24684,-8.84872492 13.62816,-4.51035198 25.77677,0.17356667 15.33393,3.16626872 -3.89467,1.1168062 -1.12633,4.3381083 3.1967,3.8734999 8.16372,-0.8776229 14.21421,3.1517168 12.84023,6.2997288 -1.55046,3.552296 -5.38692,1.160727 -9.26651,0.89535 -3.87958,-0.265906 -0.52122,3.53695 4.50242,6.155267 8.62912,4.497387 1.41023,12.147021 -5.99969,5.231606 -10.55714,-9.853083 -19.8464,-4.515908 -22.67135,-8.127471 z M 93.024853,5.7467499 c 5.570802,-11.3757602 17.008477,-10.2581603 15.402717,-6.37513531 -1.60549,3.88302491 4.9993,0.71966666 8.05868,1.42769165 3.05911,0.70723126 4.8731,6.02535616 -6.48626,7.04876446 C 96.004855,9.1101332 95.677565,22.915033 91.003966,20.032398 87.790072,18.050933 90.95978,9.9634145 93.024853,5.7464853 Z M 9.4739353,57.227522 C 0.14366875,58.831162 -1.9227271,55.618326 1.9618854,53.047106 4.370652,51.451668 13.751189,46.365054 6.9000687,45.866843 0.04815417,45.368368 5.1546124,38.854062 13.201121,32.789548 c 8.046243,-6.06478 25.625424,-9.341115 24.857604,-4.226455 -0.76888,5.114396 -21.469615,7.568407 -17.7419,12.965906 1.618985,2.344473 9.53717,-7.378964 13.052425,-1.78435 3.515518,5.59488 -18.046171,16.47825 -23.8950501,17.482873 z M 70.201895,47.64352 c -2.97815,2.521215 -9.068858,-1.119716 -3.590396,-6.116108 1.268148,-1.156494 4.52755,-2.26404 2.580217,-3.405452 -5.883011,-3.448315 -23.813558,14.463448 -26.779802,8.587052 -1.426104,-2.82575 5.725054,-9.145058 13.530792,-13.092642 5.76236,-2.91412 3.661304,-8.252883 -4.891352,-2.992702 -8.552921,5.260446 -10.062105,-0.940064 -5.324211,-5.00962 4.737629,-4.069027 35.006491,-18.1623231 37.068654,-10.630959 1.605227,5.857875 -15.306146,4.78499 -13.20165,8.56959 1.544902,2.777067 13.30616,-4.596871 17.469379,0.192087 4.02934,4.633648 -11.052969,7.703609 -10.087239,10.481998 0.762529,2.192338 7.979568,-0.896937 8.119268,4.4704 0.108215,4.159515 -7.685616,2.846123 -14.893395,8.946356 z M 28.359364,10.1981 C 26.54882,19.722306 9.7729145,28.601458 3.3363958,30.989058 -6.7910603,34.74376 -17.3736,33.492016 -11.399573,30.419675 -5.4258103,27.346804 10.27721,17.171987 2.1947187,16.473487 c -3.9777458,-0.343958 -8.4738103,-3.294856 0,-10.2938787 C 7.5739624,1.7361958 26.321543,-4.4037249 27.345481,-0.47783749 28.369418,3.4483145 5.8398833,10.276417 12.837583,10.959571 19.835283,11.642196 29.205502,5.7443687 28.359364,10.1981 Z m 24.704146,3.418416 c -5.466292,2.732617 -10.521686,6.041761 -16.340667,7.290859 -7.589308,1.628775 -0.103981,-8.639704 7.181321,-11.971073 3.262842,-1.4917208 -0.64426,-3.4800646 -3.784071,-1.9558 -8.532018,4.141787 -12.2428,0.9599083 -3.43191,-4.8998187 2.190485,-1.45706039 8.958527,-4.9064333 17.17675,-5.9600041 8.29601,-1.0644187 8.080375,1.9896667 5.513123,3.13478331 -3.691732,1.64623748 -6.220619,5.21520199 3.677443,2.20080409 17.693746,-5.3882395 28.175214,-4.4910374 24.147198,0 C 83.440322,5.650177 70.757255,4.7728187 53.06351,13.616516 Z"
   fill="#ffffff"
   fill-opacity="0.541"
   fill-rule="evenodd"
   opacity="0.1"
   stroke="none"
   id="path3-2"
   style="stroke-width:0.264583"
   clip-path="url(#clipPath45)" />


<g
   stroke-miterlimit="10"
   id="g31"
   transform="matrix(0.81316652,0,0,0.81316652,-115.78498,-106.65833)">
  <path
     d="m 218.87192,180 c 0,-11.66875 9.45938,-21.12814 21.12815,-21.12814 11.66875,0 21.12814,9.45937 21.12814,21.12814 0,11.66875 -9.45937,21.12814 -21.12814,21.12814 -11.66875,0 -21.12815,-9.45937 -21.12815,-21.12814 z"
     fill="none"
     stroke="#0b8e69"
     stroke-width="9.5"
     stroke-linecap="butt"
     id="path1" />
  <path
     d="m 216.38508,193.37275 c 0,0 -1.03885,5.33009 -2.20706,6.9966 -1.16141,1.65681 -4.78198,2.97355 -4.78198,2.97355"
     fill="none"
     stroke="#0b8e69"
     stroke-width="10"
     stroke-linecap="round"
     id="path2" />
  <path
     d="m 223.415,203.3429 c 0,0 -3.62058,-1.31675 -4.78198,-2.97355 -1.16822,-1.66653 -2.20707,-6.9966 -2.20707,-6.9966"
     fill="none"
     stroke="#0b8e69"
     stroke-width="10"
     stroke-linecap="round"
     id="path3" />
  <path
     d="m 209.39605,203.40122 c 0,0 3.62057,1.31674 4.78198,2.97355 1.16822,1.66653 2.20707,6.99661 2.20707,6.99661"
     fill="none"
     stroke="#0b8e69"
     stroke-width="10"
     stroke-linecap="round"
     id="path4" />
  <path
     d="m 216.42597,213.12137 c 0,0 1.03885,-5.3301 2.20707,-6.99661 1.16141,-1.65681 4.78198,-2.97355 4.78198,-2.97355"
     fill="none"
     stroke="#0b8e69"
     stroke-width="10"
     stroke-linecap="round"
     id="path5" />
  <path
     d="m 216.38508,193.58362 c 0,0 -1.03885,5.33008 -2.20706,6.9966 -1.16141,1.65681 -4.78198,2.97356 -4.78198,2.97356"
     fill="none"
     stroke="#ffbf00"
     stroke-width="5"
     stroke-linecap="round"
     id="path6" />
  <path
     d="m 223.415,203.55377 c 0,0 -3.62058,-1.31674 -4.78198,-2.97355 -1.16822,-1.66653 -2.20707,-6.9966 -2.20707,-6.9966"
     fill="none"
     stroke="#ffbf00"
     stroke-width="5"
     stroke-linecap="round"
     id="path7" />
  <path
     d="m 209.39605,203.61209 c 0,0 3.62057,1.31675 4.78198,2.97355 1.16822,1.66653 2.20707,6.9966 2.20707,6.9966"
     fill="none"
     stroke="#ffbf00"
     stroke-width="5"
     stroke-linecap="round"
     id="path8" />
  <path
     d="m 216.42597,213.37137 c 0,0 1.03885,-5.3301 2.20707,-6.99661 1.16141,-1.65681 4.78198,-2.97355 4.78198,-2.97355"
     fill="none"
     stroke="#ffbf00"
     stroke-width="5"
     stroke-linecap="round"
     id="path9" />
  <path
     d="m 211.58639,203.69274 4.83958,-6.90384 4.83958,6.90384 -4.83958,6.90386 z"
     fill="#ffbf00"
     stroke="none"
     stroke-width="5"
     stroke-linecap="butt"
     id="path10" />
  <path
     d=""
     fill="#000000"
     stroke="#000000"
     stroke-width="0.5"
     stroke-linecap="butt"
     id="path11" />
  <path
     d=""
     fill="#000000"
     stroke="#000000"
     stroke-width="0.5"
     stroke-linecap="butt"
     id="path12" />
  <path
     d=""
     fill="none"
     stroke="#000000"
     stroke-width="21"
     stroke-linecap="round"
     id="path13" />
  <g
     fill="none"
     stroke="#0b8e69"
     stroke-width="5"
     stroke-linecap="round"
     id="g15">
    <path
       d="m 202.71724,142.64398 h 16.92008"
       id="path14" />
    <path
       d="M 202.68063,159.67394 V 142.75387"
       id="path15" />
  </g>
  <g
     fill="none"
     stroke="#0b8e69"
     stroke-width="5"
     stroke-linecap="round"
     id="g17">
    <path
       d="M 277.2828,217.35602 H 260.36273"
       id="path16" />
    <path
       d="m 277.3194,200.32607 v 16.92007"
       id="path17" />
  </g>
  <path
     d="m 218.87192,180 c 0,-11.66875 9.45938,-21.12814 21.12815,-21.12814 11.66875,0 21.12814,9.45937 21.12814,21.12814 0,11.66875 -9.45937,21.12814 -21.12814,21.12814 -11.66875,0 -21.12815,-9.45937 -21.12815,-21.12814 z"
     fill="#0b8e69"
     stroke="#ffffff"
     stroke-width="5"
     stroke-linecap="butt"
     id="path18" />
  <path
     d="m 248.65064,185.30124 c 0,0 -3.82817,4.7468 -8.74359,4.65085 -5.37597,-0.10494 -8.18549,-4.65085 -8.18549,-4.65085"
     fill="none"
     stroke="#ffffff"
     stroke-width="5"
     stroke-linecap="round"
     id="path19" />
  <path
     d="m 231.82617,174.40736 v 1.41851"
     fill="none"
     stroke="#ffffff"
     stroke-width="5"
     stroke-linecap="round"
     id="path20" />
  <path
     d="m 248.17389,175.82587 v -1.41851"
     fill="none"
     stroke="#ffffff"
     stroke-width="5"
     stroke-linecap="round"
     id="path21" />
  <g
     id="g30">
    <path
       d="m 262.73976,145.08459 c 0,0 -1.4268,7.16463 -3.03132,9.40474 -1.59517,2.22707 -6.56787,3.99701 -6.56787,3.99701"
       fill="none"
       stroke="#0b8e69"
       stroke-width="10"
       stroke-linecap="round"
       id="path22" />
    <path
       d="m 272.39508,158.48634 c 0,0 -4.9727,-1.76994 -6.56787,-3.99701 -1.60451,-2.24013 -3.03134,-9.40474 -3.03134,-9.40474"
       fill="none"
       stroke="#0b8e69"
       stroke-width="10"
       stroke-linecap="round"
       id="path23" />
    <path
       d="m 253.14057,158.56471 c 0,0 4.97271,1.76995 6.56787,3.99702 1.60451,2.24013 3.03132,9.40473 3.03132,9.40473"
       fill="none"
       stroke="#0b8e69"
       stroke-width="10"
       stroke-linecap="round"
       id="path24" />
    <path
       d="m 262.79589,171.96647 c 0,0 1.4268,-7.16463 3.03132,-9.40473 1.59517,-2.22707 6.56788,-3.99702 6.56788,-3.99702"
       fill="none"
       stroke="#0b8e69"
       stroke-width="10"
       stroke-linecap="round"
       id="path25" />
    <path
       d="m 262.73976,145.08459 c 0,0 -1.42681,7.16463 -3.03131,9.40474 -1.59517,2.22707 -6.56787,3.99701 -6.56787,3.99701"
       fill="none"
       stroke="#ffbf00"
       stroke-width="5"
       stroke-linecap="round"
       id="path26" />
    <path
       d="m 272.39508,158.48634 c 0,0 -4.9727,-1.76994 -6.56787,-3.99701 -1.60451,-2.24013 -3.03134,-9.40474 -3.03134,-9.40474"
       fill="none"
       stroke="#ffbf00"
       stroke-width="5"
       stroke-linecap="round"
       id="path27" />
    <path
       d="m 253.14057,158.56471 c 0,0 4.97271,1.76995 6.56787,3.99702 1.60451,2.24013 3.03132,9.40473 3.03132,9.40473"
       fill="none"
       stroke="#ffbf00"
       stroke-width="5"
       stroke-linecap="round"
       id="path28" />
    <path
       d="m 262.79589,171.96647 c 0,0 1.4268,-7.16463 3.03132,-9.40473 1.59517,-2.22707 6.56788,-3.99702 6.56788,-3.99702"
       fill="none"
       stroke="#ffbf00"
       stroke-width="5"
       stroke-linecap="round"
       id="path29" />
    <path
       d="m 256.14894,158.95657 6.64697,-9.28005 6.64697,9.28005 -6.64697,9.28008 z"
       fill="#ffbf00"
       stroke="none"
       stroke-width="5"
       stroke-linecap="butt"
       id="path30" />
  </g>
</g>




</g>
</svg>
