<svg width="600" height="300" viewBox="0 0 600 300" fill="none" xmlns="http://www.w3.org/2000/svg">
<g clip-path="url(#clip0_1_6)">
<rect width="600" height="300" fill="#F5C142"/>
<path d="M0 300V0H600V300H0Z" fill="#0FBD93"/>
<mask id="mask0_1_6" style="mask-type:luminance" maskUnits="userSpaceOnUse" x="0" y="0" width="600" height="300">
<path d="M600 0H0V300H600V0Z" fill="white"/>
</mask>
<g mask="url(#mask0_1_6)">
<path opacity="0.1" fill-rule="evenodd" clip-rule="evenodd" d="M212.731 308.183C219.629 285.58 289.416 273.221 290.679 253.507C291.943 233.792 219.802 277.514 214.642 265.93C209.482 254.346 289.146 195.833 331.308 178.728C356.714 168.422 376.757 182.987 347.505 205.53C327.935 220.612 337.145 233.571 355.152 224.707C373.16 215.841 382.74 238.705 357.862 258.245C332.986 277.785 204.927 333.764 212.731 308.183ZM402.066 249.982C421.385 221.158 458.317 239.139 434.909 269.365C414.195 296.105 347.666 323.818 344.414 308.935C342.027 298.005 379.338 283.895 402.066 249.982ZM560.939 308.155C529.489 338.665 502.925 368.399 484.218 367.479C464.781 366.523 482.142 329.324 515.145 300.789C538.527 280.571 515.693 270.312 493.269 282.383C466.171 296.971 445.048 287.21 480.021 255.224C514.994 223.237 568.097 199.699 597.064 205.734C626.028 211.769 556.378 230.202 553.614 254.618C550.899 278.61 593.14 230.176 615.164 246.288C636.542 261.925 590.149 279.821 560.939 308.155ZM208.483 217.448C212.034 234.82 168.688 289.554 115.531 303.984C62.1 318.49 11.863 324.13 9.70798 311.584C7.56799 299.112 41.458 289.691 83.558 269.506C103.912 259.748 82.377 251.524 69.126 256.796C25.298 274.228 28.722 247.588 65.726 228.806C94.641 214.129 119.098 206.43 133.586 202.898C154.601 197.775 158.981 211.348 146.983 219.008C123.565 233.958 134.826 247.758 155.789 236.158C169.067 228.809 202.737 189.351 208.483 217.448ZM228.04 202.52C215.614 207.494 212.39 198.377 212.39 191.012C212.39 183.644 224.818 180.883 231.724 185.026C238.629 189.169 236.694 199.058 228.04 202.52ZM577.744 171.099C573.004 182.068 519.872 183.821 480.363 219.253C466.148 232.001 448.723 216.429 452.86 204.479C456.994 192.529 469.628 189.379 489.404 181.692C509.177 174.002 484.033 163.753 451.406 179.149C432.743 187.954 412.746 173.111 435.281 157.825C454.116 145.049 497.516 141.386 496.331 130.427C495.674 124.341 464.169 138.982 458.444 125.861C453.685 114.957 464.963 102.426 496.477 99.881C528.584 97.29 553.554 103.893 553.927 119.666C554.351 137.522 516.682 142.361 533.607 147.881C550.627 153.429 586.097 151.762 577.744 171.099ZM387.048 209.31C380.703 204.898 380.506 199.271 387.25 191.465C395.994 181.342 410.586 181.813 414.872 185.515C419.157 189.217 409.469 198.804 405.77 204.327C402.07 209.849 395.218 214.99 387.048 209.31ZM387.438 148.498C349.818 157.492 328.65 142.414 337.076 132.113C346.178 120.989 367.964 121.014 369.676 99.235C372.875 58.483 412.961 51.272 395.856 79.722C389.866 89.69 398.663 96.006 403.82 83.262C406.934 75.571 421.702 65.016 429.506 61.113C464.926 43.404 493.166 69.133 467.833 76.284C451.349 80.937 436.539 92.126 427.079 117.751C422.039 131.406 403.961 144.547 387.438 148.498ZM499.53 65.917C485.27 47.687 529.324 46.667 545.593 41.191C561.863 35.714 528.336 32.934 498.841 33.241C469.344 33.547 473.808 10.894 507.333 -0.203001C558.841 -17.25 604.757 0.452999 565.288 11.764C550.568 15.985 561.031 28.16 577.37 26.404C608.225 23.087 631.093 38.316 625.9 50.214C620.04 63.64 605.54 54.601 590.877 53.598C576.214 52.593 588.907 66.966 607.894 76.862C640.508 93.86 613.224 122.772 585.218 96.635C545.317 59.395 510.207 79.567 499.53 65.917ZM351.59 21.72C372.645 -21.275 415.874 -17.051 409.805 -2.375C403.737 12.301 428.7 0.344997 440.263 3.021C451.825 5.694 458.681 25.794 415.748 29.662C362.853 34.432 361.616 86.608 343.952 75.713C331.805 68.224 343.785 37.658 351.59 21.72ZM35.807 216.293C0.542988 222.354 -7.26701 210.211 7.41499 200.493C16.519 194.463 51.973 175.238 26.079 173.355C0.181984 171.471 19.482 146.85 49.894 123.929C80.305 101.007 146.746 88.624 143.844 107.955C140.938 127.285 62.699 136.56 76.788 156.96C82.907 165.821 112.834 129.071 126.12 150.216C139.407 171.362 57.913 212.496 35.807 216.293ZM265.33 180.07C254.074 189.599 231.054 175.838 251.76 156.954C256.553 152.583 268.872 148.397 261.512 144.083C239.277 131.05 171.508 198.748 160.297 176.538C154.907 165.858 181.935 141.974 211.437 127.054C233.216 116.04 225.275 95.862 192.95 115.743C160.624 135.625 154.92 112.19 172.827 96.809C190.733 81.43 305.135 28.164 312.929 56.629C318.996 78.769 255.079 74.714 263.033 89.018C268.872 99.514 313.324 71.644 329.059 89.744C344.288 107.257 287.284 118.86 290.934 129.361C293.816 137.647 321.093 125.971 321.621 146.257C322.03 161.978 292.572 157.014 265.33 180.07ZM107.185 38.544C100.342 74.541 36.937 108.1 12.61 117.124C-25.667 131.315 -65.664 126.584 -43.085 114.972C-20.507 103.358 38.843 64.902 8.29499 62.262C-6.73901 60.962 -23.732 49.809 8.29499 23.356C28.626 6.562 99.483 -16.644 103.353 -1.806C107.223 13.033 22.072 38.84 48.52 41.422C74.968 44.002 110.383 21.711 107.185 38.544ZM200.555 51.464C179.895 61.792 160.788 74.299 138.795 79.02C110.111 85.176 138.402 46.366 165.937 33.775C178.269 28.137 163.502 20.622 151.635 26.383C119.388 42.037 105.363 30.011 138.664 7.864C146.943 2.357 172.523 -10.68 203.584 -14.662C234.939 -18.685 234.124 -7.142 224.421 -2.814C210.468 3.408 200.91 16.897 238.32 5.504C305.194 -14.861 344.809 -11.47 329.585 5.504C315.365 21.355 267.429 18.039 200.555 51.464Z" fill="white" fill-opacity="0.733"/>
</g>
<mask id="mask1_1_6" style="mask-type:luminance" maskUnits="userSpaceOnUse" x="0" y="0" width="600" height="300">
<path d="M600 0H0V300H600V0Z" fill="white"/>
</mask>
<g mask="url(#mask1_1_6)">
<path opacity="0.1" fill-rule="evenodd" clip-rule="evenodd" d="M212.731 308.183C219.629 285.58 289.416 273.221 290.679 253.507C291.943 233.792 219.802 277.514 214.642 265.93C209.482 254.346 289.146 195.833 331.308 178.728C356.714 168.422 376.757 182.987 347.505 205.53C327.935 220.612 337.145 233.571 355.152 224.707C373.16 215.841 382.74 238.705 357.862 258.245C332.986 277.785 204.927 333.764 212.731 308.183ZM402.066 249.982C421.385 221.158 458.317 239.139 434.909 269.365C414.195 296.105 347.666 323.818 344.414 308.935C342.027 298.005 379.338 283.895 402.066 249.982ZM560.939 308.155C529.489 338.665 502.925 368.399 484.218 367.479C464.781 366.523 482.142 329.324 515.145 300.789C538.527 280.571 515.693 270.312 493.269 282.383C466.171 296.971 445.048 287.21 480.021 255.224C514.994 223.237 568.097 199.699 597.064 205.734C626.028 211.769 556.378 230.202 553.614 254.618C550.899 278.61 593.14 230.176 615.164 246.288C636.542 261.925 590.149 279.821 560.939 308.155ZM208.483 217.448C212.034 234.82 168.688 289.554 115.531 303.984C62.1 318.49 11.863 324.13 9.70798 311.584C7.56799 299.112 41.458 289.691 83.558 269.506C103.912 259.748 82.377 251.524 69.126 256.796C25.298 274.228 28.722 247.588 65.726 228.806C94.641 214.129 119.098 206.43 133.586 202.898C154.601 197.775 158.981 211.348 146.983 219.008C123.565 233.958 134.826 247.758 155.789 236.158C169.067 228.809 202.737 189.351 208.483 217.448ZM228.04 202.52C215.614 207.494 212.39 198.377 212.39 191.012C212.39 183.644 224.818 180.883 231.724 185.026C238.629 189.169 236.694 199.058 228.04 202.52ZM577.744 171.099C573.004 182.068 519.872 183.821 480.363 219.253C466.148 232.001 448.723 216.429 452.86 204.479C456.994 192.529 469.628 189.379 489.404 181.692C509.177 174.002 484.033 163.753 451.406 179.149C432.743 187.954 412.746 173.111 435.281 157.825C454.116 145.049 497.516 141.386 496.331 130.427C495.674 124.341 464.169 138.982 458.444 125.861C453.685 114.957 464.963 102.426 496.477 99.881C528.584 97.29 553.554 103.893 553.927 119.666C554.351 137.522 516.682 142.361 533.607 147.881C550.627 153.429 586.097 151.762 577.744 171.099ZM387.048 209.31C380.703 204.898 380.506 199.271 387.25 191.465C395.994 181.342 410.586 181.813 414.872 185.515C419.157 189.217 409.469 198.804 405.77 204.327C402.07 209.849 395.218 214.99 387.048 209.31ZM387.438 148.498C349.818 157.492 328.65 142.414 337.076 132.113C346.178 120.989 367.964 121.014 369.676 99.235C372.875 58.483 412.961 51.272 395.856 79.722C389.866 89.69 398.663 96.006 403.82 83.262C406.934 75.571 421.702 65.016 429.506 61.113C464.926 43.404 493.166 69.133 467.833 76.284C451.349 80.937 436.539 92.126 427.079 117.751C422.039 131.406 403.961 144.547 387.438 148.498ZM499.53 65.917C485.27 47.687 529.324 46.667 545.593 41.191C561.863 35.714 528.336 32.934 498.841 33.241C469.344 33.547 473.808 10.894 507.333 -0.203001C558.841 -17.25 604.757 0.452999 565.288 11.764C550.568 15.985 561.031 28.16 577.37 26.404C608.225 23.087 631.093 38.316 625.9 50.214C620.04 63.64 605.54 54.601 590.877 53.598C576.214 52.593 588.907 66.966 607.894 76.862C640.508 93.86 613.224 122.772 585.218 96.635C545.317 59.395 510.207 79.567 499.53 65.917ZM351.59 21.72C372.645 -21.275 415.874 -17.051 409.805 -2.375C403.737 12.301 428.7 0.344997 440.263 3.021C451.825 5.694 458.681 25.794 415.748 29.662C362.853 34.432 361.616 86.608 343.952 75.713C331.805 68.224 343.785 37.658 351.59 21.72ZM35.807 216.293C0.542988 222.354 -7.26701 210.211 7.41499 200.493C16.519 194.463 51.973 175.238 26.079 173.355C0.181984 171.471 19.482 146.85 49.894 123.929C80.305 101.007 146.746 88.624 143.844 107.955C140.938 127.285 62.699 136.56 76.788 156.96C82.907 165.821 112.834 129.071 126.12 150.216C139.407 171.362 57.913 212.496 35.807 216.293ZM265.33 180.07C254.074 189.599 231.054 175.838 251.76 156.954C256.553 152.583 268.872 148.397 261.512 144.083C239.277 131.05 171.508 198.748 160.297 176.538C154.907 165.858 181.935 141.974 211.437 127.054C233.216 116.04 225.275 95.862 192.95 115.743C160.624 135.625 154.92 112.19 172.827 96.809C190.733 81.43 305.135 28.164 312.929 56.629C318.996 78.769 255.079 74.714 263.033 89.018C268.872 99.514 313.324 71.644 329.059 89.744C344.288 107.257 287.284 118.86 290.934 129.361C293.816 137.647 321.093 125.971 321.621 146.257C322.03 161.978 292.572 157.014 265.33 180.07ZM107.185 38.544C100.342 74.541 36.937 108.1 12.61 117.124C-25.667 131.315 -65.664 126.584 -43.085 114.972C-20.507 103.358 38.843 64.902 8.29499 62.262C-6.73901 60.962 -23.732 49.809 8.29499 23.356C28.626 6.562 99.483 -16.644 103.353 -1.806C107.223 13.033 22.072 38.84 48.52 41.422C74.968 44.002 110.383 21.711 107.185 38.544ZM200.555 51.464C179.895 61.792 160.788 74.299 138.795 79.02C110.111 85.176 138.402 46.366 165.937 33.775C178.269 28.137 163.502 20.622 151.635 26.383C119.388 42.037 105.363 30.011 138.664 7.864C146.943 2.357 172.523 -10.68 203.584 -14.662C234.939 -18.685 234.124 -7.142 224.421 -2.814C210.468 3.408 200.91 16.897 238.32 5.504C305.194 -14.861 344.809 -11.47 329.585 5.504C315.365 21.355 267.429 18.039 200.555 51.464Z" fill="white" fill-opacity="0.541"/>
</g>
<path d="M235.065 150.091C235.065 114.229 264.138 85.1563 300 85.1563C335.863 85.1563 364.935 114.229 364.935 150.091C364.935 185.954 335.863 215.026 300 215.026C264.138 215.026 235.065 185.954 235.065 150.091Z" stroke="#0B8E69" stroke-opacity="0.4" stroke-width="29.1972" stroke-miterlimit="10"/>
<path d="M185.416 35.2818H237.418" stroke="#0B8E69" stroke-width="15.3669" stroke-miterlimit="10" stroke-linecap="round"/>
<path d="M185.303 87.6214V35.6195" stroke="#0B8E69" stroke-width="15.3669" stroke-miterlimit="10" stroke-linecap="round"/>
<path d="M414.584 264.901H362.582" stroke="#0B8E69" stroke-width="15.3669" stroke-miterlimit="10" stroke-linecap="round"/>
<path d="M414.697 212.561V264.563" stroke="#0B8E69" stroke-width="15.3669" stroke-miterlimit="10" stroke-linecap="round"/>
<path d="M235.065 150.091C235.065 114.229 264.138 85.1563 300 85.1563C335.863 85.1563 364.935 114.229 364.935 150.091C364.935 185.954 335.863 215.026 300 215.026C264.138 215.026 235.065 185.954 235.065 150.091Z" fill="#0B8E69" fill-opacity="0.4" stroke="white" stroke-width="15.3669" stroke-miterlimit="10"/>
<path d="M326.587 166.384C326.587 166.384 314.821 180.973 299.714 180.678C283.192 180.355 274.557 166.384 274.557 166.384" stroke="white" stroke-width="15.3669" stroke-miterlimit="10" stroke-linecap="round"/>
<path d="M274.879 132.903V137.263" stroke="white" stroke-width="15.3669" stroke-miterlimit="10" stroke-linecap="round"/>
<path d="M325.121 137.263V132.903" stroke="white" stroke-width="15.3669" stroke-miterlimit="10" stroke-linecap="round"/>
<path fill-rule="evenodd" clip-rule="evenodd" d="M369.657 53.0747C374.74 51.7111 378.711 47.7401 380.075 42.6563L383.183 31.0985C384.659 25.6338 392.411 25.6338 393.877 31.0985L396.993 42.6553C398.356 47.7371 402.323 51.7078 407.404 53.0747L418.961 56.1827C424.426 57.6586 424.426 65.4109 418.961 66.8857L407.405 69.9937C402.327 71.3595 398.36 75.3256 396.994 80.4034L393.878 91.9623C392.41 97.427 384.659 97.427 383.183 91.9623L380.075 80.4056C378.708 75.3251 374.738 71.3578 369.657 69.9948L358.098 66.8868C352.634 65.4109 352.634 57.6586 358.098 56.1838L369.657 53.0747Z" fill="white" stroke="black" stroke-opacity="0.129" stroke-width="18" stroke-miterlimit="10"/>
<path fill-rule="evenodd" clip-rule="evenodd" d="M369.657 53.0747C374.74 51.7111 378.711 47.7401 380.075 42.6563L383.183 31.0985C384.659 25.6338 392.411 25.6338 393.877 31.0985L396.993 42.6553C398.356 47.7371 402.323 51.7078 407.404 53.0747L418.961 56.1827C424.426 57.6586 424.426 65.4109 418.961 66.8857L407.405 69.9937C402.327 71.3595 398.36 75.3256 396.994 80.4034L393.878 91.9623C392.41 97.427 384.659 97.427 383.183 91.9623L380.075 80.4056C378.708 75.3251 374.738 71.3578 369.657 69.9948L358.098 66.8868C352.634 65.4109 352.634 57.6586 358.098 56.1838L369.657 53.0747Z" fill="#F5C142"/>
<path fill-rule="evenodd" clip-rule="evenodd" d="M191.657 230.075C196.74 228.711 200.711 224.74 202.075 219.656L205.183 208.099C206.659 202.634 214.411 202.634 215.877 208.099L218.993 219.655C220.356 224.737 224.323 228.708 229.404 230.075L240.961 233.183C246.426 234.659 246.426 242.411 240.961 243.886L229.405 246.994C224.327 248.359 220.36 252.326 218.994 257.403L215.878 268.962C214.41 274.427 206.659 274.427 205.183 268.962L202.075 257.406C200.708 252.325 196.738 248.358 191.657 246.995L180.098 243.887C174.634 242.411 174.634 234.659 180.098 233.184L191.657 230.075Z" fill="#F5C142" stroke="black" stroke-opacity="0.129" stroke-width="18" stroke-miterlimit="10"/>
<path fill-rule="evenodd" clip-rule="evenodd" d="M191.657 230.075C196.74 228.711 200.711 224.74 202.075 219.656L205.183 208.099C206.659 202.634 214.411 202.634 215.877 208.099L218.993 219.655C220.356 224.737 224.323 228.708 229.404 230.075L240.961 233.183C246.426 234.659 246.426 242.411 240.961 243.886L229.405 246.994C224.327 248.359 220.36 252.326 218.994 257.403L215.878 268.962C214.41 274.427 206.659 274.427 205.183 268.962L202.075 257.406C200.708 252.325 196.738 248.358 191.657 246.995L180.098 243.887C174.634 242.411 174.634 234.659 180.098 233.184L191.657 230.075Z" fill="#F5C142"/>
</g>
<defs>
<clipPath id="clip0_1_6">
<rect width="600" height="300" fill="white"/>
</clipPath>
</defs>
</svg>
