<svg xmlns="http://www.w3.org/2000/svg" width="600" height="300"><path fill="#96f" d="M0 300V0h600v300z" style="mix-blend-mode:normal;stroke-miterlimit:10;stroke-dasharray:none;stroke-dashoffset:0"/><path fill="none" stroke="#8955f2" stroke-linecap="round" stroke-opacity=".804" stroke-width="32.5" d="M-8.874 145.458c25.218 5.718 58.22 11.212 98.626 13.844 104.172 6.785 178.557-23.678 324.614-14.962 122.195 7.292 195.458 22.135 195.458 22.135M629.191 223.289c-33.5-4.876-86.35-11.273-154.356-15.331-146.057-8.716-220.442 21.747-324.614 14.962C46.757 216.18-8.16 190.678-8.16 190.678M622.918 108.62c-33.39-4.161-77.776-8.692-131.24-11.88-150.655-8.983-227.316 21.348-334.769 14.372C50.186 104.183-6.501 78.58-6.501 78.58M-16.081 265.757c24.805 5.468 56.77 10.631 95.556 13.158 104.172 6.785 178.557-23.678 324.614-14.962 122.195 7.292 195.458 22.135 195.458 22.135M-14.171 25.897c26.34 6.625 63.186 13.504 109.95 16.55 104.173 6.786 178.558-23.678 324.614-14.962C542.59 34.777 615.852 49.62 615.852 49.62" style="mix-blend-mode:normal;stroke-miterlimit:10;stroke-dasharray:none;stroke-dashoffset:0"/><g fill-rule="evenodd" style="mix-blend-mode:normal;stroke-miterlimit:10;stroke-dasharray:none;stroke-dashoffset:0"><path fill="none" d="M346.773 127.338c-.706 2.378-1.43 4.69-2.172 6.933-1.05 3.15-2.21 6.446-3.48 9.888a1671.47 1671.47 0 0 0-4.174 11.462l-5.73 15.528h30.833l-5.73-15.528a522.83 522.83 0 0 1-4.065-11.242 408.343 408.343 0 0 1-3.37-10.108 350.767 350.767 0 0 1-2.112-6.933zm18.519-56.092 62.329 157.508h-44.312l-9.636-26.111h-54.08l-9.636 26.11h-43.432l62.768-157.507Z"/><path fill="#96f" stroke="#7240d6" stroke-linejoin="round" stroke-width="29" d="M346.773 127.338c-.706 2.378-1.43 4.69-2.172 6.933-1.05 3.15-2.21 6.446-3.48 9.888a1671.47 1671.47 0 0 0-4.174 11.462l-5.73 15.528h30.833l-5.73-15.528a522.83 522.83 0 0 1-4.065-11.242 408.343 408.343 0 0 1-3.37-10.108 350.767 350.767 0 0 1-2.112-6.933zm18.519-56.092 62.329 157.508h-44.312l-9.636-26.111h-54.08l-9.636 26.11h-43.432l62.768-157.507Z"/><path fill="none" d="M346.773 127.338c-.706 2.378-1.43 4.69-2.172 6.933-1.05 3.15-2.21 6.446-3.48 9.888a1671.47 1671.47 0 0 0-4.174 11.462l-5.73 15.528h30.833l-5.73-15.528a522.827 522.827 0 0 1-4.065-11.242 408.302 408.302 0 0 1-3.37-10.108 350.767 350.767 0 0 1-2.112-6.933zm18.519-56.092 62.329 157.508h-44.312l-9.636-26.111h-54.08l-9.636 26.11h-43.432l62.768-157.507Z"/><path fill="#ffa24d" stroke="#fff" stroke-linejoin="round" stroke-width="9" d="M346.773 127.338c-.706 2.378-1.43 4.69-2.172 6.933-1.05 3.15-2.21 6.446-3.48 9.888a1671.47 1671.47 0 0 0-4.174 11.462l-5.73 15.528h30.833l-5.73-15.528a522.827 522.827 0 0 1-4.065-11.242 408.302 408.302 0 0 1-3.37-10.108 350.767 350.767 0 0 1-2.112-6.933zm18.519-56.092 62.329 157.508h-44.312l-9.636-26.111h-54.08l-9.636 26.11h-43.432l62.768-157.507Z"/></g><g fill-rule="evenodd" style="mix-blend-mode:normal;stroke-miterlimit:10;stroke-dasharray:none;stroke-dashoffset:0"><path fill="none" d="M301.575 127.338c-.706 2.378-1.43 4.69-2.172 6.933-1.05 3.15-2.21 6.446-3.479 9.888a1671.47 1671.47 0 0 0-4.175 11.462l-5.73 15.528h30.833l-5.73-15.528a522.827 522.827 0 0 1-4.065-11.242 408.343 408.343 0 0 1-3.37-10.108 350.767 350.767 0 0 1-2.112-6.933zm18.519-56.092 62.33 157.508h-44.312l-9.637-26.111h-54.08l-9.636 26.11h-43.432l62.768-157.507Z"/><path fill="#96f" stroke="#7240d6" stroke-linejoin="round" stroke-width="29" d="M301.575 127.338c-.706 2.378-1.43 4.69-2.172 6.933-1.05 3.15-2.21 6.446-3.479 9.888a1671.47 1671.47 0 0 0-4.175 11.462l-5.73 15.528h30.833l-5.73-15.528a522.827 522.827 0 0 1-4.065-11.242 408.343 408.343 0 0 1-3.37-10.108 350.767 350.767 0 0 1-2.112-6.933zm18.519-56.092 62.33 157.508h-44.312l-9.637-26.111h-54.08l-9.636 26.11h-43.432l62.768-157.507Z"/><path fill="none" d="M301.575 127.338c-.706 2.378-1.43 4.69-2.172 6.933-1.05 3.15-2.21 6.446-3.479 9.888a1671.47 1671.47 0 0 0-4.175 11.462l-5.73 15.528h30.833l-5.73-15.528a522.827 522.827 0 0 1-4.065-11.242 408.343 408.343 0 0 1-3.37-10.108 350.767 350.767 0 0 1-2.112-6.933zm18.519-56.092 62.33 157.508h-44.312l-9.637-26.111h-54.08l-9.636 26.11h-43.432l62.768-157.507Z"/><path fill="#ff774d" stroke="#fff" stroke-linejoin="round" stroke-width="9" d="M301.575 127.338c-.706 2.378-1.43 4.69-2.172 6.933-1.05 3.15-2.21 6.446-3.479 9.888a1671.47 1671.47 0 0 0-4.175 11.462l-5.73 15.528h30.833l-5.73-15.528a522.827 522.827 0 0 1-4.065-11.242 408.343 408.343 0 0 1-3.37-10.108 350.767 350.767 0 0 1-2.112-6.933zm18.519-56.092 62.33 157.508h-44.312l-9.637-26.111h-54.08l-9.636 26.11h-43.432l62.768-157.507Z"/></g><g fill-rule="evenodd" style="mix-blend-mode:normal;stroke-miterlimit:10;stroke-dasharray:none;stroke-dashoffset:0"><path fill="none" d="M252.627 127.338c-.706 2.378-1.43 4.69-2.172 6.933-1.05 3.15-2.21 6.446-3.479 9.888-1.27 3.442-2.66 7.263-4.175 11.462l-5.73 15.528h30.833l-5.73-15.528a522.885 522.885 0 0 1-4.065-11.242 408.343 408.343 0 0 1-3.369-10.108 350.767 350.767 0 0 1-2.113-6.933zm18.52-56.092 62.328 157.508h-44.311l-9.637-26.111h-54.079l-9.636 26.11h-43.433l62.769-157.507Z"/><path fill="#96f" stroke="#7240d6" stroke-linejoin="round" stroke-width="29" d="M252.627 127.338c-.706 2.378-1.43 4.69-2.172 6.933-1.05 3.15-2.21 6.446-3.479 9.888-1.27 3.442-2.66 7.263-4.175 11.462l-5.73 15.528h30.833l-5.73-15.528a522.885 522.885 0 0 1-4.065-11.242 408.343 408.343 0 0 1-3.369-10.108 350.767 350.767 0 0 1-2.113-6.933zm18.52-56.092 62.328 157.508h-44.311l-9.637-26.111h-54.079l-9.636 26.11h-43.433l62.769-157.507Z"/><path fill="none" d="M252.627 127.338c-.706 2.378-1.43 4.69-2.172 6.933-1.05 3.15-2.21 6.446-3.479 9.888-1.27 3.442-2.66 7.263-4.175 11.462l-5.73 15.528h30.833l-5.73-15.528a522.885 522.885 0 0 1-4.065-11.242 408.302 408.302 0 0 1-3.369-10.108 350.767 350.767 0 0 1-2.113-6.933zm18.52-56.092 62.328 157.508h-44.311l-9.636-26.111h-54.08l-9.636 26.11h-43.433l62.769-157.507Z"/><path fill="#ff4c4c" stroke="#fff" stroke-linejoin="round" stroke-width="9" d="M252.627 127.338c-.706 2.378-1.43 4.69-2.172 6.933-1.05 3.15-2.21 6.446-3.479 9.888-1.27 3.442-2.66 7.263-4.175 11.462l-5.73 15.528h30.833l-5.73-15.528a522.885 522.885 0 0 1-4.065-11.242 408.302 408.302 0 0 1-3.369-10.108 350.767 350.767 0 0 1-2.113-6.933zm18.52-56.092 62.328 157.508h-44.311l-9.636-26.111h-54.08l-9.636 26.11h-43.433l62.769-157.507Z"/></g></svg>