<svg xmlns="http://www.w3.org/2000/svg" xmlns:xlink="http://www.w3.org/1999/xlink" width="600" zoomAndPan="magnify" viewBox="0 0 450 225" height="300" preserveAspectRatio="xMidYMid meet" version="1.0"><defs><g/><clipPath id="434b0b0550"><rect x="0" width="98" y="0" height="177"/></clipPath></defs><rect x="-45" width="540" fill="#ffffff" y="-22.5" height="270" fill-opacity="1"/><rect x="-45" width="540" fill="#607d8b" y="-22.5" height="270" fill-opacity="1"/><rect x="-45" width="540" fill="#455a64" y="-22.5" height="270" fill-opacity="1"/><path fill="#607d8b" d="M 0 43.5 L 90 105 L 180 94.5 L 270 44.25 L 360 100.5 L 450 90 L 450 225.75 L 0 225.75 Z M 0 43.5 " fill-opacity="1" fill-rule="nonzero"/><path fill="#5a7582" d="M 0 115.5 L 90 93.75 L 180 55.5 L 270 95.25 L 360 121.5 L 450 93 L 450 225.75 L 0 225.75 Z M 0 115.5 " fill-opacity="1" fill-rule="nonzero"/><path fill="#546d79" d="M 0 88.5 L 90 78.75 L 180 144 L 270 81.75 L 360 105.75 L 450 143.25 L 450 225.75 L 0 225.75 Z M 0 88.5 " fill-opacity="1" fill-rule="nonzero"/><path fill="#4e6570" d="M 0 105 L 180 123 L 270 114 L 360 147.75 L 450 113.25 L 450 225.75 L 0 225.75 Z M 0 105 " fill-opacity="1" fill-rule="nonzero"/><path fill="#485d68" d="M 0 171 L 90 146.25 L 180 131.25 L 270 169.5 L 360 157.5 L 450 162 L 450 225.75 L 0 225.75 Z M 0 171 " fill-opacity="1" fill-rule="nonzero"/><path fill="#42565f" d="M 0 174.75 L 90 177.75 L 180 167.25 L 270 172.5 L 360 170.25 L 450 176.25 L 450 225.75 L 0 225.75 Z M 0 174.75 " fill-opacity="1" fill-rule="nonzero"/><path fill="#3c4e57" d="M 0 179.25 L 90 209.25 L 180 188.25 L 270 180 L 360 209.25 L 450 203.25 L 450 225.75 L 0 225.75 Z M 0 179.25 " fill-opacity="1" fill-rule="nonzero"/><g transform="matrix(1, 0, 0, 1, 176, 24)"><g clip-path="url(#434b0b0550)"><g fill="#ffffff" fill-opacity="1"><g transform="translate(0.494211, 139.739389)"><g><path d="M 13.015625 9.1875 L 1.328125 9.1875 L 46.03125 -107.046875 L 57.640625 -107.046875 Z M 13.015625 9.1875 "/></g></g></g><g fill="#ffffff" fill-opacity="1"><g transform="translate(38.551934, 139.739389)"><g><path d="M 13.015625 9.1875 L 1.328125 9.1875 L 46.03125 -107.046875 L 57.640625 -107.046875 Z M 13.015625 9.1875 "/></g></g></g></g></g></svg>