<svg width="600" height="300" viewBox="0 0 600 300" fill="none" xmlns="http://www.w3.org/2000/svg">
<g clip-path="url(#clip0_87_2)">
<mask id="mask0_87_2" style="mask-type:luminance" maskUnits="userSpaceOnUse" x="0" y="0" width="600" height="300">
<path d="M0 0H600V300H0V0Z" fill="white"/>
</mask>
<g mask="url(#mask0_87_2)">
<path d="M0 300V0H600V300H0Z" fill="#1F4E88"/>
</g>
<path d="M0 0.5C0 0.5 273.405 0.66692 381 61.5C510.223 134.561 600 300 600 300H0V0.5Z" fill="#4675AF"/>
<path d="M0 0.5C0 0.5 120.905 158.667 228.5 219.5C357.723 292.561 600 300 600 300H0V0.5Z" fill="#70A6E8"/>
<path d="M600 0.5C600 0.5 479.095 158.667 371.5 219.5C242.277 292.561 0 300 0 300H600V0.5Z" fill="#0E315B"/>
<g filter="url(#filter0_i_87_2)">
<path d="M346.947 82.5791C353.575 82.5792 358.947 87.9518 358.947 94.5791V210.445C358.947 217.073 353.575 222.445 346.947 222.445H234.622L216.491 240.576L198.229 222.314C192.442 221.458 188 216.471 188 210.445V94.5791C188 87.9518 193.373 82.5791 200 82.5791H346.947Z" fill="white"/>
</g>
<path d="M346.947 82.5791L346.947 76.5791H346.947V82.5791ZM358.947 94.5791H364.947V94.579L358.947 94.5791ZM358.947 210.445L364.947 210.445V210.445H358.947ZM346.947 222.445V228.445H346.947L346.947 222.445ZM234.622 222.445V216.445H232.137L230.379 218.203L234.622 222.445ZM216.491 240.576L212.249 244.819L216.491 249.061L220.734 244.819L216.491 240.576ZM198.229 222.314L202.472 218.072L201.07 216.669L199.107 216.379L198.229 222.314ZM188 210.445H182V210.445L188 210.445ZM188 94.5791L182 94.579V94.5791H188ZM346.947 82.5791L346.947 88.5791C350.261 88.5791 352.947 91.2655 352.947 94.5792L358.947 94.5791L364.947 94.579C364.947 84.6382 356.888 76.5792 346.947 76.5791L346.947 82.5791ZM358.947 94.5791H352.947V210.445H358.947H364.947V94.5791H358.947ZM358.947 210.445L352.947 210.445C352.947 213.759 350.261 216.445 346.947 216.445L346.947 222.445L346.947 228.445C356.888 228.445 364.947 220.386 364.947 210.445L358.947 210.445ZM346.947 222.445V216.445H234.622V222.445V228.445H346.947V222.445ZM234.622 222.445L230.379 218.203L212.249 236.334L216.491 240.576L220.734 244.819L238.865 226.688L234.622 222.445ZM216.491 240.576L220.734 236.334L202.472 218.072L198.229 222.314L193.987 226.557L212.249 244.819L216.491 240.576ZM198.229 222.314L199.107 216.379C196.218 215.952 194 213.452 194 210.445L188 210.445L182 210.445C182 219.49 188.665 226.965 197.352 228.25L198.229 222.314ZM188 210.445H194V94.5791H188H182V210.445H188ZM188 94.5791L194 94.5792C194 91.2654 196.687 88.5791 200 88.5791V82.5791V76.5791C190.059 76.5791 182 84.6382 182 94.579L188 94.5791ZM200 82.5791V88.5791H346.947V82.5791V76.5791H200V82.5791Z" fill="black" fill-opacity="0.15"/>
<g filter="url(#filter1_d_87_2)">
<path d="M400 59C406.627 59 412 64.3728 412 71V186.866C412 193.494 406.627 198.866 400 198.866H287.675L269.544 216.997L251.283 198.736C245.495 197.881 241.053 192.892 241.053 186.866V71C241.053 64.3728 246.425 59 253.053 59H400Z" fill="#438FEB" shape-rendering="crispEdges"/>
<path d="M400 59L400 53H400V59ZM412 71H418V70.9998L412 71ZM400 198.866V204.866H400L400 198.866ZM287.675 198.866V192.866H285.19L283.432 194.624L287.675 198.866ZM269.544 216.997L265.301 221.24L269.544 225.482L273.787 221.24L269.544 216.997ZM251.283 198.736L255.526 194.494L254.123 193.091L252.16 192.801L251.283 198.736ZM241.053 71L235.053 70.9998V71H241.053ZM253.053 59V53H253.053L253.053 59ZM400 59L400 65C403.313 65 406 67.6864 406 71.0002L412 71L418 70.9998C418 61.0592 409.941 53.0001 400 53L400 59ZM412 71H406V186.866H412H418V71H412ZM412 186.866H406C406 190.18 403.314 192.866 400 192.866L400 198.866L400 204.866C409.941 204.866 418 196.807 418 186.866H412ZM400 198.866V192.866H287.675V198.866V204.866H400V198.866ZM287.675 198.866L283.432 194.624L265.301 212.754L269.544 216.997L273.787 221.24L291.917 203.109L287.675 198.866ZM269.544 216.997L273.787 212.754L255.526 194.494L251.283 198.736L247.041 202.979L265.301 221.24L269.544 216.997ZM251.283 198.736L252.16 192.801C249.271 192.374 247.053 189.874 247.053 186.866H241.053H235.053C235.053 195.911 241.718 203.388 250.406 204.672L251.283 198.736ZM241.053 186.866H247.053V71H241.053H235.053V186.866H241.053ZM241.053 71L247.053 71.0002C247.053 67.6863 249.739 65 253.053 65L253.053 59L253.053 53C243.112 53 235.053 61.0593 235.053 70.9998L241.053 71ZM253.053 59V65H400V59V53H253.053V59Z" fill="black" fill-opacity="0.15"/>
</g>
</g>
<defs>
<filter id="filter0_i_87_2" x="182" y="76.5791" width="182.947" height="176.482" filterUnits="userSpaceOnUse" color-interpolation-filters="sRGB">
<feFlood flood-opacity="0" result="BackgroundImageFix"/>
<feBlend mode="normal" in="SourceGraphic" in2="BackgroundImageFix" result="shape"/>
<feColorMatrix in="SourceAlpha" type="matrix" values="0 0 0 0 0 0 0 0 0 0 0 0 0 0 0 0 0 0 127 0" result="hardAlpha"/>
<feOffset dy="4"/>
<feGaussianBlur stdDeviation="2"/>
<feComposite in2="hardAlpha" operator="arithmetic" k2="-1" k3="1"/>
<feColorMatrix type="matrix" values="0 0 0 0 0 0 0 0 0 0 0 0 0 0 0 0 0 0 0.25 0"/>
<feBlend mode="normal" in2="shape" result="effect1_innerShadow_87_2"/>
</filter>
<filter id="filter1_d_87_2" x="231.053" y="53" width="190.947" height="180.482" filterUnits="userSpaceOnUse" color-interpolation-filters="sRGB">
<feFlood flood-opacity="0" result="BackgroundImageFix"/>
<feColorMatrix in="SourceAlpha" type="matrix" values="0 0 0 0 0 0 0 0 0 0 0 0 0 0 0 0 0 0 127 0" result="hardAlpha"/>
<feOffset dy="4"/>
<feGaussianBlur stdDeviation="2"/>
<feComposite in2="hardAlpha" operator="out"/>
<feColorMatrix type="matrix" values="0 0 0 0 0 0 0 0 0 0 0 0 0 0 0 0 0 0 0.25 0"/>
<feBlend mode="normal" in2="BackgroundImageFix" result="effect1_dropShadow_87_2"/>
<feBlend mode="normal" in="SourceGraphic" in2="effect1_dropShadow_87_2" result="shape"/>
</filter>
<clipPath id="clip0_87_2">
<rect width="600" height="300" fill="white"/>
</clipPath>
</defs>
</svg>
