<svg version="1.0" xmlns="http://www.w3.org/2000/svg" width="450.000000pt" height="350.000000pt" viewBox="0 0 450.000000 350.000000" preserveAspectRatio="xMidYMid meet">

<g transform="translate(0.000000,350.000000) scale(0.100000,-0.100000)" fill="#000000" stroke="none">
<path d="M1715 2618 c-2 -7 -38 -182 -80 -388 -42 -206 -78 -382 -81 -390 -3 -8 -33 43 -69 118 l-64 132 -58 -25 c-32 -15 -62 -30 -66 -34 -5 -5 -1 -24 8 -42 23 -44 20 -42 45 -29 20 11 25 3 96 -144 l76 -156 46 0 47 0 99 473 c55 259 101 478 104 485 3 8 -10 12 -47 12 -32 0 -53 -5 -56 -12z"/>
<path d="M2820 2254 c0 -53 -1 -55 -22 -48 -66 21 -121 -18 -121 -85 0 -30 7 -49 23 -66 20 -22 31 -24 96 -23 l74 1 0 138 0 139 -25 0 c-24 0 -25 -3 -25 -56z m-12 -96 c7 -7 12 -24 12 -38 0 -14 -5 -31 -12 -38 -28 -28 -88 -2 -88 38 0 40 60 66 88 38z"/>
<path d="M3060 2248 c0 -48 -3 -59 -12 -50 -7 7 -29 12 -50 12 -79 0 -120 -99 -63 -155 27 -27 91 -35 113 -13 9 9 12 9 12 0 0 -7 9 -12 20 -12 19 0 20 7 20 140 0 133 -1 140 -20 140 -18 0 -20 -7 -20 -62z m-16 -94 c32 -31 11 -84 -32 -84 -35 0 -52 16 -52 50 0 14 5 31 12 38 17 17 54 15 72 -4z"/>
<path d="M4140 2170 c0 -133 1 -140 20 -140 19 0 20 7 20 140 0 133 -1 140 -20 140 -19 0 -20 -7 -20 -140z"/>
<path d="M2450 2173 c-30 -70 -56 -130 -58 -135 -2 -4 9 -8 25 -8 23 0 31 6 40 30 11 28 14 30 68 30 53 0 57 -1 66 -30 9 -24 17 -30 40 -30 29 0 29 0 15 33 -7 17 -33 78 -57 135 -60 141 -67 140 -139 -25z m104 -21 c7 -20 4 -22 -28 -22 -41 0 -41 0 -19 58 l16 43 12 -28 c7 -16 16 -39 19 -51z"/>
<path d="M3153 2284 c-3 -8 2 -23 11 -32 15 -15 17 -15 33 0 13 14 14 20 3 32 -16 20 -39 20 -47 0z"/>
<path d="M3400 2284 c-11 -12 -10 -18 3 -32 16 -15 18 -15 33 0 19 18 12 48 -9 48 -8 0 -20 -7 -27 -16z"/>
<path d="M3270 2235 c0 -18 -5 -25 -20 -25 -13 0 -20 -7 -20 -20 0 -13 7 -20 20 -20 18 0 20 -7 20 -58 0 -67 11 -82 57 -82 26 0 33 4 33 19 0 13 -8 21 -22 23 -20 3 -23 10 -26 51 -3 45 -2 47 22 47 19 0 26 5 26 20 0 15 -7 20 -25 20 -20 0 -25 5 -25 25 0 18 -5 25 -20 25 -15 0 -20 -7 -20 -25z"/>
<path d="M3553 2208 c-42 -11 -63 -43 -63 -93 0 -63 39 -92 116 -87 38 3 74 47 74 90 0 69 -57 109 -127 90z m65 -50 c19 -19 14 -65 -9 -81 -44 -31 -94 17 -71 68 13 27 58 35 80 13z"/>
<path d="M3985 2213 c-11 -3 -28 -11 -38 -18 -15 -11 -16 -14 -2 -25 12 -10 18 -10 29 0 20 16 60 9 64 -12 3 -14 -4 -18 -30 -18 -46 0 -78 -24 -78 -59 0 -16 7 -34 15 -41 19 -16 71 -15 91 1 10 8 14 8 14 0 0 -6 9 -11 20 -11 18 0 20 7 20 69 0 51 -5 74 -17 89 -19 23 -56 33 -88 25z m55 -116 c0 -18 -21 -37 -41 -37 -24 0 -33 18 -19 35 15 19 60 20 60 2z"/>
<path d="M3150 2120 c0 -89 0 -90 25 -90 25 0 25 1 25 90 0 89 0 90 -25 90 -25 0 -25 -1 -25 -90z"/>
<path d="M3400 2120 c0 -83 1 -90 20 -90 19 0 20 7 20 90 0 83 -1 90 -20 90 -19 0 -20 -7 -20 -90z"/>
<path d="M3720 2120 c0 -89 0 -90 25 -90 23 0 24 4 27 61 3 65 19 88 52 76 12 -5 16 -20 16 -72 0 -63 1 -65 25 -65 24 0 25 2 25 68 0 83 -16 112 -64 112 -17 0 -37 -5 -44 -12 -9 -9 -12 -9 -12 0 0 7 -11 12 -25 12 -25 0 -25 -1 -25 -90z"/>
<path d="M2750 1675 l0 -135 25 0 c24 0 25 3 25 55 0 75 24 75 64 0 24 -47 32 -55 57 -55 16 0 29 2 29 5 0 3 -14 27 -31 55 l-31 51 26 20 c28 22 35 64 16 99 -12 23 -68 40 -132 40 l-48 0 0 -135z m139 61 c4 -25 -24 -46 -61 -46 -25 0 -28 3 -28 36 l0 35 42 -3 c33 -2 44 -7 47 -22z"/>
<path d="M3450 1745 c0 -18 -5 -25 -20 -25 -13 0 -20 -7 -20 -20 0 -13 7 -20 20 -20 17 0 20 -7 20 -51 0 -71 12 -89 60 -89 33 0 40 3 40 20 0 15 -7 20 -25 20 -23 0 -25 3 -25 50 0 47 2 50 25 50 18 0 25 5 25 20 0 15 -7 20 -25 20 -20 0 -25 5 -25 25 0 20 -5 25 -25 25 -20 0 -25 -5 -25 -25z"/>
<path d="M3045 1723 c-53 -13 -83 -72 -65 -127 32 -97 190 -68 190 34 0 60 -64 107 -125 93z m63 -55 c7 -7 12 -24 12 -38 0 -33 -17 -50 -50 -50 -45 0 -63 37 -40 81 12 22 59 26 78 7z"/>
<path d="M3275 1721 c-49 -15 -75 -49 -75 -96 0 -57 60 -100 123 -88 67 13 96 110 47 157 -28 26 -64 37 -95 27z m67 -66 c23 -51 -27 -99 -71 -68 -23 16 -28 62 -9 81 22 22 67 14 80 -13z"/>
<path d="M3611 1717 c-56 -28 -50 -89 8 -102 36 -8 48 -22 32 -38 -7 -7 -17 -7 -35 1 -19 9 -27 8 -37 -4 -14 -17 -11 -22 28 -33 17 -5 42 -4 63 3 29 9 36 16 38 43 3 33 -25 63 -60 63 -22 0 -33 19 -19 33 8 8 16 9 29 0 23 -14 60 8 40 24 -23 18 -63 22 -87 10z"/>
</g>
</svg>
