<svg xmlns="http://www.w3.org/2000/svg" width="600" height="300"><defs><clipPath id="a"><path d="M299 132h269v119H299z"/></clipPath></defs><path fill="#555975" d="M0 0h600v300H0z"/><path fill="#bca2f5" stroke="#000" stroke-linecap="round" stroke-linejoin="round" stroke-width="3.5" d="M22 141 252 21l210 116-230 120z"/><rect width="286" height="137" x="290" y="123" fill="#323440" stroke="#000" stroke-width="3.5" rx="10"/><rect width="272" height="123" x="297" y="130" fill="#272a3c" stroke="#000" stroke-width="3.5" rx="3"/><path d="M306 119h20v3h-20zM331 119h36v3h-36z"/><path stroke="#424242" stroke-linecap="round" stroke-width="2.5" d="M576 200v-17"/><g stroke="#000" stroke-width="5" clip-path="url(#a)"><path fill="#9882c8" stroke-linecap="round" stroke-linejoin="round" stroke-width="3.5" d="m226 193.4 161-84 147 81.2-161 84z"/><path fill="#00000033" stroke-linejoin="round" stroke-width="3.5" d="m343.6 196.2 32.2-14.7-46.2 3.5-32.2 14.7 35.7 14 46.2-3.5z"/><path stroke-linecap="round" stroke-width="3.5" d="m343.6 196.2-46.2 3.5"/><g fill="#73f3ff33" stroke-linecap="round" stroke-linejoin="round"><path stroke-width="3.5" d="M375.8 181.5v-42l-32.2 14.7v42zM375.8 181.5v-42l35.7 14v42z"/><path stroke-width="3.5" d="m343.6 196.2 32.2-14.7 35.7 14-32.2 14.7z"/><path stroke-width="3.5" d="M379.3 210.2v-42l32.2-14.7v42zM379.3 210.2v-42l-35.7-14v42z"/><path stroke-width="3.5" d="m343.6 154.2 32.2-14.7 35.7 14-32.2 14.7z"/></g></g></svg>