<svg xmlns="http://www.w3.org/2000/svg" width="600" height="300"><path fill="#ffe500" stroke="#000" stroke-width=".435" d="M.217 299.783V.217h599.566v299.566Z" style="fill-rule:nonzero;stroke-linejoin:miter;stroke-miterlimit:10;stroke-dasharray:none;stroke-dashoffset:0"/><path fill="#d9c200" d="M80 300 0 0h50l80 300zM230 300 150 0h50l80 300zM380 300 300 0h50l80 300zM530 300 450 0h50l80 300z" style="fill-rule:nonzero;stroke-linejoin:miter;stroke-miterlimit:10;stroke-dasharray:none;stroke-dashoffset:0"/><g stroke="#000" stroke-width="6.567"><path fill="#595959" d="M507.716 170.983c-.041.007-45.071 5.489-45.071 5.489l-.04-47.318s35.633 6.536 42.947 6.536c3.631 0 3.828 34.998 2.164 35.293z" style="fill-rule:nonzero;stroke-linejoin:miter;stroke-miterlimit:10;stroke-dasharray:none;stroke-dashoffset:0" transform="translate(3.83 -4.34)"/><path fill="#4d4d4d" d="M509.23 162.871v-17.513h88.441v17.513z" style="fill-rule:nonzero;stroke-linejoin:miter;stroke-miterlimit:10;stroke-dasharray:none;stroke-dashoffset:0" transform="translate(3.83 -4.34)"/></g><path d="M168.288 189.986v-71.77h33.614v71.77zM207.732 212.337V102.44h245.295v109.898z" style="fill-rule:nonzero;stroke-linejoin:miter;stroke-miterlimit:10;stroke-dasharray:none;stroke-dashoffset:0" transform="matrix(1.10305 0 0 1.10305 -44.382 -22.402)"/><path fill="#27c200" d="M320.804 212.337V101.124h132.223v111.213z" style="fill-rule:nonzero;stroke-linejoin:miter;stroke-miterlimit:10;stroke-dasharray:none;stroke-dashoffset:0" transform="matrix(1.10305 0 0 1.10305 -44.382 -22.402)"/><path fill="none" stroke="#fff" stroke-width="10.946" d="M206.963 212.174V100.417h247.18v111.757z" style="fill-rule:nonzero;stroke-linejoin:miter;stroke-miterlimit:10;stroke-dasharray:none;stroke-dashoffset:0" transform="matrix(1.10305 0 0 1.10305 -44.382 -22.402)"/><path fill="none" stroke="#fff" stroke-width="10.946" d="M170.275 188.074v-68.369h36.814v68.37z" style="fill-rule:nonzero;stroke-linejoin:miter;stroke-miterlimit:10;stroke-dasharray:none;stroke-dashoffset:0" transform="matrix(1.10305 0 0 1.10305 -44.382 -22.402)"/><path fill="none" stroke="#fff" stroke-linecap="round" stroke-width="10.946" d="m383.05 210.86 28.925-105.184M277.867 104.362l-27.61 103.868M344.921 105.676 315.996 210.86" style="fill-rule:nonzero;stroke-linejoin:miter;stroke-miterlimit:10;stroke-dasharray:none;stroke-dashoffset:0" transform="matrix(1.10305 0 0 1.10305 -44.382 -22.402)"/><path fill="#fff" d="m89.401 92.502 10.663-20.389-10.936-16.697 16.91 12.303 15.666-10.936-9.022 15.603 9.022 18.749-15.94-13.67zM82.755 216.786l22.668-3.945 6.597-18.838.526 20.906 18.21 5.777-17.872 2.335-9.388 18.568 1.149-20.967zM422.886 39.398l21.956 6.881 14.495-13.722-9.112 18.823 13.54 13.48-16.956-6.114-16.853 12.202 10.629-18.11zM444.954 250.244 425.77 262.95l1.513 19.902-8.866-18.94-19 2.01 15.436-9.306 1.154-20.774 7.356 19.668z" style="fill-rule:nonzero;stroke-linejoin:miter;stroke-miterlimit:10;stroke-dasharray:none;stroke-dashoffset:0"/></svg>