<svg xmlns="http://www.w3.org/2000/svg" xml:space="preserve" width="600" height="300" stroke-miterlimit="10"><clipPath id="a"><path d="M0 0h604.785v300.001H0z"/></clipPath><g clip-path="url(#a)" transform="scale(.99209 1)"><path fill="#e6d017" d="M0 300.001V0h604.785v300.001z"/><path fill="#ccb914" d="M92.392 300.001 12.392 0h50l80 300.001zm150 0L162.392 0h50l80 300.001zm150 0L312.392 0h50l80 300.001zm150 0L462.392 0h50l80 300.001z"/><path fill="#fff" d="m102.247 42.477 5.305 16.13 16.129 5.304-16.129 5.305-5.305 16.129-5.304-16.13-16.13-5.304 16.13-5.305zM495.26 192.066l5.304 16.129 16.129 5.305-16.129 5.305-5.304 16.129-5.305-16.129-16.129-5.305 16.129-5.305zM450.392 26.408l5.305 16.13 16.13 5.304-16.13 5.304-5.305 16.13-5.305-16.13-16.13-5.304 16.13-5.305zM111.91 212.5l5.304 16.129 16.129 5.305-16.129 5.304-5.304 16.129-5.305-16.129-16.129-5.304 16.129-5.305z"/></g><path fill-opacity=".15" d="M181.25 75c-20.719 0-37.5 16.792-37.5 37.5v75c0 20.72 16.792 37.5 37.5 37.5h220c20.72 0 37.5-16.792 37.5-37.5v-.25c9.855-1.243 17.5-9.561 17.5-19.75v-35c0-10.193-7.648-18.508-17.5-19.75v-.25c0-20.72-16.792-37.5-37.5-37.5h-220z"/><path fill="#fff" d="M416.236 117.5h20c8.285 0 15 6.716 15 15v35c0 8.285-6.715 15-15 15h-20c-8.284 0-15-6.715-15-15v-35c0-8.284 6.716-15 15-15z"/><path fill="#99870f" stroke="#fff" stroke-width="10" d="M181.236 87.5h220c13.807 0 25 11.193 25 25v75c0 13.807-11.193 25-25 25h-220c-13.807 0-25-11.193-25-25v-75c0-13.807 11.193-25 25-25z"/><path fill="#fff" d="M183.403 100H325.07c7.824 0 14.166 5.596 14.166 12.5v75c0 6.904-6.342 12.5-14.166 12.5H183.403c-7.824 0-14.167-5.596-14.167-12.5v-75c0-6.904 6.343-12.5 14.167-12.5z"/></svg>