<svg xmlns="http://www.w3.org/2000/svg" width="600" height="300" viewBox="0 0 158.75 79.375"><g aria-label="1010" style="font-size:62.504px;line-height:1.25;stroke-width:1.5626"><path d="M10.63 57.251h9.583V22.43l-10.316 2.32v-5.616l10.255-2.259h6.165v40.377h9.46v5.189H10.63ZM54.761 39.55q0-1.678 1.16-2.9 1.19-1.22 2.838-1.22 1.71 0 2.93 1.22 1.22 1.222 1.22 2.9 0 1.71-1.22 2.9-1.19 1.19-2.93 1.19-1.709 0-2.869-1.16-1.129-1.16-1.129-2.93zm4.06-18.617q-4.304 0-6.44 4.64-2.106 4.638-2.106 14.13 0 9.46 2.105 14.1 2.137 4.639 6.44 4.639 4.334 0 6.44-4.64 2.136-4.638 2.136-14.1 0-9.49-2.136-14.13-2.106-4.639-6.44-4.639zm0-4.883q7.293 0 11.017 5.982 3.754 5.982 3.754 17.67 0 11.66-3.754 17.641-3.724 5.982-11.018 5.982-7.294 0-11.017-5.982-3.724-5.982-3.724-17.64 0-11.69 3.724-17.671 3.723-5.982 11.017-5.982zM85.89 57.251h9.584V22.43l-10.316 2.32v-5.616l10.255-2.259h6.165v40.377h9.461v5.189H85.891ZM130.022 39.55q0-1.678 1.16-2.9 1.19-1.22 2.838-1.22 1.71 0 2.93 1.22 1.22 1.222 1.22 2.9 0 1.71-1.22 2.9-1.19 1.19-2.93 1.19-1.709 0-2.869-1.16-1.129-1.16-1.129-2.93zm4.06-18.617q-4.304 0-6.44 4.64-2.106 4.638-2.106 14.13 0 9.46 2.106 14.1 2.136 4.639 6.44 4.639 4.333 0 6.439-4.64 2.136-4.638 2.136-14.1 0-9.49-2.136-14.13-2.106-4.639-6.44-4.639zm0-4.883q7.293 0 11.017 5.982 3.754 5.982 3.754 17.67 0 11.66-3.754 17.641-3.724 5.982-11.018 5.982-7.294 0-11.017-5.982-3.724-5.982-3.724-17.64 0-11.69 3.724-17.671 3.723-5.982 11.017-5.982z" style="font-family:&quot;DejaVu Sans Mono&quot;;-inkscape-font-specification:&quot;DejaVu Sans Mono&quot;"/></g></svg>