<svg xmlns="http://www.w3.org/2000/svg" width="200" height="100" viewBox="0 0 52.917 26.458"><g transform="matrix(.179 0 0 .179 24.075 6.196)"><g fill-rule="evenodd"><path fill="#272525" d="M74.72 64.946c-4.972-5.573-13.289-8.916-16.204-15.432-3.6-8.146-1.2-14.919.6-22.635.944-4.116-1.629-7.716-3.6-8.488 5.058-5.916 3.943-12.775.943-15.69l-5.402 2.315c-.943 4.115-1.629 10.203-1.715 11.66-16.461 2.058-19.72 27.179-13.118 40.04 5.402 10.46 17.32 18.347 33.953 18.004 6.515-.257 10.63-3 4.544-9.774z"/><path fill="#fff63b" d="M54.23 4.158c1.714 1.03 3.686 3.43 3.515 5.402-.43.514-4.63 9.26-3.173 10.031 3.687 1.886-1.8 16.205.257 25.378 2.83 12.69 13.804 15.519 18.177 22.72 2.4 3.945-1.972 4.974-3.258 4.974-19.977-.343-27.95-11.146-31.209-17.834-4.287-8.745-1.629-19.548 2.058-28.036.772-1.715 2.744-4.887 4.115-6.173 2.23-1.886 2.744-2.058 5.66-2.315.428-.086 3.857-14.147 3.857-14.147z"/><path fill="#272525" d="M50.8 21.306c.171-.6 1.029-.343.857.171-5.23 17.405-3 33.781 8.917 42.355 2.486 1.8 7.459 3.944 8.574 4.372 1.2.429.257 1.115-.858.772-1.029-.343-1.886-.686-3.43-1.372C52 61.774 41.198 52.257 50.8 21.306Z"/><path fill="#272525" d="M55.858.386c-1.8-.257-7.716 11.232-8.66 13.29-16.29-3.43-28.293 19.033-26.663 33.265 1.371 11.575 9.774 22.892 25.463 28.037 6.26 2.057 11.146.857 7.888-7.545-2.743-6.86-9.345-12.775-9.688-19.806-.429-8.83 4.201-14.404 8.66-21.091 2.4-3.601 1.2-7.974-.515-9.26 11.06-4.544 8.488-16.204 3.515-16.89Z"/><path fill="#fff63b" d="M56.287 3.473c1.886.857 3.258 2.743 1.372 6.258-1.2 2.23-7.717 7.202-6.602 8.403 2.83 3-7.46 14.66-8.83 23.92-1.801 12.861 7.458 19.12 9.002 27.265.857 4.458-3.601 4.03-4.802 3.6-18.605-6.858-22.292-19.633-22.977-27.006-.858-9.689 5.401-18.863 11.917-25.722 1.286-1.371 4.287-3.772 6.087-4.458 2.744-1.115 2.658-2.83 5.488-2.058.428.172 9.345-10.203 9.345-10.203z"/><path fill="#272525" d="M46.942 18.562c.428-.514 1.114 0 .771.429-11.146 14.661-14.832 30.694-6.773 42.783 1.715 2.572 5.573 6.173 6.516 6.859.943.772-.514 1.886-1.372 1.2-.857-.686-2.143-1.629-3.258-2.743-10.031-9.86-15.947-22.635 4.116-48.528Z"/><path fill="#272525" d="M57.573 1.415C56.03.386 45.227 7.93 43.426 9.303 30.737-1.072 9.131 13.418 3.558 26.707-.986 37.51-1.329 50.285 10.074 61.86c4.545 4.63 11.66 6.773 12.861-2.144.943-7.287-.857-14.832 2.23-21.263 3.943-8.059 9.688-11.403 16.89-15.432 3.6-1.972 4.8-5.916 4.2-7.974 11.575.686 15.348-10.803 11.318-13.632Z"/><path fill="#fff63b" d="M56.373 4.416c.428 1.886-.172 4.887-1.886 6.173-1.544 1.114-6.774 3.258-9.775 3.515 1.03 3.944-13.889 10.546-19.633 18.09-7.888 10.46-2.83 20.235-5.488 28.122-1.457 4.287-5.144 1.972-6.001.944C.558 46.856 3.558 33.824 6.56 27.05c3.943-8.916 14.06-14.232 23.063-17.319 1.8-.6 5.658-1.371 7.544-1.2 3.001.257 3.516.6 5.573 2.486.43.343 13.29-8.23 13.633-6.601z"/><path fill="#272525" d="M40.683 13.504c.6-.257.943.514.514.686-16.976 7.888-28.207 20.405-26.921 34.723.257 3.001 1.886 7.888 2.4 9.003.515 1.114-.771.943-1.114-.086-.429-1.029-.772-1.8-1.2-3.344-4.116-13.117-4.03-27.178 26.32-40.982Z"/></g></g><g stroke-miterlimit="10" data-paper-data="{&quot;isPaintingLayer&quot;:true}" style="mix-blend-mode:normal"><path fill="#d99e82" d="M51.337 23.524a.562.562 0 0 1-.397.165l-19.84-.003a.562.562 0 0 1 0-1.124l19.84.002a.562.562 0 0 1 .397.96z"/><path fill="#fcb1e3" d="M36.696 20.939a3.091 3.091 0 1 1-4.372 4.371 3.091 3.091 0 0 1 4.372-4.371z"/><path fill="#ffd983" d="M40.906 25.755a3.091 3.091 0 1 1-3.25-5.26 3.091 3.091 0 0 1 3.25 5.26z"/><path fill="#a6d388" d="M46.236 20.94a3.092 3.092 0 1 1-4.374 4.372 3.092 3.092 0 0 1 4.374-4.372z"/><path fill="#d99e82" d="M51.337 23.524a.562.562 0 0 1-.397.165h-4.87a.562.562 0 1 1 0-1.125h4.87a.562.562 0 0 1 .397.96z"/></g><g transform="scale(.17911) rotate(-46.197 87.237 74.71)"><g fill-rule="evenodd"><path fill="#efab00" d="M115.708 95.278s-17.136-73.356-64.334-74.5c-46.336-1.122-57.334 74.5-39.166 74.5z"/><path fill="#59c059" d="M149.932 64.924s15.026-13.646-5.724-20.646c-12.732-4.294-13.168-24.948-22.834-28.834-11.282-4.534-16.586 4.688-26.666 1.084C84.036 12.712 80.886-.982 66.462.674c-9.3 1.068-9.588 15.604-28.506 16.354-22.618.896-11.25 18.25-16.082 28.918C17.04 56.612 1.266 57.256 5.792 76.778c2.736 11.802 10.248 19.09 32.914 15.75 16.926-2.494 111.226-27.604 111.226-27.604"/><path fill="#e8511c" d="m27.403 58.942 11.012 3.338a3.923 3.923 0 0 0 4.88-2.608l1.254-4.134a3.925 3.925 0 0 0-2.608-4.882l-11.012-3.338a3.925 3.925 0 0 0-4.88 2.608l-1.254 4.136a3.924 3.924 0 0 0 2.608 4.88"/><path fill="#c18500" d="M20.024 56.022c2.28.58 5.54 3.06 8.2 3.72-6.88 17.82-8.12 34.9-16.64 35.5h-.04c-6.54-.54-13.6-6.66-9.52-12.96 2.42-3.74-1.34-8.38-.32-12.68 1.46-6.2 7.8-7.54 10-8.16 2.4-.66 4.94-6.28 8.32-5.42"/><path fill="#c6431a" d="M37.164 49.22c-2.02 3.66-3.68 7.42-5.08 11.14l-1.88-.58-1.8-.537c1.46-3.722 3.18-7.462 5.26-11.08z"/><path fill="#a06b00" d="M32.084 60.362c-6.62 17.44-7.96 34-16.18 34.86-.96 0-1.44 0-3.04.06h-.4c-.3 0-.58-.02-.88-.04 8.52-.6 9.76-17.68 16.64-35.5.72.18 1.38.22 1.98.04z"/><path fill="#e8511c" d="m35.705 36.06 5.37-2.57a3.926 3.926 0 0 0 1.84-5.217l-.36-.75a3.922 3.922 0 0 0-5.218-1.838l-5.37 2.57a3.926 3.926 0 0 0-1.84 5.218l.36.748a3.922 3.922 0 0 0 5.218 1.84"/><path fill="#4ba04b" d="M90.204 19.562c-1.46.02-2.96.1-4.5.22-26.84 2.06-40.54 14.92-48.54 29.44l-3.5-1.06c8.08-14.1 21.76-26.36 47.94-28.38 3-.24 5.86-.3 8.6-.22"/><path fill="#e8511c" d="m136.526 49.754 4.066 7.042a3.925 3.925 0 0 0 5.346 1.432l1.904-1.098a3.924 3.924 0 0 0 1.434-5.346l-4.066-7.044a3.927 3.927 0 0 0-5.346-1.432l-1.904 1.1a3.924 3.924 0 0 0-1.434 5.346M90.4 22.764l7.667-2.71a3.923 3.923 0 0 0 2.386-4.994l-.734-2.074a3.925 3.925 0 0 0-4.992-2.386l-7.668 2.71a3.923 3.923 0 0 0-2.384 4.994l.732 2.074a3.923 3.923 0 0 0 4.992 2.386"/><path fill="#ffbf00" d="M143.89 95.278c6.151 0 10.865-5.382 10.151-11.496-2.734-23.428-15.75-68.04-68.334-64.004-66.054 5.07-52.5 75.5-70.5 75.5zM63.18 17.765a1.998 1.998 0 0 1-1.264-3.55l10.5-8.552a2 2 0 0 1 2.526 3.102l-10.5 8.55c-.372.302-.818.45-1.262.45"/><path fill="#ffbf00" d="M131.362 24.025c-.124 0-.248-.01-.374-.036l-13.306-2.518a2 2 0 0 1-1.594-2.336c.206-1.086 1.254-1.81 2.336-1.594l13.308 2.52a1.997 1.997 0 0 1 1.592 2.336 1.998 1.998 0 0 1-1.962 1.628M17.699 65.082a1.98 1.98 0 0 1-1.264-.452L5.941 56.07a2 2 0 0 1 2.53-3.098l10.494 8.562c.856.696.984 1.956.284 2.812-.394.484-.97.736-1.55.736"/><path fill="#efab00" d="M130.538 59.37c-3.262 0-3.268-5.07 0-5.07 3.264 0 3.268 5.07 0 5.07M104.573 63.904c-3.262 0-3.268-5.07 0-5.07 3.264 0 3.268 5.07 0 5.07M101.434 84.78c-3.262 0-3.268-5.07 0-5.07 3.264 0 3.27 5.07 0 5.07M58.491 87.315c-3.262 0-3.268-5.07 0-5.07 3.262 0 3.268 5.07 0 5.07M63.515 43.233c-3.262 0-3.268-5.07 0-5.07 3.262 0 3.268 5.07 0 5.07M90.393 31.744c-3.262 0-3.268-5.072 0-5.072 3.262 0 3.268 5.072 0 5.072M77.217 66.975c-3.262 0-3.268-5.07 0-5.07 3.262 0 3.268 5.07 0 5.07M49.152 68.975c-3.262 0-3.268-5.07 0-5.07 3.262 0 3.268 5.07 0 5.07M135.489 79.961c-3.262 0-3.268-5.07 0-5.07 3.262 0 3.268 5.07 0 5.07M115.708 40.697c-3.264 0-3.27-5.07 0-5.07 3.262 0 3.268 5.07 0 5.07"/><path fill="#4ba04b" d="m28.404 59.242 1.8.54c-.6.178-1.26.14-1.98-.04.06-.16.12-.32.18-.5"/></g></g><path fill="#ec1c2c" d="M26.337 19.268c.978 2.342-.25 5.085-2.741 6.126-2.492 1.04-5.305-.016-6.283-2.36-.978-2.342.587-4.273 3.08-5.314 2.491-1.04 4.966-.795 5.944 1.548z"/><g fill="#231f20"><path d="M20.827 17.318c-.77.247-1.461.646-1.461.646-2.221 1.178-3.535 2.94-2.576 5.236 1.087 2.606 4.215 3.78 6.986 2.623 2.77-1.156 4.135-4.206 3.047-6.812-1.02-2.442-3.418-2.631-5.996-1.693Zm2.677 7.854c-2.348.98-4.998-.016-5.92-2.223-.812-1.945.238-3.59 2.106-4.624.039-.021 1.354-.592 1.354-.592 2.15-.72 4.194-.365 5.042 1.667.92 2.207-.235 4.791-2.582 5.772Z"/><path d="M22.28 18.056c-.423.033-.76.272-1.091.53a6.413 6.413 0 0 1-.925.593c-.197.072-.409.103-.65.064-.097-.017-.132.127-.044.164.407.172.776.014 1.143-.19.55-.305 1.095-.55 1.658-.82.183-.087.111-.356-.091-.34z"/></g><path fill="#fff" d="M18.824 22.377c.23.554.716.878.405 1.008-.312.13-.752-.213-.983-.766-.231-.553-.166-1.107.146-1.238.312-.13.201.443.432.996z"/><path fill="#99661d" d="M20.65 19.06c.056-.036.148-.087.203-.127-.315-.782-.563-1.592-1.219-2.182-.18-.163-.373-.29-.567-.423l-.37.502c.966.41 1.58 1.22 1.953 2.23z"/><path fill="#231f20" d="M19.145 15.869c-.098-.058-.226-.054-.296.041l-.654.89c-.077.104-.043.277.088.322.77.264 1.152.663 1.232.727.168.135.562.624.774 1.144l.115.257c.277-.01.81-.444.81-.444-.021-.059-.11-.377-.11-.377-.025-.134-.572-1.746-1.959-2.56Zm1.68 3.045-.17.097-.078-.186c-.376-.925-.968-1.608-1.88-1.995l.37-.502c.194.133.387.26.567.423.61.55.828 1.24 1.109 1.964z"/></svg>