<svg xmlns="http://www.w3.org/2000/svg" width="600" height="300" viewBox="0 0 599.99999 300.00001"><path fill="#169fb0" d="M0 300V0h600v300z" style="mix-blend-mode:normal;fill-rule:nonzero;stroke-linejoin:miter;stroke-miterlimit:10;stroke-dasharray:none;stroke-dashoffset:0"/><g fill="none" stroke="#00b2c9" stroke-linecap="round" stroke-width="12.5" style="mix-blend-mode:normal;fill-rule:nonzero;stroke-linejoin:miter;stroke-miterlimit:10;stroke-dasharray:none;stroke-dashoffset:0"><path d="M621.73086 133.20088c-6.84468 156.562-140.9058 301.18083-297.4678 297.4678-156.562-3.71303-284.59799-140.9058-297.4678-297.4678-12.8698-156.562 140.9058-272.71096 297.4678-297.4678 156.562-24.75683 304.31248 140.9058 297.4678 297.4678"/><path d="M588.56 127.85075c-5.42429 133.47192-120.12473 256.53914-253.59665 253.59665C201.49143 378.5049 91.56578 261.32268 81.3667 127.85076 71.16762-5.62116 201.49143-106.12656 334.96335-125.74589 468.43527-145.36522 593.98429-5.62116 588.56 127.85076"/><path d="M550.03899 125.17568c-4.67223 110.38184-99.34366 212.26003-209.7255 209.7255-110.38183-2.53454-200.94049-99.34366-209.7255-209.72549-8.78502-110.38183 99.34367-192.82633 209.7255-209.7255 110.38183-16.89916 214.39772 99.34367 209.7255 209.7255"/><path d="M509.37793 123.57063c-4.1968 87.29177-78.56259 168.13099-165.85435 165.85435-87.29176-2.27663-157.96327-78.56259-165.85435-165.85435-7.89108-87.29176 78.56259-150.67477 165.85435-165.85435 87.29177-15.17958 170.05115 78.56259 165.85435 165.85435"/><path d="M467.64683 122.5006c-3.86434 64.20169-57.78152 124.07948-121.9832 121.9832-64.20168-2.09628-114.71722-57.78151-121.98319-121.9832C216.41447 58.29892 281.46195 14.4945 345.66363.51741c64.20169-13.97709 125.84754 57.78151 121.9832 121.9832"/><path d="M425.30429 121.73629c-3.61619 41.1116-37.00045 80.07372-78.11205 78.11205-41.1116-1.96167-71.31266-37.00045-78.11204-78.11205-6.79938-41.1116 37.00044-65.03249 78.11204-78.11204 41.1116-13.07955 81.72824 37.00045 78.11205 78.11204"/><path d="M666.6963 133.38226c-7.87841 180.2071-162.18639 346.66729-342.39349 342.39349-180.2071-4.2738-327.57999-162.18639-342.39349-342.39349-14.8135-180.2071 162.18639-313.8977 342.39349-342.39349S674.57471-46.82484 666.6963 133.38226" data-paper-data="{&quot;index&quot;:null}"/></g><g stroke="#fff" stroke-width="10" style="mix-blend-mode:normal;fill-rule:nonzero;stroke-linejoin:miter;stroke-miterlimit:10;stroke-dasharray:none;stroke-dashoffset:0"><path fill="#5bd3e3" d="M236.88504 137.84039h57.80704v57.80705h-57.80704Z"/><path fill="#5bd3e3" d="M265.78858 195.64741h57.80704v57.80701h-57.80704zM207.98151 195.64741h57.80704v57.80701h-57.80704z"/><path fill="#fff" d="M177.96579 253.45442h175.6456z"/></g><g stroke="#fff" stroke-width="10" style="mix-blend-mode:normal;fill-rule:nonzero;stroke-linejoin:miter;stroke-miterlimit:10;stroke-dasharray:none;stroke-dashoffset:0"><path fill="#5bd3e3" d="M317.43235 119.15335c0-17.45973 14.15391-31.61364 31.61365-31.61364s31.61364 14.15391 31.61364 31.61364-14.1539 31.61364-31.61364 31.61364-31.61365-14.15391-31.61365-31.61364z"/><path fill="#0ff" stroke-linecap="round" d="m394.43079 43.54554-30.60338 30.86273M386.65029 82.18877l30.60338-30.86271M394.43079 105.0116l30.60338-30.86272"/></g></svg>