<?xml version="1.0" encoding="UTF-8" standalone="no"?>
<!-- Created with Inkscape (http://www.inkscape.org/) -->

<svg
   width="158.75mm"
   height="79.375mm"
   viewBox="0 0 158.75 79.375"
   version="1.1"
   id="svg1"
   inkscape:version="1.4 (86a8ad7, 2024-10-11)"
   sodipodi:docname="BrkEtt.svg"
   inkscape:export-filename="..\..\Desktop\TW stuff\BrkEtt.png"
   inkscape:export-xdpi="96"
   inkscape:export-ydpi="96"
   xmlns:inkscape="http://www.inkscape.org/namespaces/inkscape"
   xmlns:sodipodi="http://sodipodi.sourceforge.net/DTD/sodipodi-0.dtd"
   xmlns="http://www.w3.org/2000/svg"
   xmlns:svg="http://www.w3.org/2000/svg">
  <sodipodi:namedview
     id="namedview1"
     pagecolor="#505050"
     bordercolor="#ffffff"
     borderopacity="1"
     inkscape:showpageshadow="0"
     inkscape:pageopacity="0"
     inkscape:pagecheckerboard="1"
     inkscape:deskcolor="#505050"
     inkscape:document-units="mm"
     inkscape:zoom="1.4378367"
     inkscape:cx="334.87808"
     inkscape:cy="275.7615"
     inkscape:window-width="1920"
     inkscape:window-height="1009"
     inkscape:window-x="-8"
     inkscape:window-y="-8"
     inkscape:window-maximized="1"
     inkscape:current-layer="layer1" />
  <defs
     id="defs1" />
  <g
     inkscape:label="Layer 1"
     inkscape:groupmode="layer"
     id="layer1"
     transform="translate(-23.553904,-85.382904)">
    <rect
       style="fill:#35005b;stroke-width:24;stroke-linecap:round;stroke-miterlimit:5;paint-order:stroke fill markers;fill-opacity:1"
       id="rect1"
       width="158.75"
       x="23.553904"
       y="85.382904"
       height="79.375" />
    <path
       id="rect2"
       style="fill:#a319ff;fill-opacity:1;stroke-width:24;stroke-linecap:round;stroke-miterlimit:5;paint-order:stroke fill markers"
       d="M 111.28292 115.46944 L 87.406854 126.78606 L 78.39035 119.05785 L 58.516628 127.15451 L 37.171161 115.56142 L 23.553904 123.68961 L 23.553904 125.36393 L 37.263145 119.44852 L 58.838572 130.68505 L 78.022414 121.86388 L 87.821299 131.44418 L 111.05296 119.31055 L 129.73037 135.15868 L 154.11234 124.69317 L 175.18237 139.43749 L 182.3039 133.30453 L 182.3039 131.18579 L 174.99789 135.25118 L 154.06635 121.90987 L 129.82235 132.12269 L 111.28292 115.46944 z " />
    <path
       id="path3"
       style="fill:#a724ff;fill-opacity:0.68256336;stroke-width:24;stroke-linecap:round;stroke-miterlimit:5;paint-order:stroke fill markers"
       d="M 36.987193 111.88103 L 23.553904 122.06077 L 23.553904 127.10335 L 37.447113 123.49686 L 58.286668 134.36544 L 76.550152 124.99186 L 86.900942 135.30854 L 110.50105 122.99094 L 129.73037 138.1032 L 154.11234 128.00511 L 175.18237 142.56546 L 182.3039 136.00979 L 182.3039 129.76572 L 175.18237 132.85856 L 154.43429 118.96587 L 130.55874 128.9942 L 111.83482 112.15698 L 88.327211 124.39396 L 78.574318 115.56142 L 58.700596 124.02602 L 36.987193 111.88103 z " />
    <path
       id="path4"
       style="fill:#000000;fill-opacity:0.25186288;stroke-width:24;stroke-linecap:round;stroke-miterlimit:5;paint-order:stroke fill markers"
       d="M 107.46454 150.15621 L 88.879116 158.73088 L 67.533648 152.7421 L 54.10036 154.10326 L 36.434772 150.29212 L 23.553904 153.13019 L 23.553904 164.7579 L 182.3039 164.7579 L 182.3039 159.20527 L 165.06155 153.01443 L 153.46845 159.13913 L 140.95552 154.91974 L 128.9945 156.41681 L 107.46454 150.15621 z " />
    <path
       id="path5"
       style="fill:#000000;fill-opacity:0.251863;stroke-width:24;stroke-linecap:round;stroke-miterlimit:5;paint-order:stroke fill markers"
       d="M 107.83248 134.88272 L 89.247052 149.35678 L 67.901585 139.24835 L 54.468296 141.54537 L 36.803224 135.11269 L 23.553904 140.04003 L 23.553904 164.7579 L 182.3039 164.7579 L 182.3039 149.93504 L 165.42948 139.70775 L 153.83639 150.04614 L 141.32346 142.92409 L 129.36243 145.45107 L 107.83248 134.88272 z " />
    <path
       id="path7"
       style="fill:#000000;fill-opacity:0.25;stroke-width:24;stroke-linecap:round;stroke-miterlimit:5;paint-order:stroke fill markers"
       d="M 23.553904 85.382904 L 23.553904 99.714329 L 36.434772 105.62456 L 43.05969 101.39226 L 57.964723 109.85686 L 77.654478 99.920001 L 90.903281 110.96119 L 112.80117 99.552065 L 123.65787 105.07266 L 130.83469 101.20829 L 142.97969 113.53726 L 161.56512 98.44774 L 175.36634 109.12099 L 182.3039 106.11032 L 182.3039 85.382904 L 23.553904 85.382904 z " />
    <path
       id="path8"
       style="fill:#000000;fill-opacity:0.25;stroke-width:24;stroke-linecap:round;stroke-miterlimit:5;paint-order:stroke fill markers"
       d="M 23.553904 85.382904 L 23.553904 89.394545 L 36.066835 95.135797 L 42.691237 90.903497 L 57.596787 99.368097 L 77.286025 89.431236 L 90.535345 100.47191 L 112.43323 89.0633 L 123.28994 94.583893 L 130.46676 90.719529 L 142.61175 103.04849 L 161.19718 87.958974 L 174.99841 98.632224 L 182.3039 95.461359 L 182.3039 85.382904 L 23.553904 85.382904 z " />
  </g>
  <g
     inkscape:groupmode="layer"
     id="layer2"
     inkscape:label="Layer 2">
    <rect
       style="fill:none;fill-opacity:1;stroke:#7027b2;stroke-width:12.1046;stroke-linecap:round;stroke-miterlimit:5;stroke-dasharray:none;stroke-opacity:1;paint-order:stroke fill markers"
       id="rect13"
       width="28.398527"
       height="28.682539"
       x="25.8738"
       y="77.109848"
       transform="matrix(0.85447321,-0.51949545,0.71867514,0.69534598,0,0)" />
    <rect
       style="fill:none;fill-opacity:1;stroke:#7027b2;stroke-width:12.1046;stroke-linecap:round;stroke-miterlimit:5;stroke-dasharray:none;stroke-opacity:1;paint-order:stroke fill markers"
       id="rect12"
       width="28.398527"
       height="28.682539"
       x="-2.3867598"
       y="48.732578"
       transform="matrix(0.85447321,-0.51949545,0.71867514,0.69534598,0,0)" />
    <rect
       style="fill:none;fill-opacity:1;stroke:#d088ff;stroke-width:5.3798;stroke-linecap:round;stroke-miterlimit:5;stroke-dasharray:none;stroke-opacity:1;paint-order:stroke fill markers"
       id="rect10"
       width="28.398527"
       height="28.682539"
       x="-2.3867598"
       y="48.732578"
       transform="matrix(0.85447321,-0.51949545,0.71867514,0.69534598,0,0)" />
    <rect
       style="fill:none;fill-opacity:1;stroke:#d088ff;stroke-width:5.3798;stroke-linecap:round;stroke-miterlimit:5;stroke-dasharray:none;stroke-opacity:1;paint-order:stroke fill markers"
       id="rect11"
       width="28.398527"
       height="28.682539"
       x="25.8738"
       y="77.109848"
       transform="matrix(0.85447321,-0.51949545,0.71867514,0.69534598,0,0)" />
  </g>
</svg>
