<svg version="1.1" xmlns="http://www.w3.org/2000/svg" xmlns:xlink="http://www.w3.org/1999/xlink" width="600" height="300" viewBox="0,0,600,300"><defs><clipPath id="clip-1"><path d="M-59.5381,30.92379h600v300h-600z" fill="none"/></clipPath><clipPath id="clip-2"><path d="M-60,30h600v300h-600z" fill="none" fill-rule="nonzero" stroke-width="1"/></clipPath><clipPath id="clip-3"><rect x="-240" y="-180" transform="scale(0.5,0.5)" width="1440" height="1080" fill="none" fill-rule="nonzero" stroke-width="0.5"/></clipPath></defs><g transform="translate(60,-30)"><g clip-path="url(#clip-3)" data-paper-data="{&quot;isPaintingLayer&quot;:true}" stroke="none" stroke-linecap="butt" stroke-linejoin="miter" stroke-miterlimit="10" stroke-dasharray="" stroke-dashoffset="0" style="mix-blend-mode: normal"><g clip-path="url(#clip-1)" fill-rule="nonzero" stroke-width="1"><path d="M-59.5381,330.9238v-300h600c0,0 0,131.55034 0,186c0,42.62762 0,114 0,114z" fill="#f1eea3"/></g><path d="M163.7342,349.1235c7.35899,-24.11423 81.80942,-37.29879 83.15664,-58.32998c1.34865,-21.0331 -75.61335,25.61098 -81.11843,13.25362c-5.50508,-12.35832 79.4831,-74.78235 124.4628,-93.03006c27.10393,-10.99491 48.48562,4.54359 17.27908,28.59353c-20.87833,16.08949 -11.05206,29.91504 8.15856,20.45831c19.21062,-9.45863 29.43167,14.93323 2.89159,35.77966c-26.53961,20.84547 -163.15548,80.56506 -154.83025,53.27494zM365.72188,287.03234c20.60974,-30.74938 60.01009,-11.56685 35.03723,20.67832c-22.09745,28.52686 -93.07339,58.09236 -96.54169,42.21479c-2.54682,-11.66019 37.25689,-26.71343 61.50446,-62.8931zM535.21154,349.09343c-33.55048,32.54805 -61.89114,64.26986 -81.848,63.28836c-20.73594,-1.02006 -2.21488,-40.70422 32.99379,-71.1469c24.94524,-21.56884 0.58432,-32.51376 -23.33752,-19.6354c-28.90927,15.56232 -51.44388,5.14934 -14.13366,-28.97404c37.31022,-34.12528 93.9625,-59.23623 124.86426,-52.79777c30.90033,6.43846 -43.40437,26.10291 -46.35312,52.15107c-2.89635,25.59479 42.16764,-26.07529 65.66422,-8.8867c22.80606,16.6819 -26.68914,35.77346 -57.85043,66.0009zM159.20155,252.32465c3.78878,18.53296 -42.45432,76.92485 -99.16279,92.31954c-57.00325,15.47374 -110.59677,21.49122 -112.89596,8.1076c-2.28299,-13.30552 33.87146,-23.35657 78.78496,-44.89018c21.71552,-10.41011 -1.25959,-19.18347 -15.39611,-13.55982c-46.75599,18.59773 -43.10341,-9.82246 -3.62687,-29.8598c30.84699,-15.65851 56.93896,-23.87184 72.39603,-27.63967c22.41794,-5.46507 27.09106,9.0148 14.29177,17.18574c-24.9838,15.94996 -12.97027,30.6727 9.39435,18.29628c14.16509,-7.83902 50.08476,-49.93428 56.21463,-19.9597zM180.06609,236.39898c-13.25694,5.3065 -16.69619,-4.4193 -16.69619,-12.27736c0,-7.85997 13.25885,-10.80537 20.62594,-6.38512c7.36708,4.4193 5.30269,14.96895 -3.92974,18.66297zM553.13974,202.87802c-5.05647,11.7021 -61.73923,13.5722 -103.88877,51.37197c-15.16468,13.6003 -33.75335,-3.01208 -29.34119,-15.7609c4.41025,-12.74834 17.88911,-16.10853 38.98603,-24.31043c21.09501,-8.20333 -5.72985,-19.13681 -40.53707,-2.71206c-19.91018,9.3934 -41.2433,-6.44179 -17.20288,-22.74986c20.09448,-13.62935 66.39426,-17.53672 65.12942,-29.22834c-0.69956,-6.49322 -34.31005,9.12671 -40.41754,-4.87075c-5.07743,-11.63304 6.9542,-25.00143 40.57469,-27.71586c34.25195,-2.7654 60.89062,4.27977 61.2892,21.10597c0.45145,19.04966 -39.73417,24.21186 -21.67837,30.10123c18.15674,5.91843 55.99795,4.13881 47.0865,24.76856zM349.7005,243.6432c-6.76944,-4.70741 -6.97992,-10.71014 0.21525,-19.03775c9.32768,-10.79919 24.89522,-10.29725 29.46739,-6.34798c4.57217,3.94975 -5.76413,14.177 -9.71007,20.06972c-3.94689,5.89081 -11.2573,11.37541 -19.97257,5.31601zM350.11623,178.7671c-40.13419,9.59435 -62.71691,-6.49037 -53.72782,-17.48051c9.71007,-11.86735 32.95187,-11.8402 34.77818,-35.07533c3.41305,-43.47486 46.17787,-51.16816 27.93064,-20.81642c-6.39179,10.63394 2.99398,17.37241 8.49572,3.77641c3.32209,-8.20523 19.07728,-19.46539 27.40299,-23.62896c37.78644,-18.89202 67.91434,8.55668 40.88805,16.1852c-17.58624,4.96314 -33.38524,16.90049 -43.47724,44.23728c-5.3765,14.5675 -24.66189,28.58734 -42.29051,32.80187zM469.69924,90.66682c-15.21277,-19.44873 31.78467,-20.53545 49.1409,-26.3777c17.35718,-5.84319 -18.41057,-8.80955 -49.8757,-8.48239c-31.46846,0.32716 -26.70676,-23.83946 9.05908,-35.67823c54.95027,-18.18579 103.9345,0.70004 61.8278,12.76692c-15.70328,4.50311 -4.54121,17.49147 12.88978,15.61804c32.91616,-3.53829 57.31279,12.70834 51.77342,25.40049c-6.25131,14.32415 -21.72028,4.68122 -37.36356,3.61068c-15.64375,-1.07149 -2.10297,14.26129 18.15342,24.81903c34.79389,18.13436 5.68604,48.97898 -24.1909,21.09453c-42.56766,-39.72941 -80.0236,-18.20866 -91.41378,-32.77139zM311.8712,43.51656c22.46224,-45.86833 68.5801,-41.36188 62.10544,-25.7048c-6.47322,15.6566 20.15781,2.90159 32.49376,5.75652c12.33403,2.85159 19.64874,24.29424 -26.1534,28.42162c-56.43036,5.0879 -57.74948,60.75107 -76.59436,49.12804c-12.95788,-7.9895 -0.17811,-40.59898 8.14904,-57.60185zM-25.01323,251.09268c-37.62119,6.46608 -45.9531,-6.48847 -30.28982,-16.85668c9.71293,-6.4318 47.53604,-26.94201 19.91161,-28.95117c-27.62824,-2.00964 -7.03849,-28.27637 25.40621,-52.72919c32.44375,-24.4533 103.32493,-37.66357 100.22761,-17.04145c-3.09922,20.62165 -86.56683,30.51698 -71.53646,52.28059c6.52799,9.45291 38.45457,-29.75312 52.62871,-7.1947c14.17509,22.55843 -72.76367,66.44141 -96.34739,70.49259zM219.84831,212.44761c-12.00831,10.16582 -36.56684,-4.51455 -14.47701,-24.66046c5.11268,-4.66359 18.25485,-9.12909 10.40393,-13.73174c-23.72135,-13.90317 -96.01881,58.31904 -107.97901,34.62388c-5.75081,-11.39303 23.0837,-36.87305 54.55691,-52.79063c23.23418,-11.74972 14.76275,-33.27666 -19.72208,-12.06688c-34.48673,21.21073 -40.57136,-3.79069 -21.46789,-20.19925c19.10252,-16.40665 141.14947,-73.23274 149.46518,-42.86434c6.47179,23.61897 -61.71637,19.29253 -53.23112,34.55244c6.22893,11.19779 53.65211,-18.53439 70.43878,0.77432c16.24616,18.68345 -44.5673,31.06272 -40.67327,42.26527c3.07494,8.83955 32.17469,-3.61592 32.73806,18.02436c0.43574,16.77239 -30.98938,11.4759 -60.05199,36.07301zM51.13492,61.46473c-7.30042,38.40314 -74.94284,74.20423 -100.89528,83.83096c-40.83565,15.14039 -83.50476,10.09296 -59.41767,-2.2949c24.08709,-12.3907 87.40355,-53.41733 54.81455,-56.2332c-16.03901,-1.3858 -34.16766,-13.28456 0,-41.5057c21.68933,-17.91578 97.28173,-42.67338 101.41006,-26.84296c4.1288,15.82995 -86.71351,43.36152 -58.49761,46.11596c28.21589,2.75253 65.99709,-21.02835 62.58594,-3.07017zM150.74346,75.24932c-22.04078,11.0173 -42.42337,24.36043 -65.88708,29.39692c-30.60079,6.56704 -0.41907,-34.83627 28.95593,-48.26847c13.15646,-6.01558 -2.59729,-14.03271 -15.25706,-7.88616c-34.40196,16.7 -49.36424,3.87022 -13.83841,-19.75684c8.8324,-5.87462 36.12206,-19.78303 69.25824,-24.03185c33.45048,-4.2912 32.58138,8.02379 22.23031,12.64024c-14.88609,6.63752 -25.08286,21.02835 14.82751,8.87384c71.34359,-21.72648 113.60504,-18.10865 97.36412,0c-15.16944,16.91049 -66.30997,13.37219 -137.65356,49.03231z" fill="#36331e" fill-rule="evenodd" stroke-width="1" opacity="0.1"/><path d="M222.02541,234.15242v-88.14423l-28.11963,28.11963l-15.14134,-15.6821l54.07621,-54.07621l54.07622,54.07621l-15.14134,15.6821l-28.11964,-28.11963v88.14423zM167.9492,277.41339c-5.94839,0 -11.04056,-2.11798 -15.27653,-6.35395c-4.23597,-4.23597 -6.35395,-9.32815 -6.35395,-15.27653v-32.44573h21.63048v32.44573h129.78291v-32.44573h21.63049v32.44573c0,5.94839 -2.11798,11.04056 -6.35395,15.27653c-4.23597,4.23597 -9.32815,6.35395 -15.27653,6.35395z" fill="#44472a" fill-rule="nonzero" stroke-width="1"/></g></g></svg>