<?xml version="1.0" encoding="UTF-8" standalone="no"?>
<!DOCTYPE svg PUBLIC "-//W3C//DTD SVG 1.1//EN" "http://www.w3.org/Graphics/SVG/1.1/DTD/svg11.dtd">
<!-- Created with Vectornator (http://vectornator.io/) -->
<svg height="100%" stroke-miterlimit="10" style="" version="1.1" viewBox="0 0 600 300" width="100%" xml:space="preserve" xmlns="http://www.w3.org/2000/svg" xmlns:xlink="http://www.w3.org/1999/xlink">
<defs>
<path d="M221.222 274.708C215.033 274.708 209.734 272.266 205.326 267.381C200.919 262.497 198.715 256.625 198.715 249.766L198.715 75.1752C198.715 68.3163 200.919 62.4446 205.326 57.5602C209.734 52.6758 215.033 50.2336 221.222 50.2336L268.208 50.2336C270.271 42.959 274.304 36.9834 280.306 32.3069C286.308 27.6303 292.873 25.2921 300 25.2921C307.503 25.2921 314.208 27.6303 320.116 32.3069C326.025 36.9834 330.01 42.959 332.074 50.2336L378.778 50.2336C384.967 50.2336 390.266 52.6758 394.674 57.5602C399.081 62.4446 401.285 68.3163 401.285 75.1752L401.285 249.766C401.285 256.625 399.081 262.497 394.674 267.381C390.266 272.266 384.967 274.708 378.778 274.708L221.222 274.708ZM231.233 249.766L368.767 249.766C374.296 249.766 378.778 244.8 378.778 238.673L378.778 86.2684C378.778 80.1418 374.296 75.1752 368.767 75.1752L366.28 75.1752C360.752 75.1752 356.27 80.1418 356.27 86.2684L356.27 101.494C356.27 107.621 351.788 112.588 346.259 112.588L253.741 112.588C248.212 112.588 243.73 107.621 243.73 101.494L243.73 86.2684C243.73 80.1418 239.248 75.1752 233.72 75.1752L231.233 75.1752C225.704 75.1752 221.222 80.1418 221.222 86.2684L221.222 238.673C221.222 244.8 225.704 249.766 231.233 249.766ZM300 75.1752C303.189 75.1752 305.861 73.9801 308.018 71.5899C310.175 69.1996 311.254 66.2378 311.254 62.7044C311.254 59.1711 310.175 56.2092 308.018 53.819C305.861 51.4288 303.189 50.2336 300 50.2336C296.811 50.2336 294.139 51.4288 291.982 53.819C289.825 56.2092 288.746 59.1711 288.746 62.7044C288.746 66.2378 289.825 69.1996 291.982 71.5899C294.139 73.9801 296.811 75.1752 300 75.1752Z" id="Fill"/>
<path d="M259.123 177.264C262.882 177.264 266.06 175.965 268.658 173.367C271.256 170.769 272.555 167.59 272.555 163.831C272.555 160.073 271.256 156.894 268.658 154.296C266.06 151.698 262.882 150.399 259.123 150.399C255.364 150.399 252.185 151.698 249.587 154.296C246.989 156.894 245.69 160.073 245.69 163.831C245.69 167.59 246.989 170.769 249.587 173.367C252.185 175.965 255.364 177.264 259.123 177.264Z" id="Fill_2"/>
<path d="M300 177.264C303.759 177.264 306.937 175.965 309.535 173.367C312.133 170.769 313.432 167.59 313.432 163.831C313.432 160.073 312.133 156.894 309.535 154.296C306.937 151.698 303.759 150.399 300 150.399C296.241 150.399 293.063 151.698 290.465 154.296C287.867 156.894 286.568 160.073 286.568 163.831C286.568 167.59 287.867 170.769 290.465 173.367C293.063 175.965 296.241 177.264 300 177.264Z" id="Fill_3"/>
<path d="M340.877 177.264C344.636 177.264 347.815 175.965 350.413 173.367C353.011 170.769 354.31 167.59 354.31 163.831C354.31 160.073 353.011 156.894 350.413 154.296C347.815 151.698 344.636 150.399 340.877 150.399C337.118 150.399 333.94 151.698 331.342 154.296C328.744 156.894 327.445 160.073 327.445 163.831C327.445 167.59 328.744 170.769 331.342 173.367C333.94 175.965 337.118 177.264 340.877 177.264Z" id="Fill_4"/>
</defs>
<clipPath id="ArtboardFrame">
<rect height="300" width="600" x="0" y="0"/>
</clipPath>
<g clip-path="url(#ArtboardFrame)" id="無標題">
<path d="M0 300L0 0L600 0L600 300L0 300Z" fill="#0fbd93" fill-rule="nonzero" opacity="1" stroke="none"/>
<g opacity="1">
<path d="M212.731 308.183C219.629 285.58 289.416 273.221 290.679 253.507C291.943 233.792 219.802 277.514 214.642 265.93C209.482 254.346 289.146 195.833 331.308 178.728C356.714 168.422 376.757 182.987 347.505 205.53C327.935 220.612 337.145 233.571 355.152 224.707C373.16 215.841 382.74 238.705 357.862 258.245C332.986 277.785 204.928 333.764 212.732 308.183L212.731 308.183ZM402.066 249.982C421.385 221.158 458.317 239.139 434.909 269.365C414.195 296.105 347.666 323.818 344.414 308.935C342.027 298.005 379.338 283.895 402.066 249.982ZM560.939 308.155C529.489 338.665 502.925 368.399 484.218 367.479C464.781 366.523 482.142 329.324 515.145 300.789C538.527 280.571 515.693 270.312 493.269 282.383C466.171 296.971 445.048 287.21 480.021 255.224C514.994 223.237 568.097 199.699 597.064 205.734C626.028 211.769 556.378 230.202 553.614 254.618C550.899 278.61 593.14 230.176 615.164 246.288C636.542 261.925 590.148 279.821 560.938 308.155L560.939 308.155ZM208.483 217.448C212.034 234.82 168.688 289.554 115.531 303.984C62.1 318.49 11.863 324.13 9.708 311.584C7.568 299.112 41.458 289.691 83.558 269.506C103.912 259.748 82.377 251.524 69.126 256.796C25.298 274.228 28.722 247.588 65.726 228.806C94.641 214.129 119.098 206.43 133.586 202.898C154.601 197.775 158.981 211.348 146.983 219.008C123.565 233.958 134.826 247.758 155.789 236.158C169.067 228.809 202.737 189.351 208.483 217.448ZM228.04 202.52C215.614 207.494 212.39 198.377 212.39 191.012C212.39 183.644 224.818 180.883 231.724 185.026C238.629 189.169 236.694 199.058 228.04 202.52ZM577.744 171.099C573.004 182.068 519.872 183.821 480.363 219.253C466.148 232.001 448.723 216.429 452.86 204.479C456.994 192.529 469.628 189.379 489.404 181.692C509.177 174.002 484.033 163.753 451.406 179.149C432.743 187.954 412.746 173.111 435.281 157.825C454.116 145.049 497.516 141.386 496.331 130.427C495.674 124.341 464.169 138.982 458.444 125.861C453.685 114.957 464.963 102.426 496.477 99.881C528.584 97.29 553.554 103.893 553.927 119.666C554.351 137.522 516.682 142.361 533.607 147.881C550.627 153.429 586.097 151.761 577.744 171.098L577.744 171.099ZM387.048 209.31C380.703 204.898 380.506 199.271 387.25 191.465C395.994 181.342 410.586 181.813 414.872 185.515C419.157 189.217 409.469 198.804 405.77 204.327C402.07 209.849 395.218 214.99 387.048 209.31ZM387.438 148.498C349.818 157.492 328.65 142.414 337.076 132.113C346.178 120.989 367.964 121.014 369.676 99.235C372.875 58.483 412.961 51.272 395.856 79.722C389.866 89.69 398.663 96.006 403.82 83.262C406.934 75.571 421.702 65.016 429.506 61.113C464.926 43.404 493.166 69.133 467.833 76.284C451.349 80.937 436.539 92.126 427.079 117.751C422.039 131.406 403.962 144.547 387.439 148.498L387.438 148.498ZM499.53 65.917C485.27 47.687 529.324 46.667 545.593 41.191C561.863 35.714 528.336 32.934 498.841 33.241C469.344 33.547 473.808 10.894 507.333-0.203C558.841-17.25 604.757 0.453 565.288 11.764C550.568 15.985 561.031 28.16 577.37 26.404C608.225 23.087 631.093 38.316 625.9 50.214C620.04 63.64 605.54 54.601 590.877 53.598C576.214 52.593 588.907 66.966 607.894 76.862C640.508 93.86 613.224 122.772 585.218 96.635C545.317 59.395 510.208 79.567 499.531 65.917L499.53 65.917ZM351.59 21.72C372.645-21.275 415.874-17.051 409.805-2.375C403.737 12.301 428.7 0.345 440.263 3.021C451.825 5.694 458.681 25.794 415.748 29.662C362.853 34.432 361.616 86.608 343.952 75.713C331.805 68.224 343.785 37.657 351.59 21.719L351.59 21.72ZM35.807 216.293C0.543 222.354-7.267 210.211 7.415 200.493C16.519 194.463 51.973 175.238 26.079 173.355C0.182 171.471 19.482 146.85 49.894 123.929C80.305 101.007 146.746 88.624 143.844 107.955C140.938 127.285 62.699 136.56 76.788 156.96C82.907 165.821 112.834 129.071 126.12 150.216C139.407 171.362 57.914 212.496 35.808 216.293L35.807 216.293ZM265.33 180.07C254.074 189.599 231.054 175.838 251.76 156.954C256.553 152.583 268.872 148.397 261.512 144.083C239.277 131.05 171.508 198.748 160.297 176.538C154.907 165.858 181.935 141.974 211.437 127.054C233.216 116.04 225.275 95.862 192.95 115.743C160.624 135.625 154.92 112.19 172.827 96.809C190.733 81.43 305.135 28.164 312.929 56.629C318.996 78.769 255.079 74.714 263.033 89.018C268.872 99.514 313.324 71.644 329.059 89.744C344.288 107.257 287.284 118.86 290.934 129.361C293.816 137.647 321.093 125.971 321.621 146.257C322.03 161.978 292.573 157.014 265.331 180.07L265.33 180.07ZM107.185 38.544C100.342 74.541 36.937 108.1 12.61 117.124C-25.667 131.315-65.664 126.584-43.085 114.972C-20.507 103.358 38.843 64.902 8.295 62.262C-6.739 60.962-23.732 49.809 8.295 23.356C28.626 6.562 99.483-16.644 103.353-1.806C107.223 13.033 22.072 38.84 48.52 41.422C74.968 44.002 110.383 21.711 107.185 38.544ZM200.555 51.464C179.895 61.792 160.788 74.299 138.795 79.02C110.111 85.176 138.402 46.366 165.937 33.775C178.269 28.137 163.502 20.622 151.635 26.383C119.388 42.037 105.363 30.011 138.664 7.864C146.943 2.357 172.523-10.68 203.584-14.662C234.939-18.685 234.124-7.142 224.421-2.814C210.468 3.408 200.91 16.897 238.32 5.504C305.194-14.861 344.809-11.47 329.585 5.504C315.365 21.355 267.429 18.039 200.555 51.464Z" fill="#ffffff" fill-opacity="0.733" fill-rule="evenodd" opacity="0.1" stroke="none"/>
<path d="M212.731 308.183C219.629 285.58 289.416 273.221 290.679 253.507C291.943 233.792 219.802 277.514 214.642 265.93C209.482 254.346 289.146 195.833 331.308 178.728C356.714 168.422 376.757 182.987 347.505 205.53C327.935 220.612 337.145 233.571 355.152 224.707C373.16 215.841 382.74 238.705 357.862 258.245C332.986 277.785 204.928 333.764 212.732 308.183L212.731 308.183ZM402.066 249.982C421.385 221.158 458.317 239.139 434.909 269.365C414.195 296.105 347.666 323.818 344.414 308.935C342.027 298.005 379.338 283.895 402.066 249.982ZM560.939 308.155C529.489 338.665 502.925 368.399 484.218 367.479C464.781 366.523 482.142 329.324 515.145 300.789C538.527 280.571 515.693 270.312 493.269 282.383C466.171 296.971 445.048 287.21 480.021 255.224C514.994 223.237 568.097 199.699 597.064 205.734C626.028 211.769 556.378 230.202 553.614 254.618C550.899 278.61 593.14 230.176 615.164 246.288C636.542 261.925 590.148 279.821 560.938 308.155L560.939 308.155ZM208.483 217.448C212.034 234.82 168.688 289.554 115.531 303.984C62.1 318.49 11.863 324.13 9.708 311.584C7.568 299.112 41.458 289.691 83.558 269.506C103.912 259.748 82.377 251.524 69.126 256.796C25.298 274.228 28.722 247.588 65.726 228.806C94.641 214.129 119.098 206.43 133.586 202.898C154.601 197.775 158.981 211.348 146.983 219.008C123.565 233.958 134.826 247.758 155.789 236.158C169.067 228.809 202.737 189.351 208.483 217.448ZM228.04 202.52C215.614 207.494 212.39 198.377 212.39 191.012C212.39 183.644 224.818 180.883 231.724 185.026C238.629 189.169 236.694 199.058 228.04 202.52ZM577.744 171.099C573.004 182.068 519.872 183.821 480.363 219.253C466.148 232.001 448.723 216.429 452.86 204.479C456.994 192.529 469.628 189.379 489.404 181.692C509.177 174.002 484.033 163.753 451.406 179.149C432.743 187.954 412.746 173.111 435.281 157.825C454.116 145.049 497.516 141.386 496.331 130.427C495.674 124.341 464.169 138.982 458.444 125.861C453.685 114.957 464.963 102.426 496.477 99.881C528.584 97.29 553.554 103.893 553.927 119.666C554.351 137.522 516.682 142.361 533.607 147.881C550.627 153.429 586.097 151.761 577.744 171.098L577.744 171.099ZM387.048 209.31C380.703 204.898 380.506 199.271 387.25 191.465C395.994 181.342 410.586 181.813 414.872 185.515C419.157 189.217 409.469 198.804 405.77 204.327C402.07 209.849 395.218 214.99 387.048 209.31ZM387.438 148.498C349.818 157.492 328.65 142.414 337.076 132.113C346.178 120.989 367.964 121.014 369.676 99.235C372.875 58.483 412.961 51.272 395.856 79.722C389.866 89.69 398.663 96.006 403.82 83.262C406.934 75.571 421.702 65.016 429.506 61.113C464.926 43.404 493.166 69.133 467.833 76.284C451.349 80.937 436.539 92.126 427.079 117.751C422.039 131.406 403.962 144.547 387.439 148.498L387.438 148.498ZM499.53 65.917C485.27 47.687 529.324 46.667 545.593 41.191C561.863 35.714 528.336 32.934 498.841 33.241C469.344 33.547 473.808 10.894 507.333-0.203C558.841-17.25 604.757 0.453 565.288 11.764C550.568 15.985 561.031 28.16 577.37 26.404C608.225 23.087 631.093 38.316 625.9 50.214C620.04 63.64 605.54 54.601 590.877 53.598C576.214 52.593 588.907 66.966 607.894 76.862C640.508 93.86 613.224 122.772 585.218 96.635C545.317 59.395 510.208 79.567 499.531 65.917L499.53 65.917ZM351.59 21.72C372.645-21.275 415.874-17.051 409.805-2.375C403.737 12.301 428.7 0.345 440.263 3.021C451.825 5.694 458.681 25.794 415.748 29.662C362.853 34.432 361.616 86.608 343.952 75.713C331.805 68.224 343.785 37.657 351.59 21.719L351.59 21.72ZM35.807 216.293C0.543 222.354-7.267 210.211 7.415 200.493C16.519 194.463 51.973 175.238 26.079 173.355C0.182 171.471 19.482 146.85 49.894 123.929C80.305 101.007 146.746 88.624 143.844 107.955C140.938 127.285 62.699 136.56 76.788 156.96C82.907 165.821 112.834 129.071 126.12 150.216C139.407 171.362 57.914 212.496 35.808 216.293L35.807 216.293ZM265.33 180.07C254.074 189.599 231.054 175.838 251.76 156.954C256.553 152.583 268.872 148.397 261.512 144.083C239.277 131.05 171.508 198.748 160.297 176.538C154.907 165.858 181.935 141.974 211.437 127.054C233.216 116.04 225.275 95.862 192.95 115.743C160.624 135.625 154.92 112.19 172.827 96.809C190.733 81.43 305.135 28.164 312.929 56.629C318.996 78.769 255.079 74.714 263.033 89.018C268.872 99.514 313.324 71.644 329.059 89.744C344.288 107.257 287.284 118.86 290.934 129.361C293.816 137.647 321.093 125.971 321.621 146.257C322.03 161.978 292.573 157.014 265.331 180.07L265.33 180.07ZM107.185 38.544C100.342 74.541 36.937 108.1 12.61 117.124C-25.667 131.315-65.664 126.584-43.085 114.972C-20.507 103.358 38.843 64.902 8.295 62.262C-6.739 60.962-23.732 49.809 8.295 23.356C28.626 6.562 99.483-16.644 103.353-1.806C107.223 13.033 22.072 38.84 48.52 41.422C74.968 44.002 110.383 21.711 107.185 38.544ZM200.555 51.464C179.895 61.792 160.788 74.299 138.795 79.02C110.111 85.176 138.402 46.366 165.937 33.775C178.269 28.137 163.502 20.622 151.635 26.383C119.388 42.037 105.363 30.011 138.664 7.864C146.943 2.357 172.523-10.68 203.584-14.662C234.939-18.685 234.124-7.142 224.421-2.814C210.468 3.408 200.91 16.897 238.32 5.504C305.194-14.861 344.809-11.47 329.585 5.504C315.365 21.355 267.429 18.039 200.555 51.464Z" fill="#ffffff" fill-opacity="0.541" fill-rule="evenodd" opacity="0.1" stroke="none"/>
</g>
<g opacity="1">
<g opacity="1">
<g opacity="1">
<g opacity="1">
<use fill="#ffffff" fill-rule="nonzero" stroke="none" xlink:href="#Fill"/>
<mask height="279.914" id="StrokeMask" maskUnits="userSpaceOnUse" width="233.069" x="183.466" y="10.0429">
<rect fill="#ffffff" height="279.914" stroke="none" width="233.069" x="183.466" y="10.0429"/>
<use fill="#000000" fill-rule="evenodd" stroke="none" xlink:href="#Fill"/>
</mask>
<use fill="none" mask="url(#StrokeMask)" stroke="#000000" stroke-linecap="butt" stroke-linejoin="miter" stroke-opacity="0.1" stroke-width="30.4983" xlink:href="#Fill"/>
</g>
<path d="M221.222 274.708C215.033 274.708 209.734 272.266 205.326 267.381C200.919 262.497 198.715 256.625 198.715 249.766L198.715 75.1752C198.715 68.3163 200.919 62.4446 205.326 57.5602C209.734 52.6758 215.033 50.2336 221.222 50.2336L268.208 50.2336C270.271 42.959 274.304 36.9834 280.306 32.3069C286.308 27.6303 292.873 25.2921 300 25.2921C307.503 25.2921 314.208 27.6303 320.116 32.3069C326.025 36.9834 330.01 42.959 332.074 50.2336L378.778 50.2336C384.967 50.2336 390.266 52.6758 394.674 57.5602C399.081 62.4446 401.285 68.3163 401.285 75.1752L401.285 249.766C401.285 256.625 399.081 262.497 394.674 267.381C390.266 272.266 384.967 274.708 378.778 274.708L221.222 274.708ZM231.233 249.766L368.767 249.766C374.296 249.766 378.778 244.8 378.778 238.673L378.778 86.2684C378.778 80.1418 374.296 75.1752 368.767 75.1752L366.28 75.1752C360.752 75.1752 356.27 80.1418 356.27 86.2684L356.27 101.494C356.27 107.621 351.788 112.588 346.259 112.588L253.741 112.588C248.212 112.588 243.73 107.621 243.73 101.494L243.73 86.2684C243.73 80.1418 239.248 75.1752 233.72 75.1752L231.233 75.1752C225.704 75.1752 221.222 80.1418 221.222 86.2684L221.222 238.673C221.222 244.8 225.704 249.766 231.233 249.766ZM300 75.1752C303.189 75.1752 305.861 73.9801 308.018 71.5899C310.175 69.1996 311.254 66.2378 311.254 62.7044C311.254 59.1711 310.175 56.2092 308.018 53.819C305.861 51.4288 303.189 50.2336 300 50.2336C296.811 50.2336 294.139 51.4288 291.982 53.819C289.825 56.2092 288.746 59.1711 288.746 62.7044C288.746 66.2378 289.825 69.1996 291.982 71.5899C294.139 73.9801 296.811 75.1752 300 75.1752Z" fill="#ffffff" fill-rule="nonzero" opacity="1" stroke="none"/>
</g>
<g opacity="1">
<g opacity="1">
<g opacity="1">
<use fill="#ffffff" fill-rule="nonzero" stroke="none" xlink:href="#Fill_2"/>
<mask height="39.4476" id="StrokeMask_2" maskUnits="userSpaceOnUse" width="39.4476" x="239.399" y="144.108">
<rect fill="#ffffff" height="39.4476" stroke="none" width="39.4476" x="239.399" y="144.108"/>
<use fill="#000000" fill-rule="evenodd" stroke="none" xlink:href="#Fill_2"/>
</mask>
<use fill="none" mask="url(#StrokeMask_2)" stroke="#000000" stroke-linecap="butt" stroke-linejoin="miter" stroke-opacity="0.1" stroke-width="12.583" xlink:href="#Fill_2"/>
</g>
<g opacity="1">
<use fill="#ffffff" fill-rule="nonzero" stroke="none" xlink:href="#Fill_3"/>
<mask height="39.4476" id="StrokeMask_3" maskUnits="userSpaceOnUse" width="39.4476" x="280.276" y="144.108">
<rect fill="#ffffff" height="39.4476" stroke="none" width="39.4476" x="280.276" y="144.108"/>
<use fill="#000000" fill-rule="evenodd" stroke="none" xlink:href="#Fill_3"/>
</mask>
<use fill="none" mask="url(#StrokeMask_3)" stroke="#000000" stroke-linecap="butt" stroke-linejoin="miter" stroke-opacity="0.1" stroke-width="12.583" xlink:href="#Fill_3"/>
</g>
<g opacity="1">
<use fill="#ffffff" fill-rule="nonzero" stroke="none" xlink:href="#Fill_4"/>
<mask height="39.4476" id="StrokeMask_4" maskUnits="userSpaceOnUse" width="39.4476" x="321.153" y="144.108">
<rect fill="#ffffff" height="39.4476" stroke="none" width="39.4476" x="321.153" y="144.108"/>
<use fill="#000000" fill-rule="evenodd" stroke="none" xlink:href="#Fill_4"/>
</mask>
<use fill="none" mask="url(#StrokeMask_4)" stroke="#000000" stroke-linecap="butt" stroke-linejoin="miter" stroke-opacity="0.1" stroke-width="12.583" xlink:href="#Fill_4"/>
</g>
</g>
<g opacity="1">
<path d="M259.123 177.264C262.882 177.264 266.06 175.965 268.658 173.367C271.256 170.769 272.555 167.59 272.555 163.831C272.555 160.073 271.256 156.894 268.658 154.296C266.06 151.698 262.882 150.399 259.123 150.399C255.364 150.399 252.185 151.698 249.587 154.296C246.989 156.894 245.69 160.073 245.69 163.831C245.69 167.59 246.989 170.769 249.587 173.367C252.185 175.965 255.364 177.264 259.123 177.264Z" fill="#ffffff" fill-rule="nonzero" opacity="1" stroke="none"/>
<path d="M300 177.264C303.759 177.264 306.937 175.965 309.535 173.367C312.133 170.769 313.432 167.59 313.432 163.831C313.432 160.073 312.133 156.894 309.535 154.296C306.937 151.698 303.759 150.399 300 150.399C296.241 150.399 293.063 151.698 290.465 154.296C287.867 156.894 286.568 160.073 286.568 163.831C286.568 167.59 287.867 170.769 290.465 173.367C293.063 175.965 296.241 177.264 300 177.264Z" fill="#ffffff" fill-rule="nonzero" opacity="1" stroke="none"/>
<path d="M340.877 177.264C344.636 177.264 347.815 175.965 350.413 173.367C353.011 170.769 354.31 167.59 354.31 163.831C354.31 160.073 353.011 156.894 350.413 154.296C347.815 151.698 344.636 150.399 340.877 150.399C337.118 150.399 333.94 151.698 331.342 154.296C328.744 156.894 327.445 160.073 327.445 163.831C327.445 167.59 328.744 170.769 331.342 173.367C333.94 175.965 337.118 177.264 340.877 177.264Z" fill="#ffffff" fill-rule="nonzero" opacity="1" stroke="none"/>
</g>
</g>
</g>
</g>
</g>
</svg>