<svg id="svg" version="1.1" xmlns="http://www.w3.org/2000/svg" viewBox="0 0 600 300" style="display: block;"><path d="M0 0 C198 0 396 0 600 0 C600 99 600 198 600 300 C402 300 204 300 0 300 C0 201 0 102 0 0 Z " transform="translate(0,0)" style="fill: #212BF3;"/><path d="M0 0 C6.10510881 2.68129779 10.69627019 6.62756256 15.46875 11.1640625 C16.11606079 11.7741214 16.76337158 12.3841803 17.43029785 13.01272583 C24.42361146 19.63848301 31.25837726 26.42353015 38.05957031 33.24560547 C40.16356237 35.35502782 42.27294535 37.45895564 44.3828125 39.5625 C45.75032122 40.9306686 47.1175202 42.29914686 48.484375 43.66796875 C49.40953918 44.59009659 49.40953918 44.59009659 50.35339355 45.53085327 C54.07335569 49.27063208 57.60504029 53.12724668 61.0435791 57.12759399 C66.14735254 62.97403415 71.84840583 67.79223949 77.89453125 72.640625 C80.42545459 74.77552904 82.67866937 76.99301106 84.953125 79.39453125 C96.71595668 91.32159094 115.71237148 104.64761341 131.640625 109.95703125 C131.640625 155.82703125 131.640625 201.69703125 131.640625 248.95703125 C-47.549375 248.95703125 -226.739375 248.95703125 -411.359375 248.95703125 C-409.96378096 245.46804614 -408.96475884 243.12455861 -406.953125 240.1484375 C-406.22198486 239.05063965 -406.22198486 239.05063965 -405.47607422 237.93066406 C-404.94256348 237.13499023 -404.40905273 236.33931641 -403.859375 235.51953125 C-398.46840175 227.37214335 -393.38612676 219.07437982 -388.40252686 210.67510986 C-365.79863497 172.59253011 -365.79863497 172.59253011 -357.484375 167.8984375 C-354.4809612 167.98125222 -353.28829777 169.57872616 -351.29980469 171.67919922 C-350.80383789 172.22463379 -350.30787109 172.77006836 -349.796875 173.33203125 C-342.04603619 181.47208347 -333.42670238 188.33190666 -324.359375 194.95703125 C-324.24722656 193.38115234 -324.24722656 193.38115234 -324.1328125 191.7734375 C-323.28398455 182.01307883 -321.89784151 175.04315289 -314.3984375 168.15625 C-308.05236608 163.06237275 -302.05725795 161.5642205 -294.046875 161.58203125 C-293.29575439 161.58364258 -292.54463379 161.58525391 -291.77075195 161.58691406 C-284.51562444 161.74714423 -279.29796052 163.37680982 -273.796875 168.20703125 C-273.3225 168.78453125 -272.848125 169.36203125 -272.359375 169.95703125 C-272.070625 169.17328125 -271.781875 168.38953125 -271.484375 167.58203125 C-270.359375 164.95703125 -270.359375 164.95703125 -268.359375 162.95703125 C-265.5390625 162.76171875 -265.5390625 162.76171875 -262.234375 162.83203125 C-261.13867188 162.85007813 -260.04296875 162.868125 -258.9140625 162.88671875 C-258.07101562 162.90992188 -257.22796875 162.933125 -256.359375 162.95703125 C-256.359375 163.61703125 -256.359375 164.27703125 -256.359375 164.95703125 C-255.82441406 164.63347656 -255.28945312 164.30992187 -254.73828125 163.9765625 C-251.79854442 162.71667529 -249.48834203 162.65639544 -246.296875 162.64453125 C-245.25402344 162.62777344 -244.21117187 162.61101562 -243.13671875 162.59375 C-240.359375 162.95703125 -240.359375 162.95703125 -238.53125 164.12109375 C-236.92610228 166.63582518 -236.84610078 168.68269307 -236.671875 171.64453125 C-236.60613281 172.63839844 -236.54039062 173.63226563 -236.47265625 174.65625 C-236.43527344 175.41550781 -236.39789063 176.17476562 -236.359375 176.95703125 C-235.57175781 176.88484375 -234.78414062 176.81265625 -233.97265625 176.73828125 C-210.21221415 174.71372287 -210.21221415 174.71372287 -204.359375 178.95703125 C-202.67917388 180.61005265 -201.01083454 182.27529496 -199.359375 183.95703125 C-199.32199219 182.69246094 -199.28460938 181.42789063 -199.24609375 180.125 C-199.18043667 178.46481395 -199.11398924 176.80465903 -199.046875 175.14453125 C-199.01303711 173.89446289 -199.01303711 173.89446289 -198.97851562 172.61914062 C-198.94306641 171.81669922 -198.90761719 171.01425781 -198.87109375 170.1875 C-198.84490967 169.44910889 -198.81872559 168.71071777 -198.79174805 167.94995117 C-198.24505303 165.43009154 -197.38829932 164.51285128 -195.359375 162.95703125 C-192.546875 162.55859375 -192.546875 162.55859375 -189.359375 162.58203125 C-188.3075 162.57429687 -187.255625 162.5665625 -186.171875 162.55859375 C-183.359375 162.95703125 -183.359375 162.95703125 -181.49609375 164.15625 C-179.95783474 166.59314829 -180.06053059 168.28669148 -180.171875 171.14453125 C-180.21248047 172.49611328 -180.21248047 172.49611328 -180.25390625 173.875 C-180.28871094 174.56207031 -180.32351563 175.24914062 -180.359375 175.95703125 C-173.39260259 174.58168723 -167.76920851 171.82096554 -161.546875 168.45703125 C-159.51308852 167.37357086 -157.4792332 166.29023967 -155.4453125 165.20703125 C-154.43049805 164.66304687 -153.41568359 164.1190625 -152.37011719 163.55859375 C-149.51693648 162.04084599 -146.6500496 160.55479082 -143.7734375 159.08203125 C-142.91081299 158.63794922 -142.04818848 158.19386719 -141.15942383 157.73632812 C-139.54201892 156.90452896 -137.92218043 156.07743906 -136.29956055 155.25585938 C-135.57293213 154.87880859 -134.84630371 154.50175781 -134.09765625 154.11328125 C-133.15466675 153.63084961 -133.15466675 153.63084961 -132.19262695 153.13867188 C-129.82396081 151.70328784 -129.82396081 151.70328784 -126.359375 147.95703125 C-161.339375 147.95703125 -196.319375 147.95703125 -232.359375 147.95703125 C-232.359375 147.62703125 -232.359375 147.29703125 -232.359375 146.95703125 C-231.70522802 146.95556469 -231.05108105 146.95409813 -230.37711143 146.95258713 C-214.45221721 146.9155178 -198.52757789 146.85650166 -182.60286522 146.77312851 C-174.90174388 146.73333757 -167.20072474 146.70094542 -159.49951172 146.68603516 C-152.78626539 146.67301885 -146.07324392 146.64605498 -139.36012423 146.60241818 C-135.80629431 146.57980256 -132.25274173 146.5641206 -128.69883347 146.5651474 C-124.72916647 146.56603277 -120.76006558 146.53577585 -116.79052734 146.50292969 C-115.61520447 146.50796005 -114.43988159 146.51299042 -113.22894287 146.51817322 C-106.99035812 146.43819582 -103.07461699 146.20851878 -98.359375 141.95703125 C-95.89585557 138.6375432 -96.34286053 135.79325934 -96.484375 131.76953125 C-96.09007547 125.03185156 -94.12085992 121.43250387 -90.046875 116.14453125 C-74.11291404 95.28268967 -66.71067534 70.12961331 -60.30859375 45.01171875 C-50.56710411 6.82628786 -50.56710411 6.82628786 -36.97265625 -2.71875 C-27.26457522 -7.63809151 -10.02881263 -3.11359648 0 0 Z " transform="translate(468.359375,51.04296875)" style="fill: #3AAD6A;"/><path d="M0 0 C126.39 0 252.78 0 383 0 C378.80527009 4.89385156 374.58107107 9.61307623 370.1640625 14.2890625 C367.87509571 16.9021607 367.87509571 16.9021607 366.7109375 20.0859375 C365.16667583 23.7713227 364.21821479 25.56736884 361 28 C356.95701543 28.95441199 353.01908695 29.13069403 348.875 29.1875 C347.80048584 29.21279785 346.72597168 29.2380957 345.61889648 29.26416016 C337.98208482 29.02921803 337.98208482 29.02921803 335.32128906 26.24072266 C334.0703125 24.11328125 334.0703125 24.11328125 333.16455078 22.0012207 C331.56762725 19.25698963 329.81798337 18.42620493 327 17 C324.36431145 16.54588109 324.36431145 16.54588109 321.57055664 16.59594727 C320.50917984 16.58326309 319.44780304 16.57057892 318.35426331 16.55751038 C316.64943031 16.56191383 316.64943031 16.56191383 314.91015625 16.56640625 C313.7328746 16.5611644 312.55559296 16.55592255 311.34263611 16.55052185 C308.85546659 16.54410469 306.36826672 16.54543464 303.88110352 16.55395508 C300.07968994 16.56246153 296.27978068 16.53370212 292.47851562 16.50195312 C290.05989628 16.50034091 287.64127428 16.50091904 285.22265625 16.50390625 C284.08812515 16.49267227 282.95359406 16.48143829 281.78468323 16.46986389 C275.59581245 16.52440209 271.612812 16.68102207 267 21 C265.70754973 22.83224947 265.70754973 22.83224947 265.125 24.75 C264.75375 25.8225 264.3825 26.895 264 28 C263.18321777 28.0093457 262.36643555 28.01869141 261.52490234 28.02832031 C257.80766494 28.08215507 254.091668 28.16577994 250.375 28.25 C249.08980469 28.26417969 247.80460938 28.27835938 246.48046875 28.29296875 C237.36644047 28.34029706 237.36644047 28.34029706 230 33 C227.81929314 36.40075369 227.74143362 39.21898619 227.7215271 43.21356201 C227.71036362 44.48959793 227.69920013 45.76563385 227.68769836 47.08033752 C227.68533347 48.49203462 227.68315781 49.90373204 227.68115234 51.31542969 C227.67185305 52.80369105 227.66168438 54.29194719 227.65071106 55.78019714 C227.62339702 59.8190766 227.60825751 63.85792115 227.59528303 67.89686871 C227.57965864 72.11831862 227.55286621 76.3396972 227.5272522 80.56109619 C227.48045216 88.55431998 227.44371398 96.54755717 227.41057932 104.54084802 C227.37236659 113.64117445 227.32295421 122.74142925 227.27259517 131.84169531 C227.1692571 150.56107779 227.08000279 169.28050398 227 188 C226.67 188 226.34 188 226 188 C226 186.02 226 184.04 226 182 C225.46632812 182.20157715 224.93265625 182.4031543 224.3828125 182.61083984 C221.92356283 183.53678138 219.46182175 184.45591988 217 185.375 C215.74123047 185.85066406 215.74123047 185.85066406 214.45703125 186.3359375 C203.91762607 190.25757664 193.19447846 193.33395404 182.0625 189.75 C173.01809554 185.58556693 166.140298 177.17663211 159.26171875 170.19921875 C158.01926392 168.94347046 158.01926392 168.94347046 156.75170898 167.66235352 C155.12131195 166.00872646 153.49926706 164.34680974 151.88696289 162.67553711 C141.66213228 152.24528006 131.74296806 146.86636839 117.125 145.6875 C93.66774471 146.08173958 72.49753842 161.30274147 56.5703125 177.34765625 C42.43666979 192.21962358 32.39552853 210.26442803 21.95675659 227.77182007 C16.91417638 236.22600463 11.79866866 244.61715675 6.4375 252.875 C5.62466553 254.13147339 5.62466553 254.13147339 4.79541016 255.41333008 C2.03092514 259.62724049 2.03092514 259.62724049 1 261 C0.67 261 0.34 261 0 261 C0 174.87 0 88.74 0 0 Z " transform="translate(0,0)" style="fill: #2399AB;"/><path d="M0 0 C2.13937751 0.00282349 4.2787647 0.00123203 6.4181366 -0.00442505 C12.20540628 -0.00728657 17.99059041 0.05137575 23.77737665 0.12131453 C29.83242282 0.1839588 35.88752035 0.18971209 41.94284058 0.2015686 C53.40003258 0.23261165 64.85626689 0.3146208 76.31303775 0.4150635 C91.80105747 0.54789204 107.28934033 0.60174698 122.77778625 0.66008568 C147.16751584 0.75402894 171.55522472 0.95327215 195.94482422 1.13525391 C195.94482422 54.26525391 195.94482422 107.39525391 195.94482422 162.13525391 C191.22669871 161.1916288 188.82851985 160.12378341 184.78857422 157.70556641 C184.2087529 157.35927185 183.62893158 157.01297729 183.03153992 156.65618896 C181.16314425 155.53404198 179.30327065 154.39879341 177.44482422 153.26025391 C176.49707626 152.68334808 176.49707626 152.68334808 175.53018188 152.0947876 C164.06109767 145.09194075 154.07397854 137.56923984 144.72998047 127.85791016 C142.52181283 125.72705255 140.15907511 123.85753876 137.75732422 121.94775391 C133.50570628 118.52072762 129.54890058 114.93171271 125.69482422 111.07275391 C125.22407471 110.60264893 124.7533252 110.13254395 124.26831055 109.64819336 C121.65558731 106.99542141 119.17305391 104.26150236 116.74560547 101.43823242 C113.04965172 97.20340376 109.1715289 93.18384444 105.21044922 89.19775391 C104.49177673 88.47338135 103.77310425 87.74900879 103.03265381 87.00268555 C101.52136655 85.48201803 100.00867206 83.96274787 98.49462891 82.44482422 C96.20772553 80.14821 93.9317379 77.84112817 91.65576172 75.53369141 C74.36839017 58.11922417 60.61029638 49.69926031 35.38232422 48.76025391 C30.42197599 48.87314001 27.67834283 49.6684152 23.94482422 53.13525391 C23.46916016 53.56322266 22.99349609 53.99119141 22.50341797 54.43212891 C13.25952441 63.79669992 9.75180153 78.14117125 6.65844727 90.53713989 C5.63879651 94.60469424 4.5603026 98.65663575 3.48388672 102.70947266 C3.27020447 103.51613876 3.05652222 104.32280487 2.83636475 105.15391541 C-3.77940724 129.94919214 -12.13488597 157.66778047 -31.05517578 176.13525391 C-31.05664234 175.42956961 -31.0581089 174.72388531 -31.0596199 173.99681664 C-31.09668334 156.82016174 -31.1556918 139.64372241 -31.23907852 122.46722984 C-31.27887557 114.16076715 -31.31126465 105.85439929 -31.32617188 97.54785156 C-31.33918498 90.30723658 -31.36614078 83.06683019 -31.40978885 75.82633269 C-31.43241154 71.99305077 -31.44808599 68.1600262 -31.44705963 64.3266716 C-31.44631348 60.71664202 -31.46424543 57.10718151 -31.49634361 53.49729919 C-31.50888962 51.54471789 -31.50177506 49.59204108 -31.49403381 47.63943481 C-31.58212463 39.08576514 -31.58212463 39.08576514 -36.05517578 32.13525391 C-37.88742525 30.84280364 -37.88742525 30.84280364 -39.80517578 30.26025391 C-40.87767578 29.88900391 -41.95017578 29.51775391 -43.05517578 29.13525391 C-40.50067209 23.3876206 -37.48436351 18.64134487 -33.36941338 13.87154198 C-31.05108243 11.20988729 -31.05108243 11.20988729 -29.18065071 8.4871769 C-21.19589164 -1.48448443 -11.73928412 -0.21701131 0 0 Z " transform="translate(404.05517578125,-1.13525390625)" style="fill: #8544BB;"/><path d="M0 0 C8.58 0 17.16 0 26 0 C26.99 1.98 27.98 3.96 29 6 C31.28103628 8.81323905 32.97490178 9.86151065 36.57470703 10.34783936 C39.91170137 10.49861762 43.22232755 10.50149869 46.5625 10.4609375 C47.78654541 10.46002106 49.01059082 10.45910461 50.27172852 10.4581604 C52.85729861 10.45212378 55.44286168 10.43637617 58.02832031 10.41162109 C61.9852883 10.37513565 65.94131893 10.37060169 69.8984375 10.37109375 C72.41146642 10.36126159 74.92448901 10.34960416 77.4375 10.3359375 C79.21265991 10.33259903 79.21265991 10.33259903 81.02368164 10.32919312 C82.12832764 10.31643341 83.23297363 10.30367371 84.37109375 10.29052734 C85.33974365 10.28290375 86.30839355 10.27528015 87.30639648 10.26742554 C90.23471097 9.9766975 92.38092648 9.33427277 95 8 C96.32481546 5.60470331 96.32481546 5.60470331 97 3 C97.33 2.01 97.66 1.02 98 0 C106.58 0 115.16 0 124 0 C124.02311763 19.27953071 124.04097853 38.55905752 124.05181217 57.83859921 C124.05697541 66.78978382 124.06401863 75.74095968 124.07543945 84.69213867 C124.08538545 92.49110388 124.09185322 100.29006276 124.09408849 108.08903414 C124.09539575 112.22112186 124.09848251 116.35319144 124.10573006 120.48527336 C124.11248894 124.37001526 124.11461723 128.25473146 124.11310768 132.13947868 C124.11338407 133.56939839 124.11538998 134.99931891 124.11920547 136.42923355 C124.12414059 138.37318051 124.12239805 140.31714109 124.12025452 142.26109314 C124.12117631 143.35157424 124.1220981 144.44205534 124.12304783 145.56558132 C124 148 124 148 123 149 C121.42077271 149.09811135 119.83715467 149.12631892 118.25488281 149.12698364 C117.22842651 149.12980347 116.20197021 149.13262329 115.14440918 149.13552856 C114.0087854 149.13350433 112.87316162 149.1314801 111.703125 149.12939453 C110.51464966 149.13114685 109.32617432 149.13289917 108.10168457 149.13470459 C104.83317224 149.1383627 101.56470011 149.13748972 98.29618835 149.1343255 C94.88267937 149.13180147 91.46917315 149.13413956 88.05566406 149.13571167 C82.32226069 149.13753324 76.58887017 149.13512739 70.85546875 149.13037109 C64.21794224 149.12492849 57.58044645 149.12669116 50.94292068 149.1321975 C45.25375734 149.13672899 39.56460326 149.137379 33.87543869 149.13475883 C30.4733098 149.13319626 27.07119536 149.13300175 23.66906738 149.13629532 C19.87831512 149.13882009 16.08762277 149.13498371 12.296875 149.12939453 C11.16125122 149.13141876 10.02562744 149.13344299 8.85559082 149.13552856 C7.82913452 149.13270874 6.80267822 149.12988892 5.74511719 149.12698364 C4.84766785 149.12660662 3.95021851 149.12622959 3.02557373 149.12584114 C1 149 1 149 0 148 C-0.09658904 146.08905061 -0.12187192 144.17448134 -0.12025452 142.26109314 C-0.12162918 141.01442368 -0.12300385 139.76775421 -0.12442017 138.48330688 C-0.12088056 137.08905006 -0.11724574 135.69479347 -0.11352539 134.30053711 C-0.11324353 132.84228009 -0.11340124 131.38402293 -0.1139679 129.92576599 C-0.1142559 125.95486515 -0.10835877 121.98399425 -0.10139394 118.01310039 C-0.09516081 113.86774899 -0.09455663 109.72239698 -0.09336853 105.57704163 C-0.09025509 97.72180673 -0.08204154 89.86658568 -0.07201904 82.01135689 C-0.06085829 73.07075601 -0.05534755 64.13015448 -0.05032361 55.18954837 C-0.03985893 36.79302417 -0.02205883 18.3965137 0 0 Z " transform="translate(238,39)" style="fill: #FCFCFC;"/><path d="M0 0 C2.17177633 1.50197615 3.99540609 3.11533132 5.671875 5.15625 C5.960625 4.3725 6.249375 3.58875 6.546875 2.78125 C7.671875 0.15625 7.671875 0.15625 9.671875 -1.84375 C12.4921875 -2.0390625 12.4921875 -2.0390625 15.796875 -1.96875 C16.89257812 -1.95070312 17.98828125 -1.93265625 19.1171875 -1.9140625 C20.38175781 -1.87925781 20.38175781 -1.87925781 21.671875 -1.84375 C21.671875 -1.18375 21.671875 -0.52375 21.671875 0.15625 C22.47431641 -0.32908203 22.47431641 -0.32908203 23.29296875 -0.82421875 C26.23270558 -2.08410596 28.54290797 -2.14438581 31.734375 -2.15625 C32.77722656 -2.17300781 33.82007813 -2.18976563 34.89453125 -2.20703125 C37.671875 -1.84375 37.671875 -1.84375 39.5 -0.6796875 C41.10514772 1.83504393 41.18514922 3.88191182 41.359375 6.84375 C41.42511719 7.83761719 41.49085938 8.83148438 41.55859375 9.85546875 C41.61466797 10.99435547 41.61466797 10.99435547 41.671875 12.15625 C42.45949219 12.0840625 43.24710937 12.011875 44.05859375 11.9375 C67.81903585 9.91294162 67.81903585 9.91294162 73.671875 14.15625 C75.35207612 15.8092714 77.02041546 17.47451371 78.671875 19.15625 C78.70925781 17.89167969 78.74664062 16.62710938 78.78515625 15.32421875 C78.85081333 13.6640327 78.91726076 12.00387778 78.984375 10.34375 C79.00693359 9.51037109 79.02949219 8.67699219 79.05273438 7.81835938 C79.1059082 6.61469727 79.1059082 6.61469727 79.16015625 5.38671875 C79.19943237 4.27913208 79.19943237 4.27913208 79.23950195 3.14916992 C79.78619697 0.62931029 80.64295068 -0.28792997 82.671875 -1.84375 C85.484375 -2.2421875 85.484375 -2.2421875 88.671875 -2.21875 C89.72375 -2.22648438 90.775625 -2.23421875 91.859375 -2.2421875 C94.671875 -1.84375 94.671875 -1.84375 96.53515625 -0.64453125 C98.07341526 1.79236704 97.97071941 3.48591023 97.859375 6.34375 C97.81876953 7.69533203 97.81876953 7.69533203 97.77734375 9.07421875 C97.74253906 9.76128906 97.70773437 10.44835937 97.671875 11.15625 C98.86683594 11.08664063 98.86683594 11.08664063 100.0859375 11.015625 C106.50420478 10.79699789 110.67314881 10.65739643 115.671875 15.15625 C117.04074451 16.45307374 118.3888041 17.77448134 119.671875 19.15625 C122.42063908 17.99331135 124.53848242 16.50895547 126.796875 14.59375 C132.49366091 9.76386629 139.44554786 10.43670924 146.62255859 10.86474609 C151.21514765 11.51801645 154.33794012 14.13536065 157.671875 17.15625 C158.661875 17.81625 159.651875 18.47625 160.671875 19.15625 C161.21457031 18.66253906 161.75726563 18.16882813 162.31640625 17.66015625 C163.38955078 16.69916016 163.38955078 16.69916016 164.484375 15.71875 C165.19207031 15.08066406 165.89976562 14.44257813 166.62890625 13.78515625 C170.93080448 10.35515326 175.74693635 10.90304176 180.984375 10.84375 C181.82677734 10.81474609 182.66917969 10.78574219 183.53710938 10.75585938 C189.11543514 10.69916021 192.23857375 11.45152229 196.671875 15.15625 C197.661875 16.14625 197.661875 16.14625 198.671875 17.15625 C199.105 16.351875 199.538125 15.5475 199.984375 14.71875 C204.09550187 10.79883833 208.17820862 11.26056012 213.671875 11.15625 C214.73148437 11.10597656 215.79109375 11.05570313 216.8828125 11.00390625 C222.56157494 10.8286358 225.87547582 10.8423742 230.671875 14.15625 C231.36667969 13.66511719 232.06148438 13.17398438 232.77734375 12.66796875 C236.14727263 10.90796541 238.21497884 10.84448419 241.984375 10.96875 C243.05300781 10.99582031 244.12164062 11.02289063 245.22265625 11.05078125 C246.03089844 11.08558594 246.83914063 11.12039062 247.671875 11.15625 C247.63707031 10.46917969 247.60226562 9.78210938 247.56640625 9.07421875 C247.53933594 8.17316406 247.51226562 7.27210938 247.484375 6.34375 C247.44957031 5.45042969 247.41476562 4.55710938 247.37890625 3.63671875 C247.671875 1.15625 247.671875 1.15625 248.80859375 -0.64453125 C251.46860972 -2.35653314 253.53296418 -2.24183023 256.671875 -2.21875 C257.72375 -2.22648438 258.775625 -2.23421875 259.859375 -2.2421875 C262.671875 -1.84375 262.671875 -1.84375 264.32339478 -0.66418457 C266.18601917 1.85033939 266.05260483 3.56841846 266.06005859 6.68164062 C266.06951508 7.81291382 266.07897156 8.94418701 266.0887146 10.10974121 C266.07960556 11.94260681 266.07960556 11.94260681 266.0703125 13.8125 C266.07318268 15.0663147 266.07605286 16.32012939 266.07901001 17.61193848 C266.08105327 20.2652075 266.07700968 22.91764971 266.06298828 25.57080078 C266.04589586 28.97066634 266.05573817 32.36982146 266.07370567 35.76966095 C266.08715589 39.01313278 266.07773734 42.2565189 266.0703125 45.5 C266.07638519 46.7219104 266.08245789 47.9438208 266.0887146 49.20275879 C266.07925812 50.33403198 266.06980164 51.46530518 266.06005859 52.63085938 C266.05767181 53.6277478 266.05528503 54.62463623 266.05282593 55.6517334 C265.671875 58.15625 265.671875 58.15625 264.29922485 59.96960449 C260.58243767 62.67984458 255.10048969 61.98150196 250.671875 62.15625 C249.47691406 62.23230469 248.28195312 62.30835938 247.05078125 62.38671875 C240.54286814 62.64591443 235.59983036 62.6771198 230.28515625 58.6484375 C225.07060295 53.82529135 221.83372432 49.46121321 221.4765625 42.16796875 C221.48972722 40.72643208 221.51338849 39.28495781 221.546875 37.84375 C221.55589844 37.10318359 221.56492187 36.36261719 221.57421875 35.59960938 C221.59763287 33.78501533 221.63349885 31.97058929 221.671875 30.15625 C220.681875 30.15625 219.691875 30.15625 218.671875 30.15625 C218.65729248 30.98874268 218.64270996 31.82123535 218.62768555 32.67895508 C218.5665887 35.77114653 218.49242944 38.86267082 218.40942383 41.9543457 C218.35986181 43.9491563 218.32536367 45.94432257 218.29101562 47.93945312 C218.25556641 49.19306641 218.22011719 50.44667969 218.18359375 51.73828125 C218.15740967 52.89561768 218.13122559 54.0529541 218.10424805 55.24536133 C217.671875 58.15625 217.671875 58.15625 216.55029297 60.04125977 C213.71909312 61.72180171 211.37405053 61.47487539 208.10546875 61.4140625 C206.1709082 61.39279297 206.1709082 61.39279297 204.19726562 61.37109375 C202.83461795 61.34195146 201.47198748 61.31199414 200.109375 61.28125 C197.44143466 61.23511482 194.7736077 61.19876566 192.10546875 61.1640625 C190.92009521 61.13973145 189.73472168 61.11540039 188.51342773 61.09033203 C185.72300487 60.95303919 185.72300487 60.95303919 183.671875 62.15625 C181.25937808 62.33228147 178.84036605 62.42369968 176.421875 62.46875 C175.11734375 62.50613281 173.8128125 62.54351562 172.46875 62.58203125 C166.94719563 61.9628446 163.3327375 59.223875 159.671875 55.15625 C157.51361863 56.12374423 155.8818141 56.93718311 154.234375 58.65625 C149.85110778 62.86418653 144.08235603 62.58833147 138.34643555 62.59667969 C131.00981958 62.39914505 127.33944873 59.6237557 122.171875 54.84375 C121.676875 54.286875 121.181875 53.73 120.671875 53.15625 C120.14078125 53.63835937 119.6096875 54.12046875 119.0625 54.6171875 C118.35609375 55.24882812 117.6496875 55.88046875 116.921875 56.53125 C116.22578125 57.15773438 115.5296875 57.78421875 114.8125 58.4296875 C109.03592268 63.08889767 103.83768372 62.41593956 96.671875 62.15625 C95.42019531 62.115 94.16851562 62.07375 92.87890625 62.03125 C83.20437251 61.55002967 83.20437251 61.55002967 80.8125 59.78125 C79.31843369 57.65271717 79.01669047 55.70788445 78.671875 53.15625 C77.8984375 54.27 77.8984375 54.27 77.109375 55.40625 C73.43858715 59.54765168 70.29048862 61.93391488 64.7734375 62.40234375 C62.06062084 62.40583066 59.37852314 62.33245133 56.671875 62.15625 C56.72408203 63.18685547 56.72408203 63.18685547 56.77734375 64.23828125 C56.80441406 65.13933594 56.83148438 66.04039062 56.859375 66.96875 C56.91158203 68.30873047 56.91158203 68.30873047 56.96484375 69.67578125 C56.671875 72.15625 56.671875 72.15625 55.53515625 73.95703125 C52.87514028 75.66903314 50.81078582 75.55433023 47.671875 75.53125 C46.62 75.53898437 45.568125 75.54671875 44.484375 75.5546875 C41.671875 75.15625 41.671875 75.15625 39.83984375 73.98828125 C38.23805835 71.47578174 38.15838123 69.42685594 37.984375 66.46875 C37.91863281 65.47488281 37.85289062 64.48101562 37.78515625 63.45703125 C37.72908203 62.31814453 37.72908203 62.31814453 37.671875 61.15625 C36.85203125 61.15625 36.0321875 61.15625 35.1875 61.15625 C30.68229167 61.15625 26.17708333 61.15625 21.671875 61.15625 C20.23134766 61.20845703 20.23134766 61.20845703 18.76171875 61.26171875 C17.72144531 61.28878906 16.68117187 61.31585938 15.609375 61.34375 C14.56652344 61.37855469 13.52367187 61.41335938 12.44921875 61.44921875 C9.671875 61.15625 9.671875 61.15625 7.84375 59.8125 C6.32648068 57.66809269 6.02024014 55.734152 5.671875 53.15625 C4.7128125 54.27 4.7128125 54.27 3.734375 55.40625 C-2.92819685 61.84857154 -10.23144891 62.75022308 -19.15698242 62.62426758 C-28.44501523 62.2319895 -32.95396844 58.93048784 -39.46875 52.64453125 C-44.92418444 45.34387633 -45.94724044 38.55149196 -45.765625 29.59375 C-45.77271484 28.60439453 -45.77980469 27.61503906 -45.78710938 26.59570312 C-45.70705073 17.31505895 -43.63047539 10.80507948 -37.23046875 3.91796875 C-27.96124533 -4.66605541 -11.06059328 -6.00187232 0 0 Z " transform="translate(190.328125,215.84375)" style="fill: #040607;"/><path d="M0 0 C1.06483109 -0.00960754 2.12966217 -0.01921509 3.22676086 -0.02911377 C4.3819371 -0.03336365 5.53711334 -0.03761353 6.72729492 -0.04199219 C7.91119308 -0.04769226 9.09509125 -0.05339233 10.31486511 -0.05926514 C12.82415877 -0.0687254 15.3334649 -0.07525318 17.84277344 -0.07910156 C21.68145459 -0.08880071 25.51959905 -0.11981269 29.3581543 -0.15136719 C31.79369799 -0.15789768 34.22924551 -0.16314797 36.66479492 -0.16699219 C37.81389847 -0.17933899 38.96300201 -0.19168579 40.14692688 -0.20440674 C41.22121445 -0.20140564 42.29550201 -0.19840454 43.40234375 -0.1953125 C44.34451248 -0.19895813 45.28668121 -0.20260376 46.25740051 -0.20635986 C50.65341617 0.40606901 53.22524233 2.41666465 56.14526367 5.66113281 C57.89526367 8.16113281 57.89526367 8.16113281 58.89526367 11.16113281 C60.07499756 11.17515137 60.07499756 11.17515137 61.27856445 11.18945312 C64.85975605 11.24330563 68.4396625 11.32692645 72.02026367 11.41113281 C73.87651367 11.43240234 73.87651367 11.43240234 75.77026367 11.45410156 C87.39464037 11.76658481 87.39464037 11.76658481 91.89526367 16.16113281 C94.69730246 20.04384996 95.2725137 22.73444729 95.28294373 27.49253845 C95.29284836 28.76969223 95.30275299 30.04684601 95.31295776 31.36270142 C95.30871999 32.77069188 95.30416215 34.17868142 95.29931641 35.58666992 C95.30502107 37.07519544 95.31198571 38.56371658 95.32011414 40.05223083 C95.33805033 44.08946208 95.33687632 48.12647603 95.33117175 52.16373515 C95.32808051 55.53602683 95.33417164 58.90827673 95.3402105 62.28056246 C95.35425567 70.23712584 95.35269456 78.19358185 95.34130859 86.15014648 C95.32982748 94.35441649 95.34390282 102.5583596 95.37070507 110.76258653 C95.39286715 117.8107292 95.39949831 124.8587693 95.39362866 131.90694433 C95.39025906 136.11464202 95.39267421 140.32213017 95.40987968 144.52979851 C95.42535493 148.48701143 95.42138724 152.44374038 95.40257454 156.40093422 C95.3988902 157.85133141 95.4019927 159.3017645 95.41246033 160.7521286 C95.42568031 162.73563002 95.4117084 164.7192566 95.39646912 166.70274353 C95.39625983 167.81161895 95.39605055 168.92049437 95.39583492 170.06297207 C94.60285006 174.97095381 92.39591309 178.00929184 88.48403072 181.01190281 C85.59763802 182.29325761 83.62346803 182.54059993 80.47499084 182.54881287 C79.39977676 182.5587175 78.32456268 182.56862213 77.21676636 182.5788269 C76.04727448 182.57432526 74.87778259 182.56982361 73.67285156 182.56518555 C72.43330215 182.5720488 71.19375275 182.57891205 69.91664124 182.58598328 C66.52389502 182.60113555 63.13169883 182.60274893 59.73895955 182.59704089 C56.90349581 182.59394703 54.06808163 182.60004369 51.23262495 182.60607964 C44.54175997 182.62011909 37.8510227 182.61856856 31.16015625 182.60717773 C24.2646206 182.59569766 17.36947394 182.6097713 10.47398955 182.63657421 C4.5468523 182.6587479 -1.380163 182.66536484 -7.30733877 182.6594978 C-10.84435534 182.65613088 -14.3811226 182.65852525 -17.91810417 182.67574883 C-21.8632005 182.69412188 -25.80782031 182.68001358 -29.75292969 182.6628418 C-31.50413116 182.67734375 -31.50413116 182.67734375 -33.29071045 182.69213867 C-39.34239992 182.63693341 -43.48827101 182.52079571 -48.10473633 178.16113281 C-50.91244226 174.28311903 -51.48199053 171.58591707 -51.49241638 166.82972717 C-51.50232101 165.55257339 -51.51222565 164.27541962 -51.52243042 162.95956421 C-51.51819264 161.55157374 -51.51363481 160.14358421 -51.50878906 158.7355957 C-51.51449373 157.24707019 -51.52145836 155.75854904 -51.52958679 154.27003479 C-51.54752298 150.23280354 -51.54634898 146.19578959 -51.54064441 142.15853047 C-51.53755316 138.7862388 -51.5436443 135.4139889 -51.54968315 132.04170316 C-51.56372832 124.08513978 -51.56216722 116.12868377 -51.55078125 108.17211914 C-51.53930014 99.96784913 -51.55337547 91.76390602 -51.58017772 83.55967909 C-51.60233981 76.51153642 -51.60897096 69.46349633 -51.60310131 62.41532129 C-51.59973171 58.2076236 -51.60214687 54.00013546 -51.61935234 49.79246712 C-51.63482759 45.8352542 -51.6308599 41.87852524 -51.6120472 37.92133141 C-51.60836285 36.47093421 -51.61146536 35.02050112 -51.62193298 33.57013702 C-51.63515297 31.58663561 -51.62118106 29.60300903 -51.60594177 27.61952209 C-51.60573249 26.51064668 -51.6055232 25.40177126 -51.60530758 24.25929356 C-50.83237686 19.47543193 -48.52587796 16.29035464 -44.76806641 13.30444336 C-41.49479647 11.8992987 -39.04888172 11.81943219 -35.49145508 11.86816406 C-34.24428711 11.87783203 -32.99711914 11.8875 -31.7121582 11.89746094 C-30.41858398 11.92259766 -29.12500977 11.94773437 -27.79223633 11.97363281 C-25.82287109 11.99393555 -25.82287109 11.99393555 -23.8137207 12.01464844 C-20.57697556 12.04995838 -17.34106528 12.09928001 -14.10473633 12.16113281 C-13.96737061 11.20505127 -13.83000488 10.24896973 -13.68847656 9.26391602 C-12.81874104 4.64096798 -10.8428686 3.83122729 -7.10473633 1.16113281 C-4.58334671 -0.099562 -2.82219317 0.0205047 0 0 Z M-40.10473633 23.16113281 C-40.12785396 42.44066352 -40.14571485 61.72019033 -40.1565485 80.99973202 C-40.16171174 89.95091663 -40.16875496 98.90209249 -40.18017578 107.85327148 C-40.19012177 115.6522367 -40.19658955 123.45119557 -40.19882482 131.25016695 C-40.20013207 135.38225467 -40.20321883 139.51432425 -40.21046638 143.64640617 C-40.21722527 147.53114807 -40.21935356 151.41586427 -40.21784401 155.3006115 C-40.2181204 156.7305312 -40.22012631 158.16045172 -40.2239418 159.59036636 C-40.22887692 161.53431333 -40.22713438 163.47827391 -40.22499084 165.42222595 C-40.22591264 166.51270705 -40.22683443 167.60318815 -40.22778416 168.72671413 C-40.38010318 171.10926932 -40.38010318 171.10926932 -39.10473633 172.16113281 C-37.52550904 172.25924416 -35.941891 172.28745173 -34.35961914 172.28811646 C-33.33316284 172.29093628 -32.30670654 172.2937561 -31.24914551 172.29666138 C-30.11352173 172.29463715 -28.97789795 172.29261292 -27.80786133 172.29052734 C-26.61938599 172.29227966 -25.43091064 172.29403198 -24.2064209 172.2958374 C-20.93790857 172.29949552 -17.66943644 172.29862253 -14.40092468 172.29545832 C-10.9874157 172.29293428 -7.57390948 172.29527238 -4.16040039 172.29684448 C1.57300298 172.29866605 7.3063935 172.2962602 13.03979492 172.29150391 C19.67732143 172.28606131 26.31481722 172.28782397 32.95234299 172.29333031 C38.64150633 172.29786181 44.33066041 172.29851181 50.01982498 172.29589164 C53.42195388 172.29432907 56.82406831 172.29413457 60.22619629 172.29742813 C64.01694855 172.29995291 67.8076409 172.29611652 71.59838867 172.29052734 C72.73401245 172.29255157 73.86963623 172.29457581 75.03967285 172.29666138 C76.06612915 172.29384155 77.09258545 172.29102173 78.15014648 172.28811646 C79.04759583 172.28773943 79.94504517 172.2873624 80.86968994 172.28697395 C82.89133599 172.3856941 82.89133599 172.3856941 83.89526367 171.16113281 C83.99185272 169.25018342 84.01713559 167.33561415 84.01551819 165.42222595 C84.01689285 164.17555649 84.01826752 162.92888702 84.01968384 161.6444397 C84.01614423 160.25018287 84.01250941 158.85592628 84.00878906 157.46166992 C84.0085072 156.0034129 84.00866491 154.54515574 84.00923157 153.0868988 C84.00951957 149.11599796 84.00362244 145.14512706 83.99665761 141.1742332 C83.99042449 137.0288818 83.98982031 132.8835298 83.9886322 128.73817444 C83.98551876 120.88293954 83.97730521 113.02771849 83.96728271 105.1724897 C83.95612196 96.23188882 83.95061122 87.29128729 83.94558728 78.35068119 C83.9351226 59.95415698 83.9173225 41.55764651 83.89526367 23.16113281 C75.31526367 23.16113281 66.73526367 23.16113281 57.89526367 23.16113281 C54.74619247 28.34124122 54.74619247 28.34124122 54.89526367 31.16113281 C51.21874999 32.83902883 48.31339667 33.42311199 44.28222656 33.4675293 C42.63009911 33.49151039 42.63009911 33.49151039 40.94459534 33.51597595 C39.76429245 33.52133865 38.58398956 33.52670135 37.36791992 33.53222656 C36.14624619 33.54125504 34.92457245 33.55028351 33.6658783 33.55958557 C31.08456877 33.57408031 28.50322257 33.58297287 25.921875 33.58666992 C21.97552687 33.59857921 18.0307357 33.64778788 14.0847168 33.69824219 C11.57495879 33.70770511 9.0651912 33.71494077 6.55541992 33.71972656 C4.78800194 33.74902504 4.78800194 33.74902504 2.98487854 33.77891541 C-6.14733576 33.72866681 -6.14733576 33.72866681 -9.77099609 30.9387207 C-12.10473633 28.16113281 -12.10473633 28.16113281 -14.10473633 23.16113281 C-22.68473633 23.16113281 -31.26473633 23.16113281 -40.10473633 23.16113281 Z " transform="translate(278.104736328125,15.8388671875)" style="fill: #070707;"/><path d="M0 0 C27.72 0 55.44 0 84 0 C84 26.73 84 53.46 84 81 C79.59655673 78.06437115 76.66424955 75.87180076 73.125 72.1875 C70.19704579 69.1897287 67.2774454 66.31182295 64.0625 63.625 C60.9139272 60.92787394 58.16379367 58.03207945 55.40234375 54.94140625 C48.18222683 46.96942885 40.57039091 39.38433095 32.96630859 31.78100586 C30.49938744 29.3118869 28.04060591 26.83484838 25.58203125 24.35742188 C18.2795117 17.03051027 11.07049333 9.82995323 2.85351562 3.52026367 C1 2 1 2 0 0 Z " transform="translate(516,0)" style="fill: #43B44E;"/><path d="M0 0 C1.98 0 3.96 0 6 0 C6 16.83 6 33.66 6 51 C4.02 51 2.04 51 0 51 C-0.33 50.01 -0.66 49.02 -1 48 C-1.474375 48.474375 -1.94875 48.94875 -2.4375 49.4375 C-6.20063919 51.73209707 -9.60933327 52.33885277 -14 52 C-18.57520119 50.3998857 -21.96259977 47.69356564 -24.5 43.5625 C-26.98114438 37.77316311 -26.7919371 31.14999798 -26 25 C-23.64726249 19.26950192 -20.59404741 15.7970237 -15 13 C-8.03860805 12.419884 -7.47554162 12.68297225 -1 17 C-0.67 11.39 -0.34 5.78 0 0 Z " transform="translate(444,220)" style="fill: #F7F9F8;"/><path d="M0 0 C1.98 0 3.96 0 6 0 C6.33 5.61 6.66 11.22 7 17 C8.32 16.01 9.64 15.02 11 14 C15.36282698 12.74667879 19.0145865 12.66533127 23.3125 14.125 C28.18005735 17.52097025 30.73575546 21.20554584 32 27 C32.60326243 34.69424191 32.64778593 40.51041732 27.62890625 46.6875 C24.11250249 50.33039311 21.38870179 51.42017659 16.3125 51.5625 C12.19060088 51.47504811 10.1049307 50.72681267 7 48 C6.67 48.99 6.34 49.98 6 51 C4.02 51 2.04 51 0 51 C0 34.17 0 17.34 0 0 Z " transform="translate(276,220)" style="fill: #FAFBFA;"/><path d="M0 0 C4.95717123 5.54731066 6.17026769 11.11818408 5.91015625 18.48046875 C5.29088391 23.81639067 3.67351702 27.6339383 0.3125 31.8125 C-3.86502519 35.11565945 -7.29606359 36.20333793 -12.5625 35.75 C-16.375 34.9375 -16.375 34.9375 -19.375 31.9375 C-19.705 37.5475 -20.035 43.1575 -20.375 48.9375 C-22.355 48.9375 -24.335 48.9375 -26.375 48.9375 C-26.375 32.1075 -26.375 15.2775 -26.375 -2.0625 C-24.725 -2.0625 -23.075 -2.0625 -21.375 -2.0625 C-21.375 -0.7425 -21.375 0.5775 -21.375 1.9375 C-20.6325 1.298125 -19.89 0.65875 -19.125 0 C-13.16179082 -4.47240688 -6.19300981 -3.78461711 0 0 Z " transform="translate(261.375,236.0625)" style="fill: #FAFAFB;"/><path d="M0 0 C4.73921566 3.98544644 7.1827075 7.32824039 7.9453125 13.59765625 C8.09421741 20.91151503 7.68068867 26.06214805 2.57421875 31.546875 C-1.98620099 35.58906523 -6.43637451 36.800234 -12.42578125 36.546875 C-16.77865919 35.67937022 -19.65251325 34.320143 -22.80078125 31.171875 C-27.17929456 24.09889195 -27.65511457 16.43527831 -25.9609375 8.3203125 C-24.2409157 3.69966222 -21.35315333 1.27199032 -17.42578125 -1.453125 C-11.79632215 -3.36501677 -5.11512089 -3.06413039 0 0 Z " transform="translate(340.42578125,235.453125)" style="fill: #F5F7F7;"/><path d="M0 0 C3.21377719 3.29716015 3.39753122 5.89220146 3.4765625 10.41015625 C3.5075 11.64701172 3.5384375 12.88386719 3.5703125 14.15820312 C3.58835937 15.44662109 3.60640625 16.73503906 3.625 18.0625 C3.6759419 20.61596289 3.73045784 23.16935774 3.7890625 25.72265625 C3.80662598 26.85453369 3.82418945 27.98641113 3.84228516 29.15258789 C3.87884598 32.07533419 3.87884598 32.07533419 5 35 C3.02 35 1.04 35 -1 35 C-1.33 33.68 -1.66 32.36 -2 31 C-3.134375 31.639375 -4.26875 32.27875 -5.4375 32.9375 C-10.44389859 35.41416361 -15.46203768 36.83487699 -21.01953125 35.5234375 C-24.68666017 34.1183481 -27.31248359 32.57356417 -29 29 C-29.64636585 24.63703053 -29.33965628 22.58873755 -27.125 18.75 C-21.17069997 12.4779143 -11.08719932 12.44587221 -3 12 C-4.09786425 6.59212615 -4.09786425 6.59212615 -8 3 C-11.04453491 2.51780847 -13.95291087 2.53715102 -17 3 C-19.50160818 4.87620613 -20.61945652 6.23891303 -22 9 C-23.98 9 -25.96 9 -28 9 C-27.70359143 5.54190006 -27.03653935 4.04489121 -24.8125 1.3125 C-17.4380645 -4.75092475 -8.07225606 -4.52046339 0 0 Z " transform="translate(383,236)" style="fill: #F5F7F6;"/><path d="M0 0 C4.59530596 3.25033836 7.98267765 6.78863542 10.5625 11.8125 C10.5625 12.4725 10.5625 13.1325 10.5625 13.8125 C8.2525 14.1425 5.9425 14.4725 3.5625 14.8125 C2.985 13.69875 2.4075 12.585 1.8125 11.4375 C0.19730457 8.32248024 -1.10657308 7.00462121 -4.4375 5.8125 C-10.00625991 5.14548976 -14.89275508 5.08077872 -20 7.5 C-24.28595922 11.56616644 -26.16315419 15.46231561 -26.640625 21.29296875 C-26.757566 28.04631165 -26.68170488 35.10736984 -22.0078125 40.4453125 C-17.46784901 44.39801703 -13.52229038 45.16366835 -7.72265625 45.09765625 C-3.28322383 44.54367579 -0.53316661 42.02151143 2.375 38.8125 C3.57268946 36.7953388 4.15177821 35.11254203 4.5625 32.8125 C6.8725 33.1425 9.1825 33.4725 11.5625 33.8125 C9.9284607 41.31886805 6.92982814 45.51058156 0.5625 49.8125 C-4.47345193 52.33047596 -9.91146161 52.5996156 -15.4375 51.8125 C-22.74290218 49.34202292 -27.8701382 45.86373217 -31.3984375 38.921875 C-34.85676667 30.35537155 -34.96659241 19.37820152 -31.5390625 10.77734375 C-28.42507033 5.22295346 -23.84544052 1.16031369 -17.74609375 -0.75390625 C-11.73108629 -1.88362846 -5.80433433 -2.00513368 0 0 Z " transform="translate(184.4375,220.1875)" style="fill: #F4F5F7;"/><path d="M0 0 C0.99773437 -0.00315216 1.99546875 -0.00630432 3.0234375 -0.009552 C4.65152344 -0.00651566 4.65152344 -0.00651566 6.3125 -0.00341797 C7.41851562 -0.00437469 8.52453125 -0.00533142 9.6640625 -0.00631714 C12.00781308 -0.00699913 14.35156553 -0.00514351 16.6953125 -0.00097656 C20.29691788 0.00437139 23.89839853 -0.00092093 27.5 -0.00732422 C29.77083361 -0.00666344 32.04166714 -0.00538229 34.3125 -0.00341797 C35.94058594 -0.00645432 35.94058594 -0.00645432 37.6015625 -0.009552 C38.59929687 -0.00639984 39.59703125 -0.00324768 40.625 0 C41.50800781 0.00079559 42.39101563 0.00159119 43.30078125 0.00241089 C45.3125 0.12939453 45.3125 0.12939453 46.3125 1.12939453 C46.41073937 2.79368505 46.44223631 4.46221384 46.4375 6.12939453 C46.44136719 7.49064453 46.44136719 7.49064453 46.4453125 8.87939453 C46.3125 11.12939453 46.3125 11.12939453 45.3125 12.12939453 C43.75250952 12.2278642 42.18809456 12.25738071 40.625 12.25878906 C39.62726563 12.26194122 38.62953125 12.26509338 37.6015625 12.26834106 C36.51617187 12.26631683 35.43078125 12.2642926 34.3125 12.26220703 C33.20648438 12.26316376 32.10046875 12.26412048 30.9609375 12.2651062 C28.61718692 12.2657882 26.27343447 12.26393257 23.9296875 12.25976562 C20.32808212 12.25441767 16.72660147 12.25971 13.125 12.26611328 C10.85416639 12.2654525 8.58333286 12.26417135 6.3125 12.26220703 C5.22710937 12.26423126 4.14171875 12.26625549 3.0234375 12.26834106 C2.02570313 12.2651889 1.02796875 12.26203674 0 12.25878906 C-0.88300781 12.25799347 -1.76601563 12.25719788 -2.67578125 12.25637817 C-4.6875 12.12939453 -4.6875 12.12939453 -5.6875 11.12939453 C-5.78573937 9.46510402 -5.81723631 7.79657522 -5.8125 6.12939453 C-5.81507813 5.22189453 -5.81765625 4.31439453 -5.8203125 3.37939453 C-5.57873368 -0.71323493 -3.6123384 0.00325473 0 0 Z " transform="translate(279.6875,26.87060546875)" style="fill: #FCFCFC;"/><path d="M0 0 C0.93106567 -0.00953201 1.86213135 -0.01906403 2.82141113 -0.02888489 C3.82458374 -0.02797348 4.82775635 -0.02706207 5.86132812 -0.02612305 C6.89318237 -0.03040817 7.92503662 -0.0346933 8.98815918 -0.03910828 C11.17032131 -0.04485265 13.35250259 -0.04535105 15.53466797 -0.04101562 C18.87956249 -0.0378541 22.22357415 -0.06131945 25.56835938 -0.08666992 C27.68684784 -0.08894268 29.80533869 -0.08964652 31.92382812 -0.08862305 C33.42858704 -0.10243767 33.42858704 -0.10243767 34.96374512 -0.11653137 C35.89481079 -0.11030258 36.82587646 -0.10407379 37.78515625 -0.09765625 C38.60439575 -0.09828568 39.42363525 -0.0989151 40.2677002 -0.0995636 C42.93115232 0.36950893 43.84302918 1.0757934 45.39257812 3.2746582 C45.20507812 6.8996582 45.20507812 6.8996582 44.39257812 10.2746582 C41.99718092 11.47235681 40.48151685 11.41402999 37.80688477 11.43579102 C36.85572281 11.44539856 35.90456085 11.4550061 34.92457581 11.46490479 C33.89436813 11.46915466 32.86416046 11.47340454 31.80273438 11.4777832 C30.21953651 11.48633331 30.21953651 11.48633331 28.60435486 11.49505615 C26.36914068 11.50451309 24.13391251 11.51104288 21.89868164 11.51489258 C18.4725731 11.52460859 15.04706166 11.55563014 11.62109375 11.5871582 C9.45247753 11.59368701 7.28385701 11.59893796 5.11523438 11.6027832 C3.57295921 11.62130341 3.57295921 11.62130341 1.99952698 11.64019775 C1.04521286 11.63719666 0.09089874 11.63419556 -0.89233398 11.63110352 C-2.15236488 11.63657196 -2.15236488 11.63657196 -3.43785095 11.64215088 C-6.12154258 11.18757389 -7.03182609 10.47080331 -8.60742188 8.2746582 C-8.48242188 5.2121582 -8.48242188 5.2121582 -7.60742188 2.2746582 C-4.43385564 0.15894738 -3.63526571 0.02044468 0 0 Z " transform="translate(296.607421875,146.725341796875)" style="fill: #040404;"/><path d="M0 0 C1.4616156 -0.00945648 1.4616156 -0.00945648 2.95275879 -0.019104 C4.53558655 -0.01303131 4.53558655 -0.01303131 6.15039062 -0.00683594 C7.23042358 -0.00874939 8.31045654 -0.01066284 9.42321777 -0.01263428 C11.70971916 -0.01399701 13.99622826 -0.01029445 16.28271484 -0.00195312 C19.79216817 0.00874495 23.30110956 -0.00184566 26.81054688 -0.01464844 C29.02799593 -0.01332686 31.24544466 -0.0107645 33.46289062 -0.00683594 C34.51810913 -0.0108844 35.57332764 -0.01493286 36.66052246 -0.019104 C37.63493286 -0.01279968 38.60934326 -0.00649536 39.61328125 0 C40.47328735 0.00159119 41.33329346 0.00318237 42.21936035 0.00482178 C44.30664062 0.25878906 44.30664062 0.25878906 46.30664062 2.25878906 C46.86468759 7.5044305 46.86468759 7.5044305 45.07408142 9.92494202 C42.81558672 11.62937618 41.52815121 11.64422074 38.71508789 11.6628418 C37.78724991 11.67552597 36.85941193 11.68821014 35.90345764 11.70127869 C34.40340431 11.69687523 34.40340431 11.69687523 32.87304688 11.69238281 C31.32882301 11.70024559 31.32882301 11.70024559 29.75340271 11.70826721 C27.57543846 11.7146928 25.39743953 11.71334351 23.21948242 11.70483398 C19.88527637 11.69633022 16.55278643 11.72506914 13.21875 11.75683594 C11.10351614 11.75844815 8.98827924 11.75787003 6.87304688 11.75488281 C5.87503555 11.76611679 4.87702423 11.77735077 3.84877014 11.78892517 C-3.03482557 11.71956388 -3.03482557 11.71956388 -6.36157227 9.3918457 C-7.69335938 7.25878906 -7.69335938 7.25878906 -7.56835938 4.63378906 C-5.9830225 0.33073184 -4.28388254 0.00792606 0 0 Z " transform="translate(295.693359375,113.7412109375)" style="fill: #0B0B0B;"/><path d="M0 0 C0.95116196 -0.00953201 1.90232391 -0.01906403 2.88230896 -0.02888489 C4.42762047 -0.02751778 4.42762047 -0.02751778 6.00415039 -0.02612305 C7.05961563 -0.03040817 8.11508087 -0.0346933 9.20252991 -0.03910828 C11.43774701 -0.04485885 13.67298282 -0.04534651 15.90820312 -0.04101562 C19.3343897 -0.03785785 22.75971145 -0.06129885 26.18579102 -0.08666992 C28.35440971 -0.08894299 30.52303074 -0.08964638 32.69165039 -0.08862305 C33.71983383 -0.09783279 34.74801727 -0.10704254 35.80735779 -0.11653137 C37.23882896 -0.10718819 37.23882896 -0.10718819 38.69921875 -0.09765625 C39.53923935 -0.09828568 40.37925995 -0.0989151 41.24473572 -0.0995636 C43.41430664 0.2746582 43.41430664 0.2746582 45.22071838 1.57136536 C46.41430664 3.2746582 46.41430664 3.2746582 46.22680664 6.8996582 C45.95868164 8.0134082 45.69055664 9.1271582 45.41430664 10.2746582 C43.02259718 11.47051293 41.49920036 11.42033386 38.82861328 11.45166016 C37.87745132 11.46449539 36.92628937 11.47733063 35.94630432 11.49055481 C34.91609665 11.49794174 33.88588898 11.50532867 32.82446289 11.51293945 C31.76899765 11.5210112 30.71353241 11.52908295 29.62608337 11.53739929 C27.39087571 11.55124397 25.15564687 11.5619644 22.92041016 11.56982422 C19.4941438 11.58707093 16.06883373 11.63095824 12.64282227 11.67504883 C10.47420959 11.68517247 8.30558869 11.6936896 6.13696289 11.70043945 C4.59468773 11.72670158 4.59468773 11.72670158 3.02125549 11.75349426 C1.58978432 11.74910591 1.58978432 11.74910591 0.12939453 11.74462891 C-0.71062607 11.75049515 -1.55064667 11.75636139 -2.41612244 11.7624054 C-4.58569336 11.2746582 -4.58569336 11.2746582 -6.3921051 9.40934753 C-7.58569336 7.2746582 -7.58569336 7.2746582 -7.39819336 4.6496582 C-5.93408435 0.36995494 -4.20843133 0.02310452 0 0 Z " transform="translate(295.585693359375,79.725341796875)" style="fill: #030303;"/><path d="M0 0 C2.56055029 1.17039125 3.2670521 2.56556146 4.70703125 4.95703125 C6.01843766 7.20874843 6.01843766 7.20874843 7.95703125 8.89453125 C12.03662599 9.60243008 15.85817403 9.37206801 19.95703125 8.89453125 C19.95703125 11.53453125 19.95703125 14.17453125 19.95703125 16.89453125 C19.19777344 16.83652344 18.43851563 16.77851563 17.65625 16.71875 C14.69282569 16.5842236 11.90428265 16.54522738 8.95703125 16.89453125 C6.78682833 18.98374881 6.78682833 18.98374881 5.95703125 21.89453125 C3.17925347 26.78342014 3.17925347 26.78342014 0.95703125 27.89453125 C-6.07835538 28.58653649 -6.07835538 28.58653649 -9.91796875 25.83203125 C-13.15514497 21.35711119 -14.17303733 17.78052571 -13.79296875 12.26953125 C-12.79948516 7.79885511 -12.00143891 4.9657626 -8.91796875 1.51953125 C-5.74666224 -0.27294634 -3.60684837 -0.60894843 0 0 Z " transform="translate(177.04296875,231.10546875)" style="fill: #3433E6;"/><path d="M0 0 C3.30995267 1.35407155 4.71543374 2.60749481 6.8125 5.5 C8.91191229 11.68774149 9.17603272 17.56082102 6.3125 23.5 C3.90876913 26.09862797 2.2957453 27.69703093 -1 29 C-5.50915387 29 -7.41238868 28.4981922 -10.875 25.5625 C-14.85065539 20.76832732 -14.38435828 16.53108159 -14.359375 10.44140625 C-13.85733666 5.63384348 -12.65388666 4.04490555 -9 1 C-5.93570224 -0.53214888 -3.3834358 -0.22938548 0 0 Z " transform="translate(334,238)" style="fill: #080C0B;"/><path d="M0 0 C3.47681295 2.01329926 5.70512046 4.11536139 7 8 C7.65700555 15.36707866 7.74243337 21.10400176 3 27 C0.0830413 28.84228971 -1.56099923 29.00914585 -5 28.9375 C-8.79218505 27.75244217 -10.47748204 26.02702155 -13 23 C-14.70569046 17.88292863 -15.04733695 11.92943257 -13.2109375 6.79296875 C-9.91119574 0.81061251 -6.70996853 -0.79609796 0 0 Z " transform="translate(254,238)" style="fill: #070B0C;"/><path d="M0 0 C4.12612346 2.77719848 6.88267891 5.08378721 8 10 C8.58489973 15.73201739 8.31293886 20.08771135 5 25 C2.75 27.4375 2.75 27.4375 0 29 C-4.52894469 29.08087401 -6.40426348 28.50508097 -9.875 25.5625 C-13.85065539 20.76832732 -13.38435828 16.53108159 -13.359375 10.44140625 C-12.85733666 5.63384348 -11.65388666 4.04490555 -8 1 C-5.09704195 -0.45147903 -3.22738221 -0.37239025 0 0 Z " transform="translate(437,238)" style="fill: #070B09;"/><path d="M0 0 C3.49278848 2.22268358 5.48030394 4.17386257 7 8 C7.88912078 15.33007715 7.60979208 21.10971012 3 27 C0.38199934 29.16662124 -0.98918901 29 -4.4375 29 C-9.20284548 27.66235916 -10.24949905 26.04485433 -13 22 C-14.7354912 16.7935264 -14.66344383 11.85065911 -12.8125 6.6875 C-9.38507791 1.60546035 -6.30583374 -1.05097229 0 0 Z " transform="translate(295,238)" style="fill: #070B0A;"/><path d="M0 0 C1.98 0 3.96 0 6 0 C6 17.16 6 34.32 6 52 C4.02 52 2.04 52 0 52 C0 34.84 0 17.68 0 0 Z " transform="translate(203,219)" style="fill: #E9EAEF;"/><path d="M0 0 C2.8125 0.375 2.8125 0.375 4.8125 1.375 C4.4825 3.355 4.1525 5.335 3.8125 7.375 C2.1728125 7.2821875 2.1728125 7.2821875 0.5 7.1875 C-3.06432596 7.04147527 -3.06432596 7.04147527 -5.0625 8.6875 C-7.30598494 12.0527274 -7.36436014 15.20949265 -7.50390625 19.13671875 C-7.54580078 20.25498047 -7.58769531 21.37324219 -7.63085938 22.52539062 C-7.67017578 23.69263672 -7.70949219 24.85988281 -7.75 26.0625 C-7.81477539 27.83077148 -7.81477539 27.83077148 -7.88085938 29.63476562 C-7.98701176 32.54805883 -8.08906242 35.46143757 -8.1875 38.375 C-10.1675 38.375 -12.1475 38.375 -14.1875 38.375 C-14.1875 26.165 -14.1875 13.955 -14.1875 1.375 C-12.5375 1.375 -10.8875 1.375 -9.1875 1.375 C-8.8575 2.695 -8.5275 4.015 -8.1875 5.375 C-7.48625 4.55 -6.785 3.725 -6.0625 2.875 C-3.1875 0.375 -3.1875 0.375 0 0 Z " transform="translate(410.1875,232.625)" style="fill: #FAFBFB;"/><path d="M0 0 C1.98 0 3.96 0 6 0 C6 12.21 6 24.42 6 37 C4.02 37 2.04 37 0 37 C0 24.79 0 12.58 0 0 Z " transform="translate(219,234)" style="fill: #FFFFFF;"/><path d="M0 0 C-0.19206153 8.17134516 -0.19206153 8.17134516 -3.4375 11.5 C-7.62525538 13.951369 -10.07065538 14.3399548 -15 14 C-17.4375 12.875 -17.4375 12.875 -19 11 C-19.5 8 -19.5 8 -19 5 C-16.21301923 2.38997039 -13.78192013 1.4830272 -10.0625 0.8125 C-8.81146484 0.57466797 -8.81146484 0.57466797 -7.53515625 0.33203125 C-4.99184871 -0.00106758 -2.56182553 -0.05957734 0 0 Z " transform="translate(380,253)" style="fill: #080C0A;"/><path d="M0 0 C2.75 1.6875 2.75 1.6875 4 4 C3.83849795 7.39154295 3.41703243 8.58296757 1 11 C-1.71484375 11.30078125 -1.71484375 11.30078125 -4.9375 11.3125 C-5.99839844 11.32925781 -7.05929687 11.34601563 -8.15234375 11.36328125 C-11 11 -11 11 -12.85546875 9.63671875 C-14.49425372 7.29320031 -14.41904291 5.79361939 -14 3 C-10.62191895 -1.64904223 -5.18238552 -0.69718191 0 0 Z " transform="translate(272,147)" style="fill: #080808;"/><path d="M0 0 C2.75 1.6875 2.75 1.6875 4 4 C3.9375 6.625 3.9375 6.625 3 9 C-0.33397306 11.22264871 -1.59514891 11.29675463 -5.5 11.3125 C-6.4590625 11.32925781 -7.418125 11.34601563 -8.40625 11.36328125 C-11 11 -11 11 -12.8203125 9.63671875 C-14.50519687 7.29908117 -14.42194806 5.81298705 -14 3 C-10.62191895 -1.64904223 -5.18238552 -0.69718191 0 0 Z " transform="translate(272,80)" style="fill: #070707;"/><path d="M0 0 C1.76150391 -0.02126953 1.76150391 -0.02126953 3.55859375 -0.04296875 C6.5625 0.1875 6.5625 0.1875 8.5625 2.1875 C9.11727054 7.40234303 9.11727054 7.40234303 7.38671875 9.8515625 C4.88993841 11.68003975 3.13259036 11.62087353 0.0625 11.625 C-1.37609375 11.65400391 -1.37609375 11.65400391 -2.84375 11.68359375 C-5.4375 11.1875 -5.4375 11.1875 -7.296875 9.359375 C-8.88893129 6.32792534 -8.30055663 4.42396236 -7.4375 1.1875 C-5.56506019 -0.68493981 -2.50090482 0.01369608 0 0 Z " transform="translate(266.4375,113.8125)" style="fill: #0A0A0A;"/><path d="M0 0 C4.875 0.875 4.875 0.875 6 2 C6.09858603 3.4555937 6.12972143 4.91607919 6.125 6.375 C6.12757813 7.16648438 6.13015625 7.95796875 6.1328125 8.7734375 C6 11 6 11 5 14 C3.35 14.33 1.7 14.66 0 15 C-2.68609622 11.19469703 -3.59490938 8.66012347 -3 4 C-1.5 1.625 -1.5 1.625 0 0 Z " transform="translate(329,245)" style="fill: #2FA27F;"/><path d="M0 0 C2.5 0.3125 2.5 0.3125 5 1 C6.58493084 4.16986168 6.2940042 7.54032261 6 11 C5 13.5 5 13.5 4 15 C2.125 14.6875 2.125 14.6875 0 14 C-2.28259205 10.57611192 -2.16215534 9.79805495 -1.6875 5.875 C-1.58824219 4.98554688 -1.48898437 4.09609375 -1.38671875 3.1796875 C-1 1 -1 1 0 0 Z " transform="translate(432,245)" style="fill: #38A664;"/><path d="M0 0 C1.32 0 2.64 0 4 0 C5.84398144 3.1063995 6.2039901 5.05281472 5.75 8.625 C5.61851562 9.78902344 5.61851562 9.78902344 5.484375 10.9765625 C5 13 5 13 3 15 C0.9375 14.75 0.9375 14.75 -1 14 C-2.16983345 11.6603331 -2.1661241 10.16608473 -2.1875 7.5625 C-2.20167969 6.78003906 -2.21585938 5.99757812 -2.23046875 5.19140625 C-2 3 -2 3 0 0 Z " transform="translate(249,245)" style="fill: #27988F;"/><path d="M0 0 C1.32 0 2.64 0 4 0 C5.84398144 3.1063995 6.2039901 5.05281472 5.75 8.625 C5.61851562 9.78902344 5.61851562 9.78902344 5.484375 10.9765625 C5 13 5 13 3 15 C0.9375 14.8125 0.9375 14.8125 -1 14 C-1.8814688 11.35559361 -2.16174818 9.71939248 -2.1875 7 C-2.20167969 6.319375 -2.21585937 5.63875 -2.23046875 4.9375 C-2 3 -2 3 0 0 Z " transform="translate(290,245)" style="fill: #2A9984;"/><path d="M0 0 C1.98 0 3.96 0 6 0 C6 2.31 6 4.62 6 7 C4.02 7 2.04 7 0 7 C0 4.69 0 2.38 0 0 Z " transform="translate(219,220)" style="fill: #F0EFF4;"/><path d="M0 0 C4.62 0.66 9.24 1.32 14 2 C11.43922235 4.56077765 9.57117397 4.31451364 6.0703125 4.4609375 C4 4 4 4 0 0 Z " transform="translate(166,255)" style="fill: #238A99;"/></svg>