<svg xmlns="http://www.w3.org/2000/svg" xml:space="preserve" width="160" height="80" stroke-miterlimit="10"><clipPath id="a"><path d="M0 0h158.75v79.375H0Z"/></clipPath><g clip-path="url(#a)" transform="scale(1.00907)"><path fill="#fff" d="M0 0h158.75v79.375H0Z"/><g fill="none" stroke="#f2f2f2" stroke-width="2"><path d="m5.125 13.328-8.25-4.763V-.96l8.25-4.763 8.25 4.763v9.526l-8.25 4.763zm8.25 14.4-8.25-4.763v-9.527l8.25-4.763 8.25 4.763v9.527z"/><path d="m21.625 13.328-8.25-4.763V-.96l8.25-4.763 8.25 4.763v9.526l-8.25 4.763zm8.25 14.4-8.25-4.763v-9.527l8.25-4.763 8.25 4.763v9.527z"/><path d="m38.125 13.328-8.25-4.763V-.96l8.25-4.763 8.25 4.763v9.526l-8.25 4.763zm8.25 14.4-8.25-4.763v-9.527l8.25-4.763 8.25 4.763v9.527z"/><path d="m54.625 13.328-8.25-4.763V-.96l8.25-4.763 8.25 4.763v9.526l-8.25 4.763zm8.25 14.4-8.25-4.763v-9.527l8.25-4.763 8.25 4.763v9.527z"/><path d="m71.125 13.328-8.25-4.763V-.96l8.25-4.763 8.25 4.763v9.526l-8.25 4.763zm8.25 14.4-8.25-4.763v-9.527l8.25-4.763 8.25 4.763v9.527z"/><path d="m87.625 13.328-8.25-4.763V-.96l8.25-4.763 8.25 4.763v9.526l-8.25 4.763zm8.25 14.4-8.25-4.763v-9.527l8.25-4.763 8.25 4.763v9.527z"/><path d="m104.125 13.328-8.25-4.763V-.96l8.25-4.763 8.25 4.763v9.526l-8.25 4.763zm8.25 14.4-8.25-4.763v-9.527l8.25-4.763 8.25 4.763v9.527z"/><path d="m120.625 13.328-8.25-4.763V-.96l8.25-4.763 8.25 4.763v9.526l-8.25 4.763zm8.25 14.4-8.25-4.763v-9.527l8.25-4.763 8.25 4.763v9.527z"/><path d="m137.125 13.328-8.25-4.763V-.96l8.25-4.763 8.25 4.763v9.526l-8.25 4.763zm8.25 14.4-8.25-4.763v-9.527l8.25-4.763 8.25 4.763v9.527z"/><path d="m153.625 13.328-8.25-4.763V-.96l8.25-4.763 8.25 4.763v9.526l-8.25 4.763zM5.125 42.319l-8.25-4.764V28.03l8.25-4.763 8.25 4.763v9.526l-8.25 4.764zm8.25 14.399-8.25-4.763v-9.526l8.25-4.764 8.25 4.764v9.526z"/><path d="m21.625 42.319-8.25-4.764V28.03l8.25-4.763 8.25 4.763v9.526l-8.25 4.764zm8.25 14.399-8.25-4.763v-9.526l8.25-4.764 8.25 4.764v9.526z"/><path d="m38.125 42.319-8.25-4.764V28.03l8.25-4.763 8.25 4.763v9.526l-8.25 4.764zm8.25 14.399-8.25-4.763v-9.526l8.25-4.764 8.25 4.764v9.526z"/><path d="m54.625 42.319-8.25-4.764V28.03l8.25-4.763 8.25 4.763v9.526l-8.25 4.764zm8.25 14.399-8.25-4.763v-9.526l8.25-4.764 8.25 4.764v9.526z"/><path d="m71.125 42.319-8.25-4.764V28.03l8.25-4.763 8.25 4.763v9.526l-8.25 4.764zm8.25 14.399-8.25-4.763v-9.526l8.25-4.764 8.25 4.764v9.526z"/><path d="m87.625 42.319-8.25-4.764V28.03l8.25-4.763 8.25 4.763v9.526l-8.25 4.764zm8.25 14.399-8.25-4.763v-9.526l8.25-4.764 8.25 4.764v9.526z"/><path d="m104.125 42.319-8.25-4.764V28.03l8.25-4.763 8.25 4.763v9.526l-8.25 4.764zm8.25 14.399-8.25-4.763v-9.526l8.25-4.764 8.25 4.764v9.526z"/><path d="m120.625 42.319-8.25-4.764V28.03l8.25-4.763 8.25 4.763v9.526l-8.25 4.764zm8.25 14.399-8.25-4.763v-9.526l8.25-4.764 8.25 4.764v9.526z"/><path d="m137.125 42.319-8.25-4.764V28.03l8.25-4.763 8.25 4.763v9.526l-8.25 4.764zm8.25 14.399-8.25-4.763v-9.526l8.25-4.764 8.25 4.764v9.526z"/><path d="m153.625 42.319-8.25-4.764V28.03l8.25-4.763 8.25 4.763v9.526l-8.25 4.764zM5.125 70.7l-8.25-4.763V56.41l8.25-4.763 8.25 4.763v9.527zm8.25 14.4-8.25-4.764V70.81l8.25-4.763 8.25 4.763v9.526l-8.25 4.763zm8.25-14.4-8.25-4.763V56.41l8.25-4.763 8.25 4.763v9.527zm8.25 14.4-8.25-4.764V70.81l8.25-4.763 8.25 4.763v9.526l-8.25 4.763zm8.25-14.4-8.25-4.763V56.41l8.25-4.763 8.25 4.763v9.527zm8.25 14.4-8.25-4.764V70.81l8.25-4.763 8.25 4.763v9.526l-8.25 4.763zm8.25-14.4-8.25-4.763V56.41l8.25-4.763 8.25 4.763v9.527zm8.25 14.4-8.25-4.764V70.81l8.25-4.763 8.25 4.763v9.526l-8.25 4.763zm8.25-14.4-8.25-4.763V56.41l8.25-4.763 8.25 4.763v9.527zm8.25 14.4-8.25-4.764V70.81l8.25-4.763 8.25 4.763v9.526l-8.25 4.763zm8.25-14.4-8.25-4.763V56.41l8.25-4.763 8.25 4.763v9.527zm8.25 14.4-8.25-4.764V70.81l8.25-4.763 8.25 4.763v9.526l-8.25 4.763zm8.25-14.4-8.25-4.763V56.41l8.25-4.763 8.25 4.763v9.527zm8.25 14.4-8.25-4.764V70.81l8.25-4.763 8.25 4.763v9.526l-8.25 4.763zm8.25-14.4-8.25-4.763V56.41l8.25-4.763 8.25 4.763v9.527zm8.25 14.4-8.25-4.764V70.81l8.25-4.763 8.25 4.763v9.526l-8.25 4.763zm8.25-14.4-8.25-4.763V56.41l8.25-4.763 8.25 4.763v9.527zm8.25 14.4-8.25-4.764V70.81l8.25-4.763 8.25 4.763v9.526l-8.25 4.763zm8.25-14.4-8.25-4.763V56.41l8.25-4.763 8.25 4.763v9.527z"/></g></g><path fill-opacity=".15" d="M81.849 9.444c-4.03.12-6.936 1.735-8.832 3.906-.803.918-1.334 1.903-1.804 2.895-.397-.345-.683-.726-1.183-1.017-2.09-1.217-4.956-1.783-8.74-1.35-5.907.674-10.55 4.882-11.45 10.433-.198 1.222-.066 2.124.055 3.02-.414-.007-.738-.055-1.227-.01-4.163.379-9.14 4.403-8.985 11.05.075 3.266 1.337 5.895 3.349 7.71 1.993 1.795 4.576 2.718 7.195 2.951 4.85.431 48.116.323 56.918.317 4.72-.003 8.101-1.299 10.257-3.46 2.155-2.16 2.83-4.947 2.697-7.378-.125-2.281-.738-4.178-1.958-5.596-1.226-1.426-2.889-2.171-4.607-2.465-.751-.128-1.48-.129-2.172-.118.302-.65.66-1.103.877-1.872.845-2.98-.483-5.995-2.381-8.136-1.928-2.174-4.748-3.872-7.842-3.916-2.534-.035-4.237.228-5.59.543-.014-.23.01-.235-.01-.504-.175-2.662-2.215-4.496-4.694-5.546-2.53-1.071-5.863-1.573-9.874-1.457Z" style="stroke-width:1.00658"/><path fill="#ee4949" d="M81.911 11.467c-7.04.206-9.311 5.328-10.042 8.974-.756-2.386-3.393-5.37-10.355-4.575-5.09.581-8.95 4.174-9.695 8.767-.44 2.714.237 4.057.774 5.086-.956-.308-1.837-.56-3.735-.388-3.15.287-7.3 3.456-7.172 8.983.128 5.526 4.18 8.32 8.733 8.725 4.553.405 47.968.292 56.724.285 8.755-.006 11.167-4.699 10.948-8.701-.22-4.005-2.074-5.692-4.903-6.175-2.829-.483-5.686.586-5.686.586s1.993-2.232 2.816-5.134c1.152-4.069-3.618-9.398-8.338-9.463-6.38-.089-7.53 1.456-7.53 1.456s.164-.13-.047-3.318c-.21-3.186-4.855-5.332-12.492-5.108z" style="stroke-width:1.00658"/><path fill="#ee4949" stroke="#fff" stroke-width="1.217" d="M88.895 27.61c-.012.043-.022.089-.036.133-.046.164-.143.554-.255 1.319 0 .01 0 .02-.004.03.382 1.832-.42 2.905-.942 3.39a1.148 1.148 0 0 1-.107.093c-.51.429-1.393.932-2.678.882a3.926 3.926 0 0 1-1.745-.471c-.015.72-.045 1.71-.097 3.087a3.644 3.644 0 0 1 2.279 3.53c-.058 1.49-.967 2.753-2.373 3.294a1.762 1.762 0 0 1-.107.04c-.47.16-.996.226-1.607.202a7.525 7.525 0 0 1-.716-.06 8.922 8.922 0 0 0-.664-.024 41.913 41.913 0 0 1-2.144.08c-.019 0-.037.003-.059 0-.123.003-.241 0-.358-.004-1.678-.065-2.883-.645-3.584-1.719a3.4 3.4 0 0 1 .044-3.777c.006-.013.016-.023.024-.036.483-.7 1.17-1.185 2.045-1.453.03-.508.052-1.145.066-1.902a3.825 3.825 0 0 1-1.493.227c-1.467-.056-2.645-.976-3.016-2.317-.077-.272-.144-.668-.3-1.56a1.222 1.222 0 0 1-.014-.096l-.306-2.194c-.011-.049-.028-.104-.047-.168-.18-.584-.256-1.08-.238-1.554.023-.587.227-1.47 1.074-2.324.425-.433 1.19-.982 2.394-1.123.148-.018.299-.027.449-.02l2.915.11c1.05.089 2.105.131 3.159.128a42.642 42.642 0 0 0 3.563-.169 6.13 6.13 0 0 1 .433-.105c.147-.03.296-.05.443-.06 1.127-.059 2.161.306 2.948 1.032.977.906 1.372 2.234 1.054 3.558z"/><path fill="#fff" d="M86.073 26.932c-.124.43-.239 1.012-.344 1.751-.047.37-.043.673.01.906.093.39.077.646-.052.765-.175.147-.41.216-.704.204-.34-.013-.561-.121-.66-.329a21.24 21.24 0 0 1 .09-1.751c.056-.668.085-1.017.086-1.047-.016 0-.038-.02-.067-.05a76.298 76.298 0 0 0-4.068.122c-.037.154-.046.403-.03.743.044.484.065.763.061.84-.08.478-.138 1.188-.175 2.134.047.405.012 2.132-.105 5.184L80.05 38.1c-.01.262.022.45.095.562l1.423.054c.262-.02.47.05.624.21a.738.738 0 0 1 .22.565c-.013.34-.185.573-.515.701-.204.07-.56.07-1.067.005a11.94 11.94 0 0 0-1.09-.04 35.653 35.653 0 0 1-2.094.08c-.835 0-1.34-.137-1.516-.405-.117-.192-.11-.384.022-.581.23-.332.8-.48 1.713-.445.324.013.525-.006.606-.056.078-.052.121-.155.126-.31l.017-.392.038-1.019c.076-.785.123-1.957.136-3.516.023-2.239.129-4.204.319-5.896l-.068-.07c-.56.008-1.461-.04-2.701-.151a33.167 33.167 0 0 0-1.427.037c.147 1.414.23 2.477.25 3.191a9.055 9.055 0 0 1-.07.624c-.026.232-.222.34-.595.324-.2-.007-.314-.08-.339-.22-.015-.03-.09-.448-.231-1.252l-.31-2.222c.003-.06-.044-.255-.14-.581-.08-.264-.12-.466-.114-.604.004-.106.082-.238.235-.393.153-.155.378-.25.673-.285l.221.01.242.01 2.412.09c1.25.095 2.362.137 3.338.13a45.36 45.36 0 0 0 4.14-.212c.095-.045.236-.086.423-.124.342-.018.616.07.825.263.21.194.278.445.204.75z" style="stroke-width:1.00658"/><g fill="none" stroke="#000" stroke-opacity=".15" stroke-width="4"><path stroke-width="4.02656" d="M62.031 69.044s-.027-1.235 1.595-1.235c1.621 0 1.594 1.235 1.594 1.235s-1.594 1.444-1.594 1.425c0-.02-1.595-1.425-1.595-1.425z"/><path stroke-linecap="round" stroke-width="4.02656" d="M56.027 63.905s2.665-3.911 7.6-3.911c4.932 0 7.6 3.91 7.6 3.91M58.516 66.7s1.585-2.794 5.11-2.794c3.523 0 5.11 2.794 5.11 2.794"/><path stroke-linecap="round" stroke-width="4.02656" d="M53.535 61.111s3.747-5.027 10.09-5.027c6.345 0 10.092 5.027 10.092 5.027"/></g><g fill="none" stroke="#000" stroke-opacity=".15" stroke-width="4"><path stroke-width="4.02656" d="M93.235 57.507s-.027 1.236 1.595 1.236c1.621 0 1.594-1.236 1.594-1.236s-1.594-1.442-1.594-1.423c0 .02-1.595 1.423-1.595 1.423z"/><path stroke-linecap="round" stroke-width="4.02656" d="M87.23 62.647s2.666 3.911 7.6 3.911c4.933 0 7.6-3.91 7.6-3.91m-12.71-2.795s1.585 2.794 5.11 2.794c3.523 0 5.11-2.794 5.11-2.794"/><path stroke-linecap="round" stroke-width="4.02656" d="M84.739 65.44s3.748 5.029 10.09 5.029c6.344 0 10.093-5.028 10.093-5.028"/></g><g stroke="#4d4d4d" stroke-width="1.5"><path fill="#4d4d4d" stroke-width="1.50996" d="M62.031 69.044s-.027-1.235 1.595-1.235c1.621 0 1.594 1.235 1.594 1.235s-1.594 1.444-1.594 1.425c0-.02-1.595-1.425-1.595-1.425z"/><path fill="none" stroke-linecap="round" stroke-width="1.50996" d="M56.027 63.905s2.665-3.911 7.6-3.911c4.932 0 7.6 3.91 7.6 3.91M58.516 66.7s1.585-2.794 5.11-2.794c3.523 0 5.11 2.794 5.11 2.794"/><path fill="none" stroke-linecap="round" stroke-width="1.50996" d="M53.535 61.111s3.747-5.027 10.09-5.027c6.345 0 10.092 5.027 10.092 5.027"/></g><g stroke="#4d4d4d" stroke-width="1.5"><path fill="#4d4d4d" stroke-width="1.50996" d="M93.235 57.507s-.027 1.236 1.595 1.236c1.621 0 1.594-1.236 1.594-1.236s-1.594-1.442-1.594-1.423c0 .02-1.595 1.423-1.595 1.423z"/><path fill="none" stroke-linecap="round" stroke-width="1.50996" d="M87.23 62.647s2.666 3.911 7.6 3.911c4.933 0 7.6-3.91 7.6-3.91m-12.71-2.795s1.585 2.794 5.11 2.794c3.523 0 5.11-2.794 5.11-2.794"/><path fill="none" stroke-linecap="round" stroke-width="1.50996" d="M84.739 65.44s3.748 5.029 10.09 5.029c6.344 0 10.093-5.028 10.093-5.028"/></g></svg>