<svg xmlns="http://www.w3.org/2000/svg" width="200" height="100" viewBox="0 0 52.917 26.458"><path d="M0 0h52.917v26.458H0z" style="fill:#00c28c;fill-opacity:1;stroke-width:.286281"/><g fill-rule="evenodd" style="mix-blend-mode:normal;stroke:none;stroke-linecap:butt;stroke-linejoin:miter;stroke-miterlimit:10;stroke-dasharray:none;stroke-dashoffset:0"><path fill="#fff" d="M29.409 7.118a2.692 2.692 0 1 1 0 5.384h-5.9a2.692 2.692 0 1 1 0-5.384h.267a2.692 2.692 0 0 1 5.365 0z"/><path fill="#00c28c" d="M29.598 10.942v.579h-2.301V7.456h.58v3.486zM25.333 11.521a2.015 2.015 0 0 1 0-4.03h1.35v.572h-1.35v.007a1.437 1.437 0 0 0 0 2.873v.006h1.35v.572z"/></g><g aria-label="CloudLink" style="font-size:8.07788px;line-height:1.25;fill:#fff;stroke-width:.201947"><path d="M9.212 16.892q-.703 0-1.074.526-.372.525-.372 1.437 0 .921.34 1.43.347.501 1.106.501.356 0 .703-.08.355-.082.767-.227v1.026q-.38.153-.751.226-.372.073-.832.073-.889 0-1.47-.364-.574-.371-.848-1.034-.275-.67-.275-1.559 0-.872.315-1.543.315-.67.913-1.05.606-.38 1.478-.38.428 0 .856.114.437.105.832.29l-.395.994q-.324-.153-.655-.266-.323-.114-.638-.114ZM13.017 21.723h-1.204v-6.14h1.204zM18.284 19.51q0 1.098-.582 1.696-.574.598-1.567.598-.614 0-1.099-.267-.476-.266-.751-.775-.275-.517-.275-1.252 0-1.099.574-1.689.573-.59 1.575-.59.622 0 1.099.267.476.267.75.776.276.5.276 1.236zm-3.046 0q0 .654.21.993.218.331.703.331.477 0 .687-.33.218-.34.218-.994 0-.655-.218-.978-.21-.33-.695-.33-.477 0-.695.33-.21.323-.21.978zM23.324 17.313v4.41h-.92l-.162-.565h-.065q-.21.339-.582.492-.363.154-.775.154-.71 0-1.139-.38-.428-.388-.428-1.236v-2.875h1.203v2.576q0 .469.17.711.17.243.541.243.55 0 .752-.372.202-.38.202-1.082v-2.076ZM25.982 21.804q-.735 0-1.204-.574-.46-.581-.46-1.704 0-1.131.468-1.713.469-.581 1.228-.581.477 0 .784.186.307.185.484.46h.04q-.024-.13-.056-.372-.032-.25-.032-.509v-1.413h1.203v6.139h-.92l-.235-.574h-.048q-.178.275-.477.469-.299.186-.775.186zm.42-.961q.5 0 .703-.291.202-.3.21-.889v-.13q0-.645-.202-.985-.194-.339-.727-.339-.396 0-.622.347-.227.34-.227.986 0 .646.227.977.226.324.638.324zM29.794 21.723v-5.768h1.22v4.758h2.343v1.01zM34.867 15.584q.267 0 .46.13.195.12.195.46 0 .33-.194.46t-.46.13q-.275 0-.47-.13-.185-.13-.185-.46 0-.34.186-.46.194-.13.468-.13zm.598 1.728v4.411h-1.203v-4.41ZM39.23 17.232q.71 0 1.138.387.429.38.429 1.228v2.876h-1.204v-2.577q0-.476-.17-.71-.17-.243-.54-.243-.55 0-.752.38-.202.371-.202 1.074v2.076h-1.204v-4.41h.921l.162.565h.064q.21-.34.574-.493.371-.153.783-.153zM43.236 18.33q0 .25-.024.501-.016.242-.04.493h.016q.12-.17.25-.34.13-.177.275-.33l1.236-1.341h1.357l-1.753 1.914 1.858 2.496h-1.39l-1.268-1.785-.517.412v1.373h-1.204v-6.14h1.204z" style="font-weight:700;font-family:&quot;Noto Sans&quot;;-inkscape-font-specification:&quot;Noto Sans&quot;"/></g></svg>