<svg xmlns="http://www.w3.org/2000/svg" xml:space="preserve" stroke-miterlimit="10" viewBox="0 0 158.75 79.375"><clipPath id="a"><path d="M0 0h158.75v79.375H0z"/></clipPath><g clip-path="url(#a)"><path fill="#fff" d="M0 0h158.75v79.375H0V0Z"/><g fill="none" stroke="#f2f2f2" stroke-width="2"><path d="m5.125 13.328-8.25-4.763V-.96l8.25-4.763 8.25 4.763v9.526l-8.25 4.763ZM13.375 27.728l-8.25-4.763v-9.527l8.25-4.763 8.25 4.763v9.527l-8.25 4.763Z"/><path d="m21.625 13.328-8.25-4.763V-.96l8.25-4.763 8.25 4.763v9.526l-8.25 4.763ZM29.875 27.728l-8.25-4.763v-9.527l8.25-4.763 8.25 4.763v9.527l-8.25 4.763Z"/><path d="m38.125 13.328-8.25-4.763V-.96l8.25-4.763 8.25 4.763v9.526l-8.25 4.763ZM46.375 27.728l-8.25-4.763v-9.527l8.25-4.763 8.25 4.763v9.527l-8.25 4.763Z"/><path d="m54.625 13.328-8.25-4.763V-.96l8.25-4.763 8.25 4.763v9.526l-8.25 4.763ZM62.875 27.728l-8.25-4.763v-9.527l8.25-4.763 8.25 4.763v9.527l-8.25 4.763Z"/><path d="m71.125 13.328-8.25-4.763V-.96l8.25-4.763 8.25 4.763v9.526l-8.25 4.763ZM79.375 27.728l-8.25-4.763v-9.527l8.25-4.763 8.25 4.763v9.527l-8.25 4.763Z"/><path d="m87.625 13.328-8.25-4.763V-.96l8.25-4.763 8.25 4.763v9.526l-8.25 4.763ZM95.875 27.728l-8.25-4.763v-9.527l8.25-4.763 8.25 4.763v9.527l-8.25 4.763Z"/><path d="m104.125 13.328-8.25-4.763V-.96l8.25-4.763 8.25 4.763v9.526l-8.25 4.763ZM112.375 27.728l-8.25-4.763v-9.527l8.25-4.763 8.25 4.763v9.527l-8.25 4.763Z"/><path d="m120.625 13.328-8.25-4.763V-.96l8.25-4.763 8.25 4.763v9.526l-8.25 4.763ZM128.875 27.728l-8.25-4.763v-9.527l8.25-4.763 8.25 4.763v9.527l-8.25 4.763Z"/><path d="m137.125 13.328-8.25-4.763V-.96l8.25-4.763 8.25 4.763v9.526l-8.25 4.763ZM145.375 27.728l-8.25-4.763v-9.527l8.25-4.763 8.25 4.763v9.527l-8.25 4.763Z"/><path d="m153.625 13.328-8.25-4.763V-.96l8.25-4.763 8.25 4.763v9.526l-8.25 4.763ZM5.125 42.319l-8.25-4.764V28.03l8.25-4.763 8.25 4.763v9.526l-8.25 4.764ZM13.375 56.718l-8.25-4.763v-9.526l8.25-4.764 8.25 4.764v9.526l-8.25 4.763Z"/><path d="m21.625 42.319-8.25-4.764V28.03l8.25-4.763 8.25 4.763v9.526l-8.25 4.764ZM29.875 56.718l-8.25-4.763v-9.526l8.25-4.764 8.25 4.764v9.526l-8.25 4.763Z"/><path d="m38.125 42.319-8.25-4.764V28.03l8.25-4.763 8.25 4.763v9.526l-8.25 4.764ZM46.375 56.718l-8.25-4.763v-9.526l8.25-4.764 8.25 4.764v9.526l-8.25 4.763Z"/><path d="m54.625 42.319-8.25-4.764V28.03l8.25-4.763 8.25 4.763v9.526l-8.25 4.764ZM62.875 56.718l-8.25-4.763v-9.526l8.25-4.764 8.25 4.764v9.526l-8.25 4.763Z"/><path d="m71.125 42.319-8.25-4.764V28.03l8.25-4.763 8.25 4.763v9.526l-8.25 4.764ZM79.375 56.718l-8.25-4.763v-9.526l8.25-4.764 8.25 4.764v9.526l-8.25 4.763Z"/><path d="m87.625 42.319-8.25-4.764V28.03l8.25-4.763 8.25 4.763v9.526l-8.25 4.764ZM95.875 56.718l-8.25-4.763v-9.526l8.25-4.764 8.25 4.764v9.526l-8.25 4.763Z"/><path d="m104.125 42.319-8.25-4.764V28.03l8.25-4.763 8.25 4.763v9.526l-8.25 4.764ZM112.375 56.718l-8.25-4.763v-9.526l8.25-4.764 8.25 4.764v9.526l-8.25 4.763Z"/><path d="m120.625 42.319-8.25-4.764V28.03l8.25-4.763 8.25 4.763v9.526l-8.25 4.764ZM128.875 56.718l-8.25-4.763v-9.526l8.25-4.764 8.25 4.764v9.526l-8.25 4.763Z"/><path d="m137.125 42.319-8.25-4.764V28.03l8.25-4.763 8.25 4.763v9.526l-8.25 4.764ZM145.375 56.718l-8.25-4.763v-9.526l8.25-4.764 8.25 4.764v9.526l-8.25 4.763Z"/><path d="m153.625 42.319-8.25-4.764V28.03l8.25-4.763 8.25 4.763v9.526l-8.25 4.764ZM5.125 70.7l-8.25-4.763V56.41l8.25-4.763 8.25 4.763v9.527L5.125 70.7ZM13.375 85.1l-8.25-4.764V70.81l8.25-4.763 8.25 4.763v9.526l-8.25 4.763ZM21.625 70.7l-8.25-4.763V56.41l8.25-4.763 8.25 4.763v9.527l-8.25 4.763ZM29.875 85.1l-8.25-4.764V70.81l8.25-4.763 8.25 4.763v9.526l-8.25 4.763ZM38.125 70.7l-8.25-4.763V56.41l8.25-4.763 8.25 4.763v9.527l-8.25 4.763ZM46.375 85.1l-8.25-4.764V70.81l8.25-4.763 8.25 4.763v9.526l-8.25 4.763ZM54.625 70.7l-8.25-4.763V56.41l8.25-4.763 8.25 4.763v9.527l-8.25 4.763ZM62.875 85.1l-8.25-4.764V70.81l8.25-4.763 8.25 4.763v9.526l-8.25 4.763ZM71.125 70.7l-8.25-4.763V56.41l8.25-4.763 8.25 4.763v9.527l-8.25 4.763ZM79.375 85.1l-8.25-4.764V70.81l8.25-4.763 8.25 4.763v9.526l-8.25 4.763ZM87.625 70.7l-8.25-4.763V56.41l8.25-4.763 8.25 4.763v9.527l-8.25 4.763ZM95.875 85.1l-8.25-4.764V70.81l8.25-4.763 8.25 4.763v9.526l-8.25 4.763ZM104.125 70.7l-8.25-4.763V56.41l8.25-4.763 8.25 4.763v9.527l-8.25 4.763ZM112.375 85.1l-8.25-4.764V70.81l8.25-4.763 8.25 4.763v9.526l-8.25 4.763ZM120.625 70.7l-8.25-4.763V56.41l8.25-4.763 8.25 4.763v9.527l-8.25 4.763ZM128.875 85.1l-8.25-4.764V70.81l8.25-4.763 8.25 4.763v9.526l-8.25 4.763ZM137.125 70.7l-8.25-4.763V56.41l8.25-4.763 8.25 4.763v9.527l-8.25 4.763ZM145.375 85.1l-8.25-4.764V70.81l8.25-4.763 8.25 4.763v9.526l-8.25 4.763ZM153.625 70.7l-8.25-4.763V56.41l8.25-4.763 8.25 4.763v9.527l-8.25 4.763Z"/></g></g><path fill-opacity=".15" d="M81.314 9.383c-4.004.118-6.89 1.723-8.775 3.88-.797.912-1.325 1.89-1.792 2.876-.394-.343-.678-.721-1.175-1.01-2.077-1.209-4.923-1.772-8.682-1.342-5.869.67-10.481 4.851-11.375 10.365-.197 1.215-.066 2.111.054 3-.411-.006-.733-.054-1.219-.01-4.136.377-9.08 4.375-8.927 10.977.075 3.246 1.329 5.858 3.328 7.66 1.98 1.784 4.546 2.701 7.148 2.933 4.817.428 47.801.32 56.546.314 4.69-.003 8.048-1.29 10.19-3.436 2.14-2.146 2.811-4.915 2.679-7.33-.124-2.267-.733-4.15-1.945-5.56-1.218-1.417-2.869-2.157-4.577-2.449-.746-.127-1.471-.128-2.158-.117.3-.646.656-1.096.872-1.86.839-2.96-.481-5.956-2.366-8.083-1.915-2.16-4.717-3.847-7.791-3.89-2.517-.035-4.209.226-5.554.539-.013-.229.009-.233-.009-.5-.174-2.645-2.2-4.467-4.663-5.51-2.514-1.064-5.825-1.563-9.81-1.447Z"/><path fill="#ee4949" d="M81.376 11.392c-6.993.205-9.25 5.293-9.977 8.915-.751-2.37-3.371-5.335-10.287-4.545-5.057.578-8.892 4.147-9.632 8.71-.437 2.697.236 4.03.769 5.053-.95-.306-1.825-.557-3.71-.385-3.13.285-7.252 3.433-7.125 8.923.127 5.49 4.153 8.267 8.675 8.669 4.523.402 47.655.29 56.353.283 8.698-.006 11.095-4.668 10.877-8.645-.218-3.978-2.059-5.654-4.871-6.134-2.811-.48-5.648.582-5.648.582s1.98-2.217 2.797-5.1c1.145-4.043-3.594-9.337-8.284-9.402-6.338-.088-7.481 1.447-7.481 1.447s.164-.13-.046-3.296c-.209-3.165-4.823-5.297-12.41-5.075Z"/><path fill="#ee4949" stroke="#fff" stroke-width="1.209" d="M88.314 27.43c-.012.043-.022.088-.036.132-.046.163-.142.55-.253 1.309 0 .01 0 .02-.004.03.379 1.82-.417 2.887-.936 3.369a1.14 1.14 0 0 1-.107.092c-.506.426-1.383.926-2.66.876a3.9 3.9 0 0 1-1.733-.468c-.015.716-.045 1.7-.097 3.067a3.621 3.621 0 0 1 2.264 3.507c-.057 1.481-.96 2.736-2.357 3.273a1.75 1.75 0 0 1-.106.04c-.468.158-.99.224-1.597.2a7.475 7.475 0 0 1-.711-.06 8.864 8.864 0 0 0-.66-.023 41.64 41.64 0 0 1-2.13.08c-.018 0-.036.002-.058 0-.122.002-.24 0-.356-.005-1.667-.064-2.864-.64-3.56-1.707a3.377 3.377 0 0 1 .044-3.753c.006-.013.015-.023.023-.036.48-.695 1.162-1.177 2.032-1.443.03-.505.052-1.138.065-1.89a3.8 3.8 0 0 1-1.483.226c-1.458-.056-2.628-.969-2.997-2.302-.076-.27-.143-.664-.297-1.55a1.214 1.214 0 0 1-.015-.095l-.304-2.18c-.011-.048-.028-.103-.046-.167-.18-.581-.255-1.072-.237-1.543.023-.584.226-1.46 1.067-2.309.422-.43 1.183-.977 2.379-1.117.147-.018.297-.026.446-.02l2.896.111c1.044.087 2.091.13 3.138.126a42.364 42.364 0 0 0 3.541-.168 6.09 6.09 0 0 1 .43-.104c.145-.03.293-.049.44-.06 1.119-.058 2.146.304 2.928 1.026.97.9 1.362 2.22 1.047 3.535Z"/><path fill="#fff" d="M85.51 26.756c-.123.427-.237 1.006-.342 1.74-.046.367-.042.668.011.9.092.388.076.642-.052.76-.174.146-.408.214-.7.202-.338-.012-.557-.121-.656-.326.008-.619.038-1.199.09-1.74.056-.663.085-1.01.086-1.041-.016 0-.038-.018-.067-.05a75.8 75.8 0 0 0-4.041.123c-.037.153-.046.399-.029.738.043.48.064.758.06.834-.079.475-.137 1.18-.174 2.12.047.402.012 2.118-.104 5.15l-.066 1.684c-.01.261.022.447.094.558l1.414.054c.26-.02.466.05.62.209.154.159.227.346.218.561-.013.338-.183.57-.511.696-.203.069-.556.071-1.06.005-.36-.03-.722-.043-1.083-.04a35.42 35.42 0 0 1-2.08.08c-.83-.001-1.332-.136-1.506-.403-.116-.19-.11-.381.022-.577.228-.329.794-.476 1.701-.442.322.013.522-.006.602-.056.078-.051.121-.154.126-.307l.016-.39.038-1.012c.076-.78.122-1.944.135-3.493.023-2.224.128-4.176.317-5.857l-.067-.071c-.557.009-1.452-.04-2.684-.15a32.95 32.95 0 0 0-1.417.038c.146 1.405.228 2.461.248 3.17a8.996 8.996 0 0 1-.071.619c-.024.23-.22.338-.589.323-.2-.007-.312-.08-.337-.218-.015-.03-.091-.446-.23-1.245l-.307-2.207c.002-.06-.044-.253-.139-.577-.081-.262-.12-.463-.114-.6.004-.105.082-.236.234-.39.152-.154.375-.249.668-.284l.22.009.24.01 2.396.09c1.242.095 2.347.137 3.316.129a45.062 45.062 0 0 0 4.113-.211c.094-.043.234-.084.42-.122.34-.018.612.07.82.261.208.193.276.442.202.746Z"/><g fill="none" stroke="#000" stroke-opacity=".15" stroke-width="4"><path d="M61.626 68.593s-.027-1.227 1.584-1.227 1.584 1.227 1.584 1.227-1.584 1.434-1.584 1.415c0-.02-1.584-1.415-1.584-1.415Z"/><path stroke-linecap="round" d="M55.66 63.487s2.649-3.885 7.55-3.885c4.902 0 7.551 3.885 7.551 3.885M58.134 66.263s1.575-2.776 5.076-2.776c3.501 0 5.076 2.776 5.076 2.776"/><path stroke-linecap="round" d="M53.185 60.712s3.723-4.995 10.025-4.995c6.302 0 10.026 4.995 10.026 4.995"/></g><g fill="none" stroke="#000" stroke-opacity=".15" stroke-width="4"><path d="M92.626 57.132s-.027 1.227 1.584 1.227 1.584-1.227 1.584-1.227-1.584-1.434-1.584-1.415c0 .019-1.584 1.415-1.584 1.415Z"/><path stroke-linecap="round" d="M86.66 62.238s2.649 3.885 7.55 3.885c4.902 0 7.551-3.885 7.551-3.885M89.134 59.462s1.575 2.776 5.076 2.776c3.501 0 5.076-2.776 5.076-2.776"/><path stroke-linecap="round" d="M84.185 65.013s3.723 4.995 10.025 4.995c6.302 0 10.026-4.995 10.026-4.995"/></g><g stroke="#4d4d4d" stroke-width="1.5"><path fill="#4d4d4d" d="M61.626 68.593s-.027-1.227 1.584-1.227 1.584 1.227 1.584 1.227-1.584 1.434-1.584 1.415c0-.02-1.584-1.415-1.584-1.415Z"/><path fill="none" stroke-linecap="round" d="M55.66 63.487s2.649-3.885 7.55-3.885c4.902 0 7.551 3.885 7.551 3.885M58.134 66.263s1.575-2.776 5.076-2.776c3.501 0 5.076 2.776 5.076 2.776"/><path fill="none" stroke-linecap="round" d="M53.185 60.712s3.723-4.995 10.025-4.995c6.302 0 10.026 4.995 10.026 4.995"/></g><g stroke="#4d4d4d" stroke-width="1.5"><path fill="#4d4d4d" d="M92.626 57.132s-.027 1.227 1.584 1.227 1.584-1.227 1.584-1.227-1.584-1.434-1.584-1.415c0 .019-1.584 1.415-1.584 1.415Z"/><path fill="none" stroke-linecap="round" d="M86.66 62.238s2.649 3.885 7.55 3.885c4.902 0 7.551-3.885 7.551-3.885M89.134 59.462s1.575 2.776 5.076 2.776c3.501 0 5.076-2.776 5.076-2.776"/><path fill="none" stroke-linecap="round" d="M84.185 65.013s3.723 4.995 10.025 4.995c6.302 0 10.026-4.995 10.026-4.995"/></g></svg>