<svg xmlns="http://www.w3.org/2000/svg" width="600" height="300" viewBox="0 0 158.75 79.375"><g fill="#dbdbdb" stroke="#bebebe" stroke-width="4" style="mix-blend-mode:normal;fill-rule:nonzero;stroke-linecap:butt;stroke-linejoin:miter;stroke-miterlimit:10;stroke-dasharray:none;stroke-dashoffset:0"><path stroke-width="1.25524" d="M48.119 60.095c.763-1.3 2.513-1.668 3.825-2.411.53-.301 1.232-.34 1.816-.45.615-.117 1.235-.331 1.855-.392 2.538-.247 3.418.412 5.377 2.025.645.532 1.68 1.083 2.059 1.89.092.196.225.412.181.625-.05.243-.256.426-.373.645-.064.12-.143.415-.263.456-.303.104-.639.04-.958.042-.48.004-1.463-1.112-1.736-1.345-1.665-1.416-2.254-2.153-4.486-1.71-.684.136-1.756.15-2.378.499-1.071.6-2.1 1.273-3.182 1.854l-.053.03a1.263 1.263 0 0 1-1.748-1.607.636.636 0 0 1 .064-.15z"/><path stroke-width="1.25524" d="M45.38 58.089c-.003-.368-.17-.78-.075-1.122a.636.636 0 0 1 .064-.15c.036-.062.088-.128.153-.198.04-.046.084-.089.132-.13.886-.808 3.191-1.952 3.43-2.096 2.092-1.269 4.39-2.441 6.869-2.6 1.458-.093 2.902.457 4.229.934.631.227 1.398.45 1.974.807 1.671 1.037 3.704 2.925 4.909 4.426.33.411-.006 1.71-.39 1.84-.301.104-.637.04-.957.042-.504.005-.703-.515-1.063-.799-1.035-.813-2.08-1.834-3.036-2.763-1.532-1.489-4.214-1.923-6.235-1.824-2.414.118-5.402 2.291-7.275 3.428-.368.223-1.221 1.076-1.644.832z"/><path stroke-width="1.25524" d="M41.7 55.047c-.002-.368-.17-.78-.074-1.122a.636.636 0 0 1 .064-.15c1.435-2.445 6.205-4.42 7.602-5.223.432-.25 1.007-.272 1.474-.434 1.587-.551 2.943-.91 4.658-.847.194.007.375-.173.555-.145 3.562.555 7.561 1.246 10.265 3.939.548.546 1.509.935 2.114 1.445 1.51 1.273 2.803 2.941 3.862 4.613.188.296.652.577.764.902.265.77-.345 1.813-1.21 1.849-.693.028-1.273-.833-1.61-1.314-.831-1.19-1.7-2.601-2.815-3.562-3.492-3.01-7.573-5.42-12.323-5.214-3.874.169-6.92 2.337-10.264 4.33-.468.279-1.306 1.947-1.976 1.56zM51.013 62.64c.263-.17.616-.264.895-.436.407-.25 1.259-.872 1.878-.912.403-.026.819.134 1.227.136.76.004 1.41-.014 2.108.383.717.408 2.734 2.327 2.505 3.197-.304 1.151-.758 1.416-1.91 1.113-.321-.085-.78-1.05-.885-1.206-.312-.47-.753-.876-1.313-1.006-.123-.03-1.347-.087-1.424-.056-.604.241-.997.718-1.588.945-.293.112-1.15.354-1.362.031a1.263 1.263 0 0 1-.251-2.086.595.595 0 0 1 .12-.103zM53.235 67.773a1.263 1.263 0 1 1 2.181-1.271 1.263 1.263 0 0 1-2.181 1.271z"/></g><path fill="#ee4949" d="M41.928 36.895c-1.006-.853-1.921-1.823-2.2-3.033-.71-3.086 1.245-7.293 3.846-8.977 2.192-1.42 5.373-2.186 7.776-1.399.067.022-.073-.12-.105-.184-.175-.351-.342-.705-.513-1.058-.228-1.539-.336-3.25.135-4.778 1.675-5.42 7.693-8.125 12.888-7.905 2.013.085 5.217-.58 6.715 1.27.261.322.429.694.549 1.09.774-1.558 1.821-2.853 3.388-3.831.845-.527 1.97-.932 2.917-1.251 3.471-1.173 7.965-1.412 11.553-.553 1.565.374 3.68 1.352 4.591 2.792.856 1.353.618 2.242.573 3.708-.169 1.438-.41 2.538-.822 3.657 1.66-.477 3.49-.625 5.175-.622 1.122.002 2.24.147 3.362.155 1.69.012 3.505-.392 5.13.285 4.022 1.678 7.056 7.37 5.524 11.628-.234.65-.709 1.187-1.063 1.781-.788.926-1.61 1.711-2.477 2.37 1.615.028 3.37-.226 4.89.414 2.61 1.101 4.644 4.399 5.17 7.078.158.804.439 3.034.015 3.733-1.264 2.082-4.622 2.665-6.768 3.17-2.91.659-5.475.31-8.405.16-4.123-.21-8.14-.237-12.257-.724-3.005-.355-6.316-1.196-9.325-1.11-1.189.033-2.374.23-3.563.185-2.387-.1-4.969-.897-7.326-.767-1.118.062-2.188.582-3.308.588-3.016.017-6.03-1.05-8.94-1.655-4.315-.896-8.547-1.741-12.778-2.975-.918-.38-1.805-.876-2.567-1.514l-1.149-.69s-.626-.38-.631-1.038z" style="mix-blend-mode:normal;fill-rule:nonzero;stroke-linecap:butt;stroke-linejoin:miter;stroke-miterlimit:10;stroke-dasharray:none;stroke-dashoffset:0"/><path fill="#ee4949" stroke="#fff" stroke-width="1.209" d="M91.58 20.567c-.015.058-.028.117-.047.175-.06.215-.187.725-.333 1.725a.13.13 0 0 1-.005.041c.499 2.397-.55 3.805-1.235 4.439-.043.043-.09.083-.14.122-.667.562-1.823 1.22-3.507 1.155a5.14 5.14 0 0 1-2.284-.617c-.02.943-.059 2.241-.128 4.042a4.642 4.642 0 0 1 1.634 1.096 4.773 4.773 0 0 1 1.35 3.526c-.074 1.953-1.265 3.607-3.106 4.314a2.365 2.365 0 0 1-.14.054c-.617.208-1.304.295-2.105.264-.29-.01-.6-.036-.937-.08-.206-.019-.51-.027-.87-.03-.655.047-1.575.084-2.806.106-.025 0-.049.002-.077 0-.162.001-.317-.001-.47-.007-2.197-.085-3.775-.843-4.692-2.25-.02-.029-.036-.057-.052-.086-.93-1.511-.887-3.376.11-4.861.008-.017.019-.03.03-.048.633-.915 1.532-1.551 2.679-1.901.039-.666.068-1.5.085-2.492a5.01 5.01 0 0 1-1.954.298c-1.922-.074-3.465-1.277-3.951-3.034-.1-.356-.188-.875-.391-2.044a1.607 1.607 0 0 1-.02-.125l-.401-2.873c-.015-.063-.036-.136-.06-.22-.237-.766-.337-1.413-.313-2.034.03-.77.298-1.924 1.406-3.043.557-.566 1.56-1.288 3.136-1.472.194-.024.392-.034.588-.026l3.817.146a48.15 48.15 0 0 0 4.137.166 55.856 55.856 0 0 0 4.667-.221 7.94 7.94 0 0 1 .566-.138c.191-.04.386-.064.58-.078 1.475-.078 2.829.4 3.86 1.351 1.278 1.186 1.795 2.927 1.38 4.66z" style="mix-blend-mode:normal;fill-rule:nonzero;stroke-linecap:butt;stroke-linejoin:miter;stroke-miterlimit:10;stroke-dasharray:none;stroke-dashoffset:0"/><path fill="#fff" d="M87.886 19.68c-.163.562-.314 1.326-.452 2.293-.06.484-.055.88.015 1.186.121.512.1.846-.069 1.001-.23.194-.538.283-.922.268-.446-.017-.735-.16-.865-.43.01-.816.05-1.58.118-2.293.074-.875.112-1.333.114-1.373-.021-.001-.05-.023-.089-.065-1.886.01-3.66.063-5.326.161-.049.202-.061.526-.038.973.057.632.084.999.08 1.1-.105.625-.182 1.556-.23 2.793.061.53.015 2.793-.138 6.788l-.086 2.22c-.013.345.028.59.123.736l1.864.071c.342-.027.614.065.817.275.203.21.299.457.288.74-.017.445-.242.751-.674.917-.267.091-.733.094-1.398.007a15.991 15.991 0 0 0-1.427-.054c-.57.048-1.483.084-2.74.107-1.095-.002-1.757-.18-1.986-.532-.153-.249-.144-.502.029-.76.3-.433 1.047-.628 2.242-.582.424.017.688-.008.793-.075.103-.067.16-.202.167-.404l.02-.515.051-1.333c.1-1.027.16-2.562.177-4.604.031-2.931.17-5.504.418-7.72l-.088-.094c-.734.012-1.914-.053-3.538-.197-.184-.007-.806.01-1.867.05.192 1.852.3 3.244.326 4.177-.005.122-.036.394-.093.817-.032.303-.29.445-.776.426-.263-.01-.411-.106-.445-.288-.019-.04-.12-.588-.302-1.64l-.405-2.91c.003-.079-.058-.333-.183-.76-.108-.346-.158-.61-.151-.79.005-.14.108-.312.309-.515.2-.203.494-.328.88-.374l.289.011.318.013 3.157.12c1.637.125 3.094.18 4.371.169a59.37 59.37 0 0 0 5.422-.278c.124-.056.308-.11.553-.161.447-.023.807.092 1.081.345.274.254.363.582.266.983z" style="mix-blend-mode:normal;fill-rule:nonzero;stroke-linecap:butt;stroke-linejoin:miter;stroke-miterlimit:10;stroke-dasharray:none;stroke-dashoffset:0"/><g fill="#dbdbdb" stroke="#bebebe" stroke-width="4" style="mix-blend-mode:normal;fill-rule:nonzero;stroke-linecap:butt;stroke-linejoin:miter;stroke-miterlimit:10;stroke-dasharray:none;stroke-dashoffset:0"><path stroke-width="1.3694" d="M107.152 58.144c-.636 1.516-2.476 2.17-3.786 3.163-.53.402-1.283.546-1.899.75-.647.215-1.286.537-1.949.692-2.708.636-3.755.051-6.107-1.408-.775-.481-1.974-.927-2.5-1.744-.129-.2-.304-.414-.288-.65.02-.27.215-.498.31-.752.052-.14.095-.47.219-.531.312-.156.684-.135 1.03-.185.518-.074 1.742.99 2.072 1.202 2.005 1.29 2.749 2.001 5.099 1.198.72-.247 1.877-.417 2.498-.884 1.071-.804 2.086-1.682 3.172-2.467a1.378 1.378 0 0 1 2.176 1.443.695.695 0 0 1-.047.173z"/><path stroke-width="1.3694" d="M110.404 59.916c.057.397.298.819.244 1.202a.695.695 0 0 1-.047.172c-.03.072-.077.151-.137.235a1.369 1.369 0 0 1-.124.16c-.84 1.003-3.167 2.574-3.404 2.765-2.078 1.676-4.393 3.277-7.05 3.808-1.563.313-3.204-.073-4.708-.396-.716-.154-1.577-.283-2.251-.586-1.958-.878-4.43-2.625-5.95-4.073-.417-.397-.242-1.85.153-2.047.311-.155.684-.134 1.03-.184.543-.077.834.456 1.265.71 1.237.729 2.516 1.682 3.684 2.547 1.872 1.387 4.835 1.467 7.005 1.067 2.594-.478 5.51-3.261 7.37-4.762.365-.295 1.163-1.341 1.656-1.139z"/><path stroke-width="1.3694" d="M114.824 62.671c.057.398.298.819.244 1.202a.695.695 0 0 1-.048.172c-1.196 2.852-6.067 5.678-7.46 6.75-.433.333-1.05.44-1.532.684-1.636.826-3.05 1.41-4.913 1.591-.212.02-.38.242-.58.238-3.931-.083-8.356-.25-11.67-2.769-.672-.51-1.767-.791-2.496-1.255-1.818-1.157-3.457-2.774-4.846-4.427-.245-.293-.788-.53-.956-.865-.398-.793.11-2.01 1.04-2.174.745-.131 1.497.715 1.93 1.186 1.073 1.166 2.217 2.566 3.562 3.443 4.213 2.747 8.975 4.761 14.081 3.848 4.165-.744 7.144-3.531 10.47-6.17.465-.37 1.128-2.296 1.91-1.974zM103.653 55.813c-.26.222-.628.375-.905.601-.403.33-1.234 1.126-1.897 1.258-.433.087-.906-.025-1.347.032-.823.105-1.523.22-2.335-.108-.834-.337-3.294-2.119-3.173-3.094.162-1.288.615-1.64 1.903-1.48.36.045.997 1.021 1.133 1.176.406.463.941.837 1.565.897.138.013 1.47-.102 1.548-.146.618-.349.974-.921 1.58-1.253.3-.163 1.192-.55 1.469-.231a1.378 1.378 0 0 1 .574 2.22.648.648 0 0 1-.115.128zM100.506 50.585a1.378 1.378 0 1 1-2.175 1.692 1.378 1.378 0 0 1 2.175-1.692z"/></g></svg>