<svg version="1.1" xmlns="http://www.w3.org/2000/svg" xmlns:xlink="http://www.w3.org/1999/xlink" width="599.55644" height="299.3612" viewBox="0,0,599.55644,299.3612"><g transform="translate(59.77822,-30.3194)"><g data-paper-data="{&quot;isPaintingLayer&quot;:true}" fill-rule="nonzero" stroke-linecap="butt" stroke-linejoin="miter" stroke-miterlimit="10" stroke-dasharray="" stroke-dashoffset="0" style="mix-blend-mode: normal"><g fill="#808080" stroke-width="7.5"><path d="M-56.02822,325.9306v-291.8612h592.05644v291.8612z" stroke="#80d1ff"/><path d="M-49.14965,320.01322v-280.02643h578.29931v280.02643z" stroke="#c7ff80"/><path d="M-43.13171,313.11437v-266.22873h566.26342v266.22873z" stroke="#ff8080"/></g><path d="M146.08002,180.00001c0,-51.87058 42.04941,-93.91999 93.91999,-93.91999c51.87058,0 93.91999,42.04941 93.91999,93.91999c0,51.87058 -42.04941,93.91999 -93.91999,93.91999c-51.87058,0 -93.91999,-42.04941 -93.91999,-93.91999z" fill="#808080" stroke="#404040" stroke-width="7.5"/><path d="M138.30758,179.99999c0,-56.16319 45.52925,-101.69244 101.69244,-101.69244c56.16319,0 101.69244,45.52927 101.69244,101.69246c0,56.16319 -45.52925,101.69246 -101.69244,101.69246c-56.16319,0 -101.69244,-45.52927 -101.69244,-101.69246z" fill="none" stroke="#ff8080" stroke-width="7.5"/><path d="M132.04834,180c0,-59.62006 48.33161,-107.95165 107.95167,-107.95165c59.62006,0 107.95167,48.33159 107.95167,107.95165c0,59.62006 -48.33159,107.95167 -107.95167,107.95167c-59.62006,0 -107.95167,-48.33161 -107.95167,-107.95167z" fill="none" stroke="#c7ff80" stroke-width="7.5"/><path d="M125.41842,180c0,-63.28166 51.29991,-114.58157 114.58157,-114.58157c63.28166,0 114.5816,51.29991 114.5816,114.58157c0,63.28166 -51.29994,114.5816 -114.5816,114.5816c-63.28166,0 -114.58157,-51.29994 -114.58157,-114.5816z" fill="none" stroke="#80d1ff" stroke-width="7.5"/><g><path d="M238.0117,194.77182c0,-14.28832 11.58296,-25.87128 25.87128,-25.87128c14.28832,0 25.87128,11.58296 25.87128,25.87128c0,14.28832 -11.58297,25.87128 -25.87128,25.87128c-14.28832,0 -25.87128,-11.58297 -25.87128,-25.87128z" fill="#00a3ff" stroke="#80d1ff" stroke-width="5"/><path d="M215.62309,157.45747c0,-14.28832 11.58297,-25.87128 25.87128,-25.87128c14.28832,0 25.87128,11.58297 25.87128,25.87129c0,14.28832 -11.58297,25.87128 -25.87128,25.87128c-14.28832,0 -25.87128,-11.58296 -25.87128,-25.87128z" fill="#ff0000" stroke="#ff8080" stroke-width="5"/><path d="M193.23448,194.77182c0,-14.28832 11.58297,-25.87128 25.87128,-25.87128c14.28832,0 25.87128,11.58296 25.87128,25.87128c0,14.28832 -11.58296,25.87128 -25.87128,25.87128c-14.28832,0 -25.87128,-11.58297 -25.87128,-25.87128z" fill="#8fff00" stroke="#c7ff80" stroke-width="5"/><path d="M197.69065,157.45747c0,-24.19213 19.61159,-43.80372 43.80372,-43.80372c24.19213,0 43.80372,19.6116 43.80372,43.80373c0,24.19213 -19.61159,43.80373 -43.80372,43.80373c-24.19213,0 -43.80372,-19.6116 -43.80372,-43.80373z" fill="none" stroke="#ff8080" stroke-width="7.5"/><path d="M173.50879,194.77182c0,-25.18251 20.41446,-45.59696 45.59697,-45.59696c25.18251,0 45.59697,20.41445 45.59697,45.59696c0,25.18251 -20.41445,45.59697 -45.59697,45.59697c-25.18251,0 -45.59697,-20.41446 -45.59697,-45.59697z" fill="none" stroke="#c7ff80" stroke-width="7.5"/><path d="M220.07926,194.77182c0,-24.19213 19.61159,-43.80372 43.80372,-43.80372c24.19213,0 43.80373,19.61159 43.80373,43.80372c0,24.19213 -19.6116,43.80373 -43.80373,43.80373c-24.19213,0 -43.80372,-19.6116 -43.80372,-43.80373z" fill="none" stroke="#80d1ff" stroke-width="7.5"/></g><path d="M-4.61607,180.598c0,-24.91902 20.20086,-45.11988 45.11988,-45.11988c24.91902,0 45.11988,20.20086 45.11988,45.11988c0,24.91902 -20.20086,45.11988 -45.11988,45.11988c-24.91902,0 -45.11988,-20.20086 -45.11988,-45.11988z" fill="#808080" stroke="#404040" stroke-width="7.5"/><path d="M-8.35001,180.59799c0,-26.98123 21.8726,-48.85383 48.85383,-48.85383c26.98123,0 48.85383,21.87261 48.85383,48.85384c0,26.98123 -21.8726,48.85384 -48.85383,48.85384c-26.98123,0 -48.85383,-21.87261 -48.85383,-48.85384z" fill="none" stroke="#ff8080" stroke-width="7.5"/><path d="M-11.35699,180.59799c0,-28.64193 23.21888,-51.8608 51.86081,-51.8608c28.64193,0 51.86081,23.21887 51.86081,51.8608c0,28.64193 -23.21887,51.86081 -51.86081,51.86081c-28.64193,0 -51.86081,-23.21888 -51.86081,-51.86081z" fill="none" stroke="#c7ff80" stroke-width="7.5"/><path d="M-14.54206,180.59799c0,-30.401 24.64487,-55.04587 55.04587,-55.04587c30.401,0 55.04588,24.64487 55.04588,55.04587c0,30.401 -24.64488,55.04588 -55.04588,55.04588c-30.401,0 -55.04587,-24.64488 -55.04587,-55.04588z" fill="none" stroke="#80d1ff" stroke-width="7.5"/><path d="M377.2874,117.93087c0,-24.91902 20.20086,-45.11988 45.11988,-45.11988c24.91902,0 45.11988,20.20086 45.11988,45.11988c0,24.91902 -20.20086,45.11988 -45.11988,45.11988c-24.91902,0 -45.11988,-20.20086 -45.11988,-45.11988z" fill="#808080" stroke="#404040" stroke-width="7.5"/><path d="M373.55346,117.93086c0,-26.98123 21.8726,-48.85383 48.85383,-48.85383c26.98123,0 48.85383,21.87261 48.85383,48.85384c0,26.98123 -21.8726,48.85384 -48.85383,48.85384c-26.98123,0 -48.85383,-21.87261 -48.85383,-48.85384z" fill="none" stroke="#ff8080" stroke-width="7.5"/><path d="M370.54648,117.93086c0,-28.64193 23.21888,-51.8608 51.86081,-51.8608c28.64193,0 51.86081,23.21887 51.86081,51.8608c0,28.64193 -23.21887,51.86081 -51.86081,51.86081c-28.64193,0 -51.86081,-23.21888 -51.86081,-51.86081z" fill="none" stroke="#c7ff80" stroke-width="7.5"/><path d="M367.36141,117.93086c0,-30.401 24.64487,-55.04587 55.04587,-55.04587c30.401,0 55.04588,24.64487 55.04588,55.04587c0,30.401 -24.64488,55.04588 -55.04588,55.04588c-30.401,0 -55.04587,-24.64488 -55.04587,-55.04588z" fill="none" stroke="#80d1ff" stroke-width="7.5"/><path d="M377.28741,245.86931c0,-24.91902 20.20086,-45.11988 45.11988,-45.11988c24.91902,0 45.11988,20.20086 45.11988,45.11988c0,24.91902 -20.20086,45.11988 -45.11988,45.11988c-24.91902,0 -45.11988,-20.20086 -45.11988,-45.11988z" fill="#808080" stroke="#404040" stroke-width="7.5"/><path d="M373.55347,245.8693c0,-26.98123 21.8726,-48.85383 48.85383,-48.85383c26.98123,0 48.85383,21.87261 48.85383,48.85384c0,26.98123 -21.8726,48.85384 -48.85383,48.85384c-26.98123,0 -48.85383,-21.87261 -48.85383,-48.85384z" fill="none" stroke="#ff8080" stroke-width="7.5"/><path d="M370.54649,245.8693c0,-28.64193 23.21888,-51.8608 51.86081,-51.8608c28.64193,0 51.86081,23.21887 51.86081,51.8608c0,28.64193 -23.21887,51.86081 -51.86081,51.86081c-28.64193,0 -51.86081,-23.21888 -51.86081,-51.86081z" fill="none" stroke="#c7ff80" stroke-width="7.5"/><path d="M367.36142,245.8693c0,-30.401 24.64487,-55.04587 55.04587,-55.04587c30.401,0 55.04588,24.64487 55.04588,55.04587c0,30.401 -24.64488,55.04588 -55.04588,55.04588c-30.401,0 -55.04587,-24.64488 -55.04587,-55.04588z" fill="none" stroke="#80d1ff" stroke-width="7.5"/><path d="M9.33555,180.53959c0,-17.18445 13.93075,-31.11518 31.11518,-31.11518c17.18445,0 31.11518,13.93075 31.11518,31.1152c0,17.18445 -13.93075,31.11518 -31.11518,31.11518c-17.18445,0 -31.11518,-13.93073 -31.11518,-31.11518z" fill="#ff0000" stroke="#ff8080" stroke-width="5"/><path d="M392.14789,117.37889c0,-16.91289 13.7106,-30.62348 30.62348,-30.62348c16.91289,0 30.62348,13.71059 30.62348,30.62348c0,16.91289 -13.71059,30.62348 -30.62348,30.62348c-16.91289,0 -30.62348,-13.7106 -30.62348,-30.62348z" fill="#8fff00" stroke="#c7ff80" stroke-width="5"/><path d="M392.14789,246.36711c0,-16.91289 13.7106,-30.62348 30.62347,-30.62348c16.91289,0 30.62348,13.71059 30.62348,30.62348c0,16.91288 -13.71059,30.62347 -30.62348,30.62347c-16.91289,0 -30.62347,-13.7106 -30.62347,-30.62347z" fill="#00a3ff" stroke="#80d1ff" stroke-width="5"/></g></g></svg>