<svg version="1.1" xmlns="http://www.w3.org/2000/svg" xmlns:xlink="http://www.w3.org/1999/xlink" width="599.64262" height="299.33144" viewBox="0,0,599.64262,299.33144"><g transform="translate(59.82131,-30.33428)"><g data-paper-data="{&quot;isPaintingLayer&quot;:true}" fill-rule="nonzero" stroke-linejoin="miter" stroke-miterlimit="10" stroke-dasharray="" stroke-dashoffset="0" style="mix-blend-mode: normal"><path d="M-59.82131,329.66572v-299.33144h599.64262v299.33144z" fill="#ff9494" stroke="none" stroke-width="0" stroke-linecap="butt"/><path d="M0.28391,95.97208c-0.40181,4.71025 -47.3503,-22.94811 -44.98398,-26.97406c-4.2152,-3.80852 34.71762,-30.85022 37.57324,-24.95127c4.7601,-2.16257 12.39776,51.54224 7.41074,51.92533z" fill="#ffffff" stroke="#808080" stroke-width="5" stroke-linecap="butt"/><path d="M7.13734,271.87599c4.71025,0.40181 -22.94811,47.3503 -26.97405,44.98398c-3.80852,4.2152 -30.85022,-34.71762 -24.95127,-37.57324c-2.16257,-4.7601 51.54224,-12.39775 51.92533,-7.41074z" fill="#ffffff" stroke="#808080" stroke-width="5" stroke-linecap="butt"/><path d="M483.55294,266.20698c0.40181,-4.71024 47.3503,22.94812 44.98398,26.97406c4.2152,3.80852 -34.71762,30.85023 -37.57324,24.95127c-4.7601,2.16257 -12.39776,-51.54224 -7.41074,-51.92533z" fill="#ffffff" stroke="#808080" stroke-width="5" stroke-linecap="butt"/><path d="M479.27853,84.05032c-4.71024,-0.40181 22.94812,-47.3503 26.97406,-44.98398c3.80852,-4.2152 30.85022,34.71762 24.95127,37.57324c2.16257,4.7601 -51.54224,12.39776 -51.92532,7.41074z" fill="#ffffff" stroke="#808080" stroke-width="5" stroke-linecap="butt"/><path d="" fill="none" stroke="#ffffff" stroke-width="15" stroke-linecap="round"/><g fill="none" stroke="#ffffff" stroke-width="15" stroke-linecap="round"><path d="M5.68095,254.27129v-101.80522"/><path d="M52.894,113.47817v140.79313"/><path d="M76.46808,74.49026v179.78104"/><path d="M29.31991,88.09069v166.18061"/><path d="M96.41539,133.42547v120.84583"/><path d="M119.98947,147.0259v107.2454"/><path d="M143.56356,186.01381v68.25749"/><path d="M167.13763,113.47816v140.79314"/><path d="M187.99164,147.0259v107.2454"/><path d="M209.75232,74.49025v179.78105"/><path d="M231.51302,133.42546v120.84584"/></g><g fill="none" stroke="#ffffff" stroke-width="15" stroke-linecap="round"><path d="M253.91024,152.46607v101.80523"/><path d="M301.12329,113.47816v140.79314"/><path d="M324.69738,74.49025v179.78105"/><path d="M277.54921,88.09069v166.18061"/><path d="M344.64468,133.42546v120.84584"/><path d="M368.21877,147.0259v107.2454"/><path d="M391.79285,186.01381v68.25749"/><path d="M415.36693,113.47816v140.79314"/><path d="M436.22093,147.0259v107.2454"/><path d="M457.98162,74.49025v179.78105"/><path d="M479.74232,133.42546v120.84584"/></g><path d="M68.37577,270.05522c5.86548,0 10.29118,1.62586 13.27708,4.87757c2.98591,3.25171 4.47886,7.86347 4.47886,13.83528c0,5.93637 -1.49295,10.53927 -4.47885,13.8087c-2.98591,3.26943 -7.41159,4.90415 -13.27707,4.90415h-18.36729v-37.42568zM66.51512,298.07132c2.45429,0 4.08457,-0.74426 4.89085,-2.23278c0.81514,-1.49738 1.22272,-3.85421 1.22272,-7.07048c0,-3.20741 -0.40758,-5.55537 -1.22272,-7.0439c-0.80629,-1.49738 -2.43656,-2.24607 -4.89085,-2.24607h-3.29601v18.59323zM104.77535,289.79141c0,-0.8683 -0.19935,-1.54611 -0.59806,-2.03342c-0.38985,-0.49617 -1.00121,-0.74426 -1.83407,-0.74426c-0.79743,0 -1.46194,0.22594 -1.99355,0.67781c-0.52275,0.45187 -0.82401,1.36005 -0.90375,2.72453l-10.99113,-1.59484c0.26581,-3.13653 1.62586,-5.63068 4.08015,-7.48247c2.45429,-1.85179 6.02496,-2.77769 10.71203,-2.77769c3.28715,0 5.99839,0.45631 8.13371,1.36892c2.13532,0.90375 3.7213,2.17076 4.75795,3.80104c1.04551,1.62143 1.56827,3.50866 1.56827,5.66169v8.78494c0,1.55055 0.7354,2.32581 2.2062,2.32581c0.41643,0 0.73983,-0.05759 0.9702,-0.17277l-0.57149,6.69834c-1.39106,0.68224 -3.07007,1.02337 -5.03705,1.02337c-1.78091,0 -3.36246,-0.25695 -4.74466,-0.77084c-1.37333,-0.5139 -2.44986,-1.28916 -3.22955,-2.32581c-0.77084,-1.03665 -1.15626,-2.37012 -1.15626,-4.0004v-0.5582h1.2493c-0.0443,1.43536 -0.50947,2.72895 -1.39549,3.88079c-0.88602,1.15184 -2.06887,2.06887 -3.54852,2.75111c-1.4708,0.68224 -3.14981,1.02336 -5.03705,1.02336c-2.00242,0 -3.69472,-0.30125 -5.07692,-0.90374c-1.3822,-0.61136 -2.43213,-1.48409 -3.14981,-2.6182c-0.71768,-1.13411 -1.07652,-2.47644 -1.07652,-4.02698c0,-2.0733 0.66008,-3.76117 1.98027,-5.06363c1.32904,-1.31132 3.23841,-2.21062 5.72815,-2.69793l9.87475,-2.04672l-0.06644,4.59846l-3.05679,0.73098c-0.78856,0.19493 -1.35561,0.50947 -1.70116,0.94362c-0.33668,0.43415 -0.50503,0.9702 -0.50503,1.60814c0,0.60249 0.18607,1.09424 0.55819,1.47523c0.38099,0.38099 0.91261,0.57149 1.59484,0.57149c0.30125,0 0.59364,-0.05759 0.87716,-0.17277c0.28353,-0.11519 0.52718,-0.28353 0.73097,-0.50504c0.21265,-0.23036 0.37213,-0.50503 0.47846,-0.824c0.11519,-0.31897 0.17278,-0.68667 0.17278,-1.1031zM136.97894,269.49703v26.42125c0,1.28474 0.27466,2.20177 0.82399,2.75111c0.54933,0.54048 1.40878,0.81072 2.57833,0.81072c0.76198,0 1.42649,-0.05316 1.99355,-0.15949c0.56706,-0.11519 1.09424,-0.30567 1.58156,-0.57148l0.57149,7.37616c-0.94804,0.60249 -2.23721,1.07209 -3.86749,1.40878c-1.62143,0.34555 -3.14981,0.51833 -4.58517,0.51833c-2.64035,0 -4.85985,-0.33225 -6.65847,-0.99677c-1.79862,-0.66452 -3.1631,-1.73218 -4.09343,-3.20298c-0.92146,-1.4708 -1.38219,-3.43777 -1.38219,-5.90092v-24.82641l13.03785,-3.62826zM144.12915,279.13253v8.78494h-24.5473v-8.78493zM163.22966,289.79141c0,-0.8683 -0.19935,-1.54611 -0.59806,-2.03342c-0.38985,-0.49617 -1.0012,-0.74426 -1.83407,-0.74426c-0.79743,0 -1.46195,0.22594 -1.99356,0.67781c-0.52275,0.45187 -0.82401,1.36005 -0.90375,2.72453l-10.99113,-1.59484c0.26581,-3.13653 1.62586,-5.63068 4.08015,-7.48247c2.45429,-1.85179 6.02497,-2.77769 10.71204,-2.77769c3.28715,0 5.99838,0.45631 8.1337,1.36892c2.13532,0.90375 3.72131,2.17076 4.75795,3.80104c1.04551,1.62143 1.56826,3.50866 1.56826,5.66169v8.78494c0,1.55055 0.7354,2.32581 2.2062,2.32581c0.41643,0 0.73983,-0.05759 0.9702,-0.17277l-0.57149,6.69834c-1.39106,0.68224 -3.07007,1.02337 -5.03705,1.02337c-1.78091,0 -3.36246,-0.25695 -4.74466,-0.77084c-1.37333,-0.5139 -2.44986,-1.28916 -3.22955,-2.32581c-0.77084,-1.03665 -1.15625,-2.37012 -1.15625,-4.0004v-0.5582h1.24929c-0.0443,1.43536 -0.50947,2.72895 -1.39549,3.88079c-0.88602,1.15184 -2.06887,2.06887 -3.54852,2.75111c-1.4708,0.68224 -3.14981,1.02336 -5.03705,1.02336c-2.00242,0 -3.69472,-0.30125 -5.07692,-0.90374c-1.3822,-0.61136 -2.43213,-1.48409 -3.14981,-2.6182c-0.71768,-1.13411 -1.07652,-2.47644 -1.07652,-4.02698c0,-2.0733 0.66008,-3.76117 1.98027,-5.06363c1.32904,-1.31132 3.23842,-2.21062 5.72816,-2.69793l9.87475,-2.04672l-0.06645,4.59846l-3.05678,0.73098c-0.78856,0.19493 -1.35562,0.50947 -1.70117,0.94362c-0.33668,0.43415 -0.50503,0.9702 -0.50503,1.60814c0,0.60249 0.18607,1.09424 0.55819,1.47523c0.38099,0.38099 0.91261,0.57149 1.59484,0.57149c0.30125,0 0.59364,-0.05759 0.87716,-0.17277c0.28353,-0.11519 0.52719,-0.28353 0.73098,-0.50504c0.21265,-0.23036 0.37213,-0.50503 0.47845,-0.824c0.11519,-0.31897 0.17278,-0.68667 0.17278,-1.1031zM232.23652,307.48089h-13.48972l-1.70117,-7.15022h-10.10068l-1.75433,7.15022h-13.15746l12.13411,-37.42567h15.88199zM208.93851,292.11723h6.18002l-3.07007,-12.98468zM233.87494,307.48089v-28.34834h11.7354l0.57149,12.01449l-1.30246,-1.40878c0.26581,-2.34797 0.85058,-4.35038 1.75433,-6.00725c0.91261,-1.66572 2.13089,-2.9416 3.65486,-3.82763c1.53282,-0.89488 3.35804,-1.34232 5.47563,-1.34232c1.88723,0 3.49094,0.37213 4.81111,1.11639c1.32904,0.7354 2.34353,1.81192 3.0435,3.22957c0.69996,1.41764 1.04994,3.14539 1.04994,5.18325v19.39065h-13.03784v-16.16109c0,-1.20499 -0.17277,-2.02456 -0.51832,-2.45871c-0.33668,-0.43415 -0.84615,-0.65122 -1.52839,-0.65122c-0.60249,0 -1.1031,0.14176 -1.50181,0.42529c-0.39871,0.28353 -0.6911,0.74869 -0.87716,1.39549c-0.18607,0.63794 -0.2791,1.46637 -0.2791,2.4853v14.96496zM284.39062,289.79141c0,-0.8683 -0.19935,-1.54611 -0.59806,-2.03342c-0.38985,-0.49617 -1.0012,-0.74426 -1.83407,-0.74426c-0.79743,0 -1.46195,0.22594 -1.99356,0.67781c-0.52275,0.45187 -0.82401,1.36005 -0.90375,2.72453l-10.99113,-1.59484c0.26581,-3.13653 1.62586,-5.63068 4.08015,-7.48247c2.45429,-1.85179 6.02497,-2.77769 10.71204,-2.77769c3.28715,0 5.99838,0.45631 8.1337,1.36892c2.13532,0.90375 3.7213,2.17076 4.75795,3.80104c1.04551,1.62143 1.56827,3.50866 1.56827,5.66169v8.78494c0,1.55055 0.7354,2.32581 2.2062,2.32581c0.41643,0 0.73983,-0.05759 0.9702,-0.17277l-0.57149,6.69834c-1.39106,0.68224 -3.07007,1.02337 -5.03705,1.02337c-1.78091,0 -3.36246,-0.25695 -4.74466,-0.77084c-1.37333,-0.5139 -2.44986,-1.28916 -3.22955,-2.32581c-0.77084,-1.03665 -1.15625,-2.37012 -1.15625,-4.0004v-0.5582h1.24929c-0.0443,1.43536 -0.50947,2.72895 -1.39549,3.88079c-0.88602,1.15184 -2.06887,2.06887 -3.54852,2.75111c-1.4708,0.68224 -3.14981,1.02336 -5.03705,1.02336c-2.00242,0 -3.69472,-0.30125 -5.07692,-0.90374c-1.3822,-0.61136 -2.43213,-1.48409 -3.14981,-2.6182c-0.71768,-1.13411 -1.07652,-2.47644 -1.07652,-4.02698c0,-2.0733 0.66008,-3.76117 1.98027,-5.06363c1.32904,-1.31132 3.23841,-2.21062 5.72815,-2.69793l9.87475,-2.04672l-0.06645,4.59846l-3.05678,0.73098c-0.78856,0.19493 -1.35562,0.50947 -1.70117,0.94362c-0.33668,0.43415 -0.50503,0.9702 -0.50503,1.60814c0,0.60249 0.18607,1.09424 0.55819,1.47523c0.38099,0.38099 0.91261,0.57149 1.59484,0.57149c0.30125,0 0.59364,-0.05759 0.87716,-0.17277c0.28353,-0.11519 0.52719,-0.28353 0.73098,-0.50504c0.21265,-0.23036 0.37213,-0.50503 0.47845,-0.824c0.11519,-0.31897 0.17278,-0.68667 0.17278,-1.1031zM315.41582,267.79585v28.40152c0,1.13411 0.16835,1.96698 0.50503,2.49859c0.33668,0.52275 0.93919,0.78413 1.80749,0.78413c0.41643,0 0.78413,-0.02658 1.1031,-0.07974c0.32783,-0.05316 0.64237,-0.11961 0.94362,-0.19935l-0.57148,7.0306c-0.71768,0.53161 -1.7499,0.96577 -3.09665,1.30246c-1.3379,0.34555 -2.64921,0.51833 -3.93395,0.51833c-3.50866,0 -6.02053,-0.75754 -7.53563,-2.27264c-1.5151,-1.5151 -2.27265,-4.04914 -2.27265,-7.60209v-30.38178zM353.11757,279.13253l-8.33306,25.17196c-1.24929,3.73902 -2.64035,6.73379 -4.17317,8.98429c-1.53282,2.2505 -3.36689,3.87635 -5.50221,4.87757c-2.13532,1.00121 -4.73137,1.50182 -7.78816,1.50182c-1.81635,0 -3.46436,-0.17277 -4.94402,-0.51832c-1.4708,-0.33668 -2.73339,-0.78856 -3.78775,-1.35562l2.37898,-8.21345c0.60249,0.33668 1.25373,0.58035 1.95369,0.73098c0.69996,0.15062 1.73218,0.22594 3.09666,0.22594c1.20499,0 2.09988,-0.11519 2.68466,-0.34555c0.58478,-0.22151 0.99235,-0.61579 1.22271,-1.18284l0.17278,-0.45187l-3.5751,-8.33305l-8.10713,-21.09181h14.23399l2.55175,14.6327l1.07653,6.6319l1.24929,-6.69834l2.83085,-14.56624zM367.40658,308.05238c-2.7644,0 -5.42246,-0.37656 -7.97422,-1.12968c-2.55175,-0.76198 -4.77124,-1.90052 -6.65847,-3.41562l4.65163,-6.73821c1.01893,0.90375 2.35682,1.70559 4.01369,2.40556c1.66572,0.69996 3.33146,1.04994 4.99718,1.04994c0.6468,0 1.22272,-0.07531 1.72775,-0.22593c0.5139,-0.15062 0.77084,-0.41642 0.77084,-0.79742c0,-0.30125 -0.14176,-0.52718 -0.42529,-0.67781c-0.28353,-0.15062 -0.89932,-0.30125 -1.84736,-0.45187l-2.03342,-0.39871c-4.12001,-0.79743 -7.0306,-1.93153 -8.73177,-3.40234c-1.70116,-1.4708 -2.55175,-3.45549 -2.55175,-5.95408c0,-1.55055 0.5006,-3.07007 1.50181,-4.55859c1.00121,-1.49738 2.59605,-2.73782 4.78453,-3.72131c2.19734,-0.98349 5.09022,-1.47522 8.67862,-1.47522c2.95046,0 5.59525,0.37213 7.93435,1.11639c2.34797,0.7354 4.25735,1.74547 5.72815,3.03021l-4.47884,6.45911c-1.06323,-0.83287 -2.41884,-1.5018 -4.06685,-2.00684c-1.63914,-0.5139 -3.13653,-0.77084 -4.49215,-0.77084c-0.61136,0 -1.10753,0.03988 -1.48852,0.11962c-0.37213,0.07088 -0.64236,0.17278 -0.8107,0.30568c-0.16835,0.1329 -0.25252,0.29239 -0.25252,0.47846c0,0.26581 0.18607,0.5139 0.55819,0.74426c0.38099,0.22151 1.12083,0.42972 2.2195,0.62465l4.02698,0.67781c3.05678,0.48732 5.29399,1.47081 6.71163,2.95046c1.41764,1.4708 2.12646,3.28273 2.12646,5.43577c0,1.85179 -0.5006,3.56182 -1.50181,5.13008c-1.00121,1.56826 -2.56947,2.82642 -4.70479,3.77446c-2.13532,0.94804 -4.93958,1.42207 -8.4128,1.42207zM391.38386,277.31176c-2.56947,0 -4.39469,-0.412 -5.47563,-1.236c-1.07209,-0.83287 -1.60813,-2.23278 -1.60813,-4.19975c0,-2.00242 0.53604,-3.4112 1.60813,-4.22634c1.08095,-0.81514 2.90617,-1.22272 5.47563,-1.22272c2.56947,0 4.39025,0.40758 5.46234,1.22272c1.08095,0.81514 1.62143,2.22392 1.62143,4.22634c0,1.96698 -0.54048,3.36689 -1.62143,4.19975c-1.07209,0.824 -2.89287,1.23601 -5.46234,1.23601zM397.90944,279.13253v28.34836h-13.05114v-28.34834zM415.37204,308.05238c-2.7644,0 -5.42247,-0.37656 -7.97422,-1.12968c-2.55175,-0.76198 -4.77123,-1.90052 -6.65846,-3.41562l4.65163,-6.73821c1.01893,0.90375 2.35682,1.70559 4.01369,2.40556c1.66572,0.69996 3.33146,1.04994 4.99718,1.04994c0.6468,0 1.22271,-0.07531 1.72775,-0.22593c0.5139,-0.15062 0.77084,-0.41642 0.77084,-0.79742c0,-0.30125 -0.14176,-0.52718 -0.42529,-0.67781c-0.28353,-0.15062 -0.89932,-0.30125 -1.84736,-0.45187l-2.03342,-0.39871c-4.12001,-0.79743 -7.0306,-1.93153 -8.73177,-3.40234c-1.70116,-1.4708 -2.55175,-3.45549 -2.55175,-5.95408c0,-1.55055 0.5006,-3.07007 1.50181,-4.55859c1.00121,-1.49738 2.59605,-2.73782 4.78453,-3.72131c2.19734,-0.98349 5.09022,-1.47522 8.67862,-1.47522c2.95046,0 5.59525,0.37213 7.93435,1.11639c2.34797,0.7354 4.25735,1.74547 5.72815,3.03021l-4.47884,6.45911c-1.06323,-0.83287 -2.41885,-1.5018 -4.06686,-2.00684c-1.63914,-0.5139 -3.13652,-0.77084 -4.49214,-0.77084c-0.61136,0 -1.10753,0.03988 -1.48852,0.11962c-0.37213,0.07088 -0.64237,0.17278 -0.81071,0.30568c-0.16835,0.1329 -0.25251,0.29239 -0.25251,0.47846c0,0.26581 0.18607,0.5139 0.55819,0.74426c0.38099,0.22151 1.12082,0.42972 2.21949,0.62465l4.02699,0.67781c3.05678,0.48732 5.29399,1.47081 6.71163,2.95046c1.41764,1.4708 2.12646,3.28273 2.12646,5.43577c0,1.85179 -0.5006,3.56182 -1.50181,5.13008c-1.00121,1.56826 -2.56947,2.82642 -4.70479,3.77446c-2.13532,0.94804 -4.93958,1.42207 -8.4128,1.42207z" fill="#5c5c5c" stroke="none" stroke-width="1" stroke-linecap="square"/><g stroke-linecap="butt"><path d="M272.83008,209.6412c-12.17186,-21.30726 -4.76616,-48.44744 16.54109,-60.61931c21.30726,-12.17186 48.44744,-4.76616 60.61931,16.54109c12.17186,21.30726 4.76616,48.44744 -16.54109,60.61931c-21.30726,12.17186 -48.44744,4.76616 -60.61931,-16.54109z" fill-opacity="0.5" fill="#595959" stroke="#4e4e4e" stroke-width="4"/><path d="M303.17694,160.06c2.99509,-3.41104 10.20006,-3.85469 16.83944,-2.9055c6.65353,0.95121 13.756,8.3703 11.93703,12.53976c-1.3223,3.031 -5.74441,-3.95591 -13.12012,-6.01167c-6.46718,-1.80253 -18.19733,-0.72875 -15.65635,-3.62261z" fill-opacity="0.70469" fill="#ffffff" stroke="none" stroke-width="0"/><path d="M306.02499,169.3622c1.8384,-2.0937 6.26082,-2.36601 10.33609,-1.7834c4.08396,0.58385 8.44347,5.13771 7.32698,7.69694c-0.81163,1.86044 -3.52594,-2.42814 -8.05316,-3.68999c-3.96957,-1.1064 -11.16958,-0.4473 -9.60992,-2.22356z" fill-opacity="0.70469" fill="#ffffff" stroke="none" stroke-width="0"/><path d="M397.15424,261.54018l-55.458,-39.33097l11.12652,-15.68877l55.458,39.33097z" fill="#808080" stroke="#4e4e4e" stroke-width="4"/><path d="M350.80271,225.86412l-5.90563,-4.1883l8.4496,-11.91422l5.90563,4.1883z" fill="#ffffff" stroke="none" stroke-width="0"/></g></g></g></svg>