<?xml version="1.0" encoding="UTF-8" standalone="no"?>
<!DOCTYPE svg PUBLIC "-//W3C//DTD SVG 1.1//EN" "http://www.w3.org/Graphics/SVG/1.1/DTD/svg11.dtd">
<!-- Created with Vectornator (http://vectornator.io/) -->
<svg height="100%" stroke-miterlimit="10" style="" version="1.1" viewBox="0 0 600 300" width="100%" xml:space="preserve" xmlns="http://www.w3.org/2000/svg" xmlns:xlink="http://www.w3.org/1999/xlink">
<defs>
<filter color-interpolation-filters="sRGB" filterUnits="userSpaceOnUse" height="325" id="Filter" width="625" x="-12.5" y="-12.5">
<feDropShadow dx="0" dy="0" flood-color="#262626" flood-opacity="0.5" in="SourceGraphic" result="Shadow" stdDeviation="5"/>
</filter>
<path d="M317.727 147.199C316.94 147.407 317.207 150.868 317.44 151.747L318.151 154.434C315.864 155.333 313.537 156.277 311.68 157.743L309.959 156.069C309.318 155.424 306.462 153.379 305.885 153.952L304.038 155.825C303.461 156.399 305.352 159.348 305.993 159.993L308.018 162.013C306.513 163.907 305.302 165.833 304.406 168.08L301.775 167.392C300.897 167.153 297.372 166.869 297.159 167.654L296.445 170.186C296.232 170.971 299.448 172.541 300.325 172.779L302.632 173.447C302.288 175.759 302.584 178.206 302.929 180.609L300.243 181.32C299.363 181.552 296.224 183.032 296.432 183.819L297.116 186.406C297.325 187.193 300.785 186.926 301.664 186.693L304.451 185.956C305.348 188.224 306.179 190.51 307.634 192.354L305.96 194.075C305.315 194.716 303.296 197.671 303.87 198.248L305.743 200.095C306.317 200.672 309.239 198.682 309.884 198.041L311.805 196.042C313.706 197.566 315.71 198.72 317.971 199.628L317.21 202.385C316.971 203.263 316.787 206.761 317.572 206.974L320.104 207.688C320.889 207.901 322.359 204.712 322.598 203.834L323.265 201.528C325.604 201.884 328.094 201.553 330.526 201.204L331.237 203.89C331.47 204.77 332.949 207.909 333.736 207.701L336.323 207.017C337.11 206.808 336.843 203.348 336.611 202.469L335.873 199.682C338.142 198.785 340.427 197.955 342.272 196.499L343.992 198.173C344.633 198.818 347.588 200.837 348.166 200.263L350.013 198.39C350.59 197.816 348.6 194.894 347.958 194.249L345.933 192.229C347.444 190.327 348.622 188.32 349.519 186.063L352.276 186.824C353.154 187.062 356.678 187.346 356.891 186.561L357.506 184.056C357.719 183.27 354.603 181.674 353.725 181.436L351.419 180.768C351.772 178.446 351.364 176.047 351.022 173.633L353.709 172.922C354.588 172.69 357.827 171.184 357.619 170.397L356.934 167.81C356.726 167.023 353.166 167.316 352.287 167.549L349.699 168.233C348.801 165.947 347.856 163.619 346.39 161.762L348.09 160.141C348.736 159.5 350.655 156.571 350.081 155.994L348.308 154.121C347.734 153.543 344.811 155.533 344.166 156.175L342.147 158.2C340.243 156.672 338.244 155.523 335.98 154.614L336.742 151.857C336.98 150.979 337.264 147.455 336.479 147.242L333.947 146.527C333.162 146.314 331.592 149.53 331.354 150.408L330.686 152.714C328.363 152.361 325.966 152.769 323.551 153.111L322.813 150.325C322.581 149.446 321.101 146.306 320.314 146.514L317.727 147.199ZM322.602 160.39C331.835 157.947 341.3 163.451 343.743 172.684C346.186 181.917 340.682 191.382 331.449 193.825C322.216 196.269 312.751 190.764 310.308 181.531C307.864 172.298 313.369 162.833 322.602 160.39Z" id="Fill"/>
<path d="M278.248 92.2889C277.274 92.2889 276.522 96.3775 276.522 97.467L276.522 100.796C273.599 101.136 270.615 101.516 268.015 102.645L266.536 100.179C265.991 99.2358 263.312 95.9933 262.467 96.4807L259.755 98.0834C258.911 98.5708 260.197 102.565 260.741 103.508L262.467 106.467C260.145 108.199 258.153 110.058 256.426 112.385L253.591 110.782C252.647 110.237 248.653 108.828 248.166 109.672L246.563 112.385C246.076 113.229 249.319 116.032 250.262 116.577L252.728 118.056C251.622 120.628 251.214 123.552 250.878 126.44L247.55 126.44C246.46 126.44 242.372 127.191 242.372 128.166L242.372 131.371C242.372 132.346 246.46 133.097 247.55 133.097L251.002 133.097C251.345 135.998 251.607 138.899 252.728 141.481L250.262 142.96C249.318 143.505 246.076 146.308 246.563 147.152L248.166 149.864C248.653 150.708 252.647 149.299 253.591 148.755L256.426 147.029C258.16 149.376 260.128 151.326 262.467 153.07L260.741 156.029C260.197 156.972 258.911 160.966 259.755 161.453L262.467 163.056C263.312 163.543 265.991 160.301 266.536 159.357L268.015 156.892C270.615 158.02 273.599 158.401 276.522 158.741L276.522 162.07C276.522 163.159 277.274 167.248 278.248 167.248L281.454 167.248C282.429 167.248 283.18 163.159 283.18 162.07L283.18 158.618C286.081 158.274 288.982 158.013 291.563 156.892L293.043 159.357C293.588 160.301 296.39 163.543 297.235 163.056L299.947 161.453C300.791 160.966 299.382 156.972 298.837 156.029L297.111 153.07C299.443 151.331 301.422 149.367 303.152 147.029L306.111 148.755C307.055 149.299 311.049 150.708 311.536 149.864L313.015 147.152C313.503 146.308 310.383 143.505 309.44 142.96L306.974 141.481C308.094 138.9 308.357 135.997 308.7 133.097L312.029 133.097C313.119 133.097 317.331 132.346 317.33 131.371L317.33 128.166C317.33 127.191 313.118 126.44 312.029 126.44L308.824 126.44C308.483 123.517 308.103 120.532 306.974 117.933L309.44 116.577C310.384 116.032 313.503 113.229 313.015 112.385L311.536 109.672C311.049 108.828 307.055 110.237 306.111 110.782L303.152 112.508C301.417 110.157 299.454 108.214 297.111 106.467L298.837 103.508C299.382 102.565 300.791 98.5708 299.947 98.0834L297.235 96.4807C296.39 95.9933 293.587 99.2358 293.043 100.179L291.563 102.645C288.981 101.524 286.082 101.263 283.18 100.919L283.18 97.467C283.18 96.3775 282.429 92.2889 281.454 92.2889L278.248 92.2889ZM279.851 109.056C291.29 109.056 300.563 118.329 300.563 129.768C300.563 141.207 291.29 150.481 279.851 150.481C268.412 150.481 259.139 141.207 259.139 129.768C259.139 118.329 268.412 109.056 279.851 109.056Z" id="Fill_2"/>
</defs>
<clipPath id="ArtboardFrame">
<rect height="300" width="600" x="0" y="0"/>
</clipPath>
<g clip-path="url(#ArtboardFrame)" id="Background">
<path d="M0 0L600 0L600 300L0 300L0 0Z" fill="#6595ed" fill-rule="nonzero" filter="url(#Filter)" stroke="none"/>
<g opacity="1">
<path d="M217.898 282.71L172.985 237.797L219.408 191.373L264.322 236.287L217.898 282.71Z" fill="none" opacity="1" stroke="#6da0ff" stroke-linecap="butt" stroke-linejoin="miter" stroke-width="25"/>
<path d="M300.547 198.846L255.633 153.933L302.057 107.509L346.97 152.423L300.547 198.846Z" fill="none" opacity="1" stroke="#6da0ff" stroke-linecap="butt" stroke-linejoin="miter" stroke-width="25"/>
<path d="M386.445 111.336L341.531 66.4223L387.955 19.999L432.868 64.9126L386.445 111.336Z" fill="none" opacity="1" stroke="#6da0ff" stroke-linecap="butt" stroke-linejoin="miter" stroke-width="25"/>
<path d="M391.125 282.71L346.212 237.797L392.635 191.373L437.548 236.287L391.125 282.71Z" fill="none" opacity="1" stroke="#6da0ff" stroke-linecap="butt" stroke-linejoin="miter" stroke-width="25"/>
<path d="M473.774 198.846L428.86 153.933L475.283 107.509L520.197 152.423L473.774 198.846Z" fill="none" opacity="1" stroke="#6da0ff" stroke-linecap="butt" stroke-linejoin="miter" stroke-width="25"/>
<path d="M559.672 111.336L514.758 66.4223L561.181 19.999L606.095 64.9126L559.672 111.336Z" fill="none" opacity="1" stroke="#6da0ff" stroke-linecap="butt" stroke-linejoin="miter" stroke-width="25"/>
<path d="M557.279 282.71L512.365 237.797L558.789 191.373L603.702 236.287L557.279 282.71Z" fill="none" opacity="1" stroke="#6da0ff" stroke-linecap="butt" stroke-linejoin="miter" stroke-width="25"/>
<path d="M639.928 198.846L595.014 153.933L641.437 107.509L686.351 152.423L639.928 198.846Z" fill="none" opacity="1" stroke="#6da0ff" stroke-linecap="butt" stroke-linejoin="miter" stroke-width="25"/>
<path d="M51.1473 282.71L6.23375 237.797L52.657 191.373L97.5706 236.287L51.1473 282.71Z" fill="none" opacity="1" stroke="#6da0ff" stroke-linecap="butt" stroke-linejoin="miter" stroke-width="25"/>
<path d="M133.796 198.846L88.8824 153.933L135.306 107.509L180.219 152.423L133.796 198.846Z" fill="none" opacity="1" stroke="#6da0ff" stroke-linecap="butt" stroke-linejoin="miter" stroke-width="25"/>
<path d="M219.694 111.336L174.78 66.4223L221.204 19.999L266.117 64.9126L219.694 111.336Z" fill="none" opacity="1" stroke="#6da0ff" stroke-linecap="butt" stroke-linejoin="miter" stroke-width="25"/>
<path d="M-41.4372 198.846L-86.3508 153.933L-39.9275 107.509L4.98605 152.423L-41.4372 198.846Z" fill="none" opacity="1" stroke="#6da0ff" stroke-linecap="butt" stroke-linejoin="miter" stroke-width="25"/>
<path d="M44.4608 111.336L-0.452737 66.4223L45.9705 19.999L90.8841 64.9126L44.4608 111.336Z" fill="none" opacity="1" stroke="#6da0ff" stroke-linecap="butt" stroke-linejoin="miter" stroke-width="25"/>
<path d="M300.547 26.3368L255.633-18.5767L302.057-65L346.97-20.0864L300.547 26.3368Z" fill="none" opacity="1" stroke="#6da0ff" stroke-linecap="butt" stroke-linejoin="miter" stroke-width="25"/>
<path d="M473.774 26.3368L428.86-18.5767L475.283-65L520.197-20.0864L473.774 26.3368Z" fill="none" opacity="1" stroke="#6da0ff" stroke-linecap="butt" stroke-linejoin="miter" stroke-width="25"/>
<path d="M133.796 26.3368L88.8824-18.5767L135.306-65L180.219-20.0864L133.796 26.3368Z" fill="none" opacity="1" stroke="#6da0ff" stroke-linecap="butt" stroke-linejoin="miter" stroke-width="25"/>
<path d="M300.547 365L255.633 320.086L302.057 273.663L346.97 318.577L300.547 365Z" fill="none" opacity="1" stroke="#6da0ff" stroke-linecap="butt" stroke-linejoin="miter" stroke-width="25"/>
<path d="M473.774 365L428.86 320.086L475.283 273.663L520.197 318.577L473.774 365Z" fill="none" opacity="1" stroke="#6da0ff" stroke-linecap="butt" stroke-linejoin="miter" stroke-width="25"/>
<path d="M133.796 365L88.8824 320.086L135.306 273.663L180.219 318.577L133.796 365Z" fill="none" opacity="1" stroke="#6da0ff" stroke-linecap="butt" stroke-linejoin="miter" stroke-width="25"/>
</g>
</g>
<g id="Main">
<g fill="#404040" opacity="0" stroke="none">
<path d="M57.9873 164L57.9873 150.506L46.1748 150.506L46.1748 164L39.9199 164L39.9199 133.771L46.1748 133.771L46.1748 145.297L57.9873 145.297L57.9873 133.771L64.2627 133.771L64.2627 164L57.9873 164Z"/>
<path d="M88.9541 157.438C88.8037 158.764 88.1133 160.11 86.8828 161.478C84.9687 163.651 82.2891 164.738 78.8438 164.738C76 164.738 73.4912 163.822 71.3174 161.99C69.1436 160.158 68.0566 157.178 68.0566 153.049C68.0566 149.18 69.0376 146.213 70.9995 144.148C72.9614 142.084 75.5078 141.052 78.6387 141.052C80.498 141.052 82.1729 141.4 83.6631 142.098C85.1533 142.795 86.3838 143.896 87.3545 145.399C88.2295 146.726 88.7969 148.264 89.0566 150.014C89.207 151.039 89.2686 152.516 89.2412 154.443L73.9424 154.443C74.0244 156.686 74.7285 158.258 76.0547 159.16C76.8613 159.721 77.832 160.001 78.9668 160.001C80.1699 160.001 81.1475 159.659 81.8994 158.976C82.3096 158.606 82.6719 158.094 82.9863 157.438L88.9541 157.438ZM83.1709 150.588C83.0752 149.043 82.6069 147.871 81.7661 147.071C80.9253 146.271 79.8828 145.871 78.6387 145.871C77.2852 145.871 76.2358 146.295 75.4907 147.143C74.7456 147.99 74.2773 149.139 74.0859 150.588L83.1709 150.588Z"/>
<path d="M93.3018 133.771L99.1465 133.771L99.1465 164L93.3018 164L93.3018 133.771Z"/>
<path d="M104.971 133.771L110.815 133.771L110.815 164L104.971 164L104.971 133.771Z"/>
<path d="M135.158 144.477C137.045 146.842 137.988 149.638 137.988 152.864C137.988 156.146 137.045 158.952 135.158 161.283C133.271 163.614 130.407 164.779 126.565 164.779C122.724 164.779 119.859 163.614 117.973 161.283C116.086 158.952 115.143 156.146 115.143 152.864C115.143 149.638 116.086 146.842 117.973 144.477C119.859 142.111 122.724 140.929 126.565 140.929C130.407 140.929 133.271 142.111 135.158 144.477ZM126.545 145.871C124.836 145.871 123.52 146.476 122.597 147.686C121.674 148.896 121.213 150.622 121.213 152.864C121.213 155.106 121.674 156.836 122.597 158.053C123.52 159.27 124.836 159.878 126.545 159.878C128.254 159.878 129.566 159.27 130.482 158.053C131.398 156.836 131.856 155.106 131.856 152.864C131.856 150.622 131.398 148.896 130.482 147.686C129.566 146.476 128.254 145.871 126.545 145.871Z"/>
<path d="M178.266 133.771L184.685 133.771L176.174 164L170.145 164L166.494 146.322L165.428 140.478L164.361 146.322L160.711 164L154.846 164L146.273 133.771L152.979 133.771L156.979 151.08L157.84 155.899L158.722 151.183L162.126 133.771L168.791 133.771L172.38 151.08L173.303 155.899L174.226 151.265L178.266 133.771Z"/>
<path d="M205.931 144.477C207.817 146.842 208.761 149.638 208.761 152.864C208.761 156.146 207.817 158.952 205.931 161.283C204.044 163.614 201.18 164.779 197.338 164.779C193.496 164.779 190.632 163.614 188.745 161.283C186.858 158.952 185.915 156.146 185.915 152.864C185.915 149.638 186.858 146.842 188.745 144.477C190.632 142.111 193.496 140.929 197.338 140.929C201.18 140.929 204.044 142.111 205.931 144.477ZM197.317 145.871C195.608 145.871 194.292 146.476 193.37 147.686C192.447 148.896 191.985 150.622 191.985 152.864C191.985 155.106 192.447 156.836 193.37 158.053C194.292 159.27 195.608 159.878 197.317 159.878C199.026 159.878 200.339 159.27 201.255 158.053C202.171 156.836 202.629 155.106 202.629 152.864C202.629 150.622 202.171 148.896 201.255 147.686C200.339 146.476 199.026 145.871 197.317 145.871Z"/>
<path d="M224.183 147.04C221.831 147.04 220.252 147.806 219.445 149.337C218.994 150.198 218.769 151.524 218.769 153.315L218.769 164L212.883 164L212.883 141.646L218.461 141.646L218.461 145.543C219.363 144.053 220.149 143.034 220.819 142.487C221.913 141.571 223.335 141.113 225.085 141.113C225.194 141.113 225.287 141.117 225.362 141.124C225.437 141.13 225.604 141.141 225.864 141.154L225.864 147.143C225.495 147.102 225.167 147.074 224.88 147.061C224.593 147.047 224.36 147.04 224.183 147.04Z"/>
<path d="M391.547 149.665L385.559 149.665C385.449 148.831 385.169 148.079 384.718 147.409C384.062 146.507 383.043 146.056 381.662 146.056C379.693 146.056 378.347 147.033 377.622 148.988C377.239 150.027 377.048 151.408 377.048 153.131C377.048 154.771 377.239 156.091 377.622 157.089C378.319 158.948 379.632 159.878 381.56 159.878C382.927 159.878 383.897 159.509 384.472 158.771C385.046 158.032 385.395 157.075 385.518 155.899L391.485 155.899C391.349 157.677 390.706 159.358 389.558 160.944C387.726 163.501 385.012 164.779 381.416 164.779C377.82 164.779 375.175 163.713 373.479 161.58C371.784 159.447 370.937 156.679 370.937 153.274C370.937 149.433 371.873 146.445 373.746 144.312C375.619 142.18 378.203 141.113 381.498 141.113C384.301 141.113 386.594 141.742 388.378 143C390.163 144.258 391.219 146.479 391.547 149.665Z"/>
<path d="M408.117 147.799C407.625 146.719 406.661 146.179 405.226 146.179C403.558 146.179 402.437 146.719 401.862 147.799C401.548 148.414 401.391 149.33 401.391 150.547L401.391 164L395.464 164L395.464 141.688L401.145 141.688L401.145 144.948C401.869 143.786 402.553 142.959 403.195 142.467C404.33 141.592 405.8 141.154 407.604 141.154C409.313 141.154 410.694 141.53 411.747 142.282C412.595 142.979 413.237 143.875 413.675 144.969C414.44 143.656 415.391 142.692 416.525 142.077C417.729 141.462 419.068 141.154 420.545 141.154C421.529 141.154 422.5 141.346 423.457 141.729C424.414 142.111 425.282 142.781 426.062 143.738C426.69 144.518 427.114 145.475 427.333 146.609C427.47 147.361 427.538 148.462 427.538 149.911L427.497 164L421.509 164L421.509 149.768C421.509 148.92 421.372 148.223 421.099 147.676C420.579 146.637 419.622 146.117 418.228 146.117C416.614 146.117 415.5 146.787 414.885 148.127C414.57 148.838 414.413 149.692 414.413 150.69L414.413 164L408.527 164L408.527 150.69C408.527 149.364 408.391 148.4 408.117 147.799Z"/>
<path d="M452.824 164L445.544 164L441.688 157.294L437.812 164L430.717 164L438.346 152.68L431.045 141.688L438.202 141.688L441.935 148.168L445.585 141.688L452.537 141.688L445.195 152.577L452.824 164Z"/>
<path d="M476.777 164L469.723 164L464.37 154.443L461.95 156.966L461.95 164L456.208 164L456.208 133.874L461.95 133.874L461.95 150.157L469.23 141.749L476.47 141.749L468.656 150.301L476.777 164Z"/>
<path d="M479.607 133.771L485.883 133.771L485.883 164L479.607 164L479.607 133.771Z"/>
<path d="M509.938 164.164C508.585 164.615 506.965 164.841 505.078 164.841C501.141 164.841 497.887 163.665 495.316 161.313C492.199 158.483 490.641 154.327 490.641 148.845C490.641 143.321 492.24 139.145 495.439 136.314C498.051 134.004 501.298 132.849 505.181 132.849C509.091 132.849 512.372 134.072 515.024 136.52C518.087 139.35 519.618 143.308 519.618 148.394C519.618 151.087 519.29 153.343 518.634 155.161C518.101 156.897 517.314 158.34 516.275 159.488L519.762 162.749L516.46 166.194L512.81 162.749C511.702 163.419 510.745 163.891 509.938 164.164ZM508.585 158.709L505.529 155.797L508.79 152.393L511.846 155.305C512.324 154.32 512.659 153.459 512.851 152.721C513.151 151.613 513.302 150.321 513.302 148.845C513.302 145.454 512.608 142.833 511.22 140.98C509.833 139.127 507.806 138.201 505.14 138.201C502.638 138.201 500.642 139.09 499.151 140.867C497.661 142.645 496.916 145.304 496.916 148.845C496.916 152.987 497.982 155.954 500.115 157.745C501.496 158.907 503.15 159.488 505.078 159.488C505.803 159.488 506.5 159.399 507.17 159.222C507.539 159.126 508.011 158.955 508.585 158.709Z"/>
<path d="M539.08 151.49L524.314 151.49L524.314 148.968L539.08 148.968L539.08 151.49ZM539.08 158.196L524.314 158.196L524.314 155.674L539.08 155.674L539.08 158.196Z"/>
<path d="M560.08 151.49L545.314 151.49L545.314 148.968L560.08 148.968L560.08 151.49ZM560.08 158.196L545.314 158.196L545.314 155.674L560.08 155.674L560.08 158.196Z"/>
</g>
<g fill="#ffffff" opacity="1" stroke="none">
<path d="M57.9873 164L57.9873 150.506L46.1748 150.506L46.1748 164L39.9199 164L39.9199 133.771L46.1748 133.771L46.1748 145.297L57.9873 145.297L57.9873 133.771L64.2627 133.771L64.2627 164L57.9873 164Z"/>
<path d="M88.9541 157.438C88.8037 158.764 88.1133 160.11 86.8828 161.478C84.9687 163.651 82.2891 164.738 78.8438 164.738C76 164.738 73.4912 163.822 71.3174 161.99C69.1436 160.158 68.0566 157.178 68.0566 153.049C68.0566 149.18 69.0376 146.213 70.9995 144.148C72.9614 142.084 75.5078 141.052 78.6387 141.052C80.498 141.052 82.1729 141.4 83.6631 142.098C85.1533 142.795 86.3838 143.896 87.3545 145.399C88.2295 146.726 88.7969 148.264 89.0566 150.014C89.207 151.039 89.2686 152.516 89.2412 154.443L73.9424 154.443C74.0244 156.686 74.7285 158.258 76.0547 159.16C76.8613 159.721 77.832 160.001 78.9668 160.001C80.1699 160.001 81.1475 159.659 81.8994 158.976C82.3096 158.606 82.6719 158.094 82.9863 157.438L88.9541 157.438ZM83.1709 150.588C83.0752 149.043 82.6069 147.871 81.7661 147.071C80.9253 146.271 79.8828 145.871 78.6387 145.871C77.2852 145.871 76.2358 146.295 75.4907 147.143C74.7456 147.99 74.2773 149.139 74.0859 150.588L83.1709 150.588Z"/>
<path d="M93.3018 133.771L99.1465 133.771L99.1465 164L93.3018 164L93.3018 133.771Z"/>
<path d="M104.971 133.771L110.815 133.771L110.815 164L104.971 164L104.971 133.771Z"/>
<path d="M135.158 144.477C137.045 146.842 137.988 149.638 137.988 152.864C137.988 156.146 137.045 158.952 135.158 161.283C133.271 163.614 130.407 164.779 126.565 164.779C122.724 164.779 119.859 163.614 117.973 161.283C116.086 158.952 115.143 156.146 115.143 152.864C115.143 149.638 116.086 146.842 117.973 144.477C119.859 142.111 122.724 140.929 126.565 140.929C130.407 140.929 133.271 142.111 135.158 144.477ZM126.545 145.871C124.836 145.871 123.52 146.476 122.597 147.686C121.674 148.896 121.213 150.622 121.213 152.864C121.213 155.106 121.674 156.836 122.597 158.053C123.52 159.27 124.836 159.878 126.545 159.878C128.254 159.878 129.566 159.27 130.482 158.053C131.398 156.836 131.856 155.106 131.856 152.864C131.856 150.622 131.398 148.896 130.482 147.686C129.566 146.476 128.254 145.871 126.545 145.871Z"/>
<path d="M178.266 133.771L184.685 133.771L176.174 164L170.145 164L166.494 146.322L165.428 140.478L164.361 146.322L160.711 164L154.846 164L146.273 133.771L152.979 133.771L156.979 151.08L157.84 155.899L158.722 151.183L162.126 133.771L168.791 133.771L172.38 151.08L173.303 155.899L174.226 151.265L178.266 133.771Z"/>
<path d="M205.931 144.477C207.817 146.842 208.761 149.638 208.761 152.864C208.761 156.146 207.817 158.952 205.931 161.283C204.044 163.614 201.18 164.779 197.338 164.779C193.496 164.779 190.632 163.614 188.745 161.283C186.858 158.952 185.915 156.146 185.915 152.864C185.915 149.638 186.858 146.842 188.745 144.477C190.632 142.111 193.496 140.929 197.338 140.929C201.18 140.929 204.044 142.111 205.931 144.477ZM197.317 145.871C195.608 145.871 194.292 146.476 193.37 147.686C192.447 148.896 191.985 150.622 191.985 152.864C191.985 155.106 192.447 156.836 193.37 158.053C194.292 159.27 195.608 159.878 197.317 159.878C199.026 159.878 200.339 159.27 201.255 158.053C202.171 156.836 202.629 155.106 202.629 152.864C202.629 150.622 202.171 148.896 201.255 147.686C200.339 146.476 199.026 145.871 197.317 145.871Z"/>
<path d="M224.183 147.04C221.831 147.04 220.252 147.806 219.445 149.337C218.994 150.198 218.769 151.524 218.769 153.315L218.769 164L212.883 164L212.883 141.646L218.461 141.646L218.461 145.543C219.363 144.053 220.149 143.034 220.819 142.487C221.913 141.571 223.335 141.113 225.085 141.113C225.194 141.113 225.287 141.117 225.362 141.124C225.437 141.13 225.604 141.141 225.864 141.154L225.864 147.143C225.495 147.102 225.167 147.074 224.88 147.061C224.593 147.047 224.36 147.04 224.183 147.04Z"/>
<path d="M391.547 149.665L385.559 149.665C385.449 148.831 385.169 148.079 384.718 147.409C384.062 146.507 383.043 146.056 381.662 146.056C379.693 146.056 378.347 147.033 377.622 148.988C377.239 150.027 377.048 151.408 377.048 153.131C377.048 154.771 377.239 156.091 377.622 157.089C378.319 158.948 379.632 159.878 381.56 159.878C382.927 159.878 383.897 159.509 384.472 158.771C385.046 158.032 385.395 157.075 385.518 155.899L391.485 155.899C391.349 157.677 390.706 159.358 389.558 160.944C387.726 163.501 385.012 164.779 381.416 164.779C377.82 164.779 375.175 163.713 373.479 161.58C371.784 159.447 370.937 156.679 370.937 153.274C370.937 149.433 371.873 146.445 373.746 144.312C375.619 142.18 378.203 141.113 381.498 141.113C384.301 141.113 386.594 141.742 388.378 143C390.163 144.258 391.219 146.479 391.547 149.665Z"/>
<path d="M408.117 147.799C407.625 146.719 406.661 146.179 405.226 146.179C403.558 146.179 402.437 146.719 401.862 147.799C401.548 148.414 401.391 149.33 401.391 150.547L401.391 164L395.464 164L395.464 141.688L401.145 141.688L401.145 144.948C401.869 143.786 402.553 142.959 403.195 142.467C404.33 141.592 405.8 141.154 407.604 141.154C409.313 141.154 410.694 141.53 411.747 142.282C412.595 142.979 413.237 143.875 413.675 144.969C414.44 143.656 415.391 142.692 416.525 142.077C417.729 141.462 419.068 141.154 420.545 141.154C421.529 141.154 422.5 141.346 423.457 141.729C424.414 142.111 425.282 142.781 426.062 143.738C426.69 144.518 427.114 145.475 427.333 146.609C427.47 147.361 427.538 148.462 427.538 149.911L427.497 164L421.509 164L421.509 149.768C421.509 148.92 421.372 148.223 421.099 147.676C420.579 146.637 419.622 146.117 418.228 146.117C416.614 146.117 415.5 146.787 414.885 148.127C414.57 148.838 414.413 149.692 414.413 150.69L414.413 164L408.527 164L408.527 150.69C408.527 149.364 408.391 148.4 408.117 147.799Z"/>
<path d="M452.824 164L445.544 164L441.688 157.294L437.812 164L430.717 164L438.346 152.68L431.045 141.688L438.202 141.688L441.935 148.168L445.585 141.688L452.537 141.688L445.195 152.577L452.824 164Z"/>
<path d="M476.777 164L469.723 164L464.37 154.443L461.95 156.966L461.95 164L456.208 164L456.208 133.874L461.95 133.874L461.95 150.157L469.23 141.749L476.47 141.749L468.656 150.301L476.777 164Z"/>
<path d="M479.607 133.771L485.883 133.771L485.883 164L479.607 164L479.607 133.771Z"/>
<path d="M509.938 164.164C508.585 164.615 506.965 164.841 505.078 164.841C501.141 164.841 497.887 163.665 495.316 161.313C492.199 158.483 490.641 154.327 490.641 148.845C490.641 143.321 492.24 139.145 495.439 136.314C498.051 134.004 501.298 132.849 505.181 132.849C509.091 132.849 512.372 134.072 515.024 136.52C518.087 139.35 519.618 143.308 519.618 148.394C519.618 151.087 519.29 153.343 518.634 155.161C518.101 156.897 517.314 158.34 516.275 159.488L519.762 162.749L516.46 166.194L512.81 162.749C511.702 163.419 510.745 163.891 509.938 164.164ZM508.585 158.709L505.529 155.797L508.79 152.393L511.846 155.305C512.324 154.32 512.659 153.459 512.851 152.721C513.151 151.613 513.302 150.321 513.302 148.845C513.302 145.454 512.608 142.833 511.22 140.98C509.833 139.127 507.806 138.201 505.14 138.201C502.638 138.201 500.642 139.09 499.151 140.867C497.661 142.645 496.916 145.304 496.916 148.845C496.916 152.987 497.982 155.954 500.115 157.745C501.496 158.907 503.15 159.488 505.078 159.488C505.803 159.488 506.5 159.399 507.17 159.222C507.539 159.126 508.011 158.955 508.585 158.709Z"/>
<path d="M539.08 151.49L524.314 151.49L524.314 148.968L539.08 148.968L539.08 151.49ZM539.08 158.196L524.314 158.196L524.314 155.674L539.08 155.674L539.08 158.196Z"/>
<path d="M560.08 151.49L545.314 151.49L545.314 148.968L560.08 148.968L560.08 151.49ZM560.08 158.196L545.314 158.196L545.314 155.674L560.08 155.674L560.08 158.196Z"/>
</g>
<path d="M235 65C223.947 65 215 73.9564 215 85C215 117.5 215 182.5 215 215C215 226.053 223.956 235 235 235C267.5 235 332.5 235 365 235C376.053 235 385 226.044 385 215C385 182.5 385 117.5 385 85C385 73.9472 376.044 65 365 65C332.5 65 267.5 65 235 65Z" fill="#000000" fill-opacity="0.15" fill-rule="nonzero" opacity="1" stroke="none"/>
<path d="M225 85C225 79.4772 229.477 75 235 75L365 75C370.523 75 375 79.4772 375 85L375 215C375 220.523 370.523 225 365 225L235 225C229.477 225 225 220.523 225 215L225 85Z" fill="#5581d4" fill-rule="nonzero" opacity="1" stroke="#ffffff" stroke-linecap="butt" stroke-linejoin="miter" stroke-width="7.5"/>
<path d="M320.344 139C319.732 139.003 319.099 139.067 318.406 139.25C317.759 139.421 316.459 139.766 315.812 139.938C313.038 140.672 311.607 142.612 311 143.656C310.342 144.788 310.143 145.611 310 146.25C309.904 146.68 309.95 146.897 309.906 147.25C309.601 147.116 309.449 146.974 309.062 146.844C308.439 146.633 307.633 146.366 306.312 146.344C305.095 146.323 302.662 146.57 300.594 148.625C300.576 148.643 300.549 148.669 300.531 148.688C300.07 149.156 299.149 150.094 298.688 150.562C296.723 152.562 296.457 154.881 296.438 156.031C296.416 157.307 296.633 158.097 296.812 158.719C296.956 159.215 297.126 159.437 297.281 159.812C296.932 159.854 296.706 159.815 296.281 159.906C295.642 160.043 294.82 160.235 293.688 160.875C292.649 161.462 290.669 162.875 289.906 165.688C289.723 166.335 289.393 167.54 289.219 168.156C289.212 168.181 289.225 168.194 289.219 168.219C288.447 171.065 289.438 173.266 290.031 174.281C290.684 175.399 291.303 175.969 291.781 176.406C292.101 176.699 292.313 176.787 292.594 177C292.315 177.209 292.099 177.274 291.781 177.562C291.294 178.004 290.689 178.589 290.031 179.719C289.423 180.763 288.455 182.98 289.188 185.75C289.359 186.397 289.704 187.666 289.875 188.312C290.609 191.087 292.518 192.518 293.562 193.125C294.695 193.783 295.518 193.982 296.156 194.125C296.582 194.22 296.806 194.175 297.156 194.219C297.014 194.548 296.855 194.734 296.719 195.156C296.519 195.776 296.296 196.55 296.281 197.844C296.268 199.022 296.489 201.444 298.562 203.531C298.58 203.549 298.576 203.576 298.594 203.594C299.062 204.055 300.001 204.976 300.469 205.438C300.451 205.42 300.455 205.393 300.438 205.375C302.496 207.446 304.903 207.691 306.094 207.688C307.396 207.683 308.192 207.446 308.812 207.25C309.226 207.119 309.395 206.981 309.719 206.844C309.769 207.247 309.723 207.528 309.844 208.031C309.996 208.664 310.226 209.465 310.875 210.562C311.469 211.567 312.839 213.471 315.594 214.219C316.241 214.402 317.446 214.732 318.062 214.906C318.087 214.913 318.101 214.931 318.125 214.938C320.943 215.702 323.202 214.682 324.25 214.062C325.388 213.389 325.939 212.77 326.375 212.281C326.641 211.983 326.71 211.794 326.906 211.531C327.119 211.816 327.203 212.017 327.5 212.344C327.942 212.831 328.495 213.467 329.625 214.125C330.669 214.733 332.886 215.67 335.656 214.938C336.303 214.766 337.603 214.452 338.25 214.281C341.025 213.547 342.456 211.607 343.062 210.562C343.72 209.43 343.92 208.607 344.062 207.969C344.155 207.556 344.113 207.341 344.156 207C344.476 207.137 344.655 207.275 345.062 207.406C345.682 207.606 346.456 207.86 347.75 207.875C348.928 207.888 351.351 207.667 353.438 205.594C353.456 205.576 353.482 205.549 353.5 205.531C353.95 205.075 354.84 204.198 355.312 203.719C355.33 203.701 355.326 203.674 355.344 203.656C357.366 201.61 357.629 199.243 357.625 198.062C357.621 196.76 357.384 195.964 357.188 195.344C357.053 194.919 356.891 194.737 356.75 194.406C357.108 194.365 357.343 194.406 357.781 194.312C358.421 194.176 359.211 193.984 360.344 193.344C361.382 192.757 363.362 191.343 364.125 188.531C364.141 188.473 364.173 188.403 364.188 188.344C364.33 187.764 364.588 186.691 364.75 186.031C364.755 186.012 364.745 185.988 364.75 185.969C365.465 183.239 364.565 181.075 364 180.062C363.377 178.945 362.781 178.386 362.312 177.938C361.957 177.598 361.715 177.488 361.406 177.25C361.679 177.048 361.876 176.963 362.188 176.688C362.677 176.254 363.295 175.714 363.969 174.594C364.584 173.571 365.63 171.323 364.875 168.469C364.704 167.822 364.359 166.553 364.188 165.906C363.431 163.046 361.415 161.615 360.375 161.031C359.234 160.39 358.417 160.197 357.781 160.062C357.379 159.978 357.178 160.009 356.844 159.969C356.992 159.613 357.143 159.402 357.281 158.938C357.468 158.314 357.698 157.528 357.688 156.25C357.677 155.078 357.42 152.746 355.406 150.719C354.941 150.227 354.163 149.405 353.75 148.969C353.708 148.925 353.668 148.887 353.625 148.844C351.567 146.773 349.159 146.528 347.969 146.531C346.666 146.535 345.87 146.772 345.25 146.969C344.829 147.102 344.641 147.235 344.312 147.375C344.271 147.023 344.311 146.804 344.219 146.375C344.082 145.736 343.89 144.914 343.25 143.781C342.668 142.752 341.264 140.808 338.5 140.031C338.476 140.024 338.462 140.007 338.438 140C337.79 139.817 336.585 139.486 335.969 139.312C335.944 139.306 335.931 139.288 335.906 139.281C333.061 138.509 330.859 139.532 329.844 140.125C328.726 140.778 328.157 141.366 327.719 141.844C327.426 142.164 327.338 142.375 327.125 142.656C326.916 142.378 326.851 142.162 326.562 141.844C326.121 141.357 325.536 140.752 324.406 140.094C323.623 139.638 322.18 138.99 320.344 139ZM328.406 167.406C332.185 167.946 335.463 170.676 336.5 174.594C337.884 179.824 334.755 185.18 329.531 186.562C324.301 187.946 318.945 184.848 317.562 179.625C316.179 174.395 319.308 169.007 324.531 167.625C325.839 167.279 327.147 167.226 328.406 167.406Z" fill="#000000" fill-opacity="0.15" fill-rule="nonzero" opacity="1" stroke="none"/>
<g opacity="1">
<use fill="#737373" fill-rule="nonzero" stroke="none" xlink:href="#Fill"/>
<mask height="68.7068" id="StrokeMask" maskUnits="userSpaceOnUse" width="68.7065" x="292.672" y="142.754">
<rect fill="#ffffff" height="68.7068" stroke="none" width="68.7065" x="292.672" y="142.754"/>
<use fill="#000000" fill-rule="evenodd" stroke="none" xlink:href="#Fill"/>
</mask>
<use fill="none" mask="url(#StrokeMask)" stroke="#ffffff" stroke-linecap="round" stroke-linejoin="miter" stroke-width="7.5" xlink:href="#Fill"/>
</g>
<path d="M278.25 84.7812C275.361 84.7813 273.466 86.2834 272.594 87.1562C271.65 88.1007 271.224 88.8862 270.906 89.5C270.301 90.6684 270.044 91.5477 269.812 92.4062C269.209 91.7903 268.59 91.1685 267.531 90.4688C266.951 90.0853 266.202 89.6164 264.906 89.25C263.709 88.9116 261.26 88.5332 258.719 90C258.697 90.0127 258.678 90.0184 258.656 90.0312C257.978 90.4319 256.616 91.2243 255.938 91.625C253.496 93.0651 252.633 95.2394 252.312 96.375C251.958 97.6283 251.953 98.5025 251.969 99.1875C251.999 100.544 252.219 101.471 252.438 102.375C252.443 102.4 252.463 102.413 252.469 102.438C251.617 102.212 250.721 101.999 249.438 101.938C248.747 101.904 247.878 101.852 246.594 102.188C245.415 102.496 243.154 103.398 241.688 105.938C241.276 106.634 240.513 107.905 240.125 108.562C240.112 108.584 240.075 108.603 240.062 108.625C238.579 111.195 238.992 113.623 239.312 114.781C239.665 116.055 240.13 116.798 240.5 117.375C241.198 118.463 241.843 119.116 242.469 119.75C241.617 119.98 240.717 120.245 239.562 120.844C238.946 121.163 238.193 121.557 237.25 122.5C236.377 123.373 234.875 125.272 234.875 128.156C234.875 128.958 234.875 130.574 234.875 131.375C234.875 134.264 236.377 136.159 237.25 137.031C238.194 137.975 238.949 138.401 239.562 138.719C240.716 139.317 241.62 139.552 242.469 139.781C241.841 140.417 241.198 141.068 240.5 142.156C240.128 142.736 239.665 143.478 239.312 144.75C238.991 145.911 238.582 148.342 240.062 150.906C240.075 150.928 240.112 150.947 240.125 150.969C240.526 151.647 241.318 153.009 241.719 153.688C243.189 156.182 245.426 157.039 246.594 157.344C247.879 157.68 248.75 157.658 249.438 157.625C250.72 157.564 251.619 157.318 252.469 157.094C252.463 157.118 252.443 157.132 252.438 157.156C252.219 158.063 251.999 159.019 251.969 160.375C251.953 161.063 251.959 161.904 252.312 163.156C252.637 164.305 253.512 166.501 256 167.938C256.692 168.346 257.993 169.108 258.656 169.5C258.678 169.513 258.697 169.55 258.719 169.562C261.264 171.032 263.71 170.62 264.906 170.281C266.204 169.914 266.954 169.444 267.531 169.062C268.589 168.363 269.21 167.739 269.812 167.125C270.044 167.986 270.3 168.863 270.906 170.031C271.226 170.648 271.651 171.432 272.594 172.375C273.466 173.248 275.366 174.75 278.25 174.75C279.051 174.75 280.667 174.75 281.469 174.75C284.358 174.75 286.253 173.248 287.125 172.375C288.069 171.431 288.463 170.645 288.781 170.031C289.379 168.878 289.646 168.005 289.875 167.156C290.51 167.784 291.161 168.427 292.25 169.125C292.83 169.497 293.571 169.96 294.844 170.312C296.005 170.634 298.405 171.042 300.969 169.562C300.991 169.55 301.041 169.513 301.062 169.5C301.725 169.108 302.996 168.346 303.688 167.938C303.709 167.925 303.728 167.919 303.75 167.906C306.245 166.436 307.101 164.167 307.406 163C307.742 161.714 307.72 160.875 307.688 160.188C307.625 158.879 307.417 157.958 307.188 157.094C308.054 157.324 308.942 157.562 310.25 157.625C310.941 157.658 311.809 157.679 313.094 157.344C314.273 157.036 316.565 156.165 318.031 153.625C318.062 153.572 318.096 153.522 318.125 153.469C318.473 152.831 319.113 151.615 319.5 150.906C320.941 148.41 320.608 146.065 320.312 144.906C319.989 143.641 319.545 142.897 319.188 142.312C318.479 141.154 317.83 140.421 317.188 139.75C318.028 139.528 318.902 139.319 320.031 138.75C320.649 138.439 321.418 138.022 322.375 137.094C323.251 136.244 324.813 134.346 324.812 131.375C324.812 130.574 324.812 128.958 324.812 128.156C324.812 125.179 323.25 123.286 322.375 122.438C321.417 121.508 320.646 121.091 320.031 120.781C318.903 120.213 318.026 120.003 317.188 119.781C317.832 119.108 318.479 118.377 319.188 117.219C319.547 116.631 319.989 115.889 320.312 114.625C320.609 113.464 320.938 111.116 319.5 108.625C319.113 107.916 318.473 106.732 318.125 106.094C318.096 106.04 318.062 105.99 318.031 105.938C316.562 103.393 314.271 102.495 313.094 102.188C311.808 101.852 310.938 101.905 310.25 101.938C308.942 102 308.051 102.208 307.188 102.438C307.417 101.571 307.625 100.683 307.688 99.375C307.721 98.6842 307.742 97.8156 307.406 96.5312C307.101 95.362 306.24 93.0924 303.75 91.625C303.728 91.6121 303.709 91.6064 303.688 91.5938C302.996 91.1849 301.726 90.423 301.062 90.0312C301.041 90.0184 300.991 90.0127 300.969 90C298.399 88.5165 296.002 88.9294 294.844 89.25C293.57 89.6025 292.827 90.0358 292.25 90.4062C291.162 91.1044 290.509 91.7491 289.875 92.375C289.645 91.5239 289.379 90.6538 288.781 89.5C288.462 88.8834 288.068 88.0997 287.125 87.1562C286.252 86.283 284.353 84.7812 281.469 84.7812C280.667 84.7812 279.051 84.7812 278.25 84.7812ZM279.844 116.562C287.145 116.563 293.063 122.487 293.062 129.781C293.062 137.082 287.138 143 279.844 143C272.543 143 266.625 137.075 266.625 129.781C266.625 122.48 272.55 116.562 279.844 116.562Z" fill="#000000" fill-opacity="0.15" fill-rule="nonzero" opacity="1" stroke="none"/>
<g opacity="1">
<use fill="#737373" fill-rule="nonzero" stroke="none" xlink:href="#Fill_2"/>
<mask height="82.4589" id="StrokeMask_2" maskUnits="userSpaceOnUse" width="82.4589" x="238.622" y="88.5389">
<rect fill="#ffffff" height="82.4589" stroke="none" width="82.4589" x="238.622" y="88.5389"/>
<use fill="#000000" fill-rule="evenodd" stroke="none" xlink:href="#Fill_2"/>
</mask>
<use fill="none" mask="url(#StrokeMask_2)" stroke="#ffffff" stroke-linecap="round" stroke-linejoin="miter" stroke-width="7.5" xlink:href="#Fill_2"/>
</g>
<g opacity="1">
<path d="M320.839 162.527L325.52 161.356L329.036 175.4L324.354 176.572L320.839 162.527Z" fill="#a6a6a6" fill-rule="nonzero" opacity="1" stroke="none"/>
<path d="M342.669 179.005L341.343 183.646L327.422 179.668L328.748 175.027L342.669 179.005Z" fill="#a6a6a6" fill-rule="nonzero" opacity="1" stroke="none"/>
<path d="M314.12 186.151L317.476 189.619L327.881 179.553L324.526 176.084L314.12 186.151Z" fill="#a6a6a6" fill-rule="nonzero" opacity="1" stroke="none"/>
<path d="M319.836 178.907C318.842 174.937 321.255 170.912 325.226 169.918C329.197 168.924 333.221 171.338 334.215 175.308C335.209 179.279 332.795 183.303 328.825 184.297C324.854 185.291 320.83 182.878 319.836 178.907Z" fill="#a6a6a6" fill-rule="nonzero" opacity="1" stroke="none"/>
<path d="M311.847 180.907C309.749 172.524 314.844 164.028 323.226 161.93C331.609 159.832 340.105 164.926 342.203 173.309C344.301 181.691 339.207 190.188 330.824 192.286C322.442 194.384 313.945 189.289 311.847 180.907Z" fill="none" opacity="1" stroke="#a6a6a6" stroke-linecap="round" stroke-linejoin="miter" stroke-width="3.75"/>
</g>
<g opacity="1">
<path d="M276.903 111.029L282.683 111.029L282.683 128.369L276.903 128.369L276.903 111.029Z" fill="#a6a6a6" fill-rule="nonzero" opacity="1" stroke="none"/>
<path d="M297.475 136.522L294.585 141.528L279.568 132.858L282.458 127.852L297.475 136.522Z" fill="#a6a6a6" fill-rule="nonzero" opacity="1" stroke="none"/>
<path d="M262.227 136.522L265.117 141.528L280.134 132.858L277.244 127.852L262.227 136.522Z" fill="#a6a6a6" fill-rule="nonzero" opacity="1" stroke="none"/>
<path d="M270.974 129.768C270.974 124.866 274.949 120.892 279.851 120.892C284.753 120.892 288.728 124.866 288.728 129.768C288.728 134.671 284.753 138.645 279.851 138.645C274.949 138.645 270.974 134.671 270.974 129.768Z" fill="#a6a6a6" fill-rule="nonzero" opacity="1" stroke="none"/>
<path d="M261.111 129.768C261.111 119.419 269.501 111.029 279.851 111.029C290.201 111.029 298.591 119.419 298.591 129.768C298.591 140.118 290.201 148.508 279.851 148.508C269.501 148.508 261.111 140.118 261.111 129.768Z" fill="none" opacity="1" stroke="#a6a6a6" stroke-linecap="round" stroke-linejoin="miter" stroke-width="3.75"/>
</g>
</g>
</svg>