<svg xmlns="http://www.w3.org/2000/svg" width="600" height="300" viewBox="0 0 600.00001 299.99999"><path fill="#6495ed" d="M-2e-8 299.99999V-.0000101H600V299.99999Z" style="fill-rule:nonzero;stroke-linecap:butt;stroke-linejoin:miter;stroke-miterlimit:10;stroke-dasharray:none;stroke-dashoffset:0"/><g aria-label="Encoding" style="font-size:72.5545px;font-family:&quot;Sans Serif&quot;;fill:#fff;stroke-width:1.81386;stroke-miterlimit:10"><path d="M169.83746 258.95221h-29.8199V207.1483h29.8199v8.99676h-18.86417v11.39105h17.55819v8.99676h-17.55819v13.35003h18.86417zM202.26928 218.61191q6.38479 0 10.23018 3.48262 3.84539 3.41006 3.84539 11.02828v25.8294h-10.81062v-23.14488q0-4.28072-1.52364-6.3848-1.52365-2.17664-4.86116-2.17664-4.9337 0-6.74756 3.41007-1.81387 3.3375-1.81387 9.64974v18.64651h-10.81062v-39.61476h8.27122l1.45109 5.07882h.58043q1.88642-3.04729 5.15137-4.42583 3.33751-1.37853 7.03779-1.37853zM243.55276 259.67775q-8.85165 0-13.7128-4.86115-4.7886-4.9337-4.7886-15.4541 0-7.25545 2.46685-11.82639 2.46686-4.57093 6.82013-6.74757 4.42582-2.17663 10.15762-2.17663 4.06306 0 7.03779.7981 3.04729.7981 5.29648 1.88642l-3.1924 8.34376q-2.53941-1.01576-4.7886-1.66875-2.17663-.65299-4.35327-.65299-8.41632 0-8.41632 11.97149 0 5.94947 2.17664 8.77909 2.24919 2.82963 6.23968 2.82963 3.41007 0 6.02203-.87065 2.61196-.94321 5.07881-2.53941v9.21442q-2.46685 1.5962-5.22392 2.24919-2.68452.72554-6.82012.72554zM300.7257 239.07228q0 9.86741-5.22393 15.23644-5.15137 5.36903-14.07557 5.36903-5.51414 0-9.86741-2.39429-4.28072-2.3943-6.74757-6.96524-2.46685-4.64348-2.46685-11.24594 0-9.86741 5.15137-15.16389 5.15137-5.29648 14.14812-5.29648 5.5867 0 9.86741 2.3943 4.28072 2.3943 6.74757 6.96523 2.46686 4.49838 2.46686 11.10084zm-27.35305 0q0 5.87691 1.88642 8.9242 1.95897 2.97473 6.31224 2.97473 4.28071 0 6.16713-2.97473 1.95897-3.04729 1.95897-8.9242 0-5.87692-1.95897-8.7791-1.88642-2.97473-6.23969-2.97473-4.28071 0-6.23968 2.97473-1.88642 2.90218-1.88642 8.7791zM322.20179 259.67775q-6.60245 0-10.81062-5.15136-4.1356-5.22393-4.1356-15.309 0-10.15763 4.20816-15.38156 4.20816-5.22392 11.02828-5.22392 4.28072 0 7.03779 1.66875 2.75707 1.66876 4.35327 4.13561h.36277q-.21766-1.16087-.50788-3.33751-.29022-2.24919-.29022-4.57093v-12.69704h10.81062v55.14142h-8.27121l-2.10408-5.15137h-.43533q-1.5962 2.46685-4.28071 4.20816-2.68452 1.66875-6.96524 1.66875zm3.77284-8.63398q4.49838 0 6.31224-2.61196 1.81386-2.68452 1.88642-7.981v-1.16087q0-5.80436-1.81387-8.85165-1.7413-3.04729-6.5299-3.04729-3.55517 0-5.5867 3.11985-2.03152 3.04729-2.03152 8.85165 0 5.80436 2.03152 8.77909 2.03153 2.90218 5.73181 2.90218zM361.01841 203.81079q2.3943 0 4.13561 1.16087 1.7413 1.08832 1.7413 4.13561 0 2.97473-1.7413 4.13561-1.74131 1.16087-4.13561 1.16087-2.46685 0-4.20816-1.16087-1.66875-1.16088-1.66875-4.13561 0-3.04729 1.66875-4.13561 1.74131-1.16087 4.20816-1.16087zm5.36903 15.52666v39.61476h-10.81062v-39.61476zM400.19771 218.61191q6.3848 0 10.23019 3.48262 3.84539 3.41006 3.84539 11.02828v25.8294h-10.81062v-23.14488q0-4.28072-1.52365-6.3848-1.52364-2.17664-4.86115-2.17664-4.9337 0-6.74757 3.41007-1.81386 3.3375-1.81386 9.64974v18.64651h-10.81062v-39.61476h8.27121l1.45109 5.07882h.58044q1.88642-3.04729 5.15137-4.42583 3.33751-1.37853 7.03778-1.37853zM438.21626 218.61191q7.328 0 11.46361 5.80436h.29021l.87066-5.07882h9.14186v39.68731q0 8.48888-5.00626 12.9147-5.00626 4.42583-14.80111 4.42583-4.20816 0-7.83589-.50788-3.55517-.50788-6.96523-1.81387v-8.63398q7.328 3.04729 15.45411 3.04729 8.34376 0 8.34376-8.99676v-.7981q0-1.23342.0726-2.53941.14511-1.30598.21766-2.32174h-.29022q-2.03152 3.11984-4.86115 4.49838-2.82962 1.37853-6.38479 1.37853-7.03779 0-11.02829-5.36903-3.91794-5.44159-3.91794-15.09133 0-9.72231 4.06305-15.16389 4.06306-5.44159 11.1734-5.44159zm3.41006 8.77909q-7.61823 0-7.61823 11.9715 0 11.82638 7.76334 11.82638 4.1356 0 6.09457-2.32175 2.03153-2.39429 2.03153-8.27121v-1.30598q0-6.38479-1.95897-9.14187-1.95897-2.75707-6.31224-2.75707z" style="font-weight:700;font-family:&quot;Noto Sans&quot;;-inkscape-font-specification:&quot;Noto Sans&quot;" transform="translate(-.00008001)"/></g><path d="M303.15159 169.55016V87.18247h85.13634v82.36769z" style="fill:none;fill-rule:nonzero;stroke:#fff;stroke-width:17.5;stroke-linecap:butt;stroke-linejoin:miter;stroke-miterlimit:10;stroke-dasharray:none;stroke-dashoffset:0" transform="translate(-60.794006 -54.229863) scale(1.1047762)"/><path d="M264.86521 206.24274v-82.36769h85.13634v82.36769z" style="fill:none;fill-rule:nonzero;stroke:#fff;stroke-width:17.5;stroke-linecap:butt;stroke-linejoin:miter;stroke-miterlimit:10;stroke-dasharray:none;stroke-dashoffset:0" transform="translate(-60.794006 -54.229863) scale(1.1047762)"/></svg>