<svg xmlns="http://www.w3.org/2000/svg" width="600" height="300" viewBox="0 0 158.75 79.375"><path fill="#091b15" d="M0 79.375V0h158.75v79.375Z" style="mix-blend-mode:normal;fill-rule:nonzero;stroke-linecap:butt;stroke-linejoin:miter;stroke-miterlimit:10;stroke-dasharray:none;stroke-dashoffset:0"/><g fill="#0f3025" stroke-width=".5" style="mix-blend-mode:normal;fill-rule:nonzero;stroke-linecap:butt;stroke-linejoin:miter;stroke-miterlimit:10;stroke-dasharray:none;stroke-dashoffset:0"><path d="M15.341 39.42c1.264.16 2.133 1.4 3.147 2.17.41.314.674.846.954 1.264.294.439.667.85.92 1.31 1.036 1.89.817 2.795.214 4.854-.198.678-.282 1.666-.783 2.229-.122.137-.246.312-.426.349-.206.042-.417-.057-.626-.076-.115-.01-.37.027-.442-.053-.18-.2-.242-.483-.35-.73-.164-.372.377-1.507.467-1.797.547-1.765.924-2.468-.163-4.056-.333-.486-.7-1.315-1.178-1.682-.822-.633-1.688-1.21-2.499-1.857a1.068 1.068 0 0 1 .627-1.924.535.535 0 0 1 .138 0z"/><path d="M15.99 36.624c.285-.125.55-.392.847-.43a.535.535 0 0 1 .138-.001c.06.007.13.026.204.053.05.016.098.036.145.06.923.42 2.578 1.83 2.77 1.968 1.682 1.205 3.358 2.6 4.306 4.475.557 1.102.61 2.407.68 3.598.033.566.115 1.236.03 1.802-.25 1.644-1.043 3.852-1.809 5.288-.21.393-1.33.564-1.56.31-.18-.2-.242-.483-.35-.73-.172-.391.166-.72.267-1.093.288-1.075.734-2.227 1.138-3.28.647-1.685.093-3.914-.655-5.451-.895-1.838-3.578-3.438-5.084-4.515-.296-.212-1.243-.592-1.194-1.002z"/><path d="M17.13 32.753c.286-.125.55-.392.848-.431a.535.535 0 0 1 .138 0c2.377.302 5.498 3.353 6.588 4.17.337.255.546.694.827 1.003.956 1.05 1.686 1.985 2.207 3.339.06.154.26.234.298.383.753 2.953 1.545 6.292.352 9.289-.242.607-.225 1.483-.42 2.124-.487 1.597-1.355 3.156-2.302 4.536-.167.244-.23.698-.447.893-.51.462-1.524.335-1.84-.326-.25-.528.225-1.266.487-1.687.648-1.043 1.456-2.187 1.832-3.373 1.178-3.716 1.695-7.69-.045-11.313-1.42-2.955-4.119-4.602-6.779-6.537-.372-.271-1.948-.368-1.87-1.018zm-2.804 9.763c.22.148.41.39.636.55.33.234 1.096.689 1.333 1.157.154.305.17.682.303 1 .25.592.48 1.09.403 1.765-.078.693-.899 2.9-1.652 3.01-.996.147-1.353-.118-1.5-1.113-.04-.28.556-.957.643-1.09.262-.4.43-.876.346-1.355-.019-.105-.38-1.076-.43-1.125-.389-.39-.89-.537-1.263-.921-.185-.19-.658-.775-.477-1.048a1.068 1.068 0 0 1 1.538-.89.502.502 0 0 1 .12.06zm-3.252 3.434a1.068 1.068 0 1 1 1.714 1.273 1.068 1.068 0 0 1-1.714-1.273z"/></g><g fill="#0f3025" stroke-width=".5" style="mix-blend-mode:normal;fill-rule:nonzero;stroke-linecap:butt;stroke-linejoin:miter;stroke-miterlimit:10;stroke-dasharray:none;stroke-dashoffset:0"><path d="M5.58 17.99c.693-.72 1.88-.688 2.84-.965.39-.112.848-.03 1.242-.01.414.02.848-.023 1.257.034 1.676.232 2.142.793 3.157 2.136.335.443.918.958 1.038 1.537.03.141.081.301.02.431-.07.15-.23.236-.34.36-.06.067-.156.245-.24.253-.212.02-.419-.073-.625-.12-.31-.072-.772-.944-.913-1.136-.856-1.17-1.122-1.738-2.63-1.796-.463-.018-1.157-.174-1.612-.046-.784.222-1.552.498-2.34.706a.838.838 0 0 1-.919-1.295.422.422 0 0 1 .065-.088Z"/><path d="M4.122 16.273c.055-.238.01-.53.125-.735a.422.422 0 0 1 .064-.087.762.762 0 0 1 .13-.104.832.832 0 0 1 .105-.063c.696-.386 2.36-.767 2.536-.824 1.547-.496 3.21-.898 4.835-.618.955.165 1.802.743 2.584 1.256.373.244.833.506 1.15.825.918.927 1.94 2.46 2.484 3.614.15.316-.267 1.102-.535 1.128-.21.02-.417-.074-.624-.12-.326-.076-.374-.443-.563-.68-.542-.685-1.06-1.506-1.533-2.253-.759-1.197-2.422-1.89-3.74-2.139-1.578-.297-3.84.645-5.225 1.09-.272.087-.954.506-1.19.283z"/><path d="M2.218 13.743c.054-.238.01-.53.124-.736a.422.422 0 0 1 .065-.087c1.303-1.356 4.686-1.894 5.711-2.197.318-.094.692-.02 1.018-.053 1.11-.11 2.04-.132 3.137.173.124.034.27-.054.38-.008 2.213.908 4.688 1.97 6.017 4.126.27.436.83.836 1.141 1.26.78 1.053 1.355 2.33 1.78 3.571.076.22.332.473.354.7.052.537-.502 1.117-1.066 1.006-.45-.088-.693-.733-.836-1.095-.353-.897-.696-1.94-1.267-2.734-1.79-2.48-4.05-4.666-7.148-5.266-2.526-.49-4.826.44-7.29 1.21-.346.108-1.144 1.055-1.517.702zm4.837 6.337c.195-.07.438-.076.645-.144.3-.099.946-.368 1.352-.298.264.046.508.213.771.277.49.12.912.208 1.301.572.4.374 1.406 1.924 1.123 2.45-.373.696-.707.797-1.403.424-.195-.105-.343-.798-.386-.915-.129-.352-.35-.682-.692-.852-.075-.038-.856-.264-.91-.256-.427.062-.754.31-1.17.365-.207.027-.797.05-.885-.19a.838.838 0 0 1 .16-1.385.394.394 0 0 1 .094-.048zm.641 3.655a.838.838 0 1 1 1.604-.484.838.838 0 0 1-1.604.484z"/></g><g stroke-width=".5" style="mix-blend-mode:normal;fill-rule:nonzero;stroke-linecap:butt;stroke-linejoin:miter;stroke-miterlimit:10;stroke-dasharray:none;stroke-dashoffset:0"><path fill="#0e996c" d="M38.359 31.839c-1.99-5.285-5.462-10.694-8.683-15.194-.561-.784-3.36-.256-4.152-.764-2.854-1.83-2.612-6.388-1.327-8.84 1.622-1.266 1.744-1.911 4.033-1.4.225.05.52.19.8.369.003-.808.177-1.781.413-2.298 1.044-2.283 3.903-3.155 5.918-1.3 1.67 1.536.951 4.42 1.538 6.338 1.008 3.294 3.01 6.21 4.752 9.148 1.27 2.33 3.047 6.94 5.015 8.627 2.054 1.762 4.319 1.148 4.45 4.859.075 2.123-.145 3.307-2.615 3.923-.536.134-1.543-.11-2.13-.467-.156 1.108-.642 2.798-.713 2.89-1.807 2.313-3.68 2.15-6.25 1.562-1.143-2.32-1.672-4.176-1.384-6.761zm2.555-1.105c.81.698.24 1.7.24 1.7l-.047.057c-.07.142-.173.28-.323.402-.193 1.539.219 2.724.384 4.242 4.106-.23 1.184-4.41 3.92-5.718 1.047-.5 2.944 2.006 3.355.922.98-2.58-2.525-2.767-3.642-3.747-2.261-1.985-4.124-6.666-5.57-9.318-1.846-3.112-3.97-6.224-5-9.73-.34-1.158.056-4.235-.79-5.117-1.658-1.728-1.857 5.066-2.754 5.457-2.1.916-2.552-2.759-4.335-1.082-.564 1.056-.538 4.004.693 4.748 1.699 1.026 2.83-.656 4.729 1.265.88.89 1.496 3.066 2.24 4.16 2.66 3.913 5.194 7.352 6.9 11.76z"/><path fill="#2cd8a0" d="M33.952 18.944c-.744-1.095-1.25-3.188-2.13-4.078-1.9-1.922-3.136-.33-4.834-1.356-1.232-.744-1.247-3.703-.683-4.759 1.783-1.677 2.246 1.99 4.345 1.074.897-.391 1.116-7.194 2.775-5.465.846.882.448 3.959.787 5.116 1.03 3.507 3.229 6.645 5.076 9.757 1.445 2.652 3.3 7.424 5.56 9.41 1.117.98 4.622 1.166 3.643 3.746-.411 1.084-2.316-1.416-3.362-.915-2.736 1.308.161 5.498-3.946 5.728-.164-1.517-.61-2.837-.418-4.376a1.16 1.16 0 0 0 .32-.401l.048-.057s.614-.87-.195-1.568c-1.707-4.408-4.327-7.944-6.986-11.856z" data-paper-data="{&quot;noHover&quot;:false,&quot;origItem&quot;:[&quot;Path&quot;,{&quot;applyMatrix&quot;:true,&quot;segments&quot;:[[[609.98355,164.08125],[-9.47418,-18.88519],[3.90004,2.76067]],[611.78056,171.54431],[[611.58977,171.81493],[0,0],[-0.24704,0.66387]],[[610.32594,173.74153],[0.61692,-0.60372],[-0.202,6.92966]],[[613.84375,192.45325],[-1.38162,-6.68159],[18.17713,-2.7768]],[[628.8506,165.33673],[-11.6179,6.99095],[4.4418,-2.67281]],[[644.1719,168.00498],[-1.36802,5.00021],[3.25552,-11.89912]],[[626.36342,152.88672],[5.38834,3.88639],[-10.90854,-7.86787]],[[597.60403,113.80171],[7.56378,11.18392],[-9.54863,-13.06126]],[[571.19643,72.63541],[6.07772,15.16717],[-2.00564,-5.00516]],[[565.4976,50.20685],[4.14238,3.56329],[-8.11831,-6.9834]],[[555.5697,75.667],[3.82597,-2.12439],[-8.94955,4.96928]],[[535.81869,72.7019],[7.21783,-8.22453],[-2.05894,4.9402]],[[540.93196,93.53217],[-5.79918,-2.78535],[7.9947,3.83987]],[[562.51313,97.14544],[-9.27407,-7.74114],[4.29503,3.58509]],[[574.25966,114.70075],[-3.77776,-4.55361],[13.50186,16.27476]]],&quot;closed&quot;:true}]}"/></g><g style="mix-blend-mode:normal;fill-rule:nonzero;stroke-linecap:butt;stroke-linejoin:miter;stroke-miterlimit:10;stroke-dasharray:none;stroke-dashoffset:0"><g stroke-width=".5"><path fill="#0c7452" d="m146.799 84.686-.054.018c.75 2.34 1.37 4.722 2.052 7.081.396 1.375.825 1.691.66 3.252-.13 1.242-1.943 2.992-1.219 4.314.49.895 1.816-1.2 2.835-1.153 1.316.06 1.616 2.227 2.429.912 2.717-5.509-2.277-11.043-4.276-15.951a28.143 28.143 0 0 1-2.427 1.527zm2.153-4.935c1.162-.637 1.8.525 1.8.525l.685 1.26c2.225 6.414 7.823 11.928 4.221 19.116-1.584 1.426-1.613 2.184-4.043 1.175-.354-.148-.224-.947-.607-.98-.348-.029-.252.742-.574.879-1.057.448-3.33.35-4.162-.597-2.115-2.403.352-4.248.55-6.372.08-.854-.34-1.436-.572-2.236-.835-2.874-1.565-5.784-2.57-8.61 0 0-.443-1.248.806-1.692.498-.178.869-.085 1.133.09.937-.519 1.792-1.108 2.658-1.72.06-.294.245-.602.675-.838z"/><path fill="#065239" d="M149.218 83.115c2 4.908 7.016 10.528 4.3 16.037-.814 1.315-1.126-.85-2.442-.91-1.02-.047-2.36 2.046-2.85 1.152-.725-1.323 1.087-3.072 1.218-4.315.164-1.56-.294-1.91-.69-3.284-.682-2.36-1.281-4.788-2.031-7.13l.054-.018c.85-.468 1.656-.99 2.441-1.532z" data-paper-data="{&quot;noHover&quot;:false,&quot;origItem&quot;:[&quot;Path&quot;,{&quot;applyMatrix&quot;:true,&quot;segments&quot;:[[[810.05156,173.92104],[0.86875,2.01848],[0,0]],[[810.02314,173.79506],[0,0],[-5.43849,1.17987]],[[793.62041,176.87264],[5.46443,-1.01951],[-3.18395,0.59404]],[[786.14974,177.65196],[3.48131,0.71081],[-2.76975,-0.56552]],[[776.69672,173.96428],[3.13763,-1.34381],[-2.12254,0.90906]],[[778.67693,180.60226],[0.32808,-2.28559],[-0.42356,2.95079]],[[776.09181,185.87535],[-2.78546,-2.11855],[11.81806,7.32308]],[[812.96212,179.72149],[-11.49332,3.4327],[-1.0494,-1.88678]]],&quot;closed&quot;:true}]}"/></g><g stroke-width=".5"><path fill="#0c7452" d="m118.673 68.66.006-.056c-2.443-.277-4.869-.69-7.3-1.037-1.416-.202-1.88.059-3.236-.732-1.08-.63-1.93-3-3.433-2.883-1.017.08.349 2.149-.112 3.059-.596 1.174-2.695.559-1.83 1.84 3.908 4.739 11.006 2.457 16.301 2.649a28.142 28.142 0 0 1-.396-2.84zm3.616 3.99c.104 1.32-1.218 1.424-1.218 1.424l-1.43.108c-6.762-.604-14.087 2.237-19.163-3.998-.65-2.03-1.33-2.367.588-4.169.28-.263.955.184 1.142-.151.17-.306-.573-.535-.565-.885.026-1.147 1.048-3.179 2.253-3.55 3.06-.942 3.729 2.065 5.584 3.117.747.424 1.45.28 2.274.397 2.964.418 5.917.948 8.905 1.192 0 0 1.321.108 1.213 1.429-.043.527-.279.827-.547.996.089 1.067.275 2.089.477 3.13.243.176.449.47.487.96z"/><path fill="#065239" d="M119.112 71.511c-5.296-.192-12.48 2.076-16.387-2.663-.866-1.281 1.236-.678 1.831-1.853.461-.91-.897-2.992.12-3.072 1.504-.118 2.355 2.253 3.434 2.882 1.356.79 1.862.516 3.279.719 2.43.348 4.891.798 7.334 1.075l-.006.057c.078.968.223 1.917.395 2.855z" data-paper-data="{&quot;noHover&quot;:false,&quot;origItem&quot;:[&quot;Path&quot;,{&quot;applyMatrix&quot;:true,&quot;segments&quot;:[[[933.3114,258.30955],[1.24168,3.32935],[0,0]],[[933.27558,258.10382],[0,0],[-8.87762,1.47074]],[[906.53871,261.76289],[8.90669,-1.20969],[-5.18966,0.70485]],[[894.41108,262.42427],[5.56558,1.42629],[-4.428,-1.13476]],[[879.43902,255.71286],[5.17478,-1.91946],[-3.50063,1.29847]],[[882.10644,266.59168],[0.71258,-3.66506],[-0.91997,4.73173]],[[877.50986,274.90119],[-4.32922,-3.6442],[18.50104,12.77174]],[[937.54833,267.91011],[-18.83642,4.62507],[-1.54397,-3.13109]]],&quot;closed&quot;:true}]}"/></g><path fill="#0c7452" d="m89.823 56.608 14.09-22.2s3.099 3.987 11.756 7.703c4.665 2.001 14.85 6.425 24.293 10.024 6.959 2.652-11.279 6.595-5.536 8.641 3.443 1.227 11.362 5.443 19.197 5.917 9.68.586 19.17-2.725 19.17-2.725s-.827 5.436-4.835 10.283c-2.663 3.221-8.534 4.89-9.95 9.227-1.7 5.198 3.703 14.596 2.908 16.863-1.008 2.875-2.915 5.817-2.915 5.817s-3.862-2.23-5.899-6.279c-1.689-3.358-1.002-8.168-5.964-12.188-2.086-1.69-9.57-6.607-18.602-8.07-4.227-.685-8.904 2.704-12.991 2.97-2.87.188-5.468-2.622-7.334-3.172-4.82-1.422 2.842-3.838.651-5.083-1.371-.78 11.248.052 10.404-.782-1.373-1.354 3.613-1.875 3.711-3.09.2-2.484-3.186-5.38-5.124-6.788-2.76-2.006-10.144-.472-15.669-1.664-6.674-1.441-11.361-5.404-11.361-5.404z"/><path fill="#0e996c" d="M119.537 56.855c-.549-1.814 1.265-2.362 1.265-2.362l1.98-.524c2.518-.04 5.492-.173 7.981.175 1.798.251 3.891 1.714 5.769 1.525.963-.096 2.695.187 2.8-.776.503-4.665-13.53-5.361-16.137-5.746 0 0-1.875-.277-1.598-2.15.277-1.875 2.151-1.598 2.151-1.598 4.463.66 22.423 1.885 19.172 10.71-.632 1.716-4.653 3.18-6.094 3.338-4.266.469-9.45-1.768-13.982-1.689l-.945.362s-1.814.548-2.362-1.265z"/><path fill="#0e996c" d="M125.429 50.1c-1.699.84-2.538-.86-2.538-.86l-.416-.868c-1.074-3.426-7.008-4.93-10.347-5.583-1.64-.32-4.089.42-5.224-1.524-.53-.907-.241-2.831.336-4.214-1.371.341-2.974.533-3.075.566-2.405.783-3.678 2.297-4.026 4.66 0 0-.348 1.863-2.21 1.515-1.863-.348-1.515-2.21-1.515-2.21 1.087-5.112 4.432-7.132 9.357-8.207 1.534-.335 5.243-1.369 6.473.26.72.954-.338 2.37-.606 3.533-.112.487-.318 1.307-.605 1.84 1.218.097 3.18.508 4.086.811 4.635 1.553 9.008 2.421 10.917 7.26l.252.483s.84 1.699-.86 2.538zm44.331 17.264c.377-1.232-2.537.461-3.788.77-1.492.366-5.398 1.517-7.918 1.104-1.737.515-8.492.641-9.26-.716a1.88 1.88 0 0 1-.328-.248c-3.259.878-6.867-2.626-10.257-3.75-.154-.051-2.844-.11-4.417-.283a1.888 1.888 0 0 1-.886-.146 1.895 1.895 0 0 1-1.053-2.352l.006-.019c-.292-.09-.602-.192-.93-.305-1.821-.634-4.893-.291-5.777-1.758-1.699-.152-3.318-.507-3.95-.713a1.895 1.895 0 0 1 1.095-3.627c2.25-.437 5.409-.008 6.992 1.071 2.557.595 5.11 2.391 6.215 3.847 4.711-.327 11.85 2.434 14.306 4.76a1.893 1.893 0 0 1 .859.23c1.923-.175 4.35.24 5.998 1.064 2.66-1.37 14.318-4.049 16.098-4.396.445-.087 1.55.077 1.86.427 1.757 1.981-.956 5.468-1.877 7.432-2.65 5.651-8.083 11.656-14.008 14.69.47.866.853 1.685 1.131 2.097 3.463 5.136 5.971 17.61-1.688 20.357-5.123 1.838-11.717-7.5-8.111-11.18.27-.276-2.22-3.35-2.534-3.825-.374-.567-2.282-4.124-2.614-4.241-3.761-1.33-7.666-2.296-11.305-3.93-.947-.424-4.868-1.379-5.514-2.178-1.203.377-2.412.605-3.1.724-7.712 1.337-10.416 4.948-18.266-.1-5.648-3.633-2.19-10.48 2.712-12.055 1.76-.566 3.667 2.169 4.739 1.858 1.242-.361 7.667-2.642 8.455-2.112a1.898 1.898 0 0 1 1.655 2.498 1.895 1.895 0 0 1-2.15 1.253c-2.018 1.541-5.897 2.273-8.369 2.625-1.218.173-3.29-3.219-3.102-2.002.297 1.93-.997 2.49-2.634 2.435-.124-.004-.681-.042-.69.023-.266 2.206 4.404 3.742 5.57 4.175 4.293 1.595 17.22-5.679 18.535-3.017.169.341.235.66.218.955 1.304.428 2.64 1.247 4.074 1.741 4.12 1.423 10.436.671 12.226 4.646 1.652 3.668 6.137 7.233 6.968 11.06.338 1.554-2.777 5.281 1.303 6.786 2.092.77 3.813-7.061 2.97-9.303-.551-1.467-3.314-5.513-4.55-8.511-.697-.371-1.181-1.054-.725-1.97a1.914 1.914 0 0 1 .128-.382c.009-.363.104-.656.308-.858a2.41 2.41 0 0 1 .703-.503c4.249-5.118 12.292-6.336 14.678-14.148zm-60.78-11.47c-.889 2.213-10.655 3.545-11.229.6a1.9 1.9 0 0 1-.215-.306c-2.754-.621-6.644-2.009-7.08-3.092-1.868-4.648 5.232-3.415 7.707-3.456a1.83 1.83 0 0 1 .136-.038 1.895 1.895 0 0 1 1.855 3.103c.099.364.183.734.245 1.096.065.054.127.113.183.175 3.75-.412 9.309-.348 8.399 1.918z"/><path fill="#0e996c" d="M100.01 45.564a1.895 1.895 0 1 1 3.588 1.216 1.895 1.895 0 0 1-3.589-1.216zm10.114 4.98a1.895 1.895 0 1 1 3.588 1.215 1.895 1.895 0 0 1-3.588-1.215zm15.332 20.834c-.907 4.77-7.857-3.391-10.854-6.657-2.208 1.019-5.759.714-7.307.435-7.985-1.437-19.204-2.15-18.404-11.942a1.897 1.897 0 0 1 2.649-1.625c.397.14.747.436.972.928.063.137.103.274.124.41a1.886 1.886 0 0 1-.287 1.466c-.241.609-.502 1.187-.277 1.715.63 1.479 6.115 3.506 7.103 3.822 9.273 2.963 12.382-.985 15.12-.63 1.373.18 1.965.766 2.154 2.138.017.127.03.251.035.371 4.17 2.346 9.265 8.024 8.972 9.569zM99.073 44.206c-.821 2.391-.198 6.611-2.679 7.095a1.894 1.894 0 0 1-3.133-1.46c-3.73-7.02 7.885-11.674 5.812-5.635z"/><path fill="#065239" d="M97.044 49.397c3.46-.162 6.854 2.524 5.083 6.067-.209.417-1.877.602-2.322.633-.745.051-1.6-1.287-2.178-1.712-.136-.1-.344-.157-.584-.202a2.382 2.382 0 0 1-.51-.084c-.652-.11-1.32-.28-1.36-1.001a2.388 2.388 0 0 1 1.576-3.648c.093-.03.19-.048.295-.053z"/></g><g fill="#0f3025" stroke-width=".5" style="mix-blend-mode:normal;fill-rule:nonzero;stroke-linecap:butt;stroke-linejoin:miter;stroke-miterlimit:10;stroke-dasharray:none;stroke-dashoffset:0"><path d="M114.5 14.118c-.138-.99.622-1.903.998-2.83.153-.374.502-.683.76-.981.272-.314.507-.68.805-.967 1.218-1.174 1.948-1.193 3.63-1.16.555.011 1.321-.128 1.85.136.13.064.287.122.352.25.074.148.042.328.072.49.016.089.096.274.05.346-.114.178-.316.283-.481.416-.248.2-1.219.023-1.457.015-1.45-.052-2.059-.193-3.038.957-.3.352-.852.8-1.033 1.237-.31.753-.568 1.528-.892 2.275l-.016.037a.838.838 0 0 1-1.57-.116.422.422 0 0 1-.03-.105z"/><path d="M112.25 14.202c-.154-.19-.41-.336-.501-.553a.422.422 0 0 1-.029-.105.766.766 0 0 1-.002-.166.831.831 0 0 1 .016-.121c.128-.786.857-2.33.921-2.503.567-1.522 1.28-3.078 2.505-4.181.72-.649 1.698-.957 2.585-1.255.422-.141.912-.341 1.36-.392 1.296-.149 3.131-.003 4.376.282.34.078.7.892.555 1.118-.115.178-.316.283-.481.416-.26.21-.578.02-.882.022-.874.003-1.838-.099-2.718-.188-1.41-.144-2.984.734-3.995 1.617-1.208 1.055-1.868 3.416-2.375 4.778-.1.268-.192 1.063-.513 1.11z"/><path d="M109.083 14.133c-.154-.19-.41-.335-.5-.553a.423.423 0 0 1-.03-.105c-.26-1.862 1.41-4.853 1.806-5.846.123-.308.413-.557.589-.833.599-.94 1.157-1.685 2.075-2.358.104-.076.124-.245.23-.304 2.081-1.178 4.447-2.464 6.962-2.176.51.058 1.17-.135 1.695-.119 1.31.04 2.67.378 3.91.811.218.077.576.032.768.155.454.291.567 1.086.13 1.46-.348.3-1.004.091-1.377-.02-.923-.278-1.956-.654-2.932-.695-3.056-.129-6.171.297-8.559 2.36-1.946 1.682-2.639 4.064-3.558 6.477-.129.338.122 1.551-.387 1.626zm7.971.118c.067-.196.212-.39.287-.595.108-.298.296-.972.601-1.248.2-.18.482-.267.695-.434.397-.31.728-.588 1.254-.669.541-.083 2.381.085 2.62.633.316.724.189 1.049-.535 1.365-.203.088-.839-.225-.958-.263-.356-.116-.752-.146-1.097.017-.076.036-.737.509-.764.557-.215.374-.223.784-.438 1.146-.106.178-.452.657-.696.576a.838.838 0 0 1-.99-.982.393.393 0 0 1 .021-.103zm3.269 1.757a.838.838 0 1 1 .612-1.56.838.838 0 0 1-.612 1.56z"/></g><g fill="#0f3025" stroke-width=".5" style="mix-blend-mode:normal;fill-rule:nonzero;stroke-linecap:butt;stroke-linejoin:miter;stroke-miterlimit:10;stroke-dasharray:none;stroke-dashoffset:0"><path d="M75.706 67.879c-.083-.599.376-1.15.603-1.71.092-.227.303-.414.46-.594.164-.19.306-.411.486-.584.737-.71 1.177-.721 2.195-.701.335.006.798-.078 1.117.082.078.039.174.073.213.151.045.09.026.198.043.296.01.054.058.166.03.209-.068.108-.19.171-.29.251-.15.121-.737.015-.88.01-.877-.032-1.245-.117-1.837.578-.181.213-.515.484-.624.748-.188.455-.344.923-.54 1.375a.506.506 0 0 1-.959-.048.254.254 0 0 1-.017-.063z"/><path d="M74.346 67.93c-.093-.116-.248-.204-.303-.335a.254.254 0 0 1-.017-.063.455.455 0 0 1-.001-.1.506.506 0 0 1 .01-.074c.077-.475.517-1.408.556-1.513.343-.92.774-1.86 1.514-2.527.435-.392 1.026-.578 1.562-.758.256-.086.552-.206.822-.237.784-.09 1.893-.002 2.645.17.206.048.424.54.336.676-.07.108-.191.171-.291.251-.157.127-.35.013-.533.014-.528.001-1.111-.06-1.643-.114-.852-.087-1.804.444-2.414.977-.73.638-1.13 2.065-1.436 2.889-.06.162-.116.642-.31.67z"/><path d="M72.432 67.888c-.093-.115-.248-.203-.303-.334a.254.254 0 0 1-.017-.064c-.157-1.126.852-2.933 1.091-3.534.074-.186.25-.336.356-.503.362-.568.7-1.018 1.254-1.425.063-.046.075-.148.139-.184 1.258-.711 2.688-1.49 4.208-1.315.308.035.707-.081 1.025-.072.792.025 1.613.228 2.362.49.133.047.349.02.465.094.275.176.343.656.08.883-.212.18-.608.054-.834-.013-.557-.167-1.182-.395-1.771-.42-1.848-.078-3.73.18-5.174 1.426-1.176 1.017-1.595 2.457-2.15 3.916-.078.204.073.937-.234.982zm4.818.072c.04-.12.128-.237.173-.36.065-.18.179-.588.364-.755.12-.108.29-.161.42-.262.24-.188.44-.356.757-.404.327-.05 1.44.051 1.584.382.191.438.114.634-.324.825-.122.053-.507-.136-.578-.159-.216-.07-.455-.088-.663.01a4.7 4.7 0 0 0-.462.337c-.13.226-.135.474-.265.692-.064.108-.273.398-.42.35a.507.507 0 0 1-.598-.594.239.239 0 0 1 .012-.063zm1.976 1.06a.506.506 0 1 1 .37-.942.506.506 0 0 1-.37.943z"/></g><g fill="#0f3025" stroke-width=".5" style="mix-blend-mode:normal;fill-rule:nonzero;stroke-linecap:butt;stroke-linejoin:miter;stroke-miterlimit:10;stroke-dasharray:none;stroke-dashoffset:0"><path d="M58.458 14.36c1.14-.572 2.55-.03 3.823.046.515.03 1.03.325 1.496.515.49.2 1.028.332 1.496.575 1.915.99 2.236 1.863 2.885 3.907.214.674.696 1.54.594 2.287-.025.182-.03.396-.159.527-.147.15-.378.185-.562.287-.1.056-.291.228-.396.202-.262-.065-.47-.265-.699-.41-.342-.218-.527-1.461-.614-1.752-.53-1.77-.61-2.563-2.398-3.275-.548-.218-1.315-.7-1.916-.739-1.036-.066-2.076-.061-3.11-.146a1.068 1.068 0 0 1-.554-1.947.538.538 0 0 1 .114-.077z"/><path d="M57.437 11.677c.167-.262.237-.632.462-.83a.538.538 0 0 1 .115-.078.971.971 0 0 1 .199-.069c.05-.014.1-.025.153-.031 1-.168 3.162.08 3.397.087 2.069.061 4.238.285 6.07 1.312 1.078.603 1.85 1.657 2.572 2.605.344.452.785.962 1.03 1.48.71 1.504 1.285 3.778 1.45 5.397.045.443-.79 1.21-1.122 1.127-.262-.065-.47-.265-.698-.41-.36-.229-.262-.69-.388-1.056-.36-1.052-.633-2.258-.885-3.356-.403-1.76-2.107-3.3-3.586-4.159-1.768-1.026-4.887-.856-6.738-.91-.364-.01-1.362.203-1.55-.165z"/><path d="M56.223 7.828c.167-.263.238-.632.463-.83a.538.538 0 0 1 .114-.078c2.142-1.075 6.434-.285 7.795-.213.421.022.84.27 1.245.369 1.38.338 2.507.707 3.695 1.54.135.094.346.049.46.151 2.273 2.031 4.794 4.359 5.476 7.512.138.64.64 1.357.836 1.997.487 1.597.637 3.375.622 5.048-.003.296.197.71.127.991-.166.668-1.078 1.13-1.708.756-.505-.298-.521-1.175-.539-1.671-.043-1.227-.011-2.627-.361-3.822-1.096-3.74-2.884-7.326-6.35-9.362-2.827-1.66-5.985-1.521-9.273-1.643-.46-.017-1.822.782-2.12.199zm3.12 9.668c.265 0 .559.095.836.101.404.01 1.294-.04 1.751.216.298.167.52.472.809.66.537.353 1.007.638 1.32 1.24.321.62.871 2.908.308 3.42-.744.678-1.188.657-1.866-.087-.19-.208-.072-1.104-.074-1.263-.006-.477-.132-.967-.47-1.317-.074-.077-.915-.68-.984-.694-.54-.106-1.038.051-1.562-.06-.259-.054-.978-.276-.98-.603a1.068 1.068 0 0 1 .78-1.596.502.502 0 0 1 .132-.017zm-.782 4.664a1.068 1.068 0 1 1 2.133.1 1.068 1.068 0 0 1-2.133-.1z"/></g><g fill="#0f3025" stroke-width=".5" style="mix-blend-mode:normal;fill-rule:nonzero;stroke-linecap:butt;stroke-linejoin:miter;stroke-miterlimit:10;stroke-dasharray:none;stroke-dashoffset:0"><path d="M151.625 40.124c-1.247-.264-2.01-1.57-2.956-2.423-.384-.346-.602-.898-.847-1.337-.257-.462-.595-.902-.81-1.383-.876-1.97-.582-2.852.188-4.854.254-.66.42-1.637.965-2.156.133-.127.27-.291.453-.313.209-.025.41.091.618.127.113.02.37.004.436.09.164.214.202.5.29.756.13.385-.502 1.47-.615 1.752-.692 1.714-1.125 2.383-.173 4.055.292.513.59 1.369 1.035 1.774.767.7 1.583 1.345 2.337 2.057l.038.035a1.068 1.068 0 0 1-.82 1.831.545.545 0 0 1-.14-.01z"/><path d="M150.748 42.857c-.295.101-.58.345-.88.36a.545.545 0 0 1-.138-.011.971.971 0 0 1-.199-.07 1.062 1.062 0 0 1-.14-.071c-.885-.495-2.418-2.038-2.597-2.19-1.578-1.34-3.132-2.87-3.922-4.816-.464-1.145-.409-2.45-.38-3.641.013-.568-.014-1.242.12-1.8.384-1.617 1.355-3.752 2.238-5.12.241-.374 1.372-.451 1.58-.18.164.215.202.502.29.758.137.403-.227.701-.358 1.066-.375 1.047-.915 2.159-1.405 3.173-.784 1.627-.416 3.894.203 5.488.74 1.906 3.282 3.722 4.694 4.92.277.236 1.19.692 1.107 1.096z"/><path d="M149.29 46.621c-.294.101-.58.345-.879.36a.545.545 0 0 1-.138-.011c-2.344-.498-5.202-3.796-6.22-4.702-.316-.28-.488-.735-.742-1.066-.866-1.126-1.516-2.118-1.924-3.51-.046-.158-.24-.254-.265-.407-.506-3.005-1.02-6.397.416-9.285.292-.586.347-1.46.594-2.083.618-1.551 1.61-3.033 2.668-4.33.187-.23.289-.677.52-.853.546-.418 1.546-.209 1.806.476.207.548-.328 1.243-.624 1.642-.732.985-1.632 2.059-2.104 3.21-1.481 3.605-2.324 7.522-.889 11.277 1.17 3.063 3.724 4.927 6.215 7.076.35.3 1.911.527 1.78 1.168zm3.603-9.498c-.207-.165-.377-.424-.59-.602-.309-.259-1.035-.776-1.232-1.262-.129-.317-.112-.693-.22-1.02-.199-.612-.388-1.128-.256-1.794.136-.684 1.136-2.815 1.896-2.863 1.004-.065 1.338.23 1.402 1.234.018.28-.633.907-.73 1.032-.294.377-.501.838-.457 1.322.01.107.29 1.104.336 1.157.355.42.842.608 1.183 1.022.168.204.59.827.389 1.084a1.068 1.068 0 0 1-1.606.759.502.502 0 0 1-.115-.07zm3.523-3.153a1.067 1.067 0 1 1-1.603-1.411 1.067 1.067 0 0 1 1.603 1.41z"/></g><g style="font-size:25.2127px;line-height:1.25;fill:#0e996c;stroke-width:.630322;fill-opacity:1"><path d="M-11.366 75.287h-4.79V57.285h10.64v3.908h-5.85v3.429h5.395v3.908h-5.395zm19.489 0h-10.69V57.285h10.69v3.908H2.3v2.824h5.396v3.908H2.299v3.404h5.824Zm11.094 0H14.35V61.269H9.964v-3.984h13.64v3.984h-4.387zm14.472-14.27q-1.715 0-2.698 1.412-.983 1.411-.983 3.933 0 2.546.983 3.882.983 1.312 2.975 1.312 1.185 0 2.295-.328 1.134-.328 2.269-.807v4.11q-1.185.53-2.446.756-1.235.252-2.647.252-2.925 0-4.79-1.16-1.866-1.16-2.749-3.227-.882-2.093-.882-4.816 0-2.722 1.008-4.815 1.009-2.093 2.95-3.278 1.967-1.21 4.765-1.21 1.311 0 2.748.303 1.438.302 2.824.958l-1.487 3.832q-.984-.48-1.992-.782-1.009-.327-2.143-.327Zm23.775 14.27h-4.89V67.95h-5.649v7.337h-4.89V57.285h4.89v6.682h5.648v-6.682h4.891z" aria-label="FETCH" style="font-weight:900;font-family:&quot;Noto Sans&quot;;-inkscape-font-specification:&quot;Noto Sans Heavy&quot;;fill:#0e996c;fill-opacity:1" transform="rotate(-24.095)"/></g></svg>