<?xml version="1.0" encoding="UTF-8" standalone="no"?>
<svg
   width="600"
   height="300"
   version="1.1"
   id="svg19"
   sodipodi:docname="fetch.svg"
   inkscape:version="1.3.2 (091e20ef0f, 2023-11-25)"
   xmlns:inkscape="http://www.inkscape.org/namespaces/inkscape"
   xmlns:sodipodi="http://sodipodi.sourceforge.net/DTD/sodipodi-0.dtd"
   xmlns="http://www.w3.org/2000/svg"
   xmlns:svg="http://www.w3.org/2000/svg">
  <defs
     id="defs19" />
  <sodipodi:namedview
     id="namedview19"
     pagecolor="#ffffff"
     bordercolor="#000000"
     borderopacity="0.25"
     inkscape:showpageshadow="2"
     inkscape:pageopacity="0.0"
     inkscape:pagecheckerboard="0"
     inkscape:deskcolor="#d1d1d1"
     inkscape:zoom="1.9733333"
     inkscape:cx="300"
     inkscape:cy="149.74662"
     inkscape:window-width="1920"
     inkscape:window-height="1008"
     inkscape:window-x="1366"
     inkscape:window-y="0"
     inkscape:window-maximized="1"
     inkscape:current-layer="svg19" />
  <path
     fill="#0e996c"
     d="M0 300V0h600v300z"
     style="fill-rule:nonzero;stroke-linecap:butt;stroke-linejoin:miter;stroke-miterlimit:10;stroke-dasharray:none;stroke-dashoffset:0"
     id="path1" />
  <g
     fill="none"
     stroke="#2bd99f"
     stroke-opacity=".129"
     stroke-width="10"
     style="fill-rule:nonzero;stroke-linecap:butt;stroke-linejoin:miter;stroke-miterlimit:10;stroke-dasharray:none;stroke-dashoffset:0"
     id="g11">
    <path
       d="M-22.5 300c0-178.112 144.388-322.5 322.5-322.5S622.5 121.888 622.5 300 478.112 622.5 300 622.5-22.5 478.112-22.5 300z"
       id="path2" />
    <path
       d="M267.872 300c0-17.744 14.384-32.128 32.128-32.128s32.128 14.384 32.128 32.128-14.384 32.128-32.128 32.128-32.128-14.384-32.128-32.128z"
       id="path3" />
    <path
       d="M228.424 300c0-39.53 32.046-71.576 71.576-71.576 39.53 0 71.576 32.046 71.576 71.576 0 39.53-32.046 71.576-71.576 71.576-39.53 0-71.576-32.046-71.576-71.576z"
       id="path4" />
    <path
       d="M183.058 300c0-64.585 52.357-116.942 116.942-116.942S416.942 235.415 416.942 300 364.585 416.942 300 416.942 183.058 364.585 183.058 300z"
       id="path5" />
    <path
       d="M133.5 300c0-91.955 74.545-166.5 166.5-166.5S466.5 208.045 466.5 300 391.955 466.5 300 466.5 133.5 391.955 133.5 300z"
       id="path6" />
    <path
       d="M82.5 300c0-120.122 97.378-217.5 217.5-217.5S517.5 179.878 517.5 300 420.122 517.5 300 517.5 82.5 420.122 82.5 300z"
       id="path7" />
    <path
       d="M31.5 300C31.5 151.712 151.712 31.5 300 31.5S568.5 151.712 568.5 300 448.288 568.5 300 568.5 31.5 448.288 31.5 300z"
       id="path8" />
    <path
       d="M-79.5 300C-79.5 90.408 90.408-79.5 300-79.5S679.5 90.408 679.5 300 509.592 679.5 300 679.5-79.5 509.592-79.5 300z"
       id="path9" />
    <path
       d="M-131.5 300c0-238.31 193.19-431.5 431.5-431.5S731.5 61.69 731.5 300 538.31 731.5 300 731.5-131.5 538.31-131.5 300z"
       id="path10" />
    <path
       d="M-182.5 300c0-266.477 216.023-482.5 482.5-482.5S782.5 33.523 782.5 300 566.477 782.5 300 782.5-182.5 566.477-182.5 300z"
       id="path11" />
  </g>
  <g
     id="g20"
     transform="matrix(1.0829583,0,0,1.0829583,-25.149638,-12.196299)">
    <g
       fill="#ffffff"
       style="fill-rule:nonzero;stroke-linecap:butt;stroke-linejoin:miter;stroke-miterlimit:10;stroke-dasharray:none;stroke-dashoffset:0"
       id="g13">
      <path
         stroke="#000000"
         stroke-opacity="0.129"
         stroke-width="10"
         d="m 191.754,225.744 -16.668,-16.669 a 18.842,18.842 0 0 1 -10.73,3.333 c -10.454,0 -18.928,-8.477 -18.928,-18.93 0,-0.607 0.028,-1.206 0.084,-1.797 -2.007,0.191 -4.08,0.063 -6.15,-0.426 -9.327,-2.202 -15.398,-10.954 -14.494,-20.234 -0.596,0.056 -1.2,0.085 -1.811,0.085 -10.454,0 -18.928,-8.474 -18.928,-18.928 0,-3.984 1.23,-7.68 3.332,-10.73 l -1.606,-1.605 a 3.443,3.443 0 0 1 0,-4.866 3.443,3.443 0 0 1 4.867,0 l 1.606,1.605 a 18.84,18.84 0 0 1 10.729,-3.332 c 10.454,0 18.928,8.474 18.928,18.928 v 0 c 0,0.61 -0.029,1.213 -0.085,1.808 a 18.905,18.905 0 0 1 6.161,0.425 c 9.323,2.202 15.393,10.946 14.495,20.222 a 19.155,19.155 0 0 1 1.8,-0.084 c 10.454,0 18.931,8.477 18.931,18.928 0,3.984 -1.23,7.68 -3.334,10.73 l 16.667,16.667 a 3.443,3.443 0 0 1 -2.433,5.876 v 0 a 3.44,3.44 0 0 1 -2.434,-1.006 z"
         style="stroke-width:9.99972;stroke-linecap:round;stroke-linejoin:bevel;stroke-dasharray:none"
         transform="matrix(1.57134,0,0,1.57134,-78.265,-135.78)"
         id="path12" />
      <path
         d="m 223.046,218.94 -26.192,-26.191 a 29.607,29.607 0 0 1 -16.86,5.237 c -16.426,0 -29.742,-13.321 -29.742,-29.748 0,-0.952 0.045,-1.893 0.132,-2.822 -3.154,0.3 -6.41,0.099 -9.664,-0.67 -14.656,-3.46 -24.196,-17.212 -22.775,-31.794 -0.936,0.089 -1.885,0.134 -2.845,0.134 -16.427,0 -29.743,-13.316 -29.743,-29.743 0,-6.26 1.933,-12.068 5.236,-16.86 L 88.07,83.961 a 5.41,5.41 0 0 1 0,-7.647 5.41,5.41 0 0 1 7.647,0 l 2.523,2.523 A 29.606,29.606 0 0 1 115.1,73.6 c 16.426,0 29.743,13.317 29.743,29.743 0,0.959 -0.046,1.907 -0.135,2.842 a 29.706,29.706 0 0 1 9.682,0.667 c 14.65,3.46 24.188,17.2 22.777,31.776 a 30.1,30.1 0 0 1 2.828,-0.133 c 16.426,0 29.747,13.321 29.747,29.743 0,6.26 -1.935,12.07 -5.238,16.862 l 26.189,26.189 a 5.41,5.41 0 0 1 0,7.647 c -2.083,2.074 -5.493,2.15 -7.648,0.005 z"
         id="path13" />
    </g>
    <g
       fill="#ffffff"
       style="fill-rule:nonzero;stroke-linecap:butt;stroke-linejoin:miter;stroke-miterlimit:10;stroke-dasharray:none;stroke-dashoffset:0"
       id="g15">
      <path
         stroke="#000000"
         stroke-opacity="0.129"
         stroke-width="15.7134"
         d="m 518.643,147.061 c 0,20.06 -8,38.252 -20.982,51.56 a 74.249,74.249 0 0 1 -6.399,5.836 c -12.689,10.284 -28.855,16.447 -46.462,16.447 -17.606,0 -33.772,-6.163 -46.461,-16.447 a 74.297,74.297 0 0 1 -6.4,-5.836 c -12.982,-13.308 -20.981,-31.5 -20.981,-51.56 0,-20.06 8,-38.252 20.982,-51.56 a 74.315,74.315 0 0 1 6.399,-5.836 c 12.689,-10.284 28.855,-16.447 46.462,-16.447 17.606,0 33.773,6.163 46.462,16.447 a 74.273,74.273 0 0 1 6.399,5.835 c 12.982,13.309 20.982,31.5 20.981,51.561 z M 404.9,95.501 a 64.711,64.711 0 0 0 6.151,4.23 c 2.362,-4.743 5.07,-8.982 8.062,-12.604 A 64.837,64.837 0 0 0 404.9,95.5 Z m -20.17,26.188 a 64.568,64.568 0 0 0 -4.98,21.08 h 21.157 c 0.439,-12.832 2.827,-24.786 6.676,-35.039 a 74.012,74.012 0 0 1 -9.244,-6.394 64.961,64.961 0 0 0 -13.608,20.353 z m 22.853,64.703 c -3.85,-10.253 -6.238,-22.207 -6.676,-35.038 H 379.75 a 64.575,64.575 0 0 0 4.98,21.079 64.962,64.962 0 0 0 13.609,20.353 74.016,74.016 0 0 1 9.244,-6.394 z m 11.53,20.603 c -2.992,-3.623 -5.7,-7.861 -8.062,-12.605 a 64.755,64.755 0 0 0 -6.151,4.231 64.834,64.834 0 0 0 14.213,8.374 z m 21.395,-21.864 a 64.571,64.571 0 0 0 -21.772,5.28 66.068,66.068 0 0 0 2.41,4.438 c 3.37,5.659 7.364,10.223 11.552,13.197 2.552,1.813 5.166,3.045 7.81,3.686 z m 0,-8.668 v -25.11 h -30.94 c 0.281,7.736 1.322,15.232 3.112,22.338 a 91.18,91.18 0 0 0 2.667,8.756 73.454,73.454 0 0 1 25.16,-5.984 z m 0,-58.804 a 73.45,73.45 0 0 1 -25.16,-5.985 91.13,91.13 0 0 0 -2.668,8.757 c -1.79,7.106 -2.83,14.602 -3.112,22.337 h 30.94 z m 0,-35.268 c -2.644,0.64 -5.258,1.872 -7.81,3.685 -4.187,2.975 -8.182,7.538 -11.552,13.197 a 66.046,66.046 0 0 0 -2.41,4.439 64.568,64.568 0 0 0 21.772,5.279 z m 50.755,18.945 a 74.017,74.017 0 0 1 -9.245,6.394 c 3.85,10.253 6.238,22.206 6.676,35.038 h 21.157 a 64.568,64.568 0 0 0 -4.98,-21.079 64.963,64.963 0 0 0 -13.608,-20.353 z m -20.775,-14.21 c 2.992,3.623 5.7,7.862 8.062,12.606 a 64.782,64.782 0 0 0 6.152,-4.232 64.826,64.826 0 0 0 -14.214,-8.373 z m -21.395,21.865 a 64.566,64.566 0 0 0 21.773,-5.279 65.998,65.998 0 0 0 -2.411,-4.439 c -3.37,-5.659 -7.364,-10.222 -11.552,-13.197 -2.552,-1.814 -5.166,-3.045 -7.81,-3.685 z m 0,33.777 h 30.94 c -0.28,-7.735 -1.322,-15.23 -3.112,-22.337 a 91.235,91.235 0 0 0 -2.667,-8.757 73.457,73.457 0 0 1 -25.16,5.985 z m 0,33.695 c 8.901,0.51 17.38,2.596 25.161,5.985 a 91.24,91.24 0 0 0 2.667,-8.757 c 1.79,-7.106 2.831,-14.602 3.112,-22.337 h -30.94 z m 19.362,18.386 a 65.97,65.97 0 0 0 2.41,-4.44 c -0.23,-0.1 -0.46,-0.2 -0.692,-0.297 a 64.566,64.566 0 0 0 -21.08,-4.98 v 26.6 c 2.644,-0.641 5.258,-1.873 7.81,-3.686 4.188,-2.974 8.182,-7.538 11.552,-13.197 z m 16.247,3.772 a 64.696,64.696 0 0 0 -6.152,-4.231 c -2.361,4.744 -5.07,8.983 -8.062,12.605 a 64.838,64.838 0 0 0 14.214,-8.374 z m 25.15,-47.267 h -21.158 c -0.438,12.831 -2.827,24.785 -6.676,35.038 a 74.003,74.003 0 0 1 9.245,6.394 64.96,64.96 0 0 0 13.608,-20.353 64.567,64.567 0 0 0 4.98,-21.08 z"
         id="path14" />
      <path
         d="m 518.643,147.061 c 0,20.06 -8,38.252 -20.982,51.56 a 74.249,74.249 0 0 1 -6.399,5.836 c -12.689,10.284 -28.855,16.447 -46.462,16.447 -17.606,0 -33.772,-6.163 -46.461,-16.447 a 74.297,74.297 0 0 1 -6.4,-5.836 c -12.982,-13.308 -20.981,-31.5 -20.981,-51.56 0,-20.06 8,-38.252 20.982,-51.56 a 74.315,74.315 0 0 1 6.399,-5.836 c 12.689,-10.284 28.855,-16.447 46.462,-16.447 17.606,0 33.773,6.163 46.462,16.447 a 74.273,74.273 0 0 1 6.399,5.835 c 12.982,13.309 20.982,31.5 20.981,51.561 z M 404.9,95.501 a 64.711,64.711 0 0 0 6.151,4.23 c 2.362,-4.743 5.07,-8.982 8.062,-12.604 A 64.837,64.837 0 0 0 404.9,95.5 Z m -20.17,26.188 a 64.568,64.568 0 0 0 -4.98,21.08 h 21.157 c 0.439,-12.832 2.827,-24.786 6.676,-35.039 a 74.012,74.012 0 0 1 -9.244,-6.394 64.961,64.961 0 0 0 -13.608,20.353 z m 22.853,64.703 c -3.85,-10.253 -6.238,-22.207 -6.676,-35.038 H 379.75 a 64.575,64.575 0 0 0 4.98,21.079 64.962,64.962 0 0 0 13.609,20.353 74.016,74.016 0 0 1 9.244,-6.394 z m 11.53,20.603 c -2.992,-3.623 -5.7,-7.861 -8.062,-12.605 a 64.755,64.755 0 0 0 -6.151,4.231 64.834,64.834 0 0 0 14.213,8.374 z m 21.395,-21.864 a 64.571,64.571 0 0 0 -21.772,5.28 66.068,66.068 0 0 0 2.41,4.438 c 3.37,5.659 7.364,10.223 11.552,13.197 2.552,1.813 5.166,3.045 7.81,3.686 z m 0,-8.668 v -25.11 h -30.94 c 0.281,7.736 1.322,15.232 3.112,22.338 a 91.18,91.18 0 0 0 2.667,8.756 73.454,73.454 0 0 1 25.16,-5.984 z m 0,-58.804 a 73.45,73.45 0 0 1 -25.16,-5.985 91.13,91.13 0 0 0 -2.668,8.757 c -1.79,7.106 -2.83,14.602 -3.112,22.337 h 30.94 z m 0,-35.268 c -2.644,0.64 -5.258,1.872 -7.81,3.685 -4.187,2.975 -8.182,7.538 -11.552,13.197 a 66.046,66.046 0 0 0 -2.41,4.439 64.568,64.568 0 0 0 21.772,5.279 z m 50.755,18.945 a 74.017,74.017 0 0 1 -9.245,6.394 c 3.85,10.253 6.238,22.206 6.676,35.038 h 21.157 a 64.568,64.568 0 0 0 -4.98,-21.079 64.963,64.963 0 0 0 -13.608,-20.353 z m -20.775,-14.21 c 2.992,3.623 5.7,7.862 8.062,12.606 a 64.782,64.782 0 0 0 6.152,-4.232 64.826,64.826 0 0 0 -14.214,-8.373 z m -21.395,21.865 a 64.566,64.566 0 0 0 21.773,-5.279 65.998,65.998 0 0 0 -2.411,-4.439 c -3.37,-5.659 -7.364,-10.222 -11.552,-13.197 -2.552,-1.814 -5.166,-3.045 -7.81,-3.685 z m 0,33.777 h 30.94 c -0.28,-7.735 -1.322,-15.23 -3.112,-22.337 a 91.235,91.235 0 0 0 -2.667,-8.757 73.457,73.457 0 0 1 -25.16,5.985 z m 0,33.695 c 8.901,0.51 17.38,2.596 25.161,5.985 a 91.24,91.24 0 0 0 2.667,-8.757 c 1.79,-7.106 2.831,-14.602 3.112,-22.337 h -30.94 z m 19.362,18.386 a 65.97,65.97 0 0 0 2.41,-4.44 c -0.23,-0.1 -0.46,-0.2 -0.692,-0.297 a 64.566,64.566 0 0 0 -21.08,-4.98 v 26.6 c 2.644,-0.641 5.258,-1.873 7.81,-3.686 4.188,-2.974 8.182,-7.538 11.552,-13.197 z m 16.247,3.772 a 64.696,64.696 0 0 0 -6.152,-4.231 c -2.361,4.744 -5.07,8.983 -8.062,12.605 a 64.838,64.838 0 0 0 14.214,-8.374 z m 25.15,-47.267 h -21.158 c -0.438,12.831 -2.827,24.785 -6.676,35.038 a 74.003,74.003 0 0 1 9.245,6.394 64.96,64.96 0 0 0 13.608,-20.353 64.567,64.567 0 0 0 4.98,-21.08 z"
         id="path15" />
    </g>
    <g
       fill="#ffffff"
       data-paper-data="{&quot;index&quot;:null}"
       style="fill-rule:nonzero;stroke-linecap:butt;stroke-linejoin:miter;stroke-miterlimit:10;stroke-dasharray:none;stroke-dashoffset:0"
       id="g17">
      <path
         stroke="#000000"
         stroke-opacity="0.129"
         stroke-width="15.7134"
         d="m 304.08,174.885 -11.35,-8.338 a 1.866,1.866 0 0 1 0.98,-3.362 l 37.663,-2.594 0.304,0.007 a 1.864,1.864 0 0 1 1.679,2.03 l -3.474,36.784 a 1.86,1.86 0 0 1 -3.379,0.887 l -6.842,-9.845 c -1.951,1.545 -4.293,3.016 -6.914,4.317 -6.839,3.399 -15.686,5.692 -24.657,5.15 -9.058,-0.544 -18.241,-3.96 -25.642,-11.997 -2.697,-2.926 -5.15,-6.464 -7.263,-10.69 a 1.864,1.864 0 0 1 2.756,-2.418 c 10.887,8.568 20.28,10.456 28.195,9.093 7.073,-1.218 13.078,-5.04 17.945,-9.023 z"
         id="path16" />
      <path
         d="m 304.08,174.885 -11.35,-8.338 a 1.866,1.866 0 0 1 0.98,-3.362 l 37.663,-2.594 0.304,0.007 a 1.864,1.864 0 0 1 1.679,2.03 l -3.474,36.783 a 1.86,1.86 0 0 1 -3.379,0.887 l -6.842,-9.844 c -1.951,1.545 -4.293,3.016 -6.914,4.317 -6.839,3.399 -15.686,5.692 -24.657,5.15 -9.058,-0.544 -18.241,-3.96 -25.642,-11.997 -2.697,-2.926 -5.15,-6.464 -7.263,-10.69 a 1.864,1.864 0 0 1 2.756,-2.418 c 10.887,8.568 20.28,10.456 28.195,9.093 7.073,-1.218 13.078,-5.04 17.944,-9.023 z"
         id="path17" />
    </g>
    <g
       fill="#ffffff"
       data-paper-data="{&quot;index&quot;:null}"
       style="fill-rule:nonzero;stroke-linecap:butt;stroke-linejoin:miter;stroke-miterlimit:10;stroke-dasharray:none;stroke-dashoffset:0"
       id="g19">
      <path
         stroke="#000000"
         stroke-opacity="0.129"
         stroke-width="15.7134"
         d="m 293.634,119.237 11.351,8.338 a 1.866,1.866 0 0 1 -0.98,3.362 l -37.663,2.594 -0.304,-0.007 a 1.864,1.864 0 0 1 -1.679,-2.03 l 3.473,-36.784 a 1.86,1.86 0 0 1 3.38,-0.887 l 6.841,9.845 c 1.952,-1.545 4.293,-3.016 6.914,-4.317 6.84,-3.399 15.687,-5.692 24.657,-5.15 9.058,0.544 18.242,3.96 25.642,11.997 2.697,2.926 5.151,6.464 7.264,10.69 a 1.864,1.864 0 0 1 -2.756,2.418 c -10.888,-8.568 -20.281,-10.456 -28.195,-9.093 -7.073,1.218 -13.078,5.04 -17.946,9.023 z"
         id="path18" />
      <path
         d="m 293.634,119.237 11.351,8.338 a 1.866,1.866 0 0 1 -0.98,3.362 l -37.663,2.594 -0.304,-0.007 a 1.864,1.864 0 0 1 -1.679,-2.03 l 3.473,-36.783 a 1.86,1.86 0 0 1 3.38,-0.887 l 6.841,9.844 c 1.952,-1.545 4.293,-3.016 6.914,-4.317 6.84,-3.399 15.687,-5.692 24.657,-5.15 9.058,0.544 18.242,3.96 25.642,11.997 2.697,2.926 5.151,6.464 7.264,10.69 a 1.864,1.864 0 0 1 -2.756,2.418 c -10.888,-8.568 -20.281,-10.456 -28.195,-9.093 -7.073,1.218 -13.078,5.04 -17.945,9.023 z"
         id="path19" />
    </g>
  </g>
</svg>
