<svg xmlns="http://www.w3.org/2000/svg" width="600" height="300"><g stroke-miterlimit="10" data-paper-data="{&quot;isPaintingLayer&quot;:true}" style="mix-blend-mode:normal"><path fill="#fcb103" d="M0 300V0h600v300z"/><path fill="#eca602" d="M393.66334 300 600 93.66334V300z"/><path fill="#e3a514" d="m0 93.66358 206.33666 206.33666H0Z"/><path fill="#f0a902" d="M30 300 330 0h261L291 300z"/><path fill="#e2a414" d="M470 300 170 0h114l300 300z"/><path fill="#fff" d="M153.7 62.57519v43.65c0 4.00125-3.27375 7.275-7.275 7.275h-43.68637c-4.00126 0-7.23862-3.27375-7.23862-7.275l.03637-58.2c0-4.00124 3.23738-7.275 7.23862-7.275h29.1zm-5.45625 3.6374L128.2375 46.20634V66.2126z"/><path fill="#fcb103" d="M128.20214 66.24796V46.17099l20.07696 20.07696Z" data-paper-data="{&quot;noHover&quot;:false,&quot;origItem&quot;:[&quot;Path&quot;,{&quot;applyMatrix&quot;:true,&quot;segments&quot;:[[81.74375,131.7125],[61.7375,111.70626],[61.7375,131.71251]],&quot;closed&quot;:true,&quot;fillColor&quot;:[0,0,0,1]}]}"/><g fill="#bf8b11"><path stroke="#bf8b11" d="M139.52343 105.35201c-.30636 0-.61272-.11708-.84688-.35027l-29.8955-29.89648c-.46735-.46735-.46735-1.22642 0-1.69377.46735-.46735 1.22641-.46735 1.69376 0l29.8955 29.89551c.46735.46735.46735 1.22641 0 1.69376-.23417.23318-.54053.35125-.84689.35125z"/><path d="M121.98769 80.03024c0 3.63827-2.94945 6.58773-6.58772 6.58773s-6.58772-2.94945-6.58772-6.58773c0-3.63827 2.94945-6.58773 6.58772-6.58773 3.63828 0 6.58772 2.94945 6.58772 6.58773z"/><path d="M121.07453 93.63052c-3.54093-.83612-5.73359-4.38443-4.89747-7.92535.83612-3.54092 4.38443-5.73359 7.92534-4.89746 3.54093.83612 5.7336 4.38442 4.89747 7.92534-.83612 3.54092-4.38443 5.7336-7.92534 4.89747z"/><path d="M136.36223 94.40398c0 3.63827-2.95042 6.5887-6.58869 6.5887s-6.58773-2.95043-6.58773-6.5887c0-3.63827 2.94946-6.58773 6.58773-6.58773 3.63827 0 6.58869 2.95042 6.58869 6.58773z"/><path stroke="#bf8b11" d="M139.57206 105.40063c-.30636 0-.61272-.11708-.84688-.35027l-7.33703-7.33704c-.46832-.46735-.46832-1.22641 0-1.69376.46832-.46735 1.22544-.46735 1.69376 0l7.33704 7.33704c.46735.46735.46735 1.22641 0 1.69376-.23417.23221-.54053.35027-.84688.35027z"/></g><path fill="#fff" d="M503.3 98.32522v69.15c0 6.33876-5.18624 11.525-11.525 11.525h-69.20762c-6.33876 0-11.46738-5.18624-11.46738-11.525l.0576-92.2c0-6.33874 5.12863-11.525 11.46738-11.525h46.1zm-8.64376 5.76251L462.9625 72.39399v31.69376z"/><path fill="#fcb103" d="M462.9299 104.12034V72.36139l31.75893 31.75893z" data-paper-data="{&quot;noHover&quot;:false,&quot;origItem&quot;:[&quot;Path&quot;,{&quot;applyMatrix&quot;:true,&quot;segments&quot;:[[442.12499,125.75002],[407.75,91.37503],[407.75,125.75004]],&quot;closed&quot;:true,&quot;fillColor&quot;:[0,0,0,1]}]}"/><path fill="#bf8b11" fill-rule="evenodd" d="M468.9816 143.3888c-.0158-.49312-.13751-1.30392-.40461-2.69003-.15173-.78235-.96727-4.77632-1.19013-5.89532-.6243-3.12942-1.20119-6.19562-1.80496-9.66168-1.15693-6.67451-1.09528-9.56211.54371-10.31602.79026-.36352 1.67535-.12643 2.90814.55318.65433.35878 3.44868 2.1574 3.27166 2.04834 3.15154 1.96299 5.47491 2.80383 7.79194 2.44664 2.41186-.37458 3.9576-.0948 4.54555.97676.55002 1.00362.0237 2.23801-1.15377 3.44552-2.32651 2.39606-6.28254 3.97341-9.24285 3.19738-1.29918-.34771-1.95668-.73494-3.76162-2.00252l-.15015-.1043c.0743.93725.41726 2.75009 1.13323 6.01069.46467 2.11156 3.28746 14.52018 4.16781 18.45092l.003.019c.83451 4.16782-2.9603 7.46635-8.27557 7.46635-5.19989 0-10.05681-3.14206-10.84549-7.15656-.83767-4.17256 2.9603-7.48215 8.27083-7.48215 1.06211 0 2.12895.13435 3.18315.39512.35878.0901.68911.1865 1.00521.29556zm-26.86241 9.46728c-.0158-.50261-.14225-1.32447-.42041-2.74536-.14224-.72703-.94041-4.64196-1.19012-5.89057-.61639-3.09781-1.18539-6.1482-1.78598-9.59373-1.15693-6.67451-1.09371-9.56211.5437-10.31444.79342-.36352 1.67534-.1296 2.90815.55318.65592.35878 3.44868 2.15582 3.27167 2.04677 3.14997 1.96299 5.47174 2.80383 7.78562 2.44664 2.41028-.37933 3.95761-.10115 4.54555.97043.55002 1.00362.0237 2.23642-1.15061 3.44552-2.32968 2.39763-6.2857 3.97184-9.24126 3.1879-1.29602-.34771-1.95352-.73336-3.75847-2.00251l-.15015-.10274c.0743.93725.41726 2.75009 1.13323 6.00912.46467 2.11314 3.28431 14.52492 4.16623 18.4525l.005.0206c.81713 4.16939-2.9777 7.479-8.27242 7.479-5.19515 0-10.05207-3.14997-10.85813-7.17554-.82186-4.17256 2.97769-7.47582 8.28189-7.47582 1.43036 0 2.84966.23707 4.18836.6891z"/><path fill="#fff" d="M152.94 152.2651v42.93c0 3.93526-3.21974 7.155-7.155 7.155h-42.96578c-3.93526 0-7.11922-3.21974-7.11922-7.155l.03578-57.24c0-3.93524 3.18398-7.155 7.11922-7.155h28.62zm-5.36626 3.57754L127.8975 136.1664v19.67626z"/><path fill="#fcb103" d="M127.87726 155.86288v-19.71673l19.71672 19.71672z" data-paper-data="{&quot;noHover&quot;:false,&quot;origItem&quot;:[&quot;Path&quot;,{&quot;applyMatrix&quot;:true,&quot;segments&quot;:[[681.24998,262.5],[612.5,193.75002],[612.5,262.50004]],&quot;closed&quot;:true,&quot;fillColor&quot;:[0,0,0,1]}]}"/><g fill="#bf8b11" stroke-width=".5"><path d="M120.75642 194.59651v-28.50862h7.12714v28.50862z" data-paper-data="{&quot;noHover&quot;:false,&quot;origItem&quot;:[&quot;Path&quot;,{&quot;applyMatrix&quot;:true,&quot;segments&quot;:[[127.93334,157.21668],[108.33334,157.21668],[108.33334,162.11668],[127.93334,162.11668]],&quot;closed&quot;:true,&quot;fillColor&quot;:[0,0,0,1]}]}"/><path d="M138.57431 169.72169h-28.50862v-7.12714h28.50862z" data-paper-data="{&quot;noHover&quot;:false,&quot;origItem&quot;:[&quot;Path&quot;,{&quot;applyMatrix&quot;:true,&quot;segments&quot;:[[127.93334,147.41668],[108.33334,147.41668],[108.33334,152.31668],[127.93334,152.31668]],&quot;closed&quot;:true,&quot;fillColor&quot;:[0,0,0,1]}]}"/></g><g stroke="#fff" stroke-width="10"><path fill="#bf8b11" d="M244.7841 200.30633s-12.70405 23.43799-22.13969 40.84602c-.23051.42527-1.97025 4.21001-2.75034 7.66002-.62833 2.7788.5391 3.66776.14082 3.67744-.51942.0126-.61046-10.05553-.61046-10.72289 0-11.05948-.1-79.66515-.1-79.66515 0-6.87578 6.04295-12.44955 13.49751-12.44955h24.41785s.72405-.007 1.33333 0c20.35955.22222 21.4594 16.5994 21.4594 16.5994h60.76947c7.45175 0 13.49751 5.57636 13.49751 12.44955v12.44955h-93.414c-6.86123 0-13.04759 3.52737-16.1014 9.15561z"/><path fill="#fff" d="M347.59597 253.00986c-1.52409 2.81101-4.63977 4.58818-8.04789 4.58818H229.19712c-10.3271 0-11.38601-6.86186-6.73409-15.92912 8.11763-15.82244 24.8802-45.87772 24.8802-45.87772 1.51847-2.82709 4.63977-4.59077 8.04226-4.59077h111.1576c6.91747 0 11.27604 6.48414 8.04789 12.01122z"/></g><g fill="#fff"><path d="M296.39318 199.91375c-10.73979-19.0805-5.65979-54.74569 14.29281-75.14651 1.77002-1.80528 4.70905-4.36618 6.69404-5.84363 9.3539-6.93595 20.11676-10.51918 32.46216-10.79245 2.82263-.0644 7.67247.28979 10.58697.78704.72231.12186 1.3177.21165 1.3177.21165.009-.008.0154-.82192.0223-1.81565.15042-14.64656.23025-20.34995.30678-20.68033.16203-.66889.8519-1.26851 1.55842-1.34455.61975-.05468 1.09802.14922 1.63482.72455 1.03343 1.09722 27.25079 33.05464 27.35634 33.34273.1735.47145.17776.90014.0205 1.30361-.23426.57101-27.7477 38.84552-28.22215 39.25025-.99336.84152-2.3961.44565-2.88114-.82122-.10555-.28808-.0982-1.46175.11442-20.43287.0159-1.51603.0104-2.77604-.014-2.80297-.0812-.0898-2.36953-.59852-3.85649-.85291-1.93744-.32836-5.89098-.61196-8.16354-.58004-2.77861.0409-5.89746.37323-8.56369.9082-1.12582.23502-3.32873.75889-3.7211.89351-.0958.0295-.67917.21452-1.30577.40597-8.25049 2.5264-16.48061 7.72754-23.47733 14.82432-8.97404 9.10594-11.52223 19.83316-7.32527 45.54948z" data-paper-data="{&quot;index&quot;:null}"/><path d="M291.83938 158.24076c2.03384-30.9033-10.11939-63.31311-33.00211-77.08985-11.29301-5.95557-24.94206-2.85443-29.04751-1.55111-4.13096 1.31142-12.25086 3.74253-18.55086 8.68863-1.18512.9334-2.95296 2.4729-2.98147 2.59054-.009.03529.58816 1.14506 1.32588 2.46958 9.24371 16.56812 9.81047 17.5959 9.85525 17.89943.17861 1.34475-.86496 2.36226-2.13956 2.09707-.61012-.12913-43.0581-20.62538-43.53654-21.01528-.33084-.27942-.53175-.65815-.60437-1.15524-.0448-.30352 7.73546-40.90025 8.1197-42.35772.19701-.7618.51993-1.16929 1.09059-1.41711.65712-.27049 1.54954-.07295 2.01125.43744.22496.25377 3.01792 5.22714 10.1424 18.02504.48047.86989.87466 1.58188.88641 1.58473 0 0 .48029-.36314 1.0568-.81504 2.32354-1.82831 6.41593-4.45484 8.92687-5.7458 10.97817-5.6536 22.14599-7.64329 33.67636-6.01436 2.44951.35057 6.25458 1.19769 8.67171 1.93896 27.27145 8.40048 55.05504 38.73677 56.36635 84.05781 0 0-1.2001 15.15013-3.06016 18.58471-1.08799 2.00895-9.58655 2.90103-9.58655 2.90103z" data-paper-data="{&quot;index&quot;:null}"/></g><g fill="none" stroke="#bf8b11" stroke-linecap="round" stroke-width="7.5"><path d="m234.34053 241.87276 97.56971.61175M247.17386 223.88935l97.56971.61175M261.84053 205.87276l97.56971.61175"/></g></g></svg>