<svg xmlns="http://www.w3.org/2000/svg" width="600" height="300.00006"><path fill="#fcb103" d="M0 300V0h600v300z" style="stroke-miterlimit:10"/><path fill="#eca602" d="M393.66334 300 600 93.66334V300Z" style="stroke-miterlimit:10"/><path fill="#e3a514" d="m0 93.6634 206.33666 206.33666H0Z" style="stroke-miterlimit:10"/><path fill="#f0a902" d="M30 300 330 0h261L291 300Z" style="stroke-miterlimit:10"/><path fill="#e2a414" d="M470 300 170 0h114l300 300z" style="stroke-miterlimit:10"/><path fill="#fff" d="M153.7 62.57501v43.65c0 4.00125-3.27375 7.275-7.275 7.275h-43.68637c-4.00126 0-7.23862-3.27375-7.23862-7.275l.03637-58.2c0-4.00124 3.23738-7.275 7.23862-7.275h29.1zm-5.45625 3.63752L128.2375 46.20628v20.00626z" style="stroke-miterlimit:10"/><path fill="#fcb103" d="M128.20214 66.2479V46.17093l20.07696 20.07696z" data-paper-data="{&quot;noHover&quot;:false,&quot;origItem&quot;:[&quot;Path&quot;,{&quot;applyMatrix&quot;:true,&quot;segments&quot;:[[81.74375,131.7125],[61.7375,111.70626],[61.7375,131.71251]],&quot;closed&quot;:true,&quot;fillColor&quot;:[0,0,0,1]}]}" style="stroke-miterlimit:10"/><g fill="#bf8b11" style="stroke-miterlimit:10"><path stroke="#bf8b11" d="M139.52343 105.35183c-.30636 0-.61272-.11708-.84688-.35027l-29.8955-29.89648c-.46735-.46735-.46735-1.22642 0-1.69377.46735-.46735 1.22641-.46735 1.69376 0l29.8955 29.89551c.46735.46735.46735 1.22641 0 1.69376-.23417.23318-.54053.35125-.84689.35125z"/><path d="M121.98769 80.03023c0 3.63827-2.94945 6.58773-6.58772 6.58773s-6.58772-2.94945-6.58772-6.58773c0-3.63827 2.94945-6.58773 6.58772-6.58773 3.63828 0 6.58772 2.94945 6.58772 6.58773z"/><path d="M121.07453 93.63034c-3.54093-.83612-5.73359-4.38443-4.89747-7.92535.83612-3.54092 4.38443-5.73359 7.92534-4.89746 3.54093.83612 5.7336 4.38442 4.89747 7.92534-.83612 3.54092-4.38443 5.7336-7.92534 4.89747z"/><path d="M136.36223 94.4038c0 3.63827-2.95042 6.5887-6.58869 6.5887s-6.58773-2.95043-6.58773-6.5887c0-3.63827 2.94946-6.58773 6.58773-6.58773 3.63827 0 6.58869 2.95042 6.58869 6.58773z"/><path stroke="#bf8b11" d="M139.57206 105.40045c-.30636 0-.61272-.11708-.84688-.35027l-7.33703-7.33704c-.46832-.46735-.46832-1.22641 0-1.69376.46832-.46735 1.22544-.46735 1.69376 0l7.33704 7.33704c.46735.46735.46735 1.22641 0 1.69376-.23417.23221-.54053.35027-.84688.35027z"/></g><path fill="#fff" d="M503.3 98.32504v69.15c0 6.33876-5.18624 11.525-11.525 11.525h-69.20762c-6.33876 0-11.46738-5.18624-11.46738-11.525l.0576-92.2c0-6.33874 5.12863-11.525 11.46738-11.525h46.1zm-8.64376 5.76251L462.9625 72.39381v31.69376z" style="stroke-miterlimit:10"/><path fill="#fcb103" d="M462.9299 104.12016V72.36121l31.75893 31.75893z" data-paper-data="{&quot;noHover&quot;:false,&quot;origItem&quot;:[&quot;Path&quot;,{&quot;applyMatrix&quot;:true,&quot;segments&quot;:[[442.12499,125.75002],[407.75,91.37503],[407.75,125.75004]],&quot;closed&quot;:true,&quot;fillColor&quot;:[0,0,0,1]}]}" style="stroke-miterlimit:10"/><path fill="#bf8b11" fill-rule="evenodd" d="M468.9816 143.38863c-.0158-.49312-.13751-1.30392-.40461-2.69003-.15173-.78235-.96727-4.77632-1.19013-5.89532-.6243-3.12942-1.20119-6.19562-1.80496-9.66168-1.15693-6.67451-1.09528-9.56211.54371-10.31602.79026-.36352 1.67535-.12643 2.90814.55318.65433.35878 3.44868 2.1574 3.27166 2.04834 3.15154 1.96299 5.47491 2.80383 7.79194 2.44664 2.41186-.37458 3.9576-.0948 4.54555.97676.55002 1.00362.0237 2.23801-1.15377 3.44552-2.32651 2.39606-6.28254 3.97341-9.24285 3.19738-1.29918-.34771-1.95668-.73494-3.76162-2.00252l-.15015-.1043c.0743.93725.41726 2.75009 1.13323 6.01069.46467 2.11156 3.28746 14.52018 4.16781 18.45092l.003.019c.83451 4.16782-2.9603 7.46635-8.27557 7.46635-5.19989 0-10.05681-3.14206-10.84549-7.15656-.83767-4.17256 2.9603-7.48215 8.27083-7.48215 1.06211 0 2.12895.13435 3.18315.39512.35878.0901.68911.1865 1.00521.29556zm-26.86241 9.4673c-.0158-.50261-.14225-1.32447-.42041-2.74536-.14224-.72703-.94041-4.64196-1.19012-5.89057-.61639-3.09781-1.18539-6.1482-1.78598-9.59373-1.15693-6.67451-1.09371-9.56211.5437-10.31444.79342-.36352 1.67534-.1296 2.90815.55318.65592.35878 3.44868 2.15582 3.27167 2.04677 3.14997 1.96299 5.47174 2.80383 7.78562 2.44664 2.41028-.37933 3.95761-.10115 4.54555.97043.55002 1.00362.0237 2.23642-1.15061 3.44552-2.32968 2.39763-6.2857 3.97184-9.24126 3.1879-1.29602-.34771-1.95352-.73336-3.75847-2.00251l-.15015-.10274c.0743.93725.41726 2.75009 1.13323 6.00912.46467 2.11314 3.28431 14.52492 4.16623 18.4525l.005.0206c.81713 4.16939-2.9777 7.479-8.27242 7.479-5.19515 0-10.05207-3.14997-10.85813-7.17554-.82186-4.17256 2.97769-7.47582 8.28189-7.47582 1.43036 0 2.84966.23707 4.18836.6891z" style="stroke-miterlimit:10"/><path fill="#fff" d="M152.94 152.26495v42.93c0 3.93526-3.21974 7.155-7.155 7.155h-42.96578c-3.93526 0-7.11922-3.21974-7.11922-7.155l.03578-57.24c0-3.93524 3.18398-7.155 7.11922-7.155h28.62zm-5.36626 3.5775-19.67624-19.67624v19.67626z" style="stroke-miterlimit:10"/><path fill="#fcb103" d="M127.87726 155.8627v-19.71673l19.71672 19.71672z" data-paper-data="{&quot;noHover&quot;:false,&quot;origItem&quot;:[&quot;Path&quot;,{&quot;applyMatrix&quot;:true,&quot;segments&quot;:[[681.24998,262.5],[612.5,193.75002],[612.5,262.50004]],&quot;closed&quot;:true,&quot;fillColor&quot;:[0,0,0,1]}]}" style="stroke-miterlimit:10"/><g fill="#bf8b11" stroke-width=".5" style="stroke-miterlimit:10"><path d="M120.75642 194.59632V166.0877h7.12714v28.50862z" data-paper-data="{&quot;noHover&quot;:false,&quot;origItem&quot;:[&quot;Path&quot;,{&quot;applyMatrix&quot;:true,&quot;segments&quot;:[[127.93334,157.21668],[108.33334,157.21668],[108.33334,162.11668],[127.93334,162.11668]],&quot;closed&quot;:true,&quot;fillColor&quot;:[0,0,0,1]}]}"/><path d="M138.57431 169.72152h-28.50862v-7.12714h28.50862z" data-paper-data="{&quot;noHover&quot;:false,&quot;origItem&quot;:[&quot;Path&quot;,{&quot;applyMatrix&quot;:true,&quot;segments&quot;:[[127.93334,147.41668],[108.33334,147.41668],[108.33334,152.31668],[127.93334,152.31668]],&quot;closed&quot;:true,&quot;fillColor&quot;:[0,0,0,1]}]}"/></g><path fill="#fff" d="M296.39318 199.91357c-10.73979-19.0805-5.65979-54.74569 14.29281-75.14651 1.77002-1.80528 4.70905-4.36618 6.69404-5.84363 9.3539-6.93595 20.11676-10.51918 32.46216-10.79245 2.82263-.0644 7.67247.28979 10.58697.78704.72231.12186 1.3177.21165 1.3177.21165.009-.008.0154-.82192.0223-1.81565.15042-14.64656.23025-20.34995.30678-20.68033.16203-.66889.8519-1.26851 1.55842-1.34455.61975-.05468 1.09802.14922 1.63482.72455 1.03343 1.09722 27.25079 33.05464 27.35634 33.34273.1735.47145.17776.90014.0205 1.30361-.23426.57101-27.7477 38.84552-28.22215 39.25025-.99336.84152-2.3961.44565-2.88114-.82122-.10555-.28808-.0982-1.46175.11442-20.43287.0159-1.51603.0104-2.77604-.014-2.80297-.0812-.0898-2.36953-.59852-3.85649-.85291-1.93744-.32836-5.89098-.61196-8.16354-.58004-2.77861.0409-5.89746.37323-8.56369.9082-1.12582.23502-3.32873.75889-3.7211.89351-.0958.0295-.67917.21452-1.30577.40597-8.25049 2.5264-16.48061 7.72754-23.47733 14.82432-8.97404 9.10594-11.52223 19.83316-7.32527 45.54948z" data-paper-data="{&quot;index&quot;:null}" style="stroke-miterlimit:10"/><path fill="#fff" d="M291.70983 159.979c2.61584-31.41851-9.56034-64.79295-32.87256-78.82829-11.29301-5.95557-24.94206-2.85443-29.04751-1.55111-4.13096 1.31142-12.25086 3.74253-18.55086 8.68863-1.18512.9334-2.95296 2.4729-2.98147 2.59054-.009.03529.58816 1.14506 1.32588 2.46958 9.24371 16.56812 9.81047 17.5959 9.85525 17.89943.17861 1.34475-.86496 2.36226-2.13956 2.09707-.61012-.12913-43.0581-20.62538-43.53654-21.01528-.33084-.27942-.53175-.65815-.60437-1.15524-.0448-.30352 7.73546-40.90025 8.1197-42.35772.19701-.7618.51993-1.16929 1.09059-1.41711.65712-.27049 1.54954-.07295 2.01125.43744.22496.25377 3.01792 5.22714 10.1424 18.02504.48047.86989.87466 1.58188.88641 1.58473 0 0 .48029-.36314 1.0568-.81504 2.32354-1.82831 6.41593-4.45484 8.92687-5.7458 10.97817-5.6536 22.14599-7.64329 33.67636-6.01436 2.44951.35057 6.25458 1.19769 8.67171 1.93896 27.27145 8.40048 55.05504 38.73677 56.36635 84.05781 0 0-1.2001 15.15013-3.06016 18.58471-1.08799 2.00895-9.33655.52603-9.33655.52603z" data-paper-data="{&quot;index&quot;:null}" style="stroke-miterlimit:10"/><!--! Font Awesome Pro 6.3.0 by @fontawesome - https://fontawesome.com License - https://fontawesome.com/license (Commercial License) Copyright 2023 Fonticons, Inc.--><path d="m336.6804 189.86379 1.04528 87.80488L454.102 234.81153l-3.13588-28.57143-46.68992-4.52961-30.31358-16.72475z" style="fill:#bf8b11;fill-opacity:1;stroke:none;stroke-width:1px;stroke-linecap:butt;stroke-linejoin:miter;stroke-opacity:1" transform="translate(-154.29045 -65.134708) scale(1.1160238)"/><path d="M432.5504 298.02895h12.74192c3.0262 0 5.81349-1.59274 7.3266-4.22078l29.73113-50.96763c1.53964-2.62802 1.53964-5.86659.0265-8.52116-1.5131-2.65456-4.30039-4.24729-7.35315-4.24729H368.84081c-3.02622 0-5.8135 1.59273-7.3266 4.22074l-18.15723 31.11151v-69.31071c0-2.33601 1.91133-4.23241 4.24731-4.24728l24.52572-.15611c1.11487-.007 7.13156.43831 7.75395 1.37697l5.00525 7.54863c3.39619 5.12192 5.24935 8.21973 12.35288 8.21973h43.80289c2.33601 0 4.24729 1.91128 4.24729 4.24729v18.49461h12.74192v-18.49461c0-9.37061-7.61893-17.06705-16.98921-16.98923l-37.59136.3122c-4.51262.0375-7.90309-1.77854-11.08858-4.96402l-4.10972-7.48372c-3.1855-3.18549-9.38895-4.85367-13.9017-4.85367h-26.74928c-9.37063 0-16.98922 7.61861-16.98922 16.98921v84.9461c0 9.37061 7.61859 16.98922 16.98922 16.98922h6.2913z" style="fill:#fff;stroke-width:.265456" transform="translate(-154.29045 -65.134708) scale(1.1160238)"/><path fill="none" stroke="#bf8b11" stroke-linecap="round" stroke-width="6" d="m346.26158 283.82225 97.56971.61175m12.83333-17.9834-97.56971-.61175m14.66667-18.0166 97.56971.61175" style="stroke-miterlimit:10" transform="translate(-154.29045 -65.134708) scale(1.1160238)"/></svg>