<svg xmlns="http://www.w3.org/2000/svg" width="600" height="300" viewBox="0 0 600.00001 300"><path fill="#00511f" d="M.00001 299.99999v-300h600v300z" style="fill-rule:nonzero;stroke:none;stroke-linecap:butt;stroke-linejoin:miter;stroke-miterlimit:10;stroke-dasharray:none;stroke-dashoffset:0"/><path fill="#00d150" d="M407.00001 0h110v33h-167v34h-42v33h173v33h49v34h-253v33h-4v33h16v34h82v33h-371V0z" style="fill-rule:nonzero;stroke:none;stroke-linecap:butt;stroke-linejoin:miter;stroke-miterlimit:10;stroke-dasharray:none;stroke-dashoffset:0"/><path fill="#00b344" d="M420.00001 0h-79v33h34v34h-104v33h116v33h-91v34h53v33h58v33h12v34h-39v33h-380V0z" style="fill-rule:nonzero;stroke:none;stroke-linecap:butt;stroke-linejoin:miter;stroke-miterlimit:10;stroke-dasharray:none;stroke-dashoffset:0"/><path fill="#00de55" d="M296.00001 0h14v33h101l.33333 40-161-.08226L250.00001 100h97v33h-39v34h25v33h109v33h-61v34h-36v33h-345V0z" style="fill-rule:nonzero;stroke:none;stroke-linecap:butt;stroke-linejoin:miter;stroke-miterlimit:10;stroke-dasharray:none;stroke-dashoffset:0"/><path fill="#00d150" d="M347.00001 0h33v33h-38v34h-50v33h44v33h-127v34h35v33h-41v33h89v34h64v33h-356V0z" style="fill-rule:nonzero;stroke:none;stroke-linecap:butt;stroke-linejoin:miter;stroke-miterlimit:10;stroke-dasharray:none;stroke-dashoffset:0"/><path fill="#00e658" d="M220.00001 0h70v33h-40v34h-50v33h142v33h-63.58333l-4.5.66667-69.01574.61302L199.91668 133h-44.91666v34h50v33h135v33h-85v34h64v33h-319V0z" style="fill-rule:nonzero;stroke:none;stroke-linecap:butt;stroke-linejoin:miter;stroke-miterlimit:10;stroke-dasharray:none;stroke-dashoffset:0"/><path fill="#00c44b" d="M199.00001 0h55v33h-24v34h-55v33h-40v33h65.41667l36.13678.86318 33.641.19238L276.25002 133h16.75v34h-145v33h135v33h-147v34h84v33h-220V0z" style="fill-rule:nonzero;stroke:none;stroke-linecap:butt;stroke-linejoin:miter;stroke-miterlimit:10;stroke-dasharray:none;stroke-dashoffset:0"/><path fill="#00b745" d="M182.00001 0h36v33h25v34h-32v33l26.86818.28409-.16969 34.08657-34.11516.29601-6.5-1.66667H176v34h-13v33h80v33h-31v34h7v33H0V0z" style="fill-rule:nonzero;stroke:none;stroke-linecap:butt;stroke-linejoin:miter;stroke-miterlimit:10;stroke-dasharray:none;stroke-dashoffset:0"/><path fill="#00ca4d" d="M75.00001 0h-5v33h95v34h-75v33h61v33h-69v34h112v33h-80v33h27v34h-9v33h-132V0z" style="fill-rule:nonzero;stroke:none;stroke-linecap:butt;stroke-linejoin:miter;stroke-miterlimit:10;stroke-dasharray:none;stroke-dashoffset:0"/><path fill="#009e3d" d="M99.00001 0h26v33h-2v34h-40v33h6v33h-38v34h5v33h30v33h5v34h41v33h-132V0z" style="fill-rule:nonzero;stroke:none;stroke-linecap:butt;stroke-linejoin:miter;stroke-miterlimit:10;stroke-dasharray:none;stroke-dashoffset:0"/><path fill="#009138" d="M3.00001 0h7v33h48v34h-19v33h-15v33h75v34h-69v33h-18v33h10v34h38v33h-60V0z" style="fill-rule:nonzero;stroke:none;stroke-linecap:butt;stroke-linejoin:miter;stroke-miterlimit:10;stroke-dasharray:none;stroke-dashoffset:0"/><path d="M236.79207 82.981471c-5.88185.0274-11.81094 1.13624-17.49098 3.392002-18.17612 7.218413-30.16051 24.738047-30.29855 44.294577-4.61672 29.60395-7.08807 59.50319-7.39809 89.46337 0 17.90736 7.39975 29.59796 21.60725 32.26186 2.62988.53859 5.30605.81188 7.99051.81459 13.05879.24221 24.65194-8.31584 28.2666-20.86672 2.88589-8.13972 8.06697-19.38899 11.24885-26.19674 16.74718 7.62319 36.31787-1.71817 40.92067-19.53376h16.72334c4.61091 17.77002 24.1191 27.09845 40.84661 19.53376 3.18188 6.73375 8.36115 17.98303 11.24704 26.19674 3.62172 12.57792 15.25462 21.14282 28.34066 20.86672 2.70922.003 5.41234-.27054 8.06636-.81459 14.13351-2.8859 21.53321-14.3545 21.53321-32.26186-.31002-29.96018-2.78312-59.85942-7.3999-89.46337-.13804-19.55653-12.12244-37.076164-30.29856-44.294577-18.17611-7.218427-38.91382-2.693076-52.43139 11.440291h-56.53321c-9.29334-9.716693-22.00034-14.892414-34.94042-14.832293Zm127.68379 14.944277a11.099603 11.099603 0 0 1-1.57859 22.085892 11.099603 11.099603 0 0 1-11.09894-11.09894 11.099603 11.099603 0 0 1 12.67753-10.986952zm-138.47387 7.287912h22.19968v14.79798h14.79977v22.19967h-14.79977v14.79978h-22.19968v-14.79978h-14.79978v-22.19967h14.79978zm136.89528 0a3.6998676 3.6998676 0 0 0-3.70085 3.69904 3.6998676 3.6998676 0 1 0 3.70085-3.69904zm-129.49538 7.39809v14.79977H218.6021v7.3999h14.79979v14.79978h7.39989v-14.79978h14.79977v-7.3999h-14.79977v-14.79977zm108.8761 7.51367a11.099603 11.099603 0 0 1-1.5804 22.08589 11.099603 11.099603 0 0 1-11.09893-11.09893 11.099603 11.099603 0 0 1 12.67933-10.98696zm44.39755 0a11.099603 11.099603 0 0 1-1.57859 22.08589 11.099603 11.099603 0 0 1-11.10075-11.09893 11.099603 11.099603 0 0 1 12.67934-10.98696zm-45.97795 7.2861a3.6998676 3.6998676 0 0 0-3.69903 3.70086 3.6998676 3.6998676 0 1 0 3.69903-3.70086zm44.39936 0a3.6998676 3.6998676 0 0 0-3.70086 3.70086 3.6998676 3.6998676 0 1 0 3.70086-3.70086zm-20.62109 14.91358a11.099603 11.099603 0 0 1-1.57859 22.08588 11.099603 11.099603 0 0 1-11.09894-11.10074 11.099603 11.099603 0 0 1 12.67753-10.98514zm-1.57859 7.2861a3.6998676 3.6998676 0 0 0-3.70085 3.69904 3.6998676 3.6998676 0 1 0 3.70085-3.69904zm-99.89583 14.79978a14.799469 14.799469 0 0 1 14.79799 14.79977 14.799469 14.799469 0 1 1-14.79799-14.79977zm73.99712 0a14.799469 14.799469 0 0 1 14.79977 14.79977 14.799469 14.799469 0 1 1-14.79977-14.79977zm-74.50285 7.41615a7.3997351 7.3997351 0 0 0 .50573 14.78352 7.3997351 7.3997351 0 0 0 7.39989-7.3999 7.3997351 7.3997351 0 0 0-7.90562-7.38362zm73.99711 0a7.3997351 7.3997351 0 0 0 .50574 14.78352 7.3997351 7.3997351 0 0 0 7.39989-7.3999 7.3997351 7.3997351 0 0 0-7.90563-7.38362z" style="fill:#fff;stroke-width:7.39974"/><path d="M300.22361 101.68719V37.628742s.49276-18.724781 14.78271-18.724781c14.28996 0 16.83989 11.78632 16.95603 16.231099.11614 4.44478.23229 8.889559.34843 13.334338.11614 4.444779 5.42027 11.087042 13.79716 11.087042 8.3769 0 14.98682-3.347243 14.78275-12.072555-.1962-8.389066-.49279-48.7829807-.49279-48.7829807" style="fill:none;fill-opacity:1;stroke:#fdffff;stroke-width:8;stroke-linecap:butt;stroke-linejoin:miter;stroke-miterlimit:4;stroke-dasharray:none;stroke-opacity:1"/></svg>