<svg xmlns="http://www.w3.org/2000/svg" width="600" height="300" viewBox="0 0 600.00001 300"><path fill="#00511f" d="M.00001 299.99999v-300h600v300z" style="fill-rule:nonzero;stroke:none;stroke-linecap:butt;stroke-linejoin:miter;stroke-miterlimit:10;stroke-dasharray:none;stroke-dashoffset:0"/><path fill="#00d150" d="M407.00001 0h110v33h-167v34h-42v33h173v33h49v34h-253v33h-4v33h16v34h82v33h-371V0z" style="fill-rule:nonzero;stroke:none;stroke-linecap:butt;stroke-linejoin:miter;stroke-miterlimit:10;stroke-dasharray:none;stroke-dashoffset:0"/><path fill="#00b344" d="M420.00001 0h-79v33h34v34h-104v33h116v33h-91v34h53v33h58v33h12v34h-39v33h-380V0z" style="fill-rule:nonzero;stroke:none;stroke-linecap:butt;stroke-linejoin:miter;stroke-miterlimit:10;stroke-dasharray:none;stroke-dashoffset:0"/><path fill="#00de55" d="M296.00001 0h14v33h101l.33333 40-161-.08226L250.00001 100h97v33h-39v34h25v33h109v33h-61v34h-36v33h-345V0z" style="fill-rule:nonzero;stroke:none;stroke-linecap:butt;stroke-linejoin:miter;stroke-miterlimit:10;stroke-dasharray:none;stroke-dashoffset:0"/><path fill="#00d150" d="M347.00001 0h33v33h-38v34h-50v33h44v33h-127v34h35v33h-41v33h89v34h64v33h-356V0z" style="fill-rule:nonzero;stroke:none;stroke-linecap:butt;stroke-linejoin:miter;stroke-miterlimit:10;stroke-dasharray:none;stroke-dashoffset:0"/><path fill="#00e658" d="M220.00001 0h70v33h-40v34h-50v33h142v33h-63.58333l-4.5.66667-69.01574.61302L199.91668 133h-44.91666v34h50v33h135v33h-85v34h64v33h-319V0z" style="fill-rule:nonzero;stroke:none;stroke-linecap:butt;stroke-linejoin:miter;stroke-miterlimit:10;stroke-dasharray:none;stroke-dashoffset:0"/><path fill="#00c44b" d="M199.00001 0h55v33h-24v34h-55v33h-40v33h65.41667l36.13678.86318 33.641.19238L276.25002 133h16.75v34h-145v33h135v33h-147v34h84v33h-220V0z" style="fill-rule:nonzero;stroke:none;stroke-linecap:butt;stroke-linejoin:miter;stroke-miterlimit:10;stroke-dasharray:none;stroke-dashoffset:0"/><path fill="#00b745" d="M182.00001 0h36v33h25v34h-32v33l26.86818.28409-.16969 34.08657-34.11516.29601-6.5-1.66667H176v34h-13v33h80v33h-31v34h7v33H0V0z" style="fill-rule:nonzero;stroke:none;stroke-linecap:butt;stroke-linejoin:miter;stroke-miterlimit:10;stroke-dasharray:none;stroke-dashoffset:0"/><path fill="#00ca4d" d="M75.00001 0h-5v33h95v34h-75v33h61v33h-69v34h112v33h-80v33h27v34h-9v33h-132V0z" style="fill-rule:nonzero;stroke:none;stroke-linecap:butt;stroke-linejoin:miter;stroke-miterlimit:10;stroke-dasharray:none;stroke-dashoffset:0"/><path fill="#009e3d" d="M99.00001 0h26v33h-2v34h-40v33h6v33h-38v34h5v33h30v33h5v34h41v33h-132V0z" style="fill-rule:nonzero;stroke:none;stroke-linecap:butt;stroke-linejoin:miter;stroke-miterlimit:10;stroke-dasharray:none;stroke-dashoffset:0"/><path fill="#009138" d="M3.00001 0h7v33h48v34h-19v33h-15v33h75v34h-69v33h-18v33h10v34h38v33h-60V0z" style="fill-rule:nonzero;stroke:none;stroke-linecap:butt;stroke-linejoin:miter;stroke-miterlimit:10;stroke-dasharray:none;stroke-dashoffset:0"/><g style="fill-rule:nonzero;stroke:none;stroke-linecap:butt;stroke-linejoin:miter;stroke-miterlimit:10;stroke-dasharray:none;stroke-dashoffset:0"><path fill="#fff" d="m366.73361-12.35399 7.65653-6.6772-.62495 67.65171c-.11386 16.49901-.34159 18.64614-2.50495 22.14936-5.23762 8.36252-18.55938 11.63971-26.4158 6.21538-6.94554-4.63328-8.42574-7.68447-9.1089-19.21118-.68316-11.63972-1.93565-14.57789-7.17326-17.74209-4.44059-2.71217-7.74256-2.82517-12.63859-.56504-7.05939 3.39021-7.51485 5.31133-7.51485 34.35411v26.1046h12.41088c12.18316 0 12.52473-.11301 19.01482-3.95525 9.90593-5.98937 17.07919-7.68447 29.3762-7.11944 8.65346.33903 11.61384 1.01706 18.10393 3.95525 24.36631 11.4137 35.41084 39.10039 25.39105 63.7359l-2.84653 7.11944 2.27722 32.77201c1.25247 18.08111 2.04951 35.25815 1.70792 38.19634-1.59406 14.91691-14.46038 25.76558-30.28709 25.76558-11.95542 0-21.63364-5.76335-26.64353-15.70796-1.48019-2.82518-5.5792-14.12586-9.22276-24.97453-3.64356-10.84867-6.71782-20.00223-6.94554-20.22824-.22772-.22601-1.82178 1.24308-3.5297 3.2772-8.19801 9.71859-22.65839 10.50965-33.13362 1.69511l-3.75741-3.1642-3.07425 2.93818c-9.1089 8.70154-23.56928 8.47552-32.79204-.45202l-3.64356-3.50321-5.92078 17.96809c-10.13365 30.17284-12.6386 34.46712-23.34155 39.43943-18.55938 8.70153-41.21777-3.39021-43.38113-23.05342-.34159-2.93819.45546-19.88921 1.70792-37.74431l2.39108-32.31999-3.18812-6.66741c-2.84653-5.98937-3.07425-7.68448-3.07425-20.11524 0-12.31776.34158-14.12586 3.07425-20.11523 4.55445-9.7186 15.02969-20.00223 24.93562-24.52251 6.60395-2.93819 10.01978-3.84224 17.99007-4.29426 11.84157-.56503 19.12869 1.13007 29.03462 7.11944l6.60395 3.95525H300.21082l.45544-27.46069c.45544-30.51187.68316-31.86795 8.42573-37.6313 4.21287-3.2772 13.32177-4.8593 19.12869-3.39021 3.64356.90405 10.5891 6.78042 12.6386 10.73566.79703 1.6951 1.82178 7.57147 2.27722 13.22182.91089 10.73566 1.59406 12.43075 6.49009 15.59495 4.32673 2.82518 10.13365 1.58209 13.89108-2.82518 2.84654-3.39021 2.96039-3.84222 2.96039-20.90628zm-11.64167 120.41616c-7.97029 12.9958 8.31187 26.66964 19.81186 16.61203 6.83167-5.87636 6.49009-16.04699-.79703-20.68027-6.60395-4.40727-14.91583-2.59917-19.01483 4.06824zm-120.69291 3.1642c-9.33662 0-11.38613 1.6951-11.38613 9.26657v5.0853l-5.80692.56504c-7.97029.79105-9.56435 2.71216-9.56435 11.5267 0 9.49258 2.0495 11.97874 9.90593 11.97874h5.46534v5.42433c0 7.79748 2.50495 9.8316 12.06929 9.8316 8.88118 0 10.47523-1.35608 11.49998-9.37958l.68317-5.87636h4.66831c2.61881 0 5.92078-.79104 7.28712-1.80811 2.16336-1.46909 2.50495-2.71217 2.50495-9.37958 0-9.71859-1.36633-11.52671-8.76732-12.20475l-5.80693-.56503-.56931-5.76336c-.34159-3.72923-1.25247-6.21537-2.6188-7.23244-1.13861-.90405-5.12376-1.46909-9.56435-1.46909zm70.02466 7.45845c-8.08415-.90405-12.86632 1.35608-11.27227 5.42433.5693 1.58209 2.27723 1.80812 9.45049 1.5821 7.40098-.33903 8.65346-.67805 8.99504-2.48615.22772-1.13007 0-2.48615-.56931-2.93818-.45544-.56503-3.41584-1.24308-6.60395-1.5821zm37.68807 4.18126c-4.89603-.56503-5.46534-.33902-9.79207 3.95525-5.12376 5.08531-5.80692 9.04055-2.73266 15.48195 1.82178 3.95524 7.40098 7.34545 12.06929 7.34545 4.21287 0 10.01979-4.18125 11.95543-8.70153 2.0495-5.08531.68317-10.96167-3.5297-14.91691-1.82178-1.6951-4.78217-2.82517-7.97029-3.1642zm36.20788 11.75272c-1.59406 12.20475 14.1188 19.66321 22.77225 10.62265 6.14851-6.44139 4.44058-17.29006-3.30198-20.90628-8.88117-4.18126-18.33166.67805-19.47027 10.28363zm-23.34156 15.70796c-3.75742 5.65034-2.0495 13.89986 3.75742 17.8551 3.30198 2.37314 12.18315 2.37314 15.48513 0 2.9604-2.03412 5.92078-7.34545 5.92078-10.62265 0-4.06825-3.18811-9.60559-6.71781-11.63971-6.37623-3.72923-14.23265-1.92112-18.44552 4.40726zm-88.58404 33.56306c-1.36633 3.50322-.11386 10.05761 2.50495 13.22181 4.44059 5.53734 13.54949 7.34545 20.03958 4.06825 9.45049-4.97231 10.01979-20.00223.91089-25.87859-8.42573-5.42433-19.69799-1.24307-23.45541 8.58853zm38.59896 4.18125c0 9.04056 5.92079 14.6909 15.25741 14.6909 3.07425 0 6.60395-.79105 8.198-1.92111 3.18811-2.03412 7.28712-9.15356 7.28712-12.88279 0-3.72923-3.41583-9.83161-6.71781-12.20476-10.47523-7.34545-24.02472-.45203-24.02472 12.31776z"/><path fill="#00b745" d="M311.07656 120.25654c.5693.45203.79778 1.82423.57006 2.9543-.34159 1.8081-1.63903 2.19117-9.04001 2.53019-7.17325.22602-8.93474-.0392-9.50404-1.62125-1.59406-4.06825 3.26353-6.38138 11.34769-5.47732 3.18811.33903 6.17086 1.04905 6.6263 1.61409z" data-paper-data="{&quot;noHover&quot;:false,&quot;origItem&quot;:[&quot;Path&quot;,{&quot;applyMatrix&quot;:true,&quot;segments&quot;:[[[608.84736,237.36965],[6.37623,0.67805],[-16.1683,-1.80811]],[[586.30283,248.21832],[-3.18811,-8.1365],[1.13861,3.16419]],[[605.2038,251.38252],[-14.34651,0.45203],[14.80197,-0.67805]],[[623.19388,246.41021],[-0.68317,3.61621],[0.45544,-2.26013]],[[622.05527,240.53386],[1.13861,0.90405],[-0.91089,-1.13007]]],&quot;closed&quot;:true,&quot;fillColor&quot;:[1,1,1]}]}"/><path fill="#00de55" d="M289.87803 175.26026c9.1089 5.87636 8.53637 20.99041-.91411 25.96271-6.49009 3.2772-15.66419 1.4562-20.10478-4.08114-2.61881-3.1642-3.87971-9.76183-2.51337-13.26505 3.75742-9.8316 15.10653-14.04085 23.53226-8.61652z" data-paper-data="{&quot;noHover&quot;:false,&quot;origItem&quot;:[&quot;Path&quot;,{&quot;applyMatrix&quot;:true,&quot;segments&quot;:[[[532.78806,367.77965],[7.51484,-19.6632],[-2.73267,7.00643]],[[537.79795,394.22327],[-5.23762,-6.3284],[8.88118,11.07468]],[[577.8771,402.35978],[-12.98018,6.5544],[18.90097,-9.94461]],[[579.69888,350.60259],[18.2178,11.75272],[-16.85147,-10.84866]]],&quot;closed&quot;:true,&quot;fillColor&quot;:[1,1,1]}]}"/><path fill="#00de55" d="M329.04696 175.71276c3.30198 2.37314 6.73856 8.51674 6.73856 12.24597 0 3.72923-4.12272 10.89055-7.31083 12.92467-1.59406 1.13007-5.15041 1.92858-8.22466 1.92858-9.33662 0-15.30702-5.69932-15.30702-14.73988 0-12.76979 13.62872-19.70479 24.10395-12.35934z" data-paper-data="{&quot;noHover&quot;:false,&quot;origItem&quot;:[&quot;Path&quot;,{&quot;applyMatrix&quot;:true,&quot;segments&quot;:[[[609.98598,376.14216],[0,-25.53957],[0,18.08111]],[[640.50079,405.52396],[-18.67324,0],[6.14851,0]],[[656.8968,401.68173],[-3.18811,2.26013],[6.37623,-4.06824]],[[671.47104,375.91615],[0,7.45846],[0,-7.45846]],[[658.03542,351.50664],[6.60395,4.74629],[-20.95047,-14.69091]]],&quot;closed&quot;:true,&quot;fillColor&quot;:[1,1,1]}]}"/><path fill="#00d150" d="M373.44997 145.87701c3.5297 2.03412 6.7414 7.61608 6.7414 11.68433 0 3.2772-2.98212 8.62767-5.94252 10.66179-3.30198 2.37314-12.24 2.37286-15.54198-.00029-5.80692-3.95524-7.52957-12.27064-3.77215-17.92099 4.21287-6.32838 12.13901-8.15408 18.51524-4.42485z" data-paper-data="{&quot;noHover&quot;:false,&quot;origItem&quot;:[&quot;Path&quot;,{&quot;applyMatrix&quot;:true,&quot;segments&quot;:[[[709.95614,300.65353],[8.42573,-12.65677],[-7.51484,11.30069]],[[717.47098,336.36372],[-11.61384,-7.91048],[6.60395,4.74629]],[[748.44124,336.36372],[-6.60395,4.74629],[5.92079,-4.06824]],[[760.2828,315.11842],[0,6.5544],[0,-8.1365]],[[746.84718,291.839],[7.0594,4.06824],[-12.75246,-7.45846]]],&quot;closed&quot;:true,&quot;fillColor&quot;:[1,1,1]}]}"/><path fill="#fff" d="M369.8939 111.00035c4.89603 3.95524.45544 10.62265-5.69306 8.70153-3.18811-1.01707-4.21287-5.76335-1.70792-8.47552 2.50495-2.82518 4.21286-2.82518 7.40098-.22602zM230.98319 119.13685h6.83168V133.82776H253.75544V141.73825h-14.46038l-.79703 4.18125c-.34159 2.37314-.68317 5.98937-.68317 7.91048 0 3.39021-.34159 3.72923-3.41584 3.72923h-3.41584v-15.82096h-16.05443l.34158-3.72923.34159-3.61622 7.74256-.33903 7.6287-.33901v-7.23245zM345.5276 133.26272c1.70792 2.59916 1.70792 3.05118 0 5.65034-1.02475 1.5821-2.84653 2.82517-4.099 2.82517-4.89603 0-7.40098-6.10238-3.87128-9.49259 2.61881-2.59916 5.80692-2.26013 7.97028 1.01707zM395.51268 132.69768c4.55445 5.08531-2.27722 11.86574-7.40098 7.34545-2.73267-2.48615-2.84654-4.8593-.34159-7.57146 2.39108-2.59916 5.12376-2.59916 7.74257.22601zM372.17113 157.5592c0 1.24308-1.25248 3.05119-2.84653 4.06825-2.61881 1.69511-3.07425 1.69511-5.69306 0-3.07425-2.03412-3.75742-6.10238-1.4802-8.36251 3.18811-3.1642 10.01979-.22602 10.01979 4.29426z"/></g></svg>