<svg xmlns="http://www.w3.org/2000/svg" width="600" height="300"><defs><linearGradient id="a" x1="240" x2="240" y1="140.375" y2="219.625" gradientTransform="matrix(3.76884 0 0 3.78549 -604.523 -531.388)" gradientUnits="userSpaceOnUse"><stop offset="0" stop-color="#142641"/><stop offset="1" stop-color="#2e0b3f"/></linearGradient><linearGradient id="b" x1="240" x2="240" y1="140.868" y2="146.18" gradientUnits="userSpaceOnUse"><stop offset="0" stop-color="#5b5b5b" stop-opacity="0"/><stop offset="1" stop-color="#5b5b5b"/></linearGradient><linearGradient id="c" x1="239.969" x2="239.969" y1="160.326" y2="201.632" gradientUnits="userSpaceOnUse"><stop offset="0" stop-color="#c1c1c1"/><stop offset="1" stop-color="#bdbdbd"/></linearGradient><linearGradient id="d" x1="239.969" x2="239.969" y1="160.326" y2="201.632" gradientUnits="userSpaceOnUse"><stop offset="0" stop-color="#a0a0ac"/><stop offset="1" stop-color="#a19ca4"/></linearGradient><linearGradient id="e" x1="268.657" x2="268.657" y1="160.326" y2="201.632" gradientUnits="userSpaceOnUse"><stop offset="0" stop-color="#c1c1c1"/><stop offset="1" stop-color="#bdbdbd"/></linearGradient><linearGradient id="f" x1="268.657" x2="268.657" y1="160.326" y2="201.632" gradientUnits="userSpaceOnUse"><stop offset="0" stop-color="#a0a0ac"/><stop offset="1" stop-color="#a19ca4"/></linearGradient><linearGradient id="g" x1="211.343" x2="211.343" y1="160.326" y2="201.632" gradientUnits="userSpaceOnUse"><stop offset="0" stop-color="#c1c1c1"/><stop offset="1" stop-color="#bdbdbd"/></linearGradient><linearGradient id="h" x1="211.343" x2="211.343" y1="160.326" y2="201.632" gradientUnits="userSpaceOnUse"><stop offset="0" stop-color="#a0a0ac"/><stop offset="1" stop-color="#a19ca4"/></linearGradient><linearGradient id="i" x1="239.969" x2="239.969" y1="160.326" y2="201.632" gradientUnits="userSpaceOnUse"><stop offset="0" stop-color="#bbbbc8"/><stop offset="1" stop-color="#bab4bd"/></linearGradient><linearGradient id="j" x1="268.657" x2="268.657" y1="160.326" y2="201.632" gradientUnits="userSpaceOnUse"><stop offset="0" stop-color="#bbbbc8"/><stop offset="1" stop-color="#bab4bd"/></linearGradient><linearGradient id="k" x1="211.343" x2="211.343" y1="160.326" y2="201.632" gradientUnits="userSpaceOnUse"><stop offset="0" stop-color="#bbbbc8"/><stop offset="1" stop-color="#bab4bd"/></linearGradient><linearGradient id="l" x1="218.504" x2="218.504" y1="172.111" y2="189.847" gradientUnits="userSpaceOnUse"><stop offset="0" stop-color="#373737"/><stop offset="1" stop-color="#060606"/></linearGradient><linearGradient id="m" x1="218.504" x2="218.504" y1="168.109" y2="176.082" gradientUnits="userSpaceOnUse"><stop offset="0" stop-color="#3d3d3d"/><stop offset="1" stop-color="#2c2c2c"/></linearGradient><linearGradient id="n" x1="218.504" x2="218.504" y1="185.864" y2="193.837" gradientUnits="userSpaceOnUse"><stop offset="0" stop-color="#121212"/><stop offset="1"/></linearGradient><linearGradient id="o" x1="218.498" x2="218.498" y1="176.993" y2="184.965" gradientUnits="userSpaceOnUse"><stop offset="0" stop-color="#2b2b2b"/><stop offset="1" stop-color="#101010"/></linearGradient><linearGradient id="p" x1="227.381" x2="227.381" y1="176.993" y2="184.965" gradientUnits="userSpaceOnUse"><stop offset="0" stop-color="#2b2b2b"/><stop offset="1" stop-color="#101010"/></linearGradient><linearGradient id="q" x1="209.627" x2="209.627" y1="176.993" y2="184.965" gradientUnits="userSpaceOnUse"><stop offset="0" stop-color="#2b2b2b"/><stop offset="1" stop-color="#101010"/></linearGradient><linearGradient id="r" x1="250.977" x2="250.977" y1="175.79" y2="186.168" gradientUnits="userSpaceOnUse"><stop offset="0" stop-color="#3b3b3b"/><stop offset="1"/></linearGradient><linearGradient id="s" x1="269.171" x2="269.171" y1="175.79" y2="186.168" gradientUnits="userSpaceOnUse"><stop offset="0" stop-color="#3b3b3b"/><stop offset="1"/></linearGradient><linearGradient id="t" x1="260.074" x2="260.074" y1="166.693" y2="177.071" gradientUnits="userSpaceOnUse"><stop offset="0" stop-color="#3b3b3b"/><stop offset="1"/></linearGradient><linearGradient id="u" x1="260.074" x2="260.074" y1="184.887" y2="195.265" gradientUnits="userSpaceOnUse"><stop offset="0" stop-color="#3b3b3b"/><stop offset="1"/></linearGradient></defs><path fill="url(#a)" d="M0 300V0h600v300z" style="mix-blend-mode:normal;fill:url(#a);stroke-width:3.77716;stroke-miterlimit:10"/><g stroke-width="0" style="mix-blend-mode:normal;stroke-miterlimit:10"><path fill="#5b5b5b" d="M290.619 89.44V25.637h16.322V89.44z"/><path fill="url(#b)" d="M237.833 146.18v-5.312h4.334v5.312z" style="fill:url(#b)" transform="matrix(3.76594 0 0 3.76594 -605.045 -524.33)"/></g><g stroke-width="1.5" style="mix-blend-mode:normal;stroke-miterlimit:10"><path fill="url(#c)" stroke="url(#d)" d="M211.247 160.326h57.443v41.306h-57.443z" style="fill:url(#c);stroke:url(#d)" transform="matrix(3.76594 0 0 3.76594 -605.045 -524.33)"/><path fill="url(#e)" stroke="url(#f)" d="M268.657 160.326c11.406 0 20.653 9.247 20.653 20.653 0 11.406-9.247 20.653-20.653 20.653-11.406 0-20.653-9.247-20.653-20.653 0-11.406 9.247-20.653 20.653-20.653z" style="fill:url(#e);stroke:url(#f)" transform="matrix(3.76594 0 0 3.76594 -605.045 -524.33)"/><path fill="url(#g)" stroke="url(#h)" d="M211.343 160.326c11.406 0 20.653 9.247 20.653 20.653 0 11.406-9.247 20.653-20.653 20.653-11.406 0-20.653-9.247-20.653-20.653 0-11.406 9.247-20.653 20.653-20.653z" style="fill:url(#g);stroke:url(#h)" transform="matrix(3.76594 0 0 3.76594 -605.045 -524.33)"/></g><g stroke-width="0" style="mix-blend-mode:normal;stroke-miterlimit:10"><path fill="url(#i)" d="M211.247 160.326h57.443v41.306h-57.443z" style="fill:url(#i)" transform="matrix(3.76594 0 0 3.76594 -605.045 -524.33)"/><path fill="url(#j)" d="M268.657 160.326c11.406 0 20.653 9.247 20.653 20.653 0 11.406-9.247 20.653-20.653 20.653-11.406 0-20.653-9.247-20.653-20.653 0-11.406 9.247-20.653 20.653-20.653z" style="fill:url(#j)" transform="matrix(3.76594 0 0 3.76594 -605.045 -524.33)"/><path fill="url(#k)" d="M211.343 160.326c11.406 0 20.653 9.247 20.653 20.653 0 11.406-9.247 20.653-20.653 20.653-11.406 0-20.653-9.247-20.653-20.653 0-11.406 9.247-20.653 20.653-20.653z" style="fill:url(#k)" transform="matrix(3.76594 0 0 3.76594 -605.045 -524.33)"/></g><g fill="none" stroke="#a39fab" stroke-width="1.5" style="mix-blend-mode:normal;stroke-miterlimit:10"><path stroke-width="5.64891" d="M202.816 187.61v-60.767h30.026v60.767z"/><path stroke-width="5.64891" d="M202.816 123.77a15.013 15.013 0 1 1 30.026 0 15.013 15.013 0 0 1-30.026 0zm0 66.864a15.013 15.013 0 1 1 30.026 0 15.013 15.013 0 0 1-30.026 0zm-15.395-48.418h60.767v30.022h-60.767Z"/><path stroke-width="5.64891" d="M251.257 142.216a15.011 15.011 0 1 1 0 30.022 15.011 15.011 0 0 1 0-30.022zm-66.86 0a15.011 15.011 0 1 1 0 30.022 15.011 15.011 0 0 1 0-30.022zm136.18 15.01a19.541 19.541 0 1 1 39.08 0 19.541 19.541 0 0 1-39.08 0zm68.518 0a19.541 19.541 0 1 1 39.079 0 19.541 19.541 0 0 1-39.08 0zm-34.26-34.258a19.541 19.541 0 1 1 39.08 0 19.541 19.541 0 0 1-39.08 0zm0 68.517a19.541 19.541 0 1 1 39.08 0 19.541 19.541 0 0 1-39.08 0z"/></g><g stroke-width="0" style="mix-blend-mode:normal;stroke-miterlimit:10"><path fill="url(#l)" d="M214.518 189.847v-17.736h7.973v17.736z" style="fill:url(#l)" transform="matrix(3.76594 0 0 3.76594 -605.045 -524.33)"/><path fill="url(#m)" d="M214.518 172.096a3.986 3.986 0 1 1 7.973 0 3.986 3.986 0 0 1-7.973 0z" style="fill:url(#m)" transform="matrix(3.76594 0 0 3.76594 -605.045 -524.33)"/><path fill="url(#n)" d="M214.518 189.85a3.986 3.986 0 1 1 7.973 0 3.986 3.986 0 0 1-7.973 0z" style="fill:url(#n)" transform="matrix(3.76594 0 0 3.76594 -605.045 -524.33)"/><path fill="url(#o)" d="M209.63 176.993h17.736v7.972H209.63Z" style="fill:url(#o)" transform="matrix(3.76594 0 0 3.76594 -605.045 -524.33)"/><path fill="url(#p)" d="M227.381 176.993a3.986 3.986 0 1 1 0 7.972 3.986 3.986 0 0 1 0-7.972z" style="fill:url(#p)" transform="matrix(3.76594 0 0 3.76594 -605.045 -524.33)"/><path fill="url(#q)" d="M209.627 176.993a3.986 3.986 0 1 1 0 7.972 3.986 3.986 0 0 1 0-7.972z" style="fill:url(#q)" transform="matrix(3.76594 0 0 3.76594 -605.045 -524.33)"/></g><g stroke-width="0" style="mix-blend-mode:normal;stroke-miterlimit:10"><path fill="url(#r)" d="M245.788 180.979a5.189 5.189 0 1 1 10.377 0 5.189 5.189 0 0 1-10.377 0z" style="fill:url(#r)" transform="matrix(3.76594 0 0 3.76594 -605.045 -524.33)"/><path fill="url(#s)" d="M263.982 180.979a5.189 5.189 0 1 1 10.377 0 5.189 5.189 0 0 1-10.377 0z" style="fill:url(#s)" transform="matrix(3.76594 0 0 3.76594 -605.045 -524.33)"/><path fill="url(#t)" d="M254.885 171.882a5.189 5.189 0 1 1 10.377 0 5.189 5.189 0 0 1-10.377 0z" style="fill:url(#t)" transform="matrix(3.76594 0 0 3.76594 -605.045 -524.33)"/><path fill="url(#u)" d="M254.885 190.076a5.189 5.189 0 1 1 10.377 0 5.189 5.189 0 0 1-10.377 0z" style="fill:url(#u)" transform="matrix(3.76594 0 0 3.76594 -605.045 -524.33)"/></g><path fill="none" stroke="#414141" stroke-linecap="round" stroke-width="2.5" d="M5.224 23.125h25.4m98.6 0h25.4" style="mix-blend-mode:normal;stroke-miterlimit:10" transform="matrix(3.76594 0 0 3.76594 -.989 4.314)"/><path fill="none" stroke="#474747" stroke-linecap="round" stroke-width="2.5" d="M5.224 28.125h22.4m103.6 0h23.4" style="mix-blend-mode:normal;stroke-miterlimit:10" transform="matrix(3.76594 0 0 3.76594 -.989 4.314)"/><path fill="none" stroke="#515151" stroke-linecap="round" stroke-width="2.5" d="M5.224 33.125h20.4m108.6 0h20.4m-149.4 5h19.4m110.6 0h19.4m-149.4 5h19.4m110.6 0h19.4m-149.4 5h20.4m108.6 0h20.4" style="mix-blend-mode:normal;stroke-miterlimit:10" transform="matrix(3.76594 0 0 3.76594 -.989 4.314)"/><path fill="none" stroke="#474747" stroke-linecap="round" stroke-width="2.5" d="M5.224 53.125h22.4m103.6 0h23.4" style="mix-blend-mode:normal;stroke-miterlimit:10" transform="matrix(3.76594 0 0 3.76594 -.989 4.314)"/><path fill="none" stroke="#414141" stroke-linecap="round" stroke-width="2.5" d="M5.224 58.125h25.4m98.6 0h25.4" style="mix-blend-mode:normal;stroke-miterlimit:10" transform="matrix(3.76594 0 0 3.76594 -.989 4.314)"/><g fill="none" stroke="#868686" stroke-linecap="round" stroke-width="2.5" style="mix-blend-mode:normal;stroke-miterlimit:10"><path stroke-width="9.41485" d="M139.526 73.193s6.967-10.367 19.413-14.777c13.14-4.655 24.355-1.367 24.355-1.367m-52.52-7.589s6.967-10.367 19.41-14.777c13.143-4.659 24.358-1.367 24.358-1.367"/><path stroke-width="9.41485" d="M415.102 57.99s11.215-3.291 24.354 1.367c12.447 4.41 19.414 14.778 19.414 14.778m-35.016-39.881s11.219-3.288 24.358 1.37c12.447 4.41 19.41 14.778 19.41 14.778" data-paper-data="{&quot;index&quot;:null}"/></g></svg>