<svg xmlns="http://www.w3.org/2000/svg" width="600" height="300" viewBox="0 0 600 299.99999"><g stroke-miterlimit="10" style="mix-blend-mode:normal;fill-rule:nonzero;stroke-linecap:butt;stroke-linejoin:miter;stroke-dasharray:none;stroke-dashoffset:0"><path fill="#00511f" d="M0 300V0h600v300z"/><path fill="#00d150" d="M407 .00002h110v33H350v34h-42v33h173v33h49v34H277v33h-4v33h16v34h82v33H0v-300z"/><path fill="#00b344" d="M420 .00002h-79v33h34v34H271v33h116v33h-91v34h53v33h58v33h12v34h-39v33H0v-300z"/><path fill="#00fa60" d="M296 .00002h14v33h101v34H250v33h97v33h-39v34h25v33h109v33h-61v34h-36v33H0v-300z"/><path fill="#00d150" d="M347 .00002h33v33h-38v34h-50v33h44v33H209v34h35v33h-41v33h89v34h64v33H0v-300z"/><path fill="#00e658" d="M220 .00002h70v33h-40v34h-50v33h142v33H155v34h50v33h135v33h-85v34h64v33H0v-300z"/><path fill="#00c44b" d="M199 .00002h55v33h-24v34h-55v33h-40v33h158v34H148v33h135v33H136v34h84v33H0v-300z"/><path fill="#00b745" d="M182 .00002h36v33h25v34h-32v33h31v33h-66v34h-13v33h80v33h-31v34h7v33H0v-300z"/><path fill="#00ca4d" d="M75 .00002h-5v33h95v34H90v33h61v33H82v34h112v33h-80v33h27v34h-9v33H0v-300z"/><path fill="#009e3d" d="M99 .00002h26v33h-2v34H83v33h6v33H51v34h5v33h30v33h5v34h41v33H0v-300z"/><path fill="#009138" d="M3 .00002h7v33h48v34H39v33H24v33h75v34H30v33H12v33h10v34h38v33H0v-300z"/></g><g style="mix-blend-mode:normal;fill-rule:nonzero;stroke-linecap:butt;stroke-linejoin:miter;stroke-dasharray:none;stroke-dashoffset:0"><path fill="#fff" d="M272.51244 107.65542h54.97335c13.14458-13.74341 33.3101-18.14389 50.9847-11.12464 17.67461 7.01924 29.32833 24.05548 29.46258 43.07241 4.48939 28.78711 6.89426 57.86138 7.19571 86.99491 0 17.41326-7.19553 28.56542-20.93906 31.3717-2.5808.52903-5.20932.7952-7.84379.79211-12.72496.26848-24.0369-8.0601-27.55869-20.29096-2.80627-7.98708-7.84262-18.92596-10.93671-25.47391-16.26596 7.35596-35.23589-1.71507-39.71957-18.99478h-16.26192c-4.47581 17.32402-23.50649 26.40764-39.79159 18.99478-3.09408 6.61992-8.1322 17.55879-10.93847 25.47391-3.51493 12.20459-14.7882 20.52649-27.48667 20.29096-2.61039-.003-5.21271-.26838-7.77004-.79211-13.81549-2.5904-21.01106-13.95843-21.01106-31.3717.30147-29.13352 2.70463-58.20778 7.19397-86.9949.13423-19.01692 11.78795-36.05317 29.46254-43.07241 5.52331-2.19352 11.28882-3.27178 17.00838-3.29843 12.58303-.05846 24.93942 4.97445 33.97634 14.42306z"/><path fill="none" stroke="#fdffff" stroke-width="8.5" d="M300.00001 117.38405V47.02352s.54124-20.56693 16.23704-20.56693c15.69581 0 18.49661 12.94586 18.62417 17.82792.12756 4.88205.25514 9.7641.3827 14.64617.12757 4.88206 5.95352 12.17779 15.15453 12.17779 9.20102 0 16.46123-3.67654 16.23709-13.26025-.21551-9.21438-.54128-60.38225-.54128-60.38225"/><g stroke-miterlimit="10"><path fill="#00b745" d="M354.09365 110.29154c2.36558-2.05012 5.50466-2.97225 8.60319-2.52723 5.60339.80683 9.63122 5.80589 9.22762 11.45265-.40358 5.64678-5.10147 10.02216-10.76264 10.02385-5.96051-.00036-10.79236-4.8322-10.79271-10.7927-.00003-3.13032 1.35897-6.10646 3.72454-8.15658zm-126.04991 4.55954h21.58714v14.38969h14.39143v21.58713h-14.39143v14.39144h-21.58714V150.8279H213.6523v-21.58713h14.39144zm136.71491 3.59874c.00049-1.98698-1.60984-3.59814-3.59683-3.59868-.95421-.00025-1.86944.37857-2.54434 1.05314-.67491.67456-1.05418 1.58962-1.05439 2.54383-.00045 1.98698 1.60993 3.59812 3.59692 3.59859 1.98698.00047 3.59812-1.6099 3.59863-3.59688zm-129.51918 3.59528v14.39142h-14.39144v7.19572h14.39144v14.39143h7.19571v-14.39143h14.39143v-7.19572h-14.39143V122.0451zm97.26759 9.83281c2.36598-2.05018 5.50558-2.97204 8.60438-2.52648 5.6037.8069 9.6316 5.80647 9.22751 11.45353-.40409 5.64706-5.1028 10.02218-10.76429 10.02298-5.9605-.00037-10.79234-4.83221-10.7927-10.79269-.0001-3.13068 1.35914-6.10714 3.72512-8.15733zm43.17255 0c2.36598-2.05018 5.50558-2.97203 8.60438-2.52647 5.60336.80685 9.63117 5.8059 9.22757 11.45265-.4036 5.64675-5.10145 10.02212-10.7626 10.02384-2.86266.00029-5.60818-1.13663-7.63254-3.16067-2.02436-2.02404-3.16175-4.76937-3.16192-7.63202-.0001-3.13069 1.35914-6.10715 3.72512-8.15734zm-32.50636 8.15546c-.00048-1.98699-1.6116-3.59737-3.59859-3.59692-.95421.00021-1.86926.3795-2.54383 1.0544-.67457.6749-1.05338 1.59014-1.05313 2.54435.00054 1.98698 1.61171 3.59733 3.5987 3.59682 1.98698-.00051 3.59734-1.61166 3.59686-3.59865zm39.57572-3.59688c-.95452-.00025-1.87003.37882-2.54498 1.05377-.67494.67496-1.05401 1.59046-1.05376 2.54498.00054 1.98675 1.61135 3.59699 3.5981 3.59682 1.98676-.00018 3.59729-1.61072 3.59746-3.59746.00018-1.98675-1.61008-3.59758-3.59682-3.59811zm-28.65466 17.02877c2.3655-2.04973 5.50431-2.97162 8.60253-2.52666 5.60335.80687 9.63112 5.80591 9.22752 11.45263-.40359 5.64672-5.1014 10.02211-10.76254 10.02385-2.86265-.00016-5.60799-1.13755-7.63202-3.16191-2.02404-2.02436-3.16097-4.76989-3.16068-7.63254.00049-3.13 1.35969-6.10567 3.7252-8.15538zm10.66434 8.15706c.00049-1.98699-1.60984-3.59817-3.59683-3.5987-.95421-.00026-1.86944.37859-2.54434 1.05315-.67491.67455-1.05418 1.58961-1.05439 2.54382-.00045 1.98698 1.60993 3.59811 3.59692 3.59859 1.98698.00047 3.59812-1.60989 3.59863-3.59688zm-114.03298 19.67556c2.22794-5.37751 7.47588-8.88341 13.29666-8.88282 7.94756.0008 14.38985 6.44388 14.3897 14.39142-.00012 5.82078-3.50663 11.06831-8.88441 13.2956-5.37779 2.2273-11.56773.99572-15.68339-3.12043-4.11567-4.11615-5.34653-10.30624-3.11857-15.68375zm70.86121 5.50841c-.00006-7.94792 6.44291-14.39107 14.39083-14.39122 3.81686-.00007 7.47741 1.51614 10.17634 4.21507 2.69894 2.69893 4.21515 6.35948 4.21507 10.17635-.00016 7.94792-6.4433 14.3909-14.39122 14.39084-7.94792-.00005-14.39097-6.4431-14.39102-14.39102zm-52.65296-5.25965c-1.45728-1.36107-3.41402-2.05636-5.40338-1.92004-3.87766.25477-6.8525 3.54235-6.71963 7.4261.13287 3.88375 3.3254 6.96035 7.21141 6.94952 1.90844.00004 3.73873-.75806 5.08819-2.10752 1.34945-1.34947 2.10756-3.17976 2.10751-5.08821.00032-1.99402-.82682-3.89878-2.28411-5.25984zm71.95539.00001c-1.45728-1.36107-3.41401-2.05637-5.40338-1.92004-3.87765.25476-6.8525 3.54234-6.71963 7.42609.13287 3.88375 3.32541 6.96035 7.21142 6.94952 1.90844.00004 3.73873-.75807 5.08819-2.10753 1.34946-1.34947 2.10755-3.17975 2.10751-5.0882.00032-1.99402-.82682-3.89879-2.28411-5.25985z"/><path fill="#fff" stroke="#fff" stroke-width="1.5" d="M386.39579 140.03461c-.00017 1.98674-1.6607 3.64728-3.64746 3.64746-1.98675.00017-3.64756-1.66006-3.6481-3.64681-.00025-.95452.39346-1.90539 1.0684-2.58035.67495-.67495 1.62583-1.06866 2.58035-1.06841 1.98674.00053 3.64699 1.66136 3.64681 3.64811z" data-paper-data="{&quot;noHover&quot;:false,&quot;origItem&quot;:[&quot;Path&quot;,{&quot;applyMatrix&quot;:true,&quot;segments&quot;:[[[357.74897,136.43652],[1.98674,0.00053],[-0.95452,-0.00025]],[[355.20399,137.49029],[0.67495,-0.67495],[-0.67494,0.67496]],[[354.15023,140.03527],[-0.00025,-0.95452],[0.00054,1.98675]],[[357.74833,143.63209],[-1.98675,0.00017],[1.98676,-0.00018]],[[361.34579,140.03463],[-0.00017,1.98674],[0.00018,-1.98675]]],&quot;closed&quot;:true,&quot;fillColor&quot;:[1,1,1],&quot;strokeWidth&quot;:9.34454}]}"/><path fill="#fff" stroke="#fff" stroke-width="1.5" d="M364.80864 118.44983c-.00051 1.98698-1.66166 3.64734-3.64864 3.64687-1.98699-.00047-3.64736-1.66162-3.64691-3.6486.00021-.95421.39413-1.90462 1.06904-2.57918.6749-.67457 1.62549-1.06803 2.5797-1.06778 1.98699.00054 3.64731 1.66171 3.64682 3.64869z" data-paper-data="{&quot;noHover&quot;:false,&quot;origItem&quot;:[&quot;Path&quot;,{&quot;applyMatrix&quot;:true,&quot;segments&quot;:[[[339.75865,118.44983],[0,0],[0.00049,-1.98698]],[[336.16182,114.85115],[1.98699,0.00054],[-0.95421,-0.00025]],[[333.61748,115.90429],[0.6749,-0.67457],[-0.67491,0.67456]],[[332.56309,118.44812],[0.00021,-0.95421],[-0.00045,1.98698]],[[336.16001,122.04671],[-1.98699,-0.00047],[1.98698,0.00047]],[[339.75864,118.44983],[-0.00051,1.98698],[0,0]]],&quot;closed&quot;:true,&quot;fillColor&quot;:[1,1,1],&quot;strokeWidth&quot;:9.34454}]}"/><path fill="#fff" stroke="#fff" stroke-width="1.5" d="M343.22326 140.03337c.00048 1.98699-1.65987 3.64815-3.64685 3.64866-1.98699.00051-3.64817-1.65983-3.64871-3.64681-.00025-.95421.3932-1.90481 1.06777-2.57971.67457-.6749 1.62497-1.06884 2.57918-1.06905 1.98699-.00045 3.64812 1.65992 3.6486 3.64691z" data-paper-data="{&quot;noHover&quot;:false,&quot;origItem&quot;:[&quot;Path&quot;,{&quot;applyMatrix&quot;:true,&quot;segments&quot;:[[[318.17325,140.0334],[0,0],[-0.00048,-1.98699]],[[314.57466,136.43648],[1.98699,-0.00045],[-0.95421,0.00021]],[[312.03083,137.49088],[0.67457,-0.6749],[-0.67457,0.6749]],[[310.9777,140.03523],[-0.00025,-0.95421],[0.00054,1.98698]],[[314.5764,143.63205],[-1.98699,0.00051],[1.98698,-0.00051]],[[318.17326,140.0334],[0.00048,1.98699],[0,0]]],&quot;closed&quot;:true,&quot;fillColor&quot;:[1,1,1],&quot;strokeWidth&quot;:9.34454}]}"/><path fill="#fff" stroke="#fff" stroke-width="1.5" d="M364.80864 161.62229c-.00051 1.98699-1.66166 3.64734-3.64864 3.64687-1.98699-.00048-3.64736-1.66162-3.64691-3.6486.00021-.95421.39413-1.90462 1.06904-2.57917.6749-.67456 1.62549-1.06805 2.5797-1.06779 1.98699.00053 3.64731 1.66172 3.64682 3.64871z" data-paper-data="{&quot;noHover&quot;:false,&quot;origItem&quot;:[&quot;Path&quot;,{&quot;applyMatrix&quot;:true,&quot;segments&quot;:[[[339.75865,161.62233],[0,0],[0.00049,-1.98699]],[[336.16182,158.02363],[1.98699,0.00053],[-0.95421,-0.00026]],[[333.61748,159.07678],[0.6749,-0.67456],[-0.67491,0.67455]],[[332.56309,161.6206],[0.00021,-0.95421],[-0.00045,1.98698]],[[336.16001,165.21919],[-1.98699,-0.00048],[1.98698,0.00047]],[[339.75864,161.62231],[-0.00051,1.98699],[0,0]]],&quot;closed&quot;:true,&quot;fillColor&quot;:[1,1,1],&quot;strokeWidth&quot;:9.34454}]}"/><path fill="#fff" d="M340.92347 181.51013c1.45729 1.36106 2.30027 3.30234 2.29995 5.29636.00004 1.90845-.77266 3.77405-2.12212 5.12352-1.34946 1.34946-3.21507 2.12225-5.12351 2.12221-3.88601.0108-7.12859-3.11406-7.26146-6.99781-.13287-3.88375 2.8886-7.22293 6.76625-7.47769 1.98937-.13633 3.98361.57235 5.44089 1.93342z" data-paper-data="{&quot;noHover&quot;:false,&quot;origItem&quot;:[&quot;Path&quot;,{&quot;applyMatrix&quot;:true,&quot;segments&quot;:[[[315.88931,181.54666],[0,0],[-1.45728,-1.36107]],[[310.48593,179.62662],[1.98937,-0.13633],[-3.87765,0.25476]],[[303.7663,187.05271],[-0.13287,-3.88375],[0.13287,3.88375]],[[310.97772,194.00223],[-3.88601,0.01083],[1.90844,0.00004]],[[316.06591,191.8947],[-1.34946,1.34946],[1.34946,-1.34947]],[[318.17342,186.8065],[0.00004,1.90845],[0.00032,-1.99402]],[[315.88931,181.54665],[1.45729,1.36106],[0,0]]],&quot;closed&quot;:true,&quot;fillColor&quot;:[1,1,1],&quot;strokeWidth&quot;:9.34454}]}"/><path fill="#fff" d="M268.96807 181.51014c1.45729 1.36106 2.30027 3.30233 2.29995 5.29635.00005 1.90845-.77267 3.77406-2.12212 5.12353-1.34946 1.34946-3.21507 2.12224-5.12351 2.1222-3.88601.0108-7.12858-3.11406-7.26145-6.99781-.13287-3.88375 2.88859-7.22293 6.76625-7.4777 1.98936-.13632 3.98361.57235 5.44089 1.93342z" data-paper-data="{&quot;noHover&quot;:false,&quot;origItem&quot;:[&quot;Path&quot;,{&quot;applyMatrix&quot;:true,&quot;segments&quot;:[[[243.93392,181.54665],[0,0],[-1.45728,-1.36107]],[[238.53054,179.62661],[1.98936,-0.13632],[-3.87766,0.25477]],[[231.81091,187.05271],[-0.13287,-3.88375],[0.13287,3.88375]],[[239.02232,194.00223],[-3.88601,0.01083],[1.90844,0.00004]],[[244.11051,191.89471],[-1.34946,1.34946],[1.34945,-1.34947]],[[246.21802,186.8065],[0.00005,1.90845],[0.00032,-1.99402]],[[243.93391,181.54666],[1.45729,1.36106],[0,0]]],&quot;closed&quot;:true,&quot;fillColor&quot;:[1,1,1],&quot;strokeWidth&quot;:9.34454}]}"/><path fill="#fff" d="m242.44499 121.99607.0256 14.40509 14.4051.0256v7.21533l-14.4051.0256-.0256 14.4051h-7.21532l-.0256-14.4051-14.40511-.0256v-7.21533l14.40511-.0256.0256-14.40509z" data-paper-data="{&quot;noHover&quot;:false,&quot;origItem&quot;:[&quot;Path&quot;,{&quot;applyMatrix&quot;:true,&quot;segments&quot;:[[210.23947,122.04511],[210.23947,136.43653],[195.84803,136.43653],[195.84803,143.63225],[210.23947,143.63225],[210.23947,158.02368],[217.43518,158.02368],[217.43518,143.63225],[231.82661,143.63225],[231.82661,136.43653],[217.43518,136.43653],[217.43518,122.04511]],&quot;closed&quot;:true,&quot;fillColor&quot;:[1,1,1],&quot;strokeWidth&quot;:9.34454}]}"/><path fill="#00b745" stroke="#00b745" d="M308.66673 128.04274c0 1.86652-1.51296 3.37964-3.37948 3.37964h-10.57463c-1.86653 0-3.37964-1.51312-3.37964-3.37964 0-1.86637 1.51312-3.37949 3.37964-3.37949h10.57464c1.86653 0 3.37948 1.51311 3.37948 3.37949z"/></g></g></svg>