<svg xmlns="http://www.w3.org/2000/svg" width="600" height="300" viewBox="10 0 600 300"><defs><linearGradient id="a" x1="289.63199" x2="289.63199" y1="157.02626" y2="223.19269" gradientTransform="translate(5.61131 3.81655)" gradientUnits="userSpaceOnUse"><stop offset="0" stop-color="#e9e9e9"/><stop offset="1" stop-color="#d7d7d7"/></linearGradient></defs><path fill="#90d8c4" d="M.00001 308.44856V0h612.42621v308.44856z" style="stroke-miterlimit:10"/><g fill="#6fa697" style="stroke-miterlimit:10"><path d="M126.58047 204.78402c-.8285 0-1.657-.3166-2.2903-.9472l-80.8458-80.8485c-1.2638-1.2638-1.2638-3.3165 0-4.5804 1.2638-1.2638 3.3166-1.2638 4.5804 0l80.8459 80.8459c1.2638 1.2638 1.2638 3.3165 0 4.5804-.6333.6306-1.4618.9498-2.2903.9498z"/><path d="M77.44917 134.59772c0 9.8389-7.9761 17.815-17.815 17.815-9.839 0-17.8151-7.9761-17.8151-17.815 0-9.839 7.9761-17.8151 17.8151-17.8151 9.8389 0 17.815 7.9761 17.815 17.8151z"/><path d="M74.97977 171.37622c-9.5757-2.2611-15.5052-11.8567-13.2441-21.4324 2.2611-9.5756 11.8567-15.5052 21.4323-13.2441 9.5757 2.2611 15.5053 11.8567 13.2441 21.4324-2.2611 9.5756-11.8567 15.5052-21.4323 13.2441z"/><path d="M116.32197 173.46782c0 9.839-7.9787 17.8177-17.8177 17.8177-9.8389 0-17.815-7.9788-17.815-17.8177 0-9.8389 7.9761-17.815 17.815-17.815 9.839 0 17.8177 7.9788 17.8177 17.815z"/><path d="M126.58047 204.78402c-.8285 0-1.657-.3166-2.2903-.9472l-19.8414-19.8414c-1.2664-1.2638-1.2664-3.3166 0-4.5804 1.2665-1.2639 3.314-1.2639 4.5804 0l19.8415 19.8414c1.2638 1.2638 1.2638 3.3166 0 4.5804-.6333.628-1.4618.9472-2.2903.9472zm456.68251.33873c-.8285 0-1.657-.3166-2.2903-.9472l-80.8458-80.8485c-1.2638-1.2638-1.2638-3.3165 0-4.5804 1.2638-1.2638 3.3166-1.2638 4.5804 0l80.8459 80.8459c1.2638 1.2638 1.2638 3.3165 0 4.5804-.6333.6306-1.4618.9498-2.2903.9498z"/><path d="M534.13168 134.93645c0 9.8389-7.9761 17.815-17.815 17.815-9.839 0-17.8151-7.9761-17.8151-17.815 0-9.839 7.9761-17.8151 17.8151-17.8151 9.8389 0 17.815 7.9761 17.815 17.8151z"/><path d="M531.66228 171.71495c-9.5757-2.2611-15.5052-11.8567-13.2441-21.4324 2.2611-9.5756 11.8567-15.5052 21.4323-13.2441 9.5757 2.2611 15.5053 11.8567 13.2441 21.4324-2.2611 9.5756-11.8567 15.5052-21.4323 13.2441z"/><path d="M573.00448 173.80655c0 9.839-7.9787 17.8177-17.8177 17.8177-9.8389 0-17.815-7.9788-17.815-17.8177 0-9.8389 7.9761-17.815 17.815-17.815 9.839 0 17.8177 7.9788 17.8177 17.815z"/><path d="M583.26298 205.12275c-.8285 0-1.657-.3166-2.2903-.9472l-19.8414-19.8414c-1.2664-1.2638-1.2664-3.3166 0-4.5804 1.2665-1.2639 3.314-1.2639 4.5804 0l19.8415 19.8414c1.2638 1.2638 1.2638 3.3166 0 4.5804-.6333.628-1.4618.9472-2.2903.9472zm-358.45605-.33873c-.8285 0-1.657-.3166-2.2903-.9472l-80.8458-80.8485c-1.2638-1.2638-1.2638-3.3165 0-4.5804 1.2638-1.2638 3.3166-1.2638 4.5804 0l80.8459 80.8459c1.2638 1.2638 1.2638 3.3165 0 4.5804-.6333.6306-1.4618.9498-2.2903.9498z"/><path d="M175.67563 134.59772c0 9.8389-7.9761 17.815-17.815 17.815-9.839 0-17.8151-7.9761-17.8151-17.815 0-9.839 7.9761-17.8151 17.8151-17.8151 9.8389 0 17.815 7.9761 17.815 17.8151z"/><path d="M173.20623 171.37622c-9.5757-2.2611-15.5052-11.8567-13.2441-21.4324 2.2611-9.5756 11.8567-15.5052 21.4323-13.2441 9.5757 2.2611 15.5053 11.8567 13.2441 21.4324-2.2611 9.5756-11.8567 15.5052-21.4323 13.2441z"/><path d="M214.54843 173.46782c0 9.839-7.9787 17.8177-17.8177 17.8177-9.8389 0-17.815-7.9788-17.815-17.8177 0-9.8389 7.9761-17.815 17.815-17.815 9.839 0 17.8177 7.9788 17.8177 17.815z"/><path d="M224.80693 204.78402c-.8285 0-1.657-.3166-2.2903-.9472l-19.8414-19.8414c-1.2664-1.2638-1.2664-3.3166 0-4.5804 1.2665-1.2639 3.314-1.2639 4.5804 0l19.8415 19.8414c1.2638 1.2638 1.2638 3.3166 0 4.5804-.6333.628-1.4618.9472-2.2903.9472zm262.61938 0c-.8285 0-1.657-.3166-2.2903-.9472l-80.8458-80.8485c-1.2638-1.2638-1.2638-3.3165 0-4.5804 1.2638-1.2638 3.3166-1.2638 4.5804 0l80.8459 80.8459c1.2638 1.2638 1.2638 3.3165 0 4.5804-.6333.6306-1.4618.9498-2.2903.9498z"/><path d="M438.29501 134.59772c0 9.8389-7.9761 17.815-17.815 17.815-9.839 0-17.8151-7.9761-17.8151-17.815 0-9.839 7.9761-17.8151 17.8151-17.8151 9.8389 0 17.815 7.9761 17.815 17.8151z"/><path d="M435.82561 171.37622c-9.5757-2.2611-15.5052-11.8567-13.2441-21.4324 2.2611-9.5756 11.8567-15.5052 21.4323-13.2441 9.5757 2.2611 15.5053 11.8567 13.2441 21.4324-2.2611 9.5756-11.8567 15.5052-21.4323 13.2441z"/><path d="M477.16781 173.46782c0 9.839-7.9787 17.8177-17.8177 17.8177-9.8389 0-17.815-7.9788-17.815-17.8177 0-9.8389 7.9761-17.815 17.815-17.815 9.839 0 17.8177 7.9788 17.8177 17.815z"/><path d="M487.42631 204.78402c-.8285 0-1.657-.3166-2.2903-.9472l-19.8414-19.8414c-1.2664-1.2638-1.2664-3.3166 0-4.5804 1.2665-1.2639 3.314-1.2639 4.5804 0l19.8415 19.8414c1.2638 1.2638 1.2638 3.3166 0 4.5804-.6333.628-1.4618.9472-2.2903.9472z"/></g><path fill="#d99e82" d="M118.54188 197.81725c-.8285 0-1.657-.3166-2.2903-.9472l-80.8458-80.8485c-1.2638-1.2638-1.2638-3.3165 0-4.5804 1.2638-1.2638 3.3166-1.2638 4.5804 0l80.8459 80.8459c1.2638 1.2638 1.2638 3.3165 0 4.5804-.6333.6306-1.4618.9498-2.2903.9498z" style="stroke-miterlimit:10"/><path fill="#fcb1e3" d="M69.41058 127.63095c0 9.8389-7.9761 17.815-17.815 17.815-9.839 0-17.8151-7.9761-17.8151-17.815 0-9.839 7.9761-17.8151 17.8151-17.8151 9.8389 0 17.815 7.9761 17.815 17.8151z" style="stroke-miterlimit:10"/><path fill="#ffd983" d="M66.94118 164.40945c-9.5757-2.2611-15.5052-11.8567-13.2441-21.4324 2.2611-9.5756 11.8567-15.5052 21.4323-13.2441 9.5757 2.2611 15.5053 11.8567 13.2441 21.4324-2.2611 9.5756-11.8567 15.5052-21.4323 13.2441z" style="stroke-miterlimit:10"/><path fill="#a6d388" d="M108.28338 166.50105c0 9.839-7.9787 17.8177-17.8177 17.8177-9.8389 0-17.815-7.9788-17.815-17.8177 0-9.8389 7.9761-17.815 17.815-17.815 9.839 0 17.8177 7.9788 17.8177 17.815z" style="stroke-miterlimit:10"/><path fill="#d99e82" d="M118.54188 197.81725c-.8285 0-1.657-.3166-2.2903-.9472l-19.8414-19.8414c-1.2664-1.2638-1.2664-3.3166 0-4.5804 1.2665-1.2639 3.314-1.2639 4.5804 0l19.8415 19.8414c1.2638 1.2638 1.2638 3.3166 0 4.5804-.6333.628-1.4618.9472-2.2903.9472zm456.68251.33873c-.8285 0-1.657-.3166-2.2903-.9472l-80.8458-80.8485c-1.2638-1.2638-1.2638-3.3165 0-4.5804 1.2638-1.2638 3.3166-1.2638 4.5804 0l80.8459 80.8459c1.2638 1.2638 1.2638 3.3165 0 4.5804-.6333.6306-1.4618.9498-2.2903.9498z" style="stroke-miterlimit:10"/><path fill="#fcb1e3" d="M526.09309 127.96968c0 9.8389-7.9761 17.815-17.815 17.815-9.839 0-17.8151-7.9761-17.8151-17.815 0-9.839 7.9761-17.8151 17.8151-17.8151 9.8389 0 17.815 7.9761 17.815 17.8151z" style="stroke-miterlimit:10"/><path fill="#ffd983" d="M523.6237 164.74818c-9.5757-2.2611-15.5052-11.8567-13.2441-21.4324 2.2611-9.5756 11.8567-15.5052 21.4323-13.2441 9.5757 2.2611 15.5053 11.8567 13.2441 21.4324-2.2611 9.5756-11.8567 15.5052-21.4323 13.2441z" style="stroke-miterlimit:10"/><path fill="#a6d388" d="M564.9659 166.83978c0 9.839-7.9787 17.8177-17.8177 17.8177-9.8389 0-17.815-7.9788-17.815-17.8177 0-9.8389 7.9761-17.815 17.815-17.815 9.839 0 17.8177 7.9788 17.8177 17.815z" style="stroke-miterlimit:10"/><path fill="#d99e82" d="M575.22439 198.15598c-.8285 0-1.657-.3166-2.2903-.9472l-19.8414-19.8414c-1.2664-1.2638-1.2664-3.3166 0-4.5804 1.2665-1.2639 3.314-1.2639 4.5804 0l19.8415 19.8414c1.2638 1.2638 1.2638 3.3166 0 4.5804-.6333.628-1.4618.9472-2.2903.9472zm-358.45604-.33873c-.8285 0-1.657-.3166-2.2903-.9472l-80.8458-80.8485c-1.2638-1.2638-1.2638-3.3165 0-4.5804 1.2638-1.2638 3.3166-1.2638 4.5804 0l80.8459 80.8459c1.2638 1.2638 1.2638 3.3165 0 4.5804-.6333.6306-1.4618.9498-2.2903.9498z" style="stroke-miterlimit:10"/><path fill="#fcb1e3" d="M167.63705 127.63095c0 9.8389-7.9761 17.815-17.815 17.815-9.839 0-17.8151-7.9761-17.8151-17.815 0-9.839 7.9761-17.8151 17.8151-17.8151 9.8389 0 17.815 7.9761 17.815 17.8151z" style="stroke-miterlimit:10"/><path fill="#ffd983" d="M165.16764 164.40945c-9.5757-2.2611-15.5052-11.8567-13.2441-21.4324 2.2611-9.5756 11.8567-15.5052 21.4323-13.2441 9.5757 2.2611 15.5053 11.8567 13.2441 21.4324-2.2611 9.5756-11.8567 15.5052-21.4323 13.2441z" style="stroke-miterlimit:10"/><path fill="#a6d388" d="M206.50985 166.50105c0 9.839-7.9787 17.8177-17.8177 17.8177-9.8389 0-17.815-7.9788-17.815-17.8177 0-9.8389 7.9761-17.815 17.815-17.815 9.839 0 17.8177 7.9788 17.8177 17.815z" style="stroke-miterlimit:10"/><path fill="#d99e82" d="M216.76835 197.81725c-.8285 0-1.657-.3166-2.2903-.9472l-19.8414-19.8414c-1.2664-1.2638-1.2664-3.3166 0-4.5804 1.2665-1.2639 3.314-1.2639 4.5804 0l19.8415 19.8414c1.2638 1.2638 1.2638 3.3166 0 4.5804-.6333.628-1.4618.9472-2.2903.9472zm262.61937 0c-.8285 0-1.657-.3166-2.2903-.9472l-80.8458-80.8485c-1.2638-1.2638-1.2638-3.3165 0-4.5804 1.2638-1.2638 3.3166-1.2638 4.5804 0l80.8459 80.8459c1.2638 1.2638 1.2638 3.3165 0 4.5804-.6333.6306-1.4618.9498-2.2903.9498z" style="stroke-miterlimit:10"/><path fill="#fcb1e3" d="M430.25642 127.63095c0 9.8389-7.9761 17.815-17.815 17.815-9.839 0-17.8151-7.9761-17.8151-17.815 0-9.839 7.9761-17.8151 17.8151-17.8151 9.8389 0 17.815 7.9761 17.815 17.8151z" style="stroke-miterlimit:10"/><path fill="#ffd983" d="M427.78702 164.40945c-9.5757-2.2611-15.5052-11.8567-13.2441-21.4324 2.2611-9.5756 11.8567-15.5052 21.4323-13.2441 9.5757 2.2611 15.5053 11.8567 13.2441 21.4324-2.2611 9.5756-11.8567 15.5052-21.4323 13.2441z" style="stroke-miterlimit:10"/><path fill="#a6d388" d="M469.12922 166.50105c0 9.839-7.9787 17.8177-17.8177 17.8177-9.8389 0-17.815-7.9788-17.815-17.8177 0-9.8389 7.9761-17.815 17.815-17.815 9.839 0 17.8177 7.9788 17.8177 17.815z" style="stroke-miterlimit:10"/><path fill="#d99e82" d="M479.38772 197.81725c-.8285 0-1.657-.3166-2.2903-.9472l-19.8414-19.8414c-1.2664-1.2638-1.2664-3.3166 0-4.5804 1.2665-1.2639 3.314-1.2639 4.5804 0l19.8415 19.8414c1.2638 1.2638 1.2638 3.3166 0 4.5804-.6333.628-1.4618.9472-2.2903.9472z" style="stroke-miterlimit:10"/><path fill-opacity=".23137" d="m170.50306 276.61277-19.53244-18.37913 290.7251-226.39786 19.75987 19.92058v224.85641Z" style="stroke-miterlimit:10"/><path fill="#0fbd8c" stroke="#0b8e69" stroke-width="5" d="M149.76702 255.87674V31.02033h290.95253v224.85641z" style="stroke-miterlimit:10"/><path fill="url(#a)" stroke="#707070" stroke-width="5" d="M204.86131 227.00924V160.8428h180.76398v66.16644z" style="fill:url(#a);stroke-miterlimit:10"/><path d="M244.69642 195.17258h-3.51972c-.8066 5.05959-2.93309 7.40607-7.44273 7.40607-5.31624 0-8.6893-4.06967-8.6893-10.74247 0-6.85611 3.22641-11.29242 8.39599-11.29242 4.17966 0 6.37948 1.86985 7.22275 5.93952h3.48305c-1.06325-5.86619-4.43631-8.94594-10.3025-8.94594-8.10268 0-12.20901 6.52614-12.20901 14.33551 0 7.80937 4.21632 13.71222 12.06236 13.71222 6.52614 0 10.19251-3.44639 10.99911-10.41249zm7.18609 9.75255v-26.72784h-3.04309v26.72784zm8.21267 0v-19.21178h-3.04309v19.21178zm.4033-22.10822v-3.81302h-3.81302v3.81302zm19.61508 15.50875h-3.07975c-.51329 3.07975-2.08983 4.32632-4.69295 4.32632-3.37306 0-5.38957-2.60313-5.38957-7.14943 0-4.80294 1.97984-7.51605 5.31624-7.51605 2.56646 0 4.17966 1.50321 4.5463 4.17966h3.07975c-.36664-4.69296-3.29973-7.00277-7.58939-7.00277-5.16958 0-8.54264 3.95968-8.54264 10.33916 0 6.19617 3.29973 9.97253 8.50598 9.97253 4.58296 0 7.4794-2.74978 7.84603-7.14942zm19.43174 6.59947-7.84604-12.57565 6.6728-6.63613h-3.92302l-8.13934 8.13934v-15.6554h-3.04309v26.72784h3.04309v-7.4794l2.96976-2.9331 6.48947 10.4125zm37.98359 0v-14.40884c0-3.44639-1.90652-5.3529-5.49956-5.3529-2.56646 0-4.10633.76994-5.90285 2.9331-1.13658-2.05317-2.67645-2.9331-5.16959-2.9331-2.56645 0-4.25299.95326-5.90285 3.26307v-2.71311h-2.78644v19.21178h3.04308v-12.06236c0-2.78644 2.01651-5.02293 4.50964-5.02293 2.27315 0 3.55638 1.39322 3.55638 3.84969v13.2356h3.04309v-12.06236c0-2.78644 2.05316-5.02293 4.54629-5.02293 2.23649 0 3.51972 1.42989 3.51972 3.84969v13.2356zm21.48493-8.72597c0-2.78644-.21999-4.54629-.76994-5.97618-1.24657-3.15308-4.17966-5.05959-7.77271-5.05959-5.3529 0-8.79928 3.95968-8.79928 10.26584 0 6.30615 3.33639 10.04585 8.72596 10.04585 4.39964 0 7.44273-2.49313 8.21266-6.37948h-3.07975c-.84326 2.52979-2.56645 3.55638-5.02292 3.55638-3.18974 0-5.57289-2.05317-5.64621-6.45282zm-3.26307-2.71311s0 .14666-.0367.21998h-10.77913c.25665-3.40972 2.41981-5.71953 5.49956-5.71953 3.00642 0 5.31624 2.49313 5.31624 5.49955zm11.47573-2.89643v-12.39233h-3.04309v12.39233l.8066 8.176h1.42989zm0 14.33551v-3.81303h-3.07975v3.81303z" aria-label="Click me!" style="font-weight:500;font-size:36.6637px;font-family:&quot;Helvetica Neue&quot;,Helvetica,sans-serif;stroke-width:2.29148;stroke-miterlimit:10"/><path fill="#0b8e69" d="M349.01361 63.50465c0 6.95322-5.6367 12.58992-12.58992 12.58992-1.62746-.0018-3.23913-.31911-4.7458-.9344l-23.21266 26.11424 23.21266 26.11423c1.50667-.61526 3.11834-.9326 4.7458-.9344 6.95322 0 12.58992 5.6367 12.58992 12.58992 0 6.95323-5.6367 12.58991-12.58992 12.58991-6.95322 0-12.58991-5.6367-12.58991-12.58991-.00027-2.12698.53832-4.21937 1.56553-6.08185l-24.43394-27.49126h-28.22894c-1.77629 5.02415-6.52332 8.38581-11.85223 8.39328-6.95323 0-12.58992-5.63669-12.58992-12.58991 0-6.95323 5.6367-12.58992 12.58992-12.58992 5.33191.004 10.08311 3.36629 11.86041 8.39328h28.22076l24.44215-27.49946c-1.02872-1.8593-1.57011-3.94872-1.57374-6.07365 0-6.95322 5.63669-12.58991 12.58991-12.58991s12.58992 5.6367 12.58992 12.58992z" style="stroke-miterlimit:10"/><path fill="#fff" d="M345.60297 59.41189c0 6.95322-5.63669 12.58991-12.58991 12.58991-1.62746-.0018-3.23913-.31911-4.74581-.9344l-23.21266 26.11424 23.21266 26.11424c1.50668-.61527 3.11835-.9326 4.74581-.9344 6.95323 0 12.58991 5.63669 12.58991 12.58992s-5.63669 12.58991-12.58991 12.58991c-6.95323 0-12.58992-5.63669-12.58992-12.58991-.00027-2.12698.53832-4.21936 1.56554-6.08186l-24.43394-27.49126H269.3258c-1.77629 5.02415-6.52332 8.38581-11.85223 8.39328-6.95323 0-12.58992-5.63669-12.58992-12.58991 0-6.95323 5.63669-12.58992 12.58992-12.58992 5.33191.004 10.08312 3.36629 11.86041 8.39328h28.22076l24.44215-27.49946c-1.02872-1.8593-1.57011-3.94872-1.57374-6.07365 0-6.95322 5.63669-12.58991 12.58992-12.58991s12.58991 5.63669 12.58991 12.58992z" style="stroke-miterlimit:10"/></svg>