<svg xmlns="http://www.w3.org/2000/svg" width="600" height="300" viewBox="10 0 600 300"><defs><linearGradient id="a" x1="289.63199" x2="289.63199" y1="157.02626" y2="223.19269" gradientUnits="userSpaceOnUse"><stop offset="0" stop-color="#e9e9e9"/><stop offset="1" stop-color="#d7d7d7"/></linearGradient></defs><g stroke-miterlimit="10" data-paper-data="{&quot;isPaintingLayer&quot;:true}"><path fill="#90d8c4" d="M.00001 308.44856V0h612.42621v308.44856z"/><g fill="#6fa697"><path d="M126.58047 204.78402c-.8285 0-1.657-.3166-2.2903-.9472l-80.8458-80.8485c-1.2638-1.2638-1.2638-3.3165 0-4.5804 1.2638-1.2638 3.3166-1.2638 4.5804 0l80.8459 80.8459c1.2638 1.2638 1.2638 3.3165 0 4.5804-.6333.6306-1.4618.9498-2.2903.9498z"/><path d="M77.44917 134.59772c0 9.8389-7.9761 17.815-17.815 17.815-9.839 0-17.8151-7.9761-17.8151-17.815 0-9.839 7.9761-17.8151 17.8151-17.8151 9.8389 0 17.815 7.9761 17.815 17.8151z"/><path d="M74.97977 171.37622c-9.5757-2.2611-15.5052-11.8567-13.2441-21.4324 2.2611-9.5756 11.8567-15.5052 21.4323-13.2441 9.5757 2.2611 15.5053 11.8567 13.2441 21.4324-2.2611 9.5756-11.8567 15.5052-21.4323 13.2441z"/><path d="M116.32197 173.46782c0 9.839-7.9787 17.8177-17.8177 17.8177-9.8389 0-17.815-7.9788-17.815-17.8177 0-9.8389 7.9761-17.815 17.815-17.815 9.839 0 17.8177 7.9788 17.8177 17.815z"/><path d="M126.58047 204.78402c-.8285 0-1.657-.3166-2.2903-.9472l-19.8414-19.8414c-1.2664-1.2638-1.2664-3.3166 0-4.5804 1.2665-1.2639 3.314-1.2639 4.5804 0l19.8415 19.8414c1.2638 1.2638 1.2638 3.3166 0 4.5804-.6333.628-1.4618.9472-2.2903.9472zM583.26298 205.12275c-.8285 0-1.657-.3166-2.2903-.9472l-80.8458-80.8485c-1.2638-1.2638-1.2638-3.3165 0-4.5804 1.2638-1.2638 3.3166-1.2638 4.5804 0l80.8459 80.8459c1.2638 1.2638 1.2638 3.3165 0 4.5804-.6333.6306-1.4618.9498-2.2903.9498z"/><path d="M534.13168 134.93645c0 9.8389-7.9761 17.815-17.815 17.815-9.839 0-17.8151-7.9761-17.8151-17.815 0-9.839 7.9761-17.8151 17.8151-17.8151 9.8389 0 17.815 7.9761 17.815 17.8151z"/><path d="M531.66228 171.71495c-9.5757-2.2611-15.5052-11.8567-13.2441-21.4324 2.2611-9.5756 11.8567-15.5052 21.4323-13.2441 9.5757 2.2611 15.5053 11.8567 13.2441 21.4324-2.2611 9.5756-11.8567 15.5052-21.4323 13.2441z"/><path d="M573.00448 173.80655c0 9.839-7.9787 17.8177-17.8177 17.8177-9.8389 0-17.815-7.9788-17.815-17.8177 0-9.8389 7.9761-17.815 17.815-17.815 9.839 0 17.8177 7.9788 17.8177 17.815z"/><path d="M583.26298 205.12275c-.8285 0-1.657-.3166-2.2903-.9472l-19.8414-19.8414c-1.2664-1.2638-1.2664-3.3166 0-4.5804 1.2665-1.2639 3.314-1.2639 4.5804 0l19.8415 19.8414c1.2638 1.2638 1.2638 3.3166 0 4.5804-.6333.628-1.4618.9472-2.2903.9472zM224.80693 204.78402c-.8285 0-1.657-.3166-2.2903-.9472l-80.8458-80.8485c-1.2638-1.2638-1.2638-3.3165 0-4.5804 1.2638-1.2638 3.3166-1.2638 4.5804 0l80.8459 80.8459c1.2638 1.2638 1.2638 3.3165 0 4.5804-.6333.6306-1.4618.9498-2.2903.9498z"/><path d="M175.67563 134.59772c0 9.8389-7.9761 17.815-17.815 17.815-9.839 0-17.8151-7.9761-17.8151-17.815 0-9.839 7.9761-17.8151 17.8151-17.8151 9.8389 0 17.815 7.9761 17.815 17.8151z"/><path d="M173.20623 171.37622c-9.5757-2.2611-15.5052-11.8567-13.2441-21.4324 2.2611-9.5756 11.8567-15.5052 21.4323-13.2441 9.5757 2.2611 15.5053 11.8567 13.2441 21.4324-2.2611 9.5756-11.8567 15.5052-21.4323 13.2441z"/><path d="M214.54843 173.46782c0 9.839-7.9787 17.8177-17.8177 17.8177-9.8389 0-17.815-7.9788-17.815-17.8177 0-9.8389 7.9761-17.815 17.815-17.815 9.839 0 17.8177 7.9788 17.8177 17.815z"/><path d="M224.80693 204.78402c-.8285 0-1.657-.3166-2.2903-.9472l-19.8414-19.8414c-1.2664-1.2638-1.2664-3.3166 0-4.5804 1.2665-1.2639 3.314-1.2639 4.5804 0l19.8415 19.8414c1.2638 1.2638 1.2638 3.3166 0 4.5804-.6333.628-1.4618.9472-2.2903.9472zM487.42631 204.78402c-.8285 0-1.657-.3166-2.2903-.9472l-80.8458-80.8485c-1.2638-1.2638-1.2638-3.3165 0-4.5804 1.2638-1.2638 3.3166-1.2638 4.5804 0l80.8459 80.8459c1.2638 1.2638 1.2638 3.3165 0 4.5804-.6333.6306-1.4618.9498-2.2903.9498z"/><path d="M438.29501 134.59772c0 9.8389-7.9761 17.815-17.815 17.815-9.839 0-17.8151-7.9761-17.8151-17.815 0-9.839 7.9761-17.8151 17.8151-17.8151 9.8389 0 17.815 7.9761 17.815 17.8151z"/><path d="M435.82561 171.37622c-9.5757-2.2611-15.5052-11.8567-13.2441-21.4324 2.2611-9.5756 11.8567-15.5052 21.4323-13.2441 9.5757 2.2611 15.5053 11.8567 13.2441 21.4324-2.2611 9.5756-11.8567 15.5052-21.4323 13.2441z"/><path d="M477.16781 173.46782c0 9.839-7.9787 17.8177-17.8177 17.8177-9.8389 0-17.815-7.9788-17.815-17.8177 0-9.8389 7.9761-17.815 17.815-17.815 9.839 0 17.8177 7.9788 17.8177 17.815z"/><path d="M487.42631 204.78402c-.8285 0-1.657-.3166-2.2903-.9472l-19.8414-19.8414c-1.2664-1.2638-1.2664-3.3166 0-4.5804 1.2665-1.2639 3.314-1.2639 4.5804 0l19.8415 19.8414c1.2638 1.2638 1.2638 3.3166 0 4.5804-.6333.628-1.4618.9472-2.2903.9472z"/></g><path fill="#d99e82" d="M118.54188 197.81725c-.8285 0-1.657-.3166-2.2903-.9472l-80.8458-80.8485c-1.2638-1.2638-1.2638-3.3165 0-4.5804 1.2638-1.2638 3.3166-1.2638 4.5804 0l80.8459 80.8459c1.2638 1.2638 1.2638 3.3165 0 4.5804-.6333.6306-1.4618.9498-2.2903.9498z"/><path fill="#fcb1e3" d="M69.41058 127.63095c0 9.8389-7.9761 17.815-17.815 17.815-9.839 0-17.8151-7.9761-17.8151-17.815 0-9.839 7.9761-17.8151 17.8151-17.8151 9.8389 0 17.815 7.9761 17.815 17.8151z"/><path fill="#ffd983" d="M66.94118 164.40945c-9.5757-2.2611-15.5052-11.8567-13.2441-21.4324 2.2611-9.5756 11.8567-15.5052 21.4323-13.2441 9.5757 2.2611 15.5053 11.8567 13.2441 21.4324-2.2611 9.5756-11.8567 15.5052-21.4323 13.2441z"/><path fill="#a6d388" d="M108.28338 166.50105c0 9.839-7.9787 17.8177-17.8177 17.8177-9.8389 0-17.815-7.9788-17.815-17.8177 0-9.8389 7.9761-17.815 17.815-17.815 9.839 0 17.8177 7.9788 17.8177 17.815z"/><path fill="#d99e82" d="M118.54188 197.81725c-.8285 0-1.657-.3166-2.2903-.9472l-19.8414-19.8414c-1.2664-1.2638-1.2664-3.3166 0-4.5804 1.2665-1.2639 3.314-1.2639 4.5804 0l19.8415 19.8414c1.2638 1.2638 1.2638 3.3166 0 4.5804-.6333.628-1.4618.9472-2.2903.9472zM575.22439 198.15598c-.8285 0-1.657-.3166-2.2903-.9472l-80.8458-80.8485c-1.2638-1.2638-1.2638-3.3165 0-4.5804 1.2638-1.2638 3.3166-1.2638 4.5804 0l80.8459 80.8459c1.2638 1.2638 1.2638 3.3165 0 4.5804-.6333.6306-1.4618.9498-2.2903.9498z"/><path fill="#fcb1e3" d="M526.09309 127.96968c0 9.8389-7.9761 17.815-17.815 17.815-9.839 0-17.8151-7.9761-17.8151-17.815 0-9.839 7.9761-17.8151 17.8151-17.8151 9.8389 0 17.815 7.9761 17.815 17.8151z"/><path fill="#ffd983" d="M523.6237 164.74818c-9.5757-2.2611-15.5052-11.8567-13.2441-21.4324 2.2611-9.5756 11.8567-15.5052 21.4323-13.2441 9.5757 2.2611 15.5053 11.8567 13.2441 21.4324-2.2611 9.5756-11.8567 15.5052-21.4323 13.2441z"/><path fill="#a6d388" d="M564.9659 166.83978c0 9.839-7.9787 17.8177-17.8177 17.8177-9.8389 0-17.815-7.9788-17.815-17.8177 0-9.8389 7.9761-17.815 17.815-17.815 9.839 0 17.8177 7.9788 17.8177 17.815z"/><path fill="#d99e82" d="M575.22439 198.15598c-.8285 0-1.657-.3166-2.2903-.9472l-19.8414-19.8414c-1.2664-1.2638-1.2664-3.3166 0-4.5804 1.2665-1.2639 3.314-1.2639 4.5804 0l19.8415 19.8414c1.2638 1.2638 1.2638 3.3166 0 4.5804-.6333.628-1.4618.9472-2.2903.9472zM216.76835 197.81725c-.8285 0-1.657-.3166-2.2903-.9472l-80.8458-80.8485c-1.2638-1.2638-1.2638-3.3165 0-4.5804 1.2638-1.2638 3.3166-1.2638 4.5804 0l80.8459 80.8459c1.2638 1.2638 1.2638 3.3165 0 4.5804-.6333.6306-1.4618.9498-2.2903.9498z"/><path fill="#fcb1e3" d="M167.63705 127.63095c0 9.8389-7.9761 17.815-17.815 17.815-9.839 0-17.8151-7.9761-17.8151-17.815 0-9.839 7.9761-17.8151 17.8151-17.8151 9.8389 0 17.815 7.9761 17.815 17.8151z"/><path fill="#ffd983" d="M165.16764 164.40945c-9.5757-2.2611-15.5052-11.8567-13.2441-21.4324 2.2611-9.5756 11.8567-15.5052 21.4323-13.2441 9.5757 2.2611 15.5053 11.8567 13.2441 21.4324-2.2611 9.5756-11.8567 15.5052-21.4323 13.2441z"/><path fill="#a6d388" d="M206.50985 166.50105c0 9.839-7.9787 17.8177-17.8177 17.8177-9.8389 0-17.815-7.9788-17.815-17.8177 0-9.8389 7.9761-17.815 17.815-17.815 9.839 0 17.8177 7.9788 17.8177 17.815z"/><path fill="#d99e82" d="M216.76835 197.81725c-.8285 0-1.657-.3166-2.2903-.9472l-19.8414-19.8414c-1.2664-1.2638-1.2664-3.3166 0-4.5804 1.2665-1.2639 3.314-1.2639 4.5804 0l19.8415 19.8414c1.2638 1.2638 1.2638 3.3166 0 4.5804-.6333.628-1.4618.9472-2.2903.9472zM479.38772 197.81725c-.8285 0-1.657-.3166-2.2903-.9472l-80.8458-80.8485c-1.2638-1.2638-1.2638-3.3165 0-4.5804 1.2638-1.2638 3.3166-1.2638 4.5804 0l80.8459 80.8459c1.2638 1.2638 1.2638 3.3165 0 4.5804-.6333.6306-1.4618.9498-2.2903.9498z"/><path fill="#fcb1e3" d="M430.25642 127.63095c0 9.8389-7.9761 17.815-17.815 17.815-9.839 0-17.8151-7.9761-17.8151-17.815 0-9.839 7.9761-17.8151 17.8151-17.8151 9.8389 0 17.815 7.9761 17.815 17.8151z"/><path fill="#ffd983" d="M427.78702 164.40945c-9.5757-2.2611-15.5052-11.8567-13.2441-21.4324 2.2611-9.5756 11.8567-15.5052 21.4323-13.2441 9.5757 2.2611 15.5053 11.8567 13.2441 21.4324-2.2611 9.5756-11.8567 15.5052-21.4323 13.2441z"/><path fill="#a6d388" d="M469.12922 166.50105c0 9.839-7.9787 17.8177-17.8177 17.8177-9.8389 0-17.815-7.9788-17.815-17.8177 0-9.8389 7.9761-17.815 17.815-17.815 9.839 0 17.8177 7.9788 17.8177 17.815z"/><path fill="#d99e82" d="M479.38772 197.81725c-.8285 0-1.657-.3166-2.2903-.9472l-19.8414-19.8414c-1.2664-1.2638-1.2664-3.3166 0-4.5804 1.2665-1.2639 3.314-1.2639 4.5804 0l19.8415 19.8414c1.2638 1.2638 1.2638 3.3166 0 4.5804-.6333.628-1.4618.9472-2.2903.9472z"/><path fill-opacity=".23137" d="m170.50306 276.61277-19.53244-18.37913 290.7251-226.39786 19.75987 19.92058v224.85641H170.50306z"/><path fill="#0fbd8c" stroke="#0b8e69" stroke-width="5" d="M149.76702 255.87674V31.02033h290.95253v224.85641z"/><path fill="url(#a)" stroke="#707070" stroke-width="5" d="M199.25 223.19269v-66.16644h180.76398v66.16644z" transform="translate(5.61131 3.81655)"/><text xml:space="preserve" font-family="&quot;Helvetica Neue&quot;, Helvetica, sans-serif" font-size="16" font-weight="500" transform="translate(219.87509 204.92512) scale(2.29148)"><tspan x="0" dy="0">Click me!</tspan></text><path fill="#0b8e69" d="M349.01361 63.50465c0 6.95322-5.6367 12.58992-12.58992 12.58992-1.62746-.00181-3.23913-.31911-4.7458-.9344l-23.21266 26.11424 23.21266 26.11423c1.50667-.61526 3.11834-.9326 4.7458-.9344 6.95322 0 12.58992 5.6367 12.58992 12.58992 0 6.95323-5.6367 12.58991-12.58992 12.58991-6.95322 0-12.58991-5.6367-12.58991-12.58991-.00027-2.12698.53832-4.21937 1.56553-6.08185l-24.43394-27.49126h-28.22894c-1.77629 5.02415-6.52332 8.38581-11.85223 8.39328-6.95323 0-12.58992-5.63669-12.58992-12.58991 0-6.95323 5.6367-12.58992 12.58992-12.58992 5.33191.00401 10.08311 3.36629 11.86041 8.39328h28.22076l24.44215-27.49946c-1.02872-1.8593-1.57011-3.94872-1.57374-6.07365 0-6.95322 5.63669-12.58991 12.58991-12.58991s12.58992 5.6367 12.58992 12.58992z"/><path fill="#fff" d="M345.60297 59.41189c0 6.95322-5.63669 12.58991-12.58991 12.58991-1.62746-.0018-3.23913-.31911-4.74581-.9344l-23.21266 26.11424 23.21266 26.11424c1.50668-.61527 3.11835-.9326 4.74581-.9344 6.95323 0 12.58991 5.63669 12.58991 12.58992s-5.63669 12.58991-12.58991 12.58991c-6.95323 0-12.58992-5.63669-12.58992-12.58991-.00027-2.12698.53832-4.21936 1.56554-6.08186l-24.43394-27.49126H269.3258c-1.77629 5.02415-6.52332 8.38581-11.85223 8.39328-6.95323 0-12.58992-5.63669-12.58992-12.58991 0-6.95323 5.63669-12.58992 12.58992-12.58992 5.33191.004 10.08312 3.36629 11.86041 8.39328h28.22076l24.44215-27.49946c-1.02872-1.8593-1.57011-3.94872-1.57374-6.07365 0-6.95322 5.63669-12.58991 12.58992-12.58991s12.58991 5.63669 12.58991 12.58992z"/></g></svg>