<svg xmlns="http://www.w3.org/2000/svg" width="600" height="300"><path fill="#0fbd8c" d="M0 300V0h600v300z" style="fill-rule:nonzero;stroke-linejoin:miter;stroke-miterlimit:10;stroke-dasharray:none;stroke-dashoffset:0"/><g fill="#00ac7b" stroke="#00ac7b" stroke-width="15" style="fill-rule:nonzero;stroke-linejoin:miter;stroke-miterlimit:10;stroke-dasharray:none;stroke-dashoffset:0"><path d="M33.398 46.853c0-10.968 8.892-19.86 19.86-19.86 10.967 0 19.858 8.892 19.858 19.86 0 10.967-8.891 19.858-19.859 19.858-10.967 0-19.859-8.89-19.859-19.858z"/><path stroke-linecap="round" d="m64.63 59.919 21.943 21.943"/><path d="M93.426 46.853c0-10.968 8.89-19.86 19.859-19.86 10.967 0 19.858 8.892 19.858 19.86 0 10.967-8.89 19.858-19.858 19.858s-19.86-8.89-19.86-19.858z"/><path stroke-linecap="round" d="M124.657 59.919 146.6 81.862"/><path d="M154.135 46.853c0-10.968 8.891-19.86 19.859-19.86 10.968 0 19.859 8.892 19.859 19.86 0 10.967-8.891 19.858-19.859 19.858-10.968 0-19.859-8.89-19.859-19.858z"/><path stroke-linecap="round" d="m185.367 59.919 21.943 21.943"/><path d="M217.573 46.853c0-10.968 8.891-19.86 19.859-19.86 10.968 0 19.859 8.892 19.859 19.86 0 10.967-8.891 19.858-19.86 19.858-10.967 0-19.858-8.89-19.858-19.858z"/><path stroke-linecap="round" d="m248.805 59.919 21.943 21.943"/><path d="M280.329 46.853c0-10.968 8.891-19.86 19.859-19.86 10.967 0 19.858 8.892 19.858 19.86 0 10.967-8.89 19.858-19.858 19.858s-19.86-8.89-19.86-19.858z"/><path stroke-linecap="round" d="m311.56 59.919 21.943 21.943"/><path d="M341.72 46.853c0-10.968 8.892-19.86 19.86-19.86 10.967 0 19.858 8.892 19.858 19.86 0 10.967-8.891 19.858-19.859 19.858-10.967 0-19.859-8.89-19.859-19.858z"/><path stroke-linecap="round" d="m372.952 59.919 21.943 21.943"/><path d="M402.43 46.853c0-10.968 8.89-19.86 19.859-19.86 10.967 0 19.858 8.892 19.858 19.86 0 10.967-8.89 19.858-19.858 19.858s-19.86-8.89-19.86-19.858z"/><path stroke-linecap="round" d="m433.661 59.919 21.943 21.943"/><path d="M464.504 46.853c0-10.968 8.89-19.86 19.858-19.86s19.86 8.892 19.86 19.86c0 10.967-8.892 19.858-19.86 19.858-10.967 0-19.858-8.89-19.858-19.858z"/><path stroke-linecap="round" d="m495.735 59.919 21.943 21.943"/><path d="M525.895 46.853c0-10.968 8.891-19.86 19.859-19.86 10.968 0 19.859 8.892 19.859 19.86 0 10.967-8.891 19.858-19.86 19.858-10.967 0-19.858-8.89-19.858-19.858z"/><path stroke-linecap="round" d="m557.127 59.919 21.943 21.943"/><g data-paper-data="{&quot;index&quot;:null}"><path d="M550.256 130.501c-10.968 0-19.859-8.89-19.859-19.858s8.891-19.86 19.859-19.86c10.968 0 19.859 8.892 19.859 19.86 0 10.967-8.891 19.858-19.859 19.858z"/><path stroke-linecap="round" d="m538.883 123.708-21.943 21.943"/></g><g data-paper-data="{&quot;index&quot;:null}"><path d="M489.547 130.501c-10.968 0-19.86-8.89-19.86-19.858s8.892-19.86 19.86-19.86c10.967 0 19.858 8.892 19.858 19.86 0 10.967-8.89 19.858-19.858 19.858z"/><path stroke-linecap="round" d="m478.174 123.708-21.943 21.943"/></g><g data-paper-data="{&quot;index&quot;:null}"><path d="M426.109 130.501c-10.968 0-19.86-8.89-19.86-19.858s8.892-19.86 19.86-19.86c10.967 0 19.858 8.892 19.858 19.86 0 10.967-8.89 19.858-19.858 19.858z"/><path stroke-linecap="round" d="m414.736 123.708-21.943 21.943"/></g><g data-paper-data="{&quot;index&quot;:null}"><path d="M363.353 130.501c-10.968 0-19.859-8.89-19.859-19.858s8.891-19.86 19.859-19.86c10.968 0 19.859 8.892 19.859 19.86 0 10.967-8.891 19.858-19.86 19.858z"/><path stroke-linecap="round" d="m351.98 123.708-21.943 21.943"/></g><g data-paper-data="{&quot;index&quot;:null}"><path d="M301.961 130.501c-10.967 0-19.858-8.89-19.858-19.858s8.89-19.86 19.858-19.86 19.86 8.892 19.86 19.86c0 10.967-8.892 19.858-19.86 19.858z"/><path stroke-linecap="round" d="m290.589 123.708-21.943 21.943"/></g><g data-paper-data="{&quot;index&quot;:null}"><path d="M241.252 130.501c-10.968 0-19.859-8.89-19.859-19.858s8.891-19.86 19.859-19.86c10.968 0 19.859 8.892 19.859 19.86 0 10.967-8.891 19.858-19.86 19.858z"/><path stroke-linecap="round" d="m229.88 123.708-21.944 21.943"/></g><g data-paper-data="{&quot;index&quot;:null}"><path d="M179.178 130.501c-10.967 0-19.859-8.89-19.859-19.858s8.892-19.86 19.86-19.86c10.967 0 19.858 8.892 19.858 19.86 0 10.967-8.891 19.858-19.859 19.858z"/><path stroke-linecap="round" d="m167.806 123.708-21.943 21.943"/></g><g data-paper-data="{&quot;index&quot;:null}"><path d="M117.787 130.501c-10.968 0-19.86-8.89-19.86-19.858.001-10.968 8.892-19.86 19.86-19.86 10.967 0 19.859 8.892 19.859 19.86 0 10.967-8.892 19.858-19.86 19.858z"/><path stroke-linecap="round" d="m106.414 123.708-21.943 21.943"/></g><g data-paper-data="{&quot;index&quot;:null}"><path d="M56.395 130.501c-10.968 0-19.859-8.89-19.859-19.858s8.891-19.86 19.86-19.86c10.967 0 19.858 8.892 19.858 19.86 0 10.967-8.891 19.858-19.859 19.858z"/><path stroke-linecap="round" d="M45.022 123.708 23.08 145.651"/></g><path d="M33.398 174.432c0-10.967 8.892-19.858 19.86-19.858 10.967 0 19.858 8.89 19.858 19.858s-8.891 19.86-19.859 19.86c-10.967 0-19.859-8.892-19.859-19.86z"/><path stroke-linecap="round" d="m64.63 187.498 21.943 21.943"/><path d="M93.426 174.432c0-10.967 8.89-19.858 19.859-19.858 10.967 0 19.858 8.89 19.858 19.858s-8.89 19.86-19.858 19.86-19.86-8.892-19.86-19.86z"/><path stroke-linecap="round" d="m146.6 209.441-21.943-21.943"/><path d="M154.135 174.432c0-10.967 8.891-19.858 19.859-19.858 10.968 0 19.859 8.89 19.859 19.858s-8.891 19.86-19.859 19.86c-10.968 0-19.859-8.892-19.859-19.86z"/><path stroke-linecap="round" d="m185.367 187.498 21.943 21.943"/><path d="M217.573 174.432c0-10.967 8.891-19.858 19.859-19.858 10.968 0 19.859 8.89 19.859 19.858s-8.891 19.86-19.86 19.86c-10.967 0-19.858-8.892-19.858-19.86z"/><path stroke-linecap="round" d="m248.805 187.498 21.943 21.943"/><path d="M280.329 174.432c0-10.967 8.891-19.858 19.859-19.858 10.967 0 19.858 8.89 19.858 19.858s-8.89 19.86-19.858 19.86-19.86-8.892-19.86-19.86z"/><path stroke-linecap="round" d="m311.56 187.498 21.943 21.943"/><path d="M341.72 174.432c0-10.967 8.892-19.858 19.86-19.858 10.967 0 19.858 8.89 19.858 19.858s-8.891 19.86-19.859 19.86c-10.967 0-19.859-8.892-19.859-19.86z"/><path stroke-linecap="round" d="m394.895 209.441-21.943-21.943"/><path d="M402.43 174.432c0-10.967 8.89-19.858 19.859-19.858 10.967 0 19.858 8.89 19.858 19.858s-8.89 19.86-19.858 19.86-19.86-8.892-19.86-19.86z"/><path stroke-linecap="round" d="m433.661 187.498 21.943 21.943"/><path d="M464.504 174.432c0-10.967 8.89-19.858 19.858-19.858s19.86 8.89 19.86 19.858-8.892 19.86-19.86 19.86c-10.967 0-19.858-8.892-19.858-19.86z"/><path stroke-linecap="round" d="m495.735 187.498 21.943 21.943"/><path d="M525.895 174.432c0-10.967 8.891-19.858 19.859-19.858 10.968 0 19.859 8.89 19.859 19.858s-8.891 19.86-19.86 19.86c-10.967 0-19.858-8.892-19.858-19.86z"/><path stroke-linecap="round" d="m557.127 187.498 21.943 21.943"/><g data-paper-data="{&quot;index&quot;:null}"><path d="M550.256 258.081c-10.968 0-19.859-8.891-19.859-19.859 0-10.967 8.891-19.859 19.859-19.859 10.968 0 19.859 8.892 19.859 19.86 0 10.967-8.891 19.858-19.859 19.858z"/><path stroke-linecap="round" d="m516.94 273.231 21.943-21.943"/></g><g data-paper-data="{&quot;index&quot;:null}"><path d="M489.547 258.081c-10.968 0-19.86-8.891-19.86-19.859 0-10.967 8.892-19.859 19.86-19.859 10.967 0 19.858 8.892 19.858 19.86 0 10.967-8.89 19.858-19.858 19.858z"/><path stroke-linecap="round" d="m456.23 273.231 21.944-21.943"/></g><g data-paper-data="{&quot;index&quot;:null}"><path d="M426.109 258.081c-10.968 0-19.86-8.891-19.86-19.859 0-10.967 8.892-19.859 19.86-19.859 10.967 0 19.858 8.892 19.858 19.86 0 10.967-8.89 19.858-19.858 19.858z"/><path stroke-linecap="round" d="m414.736 251.288-21.943 21.943"/></g><g data-paper-data="{&quot;index&quot;:null}"><path d="M363.353 258.081c-10.968 0-19.859-8.891-19.859-19.859 0-10.967 8.891-19.859 19.859-19.859 10.968 0 19.859 8.892 19.859 19.86 0 10.967-8.891 19.858-19.86 19.858z"/><path stroke-linecap="round" d="m330.037 273.231 21.943-21.943"/></g><g data-paper-data="{&quot;index&quot;:null}"><path d="M301.961 258.081c-10.967 0-19.858-8.891-19.858-19.859 0-10.967 8.89-19.859 19.858-19.859s19.86 8.892 19.86 19.86c0 10.967-8.892 19.858-19.86 19.858z"/><path stroke-linecap="round" d="m268.646 273.231 21.943-21.943"/></g><g data-paper-data="{&quot;index&quot;:null}"><path d="M241.252 258.081c-10.968 0-19.859-8.891-19.859-19.859 0-10.967 8.891-19.859 19.859-19.859 10.968 0 19.859 8.892 19.859 19.86 0 10.967-8.891 19.858-19.86 19.858z"/><path stroke-linecap="round" d="m229.88 251.288-21.944 21.943"/></g><g data-paper-data="{&quot;index&quot;:null}"><path d="M179.178 258.081c-10.967 0-19.859-8.891-19.859-19.859 0-10.967 8.892-19.859 19.86-19.859 10.967 0 19.858 8.892 19.858 19.86 0 10.967-8.891 19.858-19.859 19.858z"/><path stroke-linecap="round" d="m167.806 251.288-21.943 21.943"/></g><g data-paper-data="{&quot;index&quot;:null}"><path d="M117.787 258.081c-10.968 0-19.86-8.891-19.86-19.859.001-10.967 8.892-19.859 19.86-19.859 10.967 0 19.859 8.892 19.859 19.86 0 10.967-8.892 19.858-19.86 19.858z"/><path stroke-linecap="round" d="m84.471 273.231 21.943-21.943"/></g><g data-paper-data="{&quot;index&quot;:null}"><path d="M56.395 258.081c-10.968 0-19.859-8.891-19.859-19.859 0-10.967 8.891-19.859 19.86-19.859 10.967 0 19.858 8.892 19.858 19.86 0 10.967-8.891 19.858-19.859 19.858z"/><path stroke-linecap="round" d="m23.08 273.231 21.942-21.943"/></g></g><path fill="#505050" d="M267.65 238.794v-15.001c0-4.84 5.194-12.067 11.107-12.067H441.24c7.496 0 11.95 8.15 11.95 13.34v12.879c0 6.847-4.398 13.345-11.808 13.345H278.474c-5.778 0-10.824-5.912-10.824-12.496zM254.538 158.606V72.95c0-16.214 12.912-23.255 19.6-23.255h167.86c8.479 0 22.427 3.545 22.427 20.939v86.433c0 22.942-20.673 25.196-29.056 25.196H275.06c-.603 0-20.522-3.632-20.522-23.657z" style="fill-rule:nonzero;stroke-linejoin:miter;stroke-miterlimit:10;stroke-dasharray:none;stroke-dashoffset:0"/><path fill="#505050" d="M367.706 224.502h-15.001c-4.84 0-12.067-2.19-12.067-4.684V151.28c0-3.161 8.15-5.04 13.34-5.04h12.879c6.847 0 13.344 1.855 13.344 4.98v68.717c0 2.437-5.912 4.565-12.495 4.565z" style="fill-rule:nonzero;stroke-linejoin:miter;stroke-miterlimit:10;stroke-dasharray:none;stroke-dashoffset:0"/><path fill="#002a1e" d="M264.247 152.04V79.885c0-13.658 11.717-19.59 17.787-19.59h152.33c7.695 0 20.353 2.987 20.353 17.639v72.81c0 19.325-18.762 21.224-26.369 21.224H282.87c-.547 0-18.623-3.06-18.623-19.928z" style="fill-rule:nonzero;stroke-linejoin:miter;stroke-miterlimit:10;stroke-dasharray:none;stroke-dashoffset:0"/><path fill="#004431" d="m264.12 101.636 31.963-41.422h15.003l-46.966 56.425zM264.12 132.702l55.936-72.488h26.255l-82.191 98.744z" style="fill-rule:nonzero;stroke-linejoin:miter;stroke-miterlimit:10;stroke-dasharray:none;stroke-dashoffset:0"/><path fill="none" stroke="#fff" stroke-linecap="round" stroke-width="15" d="m216.742 63.297 125.95 55.168-121.786 60.373" style="fill-rule:nonzero;stroke-linejoin:miter;stroke-miterlimit:10;stroke-dasharray:none;stroke-dashoffset:0"/><path fill="#fff" fill-opacity=".137" stroke="#fff" stroke-width="15" d="M98.628 122.486c0-40.875 33.136-74.01 74.01-74.01 40.876 0 74.012 33.135 74.012 74.01 0 40.875-33.136 74.011-74.011 74.011-40.875 0-74.011-33.136-74.011-74.01z" style="fill-rule:nonzero;stroke-linejoin:miter;stroke-miterlimit:10;stroke-dasharray:none;stroke-dashoffset:0"/><path fill="#5a5a5a" d="M267.65 218.867c0-1.473 5.194-7.14 11.107-7.14H441.24c7.496 0 11.95 5.638 11.95 6.916 0 1.806-4.398 3.52-11.808 3.52-36.09 0-149.34 13.451-168.599 13.451-5.778 0-5.133-15.01-5.133-16.747z" style="fill-rule:nonzero;stroke-linejoin:miter;stroke-miterlimit:10;stroke-dasharray:none;stroke-dashoffset:0"/><text xml:space="preserve" x="109.359" y="153.844" fill="#fff" stroke-miterlimit="10" stroke-width="2.628" font-family="'Sans Serif'" font-size="105.107"><tspan x="109.359" dy="0" style="font-style:normal;font-variant:normal;font-weight:700;font-stretch:normal;font-family:&quot;DejaVu Sans Mono&quot;;-inkscape-font-specification:&quot;DejaVu Sans Mono Bold&quot;;stroke-width:2.62768">{}</tspan></text></svg>