<svg xmlns="http://www.w3.org/2000/svg" xml:space="preserve" stroke-miterlimit="10" viewBox="0 0 600 300"><defs><linearGradient id="b" x1="334.564" x2="264.83" y1="198.984" y2="129.229" gradientUnits="userSpaceOnUse"><stop offset=".463" stop-color="#1386bf"/><stop offset=".503" stop-color="#bf1313"/></linearGradient></defs><clipPath id="a"><path d="M0 0h600v300H0z"/></clipPath><g clip-path="url(#a)"><path fill="#599eff" d="M0 0h600v300H0V0Z"/><path fill="#4d97ff" d="M393.663 300 600 93.663V300H393.663Z"/><path fill="#3b8cff" d="M0 93.664 206.337 300H0V93.664Z"/><path fill="#4d97ff" d="M30 300 330 0h261L291 300H30Z"/><path fill="#3b8dff" d="M470 300 170 0h114l300 300H470Z"/></g><path fill-opacity=".15" d="M327.375 26.023c-4.725.454-8.051 4.242-9.219 7.156L313.5 44.804c-1.007 2.512-1.321 6.763.781 10.219-4.668-.622-9.434-1-14.281-1-60.758 0-110 49.25-110 110 0 60.758 49.251 110 110 110 60.758 0 110-49.251 110-110 0-36.125-17.534-68.026-44.406-88.063 4.196-.844 7.165-4.263 8.25-6.969l4.656-11.656c1.512-3.773 1.541-11.477-6-14.5l-39.969-16c-1.86-.745-3.581-.964-5.156-.812Z"/><path fill="#19b2ff" stroke="#fff" stroke-width="10" d="M200 164.023c0-55.229 44.772-100 100-100s100 44.771 100 100c0 55.228-44.772 100-100 100s-100-44.772-100-100Z"/><path fill="#bfbfbf" d="m300 114.023 9.653 26.682 25.697-12.032-12.033 25.696L350 164.023l-36.71 13.29-13.29 36.71-9.653-26.683-25.697 12.033 12.033-25.697L250 164.023l36.71-13.291L300 114.023Z"/><path fill="url(#b)" d="m265 129.023 47.668 22.332L335 199.023l-47.668-22.332L265 129.023Z"/><path fill="none" stroke="#fff" stroke-linecap="square" stroke-width="7.5" d="m265 129.023 22.331 47.668L335 199.023l-22.331-47.669L265 129.023Zm46.789 23.211-23.578 23.577"/><path fill="none" stroke="#fff" stroke-width="10" d="M211.655 164.023h17.669M300 75.678v17.669m70.676 70.676h17.669M300 234.699v17.669m-81.823-121.66 16.365 6.663m31.157-54.763 6.86 16.283M333.314 82.2l-6.663 16.364m38.807 92.11 16.365 6.663m-54.382 31.817 6.86 16.283m-60.952-15.956-6.663 16.365m-48.1-47.523 16.283-6.86m130.262-54.881 16.283-6.86m-143.883-28.169 12.494 12.494m99.95 99.951 12.494 12.494m-124.938 0 12.494-12.494m99.95-99.951 12.494-12.494"/><path fill="#bfbfbf" stroke="#fff" stroke-width="10" d="m333.927 54.313 18.565 7.441-5.581 13.924-18.564-7.441 5.58-13.924Z"/><path fill="#bfbfbf" stroke="#fff" stroke-width="10" d="M327.446 36.886c.254-.633.865-.984 1.365-.783l39.958 16.016c.501.2.7.876.447 1.509l-4.662 11.631c-.254.633-.865.984-1.365.783l-39.958-16.016c-.501-.2-.7-.876-.447-1.51l4.662-11.63Z"/><path fill-opacity=".15" d="M156.125 104c-8.672 0-15.813 1.866-20.625 6.5-4.807 4.629-6.781 11.466-6.781 19.656v13.782c0 4.391-1.042 6.477-1.875 7.25-.877.812-3.327 1.829-8.156 1.843-2.204.007-4 1.797-4 4v13.907c0 2.203 1.796 3.993 4 4 4.812.013 7.27 1.023 8.156 1.843.827.767 1.875 2.848 1.875 7.25v13.75c0 8.228 2.048 15.106 6.906 19.75 4.844 4.631 11.914 6.532 20.5 6.531H160a4 4 0 0 0 4-4v-10.437c0-2.208-1.792-4-4-4h-2.594c-3.688 0-5.361-.919-6.094-1.75-.79-.896-1.718-3.23-1.718-7.625v-16.469c0-5.237-1.513-9.89-4.875-13.281-.984-.993-2.109-1.808-3.313-2.531 1.192-.715 2.335-1.515 3.313-2.5 3.371-3.397 4.875-8.074 4.875-13.313v-16.344c0-4.388.924-6.723 1.718-7.624.728-.826 2.398-1.75 6.094-1.75H160c2.208 0 4-1.792 4-4V108c0-2.208-1.792-4-4-4h-3.875ZM440 104c-2.208 0-4 1.792-4 4v10.438a4.002 4.002 0 0 0 4 4h2.594c3.694 0 5.364.921 6.094 1.75.788.894 1.718 3.224 1.718 7.624v16.344c0 5.233 1.502 9.914 4.875 13.313.979.985 2.121 1.785 3.313 2.5-1.204.723-2.329 1.539-3.313 2.531-3.359 3.389-4.875 8.037-4.875 13.281v16.469c0 4.382-.922 6.721-1.718 7.625-.73.828-2.404 1.75-6.094 1.75H440c-2.208 0-4 1.792-4 4v10.437a4 4 0 0 0 4 4h3.875c8.589 0 15.66-1.904 20.5-6.531 4.859-4.645 6.906-11.521 6.906-19.75v-13.75c0-4.392 1.041-6.477 1.875-7.25.878-.812 3.328-1.83 8.156-1.843 2.204-.007 4.001-1.797 4-4v-13.907c0-2.203-1.796-3.993-4-4-4.812-.014-7.27-1.023-8.156-1.843-.827-.766-1.875-2.848-1.875-7.25v-13.782c0-8.189-1.976-15.029-6.781-19.656-4.816-4.638-11.958-6.5-20.625-6.5H440Z"/><path fill="#fff" d="M156.125 108c-8.173 0-14.124 1.793-17.844 5.375-3.719 3.582-5.562 9.169-5.562 16.781v13.782c0 4.854-1.069 8.253-3.157 10.187-2.087 1.934-5.699 2.891-10.874 2.906v13.907c5.175.014 8.787.972 10.874 2.906 2.088 1.934 3.157 5.332 3.157 10.187v13.75c0 7.636 1.885 13.27 5.656 16.875 3.771 3.605 9.68 5.406 17.75 5.406H160v-10.437h-2.594c-4.241 0-7.272-1.028-9.094-3.094-1.821-2.065-2.718-5.503-2.718-10.281v-16.469c0-4.508-1.254-7.981-3.719-10.469-2.465-2.487-6.118-4.003-10.969-4.5v-1.687c4.851-.504 8.504-1.985 10.969-4.469 2.465-2.483 3.719-5.992 3.719-10.5v-16.344c0-4.785.901-8.219 2.718-10.281 1.818-2.061 4.846-3.093 9.094-3.093H160V108h-3.875ZM440 108v10.438h2.594c4.248 0 7.276 1.032 9.094 3.093 1.817 2.062 2.718 5.496 2.718 10.281v16.344c0 4.508 1.254 8.017 3.719 10.5 2.465 2.484 6.118 3.965 10.969 4.469v1.687c-4.851.497-8.504 2.013-10.969 4.5-2.465 2.488-3.719 5.961-3.719 10.469v16.469c0 4.778-.897 8.216-2.718 10.281-1.822 2.066-4.853 3.094-9.094 3.094H440v10.437h3.875c8.07 0 13.979-1.801 17.75-5.406 3.771-3.605 5.656-9.239 5.656-16.875v-13.75c0-4.855 1.069-8.253 3.157-10.187 2.087-1.934 5.699-2.892 10.874-2.906v-13.907c-5.175-.015-8.787-.972-10.874-2.906-2.088-1.934-3.157-5.333-3.157-10.187v-13.782c0-7.612-1.843-13.199-5.562-16.781-3.72-3.582-9.671-5.375-17.844-5.375H440Z"/></svg>