<svg xmlns="http://www.w3.org/2000/svg" xmlns:xlink="http://www.w3.org/1999/xlink" width="600" height="300" viewBox="0 0 158.75 79.375"><defs><linearGradient id="a"><stop offset="0" style="stop-color:#5fa2ff;stop-opacity:1"/><stop offset="1" style="stop-color:#f1f3f9;stop-opacity:1"/></linearGradient><linearGradient xlink:href="#a" id="b" x1="7.507" x2="7.543" y1="-86.569" y2="-16.3" gradientTransform="translate(77.941 86.466)" gradientUnits="userSpaceOnUse"/></defs><rect width="158.75" height="79.375" ry="0" style="fill:url(#b);fill-opacity:1;stroke:none;stroke-width:.722891"/><g fill="none" fill-rule="evenodd" stroke="#575e75" stroke-linecap="round" stroke-linejoin="round"><path fill="#fff" stroke-width="1.07942" d="m15.567 54.972-4.587 1.922 1.924-4.574c1.315-3.121 3.138-5.853 5.43-8.136l21.318-21.24c.913-.909 2.86-.443 4.352 1.044 1.49 1.484 1.96 3.425 1.047 4.334l-21.318 21.24c-2.292 2.284-5.035 4.102-8.166 5.41"/><path stroke-width="1.07942" d="M37.865 24.218s-4.804-2.567-8.854 6.23c-1.872 4.065-4.695 1.669-4.695 1.669"/><path fill="#4c97ff" stroke-width="1.07942" d="M45.431 27.148c0 .5-.15.943-.466 1.257L34.889 38.443c.304-.313.442-.72.442-1.209 0-.943-.547-2.118-1.518-3.095-1.47-1.466-3.396-1.943-4.32-1.069L39.57 23.03c.911-.906 2.86-.442 4.355 1.037.97.975 1.507 2.139 1.507 3.081M17.47 54.078c-.619.327-1.249.616-1.904.897l-4.589 1.919 1.928-4.572c.279-.651.572-1.28.9-1.896.744.197 1.562.675 2.275 1.384.712.71 1.19 1.524 1.389 2.269"/><path fill="#575e75" stroke-width="1.07942" d="M45.515 27.065c0 .501-.15.944-.467 1.258l-21.31 21.243c-2.299 2.277-5.044 4.094-8.173 5.408l-4.589 1.918 1.052-2.5 2.078-.872c3.128-1.315 5.872-3.13 8.17-5.408l21.312-21.243c.315-.315.466-.758.466-1.258 0-.697-.292-1.51-.842-2.29.27.185.54.407.795.663.97.976 1.507 2.14 1.507 3.082" opacity=".15"/><path fill="#575e75" stroke-width="1.07942" d="M26.034 31.471a.976.976 0 1 1-.975-.973c.54 0 .976.436.976.976z"/></g><g aria-label="PEN+" style="font-size:38.1812px;line-height:1.25;fill:#fff;stroke:#676e83;stroke-width:1.455"><path d="M63.167 26.057q5.27 0 7.675 2.29 2.443 2.253 2.443 6.224 0 2.367-.992 4.467Q71.3 41.1 68.97 42.36q-2.291 1.26-6.262 1.26h-2.482v9.698h-5.765V26.057Zm-.305 4.734h-2.635v8.095h1.91q2.443 0 3.856-.955 1.45-.993 1.45-3.169 0-3.97-4.581-3.97zM94.132 53.318H78.44V26.057h15.692v4.734h-9.927v5.995h9.24v4.734h-9.24v7.026h9.927zM123.99 53.318h-7.33L104.784 32.7h-.153l.153 3.895q.114 1.947.19 3.894v12.83h-5.154V26.056h7.293l11.836 20.427h.115q-.039-1.91-.115-3.78l-.153-3.742V26.057h5.193zM140.37 37.817h7.216v4.085h-7.216v7.178h-4.086v-7.178h-7.216v-4.085h7.216v-7.255h4.086z" style="font-weight:700;font-family:&quot;Noto Sans&quot;;-inkscape-font-specification:&quot;Noto Sans&quot;"/></g></svg>