<svg xmlns="http://www.w3.org/2000/svg" width="600" height="300" viewBox="0 0 158.75 79.375"><defs><linearGradient id="a" x1="298.499" x2="298.499" y1="-30.931" y2="333.934" gradientTransform="matrix(.23034 0 0 .21755 10.618 6.729)" gradientUnits="userSpaceOnUse"><stop offset="0" stop-color="#091b15"/><stop offset="1" stop-color="#306955"/></linearGradient></defs><path fill="url(#a)" d="M0 79.375V0h158.75v79.375Z" style="mix-blend-mode:normal;fill:url(#a);fill-rule:nonzero;stroke-linecap:butt;stroke-linejoin:miter;stroke-miterlimit:10;stroke-dasharray:none;stroke-dashoffset:0"/><path d="M52.446 28.461c-.152-.023-.481-.122-.48-.55 0-.365.24-.49.405-.532.466-1.145 1.372-2.055 1.963-3.137.897-1.645 1.64-3.382 2.65-4.963 1.041-1.63 2.233-3.214 3.109-4.943.356-.5.627-1.058.984-1.552.335-.464.809-.833 1.134-1.298.202-.288.302-.639.494-.934.17-.261.4-.481.573-.74.385-.576.504-1.297 1.472-1.413.32-.038.44.493.552.796.008.023.004.928.004 1.104l-.008 2.648c-.009 3.196.109 6.429-.085 9.618-.052.858-.168 1.724-.182 2.585-.126.394-.288.79-.337 1.204-.15 1.269.04 2.492-.375 3.726l-.269.174a.781.781 0 0 1-.038.041.573.573 0 0 1-.275.162l-.002.001h-.005c-.28.06-.504-.165-.504-.165-.277-.284-.622-.611-1.016-.72-.596-.166-.954-.184-1.463-.547l-.042-.03-.016.156c-.046.892-.047 1.708-.27 2.582-.06.541-.046 1.092-.125 1.629-.04.272.042.609-.143.813-.186.204-.524.187-.798.225-.407.056-.896-.153-1.293-.226-.56-.103-1.182-.136-1.726-.308-.266-.084-.59-.088-.784-.287-.292-.298-.236-.992-.235-1.363a9.304 9.304 0 0 1 .368-2.614c.08-.32.145-.631.243-.941-.19.02-.355.026-.36.027-.982.052-2.233.244-3.12-.228zm1.31-.846c.677.002 1.478.069 2.142-.067.461-.095.913-.502 1.394.128.175.23-.074.573-.136.854-.098.455-.287.914-.403 1.37-.225.737-.323 1.552-.327 2.32 0 .166.016.334-.004.499-.004.038-.102.082-.066.096.074.03.157-.036.236-.029.246.02.486.081.73.122.447.076.896.169 1.34.264.166.035.352.013.516.046.002-.125.043-.25.05-.377.023-.439.045-.868.097-1.306.166-.665.25-1.3.252-1.986 0-.307.03-.612.046-.919.008-.17-.055-.35.005-.51.11-.295.19-.712.49-.807.439-.139.747.396 1.017.625.5.426.796.386 1.433.582.317.098.61.274.879.482.232-1.331.008-2.725.487-4.034-.006-.439.083-.852.11-1.29.073-1.176.077-2.36.123-3.54.092-2.391.013-4.802.02-7.194l.007-2.48c-.202.266-.437.51-.558.696-.202.31-.314.674-.525.979-.322.464-.798.826-1.127 1.288-.339.474-.596 1.009-.94 1.485-.87 1.735-2.074 3.324-3.117 4.955-.999 1.563-1.728 3.283-2.618 4.908-.186.339-.35.69-.564 1.014-.416.632-.952 1.156-1.271 1.835.084-.003.176-.01.282-.009z" style="mix-blend-mode:normal;fill-rule:nonzero;stroke-linecap:butt;stroke-linejoin:miter;stroke-miterlimit:10;stroke-dasharray:none;stroke-dashoffset:0"/><path fill="#e9e9e9" d="M53.469 27.629c.32-.679.855-1.204 1.271-1.835.213-.323.378-.676.564-1.015.89-1.624 1.621-3.356 2.62-4.918 1.043-1.632 2.252-3.22 3.122-4.956.344-.476.602-1.01.94-1.485.33-.461.806-.823 1.128-1.288.21-.304.323-.668.525-.979.12-.185.355-.43.558-.695l-.007 2.48c-.006 2.393.076 4.807-.017 7.197-.046 1.18-.05 2.369-.122 3.545-.027.438-.117.853-.11 1.292-.48 1.308-.258 2.705-.49 4.036a2.816 2.816 0 0 0-.88-.482c-.636-.196-.933-.155-1.434-.581-.27-.23-.579-.764-1.017-.625-.3.095-.38.512-.492.807-.06.159.004.34-.005.51-.015.307-.045.612-.046.919a8.095 8.095 0 0 1-.252 1.986c-.051.438-.074.867-.097 1.306-.007.126-.048.252-.05.377-.164-.033-.35-.01-.515-.046a31.91 31.91 0 0 0-1.343-.264c-.243-.041-.484-.101-.73-.122-.078-.007-.162.058-.235.029-.037-.015.061-.058.066-.097.02-.165.003-.332.004-.498.003-.768.101-1.583.327-2.32.115-.456.307-.929.406-1.383.061-.282.308-.612.132-.841-.48-.63-.934-.223-1.396-.129-.663.136-1.466.068-2.142.066-.107 0-.2.006-.283.009z" data-paper-data="{&quot;noHover&quot;:false,&quot;origItem&quot;:[&quot;Path&quot;,{&quot;applyMatrix&quot;:true,&quot;segments&quot;:[[[221.12258,106.59626],[-0.35515,-0.00095],[2.25242,0.00601]],[[228.25494,106.3724],[-2.21102,0.45294],[1.53688,-0.31484]],[[232.90017,106.79932],[-1.60292,-2.0985],[0.58304,0.76331]],[[232.44737,109.64505],[0.20385,-0.93863],[-0.32867,1.51335]],[[231.10535,114.21007],[0.38498,-1.52158],[-0.75085,2.45204]],[[230.01581,121.93569],[0.01091,-2.55951],[-0.00236,0.55328]],[[230.00206,123.59549],[0.06482,-0.54948],[-0.01521,0.12891]],[[229.78211,123.91684],[-0.12067,-0.04783],[0.2455,0.09731]],[[230.56843,123.81999],[-0.26313,-0.02244],[0.81762,0.06973]],[[232.99622,124.22757],[-0.80902,-0.13733],[1.4929,0.25342]],[[237.46571,125.10547],[-1.48162,-0.3176],[0.54964,0.11782]],[[239.18055,125.25997],[-0.54552,-0.11171],[0.00823,-0.41642]],[[239.34672,124.0041],[-0.02216,0.41924],[0.07729,-1.46223]],[[239.66985,119.65177],[-0.17061,1.45944],[0.55338,-2.21417]],[[240.5098,113.03771],[-0.00586,2.28277],[0.00262,-1.02107]],[[240.66214,109.97828],[-0.05099,1.0198],[0.02832,-0.56635]],[[240.67897,108.27717],[-0.19971,0.53073],[0.3692,-0.98117]],[[242.31334,105.59017],[-0.9996,0.31595],[1.4606,-0.46166]],[[245.6988,107.67194],[-0.89709,-0.76335],[1.66875,1.41997]],[[250.47197,109.61085],[-2.11972,-0.65389],[1.05828,0.32646]],[[253.39966,111.21552],[-0.89333,-0.6916],[0.77377,-4.43316]],[[255.02435,97.78042],[-1.59776,4.35757],[-0.02035,-1.46311]],[[255.39038,93.48132],[-0.08988,1.45993],[0.24118,-3.91764]],[[255.79811,81.68886],[-0.15248,3.9301],[0.30896,-7.96358]],[[255.86544,57.72682],[-0.02273,7.97018],[0.00785,-2.75324]],[[255.88899,49.4671],[-0.00785,2.75324],[-0.67418,0.88592]],[[254.03183,51.78449],[0.40142,-0.61626],[-0.67329,1.03364]],[[252.28191,55.04537],[0.70286,-1.01377],[-1.07229,1.54661]],[[248.52738,59.33541],[1.09795,-1.53725],[-1.12822,1.57962]],[[245.39534,64.28248],[1.14604,-1.58479],[-2.89508,5.7809]],[[235.0134,80.7891],[3.47481,-5.43527],[-3.32669,5.20359]],[[226.29381,97.13551],[2.96481,-5.41202],[-0.61875,1.12948]],[[224.41687,100.51255],[0.70844,-1.0755],[-1.38657,2.10498]],[[220.18059,106.62553],[1.06363,-2.26076],[0.27953,-0.00992]]],&quot;closed&quot;:true}]}" style="mix-blend-mode:normal;fill-rule:nonzero;stroke-linecap:butt;stroke-linejoin:miter;stroke-miterlimit:10;stroke-dasharray:none;stroke-dashoffset:0"/><g aria-label="Po" style="font-size:25.6248px;font-family:&quot;Sans Serif&quot;;fill:#e9e9e9;stroke:#000;stroke-width:1.28124;stroke-miterlimit:10"><path d="M24.991 20.599q3.536 0 5.15 1.537 1.64 1.512 1.64 4.177 0 1.589-.666 2.998-.666 1.384-2.229 2.23-1.538.845-4.202.845h-1.666v6.509h-3.87V20.599Zm-.205 3.177h-1.768v5.433h1.281q1.64 0 2.588-.64.974-.667.974-2.128 0-2.665-3.075-2.665zM47.643 31.874q0 3.485-1.845 5.38-1.819 1.897-4.97 1.897-1.948 0-3.486-.846-1.512-.845-2.383-2.46-.871-1.64-.871-3.971 0-3.485 1.82-5.356 1.818-1.87 4.996-1.87 1.973 0 3.485.845 1.512.846 2.383 2.46.871 1.589.871 3.92zm-9.66 0q0 2.075.666 3.151.692 1.051 2.23 1.051 1.511 0 2.177-1.05.692-1.077.692-3.152 0-2.076-.692-3.101-.666-1.05-2.203-1.05-1.512 0-2.204 1.05-.666 1.025-.666 3.1z" style="font-weight:700;font-family:&quot;Noto Sans&quot;;-inkscape-font-specification:&quot;Noto Sans&quot;" transform="rotate(-6.395)"/></g><g aria-label="nter" style="font-size:25.6248px;font-family:&quot;Sans Serif&quot;;fill:#e9e9e9;stroke:#000;stroke-width:1.28124;stroke-miterlimit:10"><path d="M73.76 24.25q2.255 0 3.613 1.23 1.358 1.204 1.358 3.895v9.122h-3.818v-8.174q0-1.512-.538-2.255-.538-.77-1.717-.77-1.742 0-2.383 1.205-.64 1.179-.64 3.408v6.586h-3.818V24.506h2.92l.513 1.794h.205q.666-1.077 1.82-1.564 1.178-.486 2.485-.486zM88.546 35.704q.64 0 1.23-.128t1.178-.308v2.845q-.615.256-1.537.435-.897.205-1.973.205-1.256 0-2.255-.41-.974-.41-1.563-1.41-.564-1.024-.564-2.818v-6.74h-1.82v-1.614l2.102-1.28 1.102-2.948h2.434v2.973h3.92v2.87h-3.92v6.74q0 .793.461 1.203.462.385 1.205.385zM99.539 24.25q2.895 0 4.587 1.665 1.69 1.64 1.69 4.69v1.844h-9.02q.052 1.615.949 2.537.922.923 2.537.923 1.358 0 2.46-.256 1.102-.282 2.28-.846v2.947q-1.025.512-2.178.743-1.127.256-2.742.256-2.1 0-3.715-.769-1.615-.794-2.537-2.383-.922-1.588-.922-3.997 0-2.46.82-4.074.845-1.64 2.331-2.46 1.487-.82 3.46-.82zm.025 2.716q-1.102 0-1.845.717-.717.718-.845 2.23h5.355q-.025-1.282-.666-2.102-.64-.845-1.999-.845zM116.733 24.25q.282 0 .666.025.385.026.615.077l-.282 3.588q-.18-.052-.538-.077-.333-.052-.59-.052-.973 0-1.87.36-.897.332-1.46 1.101-.539.769-.539 2.101v7.124h-3.818V24.506h2.896l.564 2.357h.18q.614-1.076 1.69-1.845 1.077-.768 2.486-.768z" style="font-weight:700;font-family:&quot;Noto Sans&quot;;-inkscape-font-specification:&quot;Noto Sans&quot;" transform="rotate(-6.395)"/></g><path d="M82.279 47.765c.058.01.107.028.149.049.05-.007.085-.004.085-.004.2.013.403.041.608.077a.561.561 0 0 1 .102-.188c-.032-.508.015-1.01.079-1.568.095-.826.164-1.839.451-2.614.6-1.624 2.306-3.07 3.752-3.905.487-.28 1.076-.388 1.59-.613 1.38-.776 2.893-.098 4.23.524.974.454 2.27 1.092 2.971 1.931 1.13 1.354 1.15 3.468.855 5.098.06.778-.026 1.399-.091 2.164-.016.192.067.413.039.598.22.006.44.012.66.02.43.013 1.36-.138 1.737.114.567.38.373.837.453 1.366.183 1.22.244 2.41.326 3.652-.14.817-.267 1.711-.237 2.544.025.673.243 1.358.23 2.03-.013.657-.173 1.318-.138 1.986.042.804.259 1.61.292 2.418.01.258.144.572-.016.776-.282.36-1.152.221-1.504.2-1.398-.245-2.746-.214-4.151-.297-.044-.003-1.286-.226-1.29-.226-.643-.075-1.313-.025-1.957-.074-2.013-.152-4.054-.693-6.041-1.044l-3.464-.61c-.301-.054-1.25-.163-1.42-.478-.218-.405.199-1.747.28-2.211.339-1.917.321-3.9.38-5.848.057-1.647.156-3.389.443-5.015l.087-.495s.076-.433.51-.357zm6.381.835c1.419.146 2.86.279 4.286.322.221.008.44.035.658.07a1.613 1.613 0 0 0-.005-.02c-.155-.639-.146-1.172-.07-1.812.044-.362-.053-.727-.084-1.09-.079-.926-.032-1.518-.488-2.365-.497-.579-1.282-.752-2.007-.879-.449-.079-1.257-.435-1.68-.226-.125.062-.186.219-.31.286-.236.13-.582.074-.76.277-.074.084-.29.8-.3.822-.58 1.301-.794 2.548-1.053 3.95a1.47 1.47 0 0 0 .002.288c.607.125 1.22.317 1.811.377zm-6.098.096-.013.074c-.28 1.583-.381 3.288-.43 4.891-.025.71-.179 1.412-.162 2.126.017.702.088 1.447.063 2.149-.027.76-.273 1.583-.406 2.333-.037.212-.052.43-.112.636-.034.12-.186.21-.168.334.01.07.14-.049.212-.043.204.015.404.07.606.105l3.464.611c1.96.346 3.979.887 5.964 1.034.65.049 1.324 0 1.973.075.422.05.83.2 1.255.223 1.42.08 2.785.05 4.2.302.181.012.367-.001.545.032-.078-.135-.057-.34-.071-.47-.054-.518-.085-1.029-.16-1.544-.127-.867.044-1.679.065-2.536.016-.653-.204-1.331-.228-1.987-.032-.856.085-1.781.237-2.621-.089-1.174-.147-2.305-.316-3.46-.036-.252.199-.692-.046-.762-.104-.03-.214.051-.322.046-.81-.04-1.614-.051-2.426-.068-1.13-.023-2.236-.34-3.369-.374a62.872 62.872 0 0 1-4.348-.326c-.873-.091-1.836-.511-2.71-.484-.203.007-.398.112-.602.113-.41.002-.826-.07-1.243-.153a.585.585 0 0 1-.073.026c-.239.071-.383-.033-.462-.137a8.132 8.132 0 0 0-.917-.145zm1.546-.894c.279.047.553.142.837.148.46.01.514-.232 1.034-.118.252-1.482.498-2.818 1.112-4.195.178-.4.142-.729.473-1.082.242-.26.659-.269.97-.44.145-.079.225-.26.38-.32.553-.214 1.072-.031 1.623.064 1.192.207 2.305.405 3.141 1.341.544.986.55 1.709.644 2.791.037.424.127.85.082 1.273-.062.583.037.985.064 1.564.003.069-.133.156-.075.193.07.044.147-.086.229-.095.17-.018.34.01.51.017.332.014.663-.02.995-.017.062 0 .168.11.181.05.023-.104-.124-.185-.128-.291-.008-.2.178-.849.187-1.06.016-.374-.07-.745-.095-1.118.244-1.42.33-3.303-.66-4.5-.606-.73-1.816-1.294-2.66-1.686-1.037-.481-2.398-1.208-3.455-.539-.483.212-1.086.318-1.537.584-.748.441-1.37.994-1.955 1.607-.519.543-1.15 1.088-1.42 1.834-.217.596-.24 1.346-.343 1.975-.111.682-.211 1.353-.134 2.02z" style="mix-blend-mode:normal;fill-rule:nonzero;stroke-linecap:butt;stroke-linejoin:miter;stroke-miterlimit:10;stroke-dasharray:none;stroke-dashoffset:0"/><path fill="#fff" d="M84.231 45.784c.103-.629.126-1.382.342-1.978.272-.746.903-1.294 1.422-1.838.586-.612 1.21-1.17 1.958-1.61.451-.267 1.058-.375 1.54-.587 1.058-.668 2.427.059 3.465.54.843.392 2.058.961 2.663 1.691.992 1.197.905 3.09.66 4.509.025.373.111.745.096 1.119-.01.212-.197.861-.188 1.062.004.106.15.187.127.29-.013.062-.118-.049-.181-.05-.331-.001-.664.033-.995.019-.17-.008-.342-.034-.511-.016-.082.008-.16.139-.23.095-.058-.038.065-.142.062-.21-.026-.58-.128-.98-.066-1.563.045-.423-.046-.847-.083-1.27-.095-1.083-.1-1.797-.644-2.783-.836-.936-1.938-1.127-3.13-1.334-.55-.095-1.065-.28-1.618-.066-.154.06-.233.24-.378.32-.311.17-.726.177-.969.436-.33.353-.293.68-.47 1.079-.615 1.377-.864 2.705-1.115 4.187-.52-.114-.592.139-1.053.13-.283-.006-.558-.102-.837-.149-.077-.667.022-1.341.133-2.023z" data-paper-data="{&quot;noHover&quot;:false,&quot;origItem&quot;:[&quot;Path&quot;,{&quot;applyMatrix&quot;:true,&quot;segments&quot;:[[[322.21982,173.83719],[-0.25618,-2.22228],[0.93105,0.15699]],[[325.0084,174.32942],[-0.9437,-0.0191],[1.53498,0.03106]],[[328.45314,173.93794],[-1.7322,-0.37954],[0.83823,-4.93636]],[[332.15839,159.96416],[-2.04658,4.58629],[0.59372,-1.33051]],[[333.732,156.35956],[-1.10037,1.17718],[0.80757,-0.86394]],[[336.96429,154.89691],[-1.03713,0.56826],[0.48392,-0.26515]],[[338.22871,153.82846],[-0.51449,0.19945],[1.84246,-0.71428]],[[343.63552,154.04264],[-1.83469,-0.31783],[3.96999,0.68774]],[[354.09861,158.50907],[-2.78353,-3.11923],[1.81337,3.28402]],[[356.24274,167.806],[-0.31526,-3.60507],[0.12338,1.41092]],[[356.5158,172.04614],[0.14966,-1.40838],[-0.20613,1.9398]],[[356.72845,177.25365],[-0.08714,-1.92663],[0.01039,0.22968]],[[356.47984,177.89702],[-0.19383,-0.12365],[0.23181,0.14788]],[[357.24186,177.58119],[-0.27344,0.02886],[0.56476,-0.05961]],[[358.94463,177.63686],[-0.56737,-0.02439],[1.10246,0.04739]],[[362.25459,177.58023],[-1.10346,-0.0072],[0.20895,0.00136]],[[362.85902,177.74648],[-0.04525,0.204],[0.0764,-0.34446]],[[362.4326,176.77767],[0.0143,0.35254],[-0.02705,-0.66702]],[[363.05549,173.2454],[-0.02953,0.7063],[0.05203,-1.24436]],[[362.7375,169.52263],[0.08149,1.24277],[0.8136,-4.72906]],[[360.53765,154.53511],[3.30279,3.98588],[-2.01605,-2.43301]],[[351.68093,148.91902],[2.80979,1.30454],[-3.45542,-1.60429]],[[340.17017,147.12339],[3.52319,-2.22711],[-1.60602,0.70446]],[[335.05056,149.06945],[1.50366,-0.8875],[-2.48895,1.46904]],[[328.54097,154.42173],[1.94975,-2.04146],[-1.72832,1.80962]],[[323.80837,160.52912],[0.90309,-2.4832],[-0.72239,1.98632]],[[322.66726,167.10818],[0.34227,-2.09529],[-0.37092,2.2707]]],&quot;closed&quot;:true}]}" style="mix-blend-mode:normal;fill-rule:nonzero;stroke-linecap:butt;stroke-linejoin:miter;stroke-miterlimit:10;stroke-dasharray:none;stroke-dashoffset:0"/><path fill="#a5a5a5" d="M83.47 48.833c.08.104.224.209.463.138a.587.587 0 0 0 .073-.027c.417.084.834.154 1.244.152.204 0 .399-.106.603-.113.874-.027 1.839.391 2.712.483 1.44.15 2.907.275 4.355.325 1.134.035 2.243.353 3.373.377.812.017 1.617.03 2.428.07.108.005.218-.077.322-.047.245.07.01.512.047.764.169 1.155.228 2.29.316 3.463-.152.84-.268 1.769-.236 2.625.024.656.244 1.336.228 1.989-.021.857-.194 1.672-.067 2.539.075.515.105 1.026.16 1.543.013.131-.008.337.07.471-.178-.033-.364-.02-.546-.032-1.414-.25-2.781-.22-4.202-.299-.424-.023-.834-.173-1.257-.222-.649-.075-1.325-.026-1.975-.075-1.986-.147-4.012-.69-5.973-1.037-1.154-.203-2.31-.41-3.466-.613-.202-.035-.401-.09-.606-.106-.072-.005-.2.114-.212.043-.018-.123.134-.214.168-.334.06-.207.075-.425.112-.637.133-.75.378-1.575.405-2.335.025-.701-.046-1.449-.063-2.151-.017-.714.138-1.419.162-2.129.049-1.603.153-3.312.432-4.895l.013-.074c.304.026.61.082.918.144z" data-paper-data="{&quot;noHover&quot;:false,&quot;origItem&quot;:[&quot;Path&quot;,{&quot;applyMatrix&quot;:true,&quot;segments&quot;:[[[317.07081,176.81497],[1.01283,0.08745],[0,0]],[[317.02715,177.06254],[0,0],[-0.92983,5.2729]],[[315.59628,193.35335],[0.16203,-5.34125],[-0.0821,2.36463]],[[315.05647,200.43353],[-0.05663,-2.37634],[0.05577,2.34033]],[[315.26627,207.59284],[0.08258,-2.33697],[-0.08943,2.53063]],[[313.91531,215.36293],[0.44026,-2.49664],[-0.12458,0.70645]],[[313.54158,217.48229],[0.1992,-0.68914],[-0.11516,0.39841]],[[312.98156,218.59327],[-0.06161,-0.41011],[0.03564,0.23725]],[[313.68708,218.45087],[-0.23921,-0.01842],[0.68069,0.0524]],[[315.70471,218.80292],[-0.67245,-0.11789],[3.84691,0.67444]],[[327.24345,220.83767],[-3.84624,-0.67825],[6.53104,1.15169]],[[347.10985,224.28219],[-6.61315,-0.49009],[2.16676,0.16057]],[[353.6808,224.53219],[-2.16154,-0.25063],[1.4066,0.16309]],[[357.86344,225.27491],[-1.41384,-0.07866],[4.73172,0.26326]],[[371.84953,226.27779],[-4.70952,-0.83643],[0.6059,0.04063]],[[373.6692,226.38576],[-0.59618,-0.10962],[-0.26147,-0.44896]],[[373.43075,224.81741],[0.0456,0.43652],[-0.17987,-1.72192]],[[372.89707,219.6789],[0.25121,1.71529],[-0.42301,-2.8884]],[[373.1158,211.2297],[-0.07021,2.85516],[0.05349,-2.17509]],[[372.35391,204.61157],[0.0807,2.18522],[-0.10529,-2.85118]],[[373.14344,195.88115],[-0.50645,2.79726],[-0.29489,-3.91032]],[[372.09369,184.35753],[0.5622,3.84701],[-0.12267,-0.83941]],[[371.93968,181.8172],[0.81531,0.23436],[-0.34733,-0.09984]],[[370.86657,181.97163],[0.36095,0.0178],[-2.69952,-0.13314]],[[362.78405,181.74491],[2.70492,0.05603],[-3.76511,-0.07799]],[[351.56389,180.49901],[3.77487,0.11451],[-4.82486,-0.16752]],[[337.08191,179.41329],[4.79527,0.50205],[-2.90889,-0.30455]],[[328.05674,177.80164],[2.90966,-0.0907],[-0.68068,0.02122]],[[326.04829,178.17588],[0.681,-0.00324],[-1.3662,0.00651]],[[321.90838,177.6665],[1.38881,0.28047],[-0.07392,0.03311]],[[321.66647,177.75551],[0.08753,-0.02603],[-0.7963,0.23685]],[[320.12495,177.29723],[0.2659,0.3466],[-1.02131,-0.20799]]],&quot;closed&quot;:true}]}" style="mix-blend-mode:normal;fill-rule:nonzero;stroke-linecap:butt;stroke-linejoin:miter;stroke-miterlimit:10;stroke-dasharray:none;stroke-dashoffset:0"/><path d="M89.41 54.551c-.4-.303-.547-.603-.71-1.168-.055-.192-.174-.375-.17-.575.027-1.68 2.13-1.754 3.293-1.553.414.07.89.105 1.213.43.407.41.445 1.229.382 1.757-.05.407-.285.803-.586 1.08-.638.527-.647 1.08-.742 1.865-.1.823-.196 1.64-.232 2.469-.016.364.126.942-.162 1.254-.697.757-1.985.007-2.328-.707-.353-.732-.103-1.922-.115-2.72.097-.634.118-1.28.124-1.92z" style="mix-blend-mode:normal;fill-rule:nonzero;stroke-linecap:butt;stroke-linejoin:miter;stroke-miterlimit:10;stroke-dasharray:none;stroke-dashoffset:0"/><g style="font-size:25.6248px;font-family:&quot;Noto Sans&quot;;-inkscape-font-specification:&quot;Noto Sans&quot;;fill:#e9e9e9;stroke:#000;stroke-width:1.28124;stroke-miterlimit:10"><path d="M75.492 45.945V27.649h3.87v15.093h7.43v3.203z" aria-label="L" style="font-weight:700" transform="rotate(10)"/></g><g aria-label="CK" style="font-size:25.6248px;font-family:&quot;Noto Sans&quot;;-inkscape-font-specification:&quot;Noto Sans&quot;;fill:#e9e9e9;stroke:#000;stroke-width:1.28124;stroke-miterlimit:10"><path d="M120.32 31.236q-2.23 0-3.408 1.666-1.18 1.665-1.18 4.561 0 2.921 1.077 4.536 1.102 1.588 3.51 1.588 1.128 0 2.23-.256 1.128-.256 2.434-.717v3.254q-1.204.487-2.383.717-1.178.231-2.639.231-2.819 0-4.664-1.153-1.82-1.179-2.69-3.28-.872-2.127-.872-4.946 0-2.767 1-4.894 1-2.127 2.895-3.331 1.922-1.205 4.69-1.205 1.358 0 2.716.36 1.384.332 2.64.922l-1.256 3.152q-1.025-.487-2.076-.846-1.025-.359-2.024-.359zM143.587 46.56h-4.407l-4.792-7.713-1.64 1.178v6.535h-3.87V28.264h3.87v8.379l.768-1.076.77-1.076 4.945-6.227h4.305l-6.38 8.097z" style="font-weight:700" transform="rotate(10)"/></g><path d="M38.695 57.963c-.117-.017-.37-.094-.37-.424 0-.281.185-.377.312-.41.36-.882 1.058-1.584 1.513-2.419.692-1.268 1.265-2.607 2.043-3.826.804-1.257 1.723-2.478 2.398-3.811.275-.385.484-.816.759-1.197.258-.358.623-.642.874-1 .156-.223.233-.493.381-.72.132-.202.308-.372.441-.572.297-.444.39-1 1.135-1.089.248-.03.34.38.426.614.007.018.004.715.003.85l-.005 2.043c-.007 2.464.083 4.957-.066 7.415-.04.662-.13 1.33-.14 1.993-.098.304-.223.61-.26.929-.116.978.031 1.92-.29 2.873l-.207.134a.442.442 0 0 1-.241.156l-.002.001h-.003c-.216.047-.39-.127-.39-.127-.213-.22-.48-.471-.783-.556-.46-.127-.736-.141-1.128-.421l-.032-.023-.012.12c-.036.688-.036 1.317-.21 1.991-.045.417-.034.842-.095 1.256-.03.21.032.47-.11.626-.144.158-.404.145-.616.174-.313.044-.69-.118-.997-.174-.432-.08-.91-.105-1.33-.238-.205-.064-.455-.067-.605-.221-.225-.23-.182-.765-.181-1.05.001-.67.09-1.375.283-2.016.063-.247.112-.487.188-.726a4.57 4.57 0 0 1-.278.02c-.756.041-1.72.19-2.405-.175zm1.01-.652c.522.002 1.14.053 1.651-.052.356-.073.705-.387 1.076.1.135.176-.058.44-.105.658-.076.35-.222.704-.31 1.057a6.314 6.314 0 0 0-.253 1.788c0 .128.012.257-.003.384-.004.03-.08.063-.051.074.057.023.121-.027.182-.022.19.016.375.063.562.094.345.059.691.13 1.034.204.128.027.271.01.397.035.002-.096.034-.193.039-.29.018-.339.035-.67.075-1.008a6.24 6.24 0 0 0 .194-1.53c0-.237.023-.473.035-.709.007-.131-.042-.27.004-.394.086-.227.147-.549.379-.622.338-.107.575.305.783.482.386.329.614.298 1.105.449.245.076.47.211.678.371.179-1.026.006-2.1.376-3.11-.005-.338.064-.657.084-.995.056-.906.06-1.82.095-2.73.071-1.843.01-3.7.015-5.546l.006-1.912c-.156.205-.337.394-.43.537-.156.239-.242.52-.405.755-.248.358-.615.637-.87.993-.26.365-.459.778-.724 1.145-.67 1.338-1.599 2.562-2.403 3.82-.77 1.205-1.332 2.532-2.019 3.784-.143.262-.27.533-.434.782-.32.487-.734.892-.98 1.415.064-.002.135-.007.217-.007z" style="mix-blend-mode:normal;fill-rule:nonzero;stroke-linecap:butt;stroke-linejoin:miter;stroke-miterlimit:10;stroke-dasharray:none;stroke-dashoffset:0" transform="translate(-23.75 -11.903) scale(1.297)"/><path fill="#e9e9e9" d="M39.484 57.322c.246-.523.66-.928.98-1.415.164-.25.291-.52.434-.782.687-1.253 1.25-2.588 2.02-3.792.805-1.258 1.737-2.483 2.408-3.821.265-.367.464-.78.725-1.145.254-.356.62-.635.87-.993.162-.235.248-.516.404-.755.093-.143.274-.331.43-.536l-.005 1.912c-.005 1.845.058 3.706-.013 5.55-.035.909-.039 1.825-.095 2.732-.02.338-.09.658-.085.996-.37 1.009-.198 2.086-.377 3.112a2.171 2.171 0 0 0-.678-.371c-.491-.152-.72-.12-1.106-.449-.208-.177-.446-.588-.784-.482-.232.074-.294.395-.38.623-.045.122.003.262-.003.393-.012.236-.035.472-.035.709a6.242 6.242 0 0 1-.195 1.53c-.04.338-.057.67-.075 1.008-.005.097-.037.194-.038.29-.127-.025-.27-.008-.398-.035-.343-.074-.69-.145-1.035-.203-.187-.032-.373-.079-.562-.095-.061-.005-.125.045-.182.023-.028-.011.047-.045.05-.075.016-.127.003-.256.004-.384a6.29 6.29 0 0 1 .252-1.788c.089-.352.237-.717.313-1.067.047-.218.237-.472.102-.649-.37-.485-.72-.172-1.076-.099-.512.105-1.13.053-1.652.051-.082 0-.154.005-.218.007z" data-paper-data="{&quot;noHover&quot;:false,&quot;origItem&quot;:[&quot;Path&quot;,{&quot;applyMatrix&quot;:true,&quot;segments&quot;:[[[221.12258,106.59626],[-0.35515,-0.00095],[2.25242,0.00601]],[[228.25494,106.3724],[-2.21102,0.45294],[1.53688,-0.31484]],[[232.90017,106.79932],[-1.60292,-2.0985],[0.58304,0.76331]],[[232.44737,109.64505],[0.20385,-0.93863],[-0.32867,1.51335]],[[231.10535,114.21007],[0.38498,-1.52158],[-0.75085,2.45204]],[[230.01581,121.93569],[0.01091,-2.55951],[-0.00236,0.55328]],[[230.00206,123.59549],[0.06482,-0.54948],[-0.01521,0.12891]],[[229.78211,123.91684],[-0.12067,-0.04783],[0.2455,0.09731]],[[230.56843,123.81999],[-0.26313,-0.02244],[0.81762,0.06973]],[[232.99622,124.22757],[-0.80902,-0.13733],[1.4929,0.25342]],[[237.46571,125.10547],[-1.48162,-0.3176],[0.54964,0.11782]],[[239.18055,125.25997],[-0.54552,-0.11171],[0.00823,-0.41642]],[[239.34672,124.0041],[-0.02216,0.41924],[0.07729,-1.46223]],[[239.66985,119.65177],[-0.17061,1.45944],[0.55338,-2.21417]],[[240.5098,113.03771],[-0.00586,2.28277],[0.00262,-1.02107]],[[240.66214,109.97828],[-0.05099,1.0198],[0.02832,-0.56635]],[[240.67897,108.27717],[-0.19971,0.53073],[0.3692,-0.98117]],[[242.31334,105.59017],[-0.9996,0.31595],[1.4606,-0.46166]],[[245.6988,107.67194],[-0.89709,-0.76335],[1.66875,1.41997]],[[250.47197,109.61085],[-2.11972,-0.65389],[1.05828,0.32646]],[[253.39966,111.21552],[-0.89333,-0.6916],[0.77377,-4.43316]],[[255.02435,97.78042],[-1.59776,4.35757],[-0.02035,-1.46311]],[[255.39038,93.48132],[-0.08988,1.45993],[0.24118,-3.91764]],[[255.79811,81.68886],[-0.15248,3.9301],[0.30896,-7.96358]],[[255.86544,57.72682],[-0.02273,7.97018],[0.00785,-2.75324]],[[255.88899,49.4671],[-0.00785,2.75324],[-0.67418,0.88592]],[[254.03183,51.78449],[0.40142,-0.61626],[-0.67329,1.03364]],[[252.28191,55.04537],[0.70286,-1.01377],[-1.07229,1.54661]],[[248.52738,59.33541],[1.09795,-1.53725],[-1.12822,1.57962]],[[245.39534,64.28248],[1.14604,-1.58479],[-2.89508,5.7809]],[[235.0134,80.7891],[3.47481,-5.43527],[-3.32669,5.20359]],[[226.29381,97.13551],[2.96481,-5.41202],[-0.61875,1.12948]],[[224.41687,100.51255],[0.70844,-1.0755],[-1.38657,2.10498]],[[220.18059,106.62553],[1.06363,-2.26076],[0.27953,-0.00992]]],&quot;closed&quot;:true}]}" style="mix-blend-mode:normal;fill-rule:nonzero;stroke-linecap:butt;stroke-linejoin:miter;stroke-miterlimit:10;stroke-dasharray:none;stroke-dashoffset:0" transform="translate(-23.75 -11.903) scale(1.297)"/><g stroke-width=".5" style="mix-blend-mode:normal;fill-rule:nonzero;stroke-linecap:butt;stroke-linejoin:miter;stroke-miterlimit:10;stroke-dasharray:none;stroke-dashoffset:0"><path d="M30.324 54.319c-.754-1.559-.615-3.791-.214-5.41.134-.546.466-1.046.66-1.572.397-1.533 1.933-2.153 3.308-2.686 1.003-.388 2.361-.88 3.452-.804 1.76.124 3.297 1.574 4.268 2.917.602.496.99.988 1.496 1.565.128.145.345.238.458.387l.471-.463c.308-.3.844-1.075 1.287-1.172.667-.147.862.31 1.3.62 1.006.714 1.905 1.494 2.857 2.296.492.667 1.05 1.378 1.67 1.933.503.449 1.148.767 1.623 1.242.464.464.83 1.038 1.336 1.475.61.528 1.34.93 1.945 1.466.194.172.513.293.55.549.063.454-.64.984-.899 1.223-1.146.838-2.058 1.832-3.091 2.787-.032.03-1.054.77-1.057.773-.5.411-.928.93-1.41 1.36-1.504 1.345-3.309 2.441-4.939 3.631-.947.691-1.893 1.384-2.841 2.074-.247.18-.984.79-1.328.693-.443-.124-1.122-1.354-1.4-1.735-.694-.95-1.494-1.823-2.32-2.673.063-.201.106-.412.126-.63.056-.056.107-.118.151-.183.046.046.093.091.141.135.519.475 1.105.94 1.593 1.444.53.546.952 1.295 1.401 1.91.127.173.273.335.38.521.063.108.023.28.125.353.059.041.062-.135.116-.183.153-.136.33-.242.496-.363.946-.692 1.894-1.383 2.841-2.074 1.608-1.174 3.397-2.254 4.879-3.583.486-.435.917-.954 1.421-1.37.328-.27.72-.46 1.031-.75 1.042-.97 1.966-1.974 3.127-2.819.135-.122.255-.265.402-.371-.151-.037-.285-.194-.389-.275-.41-.32-.8-.651-1.223-.954-.713-.509-1.18-1.196-1.783-1.805-.46-.464-1.101-.775-1.59-1.212-.64-.57-1.226-1.296-1.726-1.987-.908-.75-1.763-1.492-2.712-2.17-.207-.149-.362-.624-.582-.496-.094.054-.111.19-.19.264-.59.557-1.156 1.129-1.73 1.702-.801.799-1.795 1.376-2.605 2.17a55.888 55.888 0 0 1-2.344 2.136 3.967 3.967 0 0 0-.172-1.018 46.554 46.554 0 0 0 1.902-1.75c.159-.154.33-.292.507-.424a.81.81 0 0 0-.018-.01c-.569-.332-.947-.708-1.355-1.207-.23-.282-.561-.465-.844-.694-.722-.585-1.116-1.03-2.043-1.288-.762-.043-1.43.404-2.025.838-.368.269-1.185.605-1.327 1.053-.043.135.028.287-.009.423-.07.26-.35.47-.327.739.005.052.085.218.17.384a9.936 9.936 0 0 0-.623.684c-.165-.366-.402-.572-.426-1.03-.02-.354.263-.661.356-1.004.043-.16-.033-.343.031-.496.23-.547.721-.794 1.172-1.125.975-.716 1.89-1.382 3.143-1.335 1.088.29 1.613.788 2.459 1.47.33.267.7.498.974.823.377.448.736.655 1.171 1.038.052.045.02.203.088.187.08-.02.04-.165.09-.23.105-.135.243-.24.366-.357.24-.23.446-.491.677-.729.044-.044.196-.044.161-.096-.058-.088-.219-.039-.298-.109-.15-.133-.488-.716-.635-.87-.258-.27-.586-.465-.872-.706-.854-1.16-2.151-2.527-3.701-2.642-.946-.07-2.191.412-3.058.748-1.066.414-2.533.892-2.784 2.118-.182.494-.523 1.003-.644 1.513-.2.844-.232 1.676-.196 2.522.032.75-.012 1.583.337 2.295.023.047.048.094.074.14-.114.2-.2.372-.248.502a2.99 2.99 0 0 0-.21.428 5.105 5.105 0 0 1-.4-.671z"/><path fill="#fff" d="M31.101 53.928c-.35-.712-.307-1.548-.34-2.299-.035-.847-.004-1.683.196-2.528.121-.51.464-1.022.645-1.516.252-1.226 1.724-1.71 2.79-2.123.867-.337 2.12-.818 3.066-.748 1.55.114 2.853 1.488 3.707 2.648.286.24.614.437.873.707.147.154.485.739.635.872.08.07.24.02.298.11.035.051-.118.05-.161.096-.231.237-.437.5-.677.729-.123.118-.261.223-.366.357-.05.066-.01.212-.09.231-.067.017-.058-.144-.11-.19-.435-.381-.794-.587-1.17-1.035-.275-.325-.644-.553-.975-.82-.846-.682-1.364-1.174-2.452-1.464-1.254-.047-2.156.615-3.13 1.331-.451.331-.94.573-1.17 1.12-.064.153.012.335-.031.495-.093.342-.376.646-.357 1 .024.458.26.66.424 1.025-.583.692-1.186 1.545-1.529 2.146a2.815 2.815 0 0 1-.076-.144z" data-paper-data="{&quot;noHover&quot;:false,&quot;origItem&quot;:[&quot;Path&quot;,{&quot;applyMatrix&quot;:true,&quot;segments&quot;:[[[322.21982,173.83719],[-0.25618,-2.22228],[0.93105,0.15699]],[[325.0084,174.32942],[-0.9437,-0.0191],[1.53498,0.03106]],[[328.45314,173.93794],[-1.7322,-0.37954],[0.83823,-4.93636]],[[332.15839,159.96416],[-2.04658,4.58629],[0.59372,-1.33051]],[[333.732,156.35956],[-1.10037,1.17718],[0.80757,-0.86394]],[[336.96429,154.89691],[-1.03713,0.56826],[0.48392,-0.26515]],[[338.22871,153.82846],[-0.51449,0.19945],[1.84246,-0.71428]],[[343.63552,154.04264],[-1.83469,-0.31783],[3.96999,0.68774]],[[354.09861,158.50907],[-2.78353,-3.11923],[1.81337,3.28402]],[[356.24274,167.806],[-0.31526,-3.60507],[0.12338,1.41092]],[[356.5158,172.04614],[0.14966,-1.40838],[-0.20613,1.9398]],[[356.72845,177.25365],[-0.08714,-1.92663],[0.01039,0.22968]],[[356.47984,177.89702],[-0.19383,-0.12365],[0.23181,0.14788]],[[357.24186,177.58119],[-0.27344,0.02886],[0.56476,-0.05961]],[[358.94463,177.63686],[-0.56737,-0.02439],[1.10246,0.04739]],[[362.25459,177.58023],[-1.10346,-0.0072],[0.20895,0.00136]],[[362.85902,177.74648],[-0.04525,0.204],[0.0764,-0.34446]],[[362.4326,176.77767],[0.0143,0.35254],[-0.02705,-0.66702]],[[363.05549,173.2454],[-0.02953,0.7063],[0.05203,-1.24436]],[[362.7375,169.52263],[0.08149,1.24277],[0.8136,-4.72906]],[[360.53765,154.53511],[3.30279,3.98588],[-2.01605,-2.43301]],[[351.68093,148.91902],[2.80979,1.30454],[-3.45542,-1.60429]],[[340.17017,147.12339],[3.52319,-2.22711],[-1.60602,0.70446]],[[335.05056,149.06945],[1.50366,-0.8875],[-2.48895,1.46904]],[[328.54097,154.42173],[1.94975,-2.04146],[-1.72832,1.80962]],[[323.80837,160.52912],[0.90309,-2.4832],[-0.72239,1.98632]],[[322.66726,167.10818],[0.34227,-2.09529],[-0.37092,2.2707]]],&quot;closed&quot;:true}]}"/><path fill="#a5a5a5" d="M41.2 52.059c.81-.793 1.81-1.372 2.61-2.17.574-.574 1.142-1.146 1.732-1.703.08-.074.097-.21.19-.264.22-.128.376.347.583.495.95.68 1.809 1.423 2.716 2.173.5.691 1.089 1.419 1.728 1.99.49.436 1.132.75 1.592 1.213.603.61 1.07 1.299 1.784 1.808.423.303.813.636 1.223.955.104.081.238.238.39.275-.148.106-.268.25-.403.372-1.16.845-2.086 1.852-3.127 2.822-.311.29-.704.481-1.032.752-.504.415-.937.937-1.423 1.372-1.482 1.33-3.278 2.413-4.886 3.587-.947.691-1.898 1.381-2.845 2.074-.165.12-.343.227-.496.363-.054.048-.057.224-.116.182-.102-.072-.062-.244-.124-.352-.108-.187-.255-.348-.382-.522-.448-.615-.873-1.364-1.402-1.91-.489-.504-1.077-.971-1.595-1.446a4.82 4.82 0 0 1-.14-.134c.351-.506.352-1.24.4-1.8.163-1.865.707-3.112.506-5.141 0-.23-.026-.455-.075-.671a2.98 2.98 0 0 0 .162-.975 5.23 5.23 0 0 0 .091-1.212 56.246 56.246 0 0 0 2.34-2.133z" data-paper-data="{&quot;noHover&quot;:false,&quot;origItem&quot;:[&quot;Path&quot;,{&quot;applyMatrix&quot;:true,&quot;segments&quot;:[[[317.07081,176.81497],[1.01283,0.08745],[0,0]],[[317.02715,177.06254],[0,0],[-0.92983,5.2729]],[[315.59628,193.35335],[0.16203,-5.34125],[-0.0821,2.36463]],[[315.05647,200.43353],[-0.05663,-2.37634],[0.05577,2.34033]],[[315.26627,207.59284],[0.08258,-2.33697],[-0.08943,2.53063]],[[313.91531,215.36293],[0.44026,-2.49664],[-0.12458,0.70645]],[[313.54158,217.48229],[0.1992,-0.68914],[-0.11516,0.39841]],[[312.98156,218.59327],[-0.06161,-0.41011],[0.03564,0.23725]],[[313.68708,218.45087],[-0.23921,-0.01842],[0.68069,0.0524]],[[315.70471,218.80292],[-0.67245,-0.11789],[3.84691,0.67444]],[[327.24345,220.83767],[-3.84624,-0.67825],[6.53104,1.15169]],[[347.10985,224.28219],[-6.61315,-0.49009],[2.16676,0.16057]],[[353.6808,224.53219],[-2.16154,-0.25063],[1.4066,0.16309]],[[357.86344,225.27491],[-1.41384,-0.07866],[4.73172,0.26326]],[[371.84953,226.27779],[-4.70952,-0.83643],[0.6059,0.04063]],[[373.6692,226.38576],[-0.59618,-0.10962],[-0.26147,-0.44896]],[[373.43075,224.81741],[0.0456,0.43652],[-0.17987,-1.72192]],[[372.89707,219.6789],[0.25121,1.71529],[-0.42301,-2.8884]],[[373.1158,211.2297],[-0.07021,2.85516],[0.05349,-2.17509]],[[372.35391,204.61157],[0.0807,2.18522],[-0.10529,-2.85118]],[[373.14344,195.88115],[-0.50645,2.79726],[-0.29489,-3.91032]],[[372.09369,184.35753],[0.5622,3.84701],[-0.12267,-0.83941]],[[371.93968,181.8172],[0.81531,0.23436],[-0.34733,-0.09984]],[[370.86657,181.97163],[0.36095,0.0178],[-2.69952,-0.13314]],[[362.78405,181.74491],[2.70492,0.05603],[-3.76511,-0.07799]],[[351.56389,180.49901],[3.77487,0.11451],[-4.82486,-0.16752]],[[337.08191,179.41329],[4.79527,0.50205],[-2.90889,-0.30455]],[[328.05674,177.80164],[2.90966,-0.0907],[-0.68068,0.02122]],[[326.04829,178.17588],[0.681,-0.00324],[-1.3662,0.00651]],[[321.90838,177.6665],[1.38881,0.28047],[-0.07392,0.03311]],[[321.66647,177.75551],[0.08753,-0.02603],[-0.7963,0.23685]],[[320.12495,177.29723],[0.2659,0.3466],[-1.02131,-0.20799]]],&quot;closed&quot;:true}]}"/><path d="M42.2 57.888c-.497.079-.815-.024-1.334-.298-.177-.093-.392-.134-.534-.276-1.192-1.184.212-2.75 1.163-3.45.338-.249.693-.568 1.152-.576.577-.01 1.193.53 1.53.942.26.318.382.762.373 1.171-.063.825.33 1.214.83 1.828.524.643 1.047 1.278 1.619 1.878.251.264.766.562.792.986.062 1.027-1.37 1.436-2.123 1.189-.773-.254-1.458-1.259-2.04-1.804-.391-.508-.841-.971-1.3-1.42z"/></g><g aria-label="0,0" style="font-size:4.629px;font-family:&quot;Noto Sans&quot;;-inkscape-font-specification:&quot;Noto Sans&quot;;fill:#1b5341;stroke-width:.116;stroke-miterlimit:10"><path d="M17.795 10.096q0 .532-.111.916-.111.38-.352.584-.24.203-.639.203-.56 0-.828-.449-.264-.453-.264-1.254 0-.537.106-.917.111-.38.352-.578.24-.204.634-.204.556 0 .829.449.273.444.273 1.25zm-1.787 0q0 .68.153 1.018.157.338.532.338.37 0 .528-.333.162-.338.162-1.023 0-.676-.162-1.014-.157-.338-.528-.338-.375 0-.532.338-.153.338-.153 1.014zM18.91 11.267q-.06.245-.175.537-.111.296-.223.546h-.3q.064-.264.13-.578.069-.315.101-.556h.435zM21.683 10.096q0 .532-.11.916-.112.38-.353.584-.24.203-.638.203-.56 0-.829-.449-.264-.453-.264-1.254 0-.537.107-.917.11-.38.351-.578.241-.204.635-.204.555 0 .828.449.273.444.273 1.25zm-1.786 0q0 .68.152 1.018.158.338.533.338.37 0 .527-.333.162-.338.162-1.023 0-.676-.162-1.014-.157-.338-.527-.338-.375 0-.533.338-.152.338-.152 1.014z" style="stroke-width:.115736" transform="scale(1.28148) rotate(13.209 13.665 -20.24)"/></g><g aria-label="0,0" style="font-size:6.412px;font-family:&quot;Noto Sans&quot;;-inkscape-font-specification:&quot;Noto Sans&quot;;fill:#1b5341;stroke-width:.16;stroke-miterlimit:10"><path d="M36.04 41.172q0 .737-.153 1.27-.154.525-.488.807-.333.282-.885.282-.775 0-1.147-.622Q33 42.281 33 41.172q0-.744.148-1.27.154-.526.487-.802.333-.282.878-.282.77 0 1.148.622.378.616.378 1.732zm-2.475 0q0 .942.212 1.41.218.468.737.468.513 0 .731-.461.225-.469.225-1.417 0-.937-.225-1.405-.218-.468-.73-.468-.52 0-.738.468-.212.468-.212 1.405zM37.586 42.794q-.084.34-.244.744-.154.41-.308.756h-.416q.09-.365.18-.801.095-.436.14-.77h.603zM41.427 41.172q0 .737-.154 1.27-.154.525-.488.807-.333.282-.885.282-.775 0-1.147-.622-.366-.628-.366-1.737 0-.744.148-1.27.154-.526.487-.802.333-.282.878-.282.77 0 1.148.622.379.616.379 1.732zm-2.475 0q0 .942.211 1.41.218.468.737.468.513 0 .731-.461.225-.469.225-1.417 0-.937-.225-1.405-.218-.468-.73-.468-.52 0-.738.468-.211.468-.211 1.405z" style="stroke-width:.160301" transform="rotate(-38.382 -4.653 7.6) scale(1.10459)"/></g><g aria-label="0,0" style="font-size:7.973px;font-family:&quot;Noto Sans&quot;;-inkscape-font-specification:&quot;Noto Sans&quot;;fill:#1b5341;stroke-width:.199;stroke-miterlimit:10"><path d="M99.806 44.232q0 .917-.191 1.578-.192.654-.606 1.005-.415.35-1.1.35-.965 0-1.428-.773-.454-.781-.454-2.16 0-.925.183-1.579.191-.654.606-.997.415-.35 1.092-.35.957 0 1.427.773.47.765.47 2.153zm-3.078 0q0 1.172.263 1.754.271.582.917.582.638 0 .91-.574.278-.582.278-1.762 0-1.164-.279-1.746-.27-.582-.909-.582-.646 0-.917.582-.263.582-.263 1.746zM101.727 46.249q-.103.422-.303.925-.191.51-.382.94h-.519q.112-.454.224-.996.12-.542.175-.957h.75zM106.503 44.232q0 .917-.191 1.578-.192.654-.606 1.005-.415.35-1.1.35-.965 0-1.428-.773-.454-.781-.454-2.16 0-.925.183-1.579.192-.654.606-.997.415-.35 1.093-.35.956 0 1.427.773.47.765.47 2.153zm-3.077 0q0 1.172.263 1.754.27.582.917.582.637 0 .909-.574.279-.582.279-1.762 0-1.164-.28-1.746-.27-.582-.908-.582-.646 0-.917.582-.263.582-.263 1.746z" style="stroke-width:.199332" transform="matrix(1.1134 -.07735 .07735 1.1134 -11.473 -4.758)"/></g><g aria-label="0,0" style="font-size:7.38px;font-family:&quot;Sans Serif&quot;;fill:#1b5341;stroke-width:.184;stroke-miterlimit:10"><path d="M120.53-62.773q0 .849-.176 1.461-.178.605-.561.93-.384.325-1.019.325-.893 0-1.32-.716-.421-.723-.421-2 0-.856.17-1.461.176-.605.56-.923.384-.325 1.011-.325.886 0 1.321.716.436.709.436 1.993zm-2.848 0q0 1.085.244 1.624.25.538.848.538.59 0 .842-.531.258-.539.258-1.631 0-1.078-.258-1.616-.251-.539-.842-.539-.597 0-.848.539-.244.538-.244 1.616zM122.31-60.906q-.097.391-.281.856-.177.472-.354.871h-.48q.103-.42.207-.922.11-.502.162-.886h.694zM126.73-62.773q0 .849-.177 1.461-.177.605-.561.93-.384.325-1.019.325-.892 0-1.32-.716-.421-.723-.421-2 0-.856.17-1.461.177-.605.56-.923.384-.325 1.011-.325.886 0 1.322.716.435.709.435 1.993zm-2.849 0q0 1.085.244 1.624.25.538.848.538.59 0 .842-.531.258-.539.258-1.631 0-1.078-.258-1.616-.251-.539-.842-.539-.597 0-.848.539-.244.538-.244 1.616z" style="font-family:&quot;Noto Sans&quot;;-inkscape-font-specification:&quot;Noto Sans&quot;;stroke-width:.184499" transform="scale(1.12688) rotate(32.74 -5.168 -26.892)"/></g><g aria-label="0,0" style="font-size:7.029px;font-family:&quot;Noto Sans&quot;;-inkscape-font-specification:&quot;Noto Sans&quot;;fill:#1b5341;stroke-width:.176;stroke-miterlimit:10"><path d="M115.355 88.953q0 .808-.169 1.391-.168.577-.534.886-.365.31-.97.31-.85 0-1.258-.683-.4-.688-.4-1.904 0-.816.161-1.392.169-.577.534-.879.366-.309.963-.309.844 0 1.258.682.415.675.415 1.898zm-2.713 0q0 1.033.232 1.546.239.513.808.513.563 0 .802-.506.246-.513.246-1.553 0-1.027-.246-1.54-.24-.513-.802-.513-.57 0-.808.513-.232.513-.232 1.54zM117.05 90.731q-.092.372-.268.815-.169.45-.337.83h-.457q.098-.4.197-.879.105-.478.154-.843h.66zM121.26 88.953q0 .808-.17 1.391-.168.577-.533.886-.366.31-.97.31-.85 0-1.259-.683-.4-.688-.4-1.904 0-.816.161-1.392.17-.577.535-.879.365-.309.963-.309.843 0 1.258.682.415.675.415 1.898zm-2.714 0q0 1.033.232 1.546.24.513.809.513.562 0 .8-.506.247-.513.247-1.553 0-1.027-.246-1.54-.24-.513-.801-.513-.57 0-.809.513-.232.513-.232 1.54z" style="stroke-width:.175715" transform="rotate(-19.387 -63.106 116.002) scale(1.30448)"/></g><g aria-label="0,0" style="font-size:6.412px;font-family:&quot;Noto Sans&quot;;-inkscape-font-specification:&quot;Noto Sans&quot;;fill:#1b5341;stroke-width:.16;stroke-miterlimit:10"><path d="M37.315 31.807q0 .737-.153 1.27-.154.525-.488.807-.333.282-.885.282-.775 0-1.147-.622-.366-.628-.366-1.737 0-.744.148-1.27.154-.526.487-.802.333-.282.878-.282.77 0 1.148.622.378.616.378 1.732zm-2.475 0q0 .942.212 1.41.218.468.737.468.513 0 .731-.461.225-.469.225-1.417 0-.937-.225-1.405-.218-.468-.73-.468-.52 0-.738.468-.212.468-.212 1.405zM38.86 33.429q-.083.34-.243.744-.154.41-.308.756h-.416q.09-.365.18-.801.095-.436.14-.77h.603zM42.702 31.807q0 .737-.154 1.27-.154.525-.488.807-.333.282-.885.282-.775 0-1.147-.622-.366-.628-.366-1.737 0-.744.148-1.27.154-.526.487-.802.333-.282.878-.282.77 0 1.148.622.379.616.379 1.732zm-2.475 0q0 .942.211 1.41.218.468.737.468.513 0 .731-.461.225-.469.225-1.417 0-.937-.225-1.405-.218-.468-.73-.468-.52 0-.738.468-.211.468-.211 1.405z" style="stroke-width:.160301" transform="scale(1.13569) rotate(23.27 11.528 -9.265)"/></g><g aria-label="0,0" style="font-size:6.412px;font-family:&quot;Noto Sans&quot;;-inkscape-font-specification:&quot;Noto Sans&quot;;fill:#113a2d;stroke-width:.16;stroke-miterlimit:10"><path d="M40.94 84.196q0 .737-.153 1.27-.154.525-.488.807-.333.282-.885.282-.775 0-1.147-.622-.366-.628-.366-1.737 0-.744.148-1.27.154-.526.487-.802.333-.282.878-.282.77 0 1.148.622.378.616.378 1.732zm-2.475 0q0 .942.212 1.41.218.468.737.468.513 0 .731-.461.225-.469.225-1.417 0-.937-.225-1.405-.218-.468-.73-.468-.52 0-.738.468-.212.468-.212 1.405zM42.486 85.818q-.084.34-.244.744-.154.41-.308.756h-.416q.09-.365.18-.801.095-.436.14-.77h.603zM46.327 84.196q0 .737-.154 1.27-.154.525-.488.807-.333.282-.885.282-.775 0-1.147-.622-.366-.628-.366-1.737 0-.744.148-1.27.154-.526.487-.802.333-.282.878-.282.77 0 1.148.622.379.616.379 1.732zm-2.475 0q0 .942.211 1.41.218.468.737.468.513 0 .731-.461.225-.469.225-1.417 0-.937-.225-1.405-.218-.468-.73-.468-.52 0-.738.468-.211.468-.211 1.405z" style="stroke-width:.160301" transform="scale(1.03372) rotate(-18.153 -7.04 5.81)"/></g><g aria-label="0,0" style="font-size:4.918px;font-family:&quot;Sans Serif&quot;;fill:#113a2d;stroke-width:.123;stroke-miterlimit:10"><path d="M136.252 59.002q0 .566-.118.974-.118.403-.374.62-.255.216-.678.216-.595 0-.88-.477-.281-.482-.281-1.333 0-.57.113-.973.118-.404.374-.615.256-.217.674-.217.59 0 .88.477.29.473.29 1.328zm-1.898 0q0 .723.162 1.082.167.36.566.36.393 0 .56-.355.172-.359.172-1.087 0-.718-.172-1.077-.167-.359-.56-.359-.399 0-.566.36-.162.358-.162 1.076zM137.437 60.247q-.064.26-.187.57-.118.315-.236.58h-.32q.07-.28.138-.614.074-.335.109-.59h.462zM140.383 59.002q0 .566-.118.974-.118.403-.374.62-.255.216-.678.216-.595 0-.88-.477-.28-.482-.28-1.333 0-.57.112-.973.118-.404.374-.615.256-.217.674-.217.59 0 .88.477.29.473.29 1.328zm-1.898 0q0 .723.162 1.082.167.36.566.36.393 0 .56-.355.173-.359.173-1.087 0-.718-.173-1.077-.167-.359-.56-.359-.399 0-.566.36-.162.358-.162 1.076z" style="font-family:&quot;Noto Sans&quot;;-inkscape-font-specification:&quot;Noto Sans&quot;;stroke-width:.122942" transform="rotate(6.543 208.932 -432.902) scale(1.3688)"/></g><g aria-label="0,0" style="font-size:4.918px;font-family:&quot;Sans Serif&quot;;fill:#113a2d;stroke-width:.123;stroke-miterlimit:10"><path d="M-19.079 69.296q0 .566-.118.974-.118.403-.374.62-.255.216-.678.216-.595 0-.88-.477-.281-.482-.281-1.333 0-.57.113-.973.118-.404.374-.615.256-.217.674-.217.59 0 .88.477.29.473.29 1.328zm-1.898 0q0 .723.162 1.082.167.36.566.36.393 0 .56-.355.172-.359.172-1.087 0-.718-.172-1.077-.167-.359-.56-.359-.399 0-.566.36-.162.358-.162 1.076zM-17.894 70.54q-.064.261-.187.571-.118.315-.236.58h-.32q.07-.28.138-.614.074-.335.109-.59h.462zM-14.948 69.296q0 .566-.118.974-.118.403-.374.62-.255.216-.678.216-.595 0-.88-.477-.28-.482-.28-1.333 0-.57.112-.973.118-.404.374-.615.256-.217.674-.217.59 0 .88.477.29.473.29 1.328zm-1.898 0q0 .723.162 1.082.167.36.566.36.393 0 .56-.355.173-.359.173-1.087 0-.718-.173-1.077-.167-.359-.56-.359-.399 0-.566.36-.162.358-.162 1.076z" style="font-family:&quot;Noto Sans&quot;;-inkscape-font-specification:&quot;Noto Sans&quot;;stroke-width:.122942" transform="rotate(-30.363 -18.239 .153) scale(1.13334)"/></g></svg>