<svg xmlns="http://www.w3.org/2000/svg" width="600" height="300" viewBox="0 0 158.75 79.375"><path d="M0 0h158.75v79.375H0z" style="fill:#5f3100;fill-opacity:1;stroke:none;stroke-width:.964999;stroke-linejoin:round;stroke-miterlimit:4;stroke-dasharray:none;stroke-opacity:1"/><path d="M72.458 14.863s24.801 20.505 1.757 50.189l44.771 14.24 44.525-3.319-.586-72.45-89.26 5.8Z" style="fill:#000;stroke:none;stroke-width:.264583px;stroke-linecap:butt;stroke-linejoin:miter;stroke-opacity:1;fill-opacity:1"/><path d="m24.082 50.232 5.342-25.26h6.191q3.786 0 5.98 1.627 2.228 1.627 2.228 5.307 0 3.007-1.592 4.917-1.557 1.875-3.962 2.69l4.493 10.72H37.03l-3.573-9.695h-2.052l-2.052 9.694zm9.587-14.045q2.265 0 3.503-.991 1.273-.99 1.273-3.007 0-2.83-3.396-2.83h-1.274l-1.45 6.828zM52.88 28.51q-1.097 0-1.875-.46-.743-.496-.743-1.663 0-1.486.814-2.265.849-.778 2.335-.778 1.026 0 1.804.46.779.46.779 1.627 0 1.38-.779 2.23-.743.848-2.335.848zm-7.536 21.722 4.104-19.317h5.201l-4.104 19.317zM53.482 50.232l8.278-9.906-3.891-9.41h5.554l1.981 5.766 4.21-5.767h6.121l-8.066 9.694 4.21 9.623h-5.626l-2.158-5.908-4.564 5.908zM72.268 50.232l8.278-9.906-3.891-9.41h5.554l1.982 5.766 4.21-5.767h6.12l-8.066 9.694 4.21 9.623H85.04l-2.158-5.908-4.564 5.908z" style="font-style:italic;font-weight:700;font-size:35.3791px;line-height:1.25;font-family:&quot;Noto Sans&quot;;-inkscape-font-specification:&quot;Noto Sans Bold Italic&quot;;fill:#000;stroke-width:.884479"/><path d="m334.113 116.844-15.912 21.797-2.103-6.123c1.975 12.417 2.116 26.126-.67 40.955l5.982 16.38h21.26l-15.912-36.37 30.488-36.64h-23.133z" style="font-style:italic;font-weight:700;font-size:35.3791px;line-height:1.25;font-family:&quot;Noto Sans&quot;;-inkscape-font-specification:&quot;Noto Sans Bold Italic&quot;;fill:#fff;stroke-width:3.34291" transform="scale(.26458)"/><path d="M92.894 58.723q-.92 0-1.522-.106-.601-.07-1.026-.212v-4.14q.46.071.956.142.46.07 1.061.07 1.663 0 2.724-.955 1.062-.955 1.84-2.44l.46-.85-2.83-19.317h5.094l.955 8.951q.142 1.203.177 2.618.036 1.415.036 2.441h.141q.354-.884.779-2.052.424-1.203 1.096-2.653l4.493-9.305h5.661l-11.746 22.077q-1.556 2.936-3.68 4.316-2.087 1.415-4.67 1.415zM109.133 50.232l9.941-13.196-4.104-12.065h5.52l2.653 8.951 6.262-8.95h5.944l-9.411 12.524 4.634 12.736h-5.731l-2.972-9.375-6.828 9.375z" style="font-style:italic;font-weight:700;font-size:35.3791px;line-height:1.25;font-family:&quot;Noto Sans&quot;;-inkscape-font-specification:&quot;Noto Sans Bold Italic&quot;;fill:#fff;stroke-width:.884479"/><path d="M52.013 81.413s-11.927-8.84-12.755-24.859l23.198 10.08s-1.38-7.318.415-12.841c0 0 5.8 10.218 31.345 14.775l-1.212-7.753s7.636 6.362 28.901 12.162c0 0-5.385-9.528-4.833-14.5 0 0 15.727 5.629 42.93 4.248l.163 18.203z" style="fill:#773c00;fill-opacity:1;stroke:#010000;stroke-width:.965;stroke-linecap:butt;stroke-linejoin:miter;stroke-miterlimit:4;stroke-dasharray:none;stroke-opacity:1"/><path d="M48.256-1.874S40.662 8.55 39.143 19.46c0 0 10.08-8.38 26.167-10.865 0 0-.966 5.316-.483 12.22 0 0 12.665-10.494 34.146-9.517l-2.148 7.713s14.382-7.836 30.689-9.496l-1.074 6.249s9.301-7.74 32.052-7.74l1.269-.097-.195-9.862z" style="fill:#773c00;stroke:#000;stroke-width:.965;stroke-linecap:butt;stroke-linejoin:miter;stroke-opacity:1;stroke-miterlimit:4;stroke-dasharray:none;fill-opacity:1"/></svg>