<svg id="eHBzT8Gint71" xmlns="http://www.w3.org/2000/svg" xmlns:xlink="http://www.w3.org/1999/xlink" viewBox="0 0 40 40" shape-rendering="geometricPrecision" text-rendering="geometricPrecision" style="background-color:#f0db4f"><g transform="translate(-174.166015-276.380478)"><path d="M280.565481,497.737624q1.001658,2.159438,2.831033,2.062557c1.829375-.096881,2.290437-.830409,2.320183-1.8961q.029746-1.065691,0-14.467196h4.32865v14.467196q-.29038,2.093216-.658848,2.713665c-.368467.620449-1.699289,2.057278-2.684546,2.334847s-3.829685.734742-4.983079.34288-2.256918-.679316-2.95279-1.392717-.931761-.867057-1.285594-1.437778q-.353833-.570721-.435143-.707919l3.520134-2.019435Z" transform="translate(-96.612273-197.061692)" fill="#323330" stroke-width="2.104"/><path d="M625.93443,493.656697l3.016607-1.908479q1.32241,2.492066,3.737924,2.440224t2.51175-1.835193q.187312-1.65036-3.113026-3.022753c-3.300338-1.372394-4.835221-2.950241-5.040298-6.09874s2.182936-5.653441,5.53365-5.555431q3.350714.09801,4.44235,2.009198l.795828,1.197111-2.88891,2.009652q-.988457-1.80573-2.358851-1.759228c-1.370394.046502-1.866757.976548-1.866757,1.929844s.90099,1.579348,3.121309,2.712471s5.433939,2.612477,5.083362,6.515454-2.775399,5.413807-5.959804,5.382331-5.382712-.919429-7.015135-4.01646Z" transform="translate(-431.036822-191.298452)" fill="#323330" stroke-width="2.104"/></g></svg>
