<svg xmlns="http://www.w3.org/2000/svg" width="600" height="300" viewBox="0 0 158.75 79.375"><rect width="158.75" height="79.375" ry="0" style="fill:#fffdff;fill-opacity:1;stroke:none;stroke-width:.475848;stroke-miterlimit:4;stroke-dasharray:none;stroke-opacity:1"/><rect width="142.963" height="26.792" x="7.893" y="26.292" ry="5.46" style="fill:#dbebff;fill-opacity:1;stroke:none;stroke-width:1.20162;stroke-miterlimit:4;stroke-dasharray:none;stroke-opacity:1"/><rect width="9.046" height="9.238" x="17.596" y="7.193" ry="2.023" style="fill:none;fill-opacity:1;stroke:#141414;stroke-width:.661;stroke-miterlimit:4;stroke-dasharray:none;stroke-opacity:1"/><g aria-label="60 FPS (Custom FPS)" style="font-size:8.73899px;line-height:1.25;fill:#141414;stroke-width:.218475"><path d="M35.58 12.41q0 .952-.516 1.503-.517.55-1.426.55-1.015 0-1.553-.755-.537-.755-.537-2.197 0-1.562.559-2.399.559-.836 1.591-.836 1.361 0 1.716 1.225l-.734.132q-.227-.734-.99-.734-.657 0-1.02.615-.359.61-.359 1.77.21-.388.59-.588.379-.205.87-.205.832 0 1.318.52.491.52.491 1.4zm-.78.035q0-.653-.32-1.007-.321-.354-.893-.354-.537 0-.87.316-.329.311-.329.862 0 .695.342 1.139.345.444.883.444.555 0 .87-.372.316-.375.316-1.028zM40.483 11.37q0 1.506-.534 2.3-.529.793-1.566.793-1.036 0-1.557-.789-.52-.79-.52-2.304 0-1.55.503-2.322.508-.772 1.6-.772 1.063 0 1.566.781.508.78.508 2.313zm-.781 0q0-1.302-.303-1.886-.299-.585-.99-.585-.708 0-1.02.576-.307.576-.307 1.895 0 1.28.311 1.873.316.593.999.593.678 0 .994-.606.316-.606.316-1.86zM44.784 9.031v2.236h3.354v.675h-3.354v2.436h-.815V8.366h4.271v.665zM53.958 10.175q0 .853-.559 1.357-.554.503-1.51.503h-1.767v2.343h-.815V8.366h2.53q1.012 0 1.567.473.554.474.554 1.336zm-.819.008q0-1.164-1.4-1.164h-1.617v2.372h1.652q1.365 0 1.365-1.208zM59.847 12.718q0 .832-.653 1.289-.649.456-1.83.456-2.198 0-2.548-1.527l.79-.158q.136.542.58.798.443.252 1.207.252.79 0 1.216-.27.431-.272.431-.797 0-.295-.136-.478-.132-.184-.376-.303-.243-.12-.58-.2-.337-.082-.747-.176-.712-.157-1.084-.315-.367-.158-.58-.35-.213-.197-.328-.457-.111-.26-.111-.597 0-.773.588-1.19.594-.419 1.694-.419 1.025 0 1.567.316.541.311.76 1.067l-.803.14q-.132-.477-.504-.69-.37-.218-1.028-.218-.721 0-1.1.239-.38.238-.38.712 0 .277.144.461.15.18.427.307.277.124 1.105.307.278.064.55.133.278.064.53.158.252.09.47.213.221.124.383.303.162.18.252.422.094.244.094.572zM63.218 12.108q0-1.233.384-2.215.388-.981 1.19-1.847h.743q-.798.887-1.174 1.886-.37.998-.37 2.184 0 1.182.366 2.177.371.994 1.178 1.894h-.743q-.806-.87-1.19-1.852-.384-.985-.384-2.21zM68.966 8.942q-.999 0-1.554.644-.554.64-.554 1.758 0 1.105.576 1.78.58.67 1.566.67 1.263 0 1.899-1.25l.665.332q-.37.777-1.045 1.182-.67.405-1.558.405-.909 0-1.574-.375-.662-.38-1.011-1.08-.346-.704-.346-1.664 0-1.438.776-2.253.777-.815 2.151-.815.96 0 1.605.376.644.375.947 1.113l-.773.256q-.209-.524-.674-.802-.46-.277-1.096-.277ZM73.237 9.761v2.927q0 .457.09.709.09.251.285.362.197.111.577.111.554 0 .874-.38.32-.38.32-1.053V9.76h.768v3.631q0 .807.026.986h-.725q-.005-.021-.009-.115-.004-.094-.013-.214l-.012-.46h-.013q-.265.478-.615.678-.345.196-.862.196-.76 0-1.113-.375-.35-.38-.35-1.25V9.76ZM80.811 13.102q0 .653-.495 1.007-.49.354-1.378.354-.862 0-1.332-.281-.465-.286-.605-.888l.678-.132q.098.371.405.546.308.17.854.17.584 0 .853-.178.273-.18.273-.538 0-.273-.187-.444-.188-.17-.606-.281l-.55-.146q-.662-.17-.944-.332-.277-.167-.435-.401-.158-.235-.158-.577 0-.631.448-.96.452-.332 1.314-.332.764 0 1.212.268.453.27.572.862l-.691.086q-.064-.308-.346-.47-.277-.166-.747-.166-.52 0-.768.158-.247.158-.247.478 0 .196.102.324.103.128.303.218t.845.247q.61.154.88.286.268.128.421.286.158.158.244.367.085.205.085.47zM83.49 14.344q-.379.102-.776.102-.922 0-.922-1.045v-3.08h-.533v-.56h.563l.227-1.033h.512v1.033h.853v.56h-.853v2.913q0 .333.106.47.111.132.38.132.154 0 .444-.06zM88.048 12.065q0 1.212-.533 1.805-.534.593-1.55.593-1.01 0-1.527-.614-.516-.619-.516-1.784 0-2.39 2.07-2.39 1.058 0 1.557.585.499.58.499 1.805zm-.806 0q0-.956-.286-1.387-.282-.435-.952-.435-.674 0-.977.444-.299.44-.299 1.378 0 .913.295 1.374.298.457.934.457.691 0 .986-.444.299-.444.299-1.387zM91.692 14.378v-2.927q0-.67-.183-.926-.184-.256-.662-.256-.49 0-.776.375-.286.376-.286 1.059v2.675h-.764v-3.631q0-.807-.026-.986h.726q.004.021.008.115.005.094.009.218.008.12.017.456h.013q.247-.49.567-.682.32-.192.781-.192.525 0 .828.209.307.209.427.665h.012q.24-.465.576-.67.342-.204.824-.204.7 0 1.016.38.32.38.32 1.245v3.077h-.76v-2.927q0-.67-.183-.926-.184-.256-.662-.256-.503 0-.785.375-.277.372-.277 1.059v2.675zM99.655 9.031v2.236h3.353v.675h-3.353v2.436h-.816V8.366h4.272v.665zM108.829 10.175q0 .853-.56 1.357-.554.503-1.51.503h-1.766v2.343h-.815V8.366h2.53q1.011 0 1.566.473.555.474.555 1.336zm-.82.008q0-1.164-1.4-1.164h-1.616v2.372h1.651q1.365 0 1.365-1.208zM114.717 12.718q0 .832-.653 1.289-.648.456-1.83.456-2.198 0-2.548-1.527l.79-.158q.136.542.58.798.444.252 1.208.252.79 0 1.216-.27.43-.272.43-.797 0-.295-.136-.478-.132-.184-.375-.303-.243-.12-.58-.2-.338-.082-.747-.176-.713-.157-1.084-.315-.367-.158-.58-.35-.214-.197-.329-.457-.11-.26-.11-.597 0-.773.588-1.19.593-.419 1.694-.419 1.024 0 1.566.316.542.311.76 1.067l-.803.14q-.132-.477-.503-.69-.371-.218-1.029-.218-.72 0-1.1.239-.38.238-.38.712 0 .277.145.461.15.18.427.307.277.124 1.105.307.277.064.55.133.278.064.53.158.251.09.469.213.222.124.384.303.162.18.251.422.094.244.094.572zM117.487 12.125q0 1.233-.389 2.215-.384.981-1.186 1.847h-.742q.802-.896 1.173-1.886.371-.994.371-2.185 0-1.19-.375-2.184-.371-.994-1.17-1.886h.743q.807.87 1.19 1.856.385.981.385 2.206z" style="font-family:Arial;-inkscape-font-specification:Arial"/></g><rect width="9.046" height="9.238" x="17.596" y="62.944" ry="2.023" style="fill:none;fill-opacity:1;stroke:#141414;stroke-width:.661;stroke-linecap:butt;stroke-linejoin:miter;stroke-miterlimit:4;stroke-dasharray:none;stroke-opacity:1;paint-order:normal"/><g aria-label="High Quality Pen" style="font-size:8.73899px;line-height:1.25;fill:#141414;stroke-width:.218475"><path d="M35.614 70.127V67.34h-3.251v2.787h-.815v-6.012h.815v2.543h3.251v-2.543h.815v6.012zM37.726 64.528v-.734h.768v.734zm0 5.599V65.51h.768v4.617zM41.422 71.94q-.756 0-1.204-.298-.448-.295-.576-.841l.773-.11q.076.32.337.49.264.175.69.175 1.149 0 1.149-1.344v-.743h-.009q-.217.444-.597.67-.38.222-.888.222-.849 0-1.25-.563-.397-.564-.397-1.771 0-1.225.427-1.805.43-.585 1.306-.585.49 0 .849.226.363.222.559.636h.008q0-.128.017-.444.017-.315.035-.345h.73q-.026.23-.026.956v3.529q0 1.945-1.933 1.945zm1.169-4.122q0-.563-.154-.968-.153-.41-.435-.623-.277-.218-.632-.218-.588 0-.857.427-.27.427-.27 1.382 0 .948.253 1.362.251.413.862.413.362 0 .644-.213.282-.213.435-.61.154-.401.154-.952zM45.296 66.3q.248-.453.593-.662.35-.213.884-.213.75 0 1.105.375.358.371.358 1.25v3.077h-.772V67.2q0-.487-.09-.722-.09-.238-.294-.35-.205-.11-.568-.11-.542 0-.87.375-.325.376-.325 1.011v2.723h-.768v-6.333h.768v1.648q0 .26-.017.537-.012.278-.017.32zM57.61 67.093q0 1.272-.64 2.09-.64.82-1.779.97.175.537.457.776.286.239.721.239.235 0 .49-.055v.571q-.396.094-.759.094-.644 0-1.062-.367-.414-.362-.679-1.216-.844-.043-1.459-.427-.61-.388-.934-1.075-.32-.691-.32-1.6 0-1.442.789-2.253.79-.815 2.197-.815.918 0 1.592.367.674.363 1.028 1.058.359.696.359 1.643zm-.831 0q0-1.122-.563-1.762-.56-.64-1.584-.64-1.032 0-1.595.631-.564.632-.564 1.77 0 1.132.568 1.797.572.662 1.583.662 1.041 0 1.596-.64.559-.645.559-1.818zM59.369 65.51v2.927q0 .457.09.708.09.252.285.363.197.111.577.111.554 0 .874-.38.32-.38.32-1.054V65.51h.768v3.631q0 .807.026.986h-.725q-.005-.021-.009-.115-.004-.094-.013-.214l-.013-.46h-.012q-.265.477-.615.678-.345.196-.862.196-.76 0-1.113-.375-.35-.38-.35-1.25V65.51zM64.656 70.212q-.696 0-1.046-.367-.35-.367-.35-1.007 0-.717.47-1.1.474-.385 1.523-.41l1.037-.017v-.252q0-.563-.239-.807-.239-.243-.75-.243-.517 0-.752.175-.234.175-.281.559l-.803-.073q.197-1.245 1.852-1.245.87 0 1.31.4.44.397.44 1.153v1.988q0 .342.09.517.089.17.34.17.112 0 .253-.03v.478q-.29.068-.594.068-.426 0-.623-.221-.192-.227-.217-.704h-.026q-.294.529-.687.75-.388.218-.947.218zm.175-.576q.422 0 .75-.192.33-.192.517-.525.192-.337.192-.691v-.38l-.84.017q-.542.009-.824.111-.277.103-.427.316-.149.213-.149.559 0 .375.2.58.205.205.58.205zM68.338 70.127v-6.333h.768v6.333zM70.276 64.528v-.734h.768v.734zm0 5.599V65.51h.768v4.617zM73.997 70.093q-.38.102-.777.102-.922 0-.922-1.045v-3.081h-.533v-.56h.563l.226-1.032h.512v1.033h.854v.559h-.854v2.914q0 .333.107.47.11.132.38.132.153 0 .444-.06zM74.876 71.94q-.316 0-.53-.047v-.576q.163.026.359.026.717 0 1.135-1.054l.072-.184-1.83-4.595h.82l.972 2.552.051.145q.03.08.192.554.162.474.175.53l.299-.841 1.011-2.94h.811l-1.775 4.617q-.286.738-.534 1.096-.247.363-.55.538-.299.18-.678.18zM86.226 65.924q0 .853-.559 1.357-.555.503-1.51.503H82.39v2.343h-.815v-6.012h2.53q1.012 0 1.566.473.555.474.555 1.336zm-.82.008q0-1.165-1.399-1.165H82.39v2.373h1.651q1.366 0 1.366-1.208zM87.865 67.98q0 .794.328 1.225.329.431.96.431.5 0 .798-.2.303-.201.41-.508l.674.192q-.414 1.092-1.882 1.092-1.024 0-1.562-.61-.533-.61-.533-1.814 0-1.143.533-1.753.538-.61 1.532-.61 2.036 0 2.036 2.453v.102zm2.5-.588q-.064-.73-.371-1.063-.307-.337-.883-.337-.56 0-.888.376-.324.37-.35 1.024zM95.067 70.127V67.2q0-.457-.09-.709-.089-.251-.285-.362-.196-.111-.576-.111-.555 0-.875.38-.32.38-.32 1.053v2.676h-.768v-3.631q0-.807-.026-.986h.726q.004.021.008.115.005.094.009.218.008.12.017.456h.013q.264-.478.61-.674.35-.2.866-.2.76 0 1.11.38.354.375.354 1.245v3.077z" style="font-family:Arial;-inkscape-font-specification:Arial"/></g><g aria-label="Interpolation" style="font-size:8.73899px;line-height:1.25;fill:#141414;stroke-width:.218475"><path d="M31.548 41.952V35.94h.815v6.012zM36.69 41.952v-2.927q0-.456-.09-.708-.09-.252-.286-.363-.196-.11-.576-.11-.555 0-.875.379-.32.38-.32 1.054v2.675h-.768v-3.63q0-.807-.026-.987h.726q.004.022.008.116.005.094.009.217.008.12.017.457h.013q.264-.478.61-.674.35-.2.866-.2.76 0 1.11.379.354.375.354 1.246v3.076zM40.393 41.918q-.38.103-.776.103-.922 0-.922-1.046v-3.08h-.533v-.56h.563l.226-1.032h.512v1.032h.853v.56h-.853v2.914q0 .333.107.47.11.132.38.132.153 0 .443-.06zM41.635 39.806q0 .794.329 1.225.328.43.96.43.499 0 .798-.2.303-.2.41-.508l.673.192q-.414 1.093-1.881 1.093-1.024 0-1.562-.61-.534-.61-.534-1.814 0-1.143.534-1.754.538-.61 1.532-.61 2.035 0 2.035 2.454v.102zm2.5-.589q-.064-.73-.37-1.062-.308-.337-.884-.337-.559 0-.888.375-.324.371-.35 1.024zM45.923 41.952v-3.541q0-.487-.025-1.076h.725q.034.786.034.943h.017q.184-.593.423-.81.239-.218.674-.218.154 0 .312.043v.704q-.154-.043-.41-.043-.478 0-.73.414-.252.41-.252 1.178v2.406zM52.72 39.623q0 2.415-1.697 2.415-1.067 0-1.434-.802h-.022q.018.034.018.725v1.805h-.769v-5.488q0-.712-.025-.943h.742q.005.018.013.124.009.103.017.32.013.218.013.299h.017q.205-.427.542-.623.337-.2.888-.2.853 0 1.275.571.423.572.423 1.797zm-.806.017q0-.965-.26-1.379-.26-.413-.828-.413-.456 0-.717.192-.256.192-.392.601-.132.406-.132 1.058 0 .91.29 1.34.29.431.943.431.572 0 .832-.418.264-.422.264-1.412zM57.581 39.64q0 1.212-.533 1.805-.534.593-1.55.593-1.01 0-1.527-.615-.516-.618-.516-1.783 0-2.39 2.07-2.39 1.058 0 1.557.585.5.58.5 1.805zm-.806 0q0-.956-.286-1.387-.282-.435-.952-.435-.674 0-.977.443-.299.44-.299 1.379 0 .913.295 1.374.298.456.934.456.691 0 .986-.444.299-.443.299-1.386zM58.537 41.952V35.62h.768v6.332zM61.656 42.038q-.695 0-1.045-.367t-.35-1.007q0-.717.47-1.101.473-.384 1.523-.41l1.036-.017v-.252q0-.563-.239-.806-.239-.243-.75-.243-.517 0-.752.175-.234.175-.281.559l-.802-.073q.196-1.246 1.852-1.246.87 0 1.31.401.439.397.439 1.152v1.989q0 .341.09.516.09.17.341.17.11 0 .252-.03v.479q-.29.068-.593.068-.427 0-.623-.222-.192-.226-.218-.704h-.026q-.294.53-.687.751-.388.218-.947.218zm.175-.576q.423 0 .751-.192.329-.192.516-.525.192-.337.192-.691v-.38l-.84.017q-.542.008-.824.11-.277.103-.426.317-.15.213-.15.559 0 .375.2.58.206.205.581.205zM67.114 41.918q-.38.103-.777.103-.922 0-.922-1.046v-3.08h-.533v-.56h.563l.226-1.032h.512v1.032h.854v.56h-.854v2.914q0 .333.107.47.111.132.38.132.154 0 .444-.06zM67.762 36.354v-.734h.768v.734zm0 5.598v-4.617h.768v4.617zM73.612 39.64q0 1.212-.533 1.805t-1.549.593q-1.011 0-1.527-.615-.517-.618-.517-1.783 0-2.39 2.07-2.39 1.058 0 1.557.585.5.58.5 1.805zm-.806 0q0-.956-.286-1.387-.282-.435-.951-.435-.675 0-.978.443-.298.44-.298 1.379 0 .913.294 1.374.299.456.935.456.69 0 .985-.444.299-.443.299-1.386zM77.5 41.952v-2.927q0-.456-.09-.708-.09-.252-.286-.363-.196-.11-.576-.11-.554 0-.875.379-.32.38-.32 1.054v2.675h-.768v-3.63q0-.807-.025-.987h.725q.004.022.009.116l.008.217q.009.12.017.457h.013q.265-.478.61-.674.35-.2.866-.2.76 0 1.11.379.354.375.354 1.246v3.076z" style="font-family:Arial;-inkscape-font-specification:Arial"/></g><g transform="translate(.41 -.14)"><rect width="9.327" height="9.525" x="17.045" y="35.071" ry="2.086" style="fill:#ff4c4c;fill-opacity:1;stroke:#ff4c4c;stroke-width:.385259;stroke-opacity:1"/><path stroke="#fff" stroke-linecap="round" stroke-linejoin="round" stroke-width=".77" d="m18.63 39.834 2.309 2.309 3.848-4.618" style="fill:none"/></g></svg>