<svg xmlns="http://www.w3.org/2000/svg" width="600" height="300" viewBox="0 0 158.75 79.375"><rect width="158.75" height="79.375" ry="0" style="fill:#fffdff;fill-opacity:1;stroke:none;stroke-width:.475848;stroke-miterlimit:4;stroke-dasharray:none;stroke-opacity:1"/><rect width="142.963" height="26.792" x="7.893" y="26.292" ry="5.46" style="fill:#dbebff;fill-opacity:1;stroke:none;stroke-width:1.20162;stroke-miterlimit:4;stroke-dasharray:none;stroke-opacity:1"/><rect width="9.046" height="9.238" x="17.596" y="7.193" ry="2.023" style="fill:none;fill-opacity:1;stroke:#141414;stroke-width:.661;stroke-miterlimit:4;stroke-dasharray:none;stroke-opacity:1"/><rect width="9.046" height="9.238" x="17.596" y="62.944" ry="2.023" style="fill:none;fill-opacity:1;stroke:#141414;stroke-width:.661;stroke-linecap:butt;stroke-linejoin:miter;stroke-miterlimit:4;stroke-dasharray:none;stroke-opacity:1;paint-order:normal"/><g transform="translate(.41 -.14)"><rect width="9.327" height="9.525" x="17.045" y="35.071" ry="2.086" style="fill:#ff4c4c;fill-opacity:1;stroke:#ff4c4c;stroke-width:.385259;stroke-opacity:1"/><path stroke="#fff" stroke-linecap="round" stroke-linejoin="round" stroke-width=".77" d="m18.63 39.834 2.309 2.309 3.848-4.618" style="fill:none"/></g><g style="font-size:9.19476px;line-height:1.25;stroke-width:.229869"><path d="M36.75 69.954h-.828v-3.062h-3.365v3.062h-.828v-6.565h.828v2.776h3.365V63.39h.828zm2.096-6.777q.184 0 .322.129.147.12.147.386 0 .257-.147.386-.138.129-.322.129-.202 0-.34-.129t-.138-.386q0-.267.138-.386.138-.129.34-.129zm.395 1.848v4.929h-.809v-4.929zm3.311-.092q.487 0 .873.184.395.184.671.561h.046l.11-.653h.644v5.011q0 1.058-.542 1.591-.534.533-1.665.533-1.085 0-1.774-.312v-.745q.726.386 1.82.386.635 0 .993-.377.368-.368.368-1.011v-.193q0-.11.01-.313.009-.211.018-.294h-.037q-.496.745-1.526.745-.957 0-1.499-.672-.533-.67-.533-1.875 0-1.177.533-1.867.542-.699 1.49-.699zm.11.68q-.616 0-.956.497-.34.488-.34 1.398 0 .91.33 1.397.34.479.984.479.745 0 1.085-.396.34-.404.34-1.296v-.193q0-1.012-.349-1.444-.35-.441-1.094-.441zm4.606-.597q0 .368-.046.69h.056q.239-.377.643-.57.414-.194.892-.194.901 0 1.352.433.45.423.45 1.37v3.209h-.8V66.8q0-1.186-1.103-1.186-.827 0-1.14.469-.304.46-.304 1.324v2.547h-.809v-6.988h.81zm13.103 1.646q0 1.204-.487 2.05-.478.846-1.426 1.168l1.573 1.637h-1.186l-1.27-1.48h-.119q-.055.009-.11.009-1.02 0-1.701-.423-.671-.423-1.002-1.186-.331-.764-.331-1.784 0-1.012.33-1.766.332-.754 1.003-1.177.68-.423 1.71-.423.984 0 1.655.423.671.414 1.012 1.177.349.754.349 1.775zm-5.186 0q0 1.241.524 1.958.524.708 1.637.708 1.122 0 1.637-.708.514-.717.514-1.958t-.514-1.94q-.515-.708-1.628-.708-1.112 0-1.646.708-.524.699-.524 1.94zm10.648-1.637v4.929h-.662l-.12-.653h-.037q-.239.386-.662.57-.423.175-.9.175-.893 0-1.343-.423-.45-.433-.45-1.37v-3.228h.818v3.172q0 1.177 1.094 1.177.818 0 1.13-.46.323-.46.323-1.323v-2.566zm3.429-.083q.901 0 1.334.396.432.395.432 1.26v3.356h-.589l-.156-.7h-.037q-.322.405-.68.598-.35.194-.975.194-.671 0-1.113-.35-.44-.358-.44-1.112 0-.736.578-1.131.58-.405 1.784-.442l.837-.027v-.294q0-.617-.267-.856-.266-.239-.754-.239-.386 0-.735.12-.35.11-.653.257l-.248-.607q.321-.174.763-.294.441-.129.92-.129zm.24 2.63q-.92.037-1.279.294-.35.258-.35.727 0 .414.25.607.257.193.652.193.625 0 1.039-.34.414-.35.414-1.067v-.441zm3.861 2.382h-.809v-6.988h.81Zm1.977-6.777q.184 0 .322.129.147.12.147.386 0 .257-.147.386-.138.129-.322.129-.202 0-.34-.129t-.138-.386q0-.267.138-.386.138-.129.34-.129zm.395 1.848v4.929h-.809v-4.929zm3.209 4.359q.184 0 .377-.028.193-.037.313-.074v.616q-.129.065-.368.102-.239.046-.46.046-.386 0-.717-.13-.322-.137-.524-.468t-.202-.929V65.65h-.699v-.386l.708-.322.322-1.048h.478v1.131h1.425v.625h-1.425v2.85q0 .451.211.672.221.212.561.212zm.901-4.359h.865l1.066 2.805q.138.367.249.708.11.33.165.634h.037q.055-.23.175-.598.12-.377.248-.754l1.002-2.795h.874l-2.124 5.609q-.258.699-.672 1.113-.404.413-1.121.413-.221 0-.387-.027-.165-.019-.285-.046v-.644q.101.019.24.037.147.018.303.018.423 0 .68-.239.267-.239.414-.634l.257-.653zm9.701-1.636q1.287 0 1.876.505.588.506.588 1.425 0 .543-.248 1.021-.24.469-.819.763-.57.294-1.553.294h-.754v2.557h-.828v-6.565zm-.074.708h-.836v2.592h.662q.937 0 1.397-.303.46-.303.46-1.03 0-.634-.405-.947-.404-.312-1.278-.312zm5.692.836q.634 0 1.085.276.46.276.699.782.248.496.248 1.167v.488H93.82q.019.836.423 1.278.414.432 1.15.432.469 0 .827-.083.368-.092.754-.257v.708q-.377.165-.745.239-.367.083-.873.083-.699 0-1.241-.285-.534-.285-.837-.846-.294-.57-.294-1.389 0-.809.266-1.388.276-.58.763-.892.497-.313 1.15-.313zm-.01.662q-.579 0-.919.377-.33.368-.395 1.03h2.51q-.01-.625-.294-1.011-.285-.396-.901-.396zm5.665-.662q.882 0 1.333.432.45.423.45 1.38v3.209h-.8V66.8q0-1.186-1.103-1.186-.818 0-1.13.46-.314.46-.314 1.323v2.557h-.809v-4.929h.653l.12.671h.046q.239-.386.662-.57.423-.193.892-.193z" aria-label="High Quality Pen" style="font-family:&quot;Noto Sans&quot;;-inkscape-font-specification:&quot;Noto Sans&quot;"/></g><g style="font-size:9.19476px;line-height:1.25;stroke-width:.229869"><path d="M34.102 42.084h-2.373v-.478l.773-.175v-5.25l-.773-.184v-.478h2.373v.478l-.773.184v5.25l.773.175zm3.53-5.02q.883 0 1.334.432.45.423.45 1.38v3.208h-.8V38.93q0-1.186-1.103-1.186-.819 0-1.131.46-.313.46-.313 1.324v2.556h-.809v-4.928h.653l.12.671h.045q.24-.386.662-.57.423-.193.892-.193zm4.956 4.45q.184 0 .377-.028.193-.036.313-.073v.616q-.129.064-.368.101-.239.046-.46.046-.386 0-.717-.129-.322-.138-.524-.469-.202-.33-.202-.928v-2.87h-.699v-.386l.708-.322.322-1.048h.478v1.13h1.425v.626h-1.425v2.85q0 .45.211.672.221.211.561.211zm3.577-4.45q.635 0 1.085.276.46.275.699.781.248.497.248 1.168v.487h-3.374q.018.837.423 1.278.413.432 1.149.432.469 0 .827-.082.368-.092.754-.258v.708q-.377.166-.744.24-.368.082-.874.082-.699 0-1.241-.285-.533-.285-.837-.846-.294-.57-.294-1.388 0-.81.267-1.389.275-.579.763-.892.496-.312 1.15-.312zm-.01.662q-.578 0-.919.377-.33.368-.395 1.03h2.51q-.009-.626-.294-1.012-.285-.395-.901-.395zm5.591-.662q.138 0 .295.018.165.01.285.037l-.102.745q-.12-.028-.266-.046-.138-.019-.267-.019-.377 0-.708.212-.33.202-.533.58-.193.367-.193.863v2.63h-.81v-4.928h.663l.092.9h.036q.24-.404.616-.698.377-.294.892-.294zm3.844 0q.91 0 1.462.634.56.635.56 1.913 0 1.26-.56 1.912-.552.653-1.472.653-.57 0-.947-.211-.367-.221-.579-.506H54q.018.156.037.395.018.24.018.414v2.023h-.809v-7.135h.662l.11.671h.037q.22-.322.58-.543.358-.22.956-.22zm-.147.68q-.754 0-1.067.423-.303.423-.322 1.287v.157q0 .91.294 1.407.304.487 1.113.487.45 0 .736-.248.294-.249.432-.672.147-.432.147-.983 0-.846-.331-1.352-.322-.506-1.002-.506zm7.742 1.866q0 1.224-.626 1.895-.616.671-1.673.671-.653 0-1.168-.294-.506-.304-.8-.874-.294-.579-.294-1.397 0-1.223.616-1.885.616-.662 1.673-.662.672 0 1.177.303.515.294.8.865.295.56.295 1.379zm-3.724 0q0 .874.34 1.39.35.505 1.103.505.745 0 1.094-.506.35-.515.35-1.388 0-.874-.35-1.37-.349-.497-1.103-.497t-1.094.497q-.34.496-.34 1.37zm5.811 2.474h-.81v-6.988h.81zm3.429-5.011q.901 0 1.334.395.432.396.432 1.26v3.356h-.589l-.156-.699h-.037q-.322.405-.68.598-.35.193-.975.193-.671 0-1.112-.35-.442-.358-.442-1.112 0-.735.58-1.13.579-.405 1.783-.442l.837-.028v-.294q0-.616-.267-.855-.266-.24-.754-.24-.386 0-.735.12-.35.11-.653.258l-.248-.607q.322-.175.763-.294.441-.129.92-.129zm.24 2.63q-.92.036-1.279.294-.349.257-.349.726 0 .414.248.607.258.193.653.193.625 0 1.04-.34.413-.35.413-1.067v-.44Zm4.698 1.811q.184 0 .377-.028.193-.036.313-.073v.616q-.13.064-.368.101-.24.046-.46.046-.386 0-.717-.129-.322-.138-.524-.469-.203-.33-.203-.928v-2.87h-.698v-.386l.708-.322.321-1.048h.479v1.13h1.425v.626h-1.425v2.85q0 .45.211.672.22.211.561.211zm2.087-6.206q.184 0 .322.128.147.12.147.387 0 .257-.147.386-.138.128-.322.128-.202 0-.34-.128-.138-.129-.138-.386 0-.267.138-.387.138-.128.34-.128zm.396 1.848v4.928h-.81v-4.928zm5.848 2.454q0 1.224-.626 1.895-.616.671-1.673.671-.653 0-1.168-.294-.506-.304-.8-.874-.294-.579-.294-1.397 0-1.223.616-1.885.616-.662 1.673-.662.672 0 1.177.303.515.294.8.865.294.56.294 1.379zm-3.724 0q0 .874.34 1.39.35.505 1.103.505.745 0 1.094-.506.35-.515.35-1.388 0-.874-.35-1.37-.35-.497-1.103-.497-.754 0-1.094.497-.34.496-.34 1.37zm7.374-2.546q.882 0 1.333.432.45.423.45 1.38v3.208h-.8V38.93q0-1.186-1.103-1.186-.818 0-1.13.46-.313.46-.313 1.324v2.556h-.81v-4.928h.653l.12.671h.046q.239-.386.662-.57.423-.193.892-.193z" aria-label="Interpolation" style="font-family:&quot;Noto Sans&quot;;-inkscape-font-specification:&quot;Noto Sans&quot;"/></g><g style="font-size:9.19476px;line-height:1.25;stroke-width:.229869"><path d="M31.73 11.614q0-.708.119-1.388.129-.69.45-1.241.331-.561.92-.892.588-.331 1.517-.331.193 0 .423.018.239.018.386.064v.69q-.165-.055-.377-.083-.202-.027-.414-.027-.634 0-1.057.211-.423.212-.671.58-.24.367-.35.845-.11.479-.138 1.021h.056q.211-.322.588-.542.377-.23.966-.23.855 0 1.379.524.524.515.524 1.47 0 1.03-.57 1.62-.561.588-1.517.588-.626 0-1.131-.313-.506-.313-.81-.956-.294-.644-.294-1.628zm2.224 2.216q.58 0 .938-.368.359-.377.359-1.158 0-.625-.322-.993-.313-.368-.947-.368-.432 0-.754.184-.322.175-.506.45-.174.276-.174.57 0 .396.156.791.156.387.469.644.313.248.781.248zm7.338-2.703q0 1.057-.22 1.82-.221.755-.7 1.16-.478.404-1.268.404-1.113 0-1.646-.892-.524-.901-.524-2.492 0-1.067.211-1.82.22-.755.699-1.15.478-.404 1.26-.404 1.103 0 1.645.891.543.883.543 2.483zm-3.55 0q0 1.352.304 2.023.313.671 1.058.671.735 0 1.048-.662.322-.671.322-2.032 0-1.342-.322-2.014-.313-.67-1.048-.67-.745 0-1.058.67-.303.672-.303 2.014zm8.11 3.292h-.827V7.854h3.669v.726h-2.842v2.326h2.667v.727h-2.667zm5.683-6.565q1.287 0 1.876.505.588.506.588 1.426 0 .542-.248 1.02-.24.47-.819.763-.57.295-1.554.295h-.753v2.556h-.828V7.854Zm-.074.708h-.836v2.593h.662q.937 0 1.397-.304.46-.303.46-1.03 0-.634-.405-.947-.404-.312-1.278-.312zm7.623 4.101q0 .873-.635 1.36-.634.488-1.71.488-.552 0-1.02-.083-.47-.083-.782-.23v-.79q.33.146.818.266.497.12 1.02.12.736 0 1.104-.286.377-.285.377-.772 0-.322-.138-.542-.138-.221-.478-.405-.33-.193-.929-.405-.836-.303-1.268-.744-.423-.442-.423-1.205 0-.524.266-.892.267-.377.736-.579.478-.202 1.094-.202.543 0 .993.1.45.102.818.268l-.257.707q-.34-.147-.745-.248-.395-.1-.827-.1-.616 0-.929.266-.313.257-.313.69 0 .33.138.551.138.22.45.395.313.175.847.377.579.212.974.46.405.24.607.58.212.34.212.855zm3.19-.763q0-1.122.322-2.161.331-1.049 1.03-1.885h.763q-.644.864-.975 1.903-.321 1.039-.321 2.133 0 1.067.321 2.097.331 1.02.966 1.884h-.754q-.699-.809-1.03-1.83-.322-1.03-.322-2.142Zm6.096-3.412q-1.057 0-1.664.708t-.607 1.94q0 1.223.561 1.94.57.708 1.701.708.432 0 .819-.073.386-.074.753-.184v.717q-.367.138-.763.202-.386.065-.928.065-1.003 0-1.674-.414t-1.011-1.177q-.331-.763-.331-1.793 0-.993.358-1.747.368-.763 1.076-1.186.708-.432 1.72-.432 1.039 0 1.81.386l-.33.699q-.303-.138-.68-.249-.368-.11-.81-.11Zm7.007 1.002v4.929h-.662l-.12-.653h-.037q-.239.386-.662.57-.423.175-.9.175-.893 0-1.343-.423-.45-.432-.45-1.37V9.49h.818v3.173q0 1.176 1.094 1.176.818 0 1.13-.46.323-.459.323-1.323V9.49Zm4.772 3.568q0 .717-.533 1.085-.534.368-1.435.368-.515 0-.892-.083-.368-.083-.653-.23v-.736q.295.148.708.276.423.12.856.12.616 0 .891-.193.276-.203.276-.534 0-.183-.1-.33-.102-.148-.369-.295-.257-.147-.744-.33-.479-.185-.819-.369-.34-.183-.524-.44-.184-.258-.184-.663 0-.625.506-.965.515-.34 1.342-.34.45 0 .837.091.395.083.736.24l-.276.643q-.313-.129-.653-.22-.34-.093-.699-.093-.496 0-.763.166-.257.156-.257.432 0 .202.12.35.119.137.395.275.285.129.753.313.47.175.8.359.331.183.506.45.175.258.175.653zm2.841.791q.184 0 .377-.028.193-.037.313-.074v.617q-.13.064-.368.1-.24.047-.46.047-.386 0-.717-.13-.322-.137-.524-.468t-.202-.929v-2.868h-.7v-.387l.709-.321.322-1.049h.478V9.49h1.425v.626h-1.425v2.85q0 .45.211.671.22.212.561.212zm5.958-1.904q0 1.223-.625 1.894-.616.672-1.673.672-.653 0-1.168-.295-.506-.303-.8-.873-.294-.58-.294-1.398 0-1.223.616-1.885.616-.662 1.673-.662.671 0 1.177.304.515.294.8.864.294.561.294 1.38zm-3.724 0q0 .874.34 1.389.35.505 1.104.505.745 0 1.094-.505.35-.515.35-1.389 0-.873-.35-1.37-.35-.496-1.103-.496-.754 0-1.094.496-.34.497-.34 1.37zm10.409-2.547q.837 0 1.25.433.414.422.414 1.379v3.209h-.8v-3.172q0-1.168-1.002-1.168-.717 0-1.03.414-.303.413-.303 1.204v2.722h-.8v-3.172q0-1.168-1.012-1.168-.745 0-1.03.46-.285.46-.285 1.324v2.556h-.809V9.49h.653l.12.672h.046q.23-.387.616-.57.395-.194.836-.194 1.159 0 1.508.828h.046q.249-.423.671-.625.433-.203.91-.203zm6.519 5.021h-.828V7.854h3.669v.726h-2.841v2.326h2.666v.727h-2.666zm5.682-6.565q1.287 0 1.876.505.588.506.588 1.426 0 .542-.248 1.02-.239.47-.818.763-.57.295-1.554.295h-.754v2.556h-.828V7.854Zm-.073.708h-.837v2.593h.662q.938 0 1.398-.304.46-.303.46-1.03 0-.634-.405-.947-.405-.312-1.278-.312zm7.622 4.101q0 .873-.634 1.36-.635.488-1.71.488-.552 0-1.021-.083-.47-.083-.782-.23v-.79q.331.146.819.266.496.12 1.02.12.736 0 1.104-.286.377-.285.377-.772 0-.322-.138-.542-.138-.221-.478-.405-.331-.193-.93-.405-.836-.303-1.268-.744-.423-.442-.423-1.205 0-.524.267-.892.266-.377.735-.579.478-.202 1.094-.202.543 0 .993.1.451.102.819.268l-.258.707q-.34-.147-.744-.248-.396-.1-.828-.1-.616 0-.929.266-.312.257-.312.69 0 .33.138.551.138.22.45.395.313.175.846.377.58.212.975.46.404.24.607.58.211.34.211.855zm2.823-.763q0 1.112-.331 2.142-.322 1.02-1.02 1.83h-.755q.635-.865.957-1.885.33-1.03.33-2.097 0-1.094-.33-2.133-.322-1.039-.966-1.903h.763q.7.836 1.02 1.885.332 1.039.332 2.16z" aria-label="60 FPS (Custom FPS)" style="font-family:&quot;Noto Sans&quot;;-inkscape-font-specification:&quot;Noto Sans&quot;"/></g></svg>