<svg xmlns="http://www.w3.org/2000/svg" xmlns:xlink="http://www.w3.org/1999/xlink" version="1.1" width="600" height="300" viewBox="0 0 600 300" xml:space="preserve">
<desc>Created with Fabric.js 3.5.0</desc>
<defs>
</defs>
<rect x="0" y="0" width="100%" height="100%" fill="#2cf100"/>
<g transform="matrix(1 0 0 1 300 150)" style="" id="637677">
		
<path xml:space="preserve" font-family="Anton" font-size="80" font-style="italic" font-weight="normal" style="stroke: none; stroke-width: 0; stroke-dasharray: none; stroke-linecap: butt; stroke-dashoffset: 0; stroke-linejoin: miter; stroke-miterlimit: 4; is-custom-font: none; font-file-url: none; fill: rgb(0,224,12); fill-rule: nonzero; opacity: 1; white-space: pre;" d="M-403.26-96.28L-403.26-96.28Q-412.68-96.28-416.84-100.97Q-421.00-105.66-421.00-115.89L-421.00-115.89L-421.00-122.61L-407.40-122.61L-407.40-114.02Q-407.40-111.64-406.68-110.29Q-405.96-108.94-404.16-108.94L-404.16-108.94Q-402.29-108.94-401.56-110.03Q-400.84-111.13-400.84-113.63L-400.84-113.63Q-400.84-116.79-401.46-118.92Q-402.09-121.05-403.63-122.98Q-405.18-124.92-407.91-127.49L-407.91-127.49L-414.08-133.35Q-421.00-139.88-421.00-148.28L-421.00-148.28Q-421.00-157.07-416.91-161.67Q-412.83-166.28-405.10-166.28L-405.10-166.28Q-395.64-166.28-391.68-161.24Q-387.71-156.21-387.71-145.93L-387.71-145.93L-401.70-145.93L-401.70-150.66Q-401.70-152.07-402.50-152.85Q-403.30-153.63-404.67-153.63L-404.67-153.63Q-406.31-153.63-407.07-152.71Q-407.83-151.79-407.83-150.35L-407.83-150.35Q-407.83-148.90-407.05-147.22Q-406.27-145.54-403.96-143.35L-403.96-143.35L-396.04-135.74Q-393.65-133.47-391.66-130.95Q-389.67-128.43-388.46-125.09Q-387.25-121.75-387.25-116.95L-387.25-116.95Q-387.25-107.26-390.82-101.77Q-394.39-96.28-403.26-96.28ZM-354.28-96.91L-382.68-96.91L-382.68-165.66L-355.18-165.66L-355.18-152.38L-368.69-152.38L-368.69-138.98L-355.72-138.98L-355.72-126.05L-368.69-126.05L-368.69-110.31L-354.28-110.31L-354.28-96.91ZM-333.73-96.28L-333.73-96.28Q-341.19-96.28-345.74-100.93Q-350.29-105.58-350.29-113.94L-350.29-113.94L-350.29-145.66Q-350.29-155.66-346.33-160.97Q-342.36-166.28-333.42-166.28L-333.42-166.28Q-328.54-166.28-324.73-164.49Q-320.92-162.69-318.73-159.12Q-316.54-155.54-316.54-150.11L-316.54-150.11L-316.54-138.24L-330.21-138.24L-330.21-148.39Q-330.21-151.48-331.00-152.55Q-331.78-153.63-333.42-153.63L-333.42-153.63Q-335.33-153.63-336.00-152.24Q-336.66-150.85-336.66-148.55L-336.66-148.55L-336.66-114.14Q-336.66-111.28-335.82-110.11Q-334.98-108.94-333.42-108.94L-333.42-108.94Q-331.66-108.94-330.94-110.39Q-330.21-111.83-330.21-114.14L-330.21-114.14L-330.21-126.52L-316.39-126.52L-316.39-113.51Q-316.39-104.45-320.96-100.37Q-325.53-96.28-333.73-96.28ZM-295.92-96.28L-295.92-96.28Q-304.51-96.28-308.57-101.11Q-312.64-105.93-312.64-115.31L-312.64-115.31L-312.64-165.66L-299.28-165.66L-299.28-115.85Q-299.28-114.14-299.08-112.55Q-298.89-110.97-298.18-109.96Q-297.48-108.94-295.92-108.94L-295.92-108.94Q-294.32-108.94-293.61-109.94Q-292.91-110.93-292.73-112.53Q-292.56-114.14-292.56-115.85L-292.56-115.85L-292.56-165.66L-279.20-165.66L-279.20-115.31Q-279.20-105.93-283.26-101.11Q-287.32-96.28-295.92-96.28ZM-260.02-96.91L-273.93-96.91L-273.93-165.66L-252.83-165.66Q-247.56-165.66-244.86-163.26Q-242.17-160.85-241.25-156.54Q-240.33-152.22-240.33-146.40L-240.33-146.40Q-240.33-140.78-241.76-137.42Q-243.18-134.06-247.13-132.77L-247.13-132.77Q-243.89-132.10-242.58-129.55Q-241.27-126.99-241.27-122.92L-241.27-122.92L-241.27-96.91L-254.82-96.91L-254.82-123.82Q-254.82-126.83-256.05-127.55Q-257.29-128.28-260.02-128.28L-260.02-128.28L-260.02-96.91ZM-259.94-152.92L-259.94-140.19L-256.62-140.19Q-253.77-140.19-253.77-146.40L-253.77-146.40Q-253.77-150.42-254.39-151.67Q-255.02-152.92-256.74-152.92L-256.74-152.92L-259.94-152.92ZM-223.14-96.91L-236.43-96.91L-236.43-165.66L-223.14-165.66L-223.14-96.91ZM-198.03-96.91L-211.78-96.91L-211.78-152.46L-219.94-152.46L-219.94-165.66L-189.86-165.66L-189.86-152.46L-198.03-152.46L-198.03-96.91ZM-164.75-96.91L-177.71-96.91L-177.71-119.53L-188.69-165.66L-175.06-165.66L-171.23-142.38L-167.40-165.66L-153.81-165.66L-164.75-119.53L-164.75-96.91ZM-115.25-96.28L-115.25-96.28Q-124.67-96.28-128.83-100.97Q-132.99-105.66-132.99-115.89L-132.99-115.89L-132.99-122.61L-119.39-122.61L-119.39-114.02Q-119.39-111.64-118.67-110.29Q-117.95-108.94-116.15-108.94L-116.15-108.94Q-114.28-108.94-113.55-110.03Q-112.83-111.13-112.83-113.63L-112.83-113.63Q-112.83-116.79-113.46-118.92Q-114.08-121.05-115.62-122.98Q-117.17-124.92-119.90-127.49L-119.90-127.49L-126.07-133.35Q-132.99-139.88-132.99-148.28L-132.99-148.28Q-132.99-157.07-128.91-161.67Q-124.82-166.28-117.09-166.28L-117.09-166.28Q-107.64-166.28-103.67-161.24Q-99.71-156.21-99.71-145.93L-99.71-145.93L-113.69-145.93L-113.69-150.66Q-113.69-152.07-114.49-152.85Q-115.29-153.63-116.66-153.63L-116.66-153.63Q-118.30-153.63-119.06-152.71Q-119.82-151.79-119.82-150.35L-119.82-150.35Q-119.82-148.90-119.04-147.22Q-118.26-145.54-115.96-143.35L-115.96-143.35L-108.03-135.74Q-105.64-133.47-103.65-130.95Q-101.66-128.43-100.45-125.09Q-99.24-121.75-99.24-116.95L-99.24-116.95Q-99.24-107.26-102.81-101.77Q-106.39-96.28-115.25-96.28ZM-66.27-96.91L-94.67-96.91L-94.67-165.66L-67.17-165.66L-67.17-152.38L-80.68-152.38L-80.68-138.98L-67.71-138.98L-67.71-126.05L-80.68-126.05L-80.68-110.31L-66.27-110.31L-66.27-96.91ZM-45.72-96.28L-45.72-96.28Q-53.18-96.28-57.73-100.93Q-62.29-105.58-62.29-113.94L-62.29-113.94L-62.29-145.66Q-62.29-155.66-58.32-160.97Q-54.36-166.28-45.41-166.28L-45.41-166.28Q-40.53-166.28-36.72-164.49Q-32.91-162.69-30.72-159.12Q-28.54-155.54-28.54-150.11L-28.54-150.11L-28.54-138.24L-42.21-138.24L-42.21-148.39Q-42.21-151.48-42.99-152.55Q-43.77-153.63-45.41-153.63L-45.41-153.63Q-47.32-153.63-47.99-152.24Q-48.65-150.85-48.65-148.55L-48.65-148.55L-48.65-114.14Q-48.65-111.28-47.81-110.11Q-46.97-108.94-45.41-108.94L-45.41-108.94Q-43.65-108.94-42.93-110.39Q-42.21-111.83-42.21-114.14L-42.21-114.14L-42.21-126.52L-28.38-126.52L-28.38-113.51Q-28.38-104.45-32.95-100.37Q-37.52-96.28-45.72-96.28ZM-7.91-96.28L-7.91-96.28Q-16.50-96.28-20.57-101.11Q-24.63-105.93-24.63-115.31L-24.63-115.31L-24.63-165.66L-11.27-165.66L-11.27-115.85Q-11.27-114.14-11.07-112.55Q-10.88-110.97-10.18-109.96Q-9.47-108.94-7.91-108.94L-7.91-108.94Q-6.31-108.94-5.61-109.94Q-4.90-110.93-4.73-112.53Q-4.55-114.14-4.55-115.85L-4.55-115.85L-4.55-165.66L8.81-165.66L8.81-115.31Q8.81-105.93 4.75-101.11Q0.68-96.28-7.91-96.28ZM27.99-96.91L14.08-96.91L14.08-165.66L35.18-165.66Q40.45-165.66 43.14-163.26Q45.84-160.85 46.76-156.54Q47.68-152.22 47.68-146.40L47.68-146.40Q47.68-140.78 46.25-137.42Q44.82-134.06 40.88-132.77L40.88-132.77Q44.12-132.10 45.43-129.55Q46.74-126.99 46.74-122.92L46.74-122.92L46.74-96.91L33.18-96.91L33.18-123.82Q33.18-126.83 31.95-127.55Q30.72-128.28 27.99-128.28L27.99-128.28L27.99-96.91ZM28.07-152.92L28.07-140.19L31.39-140.19Q34.24-140.19 34.24-146.40L34.24-146.40Q34.24-150.42 33.61-151.67Q32.99-152.92 31.27-152.92L31.27-152.92L28.07-152.92ZM64.86-96.91L51.58-96.91L51.58-165.66L64.86-165.66L64.86-96.91ZM89.98-96.91L76.23-96.91L76.23-152.46L68.07-152.46L68.07-165.66L98.14-165.66L98.14-152.46L89.98-152.46L89.98-96.91ZM123.26-96.91L110.29-96.91L110.29-119.53L99.32-165.66L112.95-165.66L116.78-142.38L120.61-165.66L134.20-165.66L123.26-119.53L123.26-96.91ZM172.75-96.28L172.75-96.28Q163.34-96.28 159.18-100.97Q155.02-105.66 155.02-115.89L155.02-115.89L155.02-122.61L168.61-122.61L168.61-114.02Q168.61-111.64 169.34-110.29Q170.06-108.94 171.86-108.94L171.86-108.94Q173.73-108.94 174.45-110.03Q175.18-111.13 175.18-113.63L175.18-113.63Q175.18-116.79 174.55-118.92Q173.93-121.05 172.38-122.98Q170.84-124.92 168.11-127.49L168.11-127.49L161.93-133.35Q155.02-139.88 155.02-148.28L155.02-148.28Q155.02-157.07 159.10-161.67Q163.18-166.28 170.92-166.28L170.92-166.28Q180.37-166.28 184.34-161.24Q188.30-156.21 188.30-145.93L188.30-145.93L174.32-145.93L174.32-150.66Q174.32-152.07 173.52-152.85Q172.71-153.63 171.35-153.63L171.35-153.63Q169.71-153.63 168.95-152.71Q168.18-151.79 168.18-150.35L168.18-150.35Q168.18-148.90 168.96-147.22Q169.75-145.54 172.05-143.35L172.05-143.35L179.98-135.74Q182.36-133.47 184.36-130.95Q186.35-128.43 187.56-125.09Q188.77-121.75 188.77-116.95L188.77-116.95Q188.77-107.26 185.20-101.77Q181.62-96.28 172.75-96.28ZM221.74-96.91L193.34-96.91L193.34-165.66L220.84-165.66L220.84-152.38L207.32-152.38L207.32-138.98L220.29-138.98L220.29-126.05L207.32-126.05L207.32-110.31L221.74-110.31L221.74-96.91ZM242.29-96.28L242.29-96.28Q234.82-96.28 230.27-100.93Q225.72-105.58 225.72-113.94L225.72-113.94L225.72-145.66Q225.72-155.66 229.69-160.97Q233.65-166.28 242.60-166.28L242.60-166.28Q247.48-166.28 251.29-164.49Q255.10-162.69 257.29-159.12Q259.47-155.54 259.47-150.11L259.47-150.11L259.47-138.24L245.80-138.24L245.80-148.39Q245.80-151.48 245.02-152.55Q244.24-153.63 242.60-153.63L242.60-153.63Q240.68-153.63 240.02-152.24Q239.36-150.85 239.36-148.55L239.36-148.55L239.36-114.14Q239.36-111.28 240.20-110.11Q241.04-108.94 242.60-108.94L242.60-108.94Q244.36-108.94 245.08-110.39Q245.80-111.83 245.80-114.14L245.80-114.14L245.80-126.52L259.63-126.52L259.63-113.51Q259.63-104.45 255.06-100.37Q250.49-96.28 242.29-96.28ZM280.10-96.28L280.10-96.28Q271.50-96.28 267.44-101.11Q263.38-105.93 263.38-115.31L263.38-115.31L263.38-165.66L276.74-165.66L276.74-115.85Q276.74-114.14 276.93-112.55Q277.13-110.97 277.83-109.96Q278.54-108.94 280.10-108.94L280.10-108.94Q281.70-108.94 282.40-109.94Q283.11-110.93 283.28-112.53Q283.46-114.14 283.46-115.85L283.46-115.85L283.46-165.66L296.82-165.66L296.82-115.31Q296.82-105.93 292.75-101.11Q288.69-96.28 280.10-96.28ZM316.00-96.91L302.09-96.91L302.09-165.66L323.18-165.66Q328.46-165.66 331.15-163.26Q333.85-160.85 334.77-156.54Q335.68-152.22 335.68-146.40L335.68-146.40Q335.68-140.78 334.26-137.42Q332.83-134.06 328.89-132.77L328.89-132.77Q332.13-132.10 333.44-129.55Q334.75-126.99 334.75-122.92L334.75-122.92L334.75-96.91L321.19-96.91L321.19-123.82Q321.19-126.83 319.96-127.55Q318.73-128.28 316.00-128.28L316.00-128.28L316.00-96.91ZM316.07-152.92L316.07-140.19L319.39-140.19Q322.25-140.19 322.25-146.40L322.25-146.40Q322.25-150.42 321.62-151.67Q321.00-152.92 319.28-152.92L319.28-152.92L316.07-152.92ZM352.87-96.91L339.59-96.91L339.59-165.66L352.87-165.66L352.87-96.91ZM377.99-96.91L364.24-96.91L364.24-152.46L356.07-152.46L356.07-165.66L386.15-165.66L386.15-152.46L377.99-152.46L377.99-96.91ZM411.27-96.91L398.30-96.91L398.30-119.53L387.32-165.66L400.96-165.66L404.79-142.38L408.61-165.66L422.21-165.66L411.27-119.53L411.27-96.91Z"/><path xml:space="preserve" font-family="Anton" font-size="80" font-style="italic" font-weight="normal" style="stroke: none; stroke-width: 0; stroke-dasharray: none; stroke-linecap: butt; stroke-dashoffset: 0; stroke-linejoin: miter; stroke-miterlimit: 4; is-custom-font: none; font-file-url: none; fill: rgb(0,224,12); fill-rule: nonzero; opacity: 1; white-space: pre;" d="M-403.26-14.92L-403.26-14.92Q-412.68-14.92-416.84-19.61Q-421.00-24.30-421.00-34.53L-421.00-34.53L-421.00-41.25L-407.40-41.25L-407.40-32.66Q-407.40-30.28-406.68-28.93Q-405.96-27.58-404.16-27.58L-404.16-27.58Q-402.29-27.58-401.56-28.67Q-400.84-29.77-400.84-32.27L-400.84-32.27Q-400.84-35.43-401.46-37.56Q-402.09-39.69-403.63-41.62Q-405.18-43.56-407.91-46.13L-407.91-46.13L-414.08-51.99Q-421.00-58.52-421.00-66.92L-421.00-66.92Q-421.00-75.71-416.91-80.31Q-412.83-84.92-405.10-84.92L-405.10-84.92Q-395.64-84.92-391.68-79.88Q-387.71-74.85-387.71-64.57L-387.71-64.57L-401.70-64.57L-401.70-69.30Q-401.70-70.71-402.50-71.49Q-403.30-72.27-404.67-72.27L-404.67-72.27Q-406.31-72.27-407.07-71.35Q-407.83-70.43-407.83-68.99L-407.83-68.99Q-407.83-67.54-407.05-65.86Q-406.27-64.18-403.96-61.99L-403.96-61.99L-396.04-54.38Q-393.65-52.11-391.66-49.59Q-389.67-47.07-388.46-43.73Q-387.25-40.39-387.25-35.59L-387.25-35.59Q-387.25-25.90-390.82-20.41Q-394.39-14.92-403.26-14.92ZM-354.28-15.55L-382.68-15.55L-382.68-84.30L-355.18-84.30L-355.18-71.02L-368.69-71.02L-368.69-57.62L-355.72-57.62L-355.72-44.69L-368.69-44.69L-368.69-28.95L-354.28-28.95L-354.28-15.55ZM-333.73-14.92L-333.73-14.92Q-341.19-14.92-345.74-19.57Q-350.29-24.22-350.29-32.58L-350.29-32.58L-350.29-64.30Q-350.29-74.30-346.33-79.61Q-342.36-84.92-333.42-84.92L-333.42-84.92Q-328.54-84.92-324.73-83.13Q-320.92-81.33-318.73-77.76Q-316.54-74.18-316.54-68.75L-316.54-68.75L-316.54-56.88L-330.21-56.88L-330.21-67.03Q-330.21-70.12-331.00-71.19Q-331.78-72.27-333.42-72.27L-333.42-72.27Q-335.33-72.27-336.00-70.88Q-336.66-69.49-336.66-67.19L-336.66-67.19L-336.66-32.78Q-336.66-29.92-335.82-28.75Q-334.98-27.58-333.42-27.58L-333.42-27.58Q-331.66-27.58-330.94-29.03Q-330.21-30.47-330.21-32.78L-330.21-32.78L-330.21-45.16L-316.39-45.16L-316.39-32.15Q-316.39-23.09-320.96-19.01Q-325.53-14.92-333.73-14.92ZM-295.92-14.92L-295.92-14.92Q-304.51-14.92-308.57-19.75Q-312.64-24.57-312.64-33.95L-312.64-33.95L-312.64-84.30L-299.28-84.30L-299.28-34.49Q-299.28-32.78-299.08-31.19Q-298.89-29.61-298.18-28.60Q-297.48-27.58-295.92-27.58L-295.92-27.58Q-294.32-27.58-293.61-28.58Q-292.91-29.57-292.73-31.17Q-292.56-32.78-292.56-34.49L-292.56-34.49L-292.56-84.30L-279.20-84.30L-279.20-33.95Q-279.20-24.57-283.26-19.75Q-287.32-14.92-295.92-14.92ZM-260.02-15.55L-273.93-15.55L-273.93-84.30L-252.83-84.30Q-247.56-84.30-244.86-81.90Q-242.17-79.49-241.25-75.18Q-240.33-70.86-240.33-65.04L-240.33-65.04Q-240.33-59.42-241.76-56.06Q-243.18-52.70-247.13-51.41L-247.13-51.41Q-243.89-50.74-242.58-48.19Q-241.27-45.63-241.27-41.56L-241.27-41.56L-241.27-15.55L-254.82-15.55L-254.82-42.46Q-254.82-45.47-256.05-46.19Q-257.29-46.92-260.02-46.92L-260.02-46.92L-260.02-15.55ZM-259.94-71.56L-259.94-58.83L-256.62-58.83Q-253.77-58.83-253.77-65.04L-253.77-65.04Q-253.77-69.06-254.39-70.31Q-255.02-71.56-256.74-71.56L-256.74-71.56L-259.94-71.56ZM-223.14-15.55L-236.43-15.55L-236.43-84.30L-223.14-84.30L-223.14-15.55ZM-198.03-15.55L-211.78-15.55L-211.78-71.10L-219.94-71.10L-219.94-84.30L-189.86-84.30L-189.86-71.10L-198.03-71.10L-198.03-15.55ZM-164.75-15.55L-177.71-15.55L-177.71-38.17L-188.69-84.30L-175.06-84.30L-171.23-61.02L-167.40-84.30L-153.81-84.30L-164.75-38.17L-164.75-15.55ZM-115.25-14.92L-115.25-14.92Q-124.67-14.92-128.83-19.61Q-132.99-24.30-132.99-34.53L-132.99-34.53L-132.99-41.25L-119.39-41.25L-119.39-32.66Q-119.39-30.28-118.67-28.93Q-117.95-27.58-116.15-27.58L-116.15-27.58Q-114.28-27.58-113.55-28.67Q-112.83-29.77-112.83-32.27L-112.83-32.27Q-112.83-35.43-113.46-37.56Q-114.08-39.69-115.62-41.62Q-117.17-43.56-119.90-46.13L-119.90-46.13L-126.07-51.99Q-132.99-58.52-132.99-66.92L-132.99-66.92Q-132.99-75.71-128.91-80.31Q-124.82-84.92-117.09-84.92L-117.09-84.92Q-107.64-84.92-103.67-79.88Q-99.71-74.85-99.71-64.57L-99.71-64.57L-113.69-64.57L-113.69-69.30Q-113.69-70.71-114.49-71.49Q-115.29-72.27-116.66-72.27L-116.66-72.27Q-118.30-72.27-119.06-71.35Q-119.82-70.43-119.82-68.99L-119.82-68.99Q-119.82-67.54-119.04-65.86Q-118.26-64.18-115.96-61.99L-115.96-61.99L-108.03-54.38Q-105.64-52.11-103.65-49.59Q-101.66-47.07-100.45-43.73Q-99.24-40.39-99.24-35.59L-99.24-35.59Q-99.24-25.90-102.81-20.41Q-106.39-14.92-115.25-14.92ZM-66.27-15.55L-94.67-15.55L-94.67-84.30L-67.17-84.30L-67.17-71.02L-80.68-71.02L-80.68-57.62L-67.71-57.62L-67.71-44.69L-80.68-44.69L-80.68-28.95L-66.27-28.95L-66.27-15.55ZM-45.72-14.92L-45.72-14.92Q-53.18-14.92-57.73-19.57Q-62.29-24.22-62.29-32.58L-62.29-32.58L-62.29-64.30Q-62.29-74.30-58.32-79.61Q-54.36-84.92-45.41-84.92L-45.41-84.92Q-40.53-84.92-36.72-83.13Q-32.91-81.33-30.72-77.76Q-28.54-74.18-28.54-68.75L-28.54-68.75L-28.54-56.88L-42.21-56.88L-42.21-67.03Q-42.21-70.12-42.99-71.19Q-43.77-72.27-45.41-72.27L-45.41-72.27Q-47.32-72.27-47.99-70.88Q-48.65-69.49-48.65-67.19L-48.65-67.19L-48.65-32.78Q-48.65-29.92-47.81-28.75Q-46.97-27.58-45.41-27.58L-45.41-27.58Q-43.65-27.58-42.93-29.03Q-42.21-30.47-42.21-32.78L-42.21-32.78L-42.21-45.16L-28.38-45.16L-28.38-32.15Q-28.38-23.09-32.95-19.01Q-37.52-14.92-45.72-14.92ZM-7.91-14.92L-7.91-14.92Q-16.50-14.92-20.57-19.75Q-24.63-24.57-24.63-33.95L-24.63-33.95L-24.63-84.30L-11.27-84.30L-11.27-34.49Q-11.27-32.78-11.07-31.19Q-10.88-29.61-10.18-28.60Q-9.47-27.58-7.91-27.58L-7.91-27.58Q-6.31-27.58-5.61-28.58Q-4.90-29.57-4.73-31.17Q-4.55-32.78-4.55-34.49L-4.55-34.49L-4.55-84.30L8.81-84.30L8.81-33.95Q8.81-24.57 4.75-19.75Q0.68-14.92-7.91-14.92ZM27.99-15.55L14.08-15.55L14.08-84.30L35.18-84.30Q40.45-84.30 43.14-81.90Q45.84-79.49 46.76-75.18Q47.68-70.86 47.68-65.04L47.68-65.04Q47.68-59.42 46.25-56.06Q44.82-52.70 40.88-51.41L40.88-51.41Q44.12-50.74 45.43-48.19Q46.74-45.63 46.74-41.56L46.74-41.56L46.74-15.55L33.18-15.55L33.18-42.46Q33.18-45.47 31.95-46.19Q30.72-46.92 27.99-46.92L27.99-46.92L27.99-15.55ZM28.07-71.56L28.07-58.83L31.39-58.83Q34.24-58.83 34.24-65.04L34.24-65.04Q34.24-69.06 33.61-70.31Q32.99-71.56 31.27-71.56L31.27-71.56L28.07-71.56ZM64.86-15.55L51.58-15.55L51.58-84.30L64.86-84.30L64.86-15.55ZM89.98-15.55L76.23-15.55L76.23-71.10L68.07-71.10L68.07-84.30L98.14-84.30L98.14-71.10L89.98-71.10L89.98-15.55ZM123.26-15.55L110.29-15.55L110.29-38.17L99.32-84.30L112.95-84.30L116.78-61.02L120.61-84.30L134.20-84.30L123.26-38.17L123.26-15.55ZM172.75-14.92L172.75-14.92Q163.34-14.92 159.18-19.61Q155.02-24.30 155.02-34.53L155.02-34.53L155.02-41.25L168.61-41.25L168.61-32.66Q168.61-30.28 169.34-28.93Q170.06-27.58 171.86-27.58L171.86-27.58Q173.73-27.58 174.45-28.67Q175.18-29.77 175.18-32.27L175.18-32.27Q175.18-35.43 174.55-37.56Q173.93-39.69 172.38-41.62Q170.84-43.56 168.11-46.13L168.11-46.13L161.93-51.99Q155.02-58.52 155.02-66.92L155.02-66.92Q155.02-75.71 159.10-80.31Q163.18-84.92 170.92-84.92L170.92-84.92Q180.37-84.92 184.34-79.88Q188.30-74.85 188.30-64.57L188.30-64.57L174.32-64.57L174.32-69.30Q174.32-70.71 173.52-71.49Q172.71-72.27 171.35-72.27L171.35-72.27Q169.71-72.27 168.95-71.35Q168.18-70.43 168.18-68.99L168.18-68.99Q168.18-67.54 168.96-65.86Q169.75-64.18 172.05-61.99L172.05-61.99L179.98-54.38Q182.36-52.11 184.36-49.59Q186.35-47.07 187.56-43.73Q188.77-40.39 188.77-35.59L188.77-35.59Q188.77-25.90 185.20-20.41Q181.62-14.92 172.75-14.92ZM221.74-15.55L193.34-15.55L193.34-84.30L220.84-84.30L220.84-71.02L207.32-71.02L207.32-57.62L220.29-57.62L220.29-44.69L207.32-44.69L207.32-28.95L221.74-28.95L221.74-15.55ZM242.29-14.92L242.29-14.92Q234.82-14.92 230.27-19.57Q225.72-24.22 225.72-32.58L225.72-32.58L225.72-64.30Q225.72-74.30 229.69-79.61Q233.65-84.92 242.60-84.92L242.60-84.92Q247.48-84.92 251.29-83.13Q255.10-81.33 257.29-77.76Q259.47-74.18 259.47-68.75L259.47-68.75L259.47-56.88L245.80-56.88L245.80-67.03Q245.80-70.12 245.02-71.19Q244.24-72.27 242.60-72.27L242.60-72.27Q240.68-72.27 240.02-70.88Q239.36-69.49 239.36-67.19L239.36-67.19L239.36-32.78Q239.36-29.92 240.20-28.75Q241.04-27.58 242.60-27.58L242.60-27.58Q244.36-27.58 245.08-29.03Q245.80-30.47 245.80-32.78L245.80-32.78L245.80-45.16L259.63-45.16L259.63-32.15Q259.63-23.09 255.06-19.01Q250.49-14.92 242.29-14.92ZM280.10-14.92L280.10-14.92Q271.50-14.92 267.44-19.75Q263.38-24.57 263.38-33.95L263.38-33.95L263.38-84.30L276.74-84.30L276.74-34.49Q276.74-32.78 276.93-31.19Q277.13-29.61 277.83-28.60Q278.54-27.58 280.10-27.58L280.10-27.58Q281.70-27.58 282.40-28.58Q283.11-29.57 283.28-31.17Q283.46-32.78 283.46-34.49L283.46-34.49L283.46-84.30L296.82-84.30L296.82-33.95Q296.82-24.57 292.75-19.75Q288.69-14.92 280.10-14.92ZM316.00-15.55L302.09-15.55L302.09-84.30L323.18-84.30Q328.46-84.30 331.15-81.90Q333.85-79.49 334.77-75.18Q335.68-70.86 335.68-65.04L335.68-65.04Q335.68-59.42 334.26-56.06Q332.83-52.70 328.89-51.41L328.89-51.41Q332.13-50.74 333.44-48.19Q334.75-45.63 334.75-41.56L334.75-41.56L334.75-15.55L321.19-15.55L321.19-42.46Q321.19-45.47 319.96-46.19Q318.73-46.92 316.00-46.92L316.00-46.92L316.00-15.55ZM316.07-71.56L316.07-58.83L319.39-58.83Q322.25-58.83 322.25-65.04L322.25-65.04Q322.25-69.06 321.62-70.31Q321.00-71.56 319.28-71.56L319.28-71.56L316.07-71.56ZM352.87-15.55L339.59-15.55L339.59-84.30L352.87-84.30L352.87-15.55ZM377.99-15.55L364.24-15.55L364.24-71.10L356.07-71.10L356.07-84.30L386.15-84.30L386.15-71.10L377.99-71.10L377.99-15.55ZM411.27-15.55L398.30-15.55L398.30-38.17L387.32-84.30L400.96-84.30L404.79-61.02L408.61-84.30L422.21-84.30L411.27-38.17L411.27-15.55Z"/><path xml:space="preserve" font-family="Anton" font-size="80" font-style="italic" font-weight="normal" style="stroke: none; stroke-width: 0; stroke-dasharray: none; stroke-linecap: butt; stroke-dashoffset: 0; stroke-linejoin: miter; stroke-miterlimit: 4; is-custom-font: none; font-file-url: none; fill: rgb(0,224,12); fill-rule: nonzero; opacity: 1; white-space: pre;" d="M-403.26 66.44L-403.26 66.44Q-412.68 66.44-416.84 61.75Q-421.00 57.06-421.00 46.83L-421.00 46.83L-421.00 40.11L-407.40 40.11L-407.40 48.70Q-407.40 51.08-406.68 52.43Q-405.96 53.78-404.16 53.78L-404.16 53.78Q-402.29 53.78-401.56 52.69Q-400.84 51.59-400.84 49.09L-400.84 49.09Q-400.84 45.93-401.46 43.80Q-402.09 41.67-403.63 39.74Q-405.18 37.80-407.91 35.23L-407.91 35.23L-414.08 29.37Q-421.00 22.84-421.00 14.44L-421.00 14.44Q-421.00 5.65-416.91 1.05Q-412.83-3.56-405.10-3.56L-405.10-3.56Q-395.64-3.56-391.68 1.48Q-387.71 6.51-387.71 16.79L-387.71 16.79L-401.70 16.79L-401.70 12.06Q-401.70 10.65-402.50 9.87Q-403.30 9.09-404.67 9.09L-404.67 9.09Q-406.31 9.09-407.07 10.01Q-407.83 10.93-407.83 12.37L-407.83 12.37Q-407.83 13.82-407.05 15.50Q-406.27 17.18-403.96 19.37L-403.96 19.37L-396.04 26.98Q-393.65 29.25-391.66 31.77Q-389.67 34.29-388.46 37.63Q-387.25 40.97-387.25 45.77L-387.25 45.77Q-387.25 55.46-390.82 60.95Q-394.39 66.44-403.26 66.44ZM-354.28 65.81L-382.68 65.81L-382.68-2.94L-355.18-2.94L-355.18 10.34L-368.69 10.34L-368.69 23.74L-355.72 23.74L-355.72 36.67L-368.69 36.67L-368.69 52.41L-354.28 52.41L-354.28 65.81ZM-333.73 66.44L-333.73 66.44Q-341.19 66.44-345.74 61.79Q-350.29 57.14-350.29 48.78L-350.29 48.78L-350.29 17.06Q-350.29 7.06-346.33 1.75Q-342.36-3.56-333.42-3.56L-333.42-3.56Q-328.54-3.56-324.73-1.77Q-320.92 0.03-318.73 3.60Q-316.54 7.18-316.54 12.61L-316.54 12.61L-316.54 24.48L-330.21 24.48L-330.21 14.33Q-330.21 11.24-331.00 10.17Q-331.78 9.09-333.42 9.09L-333.42 9.09Q-335.33 9.09-336.00 10.48Q-336.66 11.87-336.66 14.17L-336.66 14.17L-336.66 48.58Q-336.66 51.44-335.82 52.61Q-334.98 53.78-333.42 53.78L-333.42 53.78Q-331.66 53.78-330.94 52.33Q-330.21 50.89-330.21 48.58L-330.21 48.58L-330.21 36.20L-316.39 36.20L-316.39 49.21Q-316.39 58.27-320.96 62.35Q-325.53 66.44-333.73 66.44ZM-295.92 66.44L-295.92 66.44Q-304.51 66.44-308.57 61.61Q-312.64 56.79-312.64 47.41L-312.64 47.41L-312.64-2.94L-299.28-2.94L-299.28 46.87Q-299.28 48.58-299.08 50.17Q-298.89 51.75-298.18 52.76Q-297.48 53.78-295.92 53.78L-295.92 53.78Q-294.32 53.78-293.61 52.78Q-292.91 51.79-292.73 50.19Q-292.56 48.58-292.56 46.87L-292.56 46.87L-292.56-2.94L-279.20-2.94L-279.20 47.41Q-279.20 56.79-283.26 61.61Q-287.32 66.44-295.92 66.44ZM-260.02 65.81L-273.93 65.81L-273.93-2.94L-252.83-2.94Q-247.56-2.94-244.86-0.54Q-242.17 1.87-241.25 6.18Q-240.33 10.50-240.33 16.32L-240.33 16.32Q-240.33 21.94-241.76 25.30Q-243.18 28.66-247.13 29.95L-247.13 29.95Q-243.89 30.62-242.58 33.17Q-241.27 35.73-241.27 39.80L-241.27 39.80L-241.27 65.81L-254.82 65.81L-254.82 38.90Q-254.82 35.89-256.05 35.17Q-257.29 34.44-260.02 34.44L-260.02 34.44L-260.02 65.81ZM-259.94 9.80L-259.94 22.53L-256.62 22.53Q-253.77 22.53-253.77 16.32L-253.77 16.32Q-253.77 12.30-254.39 11.05Q-255.02 9.80-256.74 9.80L-256.74 9.80L-259.94 9.80ZM-223.14 65.81L-236.43 65.81L-236.43-2.94L-223.14-2.94L-223.14 65.81ZM-198.03 65.81L-211.78 65.81L-211.78 10.26L-219.94 10.26L-219.94-2.94L-189.86-2.94L-189.86 10.26L-198.03 10.26L-198.03 65.81ZM-164.75 65.81L-177.71 65.81L-177.71 43.19L-188.69-2.94L-175.06-2.94L-171.23 20.34L-167.40-2.94L-153.81-2.94L-164.75 43.19L-164.75 65.81ZM-115.25 66.44L-115.25 66.44Q-124.67 66.44-128.83 61.75Q-132.99 57.06-132.99 46.83L-132.99 46.83L-132.99 40.11L-119.39 40.11L-119.39 48.70Q-119.39 51.08-118.67 52.43Q-117.95 53.78-116.15 53.78L-116.15 53.78Q-114.28 53.78-113.55 52.69Q-112.83 51.59-112.83 49.09L-112.83 49.09Q-112.83 45.93-113.46 43.80Q-114.08 41.67-115.62 39.74Q-117.17 37.80-119.90 35.23L-119.90 35.23L-126.07 29.37Q-132.99 22.84-132.99 14.44L-132.99 14.44Q-132.99 5.65-128.91 1.05Q-124.82-3.56-117.09-3.56L-117.09-3.56Q-107.64-3.56-103.67 1.48Q-99.71 6.51-99.71 16.79L-99.71 16.79L-113.69 16.79L-113.69 12.06Q-113.69 10.65-114.49 9.87Q-115.29 9.09-116.66 9.09L-116.66 9.09Q-118.30 9.09-119.06 10.01Q-119.82 10.93-119.82 12.37L-119.82 12.37Q-119.82 13.82-119.04 15.50Q-118.26 17.18-115.96 19.37L-115.96 19.37L-108.03 26.98Q-105.64 29.25-103.65 31.77Q-101.66 34.29-100.45 37.63Q-99.24 40.97-99.24 45.77L-99.24 45.77Q-99.24 55.46-102.81 60.95Q-106.39 66.44-115.25 66.44ZM-66.27 65.81L-94.67 65.81L-94.67-2.94L-67.17-2.94L-67.17 10.34L-80.68 10.34L-80.68 23.74L-67.71 23.74L-67.71 36.67L-80.68 36.67L-80.68 52.41L-66.27 52.41L-66.27 65.81ZM-45.72 66.44L-45.72 66.44Q-53.18 66.44-57.73 61.79Q-62.29 57.14-62.29 48.78L-62.29 48.78L-62.29 17.06Q-62.29 7.06-58.32 1.75Q-54.36-3.56-45.41-3.56L-45.41-3.56Q-40.53-3.56-36.72-1.77Q-32.91 0.03-30.72 3.60Q-28.54 7.18-28.54 12.61L-28.54 12.61L-28.54 24.48L-42.21 24.48L-42.21 14.33Q-42.21 11.24-42.99 10.17Q-43.77 9.09-45.41 9.09L-45.41 9.09Q-47.32 9.09-47.99 10.48Q-48.65 11.87-48.65 14.17L-48.65 14.17L-48.65 48.58Q-48.65 51.44-47.81 52.61Q-46.97 53.78-45.41 53.78L-45.41 53.78Q-43.65 53.78-42.93 52.33Q-42.21 50.89-42.21 48.58L-42.21 48.58L-42.21 36.20L-28.38 36.20L-28.38 49.21Q-28.38 58.27-32.95 62.35Q-37.52 66.44-45.72 66.44ZM-7.91 66.44L-7.91 66.44Q-16.50 66.44-20.57 61.61Q-24.63 56.79-24.63 47.41L-24.63 47.41L-24.63-2.94L-11.27-2.94L-11.27 46.87Q-11.27 48.58-11.07 50.17Q-10.88 51.75-10.18 52.76Q-9.47 53.78-7.91 53.78L-7.91 53.78Q-6.31 53.78-5.61 52.78Q-4.90 51.79-4.73 50.19Q-4.55 48.58-4.55 46.87L-4.55 46.87L-4.55-2.94L8.81-2.94L8.81 47.41Q8.81 56.79 4.75 61.61Q0.68 66.44-7.91 66.44ZM27.99 65.81L14.08 65.81L14.08-2.94L35.18-2.94Q40.45-2.94 43.14-0.54Q45.84 1.87 46.76 6.18Q47.68 10.50 47.68 16.32L47.68 16.32Q47.68 21.94 46.25 25.30Q44.82 28.66 40.88 29.95L40.88 29.95Q44.12 30.62 45.43 33.17Q46.74 35.73 46.74 39.80L46.74 39.80L46.74 65.81L33.18 65.81L33.18 38.90Q33.18 35.89 31.95 35.17Q30.72 34.44 27.99 34.44L27.99 34.44L27.99 65.81ZM28.07 9.80L28.07 22.53L31.39 22.53Q34.24 22.53 34.24 16.32L34.24 16.32Q34.24 12.30 33.61 11.05Q32.99 9.80 31.27 9.80L31.27 9.80L28.07 9.80ZM64.86 65.81L51.58 65.81L51.58-2.94L64.86-2.94L64.86 65.81ZM89.98 65.81L76.23 65.81L76.23 10.26L68.07 10.26L68.07-2.94L98.14-2.94L98.14 10.26L89.98 10.26L89.98 65.81ZM123.26 65.81L110.29 65.81L110.29 43.19L99.32-2.94L112.95-2.94L116.78 20.34L120.61-2.94L134.20-2.94L123.26 43.19L123.26 65.81ZM172.75 66.44L172.75 66.44Q163.34 66.44 159.18 61.75Q155.02 57.06 155.02 46.83L155.02 46.83L155.02 40.11L168.61 40.11L168.61 48.70Q168.61 51.08 169.34 52.43Q170.06 53.78 171.86 53.78L171.86 53.78Q173.73 53.78 174.45 52.69Q175.18 51.59 175.18 49.09L175.18 49.09Q175.18 45.93 174.55 43.80Q173.93 41.67 172.38 39.74Q170.84 37.80 168.11 35.23L168.11 35.23L161.93 29.37Q155.02 22.84 155.02 14.44L155.02 14.44Q155.02 5.65 159.10 1.05Q163.18-3.56 170.92-3.56L170.92-3.56Q180.37-3.56 184.34 1.48Q188.30 6.51 188.30 16.79L188.30 16.79L174.32 16.79L174.32 12.06Q174.32 10.65 173.52 9.87Q172.71 9.09 171.35 9.09L171.35 9.09Q169.71 9.09 168.95 10.01Q168.18 10.93 168.18 12.37L168.18 12.37Q168.18 13.82 168.96 15.50Q169.75 17.18 172.05 19.37L172.05 19.37L179.98 26.98Q182.36 29.25 184.36 31.77Q186.35 34.29 187.56 37.63Q188.77 40.97 188.77 45.77L188.77 45.77Q188.77 55.46 185.20 60.95Q181.62 66.44 172.75 66.44ZM221.74 65.81L193.34 65.81L193.34-2.94L220.84-2.94L220.84 10.34L207.32 10.34L207.32 23.74L220.29 23.74L220.29 36.67L207.32 36.67L207.32 52.41L221.74 52.41L221.74 65.81ZM242.29 66.44L242.29 66.44Q234.82 66.44 230.27 61.79Q225.72 57.14 225.72 48.78L225.72 48.78L225.72 17.06Q225.72 7.06 229.69 1.75Q233.65-3.56 242.60-3.56L242.60-3.56Q247.48-3.56 251.29-1.77Q255.10 0.03 257.29 3.60Q259.47 7.18 259.47 12.61L259.47 12.61L259.47 24.48L245.80 24.48L245.80 14.33Q245.80 11.24 245.02 10.17Q244.24 9.09 242.60 9.09L242.60 9.09Q240.68 9.09 240.02 10.48Q239.36 11.87 239.36 14.17L239.36 14.17L239.36 48.58Q239.36 51.44 240.20 52.61Q241.04 53.78 242.60 53.78L242.60 53.78Q244.36 53.78 245.08 52.33Q245.80 50.89 245.80 48.58L245.80 48.58L245.80 36.20L259.63 36.20L259.63 49.21Q259.63 58.27 255.06 62.35Q250.49 66.44 242.29 66.44ZM280.10 66.44L280.10 66.44Q271.50 66.44 267.44 61.61Q263.38 56.79 263.38 47.41L263.38 47.41L263.38-2.94L276.74-2.94L276.74 46.87Q276.74 48.58 276.93 50.17Q277.13 51.75 277.83 52.76Q278.54 53.78 280.10 53.78L280.10 53.78Q281.70 53.78 282.40 52.78Q283.11 51.79 283.28 50.19Q283.46 48.58 283.46 46.87L283.46 46.87L283.46-2.94L296.82-2.94L296.82 47.41Q296.82 56.79 292.75 61.61Q288.69 66.44 280.10 66.44ZM316.00 65.81L302.09 65.81L302.09-2.94L323.18-2.94Q328.46-2.94 331.15-0.54Q333.85 1.87 334.77 6.18Q335.68 10.50 335.68 16.32L335.68 16.32Q335.68 21.94 334.26 25.30Q332.83 28.66 328.89 29.95L328.89 29.95Q332.13 30.62 333.44 33.17Q334.75 35.73 334.75 39.80L334.75 39.80L334.75 65.81L321.19 65.81L321.19 38.90Q321.19 35.89 319.96 35.17Q318.73 34.44 316.00 34.44L316.00 34.44L316.00 65.81ZM316.07 9.80L316.07 22.53L319.39 22.53Q322.25 22.53 322.25 16.32L322.25 16.32Q322.25 12.30 321.62 11.05Q321.00 9.80 319.28 9.80L319.28 9.80L316.07 9.80ZM352.87 65.81L339.59 65.81L339.59-2.94L352.87-2.94L352.87 65.81ZM377.99 65.81L364.24 65.81L364.24 10.26L356.07 10.26L356.07-2.94L386.15-2.94L386.15 10.26L377.99 10.26L377.99 65.81ZM411.27 65.81L398.30 65.81L398.30 43.19L387.32-2.94L400.96-2.94L404.79 20.34L408.61-2.94L422.21-2.94L411.27 43.19L411.27 65.81Z"/><path xml:space="preserve" font-family="Anton" font-size="80" font-style="italic" font-weight="normal" style="stroke: none; stroke-width: 0; stroke-dasharray: none; stroke-linecap: butt; stroke-dashoffset: 0; stroke-linejoin: miter; stroke-miterlimit: 4; is-custom-font: none; font-file-url: none; fill: rgb(0,224,12); fill-rule: nonzero; opacity: 1; white-space: pre;" d="M-403.26 147.80L-403.26 147.80Q-412.68 147.80-416.84 143.11Q-421.00 138.42-421.00 128.19L-421.00 128.19L-421.00 121.47L-407.40 121.47L-407.40 130.06Q-407.40 132.44-406.68 133.79Q-405.96 135.14-404.16 135.14L-404.16 135.14Q-402.29 135.14-401.56 134.05Q-400.84 132.95-400.84 130.45L-400.84 130.45Q-400.84 127.29-401.46 125.16Q-402.09 123.03-403.63 121.10Q-405.18 119.16-407.91 116.59L-407.91 116.59L-414.08 110.73Q-421.00 104.20-421.00 95.80L-421.00 95.80Q-421.00 87.01-416.91 82.41Q-412.83 77.80-405.10 77.80L-405.10 77.80Q-395.64 77.80-391.68 82.84Q-387.71 87.87-387.71 98.15L-387.71 98.15L-401.70 98.15L-401.70 93.42Q-401.70 92.01-402.50 91.23Q-403.30 90.45-404.67 90.45L-404.67 90.45Q-406.31 90.45-407.07 91.37Q-407.83 92.29-407.83 93.73L-407.83 93.73Q-407.83 95.18-407.05 96.86Q-406.27 98.54-403.96 100.73L-403.96 100.73L-396.04 108.34Q-393.65 110.61-391.66 113.13Q-389.67 115.65-388.46 118.99Q-387.25 122.33-387.25 127.13L-387.25 127.13Q-387.25 136.82-390.82 142.31Q-394.39 147.80-403.26 147.80ZM-354.28 147.17L-382.68 147.17L-382.68 78.42L-355.18 78.42L-355.18 91.70L-368.69 91.70L-368.69 105.10L-355.72 105.10L-355.72 118.03L-368.69 118.03L-368.69 133.77L-354.28 133.77L-354.28 147.17ZM-333.73 147.80L-333.73 147.80Q-341.19 147.80-345.74 143.15Q-350.29 138.50-350.29 130.14L-350.29 130.14L-350.29 98.42Q-350.29 88.42-346.33 83.11Q-342.36 77.80-333.42 77.80L-333.42 77.80Q-328.54 77.80-324.73 79.59Q-320.92 81.39-318.73 84.96Q-316.54 88.54-316.54 93.97L-316.54 93.97L-316.54 105.84L-330.21 105.84L-330.21 95.69Q-330.21 92.60-331.00 91.53Q-331.78 90.45-333.42 90.45L-333.42 90.45Q-335.33 90.45-336.00 91.84Q-336.66 93.23-336.66 95.53L-336.66 95.53L-336.66 129.94Q-336.66 132.80-335.82 133.97Q-334.98 135.14-333.42 135.14L-333.42 135.14Q-331.66 135.14-330.94 133.69Q-330.21 132.25-330.21 129.94L-330.21 129.94L-330.21 117.56L-316.39 117.56L-316.39 130.57Q-316.39 139.63-320.96 143.71Q-325.53 147.80-333.73 147.80ZM-295.92 147.80L-295.92 147.80Q-304.51 147.80-308.57 142.97Q-312.64 138.15-312.64 128.77L-312.64 128.77L-312.64 78.42L-299.28 78.42L-299.28 128.23Q-299.28 129.94-299.08 131.53Q-298.89 133.11-298.18 134.12Q-297.48 135.14-295.92 135.14L-295.92 135.14Q-294.32 135.14-293.61 134.14Q-292.91 133.15-292.73 131.55Q-292.56 129.94-292.56 128.23L-292.56 128.23L-292.56 78.42L-279.20 78.42L-279.20 128.77Q-279.20 138.15-283.26 142.97Q-287.32 147.80-295.92 147.80ZM-260.02 147.17L-273.93 147.17L-273.93 78.42L-252.83 78.42Q-247.56 78.42-244.86 80.82Q-242.17 83.23-241.25 87.54Q-240.33 91.86-240.33 97.68L-240.33 97.68Q-240.33 103.30-241.76 106.66Q-243.18 110.02-247.13 111.31L-247.13 111.31Q-243.89 111.98-242.58 114.53Q-241.27 117.09-241.27 121.16L-241.27 121.16L-241.27 147.17L-254.82 147.17L-254.82 120.26Q-254.82 117.25-256.05 116.53Q-257.29 115.80-260.02 115.80L-260.02 115.80L-260.02 147.17ZM-259.94 91.16L-259.94 103.89L-256.62 103.89Q-253.77 103.89-253.77 97.68L-253.77 97.68Q-253.77 93.66-254.39 92.41Q-255.02 91.16-256.74 91.16L-256.74 91.16L-259.94 91.16ZM-223.14 147.17L-236.43 147.17L-236.43 78.42L-223.14 78.42L-223.14 147.17ZM-198.03 147.17L-211.78 147.17L-211.78 91.62L-219.94 91.62L-219.94 78.42L-189.86 78.42L-189.86 91.62L-198.03 91.62L-198.03 147.17ZM-164.75 147.17L-177.71 147.17L-177.71 124.55L-188.69 78.42L-175.06 78.42L-171.23 101.70L-167.40 78.42L-153.81 78.42L-164.75 124.55L-164.75 147.17ZM-115.25 147.80L-115.25 147.80Q-124.67 147.80-128.83 143.11Q-132.99 138.42-132.99 128.19L-132.99 128.19L-132.99 121.47L-119.39 121.47L-119.39 130.06Q-119.39 132.44-118.67 133.79Q-117.95 135.14-116.15 135.14L-116.15 135.14Q-114.28 135.14-113.55 134.05Q-112.83 132.95-112.83 130.45L-112.83 130.45Q-112.83 127.29-113.46 125.16Q-114.08 123.03-115.62 121.10Q-117.17 119.16-119.90 116.59L-119.90 116.59L-126.07 110.73Q-132.99 104.20-132.99 95.80L-132.99 95.80Q-132.99 87.01-128.91 82.41Q-124.82 77.80-117.09 77.80L-117.09 77.80Q-107.64 77.80-103.67 82.84Q-99.71 87.87-99.71 98.15L-99.71 98.15L-113.69 98.15L-113.69 93.42Q-113.69 92.01-114.49 91.23Q-115.29 90.45-116.66 90.45L-116.66 90.45Q-118.30 90.45-119.06 91.37Q-119.82 92.29-119.82 93.73L-119.82 93.73Q-119.82 95.18-119.04 96.86Q-118.26 98.54-115.96 100.73L-115.96 100.73L-108.03 108.34Q-105.64 110.61-103.65 113.13Q-101.66 115.65-100.45 118.99Q-99.24 122.33-99.24 127.13L-99.24 127.13Q-99.24 136.82-102.81 142.31Q-106.39 147.80-115.25 147.80ZM-66.27 147.17L-94.67 147.17L-94.67 78.42L-67.17 78.42L-67.17 91.70L-80.68 91.70L-80.68 105.10L-67.71 105.10L-67.71 118.03L-80.68 118.03L-80.68 133.77L-66.27 133.77L-66.27 147.17ZM-45.72 147.80L-45.72 147.80Q-53.18 147.80-57.73 143.15Q-62.29 138.50-62.29 130.14L-62.29 130.14L-62.29 98.42Q-62.29 88.42-58.32 83.11Q-54.36 77.80-45.41 77.80L-45.41 77.80Q-40.53 77.80-36.72 79.59Q-32.91 81.39-30.72 84.96Q-28.54 88.54-28.54 93.97L-28.54 93.97L-28.54 105.84L-42.21 105.84L-42.21 95.69Q-42.21 92.60-42.99 91.53Q-43.77 90.45-45.41 90.45L-45.41 90.45Q-47.32 90.45-47.99 91.84Q-48.65 93.23-48.65 95.53L-48.65 95.53L-48.65 129.94Q-48.65 132.80-47.81 133.97Q-46.97 135.14-45.41 135.14L-45.41 135.14Q-43.65 135.14-42.93 133.69Q-42.21 132.25-42.21 129.94L-42.21 129.94L-42.21 117.56L-28.38 117.56L-28.38 130.57Q-28.38 139.63-32.95 143.71Q-37.52 147.80-45.72 147.80ZM-7.91 147.80L-7.91 147.80Q-16.50 147.80-20.57 142.97Q-24.63 138.15-24.63 128.77L-24.63 128.77L-24.63 78.42L-11.27 78.42L-11.27 128.23Q-11.27 129.94-11.07 131.53Q-10.88 133.11-10.18 134.12Q-9.47 135.14-7.91 135.14L-7.91 135.14Q-6.31 135.14-5.61 134.14Q-4.90 133.15-4.73 131.55Q-4.55 129.94-4.55 128.23L-4.55 128.23L-4.55 78.42L8.81 78.42L8.81 128.77Q8.81 138.15 4.75 142.97Q0.68 147.80-7.91 147.80ZM27.99 147.17L14.08 147.17L14.08 78.42L35.18 78.42Q40.45 78.42 43.14 80.82Q45.84 83.23 46.76 87.54Q47.68 91.86 47.68 97.68L47.68 97.68Q47.68 103.30 46.25 106.66Q44.82 110.02 40.88 111.31L40.88 111.31Q44.12 111.98 45.43 114.53Q46.74 117.09 46.74 121.16L46.74 121.16L46.74 147.17L33.18 147.17L33.18 120.26Q33.18 117.25 31.95 116.53Q30.72 115.80 27.99 115.80L27.99 115.80L27.99 147.17ZM28.07 91.16L28.07 103.89L31.39 103.89Q34.24 103.89 34.24 97.68L34.24 97.68Q34.24 93.66 33.61 92.41Q32.99 91.16 31.27 91.16L31.27 91.16L28.07 91.16ZM64.86 147.17L51.58 147.17L51.58 78.42L64.86 78.42L64.86 147.17ZM89.98 147.17L76.23 147.17L76.23 91.62L68.07 91.62L68.07 78.42L98.14 78.42L98.14 91.62L89.98 91.62L89.98 147.17ZM123.26 147.17L110.29 147.17L110.29 124.55L99.32 78.42L112.95 78.42L116.78 101.70L120.61 78.42L134.20 78.42L123.26 124.55L123.26 147.17ZM172.75 147.80L172.75 147.80Q163.34 147.80 159.18 143.11Q155.02 138.42 155.02 128.19L155.02 128.19L155.02 121.47L168.61 121.47L168.61 130.06Q168.61 132.44 169.34 133.79Q170.06 135.14 171.86 135.14L171.86 135.14Q173.73 135.14 174.45 134.05Q175.18 132.95 175.18 130.45L175.18 130.45Q175.18 127.29 174.55 125.16Q173.93 123.03 172.38 121.10Q170.84 119.16 168.11 116.59L168.11 116.59L161.93 110.73Q155.02 104.20 155.02 95.80L155.02 95.80Q155.02 87.01 159.10 82.41Q163.18 77.80 170.92 77.80L170.92 77.80Q180.37 77.80 184.34 82.84Q188.30 87.87 188.30 98.15L188.30 98.15L174.32 98.15L174.32 93.42Q174.32 92.01 173.52 91.23Q172.71 90.45 171.35 90.45L171.35 90.45Q169.71 90.45 168.95 91.37Q168.18 92.29 168.18 93.73L168.18 93.73Q168.18 95.18 168.96 96.86Q169.75 98.54 172.05 100.73L172.05 100.73L179.98 108.34Q182.36 110.61 184.36 113.13Q186.35 115.65 187.56 118.99Q188.77 122.33 188.77 127.13L188.77 127.13Q188.77 136.82 185.20 142.31Q181.62 147.80 172.75 147.80ZM221.74 147.17L193.34 147.17L193.34 78.42L220.84 78.42L220.84 91.70L207.32 91.70L207.32 105.10L220.29 105.10L220.29 118.03L207.32 118.03L207.32 133.77L221.74 133.77L221.74 147.17ZM242.29 147.80L242.29 147.80Q234.82 147.80 230.27 143.15Q225.72 138.50 225.72 130.14L225.72 130.14L225.72 98.42Q225.72 88.42 229.69 83.11Q233.65 77.80 242.60 77.80L242.60 77.80Q247.48 77.80 251.29 79.59Q255.10 81.39 257.29 84.96Q259.47 88.54 259.47 93.97L259.47 93.97L259.47 105.84L245.80 105.84L245.80 95.69Q245.80 92.60 245.02 91.53Q244.24 90.45 242.60 90.45L242.60 90.45Q240.68 90.45 240.02 91.84Q239.36 93.23 239.36 95.53L239.36 95.53L239.36 129.94Q239.36 132.80 240.20 133.97Q241.04 135.14 242.60 135.14L242.60 135.14Q244.36 135.14 245.08 133.69Q245.80 132.25 245.80 129.94L245.80 129.94L245.80 117.56L259.63 117.56L259.63 130.57Q259.63 139.63 255.06 143.71Q250.49 147.80 242.29 147.80ZM280.10 147.80L280.10 147.80Q271.50 147.80 267.44 142.97Q263.38 138.15 263.38 128.77L263.38 128.77L263.38 78.42L276.74 78.42L276.74 128.23Q276.74 129.94 276.93 131.53Q277.13 133.11 277.83 134.12Q278.54 135.14 280.10 135.14L280.10 135.14Q281.70 135.14 282.40 134.14Q283.11 133.15 283.28 131.55Q283.46 129.94 283.46 128.23L283.46 128.23L283.46 78.42L296.82 78.42L296.82 128.77Q296.82 138.15 292.75 142.97Q288.69 147.80 280.10 147.80ZM316.00 147.17L302.09 147.17L302.09 78.42L323.18 78.42Q328.46 78.42 331.15 80.82Q333.85 83.23 334.77 87.54Q335.68 91.86 335.68 97.68L335.68 97.68Q335.68 103.30 334.26 106.66Q332.83 110.02 328.89 111.31L328.89 111.31Q332.13 111.98 333.44 114.53Q334.75 117.09 334.75 121.16L334.75 121.16L334.75 147.17L321.19 147.17L321.19 120.26Q321.19 117.25 319.96 116.53Q318.73 115.80 316.00 115.80L316.00 115.80L316.00 147.17ZM316.07 91.16L316.07 103.89L319.39 103.89Q322.25 103.89 322.25 97.68L322.25 97.68Q322.25 93.66 321.62 92.41Q321.00 91.16 319.28 91.16L319.28 91.16L316.07 91.16ZM352.87 147.17L339.59 147.17L339.59 78.42L352.87 78.42L352.87 147.17ZM377.99 147.17L364.24 147.17L364.24 91.62L356.07 91.62L356.07 78.42L386.15 78.42L386.15 91.62L377.99 91.62L377.99 147.17ZM411.27 147.17L398.30 147.17L398.30 124.55L387.32 78.42L400.96 78.42L404.79 101.70L408.61 78.42L422.21 78.42L411.27 124.55L411.27 147.17Z"/></g>
<g transform="matrix(12.7179 0 0 12.7179 160.1115 150)" id="542404">
<path style="stroke: rgb(1,168,10); stroke-width: 11; stroke-dasharray: none; stroke-linecap: round; stroke-dashoffset: 0; stroke-linejoin: round; stroke-miterlimit: 4; is-custom-font: none; font-file-url: none; fill: none; fill-rule: nonzero; opacity: 1;" vector-effect="non-scaling-stroke" transform=" translate(-12.0018, -12)" d="M 13.1427 20.9999 C 10.8077 19.5438 9.25254 16.9522 9.25254 13.9968 C 9.25254 12.4783 10.4833 11.2476 12.0008 11.2476 C 13.5184 11.2476 14.7491 12.4783 14.7491 13.9968 C 14.7491 15.5153 15.9798 16.746 17.4974 16.746 C 19.0149 16.746 20.2457 15.5153 20.2457 13.9968 C 20.2457 9.44139 16.5544 5.74922 12.0017 5.74922 C 7.44907 5.74922 3.75781 9.44139 3.75781 13.9968 C 3.75781 15.0122 3.87145 16.001 4.08038 16.954 M 8.49027 20.2989 C 7.23938 18.5138 6.50351 16.3419 6.50351 13.9968 C 6.50351 10.9599 8.96405 8.49844 11.9992 8.49844 C 15.0343 8.49844 17.4948 10.9599 17.4948 13.9968 M 17.7927 19.4806 C 17.6937 19.4861 17.5966 19.4953 17.4967 19.4953 C 14.4616 19.4953 12.0011 17.0338 12.0011 13.9969 M 19.6734 6.47682 C 17.7993 4.34802 15.0593 3 12.0004 3 C 8.94141 3 6.20138 4.34802 4.32734 6.47682" stroke-linecap="round"/>
</g>
<g transform="matrix(1 0 0 1 499.7525 200.3842)" style="" id="781506">
		
<path xml:space="preserve" font-family="Abel" font-size="87" font-style="normal" font-weight="normal" style="stroke: none; stroke-width: 0; stroke-dasharray: none; stroke-linecap: butt; stroke-dashoffset: 0; stroke-linejoin: miter; stroke-miterlimit: 4; is-custom-font: none; font-file-url: none; fill: rgb(255,255,255); fill-rule: nonzero; opacity: 1; white-space: pre;" d="M-21.67 27.33L-28.46 27.33L-51.40-3.13L-28.46-33.59L-21.67-33.59L-45.07-3.13L-21.67 27.33ZM-52.72 27.33L-58.20 27.33L-58.20-33.59L-52.72-33.59L-52.72 27.33ZM21.33 27.33L-12.96 27.33L-12.96-33.59L21.33-33.59L21.33-28.36L-7.48-28.36L-7.48-5.72L15.85-5.72L15.85-0.49L-7.48-0.49L-7.48 22.11L21.33 22.11L21.33 27.33ZM63.42-33.59L47.79-1.81L47.79 27.33L42.31 27.33L42.31-1.73L26.55-33.59L32.46-33.59L44.99-8.27L57.52-33.59L63.42-33.59Z"/></g>
<g transform="matrix(1 0 0 1 371.031 117.6958)" style="" id="221637">
		
<path xml:space="preserve" font-family="Anton" font-size="119" font-style="normal" font-weight="normal" style="stroke: none; stroke-width: 0; stroke-dasharray: none; stroke-linecap: butt; stroke-dashoffset: 0; stroke-linejoin: miter; stroke-miterlimit: 4; is-custom-font: none; font-file-url: none; fill: rgb(255,255,255); fill-rule: nonzero; opacity: 1; white-space: pre;" d="M-171.44 38.31L-171.44 38.31Q-185.44 38.31-191.63 31.34Q-197.82 24.37-197.82 9.14L-197.82 9.14L-197.82-0.85L-177.60-0.85L-177.60 11.93Q-177.60 15.48-176.52 17.48Q-175.45 19.49-172.78 19.49L-172.78 19.49Q-169.99 19.49-168.91 17.86Q-167.84 16.23-167.84 12.51L-167.84 12.51Q-167.84 7.81-168.77 4.64Q-169.70 1.47-171.99-1.40Q-174.29-4.28-178.35-8.11L-178.35-8.11L-187.54-16.83Q-197.82-26.53-197.82-39.03L-197.82-39.03Q-197.82-52.10-191.75-58.96Q-185.68-65.81-174.17-65.81L-174.17-65.81Q-160.11-65.81-154.21-58.32Q-148.31-50.82-148.31-35.54L-148.31-35.54L-169.12-35.54L-169.12-42.57Q-169.12-44.66-170.31-45.82Q-171.50-46.99-173.53-46.99L-173.53-46.99Q-175.97-46.99-177.11-45.62Q-178.24-44.26-178.24-42.11L-178.24-42.11Q-178.24-39.96-177.08-37.46Q-175.91-34.96-172.49-31.70L-172.49-31.70L-160.69-20.37Q-157.15-17.00-154.18-13.26Q-151.22-9.51-149.42-4.54Q-147.62 0.43-147.62 7.57L-147.62 7.57Q-147.62 21.98-152.93 30.15Q-158.25 38.31-171.44 38.31ZM-98.58 37.38L-140.82 37.38L-140.82-64.88L-99.91-64.88L-99.91-45.13L-120.02-45.13L-120.02-25.20L-100.73-25.20L-100.73-5.96L-120.02-5.96L-120.02 17.45L-98.58 17.45L-98.58 37.38ZM-68.01 38.31L-68.01 38.31Q-79.11 38.31-85.88 31.40Q-92.65 24.48-92.65 12.05L-92.65 12.05L-92.65-35.13Q-92.65-50.01-86.75-57.91Q-80.85-65.81-67.55-65.81L-67.55-65.81Q-60.28-65.81-54.62-63.14Q-48.95-60.47-45.70-55.15Q-42.45-49.83-42.45-41.76L-42.45-41.76L-42.45-24.09L-62.78-24.09L-62.78-39.20Q-62.78-43.79-63.95-45.39Q-65.11-46.99-67.55-46.99L-67.55-46.99Q-70.39-46.99-71.38-44.92Q-72.37-42.86-72.37-39.43L-72.37-39.43L-72.37 11.76Q-72.37 16.00-71.12 17.74Q-69.87 19.49-67.55 19.49L-67.55 19.49Q-64.93 19.49-63.86 17.34Q-62.78 15.19-62.78 11.76L-62.78 11.76L-62.78-6.66L-42.21-6.66L-42.21 12.69Q-42.21 26.17-49.01 32.24Q-55.81 38.31-68.01 38.31ZM-11.77 38.31L-11.77 38.31Q-24.55 38.31-30.59 31.14Q-36.64 23.96-36.64 10.02L-36.64 10.02L-36.64-64.88L-16.76-64.88L-16.76 9.20Q-16.76 11.76-16.47 14.11Q-16.18 16.46-15.14 17.98Q-14.09 19.49-11.77 19.49L-11.77 19.49Q-9.38 19.49-8.34 18.00Q-7.29 16.52-7.03 14.14Q-6.77 11.76-6.77 9.20L-6.77 9.20L-6.77-64.88L13.10-64.88L13.10 10.02Q13.10 23.96 7.06 31.14Q1.02 38.31-11.77 38.31ZM41.63 37.38L20.95 37.38L20.95-64.88L52.32-64.88Q60.17-64.88 64.18-61.31Q68.19-57.74 69.55-51.32Q70.92-44.89 70.92-36.24L70.92-36.24Q70.92-27.87 68.80-22.87Q66.68-17.88 60.81-15.96L60.81-15.96Q65.63-14.97 67.58-11.16Q69.52-7.36 69.52-1.32L69.52-1.32L69.52 37.38L49.36 37.38L49.36-2.65Q49.36-7.13 47.53-8.20Q45.70-9.28 41.63-9.28L41.63-9.28L41.63 37.38ZM41.75-45.94L41.75-27.00L46.69-27.00Q50.93-27.00 50.93-36.24L50.93-36.24Q50.93-42.22 50.00-44.08Q49.07-45.94 46.51-45.94L46.51-45.94L41.75-45.94ZM96.48 37.38L76.73 37.38L76.73-64.88L96.48-64.88L96.48 37.38ZM133.85 37.38L113.39 37.38L113.39-45.24L101.25-45.24L101.25-64.88L145.99-64.88L145.99-45.24L133.85-45.24L133.85 37.38ZM183.35 37.38L164.06 37.38L164.06 3.74L147.73-64.88L168.01-64.88L173.71-30.25L179.40-64.88L199.62-64.88L183.35 3.74L183.35 37.38Z"/></g>
</svg>
