<svg xmlns="http://www.w3.org/2000/svg" width="600" height="300"><path fill="#0fbd8c" d="M0 300V0h600v300z" style="mix-blend-mode:normal;fill-rule:nonzero;stroke-linejoin:miter;stroke-miterlimit:10;stroke-dasharray:none;stroke-dashoffset:0"/><path fill="#fff" d="M192.22 150c0-59.525 48.255-107.78 107.78-107.78S407.78 90.475 407.78 150 359.525 257.78 300 257.78 192.22 209.525 192.22 150z" style="mix-blend-mode:normal;fill-rule:nonzero;stroke-linejoin:miter;stroke-miterlimit:10;stroke-dasharray:none;stroke-dashoffset:0" transform="translate(1.96)"/><path fill="#0fbd8c" d="M212.632 150c0-48.252 39.116-87.368 87.368-87.368 48.252 0 87.368 39.116 87.368 87.368 0 48.252-39.116 87.368-87.368 87.368-48.252 0-87.368-39.116-87.368-87.368z" style="mix-blend-mode:normal;fill-rule:nonzero;stroke-linejoin:miter;stroke-miterlimit:10;stroke-dasharray:none;stroke-dashoffset:0" transform="translate(1.96)"/><path fill="#fff" d="M226.876 150c0-40.385 32.739-73.124 73.124-73.124s73.124 32.739 73.124 73.124-32.739 73.124-73.124 73.124-73.124-32.739-73.124-73.124z" style="mix-blend-mode:normal;fill-rule:nonzero;stroke-linejoin:miter;stroke-miterlimit:10;stroke-dasharray:none;stroke-dashoffset:0" transform="translate(1.96)"/><path fill="#0fbd8c" d="M188.3 280.306V19.694h130.068v260.612Z" style="mix-blend-mode:normal;fill-rule:nonzero;stroke-linejoin:miter;stroke-miterlimit:10;stroke-dasharray:none;stroke-dashoffset:0" transform="translate(1.96)"/><path fill="#0fbd8c" d="M248.363 150c0-28.519 23.118-51.637 51.637-51.637 28.519 0 51.637 23.118 51.637 51.637 0 28.519-23.118 51.637-51.637 51.637-28.519 0-51.637-23.118-51.637-51.637z" style="mix-blend-mode:normal;fill-rule:nonzero;stroke-linejoin:miter;stroke-miterlimit:10;stroke-dasharray:none;stroke-dashoffset:0" transform="translate(1.96)"/><path fill="#fff" d="M192.74 158.144v-43.666h52.677l53.717-53.717v98.076z" data-paper-data="{&quot;index&quot;:null}" style="mix-blend-mode:normal;fill-rule:nonzero;stroke-linejoin:miter;stroke-miterlimit:10;stroke-dasharray:none;stroke-dashoffset:0" transform="translate(1.96)"/><path fill="#fff" d="M299.134 139.776v98.077l-53.717-53.717H192.74V140.47Z" data-paper-data="{&quot;index&quot;:null}" style="mix-blend-mode:normal;fill-rule:nonzero;stroke-linejoin:miter;stroke-miterlimit:10;stroke-dasharray:none;stroke-dashoffset:0" transform="translate(1.96)"/><path fill="#fff" d="M274.008 150c0-14.355 11.637-25.992 25.992-25.992s25.992 11.637 25.992 25.992-11.637 25.992-25.992 25.992-25.992-11.637-25.992-25.992z" style="mix-blend-mode:normal;fill-rule:nonzero;stroke-linejoin:miter;stroke-miterlimit:10;stroke-dasharray:none;stroke-dashoffset:0" transform="translate(1.96)"/></svg>