<?xml version="1.0" encoding="utf-8"?>
<svg viewBox="69.216 92.918 296.29 147.975" width="296.29" height="147.975" xmlns="http://www.w3.org/2000/svg">
  <g transform="matrix(1, 0, 0, 1, -22.436676025390625, -13.259379386901859)">
    <g data-paper-data="{&quot;isPaintingLayer&quot;:true}" fill-rule="nonzero" stroke-miterlimit="10" stroke-dasharray="" stroke-dashoffset="0" style="mix-blend-mode: normal">
      <path d="M91.62179,254.18909v-148.3782h296.75639v148.3782z" fill="#196657" stroke="none" stroke-width="0" stroke-linecap="butt" stroke-linejoin="miter"/>
      <g data-paper-data="{&quot;index&quot;:null}" fill="none" stroke="#30c9ad" stroke-width="7.5" stroke-linecap="round" stroke-linejoin="miter">
        <path d="M289.36373,254.78918h-18.35609v-22.43555h17.43969v-22.43555h-17.43969v-22.99643h17.71219v-22.716h-17.71985" data-paper-data="{&quot;index&quot;:null}"/>
        <path d="M271.00764,106.42164v12.49644h17.43969v22.43555h-17.43969v22.43555" data-paper-data="{&quot;index&quot;:null}"/>
      </g>
      <g fill="none" stroke="#30c9ad" stroke-width="7.5" stroke-linecap="round" stroke-linejoin="miter">
        <path d="M208.36373,164.20565h-17.71984v22.716h17.71219v22.99643h-17.43969v22.43555h17.43969v22.43555h-18.35609" data-paper-data="{&quot;index&quot;:null}"/>
        <path d="M208.35608,163.78918v-22.43555h-17.43969v-22.43555h17.43969v-12.49644" data-paper-data="{&quot;index&quot;:null}"/>
      </g>
      <path d="M318.99221,105.59036l-9.98087,12.40026l19.97736,24.80052l-19.97736,24.80051l19.97736,24.81663l-19.97736,24.80052l19.97736,24.8005l-9.99649,12.40026" data-paper-data="{&quot;index&quot;:null}" fill="none" stroke="#28a58c" stroke-width="12.5" stroke-linecap="butt" stroke-linejoin="miter"/>
      <path d="M161.00779,254.40954l-9.99649,-12.40026l19.97736,-24.80051l-19.97736,-24.80051l19.97736,-24.81663l-19.97736,-24.80052l19.97736,-24.80051l-9.98087,-12.40026" fill="none" stroke="#28a58c" stroke-width="12.5" stroke-linecap="butt" stroke-linejoin="miter"/>
      <path d="M356.13464,252.66816l0.12611,-0.1097l0.12551,-0.1097l0.12488,-0.1097l0.12422,-0.1097l0.12353,-0.1097l0.12284,-0.1097l0.1221,-0.1097l0.12135,-0.1097l0.12057,-0.1097l0.11978,-0.1097l0.11895,-0.1097l0.11811,-0.1097l0.11723,-0.1097l0.11633,-0.1097l0.11541,-0.1097l0.11447,-0.10971l0.11352,-0.1097l0.11253,-0.1097l0.11151,-0.1097l0.1105,-0.1097l0.10944,-0.1097l0.10837,-0.10971l0.10728,-0.1097l0.10615,-0.1097l0.10502,-0.1097l0.10385,-0.1097l0.10268,-0.1097l0.10147,-0.10971l0.10026,-0.1097l0.09902,-0.1097l0.09776,-0.1097l0.09648,-0.1097l0.09518,-0.1097l0.09386,-0.10971l0.09253,-0.1097l0.09118,-0.1097l0.0898,-0.1097l0.08842,-0.1097l0.08701,-0.1097l0.08558,-0.1097l0.08415,-0.1097l0.08268,-0.1097l0.08121,-0.1097l0.07973,-0.1097l0.07821,-0.1097l0.0767,-0.1097l0.07515,-0.1097l0.07359,-0.1097l0.07204,-0.1097l0.07045,-0.1097l0.06886,-0.1097l0.06725,-0.10971l0.06563,-0.1097l0.06399,-0.1097l0.06234,-0.1097l0.06068,-0.1097l0.05902,-0.1097l0.05732,-0.10971l0.05563,-0.1097l0.05393,-0.1097l0.05221,-0.1097l0.05049,-0.1097l0.04875,-0.1097l0.047,-0.10971l0.04525,-0.1097l0.04349,-0.1097l0.04171,-0.1097l0.03992,-0.1097l0.03813,-0.1097l0.03634,-0.10971l0.03453,-0.1097l0.03271,-0.1097l0.03091,-0.1097l0.02908,-0.1097l0.02725,-0.1097l0.02542,-0.1097l0.02357,-0.1097l0.02172,-0.1097l0.01989,-0.1097l0.01802,-0.1097l0.01617,-0.1097l0.01431,-0.1097l0.01244,-0.1097l0.01058,-0.1097l0.00871,-0.1097l0.00684,-0.1097l0.00498,-0.1097l0.00311,-0.10971l0.00122,-0.1097l-0.00064,-0.1097l-0.00251,-0.1097l-0.00439,-0.1097l-0.00626,-0.1097l-0.00813,-0.10971l-0.01,-0.1097l-0.01187,-0.1097l-0.01373,-0.1097l-0.01558,-0.1097l-0.01745,-0.1097l-0.0193,-0.10971l-0.02115,-0.1097l-0.023,-0.1097l-0.02484,-0.1097l-0.02669,-0.1097l-0.02851,-0.1097l-0.03034,-0.10971l-0.03215,-0.1097l-0.03397,-0.1097l-0.03578,-0.1097l-0.03758,-0.1097l-0.03937,-0.1097l-0.04115,-0.1097l-0.04293,-0.1097l-0.04469,-0.1097l-0.04646,-0.1097l-0.04821,-0.1097l-0.04994,-0.1097l-0.05168,-0.1097l-0.05339,-0.1097l-0.05511,-0.1097l-0.05681,-0.1097l-0.0585,-0.1097l-0.06016,-0.1097l-0.06184,-0.10971l-0.06349,-0.1097l-0.06512,-0.1097l-0.06674,-0.1097l-0.06836,-0.1097l-0.06997,-0.1097l-0.07155,-0.10971l-0.07313,-0.1097l-0.07467,-0.1097l-0.07622,-0.1097l-0.07774,-0.1097l-0.07925,-0.1097l-0.08075,-0.10971l-0.08223,-0.1097l-0.08369,-0.1097l-0.08514,-0.1097l-0.08657,-0.1097l-0.08798,-0.1097l-0.08937,-0.10971l-0.09075,-0.1097l-0.09211,-0.1097l-0.09345,-0.1097l-0.09477,-0.1097l-0.09608,-0.1097l-0.09736,-0.1097l-0.09864,-0.1097l-0.09988,-0.1097l-0.10109,-0.1097l-0.10231,-0.1097l-0.10349,-0.1097l-0.10466,-0.1097l-0.1058,-0.1097l-0.10693,-0.1097l-0.10802,-0.1097l-0.10911,-0.1097l-0.11016,-0.1097l-0.1112,-0.1097l-0.11221,-0.1097l-0.1132,-0.1097l-0.11418,-0.1097l-0.11513,-0.1097l-0.11606,-0.1097l-0.11695,-0.1097l-0.11783,-0.1097l-0.1187,-0.1097l-0.11952,-0.1097l-0.12034,-0.1097l-0.12111,-0.1097l-0.12187,-0.1097l-0.12261,-0.1097l-0.12333,-0.1097l-0.12401,-0.1097l-0.12467,-0.1097l-0.12531,-0.1097l-0.12592,-0.1097l-0.12651,-0.1097l-0.12708,-0.1097l-0.12761,-0.1097l-0.12813,-0.1097l-0.12861,-0.1097l-0.12908,-0.1097l-0.12951,-0.1097l-0.12992,-0.1097l-0.1303,-0.1097l-0.13066,-0.1097l-0.131,-0.1097l-0.1313,-0.1097l-0.13158,-0.1097l-0.13184,-0.1097l-0.13207,-0.1097l-0.13226,-0.1097l-0.13245,-0.1097l-0.13259,-0.1097l-0.13272,-0.1097l-0.13281,-0.1097l-0.13289,-0.1097l-0.13293,-0.1097l-0.13294,-0.1097l-0.13294,-0.1097l-0.1329,-0.1097l-0.13284,-0.1097l-0.13275,-0.1097l-0.13265,-0.1097l-0.1325,-0.1097l-0.13234,-0.1097l-0.13214,-0.1097l-0.13193,-0.1097l-0.13167,-0.1097l-0.13141,-0.1097l-0.1311,-0.1097l-0.13079,-0.1097l-0.13043,-0.1097l-0.13006,-0.1097l-0.12967,-0.1097l-0.12923,-0.1097l-0.12878,-0.1097l-0.12831,-0.1097l-0.1278,-0.1097l-0.12727,-0.1097l-0.12672,-0.1097l-0.12614,-0.1097l-0.12554,-0.1097l-0.12491,-0.1097l-0.12425,-0.1097l-0.12358,-0.1097l-0.12287,-0.1097l-0.12215,-0.1097l-0.1214,-0.1097l-0.12062,-0.1097l-0.11982,-0.1097l-0.11899,-0.1097l-0.11815,-0.1097l-0.11728,-0.1097l-0.11638,-0.1097l-0.11547,-0.1097l-0.11453,-0.1097l-0.11356,-0.1097l-0.11259,-0.1097l-0.11156,-0.1097l-0.11055,-0.1097l-0.10949,-0.1097l-0.10842,-0.1097l-0.10732,-0.1097l-0.10621,-0.1097l-0.10507,-0.1097l-0.10392,-0.1097l-0.10275,-0.1097l-0.10153,-0.1097l-0.10032,-0.1097l-0.09909,-0.1097l-0.09782,-0.1097l-0.09656,-0.1097l-0.09525,-0.1097l-0.09394,-0.1097l-0.0926,-0.1097l-0.09124,-0.1097l-0.08988,-0.1097l-0.08849,-0.1097l-0.08708,-0.1097l-0.08566,-0.1097l-0.08422,-0.1097l-0.08276,-0.1097l-0.08129,-0.1097l-0.07979,-0.1097l-0.07829,-0.1097l-0.07677,-0.1097l-0.07524,-0.1097l-0.07369,-0.1097l-0.07212,-0.1097l-0.07054,-0.1097l-0.06894,-0.1097l-0.06734,-0.1097l-0.06571,-0.1097l-0.06409,-0.1097l-0.06243,-0.1097l-0.06077,-0.1097l-0.0591,-0.1097l-0.05742,-0.1097l-0.05573,-0.1097l-0.05402,-0.1097l-0.0523,-0.1097l-0.05058,-0.1097l-0.04884,-0.1097l-0.0471,-0.1097l-0.04534,-0.1097l-0.04357,-0.1097l-0.04179,-0.1097l-0.04002,-0.1097l-0.03823,-0.1097l-0.03643,-0.1097l-0.03463,-0.1097l-0.03282,-0.1097l-0.031,-0.1097l-0.02918,-0.1097l-0.02735,-0.1097l-0.02551,-0.1097l-0.02367,-0.1097l-0.02183,-0.1097l-0.01998,-0.1097l-0.01812,-0.1097l-0.01626,-0.1097l-0.0144,-0.1097l-0.01254,-0.1097l-0.01067,-0.1097l-0.00881,-0.1097l-0.00693,-0.1097l-0.00507,-0.1097l-0.0032,-0.1097l-0.00133,-0.1097l0.00055,-0.1097l0.00242,-0.1097l0.0043,-0.1097l0.00616,-0.1097l0.00803,-0.1097l0.00991,-0.1097l0.01176,-0.1097l0.01363,-0.1097l0.01549,-0.1097l0.01735,-0.1097l0.01921,-0.1097l0.02105,-0.1097l0.0229,-0.1097l0.02476,-0.1097l0.02658,-0.1097l0.02841,-0.1097l0.03025,-0.1097l0.03206,-0.1097l0.03387,-0.1097l0.03568,-0.1097l0.03748,-0.1097l0.03927,-0.1097l0.04106,-0.1097l0.04284,-0.1097l0.0446,-0.1097l0.04636,-0.1097l0.04812,-0.1097l0.04985,-0.1097l0.05158,-0.1097l0.0533,-0.1097l0.05502,-0.1097l0.05671,-0.1097l0.0584,-0.1097l0.06009,-0.1097l0.06174,-0.1097l0.0634,-0.1097l0.06503,-0.1097l0.06667,-0.1097l0.06827,-0.1097l0.06987,-0.1097l0.07147,-0.1097l0.07303,-0.1097l0.07459,-0.1097l0.07614,-0.1097l0.07766,-0.1097l0.07918,-0.1097l0.08067,-0.1097l0.08215,-0.1097l0.08362,-0.1097l0.08506,-0.1097l0.08649,-0.1097l0.08791,-0.1097l0.0893,-0.1097l0.09068,-0.1097l0.09204,-0.1097l0.09338,-0.1097l0.0947,-0.1097l0.096,-0.1097l0.0973,-0.1097l0.09856,-0.1097l0.0998,-0.1097l0.10104,-0.1097l0.10225,-0.1097l0.10343,-0.1097l0.1046,-0.1097l0.10574,-0.1097l0.10687,-0.1097l0.10797,-0.1097l0.10906,-0.1097l0.11012,-0.1097l0.11115,-0.1097l0.11217,-0.1097l0.11316,-0.1097l0.11413,-0.1097l0.11507,-0.1097l0.11601,-0.1097l0.11691,-0.1097l0.11779,-0.1097l0.11864,-0.1097l0.11948,-0.1097l0.12029,-0.1097l0.12108,-0.1097l0.12183,-0.1097l0.12257,-0.1097l0.12329,-0.1097l0.12398,-0.1097l0.12464,-0.1097l0.12528,-0.1097l0.12589,-0.1097l0.12648,-0.1097l0.12705,-0.1097l0.12759,-0.1097l0.12811,-0.1097l0.12859,-0.1097l0.12904,-0.1097l0.12949,-0.1097l0.1299,-0.1097l0.13029,-0.1097l0.13064,-0.1097l0.13098,-0.1097l0.13128,-0.1097l0.13157,-0.1097l0.13182,-0.1097l0.13205,-0.1097l0.13226,-0.1097l0.13243,-0.1097l0.13259,-0.1097l0.13271,-0.1097l0.13282,-0.1097l0.13288,-0.1097l0.13293,-0.1097l0.13294,-0.1097l0.13294,-0.1097l0.13291,-0.1097l0.13285,-0.1097l0.13276,-0.1097l0.13265,-0.1097l0.13251,-0.1097l0.13235,-0.1097l0.13215,-0.1097l0.13194,-0.1097l0.13169,-0.1097l0.13143,-0.1097l0.13112,-0.1097l0.13081,-0.1097l0.13046,-0.1097l0.13008,-0.1097l0.12969,-0.1097l0.12926,-0.1097l0.1288,-0.1097l0.12833,-0.1097l0.12783,-0.1097l0.1273,-0.1097l0.12676,-0.1097l0.12617,-0.1097l0.12558,-0.1097l0.12493,-0.1097l0.1243,-0.1097l0.12361,-0.1097l0.12291,-0.1097l0.12218,-0.1097l0.12143,-0.1097l0.12066,-0.1097l0.11986,-0.1097l0.11905,-0.1097l0.1182,-0.1097l0.11732,-0.1097l0.11643,-0.1097l0.11552,-0.1097l0.11458,-0.1097l0.11362,-0.1097l0.11264,-0.1097l0.11163,-0.1097l0.11059,-0.1097l0.10956,-0.1097l0.10847,-0.1097l0.10739,-0.1097l0.10627,-0.1097l0.10514,-0.1097l0.10398,-0.1097l0.1028,-0.1097l0.1016,-0.1097l0.10039,-0.1097l0.09915,-0.1097l0.09789,-0.1097l0.09662,-0.1097l0.09532,-0.1097l0.09401,-0.1097l0.09266,-0.1097l0.09132,-0.1097l0.08996,-0.1097l0.08856,-0.1097l0.08715,-0.1097l0.08573,-0.1097l0.0843,-0.1097l0.08283,-0.1097l0.08136,-0.1097l0.07987,-0.1097l0.07837,-0.1097l0.07685,-0.1097l0.07532,-0.1097l0.07377,-0.1097l0.0722,-0.1097l0.07062,-0.1097l0.06903,-0.1097l0.06743,-0.1097l0.0658,-0.1097l0.06417,-0.1097l0.06252,-0.1097l0.06086,-0.1097l0.05919,-0.1097l0.0575,-0.1097l0.05582,-0.1097l0.05411,-0.1097l0.0524,-0.1097l0.05066,-0.1097l0.04894,-0.10971l0.04719,-0.1097l0.04542,-0.1097l0.04366,-0.1097l0.0419,-0.1097l0.04011,-0.1097l0.03832,-0.1097l0.03653,-0.1097l0.03473,-0.1097l0.03292,-0.1097l0.03109,-0.1097l0.02927,-0.1097l0.02745,-0.1097l0.02561,-0.1097l0.02376,-0.1097l0.02193,-0.1097l0.02007,-0.1097l0.01822,-0.1097l0.01637,-0.10971l0.0145,-0.1097l0.01264,-0.1097l0.01077,-0.1097l0.00892,-0.1097l0.00704,-0.1097l0.00517,-0.1097l0.00329,-0.1097l0.00143,-0.1097l-0.00045,-0.1097l-0.00232,-0.1097l-0.0042,-0.1097l-0.00606,-0.1097l-0.00793,-0.1097l-0.0098,-0.1097l-0.01166,-0.1097l-0.01353,-0.1097l-0.0154,-0.1097l-0.01726,-0.10971l-0.01911,-0.1097l-0.02096,-0.1097l-0.02281,-0.1097l-0.02465,-0.1097l-0.02648,-0.1097l-0.02832,-0.1097l-0.03015,-0.1097l-0.03196,-0.1097l-0.03378,-0.1097l-0.03558,-0.1097l-0.03738,-0.1097l-0.03918,-0.1097l-0.04096,-0.1097l-0.04274,-0.1097l-0.04451,-0.1097l-0.04627,-0.1097l-0.04803,-0.1097l-0.04976,-0.10971l-0.05149,-0.1097l-0.05322,-0.1097l-0.05493,-0.1097l-0.05663,-0.1097l-0.05831,-0.1097l-0.05999,-0.1097l-0.06166,-0.1097l-0.06331,-0.1097l-0.06495,-0.1097l-0.06658,-0.1097l-0.06819,-0.1097l-0.0698,-0.1097l-0.07138,-0.1097l-0.07295,-0.1097l-0.0745,-0.1097l-0.07605,-0.1097l-0.07758,-0.1097l-0.07909,-0.10971l-0.08059,-0.1097l-0.08207,-0.1097l-0.08354,-0.1097l-0.08499,-0.1097l-0.08642,-0.1097l-0.08783,-0.1097l-0.08922,-0.1097l-0.09061,-0.1097l-0.09197,-0.1097l-0.09332,-0.1097l-0.09463,-0.1097l-0.09595,-0.1097l-0.09723,-0.1097l-0.0985,-0.1097l-0.09975,-0.1097l-0.10097,-0.1097l-0.10218,-0.1097l-0.10337,-0.10971l-0.10454,-0.1097l-0.10567,-0.1097l-0.10681,-0.1097l-0.10792,-0.1097l-0.10899,-0.1097l-0.11006,-0.1097l-0.1111,-0.1097l-0.11212,-0.1097l-0.11311,-0.1097l-0.11408,-0.1097l-0.11504,-0.1097l-0.11596,-0.1097l-0.11686,-0.1097l-0.11775,-0.1097l-0.1186,-0.1097l-0.11944,-0.1097l-0.12025,-0.1097l-0.12103,-0.10971l-0.1218,-0.1097l-0.12254,-0.1097l-0.12325,-0.1097l-0.12394,-0.1097l-0.1246,-0.1097l-0.12525,-0.1097l-0.12586,-0.1097l-0.12645,-0.1097l-0.12701,-0.1097l-0.12756,-0.1097l-0.12808,-0.1097l-0.12856,-0.1097l-0.12903,-0.1097l-0.12947,-0.1097l-0.12988,-0.1097l-0.13026,-0.1097l-0.13063,-0.1097l-0.13096,-0.10971l-0.13128,-0.1097l-0.13154,-0.1097l-0.13182,-0.1097l-0.13204,-0.1097l-0.13225,-0.1097l-0.13243,-0.1097l-0.13258,-0.1097l-0.13271,-0.1097l-0.13281,-0.1097l-0.13288,-0.1097l-0.13292,-0.1097l-0.13294,-0.1097l-0.13295,-0.1097l-0.13291,-0.1097l-0.13284,-0.1097l-0.13278,-0.1097l-0.13265,-0.1097l-0.13252,-0.10971l-0.13235,-0.1097l-0.13216,-0.1097l-0.13195,-0.1097l-0.13171,-0.1097l-0.13145,-0.1097l-0.13114,-0.1097l-0.13082,-0.1097l-0.13048,-0.1097l-0.13011,-0.1097l-0.12971,-0.1097l-0.12928,-0.1097l-0.12883,-0.1097l-0.12836,-0.1097l-0.12785,-0.1097l-0.12733,-0.1097l-0.12679,-0.1097l-0.1262,-0.1097l-0.1256,-0.10971l-0.12497,-0.1097l-0.12432,-0.1097l-0.12365,-0.1097l-0.12296,-0.1097l-0.12222,-0.1097l-0.12148,-0.1097l-0.1207,-0.1097l-0.11991,-0.1097l-0.11909,-0.1097l-0.11825,-0.1097l-0.11738,-0.1097l-0.11648,-0.1097l-0.11557,-0.1097l-0.11463,-0.1097l-0.11367,-0.1097l-0.11269,-0.1097l-0.11168,-0.1097l-0.11066,-0.10971l-0.10961,-0.1097l-0.10854,-0.1097l-0.10745,-0.1097l-0.10633,-0.1097l-0.10519,-0.1097l-0.10404,-0.1097l-0.10287,-0.1097l-0.10167,-0.1097l-0.10045,-0.1097l-0.09922,-0.1097l-0.09796,-0.1097l-0.09668,-0.1097l-0.09539,-0.1097l-0.09407,-0.1097l-0.09275,-0.1097l-0.09139,-0.1097l-0.09003,-0.1097l-0.08863,-0.10971l-0.08723,-0.1097l-0.0858,-0.1097l-0.08437,-0.1097l-0.08292,-0.1097l-0.08145,-0.1097l-0.07995,-0.1097l-0.07846,-0.1097l-0.07693,-0.1097l-0.0754,-0.1097l-0.07385,-0.1097l-0.07227,-0.1097l-0.07071,-0.1097l-0.06911,-0.1097l-0.06751,-0.1097l-0.06589,-0.1097l-0.06425,-0.1097l-0.06261,-0.1097l-0.06095,-0.10971l-0.05928,-0.1097l-0.0576,-0.1097l-0.0559,-0.1097l-0.0542,-0.1097l-0.05249,-0.1097l-0.05076,-0.1097l-0.04902,-0.1097l-0.04728,-0.1097l-0.04552,-0.1097l-0.04376,-0.1097l-0.042,-0.1097l-0.04021,-0.1097l-0.03843,-0.1097l-0.03662,-0.1097l-0.03483,-0.1097l-0.03301,-0.1097l-0.03119,-0.1097l-0.02937,-0.10971l-0.02754,-0.1097l-0.0257,-0.1097l-0.02387,-0.1097l-0.02202,-0.1097l-0.02017,-0.1097l-0.01832,-0.1097l-0.01646,-0.1097l-0.01461,-0.1097l-0.01273,-0.1097l-0.01088,-0.1097l-0.00901,-0.1097l-0.00714,-0.1097l-0.00527,-0.1097l-0.0034,-0.1097l-0.00152,-0.1097l0.00035,-0.1097l0.00221,-0.1097l0.0041,-0.10971l0.00597,-0.1097l0.00784,-0.1097l0.0097,-0.1097l0.01156,-0.1097l0.01343,-0.1097l0.01529,-0.1097l0.01715,-0.1097l0.019,-0.1097l0.02085,-0.1097l0.0227,-0.1097l0.02455,-0.1097l0.02639,-0.1097l0.02822,-0.1097l0.03005,-0.1097l0.03186,-0.1097l0.03368,-0.1097l0.03549,-0.1097l0.0373,-0.10971l0.03908,-0.1097l0.04087,-0.1097l0.04265,-0.1097l0.04442,-0.1097l0.04617,-0.1097l0.04793,-0.1097l0.04967,-0.1097l0.0514,-0.1097l0.05313,-0.1097l0.05484,-0.1097l0.05653,-0.1097l0.05823,-0.1097l0.0599,-0.1097l0.06157,-0.1097l0.06322,-0.1097l0.06487,-0.1097l0.06649,-0.1097l0.06811,-0.10971l0.0697,-0.1097l0.07129,-0.1097l0.07287,-0.1097l0.07443,-0.1097l0.07598,-0.1097l0.07749,-0.1097l0.07901,-0.1097l0.08051,-0.1097l0.08199,-0.1097l0.08346,-0.1097l0.08491,-0.1097l0.08635,-0.1097l0.08776,-0.1097l0.08916,-0.1097l0.09053,-0.1097l0.0919,-0.1097l0.09324,-0.1097l0.09457,-0.10971l0.09587,-0.1097l0.09716,-0.1097l0.09843,-0.1097l0.09968,-0.1097l0.10091,-0.1097l0.10212,-0.1097l0.1033,-0.1097l0.10448,-0.1097l0.10562,-0.1097l0.10675,-0.1097l0.10785,-0.1097l0.10894,-0.1097l0.11,-0.1097l0.11104,-0.1097l0.11205,-0.1097l0.11306,-0.1097l0.11403,-0.1097l0.11498,-0.10971l0.11591,-0.1097l0.11682,-0.1097l0.11771,-0.1097l0.11856,-0.1097l0.11939,-0.1097l0.12021,-0.1097l0.12099,-0.1097l0.12176,-0.1097l0.12249,-0.1097l0.12322,-0.1097l0.1239,-0.1097l0.12457,-0.1097l0.12521,-0.1097l0.12583,-0.1097l0.12642,-0.1097l0.12698,-0.1097l0.12754,-0.1097l0.12804,-0.10971l0.12854,-0.1097l0.129,-0.1097l0.12944,-0.1097l0.12986,-0.1097l0.13025,-0.1097l0.13061,-0.1097l0.13094,-0.1097l0.13125,-0.1097l0.13154,-0.1097l0.1318,-0.1097l0.13204,-0.1097l0.13223,-0.1097l0.13242,-0.1097l0.13257,-0.1097l0.1327,-0.1097l0.13281,-0.1097l0.13288,-0.1097l0.13292,-0.10971l0.13294,-0.1097l0.13294,-0.1097l0.13291,-0.1097l0.13286,-0.1097l0.13277,-0.1097l0.13267,-0.1097l0.13252,-0.1097l0.13236,-0.1097l0.13217,-0.1097l0.13196,-0.1097l0.13172,-0.1097l0.13145,-0.1097l0.13116,-0.1097l0.13084,-0.1097l0.13049,-0.1097l0.13012,-0.1097l0.12973,-0.1097l0.12931,-0.10971l0.12886,-0.1097l0.12838,-0.1097l0.12788,-0.1097l0.12735,-0.1097l0.12681,-0.1097l0.12624,-0.1097l0.12563,-0.1097l0.12501,-0.1097l0.12436,-0.1097l0.12368,-0.1097l0.12299,-0.1097l0.12226,-0.1097l0.12152,-0.1097l0.12074,-0.1097l0.11995,-0.1097l0.11913,-0.1097l0.11828,-0.1097l0.11742,-0.10971l0.11653,-0.1097l0.11562,-0.1097l0.11469,-0.1097l0.11372,-0.1097l0.11274,-0.1097l0.11174,-0.1097l0.11071,-0.1097l0.10966,-0.1097l0.10859,-0.1097l0.10751,-0.1097l0.1064,-0.1097l0.10525,-0.1097l0.10411,-0.1097l0.10293,-0.1097l0.10174,-0.1097l0.10052,-0.1097l0.09929,-0.1097l0.09802,-0.10971l0.09676,-0.1097l0.09546,-0.1097l0.09415,-0.1097l0.09281,-0.1097l0.09146,-0.1097l0.0901,-0.1097l0.08871,-0.1097l0.0873,-0.1097l0.08589,-0.1097l0.08445,-0.1097l0.08299,-0.1097l0.08152,-0.1097l0.08004,-0.1097l0.07853,-0.1097l0.07702,-0.1097l0.07548,-0.1097l0.07394,-0.1097l0.07237,-0.10971l0.07079,-0.1097l0.0692,-0.1097l0.06759,-0.1097l0.06597,-0.1097l0.06434,-0.1097l0.0627,-0.1097l0.06104,-0.1097l0.05937,-0.1097l0.05768,-0.1097l0.056,-0.1097l0.0543,-0.1097l0.05257,-0.1097l0.05086,-0.1097l0.04912,-0.1097l0.04737,-0.1097l0.04561,-0.1097l0.04386,-0.1097l0.04208,-0.10971l0.0403,-0.1097l0.03851,-0.1097l0.03672,-0.1097l0.03492,-0.1097l0.0331,-0.1097l0.03129,-0.1097l0.02946,-0.1097l0.02764,-0.1097l0.0258,-0.1097l0.02396,-0.1097l0.02211,-0.1097l0.02028,-0.1097l0.01842,-0.1097l0.01655,-0.1097l0.0147,-0.1097l0.01284,-0.1097l0.01097,-0.1097l0.00912,-0.10971l0.00725,-0.1097l0.00536,-0.1097l0.00349,-0.1097l0.00162,-0.1097l-0.00025,-0.1097l-0.00212,-0.1097l-0.004,-0.1097l-0.00586,-0.1097l-0.00773,-0.1097l-0.0096,-0.1097l-0.01147,-0.1097l-0.01333,-0.1097l-0.01519,-0.1097l-0.01706,-0.1097l-0.01891,-0.1097l-0.02076,-0.1097l-0.02261,-0.1097l-0.02445,-0.10971l-0.02628,-0.1097l-0.02812,-0.1097l-0.02994,-0.1097l-0.03178,-0.1097l-0.03358,-0.1097l-0.03539,-0.1097l-0.03721,-0.1097l-0.03899,-0.1097l-0.04078,-0.1097l-0.04255,-0.1097l-0.04433,-0.1097l-0.04608,-0.1097l-0.04784,-0.1097l-0.04958,-0.1097l-0.05131,-0.1097l-0.05303,-0.1097l-0.05475,-0.1097l-0.05644,-0.1097l-0.05813,-0.10971l-0.05982,-0.1097l-0.06149,-0.1097l-0.06313,-0.1097l-0.06479,-0.1097l-0.0664,-0.1097l-0.06803,-0.1097l-0.06962,-0.1097l-0.07122,-0.1097l-0.07278,-0.1097l-0.07434,-0.1097l-0.07589,-0.1097l-0.07743,-0.1097l-0.07893,-0.1097l-0.08043,-0.1097l-0.08192,-0.1097l-0.08338,-0.1097l-0.08483,-0.1097l-0.08627,-0.10971l-0.08768,-0.1097l-0.08907,-0.1097l-0.09046,-0.1097l-0.09182,-0.1097l-0.09318,-0.1097l-0.09449,-0.1097l-0.09581,-0.1097l-0.09709,-0.1097l-0.09836,-0.1097l-0.0996,-0.1097l-0.10084,-0.1097l-0.10206,-0.1097l-0.10324,-0.1097l-0.10441,-0.1097l-0.10556,-0.1097l-0.10669,-0.1097l-0.1078,-0.1097l-0.10888,-0.10971l-0.10994,-0.1097l-0.11099,-0.1097l-0.11201,-0.1097l-0.113,-0.1097l-0.11398,-0.1097l-0.11493,-0.1097l-0.11587,-0.1097l-0.11676,-0.1097l-0.11765,-0.1097l-0.11852,-0.1097l-0.11935,-0.1097l-0.12016,-0.1097l-0.12095,-0.1097l-0.12172,-0.1097l-0.12246,-0.1097l-0.12317,-0.1097l-0.12387,-0.1097l-0.12454,-0.10971l-0.12518,-0.1097l-0.1258,-0.1097l-0.12638,-0.1097l-0.12697,-0.1097l-0.1275,-0.1097l-0.12803,-0.1097l-0.1285,-0.1097l-0.12898,-0.1097l-0.12941,-0.1097l-0.12984,-0.1097l-0.13023,-0.1097l-0.13058,-0.1097l-0.13092,-0.1097l-0.13124,-0.1097l-0.13153,-0.1097l-0.13179,-0.1097l-0.13202,-0.1097l-0.13222,-0.10971l-0.13242,-0.1097l-0.13256,-0.1097l-0.1327,-0.1097l-0.1328,-0.1097l-0.13287,-0.1097l-0.13292,-0.1097l-0.13294,-0.1097l-0.13294,-0.1097l-0.13292,-0.1097l-0.13286,-0.1097l-0.13277,-0.1097l-0.13266,-0.1097l-0.13253,-0.1097l-0.13237,-0.1097l-0.13218,-0.1097l-0.13197,-0.1097l-0.13173,-0.1097l-0.13146,-0.10971l-0.13118,-0.1097l-0.13086,-0.1097l-0.13051,-0.1097l-0.13015,-0.1097l-0.12975,-0.1097l-0.12933,-0.1097l-0.12888,-0.1097l-0.12841,-0.1097l-0.12791,-0.1097l-0.12739,-0.1097l-0.12683,-0.1097l-0.12627,-0.1097l-0.12566,-0.1097l-0.12505,-0.1097l-0.1244,-0.1097l-0.12373,-0.1097l-0.12302,-0.1097l-0.1223,-0.10971l-0.12156,-0.1097l-0.12078,-0.1097l-0.11999,-0.1097l-0.11917,-0.1097l-0.11833,-0.1097l-0.11747,-0.1097l-0.11657,-0.1097l-0.11566,-0.1097l-0.11473,-0.1097l-0.11378,-0.1097l-0.1128,-0.1097l-0.11179,-0.1097l-0.11077,-0.1097l-0.10972,-0.1097l-0.10865,-0.1097l-0.10756,-0.1097l-0.10645,-0.1097l-0.10532,-0.10971l-0.10417,-0.1097l-0.103,-0.1097l-0.10179,-0.1097l-0.10058,-0.1097l-0.09935,-0.1097l-0.0981,-0.1097l-0.09682,-0.1097l-0.09553,-0.1097l-0.09422,-0.1097l-0.09288,-0.1097l-0.09154,-0.1097l-0.09018,-0.1097l-0.08879,-0.1097l-0.08738,-0.1097l-0.08596,-0.1097l-0.08453,-0.1097l-0.08307,-0.1097l-0.0816,-0.10971l-0.08011,-0.1097l-0.07862,-0.1097l-0.07709,-0.1097l-0.07556,-0.1097l-0.07402,-0.1097l-0.07246,-0.1097l-0.07088,-0.1097l-0.06928,-0.1097l-0.06768,-0.1097l-0.06606,-0.1097l-0.06444,-0.1097l-0.06279,-0.1097l-0.06113,-0.1097l-0.05946,-0.1097l-0.05778,-0.1097l-0.05609,-0.1097l-0.05438,-0.1097l-0.05267,-0.10971l-0.05095,-0.1097l-0.04921,-0.1097l-0.04746,-0.1097l-0.04571,-0.1097l-0.04395,-0.1097l-0.04218,-0.1097l-0.0404,-0.1097l-0.0386,-0.1097l-0.03681,-0.1097l-0.03501,-0.1097l-0.0332,-0.1097l-0.03139,-0.1097l-0.02956,-0.1097l-0.02773,-0.1097l-0.0259,-0.1097l-0.02406,-0.1097l-0.02222,-0.1097l-0.02037,-0.10971l-0.01852,-0.1097l-0.01666,-0.1097l-0.0148,-0.1097l-0.01294,-0.1097l-0.01106,-0.1097l-0.00921,-0.1097l-0.00734,-0.1097l-0.00547,-0.1097l-0.0036,-0.1097l-0.00172,-0.1097l0.00015,-0.1097l0.00201,-0.1097l0.0039,-0.1097l0.00576,-0.1097l0.00764,-0.1097l0.0095,-0.1097l0.01137,-0.1097l0.01323,-0.10971l0.0151,-0.1097l0.01696,-0.1097l0.01882,-0.1097l0.02067,-0.1097l0.02251,-0.1097l0.02435,-0.1097l0.02619,-0.1097l0.02803,-0.1097l0.02985,-0.1097l0.03167,-0.1097l0.03348,-0.1097l0.0353,-0.1097l0.0371,-0.1097l0.03889,-0.1097l0.04068,-0.1097l0.04246,-0.1097l0.04424,-0.1097l0.04599,-0.10971l0.04774,-0.1097l0.04949,-0.1097l0.05122,-0.1097l0.05295,-0.1097l0.05466,-0.1097l0.05635,-0.1097l0.05804,-0.1097l0.05973,-0.1097l0.06139,-0.1097l0.06305,-0.1097l0.06469,-0.1097l0.06632,-0.1097l0.06794,-0.1097l0.06954,-0.1097l0.07112,-0.1097l0.07271,-0.1097l0.07426,-0.1097l0.07581,-0.10971l0.07734,-0.1097l0.07885,-0.1097l0.08036,-0.1097l0.08183,-0.1097l0.0833,-0.1097l0.08476,-0.1097l0.08618,-0.1097l0.08761,-0.1097l0.08901,-0.1097l0.09038,-0.1097l0.09175,-0.1097l0.0931,-0.1097l0.09442,-0.1097l0.09573,-0.1097l0.09703,-0.1097l0.0983,-0.1097l0.09955,-0.1097l0.10078,-0.10971l0.10199,-0.1097l0.10318,-0.1097l0.10435,-0.1097l0.1055,-0.1097l0.10663,-0.1097l0.10773,-0.1097l0.10883,-0.1097l0.10989,-0.1097l0.11093,-0.1097l0.11195,-0.1097l0.11295,-0.1097l0.11393,-0.1097l0.11488,-0.1097l0.11581,-0.1097l0.11672,-0.1097l0.1176,-0.1097l0.11847,-0.1097l0.11931,-0.10971l0.12012,-0.1097l0.1209,-0.1097l0.12167,-0.1097l0.12242,-0.1097l0.12314,-0.1097l0.12383,-0.1097l0.1245,-0.1097l0.12515,-0.1097l0.12576,-0.1097l0.12636,-0.1097l0.12694,-0.1097l0.12747,-0.1097l0.12799,-0.1097l0.12849,-0.1097l0.12895,-0.1097l0.12939,-0.1097l0.12982,-0.1097l0.13021,-0.10971l0.13056,-0.1097l0.13091,-0.1097l0.13122,-0.1097l0.13151,-0.1097l0.13178,-0.1097l0.13201,-0.1097l0.13223,-0.1097l0.1324,-0.1097l0.13256,-0.1097l0.13269,-0.1097l0.13279,-0.1097l0.13287,-0.1097l0.13292,-0.1097l0.13294,-0.1097l0.13294,-0.1097l0.13292,-0.1097l0.13287,-0.1097l0.13279,-0.10971l0.13268,-0.1097l0.13254,-0.1097l0.13238,-0.1097l0.1322,-0.1097l0.13198,-0.1097l0.13175,-0.1097" data-paper-data="{&quot;index&quot;:null}" fill="none" stroke="#228c77" stroke-width="12.5" stroke-linecap="round" stroke-linejoin="round"/>
      <path d="M125.45857,107.20486l0.13175,0.1097l0.13198,0.1097l0.1322,0.1097l0.13238,0.1097l0.13254,0.1097l0.13268,0.1097l0.13278,0.1097l0.13287,0.1097l0.13292,0.1097l0.13294,0.1097l0.13294,0.1097l0.13292,0.1097l0.13287,0.1097l0.13279,0.1097l0.13269,0.1097l0.13256,0.1097l0.1324,0.1097l0.13222,0.1097l0.13201,0.1097l0.13178,0.1097l0.13151,0.1097l0.13122,0.1097l0.1309,0.1097l0.13057,0.1097l0.13021,0.1097l0.12982,0.1097l0.12939,0.1097l0.12895,0.1097l0.12849,0.1097l0.12799,0.1097l0.12747,0.1097l0.12693,0.1097l0.12636,0.1097l0.12576,0.1097l0.12515,0.1097l0.12451,0.1097l0.12383,0.1097l0.12314,0.1097l0.12241,0.1097l0.12168,0.1097l0.1209,0.1097l0.12012,0.1097l0.11931,0.1097l0.11847,0.1097l0.1176,0.1097l0.11672,0.1097l0.11581,0.1097l0.11489,0.1097l0.11392,0.1097l0.11295,0.1097l0.11195,0.1097l0.11093,0.1097l0.10989,0.1097l0.10882,0.1097l0.10774,0.1097l0.10663,0.1097l0.1055,0.1097l0.10435,0.1097l0.10319,0.1097l0.10199,0.1097l0.10078,0.1097l0.09954,0.1097l0.0983,0.1097l0.09703,0.1097l0.09573,0.1097l0.09442,0.1097l0.0931,0.1097l0.09175,0.1097l0.09039,0.1097l0.089,0.1097l0.08761,0.1097l0.08619,0.1097l0.08476,0.1097l0.0833,0.1097l0.08183,0.1097l0.08036,0.1097l0.07886,0.1097l0.07734,0.1097l0.07581,0.1097l0.07426,0.1097l0.0727,0.1097l0.07113,0.1097l0.06953,0.1097l0.06794,0.1097l0.06632,0.1097l0.06469,0.1097l0.06305,0.1097l0.06139,0.1097l0.05972,0.1097l0.05804,0.1097l0.05636,0.1097l0.05466,0.1097l0.05294,0.1097l0.05122,0.1097l0.04949,0.1097l0.04774,0.1097l0.046,0.1097l0.04423,0.1097l0.04246,0.1097l0.04069,0.1097l0.03889,0.1097l0.03711,0.1097l0.0353,0.1097l0.03348,0.1097l0.03167,0.1097l0.02985,0.1097l0.02802,0.1097l0.02619,0.1097l0.02435,0.1097l0.02251,0.1097l0.02066,0.1097l0.01882,0.1097l0.01696,0.1097l0.0151,0.1097l0.01323,0.1097l0.01137,0.1097l0.0095,0.1097l0.00763,0.1097l0.00577,0.1097l0.0039,0.1097l0.00202,0.1097l0.00015,0.1097l-0.00172,0.1097l-0.0036,0.1097l-0.00547,0.1097l-0.00734,0.1097l-0.00921,0.1097l-0.01107,0.1097l-0.01294,0.1097l-0.0148,0.1097l-0.01666,0.1097l-0.01852,0.1097l-0.02037,0.1097l-0.02222,0.1097l-0.02405,0.1097l-0.0259,0.1097l-0.02773,0.1097l-0.02957,0.1097l-0.03138,0.1097l-0.0332,0.1097l-0.03501,0.1097l-0.03681,0.1097l-0.0386,0.1097l-0.0404,0.1097l-0.04217,0.1097l-0.04395,0.1097l-0.04571,0.1097l-0.04746,0.1097l-0.04921,0.1097l-0.05095,0.1097l-0.05267,0.1097l-0.05438,0.1097l-0.05609,0.1097l-0.05778,0.1097l-0.05946,0.1097l-0.06113,0.1097l-0.06279,0.1097l-0.06443,0.1097l-0.06606,0.1097l-0.06767,0.1097l-0.06928,0.1097l-0.07087,0.1097l-0.07246,0.1097l-0.07402,0.1097l-0.07556,0.1097l-0.07709,0.1097l-0.07861,0.1097l-0.08011,0.1097l-0.0816,0.1097l-0.08307,0.1097l-0.08453,0.1097l-0.08596,0.1097l-0.08738,0.1097l-0.08878,0.1097l-0.09018,0.1097l-0.09154,0.1097l-0.09288,0.1097l-0.09422,0.1097l-0.09553,0.1097l-0.09682,0.1097l-0.0981,0.1097l-0.09935,0.1097l-0.10058,0.1097l-0.10179,0.1097l-0.103,0.1097l-0.10417,0.1097l-0.10532,0.1097l-0.10645,0.1097l-0.10756,0.1097l-0.10866,0.1097l-0.10972,0.1097l-0.11077,0.1097l-0.11179,0.1097l-0.11279,0.1097l-0.11378,0.1097l-0.11473,0.1097l-0.11567,0.1097l-0.11657,0.1097l-0.11746,0.1097l-0.11833,0.1097l-0.11917,0.1097l-0.11999,0.1097l-0.12079,0.1097l-0.12156,0.1097l-0.1223,0.1097l-0.12303,0.1097l-0.12372,0.1097l-0.1244,0.1097l-0.12504,0.1097l-0.12567,0.1097l-0.12627,0.1097l-0.12684,0.1097l-0.12739,0.1097l-0.12791,0.1097l-0.12841,0.1097l-0.12888,0.1097l-0.12933,0.1097l-0.12975,0.1097l-0.13014,0.1097l-0.13051,0.1097l-0.13086,0.1097l-0.13118,0.1097l-0.13146,0.1097l-0.13173,0.1097l-0.13197,0.1097l-0.13218,0.1097l-0.13237,0.1097l-0.13253,0.1097l-0.13267,0.1097l-0.13277,0.1097l-0.13286,0.1097l-0.13292,0.1097l-0.13294,0.1097l-0.13294,0.1097l-0.13292,0.1097l-0.13287,0.1097l-0.13279,0.1097l-0.1327,0.1097l-0.13256,0.1097l-0.13241,0.1097l-0.13222,0.1097l-0.13202,0.1097l-0.13179,0.1097l-0.13153,0.1097l-0.13124,0.1097l-0.13093,0.1097l-0.13059,0.1097l-0.13023,0.1097l-0.12984,0.1097l-0.12942,0.1097l-0.12898,0.1097l-0.12851,0.1097l-0.12802,0.1097l-0.1275,0.1097l-0.12697,0.1097l-0.12638,0.1097l-0.12579,0.1097l-0.12518,0.1097l-0.12454,0.1097l-0.12387,0.1097l-0.12317,0.1097l-0.12246,0.1097l-0.12172,0.1097l-0.12096,0.1097l-0.12017,0.1097l-0.11935,0.1097l-0.11852,0.1097l-0.11765,0.1097l-0.11677,0.1097l-0.11587,0.1097l-0.11493,0.1097l-0.11398,0.1097l-0.11301,0.1097l-0.112,0.1097l-0.11099,0.1097l-0.10994,0.1097l-0.10888,0.1097l-0.1078,0.1097l-0.10669,0.1097l-0.10556,0.1097l-0.10441,0.1097l-0.10324,0.1097l-0.10206,0.1097l-0.10084,0.1097l-0.09961,0.1097l-0.09836,0.1097l-0.09709,0.1097l-0.0958,0.1097l-0.0945,0.1097l-0.09318,0.1097l-0.09182,0.1097l-0.09046,0.1097l-0.08908,0.1097l-0.08768,0.1097l-0.08627,0.1097l-0.08483,0.1097l-0.08338,0.1097l-0.08192,0.1097l-0.08043,0.1097l-0.07893,0.1097l-0.07742,0.1097l-0.07589,0.1097l-0.07434,0.1097l-0.07279,0.1097l-0.07121,0.1097l-0.06963,0.1097l-0.06802,0.1097l-0.06641,0.1097l-0.06478,0.1097l-0.06313,0.1097l-0.06149,0.1097l-0.05982,0.1097l-0.05813,0.1097l-0.05644,0.1097l-0.05475,0.1097l-0.05303,0.1097l-0.05131,0.1097l-0.04958,0.1097l-0.04783,0.1097l-0.04608,0.1097l-0.04433,0.1097l-0.04255,0.1097l-0.04078,0.1097l-0.039,0.1097l-0.0372,0.1097l-0.03539,0.1097l-0.03358,0.1097l-0.03177,0.1097l-0.02995,0.1097l-0.02812,0.1097l-0.02628,0.1097l-0.02444,0.1097l-0.02261,0.1097l-0.02076,0.1097l-0.01891,0.1097l-0.01705,0.1097l-0.01519,0.1097l-0.01334,0.1097l-0.01147,0.1097l-0.00961,0.1097l-0.00773,0.1097l-0.00586,0.1097l-0.00399,0.1097l-0.00212,0.1097l-0.00025,0.1097l0.00163,0.1097l0.0035,0.1097l0.00536,0.1097l0.00724,0.1097l0.00911,0.1097l0.01097,0.1097l0.01284,0.1097l0.0147,0.1097l0.01656,0.1097l0.01842,0.1097l0.02027,0.1097l0.02211,0.1097l0.02396,0.1097l0.02581,0.1097l0.02763,0.1097l0.02946,0.1097l0.03129,0.1097l0.0331,0.1097l0.03492,0.1097l0.03671,0.1097l0.03851,0.1097l0.0403,0.1097l0.04208,0.1097l0.04385,0.1097l0.04562,0.1097l0.04737,0.1097l0.04912,0.1097l0.05085,0.1097l0.05257,0.1097l0.0543,0.1097l0.056,0.1097l0.05769,0.1097l0.05938,0.1097l0.06103,0.1097l0.0627,0.1097l0.06434,0.1097l0.06597,0.1097l0.06759,0.1097l0.0692,0.1097l0.07079,0.1097l0.07237,0.1097l0.07394,0.1097l0.07548,0.1097l0.07702,0.1097l0.07853,0.1097l0.08004,0.1097l0.08152,0.1097l0.083,0.1097l0.08444,0.1097l0.08589,0.1097l0.0873,0.1097l0.08871,0.1097l0.0901,0.1097l0.09146,0.1097l0.09282,0.1097l0.09415,0.1097l0.09546,0.1097l0.09676,0.1097l0.09802,0.1097l0.09929,0.1097l0.10051,0.1097l0.10174,0.1097l0.10293,0.1097l0.1041,0.1097l0.10526,0.1097l0.1064,0.1097l0.1075,0.1097l0.10859,0.1097l0.10966,0.1097l0.11071,0.1097l0.11174,0.1097l0.11274,0.1097l0.11372,0.1097l0.11468,0.1097l0.11561,0.1097l0.11653,0.1097l0.11742,0.1097l0.11829,0.1097l0.11913,0.1097l0.11994,0.1097l0.12075,0.1097l0.12152,0.1097l0.12227,0.1097l0.12298,0.1097l0.12368,0.1097l0.12436,0.1097l0.12501,0.1097l0.12563,0.1097l0.12624,0.1097l0.12681,0.1097l0.12736,0.1097l0.12788,0.1097l0.12838,0.1097l0.12886,0.1097l0.12931,0.1097l0.12973,0.1097l0.13012,0.1097l0.13049,0.1097l0.13084,0.1097l0.13116,0.1097l0.13145,0.1097l0.13172,0.1097l0.13196,0.1097l0.13217,0.1097l0.13236,0.1097l0.13252,0.1097l0.13267,0.1097l0.13277,0.1097l0.13286,0.1097l0.13291,0.1097l0.13294,0.1097l0.13294,0.1097l0.13292,0.1097l0.13288,0.1097l0.1328,0.1097l0.1327,0.1097l0.13257,0.1097l0.13242,0.1097l0.13223,0.1097l0.13203,0.1097l0.1318,0.1097l0.13154,0.1097l0.13125,0.1097l0.13095,0.1097l0.13061,0.1097l0.13025,0.1097l0.12986,0.1097l0.12945,0.1097l0.129,0.1097l0.12854,0.1097l0.12804,0.1097l0.12754,0.1097l0.12699,0.1097l0.12642,0.1097l0.12582,0.1097l0.12521,0.1097l0.12457,0.1097l0.1239,0.1097l0.12322,0.1097l0.1225,0.1097l0.12176,0.1097l0.12099,0.1097l0.12021,0.1097l0.11939,0.1097l0.11856,0.1097l0.1177,0.1097l0.11682,0.1097l0.11591,0.1097l0.11498,0.1097l0.11403,0.1097l0.11306,0.1097l0.11206,0.1097l0.11104,0.1097l0.11,0.1097l0.10894,0.1097l0.10785,0.1097l0.10674,0.1097l0.10562,0.1097l0.10447,0.1097l0.1033,0.1097l0.10212,0.1097l0.1009,0.1097l0.09968,0.1097l0.09843,0.1097l0.09716,0.1097l0.09587,0.1097l0.09457,0.1097l0.09324,0.1097l0.0919,0.1097l0.09054,0.1097l0.08915,0.1097l0.08776,0.1097l0.08634,0.1097l0.08491,0.1097l0.08346,0.1097l0.08199,0.1097l0.08051,0.1097l0.07902,0.1097l0.07749,0.1097l0.07597,0.1097l0.07442,0.1097l0.07287,0.1097l0.0713,0.1097l0.0697,0.1097l0.06811,0.1097l0.06649,0.1097l0.06487,0.1097l0.06322,0.1097l0.06157,0.1097l0.0599,0.1097l0.05822,0.1097l0.05653,0.1097l0.05483,0.1097l0.05312,0.1097l0.0514,0.1097l0.04967,0.1097l0.04793,0.1097l0.04618,0.1097l0.04441,0.1097l0.04265,0.1097l0.04088,0.1097l0.03908,0.1097l0.0373,0.1097l0.03549,0.1097l0.03368,0.1097l0.03187,0.1097l0.03004,0.1097l0.02823,0.1097l0.02639,0.1097l0.02455,0.1097l0.0227,0.1097l0.02085,0.1097l0.01901,0.1097l0.01715,0.1097l0.01529,0.1097l0.01343,0.1097l0.01156,0.1097l0.0097,0.1097l0.00784,0.1097l0.00597,0.1097l0.0041,0.1097l0.00222,0.1097l0.00035,0.1097l-0.00152,0.1097l-0.0034,0.1097l-0.00527,0.1097l-0.00714,0.1097l-0.00901,0.1097l-0.01088,0.1097l-0.01273,0.1097l-0.0146,0.1097l-0.01646,0.1097l-0.01832,0.1097l-0.02017,0.1097l-0.02202,0.1097l-0.02386,0.1097l-0.0257,0.1097l-0.02754,0.1097l-0.02937,0.1097l-0.03119,0.1097l-0.03301,0.1097l-0.03482,0.1097l-0.03662,0.1097l-0.03843,0.1097l-0.04021,0.1097l-0.04199,0.1097l-0.04376,0.1097l-0.04552,0.1097l-0.04728,0.1097l-0.04903,0.1097l-0.05076,0.1097l-0.05249,0.1097l-0.0542,0.1097l-0.0559,0.1097l-0.0576,0.1097l-0.05928,0.1097l-0.06095,0.1097l-0.06261,0.1097l-0.06425,0.1097l-0.06589,0.1097l-0.06751,0.1097l-0.06911,0.1097l-0.07071,0.1097l-0.07228,0.1097l-0.07385,0.1097l-0.0754,0.1097l-0.07694,0.1097l-0.07846,0.1097l-0.07996,0.1097l-0.08144,0.1097l-0.08292,0.1097l-0.08437,0.1097l-0.08581,0.1097l-0.08723,0.1097l-0.08863,0.1097l-0.09003,0.1097l-0.09139,0.1097l-0.09274,0.1097l-0.09407,0.1097l-0.09539,0.1097l-0.09668,0.1097l-0.09796,0.1097l-0.09922,0.1097l-0.10045,0.1097l-0.10167,0.1097l-0.10287,0.1097l-0.10404,0.1097l-0.10519,0.1097l-0.10633,0.1097l-0.10745,0.1097l-0.10854,0.1097l-0.10961,0.1097l-0.11065,0.1097l-0.11169,0.1097l-0.11269,0.1097l-0.11367,0.1097l-0.11463,0.1097l-0.11557,0.1097l-0.11648,0.1097l-0.11738,0.1097l-0.11824,0.1097l-0.11909,0.1097l-0.11991,0.1097l-0.1207,0.1097l-0.12147,0.1097l-0.12222,0.1097l-0.12295,0.1097l-0.12365,0.1097l-0.12433,0.1097l-0.12497,0.1097l-0.1256,0.1097l-0.12621,0.1097l-0.12679,0.1097l-0.12733,0.1097l-0.12785,0.1097l-0.12836,0.1097l-0.12883,0.1097l-0.12928,0.1097l-0.12971,0.1097l-0.1301,0.1097l-0.13048,0.1097l-0.13082,0.1097l-0.13115,0.1097l-0.13144,0.1097l-0.13171,0.1097l-0.13195,0.1097l-0.13216,0.1097l-0.13235,0.1097l-0.13252,0.1097l-0.13266,0.1097l-0.13277,0.1097l-0.13285,0.1097l-0.13291,0.1097l-0.13294,0.1097l-0.13294,0.1097l-0.13292,0.1097l-0.13288,0.1097l-0.1328,0.1097l-0.13271,0.1097l-0.13258,0.1097l-0.13242,0.1097l-0.13224,0.1097l-0.13204,0.1097l-0.13181,0.1097l-0.13155,0.1097l-0.13127,0.1097l-0.13096,0.1097l-0.13063,0.1097l-0.13026,0.1097l-0.12988,0.1097l-0.12947,0.1097l-0.12902,0.1097l-0.12856,0.1097l-0.12807,0.1097l-0.12756,0.1097l-0.12702,0.1097l-0.12645,0.1097l-0.12586,0.1097l-0.12524,0.1097l-0.1246,0.1097l-0.12393,0.1097l-0.12325,0.1097l-0.12254,0.1097l-0.1218,0.1097l-0.12103,0.1097l-0.12025,0.1097l-0.11944,0.1097l-0.1186,0.1097l-0.11775,0.1097l-0.11686,0.1097l-0.11596,0.1097l-0.11503,0.1097l-0.11408,0.1097l-0.11311,0.1097l-0.11212,0.1097l-0.11109,0.1097l-0.11006,0.1097l-0.10899,0.1097l-0.10792,0.1097l-0.10681,0.1097l-0.10568,0.1097l-0.10454,0.1097l-0.10337,0.1097l-0.10218,0.1097l-0.10097,0.1097l-0.09974,0.1097l-0.0985,0.1097l-0.09723,0.1097l-0.09594,0.1097l-0.09463,0.1097l-0.09331,0.1097l-0.09197,0.1097l-0.09061,0.1097l-0.08923,0.1097l-0.08783,0.1097l-0.08642,0.1097l-0.08499,0.1097l-0.08353,0.1097l-0.08207,0.1097l-0.08059,0.1097l-0.07909,0.1097l-0.07758,0.1097l-0.07605,0.1097l-0.07451,0.1097l-0.07295,0.1097l-0.07138,0.1097l-0.0698,0.1097l-0.06819,0.1097l-0.06658,0.1097l-0.06495,0.1097l-0.06331,0.1097l-0.06166,0.1097l-0.06,0.1097l-0.05831,0.1097l-0.05663,0.1097l-0.05493,0.1097l-0.05322,0.1097l-0.0515,0.1097l-0.04977,0.1097l-0.04802,0.1097l-0.04627,0.1097l-0.04451,0.1097l-0.04274,0.1097l-0.04096,0.1097l-0.03918,0.1097l-0.03738,0.1097l-0.03558,0.1097l-0.03378,0.1097l-0.03196,0.1097l-0.03015,0.1097l-0.02832,0.1097l-0.02648,0.1097l-0.02465,0.1097l-0.02281,0.1097l-0.02096,0.1097l-0.01911,0.1097l-0.01725,0.1097l-0.0154,0.1097l-0.01353,0.1097l-0.01167,0.1097l-0.0098,0.1097l-0.00793,0.1097l-0.00606,0.1097l-0.00419,0.1097l-0.00232,0.1097l-0.00044,0.1097l0.00143,0.1097l0.00329,0.1097l0.00516,0.1097l0.00704,0.1097l0.00891,0.1097l0.01077,0.1097l0.01264,0.1097l0.0145,0.1097l0.01637,0.1097l0.01821,0.1097l0.02007,0.1097l0.02192,0.1097l0.02377,0.1097l0.02561,0.1097l0.02744,0.1097l0.02927,0.1097l0.0311,0.1097l0.03291,0.1097l0.03473,0.1097l0.03652,0.1097l0.03832,0.1097l0.04011,0.1097l0.0419,0.1097l0.04366,0.1097l0.04543,0.1097l0.04719,0.1097l0.04893,0.1097l0.05066,0.1097l0.0524,0.1097l0.05411,0.1097l0.05582,0.1097l0.05751,0.1097l0.0592,0.1097l0.06086,0.1097l0.06252,0.1097l0.06417,0.1097l0.06581,0.1097l0.06742,0.1097l0.06903,0.1097l0.07062,0.1097l0.0722,0.1097l0.07377,0.1097l0.07532,0.1097l0.07685,0.1097l0.07837,0.1097l0.07987,0.1097l0.08136,0.1097l0.08284,0.1097l0.0843,0.1097l0.08573,0.1097l0.08716,0.1097l0.08856,0.1097l0.08995,0.1097l0.09132,0.1097l0.09267,0.1097l0.09401,0.1097l0.09532,0.1097l0.09662,0.1097l0.0979,0.1097l0.09915,0.1097l0.10039,0.1097l0.1016,0.1097l0.10281,0.1097l0.10398,0.1097l0.10514,0.1097l0.10627,0.1097l0.10739,0.1097l0.10848,0.1097l0.10955,0.1097l0.1106,0.1097l0.11163,0.1097l0.11264,0.1097l0.11362,0.1097l0.11458,0.1097l0.11552,0.1097l0.11644,0.1097l0.11732,0.1097l0.1182,0.1097l0.11905,0.1097l0.11986,0.1097l0.12066,0.1097l0.12143,0.1097l0.12218,0.1097l0.12291,0.1097l0.12361,0.1097l0.12429,0.1097l0.12494,0.1097l0.12557,0.1097l0.12617,0.1097l0.12675,0.1097l0.1273,0.1097l0.12783,0.1097l0.12833,0.1097l0.1288,0.1097l0.12926,0.1097l0.12969,0.1097l0.13008,0.1097l0.13046,0.1097l0.13081,0.1097l0.13113,0.1097l0.13142,0.1097l0.1317,0.1097l0.13194,0.1097l0.13215,0.1097l0.13235,0.1097l0.13251,0.1097l0.13265,0.1097l0.13276,0.1097l0.13285,0.1097l0.13291,0.1097l0.13294,0.1097l0.13294,0.1097l0.13293,0.1097l0.13288,0.1097l0.13282,0.1097l0.13271,0.1097l0.13258,0.1097l0.13244,0.1097l0.13226,0.1097l0.13205,0.1097l0.13182,0.1097l0.13157,0.1097l0.13128,0.1097l0.13098,0.1097l0.13064,0.1097l0.13029,0.1097l0.1299,0.1097l0.12949,0.1097l0.12905,0.1097l0.12859,0.1097l0.12811,0.1097l0.12759,0.1097l0.12705,0.1097l0.12648,0.1097l0.12589,0.1097l0.12528,0.1097l0.12464,0.1097l0.12398,0.1097l0.12329,0.1097l0.12257,0.1097l0.12183,0.1097l0.12107,0.1097l0.12029,0.1097l0.11948,0.1097l0.11864,0.1097l0.11779,0.1097l0.11691,0.1097l0.116,0.1097l0.11508,0.1097l0.11413,0.1097l0.11316,0.1097l0.11217,0.1097l0.11115,0.1097l0.11011,0.1097l0.10906,0.1097l0.10797,0.1097l0.10687,0.1097l0.10574,0.1097l0.1046,0.1097l0.10343,0.1097l0.10225,0.1097l0.10104,0.1097l0.09981,0.1097l0.09856,0.1097l0.09729,0.1097l0.09601,0.1097l0.09471,0.1097l0.09338,0.1097l0.09204,0.1097l0.09068,0.1097l0.0893,0.1097l0.08791,0.1097l0.08649,0.1097l0.08507,0.1097l0.08362,0.1097l0.08215,0.1097l0.08067,0.1097l0.07917,0.1097l0.07766,0.1097l0.07613,0.1097l0.07459,0.1097l0.07303,0.1097l0.07147,0.1097l0.06987,0.1097l0.06828,0.1097l0.06666,0.1097l0.06503,0.1097l0.0634,0.1097l0.06174,0.1097l0.06008,0.1097l0.0584,0.1097l0.05671,0.1097l0.05501,0.1097l0.0533,0.1097l0.05158,0.1097l0.04985,0.1097l0.04812,0.1097l0.04637,0.1097l0.0446,0.1097l0.04284,0.1097l0.04105,0.1097l0.03927,0.1097l0.03748,0.1097l0.03568,0.1097l0.03387,0.1097l0.03206,0.1097l0.03024,0.1097l0.02842,0.1097l0.02659,0.1097l0.02475,0.1097l0.0229,0.1097l0.02106,0.1097l0.01921,0.1097l0.01735,0.1097l0.01549,0.1097l0.01363,0.1097l0.01176,0.1097l0.0099,0.1097l0.00804,0.1097l0.00616,0.1097l0.0043,0.1097l0.00242,0.1097l0.00055,0.1097l-0.00133,0.1097l-0.0032,0.1097l-0.00507,0.1097l-0.00694,0.1097l-0.00881,0.1097l-0.01068,0.1097l-0.01254,0.1097l-0.0144,0.1097l-0.01626,0.1097l-0.01812,0.1097l-0.01998,0.1097l-0.02183,0.1097l-0.02367,0.1097l-0.02551,0.1097l-0.02735,0.1097l-0.02918,0.1097l-0.031,0.1097l-0.03282,0.1097l-0.03462,0.1097l-0.03643,0.1097l-0.03822,0.1097l-0.04002,0.1097l-0.04179,0.1097l-0.04358,0.1097l-0.04534,0.1097l-0.04709,0.1097l-0.04884,0.1097l-0.05058,0.1097l-0.0523,0.1097l-0.05402,0.1097l-0.05572,0.1097l-0.05742,0.1097l-0.0591,0.1097l-0.06077,0.1097l-0.06244,0.1097l-0.06408,0.1097l-0.06571,0.1097l-0.06734,0.1097l-0.06894,0.1097l-0.07054,0.1097l-0.07212,0.1097l-0.07368,0.1097l-0.07524,0.1097l-0.07678,0.1097l-0.07829,0.1097l-0.0798,0.1097l-0.08129,0.1097l-0.08276,0.1097l-0.08422,0.1097l-0.08566,0.1097l-0.08708,0.1097l-0.08849,0.1097l-0.08988,0.1097l-0.09124,0.1097l-0.09261,0.1097l-0.09394,0.1097l-0.09526,0.1097l-0.09655,0.1097l-0.09782,0.1097l-0.09909,0.1097l-0.10032,0.1097l-0.10154,0.1097l-0.10274,0.1097l-0.10391,0.1097l-0.10508,0.1097l-0.10621,0.1097l-0.10732,0.1097l-0.10842,0.1097l-0.10949,0.1097l-0.11055,0.1097l-0.11157,0.1097l-0.11258,0.1097l-0.11357,0.1097l-0.11453,0.1097l-0.11547,0.1097l-0.11638,0.1097l-0.11728,0.1097l-0.11815,0.1097l-0.11899,0.1097l-0.11982,0.1097l-0.12062,0.1097l-0.1214,0.1097l-0.12215,0.1097l-0.12287,0.1097l-0.12358,0.1097l-0.12425,0.1097l-0.12491,0.1097l-0.12554,0.1097l-0.12614,0.1097l-0.12672,0.1097l-0.12727,0.1097l-0.1278,0.1097l-0.12831,0.1097l-0.12878,0.1097l-0.12924,0.1097l-0.12967,0.1097l-0.13006,0.1097l-0.13044,0.1097l-0.13079,0.1097l-0.1311,0.1097l-0.13141,0.1097l-0.13167,0.1097l-0.13193,0.1097l-0.13214,0.1097l-0.13234,0.1097l-0.1325,0.1097l-0.13265,0.1097l-0.13275,0.1097l-0.13285,0.1097l-0.1329,0.1097l-0.13294,0.1097l-0.13294,0.1097l-0.13293,0.1097l-0.13289,0.1097l-0.13282,0.1097l-0.13272,0.1097l-0.13259,0.1097l-0.13245,0.1097l-0.13227,0.1097l-0.13207,0.1097l-0.13183,0.1097l-0.13158,0.1097l-0.13131,0.1097l-0.131,0.1097l-0.13066,0.1097l-0.1303,0.1097l-0.12992,0.1097l-0.12951,0.1097l-0.12908,0.1097l-0.12861,0.1097l-0.12813,0.1097l-0.12761,0.1097l-0.12708,0.1097l-0.12651,0.1097l-0.12592,0.1097l-0.12531,0.1097l-0.12467,0.1097l-0.12401,0.1097l-0.12332,0.1097l-0.12261,0.1097l-0.12188,0.1097l-0.12112,0.1097l-0.12033,0.1097l-0.11952,0.1097l-0.1187,0.1097l-0.11783,0.1097l-0.11696,0.1097l-0.11606,0.1097l-0.11513,0.1097l-0.11418,0.1097l-0.11321,0.1097l-0.11221,0.1097l-0.1112,0.1097l-0.11017,0.1097l-0.10911,0.1097l-0.10802,0.1097l-0.10692,0.1097l-0.1058,0.1097l-0.10465,0.1097l-0.10349,0.1097l-0.10231,0.1097l-0.10109,0.1097l-0.09988,0.1097l-0.09863,0.1097l-0.09737,0.1097l-0.09608,0.1097l-0.09477,0.1097l-0.09345,0.1097l-0.09211,0.1097l-0.09075,0.1097l-0.08937,0.1097l-0.08798,0.1097l-0.08657,0.1097l-0.08514,0.1097l-0.08369,0.1097l-0.08223,0.1097l-0.08075,0.1097l-0.07926,0.1097l-0.07774,0.1097l-0.07622,0.1097l-0.07468,0.1097l-0.07312,0.1097l-0.07155,0.1097l-0.06997,0.1097l-0.06836,0.1097l-0.06675,0.1097l-0.06512,0.1097l-0.06348,0.1097l-0.06184,0.1097l-0.06017,0.1097l-0.0585,0.1097l-0.05681,0.1097l-0.05511,0.1097l-0.0534,0.1097l-0.05168,0.1097l-0.04995,0.1097l-0.0482,0.1097l-0.04646,0.1097l-0.0447,0.1097l-0.04293,0.1097l-0.04115,0.1097l-0.03937,0.1097l-0.03758,0.1097l-0.03577,0.1097l-0.03397,0.1097l-0.03215,0.1097l-0.03034,0.1097l-0.02851,0.1097l-0.02668,0.1097l-0.02485,0.1097l-0.023,0.1097l-0.02115,0.1097l-0.0193,0.1097l-0.01745,0.1097l-0.01559,0.1097l-0.01373,0.1097l-0.01187,0.1097l-0.01,0.1097l-0.00813,0.1097l-0.00626,0.1097l-0.00439,0.1097l-0.00251,0.1097l-0.00064,0.1097l0.00122,0.1097l0.0031,0.1097l0.00497,0.1097l0.00684,0.1097l0.00871,0.1097l0.01058,0.1097l0.01244,0.1097l0.01431,0.1097l0.01617,0.1097l0.01802,0.1097l0.01988,0.1097l0.02172,0.1097l0.02357,0.1097l0.02542,0.1097l0.02725,0.1097l0.02908,0.1097l0.03091,0.1097l0.03271,0.1097l0.03453,0.1097l0.03633,0.1097l0.03813,0.1097l0.03992,0.1097l0.04171,0.1097l0.04348,0.1097l0.04525,0.1097l0.047,0.1097l0.04875,0.1097l0.05048,0.1097l0.05222,0.1097l0.05393,0.1097l0.05564,0.1097l0.05733,0.1097l0.05902,0.1097l0.06068,0.1097l0.06234,0.1097l0.06399,0.1097l0.06563,0.1097l0.06725,0.1097l0.06886,0.1097l0.07045,0.1097l0.07204,0.1097l0.0736,0.1097l0.07515,0.1097l0.07669,0.1097l0.07821,0.1097l0.07972,0.1097l0.08121,0.1097l0.08268,0.1097l0.08415,0.1097l0.08558,0.1097l0.08701,0.1097l0.08841,0.1097l0.08981,0.1097l0.09118,0.1097l0.09253,0.1097l0.09386,0.1097l0.09518,0.1097l0.09648,0.1097l0.09776,0.1097l0.09901,0.1097l0.10026,0.1097l0.10148,0.1097l0.10268,0.1097l0.10385,0.1097l0.10501,0.1097l0.10615,0.1097l0.10727,0.1097l0.10837,0.1097l0.10944,0.1097l0.11049,0.1097l0.11152,0.1097l0.11253,0.1097l0.11351,0.1097l0.11447,0.1097l0.11541,0.1097l0.11633,0.1097l0.11723,0.1097l0.11811,0.1097l0.11895,0.1097l0.11977,0.1097l0.12058,0.1097l0.12135,0.1097l0.12211,0.1097l0.12284,0.1097l0.12353,0.1097l0.12422,0.1097l0.12487,0.1097l0.12551,0.1097l0.12611,0.1097" data-paper-data="{&quot;index&quot;:null}" fill="none" stroke="#228c77" stroke-width="12.5" stroke-linecap="round" stroke-linejoin="round"/>
      <path d="M110.78512,227.17898c0.57468,0.45619 1.56704,1.07826 2.97707,1.86622c1.41596,0.78796 2.76675,1.18194 4.05237,1.18194c1.29155,0 1.93731,-0.50062 1.93731,-1.50186c0,-0.45619 -0.18365,-0.85906 -0.55097,-1.2086c-0.36139,-0.34955 -1.02791,-0.74946 -1.99953,-1.19971c-0.97162,-0.45619 -1.70033,-0.81166 -2.18614,-1.06641c-0.48581,-0.26068 -1.13159,-0.68724 -1.93732,-1.2797c-0.79981,-0.59245 -1.41299,-1.2086 -1.83956,-1.84844c-1.2086,-1.72403 -1.8129,-3.92203 -1.8129,-6.59397c0,-2.67195 0.99236,-4.92326 2.97707,-6.75394c1.98471,-1.83659 4.58557,-2.7549 7.80257,-2.7549c2.18615,0 4.20345,0.23698 6.05189,0.71094c1.84844,0.46803 2.80229,1.08122 2.86154,1.83956c0,0.08887 0,0.17773 0,0.2666c0,1.06641 -0.33474,2.41128 -1.00421,4.03459c-0.66354,1.61739 -1.13158,2.51791 -1.4041,2.70157c-1.94324,-1.00124 -3.68209,-1.50186 -5.21653,-1.50186c-1.52853,0 -2.29279,0.54505 -2.29279,1.63517c0,0.66947 0.56283,1.26191 1.68849,1.77734c0.24291,0.12441 0.58949,0.29327 1.03975,0.50655c0.45619,0.20736 0.9805,0.45618 1.57295,0.74648c0.59245,0.2903 1.22934,0.65466 1.91066,1.09307c0.68132,0.43841 1.41892,1.02198 2.21281,1.75069c1.60554,1.51667 2.40831,3.51916 2.40831,6.00745c0,3.24663 -0.8946,5.90081 -2.68381,7.96254c-1.78921,2.06173 -4.55003,3.12222 -8.28247,3.18146c-1.81883,0 -3.46583,-0.15107 -4.94104,-0.45323c-1.46928,-0.30215 -2.75194,-0.89164 -3.84797,-1.76846c-1.09011,-0.88276 -1.63517,-1.94621 -1.63517,-3.19035c0,-1.24415 0.22809,-2.4794 0.68428,-3.70578c0.45619,-1.23229 0.94199,-2.04396 1.45743,-2.43498zM135.51448,235.59472c-1.89585,-2.09135 -2.84376,-4.98844 -2.84376,-8.69125c0,-3.70281 0.94792,-6.5999 2.84376,-8.69126c1.89585,-2.09134 4.45227,-3.13702 7.66927,-3.13702c3.21701,0 5.76455,1.04568 7.64262,3.13702c1.87807,2.09135 2.8171,4.98844 2.8171,8.69126c0,3.70281 -0.93903,6.5999 -2.8171,8.69125c-1.87807,2.09135 -4.42561,3.13703 -7.64262,3.13703c-3.21701,0 -5.77343,-1.04568 -7.66927,-3.13703zM143.20153,222.67339c-1.71218,0 -7.96828,1.19523 -7.96828,3.98567c0,2.79045 6.2561,4.38566 7.96828,4.38566c1.71811,0 2.57716,-1.39522 2.57716,-4.18566c0,-2.79045 -0.85905,-4.18567 -2.57716,-4.18567zM156.65216,215.8039c0,-0.33769 1.30339,-0.50654 3.91018,-0.50654c2.60679,0 3.91018,0.16885 3.91018,0.50654v13.28571c0,1.51667 0.4858,2.27501 1.45743,2.27501c0.72871,0 1.54926,-0.31993 2.46164,-0.95977v-14.60095c0,-0.30215 1.28859,-0.45322 3.86575,-0.45322c2.57716,0 3.86574,0.15107 3.86574,0.45322v14.92087h1.18194c1.03086,0 1.54629,0.98644 1.54629,2.95929c0,1.00124 -0.21032,2.01729 -0.63096,3.04816c-0.61023,1.33301 -1.43076,1.99952 -2.46163,1.99952c-2.03211,0 -3.53397,-0.83239 -4.50559,-2.49718l-0.04443,0.04443c-1.84844,1.63517 -3.83612,2.45275 -5.96302,2.45275c-2.93856,0 -5.10692,-0.73463 -6.50511,-2.20391c-1.39226,-1.46928 -2.08839,-3.90426 -2.08839,-7.30492zM191.13526,238.00304c0,0.21328 -1.09011,0.31992 -3.27033,0.31992c-3.03335,-0.08887 -4.55003,-0.25475 -4.55003,-0.49766v-14.74314h-1.18194c-0.78796,0 -1.30339,-0.66651 -1.5463,-1.99952c-0.06517,-0.39694 -0.09776,-0.79092 -0.09776,-1.18194c0,-0.94199 0.18366,-1.88399 0.55098,-2.82599c0.54505,-1.33301 1.39226,-1.99952 2.54162,-1.99952c1.15528,0 2.18614,0.27253 3.09259,0.81759c0.91237,0.54505 1.5226,1.0901 1.83067,1.63515c1.90769,-1.63516 4.17974,-2.45274 6.81615,-2.45274c2.64233,0 4.55299,0.71391 5.73196,2.14171c1.18491,1.42188 1.77736,3.75614 1.77736,7.00277v13.65007c0,0.36139 -1.29747,0.54209 -3.8924,0.54209c-2.58901,0 -3.88352,-0.1807 -3.88352,-0.54209v-13.15241c0,-1.51667 -0.53024,-2.27501 -1.59073,-2.27501c-0.30808,0 -0.73464,0.13034 -1.2797,0.39102c-0.54505,0.25475 -0.8946,0.44433 -1.04864,0.56875zM221.80452,206.01959c0.81758,0 1.7655,0.05332 2.84376,0.15996c1.07826,0.10664 1.61739,0.24883 1.61739,0.42656v23.98537h1.59073c0.75834,0 1.25896,0.68131 1.50186,2.04395c0.05924,0.39694 0.08887,0.93607 0.08887,1.61739c0,0.68132 -0.21032,1.50779 -0.63096,2.47941c-0.61023,1.33301 -1.58184,1.99952 -2.91486,1.99952c-1.00124,0 -1.88992,-0.1955 -2.66603,-0.58652c-0.77019,-0.39694 -1.29155,-0.8087 -1.56407,-1.23526l-0.40879,-0.58653c-1.67071,1.60554 -3.76503,2.40832 -6.28294,2.40832c-2.51792,0 -4.67147,-1.04568 -6.46068,-3.13703c-1.7892,-2.09135 -2.6838,-5.00917 -2.6838,-8.75346c0,-3.75021 0.93903,-6.6473 2.8171,-8.69126c1.884,-2.04987 4.23602,-3.07482 7.05609,-3.07482c0.81758,0 1.65294,0.09183 2.50607,0.27549v-8.64682c0,0 1.19676,-0.68427 3.59026,-0.68427zM216.71241,222.35347c-1.70033,0 -8.3505,1.53149 -8.3505,4.59446c0,1.54629 6.04291,2.66307 6.52872,3.35031c0.48581,0.68132 1.02494,1.02198 1.61739,1.02198c0.59245,0 1.1612,-0.25772 1.70626,-0.77315v-7.74037c-0.51543,-0.30215 -1.01605,-0.45323 -1.50187,-0.45323zM239.87449,206.88162c-0.09479,-0.33177 1.43669,-0.49766 4.59446,-0.49766c3.48361,0 5.27281,0.28734 5.3676,0.86202c0,0 1.61182,13.8449 1.96424,16.87208c0.12977,1.11471 0.57925,1.02862 0.872,-0.14939c0.77192,-3.10619 4.21096,-16.94486 4.21096,-16.94486c0.15404,-0.45619 1.33894,-0.68428 3.55471,-0.68428c2.21576,0 3.39771,0.21032 3.54582,0.63096c0,0 3.33141,13.73191 4.10307,16.91264c0.30323,1.2499 0.82135,1.23584 0.99277,-0.02014c0.43191,-3.16443 2.28017,-16.70588 2.28017,-16.70588c0.05924,-0.33177 0.75538,-0.55691 2.08839,-0.6754c1.33301,-0.12441 2.41127,-0.18662 3.23478,-0.18662c3.18146,0 4.72776,0.21032 4.63889,0.63096l-5.50979,30.17056c-0.11849,0.45619 -0.98347,0.79092 -2.59494,1.0042c-1.60554,0.20736 -2.90893,0.31104 -3.91017,0.31104c-3.76207,0 -5.73197,-0.4236 -5.9097,-1.2708l-3.10148,-12.51256l-3.3592,12.46813c-0.12441,0.54505 -1.18786,0.93903 -3.19034,1.18194c-1.03087,0.08887 -2.06173,0.1333 -3.0926,0.1333l-2.91486,-0.1333c-2.00248,-0.21328 -3.06297,-0.59245 -3.18146,-1.13751zM286.28076,221.75804c-0.8472,-1.51667 -1.2708,-2.75194 -1.2708,-3.70578c0,-0.95385 0.25772,-1.56703 0.77315,-1.83955c1.72403,-0.75834 4.09384,-1.13751 7.10941,-1.13751c3.0215,0 5.15432,0.70502 6.39847,2.11505c1.24415,1.41003 1.86622,3.49546 1.86622,6.25628v7.18939h1.54629c0.51543,0 0.9183,0.30511 1.2086,0.91533c0.2903,0.6043 0.43545,1.43669 0.43545,2.49718c0,1.06049 -0.26661,2.10616 -0.79981,3.13703c-0.53321,1.03087 -1.25303,1.5463 -2.15948,1.5463c-1.64109,0 -2.96226,-0.43842 -3.9635,-1.31524c-0.45026,-0.36732 -0.79684,-0.8087 -1.03975,-1.32413c-1.39819,1.75958 -3.56952,2.63937 -6.514,2.63937c-2.20984,0 -4.0731,-0.78796 -5.58978,-2.36388c-1.51668,-1.57592 -2.27501,-3.44214 -2.27501,-5.59866c0,-4.94104 2.95633,-7.41156 8.86899,-7.41156h2.50606v-0.46212c0,-0.78796 -0.13034,-1.2945 -0.39101,-1.51963c-0.25475,-0.22513 -0.85313,-0.33769 -1.79513,-0.33769c-1.15528,0 -2.79341,0.23994 -4.91438,0.71982zM289.92433,230.13824c0,0.66354 0.1807,1.17009 0.5421,1.51963c0.3614,0.34955 0.8235,0.52432 1.38633,0.52432c0.56283,0 1.07233,-0.22809 1.52852,-0.68428v-3.50138h-1.27969c-1.4515,0 -2.17726,0.7139 -2.17726,2.14171zM305.16546,215.66175c-0.09479,-0.24291 1.32117,-0.36436 4.24788,-0.36436c2.93263,0 4.39894,0.07701 4.39894,0.23105c0,0 1.89058,8.9443 2.48663,11.76416c0.33462,1.58306 1.13312,1.54437 1.39044,-0.04879c0.44992,-2.78561 1.8549,-11.48432 1.8549,-11.48432c0.08887,-0.27253 1.59073,-0.40879 4.50561,-0.40879c2.93856,0 4.36341,0.11849 4.27454,0.35547l-6.41626,22.25244c-0.21328,0.30215 -2.02026,0.45323 -5.42092,0.45323c-3.39475,0 -5.21357,-0.22513 -5.45648,-0.67539zM347.84431,237.05218c-1.91361,1.11973 -4.37229,1.6796 -7.37601,1.6796c-3.00372,0 -5.53645,-1.02198 -7.59819,-3.06593c-2.06173,-2.04988 -3.0926,-4.88772 -3.0926,-8.51352c0,-3.6258 0.99236,-6.54362 2.97707,-8.75346c1.99063,-2.21576 4.50263,-3.32364 7.53598,-3.32364c3.03335,0 5.37649,0.77315 7.02943,2.31944c1.65294,1.54629 2.47941,3.42733 2.47941,5.64309c0,4.91142 -2.82007,7.36713 -8.4602,7.36713h-3.14591c0,0.91237 0.24883,1.54334 0.74649,1.89288c0.50358,0.34955 1.24119,0.52432 2.21281,0.52432c2.1269,0 4.14419,-0.4858 6.05188,-1.45743c0.02963,-0.02963 0.16589,0.1807 0.40879,0.63096c0.72872,1.30932 1.09307,2.41127 1.09307,3.30587c0,0.8946 -0.28734,1.47817 -0.86201,1.75069zM342.15678,223.89977c0,-1.27377 -0.62207,-1.91066 -1.86622,-1.91066c-0.57468,0 -1.06937,0.17478 -1.48409,0.52432c-0.40879,0.34955 -0.61318,0.85609 -0.61318,1.51963v1.413h2.46163c1.00124,0 1.50186,-0.51543 1.50186,-1.5463zM353.71238,230.08496c2.45867,1.48705 4.39895,2.23058 5.82083,2.23058c0.91237,0 1.36856,-0.31696 1.36856,-0.95088c0,-0.45619 -0.78796,-1.04864 -2.36388,-1.77735c-3.79168,-1.54629 -5.68753,-4.07903 -5.68753,-7.59819c0,-2.24539 0.81758,-3.95757 2.45274,-5.13655c1.64109,-1.1849 3.60507,-1.77734 5.89193,-1.77734c2.29278,0 4.23306,0.24291 5.82083,0.72871c1.5937,0.4858 2.39054,1.12269 2.39054,1.91065c0,0.66354 -0.32585,1.54333 -0.97755,2.63936c-0.6517,1.09011 -1.099,1.6796 -1.3419,1.76847c-1.30339,-0.72279 -2.71342,-1.08418 -4.2301,-1.08418c-0.81758,0 -1.22637,0.28734 -1.22637,0.86201c0,0.36139 0.157,0.67243 0.471,0.93311c0.31993,0.25475 0.90349,0.57172 1.75069,0.95088c0.85313,0.37917 1.55815,0.72279 2.11505,1.03086c0.56283,0.30215 1.19379,0.72575 1.89288,1.27081c1.45743,1.14936 2.18614,2.65122 2.18614,4.50559c0,2.42312 -0.80573,4.3871 -2.4172,5.89192c-1.60554,1.4989 -4.03163,2.24835 -7.27826,2.24835c-2.1506,0 -4.10568,-0.36436 -5.86527,-1.09307c-1.75958,-0.72871 -2.63937,-1.72996 -2.63937,-3.00373c0,-0.84721 0.20439,-1.73884 0.61318,-2.67491c0.40879,-0.94199 0.82647,-1.56703 1.25304,-1.87511z" fill="none" stroke-opacity="0.50196" stroke="#000000" stroke-width="10" stroke-linecap="square" stroke-linejoin="miter"/>
      <path d="M110.78512,227.17898c0.57468,0.45619 1.56704,1.07826 2.97707,1.86622c1.41596,0.78796 2.76675,1.18194 4.05237,1.18194c1.29155,0 1.93731,-0.50062 1.93731,-1.50186c0,-0.45619 -0.18365,-0.85906 -0.55097,-1.2086c-0.36139,-0.34955 -1.02791,-0.74946 -1.99953,-1.19971c-0.97162,-0.45619 -1.70033,-0.81166 -2.18614,-1.06641c-0.48581,-0.26068 -1.13159,-0.68724 -1.93732,-1.2797c-0.79981,-0.59245 -1.41299,-1.2086 -1.83956,-1.84844c-1.2086,-1.72403 -1.8129,-3.92203 -1.8129,-6.59397c0,-2.67195 0.99236,-4.92326 2.97707,-6.75394c1.98471,-1.83659 4.58557,-2.7549 7.80257,-2.7549c2.18615,0 4.20345,0.23698 6.05189,0.71094c1.84844,0.46803 2.80229,1.08122 2.86154,1.83956c0,0.08887 0,0.17773 0,0.2666c0,1.06641 -0.33474,2.41128 -1.00421,4.03459c-0.66354,1.61739 -1.13158,2.51791 -1.4041,2.70157c-1.94324,-1.00124 -3.68209,-1.50186 -5.21653,-1.50186c-1.52853,0 -2.29279,0.54505 -2.29279,1.63517c0,0.66947 0.56283,1.26191 1.68849,1.77734c0.24291,0.12441 0.58949,0.29327 1.03975,0.50655c0.45619,0.20736 0.9805,0.45618 1.57295,0.74648c0.59245,0.2903 1.22934,0.65466 1.91066,1.09307c0.68132,0.43841 1.41892,1.02198 2.21281,1.75069c1.60554,1.51667 2.40831,3.51916 2.40831,6.00745c0,3.24663 -0.8946,5.90081 -2.68381,7.96254c-1.78921,2.06173 -4.55003,3.12222 -8.28247,3.18146c-1.81883,0 -3.46583,-0.15107 -4.94104,-0.45323c-1.46928,-0.30215 -2.75194,-0.89164 -3.84797,-1.76846c-1.09011,-0.88276 -1.63517,-1.94621 -1.63517,-3.19035c0,-1.24415 0.22809,-2.4794 0.68428,-3.70578c0.45619,-1.23229 0.94199,-2.04396 1.45743,-2.43498zM135.51448,235.59472c-1.89585,-2.09135 -2.84376,-4.98844 -2.84376,-8.69125c0,-3.70281 0.94792,-6.5999 2.84376,-8.69126c1.89585,-2.09134 4.45227,-3.13702 7.66927,-3.13702c3.21701,0 5.76455,1.04568 7.64262,3.13702c1.87807,2.09135 2.8171,4.98844 2.8171,8.69126c0,3.70281 -0.93903,6.5999 -2.8171,8.69125c-1.87807,2.09135 -4.42561,3.13703 -7.64262,3.13703c-3.21701,0 -5.77343,-1.04568 -7.66927,-3.13703zM143.20153,222.67339c-1.71218,0 -2.56827,1.39523 -2.56827,4.18567c0,2.79045 0.8561,4.18567 2.56828,4.18567c1.71811,0 2.57716,-1.39522 2.57716,-4.18566c0,-2.79045 -0.85905,-4.18567 -2.57716,-4.18567zM156.65216,215.8039c0,-0.33769 1.30339,-0.50654 3.91018,-0.50654c2.60679,0 3.91018,0.16885 3.91018,0.50654v13.28571c0,1.51667 0.4858,2.27501 1.45743,2.27501c0.72871,0 1.54926,-0.31993 2.46164,-0.95977v-14.60095c0,-0.30215 1.28859,-0.45322 3.86575,-0.45322c2.57716,0 3.86574,0.15107 3.86574,0.45322v14.92087h1.18194c1.03086,0 1.54629,0.98644 1.54629,2.95929c0,1.00124 -0.21032,2.01729 -0.63096,3.04816c-0.61023,1.33301 -1.43076,1.99952 -2.46163,1.99952c-2.03211,0 -3.53397,-0.83239 -4.50559,-2.49718l-0.04443,0.04443c-1.84844,1.63517 -3.83612,2.45275 -5.96302,2.45275c-2.93856,0 -5.10692,-0.73463 -6.50511,-2.20391c-1.39226,-1.46928 -2.08839,-3.90426 -2.08839,-7.30492zM191.13526,238.00304c0,0.21328 -1.09011,0.31992 -3.27033,0.31992c-3.03335,-0.08887 -4.55003,-0.25475 -4.55003,-0.49766v-14.74314h-1.18194c-0.78796,0 -1.30339,-0.66651 -1.5463,-1.99952c-0.06517,-0.39694 -0.09776,-0.79092 -0.09776,-1.18194c0,-0.94199 0.18366,-1.88399 0.55098,-2.82599c0.54505,-1.33301 1.39226,-1.99952 2.54162,-1.99952c1.15528,0 2.18614,0.27253 3.09259,0.81759c0.91237,0.54505 1.5226,1.0901 1.83067,1.63515c1.90769,-1.63516 4.17974,-2.45274 6.81615,-2.45274c2.64233,0 4.55299,0.71391 5.73196,2.14171c1.18491,1.42188 1.77736,3.75614 1.77736,7.00277v13.65007c0,0.36139 -1.29747,0.54209 -3.8924,0.54209c-2.58901,0 -3.88352,-0.1807 -3.88352,-0.54209v-13.15241c0,-1.51667 -0.53024,-2.27501 -1.59073,-2.27501c-0.30808,0 -0.73464,0.13034 -1.2797,0.39102c-0.54505,0.25475 -0.8946,0.44433 -1.04864,0.56875zM218.21427,206.70387c0,-0.45619 1.19675,-0.68428 3.59025,-0.68428c0.81758,0 1.7655,0.05332 2.84376,0.15996c1.07826,0.10664 1.61739,0.24883 1.61739,0.42656v23.98537h1.59073c0.75834,0 1.25896,0.68131 1.50186,2.04395c0.05924,0.39694 0.08887,0.93607 0.08887,1.61739c0,0.68132 -0.21032,1.50779 -0.63096,2.47941c-0.61023,1.33301 -1.58184,1.99952 -2.91486,1.99952c-1.00124,0 -1.88992,-0.1955 -2.66603,-0.58652c-0.77019,-0.39694 -1.29155,-0.8087 -1.56407,-1.23526l-0.40879,-0.58653c-1.67071,1.60554 -3.76503,2.40832 -6.28294,2.40832c-2.51792,0 -4.67147,-1.04568 -6.46068,-3.13703c-1.7892,-2.09135 -2.6838,-5.00917 -2.6838,-8.75346c0,-3.75021 0.93903,-6.6473 2.8171,-8.69126c1.884,-2.04987 4.23602,-3.07482 7.05609,-3.07482c0.81758,0 1.65294,0.09183 2.50607,0.27549v-8.64682zM216.71241,222.35347c-1.70033,0 -2.5505,1.53149 -2.5505,4.59446c0,1.54629 0.24291,2.66307 0.72872,3.35031c0.48581,0.68132 1.02494,1.02198 1.61739,1.02198c0.59245,0 1.1612,-0.25772 1.70626,-0.77315v-7.74037c-0.51543,-0.30215 -1.01605,-0.45323 -1.50187,-0.45323zM239.87449,206.88162c-0.09479,-0.33177 1.43669,-0.49766 4.59446,-0.49766c3.48361,0 5.27281,0.28734 5.3676,0.86202l2.23058,19.15985l4.81662,-19.38202c0.15404,-0.45619 1.33894,-0.68428 3.55471,-0.68428c2.21576,0 3.39771,0.21032 3.54582,0.63096l4.73665,19.52421l2.63937,-19.33759c0.05924,-0.33177 0.75538,-0.55691 2.08839,-0.6754c1.33301,-0.12441 2.41127,-0.18662 3.23478,-0.18662c3.18146,0 4.72776,0.21032 4.63889,0.63096l-5.50979,30.17056c-0.11849,0.45619 -0.98347,0.79092 -2.59494,1.0042c-1.60554,0.20736 -2.90893,0.31104 -3.91017,0.31104c-3.76207,0 -5.73197,-0.4236 -5.9097,-1.2708l-3.10148,-12.51256l-3.3592,12.46813c-0.12441,0.54505 -1.18786,0.93903 -3.19034,1.18194c-1.03087,0.08887 -2.06173,0.1333 -3.0926,0.1333l-2.91486,-0.1333c-2.00248,-0.21328 -3.06297,-0.59245 -3.18146,-1.13751zM286.28076,221.75804c-0.8472,-1.51667 -1.2708,-2.75194 -1.2708,-3.70578c0,-0.95385 0.25772,-1.56703 0.77315,-1.83955c1.72403,-0.75834 4.09384,-1.13751 7.10941,-1.13751c3.0215,0 5.15432,0.70502 6.39847,2.11505c1.24415,1.41003 1.86622,3.49546 1.86622,6.25628v7.18939h1.54629c0.51543,0 0.9183,0.30511 1.2086,0.91533c0.2903,0.6043 0.43545,1.43669 0.43545,2.49718c0,1.06049 -0.26661,2.10616 -0.79981,3.13703c-0.53321,1.03087 -1.25303,1.5463 -2.15948,1.5463c-1.64109,0 -2.96226,-0.43842 -3.9635,-1.31524c-0.45026,-0.36732 -0.79684,-0.8087 -1.03975,-1.32413c-1.39819,1.75958 -3.56952,2.63937 -6.514,2.63937c-2.20984,0 -4.0731,-0.78796 -5.58978,-2.36388c-1.51668,-1.57592 -2.27501,-3.44214 -2.27501,-5.59866c0,-4.94104 2.95633,-7.41156 8.86899,-7.41156h2.50606v-0.46212c0,-0.78796 -0.13034,-1.2945 -0.39101,-1.51963c-0.25475,-0.22513 -0.85313,-0.33769 -1.79513,-0.33769c-1.15528,0 -2.79341,0.23994 -4.91438,0.71982zM289.92433,230.13824c0,0.66354 0.1807,1.17009 0.5421,1.51963c0.3614,0.34955 0.8235,0.52432 1.38633,0.52432c0.56283,0 1.07233,-0.22809 1.52852,-0.68428v-3.50138h-1.27969c-1.4515,0 -2.17726,0.7139 -2.17726,2.14171zM305.16546,215.66175c-0.09479,-0.24291 1.32117,-0.36436 4.24788,-0.36436c2.93263,0 4.39894,0.07701 4.39894,0.23105l3.27033,15.47185l2.46164,-15.24079c0.08887,-0.27253 1.59073,-0.40879 4.50561,-0.40879c2.93856,0 4.36341,0.11849 4.27454,0.35547l-6.41626,22.25244c-0.21328,0.30215 -2.02026,0.45323 -5.42092,0.45323c-3.39475,0 -5.21357,-0.22513 -5.45648,-0.67539zM347.84431,237.05218c-1.91361,1.11973 -4.37229,1.6796 -7.37601,1.6796c-3.00372,0 -5.53645,-1.02198 -7.59819,-3.06593c-2.06173,-2.04988 -3.0926,-4.88772 -3.0926,-8.51352c0,-3.6258 0.99236,-6.54362 2.97707,-8.75346c1.99063,-2.21576 4.50263,-3.32364 7.53598,-3.32364c3.03335,0 5.37649,0.77315 7.02943,2.31944c1.65294,1.54629 2.47941,3.42733 2.47941,5.64309c0,4.91142 -2.82007,7.36713 -8.4602,7.36713h-3.14591c0,0.91237 0.24883,1.54334 0.74649,1.89288c0.50358,0.34955 1.24119,0.52432 2.21281,0.52432c2.1269,0 4.14419,-0.4858 6.05188,-1.45743c0.02963,-0.02963 0.16589,0.1807 0.40879,0.63096c0.72872,1.30932 1.09307,2.41127 1.09307,3.30587c0,0.8946 -0.28734,1.47817 -0.86201,1.75069zM342.15678,223.89977c0,-1.27377 -0.62207,-1.91066 -1.86622,-1.91066c-0.57468,0 -1.06937,0.17478 -1.48409,0.52432c-0.40879,0.34955 -0.61318,0.85609 -0.61318,1.51963v1.413h2.46163c1.00124,0 1.50186,-0.51543 1.50186,-1.5463zM353.71238,230.08496c2.45867,1.48705 4.39895,2.23058 5.82083,2.23058c0.91237,0 1.36856,-0.31696 1.36856,-0.95088c0,-0.45619 -0.78796,-1.04864 -2.36388,-1.77735c-3.79168,-1.54629 -5.68753,-4.07903 -5.68753,-7.59819c0,-2.24539 0.81758,-3.95757 2.45274,-5.13655c1.64109,-1.1849 3.60507,-1.77734 5.89193,-1.77734c2.29278,0 4.23306,0.24291 5.82083,0.72871c1.5937,0.4858 2.39054,1.12269 2.39054,1.91065c0,0.66354 -0.32585,1.54333 -0.97755,2.63936c-0.6517,1.09011 -1.099,1.6796 -1.3419,1.76847c-1.30339,-0.72279 -2.71342,-1.08418 -4.2301,-1.08418c-0.81758,0 -1.22637,0.28734 -1.22637,0.86201c0,0.36139 0.157,0.67243 0.471,0.93311c0.31993,0.25475 0.90349,0.57172 1.75069,0.95088c0.85313,0.37917 1.55815,0.72279 2.11505,1.03086c0.56283,0.30215 1.19379,0.72575 1.89288,1.27081c1.45743,1.14936 2.18614,2.65122 2.18614,4.50559c0,2.42312 -0.80573,4.3871 -2.4172,5.89192c-1.60554,1.4989 -4.03163,2.24835 -7.27826,2.24835c-2.1506,0 -4.10568,-0.36436 -5.86527,-1.09307c-1.75958,-0.72871 -2.63937,-1.72996 -2.63937,-3.00373c0,-0.84721 0.20439,-1.73884 0.61318,-2.67491c0.40879,-0.94199 0.82647,-1.56703 1.25304,-1.87511z" fill="#ffffff" stroke="none" stroke-width="1" stroke-linecap="square" stroke-linejoin="miter"/>
      <path d="M199.23728,159.37569c0,-22.15079 17.95677,-40.10756 40.10757,-40.10756c22.1508,0 40.10756,17.95677 40.10756,40.10757c0,22.15079 -17.95676,40.10757 -40.10756,40.10757c-22.1508,0 -40.10757,-17.95678 -40.10757,-40.10757z" fill-opacity="0.5098" fill="#000000" stroke="#000000" stroke-width="0" stroke-linecap="butt" stroke-linejoin="miter"/>
      <path d="M203.78385,159.37569c0,-19.63979 15.92121,-35.56099 35.56101,-35.56099c19.63979,0 35.561,15.92121 35.561,35.561c0,19.63979 -15.92119,35.561 -35.561,35.561c-19.63979,0 -35.56101,-15.92121 -35.56101,-35.561z" fill="#ffffff" stroke="#000000" stroke-width="0" stroke-linecap="butt" stroke-linejoin="miter"/>
      <path d="M208.49361,159.37569c0,-17.03867 13.81258,-30.85124 30.85125,-30.85124c17.03866,0 30.85124,13.81258 30.85124,30.85125c0,17.03867 -13.81256,30.85124 -30.85124,30.85124c-17.03866,0 -30.85125,-13.81258 -30.85125,-30.85124z" fill="#2bb39a" stroke="none" stroke-width="0" stroke-linecap="butt" stroke-linejoin="miter"/>
      <path d="M215.65081,163.32054l5.02536,-8.10541l8.75384,15.5624l9.7265,-23.18149l9.88862,22.85727l7.61909,-15.07607l5.99801,7.9433" data-paper-data="{&quot;index&quot;:null}" fill="none" stroke="#ffffff" stroke-width="5" stroke-linecap="round" stroke-linejoin="miter"/>
    </g>
  </g>
</svg>
