<?xml version="1.0" encoding="UTF-8"?>
<svg xmlns="http://www.w3.org/2000/svg" xmlns:xlink="http://www.w3.org/1999/xlink" width="600px" height="300px" viewBox="0 0 600 300" version="1.1">
<g id="surface1">
<rect x="0" y="0" width="600" height="300" style="fill:rgb(9.803922%,40%,34.117647%);fill-opacity:1;stroke:none;"/>
<path style="fill:none;stroke-width:7.5;stroke-linecap:round;stroke-linejoin:miter;stroke:rgb(18.823529%,78.823529%,67.843137%);stroke-opacity:1;stroke-miterlimit:10;" d="M 289.363718 254.788265 L 271.008249 254.788265 L 271.008249 232.353161 L 288.446426 232.353161 L 288.446426 209.918056 L 271.008249 209.918056 L 271.008249 186.922171 L 288.720072 186.922171 L 288.720072 164.205713 L 271.000541 164.205713 " transform="matrix(2.027027,0,0,2.027027,-185.782451,-215.224418)"/>
<path style="fill:none;stroke-width:7.5;stroke-linecap:round;stroke-linejoin:miter;stroke:rgb(18.823529%,78.823529%,67.843137%);stroke-opacity:1;stroke-miterlimit:10;" d="M 271.008249 106.422119 L 271.008249 118.917327 L 288.446426 118.917327 L 288.446426 141.354359 L 271.008249 141.354359 L 271.008249 163.789463 " transform="matrix(2.027027,0,0,2.027027,-185.782451,-215.224418)"/>
<path style="fill:none;stroke-width:7.5;stroke-linecap:round;stroke-linejoin:miter;stroke:rgb(18.823529%,78.823529%,67.843137%);stroke-opacity:1;stroke-miterlimit:10;" d="M 208.364551 164.205713 L 190.643093 164.205713 L 190.643093 186.922171 L 208.356843 186.922171 L 208.356843 209.918056 L 190.916739 209.918056 L 190.916739 232.353161 L 208.356843 232.353161 L 208.356843 254.788265 L 189.999447 254.788265 " transform="matrix(2.027027,0,0,2.027027,-185.782451,-215.224418)"/>
<path style="fill:none;stroke-width:7.5;stroke-linecap:round;stroke-linejoin:miter;stroke:rgb(18.823529%,78.823529%,67.843137%);stroke-opacity:1;stroke-miterlimit:10;" d="M 208.356843 163.789463 L 208.356843 141.354359 L 190.916739 141.354359 L 190.916739 118.917327 L 208.356843 118.917327 L 208.356843 106.422119 " transform="matrix(2.027027,0,0,2.027027,-185.782451,-215.224418)"/>
<path style="fill:none;stroke-width:12.5;stroke-linecap:butt;stroke-linejoin:miter;stroke:rgb(15.686275%,64.705882%,54.901961%);stroke-opacity:1;stroke-miterlimit:10;" d="M 318.992624 105.589619 L 309.012259 117.9904 L 328.988405 142.791963 L 309.012259 167.591598 L 328.988405 192.408577 L 309.012259 217.208213 L 328.988405 242.009775 L 318.992624 254.408629 " transform="matrix(2.027027,0,0,2.027027,-185.782451,-215.224418)"/>
<path style="fill:none;stroke-width:12.5;stroke-linecap:butt;stroke-linejoin:miter;stroke:rgb(15.686275%,64.705882%,54.901961%);stroke-opacity:1;stroke-miterlimit:10;" d="M 161.008405 254.408629 L 151.010697 242.009775 L 170.98877 217.208213 L 151.010697 192.408577 L 170.98877 167.591598 L 151.010697 142.791963 L 170.98877 117.9904 L 161.008405 105.589619 " transform="matrix(2.027027,0,0,2.027027,-185.782451,-215.224418)"/>
<path style="fill:none;stroke-width:12.5;stroke-linecap:round;stroke-linejoin:round;stroke:rgb(13.333333%,54.901961%,46.666667%);stroke-opacity:1;stroke-miterlimit:10;" d="M 356.135228 252.668473 L 356.63627 252.229098 L 356.759603 252.119254 L 356.881009 252.009411 L 357.004343 251.899567 L 357.125749 251.789723 L 357.245228 251.681806 L 357.484186 251.462119 L 357.836843 251.132588 L 357.952468 251.022744 L 358.179864 250.803056 L 358.403405 250.583369 L 358.623093 250.363681 L 358.731009 250.253838 L 358.838926 250.145921 L 359.050905 249.926234 L 359.154968 249.81639 L 359.359239 249.596702 L 359.459447 249.486859 L 359.656009 249.267171 L 359.752364 249.157327 L 359.941218 248.93764 L 360.033718 248.827796 L 360.124291 248.719879 L 360.214864 248.610036 L 360.303509 248.500192 L 360.390228 248.390348 L 360.559811 248.170661 L 360.642676 248.060817 L 360.723614 247.950973 L 360.881634 247.731286 L 360.958718 247.621442 L 361.033874 247.511598 L 361.107103 247.401754 L 361.178405 247.291911 L 361.249707 247.183994 L 361.319082 247.07415 L 361.515645 246.744619 L 361.638978 246.524931 L 361.754603 246.305244 L 361.810489 246.1954 L 361.864447 246.085556 L 361.916478 245.975713 L 361.966582 245.865869 L 362.014759 245.757952 L 362.062936 245.648109 L 362.151582 245.428421 L 362.23252 245.208734 L 362.271061 245.09889 L 362.307676 244.989046 L 362.342364 244.879202 L 362.375124 244.769359 L 362.405957 244.659515 L 362.434864 244.549671 L 362.461843 244.439827 L 362.486895 244.329984 L 362.51002 244.222067 L 362.533145 244.112223 L 362.552416 244.002379 L 362.587103 243.782692 L 362.614082 243.563004 L 362.633353 243.343317 L 362.644916 243.123629 L 362.64877 242.903942 L 362.64877 242.796025 L 362.641061 242.576338 L 362.63528 242.466494 L 362.627572 242.35665 L 362.604447 242.136963 L 362.590957 242.027119 L 362.575541 241.917275 L 362.558197 241.807431 L 362.538926 241.697588 L 362.517728 241.587744 L 362.494603 241.4779 L 362.469551 241.368056 L 362.442572 241.26014 L 362.415593 241.150296 L 362.384759 241.040452 L 362.351999 240.930609 L 362.282624 240.710921 L 362.205541 240.491234 L 362.165072 240.38139 L 362.076426 240.161702 L 362.030176 240.051859 L 361.981999 239.942015 L 361.931895 239.834098 L 361.827832 239.614411 L 361.716061 239.394723 L 361.596582 239.175036 L 361.534916 239.065192 L 361.471322 238.955348 L 361.405801 238.845504 L 361.270905 238.625817 L 361.20153 238.515973 L 361.130228 238.406129 L 361.056999 238.298213 L 360.981843 238.188369 L 360.827676 237.968681 L 360.748666 237.858838 L 360.667728 237.748994 L 360.501999 237.529306 L 360.417207 237.419463 L 360.330489 237.309619 L 360.153197 237.089931 L 360.062624 236.980088 L 359.970124 236.870244 L 359.875697 236.762327 L 359.78127 236.652484 L 359.588561 236.432796 L 359.49028 236.322952 L 359.390072 236.213109 L 359.083666 235.883577 L 358.765697 235.554046 L 358.65778 235.444202 L 358.547936 235.336286 L 358.438093 235.226442 L 358.214551 235.006754 L 357.987155 234.787067 L 357.755905 234.567379 L 357.403249 234.237848 L 357.28377 234.128004 L 357.162364 234.018161 L 357.040957 233.910244 L 356.919551 233.8004 L 356.549551 233.470869 L 356.17377 233.141338 L 355.66502 232.701963 L 355.406791 232.482275 L 355.277676 232.374359 L 355.146634 232.264515 L 355.01752 232.154671 L 354.493353 231.715296 L 354.360384 231.605452 L 354.229343 231.495609 L 353.963405 231.275921 L 353.832364 231.166077 L 353.699395 231.056234 L 353.566426 230.948317 L 352.369707 229.959723 L 352.238666 229.849879 L 352.105697 229.740036 L 351.974655 229.630192 L 351.841686 229.520348 L 351.710645 229.412431 L 351.448561 229.192744 L 351.319447 229.0829 L 351.188405 228.973056 L 350.671947 228.533681 L 350.290384 228.20415 L 350.165124 228.094306 L 350.039864 227.98639 L 349.789343 227.766702 L 349.542676 227.547015 L 349.178457 227.217484 L 349.058978 227.10764 L 348.941426 226.997796 L 348.821947 226.887952 L 348.704395 226.778109 L 348.58877 226.668265 L 348.473145 226.560348 L 348.132051 226.230817 L 348.02028 226.120973 L 347.800593 225.901286 L 347.584759 225.681598 L 347.47877 225.571754 L 347.166582 225.242223 L 347.066374 225.132379 L 346.966166 225.024463 L 346.865957 224.914619 L 346.767676 224.804775 L 346.671322 224.694931 L 346.482468 224.475244 L 346.389968 224.3654 L 346.208822 224.145713 L 346.120176 224.035869 L 346.033457 223.926025 L 345.863874 223.706338 L 345.781009 223.598421 L 345.619134 223.378734 L 345.464968 223.159046 L 345.389811 223.049202 L 345.243353 222.829515 L 345.104603 222.609827 L 345.037155 222.499984 L 344.971634 222.39014 L 344.844447 222.170452 L 344.784707 222.062536 L 344.724968 221.952692 L 344.667155 221.842848 L 344.61127 221.733004 L 344.557311 221.623161 L 344.50528 221.513317 L 344.405072 221.293629 L 344.312572 221.073942 L 344.22778 220.854254 L 344.187311 220.744411 L 344.150697 220.636494 L 344.114082 220.52665 L 344.079395 220.416806 L 344.046634 220.306963 L 343.984968 220.087275 L 343.957989 219.977431 L 343.932936 219.867588 L 343.886686 219.6479 L 343.867416 219.538056 L 343.832728 219.318369 L 343.819239 219.210452 L 343.805749 219.100609 L 343.786478 218.880921 L 343.774916 218.661234 L 343.771061 218.55139 L 343.771061 218.331702 L 343.772989 218.221859 L 343.776843 218.112015 L 343.782624 218.002171 L 343.801895 217.782484 L 343.813457 217.674567 L 343.826947 217.564723 L 343.842364 217.454879 L 343.859707 217.345036 L 343.878978 217.235192 L 343.900176 217.125348 L 343.923301 217.015504 L 343.973405 216.795817 L 344.002311 216.685973 L 344.033145 216.576129 L 344.098666 216.356442 L 344.13528 216.248525 L 344.171895 216.138681 L 344.210436 216.028838 L 344.295228 215.80915 L 344.339551 215.699306 L 344.385801 215.589463 L 344.433978 215.479619 L 344.484082 215.369775 L 344.588145 215.150088 L 344.699916 214.9304 L 344.759655 214.820556 L 344.819395 214.71264 L 344.881061 214.602796 L 344.944655 214.492952 L 345.075697 214.273265 L 345.214447 214.053577 L 345.285749 213.943734 L 345.358978 213.83389 L 345.509291 213.614202 L 345.586374 213.504359 L 345.665384 213.394515 L 345.746322 213.286598 L 345.912051 213.066911 L 345.996843 212.957067 L 346.083561 212.847223 L 346.260853 212.627536 L 346.351426 212.517692 L 346.443926 212.407848 L 346.63278 212.188161 L 346.825489 211.968473 L 346.92377 211.860556 L 347.124186 211.640869 L 347.226322 211.531025 L 347.434447 211.311338 L 347.540436 211.201494 L 347.864186 210.871963 L 347.97403 210.762119 L 348.197572 210.542431 L 348.31127 210.432588 L 348.424968 210.324671 L 348.656218 210.104984 L 348.891322 209.885296 L 349.249759 209.555765 L 349.492572 209.336077 L 349.862572 209.006546 L 349.987832 208.898629 L 350.238353 208.678942 L 350.747103 208.239567 L 351.134447 207.910036 L 351.265489 207.800192 L 351.394603 207.690348 L 351.656686 207.470661 L 351.787728 207.362744 L 351.91877 207.2529 L 352.051739 207.143056 L 352.18278 207.033213 L 352.448718 206.813525 L 352.579759 206.703681 L 353.377572 206.044619 L 353.510541 205.936702 L 353.909447 205.607171 L 354.040489 205.497327 L 354.306426 205.27764 L 354.437468 205.167796 L 354.570436 205.057952 L 354.963561 204.728421 L 355.092676 204.618577 L 355.223718 204.510661 L 355.740176 204.071286 L 356.121739 203.741754 L 356.62278 203.302379 L 356.869447 203.082692 L 356.990853 202.974775 L 357.233666 202.755088 L 357.472624 202.5354 L 357.707728 202.315713 L 358.054603 201.986181 L 358.168301 201.876338 L 358.391843 201.65665 L 358.501686 201.548734 L 358.721374 201.329046 L 359.039343 200.999515 L 359.143405 200.889671 L 359.347676 200.669984 L 359.548093 200.450296 L 359.644447 200.340452 L 359.742728 200.230609 L 359.837155 200.120765 L 359.931582 200.012848 L 360.024082 199.903004 L 360.205228 199.683317 L 360.293874 199.573473 L 360.467311 199.353786 L 360.715905 199.024254 L 360.873926 198.804567 L 360.951009 198.694723 L 361.026166 198.586806 L 361.099395 198.476963 L 361.241999 198.257275 L 361.311374 198.147431 L 361.378822 198.037588 L 361.444343 197.927744 L 361.57153 197.708056 L 361.691009 197.488369 L 361.748822 197.378525 L 361.804707 197.268681 L 361.858666 197.158838 L 361.910697 197.050921 L 362.010905 196.831234 L 362.103405 196.611546 L 362.147728 196.501702 L 362.228666 196.282015 L 362.267207 196.172171 L 362.303822 196.062327 L 362.338509 195.952484 L 362.37127 195.84264 L 362.402103 195.732796 L 362.431009 195.624879 L 362.459916 195.515036 L 362.484968 195.405192 L 362.531218 195.185504 L 362.550489 195.075661 L 362.585176 194.855973 L 362.612155 194.636286 L 362.623718 194.526442 L 362.639134 194.306754 L 362.644916 194.198838 L 362.64877 193.97915 L 362.64877 193.869306 L 362.646843 193.759463 L 362.63528 193.539775 L 362.627572 193.429931 L 362.617936 193.320088 L 362.606374 193.210244 L 362.592884 193.1004 L 362.577468 192.990556 L 362.560124 192.880713 L 362.540853 192.770869 L 362.519655 192.662952 L 362.473405 192.443265 L 362.446426 192.333421 L 362.388614 192.113734 L 362.355853 192.00389 L 362.286478 191.784202 L 362.249864 191.674359 L 362.168926 191.454671 L 362.12653 191.344827 L 362.082207 191.236911 L 362.035957 191.127067 L 361.98778 191.017223 L 361.937676 190.907379 L 361.833614 190.687692 L 361.721843 190.468004 L 361.602364 190.248317 L 361.540697 190.138473 L 361.413509 189.918786 L 361.346061 189.808942 L 361.278614 189.701025 L 361.209239 189.591181 L 361.137936 189.481338 L 361.064707 189.371494 L 360.914395 189.151806 L 360.756374 188.932119 L 360.594499 188.712431 L 360.511634 188.602588 L 360.424916 188.492744 L 360.340124 188.3829 L 360.251478 188.274984 L 360.162832 188.16514 L 360.072259 188.055296 L 359.887259 187.835609 L 359.790905 187.725765 L 359.696478 187.615921 L 359.499916 187.396234 L 359.299499 187.176546 L 359.197364 187.066702 L 358.989239 186.847015 L 358.883249 186.739098 L 358.777259 186.629254 L 358.669343 186.519411 L 358.449655 186.299723 L 358.114343 185.970192 L 357.998718 185.860348 L 357.88502 185.750504 L 357.767468 185.640661 L 357.651843 185.530817 L 357.534291 185.420973 L 357.414811 185.313056 L 357.175853 185.093369 L 356.933041 184.873681 L 356.563041 184.54415 L 356.187259 184.214619 L 355.805697 183.885088 L 355.678509 183.777171 L 355.162051 183.337796 L 354.506843 182.788577 L 354.373874 182.678734 L 354.242832 182.56889 L 354.109864 182.459046 L 353.978822 182.351129 L 352.516166 181.142848 L 352.385124 181.033004 L 352.252155 180.923161 L 352.119186 180.815244 L 351.857103 180.595556 L 351.724134 180.485713 L 351.462051 180.266025 L 351.332936 180.156181 L 351.201895 180.046338 L 350.685436 179.606963 L 350.558249 179.497119 L 350.431061 179.389202 L 350.303874 179.279359 L 349.802832 178.839984 L 349.556166 178.620296 L 349.191947 178.290765 L 348.952989 178.071077 L 348.835436 177.963161 L 348.600332 177.743473 L 348.484707 177.633629 L 348.143614 177.304098 L 348.031843 177.194254 L 347.812155 176.974567 L 347.596322 176.754879 L 347.384343 176.535192 L 347.28028 176.427275 L 347.076009 176.207588 L 346.975801 176.097744 L 346.779239 175.878056 L 346.58653 175.658369 L 346.492103 175.548525 L 346.399603 175.438681 L 346.218457 175.218994 L 346.129811 175.10915 L 346.043093 175.001234 L 345.956374 174.89139 L 345.871582 174.781546 L 345.788718 174.671702 L 345.70778 174.561859 L 345.549759 174.342171 L 345.472676 174.232327 L 345.39752 174.122484 L 345.251061 173.902796 L 345.179759 173.792952 L 345.112311 173.683109 L 345.042936 173.573265 L 344.977416 173.465348 L 344.850228 173.245661 L 344.730749 173.025973 L 344.672936 172.916129 L 344.617051 172.806286 L 344.563093 172.696442 L 344.45903 172.476754 L 344.362676 172.257067 L 344.318353 172.147223 L 344.27403 172.039306 L 344.231634 171.929463 L 344.154551 171.709775 L 344.081322 171.490088 L 344.048561 171.380244 L 344.017728 171.2704 L 343.988822 171.160556 L 343.934864 170.940869 L 343.888614 170.721181 L 343.869343 170.611338 L 343.851999 170.503421 L 343.834655 170.393577 L 343.819239 170.283734 L 343.796114 170.064046 L 343.786478 169.954202 L 343.774916 169.734515 L 343.771061 169.624671 L 343.769134 169.514827 L 343.772989 169.29514 L 343.776843 169.185296 L 343.782624 169.077379 L 343.790332 168.967536 L 343.799968 168.857692 L 343.81153 168.747848 L 343.82502 168.638004 L 343.840436 168.528161 L 343.85778 168.418317 L 343.877051 168.308473 L 343.919447 168.088786 L 343.944499 167.978942 L 343.998457 167.759254 L 344.029291 167.649411 L 344.062051 167.541494 L 344.094811 167.43165 L 344.129499 167.321806 L 344.206582 167.102119 L 344.247051 166.992275 L 344.289447 166.882431 L 344.335697 166.772588 L 344.38002 166.662744 L 344.428197 166.5529 L 344.478301 166.443056 L 344.582364 166.223369 L 344.638249 166.115452 L 344.694134 166.005609 L 344.751947 165.895765 L 344.811686 165.785921 L 344.873353 165.676077 L 344.936947 165.566234 L 345.067989 165.346546 L 345.206739 165.126859 L 345.278041 165.017015 L 345.424499 164.797327 L 345.501582 164.687484 L 345.578666 164.579567 L 345.657676 164.469723 L 345.819551 164.250036 L 346.073926 163.920504 L 346.251218 163.700817 L 346.341791 163.590973 L 346.526791 163.371286 L 346.621218 163.261442 L 346.717572 163.153525 L 347.012416 162.823994 L 347.318822 162.494463 L 347.424811 162.384619 L 347.528874 162.274775 L 347.852624 161.945244 L 347.962468 161.8354 L 348.074239 161.725556 L 348.186009 161.61764 L 348.413405 161.397952 L 348.76028 161.068421 L 348.877832 160.958577 L 349.23627 160.629046 L 349.479082 160.409359 L 349.602416 160.299515 L 349.725749 160.191598 L 349.849082 160.081754 L 350.224864 159.752223 L 350.352051 159.642379 L 350.477311 159.532536 L 350.606426 159.422692 L 350.733614 159.312848 L 351.250072 158.873473 L 351.381114 158.765556 L 352.036322 158.216338 L 352.169291 158.106494 L 352.300332 157.99665 L 353.098145 157.337588 L 353.231114 157.229671 L 353.63002 156.90014 L 353.761061 156.790296 L 354.159968 156.460765 L 354.291009 156.350921 L 354.423978 156.241077 L 354.817103 155.911546 L 354.948145 155.803629 L 355.210228 155.583942 L 355.726686 155.144567 L 356.108249 154.815036 L 356.609291 154.375661 L 356.732624 154.267744 L 356.855957 154.1579 L 357.220176 153.828369 L 357.459134 153.608681 L 357.811791 153.27915 L 357.927416 153.169306 L 358.154811 152.949619 L 358.268509 152.841702 L 358.38028 152.731859 L 358.709811 152.402327 L 358.815801 152.292484 L 358.923718 152.18264 L 359.235905 151.853109 L 359.336114 151.743265 L 359.438249 151.633421 L 359.634811 151.413734 L 359.731166 151.305817 L 359.82752 151.195973 L 359.921947 151.086129 L 360.014447 150.976286 L 360.195593 150.756598 L 360.284239 150.646754 L 360.457676 150.427067 L 360.542468 150.317223 L 360.625332 150.207379 L 360.787207 149.987692 L 360.864291 149.879775 L 360.941374 149.769931 L 361.091686 149.550244 L 361.234291 149.330556 L 361.303666 149.220713 L 361.371114 149.110869 L 361.502155 148.891181 L 361.625489 148.671494 L 361.685228 148.56165 L 361.743041 148.451806 L 361.798926 148.34389 L 361.852884 148.234046 L 361.956947 148.014359 L 362.053301 147.794671 L 362.141947 147.574984 L 362.184343 147.46514 L 362.224811 147.355296 L 362.263353 147.245452 L 362.299968 147.135609 L 362.334655 147.025765 L 362.367416 146.917848 L 362.429082 146.698161 L 362.456061 146.588317 L 362.506166 146.368629 L 362.548561 146.148942 L 362.583249 145.929254 L 362.598666 145.819411 L 362.621791 145.599723 L 362.631426 145.489879 L 362.637207 145.381963 L 362.642989 145.272119 L 362.646843 145.162275 L 362.64877 145.052431 L 362.64877 144.942588 L 362.646843 144.832744 L 362.642989 144.7229 L 362.637207 144.613056 L 362.629499 144.503213 L 362.619864 144.393369 L 362.608301 144.283525 L 362.594811 144.173681 L 362.579395 144.063838 L 362.562051 143.955921 L 362.54278 143.846077 L 362.500384 143.62639 L 362.475332 143.516546 L 362.421374 143.296859 L 362.359707 143.077171 L 362.290332 142.857484 L 362.253718 142.74764 L 362.213249 142.637796 L 362.17278 142.529879 L 362.130384 142.420036 L 362.086061 142.310192 L 362.039811 142.200348 L 361.943457 141.980661 L 361.839395 141.760973 L 361.727624 141.541286 L 361.669811 141.431442 L 361.610072 141.321598 L 361.548405 141.211754 L 361.484811 141.101911 L 361.419291 140.993994 L 361.35377 140.88415 L 361.286322 140.774306 L 361.072416 140.444775 L 360.922103 140.225088 L 360.84502 140.115244 L 360.766009 140.0054 L 360.685072 139.895556 L 360.519343 139.675869 L 360.434551 139.567952 L 360.261114 139.348265 L 360.172468 139.238421 L 360.081895 139.128577 L 359.896895 138.90889 L 359.802468 138.799046 L 359.609759 138.579359 L 359.509551 138.469515 L 359.41127 138.359671 L 359.309134 138.249827 L 359.208926 138.139984 L 359.104864 138.032067 L 359.000801 137.922223 L 358.788822 137.702536 L 358.680905 137.592692 L 358.351374 137.263161 L 358.237676 137.153317 L 358.125905 137.043473 L 358.012207 136.933629 L 357.780957 136.713942 L 357.663405 136.606025 L 357.428301 136.386338 L 357.308822 136.276494 L 357.187416 136.16665 L 357.067936 136.056806 L 356.94653 135.946963 L 356.57653 135.617431 L 356.200749 135.2879 L 356.073561 135.178056 L 355.946374 135.07014 L 355.691999 134.850452 L 355.175541 134.411077 L 354.389291 133.752015 L 354.256322 133.644098 L 354.12528 133.534254 L 352.795593 132.435817 L 352.664551 132.325973 L 352.531582 132.216129 L 352.398614 132.108213 L 352.265645 131.998369 L 352.134603 131.888525 L 352.001634 131.778681 L 351.215384 131.119619 L 350.828041 130.790088 L 350.698926 130.682171 L 350.317364 130.35264 L 350.192103 130.242796 L 350.064916 130.132952 L 349.941582 130.023109 L 349.816322 129.913265 L 349.446322 129.583734 L 349.324916 129.47389 L 349.205436 129.364046 L 349.08403 129.254202 L 348.966478 129.146286 L 348.846999 129.036442 L 348.729447 128.926598 L 348.382572 128.597067 L 348.268874 128.487223 L 347.933561 128.157692 L 347.823718 128.047848 L 347.607884 127.828161 L 347.501895 127.720244 L 347.395905 127.6104 L 347.291843 127.500556 L 347.087572 127.280869 L 346.887155 127.061181 L 346.788874 126.951338 L 346.596166 126.73165 L 346.501739 126.621806 L 346.409239 126.511963 L 346.318666 126.402119 L 346.228093 126.294202 L 346.050801 126.074515 L 345.881218 125.854827 L 345.798353 125.744984 L 345.636478 125.525296 L 345.557468 125.415452 L 345.480384 125.305609 L 345.405228 125.195765 L 345.25877 124.976077 L 345.187468 124.866234 L 345.118093 124.758317 L 345.050645 124.648473 L 344.919603 124.428786 L 344.79627 124.209098 L 344.73653 124.099254 L 344.678718 123.989411 L 344.622832 123.879567 L 344.568874 123.769723 L 344.464811 123.550036 L 344.416634 123.440192 L 344.368457 123.332275 L 344.322207 123.222431 L 344.277884 123.112588 L 344.196947 122.8929 L 344.158405 122.783056 L 344.085176 122.563369 L 344.052416 122.453525 L 343.990749 122.233838 L 343.96377 122.123994 L 343.913666 121.904306 L 343.892468 121.79639 L 343.87127 121.686546 L 343.851999 121.576702 L 343.821166 121.357015 L 343.807676 121.247171 L 343.788405 121.027484 L 343.780697 120.91764 L 343.774916 120.807796 L 343.771061 120.697952 L 343.769134 120.588109 L 343.771061 120.478265 L 343.772989 120.370348 L 343.776843 120.260504 L 343.782624 120.150661 L 343.790332 120.040817 L 343.809603 119.821129 L 343.823093 119.711286 L 343.838509 119.601442 L 343.855853 119.491598 L 343.894395 119.271911 L 343.91752 119.162067 L 343.967624 118.942379 L 343.99653 118.834463 L 344.025436 118.724619 L 344.090957 118.504931 L 344.125645 118.395088 L 344.202728 118.1754 L 344.243197 118.065556 L 344.285593 117.955713 L 344.329916 117.845869 L 344.376166 117.736025 L 344.47252 117.516338 L 344.524551 117.408421 L 344.576582 117.298577 L 344.688353 117.07889 L 344.746166 116.969046 L 344.805905 116.859202 L 344.867572 116.749359 L 344.994759 116.529671 L 345.129655 116.309984 L 345.19903 116.20014 L 345.270332 116.090296 L 345.343561 115.980452 L 345.416791 115.872536 L 345.570957 115.652848 L 345.728978 115.433161 L 345.894707 115.213473 L 345.979499 115.103629 L 346.152936 114.883942 L 346.241582 114.774098 L 346.332155 114.664254 L 346.424655 114.554411 L 346.517155 114.446494 L 346.611582 114.33665 L 346.804291 114.116963 L 346.902572 114.007119 L 347.102989 113.787431 L 347.205124 113.677588 L 347.517311 113.348056 L 347.841061 113.018525 L 347.950905 112.910609 L 348.286218 112.581077 L 348.401843 112.471234 L 348.515541 112.36139 L 348.631166 112.251546 L 348.983822 111.922015 L 349.103301 111.812171 L 349.224707 111.702327 L 349.344186 111.592484 L 349.465593 111.484567 L 349.835593 111.155036 L 350.211374 110.825504 L 350.338561 110.715661 L 350.463822 110.605817 L 350.592936 110.495973 L 350.720124 110.386129 L 351.107468 110.056598 L 351.236582 109.948681 L 351.367624 109.838838 L 351.496739 109.728994 L 351.758822 109.509306 L 351.891791 109.399463 L 352.022832 109.289619 L 352.155801 109.179775 L 352.286843 109.069931 L 352.685749 108.7404 L 352.816791 108.630556 L 352.949759 108.52264 L 354.013509 107.64389 L 354.144551 107.534046 L 354.410489 107.314359 L 354.54153 107.204515 " transform="matrix(2.027027,0,0,2.027027,-185.782451,-215.224418)"/>
<path style="fill:none;stroke-width:12.5;stroke-linecap:round;stroke-linejoin:round;stroke:rgb(13.333333%,54.901961%,46.666667%);stroke-opacity:1;stroke-miterlimit:10;" d="M 125.459499 107.204515 L 125.721582 107.424202 L 125.98752 107.64389 L 126.118561 107.753734 L 126.650436 108.193109 L 126.783405 108.301025 L 127.581218 108.960088 L 127.712259 109.069931 L 127.845228 109.179775 L 127.97627 109.289619 L 128.109239 109.399463 L 128.371322 109.61915 L 128.502364 109.727067 L 128.633405 109.836911 L 128.76252 109.946754 L 128.893561 110.056598 L 129.151791 110.276286 L 129.278978 110.386129 L 129.408093 110.495973 L 129.662468 110.715661 L 129.787728 110.825504 L 129.914916 110.935348 L 130.040176 111.045192 L 130.163509 111.153109 L 130.28877 111.262952 L 130.410176 111.372796 L 130.533509 111.48264 L 130.776322 111.702327 L 131.134759 112.031859 L 131.252311 112.141702 L 131.599186 112.471234 L 131.712884 112.581077 L 131.826582 112.688994 L 131.938353 112.798838 L 132.267884 113.128369 L 132.375801 113.238213 L 132.58778 113.4579 L 132.691843 113.567744 L 132.998249 113.897275 L 133.09653 114.007119 L 133.194811 114.115036 L 133.293093 114.224879 L 133.576374 114.554411 L 133.75752 114.774098 L 133.934811 114.993786 L 134.02153 115.103629 L 134.106322 115.213473 L 134.189186 115.323317 L 134.351061 115.543004 L 134.430072 115.650921 L 134.507155 115.760765 L 134.657468 115.980452 L 134.730697 116.090296 L 134.800072 116.20014 L 134.871374 116.309984 L 134.938822 116.419827 L 135.069864 116.639515 L 135.193197 116.859202 L 135.252936 116.969046 L 135.310749 117.076963 L 135.368561 117.186806 L 135.476478 117.406494 L 135.576686 117.626181 L 135.624864 117.736025 L 135.713509 117.955713 L 135.798301 118.1754 L 135.836843 118.285244 L 135.873457 118.395088 L 135.908145 118.503004 L 135.942832 118.612848 L 136.004499 118.832536 L 136.058457 119.052223 L 136.104707 119.271911 L 136.125905 119.381754 L 136.145176 119.491598 L 136.176009 119.711286 L 136.189499 119.821129 L 136.201061 119.930973 L 136.210697 120.03889 L 136.218405 120.148734 L 136.224186 120.258577 L 136.228041 120.368421 L 136.229968 120.478265 L 136.229968 120.588109 L 136.228041 120.697952 L 136.224186 120.807796 L 136.212624 121.027484 L 136.202989 121.137327 L 136.191426 121.247171 L 136.177936 121.357015 L 136.164447 121.464931 L 136.147103 121.574775 L 136.108561 121.794463 L 136.062311 122.01415 L 136.008353 122.233838 L 135.979447 122.343681 L 135.913926 122.563369 L 135.879239 122.673213 L 135.842624 122.783056 L 135.804082 122.8929 L 135.763614 123.000817 L 135.721218 123.110661 L 135.676895 123.220504 L 135.584395 123.440192 L 135.484186 123.659879 L 135.432155 123.769723 L 135.320384 123.989411 L 135.262572 124.099254 L 135.143093 124.318942 L 135.079499 124.426859 L 135.015905 124.536702 L 134.881009 124.75639 L 134.811634 124.866234 L 134.66903 125.085921 L 134.518718 125.305609 L 134.441634 125.415452 L 134.283614 125.63514 L 134.202676 125.744984 L 134.117884 125.8529 L 134.03502 125.962744 L 133.861582 126.182431 L 133.772936 126.292275 L 133.682364 126.402119 L 133.497364 126.621806 L 133.308509 126.841494 L 133.013666 127.171025 L 132.913457 127.280869 L 132.811322 127.388786 L 132.499134 127.718317 L 132.391218 127.828161 L 132.285228 127.938004 L 131.955697 128.267536 L 131.843926 128.377379 L 131.502832 128.706911 L 131.387207 128.814827 L 131.034551 129.144359 L 130.795593 129.364046 L 130.431374 129.693577 L 130.184707 129.913265 L 129.808926 130.242796 L 129.681739 130.350713 L 129.556478 130.460556 L 129.427364 130.5704 L 129.300176 130.680244 L 129.171061 130.790088 L 129.043874 130.899931 L 128.912832 131.009775 L 128.654603 131.229463 L 128.130436 131.668838 L 127.997468 131.776754 L 127.866426 131.886598 L 127.733457 131.996442 L 127.602416 132.106286 L 126.272728 133.204723 L 126.139759 133.31264 L 126.008718 133.422484 L 125.74278 133.642171 L 125.611739 133.752015 L 125.47877 133.861859 L 124.954603 134.301234 L 124.825489 134.411077 L 124.694447 134.520921 L 124.565332 134.630765 L 124.436218 134.738681 L 124.30903 134.848525 L 124.179916 134.958369 L 123.925541 135.178056 L 123.80028 135.2879 L 123.673093 135.397744 L 123.547832 135.507588 L 123.424499 135.617431 L 123.299239 135.727275 L 123.177832 135.837119 L 123.054499 135.946963 L 122.933093 136.056806 L 122.811686 136.164723 L 122.453249 136.494254 L 122.335697 136.604098 L 122.220072 136.713942 L 122.10252 136.823786 L 121.761426 137.153317 L 121.537884 137.373004 L 121.428041 137.482848 L 121.320124 137.592692 L 121.212207 137.700609 L 121.104291 137.810452 L 120.792103 138.139984 L 120.689968 138.249827 L 120.489551 138.469515 L 120.39127 138.579359 L 120.198561 138.799046 L 120.009707 139.018734 L 119.919134 139.12665 L 119.828561 139.236494 L 119.65127 139.456181 L 119.564551 139.566025 L 119.479759 139.675869 L 119.396895 139.785713 L 119.23502 140.0054 L 119.156009 140.115244 L 119.001843 140.334931 L 118.855384 140.554619 L 118.784082 140.662536 L 118.714707 140.772379 L 118.579811 140.992067 L 118.452624 141.211754 L 118.390957 141.321598 L 118.331218 141.431442 L 118.215593 141.651129 L 118.107676 141.870817 L 118.057572 141.980661 L 118.007468 142.088577 L 117.959291 142.198421 L 117.913041 142.308265 L 117.868718 142.418109 L 117.826322 142.527952 L 117.785853 142.637796 L 117.747311 142.74764 L 117.674082 142.967327 L 117.608561 143.187015 L 117.550749 143.406702 L 117.52377 143.514619 L 117.47752 143.734306 L 117.456322 143.84415 L 117.437051 143.953994 L 117.406218 144.173681 L 117.392728 144.283525 L 117.381166 144.393369 L 117.37153 144.503213 L 117.363822 144.613056 L 117.358041 144.7229 L 117.354186 144.832744 L 117.352259 144.942588 L 117.352259 145.160348 L 117.356114 145.270192 L 117.361895 145.380036 L 117.377311 145.599723 L 117.388874 145.709567 L 117.415853 145.929254 L 117.433197 146.039098 L 117.471739 146.258786 L 117.494864 146.368629 L 117.517989 146.476546 L 117.543041 146.58639 L 117.600853 146.806077 L 117.631686 146.915921 L 117.664447 147.025765 L 117.737676 147.245452 L 117.776218 147.355296 L 117.857155 147.574984 L 117.901478 147.684827 L 117.993978 147.904515 L 118.044082 148.012431 L 118.094186 148.122275 L 118.202103 148.341963 L 118.257989 148.451806 L 118.315801 148.56165 L 118.43528 148.781338 L 118.562468 149.001025 L 118.627989 149.110869 L 118.695436 149.220713 L 118.764811 149.330556 L 118.836114 149.438473 L 118.982572 149.658161 L 119.057728 149.768004 L 119.134811 149.877848 L 119.292832 150.097536 L 119.458561 150.317223 L 119.628145 150.536911 L 119.714864 150.646754 L 119.805436 150.756598 L 119.894082 150.864515 L 120.079082 151.084202 L 120.267936 151.30389 L 120.364291 151.413734 L 120.462572 151.523577 L 120.662989 151.743265 L 120.867259 151.962952 L 120.971322 152.072796 L 121.183301 152.292484 L 121.291218 152.4004 L 121.399134 152.510244 L 121.508978 152.620088 L 121.844291 152.949619 L 121.957989 153.059463 L 122.304864 153.388994 L 122.539968 153.608681 L 122.659447 153.718525 L 122.778926 153.826442 L 123.021739 154.046129 L 123.145072 154.155973 L 123.266478 154.265817 L 123.391739 154.375661 L 123.515072 154.485504 L 123.765593 154.705192 L 123.89278 154.815036 L 124.018041 154.924879 L 124.147155 155.034723 L 124.274343 155.144567 L 124.403457 155.254411 L 124.530645 155.362327 L 124.661686 155.472171 L 124.919916 155.691859 L 125.444082 156.131234 L 125.577051 156.241077 L 125.708093 156.350921 L 125.841061 156.460765 L 125.972103 156.570609 L 126.105072 156.680452 L 126.238041 156.788369 L 127.301791 157.667119 L 127.432832 157.776963 L 127.831739 158.106494 L 127.96278 158.214411 L 128.093822 158.324254 L 128.226791 158.434098 L 128.619916 158.763629 L 128.74903 158.873473 L 128.880072 158.983317 L 129.138301 159.203004 L 129.265489 159.312848 L 129.394603 159.422692 L 129.648978 159.642379 L 129.774239 159.750296 L 129.901426 159.86014 L 130.026686 159.969984 L 130.15002 160.079827 L 130.27528 160.189671 L 130.398614 160.299515 L 130.884239 160.73889 L 131.001791 160.848734 L 131.12127 160.958577 L 131.238822 161.068421 L 131.356374 161.176338 L 131.587624 161.396025 L 131.701322 161.505869 L 131.813093 161.615713 L 131.926791 161.725556 L 132.256322 162.055088 L 132.364239 162.164931 L 132.576218 162.384619 L 132.784343 162.604306 L 132.886478 162.712223 L 133.086895 162.931911 L 133.185176 163.041754 L 133.377884 163.261442 L 133.566739 163.481129 L 133.747884 163.700817 L 133.925176 163.920504 L 134.011895 164.030348 L 134.096686 164.138265 L 134.262416 164.357952 L 134.499447 164.687484 L 134.649759 164.907171 L 134.722989 165.017015 L 134.794291 165.126859 L 134.863666 165.236702 L 134.998561 165.45639 L 135.062155 165.564306 L 135.125749 165.67415 L 135.187416 165.783994 L 135.247155 165.893838 L 135.36278 166.113525 L 135.470697 166.333213 L 135.570905 166.5529 L 135.619082 166.662744 L 135.665332 166.772588 L 135.709655 166.882431 L 135.752051 166.992275 L 135.79252 167.100192 L 135.832989 167.210036 L 135.869603 167.319879 L 135.938978 167.539567 L 136.000645 167.759254 L 136.029551 167.869098 L 136.079655 168.088786 L 136.10278 168.198629 L 136.123978 168.308473 L 136.143249 168.418317 L 136.158666 168.526234 L 136.174082 168.636077 L 136.187572 168.745921 L 136.199134 168.855765 L 136.20877 168.965609 L 136.224186 169.185296 L 136.228041 169.29514 L 136.229968 169.404984 L 136.229968 169.514827 L 136.228041 169.624671 L 136.220332 169.844359 L 136.212624 169.954202 L 136.202989 170.062119 L 136.193353 170.171963 L 136.179864 170.281806 L 136.14903 170.501494 L 136.110489 170.721181 L 136.089291 170.831025 L 136.039186 171.050713 L 136.012207 171.160556 L 135.950541 171.380244 L 135.91778 171.488161 L 135.883093 171.598004 L 135.846478 171.707848 L 135.807936 171.817692 L 135.767468 171.927536 L 135.682676 172.147223 L 135.636426 172.257067 L 135.540072 172.476754 L 135.489968 172.586598 L 135.382051 172.806286 L 135.326166 172.914202 L 135.210541 173.13389 L 135.087207 173.353577 L 134.956166 173.573265 L 134.888718 173.683109 L 134.819343 173.792952 L 134.676739 174.01264 L 134.603509 174.122484 L 134.526426 174.232327 L 134.45127 174.342171 L 134.372259 174.450088 L 134.210384 174.669775 L 134.12752 174.779619 L 133.957936 174.999306 L 133.691999 175.328838 L 133.506999 175.548525 L 133.318145 175.768213 L 133.221791 175.876129 L 133.123509 175.985973 L 132.923093 176.205661 L 132.718822 176.425348 L 132.510697 176.645036 L 132.40278 176.754879 L 132.296791 176.864723 L 131.967259 177.194254 L 131.855489 177.304098 L 131.743718 177.412015 L 131.63002 177.521859 L 131.283145 177.85139 L 131.165593 177.961234 L 131.046114 178.071077 L 130.928561 178.180921 L 130.807155 178.290765 L 130.687676 178.400609 L 130.56627 178.510452 L 130.319603 178.73014 L 130.19627 178.838056 L 130.072936 178.9479 L 129.822416 179.167588 L 129.313666 179.606963 L 129.184551 179.716806 L 129.057364 179.82665 L 128.928249 179.936494 L 128.797207 180.046338 L 128.668093 180.156181 L 128.537051 180.264098 L 128.012884 180.703473 L 127.746947 180.923161 L 127.615905 181.033004 L 126.818093 181.692067 L 126.685124 181.799984 L 126.419186 182.019671 L 126.288145 182.129515 L 125.889239 182.459046 L 125.758197 182.56889 L 125.625228 182.678734 L 125.494186 182.788577 L 125.361218 182.898421 L 125.099134 183.118109 L 124.97002 183.226025 L 124.838978 183.335869 L 124.709864 183.445713 L 124.578822 183.555556 L 124.449707 183.6654 L 124.32252 183.775244 L 124.193405 183.885088 L 123.811843 184.214619 L 123.561322 184.434306 L 123.437989 184.54415 L 123.312728 184.653994 L 123.189395 184.761911 L 123.067989 184.871754 L 122.944655 184.981598 L 122.825176 185.091442 L 122.70377 185.201286 L 122.584291 185.311129 L 122.231634 185.640661 L 122.000384 185.860348 L 121.772989 186.080036 L 121.661218 186.187952 L 121.549447 186.297796 L 121.439603 186.40764 L 121.115853 186.737171 L 121.009864 186.847015 L 120.905801 186.956859 L 120.599395 187.28639 L 120.499186 187.396234 L 120.400905 187.506077 L 120.304551 187.615921 L 120.208197 187.723838 L 120.11377 187.833681 L 119.92877 188.053369 L 119.747624 188.273056 L 119.574186 188.492744 L 119.489395 188.602588 L 119.323666 188.822275 L 119.242728 188.932119 L 119.163718 189.041963 L 119.086634 189.149879 L 119.009551 189.259723 L 118.863093 189.479411 L 118.791791 189.589254 L 118.653041 189.808942 L 118.521999 190.028629 L 118.458405 190.138473 L 118.396739 190.248317 L 118.336999 190.358161 L 118.279186 190.468004 L 118.221374 190.575921 L 118.113457 190.795609 L 118.013249 191.015296 L 117.965072 191.12514 L 117.918822 191.234984 L 117.874499 191.344827 L 117.789707 191.564515 L 117.751166 191.674359 L 117.677936 191.894046 L 117.645176 192.00389 L 117.612416 192.111806 L 117.581582 192.22165 L 117.527624 192.441338 L 117.502572 192.551181 L 117.479447 192.661025 L 117.458249 192.770869 L 117.438978 192.880713 L 117.392728 193.210244 L 117.381166 193.320088 L 117.37153 193.429931 L 117.363822 193.537848 L 117.358041 193.647692 L 117.354186 193.757536 L 117.350332 193.977223 L 117.352259 194.087067 L 117.356114 194.196911 L 117.367676 194.416598 L 117.386947 194.636286 L 117.400436 194.746129 L 117.43127 194.965817 L 117.450541 195.073734 L 117.469811 195.183577 L 117.491009 195.293421 L 117.541114 195.513109 L 117.568093 195.622952 L 117.596999 195.732796 L 117.627832 195.84264 L 117.697207 196.062327 L 117.770436 196.282015 L 117.810905 196.391859 L 117.853301 196.499775 L 117.941947 196.719463 L 118.038301 196.93915 L 118.088405 197.048994 L 118.196322 197.268681 L 118.308093 197.488369 L 118.367832 197.598213 L 118.491166 197.8179 L 118.554759 197.925817 L 118.757103 198.255348 L 118.828405 198.365192 L 118.974864 198.584879 L 119.05002 198.694723 L 119.204186 198.914411 L 119.366061 199.134098 L 119.448926 199.243942 L 119.533718 199.353786 L 119.618509 199.461702 L 119.884447 199.791234 L 120.161947 200.120765 L 120.354655 200.340452 L 120.551218 200.56014 L 120.651426 200.669984 L 120.753561 200.779827 L 120.857624 200.887744 L 120.959759 200.997588 L 121.171739 201.217275 L 121.387572 201.436963 L 121.607259 201.65665 L 121.71903 201.766494 L 122.060124 202.096025 L 122.175749 202.205869 L 122.293301 202.315713 L 122.408926 202.423629 L 122.886843 202.863004 L 123.008249 202.972848 L 123.501582 203.412223 L 123.752103 203.631911 L 123.879291 203.741754 L 124.004551 203.849671 L 124.133666 203.959515 L 124.388041 204.179202 L 124.64627 204.39889 L 124.777311 204.508734 L 124.906426 204.618577 L 125.561634 205.167796 L 125.694603 205.275713 L 125.825645 205.385556 L 126.35752 205.824931 L 126.488561 205.934775 L 127.419343 206.703681 L 127.552311 206.811598 L 127.68528 206.921442 L 127.816322 207.031286 L 127.949291 207.141129 L 128.211374 207.360817 L 128.344343 207.470661 L 128.475384 207.580504 L 128.604499 207.690348 L 128.735541 207.800192 L 128.864655 207.910036 L 128.995697 208.019879 L 129.124811 208.129723 L 129.251999 208.23764 L 129.381114 208.347484 L 129.762676 208.677015 L 130.138457 209.006546 L 130.385124 209.226234 L 130.50653 209.336077 L 130.629864 209.445921 L 130.75127 209.555765 L 130.870749 209.665609 L 130.990228 209.773525 L 131.10778 209.883369 L 131.227259 209.993213 L 131.574134 210.322744 L 131.80153 210.542431 L 132.025072 210.762119 L 132.244759 210.981806 L 132.352676 211.09165 L 132.458666 211.199567 L 132.564655 211.309411 L 132.77278 211.529098 L 132.977051 211.748786 L 133.271895 212.078317 L 133.368249 212.188161 L 133.462676 212.298004 L 133.647676 212.517692 L 133.738249 212.625609 L 133.828822 212.735452 L 134.002259 212.95514 L 134.171843 213.174827 L 134.333718 213.394515 L 134.412728 213.504359 L 134.566895 213.724046 L 134.642051 213.83389 L 134.71528 213.943734 L 134.786582 214.053577 L 134.855957 214.161494 L 134.990853 214.381181 L 135.056374 214.491025 L 135.119968 214.600869 L 135.181634 214.710713 L 135.241374 214.820556 L 135.356999 215.040244 L 135.464916 215.259931 L 135.516947 215.369775 L 135.565124 215.479619 L 135.613301 215.587536 L 135.705801 215.807223 L 135.748197 215.917067 L 135.788666 216.026911 L 135.865749 216.246598 L 135.935124 216.466286 L 135.967884 216.576129 L 136.025697 216.795817 L 136.052676 216.905661 L 136.077728 217.015504 L 136.100853 217.123421 L 136.122051 217.233265 L 136.174082 217.562796 L 136.187572 217.67264 L 136.199134 217.782484 L 136.20877 217.892327 L 136.216478 218.002171 L 136.222259 218.112015 L 136.229968 218.331702 L 136.229968 218.441546 L 136.228041 218.549463 L 136.226114 218.659306 L 136.220332 218.76915 L 136.204916 218.988838 L 136.181791 219.208525 L 136.150957 219.428213 L 136.112416 219.6479 L 136.091218 219.757744 L 136.066166 219.867588 L 136.041114 219.975504 L 136.014134 220.085348 L 135.985228 220.195192 L 135.954395 220.305036 L 135.921634 220.414879 L 135.886947 220.524723 L 135.850332 220.634567 L 135.811791 220.744411 L 135.730853 220.964098 L 135.642207 221.183786 L 135.545853 221.403473 L 135.493822 221.51139 L 135.441791 221.621234 L 135.387832 221.731077 L 135.276061 221.950765 L 135.216322 222.060609 L 135.092989 222.280296 L 135.029395 222.39014 L 134.963874 222.499984 L 134.896426 222.609827 L 134.827051 222.719671 L 134.755749 222.829515 L 134.684447 222.937431 L 134.611218 223.047275 L 134.536061 223.157119 L 134.458978 223.266963 L 134.300957 223.48665 L 134.22002 223.596494 L 134.137155 223.706338 L 134.052364 223.816181 L 133.878926 224.035869 L 133.701634 224.255556 L 133.609134 224.3654 L 133.516634 224.473317 L 133.424134 224.583161 L 133.231426 224.802848 L 133.034864 225.022536 L 132.934655 225.132379 L 132.730384 225.352067 L 132.626322 225.461911 L 132.308353 225.791442 L 132.198509 225.899359 L 131.978822 226.119046 L 131.75528 226.338734 L 131.641582 226.448577 L 131.294707 226.778109 L 131.059603 226.997796 L 130.820645 227.217484 L 130.699239 227.3254 L 130.456426 227.545088 L 130.086426 227.874619 L 129.835905 228.094306 L 129.199968 228.643525 L 129.070853 228.753369 L 128.941739 228.861286 L 128.810697 228.971129 L 128.681582 229.080973 L 128.026374 229.630192 L 127.893405 229.740036 L 127.762364 229.849879 L 127.363457 230.179411 L 127.232416 230.287327 L 125.902728 231.385765 L 125.771686 231.495609 L 125.638718 231.605452 L 125.507676 231.715296 L 125.376634 231.823213 L 125.243666 231.933056 L 125.112624 232.0429 L 124.983509 232.152744 L 124.852468 232.262588 L 124.723353 232.372431 L 124.592311 232.482275 L 124.463197 232.592119 L 124.336009 232.701963 L 124.206895 232.811806 L 123.825332 233.141338 L 123.700072 233.249254 L 123.449551 233.468942 L 123.079551 233.798473 L 122.836739 234.018161 L 122.478301 234.347692 L 122.243197 234.567379 L 122.127572 234.677223 L 122.011947 234.78514 L 121.784551 235.004827 L 121.561009 235.224515 L 121.451166 235.334359 L 121.127416 235.66389 L 121.021426 235.773734 L 120.813301 235.993421 L 120.711166 236.103265 L 120.610957 236.211181 L 120.510749 236.321025 L 120.314186 236.540713 L 120.217832 236.650556 L 120.123405 236.7604 L 119.938405 236.980088 L 119.757259 237.199775 L 119.583822 237.419463 L 119.49903 237.529306 L 119.414239 237.637223 L 119.171426 237.966754 L 119.094343 238.076598 L 118.94403 238.296286 L 118.870801 238.406129 L 118.728197 238.625817 L 118.593301 238.845504 L 118.466114 239.065192 L 118.404447 239.173109 L 118.34278 239.282952 L 118.227155 239.50264 L 118.119239 239.722327 L 118.067207 239.832171 L 118.017103 239.942015 L 117.968926 240.051859 L 117.922676 240.161702 L 117.878353 240.271546 L 117.793561 240.491234 L 117.75502 240.59915 L 117.681791 240.818838 L 117.647103 240.928681 L 117.585436 241.148369 L 117.55653 241.258213 L 117.529551 241.368056 L 117.504499 241.4779 L 117.481374 241.587744 L 117.460176 241.697588 L 117.440905 241.807431 L 117.423561 241.917275 L 117.408145 242.027119 L 117.394655 242.135036 L 117.383093 242.244879 L 117.373457 242.354723 L 117.358041 242.574411 L 117.354186 242.684254 L 117.350332 242.903942 L 117.352259 243.013786 L 117.359968 243.233473 L 117.375384 243.453161 L 117.386947 243.561077 L 117.398509 243.670921 L 117.429343 243.890609 L 117.446686 244.000452 L 117.489082 244.22014 L 117.512207 244.329984 L 117.537259 244.439827 L 117.595072 244.659515 L 117.625905 244.769359 L 117.658666 244.879202 L 117.693353 244.987119 L 117.728041 245.096963 L 117.766582 245.206806 L 117.807051 245.31665 L 117.891843 245.536338 L 117.984343 245.756025 L 118.03252 245.865869 L 118.136582 246.085556 L 118.190541 246.1954 L 118.302311 246.415088 L 118.362051 246.523004 L 118.421791 246.632848 L 118.548978 246.852536 L 118.614499 246.962379 L 118.681947 247.072223 L 118.820697 247.291911 L 118.967155 247.511598 L 119.042311 247.621442 L 119.196478 247.841129 L 119.277416 247.949046 L 119.358353 248.05889 L 119.524082 248.278577 L 119.69752 248.498265 L 119.874811 248.717952 L 120.152311 249.047484 L 120.441374 249.377015 L 120.541582 249.484931 L 120.641791 249.594775 L 120.846061 249.814463 L 121.054186 250.03415 L 121.160176 250.143994 L 121.376009 250.363681 L 121.595697 250.583369 L 121.707468 250.693213 L 121.821166 250.803056 L 121.932936 250.910973 L 122.279811 251.240504 L 122.514916 251.460192 L 122.753874 251.679879 L 123.118093 252.009411 L 123.364759 252.229098 L 123.488093 252.337015 L 123.738614 252.556702 L 123.865801 252.666546 " transform="matrix(2.027027,0,0,2.027027,-185.782451,-215.224418)"/>
<path style="fill:none;stroke-width:10;stroke-linecap:square;stroke-linejoin:miter;stroke:rgb(0%,0%,0%);stroke-opacity:0.501961;stroke-miterlimit:10;" d="M 110.784759 227.178942 C 111.35903 227.635661 112.351478 228.258109 113.762103 229.044359 C 115.178509 229.832536 116.529395 230.227588 117.814759 230.227588 C 119.105905 230.227588 119.751478 229.726546 119.751478 228.724463 C 119.751478 228.269671 119.568405 227.866911 119.200332 227.516181 C 118.839968 227.167379 118.173197 226.766546 117.201947 226.317536 C 116.230697 225.860817 115.500332 225.506234 115.014707 225.249931 C 114.529082 224.989775 113.883509 224.56389 113.077989 223.970348 C 112.278249 223.378734 111.665436 222.762067 111.237624 222.122275 C 110.029343 220.397536 109.426166 218.200661 109.426166 215.527796 C 109.426166 212.856859 110.418614 210.606025 112.401582 208.775296 C 114.386478 206.938786 116.988041 206.019567 120.204343 206.019567 C 122.391582 206.019567 124.409239 206.256598 126.257311 206.730661 C 128.105384 207.198942 129.059291 207.811754 129.11903 208.571025 C 129.11903 208.659671 129.11903 208.748317 129.11903 208.836963 C 129.11903 209.90264 128.783718 211.247744 128.11502 212.870348 C 127.450176 214.489098 126.981895 215.389046 126.710176 215.572119 C 124.767676 214.571963 123.02752 214.070921 121.493561 214.070921 C 119.965384 214.070921 119.200332 214.616286 119.200332 215.707015 C 119.200332 216.375713 119.763041 216.967327 120.888457 217.483786 C 121.133197 217.607119 121.478145 217.776702 121.929082 217.990609 C 122.385801 218.196806 122.909968 218.4454 123.501582 218.73639 C 124.095124 219.027379 124.731061 219.391598 125.413249 219.829046 C 126.093509 220.268421 126.831582 220.852327 127.625541 221.580765 C 129.230801 223.097379 130.034395 225.099619 130.034395 227.587484 C 130.034395 230.834619 129.138301 233.488213 127.349968 235.550192 C 125.561634 237.612171 122.800124 238.672067 119.067364 238.731806 C 117.248197 238.731806 115.602468 238.581494 114.126322 238.278942 C 112.657884 237.97639 111.374447 237.386702 110.277936 236.509879 C 109.189134 235.627275 108.64377 234.563525 108.64377 233.320556 C 108.64377 232.075661 108.871166 230.8404 109.327884 229.614775 C 109.784603 228.381442 110.270228 227.57014 110.784759 227.178942 Z M 135.51502 235.594515 C 133.61877 233.503629 132.670645 230.607223 132.670645 226.903369 C 132.670645 223.201442 133.61877 220.303109 135.51502 218.212223 C 137.41127 216.121338 139.966582 215.074931 143.182884 215.074931 C 146.401114 215.074931 148.948718 216.121338 150.825697 218.212223 C 152.704603 220.303109 153.643093 223.201442 153.643093 226.903369 C 153.643093 230.607223 152.704603 233.503629 150.825697 235.594515 C 148.948718 237.6854 146.401114 238.731806 143.182884 238.731806 C 139.966582 238.731806 137.41127 237.6854 135.51502 235.594515 Z M 143.202155 222.673421 C 141.488978 222.673421 135.233666 223.868213 135.233666 226.658629 C 135.233666 229.449046 141.488978 231.044671 143.202155 231.044671 C 144.919186 231.044671 145.778666 229.649463 145.778666 226.859046 C 145.778666 224.068629 144.919186 222.673421 143.202155 222.673421 Z M 156.65127 215.803369 C 156.65127 215.466129 157.955905 215.296546 160.563249 215.296546 C 163.168666 215.296546 164.473301 215.466129 164.473301 215.803369 L 164.473301 229.088681 C 164.473301 230.607223 164.958926 231.364567 165.930176 231.364567 C 166.658614 231.364567 167.479551 231.044671 168.391061 230.404879 L 168.391061 215.803369 C 168.391061 215.500817 169.68028 215.350504 172.256791 215.350504 C 174.835228 215.350504 176.12252 215.500817 176.12252 215.803369 L 176.12252 230.724775 L 177.305749 230.724775 C 178.336739 230.724775 178.85127 231.711442 178.85127 233.684775 C 178.85127 234.684931 178.641218 235.700504 178.221114 236.731494 C 177.610228 238.065036 176.789291 238.731806 175.758301 238.731806 C 173.727155 238.731806 172.22403 237.899306 171.25278 236.234306 L 171.208457 236.278629 C 169.360384 237.914723 167.371634 238.731806 165.246061 238.731806 C 162.307259 238.731806 160.139291 237.997588 158.740228 236.527223 C 157.348874 235.058786 156.65127 232.622952 156.65127 229.223577 Z M 191.134499 238.003369 C 191.134499 238.217275 190.045697 238.323265 187.864239 238.323265 C 184.831009 238.234619 183.314395 238.06889 183.314395 237.826077 L 183.314395 223.081963 L 182.133093 223.081963 C 181.344916 223.081963 180.830384 222.415192 180.587572 221.083577 C 180.522051 220.686598 180.489291 220.291546 180.489291 219.900348 C 180.489291 218.958004 180.672364 218.017588 181.040436 217.075244 C 181.585801 215.741702 182.431791 215.074931 183.582259 215.074931 C 184.736582 215.074931 185.767572 215.348577 186.673301 215.892015 C 187.586739 216.437379 188.197624 216.982744 188.50403 217.528109 C 190.411843 215.892015 192.683874 215.074931 195.320124 215.074931 C 197.964082 215.074931 199.873822 215.789879 201.053197 217.217848 C 202.238353 218.638109 202.829968 220.973734 202.829968 224.218942 L 202.829968 237.8704 C 202.829968 238.230765 201.533041 238.411911 198.937259 238.411911 C 196.349186 238.411911 195.054186 238.230765 195.054186 237.8704 L 195.054186 224.718056 C 195.054186 223.201442 194.524239 222.442171 193.464343 222.442171 C 193.156009 222.442171 192.728197 222.573213 192.184759 222.833369 C 191.639395 223.087744 191.288666 223.278525 191.134499 223.401859 Z M 221.80403 206.019567 C 222.623041 206.019567 223.569239 206.073525 224.648405 206.179515 C 225.725645 206.285504 226.265228 206.428109 226.265228 206.6054 L 226.265228 230.591806 L 227.856999 230.591806 C 228.614343 230.591806 229.115384 231.272067 229.358197 232.634515 C 229.417936 233.031494 229.446843 233.571077 229.446843 234.253265 C 229.446843 234.933525 229.236791 235.760244 228.816686 236.731494 C 228.205801 238.065036 227.234551 238.731806 225.901009 238.731806 C 224.900853 238.731806 224.010541 238.537171 223.235853 238.145973 C 222.46502 237.748994 221.94278 237.336598 221.671061 236.910713 L 221.26252 236.322952 C 219.591739 237.928213 217.496999 238.731806 214.980228 238.731806 C 212.46153 238.731806 210.307051 237.6854 208.518718 235.594515 C 206.730384 233.503629 205.834291 230.586025 205.834291 226.841702 C 205.834291 223.091598 206.774707 220.193265 208.651686 218.150556 C 210.536374 216.10014 212.887416 215.074931 215.708666 215.074931 C 216.525749 215.074931 217.360176 215.167431 218.213874 215.350504 L 218.213874 206.703681 C 218.213874 206.703681 219.410593 206.019567 221.80403 206.019567 Z M 216.712676 222.353525 C 215.012989 222.353525 208.362624 223.885556 208.362624 226.947692 C 208.362624 228.49514 214.40403 229.610921 214.891582 230.29889 C 215.377207 230.97915 215.914864 231.320244 216.508405 231.320244 C 217.10002 231.320244 217.668509 231.062015 218.213874 230.547484 L 218.213874 222.80639 C 217.699343 222.503838 217.198301 222.353525 216.712676 222.353525 Z M 239.874291 206.880973 C 239.779864 206.549515 241.311895 206.383786 244.468457 206.383786 C 247.952624 206.383786 249.740957 206.670921 249.837311 207.245192 C 249.837311 207.245192 251.448353 221.091286 251.801009 224.118734 C 251.930124 225.232588 252.379134 225.145869 252.672051 223.968421 C 253.444811 220.861963 256.884655 207.023577 256.884655 207.023577 C 257.036895 206.566859 258.222051 206.339463 260.438197 206.339463 C 262.654343 206.339463 263.835645 206.549515 263.98403 206.969619 C 263.98403 206.969619 267.315957 220.702015 268.086791 223.883629 C 268.39127 225.132379 268.909655 225.11889 269.079239 223.862431 C 269.512832 220.698161 271.360905 207.156546 271.360905 207.156546 C 271.418718 206.825088 272.116322 206.599619 273.447936 206.482067 C 274.781478 206.356806 275.860645 206.29514 276.683509 206.29514 C 279.865124 206.29514 281.410645 206.505192 281.321999 206.925296 L 275.812468 237.095713 C 275.694916 237.552431 274.829655 237.887744 273.216686 238.10165 C 271.611426 238.307848 270.308718 238.411911 269.306634 238.411911 C 265.544968 238.411911 263.575489 237.987952 263.398197 237.141963 L 260.295593 224.629411 L 256.936686 237.095713 C 256.813353 237.641077 255.749603 238.036129 253.747364 238.278942 C 252.716374 238.367588 251.685384 238.411911 250.654395 238.411911 L 247.738718 238.278942 C 245.736478 238.065036 244.676582 237.6854 244.557103 237.141963 Z M 286.280384 221.758056 C 285.434395 220.241442 285.010436 219.006181 285.010436 218.052275 C 285.010436 217.098369 285.266739 216.485556 285.783197 216.211911 C 287.507936 215.454567 289.876322 215.074931 292.892207 215.074931 C 295.913874 215.074931 298.047155 215.780244 299.290124 217.190869 C 300.53502 218.599567 301.157468 220.686598 301.157468 223.446181 L 301.157468 230.636129 L 302.702989 230.636129 C 303.219447 230.636129 303.622207 230.940609 303.91127 231.551494 C 304.202259 232.154671 304.346791 232.987171 304.346791 234.048994 C 304.346791 235.10889 304.080853 236.155296 303.547051 237.186286 C 303.015176 238.217275 302.294447 238.731806 301.388718 238.731806 C 299.746843 238.731806 298.426791 238.292431 297.424707 237.415609 C 296.97377 237.049463 296.628822 236.608161 296.384082 236.091702 C 294.986947 237.851129 292.815124 238.731806 289.870541 238.731806 C 287.662103 238.731806 285.798614 237.943629 284.281999 236.367275 C 282.765384 234.792848 282.006114 232.925504 282.006114 230.769098 C 282.006114 225.828056 284.962259 223.357536 290.874551 223.357536 L 293.381686 223.357536 L 293.381686 222.895036 C 293.381686 222.106859 293.250645 221.601963 292.990489 221.376494 C 292.736114 221.151025 292.136791 221.037327 291.194447 221.037327 C 290.040124 221.037327 288.402103 221.278213 286.280384 221.758056 Z M 289.924499 230.138942 C 289.924499 230.801859 290.105645 231.308681 290.466009 231.657484 C 290.828301 232.008213 291.290801 232.18165 291.853509 232.18165 C 292.416218 232.18165 292.924968 231.954254 293.381686 231.497536 L 293.381686 227.996025 L 292.102103 227.996025 C 290.651009 227.996025 289.924499 228.710973 289.924499 230.138942 Z M 305.165801 215.662692 C 305.071374 215.417952 306.485853 215.296546 309.413093 215.296546 C 312.346114 215.296546 313.812624 215.373629 313.812624 215.527796 C 313.812624 215.527796 315.703093 224.473317 316.298561 227.29264 C 316.633874 228.874775 317.431686 228.836234 317.689916 227.244463 C 318.138926 224.4579 319.54377 215.759046 319.54377 215.759046 C 319.632416 215.487327 321.135541 215.350504 324.049291 215.350504 C 326.988093 215.350504 328.414134 215.469984 328.323561 215.707015 L 321.908301 237.959046 C 321.694395 238.261598 319.888718 238.411911 316.487416 238.411911 C 313.091895 238.411911 311.272728 238.186442 311.029916 237.735504 Z M 347.844916 237.05139 C 345.931322 238.171025 343.472364 238.731806 340.468041 238.731806 C 337.463718 238.731806 334.93153 237.710452 332.869551 235.665817 C 330.807572 233.6154 329.776582 230.778734 329.776582 227.151963 C 329.776582 223.527119 330.76903 220.609515 332.753926 218.39915 C 334.744603 216.183004 337.25752 215.074931 340.290749 215.074931 C 343.323978 215.074931 345.667311 215.847692 347.320749 217.39514 C 348.972259 218.940661 349.798978 220.821494 349.798978 223.03764 C 349.798978 227.949775 346.979655 230.404879 341.339082 230.404879 L 338.194082 230.404879 C 338.194082 231.31639 338.442676 231.948473 338.939864 232.297275 C 339.442832 232.648004 340.180905 232.821442 341.152155 232.821442 C 343.279655 232.821442 345.297311 232.335817 347.205124 231.364567 C 347.23403 231.335661 347.370853 231.545713 347.613666 231.994723 C 348.342103 233.30514 348.706322 234.407431 348.706322 235.301598 C 348.706322 236.195765 348.419186 236.779671 347.844916 237.05139 Z M 342.156166 223.899046 C 342.156166 222.625244 341.535645 221.989306 340.290749 221.989306 C 339.716478 221.989306 339.221218 222.164671 338.806895 222.513473 C 338.398353 222.862275 338.194082 223.369098 338.194082 224.033942 L 338.194082 225.446494 L 340.654968 225.446494 C 341.657051 225.446494 342.156166 224.930036 342.156166 223.899046 Z M 353.712884 230.084984 C 356.171843 231.572692 358.110489 232.314619 359.532676 232.314619 C 360.446114 232.314619 360.900905 231.998577 360.900905 231.364567 C 360.900905 230.907848 360.114655 230.316234 358.538301 229.587796 C 354.745801 228.040348 352.849551 225.508161 352.849551 221.989306 C 352.849551 219.744254 353.668561 218.031077 355.302728 216.851702 C 356.944603 215.668473 358.908301 215.074931 361.195749 215.074931 C 363.487051 215.074931 365.427624 215.317744 367.015541 215.803369 C 368.609239 216.288994 369.407051 216.926859 369.407051 217.715036 C 369.407051 218.377952 369.081374 219.258629 368.428093 220.353213 C 367.776739 221.443942 367.329655 222.033629 367.086843 222.122275 C 365.784134 221.399619 364.373509 221.037327 362.856895 221.037327 C 362.039811 221.037327 361.63127 221.32639 361.63127 221.900661 C 361.63127 222.261025 361.787364 222.573213 362.101478 222.833369 C 362.421374 223.087744 363.00528 223.405713 363.85127 223.783421 C 364.704968 224.163056 365.41028 224.506077 365.967207 224.814411 C 366.529916 225.116963 367.160072 225.540921 367.859603 226.086286 C 369.318405 227.234827 370.046843 228.737952 370.046843 230.591806 C 370.046843 233.01415 369.241322 234.977848 367.628353 236.4829 C 366.023093 237.982171 363.596895 238.731806 360.351686 238.731806 C 358.201061 238.731806 356.245072 238.367588 354.485645 237.63915 C 352.726218 236.910713 351.845541 235.908629 351.845541 234.634827 C 351.845541 233.786911 352.049811 232.896598 352.46028 231.960036 C 352.868822 231.017692 353.285072 230.393317 353.712884 230.084984 Z M 353.712884 230.084984 " transform="matrix(2.027027,0,0,2.027027,-185.782451,-215.224418)"/>
<path style=" stroke:none;fill-rule:nonzero;fill:rgb(100%,100%,100%);fill-opacity:1;" d="M 38.78125 245.273438 C 39.945312 246.199219 41.957031 247.460938 44.816406 249.054688 C 47.6875 250.652344 50.425781 251.453125 53.03125 251.453125 C 55.648438 251.453125 56.957031 250.4375 56.957031 248.40625 C 56.957031 247.484375 56.585938 246.667969 55.839844 245.957031 C 55.109375 245.25 53.757812 244.4375 51.789062 243.527344 C 49.820312 242.601562 48.339844 241.882812 47.355469 241.363281 C 46.371094 240.835938 45.0625 239.972656 43.429688 238.769531 C 41.808594 237.570312 40.566406 236.320312 39.699219 235.023438 C 37.25 231.527344 36.027344 227.074219 36.027344 221.65625 C 36.027344 216.242188 38.039062 211.679688 42.058594 207.96875 C 46.082031 204.246094 51.355469 202.382812 57.875 202.382812 C 62.308594 202.382812 66.398438 202.863281 70.144531 203.824219 C 73.890625 204.773438 75.824219 206.015625 75.945312 207.554688 C 75.945312 207.734375 75.945312 207.914062 75.945312 208.09375 C 75.945312 210.253906 75.265625 212.980469 73.910156 216.269531 C 72.5625 219.550781 71.613281 221.375 71.0625 221.746094 C 67.125 219.71875 63.597656 218.703125 60.488281 218.703125 C 57.390625 218.703125 55.839844 219.808594 55.839844 222.019531 C 55.839844 223.375 56.980469 224.574219 59.261719 225.621094 C 59.757812 225.871094 60.457031 226.214844 61.371094 226.648438 C 62.296875 227.066406 63.359375 227.570312 64.558594 228.160156 C 65.761719 228.75 67.050781 229.488281 68.433594 230.375 C 69.8125 231.265625 71.308594 232.449219 72.917969 233.925781 C 76.171875 237 77.800781 241.058594 77.800781 246.101562 C 77.800781 252.683594 75.984375 258.0625 72.359375 262.242188 C 68.734375 266.421875 63.136719 268.570312 55.570312 268.691406 C 51.882812 268.691406 48.546875 268.386719 45.554688 267.773438 C 42.578125 267.160156 39.976562 265.964844 37.753906 264.1875 C 35.546875 262.398438 34.441406 260.242188 34.441406 257.722656 C 34.441406 255.199219 34.902344 252.695312 35.828125 250.210938 C 36.753906 247.710938 37.738281 246.066406 38.78125 245.273438 Z M 88.910156 262.332031 C 85.066406 258.09375 83.144531 252.222656 83.144531 244.714844 C 83.144531 237.210938 85.066406 231.335938 88.910156 227.097656 C 92.753906 222.859375 97.933594 220.738281 104.453125 220.738281 C 110.976562 220.738281 116.140625 222.859375 119.945312 227.097656 C 123.753906 231.335938 125.65625 237.210938 125.65625 244.714844 C 125.65625 252.222656 123.753906 258.09375 119.945312 262.332031 C 116.140625 266.570312 110.976562 268.691406 104.453125 268.691406 C 97.933594 268.691406 92.753906 266.570312 88.910156 262.332031 Z M 104.492188 236.140625 C 101.019531 236.140625 99.285156 238.96875 99.285156 244.625 C 99.285156 250.28125 101.019531 253.109375 104.492188 253.109375 C 107.972656 253.109375 109.714844 250.28125 109.714844 244.625 C 109.714844 238.96875 107.972656 236.140625 104.492188 236.140625 Z M 131.753906 222.214844 C 131.753906 221.53125 134.398438 221.1875 139.683594 221.1875 C 144.964844 221.1875 147.609375 221.53125 147.609375 222.214844 L 147.609375 249.144531 C 147.609375 252.222656 148.59375 253.757812 150.5625 253.757812 C 152.039062 253.757812 153.703125 253.109375 155.550781 251.8125 L 155.550781 222.214844 C 155.550781 221.601562 158.164062 221.296875 163.386719 221.296875 C 168.613281 221.296875 171.222656 221.601562 171.222656 222.214844 L 171.222656 252.460938 L 173.621094 252.460938 C 175.710938 252.460938 176.753906 254.460938 176.753906 258.460938 C 176.753906 260.488281 176.328125 262.546875 175.476562 264.636719 C 174.238281 267.339844 172.574219 268.691406 170.484375 268.691406 C 166.367188 268.691406 163.320312 267.003906 161.351562 263.628906 L 161.261719 263.71875 C 157.515625 267.035156 153.484375 268.691406 149.175781 268.691406 C 143.21875 268.691406 138.824219 267.203125 135.988281 264.222656 C 133.167969 261.246094 131.753906 256.308594 131.753906 249.417969 Z M 201.652344 267.214844 C 201.652344 267.648438 199.445312 267.863281 195.023438 267.863281 C 188.875 267.683594 185.800781 267.347656 185.800781 266.855469 L 185.800781 236.96875 L 183.40625 236.96875 C 181.808594 236.96875 180.765625 235.617188 180.273438 232.917969 C 180.140625 232.113281 180.074219 231.3125 180.074219 230.519531 C 180.074219 228.609375 180.445312 226.703125 181.191406 224.792969 C 182.296875 222.089844 184.011719 220.738281 186.34375 220.738281 C 188.683594 220.738281 190.773438 221.292969 192.609375 222.394531 C 194.460938 223.5 195.699219 224.605469 196.320312 225.710938 C 200.1875 222.394531 204.792969 220.738281 210.136719 220.738281 C 215.496094 220.738281 219.367188 222.1875 221.757812 225.082031 C 224.160156 227.960938 225.359375 232.695312 225.359375 239.273438 L 225.359375 266.945312 C 225.359375 267.675781 222.730469 268.042969 217.46875 268.042969 C 212.222656 268.042969 209.597656 267.675781 209.597656 266.945312 L 209.597656 240.285156 C 209.597656 237.210938 208.523438 235.671875 206.375 235.671875 C 205.75 235.671875 204.882812 235.9375 203.78125 236.464844 C 202.675781 236.980469 201.964844 237.367188 201.652344 237.617188 Z M 256.542969 203.769531 C 256.542969 202.84375 258.96875 202.382812 263.820312 202.382812 C 265.480469 202.382812 267.398438 202.492188 269.585938 202.707031 C 271.769531 202.921875 272.863281 203.210938 272.863281 203.570312 L 272.863281 252.191406 L 276.089844 252.191406 C 277.625 252.191406 278.640625 253.570312 279.132812 256.332031 C 279.253906 257.136719 279.3125 258.230469 279.3125 259.613281 C 279.3125 260.992188 278.886719 262.667969 278.035156 264.636719 C 276.796875 267.339844 274.828125 268.691406 272.125 268.691406 C 270.097656 268.691406 268.292969 268.296875 266.722656 267.503906 C 265.160156 266.699219 264.101562 265.863281 263.550781 265 L 262.722656 263.808594 C 259.335938 267.0625 255.089844 268.691406 249.988281 268.691406 C 244.882812 268.691406 240.515625 266.570312 236.890625 262.332031 C 233.265625 258.09375 231.449219 252.179688 231.449219 244.589844 C 231.449219 236.988281 233.355469 231.113281 237.160156 226.972656 C 240.980469 222.816406 245.746094 220.738281 251.464844 220.738281 C 253.121094 220.738281 254.8125 220.925781 256.542969 221.296875 Z M 253.5 235.492188 C 250.054688 235.492188 248.328125 238.597656 248.328125 244.804688 C 248.328125 247.941406 248.820312 250.203125 249.808594 251.597656 C 250.792969 252.976562 251.882812 253.667969 253.085938 253.667969 C 254.285156 253.667969 255.4375 253.144531 256.542969 252.101562 L 256.542969 236.410156 C 255.5 235.796875 254.484375 235.492188 253.5 235.492188 Z M 300.449219 204.128906 C 300.257812 203.457031 303.363281 203.121094 309.761719 203.121094 C 316.824219 203.121094 320.449219 203.703125 320.644531 204.867188 L 325.164062 243.707031 L 334.929688 204.417969 C 335.238281 203.492188 337.640625 203.03125 342.132812 203.03125 C 346.625 203.03125 349.019531 203.457031 349.320312 204.308594 L 358.921875 243.886719 L 364.273438 204.6875 C 364.390625 204.015625 365.804688 203.558594 368.503906 203.320312 C 371.207031 203.066406 373.394531 202.941406 375.0625 202.941406 C 381.511719 202.941406 384.644531 203.367188 384.464844 204.21875 L 373.296875 265.375 C 373.058594 266.300781 371.304688 266.980469 368.035156 267.414062 C 364.78125 267.832031 362.140625 268.042969 360.109375 268.042969 C 352.484375 268.042969 348.492188 267.183594 348.132812 265.46875 L 341.84375 240.105469 L 335.035156 265.375 C 334.785156 266.480469 332.628906 267.28125 328.570312 267.773438 C 326.480469 267.953125 324.390625 268.042969 322.300781 268.042969 L 316.390625 267.773438 C 312.332031 267.339844 310.183594 266.570312 309.941406 265.46875 Z M 394.515625 234.285156 C 392.800781 231.210938 391.941406 228.707031 391.941406 226.773438 C 391.941406 224.839844 392.460938 223.597656 393.507812 223.042969 C 397.003906 221.507812 401.804688 220.738281 407.917969 220.738281 C 414.042969 220.738281 418.367188 222.167969 420.886719 225.027344 C 423.410156 227.882812 424.671875 232.113281 424.671875 237.707031 L 424.671875 252.28125 L 427.804688 252.28125 C 428.851562 252.28125 429.667969 252.898438 430.253906 254.136719 C 430.84375 255.359375 431.136719 257.046875 431.136719 259.199219 C 431.136719 261.347656 430.597656 263.46875 429.515625 265.558594 C 428.4375 267.648438 426.976562 268.691406 425.140625 268.691406 C 421.8125 268.691406 419.136719 267.800781 417.105469 266.023438 C 416.191406 265.28125 415.492188 264.386719 414.996094 263.339844 C 412.164062 266.90625 407.761719 268.691406 401.792969 268.691406 C 397.316406 268.691406 393.539062 267.09375 390.464844 263.898438 C 387.390625 260.707031 385.851562 256.921875 385.851562 252.550781 C 385.851562 242.535156 391.84375 237.527344 403.828125 237.527344 L 408.910156 237.527344 L 408.910156 236.589844 C 408.910156 234.992188 408.644531 233.96875 408.117188 233.511719 C 407.601562 233.054688 406.386719 232.824219 404.476562 232.824219 C 402.136719 232.824219 398.816406 233.3125 394.515625 234.285156 Z M 401.902344 251.273438 C 401.902344 252.617188 402.269531 253.644531 403 254.351562 C 403.734375 255.0625 404.671875 255.414062 405.8125 255.414062 C 406.953125 255.414062 407.984375 254.953125 408.910156 254.027344 L 408.910156 246.929688 L 406.316406 246.929688 C 403.375 246.929688 401.902344 248.378906 401.902344 251.273438 Z M 432.796875 221.929688 C 432.605469 221.433594 435.472656 221.1875 441.40625 221.1875 C 447.351562 221.1875 450.324219 221.34375 450.324219 221.65625 L 456.953125 253.019531 L 461.941406 222.125 C 462.121094 221.574219 465.167969 221.296875 471.074219 221.296875 C 477.03125 221.296875 479.921875 221.539062 479.738281 222.019531 L 466.734375 267.125 C 466.300781 267.738281 462.640625 268.042969 455.746094 268.042969 C 448.863281 268.042969 445.175781 267.585938 444.683594 266.671875 Z M 519.308594 265.285156 C 515.429688 267.554688 510.445312 268.691406 504.355469 268.691406 C 498.265625 268.691406 493.132812 266.621094 488.953125 262.476562 C 484.773438 258.320312 482.683594 252.570312 482.683594 245.21875 C 482.683594 237.871094 484.695312 231.957031 488.71875 227.476562 C 492.753906 222.984375 497.847656 220.738281 503.996094 220.738281 C 510.144531 220.738281 514.894531 222.304688 518.246094 225.441406 C 521.59375 228.574219 523.269531 232.386719 523.269531 236.878906 C 523.269531 246.835938 517.554688 251.8125 506.121094 251.8125 L 499.746094 251.8125 C 499.746094 253.660156 500.25 254.941406 501.257812 255.648438 C 502.277344 256.359375 503.773438 256.710938 505.742188 256.710938 C 510.054688 256.710938 514.144531 255.726562 518.011719 253.757812 C 518.070312 253.699219 518.347656 254.125 518.839844 255.035156 C 520.316406 257.691406 521.054688 259.925781 521.054688 261.738281 C 521.054688 263.550781 520.472656 264.734375 519.308594 265.285156 Z M 507.777344 238.625 C 507.777344 236.042969 506.519531 234.753906 503.996094 234.753906 C 502.832031 234.753906 501.828125 235.109375 500.988281 235.816406 C 500.160156 236.523438 499.746094 237.550781 499.746094 238.898438 L 499.746094 241.761719 L 504.734375 241.761719 C 506.765625 241.761719 507.777344 240.714844 507.777344 238.625 Z M 531.203125 251.164062 C 536.1875 254.179688 540.117188 255.683594 543 255.683594 C 544.851562 255.683594 545.773438 255.042969 545.773438 253.757812 C 545.773438 252.832031 544.179688 251.632812 540.984375 250.15625 C 533.296875 247.019531 529.453125 241.886719 529.453125 234.753906 C 529.453125 230.203125 531.113281 226.730469 534.425781 224.339844 C 537.753906 221.941406 541.734375 220.738281 546.371094 220.738281 C 551.015625 220.738281 554.949219 221.230469 558.167969 222.214844 C 561.398438 223.199219 563.015625 224.492188 563.015625 226.089844 C 563.015625 227.433594 562.355469 229.21875 561.03125 231.4375 C 559.710938 233.648438 558.804688 234.84375 558.3125 235.023438 C 555.671875 233.558594 552.8125 232.824219 549.738281 232.824219 C 548.082031 232.824219 547.253906 233.410156 547.253906 234.574219 C 547.253906 235.304688 547.570312 235.9375 548.207031 236.464844 C 548.855469 236.980469 550.039062 237.625 551.753906 238.390625 C 553.484375 239.160156 554.914062 239.855469 556.042969 240.480469 C 557.183594 241.09375 558.460938 241.953125 559.878906 243.058594 C 562.835938 245.386719 564.3125 248.433594 564.3125 252.191406 C 564.3125 257.101562 562.679688 261.082031 559.410156 264.132812 C 556.15625 267.171875 551.238281 268.691406 544.660156 268.691406 C 540.300781 268.691406 536.335938 267.953125 532.769531 266.476562 C 529.203125 265 527.417969 262.96875 527.417969 260.386719 C 527.417969 258.667969 527.832031 256.863281 528.664062 254.964844 C 529.492188 253.054688 530.335938 251.789062 531.203125 251.164062 Z M 531.203125 251.164062 "/>
<path style=" stroke:none;fill-rule:nonzero;fill:rgb(0%,0%,0%);fill-opacity:0.509804;" d="M 218.078125 107.835938 C 218.078125 62.933594 254.476562 26.535156 299.375 26.535156 C 344.277344 26.535156 380.675781 62.933594 380.675781 107.835938 C 380.675781 152.734375 344.277344 189.132812 299.375 189.132812 C 254.476562 189.132812 218.078125 152.734375 218.078125 107.835938 Z M 218.078125 107.835938 "/>
<path style=" stroke:none;fill-rule:nonzero;fill:rgb(100%,100%,100%);fill-opacity:1;" d="M 227.292969 107.835938 C 227.292969 68.023438 259.566406 35.75 299.375 35.75 C 339.1875 35.75 371.460938 68.023438 371.460938 107.835938 C 371.460938 147.644531 339.1875 179.917969 299.375 179.917969 C 259.566406 179.917969 227.292969 147.644531 227.292969 107.835938 Z M 227.292969 107.835938 "/>
<path style=" stroke:none;fill-rule:nonzero;fill:rgb(16.862745%,70.196078%,60.392157%);fill-opacity:1;" d="M 236.839844 107.835938 C 236.839844 73.296875 264.839844 45.296875 299.375 45.296875 C 333.914062 45.296875 361.914062 73.296875 361.914062 107.835938 C 361.914062 142.371094 333.914062 170.371094 299.375 170.371094 C 264.839844 170.371094 236.839844 142.371094 236.839844 107.835938 Z M 236.839844 107.835938 "/>
<path style="fill:none;stroke-width:5;stroke-linecap:round;stroke-linejoin:miter;stroke:rgb(100%,100%,100%);stroke-opacity:1;stroke-miterlimit:10;" d="M 215.650853 163.321181 L 220.676686 155.215869 L 229.429499 170.777067 L 239.157416 147.596181 L 249.04528 170.453317 L 256.664968 155.377744 L 262.662051 163.321181 " transform="matrix(2.027027,0,0,2.027027,-185.782451,-215.224418)"/>
</g>
</svg>
