<svg width="600" height="300" viewBox="0 0 600 300" fill="none" xmlns="http://www.w3.org/2000/svg">
<g clip-path="url(#clip0_68_17)">
<rect width="600" height="300" fill="white"/>
<rect width="600" height="300" fill="#CF63CF"/>
<path d="M300 357C410.457 357 500 267.457 500 157C500 46.5431 410.457 -43 300 -43C189.543 -43 100 46.5431 100 157C100 267.457 189.543 357 300 357Z" stroke="white" stroke-opacity="0.1" stroke-width="40"/>
<path d="M300 436C454.087 436 579 311.087 579 157C579 2.91255 454.087 -122 300 -122C145.913 -122 21 2.91255 21 157C21 311.087 145.913 436 300 436Z" stroke="white" stroke-opacity="0.1" stroke-width="40"/>
<path d="M300 277C366.274 277 420 223.274 420 157C420 90.7258 366.274 37 300 37C233.726 37 180 90.7258 180 157C180 223.274 233.726 277 300 277Z" stroke="white" stroke-opacity="0.1" stroke-width="40"/>
<path d="M50 157C50 118.34 81.3401 87 120 87H600V227H120C81.3401 227 50 195.66 50 157Z" fill="black" fill-opacity="0.15" stroke="black" stroke-opacity="0.15" stroke-width="5"/>
<path d="M50 157C50 118.34 81.3401 87 120 87H600V227H120C81.3401 227 50 195.66 50 157Z" fill="#A12DA1"/>
<path d="M127.49 103.009C127.741 103.017 127.989 103.035 128.234 103.056C157.29 103.813 180.611 127.603 180.611 156.842C180.611 186.558 156.522 210.647 126.806 210.647C97.0897 210.647 73.0002 186.558 73 156.842C73 127.435 96.5909 103.539 125.88 103.045C126.246 103.017 126.618 103 126.996 103L127.49 103.009ZM117.304 164.327C117.894 173.308 119.51 181.13 121.685 186.905C123.076 190.601 124.553 193.072 125.811 194.485C126.377 195.122 126.775 195.411 126.995 195.54C127.215 195.412 127.614 195.123 128.182 194.485C129.44 193.072 130.915 190.601 132.307 186.905C134.481 181.13 136.098 173.308 136.688 164.327H117.304ZM88.7236 164.327C90.869 175.304 97.6413 184.623 106.928 190.173C104.457 182.88 102.833 173.973 102.274 164.327H88.7236ZM151.718 164.327C151.167 173.846 149.577 182.644 147.161 189.883C156.202 184.301 162.779 175.115 164.888 164.327H151.718ZM106.897 123.526C97.6342 129.074 90.8787 138.374 88.7295 149.327H102.272C102.826 139.704 104.44 130.814 106.897 123.526ZM126.995 118.07C126.775 118.199 126.377 118.489 125.811 119.126C124.553 120.539 123.076 123.01 121.685 126.706C119.506 132.491 117.888 140.329 117.301 149.327H136.691C136.104 140.328 134.485 132.491 132.307 126.706C130.915 123.01 129.44 120.539 128.182 119.126C127.614 118.488 127.215 118.198 126.995 118.07ZM147.191 123.818C149.594 131.051 151.173 139.832 151.72 149.327H164.882C162.77 138.564 156.209 129.397 147.191 123.818Z" fill="#B054B0"/>
<path d="M126.996 105.5C127.368 105.5 127.734 105.519 128.095 105.553C155.834 106.237 178.111 128.937 178.111 156.842C178.111 185.177 155.141 208.147 126.806 208.147C98.4705 208.147 75.5002 185.177 75.5 156.842C75.5 128.772 98.0414 105.968 126.01 105.543C126.334 105.516 126.663 105.5 126.996 105.5ZM114.666 161.827C115.101 172.108 116.85 181.162 119.345 187.787C120.798 191.647 122.409 194.424 123.943 196.147C125.481 197.875 126.524 198.111 126.996 198.111C127.469 198.111 128.511 197.875 130.049 196.147C131.583 194.425 133.193 191.647 134.646 187.787C137.141 181.162 138.892 172.108 139.327 161.827H114.666ZM85.8008 161.827C87.64 177.113 97.8256 189.83 111.67 195.285C111.067 194.018 110.505 192.688 109.986 191.311C107.006 183.397 105.096 173.105 104.656 161.827H85.8008ZM149.336 161.827C148.896 173.105 146.985 183.397 144.005 191.311C143.512 192.62 142.979 193.884 142.41 195.094C156.015 189.538 165.992 176.94 167.811 161.827H149.336ZM111.628 118.413C97.8134 123.874 87.6503 136.569 85.8037 151.827H104.654C105.091 140.532 107.002 130.225 109.986 122.301C110.493 120.954 111.041 119.654 111.628 118.413ZM126.649 115.537C126.092 115.652 125.177 116.078 123.943 117.464C122.409 119.187 120.798 121.964 119.345 125.824C116.846 132.459 115.096 141.529 114.664 151.827H139.329C138.897 141.529 137.145 132.459 134.646 125.824C133.193 121.964 131.583 119.187 130.049 117.464C128.83 116.095 127.923 115.663 127.363 115.542C127.178 115.54 126.992 115.536 126.806 115.536C126.754 115.536 126.701 115.537 126.649 115.537ZM142.452 118.605C143.005 119.788 143.524 121.024 144.005 122.301C146.989 130.225 148.901 140.532 149.338 151.827H167.808C165.982 136.743 156.027 124.166 142.452 118.605Z" fill="#E381E3"/>
<path d="M196.92 147.52C196.92 148.027 196.893 148.547 196.84 149.08C196.813 149.613 196.773 150.093 196.72 150.52H196.96C197.413 149.773 197.987 149.16 198.68 148.68C199.373 148.2 200.147 147.84 201 147.6C201.853 147.333 202.733 147.2 203.64 147.2C205.373 147.2 206.813 147.48 207.96 148.04C209.133 148.573 210.013 149.413 210.6 150.56C211.187 151.707 211.48 153.2 211.48 155.04V169H208V155.28C208 153.547 207.613 152.253 206.84 151.4C206.067 150.547 204.853 150.12 203.2 150.12C201.6 150.12 200.347 150.427 199.44 151.04C198.533 151.627 197.88 152.507 197.48 153.68C197.107 154.827 196.92 156.24 196.92 157.92V169H193.4V138.6H196.92V147.52ZM225.287 166.52C225.82 166.52 226.367 166.48 226.927 166.4C227.487 166.293 227.94 166.187 228.287 166.08V168.76C227.913 168.947 227.38 169.093 226.687 169.2C225.993 169.333 225.327 169.4 224.687 169.4C223.567 169.4 222.527 169.213 221.567 168.84C220.633 168.44 219.873 167.76 219.287 166.8C218.7 165.84 218.407 164.493 218.407 162.76V150.28H215.367V148.6L218.447 147.2L219.847 142.64H221.927V147.56H228.127V150.28H221.927V162.68C221.927 163.987 222.233 164.96 222.847 165.6C223.487 166.213 224.3 166.52 225.287 166.52ZM239.74 166.52C240.273 166.52 240.82 166.48 241.38 166.4C241.94 166.293 242.393 166.187 242.74 166.08V168.76C242.366 168.947 241.833 169.093 241.14 169.2C240.446 169.333 239.78 169.4 239.14 169.4C238.02 169.4 236.98 169.213 236.02 168.84C235.086 168.44 234.326 167.76 233.74 166.8C233.153 165.84 232.86 164.493 232.86 162.76V150.28H229.82V148.6L232.9 147.2L234.3 142.64H236.38V147.56H242.58V150.28H236.38V162.68C236.38 163.987 236.686 164.96 237.3 165.6C237.94 166.213 238.753 166.52 239.74 166.52ZM257.233 147.16C259.873 147.16 261.993 148.08 263.593 149.92C265.219 151.76 266.033 154.533 266.033 158.24C266.033 160.667 265.659 162.72 264.913 164.4C264.193 166.053 263.166 167.307 261.833 168.16C260.526 168.987 258.979 169.4 257.193 169.4C256.099 169.4 255.126 169.253 254.273 168.96C253.419 168.667 252.686 168.293 252.073 167.84C251.486 167.36 250.979 166.84 250.553 166.28H250.313C250.366 166.733 250.419 167.307 250.473 168C250.526 168.693 250.553 169.293 250.553 169.8V178.6H247.033V147.56H249.913L250.393 150.48H250.553C250.979 149.867 251.486 149.307 252.073 148.8C252.686 148.293 253.406 147.893 254.233 147.6C255.086 147.307 256.086 147.16 257.233 147.16ZM256.593 150.12C255.153 150.12 253.993 150.4 253.113 150.96C252.233 151.493 251.593 152.307 251.193 153.4C250.793 154.493 250.579 155.88 250.553 157.56V158.24C250.553 160 250.739 161.493 251.113 162.72C251.486 163.947 252.113 164.88 252.993 165.52C253.899 166.16 255.126 166.48 256.673 166.48C257.979 166.48 259.046 166.12 259.873 165.4C260.726 164.68 261.353 163.707 261.753 162.48C262.179 161.227 262.393 159.8 262.393 158.2C262.393 155.747 261.913 153.787 260.953 152.32C260.019 150.853 258.566 150.12 256.593 150.12ZM285.602 163.08C285.602 164.467 285.256 165.627 284.562 166.56C283.869 167.493 282.882 168.2 281.602 168.68C280.322 169.16 278.802 169.4 277.042 169.4C275.549 169.4 274.256 169.28 273.162 169.04C272.096 168.8 271.149 168.467 270.322 168.04V164.84C271.176 165.267 272.202 165.667 273.402 166.04C274.629 166.387 275.869 166.56 277.122 166.56C278.909 166.56 280.202 166.28 281.002 165.72C281.802 165.133 282.202 164.36 282.202 163.4C282.202 162.867 282.056 162.387 281.762 161.96C281.469 161.533 280.936 161.107 280.162 160.68C279.416 160.253 278.336 159.773 276.922 159.24C275.536 158.707 274.349 158.173 273.362 157.64C272.376 157.107 271.616 156.467 271.082 155.72C270.549 154.973 270.282 154.013 270.282 152.84C270.282 151.027 271.016 149.627 272.482 148.64C273.976 147.653 275.922 147.16 278.322 147.16C279.629 147.16 280.842 147.293 281.962 147.56C283.109 147.8 284.176 148.147 285.162 148.6L283.962 151.4C283.376 151.133 282.749 150.907 282.082 150.72C281.442 150.507 280.789 150.347 280.122 150.24C279.456 150.107 278.776 150.04 278.082 150.04C276.642 150.04 275.536 150.28 274.762 150.76C274.016 151.213 273.642 151.84 273.642 152.64C273.642 153.227 273.816 153.733 274.162 154.16C274.509 154.56 275.082 154.96 275.882 155.36C276.709 155.733 277.802 156.187 279.162 156.72C280.522 157.227 281.682 157.747 282.642 158.28C283.602 158.813 284.336 159.467 284.842 160.24C285.349 160.987 285.602 161.933 285.602 163.08ZM291.289 153.922V150.016H294.414V153.922H291.289ZM291.289 169V165.094H294.414V169H291.289ZM302.188 176.031L317.539 134.391H320.664L305.312 176.031H302.188ZM328.438 176.031L343.789 134.391H346.914L331.562 176.031H328.438ZM368.021 156.88C367.861 156.32 367.701 155.773 367.541 155.24C367.381 154.68 367.235 154.16 367.101 153.68C366.995 153.173 366.888 152.707 366.781 152.28C366.675 151.853 366.595 151.493 366.541 151.2H366.381C366.328 151.493 366.248 151.853 366.141 152.28C366.061 152.707 365.955 153.173 365.821 153.68C365.715 154.187 365.581 154.72 365.421 155.28C365.288 155.813 365.128 156.36 364.941 156.92L361.101 168.96H357.101L351.221 147.52H354.861L357.821 158.96C358.035 159.733 358.235 160.52 358.421 161.32C358.608 162.093 358.768 162.84 358.901 163.56C359.061 164.253 359.168 164.853 359.221 165.36H359.381C359.461 165.04 359.555 164.64 359.661 164.16C359.768 163.68 359.875 163.173 359.981 162.64C360.115 162.107 360.248 161.573 360.381 161.04C360.541 160.507 360.688 160.027 360.821 159.6L364.621 147.52H368.461L372.141 159.6C372.328 160.213 372.515 160.867 372.701 161.56C372.915 162.253 373.101 162.933 373.261 163.6C373.421 164.24 373.528 164.813 373.581 165.32H373.741C373.795 164.867 373.888 164.307 374.021 163.64C374.181 162.947 374.355 162.2 374.541 161.4C374.755 160.573 374.968 159.76 375.181 158.96L378.181 147.52H381.781L375.821 168.96H371.701L368.021 156.88ZM399.467 156.88C399.307 156.32 399.147 155.773 398.987 155.24C398.827 154.68 398.68 154.16 398.547 153.68C398.44 153.173 398.333 152.707 398.227 152.28C398.12 151.853 398.04 151.493 397.987 151.2H397.827C397.773 151.493 397.693 151.853 397.587 152.28C397.507 152.707 397.4 153.173 397.267 153.68C397.16 154.187 397.027 154.72 396.867 155.28C396.733 155.813 396.573 156.36 396.387 156.92L392.547 168.96H388.547L382.667 147.52H386.307L389.267 158.96C389.48 159.733 389.68 160.52 389.867 161.32C390.053 162.093 390.213 162.84 390.347 163.56C390.507 164.253 390.613 164.853 390.667 165.36H390.827C390.907 165.04 391 164.64 391.107 164.16C391.213 163.68 391.32 163.173 391.427 162.64C391.56 162.107 391.693 161.573 391.827 161.04C391.987 160.507 392.133 160.027 392.267 159.6L396.067 147.52H399.907L403.587 159.6C403.773 160.213 403.96 160.867 404.147 161.56C404.36 162.253 404.547 162.933 404.707 163.6C404.867 164.24 404.973 164.813 405.027 165.32H405.187C405.24 164.867 405.333 164.307 405.467 163.64C405.627 162.947 405.8 162.2 405.987 161.4C406.2 160.573 406.413 159.76 406.627 158.96L409.627 147.52H413.227L407.267 168.96H403.147L399.467 156.88ZM430.912 156.88C430.752 156.32 430.592 155.773 430.432 155.24C430.272 154.68 430.125 154.16 429.992 153.68C429.885 153.173 429.779 152.707 429.672 152.28C429.565 151.853 429.485 151.493 429.432 151.2H429.272C429.219 151.493 429.139 151.853 429.032 152.28C428.952 152.707 428.845 153.173 428.712 153.68C428.605 154.187 428.472 154.72 428.312 155.28C428.179 155.813 428.019 156.36 427.832 156.92L423.992 168.96H419.992L414.112 147.52H417.752L420.712 158.96C420.925 159.733 421.125 160.52 421.312 161.32C421.499 162.093 421.659 162.84 421.792 163.56C421.952 164.253 422.059 164.853 422.112 165.36H422.272C422.352 165.04 422.445 164.64 422.552 164.16C422.659 163.68 422.765 163.173 422.872 162.64C423.005 162.107 423.139 161.573 423.272 161.04C423.432 160.507 423.579 160.027 423.712 159.6L427.512 147.52H431.352L435.032 159.6C435.219 160.213 435.405 160.867 435.592 161.56C435.805 162.253 435.992 162.933 436.152 163.6C436.312 164.24 436.419 164.813 436.472 165.32H436.632C436.685 164.867 436.779 164.307 436.912 163.64C437.072 162.947 437.245 162.2 437.432 161.4C437.645 160.573 437.859 159.76 438.072 158.96L441.072 147.52H444.672L438.712 168.96H434.592L430.912 156.88ZM449.023 169V165.094H452.148V169H449.023Z" fill="#E381E3"/>
<path d="M485 125C485.396 125 485.782 125.047 486.151 125.134C486.443 125.126 486.739 125.144 487.037 125.189L540.966 133.387C543.286 133.739 545 135.734 545 138.08C545 138.231 544.99 138.38 544.977 138.527C544.991 138.683 545 138.841 545 139V164.666C553.067 166.861 559 174.237 559 183C559 193.493 550.493 202 540 202C529.507 202 521 193.493 521 183C521 174.237 526.933 166.861 535 164.666V142.173L490 136.203V155.666C498.067 157.861 504 165.237 504 174C504 184.493 495.493 193 485 193C474.507 193 466 184.493 466 174C466 165.237 471.933 157.861 480 155.666V130C480 127.239 482.239 125 485 125Z" fill="#B054B0"/>
<path d="M486.151 125.134L485.578 127.567L485.893 127.641L486.217 127.633L486.151 125.134ZM487.037 125.189L487.413 122.718L487.413 122.718L487.037 125.189ZM540.966 133.387L541.342 130.915L541.342 130.915L540.966 133.387ZM545 138.08H547.5V138.08L545 138.08ZM544.977 138.527L542.487 138.296L542.466 138.528L542.487 138.761L544.977 138.527ZM545 164.666H542.5V166.577L544.344 167.078L545 164.666ZM559 183L561.5 183V183H559ZM521 183H518.5V183L521 183ZM535 164.666L535.656 167.078L537.5 166.577V164.666H535ZM535 142.173H537.5V139.983L535.329 139.695L535 142.173ZM490 136.203L490.329 133.725L487.5 133.35V136.203H490ZM490 155.666H487.5V157.577L489.344 158.078L490 155.666ZM504 174L506.5 174V174H504ZM466 174H463.5V174L466 174ZM480 155.666L480.656 158.078L482.5 157.577V155.666H480ZM485 125V127.5C485.199 127.5 485.392 127.523 485.578 127.567L486.151 125.134L486.725 122.7C486.171 122.57 485.593 122.5 485 122.5V125ZM486.151 125.134L486.217 127.633C486.361 127.629 486.51 127.638 486.662 127.661L487.037 125.189L487.413 122.718C486.969 122.65 486.525 122.623 486.086 122.635L486.151 125.134ZM487.037 125.189L486.661 127.661L540.59 135.858L540.966 133.387L541.342 130.915L487.413 122.718L487.037 125.189ZM540.966 133.387L540.59 135.858C541.688 136.025 542.5 136.969 542.5 138.08L545 138.08L547.5 138.08C547.5 134.498 544.883 131.454 541.342 130.915L540.966 133.387ZM545 138.08H542.5C542.5 138.126 542.497 138.192 542.487 138.296L544.977 138.527L547.466 138.759C547.483 138.569 547.5 138.336 547.5 138.08H545ZM544.977 138.527L542.487 138.761C542.496 138.854 542.5 138.933 542.5 139H545H547.5C547.5 138.749 547.486 138.512 547.466 138.294L544.977 138.527ZM545 139H542.5V164.666H545H547.5V139H545ZM545 164.666L544.344 167.078C551.351 168.985 556.5 175.394 556.5 183H559H561.5C561.5 173.08 554.784 164.737 545.656 162.254L545 164.666ZM559 183L556.5 183C556.5 192.113 549.113 199.5 540 199.5V202V204.5C551.874 204.5 561.5 194.874 561.5 183L559 183ZM540 202V199.5C530.887 199.5 523.5 192.113 523.5 183L521 183L518.5 183C518.5 194.874 528.126 204.5 540 204.5V202ZM521 183H523.5C523.5 175.394 528.649 168.985 535.656 167.078L535 164.666L534.344 162.254C525.216 164.737 518.5 173.08 518.5 183H521ZM535 164.666H537.5V142.173H535H532.5V164.666H535ZM535 142.173L535.329 139.695L490.329 133.725L490 136.203L489.671 138.681L534.671 144.651L535 142.173ZM490 136.203H487.5V155.666H490H492.5V136.203H490ZM490 155.666L489.344 158.078C496.351 159.985 501.5 166.394 501.5 174H504H506.5C506.5 164.08 499.784 155.737 490.656 153.254L490 155.666ZM504 174L501.5 174C501.5 183.113 494.113 190.5 485 190.5V193V195.5C496.874 195.5 506.5 185.874 506.5 174L504 174ZM485 193V190.5C475.887 190.5 468.5 183.113 468.5 174L466 174L463.5 174C463.5 185.874 473.126 195.5 485 195.5V193ZM466 174H468.5C468.5 166.394 473.649 159.985 480.656 158.078L480 155.666L479.344 153.254C470.216 155.737 463.5 164.08 463.5 174H466ZM480 155.666H482.5V130H480H477.5V155.666H480ZM480 130H482.5C482.5 128.619 483.619 127.5 485 127.5V125V122.5C480.858 122.5 477.5 125.858 477.5 130H480Z" fill="#B054B0"/>
<path d="M485 125C485.396 125 485.782 125.047 486.151 125.134C486.443 125.126 486.739 125.144 487.037 125.189L540.966 133.387C543.286 133.739 545 135.734 545 138.08C545 138.231 544.99 138.38 544.977 138.527C544.991 138.683 545 138.841 545 139V164.666C553.067 166.861 559 174.237 559 183C559 193.493 550.493 202 540 202C529.507 202 521 193.493 521 183C521 174.237 526.933 166.861 535 164.666V142.173L490 136.203V155.666C498.067 157.861 504 165.237 504 174C504 184.493 495.493 193 485 193C474.507 193 466 184.493 466 174C466 165.237 471.933 157.861 480 155.666V130C480 127.239 482.239 125 485 125Z" fill="#E381E3"/>
</g>
<defs>
<clipPath id="clip0_68_17">
<rect width="600" height="300" fill="white"/>
</clipPath>
</defs>
</svg>
