<svg xmlns="http://www.w3.org/2000/svg" width="600" height="300" viewBox="0 0 600.00002 300"><path fill="#3767b4" d="M0 300V0h600.00001v300z" style="fill-rule:nonzero;stroke:none;stroke-width:1;stroke-linecap:butt;stroke-linejoin:miter;stroke-miterlimit:10;stroke-dasharray:none;stroke-dashoffset:0"/><path fill="#2f5899" d="m296.00001 185.1 45.8 26.4v53l-45.8 26.4-45.8-26.4v-53zM262.00001 38l35.5 20.500004v41L262.00001 120l-35.5-20.499996v-41zM387.00001 74.000004l27.7 16V122l-27.7 16-27.7-16V90.000004ZM579.00001 116l33.8 19.5v39l-33.8 19.5-33.8-19.5v-39zM2 120l44.2 25.5v51L2 222l-44.2-25.5v-51zM107.00001-13l25.1 14.5v29l-25.1 14.5L81.9 30.5v-29zM194.00001 149l22.5 13v26l-22.5 13-22.5-13v-26zM489.00001 186l25.1 14.5v29l-25.1 14.5-25.1-14.5v-29zM187.00001 249l39 22.5v45l-39 22.5-39-22.5v-45zM524.00001-34l30.3 17.5v35l-30.3 17.5-30.3-17.5v-35zM79 234l31.20001 18v36L79 306l-31.2-18v-36zM590.00001 259l23.4 13.5v27l-23.4 13.5-23.4-13.5v-27zM414.00001 253l37.2 21.5v43l-37.2 21.5-37.2-21.5v-43zM414.00001-23l22.5 13v26l-22.5 13-22.5-13v-26zM5 4l44.2 25.5v51.000004L5 106l-44.2-25.499996V29.5Z" style="fill-rule:nonzero;stroke:none;stroke-width:1;stroke-linecap:butt;stroke-linejoin:miter;stroke-miterlimit:10;stroke-dasharray:none;stroke-dashoffset:0"/><g fill="#fff" style="fill-rule:nonzero;stroke-linecap:butt;stroke-linejoin:miter;stroke-miterlimit:10;stroke-dasharray:none;stroke-dashoffset:0"><path d="M411.27444 38.92288v50.11513L395.42371 69.4931l-23.325 24.12048-15.90955-15.90954 24.09503-23.30118-19.12488-15.47998zM243.61358 222.0987l-24.10776 23.31229 19.33487 15.66614h-50.11513V210.962l15.66619 19.33492 23.31229-24.10775zM188.92288 38.72557h50.11513L219.4931 54.57631l24.12048 23.325-15.90955 15.90955-23.30117-24.09503-15.47998 19.12488zM372.0987 206.38642l23.31228 24.10776 15.66614-19.33487v50.11513h-50.11513l19.33491-15.66618-24.10775-23.31229z"/></g><g stroke="#fff" style="fill-rule:nonzero;stroke-linecap:butt;stroke-linejoin:miter;stroke-miterlimit:10;stroke-dasharray:none;stroke-dashoffset:0"><path fill="#fff" d="M350.22252 204.25338c-1.03101 0-2.06203-.39401-2.85005-1.17876L246.76379 102.46265c-1.57279-1.57279-1.57279-4.12731 0-5.7001 1.57279-1.57279 4.12731-1.57279 5.7001 0l100.60868 100.60868c1.57279 1.57279 1.57279 4.12731 0 5.7001-.78804.78475-1.81905 1.18204-2.85005 1.18204z"/><path fill="#3767b4" stroke-width="7.5" d="M291.20867 119.03746c0 12.24405-9.92591 22.16997-22.16997 22.16997-12.24405 0-22.16997-9.92591-22.16997-22.16997 0-12.24405 9.92591-22.16997 22.16997-22.16997 12.24405 0 22.16997 9.92591 22.16997 22.16997z"/><path fill="#3767b4" stroke-width="7.5" d="M288.13559 164.80654c-11.91643-2.81384-19.29552-14.7551-16.48166-26.67151 2.81384-11.91643 14.7551-19.29552 26.67151-16.48166 11.91643 2.81384 19.29552 14.7551 16.48166 26.67151-2.81384 11.91643-14.7551 19.29552-26.67151 16.48166z"/><path fill="#3767b4" stroke-width="7.5" d="M339.58398 167.4095c0 12.24405-9.9292 22.17324-22.17324 22.17324-12.24405 0-22.16997-9.9292-22.16997-22.17324 0-12.24405 9.92591-22.16997 22.16997-22.16997 12.24405 0 22.17324 9.9292 22.17324 22.16997z"/><path fill="#fff" d="M350.38618 204.41704c-1.03101 0-2.06203-.39401-2.85005-1.17876l-24.69166-24.69166c-1.57608-1.57279-1.57608-4.12731 0-5.7001 1.57608-1.57279 4.12402-1.57279 5.7001 0l24.69166 24.69166c1.57279 1.57279 1.57279 4.12731 0 5.7001-.78804.78147-1.81905 1.17876-2.85005 1.17876z"/></g></svg>