<svg xmlns="http://www.w3.org/2000/svg" width="600" height="300" viewBox="17.199 54.723 600 300"><path fill="#96f" d="M17.2 354.723v-300h600v300z" style="mix-blend-mode:normal;fill-rule:nonzero;stroke:none;stroke-width:1;stroke-linecap:butt;stroke-linejoin:miter;stroke-miterlimit:10;stroke-dasharray:none;stroke-dashoffset:0;fill:#4d97ff;fill-opacity:1"/><path fill="#8250e6" d="m313.2 239.823 45.8 26.4v53l-45.8 26.4-45.8-26.4v-53zM404.2 128.723l27.7 16v32l-27.7 16-27.7-16v-32zM596.2 170.723l33.8 19.5v39l-33.8 19.5-33.8-19.5v-39zM49.742 148.631l49.65 28.644v57.288l-49.65 28.643L.093 234.563v-57.288zM140.773 78.124l35.667 20.605v41.209l-35.667 20.605-35.668-20.605v-41.21ZM199.187 187.206l22.5 13v26l-22.5 13-22.5-13v-26zM506.2 240.723l25.1 14.5v29l-25.1 14.5-25.1-14.5v-29zM204.2 303.723l39 22.5v45l-39 22.5-39-22.5v-45zM541.2 20.723l30.3 17.5v35l-30.3 17.5-30.3-17.5v-35zM115.274 259.717l24.263 13.998v27.995l-24.263 13.998L91.01 301.71v-27.995zM431.2 307.723l37.2 21.5v43l-37.2 21.5-37.2-21.5v-43zM431.2 31.723l22.5 13v26l-22.5 13-22.5-13v-26zM505.759 127.18l21.437 12.367v24.736l-21.437 12.368-21.438-12.368v-24.736zM35.667 31.577l35.668 20.605v41.21l-35.668 20.604L0 93.391V52.182ZM591.695 316.369l33.8 19.5v39l-33.8 19.5-33.8-19.5v-39zM35.193 309.011l30.3 17.5v35l-30.3 17.5-30.3-17.5v-35zM310.7 78.723l35.5 20.5v41l-35.5 20.5-35.5-20.5v-41zM226.036 0l35.668 20.605v41.21l-35.668 20.604-35.667-20.605v-41.21ZM621.048 88.107l22.5 13v26l-22.5 13-22.5-13v-26z" style="mix-blend-mode:normal;fill-rule:nonzero;stroke:none;stroke-width:1;stroke-linecap:butt;stroke-linejoin:miter;stroke-miterlimit:10;stroke-dasharray:none;stroke-dashoffset:0;fill:#4280d7;fill-opacity:1"/><path fill="none" stroke="#000" stroke-opacity=".149" stroke-width="10" d="M204.625 91.949h50.79l-19.808 16.064 24.446 23.64-16.124 16.123-23.616-24.42-15.688 19.383z" style="mix-blend-mode:normal;fill-rule:nonzero;stroke-linecap:butt;stroke-linejoin:miter;stroke-miterlimit:10;stroke-dasharray:none;stroke-dashoffset:0"/><path fill="#fff" d="M204.625 91.949h50.79l-19.808 16.064 24.446 23.64-16.124 16.123-23.616-24.42-15.688 19.383z" style="mix-blend-mode:normal;fill-rule:nonzero;stroke-linecap:butt;stroke-linejoin:miter;stroke-miterlimit:10;stroke-dasharray:none;stroke-dashoffset:0"/><path fill="none" stroke="#000" stroke-opacity=".149" stroke-width="10" d="M429.974 92.148v50.791l-16.065-19.808-23.64 24.445-16.123-16.124 24.42-23.615-19.383-15.689z" style="mix-blend-mode:normal;fill-rule:nonzero;stroke-linecap:butt;stroke-linejoin:miter;stroke-miterlimit:10;stroke-dasharray:none;stroke-dashoffset:0"/><path fill="#fff" d="M429.974 92.148v50.791l-16.065-19.808-23.64 24.445-16.123-16.124 24.42-23.615-19.383-15.689z" style="mix-blend-mode:normal;fill-rule:nonzero;stroke-linecap:butt;stroke-linejoin:miter;stroke-miterlimit:10;stroke-dasharray:none;stroke-dashoffset:0"/><path fill="none" stroke="#000" stroke-opacity=".149" stroke-width="10" d="m390.27 261.87 23.626 24.432 15.878-19.595v50.79h-50.791l19.595-15.877-24.432-23.627z" style="mix-blend-mode:normal;fill-rule:nonzero;stroke-linecap:butt;stroke-linejoin:miter;stroke-miterlimit:10;stroke-dasharray:none;stroke-dashoffset:0"/><path fill="#fff" d="m390.27 261.87 23.626 24.432 15.878-19.595v50.79h-50.791l19.595-15.877-24.432-23.627z" style="mix-blend-mode:normal;fill-rule:nonzero;stroke-linecap:butt;stroke-linejoin:miter;stroke-miterlimit:10;stroke-dasharray:none;stroke-dashoffset:0"/><path fill="none" stroke="#000" stroke-opacity=".149" stroke-width="10" d="M260.053 277.794 235.62 301.42l19.595 15.877h-50.79v-50.79l15.877 19.595 23.627-24.432z" style="mix-blend-mode:normal;fill-rule:nonzero;stroke-linecap:butt;stroke-linejoin:miter;stroke-miterlimit:10;stroke-dasharray:none;stroke-dashoffset:0"/><path fill="#fff" d="M260.053 277.794 235.62 301.42l19.595 15.877h-50.79v-50.79l15.877 19.595 23.627-24.432z" style="mix-blend-mode:normal;fill-rule:nonzero;stroke-linecap:butt;stroke-linejoin:miter;stroke-miterlimit:10;stroke-dasharray:none;stroke-dashoffset:0"/><path fill="none" stroke="#000" stroke-opacity=".149" stroke-width="10" d="M368.099 259.708c-1.045 0-2.09-.4-2.889-1.195L263.245 156.545a4.087 4.087 0 0 1 0-5.777 4.087 4.087 0 0 1 5.777 0l101.965 101.965a4.087 4.087 0 0 1-2.888 6.975z" style="mix-blend-mode:normal;fill-rule:nonzero;stroke-linecap:butt;stroke-linejoin:miter;stroke-miterlimit:10;stroke-dasharray:none;stroke-dashoffset:0"/><path fill="none" stroke="#000" stroke-opacity=".149" stroke-width="20" d="M308.29 173.343c0 12.41-10.06 22.469-22.47 22.469-12.409 0-22.468-10.06-22.468-22.469 0-12.41 10.06-22.469 22.468-22.469 12.41 0 22.47 10.06 22.47 22.469z" style="mix-blend-mode:normal;fill-rule:nonzero;stroke-linecap:butt;stroke-linejoin:miter;stroke-miterlimit:10;stroke-dasharray:none;stroke-dashoffset:0"/><path fill="none" stroke="#000" stroke-opacity=".149" stroke-width="20" d="M305.175 219.73c-12.077-2.853-19.556-14.955-16.704-27.032 2.852-12.077 14.954-19.556 27.031-16.704 12.077 2.852 19.556 14.954 16.704 27.031-2.852 12.077-14.954 19.556-27.031 16.704z" style="mix-blend-mode:normal;fill-rule:nonzero;stroke-linecap:butt;stroke-linejoin:miter;stroke-miterlimit:10;stroke-dasharray:none;stroke-dashoffset:0"/><path fill="none" stroke="#000" stroke-opacity=".149" stroke-width="20" d="M357.317 222.367c0 12.41-10.063 22.472-22.472 22.472-12.41 0-22.47-10.063-22.47-22.472s10.06-22.469 22.47-22.469c12.409 0 22.472 10.063 22.472 22.47z" style="mix-blend-mode:normal;fill-rule:nonzero;stroke-linecap:butt;stroke-linejoin:miter;stroke-miterlimit:10;stroke-dasharray:none;stroke-dashoffset:0"/><path fill="#fff" stroke="#fff" d="M368.099 259.708c-1.045 0-2.09-.4-2.889-1.195L263.245 156.545a4.087 4.087 0 0 1 0-5.777 4.087 4.087 0 0 1 5.777 0l101.965 101.965a4.087 4.087 0 0 1-2.888 6.975z" style="mix-blend-mode:normal;fill-rule:nonzero;stroke-linecap:butt;stroke-linejoin:miter;stroke-miterlimit:10;stroke-dasharray:none;stroke-dashoffset:0"/><path fill="#aa80ff" stroke="#fff" stroke-width="7.5" d="M308.29 173.343c0 12.41-10.06 22.469-22.47 22.469-12.409 0-22.468-10.06-22.468-22.469 0-12.41 10.06-22.469 22.468-22.469 12.41 0 22.47 10.06 22.47 22.469z" style="mix-blend-mode:normal;fill-rule:nonzero;stroke-linecap:butt;stroke-linejoin:miter;stroke-miterlimit:10;stroke-dasharray:none;stroke-dashoffset:0;fill:#599eff;fill-opacity:1"/><path fill="#8a5ce6" stroke="#fff" stroke-width="7.5" d="M305.175 219.73c-12.077-2.853-19.556-14.955-16.704-27.032 2.852-12.077 14.954-19.556 27.031-16.704 12.077 2.852 19.556 14.954 16.704 27.031-2.852 12.077-14.954 19.556-27.031 16.704z" style="mix-blend-mode:normal;fill-rule:nonzero;stroke-linecap:butt;stroke-linejoin:miter;stroke-miterlimit:10;stroke-dasharray:none;stroke-dashoffset:0;fill:#3c8dff;fill-opacity:1"/><path fill="#7a45e6" stroke="#fff" stroke-width="7.5" d="M357.317 222.367c0 12.41-10.063 22.472-22.472 22.472-12.41 0-22.47-10.063-22.47-22.472s10.06-22.469 22.47-22.469c12.409 0 22.472 10.063 22.472 22.47z" style="mix-blend-mode:normal;fill-rule:nonzero;stroke-linecap:butt;stroke-linejoin:miter;stroke-miterlimit:10;stroke-dasharray:none;stroke-dashoffset:0;fill:#2680ff;fill-opacity:1"/><path fill="#fff" stroke="#fff" d="M368.264 259.874c-1.044 0-2.09-.4-2.888-1.195l-25.024-25.025a4.081 4.081 0 0 1 0-5.777 4.087 4.087 0 0 1 5.776 0l25.025 25.025a4.087 4.087 0 0 1 0 5.777 4.097 4.097 0 0 1-2.888 1.195z" style="mix-blend-mode:normal;fill-rule:nonzero;stroke-linecap:butt;stroke-linejoin:miter;stroke-miterlimit:10;stroke-dasharray:none;stroke-dashoffset:0"/></svg>