<svg xmlns="http://www.w3.org/2000/svg" width="200" height="100" viewBox="0 0 52.917 26.458"><g stroke-miterlimit="10" data-paper-data="{&quot;isPaintingLayer&quot;:true}" style="mix-blend-mode:normal"><path fill="#d99e82" d="M46.281 20.78c-.405 0-.811-.054-1.121-.162L5.562 6.743c-.619-.217-.619-.57 0-.786.62-.217 1.625-.217 2.244 0l39.597 13.875c.62.216.62.569 0 .786-.31.108-.716.163-1.122.163z"/><path fill="#fcb1e3" d="M22.217 8.735c0 1.689-3.906 3.058-8.725 3.058-4.82 0-8.726-1.37-8.726-3.058 0-1.688 3.907-3.057 8.726-3.057 4.819 0 8.725 1.369 8.725 3.057z"/><path fill="#ffd983" d="M21.008 15.047c-4.69-.388-7.594-2.035-6.487-3.678 1.108-1.644 5.807-2.661 10.497-2.273 4.69.388 7.595 2.035 6.487 3.678-1.107 1.644-5.807 2.661-10.497 2.273z"/><path fill="#a6d388" d="M41.257 15.406c0 1.689-3.908 3.058-8.727 3.058-4.819 0-8.726-1.37-8.726-3.058 0-1.688 3.907-3.057 8.726-3.057 4.819 0 8.727 1.369 8.727 3.057z"/><path fill="#d99e82" d="M46.281 20.78c-.405 0-.811-.054-1.121-.162l-9.718-3.405c-.62-.217-.62-.57 0-.786.62-.217 1.623-.217 2.243 0l9.718 3.405c.62.217.62.57 0 .786-.31.108-.716.163-1.122.163z"/></g></svg>