<svg xmlns="http://www.w3.org/2000/svg" width="600" height="300" viewBox="0 0 158.75 79.375002"><rect width="158.75" height="79.375" ry="0" style="fill:#67ef36;fill-opacity:1;stroke:none;stroke-width:1.99702;stroke-miterlimit:10;stroke-dasharray:none;stroke-opacity:.423719;paint-order:stroke fill markers"/><path d="M99.21876.0000052V19.843752h19.84375zM79.37501.00000552V19.843752h19.84375zM99.21876 19.843757v19.843746h19.84375zM119.06251 0v19.843752h19.84375zM119.06251 19.843752v19.843751h19.84375zM138.90626.00000312V19.843752H158.75ZM138.90626 19.843755v19.843748H158.75Z" style="fill:#47ce15;fill-opacity:1;stroke:none;stroke-width:.276042;stroke-linecap:butt;stroke-linejoin:miter;stroke-miterlimit:4;stroke-dasharray:none;stroke-opacity:1"/><path d="M138.90626 39.687503v19.843749H158.75ZM138.90626 59.531252V79.375H158.75ZM119.06251 39.687503v19.843749h19.84375z" style="fill:#47ce15;fill-opacity:1;stroke:none;stroke-width:.276042;stroke-linecap:butt;stroke-linejoin:miter;stroke-miterlimit:4;stroke-dasharray:none;stroke-opacity:1"/><path d="M119.06251 59.531252v9.921875h9.92187zM119.06251 69.453127v9.921875h9.92187zM128.98439 69.453125V79.375h9.92187z" style="fill:#47ce15;fill-opacity:1;stroke:none;stroke-width:.138021;stroke-linecap:butt;stroke-linejoin:miter;stroke-miterlimit:4;stroke-dasharray:none;stroke-opacity:1"/><path d="M99.21876 69.453129v4.960937h4.96094zM104.1797 69.453129v4.960937h4.96094z" style="fill:#47ce15;fill-opacity:1;stroke:none;stroke-width:.0690105;stroke-linecap:butt;stroke-linejoin:miter;stroke-miterlimit:4;stroke-dasharray:none;stroke-opacity:1"/><path d="M104.1797 74.414065v4.960937h4.96094zM99.21876 74.414065v4.960937h4.96094zM89.296895 69.453127v4.960937h4.96094zM94.257835 69.453127v4.960937h4.96094z" style="fill:#47ce15;fill-opacity:1;stroke:none;stroke-width:.0690105;stroke-linecap:butt;stroke-linejoin:miter;stroke-miterlimit:4;stroke-dasharray:none;stroke-opacity:1"/><path d="M94.257835 74.414063V79.375h4.96094zM89.296895 74.414063V79.375h4.96094zM79.375016 69.453126v4.960937h4.96094zM84.335956 69.453126v4.960937h4.960939z" style="fill:#47ce15;fill-opacity:1;stroke:none;stroke-width:.0690105;stroke-linecap:butt;stroke-linejoin:miter;stroke-miterlimit:4;stroke-dasharray:none;stroke-opacity:1"/><path d="M84.335956 74.414062v4.960937h4.960939zM79.375016 74.414062v4.960937h4.96094zM79.37501 59.531254v4.960937h4.96094zM84.33595 59.531254v4.960937h4.96094z" style="fill:#47ce15;fill-opacity:1;stroke:none;stroke-width:.0690105;stroke-linecap:butt;stroke-linejoin:miter;stroke-miterlimit:4;stroke-dasharray:none;stroke-opacity:1"/><path d="M84.33595 64.49219v4.960937h4.96094zM79.37501 64.49219v4.960937h4.96094zM89.29689 59.531254v4.960937h4.960945zM94.257835 59.531254v4.960937h4.96094z" style="fill:#47ce15;fill-opacity:1;stroke:none;stroke-width:.0690105;stroke-linecap:butt;stroke-linejoin:miter;stroke-miterlimit:4;stroke-dasharray:none;stroke-opacity:1"/><path d="M94.257835 64.49219v4.960937h4.96094zM89.29689 64.49219v4.960937h4.960945zM79.37501 49.609381v4.960937h4.96094zM84.33595 49.609381v4.960937h4.96094z" style="fill:#47ce15;fill-opacity:1;stroke:none;stroke-width:.0690105;stroke-linecap:butt;stroke-linejoin:miter;stroke-miterlimit:4;stroke-dasharray:none;stroke-opacity:1"/><path d="M84.33595 54.570317v4.960937h4.96094zM79.37501 54.570317v4.960937h4.96094zM69.45312 39.687508v4.960937h4.96094zM74.41406 39.687508v4.960937H79.375Z" style="fill:#47ce15;fill-opacity:1;stroke:none;stroke-width:.0690105;stroke-linecap:butt;stroke-linejoin:miter;stroke-miterlimit:4;stroke-dasharray:none;stroke-opacity:1"/><path d="M74.41406 44.648444v4.960937H79.375ZM69.45312 44.648444v4.960937h4.96094zM59.53126 39.687506v4.960937h4.96094zM64.4922 39.687506v4.960937h4.96094z" style="fill:#47ce15;fill-opacity:1;stroke:none;stroke-width:.0690105;stroke-linecap:butt;stroke-linejoin:miter;stroke-miterlimit:4;stroke-dasharray:none;stroke-opacity:1"/><path d="M64.4922 44.648442v4.960937h4.96094zM59.53126 44.648442v4.960937h4.96094zM49.609379 39.687505v4.960937h4.96094zM54.570319 39.687505v4.960937h4.960941z" style="fill:#47ce15;fill-opacity:1;stroke:none;stroke-width:.0690105;stroke-linecap:butt;stroke-linejoin:miter;stroke-miterlimit:4;stroke-dasharray:none;stroke-opacity:1"/><path d="M54.570319 44.648441v4.960937h4.960941zM49.609379 44.648441v4.960937h4.96094zM69.45312 49.609381v4.960937h4.96094zM74.41406 49.609381v4.960937H79.375Z" style="fill:#47ce15;fill-opacity:1;stroke:none;stroke-width:.0690105;stroke-linecap:butt;stroke-linejoin:miter;stroke-miterlimit:4;stroke-dasharray:none;stroke-opacity:1"/><path d="M74.41406 54.570317v4.960937H79.375ZM69.45312 54.570317v4.960937h4.96094zM59.53126 49.609379v4.960937h4.96094zM64.4922 49.609379v4.960937h4.96094z" style="fill:#47ce15;fill-opacity:1;stroke:none;stroke-width:.0690105;stroke-linecap:butt;stroke-linejoin:miter;stroke-miterlimit:4;stroke-dasharray:none;stroke-opacity:1"/><path d="M64.4922 54.570315v4.960937h4.96094zM59.53126 54.570315v4.960937h4.96094zM49.609379 49.609378v4.960937h4.96094zM54.570319 49.609378v4.960937h4.960941z" style="fill:#47ce15;fill-opacity:1;stroke:none;stroke-width:.0690105;stroke-linecap:butt;stroke-linejoin:miter;stroke-miterlimit:4;stroke-dasharray:none;stroke-opacity:1"/><path d="M54.570319 54.570314v4.960937h4.960941zM49.609379 54.570314v4.960937h4.96094zM69.45312 59.531253v4.960937h4.96094zM74.41406 59.531253v4.960937H79.375Z" style="fill:#47ce15;fill-opacity:1;stroke:none;stroke-width:.0690105;stroke-linecap:butt;stroke-linejoin:miter;stroke-miterlimit:4;stroke-dasharray:none;stroke-opacity:1"/><path d="M74.41406 64.492189v4.960937H79.375ZM69.45312 64.492189v4.960937h4.96094zM59.53126 59.531251v4.960937h4.96094zM64.4922 59.531251v4.960937h4.96094z" style="fill:#47ce15;fill-opacity:1;stroke:none;stroke-width:.0690105;stroke-linecap:butt;stroke-linejoin:miter;stroke-miterlimit:4;stroke-dasharray:none;stroke-opacity:1"/><path d="M64.4922 64.492187v4.960937h4.96094zM59.53126 64.492187v4.960937h4.96094zM49.609379 59.53125v4.960937h4.96094zM54.570319 59.53125v4.960937h4.960941z" style="fill:#47ce15;fill-opacity:1;stroke:none;stroke-width:.0690105;stroke-linecap:butt;stroke-linejoin:miter;stroke-miterlimit:4;stroke-dasharray:none;stroke-opacity:1"/><path d="M54.570319 64.492186v4.960937h4.960941zM49.609379 64.492186v4.960937h4.96094zM69.45312 69.453126v4.960937h4.96094zM74.41406 69.453126v4.960937H79.375Z" style="fill:#47ce15;fill-opacity:1;stroke:none;stroke-width:.0690105;stroke-linecap:butt;stroke-linejoin:miter;stroke-miterlimit:4;stroke-dasharray:none;stroke-opacity:1"/><path d="M74.41406 74.414062v4.960937H79.375ZM69.45312 74.414062v4.960937h4.96094zM59.53126 69.453124v4.960937h4.96094zM64.4922 69.453124v4.960937h4.96094z" style="fill:#47ce15;fill-opacity:1;stroke:none;stroke-width:.0690105;stroke-linecap:butt;stroke-linejoin:miter;stroke-miterlimit:4;stroke-dasharray:none;stroke-opacity:1"/><path d="M64.4922 74.41406v4.960937h4.96094zM59.53126 74.41406v4.960937h4.96094zM49.609379 69.453123v4.960937h4.96094zM54.570319 69.453123v4.960937h4.960941Z" style="fill:#47ce15;fill-opacity:1;stroke:none;stroke-width:.0690105;stroke-linecap:butt;stroke-linejoin:miter;stroke-miterlimit:4;stroke-dasharray:none;stroke-opacity:1"/><path d="M54.570319 74.414059v4.960937h4.960941zM49.609379 74.414059v4.960937h4.96094zM49.609373 29.765633v4.960937h4.96094zM54.570313 29.765633v4.960937h4.960937Z" style="fill:#47ce15;fill-opacity:1;stroke:none;stroke-width:.0690105;stroke-linecap:butt;stroke-linejoin:miter;stroke-miterlimit:4;stroke-dasharray:none;stroke-opacity:1"/><path d="M54.570313 34.726569v4.960937h4.960937zM49.609373 34.726569v4.960937h4.96094zM59.53125 29.765633v4.960937h4.96095ZM64.4922 29.765633v4.960937h4.96094z" style="fill:#47ce15;fill-opacity:1;stroke:none;stroke-width:.0690105;stroke-linecap:butt;stroke-linejoin:miter;stroke-miterlimit:4;stroke-dasharray:none;stroke-opacity:1"/><path d="M64.4922 34.726569v4.960937h4.96094zM59.53125 34.726569v4.960937h4.96095zM49.609373 19.84376v4.960937h4.96094zM54.570313 19.84376v4.960937h4.960937z" style="fill:#47ce15;fill-opacity:1;stroke:none;stroke-width:.0690105;stroke-linecap:butt;stroke-linejoin:miter;stroke-miterlimit:4;stroke-dasharray:none;stroke-opacity:1"/><path d="M54.570313 24.804696v4.960937h4.960937zM49.609373 24.804696v4.960937h4.96094zM39.687495 9.921887v4.960937h4.96094zM44.648435 9.921887v4.960937h4.96094z" style="fill:#47ce15;fill-opacity:1;stroke:none;stroke-width:.0690105;stroke-linecap:butt;stroke-linejoin:miter;stroke-miterlimit:4;stroke-dasharray:none;stroke-opacity:1"/><path d="M44.648435 14.882823v4.960937h4.96094zM39.687495 14.882823v4.960937h4.96094zM29.76563 9.921885v4.960937h4.96094zM34.72657 9.921885v4.960937h4.96094z" style="fill:#47ce15;fill-opacity:1;stroke:none;stroke-width:.0690105;stroke-linecap:butt;stroke-linejoin:miter;stroke-miterlimit:4;stroke-dasharray:none;stroke-opacity:1"/><path d="M34.72657 14.882821v4.960937h4.96094zM29.76563 14.882821v4.960937h4.96094zM19.843751 9.921884v4.960937h4.96094z" style="fill:#47ce15;fill-opacity:1;stroke:none;stroke-width:.0690105;stroke-linecap:butt;stroke-linejoin:miter;stroke-miterlimit:4;stroke-dasharray:none;stroke-opacity:1"/><path d="M24.804691 9.921884v4.960937h4.960939z" style="fill:#47ce15;fill-opacity:1;stroke:none;stroke-width:.0690105;stroke-linecap:butt;stroke-linejoin:miter;stroke-miterlimit:4;stroke-dasharray:none;stroke-opacity:1"/><path d="M24.804691 14.88282v4.960937h4.960939z" style="fill:#47ce15;fill-opacity:1;stroke:none;stroke-width:.0690105;stroke-linecap:butt;stroke-linejoin:miter;stroke-miterlimit:4;stroke-dasharray:none;stroke-opacity:1"/><path d="M19.843751 14.88282v4.960937h4.96094zM19.843745.000012v4.960937h4.96094zM24.804685.000012v4.960937h4.96094z" style="fill:#47ce15;fill-opacity:1;stroke:none;stroke-width:.0690105;stroke-linecap:butt;stroke-linejoin:miter;stroke-miterlimit:4;stroke-dasharray:none;stroke-opacity:1"/><path d="M24.804685 4.960948v4.960937h4.96094zM19.843745 4.960948v4.960937h4.96094zM9.921877 9.921883v4.960937h4.96094zM14.882817 9.921883v4.960937h4.960939z" style="fill:#47ce15;fill-opacity:1;stroke:none;stroke-width:.0690105;stroke-linecap:butt;stroke-linejoin:miter;stroke-miterlimit:4;stroke-dasharray:none;stroke-opacity:1"/><path d="M14.882817 14.882819v4.960937h4.960939zM9.921877 14.882819v4.960937h4.96094zM9.921871.0000112V4.960948h4.96094zM14.882811.0000112V4.960948h4.96094z" style="fill:#47ce15;fill-opacity:1;stroke:none;stroke-width:.0690105;stroke-linecap:butt;stroke-linejoin:miter;stroke-miterlimit:4;stroke-dasharray:none;stroke-opacity:1"/><path d="M14.882811 4.960947v4.960937h4.96094zM9.921871 4.960947v4.960937h4.96094zM29.765625.000012v4.960937h4.960945ZM34.72657.000012v4.960937h4.96094z" style="fill:#47ce15;fill-opacity:1;stroke:none;stroke-width:.0690105;stroke-linecap:butt;stroke-linejoin:miter;stroke-miterlimit:4;stroke-dasharray:none;stroke-opacity:1"/><path d="M34.72657 4.960948v4.960937h4.96094zM29.765625 4.960948v4.960937h4.960945Z" style="fill:#47ce15;fill-opacity:1;stroke:none;stroke-width:.0690105;stroke-linecap:butt;stroke-linejoin:miter;stroke-miterlimit:4;stroke-dasharray:none;stroke-opacity:1"/><path d="M128.98438 59.531252v9.921875h9.92187zM99.21876 39.687503v9.921875h9.92187zM99.21876 49.609378v9.921875h9.92187zM109.14064 49.609376v9.921875h9.92187z" style="fill:#47ce15;fill-opacity:1;stroke:none;stroke-width:.138021;stroke-linecap:butt;stroke-linejoin:miter;stroke-miterlimit:4;stroke-dasharray:none;stroke-opacity:1"/><path d="M109.14063 39.687503v9.921875h9.92187zM99.21876 59.531254v9.921875h9.92187zM109.14064 69.453127v9.921875h9.92187z" style="fill:#47ce15;fill-opacity:1;stroke:none;stroke-width:.138021;stroke-linecap:butt;stroke-linejoin:miter;stroke-miterlimit:4;stroke-dasharray:none;stroke-opacity:1"/><path d="M109.14063 59.531254v9.921875h9.92187zM79.37501 39.687506v9.921875h9.92187zM89.29689 49.609379v9.921875h9.92187z" style="fill:#47ce15;fill-opacity:1;stroke:none;stroke-width:.138021;stroke-linecap:butt;stroke-linejoin:miter;stroke-miterlimit:4;stroke-dasharray:none;stroke-opacity:1"/><path d="M39.6875 69.453122v4.960937h4.96094zM44.64844 69.453122v4.960937h4.960939z" style="fill:#47ce15;fill-opacity:1;stroke:none;stroke-width:.0690105;stroke-linecap:butt;stroke-linejoin:miter;stroke-miterlimit:4;stroke-dasharray:none;stroke-opacity:1"/><path d="M44.64844 74.414058v4.960937h4.960939zM39.6875 74.414058v4.960937h4.96094zM39.687494 59.53125v4.960937h4.96094zM44.648434 59.53125v4.960937h4.96094z" style="fill:#47ce15;fill-opacity:1;stroke:none;stroke-width:.0690105;stroke-linecap:butt;stroke-linejoin:miter;stroke-miterlimit:4;stroke-dasharray:none;stroke-opacity:1"/><path d="M44.648434 64.492186v4.960937h4.96094zM39.687494 64.492186v4.960937h4.96094zM29.765604 59.531249v4.960937h4.96094zM34.726544 59.531249v4.960937h4.96094z" style="fill:#47ce15;fill-opacity:1;stroke:none;stroke-width:.0690105;stroke-linecap:butt;stroke-linejoin:miter;stroke-miterlimit:4;stroke-dasharray:none;stroke-opacity:1"/><path d="M34.726544 64.492185v4.960937h4.96094zM29.765604 64.492185v4.960937h4.96094zM19.843744 59.531247v4.960937h4.96094zM24.804684 59.531247v4.960937h4.96094z" style="fill:#47ce15;fill-opacity:1;stroke:none;stroke-width:.0690105;stroke-linecap:butt;stroke-linejoin:miter;stroke-miterlimit:4;stroke-dasharray:none;stroke-opacity:1"/><path d="M24.804684 64.492183v4.960937h4.96094zM19.843744 64.492183v4.960937h4.96094zM9.921863 59.531246v4.960937h4.96094zM14.882803 59.531246v4.960937h4.960941z" style="fill:#47ce15;fill-opacity:1;stroke:none;stroke-width:.0690105;stroke-linecap:butt;stroke-linejoin:miter;stroke-miterlimit:4;stroke-dasharray:none;stroke-opacity:1"/><path d="M14.882803 64.492182v4.960937h4.960941zM9.921863 64.492182v4.960937h4.96094zM29.765604 69.453122v4.960937h4.96094zM34.726544 69.453122v4.960937h4.96094z" style="fill:#47ce15;fill-opacity:1;stroke:none;stroke-width:.0690105;stroke-linecap:butt;stroke-linejoin:miter;stroke-miterlimit:4;stroke-dasharray:none;stroke-opacity:1"/><path d="M34.726544 74.414058v4.960937h4.96094zM29.765604 74.414058v4.960937h4.96094zM19.843744 69.45312v4.960937h4.96094zM24.804684 69.45312v4.960937h4.96094z" style="fill:#47ce15;fill-opacity:1;stroke:none;stroke-width:.0690105;stroke-linecap:butt;stroke-linejoin:miter;stroke-miterlimit:4;stroke-dasharray:none;stroke-opacity:1"/><path d="M24.804684 74.414056v4.960937h4.96094zM19.843744 74.414056v4.960937h4.96094zM9.921863 69.453119v4.960937h4.96094zM14.882803 69.453119v4.960937h4.960941z" style="fill:#47ce15;fill-opacity:1;stroke:none;stroke-width:.0690105;stroke-linecap:butt;stroke-linejoin:miter;stroke-miterlimit:4;stroke-dasharray:none;stroke-opacity:1"/><path d="M14.882803 74.414055v4.960937h4.960941zM9.921863 74.414055v4.960937h4.96094zM39.687505 49.609376v4.960937h4.96094zM44.648445 49.609376v4.960937h4.960939z" style="fill:#47ce15;fill-opacity:1;stroke:none;stroke-width:.0690105;stroke-linecap:butt;stroke-linejoin:miter;stroke-miterlimit:4;stroke-dasharray:none;stroke-opacity:1"/><path d="M44.648445 54.570312v4.960937h4.960939zM39.687505 54.570312v4.960937h4.96094zM39.687499 39.687504v4.960937h4.96094zM44.648439 39.687504v4.960937h4.96094z" style="fill:#47ce15;fill-opacity:1;stroke:none;stroke-width:.0690105;stroke-linecap:butt;stroke-linejoin:miter;stroke-miterlimit:4;stroke-dasharray:none;stroke-opacity:1"/><path d="M44.648439 44.64844v4.960937h4.96094zM39.687499 44.64844v4.960937h4.96094zM29.765609 39.687503v4.960937h4.96094zM34.726549 39.687503v4.960937h4.96094z" style="fill:#47ce15;fill-opacity:1;stroke:none;stroke-width:.0690105;stroke-linecap:butt;stroke-linejoin:miter;stroke-miterlimit:4;stroke-dasharray:none;stroke-opacity:1"/><path d="M34.726549 44.648439v4.960937h4.96094zM29.765609 44.648439v4.960937h4.96094zM19.843749 39.687501v4.960937h4.96094zM24.804689 39.687501v4.960937h4.96094z" style="fill:#47ce15;fill-opacity:1;stroke:none;stroke-width:.0690105;stroke-linecap:butt;stroke-linejoin:miter;stroke-miterlimit:4;stroke-dasharray:none;stroke-opacity:1"/><path d="M24.804689 44.648437v4.960937h4.96094zM19.843749 44.648437v4.960937h4.96094zM9.9218682 39.6875v4.960937h4.9609398zM14.882808 39.6875v4.960937h4.960941z" style="fill:#47ce15;fill-opacity:1;stroke:none;stroke-width:.0690105;stroke-linecap:butt;stroke-linejoin:miter;stroke-miterlimit:4;stroke-dasharray:none;stroke-opacity:1"/><path d="M14.882808 44.648436v4.960937h4.960941zM9.9218682 44.648436v4.960937h4.9609398zM29.765609 49.609376v4.960937h4.96094zM34.726549 49.609376v4.960937h4.96094z" style="fill:#47ce15;fill-opacity:1;stroke:none;stroke-width:.0690105;stroke-linecap:butt;stroke-linejoin:miter;stroke-miterlimit:4;stroke-dasharray:none;stroke-opacity:1"/><path d="M34.726549 54.570312v4.960937h4.96094zM29.765609 54.570312v4.960937h4.96094zM19.843749 49.609374v4.960937h4.96094zM24.804689 49.609374v4.960937h4.96094z" style="fill:#47ce15;fill-opacity:1;stroke:none;stroke-width:.0690105;stroke-linecap:butt;stroke-linejoin:miter;stroke-miterlimit:4;stroke-dasharray:none;stroke-opacity:1"/><path d="M24.804689 54.57031v4.960937h4.96094zM19.843749 54.57031v4.960937h4.96094zM9.9218682 49.609373v4.960937h4.9609398ZM14.882808 49.609373v4.960937h4.960941z" style="fill:#47ce15;fill-opacity:1;stroke:none;stroke-width:.0690105;stroke-linecap:butt;stroke-linejoin:miter;stroke-miterlimit:4;stroke-dasharray:none;stroke-opacity:1"/><path d="M14.882808 54.570309v4.960937h4.960941zM9.9218682 54.570309v4.960937h4.9609398zM39.687507 29.765632v4.960937h4.96094zM44.648447 29.765632v4.960937h4.960939z" style="fill:#47ce15;fill-opacity:1;stroke:none;stroke-width:.0690105;stroke-linecap:butt;stroke-linejoin:miter;stroke-miterlimit:4;stroke-dasharray:none;stroke-opacity:1"/><path d="M44.648447 34.726568v4.960937h4.960939zM39.687507 34.726568v4.960937h4.96094zM39.687501 19.84376v4.960937h4.96094zM44.648441 19.84376v4.960937h4.96094z" style="fill:#47ce15;fill-opacity:1;stroke:none;stroke-width:.0690105;stroke-linecap:butt;stroke-linejoin:miter;stroke-miterlimit:4;stroke-dasharray:none;stroke-opacity:1"/><path d="M44.648441 24.804696v4.960937h4.96094zM39.687501 24.804696v4.960937h4.96094zM29.765611 19.843759v4.960937h4.96094zM34.726551 19.843759v4.960937h4.96094z" style="fill:#47ce15;fill-opacity:1;stroke:none;stroke-width:.0690105;stroke-linecap:butt;stroke-linejoin:miter;stroke-miterlimit:4;stroke-dasharray:none;stroke-opacity:1"/><path d="M34.726551 24.804695v4.960937h4.96094zM29.765611 24.804695v4.960937h4.96094zM19.843751 19.843757v4.960937h4.96094z" style="fill:#47ce15;fill-opacity:1;stroke:none;stroke-width:.0690105;stroke-linecap:butt;stroke-linejoin:miter;stroke-miterlimit:4;stroke-dasharray:none;stroke-opacity:1"/><path d="M24.804691 19.843757v4.960937h4.96094z" style="fill:#47ce15;fill-opacity:1;stroke:none;stroke-width:.0690105;stroke-linecap:butt;stroke-linejoin:miter;stroke-miterlimit:4;stroke-dasharray:none;stroke-opacity:1"/><path d="M24.804691 24.804693v4.960937h4.96094z" style="fill:#47ce15;fill-opacity:1;stroke:none;stroke-width:.0690105;stroke-linecap:butt;stroke-linejoin:miter;stroke-miterlimit:4;stroke-dasharray:none;stroke-opacity:1"/><path d="M19.843751 24.804693v4.960937h4.96094zM9.92187 19.843756v4.960937h4.96094zM14.88281 19.843756v4.960937h4.960941z" style="fill:#47ce15;fill-opacity:1;stroke:none;stroke-width:.0690105;stroke-linecap:butt;stroke-linejoin:miter;stroke-miterlimit:4;stroke-dasharray:none;stroke-opacity:1"/><path d="M14.88281 24.804692v4.960937h4.960941zM9.92187 24.804692v4.960937h4.96094zM29.765611 29.765632v4.960937h4.96094zM34.726551 29.765632v4.960937h4.96094z" style="fill:#47ce15;fill-opacity:1;stroke:none;stroke-width:.0690105;stroke-linecap:butt;stroke-linejoin:miter;stroke-miterlimit:4;stroke-dasharray:none;stroke-opacity:1"/><path d="M34.726551 34.726568v4.960937h4.96094zM29.765611 34.726568v4.960937h4.96094zM19.843751 29.76563v4.960937h4.96094z" style="fill:#47ce15;fill-opacity:1;stroke:none;stroke-width:.0690105;stroke-linecap:butt;stroke-linejoin:miter;stroke-miterlimit:4;stroke-dasharray:none;stroke-opacity:1"/><path d="M24.804691 29.76563v4.960937h4.96094z" style="fill:#47ce15;fill-opacity:1;stroke:none;stroke-width:.0690105;stroke-linecap:butt;stroke-linejoin:miter;stroke-miterlimit:4;stroke-dasharray:none;stroke-opacity:1"/><path d="M24.804691 34.726566v4.960937h4.96094z" style="fill:#47ce15;fill-opacity:1;stroke:none;stroke-width:.0690105;stroke-linecap:butt;stroke-linejoin:miter;stroke-miterlimit:4;stroke-dasharray:none;stroke-opacity:1"/><path d="M19.843751 34.726566v4.960937h4.96094zM9.92187 29.765629v4.960937h4.96094zM14.88281 29.765629v4.960937h4.960941z" style="fill:#47ce15;fill-opacity:1;stroke:none;stroke-width:.0690105;stroke-linecap:butt;stroke-linejoin:miter;stroke-miterlimit:4;stroke-dasharray:none;stroke-opacity:1"/><path d="M14.88281 34.726565v4.960937h4.960941zM9.92187 34.726565v4.960937h4.96094zM-.0000038 9.921883v4.960937h4.96094zM4.9609362 9.921883v4.960937h4.960939z" style="fill:#47ce15;fill-opacity:1;stroke:none;stroke-width:.0690105;stroke-linecap:butt;stroke-linejoin:miter;stroke-miterlimit:4;stroke-dasharray:none;stroke-opacity:1"/><path d="M4.9609362 14.882819v4.960937h4.960939zM-.0000038 14.882819v4.960937h4.96094zM-.0000098.000011v4.960937h4.96094zM4.9609302.000011v4.960937h4.96094z" style="fill:#47ce15;fill-opacity:1;stroke:none;stroke-width:.0690105;stroke-linecap:butt;stroke-linejoin:miter;stroke-miterlimit:4;stroke-dasharray:none;stroke-opacity:1"/><path d="M4.9609302 4.960947v4.960937h4.96094zM-.0000098 4.960947v4.960937h4.96094zM-.0000178 59.531242v4.96094h4.96094zM4.9609222 59.531242v4.96094h4.960941zM4.9609222 64.492182v4.96094h4.960941zM-.0000178 64.492182v4.96094h4.96094zM-.0000178 69.453122v4.96093h4.96094zM4.9609222 69.453122v4.96093h4.960941zM4.9609222 74.414052v4.96094h4.960941zM-.0000178 74.414052v4.96094h4.96094zM-.0000128 39.6875v4.960937h4.96094zM4.9609272 39.6875v4.960937h4.960941z" style="fill:#47ce15;fill-opacity:1;stroke:none;stroke-width:.0690105;stroke-linecap:butt;stroke-linejoin:miter;stroke-miterlimit:4;stroke-dasharray:none;stroke-opacity:1"/><path d="M4.9609272 44.648436v4.960937h4.960941zM-.0000128 44.648436v4.960937h4.96094zM-.0000128 49.609373v4.960937h4.96094zM4.9609272 49.609373v4.960937h4.960941z" style="fill:#47ce15;fill-opacity:1;stroke:none;stroke-width:.0690105;stroke-linecap:butt;stroke-linejoin:miter;stroke-miterlimit:4;stroke-dasharray:none;stroke-opacity:1"/><path d="M4.9609272 54.570309v4.960933h4.960941zM-.0000128 54.570309v4.960933h4.96094zM-.0000108 19.843756v4.960937h4.96094zM4.9609292 19.843756v4.960937h4.960941z" style="fill:#47ce15;fill-opacity:1;stroke:none;stroke-width:.0690105;stroke-linecap:butt;stroke-linejoin:miter;stroke-miterlimit:4;stroke-dasharray:none;stroke-opacity:1"/><path d="M4.9609292 24.804692v4.960937h4.960941zM-.0000108 24.804692v4.960937h4.96094zM-.0000108 29.765629v4.960937h4.96094zM4.9609292 29.765629v4.960937h4.960941z" style="fill:#47ce15;fill-opacity:1;stroke:none;stroke-width:.0690105;stroke-linecap:butt;stroke-linejoin:miter;stroke-miterlimit:4;stroke-dasharray:none;stroke-opacity:1"/><path d="M4.9609292 34.726565v4.960937h4.960941zM-.0000108 34.726565v4.960937h4.96094z" style="fill:#47ce15;fill-opacity:1;stroke:none;stroke-width:.0690105;stroke-linecap:butt;stroke-linejoin:miter;stroke-miterlimit:4;stroke-dasharray:none;stroke-opacity:1"/><path d="M89.29688 39.687506v9.921875h9.92187zM59.53126 19.843758v9.921875h9.92187zM69.45314 29.765631v9.921875h9.92187z" style="fill:#47ce15;fill-opacity:1;stroke:none;stroke-width:.138021;stroke-linecap:butt;stroke-linejoin:miter;stroke-miterlimit:4;stroke-dasharray:none;stroke-opacity:1"/><path d="M69.45313 19.843758v9.921875H79.375ZM39.68751.00001v9.921875h9.92187zM49.60939 9.921883v9.921875h9.92187z" style="fill:#47ce15;fill-opacity:1;stroke:none;stroke-width:.138021;stroke-linecap:butt;stroke-linejoin:miter;stroke-miterlimit:4;stroke-dasharray:none;stroke-opacity:1"/><path d="M49.60938.00001v9.921875h9.92187zM79.37501 19.843755v9.921875h9.92187zM79.37501 29.76563v9.921875h9.92187zM89.29689 29.765628v9.921875h9.92187z" style="fill:#47ce15;fill-opacity:1;stroke:none;stroke-width:.138021;stroke-linecap:butt;stroke-linejoin:miter;stroke-miterlimit:4;stroke-dasharray:none;stroke-opacity:1"/><path d="M89.29688 19.843755v9.921875h9.92187zM59.531261.000007v9.921875h9.92187zM59.531261 9.921882v9.921875h9.92187zM69.453141 9.92188v9.921875h9.921869z" style="fill:#47ce15;fill-opacity:1;stroke:none;stroke-width:.138021;stroke-linecap:butt;stroke-linejoin:miter;stroke-miterlimit:4;stroke-dasharray:none;stroke-opacity:1"/><path d="M69.453131.000007v9.921875H79.375Z" style="fill:#47ce15;fill-opacity:1;stroke:none;stroke-width:.138021;stroke-linecap:butt;stroke-linejoin:miter;stroke-miterlimit:4;stroke-dasharray:none;stroke-opacity:1"/><g transform="translate(-31.930073 -41.649909) scale(1.3006769)"><rect width="57.856705" height="27.439465" x="43.956783" y="48.814945" ry="13.719733" style="fill:#00e60b;fill-opacity:1;stroke:#000;stroke-width:2;stroke-miterlimit:10;stroke-dasharray:none;stroke-opacity:.423719;paint-order:stroke fill markers"/><path fill="#fff" d="M96.43617679 57.04264193q-.16119101.7052142-.24178719 1.53132227-.02014938.22163875.04029741.56417136.0604468.40297955.0604468.56417137 0 .5238734-.68506414.5238734-.44327805 0-.58432102-.2619367-.02014938-.4432775.02014938-1.20893863.04029742-.90670398.04029742-1.20893864-.02014803 0-.0604468-.04029795-1.87385475.0805959-3.52607034.24178772-.04029877.2619367 0 .64476728l.08059482.72536318q-.08059482.6246183-.08059482 1.85370604.0604468.5238734.0604468 4.49322233v1.4708752q0 .34253276.1007442.48357573h1.2492374q.76566033-.10074556.76566033.64476673 0 .44327831-.42312758.6246187-.26193792.10074557-.92685403.04029877-.40297955-.04029877-.94700207-.02014938-.7455123.1007442-1.81340795.161191-1.0880437.06044815-1.32983196-.30223398-.16119182-.24178719 0-.5037251.28208568-.44327697 1.47087493-.44327697.6246187 0 .6246187-.34253274 0-.1813404-.02014938-.34253275 0-.50372511.02014938-.88655527.0604468-1.08804505 0-3.06264455-.08059618-2.8611549.0604468-5.13798933l-.0604468-.06044693q-.6246187.04029795-2.33728136-.02014898-.0805959 0-1.22908761.0805959.28208568 1.93430183.32238364 2.7604099l-.04029796.54402251q-.02014898.30223466-.50372456.30223466-.38283057 0-.64476728-1.4507265-.12089386-.86640602-.24178772-1.75296102 0-.14104284-.14104284-.48357545-.12089387-.36268159-.12089387-.54402239 0-.50372443.76566114-.62461829.06044693 0 .20148977.02014898.14104284.02014897.20148977.02014897h4.9969469q1.85370537-.0805959 3.58651714-.32238363.12089495-.06044693.36268186-.12089387.42312893-.04029809.72536291.20148978.30223534.22163875.20148978.64476727z"/><rect width="31.303207" height="17.347195" x="49.870903" y="53.86108" ry="8.6735973" style="fill:#fff;fill-opacity:1;stroke:#b0c7d2;stroke-width:1.94165;stroke-miterlimit:10;stroke-dasharray:none;stroke-opacity:1;paint-order:stroke fill markers"/></g><path d="M120.51685 26.873095c-1.79015 0-3.23099 1.441512-3.23099 3.231667v6.554741h-6.55542c-1.79015 0-3.23099 1.441512-3.23099 3.231667v.0578c0 1.790151 1.44084 3.231664 3.23099 3.231664h6.55542v6.554744c0 1.790151 1.44084 3.231664 3.23099 3.231664h.0585c1.79015 0 3.23099-1.441513 3.23099-3.231664v-6.554744h6.55542c1.79015 0 3.23099-1.441513 3.23099-3.231664v-.0578c0-1.790155-1.44084-3.231667-3.23099-3.231667h-6.55542v-6.554741c.00001-1.790155-1.44084-3.231667-3.23099-3.231667z" style="fill:#fffffe;fill-opacity:1;stroke:#000;stroke-width:2.42892;stroke-miterlimit:10;stroke-dasharray:none;stroke-opacity:.423719;paint-order:stroke fill markers"/></svg>