<?xml version="1.0" encoding="UTF-8"?>
<svg xmlns="http://www.w3.org/2000/svg" xmlns:xlink="http://www.w3.org/1999/xlink" version="1.1" width="600" height="300" viewBox="0,0,600,300">
  <g transform="translate(59.61068,-30.4576)">
    <g stroke-miterlimit="10">
      <path d="M-59.61068,329.5424v-300h600v300z" fill="#7733ff" stroke="none" stroke-width="0" stroke-linecap="butt"></path>
      <path d="M149.57143,241.55577c0,-37.07173 0,-99.17597 0,-120.60424c0,-14.34665 12.0057,-31.38009 29.3979,-31.38009c37.51058,0 100.0768,0 121.29341,0c13.89409,0 30.16583,16.16927 30.16583,30.00175c0,21.16964 0,83.71303 0,121.29342c0,17.482 -12.35945,29.56197 -30.16583,29.56197c-37.61586,0 -99.53933,0 -120.60424,0c-13.86452,0 -30.08706,-11.77358 -30.08706,-28.8728z" fill-opacity="0.30196" fill="#ffffff" stroke-opacity="0.2" stroke="#000000" stroke-width="3.5" stroke-linecap="butt"></path>
      <path d="M-42.91428,242.05934c0,-37.07173 0,-99.17597 0,-120.60424c0,-14.34665 12.0057,-31.38009 29.3979,-31.38009c37.51058,0 100.07681,0 121.29341,0c13.89409,0 30.16584,16.16928 30.16584,30.00176c0,21.16964 0,83.71303 0,121.29342c0,17.482 -12.35945,29.56197 -30.16583,29.56197c-37.61586,0 -99.53933,0 -120.60424,0c-13.86452,0 -30.08706,-11.77359 -30.08706,-28.8728z" fill-opacity="0.30196" fill="#ffffff" stroke-opacity="0.2" stroke="#000000" stroke-width="3.5" stroke-linecap="butt"></path>
      <g stroke-linecap="butt">
        <path d="M47.83115,248.19467v-68.1645h68.16453l0.01363,34.44994l-36.20719,-0.02837v33.74294z" fill="#e6daff" stroke="none" stroke-width="NaN"></path>
        <path d="M47.78446,111.80534v68.16453h-68.16452l-0.01363,-34.44997l36.2072,0.02838v-33.74294z" fill="#6b26ff" stroke="none" stroke-width="NaN"></path>
        <path d="M40.49353,179.96986c0,-3.99783 3.24088,-7.23871 7.23871,-7.23871c3.99783,0 7.23871,3.24088 7.23871,7.23871c0,3.99783 -3.24088,7.23871 -7.23871,7.23871c-3.99783,0 -7.23871,-3.24088 -7.23871,-7.23871z" fill="#ccb3ff" stroke-opacity="0.12549" stroke="#000000" stroke-width="2.5"></path>
        <path d="M15.66864,176.27685c1.83234,-16.08451 15.48878,-28.57959 32.0636,-28.57959c17.82366,0 32.27258,14.44892 32.27258,32.2726c0,17.82366 -14.44891,32.27259 -32.27258,32.27259c-12.20233,0 -22.82293,-6.77216 -28.30837,-16.76305" fill="none" stroke="#ccb3ff" stroke-width="5"></path>
        <path d="M11.50277,175.86966c2.03748,-18.20476 17.48072,-32.35727 36.22947,-32.35727c20.13491,0 36.45745,16.32255 36.45745,36.45748c0,20.13491 -16.32255,36.45747 -36.45745,36.45747c-12.90159,0 -24.23794,-6.70154 -30.71792,-16.81351" fill="none" stroke-opacity="0.12549" stroke="#000000" stroke-width="3.5"></path>
        <path d="M12.21956,214.63232c0.28093,-2.77608 2.82104,-27.87704 3.247,-32.08627c0.03918,-0.3872 0.21166,-0.47722 0.49088,-0.25484c3.19118,2.54156 23.10813,18.40399 25.24243,20.1038c0.36415,0.29002 0.24171,0.40948 -0.23284,0.29541c-1.98801,-0.47788 -15.57375,-3.74368 -18.27502,-4.39301c-0.30064,-0.07228 -0.55311,0.03641 -0.71005,0.30545c-1.39001,2.38279 -8.29419,14.21813 -9.35621,16.0387c-0.26773,0.45895 -0.45577,0.48066 -0.40618,-0.00924z" fill="#ccb3ff" stroke-opacity="0.12549" stroke="#000000" stroke-width="2.5"></path>
      </g>
      <g>
        <path d="M299.14643,171.48501l-50.24759,-50.24761" fill="none" stroke-opacity="0.50196" stroke="#ccb3ff" stroke-width="3.5" stroke-linecap="round"></path>
        <path d="M231.38406,239.44844l-50.24759,-50.2476" fill="none" stroke-opacity="0.50196" stroke="#ccb3ff" stroke-width="3.5" stroke-linecap="round"></path>
        <path d="M180.85357,187.79668v-68.16451h68.16453l0.01363,34.44994l-36.20719,-0.02837v33.74294z" fill="#e6daff" stroke="none" stroke-width="NaN" stroke-linecap="butt"></path>
        <path d="M230.95328,240.36783v-68.16452h68.16452l0.01363,34.44996l-36.20719,-0.02838v33.74294z" fill="#6b26ff" stroke="none" stroke-width="NaN" stroke-linecap="butt"></path>
        <path d="M197.49115,227.70838c-0.81222,-2.66943 -8.15631,-26.80601 -9.38785,-30.85353c-0.11328,-0.37232 0.01108,-0.52193 0.3545,-0.42453c3.92485,1.11306 28.4206,8.05987 31.04556,8.80428c0.44786,0.12702 0.38103,0.28448 -0.10076,0.36239c-2.01841,0.32639 -15.81203,2.55684 -18.55461,3.00034c-0.30525,0.04937 -0.49619,0.24706 -0.53715,0.55582c-0.36273,2.73464 -2.1643,16.31761 -2.44142,18.40703c-0.06985,0.52672 -0.23495,0.61931 -0.37828,0.14823z" fill="#ccb3ff" stroke-opacity="0.12549" stroke="#000000" stroke-width="2.5" stroke-linecap="butt"></path>
        <path d="M268.56748,163.26715c-0.81222,-2.66943 -8.1563,-26.80601 -9.38784,-30.85353c-0.11329,-0.37232 0.01108,-0.52193 0.35449,-0.42453c3.92485,1.11306 28.42061,8.05987 31.04556,8.80428c0.44786,0.12702 0.38102,0.28448 -0.10077,0.36239c-2.0184,0.32639 -15.81201,2.55684 -18.5546,3.00034c-0.30525,0.04937 -0.4962,0.24706 -0.53715,0.55582c-0.36273,2.73464 -2.1643,16.31761 -2.44142,18.40703c-0.06986,0.52672 -0.23496,0.6193 -0.37828,0.14823z" fill="#ccb3ff" stroke-opacity="0.12549" stroke="#000000" stroke-width="2.5" stroke-linecap="butt"></path>
      </g>
      <path d="M341.96933,241.72243c0,-37.07173 0,-99.17597 0,-120.60424c0,-14.34665 12.0057,-31.38009 29.3979,-31.38009c37.51058,0 100.0768,0 121.29341,0c13.89409,0 30.16583,16.16928 30.16583,30.00176c0,21.16964 0,83.71303 0,121.29342c0,17.482 -12.35945,29.56197 -30.16583,29.56197c-37.61586,0 -99.53933,0 -120.60424,0c-13.86453,0 -30.08706,-11.77359 -30.08706,-28.8728z" fill-opacity="0.30196" fill="#ffffff" stroke-opacity="0.2" stroke="#000000" stroke-width="3.5" stroke-linecap="butt"></path>
      <g>
        <path d="M422.99162,216.42943h-64.67181v-64.67183l32.68475,-0.01293l-0.02691,34.35196h32.01398z" fill="#e6daff" stroke="none" stroke-width="NaN" stroke-linecap="butt"></path>
        <path d="M441.72309,185.97438h32.01397l-0.02692,-34.35196l32.68477,0.01293v64.67183h-64.67182z" fill="#6b26ff" stroke="none" stroke-width="NaN" stroke-linecap="butt"></path>
        <path d="M410.3704,154.10408h41.25" fill="none" stroke="#ccb3ff" stroke-width="5" stroke-linecap="round"></path>
        <path d="M445.58724,164.28456c-0.28514,0.15211 -0.31879,0.03251 -0.10676,-0.24435c0.84107,-1.09829 6.3087,-8.23811 7.40948,-9.67557c0.12428,-0.1623 0.12741,-0.34266 0.00867,-0.50724c-1.06698,-1.47863 -6.43334,-8.91524 -7.21859,-10.00344c-0.18743,-0.25976 -0.14537,-0.36384 0.12143,-0.21495c1.56369,0.87275 16.15588,9.01704 18.49393,10.32197c0.20458,0.11417 0.19286,0.24133 -0.0325,0.36155c-2.44996,1.30687 -17.05985,9.1001 -18.67565,9.96202z" fill="#ccb3ff" stroke-opacity="0.12549" stroke="#000000" stroke-width="2.5" stroke-linecap="butt"></path>
        <path d="M419.66867,164.28455c-1.6158,-0.86192 -16.22568,-8.65515 -18.67564,-9.96202c-0.22536,-0.12022 -0.23708,-0.24737 -0.0325,-0.36155c2.33805,-1.30492 16.93023,-9.44922 18.49393,-10.32197c0.2668,-0.1489 0.30886,-0.04481 0.12143,0.21495c-0.78525,1.0882 -6.15161,8.52481 -7.21859,10.00344c-0.11875,0.16458 -0.11562,0.34494 0.00866,0.50724c1.10078,1.43746 6.56842,8.57727 7.40949,9.67556c0.21203,0.27686 0.17838,0.39646 -0.10676,0.24435z" fill="#ccb3ff" stroke-opacity="0.12549" stroke="#000000" stroke-width="2.5" stroke-linecap="butt"></path>
      </g>
    </g>
  </g>
</svg>
