<?xml version="1.0" encoding="UTF-8"?>
<svg version="1.1" xmlns="http://www.w3.org/2000/svg" width="512" height="384">
<path d="M0 0 C168.96 0 337.92 0 512 0 C512 126.72 512 253.44 512 384 C343.04 384 174.08 384 0 384 C0 257.28 0 130.56 0 0 Z " fill="#DC4343" transform="translate(0,0)"/>
<path d="M0 0 C0.70092773 -0.00903351 1.40185547 -0.01806702 2.12402344 -0.02737427 C12.05763222 -0.11206212 20.86569544 1.2832715 30.3125 4.5625 C31.03671143 4.80846924 31.76092285 5.05443848 32.50708008 5.30786133 C56.17789795 13.84599651 74.00268524 32.52049877 85 54.6875 C95.37781892 79.14950175 94.81648078 104.31748263 84.91015625 128.8359375 C75.55847152 151.06525939 58.079101 168.13895724 35.94921875 177.5078125 C34.64404297 178.02988281 34.64404297 178.02988281 33.3125 178.5625 C32.43207031 178.93117187 31.55164063 179.29984375 30.64453125 179.6796875 C10.00292169 187.84101653 -14.7279549 186.56497344 -35.05932617 178.1640625 C-58.16054824 168.03221207 -75.81909543 150.89010267 -85.6875 127.5625 C-94.68231194 104.36959926 -94.89466191 77.87587959 -84.95117188 54.9753418 C-81.39424908 47.16673118 -77.14854036 40.20838146 -71.6875 33.5625 C-71.08550781 32.79808594 -70.48351562 32.03367187 -69.86328125 31.24609375 C-60.1943633 19.59068952 -47.34186175 11.74157062 -33.6875 5.5625 C-33.06552734 5.27439453 -32.44355469 4.98628906 -31.80273438 4.68945312 C-21.6000939 0.20730495 -10.96720133 0.07453527 0 0 Z " fill="#FC4C4C" transform="translate(145.6875,53.4375)"/>
<path d="M0 0 C2.46962847 1.93794559 4.83579609 3.9528232 7.19140625 6.02734375 C8.00996094 6.7028125 8.82851562 7.37828125 9.671875 8.07421875 C22.40369447 18.89133049 31.68283995 33.21980211 38.0703125 48.578125 C39.27332401 51.20630694 40.65491064 53.70881968 42.06347656 56.23144531 C46.48693252 64.20664042 49.83838561 72.18215368 52.19140625 81.02734375 C52.4855542 82.1265918 52.4855542 82.1265918 52.78564453 83.24804688 C60.19797218 112.12157828 56.63103881 142.03175588 41.56420898 167.87109375 C27.27501517 191.01384167 5.21320977 204.18005057 -20.74609375 210.7734375 C-29.99051416 212.63516105 -39.42844924 212.28361998 -48.80859375 212.02734375 C-49.79730469 212.00929688 -50.78601563 211.99125 -51.8046875 211.97265625 C-70.82217709 210.96392825 -90.43207741 202.98506439 -105.80859375 192.02734375 C-106.81019531 191.32222656 -107.81179687 190.61710938 -108.84375 189.890625 C-116.01979729 184.6154019 -122.3249507 178.77733567 -128.52050781 172.38085938 C-131.37100947 169.43810341 -134.21421726 166.63983714 -137.3828125 164.0390625 C-141.06290481 160.9421486 -143.9014481 157.45257311 -146.74609375 153.58984375 C-147.5186853 152.54485718 -147.5186853 152.54485718 -148.30688477 151.47875977 C-165.34004934 127.9322109 -172.27298116 99.44597546 -168.1171875 70.63671875 C-164.17534249 47.49286334 -153.56664264 27.47553658 -136.80859375 11.02734375 C-135.63683594 9.85945313 -135.63683594 9.85945313 -134.44140625 8.66796875 C-119.40374241 -5.66700052 -100.98726658 -13.69565494 -80.80859375 -17.97265625 C-79.90882812 -18.16730469 -79.0090625 -18.36195312 -78.08203125 -18.5625 C-50.56232542 -22.01067316 -22.78485826 -16.00327319 0 0 Z M-95.80859375 1.02734375 C-96.5238623 1.35444336 -97.23913086 1.68154297 -97.97607422 2.01855469 C-107.12920864 6.31407866 -115.21280648 11.30910009 -122.80859375 18.02734375 C-123.42734375 18.51589844 -124.04609375 19.00445312 -124.68359375 19.5078125 C-140.50412249 32.11479634 -150.45242301 53.46104207 -153.80859375 73.02734375 C-154.17450861 77.76711042 -154.18589785 82.46340709 -154.12109375 87.21484375 C-154.12431641 88.40787109 -154.12753906 89.60089844 -154.13085938 90.83007812 C-154.06688343 101.40937292 -152.30253869 110.57779736 -148.62109375 120.46484375 C-148.31357178 121.29105225 -148.0060498 122.11726074 -147.68920898 122.96850586 C-145.14828744 129.5637728 -142.06489997 135.36142214 -137.80859375 141.02734375 C-137.15761719 141.89746094 -136.50664062 142.76757812 -135.8359375 143.6640625 C-121.11856876 162.63500602 -100.22154368 175.40374317 -76.5078125 179.61328125 C-51.79641809 182.37928738 -26.11621629 177.37043432 -6.19189453 161.76074219 C-2.53364396 158.70493496 0.84122343 155.41565098 4.19140625 152.02734375 C5.00480469 151.22425781 5.81820312 150.42117187 6.65625 149.59375 C23.49768139 132.06138809 30.78175302 107.30284441 30.67919922 83.43652344 C29.96172465 58.45809736 17.66047379 36.56127111 0.328125 19.15625 C-17.00651769 3.08365839 -38.58787031 -4.62982309 -61.99609375 -4.47265625 C-62.72570312 -4.47022919 -63.4553125 -4.46780212 -64.20703125 -4.46530151 C-75.372972 -4.39321875 -85.56517016 -3.73201385 -95.80859375 1.02734375 Z " fill="#D34141" transform="translate(207.80859375,57.97265625)"/>
<path d="M0 0 C2.9090271 -0.38095093 2.9090271 -0.38095093 6.68115234 -0.38818359 C7.36752274 -0.39344055 8.05389313 -0.39869751 8.76106262 -0.40411377 C11.03625062 -0.41734668 13.31074203 -0.40856272 15.5859375 -0.3984375 C17.16533543 -0.40045777 18.74473246 -0.40336881 20.3241272 -0.40713501 C23.63804993 -0.41156318 26.95173039 -0.40511339 30.265625 -0.39111328 C34.51172949 -0.37404882 38.75726399 -0.38384171 43.0033474 -0.40183067 C46.26675701 -0.4126792 49.53003188 -0.40921682 52.79344559 -0.4014473 C54.358731 -0.39944678 55.92402867 -0.40189936 57.48929977 -0.40888596 C59.67988127 -0.41651515 61.86954531 -0.40487566 64.06005859 -0.38818359 C65.92964737 -0.38460342 65.92964737 -0.38460342 67.83700562 -0.38095093 C71.29238699 0.03521508 72.73501172 0.35821358 75 3 C75.49447632 5.7769928 75.49447632 5.7769928 75.48583984 9.18383789 C75.49506973 11.09580711 75.49506973 11.09580711 75.50448608 13.04640198 C75.49069115 14.43849407 75.47615725 15.83057901 75.4609375 17.22265625 C75.45855315 18.64847141 75.45764774 20.07428975 75.4581604 21.50010681 C75.45503275 24.48700654 75.43846954 27.47342612 75.41162109 30.46020508 C75.37761004 34.29276204 75.36999336 38.12479213 75.37151146 41.95748234 C75.37096822 44.9008438 75.36000908 47.8440896 75.34550858 50.78741264 C75.33913572 52.20083173 75.33520054 53.61426393 75.33372116 55.02769661 C75.32939526 57.00036442 75.31032252 58.97298341 75.29052734 60.94555664 C75.27909195 62.63075157 75.27909195 62.63075157 75.26742554 64.34999084 C75 67 75 67 73 69 C70.25514407 69.14507695 67.61519457 69.18652423 64.875 69.125 C64.12089844 69.11597656 63.36679688 69.10695313 62.58984375 69.09765625 C60.72642746 69.0740687 58.86317407 69.03819719 57 69 C56.62875 69.8353125 56.62875 69.8353125 56.25 70.6875 C54.71874638 73.52031919 53.25180129 75.67669423 51 78 C46.90283992 78.94200909 42.83452345 78.8448963 38.63769531 78.81665039 C36.63820205 78.81252722 34.63897975 78.87967421 32.640625 78.94726562 C23.05270425 78.97157577 23.05270425 78.97157577 20.0390625 76.19018555 C19.09733148 74.75535725 18.19517538 73.29357813 17.33935547 71.8059082 C16.1499556 69.85769338 16.1499556 69.85769338 14.09423828 69.29760742 C11.94564543 69.10194177 9.90467862 69.08686941 7.75 69.1875 C5.12901109 69.23681968 2.62411823 69.17356836 0 69 C-2.33881638 65.49177542 -2.25280607 64.07299679 -2.25878906 59.92382812 C-2.26509338 58.67243042 -2.27139771 57.42103271 -2.27789307 56.13171387 C-2.27431327 54.76489115 -2.27021131 53.39806971 -2.265625 52.03125 C-2.26697228 50.63024834 -2.26891335 49.22924713 -2.27142334 47.82824707 C-2.27437163 44.89277696 -2.27008652 41.95742861 -2.26074219 39.02197266 C-2.24934771 35.25904905 -2.25590877 31.49641075 -2.26788712 27.73349762 C-2.27511373 24.84073741 -2.27281412 21.94804484 -2.26763153 19.05528259 C-2.26629725 17.66780056 -2.26793502 16.28031239 -2.27259064 14.89283752 C-2.27766871 12.95395017 -2.26855675 11.01504128 -2.25878906 9.07617188 C-2.25719788 7.97269409 -2.25560669 6.86921631 -2.25396729 5.7322998 C-2 3 -2 3 0 0 Z " fill="#FC4E4F" transform="translate(106,124)"/>
<path d="M0 0 C10.86513716 9.51901397 16.00821491 34.14600203 17 48 C18.55589713 77.82517516 11.77556545 106.13436278 -8.23388672 129.01855469 C-23.4474804 145.67095336 -46.45251921 157.16687148 -69 159 C-75.33711223 159.25715818 -81.66200676 159.1731612 -88 159 C-88.98871094 158.98195313 -89.97742188 158.96390625 -90.99609375 158.9453125 C-116.02359901 157.61780052 -142.70396582 144.57313625 -160.15625 126.8046875 C-161.4920611 125.24834155 -162.75807428 123.63224523 -164 122 C-161.00763824 123.42667615 -158.17847006 125.06863724 -155.33300781 126.76660156 C-148.14685421 131.01170388 -140.99304248 134.48764549 -133 137 C-132.37770508 137.19609863 -131.75541016 137.39219727 -131.11425781 137.59423828 C-111.92676999 143.37696317 -90.02246697 143.36791304 -71 137 C-69.97060303 136.66258789 -69.97060303 136.66258789 -68.92041016 136.31835938 C-55.02947584 131.67204824 -43.47600376 125.11614947 -32 116 C-31.29101562 115.45859375 -30.58203125 114.9171875 -29.8515625 114.359375 C-10.37655286 98.62038762 2.15717763 71.50361935 5 47 C5.91277348 30.82254654 4.02681309 15.63453953 0 0 Z " fill="#9E2323" transform="translate(247,111)"/>
<path d="M0 0 C3.96147078 -0.32200088 6.38746071 0.36528572 9.54003906 2.64404297 C12.18709275 5.21124814 13.10389757 7.11343391 13.52441406 10.76904297 C13.54284607 12.42529072 13.52379316 14.08232531 13.46972656 15.73779297 C13.49679688 16.56666016 13.52386719 17.39552734 13.55175781 18.24951172 C13.51175391 21.84414797 13.3523846 24.28050734 11.07788086 27.15429688 C8.24152024 29.68405419 6.48321429 31.124369 2.65722656 31.61279297 C1.97660156 31.48904297 1.29597656 31.36529297 0.59472656 31.23779297 C0.59472656 31.89779297 0.59472656 32.55779297 0.59472656 33.23779297 C1.23410156 33.52654297 1.87347656 33.81529297 2.53222656 34.11279297 C4.59472656 35.23779297 4.59472656 35.23779297 5.59472656 37.23779297 C6.17190013 41.96872385 6.02889282 45.3849664 3.84472656 49.67529297 C1.22957048 52.65366517 -0.66646855 54.00928079 -4.6159668 54.52832031 C-7.19209467 54.57749012 -9.76614173 54.60909357 -12.34277344 54.61279297 C-13.23673828 54.63728516 -14.13070312 54.66177734 -15.05175781 54.68701172 C-19.35152362 54.70616435 -21.73858294 54.65575663 -25.45214844 52.32763672 C-28.50395361 49.06220518 -29.30860693 47.3011246 -29.71777344 42.80029297 C-29.3897444 39.06076191 -28.58619875 37.23656528 -26.40527344 34.23779297 C-27.14777344 34.07279297 -27.89027344 33.90779297 -28.65527344 33.73779297 C-33.29842931 31.20516249 -34.63056463 26.83328632 -36.09667969 21.92138672 C-36.63438333 19.69912899 -37.05137554 17.49599862 -37.40527344 15.23779297 C-37.57027344 14.20654297 -37.73527344 13.17529297 -37.90527344 12.11279297 C-37.15469258 7.79695302 -34.54200341 5.18761934 -31.40527344 2.23779297 C-28.73751323 0.90391287 -26.56877529 1.02363371 -23.58496094 0.92138672 C-21.82152344 0.85854492 -21.82152344 0.85854492 -20.02246094 0.79443359 C-18.78753906 0.75511719 -17.55261719 0.71580078 -16.28027344 0.67529297 C-15.06855469 0.63210937 -13.85683594 0.58892578 -12.60839844 0.54443359 C-10.25169333 0.46356626 -7.89454086 0.39468197 -5.53710938 0.33886719 C-3.68891532 0.27922014 -1.84018525 0.18192656 0 0 Z " fill="#FA4C4D" transform="translate(154.4052734375,134.76220703125)"/>
<path d="M0 0 C1.65 0 3.3 0 5 0 C5 2.31 5 4.62 5 7 C6.051875 6.9175 7.10375 6.835 8.1875 6.75 C12.53763669 7.03525487 13.9315153 8.02449969 17 11 C17.680625 10.154375 18.36125 9.30875 19.0625 8.4375 C22 6 22 6 25.5625 5.9375 C29.16950823 7.05239345 30.6605887 8.09912999 33 11 C33.13277344 10.36191406 33.26554687 9.72382812 33.40234375 9.06640625 C33.57894531 8.24011719 33.75554687 7.41382812 33.9375 6.5625 C34.11152344 5.73878906 34.28554687 4.91507812 34.46484375 4.06640625 C35 2 35 2 36 1 C38.109375 0.76171875 38.109375 0.76171875 40.75 0.6875 C41.61109375 0.65011719 42.4721875 0.61273438 43.359375 0.57421875 C46.96387558 1.15541781 48.52618002 2.33386892 51 5 C51.9516672 9.38326716 51.71190454 13.58282854 51 18 C48.55990446 21.36337494 46.42178255 22.71881164 43 25 C39.93359375 25.16015625 39.93359375 25.16015625 36.4375 25.0625 C32.05816916 24.77819435 32.05816916 24.77819435 28 26 C24.37987912 26.32178852 22.54899339 26.34814215 19.4375 24.375 C18.633125 23.92125 17.82875 23.4675 17 23 C16.26136719 23.29648438 15.52273437 23.59296875 14.76171875 23.8984375 C11.47287345 25.21025416 8.90579816 25.26623355 5.375 25.25 C4.24835938 25.25515625 3.12171875 25.2603125 1.9609375 25.265625 C-1 25 -1 25 -4 23 C-4.47695312 23.474375 -4.95390625 23.94875 -5.4453125 24.4375 C-9.14910221 26.7028148 -12.60378597 26.75849355 -16.875 27 C-17.66519531 27.07605469 -18.45539063 27.15210937 -19.26953125 27.23046875 C-23.43051125 27.48663557 -26.13627407 27.37180552 -29.484375 24.73828125 C-32.65380238 21.28833001 -33.1231924 19.47171876 -34 15 C-33.95359375 15.67546875 -33.9071875 16.3509375 -33.859375 17.046875 C-33.56766105 24.256377 -33.56766105 24.256377 -35.5625 27.6875 C-39.06751372 29.57481508 -41.23363485 29.04621254 -45 28 C-47.23177054 24.65234419 -47.24633323 23.52938715 -47.1875 19.625 C-47.18105469 18.68914062 -47.17460938 17.75328125 -47.16796875 16.7890625 C-47.00628217 14.10431317 -46.5953259 11.61943397 -46 9 C-47.98 9 -49.96 9 -52 9 C-52 7.68 -52 6.36 -52 5 C-38.51660517 2.5202952 -38.51660517 2.5202952 -33 3 C-32.34 3.66 -31.68 4.32 -31 5 C-30.34 4.34 -29.68 3.68 -29 3 C-29 3.66 -29 4.32 -29 5 C-26.66705225 5.04241723 -24.33297433 5.04092937 -22 5 C-21.67 4.67 -21.34 4.34 -21 4 C-18.30764224 3.76321284 -15.63501844 3.57801975 -12.9375 3.4375 C-12.17888672 3.39431641 -11.42027344 3.35113281 -10.63867188 3.30664062 C-8.75934562 3.20026367 -6.87969756 3.09960066 -5 3 C-5.33 3.99 -5.66 4.98 -6 6 C-3.525 6.495 -3.525 6.495 -1 7 C-0.67 4.69 -0.34 2.38 0 0 Z " fill="#D64A4A" transform="translate(131,87)"/>
<path d="M0 0 C1.32 0.33 2.64 0.66 4 1 C4 2.32 4 3.64 4 5 C4.99 5.33 5.98 5.66 7 6 C7.83082714 9.62753802 8.13085068 12.98645335 8.14526367 16.70483398 C8.15164352 17.82627304 8.15802338 18.9477121 8.16459656 20.10313416 C8.16570938 21.30531082 8.1668222 22.50748749 8.16796875 23.74609375 C8.17296135 25.61189842 8.17296135 25.61189842 8.17805481 27.51539612 C8.18311342 30.14380524 8.18546346 32.77222078 8.18530273 35.40063477 C8.18522131 38.09015605 8.19218938 40.77950763 8.20581055 43.46899414 C8.22412834 47.35308024 8.229039 51.23696877 8.23046875 55.12109375 C8.23765427 56.32124619 8.24483978 57.52139862 8.25224304 58.75791931 C8.24916641 59.88251053 8.24608978 61.00710175 8.24291992 62.16577148 C8.24434494 63.14996567 8.24576996 64.13415985 8.24723816 65.1481781 C7.83317989 69.9242226 6.7492914 73.1546456 3.5625 76.75 C0.00889454 79.5197219 -3.72288142 79.76019293 -8.12109375 80.0546875 C-11.37545018 81.12328215 -11.86337346 81.93658557 -13.9453125 84.51953125 C-17.31537907 88.10519749 -19.88034502 88.59097874 -24.74609375 88.89453125 C-27.31002494 88.90378732 -29.87432203 88.87532927 -32.4375 88.8125 C-33.72205078 88.83119141 -35.00660156 88.84988281 -36.33007812 88.86914062 C-44.52581587 88.78891444 -49.07494854 87.64495102 -55 82 C-58.19541767 80.32240572 -60.2880182 79.9725697 -63.9375 79.625 C-68.12735619 79.17354102 -70.73055449 77.72453792 -74 75 C-76.12272015 72.00889434 -76.20086799 69.61562381 -76 66 C-75.34 66.33 -74.68 66.66 -74 67 C-69.05786954 67.06755775 -69.05786954 67.06755775 -64.1171875 66.99023438 C-61.84007179 67.03890878 -60.1324929 67.17901208 -58 68 C-56.65625 69.80810547 -56.65625 69.80810547 -55.390625 71.99609375 C-53.3908351 75.03413167 -52.49888283 75.87298939 -48.91503906 76.78540039 C-45.08154268 77.07772896 -41.34319472 77.09105298 -37.5 77 C-36.19417969 77.0309375 -34.88835937 77.061875 -33.54296875 77.09375 C-26.74413493 77.27666908 -26.74413493 77.27666908 -21.05004883 74.18139648 C-20.10868523 72.74959605 -19.20588082 71.29151585 -18.34814453 69.80810547 C-17 68 -17 68 -15.07763672 67.26611328 C-12.913585 67.03128959 -10.86242661 66.98927681 -8.6875 67.0625 C-3.96518973 67.501265 -3.96518973 67.501265 0 66 C0.09413687 63.94443339 0.11742998 61.88559819 0.11352539 59.82788086 C0.11367142 59.18399918 0.11381744 58.54011749 0.1139679 57.87672424 C0.11326885 55.73939697 0.10547691 53.60215587 0.09765625 51.46484375 C0.09579204 49.98653715 0.09436815 48.50822993 0.09336853 47.02992249 C0.08954359 43.13201198 0.07971352 39.23413851 0.06866455 35.33624268 C0.05844992 31.36153667 0.0538708 27.38682471 0.04882812 23.41210938 C0.03809122 15.608056 0.02101509 7.80403318 0 0 Z " fill="#C83A3B" transform="translate(180,125)"/>
<path d="M0 0 C3.5625 0.3125 3.5625 0.3125 5.5 1.5625 C6.5625 3.3125 6.5625 3.3125 6.5625 7.3125 C12.09305401 8.67476002 12.09305401 8.67476002 17.4375 7.3125 C20.25468721 5.98676484 22.48515495 6.11180358 25.5625 6.3125 C26.2225 6.6425 26.8825 6.9725 27.5625 7.3125 C28.01625 6.508125 28.47 5.70375 28.9375 4.875 C30.5625 2.3125 30.5625 2.3125 32.5625 1.3125 C37.47074596 0.72410633 42.43337766 0.19302802 46.91015625 2.546875 C48.72311197 4.05084648 50.2229328 5.37390098 51.5625 7.3125 C51.5625 8.3025 51.5625 9.2925 51.5625 10.3125 C52.2225 9.9825 52.8825 9.6525 53.5625 9.3125 C58.50519981 9.0694164 62.05259758 9.05754879 66.5625 11.3125 C66.871875 10.673125 67.18125 10.03375 67.5 9.375 C68.5625 7.3125 68.5625 7.3125 69.5625 6.3125 C75.87357206 5.84501318 75.87357206 5.84501318 78.3125 7.5 C78.725 8.098125 79.1375 8.69625 79.5625 9.3125 C80.119375 10.055 80.67625 10.7975 81.25 11.5625 C84.09811661 17.52998242 82.57113245 25.1684478 80.5625 31.3125 C79.23828125 33.1171875 79.23828125 33.1171875 77.5625 34.3125 C73.86443242 34.65546594 70.49113923 34.0379994 67.5625 31.75 C67.0675 31.0384375 67.0675 31.0384375 66.5625 30.3125 C65.69625 30.6425 64.83 30.9725 63.9375 31.3125 C60.50284677 32.33017503 58.11406655 32.69032623 54.5625 32.3125 C52.89233484 31.31835407 51.22529327 30.3189275 49.5625 29.3125 C48.22596975 29.63277453 46.89341063 29.96962133 45.5625 30.3125 C43.1467094 30.38081987 40.72915287 30.39737642 38.3125 30.375 C37.04921875 30.36597656 35.7859375 30.35695313 34.484375 30.34765625 C33.52015625 30.33605469 32.5559375 30.32445313 31.5625 30.3125 C31.5625 29.9825 31.5625 29.6525 31.5625 29.3125 C32.8 29.18875 34.0375 29.065 35.3125 28.9375 C40.77273378 28.2357446 44.00638604 26.6347686 47.5625 22.3125 C48.19436061 19.14830491 48.19436061 19.14830491 48.0625 15.75 C48.0728125 14.61433594 48.083125 13.47867188 48.09375 12.30859375 C47.82788488 9.27170809 47.82788488 9.27170809 45.859375 7.421875 C43.13397655 6.10552609 41.32386347 6.00613039 38.3125 6.125 C36.745 6.186875 35.1775 6.24875 33.5625 6.3125 C32.9025 11.2625 32.2425 16.2125 31.5625 21.3125 C31.2325 21.3125 30.9025 21.3125 30.5625 21.3125 C30.315 20.219375 30.0675 19.12625 29.8125 18 C28.84096266 14.39542738 28.84096266 14.39542738 26.875 12.3125 C23.4614819 10.83638406 21.10327054 11.39452245 17.5625 12.3125 C15.26616176 15.75700737 15.02233515 18.25062283 14.5625 22.3125 C14.2325 22.3125 13.9025 22.3125 13.5625 22.3125 C13.459375 21.219375 13.35625 20.12625 13.25 19 C12.81735472 15.49032085 12.81735472 15.49032085 11.4375 13.4375 C8.61846316 11.74607789 5.79272817 11.61723851 2.5625 11.3125 C2.5625 9.0025 2.5625 6.6925 2.5625 4.3125 C0.9125 4.3125 -0.7375 4.3125 -2.4375 4.3125 C-2.4375 11.2425 -2.4375 18.1725 -2.4375 25.3125 C-2.7675 25.3125 -3.0975 25.3125 -3.4375 25.3125 C-3.4375 20.6925 -3.4375 16.0725 -3.4375 11.3125 C-5.0875 10.9825 -6.7375 10.6525 -8.4375 10.3125 C-8.1075 9.3225 -7.7775 8.3325 -7.4375 7.3125 C-6.7775 7.3125 -6.1175 7.3125 -5.4375 7.3125 C-5.499375 6.136875 -5.499375 6.136875 -5.5625 4.9375 C-5.36181908 0.72320067 -4.06486009 0.36953274 0 0 Z " fill="#D54747" transform="translate(133.4375,82.6875)"/>
<path d="M0 0 C3.96147078 -0.32200088 6.38746071 0.36528572 9.54003906 2.64404297 C12.18709275 5.21124814 13.10389757 7.11343391 13.52441406 10.76904297 C13.54284607 12.42529072 13.52379316 14.08232531 13.46972656 15.73779297 C13.49679688 16.56666016 13.52386719 17.39552734 13.55175781 18.24951172 C13.51175391 21.84414797 13.3523846 24.28050734 11.07788086 27.15429688 C8.24152024 29.68405419 6.48321429 31.124369 2.65722656 31.61279297 C1.97660156 31.48904297 1.29597656 31.36529297 0.59472656 31.23779297 C0.59472656 31.89779297 0.59472656 32.55779297 0.59472656 33.23779297 C1.23410156 33.52654297 1.87347656 33.81529297 2.53222656 34.11279297 C4.59472656 35.23779297 4.59472656 35.23779297 5.59472656 37.23779297 C6.17190013 41.96872385 6.02889282 45.3849664 3.84472656 49.67529297 C1.22957048 52.65366517 -0.66646855 54.00928079 -4.6159668 54.52832031 C-7.19209467 54.57749012 -9.76614173 54.60909357 -12.34277344 54.61279297 C-13.23673828 54.63728516 -14.13070312 54.66177734 -15.05175781 54.68701172 C-19.35152362 54.70616435 -21.73858294 54.65575663 -25.45214844 52.32763672 C-28.50395361 49.06220518 -29.30860693 47.3011246 -29.71777344 42.80029297 C-29.3897444 39.06076191 -28.58619875 37.23656528 -26.40527344 34.23779297 C-27.14777344 34.07279297 -27.89027344 33.90779297 -28.65527344 33.73779297 C-33.29842931 31.20516249 -34.63056463 26.83328632 -36.09667969 21.92138672 C-36.63438333 19.69912899 -37.05137554 17.49599862 -37.40527344 15.23779297 C-37.57027344 14.20654297 -37.73527344 13.17529297 -37.90527344 12.11279297 C-37.15469258 7.79695302 -34.54200341 5.18761934 -31.40527344 2.23779297 C-28.73751323 0.90391287 -26.56877529 1.02363371 -23.58496094 0.92138672 C-21.82152344 0.85854492 -21.82152344 0.85854492 -20.02246094 0.79443359 C-18.78753906 0.75511719 -17.55261719 0.71580078 -16.28027344 0.67529297 C-15.06855469 0.63210937 -13.85683594 0.58892578 -12.60839844 0.54443359 C-10.25169333 0.46356626 -7.89454086 0.39468197 -5.53710938 0.33886719 C-3.68891532 0.27922014 -1.84018525 0.18192656 0 0 Z M-4.29614258 5.26611328 C-7.68736139 5.3198293 -11.07720543 5.40261212 -14.46777344 5.48779297 C-16.2437793 5.5090625 -16.2437793 5.5090625 -18.05566406 5.53076172 C-19.76206055 5.57910156 -19.76206055 5.57910156 -21.50292969 5.62841797 C-22.5394165 5.64936523 -23.57590332 5.6703125 -24.64379883 5.69189453 C-28.06584922 6.36837801 -29.27027646 7.5304738 -31.40527344 10.23779297 C-32.70889625 16.36584667 -31.32704575 21.84375177 -28.40527344 27.23779297 C-26.52151668 29.56263081 -26.52151668 29.56263081 -23.40527344 29.42529297 C-20.48140741 29.43858906 -20.48140741 29.43858906 -18.40527344 28.23779297 C-18.67287907 33.58990564 -18.67287907 33.58990564 -19.40527344 36.23779297 C-20.70464844 37.25873047 -20.70464844 37.25873047 -22.03027344 38.30029297 C-22.81402344 38.93966797 -23.59777344 39.57904297 -24.40527344 40.23779297 C-24.33640479 44.23217471 -24.27385054 46.36921586 -21.40527344 49.23779297 C-18.46904487 49.70755796 -15.499883 49.60814569 -12.53027344 49.61279297 C-11.71429688 49.63728516 -10.89832031 49.66177734 -10.05761719 49.68701172 C-5.12756822 49.71795833 -5.12756822 49.71795833 -0.87011719 47.40185547 C1.14915297 44.41872036 1.2559463 42.76429824 0.59472656 39.23779297 C-0.20964844 38.68091797 -1.01402344 38.12404297 -1.84277344 37.55029297 C-4.98026405 34.718899 -4.87193339 33.5907135 -5.21777344 29.48779297 C-5.3024795 27.73872718 -5.37206859 25.98859384 -5.40527344 24.23779297 C-4.74527344 24.23779297 -4.08527344 24.23779297 -3.40527344 24.23779297 C-3.40527344 24.89779297 -3.40527344 25.55779297 -3.40527344 26.23779297 C1.33561962 26.55042962 1.33561962 26.55042962 5.79785156 25.19482422 C8.44333026 22.31355286 8.1795539 19.4489889 8.09472656 15.73779297 C8.11019531 15.06103516 8.12566406 14.38427734 8.14160156 13.68701172 C8.116685 10.5288375 7.98629289 8.6863144 5.87597656 6.26904297 C2.519397 4.75168508 -0.65305235 5.23042386 -4.29614258 5.26611328 Z " fill="#FBEFEF" transform="translate(154.4052734375,134.76220703125)"/>
<path d="M0 0 C2.9090271 -0.38095093 2.9090271 -0.38095093 6.68115234 -0.38818359 C7.36752274 -0.39344055 8.05389313 -0.39869751 8.76106262 -0.40411377 C11.03625062 -0.41734668 13.31074203 -0.40856272 15.5859375 -0.3984375 C17.16533543 -0.40045777 18.74473246 -0.40336881 20.3241272 -0.40713501 C23.63804993 -0.41156318 26.95173039 -0.40511339 30.265625 -0.39111328 C34.51172949 -0.37404882 38.75726399 -0.38384171 43.0033474 -0.40183067 C46.26675701 -0.4126792 49.53003188 -0.40921682 52.79344559 -0.4014473 C54.358731 -0.39944678 55.92402867 -0.40189936 57.48929977 -0.40888596 C59.67988127 -0.41651515 61.86954531 -0.40487566 64.06005859 -0.38818359 C65.92964737 -0.38460342 65.92964737 -0.38460342 67.83700562 -0.38095093 C71.29238699 0.03521508 72.73501172 0.35821358 75 3 C75.49447632 5.7769928 75.49447632 5.7769928 75.48583984 9.18383789 C75.49506973 11.09580711 75.49506973 11.09580711 75.50448608 13.04640198 C75.49069115 14.43849407 75.47615725 15.83057901 75.4609375 17.22265625 C75.45855315 18.64847141 75.45764774 20.07428975 75.4581604 21.50010681 C75.45503275 24.48700654 75.43846954 27.47342612 75.41162109 30.46020508 C75.37761004 34.29276204 75.36999336 38.12479213 75.37151146 41.95748234 C75.37096822 44.9008438 75.36000908 47.8440896 75.34550858 50.78741264 C75.33913572 52.20083173 75.33520054 53.61426393 75.33372116 55.02769661 C75.32939526 57.00036442 75.31032252 58.97298341 75.29052734 60.94555664 C75.27909195 62.63075157 75.27909195 62.63075157 75.26742554 64.34999084 C75 67 75 67 73 69 C70.25514407 69.14507695 67.61519457 69.18652423 64.875 69.125 C64.12089844 69.11597656 63.36679688 69.10695313 62.58984375 69.09765625 C60.72642746 69.0740687 58.86317407 69.03819719 57 69 C56.62875 69.8353125 56.62875 69.8353125 56.25 70.6875 C54.71874638 73.52031919 53.25180129 75.67669423 51 78 C46.90283992 78.94200909 42.83452345 78.8448963 38.63769531 78.81665039 C36.63820205 78.81252722 34.63897975 78.87967421 32.640625 78.94726562 C23.05270425 78.97157577 23.05270425 78.97157577 20.0390625 76.19018555 C19.09733148 74.75535725 18.19517538 73.29357813 17.33935547 71.8059082 C16.1499556 69.85769338 16.1499556 69.85769338 14.09423828 69.29760742 C11.94564543 69.10194177 9.90467862 69.08686941 7.75 69.1875 C5.12901109 69.23681968 2.62411823 69.17356836 0 69 C-2.33881638 65.49177542 -2.25280607 64.07299679 -2.25878906 59.92382812 C-2.26509338 58.67243042 -2.27139771 57.42103271 -2.27789307 56.13171387 C-2.27431327 54.76489115 -2.27021131 53.39806971 -2.265625 52.03125 C-2.26697228 50.63024834 -2.26891335 49.22924713 -2.27142334 47.82824707 C-2.27437163 44.89277696 -2.27008652 41.95742861 -2.26074219 39.02197266 C-2.24934771 35.25904905 -2.25590877 31.49641075 -2.26788712 27.73349762 C-2.27511373 24.84073741 -2.27281412 21.94804484 -2.26763153 19.05528259 C-2.26629725 17.66780056 -2.26793502 16.28031239 -2.27259064 14.89283752 C-2.27766871 12.95395017 -2.26855675 11.01504128 -2.25878906 9.07617188 C-2.25719788 7.97269409 -2.25560669 6.86921631 -2.25396729 5.7322998 C-2 3 -2 3 0 0 Z M1 4 C0.90079137 5.92761817 0.87200635 7.85889354 0.87060547 9.7890625 C0.86745331 11.0270459 0.86430115 12.2650293 0.86105347 13.54052734 C0.86284325 14.90201859 0.8648942 16.26350951 0.8671875 17.625 C0.86651441 19.01123064 0.86554434 20.39746117 0.86428833 21.78369141 C0.8628116 24.69239422 0.8649651 27.60106637 0.86962891 30.50976562 C0.87532619 34.24596598 0.87204706 37.98209452 0.86605644 41.71829224 C0.86245015 44.58179266 0.86358973 47.44527593 0.86618423 50.30877686 C0.86685332 51.68674732 0.86602574 53.06471932 0.86370468 54.44268799 C0.86117708 56.36543754 0.86570976 58.28819252 0.87060547 60.2109375 C0.87140106 61.30712402 0.87219666 62.40331055 0.87301636 63.53271484 C0.72095765 65.94423351 0.72095765 65.94423351 2 67 C5.09378215 67.13582458 8.1805271 67.24793936 11.27734375 67.25390625 C15.14060253 67.39811434 16.84544103 67.87246773 19.859375 70.359375 C22 73 22 73 24 76 C28.01559641 76.77872072 32.10538573 76.64840369 36.1875 76.6875 C37.31220703 76.74099609 38.43691406 76.79449219 39.59570312 76.84960938 C45.82316183 77.05486658 45.82316183 77.05486658 51.0871582 74.20117188 C52.22138965 72.76183585 53.32735627 71.29968685 54.40112305 69.81469727 C56.26014222 67.70474315 57.13918001 67.36161081 59.89453125 67.0703125 C61.18746094 67.08835937 62.48039062 67.10640625 63.8125 67.125 C66.20869095 67.12973088 68.60582688 67.09843033 71 67 C73.67193902 64.32806098 73.25316128 63.02973245 73.25878906 59.296875 C73.26824554 57.50491699 73.26824554 57.50491699 73.27789307 55.67675781 C73.2738446 54.38092773 73.26979614 53.08509766 73.265625 51.75 C73.26697178 50.41243418 73.26891243 49.07486883 73.27142334 47.73730469 C73.274374 44.93289534 73.27007894 42.12861331 73.26074219 39.32421875 C73.24934754 35.72595078 73.25590734 32.12798114 73.26788712 28.52972412 C73.27510736 25.76739242 73.27281706 23.00513167 73.26763153 20.24279785 C73.26564475 18.26961067 73.27172842 16.29642074 73.27789307 14.32324219 C73.27158875 13.12860352 73.26528442 11.93396484 73.25878906 10.703125 C73.25719788 9.64770508 73.25560669 8.59228516 73.25396729 7.50488281 C73.24916529 4.8277166 73.24916529 4.8277166 71 3 C68.01102607 2.69908546 68.01102607 2.69908546 64.45483398 2.75708008 C63.78315186 2.75518173 63.11146973 2.75328339 62.41943359 2.75132751 C60.194869 2.74761676 57.97062942 2.75832698 55.74609375 2.76953125 C54.20435118 2.77072288 52.66260788 2.77117625 51.12086487 2.7709198 C47.88855449 2.77248512 44.6563548 2.78077917 41.42407227 2.79418945 C37.2720031 2.81119361 33.1200555 2.81500342 28.96795559 2.81424427 C25.78447805 2.81451561 22.60102732 2.81999076 19.41755867 2.82724571 C17.88608058 2.83043712 16.35459945 2.83240088 14.82311821 2.83313942 C12.68728283 2.83529722 10.55157884 2.84402872 8.41577148 2.85473633 C7.19824692 2.85854813 5.98072235 2.86235992 4.7263031 2.86628723 C2.08626482 2.68986214 2.08626482 2.68986214 1 4 Z " fill="#FC6B6B" transform="translate(106,124)"/>
<path d="M0 0 C1.32 0.33 2.64 0.66 4 1 C4 2.32 4 3.64 4 5 C4.99 5.33 5.98 5.66 7 6 C7.83082714 9.62753802 8.13085068 12.98645335 8.14526367 16.70483398 C8.15164352 17.82627304 8.15802338 18.9477121 8.16459656 20.10313416 C8.16570938 21.30531082 8.1668222 22.50748749 8.16796875 23.74609375 C8.17296135 25.61189842 8.17296135 25.61189842 8.17805481 27.51539612 C8.18311342 30.14380524 8.18546346 32.77222078 8.18530273 35.40063477 C8.18522131 38.09015605 8.19218938 40.77950763 8.20581055 43.46899414 C8.22412834 47.35308024 8.229039 51.23696877 8.23046875 55.12109375 C8.23765427 56.32124619 8.24483978 57.52139862 8.25224304 58.75791931 C8.24916641 59.88251053 8.24608978 61.00710175 8.24291992 62.16577148 C8.24434494 63.14996567 8.24576996 64.13415985 8.24723816 65.1481781 C7.83317989 69.9242226 6.7492914 73.1546456 3.5625 76.75 C0.00889454 79.5197219 -3.72288142 79.76019293 -8.12109375 80.0546875 C-11.37545018 81.12328215 -11.86337346 81.93658557 -13.9453125 84.51953125 C-17.31537907 88.10519749 -19.88034502 88.59097874 -24.74609375 88.89453125 C-27.31002494 88.90378732 -29.87432203 88.87532927 -32.4375 88.8125 C-33.72205078 88.83119141 -35.00660156 88.84988281 -36.33007812 88.86914062 C-44.52581587 88.78891444 -49.07494854 87.64495102 -55 82 C-58.11854762 80.3627625 -60.79374915 79.87381437 -64.25 79.5 C-65.4875 79.335 -66.725 79.17 -68 79 C-68.33 78.34 -68.66 77.68 -69 77 C-67.19188669 76.80725696 -65.37746458 76.6735278 -63.5625 76.5625 C-62.55316406 76.48128906 -61.54382813 76.40007812 -60.50390625 76.31640625 C-56.63761814 77.0706988 -55.7795328 77.91859386 -52.94921875 80.48828125 C-47.13385972 85.32347534 -41.53408194 84.90121112 -34.25 84.625 C-33.04472656 84.61855469 -31.83945313 84.61210937 -30.59765625 84.60546875 C-22.81080839 84.49075451 -22.81080839 84.49075451 -16 81 C-15.278125 80.13375 -14.55625 79.2675 -13.8125 78.375 C-10.25911693 75.37436541 -7.9330383 75.44057479 -3.40234375 75.43359375 C-0.0898359 74.83572648 0.92522716 73.62264286 3 71 C3.5780536 67.97808441 3.5780536 67.97808441 3.45410156 64.57910156 C3.45364838 62.62753143 3.45364838 62.62753143 3.45318604 60.63653564 C3.43276086 59.22122585 3.4118969 57.80592232 3.390625 56.390625 C3.38316145 54.93903381 3.37746905 53.48743252 3.37347412 52.03582764 C3.35822643 48.22153742 3.31895309 44.40785979 3.2746582 40.59381104 C3.22647837 36.01422281 3.20816726 31.43442935 3.18484497 26.85466003 C3.1461004 19.90268109 3.06944329 12.95204532 3 6 C2.67 25.47 2.34 44.94 2 65 C1.67 65 1.34 65 1 65 C0.67 43.55 0.34 22.1 0 0 Z " fill="#DD3636" transform="translate(180,125)"/>
<path d="M0 0 C0 3.3 0 6.6 0 10 C-1.32 10 -2.64 10 -4 10 C-4 8.02 -4 6.04 -4 4 C-6.64 4 -9.28 4 -12 4 C-12 12.25 -12 20.5 -12 29 C-10.35 29 -8.7 29 -7 29 C-7.495 26.525 -7.495 26.525 -8 24 C-3.125 26.875 -3.125 26.875 -2 28 C-1.62460239 31.37857853 -1.53259359 33.3026598 -3.453125 36.16796875 C-7.21670411 38.87520587 -10.53939902 38.58622274 -15.0625 38.5 C-15.87783203 38.51546875 -16.69316406 38.5309375 -17.53320312 38.546875 C-23.45075122 38.50797575 -23.45075122 38.50797575 -26.02734375 36.125 C-27.26786443 33.41478614 -27.58860364 31.94301822 -27 29 C-26.175 28.4225 -25.35 27.845 -24.5 27.25 C-21.80008246 25.30098337 -21.80008246 25.30098337 -21.66796875 22.75 C-21.6856888 20.48183304 -21.78294588 18.25736284 -22 16 C-21.34 16 -20.68 16 -20 16 C-19.67 18.64 -19.34 21.28 -19 24 C-18.34 24 -17.68 24 -17 24 C-17 17.4 -17 10.8 -17 4 C-19.64 4 -22.28 4 -25 4 C-25 6.97 -25 9.94 -25 13 C-25.99 12.67 -26.98 12.34 -28 12 C-28.33 8.37 -28.66 4.74 -29 1 C-9.03189066 -0.14806378 -9.03189066 -0.14806378 0 0 Z " fill="#F55D5D" transform="translate(157,146)"/>
<path d="M0 0 C2.73686943 2.73686943 2.27047377 4.28178812 2.30639648 8.11450195 C2.32238388 9.39956131 2.33837128 10.68462067 2.35484314 12.00862122 C2.36122031 13.41850388 2.3666129 14.82839129 2.37109375 16.23828125 C2.38005858 17.68076167 2.3891804 19.12324113 2.39845276 20.5657196 C2.41495816 23.59290833 2.42264535 26.61998628 2.42553711 29.6472168 C2.43091524 33.52129957 2.46856292 37.39433675 2.51428127 41.26812458 C2.54406996 44.24934151 2.55126107 47.23030757 2.55226326 50.21166039 C2.55646396 51.63940393 2.56889256 53.06714833 2.58978081 54.49474525 C2.61671739 56.49542288 2.60875913 58.49647755 2.59936523 60.49731445 C2.60443588 61.634897 2.60950653 62.77247955 2.61473083 63.9445343 C1.8078254 67.95518699 0.13095357 69.45727348 -3 72 C-5.5 72.53125 -5.5 72.53125 -8 72.5 C-11.89620408 72.69625324 -12.69463881 72.74213944 -15.8125 75.375 C-16.534375 76.24125 -17.25625 77.1075 -18 78 C-21.84139709 80.80643527 -24.56599574 81.38371953 -29.2890625 81.3984375 C-30.47757813 81.40230469 -31.66609375 81.40617187 -32.890625 81.41015625 C-34.12296875 81.39855469 -35.3553125 81.38695312 -36.625 81.375 C-37.86507812 81.38660156 -39.10515625 81.39820313 -40.3828125 81.41015625 C-41.56875 81.40628906 -42.7546875 81.40242188 -43.9765625 81.3984375 C-45.60198975 81.39336182 -45.60198975 81.39336182 -47.26025391 81.38818359 C-50.28428018 80.95972149 -51.1810656 80.38809249 -53 78 C-52.20827393 77.99589111 -51.41654785 77.99178223 -50.60083008 77.98754883 C-47.00396748 77.95459846 -43.40879525 77.88394957 -39.8125 77.8125 C-37.94368164 77.80379883 -37.94368164 77.80379883 -36.03710938 77.79492188 C-28.94405845 77.77303408 -28.94405845 77.77303408 -22.82421875 74.63671875 C-22.22222656 73.76660156 -21.62023437 72.89648438 -21 72 C-18.94041141 69.39690887 -18.36243533 69.05277731 -14.96875 68.55859375 C-13.8240625 68.51863281 -12.679375 68.47867188 -11.5 68.4375 C-6.42388121 68.31603157 -6.42388121 68.31603157 -2 66 C-0.88924886 62.31287899 -0.85020996 58.66448692 -0.79467773 54.83276367 C-0.77473251 53.61187546 -0.75478729 52.39098724 -0.73423767 51.13310242 C-0.71752518 49.82460831 -0.70081268 48.5161142 -0.68359375 47.16796875 C-0.6630042 45.80747372 -0.64200722 44.44698481 -0.62062073 43.08650208 C-0.56560653 39.51751677 -0.51610683 35.94847573 -0.46777344 32.37939453 C-0.41740694 28.73269734 -0.3618002 25.08608041 -0.30664062 21.43945312 C-0.19931196 14.29303849 -0.09781157 7.14655175 0 0 Z " fill="#BC1B1B" transform="translate(182,129)"/>
<path d="M0 0 C0.86109375 -0.03738281 1.7221875 -0.07476562 2.609375 -0.11328125 C6.21646056 0.46833462 7.77853881 1.6398225 10.25 4.3125 C10.87890625 7.40625 10.87890625 7.40625 10.8125 10.8125 C10.81378906 11.9365625 10.81507813 13.060625 10.81640625 14.21875 C10.25 17.3125 10.25 17.3125 8.6015625 19.69921875 C5.56893801 21.7797402 3.708905 21.75380115 0.0625 21.625 C-1.00355469 21.60050781 -2.06960937 21.57601562 -3.16796875 21.55078125 C-5.75 21.3125 -5.75 21.3125 -6.75 20.3125 C-7.09131714 13.94793927 -7.00170112 7.5710056 -5.75 1.3125 C-4.10962605 -0.32787395 -2.25523159 0.06338669 0 0 Z " fill="#FBEFEE" transform="translate(171.75,87.6875)"/>
<path d="M0 0 C-3.33803691 2.22535794 -4.62819711 2.28978404 -8.54296875 2.4140625 C-10.15268555 2.47207031 -10.15268555 2.47207031 -11.79492188 2.53125 C-12.91447266 2.5621875 -14.03402344 2.593125 -15.1875 2.625 C-16.88422852 2.68300781 -16.88422852 2.68300781 -18.61523438 2.7421875 C-21.4099925 2.83652533 -24.20474278 2.92211652 -27 3 C-27.33 3.66 -27.66 4.32 -28 5 C-22.39 5.33 -16.78 5.66 -11 6 C-11 6.33 -11 6.66 -11 7 C-17.27 7 -23.54 7 -30 7 C-29.71125 8.794375 -29.4225 10.58875 -29.125 12.4375 C-28.96257812 13.44683594 -28.80015625 14.45617187 -28.6328125 15.49609375 C-28.42398438 16.32238281 -28.21515625 17.14867187 -28 18 C-27.34 18.33 -26.68 18.66 -26 19 C-26 16.03 -26 13.06 -26 10 C-23.36 10 -20.72 10 -18 10 C-18 16.6 -18 23.2 -18 30 C-18.99 30.33 -19.98 30.66 -21 31 C-21 28.03 -21 25.06 -21 22 C-21.99 22.66 -22.98 23.32 -24 24 C-26.9375 24.4375 -26.9375 24.4375 -30 24 C-34.34999875 19.76756878 -35.1422391 15.87848156 -35.3125 10 C-35.34988281 9.154375 -35.38726562 8.30875 -35.42578125 7.4375 C-34.84473364 4.11113567 -33.60944644 3.10083013 -31 1 C-28.23852539 0.45410156 -28.23852539 0.45410156 -25.09765625 0.390625 C-23.39125977 0.34228516 -23.39125977 0.34228516 -21.65039062 0.29296875 C-19.87438477 0.27169922 -19.87438477 0.27169922 -18.0625 0.25 C-16.29229492 0.20552734 -16.29229492 0.20552734 -14.48632812 0.16015625 C-9.65701981 0.04536794 -4.83063446 -0.01111129 0 0 Z " fill="#FA4F50" transform="translate(158,140)"/>
<path d="M0 0 C0 3.3 0 6.6 0 10 C-0.99 10 -1.98 10 -3 10 C-3 7.69 -3 5.38 -3 3 C-6.3 3 -9.6 3 -13 3 C-13 11.91 -13 20.82 -13 30 C-11.02 30 -9.04 30 -7 30 C-7 30.99 -7 31.98 -7 33 C-11.95 33 -16.9 33 -22 33 C-21.67 32.01 -21.34 31.02 -21 30 C-19.35 30 -17.7 30 -16 30 C-16 21.42 -16 12.84 -16 4 C-18.97 4 -21.94 4 -25 4 C-25 6.97 -25 9.94 -25 13 C-25.99 12.67 -26.98 12.34 -28 12 C-28.33 8.37 -28.66 4.74 -29 1 C-9.03189066 -0.14806378 -9.03189066 -0.14806378 0 0 Z " fill="#FBECEB" transform="translate(157,146)"/>
<path d="M0 0 C2.92248535 -0.3742218 2.92248535 -0.3742218 6.71289062 -0.37231445 C7.74726509 -0.37779045 7.74726509 -0.37779045 8.80253601 -0.38337708 C11.08735604 -0.39149879 13.37147042 -0.37785981 15.65625 -0.36328125 C17.24043782 -0.36276283 18.82462629 -0.36327982 20.40881348 -0.36479187 C23.73113593 -0.36470207 27.05321608 -0.35425794 30.37548828 -0.33618164 C34.63963241 -0.31349407 38.9034223 -0.31294952 43.16761017 -0.31969929 C46.43950564 -0.32303667 49.71131997 -0.31641358 52.98320007 -0.30657005 C54.55571569 -0.30271376 56.12824034 -0.30157161 57.70075989 -0.3031559 C59.89638546 -0.3035257 62.09155251 -0.29093085 64.28710938 -0.2746582 C65.53794312 -0.27005081 66.78877686 -0.26544342 68.07751465 -0.26069641 C71 0 71 0 73 2 C49.57 2 26.14 2 2 2 C2 2.66 2 3.32 2 4 C1.34 4 0.68 4 0 4 C0 24.13 0 44.26 0 65 C-0.33 65 -0.66 65 -1 65 C-2.09101336 30.62727575 -2.09101336 30.62727575 -2.1875 13.9375 C-2.20039062 12.86387207 -2.21328125 11.79024414 -2.2265625 10.68408203 C-2.22785156 9.7042334 -2.22914062 8.72438477 -2.23046875 7.71484375 C-2.23663208 6.44821899 -2.23663208 6.44821899 -2.24291992 5.15600586 C-2 3 -2 3 0 0 Z " fill="#F97272" transform="translate(106,124)"/>
<path d="M0 0 C1.32 0 2.64 0 4 0 C4 2.31 4 4.62 4 7 C5.093125 6.938125 6.18625 6.87625 7.3125 6.8125 C11 7 11 7 12.9375 8 C14.61070976 11.14957132 14.71509578 14.5226715 14 18 C12.83203125 19.73828125 12.83203125 19.73828125 11 21 C7.29631297 21.40199208 3.73655831 21.13187853 0 21 C0 14.07 0 7.14 0 0 Z " fill="#FAE6E6" transform="translate(132,87)"/>
<path d="M0 0 C4.99268902 1.47931526 4.99268902 1.47931526 6.375 4 C6.76809578 7.09562931 6.99838668 9.04336605 6.375 12 C4.3125 14.5625 4.3125 14.5625 1.375 16 C-2.4387751 16 -4.64924548 15.84985071 -7.5625 13.3125 C-8.9863395 10.2135552 -9.17653827 8.37817188 -8.625 5 C-5.91953265 1.14675862 -4.77773264 0 0 0 Z " fill="#FBF0EF" transform="translate(156.625,93)"/>
<path d="M0 0 C2.5 1.625 2.5 1.625 4 4 C4.5625 6.9375 4.5625 6.9375 4 10 C1.51397551 13.36344489 0.08574477 14.80057749 -4.0625 15.5625 C-7 15 -7 15 -9.375 13.5 C-11.80664499 9.75900771 -11.49174842 7.42573582 -11 3 C-8.88563468 -1.22873063 -4.1705953 -0.74684705 0 0 Z " fill="#FBF0EF" transform="translate(195,96)"/>
<path d="M0 0 C2.0625 0.4375 2.0625 0.4375 4 1 C4.33 3.64 4.66 6.28 5 9 C6.32 9.33 7.64 9.66 9 10 C9 6.7 9 3.4 9 0 C10.65 0 12.3 0 14 0 C15.20568053 4.67201205 15.09382426 9.21496292 15 14 C4.07736779 15.73456895 4.07736779 15.73456895 0.25 13.125 C-1.38916655 9.02708362 -1.55024112 5.36584761 -1 1 C-0.67 0.67 -0.34 0.34 0 0 Z " fill="#FAECEB" transform="translate(102,95)"/>
<path d="M0 0 C0 1.32 0 2.64 0 4 C-1.65 4.33 -3.3 4.66 -5 5 C-5 10.28 -5 15.56 -5 21 C-6.32 21.33 -7.64 21.66 -9 22 C-11.35777583 19.64222417 -10.97374139 14.94202777 -11.0625 11.7578125 C-11.0625 9.8384286 -11.03366822 7.91908859 -11 6 C-13.64 6 -16.28 6 -19 6 C-19 4.68 -19 3.36 -19 2 C-12.6221448 0.82706111 -6.49678438 -0.29530838 0 0 Z " fill="#FCF2F1" transform="translate(98,90)"/>
<path d="M0 0 C1.875 1.8125 1.875 1.8125 3 4 C2.67 4.99 2.34 5.98 2 7 C2.99 8.485 2.99 8.485 4 10 C3.8125 12.5625 3.8125 12.5625 3 15 C-0.8503105 17.56687367 -2.58569763 16.83288724 -7 16 C-7.59732819 13.23735711 -8 10.83967231 -8 8 C-8.061875 7.175 -8.12375 6.35 -8.1875 5.5 C-8 3 -8 3 -6.8125 1.1875 C-4.32762734 -0.44052002 -2.91288568 -0.50975499 0 0 Z " fill="#F9D2D1" transform="translate(337,349)"/>
<path d="M0 0 C1.21816406 0.03480469 1.21816406 0.03480469 2.4609375 0.0703125 C3.68683594 0.09738281 3.68683594 0.09738281 4.9375 0.125 C5.87722656 0.15980469 5.87722656 0.15980469 6.8359375 0.1953125 C6.9169581 2.29884745 6.97513657 4.40327202 7.0234375 6.5078125 C7.05824219 7.67957031 7.09304688 8.85132813 7.12890625 10.05859375 C6.8359375 13.1953125 6.8359375 13.1953125 5.5234375 15.1015625 C2.9966046 16.73932457 0.76673656 16.3906991 -2.1640625 16.1953125 C-2.3084375 15.4115625 -2.4528125 14.6278125 -2.6015625 13.8203125 C-3.04205175 11.23110232 -3.04205175 11.23110232 -4.1640625 9.1953125 C-4.3515625 5.6953125 -4.3515625 5.6953125 -4.1640625 2.1953125 C-2.1640625 0.1953125 -2.1640625 0.1953125 0 0 Z " fill="#E55555" transform="translate(372.1640625,353.8046875)"/>
<path d="M0 0 C1.65 0.33 3.3 0.66 5 1 C5.02685095 3.47923801 5.04676547 5.9581884 5.0625 8.4375 C5.07087891 9.14455078 5.07925781 9.85160156 5.08789062 10.58007812 C5.09653588 12.38693559 5.05220011 14.19387603 5 16 C4 17 4 17 0.6875 17.25 C-3 17 -3 17 -5.4375 15.875 C-7 14 -7 14 -7.4375 11 C-7 8 -7 8 -5.75 6.125 C-4 5 -4 5 0 5 C0 3.35 0 1.7 0 0 Z " fill="#E15757" transform="translate(364,322)"/>
<path d="M0 0 C1.32 0.33 2.64 0.66 4 1 C4.02685095 3.47923801 4.04676547 5.9581884 4.0625 8.4375 C4.07087891 9.14455078 4.07925781 9.85160156 4.08789062 10.58007812 C4.09653588 12.38693559 4.05220011 14.19387603 4 16 C3 17 3 17 -0.3125 17.3125 C-4 17 -4 17 -6.4375 15.3125 C-8.30408821 12.54994945 -8.58649994 11.26764255 -8 8 C-6.75 6.1875 -6.75 6.1875 -5 5 C-3.68 5 -2.36 5 -1 5 C-0.67 3.35 -0.34 1.7 0 0 Z " fill="#FBD6D5" transform="translate(486,349)"/>
<path d="M0 0 C2.0625 0.4375 2.0625 0.4375 4 1 C4 2.32 4 3.64 4 5 C4.78375 5.12375 5.5675 5.2475 6.375 5.375 C9 6 9 6 11 8 C10.8125 11.5 10.8125 11.5 10 15 C6.54337669 17.30441554 5.05142119 17.25860135 1 17 C0.34 16.67 -0.32 16.34 -1 16 C-1.02685095 13.52076199 -1.04676547 11.0418116 -1.0625 8.5625 C-1.07506836 7.50192383 -1.07506836 7.50192383 -1.08789062 6.41992188 C-1.09653588 4.61306441 -1.05220011 2.80612397 -1 1 C-0.67 0.67 -0.34 0.34 0 0 Z " fill="#F6D0CF" transform="translate(397,322)"/>
<path d="M0 0 C6.8196285 -0.17370039 6.8196285 -0.17370039 9.58984375 0.16015625 C10.24984375 1.15015625 10.90984375 2.14015625 11.58984375 3.16015625 C10.59984375 4.15015625 9.60984375 5.14015625 8.58984375 6.16015625 C8.25984375 5.50015625 7.92984375 4.84015625 7.58984375 4.16015625 C2.81284374 4.05901497 2.81284374 4.05901497 -1.91015625 4.66015625 C-5.10322864 5.29877073 -8.16308384 5.22382434 -11.41015625 5.16015625 C-11.41015625 6.48015625 -11.41015625 7.80015625 -11.41015625 9.16015625 C-9.43015625 9.16015625 -7.45015625 9.16015625 -5.41015625 9.16015625 C-5.74015625 11.47015625 -6.07015625 13.78015625 -6.41015625 16.16015625 C-6.74015625 15.17015625 -7.07015625 14.18015625 -7.41015625 13.16015625 C-8.54453125 13.03640625 -9.67890625 12.91265625 -10.84765625 12.78515625 C-12.61109375 12.47578125 -12.61109375 12.47578125 -14.41015625 12.16015625 C-15.80950638 9.36145598 -15.6628103 7.25516833 -15.41015625 4.16015625 C-13.16580802 1.25489566 -12.3781792 1.1544829 -8.53515625 0.47265625 C-5.69188828 0.25250206 -2.84872542 0.13378894 0 0 Z " fill="#D64848" transform="translate(90.41015625,86.83984375)"/>
<path d="M0 0 C0.7425 0.185625 1.485 0.37125 2.25 0.5625 C4.98555755 0.99770234 6.40699621 0.80472531 9 0 C11 0 13 0 15 0 C14.28571429 8.57142857 14.28571429 8.57142857 11 12 C10.4225 11.814375 9.845 11.62875 9.25 11.4375 C6.77511403 10.95627217 5.39014524 11.32212267 3 12 C2.29773859 10.75823305 1.61370891 9.50614401 0.9375 8.25 C0.36322266 7.20585937 0.36322266 7.20585937 -0.22265625 6.140625 C-1.1312406 3.63859372 -0.88336837 2.4667645 0 0 Z " fill="#F7DDDC" transform="translate(432,354)"/>
<path d="M0 0 C0.495 1.98 0.495 1.98 1 4 C-2.42368398 7.17255802 -4.85556921 7.29660891 -9.4375 7.3125 C-13.99766696 7.44431742 -13.99766696 7.44431742 -17.9609375 9.390625 C-19.48897863 11.19089297 -19.48897863 11.19089297 -21 14 C-21.99 13.67 -22.98 13.34 -24 13 C-25.9906444 12.85013589 -27.98535391 12.75171962 -29.98046875 12.68359375 C-31.14384766 12.64169922 -32.30722656 12.59980469 -33.50585938 12.55664062 C-35.32827148 12.49766602 -35.32827148 12.49766602 -37.1875 12.4375 C-38.41404297 12.39431641 -39.64058594 12.35113281 -40.90429688 12.30664062 C-43.93608381 12.2004691 -46.96795315 12.09842048 -50 12 C-50 11.67 -50 11.34 -50 11 C-49.21351074 11.01160156 -48.42702148 11.02320313 -47.61669922 11.03515625 C-44.03510067 11.06472569 -40.45654648 11.03295902 -36.875 11 C-35.01875 11.02900391 -35.01875 11.02900391 -33.125 11.05859375 C-26.55628314 11.20972602 -26.55628314 11.20972602 -21.08618164 8.18530273 C-20.14536499 6.74884728 -19.23830886 5.28958562 -18.37011719 3.80810547 C-17 2 -17 2 -15.07519531 1.26611328 C-12.91198191 1.031111 -10.86161886 0.98930401 -8.6875 1.0625 C-3.96518973 1.501265 -3.96518973 1.501265 0 0 Z " fill="#D64748" transform="translate(180,191)"/>
<path d="M0 0 C1.32 0.33 2.64 0.66 4 1 C4 2.65 4 4.3 4 6 C5.32 6.33 6.64 6.66 8 7 C7.67 8.32 7.34 9.64 7 11 C5.68 11 4.36 11 3 11 C3 12.65 3 14.3 3 16 C3.66 16 4.32 16 5 16 C5 17.65 5 19.3 5 21 C2.625 21.125 2.625 21.125 0 21 C-2 19 -2 19 -2.1953125 16.8359375 C-2.17210937 16.02382812 -2.14890625 15.21171875 -2.125 14.375 C-2.10695312 13.55773437 -2.08890625 12.74046875 -2.0703125 11.8984375 C-2.04710937 11.27195312 -2.02390625 10.64546875 -2 10 C-2.66 10 -3.32 10 -4 10 C-4 8.35 -4 6.7 -4 5 C-3.01 5 -2.02 5 -1 5 C-0.67 3.35 -0.34 1.7 0 0 Z " fill="#FBECEC" transform="translate(205,92)"/>
<path d="M0 0 C2.27864583 0.06510417 4.55729167 0.13020833 6.8359375 0.1953125 C6.8359375 3.8253125 6.8359375 7.4553125 6.8359375 11.1953125 C5.4128125 11.2571875 3.9896875 11.3190625 2.5234375 11.3828125 C1.32267578 11.43501953 1.32267578 11.43501953 0.09765625 11.48828125 C-2.1640625 11.1953125 -2.1640625 11.1953125 -3.96875 9.875 C-5.1640625 8.1953125 -5.1640625 8.1953125 -4.9765625 5.1328125 C-4.06653811 1.84272433 -3.55939365 0.32124491 0 0 Z " fill="#F5A9A9" transform="translate(346.1640625,326.8046875)"/>
<path d="M0 0 C2 2 2 2 2.01171875 4.12890625 C1.90472656 4.93199219 1.79773438 5.73507812 1.6875 6.5625 C1.58824219 7.36816406 1.48898437 8.17382812 1.38671875 9.00390625 C1 11 1 11 0 12 C-3.60277895 12.40030877 -5.3770462 12.44262507 -8.375 10.3125 C-10 8 -10 8 -10.4375 5.4375 C-10 3 -10 3 -8.9375 1.1875 C-5.94449731 -0.646921 -3.42183337 -0.31107576 0 0 Z " fill="#F8D6D5" transform="translate(382,327)"/>
<path d="M0 0 C2 2 2 2 2.375 5.4375 C2 9 2 9 0.3125 11 C-2.64288086 12.27800253 -3.98998383 12.08051862 -7 11 C-8.8125 9.75 -8.8125 9.75 -10 8 C-10.42317323 5.17884512 -10.38718434 3.66049093 -8.9375 1.1875 C-5.94449731 -0.646921 -3.42183337 -0.31107576 0 0 Z " fill="#F1A3A2" transform="translate(460,354)"/>
<path d="M0 0 C1.9375 1 1.9375 1 3 3 C2.95757576 10.04242424 2.95757576 10.04242424 1 12 C-5.2080292 12.45985401 -5.2080292 12.45985401 -7.9375 10.875 C-9.50422245 8.11019567 -9.38976435 6.11811483 -9 3 C-6.79086995 -0.68188342 -4.01844539 -0.50230567 0 0 Z " fill="#EE9C9B" transform="translate(353,354)"/>
<path d="M0 0 C2.27024968 -0.08097324 4.54132075 -0.13917704 6.8125 -0.1875 C8.07707031 -0.22230469 9.34164063 -0.25710938 10.64453125 -0.29296875 C14 0 14 0 15.9375 1.25 C17.8500335 4.40005518 17.17725137 7.39588874 17 11 C13.01080675 12.1004671 9.98919325 12.1004671 6 11 C6 9.02 6 7.04 6 5 C5.34 4.67 4.68 4.34 4 4 C4.99 4 5.98 4 7 4 C7 5.98 7 7.96 7 10 C7.66 10 8.32 10 9 10 C9 7.69 9 5.38 9 3 C6.50935112 2.31292445 4.62113708 2 2 2 C2 4.97 2 7.94 2 11 C1.34 11 0.68 11 0 11 C0 7.37 0 3.74 0 0 Z " fill="#F8D6D5" transform="translate(321,327)"/>
<path d="M0 0 C0.598125 0.165 1.19625 0.33 1.8125 0.5 C5.15649939 1.26434272 7.75068088 0.8963639 11 0 C12.39211215 4.17633644 10.9535579 5.78960515 9.0625 9.6875 C8.21365234 11.45673828 8.21365234 11.45673828 7.34765625 13.26171875 C6.90292969 14.16535156 6.45820313 15.06898438 6 16 C4.68 15.67 3.36 15.34 2 15 C2.061875 13.948125 2.12375 12.89625 2.1875 11.8125 C1.98877652 7.77178932 1.11593479 6.31189793 -1 3 C-0.67 2.01 -0.34 1.02 0 0 Z " fill="#F0A3A3" transform="translate(412,327)"/>
<path d="M0 0 C1.51400391 0.01740234 1.51400391 0.01740234 3.05859375 0.03515625 C4.07050781 0.04417969 5.08242187 0.05320312 6.125 0.0625 C7.29869141 0.07990234 7.29869141 0.07990234 8.49609375 0.09765625 C8.16609375 1.74765625 7.83609375 3.39765625 7.49609375 5.09765625 C5.84609375 5.09765625 4.19609375 5.09765625 2.49609375 5.09765625 C2.49609375 8.06765625 2.49609375 11.03765625 2.49609375 14.09765625 C0.84609375 14.42765625 -0.80390625 14.75765625 -2.50390625 15.09765625 C-3.692839 10.49054183 -3.83633704 5.8299063 -3.50390625 1.09765625 C-2.50390625 0.09765625 -2.50390625 0.09765625 0 0 Z " fill="#F9E8E7" transform="translate(121.50390625,93.90234375)"/>
<path d="M0 0 C0.99 0.495 0.99 0.495 2 1 C3.85419385 1.01870823 5.70845637 1.03531418 7.56274414 1.03662109 C16.80825353 1.14601098 16.80825353 1.14601098 20.42578125 3.73828125 C22.01766978 5.81647463 23.19078583 7.50936478 24 10 C23.67 10.99 23.34 11.98 23 13 C20.95880212 11.38405168 18.95927063 9.7143618 17 8 C17 7.34 17 6.68 17 6 C15.85660156 6.01160156 14.71320313 6.02320313 13.53515625 6.03515625 C12.04427246 6.04453288 10.55338691 6.05363321 9.0625 6.0625 C7.93038086 6.07506836 7.93038086 6.07506836 6.77539062 6.08789062 C4.85005687 6.09652441 2.92464419 6.05224333 1 6 C0 5 0 5 -0.0625 2.4375 C-0.041875 1.633125 -0.02125 0.82875 0 0 Z " fill="#CA3B3C" transform="translate(104,191)"/>
<path d="M0 0 C3.3 0 6.6 0 10 0 C10 2.31 10 4.62 10 7 C9.67 7 9.34 7 9 7 C9 5.02 9 3.04 9 1 C6.36 1 3.72 1 1 1 C1 9.25 1 17.5 1 26 C2.65 26 4.3 26 6 26 C5.67 24.35 5.34 22.7 5 21 C9.875 23.875 9.875 23.875 11 25 C11.26293056 29.03160191 11.29404844 30.55892734 9 34 C7.35 33.67 5.7 33.34 4 33 C4.66 31.02 5.32 29.04 6 27 C4.02 27 2.04 27 0 27 C0 18.09 0 9.18 0 0 Z " fill="#F46F70" transform="translate(144,149)"/>
<path d="M0 0 C-3.33803691 2.22535794 -4.62819711 2.28978404 -8.54296875 2.4140625 C-10.15268555 2.47207031 -10.15268555 2.47207031 -11.79492188 2.53125 C-12.91447266 2.5621875 -14.03402344 2.593125 -15.1875 2.625 C-16.88422852 2.68300781 -16.88422852 2.68300781 -18.61523438 2.7421875 C-21.4099925 2.83652533 -24.20474278 2.92211652 -27 3 C-27.33 3.66 -27.66 4.32 -28 5 C-22.39 5.33 -16.78 5.66 -11 6 C-11 6.33 -11 6.66 -11 7 C-17.27 7 -23.54 7 -30 7 C-30.33 7.99 -30.66 8.98 -31 10 C-31 9.34 -31 8.68 -31 8 C-31.99 8.495 -31.99 8.495 -33 9 C-33 12.3 -33 15.6 -33 19 C-34.84061341 15.31877318 -35.31543593 13.90740277 -35.375 10 C-35.40335937 9.154375 -35.43171875 8.30875 -35.4609375 7.4375 C-34.83523437 4.12869701 -33.60335449 3.09789359 -31 1 C-28.23852539 0.45410156 -28.23852539 0.45410156 -25.09765625 0.390625 C-23.39125977 0.34228516 -23.39125977 0.34228516 -21.65039062 0.29296875 C-19.87438477 0.27169922 -19.87438477 0.27169922 -18.0625 0.25 C-16.29229492 0.20552734 -16.29229492 0.20552734 -14.48632812 0.16015625 C-9.65701981 0.04536794 -4.83063446 -0.01111129 0 0 Z " fill="#F27B7B" transform="translate(158,140)"/>
<path d="M0 0 C1.134375 0.020625 2.26875 0.04125 3.4375 0.0625 C4.31617729 3.79687848 4.52662219 7.23024573 4.4375 11.0625 C-2.3125 12.1875 -2.3125 12.1875 -4.5625 11.0625 C-4.58938151 9.41675434 -4.60884123 7.77088587 -4.625 6.125 C-4.63660156 5.20847656 -4.64820313 4.29195313 -4.66015625 3.34765625 C-4.49885955 -0.42668664 -3.92591522 0.06887571 0 0 Z " fill="#FADEDD" transform="translate(423.5625,353.9375)"/>
<path d="M0 0 C1.48831242 0.00667405 2.97660807 0.01863442 4.46484375 0.03515625 C5.22345703 0.03966797 5.98207031 0.04417969 6.76367188 0.04882812 C8.64326246 0.06064945 10.52281274 0.07858547 12.40234375 0.09765625 C12.73234375 1.74765625 13.06234375 3.39765625 13.40234375 5.09765625 C8.12234375 5.09765625 2.84234375 5.09765625 -2.59765625 5.09765625 C-3.25765625 3.77765625 -3.91765625 2.45765625 -4.59765625 1.09765625 C-3.59765625 0.09765625 -3.59765625 0.09765625 0 0 Z " fill="#EDA6A5" transform="translate(402.59765625,365.90234375)"/>
<path d="M0 0 C0.33 0 0.66 0 1 0 C1.89115181 8.68873018 2.11624638 17.26860536 2 26 C3.98 26 5.96 26 8 26 C8 26.99 8 27.98 8 29 C3.05 29 -1.9 29 -7 29 C-6.505 27.515 -6.505 27.515 -6 26 C-4.02 26 -2.04 26 0 26 C0 17.42 0 8.84 0 0 Z " fill="#FCFDFC" transform="translate(142,150)"/>
<path d="M0 0 C13.5470852 -0.92017937 13.5470852 -0.92017937 17.109375 1.3359375 C18.4375 3 18.4375 3 20 6 C19.67 6.66 19.34 7.32 19 8 C18.34 7.34 17.68 6.68 17 6 C14.47650893 5.74533576 12.02905456 5.58036248 9.5 5.5 C2.27027027 5.27027027 2.27027027 5.27027027 0 3 C0 2.01 0 1.02 0 0 Z " fill="#CC2E2F" transform="translate(106,197)"/>
<path d="M0 0 C2.05078125 0.03255208 4.1015625 0.06510417 6.15234375 0.09765625 C5.82234375 1.74765625 5.49234375 3.39765625 5.15234375 5.09765625 C4.16234375 5.09765625 3.17234375 5.09765625 2.15234375 5.09765625 C2.15234375 7.07765625 2.15234375 9.05765625 2.15234375 11.09765625 C0.21484375 11.66015625 0.21484375 11.66015625 -1.84765625 12.09765625 C-2.84765625 11.09765625 -2.84765625 11.09765625 -2.98046875 8.84765625 C-2.97789062 7.94015625 -2.9753125 7.03265625 -2.97265625 6.09765625 C-2.97523438 5.19015625 -2.9778125 4.28265625 -2.98046875 3.34765625 C-2.81750736 0.58689864 -2.7691363 0.14636027 0 0 Z " fill="#FCE7E7" transform="translate(468.84765625,353.90234375)"/>
<path d="M0 0 C0.99 0.495 0.99 0.495 2 1 C2.625 3.0625 2.625 3.0625 3 5 C3.9590625 5.2165625 3.9590625 5.2165625 4.9375 5.4375 C7 6 7 6 8 7 C8.04080783 8.99958364 8.04254356 11.00045254 8 13 C5.23735711 13.59732819 2.83967231 14 0 14 C0 9.38 0 4.76 0 0 Z " fill="#ED5757" transform="translate(398,323)"/>
<path d="M0 0 C1.65 0.33 3.3 0.66 5 1 C5.02685095 3.47923801 5.04676547 5.9581884 5.0625 8.4375 C5.07087891 9.14455078 5.07925781 9.85160156 5.08789062 10.58007812 C5.09653588 12.38693559 5.05220011 14.19387603 5 16 C4 17 4 17 0.6875 17.25 C-3 17 -3 17 -5.4375 15.875 C-7 14 -7 14 -7.4375 11 C-7 8 -7 8 -5.75 6.125 C-4 5 -4 5 0 5 C0 3.35 0 1.7 0 0 Z M2 1 C1.7525 1.804375 1.505 2.60875 1.25 3.4375 C0.8375 4.283125 0.425 5.12875 0 6 C-2 6.6875 -2 6.6875 -4 7 C-4.66 7.66 -5.32 8.32 -6 9 C-5.67958603 11.60280568 -5.67958603 11.60280568 -5 14 C-2.23735711 14.59732819 0.16032769 15 3 15 C3 10.38 3 5.76 3 1 C2.67 1 2.34 1 2 1 Z " fill="#FBD5D4" transform="translate(364,322)"/>
<path d="M0 0 C0.33 0 0.66 0 1 0 C1 4.62 1 9.24 1 14 C-0.98 14 -2.96 14 -5 14 C-7 12 -7 12 -7.25 9.5 C-7 7 -7 7 -5 5 C-4.01 5 -3.02 5 -2 5 C-1.34 3.35 -0.68 1.7 0 0 Z " fill="#E46565" transform="translate(487,350)"/>
<path d="M0 0 C2.0625 0.4375 2.0625 0.4375 4 1 C4 2.32 4 3.64 4 5 C4.78375 5.12375 5.5675 5.2475 6.375 5.375 C9 6 9 6 11 8 C11.26991906 10.68839385 11.08737357 13.29141936 11 16 C9.0625 16.5625 9.0625 16.5625 7 17 C6 16 6 16 5.9375 12.9375 C5.958125 11.968125 5.97875 10.99875 6 10 C5.34 10 4.68 10 4 10 C4 11.65 4 13.3 4 15 C3.67 15 3.34 15 3 15 C3 13.02 3 11.04 3 9 C4.32 9 5.64 9 7 9 C7 10.98 7 12.96 7 15 C7.66 15 8.32 15 9 15 C8.67 12.69 8.34 10.38 8 8 C6.35 7.67 4.7 7.34 3 7 C2.67 5.35 2.34 3.7 2 2 C1.67 2 1.34 2 1 2 C0.67 6.29 0.34 10.58 0 15 C-0.33 15 -0.66 15 -1 15 C-1.02685412 12.68756208 -1.04632841 10.3750373 -1.0625 8.0625 C-1.07410156 6.77472656 -1.08570313 5.48695313 -1.09765625 4.16015625 C-1 1 -1 1 0 0 Z " fill="#FBDFDF" transform="translate(384,349)"/>
<path d="M0 0 C0.66 0.33 1.32 0.66 2 1 C2 2.65 2 4.3 2 6 C2.61875 5.79375 3.2375 5.5875 3.875 5.375 C4.57625 5.25125 5.2775 5.1275 6 5 C8 7 8 7 8.125 10.625 C8.08375 11.73875 8.0425 12.8525 8 14 C7.34 14 6.68 14 6 14 C5.67 12.02 5.34 10.04 5 8 C4.34 8 3.68 8 3 8 C3 10.31 3 12.62 3 15 C1.68 15.33 0.36 15.66 -1 16 C-2.46322678 13.07354643 -1.88789453 10.67394481 -1.625 7.4375 C-1.53476562 6.26058594 -1.44453125 5.08367187 -1.3515625 3.87109375 C-1 1 -1 1 0 0 Z " fill="#E87A7A" transform="translate(385,350)"/>
<path d="M0 0 C1.32 0 2.64 0 4 0 C4 4.95 4 9.9 4 15 C3.34 15 2.68 15 2 15 C1.67 14.01 1.34 13.02 1 12 C0.01 12.495 0.01 12.495 -1 13 C-1 9.7 -1 6.4 -1 3 C-3.31 3 -5.62 3 -8 3 C-8 2.67 -8 2.34 -8 2 C-5.36 2 -2.72 2 0 2 C0 1.34 0 0.68 0 0 Z " fill="#F7595A" transform="translate(158,143)"/>
<path d="M0 0 C1.21816406 0.03480469 1.21816406 0.03480469 2.4609375 0.0703125 C3.68683594 0.09738281 3.68683594 0.09738281 4.9375 0.125 C5.87722656 0.15980469 5.87722656 0.15980469 6.8359375 0.1953125 C6.9169581 2.29884745 6.97513657 4.40327202 7.0234375 6.5078125 C7.05824219 7.67957031 7.09304688 8.85132813 7.12890625 10.05859375 C6.8359375 13.1953125 6.8359375 13.1953125 5.5234375 15.1015625 C2.9966046 16.73932457 0.76673656 16.3906991 -2.1640625 16.1953125 C-2.3084375 15.4115625 -2.4528125 14.6278125 -2.6015625 13.8203125 C-3.04205175 11.23110232 -3.04205175 11.23110232 -4.1640625 9.1953125 C-4.3515625 5.6953125 -4.3515625 5.6953125 -4.1640625 2.1953125 C-2.1640625 0.1953125 -2.1640625 0.1953125 0 0 Z M-3.1640625 3.1953125 C-3.58072917 5.6953125 -3.58072917 5.6953125 -3.1640625 8.1953125 C-2.5040625 8.8553125 -1.8440625 9.5153125 -1.1640625 10.1953125 C1.43874318 9.87489853 1.43874318 9.87489853 3.8359375 9.1953125 C3.5059375 10.1853125 3.1759375 11.1753125 2.8359375 12.1953125 C1.1859375 12.1953125 -0.4640625 12.1953125 -2.1640625 12.1953125 C-1.8340625 13.1853125 -1.5040625 14.1753125 -1.1640625 15.1953125 C1.80659259 14.85303678 1.80659259 14.85303678 4.8359375 14.1953125 C6.15822939 11.55072871 5.93270944 9.51769949 5.8984375 6.5703125 C5.88490234 5.06597656 5.88490234 5.06597656 5.87109375 3.53125 C5.85949219 2.76039063 5.84789062 1.98953125 5.8359375 1.1953125 C4.5159375 1.1953125 3.1959375 1.1953125 1.8359375 1.1953125 C-0.48763761 1.01041243 -0.48763761 1.01041243 -3.1640625 3.1953125 Z " fill="#F9E5E4" transform="translate(372.1640625,353.8046875)"/>
<path d="M0 0 C0.66 0.33 1.32 0.66 2 1 C-4.97840565 9.72300706 -4.97840565 9.72300706 -9.71728516 10.37231445 C-10.73097168 10.3693335 -11.7446582 10.36635254 -12.7890625 10.36328125 C-13.89507812 10.36263672 -15.00109375 10.36199219 -16.140625 10.36132812 C-17.29046875 10.34521484 -18.4403125 10.32910156 -19.625 10.3125 C-20.78257812 10.31572266 -21.94015625 10.31894531 -23.1328125 10.32226562 C-31.73299254 10.26700746 -31.73299254 10.26700746 -34 8 C-33.23856689 7.98541748 -32.47713379 7.97083496 -31.69262695 7.95581055 C-28.23208112 7.88119459 -24.77248555 7.78457741 -21.3125 7.6875 C-20.11431641 7.66494141 -18.91613281 7.64238281 -17.68164062 7.61914062 C-16.52470703 7.58369141 -15.36777344 7.54824219 -14.17578125 7.51171875 C-13.11270752 7.48553467 -12.04963379 7.45935059 -10.9543457 7.43237305 C-6.62611784 6.79893023 -3.9610619 5.15990229 -1.1875 1.8125 C-0.795625 1.214375 -0.40375 0.61625 0 0 Z " fill="#D52D2D" transform="translate(167,202)"/>
<path d="M0 0 C0.33 1.32 0.66 2.64 1 4 C-2.53105961 7.32597281 -5.50235535 7.46770164 -10.25 7.6875 C-11.51328125 7.75324219 -12.7765625 7.81898438 -14.078125 7.88671875 C-15.52445313 7.94279297 -15.52445313 7.94279297 -17 8 C-17 5 -17 5 -15 3 C-11.65576501 2.61277279 -8.33142298 2.49254084 -4.96875 2.34375 C-1.88393229 2.29798671 -1.88393229 2.29798671 0 0 Z " fill="#C53839" transform="translate(180,191)"/>
<path d="M0 0 C3 1 3 1 6 3 C4.68 3.33 3.36 3.66 2 4 C1.67 10.93 1.34 17.86 1 25 C0.67 25 0.34 25 0 25 C0 20.38 0 15.76 0 11 C-1.65 10.67 -3.3 10.34 -5 10 C-4.67 9.01 -4.34 8.02 -4 7 C-3.34 7 -2.68 7 -2 7 C-2.061875 5.824375 -2.061875 5.824375 -2.125 4.625 C-2 2 -2 2 0 0 Z " fill="#D23D3D" transform="translate(130,83)"/>
<path d="M0 0 C1.32 0.99 2.64 1.98 4 3 C4.99 2.01 5.98 1.02 7 0 C7.66 1.32 8.32 2.64 9 4 C9.66 2.68 10.32 1.36 11 0 C11.66 0 12.32 0 13 0 C12.01 2.97 11.02 5.94 10 9 C9.34 9 8.68 9 8 9 C7.34 8.01 6.68 7.02 6 6 C5.01 7.485 5.01 7.485 4 9 C3.34 9 2.68 9 2 9 C0.50178941 5.62902617 0 3.79557881 0 0 Z " fill="#EA5352" transform="translate(433,355)"/>
<path d="M0 0 C2.64779693 0 4.51587793 0.17195931 7 1 C8.43088528 3.86177057 7.59991697 5.93375773 7 9 C6.34 9 5.68 9 5 9 C4.67 7.02 4.34 5.04 4 3 C2.64381501 4.12534105 2.64381501 4.12534105 2.9375 7.0625 C2.958125 8.031875 2.97875 9.00125 3 10 C1.68 10.33 0.36 10.66 -1 11 C-1.02688151 9.35425434 -1.04634123 7.70838587 -1.0625 6.0625 C-1.07410156 5.14597656 -1.08570313 4.22945313 -1.09765625 3.28515625 C-1 1 -1 1 0 0 Z " fill="#EF8A8A" transform="translate(323,328)"/>
<path d="M0 0 C4.62 0 9.24 0 14 0 C14.66 1.32 15.32 2.64 16 4 C13.72923158 4.02699725 11.45837179 4.04639453 9.1875 4.0625 C7.29064453 4.07990234 7.29064453 4.07990234 5.35546875 4.09765625 C2 4 2 4 -1 3 C-0.67 2.01 -0.34 1.02 0 0 Z " fill="#FB4949" transform="translate(135,180)"/>
<path d="M0 0 C1.65 0 3.3 0 5 0 C5.33 0.99 5.66 1.98 6 3 C4.68 3 3.36 3 2 3 C2 4.32 2 5.64 2 7 C3.32 7.33 4.64 7.66 6 8 C6 8.99 6 9.98 6 11 C3.69 11 1.38 11 -1 11 C-1.14285714 3.57142857 -1.14285714 3.57142857 0 0 Z " fill="#DB6464" transform="translate(171,93)"/>
<path d="M0 0 C0.78375 0.04125 1.5675 0.0825 2.375 0.125 C2.705 0.785 3.035 1.445 3.375 2.125 C1.725 2.125 0.075 2.125 -1.625 2.125 C-1.295 3.115 -0.965 4.105 -0.625 5.125 C1.87947516 6.34369929 1.87947516 6.34369929 4.375 7.125 C4.417721 8.79111905 4.41563832 10.45882885 4.375 12.125 C3.375 13.125 3.375 13.125 0.4375 13.25 C-2.625 13.125 -2.625 13.125 -4.625 12.125 C-4.625 11.465 -4.625 10.805 -4.625 10.125 C-1.655 10.62 -1.655 10.62 1.375 11.125 C1.375 10.135 1.375 9.145 1.375 8.125 C0.570625 7.8775 -0.23375 7.63 -1.0625 7.375 C-3.625 6.125 -3.625 6.125 -4.5625 4.125 C-4.583125 3.465 -4.60375 2.805 -4.625 2.125 C-2.625 0.125 -2.625 0.125 0 0 Z " fill="#E54D4D" transform="translate(334.625,350.875)"/>
<path d="M0 0 C0.33 1.32 0.66 2.64 1 4 C-3.04785246 6.36761181 -6.74725993 6.4036956 -11.34375 6.65625 C-14.02875238 7.0037209 -15.72654622 7.55325669 -18 9 C-18.33 9.66 -18.66 10.32 -19 11 C-20.24508396 13.49016793 -21.46716796 13.98686718 -24 15 C-22.57486487 10.46547912 -20.9097777 7.75984308 -17 5 C-13.66074843 4.57199948 -10.42463789 4.43748513 -7.05859375 4.43359375 C-3.39715928 3.91453982 -2.28598176 2.82254472 0 0 Z " fill="#AC0F0F" transform="translate(181,193)"/>
<path d="M0 0 C0.33 0 0.66 0 1 0 C1.33 5.28 1.66 10.56 2 16 C0.68 16.33 -0.64 16.66 -2 17 C-3.18594057 12.76674194 -2.71869389 9.89604576 -1.5625 5.6875 C-1.27503906 4.61886719 -0.98757812 3.55023438 -0.69140625 2.44921875 C-0.46324219 1.64097656 -0.23507813 0.83273438 0 0 Z " fill="#F9E6E5" transform="translate(91,95)"/>
<path d="M0 0 C0.99 0.495 0.99 0.495 2 1 C4.71262116 1.2322646 7.40773126 1.41936235 10.125 1.5625 C11.25615234 1.62727539 11.25615234 1.62727539 12.41015625 1.69335938 C14.27321888 1.7994832 16.13658524 1.90025001 18 2 C18 2.33 18 2.66 18 3 C12.06 3.495 12.06 3.495 6 4 C9.3 4.33 12.6 4.66 16 5 C16 5.33 16 5.66 16 6 C13.52076199 6.02685095 11.0418116 6.04676547 8.5625 6.0625 C7.85544922 6.07087891 7.14839844 6.07925781 6.41992188 6.08789062 C4.61306441 6.09653588 2.80612397 6.05220011 1 6 C0 5 0 5 -0.0625 2.4375 C-0.041875 1.633125 -0.02125 0.82875 0 0 Z " fill="#D14343" transform="translate(104,191)"/>
<path d="M0 0 C2.70215787 2.70215787 4.0461693 4.60500761 5.75 7.9375 C6.19859375 8.79214844 6.6471875 9.64679688 7.109375 10.52734375 C8 13 8 13 7.828125 15.25390625 C7.55484375 15.83011719 7.2815625 16.40632813 7 17 C6.01 17.33 5.02 17.66 4 18 C2.68 12.06 1.36 6.12 0 0 Z " fill="#A72727" transform="translate(247,111)"/>
<path d="M0 0 C0.99 0.33 1.98 0.66 3 1 C2.34 1 1.68 1 1 1 C1 1.66 1 2.32 1 3 C1.99 2.67 2.98 2.34 4 2 C4 6.62 4 11.24 4 16 C3.34 16 2.68 16 2 16 C1.67 13.03 1.34 10.06 1 7 C0.34 8.32 -0.32 9.64 -1 11 C-1.02688151 9.35425434 -1.04634123 7.70838587 -1.0625 6.0625 C-1.07410156 5.14597656 -1.08570313 4.22945313 -1.09765625 3.28515625 C-1 1 -1 1 0 0 Z " fill="#FAD6D5" transform="translate(360,349)"/>
<path d="M0 0 C0.78375 0.04125 1.5675 0.0825 2.375 0.125 C2.705 1.775 3.035 3.425 3.375 5.125 C2.715 5.125 2.055 5.125 1.375 5.125 C1.375 4.135 1.375 3.145 1.375 2.125 C0.385 2.455 -0.605 2.785 -1.625 3.125 C-1.625 4.445 -1.625 5.765 -1.625 7.125 C0.025 7.455 1.675 7.785 3.375 8.125 C3.375 8.455 3.375 8.785 3.375 9.125 C1.04205225 9.16741723 -1.29202567 9.16592937 -3.625 9.125 C-4.625 8.125 -4.625 8.125 -4.8125 5.1875 C-4.57390036 1.29037256 -3.98646018 0.18983144 0 0 Z " fill="#E34A4A" transform="translate(378.625,327.875)"/>
<path d="M0 0 C1.45742463 -0.08096803 2.91612807 -0.13917774 4.375 -0.1875 C5.18710938 -0.22230469 5.99921875 -0.25710937 6.8359375 -0.29296875 C7.55007812 -0.19628906 8.26421875 -0.09960938 9 0 C9.66 0.99 10.32 1.98 11 3 C10.01 3.99 9.02 4.98 8 6 C7.67 5.34 7.34 4.68 7 4 C5.10466658 3.53476937 5.10466658 3.53476937 2.9375 3.375 C1.638125 3.25125 0.33875 3.1275 -1 3 C-0.67 2.01 -0.34 1.02 0 0 Z " fill="#D34040" transform="translate(91,87)"/>
<path d="M0 0 C1.95766281 -0.08082094 3.91626728 -0.13910778 5.875 -0.1875 C7.51082031 -0.23970703 7.51082031 -0.23970703 9.1796875 -0.29296875 C10.11039063 -0.19628906 11.04109375 -0.09960938 12 0 C12.66 0.99 13.32 1.98 14 3 C9.71 3 5.42 3 1 3 C0.67 2.01 0.34 1.02 0 0 Z " fill="#BC1A1A" transform="translate(109,198)"/>
<path d="M0 0 C0.33 0 0.66 0 1 0 C1 4.62 1 9.24 1 14 C0.34 14 -0.32 14 -1 14 C-1.33 15.32 -1.66 16.64 -2 18 C-2 13.71 -2 9.42 -2 5 C-1.67 5 -1.34 5 -1 5 C-0.67 3.35 -0.34 1.7 0 0 Z " fill="#C93131" transform="translate(382,350)"/>
<path d="M0 0 C0 0.66 0 1.32 0 2 C-1.32 2 -2.64 2 -4 2 C-4 2.66 -4 3.32 -4 4 C-2.35 4.33 -0.7 4.66 1 5 C1 6.32 1 7.64 1 9 C-1.31 9 -3.62 9 -6 9 C-6 8.34 -6 7.68 -6 7 C-3.525 7.495 -3.525 7.495 -1 8 C-2.25541557 5.48916886 -3.50063488 5.12874554 -6 4 C-6 3.01 -6 2.02 -6 1 C-4 0 -4 0 0 0 Z " fill="#DE5050" transform="translate(426,355)"/>
<path d="M0 0 C0.66 0.33 1.32 0.66 2 1 C2 2.98 2 4.96 2 7 C2.66 7 3.32 7 4 7 C4 5.02 4 3.04 4 1 C5.32 1 6.64 1 8 1 C7.01 1.495 7.01 1.495 6 2 C6 3.98 6 5.96 6 8 C4.0625 8.5625 4.0625 8.5625 2 9 C1 8 1 8 0.9375 4.9375 C0.958125 3.968125 0.97875 2.99875 1 2 C0.34 1.67 -0.32 1.34 -1 1 C-0.67 0.67 -0.34 0.34 0 0 Z " fill="#FBD3D2" transform="translate(326,330)"/>
<path d="M0 0 C2.7839183 1.39195915 2.97898997 3.15575779 4 6 C4.78375 5.938125 5.5675 5.87625 6.375 5.8125 C7.674375 5.9053125 7.674375 5.9053125 9 6 C9.99 7.485 9.99 7.485 11 9 C4.7 9.48461538 4.7 9.48461538 1.5625 7.3125 C-0.25953249 4.61589191 -0.35430394 3.18873549 0 0 Z " fill="#F5C2C1" transform="translate(478,357)"/>
<path d="M0 0 C0.78375 0.185625 1.5675 0.37125 2.375 0.5625 C4.97089775 1.25962266 4.97089775 1.25962266 7 0 C6.67 0.515625 6.34 1.03125 6 1.5625 C4.67989123 4.78026512 4.86757895 7.5570528 5 11 C4.01 11 3.02 11 2 11 C0.93183763 7.7955129 1 5.35033432 1 2 C0.67 1.34 0.34 0.68 0 0 Z " fill="#BE2424" transform="translate(446,353)"/>
<path d="M0 0 C3.875 0.875 3.875 0.875 5 2 C5.04080783 3.99958364 5.04254356 6.00045254 5 8 C3.35 8.33 1.7 8.66 0 9 C-0.33 8.34 -0.66 7.68 -1 7 C0.32 7 1.64 7 3 7 C2.65213292 5.02463255 2.65213292 5.02463255 2 3 C1.34 2.67 0.68 2.34 0 2 C0 1.34 0 0.68 0 0 Z " fill="#E95151" transform="translate(401,328)"/>
<path d="M0 0 C0.33 0 0.66 0 1 0 C1.33 3.63 1.66 7.26 2 11 C0.68 10.67 -0.64 10.34 -2 10 C-1.85950482 8.52031676 -1.71245174 7.04125484 -1.5625 5.5625 C-1.48128906 4.73878906 -1.40007812 3.91507812 -1.31640625 3.06640625 C-1 1 -1 1 0 0 Z " fill="#E68584" transform="translate(361,355)"/>
<path d="M0 0 C1.98 0 3.96 0 6 0 C6 0.66 6 1.32 6 2 C5.01 2.33 4.02 2.66 3 3 C2.67 4.98 2.34 6.96 2 9 C1.34 9 0.68 9 0 9 C0 6.03 0 3.06 0 0 Z " fill="#E05454" transform="translate(468,355)"/>
<path d="M0 0 C0 0.66 0 1.32 0 2 C-0.78375 2.185625 -1.5675 2.37125 -2.375 2.5625 C-5.39376342 3.83961627 -5.39376342 3.83961627 -6.3125 7.625 C-6.6528125 9.295625 -6.6528125 9.295625 -7 11 C-9.1519437 7.77208445 -9.20086443 6.71599191 -9 3 C-3.375 0 -3.375 0 0 0 Z " fill="#BB2222" transform="translate(485,352)"/>
<path d="M0 0 C0.99 0.33 1.98 0.66 3 1 C3.1875 4.3125 3.1875 4.3125 3 8 C2.01 8.99 1.02 9.98 0 11 C0 7.37 0 3.74 0 0 Z " fill="#CC3636" transform="translate(354,328)"/>
<path d="M0 0 C1.98 0.495 1.98 0.495 4 1 C3.67 2.65 3.34 4.3 3 6 C1.68 5.67 0.36 5.34 -1 5 C-0.67 3.35 -0.34 1.7 0 0 Z " fill="#DB5555" transform="translate(154,98)"/>
<path d="M0 0 C0.33 0 0.66 0 1 0 C1 4.62 1 9.24 1 14 C-0.32 13.34 -1.64 12.68 -3 12 C-2.67 10.35 -2.34 8.7 -2 7 C-1.34 7 -0.68 7 0 7 C0 4.69 0 2.38 0 0 Z " fill="#EC4545" transform="translate(366,323)"/>
<path d="M0 0 C3.125 -0.1875 3.125 -0.1875 6 0 C6 0.33 6 0.66 6 1 C7.65 1.33 9.3 1.66 11 2 C11 2.33 11 2.66 11 3 C6.71 3 2.42 3 -2 3 C-1.34 2.01 -0.68 1.02 0 0 Z " fill="#F85454" transform="translate(140,181)"/>
<path d="M0 0 C0.84304687 0.23009766 0.84304687 0.23009766 1.703125 0.46484375 C4.05838878 1.01360419 6.34548104 1.31497599 8.75 1.5625 C9.54921875 1.64628906 10.3484375 1.73007813 11.171875 1.81640625 C12.07679688 1.90728516 12.07679688 1.90728516 13 2 C13.33 1.34 13.66 0.68 14 0 C14 0.99 14 1.98 14 3 C9.05 3 4.1 3 -1 3 C-0.67 2.01 -0.34 1.02 0 0 Z " fill="#FADFDE" transform="translate(136,176)"/>
<path d="M0 0 C1.65 0 3.3 0 5 0 C5.33 0.99 5.66 1.98 6 3 C4.68 3.33 3.36 3.66 2 4 C1.67 5.98 1.34 7.96 1 10 C0.67 10 0.34 10 0 10 C0 6.7 0 3.4 0 0 Z " fill="#D54C4C" transform="translate(171,93)"/>
<path d="M0 0 C2.97 0 5.94 0 9 0 C4.5 4 4.5 4 0 4 C0 2.68 0 1.36 0 0 Z " fill="#FDF5F5" transform="translate(79,92)"/>
<path d="M0 0 C2 2 2 2 2 5 C2.66 5 3.32 5 4 5 C4 5.66 4 6.32 4 7 C3.4225 6.814375 2.845 6.62875 2.25 6.4375 C-0.20692525 5.95976454 -1.64397534 6.24270636 -4 7 C-4 5 -4 5 -2.5625 3.5 C-2.046875 3.005 -1.53125 2.51 -1 2 C-0.67 1.34 -0.34 0.68 0 0 Z " fill="#FACDCD" transform="translate(439,359)"/>
<path d="M0 0 C0.66 0 1.32 0 2 0 C2.06058594 0.62648438 2.12117188 1.25296875 2.18359375 1.8984375 C2.26738281 2.71570313 2.35117187 3.53296875 2.4375 4.375 C2.51871094 5.18710937 2.59992188 5.99921875 2.68359375 6.8359375 C2.89090114 9.04272805 2.89090114 9.04272805 4 11 C2.68 10.67 1.36 10.34 0 10 C0 6.7 0 3.4 0 0 Z " fill="#ECBEBD" transform="translate(466,355)"/>
<path d="M0 0 C2.3125 -0.25 2.3125 -0.25 5 0 C6.8125 2 6.8125 2 8 4 C7.01 5.485 7.01 5.485 6 7 C4.68 6.67 3.36 6.34 2 6 C2.99 5.01 3.98 4.02 5 3 C2.525 2.01 2.525 2.01 0 1 C0 0.67 0 0.34 0 0 Z " fill="#F5BABA" transform="translate(332,349)"/>
<path d="M0 0 C1.32 0.33 2.64 0.66 4 1 C5.43088528 3.86177057 4.59991697 5.93375773 4 9 C3.34 9 2.68 9 2 9 C1.34 6.03 0.68 3.06 0 0 Z " fill="#EA5656" transform="translate(326,328)"/>
<path d="M0 0 C1.98 0.495 1.98 0.495 4 1 C3.67 2.32 3.34 3.64 3 5 C1.68 5 0.36 5 -1 5 C-0.67 3.35 -0.34 1.7 0 0 Z " fill="#FBC4C3" transform="translate(455,357)"/>
<path d="M0 0 C2.475 0.495 2.475 0.495 5 1 C4.67 2.32 4.34 3.64 4 5 C2.68 4.67 1.36 4.34 0 4 C0 2.68 0 1.36 0 0 Z " fill="#D94949" transform="translate(189,101)"/>
<path d="M0 0 C0.99 0 1.98 0 3 0 C2.67 3.63 2.34 7.26 2 11 C0 9 0 9 -0.1953125 6.8359375 C-0.17210938 6.02382812 -0.14890625 5.21171875 -0.125 4.375 C-0.10695313 3.55773437 -0.08890625 2.74046875 -0.0703125 1.8984375 C-0.04710938 1.27195312 -0.02390625 0.64546875 0 0 Z " fill="#F7DCDC" transform="translate(118,95)"/>
<path d="M0 0 C1.32 0 2.64 0 4 0 C4.33 1.32 4.66 2.64 5 4 C3.02 4.33 1.04 4.66 -1 5 C-0.67 3.35 -0.34 1.7 0 0 Z " fill="#F9C4C3" transform="translate(348,357)"/>
<path d="M0 0 C1.32 0.66 2.64 1.32 4 2 C4 4.31 4 6.62 4 9 C3.34 9 2.68 9 2 9 C1.814375 7.576875 1.814375 7.576875 1.625 6.125 C1.28312823 2.91332809 1.28312823 2.91332809 -1 1 C-0.67 0.67 -0.34 0.34 0 0 Z " fill="#E85151" transform="translate(389,355)"/>
<path d="M0 0 C1.98 0.495 1.98 0.495 4 1 C3.67 2.32 3.34 3.64 3 5 C1.68 4.67 0.36 4.34 -1 4 C-0.67 2.68 -0.34 1.36 0 0 Z " fill="#FBBFBF" transform="translate(361,330)"/>
<path d="M0 0 C3.11198065 1.49836105 6.0534615 3.19933758 9 5 C8.67 6.32 8.34 7.64 8 9 C6.66368764 7.6905332 5.33102075 6.37734515 4 5.0625 C3.2575 4.33160156 2.515 3.60070312 1.75 2.84765625 C0 1 0 1 0 0 Z " fill="#AB2929" transform="translate(83,233)"/>
<path d="M0 0 C2.0625 0.4375 2.0625 0.4375 4 1 C4.33 2.65 4.66 4.3 5 6 C4.34 5.01 3.68 4.02 3 3 C-0.0745356 3.7763932 -0.0745356 3.7763932 -2 6 C-1.125 1.125 -1.125 1.125 0 0 Z " fill="#DE5555" transform="translate(345,328)"/>
<path d="M0 0 C-0.33 1.32 -0.66 2.64 -1 4 C-3.31 4 -5.62 4 -8 4 C-6.27302455 0.54604909 -3.70696841 0 0 0 Z " fill="#F9C2C1" transform="translate(355,362)"/>
<path d="M0 0 C0.66 0 1.32 0 2 0 C1.01 2.97 0.02 5.94 -1 9 C-1.66 9 -2.32 9 -3 9 C-3 8.01 -3 7.02 -3 6 C-2.34 6 -1.68 6 -1 6 C-0.67 4.02 -0.34 2.04 0 0 Z " fill="#E04545" transform="translate(444,355)"/>
<path d="M0 0 C2.475 0.495 2.475 0.495 5 1 C5 3.31 5 5.62 5 8 C4.34 8 3.68 8 3 8 C2.814375 6.576875 2.814375 6.576875 2.625 5.125 C2.28312823 1.91332809 2.28312823 1.91332809 0 0 Z " fill="#E94A4A" transform="translate(331,329)"/>
<path d="M0 0 C0.99 0.33 1.98 0.66 3 1 C0.69 3.31 -1.62 5.62 -4 8 C-4.66 7.67 -5.32 7.34 -6 7 C-4.02 4.69 -2.04 2.38 0 0 Z " fill="#EC3F3F" transform="translate(166,205)"/>
<path d="M0 0 C0.33 0 0.66 0 1 0 C1.25 5.625 1.25 5.625 -1 9 C-1.66 9 -2.32 9 -3 9 C-2.44271087 5.65626525 -1.64826111 2.96687001 0 0 Z " fill="#F55F5E" transform="translate(154,174)"/>
<path d="M0 0 C3.12148941 3.12148941 4.03221758 4.77694943 5 9 C4.01 10.485 4.01 10.485 3 12 C2.01 8.04 1.02 4.08 0 0 Z " fill="#B02B2B" transform="translate(247,111)"/>
<path d="M0 0 C1.32 0.66 2.64 1.32 4 2 C3.67 2.99 3.34 3.98 3 5 C1.68 4.67 0.36 4.34 -1 4 C-0.67 2.68 -0.34 1.36 0 0 Z " fill="#FBC9C9" transform="translate(372,357)"/>
<path d="M0 0 C0.99 0 1.98 0 3 0 C3 0.99 3 1.98 3 3 C3.66 3.33 4.32 3.66 5 4 C3.02 4.33 1.04 4.66 -1 5 C-0.67 3.35 -0.34 1.7 0 0 Z " fill="#FAD6D5" transform="translate(377,330)"/>
<path d="M0 0 C0.33 0.99 0.66 1.98 1 3 C1.66 3 2.32 3 3 3 C3 5.64 3 8.28 3 11 C2.67 11 2.34 11 2 11 C2 9.02 2 7.04 2 5 C1.01 5 0.02 5 -1 5 C-0.67 3.35 -0.34 1.7 0 0 Z " fill="#DC6A6A" transform="translate(200,99)"/>
<path d="M0 0 C2.31 0 4.62 0 7 0 C6.67 0.99 6.34 1.98 6 3 C4.35 3 2.7 3 1 3 C0.67 2.01 0.34 1.02 0 0 Z " fill="#F8E1E0" transform="translate(91,90)"/>
<path d="M0 0 C1.67542976 0.28604898 3.34385343 0.61781233 5 1 C4.401875 1.268125 3.80375 1.53625 3.1875 1.8125 C1.02775192 2.98493467 -0.35790256 4.19369282 -2 6 C-1.125 1.125 -1.125 1.125 0 0 Z " fill="#C72E2E" transform="translate(454,355)"/>
<path d="M0 0 C0.99 0.33 1.98 0.66 3 1 C3.33 3.31 3.66 5.62 4 8 C3.01 7.67 2.02 7.34 1 7 C0.67 4.69 0.34 2.38 0 0 Z " fill="#CA3434" transform="translate(338,329)"/>
<path d="M0 0 C1.32 0 2.64 0 4 0 C4.66 1.98 5.32 3.96 6 6 C5.34 5.67 4.68 5.34 4 5 C4 4.34 4 3.68 4 3 C3.01 3.33 2.02 3.66 1 4 C0.67 2.68 0.34 1.36 0 0 Z " fill="#C42F2F" transform="translate(408,330)"/>
<path d="M0 0 C0.99 0.33 1.98 0.66 3 1 C3 2.32 3 3.64 3 5 C1.68 4.67 0.36 4.34 -1 4 C-0.67 2.68 -0.34 1.36 0 0 Z " fill="#FBC8C8" transform="translate(401,330)"/>
<path d="M0 0 C0.99 0.33 1.98 0.66 3 1 C3 2.32 3 3.64 3 5 C1.68 4.67 0.36 4.34 -1 4 C-0.67 2.68 -0.34 1.36 0 0 Z " fill="#FCC9C9" transform="translate(346,330)"/>
</svg>
