<svg xmlns="http://www.w3.org/2000/svg" width="600" height="300" viewBox="0 0 158.75 79.375"><rect width="158.75" height="79.375" ry="0" style="fill:#0fbd8c;fill-opacity:1;stroke-width:.210752"/><path fill="#fff" d="M51.366 36.557c4.943 0 5.602-2.636 5.602-4.943 0-1.977-.33-3.625-.33-5.601 0-1.977-.33-3.955-.33-5.602 0-6.92 4.285-9.886 11.205-9.886h2.636v6.261H68.83c-3.295 0-4.284 1.977-4.284 5.272 0 1.318.33 2.636.33 4.284 0 1.318.329 2.966.329 4.943 0 5.602-2.307 7.58-6.26 8.568 3.953.988 6.26 2.965 6.26 8.567 0 1.977-.33 3.625-.33 4.943 0 1.318-.329 2.965-.329 3.954 0 3.295.989 5.272 4.284 5.272h1.318v6.261h-2.636c-6.59 0-10.874-2.636-10.874-9.885 0-1.978 0-3.625.33-5.602.329-1.977.329-3.954.329-5.602 0-1.977-.66-4.943-5.602-4.943zm56.018 5.602c-4.943 0-5.602 2.966-5.602 4.943 0 1.977.33 3.624.33 5.601.33 1.978.33 3.955.33 5.602 0 7.25-4.614 9.886-11.205 9.886h-2.636v-5.602h1.318c3.295 0 4.284-1.977 4.284-5.272 0-1.318 0-2.636-.33-3.955 0-1.647-.329-3.295-.329-4.942 0-5.602 2.307-7.58 6.26-8.568-3.953-.988-6.26-2.965-6.26-8.567 0-1.977.33-3.625.33-4.943.329-1.648.329-2.966.329-4.284 0-3.295-1.318-4.943-4.284-5.272h-1.318v-6.261h2.636c6.92 0 11.204 2.966 11.204 9.885 0 1.978-.33 3.625-.33 5.602-.329 1.977-.329 3.954-.329 5.602 0 2.307.66 4.943 5.602 4.943z"/></svg>