<svg xmlns="http://www.w3.org/2000/svg" width="600" height="300" viewBox="0 0 158.75 79.375"><path fill="#d9f3cb" d="M0 79.375V0h158.75v79.375Z" style="mix-blend-mode:normal;fill-rule:nonzero;stroke-linecap:butt;stroke-linejoin:miter;stroke-miterlimit:10;stroke-dasharray:none;stroke-dashoffset:0"/><path fill="#8bc34a" stroke="#6ba339" stroke-width="1.212" d="M97.055 53.026 82.712 38.437s-4.37 2.374-9.82 2.4c-1.097.004-8.228.205-12.64-6.125-1.867-3.314-4.152-4.487-4.018-11.483.032-1.719 2.444-3.45 4.5-2.921.98.252 2.325 1.01 2.624 2.277.471 1.993 1.955 7.045 4.402 8.571 6.74 4.202 12.235-.632 12.235-.632s3.441-1.89 2.962-8.436c-.02-.256-2.351-7.836-9.88-8.063-.906-.027-2.216-.429-2.716-1.46-1.025-2.113-.424-5.688 1.606-5.84 5.278-.397 11.256 2.626 14.081 5.61 3.352 3.54 4.444 8.555 4.497 9.257.551 7.335-2.429 11.687-2.429 11.687l14.405 14.22-.008 3.103-2.248 2.35z" style="mix-blend-mode:normal;fill-rule:nonzero;stroke-linecap:butt;stroke-linejoin:miter;stroke-miterlimit:10;stroke-dasharray:none;stroke-dashoffset:0"/><g aria-label="UTILITIES" style="font-size:20.7238px;font-family:&quot;Sans Serif&quot;;fill:#82e050;stroke:#6ba339;stroke-width:1.03639;stroke-miterlimit:10"><path d="M22.541 60.616h3.896v9.056q0 1.872.607 2.682.618.8 2.004.8 1.396 0 2.004-.8.617-.81.617-2.682v-9.056h3.896v9.056q0 3.208-1.61 4.776-1.608 1.569-4.907 1.569-3.289 0-4.898-1.569-1.609-1.568-1.609-4.776zM37.568 60.616h13.924v2.944h-5.009v12.163h-3.896V63.56h-5.019zM53.506 60.616h3.896v15.107h-3.896zM61.216 60.616h3.896v12.163h6.84v2.944H61.217ZM74.422 60.616h3.896v15.107h-3.896zM80.331 60.616h13.924v2.944h-5.009v12.163H85.35V63.56h-5.019zM96.269 60.616h3.896v15.107h-3.896zM103.98 60.616h10.513v2.944h-6.618v2.813h6.224v2.945h-6.224v3.46h6.84v2.945H103.98zM128.65 61.091v3.198q-1.245-.557-2.429-.84-1.184-.283-2.236-.283-1.397 0-2.064.384-.668.385-.668 1.194 0 .607.445.951.455.334 1.64.577l1.659.334q2.52.506 3.582 1.538 1.062 1.032 1.062 2.935 0 2.5-1.487 3.724-1.477 1.214-4.523 1.214-1.437 0-2.884-.273-1.447-.274-2.894-.81v-3.289q1.447.77 2.793 1.164 1.356.385 2.61.385 1.275 0 1.953-.425.678-.425.678-1.215 0-.708-.465-1.092-.456-.385-1.832-.689l-1.507-.333q-2.267-.486-3.32-1.549-1.042-1.062-1.042-2.863 0-2.257 1.457-3.471t4.19-1.214q1.244 0 2.56.192 1.315.182 2.722.556z" style="font-weight:700;font-family:&quot;DejaVu Sans&quot;;-inkscape-font-specification:&quot;DejaVu Sans Bold&quot;" transform="scale(1.04315 .95863)"/></g></svg>