<svg xmlns="http://www.w3.org/2000/svg" xmlns:xlink="http://www.w3.org/1999/xlink" xml:space="preserve" width="160" height="80" stroke-miterlimit="10"><defs><path id="b" d="M92.556 34.703c-.246.028-.32 1.079-.29 1.353l.094.839c-.727.168-1.468.347-2.09.705l-.443-.58c-.163-.222-.93-.963-1.129-.817l-.638.48c-.199.147.237 1.117.401 1.34l.518.696c-.536.502-.985 1.026-1.355 1.66l-.76-.323c-.252-.11-1.298-.353-1.397-.127l-.327.728c-.1.227.796.842 1.05.952l.662.303c-.206.68-.226 1.428-.23 2.164l-.838.094c-.275.03-1.284.335-1.256.58l.09.808c.028.246 1.079.32 1.353.29l.87-.098c.168.721.316 1.444.67 2.063l-.579.442c-.222.164-.96.961-.814 1.16l.48.638c.147.2 1.113-.268 1.336-.432l.665-.514a7.262 7.262 0 0 0 1.692 1.351l-.351.794c-.111.253-.322 1.295-.096 1.395l.728.327c.227.099.81-.793.921-1.046l.303-.663c.687.211 1.45.223 2.195.226l.094.839c.03.274.335 1.283.58 1.256l.808-.09c.246-.028.32-1.08.289-1.354l-.097-.87c.721-.167 1.444-.315 2.063-.67l.442.58c.164.222.961.96 1.16.813l.638-.48c.199-.146-.268-1.113-.432-1.335l-.518-.697a7.308 7.308 0 0 0 1.352-1.692l.794.352c.253.11 1.298.353 1.397.127l.297-.725c.099-.227-.766-.845-1.019-.956l-.663-.303c.21-.681.194-1.42.199-2.16l.839-.094c.274-.03 1.314-.338 1.287-.584l-.091-.807c-.027-.246-1.109-.317-1.384-.286l-.807.09c-.168-.726-.348-1.468-.705-2.09l.583-.412c.222-.163.929-.957.782-1.156l-.449-.642c-.146-.199-1.113.269-1.335.432l-.697.519a7.233 7.233 0 0 0-1.692-1.352l.352-.794c.11-.253.353-1.299.127-1.398l-.729-.327c-.226-.1-.84.796-.952 1.05l-.303.662c-.682-.21-1.42-.194-2.16-.199l-.097-.87c-.031-.274-.335-1.282-.581-1.255zm.875 4.179a5.25 5.25 0 1 1 1.166 10.435 5.25 5.25 0 0 1-1.166-10.435z"/><path id="d" d="M90.313 17.031c-.248 0-.438 1.037-.438 1.313v.843c-.741.087-1.497.183-2.156.47l-.375-.626c-.138-.239-.817-1.06-1.031-.937l-.688.406c-.214.123.112 1.136.25 1.375l.438.75c-.59.439-1.094.91-1.532 1.5l-.719-.406c-.239-.138-1.251-.495-1.374-.282l-.407.688c-.123.214.699.924.938 1.063l.625.375c-.28.652-.384 1.393-.469 2.125h-.844c-.276 0-1.312.19-1.312.437v.813c0 .247 1.036.437 1.312.437h.875c.087.735.154 1.47.438 2.125l-.625.375c-.24.138-1.061.849-.938 1.063l.406.687c.124.214 1.136-.143 1.376-.281l.718-.438a7.26 7.26 0 0 0 1.531 1.532l-.437.75c-.138.239-.464 1.251-.25 1.374l.688.407c.213.123.893-.699 1.03-.938l.376-.625c.659.286 1.415.383 2.156.469v.844c0 .276.19 1.312.438 1.312h.812c.247 0 .438-1.036.438-1.312v-.875c.735-.087 1.47-.154 2.124-.438l.376.625c.138.24.848 1.061 1.062.938l.688-.407c.213-.123-.144-1.135-.282-1.374l-.437-.75a7.303 7.303 0 0 0 1.531-1.532l.75.438c.24.138 1.251.495 1.375.281l.375-.688c.124-.213-.667-.924-.906-1.062l-.625-.375c.284-.654.35-1.39.437-2.125h.844c.276 0 1.344-.19 1.344-.438v-.812c0-.247-1.068-.438-1.344-.438h-.813c-.086-.74-.182-1.497-.468-2.156l.625-.343c.239-.139 1.03-.849.906-1.063l-.375-.688c-.124-.213-1.136.144-1.375.282l-.75.437a7.239 7.239 0 0 0-1.531-1.531l.437-.75c.138-.24.495-1.252.281-1.375l-.687-.406c-.214-.124-.924.698-1.063.937l-.374.625c-.655-.284-1.39-.35-2.126-.437v-.875c0-.276-.19-1.313-.437-1.313h-.813zm.406 4.25a5.25 5.25 0 1 1 0 10.5 5.25 5.25 0 0 1 0-10.5z"/></defs><clipPath id="a"><path d="M0 0h158.75v79.375H0Z"/></clipPath><g clip-path="url(#a)" transform="scale(1.00822)"><path fill="#a1e65c" d="M0 79.375V0h158.75v79.375z"/><g fill="none" stroke="#8fcc52" stroke-width="7.5"><path d="M0 39.688C0-3.089 34.676-37.764 77.451-37.764c42.776 0 77.452 34.676 77.452 77.452 0 42.775-34.676 77.451-77.451 77.451C34.675 117.139 0 82.463 0 39.688Z"/><path d="M19.363 39.688c0-32.082 26.007-58.09 58.088-58.09 32.082 0 58.089 26.008 58.089 58.09 0 32.081-26.007 58.088-58.088 58.088-32.082 0-58.09-26.007-58.09-58.088z"/><path d="M38.726 39.688C38.726 18.3 56.064.962 77.45.962c21.388 0 38.726 17.338 38.726 38.725 0 21.388-17.338 38.726-38.726 38.726-21.387 0-38.725-17.338-38.725-38.725z"/><path d="M58.089 39.688c0-10.694 8.669-19.363 19.362-19.363 10.694 0 19.363 8.669 19.363 19.363 0 10.693-8.669 19.362-19.362 19.362-10.694 0-19.363-8.669-19.363-19.362z"/><path d="M76.967 39.688a.484.484 0 1 1 .969 0 .484.484 0 0 1-.969 0z"/></g></g><path fill-opacity=".15" d="M92.344 32.809c-.083.009-.164.039-.245.059 0 0-.463.164-.776.37 0 0-.264.23-.342.32a2.28 2.28 0 0 0-.369.64 3.43 3.43 0 0 0-.196.776c-.168-.137-.33-.29-.614-.435-.157-.08-.358-.183-.815-.255 0 0-.34-.01-.718.05l-.48.21c-.08.044-.161.097-.234.152l-.638.48a1.838 1.838 0 0 0-.172.145s-.32.389-.487.715c0 0-.087.307-.11.42a2.31 2.31 0 0 0-.013.725c.046.341.134.573.214.794.004.01 0 .021.004.031-.225-.034-.462-.09-.794-.068-.175.01-.373.016-.797.183 0 0-.322.176-.614.415l-.3.41c-.04.067-.072.13-.103.2l-.328.729a1.962 1.962 0 0 0-.096.262s-.083.51-.058.887c0 0 .07.317.11.428.125.311.274.483.384.618.205.253.36.427.535.569-.202.08-.422.151-.687.328-.146.098-.31.241-.593.6 0 0-.172.312-.303.664l-.072.48c-.002.083-.013.169-.004.251l.09.808c.01.082.04.164.06.245 0 0 .164.462.37.776 0 0 .23.264.32.341.265.212.475.306.639.37.297.113.528.134.742.168-.14.177-.252.38-.396.673-.078.157-.19.336-.259.784 0 0-.01.345.05.717l.21.48c.044.08.097.161.152.235l.48.638c.047.062.09.116.145.172 0 0 .377.318.715.486 0 0 .338.117.455.138.334.048.55.01.721-.018.33-.052.548-.16.76-.242-.002.01.004.02.003.031-.03.235-.064.48-.034.822.016.173.043.382.215.793 0 0 .176.302.41.583l.38.304c.066.04.13.072.2.103l.729.328c.083.037.175.07.262.096 0 0 .506.083.887.058 0 0 .346-.072.46-.114.316-.129.482-.271.617-.384.244-.204.37-.388.503-.559.083.211.177.436.363.714.098.146.241.31.6.593 0 0 .312.172.663.304l.48.072c.083.002.17.012.252.003l.808-.09c.082-.01.164-.039.245-.059 0 0 .462-.164.776-.37 0 0 .264-.23.341-.32a2.3 2.3 0 0 0 .37-.64c.113-.297.135-.528.168-.741.177.139.38.251.673.396.157.077.336.19.784.258 0 0 .345.01.717-.049l.48-.21c.081-.044.161-.097.234-.152l.639-.48c.062-.047.116-.091.172-.145 0 0 .318-.377.486-.715 0 0 .117-.339.138-.456.048-.333.01-.549-.018-.72-.055-.342-.16-.572-.245-.791.233.035.479.087.825.065.174-.011.373-.017.797-.183 0 0 .321-.177.614-.415l.3-.41c.052-.086.089-.174.127-.267l.296-.724c.026-.063.054-.132.073-.197 0 0 .08-.49.061-.856 0 0-.072-.318-.11-.428a2.18 2.18 0 0 0-.353-.62 3.694 3.694 0 0 0-.569-.598c.203-.079.421-.155.686-.328.147-.096.34-.218.628-.573 0 0 .165-.307.303-.663l.069-.51c.002-.086.013-.167.003-.253l-.09-.807c-.01-.085-.038-.162-.059-.245 0 0-.191-.487-.404-.804 0 0-.229-.265-.321-.341-.268-.208-.472-.277-.636-.338-.296-.11-.526-.137-.742-.169.144-.188.278-.396.424-.707.074-.159.169-.337.228-.78 0 0-.018-.353-.08-.715l-.176-.452c-.033-.06-.076-.12-.114-.176l-.449-.641a1.948 1.948 0 0 0-.183-.231s-.377-.319-.715-.487c0 0-.339-.117-.456-.137-.333-.049-.549-.01-.721.017-.341.055-.571.16-.79.246.035-.233.087-.48.065-.825-.011-.175-.017-.373-.183-.797 0 0-.177-.322-.415-.614l-.41-.3a1.745 1.745 0 0 0-.201-.103l-.728-.328a1.962 1.962 0 0 0-.263-.096s-.51-.083-.887-.058c0 0-.317.07-.427.11-.312.125-.483.274-.618.384-.253.205-.428.36-.57.535-.079-.202-.15-.422-.327-.687-.098-.146-.242-.31-.601-.593 0 0-.312-.172-.663-.303l-.48-.072c-.083-.002-.169-.013-.252-.004l-.807.09zm1.299 7.967a3.34 3.34 0 0 1 3.694 2.952 3.34 3.34 0 0 1-2.951 3.694 3.34 3.34 0 0 1-3.695-2.951 3.34 3.34 0 0 1 2.952-3.695z"/><use xlink:href="#b" width="100%" height="100%" fill="#737373"/><mask id="c" width="20.974" height="20.974" x="83.527" y="33.612" maskUnits="userSpaceOnUse"><path fill="#fff" d="M83.527 33.612h20.974v20.974H83.527Z"/><use xlink:href="#b" width="100%" height="100%" fill-rule="evenodd"/></mask><use xlink:href="#b" width="100%" height="100%" fill="none" stroke="#fff" stroke-linecap="round" stroke-width="2" mask="url(#c)"/><path fill="#a6a6a6" d="m92.744 39.462 1.456-.163.488 4.368-1.456.163z"/><path fill="#a6a6a6" d="m98.644 45.305-.587 1.342-4.027-1.761.587-1.343z"/><path fill="#a6a6a6" d="m89.765 46.297.869 1.18 3.539-2.607-.87-1.18z"/><path fill="#a6a6a6" d="M91.778 44.35a2.25 2.25 0 1 1 4.472-.5 2.25 2.25 0 0 1-4.472.5z"/><path fill="none" stroke="#a6a6a6" stroke-linecap="round" stroke-width="1.1" d="M89.294 44.627a4.75 4.75 0 1 1 9.441-1.055 4.75 4.75 0 0 1-9.441 1.055z"/><path fill-opacity=".15" d="M90.313 15.125c-.084 0-.168.02-.25.031 0 0-.478.112-.813.281 0 0-.288.2-.375.282a2.28 2.28 0 0 0-.438.594 3.448 3.448 0 0 0-.28.75c-.153-.155-.297-.325-.563-.5-.147-.098-.335-.222-.781-.344 0 0-.338-.05-.72-.032l-.5.157a1.976 1.976 0 0 0-.25.125l-.687.406a1.822 1.822 0 0 0-.187.125s-.36.35-.563.656c0 0-.121.296-.156.407a2.3 2.3 0 0 0-.094.718c.008.344.07.584.125.813.003.01-.002.02 0 .031-.22-.058-.448-.14-.781-.156-.175-.009-.373-.025-.813.093 0 0-.339.14-.656.344l-.344.375c-.047.062-.085.12-.124.188l-.407.687a2.01 2.01 0 0 0-.125.25s-.139.498-.156.875c0 0 .035.323.063.438.089.323.218.51.312.656.176.274.31.465.469.625-.21.057-.436.104-.719.25-.156.081-.335.205-.656.531 0 0-.206.29-.375.625l-.125.469c-.011.082-.031.167-.031.25v.813c0 .083.02.167.03.25 0 0 .113.477.282.812 0 0 .2.288.281.375.24.24.438.357.594.438.283.146.51.193.719.25-.158.16-.293.35-.469.625-.094.146-.227.312-.344.75 0 0-.048.341-.031.718l.156.5c.035.085.078.171.125.25l.406.688a1.8 1.8 0 0 0 .126.187s.339.358.656.563c0 0 .323.154.437.187.326.085.545.071.719.063.332-.016.562-.098.781-.157-.002.01.003.021 0 .032-.055.23-.117.468-.125.812-.004.175 0 .385.125.813 0 0 .142.32.344.625l.344.343c.06.047.121.087.187.126l.688.406c.078.046.166.09.25.125 0 0 .493.138.875.156 0 0 .351-.033.469-.063.328-.093.51-.215.656-.312.266-.176.41-.345.562-.5.06.22.127.453.281.75.082.156.206.335.532.656 0 0 .29.206.625.375l.469.125c.082.011.166.032.25.032h.812c.083 0 .168-.02.25-.032 0 0 .478-.111.813-.281 0 0 .287-.2.374-.281.24-.24.357-.438.438-.594.147-.283.193-.51.25-.719.16.159.35.293.625.469.147.094.313.227.75.344 0 0 .342.048.719.031l.5-.156a2.01 2.01 0 0 0 .25-.125l.687-.407a1.85 1.85 0 0 0 .188-.124s.358-.34.562-.657c0 0 .154-.323.188-.437.085-.326.07-.545.062-.719-.016-.345-.095-.586-.156-.813.228.061.467.14.813.157.175.008.372.025.812-.094 0 0 .34-.14.656-.344l.344-.375c.061-.079.108-.162.156-.25l.375-.687a1.91 1.91 0 0 0 .094-.188s.134-.477.156-.843c0 0-.037-.324-.062-.438a2.21 2.21 0 0 0-.281-.656 3.724 3.724 0 0 0-.5-.657c.21-.056.435-.107.718-.25.157-.078.362-.178.688-.5 0 0 .198-.286.375-.625l.125-.5c.011-.084.031-.164.031-.25v-.812c0-.086-.02-.165-.031-.25 0 0-.136-.506-.313-.844 0 0-.198-.289-.281-.375-.243-.235-.438-.328-.594-.406-.283-.142-.508-.194-.718-.25.163-.17.32-.363.5-.656.091-.15.205-.316.312-.75 0 0 .022-.352 0-.719l-.125-.469a1.917 1.917 0 0 0-.094-.187l-.375-.688a1.867 1.867 0 0 0-.156-.25s-.34-.358-.656-.562c0 0-.324-.154-.438-.188-.326-.085-.544-.07-.719-.062-.345.016-.585.095-.812.156.06-.228.14-.467.156-.813.009-.175.025-.372-.094-.812 0 0-.139-.34-.343-.656L96.969 17a1.762 1.762 0 0 0-.188-.125l-.687-.406a1.95 1.95 0 0 0-.25-.125s-.498-.14-.875-.157c0 0-.323.035-.438.063-.323.09-.51.219-.656.313-.274.176-.465.31-.625.468-.057-.209-.103-.436-.25-.718-.081-.157-.205-.336-.531-.657 0 0-.29-.205-.625-.375l-.469-.125c-.082-.01-.167-.031-.25-.031h-.813zm.406 8.063a3.34 3.34 0 0 1 3.344 3.343 3.34 3.34 0 0 1-3.344 3.344 3.34 3.34 0 0 1-3.344-3.344 3.34 3.34 0 0 1 3.344-3.343z"/><use xlink:href="#d" width="100%" height="100%" fill="#737373"/><mask id="e" width="21" height="21" x="80.219" y="16.031" maskUnits="userSpaceOnUse"><path fill="#fff" d="M80.219 16.031h21v21h-21z"/><use xlink:href="#d" width="100%" height="100%" fill-rule="evenodd"/></mask><use xlink:href="#d" width="100%" height="100%" fill="none" stroke="#fff" stroke-linecap="round" stroke-width="2" mask="url(#e)"/><path fill="#a6a6a6" d="M89.972 21.781h1.465v4.396h-1.465V21.78Z"/><path fill="#a6a6a6" d="m95.186 28.243-.733 1.27-3.806-2.199.732-1.268z"/><path fill="#a6a6a6" d="m86.251 28.243.733 1.27 3.807-2.199-.733-1.268z"/><path fill="#a6a6a6" d="M88.469 26.531a2.25 2.25 0 1 1 4.5 0 2.25 2.25 0 0 1-4.5 0z"/><path fill="none" stroke="#a6a6a6" stroke-linecap="round" stroke-width="1.1" d="M85.969 26.531a4.75 4.75 0 1 1 9.5 0 4.75 4.75 0 0 1-9.5 0z"/><path fill="none" stroke="#000" stroke-linecap="round" stroke-opacity=".15" stroke-width="2" d="M68.778 14.601a5.742 5.742 0 0 0-4.688 4.281c-.776 3.098 1.15 6.2 4.22 6.97.095.023.09.013.25.062.266.081.648.236 1.093.406 1.19.454 2.363 1.005 3.375 1.656 1.82 1.171 2.906 2.44 3.406 3.688.628 1.566.4 3.456-.843 5.687-.284.51-.582.983-.875 1.375-.019.024-.019.014-.032.031-.043.032-.032.032-.156.125-.436.328-.904.643-1.375.907-2.247 1.257-4.08 1.465-5.594.843-1.225-.503-2.497-1.635-3.687-3.468a18.674 18.674 0 0 1-1.719-3.375c-.166-.43-.314-.8-.406-1.094-.038-.12.008-.008-.063-.281-.798-3.098-3.973-4.913-7.031-4.125a5.743 5.743 0 0 0-4.125 7c.165.639.471 1.535.906 2.656.717 1.845 1.627 3.721 2.782 5.5 2.252 3.47 5.193 6.26 8.968 7.812 5.091 2.093 10.19 1.244 14.719-1.062l13 12.969a5.745 5.745 0 0 0 8.125 0 5.707 5.707 0 0 0 0-8.094c-3.246-3.254-9.317-9.31-13-13 2.29-4.513 3.134-9.594 1.094-14.688-1.538-3.839-4.365-6.803-7.875-9.062a29.976 29.976 0 0 0-5.5-2.781 23.354 23.354 0 0 0-2.656-.844 5.857 5.857 0 0 0-2.313-.094z"/><path fill="#70a63a" stroke="#fff" stroke-linecap="round" stroke-width="2" d="M69.101 16.575a3.737 3.737 0 0 0-3.062 2.782c-.504 2.009.741 4.058 2.75 4.562.039.01.144.033.344.094.362.11.772.267 1.218.437 1.28.489 2.58 1.09 3.75 1.844 2.052 1.32 3.486 2.873 4.188 4.625.92 2.298.484 4.853-.938 7.406a14.28 14.28 0 0 1-1.03 1.594 6.39 6.39 0 0 1-.22.281c-.078.066-.18.135-.375.282-.467.35-1.001.73-1.593 1.062-2.56 1.432-5.084 1.867-7.344.938-1.74-.716-3.268-2.177-4.594-4.22a20.705 20.705 0 0 1-1.906-3.75 19.94 19.94 0 0 1-.438-1.218c-.063-.2-.083-.335-.093-.375-.517-2.005-2.589-3.204-4.594-2.687a3.74 3.74 0 0 0-2.688 4.562c.14.539.404 1.383.813 2.438.674 1.736 1.526 3.48 2.594 5.125 2.09 3.219 4.741 5.697 8.062 7.062 4.725 1.942 9.476 1.1 13.844-1.344.18-.1.324-.208.5-.312l14.031 14a3.723 3.723 0 0 0 5.281 0 3.723 3.723 0 0 0 0-5.281l-14-14.032c.105-.175.212-.319.313-.5 2.418-4.342 3.24-9.08 1.344-13.812-1.352-3.374-3.837-6.029-7.094-8.125a27.962 27.962 0 0 0-5.125-2.594 21.855 21.855 0 0 0-2.438-.781 3.796 3.796 0 0 0-1.5-.063z"/></svg>