<svg width="1280" height="640" viewBox="0 0 1280 640" fill="none" xmlns="http://www.w3.org/2000/svg">
<g clip-path="url(#clip0_1_1375)">
<rect width="1280" height="640" fill="#C24141"/>
<g clip-path="url(#clip1_1_1375)">
<mask id="mask0_1_1375" style="mask-type:luminance" maskUnits="userSpaceOnUse" x="-131" y="-258" width="1542" height="1156">
<path d="M-131 898V-258H1411V898H-131Z" fill="white"/>
</mask>
<g mask="url(#mask0_1_1375)">
<path d="M-2.5 641.111V-1.11111H1282.5C1282.5 -1.11111 1282.5 280.504 1282.5 397.067C1282.5 488.321 1282.5 641.111 1282.5 641.111H-2.5Z" fill="#0FBD8C"/>
<path opacity="0.1" fill-rule="evenodd" clip-rule="evenodd" d="M806.555 -14.3477C791.781 34.0409 642.321 60.4976 639.617 102.7C636.909 144.906 791.411 51.3076 802.463 76.1044C813.514 100.903 642.9 226.166 552.603 262.782C498.191 284.845 455.267 253.665 517.915 205.405C559.828 173.12 540.102 145.377 501.536 164.353C462.971 183.333 442.452 134.387 495.731 92.556C549.01 50.7266 823.268 -69.1092 806.555 -14.3477ZM401.062 110.247C359.688 171.95 280.592 133.458 330.725 68.753C375.086 11.5098 517.571 -47.8175 524.533 -15.9569C529.646 7.44089 449.74 37.6473 401.062 110.247ZM60.8103 -14.2875C128.163 -79.5998 185.057 -143.254 225.121 -141.285C266.749 -139.238 229.567 -59.6058 158.886 1.48176C108.808 44.7627 157.713 66.7252 205.736 40.883C263.772 9.65498 309.01 30.5501 234.109 99.0235C159.209 167.501 45.4788 217.889 -16.5568 204.97C-78.5895 192.05 70.5779 152.59 76.4975 100.321C82.3119 48.9616 -8.15445 152.645 -55.3241 118.154C-101.107 84.679 -1.74628 46.3681 60.8103 -14.2875ZM815.654 179.893C808.048 142.704 900.881 25.5323 1014.72 -5.35936C1129.16 -36.4096 1236.75 -48.4845 1241.36 -21.6284C1245.95 5.071 1173.37 25.2399 1083.2 68.4501C1039.61 89.3395 1085.73 106.944 1114.11 95.6598C1207.97 58.3408 1200.64 115.37 1121.39 155.578C1059.47 186.999 1007.09 203.48 976.055 211.041C931.051 222.007 921.67 192.951 947.365 176.555C997.52 144.549 973.403 115.006 928.505 139.841C900.069 155.571 827.96 240.041 815.654 179.893ZM773.768 211.85C800.382 201.202 807.286 220.718 807.286 236.486C807.286 252.258 780.669 258.169 765.879 249.299C751.09 240.431 755.234 219.263 773.768 211.85ZM24.8193 279.115C34.9702 255.633 148.761 251.88 233.377 176.029C263.82 148.738 301.137 182.074 292.28 207.656C283.426 233.237 256.367 239.98 214.015 256.438C171.666 272.899 225.518 294.839 295.393 261.88C335.363 243.031 378.19 274.807 329.928 307.531C289.589 334.88 196.641 342.721 199.18 366.182C200.585 379.211 268.058 347.868 280.319 375.956C290.512 399.299 266.358 426.125 198.865 431.572C130.104 437.121 76.6265 422.984 75.8263 389.219C74.9201 350.994 155.593 340.635 119.346 328.817C82.8961 316.941 6.92946 320.511 24.8193 279.115ZM433.225 197.313C446.815 206.759 447.238 218.805 432.793 235.515C414.068 257.185 382.816 256.178 373.637 248.253C364.459 240.328 385.209 219.805 393.13 207.981C401.054 196.16 415.73 185.154 433.225 197.313ZM432.391 327.496C512.961 308.244 558.296 340.52 540.25 362.574C520.757 386.387 474.099 386.333 470.433 432.957C463.581 520.196 377.73 535.633 414.361 474.728C427.193 453.39 408.351 439.868 397.306 467.15C390.637 483.615 359.008 506.21 342.294 514.565C266.438 552.475 205.956 497.395 260.211 482.087C295.516 472.128 327.233 448.174 347.492 393.319C358.286 364.087 397.001 335.953 432.391 327.496ZM192.327 504.282C222.867 543.309 128.519 545.489 93.6761 557.213C58.8314 568.938 130.635 574.89 193.802 574.234C256.975 573.577 247.416 622.071 175.616 645.827C65.3026 682.32 -33.0337 644.422 51.4959 620.209C83.0204 611.172 60.6124 585.109 25.6196 588.869C-40.4599 595.969 -89.4364 563.368 -78.3161 537.899C-65.7665 509.156 -34.7124 528.506 -3.30839 530.654C28.0966 532.804 0.913345 502.036 -39.7515 480.851C-109.601 444.462 -51.1663 382.568 8.81193 438.522C94.2669 518.244 169.461 475.06 192.327 504.282ZM509.168 598.896C464.075 690.937 371.493 681.894 384.491 650.476C397.486 619.059 344.024 644.654 319.259 638.925C294.499 633.203 279.814 590.175 371.763 581.893C485.047 571.683 487.695 459.987 525.527 483.31C551.54 499.343 525.885 564.777 509.168 598.896ZM1185.47 182.365C1260.99 169.39 1277.72 195.385 1246.27 216.19C1226.78 229.097 1150.84 270.253 1206.3 274.285C1261.77 278.318 1220.43 331.025 1155.3 380.094C1090.17 429.163 947.872 455.671 954.09 414.29C960.312 372.909 1127.87 353.053 1097.7 309.381C1084.6 290.413 1020.5 369.085 992.048 323.818C963.591 278.552 1138.12 190.494 1185.47 182.365ZM693.905 259.912C718.012 239.513 767.313 268.971 722.968 309.396C712.704 318.755 686.321 327.715 702.082 336.951C749.703 364.85 894.84 219.926 918.851 267.473C930.395 290.335 872.51 341.464 809.327 373.405C762.684 396.983 779.691 440.18 848.919 397.619C918.152 355.057 930.367 405.226 892.016 438.152C853.668 471.074 608.657 585.104 591.964 524.165C578.971 476.77 715.86 485.452 698.826 454.831C686.321 432.361 591.118 492.023 557.419 453.277C524.805 415.786 646.888 390.945 639.071 368.466C632.898 350.728 574.48 375.722 573.349 332.297C572.474 298.641 635.562 309.269 693.905 259.912ZM1032.6 562.88C1047.25 485.819 1183.05 413.979 1235.15 394.662C1317.13 364.28 1402.78 374.409 1354.43 399.267C1306.07 424.13 1178.97 506.456 1244.39 512.107C1276.59 514.887 1312.98 538.764 1244.39 595.394C1200.85 631.344 1049.09 681.024 1040.81 649.258C1032.52 617.493 1214.88 562.247 1158.24 556.72C1101.6 551.196 1025.75 598.916 1032.6 562.88ZM832.634 535.22C876.881 513.112 917.799 486.337 964.903 476.231C1026.33 463.053 965.744 546.134 906.773 573.088C880.362 585.159 911.987 601.247 937.402 588.913C1006.46 555.402 1036.5 581.147 965.183 628.558C947.452 640.346 892.667 668.255 826.146 676.781C758.994 685.392 760.739 660.68 781.519 651.416C811.403 638.097 831.873 609.22 751.752 633.61C608.529 677.207 523.689 669.947 556.293 633.61C586.746 599.677 689.411 606.777 832.634 535.22Z" fill="white" fill-opacity="0.73333"/>
<path opacity="0.1" fill-rule="evenodd" clip-rule="evenodd" d="M806.555 -14.3477C791.781 34.0409 642.321 60.4976 639.617 102.7C636.909 144.906 791.411 51.3076 802.463 76.1044C813.514 100.903 642.9 226.166 552.603 262.782C498.191 284.845 455.267 253.665 517.915 205.405C559.828 173.12 540.102 145.377 501.536 164.353C462.971 183.333 442.452 134.387 495.731 92.556C549.01 50.7266 823.268 -69.1092 806.555 -14.3477ZM401.062 110.247C359.688 171.95 280.592 133.458 330.725 68.753C375.086 11.5098 517.571 -47.8175 524.533 -15.9569C529.646 7.44089 449.74 37.6473 401.062 110.247ZM60.8103 -14.2875C128.163 -79.5998 185.057 -143.254 225.121 -141.285C266.749 -139.238 229.567 -59.6058 158.886 1.48176C108.808 44.7627 157.713 66.7252 205.736 40.883C263.772 9.65498 309.01 30.5501 234.109 99.0235C159.209 167.501 45.4788 217.889 -16.5568 204.97C-78.5895 192.05 70.5779 152.59 76.4975 100.321C82.3119 48.9616 -8.15445 152.645 -55.3241 118.154C-101.107 84.679 -1.74628 46.3681 60.8103 -14.2875ZM815.654 179.893C808.048 142.704 900.881 25.5323 1014.72 -5.35936C1129.16 -36.4096 1236.75 -48.4845 1241.36 -21.6284C1245.95 5.071 1173.37 25.2399 1083.2 68.4501C1039.61 89.3395 1085.73 106.944 1114.11 95.6598C1207.97 58.3408 1200.64 115.37 1121.39 155.578C1059.47 186.999 1007.09 203.48 976.055 211.041C931.051 222.007 921.67 192.951 947.365 176.555C997.52 144.549 973.403 115.006 928.505 139.841C900.069 155.571 827.96 240.041 815.654 179.893ZM773.768 211.85C800.382 201.202 807.286 220.718 807.286 236.486C807.286 252.258 780.669 258.169 765.879 249.299C751.09 240.431 755.234 219.263 773.768 211.85ZM24.8193 279.115C34.9702 255.633 148.761 251.88 233.377 176.029C263.82 148.738 301.137 182.074 292.28 207.656C283.426 233.237 256.367 239.98 214.015 256.438C171.666 272.899 225.518 294.839 295.393 261.88C335.363 243.031 378.19 274.807 329.928 307.531C289.589 334.88 196.641 342.721 199.18 366.182C200.585 379.211 268.058 347.868 280.319 375.956C290.512 399.299 266.358 426.125 198.865 431.572C130.104 437.121 76.6265 422.984 75.8263 389.219C74.9201 350.994 155.593 340.635 119.346 328.817C82.8961 316.941 6.92946 320.511 24.8193 279.115ZM433.225 197.313C446.815 206.759 447.238 218.805 432.793 235.515C414.068 257.185 382.816 256.178 373.637 248.253C364.459 240.328 385.209 219.805 393.13 207.981C401.054 196.16 415.73 185.154 433.225 197.313ZM432.391 327.496C512.961 308.244 558.296 340.52 540.25 362.574C520.757 386.387 474.099 386.333 470.433 432.957C463.581 520.196 377.73 535.633 414.361 474.728C427.193 453.39 408.351 439.868 397.306 467.15C390.637 483.615 359.008 506.21 342.294 514.565C266.438 552.475 205.956 497.395 260.211 482.087C295.516 472.128 327.233 448.174 347.492 393.319C358.286 364.087 397.001 335.953 432.391 327.496ZM192.327 504.282C222.867 543.309 128.519 545.489 93.6761 557.213C58.8314 568.938 130.635 574.89 193.802 574.234C256.975 573.577 247.416 622.071 175.616 645.827C65.3026 682.32 -33.0337 644.422 51.4959 620.209C83.0204 611.172 60.6124 585.109 25.6196 588.869C-40.4599 595.969 -89.4364 563.368 -78.3161 537.899C-65.7665 509.156 -34.7124 528.506 -3.30839 530.654C28.0966 532.804 0.913345 502.036 -39.7515 480.851C-109.601 444.462 -51.1663 382.568 8.81193 438.522C94.2669 518.244 169.461 475.06 192.327 504.282ZM509.168 598.896C464.075 690.937 371.493 681.894 384.491 650.476C397.486 619.059 344.024 644.654 319.259 638.925C294.499 633.203 279.814 590.175 371.763 581.893C485.047 571.683 487.695 459.987 525.527 483.31C551.54 499.343 525.885 564.777 509.168 598.896ZM1185.47 182.365C1260.99 169.39 1277.72 195.385 1246.27 216.19C1226.78 229.097 1150.84 270.253 1206.3 274.285C1261.77 278.318 1220.43 331.025 1155.3 380.094C1090.17 429.163 947.872 455.671 954.09 414.29C960.312 372.909 1127.87 353.053 1097.7 309.381C1084.6 290.413 1020.5 369.085 992.048 323.818C963.591 278.552 1138.12 190.494 1185.47 182.365ZM693.905 259.912C718.012 239.513 767.313 268.971 722.968 309.396C712.704 318.755 686.321 327.715 702.082 336.951C749.703 364.85 894.84 219.926 918.851 267.473C930.395 290.335 872.51 341.464 809.327 373.405C762.684 396.983 779.691 440.18 848.919 397.619C918.152 355.057 930.367 405.226 892.016 438.152C853.668 471.074 608.657 585.104 591.964 524.165C578.971 476.77 715.86 485.452 698.826 454.831C686.321 432.361 591.118 492.023 557.419 453.277C524.805 415.786 646.888 390.945 639.071 368.466C632.898 350.728 574.48 375.722 573.349 332.297C572.474 298.641 635.562 309.269 693.905 259.912ZM1032.6 562.88C1047.25 485.819 1183.05 413.979 1235.15 394.662C1317.13 364.28 1402.78 374.409 1354.43 399.267C1306.07 424.13 1178.97 506.456 1244.39 512.107C1276.59 514.887 1312.98 538.764 1244.39 595.394C1200.85 631.344 1049.09 681.024 1040.81 649.258C1032.52 617.493 1214.88 562.247 1158.24 556.72C1101.6 551.196 1025.75 598.916 1032.6 562.88ZM832.634 535.22C876.881 513.112 917.799 486.337 964.903 476.231C1026.33 463.053 965.744 546.134 906.773 573.088C880.362 585.159 911.987 601.247 937.402 588.913C1006.46 555.402 1036.5 581.147 965.183 628.558C947.452 640.346 892.667 668.255 826.146 676.781C758.994 685.392 760.739 660.68 781.519 651.416C811.403 638.097 831.873 609.22 751.752 633.61C608.529 677.207 523.689 669.947 556.293 633.61C586.746 599.677 689.411 606.777 832.634 535.22Z" fill="white" fill-opacity="0.54118"/>
<path fill-rule="evenodd" clip-rule="evenodd" d="M1013.57 311.412C1022.2 307.206 1027.93 298.719 1028.61 289.143L1030.16 267.37C1030.91 257.075 1044.79 254.385 1049.32 263.659L1058.91 283.271C1063.12 291.9 1071.61 297.632 1081.18 298.312L1102.96 299.864C1113.26 300.611 1115.95 314.489 1106.68 319.028L1087.05 328.603C1078.43 332.806 1072.7 341.294 1072.02 350.854L1070.45 372.63C1069.72 382.922 1055.84 385.612 1051.3 376.341L1041.72 356.726C1037.51 348.112 1029.02 342.381 1019.44 341.704L997.658 340.151C987.359 339.405 984.667 325.526 993.942 320.987L1013.57 311.412Z" fill="white" stroke="black" stroke-opacity="0.12941" stroke-width="10" stroke-miterlimit="10"/>
<path fill-rule="evenodd" clip-rule="evenodd" d="M1013.57 311.412C1022.2 307.206 1027.93 298.719 1028.61 289.143L1030.16 267.37C1030.91 257.075 1044.79 254.385 1049.32 263.659L1058.91 283.271C1063.12 291.9 1071.61 297.632 1081.18 298.312L1102.96 299.864C1113.26 300.611 1115.95 314.489 1106.68 319.028L1087.05 328.603C1078.43 332.806 1072.7 341.294 1072.02 350.854L1070.45 372.63C1069.72 382.922 1055.84 385.612 1051.3 376.341L1041.72 356.726C1037.51 348.112 1029.02 342.381 1019.44 341.704L997.658 340.151C987.359 339.405 984.667 325.526 993.942 320.987L1013.57 311.412Z" fill="white"/>
<path fill-rule="evenodd" clip-rule="evenodd" d="M300.604 138.711C310.284 134.754 317.117 125.941 318.535 115.584L321.772 92.0391C323.316 80.9066 338.593 78.9711 342.85 89.3686L351.879 111.36C355.837 121.035 364.654 127.866 374.998 129.285L398.554 132.521C409.691 134.065 411.627 149.335 401.227 153.607L379.224 162.615C369.562 166.569 362.728 175.382 361.308 185.722L358.054 209.269C356.527 220.399 341.25 222.335 336.976 211.94L327.964 189.946C324.009 180.288 315.191 173.457 304.83 172.04L281.275 168.804C270.138 167.261 268.201 151.99 278.601 147.718L300.604 138.711Z" fill="white" stroke="black" stroke-opacity="0.12941" stroke-width="10" stroke-miterlimit="10"/>
<path fill-rule="evenodd" clip-rule="evenodd" d="M300.604 138.711C310.284 134.754 317.117 125.941 318.535 115.584L321.772 92.0391C323.316 80.9066 338.593 78.9711 342.85 89.3686L351.879 111.36C355.837 121.035 364.654 127.866 374.998 129.285L398.554 132.521C409.691 134.065 411.627 149.335 401.227 153.607L379.224 162.615C369.562 166.569 362.728 175.382 361.308 185.722L358.054 209.269C356.527 220.399 341.25 222.335 336.976 211.94L327.964 189.946C324.009 180.288 315.191 173.457 304.83 172.04L281.275 168.804C270.138 167.261 268.201 151.99 278.601 147.718L300.604 138.711Z" fill="white"/>
<path fill-rule="evenodd" clip-rule="evenodd" d="M252.841 355.19C258.672 354.904 263.907 351.533 266.578 346.344L272.658 334.549C275.54 328.975 283.943 330.793 284.252 337.057L284.918 350.311C285.204 356.14 288.577 361.373 293.758 364.041L305.558 370.118C311.135 372.999 309.317 381.398 303.048 381.716L289.79 382.373C283.968 382.66 278.732 386.032 276.063 391.211L269.974 403.004C267.102 408.581 258.699 406.763 258.381 400.497L257.724 387.244C257.436 381.425 254.063 376.192 248.872 373.522L237.072 367.445C231.495 364.564 233.313 356.165 239.583 355.847L252.841 355.19Z" fill="white" stroke="black" stroke-opacity="0.12941" stroke-width="10" stroke-miterlimit="10"/>
<path fill-rule="evenodd" clip-rule="evenodd" d="M252.841 355.19C258.672 354.904 263.907 351.533 266.578 346.344L272.658 334.549C275.54 328.975 283.943 330.793 284.252 337.057L284.918 350.311C285.204 356.14 288.577 361.373 293.758 364.041L305.558 370.118C311.135 372.999 309.317 381.398 303.048 381.716L289.79 382.373C283.968 382.66 278.732 386.032 276.063 391.211L269.974 403.004C267.102 408.581 258.699 406.763 258.381 400.497L257.724 387.244C257.436 381.425 254.063 376.192 248.872 373.522L237.072 367.445C231.495 364.564 233.313 356.165 239.583 355.847L252.841 355.19Z" fill="white"/>
<path d="M874.099 114.718C882.391 114.719 889.112 121.437 889.113 129.725V429.873C889.112 433.853 887.53 437.67 884.715 440.484L867.016 458.174C866.743 455.221 866.092 452.277 865.833 449.319C865.17 441.734 864.905 426.143 859.085 417.683V165.778L799.03 225.925V350.418C797.226 348.849 794.936 347.824 792.416 347.596C792.046 347.585 791.687 347.573 791.35 347.548C786.949 347.225 782.522 347.674 778.111 347.548C774.908 347.457 771.887 346.913 769.002 346.644V234.777H498.753V337.477C495.081 338.949 492.328 342.227 491.595 346.212C491.468 346.902 491.402 347.615 491.402 348.342C490.587 352.522 488.523 355.995 486.091 359.556C481.607 366.121 474.045 369.485 468.725 374.931V219.77C468.726 215.79 470.308 211.973 473.123 209.159L563.207 119.115C566.022 116.3 569.84 114.719 573.822 114.718H874.099ZM519.983 204.762H777.799L837.679 144.733H580.039L519.983 204.762Z" fill="white"/>
<path d="M601.96 534.924C603.688 533.739 605.327 532.537 606.855 531.343C610.49 528.502 612.173 523.396 615.379 520.134C619.454 515.989 625.406 510.916 627.413 504.91H689.795C691.258 507.342 693.191 509.478 694.785 511.667C702.104 521.714 711.833 529.711 723.035 534.924H601.96Z" fill="white"/>
<path opacity="0.5" d="M584.632 118.594C587.505 121.466 589.091 125.38 589.028 129.441V414.581H676.451C676.336 415.065 676.25 415.559 676.197 416.064C675.811 417.319 674.819 418.299 674.123 419.413C669.196 427.292 667.425 435.378 667.874 444.596H609.705C609.099 441.985 606.801 439.592 605.869 437.343C602.39 428.949 593.907 421.021 588.03 414.663C585.086 411.478 579.426 407.884 576.896 404.18C575.312 401.86 573.769 398.196 572.088 396.235C570.782 394.713 568.809 393.332 567.927 391.614C567.897 391.555 567.868 391.495 567.841 391.434C567.898 390.966 567.927 390.491 567.927 390.008C567.927 388.298 567.56 386.673 566.901 385.209C566.792 384.841 566.65 384.488 566.464 384.157C566.209 383.704 565.902 383.302 565.553 382.942C563.952 380.833 561.653 379.284 559 378.638V129.441C558.938 125.461 560.46 121.619 563.231 118.761C566.003 115.902 569.797 114.262 573.779 114.2C577.843 114.136 581.758 115.721 584.632 118.594Z" fill="white"/>
<path opacity="0.5" d="M604.369 451.957C615.74 456.931 625.229 462.807 632.291 469.728C639.353 476.649 644.238 485.071 644.238 494.494C644.284 497.755 642.569 500.789 639.751 502.433C636.932 504.078 633.446 504.078 630.628 502.433C627.809 500.789 626.095 497.755 626.141 494.494C626.141 491.423 624.445 487.37 619.602 482.623C614.759 477.876 607.039 472.864 597.123 468.527C577.292 459.853 548.894 453.794 517.563 453.794C486.231 453.794 457.834 459.853 438.002 468.527C428.087 472.864 420.366 477.876 415.523 482.623C410.68 487.37 408.984 491.423 408.984 494.494C409.03 497.755 407.316 500.789 404.498 502.433C401.679 504.078 398.193 504.078 395.375 502.433C392.556 500.789 390.842 497.755 390.888 494.494C390.888 485.071 395.773 476.649 402.834 469.728C409.896 462.807 419.386 456.931 430.756 451.957C453.498 442.01 483.932 435.706 517.563 435.706C551.193 435.706 581.628 442.01 604.369 451.957Z" fill="white"/>
<path d="M526.611 309.086C529.617 309.089 532.425 310.585 534.105 313.078L638.159 466.831C638.311 467.06 638.452 467.296 638.583 467.537C642.486 474.647 644.238 482.379 644.238 489.971C644.238 511.993 628.018 530.351 605.04 542.718C582.063 555.085 551.361 562.326 517.563 562.326C483.765 562.326 453.063 555.085 430.085 542.718C407.107 530.351 390.888 511.993 390.888 489.971C390.888 482.372 392.661 474.639 396.508 467.573C396.649 467.318 396.802 467.071 396.967 466.831L501.022 313.078C502.701 310.586 505.509 309.09 508.515 309.086H526.611ZM412.377 476.299C410.101 480.523 408.984 485.22 408.984 489.971C408.984 502.915 419.079 516.238 438.674 526.784C458.269 537.331 486.398 544.237 517.563 544.237C548.727 544.237 576.857 537.331 596.452 526.784C616.047 516.238 626.141 502.915 626.141 489.971C626.141 485.117 625.09 480.624 622.783 476.37L521.804 327.174H513.321L412.377 476.299Z" fill="white"/>
<path opacity="0.5" d="M840.964 412.448C850.337 416.051 858.202 420.363 864.113 425.737C870.024 431.11 874.171 438.015 874.171 445.786C874.209 448.477 872.795 450.979 870.47 452.335C868.145 453.692 865.27 453.692 862.945 452.335C860.62 450.979 859.206 448.477 859.244 445.786C859.244 443.256 857.963 440.334 854.055 436.781C850.146 433.229 843.786 429.525 835.6 426.378C819.229 420.084 795.699 415.945 769.682 415.945C743.664 415.945 720.135 420.084 703.764 426.378C695.578 429.525 689.218 433.229 685.309 436.781C681.4 440.334 680.119 443.256 680.119 445.786C680.158 448.477 678.743 450.979 676.419 452.335C674.094 453.692 671.218 453.692 668.893 452.335C666.568 450.979 665.154 448.477 665.192 445.786C665.192 438.015 669.34 431.11 675.251 425.737C681.162 420.363 689.026 416.051 698.399 412.448C717.145 405.241 742.113 401.024 769.682 401.024C797.251 401.024 822.219 405.241 840.964 412.448Z" fill="white"/>
<path d="M770.613 341.397C827.495 341.902 873.621 388.017 874.111 444.879C874.121 444.929 874.131 444.978 874.141 445.028C874.141 445.283 874.171 445.531 874.171 445.786C874.171 503.076 827.786 549.679 770.589 550.171C770.539 550.181 770.489 550.191 770.439 550.201C770.184 550.201 769.936 550.23 769.681 550.23C712.061 550.231 665.192 503.381 665.192 445.786C665.19 445.465 665.21 445.143 665.25 444.824C665.774 387.675 712.386 341.342 769.681 341.342C769.992 341.341 770.304 341.359 770.613 341.397ZM760.672 361.45C757.118 365.357 753.413 371.714 750.264 379.896C743.967 396.261 739.827 419.78 739.827 445.786C739.827 455.625 740.586 464.917 741.664 473.791C750.541 474.868 759.838 475.627 769.681 475.627C795.699 475.627 819.228 471.489 835.599 465.195C843.785 462.047 850.145 458.344 854.054 454.791C857.963 451.238 859.243 448.316 859.243 445.786C859.243 396.254 819.234 356.263 769.681 356.263C767.15 356.263 764.227 357.543 760.672 361.45ZM680.119 445.786C680.119 448.316 681.4 451.238 685.308 454.791C689.216 458.344 695.577 462.047 703.762 465.195C710.185 467.664 717.955 469.657 726.299 471.343C725.466 463.128 724.9 454.662 724.9 445.786C724.9 418.229 729.118 393.272 736.328 374.534C738.388 369.182 740.767 364.482 743.355 360.197C706.694 371.405 680.119 405.416 680.119 445.786ZM743.355 531.376C740.767 527.091 738.388 522.39 736.328 517.038C732.969 508.306 730.335 498.118 728.398 487.051C717.326 485.115 707.134 482.483 698.399 479.124C693.044 477.066 688.341 474.688 684.055 472.101C692.723 500.43 715.014 522.711 743.355 531.376ZM855.308 472.1C851.021 474.687 846.318 477.065 840.964 479.124C822.218 486.33 797.25 490.547 769.681 490.547C760.802 490.547 752.332 489.983 744.113 489.149C745.799 497.489 747.794 505.256 750.264 511.676C753.413 519.858 757.118 526.216 760.672 530.123C764.227 534.03 767.15 535.31 769.681 535.31C810.069 535.31 844.094 508.745 855.308 472.1Z" fill="white"/>
</g>
</g>
</g>
<defs>
<clipPath id="clip0_1_1375">
<rect width="1280" height="640" fill="white"/>
</clipPath>
<clipPath id="clip1_1_1375">
<rect width="1542" height="1156" fill="white" transform="translate(-131 -258)"/>
</clipPath>
</defs>
</svg>
