<svg xmlns="http://www.w3.org/2000/svg" width="600" height="300" viewBox="0 0 600.00001 299.99999"><path fill="gray" d="M1e-7 300V4.3e-7H600V300Z" style="fill-rule:nonzero;stroke-linecap:butt;stroke-linejoin:miter;stroke-miterlimit:10;stroke-dasharray:none;stroke-dashoffset:0"/><g aria-label="Consoles" style="font-size:60.6841px;font-family:&quot;Sans Serif&quot;;fill:#fff;stroke-width:1.51711;stroke-miterlimit:10"><path d="M187.59125 202.16435q-5.27951 0-8.07098 3.94447-2.79147 3.94447-2.79147 10.80177 0 6.91799 2.54873 10.74109 2.60942 3.76241 8.31372 3.76241 2.6701 0 5.27952-.60684 2.6701-.60684 5.76499-1.69916v7.70688q-2.85215 1.153-5.64362 1.69916-2.79147.54616-6.25046.54616-6.67526 0-11.04451-2.73079-4.30857-2.79147-6.37183-7.76756-2.06326-5.03678-2.06326-11.71203 0-6.55389 2.36668-11.59067 2.36668-5.03678 6.8573-7.88893 4.55131-2.85215 11.10519-2.85215 3.21626 0 6.43252.84957 3.27694.7889 6.25046 2.18463l-2.97352 7.46415q-2.42737-1.153-4.91541-2.00258-2.42737-.84958-4.79405-.84958zM237.23079 221.826q0 8.25304-4.36925 12.74366-4.30857 4.49063-11.77272 4.49063-4.61199 0-8.25303-2.00258-3.58037-2.00257-5.64363-5.82567-2.06325-3.88379-2.06325-9.40604 0-8.25304 4.30857-12.68298 4.30857-4.42993 11.8334-4.42993 4.67267 0 8.25303 2.00257 3.58037 2.00258 5.64363 5.82567 2.06325 3.76242 2.06325 9.28467zm-22.8779 0q0 4.91541 1.57779 7.46415 1.63847 2.48804 5.27951 2.48804 3.58036 0 5.15815-2.48804 1.63847-2.54874 1.63847-7.46415t-1.63847-7.34277q-1.57779-2.48805-5.21883-2.48805-3.58036 0-5.21883 2.48805-1.57779 2.42736-1.57779 7.34277zM263.50698 204.71309q5.3402 0 8.55646 2.91283 3.21625 2.85215 3.21625 9.22399v21.60354h-9.04193v-19.35823q0-3.58036-1.27436-5.3402-1.27437-1.82053-4.06584-1.82053-4.12652 0-5.64362 2.85216-1.5171 2.79146-1.5171 8.07098v15.59582h-9.04193v-33.13352h6.91799l1.21368 4.24788h.48547q1.57779-2.54873 4.30857-3.70173 2.79147-1.15299 5.88636-1.15299zM307.68498 228.62262q0 5.03678-3.58036 7.76757-3.51968 2.6701-10.55903 2.6701-3.459 0-5.94705-.48548-2.48804-.42479-4.97609-1.45641v-7.46415q2.6701 1.21368 5.76499 2.00258 3.09489.78889 5.46157.78889 2.6701 0 3.76241-.78889 1.153-.7889 1.153-2.06326 0-.84958-.48547-1.51711-.42479-.66752-1.9419-1.5171-1.5171-.84958-4.73336-2.18463-3.09489-1.33505-5.09746-2.60941-2.00258-1.33505-2.97352-3.15558-.97095-1.8812-.97095-4.67267 0-4.61199 3.58036-6.91799 3.58037-2.30599 9.52741-2.30599 3.09489 0 5.88636.60684t5.76499 2.00257l-2.73079 6.4932q-2.42736-1.03163-4.61199-1.69915-2.18463-.72821-4.42994-.72821-4.00515 0-4.00515 2.18462 0 .7889.48547 1.45642.54616.60684 2.00258 1.33505 1.5171.72821 4.42994 1.94189 2.85215 1.153 4.91541 2.42737 2.06326 1.21368 3.15557 3.09489 1.153 1.82052 1.153 4.79404zM344.82364 221.826q0 8.25304-4.36925 12.74366-4.30858 4.49063-11.77272 4.49063-4.61199 0-8.25304-2.00258-3.58036-2.00257-5.64362-5.82567-2.06326-3.88379-2.06326-9.40604 0-8.25304 4.30857-12.68298 4.30857-4.42993 11.8334-4.42993 4.67268 0 8.25304 2.00257 3.58036 2.00258 5.64362 5.82567 2.06326 3.76242 2.06326 9.28467zm-22.87791 0q0 4.91541 1.57779 7.46415 1.63847 2.48804 5.27952 2.48804 3.58036 0 5.15815-2.48804 1.63847-2.54874 1.63847-7.46415t-1.63847-7.34277q-1.57779-2.48805-5.21884-2.48805-3.58036 0-5.21883 2.48805-1.57779 2.42736-1.57779 7.34277zM361.32967 238.45345h-9.04193v-46.11992h9.04193zM384.45023 204.71309q6.8573 0 10.86245 3.94446 4.00515 3.88378 4.00515 11.10519v4.36926h-21.3608q.12136 3.8231 2.24531 6.00772 2.18463 2.18463 6.00772 2.18463 3.21626 0 5.82568-.60684 2.60941-.66752 5.40088-2.00258v6.97868q-2.42736 1.21368-5.15815 1.75984-2.6701.60684-6.49319.60684-4.9761 0-8.7992-1.82053-3.8231-1.8812-6.00773-5.64362-2.18462-3.76241-2.18462-9.46672 0-5.82567 1.94189-9.64877 2.00257-3.88378 5.52225-5.82567 3.51968-1.94189 8.19236-1.94189zm.0607 6.43251q-2.60942 0-4.36926 1.69915-1.69915 1.69916-2.00257 5.27952h12.68298q-.0607-3.0342-1.57779-4.97609-1.5171-2.00258-4.73336-2.00258zM429.78122 228.62262q0 5.03678-3.58036 7.76757-3.51968 2.6701-10.55904 2.6701-3.45899 0-5.94704-.48548-2.48805-.42479-4.9761-1.45641v-7.46415q2.6701 1.21368 5.76499 2.00258 3.09489.78889 5.46157.78889 2.6701 0 3.76242-.78889 1.153-.7889 1.153-2.06326 0-.84958-.48548-1.51711-.42479-.66752-1.94189-1.5171-1.5171-.84958-4.73336-2.18463-3.09489-1.33505-5.09746-2.60941-2.00258-1.33505-2.97352-3.15558-.97095-1.8812-.97095-4.67267 0-4.61199 3.58036-6.91799 3.58036-2.30599 9.52741-2.30599 3.09489 0 5.88635.60684 2.79147.60684 5.76499 2.00257l-2.73078 6.4932q-2.42737-1.03163-4.61199-1.69915-2.18463-.72821-4.42994-.72821-4.00515 0-4.00515 2.18462 0 .7889.48547 1.45642.54616.60684 2.00258 1.33505 1.5171.72821 4.42993 1.94189 2.85216 1.153 4.91542 2.42737 2.06326 1.21368 3.15557 3.09489 1.153 1.82052 1.153 4.79404z" style="font-weight:700;font-family:&quot;Noto Sans&quot;;-inkscape-font-specification:&quot;Noto Sans&quot;" transform="translate(-112.23559 -81.095861) scale(1.3759714)"/></g><path fill="#fff" d="M367.26213 53.037991v81.105239c0 6.27206-5.08407 11.3547-11.35468 11.3547H233.27663c-6.27205 0-11.35469-5.08264-11.35469-11.3547V53.037991c0-6.272057 5.08264-11.354701 11.35469-11.354701h122.63082c6.27064 0 11.35468 5.082644 11.35468 11.354701zm-10.58115 6.808564c0-3.72718-3.02176-6.748959-6.74895-6.748959H239.25347c-3.72718 0-6.74897 3.021768-6.74897 6.748959v67.486685c0 3.72719 3.02176 6.74896 6.74897 6.74896h21.59237v-28.34419c0-3.72859 3.02178-6.74893 6.74898-6.74893 3.72858 0 6.74894 3.02175 6.74894 6.74893v28.34419h13.49792V81.441787c0-3.727174 3.02176-6.748954 6.74895-6.748954 3.72857 0 6.74894 3.021763 6.74894 6.748954V134.0822h13.49792V94.939712c0-3.727207 3.02175-6.748961 6.74895-6.748961 3.7286 0 6.74896 3.021754 6.74896 6.748961V134.0822h21.59664c3.72718 0 6.74896-3.02177 6.74896-6.74896zM330.92709 162.36677c0 3.58383-2.90538 6.48778-6.4878 6.48778h-59.69451c-3.58241 0-6.48778-2.90395-6.48778-6.48778 0-3.58242 2.90395-6.48779 6.48778-6.48779h59.69451c3.58242 0 6.4878 2.90537 6.4878 6.48779zm-6.4878-6.48779" style="fill-rule:nonzero;stroke-linecap:butt;stroke-linejoin:miter;stroke-miterlimit:10;stroke-dasharray:none;stroke-dashoffset:0"/></svg>