<svg xmlns="http://www.w3.org/2000/svg" width="600" height="300" viewBox="75.778 81.868 600 300"><path fill="gray" d="M75.778 381.868v-300h600v300z" style="mix-blend-mode:normal;fill-rule:nonzero;stroke:none;stroke-linecap:butt;stroke-linejoin:miter;stroke-miterlimit:10;stroke-dasharray:none;stroke-dashoffset:0"/><g stroke-width="0" data-paper-data="{&quot;index&quot;:null}" style="mix-blend-mode:normal;fill-rule:nonzero;stroke:none;stroke-linecap:butt;stroke-linejoin:miter;stroke-miterlimit:10;stroke-dasharray:none;stroke-dashoffset:0"><path fill="#656565" d="m586.687 274.492-6.637-26.038c-.573-2.25.676-4.39 3.265-5.05l25.881-6.598c2.185-.556 4.974.505 5.534 2.704l6.662 26.136zM641.322 341.375l6.662 26.137c.56 2.198-1.38 4.465-3.565 5.022l-25.881 6.597c-2.589.66-4.71-.622-5.284-2.871l-6.637-26.038z" data-paper-data="{&quot;index&quot;:null}"/><path fill="#656565" d="M554.3 323.152c-8.363-32.811 11.456-66.19 44.267-74.553 32.811-8.363 66.19 11.455 74.553 44.266s-11.455 66.19-44.266 74.553c-32.811 8.364-66.19-11.455-74.553-44.266z" data-paper-data="{&quot;index&quot;:null}"/><path fill="#656565" d="m647.446 280.617 26.038-6.638c2.25-.573 4.39.677 5.05 3.265l6.598 25.882c.556 2.184-.505 4.973-2.703 5.533l-26.137 6.662zM580.563 335.25l-26.137 6.663c-2.198.56-4.465-1.38-5.022-3.564l-6.597-25.882c-.66-2.589.622-4.71 2.871-5.284l26.039-6.637z" data-paper-data="{&quot;index&quot;:null}"/><path fill="#656565" d="m571.041 303.603-23.104-13.719c-1.997-1.185-2.627-3.582-1.263-5.88l13.636-22.965c1.151-1.938 3.874-3.16 5.824-2.001l23.192 13.77zM656.967 312.264l23.192 13.77c1.951 1.159 2.182 4.134 1.031 6.072l-13.636 22.966c-1.364 2.297-3.77 2.891-5.766 1.706l-23.105-13.719zM618.335 264.97l13.719-23.104c1.185-1.997 3.582-2.627 5.88-1.263l22.965 13.636c1.938 1.151 3.16 3.874 2.002 5.824l-13.77 23.192zM609.674 350.897l-13.77 23.192c-1.159 1.95-4.134 2.181-6.072 1.03l-22.966-13.636c-2.297-1.364-2.891-3.77-1.706-5.766l13.719-23.105z" data-paper-data="{&quot;index&quot;:null}"/><path fill="#a9a9a9" d="M599.005 311.757c-2.07-8.122 2.835-16.384 10.957-18.454 8.122-2.07 16.384 2.836 18.454 10.957 2.07 8.122-2.836 16.384-10.957 18.454-8.122 2.07-16.384-2.835-18.454-10.957z"/></g><g stroke-width="0" style="mix-blend-mode:normal;fill-rule:nonzero;stroke:none;stroke-linecap:butt;stroke-linejoin:miter;stroke-miterlimit:10;stroke-dasharray:none;stroke-dashoffset:0"><path fill="#656565" d="m418.127 297.555-4.655-35.51c-.402-3.07 1.59-5.704 5.121-6.167l35.298-4.627c2.979-.39 6.501 1.457 6.894 4.455l4.673 35.645zM479.827 394.731l4.673 35.645c.393 2.998-2.535 5.69-5.514 6.081l-35.297 4.628c-3.53.462-6.135-1.57-6.538-4.638l-4.655-35.511z" data-paper-data="{&quot;index&quot;:null}"/><path fill="#656565" d="M367.552 356.818c-5.866-44.748 25.654-85.78 70.402-91.646 44.748-5.866 85.78 25.654 91.646 70.402 5.866 44.748-25.654 85.78-70.402 91.645-44.748 5.867-85.78-25.653-91.646-70.401z" data-paper-data="{&quot;index&quot;:null}"/><path fill="#656565" d="m497.565 315.294 35.511-4.656c3.068-.402 5.703 1.591 6.166 5.122l4.627 35.297c.39 2.979-1.456 6.501-4.454 6.894l-35.645 4.673zM400.39 376.993l-35.646 4.673c-2.998.393-5.69-2.535-6.08-5.513l-4.628-35.298c-.463-3.53 1.569-6.135 4.637-6.537l35.511-4.656z" data-paper-data="{&quot;index&quot;:null}"/><path fill="#656565" d="m392.806 333.6-28.402-21.818c-2.454-1.885-2.908-5.157-.738-7.981l21.687-28.231c1.83-2.383 5.627-3.567 8.025-1.725l28.509 21.9zM505.148 358.686l28.509 21.9c2.398 1.843 2.232 5.817.402 8.2l-21.688 28.23c-2.169 2.824-5.447 3.229-7.901 1.344l-28.403-21.819zM461.52 289.973l21.818-28.403c1.886-2.454 5.158-2.907 7.982-.738l28.23 21.687c2.383 1.83 3.568 5.627 1.726 8.025l-21.9 28.509zM436.434 402.314l-21.9 28.51c-1.842 2.397-5.816 2.231-8.199.4l-28.23-21.686c-2.825-2.17-3.23-5.448-1.344-7.902l21.818-28.402z" data-paper-data="{&quot;index&quot;:null}"/><path fill="#a9a9a9" d="M428.52 348.825c-1.451-11.076 6.35-21.232 17.427-22.684 11.076-1.453 21.232 6.35 22.684 17.426 1.452 11.076-6.35 21.232-17.426 22.684-11.076 1.452-21.232-6.35-22.684-17.426z"/></g><g stroke-width="0" data-paper-data="{&quot;index&quot;:null}" style="mix-blend-mode:normal;fill-rule:nonzero;stroke:none;stroke-linecap:butt;stroke-linejoin:miter;stroke-miterlimit:10;stroke-dasharray:none;stroke-dashoffset:0"><path fill="#656565" d="m174.04 234.827 29.947-43.548c2.587-3.762 7.374-4.685 11.704-1.708 12.187 8.382 36.345 24.994 43.285 29.766 3.653 2.512 5.694 8.016 3.165 11.692l-30.059 43.712zM145.798 402.322l-30.06 43.712c-2.528 3.676-8.397 3.74-12.05 1.228l-43.285-29.766c-4.33-2.977-5.18-7.777-2.594-11.54l29.947-43.548z" data-paper-data="{&quot;index&quot;:null}"/><path fill="#656565" d="M60.068 249.91c37.735-54.875 112.81-68.769 167.686-31.033 54.874 37.735 68.768 112.81 31.033 167.686C221.05 441.437 145.976 455.33 91.1 417.596 36.226 379.86 22.332 304.785 60.068 249.91Z" data-paper-data="{&quot;index&quot;:null}"/><path fill="#656565" d="m243.666 332.696 43.548 29.946c3.763 2.588 4.686 7.374 1.708 11.704-8.38 12.188-24.993 36.345-29.766 43.285-2.512 3.653-8.015 5.694-11.691 3.166l-43.712-30.06ZM76.172 304.453l-43.712-30.06c-3.676-2.527-3.74-8.396-1.228-12.05l29.766-43.285c2.977-4.33 7.777-5.18 11.54-2.593l43.547 29.946z" data-paper-data="{&quot;index&quot;:null}"/><path fill="#656565" d="m110.686 249.37-9.617-51.967c-.831-4.49 1.9-8.528 7.068-9.484l51.655-9.56c4.359-.806 9.693 1.642 10.505 6.03l9.654 52.163zM209.152 387.778l9.654 52.164c.812 4.387-3.293 8.583-7.652 9.39l-51.655 9.559c-5.167.956-9.163-1.836-9.994-6.326l-9.618-51.968ZM229.123 269.342l51.968-9.618c4.49-.831 8.527 1.901 9.484 7.068 2.691 14.544 8.026 43.373 9.56 51.655.806 4.36-1.643 9.694-6.03 10.506l-52.164 9.653zM90.715 367.807l-52.163 9.654c-4.388.812-8.583-3.292-9.39-7.652l-9.56-51.655c-.956-5.167 1.837-9.163 6.327-9.994l51.968-9.617z" data-paper-data="{&quot;index&quot;:null}"/><path fill="#a9a9a9" d="M134.833 301.324c9.34-13.583 27.924-17.022 41.507-7.682 13.583 9.34 17.022 27.924 7.681 41.507-9.34 13.583-27.923 17.022-41.506 7.681-13.583-9.34-17.022-27.923-7.682-41.506z"/></g><g stroke-width="0" data-paper-data="{&quot;index&quot;:null}" style="mix-blend-mode:normal;fill-rule:nonzero;stroke:none;stroke-linecap:butt;stroke-linejoin:miter;stroke-miterlimit:10;stroke-dasharray:none;stroke-dashoffset:0"><path fill="#545454" d="m316.417 188.906-6.637-26.038c-.573-2.25.676-4.39 3.265-5.05l25.881-6.597c2.184-.557 4.973.505 5.534 2.703l6.662 26.136z" data-paper-data="{&quot;index&quot;:null}"/><path fill="#656565" d="m371.051 255.79 6.662 26.136c.56 2.198-1.38 4.465-3.564 5.022l-25.881 6.597c-2.59.66-4.71-.621-5.284-2.87l-6.637-26.04z" data-paper-data="{&quot;index&quot;:null}"/><path fill="#656565" d="M284.03 237.566c-8.363-32.81 11.456-66.19 44.267-74.553 32.81-8.363 66.19 11.456 74.553 44.267 8.363 32.81-11.456 66.19-44.267 74.553-32.81 8.363-66.19-11.456-74.552-44.267z" data-paper-data="{&quot;index&quot;:null}"/><path fill="#656565" d="m377.176 195.031 26.038-6.637c2.25-.574 4.39.676 5.05 3.265l6.597 25.881c.557 2.184-.504 4.973-2.703 5.534l-26.136 6.662zM310.292 249.665l-26.136 6.662c-2.198.56-4.465-1.38-5.022-3.564l-6.597-25.881c-.66-2.59.621-4.71 2.871-5.284l26.038-6.637z" data-paper-data="{&quot;index&quot;:null}"/><path fill="#656565" d="M300.771 218.017 277.666 204.3c-1.996-1.186-2.626-3.583-1.262-5.88l13.636-22.966c1.15-1.938 3.873-3.16 5.824-2.001l23.192 13.77zM386.697 226.679l23.192 13.77c1.95 1.158 2.182 4.134 1.03 6.072l-13.635 22.965c-1.364 2.298-3.77 2.892-5.767 1.707l-23.105-13.72z" data-paper-data="{&quot;index&quot;:null}"/><path fill="#545454" d="m348.065 179.385 13.719-23.105c1.185-1.996 3.582-2.626 5.88-1.262l22.965 13.636c1.938 1.15 3.16 3.873 2.001 5.824l-13.77 23.192z" data-paper-data="{&quot;index&quot;:null}"/><path fill="#656565" d="m339.403 265.311-13.77 23.192c-1.158 1.95-4.133 2.182-6.071 1.03l-22.966-13.635c-2.297-1.364-2.892-3.77-1.706-5.767l13.718-23.105z" data-paper-data="{&quot;index&quot;:null}"/><path fill="#a9a9a9" d="M328.735 226.171c-2.07-8.121 2.835-16.383 10.957-18.453 8.121-2.07 16.383 2.835 18.453 10.957 2.07 8.121-2.835 16.383-10.957 18.453-8.121 2.07-16.383-2.835-18.453-10.957z"/></g><g stroke-width="0" data-paper-data="{&quot;index&quot;:null}" style="mix-blend-mode:normal;fill-rule:nonzero;stroke:none;stroke-linecap:butt;stroke-linejoin:miter;stroke-miterlimit:10;stroke-dasharray:none;stroke-dashoffset:0"><path fill="#656565" d="m527.645 26.47 23.898-47.14c2.065-4.072 6.687-5.622 11.374-3.246L609.77-.162c3.954 2.005 6.708 7.188 4.69 11.168l-23.988 47.316zM521.893 196.231l-23.988 47.316c-2.018 3.98-7.826 4.823-11.78 2.818L439.27 222.61c-4.687-2.376-6.168-7.02-4.103-11.093l23.898-47.139z" data-paper-data="{&quot;index&quot;:null}"/><path fill="#656565" d="M416.684 56.553c30.115-59.4 102.68-83.14 162.08-53.025 59.4 30.114 83.14 102.68 53.025 162.08-30.115 59.4-102.68 83.14-162.08 53.025-59.4-30.115-83.14-102.68-53.025-162.08Z" data-paper-data="{&quot;index&quot;:null}"/><path fill="#656565" d="m609.65 114.226 47.138 23.899c4.073 2.064 5.624 6.686 3.247 11.373l-23.754 46.854c-2.005 3.955-7.188 6.708-11.168 4.69l-47.316-23.988zM439.888 108.474l-47.316-23.988c-3.98-2.018-4.822-7.826-2.818-11.78L413.51 25.85c2.376-4.687 7.02-6.168 11.093-4.103l47.139 23.899z" data-paper-data="{&quot;index&quot;:null}"/><path fill="#656565" d="M466.783 49.297 450.349-.934c-1.42-4.34.753-8.704 5.747-10.338l49.928-16.334c4.213-1.379 9.826.34 11.213 4.58l16.495 50.42zM582.755 173.404l16.495 50.42c1.388 4.24-2.124 8.943-6.337 10.322l-49.928 16.334c-4.994 1.634-9.326-.603-10.746-4.943l-16.433-50.23zM586.822 53.364l50.231-16.433c4.34-1.42 8.704.752 10.338 5.746l16.334 49.928c1.379 4.214-.34 9.826-4.58 11.213l-50.42 16.495zM462.716 169.337l-50.42 16.495c-4.241 1.387-8.944-2.124-10.323-6.338l-16.334-49.928c-1.634-4.994.603-9.326 4.943-10.746l50.231-16.433Z" data-paper-data="{&quot;index&quot;:null}"/><path fill="#a9a9a9" d="M497.615 97.583c7.454-14.703 25.416-20.579 40.118-13.125 14.703 7.454 20.58 25.416 13.125 40.12-7.454 14.702-25.416 20.578-40.118 13.124-14.703-7.454-20.58-25.416-13.125-40.119Z"/></g><g stroke-width="0" style="mix-blend-mode:normal;fill-rule:nonzero;stroke:none;stroke-linecap:butt;stroke-linejoin:miter;stroke-miterlimit:10;stroke-dasharray:none;stroke-dashoffset:0"><path fill="#656565" d="M226.399 40.229 219.28 6.282c-.615-2.933 1.115-5.625 4.49-6.332 9.5-1.993 28.332-5.941 33.742-7.075 2.848-.598 6.386.926 6.987 3.792l7.144 34.075zM293.154 129.507l7.145 34.075c.6 2.866-2.027 5.682-4.875 6.28-5.41 1.134-24.242 5.082-33.742 7.075-3.375.707-6.04-1.063-6.656-3.996l-7.117-33.947z" data-paper-data="{&quot;index&quot;:null}"/><path fill="#656565" d="M181.939 101.189c-8.97-42.777 18.437-84.725 61.214-93.695 42.776-8.97 84.725 18.437 93.694 61.214 8.97 42.777-18.437 84.725-61.214 93.695-42.776 8.969-84.725-18.437-93.694-61.214z" data-paper-data="{&quot;index&quot;:null}"/><path fill="#656565" d="m304.416 51.49 33.947-7.117c2.933-.615 5.624 1.114 6.332 4.49l7.075 33.742c.597 2.848-.926 6.385-3.792 6.986l-34.075 7.145zM215.137 118.246l-34.075 7.144c-2.866.601-5.682-2.027-6.279-4.874l-7.075-33.743c-.708-3.375 1.062-6.04 3.995-6.655L205.65 73z" data-paper-data="{&quot;index&quot;:null}"/><path fill="#656565" d="m204.61 76.905-29.037-18.971c-2.509-1.64-3.189-4.766-1.303-7.653l18.857-28.862c1.591-2.436 5.17-3.86 7.622-2.258l29.146 19.042zM314.943 92.831l29.146 19.043c2.452 1.601 2.585 5.451.994 7.887l-18.857 28.862c-1.886 2.887-5.022 3.52-7.531 1.881l-29.037-18.97zM267.74 29.702 286.71.664c1.64-2.508 4.766-3.188 7.653-1.302l28.862 18.857c2.436 1.59 3.86 5.17 2.259 7.621l-19.042 29.147zM251.813 140.034l-19.042 29.147c-1.602 2.451-5.451 2.585-7.887.993l-28.863-18.857c-2.887-1.886-3.52-5.022-1.88-7.53l18.97-29.038z" data-paper-data="{&quot;index&quot;:null}"/><path fill="#a9a9a9" d="M240.221 88.968c-2.22-10.588 4.564-20.971 15.152-23.191 10.588-2.22 20.972 4.563 23.192 15.151 2.22 10.589-4.564 20.972-15.152 23.192-10.588 2.22-20.972-4.563-23.192-15.152z"/></g><path fill="#fff" d="M221.663 278.945c-4.843 0-8.545 1.809-11.106 5.427-2.56 3.618-3.84 8.573-3.84 14.863 0 6.346 1.168 11.272 3.506 14.78 2.394 3.45 6.207 5.176 11.44 5.176 2.449 0 4.87-.278 7.264-.835 2.45-.556 5.094-1.336 7.933-2.338v10.605c-2.617 1.057-5.205 1.837-7.766 2.338-2.56.5-5.427.751-8.6.751-6.124 0-11.19-1.252-15.197-3.757-3.953-2.56-6.875-6.124-8.768-10.688-1.892-4.62-2.839-9.992-2.839-16.116 0-6.012 1.086-11.328 3.257-15.948 2.17-4.62 5.316-8.239 9.435-10.855 4.175-2.616 9.269-3.924 15.28-3.924 2.95 0 5.901.39 8.852 1.169a44.934 44.934 0 0 1 8.6 3.006l-4.091 10.27a63.83 63.83 0 0 0-6.764-2.755c-2.227-.78-4.425-1.17-6.596-1.17zm68.302 27.053c0 7.571-2.004 13.416-6.012 17.535-3.952 4.12-9.352 6.18-16.199 6.18-4.23 0-8.016-.92-11.356-2.756-3.284-1.837-5.872-4.51-7.765-8.016-1.893-3.563-2.84-7.877-2.84-12.943 0-7.57 1.977-13.387 5.93-17.451 3.952-4.064 9.38-6.095 16.282-6.095 4.286 0 8.071.918 11.356 2.755 3.284 1.837 5.873 4.509 7.765 8.016 1.893 3.451 2.84 7.71 2.84 12.775zm-31.48 0c0 4.51.725 7.933 2.172 10.27 1.503 2.283 3.924 3.424 7.264 3.424 3.285 0 5.65-1.14 7.098-3.423 1.503-2.338 2.254-5.762 2.254-10.27 0-4.51-.751-7.877-2.254-10.104-1.448-2.282-3.841-3.424-7.181-3.424-3.285 0-5.678 1.142-7.181 3.424-1.447 2.227-2.171 5.594-2.171 10.103zm67.635-23.546c4.9 0 8.824 1.335 11.774 4.007 2.95 2.617 4.425 6.847 4.425 12.692v29.726h-12.441v-26.636c0-3.284-.585-5.734-1.754-7.348-1.169-1.67-3.033-2.505-5.594-2.505-3.785 0-6.374 1.308-7.765 3.924-1.392 2.561-2.088 6.263-2.088 11.106v21.46h-12.441v-45.592h9.519l1.67 5.845h.668c1.447-2.338 3.423-4.035 5.928-5.093 2.56-1.058 5.26-1.587 8.1-1.587zm60.788 32.898c0 4.62-1.642 8.183-4.926 10.688-3.229 2.45-8.072 3.674-14.53 3.674-3.172 0-5.9-.222-8.182-.668-2.283-.39-4.565-1.057-6.847-2.004v-10.27c2.45 1.113 5.093 2.032 7.932 2.755 2.84.724 5.344 1.086 7.515 1.086 2.45 0 4.175-.362 5.177-1.086 1.058-.723 1.587-1.67 1.587-2.839a3.46 3.46 0 0 0-.668-2.087c-.39-.613-1.28-1.308-2.672-2.088-1.392-.779-3.563-1.781-6.513-3.006-2.84-1.224-5.177-2.421-7.014-3.59-1.837-1.225-3.201-2.672-4.092-4.342-.89-1.726-1.336-3.869-1.336-6.43 0-4.23 1.642-7.403 4.927-9.519 3.284-2.115 7.654-3.173 13.11-3.173 2.838 0 5.538.279 8.099.835 2.56.557 5.204 1.476 7.932 2.756l-3.757 8.934a64.44 64.44 0 0 0-6.346-2.338 19.16 19.16 0 0 0-6.096-1.002c-3.674 0-5.51 1.002-5.51 3.006 0 .724.222 1.392.667 2.004.501.557 1.42 1.17 2.756 1.837 1.391.668 3.423 1.559 6.095 2.672 2.616 1.058 4.871 2.171 6.764 3.34 1.892 1.114 3.34 2.533 4.342 4.259 1.057 1.67 1.586 3.869 1.586 6.596zm51.102-9.352c0 7.571-2.004 13.416-6.012 17.535-3.952 4.12-9.352 6.18-16.199 6.18-4.23 0-8.016-.92-11.356-2.756-3.284-1.837-5.873-4.51-7.765-8.016-1.893-3.563-2.84-7.877-2.84-12.943 0-7.57 1.977-13.387 5.929-17.451s9.38-6.095 16.282-6.095c4.287 0 8.072.918 11.356 2.755 3.285 1.837 5.873 4.509 7.766 8.016 1.893 3.451 2.839 7.71 2.839 12.775zm-31.48 0c0 4.51.724 7.933 2.172 10.27 1.502 2.283 3.924 3.424 7.264 3.424 3.284 0 5.65-1.14 7.097-3.423 1.503-2.338 2.255-5.762 2.255-10.27 0-4.51-.752-7.877-2.255-10.104-1.447-2.282-3.84-3.424-7.18-3.424-3.285 0-5.678 1.142-7.181 3.424-1.448 2.227-2.171 5.594-2.171 10.103zm54.192 22.88H448.28v-63.46h12.442zm31.813-46.426c6.29 0 11.272 1.809 14.946 5.427 3.674 3.563 5.511 8.656 5.511 15.28v6.012H483.6c.112 3.507 1.142 6.263 3.09 8.267 2.004 2.004 4.76 3.006 8.266 3.006 2.95 0 5.623-.279 8.016-.835 2.394-.613 4.871-1.531 7.432-2.756v9.603a28.128 28.128 0 0 1-7.098 2.421c-2.449.557-5.427.835-8.934.835-4.565 0-8.6-.835-12.108-2.505-3.507-1.725-6.262-4.314-8.266-7.765-2.004-3.452-3.006-7.793-3.006-13.026 0-5.344.89-9.77 2.672-13.277 1.837-3.562 4.37-6.234 7.598-8.016 3.23-1.78 6.987-2.672 11.273-2.672zm.083 8.85c-2.393 0-4.397.78-6.012 2.338-1.558 1.56-2.477 3.98-2.755 7.265h17.451c-.055-2.783-.779-5.066-2.17-6.847-1.392-1.837-3.563-2.756-6.514-2.756zm62.291 24.048c0 4.62-1.642 8.183-4.926 10.688-3.23 2.45-8.072 3.674-14.53 3.674-3.172 0-5.9-.222-8.182-.668-2.283-.39-4.565-1.057-6.847-2.004v-10.27c2.449 1.113 5.093 2.032 7.932 2.755 2.84.724 5.344 1.086 7.515 1.086 2.45 0 4.175-.362 5.177-1.086 1.058-.723 1.587-1.67 1.587-2.839a3.46 3.46 0 0 0-.668-2.087c-.39-.613-1.28-1.308-2.672-2.088-1.392-.779-3.563-1.781-6.513-3.006-2.84-1.224-5.177-2.421-7.014-3.59-1.837-1.225-3.201-2.672-4.092-4.342-.89-1.726-1.336-3.869-1.336-6.43 0-4.23 1.642-7.403 4.927-9.519 3.284-2.115 7.654-3.173 13.11-3.173 2.838 0 5.538.279 8.099.835 2.56.557 5.204 1.476 7.932 2.756l-3.757 8.934a64.442 64.442 0 0 0-6.346-2.338 19.16 19.16 0 0 0-6.096-1.002c-3.674 0-5.51 1.002-5.51 3.006 0 .724.222 1.392.667 2.004.501.557 1.42 1.17 2.756 1.837 1.391.668 3.423 1.559 6.095 2.672 2.616 1.058 4.87 2.171 6.764 3.34 1.892 1.114 3.34 2.533 4.341 4.259 1.058 1.67 1.587 3.869 1.587 6.596zM443.04 134.906v81.105c0 6.272-5.084 11.355-11.355 11.355h-122.63c-6.272 0-11.355-5.083-11.355-11.355v-81.105c0-6.272 5.083-11.355 11.355-11.355h122.63c6.271 0 11.355 5.083 11.355 11.355zm-10.581 6.809a6.75 6.75 0 0 0-6.749-6.75H315.031a6.75 6.75 0 0 0-6.749 6.75V209.2a6.75 6.75 0 0 0 6.75 6.75h21.592v-28.345a6.748 6.748 0 0 1 6.749-6.749 6.748 6.748 0 0 1 6.749 6.749v28.344h13.498v-52.64a6.75 6.75 0 0 1 13.498 0v52.64h13.497v-39.142a6.75 6.75 0 0 1 13.498 0v39.142h21.597a6.75 6.75 0 0 0 6.749-6.749zm-25.754 102.52a6.488 6.488 0 0 1-6.488 6.488h-59.694a6.488 6.488 0 1 1 0-12.976h59.694a6.489 6.489 0 0 1 6.488 6.488zm-6.488-6.488" style="mix-blend-mode:normal;fill-rule:nonzero;stroke:none;stroke-linecap:butt;stroke-linejoin:miter;stroke-miterlimit:10;stroke-dasharray:none;stroke-dashoffset:0"/><path fill="#4d4d4d" d="M432.503 209.225a6.757 6.757 0 0 1-6.753 6.755l-21.669-.068-.018-39.106a6.737 6.737 0 0 0-6.748-6.737c-3.727 0-6.65 3.015-6.65 6.742l-.027 39.184-13.512.005-.033-52.646a6.722 6.722 0 0 0-6.724-6.743c-3.727 0-6.725 3.016-6.725 6.743L363.612 216l-13.513-.005-.02-28.363c0-3.727-3.027-6.765-6.755-6.765-3.727 0-6.653 2.994-6.653 6.722l-.015 28.323-21.665.068a6.757 6.757 0 0 1-6.752-6.755v-67.534a6.757 6.757 0 0 1 6.752-6.755h110.76a6.757 6.757 0 0 1 6.752 6.755z" data-paper-data="{&quot;noHover&quot;:false,&quot;origItem&quot;:[&quot;Path&quot;,{&quot;applyMatrix&quot;:true,&quot;segments&quot;:[[[593.36194,179.69311],[0,0],[0,-7.45436]],[[579.86404,166.19519],[7.45438,0],[0,0]],[[358.50692,166.19519],[0,0],[-7.45436,0]],[[345.00898,179.69311],[0,-7.45438],[0,0]],[[345.00898,314.66649],[0,0],[0,7.45438]],[[358.50692,328.16441],[-7.45442,0],[0,0]],[401.69166,328.16441],[[401.69166,271.47603],[0,0],[0,-7.45718]],[[415.18962,257.97817],[-7.4544,0],[7.45716,0]],[[428.6875,271.47603],[0,-7.45436],[0,0]],[428.6875,328.16441],[455.68334,328.16441],[[455.68334,222.88359],[0,0],[0,-7.45434]],[[469.18124,209.38569],[-7.45438,0],[7.45714,0]],[[482.67912,222.88359],[0,-7.45438],[0,0]],[482.67912,328.16441],[509.67496,328.16441],[[509.67496,249.87943],[0,0],[0,-7.45442]],[[523.17286,236.38151],[-7.4544,0],[7.4572,0]],[[536.67078,249.87943],[0,-7.45442],[0,0]],[536.67078,328.16441],[[579.86406,328.16441],[0,0],[7.45436,0]],[[593.36198,314.66649],[0,7.45438],[0,0]]],&quot;closed&quot;:true,&quot;fillColor&quot;:[0,0,0,1]}]}" style="mix-blend-mode:normal;fill-rule:nonzero;stroke:none;stroke-linecap:butt;stroke-linejoin:miter;stroke-miterlimit:10;stroke-dasharray:none;stroke-dashoffset:0"/><g stroke-width="0" data-paper-data="{&quot;index&quot;:null}" style="mix-blend-mode:normal;fill-rule:nonzero;stroke:none;stroke-linecap:butt;stroke-linejoin:miter;stroke-miterlimit:10;stroke-dasharray:none;stroke-dashoffset:0"><path fill="#656565" d="M77.102 95.207 65.523 76.76c-1-1.594-.567-3.555 1.267-4.706l18.336-11.51c1.548-.97 3.963-.843 4.94.715l11.622 18.516zM135.846 133.27l11.622 18.517c.978 1.558.042 3.788-1.505 4.76l-18.336 11.508c-1.834 1.151-3.789.689-4.79-.905l-11.578-18.447z" data-paper-data="{&quot;index&quot;:null}"/><path fill="#656565" d="M64.176 140.787c-14.59-23.245-7.573-53.916 15.672-68.506 23.245-14.59 53.917-7.574 68.507 15.671 14.59 23.246 7.573 53.917-15.672 68.507-23.245 14.59-53.917 7.573-68.507-15.672z" data-paper-data="{&quot;index&quot;:null}"/><path fill="#656565" d="m125.506 84.867 18.447-11.579c1.594-1 3.555-.567 4.706 1.267l11.509 18.336c.971 1.548.844 3.963-.714 4.94l-18.516 11.622ZM87.442 143.611l-18.517 11.622c-1.557.978-3.787.043-4.759-1.505l-11.508-18.336c-1.151-1.834-.689-3.789.905-4.79l18.447-11.577z" data-paper-data="{&quot;index&quot;:null}"/><path fill="#656565" d="m72.247 121.55-21.231-4.856c-1.835-.42-2.915-2.113-2.432-4.224l4.827-21.103c.408-1.781 2.206-3.399 3.998-2.989l21.311 4.875zM140.7 106.927l21.312 4.875c1.792.41 2.708 2.649 2.3 4.43-.773 3.384-3.468 15.161-4.827 21.103-.483 2.111-2.192 3.166-4.027 2.747l-21.23-4.857ZM99.162 80.012l4.857-21.231c.42-1.834 2.113-2.915 4.224-2.432l21.103 4.827c1.781.408 3.399 2.206 2.989 3.998l-4.875 21.311zM113.786 148.466l-4.876 21.311c-.41 1.792-2.648 2.708-4.43 2.301l-21.102-4.828c-2.111-.482-3.166-2.192-2.747-4.026l4.857-21.231z" data-paper-data="{&quot;index&quot;:null}"/><path fill="#a9a9a9" d="M95.847 120.909c-3.611-5.754-1.874-13.346 3.88-16.957 5.753-3.612 13.345-1.875 16.957 3.879 3.61 5.754 1.874 13.346-3.88 16.957-5.753 3.611-13.345 1.875-16.957-3.88z"/></g></svg>