<svg xmlns="http://www.w3.org/2000/svg" width="600" height="300" viewBox="0 0 600.00001 299.99999"><path fill="#ff8000" d="M-2e-8 300.00001V.0000099H600V300.00001Z" style="fill-rule:nonzero;stroke-linecap:butt;stroke-linejoin:miter;stroke-miterlimit:10;stroke-dasharray:none;stroke-dashoffset:0"/><g aria-label="Time" style="font-size:91.846px;font-family:&quot;Sans Serif&quot;;fill:#fff;stroke-width:2.29616;stroke-miterlimit:10"><path d="M221.74742 257.6084h-13.86874v-54.00545h-17.81813v-11.5726h49.505v11.5726h-17.81813zM255.45477 187.80544q3.03092 0 5.23523 1.46953 2.2043 1.37769 2.2043 5.23523 0 3.76568-2.2043 5.23522-2.20431 1.46953-5.23523 1.46953-3.12276 0-5.32706-1.46953-2.11246-1.46954-2.11246-5.23522 0-3.85754 2.11246-5.23523 2.2043-1.46953 5.32706-1.46953zm6.79661 19.65504v50.14792h-13.68506v-50.14792zM335.4525 206.54202q8.54167 0 12.85844 4.40861 4.4086 4.31676 4.4086 13.96059v32.69718h-13.68505v-29.29888q0-10.83782-7.53137-10.83782-5.41892 0-7.71507 3.85753t-2.29615 11.11336v25.16581h-13.68505v-29.29888q0-10.83782-7.53137-10.83782-5.69445 0-7.89876 4.31676-2.11246 4.22491-2.11246 12.21552v23.60442h-13.68505v-50.14792h10.47044l1.83692 6.42922h.73477q2.29615-3.85753 6.24553-5.6026 4.04122-1.74508 8.35799-1.74508 5.51076 0 9.36829 1.83692 3.85753 1.74508 5.87814 5.51076h1.194q2.29615-3.85753 6.33737-5.6026 4.13307-1.74508 8.44984-1.74508zM387.43719 206.54202q10.3786 0 16.44043 5.96999 6.06184 5.87815 6.06184 16.80782v6.61291h-32.32979q.18369 5.7863 3.3983 9.09276 3.30645 3.30645 9.09275 3.30645 4.86784 0 8.81722-.91846 3.94938-1.0103 8.17429-3.03092v10.56229q-3.67384 1.83692-7.80691 2.66354-4.04122.91846-9.82752.91846-7.53137 0-13.31767-2.75538-5.7863-2.84723-9.09275-8.54168-3.30646-5.69445-3.30646-14.32798 0-8.81721 2.93907-14.60351 3.03092-5.87814 8.35799-8.81722 5.32707-2.93907 12.39921-2.93907zm.0918 9.73568q-3.94937 0-6.61291 2.57169-2.57169 2.57168-3.03092 7.9906h19.19582q-.0919-4.5923-2.388-7.53137-2.29615-3.03092-7.16399-3.03092z" style="font-weight:700;font-family:&quot;Noto Sans&quot;;-inkscape-font-specification:&quot;Noto Sans&quot;"/></g><path fill="#fff" d="M371.59058 100.65893c0 40.12501-32.59346 72.71847-72.71847 72.71847-40.12501 0-72.71847-32.59346-72.71847-72.71847 0-40.125014 32.59346-72.718466 72.71847-72.718466 40.12501 0 72.71847 32.593452 72.71847 72.718466zm-36.48909 16.36165-31.03521-17.91991V59.105516h-10.38835V105.8531h1.4284l34.80097 20.12744z" style="fill-rule:nonzero;stroke-linecap:butt;stroke-linejoin:miter;stroke-miterlimit:10;stroke-dasharray:none;stroke-dashoffset:0"/></svg>