<svg xmlns="http://www.w3.org/2000/svg" width="600" height="300"><path fill="#ff8000" d="M0 48.352c.838-3.269 1.304-6.599.692-10.083 0-2.02-.24-3.983-.692-5.863V0h377.835c1.362.02 2.76.026 4.168 0h206.054a25.409 25.409 0 0 0 2.71 0H600v300H225.551a25.03 25.03 0 0 0-6.55-.867 25.03 25.03 0 0 0-6.549.867H151.68c-1.453-.263-2.95-.4-4.478-.4-1.529 0-3.026.137-4.479.4H89.706a25.286 25.286 0 0 0-5.509 0h-.517c-1.453-.263-2.95-.4-4.478-.4-1.529 0-3.026.137-4.479.4H23.956a25.286 25.286 0 0 0-5.509 0H4.682A24.876 24.876 0 0 0 0 286.117Z" style="fill-rule:nonzero;stroke-linejoin:miter;stroke-miterlimit:10;stroke-dasharray:none;stroke-dashoffset:0"/><path fill="none" stroke="#ffa800" stroke-linecap="round" stroke-width="15" d="M296.998 212.192c-12.574 5.905-28.993 1.607-33.341-12.383-4.349-13.99 6.448-48.84 24.494-52.477 18.046-3.638 49.905 7.514 62.306 34.98 12.401 27.467 4.081 65.713-26.264 72.595-30.345 6.882-90.104.99-111.395-41.375-21.292-42.365 2.893-100.907 46.554-113.45 43.661-12.544 107.715 6.44 133.953 61.592 26.24 55.152 6.724 121.325-50.708 140.159-2.101.689-4.242 1.332-6.418 1.927" style="fill-rule:nonzero;stroke-linejoin:miter;stroke-miterlimit:10;stroke-dasharray:none;stroke-dashoffset:0"/><path fill="none" stroke="#ffa800" stroke-linecap="round" stroke-width="15" d="M257.417 305.178c-37.744-8.391-73.194-30.277-91.455-68.953-32.455-68.737 1.086-157.447 71.822-183.291 70.737-25.845 158.813 4.716 197.088 85.042 27.4 57.502 19.952 120.445-16.436 162.836" style="fill-rule:nonzero;stroke-linejoin:miter;stroke-miterlimit:10;stroke-dasharray:none;stroke-dashoffset:0"/><path fill="none" stroke="#ffa800" stroke-linecap="round" stroke-width="15" d="M160.73 300.88c-13.051-13.215-24.09-29.055-32.316-47.618-40.976-92.468.119-211.412 96.267-250.855a200.276 200.276 0 0 1 6.589-2.568M366.688-.222c47.869 17.837 89.44 54.987 113.25 109.277 28.007 63.861 25.621 135.39-5.063 191.746" style="fill-rule:nonzero;stroke-linejoin:miter;stroke-miterlimit:10;stroke-dasharray:none;stroke-dashoffset:0"/><path fill="none" stroke="#ffa800" stroke-linecap="round" stroke-width="15" d="M92.322 300.428a220.782 220.782 0 0 1-14.436-27.612c-40.533-92.779-19.95-204.68 48.866-275.115M475.577-3.53c24.138 23.214 44.372 52.087 58.901 86.368 30.036 70.866 32.137 149.863 7.297 218.192M12.229 301.509A329.753 329.753 0 0 1-1.51 258.7M-3.012 97.495C4.677 63.1 17.484 29.918 35.215-.44M592.38-.138c6.62 14.265 12.112 29.5 16.332 45.706" style="fill-rule:nonzero;stroke-linejoin:miter;stroke-miterlimit:10;stroke-dasharray:none;stroke-dashoffset:0"/><path fill="none" stroke="#f90" stroke-linecap="round" stroke-width="15" d="M296.962 214.504c-13.122 6.163-30.258 1.677-34.797-12.924-4.539-14.601 6.73-50.972 25.565-54.769 18.834-3.796 52.084 7.842 65.027 36.508 12.943 28.666 4.259 68.584-27.412 75.766-31.67 7.183-94.039 1.033-116.26-43.182-22.221-44.216 3.02-105.315 48.588-118.406 45.568-13.091 112.419 6.721 139.803 64.282 24.889 52.314 10.334 114.13-37.523 139.72M247.582 309.548a162.777 162.777 0 0 1-11.409-3.585" style="fill-rule:nonzero;stroke-linejoin:miter;stroke-miterlimit:10;stroke-dasharray:none;stroke-dashoffset:0"/><path fill="none" stroke="#f90" stroke-linecap="round" stroke-width="15" d="M219.984 299.152c-25.046-12.3-46.663-31.782-59.78-59.565-33.873-71.74 1.133-164.324 74.959-191.297 73.825-26.973 165.75 4.923 205.696 88.756 27.684 58.102 21.281 121.524-13.615 165.653" style="fill-rule:nonzero;stroke-linejoin:miter;stroke-miterlimit:10;stroke-dasharray:none;stroke-dashoffset:0"/><path fill="none" stroke="#f90" stroke-linecap="round" stroke-width="15" d="M147.82 299.607c-10.623-12.18-19.715-26.24-26.804-42.239C79.572 163.844 118.57 44.37 212.349-.392M386.21-.181c42.927 20.515 79.615 56.725 101.682 107.043 28.254 64.422 26.872 136.319-2.17 194.167" style="fill-rule:nonzero;stroke-linejoin:miter;stroke-miterlimit:10;stroke-dasharray:none;stroke-dashoffset:0"/><path fill="none" stroke="#f90" stroke-linecap="round" stroke-width="15" d="M79.202 299.6a232.196 232.196 0 0 1-10.921-21.824C27.12 183.561 46.345 70.452 113.57-3.304M492.1-1.803C513.441 20.79 531.442 47.95 544.814 79.5c30.419 71.77 33.385 151.532 9.846 221.356M.871 39.561A350.513 350.513 0 0 1 19.86-.582" style="fill-rule:nonzero;stroke-linejoin:miter;stroke-miterlimit:10;stroke-dasharray:none;stroke-dashoffset:0"/><path fill="#fff" d="M221.747 257.608H207.88v-54.005H190.06V192.03h49.505v11.573h-17.819zm33.708-69.803c2.02 0 3.765.49 5.235 1.47 1.47.918 2.204 2.664 2.204 5.235 0 2.51-.734 4.256-2.204 5.235-1.47.98-3.215 1.47-5.235 1.47-2.082 0-3.858-.49-5.327-1.47-1.409-.98-2.113-2.724-2.113-5.235 0-2.571.704-4.317 2.113-5.235 1.47-.98 3.245-1.47 5.327-1.47zm6.796 19.655v50.148h-13.685V207.46zm73.201-.918c5.695 0 9.981 1.47 12.859 4.409 2.939 2.877 4.409 7.531 4.409 13.96v32.697h-13.686V228.31c0-7.226-2.51-10.838-7.53-10.838-3.614 0-6.185 1.286-7.716 3.857-1.53 2.572-2.296 6.276-2.296 11.114v25.165h-13.685V228.31c0-7.226-2.51-10.838-7.532-10.838-3.796 0-6.429 1.439-7.898 4.316-1.409 2.817-2.113 6.889-2.113 12.216v23.604H276.58V207.46h10.47l1.838 6.43h.734c1.531-2.572 3.613-4.44 6.246-5.603 2.694-1.163 5.48-1.745 8.358-1.745 3.674 0 6.796.612 9.368 1.837 2.572 1.163 4.531 3 5.878 5.51h1.194c1.531-2.571 3.643-4.439 6.338-5.602 2.755-1.163 5.572-1.745 8.45-1.745zm51.985 0c6.92 0 12.4 1.99 16.44 5.97 4.042 3.919 6.062 9.521 6.062 16.808v6.613h-32.33c.123 3.857 1.256 6.888 3.399 9.093 2.204 2.204 5.235 3.306 9.093 3.306 3.245 0 6.184-.306 8.817-.919 2.633-.673 5.358-1.683 8.174-3.03v10.562a30.94 30.94 0 0 1-7.807 2.663c-2.694.613-5.97.919-9.827.919-5.021 0-9.46-.919-13.318-2.756-3.857-1.898-6.888-4.745-9.093-8.541-2.204-3.797-3.306-8.572-3.306-14.328 0-5.878.98-10.746 2.939-14.604 2.02-3.918 4.807-6.858 8.358-8.817 3.551-1.96 7.684-2.939 12.4-2.939zm.092 9.736c-2.633 0-4.837.857-6.613 2.571-1.714 1.715-2.725 4.378-3.03 7.991h19.195c-.061-3.062-.857-5.572-2.388-7.531-1.53-2.021-3.919-3.031-7.164-3.031zM371.59 100.659c0 40.125-32.593 72.718-72.718 72.718s-72.718-32.593-72.718-72.718 32.593-72.719 72.718-72.719 72.719 32.594 72.719 72.719zm-36.489 16.362L304.066 99.1V59.106h-10.388v46.747h1.428l34.801 20.128z" style="fill-rule:nonzero;stroke-linejoin:miter;stroke-miterlimit:10;stroke-dasharray:none;stroke-dashoffset:0"/><path fill="#ff8000" d="m329.928 126.026-34.863-20.144-1.43-.002.017-46.817 10.429.09.027 39.921 30.961 17.909z" data-paper-data="{&quot;noHover&quot;:false,&quot;origItem&quot;:[&quot;Path&quot;,{&quot;applyMatrix&quot;:true,&quot;segments&quot;:[[550.20296,294.04116],[488.13254,258.20134],[488.13254,178.21102],[467.35584,178.21102],[467.35584,271.7062],[470.21264,271.7062],[539.81458,311.96108]],&quot;closed&quot;:true,&quot;fillColor&quot;:[0,0,0,1]}]}" style="fill-rule:nonzero;stroke-linejoin:miter;stroke-miterlimit:10;stroke-dasharray:none;stroke-dashoffset:0"/></svg>