<svg xmlns="http://www.w3.org/2000/svg" width="600" height="300" viewBox="0 0 599.99998 300.00001"><path fill="#ff4da7" d="M0 300V0h600v300z" style="mix-blend-mode:normal;fill-rule:nonzero;stroke:none;stroke-width:1;stroke-linecap:butt;stroke-linejoin:miter;stroke-miterlimit:10;stroke-dasharray:none;stroke-dashoffset:0"/><path fill="#e34494" d="m361.15362 273.12833 12.29583-75.16687 68.33585 54.0552zM260.766 259.50601c-9.223.236-16.911-6.344-21.455-14.373-4.47-7.897-5.321-17.374-1.042-25.376 4.532-8.473 12.888-14.791 22.497-14.742 9.537.049 17.82 6.449 22.102 14.97 3.886 7.733 1.754 16.542-2.47 24.095-4.354 7.785-10.715 15.198-19.632 15.426M549.413 335.22298c-21.026 1.365-41.652-8.441-52.765-26.342-11.728-18.891-13.046-42.787-2.205-62.201 11.105-19.887 32.198-32.787 54.97-32.291 22.005.479 41.506 14.728 50.975 34.597 8.371 17.565 13.021 40.985 3.12 57.735-9.668 16.356-35.135 27.271-54.095 28.502M487.31711 52.26693l11.37266-49.26042 42.94227 38.73956ZM58.34899 140.88598c-21.36.471-43.5-5.227-55.142-23.142-12.631-19.436-14.609-45.375-2.039-64.851 11.774-18.243 35.488-21.523 57.181-20.587 19.736.852 38.882 8.351 49.228 25.179 10.842 17.636 12.379 40.087 1.856 57.915-10.368 17.564-30.693 25.036-51.084 25.486M325.99282-35.18432 391.743-13.49404l-21.69027 65.75018-65.75018-21.69027ZM326.47065 171.02543c-13.1846.23042-25.48124-6.4237-32.42199-17.63567-7.33977-11.85547-9.24636-26.68112-2.60489-38.94123 6.94215-12.81649 20.45974-21.39548 35.02688-20.91496 13.87306.45803 24.83775 10.78625 31.23476 23.10397 5.87294 11.30611 5.62706 24.60452-.71796 35.6521-6.37031 11.09395-17.72559 18.5124-30.5168 18.7358M88.7703 241.0649l67.67922-21.97682 21.97682 67.67922-67.67922 21.97682zM154.26311 4.42497c.89249-10.05327 6.95279-18.87311 16.0482-23.24752 9.61749-4.62597 21.05549-4.87628 29.84856 1.17143 9.19217 6.32161 14.62668 17.30449 13.08113 28.35239-1.47222 10.52148-10.22094 18.03002-20.11388 21.90104-9.08057 3.55409-19.18188 2.28987-27.07613-3.434-7.92749-5.74688-12.65386-14.99006-11.78788-24.74334M534.98318 149.31407l39.75311-17.94542-2.84965 39.95878z" style="mix-blend-mode:normal;fill-rule:nonzero;stroke:none;stroke-width:1;stroke-linecap:butt;stroke-linejoin:miter;stroke-miterlimit:10;stroke-dasharray:none;stroke-dashoffset:0"/><g style="mix-blend-mode:normal;fill-rule:nonzero;stroke-linecap:butt;stroke-linejoin:miter;stroke-miterlimit:10;stroke-dasharray:none;stroke-dashoffset:0"><path fill="#fff" d="M234.35581 54.14003c22.94 0 41.56 18.586 41.56 41.531 0 12.894-5.88 24.411-15.09 32.031h9.19v71.438h-104.72l-2.031 12.38-28.531 6.15-4.906 4.94-21.219 4.03-1.4688-11.84 21.125-4.04 5.656 2.94 26.25-5 1.281-9.56h-11.031v-42.97h-6.656l-1.875 3.06-3.375.91-9.125-19h5.781l8.25 3.062.031.313h6.969v-3.844c-15.02-3.697-26.156-17.245-26.156-33.406 0-19.007 15.4-34.406 34.406-34.406 12.614 0 23.636 6.788 29.625 16.906l5.094-.969c3.279-19.665 20.37-34.656 40.97-34.656zm-42.8408 63.375c-1.153 3.703-2.902 7.138-5.156 10.187h21.531c-3.864-3.194-7.128-7.089-9.625-11.468zm62.745 70.935c0 2.07 1.68 3.75 3.76 3.75 2.07 0 3.74-1.68 3.74-3.75 0-2.07-1.67-3.75-3.74-3.75-2.08 0-3.76 1.68-3.76 3.75z"/><path fill="#ff80bf" d="M258.02014 184.65003c2.07 0 3.78987 1.73 3.78987 3.8s-1.71987 3.8-3.78987 3.8c-2.08 0-3.81013-1.73-3.81013-3.8s1.73013-3.8 3.81013-3.8z" data-paper-data="{&quot;noHover&quot;:false,&quot;origItem&quot;:[&quot;Path&quot;,{&quot;applyMatrix&quot;:true,&quot;segments&quot;:[[[179.26,188.45001],[0,-2.07],[0,2.07]],[[183.02,192.20001],[-2.08,0],[2.07,0]],[[186.76,188.45001],[0,2.07],[0,-2.07]],[[183.02,184.70001],[2.07,0],[-2.08,0]]],&quot;closed&quot;:true,&quot;fillColor&quot;:[0,0,0,1]}]}"/><path fill="#fff" d="M180.31001 216.23603v-14.036h71.985v14.036z"/><path fill="#ff80bf" d="M254.76001 94.71003c0 11.598-9.402 21-21 21s-21-9.402-21-21 9.402-21 21-21 21 9.402 21 21zM228.34599 83.2985c0 1.8794 1.5294 3.4089 3.4088 3.4089 1.8794 0 3.4089-1.5295 3.4089-3.4089s-1.5295-3.3906-3.4089-3.3906-3.4088 1.5112-3.4088 3.3906zm10.518 6.39853c0 1.8793 1.5294 3.4088 3.4088 3.4088 1.8794 0 3.4088-1.5294 3.4088-3.4088 0-1.8794-1.5294-3.4089-3.4088-3.4089-1.8794 0-3.4088 1.5295-3.4088 3.4089zm-18.55708 2.6797c0 1.8793 1.5295 3.4088 3.4089 3.4088s3.3906-1.5294 3.3906-3.4088c0-1.8794-1.5112-3.4089-3.3906-3.4089s-3.4089 1.5295-3.4089 3.4089zm17.318 9.2786c0 1.8794 1.5295 3.4089 3.4089 3.4089s3.4088-1.5295 3.4088-3.4089-1.5294-3.3906-3.4088-3.3906c-1.8794 0-3.4089 1.5112-3.4089 3.3906zm-12.5779 2.0599c0 1.8793 1.5294 3.4088 3.4088 3.4088 1.8794 0 3.4089-1.5294 3.4089-3.4088 0-1.8794-1.5295-3.3906-3.4089-3.3906s-3.4088 1.5112-3.4088 3.3906zM175.76001 105.71003c0 9.3888-7.6112 17-17 17s-17-7.6112-17-17 7.6112-17 17-17 17 7.6112 17 17zm-21.3828-9.2378c0 1.5215 1.2381 2.7596 2.7595 2.7596 1.5215 0 2.7596-1.2382 2.7596-2.7596 0-1.5214-1.2382-2.7448-2.7596-2.7448-1.5214 0-2.7595 1.2234-2.7595 2.7448zm8.5148 5.1797c0 1.5215 1.2381 2.7596 2.7595 2.7596 1.5215 0 2.7596-1.2382 2.7596-2.7596 0-1.5215-1.2382-2.7596-2.7596-2.7596-1.5214 0-2.7595 1.2382-2.7595 2.7596zm-15.02312 2.1693c0 1.5215 1.2382 2.7596 2.7596 2.7596 1.5214 0 2.7448-1.2382 2.7448-2.7596 0-1.5215-1.2234-2.7596-2.7448-2.7596-1.5215 0-2.7596 1.2382-2.7596 2.7596zm14.01902 7.5112c0 1.5215 1.2382 2.7596 2.7596 2.7596 1.5215 0 2.7596-1.2382 2.7596-2.7596 0-1.5214-1.2382-2.7448-2.7596-2.7448-1.5215 0-2.7596 1.2234-2.7596 2.7448zm-10.182 1.66749c0 1.5215 1.2382 2.7596 2.7596 2.7596 1.5215 0 2.7596-1.2382 2.7596-2.7596 0-1.5214-1.2382-2.7448-2.7596-2.7448-1.5215 0-2.7596 1.2234-2.7596 2.7448z"/><path fill="#fff" d="M198.66961 215.99882h6.4062l10.625 171.62 8.8438-171.62h6.4062l-11.781 227.84-6.3438.0312-14.156-227.88z"/><path fill="#fff" d="M225.97831 215.97753h5.5312l37.281 137.31-27.656-137.31h5.4375l43.438 215.38.0312.15625-5.1875 1.25-.0625-.1875-.0312-.15625-58.78-216.43zM185.73071 215.99253h5.4688l-27.125 134.62 36.562-134.62h5.5625l-58.094 213.75-.0312.15625-.0625.1875-5.1875-1.25.0312-.15625 42.875-212.69zM308.60401 122.29903v63.406l-22.63703-14.11685h-17.70697v-35.17229h17.70697l22.63274-14.11575z"/></g><path fill="#ff80bf" stroke="#fff" stroke-width="7.5" d="M486.87388 91.4373v117.1464c0 10.78232-8.74208 19.5244-19.5244 19.5244H350.20309c-10.78232 0-19.5244-8.74208-19.5244-19.5244V91.4373c0-10.78232 8.74208-19.5244 19.5244-19.5244h117.14639c10.78232 0 19.5244 8.74208 19.5244 19.5244z" style="mix-blend-mode:normal;fill-rule:nonzero;stroke-linecap:butt;stroke-linejoin:miter;stroke-miterlimit:10;stroke-dasharray:none;stroke-dashoffset:0"/><g stroke="#fff" style="mix-blend-mode:normal;fill-rule:nonzero;stroke-linecap:butt;stroke-linejoin:miter;stroke-miterlimit:10;stroke-dasharray:none;stroke-dashoffset:0"><path fill="#fff" d="M459.22252 204.25339c-1.03101 0-2.06203-.39401-2.85005-1.17876L355.76379 102.46266c-1.57279-1.57279-1.57279-4.12731 0-5.7001 1.57279-1.57279 4.12731-1.57279 5.7001 0l100.60868 100.60868c1.57279 1.57279 1.57279 4.12731 0 5.7001-.78804.78475-1.81905 1.18204-2.85005 1.18204z"/><path fill="#ff4da7" stroke-width="7.5" d="M400.20867 119.03748c0 12.24405-9.92591 22.16997-22.16997 22.16997-12.24405 0-22.16997-9.92591-22.16997-22.16997 0-12.24405 9.92591-22.16997 22.16997-22.16997 12.24405 0 22.16997 9.92591 22.16997 22.16997z"/><path fill="#ff4da7" stroke-width="7.5" d="M397.13559 164.80656c-11.91643-2.81384-19.29552-14.7551-16.48166-26.67151 2.81384-11.91643 14.7551-19.29552 26.67151-16.48166 11.91643 2.81384 19.29552 14.7551 16.48166 26.67151-2.81384 11.91643-14.7551 19.29552-26.67151 16.48166z"/><path fill="#ff4da7" stroke-width="7.5" d="M448.58398 167.40952c0 12.24405-9.9292 22.17324-22.17324 22.17324-12.24405 0-22.16997-9.9292-22.16997-22.17324 0-12.24405 9.92591-22.16997 22.16997-22.16997 12.24405 0 22.17324 9.9292 22.17324 22.16997z"/><path fill="#fff" d="M459.38618 204.41705c-1.03101 0-2.06203-.39401-2.85005-1.17876l-24.69166-24.69166c-1.57608-1.57279-1.57608-4.12731 0-5.7001 1.57608-1.57279 4.12402-1.57279 5.7001 0l24.69166 24.69166c1.57279 1.57279 1.57279 4.12731 0 5.7001-.78804.78147-1.81905 1.17876-2.85005 1.17876z"/></g></svg>