<svg width="600" height="300" viewBox="0 0 600 300" fill="none" xmlns="http://www.w3.org/2000/svg">
<g clip-path="url(#clip0_107_2)">
<rect width="600" height="300" fill="#631EA0"/>
<circle cx="300" cy="150" r="40" stroke="white" stroke-opacity="0.1" stroke-width="40"/>
<circle cx="300" cy="150" r="120" stroke="white" stroke-opacity="0.1" stroke-width="40"/>
<circle cx="300" cy="150" r="200" stroke="white" stroke-opacity="0.1" stroke-width="40"/>
<circle cx="300" cy="150" r="279" stroke="white" stroke-opacity="0.1" stroke-width="40"/>
<circle cx="300" cy="150" r="359" stroke="white" stroke-opacity="0.1" stroke-width="40"/>
<path fill-rule="evenodd" clip-rule="evenodd" d="M440.272 191.773L440.279 191.771C441.983 191.314 443.314 189.983 443.771 188.279L443.773 188.272L446.923 176.557L446.926 176.547C451.074 161.187 472.922 161.113 477.075 176.551C477.076 176.552 477.076 176.553 477.076 176.554C477.077 176.557 477.078 176.56 477.078 176.563L480.233 188.265L480.237 188.278C480.694 189.982 482.024 191.314 483.727 191.772C483.728 191.772 483.728 191.773 483.729 191.773L495.443 194.923L495.453 194.925C510.845 199.082 510.853 220.926 495.451 225.083L495.443 225.085L483.729 228.235C482.025 228.693 480.694 230.024 480.236 231.728L480.235 231.732L477.079 243.441C477.078 243.442 477.078 243.443 477.078 243.444C477.077 243.445 477.077 243.447 477.077 243.448C472.923 258.878 451.077 258.821 446.926 243.453L446.923 243.443L443.773 231.73C443.773 231.73 443.773 231.729 443.773 231.729C443.773 231.729 443.773 231.729 443.773 231.729C443.314 230.025 441.983 228.695 440.279 228.238L440.273 228.236L428.557 225.086L428.546 225.083C413.155 220.926 413.147 199.083 428.547 194.926L428.556 194.924L440.272 191.773ZM467.421 240.846L470.579 229.13C471.964 223.983 475.985 219.963 481.132 218.578L492.846 215.428C498.385 213.933 498.385 206.076 492.846 204.58L481.131 201.429C475.981 200.044 471.959 196.019 470.578 190.868L467.42 179.154C465.934 173.615 458.076 173.615 456.58 179.154L453.43 190.869C452.048 196.022 448.023 200.047 442.87 201.429L431.153 204.581C425.616 206.076 425.616 213.933 431.153 215.429L442.87 218.579C448.02 219.961 452.045 223.982 453.43 229.132L456.58 240.846C458.076 246.385 465.933 246.385 467.421 240.846Z" fill="black" fill-opacity="0.2"/>
<path fill-rule="evenodd" clip-rule="evenodd" d="M442.87 201.429C448.023 200.047 452.048 196.022 453.43 190.869L456.58 179.154C458.076 173.615 465.934 173.615 467.42 179.154L470.578 190.868C471.959 196.019 475.981 200.044 481.131 201.429L492.846 204.58C498.385 206.076 498.385 213.933 492.846 215.428L481.132 218.578C475.985 219.963 471.964 223.983 470.579 229.13L467.421 240.846C465.933 246.385 458.076 246.385 456.58 240.846L453.43 229.132C452.045 223.982 448.02 219.961 442.87 218.579L431.153 215.429C425.616 213.933 425.616 206.076 431.153 204.581L442.87 201.429Z" fill="white"/>
<path fill-rule="evenodd" clip-rule="evenodd" d="M471.354 107.354L464.895 109.092L464.886 109.094C451.701 112.653 451.709 131.353 464.884 134.912L464.895 134.915L471.356 136.652L473.091 143.105L473.094 143.115C476.647 156.27 495.356 156.325 498.91 143.104C498.91 143.104 498.91 143.103 498.91 143.103L500.649 136.65L507.104 134.914L507.113 134.912C520.299 131.353 520.291 112.652 507.115 109.094L507.104 109.091L500.65 107.355L498.91 100.901C498.91 100.9 498.91 100.898 498.909 100.897C495.356 87.667 476.644 87.7389 473.094 100.885L473.091 100.896L471.354 107.354ZM489.252 103.493C488.36 100.169 483.646 100.169 482.748 103.493L482.242 105.373L482.24 105.383L481.251 109.058L480.858 110.522C480.847 110.563 480.835 110.605 480.823 110.646C479.975 113.639 477.634 115.978 474.641 116.825C474.601 116.836 474.562 116.847 474.522 116.858L473.049 117.254L469.388 118.239L469.379 118.241L467.492 118.749C464.169 119.645 464.169 124.36 467.492 125.258L469.379 125.765L469.387 125.767L473.051 126.752L474.522 127.148C474.562 127.159 474.602 127.17 474.642 127.181C477.633 128.028 479.973 130.365 480.824 133.355C480.835 133.397 480.847 133.438 480.858 133.479L481.252 134.944L482.24 138.617L482.241 138.624L482.748 140.508C483.646 143.831 488.36 143.831 489.253 140.508L489.761 138.622L489.763 138.613L490.75 134.953L491.147 133.478C491.158 133.438 491.169 133.398 491.181 133.358C492.03 130.368 494.368 128.03 497.358 127.181C497.398 127.169 497.438 127.158 497.479 127.147L498.95 126.752L502.612 125.767L502.62 125.764L504.507 125.257C507.831 124.36 507.831 119.645 504.507 118.748L502.62 118.24L502.613 118.239L498.949 117.253L497.478 116.858C497.438 116.847 497.398 116.836 497.358 116.824C494.366 115.975 492.028 113.635 491.18 110.643C491.169 110.603 491.158 110.562 491.147 110.521L490.749 109.047L489.763 105.387L489.76 105.378L489.252 103.493ZM479.597 106.096L479.593 106.084L479.593 106.084" fill="black" fill-opacity="0.2"/>
<path fill-rule="evenodd" clip-rule="evenodd" d="M474.522 116.858C477.614 116.028 480.029 113.613 480.858 110.522L482.748 103.493C483.646 100.169 488.36 100.169 489.252 103.493L491.147 110.521C491.975 113.612 494.388 116.026 497.478 116.858L504.507 118.748C507.831 119.645 507.831 124.36 504.507 125.257L497.479 127.147C494.391 127.978 491.978 130.39 491.147 133.478L489.253 140.508C488.36 143.831 483.646 143.831 482.748 140.508L480.858 133.479C480.027 130.39 477.612 127.977 474.522 127.148L467.492 125.258C464.169 124.36 464.169 119.645 467.492 118.749L474.522 116.858Z" fill="white"/>
<path fill-rule="evenodd" clip-rule="evenodd" d="M90.6888 126.805L90.6956 126.803C91.2361 126.658 91.6583 126.236 91.8033 125.695L91.8049 125.689L94.2439 116.619L94.2467 116.609C98.0571 102.5 118.131 102.426 121.948 116.613C121.949 116.614 121.949 116.615 121.949 116.616C121.95 116.619 121.951 116.622 121.951 116.625L124.393 125.682L124.397 125.695C124.542 126.236 124.964 126.659 125.504 126.805C125.505 126.805 125.505 126.805 125.505 126.805C125.505 126.805 125.505 126.805 125.506 126.805L134.574 129.244L134.585 129.247C148.726 133.066 148.734 153.135 134.583 156.954L134.574 156.956L125.506 159.395C124.964 159.541 124.541 159.964 124.395 160.506L124.394 160.51L121.951 169.573C121.951 169.574 121.951 169.574 121.951 169.575C118.138 183.76 98.06 183.705 94.2467 169.585L94.244 169.575L91.8052 160.507C91.8051 160.507 91.8051 160.507 91.8051 160.507C91.8051 160.506 91.805 160.506 91.805 160.506C91.6592 159.965 91.2365 159.543 90.6955 159.398L90.6896 159.396L81.619 156.957L81.6078 156.954C67.4677 153.135 67.4599 133.066 81.6096 129.247L81.6181 129.245L90.6888 126.805ZM101.462 157.909L102.92 163.331L102.958 163.471L103.245 164.539L103.247 164.547L103.901 166.978C105.059 171.266 111.142 171.266 112.294 166.978L112.95 164.544L112.953 164.533L113.238 163.475L113.276 163.334L114.739 157.907C115.811 153.923 118.924 150.81 122.908 149.739L128.34 148.278L128.479 148.24L129.531 147.957L129.543 147.954L131.977 147.3C136.266 146.142 136.266 140.059 131.977 138.901L129.543 138.246L129.533 138.243L128.479 137.96L128.34 137.922L122.908 136.462C118.921 135.389 115.807 132.273 114.738 128.285L113.276 122.862L113.238 122.72L112.952 121.661L112.949 121.649L112.293 119.216C111.142 114.928 105.059 114.928 103.901 119.216L103.248 121.643L103.245 121.656L102.957 122.724L102.92 122.865L101.462 128.286C100.392 132.275 97.2757 135.392 93.2863 136.462L87.8526 137.923L87.714 137.96L86.6621 138.243L86.65 138.247L84.2156 138.902C79.9281 140.059 79.9281 146.142 84.2156 147.3L86.6509 147.955L86.6601 147.958L87.7146 148.241L87.8531 148.279L93.2863 149.739C97.2738 150.809 100.389 153.922 101.462 157.909Z" fill="black" fill-opacity="0.2"/>
<path fill-rule="evenodd" clip-rule="evenodd" d="M93.2863 136.462C97.2757 135.392 100.392 132.275 101.462 128.286L103.901 119.216C105.059 114.928 111.142 114.928 112.293 119.216L114.738 128.285C115.807 132.273 118.921 135.389 122.908 136.462L131.977 138.901C136.266 140.059 136.266 146.142 131.977 147.3L122.908 149.739C118.924 150.81 115.811 153.923 114.739 157.907L112.294 166.978C111.142 171.266 105.059 171.266 103.901 166.978L101.462 157.909C100.389 153.922 97.2738 150.809 93.2863 149.739L84.2156 147.3C79.9281 146.142 79.9281 140.059 84.2156 138.901L93.2863 136.462Z" fill="white"/>
<mask id="path-12-outside-1_107_2" maskUnits="userSpaceOnUse" x="186" y="41" width="228" height="217" fill="black">
<rect fill="white" x="186" y="41" width="228" height="217"/>
<path fill-rule="evenodd" clip-rule="evenodd" d="M216 91C224.955 91 232.536 85.1142 235.084 77H257.105C235.245 89.0471 218.993 110.017 213.256 135H204C199.582 135 196 138.582 196 143V167C196 171.418 199.582 175 204 175H228C232.418 175 236 171.418 236 167V143C236 138.582 232.418 135 228 135H223.554C230.744 107.441 252.441 85.7436 280 78.5536V83C280 87.4183 283.582 91 288 91H312C316.418 91 320 87.4183 320 83V78.5536C347.559 85.7436 369.256 107.441 376.446 135H372C367.582 135 364 138.582 364 143V167C364 171.418 367.582 175 372 175H396C400.418 175 404 171.418 404 167V143C404 138.582 400.418 135 396 135H386.744C381.007 110.017 364.755 89.0471 342.895 77H364.916C367.464 85.1142 375.045 91 384 91C395.046 91 404 82.0457 404 71C404 59.9543 395.046 51 384 51C375.045 51 367.464 56.8858 364.916 65H320V59C320 54.5817 316.418 51 312 51H288C283.582 51 280 54.5817 280 59V65H235.084C232.536 56.8858 224.955 51 216 51C204.954 51 196 59.9543 196 71C196 82.0457 204.954 91 216 91ZM268.499 189.728L280.662 210H319.338L331.501 189.728L305 140.424V170.854C310.826 172.913 315 178.469 315 185C315 193.284 308.284 200 300 200C291.716 200 285 193.284 285 185C285 178.469 289.174 172.913 295 170.854V140.424L268.499 189.728ZM257 190L269 210H263C259.686 210 257 212.686 257 216V242C257 245.314 259.686 248 263 248H337C340.314 248 343 245.314 343 242V216C343 212.686 340.314 210 337 210H331L343 190L305.676 120.561L300 110L294.324 120.561L257 190ZM267 220H275H325H333V238H267V220ZM305 185C305 187.761 302.761 190 300 190C297.239 190 295 187.761 295 185C295 182.239 297.239 180 300 180C302.761 180 305 182.239 305 185Z"/>
</mask>
<path fill-rule="evenodd" clip-rule="evenodd" d="M216 91C224.955 91 232.536 85.1142 235.084 77H257.105C235.245 89.0471 218.993 110.017 213.256 135H204C199.582 135 196 138.582 196 143V167C196 171.418 199.582 175 204 175H228C232.418 175 236 171.418 236 167V143C236 138.582 232.418 135 228 135H223.554C230.744 107.441 252.441 85.7436 280 78.5536V83C280 87.4183 283.582 91 288 91H312C316.418 91 320 87.4183 320 83V78.5536C347.559 85.7436 369.256 107.441 376.446 135H372C367.582 135 364 138.582 364 143V167C364 171.418 367.582 175 372 175H396C400.418 175 404 171.418 404 167V143C404 138.582 400.418 135 396 135H386.744C381.007 110.017 364.755 89.0471 342.895 77H364.916C367.464 85.1142 375.045 91 384 91C395.046 91 404 82.0457 404 71C404 59.9543 395.046 51 384 51C375.045 51 367.464 56.8858 364.916 65H320V59C320 54.5817 316.418 51 312 51H288C283.582 51 280 54.5817 280 59V65H235.084C232.536 56.8858 224.955 51 216 51C204.954 51 196 59.9543 196 71C196 82.0457 204.954 91 216 91ZM268.499 189.728L280.662 210H319.338L331.501 189.728L305 140.424V170.854C310.826 172.913 315 178.469 315 185C315 193.284 308.284 200 300 200C291.716 200 285 193.284 285 185C285 178.469 289.174 172.913 295 170.854V140.424L268.499 189.728ZM257 190L269 210H263C259.686 210 257 212.686 257 216V242C257 245.314 259.686 248 263 248H337C340.314 248 343 245.314 343 242V216C343 212.686 340.314 210 337 210H331L343 190L305.676 120.561L300 110L294.324 120.561L257 190ZM267 220H275H325H333V238H267V220ZM305 185C305 187.761 302.761 190 300 190C297.239 190 295 187.761 295 185C295 182.239 297.239 180 300 180C302.761 180 305 182.239 305 185Z" fill="white"/>
<path d="M235.084 77V67H227.744L225.544 74.0035L235.084 77ZM257.105 77L261.932 85.7581L257.105 67V77ZM213.256 135V145H221.22L223.002 137.238L213.256 135ZM223.554 135L213.878 132.476L210.61 145H223.554V135ZM280 78.5536H290V65.6099L277.476 68.8775L280 78.5536ZM320 78.5536L322.524 68.8775L310 65.6099V78.5536H320ZM376.446 135V145H389.39L386.122 132.476L376.446 135ZM386.744 135L376.998 137.238L378.78 145H386.744V135ZM342.895 77V67L338.068 85.7581L342.895 77ZM364.916 77L374.456 74.0035L372.256 67H364.916V77ZM364.916 65V75H372.256L374.456 67.9965L364.916 65ZM320 65H310V75H320V65ZM280 65V75H290V65H280ZM235.084 65L225.544 67.9965L227.744 75H235.084V65ZM280.662 210L272.087 215.145L275 220H280.662V210ZM268.499 189.728L259.691 184.994L257 190L259.924 194.873L268.499 189.728ZM319.338 210V220H325L327.913 215.145L319.338 210ZM331.501 189.728L340.076 194.873L343 190L340.309 184.994L331.501 189.728ZM305 140.424L313.808 135.69L295 140.424H305ZM305 170.854H295V177.925L301.668 180.282L305 170.854ZM295 170.854L298.332 180.282L305 177.925V170.854H295ZM295 140.424H305L286.192 135.69L295 140.424ZM269 210V220H286.662L277.575 204.855L269 210ZM257 190L248.192 185.266L245.501 190.272L248.425 195.145L257 190ZM331 210L322.425 204.855L313.338 220H331V210ZM343 190L351.575 195.145L354.499 190.272L351.808 185.266L343 190ZM305.676 120.561L296.868 125.295L296.868 125.295L305.676 120.561ZM300 110L308.808 105.266L300 88.8781L291.192 105.266L300 110ZM294.324 120.561L303.132 125.295L303.132 125.295L294.324 120.561ZM267 220V210H257V220H267ZM333 220H343V210H333V220ZM333 238V248H343V238H333ZM267 238H257V248H267V238ZM225.544 74.0035C224.267 78.0697 220.463 81 216 81V101C229.448 101 240.805 92.1588 244.625 79.9965L225.544 74.0035ZM257.105 67H235.084V87H257.105V67ZM223.002 137.238C228.089 115.088 242.512 96.4605 261.932 85.7581L252.279 68.2419C227.979 81.6337 209.897 104.945 203.51 132.762L223.002 137.238ZM204 145H213.256V125H204V145ZM206 143C206 144.105 205.105 145 204 145V125C194.059 125 186 133.059 186 143H206ZM206 167V143H186V167H206ZM204 165C205.105 165 206 165.895 206 167H186C186 176.941 194.059 185 204 185V165ZM228 165H204V185H228V165ZM226 167C226 165.895 226.895 165 228 165V185C237.941 185 246 176.941 246 167H226ZM226 143V167H246V143H226ZM228 145C226.895 145 226 144.105 226 143H246C246 133.059 237.941 125 228 125V145ZM223.554 145H228V125H223.554V145ZM277.476 68.8775C246.414 76.9813 221.981 101.414 213.878 132.476L233.23 137.524C239.506 113.468 258.468 94.5059 282.524 88.2297L277.476 68.8775ZM290 83V78.5536H270V83H290ZM288 81C289.105 81 290 81.8954 290 83H270C270 92.9411 278.059 101 288 101V81ZM312 81H288V101H312V81ZM310 83C310 81.8954 310.895 81 312 81V101C321.941 101 330 92.9411 330 83H310ZM310 78.5536V83H330V78.5536H310ZM386.122 132.476C378.019 101.414 353.586 76.9813 322.524 68.8775L317.476 88.2297C341.532 94.5059 360.494 113.468 366.77 137.524L386.122 132.476ZM372 145H376.446V125H372V145ZM374 143C374 144.105 373.105 145 372 145V125C362.059 125 354 133.059 354 143H374ZM374 167V143H354V167H374ZM372 165C373.105 165 374 165.895 374 167H354C354 176.941 362.059 185 372 185V165ZM396 165H372V185H396V165ZM394 167C394 165.895 394.895 165 396 165V185C405.941 185 414 176.941 414 167H394ZM394 143V167H414V143H394ZM396 145C394.895 145 394 144.105 394 143H414C414 133.059 405.941 125 396 125V145ZM386.744 145H396V125H386.744V145ZM338.068 85.7581C357.488 96.4605 371.911 115.088 376.998 137.238L396.49 132.762C390.103 104.945 372.021 81.6337 347.721 68.2419L338.068 85.7581ZM364.916 67H342.895V87H364.916V67ZM384 81C379.537 81 375.733 78.0697 374.456 74.0035L355.375 79.9965C359.195 92.1588 370.552 101 384 101V81ZM394 71C394 76.5228 389.523 81 384 81V101C400.569 101 414 87.5685 414 71H394ZM384 61C389.523 61 394 65.4771 394 71H414C414 54.4315 400.569 41 384 41V61ZM374.456 67.9965C375.733 63.9303 379.537 61 384 61V41C370.552 41 359.195 49.8412 355.375 62.0035L374.456 67.9965ZM320 75H364.916V55H320V75ZM310 59V65H330V59H310ZM312 61C310.895 61 310 60.1046 310 59H330C330 49.0589 321.941 41 312 41V61ZM288 61H312V41H288V61ZM290 59C290 60.1046 289.105 61 288 61V41C278.059 41 270 49.0589 270 59H290ZM290 65V59H270V65H290ZM235.084 75H280V55H235.084V75ZM216 61C220.463 61 224.267 63.9303 225.544 67.9965L244.625 62.0035C240.805 49.8412 229.448 41 216 41V61ZM206 71C206 65.4772 210.477 61 216 61V41C199.431 41 186 54.4315 186 71H206ZM216 81C210.477 81 206 76.5228 206 71H186C186 87.5685 199.431 101 216 101V81ZM289.237 204.855L277.074 184.583L259.924 194.873L272.087 215.145L289.237 204.855ZM319.338 200H280.662V220H319.338V200ZM322.926 184.583L310.763 204.855L327.913 215.145L340.076 194.873L322.926 184.583ZM296.192 145.159L322.693 194.463L340.309 184.994L313.808 135.69L296.192 145.159ZM315 170.854V140.424H295V170.854H315ZM325 185C325 174.099 318.029 164.852 308.332 161.425L301.668 180.282C303.623 180.973 305 182.839 305 185H325ZM300 210C313.807 210 325 198.807 325 185H305C305 187.761 302.761 190 300 190V210ZM275 185C275 198.807 286.193 210 300 210V190C297.239 190 295 187.761 295 185H275ZM291.668 161.425C281.971 164.852 275 174.099 275 185H295C295 182.839 296.377 180.973 298.332 180.282L291.668 161.425ZM285 140.424V170.854H305V140.424H285ZM277.307 194.463L303.808 145.159L286.192 135.69L259.691 184.994L277.307 194.463ZM277.575 204.855L265.575 184.855L248.425 195.145L260.425 215.145L277.575 204.855ZM263 220H269V200H263V220ZM267 216C267 218.209 265.209 220 263 220V200C254.163 200 247 207.163 247 216H267ZM267 242V216H247V242H267ZM263 238C265.209 238 267 239.791 267 242H247C247 250.837 254.163 258 263 258V238ZM337 238H263V258H337V238ZM333 242C333 239.791 334.791 238 337 238V258C345.837 258 353 250.837 353 242H333ZM333 216V242H353V216H333ZM337 220C334.791 220 333 218.209 333 216H353C353 207.163 345.837 200 337 200V220ZM331 220H337V200H331V220ZM334.425 184.855L322.425 204.855L339.575 215.145L351.575 195.145L334.425 184.855ZM296.868 125.295L334.192 194.734L351.808 185.266L314.485 115.826L296.868 125.295ZM291.192 114.734L296.868 125.295L314.485 115.827L308.808 105.266L291.192 114.734ZM303.132 125.295L308.808 114.734L291.192 105.266L285.515 115.826L303.132 125.295ZM265.808 194.734L303.132 125.295L285.515 115.826L248.192 185.266L265.808 194.734ZM275 210H267V230H275V210ZM325 210H275V230H325V210ZM333 210H325V230H333V210ZM343 238V220H323V238H343ZM267 248H333V228H267V248ZM257 220V238H277V220H257ZM300 200C308.284 200 315 193.284 315 185H295C295 182.239 297.239 180 300 180V200ZM285 185C285 193.284 291.716 200 300 200V180C302.761 180 305 182.239 305 185H285ZM300 170C291.716 170 285 176.716 285 185H305C305 187.761 302.761 190 300 190V170ZM315 185C315 176.716 308.284 170 300 170V190C297.239 190 295 187.761 295 185H315Z" fill="black" fill-opacity="0.2" mask="url(#path-12-outside-1_107_2)"/>
<path d="M277.831 215L262.749 189.864L300 120.561L337.251 189.864L322.169 215H277.831Z" stroke="white" stroke-width="10"/>
<mask id="path-15-inside-2_107_2" fill="white">
<rect x="257" y="210" width="86" height="38" rx="6"/>
</mask>
<rect x="257" y="210" width="86" height="38" rx="6" stroke="white" stroke-width="20" mask="url(#path-15-inside-2_107_2)"/>
<circle cx="300" cy="185" r="10" stroke="white" stroke-width="10"/>
<path d="M300 126V172.5" stroke="white" stroke-width="10"/>
<rect x="210" y="65" width="180" height="12" rx="6" fill="white"/>
<circle cx="216" cy="71" r="15" fill="#FF0000" stroke="white" stroke-width="10"/>
<circle cx="384" cy="71" r="15" fill="#FF0000" stroke="white" stroke-width="10"/>
<path d="M384 155C384 108.608 346.392 71 300 71C253.608 71 216 108.608 216 155" stroke="white" stroke-width="10" stroke-linecap="round"/>
<mask id="path-22-inside-3_107_2" fill="white">
<rect x="280" y="51" width="40" height="40" rx="8"/>
</mask>
<rect x="280" y="51" width="40" height="40" rx="8" fill="#FFAE00" stroke="white" stroke-width="20" mask="url(#path-22-inside-3_107_2)"/>
<mask id="path-23-inside-4_107_2" fill="white">
<rect x="196" y="135" width="40" height="40" rx="8"/>
</mask>
<rect x="196" y="135" width="40" height="40" rx="8" fill="#FFAE00" stroke="white" stroke-width="20" mask="url(#path-23-inside-4_107_2)"/>
<mask id="path-24-inside-5_107_2" fill="white">
<rect x="364" y="135" width="40" height="40" rx="8"/>
</mask>
<rect x="364" y="135" width="40" height="40" rx="8" fill="#FFAE00" stroke="white" stroke-width="20" mask="url(#path-24-inside-5_107_2)"/>
</g>
<defs>
<clipPath id="clip0_107_2">
<rect width="600" height="300" fill="white"/>
</clipPath>
</defs>
</svg>
