<svg xmlns="http://www.w3.org/2000/svg" width="600" height="300"><path fill="#0e8f0e" d="M0 300V0h600v300z" style="mix-blend-mode:normal;fill-rule:nonzero;stroke-linejoin:miter;stroke-miterlimit:10;stroke-dasharray:none;stroke-dashoffset:0"/><g stroke-width="0" style="mix-blend-mode:normal;fill-rule:nonzero;stroke-linejoin:miter;stroke-miterlimit:10;stroke-dasharray:none;stroke-dashoffset:0"><path fill="#0a770a" d="M12.60734725 165.902888c0-175.94108413 129.6962829-318.56952114 289.68476972-318.56952114 159.9884768 0 289.68476972 142.628426 289.68476972 318.56952114 0 175.94108413-129.6962829 318.56952114-289.68476972 318.56952114-159.9884768 0-289.68476972-142.628426-289.68476972-318.56952114Z"/><path fill="#0e8f0e" d="M35.39167029 165.902888c0-162.10294903 119.49539898-293.513351 266.90044668-293.513351S569.19256365 3.79993898 569.19256365 165.902888 449.69716467 459.416239 302.29211697 459.416239 35.39167029 328.00583702 35.39167029 165.902888Z"/></g><path fill="#0a770a" d="M91.110802 165.90289c0-128.261727 94.549098-232.238413 211.181318-232.238413 116.63221 0 211.18131 103.976686 211.18131 232.238413 0 128.26172-94.5491 232.23841-211.18131 232.23841-116.63222 0-211.181318-103.97669-211.181318-232.23841z" style="mix-blend-mode:normal;fill-rule:nonzero;stroke-linejoin:miter;stroke-miterlimit:10;stroke-dasharray:none;stroke-dashoffset:0"/><path fill="#0e8f0e" d="M113.77847 165.90289c0-114.49442 84.40045-207.310522 188.51364-207.310522S490.80575 51.40847 490.80575 165.90289c0 114.49442-84.40045 207.31052-188.51364 207.31052s-188.51364-92.8161-188.51364-207.31052z" style="mix-blend-mode:normal;fill-rule:nonzero;stroke-linejoin:miter;stroke-miterlimit:10;stroke-dasharray:none;stroke-dashoffset:0"/><path fill="#0a770a" d="M176.58993 165.90289c0-76.345661 56.2788-138.236072 125.70219-138.236072 69.42338 0 125.70218 61.890411 125.70218 138.236072 0 76.34566-56.2788 138.23607-125.70218 138.23607-69.42339 0-125.70219-61.89041-125.70219-138.23607z" style="mix-blend-mode:normal;fill-rule:nonzero;stroke-linejoin:miter;stroke-miterlimit:10;stroke-dasharray:none;stroke-dashoffset:0"/><path fill="#0e8f0e" d="M200.04665 165.90289c0-62.09915 45.77688-112.44046 102.24547-112.44046s102.24546 50.34133 102.24546 112.44046c0 62.09915-45.77687 112.44046-102.24546 112.44046-56.46861 0-102.24547-50.34134-102.24547-112.44046z" style="mix-blend-mode:normal;fill-rule:nonzero;stroke-linejoin:miter;stroke-miterlimit:10;stroke-dasharray:none;stroke-dashoffset:0"/><path fill="#0e8f0e" d="m201.14739 280.44259-18.16288-36.93293 41.76498-24.83939 18.16289 36.93293z" style="mix-blend-mode:normal;fill-rule:nonzero;stroke-linejoin:miter;stroke-miterlimit:10;stroke-dasharray:none;stroke-dashoffset:0"/><path fill="#0e8f0e" d="m240.02146 292.95834-38.34556-17.12357 21.29904-47.67644 38.34555 17.12359zm-176.183049-50.6993 90.517499-44.19559 26.88278 100.21932-90.517481 44.19558z" style="mix-blend-mode:normal;fill-rule:nonzero;stroke-linejoin:miter;stroke-miterlimit:10;stroke-dasharray:none;stroke-dashoffset:0"/><path fill="#0e8f0e" d="M10.736504 317.65142V119.67088h59.927872v197.98054z" style="mix-blend-mode:normal;fill-rule:nonzero;stroke-linejoin:miter;stroke-miterlimit:10;stroke-dasharray:none;stroke-dashoffset:0"/><path fill="none" stroke="#0a770a" stroke-linecap="round" stroke-width="24.1668" d="m74.274856 222.71903 64.795424-15.50419m99.77547 106.06985 28.03352-66.08645" style="mix-blend-mode:normal;fill-rule:nonzero;stroke-linejoin:miter;stroke-miterlimit:10;stroke-dasharray:none;stroke-dashoffset:0"/><path fill="#0e8f0e" d="M317.09025 328.921v-74.58175h65.06999V328.921Z" style="mix-blend-mode:normal;fill-rule:nonzero;stroke-linejoin:miter;stroke-miterlimit:10;stroke-dasharray:none;stroke-dashoffset:0"/><path fill="none" stroke="#0a770a" stroke-linecap="round" stroke-width="24.1668" d="m309.40204 328.0635-2.61444-72.86679m51.57805-24.60927 45.92176 52.60721" style="mix-blend-mode:normal;fill-rule:nonzero;stroke-linejoin:miter;stroke-miterlimit:10;stroke-dasharray:none;stroke-dashoffset:0"/><path fill="#0e8f0e" d="M296.59629 74.554849V10.778337h76.28959v63.776512z" style="mix-blend-mode:normal;fill-rule:nonzero;stroke-linejoin:miter;stroke-miterlimit:10;stroke-dasharray:none;stroke-dashoffset:0"/><path fill="#0e8f0e" d="m199.86692-29.792825 22.16113-79.314415 233.80853 79.005418-22.16113 79.314412z" style="mix-blend-mode:normal;fill-rule:nonzero;stroke-linejoin:miter;stroke-miterlimit:10;stroke-dasharray:none;stroke-dashoffset:0"/><path fill="none" stroke="#0a770a" stroke-linecap="round" stroke-width="24.1668" d="m350.22168 94.021196 39.69991-58.410413" style="mix-blend-mode:normal;fill-rule:nonzero;stroke-linejoin:miter;stroke-miterlimit:10;stroke-dasharray:none;stroke-dashoffset:0"/><path fill="#0e8f0e" d="M525.20274 105.71212 479.00589 6.0802007l63.10759-35.3877187 46.19685 99.631919Z" style="mix-blend-mode:normal;fill-rule:nonzero;stroke-linejoin:miter;stroke-miterlimit:10;stroke-dasharray:none;stroke-dashoffset:0"/><path fill="none" stroke="#0a770a" stroke-linecap="round" stroke-width="24.1668" d="m296.37587 76.903603-4.34138-72.7670212M131.57833 342.47835l48.56476-49.65383m13.11292-355.217194 30.25524 64.8907113" style="mix-blend-mode:normal;fill-rule:nonzero;stroke-linejoin:miter;stroke-miterlimit:10;stroke-dasharray:none;stroke-dashoffset:0"/><path fill="#0e8f0e" d="m445.30794 272.70732 25.52314-67.13585 65.47252 30.10203-25.52314 67.13585z" style="mix-blend-mode:normal;fill-rule:nonzero;stroke-linejoin:miter;stroke-miterlimit:10;stroke-dasharray:none;stroke-dashoffset:0"/><path fill="none" stroke="#0a770a" stroke-linecap="round" stroke-width="24.1668" d="m444.94118 264.31148 55.91912 39.19458m28.52694-77.88089-64.61855-16.37253" style="mix-blend-mode:normal;fill-rule:nonzero;stroke-linejoin:miter;stroke-miterlimit:10;stroke-dasharray:none;stroke-dashoffset:0"/><path fill="#0e8f0e" d="M526.35684 142.71173V30.874886h70.83827V142.71173Z" style="mix-blend-mode:normal;fill-rule:nonzero;stroke-linejoin:miter;stroke-miterlimit:10;stroke-dasharray:none;stroke-dashoffset:0"/><path fill="none" stroke="#0a770a" stroke-linecap="round" stroke-width="24.1668" d="m613.47663 134.94793-66.05791 6.37105M502.73582 8.5080137l54.54639-41.4680387M171.00458 239.55117l59.11173-33.04653M60.131542 119.67088l-65.4237131-11.89262M29.54894 333.03085l57.909731-35.52726" style="mix-blend-mode:normal;fill-rule:nonzero;stroke-linejoin:miter;stroke-miterlimit:10;stroke-dasharray:none;stroke-dashoffset:0"/><path fill="#0e8f0e" d="M421.12364 69.08903v-83.19365h70.2947v83.19365z" style="mix-blend-mode:normal;fill-rule:nonzero;stroke-linejoin:miter;stroke-miterlimit:10;stroke-dasharray:none;stroke-dashoffset:0"/><path fill="none" stroke="#0a770a" stroke-linecap="round" stroke-width="24.1668" d="m453.46843 85.391241 59.70707-31.725857" style="mix-blend-mode:normal;fill-rule:nonzero;stroke-linejoin:miter;stroke-miterlimit:10;stroke-dasharray:none;stroke-dashoffset:0"/><path d="M288.60443 132.06116h48.7273v8.35585h-6.40312v31.2436q0 3.26968 1.08989 4.72287 1.13531 1.40778 3.63298 1.40778.68118 0 1.68025-.0908.99907-.13623 1.31695-.18165v6.03983q-1.58942.59036-3.26967.86283-1.68026.27247-3.36051.27247-5.44946 0-7.53842-2.95179-2.08897-2.99721-2.08897-10.98976v-30.33535h-18.75524v42.50583h-8.53749v-42.50583h-6.49395z" aria-label="π" style="font-size:93.0042px;font-family:&quot;Sans Serif&quot;;fill:#21de21;stroke:#21de21;stroke-width:4.65021;stroke-miterlimit:10" transform="scale(.95358788 1.048671)"/><path d="M148.21081 80.988998v25.294712h25.29471v7.7201h-25.29471v25.29471h-7.62928v-25.29471h-25.29471v-7.7201h25.29471V80.988998Z" aria-label="+" style="font-size:93.0046px;font-family:&quot;Sans Serif&quot;;fill:#21de21;stroke:#21de21;stroke-width:4.65023;stroke-miterlimit:10" transform="matrix(.94468965 -.14292553 .12996645 1.0388856 0 0)"/><path fill-opacity=".25098" d="M-160.19268 330.44472s306.48998-166.75825 306.4163-166.93324c-.0581-.138 174.5306 97.88653 175.27117 96.98028.16057-.1965 63.12734-81.65016 63.60161-82.19347.16793-.1924 76.07819 24.12056 76.08709 24.59902.005.26356 84.14281-21.55802 85.0196-21.89545.18065-.0695 106.47701 40.98162 108.56256 40.09646.57118-.24242 28.57355 157.72422 28.34403 158.40471-.35596 1.05537-843.3023-51.26697-843.3023-51.26697" style="mix-blend-mode:normal;fill-rule:nonzero;stroke-linejoin:miter;stroke-miterlimit:10;stroke-dasharray:none;stroke-dashoffset:0"/><path d="M208.33057 144.41796h8.58294v4.35959h-5.22242l-26.97497 72.93232h-2.99722l-14.48655-40.09915-5.67655 2.04356-1.13531-3.633 12.85171-4.45041 11.62557 32.19739z" aria-label="√" style="font-size:93.0046px;font-family:&quot;ヒラギノ角ゴ Pro W3&quot;,&quot;Hiragino Kaku Gothic Pro&quot;,Osaka,&quot;メイリオ&quot;,Meiryo,&quot;ＭＳ Ｐゴシック&quot;,&quot;MS PGothic&quot;;fill:#21de21;stroke:#21de21;stroke-width:4.65023;stroke-miterlimit:10" transform="matrix(.93538579 .20391631 -.18542719 1.028654 0 0)"/><path d="M-28.739553 447.89872h19.2547769v6.49395H-20.383706v69.9348h10.8989299v6.49395H-28.739553Z" aria-label="[" style="font-size:93.0042px;font-family:&quot;Sans Serif&quot;;fill:#21de21;stroke:#21de21;stroke-width:4.65021;stroke-miterlimit:10" transform="matrix(.13123179 -1.0386932 .94451472 .14431703 0 0)"/><path d="M511.04281 194.63916v8.9462q-5.22241-2.49767-9.85445-3.7238-4.63205-1.22613-8.94621-1.22613-7.49301 0-11.58011 2.90638-4.04169 2.90638-4.04169 8.26502 0 4.49581 2.67932 6.81184 2.72474 2.27061 10.26316 3.67838l5.54029 1.13531q10.26316 1.95272 15.12227 6.90266 4.90452 4.90451 4.90452 13.16954 0 9.85445-6.63019 14.94061-6.58477 5.08617-19.3456 5.08617-4.81369 0-10.26316-1.08989-5.40405-1.0899-11.21681-3.22427v-9.44574q5.5857 3.13344 10.94434 4.72287 5.35864 1.58943 10.53563 1.58943 7.85632 0 12.12506-3.08803 4.26875-3.08803 4.26875-8.80997 0-4.99534-3.08803-7.8109-3.04262-2.81556-10.0361-4.22334l-5.5857-1.08989q-10.26316-2.04355-14.84979-6.40312-4.58664-4.35957-4.58664-12.12506 0-8.99162 6.3123-14.16861 6.35771-5.17699 17.4837-5.17699 4.76828 0 9.71821.86283 4.94994.86283 10.12693 2.5885z" aria-label="S" style="font-size:93.0042px;font-family:&quot;Sans Serif&quot;;fill:#21de21;stroke:#21de21;stroke-width:4.65021;stroke-miterlimit:10" transform="matrix(.95344662 -.01804856 .0164121 1.0485157 0 0)"/></svg>