<svg xmlns="http://www.w3.org/2000/svg" width="600" height="300" viewBox="0 0 599.99998 299.99999"><path fill="#1bc21b" d="M0 300V0h600v300z" style="stroke-miterlimit:10;stroke-dasharray:none;stroke-dashoffset:0"/><path fill="#07a807" d="M169.19409 56.51894h27.62995l.10426.16074c.0608.0912 3.14095 5.42173 6.84667 11.85134 3.71006 6.42527 6.77282 11.73838 6.80757 11.79921.0738.12165.8124-1.17298-8.39324 14.74465-3.32342 5.74755-5.22189 9.03187-5.3305 9.22736l-.0738.13468h-13.76284c-7.56782 0-13.7889-.0174-13.81497-.0348-.0478-.0304-3.3799-5.78231-12.4943-21.55657-1.35543-2.34594-1.39019-2.4111-1.32502-2.51971.0348-.0608 3.11054-5.36959 6.82929-11.79486 3.7231-6.42961 6.81625-11.76011 6.87273-11.85134z" style="stroke-miterlimit:10;stroke-dasharray:none;stroke-dashoffset:0"/><path fill="none" stroke="#07a807" stroke-linejoin="bevel" stroke-width="200" d="m147 614.99997 72.77569-458.73122 41.31633 292.21371 50.16526-591.73374 52.76221 359.54241 71.32191-467.28288" style="stroke-miterlimit:10;stroke-dasharray:none;stroke-dashoffset:0"/><path fill="none" stroke="#6cf56c" stroke-linejoin="bevel" stroke-width="200" d="m180.94355 611.46215 55.34004-458.73122 31.41773 292.21371 38.14663-591.73374 40.12139 359.54241 54.23454-467.28288" style="stroke-miterlimit:10;stroke-dasharray:none;stroke-dashoffset:0"/><path fill="#07a807" d="M35.91656 27.51108h26.48126l.09993.15406c.05829.0874 3.01038 5.19633 6.56202 11.35863 3.55581 6.15814 6.49124 11.25038 6.52455 11.30867.07078.11659.77862-1.1242-8.04431 14.13167-3.18524 5.5086-5.00479 8.65638-5.10889 8.84374l-.07078.12908H49.16967c-7.2532 0-13.21565-.0167-13.24063-.0333-.0458-.0291-3.23937-5.54191-11.97486-20.66038-1.29908-2.24841-1.33239-2.31086-1.26994-2.41495.03331-.0583 2.98122-5.14636 6.54537-11.30451 3.56831-6.1623 6.53288-11.27119 6.58701-11.35863zM69.02046 112.51894H90.3077l.08033.12384c.04686.0703 2.41992 4.17712 5.27495 9.13075 2.85838 4.95029 5.21805 9.04373 5.24483 9.09059.0569.0937.6259-.90371-6.4665 11.35989-2.5605 4.42815-4.02316 6.95852-4.10684 7.10914l-.0569.10376H79.67411c-5.83056 0-10.62354-.0134-10.64362-.0268-.03682-.0234-2.60401-4.45493-9.62612-16.60807-1.04428-1.80741-1.07106-1.85761-1.02085-1.94129.02678-.0469 2.39649-4.13695 5.26157-9.08724 2.86843-4.95363 5.25152-9.06047 5.29503-9.13075zM25.27611 194.37041h35.78812l.13505.20821c.07878.11816 4.06837 7.02258 8.86825 15.35063 4.80551 8.32243 8.7726 15.20432 8.81762 15.2831.09565.15756 1.05226-1.51931-10.87149 19.09825-4.3047 7.44461-6.76373 11.69867-6.90441 11.95188l-.09565.17444H43.18706c-9.80235 0-17.8603-.0225-17.89406-.045-.0619-.0394-4.37787-7.48963-16.18344-27.92149-1.75564-3.03862-1.80066-3.12301-1.71625-3.26369.04501-.0788 4.02897-6.95505 8.84574-15.27748 4.8224-8.32804 8.82886-15.23246 8.90201-15.35063zM426.27611 271.37041h35.78812l.13505.20821c.0788.11816 4.06837 7.02258 8.86825 15.35063 4.80551 8.32243 8.7726 15.20432 8.81762 15.2831.0956.15756 1.05226-1.51931-10.87149 19.09825-4.3047 7.44461-6.76373 11.69867-6.90441 11.95188l-.0956.17444h-17.82654c-9.80235 0-17.8603-.0225-17.89406-.045-.0619-.0394-4.37787-7.48963-16.18344-27.92149-1.75564-3.03862-1.80066-3.12301-1.71625-3.26369.045-.0788 4.02897-6.95505 8.84574-15.27748 4.8224-8.32804 8.82886-15.23246 8.90201-15.35063zM517.73818 184.76884H554.44978l.13853.21358c.0808.12121 4.17335 7.20379 9.09709 15.74674 4.92951 8.53718 8.99897 15.59665 9.04515 15.67747.0981.16163 1.07941-1.55851-11.15202 19.59106-4.41578 7.63671-6.93826 12.00054-7.08257 12.26029l-.0981.17894H536.1113c-10.05529 0-18.32117-.0231-18.3558-.0462-.0635-.0404-4.49084-7.68289-16.60104-28.64198-1.80094-3.11703-1.84712-3.2036-1.76054-3.34791.0462-.0808 4.13293-7.13452 9.074-15.6717 4.94684-8.54294 9.05668-15.62552 9.13172-15.74674zM535.08283 24.76884H554.49616l.0733.11295c.0427.0641 2.20689 3.80941 4.8106 8.32698 2.60676 4.51452 4.75871 8.24761 4.78314 8.29034.0519.0855.5708-.82415-5.89726 10.35988-2.33509 4.03834-3.669 6.34596-3.74531 6.48332l-.0519.0946h-9.67004c-5.3173 0-9.68835-.0122-9.70666-.0244-.0336-.0214-2.37478-4.06276-8.77873-15.14606-.95235-1.64831-.97677-1.69408-.93098-1.7704.0244-.0427 2.18552-3.77278 4.79839-8.28729 2.61592-4.51756 4.78923-8.26287 4.82891-8.32698zM580.99582 99.20615h27.2337l.10276.15844c.06.0899 3.09592 5.34397 6.74848 11.68137 3.65685 6.33312 6.67569 11.57004 6.70995 11.62999.0728.1199.80073-1.15615-8.27288 14.5332-3.27575 5.66513-5.147 8.90234-5.25405 9.09503l-.0728.13274h-13.56547c-7.4593 0-13.59115-.0171-13.61684-.0342-.0471-.03-3.33142-5.69939-12.31512-21.24743-1.33599-2.3123-1.37025-2.37652-1.30602-2.48357.0343-.06 3.06593-5.29259 6.73135-11.62571 3.6697-6.33739 6.7185-11.59145 6.77416-11.68137z" style="stroke-miterlimit:10;stroke-dasharray:none;stroke-dashoffset:0"/><path fill="#fff" fill-rule="evenodd" stroke="#6cf56c" stroke-linecap="round" stroke-width="2.5" d="M392.98759 30.46565v24.09278h23.96598v13.56804h-23.96598v23.83918h-13.56804V68.12647h-23.96598V54.55843h23.96598V30.46565Zm23.96598 79.37939h-61.5V96.277h61.5z" style="stroke-miterlimit:10;stroke-dasharray:none;stroke-dashoffset:0"/><path fill="#fff" fill-rule="evenodd" stroke="#6cf56c" stroke-linecap="round" stroke-width="1.5" d="m274.90509 145.84989-9.33764-6.35478c.47553-2.8964 1.79404-5.69553 3.95553-8.39739 2.16149-2.70187 4.79851-4.91739 7.91106-6.64659 2.03963-1.15293 4.26328-1.94447 6.57266-2.3396 1.02102-.16933 2.05424-.25435 3.0892-.25419 1.26987-.006 2.53801.0946 3.79082.30218 1.83467.31385 3.45666.87238 4.86595 1.67559 1.3907.78977 2.74879 1.63561 4.07095 2.53543.74329.50716 1.47242 1.03477 2.18656 1.58221 1.77242 1.34013 3.58807 2.58298 5.44696 3.72857 1.64763 1.00686 3.52004 1.58762 5.44825 1.68985.30179.0192.60413.0287.90653.0285 1.12651.014 2.24564-.18354 3.2993-.58231 1.396-.55611 2.6107-1.48802 3.5094-2.69235 1.68596-2.18311 3.00447-4.59317 3.95553-7.23019l9.33764 6.22509c-.30529 1.96268-.9677 3.85278-1.95442 5.57665-.55895.98916-1.19556 1.93237-1.90384 2.82075-2.13988 2.70187-4.7769 4.91739-7.91106 6.64659-2.23096 1.25412-4.67797 2.07726-7.21333 2.42649-.84399.11172-1.69444.16761-2.5458.1673-1.34157.007-2.68106-.10651-4.00222-.33979-1.70671-.31125-3.24742-.83563-4.62213-1.57313-1.72698-.92039-3.38141-1.97088-4.94895-3.14238-.50083-.37642-.99124-.7665-1.47068-1.1698-1.59951-1.38335-3.3395-2.6154-5.22-3.69615-1.73223-.98744-3.67858-1.53889-5.67132-1.60685-.21688-.01-.43395-.0143-.65104-.0143-2.85317 0-5.13354 1.09155-6.84112 3.27466s-3.05851 4.6364-4.0528 7.35988zm.51876 31.38485-9.33764-6.35478c.47553-2.8964 1.79404-5.69553 3.95553-8.39739 2.16149-2.70187 4.79851-4.91739 7.91106-6.64659 2.03963-1.15293 4.26328-1.94447 6.57266-2.3396 1.02102-.16933 2.05424-.25435 3.0892-.25419 1.26987-.006 2.53801.0946 3.79082.30218 1.83467.31385 3.45666.87238 4.86595 1.67559 1.3907.78977 2.74879 1.63561 4.07095 2.53543.74329.50716 1.47242 1.03477 2.18656 1.58221 1.77242 1.34013 3.58807 2.58298 5.44696 3.72857 1.64763 1.00686 3.52004 1.58762 5.44825 1.68985.30179.0192.60413.0287.90653.0285 1.12651.014 2.24564-.18354 3.2993-.58231 1.396-.55611 2.6107-1.48802 3.5094-2.69235 1.68596-2.18311 3.00447-4.59317 3.95553-7.23019l9.33764 6.22509c-.30529 1.96268-.9677 3.85278-1.95442 5.57665-.55895.98916-1.19556 1.93237-1.90384 2.82075-2.13988 2.70187-4.7769 4.91739-7.91106 6.64659-2.23096 1.25412-4.67797 2.07726-7.21333 2.42649-.84399.11172-1.69444.16761-2.5458.1673-1.34157.007-2.68106-.10651-4.00222-.33979-1.70671-.31125-3.24742-.83563-4.62213-1.57313-1.72698-.92039-3.38141-1.97088-4.94895-3.14238-.50083-.37642-.99124-.7665-1.47068-1.1698-1.59951-1.38335-3.3395-2.6154-5.22-3.69615-1.73223-.98744-3.67858-1.53889-5.67132-1.60685-.21688-.01-.43395-.0143-.65104-.0143-2.85317 0-5.13354 1.09155-6.84112 3.27466s-3.05851 4.6364-4.0528 7.35988z" style="stroke-miterlimit:10;stroke-dasharray:none;stroke-dashoffset:0"/><path fill="#fff" fill-rule="evenodd" d="m254.02902 209.05822-55.2007 21.99931v-10.75737l39.20589-15.65149-39.20589-15.6515v-10.85428l55.20071 22.09622zm2.52941 35.47025h-61.15226v-9.01294h61.15227z" style="stroke-miterlimit:10;stroke-dasharray:none;stroke-dashoffset:0"/></svg>