<svg xmlns="http://www.w3.org/2000/svg" xmlns:xlink="http://www.w3.org/1999/xlink" width="600" height="300"><defs><path id="a" stroke-width="11.25" d="M219 109.8q0 3.83-1.71 6.55-1.68 2.69-4.5 4.4-2.77 1.68-6.33 2.43-3.52.79-7.22.79-4.93 0-8.9-.49-3.95-.44-7.47-1.32v-9.68q4.13 1.72 8.23 2.51 4.13.75 7.79.75 4.22 0 6.3-1.32 2.1-1.37 2.1-3.52 0-1.02-.44-1.85-.44-.84-1.67-1.59-1.19-.79-3.39-1.58-2.2-.84-5.76-1.85-3.3-.92-5.81-2.07-2.47-1.19-4.1-2.77-1.63-1.59-2.46-3.66-.8-2.1-.8-4.92 0-2.73 1.24-5.15 1.23-2.43 3.65-4.23 2.47-1.85 6.12-2.9 3.65-1.06 8.54-1.06 4.22 0 7.48.44 3.26.44 5.77.97v8.76q-3.83-1.24-7.22-1.72-3.35-.53-6.65-.53-3.3 0-5.32 1.19-1.98 1.19-1.98 3.3 0 1.01.4 1.8.39.8 1.53 1.55 1.2.74 3.26 1.58 2.11.8 5.55 1.76 3.87 1.1 6.51 2.38 2.64 1.23 4.23 2.82 1.62 1.58 2.33 3.6.7 2.03.7 4.63zm51.63-12.64q0 1.1-.09 2.86-.04 1.77-.17 3.3h-29.4q0 2.95.88 5.2.92 2.24 2.55 3.78 1.67 1.5 3.96 2.3 2.33.79 5.15.79 3.26 0 6.96-.49 3.74-.53 7.74-1.67v8.54q-1.71.48-3.74.88-2.02.4-4.14.7-2.11.31-4.27.44-2.15.18-4.18.18-5.1 0-9.15-1.45-4.05-1.46-6.87-4.27-2.82-2.86-4.31-7.05-1.5-4.18-1.5-9.68 0-5.46 1.5-9.9 1.5-4.5 4.22-7.66 2.73-3.21 6.6-4.93 3.92-1.76 8.72-1.76 4.75 0 8.4 1.5 3.66 1.45 6.13 4.09 2.46 2.64 3.74 6.3 1.27 3.65 1.27 8zm-10.91-1.54q.04-2.64-.66-4.57-.7-1.99-1.94-3.26-1.19-1.28-2.82-1.9-1.58-.61-3.43-.61-4.05 0-6.65 2.73-2.6 2.68-3.08 7.61zm49.56 27.34-.27-5.86q-1.4 1.5-2.94 2.78-1.54 1.23-3.4 2.15-1.84.93-4.04 1.41-2.16.53-4.76.53-3.43 0-6.03-1.01-2.6-1.02-4.35-2.82-1.77-1.8-2.69-4.36-.88-2.55-.88-5.63 0-3.17 1.32-5.86 1.37-2.68 4.1-4.62 2.77-1.93 6.86-3.03 4.14-1.1 9.68-1.1h5.86v-2.69q0-1.72-.49-3.08-.48-1.41-1.58-2.38-1.06-.97-2.77-1.5-1.72-.52-4.23-.52-3.96 0-7.83.92-3.83.88-7.44 2.51v-8.58q3.21-1.28 7.4-2.12 4.22-.83 8.75-.83 4.98 0 8.54.97 3.57.92 5.85 2.81 2.34 1.9 3.44 4.76 1.1 2.81 1.1 6.6v30.55zm-1.54-19.77h-6.56q-2.73 0-4.62.53-1.9.53-3.08 1.45-1.2.93-1.76 2.16-.53 1.19-.53 2.55 0 2.73 1.76 4.19 1.76 1.4 4.8 1.4 2.24 0 4.66-1.62 2.42-1.63 5.33-4.67zm51.85-7.57q.09-2.5-.27-4.27-.3-1.76-1.05-2.9-.7-1.15-1.76-1.67-1.06-.53-2.42-.53-2.38 0-4.93 1.98-2.51 1.93-5.55 6.42v28.3h-11v-44.7h9.72l.4 6.51q1.1-1.72 2.47-3.08 1.4-1.36 3.08-2.33 1.71-1.02 3.78-1.54 2.07-.53 4.54-.53 3.38 0 5.98 1.19 2.64 1.14 4.4 3.43 1.8 2.29 2.64 5.77.88 3.43.75 7.96zm56.96 25.62q-3.17 1.28-6.56 1.9-3.4.6-7.09.6-5.33 0-9.55-1.44-4.23-1.46-7.18-4.32-2.94-2.86-4.53-7.08-1.54-4.23-1.54-9.78 0-5.37 1.67-9.72 1.72-4.36 4.8-7.44t7.4-4.76q4.35-1.67 9.68-1.67 4.36 0 7.3.49 3 .44 5.38 1.14V89.6q-2.73-1.36-5.95-2.11-3.17-.75-6.03-.75-2.99 0-5.37 1.01-2.37 1.02-4 2.82-1.63 1.8-2.51 4.4-.84 2.56-.84 5.64 0 3.21.93 5.76.92 2.56 2.6 4.36 1.71 1.76 4.09 2.73 2.37.92 5.28.92 1.4 0 2.95-.17 1.58-.22 3.12-.57 1.59-.4 3.08-.88 1.54-.49 2.87-1.06zm40.05 1.72V93.82q0-7.35-5.46-7.35-2.73 0-5.24 2.2-2.46 2.2-5.23 5.98v28.3h-10.74V60.77h10.74v15.32l-.53 8.1q1.36-1.63 2.77-2.9 1.4-1.33 3.04-2.2 1.63-.89 3.52-1.33 1.9-.48 4.18-.48 3.43 0 5.99 1.14 2.55 1.1 4.27 3.17 1.71 2.03 2.55 4.93.88 2.86.88 6.43v30.02zm-135.13 85.02q0 6.16-1.76 10.65-1.72 4.49-4.84 7.48-3.08 2.95-7.3 4.4-4.23 1.41-9.2 1.41-1.68 0-3.35-.22-1.67-.22-3.04-.57v17.47h-10.74v-62.19h9.29l.26 6.6q1.37-1.71 2.82-3.12 1.5-1.41 3.21-2.38 1.72-1.01 3.7-1.54 1.98-.53 4.45-.53 3.96 0 7.04 1.59 3.08 1.58 5.15 4.53 2.11 2.9 3.21 7.09 1.1 4.13 1.1 9.33zm-11.27.44q0-3.7-.53-6.3-.52-2.6-1.54-4.27-.96-1.67-2.42-2.42-1.4-.79-3.25-.79-2.73 0-5.24 2.2-2.47 2.2-5.24 5.99v19.54q1.28.49 3.13.8 1.89.3 3.83.3 2.55 0 4.62-1.06 2.1-1.05 3.56-2.99 1.5-1.93 2.3-4.7.78-2.82.78-6.3zm48.64 22.71-.26-5.85q-1.41 1.5-2.95 2.77-1.54 1.23-3.4 2.16-1.84.92-4.04 1.4-2.16.53-4.75.53-3.44 0-6.04-1.01t-4.35-2.82q-1.76-1.8-2.69-4.35-.88-2.56-.88-5.64 0-3.17 1.32-5.85 1.37-2.69 4.1-4.62 2.77-1.94 6.86-3.04 4.14-1.1 9.69-1.1h5.85v-2.69q0-1.71-.48-3.08-.49-1.4-1.59-2.37-1.06-.97-2.77-1.5-1.72-.53-4.23-.53-3.96 0-7.83.92-3.83.89-7.44 2.51v-8.58q3.21-1.28 7.4-2.11 4.22-.84 8.75-.84 4.98 0 8.54.97 3.57.92 5.86 2.82 2.33 1.89 3.43 4.75 1.1 2.82 1.1 6.6v30.55zm-1.54-19.76h-6.56q-2.73 0-4.62.53-1.9.52-3.08 1.45-1.19.92-1.76 2.15-.53 1.2-.53 2.56 0 2.73 1.76 4.18 1.76 1.4 4.8 1.4 2.24 0 4.66-1.62 2.42-1.63 5.33-4.67zm51.85-7.57q.09-2.51-.26-4.27-.31-1.76-1.06-2.9-.7-1.15-1.76-1.68t-2.42-.53q-2.38 0-4.93 1.98-2.51 1.94-5.55 6.43v28.3h-11v-44.72h9.73l.4 6.51q1.1-1.71 2.46-3.08 1.4-1.36 3.08-2.33 1.72-1.01 3.78-1.54 2.07-.53 4.54-.53 3.39 0 5.98 1.19 2.64 1.14 4.4 3.43 1.81 2.3 2.65 5.77.88 3.43.74 7.97zm48.81 27.33-.26-5.85q-1.4 1.5-2.95 2.77-1.54 1.23-3.39 2.16-1.85.92-4.05 1.4-2.15.53-4.75.53-3.43 0-6.03-1.01t-4.36-2.82q-1.76-1.8-2.68-4.35-.88-2.56-.88-5.64 0-3.17 1.32-5.85 1.36-2.69 4.09-4.62 2.77-1.94 6.87-3.04 4.13-1.1 9.68-1.1h5.85v-2.69q0-1.71-.48-3.08-.48-1.4-1.59-2.37-1.05-.97-2.77-1.5-1.71-.53-4.22-.53-3.97 0-7.84.92-3.83.89-7.44 2.51v-8.58q3.22-1.28 7.4-2.11 4.22-.84 8.76-.84 4.97 0 8.54.97 3.56.92 5.85 2.82 2.33 1.89 3.43 4.75 1.1 2.82 1.1 6.6v30.55zm-1.54-19.76h-6.55q-2.73 0-4.63.53-1.89.52-3.08 1.45-1.19.92-1.76 2.15-.53 1.2-.53 2.56 0 2.73 1.76 4.18 1.76 1.4 4.8 1.4 2.25 0 4.67-1.62 2.42-1.63 5.32-4.67zm54.63 19.76v-30.46q0-1.67-.1-2.9-.08-1.28-.34-2.12-.27-.83-.8-1.23-.48-.44-1.36-.44-1.36 0-2.68 1.85-1.33 1.85-3 6.3v29h-9.2v-30.46q0-1.67-.09-2.9-.08-1.28-.35-2.12-.26-.83-.79-1.23-.53-.44-1.4-.44-1.15 0-2.56 1.85-1.41 1.85-3.13 6.3v29h-9.28v-44.72h7.96l.18 6.51q.97-1.98 1.94-3.38.96-1.41 2.06-2.3 1.1-.92 2.34-1.31 1.27-.4 2.86-.4 3.74 0 5.68 1.98 1.98 1.94 2.24 5.41 1.06-1.98 2.07-3.38 1.06-1.41 2.16-2.3 1.14-.92 2.42-1.31 1.32-.4 2.9-.4 4.89 0 7.22 3.43 2.33 3.4 2.33 10.08v32.09zm54.88-13.16q0 3.83-1.71 6.56-1.67 2.68-4.5 4.4-2.76 1.67-6.33 2.42-3.52.8-7.22.8-4.93 0-8.89-.5-3.96-.43-7.48-1.31v-9.69q4.14 1.72 8.23 2.51 4.14.75 7.79.75 4.23 0 6.3-1.32 2.1-1.36 2.1-3.52 0-1.01-.43-1.85-.44-.84-1.68-1.58-1.18-.8-3.39-1.59-2.2-.83-5.76-1.85-3.3-.92-5.81-2.07-2.47-1.18-4.1-2.77-1.62-1.58-2.46-3.65-.8-2.11-.8-4.93 0-2.73 1.24-5.15 1.23-2.42 3.65-4.23 2.47-1.85 6.12-2.9 3.66-1.06 8.54-1.06 4.23 0 7.48.44 3.26.44 5.77.97v8.76q-3.83-1.23-7.22-1.72-3.34-.53-6.65-.53-3.3 0-5.32 1.2-1.98 1.18-1.98 3.3 0 1 .4 1.8.39.8 1.53 1.54 1.2.75 3.26 1.58 2.11.8 5.55 1.76 3.87 1.1 6.51 2.38 2.64 1.23 4.23 2.82 1.63 1.58 2.33 3.6.7 2.03.7 4.63z"/><path id="b" stroke-width="11.25" d="M69.79 79.87q0 3.7-1.15 6.64-1.1 2.9-3.2 5.06-2.08 2.12-5.03 3.44-2.95 1.32-6.6 1.8l-.44 8.28h-9.2l-.8-16.55h6.4q2.15 0 3.69-.62 1.58-.62 2.55-1.67 1.01-1.06 1.45-2.42.49-1.41.49-2.95 0-2.12-.93-3.92-.88-1.85-2.81-3.21-1.9-1.41-4.84-2.2-2.95-.8-7.1-.8h-2.59v-9.99h3.04q6.78 0 11.84 1.63 5.06 1.59 8.45 4.27 3.39 2.64 5.06 6.07 1.72 3.44 1.72 7.14zm-13.73 37.06q0 1.45-.58 2.73-.57 1.27-1.54 2.24-.97.97-2.29 1.5-1.32.57-2.81.57-1.5 0-2.82-.57-1.28-.53-2.24-1.5-.97-.97-1.55-2.24-.57-1.28-.57-2.73 0-1.46.57-2.73.58-1.28 1.55-2.25.96-.97 2.24-1.5 1.32-.57 2.82-.57 1.5 0 2.81.58 1.32.52 2.3 1.5.96.96 1.53 2.24.58 1.27.58 2.73zm53.61 23.5v-14.7l.48-8.72q-1.23 1.55-2.64 2.82-1.36 1.28-3.04 2.2-1.63.93-3.56 1.41-1.94.53-4.18.53-3.97 0-7.05-1.59-3.08-1.58-5.19-4.49-2.07-2.94-3.17-7.13-1.1-4.18-1.1-9.33 0-5.32 1.45-9.72 1.46-4.45 4.32-7.62 2.9-3.17 7.22-4.89 4.3-1.76 10.07-1.76 1.1 0 2.43.14 1.32.13 2.64.35 1.32.17 2.5.48 1.24.27 2.16.57l7.4-1.62v63.07zm-18.18-39.48q0 3.7.48 6.34.53 2.6 1.5 4.27 1.01 1.67 2.46 2.46 1.46.75 3.3.75 2.73 0 5.2-2.2 2.46-2.2 5.24-6.03V87q-1.28-.49-3.17-.8-1.85-.3-3.74-.3-2.6 0-4.67 1.05-2.07 1.06-3.56 3-1.46 1.93-2.25 4.75-.8 2.77-.8 6.25zm40.81-6.43v-8.54h37.84v8.54zm0 17.34v-8.53h37.84v8.53zm40.09 89.25q0 5.6-1.14 10.26-1.15 4.66-3.35 8.4l9.38 11.36h-12.73l-3.12-3.79q-3 2.38-6.65 3.61-3.65 1.2-7.79 1.2-4.58 0-8.14-1.15-3.57-1.19-6.03-3.35-2.47-2.15-3.74-5.2-1.28-3.07-1.28-6.81 0-3.17.84-5.73.83-2.55 2.24-4.57 1.41-2.07 3.26-3.66 1.85-1.63 3.92-2.99l-.88-1.19q-2.47-3.04-3.83-6.2-1.32-3.22-1.32-6.25 0-3.09 1.1-5.9 1.1-2.86 3.21-5.02 2.16-2.2 5.28-3.52 3.13-1.32 7.18-1.32 3.83 0 6.82 1.1 3 1.05 5.06 2.9 2.07 1.8 3.13 4.27 1.1 2.47 1.1 5.24 0 3.43-1.15 6.03-1.14 2.55-3.03 4.53-1.85 1.94-4.27 3.48-2.38 1.5-4.89 2.9l9.68 11.93q.62-2.24.93-4.88.3-2.64.22-5.68zm-33.98 13.6q0 1.94.66 3.57.66 1.58 1.85 2.77 1.23 1.14 2.95 1.8 1.71.62 3.83.62 2.33 0 4.4-.7 2.11-.7 3.83-2.2l-12.63-15.5q-2.2 1.85-3.57 4.14-1.32 2.24-1.32 5.5zm16.33-30.99q0-1.14-.44-2.24-.4-1.14-1.19-1.98-.8-.88-1.94-1.4-1.14-.54-2.64-.54-1.5 0-2.68.57-1.19.53-2.03 1.46-.79.92-1.23 2.15-.4 1.24-.4 2.6 0 2.38 1.15 4.53 1.14 2.12 3.12 4.58l.1.18q1.66-1.01 3.16-2.03 1.5-1.05 2.6-2.24 1.14-1.19 1.76-2.55.66-1.41.66-3.09zm67.61 24.26q0 6.16-1.76 10.65-1.72 4.49-4.84 7.48-3.09 2.95-7.31 4.4-4.23 1.41-9.2 1.41-1.67 0-3.35-.22-1.67-.22-3.03-.57v17.47h-10.74v-62.19h9.28l.27 6.6q1.36-1.71 2.82-3.12 1.5-1.41 3.2-2.38 1.73-1.01 3.7-1.54 1.99-.53 4.45-.53 3.96 0 7.04 1.59 3.09 1.58 5.15 4.53 2.12 2.9 3.22 7.09 1.1 4.13 1.1 9.33zm-11.27.44q0-3.7-.53-6.3-.53-2.6-1.54-4.27-.97-1.67-2.42-2.42-1.4-.79-3.26-.79-2.73 0-5.24 2.2-2.46 2.2-5.23 5.99v19.54q1.27.49 3.12.8 1.9.3 3.83.3 2.55 0 4.62-1.06 2.12-1.05 3.57-2.99 1.5-1.93 2.29-4.7.79-2.82.79-6.3zm20.33-5.72v-8.54h37.86v8.54zm0 17.34v-8.54h37.86v8.54z"/></defs><path fill="#b4b4b4" d="M0 300V0h600v300z" style="stroke-width:.952344;stroke-miterlimit:10"/><path fill="#999" stroke="#999" d="m-73.98 232.4 22.94-77.47h16.94l-22.94 77.46zm-72.3 0 22.93-77.47h16.94l-22.93 77.46zm71.53-133.03a8.47 8.47 0 1 1 16.94 0 8.47 8.47 0 0 1-16.94 0zm0 31.88a8.47 8.47 0 1 1 16.94 0 8.47 8.47 0 0 1-16.94 0zm23.71 23.68 22.94-77.47h16.94l-22.94 77.47zm-72.31 0 22.94-77.47h16.94l-22.94 77.47zm71.53-133.02a8.47 8.47 0 1 1 16.94 0 8.47 8.47 0 0 1-16.94 0zm0 31.88a8.47 8.47 0 1 1 16.94 0 8.47 8.47 0 0 1-16.94 0zm23.72 23.67L-5.17 0h16.94l-22.93 77.46zm-72.31 0L-77.47 0h16.93l-22.93 77.46ZM-8.44 254.3a8.47 8.47 0 1 1 16.94 0 8.47 8.47 0 0 1-16.94 0zm0 31.88a8.47 8.47 0 1 1 16.94 0 8.47 8.47 0 0 1-16.94 0zm23.71 23.68 22.94-77.47h16.94L32.2 309.86Zm-72.31 0 22.94-77.47h16.94l-22.94 77.47ZM14.5 176.84a8.47 8.47 0 1 1 16.93 0 8.47 8.47 0 0 1-16.94 0zm0 31.88a8.47 8.47 0 1 1 16.93 0 8.47 8.47 0 0 1-16.94 0z" style="stroke-miterlimit:10"/><path fill="#999" stroke="#999" d="m38.2 232.4 22.94-77.47h16.94l-22.93 77.46zm-72.3 0 22.94-77.47H5.78l-22.94 77.46zM37.43 99.37a8.47 8.47 0 1 1 16.94 0 8.47 8.47 0 0 1-16.94 0zm0 31.88a8.47 8.47 0 1 1 16.94 0 8.47 8.47 0 0 1-16.94 0zm23.71 23.68 22.94-77.47h16.94l-22.94 77.47zm-72.3 0 22.93-77.47h16.94L5.78 154.93ZM60.37 21.91a8.47 8.47 0 1 1 16.93 0 8.47 8.47 0 0 1-16.93 0zm0 31.88a8.47 8.47 0 1 1 16.93 0 8.47 8.47 0 0 1-16.93 0zm23.71 23.67L107.02 0h16.93l-22.93 77.46zm-72.31 0L34.71 0h16.94L28.7 77.46Zm91.97 176.84a8.47 8.47 0 1 1 16.94 0 8.47 8.47 0 0 1-16.94 0zm0 31.88a8.47 8.47 0 1 1 16.94 0 8.47 8.47 0 0 1-16.94 0zm23.71 23.68 22.94-77.47h16.94l-22.94 77.47zm-72.3 0 22.93-77.47h16.94L72.1 309.86Zm71.53-133.02a8.47 8.47 0 1 1 16.94 0 8.47 8.47 0 0 1-16.94 0zm0 31.88a8.47 8.47 0 1 1 16.94 0 8.47 8.47 0 0 1-16.94 0z" style="stroke-miterlimit:10"/><path fill="#999" stroke="#999" d="m150.39 232.4 22.94-77.47h16.94l-22.94 77.46zm-72.31 0 22.94-77.47h16.94l-22.94 77.46Zm71.53-133.03a8.47 8.47 0 1 1 16.94 0 8.47 8.47 0 0 1-16.94 0zm0 31.88a8.47 8.47 0 1 1 16.94 0 8.47 8.47 0 0 1-16.94 0zm23.72 23.68 22.93-77.47h16.94l-22.93 77.47zm-72.31 0 22.93-77.47h16.94l-22.93 77.47zm71.53-133.02a8.47 8.47 0 1 1 16.94 0 8.47 8.47 0 0 1-16.94 0zm0 31.88a8.47 8.47 0 1 1 16.94 0 8.47 8.47 0 0 1-16.94 0zm23.71 23.67L219.2 0h16.94L213.2 77.46Zm-72.31 0L146.9 0h16.94L140.9 77.46Zm91.97 176.84a8.47 8.47 0 1 1 16.94 0 8.47 8.47 0 0 1-16.94 0zm0 31.88a8.47 8.47 0 1 1 16.94 0 8.47 8.47 0 0 1-16.94 0zm23.72 23.68 22.93-77.47h16.94l-22.93 77.47zm-72.31 0 22.94-77.47h16.93l-22.93 77.47zm71.53-133.02a8.47 8.47 0 1 1 16.94 0 8.47 8.47 0 0 1-16.94 0zm0 31.88a8.47 8.47 0 1 1 16.94 0 8.47 8.47 0 0 1-16.94 0z" style="stroke-miterlimit:10"/><path fill="#999" stroke="#999" d="m262.57 232.4 22.94-77.47h16.94l-22.94 77.46zm-72.3 0 22.93-77.47h16.94l-22.94 77.46ZM261.8 99.37a8.47 8.47 0 1 1 16.93 0 8.47 8.47 0 0 1-16.94 0zm0 31.88a8.47 8.47 0 1 1 16.93 0 8.47 8.47 0 0 1-16.94 0zm23.7 23.68 22.94-77.47h16.94l-22.93 77.47zm-72.3 0 22.94-77.47h16.94l-22.94 77.47zm71.53-133.02a8.47 8.47 0 1 1 16.94 0 8.47 8.47 0 0 1-16.94 0zm0 31.88a8.47 8.47 0 1 1 16.94 0 8.47 8.47 0 0 1-16.94 0zm23.71 23.67L331.38 0h16.94l-22.94 77.46zm-72.3 0L259.07 0h16.94l-22.93 77.46ZM328.1 254.3a8.475 8.475 0 1 1 16.95 0 8.47 8.47 0 0 1-16.94 0zm0 31.88a8.475 8.475 0 1 1 16.95 0 8.47 8.47 0 0 1-16.94 0zm23.72 23.68 22.94-77.47h16.93l-22.93 77.47zm-72.31 0 22.94-77.47h16.94l-22.94 77.47zm71.53-133.02a8.47 8.47 0 1 1 16.94 0 8.47 8.47 0 0 1-16.94 0zm0 31.88a8.47 8.47 0 1 1 16.94 0 8.47 8.47 0 0 1-16.94 0z" style="stroke-miterlimit:10"/><path fill="#999" stroke="#999" d="m374.76 232.4 22.93-77.47h16.94l-22.94 77.46zm-72.31 0 22.93-77.47h16.94l-22.93 77.46zm71.53-133.03a8.47 8.47 0 1 1 16.94 0 8.47 8.47 0 0 1-16.94 0zm0 31.88a8.47 8.47 0 1 1 16.94 0 8.47 8.47 0 0 1-16.94 0zm23.72 23.68 22.93-77.47h16.94l-22.94 77.47zm-72.32 0 22.94-77.47h16.94l-22.94 77.47zm71.53-133.02a8.47 8.47 0 1 1 16.94 0 8.47 8.47 0 0 1-16.94 0zm0 31.88a8.47 8.47 0 1 1 16.94 0 8.47 8.47 0 0 1-16.94 0zm23.72 23.67L443.56 0h16.94l-22.93 77.46zm-72.31 0L371.26 0h16.94l-22.94 77.46zm91.97 176.84a8.47 8.47 0 1 1 16.94 0 8.47 8.47 0 0 1-16.94 0zm0 31.88a8.47 8.47 0 1 1 16.94 0 8.47 8.47 0 0 1-16.94 0zM464 309.86l22.94-77.47h16.94l-22.94 77.47zm-72.3 0 22.93-77.47h16.94l-22.94 77.47zm71.52-133.02a8.47 8.47 0 1 1 16.94 0 8.47 8.47 0 0 1-16.94 0zm0 31.88a8.47 8.47 0 1 1 16.94 0 8.47 8.47 0 0 1-16.94 0z" style="stroke-miterlimit:10"/><path fill="#999" stroke="#999" d="m486.94 232.4 22.93-77.47h16.94l-22.93 77.46zm-72.31 0 22.94-77.47h16.94l-22.94 77.46zm71.53-133.03a8.47 8.47 0 1 1 16.94 0 8.47 8.47 0 0 1-16.94 0zm0 31.88a8.47 8.47 0 1 1 16.94 0 8.47 8.47 0 0 1-16.94 0zm23.71 23.68 22.94-77.47h16.94l-22.94 77.47zm-72.3 0 22.93-77.47h16.94l-22.93 77.47zM509.1 21.91a8.47 8.47 0 1 1 16.94 0 8.47 8.47 0 0 1-16.94 0zm0 31.88a8.47 8.47 0 1 1 16.94 0 8.47 8.47 0 0 1-16.94 0zm23.71 23.67L555.75 0h16.94l-22.94 77.46zm-72.31 0L483.44 0h16.94l-22.94 77.46zm91.97 176.84a8.47 8.47 0 1 1 16.94 0 8.47 8.47 0 0 1-16.94 0zm0 31.88a8.47 8.47 0 1 1 16.94 0 8.47 8.47 0 0 1-16.94 0zm23.72 23.68 22.93-77.47h16.94l-22.94 77.47zm-72.31 0 22.93-77.47h16.94l-22.93 77.47zm71.52-133.02a8.475 8.475 0 1 1 16.95 0 8.47 8.47 0 0 1-16.94 0zm0 31.88a8.475 8.475 0 1 1 16.95 0 8.47 8.47 0 0 1-16.94 0z" style="stroke-miterlimit:10"/><path fill="#999" stroke="#999" d="m599.12 232.4 22.94-77.47H639l-22.94 77.46zm-72.31 0 22.94-77.47h16.94l-22.94 77.46zm71.53-133.03a8.47 8.47 0 1 1 16.94 0 8.47 8.47 0 0 1-16.94 0zm0 31.88a8.47 8.47 0 1 1 16.94 0 8.47 8.47 0 0 1-16.94 0zm23.72 23.68 22.93-77.47h16.94L639 154.93Zm-72.31 0 22.94-77.47h16.94l-22.94 77.47zm71.53-133.02a8.47 8.47 0 1 1 16.94 0 8.47 8.47 0 0 1-16.94 0zm0 31.88a8.47 8.47 0 1 1 16.94 0 8.47 8.47 0 0 1-16.94 0zM645 77.46 667.92 0h16.94l-22.94 77.46zm-72.31 0L595.62 0h16.94l-22.93 77.46zm91.96 176.84a8.47 8.47 0 1 1 16.94 0 8.47 8.47 0 0 1-16.94 0zm0 31.88a8.47 8.47 0 1 1 16.94 0 8.47 8.47 0 0 1-16.94 0zm23.72 23.68 22.93-77.47h16.94l-22.93 77.47zm-72.31 0L639 232.39h16.94L633 309.86Zm71.53-133.02a8.47 8.47 0 1 1 16.94 0 8.47 8.47 0 0 1-16.94 0zm0 31.88a8.47 8.47 0 1 1 16.94 0 8.47 8.47 0 0 1-16.94 0z" style="stroke-miterlimit:10"/><g stroke="#000" stroke-opacity=".25" stroke-width="11.25" style="font-weight:700;font-size:40px;font-family:Consolas;stroke-linecap:round;stroke-linejoin:round;stroke-miterlimit:10"><use xlink:href="#a" width="100%" height="100%" fill="#fff" aria-label="search params"/><use xlink:href="#b" width="100%" height="100%" fill="#a0a0a0" aria-label="?q= &amp;p="/></g><use xlink:href="#a" width="100%" height="100%" fill="#fff" aria-label="search params" style="font-weight:700;font-size:40px;font-family:Consolas;stroke-linecap:round;stroke-linejoin:round;stroke-miterlimit:10"/><use xlink:href="#b" width="100%" height="100%" fill="silver" aria-label="?q= &amp;p=" style="font-weight:700;font-size:40px;font-family:Consolas;stroke-linecap:round;stroke-linejoin:round;stroke-miterlimit:10"/></svg>