<svg xmlns="http://www.w3.org/2000/svg" xml:space="preserve" stroke-miterlimit="10" viewBox="0 0 600 300"><clipPath id="a"><path d="M0 0h600v300H0z"/></clipPath><g clip-path="url(#a)"><path fill="#b4b4b4" d="M0 329.13V0h603v329.13H0Z"/><path fill="#999" stroke="#999" d="m599.12 232.4 22.94-77.47H639l-22.94 77.46-16.94.01Zm-72.31 0 22.94-77.47h16.94l-22.94 77.46-16.94.01Zm71.53-133.03a8.47 8.47 0 1 1 16.94 0 8.47 8.47 0 0 1-8.47 8.47 8.47 8.47 0 0 1-8.47-8.47Zm0 31.88a8.47 8.47 0 0 1 8.47-8.47 8.47 8.47 0 0 1 8.47 8.47 8.47 8.47 0 0 1-8.47 8.47 8.47 8.47 0 0 1-8.47-8.47Zm23.72 23.68 22.93-77.47h16.94L639 154.93h-16.94Zm-72.31 0 22.94-77.47h16.94l-22.94 77.47h-16.94Zm71.53-133.02a8.47 8.47 0 1 1 16.94 0 8.47 8.47 0 1 1-16.94 0Zm0 31.88a8.47 8.47 0 1 1 16.94 0 8.47 8.47 0 1 1-16.94 0ZM645 77.46 667.92 0h16.94l-22.94 77.46H645Zm-72.31 0L595.62 0h16.94l-22.93 77.46h-16.94Zm91.96 176.84a8.47 8.47 0 0 1 8.47-8.47 8.47 8.47 0 0 1 8.47 8.47 8.47 8.47 0 0 1-8.47 8.47 8.47 8.47 0 0 1-8.47-8.47Zm0 31.88a8.47 8.47 0 0 1 8.47-8.47 8.47 8.47 0 0 1 8.47 8.47 8.47 8.47 0 0 1-8.47 8.47 8.47 8.47 0 0 1-8.47-8.47Zm23.72 23.68 22.93-77.47h16.94l-22.93 77.47h-16.94Zm-72.31 0L639 232.39h16.94L633 309.86h-16.94Zm71.53-133.02a8.47 8.47 0 0 1 8.47-8.47 8.47 8.47 0 0 1 8.47 8.47 8.47 8.47 0 0 1-8.47 8.47 8.47 8.47 0 0 1-8.47-8.47Zm0 31.88a8.47 8.47 0 0 1 8.47-8.47 8.47 8.47 0 0 1 8.47 8.47 8.47 8.47 0 0 1-8.47 8.47 8.47 8.47 0 0 1-8.47-8.47Z"/><path fill="#999" stroke="#999" d="m486.94 232.4 22.93-77.47h16.94l-22.93 77.46-16.94.01Zm-72.31 0 22.94-77.47h16.94l-22.94 77.46-16.94.01Zm71.53-133.03a8.47 8.47 0 1 1 16.94 0 8.47 8.47 0 0 1-8.47 8.47 8.47 8.47 0 0 1-8.47-8.47Zm0 31.88a8.47 8.47 0 0 1 8.47-8.47 8.47 8.47 0 0 1 8.47 8.47 8.47 8.47 0 0 1-8.47 8.47 8.47 8.47 0 0 1-8.47-8.47Zm23.71 23.68 22.94-77.47h16.94l-22.94 77.47h-16.94Zm-72.3 0 22.93-77.47h16.94l-22.93 77.47h-16.94ZM509.1 21.91a8.47 8.47 0 1 1 16.94 0 8.47 8.47 0 1 1-16.94 0Zm0 31.88a8.47 8.47 0 1 1 16.94 0 8.47 8.47 0 1 1-16.94 0Zm23.71 23.67L555.75 0h16.94l-22.94 77.46h-16.94Zm-72.31 0L483.44 0h16.94l-22.94 77.46H460.5Zm91.97 176.84a8.47 8.47 0 0 1 8.47-8.47 8.47 8.47 0 0 1 8.47 8.47 8.47 8.47 0 0 1-8.47 8.47 8.47 8.47 0 0 1-8.47-8.47Zm0 31.88a8.47 8.47 0 0 1 8.47-8.47 8.47 8.47 0 0 1 8.47 8.47 8.47 8.47 0 0 1-8.47 8.47 8.47 8.47 0 0 1-8.47-8.47Zm23.72 23.68 22.93-77.47h16.94l-22.94 77.47h-16.93Zm-72.31 0 22.93-77.47h16.94l-22.93 77.47h-16.94Zm71.52-133.02a8.475 8.475 0 0 1 8.475-8.475 8.475 8.475 0 0 1 8.475 8.475 8.47 8.47 0 0 1-8.47 8.47 8.47 8.47 0 0 1-8.47-8.47h-.01Zm0 31.88a8.475 8.475 0 0 1 8.475-8.475 8.475 8.475 0 0 1 8.475 8.475 8.47 8.47 0 0 1-8.47 8.47 8.47 8.47 0 0 1-8.47-8.47h-.01Z"/><path fill="#999" stroke="#999" d="m374.76 232.4 22.93-77.47h16.94l-22.94 77.46-16.93.01Zm-72.31 0 22.93-77.47h16.94l-22.93 77.46-16.94.01Zm71.53-133.03a8.47 8.47 0 1 1 16.94 0 8.47 8.47 0 0 1-8.47 8.47 8.47 8.47 0 0 1-8.47-8.47Zm0 31.88a8.47 8.47 0 0 1 8.47-8.47 8.47 8.47 0 0 1 8.47 8.47 8.47 8.47 0 0 1-8.47 8.47 8.47 8.47 0 0 1-8.47-8.47Zm23.72 23.68 22.93-77.47h16.94l-22.94 77.47H397.7Zm-72.32 0 22.94-77.47h16.94l-22.94 77.47h-16.94Zm71.53-133.02a8.47 8.47 0 1 1 16.94 0 8.47 8.47 0 1 1-16.94 0Zm0 31.88a8.47 8.47 0 1 1 16.94 0 8.47 8.47 0 1 1-16.94 0Zm23.72 23.67L443.56 0h16.94l-22.93 77.46h-16.94Zm-72.31 0L371.26 0h16.94l-22.94 77.46h-16.94Zm91.97 176.84a8.47 8.47 0 0 1 8.47-8.47 8.47 8.47 0 0 1 8.47 8.47 8.47 8.47 0 0 1-8.47 8.47 8.47 8.47 0 0 1-8.47-8.47Zm0 31.88a8.47 8.47 0 0 1 8.47-8.47 8.47 8.47 0 0 1 8.47 8.47 8.47 8.47 0 0 1-8.47 8.47 8.47 8.47 0 0 1-8.47-8.47ZM464 309.86l22.94-77.47h16.94l-22.94 77.47H464Zm-72.3 0 22.93-77.47h16.94l-22.94 77.47H391.7Zm71.52-133.02a8.47 8.47 0 0 1 8.47-8.47 8.47 8.47 0 0 1 8.47 8.47 8.47 8.47 0 0 1-8.47 8.47 8.47 8.47 0 0 1-8.47-8.47Zm0 31.88a8.47 8.47 0 0 1 8.47-8.47 8.47 8.47 0 0 1 8.47 8.47 8.47 8.47 0 0 1-8.47 8.47 8.47 8.47 0 0 1-8.47-8.47Z"/><path fill="#999" stroke="#999" d="m262.57 232.4 22.94-77.47h16.94l-22.94 77.46-16.94.01Zm-72.3 0 22.93-77.47h16.94l-22.94 77.46-16.93.01ZM261.8 99.37a8.47 8.47 0 1 1 16.93 0 8.47 8.47 0 0 1-8.47 8.47 8.47 8.47 0 0 1-8.47-8.47h.01Zm0 31.88a8.469 8.469 0 1 1 16.93 0 8.47 8.47 0 0 1-8.47 8.47 8.47 8.47 0 0 1-8.47-8.47h.01Zm23.7 23.68 22.94-77.47h16.94l-22.93 77.47H285.5Zm-72.3 0 22.94-77.47h16.94l-22.94 77.47H213.2Zm71.53-133.02a8.47 8.47 0 1 1 16.94 0 8.47 8.47 0 1 1-16.94 0Zm0 31.88a8.47 8.47 0 1 1 16.94 0 8.47 8.47 0 1 1-16.94 0Zm23.71 23.67L331.38 0h16.94l-22.94 77.46h-16.94Zm-72.3 0L259.07 0h16.94l-22.93 77.46h-16.94ZM328.1 254.3a8.475 8.475 0 0 1 8.475-8.475 8.475 8.475 0 0 1 8.475 8.475 8.47 8.47 0 0 1-8.47 8.47 8.47 8.47 0 0 1-8.47-8.47h-.01Zm0 31.88a8.475 8.475 0 0 1 8.475-8.475 8.475 8.475 0 0 1 8.475 8.475 8.47 8.47 0 0 1-8.47 8.47 8.47 8.47 0 0 1-8.47-8.47h-.01Zm23.72 23.68 22.94-77.47h16.93l-22.93 77.47h-16.94Zm-72.31 0 22.94-77.47h16.94l-22.94 77.47h-16.94Zm71.53-133.02a8.47 8.47 0 0 1 8.47-8.47 8.47 8.47 0 0 1 8.47 8.47 8.47 8.47 0 0 1-8.47 8.47 8.47 8.47 0 0 1-8.47-8.47Zm0 31.88a8.47 8.47 0 0 1 8.47-8.47 8.47 8.47 0 0 1 8.47 8.47 8.47 8.47 0 0 1-8.47 8.47 8.47 8.47 0 0 1-8.47-8.47Z"/><path fill="#999" stroke="#999" d="m150.39 232.4 22.94-77.47h16.94l-22.94 77.46-16.94.01Zm-72.31 0 22.94-77.47h16.94l-22.94 77.46-16.94.01Zm71.53-133.03a8.47 8.47 0 1 1 16.94 0 8.47 8.47 0 0 1-8.47 8.47 8.47 8.47 0 0 1-8.47-8.47Zm0 31.88a8.47 8.47 0 0 1 8.47-8.47 8.47 8.47 0 0 1 8.47 8.47 8.47 8.47 0 0 1-8.47 8.47 8.47 8.47 0 0 1-8.47-8.47Zm23.72 23.68 22.93-77.47h16.94l-22.93 77.47h-16.94Zm-72.31 0 22.93-77.47h16.94l-22.93 77.47h-16.94Zm71.53-133.02a8.47 8.47 0 1 1 16.94 0 8.47 8.47 0 1 1-16.94 0Zm0 31.88a8.47 8.47 0 1 1 16.94 0 8.47 8.47 0 1 1-16.94 0Zm23.71 23.67L219.2 0h16.94L213.2 77.46h-16.94Zm-72.31 0L146.9 0h16.94L140.9 77.46h-16.95Zm91.97 176.84a8.47 8.47 0 0 1 8.47-8.47 8.47 8.47 0 0 1 8.47 8.47 8.47 8.47 0 0 1-8.47 8.47 8.47 8.47 0 0 1-8.47-8.47Zm0 31.88a8.47 8.47 0 0 1 8.47-8.47 8.47 8.47 0 0 1 8.47 8.47 8.47 8.47 0 0 1-8.47 8.47 8.47 8.47 0 0 1-8.47-8.47Zm23.72 23.68 22.93-77.47h16.94l-22.93 77.47h-16.94Zm-72.31 0 22.94-77.47h16.93l-22.93 77.47h-16.94Zm71.53-133.02a8.47 8.47 0 0 1 8.47-8.47 8.47 8.47 0 0 1 8.47 8.47 8.47 8.47 0 0 1-8.47 8.47 8.47 8.47 0 0 1-8.47-8.47Zm0 31.88a8.47 8.47 0 0 1 8.47-8.47 8.47 8.47 0 0 1 8.47 8.47 8.47 8.47 0 0 1-8.47 8.47 8.47 8.47 0 0 1-8.47-8.47Z"/><path fill="#999" stroke="#999" d="m38.2 232.4 22.94-77.47h16.94l-22.93 77.46-16.95.01Zm-72.3 0 22.94-77.47H5.78l-22.94 77.46-16.94.01ZM37.43 99.37a8.47 8.47 0 1 1 16.94 0 8.47 8.47 0 0 1-16.94 0Zm0 31.88a8.47 8.47 0 1 1 16.94 0 8.47 8.47 0 1 1-16.94 0Zm23.71 23.68 22.94-77.47h16.94l-22.94 77.47H61.14Zm-72.3 0 22.93-77.47h16.94L5.78 154.93h-16.94ZM60.37 21.91a8.47 8.47 0 1 1 16.93-.582 8.47 8.47 0 0 1-16.93.582Zm0 31.88a8.47 8.47 0 1 1 16.93-.582 8.47 8.47 0 0 1-16.93.582Zm23.71 23.67L107.02 0h16.93l-22.93 77.46H84.08Zm-72.31 0L34.71 0h16.94L28.7 77.46H11.77Zm91.97 176.84a8.47 8.47 0 0 1 8.47-8.47 8.47 8.47 0 0 1 8.47 8.47 8.47 8.47 0 0 1-8.47 8.47 8.47 8.47 0 0 1-8.47-8.47Zm0 31.88a8.47 8.47 0 0 1 8.47-8.47 8.47 8.47 0 0 1 8.47 8.47 8.47 8.47 0 0 1-8.47 8.47 8.47 8.47 0 0 1-8.47-8.47Zm23.71 23.68 22.94-77.47h16.94l-22.94 77.47h-16.94Zm-72.3 0 22.93-77.47h16.94L72.1 309.86H55.15Zm71.53-133.02a8.47 8.47 0 0 1 8.47-8.47 8.47 8.47 0 0 1 8.47 8.47 8.47 8.47 0 0 1-8.47 8.47 8.47 8.47 0 0 1-8.47-8.47Zm0 31.88a8.47 8.47 0 0 1 8.47-8.47 8.47 8.47 0 0 1 8.47 8.47 8.47 8.47 0 0 1-8.47 8.47 8.47 8.47 0 0 1-8.47-8.47Z"/><path fill="#999" stroke="#999" d="m-73.98 232.4 22.94-77.47h16.94l-22.94 77.46-16.94.01Zm-72.3 0 22.93-77.47h16.94l-22.93 77.46-16.94.01Zm71.53-133.03a8.47 8.47 0 1 1 16.94 0 8.47 8.47 0 0 1-16.94 0Zm0 31.88a8.47 8.47 0 1 1 16.94 0 8.47 8.47 0 1 1-16.94 0Zm23.71 23.68 22.94-77.47h16.94l-22.94 77.47h-16.94Zm-72.31 0 22.94-77.47h16.94l-22.94 77.47h-16.94Zm71.53-133.02a8.47 8.47 0 1 1 16.94 0 8.47 8.47 0 0 1-16.94 0Zm0 31.88a8.47 8.47 0 1 1 16.94 0 8.47 8.47 0 0 1-16.94 0Zm23.72 23.67L-5.17 0h16.94l-22.93 77.46H-28.1Zm-72.31 0L-77.47 0h16.93l-22.93 77.46h-16.94ZM-8.44 254.3a8.47 8.47 0 1 1 16.94 0 8.47 8.47 0 0 1-16.94 0Zm0 31.88a8.47 8.47 0 1 1 16.94 0 8.47 8.47 0 0 1-16.94 0Zm23.71 23.68 22.94-77.47h16.94L32.2 309.86H15.27Zm-72.31 0 22.94-77.47h16.94l-22.94 77.47h-16.94ZM14.5 176.84a8.469 8.469 0 1 1 16.93 0 8.47 8.47 0 1 1-16.94 0h.01Zm0 31.88a8.469 8.469 0 1 1 16.93 0 8.47 8.47 0 1 1-16.94 0h.01Z"/></g><path fill="#fff" stroke="#000" stroke-linecap="round" stroke-linejoin="round" stroke-opacity=".25" stroke-width="11.25" d="M219 109.8c0 2.553-.57 4.737-1.71 6.55-1.12 1.793-2.62 3.26-4.5 4.4-1.847 1.12-3.957 1.93-6.33 2.43a32.85 32.85 0 0 1-7.22.79c-3.287 0-6.253-.163-8.9-.49a56.569 56.569 0 0 1-7.47-1.32v-9.68c2.753 1.147 5.497 1.983 8.23 2.51 2.753.5 5.35.75 7.79.75 2.813 0 4.913-.44 6.3-1.32 1.4-.913 2.1-2.087 2.1-3.52a3.89 3.89 0 0 0-.44-1.85c-.293-.56-.85-1.09-1.67-1.59-.793-.527-1.923-1.053-3.39-1.58-1.467-.56-3.387-1.177-5.76-1.85-2.2-.613-4.137-1.303-5.81-2.07-1.647-.793-3.013-1.717-4.1-2.77a10.543 10.543 0 0 1-2.46-3.66c-.533-1.4-.8-3.04-.8-4.92 0-1.82.413-3.537 1.24-5.15.82-1.62 2.037-3.03 3.65-4.23 1.647-1.233 3.687-2.2 6.12-2.9 2.433-.707 5.28-1.06 8.54-1.06 2.813 0 5.307.147 7.48.44 2.173.293 4.097.617 5.77.97v8.76c-2.553-.827-4.96-1.4-7.22-1.72a42.5 42.5 0 0 0-6.65-.53c-2.2 0-3.973.397-5.32 1.19-1.32.793-1.98 1.893-1.98 3.3 0 .673.133 1.273.4 1.8.26.533.77 1.05 1.53 1.55.8.493 1.887 1.02 3.26 1.58 1.407.533 3.257 1.12 5.55 1.76 2.58.733 4.75 1.527 6.51 2.38 1.76.82 3.17 1.76 4.23 2.82 1.08 1.053 1.857 2.253 2.33 3.6.467 1.353.7 2.897.7 4.63Zm51.63-12.64c0 .733-.03 1.687-.09 2.86a53.35 53.35 0 0 1-.17 3.3h-29.4c0 1.967.293 3.7.88 5.2.613 1.493 1.463 2.753 2.55 3.78 1.113 1 2.433 1.767 3.96 2.3 1.553.527 3.27.79 5.15.79 2.173 0 4.493-.163 6.96-.49 2.493-.353 5.073-.91 7.74-1.67v8.54a48.97 48.97 0 0 1-3.74.88c-1.347.267-2.727.5-4.14.7a50.06 50.06 0 0 1-4.27.44c-1.433.12-2.827.18-4.18.18-3.4 0-6.45-.483-9.15-1.45-2.7-.973-4.99-2.397-6.87-4.27-1.88-1.907-3.317-4.257-4.31-7.05-1-2.787-1.5-6.013-1.5-9.68 0-3.64.5-6.94 1.5-9.9 1-3 2.407-5.553 4.22-7.66a18.323 18.323 0 0 1 6.6-4.93c2.613-1.173 5.52-1.76 8.72-1.76 3.167 0 5.967.5 8.4 1.5 2.44.967 4.483 2.33 6.13 4.09 1.64 1.76 2.887 3.86 3.74 6.3.847 2.433 1.27 5.1 1.27 8Zm-10.91-1.54c.027-1.76-.193-3.283-.66-4.57-.467-1.327-1.113-2.413-1.94-3.26a7.382 7.382 0 0 0-2.82-1.9c-1.053-.407-2.197-.61-3.43-.61-2.7 0-4.917.91-6.65 2.73-1.733 1.787-2.76 4.323-3.08 7.61h18.58Zm49.56 27.34-.27-5.86c-.933 1-1.913 1.927-2.94 2.78a18.73 18.73 0 0 1-3.4 2.15 16.904 16.904 0 0 1-4.04 1.41c-1.44.353-3.027.53-4.76.53-2.287 0-4.297-.337-6.03-1.01-1.733-.68-3.183-1.62-4.35-2.82-1.18-1.2-2.077-2.653-2.69-4.36-.587-1.7-.88-3.577-.88-5.63 0-2.113.44-4.067 1.32-5.86.913-1.787 2.28-3.327 4.1-4.62 1.847-1.287 4.133-2.297 6.86-3.03 2.76-.733 5.987-1.1 9.68-1.1h5.86v-2.69c0-1.147-.163-2.173-.49-3.08a5.468 5.468 0 0 0-1.58-2.38c-.707-.647-1.63-1.147-2.77-1.5-1.147-.347-2.557-.52-4.23-.52-2.64 0-5.25.307-7.83.92a39.586 39.586 0 0 0-7.44 2.51v-8.58c2.14-.853 4.607-1.56 7.4-2.12 2.813-.553 5.73-.83 8.75-.83 3.32 0 6.167.323 8.54.97 2.38.613 4.33 1.55 5.85 2.81 1.56 1.267 2.707 2.853 3.44 4.76.733 1.873 1.1 4.073 1.1 6.6v30.55h-9.2Zm-1.54-19.77h-6.56c-1.82 0-3.36.177-4.62.53-1.267.353-2.293.837-3.08 1.45-.8.62-1.387 1.34-1.76 2.16a6.2 6.2 0 0 0-.53 2.55c0 1.82.587 3.217 1.76 4.19 1.173.933 2.773 1.4 4.8 1.4 1.493 0 3.047-.54 4.66-1.62 1.613-1.087 3.39-2.643 5.33-4.67v-5.99Zm51.85-7.57c.06-1.667-.03-3.09-.27-4.27-.2-1.173-.55-2.14-1.05-2.9-.467-.767-1.053-1.323-1.76-1.67-.707-.353-1.513-.53-2.42-.53-1.587 0-3.23.66-4.93 1.98-1.673 1.287-3.523 3.427-5.55 6.42v28.3h-11v-44.7h9.72l.4 6.51a17.932 17.932 0 0 1 2.47-3.08 15.588 15.588 0 0 1 3.08-2.33c1.14-.68 2.4-1.193 3.78-1.54 1.38-.353 2.893-.53 4.54-.53 2.253 0 4.247.397 5.98 1.19 1.76.76 3.227 1.903 4.4 3.43 1.2 1.527 2.08 3.45 2.64 5.77.587 2.287.837 4.94.75 7.96l-10.78-.01Zm56.96 25.62a33.63 33.63 0 0 1-6.56 1.9c-2.267.4-4.63.6-7.09.6-3.553 0-6.737-.48-9.55-1.44-2.82-.973-5.213-2.413-7.18-4.32-1.96-1.907-3.47-4.267-4.53-7.08-1.027-2.82-1.54-6.08-1.54-9.78 0-3.58.557-6.82 1.67-9.72 1.147-2.907 2.747-5.387 4.8-7.44 2.053-2.053 4.52-3.64 7.4-4.76 2.9-1.113 6.127-1.67 9.68-1.67 2.907 0 5.34.163 7.3.49 2 .293 3.793.673 5.38 1.14V89.6c-1.82-.907-3.803-1.61-5.95-2.11-2.113-.5-4.123-.75-6.03-.75-1.993 0-3.783.337-5.37 1.01-1.58.68-2.913 1.62-4 2.82-1.087 1.2-1.923 2.667-2.51 4.4-.56 1.707-.84 3.587-.84 5.64 0 2.14.31 4.06.93 5.76.613 1.707 1.48 3.16 2.6 4.36 1.14 1.173 2.503 2.083 4.09 2.73 1.58.613 3.34.92 5.28.92.933 0 1.917-.057 2.95-.17a37.577 37.577 0 0 0 3.12-.57c1.06-.267 2.087-.56 3.08-.88a31.76 31.76 0 0 0 2.87-1.06v9.54Zm40.05 1.72V93.82c0-4.9-1.82-7.35-5.46-7.35-1.82 0-3.567.733-5.24 2.2-1.64 1.467-3.383 3.46-5.23 5.98v28.3h-10.74V60.77h10.74v15.32l-.53 8.1a28.283 28.283 0 0 1 2.77-2.9 13.777 13.777 0 0 1 3.04-2.2 13.872 13.872 0 0 1 3.52-1.33c1.267-.32 2.66-.48 4.18-.48 2.287 0 4.283.38 5.99 1.14 1.7.733 3.123 1.79 4.27 3.17 1.14 1.353 1.99 2.997 2.55 4.93.587 1.907.88 4.05.88 6.43v30.02l-10.74-.01Zm-135.13 85.02c0 4.107-.587 7.657-1.76 10.65-1.147 2.993-2.76 5.487-4.84 7.48-2.053 1.967-4.487 3.433-7.3 4.4-2.82.94-5.887 1.41-9.2 1.41a25.56 25.56 0 0 1-3.35-.22 26.243 26.243 0 0 1-3.04-.57v17.47h-10.74v-62.19h9.29l.26 6.6a33.869 33.869 0 0 1 2.82-3.12c1-.94 2.07-1.733 3.21-2.38a14.86 14.86 0 0 1 3.7-1.54c1.32-.353 2.803-.53 4.45-.53 2.64 0 4.987.53 7.04 1.59 2.053 1.053 3.77 2.563 5.15 4.53 1.407 1.933 2.477 4.297 3.21 7.09.733 2.753 1.1 5.863 1.1 9.33Zm-11.27.44c0-2.467-.177-4.567-.53-6.3-.347-1.733-.86-3.157-1.54-4.27-.64-1.113-1.447-1.92-2.42-2.42-.933-.527-2.017-.79-3.25-.79-1.82 0-3.567.733-5.24 2.2-1.647 1.467-3.393 3.463-5.24 5.99v19.54c.853.327 1.897.593 3.13.8 1.26.2 2.537.3 3.83.3 1.7 0 3.24-.353 4.62-1.06 1.4-.7 2.587-1.697 3.56-2.99 1-1.287 1.767-2.853 2.3-4.7.52-1.88.78-3.98.78-6.3Zm48.64 22.71-.26-5.85c-.94 1-1.923 1.923-2.95 2.77-1.027.82-2.16 1.54-3.4 2.16a17.203 17.203 0 0 1-4.04 1.4c-1.44.353-3.023.53-4.75.53-2.293 0-4.307-.337-6.04-1.01-1.733-.673-3.183-1.613-4.35-2.82-1.173-1.2-2.07-2.65-2.69-4.35-.587-1.707-.88-3.587-.88-5.64 0-2.113.44-4.063 1.32-5.85.913-1.793 2.28-3.333 4.1-4.62 1.847-1.293 4.133-2.307 6.86-3.04 2.76-.733 5.99-1.1 9.69-1.1h5.85v-2.69c0-1.14-.16-2.167-.48-3.08a5.561 5.561 0 0 0-1.59-2.37c-.707-.647-1.63-1.147-2.77-1.5-1.147-.353-2.557-.53-4.23-.53-2.64 0-5.25.307-7.83.92a40.54 40.54 0 0 0-7.44 2.51v-8.58c2.14-.853 4.607-1.557 7.4-2.11 2.813-.56 5.73-.84 8.75-.84 3.32 0 6.167.323 8.54.97 2.38.613 4.333 1.553 5.86 2.82 1.553 1.26 2.697 2.843 3.43 4.75.733 1.88 1.1 4.08 1.1 6.6v30.55h-9.2Zm-1.54-19.76h-6.56c-1.82 0-3.36.177-4.62.53-1.267.347-2.293.83-3.08 1.45-.793.613-1.38 1.33-1.76 2.15a6.27 6.27 0 0 0-.53 2.56c0 1.82.587 3.213 1.76 4.18 1.173.933 2.773 1.4 4.8 1.4 1.493 0 3.047-.54 4.66-1.62 1.613-1.087 3.39-2.643 5.33-4.67v-5.98Zm51.85-7.57c.06-1.673-.027-3.097-.26-4.27-.207-1.173-.56-2.14-1.06-2.9-.467-.767-1.053-1.327-1.76-1.68-.707-.353-1.513-.53-2.42-.53-1.587 0-3.23.66-4.93 1.98-1.673 1.293-3.523 3.437-5.55 6.43v28.3h-11v-44.72h9.73l.4 6.51a18.705 18.705 0 0 1 2.46-3.08 15.588 15.588 0 0 1 3.08-2.33 14.62 14.62 0 0 1 3.78-1.54c1.38-.353 2.893-.53 4.54-.53 2.26 0 4.253.397 5.98 1.19 1.76.76 3.227 1.903 4.4 3.43 1.207 1.533 2.09 3.457 2.65 5.77.587 2.287.833 4.943.74 7.97h-10.78Zm48.81 27.33-.26-5.85a30.36 30.36 0 0 1-2.95 2.77 19.328 19.328 0 0 1-3.39 2.16 17.38 17.38 0 0 1-4.05 1.4c-1.433.353-3.017.53-4.75.53-2.287 0-4.297-.337-6.03-1.01-1.733-.673-3.187-1.613-4.36-2.82-1.173-1.2-2.067-2.65-2.68-4.35-.587-1.707-.88-3.587-.88-5.64 0-2.113.44-4.063 1.32-5.85.907-1.793 2.27-3.333 4.09-4.62 1.847-1.293 4.137-2.307 6.87-3.04 2.753-.733 5.98-1.1 9.68-1.1h5.85v-2.69c0-1.14-.16-2.167-.48-3.08a5.439 5.439 0 0 0-1.59-2.37c-.7-.647-1.623-1.147-2.77-1.5-1.14-.353-2.547-.53-4.22-.53a33.8 33.8 0 0 0-7.84.92 40.54 40.54 0 0 0-7.44 2.51v-8.58c2.147-.853 4.613-1.557 7.4-2.11 2.813-.56 5.733-.84 8.76-.84 3.313 0 6.16.323 8.54.97 2.373.613 4.323 1.553 5.85 2.82 1.553 1.26 2.697 2.843 3.43 4.75.733 1.88 1.1 4.08 1.1 6.6v30.55h-9.2Zm-1.54-19.76h-6.55c-1.82 0-3.363.177-4.63.53-1.26.347-2.287.83-3.08 1.45-.793.613-1.38 1.33-1.76 2.15a6.27 6.27 0 0 0-.53 2.56c0 1.82.587 3.213 1.76 4.18 1.173.933 2.773 1.4 4.8 1.4 1.5 0 3.057-.54 4.67-1.62 1.613-1.087 3.387-2.643 5.32-4.67v-5.98Zm54.63 19.76v-30.46c0-1.113-.033-2.08-.1-2.9-.053-.853-.167-1.56-.34-2.12-.18-.553-.447-.963-.8-1.23-.32-.293-.773-.44-1.36-.44-.907 0-1.8.617-2.68 1.85-.887 1.233-1.887 3.333-3 6.3v29h-9.2v-30.46c0-1.113-.03-2.08-.09-2.9-.053-.853-.17-1.56-.35-2.12-.173-.553-.437-.963-.79-1.23-.353-.293-.82-.44-1.4-.44-.767 0-1.62.617-2.56 1.85s-1.983 3.333-3.13 6.3v29h-9.28v-44.72h7.96l.18 6.51c.647-1.32 1.293-2.447 1.94-3.38.64-.94 1.327-1.707 2.06-2.3.733-.613 1.513-1.05 2.34-1.31.847-.267 1.8-.4 2.86-.4 2.493 0 4.387.66 5.68 1.98 1.32 1.293 2.067 3.097 2.24 5.41.707-1.32 1.397-2.447 2.07-3.38.707-.94 1.427-1.707 2.16-2.3.76-.613 1.567-1.05 2.42-1.31.88-.267 1.847-.4 2.9-.4 3.26 0 5.667 1.143 7.22 3.43 1.553 2.267 2.33 5.627 2.33 10.08v32.09h-9.28Zm54.88-13.16c0 2.553-.57 4.74-1.71 6.56-1.113 1.787-2.613 3.253-4.5 4.4-1.84 1.113-3.95 1.92-6.33 2.42-2.347.533-4.753.8-7.22.8-3.287 0-6.25-.167-8.89-.5a55.582 55.582 0 0 1-7.48-1.31v-9.69c2.76 1.147 5.503 1.983 8.23 2.51 2.76.5 5.357.75 7.79.75 2.82 0 4.92-.44 6.3-1.32 1.4-.907 2.1-2.08 2.1-3.52 0-.673-.143-1.29-.43-1.85-.293-.56-.853-1.087-1.68-1.58-.787-.533-1.917-1.063-3.39-1.59-1.467-.553-3.387-1.17-5.76-1.85-2.2-.613-4.137-1.303-5.81-2.07-1.647-.787-3.013-1.71-4.1-2.77a10.634 10.634 0 0 1-2.46-3.65c-.533-1.407-.8-3.05-.8-4.93 0-1.82.413-3.537 1.24-5.15.82-1.613 2.037-3.023 3.65-4.23 1.647-1.233 3.687-2.2 6.12-2.9 2.44-.707 5.287-1.06 8.54-1.06 2.82 0 5.313.147 7.48.44 2.173.293 4.097.617 5.77.97v8.76c-2.553-.82-4.96-1.393-7.22-1.72a42.413 42.413 0 0 0-6.65-.53c-2.2 0-3.973.4-5.32 1.2-1.32.787-1.98 1.887-1.98 3.3 0 .667.133 1.267.4 1.8.26.533.77 1.047 1.53 1.54.8.5 1.887 1.027 3.26 1.58 1.407.533 3.257 1.12 5.55 1.76 2.58.733 4.75 1.527 6.51 2.38 1.76.82 3.17 1.76 4.23 2.82 1.087 1.053 1.863 2.253 2.33 3.6.467 1.353.7 2.897.7 4.63Z"/><path fill="#a0a0a0" stroke="#000" stroke-linecap="round" stroke-linejoin="round" stroke-opacity=".25" stroke-width="11.25" d="M69.79 79.87c0 2.467-.383 4.68-1.15 6.64a14.599 14.599 0 0 1-3.2 5.06c-1.387 1.413-3.063 2.56-5.03 3.44-1.967.88-4.167 1.48-6.6 1.8l-.44 8.28h-9.2l-.8-16.55h6.4c1.433 0 2.663-.207 3.69-.62 1.053-.413 1.903-.97 2.55-1.67a6.268 6.268 0 0 0 1.45-2.42c.327-.94.49-1.923.49-2.95 0-1.413-.31-2.72-.93-3.92-.587-1.233-1.523-2.303-2.81-3.21-1.267-.94-2.88-1.673-4.84-2.2-1.967-.533-4.333-.8-7.1-.8h-2.59v-9.99h3.04c4.52 0 8.467.543 11.84 1.63 3.373 1.06 6.19 2.483 8.45 4.27 2.26 1.76 3.947 3.783 5.06 6.07 1.147 2.293 1.72 4.673 1.72 7.14Zm-13.73 37.06c0 .967-.193 1.877-.58 2.73a7.457 7.457 0 0 1-1.54 2.24 6.753 6.753 0 0 1-2.29 1.5c-.88.38-1.817.57-2.81.57-1 0-1.94-.19-2.82-.57a6.742 6.742 0 0 1-2.24-1.5 7.611 7.611 0 0 1-1.55-2.24 6.633 6.633 0 0 1-.57-2.73c0-.973.19-1.883.57-2.73a7.58 7.58 0 0 1 1.55-2.25 6.742 6.742 0 0 1 2.24-1.5c.88-.38 1.82-.57 2.82-.57 1 0 1.937.193 2.81.58.88.347 1.647.847 2.3 1.5.64.64 1.15 1.387 1.53 2.24.387.847.58 1.757.58 2.73Zm53.61 23.5v-14.7l.48-8.72a23.203 23.203 0 0 1-2.64 2.82 14.76 14.76 0 0 1-3.04 2.2 13.925 13.925 0 0 1-3.56 1.41c-1.293.353-2.687.53-4.18.53-2.647 0-4.997-.53-7.05-1.59-2.053-1.053-3.783-2.55-5.19-4.49-1.38-1.96-2.437-4.337-3.17-7.13-.733-2.787-1.1-5.897-1.1-9.33 0-3.547.483-6.787 1.45-9.72.973-2.967 2.413-5.507 4.32-7.62 1.933-2.113 4.34-3.743 7.22-4.89 2.867-1.173 6.223-1.76 10.07-1.76.733 0 1.543.047 2.43.14.88.087 1.76.203 2.64.35.88.113 1.713.273 2.5.48.827.18 1.547.37 2.16.57l7.4-1.62v63.07h-10.74Zm-18.18-39.48c0 2.467.16 4.58.48 6.34.353 1.733.853 3.157 1.5 4.27.673 1.113 1.493 1.933 2.46 2.46.973.5 2.073.75 3.3.75 1.82 0 3.553-.733 5.2-2.2 1.64-1.467 3.387-3.477 5.24-6.03V87c-.853-.327-1.91-.593-3.17-.8-1.233-.2-2.48-.3-3.74-.3-1.733 0-3.29.35-4.67 1.05-1.38.707-2.567 1.707-3.56 3-.973 1.287-1.723 2.87-2.25 4.75-.533 1.847-.8 3.93-.8 6.25h.01Zm40.81-6.43v-8.54h37.84v8.54H132.3Zm0 17.34v-8.53h37.84v8.53H132.3Zm40.09 89.25c0 3.733-.38 7.153-1.14 10.26-.767 3.107-1.883 5.907-3.35 8.4l9.38 11.36h-12.73l-3.12-3.79c-2 1.587-4.217 2.79-6.65 3.61-2.433.8-5.03 1.2-7.79 1.2-3.053 0-5.767-.383-8.14-1.15-2.38-.793-4.39-1.91-6.03-3.35a13.866 13.866 0 0 1-3.74-5.2c-.853-2.047-1.28-4.317-1.28-6.81 0-2.113.28-4.023.84-5.73.553-1.7 1.3-3.223 2.24-4.57.94-1.38 2.027-2.6 3.26-3.66a34.926 34.926 0 0 1 3.92-2.99l-.88-1.19c-1.647-2.027-2.923-4.093-3.83-6.2-.88-2.147-1.32-4.23-1.32-6.25 0-2.06.367-4.027 1.1-5.9a14.596 14.596 0 0 1 3.21-5.02c1.44-1.467 3.2-2.64 5.28-3.52 2.087-.88 4.48-1.32 7.18-1.32 2.553 0 4.827.367 6.82 1.1 2 .7 3.687 1.667 5.06 2.9a11.728 11.728 0 0 1 3.13 4.27 12.74 12.74 0 0 1 1.1 5.24c0 2.287-.383 4.297-1.15 6.03a15.91 15.91 0 0 1-3.03 4.53 22.742 22.742 0 0 1-4.27 3.48c-1.587 1-3.217 1.967-4.89 2.9l9.68 11.93a32.61 32.61 0 0 0 .93-4.88c.2-1.76.273-3.653.22-5.68h9.99Zm-33.98 13.6c0 1.293.22 2.483.66 3.57a8.527 8.527 0 0 0 1.85 2.77c.82.76 1.803 1.36 2.95 1.8 1.14.413 2.417.62 3.83.62 1.553 0 3.02-.233 4.4-.7a11.101 11.101 0 0 0 3.83-2.2l-12.63-15.5c-1.467 1.233-2.657 2.613-3.57 4.14-.88 1.493-1.32 3.327-1.32 5.5Zm16.33-30.99c0-.76-.147-1.507-.44-2.24a5.519 5.519 0 0 0-1.19-1.98 5.887 5.887 0 0 0-1.94-1.4c-.76-.36-1.64-.54-2.64-.54-1 0-1.893.19-2.68.57-.793.353-1.47.84-2.03 1.46a6.74 6.74 0 0 0-1.23 2.15 8.406 8.406 0 0 0-.4 2.6c0 1.587.383 3.097 1.15 4.53.76 1.413 1.8 2.94 3.12 4.58l.1.18a73.782 73.782 0 0 0 3.16-2.03c1-.7 1.867-1.447 2.6-2.24.76-.793 1.347-1.643 1.76-2.55.44-.94.66-1.97.66-3.09Zm67.61 24.26c0 4.107-.587 7.657-1.76 10.65-1.147 2.993-2.76 5.487-4.84 7.48-2.06 1.967-4.497 3.433-7.31 4.4-2.82.94-5.887 1.41-9.2 1.41a25.72 25.72 0 0 1-3.35-.22 25.814 25.814 0 0 1-3.03-.57v17.47h-10.74v-62.19h9.28l.27 6.6a32.227 32.227 0 0 1 2.82-3.12c1-.94 2.067-1.733 3.2-2.38a15.067 15.067 0 0 1 3.7-1.54c1.327-.353 2.81-.53 4.45-.53 2.64 0 4.987.53 7.04 1.59 2.06 1.053 3.777 2.563 5.15 4.53 1.413 1.933 2.487 4.297 3.22 7.09.733 2.753 1.1 5.863 1.1 9.33Zm-11.27.44c0-2.467-.177-4.567-.53-6.3-.353-1.733-.867-3.157-1.54-4.27-.647-1.113-1.453-1.92-2.42-2.42-.933-.527-2.02-.79-3.26-.79-1.82 0-3.567.733-5.24 2.2-1.64 1.467-3.383 3.463-5.23 5.99v19.54c.847.327 1.887.593 3.12.8 1.267.2 2.543.3 3.83.3 1.7 0 3.24-.353 4.62-1.06a9.894 9.894 0 0 0 3.57-2.99c1-1.287 1.763-2.853 2.29-4.7.527-1.88.79-3.98.79-6.3Zm20.33-5.72v-8.54h37.86v8.54h-37.86Zm0 17.34v-8.54h37.86v8.54h-37.86Z"/><path fill="#fff" d="M219 109.8c0 2.553-.57 4.737-1.71 6.55-1.12 1.793-2.62 3.26-4.5 4.4-1.847 1.12-3.957 1.93-6.33 2.43a32.85 32.85 0 0 1-7.22.79c-3.287 0-6.253-.163-8.9-.49a56.569 56.569 0 0 1-7.47-1.32v-9.68c2.753 1.147 5.497 1.983 8.23 2.51 2.753.5 5.35.75 7.79.75 2.813 0 4.913-.44 6.3-1.32 1.4-.913 2.1-2.087 2.1-3.52a3.89 3.89 0 0 0-.44-1.85c-.293-.56-.85-1.09-1.67-1.59-.793-.527-1.923-1.053-3.39-1.58-1.467-.56-3.387-1.177-5.76-1.85-2.2-.613-4.137-1.303-5.81-2.07-1.647-.793-3.013-1.717-4.1-2.77a10.543 10.543 0 0 1-2.46-3.66c-.533-1.4-.8-3.04-.8-4.92 0-1.82.413-3.537 1.24-5.15.82-1.62 2.037-3.03 3.65-4.23 1.647-1.233 3.687-2.2 6.12-2.9 2.433-.707 5.28-1.06 8.54-1.06 2.813 0 5.307.147 7.48.44 2.173.293 4.097.617 5.77.97v8.76c-2.553-.827-4.96-1.4-7.22-1.72a42.5 42.5 0 0 0-6.65-.53c-2.2 0-3.973.397-5.32 1.19-1.32.793-1.98 1.893-1.98 3.3 0 .673.133 1.273.4 1.8.26.533.77 1.05 1.53 1.55.8.493 1.887 1.02 3.26 1.58 1.407.533 3.257 1.12 5.55 1.76 2.58.733 4.75 1.527 6.51 2.38 1.76.82 3.17 1.76 4.23 2.82 1.08 1.053 1.857 2.253 2.33 3.6.467 1.353.7 2.897.7 4.63Zm51.63-12.64c0 .733-.03 1.687-.09 2.86a53.35 53.35 0 0 1-.17 3.3h-29.4c0 1.967.293 3.7.88 5.2.613 1.493 1.463 2.753 2.55 3.78 1.113 1 2.433 1.767 3.96 2.3 1.553.527 3.27.79 5.15.79 2.173 0 4.493-.163 6.96-.49 2.493-.353 5.073-.91 7.74-1.67v8.54a48.97 48.97 0 0 1-3.74.88c-1.347.267-2.727.5-4.14.7a50.06 50.06 0 0 1-4.27.44c-1.433.12-2.827.18-4.18.18-3.4 0-6.45-.483-9.15-1.45-2.7-.973-4.99-2.397-6.87-4.27-1.88-1.907-3.317-4.257-4.31-7.05-1-2.787-1.5-6.013-1.5-9.68 0-3.64.5-6.94 1.5-9.9 1-3 2.407-5.553 4.22-7.66a18.323 18.323 0 0 1 6.6-4.93c2.613-1.173 5.52-1.76 8.72-1.76 3.167 0 5.967.5 8.4 1.5 2.44.967 4.483 2.33 6.13 4.09 1.64 1.76 2.887 3.86 3.74 6.3.847 2.433 1.27 5.1 1.27 8Zm-10.91-1.54c.027-1.76-.193-3.283-.66-4.57-.467-1.327-1.113-2.413-1.94-3.26a7.382 7.382 0 0 0-2.82-1.9c-1.053-.407-2.197-.61-3.43-.61-2.7 0-4.917.91-6.65 2.73-1.733 1.787-2.76 4.323-3.08 7.61h18.58Zm49.56 27.34-.27-5.86c-.933 1-1.913 1.927-2.94 2.78a18.73 18.73 0 0 1-3.4 2.15 16.904 16.904 0 0 1-4.04 1.41c-1.44.353-3.027.53-4.76.53-2.287 0-4.297-.337-6.03-1.01-1.733-.68-3.183-1.62-4.35-2.82-1.18-1.2-2.077-2.653-2.69-4.36-.587-1.7-.88-3.577-.88-5.63 0-2.113.44-4.067 1.32-5.86.913-1.787 2.28-3.327 4.1-4.62 1.847-1.287 4.133-2.297 6.86-3.03 2.76-.733 5.987-1.1 9.68-1.1h5.86v-2.69c0-1.147-.163-2.173-.49-3.08a5.468 5.468 0 0 0-1.58-2.38c-.707-.647-1.63-1.147-2.77-1.5-1.147-.347-2.557-.52-4.23-.52-2.64 0-5.25.307-7.83.92a39.586 39.586 0 0 0-7.44 2.51v-8.58c2.14-.853 4.607-1.56 7.4-2.12 2.813-.553 5.73-.83 8.75-.83 3.32 0 6.167.323 8.54.97 2.38.613 4.33 1.55 5.85 2.81 1.56 1.267 2.707 2.853 3.44 4.76.733 1.873 1.1 4.073 1.1 6.6v30.55h-9.2Zm-1.54-19.77h-6.56c-1.82 0-3.36.177-4.62.53-1.267.353-2.293.837-3.08 1.45-.8.62-1.387 1.34-1.76 2.16a6.2 6.2 0 0 0-.53 2.55c0 1.82.587 3.217 1.76 4.19 1.173.933 2.773 1.4 4.8 1.4 1.493 0 3.047-.54 4.66-1.62 1.613-1.087 3.39-2.643 5.33-4.67v-5.99Zm51.85-7.57c.06-1.667-.03-3.09-.27-4.27-.2-1.173-.55-2.14-1.05-2.9-.467-.767-1.053-1.323-1.76-1.67-.707-.353-1.513-.53-2.42-.53-1.587 0-3.23.66-4.93 1.98-1.673 1.287-3.523 3.427-5.55 6.42v28.3h-11v-44.7h9.72l.4 6.51a17.932 17.932 0 0 1 2.47-3.08 15.588 15.588 0 0 1 3.08-2.33c1.14-.68 2.4-1.193 3.78-1.54 1.38-.353 2.893-.53 4.54-.53 2.253 0 4.247.397 5.98 1.19 1.76.76 3.227 1.903 4.4 3.43 1.2 1.527 2.08 3.45 2.64 5.77.587 2.287.837 4.94.75 7.96l-10.78-.01Zm56.96 25.62a33.63 33.63 0 0 1-6.56 1.9c-2.267.4-4.63.6-7.09.6-3.553 0-6.737-.48-9.55-1.44-2.82-.973-5.213-2.413-7.18-4.32-1.96-1.907-3.47-4.267-4.53-7.08-1.027-2.82-1.54-6.08-1.54-9.78 0-3.58.557-6.82 1.67-9.72 1.147-2.907 2.747-5.387 4.8-7.44 2.053-2.053 4.52-3.64 7.4-4.76 2.9-1.113 6.127-1.67 9.68-1.67 2.907 0 5.34.163 7.3.49 2 .293 3.793.673 5.38 1.14V89.6c-1.82-.907-3.803-1.61-5.95-2.11-2.113-.5-4.123-.75-6.03-.75-1.993 0-3.783.337-5.37 1.01-1.58.68-2.913 1.62-4 2.82-1.087 1.2-1.923 2.667-2.51 4.4-.56 1.707-.84 3.587-.84 5.64 0 2.14.31 4.06.93 5.76.613 1.707 1.48 3.16 2.6 4.36 1.14 1.173 2.503 2.083 4.09 2.73 1.58.613 3.34.92 5.28.92.933 0 1.917-.057 2.95-.17a37.577 37.577 0 0 0 3.12-.57c1.06-.267 2.087-.56 3.08-.88a31.76 31.76 0 0 0 2.87-1.06v9.54Zm40.05 1.72V93.82c0-4.9-1.82-7.35-5.46-7.35-1.82 0-3.567.733-5.24 2.2-1.64 1.467-3.383 3.46-5.23 5.98v28.3h-10.74V60.77h10.74v15.32l-.53 8.1a28.283 28.283 0 0 1 2.77-2.9 13.777 13.777 0 0 1 3.04-2.2 13.872 13.872 0 0 1 3.52-1.33c1.267-.32 2.66-.48 4.18-.48 2.287 0 4.283.38 5.99 1.14 1.7.733 3.123 1.79 4.27 3.17 1.14 1.353 1.99 2.997 2.55 4.93.587 1.907.88 4.05.88 6.43v30.02l-10.74-.01Zm-135.13 85.02c0 4.107-.587 7.657-1.76 10.65-1.147 2.993-2.76 5.487-4.84 7.48-2.053 1.967-4.487 3.433-7.3 4.4-2.82.94-5.887 1.41-9.2 1.41a25.56 25.56 0 0 1-3.35-.22 26.243 26.243 0 0 1-3.04-.57v17.47h-10.74v-62.19h9.29l.26 6.6a33.869 33.869 0 0 1 2.82-3.12c1-.94 2.07-1.733 3.21-2.38a14.86 14.86 0 0 1 3.7-1.54c1.32-.353 2.803-.53 4.45-.53 2.64 0 4.987.53 7.04 1.59 2.053 1.053 3.77 2.563 5.15 4.53 1.407 1.933 2.477 4.297 3.21 7.09.733 2.753 1.1 5.863 1.1 9.33Zm-11.27.44c0-2.467-.177-4.567-.53-6.3-.347-1.733-.86-3.157-1.54-4.27-.64-1.113-1.447-1.92-2.42-2.42-.933-.527-2.017-.79-3.25-.79-1.82 0-3.567.733-5.24 2.2-1.647 1.467-3.393 3.463-5.24 5.99v19.54c.853.327 1.897.593 3.13.8 1.26.2 2.537.3 3.83.3 1.7 0 3.24-.353 4.62-1.06 1.4-.7 2.587-1.697 3.56-2.99 1-1.287 1.767-2.853 2.3-4.7.52-1.88.78-3.98.78-6.3Zm48.64 22.71-.26-5.85c-.94 1-1.923 1.923-2.95 2.77-1.027.82-2.16 1.54-3.4 2.16a17.203 17.203 0 0 1-4.04 1.4c-1.44.353-3.023.53-4.75.53-2.293 0-4.307-.337-6.04-1.01-1.733-.673-3.183-1.613-4.35-2.82-1.173-1.2-2.07-2.65-2.69-4.35-.587-1.707-.88-3.587-.88-5.64 0-2.113.44-4.063 1.32-5.85.913-1.793 2.28-3.333 4.1-4.62 1.847-1.293 4.133-2.307 6.86-3.04 2.76-.733 5.99-1.1 9.69-1.1h5.85v-2.69c0-1.14-.16-2.167-.48-3.08a5.561 5.561 0 0 0-1.59-2.37c-.707-.647-1.63-1.147-2.77-1.5-1.147-.353-2.557-.53-4.23-.53-2.64 0-5.25.307-7.83.92a40.54 40.54 0 0 0-7.44 2.51v-8.58c2.14-.853 4.607-1.557 7.4-2.11 2.813-.56 5.73-.84 8.75-.84 3.32 0 6.167.323 8.54.97 2.38.613 4.333 1.553 5.86 2.82 1.553 1.26 2.697 2.843 3.43 4.75.733 1.88 1.1 4.08 1.1 6.6v30.55h-9.2Zm-1.54-19.76h-6.56c-1.82 0-3.36.177-4.62.53-1.267.347-2.293.83-3.08 1.45-.793.613-1.38 1.33-1.76 2.15a6.27 6.27 0 0 0-.53 2.56c0 1.82.587 3.213 1.76 4.18 1.173.933 2.773 1.4 4.8 1.4 1.493 0 3.047-.54 4.66-1.62 1.613-1.087 3.39-2.643 5.33-4.67v-5.98Zm51.85-7.57c.06-1.673-.027-3.097-.26-4.27-.207-1.173-.56-2.14-1.06-2.9-.467-.767-1.053-1.327-1.76-1.68-.707-.353-1.513-.53-2.42-.53-1.587 0-3.23.66-4.93 1.98-1.673 1.293-3.523 3.437-5.55 6.43v28.3h-11v-44.72h9.73l.4 6.51a18.705 18.705 0 0 1 2.46-3.08 15.588 15.588 0 0 1 3.08-2.33 14.62 14.62 0 0 1 3.78-1.54c1.38-.353 2.893-.53 4.54-.53 2.26 0 4.253.397 5.98 1.19 1.76.76 3.227 1.903 4.4 3.43 1.207 1.533 2.09 3.457 2.65 5.77.587 2.287.833 4.943.74 7.97h-10.78Zm48.81 27.33-.26-5.85a30.36 30.36 0 0 1-2.95 2.77 19.328 19.328 0 0 1-3.39 2.16 17.38 17.38 0 0 1-4.05 1.4c-1.433.353-3.017.53-4.75.53-2.287 0-4.297-.337-6.03-1.01-1.733-.673-3.187-1.613-4.36-2.82-1.173-1.2-2.067-2.65-2.68-4.35-.587-1.707-.88-3.587-.88-5.64 0-2.113.44-4.063 1.32-5.85.907-1.793 2.27-3.333 4.09-4.62 1.847-1.293 4.137-2.307 6.87-3.04 2.753-.733 5.98-1.1 9.68-1.1h5.85v-2.69c0-1.14-.16-2.167-.48-3.08a5.439 5.439 0 0 0-1.59-2.37c-.7-.647-1.623-1.147-2.77-1.5-1.14-.353-2.547-.53-4.22-.53a33.8 33.8 0 0 0-7.84.92 40.54 40.54 0 0 0-7.44 2.51v-8.58c2.147-.853 4.613-1.557 7.4-2.11 2.813-.56 5.733-.84 8.76-.84 3.313 0 6.16.323 8.54.97 2.373.613 4.323 1.553 5.85 2.82 1.553 1.26 2.697 2.843 3.43 4.75.733 1.88 1.1 4.08 1.1 6.6v30.55h-9.2Zm-1.54-19.76h-6.55c-1.82 0-3.363.177-4.63.53-1.26.347-2.287.83-3.08 1.45-.793.613-1.38 1.33-1.76 2.15a6.27 6.27 0 0 0-.53 2.56c0 1.82.587 3.213 1.76 4.18 1.173.933 2.773 1.4 4.8 1.4 1.5 0 3.057-.54 4.67-1.62 1.613-1.087 3.387-2.643 5.32-4.67v-5.98Zm54.63 19.76v-30.46c0-1.113-.033-2.08-.1-2.9-.053-.853-.167-1.56-.34-2.12-.18-.553-.447-.963-.8-1.23-.32-.293-.773-.44-1.36-.44-.907 0-1.8.617-2.68 1.85-.887 1.233-1.887 3.333-3 6.3v29h-9.2v-30.46c0-1.113-.03-2.08-.09-2.9-.053-.853-.17-1.56-.35-2.12-.173-.553-.437-.963-.79-1.23-.353-.293-.82-.44-1.4-.44-.767 0-1.62.617-2.56 1.85s-1.983 3.333-3.13 6.3v29h-9.28v-44.72h7.96l.18 6.51c.647-1.32 1.293-2.447 1.94-3.38.64-.94 1.327-1.707 2.06-2.3.733-.613 1.513-1.05 2.34-1.31.847-.267 1.8-.4 2.86-.4 2.493 0 4.387.66 5.68 1.98 1.32 1.293 2.067 3.097 2.24 5.41.707-1.32 1.397-2.447 2.07-3.38.707-.94 1.427-1.707 2.16-2.3.76-.613 1.567-1.05 2.42-1.31.88-.267 1.847-.4 2.9-.4 3.26 0 5.667 1.143 7.22 3.43 1.553 2.267 2.33 5.627 2.33 10.08v32.09h-9.28Zm54.88-13.16c0 2.553-.57 4.74-1.71 6.56-1.113 1.787-2.613 3.253-4.5 4.4-1.84 1.113-3.95 1.92-6.33 2.42-2.347.533-4.753.8-7.22.8-3.287 0-6.25-.167-8.89-.5a55.582 55.582 0 0 1-7.48-1.31v-9.69c2.76 1.147 5.503 1.983 8.23 2.51 2.76.5 5.357.75 7.79.75 2.82 0 4.92-.44 6.3-1.32 1.4-.907 2.1-2.08 2.1-3.52 0-.673-.143-1.29-.43-1.85-.293-.56-.853-1.087-1.68-1.58-.787-.533-1.917-1.063-3.39-1.59-1.467-.553-3.387-1.17-5.76-1.85-2.2-.613-4.137-1.303-5.81-2.07-1.647-.787-3.013-1.71-4.1-2.77a10.634 10.634 0 0 1-2.46-3.65c-.533-1.407-.8-3.05-.8-4.93 0-1.82.413-3.537 1.24-5.15.82-1.613 2.037-3.023 3.65-4.23 1.647-1.233 3.687-2.2 6.12-2.9 2.44-.707 5.287-1.06 8.54-1.06 2.82 0 5.313.147 7.48.44 2.173.293 4.097.617 5.77.97v8.76c-2.553-.82-4.96-1.393-7.22-1.72a42.413 42.413 0 0 0-6.65-.53c-2.2 0-3.973.4-5.32 1.2-1.32.787-1.98 1.887-1.98 3.3 0 .667.133 1.267.4 1.8.26.533.77 1.047 1.53 1.54.8.5 1.887 1.027 3.26 1.58 1.407.533 3.257 1.12 5.55 1.76 2.58.733 4.75 1.527 6.51 2.38 1.76.82 3.17 1.76 4.23 2.82 1.087 1.053 1.863 2.253 2.33 3.6.467 1.353.7 2.897.7 4.63Z"/><path fill="#595959" d="M69.79 79.87c0 2.467-.383 4.68-1.15 6.64a14.599 14.599 0 0 1-3.2 5.06c-1.387 1.413-3.063 2.56-5.03 3.44-1.967.88-4.167 1.48-6.6 1.8l-.44 8.28h-9.2l-.8-16.55h6.4c1.433 0 2.663-.207 3.69-.62 1.053-.413 1.903-.97 2.55-1.67a6.268 6.268 0 0 0 1.45-2.42c.327-.94.49-1.923.49-2.95 0-1.413-.31-2.72-.93-3.92-.587-1.233-1.523-2.303-2.81-3.21-1.267-.94-2.88-1.673-4.84-2.2-1.967-.533-4.333-.8-7.1-.8h-2.59v-9.99h3.04c4.52 0 8.467.543 11.84 1.63 3.373 1.06 6.19 2.483 8.45 4.27 2.26 1.76 3.947 3.783 5.06 6.07 1.147 2.293 1.72 4.673 1.72 7.14Zm-13.73 37.06c0 .967-.193 1.877-.58 2.73a7.457 7.457 0 0 1-1.54 2.24 6.753 6.753 0 0 1-2.29 1.5c-.88.38-1.817.57-2.81.57-1 0-1.94-.19-2.82-.57a6.742 6.742 0 0 1-2.24-1.5 7.611 7.611 0 0 1-1.55-2.24 6.633 6.633 0 0 1-.57-2.73c0-.973.19-1.883.57-2.73a7.58 7.58 0 0 1 1.55-2.25 6.742 6.742 0 0 1 2.24-1.5c.88-.38 1.82-.57 2.82-.57 1 0 1.937.193 2.81.58.88.347 1.647.847 2.3 1.5.64.64 1.15 1.387 1.53 2.24.387.847.58 1.757.58 2.73Zm53.61 23.5v-14.7l.48-8.72a23.203 23.203 0 0 1-2.64 2.82 14.76 14.76 0 0 1-3.04 2.2 13.925 13.925 0 0 1-3.56 1.41c-1.293.353-2.687.53-4.18.53-2.647 0-4.997-.53-7.05-1.59-2.053-1.053-3.783-2.55-5.19-4.49-1.38-1.96-2.437-4.337-3.17-7.13-.733-2.787-1.1-5.897-1.1-9.33 0-3.547.483-6.787 1.45-9.72.973-2.967 2.413-5.507 4.32-7.62 1.933-2.113 4.34-3.743 7.22-4.89 2.867-1.173 6.223-1.76 10.07-1.76.733 0 1.543.047 2.43.14.88.087 1.76.203 2.64.35.88.113 1.713.273 2.5.48.827.18 1.547.37 2.16.57l7.4-1.62v63.07h-10.74Zm-18.18-39.48c0 2.467.16 4.58.48 6.34.353 1.733.853 3.157 1.5 4.27.673 1.113 1.493 1.933 2.46 2.46.973.5 2.073.75 3.3.75 1.82 0 3.553-.733 5.2-2.2 1.64-1.467 3.387-3.477 5.24-6.03V87c-.853-.327-1.91-.593-3.17-.8-1.233-.2-2.48-.3-3.74-.3-1.733 0-3.29.35-4.67 1.05-1.38.707-2.567 1.707-3.56 3-.973 1.287-1.723 2.87-2.25 4.75-.533 1.847-.8 3.93-.8 6.25h.01Zm40.81-6.43v-8.54h37.84v8.54H132.3Zm0 17.34v-8.53h37.84v8.53H132.3Zm40.09 89.25c0 3.733-.38 7.153-1.14 10.26-.767 3.107-1.883 5.907-3.35 8.4l9.38 11.36h-12.73l-3.12-3.79c-2 1.587-4.217 2.79-6.65 3.61-2.433.8-5.03 1.2-7.79 1.2-3.053 0-5.767-.383-8.14-1.15-2.38-.793-4.39-1.91-6.03-3.35a13.866 13.866 0 0 1-3.74-5.2c-.853-2.047-1.28-4.317-1.28-6.81 0-2.113.28-4.023.84-5.73.553-1.7 1.3-3.223 2.24-4.57.94-1.38 2.027-2.6 3.26-3.66a34.926 34.926 0 0 1 3.92-2.99l-.88-1.19c-1.647-2.027-2.923-4.093-3.83-6.2-.88-2.147-1.32-4.23-1.32-6.25 0-2.06.367-4.027 1.1-5.9a14.596 14.596 0 0 1 3.21-5.02c1.44-1.467 3.2-2.64 5.28-3.52 2.087-.88 4.48-1.32 7.18-1.32 2.553 0 4.827.367 6.82 1.1 2 .7 3.687 1.667 5.06 2.9a11.728 11.728 0 0 1 3.13 4.27 12.74 12.74 0 0 1 1.1 5.24c0 2.287-.383 4.297-1.15 6.03a15.91 15.91 0 0 1-3.03 4.53 22.742 22.742 0 0 1-4.27 3.48c-1.587 1-3.217 1.967-4.89 2.9l9.68 11.93a32.61 32.61 0 0 0 .93-4.88c.2-1.76.273-3.653.22-5.68h9.99Zm-33.98 13.6c0 1.293.22 2.483.66 3.57a8.527 8.527 0 0 0 1.85 2.77c.82.76 1.803 1.36 2.95 1.8 1.14.413 2.417.62 3.83.62 1.553 0 3.02-.233 4.4-.7a11.101 11.101 0 0 0 3.83-2.2l-12.63-15.5c-1.467 1.233-2.657 2.613-3.57 4.14-.88 1.493-1.32 3.327-1.32 5.5Zm16.33-30.99c0-.76-.147-1.507-.44-2.24a5.519 5.519 0 0 0-1.19-1.98 5.887 5.887 0 0 0-1.94-1.4c-.76-.36-1.64-.54-2.64-.54-1 0-1.893.19-2.68.57-.793.353-1.47.84-2.03 1.46a6.74 6.74 0 0 0-1.23 2.15 8.406 8.406 0 0 0-.4 2.6c0 1.587.383 3.097 1.15 4.53.76 1.413 1.8 2.94 3.12 4.58l.1.18a73.782 73.782 0 0 0 3.16-2.03c1-.7 1.867-1.447 2.6-2.24.76-.793 1.347-1.643 1.76-2.55.44-.94.66-1.97.66-3.09Zm67.61 24.26c0 4.107-.587 7.657-1.76 10.65-1.147 2.993-2.76 5.487-4.84 7.48-2.06 1.967-4.497 3.433-7.31 4.4-2.82.94-5.887 1.41-9.2 1.41a25.72 25.72 0 0 1-3.35-.22 25.814 25.814 0 0 1-3.03-.57v17.47h-10.74v-62.19h9.28l.27 6.6a32.227 32.227 0 0 1 2.82-3.12c1-.94 2.067-1.733 3.2-2.38a15.067 15.067 0 0 1 3.7-1.54c1.327-.353 2.81-.53 4.45-.53 2.64 0 4.987.53 7.04 1.59 2.06 1.053 3.777 2.563 5.15 4.53 1.413 1.933 2.487 4.297 3.22 7.09.733 2.753 1.1 5.863 1.1 9.33Zm-11.27.44c0-2.467-.177-4.567-.53-6.3-.353-1.733-.867-3.157-1.54-4.27-.647-1.113-1.453-1.92-2.42-2.42-.933-.527-2.02-.79-3.26-.79-1.82 0-3.567.733-5.24 2.2-1.64 1.467-3.383 3.463-5.23 5.99v19.54c.847.327 1.887.593 3.12.8 1.267.2 2.543.3 3.83.3 1.7 0 3.24-.353 4.62-1.06a9.894 9.894 0 0 0 3.57-2.99c1-1.287 1.763-2.853 2.29-4.7.527-1.88.79-3.98.79-6.3Zm20.33-5.72v-8.54h37.86v8.54h-37.86Zm0 17.34v-8.54h37.86v8.54h-37.86Z"/></svg>