<svg xmlns="http://www.w3.org/2000/svg" viewBox="0 0 48 24">
  <rect width="48" height="24" fill="#4C97FF" rx="2"/>
  <rect x="4" y="4" width="8" height="12" rx="2" stroke="#FFFFFF" stroke-width="1" fill="none"/>
  <rect x="6" y="6" width="4" height="2" rx="1" fill="#FFFFFF"/>
  <circle cx="8" cy="10" r="1" fill="#FFFFFF"/>
  <circle cx="8" cy="12" r="1" fill="#FFFFFF"/>
  <circle cx="8" cy="14" r="1" fill="#FFFFFF"/>
  <path d="M8 2 L10 4 L9 4 L9 6 L7 6 L7 4 L6 4 Z" fill="#FFFFFF"/>
  <rect x="18" y="6" width="4" height="3" rx="0.5" fill="#FFFFFF" stroke="#3373CC" stroke-width="0.5"/>
  <rect x="23" y="6" width="4" height="3" rx="0.5" fill="#FFFFFF" stroke="#3373CC" stroke-width="0.5"/>
  <rect x="28" y="6" width="4" height="3" rx="0.5" fill="#FFFFFF" stroke="#3373CC" stroke-width="0.5"/>
  <rect x="33" y="6" width="4" height="3" rx="0.5" fill="#FFFFFF" stroke="#3373CC" stroke-width="0.5"/>
  <rect x="38" y="6" width="4" height="3" rx="0.5" fill="#FFFFFF" stroke="#3373CC" stroke-width="0.5"/>
  <rect x="20" y="12" width="4" height="3" rx="0.5" fill="#FFFFFF" stroke="#3373CC" stroke-width="0.5"/>
  <rect x="25" y="12" width="4" height="3" rx="0.5" fill="#FFFFFF" stroke="#3373CC" stroke-width="0.5"/>
  <rect x="30" y="12" width="4" height="3" rx="0.5" fill="#FFFFFF" stroke="#3373CC" stroke-width="0.5"/>
  <rect x="35" y="12" width="4" height="3" rx="0.5" fill="#FFFFFF" stroke="#3373CC" stroke-width="0.5"/>
</svg>