<svg xmlns="http://www.w3.org/2000/svg" viewBox="0 0 200 200"><rect width="200" height="200" rx="25" fill="#4C97FF"/><path d="M50 50 L100 25 L150 50 L150 125 L100 150 L50 125 Z" fill="white" opacity="0.95"/><circle cx="100" cy="70" r="20" fill="#E6F2FF"/><path d="M85 55 L115 55 L100 85 Z" fill="#4C97FF"/><rect x="55" y="95" width="90" height="30" rx="6" fill="#4C97FF" opacity="0.8"/><text x="100" y="115" text-anchor="middle" fill="white" font-family="Arial" font-size="14" font-weight="bold">Misc Blocks</text><text x="20" y="35" fill="white" font-family="Arial" font-size="18" font-weight="bold" transform="rotate(-15,20,35)">π</text><text x="180" y="35" fill="white" font-family="Arial" font-size="18" font-weight="bold" transform="rotate(15,180,35)">∑</text><text x="20" y="165" fill="white" font-family="Arial" font-size="18" font-weight="bold" transform="rotate(15,20,165)">√</text><text x="180" y="165" fill="white" font-family="Arial" font-size="18" font-weight="bold" transform="rotate(-15,180,165)">≈</text><text x="45" y="185" fill="white" font-family="Arial" font-size="14" transform="rotate(-10,45,185)">∫</text><text x="155" y="185" fill="white" font-family="Arial" font-size="14" transform="rotate(10,155,185)">∞</text><text x="100" y="20" fill="white" font-family="Arial" font-size="14" transform="rotate(5,100,20)">∂</text><text x="100" y="180" fill="white" font-family="Arial" font-size="14" transform="rotate(-5,100,180)">θ</text><text x="35" y="75" fill="white" font-family="Arial" font-size="14" transform="rotate(-8,35,75)">×</text><text x="165" y="75" fill="white" font-family="Arial" font-size="14" transform="rotate(8,165,75)">÷</text><text x="35" y="125" fill="white" font-family="Arial" font-size="14" transform="rotate(12,35,125)">≠</text><text x="165" y="125" fill="white" font-family="Arial" font-size="14" transform="rotate(-12,165,125)">±</text></svg>