<?xml version="1.0" encoding="UTF-8" standalone="no"?>
<!-- Created with Inkscape (http://www.inkscape.org/) -->

<svg
   width="600"
   height="300"
   viewBox="0 0 158.75 79.374999"
   version="1.1"
   id="svg5"
   xml:space="preserve"
   inkscape:version="1.2.2 (732a01da63, 2022-12-09)"
   sodipodi:docname="wgpuCompute.svg"
   xmlns:inkscape="http://www.inkscape.org/namespaces/inkscape"
   xmlns:sodipodi="http://sodipodi.sourceforge.net/DTD/sodipodi-0.dtd"
   xmlns="http://www.w3.org/2000/svg"
   xmlns:svg="http://www.w3.org/2000/svg"><sodipodi:namedview
     id="namedview7"
     pagecolor="#ffffff"
     bordercolor="#000000"
     borderopacity="0.25"
     inkscape:showpageshadow="2"
     inkscape:pageopacity="0"
     inkscape:pagecheckerboard="0"
     inkscape:deskcolor="#d1d1d1"
     inkscape:document-units="mm"
     showgrid="true"
     inkscape:zoom="1.0544998"
     inkscape:cx="363.67954"
     inkscape:cy="240.8725"
     inkscape:window-width="1920"
     inkscape:window-height="1017"
     inkscape:window-x="-8"
     inkscape:window-y="-8"
     inkscape:window-maximized="1"
     inkscape:current-layer="layer1"><inkscape:grid
       type="xygrid"
       id="grid8812" /></sodipodi:namedview><defs
     id="defs2"><inkscape:path-effect
       effect="tiling"
       id="path-effect10769"
       is_visible="true"
       lpeversion="1"
       unit="px"
       seed="1;1"
       lpesatellites=""
       num_rows="5"
       num_cols="11"
       gapx="28"
       gapy="29"
       offset="0"
       offset_type="false"
       scale="0"
       rotate="0"
       mirrorrowsx="false"
       mirrorrowsy="false"
       mirrorcolsx="false"
       mirrorcolsy="false"
       mirrortrans="false"
       shrink_interp="false"
       split_items="false"
       link_styles="false"
       interpolate_scalex="false"
       interpolate_scaley="true"
       interpolate_rotatex="false"
       interpolate_rotatey="true"
       random_scale="false"
       random_rotate="false"
       random_gap_y="false"
       random_gap_x="false"
       transformorigin="" /><inkscape:path-effect
       effect="skeletal"
       id="path-effect5578"
       is_visible="true"
       lpeversion="1"
       pattern="#path5512"
       copytype="repeated"
       prop_scale="0.99"
       scale_y_rel="true"
       spacing="50"
       normal_offset="0"
       tang_offset="0"
       prop_units="false"
       vertical_pattern="false"
       hide_knot="false"
       fuse_tolerance="0" /><inkscape:path-effect
       effect="skeletal"
       id="path-effect5522"
       is_visible="true"
       lpeversion="1"
       pattern="M 0,0 H 1"
       copytype="single_stretched"
       prop_scale="1"
       scale_y_rel="false"
       spacing="0"
       normal_offset="0"
       tang_offset="0"
       prop_units="false"
       vertical_pattern="false"
       hide_knot="false"
       fuse_tolerance="0" /><inkscape:path-effect
       effect="tiling"
       id="path-effect5520"
       is_visible="true"
       lpeversion="1"
       unit="px"
       seed="1;1"
       lpesatellites=""
       num_rows="3"
       num_cols="3"
       gapx="0"
       gapy="0"
       offset="0"
       offset_type="false"
       scale="0"
       rotate="0"
       mirrorrowsx="false"
       mirrorrowsy="true"
       mirrorcolsx="true"
       mirrorcolsy="false"
       mirrortrans="false"
       shrink_interp="false"
       split_items="false"
       link_styles="false"
       interpolate_scalex="false"
       interpolate_scaley="true"
       interpolate_rotatex="false"
       interpolate_rotatey="true"
       random_scale="false"
       random_rotate="false"
       random_gap_y="false"
       random_gap_x="false"
       transformorigin="matrix(1,0,0,1.1182796,0,-0.83420632)" /><inkscape:path-effect
       effect="taper_stroke"
       id="path-effect5514"
       is_visible="true"
       lpeversion="1"
       stroke_width="1.0752743"
       attach_start="0.4"
       end_offset="0"
       start_smoothing="0.2"
       end_smoothing="0"
       jointype="extrapolated"
       start_shape="center"
       end_shape="center"
       miter_limit="100" /><style
       id="style132">
      .cls-1, .cls-2, .cls-3, .cls-4, .cls-5 {
        fill-rule: evenodd;
        stroke-linejoin: bevel;
      }

      .cls-6 {
        fill-rule: evenodd;
      }

      .cls-1 {
        fill: #005a9c;
        stroke: #005a9c;
      }

      .cls-2 {
        fill: #0066b0;
        stroke: #0066b0;
      }

      .cls-3 {
        fill: #0076cc;
        stroke: #0076cc;
      }

      .cls-4 {
        fill: #0086e8;
        stroke: #0086e8;
      }

      .cls-5 {
        fill: #0093ff;
        stroke: #0093ff;
      }

      @media (prefers-color-scheme: dark) {
        .cls-6 {
          fill: #eeeeee;
        }
      }
    </style><inkscape:path-effect
       effect="fill_between_many"
       method="bsplinespiro"
       linkedpaths="#path5512,0,1"
       id="path-effect5516" /></defs><g
     inkscape:label="Layer 1"
     inkscape:groupmode="layer"
     id="layer1"
     transform="translate(0,-12.823737)"><rect
       style="fill:#00cc77;fill-opacity:1;stroke:none;stroke-width:4.23333;stroke-linecap:round;stroke-linejoin:round;stroke-opacity:1"
       id="rect5677"
       width="158.75"
       height="79.375"
       x="0"
       y="12.823737"
       inkscape:label="bg" /><path
       style="fill:#00bd6e;fill-opacity:1;stroke:none;stroke-width:1.5875;stroke-linecap:round;stroke-linejoin:round;stroke-dasharray:none;stroke-opacity:1"
       id="path10767"
       inkscape:path-effect="#path-effect10769"
       sodipodi:type="arc"
       sodipodi:cx="5.3047585"
       sodipodi:cy="17.189362"
       sodipodi:rx="3.9687507"
       sodipodi:ry="3.9687507"
       d="m 9.2735093,17.189362 c 0,2.19188 -1.7768703,3.96875 -3.9687508,3.96875 -2.1918804,0 -3.9687507,-1.77687 -3.9687507,-3.96875 0,-2.191881 1.7768703,-3.968751 3.9687507,-3.968751 2.1918805,0 3.9687508,1.77687 3.9687508,3.968751 z m 15.3458347,0 c 0,2.19188 -1.77687,3.96875 -3.968751,3.96875 -2.19188,0 -3.96875,-1.77687 -3.96875,-3.96875 0,-2.191881 1.77687,-3.968751 3.96875,-3.968751 2.191881,0 3.968751,1.77687 3.968751,3.968751 z m 15.345835,0 c 0,2.19188 -1.77687,3.96875 -3.968751,3.96875 -2.19188,0 -3.968751,-1.77687 -3.968751,-3.96875 0,-2.191881 1.776871,-3.968751 3.968751,-3.968751 2.191881,0 3.968751,1.77687 3.968751,3.968751 z m 15.345835,0 c 0,2.19188 -1.776871,3.96875 -3.968751,3.96875 -2.191881,0 -3.968751,-1.77687 -3.968751,-3.96875 0,-2.191881 1.77687,-3.968751 3.968751,-3.968751 2.19188,0 3.968751,1.77687 3.968751,3.968751 z m 15.345834,0 c 0,2.19188 -1.77687,3.96875 -3.96875,3.96875 -2.191881,0 -3.968751,-1.77687 -3.968751,-3.96875 0,-2.191881 1.77687,-3.968751 3.968751,-3.968751 2.19188,0 3.96875,1.77687 3.96875,3.968751 z m 15.345835,0 c 0,2.19188 -1.77687,3.96875 -3.968751,3.96875 -2.19188,0 -3.96875,-1.77687 -3.96875,-3.96875 0,-2.191881 1.77687,-3.968751 3.96875,-3.968751 2.191881,0 3.968751,1.77687 3.968751,3.968751 z m 15.345837,0 c 0,2.19188 -1.776872,3.96875 -3.968753,3.96875 -2.19188,0 -3.968751,-1.77687 -3.968751,-3.96875 0,-2.191881 1.776871,-3.968751 3.968751,-3.968751 2.191881,0 3.968753,1.77687 3.968753,3.968751 z m 15.34583,0 c 0,2.19188 -1.77687,3.96875 -3.96875,3.96875 -2.19188,0 -3.96875,-1.77687 -3.96875,-3.96875 0,-2.191881 1.77687,-3.968751 3.96875,-3.968751 2.19188,0 3.96875,1.77687 3.96875,3.968751 z m 15.34584,0 c 0,2.19188 -1.77687,3.96875 -3.96875,3.96875 -2.19188,0 -3.96875,-1.77687 -3.96875,-3.96875 0,-2.191881 1.77687,-3.968751 3.96875,-3.968751 2.19188,0 3.96875,1.77687 3.96875,3.968751 z m 15.34583,0 c 0,2.19188 -1.77687,3.96875 -3.96875,3.96875 -2.19188,0 -3.96875,-1.77687 -3.96875,-3.96875 0,-2.191881 1.77687,-3.968751 3.96875,-3.968751 2.19188,0 3.96875,1.77687 3.96875,3.968751 z m 15.34584,0 c 0,2.19188 -1.77687,3.96875 -3.96875,3.96875 -2.19188,0 -3.96875,-1.77687 -3.96875,-3.96875 0,-2.191881 1.77687,-3.968751 3.96875,-3.968751 2.19188,0 3.96875,1.77687 3.96875,3.968751 z M 9.2735093,32.79978 c 0,2.19188 -1.7768703,3.96875 -3.9687508,3.96875 -2.1918804,0 -3.9687507,-1.77687 -3.9687507,-3.96875 0,-2.191881 1.7768703,-3.968751 3.9687507,-3.968751 2.1918805,0 3.9687508,1.77687 3.9687508,3.968751 z m 15.3458347,0 c 0,2.19188 -1.77687,3.96875 -3.968751,3.96875 -2.19188,0 -3.96875,-1.77687 -3.96875,-3.96875 0,-2.191881 1.77687,-3.968751 3.96875,-3.968751 2.191881,0 3.968751,1.77687 3.968751,3.968751 z m 15.345835,0 c 0,2.19188 -1.77687,3.96875 -3.968751,3.96875 -2.19188,0 -3.968751,-1.77687 -3.968751,-3.96875 0,-2.191881 1.776871,-3.968751 3.968751,-3.968751 2.191881,0 3.968751,1.77687 3.968751,3.968751 z m 15.345835,0 c 0,2.19188 -1.776871,3.96875 -3.968751,3.96875 -2.191881,0 -3.968751,-1.77687 -3.968751,-3.96875 0,-2.191881 1.77687,-3.968751 3.968751,-3.968751 2.19188,0 3.968751,1.77687 3.968751,3.968751 z m 15.345834,0 c 0,2.19188 -1.77687,3.96875 -3.96875,3.96875 -2.191881,0 -3.968751,-1.77687 -3.968751,-3.96875 0,-2.191881 1.77687,-3.968751 3.968751,-3.968751 2.19188,0 3.96875,1.77687 3.96875,3.968751 z m 15.345835,0 c 0,2.19188 -1.77687,3.96875 -3.968751,3.96875 -2.19188,0 -3.96875,-1.77687 -3.96875,-3.96875 0,-2.191881 1.77687,-3.968751 3.96875,-3.968751 2.191881,0 3.968751,1.77687 3.968751,3.968751 z m 15.345837,0 c 0,2.19188 -1.776872,3.96875 -3.968753,3.96875 -2.19188,0 -3.968751,-1.77687 -3.968751,-3.96875 0,-2.191881 1.776871,-3.968751 3.968751,-3.968751 2.191881,0 3.968753,1.77687 3.968753,3.968751 z m 15.34583,0 c 0,2.19188 -1.77687,3.96875 -3.96875,3.96875 -2.19188,0 -3.96875,-1.77687 -3.96875,-3.96875 0,-2.191881 1.77687,-3.968751 3.96875,-3.968751 2.19188,0 3.96875,1.77687 3.96875,3.968751 z m 15.34584,0 c 0,2.19188 -1.77687,3.96875 -3.96875,3.96875 -2.19188,0 -3.96875,-1.77687 -3.96875,-3.96875 0,-2.191881 1.77687,-3.968751 3.96875,-3.968751 2.19188,0 3.96875,1.77687 3.96875,3.968751 z m 15.34583,0 c 0,2.19188 -1.77687,3.96875 -3.96875,3.96875 -2.19188,0 -3.96875,-1.77687 -3.96875,-3.96875 0,-2.191881 1.77687,-3.968751 3.96875,-3.968751 2.19188,0 3.96875,1.77687 3.96875,3.968751 z m 15.34584,0 c 0,2.19188 -1.77687,3.96875 -3.96875,3.96875 -2.19188,0 -3.96875,-1.77687 -3.96875,-3.96875 0,-2.191881 1.77687,-3.968751 3.96875,-3.968751 2.19188,0 3.96875,1.77687 3.96875,3.968751 z M 9.2735093,48.410198 c 0,2.19188 -1.7768703,3.96875 -3.9687508,3.96875 -2.1918804,0 -3.9687507,-1.77687 -3.9687507,-3.96875 0,-2.191881 1.7768703,-3.968751 3.9687507,-3.968751 2.1918805,0 3.9687508,1.77687 3.9687508,3.968751 z m 15.3458347,0 c 0,2.19188 -1.77687,3.96875 -3.968751,3.96875 -2.19188,0 -3.96875,-1.77687 -3.96875,-3.96875 0,-2.191881 1.77687,-3.968751 3.96875,-3.968751 2.191881,0 3.968751,1.77687 3.968751,3.968751 z m 15.345835,0 c 0,2.19188 -1.77687,3.96875 -3.968751,3.96875 -2.19188,0 -3.968751,-1.77687 -3.968751,-3.96875 0,-2.191881 1.776871,-3.968751 3.968751,-3.968751 2.191881,0 3.968751,1.77687 3.968751,3.968751 z m 15.345835,0 c 0,2.19188 -1.776871,3.96875 -3.968751,3.96875 -2.191881,0 -3.968751,-1.77687 -3.968751,-3.96875 0,-2.191881 1.77687,-3.968751 3.968751,-3.968751 2.19188,0 3.968751,1.77687 3.968751,3.968751 z m 15.345834,0 c 0,2.19188 -1.77687,3.96875 -3.96875,3.96875 -2.191881,0 -3.968751,-1.77687 -3.968751,-3.96875 0,-2.191881 1.77687,-3.968751 3.968751,-3.968751 2.19188,0 3.96875,1.77687 3.96875,3.968751 z m 15.345835,0 c 0,2.19188 -1.77687,3.96875 -3.968751,3.96875 -2.19188,0 -3.96875,-1.77687 -3.96875,-3.96875 0,-2.191881 1.77687,-3.968751 3.96875,-3.968751 2.191881,0 3.968751,1.77687 3.968751,3.968751 z m 15.345837,0 c 0,2.19188 -1.776872,3.96875 -3.968753,3.96875 -2.19188,0 -3.968751,-1.77687 -3.968751,-3.96875 0,-2.191881 1.776871,-3.968751 3.968751,-3.968751 2.191881,0 3.968753,1.77687 3.968753,3.968751 z m 15.34583,0 c 0,2.19188 -1.77687,3.96875 -3.96875,3.96875 -2.19188,0 -3.96875,-1.77687 -3.96875,-3.96875 0,-2.191881 1.77687,-3.968751 3.96875,-3.968751 2.19188,0 3.96875,1.77687 3.96875,3.968751 z m 15.34584,0 c 0,2.19188 -1.77687,3.96875 -3.96875,3.96875 -2.19188,0 -3.96875,-1.77687 -3.96875,-3.96875 0,-2.191881 1.77687,-3.968751 3.96875,-3.968751 2.19188,0 3.96875,1.77687 3.96875,3.968751 z m 15.34583,0 c 0,2.19188 -1.77687,3.96875 -3.96875,3.96875 -2.19188,0 -3.96875,-1.77687 -3.96875,-3.96875 0,-2.191881 1.77687,-3.968751 3.96875,-3.968751 2.19188,0 3.96875,1.77687 3.96875,3.968751 z m 15.34584,0 c 0,2.19188 -1.77687,3.96875 -3.96875,3.96875 -2.19188,0 -3.96875,-1.77687 -3.96875,-3.96875 0,-2.191881 1.77687,-3.968751 3.96875,-3.968751 2.19188,0 3.96875,1.77687 3.96875,3.968751 z M 9.2735093,64.020616 c 0,2.19188 -1.7768703,3.968751 -3.9687508,3.968751 -2.1918804,0 -3.9687507,-1.776871 -3.9687507,-3.968751 0,-2.191881 1.7768703,-3.968751 3.9687507,-3.968751 2.1918805,0 3.9687508,1.77687 3.9687508,3.968751 z m 15.3458347,0 c 0,2.19188 -1.77687,3.968751 -3.968751,3.968751 -2.19188,0 -3.96875,-1.776871 -3.96875,-3.968751 0,-2.191881 1.77687,-3.968751 3.96875,-3.968751 2.191881,0 3.968751,1.77687 3.968751,3.968751 z m 15.345835,0 c 0,2.19188 -1.77687,3.968751 -3.968751,3.968751 -2.19188,0 -3.968751,-1.776871 -3.968751,-3.968751 0,-2.191881 1.776871,-3.968751 3.968751,-3.968751 2.191881,0 3.968751,1.77687 3.968751,3.968751 z m 15.345835,0 c 0,2.19188 -1.776871,3.968751 -3.968751,3.968751 -2.191881,0 -3.968751,-1.776871 -3.968751,-3.968751 0,-2.191881 1.77687,-3.968751 3.968751,-3.968751 2.19188,0 3.968751,1.77687 3.968751,3.968751 z m 15.345834,0 c 0,2.19188 -1.77687,3.968751 -3.96875,3.968751 -2.191881,0 -3.968751,-1.776871 -3.968751,-3.968751 0,-2.191881 1.77687,-3.968751 3.968751,-3.968751 2.19188,0 3.96875,1.77687 3.96875,3.968751 z m 15.345835,0 c 0,2.19188 -1.77687,3.968751 -3.968751,3.968751 -2.19188,0 -3.96875,-1.776871 -3.96875,-3.968751 0,-2.191881 1.77687,-3.968751 3.96875,-3.968751 2.191881,0 3.968751,1.77687 3.968751,3.968751 z m 15.345837,0 c 0,2.19188 -1.776872,3.968751 -3.968753,3.968751 -2.19188,0 -3.968751,-1.776871 -3.968751,-3.968751 0,-2.191881 1.776871,-3.968751 3.968751,-3.968751 2.191881,0 3.968753,1.77687 3.968753,3.968751 z m 15.34583,0 c 0,2.19188 -1.77687,3.968751 -3.96875,3.968751 -2.19188,0 -3.96875,-1.776871 -3.96875,-3.968751 0,-2.191881 1.77687,-3.968751 3.96875,-3.968751 2.19188,0 3.96875,1.77687 3.96875,3.968751 z m 15.34584,0 c 0,2.19188 -1.77687,3.968751 -3.96875,3.968751 -2.19188,0 -3.96875,-1.776871 -3.96875,-3.968751 0,-2.191881 1.77687,-3.968751 3.96875,-3.968751 2.19188,0 3.96875,1.77687 3.96875,3.968751 z m 15.34583,0 c 0,2.19188 -1.77687,3.968751 -3.96875,3.968751 -2.19188,0 -3.96875,-1.776871 -3.96875,-3.968751 0,-2.191881 1.77687,-3.968751 3.96875,-3.968751 2.19188,0 3.96875,1.77687 3.96875,3.968751 z m 15.34584,0 c 0,2.19188 -1.77687,3.968751 -3.96875,3.968751 -2.19188,0 -3.96875,-1.776871 -3.96875,-3.968751 0,-2.191881 1.77687,-3.968751 3.96875,-3.968751 2.19188,0 3.96875,1.77687 3.96875,3.968751 z M 9.2735093,79.631034 c 0,2.19188 -1.7768703,3.968751 -3.9687508,3.968751 -2.1918804,0 -3.9687507,-1.776871 -3.9687507,-3.968751 0,-2.191881 1.7768703,-3.968751 3.9687507,-3.968751 2.1918805,0 3.9687508,1.77687 3.9687508,3.968751 z m 15.3458347,0 c 0,2.19188 -1.77687,3.968751 -3.968751,3.968751 -2.19188,0 -3.96875,-1.776871 -3.96875,-3.968751 0,-2.191881 1.77687,-3.968751 3.96875,-3.968751 2.191881,0 3.968751,1.77687 3.968751,3.968751 z m 15.345835,0 c 0,2.19188 -1.77687,3.968751 -3.968751,3.968751 -2.19188,0 -3.968751,-1.776871 -3.968751,-3.968751 0,-2.191881 1.776871,-3.968751 3.968751,-3.968751 2.191881,0 3.968751,1.77687 3.968751,3.968751 z m 15.345835,0 c 0,2.19188 -1.776871,3.968751 -3.968751,3.968751 -2.191881,0 -3.968751,-1.776871 -3.968751,-3.968751 0,-2.191881 1.77687,-3.968751 3.968751,-3.968751 2.19188,0 3.968751,1.77687 3.968751,3.968751 z m 15.345834,0 c 0,2.19188 -1.77687,3.968751 -3.96875,3.968751 -2.191881,0 -3.968751,-1.776871 -3.968751,-3.968751 0,-2.191881 1.77687,-3.968751 3.968751,-3.968751 2.19188,0 3.96875,1.77687 3.96875,3.968751 z m 15.345835,0 c 0,2.19188 -1.77687,3.968751 -3.968751,3.968751 -2.19188,0 -3.96875,-1.776871 -3.96875,-3.968751 0,-2.191881 1.77687,-3.968751 3.96875,-3.968751 2.191881,0 3.968751,1.77687 3.968751,3.968751 z m 15.345837,0 c 0,2.19188 -1.776872,3.968751 -3.968753,3.968751 -2.19188,0 -3.968751,-1.776871 -3.968751,-3.968751 0,-2.191881 1.776871,-3.968751 3.968751,-3.968751 2.191881,0 3.968753,1.77687 3.968753,3.968751 z m 15.34583,0 c 0,2.19188 -1.77687,3.968751 -3.96875,3.968751 -2.19188,0 -3.96875,-1.776871 -3.96875,-3.968751 0,-2.191881 1.77687,-3.968751 3.96875,-3.968751 2.19188,0 3.96875,1.77687 3.96875,3.968751 z m 15.34584,0 c 0,2.19188 -1.77687,3.968751 -3.96875,3.968751 -2.19188,0 -3.96875,-1.776871 -3.96875,-3.968751 0,-2.191881 1.77687,-3.968751 3.96875,-3.968751 2.19188,0 3.96875,1.77687 3.96875,3.968751 z m 15.34583,0 c 0,2.19188 -1.77687,3.968751 -3.96875,3.968751 -2.19188,0 -3.96875,-1.776871 -3.96875,-3.968751 0,-2.191881 1.77687,-3.968751 3.96875,-3.968751 2.19188,0 3.96875,1.77687 3.96875,3.968751 z m 15.34584,0 c 0,2.19188 -1.77687,3.968751 -3.96875,3.968751 -2.19188,0 -3.96875,-1.776871 -3.96875,-3.968751 0,-2.191881 1.77687,-3.968751 3.96875,-3.968751 2.19188,0 3.96875,1.77687 3.96875,3.968751 z"
       class="UnoptimicedTransforms"
       transform="translate(2.6327415,4.8947928)"
       inkscape:label="nodes" /><g
       id="g152"
       transform="matrix(0.14914823,0,0,0.14914823,12.3017,32.361338)"
       inkscape:label="webgpuLogo"><path
         id="Triangle_4"
         data-name="Triangle 4"
         class="cls-4"
         d="M 298.4,134.84 273.8,92.231 h 49.269 z" /><path
         id="Triangle_5"
         data-name="Triangle 5"
         class="cls-5"
         d="m 298.4,49.619 -24.6,42.609 h 49.269 z" /><path
         id="Triangle_3"
         data-name="Triangle 3"
         class="cls-3"
         d="m 249.2,220.06 -49.2,-85.218 98.4,-8.1e-4 z" /><path
         id="Triangle_2"
         data-name="Triangle 2"
         class="cls-2"
         d="m 249.2,49.619 -49.2,85.218 98.4,-8.1e-4 z" /><path
         id="Triangle_1"
         data-name="Triangle 1"
         class="cls-1"
         d="M 150.8,220.06 52.4,49.62 h 196.8 z" /><path
         id="WebGPU"
         class="cls-6"
         d="m 397.927,170 a 46.383,46.383 0 0 0 -5.459,-22.594 39.579,39.579 0 0 0 -15.539,-15.706 46.217,46.217 0 0 0 -23.182,-5.711 47.758,47.758 0 0 0 -23.77,5.8 40.1,40.1 0 0 0 -16.042,16.547 q -5.714,10.752 -5.712,25.029 0.002,14.277 5.88,25.114 a 41.6,41.6 0 0 0 16.21,16.714 46.512,46.512 0 0 0 23.434,5.88 q 16.461,0 27.55,-8.315 a 39.574,39.574 0 0 0 14.782,-21.586 h -16.462 a 24.465,24.465 0 0 1 -9.323,12.347 q -6.639,4.621 -16.547,4.619 a 29.643,29.643 0 0 1 -20.578,-7.643 q -8.484,-7.642 -9.323,-21.25 h 73.577 a 89.923,89.923 0 0 0 0.5,-9.239 v 0 z m -15.791,-3.192 h -58.122 q 1.173,-13.1 9.323,-20.494 a 28.334,28.334 0 0 1 19.738,-7.391 32.751,32.751 0 0 1 14.7,3.275 25.147,25.147 0 0 1 10.5,9.575 28.21,28.21 0 0 1 3.863,15.035 v 0 z m 51.235,-22.174 V 95.246 h -15.287 v 124.308 h 15.287 v -16.966 a 35.4,35.4 0 0 0 13.523,13.27 40.941,40.941 0 0 0 20.914,5.208 41.875,41.875 0 0 0 37.964,-23.014 52.851,52.851 0 0 0 5.712,-24.862 q 0,-14.111 -5.712,-24.777 a 41.653,41.653 0 0 0 -15.622,-16.547 42.965,42.965 0 0 0 -22.342,-5.879 40.763,40.763 0 0 0 -20.662,5.207 36.146,36.146 0 0 0 -13.775,13.439 v 0 z m 62.49,28.557 a 38.312,38.312 0 0 1 -4.2,18.4 29.535,29.535 0 0 1 -11.338,11.927 30.887,30.887 0 0 1 -15.707,4.115 30.558,30.558 0 0 1 -15.539,-4.115 30.072,30.072 0 0 1 -11.422,-11.927 40.557,40.557 0 0 1 0,-36.285 30.092,30.092 0 0 1 11.422,-11.927 30.578,30.578 0 0 1 15.539,-4.115 31.4,31.4 0 0 1 15.707,4.031 29.1,29.1 0 0 1 11.338,11.759 37.449,37.449 0 0 1 4.2,18.142 v 0 z M 638.647,136.4 a 52.884,52.884 0 0 0 -20.914,-26.038 q -14.362,-9.236 -33.009,-9.239 a 59.092,59.092 0 0 0 -29.733,7.643 55.959,55.959 0 0 0 -21.25,21.334 61.09,61.09 0 0 0 -7.812,30.826 60.623,60.623 0 0 0 7.812,30.741 56.1,56.1 0 0 0 21.25,21.25 59.062,59.062 0 0 0 29.733,7.643 56.956,56.956 0 0 0 28.053,-6.971 56.042,56.042 0 0 0 20.323,-18.981 58.17,58.17 0 0 0 9.071,-26.457 v -11.759 h -62.99 v 12.431 h 46.7 q -1.849,17.472 -12.935,27.717 -11.086,10.245 -28.221,10.247 a 43.634,43.634 0 0 1 -22.09,-5.627 39.861,39.861 0 0 1 -15.454,-16.043 q -5.631,-10.413 -5.628,-24.189 0.003,-13.776 5.628,-24.274 a 39.769,39.769 0 0 1 15.454,-16.127 43.654,43.654 0 0 1 22.09,-5.627 40.52,40.52 0 0 1 21.5,5.627 36.445,36.445 0 0 1 14.112,15.873 z m 101.967,0.336 q 0,-15.118 -10.332,-24.694 -10.332,-9.576 -30.153,-9.575 h -37.8 v 117.087 h 15.286 v -48.883 h 22.51 q 20.493,0 30.489,-9.659 9.996,-9.659 10,-24.274 v 0 z m -40.485,21.334 h -22.51 v -43 h 22.51 q 24.859,0 24.862,21.67 0,10.248 -6.047,15.79 -6.047,5.542 -18.815,5.544 v 0 z m 59.13,-55.6 v 73.913 q 0,14.614 5.795,24.61 a 36.391,36.391 0 0 0 15.791,14.866 54.05,54.05 0 0 0 44.852,0 36.911,36.911 0 0 0 15.874,-14.866 q 5.878,-9.993 5.88,-24.61 v -73.914 h -15.287 v 74.081 q 0,15.623 -7.643,23.182 -7.643,7.559 -21.082,7.559 -13.606,0 -21.25,-7.559 -7.644,-7.559 -7.643,-23.182 v -74.081 h -15.287 z" /></g><path
       style="display:inline;fill:none;fill-opacity:1;stroke:#79df84;stroke-width:4.23333;stroke-linecap:round;stroke-linejoin:round;stroke-opacity:0.787535"
       id="path5576"
       inkscape:path-effect="#path-effect5578"
       sodipodi:type="arc"
       sodipodi:cx="80.961227"
       sodipodi:cy="52.681419"
       sodipodi:rx="203.45258"
       sodipodi:ry="161.48924"
       d="m 276.4047,52.681419 c -2.90521,0 -11.51076,0.279038 -18.41985,0.47184 -7.2077,0.201133 -13.61392,0.340552 -13.61392,0.340552 0,0 6.4056,0.26324 13.60888,0.603703 6.9088,0.326543 15.49851,0.771386 18.40571,0.827448 l 48.03086,0.926226 c 0.024,-1.055325 0.0383,-2.111953 0.043,-3.169769 z m -9.80868,47.905911 c -2.72472,-1.137166 -10.69449,-4.158386 -17.19628,-6.650411 -6.73789,-2.582518 -12.71533,-4.907534 -12.71533,-4.907534 0,0 5.81122,2.714816 12.33374,5.801347 6.29463,2.97869 13.98395,6.651898 16.68918,7.836098 l 44.04211,19.27915 c 0.41364,-0.94319 0.81905,-1.89022 1.21616,-2.84096 z m -26.82174,41.45209 c -4.7321,-4.31941 -24.29656,-20.93543 -24.29656,-20.93543 0,0 18.068,18.22455 22.74183,22.61286 l 35.05613,32.91446 c 0.6741,-0.72097 1.34356,-1.44731 2.00829,-2.17899 z m -38.6869,31.66059 c -3.34449,-5.45827 -17.55369,-26.80164 -17.55369,-26.80164 0,0 12.30033,22.4946 15.58193,27.99325 l 24.61578,41.24619 c 0.81878,-0.49002 1.63523,-0.98502 2.44927,-1.48499 z m -45.84797,20.92141 c -1.97072,-6.09537 -10.80463,-30.17624 -10.80463,-30.17624 0,0 6.6871,24.76497 8.59594,30.87855 l 14.32089,45.86665 c 0.89132,-0.2776 1.78153,-0.55967 2.67058,-0.84623 z m -49.53535,10.30442 c -0.63932,-6.37487 -4.20283,-31.7842 -4.20283,-31.7842 0,0 1.31101,25.62405 1.89013,32.00499 l 4.34425,47.86732 c 0.92183,-0.0838 1.84338,-0.17202 2.76461,-0.26462 z m -50.677773,-0.12243 c 0.670456,-6.37191 2.348958,-31.97373 2.348958,-31.97373 0,0 -3.927226,25.3551 -4.657973,31.71988 l -5.482041,47.74833 c 0.92017,0.10595 1.840718,0.20748 2.761607,0.30462 z M 5.54657,194.25039 c 2.0018207,-6.08313 9.070447,-30.74862 9.070447,-30.74862 0,0 -9.2021526,23.9449 -11.2672834,30.0117 l -15.4881666,45.50011 c 0.886732,0.29944 1.774641,0.59399 2.6636682,0.88366 z m -45.722822,-21.17393 c 3.378011,-5.4388 16.076206,-27.70842 16.076206,-27.70842 0,0 -14.584016,21.08513 -18.025218,26.48247 l -25.818153,40.49435 c 0.806642,0.51506 1.615772,1.02515 2.42733,1.53025 z m -38.467962,-31.91042 c 4.765463,-4.28648 23.216086,-22.11291 23.216086,-22.11291 0,0 -19.910545,16.18922 -24.733147,20.40426 l -36.190165,31.63085 c 0.65015,0.74781 1.30519,1.49031 1.96501,2.2275 z M -105.118,99.508805 c 2.73451,-1.112758 10.519308,-4.584491 16.888941,-7.397019 6.601176,-2.914766 12.481456,-5.476305 12.481456,-5.476305 0,0 -6.036483,2.168181 -12.839816,4.573647 -6.563831,2.320784 -14.612291,5.133142 -17.364741,6.198104 l -44.83946,17.349048 c 0.37182,0.96173 0.75202,1.91992 1.14056,2.87446 z m -9.35983,-47.984718 c 2.90624,0.02896 11.50938,-0.164397 18.420789,-0.288714 7.208326,-0.129658 13.61489,-0.205831 13.61489,-0.205831 0,0 -6.401497,-0.327137 -13.599927,-0.739142 -6.905762,-0.395254 -15.486192,-0.924946 -18.393972,-1.009799 l -48.01315,-1.401075 c -0.0338,1.05395 -0.0581,2.109262 -0.0728,3.165822 z m 10.25824,-47.8231799 c 2.71477,1.1614792 10.656586,4.2531507 17.136117,6.8029089 6.714504,2.642222 12.670851,5.020128 12.670851,5.020128 0,0 -5.786766,-2.766404 -12.281458,-5.9107498 -6.268006,-3.0345979 -13.92371,-6.7756682 -16.61846,-7.9839114 l -43.86775,-19.6690098 c -0.42212,0.939215 -0.83603,1.882319 -1.24168,2.829197 z m 27.166728,-41.2453861 c 4.701054,4.35415 24.146546,21.112265 24.146546,21.112265 0,0 -17.936922,-18.356828 -22.579302,-22.778965 l -34.820692,-33.16874 c -0.67887,0.715417 -1.35314,1.436222 -2.02273,2.162384 z m 38.903239,-31.410216 c 3.311616,5.478515 17.393312,26.907728 17.393312,26.907728 0,0 -12.165181,-22.56916 -15.414006,-28.08767 L -60.53997,-111.52934 c -0.821178,0.48489 -1.64005,0.97475 -2.456555,1.46959 z M 7.8215003,-89.623654 c 1.9389266,6.105287 10.6476947,30.231078 10.6476947,30.231078 0,0 -6.558169,-24.798593 -8.435289,-30.921889 L -4.048902,-136.25356 c -0.8924593,0.27298 -1.7838235,0.55043 -2.6740547,0.83236 z M 57.411128,-99.679618 c 0.608247,6.377975 4.048053,31.804482 4.048053,31.804482 0,0 -1.18615,-25.630342 -1.734208,-32.014043 L 55.613651,-147.7773 c -0.922111,0.0793 -1.84396,0.16295 -2.765509,0.25101 z m 50.676482,0.36727 c -0.70157,6.368514 -2.50532,31.961498 -2.50532,31.961498 0,0 4.05107,-25.335347 4.81296,-31.696379 l 5.71569,-47.720361 c -0.91977,-0.11048 -1.83994,-0.21656 -2.76047,-0.31824 z m 49.42245,10.802178 c -2.03396,6.073318 -9.23295,30.703215 -9.23295,30.703215 0,0 9.3287,-23.898715 11.42591,-29.954893 l 15.72919,-45.421592 c -0.8855,-0.30448 -1.77221,-0.60407 -2.66007,-0.89878 z m 45.59596,21.42613 c -3.41085,5.417916 -16.24469,27.60897 -16.24469,27.60897 0,0 14.71161,-20.995214 18.18577,-26.371322 l 26.0651,-40.334548 c -0.80405,-0.52021 -1.61063,-1.03543 -2.41967,-1.54568 z m 38.24639,32.159699 c -4.79637,4.251011 -23.37633,21.938732 -23.37633,21.938732 0,0 20.02711,-16.040816 24.88027,-20.21956 l 36.4198,-31.358739 c -0.6451,-0.753258 -1.29513,-1.501237 -1.94998,-2.243907 z m 26.12287,41.8607271 c -2.74394,1.0881872 -10.56012,4.4906439 -16.95417,7.2459919 -6.62687,2.855674 -12.52971,5.36448 -12.52971,5.36448 0,0 6.05558,-2.114327 12.88007,-4.458993 6.58379,-2.261972 14.65786,-5.002623 17.41922,-6.0427589 l 44.99208,-16.9473942 c -0.36314,-0.9653526 -0.73471,-1.9272264 -1.11463,-2.8855059 z"
       class="UnoptimicedTransforms"
       transform="matrix(0.4483206,0,0,0.31014811,43.06197,36.161453)"
       inkscape:label="speedlines" /><path
       style="display:none;fill:none;fill-opacity:1;fill-rule:nonzero;stroke:none;stroke-width:4.23333;stroke-linecap:round;stroke-linejoin:round;stroke-opacity:1"
       d="m 78.837362,21.053548 c 0,1.866761 0.537637,9.333809 0.537637,9.333809 0,0 0.537637,-7.467048 0.537637,-9.333809 V 7.0528356 h -1.075274 z"
       id="path5512"
       inkscape:path-effect="#path-effect5514"
       inkscape:original-d="M 79.374999,30.387357 V 7.0528333"
       inkscape:linked-fill="path5518"
       transform="matrix(1,0,0,1.0752743,1.662482,32.381995)"
       class="UnoptimicedTransforms"
       inkscape:label="speedline" /></g></svg>
