<svg xmlns="http://www.w3.org/2000/svg" width="1200" height="600" fill="none"><path fill="#333" d="M.2 599.928V0H1200v599.928z" style="mix-blend-mode:normal;stroke-linejoin:miter;stroke-miterlimit:10;stroke-dasharray:none;stroke-dashoffset:0"/><g fill="#262626" fill-rule="evenodd" stroke-linecap="square" style="mix-blend-mode:normal;stroke-linejoin:miter;stroke-miterlimit:10;stroke-dasharray:none;stroke-dashoffset:0"><path d="M1050.025 149.966V0l149.96 149.966zM1050.025 299.948V149.982l149.96 149.966zM1050.025 449.93V299.964l149.96 149.966zM1050.025 599.912V449.946l149.96 149.966z"/><path d="M900.066 149.966V0l149.96 149.966zM900.066 299.948V149.982l149.96 149.966zM900.066 449.93V299.964l149.96 149.966zM750.107 149.966V0l149.959 149.966zM750.107 299.948V149.982l149.959 149.966zM600.1 149.966V0l149.96 149.966zM675.08 224.934v-74.952l75.011 74.952zM675.08 299.885v-74.951l75.011 74.951z"/><path d="M600.1 299.9v-74.95l75.011 74.95zM600.1 224.934v-74.952l75.011 74.952zM825.07 374.94v-74.952l75.012 74.951zM825.07 449.89v-74.95l75.012 74.95z"/><path d="M750.091 449.907v-74.952l75.011 74.952zM750.091 374.94v-74.952l75.011 74.951zM675.064 374.94v-74.952l75.011 74.951zM675.064 449.89v-74.95l75.011 74.95z"/><path d="M600.085 449.907v-74.952l75.01 74.952zM600.085 374.94v-74.952l75.01 74.951zM675.064 524.95v-74.952l75.011 74.952zM675.064 599.902V524.95l75.011 74.952z"/><path d="M600.085 599.917v-74.951l75.01 74.951zM600.085 524.95v-74.952l75.01 74.952zM825.07 524.921V449.97l75.012 74.952z"/><path d="M825.07 599.873V524.92l75.012 74.952z"/><path d="M750.091 599.888v-74.951l75.011 74.951zM750.091 524.921V449.97l75.011 74.952zM975.077 524.921V449.97l75.011 74.952z"/><path d="M975.077 599.873V524.92l75.011 74.952z"/><path d="M900.098 599.888v-74.951l75.01 74.951zM900.098 524.921V449.97l75.01 74.952zM525.058 224.955v-74.952l75.01 74.952zM525.058 299.906v-74.951l75.01 74.951z"/><path d="M450.078 299.922V224.97l75.011 74.952zM450.078 224.955v-74.952l75.011 74.952zM525.042 74.973V.02l75.011 74.952zM525.042 149.924V74.973l75.011 74.951z"/><path d="M450.063 149.94V74.988l75.01 74.952zM450.063 74.973V.02l75.01 74.952zM375.036 74.973V.02l75.01 74.952zM375.036 149.924V74.973l75.01 74.951z"/><path d="M300.056 149.94V74.988l75.011 74.952zM300.056 74.973V.02l75.011 74.952zM225.03 74.973V.02l75.01 74.952zM225.03 149.924V74.973l75.01 74.951z"/><path d="M150.05 149.94V74.988l75.01 74.952zM150.05 74.973V.02l75.01 74.952zM375.044 224.955v-74.952l75.01 74.952zM375.044 299.906v-74.951l75.01 74.951z"/><path d="M300.064 299.922V224.97l75.011 74.952zM300.064 224.955v-74.952l75.011 74.952zM525.06 374.937v-74.952l75.012 74.952zM525.06 449.888v-74.951l75.012 74.951z"/><path d="M450.08 449.904v-74.952l75.012 74.952zM450.08 374.937v-74.952l75.012 74.952zM112.52 37.5V.026l37.536 37.476zM112.52 74.984V37.51l37.536 37.475z"/><path d="M75.022 74.992V37.517l37.537 37.475zM75.022 37.5V.026l37.537 37.476z"/><path d="M37.519 37.488V.012l37.537 37.476zM37.519 74.971V37.496L75.056 74.97z"/><path d="M.021 74.98V37.502L37.558 74.98zM.021 37.488V.012l37.537 37.476ZM112.498 112.5V75.024l37.537 37.476ZM112.498 149.983v-37.475l37.537 37.475z"/><path d="M75 149.991v-37.476l37.538 37.476zM75 112.5V75.024l37.538 37.476Z"/><path d="M37.498 112.487V75.01l37.537 37.476zM37.498 149.97v-37.476l37.537 37.476z"/><path d="M0 149.978v-37.476l37.537 37.476zM0 112.487V75.01l37.537 37.476zM112.55 187.498v-37.475l37.538 37.475ZM112.55 224.982v-37.476l37.538 37.476Z"/><path d="M75.053 224.99v-37.476l37.537 37.476zM75.053 187.498v-37.475l37.537 37.475z"/><path d="M37.55 187.485V150.01l37.537 37.475zM37.55 224.969v-37.476l37.537 37.476z"/><path d="M.052 224.977V187.5l37.537 37.476ZM.052 187.485V150.01l37.537 37.475zM112.53 262.497v-37.476l37.537 37.476zM112.53 299.981v-37.476l37.537 37.476z"/><path d="M75.032 299.989v-37.476l37.537 37.476ZM75.032 262.497v-37.476l37.537 37.476z"/><path d="M37.53 262.484v-37.476l37.536 37.476zM37.53 299.968v-37.476l37.536 37.476z"/><path d="M.031 299.976V262.5l37.537 37.476zM.031 262.484v-37.476l37.537 37.476zM262.557 187.446V149.97l37.537 37.476zM262.557 224.93v-37.476l37.537 37.476z"/><path d="M225.06 224.938v-37.476l37.537 37.476ZM225.06 187.446V149.97l37.537 37.476Z"/><path d="M187.557 187.433v-37.476l37.537 37.476zM187.557 224.917V187.44l37.537 37.476z"/><path d="M150.059 224.924V187.45l37.537 37.475ZM150.059 187.433v-37.476l37.537 37.476ZM262.536 262.445v-37.476l37.537 37.476zM262.536 299.928v-37.475l37.537 37.475z"/><path d="M225.038 299.936v-37.475l37.538 37.475zM225.038 262.445v-37.476l37.538 37.476z"/><path d="M187.536 262.432v-37.476l37.537 37.476zM187.536 299.915V262.44l37.537 37.475z"/><path d="M150.038 299.923v-37.476l37.537 37.476zM150.038 262.432v-37.476l37.537 37.476zM412.537 337.423v-37.476l37.537 37.476zM412.537 374.906v-37.475l37.537 37.475z"/><path d="M375.04 374.914v-37.476l37.537 37.476zM375.04 337.423v-37.476l37.537 37.476z"/><path d="M337.537 337.41v-37.476l37.537 37.476zM337.537 374.893v-37.476l37.537 37.476z"/><path d="M300.039 374.901v-37.476l37.537 37.476zM300.039 337.41v-37.476l37.537 37.476zM412.516 412.422v-37.476l37.537 37.476zM412.516 449.905V412.43l37.537 37.476z"/><path d="M375.019 449.913v-37.476l37.537 37.476ZM375.019 412.422v-37.476l37.537 37.476Z"/><path d="M337.516 412.408v-37.475l37.537 37.475zM337.516 449.892v-37.476l37.537 37.476z"/><path d="M300.018 449.9v-37.476l37.537 37.476zM300.018 412.408v-37.475l37.537 37.475zM262.544 337.512v-37.476l37.537 37.476z"/><path d="M262.544 374.996V337.52l37.537 37.476z"/><path d="M225.046 375.003v-37.475l37.537 37.475zM225.046 337.512v-37.476l37.537 37.476z"/><path d="M187.543 337.499v-37.476l37.537 37.476zM187.543 374.982v-37.475l37.537 37.475z"/><path d="M150.046 374.99v-37.475l37.537 37.475zM150.046 337.499v-37.476l37.537 37.476zM262.523 412.51v-37.475l37.537 37.476zM262.523 449.994V412.52l37.537 37.475z"/><path d="M225.025 450.002v-37.476l37.537 37.476zM225.025 412.51v-37.475l37.537 37.476z"/><path d="M187.522 412.498v-37.476l37.537 37.476zM187.522 449.981v-37.476l37.537 37.476z"/><path d="M150.025 449.99v-37.477l37.537 37.476ZM150.025 412.498v-37.476l37.537 37.476ZM112.719 337.496V300.02l37.537 37.476ZM112.719 374.98v-37.476l37.537 37.476Z"/><path d="M75.221 374.988v-37.476l37.537 37.476zM75.221 337.496V300.02l37.537 37.476Z"/><path d="M37.718 337.483v-37.476l37.537 37.476zM37.718 374.967V337.49l37.537 37.476z"/><path d="M.22 374.975v-37.476l37.537 37.476zM.22 337.483v-37.476l37.537 37.476zM112.698 412.495v-37.476l37.537 37.476zM112.698 449.979v-37.476l37.537 37.476z"/><path d="M75.2 449.987V412.51l37.537 37.476ZM75.2 412.495v-37.476l37.537 37.476Z"/><path d="M37.697 412.482v-37.476l37.537 37.476zM37.697 449.966V412.49l37.537 37.476z"/><path d="M.2 449.973v-37.475l37.536 37.475zM.2 412.482v-37.476l37.536 37.476zM112.74 487.494v-37.476l37.537 37.476zM112.74 524.978v-37.476l37.537 37.476z"/><path d="M75.242 524.985V487.51l37.537 37.475zM75.242 487.494v-37.476l37.537 37.476z"/><path d="M37.739 487.48v-37.475l37.537 37.476zM37.739 524.964V487.49l37.537 37.475z"/><path d="M.241 524.972v-37.476l37.537 37.476zM.241 487.48v-37.475l37.537 37.476zM112.719 562.493v-37.476l37.537 37.476ZM112.719 599.976v-37.475l37.537 37.475Z"/><path d="M75.221 599.984v-37.476l37.537 37.476zM75.221 562.493v-37.476l37.537 37.476Z"/><path d="M37.718 562.48v-37.476l37.537 37.476zM37.718 599.963v-37.476l37.537 37.476z"/><path d="M.22 599.971v-37.476l37.537 37.476zM.22 562.48v-37.476l37.537 37.476zM262.762 487.51v-37.476l37.537 37.476zM262.762 524.993v-37.476l37.537 37.476z"/><path d="M225.264 525.001v-37.476l37.537 37.476ZM225.264 487.51v-37.476l37.537 37.476z"/><path d="M187.761 487.496v-37.475l37.537 37.475zM187.761 524.98v-37.476l37.537 37.476z"/><path d="M150.264 524.988v-37.476l37.537 37.476zM150.264 487.496v-37.475l37.537 37.475zM262.74 562.508v-37.475l37.538 37.475zM262.74 599.992v-37.476l37.538 37.476Z"/><path d="M225.243 600v-37.476L262.78 600zM225.243 562.508v-37.475l37.537 37.475z"/><path d="M187.74 562.495V525.02l37.537 37.475zM187.74 599.979v-37.476l37.537 37.476z"/><path d="M150.243 599.987V562.51l37.537 37.476zM150.243 562.495V525.02l37.537 37.475zM412.671 487.436V449.96l37.537 37.476ZM412.671 524.92v-37.476l37.537 37.476z"/><path d="M375.174 524.928v-37.476l37.537 37.476zM375.174 487.436V449.96l37.537 37.476z"/><path d="M337.67 487.423v-37.476l37.538 37.476zM337.67 524.907V487.43l37.538 37.476z"/><path d="M300.173 524.915v-37.476l37.537 37.476zM300.173 487.423v-37.476l37.537 37.476zM412.65 562.435v-37.476l37.537 37.476zM412.65 599.919v-37.476l37.537 37.476z"/><path d="M375.152 599.927V562.45l37.537 37.476zM375.152 562.435v-37.476l37.537 37.476z"/><path d="M337.65 562.422v-37.476l37.537 37.476zM337.65 599.906V562.43l37.537 37.476z"/><path d="M300.152 599.913v-37.475l37.537 37.475zM300.152 562.422v-37.476l37.537 37.476zM562.628 487.415V449.94l37.537 37.476zM562.628 524.899v-37.476l37.537 37.476z"/><path d="M525.13 524.907V487.43l37.537 37.476zM525.13 487.415V449.94l37.537 37.476z"/><path d="M487.627 487.402v-37.476l37.537 37.476zM487.627 524.886V487.41l37.537 37.476z"/><path d="M450.13 524.894v-37.476l37.536 37.476zM450.13 487.402v-37.476l37.536 37.476zM562.607 562.414v-37.476l37.537 37.476zM562.607 599.898v-37.476l37.537 37.476z"/><path d="M525.109 599.906V562.43l37.537 37.476zM525.109 562.414v-37.476l37.537 37.476z"/><path d="M487.606 562.4v-37.475l37.537 37.476zM487.606 599.884V562.41l37.537 37.475z"/><path d="M450.108 599.892v-37.475l37.537 37.475zM450.108 562.4v-37.475l37.537 37.476z"/></g><g stroke="#ff5cff" stroke-linecap="round" stroke-width="16"><path d="m649.96 410.962-108.924-256.81" style="stroke:#612361;stroke-width:32;stroke-dasharray:none;stroke-opacity:1" transform="translate(-8.454 12.409)"/><path d="m643.034 410.962-108.925-256.81" style="stroke-width:32;stroke-dasharray:none" transform="translate(-8.454 12.409)"/></g><path d="m594.451 428.629-98.523-246.308c-.335-.838-1.521-.838-1.856 0l-98.523 246.308a1 1 0 0 0 .928 1.371h197.046a1 1 0 0 0 .928-1.371z" style="stroke:#606060;stroke-width:32;stroke-linecap:round;stroke-dasharray:none;stroke-opacity:1" transform="translate(-3.788 3.44)"/><path d="m584.451 418.629-98.523-246.308c-.335-.838-1.521-.838-1.856 0l-98.523 246.308a1 1 0 0 0 .928 1.371h197.046a1 1 0 0 0 .928-1.371z" style="stroke:#fff;stroke-width:32;stroke-dasharray:none;stroke-opacity:1" transform="translate(-3.788 3.44)"/><path d="M615 180h100m0 0v250m100-250H715" style="stroke:#606060;stroke-width:32;stroke-linecap:round;stroke-dasharray:none;stroke-opacity:1" transform="translate(3.21 3.371)"/><path d="M605 170h100m0 0v250m100-250H705" style="stroke:#fff;stroke-width:32;stroke-linecap:round;stroke-linejoin:round;stroke-dasharray:none;stroke-opacity:1" transform="translate(3.21 3.371)"/></svg>