<svg xmlns="http://www.w3.org/2000/svg" width="1200" height="600" fill="none"><path fill="#303030" d="M0 1h1200v600H0z"/><path fill="#202020" d="m799.703 1.445-398.667 598a1 1 0 0 0 .833 1.555H1199c.55 0 1-.448 1-1V2c0-.552-.45-1-1-1H800.535c-.334 0-.646.167-.832.445z"/><g stroke="#ff5cff" stroke-linecap="round" stroke-width="16"><path d="m649.96 410.962-108.924-256.81" style="stroke:#612361;stroke-width:32;stroke-dasharray:none;stroke-opacity:1" transform="translate(-8.454 12.409)"/><path d="m643.034 410.962-108.925-256.81" style="stroke-width:32;stroke-dasharray:none" transform="translate(-8.454 12.409)"/></g><path d="m594.451 428.629-98.523-246.308c-.335-.838-1.521-.838-1.856 0l-98.523 246.308a1 1 0 0 0 .928 1.371h197.046a1 1 0 0 0 .928-1.371z" style="stroke:#606060;stroke-width:32;stroke-linecap:round;stroke-dasharray:none;stroke-opacity:1" transform="translate(-3.788 3.44)"/><path d="m584.451 418.629-98.523-246.308c-.335-.838-1.521-.838-1.856 0l-98.523 246.308a1 1 0 0 0 .928 1.371h197.046a1 1 0 0 0 .928-1.371z" style="stroke:#fff;stroke-width:32;stroke-dasharray:none;stroke-opacity:1" transform="translate(-3.788 3.44)"/><path d="M615 180h100m0 0v250m100-250H715" style="stroke:#606060;stroke-width:32;stroke-linecap:round;stroke-dasharray:none;stroke-opacity:1" transform="translate(3.21 3.371)"/><path d="M605 170h100m0 0v250m100-250H705" style="stroke:#fff;stroke-width:32;stroke-linecap:round;stroke-linejoin:round;stroke-dasharray:none;stroke-opacity:1" transform="translate(3.21 3.371)"/></svg>