<svg width="1200" height="600" viewBox="0 0 1200 600" fill="none" xmlns="http://www.w3.org/2000/svg">
<rect width="1200" height="600" fill="#303030"/>
<path d="M799.703 0.445282L401.036 598.445C400.593 599.11 401.07 600 401.869 600H1199C1199.55 600 1200 599.552 1200 599V1C1200 0.447715 1199.55 0 1199 0H800.535C800.201 0 799.889 0.167084 799.703 0.445282Z" fill="#202020"/>
<path d="M625 430L525 180" stroke="#612361" stroke-width="16" stroke-linecap="round"/>
<path d="M615 180H715M815 180H715M715 180V430M594.451 428.629L495.928 182.321C495.593 181.483 494.407 181.483 494.072 182.321L395.549 428.629C395.286 429.285 395.77 430 396.477 430H593.523C594.23 430 594.714 429.285 594.451 428.629Z" stroke="#606060" stroke-width="16" stroke-linecap="round"/>
<path d="M605 170H705M805 170H705M705 170V420M584.451 418.629L485.928 172.321C485.593 171.483 484.407 171.483 484.072 172.321L385.549 418.629C385.286 419.285 385.77 420 386.477 420H583.523C584.23 420 584.714 419.285 584.451 418.629Z" stroke="white" stroke-width="16" stroke-linecap="round"/>
<path d="M615 420L515 170" stroke="#FF5CFF" stroke-width="16" stroke-linecap="round"/>
</svg>
