<svg xmlns="http://www.w3.org/2000/svg" width="600" height="300"><g fill="gray" stroke-width="7.5" style="stroke-miterlimit:10"><path stroke="#80d1ff" d="M3.75 295.611V3.75h592.056v291.861z" transform="scale(1.00074 1.00213)"/><path stroke="#c7ff80" d="M10.629 289.694V9.667h578.299v280.027z" transform="scale(1.00074 1.00213)"/><path stroke="#ff8080" d="M16.647 282.795V16.566H582.91v266.229z" transform="scale(1.00074 1.00213)"/></g><path fill="gray" stroke="#404040" stroke-width="7.5" d="M115.772 61.002c0-51.87 42.05-93.92 93.92-93.92 51.87 0 93.92 42.05 93.92 93.92 0 51.87-42.05 93.92-93.92 93.92-51.87 0-93.92-42.05-93.92-93.92z" style="stroke-miterlimit:10" transform="translate(98.852 87.097)"/><path fill="none" stroke="#ff8080" stroke-width="7.5" d="M108 61.002C108 4.839 153.53-40.69 209.692-40.69c56.163 0 101.693 45.53 101.693 101.693s-45.53 101.692-101.693 101.692S108 117.165 108 61.003z" style="stroke-miterlimit:10" transform="translate(98.852 87.097)"/><path fill="none" stroke="#c7ff80" stroke-width="7.5" d="M101.741 61.002c0-59.62 48.331-107.951 107.951-107.951 59.62 0 107.952 48.332 107.952 107.952s-48.332 107.95-107.952 107.95-107.95-48.33-107.95-107.95z" style="stroke-miterlimit:10" transform="translate(98.852 87.097)"/><path fill="none" stroke="#80d1ff" stroke-width="7.5" d="M95.111 61.002c0-63.281 51.3-114.581 114.581-114.581 63.282 0 114.582 51.3 114.582 114.582 0 63.28-51.3 114.58-114.582 114.58-63.28 0-114.58-51.3-114.58-114.58z" style="stroke-miterlimit:10" transform="translate(98.852 87.097)"/><path fill="#00a3ff" stroke="#80d1ff" stroke-width="5" d="M207.704 75.774c0-14.288 11.583-25.87 25.871-25.87 14.29 0 25.871 11.582 25.871 25.87 0 14.289-11.582 25.872-25.87 25.872-14.29 0-25.872-11.583-25.872-25.872z" style="stroke-miterlimit:10" transform="translate(98.852 87.097)"/><path fill="red" stroke="#ff8080" stroke-width="5" d="M185.315 38.46c0-14.288 11.583-25.871 25.872-25.871 14.288 0 25.87 11.583 25.87 25.87 0 14.289-11.582 25.872-25.87 25.872-14.289 0-25.872-11.583-25.872-25.87z" style="stroke-miterlimit:10" transform="translate(98.852 87.097)"/><path fill="#8fff00" stroke="#c7ff80" stroke-width="5" d="M162.927 75.774c0-14.288 11.583-25.87 25.871-25.87 14.288 0 25.871 11.582 25.871 25.87 0 14.289-11.583 25.872-25.87 25.872-14.289 0-25.872-11.583-25.872-25.872z" style="stroke-miterlimit:10" transform="translate(98.852 87.097)"/><path fill="none" stroke="#ff8080" stroke-width="7.5" d="M167.383 38.46c0-24.192 19.611-43.804 43.804-43.804 24.192 0 43.803 19.612 43.803 43.804 0 24.192-19.61 43.804-43.803 43.804-24.193 0-43.804-19.612-43.804-43.804z" style="stroke-miterlimit:10" transform="translate(98.852 87.097)"/><path fill="none" stroke="#c7ff80" stroke-width="7.5" d="M143.201 75.774c0-25.182 20.414-45.597 45.597-45.597 25.182 0 45.597 20.415 45.597 45.597 0 25.183-20.414 45.597-45.597 45.597s-45.597-20.414-45.597-45.597z" style="stroke-miterlimit:10" transform="translate(98.852 87.097)"/><path fill="none" stroke="#80d1ff" stroke-width="7.5" d="M189.771 75.774c0-24.192 19.612-43.803 43.804-43.803 24.192 0 43.804 19.61 43.804 43.803 0 24.193-19.612 43.804-43.804 43.804-24.192 0-43.804-19.611-43.804-43.804z" style="stroke-miterlimit:10" transform="translate(98.852 87.097)"/><path fill="gray" stroke="#404040" stroke-width="7.5" d="M-34.924 61.6c0-24.92 20.201-45.12 45.12-45.12 24.92 0 45.12 20.2 45.12 45.12 0 24.92-20.2 45.12-45.12 45.12-24.919 0-45.12-20.2-45.12-45.12z" style="stroke-miterlimit:10" transform="translate(98.852 87.097)"/><path fill="none" stroke="#ff8080" stroke-width="7.5" d="M-38.658 61.6c0-26.981 21.873-48.853 48.854-48.853 26.981 0 48.854 21.872 48.854 48.854 0 26.98-21.873 48.853-48.854 48.853-26.98 0-48.854-21.872-48.854-48.853z" style="stroke-miterlimit:10" transform="translate(98.852 87.097)"/><path fill="none" stroke="#c7ff80" stroke-width="7.5" d="M-41.665 61.6c0-28.641 23.22-51.86 51.861-51.86 28.642 0 51.86 23.219 51.86 51.86 0 28.643-23.218 51.86-51.86 51.86s-51.86-23.217-51.86-51.86z" style="stroke-miterlimit:10" transform="translate(98.852 87.097)"/><path fill="none" stroke="#80d1ff" stroke-width="7.5" d="M-44.85 61.6c0-30.4 24.645-55.045 55.046-55.045S65.242 31.2 65.242 61.6c0 30.4-24.645 55.045-55.046 55.045-30.4 0-55.046-24.644-55.046-55.044z" style="stroke-miterlimit:10" transform="translate(98.852 87.097)"/><path fill="red" stroke="#ff8080" stroke-width="5" d="M-20.972 61.542c0-17.184 13.93-31.115 31.115-31.115 17.184 0 31.115 13.93 31.115 31.115s-13.93 31.115-31.115 31.115c-17.184 0-31.115-13.93-31.115-31.115z" style="stroke-miterlimit:10" transform="translate(98.852 87.097)"/><path fill="gray" stroke="#404040" stroke-width="7.5" d="M346.98-1.067c0-24.92 20.2-45.12 45.12-45.12 24.92 0 45.12 20.2 45.12 45.12 0 24.92-20.2 45.12-45.12 45.12-24.92 0-45.12-20.2-45.12-45.12z" style="stroke-miterlimit:10" transform="translate(98.852 87.097)"/><path fill="none" stroke="#ff8080" stroke-width="7.5" d="M343.246-1.067c0-26.98 21.872-48.853 48.854-48.853 26.98 0 48.853 21.872 48.853 48.853 0 26.982-21.872 48.854-48.853 48.854-26.982 0-48.854-21.872-48.854-48.854z" style="stroke-miterlimit:10" transform="translate(98.852 87.097)"/><path fill="none" stroke="#c7ff80" stroke-width="7.5" d="M340.24-1.067c0-28.641 23.218-51.86 51.86-51.86 28.641 0 51.86 23.219 51.86 51.86 0 28.642-23.219 51.86-51.86 51.86-28.642 0-51.86-23.218-51.86-51.86z" style="stroke-miterlimit:10" transform="translate(98.852 87.097)"/><path fill="none" stroke="#80d1ff" stroke-width="7.5" d="M337.054-1.067c0-30.4 24.644-55.045 55.045-55.045 30.401 0 55.046 24.644 55.046 55.045 0 30.4-24.645 55.046-55.046 55.046-30.4 0-55.045-24.645-55.045-55.046z" style="stroke-miterlimit:10" transform="translate(98.852 87.097)"/><path fill="#8fff00" stroke="#c7ff80" stroke-width="5" d="M361.84-1.618c0-16.913 13.71-30.624 30.624-30.624 16.912 0 30.623 13.71 30.623 30.623s-13.71 30.624-30.623 30.624S361.84 15.295 361.84-1.62z" style="stroke-miterlimit:10" transform="translate(98.852 87.097)"/><path fill="gray" stroke="#404040" stroke-width="7.5" d="M346.98 126.872c0-24.92 20.2-45.12 45.12-45.12 24.92 0 45.12 20.2 45.12 45.12 0 24.919-20.2 45.12-45.12 45.12-24.92 0-45.12-20.201-45.12-45.12z" style="stroke-miterlimit:10" transform="translate(98.852 87.097)"/><path fill="none" stroke="#ff8080" stroke-width="7.5" d="M343.246 126.872c0-26.981 21.872-48.854 48.854-48.854 26.98 0 48.853 21.873 48.853 48.854 0 26.98-21.872 48.854-48.853 48.854-26.982 0-48.854-21.873-48.854-48.854z" style="stroke-miterlimit:10" transform="translate(98.852 87.097)"/><path fill="none" stroke="#c7ff80" stroke-width="7.5" d="M340.24 126.872c0-28.642 23.218-51.86 51.86-51.86 28.641 0 51.86 23.218 51.86 51.86s-23.219 51.86-51.86 51.86c-28.642 0-51.86-23.218-51.86-51.86z" style="stroke-miterlimit:10" transform="translate(98.852 87.097)"/><path fill="none" stroke="#80d1ff" stroke-width="7.5" d="M337.054 126.872c0-30.401 24.645-55.046 55.046-55.046 30.4 0 55.045 24.645 55.045 55.046 0 30.4-24.644 55.046-55.045 55.046-30.4 0-55.046-24.645-55.046-55.046z" style="stroke-miterlimit:10" transform="translate(98.852 87.097)"/><path fill="#00a3ff" stroke="#80d1ff" stroke-width="5" d="M361.84 127.37c0-16.913 13.71-30.624 30.624-30.624 16.912 0 30.623 13.71 30.623 30.624 0 16.913-13.71 30.623-30.623 30.623s-30.624-13.71-30.624-30.623z" style="stroke-miterlimit:10" transform="translate(98.852 87.097)"/></svg>