<svg xmlns="http://www.w3.org/2000/svg" width="600" height="300"><defs><clipPath id="a"><path fill="none" d="M0 300V0h600v300z"/></clipPath><clipPath id="b"><path fill="none" stroke-linecap="round" stroke-linejoin="round" d="M0 300V0h600v300z"/></clipPath></defs><g stroke-miterlimit="10" data-paper-data="{&quot;isPaintingLayer&quot;:true}"><g stroke-linecap="round" stroke-linejoin="round" clip-path="url(#a)"><path fill="#f33" d="M0 300V0h600v300z"/><g fill="#e62e2e"><path d="M350 7.718a7.5 7.5 0 0 1 7.5-7.5h35a7.5 7.5 0 0 1 7.5 7.5v35a7.5 7.5 0 0 1-7.5 7.5h-35a7.5 7.5 0 0 1-7.5-7.5zM450 7.717a7.5 7.5 0 0 1 7.5-7.5h35a7.5 7.5 0 0 1 7.5 7.5v35a7.5 7.5 0 0 1-7.5 7.5h-35a7.5 7.5 0 0 1-7.5-7.5zM550 7.717a7.5 7.5 0 0 1 7.5-7.5h35a7.5 7.5 0 0 1 7.5 7.5v35a7.5 7.5 0 0 1-7.5 7.5h-35a7.5 7.5 0 0 1-7.5-7.5zM0 157.719a7.5 7.5 0 0 1 7.5-7.5h35a7.5 7.5 0 0 1 7.5 7.5v35a7.5 7.5 0 0 1-7.5 7.5h-35a7.5 7.5 0 0 1-7.5-7.5zM200 157.719a7.5 7.5 0 0 1 7.5-7.5h35a7.5 7.5 0 0 1 7.5 7.5v35a7.5 7.5 0 0 1-7.5 7.5h-35a7.5 7.5 0 0 1-7.5-7.5zM300 157.718a7.5 7.5 0 0 1 7.5-7.5h35a7.5 7.5 0 0 1 7.5 7.5v35a7.5 7.5 0 0 1-7.5 7.5h-35a7.5 7.5 0 0 1-7.5-7.5zM100 157.719a7.5 7.5 0 0 1 7.5-7.5h35a7.5 7.5 0 0 1 7.5 7.5v35a7.5 7.5 0 0 1-7.5 7.5h-35a7.5 7.5 0 0 1-7.5-7.5zM50 7.72a7.5 7.5 0 0 1 7.5-7.5h35a7.5 7.5 0 0 1 7.5 7.5v35a7.5 7.5 0 0 1-7.5 7.5h-35a7.5 7.5 0 0 1-7.5-7.5zM150 7.72a7.5 7.5 0 0 1 7.5-7.5h35a7.5 7.5 0 0 1 7.5 7.5v35a7.5 7.5 0 0 1-7.5 7.5h-35a7.5 7.5 0 0 1-7.5-7.5zM250 7.719a7.5 7.5 0 0 1 7.5-7.5h35a7.5 7.5 0 0 1 7.5 7.5v35a7.5 7.5 0 0 1-7.5 7.5h-35a7.5 7.5 0 0 1-7.5-7.5zM250 157.719a7.5 7.5 0 0 1 7.5-7.5h35a7.5 7.5 0 0 1 7.5 7.5v35a7.5 7.5 0 0 1-7.5 7.5h-35a7.5 7.5 0 0 1-7.5-7.5zM400 157.718a7.5 7.5 0 0 1 7.5-7.5h35a7.5 7.5 0 0 1 7.5 7.5v35a7.5 7.5 0 0 1-7.5 7.5h-35a7.5 7.5 0 0 1-7.5-7.5zM500 157.718a7.5 7.5 0 0 1 7.5-7.5h35a7.5 7.5 0 0 1 7.5 7.5v35a7.5 7.5 0 0 1-7.5 7.5h-35a7.5 7.5 0 0 1-7.5-7.5zM0 57.72a7.5 7.5 0 0 1 7.5-7.5h35a7.5 7.5 0 0 1 7.5 7.5v35a7.5 7.5 0 0 1-7.5 7.499h-35a7.5 7.5 0 0 1-7.5-7.5zM200 57.718a7.5 7.5 0 0 1 7.5-7.5h35a7.5 7.5 0 0 1 7.5 7.5v35a7.5 7.5 0 0 1-7.5 7.501h-35a7.5 7.5 0 0 1-7.5-7.5zM300 57.718a7.5 7.5 0 0 1 7.5-7.5h35a7.5 7.5 0 0 1 7.5 7.5v35a7.5 7.5 0 0 1-7.5 7.5h-35a7.5 7.5 0 0 1-7.5-7.5zM100 57.72a7.5 7.5 0 0 1 7.5-7.5h35a7.5 7.5 0 0 1 7.5 7.5v35a7.5 7.5 0 0 1-7.5 7.499h-35a7.5 7.5 0 0 1-7.5-7.5zM350 207.718a7.5 7.5 0 0 1 7.5-7.5h35a7.5 7.5 0 0 1 7.5 7.5v35a7.5 7.5 0 0 1-7.5 7.5h-35a7.5 7.5 0 0 1-7.5-7.5zM450 207.717a7.5 7.5 0 0 1 7.5-7.5h35a7.5 7.5 0 0 1 7.5 7.5v35a7.5 7.5 0 0 1-7.5 7.5h-35a7.5 7.5 0 0 1-7.5-7.5zM550 207.717a7.5 7.5 0 0 1 7.5-7.5h35a7.5 7.5 0 0 1 7.5 7.5v35a7.5 7.5 0 0 1-7.5 7.5h-35a7.5 7.5 0 0 1-7.5-7.5zM400 57.718a7.5 7.5 0 0 1 7.5-7.5h35a7.5 7.5 0 0 1 7.5 7.5v35a7.5 7.5 0 0 1-7.5 7.5h-35a7.5 7.5 0 0 1-7.5-7.5zM500 57.718a7.5 7.5 0 0 1 7.5-7.5h35a7.5 7.5 0 0 1 7.5 7.5v35a7.5 7.5 0 0 1-7.5 7.5h-35a7.5 7.5 0 0 1-7.5-7.5zM50 207.719a7.5 7.5 0 0 1 7.5-7.5h35a7.5 7.5 0 0 1 7.5 7.5v35a7.5 7.5 0 0 1-7.5 7.5h-35a7.5 7.5 0 0 1-7.5-7.5zM150 207.719a7.5 7.5 0 0 1 7.5-7.5h35a7.5 7.5 0 0 1 7.5 7.5v35a7.5 7.5 0 0 1-7.5 7.5h-35a7.5 7.5 0 0 1-7.5-7.5zM250 207.719a7.5 7.5 0 0 1 7.5-7.5h35a7.5 7.5 0 0 1 7.5 7.5v35a7.5 7.5 0 0 1-7.5 7.5h-35a7.5 7.5 0 0 1-7.5-7.5zM350 107.718a7.5 7.5 0 0 1 7.5-7.5h35a7.5 7.5 0 0 1 7.5 7.5v35a7.5 7.5 0 0 1-7.5 7.5h-35a7.5 7.5 0 0 1-7.5-7.5zM450 107.717a7.5 7.5 0 0 1 7.5-7.499h35a7.5 7.5 0 0 1 7.5 7.499v35a7.5 7.5 0 0 1-7.5 7.5h-35a7.5 7.5 0 0 1-7.5-7.5zM550 107.717a7.5 7.5 0 0 1 7.5-7.499h35a7.5 7.5 0 0 1 7.5 7.499v35a7.5 7.5 0 0 1-7.5 7.5h-35a7.5 7.5 0 0 1-7.5-7.5zM0 257.72a7.5 7.5 0 0 1 7.5-7.5h35a7.5 7.5 0 0 1 7.5 7.5v35a7.5 7.5 0 0 1-7.5 7.5h-35a7.5 7.5 0 0 1-7.5-7.5zM200 257.719a7.5 7.5 0 0 1 7.5-7.5h35a7.5 7.5 0 0 1 7.5 7.5v35a7.5 7.5 0 0 1-7.5 7.5h-35a7.5 7.5 0 0 1-7.5-7.5zM300 257.718a7.5 7.5 0 0 1 7.5-7.5h35a7.5 7.5 0 0 1 7.5 7.5v35a7.5 7.5 0 0 1-7.5 7.5h-35a7.5 7.5 0 0 1-7.5-7.5zM100 257.72a7.5 7.5 0 0 1 7.5-7.5h35a7.5 7.5 0 0 1 7.5 7.5v35a7.5 7.5 0 0 1-7.5 7.5h-35a7.5 7.5 0 0 1-7.5-7.5zM50 107.719a7.5 7.5 0 0 1 7.5-7.5h35a7.5 7.5 0 0 1 7.5 7.5v35a7.5 7.5 0 0 1-7.5 7.5h-35a7.5 7.5 0 0 1-7.5-7.5zM150 107.719a7.5 7.5 0 0 1 7.5-7.5h35a7.5 7.5 0 0 1 7.5 7.5v35a7.5 7.5 0 0 1-7.5 7.5h-35a7.5 7.5 0 0 1-7.5-7.5zM250 107.719a7.5 7.5 0 0 1 7.5-7.5h35a7.5 7.5 0 0 1 7.5 7.5v35a7.5 7.5 0 0 1-7.5 7.5h-35a7.5 7.5 0 0 1-7.5-7.5zM400 257.718a7.5 7.5 0 0 1 7.5-7.5h35a7.5 7.5 0 0 1 7.5 7.5v35a7.5 7.5 0 0 1-7.5 7.5h-35a7.5 7.5 0 0 1-7.5-7.5zM500 257.718a7.5 7.5 0 0 1 7.5-7.5h35a7.5 7.5 0 0 1 7.5 7.5v35a7.5 7.5 0 0 1-7.5 7.5h-35a7.5 7.5 0 0 1-7.5-7.5z"/></g></g><g clip-path="url(#b)"><path fill-opacity=".15" d="M420 26c22.092 0 40 17.899 40 40v120c0 22.092-17.899 40-40 40h-75.25c1.56 12.481 3.446 27.539 4.594 36.719l1.469 11.719H249.188l1.468-11.719c1.148-9.18 3.034-24.238 4.594-36.719H180c-22.092 0-40-17.899-40-40V66c0-22.092 17.899-40 40-40h240z"/><path fill="#e6e6e6" stroke="#fff" stroke-width="7" d="M267 216h66l6 48h-78z"/><path fill="#262626" stroke="#fff" stroke-width="7.5" d="M180.005 36h239.99C436.566 36 450 49.434 450 66.005v119.99C450 202.566 436.566 216 419.995 216h-239.99C163.434 216 150 202.566 150 185.995V66.005C150 49.434 163.434 36 180.005 36z"/><path fill="gray" stroke="#1a1a1a" stroke-width="7.5" d="M420 43.5c12.431 0 22.5 10.076 22.5 22.5v120c0 12.431-10.076 22.5-22.5 22.5H180c-12.431 0-22.5-10.076-22.5-22.5V66c0-12.43 10.076-22.5 22.5-22.5h240z"/></g><g fill="none" stroke="#676767" stroke-width="22.5"><path d="M375.585 161.107c-.84 0-1.679-.321-2.32-.96L291.32 78.198a3.285 3.285 0 0 1 0-4.642 3.285 3.285 0 0 1 4.642 0l81.945 81.944a3.285 3.285 0 0 1-2.322 5.606z"/><path d="M325.787 89.966c0 9.973-8.085 18.058-18.058 18.058-9.972 0-18.057-8.085-18.057-18.058 0-9.972 8.085-18.057 18.057-18.057 9.973 0 18.058 8.085 18.058 18.057z"/><path d="M323.284 127.245c-9.706-2.292-15.716-12.018-13.424-21.724 2.291-9.706 12.017-15.716 21.723-13.424s15.716 12.018 13.424 21.724c-2.292 9.705-12.018 15.716-21.723 13.424z"/><path d="M365.188 129.365c0 9.972-8.088 18.06-18.06 18.06-9.973 0-18.057-8.088-18.057-18.06 0-9.973 8.084-18.057 18.057-18.057 9.972 0 18.06 8.087 18.06 18.057z"/><path d="M375.585 161.107c-.84 0-1.679-.321-2.32-.96l-20.112-20.112a3.28 3.28 0 0 1 0-4.642 3.285 3.285 0 0 1 4.643 0l20.11 20.11a3.285 3.285 0 0 1 0 4.643 3.292 3.292 0 0 1-2.32.96zM341.316 172.076c-.84 0-1.68-.32-2.322-.96L257.05 89.169a3.285 3.285 0 0 1 0-4.643 3.285 3.285 0 0 1 4.642 0l81.945 81.945a3.285 3.285 0 0 1-2.321 5.605z"/><path d="M291.517 100.936c0 9.973-8.085 18.057-18.057 18.057-9.973 0-18.058-8.084-18.058-18.057 0-9.973 8.085-18.057 18.058-18.057 9.972 0 18.057 8.084 18.057 18.057z"/><path d="M289.014 138.214c-9.706-2.292-15.716-12.018-13.424-21.723 2.291-9.706 12.017-15.716 21.723-13.424 9.706 2.291 15.716 12.017 13.424 21.723s-12.018 15.716-21.723 13.424z"/><path d="M330.918 140.334c0 9.973-8.087 18.06-18.06 18.06-9.973 0-18.057-8.087-18.057-18.06 0-9.972 8.084-18.057 18.057-18.057 9.973 0 18.06 8.087 18.06 18.057z"/><path d="M341.316 172.076c-.84 0-1.68-.32-2.322-.96l-20.11-20.111a3.28 3.28 0 0 1 0-4.643 3.285 3.285 0 0 1 4.642 0l20.11 20.111a3.285 3.285 0 0 1 0 4.643 3.292 3.292 0 0 1-2.32.96zM307.046 183.046c-.84 0-1.68-.321-2.322-.96l-81.944-81.948a3.285 3.285 0 0 1 0-4.642 3.285 3.285 0 0 1 4.643 0l81.944 81.944a3.285 3.285 0 0 1-2.321 5.606z"/><path d="M257.247 111.906c0 9.972-8.085 18.057-18.057 18.057-9.973 0-18.058-8.085-18.058-18.057 0-9.973 8.085-18.058 18.058-18.058 9.972 0 18.057 8.085 18.057 18.058z"/><path d="M254.744 149.184c-9.706-2.292-15.716-12.018-13.424-21.724 2.292-9.705 12.018-15.716 21.723-13.424 9.706 2.292 15.716 12.018 13.424 21.724-2.291 9.706-12.017 15.716-21.723 13.424z"/><path d="M296.648 151.304c0 9.973-8.087 18.06-18.06 18.06-9.973 0-18.057-8.087-18.057-18.06 0-9.973 8.084-18.057 18.057-18.057 9.973 0 18.06 8.087 18.06 18.057z"/><path d="M307.046 183.046c-.84 0-1.68-.321-2.322-.96l-20.11-20.111a3.28 3.28 0 0 1 0-4.643 3.285 3.285 0 0 1 4.642 0l20.11 20.111a3.285 3.285 0 0 1 0 4.643 3.292 3.292 0 0 1-2.32.96z"/></g><g fill="none" stroke="#fff" stroke-width="12.5"><path d="M375.585 161.107c-.84 0-1.679-.321-2.32-.96L291.32 78.198a3.285 3.285 0 0 1 0-4.642 3.285 3.285 0 0 1 4.642 0l81.945 81.944a3.285 3.285 0 0 1-2.322 5.606z"/><path d="M325.787 89.966c0 9.973-8.085 18.058-18.058 18.058-9.972 0-18.057-8.085-18.057-18.058 0-9.972 8.085-18.057 18.057-18.057 9.973 0 18.058 8.085 18.058 18.057z"/><path d="M323.284 127.245c-9.706-2.292-15.716-12.018-13.424-21.724 2.291-9.706 12.017-15.716 21.723-13.424s15.716 12.018 13.424 21.724c-2.292 9.705-12.018 15.716-21.723 13.424z"/><path d="M365.188 129.365c0 9.972-8.088 18.06-18.06 18.06-9.973 0-18.057-8.088-18.057-18.06 0-9.973 8.084-18.057 18.057-18.057 9.972 0 18.06 8.087 18.06 18.057z"/><path d="M375.585 161.107c-.84 0-1.679-.321-2.32-.96l-20.112-20.112a3.28 3.28 0 0 1 0-4.642 3.285 3.285 0 0 1 4.643 0l20.11 20.11a3.285 3.285 0 0 1 0 4.643 3.292 3.292 0 0 1-2.32.96z"/></g><path fill="#000082" d="M375.585 161.107c-.84 0-1.679-.321-2.32-.96L291.32 78.198a3.285 3.285 0 0 1 0-4.642 3.285 3.285 0 0 1 4.642 0l81.945 81.944a3.285 3.285 0 0 1-2.322 5.606z"/><path fill="#0000e3" d="M325.787 89.966c0 9.973-8.085 18.058-18.058 18.058-9.972 0-18.057-8.085-18.057-18.058 0-9.972 8.085-18.057 18.057-18.057 9.973 0 18.058 8.085 18.058 18.057z"/><path fill="#000083" d="M323.284 127.245c-9.706-2.292-15.716-12.018-13.424-21.724 2.291-9.706 12.017-15.716 21.723-13.424s15.716 12.018 13.424 21.724c-2.292 9.705-12.018 15.716-21.723 13.424z"/><path fill="#008" d="M365.188 129.365c0 9.972-8.088 18.06-18.06 18.06-9.973 0-18.057-8.088-18.057-18.06 0-9.973 8.084-18.057 18.057-18.057 9.972 0 18.06 8.087 18.06 18.057z"/><path fill="#000082" d="M375.585 161.107c-.84 0-1.679-.321-2.32-.96l-20.112-20.112a3.28 3.28 0 0 1 0-4.642 3.285 3.285 0 0 1 4.643 0l20.11 20.11a3.285 3.285 0 0 1 0 4.643 3.292 3.292 0 0 1-2.32.96z"/><g fill="none" stroke="#fff" stroke-width="12.5"><path d="M341.316 172.076c-.84 0-1.68-.32-2.322-.96L257.05 89.169a3.285 3.285 0 0 1 0-4.643 3.285 3.285 0 0 1 4.642 0l81.945 81.945a3.285 3.285 0 0 1-2.321 5.605z"/><path d="M291.517 100.936c0 9.973-8.085 18.057-18.057 18.057-9.973 0-18.058-8.084-18.058-18.057 0-9.973 8.085-18.057 18.058-18.057 9.972 0 18.057 8.084 18.057 18.057z"/><path d="M289.014 138.214c-9.706-2.292-15.716-12.018-13.424-21.723 2.291-9.706 12.017-15.716 21.723-13.424 9.706 2.291 15.716 12.017 13.424 21.723s-12.018 15.716-21.723 13.424z"/><path d="M330.918 140.334c0 9.973-8.087 18.06-18.06 18.06-9.973 0-18.057-8.087-18.057-18.06 0-9.972 8.084-18.057 18.057-18.057 9.973 0 18.06 8.087 18.06 18.057z"/><path d="M341.316 172.076c-.84 0-1.68-.32-2.322-.96l-20.11-20.111a3.28 3.28 0 0 1 0-4.643 3.285 3.285 0 0 1 4.642 0l20.11 20.111a3.285 3.285 0 0 1 0 4.643 3.292 3.292 0 0 1-2.32.96z"/></g><path fill="#009e00" d="M341.316 172.076c-.84 0-1.68-.32-2.322-.96L257.05 89.169a3.285 3.285 0 0 1 0-4.643 3.285 3.285 0 0 1 4.642 0l81.945 81.945a3.285 3.285 0 0 1-2.321 5.605z"/><path fill="#00b100" d="M291.517 100.936c0 9.973-8.085 18.057-18.057 18.057-9.973 0-18.058-8.084-18.058-18.057 0-9.973 8.085-18.057 18.058-18.057 9.972 0 18.057 8.084 18.057 18.057z"/><path fill="#00d900" d="M289.014 138.214c-9.706-2.292-15.716-12.018-13.424-21.723 2.291-9.706 12.017-15.716 21.723-13.424 9.706 2.291 15.716 12.017 13.424 21.723s-12.018 15.716-21.723 13.424z"/><path fill="#00d300" d="M330.918 140.334c0 9.973-8.087 18.06-18.06 18.06-9.973 0-18.057-8.087-18.057-18.06 0-9.972 8.084-18.057 18.057-18.057 9.973 0 18.06 8.087 18.06 18.057z"/><path fill="#009e00" d="M341.316 172.076c-.84 0-1.68-.32-2.322-.96l-20.11-20.111a3.28 3.28 0 0 1 0-4.643 3.285 3.285 0 0 1 4.642 0l20.11 20.111a3.285 3.285 0 0 1 0 4.643 3.292 3.292 0 0 1-2.32.96z"/><g fill="none" stroke="#fff" stroke-width="12.5"><path d="M307.046 183.046c-.84 0-1.68-.321-2.322-.96l-81.944-81.948a3.285 3.285 0 0 1 0-4.642 3.285 3.285 0 0 1 4.643 0l81.944 81.944a3.285 3.285 0 0 1-2.321 5.606z"/><path d="M257.247 111.906c0 9.972-8.085 18.057-18.057 18.057-9.973 0-18.058-8.085-18.058-18.057 0-9.973 8.085-18.058 18.058-18.058 9.972 0 18.057 8.085 18.057 18.058z"/><path d="M254.744 149.184c-9.706-2.292-15.716-12.018-13.424-21.724 2.292-9.705 12.018-15.716 21.723-13.424 9.706 2.292 15.716 12.018 13.424 21.724-2.291 9.706-12.017 15.716-21.723 13.424z"/><path d="M296.648 151.304c0 9.973-8.087 18.06-18.06 18.06-9.973 0-18.057-8.087-18.057-18.06 0-9.973 8.084-18.057 18.057-18.057 9.973 0 18.06 8.087 18.06 18.057z"/><path d="M307.046 183.046c-.84 0-1.68-.321-2.322-.96l-20.11-20.111a3.28 3.28 0 0 1 0-4.643 3.285 3.285 0 0 1 4.642 0l20.11 20.111a3.285 3.285 0 0 1 0 4.643 3.292 3.292 0 0 1-2.32.96z"/></g><path fill="#d90000" d="M307.046 183.046c-.84 0-1.68-.321-2.322-.96l-81.944-81.948a3.285 3.285 0 0 1 0-4.642 3.285 3.285 0 0 1 4.643 0l81.944 81.944a3.285 3.285 0 0 1-2.321 5.606z"/><path fill="#fc0000" d="M257.247 111.906c0 9.972-8.085 18.057-18.057 18.057-9.973 0-18.058-8.085-18.058-18.057 0-9.973 8.085-18.058 18.058-18.058 9.972 0 18.057 8.085 18.057 18.058z"/><path fill="red" d="M254.744 149.184c-9.706-2.292-15.716-12.018-13.424-21.724 2.292-9.705 12.018-15.716 21.723-13.424 9.706 2.292 15.716 12.018 13.424 21.724-2.291 9.706-12.017 15.716-21.723 13.424z"/><path fill="#a60000" d="M296.648 151.304c0 9.973-8.087 18.06-18.06 18.06-9.973 0-18.057-8.087-18.057-18.06 0-9.973 8.084-18.057 18.057-18.057 9.973 0 18.06 8.087 18.06 18.057z"/><path fill="#d90000" d="M307.046 183.046c-.84 0-1.68-.321-2.322-.96l-20.11-20.111a3.28 3.28 0 0 1 0-4.643 3.285 3.285 0 0 1 4.642 0l20.11 20.111a3.285 3.285 0 0 1 0 4.643 3.292 3.292 0 0 1-2.32.96z"/></g></svg>