<svg xmlns="http://www.w3.org/2000/svg" xmlns:xlink="http://www.w3.org/1999/xlink" version="1.1" width="600" height="300" viewBox="11.3,5.6,600,300"><defs><linearGradient x1="240.00237" y1="29.95806" x2="240.00237" y2="329.95806" gradientUnits="userSpaceOnUse" id="color-1"><stop offset="0" stop-color="#35ddae"/><stop offset="1" stop-color="#209187"/></linearGradient><linearGradient x1="245.10898" y1="148.21036" x2="245.10898" y2="272.65396" gradientUnits="userSpaceOnUse" id="color-2"><stop offset="0" stop-color="#99ffdf"/><stop offset="1" stop-color="#87fff1"/></linearGradient><linearGradient x1="245.10898" y1="148.21036" x2="245.10898" y2="272.65396" gradientUnits="userSpaceOnUse" id="color-3"><stop offset="0" stop-color="#d5fff2"/><stop offset="1" stop-color="#b6fff7"/></linearGradient></defs><g transform="translate(71.32112,-24.39233)"><g data-paper-data="{&quot;isPaintingLayer&quot;:true}" stroke-linejoin="miter" stroke-miterlimit="10" stroke-dasharray="" stroke-dashoffset="0" style="mix-blend-mode: normal"><path d="M-59.99764,29.95806h600v300h-600z" fill="url(#color-1)" fill-rule="nonzero" stroke="none" stroke-width="1" stroke-linecap="butt"/><g fill-opacity="0.22353" fill="#3cf0eb" fill-rule="nonzero" stroke="none" stroke-width="0" stroke-linecap="butt"><path d="M-71.32112,65.04337l39.72851,-39.84382l39.8438,39.72851l-39.72848,39.8438z"/><path d="M8.25119,64.92806l39.72849,-39.84383l39.84382,39.72851l-39.72851,39.8438z"/><path d="M87.82349,64.81274l39.72851,-39.84381l39.8438,39.72851l-39.72848,39.8438z"/><path d="M167.39579,64.69743l39.72849,-39.84383l39.84382,39.72851l-39.7285,39.8438z"/><path d="M246.96809,64.58211l39.72851,-39.84381l39.8438,39.7285l-39.72848,39.8438z"/><path d="M326.5404,64.4668l39.72848,-39.84383l39.84382,39.72851l-39.7285,39.8438z"/><path d="M406.11271,64.35148l39.72851,-39.84382l39.8438,39.7285l-39.72848,39.8438z"/><path d="M485.68501,64.23616l39.72849,-39.84382l39.84381,39.72851l-39.72851,39.8438z"/><path d="M-71.32112,145.42289l39.72851,-39.84381l39.8438,39.72851l-39.72848,39.8438z"/><path d="M8.25119,145.30757l39.72849,-39.84383l39.84382,39.72851l-39.72851,39.8438z"/><path d="M87.82349,145.19225l39.72851,-39.84382l39.8438,39.72851l-39.72848,39.8438z"/><path d="M167.39579,145.07695l39.72849,-39.84383l39.84382,39.72851l-39.7285,39.8438z"/><path d="M246.96809,144.96163l39.72851,-39.84382l39.8438,39.7285l-39.72848,39.8438z"/><path d="M326.5404,144.84632l39.72848,-39.84382l39.84382,39.72851l-39.7285,39.8438z"/><path d="M406.11271,144.731l39.72851,-39.84382l39.8438,39.7285l-39.72848,39.8438z"/><path d="M485.68501,144.61568l39.72849,-39.84382l39.84381,39.72851l-39.72851,39.8438z"/><path d="M-71.32112,225.80241l39.72851,-39.84382l39.8438,39.72851l-39.72848,39.8438z"/><path d="M8.25119,225.6871l39.72849,-39.84383l39.84382,39.72851l-39.72851,39.8438z"/><path d="M87.82349,225.57177l39.72851,-39.84382l39.8438,39.72851l-39.72848,39.8438z"/><path d="M167.39579,225.45646l39.72849,-39.84383l39.84382,39.7285l-39.7285,39.8438z"/><path d="M246.96809,225.34115l39.72851,-39.84382l39.8438,39.7285l-39.72848,39.8438z"/><path d="M326.5404,225.22584l39.72848,-39.84382l39.84382,39.7285l-39.7285,39.8438z"/><path d="M406.11271,225.11052l39.72851,-39.84381l39.8438,39.7285l-39.72848,39.8438z"/><path d="M485.68501,224.9952l39.72849,-39.84383l39.84381,39.72851l-39.72851,39.84379z"/><path d="M-71.32112,306.18192l39.72851,-39.84382l39.8438,39.72851l-39.72848,39.8438z"/><path d="M8.25119,306.06662l39.72849,-39.84383l39.84382,39.7285l-39.72851,39.8438z"/><path d="M87.82349,305.95129l39.72851,-39.84382l39.8438,39.72851l-39.72848,39.8438z"/><path d="M167.39579,305.83599l39.72849,-39.84383l39.84382,39.7285l-39.7285,39.8438z"/><path d="M246.96809,305.72067l39.72851,-39.84382l39.8438,39.7285l-39.72848,39.8438z"/><path d="M326.5404,305.60536l39.72848,-39.84382l39.84382,39.7285l-39.7285,39.8438z"/><path d="M406.11271,305.49004l39.72851,-39.84382l39.8438,39.7285l-39.72848,39.8438z"/><path d="M485.68501,305.37472l39.72849,-39.84382l39.84381,39.7285l-39.72851,39.8438z"/></g><g fill="#169078" fill-rule="nonzero" stroke="none" stroke-width="0" stroke-linecap="butt"><path d="M196.60031,182.46773c0,-43.65181 34.16421,-82.91326 79.71764,-82.70535c16.88135,-0.08937 35.28861,6.61537 47.87734,19.07384c9.08294,8.98897 15.13688,20.79959 15.40316,36.03748c0.1067,6.42501 -2.08301,15.3268 -6.20103,20.65756c-5.61876,7.27346 -9.95507,6.7056 -9.95507,6.7056c0,0 4.94227,-0.46912 10.44326,7.50816c2.92397,4.2402 5.96394,10.06849 5.77399,19.18838c-0.20362,37.45762 -36.51581,55.81351 -63.47744,56.10388c-45.00786,0.50509 -79.58183,-38.91773 -79.58183,-82.56955z"/><path d="M133.04348,182.19613c0,-17.55073 14.22768,-31.77841 31.77841,-31.77841c17.55073,0 31.77841,14.22768 31.77841,31.77841c0,17.55073 -14.22768,31.77841 -31.77841,31.77841c-17.55073,0 -31.77841,-14.22768 -31.77841,-31.77841z"/><path d="M118.03701,182.17575c0,-4.14392 3.35932,-7.50324 7.50324,-7.50324c4.14392,0 7.50323,3.35932 7.50323,7.50324c0,4.14392 -3.35931,7.50323 -7.50323,7.50323c-4.14392,0 -7.50324,-3.35931 -7.50324,-7.50323z"/><path d="M114.7777,182.1418c0,-0.90004 0.72962,-1.62966 1.62966,-1.62966c0.90004,0 1.62966,0.72962 1.62966,1.62966c0,0.90004 -0.72962,1.62966 -1.62966,1.62966c-0.90004,0 -1.62966,-0.72962 -1.62966,-1.62966z"/><path d="M143.66762,151.73268c0,-1.84696 1.49724,-3.34421 3.3442,-3.34421c1.84696,0 3.3442,1.49725 3.3442,3.34421c0,1.84696 -1.49725,3.3442 -3.3442,3.3442c-1.84696,0 -3.3442,-1.49724 -3.3442,-3.3442z"/><path d="M162.99374,148.53604c0,-1.05077 0.85181,-1.90258 1.90257,-1.90258c1.05077,0 1.90259,0.85181 1.90259,1.90258c0,1.05077 -0.85182,1.90258 -1.90259,1.90258c-1.05077,0 -1.90257,-0.85181 -1.90257,-1.90258z"/><path d="M204.82521,139.23861c0,-0.94691 0.76763,-1.71454 1.71454,-1.71454c0.94691,0 1.71454,0.76763 1.71454,1.71454c0,0.94691 -0.76763,1.71454 -1.71454,1.71454c-0.94691,0 -1.71454,-0.76763 -1.71454,-1.71454z"/><path d="M210.21216,128.17048c0,-1.45943 1.18311,-2.64255 2.64254,-2.64255c1.45944,0 2.64254,1.18312 2.64254,2.64255c0,1.45943 -1.18311,2.64253 -2.64254,2.64253c-1.45944,0 -2.64254,-1.1831 -2.64254,-2.64253z"/><path d="M264.17208,87.70312c0,-6.65964 5.39871,-12.05839 12.05836,-12.05839c6.65965,0 12.05837,5.39874 12.05837,12.05839c0,6.65964 -5.39873,12.05834 -12.05837,12.05834c-6.65965,0 -12.05836,-5.3987 -12.05836,-12.05834z"/><path d="M222.8873,110.60635c0,-2.70949 2.19647,-4.90597 4.90596,-4.90597c2.70949,0 4.90597,2.19648 4.90597,4.90597c0,2.70949 -2.19648,4.90596 -4.90597,4.90596c-2.70949,0 -4.90596,-2.19647 -4.90596,-4.90596z"/><path d="M244.34452,103.63502c0,-1.05942 0.85883,-1.91826 1.91825,-1.91826c1.05942,0 1.91825,0.85883 1.91825,1.91826c0,1.05942 -0.85883,1.91824 -1.91825,1.91824c-1.05942,0 -1.91825,-0.85882 -1.91825,-1.91824z"/><path d="M274.76489,72.94305c0,-1.55944 1.26417,-2.82362 2.82361,-2.82362c1.55944,0 2.82362,1.26418 2.82362,2.82362c0,1.55944 -1.26418,2.82362 -2.82362,2.82362c-1.55944,0 -2.82361,-1.26418 -2.82361,-2.82362z"/><path d="M263.991,79.91437c0,-0.70941 0.57509,-1.28449 1.28449,-1.28449c0.70941,0 1.28449,0.57509 1.28449,1.28449c0,0.70941 -0.57509,1.28449 -1.28449,1.28449c-0.70941,0 -1.28449,-0.57509 -1.28449,-1.28449z"/><path d="M286.71574,81.63456c0,-0.70941 0.57509,-1.28449 1.28449,-1.28449c0.70941,0 1.28449,0.57508 1.28449,1.28449c0,0.70941 -0.57509,1.2845 -1.28449,1.2845c-0.70941,0 -1.28449,-0.5751 -1.28449,-1.2845z"/><path d="M305.27578,104.54039c0,-1.15942 0.9399,-2.09933 2.09932,-2.09933c1.15942,0 2.09932,0.9399 2.09932,2.09933c0,1.15942 -0.93989,2.09932 -2.09932,2.09932c-1.15942,0 -2.09932,-0.93989 -2.09932,-2.09932z"/><path d="M322.02509,114.63524c0,-3.13451 2.54101,-5.67552 5.67551,-5.67552c3.1345,0 5.67553,2.54102 5.67553,5.67552c0,3.13451 -2.54103,5.67553 -5.67553,5.67553c-3.1345,0 -5.67551,-2.54103 -5.67551,-5.67553z"/><path d="M331.98413,110.56108c0,-0.7344 0.59535,-1.32976 1.32975,-1.32976c0.7344,0 1.32976,0.59535 1.32976,1.32976c0,0.7344 -0.59536,1.32976 -1.32976,1.32976c-0.7344,0 -1.32975,-0.59536 -1.32975,-1.32976z"/><path d="M337.23526,139.39705c0,-1.65945 1.34524,-3.00469 3.00469,-3.00469c1.65945,0 3.00469,1.34525 3.00469,3.00469c0,1.65945 -1.34524,3.00468 -3.00469,3.00468c-1.65945,0 -3.00469,-1.34524 -3.00469,-3.00468z"/><path d="M339.58922,154.51669c0,-1.00942 0.81829,-1.82772 1.82771,-1.82772c1.00942,0 1.82771,0.8183 1.82771,1.82772c0,1.00942 -0.81829,1.82771 -1.82771,1.82771c-1.00942,0 -1.82771,-0.81829 -1.82771,-1.82771z"/><path d="M338.59331,163.57036c0,-0.6594 0.53455,-1.19395 1.19395,-1.19395c0.6594,0 1.19395,0.53455 1.19395,1.19395c0,0.6594 -0.53455,1.19396 -1.19395,1.19396c-0.6594,0 -1.19395,-0.53455 -1.19395,-1.19396z"/><path d="M67.0835,182.18415c0,-0.84852 0.66409,-1.61169 1.54958,-1.60765c0.32814,-0.00173 0.68596,0.12859 0.93066,0.37076c0.17656,0.17473 0.29424,0.40432 0.29941,0.70052c0.00208,0.1249 -0.04049,0.29792 -0.12054,0.40154c-0.10922,0.14139 -0.19351,0.13034 -0.19351,0.13034c0,0 0.09607,-0.00912 0.203,0.14595c0.05684,0.08243 0.11593,0.19571 0.11223,0.37298c-0.00396,0.72812 -0.7098,1.08492 -1.23389,1.09057c-0.87488,0.00982 -1.54695,-0.75649 -1.54695,-1.60501z"/><path d="M66.01488,182.19564c0,-0.30327 0.24585,-0.54913 0.54912,-0.54913c0.30327,0 0.54912,0.24586 0.54912,0.54913c0,0.30327 -0.24585,0.54912 -0.54912,0.54912c-0.30327,0 -0.54912,-0.24585 -0.54912,-0.54912z"/><path d="M147.01182,209.365c1.84696,0 3.3442,1.49724 3.3442,3.3442c0,1.84696 -1.49725,3.34421 -3.3442,3.34421c-1.84696,0 -3.3442,-1.49725 -3.3442,-3.34421c0,-1.84696 1.49724,-3.3442 3.3442,-3.3442z" data-paper-data="{&quot;index&quot;:null}"/><path d="M164.89632,214.00327c1.05077,0 1.90259,0.85181 1.90259,1.90258c0,1.05077 -0.85182,1.90258 -1.90259,1.90258c-1.05077,0 -1.90257,-0.85181 -1.90257,-1.90258c0,-1.05077 0.85181,-1.90258 1.90257,-1.90258z" data-paper-data="{&quot;index&quot;:null}"/><path d="M206.53975,223.48874c0.94691,0 1.71454,0.76763 1.71454,1.71454c0,0.94691 -0.76763,1.71454 -1.71454,1.71454c-0.94691,0 -1.71454,-0.76763 -1.71454,-1.71454c0,-0.94691 0.76763,-1.71454 1.71454,-1.71454z" data-paper-data="{&quot;index&quot;:null}"/><path d="M212.8547,233.62886c1.45944,0 2.64254,1.1831 2.64254,2.64253c0,1.45944 -1.18311,2.64255 -2.64254,2.64255c-1.45944,0 -2.64254,-1.18311 -2.64254,-2.64255c0,-1.45944 1.18311,-2.64253 2.64254,-2.64253z" data-paper-data="{&quot;index&quot;:null}"/><path d="M276.23044,264.68042c6.65965,0 12.05837,5.39869 12.05837,12.05834c0,6.65965 -5.39873,12.05838 -12.05837,12.05838c-6.65965,0 -12.05836,-5.39873 -12.05836,-12.05838c0,-6.65965 5.39871,-12.05834 12.05836,-12.05834z" data-paper-data="{&quot;index&quot;:null}"/><path d="M227.79326,248.92958c2.70949,0 4.90597,2.19647 4.90597,4.90596c0,2.70949 -2.19648,4.90597 -4.90597,4.90597c-2.70949,0 -4.90596,-2.19648 -4.90596,-4.90597c0,-2.70949 2.19647,-4.90596 4.90596,-4.90596z" data-paper-data="{&quot;index&quot;:null}"/><path d="M246.26277,258.88861c1.05942,0 1.91825,0.85883 1.91825,1.91825c0,1.05942 -0.85883,1.91825 -1.91825,1.91825c-1.05942,0 -1.91825,-0.85883 -1.91825,-1.91825c0,-1.05942 0.85883,-1.91825 1.91825,-1.91825z" data-paper-data="{&quot;index&quot;:null}"/><path d="M277.58849,288.67521c1.55944,0 2.82362,1.26418 2.82362,2.82362c0,1.55944 -1.26418,2.82362 -2.82362,2.82362c-1.55944,0 -2.82361,-1.26418 -2.82361,-2.82362c0,-1.55944 1.26417,-2.82362 2.82361,-2.82362z" data-paper-data="{&quot;index&quot;:null}"/><path d="M265.27549,283.24301c0.70941,0 1.28449,0.57509 1.28449,1.28449c0,0.70941 -0.57509,1.28449 -1.28449,1.28449c-0.70941,0 -1.28449,-0.57509 -1.28449,-1.28449c0,-0.70941 0.57509,-1.28449 1.28449,-1.28449z" data-paper-data="{&quot;index&quot;:null}"/><path d="M288.00023,281.52282c0.70941,0 1.28449,0.57509 1.28449,1.28449c0,0.70941 -0.57509,1.28449 -1.28449,1.28449c-0.70941,0 -1.28449,-0.57509 -1.28449,-1.28449c0,-0.70941 0.57509,-1.28449 1.28449,-1.28449z" data-paper-data="{&quot;index&quot;:null}"/><path d="M307.3751,257.80217c1.15942,0 2.09932,0.9399 2.09932,2.09932c0,1.15942 -0.93989,2.09932 -2.09932,2.09932c-1.15942,0 -2.09932,-0.9399 -2.09932,-2.09932c0,-1.15942 0.9399,-2.09932 2.09932,-2.09932z" data-paper-data="{&quot;index&quot;:null}"/><path d="M327.70059,244.13112c3.1345,0 5.67553,2.54102 5.67553,5.67552c0,3.1345 -2.54103,5.67553 -5.67553,5.67553c-3.1345,0 -5.67551,-2.54103 -5.67551,-5.67553c0,-3.1345 2.54101,-5.67552 5.67551,-5.67552z" data-paper-data="{&quot;index&quot;:null}"/><path d="M333.31388,252.55104c0.7344,0 1.32976,0.59536 1.32976,1.32976c0,0.73441 -0.59536,1.32975 -1.32976,1.32975c-0.7344,0 -1.32975,-0.59535 -1.32975,-1.32975c0,-0.73441 0.59535,-1.32976 1.32975,-1.32976z" data-paper-data="{&quot;index&quot;:null}"/><path d="M340.23995,222.04015c1.65945,0 3.00469,1.34524 3.00469,3.00469c0,1.65945 -1.34524,3.00469 -3.00469,3.00469c-1.65945,0 -3.00469,-1.34524 -3.00469,-3.00469c0,-1.65945 1.34524,-3.00469 3.00469,-3.00469z" data-paper-data="{&quot;index&quot;:null}"/><path d="M341.41693,208.09747c1.00942,0 1.82771,0.81828 1.82771,1.8277c0,1.00942 -0.81829,1.82772 -1.82771,1.82772c-1.00942,0 -1.82771,-0.8183 -1.82771,-1.82772c0,-1.00942 0.81829,-1.8277 1.82771,-1.8277z" data-paper-data="{&quot;index&quot;:null}"/><path d="M339.78727,199.67756c0.6594,0 1.19395,0.53455 1.19395,1.19395c0,0.6594 -0.53455,1.19396 -1.19395,1.19396c-0.6594,0 -1.19395,-0.53455 -1.19395,-1.19396c0,-0.6594 0.53455,-1.19395 1.19395,-1.19395z" data-paper-data="{&quot;index&quot;:null}"/></g><g fill="#007e65" fill-rule="nonzero" stroke="none" stroke-width="0" stroke-linecap="butt"><path d="M-17.14105,185.47094v-6.5h19.5v6.5z"/><path d="M15.35895,185.47094v-6.5h19.5v6.5z"/><path d="M47.85895,185.47094v-6.5h19.5v6.5z"/><path d="M80.35895,185.47094v-6.5h19.5v6.5z"/><path d="M112.85895,185.47094v-6.5h19.5v6.5z"/><path d="M145.35895,185.47094v-6.5h19.5v6.5z"/><path d="M177.85895,185.47094v-6.5h19.5v6.5z"/><path d="M210.35895,185.47094v-6.5h19.5v6.5z"/><path d="M242.85895,185.47094v-6.5h19.5v6.5z"/><path d="M275.35895,185.47094v-6.5h19.5v6.5z"/><path d="M307.85895,185.47094v-6.5h19.5v6.5z"/><path d="M340.35896,185.47094v-6.5h19.5v6.5z"/><path d="M372.85896,185.47094v-6.5h19.5v6.5z"/><path d="M405.35896,185.47094v-6.5h19.5v6.5z"/><path d="M437.85896,185.47094v-6.5h19.5v6.5z"/><path d="M470.35896,185.47094v-6.5h19.5v6.5z"/><path d="M502.85896,185.47094v-6.5h19.5v6.5z"/><path d="M-50.14105,185.47094v-6.5h19.5v6.5z"/><path d="M281.85895,42.47094h6.5v19.5h-6.5z"/><path d="M281.85895,74.97094h6.5v19.5h-6.5z"/><path d="M281.85895,107.47094h6.5v19.5h-6.5z"/><path d="M281.85895,139.97094h6.5v19.5h-6.5z"/><path d="M281.85895,172.47094h6.5v19.5h-6.5z"/><path d="M281.85895,204.97094h6.5v19.5h-6.5z"/><path d="M281.85895,237.47094h6.5v19.5h-6.5z"/><path d="M281.85895,269.97094h6.5v19.5h-6.5z"/><path d="M281.85895,302.47094h6.5v19.5h-6.5z"/></g><path d="M-15.22562,118.05274l-4.43829,-8.15621l9.7115,-4.58829l17.81134,20.79422l13.87629,-58.98534l69.74397,-9.51493l1.1696,7.94862l-64.38835,8.79586l-15.79576,66.27813l-22.98638,-25.55707z" fill="#002e25" fill-rule="nonzero" stroke="#000000" stroke-width="0" stroke-linecap="butt"/><g fill-rule="nonzero" stroke-linecap="butt"><g stroke="#00464f" stroke-width="15"><path d="M233.49852,113.29076c0,-11.87571 9.62716,-21.50288 21.50288,-21.50288c11.87572,0 21.50288,9.62716 21.50288,21.50288c0,11.87572 -9.62716,21.50288 -21.50288,21.50288c-11.87572,0 -21.50288,-9.62717 -21.50288,-21.50288z" fill="#99ffdf"/><path d="M208.75672,160.58654l3.25688,-12.37618h60.67123c0,0 -19.64021,87.41548 -16.5391,100.10314c2.78664,11.34166 23.37035,0.99487 23.37035,0.99487l1.94513,13.74154c0,0 -14.35669,9.42842 -30.92697,9.60224c-14.73714,0.15456 -24.91522,-9.35168 -26.99203,-19.10603c-6.80846,-31.97848 11.55514,-92.95949 11.55514,-92.95949z" fill="url(#color-2)"/></g><g stroke-width="0"><path d="M233.49852,113.29076c0,-11.87571 9.62716,-21.50288 21.50288,-21.50288c11.87572,0 21.50288,9.62716 21.50288,21.50288c0,11.87572 -9.62716,21.50288 -21.50288,21.50288c-11.87572,0 -21.50288,-9.62717 -21.50288,-21.50288z" fill="#dafff3" stroke="#000000"/><path d="M208.75672,160.58654l3.25688,-12.37618h60.67123c0,0 -19.64021,87.41548 -16.5391,100.10314c2.78664,11.34166 23.37035,0.99487 23.37035,0.99487l1.94513,13.74154c0,0 -14.35669,9.42842 -30.92697,9.60224c-14.73714,0.15456 -24.91522,-9.35168 -26.99203,-19.10603c-6.80846,-31.97848 11.55514,-92.95949 11.55514,-92.95949z" fill="url(#color-3)" stroke="none"/></g></g><path d="M77.47446,75.32018l1.22936,-0.1698l5.98483,43.32994c0.08117,0.60312 0.19084,1.20207 0.32866,1.79484c0.27566,1.16519 0.63952,2.0784 1.0916,2.73962c0.16712,0.24897 0.36506,0.47596 0.58915,0.67561c0.35257,0.29506 0.76489,0.51091 1.2089,0.63286c1.04507,0.3137 2.49333,0.34269 4.34477,0.08697l0.75909,-0.10485l0.18401,1.33221l-26.28896,3.63109l-0.18401,-1.33221l2.24246,-0.30973c1.17751,-0.16264 2.15336,-0.44301 2.92754,-0.84111c0.489,-0.24224 0.92926,-0.57188 1.29887,-0.97247c0.71954,-0.801 1.01007,-2.13811 0.87158,-4.01134c-0.02525,-0.33264 -0.06101,-0.66439 -0.10721,-0.99476l-4.2983,-31.11951c-0.07475,-0.58318 -0.20817,-1.15734 -0.39823,-1.71382c-0.6093,-1.723 -1.74068,-2.57781 -3.39415,-2.56442c-0.23342,0.00257 -0.46644,0.02019 -0.6976,0.05275c-0.95041,0.13127 -2.13597,0.62904 -3.55669,1.49332c-0.16966,0.10331 -0.338,0.20876 -0.50498,0.31631l-0.86064,-1.16583zM35.88246,112.2279l21.1901,-2.92682l1.05473,7.63622l-21.1901,2.92682z" fill="#002e25" fill-rule="evenodd" stroke="#000000" stroke-width="0" stroke-linecap="round"/><path d="M500.54295,236.90148l0.93075,-0.20559l6.85141,31.01739c0.09355,0.43192 0.20866,0.8589 0.34497,1.27952c0.27193,0.8264 0.59823,1.46413 0.9789,1.91317c0.14083,0.16933 0.30406,0.32064 0.48583,0.45037c0.28481,0.19027 0.61113,0.31917 0.95673,0.37792c0.81531,0.15736 1.92383,0.08123 3.32558,-0.22841l0.57528,-0.12706l0.21065,0.95365l-19.90366,4.3965l-0.21064,-0.95365l1.69723,-0.3749c0.89152,-0.19693 1.62287,-0.46573 2.19408,-0.80641c0.36104,-0.20846 0.68026,-0.47701 0.94172,-0.79228c0.5079,-0.62908 0.65952,-1.61809 0.45487,-2.96701c-0.03679,-0.23951 -0.08155,-0.47765 -0.13422,-0.71411l-4.92067,-22.27666c-0.08759,-0.41788 -0.21955,-0.8253 -0.39387,-1.2161c-0.55626,-1.20848 -1.46616,-1.75238 -2.72969,-1.63166c-0.1781,0.0175 -0.35509,0.04586 -0.52989,0.08492c-0.71956,0.15895 -1.59962,0.59942 -2.64016,1.32142c-0.12426,0.08629 -0.24738,0.17405 -0.36937,0.26324l-0.71966,-0.7875zM375.50336,295.56516l1.16535,0.33738c-1.31567,5.4824 -4.33722,8.74572 -9.06465,9.78996c-1.23959,0.28671 -2.5129,0.3966 -3.7774,0.32599c-2.0173,-0.12398 -3.92728,-0.84315 -5.46281,-2.05693c-1.88365,-1.4724 -3.31585,-3.39519 -4.15474,-5.57791c-0.34016,-0.85811 -0.60939,-1.74142 -0.80531,-2.64211c-0.3702,-1.60366 -0.47796,-3.2577 -0.31954,-4.90484c0.19214,-1.87289 0.79568,-3.69677 1.77173,-5.35404c0.5912,-1.03183 1.3229,-1.98795 2.17582,-2.84317c1.37669,-1.38508 3.15326,-2.35377 5.09622,-2.77881c2.46871,-0.55398 5.04393,-0.15342 7.15002,1.11216c0.33269,0.18936 0.65589,0.39293 0.96862,0.61012c1.78388,1.25142 3.16958,2.94066 4.01333,4.89251c0.44423,1.00061 0.78362,2.04219 1.01336,3.1101l-14.72897,3.25347c0.27653,1.0112 0.65238,1.99349 1.12269,2.93419c0.7568,1.48984 1.72139,2.69488 2.89379,3.61516c0.5638,0.45108 1.18705,0.83177 1.8551,1.13315c1.21004,0.55641 2.59544,0.69838 3.92533,0.40227c2.30522,-0.5092 3.95967,-2.1054 4.96335,-4.7886c0.07065,-0.18869 0.13691,-0.37874 0.1987,-0.57002zM422.69651,283.03126l-1.1903,-5.38871l30.4442,-6.72479l1.1903,5.38871zM419.97986,270.73254l-1.18459,-5.36283l30.44421,-6.72479l1.18458,5.36283zM470.6901,266.45385l16.0438,-3.5439l1.20745,5.46633l-16.0438,3.5439zM360.16287,291.11177l7.85706,-1.73554c-0.11084,-0.58877 -0.22699,-1.15807 -0.34845,-1.70795c-0.45801,-2.07346 -1.07317,-3.60363 -1.8455,-4.59049c-0.11822,-0.1521 -0.24643,-0.29688 -0.38392,-0.43355c-0.25232,-0.25384 -0.53539,-0.47861 -0.84364,-0.66984c-0.41787,-0.25365 -0.84666,-0.40224 -1.28634,-0.44579c-0.3058,-0.02953 -0.61596,-0.00988 -0.91746,0.05811c-0.58695,0.13472 -1.11252,0.45467 -1.48923,0.90657c-0.22677,0.25833 -0.43104,0.56798 -0.61279,0.92897c-0.132,0.26459 -0.24638,0.53644 -0.34242,0.81387c-0.45087,1.28659 -0.47063,3.12018 -0.05926,5.50078c0.08004,0.46035 0.17071,0.91876 0.27194,1.37486z" fill="#002e25" fill-rule="evenodd" stroke="#000000" stroke-width="0" stroke-linecap="round"/><path d="M478.01273,90.70177l10.72642,2.28397l-2.60882,3.65841l-9.16833,-1.95221l-1.19684,1.83661c1.06816,0.24283 2.11878,0.55584 3.14396,0.93666c2.16584,0.81726 3.81702,1.87313 4.95355,3.16762c1.63466,1.86213 2.21673,3.89809 1.7462,6.10788c-0.18211,0.91451 -0.54804,1.78353 -1.07859,2.56149c-0.72857,1.02701 -1.75351,1.83619 -2.96075,2.33749c-2.10689,0.94748 -4.51628,1.18834 -6.83434,0.6832c-1.21872,-0.2595 -2.24535,-0.61928 -3.0799,-1.07933c-0.22175,-0.12175 -0.43607,-0.25533 -0.64187,-0.40006c-0.21461,-0.149 -0.41374,-0.31687 -0.59454,-0.50122c-0.20388,-0.21133 -0.35527,-0.42758 -0.45416,-0.64874c-0.13916,-0.30817 -0.17519,-0.64607 -0.10324,-0.96814c0.07717,-0.36261 0.28868,-0.68464 0.59768,-0.90999c0.05025,-0.03817 0.10231,-0.07422 0.15604,-0.10806c0.16878,-0.10877 0.35682,-0.18955 0.5562,-0.23893c0.24566,-0.05826 0.50446,-0.05984 0.7545,-0.0046c0.18224,0.04271 0.35862,0.10679 0.52488,0.19071c0.52755,0.25511 1.19998,0.73445 2.01727,1.43802c0.08966,0.07729 0.17872,0.15518 0.26719,0.23366c1.05856,0.9331 1.95341,1.56091 2.68454,1.88345c0.20163,0.09148 0.41273,0.16227 0.62951,0.21107c0.8965,0.20289 1.83177,0.05028 2.58197,-0.42131c0.03933,-0.0237 0.0782,-0.04803 0.11661,-0.07298c0.37956,-0.24168 0.70894,-0.54499 0.97322,-0.89619c0.26671,-0.36211 0.4506,-0.77323 0.54059,-1.20855c0.24708,-1.16579 -0.00285,-2.38928 -0.69699,-3.412c-0.33592,-0.51391 -0.7339,-0.99098 -1.18581,-1.42144c-1.60936,-1.56011 -3.98759,-2.67522 -7.13468,-3.34533c-0.09637,-0.02046 -0.19285,-0.04036 -0.28945,-0.05971c-0.22133,-0.04436 -0.48881,-0.09587 -0.80243,-0.15456c-0.152,-0.0283 -0.30405,-0.05631 -0.45615,-0.08402zM386.36233,86.77876l0.61002,0.12989l-2.51429,5.81697l-13.80906,-2.94035l0.08582,-0.40302c0.12168,-0.09897 0.54054,-0.3844 1.25658,-0.85631c2.12793,-1.41343 3.94569,-2.74032 5.45329,-3.98067c0.686,-0.56117 1.34877,-1.14657 1.98695,-1.75499c1.79289,-1.72024 2.85359,-3.35174 3.18209,-4.89452c0.09943,-0.44756 0.13613,-0.90701 0.1092,-1.36689c-0.0381,-0.65411 -0.24888,-1.29395 -0.61346,-1.86215c-0.54423,-0.86745 -1.44408,-1.49365 -2.4826,-1.72761c-0.05408,-0.01337 -0.10838,-0.02589 -0.16285,-0.03755c-0.65018,-0.14939 -1.32356,-0.16159 -1.97073,-0.03573c-0.72893,0.15144 -1.38711,0.50174 -1.97453,1.0509c-0.24102,0.22736 -0.46086,0.4736 -0.65727,0.7362l-0.52385,-0.29885c1.88126,-3.56241 4.54248,-5.0286 7.98366,-4.39858c0.09238,0.01701 0.1845,0.03535 0.27636,0.05501c0.7672,0.15675 1.50888,0.41774 2.20116,0.7746c0.83063,0.43319 1.55478,1.02911 2.12125,1.7456c0.93985,1.14555 1.33237,2.59429 1.08139,3.99122c-0.01582,0.0981 -0.0341,0.19578 -0.05481,0.29295c-0.30064,1.4119 -1.3328,2.90405 -3.0965,4.47643c-0.00212,0.00189 -0.00424,0.00379 -0.00636,0.00568c-0.62036,0.54621 -1.2699,1.06279 -1.94629,1.54789c-1.40861,1.02085 -3.16157,2.12734 -5.25888,3.31948c-0.35104,0.19939 -0.70347,0.39669 -1.05728,0.59189l5.79664,1.23427c0.41541,0.0919 0.83812,0.14648 1.2623,0.16298c1.31661,0.03975 2.22397,-0.41848 2.72206,-1.37471zM409.4811,76.10938l13.71271,2.91984l-12.12525,19.73719l-2.6012,-0.55387l9.79967,-15.90915l-5.73251,-1.22062c-2.65469,-0.56526 -4.47927,-0.14219 -5.47374,1.26923l-0.62613,-0.13332zM442.36607,83.11155l13.7127,2.91984l-12.12525,19.73719l-2.6012,-0.55387l9.79967,-15.90915l-5.73251,-1.22062c-2.65469,-0.56526 -4.47927,-0.14219 -5.47374,1.26923l-0.62613,-0.13332zM491.69353,93.61481l13.71271,2.91984l-12.12525,19.73719l-2.6012,-0.55387l9.79967,-15.90915l-5.73251,-1.22062c-2.65469,-0.56526 -4.47927,-0.14219 -5.47374,1.26923l-0.62613,-0.13332zM452.75288,107.64222l0.12403,-0.58251c5.26881,0.17701 8.93122,-1.73341 10.98724,-5.73126c0.0957,-0.18609 0.18689,-0.37429 0.2735,-0.56444c-0.60545,0.16239 -1.20986,0.25478 -1.81322,0.27718c-0.60337,0.0224 -1.20486,-0.03024 -1.80446,-0.15791c-1.55284,-0.32009 -2.91725,-1.21638 -3.77695,-2.48109c-0.03051,-0.04276 -0.06053,-0.0858 -0.09007,-0.12914c-0.67412,-0.99814 -1.02224,-2.15237 -1.00026,-3.31643c0.00377,-0.54782 0.06447,-1.09242 0.18125,-1.62613c0.16743,-0.82388 0.45475,-1.61923 0.85403,-2.36414c0.54643,-1.01491 1.35405,-1.88186 2.35239,-2.5252c1.52556,-1.0158 3.45084,-1.38368 5.3199,-1.01654c0.09662,0.0175 0.19296,0.03652 0.28898,0.05706c1.94055,0.38165 3.63705,1.52044 4.65803,3.12675c0.12063,0.18263 0.23397,0.36926 0.33979,0.55949c0.83135,1.50918 1.21448,3.18958 1.1083,4.86095c-0.03207,0.62184 -0.11411,1.23917 -0.24541,1.84677c-0.53833,2.52822 -1.78535,4.65322 -3.74106,6.37501c-1.95575,1.722 -4.01485,2.82617 -6.17729,3.31252c-1.78097,0.40072 -3.86754,0.48928 -6.25971,0.26568c-0.52755,-0.04969 -1.05407,-0.11192 -1.57903,-0.18663zM521.90892,99.67392l-0.12397,0.58221c-1.50533,-0.06906 -3.0062,0.0786 -4.45003,0.43781c-2.94773,0.77112 -5.12724,2.53551 -6.53853,5.29317c-0.09517,0.18622 -0.18582,0.37452 -0.27186,0.56479c0.54181,-0.1559 1.10365,-0.24962 1.67339,-0.27914c0.0471,-0.00226 0.09423,-0.00405 0.1414,-0.00537c0.60233,-0.01751 1.20318,0.03756 1.80257,0.16518c1.36872,0.29072 2.59491,1.02879 3.45537,2.07986c0.12616,0.14824 0.2463,0.30082 0.36015,0.45739c0.6429,0.89364 1.00245,1.93412 1.03562,2.99697c0.03093,0.63181 -0.02939,1.30365 -0.18097,2.01552c-0.16599,0.8161 -0.449,1.60441 -0.84145,2.3438c-0.54485,1.02314 -1.35414,1.89778 -2.35669,2.54698c-1.52193,1.01713 -3.44519,1.38579 -5.31201,1.01822c-0.09675,-0.01741 -0.19322,-0.03636 -0.28938,-0.05682c-1.93122,-0.38504 -3.62169,-1.51361 -4.65187,-3.10562c-0.11694,-0.17339 -0.22738,-0.35044 -0.33112,-0.53079c-0.79695,-1.40195 -1.19077,-2.96489 -1.14174,-4.53117c0.01561,-0.74503 0.10303,-1.48524 0.26123,-2.21163c0.55162,-2.55786 1.95376,-4.86494 4.0083,-6.59524c0.50704,-0.44015 1.04223,-0.85122 1.60279,-1.23106c2.82443,-1.92167 6.47112,-2.62813 10.94007,-2.11938c0.40392,0.04624 0.80693,0.10103 1.20873,0.16435zM436.20145,97.95291c0.20388,-0.98435 0.13346,-2.00863 -0.20455,-2.97535c-0.46309,-1.38231 -1.42825,-2.81643 -2.8955,-4.30239c0.45444,-0.10871 0.9013,-0.24117 1.33852,-0.39679c0.68692,-0.2469 1.27943,-0.53798 1.77754,-0.87324c0.96879,-0.61039 1.64042,-1.55136 1.87733,-2.63019c0.18422,-0.80848 0.09364,-1.65801 -0.25924,-2.43113c-0.23072,-0.49261 -0.5424,-0.95019 -0.92343,-1.35567c-0.61719,-0.66873 -1.36791,-1.21869 -2.2077,-1.6173c-0.70003,-0.33095 -1.43993,-0.57766 -2.20154,-0.73408c-2.13007,-0.45355 -4.01246,-0.36275 -5.64718,0.2724c-0.89415,0.34725 -1.59507,0.84071 -2.10276,1.48037c-0.43433,0.55953 -0.72937,1.20506 -0.86434,1.8911c-0.09782,0.47035 -0.12551,0.95298 -0.0823,1.43431c0.0417,0.46489 0.13306,0.92607 0.27271,1.37661c0.23184,0.76346 0.82613,1.73141 1.78284,2.90387c0.34666,0.42276 0.706,0.83643 1.07756,1.24049c-0.27292,0.03721 -0.54433,0.08218 -0.81386,0.13484c-2.88697,0.56648 -4.55589,1.90844 -5.00675,4.02589c-0.17877,0.84828 -0.09506,1.73376 0.24141,2.5536c0.20823,0.51364 0.48299,1.00302 0.818,1.45692c0.67796,0.93495 1.68194,1.66751 3.01193,2.19769c0.65308,0.2555 1.32787,0.45557 2.01606,0.59773c0.13989,0.0298 0.28022,0.05755 0.42091,0.08323c2.20315,0.40199 4.07198,0.20111 5.60647,-0.60264c0.10073,-0.05278 0.20011,-0.10771 0.29806,-0.16476c1.39674,-0.77008 2.3656,-2.06398 2.66982,-3.56551zM360.698,82.12565c0.87445,-1.592 1.50818,-3.29504 1.88355,-5.0617c0.12801,-0.59622 0.23061,-1.19763 0.30756,-1.80284c0.13944,-1.1123 0.17158,-2.15763 0.09642,-3.13598c-0.07566,-1.15538 -0.34454,-2.29785 -0.7968,-3.38563c-0.15761,-0.37209 -0.34225,-0.73428 -0.55262,-1.08396c-0.87018,-1.53756 -2.42632,-2.64413 -4.23231,-3.00957c-1.46375,-0.32492 -2.98833,-0.11178 -4.25557,0.59493c-0.65028,0.35702 -1.24543,0.79337 -1.77036,1.29799c-0.32712,0.3086 -0.63305,0.6363 -0.91605,0.98124c-0.73428,0.89337 -1.351,1.93366 -1.85016,3.12088c-0.4346,1.0516 -0.76874,2.13955 -0.9986,3.25138c-0.0269,0.12651 -0.05252,0.25329 -0.07686,0.38032c-0.33908,1.72035 -0.41086,3.48469 -0.21317,5.23901c0.09,0.77417 0.24781,1.49246 0.47344,2.15486c0.28489,0.86353 0.72754,1.67825 1.30795,2.40735c0.06405,0.07936 0.12981,0.15752 0.19725,0.23443c0.87027,1.02999 2.09043,1.75203 3.44766,2.04019c0.70928,0.15482 1.43875,0.18986 2.15363,0.10344c0.82816,-0.10859 1.62097,-0.36789 2.33408,-0.76338c0.77076,-0.41936 1.46099,-0.95368 2.04444,-1.58261c0.55673,-0.60243 1.03229,-1.26728 1.41651,-1.98034zM402.4948,91.02542c0.87445,-1.592 1.50818,-3.29504 1.88355,-5.0617c0.1279,-0.59624 0.23039,-1.19768 0.30723,-1.80291c0.13944,-1.1123 0.17169,-2.1576 0.09674,-3.13591c-0.07566,-1.15538 -0.34454,-2.29785 -0.7968,-3.38563c-0.15771,-0.37212 -0.34247,-0.73434 -0.55295,-1.08403c-0.87012,-1.53747 -2.42612,-2.64399 -4.23198,-3.0095c-1.46384,-0.32502 -2.98857,-0.11191 -4.2559,0.59486c-0.65027,0.35703 -1.24543,0.79337 -1.77036,1.29799c-0.32701,0.30863 -0.63283,0.63636 -0.91572,0.98131c-0.7345,0.89332 -1.35133,1.93359 -1.85048,3.12081c-0.43449,1.05163 -0.76853,2.1396 -0.99828,3.25145c-0.0269,0.12651 -0.05252,0.25329 -0.07686,0.38032c-0.33908,1.72035 -0.41086,3.48469 -0.21317,5.23901c0.09,0.77417 0.2477,1.49243 0.47311,2.15479c0.28499,0.86357 0.72775,1.67832 1.30829,2.40742c0.06394,0.07934 0.1296,0.15747 0.19692,0.23435c0.87027,1.02999 2.09043,1.75203 3.44766,2.04019c0.70938,0.15488 1.43897,0.18994 2.15396,0.10351c0.82816,-0.10859 1.62096,-0.36789 2.33407,-0.76338c0.77064,-0.41941 1.46077,-0.95374 2.04411,-1.58268c0.55684,-0.60238 1.03251,-1.26722 1.41684,-1.98027zM292.56471,58.33139l6.40665,1.36416l-2.31766,10.88465c-0.23101,1.08492 -0.27969,1.82636 -0.14602,2.22434c0.13349,0.39772 0.53318,0.68825 1.19907,0.8716l-0.11765,0.55255l-8.04465,-1.71294l0.11765,-0.55255c0.17166,0.03752 0.34549,0.06417 0.52031,0.07978c0.3918,0.03271 0.70419,-0.01371 0.93718,-0.13927c0.06392,-0.03429 0.12304,-0.07567 0.17613,-0.12328c0.31825,-0.28598 0.60031,-1.00628 0.84616,-2.16092l1.60549,-7.53999c0.05098,-0.23708 0.09556,-0.4755 0.13369,-0.71503c0.10827,-0.6904 0.11652,-1.19677 0.02474,-1.51913c-0.01147,-0.0413 -0.02579,-0.08193 -0.04285,-0.12164c-0.0795,-0.17393 -0.20899,-0.32489 -0.37372,-0.43566c-0.24623,-0.1739 -0.59362,-0.3086 -1.04217,-0.40411zM357.50136,76.01356l0.65791,-3.16889c0.11483,-0.53812 0.22064,-1.07813 0.31741,-1.61983c0.09008,-0.50354 0.17039,-1.00882 0.2409,-1.51561c0.134,-0.96728 0.19005,-1.65941 0.16815,-2.07642c-0.00018,-0.00345 -0.00036,-0.0069 -0.00055,-0.01035c-0.00646,-0.12119 -0.01877,-0.2422 -0.0369,-0.36267c-0.03772,-0.24585 -0.09936,-0.44767 -0.18493,-0.60547c-0.12464,-0.22941 -0.30756,-0.43479 -0.54876,-0.61614c-0.19362,-0.14446 -0.41347,-0.25438 -0.64809,-0.32403c-0.06957,-0.02107 -0.14005,-0.03917 -0.21121,-0.05424c-0.3152,-0.07343 -0.64188,-0.08041 -0.95611,-0.02043c-0.63908,0.13307 -1.13855,0.59259 -1.49842,1.37859c-0.12573,0.28715 -0.2358,0.58046 -0.32978,0.87881c-0.48597,1.48368 -1.16075,4.22172 -2.02437,8.21412c-0.07615,0.35212 -0.15172,0.70437 -0.22673,1.05674c-0.13181,0.61639 -0.25661,1.23426 -0.37438,1.8535c-0.34744,1.83729 -0.52223,3.1931 -0.52437,4.06741c-0.00576,0.24606 0.01448,0.49277 0.06043,0.73655c0.18238,0.8354 0.67605,1.36532 1.48101,1.58978c0.05857,0.01621 0.11765,0.0306 0.17713,0.04315c0.2845,0.06567 0.57864,0.07653 0.8643,0.03188c0.39418,-0.06779 0.73241,-0.2614 1.0147,-0.58082c0.15946,-0.18468 0.29305,-0.38796 0.39767,-0.60512c0.1264,-0.26736 0.23591,-0.54181 0.328,-0.82198c0.46785,-1.36202 1.08686,-3.85153 1.85703,-7.46853zM399.29783,84.91326l0.65791,-3.16889c0.11494,-0.53809 0.22087,-1.07808 0.31774,-1.61976c0.09008,-0.50354 0.17039,-1.00882 0.2409,-1.51561c0.13378,-0.96732 0.18972,-1.65948 0.16783,-2.07649c-0.00018,-0.00345 -0.00036,-0.0069 -0.00055,-0.01035c-0.00635,-0.12116 -0.01855,-0.24215 -0.03658,-0.3626c-0.03794,-0.24589 -0.09969,-0.44774 -0.18526,-0.60554c-0.12464,-0.22941 -0.30745,-0.43476 -0.54843,-0.61607c-0.19372,-0.14452 -0.41368,-0.25446 -0.64842,-0.3241c-0.06957,-0.02107 -0.14005,-0.03917 -0.21121,-0.05424c-0.3151,-0.07336 -0.64166,-0.08032 -0.95578,-0.02036c-0.6393,0.13302 -1.13888,0.59252 -1.49875,1.37852c-0.12562,0.28718 -0.23558,0.58051 -0.32946,0.87888c-0.48618,1.48363 -1.16098,4.22167 -2.02438,8.21411c-0.07615,0.35212 -0.15172,0.70437 -0.22673,1.05674c-0.13181,0.61639 -0.25661,1.23426 -0.37438,1.8535c-0.34766,1.83725 -0.52256,3.19303 -0.5247,4.06734c-0.00576,0.24606 0.01448,0.49277 0.06043,0.73655c0.1826,0.83544 0.67638,1.36539 1.48133,1.58985c0.05846,0.01618 0.11743,0.03055 0.1768,0.04308c0.28461,0.06574 0.57886,0.07662 0.86463,0.03195c0.39418,-0.06779 0.73241,-0.2614 1.0147,-0.58082c0.15935,-0.18472 0.29282,-0.38802 0.39734,-0.60519c0.12651,-0.26733 0.23613,-0.54176 0.32832,-0.82191c0.46763,-1.36206 1.08653,-3.8516 1.8567,-7.4686zM317.66483,72.88464l0.66445,-3.12051l17.85555,3.80197l-0.66445,3.12051zM319.18131,65.76265l0.66126,-3.10553l17.85555,3.80197l-0.66126,3.10553zM510.04543,107.77673c-0.11771,0.3191 -0.22376,0.64215 -0.31796,0.96859c-0.09996,0.34354 -0.19567,0.71228 -0.28711,1.10622c-0.03658,0.15767 -0.07171,0.31567 -0.10539,0.47397c-0.1512,0.70296 -0.28119,1.41033 -0.38981,2.12128c-0.19879,1.32107 -0.27293,2.44579 -0.22241,3.37414c0.01246,0.23985 0.03565,0.4794 0.06952,0.71803c0.04138,0.30173 0.10956,0.60044 0.2038,0.89301c0.09861,0.29781 0.2225,0.55551 0.37165,0.77309c0.27325,0.42417 0.72093,0.72673 1.23391,0.83394c0.60245,0.12828 1.12582,-0.01185 1.57008,-0.42037c0.07984,-0.07385 0.15436,-0.15258 0.2231,-0.2357c0.16625,-0.20448 0.30944,-0.42481 0.42741,-0.65761c0.29113,-0.56004 0.53288,-1.29181 0.72526,-2.19529c0.12398,-0.57605 0.23001,-1.15583 0.31795,-1.73862c0.1822,-1.227 0.23388,-2.26189 0.15505,-3.10464c-0.02273,-0.25569 -0.06232,-0.51029 -0.11853,-0.76234c-0.28929,-1.26858 -0.99057,-2.0214 -2.10384,-2.25845c-0.28917,-0.06157 -0.57817,-0.08411 -0.867,-0.06762c-0.21478,0.01306 -0.42682,0.0473 -0.63261,0.10216c-0.08542,0.02248 -0.16983,0.04789 -0.25308,0.07621zM464.60058,99.53605c0.28306,-0.75142 0.52526,-1.59987 0.72658,-2.54535c0.15119,-0.70286 0.28116,-1.41013 0.38974,-2.12098c0.19858,-1.32005 0.27225,-2.44316 0.22104,-3.36932c-0.01258,-0.23915 -0.03592,-0.47799 -0.06998,-0.71588c-0.04153,-0.30071 -0.10981,-0.59838 -0.20412,-0.88989c-0.10121,-0.3039 -0.22885,-0.56602 -0.38292,-0.78636c-0.27462,-0.41548 -0.71757,-0.71103 -1.22355,-0.81639c-0.31725,-0.07399 -0.64794,-0.06042 -0.95159,0.03903c-0.31118,0.10528 -0.59382,0.30796 -0.84792,0.60802c-0.16783,0.20239 -0.31232,0.4211 -0.43116,0.65265c-0.29328,0.55724 -0.53609,1.2875 -0.72843,2.19079c-0.15141,0.70246 -0.2693,1.41177 -0.35331,2.12586c-0.08675,0.75507 -0.12302,1.4673 -0.1088,2.13669c0.00641,0.31688 0.02551,0.63378 0.05725,0.95004c0.15188,1.49419 0.87006,2.37804 2.15455,2.65154c0.29969,0.06381 0.59458,0.08505 0.88468,0.06371c0.27797,-0.02137 0.55118,-0.07406 0.81375,-0.15692c0.01812,-0.00561 0.03618,-0.01136 0.0542,-0.01723zM425.33779,96.31673c-0.00835,0.03786 -0.01653,0.07575 -0.02455,0.11368c-0.07937,0.36506 -0.13638,0.73466 -0.17075,1.10702c-0.07335,0.83741 0.00888,1.54046 0.24667,2.10913c0.01325,0.0316 0.02707,0.063 0.04148,0.09418c0.30451,0.67231 0.90758,1.19279 1.64711,1.42154c0.16016,0.05426 0.32355,0.09899 0.48919,0.13389c0.35932,0.07995 0.72823,0.10639 1.09298,0.07834c0.47075,-0.03957 0.9201,-0.18854 1.30748,-0.43345c0.53222,-0.33412 0.93276,-0.82048 1.14425,-1.38943c0.07409,-0.1902 0.1323,-0.38586 0.17412,-0.58528c0.39734,-1.86609 -0.57341,-3.97735 -2.91225,-6.33379c-0.14666,-0.14767 -0.29555,-0.29339 -0.44662,-0.43712c-1.25593,0.63206 -2.11897,2.00583 -2.58912,4.12129zM432.06885,89.6124c0.33775,-0.21323 0.62639,-0.4867 0.85008,-0.80542c0.48293,-0.66113 0.85513,-1.6057 1.11661,-2.83372c0.25766,-1.21008 0.24788,-2.1791 -0.02933,-2.90704c-0.01676,-0.04407 -0.03474,-0.08776 -0.05392,-0.13103c-0.26345,-0.60932 -0.80223,-1.08365 -1.46744,-1.29186c-0.14368,-0.04904 -0.29035,-0.08934 -0.43907,-0.12066c-0.42486,-0.09577 -0.8645,-0.10109 -1.28612,-0.01558c-0.32633,0.0704 -0.63509,0.19456 -0.91206,0.36677c-0.64422,0.38184 -1.08712,0.99697 -1.22709,1.70423c-0.00061,0.00285 -0.00122,0.00571 -0.00182,0.00856c-0.2946,1.38357 0.59815,3.12927 2.67825,5.23712c0.07637,0.07738 0.15271,0.15479 0.22899,0.23224c0.24854,0.25238 0.41502,0.42251 0.49944,0.51038c0.0146,0.01525 0.02909,0.03059 0.04348,0.04602zM366.49013,84.17056c0.71711,0.15269 1.28817,0.51882 1.71318,1.09838c0.40841,0.54731 0.56213,1.22149 0.42485,1.86322c-0.00421,0.02212 -0.00868,0.04418 -0.0134,0.06619c-0.12604,0.65112 -0.53152,1.21831 -1.1231,1.57102c-0.00968,0.00587 -0.0194,0.01168 -0.02915,0.01745c-0.57962,0.36101 -1.29837,0.48124 -1.99081,0.33302c-0.0113,-0.00234 -0.02259,-0.00475 -0.03387,-0.00721c-0.6889,-0.13914 -1.29583,-0.53325 -1.68095,-1.09151c-0.00658,-0.00914 -0.01311,-0.0183 -0.01958,-0.0275c-0.40432,-0.55835 -0.55308,-1.24 -0.41202,-1.88798c0.00222,-0.01072 0.00449,-0.02142 0.00684,-0.03211c0.1272,-0.64603 0.53169,-1.20794 1.1203,-1.55627c0.00957,-0.00589 0.01918,-0.01173 0.02883,-0.01751c0.32569,-0.20043 0.69691,-0.32955 1.08704,-0.3781c0.30637,-0.0344 0.61842,-0.01783 0.92186,0.04893zM523.384,117.57785c0.71733,0.15274 1.28839,0.51886 1.71318,1.09838c0.40854,0.54729 0.56239,1.2215 0.42518,1.86329c-0.00421,0.02212 -0.00868,0.04418 -0.01341,0.06619c-0.12614,0.65115 -0.53174,1.21832 -1.12343,1.57095c-0.00957,0.00589 -0.01918,0.01173 -0.02882,0.01752c-0.57962,0.36101 -1.29837,0.48124 -1.99081,0.33302c-0.01141,-0.00237 -0.02281,-0.0048 -0.0342,-0.00728c-0.68877,-0.1392 -1.29556,-0.53327 -1.68062,-1.09144c-0.00658,-0.00914 -0.01311,-0.0183 -0.01958,-0.0275c-0.40432,-0.55835 -0.55308,-1.24 -0.41202,-1.88798c0.00211,-0.01074 0.00428,-0.02146 0.00651,-0.03218c0.1272,-0.64603 0.53169,-1.20794 1.1203,-1.55627c0.00968,-0.00587 0.0194,-0.01168 0.02915,-0.01744c0.32559,-0.20041 0.6967,-0.32956 1.08671,-0.37817c0.30637,-0.0344 0.61842,-0.01783 0.92186,0.04893zM532.29583,119.47544c0.71711,0.15269 1.28817,0.51882 1.71317,1.09838c0.40841,0.54731 0.56213,1.22149 0.42485,1.86322c-0.0041,0.02214 -0.00846,0.04423 -0.01308,0.06626c-0.12614,0.65115 -0.53174,1.21832 -1.12343,1.57095c-0.00968,0.00587 -0.0194,0.01168 -0.02915,0.01745c-0.57962,0.36101 -1.29837,0.48124 -1.9908,0.33302c-0.0113,-0.00234 -0.02259,-0.00475 -0.03387,-0.00721c-0.6889,-0.13914 -1.29583,-0.53325 -1.68095,-1.09151c-0.00658,-0.00914 -0.01311,-0.0183 -0.01958,-0.0275c-0.40419,-0.55838 -0.55283,-1.23999 -0.41168,-1.88791c0.00211,-0.01074 0.00428,-0.02146 0.00651,-0.03218c0.1272,-0.64603 0.53169,-1.20794 1.1203,-1.55627c0.00957,-0.00589 0.01918,-0.01173 0.02882,-0.01751c0.32569,-0.20043 0.69692,-0.32955 1.08704,-0.3781c0.30637,-0.0344 0.61842,-0.01783 0.92186,0.04893zM541.20766,121.37303c0.71711,0.15269 1.28817,0.51882 1.71318,1.09838c0.40841,0.54731 0.56213,1.22149 0.42485,1.86322c-0.00421,0.02212 -0.00868,0.04418 -0.01341,0.06619c-0.12614,0.65115 -0.53173,1.21832 -1.12343,1.57095c-0.00957,0.00589 -0.01918,0.01173 -0.02883,0.01752c-0.57962,0.36101 -1.29837,0.48124 -1.9908,0.33302c-0.0113,-0.00234 -0.02259,-0.00475 -0.03387,-0.00721c-0.6889,-0.13914 -1.29583,-0.53325 -1.68095,-1.09151c-0.00658,-0.00914 -0.01311,-0.0183 -0.01958,-0.0275c-0.40432,-0.55835 -0.55308,-1.24 -0.41202,-1.88798c0.00222,-0.01072 0.00449,-0.02142 0.00684,-0.03211c0.1271,-0.64601 0.53147,-1.20793 1.11997,-1.55634c0.00968,-0.00587 0.0194,-0.01168 0.02915,-0.01744c0.32559,-0.20041 0.6967,-0.32956 1.08671,-0.37817c0.30648,-0.03441 0.61865,-0.01782 0.92219,0.049zM299.99305,53.00682c-0.38678,-0.54739 -0.98901,-0.93177 -1.66992,-1.06583c-0.02225,-0.00477 -0.04454,-0.0093 -0.06689,-0.0136c-0.65688,-0.13831 -1.33762,-0.018 -1.88102,0.33242c-0.58127,0.36529 -0.93867,0.86146 -1.07219,1.48852c-0.0011,0.00509 -0.00219,0.01019 -0.00326,0.01529c-0.14051,0.62352 -0.00179,1.28124 0.3842,1.82165c0.39382,0.5678 0.94402,0.92693 1.65061,1.07738c0.01097,0.00229 0.02196,0.00452 0.03295,0.0067c0.66754,0.14464 1.36121,0.03036 1.92129,-0.3165c0.00925,-0.00556 0.01846,-0.01116 0.02764,-0.01681c0.56359,-0.3331 0.95111,-0.87067 1.07331,-1.48892c0.00446,-0.02079 0.00867,-0.04163 0.01262,-0.06252c0.12782,-0.61285 -0.02014,-1.25541 -0.40936,-1.77778z" fill="#002e25" fill-rule="evenodd" stroke="#000000" stroke-width="0" stroke-linecap="round"/><path d="M101.8134,262.35186l13.17043,3.13804l-3.35461,4.54808l-11.25808,-2.68239l-1.54487,2.28592c1.31103,0.3319 2.59786,0.75182 3.85081,1.25661c2.64686,1.08252 4.64907,2.45343 6.00665,4.11276c1.95247,2.38624 2.59825,4.9663 1.93734,7.74015c-0.25791,1.14839 -0.74134,2.23498 -1.42495,3.20281c-0.93716,1.27684 -2.23265,2.27193 -3.74231,2.87457c-2.63729,1.1431 -5.62286,1.38828 -8.4687,0.69545c-1.49617,-0.35649 -2.75158,-0.83462 -3.7662,-1.4344c-0.26974,-0.15882 -0.52987,-0.3324 -0.77906,-0.51986c-0.2598,-0.19299 -0.4998,-0.4094 -0.71655,-0.64612c-0.24424,-0.27155 -0.42347,-0.54789 -0.5377,-0.82903c-0.16084,-0.39178 -0.1932,-0.81854 -0.09271,-1.22274c0.10846,-0.45502 0.38133,-0.85564 0.77113,-1.13212c0.06346,-0.04689 0.12909,-0.09107 0.19669,-0.13242c0.21246,-0.13301 0.4477,-0.23028 0.69582,-0.2877c0.30576,-0.06766 0.62575,-0.06349 0.93288,0.01216c0.22349,0.05823 0.43896,0.14324 0.64124,0.25297c0.64263,0.33429 1.45619,0.95472 2.44068,1.86128c0.10813,0.09961 0.21551,0.19997 0.32212,0.30106c1.27432,1.20168 2.35722,2.01459 3.24869,2.43873c0.24578,0.12031 0.50404,0.21476 0.77011,0.28165c1.10056,0.27746 2.26184,0.10762 3.20581,-0.46886c0.04931,-0.02895 0.09808,-0.05871 0.1463,-0.08927c0.47767,-0.29543 0.89556,-0.66976 1.23472,-1.10603c0.3427,-0.44989 0.58485,-0.96359 0.71184,-1.51009c0.34702,-1.46336 0.08208,-3.01139 -0.73884,-4.31707c-0.39649,-0.65598 -0.87101,-1.26704 -1.41387,-1.82066c-1.93229,-2.00529 -4.83057,-3.46828 -8.69485,-4.389c-0.11834,-0.02812 -0.23682,-0.05554 -0.35548,-0.08227c-0.27187,-0.06126 -0.6005,-0.13267 -0.98588,-0.21421c-0.18679,-0.03935 -0.37364,-0.07832 -0.56058,-0.11693zM51.8274,270.22801l0.74903,0.17847l-3.31594,7.27093l-16.95597,-4.04l0.12054,-0.5059c0.15391,-0.1218 0.6817,-0.47143 1.5834,-1.04891c2.68004,-1.73003 4.97376,-3.35848 6.88112,-4.88537c0.86779,-0.6907 1.70775,-1.41252 2.51816,-2.16395c2.27707,-2.12458 3.64634,-4.15528 4.10782,-6.09212c0.13896,-0.56171 0.20085,-1.1399 0.18413,-1.72019c-0.02352,-0.82518 -0.2608,-1.63656 -0.69062,-2.36142c-0.64117,-1.10675 -1.73058,-1.91796 -3.0055,-2.238c-0.06624,-0.018 -0.13276,-0.03493 -0.19955,-0.05079c-0.79803,-0.20422 -1.62969,-0.23605 -2.43397,-0.09318c-0.90581,0.17331 -1.73166,0.59904 -2.47756,1.27719c-0.30597,0.28073 -0.58646,0.58578 -0.83859,0.91201l-0.63649,-0.38935c2.45269,-4.44483 5.79355,-6.22846 10.02256,-5.35091c0.11355,0.02355 0.22675,0.04876 0.33957,0.07563c0.94241,0.21611 1.84955,0.56304 2.69217,1.02963c1.01053,0.5661 1.88366,1.33468 2.55767,2.25137c1.11999,1.46658 1.55283,3.30208 1.19244,5.05671c-0.02311,0.1234 -0.04923,0.2462 -0.07836,0.3683c-0.42222,1.77204 -1.75123,3.62778 -3.98703,5.56722c-0.00266,0.00221 -0.00531,0.00441 -0.00797,0.00662c-0.78603,0.6736 -1.60707,1.30916 -2.46015,1.90438c-1.77743,1.25254 -3.98324,2.60462 -6.61742,4.05623c-0.44091,0.24282 -0.88346,0.48299 -1.32762,0.72046l7.11762,1.69587c0.50991,0.12601 1.0302,0.20515 1.55368,0.23633c1.62564,0.08176 2.76326,-0.47398 3.41283,-1.66724zM-5.8986,250.5125l0.17413,-0.73082c1.92757,0.12909 3.49128,-0.18168 4.69111,-0.93231c0.46035,-0.28242 0.87587,-0.6256 1.23463,-1.01966c0.48316,-0.53409 0.82109,-1.17505 0.9849,-1.86809c0.28583,-1.19961 0.08794,-2.29314 -0.59365,-3.28058c-0.59629,-0.86425 -1.48663,-1.50767 -2.51546,-1.81785c-0.15757,-0.05061 -0.31708,-0.09511 -0.47814,-0.13339c-1.00084,-0.25706 -2.04904,-0.25754 -3.03787,-0.0014c-0.82183,0.22198 -1.59439,0.63715 -2.31767,1.24551c-0.22822,0.19268 -0.44517,0.39717 -0.6499,0.61259l-0.66075,-0.37525c0.72404,-0.99372 1.5888,-1.88527 2.57038,-2.65001c2.22953,-1.75241 5.23695,-2.33829 8.06144,-1.57047c0.76305,0.17577 1.50193,0.44273 2.19901,0.7945c0.95778,0.48259 1.78843,1.17129 2.42478,2.01041c0.43543,0.56348 0.76253,1.1952 0.96556,1.86473c0.24024,0.83277 0.25697,1.70536 0.04859,2.53619c-0.34423,1.46662 -1.3547,2.697 -2.75907,3.35953c-0.59382,0.30497 -1.27803,0.55353 -2.05264,0.74565c-0.08088,0.01999 -0.16199,0.0392 -0.2433,0.05763c0.98581,0.65448 1.82663,1.49075 2.47133,2.45795c0.21336,0.31501 0.4092,0.64033 0.58666,0.97456c0.69294,1.30354 0.92699,2.77791 0.66664,4.19927c-0.03091,0.18707 -0.06837,0.37295 -0.11231,0.55734c-0.53034,2.25119 -1.9548,4.1997 -3.97606,5.43881c-0.30879,0.19887 -0.62682,0.38456 -0.95318,0.55656c-1.91259,0.99756 -4.09544,1.44716 -6.29306,1.29616c-1.04205,-0.06085 -2.07798,-0.21587 -3.09388,-0.46296c-0.55745,-0.13087 -1.10866,-0.28697 -1.65173,-0.46778c-1.28426,-0.43282 -2.25338,-0.95254 -2.90738,-1.55914c-0.91002,-0.8442 -1.26084,-1.7036 -1.05244,-2.57824c0.06523,-0.29112 0.19813,-0.56311 0.38895,-0.79605c0.16006,-0.1898 0.35636,-0.34866 0.57888,-0.46849c0.22451,-0.12624 0.47091,-0.2142 0.72848,-0.26004c0.28016,-0.04719 0.56898,-0.03645 0.8472,0.0315c0.77528,0.18472 1.63114,0.87715 2.56758,2.07729c0.34192,0.45012 0.70971,0.882 1.10165,1.29359c0.80699,0.83965 1.59247,1.41377 2.35644,1.72235c0.17934,0.07286 0.3641,0.1322 0.55255,0.17748c0.93884,0.22345 1.92232,0.12954 2.78189,-0.26565c0.1534,-0.06727 0.30332,-0.14132 0.44929,-0.22191c0.93916,-0.51448 1.62906,-1.35689 1.92875,-2.35509c0.04463,-0.13687 0.08362,-0.27547 0.11692,-0.41549c0.35716,-1.51076 0.16993,-3.10405 -0.53164,-4.52406c-0.17031,-0.36005 -0.36349,-0.71019 -0.57844,-1.04845c-1.17804,-1.86373 -2.93511,-3.3363 -5.01911,-4.20643zM9.74248,256.39795l0.92881,-3.89823l8.91165,2.12332l2.0184,-8.47124l4.1013,0.97719l-2.01839,8.47124l8.91165,2.12333l-0.9288,3.89823l-8.91165,-2.12333l-2.0184,8.47125l-4.1013,-0.97719l2.01839,-8.47125zM-9.83743,235.03641l-0.26796,1.12464c-3.87026,0.74849 -6.84854,4.33256 -8.93483,10.7522c-0.39172,1.21579 -0.73447,2.44645 -1.02753,3.68934c-1.05691,4.43586 -1.45551,8.05019 -1.19582,10.84301c0.0165,0.17757 0.03613,0.35494 0.05887,0.53201c0.11047,0.91846 0.32876,1.82444 0.65073,2.70075c0.51412,1.3656 1.28137,2.49974 2.30177,3.40241c0.14623,0.12937 0.29722,0.2537 0.45269,0.37273l-0.27235,1.14306c-2.11022,-1.23714 -3.85994,-2.97039 -5.07733,-5.02952c-0.63514,-1.05248 -1.16558,-2.15798 -1.58416,-3.3016c-1.41225,-3.77972 -1.65248,-7.84547 -0.69137,-11.70153c0.61595,-2.70472 1.80177,-5.24959 3.48592,-7.4811c0.78559,-1.02591 1.67597,-1.97369 2.65846,-2.82981c0.98824,-0.87508 2.06404,-1.6558 3.21266,-2.33149c2.05837,-1.19237 4.13513,-1.82073 6.23026,-1.88509zM95.31001,260.08925l-0.26796,1.12464c-3.87027,0.74849 -6.84867,4.33253 -8.93523,10.75211c-0.39159,1.21582 -0.73421,2.44652 -1.02712,3.68943c-1.05691,4.43586 -1.45552,8.05019 -1.19582,10.84301c0.01637,0.17753 0.03587,0.35486 0.05846,0.53191c0.11059,0.91851 0.32901,1.82452 0.65113,2.70085c0.51385,1.36554 1.28111,2.49967 2.30178,3.40241c0.14623,0.12937 0.29723,0.25369 0.4527,0.37273l-0.27236,1.14307c-2.11038,-1.23712 -3.86025,-2.9704 -5.07773,-5.02962c-0.63514,-1.05248 -1.16558,-2.15798 -1.58416,-3.30161c-1.41226,-3.77972 -1.65248,-7.84546 -0.69137,-11.70153c0.61609,-2.70472 1.80204,-5.24956 3.48632,-7.48101c0.78546,-1.02594 1.67571,-1.97374 2.65806,-2.82991c0.98824,-0.87508 2.06403,-1.6558 3.21265,-2.33149c2.05864,-1.1923 4.13553,-1.82064 6.23067,-1.88499zM69.45022,255.11628l0.26796,-1.12464c1.57385,0.87235 2.93831,2.05693 3.99894,3.47174c0.9814,1.27413 1.82745,2.79156 2.53815,4.5523c1.51758,3.7759 1.82194,7.87493 0.87354,11.7644c-0.01584,0.0691 -0.032,0.13813 -0.04849,0.20709c-0.9407,3.94813 -2.91034,7.3178 -5.90895,10.10903c-1.06709,1.00876 -2.25695,1.89195 -3.54529,2.6315c-1.85319,1.07407 -3.96004,1.69974 -6.14234,1.8241l0.27235,-1.14306c1.54043,-0.2989 2.95244,-1.00657 4.07578,-2.04269c0.65681,-0.58607 1.26907,-1.28957 1.83676,-2.1105c0.01838,-0.02654 0.03666,-0.05315 0.05486,-0.07981c0.58052,-0.86662 1.08793,-1.77702 1.51754,-2.7228c0.98121,-2.1183 1.85083,-4.76819 2.60887,-7.94968c0.42257,-1.73336 0.73688,-3.49146 0.94126,-5.26506c0.40646,-3.71657 0.09126,-6.71393 -0.94563,-8.99209c-0.53001,-1.20534 -1.35133,-2.2785 -2.39531,-3.12981zM140.92193,272.14543l0.26796,-1.12464c1.57385,0.87236 2.93831,2.05694 3.99894,3.47174c0.98139,1.27413 1.82745,2.79156 2.53815,4.5523c1.51758,3.7759 1.82194,7.87492 0.87353,11.7644c-0.01584,0.0691 -0.032,0.13813 -0.04849,0.20708c-0.9407,3.94813 -2.91035,7.31781 -5.90895,10.10904c-1.06708,1.00876 -2.25695,1.89194 -3.54529,2.6315c-1.85319,1.07407 -3.96004,1.69973 -6.14234,1.82409l0.27236,-1.14306c1.54043,-0.2989 2.95244,-1.00657 4.07578,-2.04269c0.65681,-0.58607 1.26907,-1.28957 1.83676,-2.1105c0.01838,-0.02654 0.03666,-0.05315 0.05486,-0.07981c0.58052,-0.86662 1.08792,-1.77702 1.51753,-2.7228c0.98121,-2.1183 1.85084,-4.76819 2.60887,-7.94968c0.42257,-1.73336 0.73688,-3.49145 0.94126,-5.26506c0.40646,-3.71657 0.09126,-6.71394 -0.94563,-8.9921c-0.53001,-1.20534 -1.35133,-2.2785 -2.39532,-3.12981zM56.44076,260.57246l7.86665,1.87434l-3.2554,13.663c-0.32448,1.36185 -0.41145,2.29516 -0.26089,2.79993c0.15062,0.50452 0.63396,0.8805 1.45005,1.12795l-0.16517,0.69321l-9.87752,-2.35346l0.16516,-0.69321c0.21065,0.05127 0.42437,0.08891 0.63969,0.11266c0.48291,0.0507 0.87056,-0.00026 1.16295,-0.15288c0.08021,-0.04167 0.15475,-0.0924 0.22206,-0.15112c0.40351,-0.35275 0.77793,-1.2538 1.12326,-2.70317l2.25507,-9.46461c0.07166,-0.29755 0.13546,-0.59695 0.19132,-0.8979c0.15863,-0.86756 0.18705,-1.5056 0.08526,-1.91412c-0.01286,-0.05224 -0.02925,-0.1037 -0.04906,-0.15407c-0.09197,-0.22114 -0.24653,-0.41454 -0.44606,-0.55814c-0.29765,-0.22532 -0.72185,-0.40361 -1.27262,-0.53484zM127.91248,277.60159l7.86664,1.87434l-3.2554,13.663c-0.32448,1.36185 -0.41145,2.29516 -0.2609,2.79993c0.15061,0.50452 0.63396,0.8805 1.45005,1.12795l-0.16517,0.69321l-9.87752,-2.35345l0.16516,-0.69321c0.21065,0.05127 0.42436,0.08891 0.63969,0.11266c0.48291,0.0507 0.87056,-0.00025 1.16295,-0.15287c0.08021,-0.04167 0.15474,-0.0924 0.22205,-0.15112c0.40351,-0.35275 0.77794,-1.2538 1.12327,-2.70317l2.25508,-9.46461c0.07153,-0.29759 0.13518,-0.59701 0.19092,-0.89799c0.1589,-0.8675 0.18745,-1.50551 0.08566,-1.91403c-0.01287,-0.05224 -0.02925,-0.1037 -0.04906,-0.15406c-0.09196,-0.22114 -0.24653,-0.41455 -0.44606,-0.55815c-0.29764,-0.22532 -0.72185,-0.4036 -1.27262,-0.53483zM113.25171,281.41702l11.55365,2.75282l-0.94673,3.97347l-11.55366,-2.75282zM65.81012,254.04089c-0.4581,-0.69917 -1.18819,-1.19816 -2.0245,-1.38366c-0.02748,-0.00645 -0.05504,-0.01261 -0.08265,-0.01848c-0.80644,-0.19016 -1.65164,-0.05509 -2.33557,0.37321c-0.73134,0.44636 -1.19079,1.06309 -1.37833,1.85021c-0.00158,0.00652 -0.00313,0.01305 -0.00466,0.01958c-0.19591,0.78238 -0.04816,1.61458 0.40922,2.30492c0.46615,0.72518 1.13289,1.1911 2.00023,1.39776c0.01361,0.00318 0.02724,0.00629 0.04088,0.00933c0.81958,0.19844 1.68076,0.0712 2.38524,-0.35245c0.01162,-0.00678 0.02322,-0.01362 0.03476,-0.02052c0.70834,-0.4062 1.20648,-1.07439 1.37972,-1.85069c0.00622,-0.02596 0.01214,-0.05201 0.01776,-0.07811c0.18005,-0.76953 0.02024,-1.58321 -0.4421,-2.2511zM137.28184,271.07003c-0.45818,-0.69928 -1.18843,-1.19833 -2.0249,-1.38376c-0.02735,-0.00642 -0.05477,-0.01254 -0.08224,-0.01838c-0.80643,-0.19016 -1.65164,-0.0551 -2.33557,0.37321c-0.73162,0.44629 -1.19118,1.063 -1.37873,1.85012c-0.00144,0.00655 -0.00286,0.01311 -0.00426,0.01967c-0.19591,0.78238 -0.04816,1.61458 0.40922,2.30491c0.46615,0.72518 1.13289,1.1911 2.00024,1.39776c0.01361,0.00318 0.02723,0.0063 0.04087,0.00934c0.81947,0.19831 1.68048,0.07103 2.38484,-0.35255c0.01176,-0.00675 0.02348,-0.01355 0.03516,-0.02042c0.70834,-0.4062 1.20648,-1.0744 1.37972,-1.85069c0.00622,-0.02596 0.01214,-0.05201 0.01776,-0.07811c0.18005,-0.76954 0.02024,-1.58321 -0.4421,-2.2511z" fill="#002e25" fill-rule="evenodd" stroke="#000000" stroke-width="0" stroke-linecap="round"/><g fill="#002e25" fill-rule="nonzero" stroke="#000000" stroke-width="0" stroke-linecap="butt"><path d="M305.16504,52.59319l4.28613,0.91264l-1.55054,7.28197c-0.15455,0.72583 -0.18712,1.22185 -0.09769,1.48811c0.08931,0.26608 0.3567,0.46045 0.80219,0.58311l-0.07871,0.36966l-5.38197,-1.14598l0.07871,-0.36966c0.11485,0.0251 0.23114,0.04293 0.3481,0.05338c0.26212,0.02188 0.47111,-0.00917 0.62699,-0.09318c0.04276,-0.02294 0.08231,-0.05063 0.11783,-0.08248c0.21292,-0.19132 0.40162,-0.67321 0.5661,-1.44568l1.07409,-5.04434c0.03411,-0.15861 0.06393,-0.31812 0.08944,-0.47837c0.07243,-0.46189 0.07795,-0.80065 0.01655,-1.01631c-0.00768,-0.02763 -0.01725,-0.05481 -0.02866,-0.08138c-0.05318,-0.11636 -0.13982,-0.21735 -0.25002,-0.29146c-0.16473,-0.11634 -0.39714,-0.20646 -0.69723,-0.27036z"/><path d="M310.13468,49.031c0.2604,0.34947 0.35938,0.77935 0.27386,1.18935c-0.00264,0.01398 -0.00545,0.02792 -0.00844,0.04183c-0.08175,0.41362 -0.34101,0.77325 -0.71806,0.99611c-0.00614,0.00378 -0.0123,0.00753 -0.01849,0.01125c-0.3747,0.23206 -0.83877,0.30851 -1.28537,0.21175c-0.00735,-0.00146 -0.0147,-0.00296 -0.02204,-0.00449c-0.47271,-0.10066 -0.84081,-0.34091 -1.10428,-0.72078c-0.25823,-0.36154 -0.35104,-0.80156 -0.25703,-1.2187c0.00072,-0.00341 0.00144,-0.00682 0.00218,-0.01023c0.08932,-0.41951 0.32844,-0.75145 0.71731,-0.99584c0.36354,-0.23443 0.81896,-0.31492 1.25842,-0.22239c0.01495,0.00288 0.02987,0.0059 0.04475,0.00909c0.45553,0.08969 0.85844,0.34685 1.1172,0.71306z"/></g><g fill="#002e25" fill-rule="nonzero" stroke="#000000" stroke-width="0" stroke-linecap="butt"><path d="M386.53671,265.22819l5.35102,-1.39015l2.36179,9.09118c0.23541,0.90616 0.47872,1.48418 0.72993,1.73409c0.25098,0.24978 0.6624,0.31811 1.23427,0.20499l0.1199,0.46151l-6.71913,1.74556l-0.11989,-0.4615c0.14375,-0.03652 0.28501,-0.08206 0.42287,-0.1363c0.30809,-0.12329 0.52634,-0.27632 0.65479,-0.4591c0.0353,-0.05003 0.06428,-0.10359 0.08638,-0.15958c0.1322,-0.33607 0.07304,-0.98629 -0.1775,-1.95067l-1.63606,-6.29762c-0.05107,-0.1982 -0.10747,-0.39501 -0.16916,-0.59021c-0.17904,-0.56201 -0.36408,-0.94733 -0.55511,-1.15599c-0.02426,-0.02684 -0.05041,-0.0521 -0.07829,-0.07563c-0.1257,-0.10125 -0.28046,-0.16629 -0.44664,-0.18768c-0.25153,-0.03826 -0.56463,-0.00873 -0.93927,0.0886z"/><path d="M390.13253,258.40347c0.49109,0.24728 0.84546,0.6764 0.98046,1.18725c0.00491,0.01726 0.00961,0.03458 0.01409,0.05196c0.14128,0.51281 0.05182,1.06494 -0.24777,1.52924c-0.0048,0.00773 -0.00962,0.01543 -0.01451,0.02312c-0.29174,0.47336 -0.77216,0.82161 -1.33066,0.96457c-0.00912,0.0025 -0.01826,0.00497 -0.0274,0.00738c-0.59016,0.15332 -1.14111,0.09007 -1.65282,-0.18976c-0.49546,-0.26211 -0.84859,-0.70616 -0.97804,-1.22987c-0.00112,-0.00425 -0.00222,-0.00852 -0.00332,-0.01278c-0.13606,-0.52373 -0.0537,-1.03324 0.24707,-1.52851c0.27781,-0.46974 0.74619,-0.81767 1.29425,-0.96138c0.01849,-0.0052 0.03703,-0.0102 0.05562,-0.015c0.56459,-0.15599 1.16434,-0.09332 1.66304,0.17376z"/></g><path d="M372.42785,272.34795c0,0 -0.14191,-3.80461 2.64286,-4.5c1.43651,-0.35871 5.84291,-1.36612 8.14189,-1.88947c0.86338,-0.19655 1.42954,-0.32482 1.42954,-0.32482l0.42858,1.92857l-3,0.64285c0,0 0.47373,8.98487 2.78571,8.42858c1.1273,-0.27125 1.5,-2.07143 1.5,-2.07143l0.37143,-0.1c0,0 0.63149,4.73949 -2.58571,4.52857c-0.96509,-0.06327 -1.6889,-0.06601 -2.23171,-1.09603c-1.56581,-2.97123 -1.62543,-9.26111 -1.62543,-9.26111l-2.92857,0.57142c0,0 0.66204,3.16336 0.81001,6.06992c0.23923,4.69906 -0.03731,5.37718 -1.5243,5.43008c-2.06493,0.07346 -1.33866,-1.50107 -0.85714,-3.35714c1.2926,-4.98248 0.35714,-7.71428 0.35714,-7.71428c0,0 -1.18504,-0.1444 -2.31336,0.89619c-0.83246,0.76773 -0.88784,1.83601 -0.88784,1.83601z" fill="#002e25" fill-rule="nonzero" stroke="#ffffff" stroke-width="0" stroke-linecap="round"/></g></g></svg>