<svg xmlns="http://www.w3.org/2000/svg" xmlns:html="http://www.w3.org/1999/xhtml" xmlns:xlink="http://www.w3.org/1999/xlink" version="1.1" width="169.29629516601562" height="64"><style xmlns="http://www.w3.org/1999/xhtml">
    .blocklyText {
        fill: #fff;
        font-family: "Helvetica Neue", Helvetica, sans-serif;
        font-size: 12pt;
        font-weight: 500;
    }
    .blocklyNonEditableText&gt;text, .blocklyEditableText&gt;text {
        fill: #575E75;
    }
    .blocklyDropdownText {
        fill: #fff !important;
    }
    </style><g data-id="mF8(ca;Fw0(ao|`nvqdN" class="blocklyDraggable blocklySelected" data-shapes="stack" data-category="ZIP" transform="translate(0,0) "><path class="blocklyPath blocklyBlockBackground" stroke="#666600" fill="#a49a3a" fill-opacity="1" d="m 0,4 A 4,4 0 0,1 4,0 H 12 c 2,0 3,1 4,2 l 4,4 c 1,1 2,2 4,2 h 12 c 2,0 3,-1 4,-2 l 4,-4 c 1,-1 2,-2 4,-2 H 165.29629516601562 a 4,4 0 0,1 4,4 v 48  a 4,4 0 0,1 -4,4 H 48   c -2,0 -3,1 -4,2 l -4,4 c -1,1 -2,2 -4,2 h -12 c -2,0 -3,-1 -4,-2 l -4,-4 c -1,-1 -2,-2 -4,-2 H 4 a 4,4 0 0,1 -4,-4 z"></path><g transform="translate(8, 12) "><image height="40px" width="40px" xlink:href="data:image/svg+xml,%3Csvg%20xmlns%3D%22http%3A%2F%2Fwww.w3.org%2F2000%2Fsvg%22%20width%3D%2230%22%20height%3D%2230%22%3E%3Cg%20style%3D%22transform%3A%20translateY(-2px)%3B%22%3E%3Crect%20width%3D%2223%22%20height%3D%2220%22%20x%3D%226%22%20y%3D%223%22%20rx%3D%224%22%20ry%3D%224%22%20style%3D%22font-variation-settings%3Anormal%3Bfill%3A%23d8d86c%3Bfill-opacity%3A1%3Bstroke%3A%237d7d23%3Bstroke-width%3A2%3Bstroke-linecap%3Abutt%3Bstroke-linejoin%3Amiter%3Bstroke-miterlimit%3A4%3Bstroke-dasharray%3Anone%3Bstroke-dashoffset%3A0%3Bstroke-opacity%3A1%3Bpaint-order%3Astroke%20markers%20fill%3Bstop-color%3A%23000%22%2F%3E%3Crect%20width%3D%2228%22%20height%3D%2220%22%20x%3D%221%22%20y%3D%228%22%20rx%3D%224%22%20ry%3D%224%22%20style%3D%22font-variation-settings%3Anormal%3Bopacity%3A1%3Bfill%3A%23d8d86c%3Bfill-opacity%3A1%3Bstroke%3A%237d7d23%3Bstroke-width%3A2%3Bstroke-linecap%3Abutt%3Bstroke-linejoin%3Amiter%3Bstroke-miterlimit%3A4%3Bstroke-dasharray%3Anone%3Bstroke-dashoffset%3A0%3Bstroke-opacity%3A1%3Bpaint-order%3Astroke%20markers%20fill%3Bstop-color%3A%23000%3Bstop-opacity%3A1%22%2F%3E%3Cpath%20fill%3D%22%237d7d23%22%20d%3D%22M5%2012V8h4v4Zm3%204v-4h4v4Zm-3%204v-4h4v4Zm3%204v-4h4v4zm-3%204v-4h4v4Z%22%20style%3D%22mix-blend-mode%3Anormal%22%2F%3E%3Cpath%20fill%3D%22%237d7d23%22%20stroke%3D%22%237d7d23%22%20stroke-width%3D%22.1%22%20d%3D%22M10%207V5h2v2zm1-2V3h2v2z%22%20style%3D%22mix-blend-mode%3Anormal%22%2F%3E%3Ctext%20xml%3Aspace%3D%22preserve%22%20x%3D%2214.5%22%20y%3D%2224.8%22%20style%3D%22font-weight%3A700%3Bfont-size%3A19.4304px%3Bfont-family%3AConsolas%3B-inkscape-font-specification%3A%26quot%3BConsolas%2C%20Bold%26quot%3B%3Bfont-variation-settings%3Anormal%3Bopacity%3A1%3Bfill%3A%23fff%3Bfill-opacity%3A1%3Bstroke%3A%237d7d23%3Bstroke-width%3A2%3Bstroke-linecap%3Abutt%3Bstroke-linejoin%3Amiter%3Bstroke-miterlimit%3A4%3Bstroke-dasharray%3Anone%3Bstroke-dashoffset%3A0%3Bstroke-opacity%3A1%3Bpaint-order%3Astroke%20markers%20fill%3Bstop-color%3A%23000%3Bstop-opacity%3A1%22%20transform%3D%22scale(1.033%20.968)%22%3E%3Ctspan%20x%3D%2214.5%22%20y%3D%2224.8%22%20style%3D%22stroke-width%3A2%22%3EZ%3C%2Ftspan%3E%3C%2Ftext%3E%3C%2Fg%3E%3C%2Fsvg%3E" xmlns:xlink="http://www.w3.org/1999/xlink"></image></g><g transform="translate(56, 8) "><line stroke="#7d7d23" stroke-linecap="round" x1="0" y1="0" x2="0" y2="40"></line></g><text class="blocklyText" y="2" text-anchor="middle" dominant-baseline="middle" dy="0" x="48.14814758300781" transform="translate(65, 28) ">close archive</text></g></svg>