<svg xmlns="http://www.w3.org/2000/svg" width="600" height="300"><path fill="#c566ff" d="M0 300V0h600v300z" style="mix-blend-mode:normal;stroke-linejoin:miter;stroke-miterlimit:10;stroke-dasharray:none;stroke-dashoffset:0"/><g fill="#fff" fill-rule="evenodd" data-paper-data="{&quot;index&quot;:null}" style="mix-blend-mode:normal;stroke-linejoin:miter;stroke-miterlimit:10;stroke-dasharray:none;stroke-dashoffset:0"><path fill-opacity=".733" d="M207.731-14.683c-7.803-25.58 120.255 30.398 145.132 49.937 24.877 19.541 15.297 42.405-2.71 33.539-18.008-8.864-27.219 4.095-7.648 19.177 29.252 22.543 9.21 37.108-16.197 26.802-42.162-17.105-121.826-75.618-116.666-87.203 5.16-11.583 77.301 32.14 76.037 12.424-1.263-19.714-71.05-32.073-77.948-54.676Zm131.683-.752c3.251-14.883 69.781 12.83 90.495 39.57 23.408 30.226-13.524 48.207-32.843 19.383-22.728-33.913-60.039-48.023-57.652-58.953Zm216.524.78c29.21 28.334 75.604 46.23 54.227 61.867-22.025 16.112-64.266-32.322-61.551-8.33 2.764 24.416 72.414 42.849 43.45 48.884-28.967 6.035-82.07-17.503-117.043-49.49-34.973-31.986-13.85-41.747 13.248-27.16 22.424 12.072 45.258 1.813 21.876-18.405-33.003-28.535-50.364-65.734-30.927-66.69 18.707-.92 45.272 28.815 76.72 59.324zM203.483 76.052c-5.746 28.097-39.416-11.361-52.694-18.71-20.963-11.6-32.224 2.2-8.806 17.15 11.998 7.66 7.618 21.233-13.396 16.11-14.489-3.532-38.946-11.23-67.861-25.908-37.004-18.782-40.428-45.422 3.4-27.99 13.25 5.272 34.787-2.952 14.431-12.71-42.1-20.185-75.99-29.606-73.85-42.078 2.156-12.545 52.392-6.905 105.825 7.6 53.156 14.43 96.502 69.164 92.95 86.536zM223.04 90.98c8.654 3.462 10.59 13.351 3.684 17.494-6.906 4.143-19.334 1.382-19.334-5.986 0-7.365 3.224-16.482 15.65-11.508zm349.704 31.422c8.353 19.337-27.118 17.669-44.137 23.217-16.925 5.52 20.744 10.359 20.32 28.215-.373 15.773-25.343 22.376-57.45 19.784-31.514-2.544-42.792-15.075-38.033-25.98 5.725-13.12 37.23 1.521 37.886-4.565 1.186-10.96-42.214-14.622-61.05-27.398-22.534-15.286-2.537-30.13 16.126-21.324 32.627 15.396 57.771 5.147 37.998-2.543-19.776-7.688-32.41-10.837-36.544-22.787-4.136-11.95 13.288-27.522 27.503-14.774 39.51 35.432 92.641 37.185 97.38 48.154zM400.77 89.172c3.699 5.524 13.387 15.11 9.102 18.813-4.286 3.702-18.878 4.173-27.622-5.95-6.744-7.806-6.547-13.433-.202-17.845 8.17-5.68 15.022-.54 18.722 4.983zm-18.332 55.83c16.524 3.95 34.602 17.092 39.641 30.747 9.46 25.625 24.27 36.814 40.754 41.467 25.334 7.15-2.907 32.88-38.327 15.17-7.804-3.902-22.572-14.457-25.686-22.148-5.157-12.744-13.955-6.428-7.963 3.54 17.104 28.45-22.982 21.239-26.182-19.513-1.711-21.78-23.497-21.754-32.6-32.878-8.425-10.301 12.743-25.379 50.363-16.385zm112.093 82.581c10.676-13.65 45.786 6.523 85.687-30.718 28.006-26.138 55.29 2.775 22.676 19.773-18.988 9.896-31.68 24.269-17.017 23.264 14.664-1.003 29.164-10.042 35.024 3.385 5.192 11.897-17.676 27.126-48.53 23.81-16.34-1.757-26.803 10.418-12.083 14.639 39.469 11.31-6.447 29.014-57.955 11.967-33.525-11.097-37.989-33.75-8.492-33.443 29.495.306 63.022-2.474 46.752-7.951-16.27-5.477-60.323-6.495-46.063-24.726zM346.589 271.78c-7.805-15.937-19.785-46.504-7.638-53.993 17.664-10.895 18.9 41.281 71.796 46.05 42.933 3.87 36.077 23.969 24.515 26.642-11.563 2.676-36.526-9.28-30.458 5.396 6.069 14.676-37.16 18.9-58.215-24.095zM30.808 77.208c22.106 3.797 103.599 44.931 90.312 66.077-13.286 21.145-43.213-15.605-49.332-6.744-14.089 20.4 64.15 29.675 67.055 49.005 2.903 19.33-63.538 6.948-93.95-15.974-30.411-22.92-49.711-47.542-23.814-49.426 25.894-1.883-9.56-21.109-18.664-27.137-14.682-9.72-6.872-21.862 28.392-15.801ZM260.33 113.43c27.242 23.056 56.698 18.092 56.29 33.813-.528 20.285-27.805 8.61-30.687 16.896-3.65 10.5 53.354 22.104 38.125 39.617-15.735 18.1-60.187-9.77-66.026.726-7.954 14.304 55.963 10.249 49.896 32.388-7.794 28.466-122.196-24.8-140.102-40.179-17.907-15.38-12.203-38.816 20.123-18.934 32.325 19.881 40.266-.297 18.487-11.31-29.502-14.921-56.53-38.805-51.14-49.485 11.211-22.21 78.98 45.488 101.215 32.455 7.36-4.314-4.96-8.5-9.752-12.871-20.706-18.884 2.314-32.645 13.57-23.116zM43.52 252.078c-26.448 2.582 58.703 28.39 54.833 43.228-3.87 14.838-74.727-8.368-95.057-25.162-32.028-26.453-15.035-37.607 0-38.906 30.547-2.64-28.803-41.096-51.381-52.71-22.579-11.612 17.418-16.343 55.695-2.151 24.327 9.023 87.732 42.582 94.575 78.58 3.198 16.832-32.217-5.459-58.665-2.879zm152.034-10.043c66.875 33.426 114.812 30.11 129.031 45.96 15.224 16.975-24.39 20.366-91.265 0-37.41-11.392-27.852 2.097-13.899 8.319 9.703 4.327 10.518 15.87-20.837 11.848-31.061-3.982-56.641-17.02-64.92-22.526-33.3-22.147-19.276-34.173 12.971-18.52 11.867 5.762 26.634-1.753 14.302-7.392-27.535-12.59-55.826-51.4-27.142-45.244 21.993 4.72 41.1 17.228 61.76 27.555z" data-paper-data="{&quot;index&quot;:null}" opacity=".1"/><path fill-opacity=".541" d="M207.731-14.683c-7.803-25.58 120.255 30.398 145.132 49.937 24.877 19.541 15.297 42.405-2.71 33.539-18.008-8.864-27.219 4.095-7.648 19.177 29.252 22.543 9.21 37.108-16.197 26.802-42.162-17.105-121.826-75.618-116.666-87.203 5.16-11.583 77.301 32.14 76.037 12.424-1.263-19.714-71.05-32.073-77.948-54.676Zm131.683-.752c3.251-14.883 69.781 12.83 90.495 39.57 23.408 30.226-13.524 48.207-32.843 19.383-22.728-33.913-60.039-48.023-57.652-58.953Zm216.524.78c29.21 28.334 75.604 46.23 54.227 61.867-22.025 16.112-64.266-32.322-61.551-8.33 2.764 24.416 72.414 42.849 43.45 48.884-28.967 6.035-82.07-17.503-117.043-49.49-34.973-31.986-13.85-41.747 13.248-27.16 22.424 12.072 45.258 1.813 21.876-18.405-33.003-28.535-50.364-65.734-30.927-66.69 18.707-.92 45.272 28.815 76.72 59.324zM203.483 76.052c-5.746 28.097-39.416-11.361-52.694-18.71-20.963-11.6-32.224 2.2-8.806 17.15 11.998 7.66 7.618 21.233-13.396 16.11-14.489-3.532-38.946-11.23-67.861-25.908-37.004-18.782-40.428-45.422 3.4-27.99 13.25 5.272 34.787-2.952 14.431-12.71-42.1-20.185-75.99-29.606-73.85-42.078 2.156-12.545 52.392-6.905 105.825 7.6 53.156 14.43 96.502 69.164 92.95 86.536zM223.04 90.98c8.654 3.462 10.59 13.351 3.684 17.494-6.906 4.143-19.334 1.382-19.334-5.986 0-7.365 3.224-16.482 15.65-11.508zm349.704 31.422c8.353 19.337-27.118 17.669-44.137 23.217-16.925 5.52 20.744 10.359 20.32 28.215-.373 15.773-25.343 22.376-57.45 19.784-31.514-2.544-42.792-15.075-38.033-25.98 5.725-13.12 37.23 1.521 37.886-4.565 1.186-10.96-42.214-14.622-61.05-27.398-22.534-15.286-2.537-30.13 16.126-21.324 32.627 15.396 57.771 5.147 37.998-2.543-19.776-7.688-32.41-10.837-36.544-22.787-4.136-11.95 13.288-27.522 27.503-14.774 39.51 35.432 92.641 37.185 97.38 48.154zM400.77 89.172c3.699 5.524 13.387 15.11 9.102 18.813-4.286 3.702-18.878 4.173-27.622-5.95-6.744-7.806-6.547-13.433-.202-17.845 8.17-5.68 15.022-.54 18.722 4.983zm-18.332 55.83c16.524 3.95 34.602 17.092 39.641 30.747 9.46 25.625 24.27 36.814 40.754 41.467 25.334 7.15-2.907 32.88-38.327 15.17-7.804-3.902-22.572-14.457-25.686-22.148-5.157-12.744-13.955-6.428-7.963 3.54 17.104 28.45-22.982 21.239-26.182-19.513-1.711-21.78-23.497-21.754-32.6-32.878-8.425-10.301 12.743-25.379 50.363-16.385zm112.093 82.581c10.676-13.65 45.786 6.523 85.687-30.718 28.006-26.138 55.29 2.775 22.676 19.773-18.988 9.896-31.68 24.269-17.017 23.264 14.664-1.003 29.164-10.042 35.024 3.385 5.192 11.897-17.676 27.126-48.53 23.81-16.34-1.757-26.803 10.418-12.083 14.639 39.469 11.31-6.447 29.014-57.955 11.967-33.525-11.097-37.989-33.75-8.492-33.443 29.495.306 63.022-2.474 46.752-7.951-16.27-5.477-60.323-6.495-46.063-24.726zM346.589 271.78c-7.805-15.937-19.785-46.504-7.638-53.993 17.664-10.895 18.9 41.281 71.796 46.05 42.933 3.87 36.077 23.969 24.515 26.642-11.563 2.676-36.526-9.28-30.458 5.396 6.069 14.676-37.16 18.9-58.215-24.095zM30.808 77.208c22.106 3.797 103.599 44.931 90.312 66.077-13.286 21.145-43.213-15.605-49.332-6.744-14.089 20.4 64.15 29.675 67.055 49.005 2.903 19.33-63.538 6.948-93.95-15.974-30.411-22.92-49.711-47.542-23.814-49.426 25.894-1.883-9.56-21.109-18.664-27.137-14.682-9.72-6.872-21.862 28.392-15.801ZM260.33 113.43c27.242 23.056 56.698 18.092 56.29 33.813-.528 20.285-27.805 8.61-30.687 16.896-3.65 10.5 53.354 22.104 38.125 39.617-15.735 18.1-60.187-9.77-66.026.726-7.954 14.304 55.963 10.249 49.896 32.388-7.794 28.466-122.196-24.8-140.102-40.179-17.907-15.38-12.203-38.816 20.123-18.934 32.325 19.881 40.266-.297 18.487-11.31-29.502-14.921-56.53-38.805-51.14-49.485 11.211-22.21 78.98 45.488 101.215 32.455 7.36-4.314-4.96-8.5-9.752-12.871-20.706-18.884 2.314-32.645 13.57-23.116zM43.52 252.078c-26.448 2.582 58.703 28.39 54.833 43.228-3.87 14.838-74.727-8.368-95.057-25.162-32.028-26.453-15.035-37.607 0-38.906 30.547-2.64-28.803-41.096-51.381-52.71-22.579-11.612 17.418-16.343 55.695-2.151 24.327 9.023 87.732 42.582 94.575 78.58 3.198 16.832-32.217-5.459-58.665-2.879zm152.034-10.043c66.875 33.426 114.812 30.11 129.031 45.96 15.224 16.975-24.39 20.366-91.265 0-37.41-11.392-27.852 2.097-13.899 8.319 9.703 4.327 10.518 15.87-20.837 11.848-31.061-3.982-56.641-17.02-64.92-22.526-33.3-22.147-19.276-34.173 12.971-18.52 11.867 5.762 26.634-1.753 14.302-7.392-27.535-12.59-55.826-51.4-27.142-45.244 21.993 4.72 41.1 17.228 61.76 27.555z" data-paper-data="{&quot;index&quot;:null}" opacity=".1"/></g><path fill="#5cb1d6" stroke="#000" stroke-opacity=".129" stroke-width="10" d="M354.855 179.299c-17.4 0-31.505-14.106-31.505-31.506s14.105-31.505 31.505-31.505h132.323c17.4 0 31.505 14.106 31.505 31.505 0 17.4-14.105 31.506-31.505 31.506z" style="mix-blend-mode:normal;stroke-linejoin:miter;stroke-miterlimit:10;stroke-dasharray:none;stroke-dashoffset:0"/><g fill="#fff" style="mix-blend-mode:normal;stroke-linejoin:miter;stroke-miterlimit:10;stroke-dasharray:none;stroke-dashoffset:0"><path stroke="#000" stroke-opacity=".129" stroke-width="10" d="m305.35 201.39-11.204-8.228a1.842 1.842 0 0 1 .967-3.318l37.173-2.56.3.005a1.84 1.84 0 0 1 1.657 2.004l-3.428 36.305a1.835 1.835 0 0 1-3.335.875l-6.753-9.716c-1.926 1.524-4.237 2.976-6.824 4.26-6.75 3.355-15.482 5.618-24.336 5.084-8.94-.538-18.004-3.91-25.308-11.842-2.663-2.887-5.084-6.379-7.169-10.551a1.84 1.84 0 0 1 2.72-2.386c10.746 8.457 20.017 10.321 27.828 8.975 6.981-1.202 12.908-4.974 17.711-8.906z"/><path d="m305.683 201.057-11.203-8.229a1.842 1.842 0 0 1 .967-3.318l37.172-2.56.3.006a1.84 1.84 0 0 1 1.657 2.003l-3.428 36.305a1.835 1.835 0 0 1-3.335.875l-6.753-9.716c-1.925 1.525-4.236 2.976-6.824 4.261-6.75 3.355-15.482 5.617-24.335 5.084-8.941-.538-18.005-3.91-25.309-11.842-2.662-2.887-5.084-6.38-7.169-10.552a1.84 1.84 0 0 1 2.72-2.386c10.747 8.458 20.018 10.322 27.828 8.976 6.982-1.202 12.908-4.974 17.712-8.907z"/></g><g fill="#fff" fill-rule="evenodd" style="mix-blend-mode:normal;stroke-linejoin:miter;stroke-miterlimit:10;stroke-dasharray:none;stroke-dashoffset:0"><path stroke="#000" stroke-opacity=".129" stroke-width="10" d="M249.868 52.928a13.673 13.673 0 0 0 9.664-9.664l2.883-10.721c1.369-5.069 8.56-5.069 9.92 0l2.89 10.72a13.677 13.677 0 0 0 9.657 9.665l10.721 2.883c5.069 1.369 5.069 8.56 0 9.928l-10.72 2.883a13.68 13.68 0 0 0-9.657 9.656L272.336 89c-1.362 5.069-8.552 5.069-9.921 0l-2.883-10.72a13.677 13.677 0 0 0-9.664-9.657l-10.722-2.883c-5.068-1.369-5.068-8.56 0-9.928z"/><path d="M249.868 52.928a13.673 13.673 0 0 0 9.664-9.664l2.883-10.721c1.369-5.069 8.56-5.069 9.92 0l2.89 10.72a13.677 13.677 0 0 0 9.657 9.665l10.721 2.883c5.069 1.369 5.069 8.56 0 9.928l-10.72 2.883a13.68 13.68 0 0 0-9.657 9.656L272.336 89c-1.362 5.069-8.552 5.069-9.921 0l-2.883-10.72a13.677 13.677 0 0 0-9.664-9.657l-10.722-2.883c-5.068-1.369-5.068-8.56 0-9.928z"/></g><g fill="#fff" fill-rule="evenodd" style="mix-blend-mode:normal;stroke-linejoin:miter;stroke-miterlimit:10;stroke-dasharray:none;stroke-dashoffset:0"><path stroke="#000" stroke-opacity=".129" stroke-width="10" d="M287.613 105.18a6.843 6.843 0 0 0 4.837-4.837l1.443-5.366c.685-2.537 4.283-2.537 4.964 0l1.447 5.366a6.845 6.845 0 0 0 4.833 4.836l5.365 1.443c2.537.685 2.537 4.284 0 4.969l-5.365 1.442a6.846 6.846 0 0 0-4.833 4.833l-1.447 5.366c-.68 2.536-4.28 2.536-4.964 0l-1.443-5.366a6.845 6.845 0 0 0-4.837-4.833l-5.365-1.442c-2.537-.685-2.537-4.284 0-4.97z"/><path d="M287.613 105.18a6.843 6.843 0 0 0 4.837-4.837l1.443-5.366c.685-2.537 4.283-2.537 4.964 0l1.447 5.366a6.845 6.845 0 0 0 4.833 4.836l5.365 1.443c2.537.685 2.537 4.284 0 4.969l-5.365 1.442a6.846 6.846 0 0 0-4.833 4.833l-1.447 5.366c-.68 2.536-4.28 2.536-4.964 0l-1.443-5.366a6.845 6.845 0 0 0-4.837-4.833l-5.365-1.442c-2.537-.685-2.537-4.284 0-4.97z"/></g><g fill="#fff" fill-rule="evenodd" style="mix-blend-mode:normal;stroke-linejoin:miter;stroke-miterlimit:10;stroke-dasharray:none;stroke-dashoffset:0"><path stroke="#000" stroke-opacity=".129" stroke-width="10" d="M329.966 68.32a8.195 8.195 0 0 0 5.792-5.792l1.727-6.425c.821-3.038 5.13-3.038 5.946 0l1.733 6.425a8.197 8.197 0 0 0 5.787 5.793l6.426 1.727c3.037.82 3.037 5.13 0 5.95l-6.426 1.728a8.199 8.199 0 0 0-5.787 5.788l-1.733 6.425c-.816 3.038-5.125 3.038-5.946 0l-1.727-6.425a8.197 8.197 0 0 0-5.792-5.788L323.54 76c-3.038-.82-3.038-5.13 0-5.95z"/><path d="M329.966 68.32a8.195 8.195 0 0 0 5.792-5.792l1.727-6.425c.821-3.038 5.13-3.038 5.946 0l1.733 6.425a8.197 8.197 0 0 0 5.787 5.793l6.426 1.727c3.037.82 3.037 5.13 0 5.95l-6.426 1.728a8.199 8.199 0 0 0-5.787 5.788l-1.733 6.425c-.816 3.038-5.125 3.038-5.946 0l-1.727-6.425a8.197 8.197 0 0 0-5.792-5.788L323.54 76c-3.038-.82-3.038-5.13 0-5.95z"/></g><path fill="#5cb1d6" stroke="#000" stroke-opacity=".129" stroke-width="10" d="M88.088 116.222h157.857l31.572 31.571-31.572 31.572H88.088l-31.571-31.572Z" style="mix-blend-mode:normal;stroke-linejoin:miter;stroke-miterlimit:10;stroke-dasharray:none;stroke-dashoffset:0"/><path fill="#5cb1d6" stroke="#2e8eb8" stroke-width="2.5" d="M88.088 116.222h157.857l31.572 31.571-31.572 31.572H88.088l-31.571-31.572Z" style="mix-blend-mode:normal;stroke-linejoin:miter;stroke-miterlimit:10;stroke-dasharray:none;stroke-dashoffset:0"/><path fill="#5cb1d6" stroke="#2e8eb8" stroke-width="2.5" d="M88.088 116.222h157.857l31.572 31.571-31.572 31.572H88.088l-31.571-31.572Z" style="mix-blend-mode:normal;stroke-linejoin:miter;stroke-miterlimit:10;stroke-dasharray:none;stroke-dashoffset:0"/><g aria-label="mouse" style="font-weight:500;font-size:25.2571px;font-family:&quot;Helvetica Neue&quot;,Helvetica,sans-serif;fill:#fff;stroke-width:1.57857;stroke-miterlimit:10"><path d="M89.738 143.32v13.234h2.122v-8.31c0-1.92 1.389-3.46 3.106-3.46 1.566 0 2.45.96 2.45 2.652v9.118h2.122v-8.31c0-1.92 1.389-3.46 3.106-3.46 1.541 0 2.45.985 2.45 2.652v9.118h2.122v-9.926c0-2.374-1.364-3.688-3.84-3.688-1.767 0-2.828.53-4.066 2.021-.783-1.414-1.843-2.02-3.56-2.02-1.769 0-2.956.656-4.067 2.247v-1.869zM115.88 142.94c-3.739 0-5.962 2.652-5.962 7.098 0 4.47 2.223 7.097 5.986 7.097 3.738 0 5.986-2.652 5.986-6.996 0-4.597-2.172-7.199-6.01-7.199zm.024 1.945c2.375 0 3.789 1.945 3.789 5.228 0 3.132-1.465 5.077-3.789 5.077-2.349 0-3.788-1.945-3.788-5.152 0-3.208 1.44-5.153 3.788-5.153zM135.226 156.554v-13.235h-2.096v7.502c0 2.702-1.415 4.47-3.612 4.47-1.667 0-2.728-1.01-2.728-2.601v-9.37h-2.096v10.203c0 2.198 1.641 3.612 4.218 3.612 1.945 0 3.182-.682 4.42-2.425v1.844zM148.158 147.007c-.026-2.602-1.743-4.067-4.8-4.067-3.08 0-5.076 1.592-5.076 4.042 0 2.07 1.06 3.056 4.193 3.813l1.97.48c1.465.354 2.046.884 2.046 1.819 0 1.263-1.238 2.096-3.082 2.096-1.136 0-2.096-.328-2.626-.884-.329-.379-.48-.758-.607-1.692h-2.222c.1 3.056 1.818 4.52 5.278 4.52 3.334 0 5.456-1.64 5.456-4.192 0-1.97-1.111-3.056-3.738-3.687l-2.02-.48c-1.718-.404-2.45-.96-2.45-1.894 0-1.238 1.086-1.996 2.803-1.996 1.692 0 2.601.733 2.652 2.122zM162.68 150.644c0-2.02-.151-3.233-.53-4.218-.859-2.172-2.88-3.486-5.355-3.486-3.687 0-6.061 2.804-6.061 7.173 0 4.37 2.273 7.022 6.011 7.022 3.03 0 5.127-1.718 5.658-4.597h-2.122c-.58 1.743-1.768 2.652-3.46 2.652-1.339 0-2.475-.606-3.183-1.717-.505-.758-.682-1.516-.707-2.83zm-9.698-1.718c.176-2.45 1.667-4.04 3.788-4.04 2.147 0 3.637 1.666 3.637 4.04z"/></g><g aria-label="down?" style="font-weight:500;font-size:25.2571px;font-family:&quot;Helvetica Neue&quot;,Helvetica,sans-serif;fill:#fff;stroke-width:1.57857;stroke-miterlimit:10"><path d="M184.137 138.142h-2.096v6.844c-.884-1.338-2.298-2.046-4.066-2.046-3.435 0-5.683 2.753-5.683 6.971 0 4.47 2.172 7.224 5.758 7.224 1.819 0 3.082-.682 4.218-2.324v1.743h1.87zm-5.809 6.768c2.273 0 3.713 1.996 3.713 5.178 0 3.056-1.465 5.077-3.688 5.077-2.323 0-3.864-2.046-3.864-5.127 0-3.082 1.54-5.128 3.84-5.128zM192.548 142.94c-3.738 0-5.96 2.652-5.96 7.098 0 4.47 2.222 7.097 5.985 7.097 3.738 0 5.986-2.652 5.986-6.996 0-4.597-2.172-7.199-6.011-7.199zm.025 1.945c2.374 0 3.789 1.945 3.789 5.228 0 3.132-1.465 5.077-3.789 5.077-2.349 0-3.788-1.945-3.788-5.152 0-3.208 1.44-5.153 3.788-5.153zM213.41 156.554l3.89-13.235h-2.374l-2.627 10.305-2.602-10.305h-2.576l-2.526 10.305-2.702-10.305h-2.324l3.84 13.235h2.374l2.55-10.38 2.678 10.38zM219.421 143.32v13.234h2.122v-7.3c0-2.702 1.414-4.47 3.586-4.47 1.667 0 2.728 1.01 2.728 2.602v9.168h2.097v-10.002c0-2.197-1.642-3.612-4.193-3.612-1.97 0-3.233.758-4.395 2.602v-2.223zM240.031 151.528v-1.187c.025-1.137.379-1.692 1.995-3.132 1.895-1.718 2.526-2.829 2.526-4.521 0-2.955-2.096-4.85-5.38-4.85-3.662 0-5.53 1.996-5.53 5.91h2.146c0-2.727.985-3.94 3.258-3.94 1.945 0 3.233 1.162 3.233 2.88 0 1.162-.556 2.147-1.894 3.334-2.147 1.894-2.627 2.627-2.627 4.117v1.389zm0 2.4h-2.273v2.626h2.273z"/></g><path fill="#fff" fill-rule="evenodd" stroke="#000" stroke-linecap="square" stroke-opacity=".129" stroke-width="11" d="M105.93 219.878a7.76 7.76 0 0 1 7.759-7.76h30.783l17.696-17.691a6.858 6.858 0 0 1 9.697 0l17.691 17.691h30.788a7.76 7.76 0 0 1 7.76 7.76v34.197a7.76 7.76 0 0 1-7.76 7.76H113.69a7.76 7.76 0 0 1-7.76-7.76z" style="mix-blend-mode:normal;stroke-linejoin:miter;stroke-miterlimit:10;stroke-dasharray:none;stroke-dashoffset:0"/><path fill="#fff" fill-rule="evenodd" stroke="#aaa" stroke-linecap="square" stroke-width="3" d="M105.93 219.878a7.76 7.76 0 0 1 7.759-7.76h30.783l17.696-17.691a6.858 6.858 0 0 1 9.697 0l17.691 17.691h30.788a7.76 7.76 0 0 1 7.76 7.76v34.197a7.76 7.76 0 0 1-7.76 7.76H113.69a7.76 7.76 0 0 1-7.76-7.76z" style="mix-blend-mode:normal;stroke-linejoin:miter;stroke-miterlimit:10;stroke-dasharray:none;stroke-dashoffset:0"/><g aria-label="true" style="font-weight:500;font-size:30.4435px;font-family:&quot;Helvetica Neue&quot;,Helvetica,sans-serif;stroke-width:1.90272;stroke-miterlimit:10"><path d="M149.263 231.34h-2.618v-4.383h-2.527v4.384h-2.162v2.07h2.162v12.055c0 1.644 1.096 2.527 3.074 2.527.67 0 1.218-.06 2.07-.213v-2.13c-.365.09-.7.12-1.217.12-1.096 0-1.4-.304-1.4-1.43v-10.93h2.618zM151.942 231.34v15.953h2.557v-8.28c.03-3.837 1.613-5.541 5.114-5.45v-2.588c-.426-.06-.67-.091-.974-.091-1.644 0-2.892.974-4.353 3.349v-2.892zM174.713 247.293v-15.952h-2.527v9.041c0 3.258-1.704 5.389-4.353 5.389-2.01 0-3.288-1.218-3.288-3.136v-11.294h-2.527v12.299c0 2.648 1.98 4.353 5.084 4.353 2.345 0 3.836-.822 5.328-2.922v2.222zM192.584 240.17c0-2.436-.183-3.898-.64-5.085-1.035-2.618-3.47-4.201-6.454-4.201-4.444 0-7.306 3.38-7.306 8.646 0 5.267 2.74 8.463 7.245 8.463 3.654 0 6.18-2.07 6.82-5.54h-2.558c-.7 2.1-2.13 3.196-4.17 3.196-1.614 0-2.984-.73-3.836-2.07-.609-.913-.822-1.827-.853-3.41zm-11.69-2.07c.212-2.954 2.009-4.872 4.566-4.872 2.588 0 4.384 2.01 4.384 4.871z"/></g><path fill="#5cb1d6" stroke="#2e8eb8" stroke-width="2.5" d="M354.855 179.299c-17.4 0-31.505-14.106-31.505-31.506s14.105-31.505 31.505-31.505h132.323c17.4 0 31.505 14.106 31.505 31.505 0 17.4-14.105 31.506-31.505 31.506z" style="mix-blend-mode:normal;stroke-linejoin:miter;stroke-miterlimit:10;stroke-dasharray:none;stroke-dashoffset:0"/><g aria-label="mouse" style="font-weight:500;font-size:25.2045px;font-family:&quot;Helvetica Neue&quot;,Helvetica,sans-serif;fill:#fff;stroke-width:1.57528;stroke-miterlimit:10"><path d="M343.9 143.329v13.207h2.117v-8.292c0-1.916 1.387-3.453 3.1-3.453 1.563 0 2.445.957 2.445 2.646v9.099h2.118v-8.292c0-1.916 1.386-3.453 3.1-3.453 1.537 0 2.445.983 2.445 2.646v9.099h2.117v-9.905c0-2.37-1.361-3.68-3.831-3.68-1.765 0-2.823.53-4.058 2.016-.782-1.411-1.84-2.016-3.554-2.016-1.764 0-2.949.655-4.058 2.243v-1.865zM369.987 142.95c-3.73 0-5.948 2.647-5.948 7.083 0 4.461 2.218 7.083 5.973 7.083 3.73 0 5.974-2.647 5.974-6.982 0-4.587-2.168-7.183-6-7.183zm.025 1.942c2.37 0 3.78 1.94 3.78 5.217 0 3.125-1.461 5.066-3.78 5.066-2.344 0-3.78-1.94-3.78-5.142 0-3.2 1.436-5.141 3.78-5.141zM389.294 156.536v-13.207h-2.092v7.486c0 2.696-1.412 4.46-3.605 4.46-1.663 0-2.722-1.007-2.722-2.595v-9.351h-2.092v10.182c0 2.193 1.639 3.605 4.21 3.605 1.94 0 3.175-.68 4.41-2.42v1.84zM402.198 147.009c-.025-2.596-1.739-4.058-4.789-4.058-3.075 0-5.066 1.588-5.066 4.032 0 2.067 1.059 3.05 4.184 3.806l1.966.48c1.462.352 2.042.881 2.042 1.814 0 1.26-1.235 2.092-3.075 2.092-1.134 0-2.092-.328-2.621-.882-.328-.378-.48-.756-.605-1.689h-2.218c.1 3.05 1.814 4.512 5.267 4.512 3.327 0 5.445-1.639 5.445-4.184 0-1.966-1.11-3.05-3.73-3.68l-2.017-.479c-1.714-.403-2.445-.958-2.445-1.89 0-1.235 1.084-1.991 2.798-1.991 1.688 0 2.596.73 2.646 2.117zM416.69 150.638c0-2.016-.15-3.226-.528-4.209-.857-2.168-2.874-3.478-5.344-3.478-3.68 0-6.049 2.797-6.049 7.158 0 4.36 2.268 7.007 5.999 7.007 3.024 0 5.116-1.714 5.646-4.588h-2.118c-.58 1.74-1.764 2.647-3.453 2.647-1.335 0-2.47-.605-3.175-1.714-.505-.756-.68-1.512-.706-2.823zm-9.678-1.714c.177-2.445 1.664-4.032 3.78-4.032 2.143 0 3.63 1.663 3.63 4.032z"/></g><g aria-label="down?" style="font-weight:500;font-size:25.2045px;font-family:&quot;Helvetica Neue&quot;,Helvetica,sans-serif;fill:#fff;stroke-width:1.57528;stroke-miterlimit:10"><path d="M438.102 138.162h-2.092v6.83c-.882-1.335-2.293-2.041-4.058-2.041-3.427 0-5.67 2.747-5.67 6.956 0 4.461 2.167 7.209 5.746 7.209 1.815 0 3.075-.68 4.21-2.32v1.74h1.864zm-5.797 6.755c2.269 0 3.705 1.99 3.705 5.167 0 3.05-1.462 5.066-3.68 5.066-2.318 0-3.856-2.042-3.856-5.117s1.538-5.116 3.831-5.116zM446.495 142.95c-3.73 0-5.948 2.647-5.948 7.083 0 4.461 2.218 7.083 5.974 7.083 3.73 0 5.973-2.647 5.973-6.982 0-4.587-2.168-7.183-5.999-7.183zm.026 1.942c2.369 0 3.78 1.94 3.78 5.217 0 3.125-1.462 5.066-3.78 5.066-2.344 0-3.781-1.94-3.781-5.142 0-3.2 1.437-5.141 3.78-5.141zM467.314 156.536l3.882-13.207h-2.37l-2.62 10.283-2.597-10.283h-2.57l-2.521 10.283-2.697-10.283h-2.319l3.831 13.207h2.37l2.545-10.36 2.672 10.36zM473.313 143.329v13.207h2.117v-7.284c0-2.697 1.411-4.461 3.58-4.461 1.663 0 2.721 1.008 2.721 2.596v9.149h2.092v-9.981c0-2.193-1.638-3.604-4.184-3.604-1.966 0-3.226.756-4.385 2.596v-2.218zM493.88 151.52v-1.184c.025-1.135.378-1.689 1.99-3.126 1.891-1.714 2.521-2.823 2.521-4.511 0-2.95-2.092-4.84-5.368-4.84-3.655 0-5.52 1.992-5.52 5.898h2.142c0-2.722.983-3.932 3.252-3.932 1.94 0 3.226 1.16 3.226 2.874 0 1.16-.555 2.142-1.89 3.327-2.143 1.89-2.622 2.621-2.622 4.108v1.386zm0 2.395h-2.269v2.621h2.269z"/></g><path fill="#fff" fill-rule="evenodd" stroke="#000" stroke-linecap="square" stroke-opacity=".129" stroke-width="11" d="M359.93 219.878a7.76 7.76 0 0 1 7.759-7.76h30.783l17.696-17.691a6.858 6.858 0 0 1 9.697 0l17.691 17.691h30.788a7.76 7.76 0 0 1 7.76 7.76v34.197a7.76 7.76 0 0 1-7.76 7.76H367.69a7.76 7.76 0 0 1-7.76-7.76z" style="mix-blend-mode:normal;stroke-linejoin:miter;stroke-miterlimit:10;stroke-dasharray:none;stroke-dashoffset:0"/><path fill="#fff" fill-rule="evenodd" stroke="#aaa" stroke-linecap="square" stroke-width="3" d="M359.93 219.878a7.76 7.76 0 0 1 7.759-7.76h30.783l17.696-17.691a6.858 6.858 0 0 1 9.697 0l17.691 17.691h30.788a7.76 7.76 0 0 1 7.76 7.76v34.197a7.76 7.76 0 0 1-7.76 7.76H367.69a7.76 7.76 0 0 1-7.76-7.76z" style="mix-blend-mode:normal;stroke-linejoin:miter;stroke-miterlimit:10;stroke-dasharray:none;stroke-dashoffset:0"/><path d="M419.415 231.615v15.678h2.679v-22.01h-1.766c-.944 3.379-1.552 3.835-5.693 4.383v1.949z" aria-label="1" style="font-weight:500;font-size:30.4435px;font-family:&quot;Helvetica Neue&quot;,Helvetica,sans-serif;stroke-width:1.90272;stroke-miterlimit:10"/></svg>