<svg viewBox="0,0,466.4779,233.23895" height="233.23895" width="466.4779" xmlns:xlink="http://www.w3.org/1999/xlink" xmlns="http://www.w3.org/2000/svg" version="1.1"><defs><clipPath id="clip-1"><path stroke-linejoin="miter" stroke-linecap="butt" stroke-width="1" stroke="none" fill-rule="nonzero" fill="none" d="M6.76105,63.3776h466.4779v233.23895h-466.4779z"></path></clipPath></defs><g transform="translate(-6.76105,-63.3776)"><g stroke-miterlimit="10" clip-path="url(#clip-1)"><path visibility="hidden" stroke-linejoin="miter" stroke-linecap="butt" stroke-width="1" stroke="none" fill-rule="nonzero" fill="#cc9900" d=""></path><path stroke-linejoin="miter" stroke-linecap="butt" stroke-width="1" stroke="none" fill-rule="nonzero" fill="#ffffff" d="M6.76105,63.38054h466.4779v233.23895h-466.4779z"></path><path stroke-linejoin="miter" stroke-linecap="butt" stroke-width="2" stroke="#006bff" fill-rule="nonzero" fill="#0084ff" d="M21.82057,102.54116l-24.24217,-13.99581v-27.98867l24.24217,-13.99581l24.24217,13.99581v27.99161l-24.24217,13.99581zM46.06273,144.85475l-24.24217,-13.9958v-27.99455l24.24217,-13.99581l24.24217,13.99581v27.99455z"></path><path stroke-linejoin="miter" stroke-linecap="butt" stroke-width="2" stroke="#006bff" fill-rule="nonzero" fill="#0084ff" d="M70.3049,102.54116l-24.24216,-13.99581v-27.98867l24.24217,-13.99581l24.24217,13.99581v27.99161l-24.24216,13.99581zM94.54706,144.85475l-24.24216,-13.9958v-27.99455l24.24217,-13.99581l24.24217,13.99581v27.99455z"></path><path stroke-linejoin="miter" stroke-linecap="butt" stroke-width="2" stroke="#006bff" fill-rule="nonzero" fill="#0084ff" d="M118.7892,102.54116l-24.24217,-13.99581v-27.98867l24.24217,-13.99581l24.24217,13.99581v27.99161l-24.24216,13.99581zM143.03137,144.85475l-24.24216,-13.9958v-27.99455l24.24217,-13.99581l24.24217,13.99581v27.99455z"></path><path stroke-linejoin="miter" stroke-linecap="butt" stroke-width="2" stroke="#006bff" fill-rule="nonzero" fill="#0084ff" d="M167.27353,102.54116l-24.24216,-13.99581v-27.98867l24.24217,-13.99581l24.24217,13.99581v27.99161l-24.24216,13.99581zM191.5157,144.85475l-24.24216,-13.9958v-27.99455l24.24217,-13.99581l24.24217,13.99581v27.99455z"></path><path stroke-linejoin="miter" stroke-linecap="butt" stroke-width="2" stroke="#006bff" fill-rule="nonzero" fill="#0084ff" d="M215.75784,102.54116l-24.24216,-13.99581v-27.98867l24.24217,-13.99581l24.24217,13.99581v27.99161l-24.24216,13.99581zM240,144.85475l-24.24216,-13.9958v-27.99455l24.24217,-13.99581l24.24217,13.99581v27.99455z"></path><path stroke-linejoin="miter" stroke-linecap="butt" stroke-width="2" stroke="#006bff" fill-rule="nonzero" fill="#0084ff" d="M264.24217,102.54116l-24.24216,-13.99581v-27.98867l24.24217,-13.99581l24.24217,13.99581v27.99161l-24.24216,13.99581zM288.48433,144.85475l-24.24216,-13.9958v-27.99455l24.24217,-13.99581l24.24217,13.99581v27.99455z"></path><path stroke-linejoin="miter" stroke-linecap="butt" stroke-width="2" stroke="#006bff" fill-rule="nonzero" fill="#0084ff" d="M312.72647,102.54116l-24.24216,-13.99581v-27.98867l24.24217,-13.99581l24.24217,13.99581v27.99161l-24.24216,13.99581zM336.96864,144.85475l-24.24216,-13.9958v-27.99455l24.24217,-13.99581l24.24217,13.99581v27.99455z"></path><path stroke-linejoin="miter" stroke-linecap="butt" stroke-width="2" stroke="#006bff" fill-rule="nonzero" fill="#0084ff" d="M361.2108,102.54116l-24.24216,-13.99581v-27.98867l24.24217,-13.99581l24.24217,13.99581v27.99161l-24.24217,13.99581zM385.45297,144.85475l-24.24217,-13.9958v-27.99455l24.24217,-13.99581l24.24217,13.99581v27.99455z"></path><path stroke-linejoin="miter" stroke-linecap="butt" stroke-width="2" stroke="#006bff" fill-rule="nonzero" fill="#0084ff" d="M409.69511,102.54116l-24.24216,-13.99581v-27.98867l24.24217,-13.99581l24.24217,13.99581v27.99161l-24.24216,13.99581zM433.93727,144.85475l-24.24216,-13.9958v-27.99455l24.24217,-13.99581l24.24217,13.99581v27.99455z"></path><path stroke-linejoin="miter" stroke-linecap="butt" stroke-width="2" stroke="#006bff" fill-rule="nonzero" fill="#0084ff" d="M458.17944,102.54116l-24.24216,-13.99581v-27.98867l24.24217,-13.99581l24.24217,13.99581v27.99161l-24.24217,13.99581zM21.82057,187.72958l-24.24217,-13.99874v-27.98867l24.24217,-13.9958l24.24217,13.9958v27.99161l-24.24217,13.99874zM46.06273,230.04023l-24.24217,-13.99581v-27.99161l24.24217,-13.99875l24.24217,13.99875v27.99161z"></path><path stroke-linejoin="miter" stroke-linecap="butt" stroke-width="2" stroke="#006bff" fill-rule="nonzero" fill="#0084ff" d="M70.3049,187.72958l-24.24216,-13.99874v-27.98867l24.24217,-13.9958l24.24217,13.9958v27.99161l-24.24216,13.99874zM94.54706,230.04023l-24.24216,-13.99581v-27.99161l24.24217,-13.99875l24.24217,13.99875v27.99161z"></path><path stroke-linejoin="miter" stroke-linecap="butt" stroke-width="2" stroke="#006bff" fill-rule="nonzero" fill="#0084ff" d="M118.7892,187.72958l-24.24217,-13.99874v-27.98867l24.24217,-13.9958l24.24217,13.9958v27.99161l-24.24216,13.99874zM143.03137,230.04023l-24.24216,-13.99581v-27.99161l24.24217,-13.99875l24.24217,13.99875v27.99161z"></path><path stroke-linejoin="miter" stroke-linecap="butt" stroke-width="2" stroke="#006bff" fill-rule="nonzero" fill="#0084ff" d="M167.27353,187.72958l-24.24216,-13.99874v-27.98867l24.24217,-13.9958l24.24217,13.9958v27.99161l-24.24216,13.99874zM191.5157,230.04023l-24.24216,-13.99581v-27.99161l24.24217,-13.99875l24.24217,13.99875v27.99161z"></path><path stroke-linejoin="miter" stroke-linecap="butt" stroke-width="2" stroke="#006bff" fill-rule="nonzero" fill="#0084ff" d="M215.75784,187.72958l-24.24216,-13.99874v-27.98867l24.24217,-13.9958l24.24217,13.9958v27.99161l-24.24216,13.99874zM240,230.04023l-24.24216,-13.99581v-27.99161l24.24217,-13.99875l24.24217,13.99875v27.99161z"></path><path stroke-linejoin="miter" stroke-linecap="butt" stroke-width="2" stroke="#006bff" fill-rule="nonzero" fill="#0084ff" d="M264.24217,187.72958l-24.24216,-13.99874v-27.98867l24.24217,-13.9958l24.24217,13.9958v27.99161l-24.24216,13.99874zM288.48433,230.04023l-24.24216,-13.99581v-27.99161l24.24217,-13.99875l24.24217,13.99875v27.99161z"></path><path stroke-linejoin="miter" stroke-linecap="butt" stroke-width="2" stroke="#006bff" fill-rule="nonzero" fill="#0084ff" d="M312.72647,187.72958l-24.24216,-13.99874v-27.98867l24.24217,-13.9958l24.24217,13.9958v27.99161l-24.24216,13.99874zM336.96864,230.04023l-24.24216,-13.99581v-27.99161l24.24217,-13.99875l24.24217,13.99875v27.99161z"></path><path stroke-linejoin="miter" stroke-linecap="butt" stroke-width="2" stroke="#006bff" fill-rule="nonzero" fill="#0084ff" d="M361.2108,187.72958l-24.24216,-13.99874v-27.98867l24.24217,-13.9958l24.24217,13.9958v27.99161l-24.24217,13.99874zM385.45297,230.04023l-24.24217,-13.99581v-27.99161l24.24217,-13.99875l24.24217,13.99875v27.99161z"></path><path stroke-linejoin="miter" stroke-linecap="butt" stroke-width="2" stroke="#006bff" fill-rule="nonzero" fill="#0084ff" d="M409.69511,187.72958l-24.24216,-13.99874v-27.98867l24.24217,-13.9958l24.24217,13.9958v27.99161l-24.24216,13.99874zM433.93727,230.04023l-24.24216,-13.99581v-27.99161l24.24217,-13.99875l24.24217,13.99875v27.99161z"></path><path stroke-linejoin="miter" stroke-linecap="butt" stroke-width="2" stroke="#006bff" fill-rule="nonzero" fill="#0084ff" d="M458.17944,187.72958l-24.24216,-13.99874v-27.98867l24.24217,-13.9958l24.24217,13.9958v27.99161l-24.24217,13.99874zM21.82057,271.12556l-24.24217,-13.99581v-27.99455l24.24217,-13.9958l24.24217,13.9958v27.99455zM46.06273,313.43912l-24.24217,-13.99874v-27.99161l24.24217,-13.9958l24.24217,13.9958v27.99161l-24.24216,13.9958zM70.3049,271.12556l-24.24216,-13.99581v-27.99455l24.24217,-13.9958l24.24217,13.9958v27.99455zM94.54706,313.43912l-24.24216,-13.99874v-27.99161l24.24217,-13.9958l24.24217,13.9958v27.99161l-24.24217,13.9958zM118.7892,271.12556l-24.24217,-13.99581v-27.99455l24.24217,-13.9958l24.24217,13.9958v27.99455zM143.03137,313.43912l-24.24216,-13.99874v-27.99161l24.24217,-13.9958l24.24217,13.9958v27.99161l-24.24216,13.9958zM167.27353,271.12556l-24.24216,-13.99581v-27.99455l24.24217,-13.9958l24.24217,13.9958v27.99455zM191.5157,313.43912l-24.24216,-13.99874v-27.99161l24.24217,-13.9958l24.24217,13.9958v27.99161l-24.24217,13.9958zM215.75784,271.12556l-24.24216,-13.99581v-27.99455l24.24217,-13.9958l24.24217,13.9958v27.99455zM240,313.43912l-24.24216,-13.99874v-27.99161l24.24217,-13.9958l24.24217,13.9958v27.99161l-24.24216,13.9958zM264.24217,271.12556l-24.24216,-13.99581v-27.99455l24.24217,-13.9958l24.24217,13.9958v27.99455zM288.48433,313.43912l-24.24216,-13.99874v-27.99161l24.24217,-13.9958l24.24217,13.9958v27.99161l-24.24217,13.9958zM312.72647,271.12556l-24.24216,-13.99581v-27.99455l24.24217,-13.9958l24.24217,13.9958v27.99455zM336.96864,313.43912l-24.24216,-13.99874v-27.99161l24.24217,-13.9958l24.24217,13.9958v27.99161l-24.24216,13.9958zM361.2108,271.12556l-24.24216,-13.99581v-27.99455l24.24217,-13.9958l24.24217,13.9958v27.99455zM385.45297,313.43912l-24.24217,-13.99874v-27.99161l24.24217,-13.9958l24.24217,13.9958v27.99161l-24.24216,13.9958zM409.69511,271.12556l-24.24216,-13.99581v-27.99455l24.24217,-13.9958l24.24217,13.9958v27.99455zM433.93727,313.43912l-24.24216,-13.99874v-27.99161l24.24217,-13.9958l24.24217,13.9958v27.99161l-24.24216,13.9958zM458.17944,271.12556l-24.24216,-13.99581v-27.99455l24.24217,-13.9958l24.24217,13.9958v27.99455z"></path><path stroke-linejoin="miter" stroke-linecap="butt" stroke-width="1" stroke="#cc9900" fill-rule="nonzero" fill="#ffbf00" d="M74.35998,163.0548c22.58035,-19.87071 64.12824,-19.87071 86.70859,0h216.7164c1.99532,0 3.61287,1.61751 3.61287,3.61287v36.12859c0,1.99533 -1.61752,3.61287 -3.61287,3.61287h-260.07069c-1.80642,0 -2.70964,0.90322 -3.61287,1.80642l-3.61287,3.61287c-0.90323,0.90322 -1.80642,1.80642 -3.61287,1.80642h-10.83858c-1.80642,0 -2.70964,-0.90322 -3.61287,-1.80642l-3.61287,-3.61287c-0.90323,-0.90322 -1.80642,-1.80642 -3.61287,-1.80642h-7.22571c-1.99532,0 -3.61287,-1.61751 -3.61287,-3.61287z"></path><path stroke-linejoin="miter" stroke-linecap="butt" stroke-width="1" stroke="#cc9900" fill-rule="nonzero" fill="#47a8d1" d="M243.85975,170.28052M258.31118,170.28052h101.40951c7.98129,0 14.45142,6.47012 14.45142,14.45142c0,7.98129 -6.47012,14.45142 -14.45142,14.45142h-101.40951c-7.98129,0 -14.45142,-6.47013 -14.45142,-14.45142c0,-7.98129 6.47013,-14.45142 14.45143,-14.45142z"></path><text text-anchor="middle" font-weight="500" font-family="&quot;Helvetica Neue&quot;, Helvetica, sans-serif" stroke-linejoin="miter" stroke-linecap="butt" stroke-width="1" stroke="none" fill-rule="nonzero" fill="#ffffff" xml:space="preserve" font-size="16" transform="translate(298.75588,189.0674) scale(0.90323,0.90323)"><tspan dy="0" x="0">mouse-pointer</tspan></text><text text-anchor="middle" font-weight="500" font-family="&quot;Helvetica Neue&quot;, Helvetica, sans-serif" stroke-linejoin="miter" stroke-linecap="butt" stroke-width="1" stroke="none" fill-rule="nonzero" fill="#ffffff" xml:space="preserve" font-size="16" transform="translate(159.05016,189.0674) scale(0.90323,0.90323)"><tspan dy="0" x="0">when this sprite touches</tspan></text><path stroke-linejoin="miter" stroke-linecap="butt" stroke-width="12.5" stroke="#000000" stroke-opacity="0.129" fill-rule="evenodd" fill="#ffffff" d="M384.32333,124.57261c3.56946,-0.95782 6.35726,-3.7464 7.3141,-7.31612l2.18165,-8.11369c1.03704,-3.83564 6.47898,-3.83564 7.50892,0l2.18773,8.11471c0.95661,3.56784 3.74198,6.35553 7.30903,7.31511l8.11471,2.18165c3.83564,1.03502 3.83564,6.47797 0,7.514l-8.11471,2.18165c-3.56516,0.95905 -6.34998,3.74386 -7.30903,7.30902l-2.18773,8.11471c-1.02994,3.83564 -6.47188,3.83564 -7.50892,0l-2.18165,-8.11471c-0.95939,-3.56678 -3.74665,-6.3521 -7.3141,-7.30902l-8.11471,-2.18165c-3.83564,-1.03603 -3.83564,-6.47797 0,-7.514z"></path><path stroke-linejoin="miter" stroke-linecap="butt" stroke-width="1" stroke="none" fill-rule="evenodd" fill="#ffffff" d="M384.32333,124.57261c3.56946,-0.95782 6.35726,-3.7464 7.3141,-7.31612l2.18165,-8.11369c1.03704,-3.83564 6.47898,-3.83564 7.50892,0l2.18773,8.11471c0.95661,3.56784 3.74198,6.35553 7.30903,7.31511l8.11471,2.18165c3.83564,1.03502 3.83564,6.47797 0,7.514l-8.11471,2.18165c-3.56516,0.95905 -6.34998,3.74386 -7.30903,7.30902l-2.18773,8.11471c-1.02994,3.83564 -6.47188,3.83564 -7.50892,0l-2.18165,-8.11471c-0.95939,-3.56678 -3.74665,-6.3521 -7.3141,-7.30902l-8.11471,-2.18165c-3.83564,-1.03603 -3.83564,-6.47797 0,-7.514z"></path><path stroke-linejoin="miter" stroke-linecap="butt" stroke-width="12.5" stroke="#000000" stroke-opacity="0.129" fill-rule="evenodd" fill="#ffffff" d="M224.10273,231.18026c2.70999,-0.72719 4.82654,-2.84432 5.55298,-5.55452l1.65634,-6.16005c0.78734,-2.91208 4.91895,-2.91208 5.7009,0l1.66097,6.16082c0.72627,2.70876 2.84097,4.82522 5.54913,5.55375l6.16082,1.65634c2.91208,0.7858 2.91208,4.91818 0,5.70475l-6.16082,1.65634c-2.70673,0.72813 -4.821,2.8424 -5.54913,5.54913l-1.66097,6.16082c-0.78195,2.91208 -4.91356,2.91208 -5.7009,0l-1.65634,-6.16082c-0.72839,-2.70795 -2.84452,-4.82262 -5.55298,-5.54913l-6.16082,-1.65634c-2.91208,-0.78657 -2.91208,-4.91818 0,-5.70475z"></path><path stroke-linejoin="miter" stroke-linecap="butt" stroke-width="1" stroke="none" fill-rule="evenodd" fill="#ffffff" d="M224.10273,231.18026c2.70999,-0.72719 4.82654,-2.84432 5.55298,-5.55452l1.65634,-6.16005c0.78734,-2.91208 4.91895,-2.91208 5.7009,0l1.66097,6.16082c0.72627,2.70876 2.84097,4.82522 5.54913,5.55375l6.16082,1.65634c2.91208,0.7858 2.91208,4.91818 0,5.70475l-6.16082,1.65634c-2.70673,0.72813 -4.821,2.8424 -5.54913,5.54913l-1.66097,6.16082c-0.78195,2.91208 -4.91356,2.91208 -5.7009,0l-1.65634,-6.16082c-0.72839,-2.70795 -2.84452,-4.82262 -5.55298,-5.54913l-6.16082,-1.65634c-2.91208,-0.78657 -2.91208,-4.91818 0,-5.70475z"></path><path stroke-linejoin="miter" stroke-linecap="butt" stroke-width="12.5" stroke="#000000" stroke-opacity="0.129" fill-rule="evenodd" fill="#ffffff" d="M75.45921,99.68286c3.56946,-0.95782 6.35726,-3.7464 7.31409,-7.31613l2.18165,-8.1137c1.03705,-3.83564 6.47898,-3.83564 7.50892,0l2.18774,8.11471c0.9566,3.56784 3.74198,6.35554 7.30902,7.31512l8.11471,2.18164c3.83564,1.03502 3.83564,6.47797 0,7.514l-8.11471,2.18165c-3.56516,0.95905 -6.34997,3.74386 -7.30902,7.30902l-2.18774,8.11471c-1.02994,3.83564 -6.47187,3.83564 -7.50892,0l-2.18165,-8.11471c-0.9594,-3.56678 -3.74665,-6.3521 -7.31409,-7.30902l-8.11471,-2.18165c-3.83564,-1.03603 -3.83564,-6.47797 0,-7.514z"></path><path stroke-linejoin="miter" stroke-linecap="butt" stroke-width="1" stroke="none" fill-rule="evenodd" fill="#ffffff" d="M75.45921,99.68286c3.56946,-0.95782 6.35726,-3.7464 7.31409,-7.31613l2.18165,-8.1137c1.03705,-3.83564 6.47898,-3.83564 7.50892,0l2.18774,8.11471c0.9566,3.56784 3.74198,6.35554 7.30902,7.31512l8.11471,2.18164c3.83564,1.03502 3.83564,6.47797 0,7.514l-8.11471,2.18165c-3.56516,0.95905 -6.34997,3.74386 -7.30902,7.30902l-2.18774,8.11471c-1.02994,3.83564 -6.47187,3.83564 -7.50892,0l-2.18165,-8.11471c-0.9594,-3.56678 -3.74665,-6.3521 -7.31409,-7.30902l-8.11471,-2.18165c-3.83564,-1.03603 -3.83564,-6.47797 0,-7.514z"></path><g stroke-linejoin="round" stroke-linecap="round" stroke="#010101" stroke-opacity="0.19671" fill-rule="nonzero" fill="#ffffff"><path stroke-width="2.5" d="M364.23398,182.14471l-6.60815,7.32544l-6.60815,-7.32544z"></path><path stroke-width="0" d="M364.23398,182.14471l-6.60815,7.32544l-6.60815,-7.32544z"></path></g></g></g></svg>
