<svg xmlns="http://www.w3.org/2000/svg" width="600" height="300" viewBox="130 56 600 300"><g stroke-miterlimit="10" data-paper-data="{&quot;isPaintingLayer&quot;:true}"><path fill="#3bb2ed" d="M83.48968 60.1123c0 17.87413-14.90984 32.36398-33.30206 32.36398-18.39222 0-33.30206-14.48985-33.30206-32.36398 0-17.87413 14.90984-32.36398 33.30206-32.36398 18.39222 0 33.30206 14.48985 33.30206 32.36398z"/><path fill="#3693d9" d="M80.67544 158.14232c0 20.20554-18.0598 36.58537-40.33771 36.58537-22.27791 0-40.33772-16.37983-40.33772-36.58537s18.05981-36.58536 40.33772-36.58536 40.33771 16.37982 40.33771 36.58536z"/><path fill="#fff" d="M92.85884 256.91108c0 20.98268-19.3198 37.99249-43.15197 37.99249-23.83217 0-43.15197-17.00982-43.15197-37.99249 0-20.98267 19.3198-37.99249 43.15197-37.99249 23.83218 0 43.15197 17.00982 43.15197 37.99249z"/><path fill="#3693d9" d="M106.93013 369.01238V40.68217h630.394v328.33021z"/><path fill="#3bb2ed" d="M419.79362 413.84558 212.87083 206.92279 419.79362 0l206.92279 206.92279z"/><path fill="#fff" stroke="#3bb2ed" stroke-width="5" d="m406.33149 223.49585-38.1483-24.00343 82.7261-21.64595 3.71552 33.17673zM323.6795 137.55286c.0012 0 36.43377 58.98255 36.42473 58.98254-16.80334-.01145-26.02155-11.16426-32.60151-19.87871 0 0-.22912-.22044-.52338-.6597-7.7877-11.6249-6.83026-32.35026-3.29984-38.44413z"/><path fill="#fff" stroke="#3bb2ed" stroke-width="5" d="m359.68449 196.3698-34.33428-54.7752 97.96999-25.59576 34.33429 54.7752z" data-paper-data="{&quot;index&quot;:null}"/><path fill="#fff" stroke="#3bb2ed" stroke-width="5" d="M459.51552 210.7057v-37.93115l44.13063 25.64244zM358.04634 260.73037v-63.90064l48.77912 28.29189v63.90064z"/><path fill="#fff" stroke="#3bb2ed" stroke-width="5" d="M505.72946 161.75986c-6.661 11.52845-19.29784 17.48371-31.75544 16.2433-.25747.57632-.54158 1.14672-.86247 1.70511l-34.26554 64.76853c-.01662.03349-.03397.06426-.05355.09562-4.43252 7.67457-14.19162 10.36567-21.86713 5.93259-7.67492-4.43483-10.31171-14.28573-5.8782-21.96057.01499-.02267.0277-.04686.04113-.06938l38.47641-62.35525c.33333-.56972.6816-1.10851 1.04233-1.6256-7.28922-10.17126-8.43501-24.08639-1.78037-35.60674 4.85874-8.41199 13.14065-14.21238 22.72264-15.91242 1.08898-.19288 2.18599.26154 2.82154 1.1654.63128.90287.68536 2.09056.13245 3.04657l-11.29403 19.55009 9.98938 15.64721 18.54539.83704 11.29412-19.54878c.55232-.95426 1.60717-1.50364 2.70708-1.40577 1.09682.0963 2.04058.82146 2.41639 1.85907 3.31462 9.14848 2.42501 19.2219-2.4321 27.63398zm-78.5864 70.34927c-2.8275-1.63176-6.44057-.66465-8.07461 2.16133-1.63322 2.82604-.66531 6.44208 2.16107 8.0736 2.82726 1.63182 6.44072.66621 8.0746-2.16133 1.63342-2.82529.66551-6.44133-2.16107-8.0736z"/><path fill="#fff" stroke="#3bb2ed" stroke-width="5" d="M407.42654 287.27202v-61.47438l104.17796-27.21766v61.47438z" data-paper-data="{&quot;index&quot;:null}"/></g></svg>