<svg xmlns="http://www.w3.org/2000/svg" width="600" height="300"><path fill="#0fbd8c" d="M0 300V0h600v300z" style="mix-blend-mode:normal;stroke-linejoin:miter;stroke-miterlimit:10;stroke-dasharray:none;stroke-dashoffset:0"/><path fill="#96f" d="M0 300V0h600v300z" style="mix-blend-mode:normal;stroke-linejoin:miter;stroke-miterlimit:10;stroke-dasharray:none;stroke-dashoffset:0"/><path fill="#96f" d="M0 300V0h600v300z" style="mix-blend-mode:normal;stroke-linejoin:miter;stroke-miterlimit:10;stroke-dasharray:none;stroke-dashoffset:0"/><path fill="#fff" fill-opacity=".733" d="M212.731 308.183c6.898-22.603 76.685-34.962 77.948-54.676 1.264-19.715-70.877 24.007-76.037 12.423-5.16-11.584 74.504-70.097 116.666-87.202 25.406-10.306 45.449 4.259 16.197 26.802-19.57 15.082-10.36 28.041 7.647 19.177 18.008-8.866 27.588 13.998 2.71 33.538-24.876 19.54-152.934 75.519-145.13 49.938zm189.335-58.201c19.319-28.824 56.251-10.843 32.843 19.383-20.714 26.74-87.243 54.453-90.495 39.57-2.387-10.93 34.924-25.04 57.652-58.953zm158.873 58.173c-31.45 30.51-58.014 60.244-76.721 59.324-19.437-.956-2.076-38.155 30.927-66.69 23.382-20.218.548-30.477-21.876-18.406-27.098 14.588-48.221 4.827-13.248-27.159 34.973-31.987 88.076-55.525 117.043-49.49 28.964 6.035-40.686 24.468-43.45 48.884-2.715 23.992 39.526-24.442 61.55-8.33 21.378 15.637-25.016 33.533-54.226 61.867zm-352.456-90.707c3.551 17.372-39.795 72.106-92.952 86.536C62.1 318.49 11.863 324.13 9.708 311.584c-2.14-12.472 31.75-21.893 73.85-42.078 20.354-9.758-1.181-17.982-14.432-12.71-43.828 17.432-40.404-9.208-3.4-27.99 28.915-14.677 53.372-22.376 67.86-25.908 21.015-5.123 25.395 8.45 13.397 16.11-23.418 14.95-12.157 28.75 8.806 17.15 13.278-7.349 46.948-46.807 52.694-18.71zm19.557-14.928c-12.426 4.974-15.65-4.143-15.65-11.508 0-7.368 12.428-10.129 19.334-5.986 6.905 4.143 4.97 14.032-3.684 17.494zm349.704-31.421c-4.74 10.969-57.872 12.722-97.381 48.154-14.215 12.748-31.64-2.824-27.503-14.774 4.134-11.95 16.768-15.1 36.544-22.787 19.773-7.69-5.371-17.939-37.998-2.543-18.663 8.805-38.66-6.038-16.125-21.324 18.835-12.776 62.235-16.439 61.05-27.398-.657-6.086-32.162 8.555-37.887-4.566-4.759-10.904 6.519-23.435 38.033-25.98 32.107-2.591 57.077 4.012 57.45 19.785.424 17.856-37.245 22.695-20.32 28.215 17.02 5.548 52.49 3.88 44.137 23.217zM387.048 209.31c-6.345-4.412-6.542-10.039.202-17.845 8.744-10.123 23.336-9.652 27.622-5.95 4.285 3.702-5.403 13.289-9.102 18.812-3.7 5.522-10.552 10.663-18.722 4.983zm.39-60.812c-37.62 8.994-58.788-6.084-50.362-16.385 9.102-11.124 30.888-11.099 32.6-32.878 3.199-40.752 43.285-47.963 26.18-19.513-5.99 9.968 2.807 16.284 7.964 3.54 3.114-7.691 17.882-18.246 25.686-22.149 35.42-17.709 63.66 8.02 38.327 15.171-16.484 4.653-31.294 15.842-40.754 41.467-5.04 13.655-23.117 26.796-39.64 30.747zM499.53 65.917c-14.26-18.23 29.794-19.25 46.063-24.726 16.27-5.477-17.257-8.257-46.752-7.95-29.497.306-25.033-22.347 8.492-33.444 51.508-17.047 97.424.656 57.955 11.967-14.72 4.221-4.257 16.396 12.082 14.64 30.855-3.317 53.723 11.912 48.53 23.81-5.86 13.426-20.36 4.387-35.023 3.384-14.663-1.005-1.97 13.368 17.017 23.264 32.614 16.998 5.33 45.91-22.676 19.773-39.901-37.24-75.01-17.068-85.687-30.718ZM351.59 21.72c21.055-42.995 64.284-38.771 58.215-24.095-6.068 14.676 18.895 2.72 30.458 5.396 11.562 2.673 18.418 22.773-24.515 26.641-52.895 4.77-54.132 56.946-71.796 46.051-12.147-7.489-.167-38.056 7.638-53.994zM35.807 216.293c-35.264 6.061-43.074-6.082-28.392-15.8 9.104-6.03 44.558-25.255 18.664-27.138-25.897-1.884-6.597-26.505 23.815-49.426 30.411-22.922 96.852-35.305 93.95-15.974-2.906 19.33-81.145 28.605-67.056 49.005 6.119 8.861 36.046-27.889 49.332-6.744 13.287 21.146-68.206 62.28-90.312 66.077zM265.33 180.07c-11.256 9.529-34.276-4.232-13.57-23.116 4.793-4.371 17.112-8.557 9.752-12.871-22.235-13.033-90.004 54.665-101.215 32.455-5.39-10.68 21.638-34.564 51.14-49.484 21.779-11.014 13.838-31.192-18.487-11.311-32.326 19.882-38.03-3.553-20.123-18.934 17.906-15.379 132.308-68.645 140.102-40.18 6.067 22.14-57.85 18.085-49.896 32.389 5.839 10.496 50.291-17.374 66.026.726 15.229 17.513-41.775 29.116-38.125 39.617 2.882 8.286 30.159-3.39 30.687 16.896.409 15.721-29.048 10.757-56.29 33.813zM107.185 38.544c-6.843 35.997-70.248 69.556-94.575 78.58-38.277 14.191-78.274 9.46-55.695-2.152 22.578-11.614 81.928-50.07 51.38-52.71-15.034-1.3-32.027-12.453 0-38.906 20.331-16.794 91.188-40 95.058-25.162 3.87 14.839-81.281 40.646-54.833 43.228 26.448 2.58 61.863-19.711 58.665-2.878zm93.37 12.92c-20.66 10.328-39.767 22.835-61.76 27.556-28.684 6.156-.393-32.654 27.142-45.245 12.332-5.638-2.435-13.153-14.302-7.392-32.247 15.654-46.272 3.628-12.971-18.519 8.279-5.507 33.859-18.544 64.92-22.526 31.355-4.023 30.54 7.52 20.837 11.848-13.953 6.222-23.511 19.711 13.899 8.318 66.874-20.365 106.489-16.974 91.265 0-14.22 15.851-62.156 12.535-129.03 45.96z" data-paper-data="{&quot;index&quot;:null}" opacity=".1" style="mix-blend-mode:normal;fill-rule:evenodd;stroke:none;stroke-width:1;stroke-linecap:butt;stroke-linejoin:miter;stroke-miterlimit:10;stroke-dasharray:none;stroke-dashoffset:0"/><path fill="#fff" fill-opacity=".541" d="M212.731 308.183c6.898-22.603 76.685-34.962 77.948-54.676 1.264-19.715-70.877 24.007-76.037 12.423-5.16-11.584 74.504-70.097 116.666-87.202 25.406-10.306 45.449 4.259 16.197 26.802-19.57 15.082-10.36 28.041 7.647 19.177 18.008-8.866 27.588 13.998 2.71 33.538-24.876 19.54-152.934 75.519-145.13 49.938zm189.335-58.201c19.319-28.824 56.251-10.843 32.843 19.383-20.714 26.74-87.243 54.453-90.495 39.57-2.387-10.93 34.924-25.04 57.652-58.953zm158.873 58.173c-31.45 30.51-58.014 60.244-76.721 59.324-19.437-.956-2.076-38.155 30.927-66.69 23.382-20.218.548-30.477-21.876-18.406-27.098 14.588-48.221 4.827-13.248-27.159 34.973-31.987 88.076-55.525 117.043-49.49 28.964 6.035-40.686 24.468-43.45 48.884-2.715 23.992 39.526-24.442 61.55-8.33 21.378 15.637-25.016 33.533-54.226 61.867zm-352.456-90.707c3.551 17.372-39.795 72.106-92.952 86.536C62.1 318.49 11.863 324.13 9.708 311.584c-2.14-12.472 31.75-21.893 73.85-42.078 20.354-9.758-1.181-17.982-14.432-12.71-43.828 17.432-40.404-9.208-3.4-27.99 28.915-14.677 53.372-22.376 67.86-25.908 21.015-5.123 25.395 8.45 13.397 16.11-23.418 14.95-12.157 28.75 8.806 17.15 13.278-7.349 46.948-46.807 52.694-18.71zm19.557-14.928c-12.426 4.974-15.65-4.143-15.65-11.508 0-7.368 12.428-10.129 19.334-5.986 6.905 4.143 4.97 14.032-3.684 17.494zm349.704-31.421c-4.74 10.969-57.872 12.722-97.381 48.154-14.215 12.748-31.64-2.824-27.503-14.774 4.134-11.95 16.768-15.1 36.544-22.787 19.773-7.69-5.371-17.939-37.998-2.543-18.663 8.805-38.66-6.038-16.125-21.324 18.835-12.776 62.235-16.439 61.05-27.398-.657-6.086-32.162 8.555-37.887-4.566-4.759-10.904 6.519-23.435 38.033-25.98 32.107-2.591 57.077 4.012 57.45 19.785.424 17.856-37.245 22.695-20.32 28.215 17.02 5.548 52.49 3.88 44.137 23.217zM387.048 209.31c-6.345-4.412-6.542-10.039.202-17.845 8.744-10.123 23.336-9.652 27.622-5.95 4.285 3.702-5.403 13.289-9.102 18.812-3.7 5.522-10.552 10.663-18.722 4.983zm.39-60.812c-37.62 8.994-58.788-6.084-50.362-16.385 9.102-11.124 30.888-11.099 32.6-32.878 3.199-40.752 43.285-47.963 26.18-19.513-5.99 9.968 2.807 16.284 7.964 3.54 3.114-7.691 17.882-18.246 25.686-22.149 35.42-17.709 63.66 8.02 38.327 15.171-16.484 4.653-31.294 15.842-40.754 41.467-5.04 13.655-23.117 26.796-39.64 30.747zM499.53 65.917c-14.26-18.23 29.794-19.25 46.063-24.726 16.27-5.477-17.257-8.257-46.752-7.95-29.497.306-25.033-22.347 8.492-33.444 51.508-17.047 97.424.656 57.955 11.967-14.72 4.221-4.257 16.396 12.082 14.64 30.855-3.317 53.723 11.912 48.53 23.81-5.86 13.426-20.36 4.387-35.023 3.384-14.663-1.005-1.97 13.368 17.017 23.264 32.614 16.998 5.33 45.91-22.676 19.773-39.901-37.24-75.01-17.068-85.687-30.718ZM351.59 21.72c21.055-42.995 64.284-38.771 58.215-24.095-6.068 14.676 18.895 2.72 30.458 5.396 11.562 2.673 18.418 22.773-24.515 26.641-52.895 4.77-54.132 56.946-71.796 46.051-12.147-7.489-.167-38.056 7.638-53.994zM35.807 216.293c-35.264 6.061-43.074-6.082-28.392-15.8 9.104-6.03 44.558-25.255 18.664-27.138-25.897-1.884-6.597-26.505 23.815-49.426 30.411-22.922 96.852-35.305 93.95-15.974-2.906 19.33-81.145 28.605-67.056 49.005 6.119 8.861 36.046-27.889 49.332-6.744 13.287 21.146-68.206 62.28-90.312 66.077zM265.33 180.07c-11.256 9.529-34.276-4.232-13.57-23.116 4.793-4.371 17.112-8.557 9.752-12.871-22.235-13.033-90.004 54.665-101.215 32.455-5.39-10.68 21.638-34.564 51.14-49.484 21.779-11.014 13.838-31.192-18.487-11.311-32.326 19.882-38.03-3.553-20.123-18.934 17.906-15.379 132.308-68.645 140.102-40.18 6.067 22.14-57.85 18.085-49.896 32.389 5.839 10.496 50.291-17.374 66.026.726 15.229 17.513-41.775 29.116-38.125 39.617 2.882 8.286 30.159-3.39 30.687 16.896.409 15.721-29.048 10.757-56.29 33.813zM107.185 38.544c-6.843 35.997-70.248 69.556-94.575 78.58-38.277 14.191-78.274 9.46-55.695-2.152 22.578-11.614 81.928-50.07 51.38-52.71-15.034-1.3-32.027-12.453 0-38.906 20.331-16.794 91.188-40 95.058-25.162 3.87 14.839-81.281 40.646-54.833 43.228 26.448 2.58 61.863-19.711 58.665-2.878zm93.37 12.92c-20.66 10.328-39.767 22.835-61.76 27.556-28.684 6.156-.393-32.654 27.142-45.245 12.332-5.638-2.435-13.153-14.302-7.392-32.247 15.654-46.272 3.628-12.971-18.519 8.279-5.507 33.859-18.544 64.92-22.526 31.355-4.023 30.54 7.52 20.837 11.848-13.953 6.222-23.511 19.711 13.899 8.318 66.874-20.365 106.489-16.974 91.265 0-14.22 15.851-62.156 12.535-129.03 45.96z" data-paper-data="{&quot;index&quot;:null}" opacity=".1" style="mix-blend-mode:normal;fill-rule:evenodd;stroke:none;stroke-width:1;stroke-linecap:butt;stroke-linejoin:miter;stroke-miterlimit:10;stroke-dasharray:none;stroke-dashoffset:0"/><g style="mix-blend-mode:normal;fill:#fff;fill-rule:evenodd;stroke-linejoin:miter;stroke-miterlimit:10;stroke-dasharray:none;stroke-dashoffset:0"><path stroke="#000" stroke-opacity=".129" stroke-width="10" d="M359.684 112.274c-7.24 14.909-17.97 32.105-28.095 44.848-8.478 10.732-15.279 17.027-21.777 20.097-.756.476-1.497.63-2.418.63-.605 0-1.21-.154-1.965-.476-1.36-.445-2.57-1.52-3.174-2.902-1.813-4.16-4.383-7.677-7.843-10.455-3.491-2.61-7.42-4.606-11.94-5.681-1.375-.307-2.735-1.213-3.49-2.61-.756-1.229-1.043-2.764-.756-4.284 1.813-7.063 6.498-15.353 14.66-25.64 16.034-20.59 48.073-51.127 63.624-52.831 4.232-.615 6.65.767 8.161 1.996 3.945 3.377 7.874 10.762-4.987 37.308zm-65.278 81.535c.906 7.677-1.058 15.2-5.758 21.188-4.066 5.358-9.809 9.058-16.307 10.593-.302.154-.756.308-1.058.308l-1.526.153c-2.857.46-5.577.768-8.313.768-21.747 0-37.026-14.755-43.056-24.412-2.282-3.839-5.743-10.901-2.72-15.354.755-1.074 2.856-3.377 7.39-2.456 14.357 3.07 19.495-3.378 20.417-4.606 9.672-12.744 27.657-15.047 40.034-5.527 6.06 4.76 9.975 11.668 10.897 19.345z"/><path d="M359.684 112.274c-7.24 14.909-17.97 32.105-28.095 44.848-8.478 10.732-15.279 17.027-21.777 20.097-.756.476-1.497.63-2.418.63-.605 0-1.21-.154-1.965-.476-1.36-.445-2.57-1.52-3.174-2.902-1.813-4.16-4.383-7.677-7.843-10.455-3.491-2.61-7.42-4.606-11.94-5.681-1.375-.307-2.735-1.213-3.49-2.61-.756-1.229-1.043-2.764-.756-4.284 1.813-7.063 6.498-15.353 14.66-25.64 16.034-20.59 48.073-51.127 63.624-52.831 4.232-.615 6.65.767 8.161 1.996 3.945 3.377 7.874 10.762-4.987 37.308zm-65.278 81.535c.906 7.677-1.058 15.2-5.758 21.188-4.066 5.358-9.809 9.058-16.307 10.593-.302.154-.756.308-1.058.308l-1.526.153c-2.857.46-5.577.768-8.313.768-21.747 0-37.026-14.755-43.056-24.412-2.282-3.839-5.743-10.901-2.72-15.354.755-1.074 2.856-3.377 7.39-2.456 14.357 3.07 19.495-3.378 20.417-4.606 9.672-12.744 27.657-15.047 40.034-5.527 6.06 4.76 9.975 11.668 10.897 19.345z"/></g><path stroke="#000" stroke-linecap="square" stroke-opacity=".129" stroke-width="10" d="M320.79 194.819a8.685 8.685 0 0 1 8.686-8.686h14.991v-14.991a8.685 8.685 0 1 1 17.37 0v14.991h14.992a8.685 8.685 0 0 1 0 17.371h-14.991v14.992a8.685 8.685 0 0 1-17.371 0v-14.992h-14.991a8.685 8.685 0 0 1-8.686-8.685z" style="mix-blend-mode:normal;fill:#fff;fill-rule:evenodd;stroke-linejoin:miter;stroke-miterlimit:10;stroke-dasharray:none;stroke-dashoffset:0"/><path d="M320.79 194.819a8.685 8.685 0 0 1 8.686-8.686h14.991v-14.991a8.685 8.685 0 1 1 17.37 0v14.991h14.992a8.685 8.685 0 1 1 0 17.371h-14.991v14.992a8.685 8.685 0 0 1-17.371 0v-14.992h-14.991a8.685 8.685 0 0 1-8.686-8.685z" style="mix-blend-mode:normal;fill:#fff;fill-rule:evenodd;stroke-linejoin:miter;stroke-miterlimit:10;stroke-dasharray:none;stroke-dashoffset:0"/></svg>