<svg xmlns="http://www.w3.org/2000/svg" width="600" height="300" viewBox="35 180 600 300"><g stroke-miterlimit="10" data-paper-data="{&quot;isPaintingLayer&quot;:true}"><path fill="#bd42bd" stroke="#000" stroke-width="2" d="M16.49716 502.42587V169.40523h638.83677v333.02064z"/><path fill="#cf63cf" d="M134.69603 334.50841c0-111.38951 90.29904-201.68856 201.68856-201.68856 111.38951 0 201.68856 90.29904 201.68856 201.68856 0 111.38951-90.29904 201.68856-201.68856 201.68856-111.38951 0-201.68856-90.29904-201.68856-201.68856z"/><path fill="#fff" d="M384.89356 235.79004c2.20285 2.60652 3.41385 5.90504 3.41385 9.31889v178.78882c.00115 5.61562-3.25861 10.72082-8.35343 13.08253-5.09483 2.36173-11.09737 1.55013-15.38205-2.0798l-57.28578-48.50896H264.3247c-14.33171 0-25.94987-11.61816-25.94987-25.94987v-51.89974c0-14.33171 11.61816-25.94987 25.94987-25.94987h42.96145l57.29731-48.48589c6.07758-5.13733 15.16833-4.3785 20.3101 1.69538zm27.67985 59.94997c4.07713-2.48052 9.39293-1.1903 11.87927 2.88332 6.6201 10.84128 9.94168 22.97428 9.94168 36.21448 0 13.25174-3.32158 25.38474-9.94168 36.22602-1.56552 2.72883-4.48921 4.39244-7.63485 4.34447-3.14564-.04798-6.0172-1.80006-7.49876-4.57537s-1.33947-6.13622.37102-8.77659c4.93625-8.09636 7.40436-17.10385 7.40436-27.21853 0-10.10315-2.46812-19.11064-7.40436-27.20699-2.48052-4.07713-1.1903-9.39293 2.88332-11.87927z"/><path fill="none" d="M228.82126 228.82127h214.18856v214.18856H228.82126z"/><path fill="none" stroke="#cf63cf" stroke-width="25" d="M92.28664 334.50841c0-134.81158 109.28638-244.09795 244.09796-244.09795s244.09795 109.28638 244.09795 244.09796S471.19618 578.60638 336.3846 578.60638 92.28665 469.32 92.28665 334.50843z"/><path fill="none" stroke="#cf63cf" stroke-width="25" d="M12.50001 335.91555c0-178.61747 144.79807-323.41554 323.41554-323.41554 178.61748 0 323.41554 144.79807 323.41554 323.41554 0 178.61748-144.79806 323.41554-323.41554 323.41554-178.61747 0-323.41554-144.79806-323.41554-323.41554z"/></g></svg>