<svg xmlns="http://www.w3.org/2000/svg" width="600" height="300"><path fill="#0fbd8c" d="M0 300V0h600v300z" style="mix-blend-mode:normal;stroke-linecap:butt;stroke-linejoin:miter;stroke-miterlimit:10;stroke-dasharray:none;stroke-dashoffset:0"/><g fill="#fff" style="mix-blend-mode:normal;stroke-linecap:butt;stroke-linejoin:miter;stroke-miterlimit:10;stroke-dasharray:none;stroke-dashoffset:0"><path stroke="#000" stroke-opacity=".129" stroke-width="10" d="m378.02 209.351-11.203-8.229a1.842 1.842 0 0 1 .967-3.318l37.173-2.56.3.006a1.84 1.84 0 0 1 1.657 2.003l-3.428 36.306a1.835 1.835 0 0 1-3.335.875l-6.753-9.716c-1.926 1.524-4.237 2.976-6.824 4.26-6.75 3.355-15.482 5.618-24.336 5.084-8.94-.538-18.004-3.91-25.308-11.842-2.662-2.887-5.084-6.379-7.169-10.551a1.84 1.84 0 0 1 2.72-2.386c10.746 8.457 20.017 10.32 27.828 8.975 6.981-1.202 12.908-4.974 17.712-8.906z"/><path d="m378.02 209.351-11.203-8.229a1.842 1.842 0 0 1 .967-3.318l37.173-2.56.3.006a1.84 1.84 0 0 1 1.657 2.003l-3.428 36.305a1.835 1.835 0 0 1-3.335.875l-6.753-9.715c-1.926 1.524-4.237 2.976-6.824 4.26-6.75 3.355-15.482 5.618-24.336 5.084-8.94-.538-18.004-3.91-25.308-11.842-2.662-2.887-5.084-6.379-7.169-10.551a1.84 1.84 0 0 1 2.72-2.386c10.746 8.457 20.017 10.32 27.828 8.975 6.981-1.202 12.908-4.974 17.711-8.906z"/></g><g fill="#fff" style="mix-blend-mode:normal;stroke-linecap:butt;stroke-linejoin:miter;stroke-miterlimit:10;stroke-dasharray:none;stroke-dashoffset:0"><path stroke="#000" stroke-opacity=".129" stroke-width="10" d="M382.577 85.652h79.485a4.968 4.968 0 0 1 4.943 5.462l-7.352 73.52a11.592 11.592 0 0 1-11.534 10.438h-51.6a11.592 11.592 0 0 1-11.533-10.438l-7.352-73.52a4.968 4.968 0 0 1 4.943-5.462zm44.71 57.957v-33.118a4.968 4.968 0 1 0-9.936 0v33.118a4.968 4.968 0 1 0 9.936 0zm16.56 0v-33.118a4.968 4.968 0 1 0-9.936 0v33.118a4.968 4.968 0 1 0 9.935 0zm-33.12 0v-33.118a4.968 4.968 0 1 0-9.935 0v33.118a4.968 4.968 0 1 0 9.936 0zm-31.462-52.99h86.108zm0-6.623h86.108a6.624 6.624 0 0 1 0 13.247h-86.108a6.624 6.624 0 1 1 0-13.247zm51.334 1.656v-8.28c0-.915-.742-1.656-1.656-1.656h-13.248c-.914 0-1.656.742-1.656 1.656v8.28zM415.695 65.78h13.248c6.402 0 11.591 5.19 11.591 11.592v18.215h-36.43V77.372c0-6.402 5.19-11.592 11.591-11.592z"/><path d="M382.577 85.652h79.485a4.968 4.968 0 0 1 4.943 5.462l-7.352 73.52a11.592 11.592 0 0 1-11.534 10.438h-51.6a11.592 11.592 0 0 1-11.533-10.438l-7.352-73.52a4.968 4.968 0 0 1 4.943-5.462zm44.71 57.957v-33.118a4.968 4.968 0 1 0-9.936 0v33.118a4.968 4.968 0 1 0 9.936 0zm16.56 0v-33.118a4.968 4.968 0 1 0-9.936 0v33.118a4.968 4.968 0 1 0 9.935 0zm-33.12 0v-33.118a4.968 4.968 0 1 0-9.935 0v33.118a4.968 4.968 0 1 0 9.936 0zm-31.462-52.99h86.108zm0-6.623h86.108a6.624 6.624 0 0 1 0 13.247h-86.108a6.624 6.624 0 1 1 0-13.247zm51.334 1.656v-8.28c0-.915-.742-1.656-1.656-1.656h-13.248c-.914 0-1.656.742-1.656 1.656v8.28zM415.695 65.78h13.248c6.402 0 11.591 5.19 11.591 11.591v18.215h-36.43V77.372c0-6.402 5.19-11.592 11.591-11.592z"/></g><path fill="#fff" fill-opacity=".733" d="M383.769 306.683c7.803 25.58-120.255-30.398-145.132-49.937-24.877-19.541-15.297-42.405 2.71-33.539 18.008 8.864 27.219-4.095 7.648-19.177-29.252-22.543-9.21-37.108 16.197-26.802 42.162 17.105 121.826 75.618 116.666 87.202-5.16 11.584-77.301-32.138-76.037-12.423 1.263 19.714 71.05 32.073 77.948 54.676zm-131.683.752c-3.252 14.883-69.781-12.83-90.495-39.57-23.408-30.226 13.524-48.207 32.843-19.383 22.728 33.913 60.039 48.023 57.652 58.953zm-216.524-.78c-29.21-28.334-75.604-46.23-54.227-61.867 22.025-16.112 64.266 32.322 61.551 8.33-2.764-24.416-72.414-42.849-43.45-48.884 28.967-6.035 82.07 17.503 117.043 49.49 34.973 31.986 13.85 41.747-13.248 27.16-22.424-12.072-45.258-1.813-21.876 18.405 33.003 28.535 50.364 65.734 30.927 66.69-18.707.92-45.272-28.815-76.72-59.324zm352.455-90.707c5.746-28.097 39.416 11.361 52.694 18.71 20.963 11.6 32.224-2.2 8.806-17.15-11.998-7.66-7.618-21.233 13.396-16.11 14.489 3.532 38.946 11.23 67.861 25.908 37.004 18.782 40.428 45.422-3.4 27.99-13.25-5.272-34.786 2.952-14.431 12.71 42.1 20.185 75.99 29.606 73.85 42.078-2.156 12.545-52.392 6.905-105.824-7.6-53.157-14.43-96.503-69.164-92.952-86.536zM368.46 201.02c-8.654-3.462-10.59-13.351-3.684-17.494 6.906-4.143 19.334-1.382 19.334 5.986 0 7.365-3.224 16.482-15.65 11.508zM18.756 169.598c-8.353-19.337 27.118-17.669 44.137-23.217 16.925-5.52-20.744-10.359-20.32-28.215.373-15.773 25.343-22.376 57.45-19.784 31.514 2.544 42.792 15.075 38.033 25.98-5.725 13.12-37.23-1.521-37.886 4.565-1.186 10.96 42.214 14.622 61.05 27.398 22.534 15.286 2.537 30.13-16.126 21.324-32.627-15.396-57.771-5.147-37.998 2.543 19.776 7.688 32.41 10.837 36.544 22.787 4.136 11.95-13.288 27.522-27.503 14.774-39.51-35.432-92.641-37.185-97.38-48.154zm171.974 33.23c-3.699-5.524-13.387-15.11-9.102-18.813 4.286-3.702 18.878-4.173 27.622 5.95 6.744 7.806 6.547 13.433.202 17.845-8.17 5.68-15.022.54-18.722-4.983zm18.332-55.83c-16.524-3.95-34.602-17.092-39.641-30.747-9.46-25.625-24.27-36.814-40.754-41.467-25.334-7.15 2.907-32.88 38.327-15.17 7.804 3.902 22.572 14.457 25.686 22.148 5.157 12.744 13.955 6.428 7.963-3.54-17.104-28.45 22.982-21.239 26.182 19.513 1.711 21.78 23.497 21.754 32.6 32.878 8.425 10.301-12.743 25.379-50.363 16.385zM96.969 64.417c-10.676 13.65-45.786-6.523-85.687 30.718-28.006 26.138-55.29-2.775-22.676-19.773 18.988-9.896 31.68-24.269 17.017-23.264C-9.041 53.1-23.541 62.14-29.401 48.713c-5.192-11.897 17.676-27.126 48.53-23.81 16.34 1.757 26.803-10.418 12.083-14.639C-8.257-1.046 37.66-18.75 89.167-1.703c33.525 11.097 37.989 33.75 8.492 33.443-29.495-.306-63.022 2.474-46.752 7.951 16.27 5.477 60.323 6.495 46.063 24.726zm147.942-44.198c7.805 15.938 19.785 46.505 7.638 53.994-17.664 10.895-18.9-41.281-71.796-46.05-42.933-3.87-36.077-23.969-24.515-26.642 11.563-2.676 36.526 9.28 30.458-5.396-6.069-14.676 37.16-18.9 58.215 24.095zm315.781 194.574c-22.106-3.797-103.599-44.931-90.312-66.077 13.286-21.145 43.213 15.605 49.332 6.744 14.089-20.4-64.15-29.675-67.055-49.005-2.903-19.33 63.538-6.948 93.95 15.974 30.411 22.92 49.711 47.542 23.814 49.426-25.894 1.883 9.56 21.109 18.664 27.137 14.682 9.72 6.872 21.862-28.392 15.801zM331.17 178.57c-27.242-23.056-56.698-18.092-56.29-33.813.528-20.285 27.805-8.61 30.687-16.896 3.65-10.5-53.354-22.104-38.125-39.617 15.735-18.1 60.187 9.77 66.026-.726 7.954-14.304-55.963-10.249-49.896-32.388 7.794-28.466 122.196 24.8 140.102 40.179 17.907 15.38 12.203 38.816-20.123 18.934-32.325-19.881-40.266.297-18.487 11.31 29.502 14.921 56.53 38.805 51.14 49.485-11.211 22.21-78.98-45.488-101.215-32.455-7.36 4.314 4.96 8.5 9.752 12.871 20.706 18.884-2.314 32.645-13.57 23.116zM547.98 39.922c26.448-2.582-58.703-28.39-54.833-43.228 3.87-14.838 74.727 8.368 95.057 25.162 32.028 26.453 15.035 37.607 0 38.906-30.547 2.64 28.803 41.096 51.381 52.71 22.579 11.612-17.418 16.343-55.695 2.151-24.327-9.023-87.732-42.582-94.575-78.58-3.198-16.832 32.217 5.459 58.665 2.879zM395.946 49.965c-66.875-33.426-114.812-30.11-129.031-45.96-15.224-16.975 24.39-20.366 91.265 0 37.41 11.392 27.852-2.097 13.899-8.319-9.703-4.327-10.518-15.87 20.837-11.848 31.061 3.982 56.641 17.02 64.92 22.526 33.3 22.147 19.276 34.173-12.971 18.52-11.867-5.762-26.634 1.753-14.302 7.392 27.535 12.59 55.826 51.4 27.142 45.244-21.993-4.72-41.1-17.228-61.76-27.555z" data-paper-data="{&quot;index&quot;:null}" opacity=".1" style="mix-blend-mode:normal;fill-rule:evenodd;stroke:none;stroke-width:1;stroke-linecap:butt;stroke-linejoin:miter;stroke-miterlimit:10;stroke-dasharray:none;stroke-dashoffset:0"/><path fill="#fff" fill-opacity=".541" d="M383.769 306.683c7.803 25.58-120.255-30.398-145.132-49.937-24.877-19.541-15.297-42.405 2.71-33.539 18.008 8.864 27.219-4.095 7.648-19.177-29.252-22.543-9.21-37.108 16.197-26.802 42.162 17.105 121.826 75.618 116.666 87.202-5.16 11.584-77.301-32.138-76.037-12.423 1.263 19.714 71.05 32.073 77.948 54.676zm-131.683.752c-3.252 14.883-69.781-12.83-90.495-39.57-23.408-30.226 13.524-48.207 32.843-19.383 22.728 33.913 60.039 48.023 57.652 58.953zm-216.524-.78c-29.21-28.334-75.604-46.23-54.227-61.867 22.025-16.112 64.266 32.322 61.551 8.33-2.764-24.416-72.414-42.849-43.45-48.884 28.967-6.035 82.07 17.503 117.043 49.49 34.973 31.986 13.85 41.747-13.248 27.16-22.424-12.072-45.258-1.813-21.876 18.405 33.003 28.535 50.364 65.734 30.927 66.69-18.707.92-45.272-28.815-76.72-59.324zm352.455-90.707c5.746-28.097 39.416 11.361 52.694 18.71 20.963 11.6 32.224-2.2 8.806-17.15-11.998-7.66-7.618-21.233 13.396-16.11 14.489 3.532 38.946 11.23 67.861 25.908 37.004 18.782 40.428 45.422-3.4 27.99-13.25-5.272-34.786 2.952-14.431 12.71 42.1 20.185 75.99 29.606 73.85 42.078-2.156 12.545-52.392 6.905-105.824-7.6-53.157-14.43-96.503-69.164-92.952-86.536zM368.46 201.02c-8.654-3.462-10.59-13.351-3.684-17.494 6.906-4.143 19.334-1.382 19.334 5.986 0 7.365-3.224 16.482-15.65 11.508zM18.756 169.598c-8.353-19.337 27.118-17.669 44.137-23.217 16.925-5.52-20.744-10.359-20.32-28.215.373-15.773 25.343-22.376 57.45-19.784 31.514 2.544 42.792 15.075 38.033 25.98-5.725 13.12-37.23-1.521-37.886 4.565-1.186 10.96 42.214 14.622 61.05 27.398 22.534 15.286 2.537 30.13-16.126 21.324-32.627-15.396-57.771-5.147-37.998 2.543 19.776 7.688 32.41 10.837 36.544 22.787 4.136 11.95-13.288 27.522-27.503 14.774-39.51-35.432-92.641-37.185-97.38-48.154zm171.974 33.23c-3.699-5.524-13.387-15.11-9.102-18.813 4.286-3.702 18.878-4.173 27.622 5.95 6.744 7.806 6.547 13.433.202 17.845-8.17 5.68-15.022.54-18.722-4.983zm18.332-55.83c-16.524-3.95-34.602-17.092-39.641-30.747-9.46-25.625-24.27-36.814-40.754-41.467-25.334-7.15 2.907-32.88 38.327-15.17 7.804 3.902 22.572 14.457 25.686 22.148 5.157 12.744 13.955 6.428 7.963-3.54-17.104-28.45 22.982-21.239 26.182 19.513 1.711 21.78 23.497 21.754 32.6 32.878 8.425 10.301-12.743 25.379-50.363 16.385zM96.969 64.417c-10.676 13.65-45.786-6.523-85.687 30.718-28.006 26.138-55.29-2.775-22.676-19.773 18.988-9.896 31.68-24.269 17.017-23.264C-9.041 53.1-23.541 62.14-29.401 48.713c-5.192-11.897 17.676-27.126 48.53-23.81 16.34 1.757 26.803-10.418 12.083-14.639C-8.257-1.046 37.66-18.75 89.167-1.703c33.525 11.097 37.989 33.75 8.492 33.443-29.495-.306-63.022 2.474-46.752 7.951 16.27 5.477 60.323 6.495 46.063 24.726zm147.942-44.198c7.805 15.938 19.785 46.505 7.638 53.994-17.664 10.895-18.9-41.281-71.796-46.05-42.933-3.87-36.077-23.969-24.515-26.642 11.563-2.676 36.526 9.28 30.458-5.396-6.069-14.676 37.16-18.9 58.215 24.095zm315.781 194.574c-22.106-3.797-103.599-44.931-90.312-66.077 13.286-21.145 43.213 15.605 49.332 6.744 14.089-20.4-64.15-29.675-67.055-49.005-2.903-19.33 63.538-6.948 93.95 15.974 30.411 22.92 49.711 47.542 23.814 49.426-25.894 1.883 9.56 21.109 18.664 27.137 14.682 9.72 6.872 21.862-28.392 15.801zM331.17 178.57c-27.242-23.056-56.698-18.092-56.29-33.813.528-20.285 27.805-8.61 30.687-16.896 3.65-10.5-53.354-22.104-38.125-39.617 15.735-18.1 60.187 9.77 66.026-.726 7.954-14.304-55.963-10.249-49.896-32.388 7.794-28.466 122.196 24.8 140.102 40.179 17.907 15.38 12.203 38.816-20.123 18.934-32.325-19.881-40.266.297-18.487 11.31 29.502 14.921 56.53 38.805 51.14 49.485-11.211 22.21-78.98-45.488-101.215-32.455-7.36 4.314 4.96 8.5 9.752 12.871 20.706 18.884-2.314 32.645-13.57 23.116zM547.98 39.922c26.448-2.582-58.703-28.39-54.833-43.228 3.87-14.838 74.727 8.368 95.057 25.162 32.028 26.453 15.035 37.607 0 38.906-30.547 2.64 28.803 41.096 51.381 52.71 22.579 11.612-17.418 16.343-55.695 2.151-24.327-9.023-87.732-42.582-94.575-78.58-3.198-16.832 32.217 5.459 58.665 2.879zM395.946 49.965c-66.875-33.426-114.812-30.11-129.031-45.96-15.224-16.975 24.39-20.366 91.265 0 37.41 11.392 27.852-2.097 13.899-8.319-9.703-4.327-10.518-15.87 20.837-11.848 31.061 3.982 56.641 17.02 64.92 22.526 33.3 22.147 19.276 34.173-12.971 18.52-11.867-5.762-26.634 1.753-14.302 7.392 27.535 12.59 55.826 51.4 27.142 45.244-21.993-4.72-41.1-17.228-61.76-27.555z" data-paper-data="{&quot;index&quot;:null}" opacity=".1" style="mix-blend-mode:normal;fill-rule:evenodd;stroke:none;stroke-width:1;stroke-linecap:butt;stroke-linejoin:miter;stroke-miterlimit:10;stroke-dasharray:none;stroke-dashoffset:0"/><g style="mix-blend-mode:normal;stroke-linecap:butt;stroke-linejoin:miter;stroke-miterlimit:10;stroke-dasharray:none;stroke-dashoffset:0"><path fill="#ff791a" stroke="#000" stroke-opacity=".129" stroke-width="16.5" d="M174.777 99.333h102.446c28.259 0 51.167 22.908 51.167 51.167s-22.908 51.167-51.167 51.167H174.777c-28.259 0-51.167-22.908-51.167-51.167s22.908-51.167 51.167-51.167z"/><path fill="#ff791a" stroke="#cc6115" stroke-width="5" d="M174.777 99.333h102.446c28.259 0 51.167 22.908 51.167 51.167s-22.908 51.167-51.167 51.167H174.777c-28.259 0-51.167-22.908-51.167-51.167s22.908-51.167 51.167-51.167z"/><g aria-label="variable" style="font-weight:500;font-size:16px;font-family:&quot;Helvetica Neue&quot;,Helvetica,sans-serif;fill:#fff"><path d="m167.272 164.06 8.227-21.45h-3.847l-6.058 17.397-5.731-17.397h-3.848l7.532 21.45ZM197.276 162.053c-.369.082-.532.082-.737.082-1.187 0-1.842-.614-1.842-1.678V147.85c0-3.807-2.783-5.854-8.064-5.854-3.152 0-5.649.9-7.122 2.497-.983 1.105-1.392 2.333-1.474 4.462h3.439c.286-2.62 1.842-3.807 5.034-3.807 3.111 0 4.79 1.146 4.79 3.193v.9c-.041 1.474-.778 2.006-3.562 2.374-4.83.614-5.567.778-6.876 1.31-2.497 1.065-3.766 2.948-3.766 5.731 0 3.889 2.701 6.345 7.04 6.345 2.702 0 4.871-.942 7.286-3.152.246 2.21 1.31 3.152 3.52 3.152.737 0 1.188-.082 2.334-.369zm-5.976-4.748c0 1.146-.328 1.842-1.351 2.784-1.392 1.269-3.07 1.924-5.076 1.924-2.66 0-4.216-1.27-4.216-3.439 0-2.251 1.474-3.397 5.158-3.93 3.643-.49 4.338-.654 5.485-1.187zM200.96 142.61v21.45h3.438v-11.135c.041-5.157 2.17-7.45 6.877-7.327v-3.48c-.573-.08-.9-.122-1.31-.122-2.21 0-3.888 1.31-5.853 4.503v-3.889zM217.947 142.61h-3.397v21.45h3.397zm0-8.391h-3.438v4.298h3.438zM242.793 162.053c-.368.082-.532.082-.736.082-1.187 0-1.842-.614-1.842-1.678V147.85c0-3.807-2.784-5.854-8.064-5.854-3.152 0-5.649.9-7.123 2.497-.982 1.105-1.391 2.333-1.473 4.462h3.438c.287-2.62 1.842-3.807 5.035-3.807 3.111 0 4.79 1.146 4.79 3.193v.9c-.042 1.474-.778 2.006-3.562 2.374-4.83.614-5.567.778-6.877 1.31-2.497 1.065-3.766 2.948-3.766 5.731 0 3.889 2.702 6.345 7.04 6.345 2.703 0 4.872-.942 7.287-3.152.246 2.21 1.31 3.152 3.52 3.152.737 0 1.187-.082 2.333-.369zm-5.976-4.748c0 1.146-.327 1.842-1.35 2.784-1.392 1.269-3.07 1.924-5.076 1.924-2.661 0-4.216-1.27-4.216-3.439 0-2.251 1.473-3.397 5.157-3.93 3.643-.49 4.34-.654 5.485-1.187zM245.863 134.219v29.84h3.07v-2.742c1.638 2.497 3.807 3.684 6.795 3.684 5.65 0 9.333-4.626 9.333-11.748 0-6.959-3.48-11.257-9.169-11.257-2.947 0-5.035 1.105-6.631 3.52V134.22zm9.374 10.97c3.807 0 6.263 3.316 6.263 8.432 0 4.871-2.538 8.187-6.263 8.187-3.643 0-5.976-3.275-5.976-8.31 0-5.034 2.333-8.31 5.976-8.31zM272.634 134.219h-3.439v29.84h3.439zM296.498 154.48c0-3.274-.246-5.239-.86-6.835-1.391-3.52-4.666-5.649-8.678-5.649-5.976 0-9.824 4.544-9.824 11.625 0 7.082 3.684 11.38 9.743 11.38 4.912 0 8.309-2.784 9.169-7.45h-3.439c-.941 2.824-2.865 4.298-5.608 4.298-2.17 0-4.011-.983-5.157-2.784-.819-1.228-1.105-2.456-1.146-4.584zm-15.719-2.783c.287-3.97 2.702-6.549 6.14-6.549 3.48 0 5.895 2.702 5.895 6.55z"/></g></g></svg>