<svg version="1.1" xmlns="http://www.w3.org/2000/svg" xmlns:xlink="http://www.w3.org/1999/xlink" width="123.44433" height="123.29845" viewBox="0,0,123.44433,123.29845"><g transform="translate(-177.83643,-119.4539)"><g data-paper-data="{&quot;isPaintingLayer&quot;:true}" stroke-linejoin="miter" stroke-miterlimit="10" stroke-dasharray="" stroke-dashoffset="0" style="mix-blend-mode: normal"><path d="M300.27503,240.33522l-120.02375,-119.82696l60.33521,-0.05399l59.54575,59.54575z" fill="#618cff" fill-rule="nonzero" stroke="#4781d1" stroke-width="2" stroke-linecap="butt"/><path d="M225.63665,133.464c1.5563,0.89795 3.47302,0.89795 5.02932,0l3.53969,-2.03964c1.67505,-0.96253 3.54594,0.90836 2.58133,2.58133l-2.03756,3.54178c-0.89795,1.5563 -0.89795,3.47302 -0.00208,5.02723l2.03964,3.53969c0.96253,1.67505 -0.90836,3.54594 -2.58341,2.58341l-3.53969,-2.03964c-1.55421,-0.89586 -3.47094,-0.89586 -5.02515,0l-3.54178,2.03756c-1.67297,0.96461 -3.54386,-0.90628 -2.58133,-2.58133l2.03964,-3.53969c0.89586,-1.55421 0.89586,-3.47094 -0.00208,-5.02723l-2.03964,-3.53969c-0.96253,-1.67505 0.90836,-3.54594 2.58341,-2.58341zM212.0833,137.66021c0.56764,0.32523 1.26455,0.32725 1.83017,0l1.28677,-0.74136c0.60601,-0.35149 1.28678,0.32928 0.93933,0.93933l-0.74338,1.28475c-0.32523,0.56764 -0.32523,1.26253 0,1.83017l0.74338,1.28879c0.35149,0.60601 -0.32928,1.28678 -0.93933,0.93933l-1.28677,-0.7454c-0.56764,-0.32523 -1.26253,-0.32523 -1.83017,0l-1.28475,0.74338c-0.61207,0.34947 -1.29284,-0.3313 -0.93933,-0.93933l0.74136,-1.28677c0.32725,-0.56562 0.32523,-1.26253 0,-1.83017l-0.74338,-1.28475c-0.34745,-0.61005 0.33332,-1.29082 0.93933,-0.93933zM242.39086,137.65941c0.56783,0.32533 1.26093,0.32736 1.82673,0l1.28923,-0.73958c0.60622,-0.35161 1.2872,0.32937 0.93762,0.93762l-0.74161,1.2872c-0.32736,0.5658 -0.32331,1.26093 0.00202,1.82875l0.73958,1.28923c0.35161,0.60622 -0.32937,1.2872 -0.93762,0.93762l-1.2872,-0.74161c-0.5658,-0.32736 -1.26497,-0.32736 -1.82875,-0.00202l-1.2872,0.74161c-0.61026,0.3516 -1.29124,-0.32938 -0.93762,-0.93762l0.73958,-1.28923c0.32533,-0.56378 0.32736,-1.26093 0,-1.82673l-0.74161,-1.2872c-0.34959,-0.60825 0.33139,-1.28923 0.93762,-0.93762zM228.1513,127.18005c-0.62733,0.62733 -1.64561,0.62733 -2.27294,0c-0.62733,-0.62733 -0.62733,-1.64561 0,-2.27294c0.62733,-0.62733 1.64561,-0.62733 2.27294,0c0.62733,0.62733 0.62733,1.64561 0,2.27294zM230.80306,155.59178c-1.04807,1.04807 -2.74268,1.04555 -3.78823,0c-1.04807,-1.04807 -1.04807,-2.74016 0,-3.78823c1.04555,-1.04555 2.74016,-1.04807 3.78823,0c1.04555,1.04555 1.04555,2.74268 0,3.78823z" fill="#000000" fill-rule="evenodd" stroke="none" stroke-width="1" stroke-linecap="butt"/><path d="M236.62479,163.03029c-0.66777,-0.66777 -1.11294,-1.46273 -1.33553,-2.38487c-0.21199,-0.91155 -0.19609,-1.82841 0.0477,-2.75055c0.24379,-0.92215 0.71017,-1.72771 1.39913,-2.41667l9.5395,-9.4441c0.053,-0.053 0.10599,-0.053 0.15899,0l2.11459,2.11459c0.053,0.053 0.053,0.106 0,0.159l-9.4918,9.4918c-0.42398,0.42398 -0.65186,0.91686 -0.68366,1.47863c-0.0212,0.57237 0.16429,1.05464 0.55647,1.44682c0.41338,0.41338 0.90095,0.60417 1.46272,0.57237c0.57237,-0.0212 1.07055,-0.24379 1.49453,-0.66777l9.4918,-9.4918c0.053,-0.053 0.10599,-0.053 0.15899,0l2.13049,2.13049c0.04239,0.04239 0.0371,0.09009 -0.0159,0.14309l-9.44411,9.5395c-0.71016,0.71016 -1.52632,1.18714 -2.44847,1.43093c-0.91155,0.23318 -1.8231,0.24379 -2.73466,0.0318c-0.90096,-0.22259 -1.70121,-0.68366 -2.40078,-1.38323zM242.16152,168.18544c-0.06359,-0.06359 -0.06359,-0.1272 0,-0.19079l13.06912,-13.00552c0.053,-0.053 0.10599,-0.053 0.15899,0l3.64091,3.64091c1.16594,1.16594 1.73301,2.44317 1.70121,3.83169c-0.0318,1.38852 -0.65186,2.68696 -1.8602,3.8953c-0.90095,0.90095 -1.86021,1.49982 -2.87775,1.79661c-1.00695,0.30739 -1.9768,0.35508 -2.90955,0.14309c-0.92215,-0.22259 -1.71711,-0.66777 -2.38488,-1.33553l-1.44682,-1.44682l-4.78565,4.78565c-0.06359,0.06359 -0.1272,0.06359 -0.19079,0zM251.54203,163.2249l1.44682,1.44682c0.40278,0.40278 0.94335,0.56177 1.62172,0.47698c0.68896,-0.09539 1.34613,-0.45578 1.9715,-1.08115c0.48757,-0.48757 0.75786,-1.02284 0.81086,-1.60581c0.053,-0.58297 -0.15369,-1.10764 -0.62007,-1.57402l-1.46272,-1.43093zM250.83703,176.86095c-0.06359,-0.06359 -0.06359,-0.1272 0,-0.19079l13.06911,-13.00552c0.053,-0.053 0.10599,-0.053 0.15899,0l3.56142,3.52962c0.71016,0.68896 1.18184,1.48922 1.41503,2.40078c0.24379,0.92215 0.24379,1.8443 0,2.76645c-0.23318,0.91155 -0.69426,1.7118 -1.38323,2.40077l-5.45342,5.45342c-0.73136,0.73136 -1.57932,1.21894 -2.54386,1.46273c-0.95395,0.25439 -1.9079,0.26499 -2.86185,0.0318c-0.94335,-0.24379 -1.79661,-0.73666 -2.55977,-1.47862zM255.38419,176.73376l1.17654,1.17654c0.47697,0.47698 1.03875,0.71016 1.68531,0.69956c0.65716,0 1.21364,-0.22789 1.66942,-0.68366l5.46931,-5.46931c0.40278,-0.40278 0.59887,-0.90625 0.58827,-1.51042c0,-0.59357 -0.20668,-1.08643 -0.62007,-1.47862l-1.33553,-1.30373zM258.76555,184.59869l15.3904,-10.68424c0.0636,-0.0424 0.12189,-0.0371 0.17489,0.0159l2.75055,2.75055c0.053,0.053 0.0583,0.1113 0.0159,0.17489l-10.77963,15.295c-0.04239,0.0848 -0.0954,0.09539 -0.159,0.0318l-2.11458,-2.11459c-0.053,-0.053 -0.053,-0.11659 0,-0.19079l1.17654,-1.58992l-2.57567,-2.57566l-1.60582,1.16063c-0.07419,0.053 -0.13779,0.053 -0.19079,0l-2.09869,-2.09868c-0.053,-0.053 -0.0477,-0.1113 0.0159,-0.17489zM265.04572,184.04222l1.8284,1.82841l4.54716,-6.10528l0.60417,-0.82675l-0.79496,0.63596zM268.40827,194.4322c-0.053,-0.053 -0.0477,-0.1113 0.0159,-0.17489l10.82733,-10.82733l-2.46437,-2.46437c-0.0636,-0.06359 -0.0636,-0.1272 0,-0.19079l2.13049,-2.09869c0.053,-0.053 0.10599,-0.053 0.15899,0l7.21822,7.21822c0.0636,0.06359 0.0689,0.12189 0.0159,0.17489l-2.11459,2.11459c-0.0636,0.06359 -0.12189,0.0689 -0.17489,0.0159l-2.48027,-2.48027l-10.81143,10.84323c-0.0636,0.06359 -0.12189,0.0689 -0.17489,0.0159zM274.18923,200.21316c-0.053,-0.053 -0.0477,-0.1113 0.0159,-0.17489l13.05322,-13.02142c0.053,-0.053 0.106,-0.053 0.159,0l6.08938,6.08938c0.053,0.053 0.04769,0.1113 -0.0159,0.17489l-2.13049,2.13049c-0.04239,0.04239 -0.09009,0.0371 -0.14309,-0.0159l-3.89529,-3.8953l-2.97315,2.97315l3.8953,3.8953c0.053,0.053 0.05829,0.10069 0.0159,0.14309l-2.13049,2.16229c-0.053,0.053 -0.10599,0.053 -0.15899,0l-3.9112,-3.91119l-3.32292,3.32292l3.9112,3.91119c0.053,0.053 0.04769,0.1113 -0.0159,0.17489l-2.16229,2.16228c-0.053,0.053 -0.10599,0.053 -0.15899,0z" fill="#000000" fill-rule="nonzero" stroke="none" stroke-width="1" stroke-linecap="square"/></g></g></svg>