<svg version="1.1" xmlns="http://www.w3.org/2000/svg" xmlns:xlink="http://www.w3.org/1999/xlink" width="23.2297" height="30.28447" viewBox="0,0,23.2297,30.28447"><g transform="translate(-228.3852,-165.33038)"><g data-paper-data="{&quot;isPaintingLayer&quot;:true}" fill-rule="nonzero" stroke-linejoin="miter" stroke-miterlimit="10" stroke-dasharray="" stroke-dashoffset="0" style="mix-blend-mode: normal"><path d="M245.04411,180.05544h-10.08945c-1.24371,0 -2.25312,-1.00714 -2.25312,-2.25312v0v-3.76496c0,-1.24371 1.00939,-2.25312 2.25312,-2.25312v0h10.08945c1.24599,0 2.25312,1.00938 2.25312,2.25312v0v3.76496c0,1.24598 -1.00713,2.25312 -2.25312,2.25312" fill="#b3b3b3" stroke="#b3b3b3" stroke-width="1" stroke-linecap="butt"/><path d="M244.17284,188.98209h-8.34554c-1.1108,0 -2.01206,-0.90126 -2.01206,-2.01429v0v-1.64254c0,-3.41572 2.76908,-6.18481 6.18481,-6.18481c3.41572,0 6.18481,2.76908 6.18481,6.18481v0v1.64254c0,1.11303 -0.90126,2.01429 -2.01204,2.01429" fill="#b3b3b3" stroke="#b3b3b3" stroke-width="1" stroke-linecap="butt"/><path d="M241.80751,193.30783c0,0.99589 -0.80889,1.80702 -1.80702,1.80702c-0.99815,0 -1.80702,-0.8111 -1.80702,-1.80702c0,-0.99813 0.80887,-1.80925 1.80702,-1.80925c0.99813,0 1.80702,0.81112 1.80702,1.80925" fill="#b3b3b3" stroke="#b3b3b3" stroke-width="1" stroke-linecap="butt"/><path d="M242.25634,168.08575c0,1.24824 -1.00938,2.25762 -2.25537,2.25762c-1.24822,0 -2.25762,-1.00938 -2.25762,-2.25762c0,-1.24598 1.00939,-2.25537 2.25762,-2.25537c1.24599,0 2.25537,1.00939 2.25537,2.25537" fill="#b3b3b3" stroke="#b3b3b3" stroke-width="1" stroke-linecap="butt"/><path d="M240.00097,168.07743v25.2304" fill="#b3b3b3" stroke="#b3b3b3" stroke-width="0.75" stroke-linecap="butt"/><path d="M230.71589,189.34077c0,-5.12808 4.15698,-9.28508 9.28508,-9.28508c5.12583,0 9.28285,4.157 9.28285,9.28508" fill="none" stroke="#b3b3b3" stroke-width="1" stroke-linecap="square"/><path d="M247.45359,191.17142c0,-1.01164 0.82015,-1.8295 1.82952,-1.8295c1.01391,0 1.83179,0.81788 1.83179,1.8295" fill="#b3b3b3" stroke="#b3b3b3" stroke-width="1" stroke-linecap="square"/><path d="M228.8852,191.17142c0,-1.01164 0.8179,-1.8295 1.82952,-1.8295c1.01166,0 1.83179,0.81788 1.83179,1.8295" fill="#b3b3b3" stroke="#b3b3b3" stroke-width="1" stroke-linecap="square"/><path d="M243.54128,177.1665h-7.08379c-0.6872,0 -1.24371,-0.55653 -1.24371,-1.24599c0,-0.6872 0.55651,-1.24599 1.24371,-1.24599v0h7.08379c0.68945,0 1.24824,0.5588 1.24824,1.24599c0,0.68945 -0.5588,1.24599 -1.24824,1.24599" fill="#000000" stroke="none" stroke-width="1" stroke-linecap="butt"/></g></g></svg>
