<svg version="1.1" xmlns="http://www.w3.org/2000/svg" xmlns:xlink="http://www.w3.org/1999/xlink" width="33.33333" height="33.33333" viewBox="0,0,33.33333,33.33333"><g transform="translate(-223.33333,-163.33334)"><g data-paper-data="{&quot;isPaintingLayer&quot;:true}" fill-rule="nonzero" stroke-linejoin="miter" stroke-miterlimit="10" stroke-dasharray="" stroke-dashoffset="0" style="mix-blend-mode: normal"><path d="M223.33334,196.66668v-33.33333h33.33333v33.33333z" fill="#000000" stroke="none" stroke-width="0" stroke-linecap="butt"/><path d="M245.04406,179.58283h-10.08945c-1.24371,0 -2.25312,-1.00714 -2.25312,-2.25312v0v-3.76496c0,-1.24371 1.00939,-2.25312 2.25312,-2.25312v0h10.08945c1.24599,0 2.25312,1.00938 2.25312,2.25312v0v3.76496c0,1.24598 -1.00713,2.25312 -2.25312,2.25312" fill="#ffffff" stroke="#ffffff" stroke-width="1" stroke-linecap="butt"/><path d="M244.17279,188.50947h-8.34554c-1.1108,0 -2.01206,-0.90126 -2.01206,-2.01429v0v-1.64254c0,-3.41572 2.76908,-6.18481 6.18481,-6.18481c3.41572,0 6.18481,2.76908 6.18481,6.18481v0v1.64254c0,1.11303 -0.90126,2.01429 -2.01204,2.01429" fill="#ffffff" stroke="#ffffff" stroke-width="1" stroke-linecap="butt"/><path d="M241.80746,192.83521c0,0.99589 -0.80889,1.80702 -1.80702,1.80702c-0.99815,0 -1.80702,-0.8111 -1.80702,-1.80702c0,-0.99813 0.80887,-1.80925 1.80702,-1.80925c0.99813,0 1.80702,0.81112 1.80702,1.80925" fill="#ffffff" stroke="#ffffff" stroke-width="1" stroke-linecap="butt"/><path d="M242.25629,167.61313c0,1.24824 -1.00938,2.25762 -2.25537,2.25762c-1.24822,0 -2.25762,-1.00938 -2.25762,-2.25762c0,-1.24598 1.00939,-2.25537 2.25762,-2.25537c1.24599,0 2.25537,1.00939 2.25537,2.25537" fill="#ffffff" stroke="#ffffff" stroke-width="1" stroke-linecap="butt"/><path d="M240.00092,167.60481v25.2304" fill="#ffffff" stroke="#ffffff" stroke-width="0.75" stroke-linecap="butt"/><path d="M230.71584,188.86815c0,-5.12808 4.15698,-9.28508 9.28508,-9.28508c5.12583,0 9.28285,4.157 9.28285,9.28508" fill="#ffffff" stroke="#ffffff" stroke-width="1" stroke-linecap="square"/><path d="M247.45354,190.69881c0,-1.01164 0.82015,-1.8295 1.82952,-1.8295c1.01391,0 1.83179,0.81788 1.83179,1.8295" fill="#ffffff" stroke="#ffffff" stroke-width="1" stroke-linecap="square"/><path d="M228.88515,190.69881c0,-1.01164 0.8179,-1.8295 1.82952,-1.8295c1.01166,0 1.83179,0.81788 1.83179,1.8295" fill="#ffffff" stroke="#ffffff" stroke-width="1" stroke-linecap="square"/><path d="M243.54123,176.69388h-7.08379c-0.6872,0 -1.24371,-0.55653 -1.24371,-1.24599c0,-0.6872 0.55651,-1.24599 1.24371,-1.24599v0h7.08379c0.68945,0 1.24824,0.5588 1.24824,1.24599c0,0.68945 -0.5588,1.24599 -1.24824,1.24599" fill="#000000" stroke="none" stroke-width="1" stroke-linecap="butt"/></g></g></svg>
