<svg version="1.1" xmlns="http://www.w3.org/2000/svg" xmlns:xlink="http://www.w3.org/1999/xlink" width="13.55698" height="17.54202" viewBox="0,0,13.55698,17.54202"><g transform="translate(-233.22753,-171.00051)"><g data-paper-data="{&quot;isPaintingLayer&quot;:true}" fill-rule="evenodd" stroke-miterlimit="10" stroke-dasharray="" stroke-dashoffset="0" style="mix-blend-mode: normal"><path d="M242.85527,179.53587h-5.69927c-0.70255,0 -1.27273,-0.56891 -1.27273,-1.27273v-2.12673c0,-0.70255 0.57018,-1.27273 1.27273,-1.27273h5.69927c0.70382,0 1.27273,0.57018 1.27273,1.27273v2.12673c0,0.70382 -0.56891,1.27273 -1.27273,1.27273" fill="#ffffff" stroke="#ffffff" stroke-width="1" stroke-linecap="butt" stroke-linejoin="miter"/><path d="M242.36311,184.57829h-4.71418c-0.62745,0 -1.13655,-0.50909 -1.13655,-1.13782v-0.92782c0,-1.92945 1.56418,-3.49364 3.49364,-3.49364c1.92945,0 3.49364,1.56418 3.49364,3.49364v0.92782c0,0.62873 -0.50909,1.13782 -1.13655,1.13782" fill="#ffffff" stroke="#ffffff" stroke-width="1" stroke-linecap="butt" stroke-linejoin="miter"/><path d="M241.027,187.0218c0,0.56255 -0.45691,1.02073 -1.02073,1.02073c-0.56382,0 -1.02073,-0.45818 -1.02073,-1.02073c0,-0.56382 0.45691,-1.022 1.02073,-1.022c0.56382,0 1.02073,0.45818 1.02073,1.022" fill="#ffffff" stroke="#ffffff" stroke-width="1" stroke-linecap="butt" stroke-linejoin="miter"/><path d="M241.28053,172.77451c0,0.70509 -0.57018,1.27527 -1.274,1.27527c-0.70509,0 -1.27527,-0.57018 -1.27527,-1.27527c0,-0.70382 0.57018,-1.274 1.27527,-1.274c0.70382,0 1.274,0.57018 1.274,1.274" fill="#ffffff" stroke="#ffffff" stroke-width="1" stroke-linecap="butt" stroke-linejoin="miter"/><path d="M240.00653,187.0218v-14.252" fill="#ffffff" stroke="#ffffff" stroke-width="0.75" stroke-linecap="butt" stroke-linejoin="miter"/><path d="M234.76162,184.78091c0,-2.89673 2.34818,-5.24491 5.24491,-5.24491c2.89545,0 5.24364,2.34818 5.24364,5.24491" fill="#ffffff" stroke="#ffffff" stroke-width="1" stroke-linecap="round" stroke-linejoin="round"/><path d="M244.21633,185.815c0,-0.57145 0.46327,-1.03345 1.03345,-1.03345c0.57273,0 1.03473,0.462 1.03473,1.03345" fill="#ffffff" stroke="#ffffff" stroke-width="1" stroke-linecap="round" stroke-linejoin="round"/><path d="M233.72753,185.815c0,-0.57145 0.462,-1.03345 1.03345,-1.03345c0.57145,0 1.03473,0.462 1.03473,1.03345" fill="#ffffff" stroke="#ffffff" stroke-width="1" stroke-linecap="round" stroke-linejoin="round"/><path d="M242.00636,177.90398h-4.00145c-0.38818,0 -0.70255,-0.31436 -0.70255,-0.70382c0,-0.38818 0.31436,-0.70382 0.70255,-0.70382h4.00145c0.38945,0 0.70509,0.31564 0.70509,0.70382c0,0.38945 -0.31564,0.70382 -0.70509,0.70382" fill="#000000" stroke="none" stroke-width="1" stroke-linecap="butt" stroke-linejoin="miter"/></g></g></svg>