<svg version="1.1" xmlns="http://www.w3.org/2000/svg" xmlns:xlink="http://www.w3.org/1999/xlink" width="16" height="13.34609" viewBox="0,0,16,13.34609"><g transform="translate(-232,-173)"><g data-paper-data="{&quot;isPaintingLayer&quot;:true}" fill="#ffffff" fill-rule="nonzero" stroke="none" stroke-width="1" stroke-linecap="butt" stroke-linejoin="miter" stroke-miterlimit="10" stroke-dasharray="" stroke-dashoffset="0" style="mix-blend-mode: normal"><path d="M244.25887,179.82321c0.47022,0.43921 0.49023,1.16055 0.06003,1.63077c-0.2191,0.24011 -0.53025,0.37017 -0.8404,0.37017c-0.28013,0 -0.56026,-0.11005 -0.78037,-0.31115c-1.47069,-1.36965 -3.92085,-1.38965 -5.41255,-0.05903c-0.48023,0.4202 -1.20057,0.38018 -1.63077,-0.10005c-0.4202,-0.47022 -0.37918,-1.20057 0.10005,-1.62076c1.16055,-1.03049 2.65125,-1.60075 4.20198,-1.60075c1.60075,0 3.13148,0.60028 4.30203,1.6908zM242.03803,184.41518c0,1.0615 -0.87041,1.93091 -1.93091,1.93091c-1.0705,0 -1.94091,-0.86941 -1.94091,-1.93091c0,-1.0705 0.87041,-1.93991 1.94091,-1.93991c1.0605,0 1.93091,0.86941 1.93091,1.93991zM247.65007,176.11147c0.45121,0.43921 0.47122,1.16055 0.03001,1.62076c-0.22911,0.24011 -0.53025,0.35016 -0.82939,0.35016c-0.29114,0 -0.58027,-0.10005 -0.80138,-0.32115c-1.63977,-1.57974 -3.8108,-2.46116 -6.09187,-2.46116c-2.25106,0 -4.38206,0.8514 -6.02284,2.39213c-0.46122,0.4302 -1.19056,0.41019 -1.62176,-0.05002c-0.44021,-0.46022 -0.40919,-1.19056 0.05102,-1.63177c2.05997,-1.93991 4.76124,-3.01042 7.59358,-3.01042c2.88036,0 5.61164,1.11052 7.69262,3.11147z"/></g></g></svg>