<svg version="1.1" xmlns="http://www.w3.org/2000/svg" xmlns:xlink="http://www.w3.org/1999/xlink" width="27.57363" height="23.00002" viewBox="0,0,27.57363,23.00002"><g transform="translate(-225.56468,-167.63829)"><g data-paper-data="{&quot;isPaintingLayer&quot;:true}" fill="#b3b3b3" fill-rule="nonzero" stroke="none" stroke-width="1" stroke-linecap="butt" stroke-linejoin="miter" stroke-miterlimit="10" stroke-dasharray="" stroke-dashoffset="0" style="mix-blend-mode: normal"><path d="M246.69104,179.39711c0.81034,0.75691 0.84484,2.00004 0.10345,2.81039c-0.37759,0.41379 -0.91381,0.63792 -1.4483,0.63792c-0.48278,0 -0.96552,-0.18964 -1.34483,-0.53622c-2.53452,-2.36039 -6.75702,-2.39485 -9.32774,-0.10175c-0.82759,0.72415 -2.06902,0.65517 -2.81037,-0.17242c-0.72415,-0.81035 -0.65348,-2.06902 0.17242,-2.79314c2.00004,-1.7759 4.56902,-2.75865 7.24149,-2.75865c2.75865,0 5.39664,1.03449 7.41391,2.91382zM242.86374,187.31069c0,1.82932 -1.5,3.32762 -3.32762,3.32762c-1.84485,0 -3.34487,-1.4983 -3.34487,-3.32762c0,-1.84485 1.50002,-3.34315 3.34487,-3.34315c1.82761,0 3.32762,1.4983 3.32762,3.34315zM252.53527,173.00048c0.77758,0.7569 0.81208,2.00004 0.05172,2.79312c-0.39484,0.41381 -0.91379,0.60345 -1.42931,0.60345c-0.50174,0 -1.00003,-0.17242 -1.38106,-0.55345c-2.8259,-2.72245 -6.56736,-4.24146 -10.49845,-4.24146c-3.87935,0 -7.55183,1.46726 -10.37947,4.1225c-0.79486,0.74139 -2.05177,0.7069 -2.79486,-0.0862c-0.75865,-0.79312 -0.7052,-2.05177 0.08793,-2.81213c3.55005,-3.34313 8.20529,-5.18801 13.08641,-5.18801c4.96387,0 9.67083,1.91382 13.2571,5.36216z"/></g></g></svg>
