<svg version="1.1" xmlns="http://www.w3.org/2000/svg" xmlns:xlink="http://www.w3.org/1999/xlink" width="14.07547" height="16.4747" viewBox="0,0,14.07547,16.4747"><g transform="translate(-232.96226,-171.76265)"><g data-paper-data="{&quot;isPaintingLayer&quot;:true}" fill-rule="nonzero" stroke="none" stroke-linecap="butt" stroke-linejoin="miter" stroke-miterlimit="10" stroke-dasharray="" stroke-dashoffset="0" style="mix-blend-mode: normal"><path d="" fill="#575e75" stroke-width="1"/><path d="" fill="#575e75" stroke-width="1"/><path d="M235.52144,188.23735c-1.43954,0 -2.55918,-1.11964 -2.55918,-2.39923v-11.67624c0,-1.27959 1.11964,-2.39923 2.39923,-2.39923h9.27702c1.27959,0 2.39923,1.11964 2.39923,2.39923v11.67624c0,1.27959 -1.11964,2.39923 -2.39923,2.39923zM243.83877,173.84198h-7.99743c-0.47985,0 -0.95969,0.47985 -0.95969,0.95969v6.07804c0,0.47985 0.47985,0.95969 0.95969,0.95969h7.99743c0.47985,0 0.95969,-0.47985 0.95969,-0.95969v-6.07804c0,-0.47985 -0.3199,-0.95969 -0.95969,-0.95969zM236.16124,184.07869c-0.47985,0 -0.95969,0.3199 -0.95969,0.79974c0,0.47985 0.47985,0.95969 0.95969,0.95969h7.83748c0.47985,0 0.95969,-0.47985 0.95969,-0.95969c-0.15995,-0.47985 -0.47985,-0.79974 -0.95969,-0.79974z" data-paper-data="{&quot;index&quot;:null}" fill="#ffffff" stroke-width="1"/><path d="M238.20798,185.05023c0,-0.9897 0.80231,-1.79202 1.79202,-1.79202c0.9897,0 1.79202,0.80231 1.79202,1.79202c0,0.9897 -0.80231,1.79202 -1.79202,1.79202c-0.9897,0 -1.79202,-0.80231 -1.79202,-1.79202z" fill="#000000" stroke-width="0"/></g></g></svg>