<svg version="1.1" xmlns="http://www.w3.org/2000/svg" xmlns:xlink="http://www.w3.org/1999/xlink" width="23.92235" height="28" viewBox="0,0,23.92235,28"><g transform="translate(-228.03883,-166)"><g data-paper-data="{&quot;isPaintingLayer&quot;:true}" fill-rule="nonzero" stroke="none" stroke-width="1" stroke-linecap="butt" stroke-linejoin="miter" stroke-miterlimit="10" stroke-dasharray="" stroke-dashoffset="0" style="mix-blend-mode: normal"><path d="" fill="#575e75"/><path d="" fill="#575e75"/><path d="M232.38833,194c-2.44661,0 -4.3495,-1.90293 -4.3495,-4.07767v-19.84465c0,-2.17474 1.90291,-4.07767 4.07767,-4.07767h15.767c2.17474,0 4.07767,1.90293 4.07767,4.07767v19.84465c0,2.17474 -1.90293,4.07767 -4.07767,4.07767zM246.52428,169.53398h-13.59226c-0.81552,0 -1.63107,0.81552 -1.63107,1.63107v10.33007c0,0.81552 0.81554,1.63107 1.63107,1.63107h13.59226c0.81552,0 1.63105,-0.81554 1.63105,-1.63107v-10.33007c0,-0.81554 -0.54369,-1.63107 -1.63105,-1.63107zM233.47572,186.93204c-0.81552,0 -1.63107,0.54369 -1.63107,1.35922c0,0.81554 0.81554,1.63107 1.63107,1.63107h4.45272c0.44548,0.68741 1.21937,1.14221 2.0995,1.14221c0.88012,0 1.65402,-0.4548 2.0995,-1.14221h4.66868c0.81552,0 1.63105,-0.81552 1.63105,-1.63107c-0.27183,-0.81552 -0.81552,-1.35922 -1.63105,-1.35922l-4.87472,0c-0.45844,-0.53125 -1.13668,-0.86751 -1.89346,-0.86751c-0.75677,0 -1.43501,0.33625 -1.89346,0.86751z" fill="#b3b3b3"/></g></g></svg>
