<svg version="1.1" xmlns="http://www.w3.org/2000/svg" xmlns:xlink="http://www.w3.org/1999/xlink" width="33.33333" height="33.33333" viewBox="0,0,33.33333,33.33333"><g transform="translate(-223.33333,-163.33333)"><g data-paper-data="{&quot;isPaintingLayer&quot;:true}" fill-rule="nonzero" stroke="none" stroke-linecap="butt" stroke-linejoin="miter" stroke-miterlimit="10" stroke-dasharray="" stroke-dashoffset="0" style="mix-blend-mode: normal"><path d="M223.33333,196.66667v-33.33333h33.33333v33.33333z" fill="#000000" stroke-width="0"/><path d="" fill="#575e75" stroke-width="1"/><path d="" fill="#575e75" stroke-width="1"/><path d="M232.38833,194c-2.44661,0 -4.3495,-1.90293 -4.3495,-4.07767v0v-19.84465c0,-2.17474 1.90291,-4.07767 4.07767,-4.07767v0h15.767c2.17474,0 4.07767,1.90293 4.07767,4.07767v0v19.84465c0,2.17474 -1.90293,4.07767 -4.07767,4.07767v0zM246.52428,169.53398h-13.59226c-0.81552,0 -1.63107,0.81552 -1.63107,1.63107v0v10.33007c0,0.81552 0.81554,1.63107 1.63107,1.63107v0h13.59226c0.81552,0 1.63105,-0.81554 1.63105,-1.63107v0v-10.33007c0,-0.81554 -0.54369,-1.63107 -1.63105,-1.63107zM233.47572,186.93204c-0.81552,0 -1.63107,0.54369 -1.63107,1.35922c0,0.81554 0.81554,1.63107 1.63107,1.63107v0h13.32039c0.81552,0 1.63105,-0.81552 1.63105,-1.63107c-0.27183,-0.81552 -0.81552,-1.35922 -1.63105,-1.35922z" fill="#ffffff" stroke-width="1"/><path d="M236.95431,188.58325c0,-1.68207 1.36357,-3.04567 3.04567,-3.04567c1.68207,0 3.04567,1.36359 3.04567,3.04567c0,1.68207 -1.36357,3.04567 -3.04567,3.04567c-1.68207,0 -3.04567,-1.36357 -3.04567,-3.04567z" fill="#000000" stroke-width="1"/></g></g></svg>
