<svg version="1.1" xmlns="http://www.w3.org/2000/svg" xmlns:xlink="http://www.w3.org/1999/xlink" width="123.44433" height="123.29845" viewBox="0,0,123.44433,123.29845"><g transform="translate(-177.83643,-119.4539)"><g data-paper-data="{&quot;isPaintingLayer&quot;:true}" stroke-linejoin="miter" stroke-miterlimit="10" stroke-dasharray="" stroke-dashoffset="0" style="mix-blend-mode: normal"><path d="M300.27503,240.33522l-120.02375,-119.82696l60.33521,-0.05399l59.54575,59.54575z" fill="#ff6161" fill-rule="nonzero" stroke="#d04747" stroke-width="2" stroke-linecap="butt"/><path d="M232.34717,140.17453c1.5563,0.89795 3.47302,0.89795 5.02932,0l3.53969,-2.03964c1.67505,-0.96253 3.54594,0.90836 2.58133,2.58133l-2.03756,3.54178c-0.89795,1.5563 -0.89795,3.47302 -0.00208,5.02723l2.03964,3.53969c0.96253,1.67505 -0.90836,3.54594 -2.58341,2.58341l-3.53969,-2.03964c-1.55421,-0.89586 -3.47094,-0.89586 -5.02515,0l-3.54178,2.03756c-1.67297,0.96461 -3.54386,-0.90628 -2.58133,-2.58133l2.03964,-3.53969c0.89586,-1.55421 0.89586,-3.47094 -0.00208,-5.02723l-2.03964,-3.53969c-0.96253,-1.67505 0.90836,-3.54594 2.58341,-2.58341zM218.79382,144.37074c0.56764,0.32523 1.26455,0.32725 1.83017,0l1.28677,-0.74136c0.60601,-0.35149 1.28678,0.32928 0.93933,0.93933l-0.74338,1.28475c-0.32523,0.56764 -0.32523,1.26253 0,1.83017l0.74338,1.28879c0.35149,0.60601 -0.32928,1.28678 -0.93933,0.93933l-1.28677,-0.7454c-0.56764,-0.32523 -1.26253,-0.32523 -1.83017,0l-1.28475,0.74338c-0.61207,0.34947 -1.29284,-0.3313 -0.93933,-0.93933l0.74136,-1.28677c0.32725,-0.56562 0.32523,-1.26253 0,-1.83017l-0.74338,-1.28475c-0.34745,-0.61005 0.33332,-1.29082 0.93933,-0.93933zM249.10138,144.36994c0.56783,0.32533 1.26093,0.32736 1.82673,0l1.28923,-0.73958c0.60622,-0.35161 1.2872,0.32937 0.93762,0.93762l-0.74161,1.2872c-0.32736,0.5658 -0.32331,1.26093 0.00202,1.82875l0.73958,1.28923c0.35161,0.60622 -0.32937,1.2872 -0.93762,0.93762l-1.2872,-0.74161c-0.5658,-0.32736 -1.26497,-0.32736 -1.82875,-0.00202l-1.2872,0.74161c-0.61026,0.3516 -1.29124,-0.32938 -0.93762,-0.93762l0.73958,-1.28923c0.32533,-0.56378 0.32736,-1.26093 0,-1.82673l-0.74161,-1.2872c-0.34959,-0.60825 0.33139,-1.28923 0.93762,-0.93762zM234.86182,133.89058c-0.62733,0.62733 -1.64561,0.62733 -2.27294,0c-0.62733,-0.62733 -0.62733,-1.64561 0,-2.27294c0.62733,-0.62733 1.64561,-0.62733 2.27294,0c0.62733,0.62733 0.62733,1.64561 0,2.27294zM237.51358,162.30231c-1.04807,1.04807 -2.74268,1.04555 -3.78823,0c-1.04807,-1.04807 -1.04807,-2.74016 0,-3.78823c1.04555,-1.04555 2.74016,-1.04807 3.78823,0c1.04555,1.04555 1.04555,2.74268 0,3.78823z" fill="#000000" fill-rule="evenodd" stroke="none" stroke-width="1" stroke-linecap="butt"/><path d="M243.41604,168.37398c-0.10469,-0.10469 -0.11516,-0.19891 -0.03141,-0.28267l12.75135,-12.78275c0.10469,-0.10469 0.20415,-0.10993 0.29837,-0.0157l1.69599,1.69599l-4.20857,10.55284l7.12945,-7.31789c0.10469,-0.10469 0.20938,-0.10469 0.31407,0l1.86873,1.86873c0.07328,0.07328 0.05758,0.16227 -0.04711,0.26696l-12.76705,12.79846c-0.07328,0.07328 -0.14133,0.07852 -0.20415,0.0157l-1.64888,-1.64888l3.64324,-10.14454l-6.59552,6.87819c-0.10469,0.10469 -0.21461,0.09946 -0.32978,-0.0157zM252.02191,176.97985c-0.05235,-0.05235 -0.04711,-0.10993 0.0157,-0.17274l12.89268,-12.86127c0.05235,-0.05235 0.10469,-0.05235 0.15704,0l6.01449,6.01449c0.05235,0.05235 0.04711,0.10993 -0.0157,0.17274l-2.10429,2.10429c-0.04187,0.04187 -0.08899,0.03664 -0.14133,-0.0157l-3.84739,-3.84739l-2.93658,2.93658l3.84739,3.84739c0.05235,0.05235 0.05758,0.09946 0.0157,0.14133l-2.10429,2.13569c-0.05235,0.05235 -0.10469,0.05235 -0.15704,0l-3.86309,-3.86309l-3.28206,3.28206l3.86309,3.86309c0.05235,0.05235 0.04711,0.10993 -0.0157,0.17274l-2.13569,2.13569c-0.05235,0.05235 -0.10469,0.05235 -0.15704,0zM261.54585,186.50379c-0.05235,-0.05235 -0.05235,-0.11516 0,-0.18844l10.66276,-15.09119c0.04188,-0.06281 0.08375,-0.07328 0.12563,-0.03141l2.10429,2.10429c0.05235,0.05235 0.05758,0.10993 0.0157,0.17274l-7.27078,9.65773l9.70484,-7.22367c0.06281,-0.04188 0.12563,-0.03141 0.18844,0.03141l1.69599,1.69599c0.05235,0.05235 0.05758,0.10993 0.0157,0.17274l-7.25508,9.67344l9.68914,-7.23937c0.06281,-0.04188 0.12039,-0.03664 0.17274,0.0157l2.08858,2.08858c0.06281,0.06281 0.05758,0.10993 -0.0157,0.14133l-15.10689,10.64706c-0.03141,0.01047 -0.07328,0.01047 -0.12563,0c-0.04188,0 -0.06281,0 -0.06281,0l-2.26132,-2.26132c-0.04187,-0.04187 -0.04187,-0.10469 0,-0.18844l5.77894,-7.69478l-7.69478,5.77894c-0.07328,0.05235 -0.1361,0.05235 -0.18844,0z" fill="#000000" fill-rule="nonzero" stroke="none" stroke-width="1" stroke-linecap="square"/></g></g></svg>
