<svg xmlns="http://www.w3.org/2000/svg" xmlns:xlink="http://www.w3.org/1999/xlink" width="600" zoomAndPan="magnify" viewBox="0 0 450 225" height="300" preserveAspectRatio="xMidYMid meet" version="1.0"><defs><clipPath id="3f3d0b43c3"><path d="M 143.710938 82 L 226 82 L 226 174.320312 L 143.710938 174.320312 Z M 143.710938 82 " clip-rule="nonzero"/></clipPath><clipPath id="e792d1c94f"><path d="M 225 82 L 306.460938 82 L 306.460938 174.320312 L 225 174.320312 Z M 225 82 " clip-rule="nonzero"/></clipPath><clipPath id="2bed8c28c3"><path d="M 143.710938 50.570312 L 173 50.570312 L 173 83 L 143.710938 83 Z M 143.710938 50.570312 " clip-rule="nonzero"/></clipPath><clipPath id="545e3ddf1d"><path d="M 172 50.570312 L 226 50.570312 L 226 83 L 172 83 Z M 172 50.570312 " clip-rule="nonzero"/></clipPath><clipPath id="c14a48dc30"><path d="M 277 50.570312 L 306.460938 50.570312 L 306.460938 83 L 277 83 Z M 277 50.570312 " clip-rule="nonzero"/></clipPath><clipPath id="bae96194ee"><path d="M 225 50.570312 L 278 50.570312 L 278 83 L 225 83 Z M 225 50.570312 " clip-rule="nonzero"/></clipPath></defs><rect x="-45" width="540" fill="#ffffff" y="-22.5" height="270" fill-opacity="1"/><rect x="-45" width="540" fill="#3f0914" y="-22.5" height="270" fill-opacity="1"/><g clip-path="url(#3f3d0b43c3)"><path fill="#7f1026" d="M 225.085938 174.316406 L 143.710938 82.472656 L 225.085938 82.472656 Z M 225.085938 174.316406 " fill-opacity="1" fill-rule="evenodd"/></g><g clip-path="url(#e792d1c94f)"><path fill="#a61734" d="M 225.085938 82.472656 L 306.460938 82.472656 L 225.085938 174.316406 Z M 225.085938 82.472656 " fill-opacity="1" fill-rule="evenodd"/></g><g clip-path="url(#2bed8c28c3)"><path fill="#d52246" d="M 172.566406 82.472656 L 143.710938 82.472656 L 172.566406 50.578125 Z M 172.566406 82.472656 " fill-opacity="1" fill-rule="evenodd"/></g><g clip-path="url(#545e3ddf1d)"><path fill="#d52246" d="M 172.472656 82.472656 L 172.472656 50.578125 L 225.085938 50.578125 L 225.085938 82.472656 Z M 172.472656 82.472656 " fill-opacity="1" fill-rule="nonzero"/></g><g clip-path="url(#c14a48dc30)"><path fill="#fc2853" d="M 277.605469 50.578125 L 306.460938 82.472656 L 277.605469 82.472656 Z M 277.605469 50.578125 " fill-opacity="1" fill-rule="evenodd"/></g><g clip-path="url(#bae96194ee)"><path fill="#fc2853" d="M 225.085938 82.472656 L 225.085938 50.578125 L 277.699219 50.578125 L 277.699219 82.472656 Z M 225.085938 82.472656 " fill-opacity="1" fill-rule="nonzero"/></g></svg>