<?xml version="1.0" encoding="utf-8"?>
<!-- Generator: Adobe Illustrator 27.0.0, SVG Export Plug-In . SVG Version: 6.00 Build 0)  -->
<svg version="1.1" id="Layer_1" xmlns="http://www.w3.org/2000/svg" xmlns:xlink="http://www.w3.org/1999/xlink" x="0px" y="0px"
	 viewBox="0 0 600 300" style="enable-background:new 0 0 600 300;" xml:space="preserve">
<style type="text/css">
	.st0{fill:url(#SVGID_1_);}
	.st1{fill:#7F7F7F;}
	.st2{fill:#58595B;}
	.st3{fill:#414042;}
	.st4{fill:#6D6E71;}
	.st5{fill:#939598;}
	.st6{fill:#FFFFFF;}
	.st7{fill:#7BBB00;}
</style>
<radialGradient id="SVGID_1_" cx="300" cy="150" r="237.1708" gradientTransform="matrix(1 0 0 -1 0 300)" gradientUnits="userSpaceOnUse">
	<stop  offset="0.449" style="stop-color:#7BBB00"/>
	<stop  offset="1" style="stop-color:#ADDD00"/>
</radialGradient>
<rect class="st0" width="600" height="300"/>
<path class="st1" d="M398.3,125.9c0-27.3-188-26.4-188,0L231.5,259c40.3,20.1,105.4,20.1,145.7,0L398.3,125.9z"/>
<ellipse class="st2" cx="304.5" cy="126.5" rx="92.4" ry="18.5"/>
<path class="st3" d="M304.9,108.1c-4.2,12.4-8.8,24.7-14.1,36.7c4.5,0.1,9.1,0.2,13.7,0.2c51,0,92.4-8.3,92.4-18.5
	C396.9,116.4,355.7,108.1,304.9,108.1z"/>
<image style="overflow:visible;enable-background:new    ;" width="160" height="120" xlink:href="A1318CDD.png"  transform="matrix(0.2834 -2.496357e-02 2.496357e-02 0.2834 364.8889 258.9548)">
</image>
<image style="overflow:visible;enable-background:new    ;" width="653" height="120" xlink:href="A1318CDF.png"  transform="matrix(-7.653935e-08 -0.2844 0.2844 -7.653935e-08 293.7291 255.3316)">
</image>
<image style="overflow:visible;enable-background:new    ;" width="659" height="120" xlink:href="A1318CDA.png"  transform="matrix(-8.619534e-08 -0.2844 0.2844 -8.619534e-08 337.386 264.9517)">
</image>
<image style="overflow:visible;enable-background:new    ;" width="525" height="120" xlink:href="A1318CDB.png"  transform="matrix(4.913140e-02 -0.2802 0.2802 4.913140e-02 226.3955 229.3297)">
</image>
<image style="overflow:visible;enable-background:new    ;" width="123" height="120" xlink:href="A1318CE5.png"  transform="matrix(0.246 -0.1428 0.1428 0.246 160.2072 266.1991)">
</image>
<image style="overflow:visible;enable-background:new    ;" width="485" height="120" xlink:href="A1318CE7.png"  transform="matrix(-0.1265 -0.2548 0.2548 -0.1265 249.2946 188.4791)">
</image>
<image style="overflow:visible;enable-background:new    ;" width="1001" height="120" xlink:href="A1318CEA.png"  transform="matrix(2.889780e-02 -0.283 0.283 2.889780e-02 304.2703 277.9036)">
</image>
<image style="overflow:visible;enable-background:new    ;" width="765" height="120" xlink:href="A1318CEB.png"  transform="matrix(-2.295555e-02 -0.2835 0.2835 -2.295555e-02 279.7157 234.8237)">
</image>
<image style="overflow:visible;enable-background:new    ;" width="847" height="120" xlink:href="A1318CED.png"  transform="matrix(0.1361 -0.2498 0.2498 0.1361 303.9387 245.0792)">
</image>
<path class="st1" d="M394.8,130.7c0.3-0.2,0.5-0.4,0.7-0.6c0.7,0.1,1.4,0.2,2.1,0.3L377.1,259c-40.3,20.1-105.4,20.1-145.7,0
	l-21.2-133.1c0-0.1,0-0.2,0-0.2c2,3.4,8.4,19.4,92.6,19.4C378.9,145,394.8,130.7,394.8,130.7z"/>
<path class="st4" d="M377.1,259l19.8-124.1c-46.4,20-110.1,11.7-112.8,24.6c-1.3,6.3,40.1,7,43.6,39.1c1.6,14.7-36.4,12.4-31.1,75.4
	c0,0,19.4,1.1,42.9-2.9C362.8,266.9,377.1,259,377.1,259z"/>
<path class="st5" d="M230.1,141.3c-13.5-3.4-16.9-10.9-9.1,21c7.2,29.5,1.4,57.6,15.6,32.5C244.4,180.7,238.7,143.4,230.1,141.3z"/>
<image style="overflow:visible;enable-background:new    ;" width="267" height="120" xlink:href="4C295BF6.png"  transform="matrix(9.591056e-02 -0.2678 0.2678 9.591056e-02 205.0311 276.5897)">
</image>
<image style="overflow:visible;enable-background:new    ;" width="197" height="120" xlink:href="4C295BF1.png"  transform="matrix(0.2706 -8.766488e-02 8.766488e-02 0.2706 304.798 264.5771)">
</image>
<g>
	<path class="st6" d="M445.6,286.3c-0.3,0-0.5-0.1-0.7-0.3l-27.4-27.4c-0.2-0.2-0.3-0.4-0.3-0.7s0.1-0.5,0.3-0.7l10.3-10.3
		c2.2-2.2,4.3-3.7,6.2-4.4c1.2-0.5,2.5-0.7,3.8-0.7c0.8,0,1.6,0.1,2.3,0.3c2,0.5,3.8,1.4,5.2,2.8c1.3,1.3,2.2,2.9,2.6,4.7
		c0.3,1.2,0.3,2.5,0.1,3.9c1.2-0.4,2.4-0.7,3.6-0.7c0.4,0,0.9,0,1.3,0.1c2.3,0.3,4.3,1.3,6.1,3.1c1.4,1.4,2.4,3,3,4.8
		c0.6,1.8,0.8,3.5,0.6,5c-0.2,1.5-0.8,3.1-1.8,4.7c-0.9,1.6-2.3,3.3-4.1,5.1L446.3,286C446.1,286.2,445.8,286.3,445.6,286.3z
		 M445.9,277l6.1-6.1c1.4-1.4,2-2.1,2.2-2.5c0.6-0.9,1-1.7,1.2-2.5c0.2-0.7,0.1-1.5-0.1-2.4c-0.3-0.9-0.8-1.7-1.5-2.4
		c-0.9-0.9-1.8-1.4-2.9-1.6c-0.3-0.1-0.6-0.1-0.9-0.1c-0.8,0-1.5,0.2-2.3,0.6c-1.1,0.6-2.5,1.7-4.2,3.4l-5.6,5.6L445.9,277z
		 M433.3,264.4l5.2-5.2c1.5-1.5,2.5-2.7,3-3.5c0.6-1,0.8-1.9,0.6-2.8c-0.1-0.9-0.6-1.7-1.4-2.5c-0.8-0.8-1.6-1.3-2.6-1.5
		c-0.3-0.1-0.6-0.1-0.8-0.1c-0.6,0-1.2,0.1-1.8,0.5c-0.7,0.3-2,1.3-4.3,3.6l-4.8,4.8L433.3,264.4z"/>
	<path class="st7" d="M437.7,242.7c0.7,0,1.4,0.1,2.1,0.2c1.9,0.4,3.4,1.3,4.7,2.5c1.2,1.2,2,2.6,2.4,4.3c0.4,1.7,0.3,3.5-0.4,5.4
		c1.7-0.9,3.4-1.4,5.1-1.4c0.4,0,0.8,0,1.2,0.1c2.1,0.3,3.9,1.2,5.5,2.8c1.3,1.3,2.2,2.7,2.8,4.4s0.7,3.2,0.5,4.6
		c-0.2,1.4-0.7,2.8-1.6,4.4c-0.9,1.5-2.2,3.1-4,4.9l-10.5,10.5l-27.4-27.4l10.3-10.3c2.1-2.1,4-3.5,5.9-4.2
		C435.4,243,436.6,242.7,437.7,242.7 M433.3,265.8l5.9-5.9c1.6-1.6,2.7-2.9,3.1-3.8c0.6-1.2,0.9-2.3,0.7-3.4
		c-0.2-1.1-0.7-2.1-1.7-3.1c-0.9-0.9-1.9-1.5-3.1-1.7c-0.4-0.1-0.7-0.1-1.1-0.1c-0.8,0-1.5,0.2-2.2,0.6c-1.1,0.6-2.6,1.8-4.6,3.8
		l-5.5,5.5L433.3,265.8 M445.9,278.4l6.8-6.8c1.2-1.2,2-2,2.3-2.6c0.7-1,1.1-1.9,1.3-2.8c0.2-0.9,0.2-1.9-0.1-2.9
		c-0.3-1-0.9-2-1.8-2.9c-1-1-2.2-1.6-3.4-1.9c-0.3-0.1-0.7-0.1-1-0.1c-0.9,0-1.8,0.2-2.7,0.7c-1.2,0.6-2.7,1.8-4.5,3.6l-6.3,6.3
		L445.9,278.4 M437.7,240.7c-1.4,0-2.8,0.3-4.1,0.8c-2.1,0.8-4.2,2.3-6.6,4.7l-10.3,10.3c-0.4,0.4-0.6,0.9-0.6,1.4s0.2,1,0.6,1.4
		l27.4,27.4c0.4,0.4,0.9,0.6,1.4,0.6s1-0.2,1.4-0.6l10.5-10.5c1.9-1.9,3.3-3.6,4.3-5.3c1-1.7,1.7-3.4,1.9-5.1c0.2-1.7,0-3.6-0.6-5.5
		c-0.7-1.9-1.7-3.7-3.2-5.2c-1.9-1.9-4.1-3-6.6-3.4c-0.5-0.1-1-0.1-1.5-0.1c-0.8,0-1.7,0.1-2.5,0.3c0-0.9-0.1-1.8-0.3-2.7
		c-0.5-2-1.5-3.8-2.9-5.2c-1.5-1.5-3.4-2.6-5.7-3.1C439.4,240.8,438.6,240.7,437.7,240.7L437.7,240.7z M427.8,257.5l4.1-4.1
		c2.3-2.3,3.5-3.1,4.1-3.4c0.4-0.2,0.9-0.3,1.3-0.3c0.2,0,0.4,0,0.6,0.1c0.8,0.2,1.4,0.6,2.1,1.2c0.7,0.7,1,1.3,1.1,2
		c0.1,0.7-0.1,1.4-0.5,2.2c-0.3,0.5-1,1.5-2.8,3.3l-4.5,4.5L427.8,257.5L427.8,257.5z M439.3,269l4.9-4.9c2-2,3.2-2.8,4-3.2
		c0.6-0.3,1.2-0.5,1.8-0.5c0.2,0,0.4,0,0.7,0.1c0.9,0.2,1.7,0.6,2.4,1.3c0.6,0.6,1.1,1.3,1.3,2c0.2,0.7,0.2,1.3,0.1,1.9
		c-0.2,0.7-0.5,1.4-1,2.2c-0.2,0.3-0.7,0.9-2.1,2.3l-5.4,5.4L439.3,269L439.3,269z"/>
</g>
<g>
	<path class="st6" d="M471.7,255.6c-1.5,0-3-0.3-4.5-0.9c-2.5-1-5.3-3.1-8.2-6l-15.8-15.8c-0.2-0.2-0.3-0.4-0.3-0.7s0.1-0.5,0.3-0.7
		l3.6-3.6c0.2-0.2,0.5-0.3,0.7-0.3s0.5,0.1,0.7,0.3l15.8,15.8c2.3,2.3,4.2,3.8,5.6,4.4c0.8,0.3,1.6,0.5,2.5,0.5
		c0.6,0,1.2-0.1,1.8-0.2c1.5-0.4,3-1.4,4.4-2.8c2.5-2.5,3.7-4.7,3.6-6.8c-0.1-2.1-1.7-4.8-5-8l-15.8-15.8c-0.4-0.4-0.4-1,0-1.4
		l3.6-3.6c0.2-0.2,0.5-0.3,0.7-0.3s0.5,0.1,0.7,0.3l15.8,15.8c2.8,2.8,4.8,5.5,5.8,7.8c1.1,2.4,1.3,5.1,0.6,8
		c-0.6,2.8-2.4,5.6-5.1,8.4c-2.7,2.7-5.4,4.4-8.1,5.2C474.1,255.5,472.9,255.6,471.7,255.6z"/>
	<path class="st7" d="M465.4,210.6l15.8,15.8c2.8,2.8,4.6,5.3,5.6,7.5c1,2.2,1.2,4.7,0.6,7.3c-0.6,2.6-2.2,5.3-4.9,7.9
		c-2.6,2.6-5.1,4.2-7.6,5c-1.1,0.3-2.2,0.5-3.2,0.5c-1.4,0-2.8-0.3-4.1-0.8c-2.4-1-5-2.9-7.9-5.8l-15.8-15.8l3.6-3.6l15.8,15.8
		c2.4,2.4,4.4,3.9,5.9,4.6c0.9,0.4,1.9,0.6,2.9,0.6c0.7,0,1.3-0.1,2-0.3c1.7-0.5,3.3-1.5,4.9-3c2.7-2.7,4-5.2,3.9-7.5
		c-0.1-2.3-1.8-5.2-5.3-8.7l-15.8-15.8L465.4,210.6 M465.4,208.6c-0.5,0-1,0.2-1.4,0.6l-3.6,3.6c-0.8,0.8-0.8,2,0,2.8l15.8,15.8
		c3.8,3.8,4.6,6.1,4.7,7.3c0.1,1.8-1.1,3.8-3.3,6c-1.3,1.3-2.6,2.2-4,2.5c-0.5,0.1-1,0.2-1.5,0.2c-0.7,0-1.4-0.1-2.1-0.4
		c-0.9-0.4-2.6-1.4-5.3-4.2l-15.8-15.8c-0.4-0.4-0.9-0.6-1.4-0.6c-0.5,0-1,0.2-1.4,0.6l-3.6,3.6c-0.8,0.8-0.8,2,0,2.8l15.8,15.8
		c3.1,3.1,5.9,5.2,8.6,6.3c1.6,0.7,3.2,1,4.9,1c1.3,0,2.5-0.2,3.8-0.6c2.8-0.8,5.7-2.7,8.5-5.5c2.9-2.9,4.7-5.9,5.4-8.9
		c0.7-3.1,0.5-5.9-0.7-8.6c-1.1-2.5-3.1-5.1-6-8.1l-15.8-15.8C466.5,208.8,466,208.6,465.4,208.6L465.4,208.6z"/>
</g>
<g>
	<path class="st6" d="M499.1,227.3c-2.2,0-4.5-0.5-6.8-1.4c-3.4-1.4-6.4-3.4-9.1-6.1c-3-3-5-6.2-6.1-9.5c-1.1-3.4-1.2-6.8-0.2-10.1
		c1-3.3,2.7-6.2,5.2-8.7c2.9-2.9,6.1-4.6,9.6-5.1c0.7-0.1,1.5-0.2,2.2-0.2c2.7,0,5.5,0.8,8.2,2.3c0.2,0.1,0.4,0.4,0.5,0.6
		c0.1,0.3,0,0.5-0.1,0.8l-2.7,4.4c-0.2,0.3-0.5,0.5-0.9,0.5c-0.2,0-0.3,0-0.5-0.1c-2-1-3.8-1.6-5.5-1.6c-0.4,0-0.7,0-1,0.1
		c-1.9,0.3-3.7,1.2-5.4,2.9c-1.9,1.9-3.1,4.1-3.5,6.3c-0.4,2.2,0,4.4,1,6.4c1.1,2.2,2.5,4.1,4.2,5.9c2.2,2.2,4.5,3.9,6.8,4.9
		c1.4,0.6,2.9,0.9,4.2,0.9l0,0c0.7,0,1.5-0.1,2.2-0.3c2.1-0.5,3.9-1.6,5.5-3.1c1.9-1.9,2.9-3.9,3.1-6.3c0.2-2.3-0.5-4.8-2.2-7.4
		c-0.1-0.2-0.2-0.5-0.1-0.8c0.1-0.3,0.2-0.5,0.5-0.6l4.5-2.7c0.2-0.1,0.3-0.1,0.5-0.1c0.1,0,0.2,0,0.2,0c0.3,0.1,0.5,0.2,0.6,0.5
		c2.3,3.9,3.3,7.8,2.8,11.5c-0.4,3.8-2.2,7.2-5.2,10.2c-3.1,3.1-6.3,5-9.5,5.7C501.3,227.2,500.2,227.3,499.1,227.3z"/>
	<path class="st7" d="M494,187.2c2.6,0,5.2,0.7,7.8,2.1l-2.7,4.4c-2.2-1.1-4.1-1.7-6-1.7c-0.4,0-0.8,0-1.2,0.1
		c-2.1,0.3-4.1,1.4-5.9,3.2c-2.1,2.1-3.4,4.4-3.8,6.8s0,4.8,1.1,7c1.1,2.3,2.6,4.3,4.4,6.1c2.3,2.3,4.7,4,7.1,5.1
		c1.6,0.7,3.1,1,4.6,1c0.8,0,1.6-0.1,2.4-0.3c2.3-0.6,4.3-1.7,5.9-3.4c2-2,3.2-4.3,3.4-6.9c0.2-2.6-0.5-5.3-2.4-8.1l4.5-2.7
		c2.2,3.7,3.1,7.4,2.7,10.9s-2,6.7-4.9,9.6c-3,3-6,4.8-9,5.4c-1,0.2-2,0.3-3.1,0.3c-2.1,0-4.2-0.4-6.4-1.3c-3.2-1.3-6.2-3.3-8.8-5.9
		c-2.9-2.9-4.8-5.9-5.8-9.1c-1-3.2-1.1-6.4-0.2-9.5c0.9-3.1,2.6-5.9,5-8.3c2.7-2.7,5.7-4.4,9-4.8C492.6,187.3,493.3,187.2,494,187.2
		 M494,185.2c-0.8,0-1.6,0.1-2.3,0.2c-3.7,0.5-7.1,2.3-10.1,5.4c-2.6,2.6-4.5,5.7-5.5,9.2c-1,3.5-1,7.1,0.2,10.7
		c1.1,3.5,3.3,6.8,6.3,9.9c2.8,2.8,6,4.9,9.5,6.3c2.4,1,4.8,1.5,7.1,1.5c1.2,0,2.3-0.1,3.5-0.4c3.4-0.7,6.8-2.7,10-5.9
		c3.2-3.2,5-6.8,5.5-10.8c0.5-4-0.5-8.1-3-12.2c-0.3-0.5-0.7-0.8-1.2-0.9c-0.2,0-0.3-0.1-0.5-0.1c-0.4,0-0.7,0.1-1,0.3l-4.5,2.7
		c-0.5,0.3-0.8,0.7-0.9,1.3c-0.1,0.5,0,1.1,0.3,1.5c1.6,2.4,2.2,4.7,2,6.8c-0.2,2.1-1.1,4-2.8,5.7c-1.4,1.4-3.1,2.4-5,2.8
		c-0.6,0.2-1.3,0.2-2,0.2c-1.2,0-2.5-0.3-3.8-0.9c-2.2-1-4.4-2.5-6.5-4.7c-1.6-1.6-3-3.5-4-5.6c-0.9-1.9-1.2-3.8-0.9-5.8
		c0.3-2,1.4-3.9,3.2-5.7c1.5-1.5,3.1-2.4,4.8-2.6c0.3,0,0.6-0.1,0.9-0.1c1.5,0,3.2,0.5,5,1.4c0.3,0.2,0.6,0.2,0.9,0.2
		c0.7,0,1.3-0.3,1.7-0.9l2.7-4.4c0.3-0.5,0.4-1,0.2-1.6s-0.5-1-1-1.2C499.8,186,496.9,185.2,494,185.2L494,185.2z"/>
</g>
<g>
	<path class="st6" d="M526.4,205.5c-0.3,0-0.5-0.1-0.7-0.3l-27.4-27.4c-0.2-0.2-0.3-0.4-0.3-0.7s0.1-0.5,0.3-0.7l3.6-3.6
		c0.2-0.2,0.5-0.3,0.7-0.3s0.5,0.1,0.7,0.3l11.9,11.9l0-24.8c0-0.3,0.1-0.5,0.3-0.7l4.9-4.9c0.2-0.2,0.4-0.3,0.7-0.3
		c0.1,0,0.3,0,0.4,0.1c0.4,0.2,0.6,0.5,0.6,0.9l-0.4,21.7l27.4,4.2c0.4,0.1,0.7,0.3,0.8,0.7c0.1,0.4,0,0.8-0.2,1l-4.8,4.8
		c-0.2,0.2-0.4,0.3-0.7,0.3c-0.1,0-0.1,0-0.2,0l-22.5-3.9l-0.1,7.3l9.2,9.2c0.2,0.2,0.3,0.4,0.3,0.7s-0.1,0.5-0.3,0.7l-3.6,3.6
		C526.9,205.4,526.6,205.5,526.4,205.5z"/>
	<path class="st7" d="M521.1,154.9L521.1,154.9 M521.1,154.9l-0.4,22.6l28.3,4.3l-4.8,4.8l-23.6-4.1l-0.1,8.9l9.5,9.5l-3.6,3.6
		L499,177.1l3.6-3.6l13.6,13.6l0-27.2L521.1,154.9 M521.1,152.9C521.1,152.9,521.1,152.9,521.1,152.9
		C521,152.9,521,152.9,521.1,152.9C521,152.9,521,152.9,521.1,152.9c-0.6,0-1.1,0.2-1.4,0.6l-4.9,4.9c-0.4,0.4-0.6,0.9-0.6,1.4
		l0,22.4L504,172c-0.4-0.4-0.9-0.6-1.4-0.6c-0.5,0-1,0.2-1.4,0.6l-3.6,3.6c-0.4,0.4-0.6,0.9-0.6,1.4s0.2,1,0.6,1.4l27.4,27.4
		c0.4,0.4,0.9,0.6,1.4,0.6s1-0.2,1.4-0.6l3.6-3.6c0.4-0.4,0.6-0.9,0.6-1.4c0-0.5-0.2-1-0.6-1.4l-8.9-8.9l0.1-5.7l21.3,3.7
		c0.1,0,0.2,0,0.3,0c0.5,0,1-0.2,1.4-0.6l4.8-4.8c0.5-0.5,0.7-1.3,0.5-2s-0.9-1.2-1.6-1.4l-26.6-4l0.4-20.8c0,0,0-0.1,0-0.1
		C523.1,153.8,522.3,152.9,521.1,152.9C521.2,152.9,521.1,152.9,521.1,152.9L521.1,152.9z M521.1,156.9L521.1,156.9L521.1,156.9
		L521.1,156.9z"/>
</g>
<g>
	<path class="st6" d="M552.2,179.7c-0.3,0-0.5-0.1-0.7-0.3L524,152c-0.2-0.2-0.3-0.4-0.3-0.7s0.1-0.5,0.3-0.7l19.8-19.8
		c0.2-0.2,0.4-0.3,0.7-0.3l0,0c0.3,0,0.5,0.1,0.7,0.3l3.2,3.2c0.4,0.4,0.4,1,0,1.4L533,150.9l7,7l14.5-14.5c0.2-0.2,0.5-0.3,0.7-0.3
		s0.5,0.1,0.7,0.3l3.2,3.2c0.2,0.2,0.3,0.4,0.3,0.7s-0.1,0.5-0.3,0.7l-14.5,14.5l7.9,7.9l16.1-16.1c0.2-0.2,0.4-0.3,0.7-0.3
		s0.5,0.1,0.7,0.3l3.2,3.2c0.4,0.4,0.4,1,0,1.4l-20.5,20.5C552.7,179.6,552.4,179.7,552.2,179.7z"/>
	<path class="st7" d="M544.6,131.5l3.2,3.2l-16.2,16.2l8.4,8.4l15.2-15.2l3.2,3.2l-15.2,15.2l9.3,9.3l16.8-16.8l3.2,3.2l-20.5,20.5
		l-27.4-27.4L544.6,131.5 M544.6,129.5c-0.5,0-1,0.2-1.4,0.6l-19.8,19.8c-0.4,0.4-0.6,0.9-0.6,1.4c0,0.5,0.2,1,0.6,1.4l27.4,27.4
		c0.4,0.4,0.9,0.6,1.4,0.6s1-0.2,1.4-0.6l20.5-20.5c0.8-0.8,0.8-2,0-2.8l-3.2-3.2c-0.4-0.4-0.9-0.6-1.4-0.6s-1,0.2-1.4,0.6
		L552.5,169l-6.5-6.5l13.7-13.7c0.8-0.8,0.8-2,0-2.8l-3.2-3.2c-0.4-0.4-0.9-0.6-1.4-0.6s-1,0.2-1.4,0.6L540,156.5l-5.6-5.6
		l14.8-14.8c0.8-0.8,0.8-2,0-2.8l-3.2-3.2C545.6,129.7,545.1,129.5,544.6,129.5L544.6,129.5z"/>
</g>
<g>
	<path class="st6" d="M584.6,147.3c-0.3,0-0.5-0.1-0.7-0.3l-23.5-23.5l-8.3,8.3c-0.2,0.2-0.4,0.3-0.7,0.3l0,0
		c-0.3,0-0.5-0.1-0.7-0.3l-3.2-3.2c-0.4-0.4-0.4-1,0-1.4l21.7-21.7c0.2-0.2,0.5-0.3,0.7-0.3s0.5,0.1,0.7,0.3l3.2,3.2
		c0.2,0.2,0.3,0.4,0.3,0.7s-0.1,0.5-0.3,0.7l-8.4,8.4l23.5,23.5c0.2,0.2,0.3,0.4,0.3,0.7s-0.1,0.5-0.3,0.7l-3.6,3.6
		C585.1,147.2,584.8,147.3,584.6,147.3z"/>
	<path class="st7" d="M569.9,106.2l3.2,3.2l-9.1,9.1l24.2,24.2l-3.6,3.6l-24.2-24.2l-9,9l-3.2-3.2L569.9,106.2 M569.9,104.2
		c-0.5,0-1,0.2-1.4,0.6l-21.7,21.7c-0.8,0.8-0.8,2,0,2.8l3.2,3.2c0.4,0.4,0.9,0.6,1.4,0.6s1-0.2,1.4-0.6l7.6-7.6l22.8,22.8
		c0.4,0.4,0.9,0.6,1.4,0.6c0.5,0,1-0.2,1.4-0.6l3.6-3.6c0.4-0.4,0.6-0.9,0.6-1.4s-0.2-1-0.6-1.4l-22.8-22.8l7.7-7.7
		c0.4-0.4,0.6-0.9,0.6-1.4s-0.2-1-0.6-1.4l-3.2-3.2C570.9,104.4,570.4,104.2,569.9,104.2L569.9,104.2z"/>
</g>
<g>
	<path class="st6" d="M27.5,198.5c-0.3,0-0.5-0.1-0.7-0.3L5,176.4c-0.2-0.2-0.3-0.4-0.3-0.7s0.1-0.5,0.3-0.7l9.7-9.7
		c2-2,3.8-3.4,5.3-4c1-0.4,2-0.7,3.1-0.7c0.7,0,1.3,0.1,2,0.2c1.8,0.4,3.3,1.3,4.7,2.6c1.7,1.7,2.6,3.8,2.7,6.1
		c0,1.6-0.4,3.3-1.4,5.1c0.2,0,0.4,0,0.5,0c0.3,0,0.5,0,0.8,0c1.5,0,3.1,0.2,4.8,0.5l9.7,2.1c0.4,0.1,0.6,0.3,0.7,0.7s0,0.7-0.3,1
		l-3.6,3.6c-0.2,0.2-0.4,0.3-0.7,0.3c-0.1,0-0.1,0-0.2,0l-7.4-1.6c-2.1-0.5-3.8-0.8-5-0.9c-0.6-0.1-1.1-0.1-1.5-0.1
		c-0.4,0-0.8,0-1.1,0.1c-0.6,0.1-1.1,0.3-1.6,0.6c-0.2,0.1-0.7,0.5-1.5,1.4l-2.6,2.6l9,9c0.4,0.4,0.4,1,0,1.4l-2.9,2.9
		C28.1,198.4,27.8,198.5,27.5,198.5z M18.2,181l5.5-5.5c1.2-1.2,2.1-2.3,2.5-3.2c0.4-0.8,0.5-1.6,0.3-2.4c-0.2-0.8-0.5-1.5-1.1-2
		c-0.8-0.8-1.6-1.1-2.6-1.1c-0.1,0-0.2,0-0.3,0c-1.2,0.1-2.5,0.8-3.9,2.3l-6.2,6.2L18.2,181z"/>
	<path class="st7" d="M23.1,161.6c0.6,0,1.2,0.1,1.8,0.2c1.6,0.4,3,1.2,4.2,2.4c1.5,1.5,2.3,3.3,2.4,5.4c0.1,2.1-0.8,4.3-2.6,6.7
		c1.1-0.4,2.1-0.6,2.8-0.7c0.2,0,0.5,0,0.7,0c1.4,0,2.9,0.2,4.6,0.5l9.7,2.1l-3.6,3.6l-7.4-1.6c-2.1-0.5-3.8-0.8-5.1-0.9
		c-0.6-0.1-1.2-0.1-1.6-0.1c-0.5,0-0.9,0-1.3,0.1c-0.7,0.2-1.3,0.4-1.9,0.7c-0.4,0.3-1,0.8-1.7,1.5l-3.3,3.3l9.7,9.7l-2.9,2.9
		L5.8,175.7l9.7-9.7c1.9-1.9,3.6-3.2,5-3.8C21.3,161.8,22.2,161.6,23.1,161.6 M18.2,182.4l6.2-6.2c1.3-1.3,2.2-2.5,2.7-3.5
		c0.5-1,0.6-2,0.4-3c-0.2-1-0.7-1.8-1.4-2.5c-1-1-2.1-1.4-3.3-1.4c-0.1,0-0.2,0-0.3,0c-1.4,0.1-2.9,0.9-4.5,2.5l-6.9,6.9L18.2,182.4
		 M23.1,159.6c-1.2,0-2.4,0.2-3.5,0.7c-1.6,0.7-3.5,2.1-5.6,4.3l-9.7,9.7c-0.4,0.4-0.6,0.9-0.6,1.4c0,0.5,0.2,1,0.6,1.4l21.8,21.8
		c0.4,0.4,0.9,0.6,1.4,0.6c0,0,0,0,0,0c0.5,0,1-0.2,1.4-0.6l2.9-2.9c0.8-0.8,0.8-2,0-2.8l-8.3-8.3l1.9-1.9c0.8-0.8,1.2-1.1,1.4-1.2
		c0.4-0.2,0.8-0.4,1.3-0.5c0.2,0,0.4-0.1,0.9-0.1c0.4,0,0.9,0,1.4,0.1c1.2,0.1,2.8,0.4,4.9,0.9l7.4,1.6c0.1,0,0.3,0,0.4,0
		c0.5,0,1-0.2,1.4-0.6l3.6-3.6c0.5-0.5,0.7-1.3,0.5-2c-0.2-0.7-0.8-1.2-1.5-1.4l-9.7-2.1c-1.7-0.4-3.2-0.5-4.7-0.6
		c0.5-1.4,0.8-2.7,0.8-4c-0.1-2.6-1.1-4.9-3-6.8c-1.5-1.5-3.2-2.4-5.1-2.9C24.6,159.7,23.9,159.6,23.1,159.6L23.1,159.6z
		 M13.9,175.2l5.5-5.5c1.2-1.2,2.4-1.9,3.2-2c0.1,0,0.1,0,0.2,0c0.7,0,1.4,0.3,1.9,0.8c0.4,0.4,0.7,0.9,0.8,1.5
		c0.1,0.6,0,1.1-0.2,1.7c-0.3,0.5-0.9,1.5-2.3,2.9l-4.8,4.8L13.9,175.2L13.9,175.2z"/>
</g>
<g>
	<path class="st6" d="M49.5,176.5c-0.3,0-0.5-0.1-0.7-0.3L27,154.4c-0.4-0.4-0.4-1,0-1.4l15.7-15.7c0.2-0.2,0.4-0.3,0.7-0.3l0,0
		c0.3,0,0.5,0.1,0.7,0.3l2.6,2.6c0.4,0.4,0.4,1,0,1.4l-12.2,12.2l5.3,5.3l11.3-11.3c0.2-0.2,0.5-0.3,0.7-0.3s0.5,0.1,0.7,0.3
		l2.6,2.6c0.2,0.2,0.3,0.4,0.3,0.7s-0.1,0.5-0.3,0.7l-11.3,11.3l6,6l12.7-12.7c0.2-0.2,0.4-0.3,0.7-0.3l0,0c0.3,0,0.5,0.1,0.7,0.3
		l2.6,2.6c0.4,0.4,0.4,1,0,1.4l-16.2,16.2C50,176.4,49.8,176.5,49.5,176.5z"/>
	<path class="st7" d="M43.5,138l2.6,2.6l-12.9,12.9l6.7,6.7l12-12l2.6,2.6l-12,12l7.4,7.4l13.4-13.4l2.6,2.6l-16.3,16.2l-21.8-21.8
		L43.5,138 M43.5,136c-0.5,0-1,0.2-1.4,0.6l-15.7,15.7c-0.8,0.8-0.8,2,0,2.8l21.8,21.8c0.4,0.4,0.9,0.6,1.4,0.6c0.5,0,1-0.2,1.4-0.6
		l16.2-16.2c0.8-0.8,0.8-2,0-2.8l-2.6-2.6c-0.4-0.4-0.9-0.6-1.4-0.6s-1,0.2-1.4,0.6l-12,12l-4.6-4.6L55.9,152
		c0.4-0.4,0.6-0.9,0.6-1.4s-0.2-1-0.6-1.4l-2.6-2.6c-0.4-0.4-0.9-0.6-1.4-0.6c-0.5,0-1,0.2-1.4,0.6l-10.6,10.6l-3.8-3.8l11.4-11.4
		c0.8-0.8,0.8-2,0-2.8l-2.6-2.6C44.5,136.2,44,136,43.5,136L43.5,136z"/>
</g>
<g>
	<path class="st6" d="M69.7,156.2c-0.3,0-0.5-0.1-0.7-0.3l-21.8-21.8c-0.4-0.4-0.4-1,0-1.4l8.2-8.2c1.5-1.5,2.7-2.6,3.7-3.2
		c1.3-1,2.7-1.6,4.1-1.8c0.5-0.1,0.9-0.1,1.4-0.1c1,0,2,0.2,3,0.5c1.5,0.5,2.8,1.4,4,2.5c2,2,3.1,4.4,3.2,7.1
		c0.1,2.8-1.4,5.7-4.8,9.1l-4.9,4.9l8.1,8.1c0.4,0.4,0.4,1,0,1.4l-2.9,2.9C70.3,156.1,70,156.2,69.7,156.2z M61.2,139.5l4.9-4.9
		c1.7-1.7,2.6-3.1,2.6-4.4c0.1-1.2-0.4-2.3-1.5-3.3c-0.8-0.8-1.6-1.2-2.5-1.4c-0.2,0-0.5-0.1-0.7-0.1c-0.6,0-1.2,0.2-1.8,0.5
		c-0.4,0.2-1.1,0.8-2.7,2.3l-4.9,4.9L61.2,139.5z"/>
	<path class="st7" d="M64.6,120.4c0.9,0,1.7,0.2,2.6,0.5c1.3,0.5,2.6,1.2,3.6,2.3c1.9,1.9,2.8,4,2.9,6.5c0.1,2.5-1.4,5.2-4.5,8.3
		l-5.6,5.6l8.9,8.9l-2.9,2.9L48,133.5l8.2-8.2c1.4-1.4,2.6-2.5,3.5-3.1c1.2-0.9,2.5-1.4,3.7-1.7C63.8,120.4,64.2,120.4,64.6,120.4
		 M61.2,140.9l5.6-5.6c1.9-1.9,2.8-3.5,2.9-5c0.1-1.5-0.5-2.8-1.8-4.1c-0.9-0.9-1.9-1.5-3-1.6c-0.3,0-0.6-0.1-0.8-0.1
		c-0.8,0-1.6,0.2-2.3,0.6c-0.6,0.4-1.6,1.2-2.9,2.5l-5.6,5.6L61.2,140.9 M64.6,118.4c-0.5,0-1.1,0-1.6,0.1c-1.5,0.3-3,1-4.5,2
		c-1,0.7-2.2,1.8-3.8,3.3l-8.2,8.2c-0.8,0.8-0.8,2,0,2.8l21.8,21.8c0.4,0.4,0.9,0.6,1.4,0.6c0,0,0,0,0,0c0.5,0,1-0.2,1.4-0.6
		l2.9-2.9c0.8-0.8,0.8-2,0-2.8l-7.4-7.4l4.2-4.2c3.5-3.5,5.2-6.7,5-9.8c-0.1-3-1.3-5.6-3.5-7.8c-1.3-1.3-2.8-2.2-4.4-2.8
		C66.8,118.6,65.7,118.4,64.6,118.4L64.6,118.4z M56.3,133.2l4.2-4.2c1.6-1.6,2.3-2.1,2.5-2.2c0.4-0.2,0.8-0.3,1.3-0.3
		c0.2,0,0.3,0,0.5,0c0.7,0.1,1.3,0.5,2,1.1c1.1,1.1,1.2,2,1.2,2.6c0,0.5-0.4,1.7-2.3,3.7l-4.2,4.2L56.3,133.2L56.3,133.2z"/>
</g>
<g>
	<path class="st6" d="M89.7,131.2c-1.6,0-3.2-0.3-4.8-0.8c-2.7-0.9-5.1-2.4-7.1-4.4c-3.8-3.8-5.8-7.8-5.9-12.1
		c-0.1-4.3,1.5-8.1,4.7-11.3c2.1-2.1,4.6-3.6,7.3-4.3c1.2-0.3,2.4-0.5,3.6-0.5c1.6,0,3.2,0.3,4.7,0.8c2.7,0.9,5.2,2.5,7.5,4.8
		c2.3,2.3,3.9,4.9,4.8,7.7c0.9,2.8,1,5.6,0.2,8.3c-0.8,2.7-2.2,5.1-4.2,7.1c-2.2,2.2-4.7,3.6-7.5,4.3C92,131,90.9,131.2,89.7,131.2z
		 M87,103.7c-0.6,0-1.3,0.1-1.9,0.2c-1.7,0.4-3.2,1.2-4.5,2.5c-1.9,1.9-2.8,4.1-2.9,6.7c-0.1,2.6,1.5,5.4,4.5,8.5
		c2.4,2.4,5,3.7,7.6,3.8c0.1,0,0.2,0,0.4,0c2.5,0,4.6-0.9,6.5-2.8c2-2,2.9-4.2,2.8-6.9c-0.1-2.7-1.5-5.3-4.1-7.9
		c-1.7-1.7-3.4-2.8-5.2-3.5C89.2,103.9,88.1,103.7,87,103.7z"/>
	<path class="st7" d="M87.6,98.8c1.5,0,2.9,0.2,4.4,0.7c2.6,0.9,4.9,2.4,7.1,4.6c2.2,2.2,3.7,4.6,4.6,7.3c0.9,2.6,0.9,5.2,0.2,7.7
		c-0.7,2.5-2.1,4.7-3.9,6.6c-2,2-4.4,3.4-7,4c-1.1,0.3-2.2,0.4-3.2,0.4c-1.5,0-3-0.3-4.5-0.8c-2.5-0.9-4.8-2.3-6.7-4.2
		c-3.6-3.6-5.5-7.4-5.6-11.4c-0.1-4,1.4-7.5,4.4-10.6c2-2,4.3-3.3,6.9-4C85.4,99,86.5,98.8,87.6,98.8 M90.3,126.4
		c2.8,0,5.2-1,7.2-3.1c2.2-2.2,3.2-4.7,3.1-7.6c-0.1-2.9-1.6-5.8-4.4-8.6c-1.8-1.8-3.6-3-5.5-3.7c-1.2-0.5-2.4-0.7-3.6-0.7
		c-0.7,0-1.4,0.1-2.1,0.2c-1.9,0.4-3.5,1.4-5,2.8c-2,2-3.1,4.5-3.2,7.4c-0.1,2.9,1.5,5.9,4.8,9.2c2.6,2.6,5.4,4,8.3,4.1
		C90,126.4,90.1,126.4,90.3,126.4 M87.6,96.8C87.6,96.8,87.6,96.8,87.6,96.8c-1.3,0-2.5,0.2-3.8,0.5c-2.9,0.7-5.5,2.3-7.8,4.5
		c-3.5,3.5-5.2,7.5-5,12c0.1,4.5,2.2,8.8,6.2,12.8c2.1,2.1,4.6,3.7,7.4,4.7c1.7,0.6,3.4,0.9,5.2,0.9c1.2,0,2.5-0.1,3.7-0.4
		c3-0.7,5.6-2.2,7.9-4.5c2.1-2.1,3.6-4.6,4.5-7.5c0.8-2.9,0.8-5.9-0.2-8.9c-0.9-2.9-2.7-5.6-5.1-8.1c-2.4-2.4-5-4.1-7.9-5.1
		C91,97.1,89.3,96.8,87.6,96.8L87.6,96.8z M90.3,124.4c-0.1,0-0.2,0-0.3,0c-2.4-0.1-4.7-1.2-7-3.5c-2.9-2.9-4.3-5.5-4.2-7.8
		c0.1-2.4,0.9-4.3,2.6-6c1.2-1.2,2.5-1.9,4-2.3c0.5-0.1,1.1-0.2,1.7-0.2c0.9,0,1.9,0.2,2.9,0.6c1.6,0.6,3.3,1.7,4.8,3.3
		c2.4,2.4,3.7,4.9,3.8,7.3c0.1,2.4-0.7,4.4-2.5,6.1C94.4,123.6,92.5,124.4,90.3,124.4L90.3,124.4z"/>
</g>
<g>
	<path class="st6" d="M113.7,112.2c-0.3,0-0.5-0.1-0.7-0.3L91.3,90.2C91.1,90,91,89.7,91,89.5s0.1-0.5,0.3-0.7l9.7-9.7
		c2-2,3.8-3.4,5.3-4c1-0.4,2-0.7,3.1-0.7c0.7,0,1.3,0.1,2,0.2c1.8,0.4,3.3,1.3,4.7,2.6c1.7,1.7,2.6,3.8,2.7,6.1
		c0,1.6-0.4,3.3-1.4,5.1c0.2,0,0.4,0,0.5,0c0.3,0,0.5,0,0.8,0c1.5,0,3.1,0.2,4.8,0.5l9.7,2.1c0.4,0.1,0.6,0.3,0.7,0.7
		c0.1,0.4,0,0.7-0.3,1l-3.6,3.6c-0.2,0.2-0.4,0.3-0.7,0.3c-0.1,0-0.1,0-0.2,0l-7.4-1.6c-2.1-0.5-3.8-0.8-5-0.9
		c-0.6-0.1-1.1-0.1-1.5-0.1c-0.4,0-0.8,0-1.1,0.1c-0.6,0.1-1.1,0.3-1.6,0.6c-0.2,0.1-0.7,0.5-1.5,1.4l-2.6,2.6l9,9
		c0.4,0.4,0.4,1,0,1.4l-2.9,2.9C114.3,112.1,114,112.2,113.7,112.2z M104.5,94.8l5.5-5.5c1.2-1.2,2.1-2.3,2.5-3.2
		c0.4-0.8,0.5-1.6,0.3-2.4c-0.2-0.8-0.5-1.5-1.1-2c-0.8-0.8-1.6-1.1-2.6-1.1c-0.1,0-0.2,0-0.3,0c-1.2,0.1-2.5,0.8-3.9,2.3L98.7,89
		L104.5,94.8z"/>
	<path class="st7" d="M109.3,75.4c0.6,0,1.2,0.1,1.8,0.2c1.6,0.4,3,1.2,4.2,2.4c1.5,1.5,2.3,3.3,2.4,5.4c0.1,2.1-0.8,4.3-2.6,6.7
		c1.1-0.4,2.1-0.6,2.8-0.7c0.2,0,0.5,0,0.7,0c1.4,0,2.9,0.2,4.6,0.5l9.7,2.1l-3.6,3.6l-7.4-1.6c-2.1-0.5-3.8-0.8-5.1-0.9
		c-0.6-0.1-1.2-0.1-1.6-0.1c-0.5,0-0.9,0-1.3,0.1c-0.7,0.2-1.3,0.4-1.9,0.7c-0.4,0.3-1,0.8-1.7,1.5l-3.3,3.3l9.7,9.7l-2.9,2.9
		L92,89.5l9.7-9.7c1.9-1.9,3.6-3.2,5-3.8C107.5,75.6,108.4,75.4,109.3,75.4 M104.5,96.2l6.2-6.2c1.3-1.3,2.2-2.5,2.7-3.5
		c0.5-1,0.6-2,0.4-3c-0.2-1-0.7-1.8-1.4-2.5c-1-1-2.1-1.4-3.3-1.4c-0.1,0-0.2,0-0.3,0c-1.4,0.1-2.9,0.9-4.5,2.5L97.3,89L104.5,96.2
		 M109.3,73.4c-1.2,0-2.4,0.2-3.5,0.7c-1.6,0.7-3.5,2.1-5.6,4.3l-9.7,9.7c-0.4,0.4-0.6,0.9-0.6,1.4c0,0.5,0.2,1,0.6,1.4l21.8,21.8
		c0.4,0.4,0.9,0.6,1.4,0.6c0,0,0,0,0,0c0.5,0,1-0.2,1.4-0.6l2.9-2.9c0.8-0.8,0.8-2,0-2.8l-8.3-8.3l1.9-1.9c0.8-0.8,1.2-1.1,1.4-1.2
		c0.4-0.2,0.8-0.4,1.3-0.5c0.2,0,0.4-0.1,0.9-0.1c0.4,0,0.9,0,1.4,0.1c1.2,0.1,2.8,0.4,4.9,0.9l7.4,1.6c0.1,0,0.3,0,0.4,0
		c0.5,0,1-0.2,1.4-0.6l3.6-3.6c0.5-0.5,0.7-1.3,0.5-2c-0.2-0.7-0.8-1.2-1.5-1.4l-9.7-2.1c-1.7-0.4-3.2-0.5-4.7-0.6
		c0.5-1.4,0.8-2.7,0.8-4c-0.1-2.6-1.1-4.9-3-6.8c-1.5-1.5-3.2-2.4-5.1-2.9C110.8,73.5,110.1,73.4,109.3,73.4L109.3,73.4z M100.1,89
		l5.5-5.5c1.2-1.2,2.4-1.9,3.2-2c0.1,0,0.1,0,0.2,0c0.7,0,1.4,0.3,1.9,0.8c0.4,0.4,0.7,0.9,0.8,1.5c0.1,0.6,0,1.1-0.2,1.7
		c-0.3,0.5-0.9,1.5-2.3,2.9l-4.8,4.8L100.1,89L100.1,89z"/>
</g>
<g>
	<path class="st6" d="M140.7,85.3c-0.3,0-0.5-0.1-0.7-0.3l-18.5-18.5L115,73c-0.2,0.2-0.5,0.3-0.7,0.3s-0.5-0.1-0.7-0.3l-2.6-2.6
		c-0.2-0.2-0.3-0.4-0.3-0.7s0.1-0.5,0.3-0.7l17.3-17.3c0.2-0.2,0.5-0.3,0.7-0.3s0.5,0.1,0.7,0.3l2.6,2.6c0.2,0.2,0.3,0.4,0.3,0.7
		s-0.1,0.5-0.3,0.7l-6.5,6.5l18.5,18.5c0.2,0.2,0.3,0.4,0.3,0.7s-0.1,0.5-0.3,0.7l-2.9,2.9C141.2,85.2,140.9,85.3,140.7,85.3z"/>
	<path class="st7" d="M129,52.5l2.6,2.6l-7.2,7.2l19.2,19.2l-2.9,2.9l-19.2-19.2l-7.2,7.2l-2.6-2.6L129,52.5 M129,50.5
		c-0.5,0-1,0.2-1.4,0.6l-17.3,17.3c-0.4,0.4-0.6,0.9-0.6,1.4c0,0.5,0.2,1,0.6,1.4l2.6,2.6c0.4,0.4,0.9,0.6,1.4,0.6
		c0.5,0,1-0.2,1.4-0.6l5.8-5.8l17.8,17.8c0.4,0.4,0.9,0.6,1.4,0.6s1-0.2,1.4-0.6l2.9-2.9c0.4-0.4,0.6-0.9,0.6-1.4s-0.2-1-0.6-1.4
		l-17.8-17.8l5.8-5.8c0.4-0.4,0.6-0.9,0.6-1.4s-0.2-1-0.6-1.4l-2.6-2.6C130,50.7,129.5,50.5,129,50.5L129,50.5z"/>
</g>
<g>
	<path class="st6" d="M153.8,72.2c-0.3,0-0.5-0.1-0.7-0.3l-21.8-21.8c-0.4-0.4-0.4-1,0-1.4L147,33c0.2-0.2,0.4-0.3,0.7-0.3l0,0
		c0.3,0,0.5,0.1,0.7,0.3l2.6,2.6c0.4,0.4,0.4,1,0,1.4l-12.2,12.2l5.3,5.3l11.3-11.3c0.2-0.2,0.5-0.3,0.7-0.3s0.5,0.1,0.7,0.3
		l2.6,2.6c0.2,0.2,0.3,0.4,0.3,0.7s-0.1,0.5-0.3,0.7l-11.3,11.3l6,6l12.7-12.7c0.2-0.2,0.4-0.3,0.7-0.3l0,0c0.3,0,0.5,0.1,0.7,0.3
		l2.6,2.6c0.4,0.4,0.4,1,0,1.4l-16.2,16.2C154.3,72.1,154,72.2,153.8,72.2z"/>
	<path class="st7" d="M147.7,33.7l2.6,2.6l-12.9,12.9l6.7,6.7l12-12l2.6,2.6l-12,12l7.4,7.4l13.4-13.4L170,55l-16.2,16.2L132,49.5
		L147.7,33.7 M147.7,31.7c-0.5,0-1,0.2-1.4,0.6L130.6,48c-0.8,0.8-0.8,2,0,2.8l21.8,21.8c0.4,0.4,0.9,0.6,1.4,0.6s1-0.2,1.4-0.6
		l16.2-16.2c0.8-0.8,0.8-2,0-2.8l-2.6-2.6c-0.4-0.4-0.9-0.6-1.4-0.6s-1,0.2-1.4,0.6l-12,12l-4.6-4.6l10.6-10.6
		c0.4-0.4,0.6-0.9,0.6-1.4c0-0.5-0.2-1-0.6-1.4l-2.6-2.6c-0.4-0.4-0.9-0.6-1.4-0.6c-0.5,0-1,0.2-1.4,0.6L144.1,53l-3.8-3.8
		l11.4-11.4c0.8-0.8,0.8-2,0-2.8l-2.6-2.6C148.8,31.9,148.3,31.7,147.7,31.7L147.7,31.7z"/>
</g>
<g>
	<path class="st6" d="M174,52c-0.3,0-0.5-0.1-0.7-0.3l-21.8-21.8c-0.2-0.2-0.3-0.4-0.3-0.7s0.1-0.5,0.3-0.7l9.7-9.7
		c2-2,3.8-3.4,5.3-4c1-0.4,2-0.7,3.1-0.7c0.7,0,1.3,0.1,2,0.2c1.8,0.4,3.3,1.3,4.7,2.6c1.7,1.7,2.6,3.8,2.7,6.1
		c0,1.6-0.4,3.3-1.4,5.1c0.2,0,0.4,0,0.5,0c0.3,0,0.5,0,0.8,0c1.5,0,3.1,0.2,4.8,0.5l9.7,2.1c0.4,0.1,0.6,0.3,0.7,0.7
		c0.1,0.4,0,0.7-0.3,1l-3.6,3.6c-0.2,0.2-0.4,0.3-0.7,0.3c-0.1,0-0.1,0-0.2,0l-7.4-1.6c-2.1-0.5-3.8-0.8-5-0.9
		c-0.6-0.1-1.1-0.1-1.5-0.1c-0.4,0-0.8,0-1.1,0.1c-0.6,0.1-1.1,0.3-1.6,0.6c-0.2,0.1-0.7,0.5-1.5,1.4l-2.6,2.6l9,9
		c0.4,0.4,0.4,1,0,1.4l-2.9,2.9C174.6,51.8,174.3,52,174,52z M164.8,34.5l5.5-5.5c1.2-1.2,2.1-2.3,2.5-3.2c0.4-0.8,0.5-1.6,0.3-2.4
		c-0.2-0.8-0.5-1.5-1.1-2c-0.8-0.8-1.6-1.1-2.6-1.1c-0.1,0-0.2,0-0.3,0c-1.2,0.1-2.5,0.8-3.9,2.3l-6.2,6.2L164.8,34.5z"/>
	<path class="st7" d="M169.6,15.1c0.6,0,1.2,0.1,1.8,0.2c1.6,0.4,3,1.2,4.2,2.4c1.5,1.5,2.3,3.3,2.4,5.4c0.1,2.1-0.8,4.3-2.6,6.7
		c1.1-0.4,2.1-0.6,2.8-0.7c0.2,0,0.5,0,0.7,0c1.4,0,2.9,0.2,4.6,0.5l9.7,2.1l-3.6,3.6l-7.4-1.6c-2.1-0.5-3.8-0.8-5.1-0.9
		c-0.6-0.1-1.2-0.1-1.6-0.1c-0.5,0-0.9,0-1.3,0.1c-0.7,0.2-1.3,0.4-1.9,0.7c-0.4,0.3-1,0.8-1.7,1.5l-3.3,3.3l9.7,9.7L174,51
		l-21.8-21.8l9.7-9.7c1.9-1.9,3.6-3.2,5-3.8C167.8,15.3,168.7,15.1,169.6,15.1 M164.8,35.9l6.2-6.2c1.3-1.3,2.2-2.5,2.7-3.5
		c0.5-1,0.6-2,0.4-3c-0.2-1-0.7-1.8-1.4-2.5c-1-1-2.1-1.4-3.3-1.4c-0.1,0-0.2,0-0.3,0c-1.4,0.1-2.9,0.9-4.5,2.5l-6.9,6.9L164.8,35.9
		 M169.6,13.1c-1.2,0-2.4,0.2-3.5,0.7c-1.6,0.7-3.5,2.1-5.6,4.3l-9.7,9.7c-0.4,0.4-0.6,0.9-0.6,1.4c0,0.5,0.2,1,0.6,1.4l21.8,21.8
		c0.4,0.4,0.9,0.6,1.4,0.6c0,0,0,0,0,0c0.5,0,1-0.2,1.4-0.6l2.9-2.9c0.8-0.8,0.8-2,0-2.8l-8.3-8.3l1.9-1.9c0.8-0.8,1.2-1.1,1.4-1.2
		c0.4-0.2,0.8-0.4,1.3-0.5c0.2,0,0.4-0.1,0.9-0.1c0.4,0,0.9,0,1.4,0.1c1.2,0.1,2.8,0.4,4.9,0.9l7.4,1.6c0.1,0,0.3,0,0.4,0
		c0.5,0,1-0.2,1.4-0.6l3.6-3.6c0.5-0.5,0.7-1.3,0.5-2c-0.2-0.7-0.8-1.2-1.5-1.4l-9.7-2.1c-1.7-0.4-3.2-0.5-4.7-0.6
		c0.5-1.4,0.8-2.7,0.8-4c-0.1-2.6-1.1-4.9-3-6.8c-1.5-1.5-3.2-2.4-5.1-2.9C171.1,13.2,170.4,13.1,169.6,13.1L169.6,13.1z
		 M160.4,28.7l5.5-5.5c1.2-1.2,2.4-1.9,3.2-2c0.1,0,0.1,0,0.2,0c0.7,0,1.4,0.3,1.9,0.8c0.4,0.4,0.7,0.9,0.8,1.5
		c0.1,0.6,0,1.1-0.2,1.7c-0.3,0.5-0.9,1.5-2.3,2.9l-4.8,4.8L160.4,28.7L160.4,28.7z"/>
</g>
</svg>
