<?xml version="1.0" encoding="UTF-8"?>
<svg id="_图层_1" data-name="图层 1" xmlns="http://www.w3.org/2000/svg" viewBox="0 0 600 300">
  <defs>
    <style>
      .cls-1 {
        stroke: #dde8ed;
      }

      .cls-1, .cls-2, .cls-3, .cls-4, .cls-5, .cls-6, .cls-7, .cls-8, .cls-9, .cls-10, .cls-11 {
        fill: none;
        stroke-miterlimit: 10;
      }

      .cls-1, .cls-2, .cls-3, .cls-4, .cls-5, .cls-6, .cls-7, .cls-8, .cls-10, .cls-11 {
        stroke-width: 3.63px;
      }

      .cls-12 {
        fill: #4f4f4f;
      }

      .cls-2 {
        stroke: #c3e2d2;
      }

      .cls-3 {
        stroke: #d7e9f4;
      }

      .cls-4 {
        stroke: #edd9df;
      }

      .cls-5 {
        stroke: #e5e5e5;
      }

      .cls-13 {
        fill: #f9f9f9;
      }

      .cls-6 {
        stroke: #bedcea;
      }

      .cls-7 {
        stroke: #edbecd;
      }

      .cls-8 {
        stroke: #d1e8da;
      }

      .cls-9 {
        stroke: #4f4f4f;
        stroke-width: 11.9px;
      }

      .cls-10 {
        stroke: #aae2c3;
      }

      .cls-11 {
        stroke: #eadce0;
      }
    </style>
  </defs>
  <rect class="cls-13" width="600" height="300"/>
  <polygon class="cls-5" points="493.42 -57.7 539.04 -57.7 561.85 -18.19 539.04 21.32 493.42 21.32 470.61 -18.19 493.42 -57.7"/>
  <polygon class="cls-5" points="493.42 21.32 539.04 21.32 561.85 60.82 539.04 100.33 493.42 100.33 470.61 60.82 493.42 21.32"/>
  <polygon class="cls-5" points="425.29 -18.19 470.91 -18.19 493.72 21.32 470.91 60.82 425.29 60.82 402.48 21.32 425.29 -18.19"/>
  <g>
    <polygon class="cls-5" points="561.55 60.82 607.17 60.82 629.98 100.33 607.17 139.84 561.55 139.84 538.74 100.33 561.55 60.82"/>
    <polygon class="cls-5" points="561.55 139.84 607.17 139.84 629.98 179.34 607.17 218.85 561.55 218.85 538.74 179.34 561.55 139.84"/>
    <polygon class="cls-5" points="493.42 100.33 539.04 100.33 561.85 139.84 539.04 179.34 493.42 179.34 470.61 139.84 493.42 100.33"/>
  </g>
  <g>
    <polygon class="cls-5" points="357.16 -57.7 402.78 -57.7 425.59 -18.19 402.78 21.32 357.16 21.32 334.35 -18.19 357.16 -57.7"/>
    <polygon class="cls-5" points="357.16 21.32 402.78 21.32 425.59 60.82 402.78 100.33 357.16 100.33 334.35 60.82 357.16 21.32"/>
    <polygon class="cls-5" points="289.03 -18.19 334.65 -18.19 357.46 21.32 334.65 60.82 289.03 60.82 266.23 21.32 289.03 -18.19"/>
  </g>
  <polygon class="cls-5" points="289.03 60.82 334.65 60.82 357.46 100.33 334.65 139.84 289.03 139.84 266.23 100.33 289.03 60.82"/>
  <polygon class="cls-5" points="289.03 139.84 334.65 139.84 357.46 179.34 334.65 218.85 289.03 218.85 266.23 179.34 289.03 139.84"/>
  <polygon class="cls-5" points="220.91 100.33 266.52 100.33 289.33 139.84 266.52 179.34 220.91 179.34 198.1 139.84 220.91 100.33"/>
  <polygon class="cls-5" points="357.16 179.34 402.78 179.34 425.59 218.85 402.78 258.36 357.16 258.36 334.35 218.85 357.16 179.34"/>
  <polygon class="cls-5" points="357.16 258.36 402.78 258.36 425.59 297.87 402.78 337.37 357.16 337.37 334.35 297.87 357.16 258.36"/>
  <polygon class="cls-5" points="289.03 218.85 334.65 218.85 357.46 258.36 334.65 297.87 289.03 297.87 266.23 258.36 289.03 218.85"/>
  <polygon class="cls-5" points="220.91 258.36 266.52 258.36 289.33 297.87 266.52 337.37 220.91 337.37 198.1 297.87 220.91 258.36"/>
  <polygon class="cls-5" points="84.65 100.33 130.27 100.33 153.08 139.84 130.27 179.34 84.65 179.34 61.84 139.84 84.65 100.33"/>
  <polygon class="cls-3" points="220.91 179.34 266.52 179.34 289.33 218.85 266.52 258.36 220.91 258.36 198.1 218.85 220.91 179.34"/>
  <g>
    <polygon class="cls-5" points="493.42 179.34 539.04 179.34 561.85 218.85 539.04 258.36 493.42 258.36 470.61 218.85 493.42 179.34"/>
    <polygon class="cls-5" points="493.42 258.36 539.04 258.36 561.85 297.87 539.04 337.37 493.42 337.37 470.61 297.87 493.42 258.36"/>
    <polygon class="cls-5" points="425.29 218.85 470.91 218.85 493.72 258.36 470.91 297.87 425.29 297.87 402.48 258.36 425.29 218.85"/>
  </g>
  <g>
    <polygon class="cls-5" points="84.65 179.34 130.27 179.34 153.08 218.85 130.27 258.36 84.65 258.36 61.84 218.85 84.65 179.34"/>
    <polygon class="cls-5" points="84.65 258.36 130.27 258.36 153.08 297.87 130.27 337.37 84.65 337.37 61.84 297.87 84.65 258.36"/>
    <polygon class="cls-5" points="16.52 218.85 62.14 218.85 84.95 258.36 62.14 297.87 16.52 297.87 -6.29 258.36 16.52 218.85"/>
  </g>
  <polygon class="cls-1" points="152.78 139.84 198.4 139.84 221.2 179.34 198.4 218.85 152.78 218.85 129.97 179.34 152.78 139.84"/>
  <polygon class="cls-5" points="220.91 -57.7 266.52 -57.7 289.33 -18.19 266.52 21.32 220.91 21.32 198.1 -18.19 220.91 -57.7"/>
  <polygon class="cls-2" points="220.91 21.32 266.52 21.32 289.33 60.82 266.52 100.33 220.91 100.33 198.1 60.82 220.91 21.32"/>
  <polygon class="cls-6" points="152.78 218.85 198.4 218.85 221.2 258.36 198.4 297.87 152.78 297.87 129.97 258.36 152.78 218.85"/>
  <polygon class="cls-5" points="84.65 -57.7 130.27 -57.7 153.08 -18.19 130.27 21.32 84.65 21.32 61.84 -18.19 84.65 -57.7"/>
  <polygon class="cls-5" points="84.65 21.32 130.27 21.32 153.08 60.82 130.27 100.33 84.65 100.33 61.84 60.82 84.65 21.32"/>
  <polygon class="cls-5" points="16.52 -18.19 62.14 -18.19 84.95 21.32 62.14 60.82 16.52 60.82 -6.29 21.32 16.52 -18.19"/>
  <g>
    <polygon class="cls-5" points="16.52 60.82 62.14 60.82 84.95 100.33 62.14 139.84 16.52 139.84 -6.29 100.33 16.52 60.82"/>
    <polygon class="cls-5" points="16.52 139.84 62.14 139.84 84.95 179.34 62.14 218.85 16.52 218.85 -6.29 179.34 16.52 139.84"/>
    <polygon class="cls-5" points="-51.61 100.33 -5.99 100.33 16.82 139.84 -5.99 179.34 -51.61 179.34 -74.42 139.84 -51.61 100.33"/>
  </g>
  <polygon class="cls-11" points="357.16 100.33 402.78 100.33 425.59 139.84 402.78 179.34 357.16 179.34 334.35 139.84 357.16 100.33"/>
  <polygon class="cls-4" points="425.29 139.84 470.91 139.84 493.72 179.34 470.91 218.85 425.29 218.85 402.48 179.34 425.29 139.84"/>
  <polygon class="cls-7" points="425.29 60.82 470.91 60.82 493.72 100.33 470.91 139.84 425.29 139.84 402.48 100.33 425.29 60.82"/>
  <polygon class="cls-8" points="152.78 60.82 198.4 60.82 221.2 100.33 198.4 139.84 152.78 139.84 129.97 100.33 152.78 60.82"/>
  <g>
    <path class="cls-9" d="M205.27,145.75c-13.65-13.32-27.3-26.65-40.96-39.97-10.5,12.76-21,25.52-31.5,38.27,19.27,17.75,38.54,35.51,57.81,53.26"/>
    <path class="cls-9" d="M179.57,86.4c18.17,17.03,36.33,34.07,54.5,51.1-10.55,12.42-21.1,24.84-31.64,37.26-10.4-9.53-20.8-19.06-31.2-28.58"/>
    <path class="cls-9" d="M168.78,129.34c-4.37,5.15-8.74,10.31-13.11,15.46"/>
  </g>
  <g>
    <path class="cls-12" d="M263.39,186.46l23.67-81.97h16.74l23.67,81.97h-12.12l-19.4-72.04h-1.04l-19.4,72.04h-12.12ZM274.36,166.49v-10.97h41.56v10.97h-41.56Z"/>
    <path class="cls-12" d="M339.76,115.46v-10.97h49.87v10.97h-49.87ZM339.76,186.46v-10.97h49.87v10.97h-49.87ZM358.64,186.46v-81.97h12.01v81.97h-12.01Z"/>
  </g>
  <polygon class="cls-10" points="152.78 -18.19 198.4 -18.19 221.2 21.32 198.4 60.82 152.78 60.82 129.97 21.32 152.78 -18.19"/>
</svg>