<svg xmlns="http://www.w3.org/2000/svg" width="600" height="300"><g stroke-miterlimit="10" data-paper-data="{&quot;isPaintingLayer&quot;:true}" style="mix-blend-mode:normal"><path fill="#404040" d="M0 300V0h600v300z"/><path fill="none" stroke="#515151" stroke-width="4.17" d="m62.5 37.5 25-25h300l150 150"/><path fill="#515151" d="M62.5 31.25c3.45178 0 6.25 2.79822 6.25 6.25s-2.79822 6.25-6.25 6.25-6.25-2.79822-6.25-6.25 2.79822-6.25 6.25-6.25zm475 125c3.45178 0 6.25 2.79822 6.25 6.25s-2.79822 6.25-6.25 6.25-6.25-2.79822-6.25-6.25 2.79822-6.25 6.25-6.25z"/><path fill="none" stroke="#515151" stroke-width="4.17" d="m537.5 137.5-125-125"/><path fill="#515151" d="M537.5 131.25c3.45178 0 6.25 2.79822 6.25 6.25s-2.79822 6.25-6.25 6.25-6.25-2.79822-6.25-6.25 2.79822-6.25 6.25-6.25zm-125-125c3.45178 0 6.25 2.79822 6.25 6.25s-2.79822 6.25-6.25 6.25-6.25-2.79822-6.25-6.25 2.79822-6.25 6.25-6.25z"/><path fill="none" stroke="#515151" stroke-width="4.17" d="m337.5 212.5-75-75v-100"/><path fill="#515151" d="M337.5 206.25c3.45178 0 6.25 2.79822 6.25 6.25s-2.79822 6.25-6.25 6.25-6.25-2.79822-6.25-6.25 2.79822-6.25 6.25-6.25zm-75-175c3.45178 0 6.25 2.79822 6.25 6.25s-2.79822 6.25-6.25 6.25-6.25-2.79822-6.25-6.25 2.79822-6.25 6.25-6.25z"/><path fill="none" stroke="#515151" stroke-width="4.17" d="M362.5 137.5v-100"/><path fill="#515151" d="M362.5 131.25c3.45178 0 6.25 2.79822 6.25 6.25s-2.79822 6.25-6.25 6.25-6.25-2.79822-6.25-6.25 2.79822-6.25 6.25-6.25zm0-100c3.45178 0 6.25 2.79822 6.25 6.25s-2.79822 6.25-6.25 6.25-6.25-2.79822-6.25-6.25 2.79822-6.25 6.25-6.25z"/><path fill="none" stroke="#515151" stroke-width="4.17" d="M587.5 287.5h-150l-150-150v-100"/><path fill="#515151" d="M287.5 31.25c3.45178 0 6.25 2.79822 6.25 6.25s-2.79822 6.25-6.25 6.25-6.25-2.79822-6.25-6.25 2.79822-6.25 6.25-6.25zm300 250c3.45178 0 6.25 2.79822 6.25 6.25s-2.79822 6.25-6.25 6.25-6.25-2.79822-6.25-6.25 2.79822-6.25 6.25-6.25z"/><path fill="none" stroke="#515151" stroke-width="4.17" d="M12.5 62.5h150l100 100v25l-50 50"/><path fill="#515151" d="M212.5 231.25c3.45178 0 6.25 2.79822 6.25 6.25s-2.79822 6.25-6.25 6.25-6.25-2.79822-6.25-6.25 2.79822-6.25 6.25-6.25zm-200-175c3.45178 0 6.25 2.79822 6.25 6.25s-2.79822 6.25-6.25 6.25-6.25-2.79822-6.25-6.25 2.79822-6.25 6.25-6.25z"/><path fill="none" stroke="#515151" stroke-width="4.17" d="m512.5 62.5 50-50h25"/><path fill="#515151" d="M512.5 56.25c3.45178 0 6.25 2.79822 6.25 6.25s-2.79822 6.25-6.25 6.25-6.25-2.79822-6.25-6.25 2.79822-6.25 6.25-6.25zm75-50c3.45178 0 6.25 2.79822 6.25 6.25s-2.79822 6.25-6.25 6.25-6.25-2.79822-6.25-6.25 2.79822-6.25 6.25-6.25z"/><path fill="none" stroke="#515151" stroke-width="4.17" d="M587.5 262.5h-150l-100-100v-100"/><path fill="#515151" d="M337.5 56.25c3.45178 0 6.25 2.79822 6.25 6.25s-2.79822 6.25-6.25 6.25-6.25-2.79822-6.25-6.25 2.79822-6.25 6.25-6.25zm250 200c3.45178 0 6.25 2.79822 6.25 6.25s-2.79822 6.25-6.25 6.25-6.25-2.79822-6.25-6.25 2.79822-6.25 6.25-6.25z"/><path fill="none" stroke="#515151" stroke-width="4.17" d="M12.5 12.5h50"/><path fill="#515151" d="M12.5 6.25c3.45178 0 6.25 2.79822 6.25 6.25s-2.79822 6.25-6.25 6.25-6.25-2.79822-6.25-6.25 2.79822-6.25 6.25-6.25zm50 0c3.45178 0 6.25 2.79822 6.25 6.25s-2.79822 6.25-6.25 6.25-6.25-2.79822-6.25-6.25 2.79822-6.25 6.25-6.25z"/><path fill="none" stroke="#515151" stroke-width="4.17" d="M12.5 87.5h150l75 75v25"/><path fill="#515151" d="M237.5 181.25c3.45178 0 6.25 2.79822 6.25 6.25s-2.79822 6.25-6.25 6.25-6.25-2.79822-6.25-6.25 2.79822-6.25 6.25-6.25zm-225-100c3.45178 0 6.25 2.79822 6.25 6.25s-2.79822 6.25-6.25 6.25-6.25-2.79822-6.25-6.25 2.79822-6.25 6.25-6.25z"/><path fill="none" stroke="#515151" stroke-width="4.17" d="m162.5 262.5-25 25h-100l-25-25v-50l50-50h150"/><path fill="#515151" d="M162.5 256.25c3.45178 0 6.25 2.79822 6.25 6.25s-2.79822 6.25-6.25 6.25-6.25-2.79822-6.25-6.25 2.79822-6.25 6.25-6.25zm50-100c3.45178 0 6.25 2.79822 6.25 6.25s-2.79822 6.25-6.25 6.25-6.25-2.79822-6.25-6.25 2.79822-6.25 6.25-6.25z"/><path fill="none" stroke="#515151" stroke-width="4.17" d="m112.5 112.5-25 25h-75"/><path fill="#515151" d="M112.5 106.25c3.45178 0 6.25 2.79822 6.25 6.25s-2.79822 6.25-6.25 6.25-6.25-2.79822-6.25-6.25 2.79822-6.25 6.25-6.25zm-100 25c3.45178 0 6.25 2.79822 6.25 6.25s-2.79822 6.25-6.25 6.25-6.25-2.79822-6.25-6.25 2.79822-6.25 6.25-6.25z"/><path fill="none" stroke="#515151" stroke-width="4.17" d="M587.5 237.5h-50l-50-50"/><path fill="#515151" d="M487.5 181.25c3.45178 0 6.25 2.79822 6.25 6.25s-2.79822 6.25-6.25 6.25-6.25-2.79822-6.25-6.25 2.79822-6.25 6.25-6.25zm100 50c3.45178 0 6.25 2.79822 6.25 6.25s-2.79822 6.25-6.25 6.25-6.25-2.79822-6.25-6.25 2.79822-6.25 6.25-6.25z"/><path fill="none" stroke="#515151" stroke-width="4.17" d="M537.5 187.5h-25l-50-50"/><path fill="#515151" d="M537.5 181.25c3.45178 0 6.25 2.79822 6.25 6.25s-2.79822 6.25-6.25 6.25-6.25-2.79822-6.25-6.25 2.79822-6.25 6.25-6.25zm-75-50c3.45178 0 6.25 2.79822 6.25 6.25s-2.79822 6.25-6.25 6.25-6.25-2.79822-6.25-6.25 2.79822-6.25 6.25-6.25z"/><path fill="none" stroke="#515151" stroke-width="4.17" d="M312.5 137.5v-100"/><path fill="#515151" d="M312.5 131.25c3.45178 0 6.25 2.79822 6.25 6.25s-2.79822 6.25-6.25 6.25-6.25-2.79822-6.25-6.25 2.79822-6.25 6.25-6.25zm0-100c3.45178 0 6.25 2.79822 6.25 6.25s-2.79822 6.25-6.25 6.25-6.25-2.79822-6.25-6.25 2.79822-6.25 6.25-6.25z"/><path fill="none" stroke="#515151" stroke-width="4.17" d="M512.5 237.5h-75l-50-50v-25"/><path fill="#515151" d="M387.5 156.25c3.45178 0 6.25 2.79822 6.25 6.25s-2.79822 6.25-6.25 6.25-6.25-2.79822-6.25-6.25 2.79822-6.25 6.25-6.25zm125 75c3.45178 0 6.25 2.79822 6.25 6.25s-2.79822 6.25-6.25 6.25-6.25-2.79822-6.25-6.25 2.79822-6.25 6.25-6.25z"/><path fill="none" stroke="#515151" stroke-width="4.17" d="M187.5 237.5h-75l-50-50"/><path fill="#515151" d="M187.5 231.25c3.45178 0 6.25 2.79822 6.25 6.25s-2.79822 6.25-6.25 6.25-6.25-2.79822-6.25-6.25 2.79822-6.25 6.25-6.25zm-125-50c3.45178 0 6.25 2.79822 6.25 6.25s-2.79822 6.25-6.25 6.25-6.25-2.79822-6.25-6.25 2.79822-6.25 6.25-6.25z"/><path fill="none" stroke="#515151" stroke-width="4.17" d="M237.5 37.5v25l-25 25"/><path fill="#515151" d="M212.5 81.25c3.45178 0 6.25 2.79822 6.25 6.25s-2.79822 6.25-6.25 6.25-6.25-2.79822-6.25-6.25 2.79822-6.25 6.25-6.25zm25-50c3.45178 0 6.25 2.79822 6.25 6.25s-2.79822 6.25-6.25 6.25-6.25-2.79822-6.25-6.25 2.79822-6.25 6.25-6.25z"/><path fill="none" stroke="#515151" stroke-width="4.17" d="m512.5 87.5 25-25h50"/><path fill="#515151" d="M587.5 56.25c3.45178 0 6.25 2.79822 6.25 6.25s-2.79822 6.25-6.25 6.25-6.25-2.79822-6.25-6.25 2.79822-6.25 6.25-6.25zm-75 25c3.45178 0 6.25 2.79822 6.25 6.25s-2.79822 6.25-6.25 6.25-6.25-2.79822-6.25-6.25 2.79822-6.25 6.25-6.25z"/><path fill="none" stroke="#515151" stroke-width="4.17" d="m462.5 212.5-75-75v-100"/><path fill="#515151" d="M387.5 31.25c3.45178 0 6.25 2.79822 6.25 6.25s-2.79822 6.25-6.25 6.25-6.25-2.79822-6.25-6.25 2.79822-6.25 6.25-6.25zm75 175c3.45178 0 6.25 2.79822 6.25 6.25s-2.79822 6.25-6.25 6.25-6.25-2.79822-6.25-6.25 2.79822-6.25 6.25-6.25z"/><path fill="none" stroke="#515151" stroke-width="4.17" d="M262.5 212.5h50l75 75h25"/><path fill="#515151" d="M262.5 206.25c3.45178 0 6.25 2.79822 6.25 6.25s-2.79822 6.25-6.25 6.25-6.25-2.79822-6.25-6.25 2.79822-6.25 6.25-6.25zm150 75c3.45178 0 6.25 2.79822 6.25 6.25s-2.79822 6.25-6.25 6.25-6.25-2.79822-6.25-6.25 2.79822-6.25 6.25-6.25z"/><path fill="none" stroke="#515151" stroke-width="4.17" d="M237.5 237.5h75l50 50"/><path fill="#515151" d="M237.5 231.25c3.45178 0 6.25 2.79822 6.25 6.25s-2.79822 6.25-6.25 6.25-6.25-2.79822-6.25-6.25 2.79822-6.25 6.25-6.25zm125 50c3.45178 0 6.25 2.79822 6.25 6.25s-2.79822 6.25-6.25 6.25-6.25-2.79822-6.25-6.25 2.79822-6.25 6.25-6.25z"/><path fill="none" stroke="#515151" stroke-width="4.17" d="M562.5 187.5v-75l25-25"/><path fill="#515151" d="M587.5 81.25c3.45178 0 6.25 2.79822 6.25 6.25s-2.79822 6.25-6.25 6.25-6.25-2.79822-6.25-6.25 2.79822-6.25 6.25-6.25zm-25 100c3.45178 0 6.25 2.79822 6.25 6.25s-2.79822 6.25-6.25 6.25-6.25-2.79822-6.25-6.25 2.79822-6.25 6.25-6.25z"/><path fill="none" stroke="#515151" stroke-width="4.17" d="M412.5 62.5v75"/><path fill="#515151" d="M412.5 56.25c3.45178 0 6.25 2.79822 6.25 6.25s-2.79822 6.25-6.25 6.25-6.25-2.79822-6.25-6.25 2.79822-6.25 6.25-6.25zm0 75c3.45178 0 6.25 2.79822 6.25 6.25s-2.79822 6.25-6.25 6.25-6.25-2.79822-6.25-6.25 2.79822-6.25 6.25-6.25z"/><path fill="none" stroke="#515151" stroke-width="4.17" d="M487.5 62.5v-50"/><path fill="#515151" d="M487.5 56.25c3.45178 0 6.25 2.79822 6.25 6.25s-2.79822 6.25-6.25 6.25-6.25-2.79822-6.25-6.25 2.79822-6.25 6.25-6.25zm0-50c3.45178 0 6.25 2.79822 6.25 6.25s-2.79822 6.25-6.25 6.25-6.25-2.79822-6.25-6.25 2.79822-6.25 6.25-6.25z"/><path fill="none" stroke="#515151" stroke-width="4.17" d="M162.5 212.5h-50l-25-25"/><path fill="#515151" d="M162.5 206.25c3.45178 0 6.25 2.79822 6.25 6.25s-2.79822 6.25-6.25 6.25-6.25-2.79822-6.25-6.25 2.79822-6.25 6.25-6.25zm-75-25c3.45178 0 6.25 2.79822 6.25 6.25s-2.79822 6.25-6.25 6.25-6.25-2.79822-6.25-6.25 2.79822-6.25 6.25-6.25z"/><g stroke="#fff"><path fill="#363636" stroke-width="5" d="M341.34741 63.20563h108.81487c16.38744 0 29.67206 13.28464 29.67206 29.67206s-13.28463 29.67206-29.67206 29.67206H341.34741c-16.38742 0-29.67206-13.28464-29.67206-29.67206s13.28464-29.67206 29.67206-29.67206z"/><path fill="#474747" stroke-width="5" d="M427.22973 75.0275h17.8502l17.85019 17.8502-17.85019 17.85019h-17.8502L409.37954 92.8777z"/><path fill="#fff" stroke-width=".75" d="M368.93447 78.98707c-2.17059-.19733-4.08466 1.40102-4.28198 3.59134l-.49332 5.70273h5.5646v3.94653h-5.91979l-.86824 10.00445c-.1784 2.08483-1.18017 4.01264-2.78368 5.35693s-3.67658 1.99422-5.76055 1.80602c-2.48154-.21043-4.7189-1.57771-6.03819-3.69l2.9599-2.9599c.47358 1.46022 1.77594 2.58498 3.41375 2.7231 2.17059.19733 4.08466-1.40102 4.28198-3.59134l.8485-9.64926h-5.91979v-3.94653h6.25525l.53278-6.05792c.37492-4.34118 4.20305-7.5576 8.54423-7.16295 2.58498.21706 4.75557 1.65754 6.03819 3.69l-2.9599 2.9599c-.47358-1.46022-1.77594-2.58498-3.41375-2.7231z"/></g><g fill="#fff" stroke="#fff" stroke-width="1.5"><path d="m391.58063 191.84904 4.46521-1.58164s5.05035 19.73555-5.95401 28.98898c-5.4972 4.71314-12.52102 5.26692-19.5065 3.38968-17.80125-4.78381-12.9242-11.37101-31.26821-11.85437-10.92383-.26608-15.11752-.41627-20.6827-.76435-1.99462-.12308-3.25351-.80757-5.66447-1.22336-1.80794-.3118-10.05092.41012-10.05092.41012l-.82749-4.8802s7.65086.37318 10.34716.30256c1.66566-.04363 4.56745 1.04368 5.31658 1.12214 12.64986 1.45358 20.06531-.23618 32.51361 2.44182 7.53519 1.62104 23.83628 18.02981 36.35008 8.10612 8.67511-6.87954 4.96167-24.4575 4.96167-24.4575z" data-paper-data="{&quot;index&quot;:null}"/><path d="M285.26165 214.95993v-16.03188l9.49448.0213 9.50425.0213.74704.19321c.89636.23582 2.03523.78631 2.56758 1.25832.56016.47911 1.07349 1.17984 1.32575 1.80208.2147.53629.2147.54377.2147 4.75523v4.21894l-.26154.58637c-.61628 1.39435-2.01668 2.45983-3.84649 2.93894l-.74704.19321-9.50425.02167z" data-paper-data="{&quot;index&quot;:null}"/></g><g fill="#fff" stroke="#fff"><path stroke-width="1.5" d="M416.44459 144.16753c4.9642 7.58748 14.1724 6.69814 17.39625-.12275.11939-.25093.25693-.49013.33434-.7461 1.85337-6.12855-1.87431-20.40082-1.87431-20.40082s-1.58974-7.81055-2.43338-14.78481c-.84364-6.97426 1.51058-11.52287 1.51058-11.52287l5.71353 5.32749s-3.06638.6904-2.88951 6.47436c.17687 5.78396 2.47244 13.70289 2.47244 13.70289s4.85934 17.1295 1.01015 24.79446c-2.23967 4.4599-4.67353 5.93372-10.94651 6.68981-18.92568.70075-13.44072-22.85122-29.47168-16.19246-4.25831 1.76877-7.6147 8.03911-7.43562 16.81798.31931 15.65357 6.40263 36.65275 6.40263 36.65275l-4.47206 1.51647s-6.65017-21.47049-5.99353-38.64685c.35947-9.40285 3.94007-16.85018 9.49647-19.6212 12.63736-6.30236 18.21018 5.52215 21.18021 10.06167z" data-paper-data="{&quot;index&quot;:null}"/><path stroke-width="5" d="M432.14686 84.86176h8.01594l8.01594 8.01594-8.01594 8.01594h-8.01594l-8.01594-8.01594z"/></g><g stroke="#fff"><path fill="#363636" stroke-width="5" d="M150.07646 176.97276h109.69037c16.51928 0 29.9108 13.39153 29.9108 29.9108s-13.39151 29.9108-29.9108 29.9108H150.07646c-16.51927 0-29.9108-13.39153-29.9108-29.9108s13.39153-29.9108 29.9108-29.9108z"/><path fill="#474747" stroke-width="5" d="M249.01945 187.82266h9.53046c10.52704 0 19.0609 8.53385 19.0609 19.0609 0 10.52705-8.53386 19.06091-19.0609 19.06091h-9.53046c-10.52704 0-19.0609-8.53385-19.0609-19.06091 0-10.52705 8.53386-19.0609 19.0609-19.0609zM151.2934 187.82266h9.53046c10.52703 0 19.06091 8.53385 19.06091 19.0609 0 10.52705-8.53386 19.06091-19.06091 19.06091h-9.53046c-10.52706 0-19.06091-8.53385-19.06091-19.06091 0-10.52705 8.53385-19.0609 19.06091-19.0609z"/><path fill="#fff" stroke-width=".75" d="M212.0254 193.6434c-2.17059-.19733-4.08466 1.40102-4.28198 3.59134l-.49332 5.70273h5.5646v3.94653h-5.91979l-.86824 10.00445c-.1784 2.08483-1.18017 4.01264-2.78368 5.35693s-3.67658 1.99422-5.76055 1.80602c-2.48154-.21043-4.7189-1.57771-6.03819-3.69l2.9599-2.9599c.47358 1.46022 1.77594 2.58498 3.41375 2.7231 2.17059.19733 4.08466-1.40102 4.28198-3.59134l.8485-9.64926h-5.91979v-3.94653h6.25525l.53278-6.05792c.37492-4.34118 4.20305-7.5576 8.54423-7.16295 2.58498.21706 4.75557 1.65754 6.03819 3.69l-2.9599 2.9599c-.47358-1.46022-1.77594-2.58498-3.41375-2.7231z"/></g><path fill="#363636" stroke="#fff" stroke-width="6" d="M400.63795 200.97329c-1.01702 3.77875-7.46173 5.0473-7.46173 5.0473s-7.60096 2.83927-8.42469-1.18587c-.34232-1.67276-.46383-3.72801-.77147-5.61252-1.38745-8.49924-2.56678-17.77048-2.56678-17.77048s.07479-4.44902 1.00225-6.13244c1.71012-3.22597 4.30822-2.97447 7.39577-3.45895l5.64065-.56781c1.69547.62854 3.08695 3.07109 3.90519 5.59882 0 0 .93431 9.71365 1.32443 16.80029.20648 3.75071.18983 6.4143-.04362 7.28167z" data-paper-data="{&quot;index&quot;:null}"/></g></svg>