<svg xmlns="http://www.w3.org/2000/svg" width="600" height="300"><g stroke-miterlimit="10" data-paper-data="{&quot;isPaintingLayer&quot;:true}" style="mix-blend-mode:normal"><path fill="#404040" d="M0 300V0h600v300z"/><path fill="none" stroke="#515151" stroke-width="4.17" d="m62.5 37.5 25-25h300l150 150"/><path fill="#515151" d="M62.5 31.25c3.45178 0 6.25 2.79822 6.25 6.25s-2.79822 6.25-6.25 6.25-6.25-2.79822-6.25-6.25 2.79822-6.25 6.25-6.25zm475 125c3.45178 0 6.25 2.79822 6.25 6.25s-2.79822 6.25-6.25 6.25-6.25-2.79822-6.25-6.25 2.79822-6.25 6.25-6.25z"/><path fill="none" stroke="#515151" stroke-width="4.17" d="m537.5 137.5-125-125"/><path fill="#515151" d="M537.5 131.25c3.45178 0 6.25 2.79822 6.25 6.25s-2.79822 6.25-6.25 6.25-6.25-2.79822-6.25-6.25 2.79822-6.25 6.25-6.25zm-125-125c3.45178 0 6.25 2.79822 6.25 6.25s-2.79822 6.25-6.25 6.25-6.25-2.79822-6.25-6.25 2.79822-6.25 6.25-6.25z"/><path fill="none" stroke="#515151" stroke-width="4.17" d="m337.5 212.5-75-75v-100"/><path fill="#515151" d="M337.5 206.25c3.45178 0 6.25 2.79822 6.25 6.25s-2.79822 6.25-6.25 6.25-6.25-2.79822-6.25-6.25 2.79822-6.25 6.25-6.25zm-75-175c3.45178 0 6.25 2.79822 6.25 6.25s-2.79822 6.25-6.25 6.25-6.25-2.79822-6.25-6.25 2.79822-6.25 6.25-6.25z"/><path fill="none" stroke="#515151" stroke-width="4.17" d="M362.5 37.5v100"/><path fill="#515151" d="M362.5 131.25c3.45178 0 6.25 2.79822 6.25 6.25s-2.79822 6.25-6.25 6.25-6.25-2.79822-6.25-6.25 2.79822-6.25 6.25-6.25zm0-100c3.45178 0 6.25 2.79822 6.25 6.25s-2.79822 6.25-6.25 6.25-6.25-2.79822-6.25-6.25 2.79822-6.25 6.25-6.25z"/><path fill="none" stroke="#515151" stroke-width="4.17" d="M587.5 287.5h-150l-150-150v-100"/><path fill="#515151" d="M287.5 31.25c3.45178 0 6.25 2.79822 6.25 6.25s-2.79822 6.25-6.25 6.25-6.25-2.79822-6.25-6.25 2.79822-6.25 6.25-6.25zm300 250c3.45178 0 6.25 2.79822 6.25 6.25s-2.79822 6.25-6.25 6.25-6.25-2.79822-6.25-6.25 2.79822-6.25 6.25-6.25z"/><path fill="none" stroke="#515151" stroke-width="4.17" d="M12.5 62.5h150l100 100v25l-50 50"/><path fill="#515151" d="M212.5 231.25c3.45178 0 6.25 2.79822 6.25 6.25s-2.79822 6.25-6.25 6.25-6.25-2.79822-6.25-6.25 2.79822-6.25 6.25-6.25zm-200-175c3.45178 0 6.25 2.79822 6.25 6.25s-2.79822 6.25-6.25 6.25-6.25-2.79822-6.25-6.25 2.79822-6.25 6.25-6.25z"/><path fill="none" stroke="#515151" stroke-width="4.17" d="m512.5 62.5 50-50h25"/><path fill="#515151" d="M512.5 56.25c3.45178 0 6.25 2.79822 6.25 6.25s-2.79822 6.25-6.25 6.25-6.25-2.79822-6.25-6.25 2.79822-6.25 6.25-6.25zm75-50c3.45178 0 6.25 2.79822 6.25 6.25s-2.79822 6.25-6.25 6.25-6.25-2.79822-6.25-6.25 2.79822-6.25 6.25-6.25z"/><path fill="none" stroke="#515151" stroke-width="4.17" d="M587.5 262.5h-150l-100-100v-100"/><path fill="#515151" d="M337.5 56.25c3.45178 0 6.25 2.79822 6.25 6.25s-2.79822 6.25-6.25 6.25-6.25-2.79822-6.25-6.25 2.79822-6.25 6.25-6.25zm250 200c3.45178 0 6.25 2.79822 6.25 6.25s-2.79822 6.25-6.25 6.25-6.25-2.79822-6.25-6.25 2.79822-6.25 6.25-6.25z"/><path fill="none" stroke="#515151" stroke-width="4.17" d="M12.5 12.5h50"/><path fill="#515151" d="M12.5 6.25c3.45178 0 6.25 2.79822 6.25 6.25s-2.79822 6.25-6.25 6.25-6.25-2.79822-6.25-6.25 2.79822-6.25 6.25-6.25zm50 0c3.45178 0 6.25 2.79822 6.25 6.25s-2.79822 6.25-6.25 6.25-6.25-2.79822-6.25-6.25 2.79822-6.25 6.25-6.25z"/><path fill="none" stroke="#515151" stroke-width="4.17" d="M12.5 87.5h150l75 75v25"/><path fill="#515151" d="M237.5 181.25c3.45178 0 6.25 2.79822 6.25 6.25s-2.79822 6.25-6.25 6.25-6.25-2.79822-6.25-6.25 2.79822-6.25 6.25-6.25zm-225-100c3.45178 0 6.25 2.79822 6.25 6.25s-2.79822 6.25-6.25 6.25-6.25-2.79822-6.25-6.25 2.79822-6.25 6.25-6.25z"/><path fill="none" stroke="#515151" stroke-width="4.17" d="m162.5 262.5-25 25h-100l-25-25v-50l50-50h150"/><path fill="#515151" d="M162.5 256.25c3.45178 0 6.25 2.79822 6.25 6.25s-2.79822 6.25-6.25 6.25-6.25-2.79822-6.25-6.25 2.79822-6.25 6.25-6.25zm50-100c3.45178 0 6.25 2.79822 6.25 6.25s-2.79822 6.25-6.25 6.25-6.25-2.79822-6.25-6.25 2.79822-6.25 6.25-6.25z"/><path fill="none" stroke="#515151" stroke-width="4.17" d="m112.5 112.5-25 25h-75"/><path fill="#515151" d="M112.5 106.25c3.45178 0 6.25 2.79822 6.25 6.25s-2.79822 6.25-6.25 6.25-6.25-2.79822-6.25-6.25 2.79822-6.25 6.25-6.25zm-100 25c3.45178 0 6.25 2.79822 6.25 6.25s-2.79822 6.25-6.25 6.25-6.25-2.79822-6.25-6.25 2.79822-6.25 6.25-6.25z"/><path fill="none" stroke="#515151" stroke-width="4.17" d="M587.5 237.5h-50l-50-50"/><path fill="#515151" d="M487.5 181.25c3.45178 0 6.25 2.79822 6.25 6.25s-2.79822 6.25-6.25 6.25-6.25-2.79822-6.25-6.25 2.79822-6.25 6.25-6.25zm100 50c3.45178 0 6.25 2.79822 6.25 6.25s-2.79822 6.25-6.25 6.25-6.25-2.79822-6.25-6.25 2.79822-6.25 6.25-6.25z"/><path fill="none" stroke="#515151" stroke-width="4.17" d="M537.5 187.5h-25l-50-50"/><path fill="#515151" d="M537.5 181.25c3.45178 0 6.25 2.79822 6.25 6.25s-2.79822 6.25-6.25 6.25-6.25-2.79822-6.25-6.25 2.79822-6.25 6.25-6.25zm-75-50c3.45178 0 6.25 2.79822 6.25 6.25s-2.79822 6.25-6.25 6.25-6.25-2.79822-6.25-6.25 2.79822-6.25 6.25-6.25z"/><path fill="none" stroke="#515151" stroke-width="4.17" d="M312.5 137.5v-100"/><path fill="#515151" d="M312.5 131.25c3.45178 0 6.25 2.79822 6.25 6.25s-2.79822 6.25-6.25 6.25-6.25-2.79822-6.25-6.25 2.79822-6.25 6.25-6.25zm0-100c3.45178 0 6.25 2.79822 6.25 6.25s-2.79822 6.25-6.25 6.25-6.25-2.79822-6.25-6.25 2.79822-6.25 6.25-6.25z"/><path fill="none" stroke="#515151" stroke-width="4.17" d="M512.5 237.5h-75l-50-50v-25"/><path fill="#515151" d="M387.5 156.25c3.45178 0 6.25 2.79822 6.25 6.25s-2.79822 6.25-6.25 6.25-6.25-2.79822-6.25-6.25 2.79822-6.25 6.25-6.25zm125 75c3.45178 0 6.25 2.79822 6.25 6.25s-2.79822 6.25-6.25 6.25-6.25-2.79822-6.25-6.25 2.79822-6.25 6.25-6.25z"/><path fill="none" stroke="#515151" stroke-width="4.17" d="M187.5 237.5h-75l-50-50"/><path fill="#515151" d="M187.5 231.25c3.45178 0 6.25 2.79822 6.25 6.25s-2.79822 6.25-6.25 6.25-6.25-2.79822-6.25-6.25 2.79822-6.25 6.25-6.25zm-125-50c3.45178 0 6.25 2.79822 6.25 6.25s-2.79822 6.25-6.25 6.25-6.25-2.79822-6.25-6.25 2.79822-6.25 6.25-6.25z"/><path fill="none" stroke="#515151" stroke-width="4.17" d="M237.5 37.5v25l-25 25"/><path fill="#515151" d="M212.5 81.25c3.45178 0 6.25 2.79822 6.25 6.25s-2.79822 6.25-6.25 6.25-6.25-2.79822-6.25-6.25 2.79822-6.25 6.25-6.25zm25-50c3.45178 0 6.25 2.79822 6.25 6.25s-2.79822 6.25-6.25 6.25-6.25-2.79822-6.25-6.25 2.79822-6.25 6.25-6.25z"/><path fill="none" stroke="#515151" stroke-width="4.17" d="m512.5 87.5 25-25h50"/><path fill="#515151" d="M587.5 56.25c3.45178 0 6.25 2.79822 6.25 6.25s-2.79822 6.25-6.25 6.25-6.25-2.79822-6.25-6.25 2.79822-6.25 6.25-6.25zm-75 25c3.45178 0 6.25 2.79822 6.25 6.25s-2.79822 6.25-6.25 6.25-6.25-2.79822-6.25-6.25 2.79822-6.25 6.25-6.25z"/><path fill="none" stroke="#515151" stroke-width="4.17" d="m462.5 212.5-75-75v-100"/><path fill="#515151" d="M387.5 31.25c3.45178 0 6.25 2.79822 6.25 6.25s-2.79822 6.25-6.25 6.25-6.25-2.79822-6.25-6.25 2.79822-6.25 6.25-6.25zm75 175c3.45178 0 6.25 2.79822 6.25 6.25s-2.79822 6.25-6.25 6.25-6.25-2.79822-6.25-6.25 2.79822-6.25 6.25-6.25z"/><path fill="none" stroke="#515151" stroke-width="4.17" d="M262.5 212.5h50l75 75h25"/><path fill="#515151" d="M262.5 206.25c3.45178 0 6.25 2.79822 6.25 6.25s-2.79822 6.25-6.25 6.25-6.25-2.79822-6.25-6.25 2.79822-6.25 6.25-6.25zm150 75c3.45178 0 6.25 2.79822 6.25 6.25s-2.79822 6.25-6.25 6.25-6.25-2.79822-6.25-6.25 2.79822-6.25 6.25-6.25z"/><path fill="none" stroke="#515151" stroke-width="4.17" d="M237.5 237.5h75l50 50"/><path fill="#515151" d="M237.5 231.25c3.45178 0 6.25 2.79822 6.25 6.25s-2.79822 6.25-6.25 6.25-6.25-2.79822-6.25-6.25 2.79822-6.25 6.25-6.25zm125 50c3.45178 0 6.25 2.79822 6.25 6.25s-2.79822 6.25-6.25 6.25-6.25-2.79822-6.25-6.25 2.79822-6.25 6.25-6.25z"/><path fill="none" stroke="#515151" stroke-width="4.17" d="M562.5 187.5v-75l25-25"/><path fill="#515151" d="M587.5 81.25c3.45178 0 6.25 2.79822 6.25 6.25s-2.79822 6.25-6.25 6.25-6.25-2.79822-6.25-6.25 2.79822-6.25 6.25-6.25zm-25 100c3.45178 0 6.25 2.79822 6.25 6.25s-2.79822 6.25-6.25 6.25-6.25-2.79822-6.25-6.25 2.79822-6.25 6.25-6.25z"/><path fill="none" stroke="#515151" stroke-width="4.17" d="M412.5 62.5v75"/><path fill="#515151" d="M412.5 56.25c3.45178 0 6.25 2.79822 6.25 6.25s-2.79822 6.25-6.25 6.25-6.25-2.79822-6.25-6.25 2.79822-6.25 6.25-6.25zm0 75c3.45178 0 6.25 2.79822 6.25 6.25s-2.79822 6.25-6.25 6.25-6.25-2.79822-6.25-6.25 2.79822-6.25 6.25-6.25z"/><path fill="none" stroke="#515151" stroke-width="4.17" d="M487.5 62.5v-50"/><path fill="#515151" d="M487.5 56.25c3.45178 0 6.25 2.79822 6.25 6.25s-2.79822 6.25-6.25 6.25-6.25-2.79822-6.25-6.25 2.79822-6.25 6.25-6.25zm0-50c3.45178 0 6.25 2.79822 6.25 6.25s-2.79822 6.25-6.25 6.25-6.25-2.79822-6.25-6.25 2.79822-6.25 6.25-6.25z"/><path fill="none" stroke="#515151" stroke-width="4.17" d="M162.5 212.5h-50l-25-25"/><path fill="#515151" d="M162.5 206.25c3.45178 0 6.25 2.79822 6.25 6.25s-2.79822 6.25-6.25 6.25-6.25-2.79822-6.25-6.25 2.79822-6.25 6.25-6.25zm-75-25c3.45178 0 6.25 2.79822 6.25 6.25s-2.79822 6.25-6.25 6.25-6.25-2.79822-6.25-6.25 2.79822-6.25 6.25-6.25z"/><path fill="#363636" stroke="#fff" stroke-width="2.5" d="M327.59258 69.32795h108.81487c16.38744 0 29.67206 13.28464 29.67206 29.67206s-13.28463 29.67206-29.67206 29.67206H327.59258c-16.38742 0-29.67206-13.28464-29.67206-29.67206s13.28464-29.67206 29.67206-29.67206z"/><path fill="#474747" stroke="#fff" stroke-width="2.5" d="M410.53118 75.26236h23.73765l23.73765 23.73765-23.73765 23.73765h-23.73765l-23.73765-23.73765z"/><path fill="#fff" stroke="#fff" stroke-width="2.5" d="M416.57284 87.34569h11.65432l11.65432 11.65432-11.65432 11.65432h-11.65432l-11.65432-11.65432z"/><path fill="#fff" d="M402.68976 150.28985c4.9642 7.58748 14.1724 6.69814 17.39625-.12275 1.09273-2.2967 1.44994-4.66105 1.1286-7.45753-.07846-.74913-1.16577-3.65092-1.12214-5.31658.07062-2.6963-.30256-10.34716-.30256-10.34716l4.8802.82749s-.72192 8.24298-.41012 10.05092c.41579 2.41096 1.10028 3.66985 1.22336 5.66447.34808 5.56518-1.93968 10.80679-6.04517 13.77794-2.0223 1.48994-2.67239 2.19479-6.45483 2.33484-18.92568.70075-13.44072-22.85122-29.47168-16.19246-4.25831 1.76877-7.6147 8.03911-7.43562 16.81798.31931 15.65357 6.40263 36.65275 6.40263 36.65275l-4.47206 1.51647s-6.65017-21.47049-5.99353-38.64685c.35947-9.40285 3.94007-16.85018 9.49647-19.6212 12.63736-6.30236 18.21018 5.52215 21.18021 10.06167z" data-paper-data="{&quot;index&quot;:null}"/><path fill="#fff" d="m430.39463 125.5676-.02167 9.50425-.19321.74704c-.47911 1.82981-1.54459 3.23021-2.93894 3.84649l-.58637.26154h-4.21894c-4.21146 0-4.21894 0-4.75523-.2147-.62224-.25226-1.32297-.76559-1.80208-1.32575-.47201-.53235-1.0225-1.67122-1.25832-2.56758l-.19321-.74704-.0213-9.50425-.0213-9.49448h16.03188zM377.8258 197.97135l4.46521-1.58164s5.05035 19.73555-5.95401 28.98898c-5.4972 4.71314-12.52102 5.26692-19.5065 3.38968-17.80125-4.78381-12.9242-11.37101-31.26821-11.85437-10.92383-.26608-15.11752-.41627-20.6827-.76435-1.99462-.12308-3.25351-.80757-5.66447-1.22336-1.80794-.3118-10.05092.41012-10.05092.41012l-.82749-4.8802s7.65086.37318 10.34716.30256c1.66566-.04363 4.56745 1.04368 5.31658 1.12214 12.64986 1.45358 20.06531-.23618 32.51361 2.44182 7.53519 1.62104 23.83628 18.02981 36.35008 8.10612 8.67511-6.87954 4.96167-24.4575 4.96167-24.4575z" data-paper-data="{&quot;index&quot;:null}"/><path fill="#fff" d="M271.50682 221.08224v-16.03188l9.49448.0213 9.50425.0213.74704.19321c.89636.23582 2.03523.78631 2.56758 1.25832.56016.47911 1.07349 1.17984 1.32575 1.80208.2147.53629.2147.54377.2147 4.75523v4.21894l-.26154.58637c-.61628 1.39435-2.01668 2.45983-3.84649 2.93894l-.74704.19321-9.50425.02167z" data-paper-data="{&quot;index&quot;:null}"/><g stroke="#fff" stroke-width="2.5"><path fill="#363636" d="M136.32163 183.09508H246.012c16.51928 0 29.9108 13.39153 29.9108 29.9108s-13.39151 29.9108-29.9108 29.9108H136.32163c-16.51927 0-29.9108-13.39153-29.9108-29.9108s13.39153-29.9108 29.9108-29.9108z"/><path fill="#474747" d="M136.32163 189.07723h11.96432c13.21541 0 23.92864 10.71321 23.92864 23.92864 0 13.21543-10.71322 23.92864-23.92864 23.92864h-11.96432c-13.21543 0-23.92864-10.71321-23.92864-23.92864 0-13.21543 10.71321-23.92864 23.92864-23.92864zM234.04768 189.07723H246.012c13.21541 0 23.92864 10.71321 23.92864 23.92864 0 13.21543-10.71322 23.92864-23.92864 23.92864h-11.96432c-13.21541 0-23.92864-10.71321-23.92864-23.92864 0-13.21543 10.71322-23.92864 23.92864-23.92864z"/></g><path fill="#fff" d="M391.10949 209.42946c-1.46859 4.39808-10.77484 5.87454-10.77484 5.87454s-10.97589 3.30462-12.16536-1.38023c-.49431-1.94692-.66978-4.33902-1.11401-6.5324-2.0035-9.89225-3.70647-20.68303-3.70647-20.68303s.108-5.17821 1.44726-7.13754c2.46943-3.7547 6.22113-3.46198 10.67959-4.02587l8.14517-.66087c2.44828.73156 4.4576 3.57443 5.63915 6.51646 0 0 1.34915 11.3057 1.91249 19.55382.29816 4.36545.27411 7.46559-.06299 8.47512z" data-paper-data="{&quot;index&quot;:null}"/><path fill="#fff" stroke="#fff" stroke-width=".5" d="M361.57739 108.10528c-.55145.2514-1.2002.01622-1.45159-.53522l-.9488-2.0598h-5.24682v1.62189c0 1.73543-1.41104 3.14647-3.14647 3.14647h-1.16776v2.94374c0 .60821-.48657 1.09478-1.09478 1.09478-.60821 0-1.09478-.49468-1.09478-1.09478v-2.94374h-1.8084v5.26304l2.0598.9488c.55145.2514.78662.90015.53523 1.4516-.2514.54333-.90015.78661-1.45159.53522l-2.70045-1.24075c-.38115-.17841-.63253-.55955-.63253-.98935v-5.96045h-1.70299v2.94374c0 .60821-.49468 1.09478-1.09478 1.09478-.60821 0-1.09477-.49468-1.09477-1.09478v-2.94374h-1.58946v5.96045c0 .42169-.24329.81094-.63254.98935l-2.70045 1.24075c-.55145.2514-1.20019.01622-1.45159-.53522-.2514-.55145-.01623-1.2002.53522-1.4516l2.06791-.94069v-5.26304h-1.43537c-1.43538 0-3.13026-1.0299-3.1708-3.94119v-.82717h-5.24681l-.94881 2.0598c-.2514.54333-.90015.78662-1.45159.53523-.55145-.2514-.78662-.90015-.53523-1.45159l1.24075-2.70045c.17841-.38115.55955-.63254.98935-.63254h5.94423v-1.58946h-2.92751c-.60821 0-1.09478-.49468-1.09478-1.09478 0-.60821.49468-1.09477 1.09478-1.09477h2.92751v-1.70299h-5.95234c-.42169 0-.81095-.24329-.98935-.63254l-1.24075-2.69234c-.2514-.55145-.01622-1.2002.53523-1.45159.55145-.2514 1.2002-.01623 1.45159.53522l.9488 2.05981h5.24682v-1.8003h-2.92751c-.60821 0-1.09478-.49468-1.09478-1.09477 0-.60821.49468-1.09478 1.09478-1.09478h2.92751V89.80225c.0811-.99747 1.58135-2.25443 3.1708-2.25443h1.43537v-5.26304l-2.0598-.94881c-.55145-.2514-.78661-.90015-.53522-1.45159.2514-.54333.90014-.78661 1.45159-.53522l2.70045 1.24075c.38115.17841.63254.55955.63254.98935v5.96045h1.58946v-2.94374c0-.60821.49467-1.09477 1.09477-1.09477.60821 0 1.09478.49468 1.09478 1.09477v2.93563h1.70299v-5.96045c0-.42169.24328-.81094.63253-.98935l2.69234-1.24075c.55145-.2514 1.2002-.01622 1.45159.53522.2514.55145.01622 1.20019-.53522 1.45159l-2.0598.94881v5.26304h1.8084v-2.94374c0-.60821.48657-1.09477 1.09478-1.09477.60821 0 1.09478.49468 1.09478 1.09477v2.94374h1.16776c1.73543 0 3.14647 1.41104 3.14647 3.14647v.98125h2.92752c.60821 0 1.09478.49468 1.09478 1.09478 0 .60821-.49468 1.09477-1.09478 1.09477h-2.92752v1.80841h5.24682l.9488-2.06791c.2514-.54333.90015-.78661 1.45159-.53522.55145.2514.78662.90014.53523 1.45159l-1.24075 2.70045c-.17841.38115-.55955.63254-.98935.63254h-5.95235v1.70298h2.92752c.60821 0 1.09478.49468 1.09478 1.09478 0 .60821-.49468 1.09477-1.09478 1.09477h-2.92752v1.58946h5.95235c.42169 0 .81094.24329.98935.63254l1.24886 2.69234c.2514.55145.01622 1.2002-.53523 1.45159zm-9.83677-17.41912c0-.53522-.43791-.96502-.96502-.96502h-16.44598c-.43791 0-.81905.27572-.98935.43791v16.16215c.00811.52711.12165 1.77597.98935 1.77597h16.43787c.53523 0 .96503-.43791.96503-.96502h.00811zM203.09184 219.94077v1.68814c0 1.80631-1.46868 3.27499-3.27499 3.27499h-1.21546v3.06398c0 .63305-.50644 1.1395-1.1395 1.1395-.63305 0-1.1395-.51489-1.1395-1.1395v-3.06398h-1.88227v5.47802l2.14393.98756c.57397.26166.81875.93692.55709 1.51089-.26166.56553-.93692.81875-1.51089.55709l-2.81075-1.29143c-.39671-.1857-.65837-.58241-.65837-1.02976v-6.20392h-1.77255v3.06398c0 .63305-.51489 1.1395-1.1395 1.1395-.63305 0-1.13949-.51489-1.13949-1.1395v-3.06398h-1.65438v6.20392c0 .43891-.25323.84406-.65838 1.02976l-2.81075 1.29143c-.57397.26166-1.24922.01688-1.51088-.55709s-.01689-1.24922.55708-1.51089l2.15238-.97912v-5.47802h-1.494c-1.494 0-3.25811-1.07197-3.30032-4.10218v-.86095h-7.74684l.40851-2.27898h7.32989v-1.65438h-3.04709c-.63305 0-1.1395-.51489-1.1395-1.1395 0-.63305.51489-1.13949 1.1395-1.13949h3.04709v-1.77255h-6.19548l-.26566-2.27054h6.46113v-1.87384h-3.04709c-.63305 0-1.1395-.51488-1.1395-1.13949 0-.63305.51489-1.1395 1.1395-1.1395h3.04709V203.59114c.08441-1.03821 1.64594-2.34651 3.30031-2.34651h1.494v-5.47802l-2.14394-.98756c-.57397-.26166-.81874-.93692-.55708-1.51089.26166-.56553.93691-.81874 1.51088-.55708l2.81075 1.29142c.39671.1857.65838.58241.65838 1.02977v6.20391h1.65438v-3.06398c0-.63305.51488-1.13949 1.13949-1.13949.63305 0 1.1395.51488 1.1395 1.13949v3.05553h1.77255v-6.20391c0-.43891.25322-.84407.65837-1.02977l2.80231-1.29142c.57397-.26166 1.24922-.01688 1.51089.55709.26166.57397.01688 1.24922-.55709 1.51088l-2.14393.98756v5.47802h1.88227v-3.06398c0-.63305.50644-1.13949 1.1395-1.13949.63305 0 1.1395.51488 1.1395 1.13949v3.06398h1.21546c1.80631 0 3.27499 1.46868 3.27499 3.27499v1.02133h3.04709c.63305 0 1.1395.51489 1.1395 1.1395 0 .63305-.51489 1.13949-1.1395 1.13949h-3.04709v1.88228l7.79667-.10211c-.1857.39671-.86812 2.37266-1.31548 2.37266h-6.48119v1.77255h3.04709c.63305 0 1.1395.51489 1.1395 1.1395 0 .63305-.51489 1.13949-1.1395 1.13949h-3.04709v1.65438l7.79667-.05591.58559 2.37374zm-2.27899-15.42961c0-.55709-.4558-1.00444-1.00444-1.00444h-17.11774c-.4558 0-.85251.28698-1.02977.45579v16.82232c.00844.54865.12661 1.84851 1.02977 1.84851h17.10929c.55709 0 1.00444-.4558 1.00444-1.00444h.00844z"/><path fill="#fff" d="m430.39463 117.1676-.02167 9.50425-.19321.74704c-.47911 1.82981-1.54459 3.23021-2.93894 3.84649l-.58637.26154h-4.21894c-4.21146 0-4.21894 0-4.75523-.2147-.62224-.25226-1.32297-.76559-1.80208-1.32575-.47201-.53235-1.0225-1.67122-1.25832-2.56758l-.19321-.74704-.0213-9.50425-.0213-9.49448h16.03188z" data-paper-data="{&quot;index&quot;:null}"/><path fill="#fff" d="M242.71429 226.38572h-4.67372v-18.9982c-1.70816 1.72148-3.72168 2.99485-6.04056 3.8201v-4.57438c1.2199-.42996 2.54541-1.24779 3.97576-2.44854 1.43189-1.20075 2.41224-2.6045 2.9449-4.20715h3.79362z"/><path fill="#fff" d="M150.19954 213.15594c-.00002 2.06577-.24533 4.04115-.73593 5.92614-.49064 1.88501-1.18783 3.40851-2.09158 4.57049-1.44605 1.93665-3.53763 2.90497-6.27475 2.90497-1.83337 0-3.34396-.37442-4.53176-1.12326-1.18782-.74884-2.16905-1.92374-2.9437-3.5247-.54226-1.11034-.98124-2.45308-1.31692-4.02823-.33569-1.60095-.50353-3.17609-.50353-4.72542 0-2.14321.24531-4.13151.73592-5.96488.51644-1.83334 1.21363-3.36975 2.09158-4.60922.77465-.98121 1.69133-1.70423 2.75004-2.16905 1.08451-.49059 2.37562-.7359 3.8733-.73592 1.65259.00003 3.05989.37445 4.22189 1.12326 1.16197.74886 2.15612 1.92376 2.98244 3.5247.54224 1.16201.9683 2.51766 1.27819 4.06696.30984 1.54934.46477 3.13739.4648 4.76416m-4.10569 0c-.00001-1.47184-.12913-2.82749-.38733-4.06696-.25824-1.26526-.64556-2.33687-1.16199-3.21484-.41317-.67135-.89088-1.16197-1.43312-1.47185-.51645-.30984-1.162-.49059-1.93665-.54226-1.00707-.05162-1.84628.18078-2.51765.69719-.67138.51646-1.22655 1.35568-1.66552 2.51765-.33569.77468-.59391 1.71718-.77466 2.82751-.15494 1.08454-.23241 2.16906-.2324 3.25357-.00001 1.3944.1291 2.73714.38733 4.02823.25821 1.29111.64554 2.34981 1.16199 3.17611.41314.67138.90376 1.17491 1.47185 1.51059.56807.33569 1.26526.50353 2.09158.50353.9554 0 1.74297-.25821 2.36271-.77466.64553-.51643 1.1878-1.35565 1.62679-2.51765.12909-.33568.2582-.73592.38733-1.20072.12909-.49061.23238-.99414.30987-1.51059.10327-.54225.18074-1.08451.2324-1.62678.05163-.54225.07745-1.0716.07746-1.58805" data-paper-data="{&quot;index&quot;:null}"/></g></svg>