<svg version="1.1" xmlns="http://www.w3.org/2000/svg" xmlns:xlink="http://www.w3.org/1999/xlink" width="600" height="300" viewBox="30.44891,22.74719,600,300"><g transform="translate(30.44891,22.74719)"><g data-paper-data="{&quot;isPaintingLayer&quot;:true}" fill-rule="nonzero" stroke-linecap="butt" stroke-linejoin="miter" stroke-miterlimit="10" stroke-dasharray="" stroke-dashoffset="0" style="mix-blend-mode: normal"><g fill="#a245d1"><path d="M0.00001,300v-300h600v300z" stroke="none" stroke-width="1"/><path d="M-15.01501,239.76578l61.01502,-64.49249l93.95496,68.99399l94.04504,-78.5015l90.48949,64.97598l123.54053,-85.46546l92.45646,93.02703l74.52854,-81.01802v157.99099h-630.03003z" stroke="#be5bf0" stroke-width="12.5"/><path d="M-15.01501,-15.75375h630.03003v95.50752l-73.48649,64.02702l-85.04205,-77.53754l-127.48349,86.5015l-89.48949,-58.99699l-103.52853,77.52854l-90.98798,-75.99098l-60.01201,60.95796z" stroke="#be5bf0" stroke-width="12.5"/><path d="M-15.01501,-15.75375h630.03003v21.93394l-70.97898,49.51051l-85.03904,-70.52252l-133.00901,97.01202l-88.43812,-52.65504l-99.54086,69.66104l-95.01802,-75.46847l-58.006,46.93994z" stroke="#be5bf0" stroke-width="12.5"/><path d="M52.00604,250.34836l90.4985,65.98798l87.52253,-65.4895l74.95495,63.991l128.03603,-86.97597l92.28162,87.17174l33.20486,-0.15372l56.51051,-59.99699v60.3934h-630.03003z" stroke="#be5bf0" stroke-width="12.5"/><path d="M-15.01501,-15.75375h630.03003l-156.01802,0.92193l-104.04318,0.91583l-42.31086,19.41713l-40.66117,-21.16627l-69.51631,-0.6712l-59.96096,46.44745l-72.48048,-46.43244z" stroke="#be5bf0" stroke-width="12.5"/><path d="M397.53951,315.01459l30.97402,-21.08665l21.71105,21.10567l164.79045,0.24268h-630.03003z" stroke="#be5bf0" stroke-width="12.5"/></g><g><path d="M413.98594,26.82834c12.53987,0 22.70481,10.16529 22.70481,22.70483v158.93369c0,12.53987 -10.16494,22.70481 -22.70481,22.70481h-181.63851c-12.53953,0 -22.70481,-10.16495 -22.70481,-22.70481v-158.93369c0,-12.53953 10.16528,-22.70483 22.70481,-22.70483z" data-paper-data="{&quot;index&quot;:null}" fill="none" stroke-opacity="0.09412" stroke="#000000" stroke-width="10"/><path d="M413.98594,26.82833c12.53987,0 22.70481,10.16529 22.70481,22.70483v158.93369c0,12.53987 -10.16494,22.70482 -22.70481,22.70482h-181.63851c-12.53953,0 -22.70481,-10.16496 -22.70481,-22.70482v-158.93368c0,-12.53953 10.16528,-22.70483 22.70481,-22.70483z" data-paper-data="{&quot;index&quot;:null}" fill-opacity="0.62353" fill="#ffffff" stroke="none" stroke-width="1"/></g><g><path d="M391.6526,44.82834c14.01267,0 25.37148,11.3592 25.37148,25.3715v177.60035c0,14.01267 -11.35881,25.37148 -25.37148,25.37148h-202.97184c-14.01229,0 -25.37148,-11.35882 -25.37148,-25.37148v-177.60035c0,-14.01229 11.35919,-25.3715 25.37148,-25.3715z" data-paper-data="{&quot;index&quot;:null}" fill="none" stroke-opacity="0.14902" stroke="#000000" stroke-width="10"/><path d="M391.6526,44.82833c14.01267,0 25.37148,11.35921 25.37148,25.37151v177.60035c0,14.01267 -11.35881,25.37147 -25.37148,25.37147h-202.97184c-14.01229,0 -25.37148,-11.35881 -25.37148,-25.37147v-177.60035c0,-14.01229 11.35919,-25.37151 25.37148,-25.37151z" data-paper-data="{&quot;index&quot;:null}" fill="#ffffff" stroke="none" stroke-width="1"/><path d="M333.18996,247.8002h-86.04637v-177.60035h86.04637z" data-paper-data="{&quot;index&quot;:null}" fill="none" stroke-opacity="0.14902" stroke="#000000" stroke-width="10"/><path d="M221.77225,112.48564h-33.09124v-42.28579h33.09124z" data-paper-data="{&quot;index&quot;:null}" fill="none" stroke-opacity="0.14902" stroke="#000000" stroke-width="10"/><path d="M221.77225,247.80021h-33.09124v-42.28582h33.09124z" data-paper-data="{&quot;index&quot;:null}" fill="none" stroke-opacity="0.14902" stroke="#000000" stroke-width="10"/><path d="M221.77225,180.14292h-33.09124v-42.28581h33.09124z" data-paper-data="{&quot;index&quot;:null}" fill="none" stroke-opacity="0.14902" stroke="#000000" stroke-width="10"/><path d="M358.56133,70.19985h33.09125v42.28581h-33.09125z" data-paper-data="{&quot;index&quot;:null}" fill="none" stroke-opacity="0.14902" stroke="#000000" stroke-width="10"/><path d="M358.56133,205.51441h33.09125v42.28582h-33.09125z" data-paper-data="{&quot;index&quot;:null}" fill="none" stroke-opacity="0.14902" stroke="#000000" stroke-width="10"/><path d="M358.56133,137.85714h33.09125v42.2858h-33.09125z" data-paper-data="{&quot;index&quot;:null}" fill="none" stroke-opacity="0.14902" stroke="#000000" stroke-width="10"/><path d="M333.18995,247.8002h-86.04637v-177.60035h86.04637z" data-paper-data="{&quot;index&quot;:null}" fill="#9537c4" stroke="none" stroke-width="1"/><path d="M221.77224,112.48564h-33.09124v-42.28579h33.09124z" data-paper-data="{&quot;index&quot;:null}" fill="#9537c4" stroke="none" stroke-width="1"/><path d="M221.77224,247.80021h-33.09124v-42.28582h33.09124z" data-paper-data="{&quot;index&quot;:null}" fill="#9537c4" stroke="none" stroke-width="1"/><path d="M221.77224,180.14292h-33.09124v-42.28581h33.09124z" data-paper-data="{&quot;index&quot;:null}" fill="#9537c4" stroke="none" stroke-width="1"/><path d="M358.56132,70.19985h33.09125v42.28581h-33.09125z" data-paper-data="{&quot;index&quot;:null}" fill="#9537c4" stroke="none" stroke-width="1"/><path d="M358.56132,205.51441h33.09125v42.28582h-33.09125z" data-paper-data="{&quot;index&quot;:null}" fill="#9537c4" stroke="none" stroke-width="1"/><path d="M358.56132,137.85714h33.09125v42.2858h-33.09125z" data-paper-data="{&quot;index&quot;:null}" fill="#9537c4" stroke="none" stroke-width="1"/></g></g></g></svg>
