<svg xmlns="http://www.w3.org/2000/svg" width="600" height="300" viewBox="0 0 600 299.99999"><g style="mix-blend-mode:normal;stroke-linejoin:miter;stroke-miterlimit:10;stroke-dasharray:none;stroke-dashoffset:0"><path fill="#59c059" d="M0 300V0h600v300z"/><path fill="#4ba34b" d="M3.33099 30.00011V3.3311H30v26.66901z"/><path fill="#65dc65" d="M70 30.00011V3.3311h26.66901v26.66901z"/><path fill="#4ba34b" d="M170 30.00011V3.3311h26.66901v26.66901zM223.33275 3.3311 230 9.99835l-6.66725 6.66725L230 23.33285l-6.66725 6.66725-6.66725-6.66725-6.66725 6.66725-6.66725-6.66725 6.66725-6.66725-6.66725-6.66725 6.66725-6.66725 6.66725 6.66725Z"/><path fill="#65dc65" d="M236.66901 30.00011V3.3311h26.66901v26.66901zM356.67077 3.3311l6.66725 6.66725-6.66725 6.66725 6.66725 6.66725-6.66725 6.66725-6.66725-6.66725-6.66725 6.66725-6.66725-6.66725 6.66725-6.66725-6.66725-6.66725 6.66725-6.66725 6.66725 6.66725zM456.67077 3.3311l6.66725 6.66725-6.66725 6.66725 6.66725 6.66725-6.66725 6.66725-6.66725-6.66725-6.66725 6.66725-6.66725-6.66725 6.66725-6.66725-6.66725-6.66725 6.66725-6.66725 6.66725 6.66725z"/><path fill="#4ba34b" d="M470 30.00011V3.3311h26.66901v26.66901z"/><path fill="#65dc65" d="m590.00176 3.3311 6.66725 6.66725-6.66725 6.66725 6.66725 6.66725-6.66725 6.66725-6.66725-6.66725-6.66725 6.66725-6.66725-6.66725 6.66725-6.66725-6.66725-6.66725 6.66725-6.66725 6.66725 6.66725z"/><path fill="#4ba34b" d="M23.33275 36.6691 30 43.33635l-6.66725 6.66725L30 56.67085l-6.66725 6.66725-6.66725-6.66725-6.66725 6.66725L3.331 56.67085l6.66725-6.66725L3.331 43.33635l6.66725-6.66725 6.66725 6.66725z"/><path fill="#65dc65" d="M70 63.33814V36.66913h26.66901v26.66901z"/><path fill="#4ba34b" d="M103.33099 63.33814V36.66913H130v26.66901zM156.67077 36.6691l6.66725 6.66725-6.66725 6.66725 6.66725 6.66725-6.66725 6.66725-6.66725-6.66725-6.66725 6.66725-6.66725-6.66725 6.66725-6.66725-6.66725-6.66725 6.66725-6.66725 6.66725 6.66725zM190.00176 36.6691l6.66725 6.66725-6.66725 6.66725 6.66725 6.66725-6.66725 6.66725-6.66725-6.66725-6.66725 6.66725-6.66725-6.66725 6.66725-6.66725-6.66725-6.66725 6.66725-6.66725 6.66725 6.66725zM236.66901 63.33814V36.66913h26.66901v26.66901zM290.00176 36.6691l6.66725 6.66725-6.66725 6.66725 6.66725 6.66725-6.66725 6.66725-6.66725-6.66725-6.66725 6.66725-6.66725-6.66725 6.66725-6.66725-6.66725-6.66725 6.66725-6.66725 6.66725 6.66725z"/><path fill="#65dc65" d="M323.33275 36.6691 330 43.33635l-6.66725 6.66725L330 56.67085l-6.66725 6.66725-6.66725-6.66725-6.66725 6.66725-6.66725-6.66725 6.66725-6.66725-6.66725-6.66725 6.66725-6.66725 6.66725 6.66725zM356.67077 36.6691l6.66725 6.66725-6.66725 6.66725 6.66725 6.66725-6.66725 6.66725-6.66725-6.66725-6.66725 6.66725-6.66725-6.66725 6.66725-6.66725-6.66725-6.66725 6.66725-6.66725 6.66725 6.66725z"/><path fill="#4ba34b" d="M370 63.33814V36.66913h26.66901v26.66901z"/><path fill="#65dc65" d="M403.33099 63.33814V36.66913H430v26.66901z"/><path fill="#4ba34b" d="m456.67077 36.6691 6.66725 6.66725-6.66725 6.66725 6.66725 6.66725-6.66725 6.66725-6.66725-6.66725-6.66725 6.66725-6.66725-6.66725 6.66725-6.66725-6.66725-6.66725 6.66725-6.66725 6.66725 6.66725zM470 63.33814V36.66913h26.66901v26.66901zM523.33275 36.6691 530 43.33635l-6.66725 6.66725L530 56.67085l-6.66725 6.66725-6.66725-6.66725-6.66725 6.66725-6.66725-6.66725 6.66725-6.66725-6.66725-6.66725 6.66725-6.66725 6.66725 6.66725zM536.66901 63.33814V36.66913h26.66901v26.66901z"/><path fill="#65dc65" d="m590.00176 36.6691 6.66725 6.66725-6.66725 6.66725 6.66725 6.66725-6.66725 6.66725-6.66725-6.66725-6.66725 6.66725-6.66725-6.66725 6.66725-6.66725-6.66725-6.66725 6.66725-6.66725 6.66725 6.66725z"/><path fill="#4ba34b" d="M3.33099 96.66913V70.00012H30v26.66901z"/><path fill="#65dc65" d="M36.66901 96.66913V70.00012h26.66901v26.66901zM70 96.66913V70.00012h26.66901v26.66901zM156.67077 70.00008l6.66725 6.66725-6.66725 6.66725 6.66725 6.66725-6.66725 6.66725-6.66725-6.66725-6.66725 6.66725-6.66725-6.66725 6.66725-6.66725-6.66725-6.66725 6.66725-6.66725 6.66725 6.66725z"/><path fill="#4ba34b" d="M223.33275 70.00008 230 76.66733l-6.66725 6.66725L230 90.00183l-6.66725 6.66725-6.66725-6.66725-6.66725 6.66725-6.66725-6.66725 6.66725-6.66725-6.66725-6.66725 6.66725-6.66725 6.66725 6.66725zM290.00176 70.00008l6.66725 6.66725-6.66725 6.66725 6.66725 6.66725-6.66725 6.66725-6.66725-6.66725-6.66725 6.66725-6.66725-6.66725 6.66725-6.66725-6.66725-6.66725 6.66725-6.66725 6.66725 6.66725zM303.33099 96.66913V70.00012H330v26.66901zM356.67077 70.00008l6.66725 6.66725-6.66725 6.66725 6.66725 6.66725-6.66725 6.66725-6.66725-6.66725-6.66725 6.66725-6.66725-6.66725 6.66725-6.66725-6.66725-6.66725 6.66725-6.66725 6.66725 6.66725z"/><path fill="#65dc65" d="m390.00176 70.00008 6.66725 6.66725-6.66725 6.66725 6.66725 6.66725-6.66725 6.66725-6.66725-6.66725-6.66725 6.66725-6.66725-6.66725 6.66725-6.66725-6.66725-6.66725 6.66725-6.66725 6.66725 6.66725zM436.66901 96.66913V70.00012h26.66901v26.66901z"/><path fill="#4ba34b" d="M523.33275 70.00008 530 76.66733l-6.66725 6.66725L530 90.00183l-6.66725 6.66725-6.66725-6.66725-6.66725 6.66725-6.66725-6.66725 6.66725-6.66725-6.66725-6.66725 6.66725-6.66725 6.66725 6.66725zM556.67077 70.00008l6.66725 6.66725-6.66725 6.66725 6.66725 6.66725-6.66725 6.66725-6.66725-6.66725-6.66725 6.66725-6.66725-6.66725 6.66725-6.66725-6.66725-6.66725 6.66725-6.66725 6.66725 6.66725zM570 96.66913V70.00012h26.66901v26.66901z"/><path fill="#65dc65" d="M3.33099 130.00001V103.331H30v26.66901zM36.66901 130.00001V103.331h26.66901v26.66901zM70 130.00001V103.331h26.66901v26.66901z"/><path fill="#4ba34b" d="m156.67077 103.33111 6.66725 6.66725-6.66725 6.66725 6.66725 6.66725-6.66725 6.66725-6.66725-6.66725-6.66725 6.66725-6.66725-6.66725 6.66725-6.66725-6.66725-6.66725 6.66725-6.66725 6.66725 6.66725z"/><path fill="#65dc65" d="M170 130.00001V103.331h26.66901v26.66901zM223.33275 103.33111 230 109.99836l-6.66725 6.66725L230 123.33286l-6.66725 6.66725-6.66725-6.66725-6.66725 6.66725-6.66725-6.66725 6.66725-6.66725-6.66725-6.66725 6.66725-6.66725 6.66725 6.66725zM256.67077 103.33111l6.66725 6.66725-6.66725 6.66725 6.66725 6.66725-6.66725 6.66725-6.66725-6.66725-6.66725 6.66725-6.66725-6.66725 6.66725-6.66725-6.66725-6.66725 6.66725-6.66725 6.66725 6.66725z"/><path fill="#4ba34b" d="M323.33275 103.33111 330 109.99836l-6.66725 6.66725L330 123.33286l-6.66725 6.66725-6.66725-6.66725-6.66725 6.66725-6.66725-6.66725 6.66725-6.66725-6.66725-6.66725 6.66725-6.66725 6.66725 6.66725z"/><path fill="#65dc65" d="m356.67077 103.33111 6.66725 6.66725-6.66725 6.66725 6.66725 6.66725-6.66725 6.66725-6.66725-6.66725-6.66725 6.66725-6.66725-6.66725 6.66725-6.66725-6.66725-6.66725 6.66725-6.66725 6.66725 6.66725z"/><path fill="#4ba34b" d="M370 130.00001V103.331h26.66901v26.66901z"/><path fill="#65dc65" d="M403.33099 130.00001V103.331H430v26.66901zM456.67077 103.33111l6.66725 6.66725-6.66725 6.66725 6.66725 6.66725-6.66725 6.66725-6.66725-6.66725-6.66725 6.66725-6.66725-6.66725 6.66725-6.66725-6.66725-6.66725 6.66725-6.66725 6.66725 6.66725z"/><path fill="#4ba34b" d="M470 130.00001V103.331h26.66901v26.66901zM590.00176 103.33111l6.66725 6.66725-6.66725 6.66725 6.66725 6.66725-6.66725 6.66725-6.66725-6.66725-6.66725 6.66725-6.66725-6.66725 6.66725-6.66725-6.66725-6.66725 6.66725-6.66725 6.66725 6.66725zM3.33099 163.33812v-26.66901H30v26.66901zM36.66901 163.33812v-26.66901h26.66901v26.66901z"/><path fill="#65dc65" d="M123.33275 136.66906 130 143.33631l-6.66725 6.66725L130 156.67081l-6.66725 6.66725-6.66725-6.66725-6.66725 6.66725-6.66725-6.66725 6.66725-6.66725-6.66725-6.66725 6.66725-6.66725 6.66725 6.66725z"/><path fill="#4ba34b" d="m156.67077 136.66906 6.66725 6.66725-6.66725 6.66725 6.66725 6.66725-6.66725 6.66725-6.66725-6.66725-6.66725 6.66725-6.66725-6.66725 6.66725-6.66725-6.66725-6.66725 6.66725-6.66725 6.66725 6.66725zM223.33275 136.66906 230 143.33631l-6.66725 6.66725L230 156.67081l-6.66725 6.66725-6.66725-6.66725-6.66725 6.66725-6.66725-6.66725 6.66725-6.66725-6.66725-6.66725 6.66725-6.66725 6.66725 6.66725z"/><path fill="#65dc65" d="m256.67077 136.66906 6.66725 6.66725-6.66725 6.66725 6.66725 6.66725-6.66725 6.66725-6.66725-6.66725-6.66725 6.66725-6.66725-6.66725 6.66725-6.66725-6.66725-6.66725 6.66725-6.66725 6.66725 6.66725zM323.33275 136.66906 330 143.33631l-6.66725 6.66725L330 156.67081l-6.66725 6.66725-6.66725-6.66725-6.66725 6.66725-6.66725-6.66725 6.66725-6.66725-6.66725-6.66725 6.66725-6.66725 6.66725 6.66725z"/><path fill="#4ba34b" d="m356.67077 136.66906 6.66725 6.66725-6.66725 6.66725 6.66725 6.66725-6.66725 6.66725-6.66725-6.66725-6.66725 6.66725-6.66725-6.66725 6.66725-6.66725-6.66725-6.66725 6.66725-6.66725 6.66725 6.66725z"/><path fill="#65dc65" d="m390.00176 136.66906 6.66725 6.66725-6.66725 6.66725 6.66725 6.66725-6.66725 6.66725-6.66725-6.66725-6.66725 6.66725-6.66725-6.66725 6.66725-6.66725-6.66725-6.66725 6.66725-6.66725 6.66725 6.66725z"/><path fill="#4ba34b" d="M403.33099 163.33812v-26.66901H430v26.66901zM470 163.33812v-26.66901h26.66901v26.66901zM590.00176 136.66906l6.66725 6.66725-6.66725 6.66725 6.66725 6.66725-6.66725 6.66725-6.66725-6.66725-6.66725 6.66725-6.66725-6.66725 6.66725-6.66725-6.66725-6.66725 6.66725-6.66725 6.66725 6.66725z"/><path fill="#65dc65" d="M23.33275 170.00011 30 176.66736l-6.66725 6.66725L30 190.00186l-6.66725 6.66725-6.66725-6.66725-6.66725 6.66725-6.66725-6.66725 6.66725-6.66725-6.66725-6.66725 6.66725-6.66725 6.66725 6.66725z"/><path fill="#4ba34b" d="M103.33099 196.66914v-26.66901H130v26.66901zM136.66901 196.66914v-26.66901h26.66901v26.66901zM203.33099 196.66914v-26.66901H230v26.66901zM256.67077 170.00011l6.66725 6.66725-6.66725 6.66725 6.66725 6.66725-6.66725 6.66725-6.66725-6.66725-6.66725 6.66725-6.66725-6.66725 6.66725-6.66725-6.66725-6.66725 6.66725-6.66725 6.66725 6.66725z"/><path fill="#65dc65" d="m290.00176 170.00011 6.66725 6.66725-6.66725 6.66725 6.66725 6.66725-6.66725 6.66725-6.66725-6.66725-6.66725 6.66725-6.66725-6.66725 6.66725-6.66725-6.66725-6.66725 6.66725-6.66725 6.66725 6.66725z"/><path fill="#4ba34b" d="M323.33275 170.00011 330 176.66736l-6.66725 6.66725L330 190.00186l-6.66725 6.66725-6.66725-6.66725-6.66725 6.66725-6.66725-6.66725 6.66725-6.66725-6.66725-6.66725 6.66725-6.66725 6.66725 6.66725z"/><path fill="#65dc65" d="M436.66901 196.66914v-26.66901h26.66901v26.66901z"/><path fill="#4ba34b" d="m556.67077 170.00011 6.66725 6.66725-6.66725 6.66725 6.66725 6.66725-6.66725 6.66725-6.66725-6.66725-6.66725 6.66725-6.66725-6.66725 6.66725-6.66725-6.66725-6.66725 6.66725-6.66725 6.66725 6.66725zM36.66901 230.0001v-26.66901h26.66901v26.66901zM90.00176 203.33113l6.66725 6.66725-6.66725 6.66725 6.66725 6.66725-6.66725 6.66725-6.66725-6.66725-6.66725 6.66725-6.66725-6.66725 6.66725-6.66725-6.66725-6.66725 6.66725-6.66725 6.66725 6.66725zM170 230.0001v-26.66901h26.66901v26.66901z"/><path fill="#65dc65" d="M223.33275 203.33113 230 209.99838l-6.66725 6.66725L230 223.33288l-6.66725 6.66725-6.66725-6.66725-6.66725 6.66725-6.66725-6.66725 6.66725-6.66725-6.66725-6.66725 6.66725-6.66725 6.66725 6.66725z"/><path fill="#4ba34b" d="m256.67077 203.33113 6.66725 6.66725-6.66725 6.66725 6.66725 6.66725-6.66725 6.66725-6.66725-6.66725-6.66725 6.66725-6.66725-6.66725 6.66725-6.66725-6.66725-6.66725 6.66725-6.66725 6.66725 6.66725z"/><path fill="#65dc65" d="M270 230.0001v-26.66901h26.66901v26.66901zM323.33275 203.33113 330 209.99838l-6.66725 6.66725L330 223.33288l-6.66725 6.66725-6.66725-6.66725-6.66725 6.66725-6.66725-6.66725 6.66725-6.66725-6.66725-6.66725 6.66725-6.66725 6.66725 6.66725zM423.33275 203.33113 430 209.99838l-6.66725 6.66725L430 223.33288l-6.66725 6.66725-6.66725-6.66725-6.66725 6.66725-6.66725-6.66725 6.66725-6.66725-6.66725-6.66725 6.66725-6.66725 6.66725 6.66725z"/><path fill="#4ba34b" d="m456.67077 203.33113 6.66725 6.66725-6.66725 6.66725 6.66725 6.66725-6.66725 6.66725-6.66725-6.66725-6.66725 6.66725-6.66725-6.66725 6.66725-6.66725-6.66725-6.66725 6.66725-6.66725 6.66725 6.66725z"/><path fill="#65dc65" d="M503.33099 230.0001v-26.66901H530v26.66901zM556.67077 203.33113l6.66725 6.66725-6.66725 6.66725 6.66725 6.66725-6.66725 6.66725-6.66725-6.66725-6.66725 6.66725-6.66725-6.66725 6.66725-6.66725-6.66725-6.66725 6.66725-6.66725 6.66725 6.66725zM70 263.33803v-26.66901h26.66901v26.66901zM123.33275 236.66914 130 243.33639l-6.66725 6.66725L130 256.67089l-6.66725 6.66725-6.66725-6.66725-6.66725 6.66725-6.66725-6.66725 6.66725-6.66725-6.66725-6.66725 6.66725-6.66725 6.66725 6.66725z"/><path fill="#4ba34b" d="m190.00176 236.66914 6.66725 6.66725-6.66725 6.66725 6.66725 6.66725-6.66725 6.66725-6.66725-6.66725-6.66725 6.66725-6.66725-6.66725 6.66725-6.66725-6.66725-6.66725 6.66725-6.66725 6.66725 6.66725z"/><path fill="#65dc65" d="M223.33275 236.66914 230 243.33639l-6.66725 6.66725L230 256.67089l-6.66725 6.66725-6.66725-6.66725-6.66725 6.66725-6.66725-6.66725 6.66725-6.66725-6.66725-6.66725 6.66725-6.66725 6.66725 6.66725z"/><path fill="#4ba34b" d="M236.66901 263.33803v-26.66901h26.66901v26.66901zM290.00176 236.66914l6.66725 6.66725-6.66725 6.66725 6.66725 6.66725-6.66725 6.66725-6.66725-6.66725-6.66725 6.66725-6.66725-6.66725 6.66725-6.66725-6.66725-6.66725 6.66725-6.66725 6.66725 6.66725z"/><path fill="#65dc65" d="M323.33275 236.66914 330 243.33639l-6.66725 6.66725L330 256.67089l-6.66725 6.66725-6.66725-6.66725-6.66725 6.66725-6.66725-6.66725 6.66725-6.66725-6.66725-6.66725 6.66725-6.66725 6.66725 6.66725zM356.67077 236.66914l6.66725 6.66725-6.66725 6.66725 6.66725 6.66725-6.66725 6.66725-6.66725-6.66725-6.66725 6.66725-6.66725-6.66725 6.66725-6.66725-6.66725-6.66725 6.66725-6.66725 6.66725 6.66725zM390.00176 236.66914l6.66725 6.66725-6.66725 6.66725 6.66725 6.66725-6.66725 6.66725-6.66725-6.66725-6.66725 6.66725-6.66725-6.66725 6.66725-6.66725-6.66725-6.66725 6.66725-6.66725 6.66725 6.66725zM456.67077 236.66914l6.66725 6.66725-6.66725 6.66725 6.66725 6.66725-6.66725 6.66725-6.66725-6.66725-6.66725 6.66725-6.66725-6.66725 6.66725-6.66725-6.66725-6.66725 6.66725-6.66725 6.66725 6.66725zM523.33275 236.66914 530 243.33639l-6.66725 6.66725L530 256.67089l-6.66725 6.66725-6.66725-6.66725-6.66725 6.66725-6.66725-6.66725 6.66725-6.66725-6.66725-6.66725 6.66725-6.66725 6.66725 6.66725zM556.67077 236.66914l6.66725 6.66725-6.66725 6.66725 6.66725 6.66725-6.66725 6.66725-6.66725-6.66725-6.66725 6.66725-6.66725-6.66725 6.66725-6.66725-6.66725-6.66725 6.66725-6.66725 6.66725 6.66725zM590.00176 236.66914l6.66725 6.66725-6.66725 6.66725 6.66725 6.66725-6.66725 6.66725-6.66725-6.66725-6.66725 6.66725-6.66725-6.66725 6.66725-6.66725-6.66725-6.66725 6.66725-6.66725 6.66725 6.66725zM36.66901 296.66912v-26.66901h26.66901v26.66901z"/><path fill="#4ba34b" d="m90.00176 270 6.66725 6.66725-6.66725 6.66725 6.66725 6.66725-6.66725 6.66725-6.66725-6.66725-6.66725 6.66725-6.66725-6.66725 6.66725-6.66725-6.66725-6.66725L76.66726 270l6.66725 6.66725z"/><path fill="#65dc65" d="M123.33275 270 130 276.66725l-6.66725 6.66725L130 290.00175l-6.66725 6.66725-6.66725-6.66725-6.66725 6.66725-6.66725-6.66725 6.66725-6.66725-6.66725-6.66725L109.99825 270l6.66725 6.66725zM170 296.66912v-26.66901h26.66901v26.66901z"/><path fill="#4ba34b" d="M223.33275 270 230 276.66725l-6.66725 6.66725L230 290.00175l-6.66725 6.66725-6.66725-6.66725-6.66725 6.66725-6.66725-6.66725 6.66725-6.66725-6.66725-6.66725L209.99825 270l6.66725 6.66725zM256.67077 270l6.66725 6.66725-6.66725 6.66725 6.66725 6.66725-6.66725 6.66725-6.66725-6.66725-6.66725 6.66725-6.66725-6.66725 6.66725-6.66725-6.66725-6.66725L243.33627 270l6.66725 6.66725zM303.33099 296.66912v-26.66901H330v26.66901zM423.33275 270 430 276.66725l-6.66725 6.66725L430 290.00175l-6.66725 6.66725-6.66725-6.66725-6.66725 6.66725-6.66725-6.66725 6.66725-6.66725-6.66725-6.66725L409.99825 270l6.66725 6.66725zM470 296.66912v-26.66901h26.66901v26.66901z"/><path fill="#65dc65" d="M523.33275 270 530 276.66725l-6.66725 6.66725L530 290.00175l-6.66725 6.66725-6.66725-6.66725-6.66725 6.66725-6.66725-6.66725 6.66725-6.66725-6.66725-6.66725L509.99825 270l6.66725 6.66725zM536.66901 296.66912v-26.66901h26.66901v26.66901z"/></g><path fill="#fff" stroke="#fff" stroke-width=".5" d="M143.31963 141.42632c.77975-.20858.97975-.23259 1.19331-.13244l.26678.11541 1.09858 3.92317 1.09613 3.914.40783.56917.40111.5808 1.353-.0867c.73399-.0489 1.61114-.0771 1.93841-.0663l.59458.0179 11.34809 30.00281.63947 1.9129 18.29533 56.4153 2.59664-.80271 2.127 6.51841-2.18518 10.02125-3.36086-6.61105s-1.05746-2.96101-2.33192-6.51275c-8.04871-22.44539-20.63285-57.51026-20.63285-57.51026l-4.07146-10.82552-4.74046 1.26459 1.76719 11.33724 10.07666 55.71394 1.95783 10.81018.44218 9.40692-6.86351-9.0851-1.4072-6.73061 2.65062-.60089-12.36986-58.03965-.37279-1.9449-4.83351-31.5925.58317-.4662c.27819-.17272 1.05227-.58621 1.72182-.91276l1.21314-.60958.0874-.8491.0874-.8491-1.00363-3.75197c-.98955-3.73608-.99692-3.7636-.85154-4.02857.13194-.24172.21877-.2846 1.08108-.51527z" style="mix-blend-mode:normal;stroke-linejoin:miter;stroke-miterlimit:10;stroke-dasharray:none;stroke-dashoffset:0"/><path fill="#fff" d="m456.08646 145.67275 26.58652 5.23386.0708.10555c.0405.0603.055.14168.0342.203-.0225.0697-9.40568 6.38593-31.9718 21.52346-26.28609 17.63657-31.95615 21.42187-32.04852 21.40367-.0588-.0116-.13614-.0617-.16482-.11535-.0531-.0846.26034-1.69772 5.20327-26.71904l5.25556-26.63022.12978-.10528c.0678-.0564.17005-.11043.21955-.11813.0545-.0111 12.06169 2.33721 26.68552 5.21848zm-9.28138 8.76567c-7.26362-1.43112-9.42839-1.84455-9.47363-1.81421-.0452.0303-.48385 2.19016-1.91663 9.46217l-1.85549 9.41751.16622.0197c.15784.018.64871-.30398 11.32287-7.4388 6.41389-4.28428 11.17752-7.49797 11.2017-7.55427.0276-.0513.029-.12513.006-.16451-.0354-.0637-1.1716-.29626-9.45129-1.92757z" style="mix-blend-mode:normal;stroke-linejoin:miter;stroke-miterlimit:10;stroke-dasharray:none;stroke-dashoffset:0"/><g style="mix-blend-mode:normal;stroke-linejoin:miter;stroke-miterlimit:10;stroke-dasharray:none;stroke-dashoffset:0"><path fill="#fff" d="M404.25252 47.79027c.18447.18447-.20497 12.54418-1.33231 41.87543-.12298 2.93108-.28696 7.72738-.40994 10.65846-.10249 2.93108-.28696 7.76837-.40994 10.76094-.12298 2.99257-.30746 7.76837-.40995 10.59696-.36895 9.32614-.61491 15.45476-.81988 20.66101-.10249 2.80809-.28696 7.48141-.40994 10.351-.10249 2.86959-.30745 7.52241-.40994 10.351-.12298 2.80809-.30746 7.37893-.40995 10.14603-.28696 7.03048-.57391 14.20444-.81988 20.08709-.12298 2.7671-.30745 7.09197-.40994 9.6336-.10249 2.54163-.24597 5.98513-.30746 7.68638-.0615 1.68075-.16398 3.66897-.22547 4.38637l-.12298 1.29131-12.72865-.12298c-7.00998-.0615-15.10631-.16398-17.9759-.22547-2.86959-.0615-7.48141-.14348-10.24851-.20497-2.7671-.0615-10.69946-.14348-17.62745-.20497-6.92799-.0615-13.71251-.16398-15.06531-.22547-1.3528-.0615-2.58263-.0205-2.72611.082-.20497.14348-.12299.77889.47143 3.13605.94287 3.89444 1.51678 5.96464 1.63976 6.08762.16398.16398 3.4845.26646 15.84421.43044 6.68203.10249 12.21622.24596 12.29821.32795.082.082.18448 4.57084.22547 9.98206l.0615 9.85906-11.49883-.12298c-7.6044-.10249-11.49884-.0615-11.49884.0615 0 .20497 1.16833 4.8373 2.64411 10.49448.34845 1.33231.90187 3.4845 1.25032 4.77581.32795 1.29131.88137 3.423 1.22982 4.71431.34845 1.29131.90187 3.42301 1.22982 4.71432 1.53727 5.92364 1.86523 7.15346 2.56213 9.83857.40994 1.57827.96336 3.75096 1.25032 4.8168 1.04535 3.87394 4.77581 18.81628 5.26774 21.00946.51243 2.25467.53292 3.17704.041 3.58698-.22547.18447-2.99256.61492-4.01742.61492-.20497 0-.38944-.22547-.45093-.55342-.082-.53292-1.12734-4.59134-2.48015-9.73609-.28696-1.10684-.75839-2.89008-1.04535-3.95593-.28696-1.06585-.73789-2.82859-1.02485-3.89444-.28696-1.06585-.7584-2.84909-1.04535-3.93543-.28696-1.10684-.6969-2.70561-.92237-3.54599-.22547-.84038-.6764-2.56212-1.00435-3.79195-.32795-1.25032-.77889-2.97207-1.00436-3.83295-.24597-.88138-.61491-2.29567-.84038-3.13605-.22547-.84038-.59442-2.23418-.81989-3.07456-.22547-.84038-.59442-2.21367-.79939-3.01306-.22547-.81988-.6559-2.41865-.94286-3.54599-3.464-13.15909-4.93978-18.52932-5.10376-18.71379-.10249-.082-4.75531-.26646-15.02432-.57392l-4.75531-.14348-.0615 3.05406-.0615 3.05406-2.11119.0615c-1.57827.041-2.11119-.0205-2.17268-.20497-.041-.14348-.20497-1.51678-.34845-3.03357l-.28696-2.7671-6.45656-.24596c-3.54599-.12298-9.5926-.24597-13.44605-.24597l-6.98949-.0205-1.29131 4.57083c-1.51678 5.34973-3.19753 11.41685-4.71431 16.84856-.59442 2.13169-1.51678 5.45221-2.0497 7.37893-.53292 1.90622-1.45529 5.22673-2.0497 7.37892-.59442 2.13169-1.41429 5.14476-1.84473 6.66154-.40994 1.51678-1.25032 4.50934-1.84473 6.66153-.59442 2.13169-1.41429 5.14475-1.84473 6.66153-.43044 1.51678-1.02485 3.70996-1.3528 4.87829l-.55342 2.09069h-1.92672c-1.66026 0-1.96771-.0615-2.33666-.43044-.61491-.61491-.59442-.71739 1.31181-7.97334.28696-1.06585.86088-3.23853 1.27082-4.8168.40994-1.57827.90187-3.464 1.12734-4.20189.20497-.7379.79939-2.95158 1.33231-4.91929.53292-1.96771 1.22982-4.50934 1.53727-5.63668.30746-1.12734.79939-2.93108 1.08635-3.99692.28696-1.06585 1.00435-3.64847 1.57827-5.73917.57392-2.0907 1.29131-4.67332 1.57827-5.73917.28696-1.06585.79938-2.91058 1.10684-4.0994.32795-1.18883.88138-3.21803 1.22982-4.50934.34845-1.29131.81989-3.01307 1.02485-3.79195 1.27082-4.65282 1.88572-7.27645 1.76274-7.39943-.0615-.082-4.77581-.22546-10.43299-.32795-5.67768-.10249-10.82244-.24596-11.43734-.32795l-1.12734-.14348.0205-3.25903v-3.23854l.55342-.40994.55342-.40994v-12.01127l.7584-.14348c.43044-.082 6.64104-.0615 13.7945.0205l13.03611.14348.24597-.59442c.51243-1.31181 2.41865-8.44478 2.27517-8.56776-.10249-.082-17.19701-.43044-36.36174-.75839-7.5634-.12298-19.04174-.32796-25.5188-.45094l-11.78579-.24596-.14348-3.99692c-.082-2.19318-.24597-7.50191-.36895-11.78579-.12298-4.28388-.30745-10.96591-.40994-14.86034-.10249-3.89444-.28697-10.53548-.40995-14.75786-.12298-4.22238-.30745-11.02741-.40994-15.12681-.12298-4.07891-.28696-10.76094-.40994-14.86034-.10249-4.07891-.28696-11.02741-.40994-15.41377-.12298-4.40686-.30746-11.27336-.40995-15.27028-.10249-3.99692-.28696-11.15039-.40994-15.8852-.12298-4.73481-.30745-11.7038-.40994-15.47526-.10249-3.77145-.26646-11.60132-.32795-17.38148-.12298-8.93671-.10249-10.55597.14348-10.71995.57392-.34845 207.98336-.10248 208.3318.26647zM297.50399 214.59513h-18.32434l-.57392 2.0907c-.30746 1.16833-.88137 3.21803-1.25032 4.55033-.38945 1.3528-.65591 2.48015-.63541 2.52114.10249.082 21.05045.55343 21.11194.45094.041-.041-.0205-2.23418-.14348-4.8578zm11.21188.20496h-6.49756l.16398 1.3733c.082.77889.20497 2.86958.28696 4.67332l.12298 3.27953.81989.14348c.45094.082 3.70996.14348 7.23545.14348 5.45221.0205 6.41557-.0205 6.51805-.28696.0615-.16398-.0205-.81989-.18448-1.47579-.16398-.65591-.6764-2.64411-1.14783-4.40685-.47143-1.78324-.84038-3.27953-.84038-3.34102 0-.0615-2.91057-.10249-6.47706-.10249z"/><path fill="#3e873e" stroke="#fff" stroke-width="6.5" d="M404.25252 45.79028c.18447.18447-.20497 12.54418-1.33231 41.87543-.12298 2.93108-.28696 7.72738-.40994 10.65846-.10249 2.93108-.28696 7.76837-.40994 10.76094-.12298 2.99257-.30746 7.76837-.40995 10.59696-.36895 9.32614-.61491 15.45476-.81988 20.66101-.10249 2.80809-.28696 7.48141-.40994 10.351-.10249 2.86959-.30745 7.52241-.40994 10.351-.12298 2.80809-.30746 7.37893-.40995 10.14603-.28696 7.03048-.57391 14.20444-.81988 20.08709-.12298 2.7671-.30745 7.09197-.40994 9.6336-.10249 2.54163-.24597 5.98513-.30746 7.68638-.0615 1.68075-.16398 3.66897-.22547 4.38637l-.12298 1.29131-12.72865-.12298c-7.00998-.0615-15.10631-.16398-17.9759-.22547-2.86959-.0615-110.68395-1.8448-129.84868-2.17275-7.5634-.12298-19.04174-.32796-25.5188-.45094l-11.78579-.24596-.14348-3.99692c-.082-2.19318-.24597-7.50191-.36895-11.78579-.12298-4.28388-.30745-10.96591-.40994-14.86034-.10249-3.89444-.28697-10.53548-.40995-14.75786-.12298-4.22238-.30745-11.02741-.40994-15.12681-.12298-4.07891-.28696-10.76094-.40994-14.86034-.10249-4.07891-.28696-11.02741-.40994-15.41377-.12298-4.40686-.30746-11.27336-.40995-15.27028-.10249-3.99692-.28696-11.15039-.40994-15.8852-.12298-4.73481-.30745-11.7038-.40994-15.47526-.10249-3.77145-.26646-11.60132-.32795-17.38148-.12298-8.93671-.10249-10.55597.14348-10.71995.57392-.34845 207.98336-.10248 208.3318.26647z"/></g><path fill="#fff" fill-rule="evenodd" stroke="#fff" stroke-linecap="round" stroke-width=".5" d="M247.07075 138.2727v4.66967H228.723v-3.86075l6.58166-6.65519c1.32368-1.37271 2.38999-2.51868 3.19891-3.43791.27367-.30953.536-.6289.78649-.95747.41672-.54957.74286-1.06385.97843-1.54283.36769-.74764.55153-1.55043.55153-2.40837 0-1.05404-.28802-1.83845-.86407-2.35322-.35995-.31657-.79235-.53959-1.25897-.64934-.29587-.074-.61809-.11459-.96666-.1217-.0364-.00073-.0728-.001-.1092-.001-.98762.003-1.96201.2274-2.85181.65596-.03.014-.0599.0282-.0897.0426-.47436.23327-.93409.49517-1.37663.78428-.44907.29121-.90807.62177-1.377.99166-.0877.0692-.17481.13907-.26143.20958l-3.01506-3.56659c.75989-.66184 1.56268-1.27466 2.40837-1.83845.55124-.36458 1.13491-.67758 1.74359-.93504.39202-.16691.79179-.31501 1.19793-.4438 1.11533-.35543 2.4574-.53315 4.02621-.53315.70894-.003 1.41678.0567 2.11496.1798.84079.15247 1.6073.40238 2.29953.74972.005.003.0108.005.0162.008.67457.33452 1.29565.7675 1.84287 1.28471.39156.37403.73583.79461 1.02512 1.25235.6741 1.0663 1.01115 2.27355 1.01115 3.62175.006.90964-.11976 1.81534-.3721 2.68929-.12923.4398-.29375.86845-.49197 1.28177-.34314.70745-.75028 1.38203-1.21632 2.01531-.39722.54181-.82595 1.0598-1.28398 1.55129-.50989.5486-1.03064 1.08701-1.56195 1.6149-.54394.54148-1.1282 1.10491-1.75278 1.69027-.21178.19838-.42443.39584-.63794.59235l-3.38275 3.16214v.25738zm122.44091-21.62019v4.44906c-.46574-.12256-.97438-.21449-1.52591-.27577-.55153-.0613-1.09694-.0919-1.63622-.0919-1.38374 0-2.5677.13813-3.55189.41439-.52497.14154-1.03018.34819-1.50386.61514-1.18887.68636-2.02842 1.64848-2.51868 2.88637-.27787.71163-.48466 1.44901-.61735 2.20136-.12255.68819-.19884 1.38383-.22834 2.08223h.22062c.49026-.85794 1.19499-1.58107 2.11422-2.16937.47207-.29627.98863-.51489 1.52996-.64751.44907-.11496.93785-.18777 1.46635-.21841.19603-.0112.39233-.0167.58867-.0165.80707-.007 1.61139.0953 2.39073.30518 1.18376.31949 2.25379.96548 3.08786 1.86419 1.19426 1.28103 1.85954 3.0332 1.99582 5.2565.0179.2943.0267.58909.0265.88393.007.93237-.0926 1.86249-.29783 2.77202-.3373 1.44208-.96151 2.66526-1.87264 3.66955-.0774.0852-.15674.16872-.2379.2504-1.146 1.14369-2.61167 1.91325-4.20381 2.20725-.76498.15042-1.54308.22396-2.3227.21951-1.12224.009-2.238-.1707-3.30112-.53021-.53801-.18544-1.05769-.42029-1.55239-.70155-1.08395-.62326-2.011-1.48617-2.71025-2.52273-.27743-.40386-.5267-.82636-.74605-1.26449-.39293-.79482-.68837-1.63421-.87988-2.49992-.18654-.81431-.30898-1.69738-.36732-2.64921-.0269-.44636-.0401-.89343-.0397-1.3406 0-1.51979.1103-3.01506.33092-4.48582.22062-1.47076.60669-2.86186 1.15823-4.17329.55153-1.31143 1.32368-2.47579 2.31645-3.49306.70184-.71134 1.51107-1.30802 2.39808-1.76822.44952-.23623.91348-.4439 1.38913-.62177.74012-.27325 1.50439-.47601 2.28263-.60558.99889-.17232 2.09485-.25849 3.28788-.25849.20507.00026.41014.003.61515.008.18115.004.37051.0102.56808.018.20622.008.41237.018.61845.029.24219.0127.48407.0308.72545.0544.22993.0228.44392.05.64199.0816.12076.0191.24103.0412.36071.0662zm-79.78882 16.54607v4.30197h-3.16214v5.44182h-5.40505v-5.44182h-11.21456v-3.86075l11.50871-16.95053h5.1109v16.5093zm55.96248-16.5093v26.25309h-5.55213v-15.18561c0-.56992.0147-1.29684.0441-2.18077.004-.10652.007-.21302.011-.31953.0316-.88466.0587-1.67887.0813-2.38263.004-.11276.007-.22552.0107-.33828-.12256.14708-.38608.41059-.79053.79053-.40446.37995-.77827.717-1.12145 1.01115l-3.01507 2.42676-2.68414-3.34598 8.45688-6.72874zm-92.32706 16.91376h-4.22844l7.86857-17.06084h2.57383l8.89811 17.06084h-4.30198l-5.77274-11.54548zm65.96366 1.83844h-17.83299v-3.93429h17.83299zm0-6.98612h-17.83299v-3.89752h17.83299zm-38.16626 4.74322v-4.44906c.00012-.22859.002-.45717.005-.68574.006-.40985.0164-.86762.0316-1.37332.0245-.80892.0551-1.56269.0919-2.2613.007-.14133.0151-.28265.0232-.42395.0204-.35543.0386-.62532.0548-.80965.004-.0485.009-.0969.014-.14524h-.14707c-.22062.49026-.45349.96825-.69861 1.43399-.16003.30286-.3325.59898-.51697.88761-.11784.18476-.2397.36694-.36548.54639l-4.81674 7.28027zm81.14927 5.66244c.45103.005.89936-.0702 1.32406-.22209.50722-.18861.96125-.49719 1.32332-.89937.68636-.74764 1.02953-1.90586 1.02953-3.47468 0-1.27466-.29415-2.27968-.88246-3.01506-.38982-.48221-.92809-.82205-1.53106-.96666-.31401-.0824-.65915-.12735-1.03542-.13495-.0392-.00089-.0784-.001-.11766-.001-.80892 0-1.51979.17772-2.13261.53315-.40029.22833-.75947.52214-1.06262.86922-.13769.15929-.26191.32975-.37137.50962-.17379.28112-.30826.58471-.39968.90231-.0761.26868-.11487.54657-.11509.82583 0 .80892.14707 1.59945.44123 2.3716.29415.77215.74151 1.41561 1.34207 1.93037.54472.46659 1.23065.73625 1.94729.76553.0801.005.16027.007.24047.007z" style="mix-blend-mode:normal;stroke-linejoin:miter;stroke-miterlimit:10;stroke-dasharray:none;stroke-dashoffset:0"/></svg>