<svg xmlns="http://www.w3.org/2000/svg" width="600" height="300" viewBox="0 0 600 299.99999"><path fill="#59c059" d="M0 300V0h600v300z" style="mix-blend-mode:normal;fill-rule:nonzero;stroke-miterlimit:10;stroke-dasharray:none;stroke-dashoffset:0"/><path fill="#4ba34b" d="M3.33099 30.00004V3.33103H30v26.66901z" style="mix-blend-mode:normal;fill-rule:nonzero;stroke-miterlimit:10;stroke-dasharray:none;stroke-dashoffset:0"/><path fill="#65dc65" d="M70 30.00004V3.33103h26.66901v26.66901z" style="mix-blend-mode:normal;fill-rule:nonzero;stroke-miterlimit:10;stroke-dasharray:none;stroke-dashoffset:0"/><path fill="#4ba34b" d="M170 30.00004V3.33103h26.66901v26.66901zM223.33275 3.33103 230 9.99828l-6.66725 6.66725L230 23.33278l-6.66725 6.66725-6.66725-6.66725-6.66725 6.66725-6.66725-6.66725 6.66725-6.66725-6.66725-6.66725 6.66725-6.66725 6.66725 6.66725z" style="mix-blend-mode:normal;fill-rule:nonzero;stroke-miterlimit:10;stroke-dasharray:none;stroke-dashoffset:0"/><path fill="#65dc65" d="M236.66901 30.00004V3.33103h26.66901v26.66901zM356.67077 3.33103l6.66725 6.66725-6.66725 6.66725 6.66725 6.66725-6.66725 6.66725-6.66725-6.66725-6.66725 6.66725-6.66725-6.66725 6.66725-6.66725-6.66725-6.66725 6.66725-6.66725 6.66725 6.66725zM456.67077 3.33103l6.66725 6.66725-6.66725 6.66725 6.66725 6.66725-6.66725 6.66725-6.66725-6.66725-6.66725 6.66725-6.66725-6.66725 6.66725-6.66725-6.66725-6.66725 6.66725-6.66725 6.66725 6.66725z" style="mix-blend-mode:normal;fill-rule:nonzero;stroke-miterlimit:10;stroke-dasharray:none;stroke-dashoffset:0"/><path fill="#4ba34b" d="M470 30.00004V3.33103h26.66901v26.66901z" style="mix-blend-mode:normal;fill-rule:nonzero;stroke-miterlimit:10;stroke-dasharray:none;stroke-dashoffset:0"/><path fill="#65dc65" d="m590.00176 3.33103 6.66725 6.66725-6.66725 6.66725 6.66725 6.66725-6.66725 6.66725-6.66725-6.66725-6.66725 6.66725-6.66725-6.66725 6.66725-6.66725-6.66725-6.66725 6.66725-6.66725 6.66725 6.66725z" style="mix-blend-mode:normal;fill-rule:nonzero;stroke-miterlimit:10;stroke-dasharray:none;stroke-dashoffset:0"/><path fill="#4ba34b" d="M23.33275 36.66904 30 43.33629l-6.66725 6.66725L30 56.67079l-6.66725 6.66725-6.66725-6.66725-6.66725 6.66725L3.331 56.67079l6.66725-6.66725L3.331 43.33629l6.66725-6.66725 6.66725 6.66725Z" style="mix-blend-mode:normal;fill-rule:nonzero;stroke-miterlimit:10;stroke-dasharray:none;stroke-dashoffset:0"/><path fill="#65dc65" d="M70 63.33807V36.66906h26.66901v26.66901z" style="mix-blend-mode:normal;fill-rule:nonzero;stroke-miterlimit:10;stroke-dasharray:none;stroke-dashoffset:0"/><path fill="#4ba34b" d="M103.33099 63.33807V36.66906H130v26.66901zM156.67077 36.66904l6.66725 6.66725-6.66725 6.66725 6.66725 6.66725-6.66725 6.66725-6.66725-6.66725-6.66725 6.66725-6.66725-6.66725 6.66725-6.66725-6.66725-6.66725 6.66725-6.66725 6.66725 6.66725zM190.00176 36.66904l6.66725 6.66725-6.66725 6.66725 6.66725 6.66725-6.66725 6.66725-6.66725-6.66725-6.66725 6.66725-6.66725-6.66725 6.66725-6.66725-6.66725-6.66725 6.66725-6.66725 6.66725 6.66725zM236.66901 63.33807V36.66906h26.66901v26.66901zM290.00176 36.66904l6.66725 6.66725-6.66725 6.66725 6.66725 6.66725-6.66725 6.66725-6.66725-6.66725-6.66725 6.66725-6.66725-6.66725 6.66725-6.66725-6.66725-6.66725 6.66725-6.66725 6.66725 6.66725z" style="mix-blend-mode:normal;fill-rule:nonzero;stroke-miterlimit:10;stroke-dasharray:none;stroke-dashoffset:0"/><path fill="#65dc65" d="M323.33275 36.66904 330 43.33629l-6.66725 6.66725L330 56.67079l-6.66725 6.66725-6.66725-6.66725-6.66725 6.66725-6.66725-6.66725 6.66725-6.66725-6.66725-6.66725 6.66725-6.66725 6.66725 6.66725zM356.67077 36.66904l6.66725 6.66725-6.66725 6.66725 6.66725 6.66725-6.66725 6.66725-6.66725-6.66725-6.66725 6.66725-6.66725-6.66725 6.66725-6.66725-6.66725-6.66725 6.66725-6.66725 6.66725 6.66725z" style="mix-blend-mode:normal;fill-rule:nonzero;stroke-miterlimit:10;stroke-dasharray:none;stroke-dashoffset:0"/><path fill="#4ba34b" d="M370 63.33807V36.66906h26.66901v26.66901z" style="mix-blend-mode:normal;fill-rule:nonzero;stroke-miterlimit:10;stroke-dasharray:none;stroke-dashoffset:0"/><path fill="#65dc65" d="M403.33099 63.33807V36.66906H430v26.66901z" style="mix-blend-mode:normal;fill-rule:nonzero;stroke-miterlimit:10;stroke-dasharray:none;stroke-dashoffset:0"/><path fill="#4ba34b" d="m456.67077 36.66904 6.66725 6.66725-6.66725 6.66725 6.66725 6.66725-6.66725 6.66725-6.66725-6.66725-6.66725 6.66725-6.66725-6.66725 6.66725-6.66725-6.66725-6.66725 6.66725-6.66725 6.66725 6.66725zM470 63.33807V36.66906h26.66901v26.66901zM523.33275 36.66904 530 43.33629l-6.66725 6.66725L530 56.67079l-6.66725 6.66725-6.66725-6.66725-6.66725 6.66725-6.66725-6.66725 6.66725-6.66725-6.66725-6.66725 6.66725-6.66725 6.66725 6.66725zM536.66901 63.33807V36.66906h26.66901v26.66901z" style="mix-blend-mode:normal;fill-rule:nonzero;stroke-miterlimit:10;stroke-dasharray:none;stroke-dashoffset:0"/><path fill="#65dc65" d="m590.00176 36.66904 6.66725 6.66725-6.66725 6.66725 6.66725 6.66725-6.66725 6.66725-6.66725-6.66725-6.66725 6.66725-6.66725-6.66725 6.66725-6.66725-6.66725-6.66725 6.66725-6.66725 6.66725 6.66725z" style="mix-blend-mode:normal;fill-rule:nonzero;stroke-miterlimit:10;stroke-dasharray:none;stroke-dashoffset:0"/><path fill="#4ba34b" d="M3.33099 96.66906V70.00005H30v26.66901z" style="mix-blend-mode:normal;fill-rule:nonzero;stroke-miterlimit:10;stroke-dasharray:none;stroke-dashoffset:0"/><path fill="#65dc65" d="M36.66901 96.66906V70.00005h26.66901v26.66901zM70 96.66906V70.00005h26.66901v26.66901zM156.67077 70.00002l6.66725 6.66725-6.66725 6.66725 6.66725 6.66725-6.66725 6.66725-6.66725-6.66725-6.66725 6.66725-6.66725-6.66725 6.66725-6.66725-6.66725-6.66725 6.66725-6.66725 6.66725 6.66725z" style="mix-blend-mode:normal;fill-rule:nonzero;stroke-miterlimit:10;stroke-dasharray:none;stroke-dashoffset:0"/><path fill="#4ba34b" d="M223.33275 70.00002 230 76.66727l-6.66725 6.66725L230 90.00177l-6.66725 6.66725-6.66725-6.66725-6.66725 6.66725-6.66725-6.66725 6.66725-6.66725-6.66725-6.66725 6.66725-6.66725 6.66725 6.66725zM290.00176 70.00002l6.66725 6.66725-6.66725 6.66725 6.66725 6.66725-6.66725 6.66725-6.66725-6.66725-6.66725 6.66725-6.66725-6.66725 6.66725-6.66725-6.66725-6.66725 6.66725-6.66725 6.66725 6.66725zM303.33099 96.66906V70.00005H330v26.66901zM356.67077 70.00002l6.66725 6.66725-6.66725 6.66725 6.66725 6.66725-6.66725 6.66725-6.66725-6.66725-6.66725 6.66725-6.66725-6.66725 6.66725-6.66725-6.66725-6.66725 6.66725-6.66725 6.66725 6.66725z" style="mix-blend-mode:normal;fill-rule:nonzero;stroke-miterlimit:10;stroke-dasharray:none;stroke-dashoffset:0"/><path fill="#65dc65" d="m390.00176 70.00002 6.66725 6.66725-6.66725 6.66725 6.66725 6.66725-6.66725 6.66725-6.66725-6.66725-6.66725 6.66725-6.66725-6.66725 6.66725-6.66725-6.66725-6.66725 6.66725-6.66725 6.66725 6.66725zM436.66901 96.66906V70.00005h26.66901v26.66901z" style="mix-blend-mode:normal;fill-rule:nonzero;stroke-miterlimit:10;stroke-dasharray:none;stroke-dashoffset:0"/><path fill="#4ba34b" d="M523.33275 70.00002 530 76.66727l-6.66725 6.66725L530 90.00177l-6.66725 6.66725-6.66725-6.66725-6.66725 6.66725-6.66725-6.66725 6.66725-6.66725-6.66725-6.66725 6.66725-6.66725 6.66725 6.66725zM556.67077 70.00002l6.66725 6.66725-6.66725 6.66725 6.66725 6.66725-6.66725 6.66725-6.66725-6.66725-6.66725 6.66725-6.66725-6.66725 6.66725-6.66725-6.66725-6.66725 6.66725-6.66725 6.66725 6.66725zM570 96.66906V70.00005h26.66901v26.66901z" style="mix-blend-mode:normal;fill-rule:nonzero;stroke-miterlimit:10;stroke-dasharray:none;stroke-dashoffset:0"/><path fill="#65dc65" d="M3.33099 129.99995v-26.66901H30v26.66901zM36.66901 129.99995v-26.66901h26.66901v26.66901zM70 129.99995v-26.66901h26.66901v26.66901z" style="mix-blend-mode:normal;fill-rule:nonzero;stroke-miterlimit:10;stroke-dasharray:none;stroke-dashoffset:0"/><path fill="#4ba34b" d="m156.67077 103.33104 6.66725 6.66725-6.66725 6.66725 6.66725 6.66725-6.66725 6.66725-6.66725-6.66725-6.66725 6.66725-6.66725-6.66725 6.66725-6.66725-6.66725-6.66725 6.66725-6.66725 6.66725 6.66725z" style="mix-blend-mode:normal;fill-rule:nonzero;stroke-miterlimit:10;stroke-dasharray:none;stroke-dashoffset:0"/><path fill="#65dc65" d="M170 129.99995v-26.66901h26.66901v26.66901zM223.33275 103.33104 230 109.99829l-6.66725 6.66725L230 123.33279l-6.66725 6.66725-6.66725-6.66725-6.66725 6.66725-6.66725-6.66725 6.66725-6.66725-6.66725-6.66725 6.66725-6.66725 6.66725 6.66725zM256.67077 103.33104l6.66725 6.66725-6.66725 6.66725 6.66725 6.66725-6.66725 6.66725-6.66725-6.66725-6.66725 6.66725-6.66725-6.66725 6.66725-6.66725-6.66725-6.66725 6.66725-6.66725 6.66725 6.66725z" style="mix-blend-mode:normal;fill-rule:nonzero;stroke-miterlimit:10;stroke-dasharray:none;stroke-dashoffset:0"/><path fill="#4ba34b" d="M323.33275 103.33104 330 109.99829l-6.66725 6.66725L330 123.33279l-6.66725 6.66725-6.66725-6.66725-6.66725 6.66725-6.66725-6.66725 6.66725-6.66725-6.66725-6.66725 6.66725-6.66725 6.66725 6.66725z" style="mix-blend-mode:normal;fill-rule:nonzero;stroke-miterlimit:10;stroke-dasharray:none;stroke-dashoffset:0"/><path fill="#65dc65" d="m356.67077 103.33104 6.66725 6.66725-6.66725 6.66725 6.66725 6.66725-6.66725 6.66725-6.66725-6.66725-6.66725 6.66725-6.66725-6.66725 6.66725-6.66725-6.66725-6.66725 6.66725-6.66725 6.66725 6.66725z" style="mix-blend-mode:normal;fill-rule:nonzero;stroke-miterlimit:10;stroke-dasharray:none;stroke-dashoffset:0"/><path fill="#4ba34b" d="M370 129.99995v-26.66901h26.66901v26.66901z" style="mix-blend-mode:normal;fill-rule:nonzero;stroke-miterlimit:10;stroke-dasharray:none;stroke-dashoffset:0"/><path fill="#65dc65" d="M403.33099 129.99995v-26.66901H430v26.66901zM456.67077 103.33104l6.66725 6.66725-6.66725 6.66725 6.66725 6.66725-6.66725 6.66725-6.66725-6.66725-6.66725 6.66725-6.66725-6.66725 6.66725-6.66725-6.66725-6.66725 6.66725-6.66725 6.66725 6.66725z" style="mix-blend-mode:normal;fill-rule:nonzero;stroke-miterlimit:10;stroke-dasharray:none;stroke-dashoffset:0"/><path fill="#4ba34b" d="M470 129.99995v-26.66901h26.66901v26.66901zM590.00176 103.33104l6.66725 6.66725-6.66725 6.66725 6.66725 6.66725-6.66725 6.66725-6.66725-6.66725-6.66725 6.66725-6.66725-6.66725 6.66725-6.66725-6.66725-6.66725 6.66725-6.66725 6.66725 6.66725zM3.33099 163.33806v-26.66901H30v26.66901zM36.66901 163.33806v-26.66901h26.66901v26.66901z" style="mix-blend-mode:normal;fill-rule:nonzero;stroke-miterlimit:10;stroke-dasharray:none;stroke-dashoffset:0"/><path fill="#65dc65" d="M123.33275 136.669 130 143.33625l-6.66725 6.66725L130 156.67075l-6.66725 6.66725-6.66725-6.66725-6.66725 6.66725-6.66725-6.66725 6.66725-6.66725-6.66725-6.66725 6.66725-6.66725 6.66725 6.66725z" style="mix-blend-mode:normal;fill-rule:nonzero;stroke-miterlimit:10;stroke-dasharray:none;stroke-dashoffset:0"/><path fill="#4ba34b" d="m156.67077 136.669 6.66725 6.66725-6.66725 6.66725 6.66725 6.66725-6.66725 6.66725-6.66725-6.66725-6.66725 6.66725-6.66725-6.66725 6.66725-6.66725-6.66725-6.66725 6.66725-6.66725 6.66725 6.66725zM223.33275 136.669 230 143.33625l-6.66725 6.66725L230 156.67075l-6.66725 6.66725-6.66725-6.66725-6.66725 6.66725-6.66725-6.66725 6.66725-6.66725-6.66725-6.66725 6.66725-6.66725 6.66725 6.66725z" style="mix-blend-mode:normal;fill-rule:nonzero;stroke-miterlimit:10;stroke-dasharray:none;stroke-dashoffset:0"/><path fill="#65dc65" d="m256.67077 136.669 6.66725 6.66725-6.66725 6.66725 6.66725 6.66725-6.66725 6.66725-6.66725-6.66725-6.66725 6.66725-6.66725-6.66725 6.66725-6.66725-6.66725-6.66725 6.66725-6.66725 6.66725 6.66725zM323.33275 136.669 330 143.33625l-6.66725 6.66725L330 156.67075l-6.66725 6.66725-6.66725-6.66725-6.66725 6.66725-6.66725-6.66725 6.66725-6.66725-6.66725-6.66725 6.66725-6.66725 6.66725 6.66725z" style="mix-blend-mode:normal;fill-rule:nonzero;stroke-miterlimit:10;stroke-dasharray:none;stroke-dashoffset:0"/><path fill="#4ba34b" d="m356.67077 136.669 6.66725 6.66725-6.66725 6.66725 6.66725 6.66725-6.66725 6.66725-6.66725-6.66725-6.66725 6.66725-6.66725-6.66725 6.66725-6.66725-6.66725-6.66725 6.66725-6.66725 6.66725 6.66725z" style="mix-blend-mode:normal;fill-rule:nonzero;stroke-miterlimit:10;stroke-dasharray:none;stroke-dashoffset:0"/><path fill="#65dc65" d="m390.00176 136.669 6.66725 6.66725-6.66725 6.66725 6.66725 6.66725-6.66725 6.66725-6.66725-6.66725-6.66725 6.66725-6.66725-6.66725 6.66725-6.66725-6.66725-6.66725 6.66725-6.66725 6.66725 6.66725z" style="mix-blend-mode:normal;fill-rule:nonzero;stroke-miterlimit:10;stroke-dasharray:none;stroke-dashoffset:0"/><path fill="#4ba34b" d="M403.33099 163.33806v-26.66901H430v26.66901zM470 163.33806v-26.66901h26.66901v26.66901zM590.00176 136.669l6.66725 6.66725-6.66725 6.66725 6.66725 6.66725-6.66725 6.66725-6.66725-6.66725-6.66725 6.66725-6.66725-6.66725 6.66725-6.66725-6.66725-6.66725 6.66725-6.66725 6.66725 6.66725z" style="mix-blend-mode:normal;fill-rule:nonzero;stroke-miterlimit:10;stroke-dasharray:none;stroke-dashoffset:0"/><path fill="#65dc65" d="M23.33275 170.00004 30 176.66729l-6.66725 6.66725L30 190.00179l-6.66725 6.66725-6.66725-6.66725-6.66725 6.66725-6.66725-6.66725 6.66725-6.66725-6.66725-6.66725 6.66725-6.66725 6.66725 6.66725z" style="mix-blend-mode:normal;fill-rule:nonzero;stroke-miterlimit:10;stroke-dasharray:none;stroke-dashoffset:0"/><path fill="#4ba34b" d="M103.33099 196.66907v-26.66901H130v26.66901zM136.66901 196.66907v-26.66901h26.66901v26.66901zM203.33099 196.66907v-26.66901H230v26.66901zM256.67077 170.00004l6.66725 6.66725-6.66725 6.66725 6.66725 6.66725-6.66725 6.66725-6.66725-6.66725-6.66725 6.66725-6.66725-6.66725 6.66725-6.66725-6.66725-6.66725 6.66725-6.66725 6.66725 6.66725z" style="mix-blend-mode:normal;fill-rule:nonzero;stroke-miterlimit:10;stroke-dasharray:none;stroke-dashoffset:0"/><path fill="#65dc65" d="m290.00176 170.00004 6.66725 6.66725-6.66725 6.66725 6.66725 6.66725-6.66725 6.66725-6.66725-6.66725-6.66725 6.66725-6.66725-6.66725 6.66725-6.66725-6.66725-6.66725 6.66725-6.66725 6.66725 6.66725z" style="mix-blend-mode:normal;fill-rule:nonzero;stroke-miterlimit:10;stroke-dasharray:none;stroke-dashoffset:0"/><path fill="#4ba34b" d="M323.33275 170.00004 330 176.66729l-6.66725 6.66725L330 190.00179l-6.66725 6.66725-6.66725-6.66725-6.66725 6.66725-6.66725-6.66725 6.66725-6.66725-6.66725-6.66725 6.66725-6.66725 6.66725 6.66725z" style="mix-blend-mode:normal;fill-rule:nonzero;stroke-miterlimit:10;stroke-dasharray:none;stroke-dashoffset:0"/><path fill="#65dc65" d="M436.66901 196.66907v-26.66901h26.66901v26.66901z" style="mix-blend-mode:normal;fill-rule:nonzero;stroke-miterlimit:10;stroke-dasharray:none;stroke-dashoffset:0"/><path fill="#4ba34b" d="m556.67077 170.00004 6.66725 6.66725-6.66725 6.66725 6.66725 6.66725-6.66725 6.66725-6.66725-6.66725-6.66725 6.66725-6.66725-6.66725 6.66725-6.66725-6.66725-6.66725 6.66725-6.66725 6.66725 6.66725zM36.66901 230.00004v-26.66901h26.66901v26.66901zM90.00176 203.33105l6.66725 6.66725-6.66725 6.66725 6.66725 6.66725-6.66725 6.66725-6.66725-6.66725-6.66725 6.66725-6.66725-6.66725 6.66725-6.66725-6.66725-6.66725 6.66725-6.66725 6.66725 6.66725zM170 230.00004v-26.66901h26.66901v26.66901z" style="mix-blend-mode:normal;fill-rule:nonzero;stroke-miterlimit:10;stroke-dasharray:none;stroke-dashoffset:0"/><path fill="#65dc65" d="M223.33275 203.33105 230 209.9983l-6.66725 6.66725L230 223.3328l-6.66725 6.66725-6.66725-6.66725-6.66725 6.66725-6.66725-6.66725 6.66725-6.66725-6.66725-6.66725 6.66725-6.66725 6.66725 6.66725z" style="mix-blend-mode:normal;fill-rule:nonzero;stroke-miterlimit:10;stroke-dasharray:none;stroke-dashoffset:0"/><path fill="#4ba34b" d="m256.67077 203.33105 6.66725 6.66725-6.66725 6.66725 6.66725 6.66725-6.66725 6.66725-6.66725-6.66725-6.66725 6.66725-6.66725-6.66725 6.66725-6.66725-6.66725-6.66725 6.66725-6.66725 6.66725 6.66725z" style="mix-blend-mode:normal;fill-rule:nonzero;stroke-miterlimit:10;stroke-dasharray:none;stroke-dashoffset:0"/><path fill="#65dc65" d="M270 230.00004v-26.66901h26.66901v26.66901zM323.33275 203.33105 330 209.9983l-6.66725 6.66725L330 223.3328l-6.66725 6.66725-6.66725-6.66725-6.66725 6.66725-6.66725-6.66725 6.66725-6.66725-6.66725-6.66725 6.66725-6.66725 6.66725 6.66725zM423.33275 203.33105 430 209.9983l-6.66725 6.66725L430 223.3328l-6.66725 6.66725-6.66725-6.66725-6.66725 6.66725-6.66725-6.66725 6.66725-6.66725-6.66725-6.66725 6.66725-6.66725 6.66725 6.66725z" style="mix-blend-mode:normal;fill-rule:nonzero;stroke-miterlimit:10;stroke-dasharray:none;stroke-dashoffset:0"/><path fill="#4ba34b" d="m456.67077 203.33105 6.66725 6.66725-6.66725 6.66725 6.66725 6.66725-6.66725 6.66725-6.66725-6.66725-6.66725 6.66725-6.66725-6.66725 6.66725-6.66725-6.66725-6.66725 6.66725-6.66725 6.66725 6.66725z" style="mix-blend-mode:normal;fill-rule:nonzero;stroke-miterlimit:10;stroke-dasharray:none;stroke-dashoffset:0"/><path fill="#65dc65" d="M503.33099 230.00004v-26.66901H530v26.66901zM556.67077 203.33105l6.66725 6.66725-6.66725 6.66725 6.66725 6.66725-6.66725 6.66725-6.66725-6.66725-6.66725 6.66725-6.66725-6.66725 6.66725-6.66725-6.66725-6.66725 6.66725-6.66725 6.66725 6.66725zM70 263.33801V236.669h26.66901v26.66901zM123.33275 236.66907 130 243.33632l-6.66725 6.66725L130 256.67082l-6.66725 6.66725-6.66725-6.66725-6.66725 6.66725-6.66725-6.66725 6.66725-6.66725-6.66725-6.66725 6.66725-6.66725 6.66725 6.66725z" style="mix-blend-mode:normal;fill-rule:nonzero;stroke-miterlimit:10;stroke-dasharray:none;stroke-dashoffset:0"/><path fill="#4ba34b" d="m190.00176 236.66907 6.66725 6.66725-6.66725 6.66725 6.66725 6.66725-6.66725 6.66725-6.66725-6.66725-6.66725 6.66725-6.66725-6.66725 6.66725-6.66725-6.66725-6.66725 6.66725-6.66725 6.66725 6.66725z" style="mix-blend-mode:normal;fill-rule:nonzero;stroke-miterlimit:10;stroke-dasharray:none;stroke-dashoffset:0"/><path fill="#65dc65" d="M223.33275 236.66907 230 243.33632l-6.66725 6.66725L230 256.67082l-6.66725 6.66725-6.66725-6.66725-6.66725 6.66725-6.66725-6.66725 6.66725-6.66725-6.66725-6.66725 6.66725-6.66725 6.66725 6.66725z" style="mix-blend-mode:normal;fill-rule:nonzero;stroke-miterlimit:10;stroke-dasharray:none;stroke-dashoffset:0"/><path fill="#4ba34b" d="M236.66901 263.33801V236.669h26.66901v26.66901zM290.00176 236.66907l6.66725 6.66725-6.66725 6.66725 6.66725 6.66725-6.66725 6.66725-6.66725-6.66725-6.66725 6.66725-6.66725-6.66725 6.66725-6.66725-6.66725-6.66725 6.66725-6.66725 6.66725 6.66725z" style="mix-blend-mode:normal;fill-rule:nonzero;stroke-miterlimit:10;stroke-dasharray:none;stroke-dashoffset:0"/><path fill="#65dc65" d="M323.33275 236.66907 330 243.33632l-6.66725 6.66725L330 256.67082l-6.66725 6.66725-6.66725-6.66725-6.66725 6.66725-6.66725-6.66725 6.66725-6.66725-6.66725-6.66725 6.66725-6.66725 6.66725 6.66725zM356.67077 236.66907l6.66725 6.66725-6.66725 6.66725 6.66725 6.66725-6.66725 6.66725-6.66725-6.66725-6.66725 6.66725-6.66725-6.66725 6.66725-6.66725-6.66725-6.66725 6.66725-6.66725 6.66725 6.66725zM390.00176 236.66907l6.66725 6.66725-6.66725 6.66725 6.66725 6.66725-6.66725 6.66725-6.66725-6.66725-6.66725 6.66725-6.66725-6.66725 6.66725-6.66725-6.66725-6.66725 6.66725-6.66725 6.66725 6.66725zM456.67077 236.66907l6.66725 6.66725-6.66725 6.66725 6.66725 6.66725-6.66725 6.66725-6.66725-6.66725-6.66725 6.66725-6.66725-6.66725 6.66725-6.66725-6.66725-6.66725 6.66725-6.66725 6.66725 6.66725zM523.33275 236.66907 530 243.33632l-6.66725 6.66725L530 256.67082l-6.66725 6.66725-6.66725-6.66725-6.66725 6.66725-6.66725-6.66725 6.66725-6.66725-6.66725-6.66725 6.66725-6.66725 6.66725 6.66725zM556.67077 236.66907l6.66725 6.66725-6.66725 6.66725 6.66725 6.66725-6.66725 6.66725-6.66725-6.66725-6.66725 6.66725-6.66725-6.66725 6.66725-6.66725-6.66725-6.66725 6.66725-6.66725 6.66725 6.66725zM590.00176 236.66907l6.66725 6.66725-6.66725 6.66725 6.66725 6.66725-6.66725 6.66725-6.66725-6.66725-6.66725 6.66725-6.66725-6.66725 6.66725-6.66725-6.66725-6.66725 6.66725-6.66725 6.66725 6.66725zM36.66901 296.66906v-26.66901h26.66901v26.66901z" style="mix-blend-mode:normal;fill-rule:nonzero;stroke-miterlimit:10;stroke-dasharray:none;stroke-dashoffset:0"/><path fill="#4ba34b" d="m90.00176 270 6.66725 6.66725-6.66725 6.66725 6.66725 6.66725-6.66725 6.66725-6.66725-6.66725-6.66725 6.66725-6.66725-6.66725 6.66725-6.66725-6.66725-6.66725L76.66726 270l6.66725 6.66725z" style="mix-blend-mode:normal;fill-rule:nonzero;stroke-miterlimit:10;stroke-dasharray:none;stroke-dashoffset:0"/><path fill="#65dc65" d="M123.33275 270 130 276.66725l-6.66725 6.66725L130 290.00175l-6.66725 6.66725-6.66725-6.66725-6.66725 6.66725-6.66725-6.66725 6.66725-6.66725-6.66725-6.66725L109.99825 270l6.66725 6.66725zM170 296.66906v-26.66901h26.66901v26.66901z" style="mix-blend-mode:normal;fill-rule:nonzero;stroke-miterlimit:10;stroke-dasharray:none;stroke-dashoffset:0"/><path fill="#4ba34b" d="M223.33275 270 230 276.66725l-6.66725 6.66725L230 290.00175l-6.66725 6.66725-6.66725-6.66725-6.66725 6.66725-6.66725-6.66725 6.66725-6.66725-6.66725-6.66725L209.99825 270l6.66725 6.66725zM256.67077 270l6.66725 6.66725-6.66725 6.66725 6.66725 6.66725-6.66725 6.66725-6.66725-6.66725-6.66725 6.66725-6.66725-6.66725 6.66725-6.66725-6.66725-6.66725L243.33627 270l6.66725 6.66725zM303.33099 296.66906v-26.66901H330v26.66901zM423.33275 270 430 276.66725l-6.66725 6.66725L430 290.00175l-6.66725 6.66725-6.66725-6.66725-6.66725 6.66725-6.66725-6.66725 6.66725-6.66725-6.66725-6.66725L409.99825 270l6.66725 6.66725zM470 296.66906v-26.66901h26.66901v26.66901z" style="mix-blend-mode:normal;fill-rule:nonzero;stroke-miterlimit:10;stroke-dasharray:none;stroke-dashoffset:0"/><path fill="#65dc65" d="M523.33275 270 530 276.66725l-6.66725 6.66725L530 290.00175l-6.66725 6.66725-6.66725-6.66725-6.66725 6.66725-6.66725-6.66725 6.66725-6.66725-6.66725-6.66725L509.99825 270l6.66725 6.66725zM536.66901 296.66906v-26.66901h26.66901v26.66901z" style="mix-blend-mode:normal;fill-rule:nonzero;stroke-miterlimit:10;stroke-dasharray:none;stroke-dashoffset:0"/><path fill="#fff" d="M404.25252 47.79018c.18447.18447-.20497 12.54418-1.33231 41.87543-.12298 2.93108-.28696 7.72738-.40994 10.65846-.10249 2.93108-.28696 7.76837-.40994 10.76094-.12298 2.99257-.30746 7.76837-.40995 10.59696-.36895 9.32614-.61491 15.45476-.81988 20.66101-.10249 2.80809-.28696 7.48141-.40994 10.351-.10249 2.86959-.30745 7.52241-.40994 10.351-.12298 2.80809-.30746 7.37893-.40995 10.14603-.28696 7.03048-.57391 14.20444-.81988 20.08709-.12298 2.7671-.30745 7.09197-.40994 9.6336-.10249 2.54163-.24597 5.98513-.30746 7.68638-.0615 1.68075-.16398 3.66897-.22547 4.38637l-.12298 1.29131-12.72865-.12298c-7.00998-.0615-15.10631-.16398-17.9759-.22547-2.86959-.0615-7.48141-.14348-10.24851-.20497-2.7671-.0615-10.69946-.14348-17.62745-.20497-6.92799-.0615-13.71251-.16398-15.06531-.22547-1.3528-.0615-2.58263-.0205-2.72611.082-.20497.14348-.12299.77889.47143 3.13605.94287 3.89444 1.51678 5.96464 1.63976 6.08762.16398.16398 3.4845.26646 15.84421.43044 6.68203.10249 12.21622.24596 12.29821.32795.082.082.18448 4.57084.22547 9.98206l.0615 9.85906-11.49883-.12298c-7.6044-.10249-11.49884-.0615-11.49884.0615 0 .20497 1.16833 4.8373 2.64411 10.49448.34845 1.33231.90187 3.4845 1.25032 4.77581.32795 1.29131.88137 3.423 1.22982 4.71431.34845 1.29131.90187 3.42301 1.22982 4.71432 1.53727 5.92364 1.86523 7.15346 2.56213 9.83857.40994 1.57827.96336 3.75096 1.25032 4.8168 1.04535 3.87394 4.77581 18.81628 5.26774 21.00946.51243 2.25467.53292 3.17704.041 3.58698-.22547.18447-2.99256.61492-4.01742.61492-.20497 0-.38944-.22547-.45093-.55342-.082-.53292-1.12734-4.59134-2.48015-9.73609-.28696-1.10684-.75839-2.89008-1.04535-3.95593-.28696-1.06585-.73789-2.82859-1.02485-3.89444-.28696-1.06585-.7584-2.84909-1.04535-3.93543-.28696-1.10684-.6969-2.70561-.92237-3.54599-.22547-.84038-.6764-2.56212-1.00435-3.79195-.32795-1.25032-.77889-2.97207-1.00436-3.83295-.24597-.88138-.61491-2.29567-.84038-3.13605-.22547-.84038-.59442-2.23418-.81989-3.07456-.22547-.84038-.59442-2.21367-.79939-3.01306-.22547-.81988-.6559-2.41865-.94286-3.54599-3.464-13.15909-4.93978-18.52932-5.10376-18.71379-.10249-.082-4.75531-.26646-15.02432-.57392l-4.75531-.14348-.0615 3.05406-.0615 3.05406-2.11119.0615c-1.57827.041-2.11119-.0205-2.17268-.20497-.041-.14348-.20497-1.51678-.34845-3.03357l-.28696-2.7671-6.45656-.24596c-3.54599-.12298-9.5926-.24597-13.44605-.24597l-6.98949-.0205-1.29131 4.57083c-1.51678 5.34973-3.19753 11.41685-4.71431 16.84856-.59442 2.13169-1.51678 5.45221-2.0497 7.37893-.53292 1.90622-1.45529 5.22673-2.0497 7.37892-.59442 2.13169-1.41429 5.14476-1.84473 6.66154-.40994 1.51678-1.25032 4.50934-1.84473 6.66153-.59442 2.13169-1.41429 5.14475-1.84473 6.66153-.43044 1.51678-1.02485 3.70996-1.3528 4.87829l-.55342 2.09069h-1.92672c-1.66026 0-1.96771-.0615-2.33666-.43044-.61491-.61491-.59442-.71739 1.31181-7.97334.28696-1.06585.86088-3.23853 1.27082-4.8168.40994-1.57827.90187-3.464 1.12734-4.20189.20497-.7379.79939-2.95158 1.33231-4.91929.53292-1.96771 1.22982-4.50934 1.53727-5.63668.30746-1.12734.79939-2.93108 1.08635-3.99692.28696-1.06585 1.00435-3.64847 1.57827-5.73917.57392-2.0907 1.29131-4.67332 1.57827-5.73917.28696-1.06585.79938-2.91058 1.10684-4.0994.32795-1.18883.88138-3.21803 1.22982-4.50934.34845-1.29131.81989-3.01307 1.02485-3.79195 1.27082-4.65282 1.88572-7.27645 1.76274-7.39943-.0615-.082-4.77581-.22546-10.43299-.32795-5.67768-.10249-10.82244-.24596-11.43734-.32795l-1.12734-.14348.0205-3.25903v-3.23854l.55342-.40994.55342-.40994v-12.01127l.7584-.14348c.43044-.082 6.64104-.0615 13.7945.0205l13.03611.14348.24597-.59442c.51243-1.31181 2.41865-8.44478 2.27517-8.56776-.10249-.082-17.19701-.43044-36.36174-.75839-7.5634-.12298-19.04174-.32796-25.5188-.45094l-11.78579-.24596-.14348-3.99692c-.082-2.19318-.24597-7.50191-.36895-11.78579-.12298-4.28388-.30745-10.96591-.40994-14.86034-.10249-3.89444-.28697-10.53548-.40995-14.75786-.12298-4.22238-.30745-11.02741-.40994-15.12681-.12298-4.07891-.28696-10.76094-.40994-14.86034-.10249-4.07891-.28696-11.02741-.40994-15.41377-.12298-4.40686-.30746-11.27336-.40995-15.27028-.10249-3.99692-.28696-11.15039-.40994-15.8852-.12298-4.73481-.30745-11.7038-.40994-15.47526-.10249-3.77145-.26646-11.60132-.32795-17.38148-.12298-8.93671-.10249-10.55597.14348-10.71995.57392-.34845 207.98336-.10248 208.3318.26647zM297.50399 214.59504h-18.32434l-.57392 2.0907c-.30746 1.16833-.88137 3.21803-1.25032 4.55033-.38945 1.3528-.65591 2.48015-.63541 2.52114.10249.082 21.05045.55343 21.11194.45094.041-.041-.0205-2.23418-.14348-4.8578zm11.21188.20496h-6.49756l.16398 1.3733c.082.77889.20497 2.86958.28696 4.67332l.12298 3.27953.81989.14348c.45094.082 3.70996.14348 7.23545.14348 5.45221.0205 6.41557-.0205 6.51805-.28696.0615-.16398-.0205-.81989-.18448-1.47579-.16398-.65591-.6764-2.64411-1.14783-4.40685-.47143-1.78324-.84038-3.27953-.84038-3.34102 0-.0615-2.91057-.10249-6.47706-.10249z" style="mix-blend-mode:normal;fill-rule:nonzero;stroke-miterlimit:10;stroke-dasharray:none;stroke-dashoffset:0"/><path fill="#3e873e" stroke="#fff" stroke-width="6.5" d="M404.25252 45.79018c.18447.18447-.20497 12.54418-1.33231 41.87543-.12298 2.93108-.28696 7.72738-.40994 10.65846-.10249 2.93108-.28696 7.76837-.40994 10.76094-.12298 2.99257-.30746 7.76837-.40995 10.59696-.36895 9.32614-.61491 15.45476-.81988 20.66101-.10249 2.80809-.28696 7.48141-.40994 10.351-.10249 2.86959-.30745 7.52241-.40994 10.351-.12298 2.80809-.30746 7.37893-.40995 10.14603-.28696 7.03048-.57391 14.20444-.81988 20.08709-.12298 2.7671-.30745 7.09197-.40994 9.6336-.10249 2.54163-.24597 5.98513-.30746 7.68638-.0615 1.68075-.16398 3.66897-.22547 4.38637l-.12298 1.29131-12.72865-.12298c-7.00998-.0615-15.10631-.16398-17.9759-.22547-2.86959-.0615-110.68395-1.8448-129.84868-2.17275-7.5634-.12298-19.04174-.32796-25.5188-.45094l-11.78579-.24596-.14348-3.99692c-.082-2.19318-.24597-7.50191-.36895-11.78579-.12298-4.28388-.30745-10.96591-.40994-14.86034-.10249-3.89444-.28697-10.53548-.40995-14.75786-.12298-4.22238-.30745-11.02741-.40994-15.12681-.12298-4.07891-.28696-10.76094-.40994-14.86034-.10249-4.07891-.28696-11.02741-.40994-15.41377-.12298-4.40686-.30746-11.27336-.40995-15.27028-.10249-3.99692-.28696-11.15039-.40994-15.8852-.12298-4.73481-.30745-11.7038-.40994-15.47526-.10249-3.77145-.26646-11.60132-.32795-17.38148-.12298-8.93671-.10249-10.55597.14348-10.71995.57392-.34845 207.98336-.10248 208.3318.26647z" style="mix-blend-mode:normal;fill-rule:nonzero;stroke-miterlimit:10;stroke-dasharray:none;stroke-dashoffset:0"/><path fill="#fff" d="m456.08646 145.67268 26.58652 5.23386.0708.10555c.0405.0603.055.14168.0342.203-.0225.0697-9.40568 6.38593-31.9718 21.52346-26.28609 17.63657-31.95615 21.42187-32.04852 21.40367-.0588-.0116-.13614-.0617-.16482-.11535-.0531-.0846.26034-1.69772 5.20327-26.71904l5.25556-26.63022.12978-.10528c.0678-.0564.17005-.11043.21955-.11813.0545-.0111 12.06169 2.33721 26.68552 5.21848zm-9.28138 8.76567c-7.26362-1.43112-9.42839-1.84455-9.47363-1.81421-.0452.0303-.48385 2.19016-1.91663 9.46217l-1.85549 9.41751.16622.0197c.15784.018.64871-.30398 11.32287-7.4388 6.41389-4.28428 11.17752-7.49797 11.2017-7.55427.0276-.0513.029-.12513.006-.16451-.0354-.0637-1.1716-.29626-9.45129-1.92757z" style="mix-blend-mode:normal;fill-rule:nonzero;stroke-miterlimit:10;stroke-dasharray:none;stroke-dashoffset:0"/><path fill="#fff" stroke="#fff" stroke-width=".5" d="M134.76407 137.31514c.77975-.20858.97975-.23259 1.19331-.13244l.26678.11541 1.09858 3.92317 1.09613 3.914.40783.56917.40111.5808 1.353-.0867c.73399-.0489 1.61114-.0771 1.93841-.0663l.59458.0179.58455 2.07503c.33309 1.20845.61207 2.06767.66711 2.05294.11926-.0319.0954-.0845 2.7792 6.67817 5.56077 14.06346 6.02719 15.25591 6.65322 17.19205.35196 1.09527.64993 1.98872.66401 2.00462.0208.004 1.64025-.40927 3.61501-.92767l3.58013-.94783.24191-.41859c.30238-.52323.60938-.62501 1.06775-.34459.46083.28958.79591.91754.81109 1.56225.0209.99705-.51205 1.50333-1.24329 1.15829l-.32738-.15818-3.54525.968c-1.95396.52267-3.54951.98879-3.5605 1.02122-.0177.044.44403 1.51299 1.01427 3.27729.57941 1.76184 2.08103 6.38326 3.33555 10.26471 2.44589 7.56355 4.81636 14.88187 7.03597 21.70972.76153 2.33241 2.28522 7.03639 3.38463 10.44819 3.19024 9.83175 3.46432 10.67262 3.52491 10.71539.0324.011.63543-.16014 1.33197-.38578l1.26467-.41693.20227.53569c.41436 1.10807 1.95834 5.92459 1.92473 5.98272-.0269.0465-1.82659.70485-2.45466.89252-.0826.0221-.0653.23372.0648.71992.17423.65132.17486.69047-.0178.742-.34859.0932-.58763.26532-.52149.36559.0355.0593.41991 1.16557.86746 2.47119l.79215 2.37337-.43335 1.24635c-.23315.67182-.44987 1.22129-.4823 1.21031-.049-.0361-2.13338-6.06453-2.28061-6.61494l-.081-.30273-.49472.17166c-.26784.10113-.49964.15331-.50455.13496-.007-.0275-1.05746-2.96101-2.33192-6.51275-1.27691-3.56091-3.71487-10.35984-5.42151-15.12301-1.70664-4.76317-4.40331-12.30879-6.01063-16.77414-1.59814-4.4678-4.31134-12.03849-6.02289-16.82001-1.714-4.79069-3.14475-8.74296-3.17782-8.7931-.0472-.066-.41473-.007-1.08685.16294l-1.01826.27238.58776 2.27077.57858 2.27322-1.14669.30674-1.14669.30673-.63117-2.24932-.62445-2.26095-1.28184.35271-1.27512.34108.0425.34252c.0216.19083.0984.66178.17147 1.04525.14063.70945 1.58363 8.63957 2.51863 13.82541.27646 1.54799.79245 4.35894 1.13218 6.25371.35136 1.90149.911 4.98583 1.24828 6.87142.34645 1.88314.90363 4.95831 1.24091 6.84391.34645 1.88314.90364 4.9583 1.24091 6.8439.34645 1.88314.90363 4.95831 1.24091 6.84391.34645 1.88314.90363 4.95831 1.2409 6.84391.34645 1.88314.90609 4.96748 1.24828 6.87142.34891 1.89231.66591 3.66537.70955 3.93876l.0726.49175-.35777.0957c-.3119.0834-.3504.12322-.33738.35566.0334.49239 1.00693 8.02711 1.07319 8.27479.0344.12843.0289.21835-.008.18902-.0349-.0202-.60033-1.91353-1.26212-4.20381-.65016-2.28357-1.2156-4.17693-1.24131-4.19955-.0324-.011-.33825.0217-.68749.0758l-.62935.10937-.15161-.67703-.15407-.6862-.37676.0615c-.20918.0265-.81773.1401-1.35715.2549-.5327.10317-.99203.18672-1.00365.18-.0349-.0202-1.42491-6.68656-1.4072-6.73061.007-.0116.60364-.13198 1.31982-.28423.70945-.14062 1.31064-.28178 1.3308-.31666.0134-.0233-.36053-1.89903-.84919-4.16682-.47704-2.26107-1.0486-4.94903-1.26348-5.97284-.22405-1.02135-1.44453-6.75994-2.71964-12.7395-1.27757-5.98872-2.49495-11.67899-2.69511-12.64776-1.57044-7.41436-4.63877-21.75134-4.72956-22.09075l-.11288-.42198-3.93789 1.04354-3.93789 1.04353-.14964.28578c-.15636.2974-.52693.45551-.883.37382-.33772-.0866-.74491-.61662-.89705-1.18538-.16441-.61462-.11462-1.08995.15364-1.44678.28842-.39171.59179-.43354 1.03182-.14821l.38861.24009 3.93053-1.07106 3.92808-1.08023-.46657-2.18523c-.25233-1.20056-.67999-3.68127-.94932-5.49657-.27178-1.82448-.70223-4.75661-.95928-6.52604-.25706-1.76943-.74651-5.06915-1.07612-7.33033-.33879-2.25872-.66595-4.51073-.73606-4.99331l-.12484-.87096.3119-.0834.3119-.0834-.53868-2.0873-.52951-2.08975.50624-.31235c.27819-.17272 1.05227-.58621 1.72182-.91276l1.21314-.60958.0874-.8491.0874-.8491-1.00363-3.75197c-.98955-3.73608-.99692-3.7636-.85154-4.02857.13194-.24172.21877-.2846 1.08108-.51527zm6.32992 32.59356c-.28321.007-.315.0351-.30262.2284.0566 1.20377 1.09131 7.97504 1.36859 9.01165l.081.30272 1.19256-.319 1.19256-.31901-.62574-2.33925-.62573-2.33925 1.19256-.319 1.19256-.31901.62573 2.33925.62574 2.33925.96322-.25766c.53206-.14232.95341-.29434.94114-.34022-.1546-.57793-1.7286-4.69832-2.45725-6.43007-.51784-1.23767-.95172-2.27171-.95908-2.29923-.007-.0275-.92962.19952-2.04879.49889-1.12834.30183-2.19066.5565-2.35643.56152z" style="mix-blend-mode:normal;fill-rule:nonzero;stroke-miterlimit:10;stroke-dasharray:none;stroke-dashoffset:0"/><g style="mix-blend-mode:normal;fill-rule:nonzero;stroke-miterlimit:10;stroke-dasharray:none;stroke-dashoffset:0"><path fill="none" stroke="#fff" stroke-linecap="round" stroke-linejoin="round" stroke-width="2.5" d="M368.01017 133.36546H227.82624M227.82624 189.075V72.39353"/></g><path fill="#fff" stroke="#fff" stroke-width=".25" d="M334.30958 194.2411c-.47579.47579-.95158 0-.95158 0l.15634-.034c-.24586-.0357-.4917-.0714-.73755-.10708-1.25191.002-5.15241.20683-5.21983-1.74678-.0661-1.91397 4.30282-.92858 3.84758-3.07532-.24584-1.1593-2.52373.89296-2.74723 1.0792 0 0-.51691.43076-.94768-.0862-.43076-.51691.0861-.94768.0861-.94768 1.13585-.94654 3.98882-3.07944 4.87862-.49083.61125 1.77824-.7244 2.61136-2.09171 3.09962-.15098.0539-.5449.30937-.92306.47843.0377.005.0719.009.10093.0133 1.12772.15052 1.97244.33188 3.11162.33381.27749.0391.55498.0781.83247.11721l.60492.4146s.47579.4758 0 .95158z" style="mix-blend-mode:normal;fill-rule:nonzero;stroke-miterlimit:10;stroke-dasharray:none;stroke-dashoffset:0"/><path fill="#fff" d="M274.86508 186.78394c.98058-.19611 1.1767.78446 1.1767.78446l-.17373.26123c1.503 1.35676 3.0806 1.05093 3.37375-1.06828.26807-1.93788.34419-3.74883.64667-5.61228-.0366.0139-.0737.027-.11125.0393-3.25611 1.06891-4.19336-2.59529-4.21602-4.92388 0 0 0-1 1-1s1 1 1 1c-.004.3355-.0635.67479-.0129 1.00648.67243 4.41213 2.83206.11354 3.53856-1.74314l.15193-.91152c.0716-.48201.48716-.85182.9891-.85182.55228 0 1 .44771 1 1v1.33333h-.0254c.006.0493.0111.0988.0143.1487.11334 1.75522-1.33421 4.25202-1.6744 6.04456-.61368 3.23357.1803 10.50413-5.71268 8.05738-.4875-.20241-.82799-.65494-1.24199-.98241l-.50707-1.40544s-.19611-.98058.78447-1.17669zM295.22786 179.09785c0 1-1 1-1 1h-.66667c-1.23082-.001-2.43639-.16827-3.66667-.16666 0 0-1 0-1-1s1-1 1-1c1.23082.001 2.43639.16827 3.66667.16666h.66667s1 0 1 1zM295.22786 182.43119c0 1-1 1-1 1h-4.66667s-1 0-1-1 1-1 1-1h4.66667s1 0 1 1zM341.22658 191.15255c-.5547.83205-1.38675.27735-1.38675.27735l-1-.66666c-5.17309-3.51439-3.26694-10.41674.51426-14.20583 0 0 .70711-.70711 1.41421 0 .70711.70711 0 1.41422 0 1.41422-2.83575 2.82937-4.95014 8.44034-.81907 11.12751l1 .66666s.83205.5547.27735 1.38675zM351.28256 188.9299c-.83205.5547-1.38675-.27735-1.38675-.27735l-.48768-.8903c-.16152-1.05236-.70348-2.20445-1.44245-3.27594-1.35591 1.46445-2.68978 2.95216-4.2798 4.22575 0 0-.78087.62469-1.40556-.15618s.15617-1.40556.15617-1.40556c1.58777-1.26857 2.91814-2.75224 4.27101-4.21464-.878-.92774-1.85636-1.68842-2.76019-2.11007 0 0-.89443-.44721-.44722-1.34164.44722-.89443 1.34165-.44721 1.34165-.44721 1.1014.57736 2.22073 1.43966 3.21881 2.47034.60486-.6156 1.23118-1.21265 1.90162-1.77202.0984-.28612.33981-.63723.93235-.63723 1 0 1 1 1 1l-.3753.94754c-.77238.61784-1.48479 1.2879-2.16965 1.98253 1.01279 1.37252 1.76653 2.90523 2.03135 4.40553l.17899.1097s.5547.83205-.27735 1.38675zM353.10317 190.87872c-.78087-.6247-.15617-1.40556-.15617-1.40556l.74043-.91575c2.76511-2.21209 2.05621-7.76561-.33333-10.08578 0 0-.70711-.70711 0-1.41422s1.41421 0 1.41421 0c3.02525 3.09411 3.98904 9.98965.33333 12.91422l-.5929.75092s-.6247.78087-1.40557.15617zM304.0612 187.76452c-1 0-1-1-1-1l.0513-.18377c-1.22933-3.82302-.55131-9.14203-.55131-13.14956 0 0 0-1 1-1s1 1 1 1c0 3.70746-.77479 9.01607.44869 12.5171l.0513.81623s0 1-1 1zM311.96353 183.06191c-.35482-.53253-.95773-1.32749-1.30729-1.16558-.78481.36351-1.41028 2.18397-.80811 2.91782 1.30929 1.5956 1.83915-.92349 2.09772-1.69919zm1.80258-.86519c.19765.17353.27036.39217.28906.585.0389.19034.0336.42147-.10541.64605l-.10654.31964c-.47107 1.41321-.64544 2.91764-2.35364 3.48226-1.88115.62178-3.49227-1.23668-3.75205-2.82645-.37437-2.29109 1.46943-5.24043 4.06471-4.21848.89961.35424 1.44351 1.26778 1.96388 2.01198zM317.5783 188.64917c.94869-.31623 1.26491.63245 1.26491.63245l-.15732.0354c3.23095 2.67838 3.47657-.22546 3.41712-3.22481-1.14459.60933-2.50724.48909-3.67095-1.05543-2.73526-3.63037 1.19588-6.51603 4.61203-5.38758 0 0 .12885.0429.27575.14467.0773-.0192.15814-.0293.24136-.0293.55228 0 1 .44771 1 1v1.16667c-.005.46365-.0941.93974-.25034 1.40067-.009.77518-.24906 1.67951-.24966 2.43266-.001 1.54371.60068 3.40131-.29307 4.81997-1.50389 2.38714-4.40765 1.79436-6.33162.29423l-.49066-.96464s-.31623-.94868.63245-1.26491zm4.46505-4.72363c-.0159-.93973.0115-1.7271.19418-2.13305.0193-.0428.0395-.0851.0606-.12695l-.0317-.009.0419-.14653c-.31835-.11282-1.25175-.43928-1.46076-.41926-2.66709.2555-.36711 4.71018 1.1959 2.83487zM234.48812 83.98154c.92847-.37139 1.29986.55709 1.29986.55709l.34329.88147c.44907.65344.95618.86042 1.74555.96604.87139-1.07321 1.02337-2.46237 1.10146-3.89589-.82023.30166-1.59627.36021-2.15277-.0069-.75336-.49696-1.39565-3.51341-1.55241-4.40895 0 0-.1644-.9864.822-1.1508.98639-.1644 1.15079.822 1.15079.822.18052 1.15727 1.03206 2.07464.8476 3.19106-.0474.28665.35355-.472.58844-.643.0533-.03879.23935-.17767.49588-.36871.101-.63437.26722-1.24405.56013-1.8032.65942-1.25879 1.8251-3.57473 3.60084-1.08807.37932.53118.0411 1.34065-.1976 1.94817-.21217.54001-.81006 1.2536-1.57551 1.91363-.40186 2.75582-1.35458 5.87296-2.92348 7.33839-1.9925.07008-3.01264-.23951-4.25445-1.83396l-.45671-1.11853s-.37139-.92848.55709-1.29987zM360.69156 119.15532c.5547.83205-.27735 1.38675-.27735 1.38675l-.3547.16795c-.49849.66141-1.02425 1.32425-1.56874 1.98123.27818 1.10376.4645 2.27496 1.36874 2.81877l.8 1s.6.8-.2 1.4c-.8.6-1.4-.2-1.4-.2l-.4-.6c-1.01653-.8424-1.26181-1.82083-1.5434-2.81608-.89853 1.01355-1.82622 1.99753-2.74949 2.92319 0 0-.70711.7071-1.41421 0-.70711-.7071 0-1.41421 0-1.41421 1.10528-1.10214 2.22346-2.2977 3.28265-3.52829-.003-.005-.007-.009-.0104-.0141-.61174-.8274-1.37923-1.53306-1.9789-2.36925 0 0-.58124-.81374.2325-1.39498.81374-.58124 1.39497.2325 1.39497.2325.49803.70032 1.13659 1.29364 1.6744 1.96284.31358-.39346.61829-.78794.91187-1.1816l.8453-.63205s.83205-.5547 1.38675.27735z" style="mix-blend-mode:normal;fill-rule:nonzero;stroke-miterlimit:10;stroke-dasharray:none;stroke-dashoffset:0"/><g fill="none" style="mix-blend-mode:normal;fill-rule:nonzero;stroke-miterlimit:10;stroke-dasharray:none;stroke-dashoffset:0"><path stroke="#fff" stroke-linecap="square" stroke-linejoin="round" stroke-width="2.5" d="M227.85675 188.64379c-.1592 2.62082.25371-3.11703.32803-3.87272.68482-6.96364 2.233-18.70166 2.233-18.70166l1.03052-6.28038.90551-4.48361.90551-3.66338.90552-3.09735.90551-2.68305.90552-2.36661.90551-2.11701.90551-1.91507.90552-1.74832.90551-1.6083 1.81103-2.87532 1.81103-2.5149 1.81103-2.23485 1.81103-2.01098 1.81103-1.82789 1.81102-1.67539 1.81103-1.54637 1.81103-1.43583 2.71654-1.97795 2.71654-1.80058 2.71654-1.65241 2.71654-1.52678 2.71654-1.41892 3.62206-1.74832 3.62206-1.6083 3.62205-1.48905 3.62206-1.38628 4.52756-1.6083 4.52756-1.48905 4.52756-1.38628 5.43308-1.54637 5.43308-1.43583 6.3386-1.55492 6.33859-1.44319 7.24411-1.53163 7.24411-1.42311 8.14962-1.48905 9.05513-1.53456 9.05513-1.42563 2.71654-.40868"/><path stroke="#fff" stroke-linecap="round" stroke-linejoin="round" stroke-width="2.5" d="M368.01017 133.36543h-5.26241"/></g><path fill="#fff" d="M231.1875 78.26312c-.5622 0-.81374-.91876-.81374-.91876-.90053-1.2798-1.38057-2.7338-2.08069-4.13402-.11441-.22882-.3011-.56248-.41043-.86702-.35802.49953-.90169 1.12256-1.18589 1.4456-.98803 1.12308-1.46124 2.53701-2.5 3.75 0 0-.65079.75925-1.41004.10846s-.10846-1.41004-.10846-1.41004c1.49775-1.74569 2.16288-4.03553 4.02553-5.52866.51276-.41104 1.0241-1.19331 1.66628-1.05374.67701.14714.84697 1.09875 1.2218 1.68141.98355 1.52886 1.34565 3.38441 2.40938 4.84555l.18626 1.08124s0 1-1 1zM364.94309 139.81866c-.95225-.46706-.47612-1.40117-.47612-1.40117l.55599-1.08817c.90426-1.39577 2.37662-3.02165 3.84241-3.9103.10242-.0621.25163-.11993.41934-.1673-.22451-.16781-.38878-.32746-.39646-.33338-1.2808-.99007-2.08596-2.21876-3.67263-2.70344 0 0-1.01002-.33025-.67334-1.32103.33668-.99078 1.34669-.66052 1.34669-.66052 1.78695.6121 3.95895 2.26678 5.24807 3.69663.54699.6067 1.53143 1.17302 1.43881 1.97785-.077.66951-1.1706.70806-1.78302 1.0131-1.53756.76587-2.9927 1.95156-3.91271 3.43011l-.50866 1.00056s-.47613.93411-1.42838.46705zM362.66301 91.59214c-.0598.29245-.26592.79598-.97551.79598-1 0-1-1-1-1l.152-.655c.6007-.959 1.05664-1.94755 1.59133-2.94186.20415-.37963 1.05327-.74286.7525-1.05163-.37932-.3894-2.78281-.91353-3.48126-.98262 0 0-.99388-.11043-.88345-1.10431.11043-.99389 1.10431-.88346 1.10431-.88346 1.00885.12149 4.52154.94111 5.01874 2.01738.67232 1.45532-1.40749 4.4494-2.27866 5.80553zM255.375 136.92562c-1 0-1-1-1-1v-.75c0-1.45655-.0658-2.82088.27985-4.24254 0 0 .24254-.97014 1.21268-.72761.97014.24254.72761 1.21268.72761 1.21268-.32114 1.24096-.22015 2.47862-.22015 3.75746v.75s0 1-1 1zM277.625 137.67562c-1 0-1-1-1-1v-.5c.0127-1.89951.75-3.3384.75-5.25 0 0 0-1 1-1s1 1 1 1c0 1.91145-.76566 3.41502-.75 5.25v.5s0 1-1 1zM298.875 136.67562c-1 0-1-1-1-1v-1c.0335-1.53836.5-2.6595.5-4.25 0 0 0-1 1-1s1 1 1 1c0 1.51417-.54839 2.85672-.5 4.25v1s0 1-1 1zM320.875 136.67562c-1 0-1-1-1-1v-4.5s0-1 1-1 1 1 1 1v4.5s0 1-1 1zM344.375 136.67562c-1 0-1-1-1-1v-5.5s0-1 1-1 1 1 1 1v5.5s0 1-1 1zM231.375 147.92562c0 1-1 1-1 1l-1.12219-.007c-1.29524-.32381-2.54586-.24251-3.87781-.24251 0 0-1 0-1-1s1-1 1-1c1.40587 0 2.75261-.0849 4.12219.25749l.87781-.007s1 0 1 1zM229.67144 118.43474c.14815-.14808.37034-.25912.70356-.25912 1 0 1 1 1 1l-1 1.25c-1.7631 0-3.52418.13789-5.24254-.27985 0 0-.97015-.24253-.72761-1.21268.24254-.97015 1.21268-.72761 1.21268-.72761 1.30518.33776 2.69461.2597 4.0539.22926zM231.125 96.17562c0 1-1 1-1 1h-.75c-1.35977-.0091-2.62647-.25-4-.25 0 0-1 0-1-1s1-1 1-1c1.36554 0 2.65872.26145 4 .25h.75s1 0 1 1z" style="mix-blend-mode:normal;fill-rule:nonzero;stroke-miterlimit:10;stroke-dasharray:none;stroke-dashoffset:0"/></svg>