<svg xmlns="http://www.w3.org/2000/svg" width="600" height="300"><path fill="#146600" d="M0 300V0h600v300z" style="fill-rule:nonzero;stroke-linecap:butt;stroke-linejoin:miter;stroke-miterlimit:10;stroke-dasharray:none;stroke-dashoffset:0"/><path fill="#198000" d="M300 384.77015c-61.4-1.49-120.73-25.7-162.59-70.68-40.49-43.52-58.85-103.33-54.53-162.59 4.04-55.320001 39.13-99.650001 76.7-140.420001 39.85-43.21 81.91-89.42 140.42-95.1 62.93-6.08 124.2 21.97 170.58 64.94 48.28 44.75 83.57 104.76 83.57 170.580001 0 65.82-35.02 126.14-83.5 170.65-46.41 42.6-107.68 64.15-170.65 62.62" style="fill-rule:nonzero;stroke:none;stroke-width:1;stroke-linecap:butt;stroke-linejoin:miter;stroke-miterlimit:10;stroke-dasharray:none;stroke-dashoffset:0" transform="translate(-6.2879363 -2.9640858) scale(1.0197606)"/><path fill="#1c8c00" d="M300 302.44015c-39.73-.97-78.12-16.63-105.2-45.74-26.21-28.16-38.09-66.85-35.29-105.2 2.62-35.79 25.32-64.480001 49.63-90.860001 25.78-27.96 53-57.8599996 90.86-61.5299996 40.72-3.94 80.37 14.2099996 110.37 42.0199996 31.24 28.95 54.08 67.780001 54.08 110.370001s-22.66 81.62-54.03 110.42c-30.03 27.56-69.68 41.51-110.42 40.52" style="fill-rule:nonzero;stroke:none;stroke-width:1;stroke-linecap:butt;stroke-linejoin:miter;stroke-miterlimit:10;stroke-dasharray:none;stroke-dashoffset:0" transform="translate(-6.2879363 -2.9640858) scale(1.0197606)"/><path fill="#1f9900" d="M300 220.11015c-18.06-.44-35.51-7.56-47.82-20.79-11.91-12.8-17.31-30.39-16.04-47.82 1.19-16.27 11.51-29.31 22.56-41.3 11.72-12.710001 24.09-26.300001 41.3-27.970001 18.51-1.79 36.53 6.46 50.17 19.100001 14.2 13.16 24.58 30.81 24.58 50.17 0 19.36-10.3 37.1-24.56 50.19-13.65 12.53-31.67 18.87-50.19 18.42" style="fill-rule:nonzero;stroke:none;stroke-width:1;stroke-linecap:butt;stroke-linejoin:miter;stroke-miterlimit:10;stroke-dasharray:none;stroke-dashoffset:0" transform="translate(-6.2879363 -2.9640858) scale(1.0197606)"/><path d="m327.59427 108.38694-6.65365 6.81337-17.03208-15.810601 24.84881-25.18337c13.68129-13.68129 35.85628-13.68129 49.52626 0l16.50876 16.50876c13.68129 13.669971 13.68129 35.844971 0 49.526261l-49.52626 49.52626c-13.68129 13.67545-35.84497 13.67545-49.52626 0l-16.50875-16.50875-16.37106-17.08454 15.8405-16.06004 33.54808 33.14458c4.54913 4.54913 11.95964 4.54913 16.50876 0l49.52626-49.52626c4.56043-4.56043 4.56043-11.95964 0-16.50876l-16.50875-16.508751c-4.54913-4.54911-11.94832-4.56043-16.50876 0l-17.67185 17.671851z" data-paper-data="{&quot;index&quot;:null}" style="fill:#fff;fill-rule:nonzero;stroke:#000;stroke-width:0;stroke-linecap:butt;stroke-linejoin:miter;stroke-miterlimit:10;stroke-dasharray:none;stroke-dashoffset:0" transform="translate(-6.2879363 -2.9640858) scale(1.0197606)"/><path d="m272.40573 194.61336 6.65365-6.81337 17.03208 15.8106-24.84881 25.18337c-13.68129 13.68129-35.85628 13.68129-49.52626 0l-16.50876-16.50876c-13.68129-13.66997-13.68129-35.84497 0-49.52625l49.52626-49.52626c13.68129-13.675451 35.84497-13.675451 49.52626 0l16.50875 16.50875 16.37106 17.08454-15.84051 16.06004-33.54806-33.14458c-4.54913-4.54913-11.95964-4.54913-16.50876 0l-49.52626 49.52626c-4.56043 4.56043-4.56043 11.95964 0 16.50876l16.50875 16.50875c4.54913 4.54911 11.94832 4.56043 16.50876 0z" data-paper-data="{&quot;index&quot;:null}" style="fill:#fff;fill-rule:nonzero;stroke:#000;stroke-width:0;stroke-linecap:butt;stroke-linejoin:miter;stroke-miterlimit:10;stroke-dasharray:none;stroke-dashoffset:0" transform="translate(-6.2879363 -2.9640858) scale(1.0197606)"/></svg>