<svg xmlns="http://www.w3.org/2000/svg" xmlns:xlink="http://www.w3.org/1999/xlink" version="1.1" width="600" height="300" viewBox="0 0 600 300" xml:space="preserve">
<desc>Created with Fabric.js 3.5.0</desc>
<defs>
</defs>
<rect x="0" y="0" width="100%" height="100%" fill="#ff0000"/>
<g transform="matrix(26.6319 0 0 8.1201 299.5001 207.5608)" id="578485">
<rect style="stroke: none; stroke-width: 0; stroke-dasharray: none; stroke-linecap: butt; stroke-dashoffset: 0; stroke-linejoin: miter; stroke-miterlimit: 4; is-custom-font: none; font-file-url: none; fill: rgb(24,24,24); fill-rule: nonzero; opacity: 1;" vector-effect="non-scaling-stroke" x="-8" y="-8" rx="0" ry="0" width="16" height="16"/>
</g>
<g transform="matrix(1 0 0 1 300 81.4503)" style="" id="994654">
		
<path xml:space="preserve" font-family="Lato" font-size="60" font-style="normal" font-weight="bold" style="stroke: none; stroke-width: 0; stroke-dasharray: none; stroke-linecap: butt; stroke-dashoffset: 0; stroke-linejoin: miter; stroke-miterlimit: 4; is-custom-font: none; font-file-url: none; fill: rgb(255,255,255); fill-rule: nonzero; opacity: 1; white-space: pre;" d="M-203.87 8.62L-203.87 8.62Q-203.20 8.62-202.72 9.13L-202.72 9.13L-199.55 12.58Q-202.19 15.85-206.04 17.59Q-209.90 19.33-215.29 19.33L-215.29 19.33Q-220.13 19.33-223.98 17.68Q-227.84 16.03-230.56 13.09Q-233.29 10.15-234.75 6.07Q-236.20 1.99-236.20-2.84L-236.20-2.84Q-236.20-7.73-234.59-11.80Q-232.97-15.86-230.03-18.80Q-227.09-21.74-222.99-23.38Q-218.90-25.01-213.94-25.01L-213.94-25.01Q-209.12-25.01-205.50-23.47Q-201.88-21.92-199.31-19.37L-199.31-19.37L-202.00-15.62Q-202.25-15.26-202.62-14.99Q-203.00-14.72-203.66-14.72L-203.66-14.72Q-204.34-14.72-205.06-15.26Q-205.78-15.80-206.90-16.43Q-208.00-17.06-209.70-17.60Q-211.40-18.14-214.00-18.14L-214.00-18.14Q-217.06-18.14-219.63-17.08Q-222.19-16.01-224.04-14.03Q-225.88-12.05-226.92-9.22Q-227.95-6.38-227.95-2.84L-227.95-2.84Q-227.95 0.82-226.92 3.67Q-225.88 6.52-224.12 8.47Q-222.34 10.42-219.94 11.45Q-217.54 12.49-214.78 12.49L-214.78 12.49Q-213.13 12.49-211.80 12.31Q-210.47 12.13-209.34 11.74Q-208.22 11.35-207.21 10.73Q-206.20 10.12-205.22 9.22L-205.22 9.22Q-204.91 8.95-204.59 8.78Q-204.25 8.62-203.87 8.62ZM-185.39-24.53L-185.39 12.19L-168.02 12.19L-168.02 18.85L-193.46 18.85L-193.46-24.53L-185.39-24.53ZM-123.23-2.84L-123.23-2.84Q-123.23 1.93-124.81 5.99Q-126.41 10.06-129.28 13.03Q-132.17 16.00-136.22 17.66Q-140.27 19.33-145.19 19.33L-145.19 19.33Q-150.11 19.33-154.17 17.66Q-158.24 16.00-161.13 13.03Q-164.03 10.06-165.62 5.99Q-167.21 1.93-167.21-2.84L-167.21-2.84Q-167.21-7.61-165.62-11.68Q-164.03-15.74-161.13-18.71Q-158.24-21.68-154.17-23.35Q-150.11-25.01-145.19-25.01L-145.19-25.01Q-140.27-25.01-136.22-23.33Q-132.17-21.65-129.28-18.70Q-126.41-15.74-124.81-11.68Q-123.23-7.61-123.23-2.84ZM-131.50-2.84L-131.50-2.84Q-131.50-6.41-132.45-9.25Q-133.40-12.08-135.17-14.06Q-136.94-16.04-139.47-17.09Q-142.00-18.14-145.19-18.14L-145.19-18.14Q-148.37-18.14-150.91-17.09Q-153.47-16.04-155.25-14.06Q-157.03-12.08-158.00-9.25Q-158.96-6.41-158.96-2.84L-158.96-2.84Q-158.96 0.73-158.00 3.56Q-157.03 6.40-155.25 8.36Q-153.47 10.33-150.91 11.38Q-148.37 12.43-145.19 12.43L-145.19 12.43Q-142.00 12.43-139.47 11.38Q-136.94 10.33-135.17 8.36Q-133.40 6.40-132.45 3.56Q-131.50 0.73-131.50-2.84ZM-91.64-20.45L-93.62-16.64Q-93.95-15.98-94.38-15.71Q-94.81-15.44-95.42-15.44L-95.42-15.44Q-96.02-15.44-96.77-15.91Q-97.52-16.37-98.53-16.94Q-99.56-17.51-100.92-17.98Q-102.28-18.44-104.15-18.44L-104.15-18.44Q-105.83-18.44-107.07-18.04Q-108.31-17.63-109.17-16.91Q-110.03-16.19-110.45-15.19Q-110.87-14.18-110.87-12.98L-110.87-12.98Q-110.87-11.45-110.01-10.43Q-109.16-9.41-107.75-8.69Q-106.34-7.97-104.53-7.40Q-102.74-6.83-100.86-6.19Q-98.99-5.54-97.19-4.69Q-95.39-3.83-93.98-2.53Q-92.56-1.22-91.71 0.67Q-90.86 2.56-90.86 5.26L-90.86 5.26Q-90.86 8.20-91.86 10.76Q-92.87 13.33-94.80 15.23Q-96.74 17.14-99.53 18.23Q-102.31 19.33-105.92 19.33L-105.92 19.33Q-107.98 19.33-110.00 18.92Q-112.01 18.52-113.85 17.77Q-115.70 17.02-117.30 15.97Q-118.91 14.92-120.17 13.63L-120.17 13.63L-117.83 9.76Q-117.50 9.34-117.03 9.05Q-116.56 8.77-116.00 8.77L-116.00 8.77Q-115.25 8.77-114.38 9.38Q-113.51 10.00-112.32 10.75Q-111.14 11.50-109.53 12.11Q-107.93 12.73-105.68 12.73L-105.68 12.73Q-102.23 12.73-100.34 11.09Q-98.45 9.46-98.45 6.40L-98.45 6.40Q-98.45 4.69-99.30 3.61Q-100.16 2.53-101.56 1.79Q-102.98 1.06-104.78 0.55Q-106.58 0.04-108.44-0.56Q-110.30-1.16-112.09-2.00Q-113.90-2.84-115.31-4.19Q-116.72-5.54-117.57-7.57Q-118.43-9.59-118.43-12.56L-118.43-12.56Q-118.43-14.93-117.48-17.18Q-116.54-19.43-114.72-21.17Q-112.91-22.91-110.27-23.96Q-107.63-25.01-104.24-25.01L-104.24-25.01Q-100.40-25.01-97.16-23.81Q-93.92-22.61-91.64-20.45L-91.64-20.45ZM-84.68-24.53L-57.32-24.53L-57.32-18.11L-76.55-18.11L-76.55-6.08L-61.40-6.08L-61.40 0.13L-76.55 0.13L-76.55 12.40L-57.32 12.40L-57.32 18.85L-84.68 18.85L-84.68-24.53ZM-8.93 8.62L-8.93 8.62Q-8.27 8.62-7.79 9.13L-7.79 9.13L-4.61 12.58Q-7.25 15.85-11.10 17.59Q-14.96 19.33-20.36 19.33L-20.36 19.33Q-25.19 19.33-29.04 17.68Q-32.90 16.03-35.63 13.09Q-38.36 10.15-39.81 6.07Q-41.27 1.99-41.27-2.84L-41.27-2.84Q-41.27-7.73-39.65-11.80Q-38.03-15.86-35.09-18.80Q-32.15-21.74-28.05-23.38Q-23.96-25.01-19.01-25.01L-19.01-25.01Q-14.18-25.01-10.56-23.47Q-6.95-21.92-4.37-19.37L-4.37-19.37L-7.07-15.62Q-7.31-15.26-7.68-14.99Q-8.06-14.72-8.72-14.72L-8.72-14.72Q-9.41-14.72-10.13-15.26Q-10.85-15.80-11.96-16.43Q-13.07-17.06-14.76-17.60Q-16.46-18.14-19.07-18.14L-19.07-18.14Q-22.13-18.14-24.69-17.08Q-27.26-16.01-29.10-14.03Q-30.95-12.05-31.98-9.22Q-33.02-6.38-33.02-2.84L-33.02-2.84Q-33.02 0.82-31.98 3.67Q-30.95 6.52-29.18 8.47Q-27.41 10.42-25.01 11.45Q-22.61 12.49-19.85 12.49L-19.85 12.49Q-18.20 12.49-16.86 12.31Q-15.53 12.13-14.40 11.74Q-13.28 11.35-12.27 10.73Q-11.27 10.12-10.28 9.22L-10.28 9.22Q-9.98 8.95-9.65 8.78Q-9.32 8.62-8.93 8.62ZM43.09-2.84L43.09-2.84Q43.09 1.93 41.50 5.99Q39.91 10.06 37.03 13.03Q34.15 16.00 30.10 17.66Q26.05 19.33 21.13 19.33L21.13 19.33Q16.21 19.33 12.15 17.66Q8.08 16.00 5.19 13.03Q2.29 10.06 0.70 5.99Q-0.89 1.93-0.89-2.84L-0.89-2.84Q-0.89-7.61 0.70-11.68Q2.29-15.74 5.19-18.71Q8.08-21.68 12.15-23.35Q16.21-25.01 21.13-25.01L21.13-25.01Q26.05-25.01 30.10-23.33Q34.15-21.65 37.03-18.70Q39.91-15.74 41.50-11.68Q43.09-7.61 43.09-2.84ZM34.81-2.84L34.81-2.84Q34.81-6.41 33.87-9.25Q32.92-12.08 31.15-14.06Q29.38-16.04 26.85-17.09Q24.31-18.14 21.13-18.14L21.13-18.14Q17.95-18.14 15.40-17.09Q12.85-16.04 11.07-14.06Q9.28-12.08 8.32-9.25Q7.36-6.41 7.36-2.84L7.36-2.84Q7.36 0.73 8.32 3.56Q9.28 6.40 11.07 8.36Q12.85 10.33 15.40 11.38Q17.95 12.43 21.13 12.43L21.13 12.43Q24.31 12.43 26.85 11.38Q29.38 10.33 31.15 8.36Q32.92 6.40 33.87 3.56Q34.81 0.73 34.81-2.84ZM53.68-24.53L53.68-24.53Q54.22-24.53 54.58-24.49Q54.94-24.44 55.23-24.31Q55.51-24.17 55.78-23.92Q56.05-23.66 56.38-23.24L56.38-23.24L79.15 5.77Q79.03 4.72 78.99 3.71Q78.94 2.71 78.94 1.84L78.94 1.84L78.94-24.53L86.05-24.53L86.05 18.85L81.88 18.85Q80.92 18.85 80.29 18.55Q79.66 18.25 79.06 17.47L79.06 17.47L56.38-11.42Q56.47-10.46 56.52-9.52Q56.56-8.57 56.56-7.79L56.56-7.79L56.56 18.85L49.45 18.85L49.45-24.53L53.68-24.53ZM94.81-24.53L122.17-24.53L122.17-18.11L102.94-18.11L102.94-5.27L119.17-5.27L119.17 1.18L102.94 1.18L102.94 18.85L94.81 18.85L94.81-24.53ZM137.59-24.53L137.59 18.85L129.49 18.85L129.49-24.53L137.59-24.53ZM159.13 1.90L155.68 1.90L155.68 18.85L147.61 18.85L147.61-24.53L160.84-24.53Q165.28-24.53 168.45-23.62Q171.61-22.70 173.64-21.05Q175.66-19.40 176.61-17.11Q177.55-14.81 177.55-12.05L177.55-12.05Q177.55-9.86 176.91-7.91Q176.26-5.96 175.05-4.37Q173.83-2.78 172.05-1.58Q170.26-0.38 167.98 0.34L167.98 0.34Q169.51 1.21 170.62 2.83L170.62 2.83L181.48 18.85L174.22 18.85Q173.17 18.85 172.44 18.43Q171.70 18.01 171.19 17.23L171.19 17.23L162.07 3.34Q161.56 2.56 160.95 2.23Q160.33 1.90 159.13 1.90L159.13 1.90ZM155.68-18.29L155.68-3.89L160.72-3.89Q163.00-3.89 164.70-4.46Q166.39-5.03 167.49-6.04Q168.58-7.04 169.12-8.42Q169.66-9.80 169.66-11.45L169.66-11.45Q169.66-14.75 167.49-16.52Q165.31-18.29 160.84-18.29L160.84-18.29L155.68-18.29ZM208.42 0.85L208.42 0.85Q208.93 1.81 209.37 2.84Q209.80 3.88 210.22 4.93L210.22 4.93Q210.64 3.85 211.09 2.80Q211.54 1.75 212.05 0.79L212.05 0.79L224.89-23.24Q225.13-23.69 225.39-23.96Q225.64-24.23 225.96-24.35Q226.27-24.47 226.66-24.50Q227.05-24.53 227.59-24.53L227.59-24.53L233.68-24.53L233.68 18.85L226.57 18.85L226.57-9.17Q226.57-9.95 226.62-10.88Q226.66-11.81 226.75-12.77L226.75-12.77L213.64 11.83Q213.19 12.67 212.47 13.13Q211.75 13.60 210.79 13.60L210.79 13.60L209.68 13.60Q208.72 13.60 208.00 13.13Q207.28 12.67 206.83 11.83L206.83 11.83L193.54-12.86Q193.66-11.87 193.71-10.93Q193.75-9.98 193.75-9.17L193.75-9.17L193.75 18.85L186.64 18.85L186.64-24.53L192.73-24.53Q193.27-24.53 193.66-24.50Q194.05-24.47 194.37-24.35Q194.68-24.23 194.95-23.96Q195.22-23.69 195.46-23.24L195.46-23.24L208.42 0.85Z"/></g>
<g transform="matrix(1 0 0 1 299.5 170.8192)" style="" id="115854">
		
<path xml:space="preserve" font-family="Lato" font-size="21" font-style="normal" font-weight="bold" style="stroke: none; stroke-width: 0; stroke-dasharray: none; stroke-linecap: butt; stroke-dashoffset: 0; stroke-linejoin: miter; stroke-miterlimit: 4; is-custom-font: none; font-file-url: none; fill: rgb(218,218,218); fill-rule: nonzero; opacity: 1; white-space: pre;" d="M-138.10-8.59L-132.14 6.60L-134.32 6.60Q-134.69 6.60-134.92 6.41Q-135.16 6.23-135.27 5.96L-135.27 5.96L-136.40 2.86L-142.69 2.86L-143.82 5.96Q-143.91 6.20-144.15 6.40Q-144.40 6.60-144.76 6.60L-144.76 6.60L-146.95 6.60L-140.99-8.59L-138.10-8.59ZM-140.12-4.17L-141.97 0.86L-137.12 0.86L-138.97-4.19Q-139.10-4.52-139.25-4.98Q-139.40-5.44-139.55-5.97L-139.55-5.97Q-139.70-5.44-139.84-4.97Q-139.98-4.51-140.12-4.17L-140.12-4.17ZM-128.13 6.60L-130.72 6.60L-130.72-4.18L-129.20-4.18Q-128.80-4.18-128.64-4.03Q-128.48-3.88-128.43-3.53L-128.43-3.53L-128.27-2.22Q-127.70-3.22-126.92-3.80Q-126.14-4.38-125.18-4.38L-125.18-4.38Q-124.38-4.38-123.85-4.01L-123.85-4.01L-124.19-2.07Q-124.22-1.88-124.33-1.80Q-124.43-1.72-124.61-1.72L-124.61-1.72Q-124.77-1.72-125.04-1.79Q-125.31-1.87-125.76-1.87L-125.76-1.87Q-126.57-1.87-127.15-1.42Q-127.73-0.97-128.13-0.11L-128.13-0.11L-128.13 6.60ZM-117.69-4.34L-117.69-4.34Q-116.67-4.34-115.81-4.02Q-114.96-3.69-114.34-3.07Q-113.72-2.44-113.37-1.54Q-113.03-0.63-113.03 0.54L-113.03 0.54Q-113.03 0.83-113.05 1.03Q-113.08 1.22-113.15 1.33Q-113.22 1.44-113.33 1.49Q-113.45 1.54-113.63 1.54L-113.63 1.54L-120.28 1.54Q-120.17 3.19-119.39 3.97Q-118.61 4.75-117.33 4.75L-117.33 4.75Q-116.70 4.75-116.25 4.60Q-115.79 4.45-115.45 4.28Q-115.11 4.10-114.85 3.95Q-114.59 3.80-114.35 3.80L-114.35 3.80Q-114.19 3.80-114.08 3.87Q-113.96 3.93-113.88 4.05L-113.88 4.05L-113.12 4.99Q-113.55 5.49-114.09 5.84Q-114.62 6.18-115.21 6.38Q-115.79 6.59-116.39 6.67Q-117.00 6.75-117.56 6.75L-117.56 6.75Q-118.69 6.75-119.65 6.38Q-120.62 6.01-121.33 5.28Q-122.05 4.55-122.46 3.47Q-122.87 2.40-122.87 0.98L-122.87 0.98Q-122.87-0.12-122.51-1.09Q-122.15-2.07-121.48-2.78Q-120.82-3.50-119.86-3.92Q-118.90-4.34-117.69-4.34ZM-117.64-2.49L-117.64-2.49Q-118.77-2.49-119.41-1.85Q-120.05-1.20-120.23-0.03L-120.23-0.03L-115.36-0.03Q-115.36-0.53-115.49-0.98Q-115.63-1.43-115.91-1.76Q-116.20-2.10-116.63-2.29Q-117.06-2.49-117.64-2.49ZM-97.17-4.18L-103.04 9.56Q-103.16 9.83-103.34 9.97Q-103.52 10.11-103.90 10.11L-103.90 10.11L-105.83 10.11L-103.82 5.80L-108.18-4.18L-105.91-4.18Q-105.59-4.18-105.43-4.03Q-105.26-3.88-105.17-3.69L-105.17-3.69L-102.87 1.89Q-102.76 2.17-102.67 2.46Q-102.59 2.75-102.53 3.05L-102.53 3.05Q-102.44 2.74-102.34 2.46Q-102.24 2.18-102.13 1.88L-102.13 1.88L-99.97-3.69Q-99.88-3.90-99.69-4.04Q-99.49-4.18-99.25-4.18L-99.25-4.18L-97.17-4.18ZM-91.41-4.34L-91.41-4.34Q-90.20-4.34-89.22-3.96Q-88.24-3.57-87.54-2.85Q-86.85-2.14-86.47-1.11Q-86.09-0.08-86.09 1.19L-86.09 1.19Q-86.09 2.47-86.47 3.50Q-86.85 4.53-87.54 5.25Q-88.24 5.98-89.22 6.37Q-90.20 6.75-91.41 6.75L-91.41 6.75Q-92.62 6.75-93.60 6.37Q-94.59 5.98-95.29 5.25Q-95.99 4.53-96.37 3.50Q-96.75 2.47-96.75 1.19L-96.75 1.19Q-96.75-0.08-96.37-1.11Q-95.99-2.14-95.29-2.85Q-94.59-3.57-93.60-3.96Q-92.62-4.34-91.41-4.34ZM-91.41 4.76L-91.41 4.76Q-90.06 4.76-89.42 3.86Q-88.77 2.95-88.77 1.21L-88.77 1.21Q-88.77-0.53-89.42-1.45Q-90.06-2.36-91.41-2.36L-91.41-2.36Q-92.77-2.36-93.42-1.44Q-94.07-0.52-94.07 1.21L-94.07 1.21Q-94.07 2.94-93.42 3.85Q-92.77 4.76-91.41 4.76ZM-84.29-4.18L-81.70-4.18L-81.70 2.67Q-81.70 3.66-81.24 4.20Q-80.78 4.74-79.87 4.74L-79.87 4.74Q-79.20 4.74-78.61 4.44Q-78.02 4.14-77.50 3.61L-77.50 3.61L-77.50-4.18L-74.90-4.18L-74.90 6.60L-76.49 6.60Q-76.99 6.60-77.15 6.12L-77.15 6.12L-77.33 5.26Q-77.66 5.60-78.02 5.88Q-78.38 6.16-78.78 6.35Q-79.19 6.54-79.65 6.65Q-80.12 6.76-80.66 6.76L-80.66 6.76Q-81.54 6.76-82.21 6.47Q-82.89 6.17-83.35 5.62Q-83.82 5.07-84.05 4.32Q-84.29 3.57-84.29 2.67L-84.29 2.67L-84.29-4.18ZM-61.09-3.01L-61.68-2.08Q-61.79-1.91-61.90-1.84Q-62.02-1.77-62.20-1.77L-62.20-1.77Q-62.39-1.77-62.60-1.88Q-62.82-1.98-63.10-2.11Q-63.38-2.24-63.75-2.35Q-64.11-2.45-64.60-2.45L-64.60-2.45Q-65.37-2.45-65.81-2.13Q-66.25-1.80-66.25-1.28L-66.25-1.28Q-66.25-0.93-66.02-0.70Q-65.80-0.46-65.43-0.28Q-65.05-0.10-64.58 0.04Q-64.11 0.18-63.61 0.35Q-63.12 0.52-62.65 0.73Q-62.18 0.95-61.80 1.28Q-61.43 1.61-61.20 2.07Q-60.98 2.53-60.98 3.18L-60.98 3.18Q-60.98 3.96-61.26 4.62Q-61.55 5.27-62.09 5.75Q-62.64 6.23-63.44 6.50Q-64.24 6.76-65.28 6.76L-65.28 6.76Q-65.84 6.76-66.37 6.67Q-66.90 6.57-67.39 6.39Q-67.88 6.21-68.29 5.97Q-68.71 5.73-69.02 5.44L-69.02 5.44L-68.42 4.45Q-68.31 4.28-68.15 4.18Q-67.99 4.09-67.75 4.09L-67.75 4.09Q-67.51 4.09-67.29 4.22Q-67.08 4.36-66.80 4.52Q-66.51 4.68-66.13 4.81Q-65.75 4.95-65.16 4.95L-65.16 4.95Q-64.70 4.95-64.36 4.84Q-64.03 4.73-63.82 4.55Q-63.60 4.37-63.50 4.13Q-63.40 3.90-63.40 3.65L-63.40 3.65Q-63.40 3.27-63.63 3.03Q-63.86 2.79-64.23 2.61Q-64.60 2.43-65.08 2.29Q-65.56 2.14-66.06 1.98Q-66.55 1.81-67.03 1.58Q-67.51 1.36-67.88 1.01Q-68.26 0.66-68.48 0.16Q-68.71-0.34-68.71-1.06L-68.71-1.06Q-68.71-1.72-68.44-2.32Q-68.18-2.92-67.67-3.36Q-67.16-3.81-66.40-4.08Q-65.64-4.34-64.64-4.34L-64.64-4.34Q-63.53-4.34-62.62-3.98Q-61.70-3.61-61.09-3.01L-61.09-3.01ZM-59.12-4.18L-56.53-4.18L-56.53 2.67Q-56.53 3.66-56.07 4.20Q-55.61 4.74-54.70 4.74L-54.70 4.74Q-54.03 4.74-53.44 4.44Q-52.85 4.14-52.33 3.61L-52.33 3.61L-52.33-4.18L-49.73-4.18L-49.73 6.60L-51.32 6.60Q-51.82 6.60-51.98 6.12L-51.98 6.12L-52.16 5.26Q-52.49 5.60-52.85 5.88Q-53.21 6.16-53.61 6.35Q-54.02 6.54-54.48 6.65Q-54.95 6.76-55.49 6.76L-55.49 6.76Q-56.37 6.76-57.05 6.47Q-57.72 6.17-58.19 5.62Q-58.65 5.07-58.88 4.32Q-59.12 3.57-59.12 2.67L-59.12 2.67L-59.12-4.18ZM-44.37 6.60L-46.96 6.60L-46.96-4.18L-45.44-4.18Q-45.04-4.18-44.88-4.03Q-44.72-3.88-44.67-3.53L-44.67-3.53L-44.51-2.22Q-43.94-3.22-43.16-3.80Q-42.38-4.38-41.42-4.38L-41.42-4.38Q-40.62-4.38-40.09-4.01L-40.09-4.01L-40.43-2.07Q-40.46-1.88-40.57-1.80Q-40.67-1.72-40.85-1.72L-40.85-1.72Q-41.01-1.72-41.28-1.79Q-41.55-1.87-42.01-1.87L-42.01-1.87Q-42.81-1.87-43.39-1.42Q-43.97-0.97-44.37-0.11L-44.37-0.11L-44.37 6.60ZM-33.93-4.34L-33.93-4.34Q-32.91-4.34-32.06-4.02Q-31.20-3.69-30.58-3.07Q-29.96-2.44-29.62-1.54Q-29.27-0.63-29.27 0.54L-29.27 0.54Q-29.27 0.83-29.29 1.03Q-29.32 1.22-29.39 1.33Q-29.46 1.44-29.57 1.49Q-29.69 1.54-29.87 1.54L-29.87 1.54L-36.52 1.54Q-36.41 3.19-35.63 3.97Q-34.85 4.75-33.57 4.75L-33.57 4.75Q-32.94 4.75-32.49 4.60Q-32.03 4.45-31.69 4.28Q-31.35 4.10-31.09 3.95Q-30.83 3.80-30.59 3.80L-30.59 3.80Q-30.43 3.80-30.32 3.87Q-30.20 3.93-30.12 4.05L-30.12 4.05L-29.36 4.99Q-29.79 5.49-30.33 5.84Q-30.86 6.18-31.45 6.38Q-32.03 6.59-32.63 6.67Q-33.24 6.75-33.80 6.75L-33.80 6.75Q-34.93 6.75-35.89 6.38Q-36.86 6.01-37.57 5.28Q-38.29 4.55-38.70 3.47Q-39.11 2.40-39.11 0.98L-39.11 0.98Q-39.11-0.12-38.75-1.09Q-38.39-2.07-37.73-2.78Q-37.06-3.50-36.10-3.92Q-35.14-4.34-33.93-4.34ZM-33.88-2.49L-33.88-2.49Q-35.01-2.49-35.65-1.85Q-36.29-1.20-36.47-0.03L-36.47-0.03L-31.60-0.03Q-31.60-0.53-31.74-0.98Q-31.87-1.43-32.16-1.76Q-32.44-2.10-32.87-2.29Q-33.30-2.49-33.88-2.49ZM-13.41-4.18L-19.28 9.56Q-19.40 9.83-19.58 9.97Q-19.77 10.11-20.14 10.11L-20.14 10.11L-22.08 10.11L-20.06 5.80L-24.42-4.18L-22.15-4.18Q-21.83-4.18-21.67-4.03Q-21.50-3.88-21.41-3.69L-21.41-3.69L-19.12 1.89Q-19.00 2.17-18.92 2.46Q-18.83 2.75-18.77 3.05L-18.77 3.05Q-18.68 2.74-18.58 2.46Q-18.49 2.18-18.37 1.88L-18.37 1.88L-16.21-3.69Q-16.12-3.90-15.93-4.04Q-15.73-4.18-15.49-4.18L-15.49-4.18L-13.41-4.18ZM-7.65-4.34L-7.65-4.34Q-6.44-4.34-5.46-3.96Q-4.48-3.57-3.79-2.85Q-3.09-2.14-2.71-1.11Q-2.34-0.08-2.34 1.19L-2.34 1.19Q-2.34 2.47-2.71 3.50Q-3.09 4.53-3.79 5.25Q-4.48 5.98-5.46 6.37Q-6.44 6.75-7.65 6.75L-7.65 6.75Q-8.86 6.75-9.84 6.37Q-10.83 5.98-11.53 5.25Q-12.23 4.53-12.61 3.50Q-12.99 2.47-12.99 1.19L-12.99 1.19Q-12.99-0.08-12.61-1.11Q-12.23-2.14-11.53-2.85Q-10.83-3.57-9.84-3.96Q-8.86-4.34-7.65-4.34ZM-7.65 4.76L-7.65 4.76Q-6.31 4.76-5.66 3.86Q-5.01 2.95-5.01 1.21L-5.01 1.21Q-5.01-0.53-5.66-1.45Q-6.31-2.36-7.65-2.36L-7.65-2.36Q-9.01-2.36-9.67-1.44Q-10.32-0.52-10.32 1.21L-10.32 1.21Q-10.32 2.94-9.67 3.85Q-9.01 4.76-7.65 4.76ZM-0.53-4.18L2.06-4.18L2.06 2.67Q2.06 3.66 2.52 4.20Q2.98 4.74 3.89 4.74L3.89 4.74Q4.56 4.74 5.15 4.44Q5.74 4.14 6.26 3.61L6.26 3.61L6.26-4.18L8.86-4.18L8.86 6.60L7.27 6.60Q6.77 6.60 6.61 6.12L6.61 6.12L6.43 5.26Q6.10 5.60 5.74 5.88Q5.38 6.16 4.98 6.35Q4.57 6.54 4.11 6.65Q3.64 6.76 3.10 6.76L3.10 6.76Q2.22 6.76 1.54 6.47Q0.87 6.17 0.40 5.62Q-0.06 5.07-0.29 4.32Q-0.53 3.57-0.53 2.67L-0.53 2.67L-0.53-4.18ZM17.78 6.60L14.37-4.18L16.43-4.18Q16.72-4.18 16.92-4.04Q17.12-3.90 17.17-3.69L17.17-3.69L18.72 2.06Q18.84 2.53 18.92 2.98Q19.00 3.44 19.07 3.89L19.07 3.89Q19.19 3.44 19.32 2.98Q19.45 2.53 19.60 2.06L19.60 2.06L21.38-3.71Q21.45-3.92 21.64-4.06Q21.82-4.20 22.08-4.20L22.08-4.20L23.22-4.20Q23.50-4.20 23.69-4.06Q23.88-3.92 23.95-3.71L23.95-3.71L25.71 2.17Q25.85 2.62 25.96 3.04Q26.07 3.47 26.17 3.90L26.17 3.90Q26.24 3.45 26.33 3.00Q26.42 2.54 26.56 2.06L26.56 2.06L28.16-3.69Q28.21-3.90 28.41-4.04Q28.61-4.18 28.87-4.18L28.87-4.18L30.83-4.18L27.42 6.60L25.33 6.60Q25.00 6.60 24.85 6.13L24.85 6.13L22.91-0.09Q22.81-0.40 22.73-0.71Q22.65-1.02 22.60-1.32L22.60-1.32Q22.54-1.01 22.46-0.70Q22.39-0.39 22.30-0.07L22.30-0.07L20.33 6.13Q20.19 6.60 19.77 6.60L19.77 6.60L17.78 6.60ZM40.73-0.21L40.73 6.60L39.57 6.60Q39.20 6.60 38.99 6.49Q38.78 6.38 38.68 6.04L38.68 6.04L38.45 5.27Q38.04 5.64 37.64 5.92Q37.25 6.20 36.83 6.39Q36.41 6.58 35.94 6.67Q35.46 6.76 34.89 6.76L34.89 6.76Q34.20 6.76 33.63 6.58Q33.05 6.40 32.63 6.03Q32.22 5.66 31.99 5.12Q31.76 4.57 31.76 3.85L31.76 3.85Q31.76 3.24 32.08 2.64Q32.40 2.05 33.14 1.57Q33.89 1.09 35.13 0.78Q36.37 0.46 38.20 0.42L38.20 0.42L38.20-0.21Q38.20-1.29 37.75-1.81Q37.29-2.33 36.42-2.33L36.42-2.33Q35.79-2.33 35.37-2.18Q34.95-2.03 34.64-1.85Q34.33-1.67 34.07-1.52Q33.80-1.37 33.49-1.37L33.49-1.37Q33.23-1.37 33.04-1.51Q32.85-1.65 32.73-1.85L32.73-1.85L32.26-2.67Q34.12-4.38 36.74-4.38L36.74-4.38Q37.69-4.38 38.43-4.07Q39.17-3.76 39.68-3.20Q40.20-2.65 40.47-1.89Q40.73-1.12 40.73-0.21L40.73-0.21ZM35.69 4.98L35.69 4.98Q36.09 4.98 36.43 4.91Q36.77 4.83 37.07 4.69Q37.36 4.54 37.64 4.32Q37.92 4.11 38.20 3.81L38.20 3.81L38.20 2.00Q37.07 2.05 36.31 2.19Q35.55 2.33 35.09 2.55Q34.62 2.77 34.43 3.07Q34.24 3.36 34.24 3.71L34.24 3.71Q34.24 4.39 34.64 4.69Q35.04 4.98 35.69 4.98ZM45.88 6.60L43.29 6.60L43.29-4.18L44.87-4.18Q45.38-4.18 45.53-3.70L45.53-3.70L45.71-2.85Q46.04-3.19 46.40-3.46Q46.76-3.74 47.17-3.93Q47.57-4.13 48.03-4.24Q48.49-4.34 49.04-4.34L49.04-4.34Q49.92-4.34 50.60-4.04Q51.29-3.75 51.74-3.20Q52.20-2.66 52.44-1.91Q52.67-1.16 52.67-0.26L52.67-0.26L52.67 6.60L50.08 6.60L50.08-0.26Q50.08-1.25 49.62-1.79Q49.17-2.33 48.25-2.33L48.25-2.33Q47.58-2.33 46.99-2.02Q46.40-1.72 45.88-1.19L45.88-1.19L45.88 6.60ZM58.76 6.76L58.76 6.76Q57.37 6.76 56.61 5.97Q55.85 5.18 55.85 3.78L55.85 3.78L55.85-2.23L54.76-2.23Q54.55-2.23 54.40-2.37Q54.25-2.51 54.25-2.78L54.25-2.78L54.25-3.81L55.98-4.09L56.53-7.03Q56.57-7.24 56.72-7.36Q56.87-7.47 57.10-7.47L57.10-7.47L58.45-7.47L58.45-4.08L61.28-4.08L61.28-2.23L58.45-2.23L58.45 3.60Q58.45 4.11 58.70 4.39Q58.95 4.68 59.37 4.68L59.37 4.68Q59.61 4.68 59.78 4.62Q59.94 4.56 60.06 4.50Q60.18 4.43 60.28 4.38Q60.37 4.32 60.46 4.32L60.46 4.32Q60.58 4.32 60.65 4.38Q60.73 4.43 60.81 4.55L60.81 4.55L61.59 5.81Q61.02 6.28 60.29 6.52Q59.55 6.76 58.76 6.76ZM70.94 6.76L70.94 6.76Q69.55 6.76 68.79 5.97Q68.03 5.18 68.03 3.78L68.03 3.78L68.03-2.23L66.94-2.23Q66.73-2.23 66.58-2.37Q66.43-2.51 66.43-2.78L66.43-2.78L66.43-3.81L68.16-4.09L68.71-7.03Q68.75-7.24 68.90-7.36Q69.05-7.47 69.28-7.47L69.28-7.47L70.63-7.47L70.63-4.08L73.46-4.08L73.46-2.23L70.63-2.23L70.63 3.60Q70.63 4.11 70.88 4.39Q71.13 4.68 71.55 4.68L71.55 4.68Q71.79 4.68 71.96 4.62Q72.12 4.56 72.24 4.50Q72.36 4.43 72.46 4.38Q72.55 4.32 72.64 4.32L72.64 4.32Q72.76 4.32 72.83 4.38Q72.91 4.43 72.99 4.55L72.99 4.55L73.77 5.81Q73.20 6.28 72.47 6.52Q71.73 6.76 70.94 6.76ZM80.13-4.34L80.13-4.34Q81.34-4.34 82.32-3.96Q83.30-3.57 83.99-2.85Q84.69-2.14 85.07-1.11Q85.44-0.08 85.44 1.19L85.44 1.19Q85.44 2.47 85.07 3.50Q84.69 4.53 83.99 5.25Q83.30 5.98 82.32 6.37Q81.34 6.75 80.13 6.75L80.13 6.75Q78.92 6.75 77.94 6.37Q76.95 5.98 76.25 5.25Q75.55 4.53 75.17 3.50Q74.79 2.47 74.79 1.19L74.79 1.19Q74.79-0.08 75.17-1.11Q75.55-2.14 76.25-2.85Q76.95-3.57 77.94-3.96Q78.92-4.34 80.13-4.34ZM80.13 4.76L80.13 4.76Q81.47 4.76 82.12 3.86Q82.77 2.95 82.77 1.21L82.77 1.21Q82.77-0.53 82.12-1.45Q81.47-2.36 80.13-2.36L80.13-2.36Q78.77-2.36 78.11-1.44Q77.46-0.52 77.46 1.21L77.46 1.21Q77.46 2.94 78.11 3.85Q78.77 4.76 80.13 4.76ZM99.78-2.84L99.09-1.90Q98.98-1.75 98.87-1.67Q98.76-1.58 98.55-1.58L98.55-1.58Q98.35-1.58 98.16-1.70Q97.97-1.82 97.71-1.98Q97.45-2.13 97.08-2.25Q96.72-2.37 96.19-2.37L96.19-2.37Q95.50-2.37 94.99-2.12Q94.47-1.88 94.13-1.41Q93.79-0.95 93.62-0.30Q93.46 0.36 93.46 1.19L93.46 1.19Q93.46 2.05 93.64 2.72Q93.82 3.39 94.17 3.85Q94.52 4.31 95.01 4.54Q95.50 4.78 96.12 4.78L96.12 4.78Q96.74 4.78 97.13 4.63Q97.51 4.48 97.77 4.29Q98.03 4.11 98.23 3.96Q98.42 3.80 98.66 3.80L98.66 3.80Q98.98 3.80 99.14 4.05L99.14 4.05L99.88 4.99Q99.45 5.49 98.95 5.84Q98.44 6.18 97.90 6.38Q97.36 6.59 96.78 6.67Q96.21 6.75 95.64 6.75L95.64 6.75Q94.64 6.75 93.76 6.38Q92.88 6.01 92.22 5.29Q91.57 4.58 91.18 3.55Q90.80 2.51 90.80 1.19L90.80 1.19Q90.80 0.00 91.14-1.01Q91.48-2.02 92.14-2.76Q92.80-3.50 93.78-3.92Q94.76-4.34 96.03-4.34L96.03-4.34Q97.24-4.34 98.14-3.96Q99.05-3.57 99.78-2.84L99.78-2.84ZM101.71-9.01L104.30-9.01L104.30 6.60L101.71 6.60L101.71-9.01ZM111.83-4.34L111.83-4.34Q113.04-4.34 114.02-3.96Q115.00-3.57 115.69-2.85Q116.39-2.14 116.77-1.11Q117.14-0.08 117.14 1.19L117.14 1.19Q117.14 2.47 116.77 3.50Q116.39 4.53 115.69 5.25Q115.00 5.98 114.02 6.37Q113.04 6.75 111.83 6.75L111.83 6.75Q110.62 6.75 109.64 6.37Q108.65 5.98 107.95 5.25Q107.25 4.53 106.87 3.50Q106.49 2.47 106.49 1.19L106.49 1.19Q106.49-0.08 106.87-1.11Q107.25-2.14 107.95-2.85Q108.65-3.57 109.64-3.96Q110.62-4.34 111.83-4.34ZM111.83 4.76L111.83 4.76Q113.17 4.76 113.82 3.86Q114.47 2.95 114.47 1.21L114.47 1.21Q114.47-0.53 113.82-1.45Q113.17-2.36 111.83-2.36L111.83-2.36Q110.47-2.36 109.81-1.44Q109.16-0.52 109.16 1.21L109.16 1.21Q109.16 2.94 109.81 3.85Q110.47 4.76 111.83 4.76ZM126.15-3.01L125.56-2.08Q125.46-1.91 125.34-1.84Q125.23-1.77 125.05-1.77L125.05-1.77Q124.86-1.77 124.65-1.88Q124.43-1.98 124.15-2.11Q123.86-2.24 123.50-2.35Q123.14-2.45 122.65-2.45L122.65-2.45Q121.88-2.45 121.44-2.13Q121.00-1.80 121.00-1.28L121.00-1.28Q121.00-0.93 121.22-0.70Q121.45-0.46 121.82-0.28Q122.19-0.10 122.67 0.04Q123.14 0.18 123.63 0.35Q124.13 0.52 124.60 0.73Q125.07 0.95 125.44 1.28Q125.82 1.61 126.04 2.07Q126.27 2.53 126.27 3.18L126.27 3.18Q126.27 3.96 125.98 4.62Q125.70 5.27 125.15 5.75Q124.61 6.23 123.81 6.50Q123.00 6.76 121.96 6.76L121.96 6.76Q121.41 6.76 120.88 6.67Q120.35 6.57 119.86 6.39Q119.37 6.21 118.95 5.97Q118.54 5.73 118.22 5.44L118.22 5.44L118.82 4.45Q118.94 4.28 119.10 4.18Q119.25 4.09 119.50 4.09L119.50 4.09Q119.74 4.09 119.95 4.22Q120.17 4.36 120.45 4.52Q120.73 4.68 121.12 4.81Q121.50 4.95 122.09 4.95L122.09 4.95Q122.55 4.95 122.88 4.84Q123.21 4.73 123.43 4.55Q123.64 4.37 123.74 4.13Q123.84 3.90 123.84 3.65L123.84 3.65Q123.84 3.27 123.62 3.03Q123.39 2.79 123.02 2.61Q122.65 2.43 122.17 2.29Q121.69 2.14 121.19 1.98Q120.69 1.81 120.21 1.58Q119.74 1.36 119.36 1.01Q118.99 0.66 118.77 0.16Q118.54-0.34 118.54-1.06L118.54-1.06Q118.54-1.72 118.80-2.32Q119.06-2.92 119.57-3.36Q120.08-3.81 120.84-4.08Q121.61-4.34 122.60-4.34L122.60-4.34Q123.72-4.34 124.63-3.98Q125.54-3.61 126.15-3.01L126.15-3.01ZM132.80-4.34L132.80-4.34Q133.82-4.34 134.67-4.02Q135.53-3.69 136.15-3.07Q136.77-2.44 137.11-1.54Q137.46-0.63 137.46 0.54L137.46 0.54Q137.46 0.83 137.43 1.03Q137.41 1.22 137.34 1.33Q137.27 1.44 137.16 1.49Q137.04 1.54 136.86 1.54L136.86 1.54L130.21 1.54Q130.32 3.19 131.10 3.97Q131.87 4.75 133.16 4.75L133.16 4.75Q133.79 4.75 134.24 4.60Q134.70 4.45 135.04 4.28Q135.38 4.10 135.64 3.95Q135.90 3.80 136.14 3.80L136.14 3.80Q136.30 3.80 136.41 3.87Q136.53 3.93 136.61 4.05L136.61 4.05L137.37 4.99Q136.94 5.49 136.40 5.84Q135.86 6.18 135.28 6.38Q134.70 6.59 134.10 6.67Q133.49 6.75 132.92 6.75L132.92 6.75Q131.80 6.75 130.84 6.38Q129.87 6.01 129.16 5.28Q128.44 4.55 128.03 3.47Q127.62 2.40 127.62 0.98L127.62 0.98Q127.62-0.12 127.98-1.09Q128.34-2.07 129.00-2.78Q129.67-3.50 130.63-3.92Q131.59-4.34 132.80-4.34ZM132.85-2.49L132.85-2.49Q131.72-2.49 131.08-1.85Q130.44-1.20 130.26-0.03L130.26-0.03L135.13-0.03Q135.13-0.53 134.99-0.98Q134.86-1.43 134.57-1.76Q134.29-2.10 133.86-2.29Q133.43-2.49 132.85-2.49ZM139.26-6.13L138.57-7.21Q138.93-7.53 139.36-7.81Q139.78-8.09 140.27-8.30Q140.77-8.51 141.35-8.63Q141.92-8.75 142.60-8.75L142.60-8.75Q143.51-8.75 144.26-8.50Q145.01-8.25 145.55-7.78Q146.08-7.32 146.38-6.65Q146.67-5.99 146.67-5.17L146.67-5.17Q146.67-4.38 146.44-3.79Q146.21-3.21 145.86-2.78Q145.50-2.35 145.09-2.03Q144.68-1.72 144.32-1.44Q143.95-1.16 143.68-0.89Q143.41-0.63 143.36-0.29L143.36-0.29L143.12 1.24L141.35 1.24L141.17-0.47Q141.16-0.52 141.16-0.56Q141.16-0.60 141.16-0.65L141.16-0.65Q141.16-1.11 141.39-1.45Q141.62-1.79 141.97-2.09Q142.31-2.39 142.71-2.67Q143.11-2.96 143.46-3.29Q143.80-3.62 144.03-4.04Q144.26-4.46 144.26-5.03L144.26-5.03Q144.26-5.40 144.12-5.70Q143.98-6.00 143.73-6.22Q143.48-6.43 143.13-6.55Q142.77-6.66 142.36-6.66L142.36-6.66Q141.77-6.66 141.35-6.53Q140.94-6.40 140.65-6.24Q140.36-6.08 140.16-5.95Q139.96-5.81 139.80-5.81L139.80-5.81Q139.42-5.81 139.26-6.13L139.26-6.13ZM140.56 5.17L140.56 5.17Q140.56 4.84 140.68 4.55Q140.80 4.26 141.02 4.05Q141.23 3.84 141.52 3.71Q141.82 3.58 142.15 3.58L142.15 3.58Q142.48 3.58 142.77 3.71Q143.07 3.84 143.28 4.05Q143.49 4.26 143.61 4.55Q143.74 4.84 143.74 5.17L143.74 5.17Q143.74 5.50 143.61 5.79Q143.49 6.08 143.28 6.29Q143.07 6.50 142.77 6.62Q142.48 6.74 142.15 6.74L142.15 6.74Q141.82 6.74 141.52 6.62Q141.23 6.50 141.02 6.29Q140.80 6.08 140.68 5.79Q140.56 5.50 140.56 5.17Z"/></g>
<g transform="matrix(2.0281 0 0 1.1559 196.1329 228.8002)" id="282567">
<path style="stroke: none; stroke-width: 0; stroke-dasharray: none; stroke-linecap: butt; stroke-dashoffset: 0; stroke-linejoin: miter; stroke-miterlimit: 4; is-custom-font: none; font-file-url: none; fill: rgb(126,203,255); fill-rule: nonzero; opacity: 1;" vector-effect="non-scaling-stroke" transform=" translate(-43.5, -25)" d="M 2.5 2.5 H 84.5 V 47.5 H 2.5 V 2.5 Z" stroke-linecap="round"/>
</g>
<g transform="matrix(2.0281 0 0 1.1559 404.8382 228.8006)" id="793704">
<path style="stroke: none; stroke-width: 0; stroke-dasharray: none; stroke-linecap: butt; stroke-dashoffset: 0; stroke-linejoin: miter; stroke-miterlimit: 4; is-custom-font: none; font-file-url: none; fill: rgb(218,218,218); fill-rule: nonzero; opacity: 1;" vector-effect="non-scaling-stroke" transform=" translate(-43.5, -25)" d="M 2.5 2.5 H 84.5 V 47.5 H 2.5 V 2.5 Z" stroke-linecap="round"/>
</g>
<g transform="matrix(1 0 0 1 405.5079 228.3004)" style="" id="564790">
		
<path xml:space="preserve" font-family="Lato" font-size="21" font-style="normal" font-weight="bold" style="stroke: none; stroke-width: 0; stroke-dasharray: none; stroke-linecap: butt; stroke-dashoffset: 0; stroke-linejoin: miter; stroke-miterlimit: 4; is-custom-font: none; font-file-url: none; fill: rgb(0,0,0); fill-rule: nonzero; opacity: 1; white-space: pre;" d="M-28.94 3.02L-28.94 3.02Q-28.71 3.02-28.54 3.19L-28.54 3.19L-27.43 4.40Q-28.36 5.55-29.70 6.16Q-31.05 6.76-32.94 6.76L-32.94 6.76Q-34.63 6.76-35.98 6.19Q-37.33 5.61-38.29 4.58Q-39.24 3.55-39.75 2.12Q-40.26 0.70-40.26-0.99L-40.26-0.99Q-40.26-2.71-39.70-4.13Q-39.13-5.55-38.10-6.58Q-37.07-7.61-35.64-8.18Q-34.20-8.75-32.47-8.75L-32.47-8.75Q-30.78-8.75-29.52-8.21Q-28.25-7.67-27.35-6.78L-27.35-6.78L-28.29-5.47Q-28.38-5.34-28.51-5.25Q-28.64-5.15-28.87-5.15L-28.87-5.15Q-29.11-5.15-29.36-5.34Q-29.62-5.53-30.00-5.75Q-30.39-5.97-30.99-6.16Q-31.58-6.35-32.49-6.35L-32.49-6.35Q-33.56-6.35-34.46-5.98Q-35.36-5.60-36.00-4.91Q-36.65-4.22-37.01-3.23Q-37.37-2.23-37.37-0.99L-37.37-0.99Q-37.37 0.29-37.01 1.28Q-36.65 2.28-36.03 2.96Q-35.41 3.65-34.57 4.01Q-33.73 4.37-32.77 4.37L-32.77 4.37Q-32.19 4.37-31.72 4.31Q-31.25 4.24-30.86 4.11Q-30.47 3.97-30.11 3.76Q-29.76 3.54-29.42 3.23L-29.42 3.23Q-29.31 3.13-29.20 3.07Q-29.08 3.02-28.94 3.02ZM-17.92-8.59L-11.95 6.60L-14.14 6.60Q-14.51 6.60-14.74 6.41Q-14.98 6.23-15.08 5.96L-15.08 5.96L-16.22 2.86L-22.51 2.86L-23.64 5.96Q-23.72 6.20-23.97 6.40Q-24.22 6.60-24.58 6.60L-24.58 6.60L-26.77 6.60L-20.81-8.59L-17.92-8.59ZM-19.93-4.17L-21.78 0.86L-16.94 0.86L-18.79-4.19Q-18.92-4.52-19.07-4.98Q-19.22-5.44-19.37-5.97L-19.37-5.97Q-19.51-5.44-19.66-4.97Q-19.80-4.51-19.93-4.17L-19.93-4.17ZM-8.91-8.59L-8.91-8.59Q-8.72-8.59-8.59-8.57Q-8.47-8.55-8.37-8.51Q-8.27-8.46-8.17-8.37Q-8.08-8.28-7.96-8.13L-7.96-8.13L0.01 2.02Q-0.04 1.65-0.05 1.30Q-0.07 0.95-0.07 0.64L-0.07 0.64L-0.07-8.59L2.42-8.59L2.42 6.60L0.96 6.60Q0.62 6.60 0.40 6.49Q0.18 6.39-0.03 6.11L-0.03 6.11L-7.96-4.00Q-7.93-3.66-7.92-3.33Q-7.90-3.00-7.90-2.73L-7.90-2.73L-7.90 6.60L-10.39 6.60L-10.39-8.59L-8.91-8.59ZM15.92 3.02L15.92 3.02Q16.15 3.02 16.32 3.19L16.32 3.19L17.44 4.40Q16.51 5.55 15.16 6.16Q13.81 6.76 11.92 6.76L11.92 6.76Q10.23 6.76 8.88 6.19Q7.53 5.61 6.58 4.58Q5.62 3.55 5.11 2.12Q4.60 0.70 4.60-0.99L4.60-0.99Q4.60-2.71 5.17-4.13Q5.74-5.55 6.77-6.58Q7.80-7.61 9.23-8.18Q10.66-8.75 12.40-8.75L12.40-8.75Q14.09-8.75 15.35-8.21Q16.62-7.67 17.52-6.78L17.52-6.78L16.57-5.47Q16.49-5.34 16.36-5.25Q16.23-5.15 16.00-5.15L16.00-5.15Q15.76-5.15 15.50-5.34Q15.25-5.53 14.86-5.75Q14.47-5.97 13.88-6.16Q13.29-6.35 12.37-6.35L12.37-6.35Q11.30-6.35 10.41-5.98Q9.51-5.60 8.86-4.91Q8.22-4.22 7.85-3.23Q7.49-2.23 7.49-0.99L7.49-0.99Q7.49 0.29 7.85 1.28Q8.22 2.28 8.84 2.96Q9.46 3.65 10.30 4.01Q11.14 4.37 12.10 4.37L12.10 4.37Q12.68 4.37 13.15 4.31Q13.61 4.24 14.01 4.11Q14.40 3.97 14.75 3.76Q15.10 3.54 15.45 3.23L15.45 3.23Q15.56 3.13 15.67 3.07Q15.79 3.02 15.92 3.02ZM19.57-8.59L29.14-8.59L29.14-6.34L22.41-6.34L22.41-2.13L27.71-2.13L27.71 0.04L22.41 0.04L22.41 4.34L29.14 4.34L29.14 6.60L19.57 6.60L19.57-8.59ZM34.41-8.59L34.41 4.27L40.49 4.27L40.49 6.60L31.59 6.60L31.59-8.59L34.41-8.59Z"/></g>
<g transform="matrix(1 0 0 1 194.4921 228.3004)" style="" id="463391">
		
<path xml:space="preserve" font-family="Lato" font-size="21" font-style="normal" font-weight="bold" style="stroke: none; stroke-width: 0; stroke-dasharray: none; stroke-linecap: butt; stroke-dashoffset: 0; stroke-linejoin: miter; stroke-miterlimit: 4; is-custom-font: none; font-file-url: none; fill: rgb(0,0,0); fill-rule: nonzero; opacity: 1; white-space: pre;" d="M0.37-0.99L0.37-0.99Q0.37 0.67-0.18 2.10Q-0.74 3.52-1.75 4.56Q-2.76 5.60-4.17 6.18Q-5.59 6.76-7.31 6.76L-7.31 6.76Q-9.04 6.76-10.46 6.18Q-11.88 5.60-12.89 4.56Q-13.91 3.52-14.46 2.10Q-15.02 0.67-15.02-0.99L-15.02-0.99Q-15.02-2.66-14.46-4.09Q-13.91-5.51-12.89-6.55Q-11.88-7.59-10.46-8.17Q-9.04-8.75-7.31-8.75L-7.31-8.75Q-5.59-8.75-4.17-8.17Q-2.76-7.58-1.75-6.54Q-0.74-5.51-0.18-4.09Q0.37-2.66 0.37-0.99ZM-2.53-0.99L-2.53-0.99Q-2.53-2.24-2.86-3.24Q-3.19-4.23-3.81-4.92Q-4.43-5.61-5.31-5.98Q-6.20-6.35-7.31-6.35L-7.31-6.35Q-8.43-6.35-9.32-5.98Q-10.21-5.61-10.84-4.92Q-11.46-4.23-11.80-3.24Q-12.13-2.24-12.13-0.99L-12.13-0.99Q-12.13 0.25-11.80 1.25Q-11.46 2.24-10.84 2.93Q-10.21 3.61-9.32 3.98Q-8.43 4.35-7.31 4.35L-7.31 4.35Q-6.20 4.35-5.31 3.98Q-4.43 3.61-3.81 2.93Q-3.19 2.24-2.86 1.25Q-2.53 0.25-2.53-0.99ZM5.52-8.60L5.52-2.22L6.18-2.22Q6.58-2.22 6.84-2.33Q7.10-2.44 7.29-2.69L7.29-2.69L11.48-7.99Q11.74-8.32 12.03-8.45Q12.32-8.59 12.76-8.59L12.76-8.59L15.20-8.59L10.09-2.28Q9.84-1.98 9.62-1.78Q9.40-1.58 9.15-1.46L9.15-1.46Q9.50-1.33 9.78-1.10Q10.05-0.87 10.32-0.51L10.32-0.51L15.59 6.60L13.09 6.60Q12.58 6.60 12.34 6.46Q12.09 6.31 11.92 6.04L11.92 6.04L7.63 0.43Q7.42 0.16 7.16 0.04Q6.89-0.08 6.41-0.08L6.41-0.08L5.52-0.08L5.52 6.60L2.69 6.60L2.69-8.60L5.52-8.60Z"/></g>
</svg>
