<svg xmlns="http://www.w3.org/2000/svg" xmlns:xlink="http://www.w3.org/1999/xlink" version="1.1" width="600" height="300" viewBox="0 0 600 300" xml:space="preserve">
<desc>Created with Fabric.js 3.5.0</desc>
<defs>
</defs>
<rect x="0" y="0" width="100%" height="100%" fill="#ff0000"/>
<g transform="matrix(1 0 0 1 338.0523 150)" style="" id="792477">
		
<path xml:space="preserve" font-family="Lato" font-size="60" font-style="normal" font-weight="bold" style="stroke: none; stroke-width: 1; stroke-dasharray: none; stroke-linecap: butt; stroke-dashoffset: 0; stroke-linejoin: miter; stroke-miterlimit: 4; is-custom-font: none; font-file-url: none; fill: rgb(255,255,255); fill-rule: nonzero; opacity: 1; white-space: pre;" d="M-64.35-94.37L-64.35-94.37Q-64.35-89.60-65.94-85.61Q-67.53-81.62-70.41-78.74Q-73.29-75.86-77.34-74.27Q-81.39-72.68-86.31-72.68L-86.31-72.68L-102.87-72.68L-102.87-116.06L-86.31-116.06Q-81.39-116.06-77.34-114.46Q-73.29-112.85-70.41-109.99Q-67.53-107.12-65.94-103.13Q-64.35-99.14-64.35-94.37ZM-72.60-94.37L-72.60-94.37Q-72.60-97.94-73.56-100.78Q-74.52-103.61-76.29-105.58Q-78.06-107.54-80.59-108.59Q-83.13-109.64-86.31-109.64L-86.31-109.64L-94.74-109.64L-94.74-79.10L-86.31-79.10Q-83.13-79.10-80.59-80.15Q-78.06-81.20-76.29-83.17Q-74.52-85.13-73.56-87.97Q-72.60-90.80-72.60-94.37ZM-16.41-94.37L-16.41-94.37Q-16.41-89.60-18.00-85.54Q-19.59-81.47-22.47-78.50Q-25.35-75.53-29.40-73.87Q-33.45-72.20-38.37-72.20L-38.37-72.20Q-43.29-72.20-47.35-73.87Q-51.42-75.53-54.31-78.50Q-57.21-81.47-58.80-85.54Q-60.39-89.60-60.39-94.37L-60.39-94.37Q-60.39-99.14-58.80-103.21Q-57.21-107.27-54.31-110.24Q-51.42-113.21-47.35-114.88Q-43.29-116.54-38.37-116.54L-38.37-116.54Q-33.45-116.54-29.40-114.86Q-25.35-113.18-22.47-110.23Q-19.59-107.27-18.00-103.21Q-16.41-99.14-16.41-94.37ZM-24.69-94.37L-24.69-94.37Q-24.69-97.94-25.63-100.78Q-26.58-103.61-28.35-105.59Q-30.12-107.57-32.65-108.62Q-35.19-109.67-38.37-109.67L-38.37-109.67Q-41.55-109.67-44.10-108.62Q-46.65-107.57-48.43-105.59Q-50.22-103.61-51.18-100.78Q-52.14-97.94-52.14-94.37L-52.14-94.37Q-52.14-90.80-51.18-87.97Q-50.22-85.13-48.43-83.17Q-46.65-81.20-44.10-80.15Q-41.55-79.10-38.37-79.10L-38.37-79.10Q-35.19-79.10-32.65-80.15Q-30.12-81.20-28.35-83.17Q-26.58-85.13-25.63-87.97Q-24.69-90.80-24.69-94.37ZM-0.60-72.68L-14.07-116.06L-7.29-116.06Q-6.24-116.06-5.53-115.57Q-4.83-115.07-4.59-114.23L-4.59-114.23L2.79-88.28Q3.06-87.32 3.29-86.20Q3.51-85.07 3.72-83.81L3.72-83.81Q3.96-85.07 4.25-86.20Q4.53-87.32 4.86-88.28L4.86-88.28L13.38-114.23Q13.62-114.92 14.33-115.49Q15.03-116.06 16.05-116.06L16.05-116.06L18.42-116.06Q19.47-116.06 20.16-115.57Q20.85-115.07 21.12-114.23L21.12-114.23L29.58-88.28Q30.24-86.36 30.72-84.02L30.72-84.02Q30.93-85.19 31.16-86.27Q31.38-87.35 31.62-88.28L31.62-88.28L39.00-114.23Q39.21-114.98 39.93-115.52Q40.65-116.06 41.67-116.06L41.67-116.06L48.00-116.06L34.53-72.68L27.24-72.68L17.76-102.32Q17.58-102.89 17.39-103.55Q17.19-104.21 17.01-104.96L17.01-104.96Q16.83-104.21 16.64-103.55Q16.44-102.89 16.26-102.32L16.26-102.32L6.69-72.68L-0.60-72.68ZM56.97-116.06L56.97-116.06Q57.51-116.06 57.87-116.02Q58.23-115.97 58.52-115.84Q58.80-115.70 59.07-115.45Q59.34-115.19 59.67-114.77L59.67-114.77L82.44-85.76Q82.32-86.81 82.28-87.82Q82.23-88.82 82.23-89.69L82.23-89.69L82.23-116.06L89.34-116.06L89.34-72.68L85.17-72.68Q84.21-72.68 83.58-72.98Q82.95-73.28 82.35-74.06L82.35-74.06L59.67-102.95Q59.76-101.99 59.81-101.05Q59.85-100.10 59.85-99.32L59.85-99.32L59.85-72.68L52.74-72.68L52.74-116.06L56.97-116.06ZM106.17-116.06L106.17-79.34L123.54-79.34L123.54-72.68L98.10-72.68L98.10-116.06L106.17-116.06ZM168.33-94.37L168.33-94.37Q168.33-89.60 166.74-85.54Q165.15-81.47 162.27-78.50Q159.39-75.53 155.34-73.87Q151.29-72.20 146.37-72.20L146.37-72.20Q141.45-72.20 137.39-73.87Q133.32-75.53 130.43-78.50Q127.53-81.47 125.94-85.54Q124.35-89.60 124.35-94.37L124.35-94.37Q124.35-99.14 125.94-103.21Q127.53-107.27 130.43-110.24Q133.32-113.21 137.39-114.88Q141.45-116.54 146.37-116.54L146.37-116.54Q151.29-116.54 155.34-114.86Q159.39-113.18 162.27-110.23Q165.15-107.27 166.74-103.21Q168.33-99.14 168.33-94.37ZM160.05-94.37L160.05-94.37Q160.05-97.94 159.11-100.78Q158.16-103.61 156.39-105.59Q154.62-107.57 152.09-108.62Q149.55-109.67 146.37-109.67L146.37-109.67Q143.19-109.67 140.64-108.62Q138.09-107.57 136.31-105.59Q134.52-103.61 133.56-100.78Q132.60-97.94 132.60-94.37L132.60-94.37Q132.60-90.80 133.56-87.97Q134.52-85.13 136.31-83.17Q138.09-81.20 140.64-80.15Q143.19-79.10 146.37-79.10L146.37-79.10Q149.55-79.10 152.09-80.15Q154.62-81.20 156.39-83.17Q158.16-85.13 159.11-87.97Q160.05-90.80 160.05-94.37ZM194.25-116.06L211.29-72.68L205.05-72.68Q204.00-72.68 203.33-73.21Q202.65-73.73 202.35-74.51L202.35-74.51L199.11-83.36L181.14-83.36L177.90-74.51Q177.66-73.82 176.96-73.25Q176.25-72.68 175.23-72.68L175.23-72.68L168.96-72.68L186.00-116.06L194.25-116.06ZM188.49-103.43L183.21-89.06L197.04-89.06L191.76-103.49Q191.40-104.45 190.97-105.76Q190.53-107.06 190.11-108.59L190.11-108.59Q189.69-107.06 189.29-105.74Q188.88-104.42 188.49-103.43L188.49-103.43ZM254.28-94.37L254.28-94.37Q254.28-89.60 252.69-85.61Q251.10-81.62 248.22-78.74Q245.34-75.86 241.29-74.27Q237.24-72.68 232.32-72.68L232.32-72.68L215.76-72.68L215.76-116.06L232.32-116.06Q237.24-116.06 241.29-114.46Q245.34-112.85 248.22-109.99Q251.10-107.12 252.69-103.13Q254.28-99.14 254.28-94.37ZM246.03-94.37L246.03-94.37Q246.03-97.94 245.07-100.78Q244.11-103.61 242.34-105.58Q240.57-107.54 238.04-108.59Q235.50-109.64 232.32-109.64L232.32-109.64L223.89-109.64L223.89-79.10L232.32-79.10Q235.50-79.10 238.04-80.15Q240.57-81.20 242.34-83.17Q244.11-85.13 245.07-87.97Q246.03-90.80 246.03-94.37Z"/><path xml:space="preserve" font-family="Lato" font-size="60" font-style="normal" font-weight="bold" style="stroke: none; stroke-width: 1; stroke-dasharray: none; stroke-linecap: butt; stroke-dashoffset: 0; stroke-linejoin: miter; stroke-miterlimit: 4; is-custom-font: none; font-file-url: none; fill: rgb(255,255,255); fill-rule: nonzero; opacity: 1; white-space: pre;" d="M105.32-55.04L132.68-55.04L132.68-48.62L113.45-48.62L113.45-35.78L129.68-35.78L129.68-29.33L113.45-29.33L113.45-11.66L105.32-11.66L105.32-55.04ZM148.10-55.04L148.10-11.66L140.00-11.66L140.00-55.04L148.10-55.04ZM165.92-55.04L165.92-18.32L183.29-18.32L183.29-11.66L157.85-11.66L157.85-55.04L165.92-55.04ZM188.87-55.04L216.23-55.04L216.23-48.62L197.00-48.62L197.00-36.59L212.15-36.59L212.15-30.38L197.00-30.38L197.00-18.11L216.23-18.11L216.23-11.66L188.87-11.66L188.87-55.04ZM248.45-50.96L246.47-47.15Q246.14-46.49 245.71-46.22Q245.27-45.95 244.67-45.95L244.67-45.95Q244.07-45.95 243.32-46.42Q242.57-46.88 241.55-47.45Q240.53-48.02 239.17-48.49Q237.80-48.95 235.94-48.95L235.94-48.95Q234.26-48.95 233.02-48.55Q231.77-48.14 230.92-47.42Q230.06-46.70 229.64-45.70Q229.22-44.69 229.22-43.49L229.22-43.49Q229.22-41.96 230.08-40.94Q230.93-39.92 232.34-39.20Q233.75-38.48 235.55-37.91Q237.35-37.34 239.23-36.70Q241.10-36.05 242.90-35.20Q244.70-34.34 246.11-33.04Q247.52-31.73 248.38-29.84Q249.23-27.95 249.23-25.25L249.23-25.25Q249.23-22.31 248.23-19.75Q247.22-17.18 245.29-15.28Q243.35-13.37 240.56-12.28Q237.77-11.18 234.17-11.18L234.17-11.18Q232.10-11.18 230.09-11.59Q228.08-11.99 226.24-12.74Q224.39-13.49 222.79-14.54Q221.18-15.59 219.92-16.88L219.92-16.88L222.26-20.75Q222.59-21.17 223.06-21.46Q223.52-21.74 224.09-21.74L224.09-21.74Q224.84-21.74 225.71-21.13Q226.58-20.51 227.77-19.76Q228.95-19.01 230.56-18.40Q232.16-17.78 234.41-17.78L234.41-17.78Q237.86-17.78 239.75-19.42Q241.64-21.05 241.64-24.11L241.64-24.11Q241.64-25.82 240.79-26.90Q239.93-27.98 238.52-28.72Q237.11-29.45 235.31-29.96Q233.51-30.47 231.65-31.07Q229.79-31.67 227.99-32.51Q226.19-33.35 224.78-34.70Q223.37-36.05 222.52-38.08Q221.66-40.10 221.66-43.07L221.66-43.07Q221.66-45.44 222.61-47.69Q223.55-49.94 225.37-51.68Q227.18-53.42 229.82-54.47Q232.46-55.52 235.85-55.52L235.85-55.52Q239.69-55.52 242.93-54.32Q246.17-53.12 248.45-50.96L248.45-50.96Z"/><path xml:space="preserve" font-family="Lato" font-size="60" font-style="normal" font-weight="bold" style="stroke: none; stroke-width: 1; stroke-dasharray: none; stroke-linecap: butt; stroke-dashoffset: 0; stroke-linejoin: miter; stroke-miterlimit: 4; is-custom-font: none; font-file-url: none; fill: rgb(255,255,255); fill-rule: nonzero; opacity: 1; white-space: pre;" d="M80.90 5.98L108.26 5.98L108.26 12.40L89.03 12.40L89.03 25.24L105.26 25.24L105.26 31.69L89.03 31.69L89.03 49.36L80.90 49.36L80.90 5.98ZM126.38 32.41L122.93 32.41L122.93 49.36L114.86 49.36L114.86 5.98L128.09 5.98Q132.53 5.98 135.70 6.89Q138.86 7.81 140.89 9.46Q142.91 11.11 143.86 13.40Q144.80 15.70 144.80 18.46L144.80 18.46Q144.80 20.65 144.16 22.60Q143.51 24.55 142.30 26.14Q141.08 27.73 139.30 28.93Q137.51 30.13 135.23 30.85L135.23 30.85Q136.76 31.72 137.87 33.34L137.87 33.34L148.73 49.36L141.47 49.36Q140.42 49.36 139.69 48.94Q138.95 48.52 138.44 47.74L138.44 47.74L129.32 33.85Q128.81 33.07 128.20 32.74Q127.58 32.41 126.38 32.41L126.38 32.41ZM122.93 12.22L122.93 26.62L127.97 26.62Q130.25 26.62 131.95 26.05Q133.64 25.48 134.74 24.47Q135.83 23.47 136.37 22.09Q136.91 20.71 136.91 19.06L136.91 19.06Q136.91 15.76 134.74 13.99Q132.56 12.22 128.09 12.22L128.09 12.22L122.93 12.22ZM194.06 27.67L194.06 27.67Q194.06 32.44 192.47 36.50Q190.88 40.57 188.00 43.54Q185.12 46.51 181.07 48.17Q177.02 49.84 172.10 49.84L172.10 49.84Q167.18 49.84 163.12 48.17Q159.05 46.51 156.16 43.54Q153.26 40.57 151.67 36.50Q150.08 32.44 150.08 27.67L150.08 27.67Q150.08 22.90 151.67 18.83Q153.26 14.77 156.16 11.80Q159.05 8.83 163.12 7.16Q167.18 5.50 172.10 5.50L172.10 5.50Q177.02 5.50 181.07 7.18Q185.12 8.86 188.00 11.81Q190.88 14.77 192.47 18.83Q194.06 22.90 194.06 27.67ZM185.78 27.67L185.78 27.67Q185.78 24.10 184.84 21.26Q183.89 18.43 182.12 16.45Q180.35 14.47 177.82 13.42Q175.28 12.37 172.10 12.37L172.10 12.37Q168.92 12.37 166.37 13.42Q163.82 14.47 162.04 16.45Q160.25 18.43 159.29 21.26Q158.33 24.10 158.33 27.67L158.33 27.67Q158.33 31.24 159.29 34.07Q160.25 36.91 162.04 38.87Q163.82 40.84 166.37 41.89Q168.92 42.94 172.10 42.94L172.10 42.94Q175.28 42.94 177.82 41.89Q180.35 40.84 182.12 38.87Q183.89 36.91 184.84 34.07Q185.78 31.24 185.78 27.67ZM222.20 31.36L222.20 31.36Q222.71 32.32 223.15 33.35Q223.58 34.39 224.00 35.44L224.00 35.44Q224.42 34.36 224.87 33.31Q225.32 32.26 225.83 31.30L225.83 31.30L238.67 7.27Q238.91 6.82 239.17 6.55Q239.42 6.28 239.74 6.16Q240.05 6.04 240.44 6.01Q240.83 5.98 241.37 5.98L241.37 5.98L247.46 5.98L247.46 49.36L240.35 49.36L240.35 21.34Q240.35 20.56 240.40 19.63Q240.44 18.70 240.53 17.74L240.53 17.74L227.42 42.34Q226.97 43.18 226.25 43.64Q225.53 44.11 224.57 44.11L224.57 44.11L223.46 44.11Q222.50 44.11 221.78 43.64Q221.06 43.18 220.61 42.34L220.61 42.34L207.32 17.65Q207.44 18.64 207.49 19.58Q207.53 20.53 207.53 21.34L207.53 21.34L207.53 49.36L200.42 49.36L200.42 5.98L206.51 5.98Q207.05 5.98 207.44 6.01Q207.83 6.04 208.15 6.16Q208.46 6.28 208.73 6.55Q209.00 6.82 209.24 7.27L209.24 7.27L222.20 31.36Z"/><path xml:space="preserve" font-family="Lato" font-size="60" font-style="normal" font-weight="bold" style="stroke: none; stroke-width: 1; stroke-dasharray: none; stroke-linecap: butt; stroke-dashoffset: 0; stroke-linejoin: miter; stroke-miterlimit: 4; is-custom-font: none; font-file-url: none; fill: rgb(255,255,255); fill-rule: nonzero; opacity: 1; white-space: pre;" d="M159.38 103.87L159.38 103.87Q161.72 103.87 163.57 103.09Q165.41 102.31 166.69 100.90Q167.96 99.49 168.64 97.48Q169.31 95.47 169.31 92.98L169.31 92.98L169.31 67.00L177.38 67.00L177.38 92.98Q177.38 96.85 176.14 100.13Q174.89 103.42 172.55 105.80Q170.21 108.19 166.88 109.52Q163.55 110.86 159.38 110.86L159.38 110.86Q155.21 110.86 151.88 109.52Q148.55 108.19 146.23 105.80Q143.90 103.42 142.66 100.13Q141.41 96.85 141.41 92.98L141.41 92.98L141.41 67.00L149.48 67.00L149.48 92.95Q149.48 95.44 150.16 97.45Q150.83 99.46 152.09 100.88Q153.35 102.31 155.20 103.09Q157.04 103.87 159.38 103.87ZM197.39 93.43L193.94 93.43L193.94 110.38L185.87 110.38L185.87 67.00L199.10 67.00Q203.54 67.00 206.71 67.91Q209.87 68.83 211.90 70.48Q213.92 72.13 214.87 74.42Q215.81 76.72 215.81 79.48L215.81 79.48Q215.81 81.67 215.17 83.62Q214.52 85.57 213.31 87.16Q212.09 88.75 210.31 89.95Q208.52 91.15 206.24 91.87L206.24 91.87Q207.77 92.74 208.88 94.36L208.88 94.36L219.74 110.38L212.48 110.38Q211.43 110.38 210.70 109.96Q209.96 109.54 209.45 108.76L209.45 108.76L200.33 94.87Q199.82 94.09 199.21 93.76Q198.59 93.43 197.39 93.43L197.39 93.43ZM193.94 73.24L193.94 87.64L198.98 87.64Q201.26 87.64 202.96 87.07Q204.65 86.50 205.75 85.49Q206.84 84.49 207.38 83.11Q207.92 81.73 207.92 80.08L207.92 80.08Q207.92 76.78 205.75 75.01Q203.57 73.24 199.10 73.24L199.10 73.24L193.94 73.24ZM232.97 67.00L232.97 103.72L250.34 103.72L250.34 110.38L224.90 110.38L224.90 67.00L232.97 67.00Z"/></g>
<g transform="matrix(8.1893 -1.7095 1.7095 8.1893 86.176 208.4832)" id="629343">
<path style="stroke: none; stroke-width: 1; stroke-dasharray: none; stroke-linecap: butt; stroke-dashoffset: 0; stroke-linejoin: miter; stroke-miterlimit: 4; is-custom-font: none; font-file-url: none; fill: rgb(255,255,255); fill-rule: evenodd; opacity: 1;" vector-effect="non-scaling-stroke" transform=" translate(-7, -8.0025)" d="M 14 4.5 V 14 a 2 2 0 0 1 -2 2 v -1 a 1 1 0 0 0 1 -1 V 4.5 h -2 A 1.5 1.5 0 0 1 9.5 3 V 1 H 4 a 1 1 0 0 0 -1 1 v 9 H 2 V 2 a 2 2 0 0 1 2 -2 h 5.5 L 14 4.5 Z m -4.911 9.67 h -0.443 v -0.609 h 0.422 a 0.688 0.688 0 0 0 0.322 -0.073 a 0.558 0.558 0 0 0 0.22 -0.2 a 0.505 0.505 0 0 0 0.076 -0.284 a 0.49 0.49 0 0 0 -0.176 -0.392 a 0.652 0.652 0 0 0 -0.442 -0.15 a 0.74 0.74 0 0 0 -0.252 0.041 a 0.625 0.625 0 0 0 -0.193 0.112 a 0.496 0.496 0 0 0 -0.179 0.349 H 7.71 c 0.006 -0.157 0.04 -0.302 0.102 -0.437 c 0.063 -0.135 0.153 -0.252 0.27 -0.352 c 0.117 -0.101 0.26 -0.18 0.428 -0.237 c 0.17 -0.057 0.364 -0.086 0.583 -0.088 c 0.279 -0.002 0.52 0.042 0.723 0.132 c 0.203 0.09 0.36 0.214 0.472 0.372 a 0.91 0.91 0 0 1 0.173 0.539 a 0.833 0.833 0 0 1 -0.12 0.478 a 0.96 0.96 0 0 1 -0.619 0.439 v 0.041 a 1.008 1.008 0 0 1 0.718 0.434 a 0.909 0.909 0 0 1 0.144 0.521 c 0.002 0.19 -0.037 0.359 -0.117 0.507 a 1.104 1.104 0 0 1 -0.329 0.378 c -0.14 0.101 -0.302 0.18 -0.486 0.234 c -0.182 0.053 -0.376 0.08 -0.583 0.08 c -0.3 0 -0.558 -0.051 -0.77 -0.153 a 1.206 1.206 0 0 1 -0.487 -0.41 a 1.094 1.094 0 0 1 -0.178 -0.563 h 0.726 a 0.457 0.457 0 0 0 0.106 0.258 a 0.664 0.664 0 0 0 0.249 0.179 a 0.98 0.98 0 0 0 0.357 0.067 a 0.903 0.903 0 0 0 0.384 -0.076 a 0.598 0.598 0 0 0 0.252 -0.217 a 0.56 0.56 0 0 0 0.088 -0.319 a 0.556 0.556 0 0 0 -0.334 -0.522 a 0.81 0.81 0 0 0 -0.372 -0.079 Z M 0.706 15.925 v -2.66 h 0.038 l 0.952 2.16 h 0.516 l 0.946 -2.16 h 0.038 v 2.66 h 0.715 v -3.999 h -0.8 l -1.14 2.596 h -0.026 l -1.14 -2.596 H 0 v 4 h 0.706 Z m 5.458 -3.999 h -1.6 v 4 h 0.792 v -1.342 h 0.803 c 0.287 0 0.53 -0.058 0.732 -0.173 c 0.203 -0.118 0.357 -0.276 0.463 -0.475 a 1.42 1.42 0 0 0 0.161 -0.677 c 0 -0.25 -0.053 -0.475 -0.158 -0.677 a 1.175 1.175 0 0 0 -0.46 -0.477 a 1.4 1.4 0 0 0 -0.733 -0.179 Z m 0.545 1.333 a 0.795 0.795 0 0 1 -0.085 0.381 a 0.574 0.574 0 0 1 -0.237 0.24 a 0.793 0.793 0 0 1 -0.375 0.082 h -0.66 v -1.406 h 0.66 c 0.219 0 0.39 0.06 0.513 0.182 c 0.123 0.12 0.184 0.295 0.184 0.521 Z" stroke-linecap="round"/>
</g>
<g transform="matrix(9.2142 3.3115 -3.3115 9.2142 282.769 189.0422)" id="39741">
<path style="stroke: none; stroke-width: 1; stroke-dasharray: none; stroke-linecap: butt; stroke-dashoffset: 0; stroke-linejoin: miter; stroke-miterlimit: 4; is-custom-font: none; font-file-url: none; fill: rgb(255,255,255); fill-rule: evenodd; opacity: 1;" vector-effect="non-scaling-stroke" transform=" translate(-7, -8)" d="M 14 4.5 V 14 a 2 2 0 0 1 -2 2 v -1 a 1 1 0 0 0 1 -1 V 4.5 h -2 A 1.5 1.5 0 0 1 9.5 3 V 1 H 4 a 1 1 0 0 0 -1 1 v 9 H 2 V 2 a 2 2 0 0 1 2 -2 h 5.5 L 14 4.5 Z M 0.706 15.849 v -2.66 h 0.038 l 0.952 2.16 h 0.516 l 0.946 -2.16 h 0.038 v 2.66 h 0.715 V 11.85 h -0.8 l -1.14 2.596 h -0.026 L 0.805 11.85 H 0 v 3.999 h 0.706 Z m 5.278 -3.999 h -1.6 v 3.999 h 0.792 v -1.342 h 0.803 c 0.287 0 0.53 -0.057 0.732 -0.173 c 0.203 -0.117 0.357 -0.275 0.463 -0.474 a 1.42 1.42 0 0 0 0.161 -0.677 c 0 -0.25 -0.053 -0.476 -0.158 -0.677 a 1.176 1.176 0 0 0 -0.46 -0.477 a 1.4 1.4 0 0 0 -0.733 -0.179 Z m 0.545 1.333 a 0.795 0.795 0 0 1 -0.085 0.38 a 0.574 0.574 0 0 1 -0.237 0.241 a 0.794 0.794 0 0 1 -0.375 0.082 h -0.66 V 12.48 h 0.66 c 0.219 0 0.39 0.06 0.513 0.181 c 0.123 0.122 0.184 0.296 0.184 0.522 Z m 1.505 -0.032 c 0.266 -0.434 0.53 -0.867 0.791 -1.301 h 1.14 v 2.62 h 0.49 v 0.638 h -0.49 v 0.741 h -0.741 v -0.741 H 7.287 v -0.648 c 0.235 -0.44 0.484 -0.876 0.747 -1.31 Z m -0.029 1.298 v 0.02 h 1.219 v -2.021 h -0.041 c -0.201 0.318 -0.404 0.646 -0.607 0.984 c -0.2 0.338 -0.391 0.677 -0.571 1.017 Z" stroke-linecap="round"/>
</g>
<g transform="matrix(6.6189 0.6908 -0.6908 6.6189 158.0452 72.4474)" id="81991">
<path style="stroke: none; stroke-width: 1; stroke-dasharray: none; stroke-linecap: butt; stroke-dashoffset: 0; stroke-linejoin: miter; stroke-miterlimit: 4; is-custom-font: none; font-file-url: none; fill: rgb(255,255,255); fill-rule: evenodd; opacity: 1;" vector-effect="non-scaling-stroke" transform=" translate(-7, -8)" d="M 14 4.5 V 14 a 2 2 0 0 1 -2 2 h -2 v -1 h 2 a 1 1 0 0 0 1 -1 V 4.5 h -2 A 1.5 1.5 0 0 1 9.5 3 V 1 H 4 a 1 1 0 0 0 -1 1 v 9 H 2 V 2 a 2 2 0 0 1 2 -2 h 5.5 L 14 4.5 Z M 1.928 15.849 v -3.337 h 1.136 v -0.662 H 0 v 0.662 h 1.134 v 3.337 h 0.794 Z m 4.689 -3.999 h -0.894 L 4.9 13.289 h -0.035 l -0.832 -1.439 h -0.932 l 1.228 1.983 l -1.24 2.016 h 0.862 l 0.853 -1.415 h 0.035 l 0.85 1.415 h 0.907 l -1.253 -1.992 l 1.274 -2.007 Z m 1.93 0.662 v 3.337 h -0.794 v -3.337 H 6.619 v -0.662 h 3.064 v 0.662 H 8.546 Z" stroke-linecap="round"/>
</g>
</svg>
